<?xml version="1.0" encoding="UTF-8" standalone="no"?>
<!DOCTYPE svg PUBLIC "-//W3C//DTD SVG 1.1//EN"
 "http://www.w3.org/Graphics/SVG/1.1/DTD/svg11.dtd">
<!-- Generated by graphviz version 14.1.2 (0)
 -->
<!-- Title: jcode_architecture Pages: 1 -->
<svg width="1199pt" height="359pt"
 viewBox="0.00 0.00 1199.00 359.00" xmlns="http://www.w3.org/2000/svg" xmlns:xlink="http://www.w3.org/1999/xlink">
<style>
<!-- White text halo for edge label readability -->
text { paint-order: stroke; stroke: #ffffff; stroke-width: 3px; stroke-linejoin: round; fill: #1a1a2e; }
</style>
<g id="graph0" class="graph" transform="scale(1 1) rotate(0) translate(4 355)">
<title>jcode_architecture</title>
<polygon fill="white" stroke="none" points="-4,4 -4,-355 1194.75,-355 1194.75,4 -4,4"/>
<text xml:space="preserve" text-anchor="middle" x="595.38" y="-7.2" font-family="Times New Roman,serif" font-size="14.00">jcode &#45; Next&#45;Generation Coding Agent Harness</text>
<!-- user -->
<g id="node1" class="node">
<title>user</title>
<polygon fill="#4caf50" stroke="black" points="568.25,-351 446.5,-351 446.5,-315 568.25,-315 568.25,-351"/>
<text xml:space="preserve" text-anchor="middle" x="507.38" y="-336.05" font-family="Arial" font-size="11.00" fill="white">Developer</text>
<text xml:space="preserve" text-anchor="middle" x="507.38" y="-322.55" font-family="Arial" font-size="11.00" fill="white">(CLI / TUI / Headless)</text>
</g>
<!-- engine -->
<g id="node2" class="node">
<title>engine</title>
<path fill="#2196f3" stroke="black" d="M556.25,-257C556.25,-257 458.5,-257 458.5,-257 452.5,-257 446.5,-251 446.5,-245 446.5,-245 446.5,-232.5 446.5,-232.5 446.5,-226.5 452.5,-220.5 458.5,-220.5 458.5,-220.5 556.25,-220.5 556.25,-220.5 562.25,-220.5 568.25,-226.5 568.25,-232.5 568.25,-232.5 568.25,-245 568.25,-245 568.25,-251 562.25,-257 556.25,-257"/>
<text xml:space="preserve" text-anchor="middle" x="507.38" y="-241.6" font-family="Arial Bold" font-size="12.00" fill="white">jcode Core Engine</text>
<text xml:space="preserve" text-anchor="middle" x="507.38" y="-227.35" font-family="Arial Bold" font-size="12.00" fill="white">(Rust &#45; 14ms boot)</text>
</g>
<!-- user&#45;&gt;engine -->
<g id="edge1" class="edge">
<title>user&#45;&gt;engine</title>
<path fill="none" stroke="#4caf50" stroke-width="2" d="M507.38,-314.83C507.38,-314.83 507.38,-270.22 507.38,-270.22"/>
<polygon fill="#4caf50" stroke="#4caf50" stroke-width="2" points="510.88,-270.22 507.38,-260.22 503.88,-270.22 510.88,-270.22"/>
</g>
<!-- memory -->
<g id="node3" class="node">
<title>memory</title>
<path fill="#ff9800" stroke="black" d="M142.75,-158.5C142.75,-158.5 12,-158.5 12,-158.5 6,-158.5 0,-152.5 0,-146.5 0,-146.5 0,-134.5 0,-134.5 0,-128.5 6,-122.5 12,-122.5 12,-122.5 142.75,-122.5 142.75,-122.5 148.75,-122.5 154.75,-128.5 154.75,-134.5 154.75,-134.5 154.75,-146.5 154.75,-146.5 154.75,-152.5 148.75,-158.5 142.75,-158.5"/>
<text xml:space="preserve" text-anchor="middle" x="77.38" y="-143.55" font-family="Arial" font-size="11.00" fill="white">Semantic Memory</text>
<text xml:space="preserve" text-anchor="middle" x="77.38" y="-130.05" font-family="Arial" font-size="11.00" fill="white">(Vector Embedding + Graph)</text>
</g>
<!-- engine&#45;&gt;memory -->
<g id="edge2" class="edge">
<title>engine&#45;&gt;memory</title>
<path fill="none" stroke="#ff9800" stroke-width="2" d="M446.22,-247.5C327.51,-247.5 77.38,-247.5 77.38,-247.5 77.38,-247.5 77.38,-171.68 77.38,-171.68"/>
<polygon fill="#ff9800" stroke="#ff9800" stroke-width="2" points="80.88,-171.68 77.38,-161.68 73.88,-171.68 80.88,-171.68"/>
</g>
<!-- swarm -->
<g id="node4" class="node">
<title>swarm</title>
<path fill="#ff9800" stroke="black" d="M292.12,-158.5C292.12,-158.5 202.62,-158.5 202.62,-158.5 196.62,-158.5 190.62,-152.5 190.62,-146.5 190.62,-146.5 190.62,-134.5 190.62,-134.5 190.62,-128.5 196.62,-122.5 202.62,-122.5 202.62,-122.5 292.12,-122.5 292.12,-122.5 298.12,-122.5 304.12,-128.5 304.12,-134.5 304.12,-134.5 304.12,-146.5 304.12,-146.5 304.12,-152.5 298.12,-158.5 292.12,-158.5"/>
<text xml:space="preserve" text-anchor="middle" x="247.38" y="-143.55" font-family="Arial" font-size="11.00" fill="white">Swarm Orchestrator</text>
<text xml:space="preserve" text-anchor="middle" x="247.38" y="-130.05" font-family="Arial" font-size="11.00" fill="white">(Multi&#45;Agent Collab)</text>
</g>
<!-- engine&#45;&gt;swarm -->
<g id="edge3" class="edge">
<title>engine&#45;&gt;swarm</title>
<path fill="none" stroke="#ff9800" stroke-width="2" d="M446.23,-229.5C374.8,-229.5 266.29,-229.5 266.29,-229.5 266.29,-229.5 266.29,-171.97 266.29,-171.97"/>
<polygon fill="#ff9800" stroke="#ff9800" stroke-width="2" points="269.79,-171.97 266.29,-161.97 262.79,-171.97 269.79,-171.97"/>
</g>
<!-- selfdev -->
<g id="node5" class="node">
<title>selfdev</title>
<path fill="#ff9800" stroke="black" d="M486.25,-158.5C486.25,-158.5 352.5,-158.5 352.5,-158.5 346.5,-158.5 340.5,-152.5 340.5,-146.5 340.5,-146.5 340.5,-134.5 340.5,-134.5 340.5,-128.5 346.5,-122.5 352.5,-122.5 352.5,-122.5 486.25,-122.5 486.25,-122.5 492.25,-122.5 498.25,-128.5 498.25,-134.5 498.25,-134.5 498.25,-146.5 498.25,-146.5 498.25,-152.5 492.25,-158.5 486.25,-158.5"/>
<text xml:space="preserve" text-anchor="middle" x="419.38" y="-143.55" font-family="Arial" font-size="11.00" fill="white">Self&#45;Dev Mode</text>
<text xml:space="preserve" text-anchor="middle" x="419.38" y="-130.05" font-family="Arial" font-size="11.00" fill="white">(Agent Modifies Own Source)</text>
</g>
<!-- engine&#45;&gt;selfdev -->
<g id="edge4" class="edge">
<title>engine&#45;&gt;selfdev</title>
<path fill="none" stroke="#ff9800" stroke-width="2" d="M472.38,-220.27C472.38,-220.27 472.38,-171.92 472.38,-171.92"/>
<polygon fill="#ff9800" stroke="#ff9800" stroke-width="2" points="475.88,-171.92 472.38,-161.92 468.88,-171.92 475.88,-171.92"/>
</g>
<!-- browser -->
<g id="node6" class="node">
<title>browser</title>
<path fill="#ff9800" stroke="black" d="M644.25,-158.5C644.25,-158.5 546.5,-158.5 546.5,-158.5 540.5,-158.5 534.5,-152.5 534.5,-146.5 534.5,-146.5 534.5,-134.5 534.5,-134.5 534.5,-128.5 540.5,-122.5 546.5,-122.5 546.5,-122.5 644.25,-122.5 644.25,-122.5 650.25,-122.5 656.25,-128.5 656.25,-134.5 656.25,-134.5 656.25,-146.5 656.25,-146.5 656.25,-152.5 650.25,-158.5 644.25,-158.5"/>
<text xml:space="preserve" text-anchor="middle" x="595.38" y="-143.55" font-family="Arial" font-size="11.00" fill="white">Browser Automation</text>
<text xml:space="preserve" text-anchor="middle" x="595.38" y="-130.05" font-family="Arial" font-size="11.00" fill="white">(Firefox Agent Bridge)</text>
</g>
<!-- engine&#45;&gt;browser -->
<g id="edge5" class="edge">
<title>engine&#45;&gt;browser</title>
<path fill="none" stroke="#ff9800" stroke-width="2" d="M551.38,-220.27C551.38,-220.27 551.38,-171.92 551.38,-171.92"/>
<polygon fill="#ff9800" stroke="#ff9800" stroke-width="2" points="554.88,-171.92 551.38,-161.92 547.88,-171.92 554.88,-171.92"/>
</g>
<!-- ui -->
<g id="node7" class="node">
<title>ui</title>
<path fill="#00bcd4" stroke="black" d="M812.5,-158.5C812.5,-158.5 704.25,-158.5 704.25,-158.5 698.25,-158.5 692.25,-152.5 692.25,-146.5 692.25,-146.5 692.25,-134.5 692.25,-134.5 692.25,-128.5 698.25,-122.5 704.25,-122.5 704.25,-122.5 812.5,-122.5 812.5,-122.5 818.5,-122.5 824.5,-128.5 824.5,-134.5 824.5,-134.5 824.5,-146.5 824.5,-146.5 824.5,-152.5 818.5,-158.5 812.5,-158.5"/>
<text xml:space="preserve" text-anchor="middle" x="758.38" y="-143.55" font-family="Arial" font-size="11.00" fill="white">High&#45;Performance TUI</text>
<text xml:space="preserve" text-anchor="middle" x="758.38" y="-130.05" font-family="Arial" font-size="11.00" fill="white">(1000+ FPS Rendering)</text>
</g>
<!-- engine&#45;&gt;ui -->
<g id="edge6" class="edge">
<title>engine&#45;&gt;ui</title>
<path fill="none" stroke="#00bcd4" stroke-width="2" d="M568.46,-229.5C642.75,-229.5 758.38,-229.5 758.38,-229.5 758.38,-229.5 758.38,-171.97 758.38,-171.97"/>
<polygon fill="#00bcd4" stroke="#00bcd4" stroke-width="2" points="761.88,-171.97 758.38,-161.97 754.88,-171.97 761.88,-171.97"/>
</g>
<!-- providers -->
<g id="node8" class="node">
<title>providers</title>
<path fill="#9c27b0" stroke="black" d="M1024.25,-162.5C1024.25,-162.5 872.5,-162.5 872.5,-162.5 866.5,-162.5 860.5,-156.5 860.5,-150.5 860.5,-150.5 860.5,-130.5 860.5,-130.5 860.5,-124.5 866.5,-118.5 872.5,-118.5 872.5,-118.5 1024.25,-118.5 1024.25,-118.5 1030.25,-118.5 1036.25,-124.5 1036.25,-130.5 1036.25,-130.5 1036.25,-150.5 1036.25,-150.5 1036.25,-156.5 1030.25,-162.5 1024.25,-162.5"/>
<text xml:space="preserve" text-anchor="middle" x="948.38" y="-149" font-family="Arial" font-size="10.00" fill="white">30+ Provider Integrations</text>
<text xml:space="preserve" text-anchor="middle" x="948.38" y="-137" font-family="Arial" font-size="10.00" fill="white">Claude / OpenAI / Gemini / Copilot</text>
<text xml:space="preserve" text-anchor="middle" x="948.38" y="-125" font-family="Arial" font-size="10.00" fill="white">Azure / Ollama / vLLM / OpenRouter</text>
</g>
<!-- engine&#45;&gt;providers -->
<g id="edge7" class="edge">
<title>engine&#45;&gt;providers</title>
<path fill="none" stroke="#9c27b0" stroke-width="2" d="M568.69,-238.5C689.87,-238.5 948.38,-238.5 948.38,-238.5 948.38,-238.5 948.38,-175.76 948.38,-175.76"/>
<polygon fill="#9c27b0" stroke="#9c27b0" stroke-width="2" points="951.88,-175.76 948.38,-165.76 944.88,-175.76 951.88,-175.76"/>
</g>
<!-- mcp -->
<g id="node9" class="node">
<title>mcp</title>
<path fill="#9c27b0" stroke="black" d="M1178.75,-158.5C1178.75,-158.5 1084,-158.5 1084,-158.5 1078,-158.5 1072,-152.5 1072,-146.5 1072,-146.5 1072,-134.5 1072,-134.5 1072,-128.5 1078,-122.5 1084,-122.5 1084,-122.5 1178.75,-122.5 1178.75,-122.5 1184.75,-122.5 1190.75,-128.5 1190.75,-134.5 1190.75,-134.5 1190.75,-146.5 1190.75,-146.5 1190.75,-152.5 1184.75,-158.5 1178.75,-158.5"/>
<text xml:space="preserve" text-anchor="middle" x="1131.38" y="-143" font-family="Arial" font-size="10.00" fill="white">MCP Server Support</text>
<text xml:space="preserve" text-anchor="middle" x="1131.38" y="-131" font-family="Arial" font-size="10.00" fill="white">(Global + Project&#45;Local)</text>
</g>
<!-- engine&#45;&gt;mcp -->
<g id="edge8" class="edge">
<title>engine&#45;&gt;mcp</title>
<path fill="none" stroke="#9c27b0" stroke-width="2" d="M568.63,-247.5C725.85,-247.5 1131.38,-247.5 1131.38,-247.5 1131.38,-247.5 1131.38,-171.68 1131.38,-171.68"/>
<polygon fill="#9c27b0" stroke="#9c27b0" stroke-width="2" points="1134.88,-171.68 1131.38,-161.68 1127.88,-171.68 1134.88,-171.68"/>
</g>
<!-- swarm&#45;&gt;engine -->
<g id="edge11" class="edge">
<title>swarm&#45;&gt;engine</title>
<path fill="none" stroke="#2196f3" stroke-width="1.5" stroke-dasharray="5,2" d="M228.46,-158.93C228.46,-187.32 228.46,-238.5 228.46,-238.5 228.46,-238.5 433.9,-238.5 433.9,-238.5"/>
<polygon fill="#2196f3" stroke="#2196f3" stroke-width="1.5" points="433.9,-242 443.9,-238.5 433.9,-235 433.9,-242"/>
<text xml:space="preserve" text-anchor="middle" x="252.02" y="-241.7" font-family="Times New Roman,serif" font-size="14.00">Agent Spawns</text>
</g>
<!-- codebase -->
<g id="node10" class="node">
<title>codebase</title>
<polygon fill="#f44336" stroke="black" points="1099.88,-60.5 978.88,-60.5 978.88,-24.5 1099.88,-24.5 1099.88,-60.5"/>
<text xml:space="preserve" text-anchor="middle" x="1039.38" y="-45.55" font-family="Arial" font-size="11.00" fill="white">Codebase</text>
<text xml:space="preserve" text-anchor="middle" x="1039.38" y="-32.05" font-family="Arial" font-size="11.00" fill="white">(Files / Git / Sessions)</text>
</g>
<!-- providers&#45;&gt;codebase -->
<g id="edge9" class="edge">
<title>providers&#45;&gt;codebase</title>
<path fill="none" stroke="#f44336" stroke-width="2" d="M1007.56,-118.26C1007.56,-118.26 1007.56,-73.74 1007.56,-73.74"/>
<polygon fill="#f44336" stroke="#f44336" stroke-width="2" points="1011.06,-73.74 1007.56,-63.74 1004.06,-73.74 1011.06,-73.74"/>
</g>
<!-- mcp&#45;&gt;codebase -->
<g id="edge10" class="edge">
<title>mcp&#45;&gt;codebase</title>
<path fill="none" stroke="#f44336" stroke-width="1.5" stroke-dasharray="5,2" d="M1085.94,-122.07C1085.94,-122.07 1085.94,-73.12 1085.94,-73.12"/>
<polygon fill="#f44336" stroke="#f44336" stroke-width="1.5" points="1089.44,-73.12 1085.94,-63.12 1082.44,-73.12 1089.44,-73.12"/>
</g>
</g>
</svg>
