<?xml version="1.0" encoding="UTF-8" standalone="no"?>
<!DOCTYPE svg PUBLIC "-//W3C//DTD SVG 1.1//EN"
 "http://www.w3.org/Graphics/SVG/1.1/DTD/svg11.dtd">
<!-- Generated by graphviz version 14.1.2 (0)
 -->
<!-- Title: G Pages: 1 -->
<svg width="1179pt" height="405pt"
 viewBox="0.00 0.00 1179.00 405.00" xmlns="http://www.w3.org/2000/svg" xmlns:xlink="http://www.w3.org/1999/xlink">
<g id="graph0" class="graph" transform="scale(1 1) rotate(0) translate(4 401.25)">
<title>G</title>
<!-- title -->
<g id="node1" class="node">
<title>title</title>
<text xml:space="preserve" text-anchor="middle" x="258.88" y="-374.18" font-family="Helvetica Bold" font-size="16.00" fill="#1e293b">Fireworks Tech Graph &#45; 14 Diagram Types (Full UML Coverage)</text>
</g>
<!-- cat_struct -->
<g id="node2" class="node">
<title>cat_struct</title>
<polygon fill="#2563eb" stroke="black" points="314.12,-325.25 215.62,-325.25 215.62,-329.25 203.62,-329.25 203.62,-289.25 314.12,-289.25 314.12,-325.25"/>
<polyline fill="none" stroke="black" points="203.62,-325.25 215.62,-325.25"/>
<text xml:space="preserve" text-anchor="middle" x="258.88" y="-302.57" font-family="Helvetica Bold" font-size="14.00" fill="white">STRUCTURAL</text>
</g>
<!-- title&#45;&gt;cat_struct -->
<!-- arch -->
<g id="node3" class="node">
<title>arch</title>
<path fill="#dbeafe" stroke="#2563eb" d="M61.25,-253.25C61.25,-253.25 20.5,-253.25 20.5,-253.25 14.5,-253.25 8.5,-247.25 8.5,-241.25 8.5,-241.25 8.5,-229.25 8.5,-229.25 8.5,-223.25 14.5,-217.25 20.5,-217.25 20.5,-217.25 61.25,-217.25 61.25,-217.25 67.25,-217.25 73.25,-223.25 73.25,-229.25 73.25,-229.25 73.25,-241.25 73.25,-241.25 73.25,-247.25 67.25,-253.25 61.25,-253.25"/>
<text xml:space="preserve" text-anchor="middle" x="40.88" y="-237.2" font-family="Helvetica,sans-Serif" font-size="9.00" fill="#1e293b">Architecture</text>
<text xml:space="preserve" text-anchor="middle" x="40.88" y="-226.7" font-family="Helvetica,sans-Serif" font-size="9.00" fill="#1e293b">Diagram</text>
</g>
<!-- cat_struct&#45;&gt;arch -->
<g id="edge1" class="edge">
<title>cat_struct&#45;&gt;arch</title>
<path fill="none" stroke="#2563eb" stroke-width="1.5" d="M203.3,-313C138.71,-313 40.88,-313 40.88,-313 40.88,-313 40.88,-265.95 40.88,-265.95"/>
<polygon fill="#2563eb" stroke="#2563eb" stroke-width="1.5" points="44.38,-265.95 40.88,-255.95 37.38,-265.95 44.38,-265.95"/>
</g>
<!-- class -->
<g id="node4" class="node">
<title>class</title>
<path fill="#dbeafe" stroke="#2563eb" d="M156.25,-253.25C156.25,-253.25 103.5,-253.25 103.5,-253.25 97.5,-253.25 91.5,-247.25 91.5,-241.25 91.5,-241.25 91.5,-229.25 91.5,-229.25 91.5,-223.25 97.5,-217.25 103.5,-217.25 103.5,-217.25 156.25,-217.25 156.25,-217.25 162.25,-217.25 168.25,-223.25 168.25,-229.25 168.25,-229.25 168.25,-241.25 168.25,-241.25 168.25,-247.25 162.25,-253.25 156.25,-253.25"/>
<text xml:space="preserve" text-anchor="middle" x="129.88" y="-237.2" font-family="Helvetica,sans-Serif" font-size="9.00" fill="#1e293b">Class Diagram</text>
<text xml:space="preserve" text-anchor="middle" x="129.88" y="-226.7" font-family="Helvetica,sans-Serif" font-size="9.00" fill="#1e293b">(UML)</text>
</g>
<!-- cat_struct&#45;&gt;class -->
<g id="edge2" class="edge">
<title>cat_struct&#45;&gt;class</title>
<path fill="none" stroke="#2563eb" stroke-width="1.5" d="M203.42,-301C168.46,-301 129.88,-301 129.88,-301 129.88,-301 129.88,-265.84 129.88,-265.84"/>
<polygon fill="#2563eb" stroke="#2563eb" stroke-width="1.5" points="133.38,-265.84 129.88,-255.84 126.38,-265.84 133.38,-265.84"/>
</g>
<!-- er -->
<g id="node5" class="node">
<title>er</title>
<path fill="#dbeafe" stroke="#2563eb" d="M241,-253.25C241,-253.25 198.75,-253.25 198.75,-253.25 192.75,-253.25 186.75,-247.25 186.75,-241.25 186.75,-241.25 186.75,-229.25 186.75,-229.25 186.75,-223.25 192.75,-217.25 198.75,-217.25 198.75,-217.25 241,-217.25 241,-217.25 247,-217.25 253,-223.25 253,-229.25 253,-229.25 253,-241.25 253,-241.25 253,-247.25 247,-253.25 241,-253.25"/>
<text xml:space="preserve" text-anchor="middle" x="219.88" y="-231.95" font-family="Helvetica,sans-Serif" font-size="9.00" fill="#1e293b">ER Diagram</text>
</g>
<!-- cat_struct&#45;&gt;er -->
<g id="edge3" class="edge">
<title>cat_struct&#45;&gt;er</title>
<path fill="none" stroke="#2563eb" stroke-width="1.5" d="M228.31,-289.08C228.31,-289.08 228.31,-265.93 228.31,-265.93"/>
<polygon fill="#2563eb" stroke="#2563eb" stroke-width="1.5" points="231.81,-265.93 228.31,-255.93 224.81,-265.93 231.81,-265.93"/>
</g>
<!-- network -->
<g id="node6" class="node">
<title>network</title>
<path fill="#dbeafe" stroke="#2563eb" d="M312.88,-253.25C312.88,-253.25 282.88,-253.25 282.88,-253.25 276.88,-253.25 270.88,-247.25 270.88,-241.25 270.88,-241.25 270.88,-229.25 270.88,-229.25 270.88,-223.25 276.88,-217.25 282.88,-217.25 282.88,-217.25 312.88,-217.25 312.88,-217.25 318.88,-217.25 324.88,-223.25 324.88,-229.25 324.88,-229.25 324.88,-241.25 324.88,-241.25 324.88,-247.25 318.88,-253.25 312.88,-253.25"/>
<text xml:space="preserve" text-anchor="middle" x="297.88" y="-237.2" font-family="Helvetica,sans-Serif" font-size="9.00" fill="#1e293b">Network</text>
<text xml:space="preserve" text-anchor="middle" x="297.88" y="-226.7" font-family="Helvetica,sans-Serif" font-size="9.00" fill="#1e293b">Topology</text>
</g>
<!-- cat_struct&#45;&gt;network -->
<g id="edge4" class="edge">
<title>cat_struct&#45;&gt;network</title>
<path fill="none" stroke="#2563eb" stroke-width="1.5" d="M292.5,-289.08C292.5,-289.08 292.5,-265.93 292.5,-265.93"/>
<polygon fill="#2563eb" stroke="#2563eb" stroke-width="1.5" points="296,-265.93 292.5,-255.93 289,-265.93 296,-265.93"/>
</g>
<!-- component -->
<g id="node7" class="node">
<title>component</title>
<path fill="#dbeafe" stroke="#2563eb" d="M404.38,-253.25C404.38,-253.25 355.38,-253.25 355.38,-253.25 349.38,-253.25 343.38,-247.25 343.38,-241.25 343.38,-241.25 343.38,-229.25 343.38,-229.25 343.38,-223.25 349.38,-217.25 355.38,-217.25 355.38,-217.25 404.38,-217.25 404.38,-217.25 410.38,-217.25 416.38,-223.25 416.38,-229.25 416.38,-229.25 416.38,-241.25 416.38,-241.25 416.38,-247.25 410.38,-253.25 404.38,-253.25"/>
<text xml:space="preserve" text-anchor="middle" x="379.88" y="-237.2" font-family="Helvetica,sans-Serif" font-size="9.00" fill="#1e293b">Component</text>
<text xml:space="preserve" text-anchor="middle" x="379.88" y="-226.7" font-family="Helvetica,sans-Serif" font-size="9.00" fill="#1e293b">(Arch. variant)</text>
</g>
<!-- cat_struct&#45;&gt;component -->
<g id="edge5" class="edge">
<title>cat_struct&#45;&gt;component</title>
<path fill="none" stroke="#2563eb" stroke-width="1.5" d="M314.42,-301C346.23,-301 379.88,-301 379.88,-301 379.88,-301 379.88,-265.84 379.88,-265.84"/>
<polygon fill="#2563eb" stroke="#2563eb" stroke-width="1.5" points="383.38,-265.84 379.88,-255.84 376.38,-265.84 383.38,-265.84"/>
</g>
<!-- cat_behav -->
<g id="node8" class="node">
<title>cat_behav</title>
<polygon fill="#7c3aed" stroke="black" points="543.75,-253.25 446,-253.25 446,-257.25 434,-257.25 434,-217.25 543.75,-217.25 543.75,-253.25"/>
<polyline fill="none" stroke="black" points="434,-253.25 446,-253.25"/>
<text xml:space="preserve" text-anchor="middle" x="488.88" y="-230.57" font-family="Helvetica Bold" font-size="14.00" fill="white">BEHAVIORAL</text>
</g>
<!-- cat_struct&#45;&gt;cat_behav -->
<!-- flowchart -->
<g id="node9" class="node">
<title>flowchart</title>
<path fill="#ede9fe" stroke="#7c3aed" d="M304.25,-181.25C304.25,-181.25 257.5,-181.25 257.5,-181.25 251.5,-181.25 245.5,-175.25 245.5,-169.25 245.5,-169.25 245.5,-157.25 245.5,-157.25 245.5,-151.25 251.5,-145.25 257.5,-145.25 257.5,-145.25 304.25,-145.25 304.25,-145.25 310.25,-145.25 316.25,-151.25 316.25,-157.25 316.25,-157.25 316.25,-169.25 316.25,-169.25 316.25,-175.25 310.25,-181.25 304.25,-181.25"/>
<text xml:space="preserve" text-anchor="middle" x="280.88" y="-165.2" font-family="Helvetica,sans-Serif" font-size="9.00" fill="#1e293b">Flowchart /</text>
<text xml:space="preserve" text-anchor="middle" x="280.88" y="-154.7" font-family="Helvetica,sans-Serif" font-size="9.00" fill="#1e293b">Process Flow</text>
</g>
<!-- cat_behav&#45;&gt;flowchart -->
<g id="edge6" class="edge">
<title>cat_behav&#45;&gt;flowchart</title>
<path fill="none" stroke="#7c3aed" stroke-width="1.5" d="M446.53,-216.96C446.53,-210.59 446.53,-205 446.53,-205 446.53,-205 293.56,-205 293.56,-205 293.56,-205 293.56,-193.95 293.56,-193.95"/>
<polygon fill="#7c3aed" stroke="#7c3aed" stroke-width="1.5" points="297.06,-193.95 293.56,-183.95 290.06,-193.95 297.06,-193.95"/>
</g>
<!-- sequence -->
<g id="node10" class="node">
<title>sequence</title>
<path fill="#ede9fe" stroke="#7c3aed" d="M379.88,-181.25C379.88,-181.25 345.88,-181.25 345.88,-181.25 339.88,-181.25 333.88,-175.25 333.88,-169.25 333.88,-169.25 333.88,-157.25 333.88,-157.25 333.88,-151.25 339.88,-145.25 345.88,-145.25 345.88,-145.25 379.88,-145.25 379.88,-145.25 385.88,-145.25 391.88,-151.25 391.88,-157.25 391.88,-157.25 391.88,-169.25 391.88,-169.25 391.88,-175.25 385.88,-181.25 379.88,-181.25"/>
<text xml:space="preserve" text-anchor="middle" x="362.88" y="-165.2" font-family="Helvetica,sans-Serif" font-size="9.00" fill="#1e293b">Sequence</text>
<text xml:space="preserve" text-anchor="middle" x="362.88" y="-154.7" font-family="Helvetica,sans-Serif" font-size="9.00" fill="#1e293b">Diagram</text>
</g>
<!-- cat_behav&#45;&gt;sequence -->
<g id="edge7" class="edge">
<title>cat_behav&#45;&gt;sequence</title>
<path fill="none" stroke="#7c3aed" stroke-width="1.5" d="M459.06,-217.09C459.06,-205.64 459.06,-193 459.06,-193 459.06,-193 367.62,-193 367.62,-193 367.62,-193 367.62,-191.86 367.62,-191.86"/>
<polygon fill="#7c3aed" stroke="#7c3aed" stroke-width="1.5" points="371.13,-193.85 367.63,-183.85 364.13,-193.85 371.13,-193.85"/>
</g>
<!-- state -->
<g id="node11" class="node">
<title>state</title>
<path fill="#ede9fe" stroke="#7c3aed" d="M472.12,-181.25C472.12,-181.25 421.62,-181.25 421.62,-181.25 415.62,-181.25 409.62,-175.25 409.62,-169.25 409.62,-169.25 409.62,-157.25 409.62,-157.25 409.62,-151.25 415.62,-145.25 421.62,-145.25 421.62,-145.25 472.12,-145.25 472.12,-145.25 478.12,-145.25 484.12,-151.25 484.12,-157.25 484.12,-157.25 484.12,-169.25 484.12,-169.25 484.12,-175.25 478.12,-181.25 472.12,-181.25"/>
<text xml:space="preserve" text-anchor="middle" x="446.88" y="-165.2" font-family="Helvetica,sans-Serif" font-size="9.00" fill="#1e293b">State Machine</text>
<text xml:space="preserve" text-anchor="middle" x="446.88" y="-154.7" font-family="Helvetica,sans-Serif" font-size="9.00" fill="#1e293b">Diagram</text>
</g>
<!-- cat_behav&#45;&gt;state -->
<g id="edge8" class="edge">
<title>cat_behav&#45;&gt;state</title>
<path fill="none" stroke="#7c3aed" stroke-width="1.5" d="M471.59,-217.08C471.59,-217.08 471.59,-193.93 471.59,-193.93"/>
<polygon fill="#7c3aed" stroke="#7c3aed" stroke-width="1.5" points="475.09,-193.93 471.59,-183.93 468.09,-193.93 475.09,-193.93"/>
</g>
<!-- usecase -->
<g id="node12" class="node">
<title>usecase</title>
<path fill="#ede9fe" stroke="#7c3aed" d="M547.12,-181.25C547.12,-181.25 514.62,-181.25 514.62,-181.25 508.62,-181.25 502.62,-175.25 502.62,-169.25 502.62,-169.25 502.62,-157.25 502.62,-157.25 502.62,-151.25 508.62,-145.25 514.62,-145.25 514.62,-145.25 547.12,-145.25 547.12,-145.25 553.12,-145.25 559.12,-151.25 559.12,-157.25 559.12,-157.25 559.12,-169.25 559.12,-169.25 559.12,-175.25 553.12,-181.25 547.12,-181.25"/>
<text xml:space="preserve" text-anchor="middle" x="530.88" y="-165.2" font-family="Helvetica,sans-Serif" font-size="9.00" fill="#1e293b">Use Case</text>
<text xml:space="preserve" text-anchor="middle" x="530.88" y="-154.7" font-family="Helvetica,sans-Serif" font-size="9.00" fill="#1e293b">Diagram</text>
</g>
<!-- cat_behav&#45;&gt;usecase -->
<g id="edge9" class="edge">
<title>cat_behav&#45;&gt;usecase</title>
<path fill="none" stroke="#7c3aed" stroke-width="1.5" d="M523.19,-217.08C523.19,-217.08 523.19,-193.93 523.19,-193.93"/>
<polygon fill="#7c3aed" stroke="#7c3aed" stroke-width="1.5" points="526.69,-193.93 523.19,-183.93 519.69,-193.93 526.69,-193.93"/>
</g>
<!-- activity -->
<g id="node13" class="node">
<title>activity</title>
<path fill="#ede9fe" stroke="#7c3aed" d="M624.25,-181.25C624.25,-181.25 589.5,-181.25 589.5,-181.25 583.5,-181.25 577.5,-175.25 577.5,-169.25 577.5,-169.25 577.5,-157.25 577.5,-157.25 577.5,-151.25 583.5,-145.25 589.5,-145.25 589.5,-145.25 624.25,-145.25 624.25,-145.25 630.25,-145.25 636.25,-151.25 636.25,-157.25 636.25,-157.25 636.25,-169.25 636.25,-169.25 636.25,-175.25 630.25,-181.25 624.25,-181.25"/>
<text xml:space="preserve" text-anchor="middle" x="606.88" y="-165.2" font-family="Helvetica,sans-Serif" font-size="9.00" fill="#1e293b">Activity /</text>
<text xml:space="preserve" text-anchor="middle" x="606.88" y="-154.7" font-family="Helvetica,sans-Serif" font-size="9.00" fill="#1e293b">Interaction</text>
</g>
<!-- cat_behav&#45;&gt;activity -->
<g id="edge10" class="edge">
<title>cat_behav&#45;&gt;activity</title>
<path fill="none" stroke="#7c3aed" stroke-width="1.5" d="M544.07,-229C574.79,-229 606.88,-229 606.88,-229 606.88,-229 606.88,-193.84 606.88,-193.84"/>
<polygon fill="#7c3aed" stroke="#7c3aed" stroke-width="1.5" points="610.38,-193.84 606.88,-183.84 603.38,-193.84 610.38,-193.84"/>
</g>
<!-- cat_data -->
<g id="node14" class="node">
<title>cat_data</title>
<polygon fill="#059669" stroke="black" points="743.62,-181.25 666.12,-181.25 666.12,-185.25 654.12,-185.25 654.12,-145.25 743.62,-145.25 743.62,-181.25"/>
<polyline fill="none" stroke="black" points="654.12,-181.25 666.12,-181.25"/>
<text xml:space="preserve" text-anchor="middle" x="698.88" y="-158.57" font-family="Helvetica Bold" font-size="14.00" fill="white">DATA &amp; AI</text>
</g>
<!-- cat_behav&#45;&gt;cat_data -->
<!-- dataflow -->
<g id="node15" class="node">
<title>dataflow</title>
<path fill="#d1fae5" stroke="#059669" d="M553.5,-109.25C553.5,-109.25 520.25,-109.25 520.25,-109.25 514.25,-109.25 508.25,-103.25 508.25,-97.25 508.25,-97.25 508.25,-85.25 508.25,-85.25 508.25,-79.25 514.25,-73.25 520.25,-73.25 520.25,-73.25 553.5,-73.25 553.5,-73.25 559.5,-73.25 565.5,-79.25 565.5,-85.25 565.5,-85.25 565.5,-97.25 565.5,-97.25 565.5,-103.25 559.5,-109.25 553.5,-109.25"/>
<text xml:space="preserve" text-anchor="middle" x="536.88" y="-93.2" font-family="Helvetica,sans-Serif" font-size="9.00" fill="#1e293b">Data Flow</text>
<text xml:space="preserve" text-anchor="middle" x="536.88" y="-82.7" font-family="Helvetica,sans-Serif" font-size="9.00" fill="#1e293b">Diagram</text>
</g>
<!-- cat_data&#45;&gt;dataflow -->
<g id="edge11" class="edge">
<title>cat_data&#45;&gt;dataflow</title>
<path fill="none" stroke="#059669" stroke-width="1.5" d="M658.25,-145.12C658.25,-136.06 658.25,-127 658.25,-127 658.25,-127 533.69,-127 533.69,-127 533.69,-127 533.69,-121.81 533.69,-121.81"/>
<polygon fill="#059669" stroke="#059669" stroke-width="1.5" points="537.19,-121.81 533.69,-111.81 530.19,-121.81 537.19,-121.81"/>
</g>
<!-- agent_arch -->
<g id="node16" class="node">
<title>agent_arch</title>
<path fill="#d1fae5" stroke="#059669" d="M636.25,-109.25C636.25,-109.25 595.5,-109.25 595.5,-109.25 589.5,-109.25 583.5,-103.25 583.5,-97.25 583.5,-97.25 583.5,-85.25 583.5,-85.25 583.5,-79.25 589.5,-73.25 595.5,-73.25 595.5,-73.25 636.25,-73.25 636.25,-73.25 642.25,-73.25 648.25,-79.25 648.25,-85.25 648.25,-85.25 648.25,-97.25 648.25,-97.25 648.25,-103.25 642.25,-109.25 636.25,-109.25"/>
<text xml:space="preserve" text-anchor="middle" x="615.88" y="-93.2" font-family="Helvetica,sans-Serif" font-size="9.00" fill="#1e293b">Agent</text>
<text xml:space="preserve" text-anchor="middle" x="615.88" y="-82.7" font-family="Helvetica,sans-Serif" font-size="9.00" fill="#1e293b">Architecture</text>
</g>
<!-- cat_data&#45;&gt;agent_arch -->
<g id="edge12" class="edge">
<title>cat_data&#45;&gt;agent_arch</title>
<path fill="none" stroke="#059669" stroke-width="1.5" d="M662.38,-145.02C662.38,-123.61 662.38,-91 662.38,-91 662.38,-91 660.95,-91 660.95,-91"/>
<polygon fill="#059669" stroke="#059669" stroke-width="1.5" points="660.95,-87.5 650.95,-91 660.95,-94.5 660.95,-87.5"/>
</g>
<!-- memory -->
<g id="node17" class="node">
<title>memory</title>
<path fill="#d1fae5" stroke="#059669" d="M719.25,-109.25C719.25,-109.25 678.5,-109.25 678.5,-109.25 672.5,-109.25 666.5,-103.25 666.5,-97.25 666.5,-97.25 666.5,-85.25 666.5,-85.25 666.5,-79.25 672.5,-73.25 678.5,-73.25 678.5,-73.25 719.25,-73.25 719.25,-73.25 725.25,-73.25 731.25,-79.25 731.25,-85.25 731.25,-85.25 731.25,-97.25 731.25,-97.25 731.25,-103.25 725.25,-109.25 719.25,-109.25"/>
<text xml:space="preserve" text-anchor="middle" x="698.88" y="-93.2" font-family="Helvetica,sans-Serif" font-size="9.00" fill="#1e293b">Memory</text>
<text xml:space="preserve" text-anchor="middle" x="698.88" y="-82.7" font-family="Helvetica,sans-Serif" font-size="9.00" fill="#1e293b">Architecture</text>
</g>
<!-- cat_data&#45;&gt;memory -->
<g id="edge13" class="edge">
<title>cat_data&#45;&gt;memory</title>
<path fill="none" stroke="#059669" stroke-width="1.5" d="M698.88,-145.08C698.88,-145.08 698.88,-121.93 698.88,-121.93"/>
<polygon fill="#059669" stroke="#059669" stroke-width="1.5" points="702.38,-121.93 698.88,-111.93 695.38,-121.93 702.38,-121.93"/>
</g>
<!-- mindmap -->
<g id="node18" class="node">
<title>mindmap</title>
<path fill="#d1fae5" stroke="#059669" d="M808.25,-109.25C808.25,-109.25 761.5,-109.25 761.5,-109.25 755.5,-109.25 749.5,-103.25 749.5,-97.25 749.5,-97.25 749.5,-85.25 749.5,-85.25 749.5,-79.25 755.5,-73.25 761.5,-73.25 761.5,-73.25 808.25,-73.25 808.25,-73.25 814.25,-73.25 820.25,-79.25 820.25,-85.25 820.25,-85.25 820.25,-97.25 820.25,-97.25 820.25,-103.25 814.25,-109.25 808.25,-109.25"/>
<text xml:space="preserve" text-anchor="middle" x="784.88" y="-93.2" font-family="Helvetica,sans-Serif" font-size="9.00" fill="#1e293b">Mind Map /</text>
<text xml:space="preserve" text-anchor="middle" x="784.88" y="-82.7" font-family="Helvetica,sans-Serif" font-size="9.00" fill="#1e293b">Concept Map</text>
</g>
<!-- cat_data&#45;&gt;mindmap -->
<g id="edge14" class="edge">
<title>cat_data&#45;&gt;mindmap</title>
<path fill="none" stroke="#059669" stroke-width="1.5" d="M737.44,-145.02C737.44,-123.61 737.44,-91 737.44,-91 737.44,-91 738.63,-91 738.63,-91"/>
<polygon fill="#059669" stroke="#059669" stroke-width="1.5" points="737.14,-94.5 747.14,-91 737.14,-87.5 737.14,-94.5"/>
</g>
<!-- cat_plan -->
<g id="node19" class="node">
<title>cat_plan</title>
<polygon fill="#ea580c" stroke="black" points="1047.25,-109.25 850.5,-109.25 850.5,-113.25 838.5,-113.25 838.5,-73.25 1047.25,-73.25 1047.25,-109.25"/>
<polyline fill="none" stroke="black" points="838.5,-109.25 850.5,-109.25"/>
<text xml:space="preserve" text-anchor="middle" x="942.88" y="-86.58" font-family="Helvetica Bold" font-size="14.00" fill="white">PLANNING &amp; COMPARISON</text>
</g>
<!-- cat_data&#45;&gt;cat_plan -->
<!-- timeline -->
<g id="node20" class="node">
<title>timeline</title>
<path fill="#ffedd5" stroke="#ea580c" d="M875.75,-36.62C875.75,-36.62 844,-36.62 844,-36.62 838,-36.62 832,-30.62 832,-24.62 832,-24.62 832,-12.62 832,-12.62 832,-6.62 838,-0.62 844,-0.62 844,-0.62 875.75,-0.62 875.75,-0.62 881.75,-0.62 887.75,-6.62 887.75,-12.62 887.75,-12.62 887.75,-24.63 887.75,-24.63 887.75,-30.62 881.75,-36.62 875.75,-36.62"/>
<text xml:space="preserve" text-anchor="middle" x="859.88" y="-20.57" font-family="Helvetica,sans-Serif" font-size="9.00" fill="#1e293b">Timeline /</text>
<text xml:space="preserve" text-anchor="middle" x="859.88" y="-10.07" font-family="Helvetica,sans-Serif" font-size="9.00" fill="#1e293b">Gantt</text>
</g>
<!-- cat_plan&#45;&gt;timeline -->
<g id="edge15" class="edge">
<title>cat_plan&#45;&gt;timeline</title>
<path fill="none" stroke="#ea580c" stroke-width="1.5" d="M863.12,-72.92C863.12,-72.92 863.12,-49.22 863.12,-49.22"/>
<polygon fill="#ea580c" stroke="#ea580c" stroke-width="1.5" points="866.63,-49.22 863.13,-39.22 859.63,-49.22 866.63,-49.22"/>
</g>
<!-- comparison -->
<g id="node21" class="node">
<title>comparison</title>
<path fill="#ffedd5" stroke="#ea580c" d="M968.12,-36.62C968.12,-36.62 917.62,-36.62 917.62,-36.62 911.62,-36.62 905.62,-30.62 905.62,-24.62 905.62,-24.62 905.62,-12.62 905.62,-12.62 905.62,-6.62 911.62,-0.62 917.62,-0.62 917.62,-0.62 968.12,-0.62 968.12,-0.62 974.12,-0.62 980.12,-6.62 980.12,-12.62 980.12,-12.62 980.12,-24.63 980.12,-24.63 980.12,-30.62 974.12,-36.62 968.12,-36.62"/>
<text xml:space="preserve" text-anchor="middle" x="942.88" y="-20.57" font-family="Helvetica,sans-Serif" font-size="9.00" fill="#1e293b">Comparison /</text>
<text xml:space="preserve" text-anchor="middle" x="942.88" y="-10.07" font-family="Helvetica,sans-Serif" font-size="9.00" fill="#1e293b">Feature Matrix</text>
</g>
<!-- cat_plan&#45;&gt;comparison -->
<g id="edge16" class="edge">
<title>cat_plan&#45;&gt;comparison</title>
<path fill="none" stroke="#ea580c" stroke-width="1.5" d="M942.88,-72.92C942.88,-72.92 942.88,-49.22 942.88,-49.22"/>
<polygon fill="#ea580c" stroke="#ea580c" stroke-width="1.5" points="946.38,-49.22 942.88,-39.22 939.38,-49.22 946.38,-49.22"/>
</g>
<!-- layout -->
<g id="node22" class="node">
<title>layout</title>
<polygon fill="#fef3c7" stroke="#d97706" points="1165.25,-37.25 998.5,-37.25 998.5,0 1171.25,0 1171.25,-31.25 1165.25,-37.25"/>
<polyline fill="none" stroke="#d97706" points="1165.25,-37.25 1165.25,-31.25"/>
<polyline fill="none" stroke="#d97706" points="1171.25,-31.25 1165.25,-31.25"/>
<text xml:space="preserve" text-anchor="middle" x="1084.88" y="-25.65" font-family="Times New Roman,serif" font-size="8.00" fill="#1e293b">Layout Rules</text>
<text xml:space="preserve" text-anchor="middle" x="1084.88" y="-15.9" font-family="Times New Roman,serif" font-size="8.00" fill="#1e293b">960x600 default | 960x800 tall | 1200x600 wide</text>
<text xml:space="preserve" text-anchor="middle" x="1084.88" y="-6.15" font-family="Times New Roman,serif" font-size="8.00" fill="#1e293b">80px spacing | 8px grid snap | Orthogonal routing</text>
</g>
<!-- cat_plan&#45;&gt;layout -->
<g id="edge21" class="edge">
<title>cat_plan&#45;&gt;layout</title>
<path fill="none" stroke="#d97706" stroke-dasharray="5,2" d="M1022.88,-72.92C1022.88,-72.92 1022.88,-49.22 1022.88,-49.22"/>
<polygon fill="#d97706" stroke="#d97706" points="1026.38,-49.22 1022.88,-39.22 1019.38,-49.22 1026.38,-49.22"/>
</g>
</g>
</svg>
