<?xml version="1.0" encoding="UTF-8" standalone="no"?>
<!DOCTYPE svg PUBLIC "-//W3C//DTD SVG 1.1//EN"
 "http://www.w3.org/Graphics/SVG/1.1/DTD/svg11.dtd">
<!-- Generated by graphviz version 14.1.4 (20260321.0153)
 -->
<!-- Title: docker_compose Pages: 1 -->
<svg width="476pt" height="575pt"
 viewBox="0.00 0.00 476.00 575.00" xmlns="http://www.w3.org/2000/svg" xmlns:xlink="http://www.w3.org/1999/xlink">
<style>
text { paint-order: stroke; stroke: #ffffff; stroke-width: 3px; stroke-linejoin: round; fill: #1a1a2e; }
</style>
<g id="graph0" class="graph" transform="scale(1 1) rotate(0) translate(4 570.5)">
<title>docker_compose</title>
<polygon fill="white" stroke="none" points="-4,4 -4,-570.5 471.62,-570.5 471.62,4 -4,4"/>
<text xml:space="preserve" text-anchor="middle" x="233.81" y="-7.2" font-family="Times New Roman,serif" font-size="14.00">Docker Compose: Multi&#45;Service Orchestration</text>
<!-- title -->
<g id="node1" class="node">
<title>title</title>
<path fill="#0d47a1" stroke="black" d="M276,-566.5C276,-566.5 147.5,-566.5 147.5,-566.5 141.5,-566.5 135.5,-560.5 135.5,-554.5 135.5,-554.5 135.5,-542.5 135.5,-542.5 135.5,-536.5 141.5,-530.5 147.5,-530.5 147.5,-530.5 276,-530.5 276,-530.5 282,-530.5 288,-536.5 288,-542.5 288,-542.5 288,-554.5 288,-554.5 288,-560.5 282,-566.5 276,-566.5"/>
<text xml:space="preserve" text-anchor="middle" x="211.75" y="-543.08" font-family="Arial Bold" font-size="14.00" fill="#ffffff">docker&#45;compose.yml</text>
</g>
<!-- web -->
<g id="node2" class="node">
<title>web</title>
<path fill="#1565c0" stroke="black" d="M107.5,-471.5C107.5,-471.5 12,-471.5 12,-471.5 6,-471.5 0,-465.5 0,-459.5 0,-459.5 0,-418.5 0,-418.5 0,-412.5 6,-406.5 12,-406.5 12,-406.5 107.5,-406.5 107.5,-406.5 113.5,-406.5 119.5,-412.5 119.5,-418.5 119.5,-418.5 119.5,-459.5 119.5,-459.5 119.5,-465.5 113.5,-471.5 107.5,-471.5"/>
<text xml:space="preserve" text-anchor="middle" x="59.75" y="-456.1" font-family="Arial Bold" font-size="12.00" fill="#ffffff">web (frontend)</text>
<text xml:space="preserve" text-anchor="middle" x="59.75" y="-441.85" font-family="Arial Bold" font-size="12.00" fill="#ffffff">build: ./web</text>
<text xml:space="preserve" text-anchor="middle" x="59.75" y="-427.6" font-family="Arial Bold" font-size="12.00" fill="#ffffff">ports: 3000:3000</text>
<text xml:space="preserve" text-anchor="middle" x="59.75" y="-413.35" font-family="Arial Bold" font-size="12.00" fill="#ffffff">depends_on: [api]</text>
</g>
<!-- title&#45;&gt;web -->
<g id="edge1" class="edge">
<title>title&#45;&gt;web</title>
<path fill="none" stroke="#1565c0" stroke-width="2" d="M154.79,-530.17C154.79,-496.79 154.79,-429.5 154.79,-429.5 154.79,-429.5 132.97,-429.5 132.97,-429.5"/>
<polygon fill="#1565c0" stroke="#1565c0" stroke-width="2" points="132.97,-426 122.97,-429.5 132.97,-433 132.97,-426"/>
</g>
<!-- api -->
<g id="node3" class="node">
<title>api</title>
<path fill="#00838f" stroke="black" d="M181.38,-332C181.38,-332 88.12,-332 88.12,-332 82.12,-332 76.12,-326 76.12,-320 76.12,-320 76.12,-264.75 76.12,-264.75 76.12,-258.75 82.12,-252.75 88.12,-252.75 88.12,-252.75 181.38,-252.75 181.38,-252.75 187.38,-252.75 193.38,-258.75 193.38,-264.75 193.38,-264.75 193.38,-320 193.38,-320 193.38,-326 187.38,-332 181.38,-332"/>
<text xml:space="preserve" text-anchor="middle" x="134.75" y="-316.6" font-family="Arial Bold" font-size="12.00" fill="#ffffff">api (backend)</text>
<text xml:space="preserve" text-anchor="middle" x="134.75" y="-302.35" font-family="Arial Bold" font-size="12.00" fill="#ffffff">image: api:1.0</text>
<text xml:space="preserve" text-anchor="middle" x="134.75" y="-288.1" font-family="Arial Bold" font-size="12.00" fill="#ffffff">ports: 8000:8000</text>
<text xml:space="preserve" text-anchor="middle" x="134.75" y="-273.85" font-family="Arial Bold" font-size="12.00" fill="#ffffff">depends_on: [db]</text>
<text xml:space="preserve" text-anchor="middle" x="134.75" y="-259.6" font-family="Arial Bold" font-size="12.00" fill="#ffffff">healthcheck</text>
</g>
<!-- title&#45;&gt;api -->
<g id="edge2" class="edge">
<title>title&#45;&gt;api</title>
<path fill="none" stroke="#00838f" stroke-width="2" d="M174.08,-530.08C174.08,-530.08 174.08,-345.36 174.08,-345.36"/>
<polygon fill="#00838f" stroke="#00838f" stroke-width="2" points="177.58,-345.36 174.08,-335.36 170.58,-345.36 177.58,-345.36"/>
</g>
<!-- db -->
<g id="node4" class="node">
<title>db</title>
<path fill="#6a1b9a" stroke="black" d="M309,-178.25C309,-178.25 162.5,-178.25 162.5,-178.25 156.5,-178.25 150.5,-172.25 150.5,-166.25 150.5,-166.25 150.5,-139.5 150.5,-139.5 150.5,-133.5 156.5,-127.5 162.5,-127.5 162.5,-127.5 309,-127.5 309,-127.5 315,-127.5 321,-133.5 321,-139.5 321,-139.5 321,-166.25 321,-166.25 321,-172.25 315,-178.25 309,-178.25"/>
<text xml:space="preserve" text-anchor="middle" x="235.75" y="-162.85" font-family="Arial Bold" font-size="12.00" fill="#ffffff">db (postgres)</text>
<text xml:space="preserve" text-anchor="middle" x="235.75" y="-148.6" font-family="Arial Bold" font-size="12.00" fill="#ffffff">image: postgres:16</text>
<text xml:space="preserve" text-anchor="middle" x="235.75" y="-134.35" font-family="Arial Bold" font-size="12.00" fill="#ffffff">volumes: dbdata:/var/lib/pg</text>
</g>
<!-- title&#45;&gt;db -->
<g id="edge3" class="edge">
<title>title&#45;&gt;db</title>
<path fill="none" stroke="#6a1b9a" stroke-width="2" d="M224.92,-530.21C224.92,-530.21 224.92,-191.63 224.92,-191.63"/>
<polygon fill="#6a1b9a" stroke="#6a1b9a" stroke-width="2" points="228.42,-191.63 224.92,-181.63 221.42,-191.63 228.42,-191.63"/>
</g>
<!-- cmds -->
<g id="node7" class="node">
<title>cmds</title>
<path fill="#bbdefb" stroke="black" d="M455.62,-467C455.62,-467 315.88,-467 315.88,-467 309.88,-467 303.88,-461 303.88,-455 303.88,-455 303.88,-423 303.88,-423 303.88,-417 309.88,-411 315.88,-411 315.88,-411 455.62,-411 455.62,-411 461.62,-411 467.62,-417 467.62,-423 467.62,-423 467.62,-455 467.62,-455 467.62,-461 461.62,-467 455.62,-467"/>
<text xml:space="preserve" text-anchor="middle" x="385.75" y="-453.5" font-family="Arial" font-size="10.00" fill="#1a1a2e">docker compose up &#45;d</text>
<text xml:space="preserve" text-anchor="middle" x="385.75" y="-441.5" font-family="Arial" font-size="10.00" fill="#1a1a2e"> &#160;&#45;&gt; builds, creates net+vol, starts</text>
<text xml:space="preserve" text-anchor="middle" x="385.75" y="-429.5" font-family="Arial" font-size="10.00" fill="#1a1a2e"> &#160;&#45;&gt; docker compose down</text>
<text xml:space="preserve" text-anchor="middle" x="385.75" y="-417.5" font-family="Arial" font-size="10.00" fill="#1a1a2e"> &#160;&#45;&gt; docker compose logs &#45;f</text>
</g>
<!-- title&#45;&gt;cmds -->
<g id="edge10" class="edge">
<title>title&#45;&gt;cmds</title>
<path fill="none" stroke="#c62828" stroke-dasharray="5,2" d="M256.46,-530.16C256.46,-501.29 256.46,-448.5 256.46,-448.5 256.46,-448.5 291.99,-448.5 291.99,-448.5"/>
<polygon fill="#c62828" stroke="#c62828" points="291.99,-452 301.99,-448.5 291.99,-445 291.99,-452"/>
</g>
<!-- web&#45;&gt;api -->
<g id="edge4" class="edge">
<title>web&#45;&gt;api</title>
<path fill="none" stroke="#ef6c00" stroke-width="1.5" d="M97.81,-406.09C97.81,-406.09 97.81,-344.76 97.81,-344.76"/>
<polygon fill="#ef6c00" stroke="#ef6c00" stroke-width="1.5" points="101.31,-344.76 97.81,-334.76 94.31,-344.76 101.31,-344.76"/>
<text xml:space="preserve" text-anchor="middle" x="116" y="-364.2" font-family="Times New Roman,serif" font-size="14.00">depends_on</text>
</g>
<!-- net -->
<g id="node5" class="node">
<title>net</title>
<path fill="#bbdefb" stroke="black" d="M126.62,-64.5C126.62,-64.5 64.88,-64.5 64.88,-64.5 58.88,-64.5 52.88,-58.5 52.88,-52.5 52.88,-52.5 52.88,-40.5 52.88,-40.5 52.88,-34.5 58.88,-28.5 64.88,-28.5 64.88,-28.5 126.62,-28.5 126.62,-28.5 132.62,-28.5 138.62,-34.5 138.62,-40.5 138.62,-40.5 138.62,-52.5 138.62,-52.5 138.62,-58.5 132.62,-64.5 126.62,-64.5"/>
<text xml:space="preserve" text-anchor="middle" x="95.75" y="-49" font-family="Arial" font-size="10.00" fill="#1a1a2e">network: appnet</text>
<text xml:space="preserve" text-anchor="middle" x="95.75" y="-37" font-family="Arial" font-size="10.00" fill="#1a1a2e">(driver: bridge)</text>
</g>
<!-- web&#45;&gt;net -->
<g id="edge6" class="edge">
<title>web&#45;&gt;net</title>
<path fill="none" stroke="#2e7d32" stroke-dasharray="5,2" d="M64.5,-406.21C64.5,-406.21 64.5,-76.21 64.5,-76.21"/>
<polygon fill="#2e7d32" stroke="#2e7d32" points="68,-76.21 64.5,-66.21 61,-76.21 68,-76.21"/>
</g>
<!-- api&#45;&gt;db -->
<g id="edge5" class="edge">
<title>api&#45;&gt;db</title>
<path fill="none" stroke="#ef6c00" stroke-width="1.5" d="M171.94,-252.4C171.94,-252.4 171.94,-190.62 171.94,-190.62"/>
<polygon fill="#ef6c00" stroke="#ef6c00" stroke-width="1.5" points="175.44,-190.62 171.94,-180.62 168.44,-190.62 175.44,-190.62"/>
<text xml:space="preserve" text-anchor="middle" x="190" y="-210.45" font-family="Times New Roman,serif" font-size="14.00">depends_on</text>
</g>
<!-- api&#45;&gt;net -->
<g id="edge7" class="edge">
<title>api&#45;&gt;net</title>
<path fill="none" stroke="#2e7d32" stroke-dasharray="5,2" d="M107.38,-252.32C107.38,-252.32 107.38,-76.32 107.38,-76.32"/>
<polygon fill="#2e7d32" stroke="#2e7d32" points="110.88,-76.32 107.38,-66.32 103.88,-76.32 110.88,-76.32"/>
</g>
<!-- db&#45;&gt;net -->
<g id="edge8" class="edge">
<title>db&#45;&gt;net</title>
<path fill="none" stroke="#2e7d32" stroke-dasharray="5,2" d="M179.19,-127.12C179.19,-95.64 179.19,-46.5 179.19,-46.5 179.19,-46.5 150.45,-46.5 150.45,-46.5"/>
<polygon fill="#2e7d32" stroke="#2e7d32" points="150.45,-43 140.45,-46.5 150.45,-50 150.45,-43"/>
</g>
<!-- vol -->
<g id="node6" class="node">
<title>vol</title>
<path fill="#6a1b9a" stroke="black" d="M263.62,-64.5C263.62,-66.71 251.13,-68.5 235.75,-68.5 220.37,-68.5 207.88,-66.71 207.88,-64.5 207.88,-64.5 207.88,-28.5 207.88,-28.5 207.88,-26.29 220.37,-24.5 235.75,-24.5 251.13,-24.5 263.62,-26.29 263.62,-28.5 263.62,-28.5 263.62,-64.5 263.62,-64.5"/>
<path fill="none" stroke="black" d="M263.62,-64.5C263.62,-62.29 251.13,-60.5 235.75,-60.5 220.37,-60.5 207.88,-62.29 207.88,-64.5"/>
<text xml:space="preserve" text-anchor="middle" x="235.75" y="-49" font-family="Arial" font-size="10.00" fill="#ffffff">volumes:</text>
<text xml:space="preserve" text-anchor="middle" x="235.75" y="-37" font-family="Arial" font-size="10.00" fill="#ffffff"> &#160;dbdata:</text>
</g>
<!-- db&#45;&gt;vol -->
<g id="edge9" class="edge">
<title>db&#45;&gt;vol</title>
<path fill="none" stroke="#6a1b9a" stroke-width="1.5" d="M235.75,-127.12C235.75,-127.12 235.75,-81.04 235.75,-81.04"/>
<polygon fill="#6a1b9a" stroke="#6a1b9a" stroke-width="1.5" points="239.25,-81.04 235.75,-71.04 232.25,-81.04 239.25,-81.04"/>
</g>
</g>
</svg>
