<?xml version="1.0" encoding="UTF-8" standalone="no"?>
<!DOCTYPE svg PUBLIC "-//W3C//DTD SVG 1.1//EN"
 "http://www.w3.org/Graphics/SVG/1.1/DTD/svg11.dtd">
<!-- Generated by graphviz version 14.1.2 (0)
 -->
<!-- Title: locus_features Pages: 1 -->
<svg width="662pt" height="1018pt"
 viewBox="0.00 0.00 662.00 1018.00" xmlns="http://www.w3.org/2000/svg" xmlns:xlink="http://www.w3.org/1999/xlink">
<g id="graph0" class="graph" transform="scale(1 1) rotate(0) translate(36 982)">
<title>locus_features</title>
<polygon fill="white" stroke="none" points="-36,36 -36,-982 626.4,-982 626.4,36 -36,36"/>
<!-- locus -->
<g id="node1" class="node">
<title>locus</title>
<polygon fill="#1565c0" stroke="#0d47a1" stroke-width="2" points="158.4,-501.8 0,-501.8 0,-444.2 158.4,-444.2 158.4,-501.8"/>
<text xml:space="preserve" text-anchor="middle" x="79.2" y="-475.45" font-family="Arial" font-size="14.00" fill="white">Locus</text>
<text xml:space="preserve" text-anchor="middle" x="79.2" y="-459.7" font-family="Arial" font-size="14.00" fill="white">for Unity</text>
</g>
<!-- in_editor -->
<g id="node2" class="node">
<title>in_editor</title>
<path fill="#e8f5e9" stroke="#2e7d32" d="M362.4,-848C362.4,-848 242.4,-848 242.4,-848 236.4,-848 230.4,-842 230.4,-836 230.4,-836 230.4,-824 230.4,-824 230.4,-818 236.4,-812 242.4,-812 242.4,-812 362.4,-812 362.4,-812 368.4,-812 374.4,-818 374.4,-824 374.4,-824 374.4,-836 374.4,-836 374.4,-842 368.4,-848 362.4,-848"/>
<text xml:space="preserve" text-anchor="middle" x="302.4" y="-826.3" font-family="Arial" font-size="11.00">In&#45;Editor Operations</text>
</g>
<!-- locus&#45;&gt;in_editor -->
<g id="edge1" class="edge">
<title>locus&#45;&gt;in_editor</title>
<path fill="none" stroke="#2e7d32" stroke-width="1.5" d="M79.4,-502.21C79.4,-587.48 79.4,-830 79.4,-830 79.4,-830 217.73,-830 217.73,-830"/>
<polygon fill="#2e7d32" stroke="#2e7d32" stroke-width="1.5" points="217.73,-833.5 227.73,-830 217.73,-826.5 217.73,-833.5"/>
</g>
<!-- runtime_debug -->
<g id="node3" class="node">
<title>runtime_debug</title>
<path fill="#fff3e0" stroke="#e65100" d="M362.4,-654C362.4,-654 242.4,-654 242.4,-654 236.4,-654 230.4,-648 230.4,-642 230.4,-642 230.4,-630 230.4,-630 230.4,-624 236.4,-618 242.4,-618 242.4,-618 362.4,-618 362.4,-618 368.4,-618 374.4,-624 374.4,-630 374.4,-630 374.4,-642 374.4,-642 374.4,-648 368.4,-654 362.4,-654"/>
<text xml:space="preserve" text-anchor="middle" x="302.4" y="-639.05" font-family="Arial" font-size="11.00">Runtime Analysis</text>
<text xml:space="preserve" text-anchor="middle" x="302.4" y="-625.55" font-family="Arial" font-size="11.00">and Debugging</text>
</g>
<!-- locus&#45;&gt;runtime_debug -->
<g id="edge2" class="edge">
<title>locus&#45;&gt;runtime_debug</title>
<path fill="none" stroke="#e65100" stroke-width="1.5" d="M158.79,-496.4C214.27,-496.4 278.4,-496.4 278.4,-496.4 278.4,-496.4 278.4,-605.48 278.4,-605.48"/>
<polygon fill="#e65100" stroke="#e65100" stroke-width="1.5" points="274.9,-605.48 278.4,-615.48 281.9,-605.48 274.9,-605.48"/>
</g>
<!-- knowledge_sys -->
<g id="node4" class="node">
<title>knowledge_sys</title>
<path fill="#f3e5f5" stroke="#6a1b9a" d="M362.4,-491C362.4,-491 242.4,-491 242.4,-491 236.4,-491 230.4,-485 230.4,-479 230.4,-479 230.4,-467 230.4,-467 230.4,-461 236.4,-455 242.4,-455 242.4,-455 362.4,-455 362.4,-455 368.4,-455 374.4,-461 374.4,-467 374.4,-467 374.4,-479 374.4,-479 374.4,-485 368.4,-491 362.4,-491"/>
<text xml:space="preserve" text-anchor="middle" x="302.4" y="-476.05" font-family="Arial" font-size="11.00">Automated</text>
<text xml:space="preserve" text-anchor="middle" x="302.4" y="-462.55" font-family="Arial" font-size="11.00">Knowledge System</text>
</g>
<!-- locus&#45;&gt;knowledge_sys -->
<g id="edge3" class="edge">
<title>locus&#45;&gt;knowledge_sys</title>
<path fill="none" stroke="#6a1b9a" stroke-width="1.5" d="M158.84,-473C158.84,-473 217.96,-473 217.96,-473"/>
<polygon fill="#6a1b9a" stroke="#6a1b9a" stroke-width="1.5" points="217.96,-476.5 227.96,-473 217.96,-469.5 217.96,-476.5"/>
</g>
<!-- version_ctrl -->
<g id="node5" class="node">
<title>version_ctrl</title>
<path fill="#e0f7fa" stroke="#00695c" d="M362.4,-328C362.4,-328 242.4,-328 242.4,-328 236.4,-328 230.4,-322 230.4,-316 230.4,-316 230.4,-304 230.4,-304 230.4,-298 236.4,-292 242.4,-292 242.4,-292 362.4,-292 362.4,-292 368.4,-292 374.4,-298 374.4,-304 374.4,-304 374.4,-316 374.4,-316 374.4,-322 368.4,-328 362.4,-328"/>
<text xml:space="preserve" text-anchor="middle" x="302.4" y="-313.05" font-family="Arial" font-size="11.00">Visual Version</text>
<text xml:space="preserve" text-anchor="middle" x="302.4" y="-299.55" font-family="Arial" font-size="11.00">Control</text>
</g>
<!-- locus&#45;&gt;version_ctrl -->
<g id="edge4" class="edge">
<title>locus&#45;&gt;version_ctrl</title>
<path fill="none" stroke="#00695c" stroke-width="1.5" d="M158.79,-449.6C214.27,-449.6 278.4,-449.6 278.4,-449.6 278.4,-449.6 278.4,-340.52 278.4,-340.52"/>
<polygon fill="#00695c" stroke="#00695c" stroke-width="1.5" points="281.9,-340.52 278.4,-330.52 274.9,-340.52 281.9,-340.52"/>
</g>
<!-- multi_model -->
<g id="node6" class="node">
<title>multi_model</title>
<path fill="#ffebee" stroke="#c62828" d="M362.4,-134C362.4,-134 242.4,-134 242.4,-134 236.4,-134 230.4,-128 230.4,-122 230.4,-122 230.4,-110 230.4,-110 230.4,-104 236.4,-98 242.4,-98 242.4,-98 362.4,-98 362.4,-98 368.4,-98 374.4,-104 374.4,-110 374.4,-110 374.4,-122 374.4,-122 374.4,-128 368.4,-134 362.4,-134"/>
<text xml:space="preserve" text-anchor="middle" x="302.4" y="-119.05" font-family="Arial" font-size="11.00">Multiple Model</text>
<text xml:space="preserve" text-anchor="middle" x="302.4" y="-105.55" font-family="Arial" font-size="11.00">Support</text>
</g>
<!-- locus&#45;&gt;multi_model -->
<g id="edge5" class="edge">
<title>locus&#45;&gt;multi_model</title>
<path fill="none" stroke="#c62828" stroke-width="1.5" d="M79.4,-443.79C79.4,-358.52 79.4,-116 79.4,-116 79.4,-116 217.73,-116 217.73,-116"/>
<polygon fill="#c62828" stroke="#c62828" stroke-width="1.5" points="217.73,-119.5 227.73,-116 217.73,-112.5 217.73,-119.5"/>
</g>
<!-- ie_code -->
<g id="node7" class="node">
<title>ie_code</title>
<polygon fill="#f5f5f5" stroke="#757575" points="590.4,-946 446.4,-946 446.4,-910 590.4,-910 590.4,-946"/>
<text xml:space="preserve" text-anchor="middle" x="518.4" y="-924.7" font-family="Arial" font-size="9.00">Write C# code</text>
</g>
<!-- in_editor&#45;&gt;ie_code -->
<g id="edge6" class="edge">
<title>in_editor&#45;&gt;ie_code</title>
<path fill="none" stroke="#2e7d32" stroke-dasharray="5,2" d="M302.4,-848.43C302.4,-876.82 302.4,-928 302.4,-928 302.4,-928 434.66,-928 434.66,-928"/>
<polygon fill="#2e7d32" stroke="#2e7d32" points="434.66,-931.5 444.66,-928 434.66,-924.5 434.66,-931.5"/>
</g>
<!-- ie_assets -->
<g id="node8" class="node">
<title>ie_assets</title>
<polygon fill="#f5f5f5" stroke="#757575" points="590.4,-881 446.4,-881 446.4,-845 590.4,-845 590.4,-881"/>
<text xml:space="preserve" text-anchor="middle" x="518.4" y="-859.7" font-family="Arial" font-size="9.00">Read/modify Unity objects</text>
</g>
<!-- in_editor&#45;&gt;ie_assets -->
<g id="edge7" class="edge">
<title>in_editor&#45;&gt;ie_assets</title>
<path fill="none" stroke="#2e7d32" stroke-dasharray="5,2" d="M374.73,-835.33C445.4,-835.33 542.4,-835.33 542.4,-835.33 542.4,-835.33 542.4,-836.27 542.4,-836.27"/>
<polygon fill="#2e7d32" stroke="#2e7d32" points="538.9,-833.19 542.4,-843.19 545.9,-833.19 538.9,-833.19"/>
</g>
<!-- ie_workflow -->
<g id="node9" class="node">
<title>ie_workflow</title>
<polygon fill="#f5f5f5" stroke="#757575" points="590.4,-816 446.4,-816 446.4,-780 590.4,-780 590.4,-816"/>
<text xml:space="preserve" text-anchor="middle" x="518.4" y="-794.7" font-family="Arial" font-size="9.00">Full feature dev workflow</text>
</g>
<!-- in_editor&#45;&gt;ie_workflow -->
<g id="edge8" class="edge">
<title>in_editor&#45;&gt;ie_workflow</title>
<path fill="none" stroke="#2e7d32" stroke-dasharray="5,2" d="M374.71,-825.67C429.14,-825.67 494.4,-825.67 494.4,-825.67 494.4,-825.67 494.4,-824.73 494.4,-824.73"/>
<polygon fill="#2e7d32" stroke="#2e7d32" points="497.9,-827.81 494.4,-817.81 490.9,-827.81 497.9,-827.81"/>
</g>
<!-- rd_state -->
<g id="node10" class="node">
<title>rd_state</title>
<polygon fill="#f5f5f5" stroke="#757575" points="590.4,-751 446.4,-751 446.4,-715 590.4,-715 590.4,-751"/>
<text xml:space="preserve" text-anchor="middle" x="518.4" y="-729.7" font-family="Arial" font-size="9.00">Capture runtime state</text>
</g>
<!-- runtime_debug&#45;&gt;rd_state -->
<g id="edge9" class="edge">
<title>runtime_debug&#45;&gt;rd_state</title>
<path fill="none" stroke="#e65100" stroke-dasharray="5,2" d="M302.4,-654.24C302.4,-682.34 302.4,-733 302.4,-733 302.4,-733 434.66,-733 434.66,-733"/>
<polygon fill="#e65100" stroke="#e65100" points="434.66,-736.5 444.66,-733 434.66,-729.5 434.66,-736.5"/>
</g>
<!-- rd_frames -->
<g id="node11" class="node">
<title>rd_frames</title>
<polygon fill="#f5f5f5" stroke="#757575" points="590.4,-686 446.4,-686 446.4,-650 590.4,-650 590.4,-686"/>
<text xml:space="preserve" text-anchor="middle" x="518.4" y="-664.7" font-family="Arial" font-size="9.00">Frame&#45;by&#45;frame tables</text>
</g>
<!-- runtime_debug&#45;&gt;rd_frames -->
<g id="edge10" class="edge">
<title>runtime_debug&#45;&gt;rd_frames</title>
<path fill="none" stroke="#e65100" stroke-dasharray="5,2" d="M374.71,-640.33C429.14,-640.33 494.4,-640.33 494.4,-640.33 494.4,-640.33 494.4,-641.27 494.4,-641.27"/>
<polygon fill="#e65100" stroke="#e65100" points="490.9,-638.19 494.4,-648.19 497.9,-638.19 490.9,-638.19"/>
</g>
<!-- rd_reflect -->
<g id="node12" class="node">
<title>rd_reflect</title>
<polygon fill="#f5f5f5" stroke="#757575" points="590.4,-621 446.4,-621 446.4,-585 590.4,-585 590.4,-621"/>
<text xml:space="preserve" text-anchor="middle" x="518.4" y="-599.7" font-family="Arial" font-size="9.00">Reflection&#45;based sampling</text>
</g>
<!-- runtime_debug&#45;&gt;rd_reflect -->
<g id="edge11" class="edge">
<title>runtime_debug&#45;&gt;rd_reflect</title>
<path fill="none" stroke="#e65100" stroke-dasharray="5,2" d="M374.73,-630.67C445.4,-630.67 542.4,-630.67 542.4,-630.67 542.4,-630.67 542.4,-629.73 542.4,-629.73"/>
<polygon fill="#e65100" stroke="#e65100" points="545.9,-632.81 542.4,-622.81 538.9,-632.81 545.9,-632.81"/>
</g>
<!-- ks_docs -->
<g id="node13" class="node">
<title>ks_docs</title>
<polygon fill="#f5f5f5" stroke="#757575" points="590.4,-556 446.4,-556 446.4,-520 590.4,-520 590.4,-556"/>
<text xml:space="preserve" text-anchor="middle" x="518.4" y="-534.7" font-family="Arial" font-size="9.00">Auto&#45;summarize to docs</text>
</g>
<!-- knowledge_sys&#45;&gt;ks_docs -->
<g id="edge12" class="edge">
<title>knowledge_sys&#45;&gt;ks_docs</title>
<path fill="none" stroke="#6a1b9a" stroke-dasharray="5,2" d="M326.4,-491.45C326.4,-510.67 326.4,-538 326.4,-538 326.4,-538 434.57,-538 434.57,-538"/>
<polygon fill="#6a1b9a" stroke="#6a1b9a" points="434.57,-541.5 444.57,-538 434.57,-534.5 434.57,-541.5"/>
</g>
<!-- ks_memory -->
<g id="node14" class="node">
<title>ks_memory</title>
<polygon fill="#f5f5f5" stroke="#757575" points="590.4,-491 446.4,-491 446.4,-455 590.4,-455 590.4,-491"/>
<text xml:space="preserve" text-anchor="middle" x="518.4" y="-469.7" font-family="Arial" font-size="9.00">Long&#45;term memory</text>
</g>
<!-- knowledge_sys&#45;&gt;ks_memory -->
<g id="edge13" class="edge">
<title>knowledge_sys&#45;&gt;ks_memory</title>
<path fill="none" stroke="#6a1b9a" stroke-dasharray="5,2" d="M374.63,-473C374.63,-473 434.73,-473 434.73,-473"/>
<polygon fill="#6a1b9a" stroke="#6a1b9a" points="434.73,-476.5 444.73,-473 434.73,-469.5 434.73,-476.5"/>
</g>
<!-- ks_l0l2 -->
<g id="node15" class="node">
<title>ks_l0l2</title>
<polygon fill="#f5f5f5" stroke="#757575" points="590.4,-426 446.4,-426 446.4,-390 590.4,-390 590.4,-426"/>
<text xml:space="preserve" text-anchor="middle" x="518.4" y="-404.7" font-family="Arial" font-size="9.00">L0/L1/L2 injection</text>
</g>
<!-- knowledge_sys&#45;&gt;ks_l0l2 -->
<g id="edge14" class="edge">
<title>knowledge_sys&#45;&gt;ks_l0l2</title>
<path fill="none" stroke="#6a1b9a" stroke-dasharray="5,2" d="M326.4,-454.55C326.4,-435.33 326.4,-408 326.4,-408 326.4,-408 434.57,-408 434.57,-408"/>
<polygon fill="#6a1b9a" stroke="#6a1b9a" points="434.57,-411.5 444.57,-408 434.57,-404.5 434.57,-411.5"/>
</g>
<!-- vc_semantic -->
<g id="node16" class="node">
<title>vc_semantic</title>
<polygon fill="#f5f5f5" stroke="#757575" points="590.4,-361 446.4,-361 446.4,-325 590.4,-325 590.4,-361"/>
<text xml:space="preserve" text-anchor="middle" x="518.4" y="-339.7" font-family="Arial" font-size="9.00">Semantic diff review</text>
</g>
<!-- version_ctrl&#45;&gt;vc_semantic -->
<g id="edge15" class="edge">
<title>version_ctrl&#45;&gt;vc_semantic</title>
<path fill="none" stroke="#00695c" stroke-dasharray="5,2" d="M374.73,-315.33C445.4,-315.33 542.4,-315.33 542.4,-315.33 542.4,-315.33 542.4,-316.27 542.4,-316.27"/>
<polygon fill="#00695c" stroke="#00695c" points="538.9,-313.19 542.4,-323.19 545.9,-313.19 538.9,-313.19"/>
</g>
<!-- vc_conflict -->
<g id="node17" class="node">
<title>vc_conflict</title>
<polygon fill="#f5f5f5" stroke="#757575" points="590.4,-296 446.4,-296 446.4,-260 590.4,-260 590.4,-296"/>
<text xml:space="preserve" text-anchor="middle" x="518.4" y="-274.7" font-family="Arial" font-size="9.00">Conflict resolution</text>
</g>
<!-- version_ctrl&#45;&gt;vc_conflict -->
<g id="edge16" class="edge">
<title>version_ctrl&#45;&gt;vc_conflict</title>
<path fill="none" stroke="#00695c" stroke-dasharray="5,2" d="M374.71,-305.67C429.14,-305.67 494.4,-305.67 494.4,-305.67 494.4,-305.67 494.4,-304.73 494.4,-304.73"/>
<polygon fill="#00695c" stroke="#00695c" points="497.9,-307.81 494.4,-297.81 490.9,-307.81 497.9,-307.81"/>
</g>
<!-- vc_yaml -->
<g id="node18" class="node">
<title>vc_yaml</title>
<polygon fill="#f5f5f5" stroke="#757575" points="590.4,-231 446.4,-231 446.4,-195 590.4,-195 590.4,-231"/>
<text xml:space="preserve" text-anchor="middle" x="518.4" y="-209.7" font-family="Arial" font-size="9.00">Unity YAML support</text>
</g>
<!-- version_ctrl&#45;&gt;vc_yaml -->
<g id="edge17" class="edge">
<title>version_ctrl&#45;&gt;vc_yaml</title>
<path fill="none" stroke="#00695c" stroke-dasharray="5,2" d="M302.4,-291.76C302.4,-263.66 302.4,-213 302.4,-213 302.4,-213 434.66,-213 434.66,-213"/>
<polygon fill="#00695c" stroke="#00695c" points="434.66,-216.5 444.66,-213 434.66,-209.5 434.66,-216.5"/>
</g>
<!-- mm_signin -->
<g id="node19" class="node">
<title>mm_signin</title>
<polygon fill="#f5f5f5" stroke="#757575" points="590.4,-166 446.4,-166 446.4,-130 590.4,-130 590.4,-166"/>
<text xml:space="preserve" text-anchor="middle" x="518.4" y="-144.7" font-family="Arial" font-size="9.00">Subscription sign&#45;in</text>
</g>
<!-- multi_model&#45;&gt;mm_signin -->
<g id="edge18" class="edge">
<title>multi_model&#45;&gt;mm_signin</title>
<path fill="none" stroke="#c62828" stroke-dasharray="5,2" d="M374.71,-120.33C429.14,-120.33 494.4,-120.33 494.4,-120.33 494.4,-120.33 494.4,-121.27 494.4,-121.27"/>
<polygon fill="#c62828" stroke="#c62828" points="490.9,-118.19 494.4,-128.19 497.9,-118.19 490.9,-118.19"/>
</g>
<!-- mm_api -->
<g id="node20" class="node">
<title>mm_api</title>
<polygon fill="#f5f5f5" stroke="#757575" points="590.4,-101 446.4,-101 446.4,-65 590.4,-65 590.4,-101"/>
<text xml:space="preserve" text-anchor="middle" x="518.4" y="-79.7" font-family="Arial" font-size="9.00">Multiple LLM APIs</text>
</g>
<!-- multi_model&#45;&gt;mm_api -->
<g id="edge19" class="edge">
<title>multi_model&#45;&gt;mm_api</title>
<path fill="none" stroke="#c62828" stroke-dasharray="5,2" d="M374.73,-110.67C445.4,-110.67 542.4,-110.67 542.4,-110.67 542.4,-110.67 542.4,-109.73 542.4,-109.73"/>
<polygon fill="#c62828" stroke="#c62828" points="545.9,-112.81 542.4,-102.81 538.9,-112.81 545.9,-112.81"/>
</g>
<!-- mm_openrouter -->
<g id="node21" class="node">
<title>mm_openrouter</title>
<polygon fill="#f5f5f5" stroke="#757575" points="590.4,-36 446.4,-36 446.4,0 590.4,0 590.4,-36"/>
<text xml:space="preserve" text-anchor="middle" x="518.4" y="-14.7" font-family="Arial" font-size="9.00">OpenRouter support</text>
</g>
<!-- multi_model&#45;&gt;mm_openrouter -->
<g id="edge20" class="edge">
<title>multi_model&#45;&gt;mm_openrouter</title>
<path fill="none" stroke="#c62828" stroke-dasharray="5,2" d="M302.4,-97.57C302.4,-69.18 302.4,-18 302.4,-18 302.4,-18 434.66,-18 434.66,-18"/>
<polygon fill="#c62828" stroke="#c62828" points="434.66,-21.5 444.66,-18 434.66,-14.5 434.66,-21.5"/>
</g>
</g>
</svg>
