<?xml version="1.0" encoding="UTF-8" standalone="no"?>
<!DOCTYPE svg PUBLIC "-//W3C//DTD SVG 1.1//EN"
 "http://www.w3.org/Graphics/SVG/1.1/DTD/svg11.dtd">
<!-- Generated by graphviz version 14.1.2 (0)
 -->
<!-- Title: learning_pathway Pages: 1 -->
<svg width="444pt" height="471pt"
 viewBox="0.00 0.00 444.00 471.00" xmlns="http://www.w3.org/2000/svg" xmlns:xlink="http://www.w3.org/1999/xlink">
<g id="graph0" class="graph" transform="scale(1 1) rotate(0) translate(4 467)">
<title>learning_pathway</title>
<polygon fill="white" stroke="none" points="-4,4 -4,-467 440,-467 440,4 -4,4"/>
<!-- primary -->
<g id="node1" class="node">
<title>primary</title>
<path fill="#3f51b5" stroke="black" d="M375.25,-463C375.25,-463 285.75,-463 285.75,-463 279.75,-463 273.75,-457 273.75,-451 273.75,-451 273.75,-439 273.75,-439 273.75,-433 279.75,-427 285.75,-427 285.75,-427 375.25,-427 375.25,-427 381.25,-427 387.25,-433 387.25,-439 387.25,-439 387.25,-451 387.25,-451 387.25,-457 381.25,-463 375.25,-463"/>
<text xml:space="preserve" text-anchor="middle" x="330.5" y="-448.05" font-family="Arial Bold" font-size="11.00" fill="white">Primary Education</text>
<text xml:space="preserve" text-anchor="middle" x="330.5" y="-434.55" font-family="Arial Bold" font-size="11.00" fill="white">(Ages 6&#45;12)</text>
</g>
<!-- middle -->
<g id="node2" class="node">
<title>middle</title>
<path fill="#3f51b5" stroke="black" d="M303.62,-380C303.62,-380 237.38,-380 237.38,-380 231.38,-380 225.38,-374 225.38,-368 225.38,-368 225.38,-356 225.38,-356 225.38,-350 231.38,-344 237.38,-344 237.38,-344 303.62,-344 303.62,-344 309.62,-344 315.62,-350 315.62,-356 315.62,-356 315.62,-368 315.62,-368 315.62,-374 309.62,-380 303.62,-380"/>
<text xml:space="preserve" text-anchor="middle" x="270.5" y="-365.05" font-family="Arial Bold" font-size="11.00" fill="white">Middle School</text>
<text xml:space="preserve" text-anchor="middle" x="270.5" y="-351.55" font-family="Arial Bold" font-size="11.00" fill="white">(Ages 12&#45;15)</text>
</g>
<!-- primary&#45;&gt;middle -->
<g id="edge1" class="edge">
<title>primary&#45;&gt;middle</title>
<path fill="none" stroke="#3f51b5" stroke-width="2" d="M294.69,-426.58C294.69,-426.58 294.69,-393.4 294.69,-393.4"/>
<polygon fill="#3f51b5" stroke="#3f51b5" stroke-width="2" points="298.19,-393.4 294.69,-383.4 291.19,-393.4 298.19,-393.4"/>
</g>
<!-- primary_focus -->
<g id="node5" class="node">
<title>primary_focus</title>
<path fill="#009688" stroke="black" d="M424,-384C424,-384 357,-384 357,-384 351,-384 345,-378 345,-372 345,-372 345,-352 345,-352 345,-346 351,-340 357,-340 357,-340 424,-340 424,-340 430,-340 436,-346 436,-352 436,-352 436,-372 436,-372 436,-378 430,-384 424,-384"/>
<text xml:space="preserve" text-anchor="middle" x="390.5" y="-370.5" font-family="Arial" font-size="10.00" fill="white">Foundation Skills</text>
<text xml:space="preserve" text-anchor="middle" x="390.5" y="-358.5" font-family="Arial" font-size="10.00" fill="white">Reading, Writing,</text>
<text xml:space="preserve" text-anchor="middle" x="390.5" y="-346.5" font-family="Arial" font-size="10.00" fill="white">Basic Math</text>
</g>
<!-- primary&#45;&gt;primary_focus -->
<g id="edge4" class="edge">
<title>primary&#45;&gt;primary_focus</title>
<path fill="none" stroke="#009688" stroke-width="1.5" d="M366.12,-426.58C366.12,-426.58 366.12,-396.48 366.12,-396.48"/>
<polygon fill="#009688" stroke="#009688" stroke-width="1.5" points="369.63,-396.48 366.13,-386.48 362.63,-396.48 369.63,-396.48"/>
</g>
<!-- high -->
<g id="node3" class="node">
<title>high</title>
<path fill="#3f51b5" stroke="black" d="M192.12,-293C192.12,-293 134.88,-293 134.88,-293 128.88,-293 122.88,-287 122.88,-281 122.88,-281 122.88,-269 122.88,-269 122.88,-263 128.88,-257 134.88,-257 134.88,-257 192.12,-257 192.12,-257 198.12,-257 204.12,-263 204.12,-269 204.12,-269 204.12,-281 204.12,-281 204.12,-287 198.12,-293 192.12,-293"/>
<text xml:space="preserve" text-anchor="middle" x="163.5" y="-278.05" font-family="Arial Bold" font-size="11.00" fill="white">High School</text>
<text xml:space="preserve" text-anchor="middle" x="163.5" y="-264.55" font-family="Arial Bold" font-size="11.00" fill="white">(Ages 15&#45;18)</text>
</g>
<!-- middle&#45;&gt;high -->
<g id="edge2" class="edge">
<title>middle&#45;&gt;high</title>
<path fill="none" stroke="#3f51b5" stroke-width="2" d="M229.19,-343.55C229.19,-318.01 229.19,-275 229.19,-275 229.19,-275 217.38,-275 217.38,-275"/>
<polygon fill="#3f51b5" stroke="#3f51b5" stroke-width="2" points="217.38,-271.5 207.38,-275 217.38,-278.5 217.38,-271.5"/>
</g>
<!-- middle_focus -->
<g id="node6" class="node">
<title>middle_focus</title>
<path fill="#009688" stroke="black" d="M312,-297C312,-297 245,-297 245,-297 239,-297 233,-291 233,-285 233,-285 233,-265 233,-265 233,-259 239,-253 245,-253 245,-253 312,-253 312,-253 318,-253 324,-259 324,-265 324,-265 324,-285 324,-285 324,-291 318,-297 312,-297"/>
<text xml:space="preserve" text-anchor="middle" x="278.5" y="-283.5" font-family="Arial" font-size="10.00" fill="white">Core Knowledge</text>
<text xml:space="preserve" text-anchor="middle" x="278.5" y="-271.5" font-family="Arial" font-size="10.00" fill="white">Science, History,</text>
<text xml:space="preserve" text-anchor="middle" x="278.5" y="-259.5" font-family="Arial" font-size="10.00" fill="white">Advanced Math</text>
</g>
<!-- middle&#45;&gt;middle_focus -->
<g id="edge5" class="edge">
<title>middle&#45;&gt;middle_focus</title>
<path fill="none" stroke="#009688" stroke-width="1.5" d="M274.31,-343.55C274.31,-343.55 274.31,-309.71 274.31,-309.71"/>
<polygon fill="#009688" stroke="#009688" stroke-width="1.5" points="277.81,-309.71 274.31,-299.71 270.81,-309.71 277.81,-309.71"/>
</g>
<!-- university -->
<g id="node4" class="node">
<title>university</title>
<path fill="#3f51b5" stroke="black" d="M78.62,-206C78.62,-206 30.38,-206 30.38,-206 24.38,-206 18.38,-200 18.38,-194 18.38,-194 18.38,-182 18.38,-182 18.38,-176 24.38,-170 30.38,-170 30.38,-170 78.62,-170 78.62,-170 84.62,-170 90.62,-176 90.62,-182 90.62,-182 90.62,-194 90.62,-194 90.62,-200 84.62,-206 78.62,-206"/>
<text xml:space="preserve" text-anchor="middle" x="54.5" y="-191.05" font-family="Arial Bold" font-size="11.00" fill="white">University</text>
<text xml:space="preserve" text-anchor="middle" x="54.5" y="-177.55" font-family="Arial Bold" font-size="11.00" fill="white">(Ages 18+)</text>
</g>
<!-- high&#45;&gt;university -->
<g id="edge3" class="edge">
<title>high&#45;&gt;university</title>
<path fill="none" stroke="#3f51b5" stroke-width="2" d="M122.6,-275C91.67,-275 54.5,-275 54.5,-275 54.5,-275 54.5,-219.48 54.5,-219.48"/>
<polygon fill="#3f51b5" stroke="#3f51b5" stroke-width="2" points="58,-219.48 54.5,-209.48 51,-219.48 58,-219.48"/>
</g>
<!-- high_focus -->
<g id="node7" class="node">
<title>high_focus</title>
<path fill="#009688" stroke="black" d="M204.5,-210C204.5,-210 134.5,-210 134.5,-210 128.5,-210 122.5,-204 122.5,-198 122.5,-198 122.5,-178 122.5,-178 122.5,-172 128.5,-166 134.5,-166 134.5,-166 204.5,-166 204.5,-166 210.5,-166 216.5,-172 216.5,-178 216.5,-178 216.5,-198 216.5,-198 216.5,-204 210.5,-210 204.5,-210"/>
<text xml:space="preserve" text-anchor="middle" x="169.5" y="-196.5" font-family="Arial" font-size="10.00" fill="white">Specialization</text>
<text xml:space="preserve" text-anchor="middle" x="169.5" y="-184.5" font-family="Arial" font-size="10.00" fill="white">Stream Selection,</text>
<text xml:space="preserve" text-anchor="middle" x="169.5" y="-172.5" font-family="Arial" font-size="10.00" fill="white">Exam Preparation</text>
</g>
<!-- high&#45;&gt;high_focus -->
<g id="edge6" class="edge">
<title>high&#45;&gt;high_focus</title>
<path fill="none" stroke="#009688" stroke-width="1.5" d="M163.5,-256.55C163.5,-256.55 163.5,-222.71 163.5,-222.71"/>
<polygon fill="#009688" stroke="#009688" stroke-width="1.5" points="167,-222.71 163.5,-212.71 160,-222.71 167,-222.71"/>
</g>
<!-- uni_focus -->
<g id="node8" class="node">
<title>uni_focus</title>
<path fill="#009688" stroke="black" d="M85,-123C85,-123 12,-123 12,-123 6,-123 0,-117 0,-111 0,-111 0,-91 0,-91 0,-85 6,-79 12,-79 12,-79 85,-79 85,-79 91,-79 97,-85 97,-91 97,-91 97,-111 97,-111 97,-117 91,-123 85,-123"/>
<text xml:space="preserve" text-anchor="middle" x="48.5" y="-109.5" font-family="Arial" font-size="10.00" fill="white">Professional Skills</text>
<text xml:space="preserve" text-anchor="middle" x="48.5" y="-97.5" font-family="Arial" font-size="10.00" fill="white">Major Studies,</text>
<text xml:space="preserve" text-anchor="middle" x="48.5" y="-85.5" font-family="Arial" font-size="10.00" fill="white">Research</text>
</g>
<!-- university&#45;&gt;uni_focus -->
<g id="edge7" class="edge">
<title>university&#45;&gt;uni_focus</title>
<path fill="none" stroke="#009688" stroke-width="1.5" d="M54.5,-169.55C54.5,-169.55 54.5,-135.71 54.5,-135.71"/>
<polygon fill="#009688" stroke="#009688" stroke-width="1.5" points="58,-135.71 54.5,-125.71 51,-135.71 58,-135.71"/>
</g>
<!-- primary_outcome -->
<g id="node9" class="node">
<title>primary_outcome</title>
<path fill="#ff5722" stroke="black" d="M409,-293C409,-293 372,-293 372,-293 366,-293 360,-287 360,-281 360,-281 360,-269 360,-269 360,-263 366,-257 372,-257 372,-257 409,-257 409,-257 415,-257 421,-263 421,-269 421,-269 421,-281 421,-281 421,-287 415,-293 409,-293"/>
<text xml:space="preserve" text-anchor="middle" x="390.5" y="-277.5" font-family="Arial" font-size="10.00" fill="white">Literacy &amp;</text>
<text xml:space="preserve" text-anchor="middle" x="390.5" y="-265.5" font-family="Arial" font-size="10.00" fill="white">Numeracy</text>
</g>
<!-- primary_focus&#45;&gt;primary_outcome -->
<g id="edge8" class="edge">
<title>primary_focus&#45;&gt;primary_outcome</title>
<path fill="none" stroke="#ff5722" d="M390.5,-339.6C390.5,-339.6 390.5,-304.74 390.5,-304.74"/>
<polygon fill="#ff5722" stroke="#ff5722" points="394,-304.74 390.5,-294.74 387,-304.74 394,-304.74"/>
</g>
<!-- middle_outcome -->
<g id="node10" class="node">
<title>middle_outcome</title>
<path fill="#ff5722" stroke="black" d="M294.75,-206C294.75,-206 262.25,-206 262.25,-206 256.25,-206 250.25,-200 250.25,-194 250.25,-194 250.25,-182 250.25,-182 250.25,-176 256.25,-170 262.25,-170 262.25,-170 294.75,-170 294.75,-170 300.75,-170 306.75,-176 306.75,-182 306.75,-182 306.75,-194 306.75,-194 306.75,-200 300.75,-206 294.75,-206"/>
<text xml:space="preserve" text-anchor="middle" x="278.5" y="-190.5" font-family="Arial" font-size="10.00" fill="white">Scientific</text>
<text xml:space="preserve" text-anchor="middle" x="278.5" y="-178.5" font-family="Arial" font-size="10.00" fill="white">Thinking</text>
</g>
<!-- middle_focus&#45;&gt;middle_outcome -->
<g id="edge9" class="edge">
<title>middle_focus&#45;&gt;middle_outcome</title>
<path fill="none" stroke="#ff5722" d="M278.5,-252.6C278.5,-252.6 278.5,-217.74 278.5,-217.74"/>
<polygon fill="#ff5722" stroke="#ff5722" points="282,-217.74 278.5,-207.74 275,-217.74 282,-217.74"/>
</g>
<!-- high_outcome -->
<g id="node11" class="node">
<title>high_outcome</title>
<path fill="#ff5722" stroke="black" d="M206.75,-119C206.75,-119 138.25,-119 138.25,-119 132.25,-119 126.25,-113 126.25,-107 126.25,-107 126.25,-95 126.25,-95 126.25,-89 132.25,-83 138.25,-83 138.25,-83 206.75,-83 206.75,-83 212.75,-83 218.75,-89 218.75,-95 218.75,-95 218.75,-107 218.75,-107 218.75,-113 212.75,-119 206.75,-119"/>
<text xml:space="preserve" text-anchor="middle" x="172.5" y="-103.5" font-family="Arial" font-size="10.00" fill="white">Gaokao</text>
<text xml:space="preserve" text-anchor="middle" x="172.5" y="-91.5" font-family="Arial" font-size="10.00" fill="white">(University Entry)</text>
</g>
<!-- high_focus&#45;&gt;high_outcome -->
<g id="edge10" class="edge">
<title>high_focus&#45;&gt;high_outcome</title>
<path fill="none" stroke="#ff5722" d="M171.38,-165.6C171.38,-165.6 171.38,-130.74 171.38,-130.74"/>
<polygon fill="#ff5722" stroke="#ff5722" points="174.88,-130.74 171.38,-120.74 167.88,-130.74 174.88,-130.74"/>
</g>
<!-- uni_outcome -->
<g id="node12" class="node">
<title>uni_outcome</title>
<path fill="#ff5722" stroke="black" d="M67.75,-36C67.75,-36 29.25,-36 29.25,-36 23.25,-36 17.25,-30 17.25,-24 17.25,-24 17.25,-12 17.25,-12 17.25,-6 23.25,0 29.25,0 29.25,0 67.75,0 67.75,0 73.75,0 79.75,-6 79.75,-12 79.75,-12 79.75,-24 79.75,-24 79.75,-30 73.75,-36 67.75,-36"/>
<text xml:space="preserve" text-anchor="middle" x="48.5" y="-20.5" font-family="Arial" font-size="10.00" fill="white">Career</text>
<text xml:space="preserve" text-anchor="middle" x="48.5" y="-8.5" font-family="Arial" font-size="10.00" fill="white">Readiness</text>
</g>
<!-- uni_focus&#45;&gt;uni_outcome -->
<g id="edge11" class="edge">
<title>uni_focus&#45;&gt;uni_outcome</title>
<path fill="none" stroke="#ff5722" d="M48.5,-78.76C48.5,-78.76 48.5,-47.89 48.5,-47.89"/>
<polygon fill="#ff5722" stroke="#ff5722" points="52,-47.89 48.5,-37.89 45,-47.89 52,-47.89"/>
</g>
</g>
</svg>
