<?xml version="1.0" encoding="UTF-8" standalone="no"?>
<!DOCTYPE svg PUBLIC "-//W3C//DTD SVG 1.1//EN"
 "http://www.w3.org/Graphics/SVG/1.1/DTD/svg11.dtd">
<!-- Generated by graphviz version 14.1.2 (0)
 -->
<!-- Title: caveman_ecosystem Pages: 1 -->
<svg width="918pt" height="351pt"
 viewBox="0.00 0.00 918.00 351.00" xmlns="http://www.w3.org/2000/svg" xmlns:xlink="http://www.w3.org/1999/xlink">
<g id="graph0" class="graph" transform="scale(1 1) rotate(0) translate(4 347)">
<title>caveman_ecosystem</title>
<polygon fill="white" stroke="none" points="-4,4 -4,-347 913.88,-347 913.88,4 -4,4"/>
<!-- philosophy -->
<g id="node1" class="node">
<title>philosophy</title>
<path fill="#2196f3" stroke="black" d="M509.62,-343C509.62,-343 372.88,-343 372.88,-343 366.88,-343 360.88,-337 360.88,-331 360.88,-331 360.88,-319 360.88,-319 360.88,-313 366.88,-307 372.88,-307 372.88,-307 509.62,-307 509.62,-307 515.62,-307 521.62,-313 521.62,-319 521.62,-319 521.62,-331 521.62,-331 521.62,-337 515.62,-343 509.62,-343"/>
<text xml:space="preserve" text-anchor="middle" x="441.25" y="-320.73" font-family="Arial Bold" font-size="12.00" fill="white">Agent Do More With Less</text>
</g>
<!-- caveman -->
<g id="node2" class="node">
<title>caveman</title>
<path fill="#ff9800" stroke="black" d="M239.75,-249C239.75,-249 148.75,-249 148.75,-249 142.75,-249 136.75,-243 136.75,-237 136.75,-237 136.75,-212.5 136.75,-212.5 136.75,-206.5 142.75,-200.5 148.75,-200.5 148.75,-200.5 239.75,-200.5 239.75,-200.5 245.75,-200.5 251.75,-206.5 251.75,-212.5 251.75,-212.5 251.75,-237 251.75,-237 251.75,-243 245.75,-249 239.75,-249"/>
<text xml:space="preserve" text-anchor="middle" x="194.25" y="-234.55" font-family="Arial" font-size="11.00" fill="white">caveman</text>
<text xml:space="preserve" text-anchor="middle" x="194.25" y="-221.05" font-family="Arial" font-size="11.00" fill="white">Output Compression</text>
<text xml:space="preserve" text-anchor="middle" x="194.25" y="-207.55" font-family="Arial" font-size="11.00" fill="white">~75% fewer tokens</text>
</g>
<!-- philosophy&#45;&gt;caveman -->
<g id="edge1" class="edge">
<title>philosophy&#45;&gt;caveman</title>
<path fill="none" stroke="#ff9800" stroke-width="2" d="M360.71,-325C288.64,-325 194.25,-325 194.25,-325 194.25,-325 194.25,-262.3 194.25,-262.3"/>
<polygon fill="#ff9800" stroke="#ff9800" stroke-width="2" points="197.75,-262.3 194.25,-252.3 190.75,-262.3 197.75,-262.3"/>
</g>
<!-- cavemem -->
<g id="node3" class="node">
<title>cavemem</title>
<path fill="#9c27b0" stroke="black" d="M504.75,-249C504.75,-249 377.75,-249 377.75,-249 371.75,-249 365.75,-243 365.75,-237 365.75,-237 365.75,-212.5 365.75,-212.5 365.75,-206.5 371.75,-200.5 377.75,-200.5 377.75,-200.5 504.75,-200.5 504.75,-200.5 510.75,-200.5 516.75,-206.5 516.75,-212.5 516.75,-212.5 516.75,-237 516.75,-237 516.75,-243 510.75,-249 504.75,-249"/>
<text xml:space="preserve" text-anchor="middle" x="441.25" y="-234.55" font-family="Arial" font-size="11.00" fill="white">cavemem</text>
<text xml:space="preserve" text-anchor="middle" x="441.25" y="-221.05" font-family="Arial" font-size="11.00" fill="white">Persistent Memory</text>
<text xml:space="preserve" text-anchor="middle" x="441.25" y="-207.55" font-family="Arial" font-size="11.00" fill="white">Compressed SQLite + MCP</text>
</g>
<!-- philosophy&#45;&gt;cavemem -->
<g id="edge2" class="edge">
<title>philosophy&#45;&gt;cavemem</title>
<path fill="none" stroke="#9c27b0" stroke-width="2" d="M441.25,-306.61C441.25,-306.61 441.25,-262.47 441.25,-262.47"/>
<polygon fill="#9c27b0" stroke="#9c27b0" stroke-width="2" points="444.75,-262.47 441.25,-252.47 437.75,-262.47 444.75,-262.47"/>
</g>
<!-- cavekit -->
<g id="node4" class="node">
<title>cavekit</title>
<path fill="#00bcd4" stroke="black" d="M754.62,-249C754.62,-249 641.88,-249 641.88,-249 635.88,-249 629.88,-243 629.88,-237 629.88,-237 629.88,-212.5 629.88,-212.5 629.88,-206.5 635.88,-200.5 641.88,-200.5 641.88,-200.5 754.62,-200.5 754.62,-200.5 760.62,-200.5 766.62,-206.5 766.62,-212.5 766.62,-212.5 766.62,-237 766.62,-237 766.62,-243 760.62,-249 754.62,-249"/>
<text xml:space="preserve" text-anchor="middle" x="698.25" y="-234.55" font-family="Arial" font-size="11.00" fill="white">cavekit</text>
<text xml:space="preserve" text-anchor="middle" x="698.25" y="-221.05" font-family="Arial" font-size="11.00" fill="white">Autonomous Build Loop</text>
<text xml:space="preserve" text-anchor="middle" x="698.25" y="-207.55" font-family="Arial" font-size="11.00" fill="white">Spec&#45;driven parallel build</text>
</g>
<!-- philosophy&#45;&gt;cavekit -->
<g id="edge3" class="edge">
<title>philosophy&#45;&gt;cavekit</title>
<path fill="none" stroke="#00bcd4" stroke-width="2" d="M521.86,-325C597.23,-325 698.25,-325 698.25,-325 698.25,-325 698.25,-262.3 698.25,-262.3"/>
<polygon fill="#00bcd4" stroke="#00bcd4" stroke-width="2" points="701.75,-262.3 698.25,-252.3 694.75,-262.3 701.75,-262.3"/>
</g>
<!-- says -->
<g id="node5" class="node">
<title>says</title>
<path fill="#ff9800" stroke="black" d="M92.5,-142.5C92.5,-142.5 12,-142.5 12,-142.5 6,-142.5 0,-136.5 0,-130.5 0,-130.5 0,-118.5 0,-118.5 0,-112.5 6,-106.5 12,-106.5 12,-106.5 92.5,-106.5 92.5,-106.5 98.5,-106.5 104.5,-112.5 104.5,-118.5 104.5,-118.5 104.5,-130.5 104.5,-130.5 104.5,-136.5 98.5,-142.5 92.5,-142.5"/>
<text xml:space="preserve" text-anchor="middle" x="52.25" y="-127.55" font-family="Arial" font-size="11.00" fill="white">Compresses</text>
<text xml:space="preserve" text-anchor="middle" x="52.25" y="-114.05" font-family="Arial" font-size="11.00" fill="white">What Agent SAYS</text>
</g>
<!-- caveman&#45;&gt;says -->
<g id="edge4" class="edge">
<title>caveman&#45;&gt;says</title>
<path fill="none" stroke="#ff9800" stroke-width="2" d="M136.49,-225C97.18,-225 52.25,-225 52.25,-225 52.25,-225 52.25,-155.96 52.25,-155.96"/>
<polygon fill="#ff9800" stroke="#ff9800" stroke-width="2" points="55.75,-155.96 52.25,-145.96 48.75,-155.96 55.75,-155.96"/>
</g>
<!-- tag1 -->
<g id="node9" class="node">
<title>tag1</title>
<text xml:space="preserve" text-anchor="middle" x="194.25" y="-127" font-family="Arial" font-size="10.00" fill="#ff9800">why use many token</text>
<text xml:space="preserve" text-anchor="middle" x="194.25" y="-115" font-family="Arial" font-size="10.00" fill="#ff9800">when few do trick</text>
</g>
<!-- caveman&#45;&gt;tag1 -->
<!-- remembers -->
<g id="node6" class="node">
<title>remembers</title>
<path fill="#ff9800" stroke="black" d="M418.88,-142.5C418.88,-142.5 295.62,-142.5 295.62,-142.5 289.62,-142.5 283.62,-136.5 283.62,-130.5 283.62,-130.5 283.62,-118.5 283.62,-118.5 283.62,-112.5 289.62,-106.5 295.62,-106.5 295.62,-106.5 418.88,-106.5 418.88,-106.5 424.88,-106.5 430.88,-112.5 430.88,-118.5 430.88,-118.5 430.88,-130.5 430.88,-130.5 430.88,-136.5 424.88,-142.5 418.88,-142.5"/>
<text xml:space="preserve" text-anchor="middle" x="357.25" y="-127.55" font-family="Arial" font-size="11.00" fill="white">Compresses</text>
<text xml:space="preserve" text-anchor="middle" x="357.25" y="-114.05" font-family="Arial" font-size="11.00" fill="white">What Agent REMEMBERS</text>
</g>
<!-- cavemem&#45;&gt;remembers -->
<g id="edge5" class="edge">
<title>cavemem&#45;&gt;remembers</title>
<path fill="none" stroke="#9c27b0" stroke-width="2" d="M398.31,-200.23C398.31,-200.23 398.31,-155.82 398.31,-155.82"/>
<polygon fill="#9c27b0" stroke="#9c27b0" stroke-width="2" points="401.81,-155.82 398.31,-145.82 394.81,-155.82 401.81,-155.82"/>
</g>
<!-- tag2 -->
<g id="node10" class="node">
<title>tag2</title>
<text xml:space="preserve" text-anchor="middle" x="532.25" y="-127" font-family="Arial" font-size="10.00" fill="#9c27b0">why agent forget</text>
<text xml:space="preserve" text-anchor="middle" x="532.25" y="-115" font-family="Arial" font-size="10.00" fill="#9c27b0">when agent can remember</text>
</g>
<!-- cavemem&#45;&gt;tag2 -->
<!-- builds -->
<g id="node7" class="node">
<title>builds</title>
<path fill="#ff9800" stroke="black" d="M750.88,-142.5C750.88,-142.5 645.62,-142.5 645.62,-142.5 639.62,-142.5 633.62,-136.5 633.62,-130.5 633.62,-130.5 633.62,-118.5 633.62,-118.5 633.62,-112.5 639.62,-106.5 645.62,-106.5 645.62,-106.5 750.88,-106.5 750.88,-106.5 756.88,-106.5 762.88,-112.5 762.88,-118.5 762.88,-118.5 762.88,-130.5 762.88,-130.5 762.88,-136.5 756.88,-142.5 750.88,-142.5"/>
<text xml:space="preserve" text-anchor="middle" x="698.25" y="-127.55" font-family="Arial" font-size="11.00" fill="white">Compresses</text>
<text xml:space="preserve" text-anchor="middle" x="698.25" y="-114.05" font-family="Arial" font-size="11.00" fill="white">What Agent GUESSES</text>
</g>
<!-- cavekit&#45;&gt;builds -->
<g id="edge6" class="edge">
<title>cavekit&#45;&gt;builds</title>
<path fill="none" stroke="#00bcd4" stroke-width="2" d="M698.25,-200.23C698.25,-200.23 698.25,-155.82 698.25,-155.82"/>
<polygon fill="#00bcd4" stroke="#00bcd4" stroke-width="2" points="701.75,-155.82 698.25,-145.82 694.75,-155.82 701.75,-155.82"/>
</g>
<!-- tag3 -->
<g id="node11" class="node">
<title>tag3</title>
<text xml:space="preserve" text-anchor="middle" x="854.25" y="-127" font-family="Arial" font-size="10.00" fill="#00bcd4">why agent guess</text>
<text xml:space="preserve" text-anchor="middle" x="854.25" y="-115" font-family="Arial" font-size="10.00" fill="#00bcd4">when agent can know</text>
</g>
<!-- cavekit&#45;&gt;tag3 -->
<!-- compose -->
<g id="node8" class="node">
<title>compose</title>
<polygon fill="#f44336" stroke="black" points="423,-48.5 291.5,-48.5 291.5,0 423,0 423,-48.5"/>
<text xml:space="preserve" text-anchor="middle" x="357.25" y="-34.05" font-family="Arial" font-size="11.00" fill="white">Composable</text>
<text xml:space="preserve" text-anchor="middle" x="357.25" y="-20.55" font-family="Arial" font-size="11.00" fill="white">Install One, Some, or All</text>
<text xml:space="preserve" text-anchor="middle" x="357.25" y="-7.05" font-family="Arial" font-size="11.00" fill="white">Each Stands Alone</text>
</g>
<!-- says&#45;&gt;compose -->
<g id="edge7" class="edge">
<title>says&#45;&gt;compose</title>
<path fill="none" stroke="#f44336" stroke-width="1.5" d="M52.25,-106.07C52.25,-77.05 52.25,-24 52.25,-24 52.25,-24 278.8,-24 278.8,-24"/>
<polygon fill="#f44336" stroke="#f44336" stroke-width="1.5" points="278.8,-27.5 288.8,-24 278.8,-20.5 278.8,-27.5"/>
</g>
<!-- remembers&#45;&gt;compose -->
<g id="edge8" class="edge">
<title>remembers&#45;&gt;compose</title>
<path fill="none" stroke="#f44336" stroke-width="1.5" d="M357.25,-106.11C357.25,-106.11 357.25,-61.21 357.25,-61.21"/>
<polygon fill="#f44336" stroke="#f44336" stroke-width="1.5" points="360.75,-61.21 357.25,-51.21 353.75,-61.21 360.75,-61.21"/>
</g>
<!-- builds&#45;&gt;compose -->
<g id="edge9" class="edge">
<title>builds&#45;&gt;compose</title>
<path fill="none" stroke="#f44336" stroke-width="1.5" d="M698.25,-106.07C698.25,-77.05 698.25,-24 698.25,-24 698.25,-24 435.67,-24 435.67,-24"/>
<polygon fill="#f44336" stroke="#f44336" stroke-width="1.5" points="435.67,-20.5 425.67,-24 435.67,-27.5 435.67,-20.5"/>
</g>
</g>
</svg>
