<svg xmlns="http://www.w3.org/2000/svg" viewBox="0 0 860 420" width="860" height="420" font-family="-apple-system, 'Segoe UI', Inter, sans-serif">
<style>
  .title { font-size: 20px; font-weight: 700; fill: #0f172a; }
  .band-label { font-size: 13px; font-weight: 700; fill: #1e40af; letter-spacing:0.3px; }
  .node-title { font-size: 14px; font-weight: 700; fill: #0f172a; }
  .node-title-w { font-size: 14px; font-weight: 700; fill: #ffffff; }
  .item { font-size: 12px; font-weight: 400; fill: #0f172a; }
  .item-sub { font-size: 11px; font-weight: 400; fill: #475569; }
  .stage { font-size: 15px; font-weight: 700; fill: #ffffff; }
  .stage-sub { font-size: 11px; font-weight: 400; fill: #e0e7ff; }
  .note { font-size: 12px; font-weight: 400; fill: #1e40af; }
</style>
<defs>
  <marker id="arrow" markerWidth="10" markerHeight="10" refX="8" refY="5" markerUnits="strokeWidth" orient="auto">
    <path d="M0,1 L8,5 L0,9 z" fill="#475569"/>
  </marker>
  <marker id="arrow-accent" markerWidth="10" markerHeight="10" refX="8" refY="5" markerUnits="strokeWidth" orient="auto">
    <path d="M0,1 L8,5 L0,9 z" fill="#2563eb"/>
  </marker>
</defs>
<rect width="860" height="420" fill="#ffffff"/>
<text x="300" y="38" text-anchor="middle" class="title">Topics -&gt; Partitions -&gt; Offsets</text>
<rect x="330" y="70" width="200" height="46" rx="8" fill="#1e40af"/>
<text x="430" y="100" text-anchor="middle" class="node-title-w">Topic: orders</text>
<line x1="430" y1="116" x2="150" y2="140" stroke="#475569" stroke-width="1" marker-end="url(#arrow)"/>
<line x1="430" y1="116" x2="430" y2="140" stroke="#475569" stroke-width="1" marker-end="url(#arrow)"/>
<line x1="430" y1="116" x2="710" y2="140" stroke="#475569" stroke-width="1" marker-end="url(#arrow)"/>
<rect x="60" y="142" width="220" height="200" rx="8" fill="#2563eb"/>
<text x="170" y="166" text-anchor="middle" class="node-title-w">Partition 0</text>
<rect x="80" y="180" width="180" height="24" rx="8" fill="#ffffff" stroke="#cbd5e1" stroke-width="1"/>
<text x="170" y="196" text-anchor="middle" class="item-sub">offset 0: msg0</text>
<rect x="80" y="208" width="180" height="24" rx="8" fill="#ffffff" stroke="#cbd5e1" stroke-width="1"/>
<text x="170" y="224" text-anchor="middle" class="item-sub">offset 1: msg1</text>
<rect x="80" y="236" width="180" height="24" rx="8" fill="#ffffff" stroke="#cbd5e1" stroke-width="1"/>
<text x="170" y="252" text-anchor="middle" class="item-sub">offset 2: msg2</text>
<rect x="80" y="264" width="180" height="24" rx="8" fill="#ffffff" stroke="#cbd5e1" stroke-width="1"/>
<text x="170" y="280" text-anchor="middle" class="item-sub">offset 3: msg3</text>
<rect x="80" y="292" width="180" height="24" rx="8" fill="#ffffff" stroke="#cbd5e1" stroke-width="1"/>
<text x="170" y="308" text-anchor="middle" class="item-sub">offset 4: msg4</text>
<rect x="340" y="142" width="220" height="200" rx="8" fill="#1e40af"/>
<text x="450" y="166" text-anchor="middle" class="node-title-w">Partition 1</text>
<rect x="360" y="180" width="180" height="24" rx="8" fill="#ffffff" stroke="#cbd5e1" stroke-width="1"/>
<text x="450" y="196" text-anchor="middle" class="item-sub">offset 0: msg0</text>
<rect x="360" y="208" width="180" height="24" rx="8" fill="#ffffff" stroke="#cbd5e1" stroke-width="1"/>
<text x="450" y="224" text-anchor="middle" class="item-sub">offset 1: msg1</text>
<rect x="360" y="236" width="180" height="24" rx="8" fill="#ffffff" stroke="#cbd5e1" stroke-width="1"/>
<text x="450" y="252" text-anchor="middle" class="item-sub">offset 2: msg2</text>
<rect x="360" y="264" width="180" height="24" rx="8" fill="#ffffff" stroke="#cbd5e1" stroke-width="1"/>
<text x="450" y="280" text-anchor="middle" class="item-sub">offset 3: msg3</text>
<rect x="360" y="292" width="180" height="24" rx="8" fill="#ffffff" stroke="#cbd5e1" stroke-width="1"/>
<text x="450" y="308" text-anchor="middle" class="item-sub">offset 4: msg4</text>
<rect x="620" y="142" width="220" height="200" rx="8" fill="#2563eb"/>
<text x="730" y="166" text-anchor="middle" class="node-title-w">Partition 2</text>
<rect x="640" y="180" width="180" height="24" rx="8" fill="#ffffff" stroke="#cbd5e1" stroke-width="1"/>
<text x="730" y="196" text-anchor="middle" class="item-sub">offset 0: msg0</text>
<rect x="640" y="208" width="180" height="24" rx="8" fill="#ffffff" stroke="#cbd5e1" stroke-width="1"/>
<text x="730" y="224" text-anchor="middle" class="item-sub">offset 1: msg1</text>
<rect x="640" y="236" width="180" height="24" rx="8" fill="#ffffff" stroke="#cbd5e1" stroke-width="1"/>
<text x="730" y="252" text-anchor="middle" class="item-sub">offset 2: msg2</text>
<rect x="640" y="264" width="180" height="24" rx="8" fill="#ffffff" stroke="#cbd5e1" stroke-width="1"/>
<text x="730" y="280" text-anchor="middle" class="item-sub">offset 3: msg3</text>
<rect x="640" y="292" width="180" height="24" rx="8" fill="#ffffff" stroke="#cbd5e1" stroke-width="1"/>
<text x="730" y="308" text-anchor="middle" class="item-sub">offset 4: msg4</text>
<rect x="40" y="360" width="800" height="30" rx="12" fill="#dbeafe" stroke="#93c5fd" stroke-width="1"/>
<text x="430" y="380" text-anchor="middle" class="note">Ordering is per-partition (not global). Key hashing -&gt; same key always goes to same partition.</text>
</svg>
