<?xml version="1.0" encoding="UTF-8" standalone="no"?>
<!DOCTYPE svg PUBLIC "-//W3C//DTD SVG 1.1//EN"
 "http://www.w3.org/Graphics/SVG/1.1/DTD/svg11.dtd">
<!-- Generated by graphviz version 14.1.2 (0)
 -->
<!-- Title: heretic_features Pages: 1 -->
<svg width="1881pt" height="2495pt"
 viewBox="0.00 0.00 1881.00 2495.00" xmlns="http://www.w3.org/2000/svg" xmlns:xlink="http://www.w3.org/1999/xlink">
<g id="graph0" class="graph" transform="scale(2.08333 2.08333) rotate(0) translate(4 1193.5)">
<title>heretic_features</title>
<polygon fill="white" stroke="none" points="-4,4 -4,-1193.5 899,-1193.5 899,4 -4,4"/>
<text xml:space="preserve" text-anchor="middle" x="447.5" y="-1164.6" font-family="Helvetica,sans-Serif" font-size="22.00" fill="#1a1a2e">Heretic Core Features &#45; Directional Ablation, Optuna TPE, Auto&#45;Registration, HuggingFace</text>
<g id="clust1" class="cluster">
<title>cluster_ablation</title>
<polygon fill="white" stroke="#2980b9" stroke-dasharray="5,2" points="336.12,-8 336.12,-260 564.12,-260 564.12,-8 336.12,-8"/>
<text xml:space="preserve" text-anchor="middle" x="450.12" y="-244.6" font-family="Helvetica,sans-Serif" font-size="12.00" fill="#2980b9">Directional Ablation</text>
</g>
<g id="clust2" class="cluster">
<title>cluster_optuna</title>
<polygon fill="white" stroke="#27ae60" stroke-dasharray="5,2" points="331.62,-268 331.62,-516 560.75,-516 560.75,-268 331.62,-268"/>
<text xml:space="preserve" text-anchor="middle" x="446.19" y="-500.6" font-family="Helvetica,sans-Serif" font-size="12.00" fill="#27ae60">Optuna TPE Optimizer</text>
</g>
<g id="clust3" class="cluster">
<title>cluster_automatic</title>
<polygon fill="white" stroke="#e67e22" stroke-dasharray="5,2" points="337.62,-524 337.62,-714 559.25,-714 559.25,-524 337.62,-524"/>
<text xml:space="preserve" text-anchor="middle" x="448.44" y="-698.6" font-family="Helvetica,sans-Serif" font-size="12.00" fill="#e67e22">Fully Automatic</text>
</g>
<g id="clust4" class="cluster">
<title>cluster_huggingface</title>
<polygon fill="white" stroke="#8e44ad" stroke-dasharray="5,2" points="329.38,-722 329.38,-958 567.5,-958 567.5,-722 329.38,-722"/>
<text xml:space="preserve" text-anchor="middle" x="448.44" y="-942.6" font-family="Helvetica,sans-Serif" font-size="12.00" fill="#8e44ad">HuggingFace Integration</text>
</g>
<g id="clust5" class="cluster">
<title>cluster_backends</title>
<polygon fill="white" stroke="#c0392b" stroke-dasharray="5,2" points="327.5,-966 327.5,-1148 562.25,-1148 562.25,-966 327.5,-966"/>
<text xml:space="preserve" text-anchor="middle" x="444.88" y="-1132.6" font-family="Helvetica,sans-Serif" font-size="12.00" fill="#c0392b">Multi&#45;Backend Support</text>
</g>
<!-- ablation -->
<g id="node1" class="node">
<title>ablation</title>
<path fill="#e8f4f8" stroke="#2980b9" stroke-width="2" d="M399.12,-141C399.12,-141 356.12,-141 356.12,-141 350.12,-141 344.12,-135 344.12,-129 344.12,-129 344.12,-117 344.12,-117 344.12,-111 350.12,-105 356.12,-105 356.12,-105 399.12,-105 399.12,-105 405.12,-105 411.12,-111 411.12,-117 411.12,-117 411.12,-129 411.12,-129 411.12,-135 405.12,-141 399.12,-141"/>
<text xml:space="preserve" text-anchor="middle" x="377.62" y="-126.05" font-family="Helvetica,sans-Serif" font-size="11.00">Directional</text>
<text xml:space="preserve" text-anchor="middle" x="377.62" y="-112.55" font-family="Helvetica,sans-Serif" font-size="11.00">Ablation</text>
</g>
<!-- refusal_detect -->
<g id="node2" class="node">
<title>refusal_detect</title>
<path fill="#f0f7ff" stroke="#5dade2" stroke-width="1.5" d="M541.5,-55.75C541.5,-55.75 473.75,-55.75 473.75,-55.75 467.75,-55.75 461.75,-49.75 461.75,-43.75 461.75,-43.75 461.75,-28.25 461.75,-28.25 461.75,-22.25 467.75,-16.25 473.75,-16.25 473.75,-16.25 541.5,-16.25 541.5,-16.25 547.5,-16.25 553.5,-22.25 553.5,-28.25 553.5,-28.25 553.5,-43.75 553.5,-43.75 553.5,-49.75 547.5,-55.75 541.5,-55.75"/>
<text xml:space="preserve" text-anchor="middle" x="507.62" y="-43.2" font-family="Helvetica,sans-Serif" font-size="9.00">Refusal Direction</text>
<text xml:space="preserve" text-anchor="middle" x="507.62" y="-32.7" font-family="Helvetica,sans-Serif" font-size="9.00">Detection</text>
<text xml:space="preserve" text-anchor="middle" x="507.62" y="-22.2" font-family="Helvetica,sans-Serif" font-size="9.00">(Contrastive Pairs)</text>
</g>
<!-- ablation&#45;&gt;refusal_detect -->
<g id="edge1" class="edge">
<title>ablation&#45;&gt;refusal_detect</title>
<path fill="none" stroke="#2980b9" stroke-width="1.5" d="M402.03,-104.17C417.04,-92.41 437.13,-77.24 455.75,-65 456.99,-64.18 458.26,-63.37 459.54,-62.55"/>
<polygon fill="#2980b9" stroke="#2980b9" stroke-width="1.5" points="460.99,-65.77 467.68,-57.55 457.32,-59.8 460.99,-65.77"/>
</g>
<!-- activation_steer -->
<g id="node3" class="node">
<title>activation_steer</title>
<path fill="#f0f7ff" stroke="#5dade2" stroke-width="1.5" d="M537.75,-113.75C537.75,-113.75 477.5,-113.75 477.5,-113.75 471.5,-113.75 465.5,-107.75 465.5,-101.75 465.5,-101.75 465.5,-86.25 465.5,-86.25 465.5,-80.25 471.5,-74.25 477.5,-74.25 477.5,-74.25 537.75,-74.25 537.75,-74.25 543.75,-74.25 549.75,-80.25 549.75,-86.25 549.75,-86.25 549.75,-101.75 549.75,-101.75 549.75,-107.75 543.75,-113.75 537.75,-113.75"/>
<text xml:space="preserve" text-anchor="middle" x="507.62" y="-101.2" font-family="Helvetica,sans-Serif" font-size="9.00">Activation</text>
<text xml:space="preserve" text-anchor="middle" x="507.62" y="-90.7" font-family="Helvetica,sans-Serif" font-size="9.00">Steering</text>
<text xml:space="preserve" text-anchor="middle" x="507.62" y="-80.2" font-family="Helvetica,sans-Serif" font-size="9.00">Residual Stream</text>
</g>
<!-- ablation&#45;&gt;activation_steer -->
<g id="edge2" class="edge">
<title>ablation&#45;&gt;activation_steer</title>
<path fill="none" stroke="#2980b9" stroke-width="1.5" d="M411.92,-115.46C424.41,-112.63 438.94,-109.33 452.82,-106.19"/>
<polygon fill="#2980b9" stroke="#2980b9" stroke-width="1.5" points="453.59,-109.61 462.57,-103.98 452.04,-102.78 453.59,-109.61"/>
</g>
<!-- arditi_2024 -->
<g id="node4" class="node">
<title>arditi_2024</title>
<path fill="#f0f7ff" stroke="#5dade2" stroke-width="1.5" d="M544.12,-171.75C544.12,-171.75 471.12,-171.75 471.12,-171.75 465.12,-171.75 459.12,-165.75 459.12,-159.75 459.12,-159.75 459.12,-144.25 459.12,-144.25 459.12,-138.25 465.12,-132.25 471.12,-132.25 471.12,-132.25 544.12,-132.25 544.12,-132.25 550.12,-132.25 556.12,-138.25 556.12,-144.25 556.12,-144.25 556.12,-159.75 556.12,-159.75 556.12,-165.75 550.12,-171.75 544.12,-171.75"/>
<text xml:space="preserve" text-anchor="middle" x="507.62" y="-159.2" font-family="Helvetica,sans-Serif" font-size="9.00">Arditi et al.</text>
<text xml:space="preserve" text-anchor="middle" x="507.62" y="-148.7" font-family="Helvetica,sans-Serif" font-size="9.00">2024</text>
<text xml:space="preserve" text-anchor="middle" x="507.62" y="-138.2" font-family="Helvetica,sans-Serif" font-size="9.00">Refusal Mechanism</text>
</g>
<!-- ablation&#45;&gt;arditi_2024 -->
<g id="edge3" class="edge">
<title>ablation&#45;&gt;arditi_2024</title>
<path fill="none" stroke="#2980b9" stroke-width="1.5" d="M411.92,-130.54C422.59,-132.96 434.75,-135.71 446.71,-138.43"/>
<polygon fill="#2980b9" stroke="#2980b9" stroke-width="1.5" points="445.81,-141.81 456.34,-140.61 447.36,-134.98 445.81,-141.81"/>
</g>
<!-- ablation_note -->
<g id="node5" class="node">
<title>ablation_note</title>
<polygon fill="#fff9c4" stroke="#f9a825" stroke-width="1.5" points="545.62,-229.75 463.62,-229.75 463.62,-190.25 551.62,-190.25 551.62,-223.75 545.62,-229.75"/>
<polyline fill="none" stroke="#f9a825" stroke-width="1.5" points="545.62,-229.75 545.62,-223.75"/>
<polyline fill="none" stroke="#f9a825" stroke-width="1.5" points="551.62,-223.75 545.62,-223.75"/>
<text xml:space="preserve" text-anchor="middle" x="507.62" y="-217.2" font-family="Helvetica,sans-Serif" font-size="9.00">Removes safety</text>
<text xml:space="preserve" text-anchor="middle" x="507.62" y="-206.7" font-family="Helvetica,sans-Serif" font-size="9.00">alignment without</text>
<text xml:space="preserve" text-anchor="middle" x="507.62" y="-196.2" font-family="Helvetica,sans-Serif" font-size="9.00">retraining</text>
</g>
<!-- ablation&#45;&gt;ablation_note -->
<g id="edge4" class="edge">
<title>ablation&#45;&gt;ablation_note</title>
<path fill="none" stroke="#f9a825" stroke-dasharray="5,2" d="M402.03,-141.83C417.04,-153.59 437.13,-168.76 455.75,-181 457.13,-181.91 458.54,-182.82 459.97,-183.72"/>
<polygon fill="#f9a825" stroke="#f9a825" points="457.97,-186.6 468.32,-188.84 461.63,-180.63 457.97,-186.6"/>
</g>
<!-- optuna -->
<g id="node6" class="node">
<title>optuna</title>
<path fill="#e8f4f8" stroke="#2980b9" stroke-width="2" d="M403.62,-401C403.62,-401 351.62,-401 351.62,-401 345.62,-401 339.62,-395 339.62,-389 339.62,-389 339.62,-377 339.62,-377 339.62,-371 345.62,-365 351.62,-365 351.62,-365 403.62,-365 403.62,-365 409.62,-365 415.62,-371 415.62,-377 415.62,-377 415.62,-389 415.62,-389 415.62,-395 409.62,-401 403.62,-401"/>
<text xml:space="preserve" text-anchor="middle" x="377.62" y="-386.05" font-family="Helvetica,sans-Serif" font-size="11.00">Optuna TPE</text>
<text xml:space="preserve" text-anchor="middle" x="377.62" y="-372.55" font-family="Helvetica,sans-Serif" font-size="11.00">Optimizer</text>
</g>
<!-- bayesian_search -->
<g id="node7" class="node">
<title>bayesian_search</title>
<path fill="#f0f7ff" stroke="#5dade2" stroke-width="1.5" d="M537,-315.75C537,-315.75 478.25,-315.75 478.25,-315.75 472.25,-315.75 466.25,-309.75 466.25,-303.75 466.25,-303.75 466.25,-288.25 466.25,-288.25 466.25,-282.25 472.25,-276.25 478.25,-276.25 478.25,-276.25 537,-276.25 537,-276.25 543,-276.25 549,-282.25 549,-288.25 549,-288.25 549,-303.75 549,-303.75 549,-309.75 543,-315.75 537,-315.75"/>
<text xml:space="preserve" text-anchor="middle" x="507.62" y="-303.2" font-family="Helvetica,sans-Serif" font-size="9.00">Bayesian</text>
<text xml:space="preserve" text-anchor="middle" x="507.62" y="-292.7" font-family="Helvetica,sans-Serif" font-size="9.00">Hyperparameter</text>
<text xml:space="preserve" text-anchor="middle" x="507.62" y="-282.2" font-family="Helvetica,sans-Serif" font-size="9.00">Search</text>
</g>
<!-- optuna&#45;&gt;bayesian_search -->
<g id="edge5" class="edge">
<title>optuna&#45;&gt;bayesian_search</title>
<path fill="none" stroke="#2980b9" stroke-width="1.5" d="M402.03,-364.17C417.04,-352.41 437.13,-337.24 455.75,-325 456.99,-324.18 458.26,-323.37 459.54,-322.55"/>
<polygon fill="#2980b9" stroke="#2980b9" stroke-width="1.5" points="460.99,-325.77 467.68,-317.55 457.32,-319.8 460.99,-325.77"/>
</g>
<!-- auto_tune -->
<g id="node8" class="node">
<title>auto_tune</title>
<path fill="#f0f7ff" stroke="#5dade2" stroke-width="1.5" d="M540.75,-373.75C540.75,-373.75 474.5,-373.75 474.5,-373.75 468.5,-373.75 462.5,-367.75 462.5,-361.75 462.5,-361.75 462.5,-346.25 462.5,-346.25 462.5,-340.25 468.5,-334.25 474.5,-334.25 474.5,-334.25 540.75,-334.25 540.75,-334.25 546.75,-334.25 552.75,-340.25 552.75,-346.25 552.75,-346.25 552.75,-361.75 552.75,-361.75 552.75,-367.75 546.75,-373.75 540.75,-373.75"/>
<text xml:space="preserve" text-anchor="middle" x="507.62" y="-361.2" font-family="Helvetica,sans-Serif" font-size="9.00">Automatic</text>
<text xml:space="preserve" text-anchor="middle" x="507.62" y="-350.7" font-family="Helvetica,sans-Serif" font-size="9.00">Parameter Tuning</text>
<text xml:space="preserve" text-anchor="middle" x="507.62" y="-340.2" font-family="Helvetica,sans-Serif" font-size="9.00">No Manual Config</text>
</g>
<!-- optuna&#45;&gt;auto_tune -->
<g id="edge6" class="edge">
<title>optuna&#45;&gt;auto_tune</title>
<path fill="none" stroke="#2980b9" stroke-width="1.5" d="M416.34,-374.46C426.95,-372.05 438.74,-369.38 450.2,-366.78"/>
<polygon fill="#2980b9" stroke="#2980b9" stroke-width="1.5" points="450.76,-370.24 459.74,-364.62 449.22,-363.42 450.76,-370.24"/>
</g>
<!-- lai_2025 -->
<g id="node9" class="node">
<title>lai_2025</title>
<path fill="#f0f7ff" stroke="#5dade2" stroke-width="1.5" d="M529.12,-431.75C529.12,-431.75 486.12,-431.75 486.12,-431.75 480.12,-431.75 474.12,-425.75 474.12,-419.75 474.12,-419.75 474.12,-404.25 474.12,-404.25 474.12,-398.25 480.12,-392.25 486.12,-392.25 486.12,-392.25 529.12,-392.25 529.12,-392.25 535.12,-392.25 541.12,-398.25 541.12,-404.25 541.12,-404.25 541.12,-419.75 541.12,-419.75 541.12,-425.75 535.12,-431.75 529.12,-431.75"/>
<text xml:space="preserve" text-anchor="middle" x="507.62" y="-419.2" font-family="Helvetica,sans-Serif" font-size="9.00">Lai 2025</text>
<text xml:space="preserve" text-anchor="middle" x="507.62" y="-408.7" font-family="Helvetica,sans-Serif" font-size="9.00">TPE&#45;Based</text>
<text xml:space="preserve" text-anchor="middle" x="507.62" y="-398.2" font-family="Helvetica,sans-Serif" font-size="9.00">Optimization</text>
</g>
<!-- optuna&#45;&gt;lai_2025 -->
<g id="edge7" class="edge">
<title>optuna&#45;&gt;lai_2025</title>
<path fill="none" stroke="#2980b9" stroke-width="1.5" d="M416.34,-391.54C430.65,-394.79 447.09,-398.51 461.98,-401.89"/>
<polygon fill="#2980b9" stroke="#2980b9" stroke-width="1.5" points="460.79,-405.2 471.31,-404 462.33,-398.38 460.79,-405.2"/>
</g>
<!-- optuna_note -->
<g id="node10" class="node">
<title>optuna_note</title>
<polygon fill="#fff9c4" stroke="#f9a825" stroke-width="1.5" points="539.25,-486 470,-486 470,-450 545.25,-450 545.25,-480 539.25,-486"/>
<polyline fill="none" stroke="#f9a825" stroke-width="1.5" points="539.25,-486 539.25,-480"/>
<polyline fill="none" stroke="#f9a825" stroke-width="1.5" points="545.25,-480 539.25,-480"/>
<text xml:space="preserve" text-anchor="middle" x="507.62" y="-469.95" font-family="Helvetica,sans-Serif" font-size="9.00">Zero manual</text>
<text xml:space="preserve" text-anchor="middle" x="507.62" y="-459.45" font-family="Helvetica,sans-Serif" font-size="9.00">tuning needed</text>
</g>
<!-- optuna&#45;&gt;optuna_note -->
<g id="edge8" class="edge">
<title>optuna&#45;&gt;optuna_note</title>
<path fill="none" stroke="#f9a825" stroke-dasharray="5,2" d="M401.57,-401.76C416.56,-413.63 436.81,-428.95 455.75,-441 457.15,-441.89 458.58,-442.78 460.03,-443.66"/>
<polygon fill="#f9a825" stroke="#f9a825" points="458.11,-446.59 468.52,-448.6 461.63,-440.54 458.11,-446.59"/>
</g>
<!-- automatic -->
<g id="node11" class="node">
<title>automatic</title>
<path fill="#e8f4f8" stroke="#2980b9" stroke-width="2" d="M397.62,-628C397.62,-628 357.62,-628 357.62,-628 351.62,-628 345.62,-622 345.62,-616 345.62,-616 345.62,-604 345.62,-604 345.62,-598 351.62,-592 357.62,-592 357.62,-592 397.62,-592 397.62,-592 403.62,-592 409.62,-598 409.62,-604 409.62,-604 409.62,-616 409.62,-616 409.62,-622 403.62,-628 397.62,-628"/>
<text xml:space="preserve" text-anchor="middle" x="377.62" y="-613.05" font-family="Helvetica,sans-Serif" font-size="11.00">Fully</text>
<text xml:space="preserve" text-anchor="middle" x="377.62" y="-599.55" font-family="Helvetica,sans-Serif" font-size="11.00">Automatic</text>
</g>
<!-- single_command -->
<g id="node12" class="node">
<title>single_command</title>
<path fill="#f0f7ff" stroke="#5dade2" stroke-width="1.5" d="M539.25,-571.75C539.25,-571.75 476,-571.75 476,-571.75 470,-571.75 464,-565.75 464,-559.75 464,-559.75 464,-544.25 464,-544.25 464,-538.25 470,-532.25 476,-532.25 476,-532.25 539.25,-532.25 539.25,-532.25 545.25,-532.25 551.25,-538.25 551.25,-544.25 551.25,-544.25 551.25,-559.75 551.25,-559.75 551.25,-565.75 545.25,-571.75 539.25,-571.75"/>
<text xml:space="preserve" text-anchor="middle" x="507.62" y="-559.2" font-family="Helvetica,sans-Serif" font-size="9.00">Single Command</text>
<text xml:space="preserve" text-anchor="middle" x="507.62" y="-548.7" font-family="Helvetica,sans-Serif" font-size="9.00">heretic&#45;llm</text>
<text xml:space="preserve" text-anchor="middle" x="507.62" y="-538.2" font-family="Helvetica,sans-Serif" font-size="9.00">model&#45;name</text>
</g>
<!-- automatic&#45;&gt;single_command -->
<g id="edge9" class="edge">
<title>automatic&#45;&gt;single_command</title>
<path fill="none" stroke="#2980b9" stroke-width="1.5" d="M410.59,-595.51C423.34,-589.74 438.37,-582.93 452.71,-576.43"/>
<polygon fill="#2980b9" stroke="#2980b9" stroke-width="1.5" points="453.75,-579.8 461.42,-572.48 450.86,-573.42 453.75,-579.8"/>
</g>
<!-- no_posttrain -->
<g id="node13" class="node">
<title>no_posttrain</title>
<path fill="#f0f7ff" stroke="#5dade2" stroke-width="1.5" d="M538.12,-629.75C538.12,-629.75 477.12,-629.75 477.12,-629.75 471.12,-629.75 465.12,-623.75 465.12,-617.75 465.12,-617.75 465.12,-602.25 465.12,-602.25 465.12,-596.25 471.12,-590.25 477.12,-590.25 477.12,-590.25 538.12,-590.25 538.12,-590.25 544.12,-590.25 550.12,-596.25 550.12,-602.25 550.12,-602.25 550.12,-617.75 550.12,-617.75 550.12,-623.75 544.12,-629.75 538.12,-629.75"/>
<text xml:space="preserve" text-anchor="middle" x="507.62" y="-617.2" font-family="Helvetica,sans-Serif" font-size="9.00">No Post&#45;Training</text>
<text xml:space="preserve" text-anchor="middle" x="507.62" y="-606.7" font-family="Helvetica,sans-Serif" font-size="9.00">Required</text>
<text xml:space="preserve" text-anchor="middle" x="507.62" y="-596.2" font-family="Helvetica,sans-Serif" font-size="9.00">No Fine&#45;Tuning</text>
</g>
<!-- automatic&#45;&gt;no_posttrain -->
<g id="edge10" class="edge">
<title>automatic&#45;&gt;no_posttrain</title>
<path fill="none" stroke="#2980b9" stroke-width="1.5" d="M410.59,-610C423.19,-610 438.03,-610 452.21,-610"/>
<polygon fill="#2980b9" stroke="#2980b9" stroke-width="1.5" points="452.17,-613.5 462.17,-610 452.17,-606.5 452.17,-613.5"/>
</g>
<!-- speed_note -->
<g id="node14" class="node">
<title>speed_note</title>
<polygon fill="#fff9c4" stroke="#f9a825" stroke-width="1.5" points="532.5,-684 476.75,-684 476.75,-648 538.5,-648 538.5,-678 532.5,-684"/>
<polyline fill="none" stroke="#f9a825" stroke-width="1.5" points="532.5,-684 532.5,-678"/>
<polyline fill="none" stroke="#f9a825" stroke-width="1.5" points="538.5,-678 532.5,-678"/>
<text xml:space="preserve" text-anchor="middle" x="507.62" y="-667.95" font-family="Helvetica,sans-Serif" font-size="9.00">~45 min on</text>
<text xml:space="preserve" text-anchor="middle" x="507.62" y="-657.45" font-family="Helvetica,sans-Serif" font-size="9.00">RTX 3090</text>
</g>
<!-- automatic&#45;&gt;speed_note -->
<g id="edge11" class="edge">
<title>automatic&#45;&gt;speed_note</title>
<path fill="none" stroke="#f9a825" stroke-dasharray="5,2" d="M410.59,-623.99C427.35,-631.32 448.06,-640.38 465.95,-648.2"/>
<polygon fill="#f9a825" stroke="#f9a825" points="464.43,-651.36 475,-652.16 467.24,-644.95 464.43,-651.36"/>
</g>
<!-- huggingface -->
<g id="node15" class="node">
<title>huggingface</title>
<path fill="#e8f4f8" stroke="#2980b9" stroke-width="2" d="M405.88,-847C405.88,-847 349.38,-847 349.38,-847 343.38,-847 337.38,-841 337.38,-835 337.38,-835 337.38,-823 337.38,-823 337.38,-817 343.38,-811 349.38,-811 349.38,-811 405.88,-811 405.88,-811 411.88,-811 417.88,-817 417.88,-823 417.88,-823 417.88,-835 417.88,-835 417.88,-841 411.88,-847 405.88,-847"/>
<text xml:space="preserve" text-anchor="middle" x="377.62" y="-832.05" font-family="Helvetica,sans-Serif" font-size="11.00">HuggingFace</text>
<text xml:space="preserve" text-anchor="middle" x="377.62" y="-818.55" font-family="Helvetica,sans-Serif" font-size="11.00">Integration</text>
</g>
<!-- auto_reg -->
<g id="node16" class="node">
<title>auto_reg</title>
<path fill="#f0f7ff" stroke="#5dade2" stroke-width="1.5" d="M547.5,-766C547.5,-766 467.75,-766 467.75,-766 461.75,-766 455.75,-760 455.75,-754 455.75,-754 455.75,-742 455.75,-742 455.75,-736 461.75,-730 467.75,-730 467.75,-730 547.5,-730 547.5,-730 553.5,-730 559.5,-736 559.5,-742 559.5,-742 559.5,-754 559.5,-754 559.5,-760 553.5,-766 547.5,-766"/>
<text xml:space="preserve" text-anchor="middle" x="507.62" y="-749.95" font-family="Helvetica,sans-Serif" font-size="9.00">Auto&#45;Registration</text>
<text xml:space="preserve" text-anchor="middle" x="507.62" y="-739.45" font-family="Helvetica,sans-Serif" font-size="9.00">on HuggingFace Hub</text>
</g>
<!-- huggingface&#45;&gt;auto_reg -->
<g id="edge12" class="edge">
<title>huggingface&#45;&gt;auto_reg</title>
<path fill="none" stroke="#2980b9" stroke-width="1.5" d="M403.8,-810.19C418.63,-799.42 437.91,-785.92 455.75,-775 457.05,-774.21 458.37,-773.41 459.7,-772.62"/>
<polygon fill="#2980b9" stroke="#2980b9" stroke-width="1.5" points="461.27,-775.76 468.22,-767.76 457.8,-769.68 461.27,-775.76"/>
</g>
<!-- community_models -->
<g id="node17" class="node">
<title>community_models</title>
<path fill="#f0f7ff" stroke="#5dade2" stroke-width="1.5" d="M542.25,-820C542.25,-820 473,-820 473,-820 467,-820 461,-814 461,-808 461,-808 461,-796 461,-796 461,-790 467,-784 473,-784 473,-784 542.25,-784 542.25,-784 548.25,-784 554.25,-790 554.25,-796 554.25,-796 554.25,-808 554.25,-808 554.25,-814 548.25,-820 542.25,-820"/>
<text xml:space="preserve" text-anchor="middle" x="507.62" y="-803.95" font-family="Helvetica,sans-Serif" font-size="9.00">1,247+ Community</text>
<text xml:space="preserve" text-anchor="middle" x="507.62" y="-793.45" font-family="Helvetica,sans-Serif" font-size="9.00">Models Published</text>
</g>
<!-- huggingface&#45;&gt;community_models -->
<g id="edge13" class="edge">
<title>huggingface&#45;&gt;community_models</title>
<path fill="none" stroke="#2980b9" stroke-width="1.5" d="M418.77,-820.53C428.26,-818.53 438.56,-816.36 448.66,-814.23"/>
<polygon fill="#2980b9" stroke="#2980b9" stroke-width="1.5" points="449.08,-817.72 458.14,-812.23 447.63,-810.87 449.08,-817.72"/>
</g>
<!-- model_sharing -->
<g id="node18" class="node">
<title>model_sharing</title>
<path fill="#f0f7ff" stroke="#5dade2" stroke-width="1.5" d="M533.62,-874C533.62,-874 481.62,-874 481.62,-874 475.62,-874 469.62,-868 469.62,-862 469.62,-862 469.62,-850 469.62,-850 469.62,-844 475.62,-838 481.62,-838 481.62,-838 533.62,-838 533.62,-838 539.62,-838 545.62,-844 545.62,-850 545.62,-850 545.62,-862 545.62,-862 545.62,-868 539.62,-874 533.62,-874"/>
<text xml:space="preserve" text-anchor="middle" x="507.62" y="-857.95" font-family="Helvetica,sans-Serif" font-size="9.00">Model Sharing</text>
<text xml:space="preserve" text-anchor="middle" x="507.62" y="-847.45" font-family="Helvetica,sans-Serif" font-size="9.00">and Discovery</text>
</g>
<!-- huggingface&#45;&gt;model_sharing -->
<g id="edge14" class="edge">
<title>huggingface&#45;&gt;model_sharing</title>
<path fill="none" stroke="#2980b9" stroke-width="1.5" d="M418.77,-837.47C431,-840.05 444.57,-842.91 457.33,-845.6"/>
<polygon fill="#2980b9" stroke="#2980b9" stroke-width="1.5" points="456.51,-849 467.01,-847.64 457.95,-842.16 456.51,-849"/>
</g>
<!-- hf_note -->
<g id="node19" class="node">
<title>hf_note</title>
<polygon fill="#fff9c4" stroke="#f9a825" stroke-width="1.5" points="552.38,-928 456.88,-928 456.88,-892 558.38,-892 558.38,-922 552.38,-928"/>
<polyline fill="none" stroke="#f9a825" stroke-width="1.5" points="552.38,-928 552.38,-922"/>
<polyline fill="none" stroke="#f9a825" stroke-width="1.5" points="558.38,-922 552.38,-922"/>
<text xml:space="preserve" text-anchor="middle" x="507.62" y="-911.95" font-family="Helvetica,sans-Serif" font-size="9.00">Largest community</text>
<text xml:space="preserve" text-anchor="middle" x="507.62" y="-901.45" font-family="Helvetica,sans-Serif" font-size="9.00">of abliterated models</text>
</g>
<!-- huggingface&#45;&gt;hf_note -->
<g id="edge15" class="edge">
<title>huggingface&#45;&gt;hf_note</title>
<path fill="none" stroke="#f9a825" stroke-dasharray="5,2" d="M403.8,-847.81C418.63,-858.58 437.91,-872.08 455.75,-883 457.33,-883.97 458.95,-884.94 460.6,-885.91"/>
<polygon fill="#f9a825" stroke="#f9a825" points="458.45,-888.71 468.87,-890.61 461.91,-882.63 458.45,-888.71"/>
</g>
<!-- backends -->
<g id="node20" class="node">
<title>backends</title>
<path fill="#e8f4f8" stroke="#2980b9" stroke-width="2" d="M407.75,-1064C407.75,-1064 347.5,-1064 347.5,-1064 341.5,-1064 335.5,-1058 335.5,-1052 335.5,-1052 335.5,-1040 335.5,-1040 335.5,-1034 341.5,-1028 347.5,-1028 347.5,-1028 407.75,-1028 407.75,-1028 413.75,-1028 419.75,-1034 419.75,-1040 419.75,-1040 419.75,-1052 419.75,-1052 419.75,-1058 413.75,-1064 407.75,-1064"/>
<text xml:space="preserve" text-anchor="middle" x="377.62" y="-1049.05" font-family="Helvetica,sans-Serif" font-size="11.00">Multi&#45;Backend</text>
<text xml:space="preserve" text-anchor="middle" x="377.62" y="-1035.55" font-family="Helvetica,sans-Serif" font-size="11.00">Support</text>
</g>
<!-- cuda -->
<g id="node21" class="node">
<title>cuda</title>
<path fill="#f0f7ff" stroke="#5dade2" stroke-width="1.5" d="M540,-1010C540,-1010 475.25,-1010 475.25,-1010 469.25,-1010 463.25,-1004 463.25,-998 463.25,-998 463.25,-986 463.25,-986 463.25,-980 469.25,-974 475.25,-974 475.25,-974 540,-974 540,-974 546,-974 552,-980 552,-986 552,-986 552,-998 552,-998 552,-1004 546,-1010 540,-1010"/>
<text xml:space="preserve" text-anchor="middle" x="507.62" y="-993.95" font-family="Helvetica,sans-Serif" font-size="9.00">NVIDIA CUDA</text>
<text xml:space="preserve" text-anchor="middle" x="507.62" y="-983.45" font-family="Helvetica,sans-Serif" font-size="9.00">GPU Acceleration</text>
</g>
<!-- backends&#45;&gt;cuda -->
<g id="edge16" class="edge">
<title>backends&#45;&gt;cuda</title>
<path fill="none" stroke="#2980b9" stroke-width="1.5" d="M420.54,-1028.32C430.5,-1024.12 441.27,-1019.57 451.71,-1015.17"/>
<polygon fill="#2980b9" stroke="#2980b9" stroke-width="1.5" points="452.92,-1018.46 460.77,-1011.35 450.19,-1012.01 452.92,-1018.46"/>
</g>
<!-- mps -->
<g id="node22" class="node">
<title>mps</title>
<path fill="#f0f7ff" stroke="#5dade2" stroke-width="1.5" d="M542.25,-1064C542.25,-1064 473,-1064 473,-1064 467,-1064 461,-1058 461,-1052 461,-1052 461,-1040 461,-1040 461,-1034 467,-1028 473,-1028 473,-1028 542.25,-1028 542.25,-1028 548.25,-1028 554.25,-1034 554.25,-1040 554.25,-1040 554.25,-1052 554.25,-1052 554.25,-1058 548.25,-1064 542.25,-1064"/>
<text xml:space="preserve" text-anchor="middle" x="507.62" y="-1047.95" font-family="Helvetica,sans-Serif" font-size="9.00">Apple MPS</text>
<text xml:space="preserve" text-anchor="middle" x="507.62" y="-1037.45" font-family="Helvetica,sans-Serif" font-size="9.00">Metal Performance</text>
</g>
<!-- backends&#45;&gt;mps -->
<g id="edge17" class="edge">
<title>backends&#45;&gt;mps</title>
<path fill="none" stroke="#2980b9" stroke-width="1.5" d="M420.54,-1046C429.46,-1046 439.03,-1046 448.44,-1046"/>
<polygon fill="#2980b9" stroke="#2980b9" stroke-width="1.5" points="448.37,-1049.5 458.37,-1046 448.37,-1042.5 448.37,-1049.5"/>
</g>
<!-- cpu -->
<g id="node23" class="node">
<title>cpu</title>
<path fill="#f0f7ff" stroke="#5dade2" stroke-width="1.5" d="M531.75,-1118C531.75,-1118 483.5,-1118 483.5,-1118 477.5,-1118 471.5,-1112 471.5,-1106 471.5,-1106 471.5,-1094 471.5,-1094 471.5,-1088 477.5,-1082 483.5,-1082 483.5,-1082 531.75,-1082 531.75,-1082 537.75,-1082 543.75,-1088 543.75,-1094 543.75,-1094 543.75,-1106 543.75,-1106 543.75,-1112 537.75,-1118 531.75,-1118"/>
<text xml:space="preserve" text-anchor="middle" x="507.62" y="-1101.95" font-family="Helvetica,sans-Serif" font-size="9.00">CPU Fallback</text>
<text xml:space="preserve" text-anchor="middle" x="507.62" y="-1091.45" font-family="Helvetica,sans-Serif" font-size="9.00">Universal</text>
</g>
<!-- backends&#45;&gt;cpu -->
<g id="edge18" class="edge">
<title>backends&#45;&gt;cpu</title>
<path fill="none" stroke="#2980b9" stroke-width="1.5" d="M420.54,-1063.68C433.17,-1069.01 447.11,-1074.89 460.03,-1080.34"/>
<polygon fill="#2980b9" stroke="#2980b9" stroke-width="1.5" points="458.39,-1083.45 468.96,-1084.11 461.11,-1077 458.39,-1083.45"/>
</g>
</g>
</svg>
