<?xml version="1.0" encoding="UTF-8" standalone="no"?>
<!DOCTYPE svg PUBLIC "-//W3C//DTD SVG 1.1//EN"
 "http://www.w3.org/Graphics/SVG/1.1/DTD/svg11.dtd">
<!-- Generated by graphviz version 14.1.2 (0)
 -->
<!-- Title: stash_mcp_integration Pages: 1 -->
<svg width="771pt" height="720pt"
 viewBox="0.00 0.00 771.00 720.00" xmlns="http://www.w3.org/2000/svg" xmlns:xlink="http://www.w3.org/1999/xlink">
<style>
<!-- White text halo for edge label readability -->
text { paint-order: stroke; stroke: #ffffff; stroke-width: 3px; stroke-linejoin: round; fill: #1a1a2e; }
</style>
<g id="graph0" class="graph" transform="scale(1 1) rotate(0) translate(4 716)">
<title>stash_mcp_integration</title>
<polygon fill="white" stroke="none" points="-4,4 -4,-716 767.12,-716 767.12,4 -4,4"/>
<text xml:space="preserve" text-anchor="middle" x="381.56" y="-7.2" font-family="Times New Roman,serif" font-size="14.00">Stash &#45; MCP Integration and Session Protocol</text>
<!-- claude_mcp -->
<g id="node1" class="node">
<title>claude_mcp</title>
<polygon fill="#4caf50" stroke="black" points="93.25,-587.25 0,-587.25 0,-551.25 93.25,-551.25 93.25,-587.25"/>
<text xml:space="preserve" text-anchor="middle" x="46.62" y="-565.55" font-family="Arial" font-size="11.00" fill="white">Claude Desktop</text>
</g>
<!-- mcp_server_int -->
<g id="node5" class="node">
<title>mcp_server_int</title>
<path fill="#2196f3" stroke="black" d="M370,-487C370,-487 311.25,-487 311.25,-487 305.25,-487 299.25,-481 299.25,-475 299.25,-475 299.25,-462.5 299.25,-462.5 299.25,-456.5 305.25,-450.5 311.25,-450.5 311.25,-450.5 370,-450.5 370,-450.5 376,-450.5 382,-456.5 382,-462.5 382,-462.5 382,-475 382,-475 382,-481 376,-487 370,-487"/>
<text xml:space="preserve" text-anchor="middle" x="340.62" y="-471.6" font-family="Arial Bold" font-size="12.00" fill="white">MCP Server</text>
<text xml:space="preserve" text-anchor="middle" x="340.62" y="-457.35" font-family="Arial Bold" font-size="12.00" fill="white">20+ Tools</text>
</g>
<!-- claude_mcp&#45;&gt;mcp_server_int -->
<g id="edge1" class="edge">
<title>claude_mcp&#45;&gt;mcp_server_int</title>
<path fill="none" stroke="#4caf50" stroke-width="2" d="M82.31,-550.77C82.31,-521.69 82.31,-468.5 82.31,-468.5 82.31,-468.5 285.81,-468.5 285.81,-468.5"/>
<polygon fill="#4caf50" stroke="#4caf50" stroke-width="2" points="285.81,-472 295.81,-468.5 285.81,-465 285.81,-472"/>
</g>
<!-- cursor_mcp -->
<g id="node2" class="node">
<title>cursor_mcp</title>
<polygon fill="#4caf50" stroke="black" points="183.62,-587.25 129.62,-587.25 129.62,-551.25 183.62,-551.25 183.62,-587.25"/>
<text xml:space="preserve" text-anchor="middle" x="156.62" y="-565.55" font-family="Arial" font-size="11.00" fill="white">Cursor</text>
</g>
<!-- cursor_mcp&#45;&gt;mcp_server_int -->
<g id="edge2" class="edge">
<title>cursor_mcp&#45;&gt;mcp_server_int</title>
<path fill="none" stroke="#4caf50" stroke-width="2" d="M176.75,-551.12C176.75,-524.38 176.75,-477.5 176.75,-477.5 176.75,-477.5 285.82,-477.5 285.82,-477.5"/>
<polygon fill="#4caf50" stroke="#4caf50" stroke-width="2" points="285.82,-481 295.82,-477.5 285.82,-474 285.82,-481"/>
</g>
<!-- windsurf_mcp -->
<g id="node3" class="node">
<title>windsurf_mcp</title>
<polygon fill="#4caf50" stroke="black" points="278,-587.25 219.25,-587.25 219.25,-551.25 278,-551.25 278,-587.25"/>
<text xml:space="preserve" text-anchor="middle" x="248.62" y="-565.55" font-family="Arial" font-size="11.00" fill="white">Windsurf</text>
</g>
<!-- windsurf_mcp&#45;&gt;mcp_server_int -->
<g id="edge3" class="edge">
<title>windsurf_mcp&#45;&gt;mcp_server_int</title>
<path fill="none" stroke="#4caf50" stroke-width="2" d="M278.21,-569.5C292.43,-569.5 306.44,-569.5 306.44,-569.5 306.44,-569.5 306.44,-500.26 306.44,-500.26"/>
<polygon fill="#4caf50" stroke="#4caf50" stroke-width="2" points="309.94,-500.26 306.44,-490.26 302.94,-500.26 309.94,-500.26"/>
</g>
<!-- cline_mcp -->
<g id="node4" class="node">
<title>cline_mcp</title>
<polygon fill="#4caf50" stroke="black" points="367.62,-587.25 313.62,-587.25 313.62,-551.25 367.62,-551.25 367.62,-587.25"/>
<text xml:space="preserve" text-anchor="middle" x="340.62" y="-565.55" font-family="Arial" font-size="11.00" fill="white">Cline</text>
</g>
<!-- cline_mcp&#45;&gt;mcp_server_int -->
<g id="edge4" class="edge">
<title>cline_mcp&#45;&gt;mcp_server_int</title>
<path fill="none" stroke="#4caf50" stroke-width="2" d="M340.62,-550.82C340.62,-550.82 340.62,-500.43 340.62,-500.43"/>
<polygon fill="#4caf50" stroke="#4caf50" stroke-width="2" points="344.13,-500.43 340.63,-490.43 337.13,-500.43 344.13,-500.43"/>
</g>
<!-- memory_tools -->
<g id="node6" class="node">
<title>memory_tools</title>
<path fill="#ff9800" stroke="black" d="M157.88,-392.5C157.88,-392.5 83.38,-392.5 83.38,-392.5 77.38,-392.5 71.38,-386.5 71.38,-380.5 71.38,-380.5 71.38,-356 71.38,-356 71.38,-350 77.38,-344 83.38,-344 83.38,-344 157.88,-344 157.88,-344 163.88,-344 169.88,-350 169.88,-356 169.88,-356 169.88,-380.5 169.88,-380.5 169.88,-386.5 163.88,-392.5 157.88,-392.5"/>
<text xml:space="preserve" text-anchor="middle" x="120.62" y="-378.05" font-family="Arial" font-size="11.00" fill="white">Memory Tools</text>
<text xml:space="preserve" text-anchor="middle" x="120.62" y="-364.55" font-family="Arial" font-size="11.00" fill="white">remember, recall</text>
<text xml:space="preserve" text-anchor="middle" x="120.62" y="-351.05" font-family="Arial" font-size="11.00" fill="white">consolidate, facts</text>
</g>
<!-- mcp_server_int&#45;&gt;memory_tools -->
<g id="edge5" class="edge">
<title>mcp_server_int&#45;&gt;memory_tools</title>
<path fill="none" stroke="#ff9800" stroke-width="2" d="M299.21,-459.5C243.07,-459.5 149.75,-459.5 149.75,-459.5 149.75,-459.5 149.75,-405.73 149.75,-405.73"/>
<polygon fill="#ff9800" stroke="#ff9800" stroke-width="2" points="153.25,-405.73 149.75,-395.73 146.25,-405.73 153.25,-405.73"/>
</g>
<!-- analysis_tools -->
<g id="node7" class="node">
<title>analysis_tools</title>
<path fill="#ff9800" stroke="black" d="M313,-392.5C313,-392.5 218.25,-392.5 218.25,-392.5 212.25,-392.5 206.25,-386.5 206.25,-380.5 206.25,-380.5 206.25,-356 206.25,-356 206.25,-350 212.25,-344 218.25,-344 218.25,-344 313,-344 313,-344 319,-344 325,-350 325,-356 325,-356 325,-380.5 325,-380.5 325,-386.5 319,-392.5 313,-392.5"/>
<text xml:space="preserve" text-anchor="middle" x="265.62" y="-378.05" font-family="Arial" font-size="11.00" fill="white">Analysis Tools</text>
<text xml:space="preserve" text-anchor="middle" x="265.62" y="-364.55" font-family="Arial" font-size="11.00" fill="white">contradictions, causal</text>
<text xml:space="preserve" text-anchor="middle" x="265.62" y="-351.05" font-family="Arial" font-size="11.00" fill="white">hypothesis, patterns</text>
</g>
<!-- mcp_server_int&#45;&gt;analysis_tools -->
<g id="edge6" class="edge">
<title>mcp_server_int&#45;&gt;analysis_tools</title>
<path fill="none" stroke="#ff9800" stroke-width="2" d="M312.12,-450.32C312.12,-450.32 312.12,-405.66 312.12,-405.66"/>
<polygon fill="#ff9800" stroke="#ff9800" stroke-width="2" points="315.63,-405.66 312.13,-395.66 308.63,-405.66 315.63,-405.66"/>
</g>
<!-- tracking_tools -->
<g id="node8" class="node">
<title>tracking_tools</title>
<path fill="#009688" stroke="black" d="M460.62,-392.5C460.62,-392.5 372.62,-392.5 372.62,-392.5 366.62,-392.5 360.62,-386.5 360.62,-380.5 360.62,-380.5 360.62,-356 360.62,-356 360.62,-350 366.62,-344 372.62,-344 372.62,-344 460.62,-344 460.62,-344 466.62,-344 472.62,-350 472.62,-356 472.62,-356 472.62,-380.5 472.62,-380.5 472.62,-386.5 466.62,-392.5 460.62,-392.5"/>
<text xml:space="preserve" text-anchor="middle" x="416.62" y="-378.05" font-family="Arial" font-size="11.00" fill="white">Tracking Tools</text>
<text xml:space="preserve" text-anchor="middle" x="416.62" y="-364.55" font-family="Arial" font-size="11.00" fill="white">goal, failure</text>
<text xml:space="preserve" text-anchor="middle" x="416.62" y="-351.05" font-family="Arial" font-size="11.00" fill="white">context, namespace</text>
</g>
<!-- mcp_server_int&#45;&gt;tracking_tools -->
<g id="edge7" class="edge">
<title>mcp_server_int&#45;&gt;tracking_tools</title>
<path fill="none" stroke="#ff9800" stroke-width="2" d="M371.31,-450.32C371.31,-450.32 371.31,-405.66 371.31,-405.66"/>
<polygon fill="#ff9800" stroke="#ff9800" stroke-width="2" points="374.81,-405.66 371.31,-395.66 367.81,-405.66 374.81,-405.66"/>
</g>
<!-- step0 -->
<g id="node9" class="node">
<title>step0</title>
<path fill="#00bcd4" stroke="black" d="M579,-392.5C579,-392.5 520.25,-392.5 520.25,-392.5 514.25,-392.5 508.25,-386.5 508.25,-380.5 508.25,-380.5 508.25,-356 508.25,-356 508.25,-350 514.25,-344 520.25,-344 520.25,-344 579,-344 579,-344 585,-344 591,-350 591,-356 591,-356 591,-380.5 591,-380.5 591,-386.5 585,-392.5 579,-392.5"/>
<text xml:space="preserve" text-anchor="middle" x="549.62" y="-378.05" font-family="Arial" font-size="11.00" fill="white">Step 0: Init</text>
<text xml:space="preserve" text-anchor="middle" x="549.62" y="-364.55" font-family="Arial" font-size="11.00" fill="white">Load Context</text>
<text xml:space="preserve" text-anchor="middle" x="549.62" y="-351.05" font-family="Arial" font-size="11.00" fill="white">Restore State</text>
</g>
<!-- mcp_server_int&#45;&gt;step0 -->
<g id="edge12" class="edge">
<title>mcp_server_int&#45;&gt;step0</title>
<path fill="none" stroke="#2196f3" stroke-width="1.5" stroke-dasharray="5,2" d="M382.42,-462.5C443.41,-462.5 549.62,-462.5 549.62,-462.5 549.62,-462.5 549.62,-404.79 549.62,-404.79"/>
<polygon fill="#2196f3" stroke="#2196f3" stroke-width="1.5" points="553.13,-404.79 549.63,-394.79 546.13,-404.79 553.13,-404.79"/>
</g>
<!-- step1 -->
<g id="node10" class="node">
<title>step1</title>
<path fill="#00bcd4" stroke="black" d="M541,-286C541,-286 440.25,-286 440.25,-286 434.25,-286 428.25,-280 428.25,-274 428.25,-274 428.25,-249.5 428.25,-249.5 428.25,-243.5 434.25,-237.5 440.25,-237.5 440.25,-237.5 541,-237.5 541,-237.5 547,-237.5 553,-243.5 553,-249.5 553,-249.5 553,-274 553,-274 553,-280 547,-286 541,-286"/>
<text xml:space="preserve" text-anchor="middle" x="490.62" y="-271.55" font-family="Arial" font-size="11.00" fill="white">Step 1: Session Start</text>
<text xml:space="preserve" text-anchor="middle" x="490.62" y="-258.05" font-family="Arial" font-size="11.00" fill="white">Set Goals</text>
<text xml:space="preserve" text-anchor="middle" x="490.62" y="-244.55" font-family="Arial" font-size="11.00" fill="white">Load Working Memory</text>
</g>
<!-- step0&#45;&gt;step1 -->
<g id="edge8" class="edge">
<title>step0&#45;&gt;step1</title>
<path fill="none" stroke="#00bcd4" stroke-width="2" d="M530.62,-343.55C530.62,-343.55 530.62,-299.34 530.62,-299.34"/>
<polygon fill="#00bcd4" stroke="#00bcd4" stroke-width="2" points="534.13,-299.34 530.63,-289.34 527.13,-299.34 534.13,-299.34"/>
</g>
<!-- step2 -->
<g id="node11" class="node">
<title>step2</title>
<path fill="#00bcd4" stroke="black" d="M538.75,-179.5C538.75,-179.5 448.5,-179.5 448.5,-179.5 442.5,-179.5 436.5,-173.5 436.5,-167.5 436.5,-167.5 436.5,-143 436.5,-143 436.5,-137 442.5,-131 448.5,-131 448.5,-131 538.75,-131 538.75,-131 544.75,-131 550.75,-137 550.75,-143 550.75,-143 550.75,-167.5 550.75,-167.5 550.75,-173.5 544.75,-179.5 538.75,-179.5"/>
<text xml:space="preserve" text-anchor="middle" x="493.62" y="-165.05" font-family="Arial" font-size="11.00" fill="white">Step 2: During Work</text>
<text xml:space="preserve" text-anchor="middle" x="493.62" y="-151.55" font-family="Arial" font-size="11.00" fill="white">Remember + Recall</text>
<text xml:space="preserve" text-anchor="middle" x="493.62" y="-138.05" font-family="Arial" font-size="11.00" fill="white">Update Progress</text>
</g>
<!-- step1&#45;&gt;step2 -->
<g id="edge9" class="edge">
<title>step1&#45;&gt;step2</title>
<path fill="none" stroke="#00bcd4" stroke-width="2" d="M493.62,-237.05C493.62,-237.05 493.62,-192.84 493.62,-192.84"/>
<polygon fill="#00bcd4" stroke="#00bcd4" stroke-width="2" points="497.13,-192.84 493.63,-182.84 490.13,-192.84 497.13,-192.84"/>
</g>
<!-- step3 -->
<g id="node12" class="node">
<title>step3</title>
<path fill="#00bcd4" stroke="black" d="M594.75,-73C594.75,-73 504.5,-73 504.5,-73 498.5,-73 492.5,-67 492.5,-61 492.5,-61 492.5,-36.5 492.5,-36.5 492.5,-30.5 498.5,-24.5 504.5,-24.5 504.5,-24.5 594.75,-24.5 594.75,-24.5 600.75,-24.5 606.75,-30.5 606.75,-36.5 606.75,-36.5 606.75,-61 606.75,-61 606.75,-67 600.75,-73 594.75,-73"/>
<text xml:space="preserve" text-anchor="middle" x="549.62" y="-58.55" font-family="Arial" font-size="11.00" fill="white">Step 3: Session End</text>
<text xml:space="preserve" text-anchor="middle" x="549.62" y="-45.05" font-family="Arial" font-size="11.00" fill="white">Consolidate</text>
<text xml:space="preserve" text-anchor="middle" x="549.62" y="-31.55" font-family="Arial" font-size="11.00" fill="white">Save Checkpoint</text>
</g>
<!-- step2&#45;&gt;step3 -->
<g id="edge10" class="edge">
<title>step2&#45;&gt;step3</title>
<path fill="none" stroke="#00bcd4" stroke-width="2" d="M521.62,-130.55C521.62,-130.55 521.62,-86.34 521.62,-86.34"/>
<polygon fill="#00bcd4" stroke="#00bcd4" stroke-width="2" points="525.13,-86.34 521.63,-76.34 518.13,-86.34 525.13,-86.34"/>
</g>
<!-- step3&#45;&gt;step0 -->
<g id="edge11" class="edge">
<title>step3&#45;&gt;step0</title>
<path fill="none" stroke="#00bcd4" stroke-width="1.5" stroke-dasharray="5,2" d="M572,-73.29C572,-73.29 572,-331.36 572,-331.36"/>
<polygon fill="#00bcd4" stroke="#00bcd4" stroke-width="1.5" points="568.5,-331.36 572,-341.36 575.5,-331.36 568.5,-331.36"/>
<text xml:space="preserve" text-anchor="middle" x="536.38" y="-205.52" font-family="Times New Roman,serif" font-size="14.00">Next Session</text>
</g>
<!-- embedder_int -->
<g id="node13" class="node">
<title>embedder_int</title>
<path fill="#3f51b5" stroke="black" d="M593.88,-593.5C593.88,-593.5 489.38,-593.5 489.38,-593.5 483.38,-593.5 477.38,-587.5 477.38,-581.5 477.38,-581.5 477.38,-557 477.38,-557 477.38,-551 483.38,-545 489.38,-545 489.38,-545 593.88,-545 593.88,-545 599.88,-545 605.88,-551 605.88,-557 605.88,-557 605.88,-581.5 605.88,-581.5 605.88,-587.5 599.88,-593.5 593.88,-593.5"/>
<text xml:space="preserve" text-anchor="middle" x="541.62" y="-579.05" font-family="Arial" font-size="11.00" fill="white">Embedder Interface</text>
<text xml:space="preserve" text-anchor="middle" x="541.62" y="-565.55" font-family="Arial" font-size="11.00" fill="white">OpenAI&#45;Compatible</text>
<text xml:space="preserve" text-anchor="middle" x="541.62" y="-552.05" font-family="Arial" font-size="11.00" fill="white">text&#45;embedding&#45;3&#45;small</text>
</g>
<!-- embedder_int&#45;&gt;mcp_server_int -->
<g id="edge13" class="edge">
<title>embedder_int&#45;&gt;mcp_server_int</title>
<path fill="none" stroke="#3f51b5" stroke-width="1.5" d="M477.12,-569.5C431.05,-569.5 377.21,-569.5 377.21,-569.5 377.21,-569.5 377.21,-499.5 377.21,-499.5"/>
<polygon fill="#3f51b5" stroke="#3f51b5" stroke-width="1.5" points="380.71,-499.5 377.21,-489.5 373.71,-499.5 380.71,-499.5"/>
</g>
<!-- reasoner_int -->
<g id="node14" class="node">
<title>reasoner_int</title>
<path fill="#3f51b5" stroke="black" d="M751.12,-593.5C751.12,-593.5 654.12,-593.5 654.12,-593.5 648.12,-593.5 642.12,-587.5 642.12,-581.5 642.12,-581.5 642.12,-557 642.12,-557 642.12,-551 648.12,-545 654.12,-545 654.12,-545 751.12,-545 751.12,-545 757.12,-545 763.12,-551 763.12,-557 763.12,-557 763.12,-581.5 763.12,-581.5 763.12,-587.5 757.12,-593.5 751.12,-593.5"/>
<text xml:space="preserve" text-anchor="middle" x="702.62" y="-579.05" font-family="Arial" font-size="11.00" fill="white">Reasoner Interface</text>
<text xml:space="preserve" text-anchor="middle" x="702.62" y="-565.55" font-family="Arial" font-size="11.00" fill="white">OpenAI&#45;Compatible</text>
<text xml:space="preserve" text-anchor="middle" x="702.62" y="-552.05" font-family="Arial" font-size="11.00" fill="white">7 Reasoning Methods</text>
</g>
<!-- reasoner_int&#45;&gt;mcp_server_int -->
<g id="edge14" class="edge">
<title>reasoner_int&#45;&gt;mcp_server_int</title>
<path fill="none" stroke="#3f51b5" stroke-width="1.5" d="M702.62,-544.85C702.62,-516.78 702.62,-474.5 702.62,-474.5 702.62,-474.5 394.42,-474.5 394.42,-474.5"/>
<polygon fill="#3f51b5" stroke="#3f51b5" stroke-width="1.5" points="394.42,-471 384.42,-474.5 394.42,-478 394.42,-471"/>
</g>
<!-- docker -->
<g id="node15" class="node">
<title>docker</title>
<path fill="#9c27b0" stroke="black" d="M590.88,-706.5C590.88,-709.53 568.8,-712 541.62,-712 514.45,-712 492.38,-709.53 492.38,-706.5 492.38,-706.5 492.38,-657 492.38,-657 492.38,-653.97 514.45,-651.5 541.62,-651.5 568.8,-651.5 590.88,-653.97 590.88,-657 590.88,-657 590.88,-706.5 590.88,-706.5"/>
<path fill="none" stroke="black" d="M590.88,-706.5C590.88,-703.47 568.8,-701 541.62,-701 514.45,-701 492.38,-703.47 492.38,-706.5"/>
<text xml:space="preserve" text-anchor="middle" x="541.62" y="-690.25" font-family="Arial" font-size="10.00" fill="white">Docker Compose</text>
<text xml:space="preserve" text-anchor="middle" x="541.62" y="-678.25" font-family="Arial" font-size="10.00" fill="white">pgvector Container</text>
<text xml:space="preserve" text-anchor="middle" x="541.62" y="-666.25" font-family="Arial" font-size="10.00" fill="white">+ Stash Container</text>
</g>
<!-- docker&#45;&gt;mcp_server_int -->
<g id="edge15" class="edge">
<title>docker&#45;&gt;mcp_server_int</title>
<path fill="none" stroke="#9c27b0" stroke-width="2" d="M492.23,-681.5C442.28,-681.5 372.42,-681.5 372.42,-681.5 372.42,-681.5 372.42,-500.29 372.42,-500.29"/>
<polygon fill="#9c27b0" stroke="#9c27b0" stroke-width="2" points="375.92,-500.29 372.42,-490.29 368.92,-500.29 375.92,-500.29"/>
<text xml:space="preserve" text-anchor="middle" x="357.04" y="-654" font-family="Times New Roman,serif" font-size="14.00">Hosts</text>
</g>
<!-- docker&#45;&gt;embedder_int -->
<g id="edge16" class="edge">
<title>docker&#45;&gt;embedder_int</title>
<path fill="none" stroke="#9c27b0" stroke-width="1.5" stroke-dasharray="5,2" d="M541.62,-651.01C541.62,-651.01 541.62,-606.17 541.62,-606.17"/>
<polygon fill="#9c27b0" stroke="#9c27b0" stroke-width="1.5" points="545.13,-606.17 541.63,-596.17 538.13,-606.17 545.13,-606.17"/>
</g>
<!-- docker&#45;&gt;reasoner_int -->
<g id="edge17" class="edge">
<title>docker&#45;&gt;reasoner_int</title>
<path fill="none" stroke="#9c27b0" stroke-width="1.5" stroke-dasharray="5,2" d="M591.24,-681.5C638.55,-681.5 702.62,-681.5 702.62,-681.5 702.62,-681.5 702.62,-606.15 702.62,-606.15"/>
<polygon fill="#9c27b0" stroke="#9c27b0" stroke-width="1.5" points="706.13,-606.15 702.63,-596.15 699.13,-606.15 706.13,-606.15"/>
</g>
</g>
</svg>
