<?xml version="1.0" encoding="UTF-8" standalone="no"?>
<!DOCTYPE svg PUBLIC "-//W3C//DTD SVG 1.1//EN"
 "http://www.w3.org/Graphics/SVG/1.1/DTD/svg11.dtd">
<!-- Generated by graphviz version 14.1.4 (20260321.0153)
 -->
<!-- Title: hs_monad Pages: 1 -->
<svg width="997pt" height="402pt"
 viewBox="0.00 0.00 997.00 402.00" xmlns="http://www.w3.org/2000/svg" xmlns:xlink="http://www.w3.org/1999/xlink">
<style>
text { paint-order: stroke; stroke: #ffffff; stroke-width: 3px; stroke-linejoin: round; fill: #1a1a2e; }
</style>
<g id="graph0" class="graph" transform="scale(1 1) rotate(0) translate(4 398.25)">
<title>hs_monad</title>
<polygon fill="white" stroke="none" points="-4,4 -4,-398.25 993,-398.25 993,4 -4,4"/>
<text xml:space="preserve" text-anchor="middle" x="494.5" y="-7.2" font-family="Times New Roman,serif" font-size="14.00">Haskell Monads &#45; IO, Maybe, Either, List, Transformers</text>
<!-- title -->
<g id="node1" class="node">
<title>title</title>
<path fill="#1565c0" stroke="black" d="M443.25,-394.25C443.25,-394.25 332.75,-394.25 332.75,-394.25 326.75,-394.25 320.75,-388.25 320.75,-382.25 320.75,-382.25 320.75,-370.25 320.75,-370.25 320.75,-364.25 326.75,-358.25 332.75,-358.25 332.75,-358.25 443.25,-358.25 443.25,-358.25 449.25,-358.25 455.25,-364.25 455.25,-370.25 455.25,-370.25 455.25,-382.25 455.25,-382.25 455.25,-388.25 449.25,-394.25 443.25,-394.25"/>
<text xml:space="preserve" text-anchor="middle" x="388" y="-370.82" font-family="Arial Bold" font-size="14.00" fill="#ffffff">Monads in Haskell</text>
</g>
<!-- defn -->
<g id="node2" class="node">
<title>defn</title>
<path fill="#2196f3" stroke="black" d="M467.62,-300.25C467.62,-300.25 308.38,-300.25 308.38,-300.25 302.38,-300.25 296.38,-294.25 296.38,-288.25 296.38,-288.25 296.38,-247.25 296.38,-247.25 296.38,-241.25 302.38,-235.25 308.38,-235.25 308.38,-235.25 467.62,-235.25 467.62,-235.25 473.62,-235.25 479.62,-241.25 479.62,-247.25 479.62,-247.25 479.62,-288.25 479.62,-288.25 479.62,-294.25 473.62,-300.25 467.62,-300.25"/>
<text xml:space="preserve" text-anchor="middle" x="388" y="-284.85" font-family="Arial Bold" font-size="12.00" fill="#ffffff">class Monad m where</text>
<text xml:space="preserve" text-anchor="middle" x="388" y="-270.6" font-family="Arial Bold" font-size="12.00" fill="#ffffff">return :: a &#45;&gt; m a</text>
<text xml:space="preserve" text-anchor="middle" x="388" y="-256.35" font-family="Arial Bold" font-size="12.00" fill="#ffffff">(&gt;&gt;=) :: m a &#45;&gt; (a &#45;&gt; m b) &#45;&gt; m b</text>
<text xml:space="preserve" text-anchor="middle" x="388" y="-242.1" font-family="Arial Bold" font-size="12.00" fill="#ffffff">(&gt;&gt;) :: m a &#45;&gt; m b &#45;&gt; m b</text>
</g>
<!-- title&#45;&gt;defn -->
<g id="edge1" class="edge">
<title>title&#45;&gt;defn</title>
<path fill="none" stroke="#2196f3" stroke-width="2" d="M388,-357.84C388,-357.84 388,-313.34 388,-313.34"/>
<polygon fill="#2196f3" stroke="#2196f3" stroke-width="2" points="391.5,-313.34 388,-303.34 384.5,-313.34 391.5,-313.34"/>
</g>
<!-- io -->
<g id="node3" class="node">
<title>io</title>
<path fill="#2196f3" stroke="black" d="M160,-176.12C160,-176.12 12,-176.12 12,-176.12 6,-176.12 0,-170.12 0,-164.12 0,-164.12 0,-139.62 0,-139.62 0,-133.62 6,-127.62 12,-127.62 12,-127.62 160,-127.62 160,-127.62 166,-127.62 172,-133.62 172,-139.62 172,-139.62 172,-164.12 172,-164.12 172,-170.12 166,-176.12 160,-176.12"/>
<text xml:space="preserve" text-anchor="middle" x="86" y="-161.68" font-family="Arial Bold" font-size="11.00" fill="#ffffff">IO a</text>
<text xml:space="preserve" text-anchor="middle" x="86" y="-148.18" font-family="Arial Bold" font-size="11.00" fill="#ffffff">side effects (console, file, net)</text>
<text xml:space="preserve" text-anchor="middle" x="86" y="-134.68" font-family="Arial Bold" font-size="11.00" fill="#ffffff">main :: IO ()</text>
</g>
<!-- defn&#45;&gt;io -->
<g id="edge2" class="edge">
<title>defn&#45;&gt;io</title>
<path fill="none" stroke="#4caf50" stroke-width="2" d="M296.16,-267.5C207.31,-267.5 86,-267.5 86,-267.5 86,-267.5 86,-189.42 86,-189.42"/>
<polygon fill="#4caf50" stroke="#4caf50" stroke-width="2" points="89.5,-189.42 86,-179.42 82.5,-189.42 89.5,-189.42"/>
</g>
<!-- may -->
<g id="node4" class="node">
<title>may</title>
<path fill="#2196f3" stroke="black" d="M294.25,-176.12C294.25,-176.12 219.75,-176.12 219.75,-176.12 213.75,-176.12 207.75,-170.12 207.75,-164.12 207.75,-164.12 207.75,-139.62 207.75,-139.62 207.75,-133.62 213.75,-127.62 219.75,-127.62 219.75,-127.62 294.25,-127.62 294.25,-127.62 300.25,-127.62 306.25,-133.62 306.25,-139.62 306.25,-139.62 306.25,-164.12 306.25,-164.12 306.25,-170.12 300.25,-176.12 294.25,-176.12"/>
<text xml:space="preserve" text-anchor="middle" x="257" y="-161.68" font-family="Arial Bold" font-size="11.00" fill="#ffffff">Maybe a</text>
<text xml:space="preserve" text-anchor="middle" x="257" y="-148.18" font-family="Arial Bold" font-size="11.00" fill="#ffffff">Nothing | Just a</text>
<text xml:space="preserve" text-anchor="middle" x="257" y="-134.68" font-family="Arial Bold" font-size="11.00" fill="#ffffff">safe null</text>
</g>
<!-- defn&#45;&gt;may -->
<g id="edge3" class="edge">
<title>defn&#45;&gt;may</title>
<path fill="none" stroke="#00bcd4" stroke-width="2" d="M301.31,-234.85C301.31,-234.85 301.31,-189.4 301.31,-189.4"/>
<polygon fill="#00bcd4" stroke="#00bcd4" stroke-width="2" points="304.81,-189.4 301.31,-179.4 297.81,-189.4 304.81,-189.4"/>
</g>
<!-- eit -->
<g id="node5" class="node">
<title>eit</title>
<path fill="#2196f3" stroke="black" d="M421.88,-176.12C421.88,-176.12 354.12,-176.12 354.12,-176.12 348.12,-176.12 342.12,-170.12 342.12,-164.12 342.12,-164.12 342.12,-139.62 342.12,-139.62 342.12,-133.62 348.12,-127.62 354.12,-127.62 354.12,-127.62 421.88,-127.62 421.88,-127.62 427.88,-127.62 433.88,-133.62 433.88,-139.62 433.88,-139.62 433.88,-164.12 433.88,-164.12 433.88,-170.12 427.88,-176.12 421.88,-176.12"/>
<text xml:space="preserve" text-anchor="middle" x="388" y="-161.68" font-family="Arial Bold" font-size="11.00" fill="#ffffff">Either e a</text>
<text xml:space="preserve" text-anchor="middle" x="388" y="-148.18" font-family="Arial Bold" font-size="11.00" fill="#ffffff">Left e | Right a</text>
<text xml:space="preserve" text-anchor="middle" x="388" y="-134.68" font-family="Arial Bold" font-size="11.00" fill="#ffffff">typed errors</text>
</g>
<!-- defn&#45;&gt;eit -->
<g id="edge4" class="edge">
<title>defn&#45;&gt;eit</title>
<path fill="none" stroke="#ff9800" stroke-width="2" d="M388,-234.85C388,-234.85 388,-189.4 388,-189.4"/>
<polygon fill="#ff9800" stroke="#ff9800" stroke-width="2" points="391.5,-189.4 388,-179.4 384.5,-189.4 391.5,-189.4"/>
</g>
<!-- lst -->
<g id="node6" class="node">
<title>lst</title>
<path fill="#2196f3" stroke="black" d="M649.75,-176.12C649.75,-176.12 482.25,-176.12 482.25,-176.12 476.25,-176.12 470.25,-170.12 470.25,-164.12 470.25,-164.12 470.25,-139.62 470.25,-139.62 470.25,-133.62 476.25,-127.62 482.25,-127.62 482.25,-127.62 649.75,-127.62 649.75,-127.62 655.75,-127.62 661.75,-133.62 661.75,-139.62 661.75,-139.62 661.75,-164.12 661.75,-164.12 661.75,-170.12 655.75,-176.12 649.75,-176.12"/>
<text xml:space="preserve" text-anchor="middle" x="566" y="-161.68" font-family="Arial Bold" font-size="11.00" fill="#ffffff">[a]</text>
<text xml:space="preserve" text-anchor="middle" x="566" y="-148.18" font-family="Arial Bold" font-size="11.00" fill="#ffffff">nondeterminism / multiple results</text>
<text xml:space="preserve" text-anchor="middle" x="566" y="-134.68" font-family="Arial Bold" font-size="11.00" fill="#ffffff">list comprehension</text>
</g>
<!-- defn&#45;&gt;lst -->
<g id="edge5" class="edge">
<title>defn&#45;&gt;lst</title>
<path fill="none" stroke="#9c27b0" stroke-width="2" d="M474.94,-234.85C474.94,-234.85 474.94,-189.4 474.94,-189.4"/>
<polygon fill="#9c27b0" stroke="#9c27b0" stroke-width="2" points="478.44,-189.4 474.94,-179.4 471.44,-189.4 478.44,-189.4"/>
</g>
<!-- do -->
<g id="node7" class="node">
<title>do</title>
<path fill="#2196f3" stroke="black" d="M910.25,-177.25C910.25,-177.25 709.75,-177.25 709.75,-177.25 703.75,-177.25 697.75,-171.25 697.75,-165.25 697.75,-165.25 697.75,-138.5 697.75,-138.5 697.75,-132.5 703.75,-126.5 709.75,-126.5 709.75,-126.5 910.25,-126.5 910.25,-126.5 916.25,-126.5 922.25,-132.5 922.25,-138.5 922.25,-138.5 922.25,-165.25 922.25,-165.25 922.25,-171.25 916.25,-177.25 910.25,-177.25"/>
<text xml:space="preserve" text-anchor="middle" x="810" y="-161.85" font-family="Arial Bold" font-size="12.00" fill="#ffffff">do&#45;notation</text>
<text xml:space="preserve" text-anchor="middle" x="810" y="-147.6" font-family="Arial Bold" font-size="12.00" fill="#ffffff"> do { x &lt;&#45; act; y &lt;&#45; other; return (x+y) }</text>
<text xml:space="preserve" text-anchor="middle" x="810" y="-133.35" font-family="Arial Bold" font-size="12.00" fill="#ffffff">sugar for (&gt;&gt;=) chains</text>
</g>
<!-- defn&#45;&gt;do -->
<g id="edge6" class="edge">
<title>defn&#45;&gt;do</title>
<path fill="none" stroke="#f44336" stroke-width="2" d="M480.09,-267.5C604.26,-267.5 810,-267.5 810,-267.5 810,-267.5 810,-190.56 810,-190.56"/>
<polygon fill="#f44336" stroke="#f44336" stroke-width="2" points="813.5,-190.56 810,-180.56 806.5,-190.56 813.5,-190.56"/>
</g>
<!-- tr -->
<g id="node8" class="node">
<title>tr</title>
<path fill="#bbdefb" stroke="black" d="M781.25,-68.5C781.25,-68.5 640.75,-68.5 640.75,-68.5 634.75,-68.5 628.75,-62.5 628.75,-56.5 628.75,-56.5 628.75,-36.5 628.75,-36.5 628.75,-30.5 634.75,-24.5 640.75,-24.5 640.75,-24.5 781.25,-24.5 781.25,-24.5 787.25,-24.5 793.25,-30.5 793.25,-36.5 793.25,-36.5 793.25,-56.5 793.25,-56.5 793.25,-62.5 787.25,-68.5 781.25,-68.5"/>
<text xml:space="preserve" text-anchor="middle" x="711" y="-55" font-family="Arial" font-size="10.00" fill="#1a1a2e">Monad Transformers</text>
<text xml:space="preserve" text-anchor="middle" x="711" y="-43" font-family="Arial" font-size="10.00" fill="#1a1a2e">ReaderT, StateT, ExceptT</text>
<text xml:space="preserve" text-anchor="middle" x="711" y="-31" font-family="Arial" font-size="10.00" fill="#1a1a2e">stack effects: ReaderT (State s) a</text>
</g>
<!-- do&#45;&gt;tr -->
<g id="edge7" class="edge">
<title>do&#45;&gt;tr</title>
<path fill="none" stroke="#9c27b0" stroke-width="1.5" stroke-dasharray="5,2" d="M745.5,-126.1C745.5,-126.1 745.5,-81.07 745.5,-81.07"/>
<polygon fill="#9c27b0" stroke="#9c27b0" stroke-width="1.5" points="749,-81.07 745.5,-71.07 742,-81.07 749,-81.07"/>
</g>
<!-- out -->
<g id="node9" class="node">
<title>out</title>
<polygon fill="#ff9800" stroke="black" points="989,-64.5 829,-64.5 829,-28.5 989,-28.5 989,-64.5"/>
<text xml:space="preserve" text-anchor="middle" x="909" y="-49.55" font-family="Arial" font-size="11.00" fill="#ffffff">Composable effects</text>
<text xml:space="preserve" text-anchor="middle" x="909" y="-36.05" font-family="Arial" font-size="11.00" fill="#ffffff">one interface, many meanings</text>
</g>
<!-- do&#45;&gt;out -->
<g id="edge8" class="edge">
<title>do&#45;&gt;out</title>
<path fill="none" stroke="#ff9800" stroke-width="2" d="M875.62,-126.1C875.62,-126.1 875.62,-77.77 875.62,-77.77"/>
<polygon fill="#ff9800" stroke="#ff9800" stroke-width="2" points="879.13,-77.77 875.63,-67.77 872.13,-77.77 879.13,-77.77"/>
</g>
</g>
</svg>
