<?xml version="1.0" encoding="UTF-8" standalone="no"?>
<!DOCTYPE svg PUBLIC "-//W3C//DTD SVG 1.1//EN"
 "http://www.w3.org/Graphics/SVG/1.1/DTD/svg11.dtd">
<!-- Generated by graphviz version 14.1.4 (20260321.0153)
 -->
<!-- Title: hs_types Pages: 1 -->
<svg width="925pt" height="309pt"
 viewBox="0.00 0.00 925.00 309.00" xmlns="http://www.w3.org/2000/svg" xmlns:xlink="http://www.w3.org/1999/xlink">
<style>
text { paint-order: stroke; stroke: #ffffff; stroke-width: 3px; stroke-linejoin: round; fill: #1a1a2e; }
</style>
<g id="graph0" class="graph" transform="scale(1 1) rotate(0) translate(4 304.5)">
<title>hs_types</title>
<polygon fill="white" stroke="none" points="-4,4 -4,-304.5 920.88,-304.5 920.88,4 -4,4"/>
<text xml:space="preserve" text-anchor="middle" x="458.44" y="-7.2" font-family="Times New Roman,serif" font-size="14.00">Haskell Type System &#45; ADTs, Typeclasses, Kinds</text>
<!-- title -->
<g id="node1" class="node">
<title>title</title>
<path fill="#1565c0" stroke="black" d="M536.62,-300.5C536.62,-300.5 455.38,-300.5 455.38,-300.5 449.38,-300.5 443.38,-294.5 443.38,-288.5 443.38,-288.5 443.38,-276.5 443.38,-276.5 443.38,-270.5 449.38,-264.5 455.38,-264.5 455.38,-264.5 536.62,-264.5 536.62,-264.5 542.62,-264.5 548.62,-270.5 548.62,-276.5 548.62,-276.5 548.62,-288.5 548.62,-288.5 548.62,-294.5 542.62,-300.5 536.62,-300.5"/>
<text xml:space="preserve" text-anchor="middle" x="496" y="-277.07" font-family="Arial Bold" font-size="14.00" fill="#ffffff">Haskell Types</text>
</g>
<!-- adt -->
<g id="node2" class="node">
<title>adt</title>
<path fill="#2196f3" stroke="black" d="M226,-199.75C226,-199.75 12,-199.75 12,-199.75 6,-199.75 0,-193.75 0,-187.75 0,-187.75 0,-149.75 0,-149.75 0,-143.75 6,-137.75 12,-137.75 12,-137.75 226,-137.75 226,-137.75 232,-137.75 238,-143.75 238,-149.75 238,-149.75 238,-187.75 238,-187.75 238,-193.75 232,-199.75 226,-199.75"/>
<text xml:space="preserve" text-anchor="middle" x="119" y="-185.3" font-family="Arial Bold" font-size="11.00" fill="#ffffff">ADTs</text>
<text xml:space="preserve" text-anchor="middle" x="119" y="-171.8" font-family="Arial Bold" font-size="11.00" fill="#ffffff">data Maybe a = Nothing | Just a</text>
<text xml:space="preserve" text-anchor="middle" x="119" y="-158.3" font-family="Arial Bold" font-size="11.00" fill="#ffffff">data Tree a = Leaf | Node (Tree a) a (Tree a)</text>
<text xml:space="preserve" text-anchor="middle" x="119" y="-144.8" font-family="Arial Bold" font-size="11.00" fill="#ffffff">sum + product</text>
</g>
<!-- title&#45;&gt;adt -->
<g id="edge1" class="edge">
<title>title&#45;&gt;adt</title>
<path fill="none" stroke="#4caf50" stroke-width="2" d="M443.18,-282.5C339.43,-282.5 119,-282.5 119,-282.5 119,-282.5 119,-213.16 119,-213.16"/>
<polygon fill="#4caf50" stroke="#4caf50" stroke-width="2" points="122.5,-213.16 119,-203.16 115.5,-213.16 122.5,-213.16"/>
</g>
<!-- tc -->
<g id="node3" class="node">
<title>tc</title>
<path fill="#2196f3" stroke="black" d="M473.5,-199.75C473.5,-199.75 286.5,-199.75 286.5,-199.75 280.5,-199.75 274.5,-193.75 274.5,-187.75 274.5,-187.75 274.5,-149.75 274.5,-149.75 274.5,-143.75 280.5,-137.75 286.5,-137.75 286.5,-137.75 473.5,-137.75 473.5,-137.75 479.5,-137.75 485.5,-143.75 485.5,-149.75 485.5,-149.75 485.5,-187.75 485.5,-187.75 485.5,-193.75 479.5,-199.75 473.5,-199.75"/>
<text xml:space="preserve" text-anchor="middle" x="380" y="-185.3" font-family="Arial Bold" font-size="11.00" fill="#ffffff">Typeclasses</text>
<text xml:space="preserve" text-anchor="middle" x="380" y="-171.8" font-family="Arial Bold" font-size="11.00" fill="#ffffff">class Eq a where (==) :: a &#45;&gt; a &#45;&gt; Bool</text>
<text xml:space="preserve" text-anchor="middle" x="380" y="-158.3" font-family="Arial Bold" font-size="11.00" fill="#ffffff">instance Eq Int where ...</text>
<text xml:space="preserve" text-anchor="middle" x="380" y="-144.8" font-family="Arial Bold" font-size="11.00" fill="#ffffff">deriving (Eq, Show)</text>
</g>
<!-- title&#45;&gt;tc -->
<g id="edge2" class="edge">
<title>title&#45;&gt;tc</title>
<path fill="none" stroke="#00bcd4" stroke-width="2" d="M464.44,-264.22C464.44,-264.22 464.44,-212.88 464.44,-212.88"/>
<polygon fill="#00bcd4" stroke="#00bcd4" stroke-width="2" points="467.94,-212.88 464.44,-202.88 460.94,-212.88 467.94,-212.88"/>
</g>
<!-- poly -->
<g id="node4" class="node">
<title>poly</title>
<path fill="#2196f3" stroke="black" d="M692.62,-199.75C692.62,-199.75 533.38,-199.75 533.38,-199.75 527.38,-199.75 521.38,-193.75 521.38,-187.75 521.38,-187.75 521.38,-149.75 521.38,-149.75 521.38,-143.75 527.38,-137.75 533.38,-137.75 533.38,-137.75 692.62,-137.75 692.62,-137.75 698.62,-137.75 704.62,-143.75 704.62,-149.75 704.62,-149.75 704.62,-187.75 704.62,-187.75 704.62,-193.75 698.62,-199.75 692.62,-199.75"/>
<text xml:space="preserve" text-anchor="middle" x="613" y="-185.3" font-family="Arial Bold" font-size="11.00" fill="#ffffff">Polymorphism</text>
<text xml:space="preserve" text-anchor="middle" x="613" y="-171.8" font-family="Arial Bold" font-size="11.00" fill="#ffffff">parametric: f :: a &#45;&gt; a</text>
<text xml:space="preserve" text-anchor="middle" x="613" y="-158.3" font-family="Arial Bold" font-size="11.00" fill="#ffffff">ad&#45;hoc: f :: Eq a =&gt; a &#45;&gt; a</text>
<text xml:space="preserve" text-anchor="middle" x="613" y="-144.8" font-family="Arial Bold" font-size="11.00" fill="#ffffff">rank&#45;N: f :: (forall a. a &#45;&gt; a) &#45;&gt; Int</text>
</g>
<!-- title&#45;&gt;poly -->
<g id="edge3" class="edge">
<title>title&#45;&gt;poly</title>
<path fill="none" stroke="#ff9800" stroke-width="2" d="M535,-264.22C535,-264.22 535,-212.88 535,-212.88"/>
<polygon fill="#ff9800" stroke="#ff9800" stroke-width="2" points="538.5,-212.88 535,-202.88 531.5,-212.88 538.5,-212.88"/>
</g>
<!-- kind -->
<g id="node5" class="node">
<title>kind</title>
<path fill="#2196f3" stroke="black" d="M904.88,-206.5C904.88,-206.5 753.12,-206.5 753.12,-206.5 747.12,-206.5 741.12,-200.5 741.12,-194.5 741.12,-194.5 741.12,-143 741.12,-143 741.12,-137 747.12,-131 753.12,-131 753.12,-131 904.88,-131 904.88,-131 910.88,-131 916.88,-137 916.88,-143 916.88,-143 916.88,-194.5 916.88,-194.5 916.88,-200.5 910.88,-206.5 904.88,-206.5"/>
<text xml:space="preserve" text-anchor="middle" x="829" y="-192.05" font-family="Arial Bold" font-size="11.00" fill="#ffffff">Kinds</text>
<text xml:space="preserve" text-anchor="middle" x="829" y="-178.55" font-family="Arial Bold" font-size="11.00" fill="#ffffff">* (concrete type)</text>
<text xml:space="preserve" text-anchor="middle" x="829" y="-165.05" font-family="Arial Bold" font-size="11.00" fill="#ffffff">* &#45;&gt; * (type constructor)</text>
<text xml:space="preserve" text-anchor="middle" x="829" y="-151.55" font-family="Arial Bold" font-size="11.00" fill="#ffffff">Functor :: (* &#45;&gt; *) &#45;&gt; Constraint</text>
<text xml:space="preserve" text-anchor="middle" x="829" y="-138.05" font-family="Arial Bold" font-size="11.00" fill="#ffffff">Higher&#45;kinded polymorphism</text>
</g>
<!-- title&#45;&gt;kind -->
<g id="edge4" class="edge">
<title>title&#45;&gt;kind</title>
<path fill="none" stroke="#9c27b0" stroke-width="2" d="M548.76,-282.5C642.66,-282.5 829,-282.5 829,-282.5 829,-282.5 829,-219.97 829,-219.97"/>
<polygon fill="#9c27b0" stroke="#9c27b0" stroke-width="2" points="832.5,-219.97 829,-209.97 825.5,-219.97 832.5,-219.97"/>
</g>
<!-- hkt -->
<g id="node6" class="node">
<title>hkt</title>
<polygon fill="#ff9800" stroke="black" points="726.38,-73 481.62,-73 481.62,-24.5 726.38,-24.5 726.38,-73"/>
<text xml:space="preserve" text-anchor="middle" x="604" y="-58.55" font-family="Arial" font-size="11.00" fill="#ffffff">Functor / Applicative / Monad</text>
<text xml:space="preserve" text-anchor="middle" x="604" y="-45.05" font-family="Arial" font-size="11.00" fill="#ffffff">class Functor f where fmap :: (a&#45;&gt;b) &#45;&gt; f a &#45;&gt; f b</text>
<text xml:space="preserve" text-anchor="middle" x="604" y="-31.55" font-family="Arial" font-size="11.00" fill="#ffffff">f :: * &#45;&gt; *</text>
</g>
<!-- tc&#45;&gt;hkt -->
<g id="edge5" class="edge">
<title>tc&#45;&gt;hkt</title>
<path fill="none" stroke="#f44336" stroke-width="2" d="M485.75,-168.5C496.43,-168.5 503.44,-168.5 503.44,-168.5 503.44,-168.5 503.44,-86.3 503.44,-86.3"/>
<polygon fill="#f44336" stroke="#f44336" stroke-width="2" points="506.94,-86.3 503.44,-76.3 499.94,-86.3 506.94,-86.3"/>
</g>
<!-- kind&#45;&gt;hkt -->
<g id="edge6" class="edge">
<title>kind&#45;&gt;hkt</title>
<path fill="none" stroke="#f44336" stroke-width="2" d="M740.69,-168.5C726.04,-168.5 715.5,-168.5 715.5,-168.5 715.5,-168.5 715.5,-86.3 715.5,-86.3"/>
<polygon fill="#f44336" stroke="#f44336" stroke-width="2" points="719,-86.3 715.5,-76.3 712,-86.3 719,-86.3"/>
</g>
</g>
</svg>
