<?xml version="1.0" encoding="UTF-8" standalone="no"?>
<!DOCTYPE svg PUBLIC "-//W3C//DTD SVG 1.1//EN"
 "http://www.w3.org/Graphics/SVG/1.1/DTD/svg11.dtd">
<!-- Generated by graphviz version 14.1.2 (0)
 -->
<!-- Title: flue_features Pages: 1 -->
<svg width="1127pt" height="510pt"
 viewBox="0.00 0.00 1127.00 510.00" xmlns="http://www.w3.org/2000/svg" xmlns:xlink="http://www.w3.org/1999/xlink">
<style>
<!-- White text halo for edge label readability -->
text { paint-order: stroke; stroke: #ffffff; stroke-width: 3px; stroke-linejoin: round; fill: #1a1a2e; }
</style>
<g id="graph0" class="graph" transform="scale(1 1) rotate(0) translate(4 506)">
<title>flue_features</title>
<polygon fill="white" stroke="none" points="-4,4 -4,-506 1122.5,-506 1122.5,4 -4,4"/>
<text xml:space="preserve" text-anchor="middle" x="559.25" y="-7.2" font-family="Times New Roman,serif" font-size="14.00">Flue Feature Ecosystem</text>
<!-- hub -->
<g id="node1" class="node">
<title>hub</title>
<path fill="#e3f2fd" stroke="black" d="M578.75,-492.5C578.75,-492.5 481.75,-492.5 481.75,-492.5 475.75,-492.5 469.75,-486.5 469.75,-480.5 469.75,-480.5 469.75,-468.5 469.75,-468.5 469.75,-462.5 475.75,-456.5 481.75,-456.5 481.75,-456.5 578.75,-456.5 578.75,-456.5 584.75,-456.5 590.75,-462.5 590.75,-468.5 590.75,-468.5 590.75,-480.5 590.75,-480.5 590.75,-486.5 584.75,-492.5 578.75,-492.5"/>
<text xml:space="preserve" text-anchor="middle" x="530.25" y="-469.07" font-family="Arial Bold" font-size="14.00" fill="#0d47a1">Flue Framework</text>
</g>
<!-- f_agents -->
<g id="node2" class="node">
<title>f_agents</title>
<path fill="#e8f5e9" stroke="black" d="M134.5,-384.5C134.5,-384.5 12,-384.5 12,-384.5 6,-384.5 0,-378.5 0,-372.5 0,-372.5 0,-360.5 0,-360.5 0,-354.5 6,-348.5 12,-348.5 12,-348.5 134.5,-348.5 134.5,-348.5 140.5,-348.5 146.5,-354.5 146.5,-360.5 146.5,-360.5 146.5,-372.5 146.5,-372.5 146.5,-378.5 140.5,-384.5 134.5,-384.5"/>
<text xml:space="preserve" text-anchor="middle" x="73.25" y="-369" font-family="Arial" font-size="10.00" fill="#1b5e20">Agents</text>
<text xml:space="preserve" text-anchor="middle" x="73.25" y="-357" font-family="Arial" font-size="10.00" fill="#1b5e20">Context across conversations</text>
</g>
<!-- hub&#45;&gt;f_agents -->
<g id="edge1" class="edge">
<title>hub&#45;&gt;f_agents</title>
<path fill="none" stroke="#1b5e20" stroke-width="2" d="M469.56,-485.5C345.25,-485.5 73.25,-485.5 73.25,-485.5 73.25,-485.5 73.25,-397.86 73.25,-397.86"/>
<polygon fill="#1b5e20" stroke="#1b5e20" stroke-width="2" points="76.75,-397.86 73.25,-387.86 69.75,-397.86 76.75,-397.86"/>
<text xml:space="preserve" text-anchor="middle" x="200.21" y="-488.7" font-family="Times New Roman,serif" font-size="14.00" fill="#1b5e20">Execution</text>
</g>
<!-- f_workflows -->
<g id="node3" class="node">
<title>f_workflows</title>
<path fill="#e8f5e9" stroke="black" d="M207.88,-276.5C207.88,-276.5 114.62,-276.5 114.62,-276.5 108.62,-276.5 102.62,-270.5 102.62,-264.5 102.62,-264.5 102.62,-252.5 102.62,-252.5 102.62,-246.5 108.62,-240.5 114.62,-240.5 114.62,-240.5 207.88,-240.5 207.88,-240.5 213.88,-240.5 219.88,-246.5 219.88,-252.5 219.88,-252.5 219.88,-264.5 219.88,-264.5 219.88,-270.5 213.88,-276.5 207.88,-276.5"/>
<text xml:space="preserve" text-anchor="middle" x="161.25" y="-261" font-family="Arial" font-size="10.00" fill="#1b5e20">Workflows</text>
<text xml:space="preserve" text-anchor="middle" x="161.25" y="-249" font-family="Arial" font-size="10.00" fill="#1b5e20">Structured automations</text>
</g>
<!-- hub&#45;&gt;f_workflows -->
<g id="edge2" class="edge">
<title>hub&#45;&gt;f_workflows</title>
<path fill="none" stroke="#1b5e20" stroke-width="2" d="M469.4,-478.5C369.86,-478.5 183.19,-478.5 183.19,-478.5 183.19,-478.5 183.19,-289.91 183.19,-289.91"/>
<polygon fill="#1b5e20" stroke="#1b5e20" stroke-width="2" points="186.69,-289.91 183.19,-279.91 179.69,-289.91 186.69,-289.91"/>
</g>
<!-- f_sandboxes -->
<g id="node4" class="node">
<title>f_sandboxes</title>
<path fill="#e8f5e9" stroke="black" d="M281.88,-168.5C281.88,-168.5 152.62,-168.5 152.62,-168.5 146.62,-168.5 140.62,-162.5 140.62,-156.5 140.62,-156.5 140.62,-144.5 140.62,-144.5 140.62,-138.5 146.62,-132.5 152.62,-132.5 152.62,-132.5 281.88,-132.5 281.88,-132.5 287.88,-132.5 293.88,-138.5 293.88,-144.5 293.88,-144.5 293.88,-156.5 293.88,-156.5 293.88,-162.5 287.88,-168.5 281.88,-168.5"/>
<text xml:space="preserve" text-anchor="middle" x="217.25" y="-153" font-family="Arial" font-size="10.00" fill="#1b5e20">Sandboxes</text>
<text xml:space="preserve" text-anchor="middle" x="217.25" y="-141" font-family="Arial" font-size="10.00" fill="#1b5e20">Secure execution environments</text>
</g>
<!-- hub&#45;&gt;f_sandboxes -->
<g id="edge3" class="edge">
<title>hub&#45;&gt;f_sandboxes</title>
<path fill="none" stroke="#1b5e20" stroke-width="2" d="M469.58,-470.5C389.04,-470.5 256.88,-470.5 256.88,-470.5 256.88,-470.5 256.88,-181.65 256.88,-181.65"/>
<polygon fill="#1b5e20" stroke="#1b5e20" stroke-width="2" points="260.38,-181.65 256.88,-171.65 253.38,-181.65 260.38,-181.65"/>
</g>
<!-- f_durable -->
<g id="node5" class="node">
<title>f_durable</title>
<path fill="#e8f5e9" stroke="black" d="M334,-60.5C334,-60.5 232.5,-60.5 232.5,-60.5 226.5,-60.5 220.5,-54.5 220.5,-48.5 220.5,-48.5 220.5,-36.5 220.5,-36.5 220.5,-30.5 226.5,-24.5 232.5,-24.5 232.5,-24.5 334,-24.5 334,-24.5 340,-24.5 346,-30.5 346,-36.5 346,-36.5 346,-48.5 346,-48.5 346,-54.5 340,-60.5 334,-60.5"/>
<text xml:space="preserve" text-anchor="middle" x="283.25" y="-45" font-family="Arial" font-size="10.00" fill="#1b5e20">Durable Execution</text>
<text xml:space="preserve" text-anchor="middle" x="283.25" y="-33" font-family="Arial" font-size="10.00" fill="#1b5e20">Survive failures / restarts</text>
</g>
<!-- hub&#45;&gt;f_durable -->
<g id="edge4" class="edge">
<title>hub&#45;&gt;f_durable</title>
<path fill="none" stroke="#1b5e20" stroke-width="2" d="M469.42,-463.5C407.31,-463.5 319.94,-463.5 319.94,-463.5 319.94,-463.5 319.94,-73.89 319.94,-73.89"/>
<polygon fill="#1b5e20" stroke="#1b5e20" stroke-width="2" points="323.44,-73.89 319.94,-63.89 316.44,-73.89 323.44,-73.89"/>
</g>
<!-- f_subagents -->
<g id="node6" class="node">
<title>f_subagents</title>
<path fill="#fff3e0" stroke="black" d="M524.38,-384.5C524.38,-384.5 416.12,-384.5 416.12,-384.5 410.12,-384.5 404.12,-378.5 404.12,-372.5 404.12,-372.5 404.12,-360.5 404.12,-360.5 404.12,-354.5 410.12,-348.5 416.12,-348.5 416.12,-348.5 524.38,-348.5 524.38,-348.5 530.38,-348.5 536.38,-354.5 536.38,-360.5 536.38,-360.5 536.38,-372.5 536.38,-372.5 536.38,-378.5 530.38,-384.5 524.38,-384.5"/>
<text xml:space="preserve" text-anchor="middle" x="470.25" y="-369" font-family="Arial" font-size="10.00" fill="#e65100">Subagents</text>
<text xml:space="preserve" text-anchor="middle" x="470.25" y="-357" font-family="Arial" font-size="10.00" fill="#e65100">Specialized role delegation</text>
</g>
<!-- hub&#45;&gt;f_subagents -->
<g id="edge5" class="edge">
<title>hub&#45;&gt;f_subagents</title>
<path fill="none" stroke="#e65100" stroke-width="2" d="M503.06,-456.18C503.06,-456.18 503.06,-397.94 503.06,-397.94"/>
<polygon fill="#e65100" stroke="#e65100" stroke-width="2" points="506.56,-397.94 503.06,-387.94 499.56,-397.94 506.56,-397.94"/>
<text xml:space="preserve" text-anchor="middle" x="467.81" y="-430.26" font-family="Times New Roman,serif" font-size="14.00" fill="#e65100">Composition</text>
</g>
<!-- f_tools -->
<g id="node7" class="node">
<title>f_tools</title>
<path fill="#fff3e0" stroke="black" d="M598.62,-276.5C598.62,-276.5 479.88,-276.5 479.88,-276.5 473.88,-276.5 467.88,-270.5 467.88,-264.5 467.88,-264.5 467.88,-252.5 467.88,-252.5 467.88,-246.5 473.88,-240.5 479.88,-240.5 479.88,-240.5 598.62,-240.5 598.62,-240.5 604.62,-240.5 610.62,-246.5 610.62,-252.5 610.62,-252.5 610.62,-264.5 610.62,-264.5 610.62,-270.5 604.62,-276.5 598.62,-276.5"/>
<text xml:space="preserve" text-anchor="middle" x="539.25" y="-261" font-family="Arial" font-size="10.00" fill="#e65100">Tools</text>
<text xml:space="preserve" text-anchor="middle" x="539.25" y="-249" font-family="Arial" font-size="10.00" fill="#e65100">Typed actions for APIs / data</text>
</g>
<!-- hub&#45;&gt;f_tools -->
<g id="edge6" class="edge">
<title>hub&#45;&gt;f_tools</title>
<path fill="none" stroke="#e65100" stroke-width="2" d="M554.5,-456.08C554.5,-456.08 554.5,-289.9 554.5,-289.9"/>
<polygon fill="#e65100" stroke="#e65100" stroke-width="2" points="558,-289.9 554.5,-279.9 551,-289.9 558,-289.9"/>
</g>
<!-- f_skills -->
<g id="node8" class="node">
<title>f_skills</title>
<path fill="#fff3e0" stroke="black" d="M662.75,-168.5C662.75,-168.5 541.75,-168.5 541.75,-168.5 535.75,-168.5 529.75,-162.5 529.75,-156.5 529.75,-156.5 529.75,-144.5 529.75,-144.5 529.75,-138.5 535.75,-132.5 541.75,-132.5 541.75,-132.5 662.75,-132.5 662.75,-132.5 668.75,-132.5 674.75,-138.5 674.75,-144.5 674.75,-144.5 674.75,-156.5 674.75,-156.5 674.75,-162.5 668.75,-168.5 662.75,-168.5"/>
<text xml:space="preserve" text-anchor="middle" x="602.25" y="-153" font-family="Arial" font-size="10.00" fill="#e65100">Skills</text>
<text xml:space="preserve" text-anchor="middle" x="602.25" y="-141" font-family="Arial" font-size="10.00" fill="#e65100">Reusable expertise packages</text>
</g>
<!-- hub&#45;&gt;f_skills -->
<g id="edge7" class="edge">
<title>hub&#45;&gt;f_skills</title>
<path fill="none" stroke="#e65100" stroke-width="2" d="M591.08,-465.5C617.57,-465.5 642.69,-465.5 642.69,-465.5 642.69,-465.5 642.69,-181.82 642.69,-181.82"/>
<polygon fill="#e65100" stroke="#e65100" stroke-width="2" points="646.19,-181.82 642.69,-171.82 639.19,-181.82 646.19,-181.82"/>
</g>
<!-- f_mcp -->
<g id="node9" class="node">
<title>f_mcp</title>
<path fill="#f3e5f5" stroke="black" d="M826.62,-384.5C826.62,-384.5 731.88,-384.5 731.88,-384.5 725.88,-384.5 719.88,-378.5 719.88,-372.5 719.88,-372.5 719.88,-360.5 719.88,-360.5 719.88,-354.5 725.88,-348.5 731.88,-348.5 731.88,-348.5 826.62,-348.5 826.62,-348.5 832.62,-348.5 838.62,-354.5 838.62,-360.5 838.62,-360.5 838.62,-372.5 838.62,-372.5 838.62,-378.5 832.62,-384.5 826.62,-384.5"/>
<text xml:space="preserve" text-anchor="middle" x="779.25" y="-369" font-family="Arial" font-size="10.00" fill="#4a148c">MCP Servers</text>
<text xml:space="preserve" text-anchor="middle" x="779.25" y="-357" font-family="Arial" font-size="10.00" fill="#4a148c">Model Context Protocol</text>
</g>
<!-- hub&#45;&gt;f_mcp -->
<g id="edge8" class="edge">
<title>hub&#45;&gt;f_mcp</title>
<path fill="none" stroke="#4a148c" stroke-width="2" d="M572.62,-456.18C572.62,-425.37 572.62,-366.5 572.62,-366.5 572.62,-366.5 706.46,-366.5 706.46,-366.5"/>
<polygon fill="#4a148c" stroke="#4a148c" stroke-width="2" points="706.46,-370 716.46,-366.5 706.46,-363 706.46,-370"/>
<text xml:space="preserve" text-anchor="middle" x="624.33" y="-369.7" font-family="Times New Roman,serif" font-size="14.00" fill="#4a148c">Integration</text>
</g>
<!-- f_channels -->
<g id="node10" class="node">
<title>f_channels</title>
<path fill="#f3e5f5" stroke="black" d="M914.62,-276.5C914.62,-276.5 777.88,-276.5 777.88,-276.5 771.88,-276.5 765.88,-270.5 765.88,-264.5 765.88,-264.5 765.88,-252.5 765.88,-252.5 765.88,-246.5 771.88,-240.5 777.88,-240.5 777.88,-240.5 914.62,-240.5 914.62,-240.5 920.62,-240.5 926.62,-246.5 926.62,-252.5 926.62,-252.5 926.62,-264.5 926.62,-264.5 926.62,-270.5 920.62,-276.5 914.62,-276.5"/>
<text xml:space="preserve" text-anchor="middle" x="846.25" y="-261" font-family="Arial" font-size="10.00" fill="#4a148c">Channels</text>
<text xml:space="preserve" text-anchor="middle" x="846.25" y="-249" font-family="Arial" font-size="10.00" fill="#4a148c">Slack / Teams / Discord / GitHub</text>
</g>
<!-- hub&#45;&gt;f_channels -->
<g id="edge9" class="edge">
<title>hub&#45;&gt;f_channels</title>
<path fill="none" stroke="#4a148c" stroke-width="2" d="M591.23,-474.5C692.08,-474.5 882.62,-474.5 882.62,-474.5 882.62,-474.5 882.62,-289.94 882.62,-289.94"/>
<polygon fill="#4a148c" stroke="#4a148c" stroke-width="2" points="886.13,-289.94 882.63,-279.94 879.13,-289.94 886.13,-289.94"/>
</g>
<!-- f_observability -->
<g id="node11" class="node">
<title>f_observability</title>
<path fill="#fffde7" stroke="black" d="M1106.5,-384.5C1106.5,-384.5 960,-384.5 960,-384.5 954,-384.5 948,-378.5 948,-372.5 948,-372.5 948,-360.5 948,-360.5 948,-354.5 954,-348.5 960,-348.5 960,-348.5 1106.5,-348.5 1106.5,-348.5 1112.5,-348.5 1118.5,-354.5 1118.5,-360.5 1118.5,-360.5 1118.5,-372.5 1118.5,-372.5 1118.5,-378.5 1112.5,-384.5 1106.5,-384.5"/>
<text xml:space="preserve" text-anchor="middle" x="1033.25" y="-369" font-family="Arial" font-size="10.00" fill="#f57f17">Observability</text>
<text xml:space="preserve" text-anchor="middle" x="1033.25" y="-357" font-family="Arial" font-size="10.00" fill="#f57f17">OpenTelemetry / Sentry / Braintrust</text>
</g>
<!-- hub&#45;&gt;f_observability -->
<g id="edge10" class="edge">
<title>hub&#45;&gt;f_observability</title>
<path fill="none" stroke="#f57f17" stroke-width="2" d="M591.17,-483.5C725.09,-483.5 1033.25,-483.5 1033.25,-483.5 1033.25,-483.5 1033.25,-397.81 1033.25,-397.81"/>
<polygon fill="#f57f17" stroke="#f57f17" stroke-width="2" points="1036.75,-397.81 1033.25,-387.81 1029.75,-397.81 1036.75,-397.81"/>
<text xml:space="preserve" text-anchor="middle" x="823.93" y="-486.7" font-family="Times New Roman,serif" font-size="14.00" fill="#f57f17">Monitoring</text>
</g>
<!-- f_agents&#45;&gt;f_workflows -->
<g id="edge11" class="edge">
<title>f_agents&#45;&gt;f_workflows</title>
<path fill="none" stroke="#1b5e20" stroke-dasharray="5,2" d="M124.56,-348.18C124.56,-348.18 124.56,-288.42 124.56,-288.42"/>
<polygon fill="#1b5e20" stroke="#1b5e20" points="128.06,-288.42 124.56,-278.42 121.06,-288.42 128.06,-288.42"/>
</g>
<!-- f_workflows&#45;&gt;f_sandboxes -->
<g id="edge12" class="edge">
<title>f_workflows&#45;&gt;f_sandboxes</title>
<path fill="none" stroke="#1b5e20" stroke-dasharray="5,2" d="M180.25,-240.18C180.25,-240.18 180.25,-180.42 180.25,-180.42"/>
<polygon fill="#1b5e20" stroke="#1b5e20" points="183.75,-180.42 180.25,-170.42 176.75,-180.42 183.75,-180.42"/>
</g>
<!-- f_sandboxes&#45;&gt;f_durable -->
<g id="edge13" class="edge">
<title>f_sandboxes&#45;&gt;f_durable</title>
<path fill="none" stroke="#1b5e20" stroke-dasharray="5,2" d="M257.19,-132.18C257.19,-132.18 257.19,-72.42 257.19,-72.42"/>
<polygon fill="#1b5e20" stroke="#1b5e20" points="260.69,-72.42 257.19,-62.42 253.69,-72.42 260.69,-72.42"/>
</g>
<!-- f_subagents&#45;&gt;f_tools -->
<g id="edge14" class="edge">
<title>f_subagents&#45;&gt;f_tools</title>
<path fill="none" stroke="#e65100" stroke-dasharray="5,2" d="M502.12,-348.18C502.12,-348.18 502.12,-288.42 502.12,-288.42"/>
<polygon fill="#e65100" stroke="#e65100" points="505.63,-288.42 502.13,-278.42 498.63,-288.42 505.63,-288.42"/>
</g>
<!-- f_tools&#45;&gt;f_skills -->
<g id="edge15" class="edge">
<title>f_tools&#45;&gt;f_skills</title>
<path fill="none" stroke="#e65100" stroke-dasharray="5,2" d="M570.19,-240.18C570.19,-240.18 570.19,-180.42 570.19,-180.42"/>
<polygon fill="#e65100" stroke="#e65100" points="573.69,-180.42 570.19,-170.42 566.69,-180.42 573.69,-180.42"/>
</g>
<!-- f_mcp&#45;&gt;f_channels -->
<g id="edge16" class="edge">
<title>f_mcp&#45;&gt;f_channels</title>
<path fill="none" stroke="#4a148c" stroke-dasharray="5,2" d="M802.25,-348.18C802.25,-348.18 802.25,-288.42 802.25,-288.42"/>
<polygon fill="#4a148c" stroke="#4a148c" points="805.75,-288.42 802.25,-278.42 798.75,-288.42 805.75,-288.42"/>
</g>
</g>
</svg>
