<?xml version="1.0" encoding="UTF-8" standalone="no"?>
<!DOCTYPE svg PUBLIC "-//W3C//DTD SVG 1.1//EN"
 "http://www.w3.org/Graphics/SVG/1.1/DTD/svg11.dtd">
<!-- Generated by graphviz version 14.1.2 (0)
 -->
<!-- Title: arckit_governance_workflow Pages: 1 -->
<svg width="1419pt" height="864pt"
 viewBox="0.00 0.00 1419.00 864.00" xmlns="http://www.w3.org/2000/svg" xmlns:xlink="http://www.w3.org/1999/xlink">
<g id="graph0" class="graph" transform="scale(1 1) rotate(0) translate(4 859.5)">
<title>arckit_governance_workflow</title>
<polygon fill="white" stroke="none" points="-4,4 -4,-859.5 1414.88,-859.5 1414.88,4 -4,4"/>
<!-- phase0 -->
<g id="node1" class="node">
<title>phase0</title>
<path fill="#2196f3" stroke="black" d="M192.38,-855.5C192.38,-855.5 105.88,-855.5 105.88,-855.5 99.88,-855.5 93.88,-849.5 93.88,-843.5 93.88,-843.5 93.88,-831 93.88,-831 93.88,-825 99.88,-819 105.88,-819 105.88,-819 192.38,-819 192.38,-819 198.38,-819 204.38,-825 204.38,-831 204.38,-831 204.38,-843.5 204.38,-843.5 204.38,-849.5 198.38,-855.5 192.38,-855.5"/>
<text xml:space="preserve" text-anchor="middle" x="149.12" y="-840.1" font-family="Arial Bold" font-size="12.00" fill="white">Phase 0</text>
<text xml:space="preserve" text-anchor="middle" x="149.12" y="-825.85" font-family="Arial Bold" font-size="12.00" fill="white">Project Planning</text>
</g>
<!-- plan -->
<g id="node2" class="node">
<title>plan</title>
<path fill="#ff9800" stroke="black" d="M120.25,-775.75C120.25,-775.75 12,-775.75 12,-775.75 6,-775.75 0,-769.75 0,-763.75 0,-763.75 0,-751.75 0,-751.75 0,-745.75 6,-739.75 12,-739.75 12,-739.75 120.25,-739.75 120.25,-739.75 126.25,-739.75 132.25,-745.75 132.25,-751.75 132.25,-751.75 132.25,-763.75 132.25,-763.75 132.25,-769.75 126.25,-775.75 120.25,-775.75"/>
<text xml:space="preserve" text-anchor="middle" x="66.12" y="-760.8" font-family="Arial" font-size="11.00" fill="white">/arckit.plan</text>
<text xml:space="preserve" text-anchor="middle" x="66.12" y="-747.3" font-family="Arial" font-size="11.00" fill="white">Timeline, Phases, Gates</text>
</g>
<!-- phase0&#45;&gt;plan -->
<g id="edge11" class="edge">
<title>phase0&#45;&gt;plan</title>
<path fill="none" stroke="#ff9800" stroke-width="1.5" d="M113.06,-818.81C113.06,-818.81 113.06,-788.36 113.06,-788.36"/>
<polygon fill="#ff9800" stroke="#ff9800" stroke-width="1.5" points="116.56,-788.36 113.06,-778.36 109.56,-788.36 116.56,-788.36"/>
</g>
<!-- phase1 -->
<g id="node3" class="node">
<title>phase1</title>
<path fill="#2196f3" stroke="black" d="M291.12,-776C291.12,-776 173.12,-776 173.12,-776 167.12,-776 161.12,-770 161.12,-764 161.12,-764 161.12,-751.5 161.12,-751.5 161.12,-745.5 167.12,-739.5 173.12,-739.5 173.12,-739.5 291.12,-739.5 291.12,-739.5 297.12,-739.5 303.12,-745.5 303.12,-751.5 303.12,-751.5 303.12,-764 303.12,-764 303.12,-770 297.12,-776 291.12,-776"/>
<text xml:space="preserve" text-anchor="middle" x="232.12" y="-760.6" font-family="Arial Bold" font-size="12.00" fill="white">Phase 1</text>
<text xml:space="preserve" text-anchor="middle" x="232.12" y="-746.35" font-family="Arial Bold" font-size="12.00" fill="white">Establish Governance</text>
</g>
<!-- phase0&#45;&gt;phase1 -->
<g id="edge1" class="edge">
<title>phase0&#45;&gt;phase1</title>
<path fill="none" stroke="#2196f3" stroke-width="2.5" d="M182.75,-818.81C182.75,-818.81 182.75,-790.15 182.75,-790.15"/>
<polygon fill="#2196f3" stroke="#2196f3" stroke-width="2.5" points="186.25,-790.15 182.75,-780.15 179.25,-790.15 186.25,-790.15"/>
</g>
<!-- principles -->
<g id="node4" class="node">
<title>principles</title>
<path fill="#ff9800" stroke="black" d="M202.25,-696.25C202.25,-696.25 100,-696.25 100,-696.25 94,-696.25 88,-690.25 88,-684.25 88,-684.25 88,-672.25 88,-672.25 88,-666.25 94,-660.25 100,-660.25 100,-660.25 202.25,-660.25 202.25,-660.25 208.25,-660.25 214.25,-666.25 214.25,-672.25 214.25,-672.25 214.25,-684.25 214.25,-684.25 214.25,-690.25 208.25,-696.25 202.25,-696.25"/>
<text xml:space="preserve" text-anchor="middle" x="151.12" y="-681.3" font-family="Arial" font-size="11.00" fill="white">/arckit.principles</text>
<text xml:space="preserve" text-anchor="middle" x="151.12" y="-667.8" font-family="Arial" font-size="11.00" fill="white">Architecture Standards</text>
</g>
<!-- phase1&#45;&gt;principles -->
<g id="edge12" class="edge">
<title>phase1&#45;&gt;principles</title>
<path fill="none" stroke="#ff9800" stroke-width="1.5" d="M187.69,-739.31C187.69,-739.31 187.69,-708.86 187.69,-708.86"/>
<polygon fill="#ff9800" stroke="#ff9800" stroke-width="1.5" points="191.19,-708.86 187.69,-698.86 184.19,-708.86 191.19,-708.86"/>
</g>
<!-- phase2 -->
<g id="node5" class="node">
<title>phase2</title>
<path fill="#2196f3" stroke="black" d="M368.88,-696.5C368.88,-696.5 255.38,-696.5 255.38,-696.5 249.38,-696.5 243.38,-690.5 243.38,-684.5 243.38,-684.5 243.38,-672 243.38,-672 243.38,-666 249.38,-660 255.38,-660 255.38,-660 368.88,-660 368.88,-660 374.88,-660 380.88,-666 380.88,-672 380.88,-672 380.88,-684.5 380.88,-684.5 380.88,-690.5 374.88,-696.5 368.88,-696.5"/>
<text xml:space="preserve" text-anchor="middle" x="312.12" y="-681.1" font-family="Arial Bold" font-size="12.00" fill="white">Phase 2</text>
<text xml:space="preserve" text-anchor="middle" x="312.12" y="-666.85" font-family="Arial Bold" font-size="12.00" fill="white">Stakeholder Analysis</text>
</g>
<!-- phase1&#45;&gt;phase2 -->
<g id="edge2" class="edge">
<title>phase1&#45;&gt;phase2</title>
<path fill="none" stroke="#2196f3" stroke-width="2.5" d="M273.25,-739.31C273.25,-739.31 273.25,-710.65 273.25,-710.65"/>
<polygon fill="#2196f3" stroke="#2196f3" stroke-width="2.5" points="276.75,-710.65 273.25,-700.65 269.75,-710.65 276.75,-710.65"/>
</g>
<!-- stakeholders -->
<g id="node6" class="node">
<title>stakeholders</title>
<path fill="#ff9800" stroke="black" d="M291.62,-616.75C291.62,-616.75 176.62,-616.75 176.62,-616.75 170.62,-616.75 164.62,-610.75 164.62,-604.75 164.62,-604.75 164.62,-592.75 164.62,-592.75 164.62,-586.75 170.62,-580.75 176.62,-580.75 176.62,-580.75 291.62,-580.75 291.62,-580.75 297.62,-580.75 303.62,-586.75 303.62,-592.75 303.62,-592.75 303.62,-604.75 303.62,-604.75 303.62,-610.75 297.62,-616.75 291.62,-616.75"/>
<text xml:space="preserve" text-anchor="middle" x="234.12" y="-601.8" font-family="Arial" font-size="11.00" fill="white">/arckit.stakeholders</text>
<text xml:space="preserve" text-anchor="middle" x="234.12" y="-588.3" font-family="Arial" font-size="11.00" fill="white">Drivers, Goals, Outcomes</text>
</g>
<!-- phase2&#45;&gt;stakeholders -->
<g id="edge13" class="edge">
<title>phase2&#45;&gt;stakeholders</title>
<path fill="none" stroke="#ff9800" stroke-width="1.5" d="M273.5,-659.81C273.5,-659.81 273.5,-629.36 273.5,-629.36"/>
<polygon fill="#ff9800" stroke="#ff9800" stroke-width="1.5" points="277,-629.36 273.5,-619.36 270,-629.36 277,-629.36"/>
</g>
<!-- phase3 -->
<g id="node7" class="node">
<title>phase3</title>
<path fill="#2196f3" stroke="black" d="M436,-617C436,-617 344.25,-617 344.25,-617 338.25,-617 332.25,-611 332.25,-605 332.25,-605 332.25,-592.5 332.25,-592.5 332.25,-586.5 338.25,-580.5 344.25,-580.5 344.25,-580.5 436,-580.5 436,-580.5 442,-580.5 448,-586.5 448,-592.5 448,-592.5 448,-605 448,-605 448,-611 442,-617 436,-617"/>
<text xml:space="preserve" text-anchor="middle" x="390.12" y="-601.6" font-family="Arial Bold" font-size="12.00" fill="white">Phase 3</text>
<text xml:space="preserve" text-anchor="middle" x="390.12" y="-587.35" font-family="Arial Bold" font-size="12.00" fill="white">Risk Assessment</text>
</g>
<!-- phase2&#45;&gt;phase3 -->
<g id="edge3" class="edge">
<title>phase2&#45;&gt;phase3</title>
<path fill="none" stroke="#2196f3" stroke-width="2.5" d="M356.56,-659.81C356.56,-659.81 356.56,-631.15 356.56,-631.15"/>
<polygon fill="#2196f3" stroke="#2196f3" stroke-width="2.5" points="360.06,-631.15 356.56,-621.15 353.06,-631.15 360.06,-631.15"/>
</g>
<!-- risk -->
<g id="node8" class="node">
<title>risk</title>
<path fill="#ff9800" stroke="black" d="M371.88,-537.25C371.88,-537.25 258.38,-537.25 258.38,-537.25 252.38,-537.25 246.38,-531.25 246.38,-525.25 246.38,-525.25 246.38,-513.25 246.38,-513.25 246.38,-507.25 252.38,-501.25 258.38,-501.25 258.38,-501.25 371.88,-501.25 371.88,-501.25 377.88,-501.25 383.88,-507.25 383.88,-513.25 383.88,-513.25 383.88,-525.25 383.88,-525.25 383.88,-531.25 377.88,-537.25 371.88,-537.25"/>
<text xml:space="preserve" text-anchor="middle" x="315.12" y="-522.3" font-family="Arial" font-size="11.00" fill="white">/arckit.risk</text>
<text xml:space="preserve" text-anchor="middle" x="315.12" y="-508.8" font-family="Arial" font-size="11.00" fill="white">Orange Book Framework</text>
</g>
<!-- phase3&#45;&gt;risk -->
<g id="edge14" class="edge">
<title>phase3&#45;&gt;risk</title>
<path fill="none" stroke="#ff9800" stroke-width="1.5" d="M358.06,-580.31C358.06,-580.31 358.06,-549.86 358.06,-549.86"/>
<polygon fill="#ff9800" stroke="#ff9800" stroke-width="1.5" points="361.56,-549.86 358.06,-539.86 354.56,-549.86 361.56,-549.86"/>
</g>
<!-- phase4 -->
<g id="node9" class="node">
<title>phase4</title>
<path fill="#2196f3" stroke="black" d="M503.25,-537.5C503.25,-537.5 425,-537.5 425,-537.5 419,-537.5 413,-531.5 413,-525.5 413,-525.5 413,-513 413,-513 413,-507 419,-501 425,-501 425,-501 503.25,-501 503.25,-501 509.25,-501 515.25,-507 515.25,-513 515.25,-513 515.25,-525.5 515.25,-525.5 515.25,-531.5 509.25,-537.5 503.25,-537.5"/>
<text xml:space="preserve" text-anchor="middle" x="464.12" y="-522.1" font-family="Arial Bold" font-size="12.00" fill="white">Phase 4</text>
<text xml:space="preserve" text-anchor="middle" x="464.12" y="-507.85" font-family="Arial Bold" font-size="12.00" fill="white">Business Case</text>
</g>
<!-- phase3&#45;&gt;phase4 -->
<g id="edge4" class="edge">
<title>phase3&#45;&gt;phase4</title>
<path fill="none" stroke="#2196f3" stroke-width="2.5" d="M430.5,-580.31C430.5,-580.31 430.5,-551.65 430.5,-551.65"/>
<polygon fill="#2196f3" stroke="#2196f3" stroke-width="2.5" points="434,-551.65 430.5,-541.65 427,-551.65 434,-551.65"/>
</g>
<!-- sobc -->
<g id="node10" class="node">
<title>sobc</title>
<path fill="#ff9800" stroke="black" d="M439.25,-457.75C439.25,-457.75 319,-457.75 319,-457.75 313,-457.75 307,-451.75 307,-445.75 307,-445.75 307,-433.75 307,-433.75 307,-427.75 313,-421.75 319,-421.75 319,-421.75 439.25,-421.75 439.25,-421.75 445.25,-421.75 451.25,-427.75 451.25,-433.75 451.25,-433.75 451.25,-445.75 451.25,-445.75 451.25,-451.75 445.25,-457.75 439.25,-457.75"/>
<text xml:space="preserve" text-anchor="middle" x="379.12" y="-442.8" font-family="Arial" font-size="11.00" fill="white">/arckit.sobc</text>
<text xml:space="preserve" text-anchor="middle" x="379.12" y="-429.3" font-family="Arial" font-size="11.00" fill="white">Green Book 5&#45;Case Model</text>
</g>
<!-- phase4&#45;&gt;sobc -->
<g id="edge15" class="edge">
<title>phase4&#45;&gt;sobc</title>
<path fill="none" stroke="#ff9800" stroke-width="1.5" d="M432.12,-500.81C432.12,-500.81 432.12,-470.36 432.12,-470.36"/>
<polygon fill="#ff9800" stroke="#ff9800" stroke-width="1.5" points="435.63,-470.36 432.13,-460.36 428.63,-470.36 435.63,-470.36"/>
</g>
<!-- phase5 -->
<g id="node11" class="node">
<title>phase5</title>
<path fill="#2196f3" stroke="black" d="M604.12,-458C604.12,-458 492.12,-458 492.12,-458 486.12,-458 480.12,-452 480.12,-446 480.12,-446 480.12,-433.5 480.12,-433.5 480.12,-427.5 486.12,-421.5 492.12,-421.5 492.12,-421.5 604.12,-421.5 604.12,-421.5 610.12,-421.5 616.12,-427.5 616.12,-433.5 616.12,-433.5 616.12,-446 616.12,-446 616.12,-452 610.12,-458 604.12,-458"/>
<text xml:space="preserve" text-anchor="middle" x="548.12" y="-442.6" font-family="Arial Bold" font-size="12.00" fill="white">Phase 5</text>
<text xml:space="preserve" text-anchor="middle" x="548.12" y="-428.35" font-family="Arial Bold" font-size="12.00" fill="white">Define Requirements</text>
</g>
<!-- phase4&#45;&gt;phase5 -->
<g id="edge5" class="edge">
<title>phase4&#45;&gt;phase5</title>
<path fill="none" stroke="#2196f3" stroke-width="2.5" d="M497.69,-500.81C497.69,-500.81 497.69,-472.15 497.69,-472.15"/>
<polygon fill="#2196f3" stroke="#2196f3" stroke-width="2.5" points="501.19,-472.15 497.69,-462.15 494.19,-472.15 501.19,-472.15"/>
</g>
<!-- requirements -->
<g id="node12" class="node">
<title>requirements</title>
<path fill="#ff9800" stroke="black" d="M434.38,-378.25C434.38,-378.25 341.88,-378.25 341.88,-378.25 335.88,-378.25 329.88,-372.25 329.88,-366.25 329.88,-366.25 329.88,-354.25 329.88,-354.25 329.88,-348.25 335.88,-342.25 341.88,-342.25 341.88,-342.25 434.38,-342.25 434.38,-342.25 440.38,-342.25 446.38,-348.25 446.38,-354.25 446.38,-354.25 446.38,-366.25 446.38,-366.25 446.38,-372.25 440.38,-378.25 434.38,-378.25"/>
<text xml:space="preserve" text-anchor="middle" x="388.12" y="-363.3" font-family="Arial" font-size="11.00" fill="white">/arckit.requirements</text>
<text xml:space="preserve" text-anchor="middle" x="388.12" y="-349.8" font-family="Arial" font-size="11.00" fill="white">BR/FR/NFR/INT/DR</text>
</g>
<!-- phase5&#45;&gt;requirements -->
<g id="edge16" class="edge">
<title>phase5&#45;&gt;requirements</title>
<path fill="none" stroke="#ff9800" stroke-width="1.5" d="M479.77,-440C470.14,-440 463.44,-440 463.44,-440 463.44,-440 463.44,-360 463.44,-360 463.44,-360 458.99,-360 458.99,-360"/>
<polygon fill="#ff9800" stroke="#ff9800" stroke-width="1.5" points="458.99,-356.5 448.99,-360 458.99,-363.5 458.99,-356.5"/>
</g>
<!-- data_model -->
<g id="node13" class="node">
<title>data_model</title>
<path fill="#ff9800" stroke="black" d="M608.62,-378.25C608.62,-378.25 487.62,-378.25 487.62,-378.25 481.62,-378.25 475.62,-372.25 475.62,-366.25 475.62,-366.25 475.62,-354.25 475.62,-354.25 475.62,-348.25 481.62,-342.25 487.62,-342.25 487.62,-342.25 608.62,-342.25 608.62,-342.25 614.62,-342.25 620.62,-348.25 620.62,-354.25 620.62,-354.25 620.62,-366.25 620.62,-366.25 620.62,-372.25 614.62,-378.25 608.62,-378.25"/>
<text xml:space="preserve" text-anchor="middle" x="548.12" y="-363.3" font-family="Arial" font-size="11.00" fill="white">/arckit.data&#45;model</text>
<text xml:space="preserve" text-anchor="middle" x="548.12" y="-349.8" font-family="Arial" font-size="11.00" fill="white">ERD + GDPR Compliance</text>
</g>
<!-- phase5&#45;&gt;data_model -->
<g id="edge17" class="edge">
<title>phase5&#45;&gt;data_model</title>
<path fill="none" stroke="#ff9800" stroke-width="1.5" d="M548.12,-421.31C548.12,-421.31 548.12,-390.86 548.12,-390.86"/>
<polygon fill="#ff9800" stroke="#ff9800" stroke-width="1.5" points="551.63,-390.86 548.13,-380.86 544.63,-390.86 551.63,-390.86"/>
</g>
<!-- phase6 -->
<g id="node14" class="node">
<title>phase6</title>
<path fill="#2196f3" stroke="black" d="M778.75,-378.5C778.75,-378.5 661.5,-378.5 661.5,-378.5 655.5,-378.5 649.5,-372.5 649.5,-366.5 649.5,-366.5 649.5,-354 649.5,-354 649.5,-348 655.5,-342 661.5,-342 661.5,-342 778.75,-342 778.75,-342 784.75,-342 790.75,-348 790.75,-354 790.75,-354 790.75,-366.5 790.75,-366.5 790.75,-372.5 784.75,-378.5 778.75,-378.5"/>
<text xml:space="preserve" text-anchor="middle" x="720.12" y="-363.1" font-family="Arial Bold" font-size="12.00" fill="white">Phase 6</text>
<text xml:space="preserve" text-anchor="middle" x="720.12" y="-348.85" font-family="Arial Bold" font-size="12.00" fill="white">Technology Research</text>
</g>
<!-- phase5&#45;&gt;phase6 -->
<g id="edge6" class="edge">
<title>phase5&#45;&gt;phase6</title>
<path fill="none" stroke="#2196f3" stroke-width="2.5" d="M616.6,-440C664.56,-440 720.12,-440 720.12,-440 720.12,-440 720.12,-392.53 720.12,-392.53"/>
<polygon fill="#2196f3" stroke="#2196f3" stroke-width="2.5" points="723.63,-392.53 720.13,-382.53 716.63,-392.53 723.63,-392.53"/>
</g>
<!-- research -->
<g id="node15" class="node">
<title>research</title>
<path fill="#ff9800" stroke="black" d="M627.75,-298.75C627.75,-298.75 534.5,-298.75 534.5,-298.75 528.5,-298.75 522.5,-292.75 522.5,-286.75 522.5,-286.75 522.5,-274.75 522.5,-274.75 522.5,-268.75 528.5,-262.75 534.5,-262.75 534.5,-262.75 627.75,-262.75 627.75,-262.75 633.75,-262.75 639.75,-268.75 639.75,-274.75 639.75,-274.75 639.75,-286.75 639.75,-286.75 639.75,-292.75 633.75,-298.75 627.75,-298.75"/>
<text xml:space="preserve" text-anchor="middle" x="581.12" y="-283.8" font-family="Arial" font-size="11.00" fill="white">/arckit.research</text>
<text xml:space="preserve" text-anchor="middle" x="581.12" y="-270.3" font-family="Arial" font-size="11.00" fill="white">Build vs Buy Analysis</text>
</g>
<!-- phase6&#45;&gt;research -->
<g id="edge18" class="edge">
<title>phase6&#45;&gt;research</title>
<path fill="none" stroke="#ff9800" stroke-width="1.5" d="M659.06,-341.87C659.06,-318.46 659.06,-281 659.06,-281 659.06,-281 652.47,-281 652.47,-281"/>
<polygon fill="#ff9800" stroke="#ff9800" stroke-width="1.5" points="652.47,-277.5 642.47,-281 652.47,-284.5 652.47,-277.5"/>
</g>
<!-- wardley -->
<g id="node16" class="node">
<title>wardley</title>
<path fill="#ff9800" stroke="black" d="M759.62,-298.75C759.62,-298.75 680.62,-298.75 680.62,-298.75 674.62,-298.75 668.62,-292.75 668.62,-286.75 668.62,-286.75 668.62,-274.75 668.62,-274.75 668.62,-268.75 674.62,-262.75 680.62,-262.75 680.62,-262.75 759.62,-262.75 759.62,-262.75 765.62,-262.75 771.62,-268.75 771.62,-274.75 771.62,-274.75 771.62,-286.75 771.62,-286.75 771.62,-292.75 765.62,-298.75 759.62,-298.75"/>
<text xml:space="preserve" text-anchor="middle" x="720.12" y="-283.8" font-family="Arial" font-size="11.00" fill="white">/arckit.wardley</text>
<text xml:space="preserve" text-anchor="middle" x="720.12" y="-270.3" font-family="Arial" font-size="11.00" fill="white">Strategic Mapping</text>
</g>
<!-- phase6&#45;&gt;wardley -->
<g id="edge19" class="edge">
<title>phase6&#45;&gt;wardley</title>
<path fill="none" stroke="#ff9800" stroke-width="1.5" d="M720.12,-341.81C720.12,-341.81 720.12,-311.36 720.12,-311.36"/>
<polygon fill="#ff9800" stroke="#ff9800" stroke-width="1.5" points="723.63,-311.36 720.13,-301.36 716.63,-311.36 723.63,-311.36"/>
</g>
<!-- phase7 -->
<g id="node17" class="node">
<title>phase7</title>
<path fill="#2196f3" stroke="black" d="M923.38,-299C923.38,-299 812.88,-299 812.88,-299 806.88,-299 800.88,-293 800.88,-287 800.88,-287 800.88,-274.5 800.88,-274.5 800.88,-268.5 806.88,-262.5 812.88,-262.5 812.88,-262.5 923.38,-262.5 923.38,-262.5 929.38,-262.5 935.38,-268.5 935.38,-274.5 935.38,-274.5 935.38,-287 935.38,-287 935.38,-293 929.38,-299 923.38,-299"/>
<text xml:space="preserve" text-anchor="middle" x="868.12" y="-283.6" font-family="Arial Bold" font-size="12.00" fill="white">Phase 7</text>
<text xml:space="preserve" text-anchor="middle" x="868.12" y="-269.35" font-family="Arial Bold" font-size="12.00" fill="white">Vendor Procurement</text>
</g>
<!-- phase6&#45;&gt;phase7 -->
<g id="edge7" class="edge">
<title>phase6&#45;&gt;phase7</title>
<path fill="none" stroke="#2196f3" stroke-width="2.5" d="M781.19,-341.87C781.19,-318.46 781.19,-281 781.19,-281 781.19,-281 786.7,-281 786.7,-281"/>
<polygon fill="#2196f3" stroke="#2196f3" stroke-width="2.5" points="786.7,-284.5 796.7,-281 786.7,-277.5 786.7,-284.5"/>
</g>
<!-- sow -->
<g id="node18" class="node">
<title>sow</title>
<path fill="#ff9800" stroke="black" d="M781.5,-219.25C781.5,-219.25 710.75,-219.25 710.75,-219.25 704.75,-219.25 698.75,-213.25 698.75,-207.25 698.75,-207.25 698.75,-195.25 698.75,-195.25 698.75,-189.25 704.75,-183.25 710.75,-183.25 710.75,-183.25 781.5,-183.25 781.5,-183.25 787.5,-183.25 793.5,-189.25 793.5,-195.25 793.5,-195.25 793.5,-207.25 793.5,-207.25 793.5,-213.25 787.5,-219.25 781.5,-219.25"/>
<text xml:space="preserve" text-anchor="middle" x="746.12" y="-204.3" font-family="Arial" font-size="11.00" fill="white">/arckit.sow</text>
<text xml:space="preserve" text-anchor="middle" x="746.12" y="-190.8" font-family="Arial" font-size="11.00" fill="white">RFP Generation</text>
</g>
<!-- phase7&#45;&gt;sow -->
<g id="edge20" class="edge">
<title>phase7&#45;&gt;sow</title>
<path fill="none" stroke="#ff9800" stroke-width="1.5" d="M805.88,-262.25C805.88,-238.69 805.88,-201 805.88,-201 805.88,-201 804.67,-201 804.67,-201"/>
<polygon fill="#ff9800" stroke="#ff9800" stroke-width="1.5" points="806.05,-197.5 796.05,-201 806.05,-204.5 806.05,-197.5"/>
</g>
<!-- evaluate -->
<g id="node19" class="node">
<title>evaluate</title>
<path fill="#ff9800" stroke="black" d="M901.25,-219.25C901.25,-219.25 835,-219.25 835,-219.25 829,-219.25 823,-213.25 823,-207.25 823,-207.25 823,-195.25 823,-195.25 823,-189.25 829,-183.25 835,-183.25 835,-183.25 901.25,-183.25 901.25,-183.25 907.25,-183.25 913.25,-189.25 913.25,-195.25 913.25,-195.25 913.25,-207.25 913.25,-207.25 913.25,-213.25 907.25,-219.25 901.25,-219.25"/>
<text xml:space="preserve" text-anchor="middle" x="868.12" y="-204.3" font-family="Arial" font-size="11.00" fill="white">/arckit.evaluate</text>
<text xml:space="preserve" text-anchor="middle" x="868.12" y="-190.8" font-family="Arial" font-size="11.00" fill="white">Vendor Scoring</text>
</g>
<!-- phase7&#45;&gt;evaluate -->
<g id="edge21" class="edge">
<title>phase7&#45;&gt;evaluate</title>
<path fill="none" stroke="#ff9800" stroke-width="1.5" d="M868.12,-262.31C868.12,-262.31 868.12,-231.86 868.12,-231.86"/>
<polygon fill="#ff9800" stroke="#ff9800" stroke-width="1.5" points="871.63,-231.86 868.13,-221.86 864.63,-231.86 871.63,-231.86"/>
</g>
<!-- phase8 -->
<g id="node20" class="node">
<title>phase8</title>
<path fill="#2196f3" stroke="black" d="M1031.5,-219.5C1031.5,-219.5 954.75,-219.5 954.75,-219.5 948.75,-219.5 942.75,-213.5 942.75,-207.5 942.75,-207.5 942.75,-195 942.75,-195 942.75,-189 948.75,-183 954.75,-183 954.75,-183 1031.5,-183 1031.5,-183 1037.5,-183 1043.5,-189 1043.5,-195 1043.5,-195 1043.5,-207.5 1043.5,-207.5 1043.5,-213.5 1037.5,-219.5 1031.5,-219.5"/>
<text xml:space="preserve" text-anchor="middle" x="993.12" y="-204.1" font-family="Arial Bold" font-size="12.00" fill="white">Phase 8</text>
<text xml:space="preserve" text-anchor="middle" x="993.12" y="-189.85" font-family="Arial Bold" font-size="12.00" fill="white">Design Review</text>
</g>
<!-- phase7&#45;&gt;phase8 -->
<g id="edge8" class="edge">
<title>phase7&#45;&gt;phase8</title>
<path fill="none" stroke="#2196f3" stroke-width="2.5" d="M925.38,-262.14C925.38,-236.92 925.38,-195 925.38,-195 925.38,-195 928.69,-195 928.69,-195"/>
<polygon fill="#2196f3" stroke="#2196f3" stroke-width="2.5" points="928.69,-198.5 938.69,-195 928.69,-191.5 928.69,-198.5"/>
</g>
<!-- hld_review -->
<g id="node21" class="node">
<title>hld_review</title>
<path fill="#ff9800" stroke="black" d="M903.38,-139.75C903.38,-139.75 822.88,-139.75 822.88,-139.75 816.88,-139.75 810.88,-133.75 810.88,-127.75 810.88,-127.75 810.88,-115.75 810.88,-115.75 810.88,-109.75 816.88,-103.75 822.88,-103.75 822.88,-103.75 903.38,-103.75 903.38,-103.75 909.38,-103.75 915.38,-109.75 915.38,-115.75 915.38,-115.75 915.38,-127.75 915.38,-127.75 915.38,-133.75 909.38,-139.75 903.38,-139.75"/>
<text xml:space="preserve" text-anchor="middle" x="863.12" y="-124.8" font-family="Arial" font-size="11.00" fill="white">/arckit.hld&#45;review</text>
<text xml:space="preserve" text-anchor="middle" x="863.12" y="-111.3" font-family="Arial" font-size="11.00" fill="white">High&#45;Level Design</text>
</g>
<!-- phase8&#45;&gt;hld_review -->
<g id="edge22" class="edge">
<title>phase8&#45;&gt;hld_review</title>
<path fill="none" stroke="#ff9800" stroke-width="1.5" d="M942.28,-207C940.25,-207 939.06,-207 939.06,-207 939.06,-207 939.06,-122 939.06,-122 939.06,-122 928.14,-122 928.14,-122"/>
<polygon fill="#ff9800" stroke="#ff9800" stroke-width="1.5" points="928.14,-118.5 918.14,-122 928.14,-125.5 928.14,-118.5"/>
</g>
<!-- dld_review -->
<g id="node22" class="node">
<title>dld_review</title>
<path fill="#ff9800" stroke="black" d="M1029.62,-139.75C1029.62,-139.75 956.62,-139.75 956.62,-139.75 950.62,-139.75 944.62,-133.75 944.62,-127.75 944.62,-127.75 944.62,-115.75 944.62,-115.75 944.62,-109.75 950.62,-103.75 956.62,-103.75 956.62,-103.75 1029.62,-103.75 1029.62,-103.75 1035.62,-103.75 1041.62,-109.75 1041.62,-115.75 1041.62,-115.75 1041.62,-127.75 1041.62,-127.75 1041.62,-133.75 1035.62,-139.75 1029.62,-139.75"/>
<text xml:space="preserve" text-anchor="middle" x="993.12" y="-124.8" font-family="Arial" font-size="11.00" fill="white">/arckit.dld&#45;review</text>
<text xml:space="preserve" text-anchor="middle" x="993.12" y="-111.3" font-family="Arial" font-size="11.00" fill="white">Detailed Design</text>
</g>
<!-- phase8&#45;&gt;dld_review -->
<g id="edge23" class="edge">
<title>phase8&#45;&gt;dld_review</title>
<path fill="none" stroke="#ff9800" stroke-width="1.5" d="M993.12,-182.81C993.12,-182.81 993.12,-152.36 993.12,-152.36"/>
<polygon fill="#ff9800" stroke="#ff9800" stroke-width="1.5" points="996.63,-152.36 993.13,-142.36 989.63,-152.36 996.63,-152.36"/>
</g>
<!-- phase9 -->
<g id="node23" class="node">
<title>phase9</title>
<path fill="#2196f3" stroke="black" d="M1204,-140C1204,-140 1082.25,-140 1082.25,-140 1076.25,-140 1070.25,-134 1070.25,-128 1070.25,-128 1070.25,-115.5 1070.25,-115.5 1070.25,-109.5 1076.25,-103.5 1082.25,-103.5 1082.25,-103.5 1204,-103.5 1204,-103.5 1210,-103.5 1216,-109.5 1216,-115.5 1216,-115.5 1216,-128 1216,-128 1216,-134 1210,-140 1204,-140"/>
<text xml:space="preserve" text-anchor="middle" x="1143.12" y="-124.6" font-family="Arial Bold" font-size="12.00" fill="white">Phase 9</text>
<text xml:space="preserve" text-anchor="middle" x="1143.12" y="-110.35" font-family="Arial Bold" font-size="12.00" fill="white">Compliance &amp; Delivery</text>
</g>
<!-- phase8&#45;&gt;phase9 -->
<g id="edge9" class="edge">
<title>phase8&#45;&gt;phase9</title>
<path fill="none" stroke="#2196f3" stroke-width="2.5" d="M1043.91,-201C1087.42,-201 1143.12,-201 1143.12,-201 1143.12,-201 1143.12,-153.91 1143.12,-153.91"/>
<polygon fill="#2196f3" stroke="#2196f3" stroke-width="2.5" points="1146.63,-153.91 1143.13,-143.91 1139.63,-153.91 1146.63,-153.91"/>
</g>
<!-- tcop -->
<g id="node24" class="node">
<title>tcop</title>
<path fill="#009688" stroke="black" d="M980.75,-48.25C980.75,-48.25 899.5,-48.25 899.5,-48.25 893.5,-48.25 887.5,-42.25 887.5,-36.25 887.5,-36.25 887.5,-24.25 887.5,-24.25 887.5,-18.25 893.5,-12.25 899.5,-12.25 899.5,-12.25 980.75,-12.25 980.75,-12.25 986.75,-12.25 992.75,-18.25 992.75,-24.25 992.75,-24.25 992.75,-36.25 992.75,-36.25 992.75,-42.25 986.75,-48.25 980.75,-48.25"/>
<text xml:space="preserve" text-anchor="middle" x="940.12" y="-33.3" font-family="Arial" font-size="11.00" fill="white">/arckit.tcop</text>
<text xml:space="preserve" text-anchor="middle" x="940.12" y="-19.8" font-family="Arial" font-size="11.00" fill="white">TCoP Assessment</text>
</g>
<!-- phase9&#45;&gt;tcop -->
<g id="edge24" class="edge">
<title>phase9&#45;&gt;tcop</title>
<path fill="none" stroke="#009688" stroke-width="1.5" d="M1087.79,-103.27C1087.79,-92.89 1087.79,-82 1087.79,-82 1087.79,-82 968.69,-82 968.69,-82 968.69,-82 968.69,-60.91 968.69,-60.91"/>
<polygon fill="#009688" stroke="#009688" stroke-width="1.5" points="972.19,-60.91 968.69,-50.91 965.19,-60.91 972.19,-60.91"/>
</g>
<!-- secure -->
<g id="node25" class="node">
<title>secure</title>
<path fill="#009688" stroke="black" d="M1110.88,-48.25C1110.88,-48.25 1033.38,-48.25 1033.38,-48.25 1027.38,-48.25 1021.38,-42.25 1021.38,-36.25 1021.38,-36.25 1021.38,-24.25 1021.38,-24.25 1021.38,-18.25 1027.38,-12.25 1033.38,-12.25 1033.38,-12.25 1110.88,-12.25 1110.88,-12.25 1116.88,-12.25 1122.88,-18.25 1122.88,-24.25 1122.88,-24.25 1122.88,-36.25 1122.88,-36.25 1122.88,-42.25 1116.88,-48.25 1110.88,-48.25"/>
<text xml:space="preserve" text-anchor="middle" x="1072.12" y="-33.3" font-family="Arial" font-size="11.00" fill="white">/arckit.secure</text>
<text xml:space="preserve" text-anchor="middle" x="1072.12" y="-19.8" font-family="Arial" font-size="11.00" fill="white">Secure by Design</text>
</g>
<!-- phase9&#45;&gt;secure -->
<g id="edge25" class="edge">
<title>phase9&#45;&gt;secure</title>
<path fill="none" stroke="#009688" stroke-width="1.5" d="M1105.33,-103.23C1105.33,-103.23 1105.33,-61.01 1105.33,-61.01"/>
<polygon fill="#009688" stroke="#009688" stroke-width="1.5" points="1108.83,-61.01 1105.33,-51.01 1101.83,-61.01 1108.83,-61.01"/>
</g>
<!-- traceability -->
<g id="node26" class="node">
<title>traceability</title>
<path fill="#009688" stroke="black" d="M1262,-48.25C1262,-48.25 1164.25,-48.25 1164.25,-48.25 1158.25,-48.25 1152.25,-42.25 1152.25,-36.25 1152.25,-36.25 1152.25,-24.25 1152.25,-24.25 1152.25,-18.25 1158.25,-12.25 1164.25,-12.25 1164.25,-12.25 1262,-12.25 1262,-12.25 1268,-12.25 1274,-18.25 1274,-24.25 1274,-24.25 1274,-36.25 1274,-36.25 1274,-42.25 1268,-48.25 1262,-48.25"/>
<text xml:space="preserve" text-anchor="middle" x="1213.12" y="-33.3" font-family="Arial" font-size="11.00" fill="white">/arckit.traceability</text>
<text xml:space="preserve" text-anchor="middle" x="1213.12" y="-19.8" font-family="Arial" font-size="11.00" fill="white">End&#45;to&#45;End Coverage</text>
</g>
<!-- phase9&#45;&gt;traceability -->
<g id="edge26" class="edge">
<title>phase9&#45;&gt;traceability</title>
<path fill="none" stroke="#009688" stroke-width="1.5" d="M1173.5,-103.23C1173.5,-103.23 1173.5,-61.01 1173.5,-61.01"/>
<polygon fill="#009688" stroke="#009688" stroke-width="1.5" points="1177,-61.01 1173.5,-51.01 1170,-61.01 1177,-61.01"/>
</g>
<!-- output -->
<g id="node27" class="node">
<title>output</title>
<path fill="#9c27b0" stroke="black" d="M1410.88,-55C1410.88,-58.03 1386.78,-60.5 1357.12,-60.5 1327.47,-60.5 1303.38,-58.03 1303.38,-55 1303.38,-55 1303.38,-5.5 1303.38,-5.5 1303.38,-2.47 1327.47,0 1357.12,0 1386.78,0 1410.88,-2.47 1410.88,-5.5 1410.88,-5.5 1410.88,-55 1410.88,-55"/>
<path fill="none" stroke="black" d="M1410.88,-55C1410.88,-51.97 1386.78,-49.5 1357.12,-49.5 1327.47,-49.5 1303.38,-51.97 1303.38,-55"/>
<text xml:space="preserve" text-anchor="middle" x="1357.12" y="-38.75" font-family="Arial" font-size="10.00" fill="white">Git&#45;Managed</text>
<text xml:space="preserve" text-anchor="middle" x="1357.12" y="-26.75" font-family="Arial" font-size="10.00" fill="white">Architecture Artifacts</text>
<text xml:space="preserve" text-anchor="middle" x="1357.12" y="-14.75" font-family="Arial" font-size="10.00" fill="white">Version&#45;Controlled</text>
</g>
<!-- phase9&#45;&gt;output -->
<g id="edge10" class="edge">
<title>phase9&#45;&gt;output</title>
<path fill="none" stroke="#9c27b0" stroke-width="2.5" d="M1194.75,-103.24C1194.75,-83.18 1194.75,-54 1194.75,-54 1194.75,-54 1289.27,-54 1289.27,-54"/>
<polygon fill="#9c27b0" stroke="#9c27b0" stroke-width="2.5" points="1289.27,-57.5 1299.27,-54 1289.27,-50.5 1289.27,-57.5"/>
</g>
</g>
</svg>
