<?xml version="1.0" encoding="UTF-8" standalone="no"?>
<!DOCTYPE svg PUBLIC "-//W3C//DTD SVG 1.1//EN"
 "http://www.w3.org/Graphics/SVG/1.1/DTD/svg11.dtd">
<!-- Generated by graphviz version 14.1.2 (0)
 -->
<!-- Title: sumo_rl_workflow Pages: 1 -->
<svg width="1632pt" height="270pt"
 viewBox="-8.0 -8.0 1656.0 261.0" xmlns="http://www.w3.org/2000/svg" xmlns:xlink="http://www.w3.org/1999/xlink">
<g id="graph0" class="graph" transform="scale(1 1) rotate(0) translate(4 265.5)">
<title>sumo_rl_workflow</title>
<text xml:space="preserve" text-anchor="middle" x="812" y="-7.2" font-family="Times New Roman,serif" font-size="14.00">SUMO&#45;RL &#45; Training Workflow</text>
<g id="clust1" class="cluster">
<title>cluster_s12</title>
<polygon fill="none" stroke="black" points="8,-32.5 8,-253.5 204,-253.5 204,-32.5 8,-32.5"/>
<text xml:space="preserve" text-anchor="middle" x="106" y="-236.2" font-family="Times New Roman,serif" font-size="14.00">SUMO&#45;RL &#45; Training Workflow</text>
</g>
<!-- step1 -->
<g id="node1" class="node">
<title>step1</title>
<polygon fill="#4caf50" stroke="black" points="196,-112.5 16,-112.5 16,-40.5 196,-40.5 196,-112.5"/>
<text xml:space="preserve" text-anchor="middle" x="106" y="-79.55" font-family="Arial" font-size="11.00" fill="white">Load Network</text>
<text xml:space="preserve" text-anchor="middle" x="106" y="-66.05" font-family="Arial" font-size="11.00" fill="white">(.net.xml)</text>
</g>
<!-- step3 -->
<g id="node3" class="node">
<title>step3</title>
<path fill="#2196f3" stroke="black" d="M422,-166.5C422,-166.5 266,-166.5 266,-166.5 260,-166.5 254,-160.5 254,-154.5 254,-154.5 254,-106.5 254,-106.5 254,-100.5 260,-94.5 266,-94.5 266,-94.5 422,-94.5 422,-94.5 428,-94.5 434,-100.5 434,-106.5 434,-106.5 434,-154.5 434,-154.5 434,-160.5 428,-166.5 422,-166.5"/>
<text xml:space="preserve" text-anchor="middle" x="344" y="-133.35" font-family="Arial Bold" font-size="12.00" fill="white">Create</text>
<text xml:space="preserve" text-anchor="middle" x="344" y="-119.1" font-family="Arial Bold" font-size="12.00" fill="white">SumoEnvironment</text>
</g>
<!-- step1&#45;&gt;step3 -->
<g id="edge1" class="edge">
<title>step1&#45;&gt;step3</title>
<path fill="none" stroke="#ea580c" stroke-width="2" d="M196.32,-103.5C196.32,-103.5 240.72,-103.5 240.72,-103.5"/>
<polygon fill="#ea580c" stroke="#ea580c" stroke-width="2" points="240.72,-107 250.72,-103.5 240.72,-100 240.72,-107"/>
</g>
<!-- step2 -->
<g id="node2" class="node">
<title>step2</title>
<polygon fill="#4caf50" stroke="black" points="196,-220.5 16,-220.5 16,-148.5 196,-148.5 196,-220.5"/>
<text xml:space="preserve" text-anchor="middle" x="106" y="-187.55" font-family="Arial" font-size="11.00" fill="white">Load Routes</text>
<text xml:space="preserve" text-anchor="middle" x="106" y="-174.05" font-family="Arial" font-size="11.00" fill="white">(.rou.xml)</text>
</g>
<!-- step2&#45;&gt;step3 -->
<g id="edge2" class="edge">
<title>step2&#45;&gt;step3</title>
<path fill="none" stroke="#ea580c" stroke-width="2" d="M196.32,-157.5C196.32,-157.5 240.72,-157.5 240.72,-157.5"/>
<polygon fill="#ea580c" stroke="#ea580c" stroke-width="2" points="240.72,-161 250.72,-157.5 240.72,-154 240.72,-161"/>
</g>
<!-- step4 -->
<g id="node4" class="node">
<title>step4</title>
<path fill="#9c27b0" stroke="black" d="M660,-166.5C660,-166.5 504,-166.5 504,-166.5 498,-166.5 492,-160.5 492,-154.5 492,-154.5 492,-106.5 492,-106.5 492,-100.5 498,-94.5 504,-94.5 504,-94.5 660,-94.5 660,-94.5 666,-94.5 672,-100.5 672,-106.5 672,-106.5 672,-154.5 672,-154.5 672,-160.5 666,-166.5 660,-166.5"/>
<text xml:space="preserve" text-anchor="middle" x="582" y="-140.3" font-family="Arial" font-size="11.00" fill="white">Configure</text>
<text xml:space="preserve" text-anchor="middle" x="582" y="-126.8" font-family="Arial" font-size="11.00" fill="white">Observation</text>
<text xml:space="preserve" text-anchor="middle" x="582" y="-113.3" font-family="Arial" font-size="11.00" fill="white">Function</text>
</g>
<!-- step3&#45;&gt;step4 -->
<g id="edge3" class="edge">
<title>step3&#45;&gt;step4</title>
<path fill="none" stroke="#ea580c" stroke-width="2" d="M434.32,-130.5C434.32,-130.5 478.72,-130.5 478.72,-130.5"/>
<polygon fill="#ea580c" stroke="#ea580c" stroke-width="2" points="478.72,-134 488.72,-130.5 478.72,-127 478.72,-134"/>
</g>
<!-- step5 -->
<g id="node5" class="node">
<title>step5</title>
<path fill="#9c27b0" stroke="black" d="M898,-166.5C898,-166.5 742,-166.5 742,-166.5 736,-166.5 730,-160.5 730,-154.5 730,-154.5 730,-106.5 730,-106.5 730,-100.5 736,-94.5 742,-94.5 742,-94.5 898,-94.5 898,-94.5 904,-94.5 910,-100.5 910,-106.5 910,-106.5 910,-154.5 910,-154.5 910,-160.5 904,-166.5 898,-166.5"/>
<text xml:space="preserve" text-anchor="middle" x="820" y="-133.55" font-family="Arial" font-size="11.00" fill="white">Select</text>
<text xml:space="preserve" text-anchor="middle" x="820" y="-120.05" font-family="Arial" font-size="11.00" fill="white">Reward Function</text>
</g>
<!-- step4&#45;&gt;step5 -->
<g id="edge4" class="edge">
<title>step4&#45;&gt;step5</title>
<path fill="none" stroke="#ea580c" stroke-width="2" d="M672.32,-130.5C672.32,-130.5 716.72,-130.5 716.72,-130.5"/>
<polygon fill="#ea580c" stroke="#ea580c" stroke-width="2" points="716.72,-134 726.72,-130.5 716.72,-127 716.72,-134"/>
</g>
<!-- step6 -->
<g id="node6" class="node">
<title>step6</title>
<path fill="#ff9800" stroke="black" d="M1136,-166.5C1136,-166.5 980,-166.5 980,-166.5 974,-166.5 968,-160.5 968,-154.5 968,-154.5 968,-106.5 968,-106.5 968,-100.5 974,-94.5 980,-94.5 980,-94.5 1136,-94.5 1136,-94.5 1142,-94.5 1148,-100.5 1148,-106.5 1148,-106.5 1148,-154.5 1148,-154.5 1148,-160.5 1142,-166.5 1136,-166.5"/>
<text xml:space="preserve" text-anchor="middle" x="1058" y="-133.55" font-family="Arial" font-size="11.00" fill="white">Initialize</text>
<text xml:space="preserve" text-anchor="middle" x="1058" y="-120.05" font-family="Arial" font-size="11.00" fill="white">RL Agent</text>
</g>
<!-- step5&#45;&gt;step6 -->
<g id="edge5" class="edge">
<title>step5&#45;&gt;step6</title>
<path fill="none" stroke="#ea580c" stroke-width="2" d="M910.32,-130.5C910.32,-130.5 954.72,-130.5 954.72,-130.5"/>
<polygon fill="#ea580c" stroke="#ea580c" stroke-width="2" points="954.72,-134 964.72,-130.5 954.72,-127 954.72,-134"/>
</g>
<!-- step7 -->
<g id="node7" class="node">
<title>step7</title>
<path fill="#2196f3" stroke="black" d="M1374,-166.5C1374,-166.5 1218,-166.5 1218,-166.5 1212,-166.5 1206,-160.5 1206,-154.5 1206,-154.5 1206,-106.5 1206,-106.5 1206,-100.5 1212,-94.5 1218,-94.5 1218,-94.5 1374,-94.5 1374,-94.5 1380,-94.5 1386,-100.5 1386,-106.5 1386,-106.5 1386,-154.5 1386,-154.5 1386,-160.5 1380,-166.5 1374,-166.5"/>
<text xml:space="preserve" text-anchor="middle" x="1296" y="-140.47" font-family="Arial Bold" font-size="12.00" fill="white">Training Loop</text>
<text xml:space="preserve" text-anchor="middle" x="1296" y="-126.22" font-family="Arial Bold" font-size="12.00" fill="white">(step, learn,</text>
<text xml:space="preserve" text-anchor="middle" x="1296" y="-111.97" font-family="Arial Bold" font-size="12.00" fill="white">update)</text>
</g>
<!-- step6&#45;&gt;step7 -->
<g id="edge6" class="edge">
<title>step6&#45;&gt;step7</title>
<path fill="none" stroke="#ea580c" stroke-width="2" d="M1148.32,-130.5C1148.32,-130.5 1192.72,-130.5 1192.72,-130.5"/>
<polygon fill="#ea580c" stroke="#ea580c" stroke-width="2" points="1192.72,-134 1202.72,-130.5 1192.72,-127 1192.72,-134"/>
</g>
<!-- step8 -->
<g id="node8" class="node">
<title>step8</title>
<polygon fill="#f44336" stroke="black" points="1624,-166.5 1444,-166.5 1444,-94.5 1624,-94.5 1624,-166.5"/>
<text xml:space="preserve" text-anchor="middle" x="1534" y="-133.55" font-family="Arial" font-size="11.00" fill="white">Evaluate &amp;</text>
<text xml:space="preserve" text-anchor="middle" x="1534" y="-120.05" font-family="Arial" font-size="11.00" fill="white">Export Metrics</text>
</g>
<!-- step7&#45;&gt;step8 -->
<g id="edge7" class="edge">
<title>step7&#45;&gt;step8</title>
<path fill="none" stroke="#ea580c" stroke-width="2" d="M1386.32,-130.5C1386.32,-130.5 1430.72,-130.5 1430.72,-130.5"/>
<polygon fill="#ea580c" stroke="#ea580c" stroke-width="2" points="1430.72,-134 1440.72,-130.5 1430.72,-127 1430.72,-134"/>
</g>
</g>
</svg>
