<?xml version="1.0" encoding="UTF-8" standalone="no"?>
<!DOCTYPE svg PUBLIC "-//W3C//DTD SVG 1.1//EN"
 "http://www.w3.org/Graphics/SVG/1.1/DTD/svg11.dtd">
<!-- Generated by graphviz version 14.1.4 (20260321.0153)
 -->
<!-- Title: dart_types Pages: 1 -->
<svg width="703pt" height="283pt"
 viewBox="0.00 0.00 703.00 283.00" xmlns="http://www.w3.org/2000/svg" xmlns:xlink="http://www.w3.org/1999/xlink">
<style>
text { paint-order: stroke; stroke: #ffffff; stroke-width: 3px; stroke-linejoin: round; fill: #1a1a2e; }
</style>
<g id="graph0" class="graph" transform="scale(1 1) rotate(0) translate(4 278.5)">
<title>dart_types</title>
<polygon fill="white" stroke="none" points="-4,4 -4,-278.5 699.38,-278.5 699.38,4 -4,4"/>
<text xml:space="preserve" text-anchor="middle" x="347.69" y="-7.2" font-family="Times New Roman,serif" font-size="14.00">Dart Type System &#45; Sound Null Safety + Generics</text>
<!-- title -->
<g id="node1" class="node">
<title>title</title>
<path fill="#1565c0" stroke="black" d="M405.38,-274.5C405.38,-274.5 344.38,-274.5 344.38,-274.5 338.38,-274.5 332.38,-268.5 332.38,-262.5 332.38,-262.5 332.38,-250.5 332.38,-250.5 332.38,-244.5 338.38,-238.5 344.38,-238.5 344.38,-238.5 405.38,-238.5 405.38,-238.5 411.38,-238.5 417.38,-244.5 417.38,-250.5 417.38,-250.5 417.38,-262.5 417.38,-262.5 417.38,-268.5 411.38,-274.5 405.38,-274.5"/>
<text xml:space="preserve" text-anchor="middle" x="374.88" y="-251.07" font-family="Arial Bold" font-size="14.00" fill="#ffffff">Dart Types</text>
</g>
<!-- null -->
<g id="node2" class="node">
<title>null</title>
<path fill="#2196f3" stroke="black" d="M157.75,-180.5C157.75,-180.5 12,-180.5 12,-180.5 6,-180.5 0,-174.5 0,-168.5 0,-168.5 0,-130.5 0,-130.5 0,-124.5 6,-118.5 12,-118.5 12,-118.5 157.75,-118.5 157.75,-118.5 163.75,-118.5 169.75,-124.5 169.75,-130.5 169.75,-130.5 169.75,-168.5 169.75,-168.5 169.75,-174.5 163.75,-180.5 157.75,-180.5"/>
<text xml:space="preserve" text-anchor="middle" x="84.88" y="-166.05" font-family="Arial Bold" font-size="11.00" fill="#ffffff">Sound Null Safety</text>
<text xml:space="preserve" text-anchor="middle" x="84.88" y="-152.55" font-family="Arial Bold" font-size="11.00" fill="#ffffff">String non&#45;null</text>
<text xml:space="preserve" text-anchor="middle" x="84.88" y="-139.05" font-family="Arial Bold" font-size="11.00" fill="#ffffff">String? nullable</text>
<text xml:space="preserve" text-anchor="middle" x="84.88" y="-125.55" font-family="Arial Bold" font-size="11.00" fill="#ffffff">?. safe call, ?? default, ! force</text>
</g>
<!-- title&#45;&gt;null -->
<g id="edge1" class="edge">
<title>title&#45;&gt;null</title>
<path fill="none" stroke="#4caf50" stroke-width="2" d="M332.08,-256.5C251.42,-256.5 84.88,-256.5 84.88,-256.5 84.88,-256.5 84.88,-193.76 84.88,-193.76"/>
<polygon fill="#4caf50" stroke="#4caf50" stroke-width="2" points="88.38,-193.76 84.88,-183.76 81.38,-193.76 88.38,-193.76"/>
</g>
<!-- gen -->
<g id="node3" class="node">
<title>gen</title>
<path fill="#2196f3" stroke="black" d="M348.25,-180.5C348.25,-180.5 217.5,-180.5 217.5,-180.5 211.5,-180.5 205.5,-174.5 205.5,-168.5 205.5,-168.5 205.5,-130.5 205.5,-130.5 205.5,-124.5 211.5,-118.5 217.5,-118.5 217.5,-118.5 348.25,-118.5 348.25,-118.5 354.25,-118.5 360.25,-124.5 360.25,-130.5 360.25,-130.5 360.25,-168.5 360.25,-168.5 360.25,-174.5 354.25,-180.5 348.25,-180.5"/>
<text xml:space="preserve" text-anchor="middle" x="282.88" y="-166.05" font-family="Arial Bold" font-size="11.00" fill="#ffffff">Generics</text>
<text xml:space="preserve" text-anchor="middle" x="282.88" y="-152.55" font-family="Arial Bold" font-size="11.00" fill="#ffffff">List&lt;T&gt;, Map&lt;K,V&gt;</text>
<text xml:space="preserve" text-anchor="middle" x="282.88" y="-139.05" font-family="Arial Bold" font-size="11.00" fill="#ffffff">class Box&lt;T&gt;</text>
<text xml:space="preserve" text-anchor="middle" x="282.88" y="-125.55" font-family="Arial Bold" font-size="11.00" fill="#ffffff">Bounds: &lt;T extends num&gt;</text>
</g>
<!-- title&#45;&gt;gen -->
<g id="edge2" class="edge">
<title>title&#45;&gt;gen</title>
<path fill="none" stroke="#00bcd4" stroke-width="2" d="M346.31,-238.35C346.31,-238.35 346.31,-193.79 346.31,-193.79"/>
<polygon fill="#00bcd4" stroke="#00bcd4" stroke-width="2" points="349.81,-193.79 346.31,-183.79 342.81,-193.79 349.81,-193.79"/>
</g>
<!-- col -->
<g id="node4" class="node">
<title>col</title>
<path fill="#2196f3" stroke="black" d="M525.88,-180.5C525.88,-180.5 407.88,-180.5 407.88,-180.5 401.88,-180.5 395.88,-174.5 395.88,-168.5 395.88,-168.5 395.88,-130.5 395.88,-130.5 395.88,-124.5 401.88,-118.5 407.88,-118.5 407.88,-118.5 525.88,-118.5 525.88,-118.5 531.88,-118.5 537.88,-124.5 537.88,-130.5 537.88,-130.5 537.88,-168.5 537.88,-168.5 537.88,-174.5 531.88,-180.5 525.88,-180.5"/>
<text xml:space="preserve" text-anchor="middle" x="466.88" y="-166.05" font-family="Arial Bold" font-size="11.00" fill="#ffffff">Collections</text>
<text xml:space="preserve" text-anchor="middle" x="466.88" y="-152.55" font-family="Arial Bold" font-size="11.00" fill="#ffffff">List, Set, Map</text>
<text xml:space="preserve" text-anchor="middle" x="466.88" y="-139.05" font-family="Arial Bold" font-size="11.00" fill="#ffffff">List&lt;int&gt;, spread ...</text>
<text xml:space="preserve" text-anchor="middle" x="466.88" y="-125.55" font-family="Arial Bold" font-size="11.00" fill="#ffffff">records (int, String) (3+)</text>
</g>
<!-- title&#45;&gt;col -->
<g id="edge3" class="edge">
<title>title&#45;&gt;col</title>
<path fill="none" stroke="#ff9800" stroke-width="2" d="M406.62,-238.35C406.62,-238.35 406.62,-193.79 406.62,-193.79"/>
<polygon fill="#ff9800" stroke="#ff9800" stroke-width="2" points="410.13,-193.79 406.63,-183.79 403.13,-193.79 410.13,-193.79"/>
</g>
<!-- pat -->
<g id="node5" class="node">
<title>pat</title>
<path fill="#bbdefb" stroke="black" d="M683.38,-177.5C683.38,-177.5 586.38,-177.5 586.38,-177.5 580.38,-177.5 574.38,-171.5 574.38,-165.5 574.38,-165.5 574.38,-133.5 574.38,-133.5 574.38,-127.5 580.38,-121.5 586.38,-121.5 586.38,-121.5 683.38,-121.5 683.38,-121.5 689.38,-121.5 695.38,-127.5 695.38,-133.5 695.38,-133.5 695.38,-165.5 695.38,-165.5 695.38,-171.5 689.38,-177.5 683.38,-177.5"/>
<text xml:space="preserve" text-anchor="middle" x="634.88" y="-164" font-family="Arial" font-size="10.00" fill="#1a1a2e">Patterns (3+)</text>
<text xml:space="preserve" text-anchor="middle" x="634.88" y="-152" font-family="Arial" font-size="10.00" fill="#1a1a2e">if (p case (x, y))</text>
<text xml:space="preserve" text-anchor="middle" x="634.88" y="-140" font-family="Arial" font-size="10.00" fill="#1a1a2e">switch with patterns</text>
<text xml:space="preserve" text-anchor="middle" x="634.88" y="-128" font-family="Arial" font-size="10.00" fill="#1a1a2e">destructure records/lists</text>
</g>
<!-- title&#45;&gt;pat -->
<g id="edge4" class="edge">
<title>title&#45;&gt;pat</title>
<path fill="none" stroke="#9c27b0" stroke-width="2" d="M417.81,-256.5C491.66,-256.5 634.88,-256.5 634.88,-256.5 634.88,-256.5 634.88,-190.92 634.88,-190.92"/>
<polygon fill="#9c27b0" stroke="#9c27b0" stroke-width="2" points="638.38,-190.92 634.88,-180.92 631.38,-190.92 638.38,-190.92"/>
</g>
<!-- out -->
<g id="node6" class="node">
<title>out</title>
<polygon fill="#ff9800" stroke="black" points="244,-60.5 123.75,-60.5 123.75,-24.5 244,-24.5 244,-60.5"/>
<text xml:space="preserve" text-anchor="middle" x="183.88" y="-45.55" font-family="Arial" font-size="11.00" fill="#ffffff">Compile&#45;time safety</text>
<text xml:space="preserve" text-anchor="middle" x="183.88" y="-32.05" font-family="Arial" font-size="11.00" fill="#ffffff">null bugs caught early</text>
</g>
<!-- null&#45;&gt;out -->
<g id="edge5" class="edge">
<title>null&#45;&gt;out</title>
<path fill="none" stroke="#f44336" stroke-width="2" d="M146.75,-118.26C146.75,-118.26 146.75,-73.91 146.75,-73.91"/>
<polygon fill="#f44336" stroke="#f44336" stroke-width="2" points="150.25,-73.91 146.75,-63.91 143.25,-73.91 150.25,-73.91"/>
</g>
<!-- gen&#45;&gt;out -->
<g id="edge6" class="edge">
<title>gen&#45;&gt;out</title>
<path fill="none" stroke="#f44336" stroke-width="2" d="M224.75,-118.26C224.75,-118.26 224.75,-73.91 224.75,-73.91"/>
<polygon fill="#f44336" stroke="#f44336" stroke-width="2" points="228.25,-73.91 224.75,-63.91 221.25,-73.91 228.25,-73.91"/>
</g>
</g>
</svg>
