<?xml version="1.0" encoding="UTF-8" standalone="no"?>
<!DOCTYPE svg PUBLIC "-//W3C//DTD SVG 1.1//EN"
 "http://www.w3.org/Graphics/SVG/1.1/DTD/svg11.dtd">
<!-- Generated by graphviz version 14.1.4 (20260321.0153)
 -->
<!-- Title: dart_feat Pages: 1 -->
<svg width="2723pt" height="257pt"
 viewBox="0.00 0.00 2723.00 257.00" xmlns="http://www.w3.org/2000/svg" xmlns:xlink="http://www.w3.org/1999/xlink">
<style>
text { paint-order: stroke; stroke: #ffffff; stroke-width: 3px; stroke-linejoin: round; fill: #1a1a2e; }
</style>
<g id="graph0" class="graph" transform="scale(1 1) rotate(0) translate(4 252.5)">
<title>dart_feat</title>
<polygon fill="white" stroke="none" points="-4,4 -4,-252.5 2719.38,-252.5 2719.38,4 -4,4"/>
<text xml:space="preserve" text-anchor="middle" x="1357.69" y="-7.2" font-family="Times New Roman,serif" font-size="14.00">Dart Core Features</text>
<!-- title -->
<g id="node1" class="node">
<title>title</title>
<path fill="#1565c0" stroke="black" d="M1386.12,-248.5C1386.12,-248.5 1235.88,-248.5 1235.88,-248.5 1229.88,-248.5 1223.88,-242.5 1223.88,-236.5 1223.88,-236.5 1223.88,-224.5 1223.88,-224.5 1223.88,-218.5 1229.88,-212.5 1235.88,-212.5 1235.88,-212.5 1386.12,-212.5 1386.12,-212.5 1392.12,-212.5 1398.12,-218.5 1398.12,-224.5 1398.12,-224.5 1398.12,-236.5 1398.12,-236.5 1398.12,-242.5 1392.12,-248.5 1386.12,-248.5"/>
<text xml:space="preserve" text-anchor="middle" x="1311" y="-225.07" font-family="Arial Bold" font-size="14.00" fill="#ffffff">Core Language Features</text>
</g>
<!-- cls -->
<g id="node2" class="node">
<title>cls</title>
<path fill="#2196f3" stroke="black" d="M414.88,-154.5C414.88,-154.5 299.12,-154.5 299.12,-154.5 293.12,-154.5 287.12,-148.5 287.12,-142.5 287.12,-142.5 287.12,-130.5 287.12,-130.5 287.12,-124.5 293.12,-118.5 299.12,-118.5 299.12,-118.5 414.88,-118.5 414.88,-118.5 420.88,-118.5 426.88,-124.5 426.88,-130.5 426.88,-130.5 426.88,-142.5 426.88,-142.5 426.88,-148.5 420.88,-154.5 414.88,-154.5"/>
<text xml:space="preserve" text-anchor="middle" x="357" y="-132.8" font-family="Arial Bold" font-size="11.00" fill="#ffffff">Classes + Constructors</text>
</g>
<!-- title&#45;&gt;cls -->
<g id="edge1" class="edge">
<title>title&#45;&gt;cls</title>
<path fill="none" stroke="#4caf50" stroke-width="2" d="M1223.39,-230.5C987.55,-230.5 357,-230.5 357,-230.5 357,-230.5 357,-167.65 357,-167.65"/>
<polygon fill="#4caf50" stroke="#4caf50" stroke-width="2" points="360.5,-167.65 357,-157.65 353.5,-167.65 360.5,-167.65"/>
</g>
<!-- oinh -->
<g id="node7" class="node">
<title>oinh</title>
<path fill="#2196f3" stroke="black" d="M851.25,-154.5C851.25,-154.5 788.75,-154.5 788.75,-154.5 782.75,-154.5 776.75,-148.5 776.75,-142.5 776.75,-142.5 776.75,-130.5 776.75,-130.5 776.75,-124.5 782.75,-118.5 788.75,-118.5 788.75,-118.5 851.25,-118.5 851.25,-118.5 857.25,-118.5 863.25,-124.5 863.25,-130.5 863.25,-130.5 863.25,-142.5 863.25,-142.5 863.25,-148.5 857.25,-154.5 851.25,-154.5"/>
<text xml:space="preserve" text-anchor="middle" x="820" y="-132.8" font-family="Arial Bold" font-size="11.00" fill="#ffffff">OOP + Mixins</text>
</g>
<!-- title&#45;&gt;oinh -->
<g id="edge6" class="edge">
<title>title&#45;&gt;oinh</title>
<path fill="none" stroke="#00bcd4" stroke-width="2" d="M1233.81,-212.27C1233.81,-186.49 1233.81,-142.5 1233.81,-142.5 1233.81,-142.5 876.53,-142.5 876.53,-142.5"/>
<polygon fill="#00bcd4" stroke="#00bcd4" stroke-width="2" points="876.53,-139 866.53,-142.5 876.53,-146 876.53,-139"/>
</g>
<!-- ext -->
<g id="node11" class="node">
<title>ext</title>
<path fill="#2196f3" stroke="black" d="M1366.25,-154.5C1366.25,-154.5 1255.75,-154.5 1255.75,-154.5 1249.75,-154.5 1243.75,-148.5 1243.75,-142.5 1243.75,-142.5 1243.75,-130.5 1243.75,-130.5 1243.75,-124.5 1249.75,-118.5 1255.75,-118.5 1255.75,-118.5 1366.25,-118.5 1366.25,-118.5 1372.25,-118.5 1378.25,-124.5 1378.25,-130.5 1378.25,-130.5 1378.25,-142.5 1378.25,-142.5 1378.25,-148.5 1372.25,-154.5 1366.25,-154.5"/>
<text xml:space="preserve" text-anchor="middle" x="1311" y="-132.8" font-family="Arial Bold" font-size="11.00" fill="#ffffff">Extensions + Typedefs</text>
</g>
<!-- title&#45;&gt;ext -->
<g id="edge10" class="edge">
<title>title&#45;&gt;ext</title>
<path fill="none" stroke="#ff9800" stroke-width="2" d="M1311,-212.38C1311,-212.38 1311,-167.92 1311,-167.92"/>
<polygon fill="#ff9800" stroke="#ff9800" stroke-width="2" points="1314.5,-167.92 1311,-157.92 1307.5,-167.92 1314.5,-167.92"/>
</g>
<!-- asy -->
<g id="node16" class="node">
<title>asy</title>
<path fill="#2196f3" stroke="black" d="M1891.12,-154.5C1891.12,-154.5 1812.88,-154.5 1812.88,-154.5 1806.88,-154.5 1800.88,-148.5 1800.88,-142.5 1800.88,-142.5 1800.88,-130.5 1800.88,-130.5 1800.88,-124.5 1806.88,-118.5 1812.88,-118.5 1812.88,-118.5 1891.12,-118.5 1891.12,-118.5 1897.12,-118.5 1903.12,-124.5 1903.12,-130.5 1903.12,-130.5 1903.12,-142.5 1903.12,-142.5 1903.12,-148.5 1897.12,-154.5 1891.12,-154.5"/>
<text xml:space="preserve" text-anchor="middle" x="1852" y="-132.8" font-family="Arial Bold" font-size="11.00" fill="#ffffff">Async + Futures</text>
</g>
<!-- title&#45;&gt;asy -->
<g id="edge15" class="edge">
<title>title&#45;&gt;asy</title>
<path fill="none" stroke="#9c27b0" stroke-width="2" d="M1388.19,-212.06C1388.19,-187.06 1388.19,-145.5 1388.19,-145.5 1388.19,-145.5 1787.56,-145.5 1787.56,-145.5"/>
<polygon fill="#9c27b0" stroke="#9c27b0" stroke-width="2" points="1787.56,-149 1797.56,-145.5 1787.56,-142 1787.56,-149"/>
</g>
<!-- lib -->
<g id="node21" class="node">
<title>lib</title>
<path fill="#2196f3" stroke="black" d="M2428.12,-154.5C2428.12,-154.5 2337.88,-154.5 2337.88,-154.5 2331.88,-154.5 2325.88,-148.5 2325.88,-142.5 2325.88,-142.5 2325.88,-130.5 2325.88,-130.5 2325.88,-124.5 2331.88,-118.5 2337.88,-118.5 2337.88,-118.5 2428.12,-118.5 2428.12,-118.5 2434.12,-118.5 2440.12,-124.5 2440.12,-130.5 2440.12,-130.5 2440.12,-142.5 2440.12,-142.5 2440.12,-148.5 2434.12,-154.5 2428.12,-154.5"/>
<text xml:space="preserve" text-anchor="middle" x="2383" y="-132.8" font-family="Arial Bold" font-size="11.00" fill="#ffffff">Libraries + Privacy</text>
</g>
<!-- title&#45;&gt;lib -->
<g id="edge20" class="edge">
<title>title&#45;&gt;lib</title>
<path fill="none" stroke="#f44336" stroke-width="2" d="M1398.27,-230.5C1653.89,-230.5 2383,-230.5 2383,-230.5 2383,-230.5 2383,-167.65 2383,-167.65"/>
<polygon fill="#f44336" stroke="#f44336" stroke-width="2" points="2386.5,-167.65 2383,-157.65 2379.5,-167.65 2386.5,-167.65"/>
</g>
<!-- cls_0 -->
<g id="node3" class="node">
<title>cls_0</title>
<path fill="#bbdefb" stroke="black" d="M100,-60.5C100,-60.5 12,-60.5 12,-60.5 6,-60.5 0,-54.5 0,-48.5 0,-48.5 0,-36.5 0,-36.5 0,-30.5 6,-24.5 12,-24.5 12,-24.5 100,-24.5 100,-24.5 106,-24.5 112,-30.5 112,-36.5 112,-36.5 112,-48.5 112,-48.5 112,-54.5 106,-60.5 100,-60.5"/>
<text xml:space="preserve" text-anchor="middle" x="56" y="-39" font-family="Arial" font-size="10.00" fill="#1a1a2e">class, fields, methods</text>
</g>
<!-- cls&#45;&gt;cls_0 -->
<g id="edge2" class="edge">
<title>cls&#45;&gt;cls_0</title>
<path fill="none" stroke="#4caf50" stroke-width="1.5" d="M286.81,-136.5C197.87,-136.5 56,-136.5 56,-136.5 56,-136.5 56,-72.89 56,-72.89"/>
<polygon fill="#4caf50" stroke="#4caf50" stroke-width="1.5" points="59.5,-72.89 56,-62.89 52.5,-72.89 59.5,-72.89"/>
</g>
<!-- cls_1 -->
<g id="node4" class="node">
<title>cls_1</title>
<path fill="#bbdefb" stroke="black" d="M266,-60.5C266,-60.5 160,-60.5 160,-60.5 154,-60.5 148,-54.5 148,-48.5 148,-48.5 148,-36.5 148,-36.5 148,-30.5 154,-24.5 160,-24.5 160,-24.5 266,-24.5 266,-24.5 272,-24.5 278,-30.5 278,-36.5 278,-36.5 278,-48.5 278,-48.5 278,-54.5 272,-60.5 266,-60.5"/>
<text xml:space="preserve" text-anchor="middle" x="213" y="-39" font-family="Arial" font-size="10.00" fill="#1a1a2e">named/const/factory ctors</text>
</g>
<!-- cls&#45;&gt;cls_1 -->
<g id="edge3" class="edge">
<title>cls&#45;&gt;cls_1</title>
<path fill="none" stroke="#4caf50" stroke-width="1.5" d="M300.62,-118.38C300.62,-91.06 300.62,-42.5 300.62,-42.5 300.62,-42.5 290.33,-42.5 290.33,-42.5"/>
<polygon fill="#4caf50" stroke="#4caf50" stroke-width="1.5" points="290.33,-39 280.33,-42.5 290.33,-46 290.33,-39"/>
</g>
<!-- cls_2 -->
<g id="node5" class="node">
<title>cls_2</title>
<path fill="#bbdefb" stroke="black" d="M387.88,-60.5C387.88,-60.5 326.12,-60.5 326.12,-60.5 320.12,-60.5 314.12,-54.5 314.12,-48.5 314.12,-48.5 314.12,-36.5 314.12,-36.5 314.12,-30.5 320.12,-24.5 326.12,-24.5 326.12,-24.5 387.88,-24.5 387.88,-24.5 393.88,-24.5 399.88,-30.5 399.88,-36.5 399.88,-36.5 399.88,-48.5 399.88,-48.5 399.88,-54.5 393.88,-60.5 387.88,-60.5"/>
<text xml:space="preserve" text-anchor="middle" x="357" y="-39" font-family="Arial" font-size="10.00" fill="#1a1a2e">this.x shorthand</text>
</g>
<!-- cls&#45;&gt;cls_2 -->
<g id="edge4" class="edge">
<title>cls&#45;&gt;cls_2</title>
<path fill="none" stroke="#4caf50" stroke-width="1.5" d="M357,-118.38C357,-118.38 357,-73.16 357,-73.16"/>
<polygon fill="#4caf50" stroke="#4caf50" stroke-width="1.5" points="360.5,-73.16 357,-63.16 353.5,-73.16 360.5,-73.16"/>
</g>
<!-- cls_3 -->
<g id="node6" class="node">
<title>cls_3</title>
<path fill="#bbdefb" stroke="black" d="M507.75,-60.5C507.75,-60.5 448.25,-60.5 448.25,-60.5 442.25,-60.5 436.25,-54.5 436.25,-48.5 436.25,-48.5 436.25,-36.5 436.25,-36.5 436.25,-30.5 442.25,-24.5 448.25,-24.5 448.25,-24.5 507.75,-24.5 507.75,-24.5 513.75,-24.5 519.75,-30.5 519.75,-36.5 519.75,-36.5 519.75,-48.5 519.75,-48.5 519.75,-54.5 513.75,-60.5 507.75,-60.5"/>
<text xml:space="preserve" text-anchor="middle" x="478" y="-39" font-family="Arial" font-size="10.00" fill="#1a1a2e">static members</text>
</g>
<!-- cls&#45;&gt;cls_3 -->
<g id="edge5" class="edge">
<title>cls&#45;&gt;cls_3</title>
<path fill="none" stroke="#4caf50" stroke-width="1.5" d="M413.38,-118.38C413.38,-91.06 413.38,-42.5 413.38,-42.5 413.38,-42.5 423.71,-42.5 423.71,-42.5"/>
<polygon fill="#4caf50" stroke="#4caf50" stroke-width="1.5" points="423.71,-46 433.71,-42.5 423.71,-39 423.71,-46"/>
</g>
<!-- oinh_0 -->
<g id="node8" class="node">
<title>oinh_0</title>
<path fill="#bbdefb" stroke="black" d="M650.38,-60.5C650.38,-60.5 567.62,-60.5 567.62,-60.5 561.62,-60.5 555.62,-54.5 555.62,-48.5 555.62,-48.5 555.62,-36.5 555.62,-36.5 555.62,-30.5 561.62,-24.5 567.62,-24.5 567.62,-24.5 650.38,-24.5 650.38,-24.5 656.38,-24.5 662.38,-30.5 662.38,-36.5 662.38,-36.5 662.38,-48.5 662.38,-48.5 662.38,-54.5 656.38,-60.5 650.38,-60.5"/>
<text xml:space="preserve" text-anchor="middle" x="609" y="-39" font-family="Arial" font-size="10.00" fill="#1a1a2e">extends, implements</text>
</g>
<!-- oinh&#45;&gt;oinh_0 -->
<g id="edge7" class="edge">
<title>oinh&#45;&gt;oinh_0</title>
<path fill="none" stroke="#00bcd4" stroke-width="1.5" d="M776.28,-136.5C714.48,-136.5 609,-136.5 609,-136.5 609,-136.5 609,-72.89 609,-72.89"/>
<polygon fill="#00bcd4" stroke="#00bcd4" stroke-width="1.5" points="612.5,-72.89 609,-62.89 605.5,-72.89 612.5,-72.89"/>
</g>
<!-- oinh_1 -->
<g id="node9" class="node">
<title>oinh_1</title>
<path fill="#bbdefb" stroke="black" d="M789.12,-60.5C789.12,-60.5 710.88,-60.5 710.88,-60.5 704.88,-60.5 698.88,-54.5 698.88,-48.5 698.88,-48.5 698.88,-36.5 698.88,-36.5 698.88,-30.5 704.88,-24.5 710.88,-24.5 710.88,-24.5 789.12,-24.5 789.12,-24.5 795.12,-24.5 801.12,-30.5 801.12,-36.5 801.12,-36.5 801.12,-48.5 801.12,-48.5 801.12,-54.5 795.12,-60.5 789.12,-60.5"/>
<text xml:space="preserve" text-anchor="middle" x="750" y="-39" font-family="Arial" font-size="10.00" fill="#1a1a2e">mixin + with (reuse)</text>
</g>
<!-- oinh&#45;&gt;oinh_1 -->
<g id="edge8" class="edge">
<title>oinh&#45;&gt;oinh_1</title>
<path fill="none" stroke="#00bcd4" stroke-width="1.5" d="M788.94,-118.38C788.94,-118.38 788.94,-73.16 788.94,-73.16"/>
<polygon fill="#00bcd4" stroke="#00bcd4" stroke-width="1.5" points="792.44,-73.16 788.94,-63.16 785.44,-73.16 792.44,-73.16"/>
</g>
<!-- oinh_2 -->
<g id="node10" class="node">
<title>oinh_2</title>
<path fill="#bbdefb" stroke="black" d="M931,-60.5C931,-60.5 849,-60.5 849,-60.5 843,-60.5 837,-54.5 837,-48.5 837,-48.5 837,-36.5 837,-36.5 837,-30.5 843,-24.5 849,-24.5 849,-24.5 931,-24.5 931,-24.5 937,-24.5 943,-30.5 943,-36.5 943,-36.5 943,-48.5 943,-48.5 943,-54.5 937,-60.5 931,-60.5"/>
<text xml:space="preserve" text-anchor="middle" x="890" y="-45" font-family="Arial" font-size="10.00" fill="#1a1a2e">abstract, sealed (3+)</text>
<text xml:space="preserve" text-anchor="middle" x="890" y="-33" font-family="Arial" font-size="10.00" fill="#1a1a2e">enum enhanced</text>
</g>
<!-- oinh&#45;&gt;oinh_2 -->
<g id="edge9" class="edge">
<title>oinh&#45;&gt;oinh_2</title>
<path fill="none" stroke="#00bcd4" stroke-width="1.5" d="M850.12,-118.38C850.12,-118.38 850.12,-73.16 850.12,-73.16"/>
<polygon fill="#00bcd4" stroke="#00bcd4" stroke-width="1.5" points="853.63,-73.16 850.13,-63.16 846.63,-73.16 853.63,-73.16"/>
</g>
<!-- ext_0 -->
<g id="node12" class="node">
<title>ext_0</title>
<path fill="#bbdefb" stroke="black" d="M1102.62,-60.5C1102.62,-60.5 991.38,-60.5 991.38,-60.5 985.38,-60.5 979.38,-54.5 979.38,-48.5 979.38,-48.5 979.38,-36.5 979.38,-36.5 979.38,-30.5 985.38,-24.5 991.38,-24.5 991.38,-24.5 1102.62,-24.5 1102.62,-24.5 1108.62,-24.5 1114.62,-30.5 1114.62,-36.5 1114.62,-36.5 1114.62,-48.5 1114.62,-48.5 1114.62,-54.5 1108.62,-60.5 1102.62,-60.5"/>
<text xml:space="preserve" text-anchor="middle" x="1047" y="-39" font-family="Arial" font-size="10.00" fill="#1a1a2e">extension StringX on String</text>
</g>
<!-- ext&#45;&gt;ext_0 -->
<g id="edge11" class="edge">
<title>ext&#45;&gt;ext_0</title>
<path fill="none" stroke="#ff9800" stroke-width="1.5" d="M1243.36,-130.5C1165.14,-130.5 1047,-130.5 1047,-130.5 1047,-130.5 1047,-73 1047,-73"/>
<polygon fill="#ff9800" stroke="#ff9800" stroke-width="1.5" points="1050.5,-73 1047,-63 1043.5,-73 1050.5,-73"/>
</g>
<!-- ext_1 -->
<g id="node13" class="node">
<title>ext_1</title>
<path fill="#bbdefb" stroke="black" d="M1285.62,-60.5C1285.62,-60.5 1162.38,-60.5 1162.38,-60.5 1156.38,-60.5 1150.38,-54.5 1150.38,-48.5 1150.38,-48.5 1150.38,-36.5 1150.38,-36.5 1150.38,-30.5 1156.38,-24.5 1162.38,-24.5 1162.38,-24.5 1285.62,-24.5 1285.62,-24.5 1291.62,-24.5 1297.62,-30.5 1297.62,-36.5 1297.62,-36.5 1297.62,-48.5 1297.62,-48.5 1297.62,-54.5 1291.62,-60.5 1285.62,-60.5"/>
<text xml:space="preserve" text-anchor="middle" x="1224" y="-39" font-family="Arial" font-size="10.00" fill="#1a1a2e">add methods to existing types</text>
</g>
<!-- ext&#45;&gt;ext_1 -->
<g id="edge12" class="edge">
<title>ext&#45;&gt;ext_1</title>
<path fill="none" stroke="#ff9800" stroke-width="1.5" d="M1270.69,-118.38C1270.69,-118.38 1270.69,-73.16 1270.69,-73.16"/>
<polygon fill="#ff9800" stroke="#ff9800" stroke-width="1.5" points="1274.19,-73.16 1270.69,-63.16 1267.19,-73.16 1274.19,-73.16"/>
</g>
<!-- ext_2 -->
<g id="node14" class="node">
<title>ext_2</title>
<path fill="#bbdefb" stroke="black" d="M1450.25,-60.5C1450.25,-60.5 1345.75,-60.5 1345.75,-60.5 1339.75,-60.5 1333.75,-54.5 1333.75,-48.5 1333.75,-48.5 1333.75,-36.5 1333.75,-36.5 1333.75,-30.5 1339.75,-24.5 1345.75,-24.5 1345.75,-24.5 1450.25,-24.5 1450.25,-24.5 1456.25,-24.5 1462.25,-30.5 1462.25,-36.5 1462.25,-36.5 1462.25,-48.5 1462.25,-48.5 1462.25,-54.5 1456.25,-60.5 1450.25,-60.5"/>
<text xml:space="preserve" text-anchor="middle" x="1398" y="-39" font-family="Arial" font-size="10.00" fill="#1a1a2e">typedef IntList = List&lt;int&gt;</text>
</g>
<!-- ext&#45;&gt;ext_2 -->
<g id="edge13" class="edge">
<title>ext&#45;&gt;ext_2</title>
<path fill="none" stroke="#ff9800" stroke-width="1.5" d="M1356,-118.38C1356,-118.38 1356,-73.16 1356,-73.16"/>
<polygon fill="#ff9800" stroke="#ff9800" stroke-width="1.5" points="1359.5,-73.16 1356,-63.16 1352.5,-73.16 1359.5,-73.16"/>
</g>
<!-- ext_3 -->
<g id="node15" class="node">
<title>ext_3</title>
<path fill="#bbdefb" stroke="black" d="M1592,-60.5C1592,-60.5 1510,-60.5 1510,-60.5 1504,-60.5 1498,-54.5 1498,-48.5 1498,-48.5 1498,-36.5 1498,-36.5 1498,-30.5 1504,-24.5 1510,-24.5 1510,-24.5 1592,-24.5 1592,-24.5 1598,-24.5 1604,-30.5 1604,-36.5 1604,-36.5 1604,-48.5 1604,-48.5 1604,-54.5 1598,-60.5 1592,-60.5"/>
<text xml:space="preserve" text-anchor="middle" x="1551" y="-39" font-family="Arial" font-size="10.00" fill="#1a1a2e">function type aliases</text>
</g>
<!-- ext&#45;&gt;ext_3 -->
<g id="edge14" class="edge">
<title>ext&#45;&gt;ext_3</title>
<path fill="none" stroke="#ff9800" stroke-width="1.5" d="M1378.49,-136.5C1449.48,-136.5 1551,-136.5 1551,-136.5 1551,-136.5 1551,-72.89 1551,-72.89"/>
<polygon fill="#ff9800" stroke="#ff9800" stroke-width="1.5" points="1554.5,-72.89 1551,-62.89 1547.5,-72.89 1554.5,-72.89"/>
</g>
<!-- asy_0 -->
<g id="node17" class="node">
<title>asy_0</title>
<path fill="#bbdefb" stroke="black" d="M1748.12,-60.5C1748.12,-60.5 1651.88,-60.5 1651.88,-60.5 1645.88,-60.5 1639.88,-54.5 1639.88,-48.5 1639.88,-48.5 1639.88,-36.5 1639.88,-36.5 1639.88,-30.5 1645.88,-24.5 1651.88,-24.5 1651.88,-24.5 1748.12,-24.5 1748.12,-24.5 1754.12,-24.5 1760.12,-30.5 1760.12,-36.5 1760.12,-36.5 1760.12,-48.5 1760.12,-48.5 1760.12,-54.5 1754.12,-60.5 1748.12,-60.5"/>
<text xml:space="preserve" text-anchor="middle" x="1700" y="-39" font-family="Arial" font-size="10.00" fill="#1a1a2e">Future&lt;T&gt;, async/await</text>
</g>
<!-- asy&#45;&gt;asy_0 -->
<g id="edge16" class="edge">
<title>asy&#45;&gt;asy_0</title>
<path fill="none" stroke="#9c27b0" stroke-width="1.5" d="M1800.54,-127.5C1756.44,-127.5 1700,-127.5 1700,-127.5 1700,-127.5 1700,-73.21 1700,-73.21"/>
<polygon fill="#9c27b0" stroke="#9c27b0" stroke-width="1.5" points="1703.5,-73.21 1700,-63.21 1696.5,-73.21 1703.5,-73.21"/>
</g>
<!-- asy_1 -->
<g id="node18" class="node">
<title>asy_1</title>
<path fill="#bbdefb" stroke="black" d="M1895.62,-60.5C1895.62,-60.5 1808.38,-60.5 1808.38,-60.5 1802.38,-60.5 1796.38,-54.5 1796.38,-48.5 1796.38,-48.5 1796.38,-36.5 1796.38,-36.5 1796.38,-30.5 1802.38,-24.5 1808.38,-24.5 1808.38,-24.5 1895.62,-24.5 1895.62,-24.5 1901.62,-24.5 1907.62,-30.5 1907.62,-36.5 1907.62,-36.5 1907.62,-48.5 1907.62,-48.5 1907.62,-54.5 1901.62,-60.5 1895.62,-60.5"/>
<text xml:space="preserve" text-anchor="middle" x="1852" y="-39" font-family="Arial" font-size="10.00" fill="#1a1a2e">Stream&lt;T&gt; async iter</text>
</g>
<!-- asy&#45;&gt;asy_1 -->
<g id="edge17" class="edge">
<title>asy&#45;&gt;asy_1</title>
<path fill="none" stroke="#9c27b0" stroke-width="1.5" d="M1852,-118.38C1852,-118.38 1852,-73.16 1852,-73.16"/>
<polygon fill="#9c27b0" stroke="#9c27b0" stroke-width="1.5" points="1855.5,-73.16 1852,-63.16 1848.5,-73.16 1855.5,-73.16"/>
</g>
<!-- asy_2 -->
<g id="node19" class="node">
<title>asy_2</title>
<path fill="#bbdefb" stroke="black" d="M2011.88,-60.5C2011.88,-60.5 1956.12,-60.5 1956.12,-60.5 1950.12,-60.5 1944.12,-54.5 1944.12,-48.5 1944.12,-48.5 1944.12,-36.5 1944.12,-36.5 1944.12,-30.5 1950.12,-24.5 1956.12,-24.5 1956.12,-24.5 2011.88,-24.5 2011.88,-24.5 2017.88,-24.5 2023.88,-30.5 2023.88,-36.5 2023.88,-36.5 2023.88,-48.5 2023.88,-48.5 2023.88,-54.5 2017.88,-60.5 2011.88,-60.5"/>
<text xml:space="preserve" text-anchor="middle" x="1984" y="-39" font-family="Arial" font-size="10.00" fill="#1a1a2e">await for, yield</text>
</g>
<!-- asy&#45;&gt;asy_2 -->
<g id="edge18" class="edge">
<title>asy&#45;&gt;asy_2</title>
<path fill="none" stroke="#9c27b0" stroke-width="1.5" d="M1903.41,-130.5C1940.48,-130.5 1984,-130.5 1984,-130.5 1984,-130.5 1984,-73 1984,-73"/>
<polygon fill="#9c27b0" stroke="#9c27b0" stroke-width="1.5" points="1987.5,-73 1984,-63 1980.5,-73 1987.5,-73"/>
</g>
<!-- asy_3 -->
<g id="node20" class="node">
<title>asy_3</title>
<path fill="#bbdefb" stroke="black" d="M2172.38,-60.5C2172.38,-60.5 2071.62,-60.5 2071.62,-60.5 2065.62,-60.5 2059.62,-54.5 2059.62,-48.5 2059.62,-48.5 2059.62,-36.5 2059.62,-36.5 2059.62,-30.5 2065.62,-24.5 2071.62,-24.5 2071.62,-24.5 2172.38,-24.5 2172.38,-24.5 2178.38,-24.5 2184.38,-30.5 2184.38,-36.5 2184.38,-36.5 2184.38,-48.5 2184.38,-48.5 2184.38,-54.5 2178.38,-60.5 2172.38,-60.5"/>
<text xml:space="preserve" text-anchor="middle" x="2122" y="-39" font-family="Arial" font-size="10.00" fill="#1a1a2e">Isolates (real parallelism)</text>
</g>
<!-- asy&#45;&gt;asy_3 -->
<g id="edge19" class="edge">
<title>asy&#45;&gt;asy_3</title>
<path fill="none" stroke="#9c27b0" stroke-width="1.5" d="M1903.42,-142.5C1981.76,-142.5 2122,-142.5 2122,-142.5 2122,-142.5 2122,-73.11 2122,-73.11"/>
<polygon fill="#9c27b0" stroke="#9c27b0" stroke-width="1.5" points="2125.5,-73.11 2122,-63.11 2118.5,-73.11 2125.5,-73.11"/>
</g>
<!-- lib_0 -->
<g id="node22" class="node">
<title>lib_0</title>
<path fill="#bbdefb" stroke="black" d="M2285.75,-60.5C2285.75,-60.5 2232.25,-60.5 2232.25,-60.5 2226.25,-60.5 2220.25,-54.5 2220.25,-48.5 2220.25,-48.5 2220.25,-36.5 2220.25,-36.5 2220.25,-30.5 2226.25,-24.5 2232.25,-24.5 2232.25,-24.5 2285.75,-24.5 2285.75,-24.5 2291.75,-24.5 2297.75,-30.5 2297.75,-36.5 2297.75,-36.5 2297.75,-48.5 2297.75,-48.5 2297.75,-54.5 2291.75,-60.5 2285.75,-60.5"/>
<text xml:space="preserve" text-anchor="middle" x="2259" y="-39" font-family="Arial" font-size="10.00" fill="#1a1a2e">import &#39;dart:io&#39;</text>
</g>
<!-- lib&#45;&gt;lib_0 -->
<g id="edge21" class="edge">
<title>lib&#45;&gt;lib_0</title>
<path fill="none" stroke="#f44336" stroke-width="1.5" d="M2330,-118.38C2330,-91.06 2330,-42.5 2330,-42.5 2330,-42.5 2310.51,-42.5 2310.51,-42.5"/>
<polygon fill="#f44336" stroke="#f44336" stroke-width="1.5" points="2310.51,-39 2300.51,-42.5 2310.51,-46 2310.51,-39"/>
</g>
<!-- lib_1 -->
<g id="node23" class="node">
<title>lib_1</title>
<path fill="#bbdefb" stroke="black" d="M2419.88,-60.5C2419.88,-60.5 2346.12,-60.5 2346.12,-60.5 2340.12,-60.5 2334.12,-54.5 2334.12,-48.5 2334.12,-48.5 2334.12,-36.5 2334.12,-36.5 2334.12,-30.5 2340.12,-24.5 2346.12,-24.5 2346.12,-24.5 2419.88,-24.5 2419.88,-24.5 2425.88,-24.5 2431.88,-30.5 2431.88,-36.5 2431.88,-36.5 2431.88,-48.5 2431.88,-48.5 2431.88,-54.5 2425.88,-60.5 2419.88,-60.5"/>
<text xml:space="preserve" text-anchor="middle" x="2383" y="-39" font-family="Arial" font-size="10.00" fill="#1a1a2e">library, part, part of</text>
</g>
<!-- lib&#45;&gt;lib_1 -->
<g id="edge22" class="edge">
<title>lib&#45;&gt;lib_1</title>
<path fill="none" stroke="#f44336" stroke-width="1.5" d="M2383,-118.38C2383,-118.38 2383,-73.16 2383,-73.16"/>
<polygon fill="#f44336" stroke="#f44336" stroke-width="1.5" points="2386.5,-73.16 2383,-63.16 2379.5,-73.16 2386.5,-73.16"/>
</g>
<!-- lib_2 -->
<g id="node24" class="node">
<title>lib_2</title>
<path fill="#bbdefb" stroke="black" d="M2566.25,-60.5C2566.25,-60.5 2479.75,-60.5 2479.75,-60.5 2473.75,-60.5 2467.75,-54.5 2467.75,-48.5 2467.75,-48.5 2467.75,-36.5 2467.75,-36.5 2467.75,-30.5 2473.75,-24.5 2479.75,-24.5 2479.75,-24.5 2566.25,-24.5 2566.25,-24.5 2572.25,-24.5 2578.25,-30.5 2578.25,-36.5 2578.25,-36.5 2578.25,-48.5 2578.25,-48.5 2578.25,-54.5 2572.25,-60.5 2566.25,-60.5"/>
<text xml:space="preserve" text-anchor="middle" x="2523" y="-39" font-family="Arial" font-size="10.00" fill="#1a1a2e">_underscore = private</text>
</g>
<!-- lib&#45;&gt;lib_2 -->
<g id="edge23" class="edge">
<title>lib&#45;&gt;lib_2</title>
<path fill="none" stroke="#f44336" stroke-width="1.5" d="M2436,-118.38C2436,-91.06 2436,-42.5 2436,-42.5 2436,-42.5 2455.14,-42.5 2455.14,-42.5"/>
<polygon fill="#f44336" stroke="#f44336" stroke-width="1.5" points="2455.14,-46 2465.14,-42.5 2455.14,-39 2455.14,-46"/>
</g>
<!-- lib_3 -->
<g id="node25" class="node">
<title>lib_3</title>
<path fill="#bbdefb" stroke="black" d="M2703.38,-60.5C2703.38,-60.5 2626.62,-60.5 2626.62,-60.5 2620.62,-60.5 2614.62,-54.5 2614.62,-48.5 2614.62,-48.5 2614.62,-36.5 2614.62,-36.5 2614.62,-30.5 2620.62,-24.5 2626.62,-24.5 2626.62,-24.5 2703.38,-24.5 2703.38,-24.5 2709.38,-24.5 2715.38,-30.5 2715.38,-36.5 2715.38,-36.5 2715.38,-48.5 2715.38,-48.5 2715.38,-54.5 2709.38,-60.5 2703.38,-60.5"/>
<text xml:space="preserve" text-anchor="middle" x="2665" y="-39" font-family="Arial" font-size="10.00" fill="#1a1a2e">async/await, zones</text>
</g>
<!-- lib&#45;&gt;lib_3 -->
<g id="edge24" class="edge">
<title>lib&#45;&gt;lib_3</title>
<path fill="none" stroke="#f44336" stroke-width="1.5" d="M2440.41,-136.5C2522.86,-136.5 2665,-136.5 2665,-136.5 2665,-136.5 2665,-72.89 2665,-72.89"/>
<polygon fill="#f44336" stroke="#f44336" stroke-width="1.5" points="2668.5,-72.89 2665,-62.89 2661.5,-72.89 2668.5,-72.89"/>
</g>
</g>
</svg>
