<?xml version="1.0" encoding="UTF-8" standalone="no"?>
<!DOCTYPE svg PUBLIC "-//W3C//DTD SVG 1.1//EN"
 "http://www.w3.org/Graphics/SVG/1.1/DTD/svg11.dtd">
<!-- Generated by graphviz version 14.1.3 (0)
 -->
<!-- Title: s2s_architecture Pages: 1 -->
<svg width="924pt" height="276pt"
 viewBox="0.00 0.00 924.00 276.00" xmlns="http://www.w3.org/2000/svg" xmlns:xlink="http://www.w3.org/1999/xlink">
<style>
<!-- White text halo for edge label readability -->
text { paint-order: stroke; stroke: #ffffff; stroke-width: 3px; stroke-linejoin: round; fill: #1a1a2e; }
</style>
<g id="graph0" class="graph" transform="scale(1 1) rotate(0) translate(4 271.5)">
<title>s2s_architecture</title>
<polygon fill="white" stroke="none" points="-4,4 -4,-271.5 919.75,-271.5 919.75,4 -4,4"/>
<!-- audio_in -->
<g id="node1" class="node">
<title>audio_in</title>
<path fill="#4caf50" stroke="black" d="M102.62,-261.25C102.62,-261.25 54.38,-261.25 54.38,-261.25 48.38,-261.25 42.38,-255.25 42.38,-249.25 42.38,-249.25 42.38,-237.25 42.38,-237.25 42.38,-231.25 48.38,-225.25 54.38,-225.25 54.38,-225.25 102.62,-225.25 102.62,-225.25 108.62,-225.25 114.62,-231.25 114.62,-237.25 114.62,-237.25 114.62,-249.25 114.62,-249.25 114.62,-255.25 108.62,-261.25 102.62,-261.25"/>
<text xml:space="preserve" text-anchor="middle" x="78.5" y="-246.3" font-family="Arial" font-size="11.00" fill="white">Audio Input</text>
<text xml:space="preserve" text-anchor="middle" x="78.5" y="-232.8" font-family="Arial" font-size="11.00" fill="white">Microphone</text>
</g>
<!-- vad -->
<g id="node2" class="node">
<title>vad</title>
<path fill="#f0fdfa" stroke="#0d9488" stroke-dasharray="5,2" d="M295.25,-267.5C295.25,-267.5 241,-267.5 241,-267.5 235,-267.5 229,-261.5 229,-255.5 229,-255.5 229,-231 229,-231 229,-225 235,-219 241,-219 241,-219 295.25,-219 295.25,-219 301.25,-219 307.25,-225 307.25,-231 307.25,-231 307.25,-255.5 307.25,-255.5 307.25,-261.5 301.25,-267.5 295.25,-267.5"/>
<text xml:space="preserve" text-anchor="middle" x="268.12" y="-253.05" font-family="Arial" font-size="11.00" fill="#0d9488">VAD</text>
<text xml:space="preserve" text-anchor="middle" x="268.12" y="-239.55" font-family="Arial" font-size="11.00" fill="#0d9488">Voice Activity</text>
<text xml:space="preserve" text-anchor="middle" x="268.12" y="-226.05" font-family="Arial" font-size="11.00" fill="#0d9488">Detection</text>
</g>
<!-- audio_in&#45;&gt;vad -->
<g id="edge1" class="edge">
<title>audio_in&#45;&gt;vad</title>
<path fill="none" stroke="#4caf50" stroke-width="2" d="M115.06,-249.25C115.06,-249.25 215.71,-249.25 215.71,-249.25"/>
<polygon fill="#4caf50" stroke="#4caf50" stroke-width="2" points="215.71,-252.75 225.71,-249.25 215.71,-245.75 215.71,-252.75"/>
<text xml:space="preserve" text-anchor="middle" x="200.63" y="-235.95" font-family="Times New Roman,serif" font-size="14.00" fill="#4caf50">audio stream</text>
</g>
<!-- stt -->
<g id="node3" class="node">
<title>stt</title>
<path fill="#f0fdfa" stroke="#0d9488" stroke-dasharray="5,2" d="M456,-180.5C456,-180.5 391.25,-180.5 391.25,-180.5 385.25,-180.5 379.25,-174.5 379.25,-168.5 379.25,-168.5 379.25,-144 379.25,-144 379.25,-138 385.25,-132 391.25,-132 391.25,-132 456,-132 456,-132 462,-132 468,-138 468,-144 468,-144 468,-168.5 468,-168.5 468,-174.5 462,-180.5 456,-180.5"/>
<text xml:space="preserve" text-anchor="middle" x="423.62" y="-166.05" font-family="Arial" font-size="11.00" fill="#0d9488">STT</text>
<text xml:space="preserve" text-anchor="middle" x="423.62" y="-152.55" font-family="Arial" font-size="11.00" fill="#0d9488">Parakeet TDT</text>
<text xml:space="preserve" text-anchor="middle" x="423.62" y="-139.05" font-family="Arial" font-size="11.00" fill="#0d9488">Speech&#45;to&#45;Text</text>
</g>
<!-- vad&#45;&gt;stt -->
<g id="edge2" class="edge">
<title>vad&#45;&gt;stt</title>
<path fill="none" stroke="#0d9488" stroke-width="2" d="M267.75,-218.71C267.75,-195.55 267.75,-164.33 267.75,-164.33 267.75,-164.33 365.93,-164.33 365.93,-164.33"/>
<polygon fill="#0d9488" stroke="#0d9488" stroke-width="2" points="365.93,-167.83 375.93,-164.33 365.93,-160.83 365.93,-167.83"/>
<text xml:space="preserve" text-anchor="middle" x="328.65" y="-151.03" font-family="Times New Roman,serif" font-size="14.00" fill="#0d9488">voice detected</text>
</g>
<!-- llm -->
<g id="node4" class="node">
<title>llm</title>
<path fill="#f0fdfa" stroke="#0d9488" stroke-dasharray="5,2" d="M592,-93.5C592,-93.5 552,-93.5 552,-93.5 546,-93.5 540,-87.5 540,-81.5 540,-81.5 540,-57 540,-57 540,-51 546,-45 552,-45 552,-45 592,-45 592,-45 598,-45 604,-51 604,-57 604,-57 604,-81.5 604,-81.5 604,-87.5 598,-93.5 592,-93.5"/>
<text xml:space="preserve" text-anchor="middle" x="572" y="-79.05" font-family="Arial" font-size="11.00" fill="#0d9488">LLM</text>
<text xml:space="preserve" text-anchor="middle" x="572" y="-65.55" font-family="Arial" font-size="11.00" fill="#0d9488">Language</text>
<text xml:space="preserve" text-anchor="middle" x="572" y="-52.05" font-family="Arial" font-size="11.00" fill="#0d9488">Model</text>
</g>
<!-- stt&#45;&gt;llm -->
<g id="edge3" class="edge">
<title>stt&#45;&gt;llm</title>
<path fill="none" stroke="#2196f3" stroke-width="2" d="M468.37,-156.25C515.44,-156.25 582.75,-156.25 582.75,-156.25 582.75,-156.25 582.75,-106.98 582.75,-106.98"/>
<polygon fill="#2196f3" stroke="#2196f3" stroke-width="2" points="586.25,-106.98 582.75,-96.98 579.25,-106.98 586.25,-106.98"/>
<text xml:space="preserve" text-anchor="middle" x="592.2" y="-142.95" font-family="Times New Roman,serif" font-size="14.00" fill="#2196f3">transcribed text</text>
</g>
<!-- tts -->
<g id="node5" class="node">
<title>tts</title>
<path fill="#f0fdfa" stroke="#0d9488" stroke-dasharray="5,2" d="M752.75,-48.5C752.75,-48.5 688,-48.5 688,-48.5 682,-48.5 676,-42.5 676,-36.5 676,-36.5 676,-12 676,-12 676,-6 682,0 688,0 688,0 752.75,0 752.75,0 758.75,0 764.75,-6 764.75,-12 764.75,-12 764.75,-36.5 764.75,-36.5 764.75,-42.5 758.75,-48.5 752.75,-48.5"/>
<text xml:space="preserve" text-anchor="middle" x="720.38" y="-34.05" font-family="Arial" font-size="11.00" fill="#0d9488">TTS</text>
<text xml:space="preserve" text-anchor="middle" x="720.38" y="-20.55" font-family="Arial" font-size="11.00" fill="#0d9488">Qwen3&#45;TTS</text>
<text xml:space="preserve" text-anchor="middle" x="720.38" y="-7.05" font-family="Arial" font-size="11.00" fill="#0d9488">Text&#45;to&#45;Speech</text>
</g>
<!-- llm&#45;&gt;tts -->
<g id="edge4" class="edge">
<title>llm&#45;&gt;tts</title>
<path fill="none" stroke="#7c3aed" stroke-width="2" d="M571.75,-44.51C571.75,-33.29 571.75,-22.5 571.75,-22.5 571.75,-22.5 662.76,-22.5 662.76,-22.5"/>
<polygon fill="#7c3aed" stroke="#7c3aed" stroke-width="2" points="662.76,-26 672.76,-22.5 662.76,-19 662.76,-26"/>
<text xml:space="preserve" text-anchor="middle" x="570.62" y="-9.2" font-family="Times New Roman,serif" font-size="14.00" fill="#7c3aed">response text</text>
</g>
<!-- audio_out -->
<g id="node6" class="node">
<title>audio_out</title>
<path fill="#f44336" stroke="black" d="M903.75,-42.25C903.75,-42.25 848.75,-42.25 848.75,-42.25 842.75,-42.25 836.75,-36.25 836.75,-30.25 836.75,-30.25 836.75,-18.25 836.75,-18.25 836.75,-12.25 842.75,-6.25 848.75,-6.25 848.75,-6.25 903.75,-6.25 903.75,-6.25 909.75,-6.25 915.75,-12.25 915.75,-18.25 915.75,-18.25 915.75,-30.25 915.75,-30.25 915.75,-36.25 909.75,-42.25 903.75,-42.25"/>
<text xml:space="preserve" text-anchor="middle" x="876.25" y="-27.3" font-family="Arial" font-size="11.00" fill="white">Audio Output</text>
<text xml:space="preserve" text-anchor="middle" x="876.25" y="-13.8" font-family="Arial" font-size="11.00" fill="white">Speaker</text>
</g>
<!-- tts&#45;&gt;audio_out -->
<g id="edge5" class="edge">
<title>tts&#45;&gt;audio_out</title>
<path fill="none" stroke="#f44336" stroke-width="2" d="M765.04,-24.25C765.04,-24.25 823.33,-24.25 823.33,-24.25"/>
<polygon fill="#f44336" stroke="#f44336" stroke-width="2" points="823.33,-27.75 833.33,-24.25 823.33,-20.75 823.33,-27.75"/>
<text xml:space="preserve" text-anchor="middle" x="842.56" y="-10.95" font-family="Times New Roman,serif" font-size="14.00" fill="#f44336">synthesized audio</text>
</g>
<!-- ws_api -->
<g id="node7" class="node">
<title>ws_api</title>
<path fill="#2563eb" stroke="black" d="M145,-129.25C145,-129.25 12,-129.25 12,-129.25 6,-129.25 0,-123.25 0,-117.25 0,-117.25 0,-105.25 0,-105.25 0,-99.25 6,-93.25 12,-93.25 12,-93.25 145,-93.25 145,-93.25 151,-93.25 157,-99.25 157,-105.25 157,-105.25 157,-117.25 157,-117.25 157,-123.25 151,-129.25 145,-129.25"/>
<text xml:space="preserve" text-anchor="middle" x="78.5" y="-114.3" font-family="Arial" font-size="11.00" fill="white">OpenAI Realtime&#45;Compatible</text>
<text xml:space="preserve" text-anchor="middle" x="78.5" y="-100.8" font-family="Arial" font-size="11.00" fill="white">WebSocket API</text>
</g>
<!-- ws_api&#45;&gt;vad -->
<g id="edge6" class="edge">
<title>ws_api&#45;&gt;vad</title>
<path fill="none" stroke="#2563eb" stroke-width="1.5" stroke-dasharray="5,2" d="M128.75,-129.57C128.75,-164.52 128.75,-237.25 128.75,-237.25 128.75,-237.25 216.29,-237.25 216.29,-237.25"/>
<polygon fill="#2563eb" stroke="#2563eb" stroke-width="1.5" points="216.29,-240.75 226.29,-237.25 216.29,-233.75 216.29,-240.75"/>
<text xml:space="preserve" text-anchor="middle" x="147.88" y="-213.88" font-family="Times New Roman,serif" font-size="14.00" fill="#2563eb">control</text>
</g>
<!-- ws_api&#45;&gt;stt -->
<g id="edge7" class="edge">
<title>ws_api&#45;&gt;stt</title>
<path fill="none" stroke="#2563eb" stroke-width="1.5" stroke-dasharray="5,2" d="M142.75,-129.71C142.75,-138.94 142.75,-148.17 142.75,-148.17 142.75,-148.17 366.54,-148.17 366.54,-148.17"/>
<polygon fill="#2563eb" stroke="#2563eb" stroke-width="1.5" points="366.54,-151.67 376.54,-148.17 366.54,-144.67 366.54,-151.67"/>
<text xml:space="preserve" text-anchor="middle" x="226.29" y="-134.87" font-family="Times New Roman,serif" font-size="14.00" fill="#2563eb">control</text>
</g>
<!-- ws_api&#45;&gt;llm -->
<g id="edge8" class="edge">
<title>ws_api&#45;&gt;llm</title>
<path fill="none" stroke="#2563eb" stroke-width="1.5" stroke-dasharray="5,2" d="M157.49,-105.42C294.5,-105.42 561.75,-105.42 561.75,-105.42 561.75,-105.42 561.75,-104.27 561.75,-104.27"/>
<polygon fill="#2563eb" stroke="#2563eb" stroke-width="1.5" points="565.25,-106.24 561.75,-96.24 558.25,-106.24 565.25,-106.24"/>
<text xml:space="preserve" text-anchor="middle" x="341.07" y="-92.12" font-family="Times New Roman,serif" font-size="14.00" fill="#2563eb">control</text>
</g>
<!-- ws_api&#45;&gt;tts -->
<g id="edge9" class="edge">
<title>ws_api&#45;&gt;tts</title>
<path fill="none" stroke="#2563eb" stroke-width="1.5" stroke-dasharray="5,2" d="M157.25,-117.33C328.75,-117.33 720.75,-117.33 720.75,-117.33 720.75,-117.33 720.75,-60.98 720.75,-60.98"/>
<polygon fill="#2563eb" stroke="#2563eb" stroke-width="1.5" points="724.25,-60.98 720.75,-50.98 717.25,-60.98 724.25,-60.98"/>
<text xml:space="preserve" text-anchor="middle" x="448.05" y="-104.03" font-family="Times New Roman,serif" font-size="14.00" fill="#2563eb">control</text>
</g>
</g>
</svg>
