<?xml version="1.0" encoding="UTF-8" standalone="no"?>
<!DOCTYPE svg PUBLIC "-//W3C//DTD SVG 1.1//EN"
 "http://www.w3.org/Graphics/SVG/1.1/DTD/svg11.dtd">
<!-- Generated by graphviz version 14.1.2 (0)
 -->
<!-- Title: infersim_pipeline Pages: 1 -->
<svg width="984pt" height="757pt"
 viewBox="0.00 0.00 984.00 757.00" xmlns="http://www.w3.org/2000/svg" xmlns:xlink="http://www.w3.org/1999/xlink">
<style>
<!-- White text halo for edge label readability -->
text { paint-order: stroke; stroke: #ffffff; stroke-width: 3px; stroke-linejoin: round; fill: #1a1a2e; }
</style>
<g id="graph0" class="graph" transform="scale(1 1) rotate(0) translate(4 753)">
<title>infersim_pipeline</title>
<polygon fill="white" stroke="none" points="-4,4 -4,-753 979.62,-753 979.62,4 -4,4"/>
<text xml:space="preserve" text-anchor="middle" x="487.81" y="-7.2" font-family="Times New Roman,serif" font-size="14.00">InferSim &#45; Simulation Pipeline</text>
<!-- setup_label -->
<g id="node1" class="node">
<title>setup_label</title>
<text xml:space="preserve" text-anchor="middle" x="143.88" y="-725.58" font-family="Arial Bold" font-size="14.00" fill="#2196f3">Phase 1: Setup</text>
</g>
<!-- config -->
<g id="node2" class="node">
<title>config</title>
<path fill="#009688" stroke="black" d="M318.62,-749C318.62,-749 241.12,-749 241.12,-749 235.12,-749 229.12,-743 229.12,-737 229.12,-737 229.12,-725 229.12,-725 229.12,-719 235.12,-713 241.12,-713 241.12,-713 318.62,-713 318.62,-713 324.62,-713 330.62,-719 330.62,-725 330.62,-725 330.62,-737 330.62,-737 330.62,-743 324.62,-749 318.62,-749"/>
<text xml:space="preserve" text-anchor="middle" x="279.88" y="-734.05" font-family="Arial" font-size="11.00" fill="white">Load HF Config</text>
<text xml:space="preserve" text-anchor="middle" x="279.88" y="-720.55" font-family="Arial" font-size="11.00" fill="white">(model_config.py)</text>
</g>
<!-- gpu -->
<g id="node3" class="node">
<title>gpu</title>
<polygon fill="#607d8b" stroke="black" points="295,-663 148.75,-663 144.75,-659 144.75,-627 291,-627 295,-631 295,-663"/>
<polyline fill="none" stroke="black" points="291,-659 144.75,-659"/>
<polyline fill="none" stroke="black" points="291,-659 291,-627"/>
<polyline fill="none" stroke="black" points="291,-659 295,-663"/>
<text xml:space="preserve" text-anchor="middle" x="219.88" y="-648.05" font-family="Arial Bold" font-size="11.00" fill="white">Select GPU Profile</text>
<text xml:space="preserve" text-anchor="middle" x="219.88" y="-634.55" font-family="Arial Bold" font-size="11.00" fill="white">H20 | H800 | H200 | GB200</text>
</g>
<!-- config&#45;&gt;gpu -->
<g id="edge1" class="edge">
<title>config&#45;&gt;gpu</title>
<path fill="none" stroke="#009688" stroke-width="2" d="M262.06,-712.76C262.06,-712.76 262.06,-676.24 262.06,-676.24"/>
<polygon fill="#009688" stroke="#009688" stroke-width="2" points="265.56,-676.24 262.06,-666.24 258.56,-676.24 265.56,-676.24"/>
</g>
<!-- weights -->
<g id="node5" class="node">
<title>weights</title>
<path fill="#ff9800" stroke="black" d="M318.38,-577C318.38,-577 239.38,-577 239.38,-577 233.38,-577 227.38,-571 227.38,-565 227.38,-565 227.38,-553 227.38,-553 227.38,-547 233.38,-541 239.38,-541 239.38,-541 318.38,-541 318.38,-541 324.38,-541 330.38,-547 330.38,-553 330.38,-553 330.38,-565 330.38,-565 330.38,-571 324.38,-577 318.38,-577"/>
<text xml:space="preserve" text-anchor="middle" x="278.88" y="-562.05" font-family="Arial" font-size="11.00" fill="white">Calculate Weights</text>
<text xml:space="preserve" text-anchor="middle" x="278.88" y="-548.55" font-family="Arial" font-size="11.00" fill="white">Per&#45;GPU Memory</text>
</g>
<!-- config&#45;&gt;weights -->
<g id="edge3" class="edge">
<title>config&#45;&gt;weights</title>
<path fill="none" stroke="#009688" stroke-width="2" d="M312.69,-712.59C312.69,-712.59 312.69,-590.3 312.69,-590.3"/>
<polygon fill="#009688" stroke="#009688" stroke-width="2" points="316.19,-590.3 312.69,-580.3 309.19,-590.3 316.19,-590.3"/>
</g>
<!-- gpu&#45;&gt;weights -->
<g id="edge2" class="edge">
<title>gpu&#45;&gt;weights</title>
<path fill="none" stroke="#607d8b" stroke-width="2" d="M261.19,-626.76C261.19,-626.76 261.19,-590.24 261.19,-590.24"/>
<polygon fill="#607d8b" stroke="#607d8b" stroke-width="2" points="264.69,-590.24 261.19,-580.24 257.69,-590.24 264.69,-590.24"/>
</g>
<!-- analysis_label -->
<g id="node4" class="node">
<title>analysis_label</title>
<text xml:space="preserve" text-anchor="middle" x="446.88" y="-725.58" font-family="Arial Bold" font-size="14.00" fill="#2196f3">Phase 2: Model Analysis</text>
</g>
<!-- kvcache -->
<g id="node6" class="node">
<title>kvcache</title>
<path fill="#ff9800" stroke="black" d="M322.12,-491C322.12,-491 235.62,-491 235.62,-491 229.62,-491 223.62,-485 223.62,-479 223.62,-479 223.62,-467 223.62,-467 223.62,-461 229.62,-455 235.62,-455 235.62,-455 322.12,-455 322.12,-455 328.12,-455 334.12,-461 334.12,-467 334.12,-467 334.12,-479 334.12,-479 334.12,-485 328.12,-491 322.12,-491"/>
<text xml:space="preserve" text-anchor="middle" x="278.88" y="-476.05" font-family="Arial" font-size="11.00" fill="white">Estimate KV Cache</text>
<text xml:space="preserve" text-anchor="middle" x="278.88" y="-462.55" font-family="Arial" font-size="11.00" fill="white">Space Available</text>
</g>
<!-- weights&#45;&gt;kvcache -->
<g id="edge4" class="edge">
<title>weights&#45;&gt;kvcache</title>
<path fill="none" stroke="#ff9800" stroke-width="2" d="M278.88,-540.76C278.88,-540.76 278.88,-504.24 278.88,-504.24"/>
<polygon fill="#ff9800" stroke="#ff9800" stroke-width="2" points="282.38,-504.24 278.88,-494.24 275.38,-504.24 282.38,-504.24"/>
</g>
<!-- flops -->
<g id="node7" class="node">
<title>flops</title>
<path fill="#ff9800" stroke="black" d="M325.12,-405C325.12,-405 232.62,-405 232.62,-405 226.62,-405 220.62,-399 220.62,-393 220.62,-393 220.62,-381 220.62,-381 220.62,-375 226.62,-369 232.62,-369 232.62,-369 325.12,-369 325.12,-369 331.12,-369 337.12,-375 337.12,-381 337.12,-381 337.12,-393 337.12,-393 337.12,-399 331.12,-405 325.12,-405"/>
<text xml:space="preserve" text-anchor="middle" x="278.88" y="-390.05" font-family="Arial" font-size="11.00" fill="white">Compute FLOPs</text>
<text xml:space="preserve" text-anchor="middle" x="278.88" y="-376.55" font-family="Arial" font-size="11.00" fill="white">Per&#45;Token Per&#45;Layer</text>
</g>
<!-- kvcache&#45;&gt;flops -->
<g id="edge5" class="edge">
<title>kvcache&#45;&gt;flops</title>
<path fill="none" stroke="#ff9800" stroke-width="2" d="M278.88,-454.76C278.88,-454.76 278.88,-418.24 278.88,-418.24"/>
<polygon fill="#ff9800" stroke="#ff9800" stroke-width="2" points="282.38,-418.24 278.88,-408.24 275.38,-418.24 282.38,-418.24"/>
</g>
<!-- prefill_attn -->
<g id="node9" class="node">
<title>prefill_attn</title>
<path fill="#2196f3" stroke="black" d="M109.75,-319C109.75,-319 12,-319 12,-319 6,-319 0,-313 0,-307 0,-307 0,-294.5 0,-294.5 0,-288.5 6,-282.5 12,-282.5 12,-282.5 109.75,-282.5 109.75,-282.5 115.75,-282.5 121.75,-288.5 121.75,-294.5 121.75,-294.5 121.75,-307 121.75,-307 121.75,-313 115.75,-319 109.75,-319"/>
<text xml:space="preserve" text-anchor="middle" x="60.88" y="-303.6" font-family="Arial Bold" font-size="12.00" fill="white">Prefill Attention</text>
<text xml:space="preserve" text-anchor="middle" x="60.88" y="-289.35" font-family="Arial Bold" font-size="12.00" fill="white">Core + Projections</text>
</g>
<!-- flops&#45;&gt;prefill_attn -->
<g id="edge6" class="edge">
<title>flops&#45;&gt;prefill_attn</title>
<path fill="none" stroke="#2196f3" stroke-width="2" d="M220.37,-387.5C169.75,-387.5 104.62,-387.5 104.62,-387.5 104.62,-387.5 104.62,-332.17 104.62,-332.17"/>
<polygon fill="#2196f3" stroke="#2196f3" stroke-width="2" points="108.13,-332.17 104.63,-322.17 101.13,-332.17 108.13,-332.17"/>
</g>
<!-- prefill_moe -->
<g id="node10" class="node">
<title>prefill_moe</title>
<path fill="#2196f3" stroke="black" d="M242.75,-319C242.75,-319 163,-319 163,-319 157,-319 151,-313 151,-307 151,-307 151,-294.5 151,-294.5 151,-288.5 157,-282.5 163,-282.5 163,-282.5 242.75,-282.5 242.75,-282.5 248.75,-282.5 254.75,-288.5 254.75,-294.5 254.75,-294.5 254.75,-307 254.75,-307 254.75,-313 248.75,-319 242.75,-319"/>
<text xml:space="preserve" text-anchor="middle" x="202.88" y="-303.6" font-family="Arial Bold" font-size="12.00" fill="white">Prefill MoE/FFN</text>
<text xml:space="preserve" text-anchor="middle" x="202.88" y="-289.35" font-family="Arial Bold" font-size="12.00" fill="white">GroupedGEMM</text>
</g>
<!-- flops&#45;&gt;prefill_moe -->
<g id="edge7" class="edge">
<title>flops&#45;&gt;prefill_moe</title>
<path fill="none" stroke="#2196f3" stroke-width="2" d="M237.69,-368.71C237.69,-368.71 237.69,-332.34 237.69,-332.34"/>
<polygon fill="#2196f3" stroke="#2196f3" stroke-width="2" points="241.19,-332.34 237.69,-322.34 234.19,-332.34 241.19,-332.34"/>
</g>
<!-- decode_attn -->
<g id="node15" class="node">
<title>decode_attn</title>
<path fill="#2196f3" stroke="black" d="M413.88,-319C413.88,-319 295.88,-319 295.88,-319 289.88,-319 283.88,-313 283.88,-307 283.88,-307 283.88,-294.5 283.88,-294.5 283.88,-288.5 289.88,-282.5 295.88,-282.5 295.88,-282.5 413.88,-282.5 413.88,-282.5 419.88,-282.5 425.88,-288.5 425.88,-294.5 425.88,-294.5 425.88,-307 425.88,-307 425.88,-313 419.88,-319 413.88,-319"/>
<text xml:space="preserve" text-anchor="middle" x="354.88" y="-303.6" font-family="Arial Bold" font-size="12.00" fill="white">Decode Attention</text>
<text xml:space="preserve" text-anchor="middle" x="354.88" y="-289.35" font-family="Arial Bold" font-size="12.00" fill="white">Core + KV Load + Proj</text>
</g>
<!-- flops&#45;&gt;decode_attn -->
<g id="edge13" class="edge">
<title>flops&#45;&gt;decode_attn</title>
<path fill="none" stroke="#2196f3" stroke-width="2" d="M310.5,-368.71C310.5,-368.71 310.5,-332.34 310.5,-332.34"/>
<polygon fill="#2196f3" stroke="#2196f3" stroke-width="2" points="314,-332.34 310.5,-322.34 307,-332.34 314,-332.34"/>
</g>
<!-- decode_moe -->
<g id="node16" class="node">
<title>decode_moe</title>
<path fill="#2196f3" stroke="black" d="M630.75,-319C630.75,-319 467,-319 467,-319 461,-319 455,-313 455,-307 455,-307 455,-294.5 455,-294.5 455,-288.5 461,-282.5 467,-282.5 467,-282.5 630.75,-282.5 630.75,-282.5 636.75,-282.5 642.75,-288.5 642.75,-294.5 642.75,-294.5 642.75,-307 642.75,-307 642.75,-313 636.75,-319 630.75,-319"/>
<text xml:space="preserve" text-anchor="middle" x="548.88" y="-303.6" font-family="Arial Bold" font-size="12.00" fill="white">Decode MoE/FFN</text>
<text xml:space="preserve" text-anchor="middle" x="548.88" y="-289.35" font-family="Arial Bold" font-size="12.00" fill="white">GroupedGEMM + Weight Load</text>
</g>
<!-- flops&#45;&gt;decode_moe -->
<g id="edge14" class="edge">
<title>flops&#45;&gt;decode_moe</title>
<path fill="none" stroke="#2196f3" stroke-width="2" d="M337.46,-387.5C401.25,-387.5 494.31,-387.5 494.31,-387.5 494.31,-387.5 494.31,-332.17 494.31,-332.17"/>
<polygon fill="#2196f3" stroke="#2196f3" stroke-width="2" points="497.81,-332.17 494.31,-322.17 490.81,-332.17 497.81,-332.17"/>
</g>
<!-- prefill_label -->
<g id="node8" class="node">
<title>prefill_label</title>
<text xml:space="preserve" text-anchor="middle" x="655.88" y="-725.58" font-family="Arial Bold" font-size="14.00" fill="#4caf50">Phase 3: Prefill Simulation</text>
</g>
<!-- prefill_comm -->
<g id="node11" class="node">
<title>prefill_comm</title>
<path fill="#9c27b0" stroke="black" d="M212.38,-232.5C212.38,-232.5 115.38,-232.5 115.38,-232.5 109.38,-232.5 103.38,-226.5 103.38,-220.5 103.38,-220.5 103.38,-208.5 103.38,-208.5 103.38,-202.5 109.38,-196.5 115.38,-196.5 115.38,-196.5 212.38,-196.5 212.38,-196.5 218.38,-196.5 224.38,-202.5 224.38,-208.5 224.38,-208.5 224.38,-220.5 224.38,-220.5 224.38,-226.5 218.38,-232.5 212.38,-232.5"/>
<text xml:space="preserve" text-anchor="middle" x="163.88" y="-217.55" font-family="Arial" font-size="11.00" fill="white">Prefill Communication</text>
<text xml:space="preserve" text-anchor="middle" x="163.88" y="-204.05" font-family="Arial" font-size="11.00" fill="white">AllReduce / DeepEP</text>
</g>
<!-- prefill_attn&#45;&gt;prefill_comm -->
<g id="edge8" class="edge">
<title>prefill_attn&#45;&gt;prefill_comm</title>
<path fill="none" stroke="#9c27b0" stroke-width="1.5" d="M112.56,-282.04C112.56,-282.04 112.56,-245.15 112.56,-245.15"/>
<polygon fill="#9c27b0" stroke="#9c27b0" stroke-width="1.5" points="116.06,-245.15 112.56,-235.15 109.06,-245.15 116.06,-245.15"/>
</g>
<!-- prefill_moe&#45;&gt;prefill_comm -->
<g id="edge9" class="edge">
<title>prefill_moe&#45;&gt;prefill_comm</title>
<path fill="none" stroke="#9c27b0" stroke-width="1.5" d="M187.69,-282.04C187.69,-282.04 187.69,-245.15 187.69,-245.15"/>
<polygon fill="#9c27b0" stroke="#9c27b0" stroke-width="1.5" points="191.19,-245.15 187.69,-235.15 184.19,-245.15 191.19,-245.15"/>
</g>
<!-- prefill_tbo -->
<g id="node12" class="node">
<title>prefill_tbo</title>
<path fill="#9c27b0" stroke="black" d="M182.38,-146.5C182.38,-146.5 127.38,-146.5 127.38,-146.5 121.38,-146.5 115.38,-140.5 115.38,-134.5 115.38,-134.5 115.38,-122.5 115.38,-122.5 115.38,-116.5 121.38,-110.5 127.38,-110.5 127.38,-110.5 182.38,-110.5 182.38,-110.5 188.38,-110.5 194.38,-116.5 194.38,-122.5 194.38,-122.5 194.38,-134.5 194.38,-134.5 194.38,-140.5 188.38,-146.5 182.38,-146.5"/>
<text xml:space="preserve" text-anchor="middle" x="154.88" y="-131.55" font-family="Arial" font-size="11.00" fill="white">TBO Overlap</text>
<text xml:space="preserve" text-anchor="middle" x="154.88" y="-118.05" font-family="Arial" font-size="11.00" fill="white">(Optional)</text>
</g>
<!-- prefill_comm&#45;&gt;prefill_tbo -->
<g id="edge10" class="edge">
<title>prefill_comm&#45;&gt;prefill_tbo</title>
<path fill="none" stroke="#9c27b0" stroke-width="1.5" stroke-dasharray="5,2" d="M154.88,-196.26C154.88,-196.26 154.88,-158.98 154.88,-158.98"/>
<polygon fill="#9c27b0" stroke="#9c27b0" stroke-width="1.5" points="158.38,-158.98 154.88,-148.98 151.38,-158.98 158.38,-158.98"/>
</g>
<!-- ttft -->
<g id="node13" class="node">
<title>ttft</title>
<path fill="#e91e63" stroke="black" d="M225.88,-60.5C225.88,-60.5 167.88,-60.5 167.88,-60.5 161.88,-60.5 155.88,-54.5 155.88,-48.5 155.88,-48.5 155.88,-36.5 155.88,-36.5 155.88,-30.5 161.88,-24.5 167.88,-24.5 167.88,-24.5 225.88,-24.5 225.88,-24.5 231.88,-24.5 237.88,-30.5 237.88,-36.5 237.88,-36.5 237.88,-48.5 237.88,-48.5 237.88,-54.5 231.88,-60.5 225.88,-60.5"/>
<text xml:space="preserve" text-anchor="middle" x="196.88" y="-45.55" font-family="Arial Bold" font-size="11.00" fill="white">TTFT (ms)</text>
<text xml:space="preserve" text-anchor="middle" x="196.88" y="-32.05" font-family="Arial Bold" font-size="11.00" fill="white">+ Prefill TGS</text>
</g>
<!-- prefill_comm&#45;&gt;ttft -->
<g id="edge12" class="edge">
<title>prefill_comm&#45;&gt;ttft</title>
<path fill="none" stroke="#e91e63" stroke-width="2" stroke-dasharray="5,2" d="M209.38,-196.09C209.38,-196.09 209.38,-73.8 209.38,-73.8"/>
<polygon fill="#e91e63" stroke="#e91e63" stroke-width="2" points="212.88,-73.8 209.38,-63.8 205.88,-73.8 212.88,-73.8"/>
</g>
<!-- prefill_tbo&#45;&gt;ttft -->
<g id="edge11" class="edge">
<title>prefill_tbo&#45;&gt;ttft</title>
<path fill="none" stroke="#e91e63" stroke-width="2" d="M175.12,-110.26C175.12,-110.26 175.12,-73.74 175.12,-73.74"/>
<polygon fill="#e91e63" stroke="#e91e63" stroke-width="2" points="178.63,-73.74 175.13,-63.74 171.63,-73.74 178.63,-73.74"/>
</g>
<!-- decode_label -->
<g id="node14" class="node">
<title>decode_label</title>
<text xml:space="preserve" text-anchor="middle" x="876.88" y="-725.58" font-family="Arial Bold" font-size="14.00" fill="#ff9800">Phase 4: Decode Simulation</text>
</g>
<!-- decode_comm -->
<g id="node17" class="node">
<title>decode_comm</title>
<path fill="#9c27b0" stroke="black" d="M446.62,-232.5C446.62,-232.5 339.12,-232.5 339.12,-232.5 333.12,-232.5 327.12,-226.5 327.12,-220.5 327.12,-220.5 327.12,-208.5 327.12,-208.5 327.12,-202.5 333.12,-196.5 339.12,-196.5 339.12,-196.5 446.62,-196.5 446.62,-196.5 452.62,-196.5 458.62,-202.5 458.62,-208.5 458.62,-208.5 458.62,-220.5 458.62,-220.5 458.62,-226.5 452.62,-232.5 446.62,-232.5"/>
<text xml:space="preserve" text-anchor="middle" x="392.88" y="-217.55" font-family="Arial" font-size="11.00" fill="white">Decode Communication</text>
<text xml:space="preserve" text-anchor="middle" x="392.88" y="-204.05" font-family="Arial" font-size="11.00" fill="white">AllReduce / DeepEP</text>
</g>
<!-- decode_attn&#45;&gt;decode_comm -->
<g id="edge15" class="edge">
<title>decode_attn&#45;&gt;decode_comm</title>
<path fill="none" stroke="#9c27b0" stroke-width="1.5" d="M376.5,-282.04C376.5,-282.04 376.5,-245.15 376.5,-245.15"/>
<polygon fill="#9c27b0" stroke="#9c27b0" stroke-width="1.5" points="380,-245.15 376.5,-235.15 373,-245.15 380,-245.15"/>
</g>
<!-- decode_moe&#45;&gt;decode_comm -->
<g id="edge16" class="edge">
<title>decode_moe&#45;&gt;decode_comm</title>
<path fill="none" stroke="#9c27b0" stroke-width="1.5" d="M454.61,-300.5C446,-300.5 440.44,-300.5 440.44,-300.5 440.44,-300.5 440.44,-245.01 440.44,-245.01"/>
<polygon fill="#9c27b0" stroke="#9c27b0" stroke-width="1.5" points="443.94,-245.01 440.44,-235.01 436.94,-245.01 443.94,-245.01"/>
</g>
<!-- tpot -->
<g id="node18" class="node">
<title>tpot</title>
<path fill="#e91e63" stroke="black" d="M426.38,-146.5C426.38,-146.5 359.38,-146.5 359.38,-146.5 353.38,-146.5 347.38,-140.5 347.38,-134.5 347.38,-134.5 347.38,-122.5 347.38,-122.5 347.38,-116.5 353.38,-110.5 359.38,-110.5 359.38,-110.5 426.38,-110.5 426.38,-110.5 432.38,-110.5 438.38,-116.5 438.38,-122.5 438.38,-122.5 438.38,-134.5 438.38,-134.5 438.38,-140.5 432.38,-146.5 426.38,-146.5"/>
<text xml:space="preserve" text-anchor="middle" x="392.88" y="-131.55" font-family="Arial Bold" font-size="11.00" fill="white">TPOT (ms)</text>
<text xml:space="preserve" text-anchor="middle" x="392.88" y="-118.05" font-family="Arial Bold" font-size="11.00" fill="white">+ Decode TGS</text>
</g>
<!-- decode_comm&#45;&gt;tpot -->
<g id="edge17" class="edge">
<title>decode_comm&#45;&gt;tpot</title>
<path fill="none" stroke="#e91e63" stroke-width="2" d="M392.88,-196.26C392.88,-196.26 392.88,-159.74 392.88,-159.74"/>
<polygon fill="#e91e63" stroke="#e91e63" stroke-width="2" points="396.38,-159.74 392.88,-149.74 389.38,-159.74 396.38,-159.74"/>
</g>
</g>
</svg>
