<?xml version="1.0" encoding="UTF-8" standalone="no"?>
<!DOCTYPE svg PUBLIC "-//W3C//DTD SVG 1.1//EN"
 "http://www.w3.org/Graphics/SVG/1.1/DTD/svg11.dtd">
<!-- Generated by graphviz version 14.1.2 (0)
 -->
<!-- Title: APIIntegration Pages: 1 -->
<svg width="294pt" height="487pt"
 viewBox="0.00 0.00 294.00 487.00" xmlns="http://www.w3.org/2000/svg" xmlns:xlink="http://www.w3.org/1999/xlink">
<g id="graph0" class="graph" transform="scale(1 1) rotate(0) translate(4 482.5)">
<title>APIIntegration</title>
<polygon fill="white" stroke="none" points="-4,4 -4,-482.5 289.88,-482.5 289.88,4 -4,4"/>
<!-- discover -->
<g id="node1" class="node">
<title>discover</title>
<path fill="#4a90d9" stroke="black" d="M196.12,-478.5C196.12,-478.5 111.12,-478.5 111.12,-478.5 105.12,-478.5 99.12,-472.5 99.12,-466.5 99.12,-466.5 99.12,-454.5 99.12,-454.5 99.12,-448.5 105.12,-442.5 111.12,-442.5 111.12,-442.5 196.12,-442.5 196.12,-442.5 202.12,-442.5 208.12,-448.5 208.12,-454.5 208.12,-454.5 208.12,-466.5 208.12,-466.5 208.12,-472.5 202.12,-478.5 196.12,-478.5"/>
<text xml:space="preserve" text-anchor="middle" x="153.62" y="-463.55" font-family="Times New Roman,serif" font-size="11.00" fill="#333333">1. Discover API</text>
<text xml:space="preserve" text-anchor="middle" x="153.62" y="-450.05" font-family="Times New Roman,serif" font-size="11.00" fill="#333333">(Browse Repository)</text>
</g>
<!-- check -->
<g id="node2" class="node">
<title>check</title>
<path fill="#5ba0e9" stroke="black" d="M201.75,-397.5C201.75,-397.5 105.5,-397.5 105.5,-397.5 99.5,-397.5 93.5,-391.5 93.5,-385.5 93.5,-385.5 93.5,-373.5 93.5,-373.5 93.5,-367.5 99.5,-361.5 105.5,-361.5 105.5,-361.5 201.75,-361.5 201.75,-361.5 207.75,-361.5 213.75,-367.5 213.75,-373.5 213.75,-373.5 213.75,-385.5 213.75,-385.5 213.75,-391.5 207.75,-397.5 201.75,-397.5"/>
<text xml:space="preserve" text-anchor="middle" x="153.62" y="-382.55" font-family="Times New Roman,serif" font-size="11.00" fill="#333333">2. Check Requirements</text>
<text xml:space="preserve" text-anchor="middle" x="153.62" y="-369.05" font-family="Times New Roman,serif" font-size="11.00" fill="#333333">(Auth, HTTPS, CORS)</text>
</g>
<!-- discover&#45;&gt;check -->
<g id="edge1" class="edge">
<title>discover&#45;&gt;check</title>
<path fill="none" stroke="#4a90d9" stroke-width="2" d="M153.62,-442.36C153.62,-433.1 153.62,-421.41 153.62,-410.69"/>
<polygon fill="#4a90d9" stroke="#4a90d9" stroke-width="2" points="157.13,-410.91 153.63,-400.91 150.13,-410.91 157.13,-410.91"/>
</g>
<!-- setup -->
<g id="node3" class="node">
<title>setup</title>
<path fill="#6cb0f9" stroke="black" d="M182.62,-316.5C182.62,-316.5 124.62,-316.5 124.62,-316.5 118.62,-316.5 112.62,-310.5 112.62,-304.5 112.62,-304.5 112.62,-292.5 112.62,-292.5 112.62,-286.5 118.62,-280.5 124.62,-280.5 124.62,-280.5 182.62,-280.5 182.62,-280.5 188.62,-280.5 194.62,-286.5 194.62,-292.5 194.62,-292.5 194.62,-304.5 194.62,-304.5 194.62,-310.5 188.62,-316.5 182.62,-316.5"/>
<text xml:space="preserve" text-anchor="middle" x="153.62" y="-301.55" font-family="Times New Roman,serif" font-size="11.00" fill="#333333">3. Setup Auth</text>
<text xml:space="preserve" text-anchor="middle" x="153.62" y="-288.05" font-family="Times New Roman,serif" font-size="11.00" fill="#333333">(Get API Key)</text>
</g>
<!-- check&#45;&gt;setup -->
<g id="edge2" class="edge">
<title>check&#45;&gt;setup</title>
<path fill="none" stroke="#4a90d9" stroke-width="2" d="M153.62,-361.36C153.62,-352.1 153.62,-340.41 153.62,-329.69"/>
<polygon fill="#4a90d9" stroke="#4a90d9" stroke-width="2" points="157.13,-329.91 153.63,-319.91 150.13,-329.91 157.13,-329.91"/>
</g>
<!-- request -->
<g id="node4" class="node">
<title>request</title>
<path fill="#7dc0ff" stroke="black" d="M187.5,-235.5C187.5,-235.5 119.75,-235.5 119.75,-235.5 113.75,-235.5 107.75,-229.5 107.75,-223.5 107.75,-223.5 107.75,-211.5 107.75,-211.5 107.75,-205.5 113.75,-199.5 119.75,-199.5 119.75,-199.5 187.5,-199.5 187.5,-199.5 193.5,-199.5 199.5,-205.5 199.5,-211.5 199.5,-211.5 199.5,-223.5 199.5,-223.5 199.5,-229.5 193.5,-235.5 187.5,-235.5"/>
<text xml:space="preserve" text-anchor="middle" x="153.62" y="-220.55" font-family="Times New Roman,serif" font-size="11.00" fill="#333333">4. Make Request</text>
<text xml:space="preserve" text-anchor="middle" x="153.62" y="-207.05" font-family="Times New Roman,serif" font-size="11.00" fill="#333333">(HTTP Call)</text>
</g>
<!-- setup&#45;&gt;request -->
<g id="edge3" class="edge">
<title>setup&#45;&gt;request</title>
<path fill="none" stroke="#4a90d9" stroke-width="2" d="M153.62,-280.36C153.62,-271.1 153.62,-259.41 153.62,-248.69"/>
<polygon fill="#4a90d9" stroke="#4a90d9" stroke-width="2" points="157.13,-248.91 153.63,-238.91 150.13,-248.91 157.13,-248.91"/>
</g>
<!-- handle -->
<g id="node5" class="node">
<title>handle</title>
<path fill="#8ed0ff" stroke="black" d="M93.25,-128C93.25,-128 12,-128 12,-128 6,-128 0,-122 0,-116 0,-116 0,-104 0,-104 0,-98 6,-92 12,-92 12,-92 93.25,-92 93.25,-92 99.25,-92 105.25,-98 105.25,-104 105.25,-104 105.25,-116 105.25,-116 105.25,-122 99.25,-128 93.25,-128"/>
<text xml:space="preserve" text-anchor="middle" x="52.62" y="-113.05" font-family="Times New Roman,serif" font-size="11.00" fill="#333333">5. Handle Response</text>
<text xml:space="preserve" text-anchor="middle" x="52.62" y="-99.55" font-family="Times New Roman,serif" font-size="11.00" fill="#333333">(Parse JSON)</text>
</g>
<!-- request&#45;&gt;handle -->
<g id="edge4" class="edge">
<title>request&#45;&gt;handle</title>
<path fill="none" stroke="#4a90d9" stroke-width="2" d="M136.95,-199.08C120.94,-182.36 96.54,-156.87 78.1,-137.61"/>
<polygon fill="#4a90d9" stroke="#4a90d9" stroke-width="2" points="80.86,-135.44 71.42,-130.63 75.81,-140.28 80.86,-135.44"/>
</g>
<!-- error -->
<g id="node7" class="node">
<title>error</title>
<polygon fill="#e74c3c" stroke="black" points="213.62,-139 141.38,-110 213.62,-81 285.88,-110 213.62,-139"/>
<text xml:space="preserve" text-anchor="middle" x="213.62" y="-111.95" font-family="Times New Roman,serif" font-size="9.00" fill="white">Error Handling</text>
<text xml:space="preserve" text-anchor="middle" x="213.62" y="-101.45" font-family="Times New Roman,serif" font-size="9.00" fill="white">(Retry/Backoff)</text>
</g>
<!-- request&#45;&gt;error -->
<g id="edge6" class="edge">
<title>request&#45;&gt;error</title>
<path fill="none" stroke="#e74c3c" stroke-dasharray="5,2" d="M159.53,-199.24C163.67,-188.02 169.69,-173.25 176.62,-161 180.41,-154.31 184.96,-147.47 189.54,-141.08"/>
<polygon fill="#e74c3c" stroke="#e74c3c" points="192.15,-143.45 195.31,-133.34 186.53,-139.27 192.15,-143.45"/>
</g>
<!-- integrate -->
<g id="node6" class="node">
<title>integrate</title>
<path fill="#9fe0ff" stroke="black" d="M86.5,-36C86.5,-36 18.75,-36 18.75,-36 12.75,-36 6.75,-30 6.75,-24 6.75,-24 6.75,-12 6.75,-12 6.75,-6 12.75,0 18.75,0 18.75,0 86.5,0 86.5,0 92.5,0 98.5,-6 98.5,-12 98.5,-12 98.5,-24 98.5,-24 98.5,-30 92.5,-36 86.5,-36"/>
<text xml:space="preserve" text-anchor="middle" x="52.62" y="-21.05" font-family="Times New Roman,serif" font-size="11.00" fill="#333333">6. Integrate Data</text>
<text xml:space="preserve" text-anchor="middle" x="52.62" y="-7.55" font-family="Times New Roman,serif" font-size="11.00" fill="#333333">(Update App)</text>
</g>
<!-- handle&#45;&gt;integrate -->
<g id="edge5" class="edge">
<title>handle&#45;&gt;integrate</title>
<path fill="none" stroke="#4a90d9" stroke-width="2" d="M52.62,-91.65C52.62,-79.57 52.62,-63.15 52.62,-48.98"/>
<polygon fill="#4a90d9" stroke="#4a90d9" stroke-width="2" points="56.13,-49.33 52.63,-39.33 49.13,-49.33 56.13,-49.33"/>
</g>
<!-- error&#45;&gt;request -->
<g id="edge7" class="edge">
<title>error&#45;&gt;request</title>
<path fill="none" stroke="#e74c3c" stroke-dasharray="5,2" d="M200.55,-133.99C191.33,-150.21 178.93,-172 169.2,-189.12"/>
<polygon fill="#e74c3c" stroke="#e74c3c" points="166.18,-187.34 164.28,-197.76 172.27,-190.8 166.18,-187.34"/>
<text xml:space="preserve" text-anchor="middle" x="196.38" y="-164.2" font-family="Times New Roman,serif" font-size="14.00">retry</text>
</g>
</g>
</svg>
