<?xml version="1.0" encoding="UTF-8" standalone="no"?>
<!DOCTYPE svg PUBLIC "-//W3C//DTD SVG 1.1//EN"
 "http://www.w3.org/Graphics/SVG/1.1/DTD/svg11.dtd">
<!-- Generated by graphviz version 14.1.2 (0)
 -->
<!-- Title: scrapling_mcp Pages: 1 -->
<svg width="739pt" height="581pt"
 viewBox="0.00 0.00 739.00 581.00" xmlns="http://www.w3.org/2000/svg" xmlns:xlink="http://www.w3.org/1999/xlink">
<style>
<!-- White text halo for edge label readability -->
text { paint-order: stroke; stroke: #ffffff; stroke-width: 3px; stroke-linejoin: round; fill: #1a1a2e; }
</style>
<g id="graph0" class="graph" transform="scale(1 1) rotate(0) translate(4 577)">
<title>scrapling_mcp</title>
<polygon fill="white" stroke="none" points="-4,4 -4,-577 735.25,-577 735.25,4 -4,4"/>
<text xml:space="preserve" text-anchor="middle" x="365.62" y="-7.2" font-family="Times New Roman,serif" font-size="14.00">Scrapling &#45; MCP Server Integration</text>
<!-- claude -->
<g id="node1" class="node">
<title>claude</title>
<polygon fill="#4caf50" stroke="black" points="370.62,-573 314.88,-573 314.88,-537 370.62,-537 370.62,-573"/>
<text xml:space="preserve" text-anchor="middle" x="342.75" y="-558.05" font-family="Arial" font-size="11.00" fill="white">Claude</text>
<text xml:space="preserve" text-anchor="middle" x="342.75" y="-544.55" font-family="Arial" font-size="11.00" fill="white">Desktop</text>
</g>
<!-- mcp_proto -->
<g id="node4" class="node">
<title>mcp_proto</title>
<path fill="#2196f3" stroke="black" d="M469.12,-479C469.12,-479 398.38,-479 398.38,-479 392.38,-479 386.38,-473 386.38,-467 386.38,-467 386.38,-454.5 386.38,-454.5 386.38,-448.5 392.38,-442.5 398.38,-442.5 398.38,-442.5 469.12,-442.5 469.12,-442.5 475.12,-442.5 481.12,-448.5 481.12,-454.5 481.12,-454.5 481.12,-467 481.12,-467 481.12,-473 475.12,-479 469.12,-479"/>
<text xml:space="preserve" text-anchor="middle" x="433.75" y="-463.6" font-family="Arial Bold" font-size="12.00" fill="white">MCP Protocol</text>
<text xml:space="preserve" text-anchor="middle" x="433.75" y="-449.35" font-family="Arial Bold" font-size="12.00" fill="white">(Stdio / HTTP)</text>
</g>
<!-- claude&#45;&gt;mcp_proto -->
<g id="edge1" class="edge">
<title>claude&#45;&gt;mcp_proto</title>
<path fill="none" stroke="#4caf50" stroke-width="2" d="M364.62,-536.78C364.62,-509.32 364.62,-460.5 364.62,-460.5 364.62,-460.5 373.09,-460.5 373.09,-460.5"/>
<polygon fill="#4caf50" stroke="#4caf50" stroke-width="2" points="373.09,-464 383.09,-460.5 373.09,-457 373.09,-464"/>
</g>
<!-- cursor -->
<g id="node2" class="node">
<title>cursor</title>
<polygon fill="#4caf50" stroke="black" points="460.75,-573 406.75,-573 406.75,-537 460.75,-537 460.75,-573"/>
<text xml:space="preserve" text-anchor="middle" x="433.75" y="-558.05" font-family="Arial" font-size="11.00" fill="white">Cursor</text>
<text xml:space="preserve" text-anchor="middle" x="433.75" y="-544.55" font-family="Arial" font-size="11.00" fill="white">IDE</text>
</g>
<!-- cursor&#45;&gt;mcp_proto -->
<g id="edge2" class="edge">
<title>cursor&#45;&gt;mcp_proto</title>
<path fill="none" stroke="#4caf50" stroke-width="2" d="M433.75,-536.83C433.75,-536.83 433.75,-492.22 433.75,-492.22"/>
<polygon fill="#4caf50" stroke="#4caf50" stroke-width="2" points="437.25,-492.22 433.75,-482.22 430.25,-492.22 437.25,-492.22"/>
</g>
<!-- other_ai -->
<g id="node3" class="node">
<title>other_ai</title>
<polygon fill="#4caf50" stroke="black" points="567.12,-573 496.38,-573 496.38,-537 567.12,-537 567.12,-573"/>
<text xml:space="preserve" text-anchor="middle" x="531.75" y="-558.05" font-family="Arial" font-size="11.00" fill="white">Other MCP</text>
<text xml:space="preserve" text-anchor="middle" x="531.75" y="-544.55" font-family="Arial" font-size="11.00" fill="white">Clients</text>
</g>
<!-- other_ai&#45;&gt;mcp_proto -->
<g id="edge3" class="edge">
<title>other_ai&#45;&gt;mcp_proto</title>
<path fill="none" stroke="#4caf50" stroke-width="2" d="M502.62,-536.78C502.62,-509.32 502.62,-460.5 502.62,-460.5 502.62,-460.5 494.61,-460.5 494.61,-460.5"/>
<polygon fill="#4caf50" stroke="#4caf50" stroke-width="2" points="494.61,-457 484.61,-460.5 494.61,-464 494.61,-457"/>
</g>
<!-- mcp_server -->
<g id="node5" class="node">
<title>mcp_server</title>
<path fill="#1a1a2e" stroke="black" d="M496.88,-384.5C496.88,-384.5 370.62,-384.5 370.62,-384.5 364.62,-384.5 358.62,-378.5 358.62,-372.5 358.62,-372.5 358.62,-357 358.62,-357 358.62,-351 364.62,-345 370.62,-345 370.62,-345 496.88,-345 496.88,-345 502.88,-345 508.88,-351 508.88,-357 508.88,-357 508.88,-372.5 508.88,-372.5 508.88,-378.5 502.88,-384.5 496.88,-384.5"/>
<text xml:space="preserve" text-anchor="middle" x="433.75" y="-367.2" font-family="Arial Bold" font-size="14.00" fill="white">ScraplingMCPServer</text>
<text xml:space="preserve" text-anchor="middle" x="433.75" y="-351.45" font-family="Arial Bold" font-size="14.00" fill="white">(FastMCP)</text>
</g>
<!-- mcp_proto&#45;&gt;mcp_server -->
<g id="edge4" class="edge">
<title>mcp_proto&#45;&gt;mcp_server</title>
<path fill="none" stroke="#2196f3" stroke-width="2" d="M433.75,-442.24C433.75,-442.24 433.75,-397.89 433.75,-397.89"/>
<polygon fill="#2196f3" stroke="#2196f3" stroke-width="2" points="437.25,-397.89 433.75,-387.89 430.25,-397.89 437.25,-397.89"/>
</g>
<!-- session_mgmt -->
<g id="node6" class="node">
<title>session_mgmt</title>
<path fill="#00897b" stroke="black" d="M218,-274C218,-274 131.5,-274 131.5,-274 125.5,-274 119.5,-268 119.5,-262 119.5,-262 119.5,-250 119.5,-250 119.5,-244 125.5,-238 131.5,-238 131.5,-238 218,-238 218,-238 224,-238 230,-244 230,-250 230,-250 230,-262 230,-262 230,-268 224,-274 218,-274"/>
<text xml:space="preserve" text-anchor="middle" x="174.75" y="-258.5" font-family="Arial" font-size="10.00" fill="white">Session Management</text>
<text xml:space="preserve" text-anchor="middle" x="174.75" y="-246.5" font-family="Arial" font-size="10.00" fill="white">open/close/list</text>
</g>
<!-- mcp_server&#45;&gt;session_mgmt -->
<g id="edge5" class="edge">
<title>mcp_server&#45;&gt;session_mgmt</title>
<path fill="none" stroke="#00897b" stroke-width="2" d="M358.14,-364.5C281.69,-364.5 174.75,-364.5 174.75,-364.5 174.75,-364.5 174.75,-287.43 174.75,-287.43"/>
<polygon fill="#00897b" stroke="#00897b" stroke-width="2" points="178.25,-287.43 174.75,-277.43 171.25,-287.43 178.25,-287.43"/>
</g>
<!-- http_tools -->
<g id="node7" class="node">
<title>http_tools</title>
<path fill="#ff9800" stroke="black" d="M335,-274C335,-274 278.5,-274 278.5,-274 272.5,-274 266.5,-268 266.5,-262 266.5,-262 266.5,-250 266.5,-250 266.5,-244 272.5,-238 278.5,-238 278.5,-238 335,-238 335,-238 341,-238 347,-244 347,-250 347,-250 347,-262 347,-262 347,-268 341,-274 335,-274"/>
<text xml:space="preserve" text-anchor="middle" x="306.75" y="-259.05" font-family="Arial" font-size="11.00" fill="white">HTTP Tools</text>
<text xml:space="preserve" text-anchor="middle" x="306.75" y="-245.55" font-family="Arial" font-size="11.00" fill="white">get / bulk_get</text>
</g>
<!-- mcp_server&#45;&gt;http_tools -->
<g id="edge6" class="edge">
<title>mcp_server&#45;&gt;http_tools</title>
<path fill="none" stroke="#ff9800" stroke-width="2" d="M362.75,-344.55C362.75,-314.75 362.75,-262.5 362.75,-262.5 362.75,-262.5 360.47,-262.5 360.47,-262.5"/>
<polygon fill="#ff9800" stroke="#ff9800" stroke-width="2" points="360.47,-259 350.47,-262.5 360.47,-266 360.47,-259"/>
</g>
<!-- browser_tools -->
<g id="node8" class="node">
<title>browser_tools</title>
<path fill="#ff9800" stroke="black" d="M472.88,-280.25C472.88,-280.25 394.62,-280.25 394.62,-280.25 388.62,-280.25 382.62,-274.25 382.62,-268.25 382.62,-268.25 382.62,-243.75 382.62,-243.75 382.62,-237.75 388.62,-231.75 394.62,-231.75 394.62,-231.75 472.88,-231.75 472.88,-231.75 478.88,-231.75 484.88,-237.75 484.88,-243.75 484.88,-243.75 484.88,-268.25 484.88,-268.25 484.88,-274.25 478.88,-280.25 472.88,-280.25"/>
<text xml:space="preserve" text-anchor="middle" x="433.75" y="-265.8" font-family="Arial" font-size="11.00" fill="white">Browser Tools</text>
<text xml:space="preserve" text-anchor="middle" x="433.75" y="-252.3" font-family="Arial" font-size="11.00" fill="white">fetch / bulk_fetch</text>
<text xml:space="preserve" text-anchor="middle" x="433.75" y="-238.8" font-family="Arial" font-size="11.00" fill="white">(DynamicFetcher)</text>
</g>
<!-- mcp_server&#45;&gt;browser_tools -->
<g id="edge7" class="edge">
<title>mcp_server&#45;&gt;browser_tools</title>
<path fill="none" stroke="#ff9800" stroke-width="2" d="M433.75,-344.55C433.75,-344.55 433.75,-293.69 433.75,-293.69"/>
<polygon fill="#ff9800" stroke="#ff9800" stroke-width="2" points="437.25,-293.69 433.75,-283.69 430.25,-293.69 437.25,-293.69"/>
</g>
<!-- stealth_tools -->
<g id="node9" class="node">
<title>stealth_tools</title>
<path fill="#ff9800" stroke="black" d="M616.5,-287C616.5,-287 533,-287 533,-287 527,-287 521,-281 521,-275 521,-275 521,-237 521,-237 521,-231 527,-225 533,-225 533,-225 616.5,-225 616.5,-225 622.5,-225 628.5,-231 628.5,-237 628.5,-237 628.5,-275 628.5,-275 628.5,-281 622.5,-287 616.5,-287"/>
<text xml:space="preserve" text-anchor="middle" x="574.75" y="-272.55" font-family="Arial" font-size="11.00" fill="white">Stealth Tools</text>
<text xml:space="preserve" text-anchor="middle" x="574.75" y="-259.05" font-family="Arial" font-size="11.00" fill="white">stealthy_fetch /</text>
<text xml:space="preserve" text-anchor="middle" x="574.75" y="-245.55" font-family="Arial" font-size="11.00" fill="white">bulk_stealthy_fetch</text>
<text xml:space="preserve" text-anchor="middle" x="574.75" y="-232.05" font-family="Arial" font-size="11.00" fill="white">(StealthyFetcher)</text>
</g>
<!-- mcp_server&#45;&gt;stealth_tools -->
<g id="edge8" class="edge">
<title>mcp_server&#45;&gt;stealth_tools</title>
<path fill="none" stroke="#ff9800" stroke-width="2" d="M504.75,-344.94C504.75,-315.73 504.75,-264.5 504.75,-264.5 504.75,-264.5 507.61,-264.5 507.61,-264.5"/>
<polygon fill="#ff9800" stroke="#ff9800" stroke-width="2" points="507.61,-268 517.61,-264.5 507.61,-261 507.61,-268"/>
</g>
<!-- screenshot -->
<g id="node10" class="node">
<title>screenshot</title>
<path fill="#00897b" stroke="black" d="M719.25,-274C719.25,-274 676.25,-274 676.25,-274 670.25,-274 664.25,-268 664.25,-262 664.25,-262 664.25,-250 664.25,-250 664.25,-244 670.25,-238 676.25,-238 676.25,-238 719.25,-238 719.25,-238 725.25,-238 731.25,-244 731.25,-250 731.25,-250 731.25,-262 731.25,-262 731.25,-268 725.25,-274 719.25,-274"/>
<text xml:space="preserve" text-anchor="middle" x="697.75" y="-258.5" font-family="Arial" font-size="10.00" fill="white">Screenshot</text>
<text xml:space="preserve" text-anchor="middle" x="697.75" y="-246.5" font-family="Arial" font-size="10.00" fill="white">capture tool</text>
</g>
<!-- mcp_server&#45;&gt;screenshot -->
<g id="edge9" class="edge">
<title>mcp_server&#45;&gt;screenshot</title>
<path fill="none" stroke="#00897b" stroke-width="2" d="M509.05,-364.5C587.08,-364.5 697.75,-364.5 697.75,-364.5 697.75,-364.5 697.75,-287.43 697.75,-287.43"/>
<polygon fill="#00897b" stroke="#00897b" stroke-width="2" points="701.25,-287.43 697.75,-277.43 694.25,-287.43 701.25,-287.43"/>
</g>
<!-- dynamic_session -->
<g id="node12" class="node">
<title>dynamic_session</title>
<path fill="#ff9800" stroke="black" d="M113.5,-160.75C113.5,-160.75 12,-160.75 12,-160.75 6,-160.75 0,-154.75 0,-148.75 0,-148.75 0,-136.75 0,-136.75 0,-130.75 6,-124.75 12,-124.75 12,-124.75 113.5,-124.75 113.5,-124.75 119.5,-124.75 125.5,-130.75 125.5,-136.75 125.5,-136.75 125.5,-148.75 125.5,-148.75 125.5,-154.75 119.5,-160.75 113.5,-160.75"/>
<text xml:space="preserve" text-anchor="middle" x="62.75" y="-145.8" font-family="Arial" font-size="11.00" fill="white">AsyncDynamicSession</text>
<text xml:space="preserve" text-anchor="middle" x="62.75" y="-132.3" font-family="Arial" font-size="11.00" fill="white">(Playwright)</text>
</g>
<!-- session_mgmt&#45;&gt;dynamic_session -->
<g id="edge10" class="edge">
<title>session_mgmt&#45;&gt;dynamic_session</title>
<path fill="none" stroke="#2196f3" stroke-width="1.5" d="M143.5,-237.51C143.5,-205.35 143.5,-142.5 143.5,-142.5 143.5,-142.5 138.25,-142.5 138.25,-142.5"/>
<polygon fill="#2196f3" stroke="#2196f3" stroke-width="1.5" points="138.25,-139 128.25,-142.5 138.25,-146 138.25,-139"/>
<text xml:space="preserve" text-anchor="middle" x="119.88" y="-190.58" font-family="Times New Roman,serif" font-size="14.00">dynamic</text>
</g>
<!-- stealthy_session -->
<g id="node13" class="node">
<title>stealthy_session</title>
<path fill="#ff9800" stroke="black" d="M272,-160.75C272,-160.75 173.5,-160.75 173.5,-160.75 167.5,-160.75 161.5,-154.75 161.5,-148.75 161.5,-148.75 161.5,-136.75 161.5,-136.75 161.5,-130.75 167.5,-124.75 173.5,-124.75 173.5,-124.75 272,-124.75 272,-124.75 278,-124.75 284,-130.75 284,-136.75 284,-136.75 284,-148.75 284,-148.75 284,-154.75 278,-160.75 272,-160.75"/>
<text xml:space="preserve" text-anchor="middle" x="222.75" y="-145.8" font-family="Arial" font-size="11.00" fill="white">AsyncStealthySession</text>
<text xml:space="preserve" text-anchor="middle" x="222.75" y="-132.3" font-family="Arial" font-size="11.00" fill="white">(Patchright)</text>
</g>
<!-- session_mgmt&#45;&gt;stealthy_session -->
<g id="edge11" class="edge">
<title>session_mgmt&#45;&gt;stealthy_session</title>
<path fill="none" stroke="#9c27b0" stroke-width="1.5" d="M195.75,-237.55C195.75,-237.55 195.75,-173.46 195.75,-173.46"/>
<polygon fill="#9c27b0" stroke="#9c27b0" stroke-width="1.5" points="199.25,-173.46 195.75,-163.46 192.25,-173.46 199.25,-173.46"/>
<text xml:space="preserve" text-anchor="middle" x="174.75" y="-208.71" font-family="Times New Roman,serif" font-size="14.00">stealthy</text>
</g>
<!-- extraction -->
<g id="node11" class="node">
<title>extraction</title>
<path fill="#9c27b0" stroke="black" d="M488.62,-167C488.62,-167 378.88,-167 378.88,-167 372.88,-167 366.88,-161 366.88,-155 366.88,-155 366.88,-130.5 366.88,-130.5 366.88,-124.5 372.88,-118.5 378.88,-118.5 378.88,-118.5 488.62,-118.5 488.62,-118.5 494.62,-118.5 500.62,-124.5 500.62,-130.5 500.62,-130.5 500.62,-155 500.62,-155 500.62,-161 494.62,-167 488.62,-167"/>
<text xml:space="preserve" text-anchor="middle" x="433.75" y="-152.55" font-family="Arial" font-size="11.00" fill="white">Content Extraction</text>
<text xml:space="preserve" text-anchor="middle" x="433.75" y="-139.05" font-family="Arial" font-size="11.00" fill="white">Markdown / HTML / Text</text>
<text xml:space="preserve" text-anchor="middle" x="433.75" y="-125.55" font-family="Arial" font-size="11.00" fill="white">CSS Selector Filtering</text>
</g>
<!-- http_tools&#45;&gt;extraction -->
<g id="edge12" class="edge">
<title>http_tools&#45;&gt;extraction</title>
<path fill="none" stroke="#9c27b0" stroke-width="2" d="M347.48,-250.5C361.97,-250.5 374.75,-250.5 374.75,-250.5 374.75,-250.5 374.75,-180.5 374.75,-180.5"/>
<polygon fill="#9c27b0" stroke="#9c27b0" stroke-width="2" points="378.25,-180.5 374.75,-170.5 371.25,-180.5 378.25,-180.5"/>
</g>
<!-- browser_tools&#45;&gt;extraction -->
<g id="edge13" class="edge">
<title>browser_tools&#45;&gt;extraction</title>
<path fill="none" stroke="#9c27b0" stroke-width="2" d="M433.75,-231.43C433.75,-231.43 433.75,-180.3 433.75,-180.3"/>
<polygon fill="#9c27b0" stroke="#9c27b0" stroke-width="2" points="437.25,-180.3 433.75,-170.3 430.25,-180.3 437.25,-180.3"/>
</g>
<!-- stealth_tools&#45;&gt;extraction -->
<g id="edge14" class="edge">
<title>stealth_tools&#45;&gt;extraction</title>
<path fill="none" stroke="#9c27b0" stroke-width="2" d="M520.51,-247.5C505.26,-247.5 492.75,-247.5 492.75,-247.5 492.75,-247.5 492.75,-180.34 492.75,-180.34"/>
<polygon fill="#9c27b0" stroke="#9c27b0" stroke-width="2" points="496.25,-180.34 492.75,-170.34 489.25,-180.34 496.25,-180.34"/>
</g>
<!-- output -->
<g id="node14" class="node">
<title>output</title>
<polygon fill="#f44336" stroke="black" points="492.75,-60.5 374.75,-60.5 374.75,-24.5 492.75,-24.5 492.75,-60.5"/>
<text xml:space="preserve" text-anchor="middle" x="433.75" y="-45.55" font-family="Arial" font-size="11.00" fill="white">Structured Response</text>
<text xml:space="preserve" text-anchor="middle" x="433.75" y="-32.05" font-family="Arial" font-size="11.00" fill="white">(status, content, url)</text>
</g>
<!-- extraction&#45;&gt;output -->
<g id="edge15" class="edge">
<title>extraction&#45;&gt;output</title>
<path fill="none" stroke="#f44336" stroke-width="2" d="M433.75,-118.23C433.75,-118.23 433.75,-73.82 433.75,-73.82"/>
<polygon fill="#f44336" stroke="#f44336" stroke-width="2" points="437.25,-73.82 433.75,-63.82 430.25,-73.82 437.25,-73.82"/>
</g>
</g>
</svg>
