<svg xmlns="http://www.w3.org/2000/svg" viewBox="0 0 960 600">
  <style>
    text { font-family: Inter, system-ui, -apple-system, sans-serif; }
    .mono { font-family: JetBrains Mono, Fira Code, monospace; }
    .title { font-size: 17px; font-weight: 700; fill: #1e293b; }
    .comp  { font-size: 12px; font-weight: 600; fill: #ffffff; }
    .comp-d { font-size: 12px; font-weight: 600; fill: #334155; }
    .label { font-size: 10px; fill: #64748b; }
    .anno  { font-size: 9px; fill: #94a3b8; }
    .legend { font-size: 9px; fill: #475569; }
  </style>
  <defs>
    <filter id="shadow"><feDropShadow dx="0" dy="2" stdDeviation="3" flood-opacity="0.1"/></filter>
    <marker id="arr-blue" markerWidth="8" markerHeight="6" refX="8" refY="3" orient="auto">
      <path d="M0,0 L8,3 L0,6 Z" fill="#2563eb"/>
    </marker>
    <marker id="arr-orange" markerWidth="8" markerHeight="6" refX="8" refY="3" orient="auto">
      <path d="M0,0 L8,3 L0,6 Z" fill="#ea580c"/>
    </marker>
    <marker id="arr-green" markerWidth="8" markerHeight="6" refX="8" refY="3" orient="auto">
      <path d="M0,0 L8,3 L0,6 Z" fill="#059669"/>
    </marker>
    <marker id="arr-purple" markerWidth="8" markerHeight="6" refX="8" refY="3" orient="auto">
      <path d="M0,0 L8,3 L0,6 Z" fill="#7c3aed"/>
    </marker>
    <marker id="arr-gray" markerWidth="8" markerHeight="6" refX="8" refY="3" orient="auto">
      <path d="M0,0 L8,3 L0,6 Z" fill="#64748b"/>
    </marker>
  </defs>
  <rect width="960" height="600" fill="#ffffff"/>
  <text x="480" y="28" text-anchor="middle" class="title">Scrapling — Stealth Mechanisms</text>
  <rect x="48" y="200" width="144" height="44" rx="8" fill="#f1f5f9" stroke="#94a3b8" stroke-width="1.5" filter="url(#shadow)"/>
  <text x="120" y="226" text-anchor="middle" class="comp-d">Target Website</text>
  <polygon points="320,182 408,222 320,262 232,222" fill="#f59e0b" filter="url(#shadow)"/>
  <text x="320" y="216" text-anchor="middle" class="comp">Protection</text>
  <text x="320" y="230" text-anchor="middle" class="comp">Level?</text>
  <rect x="56" y="344" width="128" height="40" rx="8" fill="#10b981" filter="url(#shadow)"/>
  <text x="120" y="368" text-anchor="middle" class="comp">Fetcher</text>
  <text x="120" y="336" text-anchor="middle" class="label" fill="#10b981">Low</text>
  <rect x="240" y="344" width="144" height="40" rx="8" fill="#f59e0b" filter="url(#shadow)"/>
  <text x="312" y="368" text-anchor="middle" class="comp">DynamicFetcher</text>
  <text x="312" y="336" text-anchor="middle" class="label" fill="#f59e0b">Mid</text>
  <rect x="448" y="344" width="160" height="40" rx="8" fill="#dc2626" filter="url(#shadow)"/>
  <text x="528" y="368" text-anchor="middle" class="comp">StealthyFetcher</text>
  <text x="528" y="336" text-anchor="middle" class="label" fill="#dc2626">High</text>
  <rect x="672" y="120" width="144" height="32" rx="6" fill="#fef3c7" stroke="#f59e0b" stroke-width="1" filter="url(#shadow)"/>
  <text x="744" y="140" text-anchor="middle" class="comp-d">Canvas Noise</text>
  <rect x="672" y="160" width="144" height="32" rx="6" fill="#fef3c7" stroke="#f59e0b" stroke-width="1" filter="url(#shadow)"/>
  <text x="744" y="180" text-anchor="middle" class="comp-d">WebRTC Leak</text>
  <rect x="672" y="200" width="144" height="32" rx="6" fill="#fef3c7" stroke="#f59e0b" stroke-width="1" filter="url(#shadow)"/>
  <text x="744" y="220" text-anchor="middle" class="comp-d">WebGL Mask</text>
  <rect x="672" y="240" width="144" height="32" rx="6" fill="#fef3c7" stroke="#f59e0b" stroke-width="1" filter="url(#shadow)"/>
  <text x="744" y="260" text-anchor="middle" class="comp-d">Cloudflare Bypass</text>
  <rect x="672" y="280" width="144" height="32" rx="6" fill="#fef3c7" stroke="#f59e0b" stroke-width="1" filter="url(#shadow)"/>
  <text x="744" y="300" text-anchor="middle" class="comp-d">Fingerprint Random</text>
  <path d="M608,364 L656,364 L656,136 L672,136" fill="none" stroke="#ea580c" stroke-width="1.5" marker-end="url(#arr-orange)"/>
  <rect x="160" y="456" width="144" height="36" rx="8" fill="#059669" filter="url(#shadow)"/>
  <text x="232" y="478" text-anchor="middle" class="comp">Proxy Rotation</text>
  <rect x="400" y="456" width="144" height="36" rx="8" fill="#059669" filter="url(#shadow)"/>
  <text x="472" y="478" text-anchor="middle" class="comp">DNS Leak Prevention</text>
  <rect x="640" y="456" width="144" height="36" rx="8" fill="#059669" filter="url(#shadow)"/>
  <text x="712" y="478" text-anchor="middle" class="comp">Ad Blocking</text>
  <path d="M120,384 L120,456" fill="none" stroke="#2563eb" stroke-width="1.5" marker-end="url(#arr-blue)"/>
  <path d="M312,384 L312,456" fill="none" stroke="#2563eb" stroke-width="1.5" marker-end="url(#arr-blue)"/>
  <path d="M528,384 L528,456" fill="none" stroke="#2563eb" stroke-width="1.5" marker-end="url(#arr-blue)"/>
  <rect x="760" y="520" width="144" height="40" rx="8" fill="#ef4444" filter="url(#shadow)"/>
  <text x="832" y="544" text-anchor="middle" class="comp">Success</text>
  <path d="M712,474 L760,474 L760,540 L760,540" fill="none" stroke="#2563eb" stroke-width="1.5" marker-end="url(#arr-blue)"/>
  <path d="M192,222 L232,222" fill="none" stroke="#2563eb" stroke-width="1.5" marker-end="url(#arr-blue)"/>
  <path d="M276,242 L276,288 L120,288 L120,344" fill="none" stroke="#ea580c" stroke-width="1.5" marker-end="url(#arr-orange)"/>
  <path d="M320,262 L320,312 L312,312 L312,344" fill="none" stroke="#ea580c" stroke-width="1.5" marker-end="url(#arr-orange)"/>
  <path d="M364,242 L364,336 L528,336 L528,344" fill="none" stroke="#ea580c" stroke-width="1.5" marker-end="url(#arr-orange)"/>
  <rect x="48" y="520" width="140" height="52" rx="4" fill="#f8fafc" stroke="#e2e8f0" stroke-width="1"/>
  <text x="118" y="532" text-anchor="middle" class="legend" font-weight="600">Legend</text>
  <line x1="56" y1="544" x2="80" y2="544" stroke="#2563eb" stroke-width="1.5"/>
  <text x="88" y="548" class="legend">Data Flow</text>
  <line x1="56" y1="562" x2="80" y2="562" stroke="#ea580c" stroke-width="1.5"/>
  <text x="88" y="566" class="legend">Control / Trigger</text>
</svg>