<?xml version="1.0" encoding="UTF-8" standalone="no"?>
<!DOCTYPE svg PUBLIC "-//W3C//DTD SVG 1.1//EN"
 "http://www.w3.org/Graphics/SVG/1.1/DTD/svg11.dtd">
<!-- Generated by graphviz version 14.1.2 (0)
 -->
<!-- Title: uBlockFilteringPipeline Pages: 1 -->
<svg width="724pt" height="436pt"
 viewBox="0.00 0.00 724.00 436.00" xmlns="http://www.w3.org/2000/svg" xmlns:xlink="http://www.w3.org/1999/xlink">
<g id="graph0" class="graph" transform="scale(1 1) rotate(0) translate(4 431.5)">
<title>uBlockFilteringPipeline</title>
<!-- request -->
<g id="node1" class="node">
<title>request</title>
<path fill="#3498db" stroke="black" stroke-width="2" d="M82.75,-427.5C82.75,-427.5 12,-427.5 12,-427.5 6,-427.5 0,-421.5 0,-415.5 0,-415.5 0,-397 0,-397 0,-391 6,-385 12,-385 12,-385 82.75,-385 82.75,-385 88.75,-385 94.75,-391 94.75,-397 94.75,-397 94.75,-415.5 94.75,-415.5 94.75,-421.5 88.75,-427.5 82.75,-427.5"/>
<text xml:space="preserve" text-anchor="middle" x="47.38" y="-412.1" font-family="Segoe UI" font-size="12.00" fill="white">Web Request</text>
<text xml:space="preserve" text-anchor="middle" x="47.38" y="-394.85" font-family="Segoe UI" font-size="12.00" fill="white">URL + Headers</text>
</g>
<!-- engine -->
<g id="node9" class="node">
<title>engine</title>
<path fill="#f9e79f" stroke="black" stroke-width="2" d="M187.5,-231.5C187.5,-231.5 143.75,-231.5 143.75,-231.5 137.75,-231.5 131.75,-225.5 131.75,-219.5 131.75,-219.5 131.75,-201 131.75,-201 131.75,-195 137.75,-189 143.75,-189 143.75,-189 187.5,-189 187.5,-189 193.5,-189 199.5,-195 199.5,-201 199.5,-201 199.5,-219.5 199.5,-219.5 199.5,-225.5 193.5,-231.5 187.5,-231.5"/>
<text xml:space="preserve" text-anchor="middle" x="165.62" y="-216.1" font-family="Segoe UI" font-size="12.00">uBO Filter</text>
<text xml:space="preserve" text-anchor="middle" x="165.62" y="-198.85" font-family="Segoe UI" font-size="12.00">Engine</text>
</g>
<!-- request&#45;&gt;engine -->
<g id="edge8" class="edge">
<title>request&#45;&gt;engine</title>
<path fill="none" stroke="#5d6d7e" stroke-width="2" d="M85.98,-384.05C89.17,-381.32 92.16,-378.38 94.75,-375.25 126.98,-336.29 146.45,-280.29 156.37,-244.59"/>
<polygon fill="#5d6d7e" stroke="#5d6d7e" stroke-width="2" points="159.64,-245.91 158.82,-235.35 152.88,-244.12 159.64,-245.91"/>
</g>
<!-- easylist -->
<g id="node2" class="node">
<title>easylist</title>
<path fill="#aed6f1" stroke="black" d="M70.38,-366.5C70.38,-366.5 24.38,-366.5 24.38,-366.5 18.38,-366.5 12.38,-360.5 12.38,-354.5 12.38,-354.5 12.38,-342 12.38,-342 12.38,-336 18.38,-330 24.38,-330 24.38,-330 70.38,-330 70.38,-330 76.38,-330 82.38,-336 82.38,-342 82.38,-342 82.38,-354.5 82.38,-354.5 82.38,-360.5 76.38,-366.5 70.38,-366.5"/>
<text xml:space="preserve" text-anchor="middle" x="47.38" y="-353" font-family="Segoe UI" font-size="10.00">EasyList</text>
<text xml:space="preserve" text-anchor="middle" x="47.38" y="-338.75" font-family="Segoe UI" font-size="10.00">Ad Blocking</text>
</g>
<!-- easylist&#45;&gt;engine -->
<g id="edge1" class="edge">
<title>easylist&#45;&gt;engine</title>
<path fill="none" stroke="#5d6d7e" d="M82.65,-330.09C86.96,-327.1 91.12,-323.8 94.75,-320.25 117.9,-297.62 137,-265.92 149.35,-242.36"/>
<polygon fill="#5d6d7e" stroke="#5d6d7e" points="152.43,-244.02 153.85,-233.52 146.19,-240.85 152.43,-244.02"/>
</g>
<!-- easyprivacy -->
<g id="node3" class="node">
<title>easyprivacy</title>
<path fill="#aed6f1" stroke="black" d="M80.12,-311.5C80.12,-311.5 14.62,-311.5 14.62,-311.5 8.62,-311.5 2.62,-305.5 2.62,-299.5 2.62,-299.5 2.62,-287 2.62,-287 2.62,-281 8.62,-275 14.62,-275 14.62,-275 80.12,-275 80.12,-275 86.12,-275 92.12,-281 92.12,-287 92.12,-287 92.12,-299.5 92.12,-299.5 92.12,-305.5 86.12,-311.5 80.12,-311.5"/>
<text xml:space="preserve" text-anchor="middle" x="47.38" y="-298" font-family="Segoe UI" font-size="10.00">EasyPrivacy</text>
<text xml:space="preserve" text-anchor="middle" x="47.38" y="-283.75" font-family="Segoe UI" font-size="10.00">Tracker Blocking</text>
</g>
<!-- easyprivacy&#45;&gt;engine -->
<g id="edge2" class="edge">
<title>easyprivacy&#45;&gt;engine</title>
<path fill="none" stroke="#5d6d7e" d="M80.14,-274.79C85.1,-271.7 90.11,-268.46 94.75,-265.25 106.26,-257.29 118.37,-248.08 129.23,-239.49"/>
<polygon fill="#5d6d7e" stroke="#5d6d7e" points="131.2,-242.39 136.82,-233.41 126.83,-236.93 131.2,-242.39"/>
</g>
<!-- peters -->
<g id="node4" class="node">
<title>peters</title>
<path fill="#aed6f1" stroke="black" d="M71.5,-256.5C71.5,-256.5 23.25,-256.5 23.25,-256.5 17.25,-256.5 11.25,-250.5 11.25,-244.5 11.25,-244.5 11.25,-232 11.25,-232 11.25,-226 17.25,-220 23.25,-220 23.25,-220 71.5,-220 71.5,-220 77.5,-220 83.5,-226 83.5,-232 83.5,-232 83.5,-244.5 83.5,-244.5 83.5,-250.5 77.5,-256.5 71.5,-256.5"/>
<text xml:space="preserve" text-anchor="middle" x="47.38" y="-243" font-family="Segoe UI" font-size="10.00">Peter Lowe&#39;s</text>
<text xml:space="preserve" text-anchor="middle" x="47.38" y="-228.75" font-family="Segoe UI" font-size="10.00">Blocklist</text>
</g>
<!-- peters&#45;&gt;engine -->
<g id="edge3" class="edge">
<title>peters&#45;&gt;engine</title>
<path fill="none" stroke="#5d6d7e" d="M83.89,-229.7C95.22,-226.97 107.91,-223.91 119.82,-221.04"/>
<polygon fill="#5d6d7e" stroke="#5d6d7e" points="120.55,-224.47 129.45,-218.72 118.91,-217.66 120.55,-224.47"/>
</g>
<!-- malicious -->
<g id="node5" class="node">
<title>malicious</title>
<path fill="#aed6f1" stroke="black" d="M74.5,-201.5C74.5,-201.5 20.25,-201.5 20.25,-201.5 14.25,-201.5 8.25,-195.5 8.25,-189.5 8.25,-189.5 8.25,-177 8.25,-177 8.25,-171 14.25,-165 20.25,-165 20.25,-165 74.5,-165 74.5,-165 80.5,-165 86.5,-171 86.5,-177 86.5,-177 86.5,-189.5 86.5,-189.5 86.5,-195.5 80.5,-201.5 74.5,-201.5"/>
<text xml:space="preserve" text-anchor="middle" x="47.38" y="-188" font-family="Segoe UI" font-size="10.00">Malicious URL</text>
<text xml:space="preserve" text-anchor="middle" x="47.38" y="-173.75" font-family="Segoe UI" font-size="10.00">Blocklist</text>
</g>
<!-- malicious&#45;&gt;engine -->
<g id="edge4" class="edge">
<title>malicious&#45;&gt;engine</title>
<path fill="none" stroke="#5d6d7e" d="M86.76,-192.17C97.36,-194.63 108.96,-197.32 119.89,-199.86"/>
<polygon fill="#5d6d7e" stroke="#5d6d7e" points="118.96,-203.24 129.49,-202.09 120.54,-196.42 118.96,-203.24"/>
</g>
<!-- ubo_filters -->
<g id="node6" class="node">
<title>ubo_filters</title>
<path fill="#aed6f1" stroke="black" d="M65.88,-146.5C65.88,-146.5 28.88,-146.5 28.88,-146.5 22.88,-146.5 16.88,-140.5 16.88,-134.5 16.88,-134.5 16.88,-122 16.88,-122 16.88,-116 22.88,-110 28.88,-110 28.88,-110 65.88,-110 65.88,-110 71.88,-110 77.88,-116 77.88,-122 77.88,-122 77.88,-134.5 77.88,-134.5 77.88,-140.5 71.88,-146.5 65.88,-146.5"/>
<text xml:space="preserve" text-anchor="middle" x="47.38" y="-133" font-family="Segoe UI" font-size="10.00">uBO Filter</text>
<text xml:space="preserve" text-anchor="middle" x="47.38" y="-118.75" font-family="Segoe UI" font-size="10.00">Lists</text>
</g>
<!-- ubo_filters&#45;&gt;engine -->
<g id="edge5" class="edge">
<title>ubo_filters&#45;&gt;engine</title>
<path fill="none" stroke="#5d6d7e" d="M78.14,-145.53C83.73,-148.97 89.47,-152.64 94.75,-156.25 106,-163.96 117.87,-172.83 128.57,-181.12"/>
<polygon fill="#5d6d7e" stroke="#5d6d7e" points="126.4,-183.87 136.43,-187.28 130.72,-178.36 126.4,-183.87"/>
</g>
<!-- custom -->
<g id="node7" class="node">
<title>custom</title>
<path fill="#d5f5e3" stroke="black" d="M62.38,-91.5C62.38,-91.5 32.38,-91.5 32.38,-91.5 26.38,-91.5 20.38,-85.5 20.38,-79.5 20.38,-79.5 20.38,-67 20.38,-67 20.38,-61 26.38,-55 32.38,-55 32.38,-55 62.38,-55 62.38,-55 68.38,-55 74.38,-61 74.38,-67 74.38,-67 74.38,-79.5 74.38,-79.5 74.38,-85.5 68.38,-91.5 62.38,-91.5"/>
<text xml:space="preserve" text-anchor="middle" x="47.38" y="-78" font-family="Segoe UI" font-size="10.00">Custom</text>
<text xml:space="preserve" text-anchor="middle" x="47.38" y="-63.75" font-family="Segoe UI" font-size="10.00">Filters</text>
</g>
<!-- custom&#45;&gt;engine -->
<g id="edge6" class="edge">
<title>custom&#45;&gt;engine</title>
<path fill="none" stroke="#5d6d7e" d="M74.42,-86.14C81.49,-90.36 88.82,-95.48 94.75,-101.25 117.66,-123.55 136.68,-154.71 149.06,-178.01"/>
<polygon fill="#5d6d7e" stroke="#5d6d7e" points="145.88,-179.48 153.58,-186.75 152.1,-176.26 145.88,-179.48"/>
</g>
<!-- hosts -->
<g id="node8" class="node">
<title>hosts</title>
<path fill="#d5f5e3" stroke="black" d="M62.38,-36.5C62.38,-36.5 32.38,-36.5 32.38,-36.5 26.38,-36.5 20.38,-30.5 20.38,-24.5 20.38,-24.5 20.38,-12 20.38,-12 20.38,-6 26.38,0 32.38,0 32.38,0 62.38,0 62.38,0 68.38,0 74.38,-6 74.38,-12 74.38,-12 74.38,-24.5 74.38,-24.5 74.38,-30.5 68.38,-36.5 62.38,-36.5"/>
<text xml:space="preserve" text-anchor="middle" x="47.38" y="-23" font-family="Segoe UI" font-size="10.00">Hosts</text>
<text xml:space="preserve" text-anchor="middle" x="47.38" y="-8.75" font-family="Segoe UI" font-size="10.00">Files</text>
</g>
<!-- hosts&#45;&gt;engine -->
<g id="edge7" class="edge">
<title>hosts&#45;&gt;engine</title>
<path fill="none" stroke="#5d6d7e" d="M74.58,-30.24C81.82,-34.5 89.2,-39.86 94.75,-46.25 128.17,-84.73 147.51,-141.57 157.05,-177.22"/>
<polygon fill="#5d6d7e" stroke="#5d6d7e" points="153.57,-177.72 159.44,-186.54 160.35,-175.98 153.57,-177.72"/>
</g>
<!-- decision -->
<g id="node10" class="node">
<title>decision</title>
<polygon fill="#f5b7b1" stroke="black" points="292.25,-248.25 236.5,-210.25 292.25,-172.25 348,-210.25 292.25,-248.25"/>
<text xml:space="preserve" text-anchor="middle" x="292.25" y="-214.8" font-family="Segoe UI" font-size="11.00">Block or</text>
<text xml:space="preserve" text-anchor="middle" x="292.25" y="-199.8" font-family="Segoe UI" font-size="11.00">Allow?</text>
</g>
<!-- engine&#45;&gt;decision -->
<g id="edge9" class="edge">
<title>engine&#45;&gt;decision</title>
<path fill="none" stroke="#5d6d7e" stroke-width="2" d="M200.35,-210.25C207.46,-210.25 215.19,-210.25 223.06,-210.25"/>
<polygon fill="#5d6d7e" stroke="#5d6d7e" stroke-width="2" points="222.85,-213.75 232.85,-210.25 222.85,-206.75 222.85,-213.75"/>
</g>
<!-- blocked -->
<g id="node11" class="node">
<title>blocked</title>
<path fill="#e74c3c" stroke="black" stroke-width="2" d="M486.25,-270.62C486.25,-270.62 420,-270.62 420,-270.62 414,-270.62 408,-264.62 408,-258.62 408,-258.62 408,-231.88 408,-231.88 408,-225.88 414,-219.88 420,-219.88 420,-219.88 486.25,-219.88 486.25,-219.88 492.25,-219.88 498.25,-225.88 498.25,-231.88 498.25,-231.88 498.25,-258.62 498.25,-258.62 498.25,-264.62 492.25,-270.62 486.25,-270.62"/>
<text xml:space="preserve" text-anchor="middle" x="453.12" y="-257.12" font-family="Segoe UI" font-size="10.00" fill="white">BLOCKED</text>
<text xml:space="preserve" text-anchor="middle" x="453.12" y="-242.88" font-family="Segoe UI" font-size="10.00" fill="white">Ad / Tracker /</text>
<text xml:space="preserve" text-anchor="middle" x="453.12" y="-228.62" font-family="Segoe UI" font-size="10.00" fill="white">Miner / Malware</text>
</g>
<!-- decision&#45;&gt;blocked -->
<g id="edge10" class="edge">
<title>decision&#45;&gt;blocked</title>
<path fill="none" stroke="#5d6d7e" d="M334.99,-219.45C353.6,-223.55 375.8,-228.44 395.85,-232.85"/>
<polygon fill="#5d6d7e" stroke="#5d6d7e" points="395.04,-236.26 405.56,-234.99 396.55,-229.42 395.04,-236.26"/>
<text xml:space="preserve" text-anchor="middle" x="378" y="-235.63" font-family="Segoe UI" font-size="10.00">block</text>
</g>
<!-- allowed -->
<g id="node12" class="node">
<title>allowed</title>
<path fill="#2ecc71" stroke="black" stroke-width="2" d="M472.38,-201.62C472.38,-201.62 433.88,-201.62 433.88,-201.62 427.88,-201.62 421.88,-195.62 421.88,-189.62 421.88,-189.62 421.88,-162.88 421.88,-162.88 421.88,-156.88 427.88,-150.88 433.88,-150.88 433.88,-150.88 472.38,-150.88 472.38,-150.88 478.38,-150.88 484.38,-156.88 484.38,-162.88 484.38,-162.88 484.38,-189.62 484.38,-189.62 484.38,-195.62 478.38,-201.62 472.38,-201.62"/>
<text xml:space="preserve" text-anchor="middle" x="453.12" y="-188.12" font-family="Segoe UI" font-size="10.00" fill="white">ALLOWED</text>
<text xml:space="preserve" text-anchor="middle" x="453.12" y="-173.88" font-family="Segoe UI" font-size="10.00" fill="white">Legitimate</text>
<text xml:space="preserve" text-anchor="middle" x="453.12" y="-159.62" font-family="Segoe UI" font-size="10.00" fill="white">Content</text>
</g>
<!-- decision&#45;&gt;allowed -->
<g id="edge11" class="edge">
<title>decision&#45;&gt;allowed</title>
<path fill="none" stroke="#5d6d7e" d="M335.41,-201.23C358.45,-196.3 386.9,-190.21 409.95,-185.28"/>
<polygon fill="#5d6d7e" stroke="#5d6d7e" points="410.59,-188.72 419.63,-183.2 409.12,-181.87 410.59,-188.72"/>
<text xml:space="preserve" text-anchor="middle" x="378" y="-199.02" font-family="Segoe UI" font-size="10.00">allow</text>
</g>
<!-- cosmetic -->
<g id="node13" class="node">
<title>cosmetic</title>
<path fill="#d7bde2" stroke="black" d="M704,-201.62C704,-201.62 608.5,-201.62 608.5,-201.62 602.5,-201.62 596.5,-195.62 596.5,-189.62 596.5,-189.62 596.5,-162.88 596.5,-162.88 596.5,-156.88 602.5,-150.88 608.5,-150.88 608.5,-150.88 704,-150.88 704,-150.88 710,-150.88 716,-156.88 716,-162.88 716,-162.88 716,-189.62 716,-189.62 716,-195.62 710,-201.62 704,-201.62"/>
<text xml:space="preserve" text-anchor="middle" x="656.25" y="-188.12" font-family="Segoe UI" font-size="10.00">Cosmetic</text>
<text xml:space="preserve" text-anchor="middle" x="656.25" y="-173.88" font-family="Segoe UI" font-size="10.00">Filtering</text>
<text xml:space="preserve" text-anchor="middle" x="656.25" y="-159.62" font-family="Segoe UI" font-size="10.00">Remove Page Elements</text>
</g>
<!-- allowed&#45;&gt;cosmetic -->
<g id="edge12" class="edge">
<title>allowed&#45;&gt;cosmetic</title>
<path fill="none" stroke="#5d6d7e" stroke-dasharray="5,2" d="M485.11,-176.25C511.64,-176.25 550.85,-176.25 584.94,-176.25"/>
<polygon fill="#5d6d7e" stroke="#5d6d7e" points="584.76,-179.75 594.76,-176.25 584.76,-172.75 584.76,-179.75"/>
<text xml:space="preserve" text-anchor="middle" x="547.38" y="-181" font-family="Segoe UI" font-size="10.00">cosmetic filter</text>
</g>
</g>
</svg>
