<?xml version="1.0" encoding="UTF-8" standalone="no"?>
<!DOCTYPE svg PUBLIC "-//W3C//DTD SVG 1.1//EN"
 "http://www.w3.org/Graphics/SVG/1.1/DTD/svg11.dtd">
<!-- Generated by graphviz version 14.1.2 (0)
 -->
<!-- Title: vaultwarden&#45;features Pages: 1 -->
<svg width="445pt" height="789pt"
 viewBox="0.00 0.00 445.00 789.00" xmlns="http://www.w3.org/2000/svg" xmlns:xlink="http://www.w3.org/1999/xlink">
<style>
<!-- White text halo for edge label readability -->
text { paint-order: stroke; stroke: #ffffff; stroke-width: 3px; stroke-linejoin: round; fill: #1a1a2e; }
</style>
<g id="graph0" class="graph" transform="scale(1 1) rotate(0) translate(4 784.5)">
<title>vaultwarden&#45;features</title>
<polygon fill="white" stroke="none" points="-4,4 -4,-784.5 440.5,-784.5 440.5,4 -4,4"/>
<text xml:space="preserve" text-anchor="middle" x="218.25" y="-7.2" font-family="Times New Roman,serif" font-size="14.00">Vaultwarden Features</text>
<!-- vault -->
<g id="node1" class="node">
<title>vault</title>
<path fill="#2196f3" stroke="black" d="M205.75,-420.75C205.75,-420.75 12,-420.75 12,-420.75 6,-420.75 0,-414.75 0,-408.75 0,-408.75 0,-396.25 0,-396.25 0,-390.25 6,-384.25 12,-384.25 12,-384.25 205.75,-384.25 205.75,-384.25 211.75,-384.25 217.75,-390.25 217.75,-396.25 217.75,-396.25 217.75,-408.75 217.75,-408.75 217.75,-414.75 211.75,-420.75 205.75,-420.75"/>
<text xml:space="preserve" text-anchor="middle" x="108.88" y="-405.35" font-family="Arial Bold" font-size="12.00" fill="white">Personal Vault</text>
<text xml:space="preserve" text-anchor="middle" x="108.88" y="-391.1" font-family="Arial Bold" font-size="12.00" fill="white">Passwords, Notes, Cards, Identities</text>
</g>
<!-- send -->
<g id="node2" class="node">
<title>send</title>
<path fill="#9c27b0" stroke="black" d="M406.88,-780.5C406.88,-780.5 305.38,-780.5 305.38,-780.5 299.38,-780.5 293.38,-774.5 293.38,-768.5 293.38,-768.5 293.38,-756.5 293.38,-756.5 293.38,-750.5 299.38,-744.5 305.38,-744.5 305.38,-744.5 406.88,-744.5 406.88,-744.5 412.88,-744.5 418.88,-750.5 418.88,-756.5 418.88,-756.5 418.88,-768.5 418.88,-768.5 418.88,-774.5 412.88,-780.5 406.88,-780.5"/>
<text xml:space="preserve" text-anchor="middle" x="356.12" y="-765.55" font-family="Arial" font-size="11.00" fill="white">Bitwarden Send</text>
<text xml:space="preserve" text-anchor="middle" x="356.12" y="-752.05" font-family="Arial" font-size="11.00" fill="white">Secure file/text sharing</text>
</g>
<!-- vault&#45;&gt;send -->
<g id="edge1" class="edge">
<title>vault&#45;&gt;send</title>
<path fill="none" stroke="#9c27b0" stroke-width="1.5" d="M36.5,-421.1C36.5,-494.82 36.5,-762.5 36.5,-762.5 36.5,-762.5 280.71,-762.5 280.71,-762.5"/>
<polygon fill="#9c27b0" stroke="#9c27b0" stroke-width="1.5" points="280.71,-766 290.71,-762.5 280.71,-759 280.71,-766"/>
</g>
<!-- attachments -->
<g id="node3" class="node">
<title>attachments</title>
<path fill="#9c27b0" stroke="black" d="M404.25,-708.5C404.25,-708.5 308,-708.5 308,-708.5 302,-708.5 296,-702.5 296,-696.5 296,-696.5 296,-684.5 296,-684.5 296,-678.5 302,-672.5 308,-672.5 308,-672.5 404.25,-672.5 404.25,-672.5 410.25,-672.5 416.25,-678.5 416.25,-684.5 416.25,-684.5 416.25,-696.5 416.25,-696.5 416.25,-702.5 410.25,-708.5 404.25,-708.5"/>
<text xml:space="preserve" text-anchor="middle" x="356.12" y="-693.55" font-family="Arial" font-size="11.00" fill="white">Attachments</text>
<text xml:space="preserve" text-anchor="middle" x="356.12" y="-680.05" font-family="Arial" font-size="11.00" fill="white">Encrypted file storage</text>
</g>
<!-- vault&#45;&gt;attachments -->
<g id="edge2" class="edge">
<title>vault&#45;&gt;attachments</title>
<path fill="none" stroke="#9c27b0" stroke-width="1.5" d="M72.5,-420.95C72.5,-484.52 72.5,-690.5 72.5,-690.5 72.5,-690.5 283.36,-690.5 283.36,-690.5"/>
<polygon fill="#9c27b0" stroke="#9c27b0" stroke-width="1.5" points="283.36,-694 293.36,-690.5 283.36,-687 283.36,-694"/>
</g>
<!-- icons -->
<g id="node4" class="node">
<title>icons</title>
<path fill="#9c27b0" stroke="black" d="M397.12,-636.5C397.12,-636.5 315.12,-636.5 315.12,-636.5 309.12,-636.5 303.12,-630.5 303.12,-624.5 303.12,-624.5 303.12,-612.5 303.12,-612.5 303.12,-606.5 309.12,-600.5 315.12,-600.5 315.12,-600.5 397.12,-600.5 397.12,-600.5 403.12,-600.5 409.12,-606.5 409.12,-612.5 409.12,-612.5 409.12,-624.5 409.12,-624.5 409.12,-630.5 403.12,-636.5 397.12,-636.5"/>
<text xml:space="preserve" text-anchor="middle" x="356.12" y="-621.55" font-family="Arial" font-size="11.00" fill="white">Website Icons</text>
<text xml:space="preserve" text-anchor="middle" x="356.12" y="-608.05" font-family="Arial" font-size="11.00" fill="white">Automatic favicons</text>
</g>
<!-- vault&#45;&gt;icons -->
<g id="edge3" class="edge">
<title>vault&#45;&gt;icons</title>
<path fill="none" stroke="#9c27b0" stroke-width="1.5" d="M108.5,-420.92C108.5,-473.15 108.5,-618.5 108.5,-618.5 108.5,-618.5 290.43,-618.5 290.43,-618.5"/>
<polygon fill="#9c27b0" stroke="#9c27b0" stroke-width="1.5" points="290.43,-622 300.43,-618.5 290.43,-615 290.43,-622"/>
</g>
<!-- api_key -->
<g id="node5" class="node">
<title>api_key</title>
<path fill="#9c27b0" stroke="black" d="M403.88,-564.5C403.88,-564.5 308.38,-564.5 308.38,-564.5 302.38,-564.5 296.38,-558.5 296.38,-552.5 296.38,-552.5 296.38,-540.5 296.38,-540.5 296.38,-534.5 302.38,-528.5 308.38,-528.5 308.38,-528.5 403.88,-528.5 403.88,-528.5 409.88,-528.5 415.88,-534.5 415.88,-540.5 415.88,-540.5 415.88,-552.5 415.88,-552.5 415.88,-558.5 409.88,-564.5 403.88,-564.5"/>
<text xml:space="preserve" text-anchor="middle" x="356.12" y="-549.55" font-family="Arial" font-size="11.00" fill="white">Personal API Key</text>
<text xml:space="preserve" text-anchor="middle" x="356.12" y="-536.05" font-family="Arial" font-size="11.00" fill="white">Programmatic access</text>
</g>
<!-- vault&#45;&gt;api_key -->
<g id="edge4" class="edge">
<title>vault&#45;&gt;api_key</title>
<path fill="none" stroke="#9c27b0" stroke-width="1.5" d="M145.5,-421.03C145.5,-459.92 145.5,-546.5 145.5,-546.5 145.5,-546.5 283.78,-546.5 283.78,-546.5"/>
<polygon fill="#9c27b0" stroke="#9c27b0" stroke-width="1.5" points="283.78,-550 293.78,-546.5 283.78,-543 283.78,-550"/>
</g>
<!-- collections -->
<g id="node6" class="node">
<title>collections</title>
<path fill="#ff9800" stroke="black" d="M420,-492.5C420,-492.5 292.25,-492.5 292.25,-492.5 286.25,-492.5 280.25,-486.5 280.25,-480.5 280.25,-480.5 280.25,-468.5 280.25,-468.5 280.25,-462.5 286.25,-456.5 292.25,-456.5 292.25,-456.5 420,-456.5 420,-456.5 426,-456.5 432,-462.5 432,-468.5 432,-468.5 432,-480.5 432,-480.5 432,-486.5 426,-492.5 420,-492.5"/>
<text xml:space="preserve" text-anchor="middle" x="356.12" y="-477.55" font-family="Arial" font-size="11.00" fill="white">Collections</text>
<text xml:space="preserve" text-anchor="middle" x="356.12" y="-464.05" font-family="Arial" font-size="11.00" fill="white">Group and share passwords</text>
</g>
<!-- vault&#45;&gt;collections -->
<g id="edge5" class="edge">
<title>vault&#45;&gt;collections</title>
<path fill="none" stroke="#ff9800" stroke-width="1.5" d="M181.5,-421.04C181.5,-442.37 181.5,-474.5 181.5,-474.5 181.5,-474.5 267.52,-474.5 267.52,-474.5"/>
<polygon fill="#ff9800" stroke="#ff9800" stroke-width="1.5" points="267.52,-478 277.52,-474.5 267.52,-471 267.52,-478"/>
</g>
<!-- roles -->
<g id="node7" class="node">
<title>roles</title>
<path fill="#ff9800" stroke="black" d="M424.5,-420.5C424.5,-420.5 287.75,-420.5 287.75,-420.5 281.75,-420.5 275.75,-414.5 275.75,-408.5 275.75,-408.5 275.75,-396.5 275.75,-396.5 275.75,-390.5 281.75,-384.5 287.75,-384.5 287.75,-384.5 424.5,-384.5 424.5,-384.5 430.5,-384.5 436.5,-390.5 436.5,-396.5 436.5,-396.5 436.5,-408.5 436.5,-408.5 436.5,-414.5 430.5,-420.5 424.5,-420.5"/>
<text xml:space="preserve" text-anchor="middle" x="356.12" y="-405.55" font-family="Arial" font-size="11.00" fill="white">Member Roles</text>
<text xml:space="preserve" text-anchor="middle" x="356.12" y="-392.05" font-family="Arial" font-size="11.00" fill="white">Owner, Admin, User, Manager</text>
</g>
<!-- vault&#45;&gt;roles -->
<g id="edge6" class="edge">
<title>vault&#45;&gt;roles</title>
<path fill="none" stroke="#ff9800" stroke-width="1.5" d="M218.04,-402.5C218.04,-402.5 263.11,-402.5 263.11,-402.5"/>
<polygon fill="#ff9800" stroke="#ff9800" stroke-width="1.5" points="263.12,-406 273.11,-402.5 263.11,-399 263.12,-406"/>
</g>
<!-- groups -->
<g id="node8" class="node">
<title>groups</title>
<path fill="#ff9800" stroke="black" d="M406.12,-348.5C406.12,-348.5 306.12,-348.5 306.12,-348.5 300.12,-348.5 294.12,-342.5 294.12,-336.5 294.12,-336.5 294.12,-324.5 294.12,-324.5 294.12,-318.5 300.12,-312.5 306.12,-312.5 306.12,-312.5 406.12,-312.5 406.12,-312.5 412.12,-312.5 418.12,-318.5 418.12,-324.5 418.12,-324.5 418.12,-336.5 418.12,-336.5 418.12,-342.5 412.12,-348.5 406.12,-348.5"/>
<text xml:space="preserve" text-anchor="middle" x="356.12" y="-333.55" font-family="Arial" font-size="11.00" fill="white">Groups</text>
<text xml:space="preserve" text-anchor="middle" x="356.12" y="-320.05" font-family="Arial" font-size="11.00" fill="white">Advanced permissions</text>
</g>
<!-- vault&#45;&gt;groups -->
<g id="edge7" class="edge">
<title>vault&#45;&gt;groups</title>
<path fill="none" stroke="#ff9800" stroke-width="1.5" d="M181.5,-383.96C181.5,-362.63 181.5,-330.5 181.5,-330.5 181.5,-330.5 281.8,-330.5 281.8,-330.5"/>
<polygon fill="#ff9800" stroke="#ff9800" stroke-width="1.5" points="281.8,-334 291.8,-330.5 281.8,-327 281.8,-334"/>
</g>
<!-- events -->
<g id="node9" class="node">
<title>events</title>
<path fill="#ff9800" stroke="black" d="M379.12,-276.5C379.12,-276.5 333.12,-276.5 333.12,-276.5 327.12,-276.5 321.12,-270.5 321.12,-264.5 321.12,-264.5 321.12,-252.5 321.12,-252.5 321.12,-246.5 327.12,-240.5 333.12,-240.5 333.12,-240.5 379.12,-240.5 379.12,-240.5 385.12,-240.5 391.12,-246.5 391.12,-252.5 391.12,-252.5 391.12,-264.5 391.12,-264.5 391.12,-270.5 385.12,-276.5 379.12,-276.5"/>
<text xml:space="preserve" text-anchor="middle" x="356.12" y="-261.55" font-family="Arial" font-size="11.00" fill="white">Event Logs</text>
<text xml:space="preserve" text-anchor="middle" x="356.12" y="-248.05" font-family="Arial" font-size="11.00" fill="white">Audit trail</text>
</g>
<!-- vault&#45;&gt;events -->
<g id="edge8" class="edge">
<title>vault&#45;&gt;events</title>
<path fill="none" stroke="#ff9800" stroke-width="1.5" d="M145.5,-383.97C145.5,-345.08 145.5,-258.5 145.5,-258.5 145.5,-258.5 308.6,-258.5 308.6,-258.5"/>
<polygon fill="#ff9800" stroke="#ff9800" stroke-width="1.5" points="308.6,-262 318.6,-258.5 308.6,-255 308.6,-262"/>
</g>
<!-- policies -->
<g id="node10" class="node">
<title>policies</title>
<path fill="#ff9800" stroke="black" d="M403.88,-204.5C403.88,-204.5 308.38,-204.5 308.38,-204.5 302.38,-204.5 296.38,-198.5 296.38,-192.5 296.38,-192.5 296.38,-180.5 296.38,-180.5 296.38,-174.5 302.38,-168.5 308.38,-168.5 308.38,-168.5 403.88,-168.5 403.88,-168.5 409.88,-168.5 415.88,-174.5 415.88,-180.5 415.88,-180.5 415.88,-192.5 415.88,-192.5 415.88,-198.5 409.88,-204.5 403.88,-204.5"/>
<text xml:space="preserve" text-anchor="middle" x="356.12" y="-189.55" font-family="Arial" font-size="11.00" fill="white">Policies</text>
<text xml:space="preserve" text-anchor="middle" x="356.12" y="-176.05" font-family="Arial" font-size="11.00" fill="white">Enforce security rules</text>
</g>
<!-- vault&#45;&gt;policies -->
<g id="edge9" class="edge">
<title>vault&#45;&gt;policies</title>
<path fill="none" stroke="#ff9800" stroke-width="1.5" d="M108.5,-384.08C108.5,-331.85 108.5,-186.5 108.5,-186.5 108.5,-186.5 283.91,-186.5 283.91,-186.5"/>
<polygon fill="#ff9800" stroke="#ff9800" stroke-width="1.5" points="283.91,-190 293.91,-186.5 283.91,-183 283.91,-190"/>
</g>
<!-- reset -->
<g id="node11" class="node">
<title>reset</title>
<path fill="#ff9800" stroke="black" d="M408.75,-132.5C408.75,-132.5 303.5,-132.5 303.5,-132.5 297.5,-132.5 291.5,-126.5 291.5,-120.5 291.5,-120.5 291.5,-108.5 291.5,-108.5 291.5,-102.5 297.5,-96.5 303.5,-96.5 303.5,-96.5 408.75,-96.5 408.75,-96.5 414.75,-96.5 420.75,-102.5 420.75,-108.5 420.75,-108.5 420.75,-120.5 420.75,-120.5 420.75,-126.5 414.75,-132.5 408.75,-132.5"/>
<text xml:space="preserve" text-anchor="middle" x="356.12" y="-117.55" font-family="Arial" font-size="11.00" fill="white">Admin Password Reset</text>
<text xml:space="preserve" text-anchor="middle" x="356.12" y="-104.05" font-family="Arial" font-size="11.00" fill="white">Recovery options</text>
</g>
<!-- vault&#45;&gt;reset -->
<g id="edge10" class="edge">
<title>vault&#45;&gt;reset</title>
<path fill="none" stroke="#ff9800" stroke-width="1.5" d="M72.5,-384.05C72.5,-320.48 72.5,-114.5 72.5,-114.5 72.5,-114.5 278.79,-114.5 278.79,-114.5"/>
<polygon fill="#ff9800" stroke="#ff9800" stroke-width="1.5" points="278.79,-118 288.79,-114.5 278.79,-111 278.79,-118"/>
</g>
<!-- directory -->
<g id="node12" class="node">
<title>directory</title>
<path fill="#ff9800" stroke="black" d="M408.75,-60.5C408.75,-60.5 303.5,-60.5 303.5,-60.5 297.5,-60.5 291.5,-54.5 291.5,-48.5 291.5,-48.5 291.5,-36.5 291.5,-36.5 291.5,-30.5 297.5,-24.5 303.5,-24.5 303.5,-24.5 408.75,-24.5 408.75,-24.5 414.75,-24.5 420.75,-30.5 420.75,-36.5 420.75,-36.5 420.75,-48.5 420.75,-48.5 420.75,-54.5 414.75,-60.5 408.75,-60.5"/>
<text xml:space="preserve" text-anchor="middle" x="356.12" y="-45.55" font-family="Arial" font-size="11.00" fill="white">Directory Connector</text>
<text xml:space="preserve" text-anchor="middle" x="356.12" y="-32.05" font-family="Arial" font-size="11.00" fill="white">LDAP / Active Directory</text>
</g>
<!-- vault&#45;&gt;directory -->
<g id="edge11" class="edge">
<title>vault&#45;&gt;directory</title>
<path fill="none" stroke="#ff9800" stroke-width="1.5" d="M36.5,-383.9C36.5,-310.18 36.5,-42.5 36.5,-42.5 36.5,-42.5 278.79,-42.5 278.79,-42.5"/>
<polygon fill="#ff9800" stroke="#ff9800" stroke-width="1.5" points="278.79,-46 288.79,-42.5 278.79,-39 278.79,-46"/>
</g>
</g>
</svg>
