<?xml version="1.0" encoding="UTF-8" standalone="no"?>
<!DOCTYPE svg PUBLIC "-//W3C//DTD SVG 1.1//EN"
 "http://www.w3.org/Graphics/SVG/1.1/DTD/svg11.dtd">
<!-- Generated by graphviz version 14.1.2 (0)
 -->
<!-- Title: vaultwarden&#45;security Pages: 1 -->
<svg width="881pt" height="315pt"
 viewBox="0.00 0.00 881.00 315.00" xmlns="http://www.w3.org/2000/svg" xmlns:xlink="http://www.w3.org/1999/xlink">
<style>
<!-- White text halo for edge label readability -->
text { paint-order: stroke; stroke: #ffffff; stroke-width: 3px; stroke-linejoin: round; fill: #1a1a2e; }
</style>
<g id="graph0" class="graph" transform="scale(1 1) rotate(0) translate(4 311.37)">
<title>vaultwarden&#45;security</title>
<polygon fill="white" stroke="none" points="-4,4 -4,-311.37 876.5,-311.37 876.5,4 -4,4"/>
<text xml:space="preserve" text-anchor="middle" x="436.25" y="-7.2" font-family="Times New Roman,serif" font-size="14.00">Vaultwarden Security Architecture</text>
<!-- encryption -->
<g id="node1" class="node">
<title>encryption</title>
<ellipse fill="#2196f3" stroke="black" cx="566.62" cy="-281.56" rx="124.27" ry="25.81"/>
<text xml:space="preserve" text-anchor="middle" x="566.62" y="-284.41" font-family="Arial Bold" font-size="12.00" fill="white">End&#45;to&#45;End Encryption</text>
<text xml:space="preserve" text-anchor="middle" x="566.62" y="-270.16" font-family="Arial Bold" font-size="12.00" fill="white">AES&#45;256 / PBKDF2 / Argon2</text>
</g>
<!-- twofa -->
<g id="node2" class="node">
<title>twofa</title>
<polygon fill="#f44336" stroke="black" points="382.25,-176.12 211,-176.12 211,-140.12 382.25,-140.12 382.25,-176.12"/>
<text xml:space="preserve" text-anchor="middle" x="296.62" y="-154.43" font-family="Arial" font-size="11.00" fill="white">Two&#45;Factor Authentication Layer</text>
</g>
<!-- encryption&#45;&gt;twofa -->
<g id="edge1" class="edge">
<title>encryption&#45;&gt;twofa</title>
<path fill="none" stroke="#2196f3" stroke-width="2" d="M441.9,-281.5C371.15,-281.5 296.62,-281.5 296.62,-281.5 296.62,-281.5 296.62,-189.62 296.62,-189.62"/>
<polygon fill="#2196f3" stroke="#2196f3" stroke-width="2" points="300.13,-189.62 296.63,-179.62 293.13,-189.62 300.13,-189.62"/>
</g>
<!-- emergency -->
<g id="node8" class="node">
<title>emergency</title>
<path fill="#9c27b0" stroke="black" d="M528.5,-182.38C528.5,-182.38 430.75,-182.38 430.75,-182.38 424.75,-182.38 418.75,-176.38 418.75,-170.38 418.75,-170.38 418.75,-145.88 418.75,-145.88 418.75,-139.88 424.75,-133.88 430.75,-133.88 430.75,-133.88 528.5,-133.88 528.5,-133.88 534.5,-133.88 540.5,-139.88 540.5,-145.88 540.5,-145.88 540.5,-170.38 540.5,-170.38 540.5,-176.38 534.5,-182.38 528.5,-182.38"/>
<text xml:space="preserve" text-anchor="middle" x="479.62" y="-167.93" font-family="Arial" font-size="11.00" fill="white">Emergency Access</text>
<text xml:space="preserve" text-anchor="middle" x="479.62" y="-154.43" font-family="Arial" font-size="11.00" fill="white">Trusted contacts with</text>
<text xml:space="preserve" text-anchor="middle" x="479.62" y="-140.93" font-family="Arial" font-size="11.00" fill="white">time&#45;delayed recovery</text>
</g>
<!-- encryption&#45;&gt;emergency -->
<g id="edge2" class="edge">
<title>encryption&#45;&gt;emergency</title>
<path fill="none" stroke="#9c27b0" stroke-width="2" d="M491.43,-260.62C491.43,-260.62 491.43,-195.59 491.43,-195.59"/>
<polygon fill="#9c27b0" stroke="#9c27b0" stroke-width="2" points="494.93,-195.59 491.43,-185.59 487.93,-195.59 494.93,-195.59"/>
</g>
<!-- benefits -->
<g id="node9" class="node">
<title>benefits</title>
<path fill="#2196f3" stroke="black" d="M720.38,-197.75C720.38,-197.75 588.88,-197.75 588.88,-197.75 582.88,-197.75 576.88,-191.75 576.88,-185.75 576.88,-185.75 576.88,-130.5 576.88,-130.5 576.88,-124.5 582.88,-118.5 588.88,-118.5 588.88,-118.5 720.38,-118.5 720.38,-118.5 726.38,-118.5 732.38,-124.5 732.38,-130.5 732.38,-130.5 732.38,-185.75 732.38,-185.75 732.38,-191.75 726.38,-197.75 720.38,-197.75"/>
<text xml:space="preserve" text-anchor="middle" x="654.62" y="-182.35" font-family="Arial Bold" font-size="12.00" fill="white">Self&#45;Hosted Benefits</text>
<text xml:space="preserve" text-anchor="middle" x="654.62" y="-168.1" font-family="Arial Bold" font-size="12.00" fill="white">&#45; Data ownership</text>
<text xml:space="preserve" text-anchor="middle" x="654.62" y="-153.85" font-family="Arial Bold" font-size="12.00" fill="white">&#45; No subscription lock&#45;in</text>
<text xml:space="preserve" text-anchor="middle" x="654.62" y="-139.6" font-family="Arial Bold" font-size="12.00" fill="white">&#45; Open source audit</text>
<text xml:space="preserve" text-anchor="middle" x="654.62" y="-125.35" font-family="Arial Bold" font-size="12.00" fill="white">&#45; Custom policies</text>
</g>
<!-- encryption&#45;&gt;benefits -->
<g id="edge9" class="edge">
<title>encryption&#45;&gt;benefits</title>
<path fill="none" stroke="#2196f3" stroke-width="2" d="M633.89,-259.49C633.89,-259.49 633.89,-210.99 633.89,-210.99"/>
<polygon fill="#2196f3" stroke="#2196f3" stroke-width="2" points="637.39,-210.99 633.89,-200.99 630.39,-210.99 637.39,-210.99"/>
</g>
<!-- zero -->
<g id="node10" class="node">
<title>zero</title>
<path fill="#ff9800" stroke="black" d="M860.5,-182.38C860.5,-182.38 780.75,-182.38 780.75,-182.38 774.75,-182.38 768.75,-176.38 768.75,-170.38 768.75,-170.38 768.75,-145.88 768.75,-145.88 768.75,-139.88 774.75,-133.88 780.75,-133.88 780.75,-133.88 860.5,-133.88 860.5,-133.88 866.5,-133.88 872.5,-139.88 872.5,-145.88 872.5,-145.88 872.5,-170.38 872.5,-170.38 872.5,-176.38 866.5,-182.38 860.5,-182.38"/>
<text xml:space="preserve" text-anchor="middle" x="820.62" y="-167.93" font-family="Arial" font-size="11.00" fill="white">Zero&#45;Knowledge</text>
<text xml:space="preserve" text-anchor="middle" x="820.62" y="-154.43" font-family="Arial" font-size="11.00" fill="white">Server never sees</text>
<text xml:space="preserve" text-anchor="middle" x="820.62" y="-140.93" font-family="Arial" font-size="11.00" fill="white">master password</text>
</g>
<!-- encryption&#45;&gt;zero -->
<g id="edge8" class="edge">
<title>encryption&#45;&gt;zero</title>
<path fill="none" stroke="#ff9800" stroke-width="2" d="M691.39,-281.5C755.63,-281.5 820.62,-281.5 820.62,-281.5 820.62,-281.5 820.62,-195.82 820.62,-195.82"/>
<polygon fill="#ff9800" stroke="#ff9800" stroke-width="2" points="824.13,-195.82 820.63,-185.82 817.13,-195.82 824.13,-195.82"/>
</g>
<!-- totp -->
<g id="node3" class="node">
<title>totp</title>
<path fill="#4caf50" stroke="black" d="M81.25,-60.5C81.25,-60.5 12,-60.5 12,-60.5 6,-60.5 0,-54.5 0,-48.5 0,-48.5 0,-36.5 0,-36.5 0,-30.5 6,-24.5 12,-24.5 12,-24.5 81.25,-24.5 81.25,-24.5 87.25,-24.5 93.25,-30.5 93.25,-36.5 93.25,-36.5 93.25,-48.5 93.25,-48.5 93.25,-54.5 87.25,-60.5 81.25,-60.5"/>
<text xml:space="preserve" text-anchor="middle" x="46.62" y="-45" font-family="Arial" font-size="10.00" fill="white">Authenticator App</text>
<text xml:space="preserve" text-anchor="middle" x="46.62" y="-33" font-family="Arial" font-size="10.00" fill="white">TOTP&#45;based</text>
</g>
<!-- twofa&#45;&gt;totp -->
<g id="edge3" class="edge">
<title>twofa&#45;&gt;totp</title>
<path fill="none" stroke="#4caf50" stroke-width="2" d="M210.59,-158.5C138.27,-158.5 46.62,-158.5 46.62,-158.5 46.62,-158.5 46.62,-73.91 46.62,-73.91"/>
<polygon fill="#4caf50" stroke="#4caf50" stroke-width="2" points="50.13,-73.91 46.63,-63.91 43.13,-73.91 50.13,-73.91"/>
</g>
<!-- email -->
<g id="node4" class="node">
<title>email</title>
<path fill="#4caf50" stroke="black" d="M202.12,-60.5C202.12,-60.5 141.12,-60.5 141.12,-60.5 135.12,-60.5 129.12,-54.5 129.12,-48.5 129.12,-48.5 129.12,-36.5 129.12,-36.5 129.12,-30.5 135.12,-24.5 141.12,-24.5 141.12,-24.5 202.12,-24.5 202.12,-24.5 208.12,-24.5 214.12,-30.5 214.12,-36.5 214.12,-36.5 214.12,-48.5 214.12,-48.5 214.12,-54.5 208.12,-60.5 202.12,-60.5"/>
<text xml:space="preserve" text-anchor="middle" x="171.62" y="-45" font-family="Arial" font-size="10.00" fill="white">Email</text>
<text xml:space="preserve" text-anchor="middle" x="171.62" y="-33" font-family="Arial" font-size="10.00" fill="white">One&#45;time codes</text>
</g>
<!-- twofa&#45;&gt;email -->
<g id="edge4" class="edge">
<title>twofa&#45;&gt;email</title>
<path fill="none" stroke="#4caf50" stroke-width="2" d="M232.06,-139.8C232.06,-107.2 232.06,-42.5 232.06,-42.5 232.06,-42.5 227.61,-42.5 227.61,-42.5"/>
<polygon fill="#4caf50" stroke="#4caf50" stroke-width="2" points="227.61,-39 217.61,-42.5 227.61,-46 227.61,-39"/>
</g>
<!-- fido2 -->
<g id="node5" class="node">
<title>fido2</title>
<path fill="#4caf50" stroke="black" d="M331.25,-60.5C331.25,-60.5 262,-60.5 262,-60.5 256,-60.5 250,-54.5 250,-48.5 250,-48.5 250,-36.5 250,-36.5 250,-30.5 256,-24.5 262,-24.5 262,-24.5 331.25,-24.5 331.25,-24.5 337.25,-24.5 343.25,-30.5 343.25,-36.5 343.25,-36.5 343.25,-48.5 343.25,-48.5 343.25,-54.5 337.25,-60.5 331.25,-60.5"/>
<text xml:space="preserve" text-anchor="middle" x="296.62" y="-45" font-family="Arial" font-size="10.00" fill="white">FIDO2 WebAuthn</text>
<text xml:space="preserve" text-anchor="middle" x="296.62" y="-33" font-family="Arial" font-size="10.00" fill="white">Hardware keys</text>
</g>
<!-- twofa&#45;&gt;fido2 -->
<g id="edge5" class="edge">
<title>twofa&#45;&gt;fido2</title>
<path fill="none" stroke="#4caf50" stroke-width="2" d="M296.62,-139.8C296.62,-139.8 296.62,-73.76 296.62,-73.76"/>
<polygon fill="#4caf50" stroke="#4caf50" stroke-width="2" points="300.13,-73.76 296.63,-63.76 293.13,-73.76 300.13,-73.76"/>
</g>
<!-- yubi -->
<g id="node6" class="node">
<title>yubi</title>
<path fill="#4caf50" stroke="black" d="M442.25,-60.5C442.25,-60.5 391,-60.5 391,-60.5 385,-60.5 379,-54.5 379,-48.5 379,-48.5 379,-36.5 379,-36.5 379,-30.5 385,-24.5 391,-24.5 391,-24.5 442.25,-24.5 442.25,-24.5 448.25,-24.5 454.25,-30.5 454.25,-36.5 454.25,-36.5 454.25,-48.5 454.25,-48.5 454.25,-54.5 448.25,-60.5 442.25,-60.5"/>
<text xml:space="preserve" text-anchor="middle" x="416.62" y="-45" font-family="Arial" font-size="10.00" fill="white">YubiKey OTP</text>
<text xml:space="preserve" text-anchor="middle" x="416.62" y="-33" font-family="Arial" font-size="10.00" fill="white">Proprietary</text>
</g>
<!-- twofa&#45;&gt;yubi -->
<g id="edge6" class="edge">
<title>twofa&#45;&gt;yubi</title>
<path fill="none" stroke="#4caf50" stroke-width="2" d="M355.17,-139.8C355.17,-107.2 355.17,-42.5 355.17,-42.5 355.17,-42.5 365.73,-42.5 365.73,-42.5"/>
<polygon fill="#4caf50" stroke="#4caf50" stroke-width="2" points="365.73,-46 375.73,-42.5 365.73,-39 365.73,-46"/>
</g>
<!-- duo -->
<g id="node7" class="node">
<title>duo</title>
<path fill="#4caf50" stroke="black" d="M558.88,-60.5C558.88,-60.5 502.38,-60.5 502.38,-60.5 496.38,-60.5 490.38,-54.5 490.38,-48.5 490.38,-48.5 490.38,-36.5 490.38,-36.5 490.38,-30.5 496.38,-24.5 502.38,-24.5 502.38,-24.5 558.88,-24.5 558.88,-24.5 564.88,-24.5 570.88,-30.5 570.88,-36.5 570.88,-36.5 570.88,-48.5 570.88,-48.5 570.88,-54.5 564.88,-60.5 558.88,-60.5"/>
<text xml:space="preserve" text-anchor="middle" x="530.62" y="-45" font-family="Arial" font-size="10.00" fill="white">Duo Security</text>
<text xml:space="preserve" text-anchor="middle" x="530.62" y="-33" font-family="Arial" font-size="10.00" fill="white">Enterprise 2FA</text>
</g>
<!-- twofa&#45;&gt;duo -->
<g id="edge7" class="edge">
<title>twofa&#45;&gt;duo</title>
<path fill="none" stroke="#4caf50" stroke-width="2" d="M367.08,-139.73C367.08,-132.77 367.08,-126.5 367.08,-126.5 367.08,-126.5 515.44,-126.5 515.44,-126.5 515.44,-126.5 515.44,-73.75 515.44,-73.75"/>
<polygon fill="#4caf50" stroke="#4caf50" stroke-width="2" points="518.94,-73.75 515.44,-63.75 511.94,-73.75 518.94,-73.75"/>
</g>
</g>
</svg>
