<?xml version="1.0" encoding="UTF-8" standalone="no"?>
<!DOCTYPE svg PUBLIC "-//W3C//DTD SVG 1.1//EN"
 "http://www.w3.org/Graphics/SVG/1.1/DTD/svg11.dtd">
<!-- Generated by graphviz version 14.1.2 (0)
 -->
<!-- Title: vaultwarden&#45;security Pages: 1 -->
<svg width="757pt" height="395pt"
 viewBox="0.00 0.00 757.00 395.00" xmlns="http://www.w3.org/2000/svg" xmlns:xlink="http://www.w3.org/1999/xlink">
<g id="graph0" class="graph" transform="scale(1 1) rotate(0) translate(4 391.35)">
<title>vaultwarden&#45;security</title>
<polygon fill="#0d1117" stroke="none" points="-4,4 -4,-391.35 752.75,-391.35 752.75,4 -4,4"/>
<!-- title -->
<g id="node1" class="node">
<title>title</title>
<text xml:space="preserve" text-anchor="middle" x="248.88" y="-362.85" font-family="Segoe UI" font-size="20.00" fill="white">Vaultwarden Security Architecture</text>
</g>
<!-- encryption -->
<g id="node2" class="node">
<title>encryption</title>
<ellipse fill="#58a6ff" stroke="black" stroke-width="3" cx="526.88" cy="-261.3" rx="114.73" ry="30.05"/>
<text xml:space="preserve" text-anchor="middle" x="526.88" y="-267.15" font-family="Segoe UI" font-size="12.00" fill="white">End&#45;to&#45;End Encryption</text>
<text xml:space="preserve" text-anchor="middle" x="526.88" y="-249.9" font-family="Segoe UI" font-size="12.00" fill="white">AES&#45;256 / PBKDF2 / Argon2</text>
</g>
<!-- twofa_layer -->
<g id="node4" class="node">
<title>twofa_layer</title>
<path fill="#f78166" stroke="black" stroke-width="2" d="M407.88,-151.62C407.88,-151.62 247.88,-151.62 247.88,-151.62 241.88,-151.62 235.88,-145.62 235.88,-139.62 235.88,-139.62 235.88,-127.62 235.88,-127.62 235.88,-121.62 241.88,-115.62 247.88,-115.62 247.88,-115.62 407.88,-115.62 407.88,-115.62 413.88,-115.62 419.88,-121.62 419.88,-127.62 419.88,-127.62 419.88,-139.62 419.88,-139.62 419.88,-145.62 413.88,-151.62 407.88,-151.62"/>
<text xml:space="preserve" text-anchor="middle" x="327.88" y="-130.85" font-family="Segoe UI" font-size="12.00" fill="white">Two&#45;Factor Authentication Layer</text>
</g>
<!-- encryption&#45;&gt;twofa_layer -->
<g id="edge7" class="edge">
<title>encryption&#45;&gt;twofa_layer</title>
<path fill="none" stroke="#58a6ff" stroke-width="2" d="M416.01,-252.12C416.01,-252.12 416.01,-165.41 416.01,-165.41"/>
<polygon fill="#58a6ff" stroke="#58a6ff" stroke-width="2" points="419.51,-165.41 416.01,-155.41 412.51,-165.41 419.51,-165.41"/>
</g>
<!-- emergency_sec -->
<g id="node10" class="node">
<title>emergency_sec</title>
<path fill="#a371f7" stroke="black" stroke-width="2" d="M578.38,-160.12C578.38,-160.12 475.38,-160.12 475.38,-160.12 469.38,-160.12 463.38,-154.12 463.38,-148.12 463.38,-148.12 463.38,-119.12 463.38,-119.12 463.38,-113.12 469.38,-107.12 475.38,-107.12 475.38,-107.12 578.38,-107.12 578.38,-107.12 584.38,-107.12 590.38,-113.12 590.38,-119.12 590.38,-119.12 590.38,-148.12 590.38,-148.12 590.38,-154.12 584.38,-160.12 578.38,-160.12"/>
<text xml:space="preserve" text-anchor="middle" x="526.88" y="-145.68" font-family="Segoe UI" font-size="11.00" fill="white">Emergency Access</text>
<text xml:space="preserve" text-anchor="middle" x="526.88" y="-130.68" font-family="Segoe UI" font-size="11.00" fill="white">Trusted contacts with</text>
<text xml:space="preserve" text-anchor="middle" x="526.88" y="-115.67" font-family="Segoe UI" font-size="11.00" fill="white">time&#45;delayed recovery</text>
</g>
<!-- encryption&#45;&gt;emergency_sec -->
<g id="edge8" class="edge">
<title>encryption&#45;&gt;emergency_sec</title>
<path fill="none" stroke="#a371f7" stroke-width="2" d="M526.88,-230.07C526.88,-230.07 526.88,-174.09 526.88,-174.09"/>
<polygon fill="#a371f7" stroke="#a371f7" stroke-width="2" points="530.38,-174.09 526.88,-164.09 523.38,-174.09 530.38,-174.09"/>
</g>
<!-- benefits -->
<g id="node11" class="node">
<title>benefits</title>
<path fill="#161b22" stroke="#f78166" stroke-width="2" d="M736.75,-173.25C736.75,-173.25 645,-173.25 645,-173.25 639,-173.25 633,-167.25 633,-161.25 633,-161.25 633,-106 633,-106 633,-100 639,-94 645,-94 645,-94 736.75,-94 736.75,-94 742.75,-94 748.75,-100 748.75,-106 748.75,-106 748.75,-161.25 748.75,-161.25 748.75,-167.25 742.75,-173.25 736.75,-173.25"/>
<text xml:space="preserve" text-anchor="middle" x="690.88" y="-159.75" font-family="Segoe UI" font-size="10.00" fill="#f78166">Self&#45;Hosted Benefits</text>
<text xml:space="preserve" text-anchor="middle" x="690.88" y="-145.5" font-family="Segoe UI" font-size="10.00" fill="#f78166">&#45; Data ownership</text>
<text xml:space="preserve" text-anchor="middle" x="690.88" y="-131.25" font-family="Segoe UI" font-size="10.00" fill="#f78166">&#45; No subscription fees</text>
<text xml:space="preserve" text-anchor="middle" x="690.88" y="-117" font-family="Segoe UI" font-size="10.00" fill="#f78166">&#45; Full auditability</text>
<text xml:space="preserve" text-anchor="middle" x="690.88" y="-102.75" font-family="Segoe UI" font-size="10.00" fill="#f78166">&#45; Custom policies</text>
</g>
<!-- encryption&#45;&gt;benefits -->
<g id="edge9" class="edge">
<title>encryption&#45;&gt;benefits</title>
<path fill="none" stroke="#f78166" stroke-width="2" d="M637.3,-251.71C637.3,-251.71 637.3,-187.12 637.3,-187.12"/>
<polygon fill="#f78166" stroke="#f78166" stroke-width="2" points="640.8,-187.12 637.3,-177.12 633.8,-187.12 640.8,-187.12"/>
</g>
<!-- master -->
<g id="node3" class="node">
<title>master</title>
<path fill="#161b22" stroke="#3fb950" stroke-width="2" d="M594.12,-387.35C594.12,-387.35 459.62,-387.35 459.62,-387.35 453.62,-387.35 447.62,-381.35 447.62,-375.35 447.62,-375.35 447.62,-361.35 447.62,-361.35 447.62,-355.35 453.62,-349.35 459.62,-349.35 459.62,-349.35 594.12,-349.35 594.12,-349.35 600.12,-349.35 606.12,-355.35 606.12,-361.35 606.12,-361.35 606.12,-375.35 606.12,-375.35 606.12,-381.35 600.12,-387.35 594.12,-387.35"/>
<text xml:space="preserve" text-anchor="middle" x="526.88" y="-372.9" font-family="Segoe UI" font-size="11.00" fill="#3fb950">Master Password</text>
<text xml:space="preserve" text-anchor="middle" x="526.88" y="-357.9" font-family="Segoe UI" font-size="11.00" fill="#3fb950">Zero&#45;knowledge architecture</text>
</g>
<!-- master&#45;&gt;encryption -->
<g id="edge1" class="edge">
<title>master&#45;&gt;encryption</title>
<path fill="none" stroke="#3fb950" stroke-width="2" d="M526.88,-348.47C526.88,-348.47 526.88,-305.47 526.88,-305.47"/>
<polygon fill="#3fb950" stroke="#3fb950" stroke-width="2" points="530.38,-305.47 526.88,-295.47 523.38,-305.47 530.38,-305.47"/>
</g>
<!-- totp_sec -->
<g id="node5" class="node">
<title>totp_sec</title>
<path fill="#161b22" stroke="#3fb950" stroke-width="1.5" d="M91.75,-36C91.75,-36 12,-36 12,-36 6,-36 0,-30 0,-24 0,-24 0,-12 0,-12 0,-6 6,0 12,0 12,0 91.75,0 91.75,0 97.75,0 103.75,-6 103.75,-12 103.75,-12 103.75,-24 103.75,-24 103.75,-30 97.75,-36 91.75,-36"/>
<text xml:space="preserve" text-anchor="middle" x="51.88" y="-15.62" font-family="Segoe UI" font-size="10.00" fill="#3fb950">TOTP Authenticator</text>
</g>
<!-- twofa_layer&#45;&gt;totp_sec -->
<g id="edge2" class="edge">
<title>twofa_layer&#45;&gt;totp_sec</title>
<path fill="none" stroke="#3fb950" stroke-width="1.5" d="M234.96,-134C171.41,-134 98.62,-134 98.62,-134 98.62,-134 98.62,-48.91 98.62,-48.91"/>
<polygon fill="#3fb950" stroke="#3fb950" stroke-width="1.5" points="102.13,-48.91 98.63,-38.91 95.13,-48.91 102.13,-48.91"/>
</g>
<!-- webauthn_sec -->
<g id="node6" class="node">
<title>webauthn_sec</title>
<path fill="#161b22" stroke="#3fb950" stroke-width="1.5" d="M237,-36C237,-36 158.75,-36 158.75,-36 152.75,-36 146.75,-30 146.75,-24 146.75,-24 146.75,-12 146.75,-12 146.75,-6 152.75,0 158.75,0 158.75,0 237,0 237,0 243,0 249,-6 249,-12 249,-12 249,-24 249,-24 249,-30 243,-36 237,-36"/>
<text xml:space="preserve" text-anchor="middle" x="197.88" y="-15.62" font-family="Segoe UI" font-size="10.00" fill="#3fb950">FIDO2 / WebAuthn</text>
</g>
<!-- twofa_layer&#45;&gt;webauthn_sec -->
<g id="edge3" class="edge">
<title>twofa_layer&#45;&gt;webauthn_sec</title>
<path fill="none" stroke="#3fb950" stroke-width="1.5" d="M242.44,-114.79C242.44,-114.79 242.44,-48.71 242.44,-48.71"/>
<polygon fill="#3fb950" stroke="#3fb950" stroke-width="1.5" points="245.94,-48.71 242.44,-38.71 238.94,-48.71 245.94,-48.71"/>
</g>
<!-- yubikey_sec -->
<g id="node7" class="node">
<title>yubikey_sec</title>
<path fill="#161b22" stroke="#3fb950" stroke-width="1.5" d="M351.62,-36C351.62,-36 304.12,-36 304.12,-36 298.12,-36 292.12,-30 292.12,-24 292.12,-24 292.12,-12 292.12,-12 292.12,-6 298.12,0 304.12,0 304.12,0 351.62,0 351.62,0 357.62,0 363.62,-6 363.62,-12 363.62,-12 363.62,-24 363.62,-24 363.62,-30 357.62,-36 351.62,-36"/>
<text xml:space="preserve" text-anchor="middle" x="327.88" y="-15.62" font-family="Segoe UI" font-size="10.00" fill="#3fb950">YubiKey OTP</text>
</g>
<!-- twofa_layer&#45;&gt;yubikey_sec -->
<g id="edge4" class="edge">
<title>twofa_layer&#45;&gt;yubikey_sec</title>
<path fill="none" stroke="#3fb950" stroke-width="1.5" d="M327.88,-114.79C327.88,-114.79 327.88,-48.71 327.88,-48.71"/>
<polygon fill="#3fb950" stroke="#3fb950" stroke-width="1.5" points="331.38,-48.71 327.88,-38.71 324.38,-48.71 331.38,-48.71"/>
</g>
<!-- email_sec -->
<g id="node8" class="node">
<title>email_sec</title>
<path fill="#161b22" stroke="#3fb950" stroke-width="1.5" d="M453.25,-36C453.25,-36 418.5,-36 418.5,-36 412.5,-36 406.5,-30 406.5,-24 406.5,-24 406.5,-12 406.5,-12 406.5,-6 412.5,0 418.5,0 418.5,0 453.25,0 453.25,0 459.25,0 465.25,-6 465.25,-12 465.25,-12 465.25,-24 465.25,-24 465.25,-30 459.25,-36 453.25,-36"/>
<text xml:space="preserve" text-anchor="middle" x="435.88" y="-15.62" font-family="Segoe UI" font-size="10.00" fill="#3fb950">Email 2FA</text>
</g>
<!-- twofa_layer&#45;&gt;email_sec -->
<g id="edge5" class="edge">
<title>twofa_layer&#45;&gt;email_sec</title>
<path fill="none" stroke="#3fb950" stroke-width="1.5" d="M410.96,-114.79C410.96,-114.79 410.96,-48.71 410.96,-48.71"/>
<polygon fill="#3fb950" stroke="#3fb950" stroke-width="1.5" points="414.46,-48.71 410.96,-38.71 407.46,-48.71 414.46,-48.71"/>
</g>
<!-- duo_sec -->
<g id="node9" class="node">
<title>duo_sec</title>
<path fill="#161b22" stroke="#3fb950" stroke-width="1.5" d="M569.38,-36C569.38,-36 520.38,-36 520.38,-36 514.38,-36 508.38,-30 508.38,-24 508.38,-24 508.38,-12 508.38,-12 508.38,-6 514.38,0 520.38,0 520.38,0 569.38,0 569.38,0 575.38,0 581.38,-6 581.38,-12 581.38,-12 581.38,-24 581.38,-24 581.38,-30 575.38,-36 569.38,-36"/>
<text xml:space="preserve" text-anchor="middle" x="544.88" y="-15.62" font-family="Segoe UI" font-size="10.00" fill="#3fb950">Duo Security</text>
</g>
<!-- twofa_layer&#45;&gt;duo_sec -->
<g id="edge6" class="edge">
<title>twofa_layer&#45;&gt;duo_sec</title>
<path fill="none" stroke="#3fb950" stroke-width="1.5" d="M415.42,-114.87C415.42,-94.55 415.42,-65 415.42,-65 415.42,-65 544.88,-65 544.88,-65 544.88,-65 544.88,-48.85 544.88,-48.85"/>
<polygon fill="#3fb950" stroke="#3fb950" stroke-width="1.5" points="548.38,-48.85 544.88,-38.85 541.38,-48.85 548.38,-48.85"/>
</g>
</g>
</svg>
