<svg xmlns="http://www.w3.org/2000/svg" width="900" height="880" viewBox="0 0 900 880">
  <title>BiliTickerBuy Ticket Buying Workflow</title>
  <rect x="330.0" y="20" width="240" height="50" rx="6" ry="6" fill="#C8E6C9" stroke="#66BB6A" stroke-width="1.5"/>
  <text x="450" y="50" font-family="Helvetica, Arial, sans-serif" font-size="12" font-weight="bold" fill="#1B5E20" text-anchor="middle">Start (CLI or UI trigger)</text>
  <line x1="450" y1="70" x2="450" y2="90" stroke="#546E7A" stroke-width="2"/>
  <polygon points="450,90 446.0,83.07179676972449 454.0,83.07179676972449" fill="#546E7A"/>
  <rect x="330.0" y="90" width="240" height="50" rx="6" ry="6" fill="#FFE0B2" stroke="#FFB74D" stroke-width="1.5"/>
  <text x="450" y="120" font-family="Helvetica, Arial, sans-serif" font-size="12" font-weight="bold" fill="#BF360C" text-anchor="middle">NTP Time Synchronization</text>
  <line x1="450" y1="140" x2="450" y2="160" stroke="#546E7A" stroke-width="2"/>
  <polygon points="450,160 446.0,153.0717967697245 454.0,153.0717967697245" fill="#546E7A"/>
  <rect x="330.0" y="160" width="240" height="50" rx="6" ry="6" fill="#BBDEFB" stroke="#64B5F6" stroke-width="1.5"/>
  <text x="450" y="190" font-family="Helvetica, Arial, sans-serif" font-size="12" font-weight="bold" fill="#0D47A1" text-anchor="middle">Wait for Target Sale Time</text>
  <line x1="450" y1="210" x2="450" y2="230" stroke="#546E7A" stroke-width="2"/>
  <polygon points="450,230 446.0,223.0717967697245 454.0,223.0717967697245" fill="#546E7A"/>
  <rect x="330.0" y="230" width="240" height="50" rx="6" ry="6" fill="#BBDEFB" stroke="#64B5F6" stroke-width="1.5"/>
  <text x="450" y="260" font-family="Helvetica, Arial, sans-serif" font-size="12" font-weight="bold" fill="#0D47A1" text-anchor="middle">Fetch Project Details (getV2)</text>
  <line x1="450" y1="280" x2="450" y2="300" stroke="#546E7A" stroke-width="2"/>
  <polygon points="450,300 446.0,293.0717967697245 454.0,293.0717967697245" fill="#546E7A"/>
  <rect x="330.0" y="300" width="240" height="50" rx="6" ry="6" fill="#BBDEFB" stroke="#64B5F6" stroke-width="1.5"/>
  <text x="450" y="330" font-family="Helvetica, Arial, sans-serif" font-size="12" font-weight="bold" fill="#0D47A1" text-anchor="middle">Get Buyer Info and Addresses</text>
  <line x1="450" y1="350" x2="450" y2="370" stroke="#546E7A" stroke-width="2"/>
  <polygon points="450,370 446.0,363.0717967697245 454.0,363.0717967697245" fill="#546E7A"/>
  <rect x="330.0" y="370" width="240" height="50" rx="6" ry="6" fill="#FFE0B2" stroke="#FFB74D" stroke-width="1.5"/>
  <text x="450" y="400" font-family="Helvetica, Arial, sans-serif" font-size="12" font-weight="bold" fill="#BF360C" text-anchor="middle">Generate cToken (fingerprint)</text>
  <line x1="450" y1="420" x2="450" y2="440" stroke="#546E7A" stroke-width="2"/>
  <polygon points="450,440 446.0,433.0717967697245 454.0,433.0717967697245" fill="#546E7A"/>
  <rect x="330.0" y="440" width="240" height="50" rx="6" ry="6" fill="#BBDEFB" stroke="#64B5F6" stroke-width="1.5"/>
  <text x="450" y="470" font-family="Helvetica, Arial, sans-serif" font-size="12" font-weight="bold" fill="#0D47A1" text-anchor="middle">Prepare Order (order/prepare)</text>
  <line x1="450" y1="490" x2="450" y2="510" stroke="#546E7A" stroke-width="2"/>
  <polygon points="450,510 446.0,503.0717967697245 454.0,503.0717967697245" fill="#546E7A"/>
  <polygon points="450,510.0 550.0,535 450,560.0 350.0,535" fill="#FFCDD2" stroke="#E53935" stroke-width="1.5"/>
  <text x="450" y="540" font-family="Helvetica, Arial, sans-serif" font-size="11" font-weight="bold" fill="#B71C1C" text-anchor="middle">Rate Limited? (429/412)</text>
  <line x1="350" y1="535" x2="150" y2="535" stroke="#E53935" stroke-width="2"/>
  <polygon points="150,535 156.9282032302755,531.0 156.9282032302755,539.0" fill="#E53935"/>
  <text x="320" y="528" font-family="Helvetica, Arial, sans-serif" font-size="11" font-weight="bold" fill="#FFFFFF" stroke="#FFFFFF" stroke-width="3" text-anchor="middle">Yes</text>
  <text x="320" y="528" font-family="Helvetica, Arial, sans-serif" font-size="11" font-weight="bold" fill="#B71C1C" text-anchor="middle">Yes</text>
  <rect x="30" y="510" width="120" height="50" rx="6" ry="6" fill="#FFE0B2" stroke="#FFB74D" stroke-width="1.5"/>
  <text x="90" y="540" font-family="Helvetica, Arial, sans-serif" font-size="10" font-weight="normal" fill="#BF360C" text-anchor="middle">Backoff +
Rotate Proxy</text>
  <line x1="90" y1="510" x2="90" y2="370" stroke="#E53935" stroke-width="1.5" stroke-dasharray="5,3"/>
  <line x1="90" y1="370" x2="330.0" y2="370" stroke="#E53935" stroke-width="1.5"/>
  <polygon points="330.0,370 323.0717967697245,374.0 323.0717967697245,366.0" fill="#E53935"/>
  <line x1="450" y1="560" x2="450" y2="580" stroke="#546E7A" stroke-width="2"/>
  <polygon points="450,580 446.0,573.0717967697245 454.0,573.0717967697245" fill="#546E7A"/>
  <text x="480" y="572" font-family="Helvetica, Arial, sans-serif" font-size="11" font-weight="bold" fill="#FFFFFF" stroke="#FFFFFF" stroke-width="3" text-anchor="middle">No</text>
  <text x="480" y="572" font-family="Helvetica, Arial, sans-serif" font-size="11" font-weight="bold" fill="#37474F" text-anchor="middle">No</text>
  <rect x="330.0" y="580" width="240" height="50" rx="6" ry="6" fill="#BBDEFB" stroke="#64B5F6" stroke-width="1.5"/>
  <text x="450" y="610" font-family="Helvetica, Arial, sans-serif" font-size="12" font-weight="bold" fill="#0D47A1" text-anchor="middle">Create Order (order/create)</text>
  <line x1="450" y1="630" x2="450" y2="650" stroke="#546E7A" stroke-width="2"/>
  <polygon points="450,650 446.0,643.0717967697245 454.0,643.0717967697245" fill="#546E7A"/>
  <polygon points="450,650.0 550.0,675 450,700.0 350.0,675" fill="#FFCDD2" stroke="#E53935" stroke-width="1.5"/>
  <text x="450" y="680" font-family="Helvetica, Arial, sans-serif" font-size="11" font-weight="bold" fill="#B71C1C" text-anchor="middle">Order Created?</text>
  <line x1="550" y1="675" x2="780" y2="675" stroke="#E53935" stroke-width="2"/>
  <polygon points="780,675 773.0717967697245,679.0 773.0717967697245,671.0" fill="#E53935"/>
  <text x="580" y="668" font-family="Helvetica, Arial, sans-serif" font-size="11" font-weight="bold" fill="#FFFFFF" stroke="#FFFFFF" stroke-width="3" text-anchor="middle">No</text>
  <text x="580" y="668" font-family="Helvetica, Arial, sans-serif" font-size="11" font-weight="bold" fill="#B71C1C" text-anchor="middle">No</text>
  <rect x="750" y="650" width="120" height="50" rx="6" ry="6" fill="#FFE0B2" stroke="#FFB74D" stroke-width="1.5"/>
  <text x="810" y="680" font-family="Helvetica, Arial, sans-serif" font-size="10" font-weight="normal" fill="#BF360C" text-anchor="middle">Retry
Loop</text>
  <line x1="810" y1="650" x2="810" y2="560" stroke="#E53935" stroke-width="1.5" stroke-dasharray="5,3"/>
  <line x1="810" y1="560" x2="570.0" y2="560" stroke="#E53935" stroke-width="1.5"/>
  <polygon points="570.0,560 576.9282032302755,556.0 576.9282032302755,564.0" fill="#E53935"/>
  <line x1="450" y1="700" x2="450" y2="720" stroke="#546E7A" stroke-width="2"/>
  <polygon points="450,720 446.0,713.0717967697245 454.0,713.0717967697245" fill="#546E7A"/>
  <text x="480" y="712" font-family="Helvetica, Arial, sans-serif" font-size="11" font-weight="bold" fill="#FFFFFF" stroke="#FFFFFF" stroke-width="3" text-anchor="middle">Yes</text>
  <text x="480" y="712" font-family="Helvetica, Arial, sans-serif" font-size="11" font-weight="bold" fill="#2E7D32" text-anchor="middle">Yes</text>
  <rect x="330.0" y="720" width="240" height="50" rx="6" ry="6" fill="#BBDEFB" stroke="#64B5F6" stroke-width="1.5"/>
  <text x="450" y="750" font-family="Helvetica, Arial, sans-serif" font-size="12" font-weight="bold" fill="#0D47A1" text-anchor="middle">Generate Payment QR Code</text>
  <line x1="450" y1="770" x2="450" y2="790" stroke="#546E7A" stroke-width="2"/>
  <polygon points="450,790 446.0,783.0717967697245 454.0,783.0717967697245" fill="#546E7A"/>
  <rect x="330.0" y="790" width="240" height="50" rx="6" ry="6" fill="#FFE0B2" stroke="#FFB74D" stroke-width="1.5"/>
  <text x="450" y="820" font-family="Helvetica, Arial, sans-serif" font-size="12" font-weight="bold" fill="#BF360C" text-anchor="middle">Send Multi-Channel Notifications</text>
  <line x1="450" y1="840" x2="450" y2="860" stroke="#546E7A" stroke-width="2"/>
  <polygon points="450,860 446.0,853.0717967697245 454.0,853.0717967697245" fill="#546E7A"/>
  <rect x="330.0" y="860" width="240" height="50" rx="6" ry="6" fill="#C8E6C9" stroke="#66BB6A" stroke-width="1.5"/>
  <text x="450" y="890" font-family="Helvetica, Arial, sans-serif" font-size="12" font-weight="bold" fill="#1B5E20" text-anchor="middle">End - Display QR, Await Payment</text>
</svg>
