<svg xmlns="http://www.w3.org/2000/svg" width="900" height="560" viewBox="0 0 900 560">
  <title>BiliTickerBuy Notification System</title>
  <rect x="330" y="20" width="240" height="45" rx="6" ry="6" fill="#C8E6C9" stroke="#66BB6A" stroke-width="1.5"/>
  <text x="450" y="48" font-family="Helvetica, Arial, sans-serif" font-size="12" font-weight="bold" fill="#1B5E20" text-anchor="middle">Event Trigger (buy success/fail)</text>
  <line x1="450" y1="65" x2="450" y2="85" stroke="#546E7A" stroke-width="2"/>
  <polygon points="450,85 446.0,78.07179676972449 454.0,78.07179676972449" fill="#546E7A"/>
  <rect x="310" y="85" width="280" height="50" rx="10" ry="10" fill="#1565C0" stroke="#0D47A1" stroke-width="1.5"/>
  <text x="450" y="115" font-family="Helvetica, Arial, sans-serif" font-size="14" font-weight="bold" fill="#FFFFFF" text-anchor="middle">Notification Dispatcher</text>
  <rect x="30" y="90" width="140" height="45" rx="6" ry="6" fill="#FFE0B2" stroke="#FFB74D" stroke-width="1.5"/>
  <text x="100" y="118" font-family="Helvetica, Arial, sans-serif" font-size="11" font-weight="normal" fill="#BF360C" text-anchor="middle">Config Reader
(TinyDB)</text>
  <line x1="170" y1="112" x2="310" y2="110" stroke="#FFB74D" stroke-width="1.5" stroke-dasharray="5,3"/>
  <rect x="60" y="200" width="220" height="70" rx="8" ry="8" fill="#BBDEFB" stroke="#64B5F6" stroke-width="1.5"/>
  <text x="170" y="228" font-family="Helvetica, Arial, sans-serif" font-size="14" font-weight="bold" fill="#0D47A1" text-anchor="middle">Bark</text>
  <text x="170" y="252" font-family="Helvetica, Arial, sans-serif" font-size="10" font-weight="normal" fill="#0D47A1" text-anchor="middle">iOS push notifications</text>
  <line x1="450" y1="135" x2="170" y2="200" stroke="#546E7A" stroke-width="1.5"/>
  <polygon points="170,200 175.84422454053092,194.5369386311468 177.65326219812573,202.32971623309362" fill="#546E7A"/>
  <rect x="340" y="200" width="220" height="70" rx="8" ry="8" fill="#BBDEFB" stroke="#64B5F6" stroke-width="1.5"/>
  <text x="450" y="228" font-family="Helvetica, Arial, sans-serif" font-size="14" font-weight="bold" fill="#0D47A1" text-anchor="middle">ServerChan</text>
  <text x="450" y="252" font-family="Helvetica, Arial, sans-serif" font-size="10" font-weight="normal" fill="#0D47A1" text-anchor="middle">WeChat notifications</text>
  <line x1="450" y1="135" x2="450" y2="200" stroke="#546E7A" stroke-width="1.5"/>
  <polygon points="450,200 446.0,193.0717967697245 454.0,193.0717967697245" fill="#546E7A"/>
  <rect x="620" y="200" width="220" height="70" rx="8" ry="8" fill="#BBDEFB" stroke="#64B5F6" stroke-width="1.5"/>
  <text x="730" y="228" font-family="Helvetica, Arial, sans-serif" font-size="14" font-weight="bold" fill="#0D47A1" text-anchor="middle">ntfy</text>
  <text x="730" y="252" font-family="Helvetica, Arial, sans-serif" font-size="10" font-weight="normal" fill="#0D47A1" text-anchor="middle">Cross-platform push (ntfy.sh)</text>
  <line x1="450" y1="135" x2="730" y2="200" stroke="#546E7A" stroke-width="1.5"/>
  <polygon points="730,200 722.3467378018743,202.32971623309362 724.155775459469,194.5369386311468" fill="#546E7A"/>
  <rect x="60" y="320" width="220" height="70" rx="8" ry="8" fill="#BBDEFB" stroke="#64B5F6" stroke-width="1.5"/>
  <text x="170" y="348" font-family="Helvetica, Arial, sans-serif" font-size="14" font-weight="bold" fill="#0D47A1" text-anchor="middle">PushPlus</text>
  <text x="170" y="372" font-family="Helvetica, Arial, sans-serif" font-size="10" font-weight="normal" fill="#0D47A1" text-anchor="middle">WeChat (PushPlus API)</text>
  <line x1="450" y1="135" x2="170" y2="320" stroke="#546E7A" stroke-width="1.5"/>
  <polygon points="170,320 173.57541560199087,312.8434363502418 177.98547372548632,319.5181189155322" fill="#546E7A"/>
  <rect x="340" y="320" width="220" height="70" rx="8" ry="8" fill="#BBDEFB" stroke="#64B5F6" stroke-width="1.5"/>
  <text x="450" y="348" font-family="Helvetica, Arial, sans-serif" font-size="14" font-weight="bold" fill="#0D47A1" text-anchor="middle">MeoW</text>
  <text x="450" y="372" font-family="Helvetica, Arial, sans-serif" font-size="10" font-weight="normal" fill="#0D47A1" text-anchor="middle">MeoW notification service</text>
  <line x1="450" y1="135" x2="450" y2="320" stroke="#546E7A" stroke-width="1.5"/>
  <polygon points="450,320 446.0,313.0717967697245 454.0,313.0717967697245" fill="#546E7A"/>
  <rect x="620" y="320" width="220" height="70" rx="8" ry="8" fill="#BBDEFB" stroke="#64B5F6" stroke-width="1.5"/>
  <text x="730" y="348" font-family="Helvetica, Arial, sans-serif" font-size="14" font-weight="bold" fill="#0D47A1" text-anchor="middle">Audio Alert</text>
  <text x="730" y="372" font-family="Helvetica, Arial, sans-serif" font-size="10" font-weight="normal" fill="#0D47A1" text-anchor="middle">Local sound (playsound3)</text>
  <line x1="450" y1="135" x2="730" y2="320" stroke="#546E7A" stroke-width="1.5"/>
  <polygon points="730,320 722.0145262745137,319.5181189155322 726.4245843980092,312.8434363502418" fill="#546E7A"/>
  <rect x="310" y="430" width="280" height="45" rx="6" ry="6" fill="#C8E6C9" stroke="#66BB6A" stroke-width="1.5"/>
  <text x="450" y="458" font-family="Helvetica, Arial, sans-serif" font-size="12" font-weight="bold" fill="#1B5E20" text-anchor="middle">Delivery Confirmation (independent)</text>
  <line x1="170" y1="270" x2="450" y2="430" stroke="#90A4AE" stroke-width="1"/>
  <polygon points="450,430 442.0000793046414,430.03562117310855 445.9691908114961,423.0896760361129" fill="#90A4AE"/>
  <line x1="450" y1="270" x2="450" y2="430" stroke="#90A4AE" stroke-width="1"/>
  <polygon points="450,430 446.0,423.0717967697245 454.0,423.0717967697245" fill="#90A4AE"/>
  <line x1="730" y1="270" x2="450" y2="430" stroke="#90A4AE" stroke-width="1"/>
  <polygon points="450,430 454.0308091885039,423.0896760361129 457.9999206953586,430.03562117310855" fill="#90A4AE"/>
  <line x1="170" y1="390" x2="450" y2="430" stroke="#90A4AE" stroke-width="1"/>
  <polygon points="450,430 442.57574329525784,432.98000207753137 443.7071141451563,425.06040612824205" fill="#90A4AE"/>
  <line x1="450" y1="390" x2="450" y2="430" stroke="#90A4AE" stroke-width="1"/>
  <polygon points="450,430 446.0,423.0717967697245 454.0,423.0717967697245" fill="#90A4AE"/>
  <line x1="730" y1="390" x2="450" y2="430" stroke="#90A4AE" stroke-width="1"/>
  <polygon points="450,430 456.2928858548437,425.06040612824205 457.42425670474216,432.98000207753137" fill="#90A4AE"/>
  <text x="450" y="545" font-family="Helvetica, Arial, sans-serif" font-size="11" font-weight="normal" fill="#78909C" text-anchor="middle">Each channel sends independently - failure in one does not block others</text>
</svg>
