<?xml version="1.0" encoding="UTF-8" standalone="no"?>
<!DOCTYPE svg PUBLIC "-//W3C//DTD SVG 1.1//EN"
 "http://www.w3.org/Graphics/SVG/1.1/DTD/svg11.dtd">
<!-- Generated by graphviz version 14.1.2 (0)
 -->
<!-- Title: G Pages: 1 -->
<svg width="469pt" height="1410pt"
 viewBox="0.00 0.00 469.00 1410.00" xmlns="http://www.w3.org/2000/svg" xmlns:xlink="http://www.w3.org/1999/xlink">
<g id="graph0" class="graph" transform="scale(1 1) rotate(0) translate(4 1406)">
<title>G</title>
<polygon fill="white" stroke="none" points="-4,4 -4,-1406 464.75,-1406 464.75,4 -4,4"/>
<!-- center -->
<g id="node1" class="node">
<title>center</title>
<path fill="#1a365d" stroke="#1a365d" stroke-width="1.5" d="M148,-534.83C148,-534.83 148,-543.17 148,-543.17 148,-547.35 144.15,-553.14 140.3,-554.75 140.3,-554.75 113.52,-566 113.52,-566 109.67,-567.62 101.65,-569.23 97.48,-569.23 97.48,-569.23 54.52,-569.23 54.52,-569.23 50.35,-569.23 42.33,-567.62 38.48,-566 38.48,-566 11.7,-554.75 11.7,-554.75 7.85,-553.14 4,-547.35 4,-543.17 4,-543.17 4,-534.83 4,-534.83 4,-530.65 7.85,-524.86 11.7,-523.25 11.7,-523.25 38.48,-512 38.48,-512 42.33,-510.38 50.35,-508.77 54.52,-508.77 54.52,-508.77 97.48,-508.77 97.48,-508.77 101.65,-508.77 109.67,-510.38 113.52,-512 113.52,-512 140.3,-523.25 140.3,-523.25 144.15,-524.86 148,-530.65 148,-534.83"/>
<path fill="none" stroke="#1a365d" stroke-width="1.5" d="M152,-533.94C152,-533.94 152,-544.06 152,-544.06 152,-549.12 147.33,-556.14 142.67,-558.1 142.67,-558.1 115.96,-569.31 115.96,-569.31 111.29,-571.27 101.57,-573.23 96.51,-573.23 96.51,-573.23 55.49,-573.23 55.49,-573.23 50.43,-573.23 40.71,-571.27 36.04,-569.31 36.04,-569.31 9.33,-558.1 9.33,-558.1 4.67,-556.14 0,-549.12 0,-544.06 0,-544.06 0,-533.94 0,-533.94 0,-528.88 4.67,-521.86 9.33,-519.9 9.33,-519.9 36.04,-508.69 36.04,-508.69 40.71,-506.73 50.43,-504.77 55.49,-504.77 55.49,-504.77 96.51,-504.77 96.51,-504.77 101.57,-504.77 111.29,-506.73 115.96,-508.69 115.96,-508.69 142.67,-519.9 142.67,-519.9 147.33,-521.86 152,-528.88 152,-533.94"/>
<text xml:space="preserve" text-anchor="middle" x="76" y="-541.45" font-family="Arial Bold" font-size="14.00" fill="white">Tech Debt</text>
<text xml:space="preserve" text-anchor="middle" x="76" y="-525.7" font-family="Arial Bold" font-size="14.00" fill="white">Audit Skill</text>
</g>
<!-- cat1 -->
<g id="node2" class="node">
<title>cat1</title>
<path fill="#ebf8ff" stroke="#2b6cb0" stroke-width="1.5" d="M270.38,-1267.25C270.38,-1267.25 204.88,-1267.25 204.88,-1267.25 198.88,-1267.25 192.88,-1261.25 192.88,-1255.25 192.88,-1255.25 192.88,-1242.75 192.88,-1242.75 192.88,-1236.75 198.88,-1230.75 204.88,-1230.75 204.88,-1230.75 270.38,-1230.75 270.38,-1230.75 276.38,-1230.75 282.38,-1236.75 282.38,-1242.75 282.38,-1242.75 282.38,-1255.25 282.38,-1255.25 282.38,-1261.25 276.38,-1267.25 270.38,-1267.25"/>
<text xml:space="preserve" text-anchor="middle" x="237.62" y="-1251.85" font-family="Arial Bold" font-size="12.00">Audit Quality</text>
<text xml:space="preserve" text-anchor="middle" x="237.62" y="-1237.6" font-family="Arial Bold" font-size="12.00">Guarantees</text>
</g>
<!-- center&#45;&gt;cat1 -->
<g id="edge1" class="edge">
<title>center&#45;&gt;cat1</title>
<path fill="none" stroke="#4a5568" stroke-width="1.5" d="M75.75,-573.73C75.75,-716.27 75.75,-1249 75.75,-1249 75.75,-1249 182.26,-1249 182.26,-1249"/>
<polygon fill="#4a5568" stroke="#4a5568" stroke-width="1.5" points="182.26,-1251.8 190.26,-1249 182.26,-1246.2 182.26,-1251.8"/>
</g>
<!-- cat2 -->
<g id="node8" class="node">
<title>cat2</title>
<path fill="#ebf8ff" stroke="#2b6cb0" stroke-width="1.5" d="M267.75,-889.25C267.75,-889.25 207.5,-889.25 207.5,-889.25 201.5,-889.25 195.5,-883.25 195.5,-877.25 195.5,-877.25 195.5,-864.75 195.5,-864.75 195.5,-858.75 201.5,-852.75 207.5,-852.75 207.5,-852.75 267.75,-852.75 267.75,-852.75 273.75,-852.75 279.75,-858.75 279.75,-864.75 279.75,-864.75 279.75,-877.25 279.75,-877.25 279.75,-883.25 273.75,-889.25 267.75,-889.25"/>
<text xml:space="preserve" text-anchor="middle" x="237.62" y="-873.85" font-family="Arial Bold" font-size="12.00">9 Audit</text>
<text xml:space="preserve" text-anchor="middle" x="237.62" y="-859.6" font-family="Arial Bold" font-size="12.00">Dimensions</text>
</g>
<!-- center&#45;&gt;cat2 -->
<g id="edge16" class="edge">
<title>center&#45;&gt;cat2</title>
<path fill="none" stroke="#4a5568" stroke-width="1.5" d="M127.29,-565.24C166.46,-565.24 213.75,-565.24 213.75,-565.24 213.75,-565.24 213.75,-842.06 213.75,-842.06"/>
<polygon fill="#4a5568" stroke="#4a5568" stroke-width="1.5" points="210.95,-842.06 213.75,-850.06 216.55,-842.06 210.95,-842.06"/>
</g>
<!-- cat3 -->
<g id="node18" class="node">
<title>cat3</title>
<path fill="#ebf8ff" stroke="#2b6cb0" stroke-width="1.5" d="M265.12,-557.25C265.12,-557.25 210.12,-557.25 210.12,-557.25 204.12,-557.25 198.12,-551.25 198.12,-545.25 198.12,-545.25 198.12,-532.75 198.12,-532.75 198.12,-526.75 204.12,-520.75 210.12,-520.75 210.12,-520.75 265.12,-520.75 265.12,-520.75 271.12,-520.75 277.12,-526.75 277.12,-532.75 277.12,-532.75 277.12,-545.25 277.12,-545.25 277.12,-551.25 271.12,-557.25 265.12,-557.25"/>
<text xml:space="preserve" text-anchor="middle" x="237.62" y="-541.85" font-family="Arial Bold" font-size="12.00">Multi&#45;Stack</text>
<text xml:space="preserve" text-anchor="middle" x="237.62" y="-527.6" font-family="Arial Bold" font-size="12.00">Tooling</text>
</g>
<!-- center&#45;&gt;cat3 -->
<g id="edge17" class="edge">
<title>center&#45;&gt;cat3</title>
<path fill="none" stroke="#4a5568" stroke-width="1.5" d="M152.55,-539C152.55,-539 187.13,-539 187.13,-539"/>
<polygon fill="#4a5568" stroke="#4a5568" stroke-width="1.5" points="187.13,-541.8 195.13,-539 187.13,-536.2 187.13,-541.8"/>
</g>
<!-- cat4 -->
<g id="node23" class="node">
<title>cat4</title>
<path fill="#ebf8ff" stroke="#2b6cb0" stroke-width="1.5" d="M275.25,-360.25C275.25,-360.25 200,-360.25 200,-360.25 194,-360.25 188,-354.25 188,-348.25 188,-348.25 188,-335.75 188,-335.75 188,-329.75 194,-323.75 200,-323.75 200,-323.75 275.25,-323.75 275.25,-323.75 281.25,-323.75 287.25,-329.75 287.25,-335.75 287.25,-335.75 287.25,-348.25 287.25,-348.25 287.25,-354.25 281.25,-360.25 275.25,-360.25"/>
<text xml:space="preserve" text-anchor="middle" x="237.62" y="-344.85" font-family="Arial Bold" font-size="12.00">Scalability and</text>
<text xml:space="preserve" text-anchor="middle" x="237.62" y="-330.6" font-family="Arial Bold" font-size="12.00">Persistence</text>
</g>
<!-- center&#45;&gt;cat4 -->
<g id="edge22" class="edge">
<title>center&#45;&gt;cat4</title>
<path fill="none" stroke="#4a5568" stroke-width="1.5" d="M127.58,-512.76C168.11,-512.76 217.75,-512.76 217.75,-512.76 217.75,-512.76 217.75,-371.2 217.75,-371.2"/>
<polygon fill="#4a5568" stroke="#4a5568" stroke-width="1.5" points="220.55,-371.2 217.75,-363.2 214.95,-371.2 220.55,-371.2"/>
</g>
<!-- cat5 -->
<g id="node28" class="node">
<title>cat5</title>
<path fill="#ebf8ff" stroke="#2b6cb0" stroke-width="1.5" d="M274.88,-144C274.88,-144 200.38,-144 200.38,-144 194.38,-144 188.38,-138 188.38,-132 188.38,-132 188.38,-120 188.38,-120 188.38,-114 194.38,-108 200.38,-108 200.38,-108 274.88,-108 274.88,-108 280.88,-108 286.88,-114 286.88,-120 286.88,-120 286.88,-132 286.88,-132 286.88,-138 280.88,-144 274.88,-144"/>
<text xml:space="preserve" text-anchor="middle" x="237.62" y="-121.72" font-family="Arial Bold" font-size="12.00">Customization</text>
</g>
<!-- center&#45;&gt;cat5 -->
<g id="edge27" class="edge">
<title>center&#45;&gt;cat5</title>
<path fill="none" stroke="#4a5568" stroke-width="1.5" d="M75.75,-504.14C75.75,-404.57 75.75,-126 75.75,-126 75.75,-126 177.47,-126 177.47,-126"/>
<polygon fill="#4a5568" stroke="#4a5568" stroke-width="1.5" points="177.47,-128.8 185.47,-126 177.47,-123.2 177.47,-128.8"/>
</g>
<!-- f1a -->
<g id="node3" class="node">
<title>f1a</title>
<path fill="#f0fff4" stroke="#38a169" stroke-width="1.5" d="M424.75,-1402C424.75,-1402 359.25,-1402 359.25,-1402 353.25,-1402 347.25,-1396 347.25,-1390 347.25,-1390 347.25,-1378 347.25,-1378 347.25,-1372 353.25,-1366 359.25,-1366 359.25,-1366 424.75,-1366 424.75,-1366 430.75,-1366 436.75,-1372 436.75,-1378 436.75,-1378 436.75,-1390 436.75,-1390 436.75,-1396 430.75,-1402 424.75,-1402"/>
<text xml:space="preserve" text-anchor="middle" x="392" y="-1386.5" font-family="Arial" font-size="10.00">file:line Citations</text>
<text xml:space="preserve" text-anchor="middle" x="392" y="-1374.5" font-family="Arial" font-size="10.00">on Every Finding</text>
</g>
<!-- cat1&#45;&gt;f1a -->
<g id="edge2" class="edge">
<title>cat1&#45;&gt;f1a</title>
<path fill="none" stroke="#4a5568" stroke-width="1.5" d="M237.75,-1267.77C237.75,-1304.87 237.75,-1384 237.75,-1384 237.75,-1384 336.28,-1384 336.28,-1384"/>
<polygon fill="#4a5568" stroke="#4a5568" stroke-width="1.5" points="336.28,-1386.8 344.28,-1384 336.28,-1381.2 336.28,-1386.8"/>
</g>
<!-- f1b -->
<g id="node4" class="node">
<title>f1b</title>
<path fill="#f0fff4" stroke="#38a169" stroke-width="1.5" d="M428.12,-1348C428.12,-1348 355.88,-1348 355.88,-1348 349.88,-1348 343.88,-1342 343.88,-1336 343.88,-1336 343.88,-1324 343.88,-1324 343.88,-1318 349.88,-1312 355.88,-1312 355.88,-1312 428.12,-1312 428.12,-1312 434.12,-1312 440.12,-1318 440.12,-1324 440.12,-1324 440.12,-1336 440.12,-1336 440.12,-1342 434.12,-1348 428.12,-1348"/>
<text xml:space="preserve" text-anchor="middle" x="392" y="-1332.5" font-family="Arial" font-size="10.00">Forced Orientation</text>
<text xml:space="preserve" text-anchor="middle" x="392" y="-1320.5" font-family="Arial" font-size="10.00">Before Judgment</text>
</g>
<!-- cat1&#45;&gt;f1b -->
<g id="edge3" class="edge">
<title>cat1&#45;&gt;f1b</title>
<path fill="none" stroke="#4a5568" stroke-width="1.5" d="M283.05,-1264.17C313.39,-1264.17 347.75,-1264.17 347.75,-1264.17 347.75,-1264.17 347.75,-1301.04 347.75,-1301.04"/>
<polygon fill="#4a5568" stroke="#4a5568" stroke-width="1.5" points="344.95,-1301.04 347.75,-1309.04 350.55,-1301.04 344.95,-1301.04"/>
</g>
<!-- f1c -->
<g id="node5" class="node">
<title>f1c</title>
<path fill="#f0fff4" stroke="#38a169" stroke-width="1.5" d="M421,-1294C421,-1294 363,-1294 363,-1294 357,-1294 351,-1288 351,-1282 351,-1282 351,-1270 351,-1270 351,-1264 357,-1258 363,-1258 363,-1258 421,-1258 421,-1258 427,-1258 433,-1264 433,-1270 433,-1270 433,-1282 433,-1282 433,-1288 427,-1294 421,-1294"/>
<text xml:space="preserve" text-anchor="middle" x="392" y="-1278.5" font-family="Arial" font-size="10.00">Looks Bad But</text>
<text xml:space="preserve" text-anchor="middle" x="392" y="-1266.5" font-family="Arial" font-size="10.00">Is Fine Section</text>
</g>
<!-- cat1&#45;&gt;f1c -->
<g id="edge4" class="edge">
<title>cat1&#45;&gt;f1c</title>
<path fill="none" stroke="#4a5568" stroke-width="1.5" d="M283.11,-1261.08C283.11,-1261.08 340,-1261.08 340,-1261.08"/>
<polygon fill="#4a5568" stroke="#4a5568" stroke-width="1.5" points="340,-1263.88 348,-1261.08 340,-1258.28 340,-1263.88"/>
</g>
<!-- f1d -->
<g id="node6" class="node">
<title>f1d</title>
<path fill="#f0fff4" stroke="#38a169" stroke-width="1.5" d="M428.88,-1240C428.88,-1240 355.12,-1240 355.12,-1240 349.12,-1240 343.12,-1234 343.12,-1228 343.12,-1228 343.12,-1216 343.12,-1216 343.12,-1210 349.12,-1204 355.12,-1204 355.12,-1204 428.88,-1204 428.88,-1204 434.88,-1204 440.88,-1210 440.88,-1216 440.88,-1216 440.88,-1228 440.88,-1228 440.88,-1234 434.88,-1240 428.88,-1240"/>
<text xml:space="preserve" text-anchor="middle" x="392" y="-1224.5" font-family="Arial" font-size="10.00">No Rewrite</text>
<text xml:space="preserve" text-anchor="middle" x="392" y="-1212.5" font-family="Arial" font-size="10.00">Recommendations</text>
</g>
<!-- cat1&#45;&gt;f1d -->
<g id="edge5" class="edge">
<title>cat1&#45;&gt;f1d</title>
<path fill="none" stroke="#4a5568" stroke-width="1.5" d="M283.11,-1235.38C283.11,-1235.38 332.26,-1235.38 332.26,-1235.38"/>
<polygon fill="#4a5568" stroke="#4a5568" stroke-width="1.5" points="332.26,-1238.18 340.26,-1235.38 332.26,-1232.58 332.26,-1238.18"/>
</g>
<!-- f1e -->
<g id="node7" class="node">
<title>f1e</title>
<path fill="#f0fff4" stroke="#38a169" stroke-width="1.5" d="M422.88,-1186C422.88,-1186 361.12,-1186 361.12,-1186 355.12,-1186 349.12,-1180 349.12,-1174 349.12,-1174 349.12,-1162 349.12,-1162 349.12,-1156 355.12,-1150 361.12,-1150 361.12,-1150 422.88,-1150 422.88,-1150 428.88,-1150 434.88,-1156 434.88,-1162 434.88,-1162 434.88,-1174 434.88,-1174 434.88,-1180 428.88,-1186 422.88,-1186"/>
<text xml:space="preserve" text-anchor="middle" x="392" y="-1170.5" font-family="Arial" font-size="10.00">No Sycophancy</text>
<text xml:space="preserve" text-anchor="middle" x="392" y="-1158.5" font-family="Arial" font-size="10.00">No Filler</text>
</g>
<!-- cat1&#45;&gt;f1e -->
<g id="edge6" class="edge">
<title>cat1&#45;&gt;f1e</title>
<path fill="none" stroke="#4a5568" stroke-width="1.5" d="M265.75,-1230.21C265.75,-1206.29 265.75,-1168 265.75,-1168 265.75,-1168 338.28,-1168 338.28,-1168"/>
<polygon fill="#4a5568" stroke="#4a5568" stroke-width="1.5" points="338.28,-1170.8 346.28,-1168 338.28,-1165.2 338.28,-1170.8"/>
</g>
<!-- d1 -->
<g id="node9" class="node">
<title>d1</title>
<path fill="#fffaf0" stroke="#dd6b20" stroke-width="1.5" d="M427.75,-1132C427.75,-1132 356.25,-1132 356.25,-1132 350.25,-1132 344.25,-1126 344.25,-1120 344.25,-1120 344.25,-1108 344.25,-1108 344.25,-1102 350.25,-1096 356.25,-1096 356.25,-1096 427.75,-1096 427.75,-1096 433.75,-1096 439.75,-1102 439.75,-1108 439.75,-1108 439.75,-1120 439.75,-1120 439.75,-1126 433.75,-1132 427.75,-1132"/>
<text xml:space="preserve" text-anchor="middle" x="392" y="-1110.7" font-family="Arial" font-size="9.00">Architectural Decay</text>
</g>
<!-- cat2&#45;&gt;d1 -->
<g id="edge7" class="edge">
<title>cat2&#45;&gt;d1</title>
<path fill="none" stroke="#4a5568" stroke-width="1.5" d="M209.75,-889.66C209.75,-946.57 209.75,-1114 209.75,-1114 209.75,-1114 333.37,-1114 333.37,-1114"/>
<polygon fill="#4a5568" stroke="#4a5568" stroke-width="1.5" points="333.37,-1116.8 341.37,-1114 333.37,-1111.2 333.37,-1116.8"/>
</g>
<!-- d2 -->
<g id="node10" class="node">
<title>d2</title>
<path fill="#fffaf0" stroke="#dd6b20" stroke-width="1.5" d="M421.38,-1078C421.38,-1078 362.62,-1078 362.62,-1078 356.62,-1078 350.62,-1072 350.62,-1066 350.62,-1066 350.62,-1054 350.62,-1054 350.62,-1048 356.62,-1042 362.62,-1042 362.62,-1042 421.38,-1042 421.38,-1042 427.38,-1042 433.38,-1048 433.38,-1054 433.38,-1054 433.38,-1066 433.38,-1066 433.38,-1072 427.38,-1078 421.38,-1078"/>
<text xml:space="preserve" text-anchor="middle" x="392" y="-1056.7" font-family="Arial" font-size="9.00">Consistency Rot</text>
</g>
<!-- cat2&#45;&gt;d2 -->
<g id="edge8" class="edge">
<title>cat2&#45;&gt;d2</title>
<path fill="none" stroke="#4a5568" stroke-width="1.5" d="M223.75,-889.81C223.75,-937.62 223.75,-1060 223.75,-1060 223.75,-1060 339.71,-1060 339.71,-1060"/>
<polygon fill="#4a5568" stroke="#4a5568" stroke-width="1.5" points="339.71,-1062.8 347.71,-1060 339.71,-1057.2 339.71,-1062.8"/>
</g>
<!-- d3 -->
<g id="node11" class="node">
<title>d3</title>
<path fill="#fffaf0" stroke="#dd6b20" stroke-width="1.5" d="M436.38,-1024C436.38,-1024 347.62,-1024 347.62,-1024 341.62,-1024 335.62,-1018 335.62,-1012 335.62,-1012 335.62,-1000 335.62,-1000 335.62,-994 341.62,-988 347.62,-988 347.62,-988 436.38,-988 436.38,-988 442.38,-988 448.38,-994 448.38,-1000 448.38,-1000 448.38,-1012 448.38,-1012 448.38,-1018 442.38,-1024 436.38,-1024"/>
<text xml:space="preserve" text-anchor="middle" x="392" y="-1002.7" font-family="Arial" font-size="9.00">Type and Contract Debt</text>
</g>
<!-- cat2&#45;&gt;d3 -->
<g id="edge9" class="edge">
<title>cat2&#45;&gt;d3</title>
<path fill="none" stroke="#4a5568" stroke-width="1.5" d="M237.75,-889.77C237.75,-926.87 237.75,-1006 237.75,-1006 237.75,-1006 324.73,-1006 324.73,-1006"/>
<polygon fill="#4a5568" stroke="#4a5568" stroke-width="1.5" points="324.73,-1008.8 332.73,-1006 324.73,-1003.2 324.73,-1008.8"/>
</g>
<!-- d4 -->
<g id="node12" class="node">
<title>d4</title>
<path fill="#fffaf0" stroke="#dd6b20" stroke-width="1.5" d="M407.12,-970C407.12,-970 376.88,-970 376.88,-970 370.88,-970 364.88,-964 364.88,-958 364.88,-958 364.88,-946 364.88,-946 364.88,-940 370.88,-934 376.88,-934 376.88,-934 407.12,-934 407.12,-934 413.12,-934 419.12,-940 419.12,-946 419.12,-946 419.12,-958 419.12,-958 419.12,-964 413.12,-970 407.12,-970"/>
<text xml:space="preserve" text-anchor="middle" x="392" y="-948.7" font-family="Arial" font-size="9.00">Test Debt</text>
</g>
<!-- cat2&#45;&gt;d4 -->
<g id="edge10" class="edge">
<title>cat2&#45;&gt;d4</title>
<path fill="none" stroke="#4a5568" stroke-width="1.5" d="M251.75,-889.79C251.75,-913.71 251.75,-952 251.75,-952 251.75,-952 354.02,-952 354.02,-952"/>
<polygon fill="#4a5568" stroke="#4a5568" stroke-width="1.5" points="354.02,-954.8 362.02,-952 354.02,-949.2 354.02,-954.8"/>
</g>
<!-- d5 -->
<g id="node13" class="node">
<title>d5</title>
<path fill="#fffaf0" stroke="#dd6b20" stroke-width="1.5" d="M448.75,-916C448.75,-916 335.25,-916 335.25,-916 329.25,-916 323.25,-910 323.25,-904 323.25,-904 323.25,-892 323.25,-892 323.25,-886 329.25,-880 335.25,-880 335.25,-880 448.75,-880 448.75,-880 454.75,-880 460.75,-886 460.75,-892 460.75,-892 460.75,-904 460.75,-904 460.75,-910 454.75,-916 448.75,-916"/>
<text xml:space="preserve" text-anchor="middle" x="392" y="-894.7" font-family="Arial" font-size="9.00">Dependency and Config Debt</text>
</g>
<!-- cat2&#45;&gt;d5 -->
<g id="edge11" class="edge">
<title>cat2&#45;&gt;d5</title>
<path fill="none" stroke="#4a5568" stroke-width="1.5" d="M280.22,-884.62C280.22,-884.62 312.3,-884.62 312.3,-884.62"/>
<polygon fill="#4a5568" stroke="#4a5568" stroke-width="1.5" points="312.3,-887.43 320.3,-884.63 312.3,-881.83 312.3,-887.43"/>
</g>
<!-- d6 -->
<g id="node14" class="node">
<title>d6</title>
<path fill="#fffaf0" stroke="#dd6b20" stroke-width="1.5" d="M432.62,-862C432.62,-862 351.38,-862 351.38,-862 345.38,-862 339.38,-856 339.38,-850 339.38,-850 339.38,-838 339.38,-838 339.38,-832 345.38,-826 351.38,-826 351.38,-826 432.62,-826 432.62,-826 438.62,-826 444.62,-832 444.62,-838 444.62,-838 444.62,-850 444.62,-850 444.62,-856 438.62,-862 432.62,-862"/>
<text xml:space="preserve" text-anchor="middle" x="392" y="-840.7" font-family="Arial" font-size="9.00">Performance Hygiene</text>
</g>
<!-- cat2&#45;&gt;d6 -->
<g id="edge12" class="edge">
<title>cat2&#45;&gt;d6</title>
<path fill="none" stroke="#4a5568" stroke-width="1.5" d="M280.22,-857.38C280.22,-857.38 328.53,-857.38 328.53,-857.38"/>
<polygon fill="#4a5568" stroke="#4a5568" stroke-width="1.5" points="328.53,-860.18 336.53,-857.38 328.53,-854.58 328.53,-860.18"/>
</g>
<!-- d7 -->
<g id="node15" class="node">
<title>d7</title>
<path fill="#fffaf0" stroke="#dd6b20" stroke-width="1.5" d="M418,-808C418,-808 366,-808 366,-808 360,-808 354,-802 354,-796 354,-796 354,-784 354,-784 354,-778 360,-772 366,-772 366,-772 418,-772 418,-772 424,-772 430,-778 430,-784 430,-784 430,-796 430,-796 430,-802 424,-808 418,-808"/>
<text xml:space="preserve" text-anchor="middle" x="392" y="-786.7" font-family="Arial" font-size="9.00">Error Handling</text>
</g>
<!-- cat2&#45;&gt;d7 -->
<g id="edge13" class="edge">
<title>cat2&#45;&gt;d7</title>
<path fill="none" stroke="#4a5568" stroke-width="1.5" d="M261.75,-852.21C261.75,-828.29 261.75,-790 261.75,-790 261.75,-790 343,-790 343,-790"/>
<polygon fill="#4a5568" stroke="#4a5568" stroke-width="1.5" points="343,-792.8 351,-790 343,-787.2 343,-792.8"/>
</g>
<!-- d8 -->
<g id="node16" class="node">
<title>d8</title>
<path fill="#fffaf0" stroke="#dd6b20" stroke-width="1.5" d="M422.88,-754C422.88,-754 361.12,-754 361.12,-754 355.12,-754 349.12,-748 349.12,-742 349.12,-742 349.12,-730 349.12,-730 349.12,-724 355.12,-718 361.12,-718 361.12,-718 422.88,-718 422.88,-718 428.88,-718 434.88,-724 434.88,-730 434.88,-730 434.88,-742 434.88,-742 434.88,-748 428.88,-754 422.88,-754"/>
<text xml:space="preserve" text-anchor="middle" x="392" y="-732.7" font-family="Arial" font-size="9.00">Security Hygiene</text>
</g>
<!-- cat2&#45;&gt;d8 -->
<g id="edge14" class="edge">
<title>cat2&#45;&gt;d8</title>
<path fill="none" stroke="#4a5568" stroke-width="1.5" d="M245.75,-852.23C245.75,-815.13 245.75,-736 245.75,-736 245.75,-736 338.25,-736 338.25,-736"/>
<polygon fill="#4a5568" stroke="#4a5568" stroke-width="1.5" points="338.25,-738.8 346.25,-736 338.25,-733.2 338.25,-738.8"/>
</g>
<!-- d9 -->
<g id="node17" class="node">
<title>d9</title>
<path fill="#fffaf0" stroke="#dd6b20" stroke-width="1.5" d="M428.5,-700C428.5,-700 355.5,-700 355.5,-700 349.5,-700 343.5,-694 343.5,-688 343.5,-688 343.5,-676 343.5,-676 343.5,-670 349.5,-664 355.5,-664 355.5,-664 428.5,-664 428.5,-664 434.5,-664 440.5,-670 440.5,-676 440.5,-676 440.5,-688 440.5,-688 440.5,-694 434.5,-700 428.5,-700"/>
<text xml:space="preserve" text-anchor="middle" x="392" y="-678.7" font-family="Arial" font-size="9.00">Documentation Drift</text>
</g>
<!-- cat2&#45;&gt;d9 -->
<g id="edge15" class="edge">
<title>cat2&#45;&gt;d9</title>
<path fill="none" stroke="#4a5568" stroke-width="1.5" d="M229.75,-852.19C229.75,-804.38 229.75,-682 229.75,-682 229.75,-682 332.61,-682 332.61,-682"/>
<polygon fill="#4a5568" stroke="#4a5568" stroke-width="1.5" points="332.61,-684.8 340.61,-682 332.61,-679.2 332.61,-684.8"/>
</g>
<!-- ts -->
<g id="node19" class="node">
<title>ts</title>
<path fill="#fff5f5" stroke="#e53e3e" stroke-width="1.5" d="M424.38,-645.75C424.38,-645.75 359.62,-645.75 359.62,-645.75 353.62,-645.75 347.62,-639.75 347.62,-633.75 347.62,-633.75 347.62,-618.25 347.62,-618.25 347.62,-612.25 353.62,-606.25 359.62,-606.25 359.62,-606.25 424.38,-606.25 424.38,-606.25 430.38,-606.25 436.38,-612.25 436.38,-618.25 436.38,-618.25 436.38,-633.75 436.38,-633.75 436.38,-639.75 430.38,-645.75 424.38,-645.75"/>
<text xml:space="preserve" text-anchor="middle" x="392" y="-633.2" font-family="Arial" font-size="9.00">TS/JS</text>
<text xml:space="preserve" text-anchor="middle" x="392" y="-622.7" font-family="Arial" font-size="9.00">npm audit, knip</text>
<text xml:space="preserve" text-anchor="middle" x="392" y="-612.2" font-family="Arial" font-size="9.00">madge, depcheck</text>
</g>
<!-- cat3&#45;&gt;ts -->
<g id="edge18" class="edge">
<title>cat3&#45;&gt;ts</title>
<path fill="none" stroke="#4a5568" stroke-width="1.5" d="M277.57,-554.25C310.82,-554.25 352.75,-554.25 352.75,-554.25 352.75,-554.25 352.75,-595.36 352.75,-595.36"/>
<polygon fill="#4a5568" stroke="#4a5568" stroke-width="1.5" points="349.95,-595.36 352.75,-603.36 355.55,-595.36 349.95,-595.36"/>
</g>
<!-- py -->
<g id="node20" class="node">
<title>py</title>
<path fill="#fff5f5" stroke="#e53e3e" stroke-width="1.5" d="M415,-587.75C415,-587.75 369,-587.75 369,-587.75 363,-587.75 357,-581.75 357,-575.75 357,-575.75 357,-560.25 357,-560.25 357,-554.25 363,-548.25 369,-548.25 369,-548.25 415,-548.25 415,-548.25 421,-548.25 427,-554.25 427,-560.25 427,-560.25 427,-575.75 427,-575.75 427,-581.75 421,-587.75 415,-587.75"/>
<text xml:space="preserve" text-anchor="middle" x="392" y="-575.2" font-family="Arial" font-size="9.00">Python</text>
<text xml:space="preserve" text-anchor="middle" x="392" y="-564.7" font-family="Arial" font-size="9.00">pip&#45;audit, ruff</text>
<text xml:space="preserve" text-anchor="middle" x="392" y="-554.2" font-family="Arial" font-size="9.00">vulture, mypy</text>
</g>
<!-- cat3&#45;&gt;py -->
<g id="edge19" class="edge">
<title>cat3&#45;&gt;py</title>
<path fill="none" stroke="#4a5568" stroke-width="1.5" d="M277.78,-551.25C277.78,-551.25 345.99,-551.25 345.99,-551.25"/>
<polygon fill="#4a5568" stroke="#4a5568" stroke-width="1.5" points="345.99,-554.05 353.99,-551.25 345.99,-548.45 345.99,-554.05"/>
</g>
<!-- rs -->
<g id="node21" class="node">
<title>rs</title>
<path fill="#fff5f5" stroke="#e53e3e" stroke-width="1.5" d="M414.62,-529.75C414.62,-529.75 369.38,-529.75 369.38,-529.75 363.38,-529.75 357.38,-523.75 357.38,-517.75 357.38,-517.75 357.38,-502.25 357.38,-502.25 357.38,-496.25 363.38,-490.25 369.38,-490.25 369.38,-490.25 414.62,-490.25 414.62,-490.25 420.62,-490.25 426.62,-496.25 426.62,-502.25 426.62,-502.25 426.62,-517.75 426.62,-517.75 426.62,-523.75 420.62,-529.75 414.62,-529.75"/>
<text xml:space="preserve" text-anchor="middle" x="392" y="-517.2" font-family="Arial" font-size="9.00">Rust</text>
<text xml:space="preserve" text-anchor="middle" x="392" y="-506.7" font-family="Arial" font-size="9.00">cargo audit</text>
<text xml:space="preserve" text-anchor="middle" x="392" y="-496.2" font-family="Arial" font-size="9.00">clippy, udeps</text>
</g>
<!-- cat3&#45;&gt;rs -->
<g id="edge20" class="edge">
<title>cat3&#45;&gt;rs</title>
<path fill="none" stroke="#4a5568" stroke-width="1.5" d="M277.78,-525.25C277.78,-525.25 346.5,-525.25 346.5,-525.25"/>
<polygon fill="#4a5568" stroke="#4a5568" stroke-width="1.5" points="346.5,-528.05 354.5,-525.25 346.5,-522.45 346.5,-528.05"/>
</g>
<!-- go -->
<g id="node22" class="node">
<title>go</title>
<path fill="#fff5f5" stroke="#e53e3e" stroke-width="1.5" d="M413.88,-471.75C413.88,-471.75 370.12,-471.75 370.12,-471.75 364.12,-471.75 358.12,-465.75 358.12,-459.75 358.12,-459.75 358.12,-444.25 358.12,-444.25 358.12,-438.25 364.12,-432.25 370.12,-432.25 370.12,-432.25 413.88,-432.25 413.88,-432.25 419.88,-432.25 425.88,-438.25 425.88,-444.25 425.88,-444.25 425.88,-459.75 425.88,-459.75 425.88,-465.75 419.88,-471.75 413.88,-471.75"/>
<text xml:space="preserve" text-anchor="middle" x="392" y="-459.2" font-family="Arial" font-size="9.00">Go</text>
<text xml:space="preserve" text-anchor="middle" x="392" y="-448.7" font-family="Arial" font-size="9.00">govulncheck</text>
<text xml:space="preserve" text-anchor="middle" x="392" y="-438.2" font-family="Arial" font-size="9.00">staticcheck</text>
</g>
<!-- cat3&#45;&gt;go -->
<g id="edge21" class="edge">
<title>cat3&#45;&gt;go</title>
<path fill="none" stroke="#4a5568" stroke-width="1.5" d="M237.75,-520.12C237.75,-494.53 237.75,-452 237.75,-452 237.75,-452 347.11,-452 347.11,-452"/>
<polygon fill="#4a5568" stroke="#4a5568" stroke-width="1.5" points="347.11,-454.8 355.11,-452 347.11,-449.2 347.11,-454.8"/>
</g>
<!-- s1 -->
<g id="node24" class="node">
<title>s1</title>
<path fill="#faf5ff" stroke="#805ad5" stroke-width="1.5" d="M429.62,-414C429.62,-414 354.38,-414 354.38,-414 348.38,-414 342.38,-408 342.38,-402 342.38,-402 342.38,-390 342.38,-390 342.38,-384 348.38,-378 354.38,-378 354.38,-378 429.62,-378 429.62,-378 435.62,-378 441.62,-384 441.62,-390 441.62,-390 441.62,-402 441.62,-402 441.62,-408 435.62,-414 429.62,-414"/>
<text xml:space="preserve" text-anchor="middle" x="392" y="-398.5" font-family="Arial" font-size="10.00">Subagent Dispatch</text>
<text xml:space="preserve" text-anchor="middle" x="392" y="-386.5" font-family="Arial" font-size="10.00">(&gt;50k LOC)</text>
</g>
<!-- cat4&#45;&gt;s1 -->
<g id="edge23" class="edge">
<title>cat4&#45;&gt;s1</title>
<path fill="none" stroke="#4a5568" stroke-width="1.5" d="M257.75,-360.89C257.75,-376.46 257.75,-396 257.75,-396 257.75,-396 331.36,-396 331.36,-396"/>
<polygon fill="#4a5568" stroke="#4a5568" stroke-width="1.5" points="331.36,-398.8 339.36,-396 331.36,-393.2 331.36,-398.8"/>
</g>
<!-- s2 -->
<g id="node25" class="node">
<title>s2</title>
<path fill="#faf5ff" stroke="#805ad5" stroke-width="1.5" d="M440.12,-360C440.12,-360 343.88,-360 343.88,-360 337.88,-360 331.88,-354 331.88,-348 331.88,-348 331.88,-336 331.88,-336 331.88,-330 337.88,-324 343.88,-324 343.88,-324 440.12,-324 440.12,-324 446.12,-324 452.12,-330 452.12,-336 452.12,-336 452.12,-348 452.12,-348 452.12,-354 446.12,-360 440.12,-360"/>
<text xml:space="preserve" text-anchor="middle" x="392" y="-344.5" font-family="Arial" font-size="10.00">Repeat&#45;Run Mode</text>
<text xml:space="preserve" text-anchor="middle" x="392" y="-332.5" font-family="Arial" font-size="10.00">RESOLVED/NEW Tags</text>
</g>
<!-- cat4&#45;&gt;s2 -->
<g id="edge24" class="edge">
<title>cat4&#45;&gt;s2</title>
<path fill="none" stroke="#4a5568" stroke-width="1.5" d="M287.75,-342C287.75,-342 321.08,-342 321.08,-342"/>
<polygon fill="#4a5568" stroke="#4a5568" stroke-width="1.5" points="321.08,-344.8 329.08,-342 321.08,-339.2 321.08,-344.8"/>
</g>
<!-- s3 -->
<g id="node26" class="node">
<title>s3</title>
<path fill="#faf5ff" stroke="#805ad5" stroke-width="1.5" d="M443.88,-306C443.88,-306 340.12,-306 340.12,-306 334.12,-306 328.12,-300 328.12,-294 328.12,-294 328.12,-282 328.12,-282 328.12,-276 334.12,-270 340.12,-270 340.12,-270 443.88,-270 443.88,-270 449.88,-270 455.88,-276 455.88,-282 455.88,-282 455.88,-294 455.88,-294 455.88,-300 449.88,-306 443.88,-306"/>
<text xml:space="preserve" text-anchor="middle" x="392" y="-290.5" font-family="Arial" font-size="10.00">Persistent Artifact</text>
<text xml:space="preserve" text-anchor="middle" x="392" y="-278.5" font-family="Arial" font-size="10.00">TECH_DEBT_AUDIT.md</text>
</g>
<!-- cat4&#45;&gt;s3 -->
<g id="edge25" class="edge">
<title>cat4&#45;&gt;s3</title>
<path fill="none" stroke="#4a5568" stroke-width="1.5" d="M261.75,-323.11C261.75,-307.54 261.75,-288 261.75,-288 261.75,-288 317.37,-288 317.37,-288"/>
<polygon fill="#4a5568" stroke="#4a5568" stroke-width="1.5" points="317.37,-290.8 325.37,-288 317.37,-285.2 317.37,-290.8"/>
</g>
<!-- s4 -->
<g id="node27" class="node">
<title>s4</title>
<path fill="#faf5ff" stroke="#805ad5" stroke-width="1.5" d="M434.88,-252C434.88,-252 349.12,-252 349.12,-252 343.12,-252 337.12,-246 337.12,-240 337.12,-240 337.12,-228 337.12,-228 337.12,-222 343.12,-216 349.12,-216 349.12,-216 434.88,-216 434.88,-216 440.88,-216 446.88,-222 446.88,-228 446.88,-228 446.88,-240 446.88,-240 446.88,-246 440.88,-252 434.88,-252"/>
<text xml:space="preserve" text-anchor="middle" x="392" y="-236.5" font-family="Arial" font-size="10.00">Subtree Scoping</text>
<text xml:space="preserve" text-anchor="middle" x="392" y="-224.5" font-family="Arial" font-size="10.00">/tech&#45;debt&#45;audit src/X</text>
</g>
<!-- cat4&#45;&gt;s4 -->
<g id="edge26" class="edge">
<title>cat4&#45;&gt;s4</title>
<path fill="none" stroke="#4a5568" stroke-width="1.5" d="M212.75,-323.19C212.75,-292.25 212.75,-234 212.75,-234 212.75,-234 326.49,-234 326.49,-234"/>
<polygon fill="#4a5568" stroke="#4a5568" stroke-width="1.5" points="326.49,-236.8 334.49,-234 326.49,-231.2 326.49,-236.8"/>
</g>
<!-- c1 -->
<g id="node29" class="node">
<title>c1</title>
<path fill="#fefcbf" stroke="#d69e2e" stroke-width="1.5" d="M415,-198C415,-198 369,-198 369,-198 363,-198 357,-192 357,-186 357,-186 357,-174 357,-174 357,-168 363,-162 369,-162 369,-162 415,-162 415,-162 421,-162 427,-168 427,-174 427,-174 427,-186 427,-186 427,-192 421,-198 415,-198"/>
<text xml:space="preserve" text-anchor="middle" x="392" y="-182.5" font-family="Arial" font-size="10.00">Add Domain</text>
<text xml:space="preserve" text-anchor="middle" x="392" y="-170.5" font-family="Arial" font-size="10.00">Dimensions</text>
</g>
<!-- cat5&#45;&gt;c1 -->
<g id="edge28" class="edge">
<title>cat5&#45;&gt;c1</title>
<path fill="none" stroke="#4a5568" stroke-width="1.5" d="M237.75,-144.58C237.75,-160.2 237.75,-180 237.75,-180 237.75,-180 346.34,-180 346.34,-180"/>
<polygon fill="#4a5568" stroke="#4a5568" stroke-width="1.5" points="346.34,-182.8 354.34,-180 346.34,-177.2 346.34,-182.8"/>
</g>
<!-- c2 -->
<g id="node30" class="node">
<title>c2</title>
<path fill="#fefcbf" stroke="#d69e2e" stroke-width="1.5" d="M418.38,-144C418.38,-144 365.62,-144 365.62,-144 359.62,-144 353.62,-138 353.62,-132 353.62,-132 353.62,-120 353.62,-120 353.62,-114 359.62,-108 365.62,-108 365.62,-108 418.38,-108 418.38,-108 424.38,-108 430.38,-114 430.38,-120 430.38,-120 430.38,-132 430.38,-132 430.38,-138 424.38,-144 418.38,-144"/>
<text xml:space="preserve" text-anchor="middle" x="392" y="-128.5" font-family="Arial" font-size="10.00">Tune Severity</text>
<text xml:space="preserve" text-anchor="middle" x="392" y="-116.5" font-family="Arial" font-size="10.00">Thresholds</text>
</g>
<!-- cat5&#45;&gt;c2 -->
<g id="edge29" class="edge">
<title>cat5&#45;&gt;c2</title>
<path fill="none" stroke="#4a5568" stroke-width="1.5" d="M287.32,-126C287.32,-126 342.9,-126 342.9,-126"/>
<polygon fill="#4a5568" stroke="#4a5568" stroke-width="1.5" points="342.9,-128.8 350.9,-126 342.9,-123.2 342.9,-128.8"/>
</g>
<!-- c3 -->
<g id="node31" class="node">
<title>c3</title>
<path fill="#fefcbf" stroke="#d69e2e" stroke-width="1.5" d="M412.38,-90C412.38,-90 371.62,-90 371.62,-90 365.62,-90 359.62,-84 359.62,-78 359.62,-78 359.62,-66 359.62,-66 359.62,-60 365.62,-54 371.62,-54 371.62,-54 412.38,-54 412.38,-54 418.38,-54 424.38,-60 424.38,-66 424.38,-66 424.38,-78 424.38,-78 424.38,-84 418.38,-90 412.38,-90"/>
<text xml:space="preserve" text-anchor="middle" x="392" y="-74.5" font-family="Arial" font-size="10.00">Per&#45;Project</text>
<text xml:space="preserve" text-anchor="middle" x="392" y="-62.5" font-family="Arial" font-size="10.00">Overrides</text>
</g>
<!-- cat5&#45;&gt;c3 -->
<g id="edge30" class="edge">
<title>cat5&#45;&gt;c3</title>
<path fill="none" stroke="#4a5568" stroke-width="1.5" d="M253.75,-107.42C253.75,-91.8 253.75,-72 253.75,-72 253.75,-72 348.62,-72 348.62,-72"/>
<polygon fill="#4a5568" stroke="#4a5568" stroke-width="1.5" points="348.62,-74.8 356.62,-72 348.62,-69.2 348.62,-74.8"/>
</g>
<!-- c4 -->
<g id="node32" class="node">
<title>c4</title>
<path fill="#fefcbf" stroke="#d69e2e" stroke-width="1.5" d="M422.5,-36C422.5,-36 361.5,-36 361.5,-36 355.5,-36 349.5,-30 349.5,-24 349.5,-24 349.5,-12 349.5,-12 349.5,-6 355.5,0 361.5,0 361.5,0 422.5,0 422.5,0 428.5,0 434.5,-6 434.5,-12 434.5,-12 434.5,-24 434.5,-24 434.5,-30 428.5,-36 422.5,-36"/>
<text xml:space="preserve" text-anchor="middle" x="392" y="-20.5" font-family="Arial" font-size="10.00">Split Supporting</text>
<text xml:space="preserve" text-anchor="middle" x="392" y="-8.5" font-family="Arial" font-size="10.00">Files</text>
</g>
<!-- cat5&#45;&gt;c4 -->
<g id="edge31" class="edge">
<title>cat5&#45;&gt;c4</title>
<path fill="none" stroke="#4a5568" stroke-width="1.5" d="M220.75,-107.68C220.75,-76.87 220.75,-18 220.75,-18 220.75,-18 338.52,-18 338.52,-18"/>
<polygon fill="#4a5568" stroke="#4a5568" stroke-width="1.5" points="338.52,-20.8 346.52,-18 338.52,-15.2 338.52,-20.8"/>
</g>
</g>
</svg>
