<?xml version="1.0" encoding="UTF-8" standalone="no"?>
<!DOCTYPE svg PUBLIC "-//W3C//DTD SVG 1.1//EN"
 "http://www.w3.org/Graphics/SVG/1.1/DTD/svg11.dtd">
<!-- Generated by graphviz version 14.1.2 (0)
 -->
<!-- Title: agt_privilege_rings Pages: 1 -->
<svg width="688pt" height="593pt"
 viewBox="0.00 0.00 688.00 593.00" xmlns="http://www.w3.org/2000/svg" xmlns:xlink="http://www.w3.org/1999/xlink">
<g id="graph0" class="graph" transform="scale(1 1) rotate(0) translate(4 589)">
<title>agt_privilege_rings</title>
<text xml:space="preserve" text-anchor="middle" x="340" y="-7.2" font-family="Times New Roman,serif" font-size="14.00">AGT &#45; Four Privilege Rings</text>
<g id="clust1" class="cluster">
<title>cluster_r3</title>
<polygon fill="none" stroke="black" points="8,-464.5 8,-577 672,-577 672,-464.5 8,-464.5"/>
<text xml:space="preserve" text-anchor="middle" x="340" y="-559.7" font-family="Times New Roman,serif" font-size="14.00">AGT &#45; Four Privilege Rings</text>
</g>
<g id="clust2" class="cluster">
<title>cluster_r2</title>
<polygon fill="none" stroke="black" points="80,-320.5 80,-433 600,-433 600,-320.5 80,-320.5"/>
<text xml:space="preserve" text-anchor="middle" x="340" y="-415.7" font-family="Times New Roman,serif" font-size="14.00">AGT &#45; Four Privilege Rings</text>
</g>
<g id="clust3" class="cluster">
<title>cluster_r1</title>
<polygon fill="none" stroke="black" points="152,-176.5 152,-289 528,-289 528,-176.5 152,-176.5"/>
<text xml:space="preserve" text-anchor="middle" x="340" y="-271.7" font-family="Times New Roman,serif" font-size="14.00">AGT &#45; Four Privilege Rings</text>
</g>
<g id="clust4" class="cluster">
<title>cluster_r0</title>
<polygon fill="none" stroke="black" points="224,-32.5 224,-145 456,-145 456,-32.5 224,-32.5"/>
<text xml:space="preserve" text-anchor="middle" x="340" y="-127.7" font-family="Times New Roman,serif" font-size="14.00">AGT &#45; Four Privilege Rings</text>
</g>
<!-- ring0 -->
<g id="node1" class="node">
<title>ring0</title>
<polygon fill="#b71c1c" stroke="#b71c1c" stroke-width="3" points="448,-112.5 232,-112.5 232,-40.5 448,-40.5 448,-112.5"/>
<text xml:space="preserve" text-anchor="middle" x="340" y="-79.35" font-family="Arial Bold" font-size="12.00" fill="white">Ring 0 &#45; Kernel Governance</text>
<text xml:space="preserve" text-anchor="middle" x="340" y="-65.1" font-family="Arial Bold" font-size="12.00" fill="white">Policy Engine, Capability Model</text>
</g>
<!-- ring1 -->
<g id="node2" class="node">
<title>ring1</title>
<polygon fill="#e65100" stroke="#e65100" stroke-width="3" points="520,-256.5 160,-256.5 160,-184.5 520,-184.5 520,-256.5"/>
<text xml:space="preserve" text-anchor="middle" x="340" y="-223.55" font-family="Arial Bold" font-size="11.00" fill="white">Ring 1 &#45; Trusted Tools</text>
<text xml:space="preserve" text-anchor="middle" x="340" y="-210.05" font-family="Arial Bold" font-size="11.00" fill="white">Signed Plugins, Verified Integrations</text>
</g>
<!-- ring1&#45;&gt;ring0 -->
<g id="edge3" class="edge">
<title>ring1&#45;&gt;ring0</title>
<path fill="none" stroke="#e65100" stroke-width="2" d="M340,-183.04C340,-183.04 340,-126.8 340,-126.8"/>
<polygon fill="#e65100" stroke="#e65100" stroke-width="2" points="343.5,-126.8 340,-116.8 336.5,-126.8 343.5,-126.8"/>
<text xml:space="preserve" text-anchor="middle" x="317.5" y="-158.12" font-family="Times New Roman,serif" font-size="14.00">contains</text>
</g>
<!-- ring2 -->
<g id="node3" class="node">
<title>ring2</title>
<polygon fill="#1565c0" stroke="#1565c0" stroke-width="3" points="592,-400.5 88,-400.5 88,-328.5 592,-328.5 592,-400.5"/>
<text xml:space="preserve" text-anchor="middle" x="340" y="-367.55" font-family="Arial Bold" font-size="11.00" fill="white">Ring 2 &#45; Sandboxed Execution</text>
<text xml:space="preserve" text-anchor="middle" x="340" y="-354.05" font-family="Arial Bold" font-size="11.00" fill="white">Resource Limits, Isolation Boundaries</text>
</g>
<!-- ring2&#45;&gt;ring1 -->
<g id="edge2" class="edge">
<title>ring2&#45;&gt;ring1</title>
<path fill="none" stroke="#1565c0" stroke-width="2" d="M340,-327.04C340,-327.04 340,-270.8 340,-270.8"/>
<polygon fill="#1565c0" stroke="#1565c0" stroke-width="2" points="343.5,-270.8 340,-260.8 336.5,-270.8 343.5,-270.8"/>
<text xml:space="preserve" text-anchor="middle" x="317.5" y="-302.12" font-family="Times New Roman,serif" font-size="14.00">contains</text>
</g>
<!-- ring3 -->
<g id="node4" class="node">
<title>ring3</title>
<polygon fill="#2e7d32" stroke="#2e7d32" stroke-width="3" points="664,-544.5 16,-544.5 16,-472.5 664,-472.5 664,-544.5"/>
<text xml:space="preserve" text-anchor="middle" x="340" y="-511.55" font-family="Arial Bold" font-size="11.00" fill="white">Ring 3 &#45; Untrusted Agents</text>
<text xml:space="preserve" text-anchor="middle" x="340" y="-498.05" font-family="Arial Bold" font-size="11.00" fill="white">External APIs, User Input</text>
</g>
<!-- ring3&#45;&gt;ring2 -->
<g id="edge1" class="edge">
<title>ring3&#45;&gt;ring2</title>
<path fill="none" stroke="#2e7d32" stroke-width="2" d="M340,-471.04C340,-471.04 340,-414.8 340,-414.8"/>
<polygon fill="#2e7d32" stroke="#2e7d32" stroke-width="2" points="343.5,-414.8 340,-404.8 336.5,-414.8 343.5,-414.8"/>
<text xml:space="preserve" text-anchor="middle" x="317.5" y="-446.12" font-family="Times New Roman,serif" font-size="14.00">contains</text>
</g>
</g>
</svg>
