<?xml version="1.0" encoding="UTF-8" standalone="no"?>
<!DOCTYPE svg PUBLIC "-//W3C//DTD SVG 1.1//EN"
 "http://www.w3.org/Graphics/SVG/1.1/DTD/svg11.dtd">
<!-- Generated by graphviz version 14.1.2 (0)
 -->
<!-- Title: ai_hedge_fund_pipeline Pages: 1 -->
<svg width="908pt" height="453pt"
 viewBox="0.00 0.00 908.00 453.00" xmlns="http://www.w3.org/2000/svg" xmlns:xlink="http://www.w3.org/1999/xlink">
<g id="graph0" class="graph" transform="scale(1 1) rotate(0) translate(4 449)">
<title>ai_hedge_fund_pipeline</title>
<polygon fill="white" stroke="none" points="-4,4 -4,-449 903.88,-449 903.88,4 -4,4"/>
<!-- data_input -->
<g id="node1" class="node">
<title>data_input</title>
<polygon fill="#4caf50" stroke="black" points="515.88,-445 394.12,-445 394.12,-396.5 515.88,-396.5 515.88,-445"/>
<text xml:space="preserve" text-anchor="middle" x="455" y="-430.55" font-family="Arial" font-size="11.00" fill="white">Market Data</text>
<text xml:space="preserve" text-anchor="middle" x="455" y="-417.05" font-family="Arial" font-size="11.00" fill="white">(Prices, Financials,</text>
<text xml:space="preserve" text-anchor="middle" x="455" y="-403.55" font-family="Arial" font-size="11.00" fill="white">News, Insider Trades)</text>
</g>
<!-- tech_analysis -->
<g id="node2" class="node">
<title>tech_analysis</title>
<path fill="#e8e8e8" stroke="black" d="M291.5,-346.5C291.5,-346.5 212.5,-346.5 212.5,-346.5 206.5,-346.5 200.5,-340.5 200.5,-334.5 200.5,-334.5 200.5,-322.5 200.5,-322.5 200.5,-316.5 206.5,-310.5 212.5,-310.5 212.5,-310.5 291.5,-310.5 291.5,-310.5 297.5,-310.5 303.5,-316.5 303.5,-322.5 303.5,-322.5 303.5,-334.5 303.5,-334.5 303.5,-340.5 297.5,-346.5 291.5,-346.5"/>
<text xml:space="preserve" text-anchor="middle" x="252" y="-325" font-family="Arial Bold" font-size="10.00" fill="#333333">Technical Analysis</text>
</g>
<!-- data_input&#45;&gt;tech_analysis -->
<g id="edge1" class="edge">
<title>data_input&#45;&gt;tech_analysis</title>
<path fill="none" stroke="#4caf50" stroke-width="2" d="M399.56,-396.16C399.56,-368.99 399.56,-329 399.56,-329 399.56,-329 316.64,-329 316.64,-329"/>
<polygon fill="#4caf50" stroke="#4caf50" stroke-width="2" points="316.64,-325.5 306.64,-329 316.64,-332.5 316.64,-325.5"/>
</g>
<!-- fund_analysis -->
<g id="node7" class="node">
<title>fund_analysis</title>
<path fill="#e8e8e8" stroke="black" d="M707.75,-346.5C707.75,-346.5 612.25,-346.5 612.25,-346.5 606.25,-346.5 600.25,-340.5 600.25,-334.5 600.25,-334.5 600.25,-322.5 600.25,-322.5 600.25,-316.5 606.25,-310.5 612.25,-310.5 612.25,-310.5 707.75,-310.5 707.75,-310.5 713.75,-310.5 719.75,-316.5 719.75,-322.5 719.75,-322.5 719.75,-334.5 719.75,-334.5 719.75,-340.5 713.75,-346.5 707.75,-346.5"/>
<text xml:space="preserve" text-anchor="middle" x="660" y="-325" font-family="Arial Bold" font-size="10.00" fill="#333333">Fundamental Analysis</text>
</g>
<!-- data_input&#45;&gt;fund_analysis -->
<g id="edge6" class="edge">
<title>data_input&#45;&gt;fund_analysis</title>
<path fill="none" stroke="#4caf50" stroke-width="2" d="M510.44,-396.16C510.44,-368.99 510.44,-329 510.44,-329 510.44,-329 587,-329 587,-329"/>
<polygon fill="#4caf50" stroke="#4caf50" stroke-width="2" points="587,-332.5 597,-329 587,-325.5 587,-332.5"/>
</g>
<!-- sentiment -->
<g id="node12" class="node">
<title>sentiment</title>
<path fill="#009688" stroke="black" d="M493,-346.5C493,-346.5 417,-346.5 417,-346.5 411,-346.5 405,-340.5 405,-334.5 405,-334.5 405,-322.5 405,-322.5 405,-316.5 411,-310.5 417,-310.5 417,-310.5 493,-310.5 493,-310.5 499,-310.5 505,-316.5 505,-322.5 505,-322.5 505,-334.5 505,-334.5 505,-340.5 499,-346.5 493,-346.5"/>
<text xml:space="preserve" text-anchor="middle" x="455" y="-331" font-family="Arial" font-size="10.00" fill="white">Sentiment Analysis</text>
<text xml:space="preserve" text-anchor="middle" x="455" y="-319" font-family="Arial" font-size="10.00" fill="white">(Market + News)</text>
</g>
<!-- data_input&#45;&gt;sentiment -->
<g id="edge11" class="edge">
<title>data_input&#45;&gt;sentiment</title>
<path fill="none" stroke="#4caf50" stroke-width="2" d="M455,-396.03C455,-396.03 455,-359.88 455,-359.88"/>
<polygon fill="#4caf50" stroke="#4caf50" stroke-width="2" points="458.5,-359.88 455,-349.88 451.5,-359.88 458.5,-359.88"/>
</g>
<!-- ema -->
<g id="node3" class="node">
<title>ema</title>
<path fill="#ff9800" stroke="black" d="M42,-234.5C42,-234.5 12,-234.5 12,-234.5 6,-234.5 0,-228.5 0,-222.5 0,-222.5 0,-210.5 0,-210.5 0,-204.5 6,-198.5 12,-198.5 12,-198.5 42,-198.5 42,-198.5 48,-198.5 54,-204.5 54,-210.5 54,-210.5 54,-222.5 54,-222.5 54,-228.5 48,-234.5 42,-234.5"/>
<text xml:space="preserve" text-anchor="middle" x="27" y="-219.55" font-family="Arial" font-size="11.00" fill="white">EMA</text>
<text xml:space="preserve" text-anchor="middle" x="27" y="-206.05" font-family="Arial" font-size="11.00" fill="white">Trend</text>
</g>
<!-- tech_analysis&#45;&gt;ema -->
<g id="edge2" class="edge">
<title>tech_analysis&#45;&gt;ema</title>
<path fill="none" stroke="#ff9800" stroke-width="1.5" d="M200.1,-335C133.65,-335 27,-335 27,-335 27,-335 27,-247.03 27,-247.03"/>
<polygon fill="#ff9800" stroke="#ff9800" stroke-width="1.5" points="30.5,-247.03 27,-237.03 23.5,-247.03 30.5,-247.03"/>
</g>
<!-- adx -->
<g id="node4" class="node">
<title>adx</title>
<path fill="#ff9800" stroke="black" d="M128.62,-234.5C128.62,-234.5 95.38,-234.5 95.38,-234.5 89.38,-234.5 83.38,-228.5 83.38,-222.5 83.38,-222.5 83.38,-210.5 83.38,-210.5 83.38,-204.5 89.38,-198.5 95.38,-198.5 95.38,-198.5 128.62,-198.5 128.62,-198.5 134.62,-198.5 140.62,-204.5 140.62,-210.5 140.62,-210.5 140.62,-222.5 140.62,-222.5 140.62,-228.5 134.62,-234.5 128.62,-234.5"/>
<text xml:space="preserve" text-anchor="middle" x="112" y="-219.55" font-family="Arial" font-size="11.00" fill="white">ADX</text>
<text xml:space="preserve" text-anchor="middle" x="112" y="-206.05" font-family="Arial" font-size="11.00" fill="white">Strength</text>
</g>
<!-- tech_analysis&#45;&gt;adx -->
<g id="edge3" class="edge">
<title>tech_analysis&#45;&gt;adx</title>
<path fill="none" stroke="#ff9800" stroke-width="1.5" d="M200.27,-323C160.39,-323 112,-323 112,-323 112,-323 112,-246.84 112,-246.84"/>
<polygon fill="#ff9800" stroke="#ff9800" stroke-width="1.5" points="115.5,-246.84 112,-236.84 108.5,-246.84 115.5,-246.84"/>
</g>
<!-- rsi -->
<g id="node5" class="node">
<title>rsi</title>
<path fill="#ff9800" stroke="black" d="M228,-234.5C228,-234.5 182,-234.5 182,-234.5 176,-234.5 170,-228.5 170,-222.5 170,-222.5 170,-210.5 170,-210.5 170,-204.5 176,-198.5 182,-198.5 182,-198.5 228,-198.5 228,-198.5 234,-198.5 240,-204.5 240,-210.5 240,-210.5 240,-222.5 240,-222.5 240,-228.5 234,-234.5 228,-234.5"/>
<text xml:space="preserve" text-anchor="middle" x="205" y="-219.55" font-family="Arial" font-size="11.00" fill="white">RSI</text>
<text xml:space="preserve" text-anchor="middle" x="205" y="-206.05" font-family="Arial" font-size="11.00" fill="white">Momentum</text>
</g>
<!-- tech_analysis&#45;&gt;rsi -->
<g id="edge4" class="edge">
<title>tech_analysis&#45;&gt;rsi</title>
<path fill="none" stroke="#ff9800" stroke-width="1.5" d="M220.25,-310.01C220.25,-310.01 220.25,-246.92 220.25,-246.92"/>
<polygon fill="#ff9800" stroke="#ff9800" stroke-width="1.5" points="223.75,-246.92 220.25,-236.92 216.75,-246.92 223.75,-246.92"/>
</g>
<!-- bollinger -->
<g id="node6" class="node">
<title>bollinger</title>
<path fill="#ff9800" stroke="black" d="M315,-234.5C315,-234.5 281,-234.5 281,-234.5 275,-234.5 269,-228.5 269,-222.5 269,-222.5 269,-210.5 269,-210.5 269,-204.5 275,-198.5 281,-198.5 281,-198.5 315,-198.5 315,-198.5 321,-198.5 327,-204.5 327,-210.5 327,-210.5 327,-222.5 327,-222.5 327,-228.5 321,-234.5 315,-234.5"/>
<text xml:space="preserve" text-anchor="middle" x="298" y="-219.55" font-family="Arial" font-size="11.00" fill="white">Bollinger</text>
<text xml:space="preserve" text-anchor="middle" x="298" y="-206.05" font-family="Arial" font-size="11.00" fill="white">Volatility</text>
</g>
<!-- tech_analysis&#45;&gt;bollinger -->
<g id="edge5" class="edge">
<title>tech_analysis&#45;&gt;bollinger</title>
<path fill="none" stroke="#ff9800" stroke-width="1.5" d="M280.5,-310.01C280.5,-310.01 280.5,-246.92 280.5,-246.92"/>
<polygon fill="#ff9800" stroke="#ff9800" stroke-width="1.5" points="284,-246.92 280.5,-236.92 277,-246.92 284,-246.92"/>
</g>
<!-- risk_mgmt -->
<g id="node13" class="node">
<title>risk_mgmt</title>
<polygon fill="#e91e63" stroke="black" points="455,-260.5 355.75,-216.5 455,-172.5 554.25,-216.5 455,-260.5"/>
<text xml:space="preserve" text-anchor="middle" x="455" y="-225" font-family="Arial Bold" font-size="10.00" fill="white">Risk Management</text>
<text xml:space="preserve" text-anchor="middle" x="455" y="-213" font-family="Arial Bold" font-size="10.00" fill="white">(Position Sizing,</text>
<text xml:space="preserve" text-anchor="middle" x="455" y="-201" font-family="Arial Bold" font-size="10.00" fill="white">Stop&#45;Loss)</text>
</g>
<!-- tech_analysis&#45;&gt;risk_mgmt -->
<g id="edge12" class="edge">
<title>tech_analysis&#45;&gt;risk_mgmt</title>
<path fill="none" stroke="#ff9800" stroke-width="1.5" d="M292,-310.23C292,-286.48 292,-248 292,-248 292,-248 413.59,-248 413.59,-248"/>
<polygon fill="#ff9800" stroke="#ff9800" stroke-width="1.5" points="413.59,-251.5 423.59,-248 413.59,-244.5 413.59,-251.5"/>
</g>
<!-- profit -->
<g id="node8" class="node">
<title>profit</title>
<path fill="#3f51b5" stroke="black" d="M636.38,-234.5C636.38,-234.5 595.62,-234.5 595.62,-234.5 589.62,-234.5 583.62,-228.5 583.62,-222.5 583.62,-222.5 583.62,-210.5 583.62,-210.5 583.62,-204.5 589.62,-198.5 595.62,-198.5 595.62,-198.5 636.38,-198.5 636.38,-198.5 642.38,-198.5 648.38,-204.5 648.38,-210.5 648.38,-210.5 648.38,-222.5 648.38,-222.5 648.38,-228.5 642.38,-234.5 636.38,-234.5"/>
<text xml:space="preserve" text-anchor="middle" x="616" y="-219" font-family="Arial" font-size="10.00" fill="white">Profitability</text>
<text xml:space="preserve" text-anchor="middle" x="616" y="-207" font-family="Arial" font-size="10.00" fill="white">Margins</text>
</g>
<!-- fund_analysis&#45;&gt;profit -->
<g id="edge7" class="edge">
<title>fund_analysis&#45;&gt;profit</title>
<path fill="none" stroke="#3f51b5" stroke-width="1.5" d="M632.33,-310.01C632.33,-310.01 632.33,-246.92 632.33,-246.92"/>
<polygon fill="#3f51b5" stroke="#3f51b5" stroke-width="1.5" points="635.83,-246.92 632.33,-236.92 628.83,-246.92 635.83,-246.92"/>
</g>
<!-- growth -->
<g id="node9" class="node">
<title>growth</title>
<path fill="#3f51b5" stroke="black" d="M719,-234.5C719,-234.5 689,-234.5 689,-234.5 683,-234.5 677,-228.5 677,-222.5 677,-222.5 677,-210.5 677,-210.5 677,-204.5 683,-198.5 689,-198.5 689,-198.5 719,-198.5 719,-198.5 725,-198.5 731,-204.5 731,-210.5 731,-210.5 731,-222.5 731,-222.5 731,-228.5 725,-234.5 719,-234.5"/>
<text xml:space="preserve" text-anchor="middle" x="704" y="-219" font-family="Arial" font-size="10.00" fill="white">Growth</text>
<text xml:space="preserve" text-anchor="middle" x="704" y="-207" font-family="Arial" font-size="10.00" fill="white">Rates</text>
</g>
<!-- fund_analysis&#45;&gt;growth -->
<g id="edge8" class="edge">
<title>fund_analysis&#45;&gt;growth</title>
<path fill="none" stroke="#3f51b5" stroke-width="1.5" d="M698.38,-310.01C698.38,-310.01 698.38,-246.92 698.38,-246.92"/>
<polygon fill="#3f51b5" stroke="#3f51b5" stroke-width="1.5" points="701.88,-246.92 698.38,-236.92 694.88,-246.92 701.88,-246.92"/>
</g>
<!-- health -->
<g id="node10" class="node">
<title>health</title>
<path fill="#3f51b5" stroke="black" d="M803.5,-234.5C803.5,-234.5 772.5,-234.5 772.5,-234.5 766.5,-234.5 760.5,-228.5 760.5,-222.5 760.5,-222.5 760.5,-210.5 760.5,-210.5 760.5,-204.5 766.5,-198.5 772.5,-198.5 772.5,-198.5 803.5,-198.5 803.5,-198.5 809.5,-198.5 815.5,-204.5 815.5,-210.5 815.5,-210.5 815.5,-222.5 815.5,-222.5 815.5,-228.5 809.5,-234.5 803.5,-234.5"/>
<text xml:space="preserve" text-anchor="middle" x="788" y="-219" font-family="Arial" font-size="10.00" fill="white">Financial</text>
<text xml:space="preserve" text-anchor="middle" x="788" y="-207" font-family="Arial" font-size="10.00" fill="white">Health</text>
</g>
<!-- fund_analysis&#45;&gt;health -->
<g id="edge9" class="edge">
<title>fund_analysis&#45;&gt;health</title>
<path fill="none" stroke="#3f51b5" stroke-width="1.5" d="M719.88,-323C753.19,-323 788,-323 788,-323 788,-323 788,-246.84 788,-246.84"/>
<polygon fill="#3f51b5" stroke="#3f51b5" stroke-width="1.5" points="791.5,-246.84 788,-236.84 784.5,-246.84 791.5,-246.84"/>
</g>
<!-- value -->
<g id="node11" class="node">
<title>value</title>
<path fill="#3f51b5" stroke="black" d="M887.88,-234.5C887.88,-234.5 856.12,-234.5 856.12,-234.5 850.12,-234.5 844.12,-228.5 844.12,-222.5 844.12,-222.5 844.12,-210.5 844.12,-210.5 844.12,-204.5 850.12,-198.5 856.12,-198.5 856.12,-198.5 887.88,-198.5 887.88,-198.5 893.88,-198.5 899.88,-204.5 899.88,-210.5 899.88,-210.5 899.88,-222.5 899.88,-222.5 899.88,-228.5 893.88,-234.5 887.88,-234.5"/>
<text xml:space="preserve" text-anchor="middle" x="872" y="-219" font-family="Arial" font-size="10.00" fill="white">Valuation</text>
<text xml:space="preserve" text-anchor="middle" x="872" y="-207" font-family="Arial" font-size="10.00" fill="white">Metrics</text>
</g>
<!-- fund_analysis&#45;&gt;value -->
<g id="edge10" class="edge">
<title>fund_analysis&#45;&gt;value</title>
<path fill="none" stroke="#3f51b5" stroke-width="1.5" d="M720.18,-335C782.86,-335 872,-335 872,-335 872,-335 872,-247.03 872,-247.03"/>
<polygon fill="#3f51b5" stroke="#3f51b5" stroke-width="1.5" points="875.5,-247.03 872,-237.03 868.5,-247.03 875.5,-247.03"/>
</g>
<!-- fund_analysis&#45;&gt;risk_mgmt -->
<g id="edge13" class="edge">
<title>fund_analysis&#45;&gt;risk_mgmt</title>
<path fill="none" stroke="#3f51b5" stroke-width="1.5" d="M616.29,-310.23C616.29,-286.48 616.29,-248 616.29,-248 616.29,-248 496.48,-248 496.48,-248"/>
<polygon fill="#3f51b5" stroke="#3f51b5" stroke-width="1.5" points="496.48,-244.5 486.48,-248 496.48,-251.5 496.48,-244.5"/>
</g>
<!-- sentiment&#45;&gt;risk_mgmt -->
<g id="edge14" class="edge">
<title>sentiment&#45;&gt;risk_mgmt</title>
<path fill="none" stroke="#009688" stroke-width="1.5" d="M455,-310.01C455,-310.01 455,-272.94 455,-272.94"/>
<polygon fill="#009688" stroke="#009688" stroke-width="1.5" points="458.5,-272.94 455,-262.94 451.5,-272.94 458.5,-272.94"/>
</g>
<!-- portfolio_decision -->
<g id="node14" class="node">
<title>portfolio_decision</title>
<path fill="#2196f3" stroke="black" d="M502,-122.5C502,-122.5 408,-122.5 408,-122.5 402,-122.5 396,-116.5 396,-110.5 396,-110.5 396,-98 396,-98 396,-92 402,-86 408,-86 408,-86 502,-86 502,-86 508,-86 514,-92 514,-98 514,-98 514,-110.5 514,-110.5 514,-116.5 508,-122.5 502,-122.5"/>
<text xml:space="preserve" text-anchor="middle" x="455" y="-107.1" font-family="Arial Bold" font-size="12.00" fill="white">Portfolio Decision</text>
<text xml:space="preserve" text-anchor="middle" x="455" y="-92.85" font-family="Arial Bold" font-size="12.00" fill="white">(Buy/Sell/Hold)</text>
</g>
<!-- risk_mgmt&#45;&gt;portfolio_decision -->
<g id="edge15" class="edge">
<title>risk_mgmt&#45;&gt;portfolio_decision</title>
<path fill="none" stroke="#e91e63" stroke-width="2" d="M455,-172.14C455,-172.14 455,-135.89 455,-135.89"/>
<polygon fill="#e91e63" stroke="#e91e63" stroke-width="2" points="458.5,-135.89 455,-125.89 451.5,-135.89 458.5,-135.89"/>
</g>
<!-- output -->
<g id="node15" class="node">
<title>output</title>
<polygon fill="#f44336" stroke="black" points="497.5,-36 412.5,-36 412.5,0 497.5,0 497.5,-36"/>
<text xml:space="preserve" text-anchor="middle" x="455" y="-21.05" font-family="Arial" font-size="11.00" fill="white">Trading Signal</text>
<text xml:space="preserve" text-anchor="middle" x="455" y="-7.55" font-family="Arial" font-size="11.00" fill="white">+ Reasoning</text>
</g>
<!-- portfolio_decision&#45;&gt;output -->
<g id="edge16" class="edge">
<title>portfolio_decision&#45;&gt;output</title>
<path fill="none" stroke="#f44336" stroke-width="2" d="M455,-85.54C455,-85.54 455,-49.41 455,-49.41"/>
<polygon fill="#f44336" stroke="#f44336" stroke-width="2" points="458.5,-49.41 455,-39.41 451.5,-49.41 458.5,-49.41"/>
</g>
</g>
</svg>
