<?xml version="1.0" encoding="UTF-8" standalone="no"?>
<!DOCTYPE svg PUBLIC "-//W3C//DTD SVG 1.1//EN"
 "http://www.w3.org/Graphics/SVG/1.1/DTD/svg11.dtd">
<!-- Generated by graphviz version 14.1.2 (0)
 -->
<!-- Title: package_structure Pages: 1 -->
<svg width="902pt" height="142pt"
 viewBox="0.00 0.00 902.00 142.00" xmlns="http://www.w3.org/2000/svg" xmlns:xlink="http://www.w3.org/1999/xlink">
<g id="graph0" class="graph" transform="scale(1 1) rotate(0) translate(4 138)">
<title>package_structure</title>
<polygon fill="white" stroke="none" points="-4,4 -4,-138 898.25,-138 898.25,4 -4,4"/>
<!-- paths -->
<g id="node1" class="node">
<title>paths</title>
<path fill="#2196f3" stroke="black" d="M83.5,-94C83.5,-94 12,-94 12,-94 6,-94 0,-88 0,-82 0,-82 0,-70 0,-70 0,-64 6,-58 12,-58 12,-58 83.5,-58 83.5,-58 89.5,-58 95.5,-64 95.5,-70 95.5,-70 95.5,-82 95.5,-82 95.5,-88 89.5,-94 83.5,-94"/>
<text xml:space="preserve" text-anchor="middle" x="47.75" y="-79.05" font-family="Arial Bold" font-size="11.00" fill="white">@archon/paths</text>
<text xml:space="preserve" text-anchor="middle" x="47.75" y="-65.55" font-family="Arial Bold" font-size="11.00" fill="white">(Zero deps)</text>
</g>
<!-- git -->
<g id="node2" class="node">
<title>git</title>
<path fill="#2196f3" stroke="black" d="M218.75,-94C218.75,-94 143.5,-94 143.5,-94 137.5,-94 131.5,-88 131.5,-82 131.5,-82 131.5,-70 131.5,-70 131.5,-64 137.5,-58 143.5,-58 143.5,-58 218.75,-58 218.75,-58 224.75,-58 230.75,-64 230.75,-70 230.75,-70 230.75,-82 230.75,-82 230.75,-88 224.75,-94 218.75,-94"/>
<text xml:space="preserve" text-anchor="middle" x="181.12" y="-79.05" font-family="Arial Bold" font-size="11.00" fill="white">@archon/git</text>
<text xml:space="preserve" text-anchor="middle" x="181.12" y="-65.55" font-family="Arial Bold" font-size="11.00" fill="white">(Git Operations)</text>
</g>
<!-- paths&#45;&gt;git -->
<g id="edge1" class="edge">
<title>paths&#45;&gt;git</title>
<path fill="none" stroke="#2196f3" stroke-width="2" d="M95.9,-76C95.9,-76 118.22,-76 118.22,-76"/>
<polygon fill="#2196f3" stroke="#2196f3" stroke-width="2" points="118.22,-79.5 128.22,-76 118.22,-72.5 118.22,-79.5"/>
</g>
<!-- isolation -->
<g id="node3" class="node">
<title>isolation</title>
<path fill="#2196f3" stroke="black" d="M374.25,-134C374.25,-134 278.75,-134 278.75,-134 272.75,-134 266.75,-128 266.75,-122 266.75,-122 266.75,-110 266.75,-110 266.75,-104 272.75,-98 278.75,-98 278.75,-98 374.25,-98 374.25,-98 380.25,-98 386.25,-104 386.25,-110 386.25,-110 386.25,-122 386.25,-122 386.25,-128 380.25,-134 374.25,-134"/>
<text xml:space="preserve" text-anchor="middle" x="326.5" y="-119.05" font-family="Arial Bold" font-size="11.00" fill="white">@archon/isolation</text>
<text xml:space="preserve" text-anchor="middle" x="326.5" y="-105.55" font-family="Arial Bold" font-size="11.00" fill="white">(Worktree Isolation)</text>
</g>
<!-- paths&#45;&gt;isolation -->
<g id="edge3" class="edge">
<title>paths&#45;&gt;isolation</title>
<path fill="none" stroke="#2196f3" stroke-width="1.5" stroke-dasharray="5,2" d="M47.25,-94.44C47.25,-107.24 47.25,-122 47.25,-122 47.25,-122 253.98,-122 253.98,-122"/>
<polygon fill="#2196f3" stroke="#2196f3" stroke-width="1.5" points="253.98,-125.5 263.98,-122 253.98,-118.5 253.98,-125.5"/>
</g>
<!-- workflows -->
<g id="node4" class="node">
<title>workflows</title>
<path fill="#2196f3" stroke="black" d="M374.25,-65C374.25,-65 278.75,-65 278.75,-65 272.75,-65 266.75,-59 266.75,-53 266.75,-53 266.75,-41 266.75,-41 266.75,-35 272.75,-29 278.75,-29 278.75,-29 374.25,-29 374.25,-29 380.25,-29 386.25,-35 386.25,-41 386.25,-41 386.25,-53 386.25,-53 386.25,-59 380.25,-65 374.25,-65"/>
<text xml:space="preserve" text-anchor="middle" x="326.5" y="-50.05" font-family="Arial Bold" font-size="11.00" fill="white">@archon/workflows</text>
<text xml:space="preserve" text-anchor="middle" x="326.5" y="-36.55" font-family="Arial Bold" font-size="11.00" fill="white">(DAG Engine)</text>
</g>
<!-- paths&#45;&gt;workflows -->
<g id="edge5" class="edge">
<title>paths&#45;&gt;workflows</title>
<path fill="none" stroke="#2196f3" stroke-width="1.5" stroke-dasharray="5,2" d="M47.25,-57.85C47.25,-50.41 47.25,-43.5 47.25,-43.5 47.25,-43.5 253.98,-43.5 253.98,-43.5"/>
<polygon fill="#2196f3" stroke="#2196f3" stroke-width="1.5" points="253.98,-47 263.98,-43.5 253.98,-40 253.98,-47"/>
</g>
<!-- git&#45;&gt;isolation -->
<g id="edge2" class="edge">
<title>git&#45;&gt;isolation</title>
<path fill="none" stroke="#2196f3" stroke-width="2" d="M181.25,-94.19C181.25,-102.28 181.25,-110 181.25,-110 181.25,-110 253.56,-110 253.56,-110"/>
<polygon fill="#2196f3" stroke="#2196f3" stroke-width="2" points="253.56,-113.5 263.56,-110 253.56,-106.5 253.56,-113.5"/>
</g>
<!-- git&#45;&gt;workflows -->
<g id="edge4" class="edge">
<title>git&#45;&gt;workflows</title>
<path fill="none" stroke="#2196f3" stroke-width="2" d="M231.15,-61.5C231.15,-61.5 253.32,-61.5 253.32,-61.5"/>
<polygon fill="#2196f3" stroke="#2196f3" stroke-width="2" points="253.32,-65 263.32,-61.5 253.32,-58 253.32,-65"/>
</g>
<!-- core -->
<g id="node5" class="node">
<title>core</title>
<path fill="#4caf50" stroke="black" d="M499,-65C499,-65 434.25,-65 434.25,-65 428.25,-65 422.25,-59 422.25,-53 422.25,-53 422.25,-41 422.25,-41 422.25,-35 428.25,-29 434.25,-29 434.25,-29 499,-29 499,-29 505,-29 511,-35 511,-41 511,-41 511,-53 511,-53 511,-59 505,-65 499,-65"/>
<text xml:space="preserve" text-anchor="middle" x="466.62" y="-49.5" font-family="Arial" font-size="10.00" fill="white">@archon/core</text>
<text xml:space="preserve" text-anchor="middle" x="466.62" y="-37.5" font-family="Arial" font-size="10.00" fill="white">(Business Logic)</text>
</g>
<!-- workflows&#45;&gt;core -->
<g id="edge6" class="edge">
<title>workflows&#45;&gt;core</title>
<path fill="none" stroke="#4caf50" stroke-width="2" d="M386.74,-47C386.74,-47 409.07,-47 409.07,-47"/>
<polygon fill="#4caf50" stroke="#4caf50" stroke-width="2" points="409.07,-50.5 419.07,-47 409.07,-43.5 409.07,-50.5"/>
</g>
<!-- adapters -->
<g id="node6" class="node">
<title>adapters</title>
<path fill="#4caf50" stroke="black" d="M635,-65C635,-65 559,-65 559,-65 553,-65 547,-59 547,-53 547,-53 547,-41 547,-41 547,-35 553,-29 559,-29 559,-29 635,-29 635,-29 641,-29 647,-35 647,-41 647,-41 647,-53 647,-53 647,-59 641,-65 635,-65"/>
<text xml:space="preserve" text-anchor="middle" x="597" y="-49.5" font-family="Arial" font-size="10.00" fill="white">@archon/adapters</text>
<text xml:space="preserve" text-anchor="middle" x="597" y="-37.5" font-family="Arial" font-size="10.00" fill="white">(Platform Adapters)</text>
</g>
<!-- core&#45;&gt;adapters -->
<g id="edge7" class="edge">
<title>core&#45;&gt;adapters</title>
<path fill="none" stroke="#4caf50" stroke-width="2" d="M511.49,-47C511.49,-47 533.66,-47 533.66,-47"/>
<polygon fill="#4caf50" stroke="#4caf50" stroke-width="2" points="533.66,-50.5 543.66,-47 533.66,-43.5 533.66,-50.5"/>
</g>
<!-- server -->
<g id="node7" class="node">
<title>server</title>
<path fill="#4caf50" stroke="black" d="M756.75,-65C756.75,-65 695,-65 695,-65 689,-65 683,-59 683,-53 683,-53 683,-41 683,-41 683,-35 689,-29 695,-29 695,-29 756.75,-29 756.75,-29 762.75,-29 768.75,-35 768.75,-41 768.75,-41 768.75,-53 768.75,-53 768.75,-59 762.75,-65 756.75,-65"/>
<text xml:space="preserve" text-anchor="middle" x="725.88" y="-49.5" font-family="Arial" font-size="10.00" fill="white">@archon/server</text>
<text xml:space="preserve" text-anchor="middle" x="725.88" y="-37.5" font-family="Arial" font-size="10.00" fill="white">(HTTP Server)</text>
</g>
<!-- adapters&#45;&gt;server -->
<g id="edge8" class="edge">
<title>adapters&#45;&gt;server</title>
<path fill="none" stroke="#4caf50" stroke-width="2" d="M647.2,-47C647.2,-47 669.69,-47 669.69,-47"/>
<polygon fill="#4caf50" stroke="#4caf50" stroke-width="2" points="669.69,-50.5 679.69,-47 669.69,-43.5 669.69,-50.5"/>
</g>
<!-- web -->
<g id="node8" class="node">
<title>web</title>
<path fill="#4caf50" stroke="black" d="M882.25,-94C882.25,-94 816.75,-94 816.75,-94 810.75,-94 804.75,-88 804.75,-82 804.75,-82 804.75,-70 804.75,-70 804.75,-64 810.75,-58 816.75,-58 816.75,-58 882.25,-58 882.25,-58 888.25,-58 894.25,-64 894.25,-70 894.25,-70 894.25,-82 894.25,-82 894.25,-88 888.25,-94 882.25,-94"/>
<text xml:space="preserve" text-anchor="middle" x="849.5" y="-78.5" font-family="Arial" font-size="10.00" fill="white">@archon/web</text>
<text xml:space="preserve" text-anchor="middle" x="849.5" y="-66.5" font-family="Arial" font-size="10.00" fill="white">(React Frontend)</text>
</g>
<!-- server&#45;&gt;web -->
<g id="edge9" class="edge">
<title>server&#45;&gt;web</title>
<path fill="none" stroke="#4caf50" stroke-width="2" d="M769.11,-61.5C769.11,-61.5 791.37,-61.5 791.37,-61.5"/>
<polygon fill="#4caf50" stroke="#4caf50" stroke-width="2" points="791.37,-65 801.37,-61.5 791.37,-58 791.37,-65"/>
</g>
<!-- cli -->
<g id="node9" class="node">
<title>cli</title>
<path fill="#4caf50" stroke="black" d="M881.5,-36C881.5,-36 817.5,-36 817.5,-36 811.5,-36 805.5,-30 805.5,-24 805.5,-24 805.5,-12 805.5,-12 805.5,-6 811.5,0 817.5,0 817.5,0 881.5,0 881.5,0 887.5,0 893.5,-6 893.5,-12 893.5,-12 893.5,-24 893.5,-24 893.5,-30 887.5,-36 881.5,-36"/>
<text xml:space="preserve" text-anchor="middle" x="849.5" y="-20.5" font-family="Arial" font-size="10.00" fill="white">@archon/cli</text>
<text xml:space="preserve" text-anchor="middle" x="849.5" y="-8.5" font-family="Arial" font-size="10.00" fill="white">(Command Line)</text>
</g>
<!-- server&#45;&gt;cli -->
<g id="edge10" class="edge">
<title>server&#45;&gt;cli</title>
<path fill="none" stroke="#4caf50" stroke-width="2" d="M769.11,-32.5C769.11,-32.5 792.21,-32.5 792.21,-32.5"/>
<polygon fill="#4caf50" stroke="#4caf50" stroke-width="2" points="792.21,-36 802.21,-32.5 792.21,-29 792.21,-36"/>
</g>
</g>
</svg>
