<?xml version="1.0" encoding="UTF-8" standalone="no"?>
<!DOCTYPE svg PUBLIC "-//W3C//DTD SVG 1.1//EN"
 "http://www.w3.org/Graphics/SVG/1.1/DTD/svg11.dtd">
<!-- Generated by graphviz version 14.1.2 (0)
 -->
<!-- Title: archon_architecture Pages: 1 -->
<svg width="583pt" height="329pt"
 viewBox="0.00 0.00 583.00 329.00" xmlns="http://www.w3.org/2000/svg" xmlns:xlink="http://www.w3.org/1999/xlink">
<g id="graph0" class="graph" transform="scale(1 1) rotate(0) translate(4 324.88)">
<title>archon_architecture</title>
<polygon fill="white" stroke="none" points="-4,4 -4,-324.88 578.75,-324.88 578.75,4 -4,4"/>
<!-- web_ui -->
<g id="node1" class="node">
<title>web_ui</title>
<path fill="#4caf50" stroke="black" d="M86.5,-320.88C86.5,-320.88 12,-320.88 12,-320.88 6,-320.88 0,-314.88 0,-308.88 0,-308.88 0,-296.88 0,-296.88 0,-290.88 6,-284.88 12,-284.88 12,-284.88 86.5,-284.88 86.5,-284.88 92.5,-284.88 98.5,-290.88 98.5,-296.88 98.5,-296.88 98.5,-308.88 98.5,-308.88 98.5,-314.88 92.5,-320.88 86.5,-320.88"/>
<text xml:space="preserve" text-anchor="middle" x="49.25" y="-305.93" font-family="Arial" font-size="11.00" fill="white">Web UI</text>
<text xml:space="preserve" text-anchor="middle" x="49.25" y="-292.43" font-family="Arial" font-size="11.00" fill="white">(SSE Streaming)</text>
</g>
<!-- orchestrator -->
<g id="node7" class="node">
<title>orchestrator</title>
<path fill="#2196f3" stroke="black" d="M351.88,-234.88C351.88,-234.88 234.62,-234.88 234.62,-234.88 228.62,-234.88 222.62,-228.88 222.62,-222.88 222.62,-222.88 222.62,-196.12 222.62,-196.12 222.62,-190.12 228.62,-184.12 234.62,-184.12 234.62,-184.12 351.88,-184.12 351.88,-184.12 357.88,-184.12 363.88,-190.12 363.88,-196.12 363.88,-196.12 363.88,-222.88 363.88,-222.88 363.88,-228.88 357.88,-234.88 351.88,-234.88"/>
<text xml:space="preserve" text-anchor="middle" x="293.25" y="-219.47" font-family="Arial Bold" font-size="12.00" fill="white">Orchestrator</text>
<text xml:space="preserve" text-anchor="middle" x="293.25" y="-205.22" font-family="Arial Bold" font-size="12.00" fill="white">(Message Routing &amp;</text>
<text xml:space="preserve" text-anchor="middle" x="293.25" y="-190.97" font-family="Arial Bold" font-size="12.00" fill="white">Context Management)</text>
</g>
<!-- web_ui&#45;&gt;orchestrator -->
<g id="edge1" class="edge">
<title>web_ui&#45;&gt;orchestrator</title>
<path fill="none" stroke="#4caf50" stroke-width="1.5" d="M48.38,-284.66C48.38,-255.36 48.38,-201 48.38,-201 48.38,-201 210.15,-201 210.15,-201"/>
<polygon fill="#4caf50" stroke="#4caf50" stroke-width="1.5" points="210.15,-204.5 220.15,-201 210.15,-197.5 210.15,-204.5"/>
</g>
<!-- cli -->
<g id="node2" class="node">
<title>cli</title>
<path fill="#4caf50" stroke="black" d="M179.25,-320.88C179.25,-320.88 139.25,-320.88 139.25,-320.88 133.25,-320.88 127.25,-314.88 127.25,-308.88 127.25,-308.88 127.25,-296.88 127.25,-296.88 127.25,-290.88 133.25,-284.88 139.25,-284.88 139.25,-284.88 179.25,-284.88 179.25,-284.88 185.25,-284.88 191.25,-290.88 191.25,-296.88 191.25,-296.88 191.25,-308.88 191.25,-308.88 191.25,-314.88 185.25,-320.88 179.25,-320.88"/>
<text xml:space="preserve" text-anchor="middle" x="159.25" y="-305.93" font-family="Arial" font-size="11.00" fill="white">CLI</text>
<text xml:space="preserve" text-anchor="middle" x="159.25" y="-292.43" font-family="Arial" font-size="11.00" fill="white">(Terminal)</text>
</g>
<!-- cli&#45;&gt;orchestrator -->
<g id="edge2" class="edge">
<title>cli&#45;&gt;orchestrator</title>
<path fill="none" stroke="#4caf50" stroke-width="1.5" d="M159.25,-284.46C159.25,-259.5 159.25,-218 159.25,-218 159.25,-218 210.06,-218 210.06,-218"/>
<polygon fill="#4caf50" stroke="#4caf50" stroke-width="1.5" points="210.06,-221.5 220.06,-218 210.06,-214.5 210.06,-221.5"/>
</g>
<!-- telegram -->
<g id="node3" class="node">
<title>telegram</title>
<path fill="#4caf50" stroke="black" d="M268.38,-320.88C268.38,-320.88 232.12,-320.88 232.12,-320.88 226.12,-320.88 220.12,-314.88 220.12,-308.88 220.12,-308.88 220.12,-296.88 220.12,-296.88 220.12,-290.88 226.12,-284.88 232.12,-284.88 232.12,-284.88 268.38,-284.88 268.38,-284.88 274.38,-284.88 280.38,-290.88 280.38,-296.88 280.38,-296.88 280.38,-308.88 280.38,-308.88 280.38,-314.88 274.38,-320.88 268.38,-320.88"/>
<text xml:space="preserve" text-anchor="middle" x="250.25" y="-305.93" font-family="Arial" font-size="11.00" fill="white">Telegram</text>
<text xml:space="preserve" text-anchor="middle" x="250.25" y="-292.43" font-family="Arial" font-size="11.00" fill="white">(Bot API)</text>
</g>
<!-- telegram&#45;&gt;orchestrator -->
<g id="edge3" class="edge">
<title>telegram&#45;&gt;orchestrator</title>
<path fill="none" stroke="#4caf50" stroke-width="1.5" d="M251.5,-284.43C251.5,-284.43 251.5,-247.6 251.5,-247.6"/>
<polygon fill="#4caf50" stroke="#4caf50" stroke-width="1.5" points="255,-247.6 251.5,-237.6 248,-247.6 255,-247.6"/>
</g>
<!-- slack -->
<g id="node4" class="node">
<title>slack</title>
<path fill="#4caf50" stroke="black" d="M351.25,-320.88C351.25,-320.88 321.25,-320.88 321.25,-320.88 315.25,-320.88 309.25,-314.88 309.25,-308.88 309.25,-308.88 309.25,-296.88 309.25,-296.88 309.25,-290.88 315.25,-284.88 321.25,-284.88 321.25,-284.88 351.25,-284.88 351.25,-284.88 357.25,-284.88 363.25,-290.88 363.25,-296.88 363.25,-296.88 363.25,-308.88 363.25,-308.88 363.25,-314.88 357.25,-320.88 351.25,-320.88"/>
<text xml:space="preserve" text-anchor="middle" x="336.25" y="-305.93" font-family="Arial" font-size="11.00" fill="white">Slack</text>
<text xml:space="preserve" text-anchor="middle" x="336.25" y="-292.43" font-family="Arial" font-size="11.00" fill="white">(SDK)</text>
</g>
<!-- slack&#45;&gt;orchestrator -->
<g id="edge4" class="edge">
<title>slack&#45;&gt;orchestrator</title>
<path fill="none" stroke="#4caf50" stroke-width="1.5" d="M336.25,-284.43C336.25,-284.43 336.25,-247.6 336.25,-247.6"/>
<polygon fill="#4caf50" stroke="#4caf50" stroke-width="1.5" points="339.75,-247.6 336.25,-237.6 332.75,-247.6 339.75,-247.6"/>
</g>
<!-- github -->
<g id="node5" class="node">
<title>github</title>
<path fill="#4caf50" stroke="black" d="M454.5,-320.88C454.5,-320.88 404,-320.88 404,-320.88 398,-320.88 392,-314.88 392,-308.88 392,-308.88 392,-296.88 392,-296.88 392,-290.88 398,-284.88 404,-284.88 404,-284.88 454.5,-284.88 454.5,-284.88 460.5,-284.88 466.5,-290.88 466.5,-296.88 466.5,-296.88 466.5,-308.88 466.5,-308.88 466.5,-314.88 460.5,-320.88 454.5,-320.88"/>
<text xml:space="preserve" text-anchor="middle" x="429.25" y="-305.93" font-family="Arial" font-size="11.00" fill="white">GitHub</text>
<text xml:space="preserve" text-anchor="middle" x="429.25" y="-292.43" font-family="Arial" font-size="11.00" fill="white">(Webhooks)</text>
</g>
<!-- github&#45;&gt;orchestrator -->
<g id="edge5" class="edge">
<title>github&#45;&gt;orchestrator</title>
<path fill="none" stroke="#4caf50" stroke-width="1.5" d="M429.25,-284.46C429.25,-259.5 429.25,-218 429.25,-218 429.25,-218 376.31,-218 376.31,-218"/>
<polygon fill="#4caf50" stroke="#4caf50" stroke-width="1.5" points="376.31,-214.5 366.31,-218 376.31,-221.5 376.31,-214.5"/>
</g>
<!-- discord -->
<g id="node6" class="node">
<title>discord</title>
<path fill="#4caf50" stroke="black" d="M562.75,-320.88C562.75,-320.88 507.75,-320.88 507.75,-320.88 501.75,-320.88 495.75,-314.88 495.75,-308.88 495.75,-308.88 495.75,-296.88 495.75,-296.88 495.75,-290.88 501.75,-284.88 507.75,-284.88 507.75,-284.88 562.75,-284.88 562.75,-284.88 568.75,-284.88 574.75,-290.88 574.75,-296.88 574.75,-296.88 574.75,-308.88 574.75,-308.88 574.75,-314.88 568.75,-320.88 562.75,-320.88"/>
<text xml:space="preserve" text-anchor="middle" x="535.25" y="-305.93" font-family="Arial" font-size="11.00" fill="white">Discord</text>
<text xml:space="preserve" text-anchor="middle" x="535.25" y="-292.43" font-family="Arial" font-size="11.00" fill="white">(WebSocket)</text>
</g>
<!-- discord&#45;&gt;orchestrator -->
<g id="edge6" class="edge">
<title>discord&#45;&gt;orchestrator</title>
<path fill="none" stroke="#4caf50" stroke-width="1.5" d="M500.69,-284.66C500.69,-255.36 500.69,-201 500.69,-201 500.69,-201 376.62,-201 376.62,-201"/>
<polygon fill="#4caf50" stroke="#4caf50" stroke-width="1.5" points="376.62,-197.5 366.62,-201 376.62,-204.5 376.62,-197.5"/>
</g>
<!-- command_handler -->
<g id="node8" class="node">
<title>command_handler</title>
<path fill="#ff9800" stroke="black" d="M193.75,-134.12C193.75,-134.12 108.75,-134.12 108.75,-134.12 102.75,-134.12 96.75,-128.12 96.75,-122.12 96.75,-122.12 96.75,-110.12 96.75,-110.12 96.75,-104.12 102.75,-98.12 108.75,-98.12 108.75,-98.12 193.75,-98.12 193.75,-98.12 199.75,-98.12 205.75,-104.12 205.75,-110.12 205.75,-110.12 205.75,-122.12 205.75,-122.12 205.75,-128.12 199.75,-134.12 193.75,-134.12"/>
<text xml:space="preserve" text-anchor="middle" x="151.25" y="-119.17" font-family="Arial" font-size="11.00" fill="white">Command Handler</text>
<text xml:space="preserve" text-anchor="middle" x="151.25" y="-105.67" font-family="Arial" font-size="11.00" fill="white">(Slash Commands)</text>
</g>
<!-- orchestrator&#45;&gt;command_handler -->
<g id="edge7" class="edge">
<title>orchestrator&#45;&gt;command_handler</title>
<path fill="none" stroke="#2196f3" stroke-width="2" d="M228.62,-183.95C228.62,-156.27 228.62,-116 228.62,-116 228.62,-116 219.27,-116 219.27,-116"/>
<polygon fill="#2196f3" stroke="#2196f3" stroke-width="2" points="219.27,-112.5 209.27,-116 219.27,-119.5 219.27,-112.5"/>
</g>
<!-- workflow_executor -->
<g id="node9" class="node">
<title>workflow_executor</title>
<path fill="#ff9800" stroke="black" d="M339.5,-134.12C339.5,-134.12 247,-134.12 247,-134.12 241,-134.12 235,-128.12 235,-122.12 235,-122.12 235,-110.12 235,-110.12 235,-104.12 241,-98.12 247,-98.12 247,-98.12 339.5,-98.12 339.5,-98.12 345.5,-98.12 351.5,-104.12 351.5,-110.12 351.5,-110.12 351.5,-122.12 351.5,-122.12 351.5,-128.12 345.5,-134.12 339.5,-134.12"/>
<text xml:space="preserve" text-anchor="middle" x="293.25" y="-119.17" font-family="Arial" font-size="11.00" fill="white">Workflow Executor</text>
<text xml:space="preserve" text-anchor="middle" x="293.25" y="-105.67" font-family="Arial" font-size="11.00" fill="white">(YAML DAG Engine)</text>
</g>
<!-- orchestrator&#45;&gt;workflow_executor -->
<g id="edge8" class="edge">
<title>orchestrator&#45;&gt;workflow_executor</title>
<path fill="none" stroke="#2196f3" stroke-width="2" d="M293.25,-183.98C293.25,-183.98 293.25,-147.53 293.25,-147.53"/>
<polygon fill="#2196f3" stroke="#2196f3" stroke-width="2" points="296.75,-147.53 293.25,-137.53 289.75,-147.53 296.75,-147.53"/>
</g>
<!-- ai_clients -->
<g id="node10" class="node">
<title>ai_clients</title>
<path fill="#ff9800" stroke="black" d="M493.62,-134.12C493.62,-134.12 392.88,-134.12 392.88,-134.12 386.88,-134.12 380.88,-128.12 380.88,-122.12 380.88,-122.12 380.88,-110.12 380.88,-110.12 380.88,-104.12 386.88,-98.12 392.88,-98.12 392.88,-98.12 493.62,-98.12 493.62,-98.12 499.62,-98.12 505.62,-104.12 505.62,-110.12 505.62,-110.12 505.62,-122.12 505.62,-122.12 505.62,-128.12 499.62,-134.12 493.62,-134.12"/>
<text xml:space="preserve" text-anchor="middle" x="443.25" y="-119.17" font-family="Arial" font-size="11.00" fill="white">AI Assistant Clients</text>
<text xml:space="preserve" text-anchor="middle" x="443.25" y="-105.67" font-family="Arial" font-size="11.00" fill="white">(Claude / Codex SDK)</text>
</g>
<!-- orchestrator&#45;&gt;ai_clients -->
<g id="edge9" class="edge">
<title>orchestrator&#45;&gt;ai_clients</title>
<path fill="none" stroke="#2196f3" stroke-width="2" d="M357.88,-183.95C357.88,-156.27 357.88,-116 357.88,-116 357.88,-116 367.73,-116 367.73,-116"/>
<polygon fill="#2196f3" stroke="#2196f3" stroke-width="2" points="367.73,-119.5 377.73,-116 367.73,-112.5 367.73,-119.5"/>
</g>
<!-- database -->
<g id="node11" class="node">
<title>database</title>
<path fill="#9c27b0" stroke="black" d="M351.88,-43.75C351.88,-46.16 325.6,-48.12 293.25,-48.12 260.9,-48.12 234.62,-46.16 234.62,-43.75 234.62,-43.75 234.62,-4.38 234.62,-4.38 234.62,-1.96 260.9,0 293.25,0 325.6,0 351.88,-1.96 351.88,-4.38 351.88,-4.38 351.88,-43.75 351.88,-43.75"/>
<path fill="none" stroke="black" d="M351.88,-43.75C351.88,-41.34 325.6,-39.38 293.25,-39.38 260.9,-39.38 234.62,-41.34 234.62,-43.75"/>
<text xml:space="preserve" text-anchor="middle" x="293.25" y="-27.11" font-family="Arial" font-size="11.00" fill="white">SQLite / PostgreSQL</text>
<text xml:space="preserve" text-anchor="middle" x="293.25" y="-13.61" font-family="Arial" font-size="11.00" fill="white">(8 Tables)</text>
</g>
<!-- command_handler&#45;&gt;database -->
<g id="edge10" class="edge">
<title>command_handler&#45;&gt;database</title>
<path fill="none" stroke="#9c27b0" stroke-width="1.5" d="M151.25,-97.92C151.25,-71.08 151.25,-24 151.25,-24 151.25,-24 221.99,-24 221.99,-24"/>
<polygon fill="#9c27b0" stroke="#9c27b0" stroke-width="1.5" points="221.99,-27.5 231.99,-24 221.99,-20.5 221.99,-27.5"/>
</g>
<!-- workflow_executor&#45;&gt;database -->
<g id="edge11" class="edge">
<title>workflow_executor&#45;&gt;database</title>
<path fill="none" stroke="#9c27b0" stroke-width="1.5" d="M293.25,-97.94C293.25,-97.94 293.25,-60.76 293.25,-60.76"/>
<polygon fill="#9c27b0" stroke="#9c27b0" stroke-width="1.5" points="296.75,-60.76 293.25,-50.76 289.75,-60.76 296.75,-60.76"/>
</g>
<!-- ai_clients&#45;&gt;database -->
<g id="edge12" class="edge">
<title>ai_clients&#45;&gt;database</title>
<path fill="none" stroke="#9c27b0" stroke-width="1.5" d="M443.25,-97.92C443.25,-71.08 443.25,-24 443.25,-24 443.25,-24 364.37,-24 364.37,-24"/>
<polygon fill="#9c27b0" stroke="#9c27b0" stroke-width="1.5" points="364.37,-20.5 354.37,-24 364.37,-27.5 364.37,-20.5"/>
</g>
</g>
</svg>
