<?xml version="1.0" encoding="UTF-8" standalone="no"?>
<!DOCTYPE svg PUBLIC "-//W3C//DTD SVG 1.1//EN"
 "http://www.w3.org/Graphics/SVG/1.1/DTD/svg11.dtd">
<!-- Generated by graphviz version 14.1.2 (0)
 -->
<!-- Title: design_system_ecosystem Pages: 1 -->
<svg width="454pt" height="913pt"
 viewBox="0.00 0.00 454.00 913.00" xmlns="http://www.w3.org/2000/svg" xmlns:xlink="http://www.w3.org/1999/xlink">
<g id="graph0" class="graph" transform="scale(1 1) rotate(0) translate(4 909)">
<title>design_system_ecosystem</title>
<polygon fill="white" stroke="none" points="-4,4 -4,-909 450.25,-909 450.25,4 -4,4"/>
<!-- center -->
<g id="node1" class="node">
<title>center</title>
<path fill="#4caf50" stroke="black" d="M101.5,-510.75C101.5,-510.75 12,-510.75 12,-510.75 6,-510.75 0,-504.75 0,-498.75 0,-498.75 0,-483.25 0,-483.25 0,-477.25 6,-471.25 12,-471.25 12,-471.25 101.5,-471.25 101.5,-471.25 107.5,-471.25 113.5,-477.25 113.5,-483.25 113.5,-483.25 113.5,-498.75 113.5,-498.75 113.5,-504.75 107.5,-510.75 101.5,-510.75"/>
<text xml:space="preserve" text-anchor="middle" x="56.75" y="-493.45" font-family="Arial Bold" font-size="14.00" fill="white">Design System</text>
<text xml:space="preserve" text-anchor="middle" x="56.75" y="-477.7" font-family="Arial Bold" font-size="14.00" fill="white">Collection</text>
</g>
<!-- tech_giants -->
<g id="node2" class="node">
<title>tech_giants</title>
<path fill="#2196f3" stroke="black" d="M254.38,-786C254.38,-786 200.88,-786 200.88,-786 194.88,-786 188.88,-780 188.88,-774 188.88,-774 188.88,-762 188.88,-762 188.88,-756 194.88,-750 200.88,-750 200.88,-750 254.38,-750 254.38,-750 260.38,-750 266.38,-756 266.38,-762 266.38,-762 266.38,-774 266.38,-774 266.38,-780 260.38,-786 254.38,-786"/>
<text xml:space="preserve" text-anchor="middle" x="227.62" y="-764.3" font-family="Arial Bold" font-size="11.00" fill="white">Tech Giants</text>
</g>
<!-- center&#45;&gt;tech_giants -->
<g id="edge1" class="edge">
<title>center&#45;&gt;tech_giants</title>
<path fill="none" stroke="#4caf50" stroke-width="2" d="M56.25,-510.92C56.25,-574.43 56.25,-768 56.25,-768 56.25,-768 175.71,-768 175.71,-768"/>
<polygon fill="#4caf50" stroke="#4caf50" stroke-width="2" points="175.71,-771.5 185.71,-768 175.71,-764.5 175.71,-771.5"/>
</g>
<!-- enterprise -->
<g id="node3" class="node">
<title>enterprise</title>
<path fill="#2196f3" stroke="black" d="M251,-550C251,-550 204.25,-550 204.25,-550 198.25,-550 192.25,-544 192.25,-538 192.25,-538 192.25,-526 192.25,-526 192.25,-520 198.25,-514 204.25,-514 204.25,-514 251,-514 251,-514 257,-514 263,-520 263,-526 263,-526 263,-538 263,-538 263,-544 257,-550 251,-550"/>
<text xml:space="preserve" text-anchor="middle" x="227.62" y="-528.3" font-family="Arial Bold" font-size="11.00" fill="white">Enterprise</text>
</g>
<!-- center&#45;&gt;enterprise -->
<g id="edge2" class="edge">
<title>center&#45;&gt;enterprise</title>
<path fill="none" stroke="#4caf50" stroke-width="2" d="M113.99,-498C167.51,-498 239.25,-498 239.25,-498 239.25,-498 239.25,-500.78 239.25,-500.78"/>
<polygon fill="#4caf50" stroke="#4caf50" stroke-width="2" points="235.75,-500.78 239.25,-510.78 242.75,-500.78 235.75,-500.78"/>
</g>
<!-- government -->
<g id="node4" class="node">
<title>government</title>
<path fill="#2196f3" stroke="black" d="M255.88,-391C255.88,-391 199.38,-391 199.38,-391 193.38,-391 187.38,-385 187.38,-379 187.38,-379 187.38,-367 187.38,-367 187.38,-361 193.38,-355 199.38,-355 199.38,-355 255.88,-355 255.88,-355 261.88,-355 267.88,-361 267.88,-367 267.88,-367 267.88,-379 267.88,-379 267.88,-385 261.88,-391 255.88,-391"/>
<text xml:space="preserve" text-anchor="middle" x="227.62" y="-369.3" font-family="Arial Bold" font-size="11.00" fill="white">Government</text>
</g>
<!-- center&#45;&gt;government -->
<g id="edge3" class="edge">
<title>center&#45;&gt;government</title>
<path fill="none" stroke="#4caf50" stroke-width="2" d="M113.88,-486C159.65,-486 216.25,-486 216.25,-486 216.25,-486 216.25,-404.43 216.25,-404.43"/>
<polygon fill="#4caf50" stroke="#4caf50" stroke-width="2" points="219.75,-404.43 216.25,-394.43 212.75,-404.43 219.75,-404.43"/>
</g>
<!-- opensource -->
<g id="node5" class="node">
<title>opensource</title>
<path fill="#2196f3" stroke="black" d="M257.75,-155C257.75,-155 197.5,-155 197.5,-155 191.5,-155 185.5,-149 185.5,-143 185.5,-143 185.5,-131 185.5,-131 185.5,-125 191.5,-119 197.5,-119 197.5,-119 257.75,-119 257.75,-119 263.75,-119 269.75,-125 269.75,-131 269.75,-131 269.75,-143 269.75,-143 269.75,-149 263.75,-155 257.75,-155"/>
<text xml:space="preserve" text-anchor="middle" x="227.62" y="-133.3" font-family="Arial Bold" font-size="11.00" fill="white">Open Source</text>
</g>
<!-- center&#45;&gt;opensource -->
<g id="edge4" class="edge">
<title>center&#45;&gt;opensource</title>
<path fill="none" stroke="#4caf50" stroke-width="2" d="M56.25,-470.95C56.25,-396.07 56.25,-137 56.25,-137 56.25,-137 172.24,-137 172.24,-137"/>
<polygon fill="#4caf50" stroke="#4caf50" stroke-width="2" points="172.24,-140.5 182.24,-137 172.24,-133.5 172.24,-140.5"/>
</g>
<!-- google -->
<g id="node6" class="node">
<title>google</title>
<path fill="#ff9800" stroke="black" d="M424.12,-905C424.12,-905 363.88,-905 363.88,-905 357.88,-905 351.88,-899 351.88,-893 351.88,-893 351.88,-881 351.88,-881 351.88,-875 357.88,-869 363.88,-869 363.88,-869 424.12,-869 424.12,-869 430.12,-869 436.12,-875 436.12,-881 436.12,-881 436.12,-893 436.12,-893 436.12,-899 430.12,-905 424.12,-905"/>
<text xml:space="preserve" text-anchor="middle" x="394" y="-883.5" font-family="Arial" font-size="10.00" fill="white">Google Material</text>
</g>
<!-- tech_giants&#45;&gt;google -->
<g id="edge5" class="edge">
<title>tech_giants&#45;&gt;google</title>
<path fill="none" stroke="#2196f3" stroke-width="1.5" d="M227.25,-786.33C227.25,-819.71 227.25,-887 227.25,-887 227.25,-887 339.22,-887 339.22,-887"/>
<polygon fill="#2196f3" stroke="#2196f3" stroke-width="1.5" points="339.22,-890.5 349.22,-887 339.22,-883.5 339.22,-890.5"/>
</g>
<!-- apple -->
<g id="node7" class="node">
<title>apple</title>
<path fill="#ff9800" stroke="black" d="M419.25,-826C419.25,-826 368.75,-826 368.75,-826 362.75,-826 356.75,-820 356.75,-814 356.75,-814 356.75,-802 356.75,-802 356.75,-796 362.75,-790 368.75,-790 368.75,-790 419.25,-790 419.25,-790 425.25,-790 431.25,-796 431.25,-802 431.25,-802 431.25,-814 431.25,-814 431.25,-820 425.25,-826 419.25,-826"/>
<text xml:space="preserve" text-anchor="middle" x="394" y="-804.5" font-family="Arial" font-size="10.00" fill="white">Apple Design</text>
</g>
<!-- tech_giants&#45;&gt;apple -->
<g id="edge6" class="edge">
<title>tech_giants&#45;&gt;apple</title>
<path fill="none" stroke="#2196f3" stroke-width="1.5" d="M266.69,-768C315.94,-768 394.25,-768 394.25,-768 394.25,-768 394.25,-777.6 394.25,-777.6"/>
<polygon fill="#2196f3" stroke="#2196f3" stroke-width="1.5" points="390.75,-777.6 394.25,-787.6 397.75,-777.6 390.75,-777.6"/>
</g>
<!-- microsoft -->
<g id="node8" class="node">
<title>microsoft</title>
<path fill="#ff9800" stroke="black" d="M425.25,-747C425.25,-747 362.75,-747 362.75,-747 356.75,-747 350.75,-741 350.75,-735 350.75,-735 350.75,-723 350.75,-723 350.75,-717 356.75,-711 362.75,-711 362.75,-711 425.25,-711 425.25,-711 431.25,-711 437.25,-717 437.25,-723 437.25,-723 437.25,-735 437.25,-735 437.25,-741 431.25,-747 425.25,-747"/>
<text xml:space="preserve" text-anchor="middle" x="394" y="-725.5" font-family="Arial" font-size="10.00" fill="white">Microsoft Fluent</text>
</g>
<!-- tech_giants&#45;&gt;microsoft -->
<g id="edge7" class="edge">
<title>tech_giants&#45;&gt;microsoft</title>
<path fill="none" stroke="#2196f3" stroke-width="1.5" d="M227.25,-749.87C227.25,-739.69 227.25,-729 227.25,-729 227.25,-729 338.35,-729 338.35,-729"/>
<polygon fill="#2196f3" stroke="#2196f3" stroke-width="1.5" points="338.35,-732.5 348.35,-729 338.35,-725.5 338.35,-732.5"/>
</g>
<!-- salesforce -->
<g id="node9" class="node">
<title>salesforce</title>
<path fill="#ff9800" stroke="black" d="M434.25,-668C434.25,-668 353.75,-668 353.75,-668 347.75,-668 341.75,-662 341.75,-656 341.75,-656 341.75,-644 341.75,-644 341.75,-638 347.75,-632 353.75,-632 353.75,-632 434.25,-632 434.25,-632 440.25,-632 446.25,-638 446.25,-644 446.25,-644 446.25,-656 446.25,-656 446.25,-662 440.25,-668 434.25,-668"/>
<text xml:space="preserve" text-anchor="middle" x="394" y="-646.5" font-family="Arial" font-size="10.00" fill="white">Salesforce Lightning</text>
</g>
<!-- enterprise&#45;&gt;salesforce -->
<g id="edge8" class="edge">
<title>enterprise&#45;&gt;salesforce</title>
<path fill="none" stroke="#2196f3" stroke-width="1.5" d="M263.24,-541C297.86,-541 345.25,-541 345.25,-541 345.25,-541 345.25,-619.24 345.25,-619.24"/>
<polygon fill="#2196f3" stroke="#2196f3" stroke-width="1.5" points="341.75,-619.24 345.25,-629.24 348.75,-619.24 341.75,-619.24"/>
</g>
<!-- ibm -->
<g id="node10" class="node">
<title>ibm</title>
<path fill="#ff9800" stroke="black" d="M416.25,-589C416.25,-589 371.75,-589 371.75,-589 365.75,-589 359.75,-583 359.75,-577 359.75,-577 359.75,-565 359.75,-565 359.75,-559 365.75,-553 371.75,-553 371.75,-553 416.25,-553 416.25,-553 422.25,-553 428.25,-559 428.25,-565 428.25,-565 428.25,-577 428.25,-577 428.25,-583 422.25,-589 416.25,-589"/>
<text xml:space="preserve" text-anchor="middle" x="394" y="-567.5" font-family="Arial" font-size="10.00" fill="white">IBM Carbon</text>
</g>
<!-- enterprise&#45;&gt;ibm -->
<g id="edge9" class="edge">
<title>enterprise&#45;&gt;ibm</title>
<path fill="none" stroke="#2196f3" stroke-width="1.5" d="M263.37,-532C312.33,-532 394.25,-532 394.25,-532 394.25,-532 394.25,-540.6 394.25,-540.6"/>
<polygon fill="#2196f3" stroke="#2196f3" stroke-width="1.5" points="390.75,-540.6 394.25,-550.6 397.75,-540.6 390.75,-540.6"/>
</g>
<!-- adobe -->
<g id="node11" class="node">
<title>adobe</title>
<path fill="#ff9800" stroke="black" d="M426.38,-510C426.38,-510 361.62,-510 361.62,-510 355.62,-510 349.62,-504 349.62,-498 349.62,-498 349.62,-486 349.62,-486 349.62,-480 355.62,-474 361.62,-474 361.62,-474 426.38,-474 426.38,-474 432.38,-474 438.38,-480 438.38,-486 438.38,-486 438.38,-498 438.38,-498 438.38,-504 432.38,-510 426.38,-510"/>
<text xml:space="preserve" text-anchor="middle" x="394" y="-488.5" font-family="Arial" font-size="10.00" fill="white">Adobe Spectrum</text>
</g>
<!-- enterprise&#45;&gt;adobe -->
<g id="edge10" class="edge">
<title>enterprise&#45;&gt;adobe</title>
<path fill="none" stroke="#2196f3" stroke-width="1.5" d="M263.23,-523C300.69,-523 354.25,-523 354.25,-523 354.25,-523 354.25,-521.74 354.25,-521.74"/>
<polygon fill="#2196f3" stroke="#2196f3" stroke-width="1.5" points="357.75,-522.66 354.25,-512.66 350.75,-522.66 357.75,-522.66"/>
</g>
<!-- govuk -->
<g id="node12" class="node">
<title>govuk</title>
<path fill="#ff9800" stroke="black" d="M409.12,-431C409.12,-431 378.88,-431 378.88,-431 372.88,-431 366.88,-425 366.88,-419 366.88,-419 366.88,-407 366.88,-407 366.88,-401 372.88,-395 378.88,-395 378.88,-395 409.12,-395 409.12,-395 415.12,-395 421.12,-401 421.12,-407 421.12,-407 421.12,-419 421.12,-419 421.12,-425 415.12,-431 409.12,-431"/>
<text xml:space="preserve" text-anchor="middle" x="394" y="-409.5" font-family="Arial" font-size="10.00" fill="white">GOV.UK</text>
</g>
<!-- government&#45;&gt;govuk -->
<g id="edge11" class="edge">
<title>government&#45;&gt;govuk</title>
<path fill="none" stroke="#2196f3" stroke-width="1.5" d="M267.96,-379C317.27,-379 394.25,-379 394.25,-379 394.25,-379 394.25,-382.54 394.25,-382.54"/>
<polygon fill="#2196f3" stroke="#2196f3" stroke-width="1.5" points="390.75,-382.54 394.25,-392.54 397.75,-382.54 390.75,-382.54"/>
</g>
<!-- usds -->
<g id="node13" class="node">
<title>usds</title>
<path fill="#ff9800" stroke="black" d="M425.25,-352C425.25,-352 362.75,-352 362.75,-352 356.75,-352 350.75,-346 350.75,-340 350.75,-340 350.75,-328 350.75,-328 350.75,-322 356.75,-316 362.75,-316 362.75,-316 425.25,-316 425.25,-316 431.25,-316 437.25,-322 437.25,-328 437.25,-328 437.25,-340 437.25,-340 437.25,-346 431.25,-352 425.25,-352"/>
<text xml:space="preserve" text-anchor="middle" x="394" y="-330.5" font-family="Arial" font-size="10.00" fill="white">US Web Design</text>
</g>
<!-- government&#45;&gt;usds -->
<g id="edge12" class="edge">
<title>government&#45;&gt;usds</title>
<path fill="none" stroke="#2196f3" stroke-width="1.5" d="M268.19,-367C306.87,-367 359.25,-367 359.25,-367 359.25,-367 359.25,-364.7 359.25,-364.7"/>
<polygon fill="#2196f3" stroke="#2196f3" stroke-width="1.5" points="362.75,-364.7 359.25,-354.7 355.75,-364.7 362.75,-364.7"/>
</g>
<!-- canada -->
<g id="node14" class="node">
<title>canada</title>
<path fill="#ff9800" stroke="black" d="M422.25,-273C422.25,-273 365.75,-273 365.75,-273 359.75,-273 353.75,-267 353.75,-261 353.75,-261 353.75,-249 353.75,-249 353.75,-243 359.75,-237 365.75,-237 365.75,-237 422.25,-237 422.25,-237 428.25,-237 434.25,-243 434.25,-249 434.25,-249 434.25,-261 434.25,-261 434.25,-267 428.25,-273 422.25,-273"/>
<text xml:space="preserve" text-anchor="middle" x="394" y="-251.5" font-family="Arial" font-size="10.00" fill="white">Canada Aurora</text>
</g>
<!-- government&#45;&gt;canada -->
<g id="edge13" class="edge">
<title>government&#45;&gt;canada</title>
<path fill="none" stroke="#2196f3" stroke-width="1.5" d="M227.25,-354.56C227.25,-321.38 227.25,-255 227.25,-255 227.25,-255 341.36,-255 341.36,-255"/>
<polygon fill="#2196f3" stroke="#2196f3" stroke-width="1.5" points="341.36,-258.5 351.36,-255 341.36,-251.5 341.36,-258.5"/>
</g>
<!-- antdesign -->
<g id="node15" class="node">
<title>antdesign</title>
<path fill="#ff9800" stroke="black" d="M414.38,-194C414.38,-194 373.62,-194 373.62,-194 367.62,-194 361.62,-188 361.62,-182 361.62,-182 361.62,-170 361.62,-170 361.62,-164 367.62,-158 373.62,-158 373.62,-158 414.38,-158 414.38,-158 420.38,-158 426.38,-164 426.38,-170 426.38,-170 426.38,-182 426.38,-182 426.38,-188 420.38,-194 414.38,-194"/>
<text xml:space="preserve" text-anchor="middle" x="394" y="-172.5" font-family="Arial" font-size="10.00" fill="white">Ant Design</text>
</g>
<!-- opensource&#45;&gt;antdesign -->
<g id="edge14" class="edge">
<title>opensource&#45;&gt;antdesign</title>
<path fill="none" stroke="#2196f3" stroke-width="1.5" d="M269.93,-143C322.18,-143 404.25,-143 404.25,-143 404.25,-143 404.25,-145.3 404.25,-145.3"/>
<polygon fill="#2196f3" stroke="#2196f3" stroke-width="1.5" points="400.75,-145.3 404.25,-155.3 407.75,-145.3 400.75,-145.3"/>
</g>
<!-- chakra -->
<g id="node16" class="node">
<title>chakra</title>
<path fill="#ff9800" stroke="black" d="M412.5,-115C412.5,-115 375.5,-115 375.5,-115 369.5,-115 363.5,-109 363.5,-103 363.5,-103 363.5,-91 363.5,-91 363.5,-85 369.5,-79 375.5,-79 375.5,-79 412.5,-79 412.5,-79 418.5,-79 424.5,-85 424.5,-91 424.5,-91 424.5,-103 424.5,-103 424.5,-109 418.5,-115 412.5,-115"/>
<text xml:space="preserve" text-anchor="middle" x="394" y="-93.5" font-family="Arial" font-size="10.00" fill="white">Chakra UI</text>
</g>
<!-- opensource&#45;&gt;chakra -->
<g id="edge15" class="edge">
<title>opensource&#45;&gt;chakra</title>
<path fill="none" stroke="#2196f3" stroke-width="1.5" d="M270.01,-131C316.4,-131 384.25,-131 384.25,-131 384.25,-131 384.25,-127.46 384.25,-127.46"/>
<polygon fill="#2196f3" stroke="#2196f3" stroke-width="1.5" points="387.75,-127.46 384.25,-117.46 380.75,-127.46 387.75,-127.46"/>
</g>
<!-- mantine -->
<g id="node17" class="node">
<title>mantine</title>
<path fill="#ff9800" stroke="black" d="M409,-36C409,-36 379,-36 379,-36 373,-36 367,-30 367,-24 367,-24 367,-12 367,-12 367,-6 373,0 379,0 379,0 409,0 409,0 415,0 421,-6 421,-12 421,-12 421,-24 421,-24 421,-30 415,-36 409,-36"/>
<text xml:space="preserve" text-anchor="middle" x="394" y="-14.5" font-family="Arial" font-size="10.00" fill="white">Mantine</text>
</g>
<!-- opensource&#45;&gt;mantine -->
<g id="edge16" class="edge">
<title>opensource&#45;&gt;mantine</title>
<path fill="none" stroke="#2196f3" stroke-width="1.5" d="M227.25,-118.67C227.25,-85.29 227.25,-18 227.25,-18 227.25,-18 354.57,-18 354.57,-18"/>
<polygon fill="#2196f3" stroke="#2196f3" stroke-width="1.5" points="354.57,-21.5 364.57,-18 354.57,-14.5 354.57,-21.5"/>
</g>
</g>
</svg>
