<?xml version="1.0" encoding="UTF-8" standalone="no"?>
<!DOCTYPE svg PUBLIC "-//W3C//DTD SVG 1.1//EN"
 "http://www.w3.org/Graphics/SVG/1.1/DTD/svg11.dtd">
<!-- Generated by graphviz version 14.1.2 (0)
 -->
<!-- Title: design_system_workflow Pages: 1 -->
<svg width="802pt" height="441pt"
 viewBox="0.00 0.00 802.00 441.00" xmlns="http://www.w3.org/2000/svg" xmlns:xlink="http://www.w3.org/1999/xlink">
<g id="graph0" class="graph" transform="scale(1 1) rotate(0) translate(4 436.5)">
<title>design_system_workflow</title>
<polygon fill="white" stroke="none" points="-4,4 -4,-436.5 798.12,-436.5 798.12,4 -4,4"/>
<!-- step1 -->
<g id="node1" class="node">
<title>step1</title>
<path fill="#4caf50" stroke="black" d="M632.25,-432.5C632.25,-432.5 554,-432.5 554,-432.5 548,-432.5 542,-426.5 542,-420.5 542,-420.5 542,-408.5 542,-408.5 542,-402.5 548,-396.5 554,-396.5 554,-396.5 632.25,-396.5 632.25,-396.5 638.25,-396.5 644.25,-402.5 644.25,-408.5 644.25,-408.5 644.25,-420.5 644.25,-420.5 644.25,-426.5 638.25,-432.5 632.25,-432.5"/>
<text xml:space="preserve" text-anchor="middle" x="593.12" y="-410.23" font-family="Arial Bold" font-size="12.00" fill="white">Step 1: Browse</text>
</g>
<!-- step2 -->
<g id="node2" class="node">
<title>step2</title>
<path fill="#4caf50" stroke="black" d="M492.25,-334.5C492.25,-334.5 408,-334.5 408,-334.5 402,-334.5 396,-328.5 396,-322.5 396,-322.5 396,-310.5 396,-310.5 396,-304.5 402,-298.5 408,-298.5 408,-298.5 492.25,-298.5 492.25,-298.5 498.25,-298.5 504.25,-304.5 504.25,-310.5 504.25,-310.5 504.25,-322.5 504.25,-322.5 504.25,-328.5 498.25,-334.5 492.25,-334.5"/>
<text xml:space="preserve" text-anchor="middle" x="450.12" y="-312.23" font-family="Arial Bold" font-size="12.00" fill="white">Step 2: Evaluate</text>
</g>
<!-- step1&#45;&gt;step2 -->
<g id="edge9" class="edge">
<title>step1&#45;&gt;step2</title>
<path fill="none" stroke="#2196f3" stroke-width="2" d="M541.9,-415C500.87,-415 450.12,-415 450.12,-415 450.12,-415 450.12,-347.59 450.12,-347.59"/>
<polygon fill="#2196f3" stroke="#2196f3" stroke-width="2" points="453.63,-347.59 450.13,-337.59 446.63,-347.59 453.63,-347.59"/>
</g>
<!-- browse -->
<g id="node5" class="node">
<title>browse</title>
<polygon fill="#e8f5e9" stroke="black" points="645.75,-334.5 540.5,-334.5 540.5,-298.5 645.75,-298.5 645.75,-334.5"/>
<text xml:space="preserve" text-anchor="middle" x="593.12" y="-319" font-family="Arial" font-size="10.00" fill="#2e7d32">Explore 200+ design</text>
<text xml:space="preserve" text-anchor="middle" x="593.12" y="-307" font-family="Arial" font-size="10.00" fill="#2e7d32">systems in the list</text>
</g>
<!-- step1&#45;&gt;browse -->
<g id="edge1" class="edge">
<title>step1&#45;&gt;browse</title>
<path fill="none" stroke="#4caf50" stroke-width="1.5" d="M593.12,-396.07C593.12,-396.07 593.12,-347.12 593.12,-347.12"/>
<polygon fill="#4caf50" stroke="#4caf50" stroke-width="1.5" points="596.63,-347.12 593.13,-337.12 589.63,-347.12 596.63,-347.12"/>
</g>
<!-- filter_tags -->
<g id="node6" class="node">
<title>filter_tags</title>
<polygon fill="#e8f5e9" stroke="black" points="794.12,-338.5 682.12,-338.5 682.12,-294.5 794.12,-294.5 794.12,-338.5"/>
<text xml:space="preserve" text-anchor="middle" x="738.12" y="-325" font-family="Arial" font-size="10.00" fill="#2e7d32">Filter by tags:</text>
<text xml:space="preserve" text-anchor="middle" x="738.12" y="-313" font-family="Arial" font-size="10.00" fill="#2e7d32">Components, Voice,</text>
<text xml:space="preserve" text-anchor="middle" x="738.12" y="-301" font-family="Arial" font-size="10.00" fill="#2e7d32">Designers Kit, Source</text>
</g>
<!-- step1&#45;&gt;filter_tags -->
<g id="edge2" class="edge">
<title>step1&#45;&gt;filter_tags</title>
<path fill="none" stroke="#4caf50" stroke-width="1.5" d="M644.65,-415C686.33,-415 738.12,-415 738.12,-415 738.12,-415 738.12,-351.12 738.12,-351.12"/>
<polygon fill="#4caf50" stroke="#4caf50" stroke-width="1.5" points="741.63,-351.12 738.13,-341.12 734.63,-351.12 741.63,-351.12"/>
</g>
<!-- step3 -->
<g id="node3" class="node">
<title>step3</title>
<path fill="#4caf50" stroke="black" d="M350.12,-236.5C350.12,-236.5 256.12,-236.5 256.12,-236.5 250.12,-236.5 244.12,-230.5 244.12,-224.5 244.12,-224.5 244.12,-212.5 244.12,-212.5 244.12,-206.5 250.12,-200.5 256.12,-200.5 256.12,-200.5 350.12,-200.5 350.12,-200.5 356.12,-200.5 362.12,-206.5 362.12,-212.5 362.12,-212.5 362.12,-224.5 362.12,-224.5 362.12,-230.5 356.12,-236.5 350.12,-236.5"/>
<text xml:space="preserve" text-anchor="middle" x="303.12" y="-214.22" font-family="Arial Bold" font-size="12.00" fill="white">Step 3: Implement</text>
</g>
<!-- step2&#45;&gt;step3 -->
<g id="edge10" class="edge">
<title>step2&#45;&gt;step3</title>
<path fill="none" stroke="#2196f3" stroke-width="2" d="M395.81,-317C353.93,-317 303.12,-317 303.12,-317 303.12,-317 303.12,-249.59 303.12,-249.59"/>
<polygon fill="#2196f3" stroke="#2196f3" stroke-width="2" points="306.63,-249.59 303.13,-239.59 299.63,-249.59 306.63,-249.59"/>
</g>
<!-- check_license -->
<g id="node7" class="node">
<title>check_license</title>
<polygon fill="#e8f5e9" stroke="black" points="502.38,-236.5 397.88,-236.5 397.88,-200.5 502.38,-200.5 502.38,-236.5"/>
<text xml:space="preserve" text-anchor="middle" x="450.12" y="-221" font-family="Arial" font-size="10.00" fill="#2e7d32">Check open source</text>
<text xml:space="preserve" text-anchor="middle" x="450.12" y="-209" font-family="Arial" font-size="10.00" fill="#2e7d32">license compatibility</text>
</g>
<!-- step2&#45;&gt;check_license -->
<g id="edge3" class="edge">
<title>step2&#45;&gt;check_license</title>
<path fill="none" stroke="#4caf50" stroke-width="1.5" d="M450.12,-298.07C450.12,-298.07 450.12,-249.12 450.12,-249.12"/>
<polygon fill="#4caf50" stroke="#4caf50" stroke-width="1.5" points="453.63,-249.12 450.13,-239.12 446.63,-249.12 453.63,-249.12"/>
</g>
<!-- review_docs -->
<g id="node8" class="node">
<title>review_docs</title>
<polygon fill="#e8f5e9" stroke="black" points="654,-236.5 538.25,-236.5 538.25,-200.5 654,-200.5 654,-236.5"/>
<text xml:space="preserve" text-anchor="middle" x="596.12" y="-221" font-family="Arial" font-size="10.00" fill="#2e7d32">Review documentation</text>
<text xml:space="preserve" text-anchor="middle" x="596.12" y="-209" font-family="Arial" font-size="10.00" fill="#2e7d32">and component library</text>
</g>
<!-- step2&#45;&gt;review_docs -->
<g id="edge4" class="edge">
<title>step2&#45;&gt;review_docs</title>
<path fill="none" stroke="#4caf50" stroke-width="1.5" d="M504.68,-317C509.84,-317 513.19,-317 513.19,-317 513.19,-317 513.19,-219 513.19,-219 513.19,-219 525.8,-219 525.8,-219"/>
<polygon fill="#4caf50" stroke="#4caf50" stroke-width="1.5" points="525.8,-222.5 535.8,-219 525.8,-215.5 525.8,-222.5"/>
</g>
<!-- step4 -->
<g id="node4" class="node">
<title>step4</title>
<path fill="#4caf50" stroke="black" d="M213.88,-142.5C213.88,-142.5 118.38,-142.5 118.38,-142.5 112.38,-142.5 106.38,-136.5 106.38,-130.5 106.38,-130.5 106.38,-118.5 106.38,-118.5 106.38,-112.5 112.38,-106.5 118.38,-106.5 118.38,-106.5 213.88,-106.5 213.88,-106.5 219.88,-106.5 225.88,-112.5 225.88,-118.5 225.88,-118.5 225.88,-130.5 225.88,-130.5 225.88,-136.5 219.88,-142.5 213.88,-142.5"/>
<text xml:space="preserve" text-anchor="middle" x="166.12" y="-120.22" font-family="Arial Bold" font-size="12.00" fill="white">Step 4: Customize</text>
</g>
<!-- step3&#45;&gt;step4 -->
<g id="edge11" class="edge">
<title>step3&#45;&gt;step4</title>
<path fill="none" stroke="#2196f3" stroke-width="2" d="M248.75,-200.37C248.75,-174.74 248.75,-131 248.75,-131 248.75,-131 239.2,-131 239.2,-131"/>
<polygon fill="#2196f3" stroke="#2196f3" stroke-width="2" points="239.2,-127.5 229.2,-131 239.2,-134.5 239.2,-127.5"/>
</g>
<!-- install -->
<g id="node9" class="node">
<title>install</title>
<polygon fill="#e8f5e9" stroke="black" points="344.5,-142.5 261.75,-142.5 261.75,-106.5 344.5,-106.5 344.5,-142.5"/>
<text xml:space="preserve" text-anchor="middle" x="303.12" y="-127" font-family="Arial" font-size="10.00" fill="#2e7d32">Install via npm,</text>
<text xml:space="preserve" text-anchor="middle" x="303.12" y="-115" font-family="Arial" font-size="10.00" fill="#2e7d32">yarn, or CDN</text>
</g>
<!-- step3&#45;&gt;install -->
<g id="edge5" class="edge">
<title>step3&#45;&gt;install</title>
<path fill="none" stroke="#4caf50" stroke-width="1.5" d="M303.12,-200.38C303.12,-200.38 303.12,-155.16 303.12,-155.16"/>
<polygon fill="#4caf50" stroke="#4caf50" stroke-width="1.5" points="306.63,-155.16 303.13,-145.16 299.63,-155.16 306.63,-155.16"/>
</g>
<!-- integrate -->
<g id="node10" class="node">
<title>integrate</title>
<polygon fill="#e8f5e9" stroke="black" points="522.12,-142.5 380.12,-142.5 380.12,-106.5 522.12,-106.5 522.12,-142.5"/>
<text xml:space="preserve" text-anchor="middle" x="451.12" y="-127" font-family="Arial" font-size="10.00" fill="#2e7d32">Integrate with your</text>
<text xml:space="preserve" text-anchor="middle" x="451.12" y="-115" font-family="Arial" font-size="10.00" fill="#2e7d32">framework (React, Vue, etc.)</text>
</g>
<!-- step3&#45;&gt;integrate -->
<g id="edge6" class="edge">
<title>step3&#45;&gt;integrate</title>
<path fill="none" stroke="#4caf50" stroke-width="1.5" d="M362.58,-219C376.85,-219 388.06,-219 388.06,-219 388.06,-219 388.06,-154.99 388.06,-154.99"/>
<polygon fill="#4caf50" stroke="#4caf50" stroke-width="1.5" points="391.56,-154.99 388.06,-144.99 384.56,-154.99 391.56,-154.99"/>
</g>
<!-- theming -->
<g id="node11" class="node">
<title>theming</title>
<polygon fill="#e8f5e9" stroke="black" points="78.25,-42.25 0,-42.25 0,-6.25 78.25,-6.25 78.25,-42.25"/>
<text xml:space="preserve" text-anchor="middle" x="39.12" y="-26.75" font-family="Arial" font-size="10.00" fill="#2e7d32">Apply theming</text>
<text xml:space="preserve" text-anchor="middle" x="39.12" y="-14.75" font-family="Arial" font-size="10.00" fill="#2e7d32">and branding</text>
</g>
<!-- step4&#45;&gt;theming -->
<g id="edge7" class="edge">
<title>step4&#45;&gt;theming</title>
<path fill="none" stroke="#4caf50" stroke-width="1.5" d="M110.5,-106.07C110.5,-77.05 110.5,-24 110.5,-24 110.5,-24 90.84,-24 90.84,-24"/>
<polygon fill="#4caf50" stroke="#4caf50" stroke-width="1.5" points="90.84,-20.5 80.84,-24 90.84,-27.5 90.84,-20.5"/>
</g>
<!-- extend -->
<g id="node12" class="node">
<title>extend</title>
<polygon fill="#e8f5e9" stroke="black" points="217.62,-42.25 114.62,-42.25 114.62,-6.25 217.62,-6.25 217.62,-42.25"/>
<text xml:space="preserve" text-anchor="middle" x="166.12" y="-26.75" font-family="Arial" font-size="10.00" fill="#2e7d32">Extend components</text>
<text xml:space="preserve" text-anchor="middle" x="166.12" y="-14.75" font-family="Arial" font-size="10.00" fill="#2e7d32">for your needs</text>
</g>
<!-- step4&#45;&gt;extend -->
<g id="edge8" class="edge">
<title>step4&#45;&gt;extend</title>
<path fill="none" stroke="#4caf50" stroke-width="1.5" d="M166.12,-106.11C166.12,-106.11 166.12,-54.79 166.12,-54.79"/>
<polygon fill="#4caf50" stroke="#4caf50" stroke-width="1.5" points="169.63,-54.79 166.13,-44.79 162.63,-54.79 169.63,-54.79"/>
</g>
<!-- output -->
<g id="node13" class="node">
<title>output</title>
<path fill="#ff9800" stroke="black" d="M354.88,-48.5C354.88,-48.5 265.38,-48.5 265.38,-48.5 259.38,-48.5 253.38,-42.5 253.38,-36.5 253.38,-36.5 253.38,-12 253.38,-12 253.38,-6 259.38,0 265.38,0 265.38,0 354.88,0 354.88,0 360.88,0 366.88,-6 366.88,-12 366.88,-12 366.88,-36.5 366.88,-36.5 366.88,-42.5 360.88,-48.5 354.88,-48.5"/>
<text xml:space="preserve" text-anchor="middle" x="310.12" y="-34.05" font-family="Arial" font-size="11.00" fill="white">Consistent UI</text>
<text xml:space="preserve" text-anchor="middle" x="310.12" y="-20.55" font-family="Arial" font-size="11.00" fill="white">Faster Development</text>
<text xml:space="preserve" text-anchor="middle" x="310.12" y="-7.05" font-family="Arial" font-size="11.00" fill="white">Better UX</text>
</g>
<!-- step4&#45;&gt;output -->
<g id="edge12" class="edge">
<title>step4&#45;&gt;output</title>
<path fill="none" stroke="#ff9800" stroke-width="2" d="M226.35,-119C243.47,-119 257.56,-119 257.56,-119 257.56,-119 257.56,-61.68 257.56,-61.68"/>
<polygon fill="#ff9800" stroke="#ff9800" stroke-width="2" points="261.06,-61.68 257.56,-51.68 254.06,-61.68 261.06,-61.68"/>
</g>
</g>
</svg>
