<?xml version="1.0" encoding="UTF-8" standalone="no"?>
<!DOCTYPE svg PUBLIC "-//W3C//DTD SVG 1.1//EN"
 "http://www.w3.org/Graphics/SVG/1.1/DTD/svg11.dtd">
<!-- Generated by graphviz version 14.1.2 (0)
 -->
<!-- Title: features Pages: 1 -->
<svg width="1212pt" height="210pt"
 viewBox="0.00 0.00 1212.00 210.00" xmlns="http://www.w3.org/2000/svg" xmlns:xlink="http://www.w3.org/1999/xlink">
<g id="graph0" class="graph" transform="scale(1 1) rotate(0) translate(4 206)">
<title>features</title>
<polygon fill="white" stroke="none" points="-4,4 -4,-206 1208.38,-206 1208.38,4 -4,4"/>
<!-- chat -->
<g id="node1" class="node">
<title>chat</title>
<path fill="#2196f3" stroke="black" d="M122.62,-202C122.62,-202 62.38,-202 62.38,-202 56.38,-202 50.38,-196 50.38,-190 50.38,-190 50.38,-178 50.38,-178 50.38,-172 56.38,-166 62.38,-166 62.38,-166 122.62,-166 122.62,-166 128.62,-166 134.62,-172 134.62,-178 134.62,-178 134.62,-190 134.62,-190 134.62,-196 128.62,-202 122.62,-202"/>
<text xml:space="preserve" text-anchor="middle" x="92.5" y="-187.05" font-family="Arial Bold" font-size="11.00" fill="white">Chat Sidebar</text>
<text xml:space="preserve" text-anchor="middle" x="92.5" y="-173.55" font-family="Arial Bold" font-size="11.00" fill="white">Multi&#45;Tab</text>
</g>
<!-- tabs -->
<g id="node7" class="node">
<title>tabs</title>
<path fill="#4caf50" stroke="black" d="M67,-123C67,-123 12,-123 12,-123 6,-123 0,-117 0,-111 0,-111 0,-99 0,-99 0,-93 6,-87 12,-87 12,-87 67,-87 67,-87 73,-87 79,-93 79,-99 79,-99 79,-111 79,-111 79,-117 73,-123 67,-123"/>
<text xml:space="preserve" text-anchor="middle" x="39.5" y="-107.5" font-family="Arial" font-size="10.00" fill="white">Multiple Tabs</text>
<text xml:space="preserve" text-anchor="middle" x="39.5" y="-95.5" font-family="Arial" font-size="10.00" fill="white">Conversations</text>
</g>
<!-- chat&#45;&gt;tabs -->
<g id="edge1" class="edge">
<title>chat&#45;&gt;tabs</title>
<path fill="none" stroke="#4caf50" stroke-width="1.5" d="M64.69,-165.68C64.69,-165.68 64.69,-135.77 64.69,-135.77"/>
<polygon fill="#4caf50" stroke="#4caf50" stroke-width="1.5" points="68.19,-135.77 64.69,-125.77 61.19,-135.77 68.19,-135.77"/>
</g>
<!-- history -->
<g id="node8" class="node">
<title>history</title>
<path fill="#4caf50" stroke="black" d="M171.12,-123C171.12,-123 119.88,-123 119.88,-123 113.88,-123 107.88,-117 107.88,-111 107.88,-111 107.88,-99 107.88,-99 107.88,-93 113.88,-87 119.88,-87 119.88,-87 171.12,-87 171.12,-87 177.12,-87 183.12,-93 183.12,-99 183.12,-99 183.12,-111 183.12,-111 183.12,-117 177.12,-123 171.12,-123"/>
<text xml:space="preserve" text-anchor="middle" x="145.5" y="-107.5" font-family="Arial" font-size="10.00" fill="white">History</text>
<text xml:space="preserve" text-anchor="middle" x="145.5" y="-95.5" font-family="Arial" font-size="10.00" fill="white">Fork/Resume</text>
</g>
<!-- chat&#45;&gt;history -->
<g id="edge2" class="edge">
<title>chat&#45;&gt;history</title>
<path fill="none" stroke="#4caf50" stroke-width="1.5" d="M121.25,-165.68C121.25,-165.68 121.25,-135.77 121.25,-135.77"/>
<polygon fill="#4caf50" stroke="#4caf50" stroke-width="1.5" points="124.75,-135.77 121.25,-125.77 117.75,-135.77 124.75,-135.77"/>
</g>
<!-- inline -->
<g id="node2" class="node">
<title>inline</title>
<path fill="#2196f3" stroke="black" d="M318.75,-202C318.75,-202 274.25,-202 274.25,-202 268.25,-202 262.25,-196 262.25,-190 262.25,-190 262.25,-178 262.25,-178 262.25,-172 268.25,-166 274.25,-166 274.25,-166 318.75,-166 318.75,-166 324.75,-166 330.75,-172 330.75,-178 330.75,-178 330.75,-190 330.75,-190 330.75,-196 324.75,-202 318.75,-202"/>
<text xml:space="preserve" text-anchor="middle" x="296.5" y="-187.05" font-family="Arial Bold" font-size="11.00" fill="white">Inline Edit</text>
<text xml:space="preserve" text-anchor="middle" x="296.5" y="-173.55" font-family="Arial Bold" font-size="11.00" fill="white">Word Diff</text>
</g>
<!-- sel -->
<g id="node9" class="node">
<title>sel</title>
<path fill="#4caf50" stroke="black" d="M282.88,-123C282.88,-123 224.12,-123 224.12,-123 218.12,-123 212.12,-117 212.12,-111 212.12,-111 212.12,-99 212.12,-99 212.12,-93 218.12,-87 224.12,-87 224.12,-87 282.88,-87 282.88,-87 288.88,-87 294.88,-93 294.88,-99 294.88,-99 294.88,-111 294.88,-111 294.88,-117 288.88,-123 282.88,-123"/>
<text xml:space="preserve" text-anchor="middle" x="253.5" y="-107.5" font-family="Arial" font-size="10.00" fill="white">Text Selection</text>
<text xml:space="preserve" text-anchor="middle" x="253.5" y="-95.5" font-family="Arial" font-size="10.00" fill="white">Cursor Context</text>
</g>
<!-- inline&#45;&gt;sel -->
<g id="edge3" class="edge">
<title>inline&#45;&gt;sel</title>
<path fill="none" stroke="#4caf50" stroke-width="1.5" d="M278.56,-165.68C278.56,-165.68 278.56,-135.77 278.56,-135.77"/>
<polygon fill="#4caf50" stroke="#4caf50" stroke-width="1.5" points="282.06,-135.77 278.56,-125.77 275.06,-135.77 282.06,-135.77"/>
</g>
<!-- diff -->
<g id="node10" class="node">
<title>diff</title>
<path fill="#4caf50" stroke="black" d="M365.5,-123C365.5,-123 335.5,-123 335.5,-123 329.5,-123 323.5,-117 323.5,-111 323.5,-111 323.5,-99 323.5,-99 323.5,-93 329.5,-87 335.5,-87 335.5,-87 365.5,-87 365.5,-87 371.5,-87 377.5,-93 377.5,-99 377.5,-99 377.5,-111 377.5,-111 377.5,-117 371.5,-123 365.5,-123"/>
<text xml:space="preserve" text-anchor="middle" x="350.5" y="-107.5" font-family="Arial" font-size="10.00" fill="white">Live Diff</text>
<text xml:space="preserve" text-anchor="middle" x="350.5" y="-95.5" font-family="Arial" font-size="10.00" fill="white">Preview</text>
</g>
<!-- inline&#45;&gt;diff -->
<g id="edge4" class="edge">
<title>inline&#45;&gt;diff</title>
<path fill="none" stroke="#4caf50" stroke-width="1.5" d="M327.12,-165.68C327.12,-165.68 327.12,-135.77 327.12,-135.77"/>
<polygon fill="#4caf50" stroke="#4caf50" stroke-width="1.5" points="330.63,-135.77 327.13,-125.77 323.63,-135.77 330.63,-135.77"/>
</g>
<!-- slash -->
<g id="node3" class="node">
<title>slash</title>
<path fill="#2196f3" stroke="black" d="M558.62,-202C558.62,-202 474.38,-202 474.38,-202 468.38,-202 462.38,-196 462.38,-190 462.38,-190 462.38,-178 462.38,-178 462.38,-172 468.38,-166 474.38,-166 474.38,-166 558.62,-166 558.62,-166 564.62,-166 570.62,-172 570.62,-178 570.62,-178 570.62,-190 570.62,-190 570.62,-196 564.62,-202 558.62,-202"/>
<text xml:space="preserve" text-anchor="middle" x="516.5" y="-187.05" font-family="Arial Bold" font-size="11.00" fill="white">Slash Commands</text>
<text xml:space="preserve" text-anchor="middle" x="516.5" y="-173.55" font-family="Arial Bold" font-size="11.00" fill="white">/ and $</text>
</g>
<!-- vault_cmd -->
<g id="node11" class="node">
<title>vault_cmd</title>
<path fill="#ff9800" stroke="black" d="M496.25,-123C496.25,-123 418.75,-123 418.75,-123 412.75,-123 406.75,-117 406.75,-111 406.75,-111 406.75,-99 406.75,-99 406.75,-93 412.75,-87 418.75,-87 418.75,-87 496.25,-87 496.25,-87 502.25,-87 508.25,-93 508.25,-99 508.25,-99 508.25,-111 508.25,-111 508.25,-117 502.25,-123 496.25,-123"/>
<text xml:space="preserve" text-anchor="middle" x="457.5" y="-107.5" font-family="Arial" font-size="10.00" fill="white">Vault Commands</text>
<text xml:space="preserve" text-anchor="middle" x="457.5" y="-95.5" font-family="Arial" font-size="10.00" fill="white">.claude/commands/</text>
</g>
<!-- slash&#45;&gt;vault_cmd -->
<g id="edge5" class="edge">
<title>slash&#45;&gt;vault_cmd</title>
<path fill="none" stroke="#ff9800" stroke-width="1.5" d="M485.31,-165.68C485.31,-165.68 485.31,-135.77 485.31,-135.77"/>
<polygon fill="#ff9800" stroke="#ff9800" stroke-width="1.5" points="488.81,-135.77 485.31,-125.77 481.81,-135.77 488.81,-135.77"/>
</g>
<!-- skills -->
<g id="node12" class="node">
<title>skills</title>
<path fill="#ff9800" stroke="black" d="M601.5,-123C601.5,-123 549.5,-123 549.5,-123 543.5,-123 537.5,-117 537.5,-111 537.5,-111 537.5,-99 537.5,-99 537.5,-93 543.5,-87 549.5,-87 549.5,-87 601.5,-87 601.5,-87 607.5,-87 613.5,-93 613.5,-99 613.5,-99 613.5,-111 613.5,-111 613.5,-117 607.5,-123 601.5,-123"/>
<text xml:space="preserve" text-anchor="middle" x="575.5" y="-107.5" font-family="Arial" font-size="10.00" fill="white">Skills</text>
<text xml:space="preserve" text-anchor="middle" x="575.5" y="-95.5" font-family="Arial" font-size="10.00" fill="white">.claude/skills/</text>
</g>
<!-- slash&#45;&gt;skills -->
<g id="edge6" class="edge">
<title>slash&#45;&gt;skills</title>
<path fill="none" stroke="#ff9800" stroke-width="1.5" d="M554.06,-165.68C554.06,-165.68 554.06,-135.77 554.06,-135.77"/>
<polygon fill="#ff9800" stroke="#ff9800" stroke-width="1.5" points="557.56,-135.77 554.06,-125.77 550.56,-135.77 557.56,-135.77"/>
</g>
<!-- mention -->
<g id="node4" class="node">
<title>mention</title>
<path fill="#2196f3" stroke="black" d="M791.25,-202C791.25,-202 737.75,-202 737.75,-202 731.75,-202 725.75,-196 725.75,-190 725.75,-190 725.75,-178 725.75,-178 725.75,-172 731.75,-166 737.75,-166 737.75,-166 791.25,-166 791.25,-166 797.25,-166 803.25,-172 803.25,-178 803.25,-178 803.25,-190 803.25,-190 803.25,-196 797.25,-202 791.25,-202"/>
<text xml:space="preserve" text-anchor="middle" x="764.5" y="-187.05" font-family="Arial Bold" font-size="11.00" fill="white">@ Mentions</text>
<text xml:space="preserve" text-anchor="middle" x="764.5" y="-173.55" font-family="Arial Bold" font-size="11.00" fill="white">Context</text>
</g>
<!-- files -->
<g id="node13" class="node">
<title>files</title>
<path fill="#ff9800" stroke="black" d="M692.38,-123C692.38,-123 654.62,-123 654.62,-123 648.62,-123 642.62,-117 642.62,-111 642.62,-111 642.62,-99 642.62,-99 642.62,-93 648.62,-87 654.62,-87 654.62,-87 692.38,-87 692.38,-87 698.38,-87 704.38,-93 704.38,-99 704.38,-99 704.38,-111 704.38,-111 704.38,-117 698.38,-123 692.38,-123"/>
<text xml:space="preserve" text-anchor="middle" x="673.5" y="-107.5" font-family="Arial" font-size="10.00" fill="white">Vault Files</text>
<text xml:space="preserve" text-anchor="middle" x="673.5" y="-95.5" font-family="Arial" font-size="10.00" fill="white">@file</text>
</g>
<!-- mention&#45;&gt;files -->
<g id="edge7" class="edge">
<title>mention&#45;&gt;files</title>
<path fill="none" stroke="#ff9800" stroke-width="1.5" d="M729.5,-165.68C729.5,-142.34 729.5,-105 729.5,-105 729.5,-105 717.04,-105 717.04,-105"/>
<polygon fill="#ff9800" stroke="#ff9800" stroke-width="1.5" points="717.04,-101.5 707.04,-105 717.04,-108.5 717.04,-101.5"/>
</g>
<!-- agents -->
<g id="node14" class="node">
<title>agents</title>
<path fill="#ff9800" stroke="black" d="M783.75,-123C783.75,-123 745.25,-123 745.25,-123 739.25,-123 733.25,-117 733.25,-111 733.25,-111 733.25,-99 733.25,-99 733.25,-93 739.25,-87 745.25,-87 745.25,-87 783.75,-87 783.75,-87 789.75,-87 795.75,-93 795.75,-99 795.75,-99 795.75,-111 795.75,-111 795.75,-117 789.75,-123 783.75,-123"/>
<text xml:space="preserve" text-anchor="middle" x="764.5" y="-107.5" font-family="Arial" font-size="10.00" fill="white">Subagents</text>
<text xml:space="preserve" text-anchor="middle" x="764.5" y="-95.5" font-family="Arial" font-size="10.00" fill="white">@agent</text>
</g>
<!-- mention&#45;&gt;agents -->
<g id="edge8" class="edge">
<title>mention&#45;&gt;agents</title>
<path fill="none" stroke="#ff9800" stroke-width="1.5" d="M764.5,-165.68C764.5,-165.68 764.5,-135.77 764.5,-135.77"/>
<polygon fill="#ff9800" stroke="#ff9800" stroke-width="1.5" points="768,-135.77 764.5,-125.77 761,-135.77 768,-135.77"/>
</g>
<!-- external -->
<g id="node15" class="node">
<title>external</title>
<path fill="#ff9800" stroke="black" d="M888.5,-123C888.5,-123 836.5,-123 836.5,-123 830.5,-123 824.5,-117 824.5,-111 824.5,-111 824.5,-99 824.5,-99 824.5,-93 830.5,-87 836.5,-87 836.5,-87 888.5,-87 888.5,-87 894.5,-87 900.5,-93 900.5,-99 900.5,-99 900.5,-111 900.5,-111 900.5,-117 894.5,-123 888.5,-123"/>
<text xml:space="preserve" text-anchor="middle" x="862.5" y="-107.5" font-family="Arial" font-size="10.00" fill="white">External Files</text>
<text xml:space="preserve" text-anchor="middle" x="862.5" y="-95.5" font-family="Arial" font-size="10.00" fill="white">Directories</text>
</g>
<!-- mention&#45;&gt;external -->
<g id="edge9" class="edge">
<title>mention&#45;&gt;external</title>
<path fill="none" stroke="#ff9800" stroke-width="1.5" d="M799.5,-165.68C799.5,-142.34 799.5,-105 799.5,-105 799.5,-105 811.77,-105 811.77,-105"/>
<polygon fill="#ff9800" stroke="#ff9800" stroke-width="1.5" points="811.77,-108.5 821.77,-105 811.77,-101.5 811.77,-108.5"/>
</g>
<!-- plan -->
<g id="node5" class="node">
<title>plan</title>
<path fill="#2196f3" stroke="black" d="M945.38,-202C945.38,-202 889.62,-202 889.62,-202 883.62,-202 877.62,-196 877.62,-190 877.62,-190 877.62,-178 877.62,-178 877.62,-172 883.62,-166 889.62,-166 889.62,-166 945.38,-166 945.38,-166 951.38,-166 957.38,-172 957.38,-178 957.38,-178 957.38,-190 957.38,-190 957.38,-196 951.38,-202 945.38,-202"/>
<text xml:space="preserve" text-anchor="middle" x="917.5" y="-187.05" font-family="Arial Bold" font-size="11.00" fill="white">Plan Mode</text>
<text xml:space="preserve" text-anchor="middle" x="917.5" y="-173.55" font-family="Arial Bold" font-size="11.00" fill="white">Design First</text>
</g>
<!-- mcp -->
<g id="node6" class="node">
<title>mcp</title>
<path fill="#2196f3" stroke="black" d="M1109,-202C1109,-202 1042,-202 1042,-202 1036,-202 1030,-196 1030,-190 1030,-190 1030,-178 1030,-178 1030,-172 1036,-166 1042,-166 1042,-166 1109,-166 1109,-166 1115,-166 1121,-172 1121,-178 1121,-178 1121,-190 1121,-190 1121,-196 1115,-202 1109,-202"/>
<text xml:space="preserve" text-anchor="middle" x="1075.5" y="-187.05" font-family="Arial Bold" font-size="11.00" fill="white">MCP Servers</text>
<text xml:space="preserve" text-anchor="middle" x="1075.5" y="-173.55" font-family="Arial Bold" font-size="11.00" fill="white">External Tools</text>
</g>
<!-- stdio -->
<g id="node16" class="node">
<title>stdio</title>
<path fill="#ff9800" stroke="black" d="M995.62,-123C995.62,-123 941.38,-123 941.38,-123 935.38,-123 929.38,-117 929.38,-111 929.38,-111 929.38,-99 929.38,-99 929.38,-93 935.38,-87 941.38,-87 941.38,-87 995.62,-87 995.62,-87 1001.62,-87 1007.62,-93 1007.62,-99 1007.62,-99 1007.62,-111 1007.62,-111 1007.62,-117 1001.62,-123 995.62,-123"/>
<text xml:space="preserve" text-anchor="middle" x="968.5" y="-107.5" font-family="Arial" font-size="10.00" fill="white">stdio</text>
<text xml:space="preserve" text-anchor="middle" x="968.5" y="-95.5" font-family="Arial" font-size="10.00" fill="white">Local Process</text>
</g>
<!-- mcp&#45;&gt;stdio -->
<g id="edge10" class="edge">
<title>mcp&#45;&gt;stdio</title>
<path fill="none" stroke="#ff9800" stroke-width="1.5" d="M1033.56,-165.68C1033.56,-142.34 1033.56,-105 1033.56,-105 1033.56,-105 1020.12,-105 1020.12,-105"/>
<polygon fill="#ff9800" stroke="#ff9800" stroke-width="1.5" points="1020.12,-101.5 1010.12,-105 1020.12,-108.5 1020.12,-101.5"/>
</g>
<!-- sse -->
<g id="node17" class="node">
<title>sse</title>
<path fill="#ff9800" stroke="black" d="M1101.88,-123C1101.88,-123 1049.12,-123 1049.12,-123 1043.12,-123 1037.12,-117 1037.12,-111 1037.12,-111 1037.12,-99 1037.12,-99 1037.12,-93 1043.12,-87 1049.12,-87 1049.12,-87 1101.88,-87 1101.88,-87 1107.88,-87 1113.88,-93 1113.88,-99 1113.88,-99 1113.88,-111 1113.88,-111 1113.88,-117 1107.88,-123 1101.88,-123"/>
<text xml:space="preserve" text-anchor="middle" x="1075.5" y="-107.5" font-family="Arial" font-size="10.00" fill="white">SSE</text>
<text xml:space="preserve" text-anchor="middle" x="1075.5" y="-95.5" font-family="Arial" font-size="10.00" fill="white">HTTP Stream</text>
</g>
<!-- mcp&#45;&gt;sse -->
<g id="edge11" class="edge">
<title>mcp&#45;&gt;sse</title>
<path fill="none" stroke="#ff9800" stroke-width="1.5" d="M1075.5,-165.68C1075.5,-165.68 1075.5,-135.77 1075.5,-135.77"/>
<polygon fill="#ff9800" stroke="#ff9800" stroke-width="1.5" points="1079,-135.77 1075.5,-125.77 1072,-135.77 1079,-135.77"/>
</g>
<!-- http -->
<g id="node18" class="node">
<title>http</title>
<path fill="#ff9800" stroke="black" d="M1192.38,-123C1192.38,-123 1154.62,-123 1154.62,-123 1148.62,-123 1142.62,-117 1142.62,-111 1142.62,-111 1142.62,-99 1142.62,-99 1142.62,-93 1148.62,-87 1154.62,-87 1154.62,-87 1192.38,-87 1192.38,-87 1198.38,-87 1204.38,-93 1204.38,-99 1204.38,-99 1204.38,-111 1204.38,-111 1204.38,-117 1198.38,-123 1192.38,-123"/>
<text xml:space="preserve" text-anchor="middle" x="1173.5" y="-107.5" font-family="Arial" font-size="10.00" fill="white">HTTP</text>
<text xml:space="preserve" text-anchor="middle" x="1173.5" y="-95.5" font-family="Arial" font-size="10.00" fill="white">REST API</text>
</g>
<!-- mcp&#45;&gt;http -->
<g id="edge12" class="edge">
<title>mcp&#45;&gt;http</title>
<path fill="none" stroke="#ff9800" stroke-width="1.5" d="M1117.44,-165.68C1117.44,-142.34 1117.44,-105 1117.44,-105 1117.44,-105 1129.92,-105 1129.92,-105"/>
<polygon fill="#ff9800" stroke="#ff9800" stroke-width="1.5" points="1129.92,-108.5 1139.92,-105 1129.92,-101.5 1129.92,-108.5"/>
</g>
<!-- session_store -->
<g id="node19" class="node">
<title>session_store</title>
<path fill="#9c27b0" stroke="black" d="M183.12,-40C183.12,-42.21 166.26,-44 145.5,-44 124.74,-44 107.88,-42.21 107.88,-40 107.88,-40 107.88,-4 107.88,-4 107.88,-1.79 124.74,0 145.5,0 166.26,0 183.12,-1.79 183.12,-4 183.12,-4 183.12,-40 183.12,-40"/>
<path fill="none" stroke="black" d="M183.12,-40C183.12,-37.79 166.26,-36 145.5,-36 124.74,-36 107.88,-37.79 107.88,-40"/>
<text xml:space="preserve" text-anchor="middle" x="145.5" y="-24.5" font-family="Arial" font-size="10.00" fill="white">Session Data</text>
<text xml:space="preserve" text-anchor="middle" x="145.5" y="-12.5" font-family="Arial" font-size="10.00" fill="white">.claudian/</text>
</g>
<!-- history&#45;&gt;session_store -->
<g id="edge13" class="edge">
<title>history&#45;&gt;session_store</title>
<path fill="none" stroke="#9c27b0" stroke-width="1.5" d="M145.5,-86.58C145.5,-86.58 145.5,-56.48 145.5,-56.48"/>
<polygon fill="#9c27b0" stroke="#9c27b0" stroke-width="1.5" points="149,-56.48 145.5,-46.48 142,-56.48 149,-56.48"/>
</g>
</g>
</svg>
