<?xml version="1.0" encoding="UTF-8" standalone="no"?>
<!DOCTYPE svg PUBLIC "-//W3C//DTD SVG 1.1//EN"
 "http://www.w3.org/Graphics/SVG/1.1/DTD/svg11.dtd">
<!-- Generated by graphviz version 14.1.2 (0)
 -->
<!-- Title: cloakbrowser_humanize Pages: 1 -->
<svg width="646pt" height="474pt"
 viewBox="0.00 0.00 646.00 474.00" xmlns="http://www.w3.org/2000/svg" xmlns:xlink="http://www.w3.org/1999/xlink">
<g id="graph0" class="graph" transform="scale(1 1) rotate(0) translate(4 469.75)">
<title>cloakbrowser_humanize</title>
<text xml:space="preserve" text-anchor="middle" x="319.12" y="-7.2" font-family="Times New Roman,serif" font-size="14.00">CloakBrowser Humanize System</text>
<!-- entry -->
<g id="node1" class="node">
<title>entry</title>
<polygon fill="#4caf50" stroke="black" points="396.88,-465.75 266.12,-465.75 266.12,-429.75 396.88,-429.75 396.88,-465.75"/>
<text xml:space="preserve" text-anchor="middle" x="331.5" y="-450.8" font-family="Arial" font-size="11.00" fill="white">launch(humanize=True)</text>
<text xml:space="preserve" text-anchor="middle" x="331.5" y="-437.3" font-family="Arial" font-size="11.00" fill="white">or humanize=True in JS</text>
</g>
<!-- config -->
<g id="node2" class="node">
<title>config</title>
<path fill="#2196f3" stroke="black" d="M399.88,-379.75C399.88,-379.75 263.12,-379.75 263.12,-379.75 257.12,-379.75 251.12,-373.75 251.12,-367.75 251.12,-367.75 251.12,-341 251.12,-341 251.12,-335 257.12,-329 263.12,-329 263.12,-329 399.88,-329 399.88,-329 405.88,-329 411.88,-335 411.88,-341 411.88,-341 411.88,-367.75 411.88,-367.75 411.88,-373.75 405.88,-379.75 399.88,-379.75"/>
<text xml:space="preserve" text-anchor="middle" x="331.5" y="-364.35" font-family="Arial Bold" font-size="12.00" fill="white">HumanConfig Resolution</text>
<text xml:space="preserve" text-anchor="middle" x="331.5" y="-350.1" font-family="Arial Bold" font-size="12.00" fill="white">Preset: default / careful</text>
<text xml:space="preserve" text-anchor="middle" x="331.5" y="-335.85" font-family="Arial Bold" font-size="12.00" fill="white">+ Custom Overrides</text>
</g>
<!-- entry&#45;&gt;config -->
<g id="edge1" class="edge">
<title>entry&#45;&gt;config</title>
<path fill="none" stroke="#4caf50" stroke-width="2" d="M331.5,-429.3C331.5,-429.3 331.5,-393.23 331.5,-393.23"/>
<polygon fill="#4caf50" stroke="#4caf50" stroke-width="2" points="335,-393.23 331.5,-383.23 328,-393.23 335,-393.23"/>
</g>
<!-- mouse -->
<g id="node3" class="node">
<title>mouse</title>
<path fill="#ff9800" stroke="black" d="M133,-279C133,-279 12,-279 12,-279 6,-279 0,-273 0,-267 0,-267 0,-229 0,-229 0,-223 6,-217 12,-217 12,-217 133,-217 133,-217 139,-217 145,-223 145,-229 145,-229 145,-267 145,-267 145,-273 139,-279 133,-279"/>
<text xml:space="preserve" text-anchor="middle" x="72.5" y="-264.55" font-family="Arial" font-size="11.00" fill="white">Mouse Subsystem</text>
<text xml:space="preserve" text-anchor="middle" x="72.5" y="-251.05" font-family="Arial" font-size="11.00" fill="white">Bezier Curves</text>
<text xml:space="preserve" text-anchor="middle" x="72.5" y="-237.55" font-family="Arial" font-size="11.00" fill="white">Overshoot + Wobble</text>
<text xml:space="preserve" text-anchor="middle" x="72.5" y="-224.05" font-family="Arial" font-size="11.00" fill="white">Aim Delay + Hold Duration</text>
</g>
<!-- config&#45;&gt;mouse -->
<g id="edge2" class="edge">
<title>config&#45;&gt;mouse</title>
<path fill="none" stroke="#2196f3" stroke-width="1.5" d="M250.97,-354.5C174.94,-354.5 72.5,-354.5 72.5,-354.5 72.5,-354.5 72.5,-291.65 72.5,-291.65"/>
<polygon fill="#2196f3" stroke="#2196f3" stroke-width="1.5" points="76,-291.65 72.5,-281.65 69,-291.65 76,-291.65"/>
</g>
<!-- keyboard -->
<g id="node4" class="node">
<title>keyboard</title>
<path fill="#ff9800" stroke="black" d="M307.62,-279C307.62,-279 193.38,-279 193.38,-279 187.38,-279 181.38,-273 181.38,-267 181.38,-267 181.38,-229 181.38,-229 181.38,-223 187.38,-217 193.38,-217 193.38,-217 307.62,-217 307.62,-217 313.62,-217 319.62,-223 319.62,-229 319.62,-229 319.62,-267 319.62,-267 319.62,-273 313.62,-279 307.62,-279"/>
<text xml:space="preserve" text-anchor="middle" x="250.5" y="-264.55" font-family="Arial" font-size="11.00" fill="white">Keyboard Subsystem</text>
<text xml:space="preserve" text-anchor="middle" x="250.5" y="-251.05" font-family="Arial" font-size="11.00" fill="white">Per&#45;Character Timing</text>
<text xml:space="preserve" text-anchor="middle" x="250.5" y="-237.55" font-family="Arial" font-size="11.00" fill="white">Thinking Pauses</text>
<text xml:space="preserve" text-anchor="middle" x="250.5" y="-224.05" font-family="Arial" font-size="11.00" fill="white">Mistype + Self&#45;Correction</text>
</g>
<!-- config&#45;&gt;keyboard -->
<g id="edge3" class="edge">
<title>config&#45;&gt;keyboard</title>
<path fill="none" stroke="#2196f3" stroke-width="1.5" d="M285.38,-328.62C285.38,-328.62 285.38,-291.47 285.38,-291.47"/>
<polygon fill="#2196f3" stroke="#2196f3" stroke-width="1.5" points="288.88,-291.47 285.38,-281.47 281.88,-291.47 288.88,-291.47"/>
</g>
<!-- scroll -->
<g id="node5" class="node">
<title>scroll</title>
<path fill="#ff9800" stroke="black" d="M459,-279C459,-279 368,-279 368,-279 362,-279 356,-273 356,-267 356,-267 356,-229 356,-229 356,-223 362,-217 368,-217 368,-217 459,-217 459,-217 465,-217 471,-223 471,-229 471,-229 471,-267 471,-267 471,-273 465,-279 459,-279"/>
<text xml:space="preserve" text-anchor="middle" x="413.5" y="-264.55" font-family="Arial" font-size="11.00" fill="white">Scroll Subsystem</text>
<text xml:space="preserve" text-anchor="middle" x="413.5" y="-251.05" font-family="Arial" font-size="11.00" fill="white">Accelerate &#45;&gt; Cruise</text>
<text xml:space="preserve" text-anchor="middle" x="413.5" y="-237.55" font-family="Arial" font-size="11.00" fill="white">&#45;&gt; Decelerate</text>
<text xml:space="preserve" text-anchor="middle" x="413.5" y="-224.05" font-family="Arial" font-size="11.00" fill="white">Overshoot + Settle</text>
</g>
<!-- config&#45;&gt;scroll -->
<g id="edge4" class="edge">
<title>config&#45;&gt;scroll</title>
<path fill="none" stroke="#2196f3" stroke-width="1.5" d="M383.94,-328.62C383.94,-328.62 383.94,-291.47 383.94,-291.47"/>
<polygon fill="#2196f3" stroke="#2196f3" stroke-width="1.5" points="387.44,-291.47 383.94,-281.47 380.44,-291.47 387.44,-291.47"/>
</g>
<!-- presets -->
<g id="node8" class="node">
<title>presets</title>
<path fill="#607d8b" stroke="black" d="M626.25,-276C626.25,-276 518.75,-276 518.75,-276 512.75,-276 506.75,-270 506.75,-264 506.75,-264 506.75,-232 506.75,-232 506.75,-226 512.75,-220 518.75,-220 518.75,-220 626.25,-220 626.25,-220 632.25,-220 638.25,-226 638.25,-232 638.25,-232 638.25,-264 638.25,-264 638.25,-270 632.25,-276 626.25,-276"/>
<text xml:space="preserve" text-anchor="middle" x="572.5" y="-262.5" font-family="Arial" font-size="10.00" fill="white">Presets</text>
<text xml:space="preserve" text-anchor="middle" x="572.5" y="-250.5" font-family="Arial" font-size="10.00" fill="white">default: Normal Speed</text>
<text xml:space="preserve" text-anchor="middle" x="572.5" y="-238.5" font-family="Arial" font-size="10.00" fill="white">careful: Slower, Deliberate</text>
<text xml:space="preserve" text-anchor="middle" x="572.5" y="-226.5" font-family="Arial" font-size="10.00" fill="white">+ Custom Config Dict</text>
</g>
<!-- config&#45;&gt;presets -->
<g id="edge5" class="edge">
<title>config&#45;&gt;presets</title>
<path fill="none" stroke="#607d8b" stroke-dasharray="5,2" d="M412.08,-354.5C482.14,-354.5 572.5,-354.5 572.5,-354.5 572.5,-354.5 572.5,-287.77 572.5,-287.77"/>
<polygon fill="#607d8b" stroke="#607d8b" points="576,-287.77 572.5,-277.77 569,-287.77 576,-287.77"/>
</g>
<!-- patching -->
<g id="node6" class="node">
<title>patching</title>
<path fill="#9c27b0" stroke="black" d="M305.38,-167C305.38,-167 195.62,-167 195.62,-167 189.62,-167 183.62,-161 183.62,-155 183.62,-155 183.62,-130.5 183.62,-130.5 183.62,-124.5 189.62,-118.5 195.62,-118.5 195.62,-118.5 305.38,-118.5 305.38,-118.5 311.38,-118.5 317.38,-124.5 317.38,-130.5 317.38,-130.5 317.38,-155 317.38,-155 317.38,-161 311.38,-167 305.38,-167"/>
<text xml:space="preserve" text-anchor="middle" x="250.5" y="-152.55" font-family="Arial" font-size="11.00" fill="white">Playwright/Puppeteer</text>
<text xml:space="preserve" text-anchor="middle" x="250.5" y="-139.05" font-family="Arial" font-size="11.00" fill="white">API Patching</text>
<text xml:space="preserve" text-anchor="middle" x="250.5" y="-125.55" font-family="Arial" font-size="11.00" fill="white">page.click() / fill() / type()</text>
</g>
<!-- mouse&#45;&gt;patching -->
<g id="edge6" class="edge">
<title>mouse&#45;&gt;patching</title>
<path fill="none" stroke="#9c27b0" stroke-width="1.5" d="M72.5,-216.63C72.5,-185.53 72.5,-142.5 72.5,-142.5 72.5,-142.5 170.94,-142.5 170.94,-142.5"/>
<polygon fill="#9c27b0" stroke="#9c27b0" stroke-width="1.5" points="170.94,-146 180.94,-142.5 170.94,-139 170.94,-146"/>
</g>
<!-- keyboard&#45;&gt;patching -->
<g id="edge7" class="edge">
<title>keyboard&#45;&gt;patching</title>
<path fill="none" stroke="#9c27b0" stroke-width="1.5" d="M250.5,-216.71C250.5,-216.71 250.5,-179.68 250.5,-179.68"/>
<polygon fill="#9c27b0" stroke="#9c27b0" stroke-width="1.5" points="254,-179.68 250.5,-169.68 247,-179.68 254,-179.68"/>
</g>
<!-- scroll&#45;&gt;patching -->
<g id="edge8" class="edge">
<title>scroll&#45;&gt;patching</title>
<path fill="none" stroke="#9c27b0" stroke-width="1.5" d="M413.5,-216.63C413.5,-185.53 413.5,-142.5 413.5,-142.5 413.5,-142.5 330.01,-142.5 330.01,-142.5"/>
<polygon fill="#9c27b0" stroke="#9c27b0" stroke-width="1.5" points="330.01,-139 320.01,-142.5 330.01,-146 330.01,-139"/>
</g>
<!-- detection -->
<g id="node7" class="node">
<title>detection</title>
<path fill="#4caf50" stroke="black" d="M291.88,-68.5C291.88,-68.5 209.12,-68.5 209.12,-68.5 203.12,-68.5 197.12,-62.5 197.12,-56.5 197.12,-56.5 197.12,-36.5 197.12,-36.5 197.12,-30.5 203.12,-24.5 209.12,-24.5 209.12,-24.5 291.88,-24.5 291.88,-24.5 297.88,-24.5 303.88,-30.5 303.88,-36.5 303.88,-36.5 303.88,-56.5 303.88,-56.5 303.88,-62.5 297.88,-68.5 291.88,-68.5"/>
<text xml:space="preserve" text-anchor="middle" x="250.5" y="-55" font-family="Arial" font-size="10.00" fill="white">Behavioral Detection</text>
<text xml:space="preserve" text-anchor="middle" x="250.5" y="-43" font-family="Arial" font-size="10.00" fill="white">Bypassed</text>
<text xml:space="preserve" text-anchor="middle" x="250.5" y="-31" font-family="Arial" font-size="10.00" fill="white">24/24 Signals Pass</text>
</g>
<!-- patching&#45;&gt;detection -->
<g id="edge9" class="edge">
<title>patching&#45;&gt;detection</title>
<path fill="none" stroke="#4caf50" stroke-width="2" d="M250.5,-118.21C250.5,-118.21 250.5,-81.72 250.5,-81.72"/>
<polygon fill="#4caf50" stroke="#4caf50" stroke-width="2" points="254,-81.72 250.5,-71.72 247,-81.72 254,-81.72"/>
</g>
</g>
</svg>
