<?xml version="1.0" encoding="UTF-8" standalone="no"?>
<!DOCTYPE svg PUBLIC "-//W3C//DTD SVG 1.1//EN"
 "http://www.w3.org/Graphics/SVG/1.1/DTD/svg11.dtd">
<!-- Generated by graphviz version 14.1.2 (0)
 -->
<!-- Title: deer_flow_architecture Pages: 1 -->
<svg width="445pt" height="465pt"
 viewBox="0.00 0.00 445.00 465.00" xmlns="http://www.w3.org/2000/svg" xmlns:xlink="http://www.w3.org/1999/xlink">
<g id="graph0" class="graph" transform="scale(1 1) rotate(0) translate(4 460.5)">
<title>deer_flow_architecture</title>
<polygon fill="white" stroke="none" points="-4,4 -4,-460.5 440.5,-460.5 440.5,4 -4,4"/>
<!-- user_input -->
<g id="node1" class="node">
<title>user_input</title>
<polygon fill="#4caf50" stroke="black" points="108.62,-456.5 14.62,-456.5 14.62,-420.5 108.62,-420.5 108.62,-456.5"/>
<text xml:space="preserve" text-anchor="middle" x="61.62" y="-434.23" font-family="Arial Bold" font-size="12.00" fill="white">User Request</text>
</g>
<!-- gateway -->
<g id="node2" class="node">
<title>gateway</title>
<path fill="#2196f3" stroke="black" d="M111.25,-352.5C111.25,-352.5 12,-352.5 12,-352.5 6,-352.5 0,-346.5 0,-340.5 0,-340.5 0,-326.5 0,-326.5 0,-320.5 6,-314.5 12,-314.5 12,-314.5 111.25,-314.5 111.25,-314.5 117.25,-314.5 123.25,-320.5 123.25,-326.5 123.25,-326.5 123.25,-340.5 123.25,-340.5 123.25,-346.5 117.25,-352.5 111.25,-352.5"/>
<text xml:space="preserve" text-anchor="middle" x="61.62" y="-336.15" font-family="Arial Bold" font-size="13.00" fill="white">Gateway API</text>
<text xml:space="preserve" text-anchor="middle" x="61.62" y="-321.15" font-family="Arial Bold" font-size="13.00" fill="white">(REST Endpoint)</text>
</g>
<!-- user_input&#45;&gt;gateway -->
<g id="edge1" class="edge">
<title>user_input&#45;&gt;gateway</title>
<path fill="none" stroke="#4caf50" stroke-width="2" d="M61.62,-420.21C61.62,-420.21 61.62,-365.67 61.62,-365.67"/>
<polygon fill="#4caf50" stroke="#4caf50" stroke-width="2" points="65.13,-365.67 61.63,-355.67 58.13,-365.67 65.13,-365.67"/>
</g>
<!-- lead_agent -->
<g id="node3" class="node">
<title>lead_agent</title>
<path fill="#2196f3" stroke="black" d="M265.62,-243.5C265.62,-243.5 183.62,-243.5 183.62,-243.5 177.62,-243.5 171.62,-237.5 171.62,-231.5 171.62,-231.5 171.62,-217.5 171.62,-217.5 171.62,-211.5 177.62,-205.5 183.62,-205.5 183.62,-205.5 265.62,-205.5 265.62,-205.5 271.62,-205.5 277.62,-211.5 277.62,-217.5 277.62,-217.5 277.62,-231.5 277.62,-231.5 277.62,-237.5 271.62,-243.5 265.62,-243.5"/>
<text xml:space="preserve" text-anchor="middle" x="224.62" y="-227.15" font-family="Arial Bold" font-size="13.00" fill="white">Lead Agent</text>
<text xml:space="preserve" text-anchor="middle" x="224.62" y="-212.15" font-family="Arial Bold" font-size="13.00" fill="white">(Orchestrator)</text>
</g>
<!-- gateway&#45;&gt;lead_agent -->
<g id="edge2" class="edge">
<title>gateway&#45;&gt;lead_agent</title>
<path fill="none" stroke="#2196f3" stroke-width="2" d="M61.62,-314.1C61.62,-282.89 61.62,-225 61.62,-225 61.62,-225 158.23,-225 158.23,-225"/>
<polygon fill="#2196f3" stroke="#2196f3" stroke-width="2" points="158.23,-228.5 168.23,-225 158.23,-221.5 158.23,-228.5"/>
</g>
<!-- sub_agent1 -->
<g id="node4" class="node">
<title>sub_agent1</title>
<path fill="#ff9800" stroke="black" d="M202.5,-137.5C202.5,-137.5 158.75,-137.5 158.75,-137.5 152.75,-137.5 146.75,-131.5 146.75,-125.5 146.75,-125.5 146.75,-113.5 146.75,-113.5 146.75,-107.5 152.75,-101.5 158.75,-101.5 158.75,-101.5 202.5,-101.5 202.5,-101.5 208.5,-101.5 214.5,-107.5 214.5,-113.5 214.5,-113.5 214.5,-125.5 214.5,-125.5 214.5,-131.5 208.5,-137.5 202.5,-137.5"/>
<text xml:space="preserve" text-anchor="middle" x="180.62" y="-122.55" font-family="Arial" font-size="11.00" fill="white">Research</text>
<text xml:space="preserve" text-anchor="middle" x="180.62" y="-109.05" font-family="Arial" font-size="11.00" fill="white">Sub&#45;Agent</text>
</g>
<!-- lead_agent&#45;&gt;sub_agent1 -->
<g id="edge3" class="edge">
<title>lead_agent&#45;&gt;sub_agent1</title>
<path fill="none" stroke="#ff9800" stroke-width="1.5" d="M185.92,-205.24C185.92,-205.24 185.92,-150.2 185.92,-150.2"/>
<polygon fill="#ff9800" stroke="#ff9800" stroke-width="1.5" points="189.42,-150.2 185.92,-140.2 182.42,-150.2 189.42,-150.2"/>
</g>
<!-- sub_agent2 -->
<g id="node5" class="node">
<title>sub_agent2</title>
<path fill="#ff9800" stroke="black" d="M313.5,-137.5C313.5,-137.5 269.75,-137.5 269.75,-137.5 263.75,-137.5 257.75,-131.5 257.75,-125.5 257.75,-125.5 257.75,-113.5 257.75,-113.5 257.75,-107.5 263.75,-101.5 269.75,-101.5 269.75,-101.5 313.5,-101.5 313.5,-101.5 319.5,-101.5 325.5,-107.5 325.5,-113.5 325.5,-113.5 325.5,-125.5 325.5,-125.5 325.5,-131.5 319.5,-137.5 313.5,-137.5"/>
<text xml:space="preserve" text-anchor="middle" x="291.62" y="-122.55" font-family="Arial" font-size="11.00" fill="white">Code</text>
<text xml:space="preserve" text-anchor="middle" x="291.62" y="-109.05" font-family="Arial" font-size="11.00" fill="white">Sub&#45;Agent</text>
</g>
<!-- lead_agent&#45;&gt;sub_agent2 -->
<g id="edge4" class="edge">
<title>lead_agent&#45;&gt;sub_agent2</title>
<path fill="none" stroke="#ff9800" stroke-width="1.5" d="M264.38,-205.24C264.38,-205.24 264.38,-150.2 264.38,-150.2"/>
<polygon fill="#ff9800" stroke="#ff9800" stroke-width="1.5" points="267.88,-150.2 264.38,-140.2 260.88,-150.2 267.88,-150.2"/>
</g>
<!-- sub_agent3 -->
<g id="node6" class="node">
<title>sub_agent3</title>
<path fill="#ff9800" stroke="black" d="M424.5,-137.5C424.5,-137.5 380.75,-137.5 380.75,-137.5 374.75,-137.5 368.75,-131.5 368.75,-125.5 368.75,-125.5 368.75,-113.5 368.75,-113.5 368.75,-107.5 374.75,-101.5 380.75,-101.5 380.75,-101.5 424.5,-101.5 424.5,-101.5 430.5,-101.5 436.5,-107.5 436.5,-113.5 436.5,-113.5 436.5,-125.5 436.5,-125.5 436.5,-131.5 430.5,-137.5 424.5,-137.5"/>
<text xml:space="preserve" text-anchor="middle" x="402.62" y="-122.55" font-family="Arial" font-size="11.00" fill="white">Analysis</text>
<text xml:space="preserve" text-anchor="middle" x="402.62" y="-109.05" font-family="Arial" font-size="11.00" fill="white">Sub&#45;Agent</text>
</g>
<!-- lead_agent&#45;&gt;sub_agent3 -->
<g id="edge5" class="edge">
<title>lead_agent&#45;&gt;sub_agent3</title>
<path fill="none" stroke="#ff9800" stroke-width="1.5" d="M271,-205.04C271,-193.46 271,-181 271,-181 271,-181 377.46,-181 377.46,-181 377.46,-181 377.46,-150.22 377.46,-150.22"/>
<polygon fill="#ff9800" stroke="#ff9800" stroke-width="1.5" points="380.96,-150.22 377.46,-140.22 373.96,-150.22 380.96,-150.22"/>
</g>
<!-- output -->
<g id="node10" class="node">
<title>output</title>
<polygon fill="#f44336" stroke="black" points="364.5,-36.5 218.75,-36.5 218.75,0 364.5,0 364.5,-36.5"/>
<text xml:space="preserve" text-anchor="middle" x="291.62" y="-21.1" font-family="Arial Bold" font-size="12.00" fill="white">Deliverables</text>
<text xml:space="preserve" text-anchor="middle" x="291.62" y="-6.85" font-family="Arial Bold" font-size="12.00" fill="white">(Reports, Code, Media)</text>
</g>
<!-- sub_agent1&#45;&gt;output -->
<g id="edge11" class="edge">
<title>sub_agent1&#45;&gt;output</title>
<path fill="none" stroke="#f44336" stroke-width="1.5" d="M214.81,-120C227.22,-120 238.25,-120 238.25,-120 238.25,-120 238.25,-49.18 238.25,-49.18"/>
<polygon fill="#f44336" stroke="#f44336" stroke-width="1.5" points="241.75,-49.18 238.25,-39.18 234.75,-49.18 241.75,-49.18"/>
</g>
<!-- sub_agent2&#45;&gt;output -->
<g id="edge12" class="edge">
<title>sub_agent2&#45;&gt;output</title>
<path fill="none" stroke="#f44336" stroke-width="1.5" d="M291.62,-101.4C291.62,-101.4 291.62,-49.15 291.62,-49.15"/>
<polygon fill="#f44336" stroke="#f44336" stroke-width="1.5" points="295.13,-49.15 291.63,-39.15 288.13,-49.15 295.13,-49.15"/>
</g>
<!-- sub_agent3&#45;&gt;output -->
<g id="edge13" class="edge">
<title>sub_agent3&#45;&gt;output</title>
<path fill="none" stroke="#f44336" stroke-width="1.5" d="M368.34,-114C360.67,-114 354.75,-114 354.75,-114 354.75,-114 354.75,-48.98 354.75,-48.98"/>
<polygon fill="#f44336" stroke="#f44336" stroke-width="1.5" points="358.25,-48.98 354.75,-38.98 351.25,-48.98 358.25,-48.98"/>
</g>
<!-- skills -->
<g id="node7" class="node">
<title>skills</title>
<path fill="#9c27b0" stroke="black" d="M270.88,-351.5C270.88,-351.5 178.38,-351.5 178.38,-351.5 172.38,-351.5 166.38,-345.5 166.38,-339.5 166.38,-339.5 166.38,-327.5 166.38,-327.5 166.38,-321.5 172.38,-315.5 178.38,-315.5 178.38,-315.5 270.88,-315.5 270.88,-315.5 276.88,-315.5 282.88,-321.5 282.88,-327.5 282.88,-327.5 282.88,-339.5 282.88,-339.5 282.88,-345.5 276.88,-351.5 270.88,-351.5"/>
<text xml:space="preserve" text-anchor="middle" x="224.62" y="-336.55" font-family="Arial" font-size="11.00" fill="white">Skills Registry</text>
<text xml:space="preserve" text-anchor="middle" x="224.62" y="-323.05" font-family="Arial" font-size="11.00" fill="white">(Extensible Modules)</text>
</g>
<!-- skills&#45;&gt;lead_agent -->
<g id="edge6" class="edge">
<title>skills&#45;&gt;lead_agent</title>
<path fill="none" stroke="#9c27b0" stroke-width="1.5" stroke-dasharray="5,2" d="M224.62,-315.01C224.62,-315.01 224.62,-256.09 224.62,-256.09"/>
<polygon fill="#9c27b0" stroke="#9c27b0" stroke-width="1.5" points="228.13,-256.09 224.63,-246.09 221.13,-256.09 228.13,-256.09"/>
</g>
<!-- memory -->
<g id="node8" class="node">
<title>memory</title>
<path fill="#607d8b" stroke="black" d="M387.5,-351.5C387.5,-353.71 373.66,-355.5 356.62,-355.5 339.59,-355.5 325.75,-353.71 325.75,-351.5 325.75,-351.5 325.75,-315.5 325.75,-315.5 325.75,-313.29 339.59,-311.5 356.62,-311.5 373.66,-311.5 387.5,-313.29 387.5,-315.5 387.5,-315.5 387.5,-351.5 387.5,-351.5"/>
<path fill="none" stroke="black" d="M387.5,-351.5C387.5,-349.29 373.66,-347.5 356.62,-347.5 339.59,-347.5 325.75,-349.29 325.75,-351.5"/>
<text xml:space="preserve" text-anchor="middle" x="356.62" y="-336" font-family="Arial" font-size="10.00" fill="white">Long&#45;Term</text>
<text xml:space="preserve" text-anchor="middle" x="356.62" y="-324" font-family="Arial" font-size="10.00" fill="white">Memory</text>
</g>
<!-- memory&#45;&gt;lead_agent -->
<g id="edge7" class="edge">
<title>memory&#45;&gt;lead_agent</title>
<path fill="none" stroke="#607d8b" stroke-width="1.5" stroke-dasharray="5,2" d="M325.27,-334C312.92,-334 301.62,-334 301.62,-334 301.62,-334 301.62,-225 301.62,-225 301.62,-225 290.37,-225 290.37,-225"/>
<polygon fill="#607d8b" stroke="#607d8b" stroke-width="1.5" points="290.37,-221.5 280.37,-225 290.37,-228.5 290.37,-221.5"/>
</g>
<!-- sandbox -->
<g id="node9" class="node">
<title>sandbox</title>
<path fill="#607d8b" stroke="black" d="M394.88,-242.5C394.88,-244.71 378.18,-246.5 357.62,-246.5 337.07,-246.5 320.38,-244.71 320.38,-242.5 320.38,-242.5 320.38,-206.5 320.38,-206.5 320.38,-204.29 337.07,-202.5 357.62,-202.5 378.18,-202.5 394.88,-204.29 394.88,-206.5 394.88,-206.5 394.88,-242.5 394.88,-242.5"/>
<path fill="none" stroke="black" d="M394.88,-242.5C394.88,-240.29 378.18,-238.5 357.62,-238.5 337.07,-238.5 320.38,-240.29 320.38,-242.5"/>
<text xml:space="preserve" text-anchor="middle" x="357.62" y="-227" font-family="Arial" font-size="10.00" fill="white">Sandbox</text>
<text xml:space="preserve" text-anchor="middle" x="357.62" y="-215" font-family="Arial" font-size="10.00" fill="white">(File System)</text>
</g>
<!-- sandbox&#45;&gt;sub_agent1 -->
<g id="edge8" class="edge">
<title>sandbox&#45;&gt;sub_agent1</title>
<path fill="none" stroke="#607d8b" d="M335.25,-202.32C335.25,-183.32 335.25,-159 335.25,-159 335.25,-159 200.21,-159 200.21,-159 200.21,-159 200.21,-149.38 200.21,-149.38"/>
<polygon fill="#607d8b" stroke="#607d8b" points="203.71,-149.38 200.21,-139.38 196.71,-149.38 203.71,-149.38"/>
</g>
<!-- sandbox&#45;&gt;sub_agent2 -->
<g id="edge9" class="edge">
<title>sandbox&#45;&gt;sub_agent2</title>
<path fill="none" stroke="#607d8b" d="M345,-202.15C345,-173.09 345,-126 345,-126 345,-126 337.24,-126 337.24,-126"/>
<polygon fill="#607d8b" stroke="#607d8b" points="337.24,-122.5 327.24,-126 337.24,-129.5 337.24,-122.5"/>
</g>
<!-- sandbox&#45;&gt;sub_agent3 -->
<g id="edge10" class="edge">
<title>sandbox&#45;&gt;sub_agent3</title>
<path fill="none" stroke="#607d8b" d="M386.17,-203C386.17,-203 386.17,-149.33 386.17,-149.33"/>
<polygon fill="#607d8b" stroke="#607d8b" points="389.67,-149.33 386.17,-139.33 382.67,-149.33 389.67,-149.33"/>
</g>
</g>
</svg>
