<?xml version="1.0" encoding="UTF-8" standalone="no"?>
<!DOCTYPE svg PUBLIC "-//W3C//DTD SVG 1.1//EN"
 "http://www.w3.org/Graphics/SVG/1.1/DTD/svg11.dtd">
<!-- Generated by graphviz version 14.1.2 (0)
 -->
<!-- Title: ContentOrganization Pages: 1 -->
<svg width="527pt" height="506pt"
 viewBox="0.00 0.00 527.00 506.00" xmlns="http://www.w3.org/2000/svg" xmlns:xlink="http://www.w3.org/1999/xlink">
<g id="graph0" class="graph" transform="scale(1 1) rotate(0) translate(4 502.12)">
<title>ContentOrganization</title>
<!-- root -->
<g id="node1" class="node">
<title>root</title>
<polygon fill="#2e86c1" stroke="black" stroke-width="2" points="149.5,-211.25 146.5,-215.25 125.5,-215.25 122.5,-211.25 0,-211.25 0,-168.75 149.5,-168.75 149.5,-211.25"/>
<text xml:space="preserve" text-anchor="middle" x="74.75" y="-195.85" font-family="Segoe UI" font-size="12.00" fill="white">free&#45;programming&#45;books</text>
<text xml:space="preserve" text-anchor="middle" x="74.75" y="-178.6" font-family="Segoe UI" font-size="12.00" fill="white">(GitHub Repository)</text>
</g>
<!-- books_dir -->
<g id="node2" class="node">
<title>books_dir</title>
<polygon fill="#aed6f1" stroke="black" points="308.38,-398 305.38,-402 284.38,-402 281.38,-398 192.62,-398 192.62,-360 308.38,-360 308.38,-398"/>
<text xml:space="preserve" text-anchor="middle" x="250.5" y="-383.55" font-family="Segoe UI" font-size="11.00">books/</text>
<text xml:space="preserve" text-anchor="middle" x="250.5" y="-368.55" font-family="Segoe UI" font-size="11.00">Programming Books</text>
</g>
<!-- root&#45;&gt;books_dir -->
<g id="edge1" class="edge">
<title>root&#45;&gt;books_dir</title>
<path fill="none" stroke="#5d6d7e" stroke-width="2" d="M96.02,-212.05C127.49,-246.29 188.11,-312.23 223.01,-350.19"/>
<polygon fill="#5d6d7e" stroke="#5d6d7e" stroke-width="2" points="220.32,-352.43 229.66,-357.42 225.47,-347.69 220.32,-352.43"/>
</g>
<!-- courses_dir -->
<g id="node3" class="node">
<title>courses_dir</title>
<polygon fill="#a9dfbf" stroke="black" points="295.25,-265 292.25,-269 271.25,-269 268.25,-265 205.75,-265 205.75,-227 295.25,-227 295.25,-265"/>
<text xml:space="preserve" text-anchor="middle" x="250.5" y="-250.55" font-family="Segoe UI" font-size="11.00">courses/</text>
<text xml:space="preserve" text-anchor="middle" x="250.5" y="-235.55" font-family="Segoe UI" font-size="11.00">Online Courses</text>
</g>
<!-- root&#45;&gt;courses_dir -->
<g id="edge2" class="edge">
<title>root&#45;&gt;courses_dir</title>
<path fill="none" stroke="#5d6d7e" stroke-width="2" d="M144.42,-212.13C160.59,-217.34 177.64,-222.84 193.19,-227.85"/>
<polygon fill="#5d6d7e" stroke="#5d6d7e" stroke-width="2" points="191.82,-231.09 202.41,-230.82 193.97,-224.42 191.82,-231.09"/>
</g>
<!-- casts_dir -->
<g id="node4" class="node">
<title>casts_dir</title>
<polygon fill="#f5b7b1" stroke="black" points="315.5,-209 312.5,-213 291.5,-213 288.5,-209 185.5,-209 185.5,-171 315.5,-171 315.5,-209"/>
<text xml:space="preserve" text-anchor="middle" x="250.5" y="-194.55" font-family="Segoe UI" font-size="11.00">casts/</text>
<text xml:space="preserve" text-anchor="middle" x="250.5" y="-179.55" font-family="Segoe UI" font-size="11.00">Podcasts &amp; Screencasts</text>
</g>
<!-- root&#45;&gt;casts_dir -->
<g id="edge3" class="edge">
<title>root&#45;&gt;casts_dir</title>
<path fill="none" stroke="#5d6d7e" stroke-width="2" d="M150.44,-190C157.69,-190 165.05,-190 172.31,-190"/>
<polygon fill="#5d6d7e" stroke="#5d6d7e" stroke-width="2" points="172.22,-193.5 182.22,-190 172.22,-186.5 172.22,-193.5"/>
</g>
<!-- more_dir -->
<g id="node5" class="node">
<title>more_dir</title>
<polygon fill="#f9e79f" stroke="black" points="314.38,-152.5 311.38,-156.5 290.38,-156.5 287.38,-152.5 186.62,-152.5 186.62,-99.5 314.38,-99.5 314.38,-152.5"/>
<text xml:space="preserve" text-anchor="middle" x="250.5" y="-138.05" font-family="Segoe UI" font-size="11.00">more/</text>
<text xml:space="preserve" text-anchor="middle" x="250.5" y="-123.05" font-family="Segoe UI" font-size="11.00">Cheat Sheets, Tutorials</text>
<text xml:space="preserve" text-anchor="middle" x="250.5" y="-108.05" font-family="Segoe UI" font-size="11.00">Playgrounds, Problems</text>
</g>
<!-- root&#45;&gt;more_dir -->
<g id="edge4" class="edge">
<title>root&#45;&gt;more_dir</title>
<path fill="none" stroke="#5d6d7e" stroke-width="2" d="M136.03,-167.8C148.36,-163.25 161.48,-158.42 174.26,-153.71"/>
<polygon fill="#5d6d7e" stroke="#5d6d7e" stroke-width="2" points="175.36,-157.04 183.53,-150.3 172.94,-150.47 175.36,-157.04"/>
</g>
<!-- docs_dir -->
<g id="node6" class="node">
<title>docs_dir</title>
<polygon fill="#d7bde2" stroke="black" points="305.75,-81.5 302.75,-85.5 281.75,-85.5 278.75,-81.5 195.25,-81.5 195.25,-28.5 305.75,-28.5 305.75,-81.5"/>
<text xml:space="preserve" text-anchor="middle" x="250.5" y="-67.05" font-family="Segoe UI" font-size="11.00">docs/</text>
<text xml:space="preserve" text-anchor="middle" x="250.5" y="-52.05" font-family="Segoe UI" font-size="11.00">Contributing Guide</text>
<text xml:space="preserve" text-anchor="middle" x="250.5" y="-37.05" font-family="Segoe UI" font-size="11.00">Code of Conduct</text>
</g>
<!-- root&#45;&gt;docs_dir -->
<g id="edge5" class="edge">
<title>root&#45;&gt;docs_dir</title>
<path fill="none" stroke="#5d6d7e" stroke-dasharray="5,2" d="M97.21,-167.99C118.49,-146.83 152.58,-114.66 185.5,-91 186.86,-90.02 188.25,-89.05 189.66,-88.09"/>
<polygon fill="#5d6d7e" stroke="#5d6d7e" points="191.48,-91.08 197.95,-82.69 187.66,-85.21 191.48,-91.08"/>
</g>
<!-- langs -->
<g id="node7" class="node">
<title>langs</title>
<polygon fill="#ebf5fb" stroke="black" points="507.38,-498.12 357.12,-498.12 357.12,-451.88 513.38,-451.88 513.38,-492.12 507.38,-498.12"/>
<polyline fill="none" stroke="black" points="507.38,-498.12 507.38,-492.12"/>
<polyline fill="none" stroke="black" points="513.38,-492.12 507.38,-492.12"/>
<text xml:space="preserve" text-anchor="middle" x="435.25" y="-485.57" font-family="Segoe UI" font-size="9.00">By Language</text>
<text xml:space="preserve" text-anchor="middle" x="435.25" y="-472.82" font-family="Segoe UI" font-size="9.00">free&#45;programming&#45;books&#45;langs.md</text>
<text xml:space="preserve" text-anchor="middle" x="435.25" y="-460.07" font-family="Segoe UI" font-size="9.00">40+ Programming Languages</text>
</g>
<!-- books_dir&#45;&gt;langs -->
<g id="edge6" class="edge">
<title>books_dir&#45;&gt;langs</title>
<path fill="none" stroke="#5d6d7e" d="M278.63,-398.48C298.27,-412.04 325.76,-429.95 351.5,-443 354.02,-444.28 356.61,-445.54 359.24,-446.78"/>
<polygon fill="#5d6d7e" stroke="#5d6d7e" points="357.61,-449.88 368.17,-450.81 360.5,-443.5 357.61,-449.88"/>
</g>
<!-- subjects -->
<g id="node8" class="node">
<title>subjects</title>
<polygon fill="#ebf5fb" stroke="black" points="513,-434.12 351.5,-434.12 351.5,-387.88 519,-387.88 519,-428.12 513,-434.12"/>
<polyline fill="none" stroke="black" points="513,-434.12 513,-428.12"/>
<polyline fill="none" stroke="black" points="519,-428.12 513,-428.12"/>
<text xml:space="preserve" text-anchor="middle" x="435.25" y="-421.57" font-family="Segoe UI" font-size="9.00">By Subject</text>
<text xml:space="preserve" text-anchor="middle" x="435.25" y="-408.82" font-family="Segoe UI" font-size="9.00">free&#45;programming&#45;books&#45;subjects.md</text>
<text xml:space="preserve" text-anchor="middle" x="435.25" y="-396.07" font-family="Segoe UI" font-size="9.00">Algorithms, AI, DB, Web...</text>
</g>
<!-- books_dir&#45;&gt;subjects -->
<g id="edge7" class="edge">
<title>books_dir&#45;&gt;subjects</title>
<path fill="none" stroke="#5d6d7e" d="M308.82,-389.04C318.77,-390.78 329.34,-392.63 339.96,-394.49"/>
<polygon fill="#5d6d7e" stroke="#5d6d7e" points="339.09,-397.89 349.54,-396.17 340.29,-390.99 339.09,-397.89"/>
</g>
<!-- translated_books -->
<g id="node9" class="node">
<title>translated_books</title>
<polygon fill="#ebf5fb" stroke="black" points="486.75,-370.12 377.75,-370.12 377.75,-323.88 492.75,-323.88 492.75,-364.12 486.75,-370.12"/>
<polyline fill="none" stroke="black" points="486.75,-370.12 486.75,-364.12"/>
<polyline fill="none" stroke="black" points="492.75,-364.12 486.75,-364.12"/>
<text xml:space="preserve" text-anchor="middle" x="435.25" y="-357.57" font-family="Segoe UI" font-size="9.00">Translated Books</text>
<text xml:space="preserve" text-anchor="middle" x="435.25" y="-344.82" font-family="Segoe UI" font-size="9.00">30+ Human Languages</text>
<text xml:space="preserve" text-anchor="middle" x="435.25" y="-332.07" font-family="Segoe UI" font-size="9.00">Arabic, Chinese, French...</text>
</g>
<!-- books_dir&#45;&gt;translated_books -->
<g id="edge8" class="edge">
<title>books_dir&#45;&gt;translated_books</title>
<path fill="none" stroke="#5d6d7e" d="M308.82,-368.96C327.02,-365.78 347.33,-362.22 366.21,-358.91"/>
<polygon fill="#5d6d7e" stroke="#5d6d7e" points="366.71,-362.38 375.95,-357.21 365.5,-355.49 366.71,-362.38"/>
</g>
<!-- en_courses -->
<g id="node10" class="node">
<title>en_courses</title>
<polygon fill="#eafaf1" stroke="black" points="475.88,-306 388.62,-306 388.62,-270 481.88,-270 481.88,-300 475.88,-306"/>
<polyline fill="none" stroke="black" points="475.88,-306 475.88,-300"/>
<polyline fill="none" stroke="black" points="481.88,-300 475.88,-300"/>
<text xml:space="preserve" text-anchor="middle" x="435.25" y="-292.2" font-family="Segoe UI" font-size="9.00">English Courses</text>
<text xml:space="preserve" text-anchor="middle" x="435.25" y="-279.45" font-family="Segoe UI" font-size="9.00">free&#45;courses&#45;en.md</text>
</g>
<!-- courses_dir&#45;&gt;en_courses -->
<g id="edge9" class="edge">
<title>courses_dir&#45;&gt;en_courses</title>
<path fill="none" stroke="#5d6d7e" d="M295.74,-256.17C320.23,-261.8 350.95,-268.86 377.23,-274.9"/>
<polygon fill="#5d6d7e" stroke="#5d6d7e" points="376.18,-278.25 386.71,-277.08 377.75,-271.42 376.18,-278.25"/>
</g>
<!-- translated_courses -->
<g id="node11" class="node">
<title>translated_courses</title>
<polygon fill="#eafaf1" stroke="black" points="476.25,-252 388.25,-252 388.25,-216 482.25,-216 482.25,-246 476.25,-252"/>
<polyline fill="none" stroke="black" points="476.25,-252 476.25,-246"/>
<polyline fill="none" stroke="black" points="482.25,-246 476.25,-246"/>
<text xml:space="preserve" text-anchor="middle" x="435.25" y="-238.2" font-family="Segoe UI" font-size="9.00">25+ Languages</text>
<text xml:space="preserve" text-anchor="middle" x="435.25" y="-225.45" font-family="Segoe UI" font-size="9.00">free&#45;courses&#45;XX.md</text>
</g>
<!-- courses_dir&#45;&gt;translated_courses -->
<g id="edge10" class="edge">
<title>courses_dir&#45;&gt;translated_courses</title>
<path fill="none" stroke="#5d6d7e" d="M295.74,-243.1C320.03,-241.5 350.45,-239.5 376.58,-237.79"/>
<polygon fill="#5d6d7e" stroke="#5d6d7e" points="376.61,-241.29 386.36,-237.14 376.15,-234.31 376.61,-241.29"/>
</g>
<!-- cheatsheet -->
<g id="node12" class="node">
<title>cheatsheet</title>
<polygon fill="#fef9e7" stroke="black" points="506.25,-198 358.25,-198 358.25,-162 512.25,-162 512.25,-192 506.25,-198"/>
<polyline fill="none" stroke="black" points="506.25,-198 506.25,-192"/>
<polyline fill="none" stroke="black" points="512.25,-192 506.25,-192"/>
<text xml:space="preserve" text-anchor="middle" x="435.25" y="-184.2" font-family="Segoe UI" font-size="9.00">Cheat Sheets</text>
<text xml:space="preserve" text-anchor="middle" x="435.25" y="-171.45" font-family="Segoe UI" font-size="9.00">free&#45;programming&#45;cheatsheets.md</text>
</g>
<!-- more_dir&#45;&gt;cheatsheet -->
<g id="edge11" class="edge">
<title>more_dir&#45;&gt;cheatsheet</title>
<path fill="none" stroke="#5d6d7e" d="M314.65,-144.66C329.51,-149.05 345.47,-153.77 360.75,-158.28"/>
<polygon fill="#5d6d7e" stroke="#5d6d7e" points="359.68,-161.62 370.27,-161.09 361.67,-154.9 359.68,-161.62"/>
</g>
<!-- interactive_tut -->
<g id="node13" class="node">
<title>interactive_tut</title>
<polygon fill="#fef9e7" stroke="black" points="475.88,-144 388.62,-144 388.62,-108 481.88,-108 481.88,-138 475.88,-144"/>
<polyline fill="none" stroke="black" points="475.88,-144 475.88,-138"/>
<polyline fill="none" stroke="black" points="481.88,-138 475.88,-138"/>
<text xml:space="preserve" text-anchor="middle" x="435.25" y="-130.2" font-family="Segoe UI" font-size="9.00">Interactive Tutorials</text>
<text xml:space="preserve" text-anchor="middle" x="435.25" y="-117.45" font-family="Segoe UI" font-size="9.00">5 Languages</text>
</g>
<!-- more_dir&#45;&gt;interactive_tut -->
<g id="edge12" class="edge">
<title>more_dir&#45;&gt;interactive_tut</title>
<path fill="none" stroke="#5d6d7e" d="M314.65,-126C334.92,-126 357.24,-126 377.05,-126"/>
<polygon fill="#5d6d7e" stroke="#5d6d7e" points="376.88,-129.5 386.88,-126 376.88,-122.5 376.88,-129.5"/>
</g>
<!-- playground -->
<g id="node14" class="node">
<title>playground</title>
<polygon fill="#fef9e7" stroke="black" points="481.88,-90 382.62,-90 382.62,-54 487.88,-54 487.88,-84 481.88,-90"/>
<polyline fill="none" stroke="black" points="481.88,-90 481.88,-84"/>
<polyline fill="none" stroke="black" points="487.88,-84 481.88,-84"/>
<text xml:space="preserve" text-anchor="middle" x="435.25" y="-76.2" font-family="Segoe UI" font-size="9.00">Playgrounds</text>
<text xml:space="preserve" text-anchor="middle" x="435.25" y="-63.45" font-family="Segoe UI" font-size="9.00">Browser&#45;based Coding</text>
</g>
<!-- more_dir&#45;&gt;playground -->
<g id="edge13" class="edge">
<title>more_dir&#45;&gt;playground</title>
<path fill="none" stroke="#5d6d7e" d="M314.65,-107.34C333.02,-101.91 353.08,-95.99 371.43,-90.56"/>
<polygon fill="#5d6d7e" stroke="#5d6d7e" points="372.25,-93.97 380.85,-87.78 370.27,-87.26 372.25,-93.97"/>
</g>
<!-- problem_sets -->
<g id="node15" class="node">
<title>problem_sets</title>
<polygon fill="#fef9e7" stroke="black" points="489,-36 375.5,-36 375.5,0 495,0 495,-30 489,-36"/>
<polyline fill="none" stroke="black" points="489,-36 489,-30"/>
<polyline fill="none" stroke="black" points="495,-30 489,-30"/>
<text xml:space="preserve" text-anchor="middle" x="435.25" y="-22.2" font-family="Segoe UI" font-size="9.00">Problem Sets</text>
<text xml:space="preserve" text-anchor="middle" x="435.25" y="-9.45" font-family="Segoe UI" font-size="9.00">Competitive Programming</text>
</g>
<!-- more_dir&#45;&gt;problem_sets -->
<g id="edge14" class="edge">
<title>more_dir&#45;&gt;problem_sets</title>
<path fill="none" stroke="#5d6d7e" d="M304.68,-99.2C308.47,-96.61 312.12,-93.87 315.5,-91 335.3,-74.2 330.24,-59.9 351.5,-45 355.65,-42.09 360.13,-39.48 364.79,-37.15"/>
<polygon fill="#5d6d7e" stroke="#5d6d7e" points="366.15,-40.37 373.82,-33.07 363.27,-33.99 366.15,-40.37"/>
</g>
</g>
</svg>
