<?xml version="1.0" encoding="UTF-8" standalone="no"?>
<!DOCTYPE svg PUBLIC "-//W3C//DTD SVG 1.1//EN"
 "http://www.w3.org/Graphics/SVG/1.1/DTD/svg11.dtd">
<!-- Generated by graphviz version 14.1.2 (0)
 -->
<!-- Title: G Pages: 1 -->
<svg width="3596pt" height="406pt"
 viewBox="0.00 0.00 3596.00 406.00" xmlns="http://www.w3.org/2000/svg" xmlns:xlink="http://www.w3.org/1999/xlink">
<g id="graph0" class="graph" transform="scale(1 1) rotate(0) translate(4 401.85)">
<title>G</title>
<!-- React 19 Renderer -->
<g id="node1" class="node">
<title>React 19 Renderer</title>
<path fill="#e3f2fd" stroke="black" d="M364.35,-300.25C364.35,-300.25 225.15,-300.25 225.15,-300.25 220.35,-300.25 215.55,-295.45 215.55,-290.65 215.55,-290.65 215.55,-281.05 215.55,-281.05 215.55,-276.25 220.35,-271.45 225.15,-271.45 225.15,-271.45 364.35,-271.45 364.35,-271.45 369.15,-271.45 373.95,-276.25 373.95,-281.05 373.95,-281.05 373.95,-290.65 373.95,-290.65 373.95,-295.45 369.15,-300.25 364.35,-300.25"/>
<text xml:space="preserve" text-anchor="middle" x="294.75" y="-282.9" font-family="Segoe UI" font-size="11.00">React 19 Renderer</text>
</g>
<!-- Electron Main Process -->
<g id="node8" class="node">
<title>Electron Main Process</title>
<path fill="#f3e5f5" stroke="black" stroke-width="1.5" d="M262.35,-207.99C262.35,-207.99 123.15,-207.99 123.15,-207.99 118.35,-207.99 113.55,-203.19 113.55,-198.39 113.55,-198.39 113.55,-188.79 113.55,-188.79 113.55,-183.99 118.35,-179.19 123.15,-179.19 123.15,-179.19 262.35,-179.19 262.35,-179.19 267.15,-179.19 271.95,-183.99 271.95,-188.79 271.95,-188.79 271.95,-198.39 271.95,-198.39 271.95,-203.19 267.15,-207.99 262.35,-207.99"/>
<text xml:space="preserve" text-anchor="middle" x="192.75" y="-190.64" font-family="Segoe UI" font-size="11.00">Electron Main Process</text>
</g>
<!-- React 19 Renderer&#45;&gt;Electron Main Process -->
<g id="edge1" class="edge">
<title>React 19 Renderer&#45;&gt;Electron Main Process</title>
<path fill="none" stroke="#2196f3" stroke-width="1.5" d="M243.75,-271.03C243.75,-271.03 243.75,-220.95 243.75,-220.95"/>
<polygon fill="#2196f3" stroke="#2196f3" stroke-width="1.5" points="247.25,-220.95 243.75,-210.95 240.25,-220.95 247.25,-220.95"/>
</g>
<!-- Chat.tsx (Layout) -->
<g id="node2" class="node">
<title>Chat.tsx (Layout)</title>
<path fill="#e3f2fd" stroke="black" d="M564.35,-394.25C564.35,-394.25 425.15,-394.25 425.15,-394.25 420.35,-394.25 415.55,-389.45 415.55,-384.65 415.55,-384.65 415.55,-375.05 415.55,-375.05 415.55,-370.25 420.35,-365.45 425.15,-365.45 425.15,-365.45 564.35,-365.45 564.35,-365.45 569.15,-365.45 573.95,-370.25 573.95,-375.05 573.95,-375.05 573.95,-384.65 573.95,-384.65 573.95,-389.45 569.15,-394.25 564.35,-394.25"/>
<text xml:space="preserve" text-anchor="middle" x="494.75" y="-376.9" font-family="Segoe UI" font-size="11.00">Chat.tsx (Layout)</text>
</g>
<!-- index.ts (Window + IPC) -->
<g id="node9" class="node">
<title>index.ts (Window + IPC)</title>
<path fill="#f3e5f5" stroke="black" stroke-width="1.5" d="M609.35,-300.25C609.35,-300.25 470.15,-300.25 470.15,-300.25 465.35,-300.25 460.55,-295.45 460.55,-290.65 460.55,-290.65 460.55,-281.05 460.55,-281.05 460.55,-276.25 465.35,-271.45 470.15,-271.45 470.15,-271.45 609.35,-271.45 609.35,-271.45 614.15,-271.45 618.95,-276.25 618.95,-281.05 618.95,-281.05 618.95,-290.65 618.95,-290.65 618.95,-295.45 614.15,-300.25 609.35,-300.25"/>
<text xml:space="preserve" text-anchor="middle" x="539.75" y="-282.9" font-family="Segoe UI" font-size="11.00">index.ts (Window + IPC)</text>
</g>
<!-- Chat.tsx (Layout)&#45;&gt;index.ts (Window + IPC) -->
<g id="edge2" class="edge">
<title>Chat.tsx (Layout)&#45;&gt;index.ts (Window + IPC)</title>
<path fill="none" stroke="#2196f3" stroke-width="1.2" d="M517.25,-365.17C517.25,-365.17 517.25,-312.56 517.25,-312.56"/>
<polygon fill="#2196f3" stroke="#2196f3" stroke-width="1.2" points="520.75,-312.56 517.25,-302.56 513.75,-312.56 520.75,-312.56"/>
</g>
<!-- Canvas.tsx (Preview) -->
<g id="node3" class="node">
<title>Canvas.tsx (Preview)</title>
<path fill="#e3f2fd" stroke="black" d="M893.35,-300.25C893.35,-300.25 754.15,-300.25 754.15,-300.25 749.35,-300.25 744.55,-295.45 744.55,-290.65 744.55,-290.65 744.55,-281.05 744.55,-281.05 744.55,-276.25 749.35,-271.45 754.15,-271.45 754.15,-271.45 893.35,-271.45 893.35,-271.45 898.15,-271.45 902.95,-276.25 902.95,-281.05 902.95,-281.05 902.95,-290.65 902.95,-290.65 902.95,-295.45 898.15,-300.25 893.35,-300.25"/>
<text xml:space="preserve" text-anchor="middle" x="823.75" y="-282.9" font-family="Segoe UI" font-size="11.00">Canvas.tsx (Preview)</text>
</g>
<!-- Local HTTP File Server -->
<g id="node18" class="node">
<title>Local HTTP File Server</title>
<path fill="#fff3e0" stroke="black" d="M893.35,-207.99C893.35,-207.99 754.15,-207.99 754.15,-207.99 749.35,-207.99 744.55,-203.19 744.55,-198.39 744.55,-198.39 744.55,-188.79 744.55,-188.79 744.55,-183.99 749.35,-179.19 754.15,-179.19 754.15,-179.19 893.35,-179.19 893.35,-179.19 898.15,-179.19 902.95,-183.99 902.95,-188.79 902.95,-188.79 902.95,-198.39 902.95,-198.39 902.95,-203.19 898.15,-207.99 893.35,-207.99"/>
<text xml:space="preserve" text-anchor="middle" x="823.75" y="-190.64" font-family="Segoe UI" font-size="11.00">Local HTTP File Server</text>
</g>
<!-- Canvas.tsx (Preview)&#45;&gt;Local HTTP File Server -->
<g id="edge4" class="edge">
<title>Canvas.tsx (Preview)&#45;&gt;Local HTTP File Server</title>
<path fill="none" stroke="#ff9800" stroke-width="1.2" d="M823.75,-271.03C823.75,-271.03 823.75,-220.19 823.75,-220.19"/>
<polygon fill="#ff9800" stroke="#ff9800" stroke-width="1.2" points="827.25,-220.19 823.75,-210.19 820.25,-220.19 827.25,-220.19"/>
</g>
<!-- Composer.tsx (Input) -->
<g id="node4" class="node">
<title>Composer.tsx (Input)</title>
<path fill="#e3f2fd" stroke="black" d="M758.35,-394.25C758.35,-394.25 619.15,-394.25 619.15,-394.25 614.35,-394.25 609.55,-389.45 609.55,-384.65 609.55,-384.65 609.55,-375.05 609.55,-375.05 609.55,-370.25 614.35,-365.45 619.15,-365.45 619.15,-365.45 758.35,-365.45 758.35,-365.45 763.15,-365.45 767.95,-370.25 767.95,-375.05 767.95,-375.05 767.95,-384.65 767.95,-384.65 767.95,-389.45 763.15,-394.25 758.35,-394.25"/>
<text xml:space="preserve" text-anchor="middle" x="688.75" y="-376.9" font-family="Segoe UI" font-size="11.00">Composer.tsx (Input)</text>
</g>
<!-- Composer.tsx (Input)&#45;&gt;index.ts (Window + IPC) -->
<g id="edge3" class="edge">
<title>Composer.tsx (Input)&#45;&gt;index.ts (Window + IPC)</title>
<path fill="none" stroke="#2196f3" stroke-width="1.2" d="M614.25,-365.17C614.25,-365.17 614.25,-312.56 614.25,-312.56"/>
<polygon fill="#2196f3" stroke="#2196f3" stroke-width="1.2" points="617.75,-312.56 614.25,-302.56 610.75,-312.56 617.75,-312.56"/>
</g>
<!-- Sidebar.tsx (Conversations) -->
<g id="node5" class="node">
<title>Sidebar.tsx (Conversations)</title>
<path fill="#e3f2fd" stroke="black" d="M1299.35,-394.25C1299.35,-394.25 1160.15,-394.25 1160.15,-394.25 1155.35,-394.25 1150.55,-389.45 1150.55,-384.65 1150.55,-384.65 1150.55,-375.05 1150.55,-375.05 1150.55,-370.25 1155.35,-365.45 1160.15,-365.45 1160.15,-365.45 1299.35,-365.45 1299.35,-365.45 1304.15,-365.45 1308.95,-370.25 1308.95,-375.05 1308.95,-375.05 1308.95,-384.65 1308.95,-384.65 1308.95,-389.45 1304.15,-394.25 1299.35,-394.25"/>
<text xml:space="preserve" text-anchor="middle" x="1229.75" y="-376.9" font-family="Segoe UI" font-size="11.00">Sidebar.tsx (Conversations)</text>
</g>
<!-- Message.tsx (Bubbles) -->
<g id="node6" class="node">
<title>Message.tsx (Bubbles)</title>
<path fill="#e3f2fd" stroke="black" d="M1493.35,-394.25C1493.35,-394.25 1354.15,-394.25 1354.15,-394.25 1349.35,-394.25 1344.55,-389.45 1344.55,-384.65 1344.55,-384.65 1344.55,-375.05 1344.55,-375.05 1344.55,-370.25 1349.35,-365.45 1354.15,-365.45 1354.15,-365.45 1493.35,-365.45 1493.35,-365.45 1498.15,-365.45 1502.95,-370.25 1502.95,-375.05 1502.95,-375.05 1502.95,-384.65 1502.95,-384.65 1502.95,-389.45 1498.15,-394.25 1493.35,-394.25"/>
<text xml:space="preserve" text-anchor="middle" x="1423.75" y="-376.9" font-family="Segoe UI" font-size="11.00">Message.tsx (Bubbles)</text>
</g>
<!-- Setup.tsx (Onboarding) -->
<g id="node7" class="node">
<title>Setup.tsx (Onboarding)</title>
<path fill="#e3f2fd" stroke="black" d="M1687.35,-394.25C1687.35,-394.25 1548.15,-394.25 1548.15,-394.25 1543.35,-394.25 1538.55,-389.45 1538.55,-384.65 1538.55,-384.65 1538.55,-375.05 1538.55,-375.05 1538.55,-370.25 1543.35,-365.45 1548.15,-365.45 1548.15,-365.45 1687.35,-365.45 1687.35,-365.45 1692.15,-365.45 1696.95,-370.25 1696.95,-375.05 1696.95,-375.05 1696.95,-384.65 1696.95,-384.65 1696.95,-389.45 1692.15,-394.25 1687.35,-394.25"/>
<text xml:space="preserve" text-anchor="middle" x="1617.75" y="-376.9" font-family="Segoe UI" font-size="11.00">Setup.tsx (Onboarding)</text>
</g>
<!-- mlx.ts (MLX&#45;LM Lifecycle) -->
<g id="node10" class="node">
<title>mlx.ts (MLX&#45;LM Lifecycle)</title>
<path fill="#f3e5f5" stroke="black" stroke-width="1.5" d="M1881.35,-394.25C1881.35,-394.25 1742.15,-394.25 1742.15,-394.25 1737.35,-394.25 1732.55,-389.45 1732.55,-384.65 1732.55,-384.65 1732.55,-375.05 1732.55,-375.05 1732.55,-370.25 1737.35,-365.45 1742.15,-365.45 1742.15,-365.45 1881.35,-365.45 1881.35,-365.45 1886.15,-365.45 1890.95,-370.25 1890.95,-375.05 1890.95,-375.05 1890.95,-384.65 1890.95,-384.65 1890.95,-389.45 1886.15,-394.25 1881.35,-394.25"/>
<text xml:space="preserve" text-anchor="middle" x="1811.75" y="-376.9" font-family="Segoe UI" font-size="11.00">mlx.ts (MLX&#45;LM Lifecycle)</text>
</g>
<!-- MLX&#45;LM Server (Port 11434) -->
<g id="node13" class="node">
<title>MLX&#45;LM Server (Port 11434)</title>
<path fill="#e8f5e9" stroke="black" d="M1972.35,-300.25C1972.35,-300.25 1833.15,-300.25 1833.15,-300.25 1828.35,-300.25 1823.55,-295.45 1823.55,-290.65 1823.55,-290.65 1823.55,-281.05 1823.55,-281.05 1823.55,-276.25 1828.35,-271.45 1833.15,-271.45 1833.15,-271.45 1972.35,-271.45 1972.35,-271.45 1977.15,-271.45 1981.95,-276.25 1981.95,-281.05 1981.95,-281.05 1981.95,-290.65 1981.95,-290.65 1981.95,-295.45 1977.15,-300.25 1972.35,-300.25"/>
<text xml:space="preserve" text-anchor="middle" x="1902.75" y="-282.9" font-family="Segoe UI" font-size="11.00">MLX&#45;LM Server (Port 11434)</text>
</g>
<!-- mlx.ts (MLX&#45;LM Lifecycle)&#45;&gt;MLX&#45;LM Server (Port 11434) -->
<g id="edge5" class="edge">
<title>mlx.ts (MLX&#45;LM Lifecycle)&#45;&gt;MLX&#45;LM Server (Port 11434)</title>
<path fill="none" stroke="#4caf50" stroke-width="1.5" d="M1857.25,-364.75C1857.25,-364.75 1857.25,-312.88 1857.25,-312.88"/>
<polygon fill="#4caf50" stroke="#4caf50" stroke-width="1.5" points="1860.75,-312.88 1857.25,-302.88 1853.75,-312.88 1860.75,-312.88"/>
</g>
<!-- workspace.ts (Sandbox FS) -->
<g id="node11" class="node">
<title>workspace.ts (Sandbox FS)</title>
<path fill="#f3e5f5" stroke="black" stroke-width="1.5" d="M965.35,-394.25C965.35,-394.25 826.15,-394.25 826.15,-394.25 821.35,-394.25 816.55,-389.45 816.55,-384.65 816.55,-384.65 816.55,-375.05 816.55,-375.05 816.55,-370.25 821.35,-365.45 826.15,-365.45 826.15,-365.45 965.35,-365.45 965.35,-365.45 970.15,-365.45 974.95,-370.25 974.95,-375.05 974.95,-375.05 974.95,-384.65 974.95,-384.65 974.95,-389.45 970.15,-394.25 965.35,-394.25"/>
<text xml:space="preserve" text-anchor="middle" x="895.75" y="-376.9" font-family="Segoe UI" font-size="11.00">workspace.ts (Sandbox FS)</text>
</g>
<!-- Per&#45;Conversation Workspace -->
<g id="node17" class="node">
<title>Per&#45;Conversation Workspace</title>
<path fill="#fff3e0" stroke="black" d="M1087.35,-300.25C1087.35,-300.25 948.15,-300.25 948.15,-300.25 943.35,-300.25 938.55,-295.45 938.55,-290.65 938.55,-290.65 938.55,-281.05 938.55,-281.05 938.55,-276.25 943.35,-271.45 948.15,-271.45 948.15,-271.45 1087.35,-271.45 1087.35,-271.45 1092.15,-271.45 1096.95,-276.25 1096.95,-281.05 1096.95,-281.05 1096.95,-290.65 1096.95,-290.65 1096.95,-295.45 1092.15,-300.25 1087.35,-300.25"/>
<text xml:space="preserve" text-anchor="middle" x="1017.75" y="-282.9" font-family="Segoe UI" font-size="11.00">Per&#45;Conversation Workspace</text>
</g>
<!-- workspace.ts (Sandbox FS)&#45;&gt;Per&#45;Conversation Workspace -->
<g id="edge9" class="edge">
<title>workspace.ts (Sandbox FS)&#45;&gt;Per&#45;Conversation Workspace</title>
<path fill="none" stroke="#ff9800" stroke-width="1.2" d="M956.75,-364.75C956.75,-364.75 956.75,-312.43 956.75,-312.43"/>
<polygon fill="#ff9800" stroke="#ff9800" stroke-width="1.2" points="960.25,-312.43 956.75,-302.43 953.25,-312.43 960.25,-312.43"/>
</g>
<!-- tools.ts (Tool Definitions) -->
<g id="node12" class="node">
<title>tools.ts (Tool Definitions)</title>
<path fill="#f3e5f5" stroke="black" stroke-width="1.5" d="M2921.35,-394.25C2921.35,-394.25 2782.15,-394.25 2782.15,-394.25 2777.35,-394.25 2772.55,-389.45 2772.55,-384.65 2772.55,-384.65 2772.55,-375.05 2772.55,-375.05 2772.55,-370.25 2777.35,-365.45 2782.15,-365.45 2782.15,-365.45 2921.35,-365.45 2921.35,-365.45 2926.15,-365.45 2930.95,-370.25 2930.95,-375.05 2930.95,-375.05 2930.95,-384.65 2930.95,-384.65 2930.95,-389.45 2926.15,-394.25 2921.35,-394.25"/>
<text xml:space="preserve" text-anchor="middle" x="2851.75" y="-376.9" font-family="Segoe UI" font-size="11.00">tools.ts (Tool Definitions)</text>
</g>
<!-- write_file -->
<g id="node20" class="node">
<title>write_file</title>
<path fill="#fce4ec" stroke="black" d="M2220.95,-298.45C2220.95,-298.45 2122.55,-298.45 2122.55,-298.45 2118.35,-298.45 2114.15,-294.25 2114.15,-290.05 2114.15,-290.05 2114.15,-281.65 2114.15,-281.65 2114.15,-277.45 2118.35,-273.25 2122.55,-273.25 2122.55,-273.25 2220.95,-273.25 2220.95,-273.25 2225.15,-273.25 2229.35,-277.45 2229.35,-281.65 2229.35,-281.65 2229.35,-290.05 2229.35,-290.05 2229.35,-294.25 2225.15,-298.45 2220.95,-298.45"/>
<text xml:space="preserve" text-anchor="middle" x="2171.75" y="-282.9" font-family="Segoe UI" font-size="11.00">write_file</text>
</g>
<!-- tools.ts (Tool Definitions)&#45;&gt;write_file -->
<g id="edge12" class="edge">
<title>tools.ts (Tool Definitions)&#45;&gt;write_file</title>
<path fill="none" stroke="#9c27b0" d="M2772,-388C2609.62,-388 2255.82,-388 2255.82,-388 2255.82,-388 2255.82,-286 2255.82,-286 2255.82,-286 2241.2,-286 2241.2,-286"/>
<polygon fill="#9c27b0" stroke="#9c27b0" points="2241.2,-282.5 2231.2,-286 2241.2,-289.5 2241.2,-282.5"/>
</g>
<!-- read_file -->
<g id="node21" class="node">
<title>read_file</title>
<path fill="#fce4ec" stroke="black" d="M2371.95,-298.45C2371.95,-298.45 2273.55,-298.45 2273.55,-298.45 2269.35,-298.45 2265.15,-294.25 2265.15,-290.05 2265.15,-290.05 2265.15,-281.65 2265.15,-281.65 2265.15,-277.45 2269.35,-273.25 2273.55,-273.25 2273.55,-273.25 2371.95,-273.25 2371.95,-273.25 2376.15,-273.25 2380.35,-277.45 2380.35,-281.65 2380.35,-281.65 2380.35,-290.05 2380.35,-290.05 2380.35,-294.25 2376.15,-298.45 2371.95,-298.45"/>
<text xml:space="preserve" text-anchor="middle" x="2322.75" y="-282.9" font-family="Segoe UI" font-size="11.00">read_file</text>
</g>
<!-- tools.ts (Tool Definitions)&#45;&gt;read_file -->
<g id="edge13" class="edge">
<title>tools.ts (Tool Definitions)&#45;&gt;read_file</title>
<path fill="none" stroke="#9c27b0" d="M2771.98,-383C2624.2,-383 2322.75,-383 2322.75,-383 2322.75,-383 2322.75,-310.07 2322.75,-310.07"/>
<polygon fill="#9c27b0" stroke="#9c27b0" points="2326.25,-310.07 2322.75,-300.07 2319.25,-310.07 2326.25,-310.07"/>
</g>
<!-- edit_file -->
<g id="node22" class="node">
<title>edit_file</title>
<path fill="#fce4ec" stroke="black" d="M2522.95,-298.45C2522.95,-298.45 2424.55,-298.45 2424.55,-298.45 2420.35,-298.45 2416.15,-294.25 2416.15,-290.05 2416.15,-290.05 2416.15,-281.65 2416.15,-281.65 2416.15,-277.45 2420.35,-273.25 2424.55,-273.25 2424.55,-273.25 2522.95,-273.25 2522.95,-273.25 2527.15,-273.25 2531.35,-277.45 2531.35,-281.65 2531.35,-281.65 2531.35,-290.05 2531.35,-290.05 2531.35,-294.25 2527.15,-298.45 2522.95,-298.45"/>
<text xml:space="preserve" text-anchor="middle" x="2473.75" y="-282.9" font-family="Segoe UI" font-size="11.00">edit_file</text>
</g>
<!-- tools.ts (Tool Definitions)&#45;&gt;edit_file -->
<g id="edge14" class="edge">
<title>tools.ts (Tool Definitions)&#45;&gt;edit_file</title>
<path fill="none" stroke="#9c27b0" d="M2772.05,-377C2661.15,-377 2473.75,-377 2473.75,-377 2473.75,-377 2473.75,-310.43 2473.75,-310.43"/>
<polygon fill="#9c27b0" stroke="#9c27b0" points="2477.25,-310.43 2473.75,-300.43 2470.25,-310.43 2477.25,-310.43"/>
</g>
<!-- delete_file -->
<g id="node23" class="node">
<title>delete_file</title>
<path fill="#fce4ec" stroke="black" d="M2673.95,-298.45C2673.95,-298.45 2575.55,-298.45 2575.55,-298.45 2571.35,-298.45 2567.15,-294.25 2567.15,-290.05 2567.15,-290.05 2567.15,-281.65 2567.15,-281.65 2567.15,-277.45 2571.35,-273.25 2575.55,-273.25 2575.55,-273.25 2673.95,-273.25 2673.95,-273.25 2678.15,-273.25 2682.35,-277.45 2682.35,-281.65 2682.35,-281.65 2682.35,-290.05 2682.35,-290.05 2682.35,-294.25 2678.15,-298.45 2673.95,-298.45"/>
<text xml:space="preserve" text-anchor="middle" x="2624.75" y="-282.9" font-family="Segoe UI" font-size="11.00">delete_file</text>
</g>
<!-- tools.ts (Tool Definitions)&#45;&gt;delete_file -->
<g id="edge15" class="edge">
<title>tools.ts (Tool Definitions)&#45;&gt;delete_file</title>
<path fill="none" stroke="#9c27b0" d="M2772.04,-371C2706.63,-371 2624.75,-371 2624.75,-371 2624.75,-371 2624.75,-310.3 2624.75,-310.3"/>
<polygon fill="#9c27b0" stroke="#9c27b0" points="2628.25,-310.3 2624.75,-300.3 2621.25,-310.3 2628.25,-310.3"/>
</g>
<!-- list_files -->
<g id="node24" class="node">
<title>list_files</title>
<path fill="#fce4ec" stroke="black" d="M2824.95,-298.45C2824.95,-298.45 2726.55,-298.45 2726.55,-298.45 2722.35,-298.45 2718.15,-294.25 2718.15,-290.05 2718.15,-290.05 2718.15,-281.65 2718.15,-281.65 2718.15,-277.45 2722.35,-273.25 2726.55,-273.25 2726.55,-273.25 2824.95,-273.25 2824.95,-273.25 2829.15,-273.25 2833.35,-277.45 2833.35,-281.65 2833.35,-281.65 2833.35,-290.05 2833.35,-290.05 2833.35,-294.25 2829.15,-298.45 2824.95,-298.45"/>
<text xml:space="preserve" text-anchor="middle" x="2775.75" y="-282.9" font-family="Segoe UI" font-size="11.00">list_files</text>
</g>
<!-- tools.ts (Tool Definitions)&#45;&gt;list_files -->
<g id="edge16" class="edge">
<title>tools.ts (Tool Definitions)&#45;&gt;list_files</title>
<path fill="none" stroke="#9c27b0" d="M2802.95,-364.75C2802.95,-364.75 2802.95,-310.31 2802.95,-310.31"/>
<polygon fill="#9c27b0" stroke="#9c27b0" points="2806.45,-310.31 2802.95,-300.31 2799.45,-310.31 2806.45,-310.31"/>
</g>
<!-- run_bash -->
<g id="node25" class="node">
<title>run_bash</title>
<path fill="#fce4ec" stroke="black" d="M2975.95,-298.45C2975.95,-298.45 2877.55,-298.45 2877.55,-298.45 2873.35,-298.45 2869.15,-294.25 2869.15,-290.05 2869.15,-290.05 2869.15,-281.65 2869.15,-281.65 2869.15,-277.45 2873.35,-273.25 2877.55,-273.25 2877.55,-273.25 2975.95,-273.25 2975.95,-273.25 2980.15,-273.25 2984.35,-277.45 2984.35,-281.65 2984.35,-281.65 2984.35,-290.05 2984.35,-290.05 2984.35,-294.25 2980.15,-298.45 2975.95,-298.45"/>
<text xml:space="preserve" text-anchor="middle" x="2926.75" y="-282.9" font-family="Segoe UI" font-size="11.00">run_bash</text>
</g>
<!-- tools.ts (Tool Definitions)&#45;&gt;run_bash -->
<g id="edge17" class="edge">
<title>tools.ts (Tool Definitions)&#45;&gt;run_bash</title>
<path fill="none" stroke="#9c27b0" d="M2900.05,-364.75C2900.05,-364.75 2900.05,-310.31 2900.05,-310.31"/>
<polygon fill="#9c27b0" stroke="#9c27b0" points="2903.55,-310.31 2900.05,-300.31 2896.55,-310.31 2903.55,-310.31"/>
</g>
<!-- web_search -->
<g id="node26" class="node">
<title>web_search</title>
<path fill="#fce4ec" stroke="black" d="M3126.95,-298.45C3126.95,-298.45 3028.55,-298.45 3028.55,-298.45 3024.35,-298.45 3020.15,-294.25 3020.15,-290.05 3020.15,-290.05 3020.15,-281.65 3020.15,-281.65 3020.15,-277.45 3024.35,-273.25 3028.55,-273.25 3028.55,-273.25 3126.95,-273.25 3126.95,-273.25 3131.15,-273.25 3135.35,-277.45 3135.35,-281.65 3135.35,-281.65 3135.35,-290.05 3135.35,-290.05 3135.35,-294.25 3131.15,-298.45 3126.95,-298.45"/>
<text xml:space="preserve" text-anchor="middle" x="3077.75" y="-282.9" font-family="Segoe UI" font-size="11.00">web_search</text>
</g>
<!-- tools.ts (Tool Definitions)&#45;&gt;web_search -->
<g id="edge18" class="edge">
<title>tools.ts (Tool Definitions)&#45;&gt;web_search</title>
<path fill="none" stroke="#9c27b0" d="M2931.43,-371C2996.5,-371 3077.75,-371 3077.75,-371 3077.75,-371 3077.75,-310.3 3077.75,-310.3"/>
<polygon fill="#9c27b0" stroke="#9c27b0" points="3081.25,-310.3 3077.75,-300.3 3074.25,-310.3 3081.25,-310.3"/>
</g>
<!-- fetch_url -->
<g id="node27" class="node">
<title>fetch_url</title>
<path fill="#fce4ec" stroke="black" d="M3277.95,-298.45C3277.95,-298.45 3179.55,-298.45 3179.55,-298.45 3175.35,-298.45 3171.15,-294.25 3171.15,-290.05 3171.15,-290.05 3171.15,-281.65 3171.15,-281.65 3171.15,-277.45 3175.35,-273.25 3179.55,-273.25 3179.55,-273.25 3277.95,-273.25 3277.95,-273.25 3282.15,-273.25 3286.35,-277.45 3286.35,-281.65 3286.35,-281.65 3286.35,-290.05 3286.35,-290.05 3286.35,-294.25 3282.15,-298.45 3277.95,-298.45"/>
<text xml:space="preserve" text-anchor="middle" x="3228.75" y="-282.9" font-family="Segoe UI" font-size="11.00">fetch_url</text>
</g>
<!-- tools.ts (Tool Definitions)&#45;&gt;fetch_url -->
<g id="edge19" class="edge">
<title>tools.ts (Tool Definitions)&#45;&gt;fetch_url</title>
<path fill="none" stroke="#9c27b0" d="M2931.24,-377C3041.85,-377 3228.75,-377 3228.75,-377 3228.75,-377 3228.75,-310.43 3228.75,-310.43"/>
<polygon fill="#9c27b0" stroke="#9c27b0" points="3232.25,-310.43 3228.75,-300.43 3225.25,-310.43 3232.25,-310.43"/>
</g>
<!-- calc -->
<g id="node28" class="node">
<title>calc</title>
<path fill="#fce4ec" stroke="black" d="M3428.95,-298.45C3428.95,-298.45 3330.55,-298.45 3330.55,-298.45 3326.35,-298.45 3322.15,-294.25 3322.15,-290.05 3322.15,-290.05 3322.15,-281.65 3322.15,-281.65 3322.15,-277.45 3326.35,-273.25 3330.55,-273.25 3330.55,-273.25 3428.95,-273.25 3428.95,-273.25 3433.15,-273.25 3437.35,-277.45 3437.35,-281.65 3437.35,-281.65 3437.35,-290.05 3437.35,-290.05 3437.35,-294.25 3433.15,-298.45 3428.95,-298.45"/>
<text xml:space="preserve" text-anchor="middle" x="3379.75" y="-282.9" font-family="Segoe UI" font-size="11.00">calc</text>
</g>
<!-- tools.ts (Tool Definitions)&#45;&gt;calc -->
<g id="edge20" class="edge">
<title>tools.ts (Tool Definitions)&#45;&gt;calc</title>
<path fill="none" stroke="#9c27b0" d="M2931.66,-383C3079.26,-383 3379.75,-383 3379.75,-383 3379.75,-383 3379.75,-310.07 3379.75,-310.07"/>
<polygon fill="#9c27b0" stroke="#9c27b0" points="3383.25,-310.07 3379.75,-300.07 3376.25,-310.07 3383.25,-310.07"/>
</g>
<!-- open_preview -->
<g id="node29" class="node">
<title>open_preview</title>
<path fill="#fce4ec" stroke="black" d="M3579.95,-298.45C3579.95,-298.45 3481.55,-298.45 3481.55,-298.45 3477.35,-298.45 3473.15,-294.25 3473.15,-290.05 3473.15,-290.05 3473.15,-281.65 3473.15,-281.65 3473.15,-277.45 3477.35,-273.25 3481.55,-273.25 3481.55,-273.25 3579.95,-273.25 3579.95,-273.25 3584.15,-273.25 3588.35,-277.45 3588.35,-281.65 3588.35,-281.65 3588.35,-290.05 3588.35,-290.05 3588.35,-294.25 3584.15,-298.45 3579.95,-298.45"/>
<text xml:space="preserve" text-anchor="middle" x="3530.75" y="-282.9" font-family="Segoe UI" font-size="11.00">open_preview</text>
</g>
<!-- tools.ts (Tool Definitions)&#45;&gt;open_preview -->
<g id="edge21" class="edge">
<title>tools.ts (Tool Definitions)&#45;&gt;open_preview</title>
<path fill="none" stroke="#9c27b0" d="M2931.64,-388C3111.12,-388 3530.75,-388 3530.75,-388 3530.75,-388 3530.75,-310.3 3530.75,-310.3"/>
<polygon fill="#9c27b0" stroke="#9c27b0" points="3534.25,-310.3 3530.75,-300.3 3527.25,-310.3 3534.25,-310.3"/>
</g>
<!-- Python venv (Auto&#45;provisioned) -->
<g id="node14" class="node">
<title>Python venv (Auto&#45;provisioned)</title>
<path fill="#e8f5e9" stroke="black" d="M1855.4,-207.99C1855.4,-207.99 1704.1,-207.99 1704.1,-207.99 1699.3,-207.99 1694.5,-203.19 1694.5,-198.39 1694.5,-198.39 1694.5,-188.79 1694.5,-188.79 1694.5,-183.99 1699.3,-179.19 1704.1,-179.19 1704.1,-179.19 1855.4,-179.19 1855.4,-179.19 1860.2,-179.19 1865,-183.99 1865,-188.79 1865,-188.79 1865,-198.39 1865,-198.39 1865,-203.19 1860.2,-207.99 1855.4,-207.99"/>
<text xml:space="preserve" text-anchor="middle" x="1779.75" y="-190.64" font-family="Segoe UI" font-size="11.00">Python venv (Auto&#45;provisioned)</text>
</g>
<!-- MLX&#45;LM Server (Port 11434)&#45;&gt;Python venv (Auto&#45;provisioned) -->
<g id="edge6" class="edge">
<title>MLX&#45;LM Server (Port 11434)&#45;&gt;Python venv (Auto&#45;provisioned)</title>
<path fill="none" stroke="#4caf50" stroke-width="1.2" d="M1844.28,-271.03C1844.28,-271.03 1844.28,-220.19 1844.28,-220.19"/>
<polygon fill="#4caf50" stroke="#4caf50" stroke-width="1.2" points="1847.78,-220.19 1844.28,-210.19 1840.78,-220.19 1847.78,-220.19"/>
</g>
<!-- Apple Silicon (MLX Acceleration) -->
<g id="node32" class="node">
<title>Apple Silicon (MLX Acceleration)</title>
<ellipse fill="#e0f7fa" stroke="black" cx="2025.75" cy="-193.59" rx="124.27" ry="16.26"/>
<text xml:space="preserve" text-anchor="middle" x="2025.75" y="-190.64" font-family="Segoe UI" font-size="11.00">Apple Silicon (MLX Acceleration)</text>
</g>
<!-- MLX&#45;LM Server (Port 11434)&#45;&gt;Apple Silicon (MLX Acceleration) -->
<g id="edge25" class="edge">
<title>MLX&#45;LM Server (Port 11434)&#45;&gt;Apple Silicon (MLX Acceleration)</title>
<path fill="none" stroke="#607d8b" stroke-width="0.8" stroke-dasharray="5,2" d="M1941.71,-271.03C1941.71,-271.03 1941.71,-216.94 1941.71,-216.94"/>
<polygon fill="#607d8b" stroke="#607d8b" stroke-width="0.8" points="1945.21,-216.94 1941.71,-206.94 1938.21,-216.94 1945.21,-216.94"/>
</g>
<!-- Gemma 4 Model (Local) -->
<g id="node15" class="node">
<title>Gemma 4 Model (Local)</title>
<path fill="#e8f5e9" stroke="black" d="M1849.35,-119.33C1849.35,-119.33 1710.15,-119.33 1710.15,-119.33 1705.35,-119.33 1700.55,-114.53 1700.55,-109.73 1700.55,-109.73 1700.55,-100.13 1700.55,-100.13 1700.55,-95.33 1705.35,-90.53 1710.15,-90.53 1710.15,-90.53 1849.35,-90.53 1849.35,-90.53 1854.15,-90.53 1858.95,-95.33 1858.95,-100.13 1858.95,-100.13 1858.95,-109.73 1858.95,-109.73 1858.95,-114.53 1854.15,-119.33 1849.35,-119.33"/>
<text xml:space="preserve" text-anchor="middle" x="1779.75" y="-101.98" font-family="Segoe UI" font-size="11.00">Gemma 4 Model (Local)</text>
</g>
<!-- Python venv (Auto&#45;provisioned)&#45;&gt;Gemma 4 Model (Local) -->
<g id="edge7" class="edge">
<title>Python venv (Auto&#45;provisioned)&#45;&gt;Gemma 4 Model (Local)</title>
<path fill="none" stroke="#4caf50" stroke-width="1.2" d="M1779.75,-178.95C1779.75,-178.95 1779.75,-131.41 1779.75,-131.41"/>
<polygon fill="#4caf50" stroke="#4caf50" stroke-width="1.2" points="1783.25,-131.41 1779.75,-121.41 1776.25,-131.41 1783.25,-131.41"/>
</g>
<!-- OpenAI&#45;Compatible SSE API -->
<g id="node16" class="node">
<title>OpenAI&#45;Compatible SSE API</title>
<path fill="#e8f5e9" stroke="black" d="M1730.35,-30.66C1730.35,-30.66 1591.15,-30.66 1591.15,-30.66 1586.35,-30.66 1581.55,-25.86 1581.55,-21.06 1581.55,-21.06 1581.55,-11.46 1581.55,-11.46 1581.55,-6.66 1586.35,-1.86 1591.15,-1.86 1591.15,-1.86 1730.35,-1.86 1730.35,-1.86 1735.15,-1.86 1739.95,-6.66 1739.95,-11.46 1739.95,-11.46 1739.95,-21.06 1739.95,-21.06 1739.95,-25.86 1735.15,-30.66 1730.35,-30.66"/>
<text xml:space="preserve" text-anchor="middle" x="1660.75" y="-13.31" font-family="Segoe UI" font-size="11.00">OpenAI&#45;Compatible SSE API</text>
</g>
<!-- Gemma 4 Model (Local)&#45;&gt;OpenAI&#45;Compatible SSE API -->
<g id="edge8" class="edge">
<title>Gemma 4 Model (Local)&#45;&gt;OpenAI&#45;Compatible SSE API</title>
<path fill="none" stroke="#4caf50" stroke-width="1.2" d="M1720.25,-90.29C1720.25,-90.29 1720.25,-42.74 1720.25,-42.74"/>
<polygon fill="#4caf50" stroke="#4caf50" stroke-width="1.2" points="1723.75,-42.74 1720.25,-32.74 1716.75,-42.74 1723.75,-42.74"/>
</g>
<!-- HuggingFace (Model Download) -->
<g id="node31" class="node">
<title>HuggingFace (Model Download)</title>
<ellipse fill="#e0f7fa" stroke="black" cx="1899.75" cy="-16.26" rx="123.74" ry="16.26"/>
<text xml:space="preserve" text-anchor="middle" x="1899.75" y="-13.31" font-family="Segoe UI" font-size="11.00">HuggingFace (Model Download)</text>
</g>
<!-- Gemma 4 Model (Local)&#45;&gt;HuggingFace (Model Download) -->
<g id="edge24" class="edge">
<title>Gemma 4 Model (Local)&#45;&gt;HuggingFace (Model Download)</title>
<path fill="none" stroke="#607d8b" stroke-width="0.8" stroke-dasharray="5,2" d="M1817.48,-90.29C1817.48,-90.29 1817.48,-39.85 1817.48,-39.85"/>
<polygon fill="#607d8b" stroke="#607d8b" stroke-width="0.8" points="1820.98,-39.85 1817.48,-29.85 1813.98,-39.85 1820.98,-39.85"/>
</g>
<!-- Per&#45;Conversation Workspace&#45;&gt;Local HTTP File Server -->
<g id="edge10" class="edge">
<title>Per&#45;Conversation Workspace&#45;&gt;Local HTTP File Server</title>
<path fill="none" stroke="#ff9800" stroke-width="1.2" d="M938.09,-286C927.8,-286 920.75,-286 920.75,-286 920.75,-286 920.75,-194 920.75,-194 920.75,-194 915.22,-194 915.22,-194"/>
<polygon fill="#ff9800" stroke="#ff9800" stroke-width="1.2" points="915.22,-190.5 905.22,-194 915.22,-197.5 915.22,-190.5"/>
</g>
<!-- Sandboxed Filesystem -->
<g id="node19" class="node">
<title>Sandboxed Filesystem</title>
<path fill="#fff3e0" stroke="black" d="M1087.35,-207.99C1087.35,-207.99 948.15,-207.99 948.15,-207.99 943.35,-207.99 938.55,-203.19 938.55,-198.39 938.55,-198.39 938.55,-188.79 938.55,-188.79 938.55,-183.99 943.35,-179.19 948.15,-179.19 948.15,-179.19 1087.35,-179.19 1087.35,-179.19 1092.15,-179.19 1096.95,-183.99 1096.95,-188.79 1096.95,-188.79 1096.95,-198.39 1096.95,-198.39 1096.95,-203.19 1092.15,-207.99 1087.35,-207.99"/>
<text xml:space="preserve" text-anchor="middle" x="1017.75" y="-190.64" font-family="Segoe UI" font-size="11.00">Sandboxed Filesystem</text>
</g>
<!-- Per&#45;Conversation Workspace&#45;&gt;Sandboxed Filesystem -->
<g id="edge11" class="edge">
<title>Per&#45;Conversation Workspace&#45;&gt;Sandboxed Filesystem</title>
<path fill="none" stroke="#ff9800" stroke-width="1.2" d="M1017.75,-271.03C1017.75,-271.03 1017.75,-220.19 1017.75,-220.19"/>
<polygon fill="#ff9800" stroke="#ff9800" stroke-width="1.2" points="1021.25,-220.19 1017.75,-210.19 1014.25,-220.19 1021.25,-220.19"/>
</g>
<!-- DuckDuckGo (Web Search) -->
<g id="node30" class="node">
<title>DuckDuckGo (Web Search)</title>
<ellipse fill="#e0f7fa" stroke="black" cx="3152.75" cy="-193.59" rx="102.53" ry="16.26"/>
<text xml:space="preserve" text-anchor="middle" x="3152.75" y="-190.64" font-family="Segoe UI" font-size="11.00">DuckDuckGo (Web Search)</text>
</g>
<!-- web_search&#45;&gt;DuckDuckGo (Web Search) -->
<g id="edge22" class="edge">
<title>web_search&#45;&gt;DuckDuckGo (Web Search)</title>
<path fill="none" stroke="#607d8b" stroke-width="0.8" stroke-dasharray="5,2" d="M3092.78,-273.02C3092.78,-273.02 3092.78,-218.42 3092.78,-218.42"/>
<polygon fill="#607d8b" stroke="#607d8b" stroke-width="0.8" points="3096.28,-218.42 3092.78,-208.42 3089.28,-218.42 3096.28,-218.42"/>
</g>
<!-- fetch_url&#45;&gt;DuckDuckGo (Web Search) -->
<g id="edge23" class="edge">
<title>fetch_url&#45;&gt;DuckDuckGo (Web Search)</title>
<path fill="none" stroke="#607d8b" stroke-width="0.8" stroke-dasharray="5,2" d="M3213.22,-273.02C3213.22,-273.02 3213.22,-218.12 3213.22,-218.12"/>
<polygon fill="#607d8b" stroke="#607d8b" stroke-width="0.8" points="3216.72,-218.12 3213.22,-208.12 3209.72,-218.12 3216.72,-218.12"/>
</g>
<!-- label_ui -->
<g id="node33" class="node">
<title>label_ui</title>
<text xml:space="preserve" text-anchor="middle" x="294.75" y="-377.08" font-family="Segoe UI" font-size="12.00" fill="#333333">UI Layer (React 19 + Tailwind)</text>
</g>
<!-- label_ui&#45;&gt;React 19 Renderer -->
<!-- label_main -->
<g id="node34" class="node">
<title>label_main</title>
<text xml:space="preserve" text-anchor="middle" x="89.75" y="-283.08" font-family="Segoe UI" font-size="12.00" fill="#333333">Electron Main Process (Node.js)</text>
</g>
<!-- label_main&#45;&gt;Electron Main Process -->
<!-- label_mlx -->
<g id="node35" class="node">
<title>label_mlx</title>
<text xml:space="preserve" text-anchor="middle" x="1993.75" y="-377.08" font-family="Segoe UI" font-size="12.00" fill="#333333">MLX Runtime (Python)</text>
</g>
<!-- label_mlx&#45;&gt;MLX&#45;LM Server (Port 11434) -->
<!-- label_ws -->
<g id="node36" class="node">
<title>label_ws</title>
<text xml:space="preserve" text-anchor="middle" x="1062.75" y="-377.08" font-family="Segoe UI" font-size="12.00" fill="#333333">Workspace Layer</text>
</g>
<!-- label_ws&#45;&gt;Per&#45;Conversation Workspace -->
<!-- label_tool -->
<g id="node37" class="node">
<title>label_tool</title>
<text xml:space="preserve" text-anchor="middle" x="2171.75" y="-377.08" font-family="Segoe UI" font-size="12.00" fill="#333333">Tool Ecosystem (10 Tools)</text>
</g>
<!-- label_tool&#45;&gt;write_file -->
</g>
</svg>
