<?xml version="1.0" encoding="UTF-8" standalone="no"?>
<!DOCTYPE svg PUBLIC "-//W3C//DTD SVG 1.1//EN"
 "http://www.w3.org/Graphics/SVG/1.1/DTD/svg11.dtd">
<!-- Generated by graphviz version 14.1.2 (0)
 -->
<!-- Title: gemma_chat_architecture Pages: 1 -->
<svg width="669pt" height="684pt"
 viewBox="0.00 0.00 669.00 684.00" xmlns="http://www.w3.org/2000/svg" xmlns:xlink="http://www.w3.org/1999/xlink">
<style>
<!-- White text halo for edge label readability -->
text { paint-order: stroke; stroke: #ffffff; stroke-width: 3px; stroke-linejoin: round; fill: #1a1a2e; }
</style>
<g id="graph0" class="graph" transform="scale(1 1) rotate(0) translate(4 679.5)">
<title>gemma_chat_architecture</title>
<polygon fill="white" stroke="none" points="-4,4 -4,-679.5 665.25,-679.5 665.25,4 -4,4"/>
<text xml:space="preserve" text-anchor="middle" x="330.62" y="-7.2" font-family="Times New Roman,serif" font-size="14.00">Gemma Chat &#45; Architecture Overview</text>
<!-- user -->
<g id="node1" class="node">
<title>user</title>
<polygon fill="#4caf50" stroke="black" points="240.62,-675.5 154.12,-675.5 154.12,-639.5 240.62,-639.5 240.62,-675.5"/>
<text xml:space="preserve" text-anchor="middle" x="197.38" y="-660.55" font-family="Arial" font-size="11.00" fill="white">User</text>
<text xml:space="preserve" text-anchor="middle" x="197.38" y="-647.05" font-family="Arial" font-size="11.00" fill="white">Prompt / Voice</text>
</g>
<!-- electron -->
<g id="node2" class="node">
<title>electron</title>
<path fill="#2196f3" stroke="black" d="M253,-574.5C253,-574.5 141.75,-574.5 141.75,-574.5 135.75,-574.5 129.75,-568.5 129.75,-562.5 129.75,-562.5 129.75,-550 129.75,-550 129.75,-544 135.75,-538 141.75,-538 141.75,-538 253,-538 253,-538 259,-538 265,-544 265,-550 265,-550 265,-562.5 265,-562.5 265,-568.5 259,-574.5 253,-574.5"/>
<text xml:space="preserve" text-anchor="middle" x="197.38" y="-559.1" font-family="Arial Bold" font-size="12.00" fill="white">Electron App Shell</text>
<text xml:space="preserve" text-anchor="middle" x="197.38" y="-544.85" font-family="Arial Bold" font-size="12.00" fill="white">(Vite + React 19 + TS)</text>
</g>
<!-- user&#45;&gt;electron -->
<g id="edge1" class="edge">
<title>user&#45;&gt;electron</title>
<path fill="none" stroke="#4caf50" stroke-width="2" d="M197.38,-639.4C197.38,-639.4 197.38,-587.91 197.38,-587.91"/>
<polygon fill="#4caf50" stroke="#4caf50" stroke-width="2" points="200.88,-587.91 197.38,-577.91 193.88,-587.91 200.88,-587.91"/>
</g>
<!-- chat_mode -->
<g id="node3" class="node">
<title>chat_mode</title>
<path fill="#00bcd4" stroke="black" d="M168.75,-473C168.75,-473 92,-473 92,-473 86,-473 80,-467 80,-461 80,-461 80,-449 80,-449 80,-443 86,-437 92,-437 92,-437 168.75,-437 168.75,-437 174.75,-437 180.75,-443 180.75,-449 180.75,-449 180.75,-461 180.75,-461 180.75,-467 174.75,-473 168.75,-473"/>
<text xml:space="preserve" text-anchor="middle" x="130.38" y="-458.05" font-family="Arial" font-size="11.00" fill="white">Chat Mode</text>
<text xml:space="preserve" text-anchor="middle" x="130.38" y="-444.55" font-family="Arial" font-size="11.00" fill="white">Conversational AI</text>
</g>
<!-- electron&#45;&gt;chat_mode -->
<g id="edge2" class="edge">
<title>electron&#45;&gt;chat_mode</title>
<path fill="none" stroke="#00bcd4" stroke-width="2" d="M155.25,-537.68C155.25,-537.68 155.25,-486.48 155.25,-486.48"/>
<polygon fill="#00bcd4" stroke="#00bcd4" stroke-width="2" points="158.75,-486.48 155.25,-476.48 151.75,-486.48 158.75,-486.48"/>
</g>
<!-- build_mode -->
<g id="node4" class="node">
<title>build_mode</title>
<path fill="#00bcd4" stroke="black" d="M293,-473C293,-473 235.75,-473 235.75,-473 229.75,-473 223.75,-467 223.75,-461 223.75,-461 223.75,-449 223.75,-449 223.75,-443 229.75,-437 235.75,-437 235.75,-437 293,-437 293,-437 299,-437 305,-443 305,-449 305,-449 305,-461 305,-461 305,-467 299,-473 293,-473"/>
<text xml:space="preserve" text-anchor="middle" x="264.38" y="-458.05" font-family="Arial" font-size="11.00" fill="white">Build Mode</text>
<text xml:space="preserve" text-anchor="middle" x="264.38" y="-444.55" font-family="Arial" font-size="11.00" fill="white">Coding Agent</text>
</g>
<!-- electron&#45;&gt;build_mode -->
<g id="edge3" class="edge">
<title>electron&#45;&gt;build_mode</title>
<path fill="none" stroke="#00bcd4" stroke-width="2" d="M244.38,-537.68C244.38,-537.68 244.38,-486.48 244.38,-486.48"/>
<polygon fill="#00bcd4" stroke="#00bcd4" stroke-width="2" points="247.88,-486.48 244.38,-476.48 240.88,-486.48 247.88,-486.48"/>
</g>
<!-- agent_loop -->
<g id="node5" class="node">
<title>agent_loop</title>
<path fill="#e91e63" stroke="black" d="M275.5,-372C275.5,-372 119.25,-372 119.25,-372 113.25,-372 107.25,-366 107.25,-360 107.25,-360 107.25,-347.5 107.25,-347.5 107.25,-341.5 113.25,-335.5 119.25,-335.5 119.25,-335.5 275.5,-335.5 275.5,-335.5 281.5,-335.5 287.5,-341.5 287.5,-347.5 287.5,-347.5 287.5,-360 287.5,-360 287.5,-366 281.5,-372 275.5,-372"/>
<text xml:space="preserve" text-anchor="middle" x="197.38" y="-356.6" font-family="Arial Bold" font-size="12.00" fill="white">Agent Loop</text>
<text xml:space="preserve" text-anchor="middle" x="197.38" y="-342.35" font-family="Arial Bold" font-size="12.00" fill="white">(Streaming + Tool Execution)</text>
</g>
<!-- chat_mode&#45;&gt;agent_loop -->
<g id="edge4" class="edge">
<title>chat_mode&#45;&gt;agent_loop</title>
<path fill="none" stroke="#e91e63" stroke-width="2" d="M144,-436.9C144,-436.9 144,-385.41 144,-385.41"/>
<polygon fill="#e91e63" stroke="#e91e63" stroke-width="2" points="147.5,-385.41 144,-375.41 140.5,-385.41 147.5,-385.41"/>
</g>
<!-- build_mode&#45;&gt;agent_loop -->
<g id="edge5" class="edge">
<title>build_mode&#45;&gt;agent_loop</title>
<path fill="none" stroke="#e91e63" stroke-width="2" d="M255.62,-436.9C255.62,-436.9 255.62,-385.41 255.62,-385.41"/>
<polygon fill="#e91e63" stroke="#e91e63" stroke-width="2" points="259.13,-385.41 255.63,-375.41 252.13,-385.41 259.13,-385.41"/>
</g>
<!-- tools -->
<g id="node6" class="node">
<title>tools</title>
<path fill="#ff9800" stroke="black" d="M160.12,-270.5C160.12,-270.5 70.62,-270.5 70.62,-270.5 64.62,-270.5 58.62,-264.5 58.62,-258.5 58.62,-258.5 58.62,-246.5 58.62,-246.5 58.62,-240.5 64.62,-234.5 70.62,-234.5 70.62,-234.5 160.12,-234.5 160.12,-234.5 166.12,-234.5 172.12,-240.5 172.12,-246.5 172.12,-246.5 172.12,-258.5 172.12,-258.5 172.12,-264.5 166.12,-270.5 160.12,-270.5"/>
<text xml:space="preserve" text-anchor="middle" x="115.38" y="-255.55" font-family="Arial" font-size="11.00" fill="white">Tool System</text>
<text xml:space="preserve" text-anchor="middle" x="115.38" y="-242.05" font-family="Arial" font-size="11.00" fill="white">(XML Action Parser)</text>
</g>
<!-- agent_loop&#45;&gt;tools -->
<g id="edge6" class="edge">
<title>agent_loop&#45;&gt;tools</title>
<path fill="none" stroke="#ff9800" stroke-width="2" d="M139.69,-335.18C139.69,-335.18 139.69,-283.98 139.69,-283.98"/>
<polygon fill="#ff9800" stroke="#ff9800" stroke-width="2" points="143.19,-283.98 139.69,-273.98 136.19,-283.98 143.19,-283.98"/>
</g>
<!-- mlx -->
<g id="node7" class="node">
<title>mlx</title>
<path fill="#9c27b0" stroke="black" d="M387,-270.5C387,-270.5 281.75,-270.5 281.75,-270.5 275.75,-270.5 269.75,-264.5 269.75,-258.5 269.75,-258.5 269.75,-246.5 269.75,-246.5 269.75,-240.5 275.75,-234.5 281.75,-234.5 281.75,-234.5 387,-234.5 387,-234.5 393,-234.5 399,-240.5 399,-246.5 399,-246.5 399,-258.5 399,-258.5 399,-264.5 393,-270.5 387,-270.5"/>
<text xml:space="preserve" text-anchor="middle" x="334.38" y="-255.55" font-family="Arial" font-size="11.00" fill="white">MLX&#45;LM Server</text>
<text xml:space="preserve" text-anchor="middle" x="334.38" y="-242.05" font-family="Arial" font-size="11.00" fill="white">(Apple Silicon Runtime)</text>
</g>
<!-- agent_loop&#45;&gt;mlx -->
<g id="edge7" class="edge">
<title>agent_loop&#45;&gt;mlx</title>
<path fill="none" stroke="#9c27b0" stroke-width="2" d="M278.62,-335.18C278.62,-335.18 278.62,-283.98 278.62,-283.98"/>
<polygon fill="#9c27b0" stroke="#9c27b0" stroke-width="2" points="282.13,-283.98 278.63,-273.98 275.13,-283.98 282.13,-283.98"/>
</g>
<!-- workspace -->
<g id="node12" class="node">
<title>workspace</title>
<path fill="#ff9800" stroke="black" d="M117.62,-165.5C117.62,-167.71 91.52,-169.5 59.38,-169.5 27.23,-169.5 1.12,-167.71 1.12,-165.5 1.12,-165.5 1.12,-129.5 1.12,-129.5 1.12,-127.29 27.23,-125.5 59.38,-125.5 91.52,-125.5 117.62,-127.29 117.62,-129.5 117.62,-129.5 117.62,-165.5 117.62,-165.5"/>
<path fill="none" stroke="black" d="M117.62,-165.5C117.62,-163.29 91.52,-161.5 59.38,-161.5 27.23,-161.5 1.12,-163.29 1.12,-165.5"/>
<text xml:space="preserve" text-anchor="middle" x="59.38" y="-150" font-family="Arial" font-size="10.00" fill="white">Sandboxed Workspace</text>
<text xml:space="preserve" text-anchor="middle" x="59.38" y="-138" font-family="Arial" font-size="10.00" fill="white">(Per&#45;Conversation FS)</text>
</g>
<!-- tools&#45;&gt;workspace -->
<g id="edge12" class="edge">
<title>tools&#45;&gt;workspace</title>
<path fill="none" stroke="#ff9800" stroke-width="2" d="M88.12,-234.21C88.12,-234.21 88.12,-182.99 88.12,-182.99"/>
<polygon fill="#ff9800" stroke="#ff9800" stroke-width="2" points="91.63,-182.99 88.13,-172.99 84.63,-182.99 91.63,-182.99"/>
</g>
<!-- model_e2b -->
<g id="node8" class="node">
<title>model_e2b</title>
<path fill="#3f51b5" stroke="black" d="M236,-165.5C236,-165.5 172.75,-165.5 172.75,-165.5 166.75,-165.5 160.75,-159.5 160.75,-153.5 160.75,-153.5 160.75,-141.5 160.75,-141.5 160.75,-135.5 166.75,-129.5 172.75,-129.5 172.75,-129.5 236,-129.5 236,-129.5 242,-129.5 248,-135.5 248,-141.5 248,-141.5 248,-153.5 248,-153.5 248,-159.5 242,-165.5 236,-165.5"/>
<text xml:space="preserve" text-anchor="middle" x="204.38" y="-150.55" font-family="Arial" font-size="11.00" fill="white">Gemma 4 E2B</text>
<text xml:space="preserve" text-anchor="middle" x="204.38" y="-137.05" font-family="Arial" font-size="11.00" fill="white">~1.5 GB</text>
</g>
<!-- mlx&#45;&gt;model_e2b -->
<g id="edge8" class="edge">
<title>mlx&#45;&gt;model_e2b</title>
<path fill="none" stroke="#3f51b5" stroke-width="1.5" d="M280.25,-234.21C280.25,-204.13 280.25,-147.5 280.25,-147.5 280.25,-147.5 260.34,-147.5 260.34,-147.5"/>
<polygon fill="#3f51b5" stroke="#3f51b5" stroke-width="1.5" points="260.34,-144 250.34,-147.5 260.34,-151 260.34,-144"/>
</g>
<!-- model_e4b -->
<g id="node9" class="node">
<title>model_e4b</title>
<path fill="#3f51b5" stroke="black" d="M366,-165.5C366,-165.5 302.75,-165.5 302.75,-165.5 296.75,-165.5 290.75,-159.5 290.75,-153.5 290.75,-153.5 290.75,-141.5 290.75,-141.5 290.75,-135.5 296.75,-129.5 302.75,-129.5 302.75,-129.5 366,-129.5 366,-129.5 372,-129.5 378,-135.5 378,-141.5 378,-141.5 378,-153.5 378,-153.5 378,-159.5 372,-165.5 366,-165.5"/>
<text xml:space="preserve" text-anchor="middle" x="334.38" y="-150.55" font-family="Arial" font-size="11.00" fill="white">Gemma 4 E4B</text>
<text xml:space="preserve" text-anchor="middle" x="334.38" y="-137.05" font-family="Arial" font-size="11.00" fill="white">~3 GB [Rec]</text>
</g>
<!-- mlx&#45;&gt;model_e4b -->
<g id="edge9" class="edge">
<title>mlx&#45;&gt;model_e4b</title>
<path fill="none" stroke="#3f51b5" stroke-width="2" d="M334.38,-234.21C334.38,-234.21 334.38,-178.96 334.38,-178.96"/>
<polygon fill="#3f51b5" stroke="#3f51b5" stroke-width="2" points="337.88,-178.96 334.38,-168.96 330.88,-178.96 337.88,-178.96"/>
</g>
<!-- model_27b -->
<g id="node10" class="node">
<title>model_27b</title>
<path fill="#3f51b5" stroke="black" d="M520,-165.5C520,-165.5 432.75,-165.5 432.75,-165.5 426.75,-165.5 420.75,-159.5 420.75,-153.5 420.75,-153.5 420.75,-141.5 420.75,-141.5 420.75,-135.5 426.75,-129.5 432.75,-129.5 432.75,-129.5 520,-129.5 520,-129.5 526,-129.5 532,-135.5 532,-141.5 532,-141.5 532,-153.5 532,-153.5 532,-159.5 526,-165.5 520,-165.5"/>
<text xml:space="preserve" text-anchor="middle" x="476.38" y="-150.55" font-family="Arial" font-size="11.00" fill="white">Gemma 4 27B MoE</text>
<text xml:space="preserve" text-anchor="middle" x="476.38" y="-137.05" font-family="Arial" font-size="11.00" fill="white">~16 GB</text>
</g>
<!-- mlx&#45;&gt;model_27b -->
<g id="edge10" class="edge">
<title>mlx&#45;&gt;model_27b</title>
<path fill="none" stroke="#3f51b5" stroke-width="1.5" d="M388.5,-234.21C388.5,-204.13 388.5,-147.5 388.5,-147.5 388.5,-147.5 408.45,-147.5 408.45,-147.5"/>
<polygon fill="#3f51b5" stroke="#3f51b5" stroke-width="1.5" points="408.45,-151 418.45,-147.5 408.45,-144 408.45,-151"/>
</g>
<!-- model_31b -->
<g id="node11" class="node">
<title>model_31b</title>
<path fill="#3f51b5" stroke="black" d="M649.25,-165.5C649.25,-165.5 587.5,-165.5 587.5,-165.5 581.5,-165.5 575.5,-159.5 575.5,-153.5 575.5,-153.5 575.5,-141.5 575.5,-141.5 575.5,-135.5 581.5,-129.5 587.5,-129.5 587.5,-129.5 649.25,-129.5 649.25,-129.5 655.25,-129.5 661.25,-135.5 661.25,-141.5 661.25,-141.5 661.25,-153.5 661.25,-153.5 661.25,-159.5 655.25,-165.5 649.25,-165.5"/>
<text xml:space="preserve" text-anchor="middle" x="618.38" y="-150.55" font-family="Arial" font-size="11.00" fill="white">Gemma 4 31B</text>
<text xml:space="preserve" text-anchor="middle" x="618.38" y="-137.05" font-family="Arial" font-size="11.00" fill="white">~18 GB</text>
</g>
<!-- mlx&#45;&gt;model_31b -->
<g id="edge11" class="edge">
<title>mlx&#45;&gt;model_31b</title>
<path fill="none" stroke="#3f51b5" stroke-width="1.5" d="M399.17,-252.5C482.99,-252.5 618.38,-252.5 618.38,-252.5 618.38,-252.5 618.38,-178.06 618.38,-178.06"/>
<polygon fill="#3f51b5" stroke="#3f51b5" stroke-width="1.5" points="621.88,-178.06 618.38,-168.06 614.88,-178.06 621.88,-178.06"/>
</g>
<!-- preview -->
<g id="node13" class="node">
<title>preview</title>
<path fill="#4caf50" stroke="black" d="M106.75,-60.5C106.75,-60.5 12,-60.5 12,-60.5 6,-60.5 0,-54.5 0,-48.5 0,-48.5 0,-36.5 0,-36.5 0,-30.5 6,-24.5 12,-24.5 12,-24.5 106.75,-24.5 106.75,-24.5 112.75,-24.5 118.75,-30.5 118.75,-36.5 118.75,-36.5 118.75,-48.5 118.75,-48.5 118.75,-54.5 112.75,-60.5 106.75,-60.5"/>
<text xml:space="preserve" text-anchor="middle" x="59.38" y="-45" font-family="Arial" font-size="10.00" fill="white">Live Preview</text>
<text xml:space="preserve" text-anchor="middle" x="59.38" y="-33" font-family="Arial" font-size="10.00" fill="white">(HTTP Server + iframe)</text>
</g>
<!-- workspace&#45;&gt;preview -->
<g id="edge13" class="edge">
<title>workspace&#45;&gt;preview</title>
<path fill="none" stroke="#4caf50" stroke-width="2" d="M59.38,-125.23C59.38,-125.23 59.38,-73.91 59.38,-73.91"/>
<polygon fill="#4caf50" stroke="#4caf50" stroke-width="2" points="62.88,-73.91 59.38,-63.91 55.88,-73.91 62.88,-73.91"/>
</g>
</g>
</svg>
