<?xml version="1.0" encoding="UTF-8" standalone="no"?>
<!DOCTYPE svg PUBLIC "-//W3C//DTD SVG 1.1//EN"
 "http://www.w3.org/Graphics/SVG/1.1/DTD/svg11.dtd">
<!-- Generated by graphviz version 14.1.2 (0)
 -->
<!-- Title: gitnexus_mcp_architecture Pages: 1 -->
<svg width="284pt" height="542pt"
 viewBox="0.00 0.00 284.00 542.00" xmlns="http://www.w3.org/2000/svg" xmlns:xlink="http://www.w3.org/1999/xlink">
<g id="graph0" class="graph" transform="scale(1 1) rotate(0) translate(4 537.5)">
<title>gitnexus_mcp_architecture</title>
<polygon fill="white" stroke="none" points="-4,4 -4,-537.5 279.88,-537.5 279.88,4 -4,4"/>
<!-- registry -->
<g id="node1" class="node">
<title>registry</title>
<path fill="#2196f3" stroke="black" d="M167.12,-439.5C167.12,-439.5 118.12,-439.5 118.12,-439.5 112.12,-439.5 106.12,-433.5 106.12,-427.5 106.12,-427.5 106.12,-415 106.12,-415 106.12,-409 112.12,-403 118.12,-403 118.12,-403 167.12,-403 167.12,-403 173.12,-403 179.12,-409 179.12,-415 179.12,-415 179.12,-427.5 179.12,-427.5 179.12,-433.5 173.12,-439.5 167.12,-439.5"/>
<text xml:space="preserve" text-anchor="middle" x="142.62" y="-424.1" font-family="Arial Bold" font-size="12.00" fill="white">Multi&#45;repo</text>
<text xml:space="preserve" text-anchor="middle" x="142.62" y="-409.85" font-family="Arial Bold" font-size="12.00" fill="white">Registry</text>
</g>
<!-- pooling -->
<g id="node2" class="node">
<title>pooling</title>
<path fill="#2196f3" stroke="black" d="M195.62,-345C195.62,-345 89.62,-345 89.62,-345 83.63,-345 77.62,-339 77.62,-333 77.62,-333 77.62,-320.5 77.62,-320.5 77.62,-314.5 83.62,-308.5 89.62,-308.5 89.62,-308.5 195.62,-308.5 195.62,-308.5 201.62,-308.5 207.62,-314.5 207.62,-320.5 207.62,-320.5 207.62,-333 207.62,-333 207.62,-339 201.62,-345 195.62,-345"/>
<text xml:space="preserve" text-anchor="middle" x="142.62" y="-329.6" font-family="Arial Bold" font-size="12.00" fill="white">Connection Pooling</text>
<text xml:space="preserve" text-anchor="middle" x="142.62" y="-315.35" font-family="Arial Bold" font-size="12.00" fill="white">5&#45;min Eviction</text>
</g>
<!-- registry&#45;&gt;pooling -->
<g id="edge2" class="edge">
<title>registry&#45;&gt;pooling</title>
<path fill="none" stroke="#2196f3" stroke-width="2" d="M142.62,-402.58C142.62,-402.58 142.62,-358.41 142.62,-358.41"/>
<polygon fill="#2196f3" stroke="#2196f3" stroke-width="2" points="146.13,-358.41 142.63,-348.41 139.13,-358.41 146.13,-358.41"/>
</g>
<!-- dispatch -->
<g id="node3" class="node">
<title>dispatch</title>
<path fill="#2196f3" stroke="black" d="M178,-250.5C178,-250.5 107.25,-250.5 107.25,-250.5 101.25,-250.5 95.25,-244.5 95.25,-238.5 95.25,-238.5 95.25,-226 95.25,-226 95.25,-220 101.25,-214 107.25,-214 107.25,-214 178,-214 178,-214 184,-214 190,-220 190,-226 190,-226 190,-238.5 190,-238.5 190,-244.5 184,-250.5 178,-250.5"/>
<text xml:space="preserve" text-anchor="middle" x="142.62" y="-235.1" font-family="Arial Bold" font-size="12.00" fill="white">Tool Dispatch</text>
<text xml:space="preserve" text-anchor="middle" x="142.62" y="-220.85" font-family="Arial Bold" font-size="12.00" fill="white">Router</text>
</g>
<!-- pooling&#45;&gt;dispatch -->
<g id="edge3" class="edge">
<title>pooling&#45;&gt;dispatch</title>
<path fill="none" stroke="#2196f3" stroke-width="2" d="M142.62,-308.08C142.62,-308.08 142.62,-263.91 142.62,-263.91"/>
<polygon fill="#2196f3" stroke="#2196f3" stroke-width="2" points="146.13,-263.91 142.63,-253.91 139.13,-263.91 146.13,-263.91"/>
</g>
<!-- query_tools -->
<g id="node4" class="node">
<title>query_tools</title>
<path fill="#ff9800" stroke="black" d="M117.25,-156C117.25,-156 12,-156 12,-156 6,-156 0,-150 0,-144 0,-144 0,-106 0,-106 0,-100 6,-94 12,-94 12,-94 117.25,-94 117.25,-94 123.25,-94 129.25,-100 129.25,-106 129.25,-106 129.25,-144 129.25,-144 129.25,-150 123.25,-156 117.25,-156"/>
<text xml:space="preserve" text-anchor="middle" x="64.62" y="-141.55" font-family="Arial" font-size="11.00" fill="white">Query Tools</text>
<text xml:space="preserve" text-anchor="middle" x="64.62" y="-128.05" font-family="Arial" font-size="11.00" fill="white">query, context</text>
<text xml:space="preserve" text-anchor="middle" x="64.62" y="-114.55" font-family="Arial" font-size="11.00" fill="white">impact, detect_changes</text>
<text xml:space="preserve" text-anchor="middle" x="64.62" y="-101.05" font-family="Arial" font-size="11.00" fill="white">rename, cypher</text>
</g>
<!-- dispatch&#45;&gt;query_tools -->
<g id="edge4" class="edge">
<title>dispatch&#45;&gt;query_tools</title>
<path fill="none" stroke="#ff9800" stroke-width="2" d="M112.25,-213.57C112.25,-213.57 112.25,-169.51 112.25,-169.51"/>
<polygon fill="#ff9800" stroke="#ff9800" stroke-width="2" points="115.75,-169.51 112.25,-159.51 108.75,-169.51 115.75,-169.51"/>
</g>
<!-- group_tools -->
<g id="node5" class="node">
<title>group_tools</title>
<path fill="#ff9800" stroke="black" d="M263.88,-149.25C263.88,-149.25 177.38,-149.25 177.38,-149.25 171.38,-149.25 165.38,-143.25 165.38,-137.25 165.38,-137.25 165.38,-112.75 165.38,-112.75 165.38,-106.75 171.38,-100.75 177.38,-100.75 177.38,-100.75 263.88,-100.75 263.88,-100.75 269.88,-100.75 275.88,-106.75 275.88,-112.75 275.88,-112.75 275.88,-137.25 275.88,-137.25 275.88,-143.25 269.88,-149.25 263.88,-149.25"/>
<text xml:space="preserve" text-anchor="middle" x="220.62" y="-134.8" font-family="Arial" font-size="11.00" fill="white">Group Tools</text>
<text xml:space="preserve" text-anchor="middle" x="220.62" y="-121.3" font-family="Arial" font-size="11.00" fill="white">group_* functions</text>
<text xml:space="preserve" text-anchor="middle" x="220.62" y="-107.8" font-family="Arial" font-size="11.00" fill="white">Multi&#45;repo contracts</text>
</g>
<!-- dispatch&#45;&gt;group_tools -->
<g id="edge5" class="edge">
<title>dispatch&#45;&gt;group_tools</title>
<path fill="none" stroke="#ff9800" stroke-width="2" d="M177.69,-213.57C177.69,-213.57 177.69,-162.53 177.69,-162.53"/>
<polygon fill="#ff9800" stroke="#ff9800" stroke-width="2" points="181.19,-162.53 177.69,-152.53 174.19,-162.53 181.19,-162.53"/>
</g>
<!-- output -->
<g id="node7" class="node">
<title>output</title>
<polygon fill="#f44336" stroke="black" points="175.75,-36 109.5,-36 109.5,0 175.75,0 175.75,-36"/>
<text xml:space="preserve" text-anchor="middle" x="142.62" y="-21.05" font-family="Arial" font-size="11.00" fill="white">Structured</text>
<text xml:space="preserve" text-anchor="middle" x="142.62" y="-7.55" font-family="Arial" font-size="11.00" fill="white">Response</text>
</g>
<!-- query_tools&#45;&gt;output -->
<g id="edge6" class="edge">
<title>query_tools&#45;&gt;output</title>
<path fill="none" stroke="#f44336" stroke-width="2" d="M119.38,-93.76C119.38,-93.76 119.38,-49.41 119.38,-49.41"/>
<polygon fill="#f44336" stroke="#f44336" stroke-width="2" points="122.88,-49.41 119.38,-39.41 115.88,-49.41 122.88,-49.41"/>
</g>
<!-- group_tools&#45;&gt;output -->
<g id="edge7" class="edge">
<title>group_tools&#45;&gt;output</title>
<path fill="none" stroke="#f44336" stroke-width="2" d="M170.56,-100.45C170.56,-100.45 170.56,-49.45 170.56,-49.45"/>
<polygon fill="#f44336" stroke="#f44336" stroke-width="2" points="174.06,-49.45 170.56,-39.45 167.06,-49.45 174.06,-49.45"/>
</g>
<!-- input -->
<g id="node6" class="node">
<title>input</title>
<polygon fill="#4caf50" stroke="black" points="178.38,-533.5 106.88,-533.5 106.88,-497.5 178.38,-497.5 178.38,-533.5"/>
<text xml:space="preserve" text-anchor="middle" x="142.62" y="-518.55" font-family="Arial" font-size="11.00" fill="white">MCP Client</text>
<text xml:space="preserve" text-anchor="middle" x="142.62" y="-505.05" font-family="Arial" font-size="11.00" fill="white">Request</text>
</g>
<!-- input&#45;&gt;registry -->
<g id="edge1" class="edge">
<title>input&#45;&gt;registry</title>
<path fill="none" stroke="#4caf50" stroke-width="2" d="M142.62,-497.33C142.62,-497.33 142.62,-452.72 142.62,-452.72"/>
<polygon fill="#4caf50" stroke="#4caf50" stroke-width="2" points="146.13,-452.72 142.63,-442.72 139.13,-452.72 146.13,-452.72"/>
</g>
</g>
</svg>
