<?xml version="1.0" encoding="UTF-8" standalone="no"?>
<!DOCTYPE svg PUBLIC "-//W3C//DTD SVG 1.1//EN"
 "http://www.w3.org/Graphics/SVG/1.1/DTD/svg11.dtd">
<!-- Generated by graphviz version 14.1.2 (0)
 -->
<!-- Title: G Pages: 1 -->
<svg width="229pt" height="720pt"
 viewBox="0.00 0.00 229.00 720.00" xmlns="http://www.w3.org/2000/svg" xmlns:xlink="http://www.w3.org/1999/xlink">
<g id="graph0" class="graph" transform="scale(1 1) rotate(0) translate(4 716)">
<title>G</title>
<polygon fill="white" stroke="none" points="-4,4 -4,-716 224.75,-716 224.75,4 -4,4"/>
<!-- step1 -->
<g id="node1" class="node">
<title>step1</title>
<polygon fill="#4a90d9" stroke="black" points="145.12,-712 65.38,-712 65.38,-676 145.12,-676 145.12,-712"/>
<text xml:space="preserve" text-anchor="middle" x="105.25" y="-697.05" font-family="Helvetica,sans-Serif" font-size="11.00" fill="white">1. Start herdr</text>
<text xml:space="preserve" text-anchor="middle" x="105.25" y="-683.55" font-family="Helvetica,sans-Serif" font-size="11.00" fill="white">in project dir</text>
</g>
<!-- step2 -->
<g id="node2" class="node">
<title>step2</title>
<polygon fill="#7bc67e" stroke="black" points="150,-640 60.5,-640 60.5,-604 150,-604 150,-640"/>
<text xml:space="preserve" text-anchor="middle" x="105.25" y="-625.05" font-family="Helvetica,sans-Serif" font-size="11.00" fill="white">2. Server starts</text>
<text xml:space="preserve" text-anchor="middle" x="105.25" y="-611.55" font-family="Helvetica,sans-Serif" font-size="11.00" fill="white">or reattaches</text>
</g>
<!-- step1&#45;&gt;step2 -->
<g id="edge1" class="edge">
<title>step1&#45;&gt;step2</title>
<path fill="none" stroke="#7bc67e" d="M105.25,-675.83C105.25,-675.83 105.25,-651.93 105.25,-651.93"/>
<polygon fill="#7bc67e" stroke="#7bc67e" points="108.75,-651.93 105.25,-641.93 101.75,-651.93 108.75,-651.93"/>
<text xml:space="preserve" text-anchor="middle" x="96.25" y="-665.83" font-family="Helvetica,sans-Serif" font-size="9.00">auto</text>
</g>
<!-- step3 -->
<g id="node3" class="node">
<title>step3</title>
<polygon fill="#e8a838" stroke="black" points="163.12,-568 47.38,-568 47.38,-532 163.12,-532 163.12,-568"/>
<text xml:space="preserve" text-anchor="middle" x="105.25" y="-553.05" font-family="Helvetica,sans-Serif" font-size="11.00" fill="white">3. Create workspace</text>
<text xml:space="preserve" text-anchor="middle" x="105.25" y="-539.55" font-family="Helvetica,sans-Serif" font-size="11.00" fill="white">(prefix+shift+n)</text>
</g>
<!-- step2&#45;&gt;step3 -->
<g id="edge2" class="edge">
<title>step2&#45;&gt;step3</title>
<path fill="none" stroke="#e8a838" d="M105.25,-603.83C105.25,-603.83 105.25,-579.93 105.25,-579.93"/>
<polygon fill="#e8a838" stroke="#e8a838" points="108.75,-579.93 105.25,-569.93 101.75,-579.93 108.75,-579.93"/>
</g>
<!-- step4 -->
<g id="node4" class="node">
<title>step4</title>
<polygon fill="#9b59b6" stroke="black" points="147,-496 63.5,-496 63.5,-460 147,-460 147,-496"/>
<text xml:space="preserve" text-anchor="middle" x="105.25" y="-481.05" font-family="Helvetica,sans-Serif" font-size="11.00" fill="white">4. Run agents</text>
<text xml:space="preserve" text-anchor="middle" x="105.25" y="-467.55" font-family="Helvetica,sans-Serif" font-size="11.00" fill="white">in panes</text>
</g>
<!-- step3&#45;&gt;step4 -->
<g id="edge3" class="edge">
<title>step3&#45;&gt;step4</title>
<path fill="none" stroke="#9b59b6" d="M105.25,-531.83C105.25,-531.83 105.25,-507.93 105.25,-507.93"/>
<polygon fill="#9b59b6" stroke="#9b59b6" points="108.75,-507.93 105.25,-497.93 101.75,-507.93 108.75,-507.93"/>
</g>
<!-- step5 -->
<g id="node5" class="node">
<title>step5</title>
<polygon fill="#9b59b6" stroke="black" points="97.88,-324 4.62,-324 4.62,-288 97.88,-288 97.88,-324"/>
<text xml:space="preserve" text-anchor="middle" x="51.25" y="-309.05" font-family="Helvetica,sans-Serif" font-size="11.00" fill="white">5. Split panes</text>
<text xml:space="preserve" text-anchor="middle" x="51.25" y="-295.55" font-family="Helvetica,sans-Serif" font-size="11.00" fill="white">(prefix+v/minus)</text>
</g>
<!-- step4&#45;&gt;step5 -->
<g id="edge4" class="edge">
<title>step4&#45;&gt;step5</title>
<path fill="none" stroke="#9b59b6" d="M76.62,-459.59C76.62,-459.59 76.62,-335.79 76.62,-335.79"/>
<polygon fill="#9b59b6" stroke="#9b59b6" points="80.13,-335.79 76.63,-325.79 73.13,-335.79 80.13,-335.79"/>
<text xml:space="preserve" text-anchor="middle" x="51.12" y="-399.64" font-family="Helvetica,sans-Serif" font-size="9.00">more agents</text>
</g>
<!-- agent_api -->
<g id="node10" class="node">
<title>agent_api</title>
<polygon fill="#e74c3c" stroke="black" points="155.25,-424 89.75,-392 155.25,-360 220.75,-392 155.25,-424"/>
<text xml:space="preserve" text-anchor="middle" x="155.25" y="-394.5" font-family="Helvetica,sans-Serif" font-size="10.00" fill="white">Agent uses</text>
<text xml:space="preserve" text-anchor="middle" x="155.25" y="-382.5" font-family="Helvetica,sans-Serif" font-size="10.00" fill="white">Socket API</text>
</g>
<!-- step4&#45;&gt;agent_api -->
<g id="edge10" class="edge">
<title>step4&#45;&gt;agent_api</title>
<path fill="none" stroke="#e74c3c" d="M118.38,-459.76C118.38,-459.76 118.38,-418.02 118.38,-418.02"/>
<polygon fill="#e74c3c" stroke="#e74c3c" points="121.88,-418.02 118.38,-408.02 114.88,-418.02 121.88,-418.02"/>
<text xml:space="preserve" text-anchor="middle" x="98.12" y="-440.84" font-family="Helvetica,sans-Serif" font-size="9.00">via socket</text>
</g>
<!-- step6 -->
<g id="node6" class="node">
<title>step6</title>
<polygon fill="#e74c3c" stroke="black" points="172.12,-252 38.38,-252 38.38,-216 172.12,-216 172.12,-252"/>
<text xml:space="preserve" text-anchor="middle" x="105.25" y="-237.05" font-family="Helvetica,sans-Serif" font-size="11.00" fill="white">6. Monitor sidebar</text>
<text xml:space="preserve" text-anchor="middle" x="105.25" y="-223.55" font-family="Helvetica,sans-Serif" font-size="11.00" fill="white">(Blocked/Working/Done)</text>
</g>
<!-- step5&#45;&gt;step6 -->
<g id="edge5" class="edge">
<title>step5&#45;&gt;step6</title>
<path fill="none" stroke="#e74c3c" d="M68.12,-287.83C68.12,-287.83 68.12,-263.93 68.12,-263.93"/>
<polygon fill="#e74c3c" stroke="#e74c3c" points="71.63,-263.93 68.13,-253.93 64.63,-263.93 71.63,-263.93"/>
</g>
<!-- step7 -->
<g id="node7" class="node">
<title>step7</title>
<polygon fill="#e8a838" stroke="black" points="107.5,-180 45,-180 45,-144 107.5,-144 107.5,-180"/>
<text xml:space="preserve" text-anchor="middle" x="76.25" y="-165.05" font-family="Helvetica,sans-Serif" font-size="11.00" fill="white">7. Detach</text>
<text xml:space="preserve" text-anchor="middle" x="76.25" y="-151.55" font-family="Helvetica,sans-Serif" font-size="11.00" fill="white">(prefix+q)</text>
</g>
<!-- step6&#45;&gt;step7 -->
<g id="edge6" class="edge">
<title>step6&#45;&gt;step7</title>
<path fill="none" stroke="#e8a838" d="M76.25,-215.83C76.25,-215.83 76.25,-191.93 76.25,-191.93"/>
<polygon fill="#e8a838" stroke="#e8a838" points="79.75,-191.93 76.25,-181.93 72.75,-191.93 79.75,-191.93"/>
<text xml:space="preserve" text-anchor="middle" x="42.88" y="-205.83" font-family="Helvetica,sans-Serif" font-size="9.00">done monitoring</text>
</g>
<!-- step8 -->
<g id="node8" class="node">
<title>step8</title>
<polygon fill="#7bc67e" stroke="black" points="122.5,-108 0,-108 0,-72 122.5,-72 122.5,-108"/>
<text xml:space="preserve" text-anchor="middle" x="61.25" y="-93.05" font-family="Helvetica,sans-Serif" font-size="11.00" fill="white">8. Agents keep</text>
<text xml:space="preserve" text-anchor="middle" x="61.25" y="-79.55" font-family="Helvetica,sans-Serif" font-size="11.00" fill="white">running in background</text>
</g>
<!-- step7&#45;&gt;step8 -->
<g id="edge7" class="edge">
<title>step7&#45;&gt;step8</title>
<path fill="none" stroke="#7bc67e" d="M76.25,-143.83C76.25,-143.83 76.25,-119.93 76.25,-119.93"/>
<polygon fill="#7bc67e" stroke="#7bc67e" points="79.75,-119.93 76.25,-109.93 72.75,-119.93 79.75,-119.93"/>
</g>
<!-- step9 -->
<g id="node9" class="node">
<title>step9</title>
<polygon fill="#4a90d9" stroke="black" points="154.88,-36 55.62,-36 55.62,0 154.88,0 154.88,-36"/>
<text xml:space="preserve" text-anchor="middle" x="105.25" y="-21.05" font-family="Helvetica,sans-Serif" font-size="11.00" fill="white">9. Reattach later</text>
<text xml:space="preserve" text-anchor="middle" x="105.25" y="-7.55" font-family="Helvetica,sans-Serif" font-size="11.00" fill="white">(herdr command)</text>
</g>
<!-- step8&#45;&gt;step9 -->
<g id="edge8" class="edge">
<title>step8&#45;&gt;step9</title>
<path fill="none" stroke="#4a90d9" d="M89.06,-71.83C89.06,-71.83 89.06,-47.93 89.06,-47.93"/>
<polygon fill="#4a90d9" stroke="#4a90d9" points="92.56,-47.93 89.06,-37.93 85.56,-47.93 92.56,-47.93"/>
<text xml:space="preserve" text-anchor="middle" x="66.94" y="-61.83" font-family="Helvetica,sans-Serif" font-size="9.00">return later</text>
</g>
<!-- step9&#45;&gt;step6 -->
<g id="edge9" class="edge">
<title>step9&#45;&gt;step6</title>
<path fill="none" stroke="#e74c3c" d="M138.69,-36.42C138.69,-36.42 138.69,-204.12 138.69,-204.12"/>
<polygon fill="#e74c3c" stroke="#e74c3c" points="135.19,-204.12 138.69,-214.12 142.19,-204.12 135.19,-204.12"/>
<text xml:space="preserve" text-anchor="middle" x="113.56" y="-122.22" font-family="Helvetica,sans-Serif" font-size="9.00">check status</text>
</g>
<!-- agent_spawn -->
<g id="node11" class="node">
<title>agent_spawn</title>
<polygon fill="#e74c3c" stroke="black" points="202.88,-324 115.62,-324 115.62,-288 202.88,-288 202.88,-324"/>
<text xml:space="preserve" text-anchor="middle" x="159.25" y="-308.5" font-family="Helvetica,sans-Serif" font-size="10.00" fill="white">Agent creates</text>
<text xml:space="preserve" text-anchor="middle" x="159.25" y="-296.5" font-family="Helvetica,sans-Serif" font-size="10.00" fill="white">workspace/pane</text>
</g>
<!-- agent_api&#45;&gt;agent_spawn -->
<g id="edge11" class="edge">
<title>agent_api&#45;&gt;agent_spawn</title>
<path fill="none" stroke="#e74c3c" d="M159.25,-361.44C159.25,-361.44 159.25,-335.96 159.25,-335.96"/>
<polygon fill="#e74c3c" stroke="#e74c3c" points="162.75,-335.96 159.25,-325.96 155.75,-335.96 162.75,-335.96"/>
</g>
<!-- agent_spawn&#45;&gt;step6 -->
<g id="edge12" class="edge">
<title>agent_spawn&#45;&gt;step6</title>
<path fill="none" stroke="#e74c3c" d="M143.88,-287.83C143.88,-287.83 143.88,-263.93 143.88,-263.93"/>
<polygon fill="#e74c3c" stroke="#e74c3c" points="147.38,-263.93 143.88,-253.93 140.38,-263.93 147.38,-263.93"/>
</g>
</g>
</svg>
