<?xml version="1.0" encoding="UTF-8" standalone="no"?>
<!DOCTYPE svg PUBLIC "-//W3C//DTD SVG 1.1//EN"
 "http://www.w3.org/Graphics/SVG/1.1/DTD/svg11.dtd">
<!-- Generated by graphviz version 14.1.2 (0)
 -->
<!-- Title: heretic_pipeline Pages: 1 -->
<svg width="1659pt" height="2466pt"
 viewBox="0.00 0.00 1659.00 2466.00" xmlns="http://www.w3.org/2000/svg" xmlns:xlink="http://www.w3.org/1999/xlink">
<g id="graph0" class="graph" transform="scale(2.08333 2.08333) rotate(0) translate(4 1179.5)">
<title>heretic_pipeline</title>
<polygon fill="white" stroke="none" points="-4,4 -4,-1179.5 792.5,-1179.5 792.5,4 -4,4"/>
<text xml:space="preserve" text-anchor="middle" x="394.25" y="-1150.6" font-family="Helvetica,sans-Serif" font-size="22.00" fill="#1a1a2e">Heretic Abliteration Pipeline &#45; From Model Input to Censorship&#45;Removed Output</text>
<g id="clust1" class="cluster">
<title>cluster_input</title>
<polygon fill="white" stroke="#2980b9" stroke-dasharray="5,2" points="200.75,-1047.25 200.75,-1134 354.75,-1134 354.75,-1047.25 200.75,-1047.25"/>
<text xml:space="preserve" text-anchor="middle" x="277.75" y="-1118.6" font-family="Helvetica,sans-Serif" font-size="12.00" fill="#2980b9">Model Input</text>
</g>
<g id="clust2" class="cluster">
<title>cluster_pairs</title>
<polygon fill="white" stroke="#e67e22" stroke-dasharray="5,2" points="362.75,-961.75 362.75,-1127.75 572.75,-1127.75 572.75,-961.75 362.75,-961.75"/>
<text xml:space="preserve" text-anchor="middle" x="467.75" y="-1112.35" font-family="Helvetica,sans-Serif" font-size="12.00" fill="#e67e22">Contrastive Pair Generation</text>
</g>
<g id="clust3" class="cluster">
<title>cluster_forward</title>
<polygon fill="white" stroke="#8e44ad" stroke-dasharray="5,2" points="376.75,-761.5 376.75,-942.75 516.75,-942.75 516.75,-761.5 376.75,-761.5"/>
<text xml:space="preserve" text-anchor="middle" x="446.75" y="-927.35" font-family="Helvetica,sans-Serif" font-size="12.00" fill="#8e44ad">Activation Collection</text>
</g>
<g id="clust4" class="cluster">
<title>cluster_diff</title>
<polygon fill="white" stroke="#8e44ad" stroke-dasharray="5,2" points="427.75,-555.25 427.75,-742.5 587.75,-742.5 587.75,-555.25 427.75,-555.25"/>
<text xml:space="preserve" text-anchor="middle" x="507.75" y="-727.1" font-family="Helvetica,sans-Serif" font-size="12.00" fill="#8e44ad">Direction Extraction</text>
</g>
<g id="clust5" class="cluster">
<title>cluster_optuna</title>
<polygon fill="white" stroke="#c0392b" stroke-dasharray="5,2" points="361.75,-345.5 361.75,-536.25 583.75,-536.25 583.75,-345.5 361.75,-345.5"/>
<text xml:space="preserve" text-anchor="middle" x="472.75" y="-520.85" font-family="Helvetica,sans-Serif" font-size="12.00" fill="#c0392b">Optuna TPE Optimization</text>
</g>
<g id="clust6" class="cluster">
<title>cluster_ablation</title>
<polygon fill="white" stroke="#e67e22" stroke-dasharray="5,2" points="386.75,-212.75 386.75,-326.5 566.75,-326.5 566.75,-212.75 386.75,-212.75"/>
<text xml:space="preserve" text-anchor="middle" x="476.75" y="-311.1" font-family="Helvetica,sans-Serif" font-size="12.00" fill="#e67e22">Ablation Operation</text>
</g>
<g id="clust7" class="cluster">
<title>cluster_output</title>
<polygon fill="white" stroke="#27ae60" stroke-dasharray="5,2" points="399.75,-8 399.75,-193.75 553.75,-193.75 553.75,-8 399.75,-8"/>
<text xml:space="preserve" text-anchor="middle" x="476.75" y="-178.35" font-family="Helvetica,sans-Serif" font-size="12.00" fill="#27ae60">Model Output</text>
</g>
<!-- input -->
<g id="node1" class="node">
<title>input</title>
<path fill="#e8f4f8" stroke="#2980b9" stroke-width="2" d="M334.88,-1103.75C334.88,-1103.75 220.62,-1103.75 220.62,-1103.75 214.62,-1103.75 208.62,-1097.75 208.62,-1091.75 208.62,-1091.75 208.62,-1067.25 208.62,-1067.25 208.62,-1061.25 214.62,-1055.25 220.62,-1055.25 220.62,-1055.25 334.88,-1055.25 334.88,-1055.25 340.88,-1055.25 346.88,-1061.25 346.88,-1067.25 346.88,-1067.25 346.88,-1091.75 346.88,-1091.75 346.88,-1097.75 340.88,-1103.75 334.88,-1103.75"/>
<text xml:space="preserve" text-anchor="middle" x="277.75" y="-1089.3" font-family="Helvetica,sans-Serif" font-size="11.00">Input Model</text>
<text xml:space="preserve" text-anchor="middle" x="277.75" y="-1075.8" font-family="Helvetica,sans-Serif" font-size="11.00">(Safety&#45;Aligned LLM)</text>
<text xml:space="preserve" text-anchor="middle" x="277.75" y="-1062.3" font-family="Helvetica,sans-Serif" font-size="11.00">e.g. Llama, Mistral, Qwen</text>
</g>
<!-- pair_gen -->
<g id="node2" class="node">
<title>pair_gen</title>
<path fill="#fff3e0" stroke="#e67e22" stroke-width="2" d="M511,-1018.25C511,-1018.25 382.5,-1018.25 382.5,-1018.25 376.5,-1018.25 370.5,-1012.25 370.5,-1006.25 370.5,-1006.25 370.5,-981.75 370.5,-981.75 370.5,-975.75 376.5,-969.75 382.5,-969.75 382.5,-969.75 511,-969.75 511,-969.75 517,-969.75 523,-975.75 523,-981.75 523,-981.75 523,-1006.25 523,-1006.25 523,-1012.25 517,-1018.25 511,-1018.25"/>
<text xml:space="preserve" text-anchor="middle" x="446.75" y="-1003.8" font-family="Helvetica,sans-Serif" font-size="11.00">Step 1: Contrastive</text>
<text xml:space="preserve" text-anchor="middle" x="446.75" y="-990.3" font-family="Helvetica,sans-Serif" font-size="11.00">Pair Generation</text>
<text xml:space="preserve" text-anchor="middle" x="446.75" y="-976.8" font-family="Helvetica,sans-Serif" font-size="11.00">Yes&#45;Prompts vs No&#45;Prompts</text>
</g>
<!-- input&#45;&gt;pair_gen -->
<g id="edge1" class="edge">
<title>input&#45;&gt;pair_gen</title>
<path fill="none" stroke="#2980b9" stroke-width="2" d="M326.63,-1054.35C345.21,-1045.17 366.59,-1034.61 386.12,-1024.96"/>
<polygon fill="#2980b9" stroke="#2980b9" stroke-width="2" points="387.56,-1028.15 394.97,-1020.58 384.46,-1021.87 387.56,-1028.15"/>
</g>
<!-- forward_pass -->
<g id="node5" class="node">
<title>forward_pass</title>
<path fill="#fff3e0" stroke="#e67e22" stroke-width="2" d="M497.12,-912.5C497.12,-912.5 396.38,-912.5 396.38,-912.5 390.38,-912.5 384.38,-906.5 384.38,-900.5 384.38,-900.5 384.38,-862.5 384.38,-862.5 384.38,-856.5 390.38,-850.5 396.38,-850.5 396.38,-850.5 497.12,-850.5 497.12,-850.5 503.12,-850.5 509.12,-856.5 509.12,-862.5 509.12,-862.5 509.12,-900.5 509.12,-900.5 509.12,-906.5 503.12,-912.5 497.12,-912.5"/>
<text xml:space="preserve" text-anchor="middle" x="446.75" y="-898.05" font-family="Helvetica,sans-Serif" font-size="11.00">Step 2: Forward Pass</text>
<text xml:space="preserve" text-anchor="middle" x="446.75" y="-884.55" font-family="Helvetica,sans-Serif" font-size="11.00">Activation Collection</text>
<text xml:space="preserve" text-anchor="middle" x="446.75" y="-871.05" font-family="Helvetica,sans-Serif" font-size="11.00">Run Both Prompt Sets</text>
<text xml:space="preserve" text-anchor="middle" x="446.75" y="-857.55" font-family="Helvetica,sans-Serif" font-size="11.00">Through Model</text>
</g>
<!-- pair_gen&#45;&gt;forward_pass -->
<g id="edge2" class="edge">
<title>pair_gen&#45;&gt;forward_pass</title>
<path fill="none" stroke="#e67e22" stroke-width="2" d="M446.75,-968.75C446.75,-956.3 446.75,-940.74 446.75,-926.28"/>
<polygon fill="#e67e22" stroke="#e67e22" stroke-width="2" points="450.25,-926.45 446.75,-916.45 443.25,-926.45 450.25,-926.45"/>
</g>
<!-- yes_prompts -->
<g id="node3" class="node">
<title>yes_prompts</title>
<polygon fill="#fff9c4" stroke="#f9a825" stroke-width="1.5" points="448.88,-1097.5 370.62,-1097.5 370.62,-1061.5 454.88,-1061.5 454.88,-1091.5 448.88,-1097.5"/>
<polyline fill="none" stroke="#f9a825" stroke-width="1.5" points="448.88,-1097.5 448.88,-1091.5"/>
<polyline fill="none" stroke="#f9a825" stroke-width="1.5" points="454.88,-1091.5 448.88,-1091.5"/>
<text xml:space="preserve" text-anchor="middle" x="412.75" y="-1081.45" font-family="Helvetica,sans-Serif" font-size="9.00">Harmful Prompts</text>
<text xml:space="preserve" text-anchor="middle" x="412.75" y="-1070.95" font-family="Helvetica,sans-Serif" font-size="9.00">(Should Refuse)</text>
</g>
<!-- yes_prompts&#45;&gt;pair_gen -->
<g id="edge9" class="edge">
<title>yes_prompts&#45;&gt;pair_gen</title>
<path fill="none" stroke="#f9a825" stroke-dasharray="5,2" d="M419.96,-1060.79C423.67,-1051.67 428.33,-1040.23 432.72,-1029.46"/>
<polygon fill="#f9a825" stroke="#f9a825" points="435.87,-1031 436.4,-1020.42 429.39,-1028.36 435.87,-1031"/>
</g>
<!-- no_prompts -->
<g id="node4" class="node">
<title>no_prompts</title>
<polygon fill="#fff9c4" stroke="#f9a825" stroke-width="1.5" points="558.25,-1097.5 473.25,-1097.5 473.25,-1061.5 564.25,-1061.5 564.25,-1091.5 558.25,-1097.5"/>
<polyline fill="none" stroke="#f9a825" stroke-width="1.5" points="558.25,-1097.5 558.25,-1091.5"/>
<polyline fill="none" stroke="#f9a825" stroke-width="1.5" points="564.25,-1091.5 558.25,-1091.5"/>
<text xml:space="preserve" text-anchor="middle" x="518.75" y="-1081.45" font-family="Helvetica,sans-Serif" font-size="9.00">Harmless Prompts</text>
<text xml:space="preserve" text-anchor="middle" x="518.75" y="-1070.95" font-family="Helvetica,sans-Serif" font-size="9.00">(Should Comply)</text>
</g>
<!-- no_prompts&#45;&gt;pair_gen -->
<g id="edge10" class="edge">
<title>no_prompts&#45;&gt;pair_gen</title>
<path fill="none" stroke="#f9a825" stroke-dasharray="5,2" d="M503.48,-1060.79C495.13,-1051.1 484.51,-1038.79 474.73,-1027.45"/>
<polygon fill="#f9a825" stroke="#f9a825" points="477.63,-1025.45 468.45,-1020.16 472.33,-1030.02 477.63,-1025.45"/>
</g>
<!-- hidden_states -->
<g id="node6" class="node">
<title>hidden_states</title>
<path fill="#f3e5f5" stroke="#8e44ad" stroke-width="2" d="M481.62,-813.5C481.62,-813.5 401.88,-813.5 401.88,-813.5 395.88,-813.5 389.88,-807.5 389.88,-801.5 389.88,-801.5 389.88,-781.5 389.88,-781.5 389.88,-775.5 395.88,-769.5 401.88,-769.5 401.88,-769.5 481.62,-769.5 481.62,-769.5 487.62,-769.5 493.62,-775.5 493.62,-781.5 493.62,-781.5 493.62,-801.5 493.62,-801.5 493.62,-807.5 487.62,-813.5 481.62,-813.5"/>
<text xml:space="preserve" text-anchor="middle" x="441.75" y="-800" font-family="Helvetica,sans-Serif" font-size="10.00">Hidden States</text>
<text xml:space="preserve" text-anchor="middle" x="441.75" y="-788" font-family="Helvetica,sans-Serif" font-size="10.00">at Refusal Layer</text>
<text xml:space="preserve" text-anchor="middle" x="441.75" y="-776" font-family="Helvetica,sans-Serif" font-size="10.00">(Usually Last Layer)</text>
</g>
<!-- forward_pass&#45;&gt;hidden_states -->
<g id="edge11" class="edge">
<title>forward_pass&#45;&gt;hidden_states</title>
<path fill="none" stroke="#8e44ad" stroke-width="1.5" d="M445,-849.72C444.57,-842.14 444.11,-833.97 443.67,-826.26"/>
<polygon fill="#8e44ad" stroke="#8e44ad" stroke-width="1.5" points="447.18,-826.31 443.12,-816.53 440.19,-826.71 447.18,-826.31"/>
</g>
<!-- act_diff -->
<g id="node7" class="node">
<title>act_diff</title>
<path fill="#f3e5f5" stroke="#8e44ad" stroke-width="2" d="M564.12,-712.25C564.12,-712.25 451.38,-712.25 451.38,-712.25 445.38,-712.25 439.38,-706.25 439.38,-700.25 439.38,-700.25 439.38,-668.25 439.38,-668.25 439.38,-662.25 445.38,-656.25 451.38,-656.25 451.38,-656.25 564.12,-656.25 564.12,-656.25 570.12,-656.25 576.12,-662.25 576.12,-668.25 576.12,-668.25 576.12,-700.25 576.12,-700.25 576.12,-706.25 570.12,-712.25 564.12,-712.25"/>
<text xml:space="preserve" text-anchor="middle" x="507.75" y="-698.75" font-family="Helvetica,sans-Serif" font-size="10.00">Step 3: Activation</text>
<text xml:space="preserve" text-anchor="middle" x="507.75" y="-686.75" font-family="Helvetica,sans-Serif" font-size="10.00">Difference Computation</text>
<text xml:space="preserve" text-anchor="middle" x="507.75" y="-674.75" font-family="Helvetica,sans-Serif" font-size="10.00">Mean(Refuse Activations)</text>
<text xml:space="preserve" text-anchor="middle" x="507.75" y="-662.75" font-family="Helvetica,sans-Serif" font-size="10.00">&#45; Mean(Comply Activations)</text>
</g>
<!-- forward_pass&#45;&gt;act_diff -->
<g id="edge3" class="edge">
<title>forward_pass&#45;&gt;act_diff</title>
<path fill="none" stroke="#e67e22" stroke-width="2" d="M479.79,-849.6C488.91,-839.1 497.68,-826.66 502.75,-813.5 513.49,-785.61 514.35,-751.74 512.73,-725.81"/>
<polygon fill="#e67e22" stroke="#e67e22" stroke-width="2" points="516.24,-725.76 511.94,-716.07 509.26,-726.32 516.24,-725.76"/>
</g>
<!-- hidden_states&#45;&gt;act_diff -->
<g id="edge12" class="edge">
<title>hidden_states&#45;&gt;act_diff</title>
<path fill="none" stroke="#8e44ad" stroke-width="1.5" stroke-dasharray="5,2" d="M455.43,-768.69C463.65,-755.58 474.34,-738.53 483.91,-723.26"/>
<polygon fill="#8e44ad" stroke="#8e44ad" stroke-width="1.5" points="486.77,-725.3 489.11,-714.97 480.84,-721.58 486.77,-725.3"/>
</g>
<!-- refusal_dir -->
<g id="node8" class="node">
<title>refusal_dir</title>
<path fill="#f3e5f5" stroke="#8e44ad" stroke-width="2" d="M567.5,-619.25C567.5,-619.25 448,-619.25 448,-619.25 442,-619.25 436,-613.25 436,-607.25 436,-607.25 436,-575.25 436,-575.25 436,-569.25 442,-563.25 448,-563.25 448,-563.25 567.5,-563.25 567.5,-563.25 573.5,-563.25 579.5,-569.25 579.5,-575.25 579.5,-575.25 579.5,-607.25 579.5,-607.25 579.5,-613.25 573.5,-619.25 567.5,-619.25"/>
<text xml:space="preserve" text-anchor="middle" x="507.75" y="-605.75" font-family="Helvetica,sans-Serif" font-size="10.00">Step 4: Refusal Direction</text>
<text xml:space="preserve" text-anchor="middle" x="507.75" y="-593.75" font-family="Helvetica,sans-Serif" font-size="10.00">Extraction</text>
<text xml:space="preserve" text-anchor="middle" x="507.75" y="-581.75" font-family="Helvetica,sans-Serif" font-size="10.00">Normalized Difference Vector</text>
<text xml:space="preserve" text-anchor="middle" x="507.75" y="-569.75" font-family="Helvetica,sans-Serif" font-size="10.00">r = diff / ||diff||</text>
</g>
<!-- act_diff&#45;&gt;refusal_dir -->
<g id="edge4" class="edge">
<title>act_diff&#45;&gt;refusal_dir</title>
<path fill="none" stroke="#8e44ad" stroke-width="2" d="M507.75,-655.45C507.75,-648.37 507.75,-640.62 507.75,-633.04"/>
<polygon fill="#8e44ad" stroke="#8e44ad" stroke-width="2" points="511.25,-633.22 507.75,-623.22 504.25,-633.22 511.25,-633.22"/>
</g>
<!-- optuna_tpe -->
<g id="node9" class="node">
<title>optuna_tpe</title>
<path fill="#fce4ec" stroke="#c0392b" stroke-width="2" d="M559.25,-506C559.25,-506 456.25,-506 456.25,-506 450.25,-506 444.25,-500 444.25,-494 444.25,-494 444.25,-462 444.25,-462 444.25,-456 450.25,-450 456.25,-450 456.25,-450 559.25,-450 559.25,-450 565.25,-450 571.25,-456 571.25,-462 571.25,-462 571.25,-494 571.25,-494 571.25,-500 565.25,-506 559.25,-506"/>
<text xml:space="preserve" text-anchor="middle" x="507.75" y="-492.5" font-family="Helvetica,sans-Serif" font-size="10.00">Step 5: Optuna TPE</text>
<text xml:space="preserve" text-anchor="middle" x="507.75" y="-480.5" font-family="Helvetica,sans-Serif" font-size="10.00">Optimization Loop</text>
<text xml:space="preserve" text-anchor="middle" x="507.75" y="-468.5" font-family="Helvetica,sans-Serif" font-size="10.00">Bayesian Search for</text>
<text xml:space="preserve" text-anchor="middle" x="507.75" y="-456.5" font-family="Helvetica,sans-Serif" font-size="10.00">Optimal Ablation Strength</text>
</g>
<!-- refusal_dir&#45;&gt;optuna_tpe -->
<g id="edge5" class="edge">
<title>refusal_dir&#45;&gt;optuna_tpe</title>
<path fill="none" stroke="#8e44ad" stroke-width="2" d="M507.75,-562.46C507.75,-549.46 507.75,-533.71 507.75,-519.42"/>
<polygon fill="#8e44ad" stroke="#8e44ad" stroke-width="2" points="511.25,-519.84 507.75,-509.84 504.25,-519.84 511.25,-519.84"/>
</g>
<!-- ablation_strength -->
<g id="node10" class="node">
<title>ablation_strength</title>
<polygon fill="#fff9c4" stroke="#f9a825" stroke-width="1.5" points="451.75,-403.5 369.75,-403.5 369.75,-353.5 457.75,-353.5 457.75,-397.5 451.75,-403.5"/>
<polyline fill="none" stroke="#f9a825" stroke-width="1.5" points="451.75,-403.5 451.75,-397.5"/>
<polyline fill="none" stroke="#f9a825" stroke-width="1.5" points="457.75,-397.5 451.75,-397.5"/>
<text xml:space="preserve" text-anchor="middle" x="413.75" y="-390.95" font-family="Helvetica,sans-Serif" font-size="9.00">Ablation Strength</text>
<text xml:space="preserve" text-anchor="middle" x="413.75" y="-380.45" font-family="Helvetica,sans-Serif" font-size="9.00">Alpha Parameter</text>
<text xml:space="preserve" text-anchor="middle" x="413.75" y="-369.95" font-family="Helvetica,sans-Serif" font-size="9.00">Scale of Direction</text>
<text xml:space="preserve" text-anchor="middle" x="413.75" y="-359.45" font-family="Helvetica,sans-Serif" font-size="9.00">Removal</text>
</g>
<!-- optuna_tpe&#45;&gt;ablation_strength -->
<g id="edge13" class="edge">
<title>optuna_tpe&#45;&gt;ablation_strength</title>
<path fill="none" stroke="#c0392b" stroke-width="1.5" d="M480.81,-449.06C469.92,-437.76 457.25,-424.62 445.88,-412.83"/>
<polygon fill="#c0392b" stroke="#c0392b" stroke-width="1.5" points="448.53,-410.53 439.07,-405.76 443.49,-415.39 448.53,-410.53"/>
</g>
<!-- quality_eval -->
<g id="node11" class="node">
<title>quality_eval</title>
<polygon fill="#fff9c4" stroke="#f9a825" stroke-width="1.5" points="569.38,-403.5 476.12,-403.5 476.12,-353.5 575.38,-353.5 575.38,-397.5 569.38,-403.5"/>
<polyline fill="none" stroke="#f9a825" stroke-width="1.5" points="569.38,-403.5 569.38,-397.5"/>
<polyline fill="none" stroke="#f9a825" stroke-width="1.5" points="575.38,-397.5 569.38,-397.5"/>
<text xml:space="preserve" text-anchor="middle" x="525.75" y="-390.95" font-family="Helvetica,sans-Serif" font-size="9.00">Quality Evaluation</text>
<text xml:space="preserve" text-anchor="middle" x="525.75" y="-380.45" font-family="Helvetica,sans-Serif" font-size="9.00">Perplexity Check</text>
<text xml:space="preserve" text-anchor="middle" x="525.75" y="-369.95" font-family="Helvetica,sans-Serif" font-size="9.00">Capability Retention</text>
<text xml:space="preserve" text-anchor="middle" x="525.75" y="-359.45" font-family="Helvetica,sans-Serif" font-size="9.00">Refusal Rate</text>
</g>
<!-- optuna_tpe&#45;&gt;quality_eval -->
<g id="edge15" class="edge">
<title>optuna_tpe&#45;&gt;quality_eval</title>
<path fill="none" stroke="#c0392b" stroke-width="1.5" d="M498.39,-449.03C496.69,-440.13 496.16,-430.3 498.75,-421.5 499.41,-419.25 500.23,-417.02 501.17,-414.81"/>
<polygon fill="#c0392b" stroke="#c0392b" stroke-width="1.5" points="504.17,-416.63 505.64,-406.14 497.95,-413.42 504.17,-416.63"/>
</g>
<!-- ablation_op -->
<g id="node12" class="node">
<title>ablation_op</title>
<path fill="#fff3e0" stroke="#e67e22" stroke-width="2" d="M546.25,-296.25C546.25,-296.25 407.25,-296.25 407.25,-296.25 401.25,-296.25 395.25,-290.25 395.25,-284.25 395.25,-284.25 395.25,-232.75 395.25,-232.75 395.25,-226.75 401.25,-220.75 407.25,-220.75 407.25,-220.75 546.25,-220.75 546.25,-220.75 552.25,-220.75 558.25,-226.75 558.25,-232.75 558.25,-232.75 558.25,-284.25 558.25,-284.25 558.25,-290.25 552.25,-296.25 546.25,-296.25"/>
<text xml:space="preserve" text-anchor="middle" x="476.75" y="-281.8" font-family="Helvetica,sans-Serif" font-size="11.00">Step 6: Ablation</text>
<text xml:space="preserve" text-anchor="middle" x="476.75" y="-268.3" font-family="Helvetica,sans-Serif" font-size="11.00">Operation</text>
<text xml:space="preserve" text-anchor="middle" x="476.75" y="-254.8" font-family="Helvetica,sans-Serif" font-size="11.00">Remove Refusal Direction</text>
<text xml:space="preserve" text-anchor="middle" x="476.75" y="-241.3" font-family="Helvetica,sans-Serif" font-size="11.00">from Residual Stream Weights</text>
<text xml:space="preserve" text-anchor="middle" x="476.75" y="-227.8" font-family="Helvetica,sans-Serif" font-size="11.00">W = W &#45; alpha * r * r^T</text>
</g>
<!-- optuna_tpe&#45;&gt;ablation_op -->
<g id="edge6" class="edge">
<title>optuna_tpe&#45;&gt;ablation_op</title>
<path fill="none" stroke="#c0392b" stroke-width="2" d="M563.53,-449.21C569.74,-444.2 575.38,-438.48 579.75,-432 591.4,-414.71 585.81,-347.71 584.75,-345.5 577.41,-330.27 565.92,-316.91 553.12,-305.54"/>
<polygon fill="#c0392b" stroke="#c0392b" stroke-width="2" points="555.38,-302.87 545.45,-299.17 550.91,-308.25 555.38,-302.87"/>
</g>
<!-- ablation_strength&#45;&gt;ablation_op -->
<g id="edge14" class="edge">
<title>ablation_strength&#45;&gt;ablation_op</title>
<path fill="none" stroke="#c0392b" stroke-width="1.5" stroke-dasharray="5,2" d="M426.96,-352.76C433.93,-339.69 442.74,-323.19 451.01,-307.72"/>
<polygon fill="#c0392b" stroke="#c0392b" stroke-width="1.5" points="453.92,-309.7 455.54,-299.23 447.74,-306.4 453.92,-309.7"/>
</g>
<!-- quality_eval&#45;&gt;optuna_tpe -->
<g id="edge16" class="edge">
<title>quality_eval&#45;&gt;optuna_tpe</title>
<path fill="none" stroke="#c0392b" stroke-width="1.5" stroke-dasharray="5,2" d="M521.2,-404.13C519.35,-414.17 517.16,-426.05 515.09,-437.27"/>
<polygon fill="#c0392b" stroke="#c0392b" stroke-width="1.5" points="511.69,-436.36 513.32,-446.83 518.58,-437.63 511.69,-436.36"/>
<text xml:space="preserve" text-anchor="middle" x="546.7" y="-423.45" font-family="Helvetica,sans-Serif" font-size="9.00" fill="#c0392b">feedback loop</text>
</g>
<!-- output -->
<g id="node13" class="node">
<title>output</title>
<path fill="#e8f5e9" stroke="#27ae60" stroke-width="2" d="M533.88,-163.5C533.88,-163.5 419.62,-163.5 419.62,-163.5 413.62,-163.5 407.62,-157.5 407.62,-151.5 407.62,-151.5 407.62,-113.5 407.62,-113.5 407.62,-107.5 413.62,-101.5 419.62,-101.5 419.62,-101.5 533.88,-101.5 533.88,-101.5 539.88,-101.5 545.88,-107.5 545.88,-113.5 545.88,-113.5 545.88,-151.5 545.88,-151.5 545.88,-157.5 539.88,-163.5 533.88,-163.5"/>
<text xml:space="preserve" text-anchor="middle" x="476.75" y="-149.05" font-family="Helvetica,sans-Serif" font-size="11.00">Output Model</text>
<text xml:space="preserve" text-anchor="middle" x="476.75" y="-135.55" font-family="Helvetica,sans-Serif" font-size="11.00">(Abliterated LLM)</text>
<text xml:space="preserve" text-anchor="middle" x="476.75" y="-122.05" font-family="Helvetica,sans-Serif" font-size="11.00">No Safety Alignment</text>
<text xml:space="preserve" text-anchor="middle" x="476.75" y="-108.55" font-family="Helvetica,sans-Serif" font-size="11.00">Full Capabilities Retained</text>
</g>
<!-- ablation_op&#45;&gt;output -->
<g id="edge7" class="edge">
<title>ablation_op&#45;&gt;output</title>
<path fill="none" stroke="#27ae60" stroke-width="2" d="M476.75,-219.96C476.75,-206.45 476.75,-191.11 476.75,-177.13"/>
<polygon fill="#27ae60" stroke="#27ae60" stroke-width="2" points="480.25,-177.28 476.75,-167.28 473.25,-177.28 480.25,-177.28"/>
</g>
<!-- hf_upload -->
<g id="node14" class="node">
<title>hf_upload</title>
<path fill="#e8f5e9" stroke="#27ae60" stroke-width="2" d="M516.62,-64.5C516.62,-64.5 436.88,-64.5 436.88,-64.5 430.88,-64.5 424.88,-58.5 424.88,-52.5 424.88,-52.5 424.88,-28 424.88,-28 424.88,-22 430.88,-16 436.88,-16 436.88,-16 516.62,-16 516.62,-16 522.62,-16 528.62,-22 528.62,-28 528.62,-28 528.62,-52.5 528.62,-52.5 528.62,-58.5 522.62,-64.5 516.62,-64.5"/>
<text xml:space="preserve" text-anchor="middle" x="476.75" y="-50.05" font-family="Helvetica,sans-Serif" font-size="11.00">HuggingFace Hub</text>
<text xml:space="preserve" text-anchor="middle" x="476.75" y="-36.55" font-family="Helvetica,sans-Serif" font-size="11.00">Auto&#45;Registration</text>
<text xml:space="preserve" text-anchor="middle" x="476.75" y="-23.05" font-family="Helvetica,sans-Serif" font-size="11.00">1,247+ Models</text>
</g>
<!-- output&#45;&gt;hf_upload -->
<g id="edge8" class="edge">
<title>output&#45;&gt;hf_upload</title>
<path fill="none" stroke="#27ae60" stroke-width="1.5" d="M476.75,-100.69C476.75,-93.21 476.75,-85.14 476.75,-77.43"/>
<polygon fill="#27ae60" stroke="#27ae60" stroke-width="1.5" points="480.25,-77.64 476.75,-67.64 473.25,-77.64 480.25,-77.64"/>
</g>
</g>
</svg>
