<?xml version="1.0" encoding="UTF-8" standalone="no"?>

<!DOCTYPE svg PUBLIC "-//W3C//DTD SVG 1.1//EN"

 "http://www.w3.org/Graphics/SVG/1.1/DTD/svg11.dtd">

<!-- Generated by graphviz version 14.1.2 (0)

 -->

<!-- Title: hermes_arch Pages: 1 -->

<svg width="2223pt" height="594pt"

 viewBox="0.00 0.00 2223.00 594.00" xmlns="http://www.w3.org/2000/svg" xmlns:xlink="http://www.w3.org/1999/xlink">

<g id="graph0" class="graph" transform="scale(1 1) rotate(0) translate(4 590.1)">

<title>hermes_arch</title>
<polygon fill="white" stroke="none" points="-4.0,3.8999999999999773 -4.0,-590.1 2219.0,-590.1 2219.0,3.8999999999999773"/>

<text xml:space="preserve" text-anchor="middle" x="1107.7" y="-7.2" font-family="Times New Roman,serif" font-size="14.00">Hermes Desktop &#45; Core Architecture</text>

<!-- scr_Chat -->

<g id="node1" class="node">

<title>scr_Chat</title>

<path fill="#4caf50" stroke="black" d="M146.4,-586.1C146.4,-586.1 12,-586.1 12,-586.1 6,-586.1 0,-580.1 0,-574.1 0,-574.1 0,-540.5 0,-540.5 0,-534.5 6,-528.5 12,-528.5 12,-528.5 146.4,-528.5 146.4,-528.5 152.4,-528.5 158.4,-534.5 158.4,-540.5 158.4,-540.5 158.4,-574.1 158.4,-574.1 158.4,-580.1 152.4,-586.1 146.4,-586.1"/>

<text xml:space="preserve" text-anchor="middle" x="79.2" y="-553.8" font-family="Arial" font-size="10.00" fill="white">Chat</text>

</g>

<!-- preload -->

<g id="node30" class="node">

<title>preload</title>

<polygon fill="#607d8b" stroke="black" points="1233.2,-456.5 981.2,-456.5 981.2,-406.1 1233.2,-406.1 1233.2,-456.5"/>

<text xml:space="preserve" text-anchor="middle" x="1107.2" y="-434.35" font-family="Arial Bold" font-size="11.00" fill="white">Preload Bridge</text>

<text xml:space="preserve" text-anchor="middle" x="1107.2" y="-420.85" font-family="Arial Bold" font-size="11.00" fill="white">(Secure IPC: invoke/on)</text>

</g>

<!-- scr_Chat&#45;&gt;preload -->

<g id="edge1" class="edge">

<title>scr_Chat&#45;&gt;preload</title>

<path fill="none" stroke="#4caf50" stroke-width="1.5" d="M141.8,-528.29C141.8,-488.13 141.8,-420.5 141.8,-420.5 141.8,-420.5 968.72,-420.5 968.72,-420.5"/>

<polygon fill="#4caf50" stroke="#4caf50" stroke-width="1.5" points="968.72,-424 978.72,-420.5 968.72,-417 968.72,-424"/>

</g>

<!-- data_config -->

<g id="node2" class="node">

<title>data_config</title>

<path fill="#ff9800" stroke="black" d="M269.2,-192.72C269.2,-195.25 236.93,-197.3 197.2,-197.3 157.47,-197.3 125.2,-195.25 125.2,-192.72 125.2,-192.72 125.2,-151.48 125.2,-151.48 125.2,-148.95 157.47,-146.9 197.2,-146.9 236.93,-146.9 269.2,-148.95 269.2,-151.48 269.2,-151.48 269.2,-192.72 269.2,-192.72"/>

<path fill="none" stroke="black" d="M269.2,-192.72C269.2,-190.19 236.93,-188.14 197.2,-188.14 157.47,-188.14 125.2,-190.19 125.2,-192.72"/>

<text xml:space="preserve" text-anchor="middle" x="197.2" y="-168.8" font-family="Arial" font-size="9.00" fill="white">config.yaml</text>

</g>

<!-- prov_or -->

<g id="node3" class="node">

<title>prov_or</title>

<path fill="#f44336" stroke="black" d="M565,-67.7C565,-67.7 459.4,-67.7 459.4,-67.7 453.4,-67.7 447.4,-61.7 447.4,-55.7 447.4,-55.7 447.4,-36.5 447.4,-36.5 447.4,-30.5 453.4,-24.5 459.4,-24.5 459.4,-24.5 565,-24.5 565,-24.5 571,-24.5 577,-30.5 577,-36.5 577,-36.5 577,-55.7 577,-55.7 577,-61.7 571,-67.7 565,-67.7"/>

<text xml:space="preserve" text-anchor="middle" x="512.2" y="-42.8" font-family="Arial" font-size="9.00" fill="white">OpenRouter</text>

</g>

<!-- scr_Sessions -->

<g id="node4" class="node">

<title>scr_Sessions</title>

<path fill="#4caf50" stroke="black" d="M333.4,-586.1C333.4,-586.1 199,-586.1 199,-586.1 193,-586.1 187,-580.1 187,-574.1 187,-574.1 187,-540.5 187,-540.5 187,-534.5 193,-528.5 199,-528.5 199,-528.5 333.4,-528.5 333.4,-528.5 339.4,-528.5 345.4,-534.5 345.4,-540.5 345.4,-540.5 345.4,-574.1 345.4,-574.1 345.4,-580.1 339.4,-586.1 333.4,-586.1"/>

<text xml:space="preserve" text-anchor="middle" x="266.2" y="-553.8" font-family="Arial" font-size="10.00" fill="white">Sessions</text>

</g>

<!-- scr_Sessions&#45;&gt;preload -->

<g id="edge2" class="edge">

<title>scr_Sessions&#45;&gt;preload</title>

<path fill="none" stroke="#4caf50" stroke-width="1.5" d="M321.8,-528.17C321.8,-489.9 321.8,-427.5 321.8,-427.5 321.8,-427.5 968.74,-427.5 968.74,-427.5"/>

<polygon fill="#4caf50" stroke="#4caf50" stroke-width="1.5" points="968.74,-431 978.74,-427.5 968.74,-424 968.74,-431"/>

</g>

<!-- data_env -->

<g id="node5" class="node">

<title>data_env</title>

<path fill="#ff9800" stroke="black" d="M442.2,-192.72C442.2,-195.25 409.93,-197.3 370.2,-197.3 330.47,-197.3 298.2,-195.25 298.2,-192.72 298.2,-192.72 298.2,-151.48 298.2,-151.48 298.2,-148.95 330.47,-146.9 370.2,-146.9 409.93,-146.9 442.2,-148.95 442.2,-151.48 442.2,-151.48 442.2,-192.72 442.2,-192.72"/>

<path fill="none" stroke="black" d="M442.2,-192.72C442.2,-190.19 409.93,-188.14 370.2,-188.14 330.47,-188.14 298.2,-190.19 298.2,-192.72"/>

<text xml:space="preserve" text-anchor="middle" x="370.2" y="-168.8" font-family="Arial" font-size="9.00" fill="white">.env</text>

</g>

<!-- prov_an -->

<g id="node6" class="node">

<title>prov_an</title>

<path fill="#f44336" stroke="black" d="M724,-67.7C724,-67.7 618.4,-67.7 618.4,-67.7 612.4,-67.7 606.4,-61.7 606.4,-55.7 606.4,-55.7 606.4,-36.5 606.4,-36.5 606.4,-30.5 612.4,-24.5 618.4,-24.5 618.4,-24.5 724,-24.5 724,-24.5 730,-24.5 736,-30.5 736,-36.5 736,-36.5 736,-55.7 736,-55.7 736,-61.7 730,-67.7 724,-67.7"/>

<text xml:space="preserve" text-anchor="middle" x="671.2" y="-42.8" font-family="Arial" font-size="9.00" fill="white">Anthropic</text>

</g>

<!-- scr_Agents -->

<g id="node7" class="node">

<title>scr_Agents</title>

<path fill="#4caf50" stroke="black" d="M520.4,-586.1C520.4,-586.1 386,-586.1 386,-586.1 380,-586.1 374,-580.1 374,-574.1 374,-574.1 374,-540.5 374,-540.5 374,-534.5 380,-528.5 386,-528.5 386,-528.5 520.4,-528.5 520.4,-528.5 526.4,-528.5 532.4,-534.5 532.4,-540.5 532.4,-540.5 532.4,-574.1 532.4,-574.1 532.4,-580.1 526.4,-586.1 520.4,-586.1"/>

<text xml:space="preserve" text-anchor="middle" x="453.2" y="-553.8" font-family="Arial" font-size="10.00" fill="white">Agents</text>

</g>

<!-- scr_Agents&#45;&gt;preload -->

<g id="edge3" class="edge">

<title>scr_Agents&#45;&gt;preload</title>

<path fill="none" stroke="#4caf50" stroke-width="1.5" d="M501.8,-528.2C501.8,-491.88 501.8,-434.5 501.8,-434.5 501.8,-434.5 968.75,-434.5 968.75,-434.5"/>

<polygon fill="#4caf50" stroke="#4caf50" stroke-width="1.5" points="968.75,-438 978.75,-434.5 968.75,-431 968.75,-438"/>

</g>

<!-- data_db -->

<g id="node8" class="node">

<title>data_db</title>

<path fill="#ff9800" stroke="black" d="M615.2,-192.72C615.2,-195.25 582.93,-197.3 543.2,-197.3 503.47,-197.3 471.2,-195.25 471.2,-192.72 471.2,-192.72 471.2,-151.48 471.2,-151.48 471.2,-148.95 503.47,-146.9 543.2,-146.9 582.93,-146.9 615.2,-148.95 615.2,-151.48 615.2,-151.48 615.2,-192.72 615.2,-192.72"/>

<path fill="none" stroke="black" d="M615.2,-192.72C615.2,-190.19 582.93,-188.14 543.2,-188.14 503.47,-188.14 471.2,-190.19 471.2,-192.72"/>

<text xml:space="preserve" text-anchor="middle" x="543.2" y="-168.8" font-family="Arial" font-size="9.00" fill="white">state.db</text>

</g>

<!-- prov_oai -->

<g id="node9" class="node">

<title>prov_oai</title>

<path fill="#f44336" stroke="black" d="M883,-67.7C883,-67.7 777.4,-67.7 777.4,-67.7 771.4,-67.7 765.4,-61.7 765.4,-55.7 765.4,-55.7 765.4,-36.5 765.4,-36.5 765.4,-30.5 771.4,-24.5 777.4,-24.5 777.4,-24.5 883,-24.5 883,-24.5 889,-24.5 895,-30.5 895,-36.5 895,-36.5 895,-55.7 895,-55.7 895,-61.7 889,-67.7 883,-67.7"/>

<text xml:space="preserve" text-anchor="middle" x="830.2" y="-42.8" font-family="Arial" font-size="9.00" fill="white">OpenAI</text>

</g>

<!-- scr_Skills -->

<g id="node10" class="node">

<title>scr_Skills</title>

<path fill="#4caf50" stroke="black" d="M707.4,-586.1C707.4,-586.1 573,-586.1 573,-586.1 567,-586.1 561,-580.1 561,-574.1 561,-574.1 561,-540.5 561,-540.5 561,-534.5 567,-528.5 573,-528.5 573,-528.5 707.4,-528.5 707.4,-528.5 713.4,-528.5 719.4,-534.5 719.4,-540.5 719.4,-540.5 719.4,-574.1 719.4,-574.1 719.4,-580.1 713.4,-586.1 707.4,-586.1"/>

<text xml:space="preserve" text-anchor="middle" x="640.2" y="-553.8" font-family="Arial" font-size="10.00" fill="white">Skills</text>

</g>

<!-- scr_Skills&#45;&gt;preload -->

<g id="edge4" class="edge">

<title>scr_Skills&#45;&gt;preload</title>

<path fill="none" stroke="#4caf50" stroke-width="1.5" d="M659.3,-528.03C659.3,-494.02 659.3,-442.5 659.3,-442.5 659.3,-442.5 968.67,-442.5 968.67,-442.5"/>

<polygon fill="#4caf50" stroke="#4caf50" stroke-width="1.5" points="968.67,-446 978.67,-442.5 968.67,-439 968.67,-446"/>

</g>

<!-- data_profiles -->

<g id="node11" class="node">

<title>data_profiles</title>

<path fill="#ff9800" stroke="black" d="M788.2,-192.72C788.2,-195.25 755.93,-197.3 716.2,-197.3 676.47,-197.3 644.2,-195.25 644.2,-192.72 644.2,-192.72 644.2,-151.48 644.2,-151.48 644.2,-148.95 676.47,-146.9 716.2,-146.9 755.93,-146.9 788.2,-148.95 788.2,-151.48 788.2,-151.48 788.2,-192.72 788.2,-192.72"/>

<path fill="none" stroke="black" d="M788.2,-192.72C788.2,-190.19 755.93,-188.14 716.2,-188.14 676.47,-188.14 644.2,-190.19 644.2,-192.72"/>

<text xml:space="preserve" text-anchor="middle" x="716.2" y="-168.8" font-family="Arial" font-size="9.00" fill="white">profiles/</text>

</g>

<!-- prov_gem -->

<g id="node12" class="node">

<title>prov_gem</title>

<path fill="#f44336" stroke="black" d="M1042,-67.7C1042,-67.7 936.4,-67.7 936.4,-67.7 930.4,-67.7 924.4,-61.7 924.4,-55.7 924.4,-55.7 924.4,-36.5 924.4,-36.5 924.4,-30.5 930.4,-24.5 936.4,-24.5 936.4,-24.5 1042,-24.5 1042,-24.5 1048,-24.5 1054,-30.5 1054,-36.5 1054,-36.5 1054,-55.7 1054,-55.7 1054,-61.7 1048,-67.7 1042,-67.7"/>

<text xml:space="preserve" text-anchor="middle" x="989.2" y="-42.8" font-family="Arial" font-size="9.00" fill="white">Gemini</text>

</g>

<!-- scr_Models -->

<g id="node13" class="node">

<title>scr_Models</title>

<path fill="#4caf50" stroke="black" d="M894.4,-586.1C894.4,-586.1 760,-586.1 760,-586.1 754,-586.1 748,-580.1 748,-574.1 748,-574.1 748,-540.5 748,-540.5 748,-534.5 754,-528.5 760,-528.5 760,-528.5 894.4,-528.5 894.4,-528.5 900.4,-528.5 906.4,-534.5 906.4,-540.5 906.4,-540.5 906.4,-574.1 906.4,-574.1 906.4,-580.1 900.4,-586.1 894.4,-586.1"/>

<text xml:space="preserve" text-anchor="middle" x="827.2" y="-553.8" font-family="Arial" font-size="10.00" fill="white">Models</text>

</g>

<!-- scr_Models&#45;&gt;preload -->

<g id="edge5" class="edge">

<title>scr_Models&#45;&gt;preload</title>

<path fill="none" stroke="#4caf50" stroke-width="1.5" d="M857.3,-528.13C857.3,-496.2 857.3,-449.5 857.3,-449.5 857.3,-449.5 968.52,-449.5 968.52,-449.5"/>

<polygon fill="#4caf50" stroke="#4caf50" stroke-width="1.5" points="968.52,-453 978.52,-449.5 968.52,-446 968.52,-453"/>

</g>

<!-- data_cron -->

<g id="node14" class="node">

<title>data_cron</title>

<path fill="#ff9800" stroke="black" d="M961.2,-192.72C961.2,-195.25 928.93,-197.3 889.2,-197.3 849.47,-197.3 817.2,-195.25 817.2,-192.72 817.2,-192.72 817.2,-151.48 817.2,-151.48 817.2,-148.95 849.47,-146.9 889.2,-146.9 928.93,-146.9 961.2,-148.95 961.2,-151.48 961.2,-151.48 961.2,-192.72 961.2,-192.72"/>

<path fill="none" stroke="black" d="M961.2,-192.72C961.2,-190.19 928.93,-188.14 889.2,-188.14 849.47,-188.14 817.2,-190.19 817.2,-192.72"/>

<text xml:space="preserve" text-anchor="middle" x="889.2" y="-168.8" font-family="Arial" font-size="9.00" fill="white">cron/jobs.json</text>

</g>

<!-- prov_grok -->

<g id="node15" class="node">

<title>prov_grok</title>

<path fill="#f44336" stroke="black" d="M1201,-67.7C1201,-67.7 1095.4,-67.7 1095.4,-67.7 1089.4,-67.7 1083.4,-61.7 1083.4,-55.7 1083.4,-55.7 1083.4,-36.5 1083.4,-36.5 1083.4,-30.5 1089.4,-24.5 1095.4,-24.5 1095.4,-24.5 1201,-24.5 1201,-24.5 1207,-24.5 1213,-30.5 1213,-36.5 1213,-36.5 1213,-55.7 1213,-55.7 1213,-61.7 1207,-67.7 1201,-67.7"/>

<text xml:space="preserve" text-anchor="middle" x="1148.2" y="-42.8" font-family="Arial" font-size="9.00" fill="white">Grok</text>

</g>

<!-- scr_Memory -->

<g id="node16" class="node">

<title>scr_Memory</title>

<path fill="#4caf50" stroke="black" d="M1081.4,-586.1C1081.4,-586.1 947,-586.1 947,-586.1 941,-586.1 935,-580.1 935,-574.1 935,-574.1 935,-540.5 935,-540.5 935,-534.5 941,-528.5 947,-528.5 947,-528.5 1081.4,-528.5 1081.4,-528.5 1087.4,-528.5 1093.4,-534.5 1093.4,-540.5 1093.4,-540.5 1093.4,-574.1 1093.4,-574.1 1093.4,-580.1 1087.4,-586.1 1081.4,-586.1"/>

<text xml:space="preserve" text-anchor="middle" x="1014.2" y="-553.8" font-family="Arial" font-size="10.00" fill="white">Memory</text>

</g>

<!-- scr_Memory&#45;&gt;preload -->

<g id="edge6" class="edge">

<title>scr_Memory&#45;&gt;preload</title>

<path fill="none" stroke="#4caf50" stroke-width="1.5" d="M1037.3,-528.08C1037.3,-528.08 1037.3,-469.22 1037.3,-469.22"/>

<polygon fill="#4caf50" stroke="#4caf50" stroke-width="1.5" points="1040.8,-469.22 1037.3,-459.22 1033.8,-469.22 1040.8,-469.22"/>

</g>

<!-- data_agent -->

<g id="node17" class="node">

<title>data_agent</title>

<path fill="#ff9800" stroke="black" d="M1134.2,-192.72C1134.2,-195.25 1101.93,-197.3 1062.2,-197.3 1022.47,-197.3 990.2,-195.25 990.2,-192.72 990.2,-192.72 990.2,-151.48 990.2,-151.48 990.2,-148.95 1022.47,-146.9 1062.2,-146.9 1101.93,-146.9 1134.2,-148.95 1134.2,-151.48 1134.2,-151.48 1134.2,-192.72 1134.2,-192.72"/>

<path fill="none" stroke="black" d="M1134.2,-192.72C1134.2,-190.19 1101.93,-188.14 1062.2,-188.14 1022.47,-188.14 990.2,-190.19 990.2,-192.72"/>

<text xml:space="preserve" text-anchor="middle" x="1062.2" y="-168.8" font-family="Arial" font-size="9.00" fill="white">hermes&#45;agent/</text>

</g>

<!-- prov_qwen -->

<g id="node18" class="node">

<title>prov_qwen</title>

<path fill="#f44336" stroke="black" d="M1360,-67.7C1360,-67.7 1254.4,-67.7 1254.4,-67.7 1248.4,-67.7 1242.4,-61.7 1242.4,-55.7 1242.4,-55.7 1242.4,-36.5 1242.4,-36.5 1242.4,-30.5 1248.4,-24.5 1254.4,-24.5 1254.4,-24.5 1360,-24.5 1360,-24.5 1366,-24.5 1372,-30.5 1372,-36.5 1372,-36.5 1372,-55.7 1372,-55.7 1372,-61.7 1366,-67.7 1360,-67.7"/>

<text xml:space="preserve" text-anchor="middle" x="1307.2" y="-42.8" font-family="Arial" font-size="9.00" fill="white">Qwen</text>

</g>

<!-- scr_Soul -->

<g id="node19" class="node">

<title>scr_Soul</title>

<path fill="#4caf50" stroke="black" d="M1268.4,-586.1C1268.4,-586.1 1134,-586.1 1134,-586.1 1128,-586.1 1122,-580.1 1122,-574.1 1122,-574.1 1122,-540.5 1122,-540.5 1122,-534.5 1128,-528.5 1134,-528.5 1134,-528.5 1268.4,-528.5 1268.4,-528.5 1274.4,-528.5 1280.4,-534.5 1280.4,-540.5 1280.4,-540.5 1280.4,-574.1 1280.4,-574.1 1280.4,-580.1 1274.4,-586.1 1268.4,-586.1"/>

<text xml:space="preserve" text-anchor="middle" x="1201.2" y="-553.8" font-family="Arial" font-size="10.00" fill="white">Soul</text>

</g>

<!-- scr_Soul&#45;&gt;preload -->

<g id="edge7" class="edge">

<title>scr_Soul&#45;&gt;preload</title>

<path fill="none" stroke="#4caf50" stroke-width="1.5" d="M1177.6,-528.08C1177.6,-528.08 1177.6,-469.22 1177.6,-469.22"/>

<polygon fill="#4caf50" stroke="#4caf50" stroke-width="1.5" points="1181.1,-469.22 1177.6,-459.22 1174.1,-469.22 1181.1,-469.22"/>

</g>

<!-- prov_mm -->

<g id="node20" class="node">

<title>prov_mm</title>

<path fill="#f44336" stroke="black" d="M1519,-67.7C1519,-67.7 1413.4,-67.7 1413.4,-67.7 1407.4,-67.7 1401.4,-61.7 1401.4,-55.7 1401.4,-55.7 1401.4,-36.5 1401.4,-36.5 1401.4,-30.5 1407.4,-24.5 1413.4,-24.5 1413.4,-24.5 1519,-24.5 1519,-24.5 1525,-24.5 1531,-30.5 1531,-36.5 1531,-36.5 1531,-55.7 1531,-55.7 1531,-61.7 1525,-67.7 1519,-67.7"/>

<text xml:space="preserve" text-anchor="middle" x="1466.2" y="-42.8" font-family="Arial" font-size="9.00" fill="white">MiniMax</text>

</g>

<!-- scr_Tools -->

<g id="node21" class="node">

<title>scr_Tools</title>

<path fill="#4caf50" stroke="black" d="M1455.4,-586.1C1455.4,-586.1 1321,-586.1 1321,-586.1 1315,-586.1 1309,-580.1 1309,-574.1 1309,-574.1 1309,-540.5 1309,-540.5 1309,-534.5 1315,-528.5 1321,-528.5 1321,-528.5 1455.4,-528.5 1455.4,-528.5 1461.4,-528.5 1467.4,-534.5 1467.4,-540.5 1467.4,-540.5 1467.4,-574.1 1467.4,-574.1 1467.4,-580.1 1461.4,-586.1 1455.4,-586.1"/>

<text xml:space="preserve" text-anchor="middle" x="1388.2" y="-553.8" font-family="Arial" font-size="10.00" fill="white">Tools</text>

</g>

<!-- scr_Tools&#45;&gt;preload -->

<g id="edge8" class="edge">

<title>scr_Tools&#45;&gt;preload</title>

<path fill="none" stroke="#4caf50" stroke-width="1.5" d="M1357.6,-528.13C1357.6,-496.2 1357.6,-449.5 1357.6,-449.5 1357.6,-449.5 1245.77,-449.5 1245.77,-449.5"/>

<polygon fill="#4caf50" stroke="#4caf50" stroke-width="1.5" points="1245.77,-446 1235.77,-449.5 1245.77,-453 1245.77,-446"/>

</g>

<!-- prov_hf -->

<g id="node22" class="node">

<title>prov_hf</title>

<path fill="#f44336" stroke="black" d="M1678,-67.7C1678,-67.7 1572.4,-67.7 1572.4,-67.7 1566.4,-67.7 1560.4,-61.7 1560.4,-55.7 1560.4,-55.7 1560.4,-36.5 1560.4,-36.5 1560.4,-30.5 1566.4,-24.5 1572.4,-24.5 1572.4,-24.5 1678,-24.5 1678,-24.5 1684,-24.5 1690,-30.5 1690,-36.5 1690,-36.5 1690,-55.7 1690,-55.7 1690,-61.7 1684,-67.7 1678,-67.7"/>

<text xml:space="preserve" text-anchor="middle" x="1625.2" y="-42.8" font-family="Arial" font-size="9.00" fill="white">HuggingFace</text>

</g>

<!-- scr_Schedules -->

<g id="node23" class="node">

<title>scr_Schedules</title>

<path fill="#4caf50" stroke="black" d="M1642.4,-586.1C1642.4,-586.1 1508,-586.1 1508,-586.1 1502,-586.1 1496,-580.1 1496,-574.1 1496,-574.1 1496,-540.5 1496,-540.5 1496,-534.5 1502,-528.5 1508,-528.5 1508,-528.5 1642.4,-528.5 1642.4,-528.5 1648.4,-528.5 1654.4,-534.5 1654.4,-540.5 1654.4,-540.5 1654.4,-574.1 1654.4,-574.1 1654.4,-580.1 1648.4,-586.1 1642.4,-586.1"/>

<text xml:space="preserve" text-anchor="middle" x="1575.2" y="-553.8" font-family="Arial" font-size="10.00" fill="white">Schedules</text>

</g>

<!-- scr_Schedules&#45;&gt;preload -->

<g id="edge9" class="edge">

<title>scr_Schedules&#45;&gt;preload</title>

<path fill="none" stroke="#4caf50" stroke-width="1.5" d="M1564.6,-528.03C1564.6,-494.02 1564.6,-442.5 1564.6,-442.5 1564.6,-442.5 1245.67,-442.5 1245.67,-442.5"/>

<polygon fill="#4caf50" stroke="#4caf50" stroke-width="1.5" points="1245.67,-439 1235.67,-442.5 1245.67,-446 1245.67,-439"/>

</g>

<!-- prov_groq -->

<g id="node24" class="node">

<title>prov_groq</title>

<path fill="#f44336" stroke="black" d="M1837,-67.7C1837,-67.7 1731.4,-67.7 1731.4,-67.7 1725.4,-67.7 1719.4,-61.7 1719.4,-55.7 1719.4,-55.7 1719.4,-36.5 1719.4,-36.5 1719.4,-30.5 1725.4,-24.5 1731.4,-24.5 1731.4,-24.5 1837,-24.5 1837,-24.5 1843,-24.5 1849,-30.5 1849,-36.5 1849,-36.5 1849,-55.7 1849,-55.7 1849,-61.7 1843,-67.7 1837,-67.7"/>

<text xml:space="preserve" text-anchor="middle" x="1784.2" y="-42.8" font-family="Arial" font-size="9.00" fill="white">Groq</text>

</g>

<!-- scr_Gateway -->

<g id="node25" class="node">

<title>scr_Gateway</title>

<path fill="#4caf50" stroke="black" d="M1829.4,-586.1C1829.4,-586.1 1695,-586.1 1695,-586.1 1689,-586.1 1683,-580.1 1683,-574.1 1683,-574.1 1683,-540.5 1683,-540.5 1683,-534.5 1689,-528.5 1695,-528.5 1695,-528.5 1829.4,-528.5 1829.4,-528.5 1835.4,-528.5 1841.4,-534.5 1841.4,-540.5 1841.4,-540.5 1841.4,-574.1 1841.4,-574.1 1841.4,-580.1 1835.4,-586.1 1829.4,-586.1"/>

<text xml:space="preserve" text-anchor="middle" x="1762.2" y="-553.8" font-family="Arial" font-size="10.00" fill="white">Gateway</text>

</g>

<!-- scr_Gateway&#45;&gt;preload -->

<g id="edge10" class="edge">

<title>scr_Gateway&#45;&gt;preload</title>

<path fill="none" stroke="#4caf50" stroke-width="1.5" d="M1686.5,-528.2C1686.5,-491.88 1686.5,-434.5 1686.5,-434.5 1686.5,-434.5 1245.88,-434.5 1245.88,-434.5"/>

<polygon fill="#4caf50" stroke="#4caf50" stroke-width="1.5" points="1245.88,-431 1235.88,-434.5 1245.88,-438 1245.88,-431"/>

</g>

<!-- prov_atlas -->

<g id="node26" class="node">

<title>prov_atlas</title>

<path fill="#f44336" stroke="black" d="M1996,-67.7C1996,-67.7 1890.4,-67.7 1890.4,-67.7 1884.4,-67.7 1878.4,-61.7 1878.4,-55.7 1878.4,-55.7 1878.4,-36.5 1878.4,-36.5 1878.4,-30.5 1884.4,-24.5 1890.4,-24.5 1890.4,-24.5 1996,-24.5 1996,-24.5 2002,-24.5 2008,-30.5 2008,-36.5 2008,-36.5 2008,-55.7 2008,-55.7 2008,-61.7 2002,-67.7 1996,-67.7"/>

<text xml:space="preserve" text-anchor="middle" x="1943.2" y="-42.8" font-family="Arial" font-size="9.00" fill="white">Atlas Cloud</text>

</g>

<!-- scr_Office -->

<g id="node27" class="node">

<title>scr_Office</title>

<path fill="#4caf50" stroke="black" d="M2016.4,-586.1C2016.4,-586.1 1882,-586.1 1882,-586.1 1876,-586.1 1870,-580.1 1870,-574.1 1870,-574.1 1870,-540.5 1870,-540.5 1870,-534.5 1876,-528.5 1882,-528.5 1882,-528.5 2016.4,-528.5 2016.4,-528.5 2022.4,-528.5 2028.4,-534.5 2028.4,-540.5 2028.4,-540.5 2028.4,-574.1 2028.4,-574.1 2028.4,-580.1 2022.4,-586.1 2016.4,-586.1"/>

<text xml:space="preserve" text-anchor="middle" x="1949.2" y="-553.8" font-family="Arial" font-size="10.00" fill="white">Office</text>

</g>

<!-- scr_Office&#45;&gt;preload -->

<g id="edge11" class="edge">

<title>scr_Office&#45;&gt;preload</title>

<path fill="none" stroke="#4caf50" stroke-width="1.5" d="M1874.2,-528.17C1874.2,-489.9 1874.2,-427.5 1874.2,-427.5 1874.2,-427.5 1245.7,-427.5 1245.7,-427.5"/>

<polygon fill="#4caf50" stroke="#4caf50" stroke-width="1.5" points="1245.7,-424 1235.7,-427.5 1245.7,-431 1245.7,-424"/>

</g>

<!-- prov_local -->

<g id="node28" class="node">

<title>prov_local</title>

<path fill="#f44336" stroke="black" d="M2155,-67.7C2155,-67.7 2049.4,-67.7 2049.4,-67.7 2043.4,-67.7 2037.4,-61.7 2037.4,-55.7 2037.4,-55.7 2037.4,-36.5 2037.4,-36.5 2037.4,-30.5 2043.4,-24.5 2049.4,-24.5 2049.4,-24.5 2155,-24.5 2155,-24.5 2161,-24.5 2167,-30.5 2167,-36.5 2167,-36.5 2167,-55.7 2167,-55.7 2167,-61.7 2161,-67.7 2155,-67.7"/>

<text xml:space="preserve" text-anchor="middle" x="2102.2" y="-42.8" font-family="Arial" font-size="9.00" fill="white">Local/Custom</text>

</g>

<!-- scr_Settings -->

<g id="node29" class="node">

<title>scr_Settings</title>

<path fill="#4caf50" stroke="black" d="M2203.4,-586.1C2203.4,-586.1 2069,-586.1 2069,-586.1 2063,-586.1 2057,-580.1 2057,-574.1 2057,-574.1 2057,-540.5 2057,-540.5 2057,-534.5 2063,-528.5 2069,-528.5 2069,-528.5 2203.4,-528.5 2203.4,-528.5 2209.4,-528.5 2215.4,-534.5 2215.4,-540.5 2215.4,-540.5 2215.4,-574.1 2215.4,-574.1 2215.4,-580.1 2209.4,-586.1 2203.4,-586.1"/>

<text xml:space="preserve" text-anchor="middle" x="2136.2" y="-553.8" font-family="Arial" font-size="10.00" fill="white">Settings</text>

</g>

<!-- scr_Settings&#45;&gt;preload -->

<g id="edge12" class="edge">

<title>scr_Settings&#45;&gt;preload</title>

<path fill="none" stroke="#4caf50" stroke-width="1.5" d="M2112,-528.29C2112,-488.13 2112,-420.5 2112,-420.5 2112,-420.5 1245.97,-420.5 1245.97,-420.5"/>

<polygon fill="#4caf50" stroke="#4caf50" stroke-width="1.5" points="1245.97,-417 1235.97,-420.5 1245.97,-424 1245.97,-417"/>

</g>

<!-- main_installer -->

<g id="node31" class="node">

<title>main_installer</title>

<path fill="#2196f3" stroke="black" d="M767.2,-334.1C767.2,-334.1 611.2,-334.1 611.2,-334.1 605.2,-334.1 599.2,-328.1 599.2,-322.1 599.2,-322.1 599.2,-288.5 599.2,-288.5 599.2,-282.5 605.2,-276.5 611.2,-276.5 611.2,-276.5 767.2,-276.5 767.2,-276.5 773.2,-276.5 779.2,-282.5 779.2,-288.5 779.2,-288.5 779.2,-322.1 779.2,-322.1 779.2,-328.1 773.2,-334.1 767.2,-334.1"/>

<text xml:space="preserve" text-anchor="middle" x="689.2" y="-307.8" font-family="Arial" font-size="10.00" fill="white">Installer</text>

<text xml:space="preserve" text-anchor="middle" x="689.2" y="-295.8" font-family="Arial" font-size="10.00" fill="white">(Guided Setup)</text>

</g>

<!-- preload&#45;&gt;main_installer -->

<g id="edge13" class="edge">

<title>preload&#45;&gt;main_installer</title>

<path fill="none" stroke="#607d8b" stroke-width="1.5" d="M980.72,-413.5C882.75,-413.5 763.6,-413.5 763.6,-413.5 763.6,-413.5 763.6,-346.85 763.6,-346.85"/>

<polygon fill="#607d8b" stroke="#607d8b" stroke-width="1.5" points="767.1,-346.85 763.6,-336.85 760.1,-346.85 767.1,-346.85"/>

</g>

<!-- main_secrets -->

<g id="node32" class="node">

<title>main_secrets</title>

<path fill="#2196f3" stroke="black" d="M976.2,-334.1C976.2,-334.1 820.2,-334.1 820.2,-334.1 814.2,-334.1 808.2,-328.1 808.2,-322.1 808.2,-322.1 808.2,-288.5 808.2,-288.5 808.2,-282.5 814.2,-276.5 820.2,-276.5 820.2,-276.5 976.2,-276.5 976.2,-276.5 982.2,-276.5 988.2,-282.5 988.2,-288.5 988.2,-288.5 988.2,-322.1 988.2,-322.1 988.2,-328.1 982.2,-334.1 976.2,-334.1"/>

<text xml:space="preserve" text-anchor="middle" x="898.2" y="-307.8" font-family="Arial" font-size="10.00" fill="white">Secrets Provider</text>

<text xml:space="preserve" text-anchor="middle" x="898.2" y="-295.8" font-family="Arial" font-size="10.00" fill="white">(env + command)</text>

</g>

<!-- preload&#45;&gt;main_secrets -->

<g id="edge14" class="edge">

<title>preload&#45;&gt;main_secrets</title>

<path fill="none" stroke="#607d8b" stroke-width="1.5" d="M984.7,-405.8C984.7,-405.8 984.7,-346.56 984.7,-346.56"/>

<polygon fill="#607d8b" stroke="#607d8b" stroke-width="1.5" points="988.2,-346.56 984.7,-336.56 981.2,-346.56 988.2,-346.56"/>

</g>

<!-- main_updater -->

<g id="node33" class="node">

<title>main_updater</title>

<path fill="#2196f3" stroke="black" d="M1185.2,-334.1C1185.2,-334.1 1029.2,-334.1 1029.2,-334.1 1023.2,-334.1 1017.2,-328.1 1017.2,-322.1 1017.2,-322.1 1017.2,-288.5 1017.2,-288.5 1017.2,-282.5 1023.2,-276.5 1029.2,-276.5 1029.2,-276.5 1185.2,-276.5 1185.2,-276.5 1191.2,-276.5 1197.2,-282.5 1197.2,-288.5 1197.2,-288.5 1197.2,-322.1 1197.2,-322.1 1197.2,-328.1 1191.2,-334.1 1185.2,-334.1"/>

<text xml:space="preserve" text-anchor="middle" x="1107.2" y="-307.8" font-family="Arial" font-size="10.00" fill="white">Auto&#45;Updater</text>

<text xml:space="preserve" text-anchor="middle" x="1107.2" y="-295.8" font-family="Arial" font-size="10.00" fill="white">(electron&#45;updater)</text>

</g>

<!-- preload&#45;&gt;main_updater -->

<g id="edge15" class="edge">

<title>preload&#45;&gt;main_updater</title>

<path fill="none" stroke="#607d8b" stroke-width="1.5" d="M1107.2,-405.8C1107.2,-405.8 1107.2,-346.56 1107.2,-346.56"/>

<polygon fill="#607d8b" stroke="#607d8b" stroke-width="1.5" points="1110.7,-346.56 1107.2,-336.56 1103.7,-346.56 1110.7,-346.56"/>

</g>

<!-- main_db -->

<g id="node34" class="node">

<title>main_db</title>

<path fill="#2196f3" stroke="black" d="M1394.2,-334.1C1394.2,-334.1 1238.2,-334.1 1238.2,-334.1 1232.2,-334.1 1226.2,-328.1 1226.2,-322.1 1226.2,-322.1 1226.2,-288.5 1226.2,-288.5 1226.2,-282.5 1232.2,-276.5 1238.2,-276.5 1238.2,-276.5 1394.2,-276.5 1394.2,-276.5 1400.2,-276.5 1406.2,-282.5 1406.2,-288.5 1406.2,-288.5 1406.2,-322.1 1406.2,-322.1 1406.2,-328.1 1400.2,-334.1 1394.2,-334.1"/>

<text xml:space="preserve" text-anchor="middle" x="1316.2" y="-307.8" font-family="Arial" font-size="10.00" fill="white">SQLite Database</text>

<text xml:space="preserve" text-anchor="middle" x="1316.2" y="-295.8" font-family="Arial" font-size="10.00" fill="white">(better&#45;sqlite3 + FTS5)</text>

</g>

<!-- preload&#45;&gt;main_db -->

<g id="edge16" class="edge">

<title>preload&#45;&gt;main_db</title>

<path fill="none" stroke="#607d8b" stroke-width="1.5" d="M1229.7,-405.8C1229.7,-405.8 1229.7,-346.56 1229.7,-346.56"/>

<polygon fill="#607d8b" stroke="#607d8b" stroke-width="1.5" points="1233.2,-346.56 1229.7,-336.56 1226.2,-346.56 1233.2,-346.56"/>

</g>

<!-- main_ipc -->

<g id="node35" class="node">

<title>main_ipc</title>

<path fill="#2196f3" stroke="black" d="M1621.2,-334.1C1621.2,-334.1 1465.2,-334.1 1465.2,-334.1 1459.2,-334.1 1453.2,-328.1 1453.2,-322.1 1453.2,-322.1 1453.2,-288.5 1453.2,-288.5 1453.2,-282.5 1459.2,-276.5 1465.2,-276.5 1465.2,-276.5 1621.2,-276.5 1621.2,-276.5 1627.2,-276.5 1633.2,-282.5 1633.2,-288.5 1633.2,-288.5 1633.2,-322.1 1633.2,-322.1 1633.2,-328.1 1627.2,-334.1 1621.2,-334.1"/>

<text xml:space="preserve" text-anchor="middle" x="1543.2" y="-301.8" font-family="Arial" font-size="10.00" fill="white">IPC Handlers</text>

</g>

<!-- preload&#45;&gt;main_ipc -->

<g id="edge17" class="edge">

<title>preload&#45;&gt;main_ipc</title>

<path fill="none" stroke="#607d8b" stroke-width="1.5" d="M1233.68,-413.5C1335,-413.5 1460.3,-413.5 1460.3,-413.5 1460.3,-413.5 1460.3,-346.85 1460.3,-346.85"/>

<polygon fill="#607d8b" stroke="#607d8b" stroke-width="1.5" points="1463.8,-346.85 1460.3,-336.85 1456.8,-346.85 1463.8,-346.85"/>

</g>

<!-- main_installer&#45;&gt;data_config -->

<g id="edge20" class="edge">

<title>main_installer&#45;&gt;data_config</title>

<path fill="none" stroke="#ff9800" stroke-width="1.5" stroke-dasharray="5,2" d="M598.93,-314.5C464.69,-314.5 228.1,-314.5 228.1,-314.5 228.1,-314.5 228.1,-209.83 228.1,-209.83"/>

<polygon fill="#ff9800" stroke="#ff9800" stroke-width="1.5" points="231.6,-209.83 228.1,-199.83 224.6,-209.83 231.6,-209.83"/>

</g>

<!-- main_installer&#45;&gt;data_env -->

<g id="edge21" class="edge">

<title>main_installer&#45;&gt;data_env</title>

<path fill="none" stroke="#ff9800" stroke-width="1.5" stroke-dasharray="5,2" d="M598.71,-295.5C516.54,-295.5 408.1,-295.5 408.1,-295.5 408.1,-295.5 408.1,-209.94 408.1,-209.94"/>

<polygon fill="#ff9800" stroke="#ff9800" stroke-width="1.5" points="411.6,-209.94 408.1,-199.94 404.6,-209.94 411.6,-209.94"/>

</g>

<!-- main_installer&#45;&gt;data_db -->

<g id="edge22" class="edge">

<title>main_installer&#45;&gt;data_db</title>

<path fill="none" stroke="#ff9800" stroke-width="1.5" stroke-dasharray="5,2" d="M607.2,-276.07C607.2,-276.07 607.2,-208.2 607.2,-208.2"/>

<polygon fill="#ff9800" stroke="#ff9800" stroke-width="1.5" points="610.7,-208.2 607.2,-198.2 603.7,-208.2 610.7,-208.2"/>

</g>

<!-- main_installer&#45;&gt;data_profiles -->

<g id="edge23" class="edge">

<title>main_installer&#45;&gt;data_profiles</title>

<path fill="none" stroke="#ff9800" stroke-width="1.5" stroke-dasharray="5,2" d="M734.2,-276.07C734.2,-276.07 734.2,-209.94 734.2,-209.94"/>

<polygon fill="#ff9800" stroke="#ff9800" stroke-width="1.5" points="737.7,-209.94 734.2,-199.94 730.7,-209.94 737.7,-209.94"/>

</g>

<!-- main_installer&#45;&gt;data_cron -->

<g id="edge24" class="edge">

<title>main_installer&#45;&gt;data_cron</title>

<path fill="none" stroke="#ff9800" stroke-width="1.5" stroke-dasharray="5,2" d="M779.21,-305.5C790.51,-305.5 798.2,-305.5 798.2,-305.5 798.2,-305.5 798.2,-172.5 798.2,-172.5 798.2,-172.5 804.78,-172.5 804.78,-172.5"/>

<polygon fill="#ff9800" stroke="#ff9800" stroke-width="1.5" points="804.78,-176 814.78,-172.5 804.78,-169 804.78,-176"/>

</g>

<!-- main_installer&#45;&gt;data_agent -->

<g id="edge25" class="edge">

<title>main_installer&#45;&gt;data_agent</title>

<path fill="none" stroke="#ff9800" stroke-width="1.5" stroke-dasharray="5,2" d="M689.2,-276.31C689.2,-259.06 689.2,-240.5 689.2,-240.5 689.2,-240.5 1003.7,-240.5 1003.7,-240.5 1003.7,-240.5 1003.7,-208.68 1003.7,-208.68"/>

<polygon fill="#ff9800" stroke="#ff9800" stroke-width="1.5" points="1007.2,-208.68 1003.7,-198.68 1000.2,-208.68 1007.2,-208.68"/>

</g>

<!-- local_agent -->

<g id="node36" class="node">

<title>local_agent</title>

<path fill="#9c27b0" stroke="black" d="M1403.2,-204.5C1403.2,-204.5 1211.2,-204.5 1211.2,-204.5 1205.2,-204.5 1199.2,-198.5 1199.2,-192.5 1199.2,-192.5 1199.2,-151.7 1199.2,-151.7 1199.2,-145.7 1205.2,-139.7 1211.2,-139.7 1211.2,-139.7 1403.2,-139.7 1403.2,-139.7 1409.2,-139.7 1415.2,-145.7 1415.2,-151.7 1415.2,-151.7 1415.2,-192.5 1415.2,-192.5 1415.2,-198.5 1409.2,-204.5 1403.2,-204.5"/>

<text xml:space="preserve" text-anchor="middle" x="1307.2" y="-175.15" font-family="Arial Bold" font-size="11.00" fill="white">Local Hermes Agent</text>

<text xml:space="preserve" text-anchor="middle" x="1307.2" y="-161.65" font-family="Arial Bold" font-size="11.00" fill="white">127.0.0.1:8642</text>

</g>

<!-- main_db&#45;&gt;local_agent -->

<g id="edge18" class="edge">

<title>main_db&#45;&gt;local_agent</title>

<path fill="none" stroke="#9c27b0" stroke-width="2" d="M1316.2,-276.07C1316.2,-276.07 1316.2,-217.56 1316.2,-217.56"/>

<polygon fill="#9c27b0" stroke="#9c27b0" stroke-width="2" points="1319.7,-217.56 1316.2,-207.56 1312.7,-217.56 1319.7,-217.56"/>

<text xml:space="preserve" text-anchor="middle" x="1284.33" y="-250.01" font-family="Times New Roman,serif" font-size="14.00">SSE stream</text>

</g>

<!-- remote_agent -->

<g id="node37" class="node">

<title>remote_agent</title>

<path fill="#9c27b0" stroke="black" d="M1648.2,-204.5C1648.2,-204.5 1456.2,-204.5 1456.2,-204.5 1450.2,-204.5 1444.2,-198.5 1444.2,-192.5 1444.2,-192.5 1444.2,-151.7 1444.2,-151.7 1444.2,-145.7 1450.2,-139.7 1456.2,-139.7 1456.2,-139.7 1648.2,-139.7 1648.2,-139.7 1654.2,-139.7 1660.2,-145.7 1660.2,-151.7 1660.2,-151.7 1660.2,-192.5 1660.2,-192.5 1660.2,-198.5 1654.2,-204.5 1648.2,-204.5"/>

<text xml:space="preserve" text-anchor="middle" x="1552.2" y="-175.15" font-family="Arial Bold" font-size="11.00" fill="white">Remote Hermes API</text>

<text xml:space="preserve" text-anchor="middle" x="1552.2" y="-161.65" font-family="Arial Bold" font-size="11.00" fill="white">(URL + API Key)</text>

</g>

<!-- main_ipc&#45;&gt;remote_agent -->

<g id="edge19" class="edge">

<title>main_ipc&#45;&gt;remote_agent</title>

<path fill="none" stroke="#9c27b0" stroke-width="2" d="M1543.2,-276.07C1543.2,-276.07 1543.2,-217.56 1543.2,-217.56"/>

<polygon fill="#9c27b0" stroke="#9c27b0" stroke-width="2" points="1546.7,-217.56 1543.2,-207.56 1539.7,-217.56 1546.7,-217.56"/>

<text xml:space="preserve" text-anchor="middle" x="1511.33" y="-250.01" font-family="Times New Roman,serif" font-size="14.00">SSE stream</text>

</g>

<!-- local_agent&#45;&gt;prov_or -->

<g id="edge26" class="edge">

<title>local_agent&#45;&gt;prov_or</title>

<path fill="none" stroke="#f44336" stroke-dasharray="5,2" d="M1198.95,-200.5C970.37,-200.5 459.3,-200.5 459.3,-200.5 459.3,-200.5 459.3,-79.41 459.3,-79.41"/>

<polygon fill="#f44336" stroke="#f44336" points="462.8,-79.41 459.3,-69.41 455.8,-79.41 462.8,-79.41"/>

</g>

<!-- local_agent&#45;&gt;prov_an -->

<g id="edge27" class="edge">

<title>local_agent&#45;&gt;prov_an</title>

<path fill="none" stroke="#f44336" stroke-dasharray="5,2" d="M1199,-145.5C1022.02,-145.5 690.1,-145.5 690.1,-145.5 690.1,-145.5 690.1,-79.67 690.1,-79.67"/>

<polygon fill="#f44336" stroke="#f44336" points="693.6,-79.67 690.1,-69.67 686.6,-79.67 693.6,-79.67"/>

</g>

<!-- local_agent&#45;&gt;prov_oai -->

<g id="edge28" class="edge">

<title>local_agent&#45;&gt;prov_oai</title>

<path fill="none" stroke="#f44336" stroke-dasharray="5,2" d="M1198.86,-143.5C1065.4,-143.5 856.1,-143.5 856.1,-143.5 856.1,-143.5 856.1,-79.23 856.1,-79.23"/>

<polygon fill="#f44336" stroke="#f44336" points="859.6,-79.23 856.1,-69.23 852.6,-79.23 859.6,-79.23"/>

</g>

<!-- local_agent&#45;&gt;prov_gem -->

<g id="edge29" class="edge">

<title>local_agent&#45;&gt;prov_gem</title>

<path fill="none" stroke="#f44336" stroke-dasharray="5,2" d="M1199.01,-141.5C1118.36,-141.5 1022.1,-141.5 1022.1,-141.5 1022.1,-141.5 1022.1,-79.26 1022.1,-79.26"/>

<polygon fill="#f44336" stroke="#f44336" points="1025.6,-79.26 1022.1,-69.26 1018.6,-79.26 1025.6,-79.26"/>

</g>

<!-- local_agent&#45;&gt;prov_grok -->

<g id="edge30" class="edge">

<title>local_agent&#45;&gt;prov_grok</title>

<path fill="none" stroke="#f44336" stroke-dasharray="5,2" d="M1206.1,-139.32C1206.1,-139.32 1206.1,-79.52 1206.1,-79.52"/>

<polygon fill="#f44336" stroke="#f44336" points="1209.6,-79.52 1206.1,-69.52 1202.6,-79.52 1209.6,-79.52"/>

</g>

<!-- local_agent&#45;&gt;prov_qwen -->

<g id="edge31" class="edge">

<title>local_agent&#45;&gt;prov_qwen</title>

<path fill="none" stroke="#f44336" stroke-dasharray="5,2" d="M1307.2,-139.32C1307.2,-139.32 1307.2,-79.52 1307.2,-79.52"/>

<polygon fill="#f44336" stroke="#f44336" points="1310.7,-79.52 1307.2,-69.52 1303.7,-79.52 1310.7,-79.52"/>

</g>

<!-- local_agent&#45;&gt;prov_mm -->

<g id="edge32" class="edge">

<title>local_agent&#45;&gt;prov_mm</title>

<path fill="none" stroke="#f44336" stroke-dasharray="5,2" d="M1403.7,-139.32C1403.7,-139.32 1403.7,-79.52 1403.7,-79.52"/>

<polygon fill="#f44336" stroke="#f44336" points="1407.2,-79.52 1403.7,-69.52 1400.2,-79.52 1407.2,-79.52"/>

</g>

<!-- local_agent&#45;&gt;prov_hf -->

<g id="edge33" class="edge">

<title>local_agent&#45;&gt;prov_hf</title>

<path fill="none" stroke="#f44336" stroke-dasharray="5,2" d="M1406,-139.25C1406,-113.67 1406,-82.5 1406,-82.5 1406,-82.5 1610.3,-82.5 1610.3,-82.5 1610.3,-82.5 1610.3,-79.63 1610.3,-79.63"/>

<polygon fill="#f44336" stroke="#f44336" points="1613.8,-79.63 1610.3,-69.63 1606.8,-79.63 1613.8,-79.63"/>

</g>

<!-- local_agent&#45;&gt;prov_groq -->

<g id="edge34" class="edge">

<title>local_agent&#45;&gt;prov_groq</title>

<path fill="none" stroke="#f44336" stroke-dasharray="5,2" d="M1408.3,-139.6C1408.3,-119.11 1408.3,-96.5 1408.3,-96.5 1408.3,-96.5 1780.4,-96.5 1780.4,-96.5 1780.4,-96.5 1780.4,-79.57 1780.4,-79.57"/>

<polygon fill="#f44336" stroke="#f44336" points="1783.9,-79.57 1780.4,-69.57 1776.9,-79.57 1783.9,-79.57"/>

</g>

<!-- local_agent&#45;&gt;prov_atlas -->

<g id="edge35" class="edge">

<title>local_agent&#45;&gt;prov_atlas</title>

<path fill="none" stroke="#f44336" stroke-dasharray="5,2" d="M1410.6,-139.5C1410.6,-124.72 1410.6,-110.5 1410.6,-110.5 1410.6,-110.5 1943.2,-110.5 1943.2,-110.5 1943.2,-110.5 1943.2,-79.42 1943.2,-79.42"/>

<polygon fill="#f44336" stroke="#f44336" points="1946.7,-79.42 1943.2,-69.42 1939.7,-79.42 1946.7,-79.42"/>

</g>

<!-- local_agent&#45;&gt;prov_local -->

<g id="edge36" class="edge">

<title>local_agent&#45;&gt;prov_local</title>

<path fill="none" stroke="#f44336" stroke-dasharray="5,2" d="M1412.9,-139.23C1412.9,-131.52 1412.9,-125.5 1412.9,-125.5 1412.9,-125.5 2047.2,-125.5 2047.2,-125.5 2047.2,-125.5 2047.2,-79.31 2047.2,-79.31"/>

<polygon fill="#f44336" stroke="#f44336" points="2050.7,-79.31 2047.2,-69.31 2043.7,-79.31 2050.7,-79.31"/>

</g>

</g>

</svg>

