<?xml version="1.0" encoding="UTF-8" standalone="no"?>
<!DOCTYPE svg PUBLIC "-//W3C//DTD SVG 1.1//EN"
 "http://www.w3.org/Graphics/SVG/1.1/DTD/svg11.dtd">
<!-- Generated by graphviz version 14.1.2 (0)
 -->
<!-- Title: hermes_gateway Pages: 1 -->
<svg width="702pt" height="360pt"
 viewBox="0.00 0.00 702.00 360.00" xmlns="http://www.w3.org/2000/svg" xmlns:xlink="http://www.w3.org/1999/xlink">
<g id="graph0" class="graph" transform="scale(1 1) rotate(0) translate(4 356.01)">
<title>hermes_gateway</title>
<polygon fill="white" stroke="none" points="-4,4 -4,-356.01 697.88,-356.01 697.88,4 -4,4"/>
<!-- user_msg -->
<g id="node1" class="node">
<title>user_msg</title>
<polygon fill="#607d8b" stroke="black" points="379.62,-352.01 320.12,-352.01 320.12,-316.01 379.62,-316.01 379.62,-352.01"/>
<text xml:space="preserve" text-anchor="middle" x="349.88" y="-337.06" font-family="Arial" font-size="11.00" fill="white">User</text>
<text xml:space="preserve" text-anchor="middle" x="349.88" y="-323.56" font-family="Arial" font-size="11.00" fill="white">Message</text>
</g>
<!-- gateway_center -->
<g id="node2" class="node">
<title>gateway_center</title>
<path fill="#2196f3" stroke="black" d="M412.25,-258.01C412.25,-258.01 287.5,-258.01 287.5,-258.01 281.5,-258.01 275.5,-252.01 275.5,-246.01 275.5,-246.01 275.5,-205.01 275.5,-205.01 275.5,-199.01 281.5,-193.01 287.5,-193.01 287.5,-193.01 412.25,-193.01 412.25,-193.01 418.25,-193.01 424.25,-199.01 424.25,-205.01 424.25,-205.01 424.25,-246.01 424.25,-246.01 424.25,-252.01 418.25,-258.01 412.25,-258.01"/>
<text xml:space="preserve" text-anchor="middle" x="349.88" y="-242.61" font-family="Arial Bold" font-size="12.00" fill="white">Hermes Gateway</text>
<text xml:space="preserve" text-anchor="middle" x="349.88" y="-228.36" font-family="Arial Bold" font-size="12.00" fill="white">Message Normalization</text>
<text xml:space="preserve" text-anchor="middle" x="349.88" y="-214.11" font-family="Arial Bold" font-size="12.00" fill="white">Session Management</text>
<text xml:space="preserve" text-anchor="middle" x="349.88" y="-199.86" font-family="Arial Bold" font-size="12.00" fill="white">Response Routing</text>
</g>
<!-- user_msg&#45;&gt;gateway_center -->
<g id="edge1" class="edge">
<title>user_msg&#45;&gt;gateway_center</title>
<path fill="none" stroke="#607d8b" stroke-width="2" d="M349.88,-315.61C349.88,-315.61 349.88,-271.11 349.88,-271.11"/>
<polygon fill="#607d8b" stroke="#607d8b" stroke-width="2" points="353.38,-271.11 349.88,-261.11 346.38,-271.11 353.38,-271.11"/>
</g>
<!-- protocol -->
<g id="node3" class="node">
<title>protocol</title>
<ellipse fill="#ff9800" stroke="black" cx="349.88" cy="-114.51" rx="35.18" ry="20.51"/>
<text xml:space="preserve" text-anchor="middle" x="349.88" y="-116.46" font-family="Arial" font-size="9.00" fill="white">Unified</text>
<text xml:space="preserve" text-anchor="middle" x="349.88" y="-105.96" font-family="Arial" font-size="9.00" fill="white">Protocol</text>
</g>
<!-- gateway_center&#45;&gt;protocol -->
<g id="edge2" class="edge">
<title>gateway_center&#45;&gt;protocol</title>
<path fill="none" stroke="#2196f3" stroke-width="2" d="M349.88,-192.81C349.88,-192.81 349.88,-148.47 349.88,-148.47"/>
<polygon fill="#2196f3" stroke="#2196f3" stroke-width="2" points="353.38,-148.47 349.88,-138.47 346.38,-148.47 353.38,-148.47"/>
</g>
<!-- telegram -->
<g id="node4" class="node">
<title>telegram</title>
<polygon fill="#4caf50" stroke="black" points="55.75,-36 0,-36 0,0 55.75,0 55.75,-36"/>
<text xml:space="preserve" text-anchor="middle" x="27.88" y="-14.5" font-family="Arial" font-size="10.00" fill="white">Telegram</text>
</g>
<!-- protocol&#45;&gt;telegram -->
<g id="edge3" class="edge">
<title>protocol&#45;&gt;telegram</title>
<path fill="none" stroke="#4caf50" stroke-width="1.5" d="M319,-125C238.41,-125 27.88,-125 27.88,-125 27.88,-125 27.88,-48.42 27.88,-48.42"/>
<polygon fill="#4caf50" stroke="#4caf50" stroke-width="1.5" points="31.38,-48.42 27.88,-38.42 24.38,-48.42 31.38,-48.42"/>
</g>
<!-- discord -->
<g id="node5" class="node">
<title>discord</title>
<polygon fill="#4caf50" stroke="black" points="145.88,-36 91.88,-36 91.88,0 145.88,0 145.88,-36"/>
<text xml:space="preserve" text-anchor="middle" x="118.88" y="-14.5" font-family="Arial" font-size="10.00" fill="white">Discord</text>
</g>
<!-- protocol&#45;&gt;discord -->
<g id="edge4" class="edge">
<title>protocol&#45;&gt;discord</title>
<path fill="none" stroke="#4caf50" stroke-width="1.5" d="M314.29,-115C249.49,-115 118.88,-115 118.88,-115 118.88,-115 118.88,-48.52 118.88,-48.52"/>
<polygon fill="#4caf50" stroke="#4caf50" stroke-width="1.5" points="122.38,-48.52 118.88,-38.52 115.38,-48.52 122.38,-48.52"/>
</g>
<!-- slack -->
<g id="node6" class="node">
<title>slack</title>
<polygon fill="#4caf50" stroke="black" points="235.88,-36 181.88,-36 181.88,0 235.88,0 235.88,-36"/>
<text xml:space="preserve" text-anchor="middle" x="208.88" y="-14.5" font-family="Arial" font-size="10.00" fill="white">Slack</text>
</g>
<!-- protocol&#45;&gt;slack -->
<g id="edge5" class="edge">
<title>protocol&#45;&gt;slack</title>
<path fill="none" stroke="#4caf50" stroke-width="1.5" d="M319.28,-104C277.81,-104 208.88,-104 208.88,-104 208.88,-104 208.88,-48.51 208.88,-48.51"/>
<polygon fill="#4caf50" stroke="#4caf50" stroke-width="1.5" points="212.38,-48.51 208.88,-38.51 205.38,-48.51 212.38,-48.51"/>
</g>
<!-- whatsapp -->
<g id="node7" class="node">
<title>whatsapp</title>
<polygon fill="#4caf50" stroke="black" points="333.75,-36 272,-36 272,0 333.75,0 333.75,-36"/>
<text xml:space="preserve" text-anchor="middle" x="302.88" y="-14.5" font-family="Arial" font-size="10.00" fill="white">WhatsApp</text>
</g>
<!-- protocol&#45;&gt;whatsapp -->
<g id="edge6" class="edge">
<title>protocol&#45;&gt;whatsapp</title>
<path fill="none" stroke="#4caf50" stroke-width="1.5" d="M324.22,-100.27C324.22,-100.27 324.22,-48.53 324.22,-48.53"/>
<polygon fill="#4caf50" stroke="#4caf50" stroke-width="1.5" points="327.72,-48.53 324.22,-38.53 320.72,-48.53 327.72,-48.53"/>
</g>
<!-- signal -->
<g id="node8" class="node">
<title>signal</title>
<polygon fill="#4caf50" stroke="black" points="423.88,-36 369.88,-36 369.88,0 423.88,0 423.88,-36"/>
<text xml:space="preserve" text-anchor="middle" x="396.88" y="-14.5" font-family="Arial" font-size="10.00" fill="white">Signal</text>
</g>
<!-- protocol&#45;&gt;signal -->
<g id="edge7" class="edge">
<title>protocol&#45;&gt;signal</title>
<path fill="none" stroke="#4caf50" stroke-width="1.5" d="M377.46,-101.49C377.46,-101.49 377.46,-48.68 377.46,-48.68"/>
<polygon fill="#4caf50" stroke="#4caf50" stroke-width="1.5" points="380.96,-48.68 377.46,-38.68 373.96,-48.68 380.96,-48.68"/>
</g>
<!-- matrix -->
<g id="node9" class="node">
<title>matrix</title>
<polygon fill="#4caf50" stroke="black" points="513.88,-36 459.88,-36 459.88,0 513.88,0 513.88,-36"/>
<text xml:space="preserve" text-anchor="middle" x="486.88" y="-14.5" font-family="Arial" font-size="10.00" fill="white">Matrix</text>
</g>
<!-- protocol&#45;&gt;matrix -->
<g id="edge8" class="edge">
<title>protocol&#45;&gt;matrix</title>
<path fill="none" stroke="#4caf50" stroke-width="1.5" d="M380.62,-104C421.01,-104 486.88,-104 486.88,-104 486.88,-104 486.88,-48.51 486.88,-48.51"/>
<polygon fill="#4caf50" stroke="#4caf50" stroke-width="1.5" points="490.38,-48.51 486.88,-38.51 483.38,-48.51 490.38,-48.51"/>
</g>
<!-- email -->
<g id="node10" class="node">
<title>email</title>
<polygon fill="#4caf50" stroke="black" points="603.88,-36 549.88,-36 549.88,0 603.88,0 603.88,-36"/>
<text xml:space="preserve" text-anchor="middle" x="576.88" y="-14.5" font-family="Arial" font-size="10.00" fill="white">Email</text>
</g>
<!-- protocol&#45;&gt;email -->
<g id="edge9" class="edge">
<title>protocol&#45;&gt;email</title>
<path fill="none" stroke="#4caf50" stroke-width="1.5" d="M385.34,-115C449.19,-115 576.88,-115 576.88,-115 576.88,-115 576.88,-48.52 576.88,-48.52"/>
<polygon fill="#4caf50" stroke="#4caf50" stroke-width="1.5" points="580.38,-48.52 576.88,-38.52 573.38,-48.52 580.38,-48.52"/>
</g>
<!-- sms -->
<g id="node11" class="node">
<title>sms</title>
<polygon fill="#4caf50" stroke="black" points="693.88,-36 639.88,-36 639.88,0 693.88,0 693.88,-36"/>
<text xml:space="preserve" text-anchor="middle" x="666.88" y="-14.5" font-family="Arial" font-size="10.00" fill="white">SMS</text>
</g>
<!-- protocol&#45;&gt;sms -->
<g id="edge10" class="edge">
<title>protocol&#45;&gt;sms</title>
<path fill="none" stroke="#4caf50" stroke-width="1.5" d="M380.56,-125C460.11,-125 666.88,-125 666.88,-125 666.88,-125 666.88,-48.42 666.88,-48.42"/>
<polygon fill="#4caf50" stroke="#4caf50" stroke-width="1.5" points="670.38,-48.42 666.88,-38.42 663.38,-48.42 670.38,-48.42"/>
</g>
</g>
</svg>
