<?xml version="1.0" encoding="UTF-8" standalone="no"?>

<!DOCTYPE svg PUBLIC "-//W3C//DTD SVG 1.1//EN"

 "http://www.w3.org/Graphics/SVG/1.1/DTD/svg11.dtd">

<!-- Generated by graphviz version 14.1.2 (0)

 -->

<!-- Title: hermes_features Pages: 1 -->

<svg width="2906pt" height="582pt"

 viewBox="0.00 0.00 2906.00 582.00" xmlns="http://www.w3.org/2000/svg" xmlns:xlink="http://www.w3.org/1999/xlink">

<g id="graph0" class="graph" transform="scale(1 1) rotate(0) translate(4 577.7)">

<title>hermes_features</title>
<polygon fill="white" stroke="none" points="-4.0,4.2999999999999545 -4.0,-577.7 2902.0,-577.7 2902.0,4.2999999999999545"/>

<text xml:space="preserve" text-anchor="middle" x="1448.8" y="-7.2" font-family="Times New Roman,serif" font-size="14.00">Hermes Desktop &#45; Key Features and Capabilities</text>

<!-- cat_chat -->

<g id="node1" class="node">

<title>cat_chat</title>

<polygon fill="#3f51b5" stroke="black" stroke-width="2" points="660.8,-573.7 444.8,-573.7 444.8,-530.5 660.8,-530.5 660.8,-573.7"/>

<text xml:space="preserve" text-anchor="middle" x="552.8" y="-548.4" font-family="Arial Bold" font-size="11.00" fill="white">Chat and Interaction</text>

</g>

<!-- f_sse -->

<g id="node2" class="node">

<title>f_sse</title>

<path fill="#4caf50" stroke="black" d="M153.6,-472.5C153.6,-472.5 12,-472.5 12,-472.5 6,-472.5 0,-466.5 0,-460.5 0,-460.5 0,-441.3 0,-441.3 0,-435.3 6,-429.3 12,-429.3 12,-429.3 153.6,-429.3 153.6,-429.3 159.6,-429.3 165.6,-435.3 165.6,-441.3 165.6,-441.3 165.6,-460.5 165.6,-460.5 165.6,-466.5 159.6,-472.5 153.6,-472.5"/>

<text xml:space="preserve" text-anchor="middle" x="82.8" y="-447.6" font-family="Arial" font-size="9.00" fill="white">SSE Streaming Chat</text>

</g>

<!-- cat_chat&#45;&gt;f_sse -->

<g id="edge1" class="edge">

<title>cat_chat&#45;&gt;f_sse</title>

<path fill="none" stroke="#4caf50" d="M444.38,-559.5C305.58,-559.5 82.8,-559.5 82.8,-559.5 82.8,-559.5 82.8,-484.39 82.8,-484.39"/>

<polygon fill="#4caf50" stroke="#4caf50" points="86.3,-484.39 82.8,-474.39 79.3,-484.39 86.3,-484.39"/>

</g>

<!-- f_slash -->

<g id="node3" class="node">

<title>f_slash</title>

<path fill="#4caf50" stroke="black" d="M341.6,-472.5C341.6,-472.5 200,-472.5 200,-472.5 194,-472.5 188,-466.5 188,-460.5 188,-460.5 188,-441.3 188,-441.3 188,-435.3 194,-429.3 200,-429.3 200,-429.3 341.6,-429.3 341.6,-429.3 347.6,-429.3 353.6,-435.3 353.6,-441.3 353.6,-441.3 353.6,-460.5 353.6,-460.5 353.6,-466.5 347.6,-472.5 341.6,-472.5"/>

<text xml:space="preserve" text-anchor="middle" x="270.8" y="-447.6" font-family="Arial" font-size="9.00" fill="white">22 Slash Commands</text>

</g>

<!-- cat_chat&#45;&gt;f_slash -->

<g id="edge2" class="edge">

<title>cat_chat&#45;&gt;f_slash</title>

<path fill="none" stroke="#4caf50" d="M444.58,-544.5C365.05,-544.5 270.8,-544.5 270.8,-544.5 270.8,-544.5 270.8,-484.12 270.8,-484.12"/>

<polygon fill="#4caf50" stroke="#4caf50" points="274.3,-484.12 270.8,-474.12 267.3,-484.12 274.3,-484.12"/>

</g>

<!-- f_tokens -->

<g id="node4" class="node">

<title>f_tokens</title>

<path fill="#4caf50" stroke="black" d="M529.6,-472.5C529.6,-472.5 388,-472.5 388,-472.5 382,-472.5 376,-466.5 376,-460.5 376,-460.5 376,-441.3 376,-441.3 376,-435.3 382,-429.3 388,-429.3 388,-429.3 529.6,-429.3 529.6,-429.3 535.6,-429.3 541.6,-435.3 541.6,-441.3 541.6,-441.3 541.6,-460.5 541.6,-460.5 541.6,-466.5 535.6,-472.5 529.6,-472.5"/>

<text xml:space="preserve" text-anchor="middle" x="458.8" y="-447.6" font-family="Arial" font-size="9.00" fill="white">Token Usage Tracking</text>

</g>

<!-- cat_chat&#45;&gt;f_tokens -->

<g id="edge3" class="edge">

<title>cat_chat&#45;&gt;f_tokens</title>

<path fill="none" stroke="#4caf50" d="M493.2,-530.14C493.2,-530.14 493.2,-484.33 493.2,-484.33"/>

<polygon fill="#4caf50" stroke="#4caf50" points="496.7,-484.33 493.2,-474.33 489.7,-484.33 496.7,-484.33"/>

</g>

<!-- f_md -->

<g id="node5" class="node">

<title>f_md</title>

<path fill="#4caf50" stroke="black" d="M717.6,-472.5C717.6,-472.5 576,-472.5 576,-472.5 570,-472.5 564,-466.5 564,-460.5 564,-460.5 564,-441.3 564,-441.3 564,-435.3 570,-429.3 576,-429.3 576,-429.3 717.6,-429.3 717.6,-429.3 723.6,-429.3 729.6,-435.3 729.6,-441.3 729.6,-441.3 729.6,-460.5 729.6,-460.5 729.6,-466.5 723.6,-472.5 717.6,-472.5"/>

<text xml:space="preserve" text-anchor="middle" x="646.8" y="-447.6" font-family="Arial" font-size="9.00" fill="white">Markdown + Highlighting</text>

</g>

<!-- cat_chat&#45;&gt;f_md -->

<g id="edge4" class="edge">

<title>cat_chat&#45;&gt;f_md</title>

<path fill="none" stroke="#4caf50" d="M612.4,-530.14C612.4,-530.14 612.4,-484.33 612.4,-484.33"/>

<polygon fill="#4caf50" stroke="#4caf50" points="615.9,-484.33 612.4,-474.33 608.9,-484.33 615.9,-484.33"/>

</g>

<!-- f_toolprog -->

<g id="node6" class="node">

<title>f_toolprog</title>

<path fill="#4caf50" stroke="black" d="M905.6,-472.5C905.6,-472.5 764,-472.5 764,-472.5 758,-472.5 752,-466.5 752,-460.5 752,-460.5 752,-441.3 752,-441.3 752,-435.3 758,-429.3 764,-429.3 764,-429.3 905.6,-429.3 905.6,-429.3 911.6,-429.3 917.6,-435.3 917.6,-441.3 917.6,-441.3 917.6,-460.5 917.6,-460.5 917.6,-466.5 911.6,-472.5 905.6,-472.5"/>

<text xml:space="preserve" text-anchor="middle" x="834.8" y="-447.6" font-family="Arial" font-size="9.00" fill="white">Tool Progress Indicators</text>

</g>

<!-- cat_chat&#45;&gt;f_toolprog -->

<g id="edge5" class="edge">

<title>cat_chat&#45;&gt;f_toolprog</title>

<path fill="none" stroke="#4caf50" d="M661.02,-544.5C740.55,-544.5 834.8,-544.5 834.8,-544.5 834.8,-544.5 834.8,-484.12 834.8,-484.12"/>

<polygon fill="#4caf50" stroke="#4caf50" points="838.3,-484.12 834.8,-474.12 831.3,-484.12 838.3,-484.12"/>

</g>

<!-- cat_agent -->

<g id="node7" class="node">

<title>cat_agent</title>

<polygon fill="#3f51b5" stroke="black" stroke-width="2" points="1155.8,-472.5 939.8,-472.5 939.8,-429.3 1155.8,-429.3 1155.8,-472.5"/>

<text xml:space="preserve" text-anchor="middle" x="1047.8" y="-447.2" font-family="Arial Bold" font-size="11.00" fill="white">Agent Management</text>

</g>

<!-- cat_chat&#45;&gt;cat_agent -->

<g id="edge25" class="edge">

<title>cat_chat&#45;&gt;cat_agent</title>

<path fill="none" stroke="#3f51b5" stroke-width="2" d="M661.12,-559.5C806.8,-559.5 1047.8,-559.5 1047.8,-559.5 1047.8,-559.5 1047.8,-485.9 1047.8,-485.9"/>

<polygon fill="#3f51b5" stroke="#3f51b5" stroke-width="2" points="1051.3,-485.9 1047.8,-475.9 1044.3,-485.9 1051.3,-485.9"/>

</g>

<!-- f_tools -->

<g id="node8" class="node">

<title>f_tools</title>

<path fill="#2196f3" stroke="black" d="M648.6,-371.3C648.6,-371.3 507,-371.3 507,-371.3 501,-371.3 495,-365.3 495,-359.3 495,-359.3 495,-340.1 495,-340.1 495,-334.1 501,-328.1 507,-328.1 507,-328.1 648.6,-328.1 648.6,-328.1 654.6,-328.1 660.6,-334.1 660.6,-340.1 660.6,-340.1 660.6,-359.3 660.6,-359.3 660.6,-365.3 654.6,-371.3 648.6,-371.3"/>

<text xml:space="preserve" text-anchor="middle" x="577.8" y="-346.4" font-family="Arial" font-size="9.00" fill="white">14 Toolsets</text>

</g>

<!-- cat_agent&#45;&gt;f_tools -->

<g id="edge6" class="edge">

<title>cat_agent&#45;&gt;f_tools</title>

<path fill="none" stroke="#2196f3" d="M964,-429.23C964,-419.21 964,-409.5 964,-409.5 964,-409.5 612.3,-409.5 612.3,-409.5 612.3,-409.5 612.3,-383.14 612.3,-383.14"/>

<polygon fill="#2196f3" stroke="#2196f3" points="615.8,-383.14 612.3,-373.14 608.8,-383.14 615.8,-383.14"/>

</g>

<!-- f_memory -->

<g id="node9" class="node">

<title>f_memory</title>

<path fill="#2196f3" stroke="black" d="M836.6,-371.3C836.6,-371.3 695,-371.3 695,-371.3 689,-371.3 683,-365.3 683,-359.3 683,-359.3 683,-340.1 683,-340.1 683,-334.1 689,-328.1 695,-328.1 695,-328.1 836.6,-328.1 836.6,-328.1 842.6,-328.1 848.6,-334.1 848.6,-340.1 848.6,-340.1 848.6,-359.3 848.6,-359.3 848.6,-365.3 842.6,-371.3 836.6,-371.3"/>

<text xml:space="preserve" text-anchor="middle" x="765.8" y="-346.4" font-family="Arial" font-size="9.00" fill="white">Memory System (6 providers)</text>

</g>

<!-- cat_agent&#45;&gt;f_memory -->

<g id="edge7" class="edge">

<title>cat_agent&#45;&gt;f_memory</title>

<path fill="none" stroke="#2196f3" d="M988.2,-429.09C988.2,-411.79 988.2,-390.5 988.2,-390.5 988.2,-390.5 800.3,-390.5 800.3,-390.5 800.3,-390.5 800.3,-383.05 800.3,-383.05"/>

<polygon fill="#2196f3" stroke="#2196f3" points="803.8,-383.05 800.3,-373.05 796.8,-383.05 803.8,-383.05"/>

</g>

<!-- f_persona -->

<g id="node10" class="node">

<title>f_persona</title>

<path fill="#2196f3" stroke="black" d="M1024.6,-371.3C1024.6,-371.3 883,-371.3 883,-371.3 877,-371.3 871,-365.3 871,-359.3 871,-359.3 871,-340.1 871,-340.1 871,-334.1 877,-328.1 883,-328.1 883,-328.1 1024.6,-328.1 1024.6,-328.1 1030.6,-328.1 1036.6,-334.1 1036.6,-340.1 1036.6,-340.1 1036.6,-359.3 1036.6,-359.3 1036.6,-365.3 1030.6,-371.3 1024.6,-371.3"/>

<text xml:space="preserve" text-anchor="middle" x="953.8" y="-346.4" font-family="Arial" font-size="9.00" fill="white">Persona Editor (SOUL.md)</text>

</g>

<!-- cat_agent&#45;&gt;f_persona -->

<g id="edge8" class="edge">

<title>cat_agent&#45;&gt;f_persona</title>

<path fill="none" stroke="#2196f3" d="M1012.4,-428.94C1012.4,-428.94 1012.4,-383.13 1012.4,-383.13"/>

<polygon fill="#2196f3" stroke="#2196f3" points="1015.9,-383.13 1012.4,-373.13 1008.9,-383.13 1015.9,-383.13"/>

</g>

<!-- f_profiles -->

<g id="node11" class="node">

<title>f_profiles</title>

<path fill="#2196f3" stroke="black" d="M1212.6,-371.3C1212.6,-371.3 1071,-371.3 1071,-371.3 1065,-371.3 1059,-365.3 1059,-359.3 1059,-359.3 1059,-340.1 1059,-340.1 1059,-334.1 1065,-328.1 1071,-328.1 1071,-328.1 1212.6,-328.1 1212.6,-328.1 1218.6,-328.1 1224.6,-334.1 1224.6,-340.1 1224.6,-340.1 1224.6,-359.3 1224.6,-359.3 1224.6,-365.3 1218.6,-371.3 1212.6,-371.3"/>

<text xml:space="preserve" text-anchor="middle" x="1141.8" y="-346.4" font-family="Arial" font-size="9.00" fill="white">Profile Switching</text>

</g>

<!-- cat_agent&#45;&gt;f_profiles -->

<g id="edge9" class="edge">

<title>cat_agent&#45;&gt;f_profiles</title>

<path fill="none" stroke="#2196f3" d="M1107.4,-428.94C1107.4,-428.94 1107.4,-383.13 1107.4,-383.13"/>

<polygon fill="#2196f3" stroke="#2196f3" points="1110.9,-383.13 1107.4,-373.13 1103.9,-383.13 1110.9,-383.13"/>

</g>

<!-- f_sessions -->

<g id="node12" class="node">

<title>f_sessions</title>

<path fill="#2196f3" stroke="black" d="M1400.6,-371.3C1400.6,-371.3 1259,-371.3 1259,-371.3 1253,-371.3 1247,-365.3 1247,-359.3 1247,-359.3 1247,-340.1 1247,-340.1 1247,-334.1 1253,-328.1 1259,-328.1 1259,-328.1 1400.6,-328.1 1400.6,-328.1 1406.6,-328.1 1412.6,-334.1 1412.6,-340.1 1412.6,-340.1 1412.6,-359.3 1412.6,-359.3 1412.6,-365.3 1406.6,-371.3 1400.6,-371.3"/>

<text xml:space="preserve" text-anchor="middle" x="1329.8" y="-346.4" font-family="Arial" font-size="9.00" fill="white">Session Mgmt (SQLite FTS5)</text>

</g>

<!-- cat_agent&#45;&gt;f_sessions -->

<g id="edge10" class="edge">

<title>cat_agent&#45;&gt;f_sessions</title>

<path fill="none" stroke="#2196f3" d="M1156.02,-443.5C1235.55,-443.5 1329.8,-443.5 1329.8,-443.5 1329.8,-443.5 1329.8,-382.97 1329.8,-382.97"/>

<polygon fill="#2196f3" stroke="#2196f3" points="1333.3,-382.97 1329.8,-372.97 1326.3,-382.97 1333.3,-382.97"/>

</g>

<!-- cat_conn -->

<g id="node13" class="node">

<title>cat_conn</title>

<polygon fill="#3f51b5" stroke="black" stroke-width="2" points="1650.8,-371.3 1434.8,-371.3 1434.8,-328.1 1650.8,-328.1 1650.8,-371.3"/>

<text xml:space="preserve" text-anchor="middle" x="1542.8" y="-346" font-family="Arial Bold" font-size="11.00" fill="white">Connectivity</text>

</g>

<!-- cat_agent&#45;&gt;cat_conn -->

<g id="edge26" class="edge">

<title>cat_agent&#45;&gt;cat_conn</title>

<path fill="none" stroke="#3f51b5" stroke-width="2" d="M1156.12,-458.5C1301.8,-458.5 1542.8,-458.5 1542.8,-458.5 1542.8,-458.5 1542.8,-384.74 1542.8,-384.74"/>

<polygon fill="#3f51b5" stroke="#3f51b5" stroke-width="2" points="1546.3,-384.74 1542.8,-374.74 1539.3,-384.74 1546.3,-384.74"/>

</g>

<!-- f_gateways -->

<g id="node14" class="node">

<title>f_gateways</title>

<path fill="#ff9800" stroke="black" d="M1237.6,-270.1C1237.6,-270.1 1096,-270.1 1096,-270.1 1090,-270.1 1084,-264.1 1084,-258.1 1084,-258.1 1084,-238.9 1084,-238.9 1084,-232.9 1090,-226.9 1096,-226.9 1096,-226.9 1237.6,-226.9 1237.6,-226.9 1243.6,-226.9 1249.6,-232.9 1249.6,-238.9 1249.6,-238.9 1249.6,-258.1 1249.6,-258.1 1249.6,-264.1 1243.6,-270.1 1237.6,-270.1"/>

<text xml:space="preserve" text-anchor="middle" x="1166.8" y="-245.2" font-family="Arial" font-size="9.00" fill="white">16 Messaging Gateways</text>

</g>

<!-- cat_conn&#45;&gt;f_gateways -->

<g id="edge11" class="edge">

<title>cat_conn&#45;&gt;f_gateways</title>

<path fill="none" stroke="#ff9800" d="M1448.8,-327.83C1448.8,-314.3 1448.8,-299.5 1448.8,-299.5 1448.8,-299.5 1235.8,-299.5 1235.8,-299.5 1235.8,-299.5 1235.8,-281.94 1235.8,-281.94"/>

<polygon fill="#ff9800" stroke="#ff9800" points="1239.3,-281.94 1235.8,-271.94 1232.3,-281.94 1239.3,-281.94"/>

</g>

<!-- f_providers -->

<g id="node15" class="node">

<title>f_providers</title>

<path fill="#ff9800" stroke="black" d="M1425.6,-270.1C1425.6,-270.1 1284,-270.1 1284,-270.1 1278,-270.1 1272,-264.1 1272,-258.1 1272,-258.1 1272,-238.9 1272,-238.9 1272,-232.9 1278,-226.9 1284,-226.9 1284,-226.9 1425.6,-226.9 1425.6,-226.9 1431.6,-226.9 1437.6,-232.9 1437.6,-238.9 1437.6,-238.9 1437.6,-258.1 1437.6,-258.1 1437.6,-264.1 1431.6,-270.1 1425.6,-270.1"/>

<text xml:space="preserve" text-anchor="middle" x="1354.8" y="-245.2" font-family="Arial" font-size="9.00" fill="white">11+ LLM Providers</text>

</g>

<!-- cat_conn&#45;&gt;f_providers -->

<g id="edge12" class="edge">

<title>cat_conn&#45;&gt;f_providers</title>

<path fill="none" stroke="#ff9800" d="M1434.69,-349.5C1427.89,-349.5 1423.7,-349.5 1423.7,-349.5 1423.7,-349.5 1423.7,-281.93 1423.7,-281.93"/>

<polygon fill="#ff9800" stroke="#ff9800" points="1427.2,-281.93 1423.7,-271.93 1420.2,-281.93 1427.2,-281.93"/>

</g>

<!-- f_cron -->

<g id="node16" class="node">

<title>f_cron</title>

<path fill="#ff9800" stroke="black" d="M1613.6,-270.1C1613.6,-270.1 1472,-270.1 1472,-270.1 1466,-270.1 1460,-264.1 1460,-258.1 1460,-258.1 1460,-238.9 1460,-238.9 1460,-232.9 1466,-226.9 1472,-226.9 1472,-226.9 1613.6,-226.9 1613.6,-226.9 1619.6,-226.9 1625.6,-232.9 1625.6,-238.9 1625.6,-238.9 1625.6,-258.1 1625.6,-258.1 1625.6,-264.1 1619.6,-270.1 1613.6,-270.1"/>

<text xml:space="preserve" text-anchor="middle" x="1542.8" y="-245.2" font-family="Arial" font-size="9.00" fill="white">Scheduled Tasks (cron)</text>

</g>

<!-- cat_conn&#45;&gt;f_cron -->

<g id="edge13" class="edge">

<title>cat_conn&#45;&gt;f_cron</title>

<path fill="none" stroke="#ff9800" d="M1542.8,-327.74C1542.8,-327.74 1542.8,-281.93 1542.8,-281.93"/>

<polygon fill="#ff9800" stroke="#ff9800" points="1546.3,-281.93 1542.8,-271.93 1539.3,-281.93 1546.3,-281.93"/>

</g>

<!-- f_office -->

<g id="node17" class="node">

<title>f_office</title>

<path fill="#ff9800" stroke="black" d="M1801.6,-270.1C1801.6,-270.1 1660,-270.1 1660,-270.1 1654,-270.1 1648,-264.1 1648,-258.1 1648,-258.1 1648,-238.9 1648,-238.9 1648,-232.9 1654,-226.9 1660,-226.9 1660,-226.9 1801.6,-226.9 1801.6,-226.9 1807.6,-226.9 1813.6,-232.9 1813.6,-238.9 1813.6,-238.9 1813.6,-258.1 1813.6,-258.1 1813.6,-264.1 1807.6,-270.1 1801.6,-270.1"/>

<text xml:space="preserve" text-anchor="middle" x="1730.8" y="-245.2" font-family="Arial" font-size="9.00" fill="white">Hermes Office (Claw3d 3D)</text>

</g>

<!-- cat_conn&#45;&gt;f_office -->

<g id="edge14" class="edge">

<title>cat_conn&#45;&gt;f_office</title>

<path fill="none" stroke="#ff9800" d="M1636.8,-327.74C1636.8,-297.98 1636.8,-248.5 1636.8,-248.5 1636.8,-248.5 1637.88,-248.5 1637.88,-248.5"/>

<polygon fill="#ff9800" stroke="#ff9800" points="1636.07,-252 1646.07,-248.5 1636.07,-245 1636.07,-252"/>

</g>

<!-- cat_sec -->

<g id="node18" class="node">

<title>cat_sec</title>

<polygon fill="#3f51b5" stroke="black" stroke-width="2" points="2051.8,-270.1 1835.8,-270.1 1835.8,-226.9 2051.8,-226.9 2051.8,-270.1"/>

<text xml:space="preserve" text-anchor="middle" x="1943.8" y="-244.8" font-family="Arial Bold" font-size="11.00" fill="white">Security and Infrastructure</text>

</g>

<!-- cat_conn&#45;&gt;cat_sec -->

<g id="edge27" class="edge">

<title>cat_conn&#45;&gt;cat_sec</title>

<path fill="none" stroke="#3f51b5" stroke-width="2" d="M1651.05,-349.5C1769.82,-349.5 1943.8,-349.5 1943.8,-349.5 1943.8,-349.5 1943.8,-283.44 1943.8,-283.44"/>

<polygon fill="#3f51b5" stroke="#3f51b5" stroke-width="2" points="1947.3,-283.44 1943.8,-273.44 1940.3,-283.44 1947.3,-283.44"/>

</g>

<!-- f_secrets -->

<g id="node19" class="node">

<title>f_secrets</title>

<path fill="#9c27b0" stroke="black" d="M1544.6,-168.9C1544.6,-168.9 1403,-168.9 1403,-168.9 1397,-168.9 1391,-162.9 1391,-156.9 1391,-156.9 1391,-137.7 1391,-137.7 1391,-131.7 1397,-125.7 1403,-125.7 1403,-125.7 1544.6,-125.7 1544.6,-125.7 1550.6,-125.7 1556.6,-131.7 1556.6,-137.7 1556.6,-137.7 1556.6,-156.9 1556.6,-156.9 1556.6,-162.9 1550.6,-168.9 1544.6,-168.9"/>

<text xml:space="preserve" text-anchor="middle" x="1473.8" y="-144" font-family="Arial" font-size="9.00" fill="white">Secrets Provider (vault)</text>

</g>

<!-- cat_sec&#45;&gt;f_secrets -->

<g id="edge15" class="edge">

<title>cat_sec&#45;&gt;f_secrets</title>

<path fill="none" stroke="#9c27b0" d="M1860,-226.56C1860,-216.81 1860,-207.5 1860,-207.5 1860,-207.5 1508.3,-207.5 1508.3,-207.5 1508.3,-207.5 1508.3,-180.89 1508.3,-180.89"/>

<polygon fill="#9c27b0" stroke="#9c27b0" points="1511.8,-180.89 1508.3,-170.89 1504.8,-180.89 1511.8,-180.89"/>

</g>

<!-- f_update -->

<g id="node20" class="node">

<title>f_update</title>

<path fill="#9c27b0" stroke="black" d="M1732.6,-168.9C1732.6,-168.9 1591,-168.9 1591,-168.9 1585,-168.9 1579,-162.9 1579,-156.9 1579,-156.9 1579,-137.7 1579,-137.7 1579,-131.7 1585,-125.7 1591,-125.7 1591,-125.7 1732.6,-125.7 1732.6,-125.7 1738.6,-125.7 1744.6,-131.7 1744.6,-137.7 1744.6,-137.7 1744.6,-156.9 1744.6,-156.9 1744.6,-162.9 1738.6,-168.9 1732.6,-168.9"/>

<text xml:space="preserve" text-anchor="middle" x="1661.8" y="-144" font-family="Arial" font-size="9.00" fill="white">Auto&#45;Updater</text>

</g>

<!-- cat_sec&#45;&gt;f_update -->

<g id="edge16" class="edge">

<title>cat_sec&#45;&gt;f_update</title>

<path fill="none" stroke="#9c27b0" d="M1884.2,-226.5C1884.2,-209.37 1884.2,-188.5 1884.2,-188.5 1884.2,-188.5 1696.3,-188.5 1696.3,-188.5 1696.3,-188.5 1696.3,-180.86 1696.3,-180.86"/>

<polygon fill="#9c27b0" stroke="#9c27b0" points="1699.8,-180.86 1696.3,-170.86 1692.8,-180.86 1699.8,-180.86"/>

</g>

<!-- f_backup -->

<g id="node21" class="node">

<title>f_backup</title>

<path fill="#9c27b0" stroke="black" d="M1920.6,-168.9C1920.6,-168.9 1779,-168.9 1779,-168.9 1773,-168.9 1767,-162.9 1767,-156.9 1767,-156.9 1767,-137.7 1767,-137.7 1767,-131.7 1773,-125.7 1779,-125.7 1779,-125.7 1920.6,-125.7 1920.6,-125.7 1926.6,-125.7 1932.6,-131.7 1932.6,-137.7 1932.6,-137.7 1932.6,-156.9 1932.6,-156.9 1932.6,-162.9 1926.6,-168.9 1920.6,-168.9"/>

<text xml:space="preserve" text-anchor="middle" x="1849.8" y="-144" font-family="Arial" font-size="9.00" fill="white">Backup and Import</text>

</g>

<!-- cat_sec&#45;&gt;f_backup -->

<g id="edge17" class="edge">

<title>cat_sec&#45;&gt;f_backup</title>

<path fill="none" stroke="#9c27b0" d="M1908.4,-226.54C1908.4,-226.54 1908.4,-180.73 1908.4,-180.73"/>

<polygon fill="#9c27b0" stroke="#9c27b0" points="1911.9,-180.73 1908.4,-170.73 1904.9,-180.73 1911.9,-180.73"/>

</g>

<!-- f_logs -->

<g id="node22" class="node">

<title>f_logs</title>

<path fill="#9c27b0" stroke="black" d="M2108.6,-168.9C2108.6,-168.9 1967,-168.9 1967,-168.9 1961,-168.9 1955,-162.9 1955,-156.9 1955,-156.9 1955,-137.7 1955,-137.7 1955,-131.7 1961,-125.7 1967,-125.7 1967,-125.7 2108.6,-125.7 2108.6,-125.7 2114.6,-125.7 2120.6,-131.7 2120.6,-137.7 2120.6,-137.7 2120.6,-156.9 2120.6,-156.9 2120.6,-162.9 2114.6,-168.9 2108.6,-168.9"/>

<text xml:space="preserve" text-anchor="middle" x="2037.8" y="-144" font-family="Arial" font-size="9.00" fill="white">Log Viewer</text>

</g>

<!-- cat_sec&#45;&gt;f_logs -->

<g id="edge18" class="edge">

<title>cat_sec&#45;&gt;f_logs</title>

<path fill="none" stroke="#9c27b0" d="M2003.4,-226.54C2003.4,-226.54 2003.4,-180.73 2003.4,-180.73"/>

<polygon fill="#9c27b0" stroke="#9c27b0" points="2006.9,-180.73 2003.4,-170.73 1999.9,-180.73 2006.9,-180.73"/>

</g>

<!-- f_i18n -->

<g id="node23" class="node">

<title>f_i18n</title>

<path fill="#9c27b0" stroke="black" d="M2296.6,-168.9C2296.6,-168.9 2155,-168.9 2155,-168.9 2149,-168.9 2143,-162.9 2143,-156.9 2143,-156.9 2143,-137.7 2143,-137.7 2143,-131.7 2149,-125.7 2155,-125.7 2155,-125.7 2296.6,-125.7 2296.6,-125.7 2302.6,-125.7 2308.6,-131.7 2308.6,-137.7 2308.6,-137.7 2308.6,-156.9 2308.6,-156.9 2308.6,-162.9 2302.6,-168.9 2296.6,-168.9"/>

<text xml:space="preserve" text-anchor="middle" x="2225.8" y="-144" font-family="Arial" font-size="9.00" fill="white">i18n Internationalization</text>

</g>

<!-- cat_sec&#45;&gt;f_i18n -->

<g id="edge19" class="edge">

<title>cat_sec&#45;&gt;f_i18n</title>

<path fill="none" stroke="#9c27b0" d="M2052.02,-241.5C2131.55,-241.5 2225.8,-241.5 2225.8,-241.5 2225.8,-241.5 2225.8,-180.66 2225.8,-180.66"/>

<polygon fill="#9c27b0" stroke="#9c27b0" points="2229.3,-180.66 2225.8,-170.66 2222.3,-180.66 2229.3,-180.66"/>

</g>

<!-- cat_dev -->

<g id="node24" class="node">

<title>cat_dev</title>

<polygon fill="#3f51b5" stroke="black" stroke-width="2" points="2546.8,-168.9 2330.8,-168.9 2330.8,-125.7 2546.8,-125.7 2546.8,-168.9"/>

<text xml:space="preserve" text-anchor="middle" x="2438.8" y="-143.6" font-family="Arial Bold" font-size="11.00" fill="white">Development</text>

</g>

<!-- cat_sec&#45;&gt;cat_dev -->

<g id="edge28" class="edge">

<title>cat_sec&#45;&gt;cat_dev</title>

<path fill="none" stroke="#3f51b5" stroke-width="2" d="M2052.12,-255.5C2197.8,-255.5 2438.8,-255.5 2438.8,-255.5 2438.8,-255.5 2438.8,-182.22 2438.8,-182.22"/>

<polygon fill="#3f51b5" stroke="#3f51b5" stroke-width="2" points="2442.3,-182.22 2438.8,-172.22 2435.3,-182.22 2442.3,-182.22"/>

</g>

<!-- f_electron -->

<g id="node25" class="node">

<title>f_electron</title>

<path fill="#f44336" stroke="black" d="M2133.6,-67.7C2133.6,-67.7 1992,-67.7 1992,-67.7 1986,-67.7 1980,-61.7 1980,-55.7 1980,-55.7 1980,-36.5 1980,-36.5 1980,-30.5 1986,-24.5 1992,-24.5 1992,-24.5 2133.6,-24.5 2133.6,-24.5 2139.6,-24.5 2145.6,-30.5 2145.6,-36.5 2145.6,-36.5 2145.6,-55.7 2145.6,-55.7 2145.6,-61.7 2139.6,-67.7 2133.6,-67.7"/>

<text xml:space="preserve" text-anchor="middle" x="2062.8" y="-42.8" font-family="Arial" font-size="9.00" fill="white">Electron 39 + React 19</text>

</g>

<!-- cat_dev&#45;&gt;f_electron -->

<g id="edge20" class="edge">

<title>cat_dev&#45;&gt;f_electron</title>

<path fill="none" stroke="#f44336" d="M2344.8,-125.46C2344.8,-111.69 2344.8,-96.5 2344.8,-96.5 2344.8,-96.5 2131.8,-96.5 2131.8,-96.5 2131.8,-96.5 2131.8,-79.57 2131.8,-79.57"/>

<polygon fill="#f44336" stroke="#f44336" points="2135.3,-79.57 2131.8,-69.57 2128.3,-79.57 2135.3,-79.57"/>

</g>

<!-- f_tailwind -->

<g id="node26" class="node">

<title>f_tailwind</title>

<path fill="#f44336" stroke="black" d="M2321.6,-67.7C2321.6,-67.7 2180,-67.7 2180,-67.7 2174,-67.7 2168,-61.7 2168,-55.7 2168,-55.7 2168,-36.5 2168,-36.5 2168,-30.5 2174,-24.5 2180,-24.5 2180,-24.5 2321.6,-24.5 2321.6,-24.5 2327.6,-24.5 2333.6,-30.5 2333.6,-36.5 2333.6,-36.5 2333.6,-55.7 2333.6,-55.7 2333.6,-61.7 2327.6,-67.7 2321.6,-67.7"/>

<text xml:space="preserve" text-anchor="middle" x="2250.8" y="-42.8" font-family="Arial" font-size="9.00" fill="white">Tailwind 4 + Vite 7</text>

</g>

<!-- cat_dev&#45;&gt;f_tailwind -->

<g id="edge21" class="edge">

<title>cat_dev&#45;&gt;f_tailwind</title>

<path fill="none" stroke="#f44336" d="M2330.69,-147.5C2323.89,-147.5 2319.7,-147.5 2319.7,-147.5 2319.7,-147.5 2319.7,-79.62 2319.7,-79.62"/>

<polygon fill="#f44336" stroke="#f44336" points="2323.2,-79.62 2319.7,-69.62 2316.2,-79.62 2323.2,-79.62"/>

</g>

<!-- f_vitest -->

<g id="node27" class="node">

<title>f_vitest</title>

<path fill="#f44336" stroke="black" d="M2509.6,-67.7C2509.6,-67.7 2368,-67.7 2368,-67.7 2362,-67.7 2356,-61.7 2356,-55.7 2356,-55.7 2356,-36.5 2356,-36.5 2356,-30.5 2362,-24.5 2368,-24.5 2368,-24.5 2509.6,-24.5 2509.6,-24.5 2515.6,-24.5 2521.6,-30.5 2521.6,-36.5 2521.6,-36.5 2521.6,-55.7 2521.6,-55.7 2521.6,-61.7 2515.6,-67.7 2509.6,-67.7"/>

<text xml:space="preserve" text-anchor="middle" x="2438.8" y="-42.8" font-family="Arial" font-size="9.00" fill="white">Vitest + Playwright</text>

</g>

<!-- cat_dev&#45;&gt;f_vitest -->

<g id="edge22" class="edge">

<title>cat_dev&#45;&gt;f_vitest</title>

<path fill="none" stroke="#f44336" d="M2438.8,-125.34C2438.8,-125.34 2438.8,-79.53 2438.8,-79.53"/>

<polygon fill="#f44336" stroke="#f44336" points="2442.3,-79.53 2438.8,-69.53 2435.3,-79.53 2442.3,-79.53"/>

</g>

<!-- f_three -->

<g id="node28" class="node">

<title>f_three</title>

<path fill="#f44336" stroke="black" d="M2697.6,-67.7C2697.6,-67.7 2556,-67.7 2556,-67.7 2550,-67.7 2544,-61.7 2544,-55.7 2544,-55.7 2544,-36.5 2544,-36.5 2544,-30.5 2550,-24.5 2556,-24.5 2556,-24.5 2697.6,-24.5 2697.6,-24.5 2703.6,-24.5 2709.6,-30.5 2709.6,-36.5 2709.6,-36.5 2709.6,-55.7 2709.6,-55.7 2709.6,-61.7 2703.6,-67.7 2697.6,-67.7"/>

<text xml:space="preserve" text-anchor="middle" x="2626.8" y="-42.8" font-family="Arial" font-size="9.00" fill="white">Three.js for 3D</text>

</g>

<!-- cat_dev&#45;&gt;f_three -->

<g id="edge23" class="edge">

<title>cat_dev&#45;&gt;f_three</title>

<path fill="none" stroke="#f44336" d="M2532.8,-125.43C2532.8,-95.78 2532.8,-46.5 2532.8,-46.5 2532.8,-46.5 2533.88,-46.5 2533.88,-46.5"/>

<polygon fill="#f44336" stroke="#f44336" points="2532.07,-50 2542.07,-46.5 2532.07,-43 2532.07,-50"/>

</g>

<!-- f_mit -->

<g id="node29" class="node">

<title>f_mit</title>

<path fill="#f44336" stroke="black" d="M2885.6,-67.7C2885.6,-67.7 2744,-67.7 2744,-67.7 2738,-67.7 2732,-61.7 2732,-55.7 2732,-55.7 2732,-36.5 2732,-36.5 2732,-30.5 2738,-24.5 2744,-24.5 2744,-24.5 2885.6,-24.5 2885.6,-24.5 2891.6,-24.5 2897.6,-30.5 2897.6,-36.5 2897.6,-36.5 2897.6,-55.7 2897.6,-55.7 2897.6,-61.7 2891.6,-67.7 2885.6,-67.7"/>

<text xml:space="preserve" text-anchor="middle" x="2814.8" y="-42.8" font-family="Arial" font-size="9.00" fill="white">MIT License, v0.6.2</text>

</g>

<!-- cat_dev&#45;&gt;f_mit -->

<g id="edge24" class="edge">

<title>cat_dev&#45;&gt;f_mit</title>

<path fill="none" stroke="#f44336" d="M2547.05,-147.5C2658.13,-147.5 2814.8,-147.5 2814.8,-147.5 2814.8,-147.5 2814.8,-79.62 2814.8,-79.62"/>

<polygon fill="#f44336" stroke="#f44336" points="2818.3,-79.62 2814.8,-69.62 2811.3,-79.62 2818.3,-79.62"/>

</g>

</g>

</svg>

