<?xml version="1.0" encoding="UTF-8" standalone="no"?>
<!DOCTYPE svg PUBLIC "-//W3C//DTD SVG 1.1//EN"
 "http://www.w3.org/Graphics/SVG/1.1/DTD/svg11.dtd">
<!-- Generated by graphviz version 14.1.2 (0)
 -->
<!-- Title: iptv_playlists Pages: 1 -->
<svg width="2751pt" height="513pt"
 viewBox="0.00 0.00 2751.00 513.00" xmlns="http://www.w3.org/2000/svg" xmlns:xlink="http://www.w3.org/1999/xlink">
<g id="graph0" class="graph" transform="scale(1 1) rotate(0) translate(4 509.3)">
<title>iptv_playlists</title>
<text xml:space="preserve" text-anchor="middle" x="1371.3" y="-7.2" font-family="Times New Roman,serif" font-size="14.00">IPTV&#45;Org Playlist Organization &#45; 10,000+ Channels, 200+ Countries, 30+ Categories</text>
<!-- db -->
<g id="node1" class="node">
<title>db</title>
<path fill="#2196f3" stroke="black" d="M1502.8,-505.3C1502.8,-505.3 1238.8,-505.3 1238.8,-505.3 1232.8,-505.3 1226.8,-499.3 1226.8,-493.3 1226.8,-493.3 1226.8,-445.3 1226.8,-445.3 1226.8,-439.3 1232.8,-433.3 1238.8,-433.3 1238.8,-433.3 1502.8,-433.3 1502.8,-433.3 1508.8,-433.3 1514.8,-439.3 1514.8,-445.3 1514.8,-445.3 1514.8,-493.3 1514.8,-493.3 1514.8,-499.3 1508.8,-505.3 1502.8,-505.3"/>
<text xml:space="preserve" text-anchor="middle" x="1370.8" y="-479.28" font-family="Arial Bold" font-size="12.00" fill="white">Channel Database</text>
<text xml:space="preserve" text-anchor="middle" x="1370.8" y="-465.03" font-family="Arial Bold" font-size="12.00" fill="white">10,000+ channels with metadata</text>
<text xml:space="preserve" text-anchor="middle" x="1370.8" y="-450.78" font-family="Arial Bold" font-size="12.00" fill="white">(country, language, category, stream URL)</text>
</g>
<!-- country_branch -->
<g id="node2" class="node">
<title>country_branch</title>
<path fill="#ff9800" stroke="black" d="M658.8,-383.3C658.8,-383.3 466.8,-383.3 466.8,-383.3 460.8,-383.3 454.8,-377.3 454.8,-371.3 454.8,-371.3 454.8,-337.7 454.8,-337.7 454.8,-331.7 460.8,-325.7 466.8,-325.7 466.8,-325.7 658.8,-325.7 658.8,-325.7 664.8,-325.7 670.8,-331.7 670.8,-337.7 670.8,-337.7 670.8,-371.3 670.8,-371.3 670.8,-377.3 664.8,-383.3 658.8,-383.3"/>
<text xml:space="preserve" text-anchor="middle" x="562.8" y="-357.55" font-family="Arial Bold" font-size="11.00" fill="white">By Country</text>
<text xml:space="preserve" text-anchor="middle" x="562.8" y="-344.05" font-family="Arial Bold" font-size="11.00" fill="white">200+ playlists</text>
</g>
<!-- db&#45;&gt;country_branch -->
<g id="edge1" class="edge">
<title>db&#45;&gt;country_branch</title>
<path fill="none" stroke="#42a5f5" stroke-width="2" d="M1244.8,-432.94C1244.8,-402.67 1244.8,-364.5 1244.8,-364.5 1244.8,-364.5 684.27,-364.5 684.27,-364.5"/>
<polygon fill="#42a5f5" stroke="#42a5f5" stroke-width="2" points="684.27,-361 674.27,-364.5 684.27,-368 684.27,-361"/>
<text xml:space="preserve" text-anchor="middle" x="954.5" y="-367.7" font-family="Times New Roman,serif" font-size="14.00">filter by country</text>
</g>
<!-- language_branch -->
<g id="node3" class="node">
<title>language_branch</title>
<path fill="#ff9800" stroke="black" d="M1466.8,-383.3C1466.8,-383.3 1274.8,-383.3 1274.8,-383.3 1268.8,-383.3 1262.8,-377.3 1262.8,-371.3 1262.8,-371.3 1262.8,-337.7 1262.8,-337.7 1262.8,-331.7 1268.8,-325.7 1274.8,-325.7 1274.8,-325.7 1466.8,-325.7 1466.8,-325.7 1472.8,-325.7 1478.8,-331.7 1478.8,-337.7 1478.8,-337.7 1478.8,-371.3 1478.8,-371.3 1478.8,-377.3 1472.8,-383.3 1466.8,-383.3"/>
<text xml:space="preserve" text-anchor="middle" x="1370.8" y="-357.55" font-family="Arial Bold" font-size="11.00" fill="white">By Language</text>
<text xml:space="preserve" text-anchor="middle" x="1370.8" y="-344.05" font-family="Arial Bold" font-size="11.00" fill="white">200+ playlists</text>
</g>
<!-- db&#45;&gt;language_branch -->
<g id="edge2" class="edge">
<title>db&#45;&gt;language_branch</title>
<path fill="none" stroke="#66bb6a" stroke-width="2" d="M1370.8,-432.98C1370.8,-432.98 1370.8,-396.72 1370.8,-396.72"/>
<polygon fill="#66bb6a" stroke="#66bb6a" stroke-width="2" points="1374.3,-396.72 1370.8,-386.72 1367.3,-396.72 1374.3,-396.72"/>
<text xml:space="preserve" text-anchor="middle" x="1322.8" y="-418.05" font-family="Times New Roman,serif" font-size="14.00">filter by language</text>
</g>
<!-- category_branch -->
<g id="node4" class="node">
<title>category_branch</title>
<path fill="#ff9800" stroke="black" d="M2275.8,-383.3C2275.8,-383.3 2083.8,-383.3 2083.8,-383.3 2077.8,-383.3 2071.8,-377.3 2071.8,-371.3 2071.8,-371.3 2071.8,-337.7 2071.8,-337.7 2071.8,-331.7 2077.8,-325.7 2083.8,-325.7 2083.8,-325.7 2275.8,-325.7 2275.8,-325.7 2281.8,-325.7 2287.8,-331.7 2287.8,-337.7 2287.8,-337.7 2287.8,-371.3 2287.8,-371.3 2287.8,-377.3 2281.8,-383.3 2275.8,-383.3"/>
<text xml:space="preserve" text-anchor="middle" x="2179.8" y="-357.55" font-family="Arial Bold" font-size="11.00" fill="white">By Category</text>
<text xml:space="preserve" text-anchor="middle" x="2179.8" y="-344.05" font-family="Arial Bold" font-size="11.00" fill="white">30+ playlists</text>
</g>
<!-- db&#45;&gt;category_branch -->
<g id="edge3" class="edge">
<title>db&#45;&gt;category_branch</title>
<path fill="none" stroke="#ffa726" stroke-width="2" d="M1496.8,-432.94C1496.8,-402.67 1496.8,-364.5 1496.8,-364.5 1496.8,-364.5 2058.55,-364.5 2058.55,-364.5"/>
<polygon fill="#ffa726" stroke="#ffa726" stroke-width="2" points="2058.55,-368 2068.55,-364.5 2058.55,-361 2058.55,-368"/>
<text xml:space="preserve" text-anchor="middle" x="1696.58" y="-367.7" font-family="Times New Roman,serif" font-size="14.00">filter by category</text>
</g>
<!-- us -->
<g id="node5" class="node">
<title>us</title>
<path fill="#42a5f5" stroke="black" d="M189.6,-275.7C189.6,-275.7 12,-275.7 12,-275.7 6,-275.7 0,-269.7 0,-263.7 0,-263.7 0,-237.3 0,-237.3 0,-231.3 6,-225.3 12,-225.3 12,-225.3 189.6,-225.3 189.6,-225.3 195.6,-225.3 201.6,-231.3 201.6,-237.3 201.6,-237.3 201.6,-263.7 201.6,-263.7 201.6,-269.7 195.6,-275.7 189.6,-275.7"/>
<text xml:space="preserve" text-anchor="middle" x="100.8" y="-253" font-family="Arial" font-size="10.00" fill="white">us.m3u</text>
<text xml:space="preserve" text-anchor="middle" x="100.8" y="-241" font-family="Arial" font-size="10.00" fill="white">United States</text>
</g>
<!-- country_branch&#45;&gt;us -->
<g id="edge4" class="edge">
<title>country_branch&#45;&gt;us</title>
<path fill="none" stroke="#42a5f5" stroke-width="1.5" d="M454.48,-354.5C317.93,-354.5 100.8,-354.5 100.8,-354.5 100.8,-354.5 100.8,-288.21 100.8,-288.21"/>
<polygon fill="#42a5f5" stroke="#42a5f5" stroke-width="1.5" points="104.3,-288.21 100.8,-278.21 97.3,-288.21 104.3,-288.21"/>
</g>
<!-- uk -->
<g id="node6" class="node">
<title>uk</title>
<path fill="#42a5f5" stroke="black" d="M420.6,-275.7C420.6,-275.7 243,-275.7 243,-275.7 237,-275.7 231,-269.7 231,-263.7 231,-263.7 231,-237.3 231,-237.3 231,-231.3 237,-225.3 243,-225.3 243,-225.3 420.6,-225.3 420.6,-225.3 426.6,-225.3 432.6,-231.3 432.6,-237.3 432.6,-237.3 432.6,-263.7 432.6,-263.7 432.6,-269.7 426.6,-275.7 420.6,-275.7"/>
<text xml:space="preserve" text-anchor="middle" x="331.8" y="-253" font-family="Arial" font-size="10.00" fill="white">uk.m3u</text>
<text xml:space="preserve" text-anchor="middle" x="331.8" y="-241" font-family="Arial" font-size="10.00" fill="white">United Kingdom</text>
</g>
<!-- country_branch&#45;&gt;uk -->
<g id="edge5" class="edge">
<title>country_branch&#45;&gt;uk</title>
<path fill="none" stroke="#42a5f5" stroke-width="1.5" d="M458.4,-325.25C458.4,-294.49 458.4,-250.5 458.4,-250.5 458.4,-250.5 445.36,-250.5 445.36,-250.5"/>
<polygon fill="#42a5f5" stroke="#42a5f5" stroke-width="1.5" points="445.36,-247 435.36,-250.5 445.36,-254 445.36,-247"/>
</g>
<!-- de -->
<g id="node7" class="node">
<title>de</title>
<path fill="#42a5f5" stroke="black" d="M651.6,-275.7C651.6,-275.7 474,-275.7 474,-275.7 468,-275.7 462,-269.7 462,-263.7 462,-263.7 462,-237.3 462,-237.3 462,-231.3 468,-225.3 474,-225.3 474,-225.3 651.6,-225.3 651.6,-225.3 657.6,-225.3 663.6,-231.3 663.6,-237.3 663.6,-237.3 663.6,-263.7 663.6,-263.7 663.6,-269.7 657.6,-275.7 651.6,-275.7"/>
<text xml:space="preserve" text-anchor="middle" x="562.8" y="-253" font-family="Arial" font-size="10.00" fill="white">de.m3u</text>
<text xml:space="preserve" text-anchor="middle" x="562.8" y="-241" font-family="Arial" font-size="10.00" fill="white">Germany</text>
</g>
<!-- country_branch&#45;&gt;de -->
<g id="edge6" class="edge">
<title>country_branch&#45;&gt;de</title>
<path fill="none" stroke="#42a5f5" stroke-width="1.5" d="M562.8,-325.25C562.8,-325.25 562.8,-288.26 562.8,-288.26"/>
<polygon fill="#42a5f5" stroke="#42a5f5" stroke-width="1.5" points="566.3,-288.26 562.8,-278.26 559.3,-288.26 566.3,-288.26"/>
</g>
<!-- jp -->
<g id="node8" class="node">
<title>jp</title>
<path fill="#42a5f5" stroke="black" d="M882.6,-275.7C882.6,-275.7 705,-275.7 705,-275.7 699,-275.7 693,-269.7 693,-263.7 693,-263.7 693,-237.3 693,-237.3 693,-231.3 699,-225.3 705,-225.3 705,-225.3 882.6,-225.3 882.6,-225.3 888.6,-225.3 894.6,-231.3 894.6,-237.3 894.6,-237.3 894.6,-263.7 894.6,-263.7 894.6,-269.7 888.6,-275.7 882.6,-275.7"/>
<text xml:space="preserve" text-anchor="middle" x="793.8" y="-253" font-family="Arial" font-size="10.00" fill="white">jp.m3u</text>
<text xml:space="preserve" text-anchor="middle" x="793.8" y="-241" font-family="Arial" font-size="10.00" fill="white">Japan</text>
</g>
<!-- country_branch&#45;&gt;jp -->
<g id="edge7" class="edge">
<title>country_branch&#45;&gt;jp</title>
<path fill="none" stroke="#42a5f5" stroke-width="1.5" d="M667.2,-325.25C667.2,-294.49 667.2,-250.5 667.2,-250.5 667.2,-250.5 680.24,-250.5 680.24,-250.5"/>
<polygon fill="#42a5f5" stroke="#42a5f5" stroke-width="1.5" points="680.24,-254 690.24,-250.5 680.24,-247 680.24,-254"/>
</g>
<!-- eng -->
<g id="node9" class="node">
<title>eng</title>
<path fill="#66bb6a" stroke="black" d="M1113.6,-275.7C1113.6,-275.7 936,-275.7 936,-275.7 930,-275.7 924,-269.7 924,-263.7 924,-263.7 924,-237.3 924,-237.3 924,-231.3 930,-225.3 936,-225.3 936,-225.3 1113.6,-225.3 1113.6,-225.3 1119.6,-225.3 1125.6,-231.3 1125.6,-237.3 1125.6,-237.3 1125.6,-263.7 1125.6,-263.7 1125.6,-269.7 1119.6,-275.7 1113.6,-275.7"/>
<text xml:space="preserve" text-anchor="middle" x="1024.8" y="-253" font-family="Arial" font-size="10.00" fill="white">eng.m3u</text>
<text xml:space="preserve" text-anchor="middle" x="1024.8" y="-241" font-family="Arial" font-size="10.00" fill="white">English (2,292)</text>
</g>
<!-- language_branch&#45;&gt;eng -->
<g id="edge8" class="edge">
<title>language_branch&#45;&gt;eng</title>
<path fill="none" stroke="#66bb6a" stroke-width="1.5" d="M1262.75,-344.5C1161.23,-344.5 1024.8,-344.5 1024.8,-344.5 1024.8,-344.5 1024.8,-288.46 1024.8,-288.46"/>
<polygon fill="#66bb6a" stroke="#66bb6a" stroke-width="1.5" points="1028.3,-288.46 1024.8,-278.46 1021.3,-288.46 1028.3,-288.46"/>
</g>
<!-- rus -->
<g id="node10" class="node">
<title>rus</title>
<path fill="#66bb6a" stroke="black" d="M1344.6,-275.7C1344.6,-275.7 1167,-275.7 1167,-275.7 1161,-275.7 1155,-269.7 1155,-263.7 1155,-263.7 1155,-237.3 1155,-237.3 1155,-231.3 1161,-225.3 1167,-225.3 1167,-225.3 1344.6,-225.3 1344.6,-225.3 1350.6,-225.3 1356.6,-231.3 1356.6,-237.3 1356.6,-237.3 1356.6,-263.7 1356.6,-263.7 1356.6,-269.7 1350.6,-275.7 1344.6,-275.7"/>
<text xml:space="preserve" text-anchor="middle" x="1255.8" y="-253" font-family="Arial" font-size="10.00" fill="white">rus.m3u</text>
<text xml:space="preserve" text-anchor="middle" x="1255.8" y="-241" font-family="Arial" font-size="10.00" fill="white">Russian (429)</text>
</g>
<!-- language_branch&#45;&gt;rus -->
<g id="edge9" class="edge">
<title>language_branch&#45;&gt;rus</title>
<path fill="none" stroke="#66bb6a" stroke-width="1.5" d="M1309.7,-325.25C1309.7,-325.25 1309.7,-288.26 1309.7,-288.26"/>
<polygon fill="#66bb6a" stroke="#66bb6a" stroke-width="1.5" points="1313.2,-288.26 1309.7,-278.26 1306.2,-288.26 1313.2,-288.26"/>
</g>
<!-- fra -->
<g id="node11" class="node">
<title>fra</title>
<path fill="#66bb6a" stroke="black" d="M1575.6,-275.7C1575.6,-275.7 1398,-275.7 1398,-275.7 1392,-275.7 1386,-269.7 1386,-263.7 1386,-263.7 1386,-237.3 1386,-237.3 1386,-231.3 1392,-225.3 1398,-225.3 1398,-225.3 1575.6,-225.3 1575.6,-225.3 1581.6,-225.3 1587.6,-231.3 1587.6,-237.3 1587.6,-237.3 1587.6,-263.7 1587.6,-263.7 1587.6,-269.7 1581.6,-275.7 1575.6,-275.7"/>
<text xml:space="preserve" text-anchor="middle" x="1486.8" y="-253" font-family="Arial" font-size="10.00" fill="white">fra.m3u</text>
<text xml:space="preserve" text-anchor="middle" x="1486.8" y="-241" font-family="Arial" font-size="10.00" fill="white">French (422)</text>
</g>
<!-- language_branch&#45;&gt;fra -->
<g id="edge10" class="edge">
<title>language_branch&#45;&gt;fra</title>
<path fill="none" stroke="#66bb6a" stroke-width="1.5" d="M1432.4,-325.25C1432.4,-325.25 1432.4,-288.26 1432.4,-288.26"/>
<polygon fill="#66bb6a" stroke="#66bb6a" stroke-width="1.5" points="1435.9,-288.26 1432.4,-278.26 1428.9,-288.26 1435.9,-288.26"/>
</g>
<!-- ara -->
<g id="node12" class="node">
<title>ara</title>
<path fill="#66bb6a" stroke="black" d="M1806.6,-275.7C1806.6,-275.7 1629,-275.7 1629,-275.7 1623,-275.7 1617,-269.7 1617,-263.7 1617,-263.7 1617,-237.3 1617,-237.3 1617,-231.3 1623,-225.3 1629,-225.3 1629,-225.3 1806.6,-225.3 1806.6,-225.3 1812.6,-225.3 1818.6,-231.3 1818.6,-237.3 1818.6,-237.3 1818.6,-263.7 1818.6,-263.7 1818.6,-269.7 1812.6,-275.7 1806.6,-275.7"/>
<text xml:space="preserve" text-anchor="middle" x="1717.8" y="-253" font-family="Arial" font-size="10.00" fill="white">ara.m3u</text>
<text xml:space="preserve" text-anchor="middle" x="1717.8" y="-241" font-family="Arial" font-size="10.00" fill="white">Arabic (353)</text>
</g>
<!-- language_branch&#45;&gt;ara -->
<g id="edge11" class="edge">
<title>language_branch&#45;&gt;ara</title>
<path fill="none" stroke="#66bb6a" stroke-width="1.5" d="M1479.17,-344.5C1580.98,-344.5 1717.8,-344.5 1717.8,-344.5 1717.8,-344.5 1717.8,-288.46 1717.8,-288.46"/>
<polygon fill="#66bb6a" stroke="#66bb6a" stroke-width="1.5" points="1721.3,-288.46 1717.8,-278.46 1714.3,-288.46 1721.3,-288.46"/>
</g>
<!-- news -->
<g id="node13" class="node">
<title>news</title>
<path fill="#ffa726" stroke="black" d="M2037.6,-275.7C2037.6,-275.7 1860,-275.7 1860,-275.7 1854,-275.7 1848,-269.7 1848,-263.7 1848,-263.7 1848,-237.3 1848,-237.3 1848,-231.3 1854,-225.3 1860,-225.3 1860,-225.3 2037.6,-225.3 2037.6,-225.3 2043.6,-225.3 2049.6,-231.3 2049.6,-237.3 2049.6,-237.3 2049.6,-263.7 2049.6,-263.7 2049.6,-269.7 2043.6,-275.7 2037.6,-275.7"/>
<text xml:space="preserve" text-anchor="middle" x="1948.8" y="-253" font-family="Arial" font-size="10.00" fill="white">news.m3u</text>
<text xml:space="preserve" text-anchor="middle" x="1948.8" y="-241" font-family="Arial" font-size="10.00" fill="white">News (950)</text>
</g>
<!-- category_branch&#45;&gt;news -->
<g id="edge12" class="edge">
<title>category_branch&#45;&gt;news</title>
<path fill="none" stroke="#ffa726" stroke-width="1.5" d="M2075.4,-325.25C2075.4,-294.49 2075.4,-250.5 2075.4,-250.5 2075.4,-250.5 2062.36,-250.5 2062.36,-250.5"/>
<polygon fill="#ffa726" stroke="#ffa726" stroke-width="1.5" points="2062.36,-247 2052.36,-250.5 2062.36,-254 2062.36,-247"/>
</g>
<!-- music -->
<g id="node14" class="node">
<title>music</title>
<path fill="#ffa726" stroke="black" d="M2268.6,-275.7C2268.6,-275.7 2091,-275.7 2091,-275.7 2085,-275.7 2079,-269.7 2079,-263.7 2079,-263.7 2079,-237.3 2079,-237.3 2079,-231.3 2085,-225.3 2091,-225.3 2091,-225.3 2268.6,-225.3 2268.6,-225.3 2274.6,-225.3 2280.6,-231.3 2280.6,-237.3 2280.6,-237.3 2280.6,-263.7 2280.6,-263.7 2280.6,-269.7 2274.6,-275.7 2268.6,-275.7"/>
<text xml:space="preserve" text-anchor="middle" x="2179.8" y="-253" font-family="Arial" font-size="10.00" fill="white">music.m3u</text>
<text xml:space="preserve" text-anchor="middle" x="2179.8" y="-241" font-family="Arial" font-size="10.00" fill="white">Music (676)</text>
</g>
<!-- category_branch&#45;&gt;music -->
<g id="edge13" class="edge">
<title>category_branch&#45;&gt;music</title>
<path fill="none" stroke="#ffa726" stroke-width="1.5" d="M2179.8,-325.25C2179.8,-325.25 2179.8,-288.26 2179.8,-288.26"/>
<polygon fill="#ffa726" stroke="#ffa726" stroke-width="1.5" points="2183.3,-288.26 2179.8,-278.26 2176.3,-288.26 2183.3,-288.26"/>
</g>
<!-- ent -->
<g id="node15" class="node">
<title>ent</title>
<path fill="#ffa726" stroke="black" d="M2499.6,-275.7C2499.6,-275.7 2322,-275.7 2322,-275.7 2316,-275.7 2310,-269.7 2310,-263.7 2310,-263.7 2310,-237.3 2310,-237.3 2310,-231.3 2316,-225.3 2322,-225.3 2322,-225.3 2499.6,-225.3 2499.6,-225.3 2505.6,-225.3 2511.6,-231.3 2511.6,-237.3 2511.6,-237.3 2511.6,-263.7 2511.6,-263.7 2511.6,-269.7 2505.6,-275.7 2499.6,-275.7"/>
<text xml:space="preserve" text-anchor="middle" x="2410.8" y="-253" font-family="Arial" font-size="10.00" fill="white">entertainment.m3u</text>
<text xml:space="preserve" text-anchor="middle" x="2410.8" y="-241" font-family="Arial" font-size="10.00" fill="white">Entertainment (634)</text>
</g>
<!-- category_branch&#45;&gt;ent -->
<g id="edge14" class="edge">
<title>category_branch&#45;&gt;ent</title>
<path fill="none" stroke="#ffa726" stroke-width="1.5" d="M2284.2,-325.25C2284.2,-294.49 2284.2,-250.5 2284.2,-250.5 2284.2,-250.5 2297.24,-250.5 2297.24,-250.5"/>
<polygon fill="#ffa726" stroke="#ffa726" stroke-width="1.5" points="2297.24,-254 2307.24,-250.5 2297.24,-247 2297.24,-254"/>
</g>
<!-- sports -->
<g id="node16" class="node">
<title>sports</title>
<path fill="#ffa726" stroke="black" d="M2730.6,-275.7C2730.6,-275.7 2553,-275.7 2553,-275.7 2547,-275.7 2541,-269.7 2541,-263.7 2541,-263.7 2541,-237.3 2541,-237.3 2541,-231.3 2547,-225.3 2553,-225.3 2553,-225.3 2730.6,-225.3 2730.6,-225.3 2736.6,-225.3 2742.6,-231.3 2742.6,-237.3 2742.6,-237.3 2742.6,-263.7 2742.6,-263.7 2742.6,-269.7 2736.6,-275.7 2730.6,-275.7"/>
<text xml:space="preserve" text-anchor="middle" x="2641.8" y="-253" font-family="Arial" font-size="10.00" fill="white">sports.m3u</text>
<text xml:space="preserve" text-anchor="middle" x="2641.8" y="-241" font-family="Arial" font-size="10.00" fill="white">Sports (373)</text>
</g>
<!-- category_branch&#45;&gt;sports -->
<g id="edge15" class="edge">
<title>category_branch&#45;&gt;sports</title>
<path fill="none" stroke="#ffa726" stroke-width="1.5" d="M2288.12,-354.5C2424.67,-354.5 2641.8,-354.5 2641.8,-354.5 2641.8,-354.5 2641.8,-288.21 2641.8,-288.21"/>
<polygon fill="#ffa726" stroke="#ffa726" stroke-width="1.5" points="2645.3,-288.21 2641.8,-278.21 2638.3,-288.21 2645.3,-288.21"/>
</g>
<!-- index_all -->
<g id="node17" class="node">
<title>index_all</title>
<path fill="#9c27b0" stroke="black" d="M1138.8,-175.3C1138.8,-175.3 910.8,-175.3 910.8,-175.3 904.8,-175.3 898.8,-169.3 898.8,-163.3 898.8,-163.3 898.8,-136.9 898.8,-136.9 898.8,-130.9 904.8,-124.9 910.8,-124.9 910.8,-124.9 1138.8,-124.9 1138.8,-124.9 1144.8,-124.9 1150.8,-130.9 1150.8,-136.9 1150.8,-136.9 1150.8,-163.3 1150.8,-163.3 1150.8,-169.3 1144.8,-175.3 1138.8,-175.3"/>
<text xml:space="preserve" text-anchor="middle" x="1024.8" y="-146.4" font-family="Arial Bold" font-size="11.00" fill="white">index.m3u &#45; All Channels</text>
</g>
<!-- us&#45;&gt;index_all -->
<g id="edge16" class="edge">
<title>us&#45;&gt;index_all</title>
<path fill="none" stroke="#9c27b0" stroke-dasharray="5,2" d="M100.8,-225.01C100.8,-195.38 100.8,-150.5 100.8,-150.5 100.8,-150.5 887.23,-150.5 887.23,-150.5"/>
<polygon fill="#9c27b0" stroke="#9c27b0" points="887.23,-154 897.23,-150.5 887.23,-147 887.23,-154"/>
</g>
<!-- eng&#45;&gt;index_all -->
<g id="edge17" class="edge">
<title>eng&#45;&gt;index_all</title>
<path fill="none" stroke="#9c27b0" stroke-dasharray="5,2" d="M1024.8,-224.91C1024.8,-224.91 1024.8,-187.16 1024.8,-187.16"/>
<polygon fill="#9c27b0" stroke="#9c27b0" points="1028.3,-187.16 1024.8,-177.16 1021.3,-187.16 1028.3,-187.16"/>
</g>
<!-- news&#45;&gt;index_all -->
<g id="edge18" class="edge">
<title>news&#45;&gt;index_all</title>
<path fill="none" stroke="#9c27b0" stroke-dasharray="5,2" d="M1948.8,-225.01C1948.8,-195.38 1948.8,-150.5 1948.8,-150.5 1948.8,-150.5 1162.37,-150.5 1162.37,-150.5"/>
<polygon fill="#9c27b0" stroke="#9c27b0" points="1162.37,-147 1152.37,-150.5 1162.37,-154 1162.37,-147"/>
</g>
<!-- index_cat -->
<g id="node18" class="node">
<title>index_cat</title>
<path fill="#9c27b0" stroke="black" d="M998.8,-74.9C998.8,-74.9 770.8,-74.9 770.8,-74.9 764.8,-74.9 758.8,-68.9 758.8,-62.9 758.8,-62.9 758.8,-36.5 758.8,-36.5 758.8,-30.5 764.8,-24.5 770.8,-24.5 770.8,-24.5 998.8,-24.5 998.8,-24.5 1004.8,-24.5 1010.8,-30.5 1010.8,-36.5 1010.8,-36.5 1010.8,-62.9 1010.8,-62.9 1010.8,-68.9 1004.8,-74.9 998.8,-74.9"/>
<text xml:space="preserve" text-anchor="middle" x="884.8" y="-46" font-family="Arial Bold" font-size="11.00" fill="white">index.category.m3u &#45; Grouped by Category</text>
</g>
<!-- index_all&#45;&gt;index_cat -->
<g id="edge19" class="edge">
<title>index_all&#45;&gt;index_cat</title>
<path fill="none" stroke="#9c27b0" stroke-width="1.5" d="M954.8,-124.51C954.8,-124.51 954.8,-87.52 954.8,-87.52"/>
<polygon fill="#9c27b0" stroke="#9c27b0" stroke-width="1.5" points="958.3,-87.52 954.8,-77.52 951.3,-87.52 958.3,-87.52"/>
</g>
<!-- index_lang -->
<g id="node19" class="node">
<title>index_lang</title>
<path fill="#9c27b0" stroke="black" d="M1279.8,-74.9C1279.8,-74.9 1051.8,-74.9 1051.8,-74.9 1045.8,-74.9 1039.8,-68.9 1039.8,-62.9 1039.8,-62.9 1039.8,-36.5 1039.8,-36.5 1039.8,-30.5 1045.8,-24.5 1051.8,-24.5 1051.8,-24.5 1279.8,-24.5 1279.8,-24.5 1285.8,-24.5 1291.8,-30.5 1291.8,-36.5 1291.8,-36.5 1291.8,-62.9 1291.8,-62.9 1291.8,-68.9 1285.8,-74.9 1279.8,-74.9"/>
<text xml:space="preserve" text-anchor="middle" x="1165.8" y="-46" font-family="Arial Bold" font-size="11.00" fill="white">index.language.m3u &#45; Grouped by Language</text>
</g>
<!-- index_all&#45;&gt;index_lang -->
<g id="edge20" class="edge">
<title>index_all&#45;&gt;index_lang</title>
<path fill="none" stroke="#9c27b0" stroke-width="1.5" d="M1095.3,-124.51C1095.3,-124.51 1095.3,-87.52 1095.3,-87.52"/>
<polygon fill="#9c27b0" stroke="#9c27b0" stroke-width="1.5" points="1098.8,-87.52 1095.3,-77.52 1091.8,-87.52 1098.8,-87.52"/>
</g>
</g>
</svg>
