<?xml version="1.0" encoding="UTF-8" standalone="no"?>
<!DOCTYPE svg PUBLIC "-//W3C//DTD SVG 1.1//EN"
 "http://www.w3.org/Graphics/SVG/1.1/DTD/svg11.dtd">
<!-- Generated by graphviz version 14.1.2 (0)
 -->
<!-- Title: G Pages: 1 -->
<svg width="1266pt" height="141pt"
 viewBox="0.00 0.00 1266.00 141.00" xmlns="http://www.w3.org/2000/svg" xmlns:xlink="http://www.w3.org/1999/xlink">
<g id="graph0" class="graph" transform="scale(1 1) rotate(0) translate(4 136.5)">
<title>G</title>
<polygon fill="white" stroke="none" points="-4,4 -4,-136.5 1262.25,-136.5 1262.25,4 -4,4"/>
<!-- anti_header -->
<g id="node1" class="node">
<title>anti_header</title>
<polygon fill="#f44336" stroke="black" points="133,-118 0,-118 0,-81.5 133,-81.5 133,-118"/>
<text xml:space="preserve" text-anchor="middle" x="66.5" y="-102.6" font-family="Arial" font-size="12.00" fill="white">What LLMs Do Wrong</text>
<text xml:space="preserve" text-anchor="middle" x="66.5" y="-88.35" font-family="Arial" font-size="12.00" fill="white">(Anti&#45;Patterns)</text>
</g>
<!-- anti1 -->
<g id="node2" class="node">
<title>anti1</title>
<polygon fill="none" stroke="black" points="314,-124.5 178,-124.5 178,-75 314,-75 314,-124.5"/>
<text xml:space="preserve" text-anchor="middle" x="246" y="-111.95" font-family="Arial" font-size="9.00">Hidden Assumptions</text>
<text xml:space="preserve" text-anchor="middle" x="246" y="-91.45" font-family="Arial" font-size="9.00">Picks interpretation silently</text>
<text xml:space="preserve" text-anchor="middle" x="246" y="-80.95" font-family="Arial" font-size="9.00">without asking for clarification</text>
</g>
<!-- anti_header&#45;&gt;anti1 -->
<g id="edge1" class="edge">
<title>anti_header&#45;&gt;anti1</title>
<path fill="none" stroke="black" d="M133.34,-99.75C133.34,-99.75 166.09,-99.75 166.09,-99.75"/>
<polygon fill="black" stroke="black" points="166.09,-103.25 176.09,-99.75 166.09,-96.25 166.09,-103.25"/>
</g>
<!-- anti2 -->
<g id="node3" class="node">
<title>anti2</title>
<polygon fill="none" stroke="black" points="515,-129.5 368.5,-129.5 368.5,-80 515,-80 515,-129.5"/>
<text xml:space="preserve" text-anchor="middle" x="441.75" y="-116.95" font-family="Arial" font-size="9.00">Over&#45;Abstraction</text>
<text xml:space="preserve" text-anchor="middle" x="441.75" y="-96.45" font-family="Arial" font-size="9.00">Creates strategy patterns,</text>
<text xml:space="preserve" text-anchor="middle" x="441.75" y="-85.95" font-family="Arial" font-size="9.00">abstract classes for simple tasks</text>
</g>
<!-- anti1&#45;&gt;anti2 -->
<g id="edge2" class="edge">
<title>anti1&#45;&gt;anti2</title>
<path fill="none" stroke="black" d="M314.46,-102.25C314.46,-102.25 356.82,-102.25 356.82,-102.25"/>
<polygon fill="black" stroke="black" points="356.82,-105.75 366.82,-102.25 356.82,-98.75 356.82,-105.75"/>
</g>
<!-- corr1 -->
<g id="node8" class="node">
<title>corr1</title>
<polygon fill="none" stroke="black" points="505.62,-49.5 377.88,-49.5 377.88,0 505.62,0 505.62,-49.5"/>
<text xml:space="preserve" text-anchor="middle" x="441.75" y="-36.95" font-family="Arial" font-size="9.00">Surface Assumptions</text>
<text xml:space="preserve" text-anchor="middle" x="441.75" y="-16.45" font-family="Arial" font-size="9.00">List assumptions explicitly,</text>
<text xml:space="preserve" text-anchor="middle" x="441.75" y="-5.95" font-family="Arial" font-size="9.00">ask clarifying questions first</text>
</g>
<!-- anti1&#45;&gt;corr1 -->
<g id="edge11" class="edge">
<title>anti1&#45;&gt;corr1</title>
<path fill="none" stroke="black" d="M246.25,-74.65C246.25,-60.55 246.25,-45.75 246.25,-45.75 246.25,-45.75 365.95,-45.75 365.95,-45.75"/>
<polygon fill="black" stroke="black" points="365.95,-49.25 375.95,-45.75 365.95,-42.25 365.95,-49.25"/>
<text xml:space="preserve" text-anchor="middle" x="341.25" y="-75.25" font-family="Arial" font-size="10.00">fix</text>
</g>
<!-- anti3 -->
<g id="node4" class="node">
<title>anti3</title>
<polygon fill="none" stroke="black" points="716,-130.5 569.5,-130.5 569.5,-81 716,-81 716,-130.5"/>
<text xml:space="preserve" text-anchor="middle" x="642.75" y="-117.95" font-family="Arial" font-size="9.00">Drive&#45;by Refactoring</text>
<text xml:space="preserve" text-anchor="middle" x="642.75" y="-97.45" font-family="Arial" font-size="9.00">Reformats code, adds type hints</text>
<text xml:space="preserve" text-anchor="middle" x="642.75" y="-86.95" font-family="Arial" font-size="9.00">while fixing unrelated bugs</text>
</g>
<!-- anti2&#45;&gt;anti3 -->
<g id="edge3" class="edge">
<title>anti2&#45;&gt;anti3</title>
<path fill="none" stroke="black" d="M515.45,-105.25C515.45,-105.25 557.54,-105.25 557.54,-105.25"/>
<polygon fill="black" stroke="black" points="557.54,-108.75 567.54,-105.25 557.54,-101.75 557.54,-108.75"/>
</g>
<!-- corr2 -->
<g id="node9" class="node">
<title>corr2</title>
<polygon fill="none" stroke="black" points="709.25,-50.5 576.25,-50.5 576.25,-1 709.25,-1 709.25,-50.5"/>
<text xml:space="preserve" text-anchor="middle" x="642.75" y="-37.95" font-family="Arial" font-size="9.00">Simplest Solution</text>
<text xml:space="preserve" text-anchor="middle" x="642.75" y="-17.45" font-family="Arial" font-size="9.00">One function until complexity</text>
<text xml:space="preserve" text-anchor="middle" x="642.75" y="-6.95" font-family="Arial" font-size="9.00">is actually needed</text>
</g>
<!-- anti2&#45;&gt;corr2 -->
<g id="edge12" class="edge">
<title>anti2&#45;&gt;corr2</title>
<path fill="none" stroke="black" d="M510.25,-79.77C510.25,-59.18 510.25,-33.33 510.25,-33.33 510.25,-33.33 564.6,-33.33 564.6,-33.33"/>
<polygon fill="black" stroke="black" points="564.6,-36.83 574.6,-33.33 564.6,-29.83 564.6,-36.83"/>
<text xml:space="preserve" text-anchor="middle" x="542.25" y="-76.25" font-family="Arial" font-size="10.00">fix</text>
</g>
<!-- anti4 -->
<g id="node5" class="node">
<title>anti4</title>
<polygon fill="none" stroke="black" points="908,-131.5 770.5,-131.5 770.5,-82 908,-82 908,-131.5"/>
<text xml:space="preserve" text-anchor="middle" x="839.25" y="-118.95" font-family="Arial" font-size="9.00">Speculative Features</text>
<text xml:space="preserve" text-anchor="middle" x="839.25" y="-98.45" font-family="Arial" font-size="9.00">Adds caching, validation,</text>
<text xml:space="preserve" text-anchor="middle" x="839.25" y="-87.95" font-family="Arial" font-size="9.00">notifications nobody asked for</text>
</g>
<!-- anti3&#45;&gt;anti4 -->
<g id="edge4" class="edge">
<title>anti3&#45;&gt;anti4</title>
<path fill="none" stroke="black" d="M716.48,-114.33C716.48,-114.33 758.79,-114.33 758.79,-114.33"/>
<polygon fill="black" stroke="black" points="758.79,-117.83 768.79,-114.33 758.79,-110.83 758.79,-117.83"/>
</g>
<!-- corr3 -->
<g id="node10" class="node">
<title>corr3</title>
<polygon fill="none" stroke="black" points="898.25,-51.5 780.25,-51.5 780.25,-2 898.25,-2 898.25,-51.5"/>
<text xml:space="preserve" text-anchor="middle" x="839.25" y="-38.95" font-family="Arial" font-size="9.00">Surgical Changes</text>
<text xml:space="preserve" text-anchor="middle" x="839.25" y="-18.45" font-family="Arial" font-size="9.00">Only change lines that fix</text>
<text xml:space="preserve" text-anchor="middle" x="839.25" y="-7.95" font-family="Arial" font-size="9.00">the reported issue</text>
</g>
<!-- anti3&#45;&gt;corr3 -->
<g id="edge13" class="edge">
<title>anti3&#45;&gt;corr3</title>
<path fill="none" stroke="black" d="M716.32,-98.17C731.64,-98.17 743.25,-98.17 743.25,-98.17 743.25,-98.17 743.25,-34.33 743.25,-34.33 743.25,-34.33 768.3,-34.33 768.3,-34.33"/>
<polygon fill="black" stroke="black" points="768.3,-37.83 778.3,-34.33 768.3,-30.83 768.3,-37.83"/>
<text xml:space="preserve" text-anchor="middle" x="743.25" y="-77.25" font-family="Arial" font-size="10.00">fix</text>
</g>
<!-- anti5 -->
<g id="node6" class="node">
<title>anti5</title>
<polygon fill="none" stroke="black" points="1086.5,-132.5 973.75,-132.5 973.75,-83 1086.5,-83 1086.5,-132.5"/>
<text xml:space="preserve" text-anchor="middle" x="1030.12" y="-119.95" font-family="Arial" font-size="9.00">Vague Goals</text>
<text xml:space="preserve" text-anchor="middle" x="1030.12" y="-99.45" font-family="Arial" font-size="9.00">&quot;I&#39;ll review and improve&quot;</text>
<text xml:space="preserve" text-anchor="middle" x="1030.12" y="-88.95" font-family="Arial" font-size="9.00">with no success criteria</text>
</g>
<!-- anti4&#45;&gt;anti5 -->
<g id="edge5" class="edge">
<title>anti4&#45;&gt;anti5</title>
<path fill="none" stroke="black" d="M908.43,-115.33C908.43,-115.33 961.89,-115.33 961.89,-115.33"/>
<polygon fill="black" stroke="black" points="961.89,-118.83 971.89,-115.33 961.89,-111.83 961.89,-118.83"/>
</g>
<!-- corr4 -->
<g id="node11" class="node">
<title>corr4</title>
<polygon fill="none" stroke="black" points="1097.75,-53.5 962.5,-53.5 962.5,-4 1097.75,-4 1097.75,-53.5"/>
<text xml:space="preserve" text-anchor="middle" x="1030.12" y="-40.95" font-family="Arial" font-size="9.00">Just What Was Asked</text>
<text xml:space="preserve" text-anchor="middle" x="1030.12" y="-20.45" font-family="Arial" font-size="9.00">Implement exactly requested,</text>
<text xml:space="preserve" text-anchor="middle" x="1030.12" y="-9.95" font-family="Arial" font-size="9.00">add features when needed</text>
</g>
<!-- anti4&#45;&gt;corr4 -->
<g id="edge14" class="edge">
<title>anti4&#45;&gt;corr4</title>
<path fill="none" stroke="black" d="M908.28,-99.17C938.95,-99.17 968.25,-99.17 968.25,-99.17 968.25,-99.17 968.25,-65.29 968.25,-65.29"/>
<polygon fill="black" stroke="black" points="971.75,-65.29 968.25,-55.29 964.75,-65.29 971.75,-65.29"/>
<text xml:space="preserve" text-anchor="middle" x="935.25" y="-78.25" font-family="Arial" font-size="10.00">fix</text>
</g>
<!-- corr5 -->
<g id="node12" class="node">
<title>corr5</title>
<polygon fill="none" stroke="black" points="1258.25,-92.5 1152.25,-92.5 1152.25,-43 1258.25,-43 1258.25,-92.5"/>
<text xml:space="preserve" text-anchor="middle" x="1205.25" y="-79.95" font-family="Arial" font-size="9.00">Verifiable Goals</text>
<text xml:space="preserve" text-anchor="middle" x="1205.25" y="-59.45" font-family="Arial" font-size="9.00">&quot;Write test for bug X &#45;&gt;</text>
<text xml:space="preserve" text-anchor="middle" x="1205.25" y="-48.95" font-family="Arial" font-size="9.00">make it pass &#45;&gt; verify&quot;</text>
</g>
<!-- anti5&#45;&gt;corr5 -->
<g id="edge15" class="edge">
<title>anti5&#45;&gt;corr5</title>
<path fill="none" stroke="black" d="M1086.98,-87.75C1086.98,-87.75 1140.43,-87.75 1140.43,-87.75"/>
<polygon fill="black" stroke="black" points="1140.43,-91.25 1150.43,-87.75 1140.43,-84.25 1140.43,-91.25"/>
<text xml:space="preserve" text-anchor="middle" x="1125" y="-102.25" font-family="Arial" font-size="10.00">fix</text>
</g>
<!-- correct_header -->
<g id="node7" class="node">
<title>correct_header</title>
<polygon fill="#4caf50" stroke="black" points="311.38,-42 180.62,-42 180.62,-5.5 311.38,-5.5 311.38,-42"/>
<text xml:space="preserve" text-anchor="middle" x="246" y="-26.6" font-family="Arial" font-size="12.00">What Should Happen</text>
<text xml:space="preserve" text-anchor="middle" x="246" y="-12.35" font-family="Arial" font-size="12.00">(Correct Approach)</text>
</g>
<!-- correct_header&#45;&gt;corr1 -->
<g id="edge6" class="edge">
<title>correct_header&#45;&gt;corr1</title>
<path fill="none" stroke="black" d="M311.73,-23.75C311.73,-23.75 366.01,-23.75 366.01,-23.75"/>
<polygon fill="black" stroke="black" points="366.01,-27.25 376.01,-23.75 366.01,-20.25 366.01,-27.25"/>
</g>
<!-- corr1&#45;&gt;corr2 -->
<g id="edge7" class="edge">
<title>corr1&#45;&gt;corr2</title>
<path fill="none" stroke="black" d="M505.9,-17.17C505.9,-17.17 564.58,-17.17 564.58,-17.17"/>
<polygon fill="black" stroke="black" points="564.58,-20.67 574.58,-17.17 564.58,-13.67 564.58,-20.67"/>
</g>
<!-- corr2&#45;&gt;corr3 -->
<g id="edge8" class="edge">
<title>corr2&#45;&gt;corr3</title>
<path fill="none" stroke="black" d="M709.55,-18.17C709.55,-18.17 768.37,-18.17 768.37,-18.17"/>
<polygon fill="black" stroke="black" points="768.37,-21.67 778.37,-18.17 768.37,-14.67 768.37,-21.67"/>
</g>
<!-- corr3&#45;&gt;corr4 -->
<g id="edge9" class="edge">
<title>corr3&#45;&gt;corr4</title>
<path fill="none" stroke="black" d="M898.6,-27.75C898.6,-27.75 950.63,-27.75 950.63,-27.75"/>
<polygon fill="black" stroke="black" points="950.63,-31.25 960.63,-27.75 950.63,-24.25 950.63,-31.25"/>
</g>
<!-- corr4&#45;&gt;corr5 -->
<g id="edge10" class="edge">
<title>corr4&#45;&gt;corr5</title>
<path fill="none" stroke="black" d="M1098.08,-48.25C1098.08,-48.25 1140.47,-48.25 1140.47,-48.25"/>
<polygon fill="black" stroke="black" points="1140.47,-51.75 1150.47,-48.25 1140.47,-44.75 1140.47,-51.75"/>
</g>
</g>
</svg>
