<?xml version="1.0" encoding="UTF-8" standalone="no"?>
<!DOCTYPE svg PUBLIC "-//W3C//DTD SVG 1.1//EN"
 "http://www.w3.org/Graphics/SVG/1.1/DTD/svg11.dtd">
<!-- Generated by graphviz version 14.1.2 (0)
 -->
<!-- Title: G Pages: 1 -->
<svg width="659pt" height="425pt"
 viewBox="0.00 0.00 659.00 425.00" xmlns="http://www.w3.org/2000/svg" xmlns:xlink="http://www.w3.org/1999/xlink">
<g id="graph0" class="graph" transform="scale(1 1) rotate(0) translate(4 421)">
<title>G</title>
<polygon fill="white" stroke="none" points="-4,4 -4,-421 654.75,-421 654.75,4 -4,4"/>
<!-- title -->
<g id="node1" class="node">
<title>title</title>
<polygon fill="#9c27b0" stroke="black" points="411.75,-417 238.25,-417 238.25,-377.5 411.75,-377.5 411.75,-417"/>
<text xml:space="preserve" text-anchor="middle" x="325" y="-399.7" font-family="Arial" font-size="14.00" fill="white">Karpathy&#39;s Four Principles</text>
<text xml:space="preserve" text-anchor="middle" x="325" y="-383.95" font-family="Arial" font-size="14.00" fill="white">for Better LLM Coding</text>
</g>
<!-- problem -->
<g id="node2" class="node">
<title>problem</title>
<polygon fill="#f44336" stroke="black" points="379.12,-334.5 270.88,-334.5 270.88,-254.5 379.12,-254.5 379.12,-334.5"/>
<text xml:space="preserve" text-anchor="middle" x="325" y="-321" font-family="Arial" font-size="10.00" fill="white">LLM Coding Pitfalls</text>
<text xml:space="preserve" text-anchor="middle" x="325" y="-297" font-family="Arial" font-size="10.00" fill="white">&#45; Wrong assumptions</text>
<text xml:space="preserve" text-anchor="middle" x="325" y="-285" font-family="Arial" font-size="10.00" fill="white">&#45; Overcomplication</text>
<text xml:space="preserve" text-anchor="middle" x="325" y="-273" font-family="Arial" font-size="10.00" fill="white">&#45; Orthogonal edits</text>
<text xml:space="preserve" text-anchor="middle" x="325" y="-261" font-family="Arial" font-size="10.00" fill="white">&#45; No verifiable goals</text>
</g>
<!-- title&#45;&gt;problem -->
<g id="edge13" class="edge">
<title>title&#45;&gt;problem</title>
<path fill="none" stroke="black" d="M325,-377.44C325,-377.44 325,-346.18 325,-346.18"/>
<polygon fill="black" stroke="black" points="328.5,-346.18 325,-336.18 321.5,-346.18 328.5,-346.18"/>
</g>
<!-- think_header -->
<g id="node3" class="node">
<title>think_header</title>
<polygon fill="#2196f3" stroke="black" points="158.5,-211.5 19.5,-211.5 19.5,-175.5 158.5,-175.5 158.5,-211.5"/>
<text xml:space="preserve" text-anchor="middle" x="89" y="-189.22" font-family="Arial" font-size="12.00" fill="white">1. Think Before Coding</text>
</g>
<!-- problem&#45;&gt;think_header -->
<g id="edge1" class="edge">
<title>problem&#45;&gt;think_header</title>
<path fill="none" stroke="black" d="M270.56,-295C200.86,-295 89,-295 89,-295 89,-295 89,-223.16 89,-223.16"/>
<polygon fill="black" stroke="black" points="92.5,-223.16 89,-213.16 85.5,-223.16 92.5,-223.16"/>
</g>
<!-- simple_header -->
<g id="node6" class="node">
<title>simple_header</title>
<polygon fill="#2196f3" stroke="black" points="306.38,-211.5 199.62,-211.5 199.62,-175.5 306.38,-175.5 306.38,-211.5"/>
<text xml:space="preserve" text-anchor="middle" x="253" y="-189.22" font-family="Arial" font-size="12.00" fill="white">2. Simplicity First</text>
</g>
<!-- problem&#45;&gt;simple_header -->
<g id="edge4" class="edge">
<title>problem&#45;&gt;simple_header</title>
<path fill="none" stroke="black" d="M288.62,-254C288.62,-254 288.62,-223.38 288.62,-223.38"/>
<polygon fill="black" stroke="black" points="292.13,-223.38 288.63,-213.38 285.13,-223.38 292.13,-223.38"/>
</g>
<!-- surgical_header -->
<g id="node9" class="node">
<title>surgical_header</title>
<polygon fill="#2196f3" stroke="black" points="468.38,-211.5 343.62,-211.5 343.62,-175.5 468.38,-175.5 468.38,-211.5"/>
<text xml:space="preserve" text-anchor="middle" x="406" y="-189.22" font-family="Arial" font-size="12.00" fill="white">3. Surgical Changes</text>
</g>
<!-- problem&#45;&gt;surgical_header -->
<g id="edge7" class="edge">
<title>problem&#45;&gt;surgical_header</title>
<path fill="none" stroke="black" d="M361.38,-254C361.38,-254 361.38,-223.38 361.38,-223.38"/>
<polygon fill="black" stroke="black" points="364.88,-223.38 361.38,-213.38 357.88,-223.38 364.88,-223.38"/>
</g>
<!-- goal_header -->
<g id="node12" class="node">
<title>goal_header</title>
<polygon fill="#2196f3" stroke="black" points="650.75,-211.5 501.25,-211.5 501.25,-175.5 650.75,-175.5 650.75,-211.5"/>
<text xml:space="preserve" text-anchor="middle" x="576" y="-189.22" font-family="Arial" font-size="12.00" fill="white">4. Goal&#45;Driven Execution</text>
</g>
<!-- problem&#45;&gt;goal_header -->
<g id="edge10" class="edge">
<title>problem&#45;&gt;goal_header</title>
<path fill="none" stroke="black" d="M379.46,-295C453.28,-295 576,-295 576,-295 576,-295 576,-223.16 576,-223.16"/>
<polygon fill="black" stroke="black" points="579.5,-223.16 576,-213.16 572.5,-223.16 579.5,-223.16"/>
</g>
<!-- think_details -->
<g id="node4" class="node">
<title>think_details</title>
<polygon fill="none" stroke="black" points="148,-132.5 0,-132.5 0,-82.5 148,-82.5 148,-132.5"/>
<text xml:space="preserve" text-anchor="middle" x="74" y="-119.95" font-family="Arial" font-size="9.00">&#45; State assumptions explicitly</text>
<text xml:space="preserve" text-anchor="middle" x="74" y="-109.45" font-family="Arial" font-size="9.00">&#45; Present multiple interpretations</text>
<text xml:space="preserve" text-anchor="middle" x="74" y="-98.95" font-family="Arial" font-size="9.00">&#45; Push back when warranted</text>
<text xml:space="preserve" text-anchor="middle" x="74" y="-88.45" font-family="Arial" font-size="9.00">&#45; Stop when confused</text>
</g>
<!-- think_header&#45;&gt;think_details -->
<g id="edge2" class="edge">
<title>think_header&#45;&gt;think_details</title>
<path fill="none" stroke="black" d="M83.75,-175.26C83.75,-175.26 83.75,-144.4 83.75,-144.4"/>
<polygon fill="black" stroke="black" points="87.25,-144.4 83.75,-134.4 80.25,-144.4 87.25,-144.4"/>
</g>
<!-- think_addresses -->
<g id="node5" class="node">
<title>think_addresses</title>
<polygon fill="#ff9800" stroke="black" points="123.62,-39.5 24.38,-39.5 24.38,0 123.62,0 123.62,-39.5"/>
<text xml:space="preserve" text-anchor="middle" x="74" y="-26.95" font-family="Arial" font-size="9.00">Addresses:</text>
<text xml:space="preserve" text-anchor="middle" x="74" y="-16.45" font-family="Arial" font-size="9.00">Wrong assumptions,</text>
<text xml:space="preserve" text-anchor="middle" x="74" y="-5.95" font-family="Arial" font-size="9.00">hidden confusion</text>
</g>
<!-- think_details&#45;&gt;think_addresses -->
<g id="edge3" class="edge">
<title>think_details&#45;&gt;think_addresses</title>
<path fill="none" stroke="black" d="M74,-82.12C74,-82.12 74,-51.3 74,-51.3"/>
<polygon fill="black" stroke="black" points="77.5,-51.3 74,-41.3 70.5,-51.3 77.5,-51.3"/>
</g>
<!-- simple_details -->
<g id="node7" class="node">
<title>simple_details</title>
<polygon fill="none" stroke="black" points="325,-132.5 177,-132.5 177,-82.5 325,-82.5 325,-132.5"/>
<text xml:space="preserve" text-anchor="middle" x="251" y="-119.95" font-family="Arial" font-size="9.00">&#45; No features beyond request</text>
<text xml:space="preserve" text-anchor="middle" x="251" y="-109.45" font-family="Arial" font-size="9.00">&#45; No abstractions for single&#45;use</text>
<text xml:space="preserve" text-anchor="middle" x="251" y="-98.95" font-family="Arial" font-size="9.00">&#45; No speculative flexibility</text>
<text xml:space="preserve" text-anchor="middle" x="251" y="-88.45" font-family="Arial" font-size="9.00">&#45; If 200 lines could be 50, rewrite</text>
</g>
<!-- simple_header&#45;&gt;simple_details -->
<g id="edge5" class="edge">
<title>simple_header&#45;&gt;simple_details</title>
<path fill="none" stroke="black" d="M253,-175.26C253,-175.26 253,-144.4 253,-144.4"/>
<polygon fill="black" stroke="black" points="256.5,-144.4 253,-134.4 249.5,-144.4 256.5,-144.4"/>
</g>
<!-- simple_addresses -->
<g id="node8" class="node">
<title>simple_addresses</title>
<polygon fill="#ff9800" stroke="black" points="300.25,-39.5 201.75,-39.5 201.75,0 300.25,0 300.25,-39.5"/>
<text xml:space="preserve" text-anchor="middle" x="251" y="-26.95" font-family="Arial" font-size="9.00">Addresses:</text>
<text xml:space="preserve" text-anchor="middle" x="251" y="-16.45" font-family="Arial" font-size="9.00">Overcomplication,</text>
<text xml:space="preserve" text-anchor="middle" x="251" y="-5.95" font-family="Arial" font-size="9.00">bloated abstractions</text>
</g>
<!-- simple_details&#45;&gt;simple_addresses -->
<g id="edge6" class="edge">
<title>simple_details&#45;&gt;simple_addresses</title>
<path fill="none" stroke="black" d="M251,-82.12C251,-82.12 251,-51.3 251,-51.3"/>
<polygon fill="black" stroke="black" points="254.5,-51.3 251,-41.3 247.5,-51.3 254.5,-51.3"/>
</g>
<!-- surgical_details -->
<g id="node10" class="node">
<title>surgical_details</title>
<polygon fill="none" stroke="black" points="480.12,-132.5 353.88,-132.5 353.88,-82.5 480.12,-82.5 480.12,-132.5"/>
<text xml:space="preserve" text-anchor="middle" x="417" y="-119.95" font-family="Arial" font-size="9.00">&#45; Touch only what you must</text>
<text xml:space="preserve" text-anchor="middle" x="417" y="-109.45" font-family="Arial" font-size="9.00">&#45; Match existing style</text>
<text xml:space="preserve" text-anchor="middle" x="417" y="-98.95" font-family="Arial" font-size="9.00">&#45; Don&#39;t refactor what works</text>
<text xml:space="preserve" text-anchor="middle" x="417" y="-88.45" font-family="Arial" font-size="9.00">&#45; Clean up only your mess</text>
</g>
<!-- surgical_header&#45;&gt;surgical_details -->
<g id="edge8" class="edge">
<title>surgical_header&#45;&gt;surgical_details</title>
<path fill="none" stroke="black" d="M411.12,-175.26C411.12,-175.26 411.12,-144.4 411.12,-144.4"/>
<polygon fill="black" stroke="black" points="414.63,-144.4 411.13,-134.4 407.63,-144.4 414.63,-144.4"/>
</g>
<!-- surgical_addresses -->
<g id="node11" class="node">
<title>surgical_addresses</title>
<polygon fill="#ff9800" stroke="black" points="474.5,-39.5 359.5,-39.5 359.5,0 474.5,0 474.5,-39.5"/>
<text xml:space="preserve" text-anchor="middle" x="417" y="-26.95" font-family="Arial" font-size="9.00">Addresses:</text>
<text xml:space="preserve" text-anchor="middle" x="417" y="-16.45" font-family="Arial" font-size="9.00">Orthogonal edits,</text>
<text xml:space="preserve" text-anchor="middle" x="417" y="-5.95" font-family="Arial" font-size="9.00">touching unrelated code</text>
</g>
<!-- surgical_details&#45;&gt;surgical_addresses -->
<g id="edge9" class="edge">
<title>surgical_details&#45;&gt;surgical_addresses</title>
<path fill="none" stroke="black" d="M417,-82.12C417,-82.12 417,-51.3 417,-51.3"/>
<polygon fill="black" stroke="black" points="420.5,-51.3 417,-41.3 413.5,-51.3 420.5,-51.3"/>
</g>
<!-- goal_details -->
<g id="node13" class="node">
<title>goal_details</title>
<polygon fill="none" stroke="black" points="646.38,-132.5 509.62,-132.5 509.62,-82.5 646.38,-82.5 646.38,-132.5"/>
<text xml:space="preserve" text-anchor="middle" x="578" y="-119.95" font-family="Arial" font-size="9.00">&#45; Define success criteria</text>
<text xml:space="preserve" text-anchor="middle" x="578" y="-109.45" font-family="Arial" font-size="9.00">&#45; Transform to verifiable goals</text>
<text xml:space="preserve" text-anchor="middle" x="578" y="-98.95" font-family="Arial" font-size="9.00">&#45; Plan with verification steps</text>
<text xml:space="preserve" text-anchor="middle" x="578" y="-88.45" font-family="Arial" font-size="9.00">&#45; Loop until verified</text>
</g>
<!-- goal_header&#45;&gt;goal_details -->
<g id="edge11" class="edge">
<title>goal_header&#45;&gt;goal_details</title>
<path fill="none" stroke="black" d="M578,-175.26C578,-175.26 578,-144.4 578,-144.4"/>
<polygon fill="black" stroke="black" points="581.5,-144.4 578,-134.4 574.5,-144.4 581.5,-144.4"/>
</g>
<!-- goal_addresses -->
<g id="node14" class="node">
<title>goal_addresses</title>
<polygon fill="#ff9800" stroke="black" points="617.5,-39.5 538.5,-39.5 538.5,0 617.5,0 617.5,-39.5"/>
<text xml:space="preserve" text-anchor="middle" x="578" y="-26.95" font-family="Arial" font-size="9.00">Addresses:</text>
<text xml:space="preserve" text-anchor="middle" x="578" y="-16.45" font-family="Arial" font-size="9.00">No verifiable</text>
<text xml:space="preserve" text-anchor="middle" x="578" y="-5.95" font-family="Arial" font-size="9.00">success criteria</text>
</g>
<!-- goal_details&#45;&gt;goal_addresses -->
<g id="edge12" class="edge">
<title>goal_details&#45;&gt;goal_addresses</title>
<path fill="none" stroke="black" d="M578,-82.12C578,-82.12 578,-51.3 578,-51.3"/>
<polygon fill="black" stroke="black" points="581.5,-51.3 578,-41.3 574.5,-51.3 581.5,-51.3"/>
</g>
</g>
</svg>
