<?xml version="1.0" encoding="UTF-8" standalone="no"?>
<!DOCTYPE svg PUBLIC "-//W3C//DTD SVG 1.1//EN"
 "http://www.w3.org/Graphics/SVG/1.1/DTD/svg11.dtd">
<!-- Generated by graphviz version 14.1.2 (0)
 -->
<!-- Title: G Pages: 1 -->
<svg width="1198pt" height="173pt"
 viewBox="0.00 0.00 1198.00 173.00" xmlns="http://www.w3.org/2000/svg" xmlns:xlink="http://www.w3.org/1999/xlink">
<g id="graph0" class="graph" transform="scale(1 1) rotate(0) translate(4 168.5)">
<title>G</title>
<polygon fill="white" stroke="none" points="-4,4 -4,-168.5 1194,-168.5 1194,4 -4,4"/>
<!-- over_header -->
<g id="node1" class="node">
<title>over_header</title>
<polygon fill="#f44336" stroke="black" points="102.25,-131.75 0,-131.75 0,-95.25 102.25,-95.25 102.25,-131.75"/>
<text xml:space="preserve" text-anchor="middle" x="51.12" y="-116.35" font-family="Arial" font-size="12.00" fill="white">Overengineered</text>
<text xml:space="preserve" text-anchor="middle" x="51.12" y="-102.1" font-family="Arial" font-size="12.00" fill="white">(What LLMs Do)</text>
</g>
<!-- over_code -->
<g id="node2" class="node">
<title>over_code</title>
<polygon fill="none" stroke="black" points="257,-164.5 147.25,-164.5 147.25,-62.5 257,-62.5 257,-164.5"/>
<text xml:space="preserve" text-anchor="middle" x="202.12" y="-151.95" font-family="Arial" font-size="9.00">200+ lines</text>
<text xml:space="preserve" text-anchor="middle" x="202.12" y="-131.45" font-family="Arial" font-size="9.00">&#45; Abstract base classes</text>
<text xml:space="preserve" text-anchor="middle" x="202.12" y="-120.95" font-family="Arial" font-size="9.00">&#45; Strategy patterns</text>
<text xml:space="preserve" text-anchor="middle" x="202.12" y="-110.45" font-family="Arial" font-size="9.00">&#45; Configuration objects</text>
<text xml:space="preserve" text-anchor="middle" x="202.12" y="-99.95" font-family="Arial" font-size="9.00">&#45; Factory classes</text>
<text xml:space="preserve" text-anchor="middle" x="202.12" y="-89.45" font-family="Arial" font-size="9.00">&#45; Error handling for</text>
<text xml:space="preserve" text-anchor="middle" x="202.12" y="-78.95" font-family="Arial" font-size="9.00"> &#160;impossible scenarios</text>
<text xml:space="preserve" text-anchor="middle" x="202.12" y="-68.45" font-family="Arial" font-size="9.00">&#45; Speculative flexibility</text>
</g>
<!-- over_header&#45;&gt;over_code -->
<g id="edge1" class="edge">
<title>over_header&#45;&gt;over_code</title>
<path fill="none" stroke="black" d="M102.67,-113.5C102.67,-113.5 135.43,-113.5 135.43,-113.5"/>
<polygon fill="black" stroke="black" points="135.43,-117 145.43,-113.5 135.43,-110 135.43,-117"/>
</g>
<!-- over_problems -->
<g id="node3" class="node">
<title>over_problems</title>
<polygon fill="#f44336" stroke="black" points="408,-154 302,-154 302,-73 408,-73 408,-154"/>
<text xml:space="preserve" text-anchor="middle" x="355" y="-141.45" font-family="Arial" font-size="9.00" fill="white">Problems:</text>
<text xml:space="preserve" text-anchor="middle" x="355" y="-120.95" font-family="Arial" font-size="9.00" fill="white">&#45; Hard to understand</text>
<text xml:space="preserve" text-anchor="middle" x="355" y="-110.45" font-family="Arial" font-size="9.00" fill="white">&#45; More bugs</text>
<text xml:space="preserve" text-anchor="middle" x="355" y="-99.95" font-family="Arial" font-size="9.00" fill="white">&#45; Longer to implement</text>
<text xml:space="preserve" text-anchor="middle" x="355" y="-89.45" font-family="Arial" font-size="9.00" fill="white">&#45; Harder to test</text>
<text xml:space="preserve" text-anchor="middle" x="355" y="-78.95" font-family="Arial" font-size="9.00" fill="white">&#45; Maintenance burden</text>
</g>
<!-- over_code&#45;&gt;over_problems -->
<g id="edge2" class="edge">
<title>over_code&#45;&gt;over_problems</title>
<path fill="none" stroke="black" d="M257.32,-113.5C257.32,-113.5 290.17,-113.5 290.17,-113.5"/>
<polygon fill="black" stroke="black" points="290.17,-117 300.17,-113.5 290.17,-110 290.17,-117"/>
</g>
<!-- test -->
<g id="node7" class="node">
<title>test</title>
<polygon fill="#ff9800" stroke="black" points="608.25,-153.5 469.25,-153.5 469.25,-73.5 608.25,-73.5 608.25,-153.5"/>
<text xml:space="preserve" text-anchor="middle" x="538.75" y="-140" font-family="Arial" font-size="10.00">The Test:</text>
<text xml:space="preserve" text-anchor="middle" x="538.75" y="-116" font-family="Arial" font-size="10.00">Would a senior engineer say</text>
<text xml:space="preserve" text-anchor="middle" x="538.75" y="-104" font-family="Arial" font-size="10.00">this is overcomplicated?</text>
<text xml:space="preserve" text-anchor="middle" x="538.75" y="-80" font-family="Arial" font-size="10.00">If YES &#45;&gt; Simplify</text>
</g>
<!-- over_problems&#45;&gt;test -->
<g id="edge5" class="edge">
<title>over_problems&#45;&gt;test</title>
<path fill="none" stroke="black" d="M408.15,-113.5C408.15,-113.5 457.44,-113.5 457.44,-113.5"/>
<polygon fill="black" stroke="black" points="457.44,-117 467.44,-113.5 457.44,-110 457.44,-117"/>
<text xml:space="preserve" text-anchor="middle" x="438.62" y="-116" font-family="Arial" font-size="10.00">Ask</text>
</g>
<!-- simple_header -->
<g id="node4" class="node">
<title>simple_header</title>
<polygon fill="#4caf50" stroke="black" points="594,-44.75 483.5,-44.75 483.5,-8.25 594,-8.25 594,-44.75"/>
<text xml:space="preserve" text-anchor="middle" x="538.75" y="-29.35" font-family="Arial" font-size="12.00">Simple</text>
<text xml:space="preserve" text-anchor="middle" x="538.75" y="-15.1" font-family="Arial" font-size="12.00">(What Should Be)</text>
</g>
<!-- simple_code -->
<g id="node5" class="node">
<title>simple_code</title>
<polygon fill="none" stroke="black" points="800.25,-96.25 680.75,-96.25 680.75,-4.75 800.25,-4.75 800.25,-96.25"/>
<text xml:space="preserve" text-anchor="middle" x="740.5" y="-83.7" font-family="Arial" font-size="9.00">50 lines</text>
<text xml:space="preserve" text-anchor="middle" x="740.5" y="-63.2" font-family="Arial" font-size="9.00">&#45; One function</text>
<text xml:space="preserve" text-anchor="middle" x="740.5" y="-52.7" font-family="Arial" font-size="9.00">&#45; Clear parameters</text>
<text xml:space="preserve" text-anchor="middle" x="740.5" y="-42.2" font-family="Arial" font-size="9.00">&#45; Direct implementation</text>
<text xml:space="preserve" text-anchor="middle" x="740.5" y="-31.7" font-family="Arial" font-size="9.00">&#45; No abstractions</text>
<text xml:space="preserve" text-anchor="middle" x="740.5" y="-21.2" font-family="Arial" font-size="9.00">&#45; Only requested features</text>
<text xml:space="preserve" text-anchor="middle" x="740.5" y="-10.7" font-family="Arial" font-size="9.00">&#45; Handles real errors only</text>
</g>
<!-- simple_header&#45;&gt;simple_code -->
<g id="edge3" class="edge">
<title>simple_header&#45;&gt;simple_code</title>
<path fill="none" stroke="black" d="M594.41,-26.5C594.41,-26.5 668.91,-26.5 668.91,-26.5"/>
<polygon fill="black" stroke="black" points="668.91,-30 678.91,-26.5 668.91,-23 668.91,-30"/>
</g>
<!-- simple_benefits -->
<g id="node6" class="node">
<title>simple_benefits</title>
<polygon fill="#4caf50" stroke="black" points="945.25,-91 845.25,-91 845.25,-10 945.25,-10 945.25,-91"/>
<text xml:space="preserve" text-anchor="middle" x="895.25" y="-78.45" font-family="Arial" font-size="9.00">Benefits:</text>
<text xml:space="preserve" text-anchor="middle" x="895.25" y="-57.95" font-family="Arial" font-size="9.00">&#45; Easy to understand</text>
<text xml:space="preserve" text-anchor="middle" x="895.25" y="-47.45" font-family="Arial" font-size="9.00">&#45; Fewer bugs</text>
<text xml:space="preserve" text-anchor="middle" x="895.25" y="-36.95" font-family="Arial" font-size="9.00">&#45; Fast to implement</text>
<text xml:space="preserve" text-anchor="middle" x="895.25" y="-26.45" font-family="Arial" font-size="9.00">&#45; Easy to test</text>
<text xml:space="preserve" text-anchor="middle" x="895.25" y="-15.95" font-family="Arial" font-size="9.00">&#45; Low maintenance</text>
</g>
<!-- simple_code&#45;&gt;simple_benefits -->
<g id="edge4" class="edge">
<title>simple_code&#45;&gt;simple_benefits</title>
<path fill="none" stroke="black" d="M800.33,-50.5C800.33,-50.5 833.6,-50.5 833.6,-50.5"/>
<polygon fill="black" stroke="black" points="833.6,-54 843.6,-50.5 833.6,-47 833.6,-54"/>
</g>
<!-- example -->
<g id="node8" class="node">
<title>example</title>
<polygon fill="none" stroke="black" points="1184,-101 990.25,-101 990.25,0 1190,0 1190,-95 1184,-101"/>
<polyline fill="none" stroke="black" points="1184,-101 1184,-95"/>
<polyline fill="none" stroke="black" points="1190,-95 1184,-95"/>
<text xml:space="preserve" text-anchor="middle" x="1090.12" y="-88.45" font-family="Arial" font-size="9.00">Example:</text>
<text xml:space="preserve" text-anchor="middle" x="1090.12" y="-67.95" font-family="Arial" font-size="9.00">Overengineered: 30+ lines of strategy pattern</text>
<text xml:space="preserve" text-anchor="middle" x="1090.12" y="-57.45" font-family="Arial" font-size="9.00">for a simple discount calculation</text>
<text xml:space="preserve" text-anchor="middle" x="1090.12" y="-36.95" font-family="Arial" font-size="9.00">Simple: 3 lines</text>
<text xml:space="preserve" text-anchor="middle" x="1090.12" y="-16.45" font-family="Arial" font-size="9.00">def calculate_discount(amount, percent):</text>
<text xml:space="preserve" text-anchor="middle" x="1090.12" y="-5.95" font-family="Arial" font-size="9.00"> &#160;&#160;&#160;return amount * (percent / 100)</text>
</g>
<!-- simple_benefits&#45;&gt;example -->
<g id="edge7" class="edge">
<title>simple_benefits&#45;&gt;example</title>
<path fill="none" stroke="black" stroke-dasharray="5,2" d="M945.69,-50.5C945.69,-50.5 978.44,-50.5 978.44,-50.5"/>
<polygon fill="black" stroke="black" points="978.44,-54 988.44,-50.5 978.44,-47 978.44,-54"/>
</g>
<!-- test&#45;&gt;simple_code -->
<g id="edge6" class="edge">
<title>test&#45;&gt;simple_code</title>
<path fill="none" stroke="black" d="M608.75,-84.88C608.75,-84.88 668.85,-84.88 668.85,-84.88"/>
<polygon fill="black" stroke="black" points="668.85,-88.38 678.85,-84.88 668.85,-81.38 668.85,-88.38"/>
<text xml:space="preserve" text-anchor="middle" x="644.5" y="-97" font-family="Arial" font-size="10.00">If YES</text>
</g>
</g>
</svg>
