<?xml version="1.0" encoding="UTF-8" standalone="no"?>
<!DOCTYPE svg PUBLIC "-//W3C//DTD SVG 1.1//EN"
 "http://www.w3.org/Graphics/SVG/1.1/DTD/svg11.dtd">
<!-- Generated by graphviz version 14.1.2 (0)
 -->
<!-- Title: G Pages: 1 -->
<svg width="417pt" height="661pt"
 viewBox="0.00 0.00 417.00 661.00" xmlns="http://www.w3.org/2000/svg" xmlns:xlink="http://www.w3.org/1999/xlink">
<g id="graph0" class="graph" transform="scale(1 1) rotate(0) translate(4 656.99)">
<title>G</title>
<polygon fill="white" stroke="none" points="-4,4 -4,-656.99 413.12,-656.99 413.12,4 -4,4"/>
<!-- start -->
<g id="node1" class="node">
<title>start</title>
<ellipse fill="#4caf50" stroke="black" cx="118" cy="-628.25" rx="98.29" ry="24.75"/>
<text xml:space="preserve" text-anchor="middle" x="118" y="-631.3" font-family="Arial" font-size="11.00">Vague Task</text>
<text xml:space="preserve" text-anchor="middle" x="118" y="-617.8" font-family="Arial" font-size="11.00">(e.g., &quot;Fix authentication&quot;)</text>
</g>
<!-- transform -->
<g id="node2" class="node">
<title>transform</title>
<polygon fill="#2196f3" stroke="black" points="163.5,-558.5 72.5,-558.5 72.5,-522.5 163.5,-522.5 163.5,-558.5"/>
<text xml:space="preserve" text-anchor="middle" x="118" y="-543.55" font-family="Arial" font-size="11.00" fill="white">Transform to</text>
<text xml:space="preserve" text-anchor="middle" x="118" y="-530.05" font-family="Arial" font-size="11.00" fill="white">Verifiable Goals</text>
</g>
<!-- start&#45;&gt;transform -->
<g id="edge1" class="edge">
<title>start&#45;&gt;transform</title>
<path fill="none" stroke="black" d="M118,-603.34C118,-603.34 118,-570.29 118,-570.29"/>
<polygon fill="black" stroke="black" points="121.5,-570.29 118,-560.29 114.5,-570.29 121.5,-570.29"/>
</g>
<!-- plan -->
<g id="node3" class="node">
<title>plan</title>
<polygon fill="#2196f3" stroke="black" points="178.88,-477.5 57.12,-477.5 57.12,-441.5 178.88,-441.5 178.88,-477.5"/>
<text xml:space="preserve" text-anchor="middle" x="118" y="-462.55" font-family="Arial" font-size="11.00" fill="white">Create Plan</text>
<text xml:space="preserve" text-anchor="middle" x="118" y="-449.05" font-family="Arial" font-size="11.00" fill="white">with Verification Steps</text>
</g>
<!-- transform&#45;&gt;plan -->
<g id="edge2" class="edge">
<title>transform&#45;&gt;plan</title>
<path fill="none" stroke="black" d="M118,-522.12C118,-522.12 118,-489.32 118,-489.32"/>
<polygon fill="black" stroke="black" points="121.5,-489.32 118,-479.32 114.5,-489.32 121.5,-489.32"/>
</g>
<!-- plan_example -->
<g id="node4" class="node">
<title>plan_example</title>
<polygon fill="none" stroke="black" points="196,-396.5 0,-396.5 0,-346.5 202,-346.5 202,-390.5 196,-396.5"/>
<polyline fill="none" stroke="black" points="196,-396.5 196,-390.5"/>
<polyline fill="none" stroke="black" points="202,-390.5 196,-390.5"/>
<text xml:space="preserve" text-anchor="middle" x="101" y="-383.95" font-family="Arial" font-size="9.00">Example Plan:</text>
<text xml:space="preserve" text-anchor="middle" x="101" y="-373.45" font-family="Arial" font-size="9.00">1. [Write test] &#45;&gt; verify: [test fails]</text>
<text xml:space="preserve" text-anchor="middle" x="101" y="-362.95" font-family="Arial" font-size="9.00">2. [Implement fix] &#45;&gt; verify: [test passes]</text>
<text xml:space="preserve" text-anchor="middle" x="101" y="-352.45" font-family="Arial" font-size="9.00">3. [Check edge cases] &#45;&gt; verify: [all tests pass]</text>
</g>
<!-- plan&#45;&gt;plan_example -->
<g id="edge3" class="edge">
<title>plan&#45;&gt;plan_example</title>
<path fill="none" stroke="black" d="M118,-441.26C118,-441.26 118,-408.23 118,-408.23"/>
<polygon fill="black" stroke="black" points="121.5,-408.23 118,-398.23 114.5,-408.23 121.5,-408.23"/>
</g>
<!-- implement -->
<g id="node5" class="node">
<title>implement</title>
<polygon fill="#2196f3" stroke="black" points="297.12,-389.5 230.88,-389.5 230.88,-353.5 297.12,-353.5 297.12,-389.5"/>
<text xml:space="preserve" text-anchor="middle" x="264" y="-374.55" font-family="Arial" font-size="11.00" fill="white">Implement</text>
<text xml:space="preserve" text-anchor="middle" x="264" y="-361.05" font-family="Arial" font-size="11.00" fill="white">Step</text>
</g>
<!-- plan&#45;&gt;implement -->
<g id="edge4" class="edge">
<title>plan&#45;&gt;implement</title>
<path fill="none" stroke="black" d="M179.07,-459C219.08,-459 264,-459 264,-459 264,-459 264,-401.14 264,-401.14"/>
<polygon fill="black" stroke="black" points="267.5,-401.14 264,-391.14 260.5,-401.14 267.5,-401.14"/>
</g>
<!-- verify -->
<g id="node6" class="node">
<title>verify</title>
<polygon fill="#f44336" stroke="black" points="264,-301.5 201.5,-266.5 264,-231.5 326.5,-266.5 264,-301.5"/>
<text xml:space="preserve" text-anchor="middle" x="264" y="-269.55" font-family="Arial" font-size="11.00" fill="white">Verify</text>
<text xml:space="preserve" text-anchor="middle" x="264" y="-256.05" font-family="Arial" font-size="11.00" fill="white">Success?</text>
</g>
<!-- implement&#45;&gt;verify -->
<g id="edge5" class="edge">
<title>implement&#45;&gt;verify</title>
<path fill="none" stroke="black" d="M275.04,-353.21C275.04,-353.21 275.04,-307.18 275.04,-307.18"/>
<polygon fill="black" stroke="black" points="278.54,-307.18 275.04,-297.18 271.54,-307.18 278.54,-307.18"/>
</g>
<!-- loop -->
<g id="node7" class="node">
<title>loop</title>
<polygon fill="#607d8b" stroke="black" points="216.38,-158.5 157.62,-158.5 157.62,-122.5 216.38,-122.5 216.38,-158.5"/>
<text xml:space="preserve" text-anchor="middle" x="187" y="-143" font-family="Arial" font-size="10.00">Adjust</text>
<text xml:space="preserve" text-anchor="middle" x="187" y="-131" font-family="Arial" font-size="10.00">and Retry</text>
</g>
<!-- verify&#45;&gt;loop -->
<g id="edge6" class="edge">
<title>verify&#45;&gt;loop</title>
<path fill="none" stroke="black" d="M208.94,-262.01C208.94,-262.01 208.94,-170.16 208.94,-170.16"/>
<polygon fill="black" stroke="black" points="212.44,-170.16 208.94,-160.16 205.44,-170.16 212.44,-170.16"/>
<text xml:space="preserve" text-anchor="middle" x="244.38" y="-200" font-family="Arial" font-size="10.00">No</text>
</g>
<!-- next -->
<g id="node8" class="node">
<title>next</title>
<polygon fill="#f44336" stroke="black" points="340,-175.5 290.25,-140.5 340,-105.5 389.75,-140.5 340,-175.5"/>
<text xml:space="preserve" text-anchor="middle" x="340" y="-143.55" font-family="Arial" font-size="11.00" fill="white">More</text>
<text xml:space="preserve" text-anchor="middle" x="340" y="-130.05" font-family="Arial" font-size="11.00" fill="white">Steps?</text>
</g>
<!-- verify&#45;&gt;next -->
<g id="edge8" class="edge">
<title>verify&#45;&gt;next</title>
<path fill="none" stroke="black" d="M308.38,-256.19C308.38,-256.19 308.38,-165.07 308.38,-165.07"/>
<polygon fill="black" stroke="black" points="311.88,-165.07 308.38,-155.07 304.88,-165.07 311.88,-165.07"/>
<text xml:space="preserve" text-anchor="middle" x="298.25" y="-200" font-family="Arial" font-size="10.00">Yes</text>
</g>
<!-- loop&#45;&gt;implement -->
<g id="edge7" class="edge">
<title>loop&#45;&gt;implement</title>
<path fill="none" stroke="black" d="M179.56,-158.76C179.56,-205.18 179.56,-324 179.56,-324 179.56,-324 252.96,-324 252.96,-324 252.96,-324 252.96,-341.48 252.96,-341.48"/>
<polygon fill="black" stroke="black" points="249.46,-341.48 252.96,-351.48 256.46,-341.48 249.46,-341.48"/>
</g>
<!-- next&#45;&gt;implement -->
<g id="edge9" class="edge">
<title>next&#45;&gt;implement</title>
<path fill="none" stroke="black" d="M358.12,-163.02C358.12,-221.02 358.12,-371 358.12,-371 358.12,-371 308.96,-371 308.96,-371"/>
<polygon fill="black" stroke="black" points="308.96,-367.5 298.96,-371 308.96,-374.5 308.96,-367.5"/>
<text xml:space="preserve" text-anchor="middle" x="393.25" y="-263" font-family="Arial" font-size="10.00">Yes</text>
</g>
<!-- complete -->
<g id="node9" class="node">
<title>complete</title>
<ellipse fill="#4caf50" stroke="black" cx="340" cy="-24.75" rx="69.12" ry="24.75"/>
<text xml:space="preserve" text-anchor="middle" x="340" y="-27.8" font-family="Arial" font-size="11.00">Task Complete</text>
<text xml:space="preserve" text-anchor="middle" x="340" y="-14.3" font-family="Arial" font-size="11.00">All Goals Verified</text>
</g>
<!-- next&#45;&gt;complete -->
<g id="edge10" class="edge">
<title>next&#45;&gt;complete</title>
<path fill="none" stroke="black" d="M340,-105.14C340,-105.14 340,-61.49 340,-61.49"/>
<polygon fill="black" stroke="black" points="343.5,-61.49 340,-51.49 336.5,-61.49 343.5,-61.49"/>
<text xml:space="preserve" text-anchor="middle" x="346.38" y="-74" font-family="Arial" font-size="10.00">No</text>
</g>
</g>
</svg>
