<?xml version="1.0" encoding="UTF-8" standalone="no"?>
<!DOCTYPE svg PUBLIC "-//W3C//DTD SVG 1.1//EN"
 "http://www.w3.org/Graphics/SVG/1.1/DTD/svg11.dtd">
<!-- Generated by graphviz version 14.1.2 (0)
 -->
<!-- Title: khoj_features Pages: 1 -->
<svg width="821pt" height="151pt"
 viewBox="0.00 0.00 821.00 151.00" xmlns="http://www.w3.org/2000/svg" xmlns:xlink="http://www.w3.org/1999/xlink">
<g id="graph0" class="graph" transform="scale(1 1) rotate(0) translate(4 147)">
<title>khoj_features</title>
<polygon fill="white" stroke="none" points="-4,4 -4,-147 816.88,-147 816.88,4 -4,4"/>
<!-- khoj -->
<g id="node1" class="node">
<title>khoj</title>
<path fill="#2196f3" stroke="black" d="M448.88,-143C448.88,-143 363.88,-143 363.88,-143 357.88,-143 351.88,-137 351.88,-131 351.88,-131 351.88,-118.5 351.88,-118.5 351.88,-112.5 357.88,-106.5 363.88,-106.5 363.88,-106.5 448.88,-106.5 448.88,-106.5 454.88,-106.5 460.88,-112.5 460.88,-118.5 460.88,-118.5 460.88,-131 460.88,-131 460.88,-137 454.88,-143 448.88,-143"/>
<text xml:space="preserve" text-anchor="middle" x="406.38" y="-127.6" font-family="Arial Bold" font-size="12.00" fill="white">Khoj</text>
<text xml:space="preserve" text-anchor="middle" x="406.38" y="-113.35" font-family="Arial Bold" font-size="12.00" fill="white">AI Second Brain</text>
</g>
<!-- chat -->
<g id="node2" class="node">
<title>chat</title>
<polygon fill="#4caf50" stroke="black" points="112.75,-48.5 0,-48.5 0,0 112.75,0 112.75,-48.5"/>
<text xml:space="preserve" text-anchor="middle" x="56.38" y="-34.05" font-family="Arial" font-size="11.00" fill="white">Multi&#45;LLM Chat</text>
<text xml:space="preserve" text-anchor="middle" x="56.38" y="-20.55" font-family="Arial" font-size="11.00" fill="white">GPT/Claude/Gemini</text>
<text xml:space="preserve" text-anchor="middle" x="56.38" y="-7.05" font-family="Arial" font-size="11.00" fill="white">Local Models</text>
</g>
<!-- khoj&#45;&gt;chat -->
<g id="edge1" class="edge">
<title>khoj&#45;&gt;chat</title>
<path fill="none" stroke="#2196f3" stroke-width="2" d="M351.69,-131C253.25,-131 56.38,-131 56.38,-131 56.38,-131 56.38,-61.77 56.38,-61.77"/>
<polygon fill="#2196f3" stroke="#2196f3" stroke-width="2" points="59.88,-61.77 56.38,-51.77 52.88,-61.77 59.88,-61.77"/>
</g>
<!-- search -->
<g id="node3" class="node">
<title>search</title>
<path fill="#ff9800" stroke="black" d="M248,-48.5C248,-48.5 160.75,-48.5 160.75,-48.5 154.75,-48.5 148.75,-42.5 148.75,-36.5 148.75,-36.5 148.75,-12 148.75,-12 148.75,-6 154.75,0 160.75,0 160.75,0 248,0 248,0 254,0 260,-6 260,-12 260,-12 260,-36.5 260,-36.5 260,-42.5 254,-48.5 248,-48.5"/>
<text xml:space="preserve" text-anchor="middle" x="204.38" y="-34.05" font-family="Arial" font-size="11.00" fill="white">Semantic Search</text>
<text xml:space="preserve" text-anchor="middle" x="204.38" y="-20.55" font-family="Arial" font-size="11.00" fill="white">Vector Embeddings</text>
<text xml:space="preserve" text-anchor="middle" x="204.38" y="-7.05" font-family="Arial" font-size="11.00" fill="white">Document Retrieval</text>
</g>
<!-- khoj&#45;&gt;search -->
<g id="edge2" class="edge">
<title>khoj&#45;&gt;search</title>
<path fill="none" stroke="#2196f3" stroke-width="2" d="M351.44,-119C291.63,-119 204.38,-119 204.38,-119 204.38,-119 204.38,-61.68 204.38,-61.68"/>
<polygon fill="#2196f3" stroke="#2196f3" stroke-width="2" points="207.88,-61.68 204.38,-51.68 200.88,-61.68 207.88,-61.68"/>
</g>
<!-- agents -->
<g id="node4" class="node">
<title>agents</title>
<path fill="#e91e63" stroke="black" d="M382.25,-48.5C382.25,-48.5 308.5,-48.5 308.5,-48.5 302.5,-48.5 296.5,-42.5 296.5,-36.5 296.5,-36.5 296.5,-12 296.5,-12 296.5,-6 302.5,0 308.5,0 308.5,0 382.25,0 382.25,0 388.25,0 394.25,-6 394.25,-12 394.25,-12 394.25,-36.5 394.25,-36.5 394.25,-42.5 388.25,-48.5 382.25,-48.5"/>
<text xml:space="preserve" text-anchor="middle" x="345.38" y="-34.05" font-family="Arial" font-size="11.00" fill="white">Custom Agents</text>
<text xml:space="preserve" text-anchor="middle" x="345.38" y="-20.55" font-family="Arial" font-size="11.00" fill="white">Personas</text>
<text xml:space="preserve" text-anchor="middle" x="345.38" y="-7.05" font-family="Arial" font-size="11.00" fill="white">Knowledge Base</text>
</g>
<!-- khoj&#45;&gt;agents -->
<g id="edge3" class="edge">
<title>khoj&#45;&gt;agents</title>
<path fill="none" stroke="#2196f3" stroke-width="2" d="M373.06,-106.32C373.06,-106.32 373.06,-61.66 373.06,-61.66"/>
<polygon fill="#2196f3" stroke="#2196f3" stroke-width="2" points="376.56,-61.66 373.06,-51.66 369.56,-61.66 376.56,-61.66"/>
</g>
<!-- automation -->
<g id="node5" class="node">
<title>automation</title>
<path fill="#9c27b0" stroke="black" d="M492.62,-48.5C492.62,-48.5 442.12,-48.5 442.12,-48.5 436.12,-48.5 430.12,-42.5 430.12,-36.5 430.12,-36.5 430.12,-12 430.12,-12 430.12,-6 436.12,0 442.12,0 442.12,0 492.62,0 492.62,0 498.62,0 504.62,-6 504.62,-12 504.62,-12 504.62,-36.5 504.62,-36.5 504.62,-42.5 498.62,-48.5 492.62,-48.5"/>
<text xml:space="preserve" text-anchor="middle" x="467.38" y="-34.05" font-family="Arial" font-size="11.00" fill="white">Automation</text>
<text xml:space="preserve" text-anchor="middle" x="467.38" y="-20.55" font-family="Arial" font-size="11.00" fill="white">Newsletters</text>
<text xml:space="preserve" text-anchor="middle" x="467.38" y="-7.05" font-family="Arial" font-size="11.00" fill="white">Notifications</text>
</g>
<!-- khoj&#45;&gt;automation -->
<g id="edge4" class="edge">
<title>khoj&#45;&gt;automation</title>
<path fill="none" stroke="#2196f3" stroke-width="2" d="M445.5,-106.32C445.5,-106.32 445.5,-61.66 445.5,-61.66"/>
<polygon fill="#2196f3" stroke="#2196f3" stroke-width="2" points="449,-61.66 445.5,-51.66 442,-61.66 449,-61.66"/>
</g>
<!-- interfaces -->
<g id="node6" class="node">
<title>interfaces</title>
<path fill="#00bcd4" stroke="black" d="M644.25,-48.5C644.25,-48.5 552.5,-48.5 552.5,-48.5 546.5,-48.5 540.5,-42.5 540.5,-36.5 540.5,-36.5 540.5,-12 540.5,-12 540.5,-6 546.5,0 552.5,0 552.5,0 644.25,0 644.25,0 650.25,0 656.25,-6 656.25,-12 656.25,-12 656.25,-36.5 656.25,-36.5 656.25,-42.5 650.25,-48.5 644.25,-48.5"/>
<text xml:space="preserve" text-anchor="middle" x="598.38" y="-34.05" font-family="Arial" font-size="11.00" fill="white">Multi&#45;Platform</text>
<text xml:space="preserve" text-anchor="middle" x="598.38" y="-20.55" font-family="Arial" font-size="11.00" fill="white">Web/Desktop/Mobile</text>
<text xml:space="preserve" text-anchor="middle" x="598.38" y="-7.05" font-family="Arial" font-size="11.00" fill="white">Obsidian/Emacs</text>
</g>
<!-- khoj&#45;&gt;interfaces -->
<g id="edge5" class="edge">
<title>khoj&#45;&gt;interfaces</title>
<path fill="none" stroke="#2196f3" stroke-width="2" d="M461.14,-119C517.89,-119 598.38,-119 598.38,-119 598.38,-119 598.38,-61.68 598.38,-61.68"/>
<polygon fill="#2196f3" stroke="#2196f3" stroke-width="2" points="601.88,-61.68 598.38,-51.68 594.88,-61.68 601.88,-61.68"/>
</g>
<!-- docs -->
<g id="node7" class="node">
<title>docs</title>
<polygon fill="#f44336" stroke="black" points="812.88,-48.5 691.88,-48.5 691.88,0 812.88,0 812.88,-48.5"/>
<text xml:space="preserve" text-anchor="middle" x="752.38" y="-34.05" font-family="Arial" font-size="11.00" fill="white">Document Support</text>
<text xml:space="preserve" text-anchor="middle" x="752.38" y="-20.55" font-family="Arial" font-size="11.00" fill="white">PDF/Markdown/Word</text>
<text xml:space="preserve" text-anchor="middle" x="752.38" y="-7.05" font-family="Arial" font-size="11.00" fill="white">Notion/Org&#45;mode</text>
</g>
<!-- khoj&#45;&gt;docs -->
<g id="edge6" class="edge">
<title>khoj&#45;&gt;docs</title>
<path fill="none" stroke="#2196f3" stroke-width="2" d="M461.2,-131C558.76,-131 752.38,-131 752.38,-131 752.38,-131 752.38,-61.77 752.38,-61.77"/>
<polygon fill="#2196f3" stroke="#2196f3" stroke-width="2" points="755.88,-61.77 752.38,-51.77 748.88,-61.77 755.88,-61.77"/>
</g>
</g>
</svg>
