<?xml version="1.0" encoding="UTF-8" standalone="no"?>
<!DOCTYPE svg PUBLIC "-//W3C//DTD SVG 1.1//EN"
 "http://www.w3.org/Graphics/SVG/1.1/DTD/svg11.dtd">
<!-- Generated by graphviz version 14.1.2 (0)
 -->
<!-- Title: kc_workflow Pages: 1 -->
<svg width="674pt" height="1230pt"
 viewBox="0.00 0.00 674.00 1230.00" xmlns="http://www.w3.org/2000/svg" xmlns:xlink="http://www.w3.org/1999/xlink">
<rect width="100%" height="100%" fill="white"/>
<g id="graph0" class="graph" transform="scale(1 1) rotate(0) translate(4 1225.5)">
<title>kc_workflow</title>
<text xml:space="preserve" text-anchor="middle" x="333.2" y="-7.2" font-family="Times New Roman,serif" font-size="14.00">Knowledge Catalog &#45; Data Flow: Ingestion to Agent Access</text>
<!-- s1 -->
<g id="node1" class="node">
<title>s1</title>
<path fill="#e3f2fd" stroke="black" d="M438.4,-1210.7C438.4,-1210.7 246.4,-1210.7 246.4,-1210.7 240.4,-1210.7 234.4,-1204.7 234.4,-1198.7 234.4,-1198.7 234.4,-1157.9 234.4,-1157.9 234.4,-1151.9 240.4,-1145.9 246.4,-1145.9 246.4,-1145.9 438.4,-1145.9 438.4,-1145.9 444.4,-1145.9 450.4,-1151.9 450.4,-1157.9 450.4,-1157.9 450.4,-1198.7 450.4,-1198.7 450.4,-1204.7 444.4,-1210.7 438.4,-1210.7"/>
<text xml:space="preserve" text-anchor="middle" x="342.4" y="-1181.15" font-family="Arial Bold" font-size="12.00" fill="#212121">1. Ingest</text>
<text xml:space="preserve" text-anchor="middle" x="342.4" y="-1166.9" font-family="Arial Bold" font-size="12.00" fill="#212121">Data Sources</text>
</g>
<!-- s2 -->
<g id="node2" class="node">
<title>s2</title>
<path fill="#e3f2fd" stroke="black" d="M438.4,-1070.1C438.4,-1070.1 246.4,-1070.1 246.4,-1070.1 240.4,-1070.1 234.4,-1064.1 234.4,-1058.1 234.4,-1058.1 234.4,-1017.3 234.4,-1017.3 234.4,-1011.3 240.4,-1005.3 246.4,-1005.3 246.4,-1005.3 438.4,-1005.3 438.4,-1005.3 444.4,-1005.3 450.4,-1011.3 450.4,-1017.3 450.4,-1017.3 450.4,-1058.1 450.4,-1058.1 450.4,-1064.1 444.4,-1070.1 438.4,-1070.1"/>
<text xml:space="preserve" text-anchor="middle" x="342.4" y="-1040.55" font-family="Arial Bold" font-size="12.00" fill="#212121">2. Extract</text>
<text xml:space="preserve" text-anchor="middle" x="342.4" y="-1026.3" font-family="Arial Bold" font-size="12.00" fill="#212121">Metadata</text>
</g>
<!-- s1&#45;&gt;s2 -->
<g id="edge1" class="edge">
<title>s1&#45;&gt;s2</title>
<path fill="none" stroke="#2196f3" stroke-width="2pt" d="M342.4,-1145.69C342.4,-1145.69 342.4,-1083.16 342.4,-1083.16"/>
<polygon fill="#2196f3" stroke="#2196f3" stroke-width="2pt" points="345.9,-1083.16 342.4,-1073.16 338.9,-1083.16 345.9,-1083.16"/>
</g>
<!-- s3 -->
<g id="node3" class="node">
<title>s3</title>
<path fill="#e3f2fd" stroke="black" d="M438.4,-940.3C438.4,-940.3 246.4,-940.3 246.4,-940.3 240.4,-940.3 234.4,-934.3 234.4,-928.3 234.4,-928.3 234.4,-887.5 234.4,-887.5 234.4,-881.5 240.4,-875.5 246.4,-875.5 246.4,-875.5 438.4,-875.5 438.4,-875.5 444.4,-875.5 450.4,-881.5 450.4,-887.5 450.4,-887.5 450.4,-928.3 450.4,-928.3 450.4,-934.3 444.4,-940.3 438.4,-940.3"/>
<text xml:space="preserve" text-anchor="middle" x="342.4" y="-910.75" font-family="Arial Bold" font-size="12.00" fill="#212121">3. Build</text>
<text xml:space="preserve" text-anchor="middle" x="342.4" y="-896.5" font-family="Arial Bold" font-size="12.00" fill="#212121">Knowledge Graph</text>
</g>
<!-- s2&#45;&gt;s3 -->
<g id="edge2" class="edge">
<title>s2&#45;&gt;s3</title>
<path fill="none" stroke="#7b1fa2" stroke-width="2pt" d="M342.4,-1004.95C342.4,-1004.95 342.4,-953.67 342.4,-953.67"/>
<polygon fill="#7b1fa2" stroke="#7b1fa2" stroke-width="2pt" points="345.9,-953.67 342.4,-943.67 338.9,-953.67 345.9,-953.67"/>
</g>
<!-- s4 -->
<g id="node4" class="node">
<title>s4</title>
<path fill="#e3f2fd" stroke="black" d="M438.4,-810.5C438.4,-810.5 246.4,-810.5 246.4,-810.5 240.4,-810.5 234.4,-804.5 234.4,-798.5 234.4,-798.5 234.4,-757.7 234.4,-757.7 234.4,-751.7 240.4,-745.7 246.4,-745.7 246.4,-745.7 438.4,-745.7 438.4,-745.7 444.4,-745.7 450.4,-751.7 450.4,-757.7 450.4,-757.7 450.4,-798.5 450.4,-798.5 450.4,-804.5 444.4,-810.5 438.4,-810.5"/>
<text xml:space="preserve" text-anchor="middle" x="342.4" y="-780.95" font-family="Arial Bold" font-size="12.00" fill="#212121">4. Enrich</text>
<text xml:space="preserve" text-anchor="middle" x="342.4" y="-766.7" font-family="Arial Bold" font-size="12.00" fill="#212121">with AI</text>
</g>
<!-- s3&#45;&gt;s4 -->
<g id="edge3" class="edge">
<title>s3&#45;&gt;s4</title>
<path fill="none" stroke="#7b1fa2" stroke-width="2pt" d="M342.4,-875.15C342.4,-875.15 342.4,-823.87 342.4,-823.87"/>
<polygon fill="#7b1fa2" stroke="#7b1fa2" stroke-width="2pt" points="345.9,-823.87 342.4,-813.87 338.9,-823.87 345.9,-823.87"/>
</g>
<!-- s5 -->
<g id="node5" class="node">
<title>s5</title>
<path fill="#e3f2fd" stroke="black" d="M323.4,-449.9C323.4,-449.9 131.4,-449.9 131.4,-449.9 125.4,-449.9 119.4,-443.9 119.4,-437.9 119.4,-437.9 119.4,-397.1 119.4,-397.1 119.4,-391.1 125.4,-385.1 131.4,-385.1 131.4,-385.1 323.4,-385.1 323.4,-385.1 329.4,-385.1 335.4,-391.1 335.4,-397.1 335.4,-397.1 335.4,-437.9 335.4,-437.9 335.4,-443.9 329.4,-449.9 323.4,-449.9"/>
<text xml:space="preserve" text-anchor="middle" x="227.4" y="-420.35" font-family="Arial Bold" font-size="12.00" fill="#212121">5. Serve</text>
<text xml:space="preserve" text-anchor="middle" x="227.4" y="-406.1" font-family="Arial Bold" font-size="12.00" fill="#212121">Agent&#45;Ready Context</text>
</g>
<!-- s4&#45;&gt;s5 -->
<g id="edge4" class="edge">
<title>s4&#45;&gt;s5</title>
<path fill="none" stroke="#ff9800" stroke-width="2pt" d="M233.98,-778.5C191.48,-778.5 152.7,-778.5 152.7,-778.5 152.7,-778.5 152.7,-463.2 152.7,-463.2"/>
<polygon fill="#ff9800" stroke="#ff9800" stroke-width="2pt" points="156.2,-463.2 152.7,-453.2 149.2,-463.2 156.2,-463.2"/>
</g>
<!-- s4a -->
<g id="node7" class="node">
<title>s4a</title>
<path fill="#ffe0b2" stroke="black" d="M346.8,-680.7C346.8,-680.7 198,-680.7 198,-680.7 192,-680.7 186,-674.7 186,-668.7 186,-668.7 186,-642.3 186,-642.3 186,-636.3 192,-630.3 198,-630.3 198,-630.3 346.8,-630.3 346.8,-630.3 352.8,-630.3 358.8,-636.3 358.8,-642.3 358.8,-642.3 358.8,-668.7 358.8,-668.7 358.8,-674.7 352.8,-680.7 346.8,-680.7"/>
<text xml:space="preserve" text-anchor="middle" x="272.4" y="-658" font-family="Arial" font-size="10.00" fill="#212121">OKF Enrichment</text>
<text xml:space="preserve" text-anchor="middle" x="272.4" y="-646" font-family="Arial" font-size="10.00" fill="#212121">Agent (BQ+Web)</text>
</g>
<!-- s4&#45;&gt;s4a -->
<g id="edge6" class="edge">
<title>s4&#45;&gt;s4a</title>
<path fill="none" stroke="#ff9800" stroke-width="1.5pt" d="M296.6,-745.25C296.6,-745.25 296.6,-693.33 296.6,-693.33"/>
<polygon fill="#ff9800" stroke="#ff9800" stroke-width="1.5pt" points="300.1,-693.33 296.6,-683.33 293.1,-693.33 300.1,-693.33"/>
</g>
<!-- s4b -->
<g id="node8" class="node">
<title>s4b</title>
<path fill="#ffe0b2" stroke="black" d="M420.8,-565.3C420.8,-565.3 272,-565.3 272,-565.3 266,-565.3 260,-559.3 260,-553.3 260,-553.3 260,-526.9 260,-526.9 260,-520.9 266,-514.9 272,-514.9 272,-514.9 420.8,-514.9 420.8,-514.9 426.8,-514.9 432.8,-520.9 432.8,-526.9 432.8,-526.9 432.8,-553.3 432.8,-553.3 432.8,-559.3 426.8,-565.3 420.8,-565.3"/>
<text xml:space="preserve" text-anchor="middle" x="346.4" y="-548.6" font-family="Arial" font-size="10.00" fill="#212121">KC Enrichment</text>
<text xml:space="preserve" text-anchor="middle" x="346.4" y="-536.6" font-family="Arial" font-size="10.00" fill="#212121">Agent (download/</text>
<text xml:space="preserve" text-anchor="middle" x="346.4" y="-524.6" font-family="Arial" font-size="10.00" fill="#212121">enrich/publish)</text>
</g>
<!-- s4&#45;&gt;s4b -->
<g id="edge7" class="edge">
<title>s4&#45;&gt;s4b</title>
<path fill="none" stroke="#ff9800" stroke-width="1.5pt" d="M395.8,-745.51C395.8,-745.51 395.8,-578.02 395.8,-578.02"/>
<polygon fill="#ff9800" stroke="#ff9800" stroke-width="1.5pt" points="399.3,-578.02 395.8,-568.02 392.3,-578.02 399.3,-578.02"/>
</g>
<!-- s6 -->
<g id="node6" class="node">
<title>s6</title>
<path fill="#e3f2fd" stroke="black" d="M572.4,-320.1C572.4,-320.1 380.4,-320.1 380.4,-320.1 374.4,-320.1 368.4,-314.1 368.4,-308.1 368.4,-308.1 368.4,-267.3 368.4,-267.3 368.4,-261.3 374.4,-255.3 380.4,-255.3 380.4,-255.3 572.4,-255.3 572.4,-255.3 578.4,-255.3 584.4,-261.3 584.4,-267.3 584.4,-267.3 584.4,-308.1 584.4,-308.1 584.4,-314.1 578.4,-320.1 572.4,-320.1"/>
<text xml:space="preserve" text-anchor="middle" x="476.4" y="-290.55" font-family="Arial Bold" font-size="12.00" fill="#212121">6. Consume</text>
<text xml:space="preserve" text-anchor="middle" x="476.4" y="-276.3" font-family="Arial Bold" font-size="12.00" fill="#212121">by Agents and Humans</text>
</g>
<!-- s5&#45;&gt;s6 -->
<g id="edge5" class="edge">
<title>s5&#45;&gt;s6</title>
<path fill="none" stroke="#2196f3" stroke-width="2pt" d="M326.1,-384.71C326.1,-355.22 326.1,-316.5 326.1,-316.5 326.1,-316.5 354.94,-316.5 354.94,-316.5"/>
<polygon fill="#2196f3" stroke="#2196f3" stroke-width="2pt" points="354.94,-320 364.94,-316.5 354.94,-313 354.94,-320"/>
</g>
<!-- s5a -->
<g id="node9" class="node">
<title>s5a</title>
<path fill="#c8e6c9" stroke="black" d="M160.8,-312.9C160.8,-312.9 12,-312.9 12,-312.9 6,-312.9 0,-306.9 0,-300.9 0,-300.9 0,-274.5 0,-274.5 0,-268.5 6,-262.5 12,-262.5 12,-262.5 160.8,-262.5 160.8,-262.5 166.8,-262.5 172.8,-268.5 172.8,-274.5 172.8,-274.5 172.8,-300.9 172.8,-300.9 172.8,-306.9 166.8,-312.9 160.8,-312.9"/>
<text xml:space="preserve" text-anchor="middle" x="86.4" y="-290.2" font-family="Arial" font-size="10.00" fill="#212121">Semantic</text>
<text xml:space="preserve" text-anchor="middle" x="86.4" y="-278.2" font-family="Arial" font-size="10.00" fill="#212121">Search API</text>
</g>
<!-- s5&#45;&gt;s5a -->
<g id="edge10" class="edge">
<title>s5&#45;&gt;s5a</title>
<path fill="none" stroke="#2196f3" stroke-width="1.5pt" d="M146.1,-384.75C146.1,-384.75 146.1,-325.34 146.1,-325.34"/>
<polygon fill="#2196f3" stroke="#2196f3" stroke-width="1.5pt" points="149.6,-325.34 146.1,-315.34 142.6,-325.34 149.6,-325.34"/>
</g>
<!-- s5b -->
<g id="node10" class="node">
<title>s5b</title>
<path fill="#c8e6c9" stroke="black" d="M234.8,-190.3C234.8,-190.3 86,-190.3 86,-190.3 80,-190.3 74,-184.3 74,-178.3 74,-178.3 74,-151.9 74,-151.9 74,-145.9 80,-139.9 86,-139.9 86,-139.9 234.8,-139.9 234.8,-139.9 240.8,-139.9 246.8,-145.9 246.8,-151.9 246.8,-151.9 246.8,-178.3 246.8,-178.3 246.8,-184.3 240.8,-190.3 234.8,-190.3"/>
<text xml:space="preserve" text-anchor="middle" x="160.4" y="-167.6" font-family="Arial" font-size="10.00" fill="#212121">Context</text>
<text xml:space="preserve" text-anchor="middle" x="160.4" y="-155.6" font-family="Arial" font-size="10.00" fill="#212121">APIs</text>
</g>
<!-- s5&#45;&gt;s5b -->
<g id="edge11" class="edge">
<title>s5&#45;&gt;s5b</title>
<path fill="none" stroke="#2196f3" stroke-width="1.5pt" d="M209.8,-384.76C209.8,-384.76 209.8,-202.81 209.8,-202.81"/>
<polygon fill="#2196f3" stroke="#2196f3" stroke-width="1.5pt" points="213.3,-202.81 209.8,-192.81 206.3,-202.81 213.3,-202.81"/>
</g>
<!-- s5c -->
<g id="node11" class="node">
<title>s5c</title>
<path fill="#c8e6c9" stroke="black" d="M304.8,-74.9C304.8,-74.9 156,-74.9 156,-74.9 150,-74.9 144,-68.9 144,-62.9 144,-62.9 144,-36.5 144,-36.5 144,-30.5 150,-24.5 156,-24.5 156,-24.5 304.8,-24.5 304.8,-24.5 310.8,-24.5 316.8,-30.5 316.8,-36.5 316.8,-36.5 316.8,-62.9 316.8,-62.9 316.8,-68.9 310.8,-74.9 304.8,-74.9"/>
<text xml:space="preserve" text-anchor="middle" x="230.4" y="-52.2" font-family="Arial" font-size="10.00" fill="#212121">MCP Tools</text>
<text xml:space="preserve" text-anchor="middle" x="230.4" y="-40.2" font-family="Arial" font-size="10.00" fill="#212121">(kcmd server)</text>
</g>
<!-- s5&#45;&gt;s5c -->
<g id="edge12" class="edge">
<title>s5&#45;&gt;s5c</title>
<path fill="none" stroke="#2196f3" stroke-width="1.5pt" d="M281.8,-384.86C281.8,-384.86 281.8,-87.52 281.8,-87.52"/>
<polygon fill="#2196f3" stroke="#2196f3" stroke-width="1.5pt" points="285.3,-87.52 281.8,-77.52 278.3,-87.52 285.3,-87.52"/>
</g>
<!-- s6&#45;&gt;s4 -->
<g id="edge13" class="edge">
<title>s6&#45;&gt;s4</title>
<path fill="none" stroke="#9c27b0" stroke-width="2pt" stroke-dasharray="5,2" d="M441.6,-320.26C441.6,-320.26 441.6,-732.21 441.6,-732.21"/>
<polygon fill="#9c27b0" stroke="#9c27b0" stroke-width="2pt" points="438.1,-732.21 441.6,-742.21 445.1,-732.21 438.1,-732.21"/>
<text xml:space="preserve" text-anchor="middle" x="474.22" y="-545.93" font-family="Times New Roman,serif" font-size="14.00">Governance</text>
<text xml:space="preserve" text-anchor="middle" x="474.22" y="-529.43" font-family="Times New Roman,serif" font-size="14.00">Feedback</text>
</g>
<!-- s4a&#45;&gt;s5 -->
<g id="edge8" class="edge">
<title>s4a&#45;&gt;s5</title>
<path fill="none" stroke="#ff9800" stroke-width="1.5pt" stroke-dasharray="5,2" d="M223,-630.03C223,-630.03 223,-462.63 223,-462.63"/>
<polygon fill="#ff9800" stroke="#ff9800" stroke-width="1.5pt" points="226.5,-462.63 223,-452.63 219.5,-462.63 226.5,-462.63"/>
</g>
<!-- s4a&#45;&gt;s4b -->
<!-- s4b&#45;&gt;s5 -->
<g id="edge9" class="edge">
<title>s4b&#45;&gt;s5</title>
<path fill="none" stroke="#ff9800" stroke-width="1.5pt" stroke-dasharray="5,2" d="M297.7,-514.7C297.7,-514.7 297.7,-462.6 297.7,-462.6"/>
<polygon fill="#ff9800" stroke="#ff9800" stroke-width="1.5pt" points="301.2,-462.6 297.7,-452.6 294.2,-462.6 301.2,-462.6"/>
</g>
<!-- s5a&#45;&gt;s5b -->
<!-- s5b&#45;&gt;s5c -->
<!-- legend -->
<g id="node12" class="node">
<title>legend</title>
<polygon fill="#f5f5f5" stroke="black" points="666.4,-1221.5 486.4,-1221.5 486.4,-1135.1 666.4,-1135.1 666.4,-1221.5"/>
<text xml:space="preserve" text-anchor="middle" x="576.4" y="-1196" font-family="Arial" font-size="9.00" fill="#212121">Legend:</text>
<text xml:space="preserve" text-anchor="middle" x="576.4" y="-1185.5" font-family="Arial" font-size="9.00" fill="#212121">&#45;&#45;&#45; Data Flow (blue)</text>
<text xml:space="preserve" text-anchor="middle" x="576.4" y="-1175" font-family="Arial" font-size="9.00" fill="#212121">&#45;&#45;&#45; Transform (purple)</text>
<text xml:space="preserve" text-anchor="middle" x="576.4" y="-1164.5" font-family="Arial" font-size="9.00" fill="#212121">&#45;&#45;&#45; Control/Trigger (orange)</text>
<text xml:space="preserve" text-anchor="middle" x="576.4" y="-1154" font-family="Arial" font-size="9.00" fill="#212121">&#45; &#45; Feedback (purple)</text>
</g>
</g>
</svg>
