<?xml version="1.0" encoding="UTF-8" standalone="no"?>
<!DOCTYPE svg PUBLIC "-//W3C//DTD SVG 1.1//EN"
 "http://www.w3.org/Graphics/SVG/1.1/DTD/svg11.dtd">
<!-- Generated by graphviz version 14.1.2 (0)
 -->
<!-- Title: kronos_components Pages: 1 -->
<svg width="279pt" height="677pt"
 viewBox="0.00 0.00 279.00 677.00" xmlns="http://www.w3.org/2000/svg" xmlns:xlink="http://www.w3.org/1999/xlink">
<g id="graph0" class="graph" transform="scale(1 1) rotate(0) translate(4 673)">
<title>kronos_components</title>
<polygon fill="white" stroke="none" points="-4,4 -4,-673 275.25,-673 275.25,4 -4,4"/>
<!-- s1_in -->
<g id="node1" class="node">
<title>s1_in</title>
<polygon fill="#4caf50" stroke="black" points="100.38,-669 19.88,-669 19.88,-633 100.38,-633 100.38,-669"/>
<text xml:space="preserve" text-anchor="middle" x="60.12" y="-647.3" font-family="Arial" font-size="11.00" fill="white">S1 Token IDs</text>
</g>
<!-- emb_s1 -->
<g id="node3" class="node">
<title>emb_s1</title>
<path fill="#2196f3" stroke="black" d="M108.25,-583C108.25,-583 12,-583 12,-583 6,-583 0,-577 0,-571 0,-571 0,-558.5 0,-558.5 0,-552.5 6,-546.5 12,-546.5 12,-546.5 108.25,-546.5 108.25,-546.5 114.25,-546.5 120.25,-552.5 120.25,-558.5 120.25,-558.5 120.25,-571 120.25,-571 120.25,-577 114.25,-583 108.25,-583"/>
<text xml:space="preserve" text-anchor="middle" x="60.12" y="-567.6" font-family="Arial Bold" font-size="12.00" fill="white">S1 Embedding</text>
<text xml:space="preserve" text-anchor="middle" x="60.12" y="-553.35" font-family="Arial Bold" font-size="12.00" fill="white">(Vocab: 2^s1_bits)</text>
</g>
<!-- s1_in&#45;&gt;emb_s1 -->
<g id="edge1" class="edge">
<title>s1_in&#45;&gt;emb_s1</title>
<path fill="none" stroke="#4caf50" stroke-width="2" d="M60.12,-632.71C60.12,-632.71 60.12,-596.34 60.12,-596.34"/>
<polygon fill="#4caf50" stroke="#4caf50" stroke-width="2" points="63.63,-596.34 60.13,-586.34 56.63,-596.34 63.63,-596.34"/>
</g>
<!-- s2_in -->
<g id="node2" class="node">
<title>s2_in</title>
<polygon fill="#4caf50" stroke="black" points="249.38,-669 168.88,-669 168.88,-633 249.38,-633 249.38,-669"/>
<text xml:space="preserve" text-anchor="middle" x="209.12" y="-647.3" font-family="Arial" font-size="11.00" fill="white">S2 Token IDs</text>
</g>
<!-- emb_s2 -->
<g id="node4" class="node">
<title>emb_s2</title>
<path fill="#2196f3" stroke="black" d="M257.25,-583C257.25,-583 161,-583 161,-583 155,-583 149,-577 149,-571 149,-571 149,-558.5 149,-558.5 149,-552.5 155,-546.5 161,-546.5 161,-546.5 257.25,-546.5 257.25,-546.5 263.25,-546.5 269.25,-552.5 269.25,-558.5 269.25,-558.5 269.25,-571 269.25,-571 269.25,-577 263.25,-583 257.25,-583"/>
<text xml:space="preserve" text-anchor="middle" x="209.12" y="-567.6" font-family="Arial Bold" font-size="12.00" fill="white">S2 Embedding</text>
<text xml:space="preserve" text-anchor="middle" x="209.12" y="-553.35" font-family="Arial Bold" font-size="12.00" fill="white">(Vocab: 2^s2_bits)</text>
</g>
<!-- s2_in&#45;&gt;emb_s2 -->
<g id="edge2" class="edge">
<title>s2_in&#45;&gt;emb_s2</title>
<path fill="none" stroke="#4caf50" stroke-width="2" d="M209.12,-632.71C209.12,-632.71 209.12,-596.34 209.12,-596.34"/>
<polygon fill="#4caf50" stroke="#4caf50" stroke-width="2" points="212.63,-596.34 209.13,-586.34 205.63,-596.34 212.63,-596.34"/>
</g>
<!-- fusion -->
<g id="node5" class="node">
<title>fusion</title>
<path fill="#2196f3" stroke="black" d="M159.38,-496.5C159.38,-496.5 108.88,-496.5 108.88,-496.5 102.88,-496.5 96.88,-490.5 96.88,-484.5 96.88,-484.5 96.88,-472 96.88,-472 96.88,-466 102.88,-460 108.88,-460 108.88,-460 159.38,-460 159.38,-460 165.38,-460 171.38,-466 171.38,-472 171.38,-472 171.38,-484.5 171.38,-484.5 171.38,-490.5 165.38,-496.5 159.38,-496.5"/>
<text xml:space="preserve" text-anchor="middle" x="134.12" y="-481.1" font-family="Arial Bold" font-size="12.00" fill="white">Fusion</text>
<text xml:space="preserve" text-anchor="middle" x="134.12" y="-466.85" font-family="Arial Bold" font-size="12.00" fill="white">Projection</text>
</g>
<!-- emb_s1&#45;&gt;fusion -->
<g id="edge3" class="edge">
<title>emb_s1&#45;&gt;fusion</title>
<path fill="none" stroke="#2196f3" stroke-width="2" d="M108.56,-546.41C108.56,-546.41 108.56,-509.89 108.56,-509.89"/>
<polygon fill="#2196f3" stroke="#2196f3" stroke-width="2" points="112.06,-509.89 108.56,-499.89 105.06,-509.89 112.06,-509.89"/>
</g>
<!-- emb_s2&#45;&gt;fusion -->
<g id="edge4" class="edge">
<title>emb_s2&#45;&gt;fusion</title>
<path fill="none" stroke="#2196f3" stroke-width="2" d="M160.19,-546.41C160.19,-546.41 160.19,-509.89 160.19,-509.89"/>
<polygon fill="#2196f3" stroke="#2196f3" stroke-width="2" points="163.69,-509.89 160.19,-499.89 156.69,-509.89 163.69,-509.89"/>
</g>
<!-- time_emb -->
<g id="node6" class="node">
<title>time_emb</title>
<path fill="#2196f3" stroke="black" d="M191.25,-410C191.25,-410 77,-410 77,-410 71,-410 65,-404 65,-398 65,-398 65,-371.25 65,-371.25 65,-365.25 71,-359.25 77,-359.25 77,-359.25 191.25,-359.25 191.25,-359.25 197.25,-359.25 203.25,-365.25 203.25,-371.25 203.25,-371.25 203.25,-398 203.25,-398 203.25,-404 197.25,-410 191.25,-410"/>
<text xml:space="preserve" text-anchor="middle" x="134.12" y="-394.6" font-family="Arial Bold" font-size="12.00" fill="white">Temporal Embedding</text>
<text xml:space="preserve" text-anchor="middle" x="134.12" y="-380.35" font-family="Arial Bold" font-size="12.00" fill="white">(Minute, Hour, Day,</text>
<text xml:space="preserve" text-anchor="middle" x="134.12" y="-366.1" font-family="Arial Bold" font-size="12.00" fill="white">Weekday, Month)</text>
</g>
<!-- fusion&#45;&gt;time_emb -->
<g id="edge5" class="edge">
<title>fusion&#45;&gt;time_emb</title>
<path fill="none" stroke="#2196f3" stroke-width="2" d="M134.12,-459.75C134.12,-459.75 134.12,-423.2 134.12,-423.2"/>
<polygon fill="#2196f3" stroke="#2196f3" stroke-width="2" points="137.63,-423.2 134.13,-413.2 130.63,-423.2 137.63,-423.2"/>
</g>
<!-- trans_block -->
<g id="node7" class="node">
<title>trans_block</title>
<path fill="#00bcd4" stroke="black" d="M191.25,-309.25C191.25,-309.25 77,-309.25 77,-309.25 71,-309.25 65,-303.25 65,-297.25 65,-297.25 65,-270.5 65,-270.5 65,-264.5 71,-258.5 77,-258.5 77,-258.5 191.25,-258.5 191.25,-258.5 197.25,-258.5 203.25,-264.5 203.25,-270.5 203.25,-270.5 203.25,-297.25 203.25,-297.25 203.25,-303.25 197.25,-309.25 191.25,-309.25"/>
<text xml:space="preserve" text-anchor="middle" x="134.12" y="-293.85" font-family="Arial Bold" font-size="12.00" fill="white">Transformer Block</text>
<text xml:space="preserve" text-anchor="middle" x="134.12" y="-279.6" font-family="Arial Bold" font-size="12.00" fill="white">(Self&#45;Attention + FFN)</text>
<text xml:space="preserve" text-anchor="middle" x="134.12" y="-265.35" font-family="Arial Bold" font-size="12.00" fill="white">with RoPE</text>
</g>
<!-- time_emb&#45;&gt;trans_block -->
<g id="edge6" class="edge">
<title>time_emb&#45;&gt;trans_block</title>
<path fill="none" stroke="#00bcd4" stroke-width="2" d="M134.12,-358.94C134.12,-358.94 134.12,-322.54 134.12,-322.54"/>
<polygon fill="#00bcd4" stroke="#00bcd4" stroke-width="2" points="137.63,-322.54 134.13,-312.54 130.63,-322.54 137.63,-322.54"/>
</g>
<!-- dep_layer -->
<g id="node8" class="node">
<title>dep_layer</title>
<path fill="#ff9800" stroke="black" d="M132.38,-208.5C132.38,-208.5 27.88,-208.5 27.88,-208.5 21.88,-208.5 15.88,-202.5 15.88,-196.5 15.88,-196.5 15.88,-184.5 15.88,-184.5 15.88,-178.5 21.88,-172.5 27.88,-172.5 27.88,-172.5 132.38,-172.5 132.38,-172.5 138.38,-172.5 144.38,-178.5 144.38,-184.5 144.38,-184.5 144.38,-196.5 144.38,-196.5 144.38,-202.5 138.38,-208.5 132.38,-208.5"/>
<text xml:space="preserve" text-anchor="middle" x="80.12" y="-193.55" font-family="Arial" font-size="11.00" fill="white">Dependency&#45;Aware</text>
<text xml:space="preserve" text-anchor="middle" x="80.12" y="-180.05" font-family="Arial" font-size="11.00" fill="white">Layer (Cross&#45;Attention)</text>
</g>
<!-- trans_block&#45;&gt;dep_layer -->
<g id="edge8" class="edge">
<title>trans_block&#45;&gt;dep_layer</title>
<path fill="none" stroke="#00bcd4" stroke-width="2" d="M104.69,-258.36C104.69,-258.36 104.69,-221.91 104.69,-221.91"/>
<polygon fill="#00bcd4" stroke="#00bcd4" stroke-width="2" points="108.19,-221.91 104.69,-211.91 101.19,-221.91 108.19,-221.91"/>
</g>
<!-- s1_head -->
<g id="node9" class="node">
<title>s1_head</title>
<path fill="#2196f3" stroke="black" d="M259.25,-122.5C259.25,-122.5 157,-122.5 157,-122.5 151,-122.5 145,-116.5 145,-110.5 145,-110.5 145,-98 145,-98 145,-92 151,-86 157,-86 157,-86 259.25,-86 259.25,-86 265.25,-86 271.25,-92 271.25,-98 271.25,-98 271.25,-110.5 271.25,-110.5 271.25,-116.5 265.25,-122.5 259.25,-122.5"/>
<text xml:space="preserve" text-anchor="middle" x="208.12" y="-107.1" font-family="Arial Bold" font-size="12.00" fill="white">S1 Head</text>
<text xml:space="preserve" text-anchor="middle" x="208.12" y="-92.85" font-family="Arial Bold" font-size="12.00" fill="white">(Coarse Prediction)</text>
</g>
<!-- trans_block&#45;&gt;s1_head -->
<g id="edge7" class="edge">
<title>trans_block&#45;&gt;s1_head</title>
<path fill="none" stroke="#00bcd4" stroke-width="2" d="M174.12,-258.14C174.12,-258.14 174.12,-135.85 174.12,-135.85"/>
<polygon fill="#00bcd4" stroke="#00bcd4" stroke-width="2" points="177.63,-135.85 174.13,-125.85 170.63,-135.85 177.63,-135.85"/>
</g>
<!-- s2_head -->
<g id="node10" class="node">
<title>s2_head</title>
<path fill="#2196f3" stroke="black" d="M104,-122.5C104,-122.5 18.25,-122.5 18.25,-122.5 12.25,-122.5 6.25,-116.5 6.25,-110.5 6.25,-110.5 6.25,-98 6.25,-98 6.25,-92 12.25,-86 18.25,-86 18.25,-86 104,-86 104,-86 110,-86 116,-92 116,-98 116,-98 116,-110.5 116,-110.5 116,-116.5 110,-122.5 104,-122.5"/>
<text xml:space="preserve" text-anchor="middle" x="61.12" y="-107.1" font-family="Arial Bold" font-size="12.00" fill="white">S2 Head</text>
<text xml:space="preserve" text-anchor="middle" x="61.12" y="-92.85" font-family="Arial Bold" font-size="12.00" fill="white">(Fine Prediction)</text>
</g>
<!-- dep_layer&#45;&gt;s2_head -->
<g id="edge9" class="edge">
<title>dep_layer&#45;&gt;s2_head</title>
<path fill="none" stroke="#ff9800" stroke-width="2" d="M65.94,-172.21C65.94,-172.21 65.94,-135.84 65.94,-135.84"/>
<polygon fill="#ff9800" stroke="#ff9800" stroke-width="2" points="69.44,-135.84 65.94,-125.84 62.44,-135.84 69.44,-135.84"/>
</g>
<!-- output -->
<g id="node11" class="node">
<title>output</title>
<polygon fill="#f44336" stroke="black" points="174,-36 94.25,-36 94.25,0 174,0 174,-36"/>
<text xml:space="preserve" text-anchor="middle" x="134.12" y="-21.05" font-family="Arial" font-size="11.00" fill="white">Hierarchical</text>
<text xml:space="preserve" text-anchor="middle" x="134.12" y="-7.55" font-family="Arial" font-size="11.00" fill="white">Token Output</text>
</g>
<!-- s1_head&#45;&gt;output -->
<g id="edge10" class="edge">
<title>s1_head&#45;&gt;output</title>
<path fill="none" stroke="#f44336" stroke-width="2" d="M159.5,-85.54C159.5,-85.54 159.5,-49.41 159.5,-49.41"/>
<polygon fill="#f44336" stroke="#f44336" stroke-width="2" points="163,-49.41 159.5,-39.41 156,-49.41 163,-49.41"/>
</g>
<!-- s2_head&#45;&gt;output -->
<g id="edge11" class="edge">
<title>s2_head&#45;&gt;output</title>
<path fill="none" stroke="#f44336" stroke-width="2" d="M105.12,-85.54C105.12,-85.54 105.12,-49.41 105.12,-49.41"/>
<polygon fill="#f44336" stroke="#f44336" stroke-width="2" points="108.63,-49.41 105.13,-39.41 101.63,-49.41 108.63,-49.41"/>
</g>
</g>
</svg>
