<?xml version="1.0" encoding="UTF-8" standalone="no"?>
<!DOCTYPE svg PUBLIC "-//W3C//DTD SVG 1.1//EN"
 "http://www.w3.org/Graphics/SVG/1.1/DTD/svg11.dtd">
<!-- Generated by graphviz version 14.1.2 (0)
 -->
<!-- Title: kronos_finetuning Pages: 1 -->
<svg width="566pt" height="516pt"
 viewBox="0.00 0.00 566.00 516.00" xmlns="http://www.w3.org/2000/svg" xmlns:xlink="http://www.w3.org/1999/xlink">
<g id="graph0" class="graph" transform="scale(1 1) rotate(0) translate(4 511.5)">
<title>kronos_finetuning</title>
<polygon fill="white" stroke="none" points="-4,4 -4,-511.5 561.88,-511.5 561.88,4 -4,4"/>
<!-- raw_data -->
<g id="node1" class="node">
<title>raw_data</title>
<polygon fill="#4caf50" stroke="black" points="118,-507.5 17.25,-507.5 17.25,-471.5 118,-471.5 118,-507.5"/>
<text xml:space="preserve" text-anchor="middle" x="67.62" y="-492.55" font-family="Arial" font-size="11.00" fill="white">Raw Market Data</text>
<text xml:space="preserve" text-anchor="middle" x="67.62" y="-479.05" font-family="Arial" font-size="11.00" fill="white">(Qlib/CSV)</text>
</g>
<!-- preprocess -->
<g id="node2" class="node">
<title>preprocess</title>
<path fill="#2196f3" stroke="black" d="M121.38,-413.5C121.38,-413.5 13.88,-413.5 13.88,-413.5 7.88,-413.5 1.88,-407.5 1.88,-401.5 1.88,-401.5 1.88,-389 1.88,-389 1.88,-383 7.88,-377 13.88,-377 13.88,-377 121.38,-377 121.38,-377 127.38,-377 133.38,-383 133.38,-389 133.38,-389 133.38,-401.5 133.38,-401.5 133.38,-407.5 127.38,-413.5 121.38,-413.5"/>
<text xml:space="preserve" text-anchor="middle" x="67.62" y="-398.1" font-family="Arial Bold" font-size="12.00" fill="white">Data Preprocessing</text>
<text xml:space="preserve" text-anchor="middle" x="67.62" y="-383.85" font-family="Arial Bold" font-size="12.00" fill="white">(Split: Train/Val/Test)</text>
</g>
<!-- raw_data&#45;&gt;preprocess -->
<g id="edge1" class="edge">
<title>raw_data&#45;&gt;preprocess</title>
<path fill="none" stroke="#4caf50" stroke-width="2" d="M67.62,-471.33C67.62,-471.33 67.62,-426.72 67.62,-426.72"/>
<polygon fill="#4caf50" stroke="#4caf50" stroke-width="2" points="71.13,-426.72 67.63,-416.72 64.13,-426.72 71.13,-426.72"/>
</g>
<!-- tok_train -->
<g id="node4" class="node">
<title>tok_train</title>
<path fill="#ff9800" stroke="black" d="M107.12,-319C107.12,-319 28.12,-319 28.12,-319 22.12,-319 16.12,-313 16.12,-307 16.12,-307 16.12,-295 16.12,-295 16.12,-289 22.12,-283 28.12,-283 28.12,-283 107.12,-283 107.12,-283 113.12,-283 119.12,-289 119.12,-295 119.12,-295 119.12,-307 119.12,-307 119.12,-313 113.12,-319 107.12,-319"/>
<text xml:space="preserve" text-anchor="middle" x="67.62" y="-304.05" font-family="Arial" font-size="11.00" fill="white">Tokenizer Training</text>
<text xml:space="preserve" text-anchor="middle" x="67.62" y="-290.55" font-family="Arial" font-size="11.00" fill="white">(BSQ Loss)</text>
</g>
<!-- preprocess&#45;&gt;tok_train -->
<g id="edge2" class="edge">
<title>preprocess&#45;&gt;tok_train</title>
<path fill="none" stroke="#2196f3" stroke-width="2" d="M67.62,-376.63C67.62,-376.63 67.62,-332.29 67.62,-332.29"/>
<polygon fill="#2196f3" stroke="#2196f3" stroke-width="2" points="71.13,-332.29 67.63,-322.29 64.13,-332.29 71.13,-332.29"/>
</g>
<!-- stage1 -->
<g id="node3" class="node">
<title>stage1</title>
<text xml:space="preserve" text-anchor="middle" x="246.62" y="-485.23" font-family="Arial Bold" font-size="12.00" fill="#2196f3">Stage 1: Tokenizer Finetuning</text>
</g>
<!-- pred_train -->
<g id="node6" class="node">
<title>pred_train</title>
<path fill="#00bcd4" stroke="black" d="M114.62,-225C114.62,-225 20.62,-225 20.62,-225 14.62,-225 8.62,-219 8.62,-213 8.62,-213 8.62,-200.5 8.62,-200.5 8.62,-194.5 14.62,-188.5 20.62,-188.5 20.62,-188.5 114.62,-188.5 114.62,-188.5 120.62,-188.5 126.62,-194.5 126.62,-200.5 126.62,-200.5 126.62,-213 126.62,-213 126.62,-219 120.62,-225 114.62,-225"/>
<text xml:space="preserve" text-anchor="middle" x="67.62" y="-209.6" font-family="Arial Bold" font-size="12.00" fill="white">Predictor Training</text>
<text xml:space="preserve" text-anchor="middle" x="67.62" y="-195.35" font-family="Arial Bold" font-size="12.00" fill="white">(Autoregressive)</text>
</g>
<!-- tok_train&#45;&gt;pred_train -->
<g id="edge3" class="edge">
<title>tok_train&#45;&gt;pred_train</title>
<path fill="none" stroke="#ff9800" stroke-width="2" d="M67.62,-282.83C67.62,-282.83 67.62,-238.22 67.62,-238.22"/>
<polygon fill="#ff9800" stroke="#ff9800" stroke-width="2" points="71.13,-238.22 67.63,-228.22 64.13,-238.22 71.13,-238.22"/>
</g>
<!-- stage2 -->
<g id="node5" class="node">
<title>stage2</title>
<text xml:space="preserve" text-anchor="middle" x="466.62" y="-485.23" font-family="Arial Bold" font-size="12.00" fill="#9c27b0">Stage 2: Predictor Finetuning</text>
</g>
<!-- backtest -->
<g id="node7" class="node">
<title>backtest</title>
<path fill="#2196f3" stroke="black" d="M123.25,-130.5C123.25,-130.5 12,-130.5 12,-130.5 6,-130.5 0,-124.5 0,-118.5 0,-118.5 0,-106 0,-106 0,-100 6,-94 12,-94 12,-94 123.25,-94 123.25,-94 129.25,-94 135.25,-100 135.25,-106 135.25,-106 135.25,-118.5 135.25,-118.5 135.25,-124.5 129.25,-130.5 123.25,-130.5"/>
<text xml:space="preserve" text-anchor="middle" x="67.62" y="-115.1" font-family="Arial Bold" font-size="12.00" fill="white">Backtesting</text>
<text xml:space="preserve" text-anchor="middle" x="67.62" y="-100.85" font-family="Arial Bold" font-size="12.00" fill="white">(Strategy Evaluation)</text>
</g>
<!-- pred_train&#45;&gt;backtest -->
<g id="edge4" class="edge">
<title>pred_train&#45;&gt;backtest</title>
<path fill="none" stroke="#00bcd4" stroke-width="2" d="M67.62,-188.08C67.62,-188.08 67.62,-143.91 67.62,-143.91"/>
<polygon fill="#00bcd4" stroke="#00bcd4" stroke-width="2" points="71.13,-143.91 67.63,-133.91 64.13,-143.91 71.13,-143.91"/>
</g>
<!-- results -->
<g id="node8" class="node">
<title>results</title>
<polygon fill="#f44336" stroke="black" points="130.75,-36 4.5,-36 4.5,0 130.75,0 130.75,-36"/>
<text xml:space="preserve" text-anchor="middle" x="67.62" y="-21.05" font-family="Arial" font-size="11.00" fill="white">Performance Metrics</text>
<text xml:space="preserve" text-anchor="middle" x="67.62" y="-7.55" font-family="Arial" font-size="11.00" fill="white">(Returns, Sharpe, etc.)</text>
</g>
<!-- backtest&#45;&gt;results -->
<g id="edge5" class="edge">
<title>backtest&#45;&gt;results</title>
<path fill="none" stroke="#f44336" stroke-width="2" d="M67.62,-93.63C67.62,-93.63 67.62,-49.29 67.62,-49.29"/>
<polygon fill="#f44336" stroke="#f44336" stroke-width="2" points="71.13,-49.29 67.63,-39.29 64.13,-49.29 71.13,-49.29"/>
</g>
</g>
</svg>
