<?xml version="1.0" encoding="UTF-8" standalone="no"?>
<!DOCTYPE svg PUBLIC "-//W3C//DTD SVG 1.1//EN"
 "http://www.w3.org/Graphics/SVG/1.1/DTD/svg11.dtd">
<!-- Generated by graphviz version 14.1.2 (0)
 -->
<!-- Title: last30days_sources Pages: 1 -->
<svg width="780pt" height="417pt"
 viewBox="0.00 0.00 780.00 417.00" xmlns="http://www.w3.org/2000/svg" xmlns:xlink="http://www.w3.org/1999/xlink">
<g id="graph0" class="graph" transform="scale(1 1) rotate(0) translate(4 413)">
<title>last30days_sources</title>
<polygon fill="white" stroke="none" points="-4,4 -4,-413 775.75,-413 775.75,4 -4,4"/>
<!-- social_header -->
<g id="node1" class="node">
<title>social_header</title>
<path fill="#607d8b" stroke="black" d="M214,-409C214,-409 156,-409 156,-409 150,-409 144,-403 144,-397 144,-397 144,-385 144,-385 144,-379 150,-373 156,-373 156,-373 214,-373 214,-373 220,-373 226,-379 226,-385 226,-385 226,-397 226,-397 226,-403 220,-409 214,-409"/>
<text xml:space="preserve" text-anchor="middle" x="185" y="-387.3" font-family="Arial Bold" font-size="11.00" fill="white">Social Media</text>
</g>
<!-- reddit -->
<g id="node2" class="node">
<title>reddit</title>
<path fill="#ff9800" stroke="black" d="M42,-120.5C42,-120.5 12,-120.5 12,-120.5 6,-120.5 0,-114.5 0,-108.5 0,-108.5 0,-96.5 0,-96.5 0,-90.5 6,-84.5 12,-84.5 12,-84.5 42,-84.5 42,-84.5 48,-84.5 54,-90.5 54,-96.5 54,-96.5 54,-108.5 54,-108.5 54,-114.5 48,-120.5 42,-120.5"/>
<text xml:space="preserve" text-anchor="middle" x="27" y="-98.8" font-family="Arial" font-size="11.00" fill="white">Reddit</text>
</g>
<!-- social_header&#45;&gt;reddit -->
<g id="edge1" class="edge">
<title>social_header&#45;&gt;reddit</title>
<path fill="none" stroke="#607d8b" stroke-width="1.5" d="M143.9,-391C97.09,-391 27,-391 27,-391 27,-391 27,-133.26 27,-133.26"/>
<polygon fill="#607d8b" stroke="#607d8b" stroke-width="1.5" points="30.5,-133.26 27,-123.26 23.5,-133.26 30.5,-133.26"/>
</g>
<!-- x_twitter -->
<g id="node3" class="node">
<title>x_twitter</title>
<path fill="#ff9800" stroke="black" d="M106.38,-192.75C106.38,-192.75 71.62,-192.75 71.62,-192.75 65.62,-192.75 59.62,-186.75 59.62,-180.75 59.62,-180.75 59.62,-168.75 59.62,-168.75 59.62,-162.75 65.62,-156.75 71.62,-156.75 71.62,-156.75 106.38,-156.75 106.38,-156.75 112.38,-156.75 118.38,-162.75 118.38,-168.75 118.38,-168.75 118.38,-180.75 118.38,-180.75 118.38,-186.75 112.38,-192.75 106.38,-192.75"/>
<text xml:space="preserve" text-anchor="middle" x="89" y="-171.05" font-family="Arial" font-size="11.00" fill="white">X/Twitter</text>
</g>
<!-- social_header&#45;&gt;x_twitter -->
<g id="edge2" class="edge">
<title>social_header&#45;&gt;x_twitter</title>
<path fill="none" stroke="#607d8b" stroke-width="1.5" d="M155.33,-372.63C155.33,-321.97 155.33,-184 155.33,-184 155.33,-184 130.94,-184 130.94,-184"/>
<polygon fill="#607d8b" stroke="#607d8b" stroke-width="1.5" points="130.94,-180.5 120.94,-184 130.94,-187.5 130.94,-180.5"/>
</g>
<!-- tiktok -->
<g id="node4" class="node">
<title>tiktok</title>
<path fill="#ff9800" stroke="black" d="M166,-120.5C166,-120.5 136,-120.5 136,-120.5 130,-120.5 124,-114.5 124,-108.5 124,-108.5 124,-96.5 124,-96.5 124,-90.5 130,-84.5 136,-84.5 136,-84.5 166,-84.5 166,-84.5 172,-84.5 178,-90.5 178,-96.5 178,-96.5 178,-108.5 178,-108.5 178,-114.5 172,-120.5 166,-120.5"/>
<text xml:space="preserve" text-anchor="middle" x="151" y="-98.8" font-family="Arial" font-size="11.00" fill="white">TikTok</text>
</g>
<!-- social_header&#45;&gt;tiktok -->
<g id="edge3" class="edge">
<title>social_header&#45;&gt;tiktok</title>
<path fill="none" stroke="#607d8b" stroke-width="1.5" d="M166.67,-372.51C166.67,-372.51 166.67,-133.1 166.67,-133.1"/>
<polygon fill="#607d8b" stroke="#607d8b" stroke-width="1.5" points="170.17,-133.1 166.67,-123.1 163.17,-133.1 170.17,-133.1"/>
</g>
<!-- instagram -->
<g id="node5" class="node">
<title>instagram</title>
<path fill="#ff9800" stroke="black" d="M238,-337C238,-337 198,-337 198,-337 192,-337 186,-331 186,-325 186,-325 186,-313 186,-313 186,-307 192,-301 198,-301 198,-301 238,-301 238,-301 244,-301 250,-307 250,-313 250,-313 250,-325 250,-325 250,-331 244,-337 238,-337"/>
<text xml:space="preserve" text-anchor="middle" x="218" y="-315.3" font-family="Arial" font-size="11.00" fill="white">Instagram</text>
</g>
<!-- social_header&#45;&gt;instagram -->
<g id="edge4" class="edge">
<title>social_header&#45;&gt;instagram</title>
<path fill="none" stroke="#607d8b" stroke-width="1.5" d="M206,-372.83C206,-372.83 206,-349.68 206,-349.68"/>
<polygon fill="#607d8b" stroke="#607d8b" stroke-width="1.5" points="209.5,-349.68 206,-339.68 202.5,-349.68 209.5,-349.68"/>
</g>
<!-- threads -->
<g id="node6" class="node">
<title>threads</title>
<path fill="#ff9800" stroke="black" d="M315.88,-337C315.88,-337 284.12,-337 284.12,-337 278.12,-337 272.12,-331 272.12,-325 272.12,-325 272.12,-313 272.12,-313 272.12,-307 278.12,-301 284.12,-301 284.12,-301 315.88,-301 315.88,-301 321.88,-301 327.88,-307 327.88,-313 327.88,-313 327.88,-325 327.88,-325 327.88,-331 321.88,-337 315.88,-337"/>
<text xml:space="preserve" text-anchor="middle" x="300" y="-315.3" font-family="Arial" font-size="11.00" fill="white">Threads</text>
</g>
<!-- social_header&#45;&gt;threads -->
<g id="edge5" class="edge">
<title>social_header&#45;&gt;threads</title>
<path fill="none" stroke="#607d8b" stroke-width="1.5" d="M226.19,-385C259.19,-385 300,-385 300,-385 300,-385 300,-349.65 300,-349.65"/>
<polygon fill="#607d8b" stroke="#607d8b" stroke-width="1.5" points="303.5,-349.65 300,-339.65 296.5,-349.66 303.5,-349.65"/>
</g>
<!-- tech_header -->
<g id="node7" class="node">
<title>tech_header</title>
<path fill="#607d8b" stroke="black" d="M458.38,-337C458.38,-337 387.62,-337 387.62,-337 381.62,-337 375.62,-331 375.62,-325 375.62,-325 375.62,-313 375.62,-313 375.62,-307 381.62,-301 387.62,-301 387.62,-301 458.38,-301 458.38,-301 464.38,-301 470.38,-307 470.38,-313 470.38,-313 470.38,-325 470.38,-325 470.38,-331 464.38,-337 458.38,-337"/>
<text xml:space="preserve" text-anchor="middle" x="423" y="-315.3" font-family="Arial Bold" font-size="11.00" fill="white">Tech Platforms</text>
</g>
<!-- social_header&#45;&gt;tech_header -->
<!-- aggregator -->
<g id="node17" class="node">
<title>aggregator</title>
<polygon fill="#f44336" stroke="black" points="369.5,-48.5 284.5,-48.5 284.5,0 369.5,0 369.5,-48.5"/>
<text xml:space="preserve" text-anchor="middle" x="327" y="-34.05" font-family="Arial" font-size="11.00" fill="white">Multi&#45;Source</text>
<text xml:space="preserve" text-anchor="middle" x="327" y="-20.55" font-family="Arial" font-size="11.00" fill="white">Aggregator</text>
<text xml:space="preserve" text-anchor="middle" x="327" y="-7.05" font-family="Arial" font-size="11.00" fill="white">(12+ Sources)</text>
</g>
<!-- reddit&#45;&gt;aggregator -->
<g id="edge16" class="edge">
<title>reddit&#45;&gt;aggregator</title>
<path fill="none" stroke="#9c27b0" stroke-width="1.5" d="M27,-84.16C27,-58.76 27,-16 27,-16 27,-16 271.75,-16 271.75,-16"/>
<polygon fill="#9c27b0" stroke="#9c27b0" stroke-width="1.5" points="271.75,-19.5 281.75,-16 271.75,-12.5 271.75,-19.5"/>
</g>
<!-- x_twitter&#45;&gt;aggregator -->
<g id="edge17" class="edge">
<title>x_twitter&#45;&gt;aggregator</title>
<path fill="none" stroke="#9c27b0" stroke-width="1.5" d="M118.86,-175C174.49,-175 288.44,-175 288.44,-175 288.44,-175 288.44,-61.08 288.44,-61.08"/>
<polygon fill="#9c27b0" stroke="#9c27b0" stroke-width="1.5" points="291.94,-61.08 288.44,-51.08 284.94,-61.08 291.94,-61.08"/>
</g>
<!-- tiktok&#45;&gt;aggregator -->
<g id="edge18" class="edge">
<title>tiktok&#45;&gt;aggregator</title>
<path fill="none" stroke="#9c27b0" stroke-width="1.5" d="M178.41,-97C218,-97 286.47,-97 286.47,-97 286.47,-97 286.47,-61.15 286.47,-61.15"/>
<polygon fill="#9c27b0" stroke="#9c27b0" stroke-width="1.5" points="289.97,-61.15 286.47,-51.15 282.97,-61.15 289.97,-61.15"/>
</g>
<!-- instagram&#45;&gt;aggregator -->
<g id="edge19" class="edge">
<title>instagram&#45;&gt;aggregator</title>
<path fill="none" stroke="#9c27b0" stroke-width="1.5" d="M218,-300.61C218,-237.27 218,-32 218,-32 218,-32 271.96,-32 271.96,-32"/>
<polygon fill="#9c27b0" stroke="#9c27b0" stroke-width="1.5" points="271.96,-35.5 281.96,-32 271.96,-28.5 271.96,-35.5"/>
</g>
<!-- threads&#45;&gt;aggregator -->
<g id="edge20" class="edge">
<title>threads&#45;&gt;aggregator</title>
<path fill="none" stroke="#9c27b0" stroke-width="1.5" d="M290.41,-300.56C290.41,-300.56 290.41,-60.99 290.41,-60.99"/>
<polygon fill="#9c27b0" stroke="#9c27b0" stroke-width="1.5" points="293.91,-60.99 290.41,-50.99 286.91,-60.99 293.91,-60.99"/>
</g>
<!-- hn -->
<g id="node8" class="node">
<title>hn</title>
<path fill="#9c27b0" stroke="black" d="M361.62,-265C361.62,-265 304.38,-265 304.38,-265 298.38,-265 292.38,-259 292.38,-253 292.38,-253 292.38,-241 292.38,-241 292.38,-235 298.38,-229 304.38,-229 304.38,-229 361.62,-229 361.62,-229 367.62,-229 373.62,-235 373.62,-241 373.62,-241 373.62,-253 373.62,-253 373.62,-259 367.62,-265 361.62,-265"/>
<text xml:space="preserve" text-anchor="middle" x="333" y="-243.3" font-family="Arial" font-size="11.00" fill="white">Hacker News</text>
</g>
<!-- tech_header&#45;&gt;hn -->
<g id="edge7" class="edge">
<title>tech_header&#45;&gt;hn</title>
<path fill="none" stroke="#607d8b" stroke-width="1.5" d="M385.81,-300.83C385.81,-279.5 385.81,-247 385.81,-247 385.81,-247 384.64,-247 384.64,-247"/>
<polygon fill="#607d8b" stroke="#607d8b" stroke-width="1.5" points="386.36,-243.5 376.36,-247 386.36,-250.5 386.36,-243.5"/>
</g>
<!-- github -->
<g id="node9" class="node">
<title>github</title>
<path fill="#9c27b0" stroke="black" d="M438,-265C438,-265 408,-265 408,-265 402,-265 396,-259 396,-253 396,-253 396,-241 396,-241 396,-235 402,-229 408,-229 408,-229 438,-229 438,-229 444,-229 450,-235 450,-241 450,-241 450,-253 450,-253 450,-259 444,-265 438,-265"/>
<text xml:space="preserve" text-anchor="middle" x="423" y="-243.3" font-family="Arial" font-size="11.00" fill="white">GitHub</text>
</g>
<!-- tech_header&#45;&gt;github -->
<g id="edge8" class="edge">
<title>tech_header&#45;&gt;github</title>
<path fill="none" stroke="#607d8b" stroke-width="1.5" d="M423,-300.83C423,-300.83 423,-277.68 423,-277.68"/>
<polygon fill="#607d8b" stroke="#607d8b" stroke-width="1.5" points="426.5,-277.68 423,-267.68 419.5,-277.68 426.5,-277.68"/>
</g>
<!-- bluesky -->
<g id="node10" class="node">
<title>bluesky</title>
<path fill="#9c27b0" stroke="black" d="M514,-265C514,-265 484,-265 484,-265 478,-265 472,-259 472,-253 472,-253 472,-241 472,-241 472,-235 478,-229 484,-229 484,-229 514,-229 514,-229 520,-229 526,-235 526,-241 526,-241 526,-253 526,-253 526,-259 520,-265 514,-265"/>
<text xml:space="preserve" text-anchor="middle" x="499" y="-243.3" font-family="Arial" font-size="11.00" fill="white">Bluesky</text>
</g>
<!-- tech_header&#45;&gt;bluesky -->
<g id="edge9" class="edge">
<title>tech_header&#45;&gt;bluesky</title>
<path fill="none" stroke="#607d8b" stroke-width="1.5" d="M460.19,-300.83C460.19,-279.5 460.19,-247 460.19,-247 460.19,-247 461.33,-247 461.33,-247"/>
<polygon fill="#607d8b" stroke="#607d8b" stroke-width="1.5" points="459.35,-250.5 469.35,-247 459.35,-243.5 459.35,-250.5"/>
</g>
<!-- search_header -->
<g id="node11" class="node">
<title>search_header</title>
<path fill="#607d8b" stroke="black" d="M655.75,-265C655.75,-265 560.25,-265 560.25,-265 554.25,-265 548.25,-259 548.25,-253 548.25,-253 548.25,-241 548.25,-241 548.25,-235 554.25,-229 560.25,-229 560.25,-229 655.75,-229 655.75,-229 661.75,-229 667.75,-235 667.75,-241 667.75,-241 667.75,-253 667.75,-253 667.75,-259 661.75,-265 655.75,-265"/>
<text xml:space="preserve" text-anchor="middle" x="608" y="-243.3" font-family="Arial Bold" font-size="11.00" fill="white">Search &amp; Discovery</text>
</g>
<!-- tech_header&#45;&gt;search_header -->
<!-- hn&#45;&gt;aggregator -->
<g id="edge21" class="edge">
<title>hn&#45;&gt;aggregator</title>
<path fill="none" stroke="#9c27b0" stroke-width="1.5" d="M311.66,-228.77C311.66,-228.77 311.66,-61 311.66,-61"/>
<polygon fill="#9c27b0" stroke="#9c27b0" stroke-width="1.5" points="315.16,-61 311.66,-51 308.16,-61 315.16,-61"/>
</g>
<!-- github&#45;&gt;aggregator -->
<g id="edge22" class="edge">
<title>github&#45;&gt;aggregator</title>
<path fill="none" stroke="#9c27b0" stroke-width="1.5" d="M413.25,-228.54C413.25,-177.64 413.25,-39 413.25,-39 413.25,-39 382.14,-39 382.14,-39"/>
<polygon fill="#9c27b0" stroke="#9c27b0" stroke-width="1.5" points="382.14,-35.5 372.14,-39 382.14,-42.5 382.14,-35.5"/>
</g>
<!-- bluesky&#45;&gt;aggregator -->
<g id="edge23" class="edge">
<title>bluesky&#45;&gt;aggregator</title>
<path fill="none" stroke="#9c27b0" stroke-width="1.5" d="M514.44,-228.79C514.44,-176.39 514.44,-29 514.44,-29 514.44,-29 381.8,-29 381.8,-29"/>
<polygon fill="#9c27b0" stroke="#9c27b0" stroke-width="1.5" points="381.8,-25.5 371.8,-29 381.8,-32.5 381.8,-25.5"/>
</g>
<!-- perplexity -->
<g id="node12" class="node">
<title>perplexity</title>
<path fill="#2196f3" stroke="black" d="M491.5,-192.75C491.5,-192.75 442.5,-192.75 442.5,-192.75 436.5,-192.75 430.5,-186.75 430.5,-180.75 430.5,-180.75 430.5,-168.75 430.5,-168.75 430.5,-162.75 436.5,-156.75 442.5,-156.75 442.5,-156.75 491.5,-156.75 491.5,-156.75 497.5,-156.75 503.5,-162.75 503.5,-168.75 503.5,-168.75 503.5,-180.75 503.5,-180.75 503.5,-186.75 497.5,-192.75 491.5,-192.75"/>
<text xml:space="preserve" text-anchor="middle" x="467" y="-170.47" font-family="Arial Bold" font-size="12.00" fill="white">Perplexity</text>
</g>
<!-- search_header&#45;&gt;perplexity -->
<g id="edge11" class="edge">
<title>search_header&#45;&gt;perplexity</title>
<path fill="none" stroke="#607d8b" stroke-width="1.5" d="M581.71,-228.58C581.71,-219.72 581.71,-211 581.71,-211 581.71,-211 487.75,-211 487.75,-211 487.75,-211 487.75,-205.15 487.75,-205.15"/>
<polygon fill="#607d8b" stroke="#607d8b" stroke-width="1.5" points="491.25,-205.15 487.75,-195.15 484.25,-205.15 491.25,-205.15"/>
</g>
<!-- web -->
<g id="node13" class="node">
<title>web</title>
<path fill="#2196f3" stroke="black" d="M636.62,-193C636.62,-193 537.38,-193 537.38,-193 531.38,-193 525.38,-187 525.38,-181 525.38,-181 525.38,-168.5 525.38,-168.5 525.38,-162.5 531.38,-156.5 537.38,-156.5 537.38,-156.5 636.62,-156.5 636.62,-156.5 642.62,-156.5 648.62,-162.5 648.62,-168.5 648.62,-168.5 648.62,-181 648.62,-181 648.62,-187 642.62,-193 636.62,-193"/>
<text xml:space="preserve" text-anchor="middle" x="587" y="-177.6" font-family="Arial Bold" font-size="12.00" fill="white">Web</text>
<text xml:space="preserve" text-anchor="middle" x="587" y="-163.35" font-family="Arial Bold" font-size="12.00" fill="white">(Brave/Exa/Serper)</text>
</g>
<!-- search_header&#45;&gt;web -->
<g id="edge12" class="edge">
<title>search_header&#45;&gt;web</title>
<path fill="none" stroke="#607d8b" stroke-width="1.5" d="M615.17,-228.77C615.17,-228.77 615.17,-205.75 615.17,-205.75"/>
<polygon fill="#607d8b" stroke="#607d8b" stroke-width="1.5" points="618.67,-205.75 615.17,-195.75 611.67,-205.75 618.67,-205.75"/>
</g>
<!-- markets_header -->
<g id="node14" class="node">
<title>markets_header</title>
<path fill="#607d8b" stroke="black" d="M759.75,-192.75C759.75,-192.75 682.25,-192.75 682.25,-192.75 676.25,-192.75 670.25,-186.75 670.25,-180.75 670.25,-180.75 670.25,-168.75 670.25,-168.75 670.25,-162.75 676.25,-156.75 682.25,-156.75 682.25,-156.75 759.75,-156.75 759.75,-156.75 765.75,-156.75 771.75,-162.75 771.75,-168.75 771.75,-168.75 771.75,-180.75 771.75,-180.75 771.75,-186.75 765.75,-192.75 759.75,-192.75"/>
<text xml:space="preserve" text-anchor="middle" x="721" y="-171.05" font-family="Arial Bold" font-size="11.00" fill="white">Markets &amp; Video</text>
</g>
<!-- search_header&#45;&gt;markets_header -->
<!-- perplexity&#45;&gt;aggregator -->
<g id="edge24" class="edge">
<title>perplexity&#45;&gt;aggregator</title>
<path fill="none" stroke="#9c27b0" stroke-width="1.5" d="M430.18,-166C389.88,-166 330.94,-166 330.94,-166 330.94,-166 330.94,-61.21 330.94,-61.21"/>
<polygon fill="#9c27b0" stroke="#9c27b0" stroke-width="1.5" points="334.44,-61.21 330.94,-51.21 327.44,-61.21 334.44,-61.21"/>
</g>
<!-- web&#45;&gt;aggregator -->
<g id="edge25" class="edge">
<title>web&#45;&gt;aggregator</title>
<path fill="none" stroke="#9c27b0" stroke-width="1.5" d="M554.19,-156.27C554.19,-115.02 554.19,-19 554.19,-19 554.19,-19 382.27,-19 382.27,-19"/>
<polygon fill="#9c27b0" stroke="#9c27b0" stroke-width="1.5" points="382.27,-15.5 372.27,-19 382.27,-22.5 382.27,-15.5"/>
</g>
<!-- polymarket -->
<g id="node15" class="node">
<title>polymarket</title>
<polygon fill="#4caf50" stroke="black" points="653,-120.5 583,-120.5 583,-84.5 653,-84.5 653,-120.5"/>
<text xml:space="preserve" text-anchor="middle" x="618" y="-98.8" font-family="Arial" font-size="11.00" fill="white">Polymarket</text>
</g>
<!-- markets_header&#45;&gt;polymarket -->
<g id="edge14" class="edge">
<title>markets_header&#45;&gt;polymarket</title>
<path fill="none" stroke="#607d8b" stroke-width="1.5" d="M676.62,-156.27C676.62,-135.01 676.62,-103 676.62,-103 676.62,-103 665.73,-103 665.73,-103"/>
<polygon fill="#607d8b" stroke="#607d8b" stroke-width="1.5" points="665.73,-99.5 655.73,-103 665.73,-106.5 665.73,-99.5"/>
</g>
<!-- youtube -->
<g id="node16" class="node">
<title>youtube</title>
<polygon fill="#4caf50" stroke="black" points="741,-120.5 683,-120.5 683,-84.5 741,-84.5 741,-120.5"/>
<text xml:space="preserve" text-anchor="middle" x="712" y="-98.8" font-family="Arial" font-size="11.00" fill="white">YouTube</text>
</g>
<!-- markets_header&#45;&gt;youtube -->
<g id="edge15" class="edge">
<title>markets_header&#45;&gt;youtube</title>
<path fill="none" stroke="#607d8b" stroke-width="1.5" d="M712,-156.52C712,-156.52 712,-133.25 712,-133.25"/>
<polygon fill="#607d8b" stroke="#607d8b" stroke-width="1.5" points="715.5,-133.25 712,-123.25 708.5,-133.25 715.5,-133.25"/>
</g>
<!-- polymarket&#45;&gt;aggregator -->
<g id="edge26" class="edge">
<title>polymarket&#45;&gt;aggregator</title>
<path fill="none" stroke="#9c27b0" stroke-width="1.5" d="M582.72,-109C510,-109 350.22,-109 350.22,-109 350.22,-109 350.22,-61.03 350.22,-61.03"/>
<polygon fill="#9c27b0" stroke="#9c27b0" stroke-width="1.5" points="353.72,-61.03 350.22,-51.03 346.72,-61.03 353.72,-61.03"/>
</g>
<!-- youtube&#45;&gt;aggregator -->
<g id="edge27" class="edge">
<title>youtube&#45;&gt;aggregator</title>
<path fill="none" stroke="#9c27b0" stroke-width="1.5" d="M712,-84.22C712,-57.27 712,-10 712,-10 712,-10 381.94,-10 381.94,-10"/>
<polygon fill="#9c27b0" stroke="#9c27b0" stroke-width="1.5" points="381.94,-6.5 371.94,-10 381.94,-13.5 381.94,-6.5"/>
</g>
</g>
</svg>
