<?xml version="1.0" encoding="UTF-8" standalone="no"?>
<!DOCTYPE svg PUBLIC "-//W3C//DTD SVG 1.1//EN"
 "http://www.w3.org/Graphics/SVG/1.1/DTD/svg11.dtd">
<!-- Generated by graphviz version 14.1.2 (0)
 -->
<!-- Title: lightpanda_cdp_domains Pages: 1 -->
<svg width="384pt" height="560pt"
 viewBox="0.00 0.00 384.00 560.00" xmlns="http://www.w3.org/2000/svg" xmlns:xlink="http://www.w3.org/1999/xlink">
<g id="graph0" class="graph" transform="scale(1 1) rotate(0) translate(4 556)">
<title>lightpanda_cdp_domains</title>
<polygon fill="white" stroke="none" points="-4,4 -4,-556 380.25,-556 380.25,4 -4,4"/>
<!-- title -->
<g id="node1" class="node">
<title>title</title>
<path fill="#2196f3" stroke="black" d="M226.88,-552C226.88,-552 103.62,-552 103.62,-552 97.62,-552 91.62,-546 91.62,-540 91.62,-540 91.62,-528 91.62,-528 91.62,-522 97.62,-516 103.62,-516 103.62,-516 226.88,-516 226.88,-516 232.88,-516 238.88,-522 238.88,-528 238.88,-528 238.88,-540 238.88,-540 238.88,-546 232.88,-552 226.88,-552"/>
<text xml:space="preserve" text-anchor="middle" x="165.25" y="-529.73" font-family="Arial Bold" font-size="12.00" fill="white">CDP Domain Coverage</text>
</g>
<!-- core_title -->
<g id="node2" class="node">
<title>core_title</title>
<path fill="#2196f3" stroke="black" d="M53.25,-466C53.25,-466 23.25,-466 23.25,-466 17.25,-466 11.25,-460 11.25,-454 11.25,-454 11.25,-442 11.25,-442 11.25,-436 17.25,-430 23.25,-430 23.25,-430 53.25,-430 53.25,-430 59.25,-430 65.25,-436 65.25,-442 65.25,-442 65.25,-454 65.25,-454 65.25,-460 59.25,-466 53.25,-466"/>
<text xml:space="preserve" text-anchor="middle" x="38.25" y="-443.73" font-family="Arial Bold" font-size="12.00" fill="white">Core</text>
</g>
<!-- title&#45;&gt;core_title -->
<g id="edge1" class="edge">
<title>title&#45;&gt;core_title</title>
<path fill="none" stroke="#2196f3" stroke-width="2" d="M91.37,-534C63.43,-534 38.25,-534 38.25,-534 38.25,-534 38.25,-479.27 38.25,-479.27"/>
<polygon fill="#2196f3" stroke="#2196f3" stroke-width="2" points="41.75,-479.27 38.25,-469.27 34.75,-479.27 41.75,-479.27"/>
</g>
<!-- dom_title -->
<g id="node7" class="node">
<title>dom_title</title>
<path fill="#2196f3" stroke="black" d="M136.25,-466C136.25,-466 106.25,-466 106.25,-466 100.25,-466 94.25,-460 94.25,-454 94.25,-454 94.25,-442 94.25,-442 94.25,-436 100.25,-430 106.25,-430 106.25,-430 136.25,-430 136.25,-430 142.25,-430 148.25,-436 148.25,-442 148.25,-442 148.25,-454 148.25,-454 148.25,-460 142.25,-466 136.25,-466"/>
<text xml:space="preserve" text-anchor="middle" x="121.25" y="-443.73" font-family="Arial Bold" font-size="12.00" fill="white">DOM</text>
</g>
<!-- title&#45;&gt;dom_title -->
<g id="edge2" class="edge">
<title>title&#45;&gt;dom_title</title>
<path fill="none" stroke="#2196f3" stroke-width="2" d="M121.25,-515.76C121.25,-515.76 121.25,-479.24 121.25,-479.24"/>
<polygon fill="#2196f3" stroke="#2196f3" stroke-width="2" points="124.75,-479.24 121.25,-469.24 117.75,-479.24 124.75,-479.24"/>
</g>
<!-- net_title -->
<g id="node11" class="node">
<title>net_title</title>
<path fill="#2196f3" stroke="black" d="M228.88,-466C228.88,-466 189.62,-466 189.62,-466 183.62,-466 177.62,-460 177.62,-454 177.62,-454 177.62,-442 177.62,-442 177.62,-436 183.62,-430 189.62,-430 189.62,-430 228.88,-430 228.88,-430 234.88,-430 240.88,-436 240.88,-442 240.88,-442 240.88,-454 240.88,-454 240.88,-460 234.88,-466 228.88,-466"/>
<text xml:space="preserve" text-anchor="middle" x="209.25" y="-443.73" font-family="Arial Bold" font-size="12.00" fill="white">Network</text>
</g>
<!-- title&#45;&gt;net_title -->
<g id="edge3" class="edge">
<title>title&#45;&gt;net_title</title>
<path fill="none" stroke="#2196f3" stroke-width="2" d="M208.25,-515.76C208.25,-515.76 208.25,-479.24 208.25,-479.24"/>
<polygon fill="#2196f3" stroke="#2196f3" stroke-width="2" points="211.75,-479.24 208.25,-469.24 204.75,-479.24 211.75,-479.24"/>
</g>
<!-- input_title -->
<g id="node15" class="node">
<title>input_title</title>
<path fill="#2196f3" stroke="black" d="M364.25,-466C364.25,-466 282.25,-466 282.25,-466 276.25,-466 270.25,-460 270.25,-454 270.25,-454 270.25,-442 270.25,-442 270.25,-436 276.25,-430 282.25,-430 282.25,-430 364.25,-430 364.25,-430 370.25,-430 376.25,-436 376.25,-442 376.25,-442 376.25,-454 376.25,-454 376.25,-460 370.25,-466 364.25,-466"/>
<text xml:space="preserve" text-anchor="middle" x="323.25" y="-443.73" font-family="Arial Bold" font-size="12.00" fill="white">Input/Emulation</text>
</g>
<!-- title&#45;&gt;input_title -->
<g id="edge4" class="edge">
<title>title&#45;&gt;input_title</title>
<path fill="none" stroke="#2196f3" stroke-width="2" d="M239.16,-534C280.28,-534 323.25,-534 323.25,-534 323.25,-534 323.25,-479.27 323.25,-479.27"/>
<polygon fill="#2196f3" stroke="#2196f3" stroke-width="2" points="326.75,-479.27 323.25,-469.27 319.75,-479.27 326.75,-479.27"/>
</g>
<!-- core_browser -->
<g id="node3" class="node">
<title>core_browser</title>
<path fill="#ff9800" stroke="black" d="M51.5,-380C51.5,-380 19,-380 19,-380 13,-380 7,-374 7,-368 7,-368 7,-356 7,-356 7,-350 13,-344 19,-344 19,-344 51.5,-344 51.5,-344 57.5,-344 63.5,-350 63.5,-356 63.5,-356 63.5,-368 63.5,-368 63.5,-374 57.5,-380 51.5,-380"/>
<text xml:space="preserve" text-anchor="middle" x="35.25" y="-358.3" font-family="Arial" font-size="11.00" fill="white">Browser</text>
</g>
<!-- core_title&#45;&gt;core_browser -->
<g id="edge5" class="edge">
<title>core_title&#45;&gt;core_browser</title>
<path fill="none" stroke="#ff9800" stroke-width="1.5" d="M37.38,-429.76C37.38,-429.76 37.38,-392.48 37.38,-392.48"/>
<polygon fill="#ff9800" stroke="#ff9800" stroke-width="1.5" points="40.88,-392.48 37.38,-382.48 33.88,-392.48 40.88,-392.48"/>
</g>
<!-- core_target -->
<g id="node4" class="node">
<title>core_target</title>
<path fill="#ff9800" stroke="black" d="M46.25,-294C46.25,-294 16.25,-294 16.25,-294 10.25,-294 4.25,-288 4.25,-282 4.25,-282 4.25,-270 4.25,-270 4.25,-264 10.25,-258 16.25,-258 16.25,-258 46.25,-258 46.25,-258 52.25,-258 58.25,-264 58.25,-270 58.25,-270 58.25,-282 58.25,-282 58.25,-288 52.25,-294 46.25,-294"/>
<text xml:space="preserve" text-anchor="middle" x="31.25" y="-272.3" font-family="Arial" font-size="11.00" fill="white">Target</text>
</g>
<!-- core_browser&#45;&gt;core_target -->
<g id="edge6" class="edge">
<title>core_browser&#45;&gt;core_target</title>
<path fill="none" stroke="#ff9800" stroke-width="1.5" d="M32.62,-343.76C32.62,-343.76 32.62,-306.48 32.62,-306.48"/>
<polygon fill="#ff9800" stroke="#ff9800" stroke-width="1.5" points="36.13,-306.48 32.63,-296.48 29.13,-306.48 36.13,-306.48"/>
</g>
<!-- core_page -->
<g id="node5" class="node">
<title>core_page</title>
<path fill="#ff9800" stroke="black" d="M43.25,-208C43.25,-208 13.25,-208 13.25,-208 7.25,-208 1.25,-202 1.25,-196 1.25,-196 1.25,-184 1.25,-184 1.25,-178 7.25,-172 13.25,-172 13.25,-172 43.25,-172 43.25,-172 49.25,-172 55.25,-178 55.25,-184 55.25,-184 55.25,-196 55.25,-196 55.25,-202 49.25,-208 43.25,-208"/>
<text xml:space="preserve" text-anchor="middle" x="28.25" y="-186.3" font-family="Arial" font-size="11.00" fill="white">Page</text>
</g>
<!-- core_target&#45;&gt;core_page -->
<g id="edge7" class="edge">
<title>core_target&#45;&gt;core_page</title>
<path fill="none" stroke="#ff9800" stroke-width="1.5" d="M29.75,-257.76C29.75,-257.76 29.75,-220.48 29.75,-220.48"/>
<polygon fill="#ff9800" stroke="#ff9800" stroke-width="1.5" points="33.25,-220.48 29.75,-210.48 26.25,-220.48 33.25,-220.48"/>
</g>
<!-- core_runtime -->
<g id="node6" class="node">
<title>core_runtime</title>
<path fill="#ff9800" stroke="black" d="M44.5,-122C44.5,-122 12,-122 12,-122 6,-122 0,-116 0,-110 0,-110 0,-98 0,-98 0,-92 6,-86 12,-86 12,-86 44.5,-86 44.5,-86 50.5,-86 56.5,-92 56.5,-98 56.5,-98 56.5,-110 56.5,-110 56.5,-116 50.5,-122 44.5,-122"/>
<text xml:space="preserve" text-anchor="middle" x="28.25" y="-100.3" font-family="Arial" font-size="11.00" fill="white">Runtime</text>
</g>
<!-- core_page&#45;&gt;core_runtime -->
<g id="edge8" class="edge">
<title>core_page&#45;&gt;core_runtime</title>
<path fill="none" stroke="#ff9800" stroke-width="1.5" d="M28.25,-171.76C28.25,-171.76 28.25,-134.48 28.25,-134.48"/>
<polygon fill="#ff9800" stroke="#ff9800" stroke-width="1.5" points="31.75,-134.48 28.25,-124.48 24.75,-134.48 31.75,-134.48"/>
</g>
<!-- dom_dom -->
<g id="node8" class="node">
<title>dom_dom</title>
<path fill="#ff9800" stroke="black" d="M136.25,-380C136.25,-380 106.25,-380 106.25,-380 100.25,-380 94.25,-374 94.25,-368 94.25,-368 94.25,-356 94.25,-356 94.25,-350 100.25,-344 106.25,-344 106.25,-344 136.25,-344 136.25,-344 142.25,-344 148.25,-350 148.25,-356 148.25,-356 148.25,-368 148.25,-368 148.25,-374 142.25,-380 136.25,-380"/>
<text xml:space="preserve" text-anchor="middle" x="121.25" y="-358.3" font-family="Arial" font-size="11.00" fill="white">DOM</text>
</g>
<!-- dom_title&#45;&gt;dom_dom -->
<g id="edge9" class="edge">
<title>dom_title&#45;&gt;dom_dom</title>
<path fill="none" stroke="#ff9800" stroke-width="1.5" d="M121.25,-429.76C121.25,-429.76 121.25,-392.48 121.25,-392.48"/>
<polygon fill="#ff9800" stroke="#ff9800" stroke-width="1.5" points="124.75,-392.48 121.25,-382.48 117.75,-392.48 124.75,-392.48"/>
</g>
<!-- dom_css -->
<g id="node9" class="node">
<title>dom_css</title>
<path fill="#ff9800" stroke="black" d="M136.25,-294C136.25,-294 106.25,-294 106.25,-294 100.25,-294 94.25,-288 94.25,-282 94.25,-282 94.25,-270 94.25,-270 94.25,-264 100.25,-258 106.25,-258 106.25,-258 136.25,-258 136.25,-258 142.25,-258 148.25,-264 148.25,-270 148.25,-270 148.25,-282 148.25,-282 148.25,-288 142.25,-294 136.25,-294"/>
<text xml:space="preserve" text-anchor="middle" x="121.25" y="-272.3" font-family="Arial" font-size="11.00" fill="white">CSS</text>
</g>
<!-- dom_dom&#45;&gt;dom_css -->
<g id="edge10" class="edge">
<title>dom_dom&#45;&gt;dom_css</title>
<path fill="none" stroke="#ff9800" stroke-width="1.5" d="M121.25,-343.76C121.25,-343.76 121.25,-306.48 121.25,-306.48"/>
<polygon fill="#ff9800" stroke="#ff9800" stroke-width="1.5" points="124.75,-306.48 121.25,-296.48 117.75,-306.48 124.75,-306.48"/>
</g>
<!-- dom_a11y -->
<g id="node10" class="node">
<title>dom_a11y</title>
<path fill="#ff9800" stroke="black" d="M146.12,-208C146.12,-208 96.38,-208 96.38,-208 90.38,-208 84.38,-202 84.38,-196 84.38,-196 84.38,-184 84.38,-184 84.38,-178 90.38,-172 96.38,-172 96.38,-172 146.12,-172 146.12,-172 152.12,-172 158.12,-178 158.12,-184 158.12,-184 158.12,-196 158.12,-196 158.12,-202 152.12,-208 146.12,-208"/>
<text xml:space="preserve" text-anchor="middle" x="121.25" y="-186.3" font-family="Arial" font-size="11.00" fill="white">Accessibility</text>
</g>
<!-- dom_css&#45;&gt;dom_a11y -->
<g id="edge11" class="edge">
<title>dom_css&#45;&gt;dom_a11y</title>
<path fill="none" stroke="#ff9800" stroke-width="1.5" d="M121.25,-257.76C121.25,-257.76 121.25,-220.48 121.25,-220.48"/>
<polygon fill="#ff9800" stroke="#ff9800" stroke-width="1.5" points="124.75,-220.48 121.25,-210.48 117.75,-220.48 124.75,-220.48"/>
</g>
<!-- net_network -->
<g id="node12" class="node">
<title>net_network</title>
<path fill="#ff9800" stroke="black" d="M227.5,-380C227.5,-380 195,-380 195,-380 189,-380 183,-374 183,-368 183,-368 183,-356 183,-356 183,-350 189,-344 195,-344 195,-344 227.5,-344 227.5,-344 233.5,-344 239.5,-350 239.5,-356 239.5,-356 239.5,-368 239.5,-368 239.5,-374 233.5,-380 227.5,-380"/>
<text xml:space="preserve" text-anchor="middle" x="211.25" y="-358.3" font-family="Arial" font-size="11.00" fill="white">Network</text>
</g>
<!-- net_title&#45;&gt;net_network -->
<g id="edge12" class="edge">
<title>net_title&#45;&gt;net_network</title>
<path fill="none" stroke="#ff9800" stroke-width="1.5" d="M211.25,-429.76C211.25,-429.76 211.25,-392.48 211.25,-392.48"/>
<polygon fill="#ff9800" stroke="#ff9800" stroke-width="1.5" points="214.75,-392.48 211.25,-382.48 207.75,-392.48 214.75,-392.48"/>
</g>
<!-- net_fetch -->
<g id="node13" class="node">
<title>net_fetch</title>
<path fill="#ff9800" stroke="black" d="M227.25,-294C227.25,-294 197.25,-294 197.25,-294 191.25,-294 185.25,-288 185.25,-282 185.25,-282 185.25,-270 185.25,-270 185.25,-264 191.25,-258 197.25,-258 197.25,-258 227.25,-258 227.25,-258 233.25,-258 239.25,-264 239.25,-270 239.25,-270 239.25,-282 239.25,-282 239.25,-288 233.25,-294 227.25,-294"/>
<text xml:space="preserve" text-anchor="middle" x="212.25" y="-272.3" font-family="Arial" font-size="11.00" fill="white">Fetch</text>
</g>
<!-- net_network&#45;&gt;net_fetch -->
<g id="edge13" class="edge">
<title>net_network&#45;&gt;net_fetch</title>
<path fill="none" stroke="#ff9800" stroke-width="1.5" d="M212.25,-343.76C212.25,-343.76 212.25,-306.48 212.25,-306.48"/>
<polygon fill="#ff9800" stroke="#ff9800" stroke-width="1.5" points="215.75,-306.48 212.25,-296.48 208.75,-306.48 215.75,-306.48"/>
</g>
<!-- net_security -->
<g id="node14" class="node">
<title>net_security</title>
<path fill="#ff9800" stroke="black" d="M229.75,-208C229.75,-208 198.75,-208 198.75,-208 192.75,-208 186.75,-202 186.75,-196 186.75,-196 186.75,-184 186.75,-184 186.75,-178 192.75,-172 198.75,-172 198.75,-172 229.75,-172 229.75,-172 235.75,-172 241.75,-178 241.75,-184 241.75,-184 241.75,-196 241.75,-196 241.75,-202 235.75,-208 229.75,-208"/>
<text xml:space="preserve" text-anchor="middle" x="214.25" y="-186.3" font-family="Arial" font-size="11.00" fill="white">Security</text>
</g>
<!-- net_fetch&#45;&gt;net_security -->
<g id="edge14" class="edge">
<title>net_fetch&#45;&gt;net_security</title>
<path fill="none" stroke="#ff9800" stroke-width="1.5" d="M213,-257.76C213,-257.76 213,-220.48 213,-220.48"/>
<polygon fill="#ff9800" stroke="#ff9800" stroke-width="1.5" points="216.5,-220.48 213,-210.48 209.5,-220.48 216.5,-220.48"/>
</g>
<!-- input_input -->
<g id="node16" class="node">
<title>input_input</title>
<path fill="#ff9800" stroke="black" d="M338.25,-380C338.25,-380 308.25,-380 308.25,-380 302.25,-380 296.25,-374 296.25,-368 296.25,-368 296.25,-356 296.25,-356 296.25,-350 302.25,-344 308.25,-344 308.25,-344 338.25,-344 338.25,-344 344.25,-344 350.25,-350 350.25,-356 350.25,-356 350.25,-368 350.25,-368 350.25,-374 344.25,-380 338.25,-380"/>
<text xml:space="preserve" text-anchor="middle" x="323.25" y="-358.3" font-family="Arial" font-size="11.00" fill="white">Input</text>
</g>
<!-- input_title&#45;&gt;input_input -->
<g id="edge15" class="edge">
<title>input_title&#45;&gt;input_input</title>
<path fill="none" stroke="#ff9800" stroke-width="1.5" d="M323.25,-429.76C323.25,-429.76 323.25,-392.48 323.25,-392.48"/>
<polygon fill="#ff9800" stroke="#ff9800" stroke-width="1.5" points="326.75,-392.48 323.25,-382.48 319.75,-392.48 326.75,-392.48"/>
</g>
<!-- input_emu -->
<g id="node17" class="node">
<title>input_emu</title>
<path fill="#ff9800" stroke="black" d="M343.25,-294C343.25,-294 303.25,-294 303.25,-294 297.25,-294 291.25,-288 291.25,-282 291.25,-282 291.25,-270 291.25,-270 291.25,-264 297.25,-258 303.25,-258 303.25,-258 343.25,-258 343.25,-258 349.25,-258 355.25,-264 355.25,-270 355.25,-270 355.25,-282 355.25,-282 355.25,-288 349.25,-294 343.25,-294"/>
<text xml:space="preserve" text-anchor="middle" x="323.25" y="-272.3" font-family="Arial" font-size="11.00" fill="white">Emulation</text>
</g>
<!-- input_input&#45;&gt;input_emu -->
<g id="edge16" class="edge">
<title>input_input&#45;&gt;input_emu</title>
<path fill="none" stroke="#ff9800" stroke-width="1.5" d="M323.25,-343.76C323.25,-343.76 323.25,-306.48 323.25,-306.48"/>
<polygon fill="#ff9800" stroke="#ff9800" stroke-width="1.5" points="326.75,-306.48 323.25,-296.48 319.75,-306.48 326.75,-306.48"/>
</g>
<!-- input_log -->
<g id="node18" class="node">
<title>input_log</title>
<path fill="#ff9800" stroke="black" d="M338.25,-208C338.25,-208 308.25,-208 308.25,-208 302.25,-208 296.25,-202 296.25,-196 296.25,-196 296.25,-184 296.25,-184 296.25,-178 302.25,-172 308.25,-172 308.25,-172 338.25,-172 338.25,-172 344.25,-172 350.25,-178 350.25,-184 350.25,-184 350.25,-196 350.25,-196 350.25,-202 344.25,-208 338.25,-208"/>
<text xml:space="preserve" text-anchor="middle" x="323.25" y="-186.3" font-family="Arial" font-size="11.00" fill="white">Log</text>
</g>
<!-- input_emu&#45;&gt;input_log -->
<g id="edge17" class="edge">
<title>input_emu&#45;&gt;input_log</title>
<path fill="none" stroke="#ff9800" stroke-width="1.5" d="M323.25,-257.76C323.25,-257.76 323.25,-220.48 323.25,-220.48"/>
<polygon fill="#ff9800" stroke="#ff9800" stroke-width="1.5" points="326.75,-220.48 323.25,-210.48 319.75,-220.48 326.75,-220.48"/>
</g>
<!-- input_perf -->
<g id="node19" class="node">
<title>input_perf</title>
<path fill="#ff9800" stroke="black" d="M350.38,-122C350.38,-122 296.12,-122 296.12,-122 290.12,-122 284.12,-116 284.12,-110 284.12,-110 284.12,-98 284.12,-98 284.12,-92 290.12,-86 296.12,-86 296.12,-86 350.38,-86 350.38,-86 356.38,-86 362.38,-92 362.38,-98 362.38,-98 362.38,-110 362.38,-110 362.38,-116 356.38,-122 350.38,-122"/>
<text xml:space="preserve" text-anchor="middle" x="323.25" y="-100.3" font-family="Arial" font-size="11.00" fill="white">Performance</text>
</g>
<!-- input_log&#45;&gt;input_perf -->
<g id="edge18" class="edge">
<title>input_log&#45;&gt;input_perf</title>
<path fill="none" stroke="#ff9800" stroke-width="1.5" d="M323.25,-171.76C323.25,-171.76 323.25,-134.48 323.25,-134.48"/>
<polygon fill="#ff9800" stroke="#ff9800" stroke-width="1.5" points="326.75,-134.48 323.25,-124.48 319.75,-134.48 326.75,-134.48"/>
</g>
<!-- input_storage -->
<g id="node20" class="node">
<title>input_storage</title>
<path fill="#ff9800" stroke="black" d="M338.38,-36C338.38,-36 308.12,-36 308.12,-36 302.12,-36 296.12,-30 296.12,-24 296.12,-24 296.12,-12 296.12,-12 296.12,-6 302.12,0 308.12,0 308.12,0 338.38,0 338.38,0 344.38,0 350.38,-6 350.38,-12 350.38,-12 350.38,-24 350.38,-24 350.38,-30 344.38,-36 338.38,-36"/>
<text xml:space="preserve" text-anchor="middle" x="323.25" y="-14.3" font-family="Arial" font-size="11.00" fill="white">Storage</text>
</g>
<!-- input_perf&#45;&gt;input_storage -->
<g id="edge19" class="edge">
<title>input_perf&#45;&gt;input_storage</title>
<path fill="none" stroke="#ff9800" stroke-width="1.5" d="M323.25,-85.76C323.25,-85.76 323.25,-48.48 323.25,-48.48"/>
<polygon fill="#ff9800" stroke="#ff9800" stroke-width="1.5" points="326.75,-48.48 323.25,-38.48 319.75,-48.48 326.75,-48.48"/>
</g>
</g>
</svg>
