<?xml version="1.0" encoding="UTF-8" standalone="no"?>
<!DOCTYPE svg PUBLIC "-//W3C//DTD SVG 1.1//EN"
 "http://www.w3.org/Graphics/SVG/1.1/DTD/svg11.dtd">
<!-- Generated by graphviz version 14.1.2 (0)
 -->
<!-- Title: litertlm_tool_calling Pages: 1 -->
<svg width="238pt" height="580pt"
 viewBox="0.00 0.00 238.00 580.00" xmlns="http://www.w3.org/2000/svg" xmlns:xlink="http://www.w3.org/1999/xlink">
<g id="graph0" class="graph" transform="scale(1 1) rotate(0) translate(4 575.75)">
<title>litertlm_tool_calling</title>
<polygon fill="white" stroke="none" points="-4,4 -4,-575.75 233.5,-575.75 233.5,4 -4,4"/>
<!-- user_query -->
<g id="node1" class="node">
<title>user_query</title>
<polygon fill="#4caf50" stroke="black" points="205.5,-571.75 134,-571.75 134,-535.75 205.5,-535.75 205.5,-571.75"/>
<text xml:space="preserve" text-anchor="middle" x="169.75" y="-550.05" font-family="Arial" font-size="11.00" fill="white">User Query</text>
</g>
<!-- engine -->
<g id="node2" class="node">
<title>engine</title>
<path fill="#1565c0" stroke="black" d="M217.5,-476.75C217.5,-476.75 122,-476.75 122,-476.75 116,-476.75 110,-470.75 110,-464.75 110,-464.75 110,-450.75 110,-450.75 110,-444.75 116,-438.75 122,-438.75 122,-438.75 217.5,-438.75 217.5,-438.75 223.5,-438.75 229.5,-444.75 229.5,-450.75 229.5,-450.75 229.5,-464.75 229.5,-464.75 229.5,-470.75 223.5,-476.75 217.5,-476.75"/>
<text xml:space="preserve" text-anchor="middle" x="169.75" y="-460.4" font-family="Arial Bold" font-size="13.00" fill="white">Engine</text>
<text xml:space="preserve" text-anchor="middle" x="169.75" y="-445.4" font-family="Arial Bold" font-size="13.00" fill="white">(Process Query)</text>
</g>
<!-- user_query&#45;&gt;engine -->
<g id="edge1" class="edge">
<title>user_query&#45;&gt;engine</title>
<path fill="none" stroke="#4caf50" stroke-width="2" d="M169.75,-535.69C169.75,-535.69 169.75,-490.07 169.75,-490.07"/>
<polygon fill="#4caf50" stroke="#4caf50" stroke-width="2" points="173.25,-490.07 169.75,-480.07 166.25,-490.07 173.25,-490.07"/>
</g>
<!-- tool_needed -->
<g id="node3" class="node">
<title>tool_needed</title>
<polygon fill="#f44336" stroke="black" points="169.75,-379.75 112.5,-347.75 169.75,-315.75 227,-347.75 169.75,-379.75"/>
<text xml:space="preserve" text-anchor="middle" x="169.75" y="-350.25" font-family="Arial Bold" font-size="10.00" fill="white">Tool</text>
<text xml:space="preserve" text-anchor="middle" x="169.75" y="-338.25" font-family="Arial Bold" font-size="10.00" fill="white">Needed?</text>
</g>
<!-- engine&#45;&gt;tool_needed -->
<g id="edge2" class="edge">
<title>engine&#45;&gt;tool_needed</title>
<path fill="none" stroke="#2196f3" stroke-width="2" d="M169.75,-438.34C169.75,-438.34 169.75,-392.92 169.75,-392.92"/>
<polygon fill="#2196f3" stroke="#2196f3" stroke-width="2" points="173.25,-392.92 169.75,-382.92 166.25,-392.92 173.25,-392.92"/>
</g>
<!-- tool_select -->
<g id="node4" class="node">
<title>tool_select</title>
<path fill="#ff9800" stroke="black" d="M83.5,-241C83.5,-241 12,-241 12,-241 6,-241 0,-235 0,-229 0,-229 0,-217 0,-217 0,-211 6,-205 12,-205 12,-205 83.5,-205 83.5,-205 89.5,-205 95.5,-211 95.5,-217 95.5,-217 95.5,-229 95.5,-229 95.5,-235 89.5,-241 83.5,-241"/>
<text xml:space="preserve" text-anchor="middle" x="47.75" y="-226.05" font-family="Arial" font-size="11.00" fill="white">Tool Selection</text>
<text xml:space="preserve" text-anchor="middle" x="47.75" y="-212.55" font-family="Arial" font-size="11.00" fill="white">(JSON Schema)</text>
</g>
<!-- tool_needed&#45;&gt;tool_select -->
<g id="edge3" class="edge">
<title>tool_needed&#45;&gt;tool_select</title>
<path fill="none" stroke="#ff9800" stroke-width="2" d="M115.29,-345.99C115.29,-330.82 115.29,-223 115.29,-223 115.29,-223 108.78,-223 108.78,-223"/>
<polygon fill="#ff9800" stroke="#ff9800" stroke-width="2" points="108.78,-219.5 98.78,-223 108.78,-226.5 108.78,-219.5"/>
<text xml:space="preserve" text-anchor="middle" x="88.88" y="-273.45" font-family="Times New Roman,serif" font-size="14.00">Yes</text>
</g>
<!-- gen_response -->
<g id="node7" class="node">
<title>gen_response</title>
<path fill="#2196f3" stroke="black" d="M195,-241.25C195,-241.25 144.5,-241.25 144.5,-241.25 138.5,-241.25 132.5,-235.25 132.5,-229.25 132.5,-229.25 132.5,-216.75 132.5,-216.75 132.5,-210.75 138.5,-204.75 144.5,-204.75 144.5,-204.75 195,-204.75 195,-204.75 201,-204.75 207,-210.75 207,-216.75 207,-216.75 207,-229.25 207,-229.25 207,-235.25 201,-241.25 195,-241.25"/>
<text xml:space="preserve" text-anchor="middle" x="169.75" y="-225.85" font-family="Arial Bold" font-size="12.00" fill="white">Generate</text>
<text xml:space="preserve" text-anchor="middle" x="169.75" y="-211.6" font-family="Arial Bold" font-size="12.00" fill="white">Response</text>
</g>
<!-- tool_needed&#45;&gt;gen_response -->
<g id="edge4" class="edge">
<title>tool_needed&#45;&gt;gen_response</title>
<path fill="none" stroke="#4caf50" stroke-width="2" d="M169.75,-315.3C169.75,-315.3 169.75,-254.76 169.75,-254.76"/>
<polygon fill="#4caf50" stroke="#4caf50" stroke-width="2" points="173.25,-254.76 169.75,-244.76 166.25,-254.76 173.25,-254.76"/>
<text xml:space="preserve" text-anchor="middle" x="178" y="-273.45" font-family="Times New Roman,serif" font-size="14.00">No</text>
</g>
<!-- tool_exec -->
<g id="node5" class="node">
<title>tool_exec</title>
<path fill="#ff9800" stroke="black" d="M76,-145.75C76,-145.75 13.5,-145.75 13.5,-145.75 7.5,-145.75 1.5,-139.75 1.5,-133.75 1.5,-133.75 1.5,-121.75 1.5,-121.75 1.5,-115.75 7.5,-109.75 13.5,-109.75 13.5,-109.75 76,-109.75 76,-109.75 82,-109.75 88,-115.75 88,-121.75 88,-121.75 88,-133.75 88,-133.75 88,-139.75 82,-145.75 76,-145.75"/>
<text xml:space="preserve" text-anchor="middle" x="44.75" y="-130.8" font-family="Arial" font-size="11.00" fill="white">Tool Execution</text>
<text xml:space="preserve" text-anchor="middle" x="44.75" y="-117.3" font-family="Arial" font-size="11.00" fill="white">(Function Call)</text>
</g>
<!-- tool_select&#45;&gt;tool_exec -->
<g id="edge5" class="edge">
<title>tool_select&#45;&gt;tool_exec</title>
<path fill="none" stroke="#ff9800" stroke-width="2" d="M44.75,-204.63C44.75,-204.63 44.75,-159.09 44.75,-159.09"/>
<polygon fill="#ff9800" stroke="#ff9800" stroke-width="2" points="48.25,-159.09 44.75,-149.09 41.25,-159.09 48.25,-159.09"/>
</g>
<!-- recursive -->
<g id="node6" class="node">
<title>recursive</title>
<path fill="#2196f3" stroke="black" d="M182.62,-50.75C182.62,-50.75 132.88,-50.75 132.88,-50.75 126.88,-50.75 120.88,-44.75 120.88,-38.75 120.88,-38.75 120.88,-12 120.88,-12 120.88,-6 126.88,0 132.88,0 132.88,0 182.62,0 182.62,0 188.62,0 194.62,-6 194.62,-12 194.62,-12 194.62,-38.75 194.62,-38.75 194.62,-44.75 188.62,-50.75 182.62,-50.75"/>
<text xml:space="preserve" text-anchor="middle" x="157.75" y="-35.35" font-family="Arial Bold" font-size="12.00" fill="white">Recursive</text>
<text xml:space="preserve" text-anchor="middle" x="157.75" y="-21.1" font-family="Arial Bold" font-size="12.00" fill="white">Tool Calls</text>
<text xml:space="preserve" text-anchor="middle" x="157.75" y="-6.85" font-family="Arial Bold" font-size="12.00" fill="white">(up to 25)</text>
</g>
<!-- tool_exec&#45;&gt;recursive -->
<g id="edge6" class="edge">
<title>tool_exec&#45;&gt;recursive</title>
<path fill="none" stroke="#9c27b0" stroke-width="2" d="M44.75,-109.46C44.75,-78.01 44.75,-17 44.75,-17 44.75,-17 107.41,-17 107.41,-17"/>
<polygon fill="#9c27b0" stroke="#9c27b0" stroke-width="2" points="107.41,-20.5 117.41,-17 107.41,-13.5 107.41,-20.5"/>
</g>
<!-- recursive&#45;&gt;tool_needed -->
<g id="edge7" class="edge">
<title>recursive&#45;&gt;tool_needed</title>
<path fill="none" stroke="#9c27b0" stroke-width="1.5" stroke-dasharray="5,2" d="M120.69,-34C119.05,-34 118.08,-34 118.08,-34 118.08,-34 118.08,-331.96 118.08,-331.96"/>
<polygon fill="#9c27b0" stroke="#9c27b0" stroke-width="1.5" points="114.58,-331.96 118.08,-341.96 121.58,-331.96 114.58,-331.96"/>
</g>
<!-- final_response -->
<g id="node8" class="node">
<title>final_response</title>
<polygon fill="#f44336" stroke="black" points="215.25,-145.75 124.25,-145.75 124.25,-109.75 215.25,-109.75 215.25,-145.75"/>
<text xml:space="preserve" text-anchor="middle" x="169.75" y="-130.8" font-family="Arial" font-size="11.00" fill="white">Final Response</text>
<text xml:space="preserve" text-anchor="middle" x="169.75" y="-117.3" font-family="Arial" font-size="11.00" fill="white">(To User)</text>
</g>
<!-- gen_response&#45;&gt;final_response -->
<g id="edge8" class="edge">
<title>gen_response&#45;&gt;final_response</title>
<path fill="none" stroke="#f44336" stroke-width="2" d="M169.75,-204.63C169.75,-204.63 169.75,-159.09 169.75,-159.09"/>
<polygon fill="#f44336" stroke="#f44336" stroke-width="2" points="173.25,-159.09 169.75,-149.09 166.25,-159.09 173.25,-159.09"/>
</g>
</g>
</svg>
