<?xml version="1.0" encoding="UTF-8" standalone="no"?>
<!DOCTYPE svg PUBLIC "-//W3C//DTD SVG 1.1//EN"
 "http://www.w3.org/Graphics/SVG/1.1/DTD/svg11.dtd">
<!-- Generated by graphviz version 14.1.2 (0)
 -->
<!-- Title: MaigretFeatures Pages: 1 -->
<svg width="1887pt" height="262pt"
 viewBox="0.00 0.00 1887.00 262.00" xmlns="http://www.w3.org/2000/svg" xmlns:xlink="http://www.w3.org/1999/xlink">
<g id="graph0" class="graph" transform="scale(1 1) rotate(0) translate(4 257.79)">
<title>MaigretFeatures</title>
<!-- maigret -->
<g id="node1" class="node">
<title>maigret</title>
<path fill="#2e86c1" stroke="black" stroke-width="2" d="M1114.56,-189.81C1114.56,-189.81 1114.56,-207.98 1114.56,-207.98 1114.56,-213.98 1109.29,-222.86 1104.03,-225.73 1104.03,-225.73 1070.5,-244.04 1070.5,-244.04 1065.24,-246.92 1053.97,-249.79 1047.97,-249.79 1047.97,-249.79 994.78,-249.79 994.78,-249.79 988.78,-249.79 977.51,-246.92 972.25,-244.04 972.25,-244.04 938.72,-225.73 938.72,-225.73 933.46,-222.86 928.19,-213.98 928.19,-207.98 928.19,-207.98 928.19,-189.81 928.19,-189.81 928.19,-183.81 933.46,-174.94 938.72,-172.06 938.72,-172.06 972.25,-153.75 972.25,-153.75 977.51,-150.88 988.78,-148 994.78,-148 994.78,-148 1047.97,-148 1047.97,-148 1053.97,-148 1065.24,-150.88 1070.5,-153.75 1070.5,-153.75 1104.03,-172.06 1104.03,-172.06 1109.29,-174.94 1114.56,-183.81 1114.56,-189.81"/>
<path fill="none" stroke="black" stroke-width="2" d="M1118.56,-187.44C1118.56,-187.44 1118.56,-210.35 1118.56,-210.35 1118.56,-216.35 1113.29,-225.23 1108.03,-228.1 1108.03,-228.1 1071.53,-248.04 1071.53,-248.04 1066.26,-250.92 1054.99,-253.79 1048.99,-253.79 1048.99,-253.79 993.76,-253.79 993.76,-253.79 987.76,-253.79 976.49,-250.92 971.22,-248.04 971.22,-248.04 934.72,-228.1 934.72,-228.1 929.46,-225.23 924.19,-216.35 924.19,-210.35 924.19,-210.35 924.19,-187.44 924.19,-187.44 924.19,-181.44 929.46,-172.57 934.72,-169.69 934.72,-169.69 971.22,-149.75 971.22,-149.75 976.49,-146.88 987.76,-144 993.76,-144 993.76,-144 1048.99,-144 1048.99,-144 1054.99,-144 1066.26,-146.88 1071.53,-149.75 1071.53,-149.75 1108.03,-169.69 1108.03,-169.69 1113.29,-172.57 1118.56,-181.44 1118.56,-187.44"/>
<text xml:space="preserve" text-anchor="middle" x="1021.38" y="-214.85" font-family="Segoe UI" font-size="14.00" fill="white">Maigret</text>
<text xml:space="preserve" text-anchor="middle" x="1021.38" y="-195.35" font-family="Segoe UI" font-size="14.00" fill="white">OSINT Username</text>
<text xml:space="preserve" text-anchor="middle" x="1021.38" y="-175.85" font-family="Segoe UI" font-size="14.00" fill="white">Search Engine</text>
</g>
<!-- search_features -->
<g id="node2" class="node">
<title>search_features</title>
<path fill="#aed6f1" stroke="black" d="M368.5,-108C368.5,-108 278.25,-108 278.25,-108 272.25,-108 266.25,-102 266.25,-96 266.25,-96 266.25,-84 266.25,-84 266.25,-78 272.25,-72 278.25,-72 278.25,-72 368.5,-72 368.5,-72 374.5,-72 380.5,-78 380.5,-84 380.5,-84 380.5,-96 380.5,-96 380.5,-102 374.5,-108 368.5,-108"/>
<text xml:space="preserve" text-anchor="middle" x="323.38" y="-87.22" font-family="Segoe UI" font-size="12.00">Search Capabilities</text>
</g>
<!-- maigret&#45;&gt;search_features -->
<g id="edge1" class="edge">
<title>maigret&#45;&gt;search_features</title>
<path fill="none" stroke="#5d6d7e" stroke-width="2" d="M923.22,-182.86C780.33,-160.98 518.49,-120.88 393.45,-101.73"/>
<polygon fill="#5d6d7e" stroke="#5d6d7e" stroke-width="2" points="394.1,-98.29 383.69,-100.24 393.05,-105.21 394.1,-98.29"/>
</g>
<!-- output_features -->
<g id="node3" class="node">
<title>output_features</title>
<path fill="#a9dfbf" stroke="black" d="M858.5,-108C858.5,-108 774.25,-108 774.25,-108 768.25,-108 762.25,-102 762.25,-96 762.25,-96 762.25,-84 762.25,-84 762.25,-78 768.25,-72 774.25,-72 774.25,-72 858.5,-72 858.5,-72 864.5,-72 870.5,-78 870.5,-84 870.5,-84 870.5,-96 870.5,-96 870.5,-102 864.5,-108 858.5,-108"/>
<text xml:space="preserve" text-anchor="middle" x="816.38" y="-87.22" font-family="Segoe UI" font-size="12.00">Output &amp; Reports</text>
</g>
<!-- maigret&#45;&gt;output_features -->
<g id="edge2" class="edge">
<title>maigret&#45;&gt;output_features</title>
<path fill="none" stroke="#5d6d7e" stroke-width="2" d="M949.68,-160.51C920.24,-145.16 887.07,-127.86 861.18,-114.36"/>
<polygon fill="#5d6d7e" stroke="#5d6d7e" stroke-width="2" points="863,-111.37 852.52,-109.85 859.77,-117.57 863,-111.37"/>
</g>
<!-- integration_features -->
<g id="node4" class="node">
<title>integration_features</title>
<path fill="#f9e79f" stroke="black" d="M1263,-108C1263,-108 1163.75,-108 1163.75,-108 1157.75,-108 1151.75,-102 1151.75,-96 1151.75,-96 1151.75,-84 1151.75,-84 1151.75,-78 1157.75,-72 1163.75,-72 1163.75,-72 1263,-72 1263,-72 1269,-72 1275,-78 1275,-84 1275,-84 1275,-96 1275,-96 1275,-102 1269,-108 1263,-108"/>
<text xml:space="preserve" text-anchor="middle" x="1213.38" y="-87.22" font-family="Segoe UI" font-size="12.00">Integration &amp; Access</text>
</g>
<!-- maigret&#45;&gt;integration_features -->
<g id="edge3" class="edge">
<title>maigret&#45;&gt;integration_features</title>
<path fill="none" stroke="#5d6d7e" stroke-width="2" d="M1090.69,-159.3C1117.43,-144.42 1147.17,-127.86 1170.67,-114.77"/>
<polygon fill="#5d6d7e" stroke="#5d6d7e" stroke-width="2" points="1172.33,-117.86 1179.36,-109.94 1168.92,-111.74 1172.33,-117.86"/>
</g>
<!-- privacy_features -->
<g id="node5" class="node">
<title>privacy_features</title>
<path fill="#f5b7b1" stroke="black" d="M1680.5,-108C1680.5,-108 1590.25,-108 1590.25,-108 1584.25,-108 1578.25,-102 1578.25,-96 1578.25,-96 1578.25,-84 1578.25,-84 1578.25,-78 1584.25,-72 1590.25,-72 1590.25,-72 1680.5,-72 1680.5,-72 1686.5,-72 1692.5,-78 1692.5,-84 1692.5,-84 1692.5,-96 1692.5,-96 1692.5,-102 1686.5,-108 1680.5,-108"/>
<text xml:space="preserve" text-anchor="middle" x="1635.38" y="-87.22" font-family="Segoe UI" font-size="12.00">Privacy &amp; Network</text>
</g>
<!-- maigret&#45;&gt;privacy_features -->
<g id="edge4" class="edge">
<title>maigret&#45;&gt;privacy_features</title>
<path fill="none" stroke="#5d6d7e" stroke-width="2" d="M1119.34,-180.84C1243.92,-159.15 1455.93,-122.24 1565.39,-103.19"/>
<polygon fill="#5d6d7e" stroke="#5d6d7e" stroke-width="2" points="1565.66,-106.69 1574.91,-101.53 1564.46,-99.79 1565.66,-106.69"/>
</g>
<!-- s1 -->
<g id="node6" class="node">
<title>s1</title>
<polygon fill="#ebf5fb" stroke="black" points="94.75,-36 0,-36 0,0 100.75,0 100.75,-30 94.75,-36"/>
<polyline fill="none" stroke="black" points="94.75,-36 94.75,-30"/>
<polyline fill="none" stroke="black" points="100.75,-30 94.75,-30"/>
<text xml:space="preserve" text-anchor="middle" x="50.38" y="-15.82" font-family="Segoe UI" font-size="9.00">3,000+ Sites Database</text>
</g>
<!-- search_features&#45;&gt;s1 -->
<g id="edge5" class="edge">
<title>search_features&#45;&gt;s1</title>
<path fill="none" stroke="#5d6d7e" d="M266,-75.41C225.44,-65.67 169.52,-51.94 112.27,-36.73"/>
<polygon fill="#5d6d7e" stroke="#5d6d7e" points="113.22,-33.36 102.65,-34.16 111.41,-40.13 113.22,-33.36"/>
</g>
<!-- s2 -->
<g id="node7" class="node">
<title>s2</title>
<polygon fill="#ebf5fb" stroke="black" points="194.38,-36 118.38,-36 118.38,0 200.38,0 200.38,-30 194.38,-36"/>
<polyline fill="none" stroke="black" points="194.38,-36 194.38,-30"/>
<polyline fill="none" stroke="black" points="200.38,-30 194.38,-30"/>
<text xml:space="preserve" text-anchor="middle" x="159.38" y="-15.82" font-family="Segoe UI" font-size="9.00">Recursive Search</text>
</g>
<!-- search_features&#45;&gt;s2 -->
<g id="edge6" class="edge">
<title>search_features&#45;&gt;s2</title>
<path fill="none" stroke="#5d6d7e" d="M282.41,-71.52C260.61,-62.21 233.59,-50.68 210.43,-40.79"/>
<polygon fill="#5d6d7e" stroke="#5d6d7e" points="212.06,-37.68 201.49,-36.98 209.31,-44.12 212.06,-37.68"/>
</g>
<!-- s3 -->
<g id="node8" class="node">
<title>s3</title>
<polygon fill="#ebf5fb" stroke="black" points="304.25,-36 218.5,-36 218.5,0 310.25,0 310.25,-30 304.25,-36"/>
<polyline fill="none" stroke="black" points="304.25,-36 304.25,-30"/>
<polyline fill="none" stroke="black" points="310.25,-30 304.25,-30"/>
<text xml:space="preserve" text-anchor="middle" x="264.38" y="-22.2" font-family="Segoe UI" font-size="9.00">Tag Filtering</text>
<text xml:space="preserve" text-anchor="middle" x="264.38" y="-9.45" font-family="Segoe UI" font-size="9.00">(category, country)</text>
</g>
<!-- search_features&#45;&gt;s3 -->
<g id="edge7" class="edge">
<title>search_features&#45;&gt;s3</title>
<path fill="none" stroke="#5d6d7e" d="M308.79,-71.7C301.93,-63.56 293.61,-53.69 286.04,-44.7"/>
<polygon fill="#5d6d7e" stroke="#5d6d7e" points="288.89,-42.65 279.77,-37.26 283.54,-47.16 288.89,-42.65"/>
</g>
<!-- s4 -->
<g id="node9" class="node">
<title>s4</title>
<polygon fill="#ebf5fb" stroke="black" points="428,-36 328.75,-36 328.75,0 434,0 434,-30 428,-36"/>
<polyline fill="none" stroke="black" points="428,-36 428,-30"/>
<polyline fill="none" stroke="black" points="434,-30 428,-30"/>
<text xml:space="preserve" text-anchor="middle" x="381.38" y="-15.82" font-family="Segoe UI" font-size="9.00">Username Permutation</text>
</g>
<!-- search_features&#45;&gt;s4 -->
<g id="edge8" class="edge">
<title>search_features&#45;&gt;s4</title>
<path fill="none" stroke="#5d6d7e" d="M337.71,-71.7C344.45,-63.56 352.63,-53.69 360.08,-44.7"/>
<polygon fill="#5d6d7e" stroke="#5d6d7e" points="362.55,-47.2 366.24,-37.27 357.16,-42.74 362.55,-47.2"/>
</g>
<!-- s5 -->
<g id="node10" class="node">
<title>s5</title>
<polygon fill="#ebf5fb" stroke="black" points="518.5,-36 452.25,-36 452.25,0 524.5,0 524.5,-30 518.5,-36"/>
<polyline fill="none" stroke="black" points="518.5,-36 518.5,-30"/>
<polyline fill="none" stroke="black" points="524.5,-30 518.5,-30"/>
<text xml:space="preserve" text-anchor="middle" x="488.38" y="-22.2" font-family="Segoe UI" font-size="9.00">Profile Parsing</text>
<text xml:space="preserve" text-anchor="middle" x="488.38" y="-9.45" font-family="Segoe UI" font-size="9.00">&#45;&#45;parse URL</text>
</g>
<!-- search_features&#45;&gt;s5 -->
<g id="edge9" class="edge">
<title>search_features&#45;&gt;s5</title>
<path fill="none" stroke="#5d6d7e" d="M364.59,-71.52C387.95,-61.6 417.27,-49.17 441.51,-38.88"/>
<polygon fill="#5d6d7e" stroke="#5d6d7e" points="442.67,-42.19 450.5,-35.07 439.93,-35.75 442.67,-42.19"/>
</g>
<!-- o1 -->
<g id="node11" class="node">
<title>o1</title>
<polygon fill="#eafaf1" stroke="black" points="608.5,-36 542.25,-36 542.25,0 614.5,0 614.5,-30 608.5,-36"/>
<polyline fill="none" stroke="black" points="608.5,-36 608.5,-30"/>
<polyline fill="none" stroke="black" points="614.5,-30 608.5,-30"/>
<text xml:space="preserve" text-anchor="middle" x="578.38" y="-15.82" font-family="Segoe UI" font-size="9.00">HTML Reports</text>
</g>
<!-- output_features&#45;&gt;o1 -->
<g id="edge10" class="edge">
<title>output_features&#45;&gt;o1</title>
<path fill="none" stroke="#5d6d7e" d="M761.9,-75.49C725.6,-66.16 676.66,-52.95 625.56,-36.57"/>
<polygon fill="#5d6d7e" stroke="#5d6d7e" points="626.65,-33.25 616.06,-33.49 624.49,-39.9 626.65,-33.25"/>
</g>
<!-- o2 -->
<g id="node12" class="node">
<title>o2</title>
<polygon fill="#eafaf1" stroke="black" points="690.38,-36 632.38,-36 632.38,0 696.38,0 696.38,-30 690.38,-36"/>
<polyline fill="none" stroke="black" points="690.38,-36 690.38,-30"/>
<polyline fill="none" stroke="black" points="696.38,-30 690.38,-30"/>
<text xml:space="preserve" text-anchor="middle" x="664.38" y="-15.82" font-family="Segoe UI" font-size="9.00">PDF Reports</text>
</g>
<!-- output_features&#45;&gt;o2 -->
<g id="edge11" class="edge">
<title>output_features&#45;&gt;o2</title>
<path fill="none" stroke="#5d6d7e" d="M778.41,-71.52C756.7,-61.52 729.41,-48.95 706.97,-38.62"/>
<polygon fill="#5d6d7e" stroke="#5d6d7e" points="708.64,-35.53 698.09,-34.53 705.71,-41.89 708.64,-35.53"/>
</g>
<!-- o3 -->
<g id="node13" class="node">
<title>o3</title>
<polygon fill="#eafaf1" stroke="black" points="800.25,-36 714.5,-36 714.5,0 806.25,0 806.25,-30 800.25,-36"/>
<polyline fill="none" stroke="black" points="800.25,-36 800.25,-30"/>
<polyline fill="none" stroke="black" points="806.25,-30 800.25,-30"/>
<text xml:space="preserve" text-anchor="middle" x="760.38" y="-15.82" font-family="Segoe UI" font-size="9.00">CSV &amp; JSON Export</text>
</g>
<!-- output_features&#45;&gt;o3 -->
<g id="edge12" class="edge">
<title>output_features&#45;&gt;o3</title>
<path fill="none" stroke="#5d6d7e" d="M802.53,-71.7C796.09,-63.64 788.29,-53.89 781.16,-44.98"/>
<polygon fill="#5d6d7e" stroke="#5d6d7e" points="783.98,-42.91 775,-37.29 778.52,-47.28 783.98,-42.91"/>
</g>
<!-- o4 -->
<g id="node14" class="node">
<title>o4</title>
<polygon fill="#eafaf1" stroke="black" points="914.5,-36 824.25,-36 824.25,0 920.5,0 920.5,-30 914.5,-36"/>
<polyline fill="none" stroke="black" points="914.5,-36 914.5,-30"/>
<polyline fill="none" stroke="black" points="920.5,-30 914.5,-30"/>
<text xml:space="preserve" text-anchor="middle" x="872.38" y="-15.82" font-family="Segoe UI" font-size="9.00">Interactive D3 Graph</text>
</g>
<!-- output_features&#45;&gt;o4 -->
<g id="edge13" class="edge">
<title>output_features&#45;&gt;o4</title>
<path fill="none" stroke="#5d6d7e" d="M830.22,-71.7C836.66,-63.64 844.46,-53.89 851.59,-44.98"/>
<polygon fill="#5d6d7e" stroke="#5d6d7e" points="854.23,-47.28 857.75,-37.29 848.77,-42.91 854.23,-47.28"/>
</g>
<!-- o5 -->
<g id="node15" class="node">
<title>o5</title>
<polygon fill="#eafaf1" stroke="black" points="1017.88,-36 938.88,-36 938.88,0 1023.88,0 1023.88,-30 1017.88,-36"/>
<polyline fill="none" stroke="black" points="1017.88,-36 1017.88,-30"/>
<polyline fill="none" stroke="black" points="1023.88,-30 1017.88,-30"/>
<text xml:space="preserve" text-anchor="middle" x="981.38" y="-15.82" font-family="Segoe UI" font-size="9.00">Xmind Mind Map</text>
</g>
<!-- output_features&#45;&gt;o5 -->
<g id="edge14" class="edge">
<title>output_features&#45;&gt;o5</title>
<path fill="none" stroke="#5d6d7e" d="M857.59,-71.52C879.52,-62.21 906.7,-50.68 930,-40.79"/>
<polygon fill="#5d6d7e" stroke="#5d6d7e" points="931.17,-44.1 939.01,-36.97 928.44,-37.66 931.17,-44.1"/>
</g>
<!-- i1 -->
<g id="node16" class="node">
<title>i1</title>
<polygon fill="#fef9e7" stroke="black" points="1110.62,-36 1042.12,-36 1042.12,0 1116.62,0 1116.62,-30 1110.62,-36"/>
<polyline fill="none" stroke="black" points="1110.62,-36 1110.62,-30"/>
<polyline fill="none" stroke="black" points="1116.62,-30 1110.62,-30"/>
<text xml:space="preserve" text-anchor="middle" x="1079.38" y="-22.2" font-family="Segoe UI" font-size="9.00">Python Library</text>
<text xml:space="preserve" text-anchor="middle" x="1079.38" y="-9.45" font-family="Segoe UI" font-size="9.00">import maigret</text>
</g>
<!-- integration_features&#45;&gt;i1 -->
<g id="edge15" class="edge">
<title>integration_features&#45;&gt;i1</title>
<path fill="none" stroke="#5d6d7e" d="M1179.91,-71.52C1162.51,-62.43 1141.05,-51.22 1122.43,-41.49"/>
<polygon fill="#5d6d7e" stroke="#5d6d7e" points="1124.24,-38.49 1113.76,-36.96 1121,-44.69 1124.24,-38.49"/>
</g>
<!-- i2 -->
<g id="node17" class="node">
<title>i2</title>
<polygon fill="#fef9e7" stroke="black" points="1199.75,-36 1135,-36 1135,0 1205.75,0 1205.75,-30 1199.75,-36"/>
<polyline fill="none" stroke="black" points="1199.75,-36 1199.75,-30"/>
<polyline fill="none" stroke="black" points="1205.75,-30 1199.75,-30"/>
<text xml:space="preserve" text-anchor="middle" x="1170.38" y="-22.2" font-family="Segoe UI" font-size="9.00">Web Interface</text>
<text xml:space="preserve" text-anchor="middle" x="1170.38" y="-9.45" font-family="Segoe UI" font-size="9.00">&#45;&#45;web 5000</text>
</g>
<!-- integration_features&#45;&gt;i2 -->
<g id="edge16" class="edge">
<title>integration_features&#45;&gt;i2</title>
<path fill="none" stroke="#5d6d7e" d="M1202.75,-71.7C1197.96,-63.9 1192.19,-54.51 1186.86,-45.83"/>
<polygon fill="#5d6d7e" stroke="#5d6d7e" points="1189.89,-44.08 1181.67,-37.39 1183.93,-47.75 1189.89,-44.08"/>
</g>
<!-- i3 -->
<g id="node18" class="node">
<title>i3</title>
<polygon fill="#fef9e7" stroke="black" points="1284.88,-36 1223.88,-36 1223.88,0 1290.88,0 1290.88,-30 1284.88,-36"/>
<polyline fill="none" stroke="black" points="1284.88,-36 1284.88,-30"/>
<polyline fill="none" stroke="black" points="1290.88,-30 1284.88,-30"/>
<text xml:space="preserve" text-anchor="middle" x="1257.38" y="-15.82" font-family="Segoe UI" font-size="9.00">Telegram Bot</text>
</g>
<!-- integration_features&#45;&gt;i3 -->
<g id="edge17" class="edge">
<title>integration_features&#45;&gt;i3</title>
<path fill="none" stroke="#5d6d7e" d="M1224.25,-71.7C1229.15,-63.9 1235.06,-54.51 1240.51,-45.83"/>
<polygon fill="#5d6d7e" stroke="#5d6d7e" points="1243.46,-47.71 1245.82,-37.39 1237.53,-43.99 1243.46,-47.71"/>
</g>
<!-- i4 -->
<g id="node19" class="node">
<title>i4</title>
<polygon fill="#fef9e7" stroke="black" points="1376.25,-36 1308.5,-36 1308.5,0 1382.25,0 1382.25,-30 1376.25,-36"/>
<polyline fill="none" stroke="black" points="1376.25,-36 1376.25,-30"/>
<polyline fill="none" stroke="black" points="1382.25,-30 1376.25,-30"/>
<text xml:space="preserve" text-anchor="middle" x="1345.38" y="-22.2" font-family="Segoe UI" font-size="9.00">Docker Images</text>
<text xml:space="preserve" text-anchor="middle" x="1345.38" y="-9.45" font-family="Segoe UI" font-size="9.00">CLI &amp; Web</text>
</g>
<!-- integration_features&#45;&gt;i4 -->
<g id="edge18" class="edge">
<title>integration_features&#45;&gt;i4</title>
<path fill="none" stroke="#5d6d7e" d="M1246.34,-71.52C1263.4,-62.47 1284.43,-51.32 1302.71,-41.62"/>
<polygon fill="#5d6d7e" stroke="#5d6d7e" points="1304.29,-44.75 1311.49,-36.97 1301.01,-38.56 1304.29,-44.75"/>
</g>
<!-- i5 -->
<g id="node20" class="node">
<title>i5</title>
<polygon fill="#fef9e7" stroke="black" points="1454.5,-36 1400.25,-36 1400.25,0 1460.5,0 1460.5,-30 1454.5,-36"/>
<polyline fill="none" stroke="black" points="1454.5,-36 1454.5,-30"/>
<polyline fill="none" stroke="black" points="1460.5,-30 1454.5,-30"/>
<text xml:space="preserve" text-anchor="middle" x="1430.38" y="-22.2" font-family="Segoe UI" font-size="9.00">Cloud Shell</text>
<text xml:space="preserve" text-anchor="middle" x="1430.38" y="-9.45" font-family="Segoe UI" font-size="9.00">Support</text>
</g>
<!-- integration_features&#45;&gt;i5 -->
<g id="edge19" class="edge">
<title>integration_features&#45;&gt;i5</title>
<path fill="none" stroke="#5d6d7e" d="M1275.35,-72.55C1307.22,-63.63 1346.79,-51.85 1389.29,-36.57"/>
<polygon fill="#5d6d7e" stroke="#5d6d7e" points="1390.24,-39.95 1398.44,-33.24 1387.84,-33.37 1390.24,-39.95"/>
</g>
<!-- p1 -->
<g id="node21" class="node">
<title>p1</title>
<polygon fill="#fdedec" stroke="black" points="1536.38,-36 1478.38,-36 1478.38,0 1542.38,0 1542.38,-30 1536.38,-36"/>
<polyline fill="none" stroke="black" points="1536.38,-36 1536.38,-30"/>
<polyline fill="none" stroke="black" points="1542.38,-30 1536.38,-30"/>
<text xml:space="preserve" text-anchor="middle" x="1510.38" y="-22.2" font-family="Segoe UI" font-size="9.00">Tor Network</text>
<text xml:space="preserve" text-anchor="middle" x="1510.38" y="-9.45" font-family="Segoe UI" font-size="9.00">Support</text>
</g>
<!-- privacy_features&#45;&gt;p1 -->
<g id="edge20" class="edge">
<title>privacy_features&#45;&gt;p1</title>
<path fill="none" stroke="#5d6d7e" d="M1604.15,-71.52C1588.08,-62.51 1568.27,-51.42 1551.02,-41.76"/>
<polygon fill="#5d6d7e" stroke="#5d6d7e" points="1552.95,-38.83 1542.52,-37 1549.53,-44.94 1552.95,-38.83"/>
</g>
<!-- p2 -->
<g id="node22" class="node">
<title>p2</title>
<polygon fill="#fdedec" stroke="black" points="1618.38,-36 1560.38,-36 1560.38,0 1624.38,0 1624.38,-30 1618.38,-36"/>
<polyline fill="none" stroke="black" points="1618.38,-36 1618.38,-30"/>
<polyline fill="none" stroke="black" points="1624.38,-30 1618.38,-30"/>
<text xml:space="preserve" text-anchor="middle" x="1592.38" y="-22.2" font-family="Segoe UI" font-size="9.00">I2P Network</text>
<text xml:space="preserve" text-anchor="middle" x="1592.38" y="-9.45" font-family="Segoe UI" font-size="9.00">Support</text>
</g>
<!-- privacy_features&#45;&gt;p2 -->
<g id="edge21" class="edge">
<title>privacy_features&#45;&gt;p2</title>
<path fill="none" stroke="#5d6d7e" d="M1624.75,-71.7C1619.96,-63.9 1614.19,-54.51 1608.86,-45.83"/>
<polygon fill="#5d6d7e" stroke="#5d6d7e" points="1611.89,-44.08 1603.67,-37.39 1605.93,-47.75 1611.89,-44.08"/>
</g>
<!-- p3 -->
<g id="node23" class="node">
<title>p3</title>
<polygon fill="#fdedec" stroke="black" points="1708.5,-36 1642.25,-36 1642.25,0 1714.5,0 1714.5,-30 1708.5,-36"/>
<polyline fill="none" stroke="black" points="1708.5,-36 1708.5,-30"/>
<polyline fill="none" stroke="black" points="1714.5,-30 1708.5,-30"/>
<text xml:space="preserve" text-anchor="middle" x="1678.38" y="-22.2" font-family="Segoe UI" font-size="9.00">SOCKS/HTTP</text>
<text xml:space="preserve" text-anchor="middle" x="1678.38" y="-9.45" font-family="Segoe UI" font-size="9.00">Proxy Support</text>
</g>
<!-- privacy_features&#45;&gt;p3 -->
<g id="edge22" class="edge">
<title>privacy_features&#45;&gt;p3</title>
<path fill="none" stroke="#5d6d7e" d="M1646,-71.7C1650.79,-63.9 1656.56,-54.51 1661.89,-45.83"/>
<polygon fill="#5d6d7e" stroke="#5d6d7e" points="1664.82,-47.75 1667.08,-37.39 1658.86,-44.08 1664.82,-47.75"/>
</g>
<!-- p4 -->
<g id="node24" class="node">
<title>p4</title>
<polygon fill="#fdedec" stroke="black" points="1781.88,-36 1732.88,-36 1732.88,0 1787.88,0 1787.88,-30 1781.88,-36"/>
<polyline fill="none" stroke="black" points="1781.88,-36 1781.88,-30"/>
<polyline fill="none" stroke="black" points="1787.88,-30 1781.88,-30"/>
<text xml:space="preserve" text-anchor="middle" x="1760.38" y="-22.2" font-family="Segoe UI" font-size="9.00">CAPTCHA</text>
<text xml:space="preserve" text-anchor="middle" x="1760.38" y="-9.45" font-family="Segoe UI" font-size="9.00">Bypass</text>
</g>
<!-- privacy_features&#45;&gt;p4 -->
<g id="edge23" class="edge">
<title>privacy_features&#45;&gt;p4</title>
<path fill="none" stroke="#5d6d7e" d="M1666.6,-71.52C1683.6,-61.99 1704.77,-50.14 1722.69,-40.11"/>
<polygon fill="#5d6d7e" stroke="#5d6d7e" points="1724.2,-43.27 1731.21,-35.33 1720.78,-37.16 1724.2,-43.27"/>
</g>
<!-- p5 -->
<g id="node25" class="node">
<title>p5</title>
<polygon fill="#fdedec" stroke="black" points="1872.88,-36 1805.88,-36 1805.88,0 1878.88,0 1878.88,-30 1872.88,-36"/>
<polyline fill="none" stroke="black" points="1872.88,-36 1872.88,-30"/>
<polyline fill="none" stroke="black" points="1878.88,-30 1872.88,-30"/>
<text xml:space="preserve" text-anchor="middle" x="1842.38" y="-22.2" font-family="Segoe UI" font-size="9.00">Auto&#45;Updated</text>
<text xml:space="preserve" text-anchor="middle" x="1842.38" y="-9.45" font-family="Segoe UI" font-size="9.00">Site Database</text>
</g>
<!-- privacy_features&#45;&gt;p5 -->
<g id="edge24" class="edge">
<title>privacy_features&#45;&gt;p5</title>
<path fill="none" stroke="#5d6d7e" d="M1690.69,-71.58C1719.52,-62.35 1755.57,-50.56 1794.95,-36.79"/>
<polygon fill="#5d6d7e" stroke="#5d6d7e" points="1795.89,-40.17 1804.16,-33.55 1793.56,-33.57 1795.89,-40.17"/>
</g>
</g>
</svg>
