<?xml version="1.0" encoding="UTF-8" standalone="no"?>
<!DOCTYPE svg PUBLIC "-//W3C//DTD SVG 1.1//EN"
 "http://www.w3.org/Graphics/SVG/1.1/DTD/svg11.dtd">
<!-- Generated by graphviz version 14.1.2 (0)
 -->
<!-- Title: usage_patterns Pages: 1 -->
<svg width="1654pt" height="492pt"
 viewBox="0.00 0.00 1654.00 492.00" xmlns="http://www.w3.org/2000/svg" xmlns:xlink="http://www.w3.org/1999/xlink">
<g id="graph0" class="graph" transform="scale(2.08333 2.08333) rotate(0) translate(4 232.36)">
<title>usage_patterns</title>
<polygon fill="white" stroke="none" points="-4,4 -4,-232.36 790,-232.36 790,4 -4,4"/>
<!-- entry -->
<g id="node1" class="node">
<title>entry</title>
<ellipse fill="#fff3e0" stroke="#e65100" cx="390.38" cy="-200.43" rx="66.47" ry="27.93"/>
<text xml:space="preserve" text-anchor="middle" x="390.38" y="-202.88" font-family="Arial Bold" font-size="14.00">MarkItDown</text>
<text xml:space="preserve" text-anchor="middle" x="390.38" y="-187.13" font-family="Arial Bold" font-size="14.00">Usage</text>
</g>
<!-- cli -->
<g id="node2" class="node">
<title>cli</title>
<path fill="#e3f2fd" stroke="#1976d2" d="M199.88,-122.5C199.88,-122.5 120.88,-122.5 120.88,-122.5 114.88,-122.5 108.88,-116.5 108.88,-110.5 108.88,-110.5 108.88,-98 108.88,-98 108.88,-92 114.88,-86 120.88,-86 120.88,-86 199.88,-86 199.88,-86 205.88,-86 211.88,-92 211.88,-98 211.88,-98 211.88,-110.5 211.88,-110.5 211.88,-116.5 205.88,-122.5 199.88,-122.5"/>
<text xml:space="preserve" text-anchor="middle" x="160.38" y="-107.1" font-family="Arial Bold" font-size="12.00">Command Line</text>
<text xml:space="preserve" text-anchor="middle" x="160.38" y="-92.85" font-family="Arial Bold" font-size="12.00">Interface</text>
</g>
<!-- entry&#45;&gt;cli -->
<g id="edge1" class="edge">
<title>entry&#45;&gt;cli</title>
<path fill="none" stroke="#1976d2" stroke-width="2" d="M323.54,-200C255.63,-200 160.38,-200 160.38,-200 160.38,-200 160.38,-135.74 160.38,-135.74"/>
<polygon fill="#1976d2" stroke="#1976d2" stroke-width="2" points="163.88,-135.74 160.38,-125.74 156.88,-135.74 163.88,-135.74"/>
</g>
<!-- python_api -->
<g id="node4" class="node">
<title>python_api</title>
<path fill="#e8f5e9" stroke="#388e3c" d="M362.62,-122.25C362.62,-122.25 306.12,-122.25 306.12,-122.25 300.12,-122.25 294.12,-116.25 294.12,-110.25 294.12,-110.25 294.12,-98.25 294.12,-98.25 294.12,-92.25 300.12,-86.25 306.12,-86.25 306.12,-86.25 362.62,-86.25 362.62,-86.25 368.62,-86.25 374.62,-92.25 374.62,-98.25 374.62,-98.25 374.62,-110.25 374.62,-110.25 374.62,-116.25 368.62,-122.25 362.62,-122.25"/>
<text xml:space="preserve" text-anchor="middle" x="334.38" y="-99.97" font-family="Arial Bold" font-size="12.00">Python API</text>
</g>
<!-- entry&#45;&gt;python_api -->
<g id="edge3" class="edge">
<title>entry&#45;&gt;python_api</title>
<path fill="none" stroke="#388e3c" stroke-width="2" d="M349.27,-178.12C349.27,-178.12 349.27,-135.59 349.27,-135.59"/>
<polygon fill="#388e3c" stroke="#388e3c" stroke-width="2" points="352.77,-135.59 349.27,-125.59 345.77,-135.59 352.77,-135.59"/>
</g>
<!-- docker -->
<g id="node6" class="node">
<title>docker</title>
<path fill="#fff3e0" stroke="#e65100" d="M520.5,-122.5C520.5,-122.5 472.25,-122.5 472.25,-122.5 466.25,-122.5 460.25,-116.5 460.25,-110.5 460.25,-110.5 460.25,-98 460.25,-98 460.25,-92 466.25,-86 472.25,-86 472.25,-86 520.5,-86 520.5,-86 526.5,-86 532.5,-92 532.5,-98 532.5,-98 532.5,-110.5 532.5,-110.5 532.5,-116.5 526.5,-122.5 520.5,-122.5"/>
<text xml:space="preserve" text-anchor="middle" x="496.38" y="-107.1" font-family="Arial Bold" font-size="12.00">Docker</text>
<text xml:space="preserve" text-anchor="middle" x="496.38" y="-92.85" font-family="Arial Bold" font-size="12.00">Container</text>
</g>
<!-- entry&#45;&gt;docker -->
<g id="edge5" class="edge">
<title>entry&#45;&gt;docker</title>
<path fill="none" stroke="#e65100" stroke-width="2" d="M448.36,-186.61C448.36,-159.95 448.36,-104 448.36,-104 448.36,-104 449.52,-104 449.52,-104"/>
<polygon fill="#e65100" stroke="#e65100" stroke-width="2" points="446.96,-107.5 456.96,-104 446.96,-100.5 446.96,-107.5"/>
</g>
<!-- mcp -->
<g id="node8" class="node">
<title>mcp</title>
<path fill="#f3e5f5" stroke="#7b1fa2" d="M726.88,-122.5C726.88,-122.5 635.88,-122.5 635.88,-122.5 629.88,-122.5 623.88,-116.5 623.88,-110.5 623.88,-110.5 623.88,-98 623.88,-98 623.88,-92 629.88,-86 635.88,-86 635.88,-86 726.88,-86 726.88,-86 732.88,-86 738.88,-92 738.88,-98 738.88,-98 738.88,-110.5 738.88,-110.5 738.88,-116.5 732.88,-122.5 726.88,-122.5"/>
<text xml:space="preserve" text-anchor="middle" x="681.38" y="-107.1" font-family="Arial Bold" font-size="12.00">MCP Server</text>
<text xml:space="preserve" text-anchor="middle" x="681.38" y="-92.85" font-family="Arial Bold" font-size="12.00">(Claude Desktop)</text>
</g>
<!-- entry&#45;&gt;mcp -->
<g id="edge7" class="edge">
<title>entry&#45;&gt;mcp</title>
<path fill="none" stroke="#7b1fa2" stroke-width="2" d="M457.14,-200C543.05,-200 681.38,-200 681.38,-200 681.38,-200 681.38,-135.74 681.38,-135.74"/>
<polygon fill="#7b1fa2" stroke="#7b1fa2" stroke-width="2" points="684.88,-135.74 681.38,-125.74 677.88,-135.74 684.88,-135.74"/>
</g>
<!-- cli_example -->
<g id="node3" class="node">
<title>cli_example</title>
<polygon fill="white" stroke="#1976d2" points="172.75,-36 0,-36 0,0 178.75,0 178.75,-30 172.75,-36"/>
<polyline fill="none" stroke="#1976d2" points="172.75,-36 172.75,-30"/>
<polyline fill="none" stroke="#1976d2" points="178.75,-30 172.75,-30"/>
<text xml:space="preserve" text-anchor="middle" x="89.38" y="-14.7" font-family="Courier,monospace" font-size="9.00">markitdown file.pdf &gt; output.md</text>
</g>
<!-- cli&#45;&gt;cli_example -->
<g id="edge2" class="edge">
<title>cli&#45;&gt;cli_example</title>
<path fill="none" stroke="#1976d2" stroke-dasharray="5,2" d="M143.81,-85.54C143.81,-85.54 143.81,-47.9 143.81,-47.9"/>
<polygon fill="#1976d2" stroke="#1976d2" points="147.31,-47.9 143.81,-37.9 140.31,-47.9 147.31,-47.9"/>
</g>
<!-- python_api_example -->
<g id="node5" class="node">
<title>python_api_example</title>
<polygon fill="white" stroke="#388e3c" points="398,-36 214.75,-36 214.75,0 404,0 404,-30 398,-36"/>
<polyline fill="none" stroke="#388e3c" points="398,-36 398,-30"/>
<polyline fill="none" stroke="#388e3c" points="404,-30 398,-30"/>
<text xml:space="preserve" text-anchor="middle" x="309.38" y="-14.7" font-family="Courier,monospace" font-size="9.00">from markitdown import MarkItDown</text>
</g>
<!-- python_api&#45;&gt;python_api_example -->
<g id="edge4" class="edge">
<title>python_api&#45;&gt;python_api_example</title>
<path fill="none" stroke="#388e3c" stroke-dasharray="5,2" d="M334.38,-85.96C334.38,-85.96 334.38,-47.78 334.38,-47.78"/>
<polygon fill="#388e3c" stroke="#388e3c" points="337.88,-47.78 334.38,-37.78 330.88,-47.78 337.88,-47.78"/>
</g>
<!-- docker_example -->
<g id="node7" class="node">
<title>docker_example</title>
<polygon fill="white" stroke="#e65100" points="596.88,-36 439.88,-36 439.88,0 602.88,0 602.88,-30 596.88,-36"/>
<polyline fill="none" stroke="#e65100" points="596.88,-36 596.88,-30"/>
<polyline fill="none" stroke="#e65100" points="602.88,-30 596.88,-30"/>
<text xml:space="preserve" text-anchor="middle" x="521.38" y="-14.7" font-family="Courier,monospace" font-size="9.00">docker run markitdown:latest</text>
</g>
<!-- docker&#45;&gt;docker_example -->
<g id="edge6" class="edge">
<title>docker&#45;&gt;docker_example</title>
<path fill="none" stroke="#e65100" stroke-dasharray="5,2" d="M496.38,-85.54C496.38,-85.54 496.38,-47.9 496.38,-47.9"/>
<polygon fill="#e65100" stroke="#e65100" points="499.88,-47.9 496.38,-37.9 492.88,-47.9 499.88,-47.9"/>
</g>
<!-- mcp_example -->
<g id="node9" class="node">
<title>mcp_example</title>
<polygon fill="white" stroke="#7b1fa2" points="780,-36 638.75,-36 638.75,0 786,0 786,-30 780,-36"/>
<polyline fill="none" stroke="#7b1fa2" points="780,-36 780,-30"/>
<polyline fill="none" stroke="#7b1fa2" points="786,-30 780,-30"/>
<text xml:space="preserve" text-anchor="middle" x="712.38" y="-14.7" font-family="Courier,monospace" font-size="9.00">Integration with LLM apps</text>
</g>
<!-- mcp&#45;&gt;mcp_example -->
<g id="edge8" class="edge">
<title>mcp&#45;&gt;mcp_example</title>
<path fill="none" stroke="#7b1fa2" stroke-dasharray="5,2" d="M688.81,-85.54C688.81,-85.54 688.81,-47.9 688.81,-47.9"/>
<polygon fill="#7b1fa2" stroke="#7b1fa2" points="692.31,-47.9 688.81,-37.9 685.31,-47.9 692.31,-47.9"/>
</g>
</g>
</svg>
