<?xml version="1.0" encoding="UTF-8" standalone="no"?>
<!DOCTYPE svg PUBLIC "-//W3C//DTD SVG 1.1//EN"
 "http://www.w3.org/Graphics/SVG/1.1/DTD/svg11.dtd">
<!-- Generated by graphviz version 14.1.2 (0)
 -->
<!-- Title: supported_formats Pages: 1 -->
<svg width="3156pt" height="293pt"
 viewBox="0.00 0.00 3156.00 293.00" xmlns="http://www.w3.org/2000/svg" xmlns:xlink="http://www.w3.org/1999/xlink">
<g id="graph0" class="graph" transform="scale(2.08333 2.08333) rotate(0) translate(4 136.83)">
<title>supported_formats</title>
<polygon fill="white" stroke="none" points="-4,4 -4,-136.83 1511,-136.83 1511,4 -4,4"/>
<g id="clust1" class="cluster">
<title>cluster_documents</title>
<polygon fill="#e3f2fd" stroke="#1976d2" points="8,-8 8,-83 418,-83 418,-8 8,-8"/>
<text xml:space="preserve" text-anchor="middle" x="213" y="-66.65" font-family="Arial Bold" font-size="13.00" fill="#1976d2">Documents</text>
</g>
<g id="clust2" class="cluster">
<title>cluster_web</title>
<polygon fill="#e8f5e9" stroke="#388e3c" points="431,-8 431,-83 713,-83 713,-8 431,-8"/>
<text xml:space="preserve" text-anchor="middle" x="572" y="-66.65" font-family="Arial Bold" font-size="13.00" fill="#388e3c">Web</text>
</g>
<g id="clust3" class="cluster">
<title>cluster_media</title>
<polygon fill="#f3e5f5" stroke="#7b1fa2" points="726,-8 726,-83 1084,-83 1084,-8 726,-8"/>
<text xml:space="preserve" text-anchor="middle" x="905" y="-66.65" font-family="Arial Bold" font-size="13.00" fill="#7b1fa2">Media</text>
</g>
<g id="clust4" class="cluster">
<title>cluster_data</title>
<polygon fill="#fffde7" stroke="#f57c00" points="1097,-8 1097,-83 1416,-83 1416,-8 1097,-8"/>
<text xml:space="preserve" text-anchor="middle" x="1256.5" y="-66.65" font-family="Arial Bold" font-size="13.00" fill="#f57c00">Data</text>
</g>
<g id="clust5" class="cluster">
<title>cluster_ebooks</title>
<polygon fill="#ffebee" stroke="#d32f2f" points="1429,-8 1429,-83 1499,-83 1499,-8 1429,-8"/>
<text xml:space="preserve" text-anchor="middle" x="1464" y="-66.65" font-family="Arial Bold" font-size="13.00" fill="#d32f2f">Ebooks</text>
</g>
<!-- markitdown -->
<g id="node1" class="node">
<title>markitdown</title>
<ellipse fill="#fff3e0" stroke="#e65100" cx="786" cy="-113.92" rx="75.48" ry="18.92"/>
<text xml:space="preserve" text-anchor="middle" x="786" y="-108.09" font-family="Arial Bold" font-size="16.00">MarkItDown</text>
</g>
<!-- documents_0 -->
<g id="node2" class="node">
<title>documents_0</title>
<path fill="white" stroke="#1976d2" d="M58,-52C58,-52 28,-52 28,-52 22,-52 16,-46 16,-40 16,-40 16,-28 16,-28 16,-22 22,-16 28,-16 28,-16 58,-16 58,-16 64,-16 70,-22 70,-28 70,-28 70,-40 70,-40 70,-46 64,-52 58,-52"/>
<text xml:space="preserve" text-anchor="middle" x="43" y="-30.5" font-family="Arial" font-size="10.00">PDF</text>
</g>
<!-- markitdown&#45;&gt;documents_0 -->
<g id="edge1" class="edge">
<title>markitdown&#45;&gt;documents_0</title>
<path fill="none" stroke="#1976d2" stroke-width="2" d="M714.08,-120C527.62,-120 43,-120 43,-120 43,-120 43,-65.27 43,-65.27"/>
<polygon fill="#1976d2" stroke="#1976d2" stroke-width="2" points="46.5,-65.27 43,-55.27 39.5,-65.27 46.5,-65.27"/>
</g>
<!-- web_0 -->
<g id="node6" class="node">
<title>web_0</title>
<path fill="white" stroke="#388e3c" d="M481,-52C481,-52 451,-52 451,-52 445,-52 439,-46 439,-40 439,-40 439,-28 439,-28 439,-22 445,-16 451,-16 451,-16 481,-16 481,-16 487,-16 493,-22 493,-28 493,-28 493,-40 493,-40 493,-46 487,-52 481,-52"/>
<text xml:space="preserve" text-anchor="middle" x="466" y="-30.5" font-family="Arial" font-size="10.00">HTML</text>
</g>
<!-- markitdown&#45;&gt;web_0 -->
<g id="edge2" class="edge">
<title>markitdown&#45;&gt;web_0</title>
<path fill="none" stroke="#388e3c" stroke-width="2" d="M713.79,-108C619.41,-108 466,-108 466,-108 466,-108 466,-65.32 466,-65.32"/>
<polygon fill="#388e3c" stroke="#388e3c" stroke-width="2" points="469.5,-65.32 466,-55.32 462.5,-65.32 469.5,-65.32"/>
</g>
<!-- media_0 -->
<g id="node9" class="node">
<title>media_0</title>
<path fill="white" stroke="#7b1fa2" d="M826.25,-52C826.25,-52 745.75,-52 745.75,-52 739.75,-52 733.75,-46 733.75,-40 733.75,-40 733.75,-28 733.75,-28 733.75,-22 739.75,-16 745.75,-16 745.75,-16 826.25,-16 826.25,-16 832.25,-16 838.25,-22 838.25,-28 838.25,-28 838.25,-40 838.25,-40 838.25,-46 832.25,-52 826.25,-52"/>
<text xml:space="preserve" text-anchor="middle" x="786" y="-30.5" font-family="Arial" font-size="10.00">Images (JPG, PNG)</text>
</g>
<!-- markitdown&#45;&gt;media_0 -->
<g id="edge3" class="edge">
<title>markitdown&#45;&gt;media_0</title>
<path fill="none" stroke="#7b1fa2" stroke-width="2" d="M786,-94.57C786,-94.57 786,-65.37 786,-65.37"/>
<polygon fill="#7b1fa2" stroke="#7b1fa2" stroke-width="2" points="789.5,-65.37 786,-55.37 782.5,-65.37 789.5,-65.37"/>
</g>
<!-- data_0 -->
<g id="node12" class="node">
<title>data_0</title>
<path fill="white" stroke="#f57c00" d="M1147,-52C1147,-52 1117,-52 1117,-52 1111,-52 1105,-46 1105,-40 1105,-40 1105,-28 1105,-28 1105,-22 1111,-16 1117,-16 1117,-16 1147,-16 1147,-16 1153,-16 1159,-22 1159,-28 1159,-28 1159,-40 1159,-40 1159,-46 1153,-52 1147,-52"/>
<text xml:space="preserve" text-anchor="middle" x="1132" y="-30.5" font-family="Arial" font-size="10.00">CSV</text>
</g>
<!-- markitdown&#45;&gt;data_0 -->
<g id="edge4" class="edge">
<title>markitdown&#45;&gt;data_0</title>
<path fill="none" stroke="#f57c00" stroke-width="2" d="M858.11,-108C959.51,-108 1132,-108 1132,-108 1132,-108 1132,-65.32 1132,-65.32"/>
<polygon fill="#f57c00" stroke="#f57c00" stroke-width="2" points="1135.5,-65.32 1132,-55.32 1128.5,-65.32 1135.5,-65.32"/>
</g>
<!-- ebooks_0 -->
<g id="node16" class="node">
<title>ebooks_0</title>
<path fill="white" stroke="#d32f2f" d="M1479,-52C1479,-52 1449,-52 1449,-52 1443,-52 1437,-46 1437,-40 1437,-40 1437,-28 1437,-28 1437,-22 1443,-16 1449,-16 1449,-16 1479,-16 1479,-16 1485,-16 1491,-22 1491,-28 1491,-28 1491,-40 1491,-40 1491,-46 1485,-52 1479,-52"/>
<text xml:space="preserve" text-anchor="middle" x="1464" y="-30.5" font-family="Arial" font-size="10.00">EPUB</text>
</g>
<!-- markitdown&#45;&gt;ebooks_0 -->
<g id="edge5" class="edge">
<title>markitdown&#45;&gt;ebooks_0</title>
<path fill="none" stroke="#d32f2f" stroke-width="2" d="M857.92,-120C1032.41,-120 1464,-120 1464,-120 1464,-120 1464,-65.27 1464,-65.27"/>
<polygon fill="#d32f2f" stroke="#d32f2f" stroke-width="2" points="1467.5,-65.27 1464,-55.27 1460.5,-65.27 1467.5,-65.27"/>
</g>
<!-- documents_1 -->
<g id="node3" class="node">
<title>documents_1</title>
<path fill="white" stroke="#1976d2" d="M163.38,-52C163.38,-52 110.62,-52 110.62,-52 104.62,-52 98.62,-46 98.62,-40 98.62,-40 98.62,-28 98.62,-28 98.62,-22 104.62,-16 110.62,-16 110.62,-16 163.38,-16 163.38,-16 169.38,-16 175.38,-22 175.38,-28 175.38,-28 175.38,-40 175.38,-40 175.38,-46 169.38,-52 163.38,-52"/>
<text xml:space="preserve" text-anchor="middle" x="137" y="-30.5" font-family="Arial" font-size="10.00">Word (DOCX)</text>
</g>
<!-- documents_2 -->
<g id="node4" class="node">
<title>documents_2</title>
<path fill="white" stroke="#1976d2" d="M293.75,-52C293.75,-52 216.25,-52 216.25,-52 210.25,-52 204.25,-46 204.25,-40 204.25,-40 204.25,-28 204.25,-28 204.25,-22 210.25,-16 216.25,-16 216.25,-16 293.75,-16 293.75,-16 299.75,-16 305.75,-22 305.75,-28 305.75,-28 305.75,-40 305.75,-40 305.75,-46 299.75,-52 293.75,-52"/>
<text xml:space="preserve" text-anchor="middle" x="255" y="-30.5" font-family="Arial" font-size="10.00">PowerPoint (PPTX)</text>
</g>
<!-- documents_3 -->
<g id="node5" class="node">
<title>documents_3</title>
<path fill="white" stroke="#1976d2" d="M397.62,-52C397.62,-52 346.38,-52 346.38,-52 340.38,-52 334.38,-46 334.38,-40 334.38,-40 334.38,-28 334.38,-28 334.38,-22 340.38,-16 346.38,-16 346.38,-16 397.62,-16 397.62,-16 403.62,-16 409.62,-22 409.62,-28 409.62,-28 409.62,-40 409.62,-40 409.62,-46 403.62,-52 397.62,-52"/>
<text xml:space="preserve" text-anchor="middle" x="372" y="-30.5" font-family="Arial" font-size="10.00">Excel (XLSX)</text>
</g>
<!-- web_1 -->
<g id="node7" class="node">
<title>web_1</title>
<path fill="white" stroke="#388e3c" d="M597.62,-52C597.62,-52 534.38,-52 534.38,-52 528.38,-52 522.38,-46 522.38,-40 522.38,-40 522.38,-28 522.38,-28 522.38,-22 528.38,-16 534.38,-16 534.38,-16 597.62,-16 597.62,-16 603.62,-16 609.62,-22 609.62,-28 609.62,-28 609.62,-40 609.62,-40 609.62,-46 603.62,-52 597.62,-52"/>
<text xml:space="preserve" text-anchor="middle" x="566" y="-30.5" font-family="Arial" font-size="10.00">Wikipedia URLs</text>
</g>
<!-- web_2 -->
<g id="node8" class="node">
<title>web_2</title>
<path fill="white" stroke="#388e3c" d="M693.12,-52C693.12,-52 650.88,-52 650.88,-52 644.88,-52 638.88,-46 638.88,-40 638.88,-40 638.88,-28 638.88,-28 638.88,-22 644.88,-16 650.88,-16 650.88,-16 693.12,-16 693.12,-16 699.12,-16 705.12,-22 705.12,-28 705.12,-28 705.12,-40 705.12,-40 705.12,-46 699.12,-52 693.12,-52"/>
<text xml:space="preserve" text-anchor="middle" x="672" y="-30.5" font-family="Arial" font-size="10.00">Bing SERP</text>
</g>
<!-- media_1 -->
<g id="node10" class="node">
<title>media_1</title>
<path fill="white" stroke="#7b1fa2" d="M952.5,-52C952.5,-52 879.5,-52 879.5,-52 873.5,-52 867.5,-46 867.5,-40 867.5,-40 867.5,-28 867.5,-28 867.5,-22 873.5,-16 879.5,-16 879.5,-16 952.5,-16 952.5,-16 958.5,-16 964.5,-22 964.5,-28 964.5,-28 964.5,-40 964.5,-40 964.5,-46 958.5,-52 952.5,-52"/>
<text xml:space="preserve" text-anchor="middle" x="916" y="-30.5" font-family="Arial" font-size="10.00">Audio (WAV, MP3)</text>
</g>
<!-- media_2 -->
<g id="node11" class="node">
<title>media_2</title>
<path fill="white" stroke="#7b1fa2" d="M1064.38,-52C1064.38,-52 1005.62,-52 1005.62,-52 999.62,-52 993.62,-46 993.62,-40 993.62,-40 993.62,-28 993.62,-28 993.62,-22 999.62,-16 1005.62,-16 1005.62,-16 1064.38,-16 1064.38,-16 1070.38,-16 1076.38,-22 1076.38,-28 1076.38,-28 1076.38,-40 1076.38,-40 1076.38,-46 1070.38,-52 1064.38,-52"/>
<text xml:space="preserve" text-anchor="middle" x="1035" y="-30.5" font-family="Arial" font-size="10.00">YouTube URLs</text>
</g>
<!-- data_1 -->
<g id="node13" class="node">
<title>data_1</title>
<path fill="white" stroke="#f57c00" d="M1230,-52C1230,-52 1200,-52 1200,-52 1194,-52 1188,-46 1188,-40 1188,-40 1188,-28 1188,-28 1188,-22 1194,-16 1200,-16 1200,-16 1230,-16 1230,-16 1236,-16 1242,-22 1242,-28 1242,-28 1242,-40 1242,-40 1242,-46 1236,-52 1230,-52"/>
<text xml:space="preserve" text-anchor="middle" x="1215" y="-30.5" font-family="Arial" font-size="10.00">JSON</text>
</g>
<!-- data_2 -->
<g id="node14" class="node">
<title>data_2</title>
<path fill="white" stroke="#f57c00" d="M1313,-52C1313,-52 1283,-52 1283,-52 1277,-52 1271,-46 1271,-40 1271,-40 1271,-28 1271,-28 1271,-22 1277,-16 1283,-16 1283,-16 1313,-16 1313,-16 1319,-16 1325,-22 1325,-28 1325,-28 1325,-40 1325,-40 1325,-46 1319,-52 1313,-52"/>
<text xml:space="preserve" text-anchor="middle" x="1298" y="-30.5" font-family="Arial" font-size="10.00">XML</text>
</g>
<!-- data_3 -->
<g id="node15" class="node">
<title>data_3</title>
<path fill="white" stroke="#f57c00" d="M1396,-52C1396,-52 1366,-52 1366,-52 1360,-52 1354,-46 1354,-40 1354,-40 1354,-28 1354,-28 1354,-22 1360,-16 1366,-16 1366,-16 1396,-16 1396,-16 1402,-16 1408,-22 1408,-28 1408,-28 1408,-40 1408,-40 1408,-46 1402,-52 1396,-52"/>
<text xml:space="preserve" text-anchor="middle" x="1381" y="-30.5" font-family="Arial" font-size="10.00">ZIP</text>
</g>
</g>
</svg>
