<?xml version="1.0" encoding="UTF-8" standalone="no"?>
<!DOCTYPE svg PUBLIC "-//W3C//DTD SVG 1.1//EN"
 "http://www.w3.org/Graphics/SVG/1.1/DTD/svg11.dtd">
<!-- Generated by graphviz version 14.1.2 (0)
 -->
<!-- Title: prd_flow Pages: 1 -->
<svg width="1397pt" height="281pt"
 viewBox="0.00 0.00 1397.00 281.00" xmlns="http://www.w3.org/2000/svg" xmlns:xlink="http://www.w3.org/1999/xlink">
<g id="graph0" class="graph" transform="scale(1 1) rotate(0) translate(4 277)">
<title>prd_flow</title>
<polygon fill="white" stroke="none" points="-4,4 -4,-277 1392.5,-277 1392.5,4 -4,4"/>
<!-- user_idea -->
<g id="node1" class="node">
<title>user_idea</title>
<polygon fill="#4caf50" stroke="black" points="97,-154 0,-154 0,-118 97,-118 97,-154"/>
<text xml:space="preserve" text-anchor="middle" x="48.5" y="-139.05" font-family="Arial" font-size="11.00" fill="white">User Idea</text>
<text xml:space="preserve" text-anchor="middle" x="48.5" y="-125.55" font-family="Arial" font-size="11.00" fill="white">Feature Request</text>
</g>
<!-- write_prd -->
<g id="node2" class="node">
<title>write_prd</title>
<path fill="#2196f3" stroke="black" d="M247.75,-154.25C247.75,-154.25 195,-154.25 195,-154.25 189,-154.25 183,-148.25 183,-142.25 183,-142.25 183,-129.75 183,-129.75 183,-123.75 189,-117.75 195,-117.75 195,-117.75 247.75,-117.75 247.75,-117.75 253.75,-117.75 259.75,-123.75 259.75,-129.75 259.75,-129.75 259.75,-142.25 259.75,-142.25 259.75,-148.25 253.75,-154.25 247.75,-154.25"/>
<text xml:space="preserve" text-anchor="middle" x="221.38" y="-138.85" font-family="Arial Bold" font-size="12.00" fill="white">write&#45;a&#45;prd</text>
<text xml:space="preserve" text-anchor="middle" x="221.38" y="-124.6" font-family="Arial Bold" font-size="12.00" fill="white">Skill</text>
</g>
<!-- user_idea&#45;&gt;write_prd -->
<g id="edge1" class="edge">
<title>user_idea&#45;&gt;write_prd</title>
<path fill="none" stroke="#4caf50" stroke-width="2" d="M97.12,-136C97.12,-136 169.66,-136 169.66,-136"/>
<polygon fill="#4caf50" stroke="#4caf50" stroke-width="2" points="169.66,-139.5 179.66,-136 169.66,-132.5 169.66,-139.5"/>
</g>
<!-- interview -->
<g id="node3" class="node">
<title>interview</title>
<path fill="#ff9800" stroke="black" d="M444.62,-233C444.62,-233 358.88,-233 358.88,-233 352.88,-233 346.88,-227 346.88,-221 346.88,-221 346.88,-209 346.88,-209 346.88,-203 352.88,-197 358.88,-197 358.88,-197 444.62,-197 444.62,-197 450.62,-197 456.62,-203 456.62,-209 456.62,-209 456.62,-221 456.62,-221 456.62,-227 450.62,-233 444.62,-233"/>
<text xml:space="preserve" text-anchor="middle" x="401.75" y="-217.5" font-family="Arial" font-size="10.00" fill="white">User Interview</text>
<text xml:space="preserve" text-anchor="middle" x="401.75" y="-205.5" font-family="Arial" font-size="10.00" fill="white">Relentless Questions</text>
</g>
<!-- write_prd&#45;&gt;interview -->
<g id="edge2" class="edge">
<title>write_prd&#45;&gt;interview</title>
<path fill="none" stroke="#2196f3" stroke-width="2" d="M221.5,-154.72C221.5,-178.08 221.5,-215 221.5,-215 221.5,-215 333.66,-215 333.66,-215"/>
<polygon fill="#2196f3" stroke="#2196f3" stroke-width="2" points="333.66,-218.5 343.66,-215 333.66,-211.5 333.66,-218.5"/>
</g>
<!-- explore -->
<g id="node4" class="node">
<title>explore</title>
<path fill="#ff9800" stroke="black" d="M445.75,-154C445.75,-154 357.75,-154 357.75,-154 351.75,-154 345.75,-148 345.75,-142 345.75,-142 345.75,-130 345.75,-130 345.75,-124 351.75,-118 357.75,-118 357.75,-118 445.75,-118 445.75,-118 451.75,-118 457.75,-124 457.75,-130 457.75,-130 457.75,-142 457.75,-142 457.75,-148 451.75,-154 445.75,-154"/>
<text xml:space="preserve" text-anchor="middle" x="401.75" y="-138.5" font-family="Arial" font-size="10.00" fill="white">Codebase Exploration</text>
<text xml:space="preserve" text-anchor="middle" x="401.75" y="-126.5" font-family="Arial" font-size="10.00" fill="white">Verify Assertions</text>
</g>
<!-- write_prd&#45;&gt;explore -->
<g id="edge3" class="edge">
<title>write_prd&#45;&gt;explore</title>
<path fill="none" stroke="#2196f3" stroke-width="2" d="M260.07,-136C260.07,-136 332.29,-136 332.29,-136"/>
<polygon fill="#2196f3" stroke="#2196f3" stroke-width="2" points="332.29,-139.5 342.29,-136 332.29,-132.5 332.29,-139.5"/>
</g>
<!-- modules -->
<g id="node5" class="node">
<title>modules</title>
<path fill="#ff9800" stroke="black" d="M430.38,-75C430.38,-75 373.12,-75 373.12,-75 367.12,-75 361.12,-69 361.12,-63 361.12,-63 361.12,-51 361.12,-51 361.12,-45 367.12,-39 373.12,-39 373.12,-39 430.38,-39 430.38,-39 436.38,-39 442.38,-45 442.38,-51 442.38,-51 442.38,-63 442.38,-63 442.38,-69 436.38,-75 430.38,-75"/>
<text xml:space="preserve" text-anchor="middle" x="401.75" y="-59.5" font-family="Arial" font-size="10.00" fill="white">Module Design</text>
<text xml:space="preserve" text-anchor="middle" x="401.75" y="-47.5" font-family="Arial" font-size="10.00" fill="white">Deep Modules</text>
</g>
<!-- write_prd&#45;&gt;modules -->
<g id="edge4" class="edge">
<title>write_prd&#45;&gt;modules</title>
<path fill="none" stroke="#2196f3" stroke-width="2" d="M221.5,-117.28C221.5,-93.92 221.5,-57 221.5,-57 221.5,-57 347.82,-57 347.82,-57"/>
<polygon fill="#2196f3" stroke="#2196f3" stroke-width="2" points="347.82,-60.5 357.82,-57 347.82,-53.5 347.82,-60.5"/>
</g>
<!-- prd_doc -->
<g id="node6" class="node">
<title>prd_doc</title>
<polygon fill="#ffc107" stroke="black" points="623.5,-154 543.75,-154 543.75,-118 629.5,-118 629.5,-148 623.5,-154"/>
<polyline fill="none" stroke="black" points="623.5,-154 623.5,-148"/>
<polyline fill="none" stroke="black" points="629.5,-148 623.5,-148"/>
<text xml:space="preserve" text-anchor="middle" x="586.62" y="-138.5" font-family="Arial" font-size="10.00">PRD Document</text>
<text xml:space="preserve" text-anchor="middle" x="586.62" y="-126.5" font-family="Arial" font-size="10.00">GitHub Issue</text>
</g>
<!-- interview&#45;&gt;prd_doc -->
<g id="edge5" class="edge">
<title>interview&#45;&gt;prd_doc</title>
<path fill="none" stroke="#ffc107" stroke-width="1.5" d="M456.93,-215C511.37,-215 586.5,-215 586.5,-215 586.5,-215 586.5,-166.59 586.5,-166.59"/>
<polygon fill="#ffc107" stroke="#ffc107" stroke-width="1.5" points="590,-166.59 586.5,-156.59 583,-166.59 590,-166.59"/>
</g>
<!-- explore&#45;&gt;prd_doc -->
<g id="edge6" class="edge">
<title>explore&#45;&gt;prd_doc</title>
<path fill="none" stroke="#ffc107" stroke-width="1.5" d="M458.22,-136C458.22,-136 531.13,-136 531.13,-136"/>
<polygon fill="#ffc107" stroke="#ffc107" stroke-width="1.5" points="531.13,-139.5 541.13,-136 531.13,-132.5 531.13,-139.5"/>
</g>
<!-- modules&#45;&gt;prd_doc -->
<g id="edge7" class="edge">
<title>modules&#45;&gt;prd_doc</title>
<path fill="none" stroke="#ffc107" stroke-width="1.5" d="M442.65,-57C493.16,-57 572.5,-57 572.5,-57 572.5,-57 572.5,-105.41 572.5,-105.41"/>
<polygon fill="#ffc107" stroke="#ffc107" stroke-width="1.5" points="569,-105.41 572.5,-115.41 576,-105.41 569,-105.41"/>
</g>
<!-- prd_to_plan -->
<g id="node7" class="node">
<title>prd_to_plan</title>
<path fill="#2196f3" stroke="black" d="M788.88,-194.25C788.88,-194.25 733.88,-194.25 733.88,-194.25 727.88,-194.25 721.88,-188.25 721.88,-182.25 721.88,-182.25 721.88,-169.75 721.88,-169.75 721.88,-163.75 727.88,-157.75 733.88,-157.75 733.88,-157.75 788.88,-157.75 788.88,-157.75 794.88,-157.75 800.88,-163.75 800.88,-169.75 800.88,-169.75 800.88,-182.25 800.88,-182.25 800.88,-188.25 794.88,-194.25 788.88,-194.25"/>
<text xml:space="preserve" text-anchor="middle" x="761.38" y="-178.85" font-family="Arial Bold" font-size="12.00" fill="white">prd&#45;to&#45;plan</text>
<text xml:space="preserve" text-anchor="middle" x="761.38" y="-164.6" font-family="Arial Bold" font-size="12.00" fill="white">Skill</text>
</g>
<!-- prd_doc&#45;&gt;prd_to_plan -->
<g id="edge8" class="edge">
<title>prd_doc&#45;&gt;prd_to_plan</title>
<path fill="none" stroke="#ff9800" stroke-width="2" d="M629.85,-145C681.64,-145 761.5,-145 761.5,-145 761.5,-145 761.5,-146.23 761.5,-146.23"/>
<polygon fill="#ff9800" stroke="#ff9800" stroke-width="2" points="758,-144.22 761.5,-154.22 765,-144.22 758,-144.22"/>
</g>
<!-- prd_to_issues -->
<g id="node11" class="node">
<title>prd_to_issues</title>
<path fill="#2196f3" stroke="black" d="M795.25,-114.25C795.25,-114.25 727.5,-114.25 727.5,-114.25 721.5,-114.25 715.5,-108.25 715.5,-102.25 715.5,-102.25 715.5,-89.75 715.5,-89.75 715.5,-83.75 721.5,-77.75 727.5,-77.75 727.5,-77.75 795.25,-77.75 795.25,-77.75 801.25,-77.75 807.25,-83.75 807.25,-89.75 807.25,-89.75 807.25,-102.25 807.25,-102.25 807.25,-108.25 801.25,-114.25 795.25,-114.25"/>
<text xml:space="preserve" text-anchor="middle" x="761.38" y="-98.85" font-family="Arial Bold" font-size="12.00" fill="white">prd&#45;to&#45;issues</text>
<text xml:space="preserve" text-anchor="middle" x="761.38" y="-84.6" font-family="Arial Bold" font-size="12.00" fill="white">Skill</text>
</g>
<!-- prd_doc&#45;&gt;prd_to_issues -->
<g id="edge13" class="edge">
<title>prd_doc&#45;&gt;prd_to_issues</title>
<path fill="none" stroke="#9c27b0" stroke-width="2" stroke-dasharray="5,2" d="M600.5,-117.87C600.5,-107.29 600.5,-96 600.5,-96 600.5,-96 702.25,-96 702.25,-96"/>
<polygon fill="#9c27b0" stroke="#9c27b0" stroke-width="2" points="702.25,-99.5 712.25,-96 702.25,-92.5 702.25,-99.5"/>
</g>
<!-- tracer -->
<g id="node8" class="node">
<title>tracer</title>
<path fill="#ff9800" stroke="black" d="M976,-273C976,-273 921.75,-273 921.75,-273 915.75,-273 909.75,-267 909.75,-261 909.75,-261 909.75,-249 909.75,-249 909.75,-243 915.75,-237 921.75,-237 921.75,-237 976,-237 976,-237 982,-237 988,-243 988,-249 988,-249 988,-261 988,-261 988,-267 982,-273 976,-273"/>
<text xml:space="preserve" text-anchor="middle" x="948.88" y="-257.5" font-family="Arial" font-size="10.00" fill="white">Tracer Bullets</text>
<text xml:space="preserve" text-anchor="middle" x="948.88" y="-245.5" font-family="Arial" font-size="10.00" fill="white">Vertical Slices</text>
</g>
<!-- prd_to_plan&#45;&gt;tracer -->
<g id="edge9" class="edge">
<title>prd_to_plan&#45;&gt;tracer</title>
<path fill="none" stroke="#2196f3" stroke-width="2" d="M761.5,-194.72C761.5,-218.08 761.5,-255 761.5,-255 761.5,-255 896.57,-255 896.57,-255"/>
<polygon fill="#2196f3" stroke="#2196f3" stroke-width="2" points="896.57,-258.5 906.57,-255 896.57,-251.5 896.57,-258.5"/>
</g>
<!-- phases -->
<g id="node9" class="node">
<title>phases</title>
<path fill="#ff9800" stroke="black" d="M992.5,-194C992.5,-194 905.25,-194 905.25,-194 899.25,-194 893.25,-188 893.25,-182 893.25,-182 893.25,-170 893.25,-170 893.25,-164 899.25,-158 905.25,-158 905.25,-158 992.5,-158 992.5,-158 998.5,-158 1004.5,-164 1004.5,-170 1004.5,-170 1004.5,-182 1004.5,-182 1004.5,-188 998.5,-194 992.5,-194"/>
<text xml:space="preserve" text-anchor="middle" x="948.88" y="-178.5" font-family="Arial" font-size="10.00" fill="white">Multi&#45;Phase Plan</text>
<text xml:space="preserve" text-anchor="middle" x="948.88" y="-166.5" font-family="Arial" font-size="10.00" fill="white">Implementation Steps</text>
</g>
<!-- prd_to_plan&#45;&gt;phases -->
<g id="edge10" class="edge">
<title>prd_to_plan&#45;&gt;phases</title>
<path fill="none" stroke="#2196f3" stroke-width="2" d="M801.14,-176C801.14,-176 879.78,-176 879.78,-176"/>
<polygon fill="#2196f3" stroke="#2196f3" stroke-width="2" points="879.78,-179.5 889.78,-176 879.78,-172.5 879.78,-179.5"/>
</g>
<!-- plan_doc -->
<g id="node10" class="node">
<title>plan_doc</title>
<polygon fill="#ffc107" stroke="black" points="1189.75,-194 1090.5,-194 1090.5,-158 1195.75,-158 1195.75,-188 1189.75,-194"/>
<polyline fill="none" stroke="black" points="1189.75,-194 1189.75,-188"/>
<polyline fill="none" stroke="black" points="1195.75,-188 1189.75,-188"/>
<text xml:space="preserve" text-anchor="middle" x="1143.12" y="-178.5" font-family="Arial" font-size="10.00">Implementation Plan</text>
<text xml:space="preserve" text-anchor="middle" x="1143.12" y="-166.5" font-family="Arial" font-size="10.00">Phased Approach</text>
</g>
<!-- tracer&#45;&gt;plan_doc -->
<g id="edge11" class="edge">
<title>tracer&#45;&gt;plan_doc</title>
<path fill="none" stroke="#ffc107" stroke-width="1.5" d="M988.26,-255C1045.13,-255 1143.5,-255 1143.5,-255 1143.5,-255 1143.5,-206.59 1143.5,-206.59"/>
<polygon fill="#ffc107" stroke="#ffc107" stroke-width="1.5" points="1147,-206.59 1143.5,-196.59 1140,-206.59 1147,-206.59"/>
</g>
<!-- phases&#45;&gt;plan_doc -->
<g id="edge12" class="edge">
<title>phases&#45;&gt;plan_doc</title>
<path fill="none" stroke="#ffc107" stroke-width="1.5" d="M1004.8,-176C1004.8,-176 1077.99,-176 1077.99,-176"/>
<polygon fill="#ffc107" stroke="#ffc107" stroke-width="1.5" points="1077.99,-179.5 1087.99,-176 1077.99,-172.5 1077.99,-179.5"/>
</g>
<!-- development -->
<g id="node15" class="node">
<title>development</title>
<path fill="#9c27b0" stroke="black" d="M1376.5,-154C1376.5,-154 1293.75,-154 1293.75,-154 1287.75,-154 1281.75,-148 1281.75,-142 1281.75,-142 1281.75,-130 1281.75,-130 1281.75,-124 1287.75,-118 1293.75,-118 1293.75,-118 1376.5,-118 1376.5,-118 1382.5,-118 1388.5,-124 1388.5,-130 1388.5,-130 1388.5,-142 1388.5,-142 1388.5,-148 1382.5,-154 1376.5,-154"/>
<text xml:space="preserve" text-anchor="middle" x="1335.12" y="-138.5" font-family="Arial" font-size="10.00" fill="white">Development Phase</text>
<text xml:space="preserve" text-anchor="middle" x="1335.12" y="-126.5" font-family="Arial" font-size="10.00" fill="white">TDD Implementation</text>
</g>
<!-- plan_doc&#45;&gt;development -->
<g id="edge18" class="edge">
<title>plan_doc&#45;&gt;development</title>
<path fill="none" stroke="#f44336" stroke-width="2" d="M1127.5,-157.87C1127.5,-147.29 1127.5,-136 1127.5,-136 1127.5,-136 1268.36,-136 1268.36,-136"/>
<polygon fill="#f44336" stroke="#f44336" stroke-width="2" points="1268.36,-139.5 1278.36,-136 1268.36,-132.5 1268.36,-139.5"/>
</g>
<!-- vertical_slice -->
<g id="node12" class="node">
<title>vertical_slice</title>
<path fill="#ff9800" stroke="black" d="M987.62,-115C987.62,-115 910.12,-115 910.12,-115 904.12,-115 898.12,-109 898.12,-103 898.12,-103 898.12,-91 898.12,-91 898.12,-85 904.12,-79 910.12,-79 910.12,-79 987.62,-79 987.62,-79 993.62,-79 999.62,-85 999.62,-91 999.62,-91 999.62,-103 999.62,-103 999.62,-109 993.62,-115 987.62,-115"/>
<text xml:space="preserve" text-anchor="middle" x="948.88" y="-99.5" font-family="Arial" font-size="10.00" fill="white">Vertical Slicing</text>
<text xml:space="preserve" text-anchor="middle" x="948.88" y="-87.5" font-family="Arial" font-size="10.00" fill="white">Independent Issues</text>
</g>
<!-- prd_to_issues&#45;&gt;vertical_slice -->
<g id="edge14" class="edge">
<title>prd_to_issues&#45;&gt;vertical_slice</title>
<path fill="none" stroke="#2196f3" stroke-width="2" d="M807.72,-96.62C807.72,-96.62 884.76,-96.62 884.76,-96.62"/>
<polygon fill="#2196f3" stroke="#2196f3" stroke-width="2" points="884.76,-100.13 894.76,-96.63 884.76,-93.13 884.76,-100.13"/>
</g>
<!-- grabbable -->
<g id="node13" class="node">
<title>grabbable</title>
<path fill="#ff9800" stroke="black" d="M983.12,-36C983.12,-36 914.62,-36 914.62,-36 908.62,-36 902.62,-30 902.62,-24 902.62,-24 902.62,-12 902.62,-12 902.62,-6 908.62,0 914.62,0 914.62,0 983.12,0 983.12,0 989.12,0 995.12,-6 995.12,-12 995.12,-12 995.12,-24 995.12,-24 995.12,-30 989.12,-36 983.12,-36"/>
<text xml:space="preserve" text-anchor="middle" x="948.88" y="-20.5" font-family="Arial" font-size="10.00" fill="white">Grabbable Issues</text>
<text xml:space="preserve" text-anchor="middle" x="948.88" y="-8.5" font-family="Arial" font-size="10.00" fill="white">Self&#45;Contained</text>
</g>
<!-- prd_to_issues&#45;&gt;grabbable -->
<g id="edge15" class="edge">
<title>prd_to_issues&#45;&gt;grabbable</title>
<path fill="none" stroke="#2196f3" stroke-width="2" d="M761.5,-77.52C761.5,-54.45 761.5,-18 761.5,-18 761.5,-18 889.53,-18 889.53,-18"/>
<polygon fill="#2196f3" stroke="#2196f3" stroke-width="2" points="889.53,-21.5 899.53,-18 889.53,-14.5 889.53,-21.5"/>
</g>
<!-- github_issues -->
<g id="node14" class="node">
<title>github_issues</title>
<polygon fill="#f44336" stroke="black" points="1189,-115 1097.25,-115 1097.25,-79 1189,-79 1189,-115"/>
<text xml:space="preserve" text-anchor="middle" x="1143.12" y="-100.05" font-family="Arial" font-size="11.00" fill="white">GitHub Issues</text>
<text xml:space="preserve" text-anchor="middle" x="1143.12" y="-86.55" font-family="Arial" font-size="11.00" fill="white">Ready for Work</text>
</g>
<!-- vertical_slice&#45;&gt;github_issues -->
<g id="edge16" class="edge">
<title>vertical_slice&#45;&gt;github_issues</title>
<path fill="none" stroke="#ff9800" stroke-width="1.5" d="M999.91,-97C999.91,-97 1084.8,-97 1084.8,-97"/>
<polygon fill="#ff9800" stroke="#ff9800" stroke-width="1.5" points="1084.8,-100.5 1094.8,-97 1084.8,-93.5 1084.8,-100.5"/>
</g>
<!-- grabbable&#45;&gt;github_issues -->
<g id="edge17" class="edge">
<title>grabbable&#45;&gt;github_issues</title>
<path fill="none" stroke="#ff9800" stroke-width="1.5" d="M995.49,-18C1053.07,-18 1143.5,-18 1143.5,-18 1143.5,-18 1143.5,-66.41 1143.5,-66.41"/>
<polygon fill="#ff9800" stroke="#ff9800" stroke-width="1.5" points="1140,-66.41 1143.5,-76.41 1147,-66.41 1140,-66.41"/>
</g>
<!-- github_issues&#45;&gt;development -->
<g id="edge19" class="edge">
<title>github_issues&#45;&gt;development</title>
<path fill="none" stroke="#f44336" stroke-width="2" d="M1158.5,-115.49C1158.5,-121.66 1158.5,-127 1158.5,-127 1158.5,-127 1268.63,-127 1268.63,-127"/>
<polygon fill="#f44336" stroke="#f44336" stroke-width="2" points="1268.63,-130.5 1278.63,-127 1268.63,-123.5 1268.63,-130.5"/>
</g>
</g>
</svg>
