<?xml version="1.0" encoding="UTF-8" standalone="no"?>
<!DOCTYPE svg PUBLIC "-//W3C//DTD SVG 1.1//EN"
 "http://www.w3.org/Graphics/SVG/1.1/DTD/svg11.dtd">
<!-- Generated by graphviz version 14.1.2 (0)
 -->
<!-- Title: metatron_agentic_loop Pages: 1 -->
<svg width="373pt" height="1297pt"
 viewBox="0.00 0.00 373.00 1297.00" xmlns="http://www.w3.org/2000/svg" xmlns:xlink="http://www.w3.org/1999/xlink">
<g id="graph0" class="graph" transform="scale(1 1) rotate(0) translate(4 1292.74)">
<title>metatron_agentic_loop</title>
<polygon fill="white" stroke="none" points="-4,4 -4,-1292.74 369.25,-1292.74 369.25,4 -4,4"/>
<!-- start -->
<g id="node1" class="node">
<title>start</title>
<ellipse fill="#4caf50" stroke="black" cx="174.5" cy="-1262.93" rx="64.88" ry="25.81"/>
<text xml:space="preserve" text-anchor="middle" x="174.5" y="-1265.78" font-family="Helvetica,sans-Serif" font-size="12.00" fill="#ffffff">User Provides</text>
<text xml:space="preserve" text-anchor="middle" x="174.5" y="-1251.53" font-family="Helvetica,sans-Serif" font-size="12.00" fill="#ffffff">Target</text>
</g>
<!-- recon -->
<g id="node2" class="node">
<title>recon</title>
<path fill="#37474f" stroke="black" d="M223.75,-1186.12C223.75,-1186.12 125.25,-1186.12 125.25,-1186.12 119.25,-1186.12 113.25,-1180.12 113.25,-1174.12 113.25,-1174.12 113.25,-1154.12 113.25,-1154.12 113.25,-1148.12 119.25,-1142.12 125.25,-1142.12 125.25,-1142.12 223.75,-1142.12 223.75,-1142.12 229.75,-1142.12 235.75,-1148.12 235.75,-1154.12 235.75,-1154.12 235.75,-1174.12 235.75,-1174.12 235.75,-1180.12 229.75,-1186.12 223.75,-1186.12"/>
<text xml:space="preserve" text-anchor="middle" x="174.5" y="-1172.62" font-family="Helvetica,sans-Serif" font-size="10.00" fill="#ffffff">Run Recon Tools</text>
<text xml:space="preserve" text-anchor="middle" x="174.5" y="-1160.62" font-family="Helvetica,sans-Serif" font-size="10.00" fill="#ffffff">(nmap, whois, whatweb,</text>
<text xml:space="preserve" text-anchor="middle" x="174.5" y="-1148.62" font-family="Helvetica,sans-Serif" font-size="10.00" fill="#ffffff">curl, dig, nikto)</text>
</g>
<!-- start&#45;&gt;recon -->
<g id="edge1" class="edge">
<title>start&#45;&gt;recon</title>
<path fill="none" stroke="#4caf50" stroke-width="2" d="M174.5,-1236.71C174.5,-1236.71 174.5,-1199.46 174.5,-1199.46"/>
<polygon fill="#4caf50" stroke="#4caf50" stroke-width="2" points="178,-1199.46 174.5,-1189.46 171,-1199.46 178,-1199.46"/>
</g>
<!-- raw_output -->
<g id="node3" class="node">
<title>raw_output</title>
<path fill="#00838f" stroke="black" d="M190.75,-1091.12C190.75,-1091.12 158.25,-1091.12 158.25,-1091.12 152.25,-1091.12 146.25,-1085.12 146.25,-1079.12 146.25,-1079.12 146.25,-1067.12 146.25,-1067.12 146.25,-1061.12 152.25,-1055.12 158.25,-1055.12 158.25,-1055.12 190.75,-1055.12 190.75,-1055.12 196.75,-1055.12 202.75,-1061.12 202.75,-1067.12 202.75,-1067.12 202.75,-1079.12 202.75,-1079.12 202.75,-1085.12 196.75,-1091.12 190.75,-1091.12"/>
<text xml:space="preserve" text-anchor="middle" x="174.5" y="-1075.62" font-family="Helvetica,sans-Serif" font-size="10.00" fill="#ffffff">Raw Tool</text>
<text xml:space="preserve" text-anchor="middle" x="174.5" y="-1063.62" font-family="Helvetica,sans-Serif" font-size="10.00" fill="#ffffff">Output</text>
</g>
<!-- recon&#45;&gt;raw_output -->
<g id="edge2" class="edge">
<title>recon&#45;&gt;raw_output</title>
<path fill="none" stroke="#00897b" stroke-width="2" d="M174.5,-1141.62C174.5,-1141.62 174.5,-1104.41 174.5,-1104.41"/>
<polygon fill="#00897b" stroke="#00897b" stroke-width="2" points="178,-1104.41 174.5,-1094.41 171,-1104.41 178,-1104.41"/>
</g>
<!-- send_llm -->
<g id="node4" class="node">
<title>send_llm</title>
<path fill="#1565c0" stroke="black" d="M214.38,-1004.12C214.38,-1004.12 134.62,-1004.12 134.62,-1004.12 128.62,-1004.12 122.62,-998.12 122.62,-992.12 122.62,-992.12 122.62,-967.62 122.62,-967.62 122.62,-961.62 128.62,-955.62 134.62,-955.62 134.62,-955.62 214.38,-955.62 214.38,-955.62 220.38,-955.62 226.38,-961.62 226.38,-967.62 226.38,-967.62 226.38,-992.12 226.38,-992.12 226.38,-998.12 220.38,-1004.12 214.38,-1004.12"/>
<text xml:space="preserve" text-anchor="middle" x="174.5" y="-989.67" font-family="Helvetica,sans-Serif" font-size="11.00" fill="#ffffff">Send to LLM</text>
<text xml:space="preserve" text-anchor="middle" x="174.5" y="-976.17" font-family="Helvetica,sans-Serif" font-size="11.00" fill="#ffffff">(System Prompt +</text>
<text xml:space="preserve" text-anchor="middle" x="174.5" y="-962.67" font-family="Helvetica,sans-Serif" font-size="11.00" fill="#ffffff">Recon Data)</text>
</g>
<!-- raw_output&#45;&gt;send_llm -->
<g id="edge3" class="edge">
<title>raw_output&#45;&gt;send_llm</title>
<path fill="none" stroke="#00897b" stroke-width="2" d="M174.5,-1054.7C174.5,-1054.7 174.5,-1017.64 174.5,-1017.64"/>
<polygon fill="#00897b" stroke="#00897b" stroke-width="2" points="178,-1017.64 174.5,-1007.64 171,-1017.64 178,-1017.64"/>
</g>
<!-- decision -->
<g id="node5" class="node">
<title>decision</title>
<polygon fill="#ff9800" stroke="black" points="110.5,-904.62 37.5,-860.62 110.5,-816.62 183.5,-860.62 110.5,-904.62"/>
<text xml:space="preserve" text-anchor="middle" x="110.5" y="-869.12" font-family="Helvetica,sans-Serif" font-size="10.00" fill="#ffffff">LLM emits</text>
<text xml:space="preserve" text-anchor="middle" x="110.5" y="-857.12" font-family="Helvetica,sans-Serif" font-size="10.00" fill="#ffffff">[TOOL:] or</text>
<text xml:space="preserve" text-anchor="middle" x="110.5" y="-845.12" font-family="Helvetica,sans-Serif" font-size="10.00" fill="#ffffff">[SEARCH:]?</text>
</g>
<!-- send_llm&#45;&gt;decision -->
<g id="edge4" class="edge">
<title>send_llm&#45;&gt;decision</title>
<path fill="none" stroke="#1565c0" stroke-width="2" d="M153.06,-955.16C153.06,-955.16 153.06,-892.46 153.06,-892.46"/>
<polygon fill="#1565c0" stroke="#1565c0" stroke-width="2" points="156.56,-892.46 153.06,-882.46 149.56,-892.46 156.56,-892.46"/>
</g>
<!-- execute_tool -->
<g id="node6" class="node">
<title>execute_tool</title>
<path fill="#7e57c2" stroke="black" d="M156.38,-756.12C156.38,-756.12 106.62,-756.12 106.62,-756.12 100.62,-756.12 94.62,-750.12 94.62,-744.12 94.62,-744.12 94.62,-732.12 94.62,-732.12 94.62,-726.12 100.62,-720.12 106.62,-720.12 106.62,-720.12 156.38,-720.12 156.38,-720.12 162.38,-720.12 168.38,-726.12 168.38,-732.12 168.38,-732.12 168.38,-744.12 168.38,-744.12 168.38,-750.12 162.38,-756.12 156.38,-756.12"/>
<text xml:space="preserve" text-anchor="middle" x="131.5" y="-740.62" font-family="Helvetica,sans-Serif" font-size="10.00" fill="#ffffff">Execute</text>
<text xml:space="preserve" text-anchor="middle" x="131.5" y="-728.62" font-family="Helvetica,sans-Serif" font-size="10.00" fill="#ffffff">Tool / Search</text>
</g>
<!-- decision&#45;&gt;execute_tool -->
<g id="edge5" class="edge">
<title>decision&#45;&gt;execute_tool</title>
<path fill="none" stroke="#ff9800" stroke-width="2" d="M131.5,-828.75C131.5,-828.75 131.5,-769.54 131.5,-769.54"/>
<polygon fill="#ff9800" stroke="#ff9800" stroke-width="2" points="135,-769.54 131.5,-759.54 128,-769.54 135,-769.54"/>
<text xml:space="preserve" text-anchor="middle" x="126" y="-783.07" font-family="Helvetica,sans-Serif" font-size="9.00" fill="#ff9800">Yes</text>
</g>
<!-- parse -->
<g id="node10" class="node">
<title>parse</title>
<path fill="#1565c0" stroke="black" d="M121,-333.12C121,-333.12 12,-333.12 12,-333.12 6,-333.12 0,-327.12 0,-321.12 0,-321.12 0,-296.62 0,-296.62 0,-290.62 6,-284.62 12,-284.62 12,-284.62 121,-284.62 121,-284.62 127,-284.62 133,-290.62 133,-296.62 133,-296.62 133,-321.12 133,-321.12 133,-327.12 127,-333.12 121,-333.12"/>
<text xml:space="preserve" text-anchor="middle" x="66.5" y="-318.67" font-family="Helvetica,sans-Serif" font-size="11.00" fill="#ffffff">Parse Structured Output</text>
<text xml:space="preserve" text-anchor="middle" x="66.5" y="-305.17" font-family="Helvetica,sans-Serif" font-size="11.00" fill="#ffffff">(Vulnerabilities, Exploits,</text>
<text xml:space="preserve" text-anchor="middle" x="66.5" y="-291.67" font-family="Helvetica,sans-Serif" font-size="11.00" fill="#ffffff">Risk Levels)</text>
</g>
<!-- decision&#45;&gt;parse -->
<g id="edge10" class="edge">
<title>decision&#45;&gt;parse</title>
<path fill="none" stroke="#4caf50" stroke-width="2" d="M64.38,-844.11C64.38,-844.11 64.38,-346.63 64.38,-346.63"/>
<polygon fill="#4caf50" stroke="#4caf50" stroke-width="2" points="67.88,-346.63 64.38,-336.63 60.88,-346.63 67.88,-346.63"/>
<text xml:space="preserve" text-anchor="middle" x="42.5" y="-582.07" font-family="Helvetica,sans-Serif" font-size="9.00" fill="#4caf50">No</text>
</g>
<!-- summarize -->
<g id="node7" class="node">
<title>summarize</title>
<path fill="#7e57c2" stroke="black" d="M171.75,-659.62C171.75,-659.62 103.25,-659.62 103.25,-659.62 97.25,-659.62 91.25,-653.62 91.25,-647.62 91.25,-647.62 91.25,-627.62 91.25,-627.62 91.25,-621.62 97.25,-615.62 103.25,-615.62 103.25,-615.62 171.75,-615.62 171.75,-615.62 177.75,-615.62 183.75,-621.62 183.75,-627.62 183.75,-627.62 183.75,-647.62 183.75,-647.62 183.75,-653.62 177.75,-659.62 171.75,-659.62"/>
<text xml:space="preserve" text-anchor="middle" x="137.5" y="-646.12" font-family="Helvetica,sans-Serif" font-size="10.00" fill="#ffffff">LLM Summarizes</text>
<text xml:space="preserve" text-anchor="middle" x="137.5" y="-634.12" font-family="Helvetica,sans-Serif" font-size="10.00" fill="#ffffff">Output</text>
<text xml:space="preserve" text-anchor="middle" x="137.5" y="-622.12" font-family="Helvetica,sans-Serif" font-size="10.00" fill="#ffffff">(≤15 bullets)</text>
</g>
<!-- execute_tool&#45;&gt;summarize -->
<g id="edge6" class="edge">
<title>execute_tool&#45;&gt;summarize</title>
<path fill="none" stroke="#7e57c2" stroke-width="2" d="M131.5,-719.69C131.5,-719.69 131.5,-672.82 131.5,-672.82"/>
<polygon fill="#7e57c2" stroke="#7e57c2" stroke-width="2" points="135,-672.82 131.5,-662.82 128,-672.82 135,-672.82"/>
</g>
<!-- feed_back -->
<g id="node8" class="node">
<title>feed_back</title>
<path fill="#7e57c2" stroke="black" d="M168.25,-555.12C168.25,-555.12 120.75,-555.12 120.75,-555.12 114.75,-555.12 108.75,-549.12 108.75,-543.12 108.75,-543.12 108.75,-531.12 108.75,-531.12 108.75,-525.12 114.75,-519.12 120.75,-519.12 120.75,-519.12 168.25,-519.12 168.25,-519.12 174.25,-519.12 180.25,-525.12 180.25,-531.12 180.25,-531.12 180.25,-543.12 180.25,-543.12 180.25,-549.12 174.25,-555.12 168.25,-555.12"/>
<text xml:space="preserve" text-anchor="middle" x="144.5" y="-539.62" font-family="Helvetica,sans-Serif" font-size="10.00" fill="#ffffff">Feed Result</text>
<text xml:space="preserve" text-anchor="middle" x="144.5" y="-527.62" font-family="Helvetica,sans-Serif" font-size="10.00" fill="#ffffff">Back to LLM</text>
</g>
<!-- summarize&#45;&gt;feed_back -->
<g id="edge7" class="edge">
<title>summarize&#45;&gt;feed_back</title>
<path fill="none" stroke="#7e57c2" stroke-width="2" d="M144.5,-615.31C144.5,-615.31 144.5,-568.36 144.5,-568.36"/>
<polygon fill="#7e57c2" stroke="#7e57c2" stroke-width="2" points="148,-568.36 144.5,-558.36 141,-568.36 148,-568.36"/>
</g>
<!-- loop_count -->
<g id="node9" class="node">
<title>loop_count</title>
<polygon fill="#ff9800" stroke="black" points="228.5,-468.12 91.75,-436.12 228.5,-404.12 365.25,-436.12 228.5,-468.12"/>
<text xml:space="preserve" text-anchor="middle" x="228.5" y="-438.62" font-family="Helvetica,sans-Serif" font-size="10.00" fill="#ffffff">Loop Count</text>
<text xml:space="preserve" text-anchor="middle" x="228.5" y="-426.62" font-family="Helvetica,sans-Serif" font-size="10.00" fill="#ffffff">&lt; MAX_TOOL_LOOPS (9)?</text>
</g>
<!-- feed_back&#45;&gt;loop_count -->
<g id="edge8" class="edge">
<title>feed_back&#45;&gt;loop_count</title>
<path fill="none" stroke="#7e57c2" stroke-width="2" d="M144.5,-519.06C144.5,-519.06 144.5,-461.93 144.5,-461.93"/>
<polygon fill="#7e57c2" stroke="#7e57c2" stroke-width="2" points="148,-461.93 144.5,-451.93 141,-461.93 148,-461.93"/>
</g>
<!-- loop_count&#45;&gt;send_llm -->
<g id="edge9" class="edge">
<title>loop_count&#45;&gt;send_llm</title>
<path fill="none" stroke="#7e57c2" stroke-width="2" stroke-dasharray="5,2" d="M205.06,-463.08C205.06,-463.08 205.06,-942.24 205.06,-942.24"/>
<polygon fill="#7e57c2" stroke="#7e57c2" stroke-width="2" points="201.56,-942.24 205.06,-952.24 208.56,-942.24 201.56,-942.24"/>
<text xml:space="preserve" text-anchor="middle" x="259.12" y="-686.57" font-family="Helvetica,sans-Serif" font-size="9.00" fill="#7e57c2">Yes (loop)</text>
</g>
<!-- loop_count&#45;&gt;parse -->
<g id="edge11" class="edge">
<title>loop_count&#45;&gt;parse</title>
<path fill="none" stroke="#e53935" stroke-width="1.5" stroke-dasharray="5,2" d="M112.38,-430.97C112.38,-430.97 112.38,-345.72 112.38,-345.72"/>
<polygon fill="#e53935" stroke="#e53935" stroke-width="1.5" points="115.88,-345.72 112.38,-335.72 108.88,-345.72 115.88,-345.72"/>
<text xml:space="preserve" text-anchor="middle" x="183.5" y="-370.57" font-family="Helvetica,sans-Serif" font-size="9.00" fill="#e53935">Max loops</text>
<text xml:space="preserve" text-anchor="middle" x="183.5" y="-360.07" font-family="Helvetica,sans-Serif" font-size="9.00" fill="#e53935">reached</text>
</g>
<!-- store -->
<g id="node11" class="node">
<title>store</title>
<path fill="#37474f" stroke="black" d="M81.62,-233.62C81.62,-233.62 51.38,-233.62 51.38,-233.62 45.38,-233.62 39.38,-227.62 39.38,-221.62 39.38,-221.62 39.38,-209.62 39.38,-209.62 39.38,-203.62 45.38,-197.62 51.38,-197.62 51.38,-197.62 81.62,-197.62 81.62,-197.62 87.62,-197.62 93.62,-203.62 93.62,-209.62 93.62,-209.62 93.62,-221.62 93.62,-221.62 93.62,-227.62 87.62,-233.62 81.62,-233.62"/>
<text xml:space="preserve" text-anchor="middle" x="66.5" y="-218.12" font-family="Helvetica,sans-Serif" font-size="10.00" fill="#ffffff">Store in</text>
<text xml:space="preserve" text-anchor="middle" x="66.5" y="-206.12" font-family="Helvetica,sans-Serif" font-size="10.00" fill="#ffffff">MariaDB</text>
</g>
<!-- parse&#45;&gt;store -->
<g id="edge12" class="edge">
<title>parse&#45;&gt;store</title>
<path fill="none" stroke="#00897b" stroke-width="2" d="M66.5,-284.37C66.5,-284.37 66.5,-247.09 66.5,-247.09"/>
<polygon fill="#00897b" stroke="#00897b" stroke-width="2" points="70,-247.09 66.5,-237.09 63,-247.09 70,-247.09"/>
</g>
<!-- export -->
<g id="node12" class="node">
<title>export</title>
<path fill="#37474f" stroke="black" d="M87.62,-146.62C87.62,-146.62 45.38,-146.62 45.38,-146.62 39.38,-146.62 33.38,-140.62 33.38,-134.62 33.38,-134.62 33.38,-114.62 33.38,-114.62 33.38,-108.62 39.38,-102.62 45.38,-102.62 45.38,-102.62 87.62,-102.62 87.62,-102.62 93.62,-102.62 99.62,-108.62 99.62,-114.62 99.62,-114.62 99.62,-134.62 99.62,-134.62 99.62,-140.62 93.62,-146.62 87.62,-146.62"/>
<text xml:space="preserve" text-anchor="middle" x="66.5" y="-133.12" font-family="Helvetica,sans-Serif" font-size="10.00" fill="#ffffff">Export</text>
<text xml:space="preserve" text-anchor="middle" x="66.5" y="-121.12" font-family="Helvetica,sans-Serif" font-size="10.00" fill="#ffffff">PDF/HTML</text>
<text xml:space="preserve" text-anchor="middle" x="66.5" y="-109.12" font-family="Helvetica,sans-Serif" font-size="10.00" fill="#ffffff">Reports</text>
</g>
<!-- store&#45;&gt;export -->
<g id="edge13" class="edge">
<title>store&#45;&gt;export</title>
<path fill="none" stroke="#00897b" stroke-width="2" d="M66.5,-197.2C66.5,-197.2 66.5,-159.89 66.5,-159.89"/>
<polygon fill="#00897b" stroke="#00897b" stroke-width="2" points="70,-159.89 66.5,-149.89 63,-159.89 70,-159.89"/>
</g>
<!-- end -->
<g id="node13" class="node">
<title>end</title>
<ellipse fill="#e53935" stroke="black" cx="66.5" cy="-25.81" rx="57.45" ry="25.81"/>
<text xml:space="preserve" text-anchor="middle" x="66.5" y="-28.66" font-family="Helvetica,sans-Serif" font-size="12.00" fill="#ffffff">Assessment</text>
<text xml:space="preserve" text-anchor="middle" x="66.5" y="-14.41" font-family="Helvetica,sans-Serif" font-size="12.00" fill="#ffffff">Complete</text>
</g>
<!-- export&#45;&gt;end -->
<g id="edge14" class="edge">
<title>export&#45;&gt;end</title>
<path fill="none" stroke="#e53935" stroke-width="2" d="M66.5,-102.2C66.5,-102.2 66.5,-65.02 66.5,-65.02"/>
<polygon fill="#e53935" stroke="#e53935" stroke-width="2" points="70,-65.02 66.5,-55.02 63,-65.02 70,-65.02"/>
</g>
</g>
</svg>
