<?xml version="1.0" encoding="UTF-8" standalone="no"?>
<!DOCTYPE svg PUBLIC "-//W3C//DTD SVG 1.1//EN"
 "http://www.w3.org/Graphics/SVG/1.1/DTD/svg11.dtd">
<!-- Generated by graphviz version 14.1.2 (0)
 -->
<!-- Title: mirofish_workflow Pages: 1 -->
<svg width="134pt" height="1461pt"
 viewBox="0.00 0.00 134.00 1461.00" xmlns="http://www.w3.org/2000/svg" xmlns:xlink="http://www.w3.org/1999/xlink">
<g id="graph0" class="graph" transform="scale(1 1) rotate(0) translate(4 1456.5)">
<title>mirofish_workflow</title>
<polygon fill="white" stroke="none" points="-4,4 -4,-1456.5 130.25,-1456.5 130.25,4 -4,4"/>
<!-- step1_input -->
<g id="node1" class="node">
<title>step1_input</title>
<polygon fill="#4caf50" stroke="black" points="98.5,-1452.5 27.75,-1452.5 27.75,-1416.5 98.5,-1416.5 98.5,-1452.5"/>
<text xml:space="preserve" text-anchor="middle" x="63.12" y="-1437.55" font-family="Arial" font-size="11.00" fill="white">Documents</text>
<text xml:space="preserve" text-anchor="middle" x="63.12" y="-1424.05" font-family="Arial" font-size="11.00" fill="white">Upload</text>
</g>
<!-- step1_process -->
<g id="node2" class="node">
<title>step1_process</title>
<path fill="#2196f3" stroke="black" d="M102.25,-1351.5C102.25,-1351.5 24,-1351.5 24,-1351.5 18,-1351.5 12,-1345.5 12,-1339.5 12,-1339.5 12,-1327 12,-1327 12,-1321 18,-1315 24,-1315 24,-1315 102.25,-1315 102.25,-1315 108.25,-1315 114.25,-1321 114.25,-1327 114.25,-1327 114.25,-1339.5 114.25,-1339.5 114.25,-1345.5 108.25,-1351.5 102.25,-1351.5"/>
<text xml:space="preserve" text-anchor="middle" x="63.12" y="-1336.1" font-family="Arial Bold" font-size="12.00" fill="white">Step 1</text>
<text xml:space="preserve" text-anchor="middle" x="63.12" y="-1321.85" font-family="Arial Bold" font-size="12.00" fill="white">Graph Building</text>
</g>
<!-- step1_input&#45;&gt;step1_process -->
<g id="edge1" class="edge">
<title>step1_input&#45;&gt;step1_process</title>
<path fill="none" stroke="#4caf50" stroke-width="2" d="M63.12,-1416.4C63.12,-1416.4 63.12,-1364.91 63.12,-1364.91"/>
<polygon fill="#4caf50" stroke="#4caf50" stroke-width="2" points="66.63,-1364.91 63.13,-1354.91 59.63,-1364.91 66.63,-1364.91"/>
</g>
<!-- step1_output -->
<g id="node3" class="node">
<title>step1_output</title>
<polygon fill="#f44336" stroke="black" points="97.75,-1250 28.5,-1250 28.5,-1214 97.75,-1214 97.75,-1250"/>
<text xml:space="preserve" text-anchor="middle" x="63.12" y="-1235.05" font-family="Arial" font-size="11.00" fill="white">Ontology</text>
<text xml:space="preserve" text-anchor="middle" x="63.12" y="-1221.55" font-family="Arial" font-size="11.00" fill="white">Generation</text>
</g>
<!-- step1_process&#45;&gt;step1_output -->
<g id="edge2" class="edge">
<title>step1_process&#45;&gt;step1_output</title>
<path fill="none" stroke="#2196f3" stroke-width="2" d="M63.12,-1314.68C63.12,-1314.68 63.12,-1263.48 63.12,-1263.48"/>
<polygon fill="#2196f3" stroke="#2196f3" stroke-width="2" points="66.63,-1263.48 63.13,-1253.48 59.63,-1263.48 66.63,-1263.48"/>
</g>
<!-- step2_input -->
<g id="node4" class="node">
<title>step2_input</title>
<polygon fill="#4caf50" stroke="black" points="104.88,-1149 21.38,-1149 21.38,-1113 104.88,-1113 104.88,-1149"/>
<text xml:space="preserve" text-anchor="middle" x="63.12" y="-1134.05" font-family="Arial" font-size="11.00" fill="white">User</text>
<text xml:space="preserve" text-anchor="middle" x="63.12" y="-1120.55" font-family="Arial" font-size="11.00" fill="white">Requirements</text>
</g>
<!-- step1_output&#45;&gt;step2_input -->
<g id="edge3" class="edge">
<title>step1_output&#45;&gt;step2_input</title>
<path fill="none" stroke="#f44336" stroke-width="1.5" stroke-dasharray="5,2" d="M63.12,-1213.94C63.12,-1213.94 63.12,-1161.51 63.12,-1161.51"/>
<polygon fill="#f44336" stroke="#f44336" stroke-width="1.5" points="66.63,-1161.51 63.13,-1151.51 59.63,-1161.51 66.63,-1161.51"/>
</g>
<!-- step2_process -->
<g id="node5" class="node">
<title>step2_process</title>
<path fill="#2196f3" stroke="black" d="M114.25,-1048C114.25,-1048 12,-1048 12,-1048 6,-1048 0,-1042 0,-1036 0,-1036 0,-1023.5 0,-1023.5 0,-1017.5 6,-1011.5 12,-1011.5 12,-1011.5 114.25,-1011.5 114.25,-1011.5 120.25,-1011.5 126.25,-1017.5 126.25,-1023.5 126.25,-1023.5 126.25,-1036 126.25,-1036 126.25,-1042 120.25,-1048 114.25,-1048"/>
<text xml:space="preserve" text-anchor="middle" x="63.12" y="-1032.6" font-family="Arial Bold" font-size="12.00" fill="white">Step 2</text>
<text xml:space="preserve" text-anchor="middle" x="63.12" y="-1018.35" font-family="Arial Bold" font-size="12.00" fill="white">Environment Setup</text>
</g>
<!-- step2_input&#45;&gt;step2_process -->
<g id="edge4" class="edge">
<title>step2_input&#45;&gt;step2_process</title>
<path fill="none" stroke="#4caf50" stroke-width="2" d="M63.12,-1112.9C63.12,-1112.9 63.12,-1061.41 63.12,-1061.41"/>
<polygon fill="#4caf50" stroke="#4caf50" stroke-width="2" points="66.63,-1061.41 63.13,-1051.41 59.63,-1061.41 66.63,-1061.41"/>
</g>
<!-- step2_output -->
<g id="node6" class="node">
<title>step2_output</title>
<polygon fill="#f44336" stroke="black" points="91.75,-946.5 34.5,-946.5 34.5,-910.5 91.75,-910.5 91.75,-946.5"/>
<text xml:space="preserve" text-anchor="middle" x="63.12" y="-931.55" font-family="Arial" font-size="11.00" fill="white">Profile</text>
<text xml:space="preserve" text-anchor="middle" x="63.12" y="-918.05" font-family="Arial" font-size="11.00" fill="white">Creation</text>
</g>
<!-- step2_process&#45;&gt;step2_output -->
<g id="edge5" class="edge">
<title>step2_process&#45;&gt;step2_output</title>
<path fill="none" stroke="#2196f3" stroke-width="2" d="M63.12,-1011.18C63.12,-1011.18 63.12,-959.98 63.12,-959.98"/>
<polygon fill="#2196f3" stroke="#2196f3" stroke-width="2" points="66.63,-959.98 63.13,-949.98 59.63,-959.98 66.63,-959.98"/>
</g>
<!-- step3_input -->
<g id="node7" class="node">
<title>step3_input</title>
<polygon fill="#4caf50" stroke="black" points="91.38,-845.5 34.88,-845.5 34.88,-809.5 91.38,-809.5 91.38,-845.5"/>
<text xml:space="preserve" text-anchor="middle" x="63.12" y="-830.55" font-family="Arial" font-size="11.00" fill="white">Platform</text>
<text xml:space="preserve" text-anchor="middle" x="63.12" y="-817.05" font-family="Arial" font-size="11.00" fill="white">Config</text>
</g>
<!-- step2_output&#45;&gt;step3_input -->
<g id="edge6" class="edge">
<title>step2_output&#45;&gt;step3_input</title>
<path fill="none" stroke="#f44336" stroke-width="1.5" stroke-dasharray="5,2" d="M63.12,-910.44C63.12,-910.44 63.12,-858.01 63.12,-858.01"/>
<polygon fill="#f44336" stroke="#f44336" stroke-width="1.5" points="66.63,-858.01 63.13,-848.01 59.63,-858.01 66.63,-858.01"/>
</g>
<!-- step3_process -->
<g id="node8" class="node">
<title>step3_process</title>
<path fill="#2196f3" stroke="black" d="M89.5,-744.5C89.5,-744.5 36.75,-744.5 36.75,-744.5 30.75,-744.5 24.75,-738.5 24.75,-732.5 24.75,-732.5 24.75,-720 24.75,-720 24.75,-714 30.75,-708 36.75,-708 36.75,-708 89.5,-708 89.5,-708 95.5,-708 101.5,-714 101.5,-720 101.5,-720 101.5,-732.5 101.5,-732.5 101.5,-738.5 95.5,-744.5 89.5,-744.5"/>
<text xml:space="preserve" text-anchor="middle" x="63.12" y="-729.1" font-family="Arial Bold" font-size="12.00" fill="white">Step 3</text>
<text xml:space="preserve" text-anchor="middle" x="63.12" y="-714.85" font-family="Arial Bold" font-size="12.00" fill="white">Simulation</text>
</g>
<!-- step3_input&#45;&gt;step3_process -->
<g id="edge7" class="edge">
<title>step3_input&#45;&gt;step3_process</title>
<path fill="none" stroke="#4caf50" stroke-width="2" d="M63.12,-809.4C63.12,-809.4 63.12,-757.91 63.12,-757.91"/>
<polygon fill="#4caf50" stroke="#4caf50" stroke-width="2" points="66.63,-757.91 63.13,-747.91 59.63,-757.91 66.63,-757.91"/>
</g>
<!-- step3_output -->
<g id="node9" class="node">
<title>step3_output</title>
<polygon fill="#f44336" stroke="black" points="95.12,-643 31.12,-643 31.12,-607 95.12,-607 95.12,-643"/>
<text xml:space="preserve" text-anchor="middle" x="63.12" y="-628.05" font-family="Arial" font-size="11.00" fill="white">Agent</text>
<text xml:space="preserve" text-anchor="middle" x="63.12" y="-614.55" font-family="Arial" font-size="11.00" fill="white">Reactions</text>
</g>
<!-- step3_process&#45;&gt;step3_output -->
<g id="edge8" class="edge">
<title>step3_process&#45;&gt;step3_output</title>
<path fill="none" stroke="#2196f3" stroke-width="2" d="M63.12,-707.68C63.12,-707.68 63.12,-656.48 63.12,-656.48"/>
<polygon fill="#2196f3" stroke="#2196f3" stroke-width="2" points="66.63,-656.48 63.13,-646.48 59.63,-656.48 66.63,-656.48"/>
</g>
<!-- step4_input -->
<g id="node10" class="node">
<title>step4_input</title>
<polygon fill="#4caf50" stroke="black" points="96.25,-542 30,-542 30,-506 96.25,-506 96.25,-542"/>
<text xml:space="preserve" text-anchor="middle" x="63.12" y="-527.05" font-family="Arial" font-size="11.00" fill="white">Simulation</text>
<text xml:space="preserve" text-anchor="middle" x="63.12" y="-513.55" font-family="Arial" font-size="11.00" fill="white">Results</text>
</g>
<!-- step3_output&#45;&gt;step4_input -->
<g id="edge9" class="edge">
<title>step3_output&#45;&gt;step4_input</title>
<path fill="none" stroke="#f44336" stroke-width="1.5" stroke-dasharray="5,2" d="M63.12,-606.94C63.12,-606.94 63.12,-554.51 63.12,-554.51"/>
<polygon fill="#f44336" stroke="#f44336" stroke-width="1.5" points="66.63,-554.51 63.13,-544.51 59.63,-554.51 66.63,-554.51"/>
</g>
<!-- step4_process -->
<g id="node11" class="node">
<title>step4_process</title>
<path fill="#2196f3" stroke="black" d="M111.62,-441C111.62,-441 14.62,-441 14.62,-441 8.62,-441 2.62,-435 2.62,-429 2.62,-429 2.62,-416.5 2.62,-416.5 2.62,-410.5 8.62,-404.5 14.62,-404.5 14.62,-404.5 111.62,-404.5 111.62,-404.5 117.62,-404.5 123.62,-410.5 123.62,-416.5 123.62,-416.5 123.62,-429 123.62,-429 123.62,-435 117.62,-441 111.62,-441"/>
<text xml:space="preserve" text-anchor="middle" x="63.12" y="-425.6" font-family="Arial Bold" font-size="12.00" fill="white">Step 4</text>
<text xml:space="preserve" text-anchor="middle" x="63.12" y="-411.35" font-family="Arial Bold" font-size="12.00" fill="white">Report Generation</text>
</g>
<!-- step4_input&#45;&gt;step4_process -->
<g id="edge10" class="edge">
<title>step4_input&#45;&gt;step4_process</title>
<path fill="none" stroke="#4caf50" stroke-width="2" d="M63.12,-505.9C63.12,-505.9 63.12,-454.41 63.12,-454.41"/>
<polygon fill="#4caf50" stroke="#4caf50" stroke-width="2" points="66.63,-454.41 63.13,-444.41 59.63,-454.41 66.63,-454.41"/>
</g>
<!-- step4_output -->
<g id="node12" class="node">
<title>step4_output</title>
<polygon fill="#f44336" stroke="black" points="91,-339.5 35.25,-339.5 35.25,-303.5 91,-303.5 91,-339.5"/>
<text xml:space="preserve" text-anchor="middle" x="63.12" y="-324.55" font-family="Arial" font-size="11.00" fill="white">ReACT</text>
<text xml:space="preserve" text-anchor="middle" x="63.12" y="-311.05" font-family="Arial" font-size="11.00" fill="white">Analysis</text>
</g>
<!-- step4_process&#45;&gt;step4_output -->
<g id="edge11" class="edge">
<title>step4_process&#45;&gt;step4_output</title>
<path fill="none" stroke="#2196f3" stroke-width="2" d="M63.12,-404.18C63.12,-404.18 63.12,-352.98 63.12,-352.98"/>
<polygon fill="#2196f3" stroke="#2196f3" stroke-width="2" points="66.63,-352.98 63.13,-342.98 59.63,-352.98 66.63,-352.98"/>
</g>
<!-- step5_input -->
<g id="node13" class="node">
<title>step5_input</title>
<polygon fill="#4caf50" stroke="black" points="95.12,-238.5 31.12,-238.5 31.12,-202.5 95.12,-202.5 95.12,-238.5"/>
<text xml:space="preserve" text-anchor="middle" x="63.12" y="-223.55" font-family="Arial" font-size="11.00" fill="white">Report</text>
<text xml:space="preserve" text-anchor="middle" x="63.12" y="-210.05" font-family="Arial" font-size="11.00" fill="white">Questions</text>
</g>
<!-- step4_output&#45;&gt;step5_input -->
<g id="edge12" class="edge">
<title>step4_output&#45;&gt;step5_input</title>
<path fill="none" stroke="#f44336" stroke-width="1.5" stroke-dasharray="5,2" d="M63.12,-303.44C63.12,-303.44 63.12,-251.01 63.12,-251.01"/>
<polygon fill="#f44336" stroke="#f44336" stroke-width="1.5" points="66.63,-251.01 63.13,-241.01 59.63,-251.01 66.63,-251.01"/>
</g>
<!-- step5_process -->
<g id="node14" class="node">
<title>step5_process</title>
<path fill="#2196f3" stroke="black" d="M106,-137.5C106,-137.5 20.25,-137.5 20.25,-137.5 14.25,-137.5 8.25,-131.5 8.25,-125.5 8.25,-125.5 8.25,-113 8.25,-113 8.25,-107 14.25,-101 20.25,-101 20.25,-101 106,-101 106,-101 112,-101 118,-107 118,-113 118,-113 118,-125.5 118,-125.5 118,-131.5 112,-137.5 106,-137.5"/>
<text xml:space="preserve" text-anchor="middle" x="63.12" y="-122.1" font-family="Arial Bold" font-size="12.00" fill="white">Step 5</text>
<text xml:space="preserve" text-anchor="middle" x="63.12" y="-107.85" font-family="Arial Bold" font-size="12.00" fill="white">Deep Interaction</text>
</g>
<!-- step5_input&#45;&gt;step5_process -->
<g id="edge13" class="edge">
<title>step5_input&#45;&gt;step5_process</title>
<path fill="none" stroke="#4caf50" stroke-width="2" d="M63.12,-202.4C63.12,-202.4 63.12,-150.91 63.12,-150.91"/>
<polygon fill="#4caf50" stroke="#4caf50" stroke-width="2" points="66.63,-150.91 63.13,-140.91 59.63,-150.91 66.63,-150.91"/>
</g>
<!-- step5_output -->
<g id="node15" class="node">
<title>step5_output</title>
<polygon fill="#f44336" stroke="black" points="95.5,-36 30.75,-36 30.75,0 95.5,0 95.5,-36"/>
<text xml:space="preserve" text-anchor="middle" x="63.12" y="-21.05" font-family="Arial" font-size="11.00" fill="white">Agent</text>
<text xml:space="preserve" text-anchor="middle" x="63.12" y="-7.55" font-family="Arial" font-size="11.00" fill="white">Interviews</text>
</g>
<!-- step5_process&#45;&gt;step5_output -->
<g id="edge14" class="edge">
<title>step5_process&#45;&gt;step5_output</title>
<path fill="none" stroke="#2196f3" stroke-width="2" d="M63.12,-100.68C63.12,-100.68 63.12,-49.48 63.12,-49.48"/>
<polygon fill="#2196f3" stroke="#2196f3" stroke-width="2" points="66.63,-49.48 63.13,-39.48 59.63,-49.48 66.63,-49.48"/>
</g>
</g>
</svg>
