<?xml version="1.0" encoding="UTF-8" standalone="no"?>
<!DOCTYPE svg PUBLIC "-//W3C//DTD SVG 1.1//EN"
 "http://www.w3.org/Graphics/SVG/1.1/DTD/svg11.dtd">
<!-- Generated by graphviz version 14.1.2 (0)
 -->
<!-- Title: data_flow Pages: 1 -->
<svg width="230pt" height="427pt"
 viewBox="0.00 0.00 230.00 427.00" xmlns="http://www.w3.org/2000/svg" xmlns:xlink="http://www.w3.org/1999/xlink">
<g id="graph0" class="graph" transform="scale(1 1) rotate(0) translate(4 423)">
<title>data_flow</title>
<polygon fill="white" stroke="none" points="-4,4 -4,-423 226.25,-423 226.25,4 -4,4"/>
<!-- browser -->
<g id="node1" class="node">
<title>browser</title>
<ellipse fill="#f59e0b" stroke="black" stroke-width="2" cx="115.88" cy="-401" rx="35.22" ry="18"/>
<text xml:space="preserve" text-anchor="middle" x="115.88" y="-397.3" font-family="Arial" font-size="11.00" fill="white">Browser</text>
</g>
<!-- apiclient -->
<g id="node2" class="node">
<title>apiclient</title>
<path fill="#3b82f6" stroke="black" stroke-width="2" d="M81.62,-328C81.62,-328 46.12,-328 46.12,-328 40.12,-328 34.12,-322 34.12,-316 34.12,-316 34.12,-304 34.12,-304 34.12,-298 40.12,-292 46.12,-292 46.12,-292 81.62,-292 81.62,-292 87.62,-292 93.62,-298 93.62,-304 93.62,-304 93.62,-316 93.62,-316 93.62,-322 87.62,-328 81.62,-328"/>
<text xml:space="preserve" text-anchor="middle" x="63.88" y="-313.05" font-family="Arial" font-size="11.00" fill="white">ApiClient</text>
<text xml:space="preserve" text-anchor="middle" x="63.88" y="-299.55" font-family="Arial" font-size="11.00" fill="white">(REST)</text>
</g>
<!-- browser&#45;&gt;apiclient -->
<g id="edge1" class="edge">
<title>browser&#45;&gt;apiclient</title>
<path fill="none" stroke="#374151" stroke-width="2" d="M87.14,-389.47C87.14,-389.47 87.14,-339.72 87.14,-339.72"/>
<polygon fill="#374151" stroke="#374151" stroke-width="2" points="89.94,-339.72 87.14,-331.72 84.34,-339.72 89.94,-339.72"/>
</g>
<!-- wsclient -->
<g id="node3" class="node">
<title>wsclient</title>
<path fill="#ec4899" stroke="black" stroke-width="2" d="M199.38,-328C199.38,-328 144.38,-328 144.38,-328 138.38,-328 132.38,-322 132.38,-316 132.38,-316 132.38,-304 132.38,-304 132.38,-298 138.38,-292 144.38,-292 144.38,-292 199.38,-292 199.38,-292 205.38,-292 211.38,-298 211.38,-304 211.38,-304 211.38,-316 211.38,-316 211.38,-322 205.38,-328 199.38,-328"/>
<text xml:space="preserve" text-anchor="middle" x="171.88" y="-313.05" font-family="Arial" font-size="11.00" fill="white">WSClient</text>
<text xml:space="preserve" text-anchor="middle" x="171.88" y="-299.55" font-family="Arial" font-size="11.00" fill="white">(WebSocket)</text>
</g>
<!-- browser&#45;&gt;wsclient -->
<g id="edge2" class="edge">
<title>browser&#45;&gt;wsclient</title>
<path fill="none" stroke="#374151" stroke-width="2" d="M141.74,-387.96C141.74,-387.96 141.74,-339.73 141.74,-339.73"/>
<polygon fill="#374151" stroke="#374151" stroke-width="2" points="144.54,-339.73 141.74,-331.73 138.94,-339.73 144.54,-339.73"/>
</g>
<!-- handlers -->
<g id="node4" class="node">
<title>handlers</title>
<path fill="#10b981" stroke="black" stroke-width="2" d="M79.75,-227.5C79.75,-227.5 12,-227.5 12,-227.5 6,-227.5 0,-221.5 0,-215.5 0,-215.5 0,-203.5 0,-203.5 0,-197.5 6,-191.5 12,-191.5 12,-191.5 79.75,-191.5 79.75,-191.5 85.75,-191.5 91.75,-197.5 91.75,-203.5 91.75,-203.5 91.75,-215.5 91.75,-215.5 91.75,-221.5 85.75,-227.5 79.75,-227.5"/>
<text xml:space="preserve" text-anchor="middle" x="45.88" y="-212.55" font-family="Arial" font-size="11.00" fill="white">HTTP Handlers</text>
<text xml:space="preserve" text-anchor="middle" x="45.88" y="-199.05" font-family="Arial" font-size="11.00" fill="white">(Chi Router)</text>
</g>
<!-- apiclient&#45;&gt;handlers -->
<g id="edge3" class="edge">
<title>apiclient&#45;&gt;handlers</title>
<path fill="none" stroke="#374151" stroke-width="2" d="M62.94,-291.1C62.94,-291.1 62.94,-239.35 62.94,-239.35"/>
<polygon fill="#374151" stroke="#374151" stroke-width="2" points="65.74,-239.35 62.94,-231.35 60.14,-239.35 65.74,-239.35"/>
<text xml:space="preserve" text-anchor="middle" x="78.12" y="-256.45" font-family="Arial" font-size="9.00">REST API</text>
</g>
<!-- hub -->
<g id="node5" class="node">
<title>hub</title>
<path fill="#ec4899" stroke="black" stroke-width="2" d="M210.25,-227.5C210.25,-227.5 139.5,-227.5 139.5,-227.5 133.5,-227.5 127.5,-221.5 127.5,-215.5 127.5,-215.5 127.5,-203.5 127.5,-203.5 127.5,-197.5 133.5,-191.5 139.5,-191.5 139.5,-191.5 210.25,-191.5 210.25,-191.5 216.25,-191.5 222.25,-197.5 222.25,-203.5 222.25,-203.5 222.25,-215.5 222.25,-215.5 222.25,-221.5 216.25,-227.5 210.25,-227.5"/>
<text xml:space="preserve" text-anchor="middle" x="174.88" y="-212.55" font-family="Arial" font-size="11.00" fill="white">WebSocket Hub</text>
<text xml:space="preserve" text-anchor="middle" x="174.88" y="-199.05" font-family="Arial" font-size="11.00" fill="white">(Real&#45;time)</text>
</g>
<!-- wsclient&#45;&gt;hub -->
<g id="edge4" class="edge">
<title>wsclient&#45;&gt;hub</title>
<path fill="none" stroke="#374151" stroke-width="2" d="M171.88,-291.1C171.88,-291.1 171.88,-239.35 171.88,-239.35"/>
<polygon fill="#374151" stroke="#374151" stroke-width="2" points="174.68,-239.35 171.88,-231.35 169.08,-239.35 174.68,-239.35"/>
<text xml:space="preserve" text-anchor="middle" x="196.12" y="-256.45" font-family="Arial" font-size="9.00">WebSocket</text>
</g>
<!-- taskservice -->
<g id="node6" class="node">
<title>taskservice</title>
<path fill="#10b981" stroke="black" stroke-width="2" d="M139.62,-136.5C139.62,-136.5 80.12,-136.5 80.12,-136.5 74.12,-136.5 68.12,-130.5 68.12,-124.5 68.12,-124.5 68.12,-112.5 68.12,-112.5 68.12,-106.5 74.12,-100.5 80.12,-100.5 80.12,-100.5 139.62,-100.5 139.62,-100.5 145.62,-100.5 151.62,-106.5 151.62,-112.5 151.62,-112.5 151.62,-124.5 151.62,-124.5 151.62,-130.5 145.62,-136.5 139.62,-136.5"/>
<text xml:space="preserve" text-anchor="middle" x="109.88" y="-121.55" font-family="Arial" font-size="11.00" fill="white">Task Service</text>
<text xml:space="preserve" text-anchor="middle" x="109.88" y="-108.05" font-family="Arial" font-size="11.00" fill="white">(Orchestrator)</text>
</g>
<!-- handlers&#45;&gt;taskservice -->
<g id="edge5" class="edge">
<title>handlers&#45;&gt;taskservice</title>
<path fill="none" stroke="#374151" stroke-width="2" d="M79.94,-190.64C79.94,-190.64 79.94,-148.36 79.94,-148.36"/>
<polygon fill="#374151" stroke="#374151" stroke-width="2" points="82.74,-148.36 79.94,-140.36 77.14,-148.36 82.74,-148.36"/>
</g>
<!-- hub&#45;&gt;taskservice -->
<g id="edge6" class="edge">
<title>hub&#45;&gt;taskservice</title>
<path fill="none" stroke="#374151" stroke-width="2" d="M139.56,-190.64C139.56,-190.64 139.56,-148.36 139.56,-148.36"/>
<polygon fill="#374151" stroke="#374151" stroke-width="2" points="142.36,-148.36 139.56,-140.36 136.76,-148.36 142.36,-148.36"/>
</g>
<!-- db -->
<g id="node7" class="node">
<title>db</title>
<path fill="#8b5cf6" stroke="black" stroke-width="2" d="M135.5,-36C135.5,-36 84.25,-36 84.25,-36 78.25,-36 72.25,-30 72.25,-24 72.25,-24 72.25,-12 72.25,-12 72.25,-6 78.25,0 84.25,0 84.25,0 135.5,0 135.5,0 141.5,0 147.5,-6 147.5,-12 147.5,-12 147.5,-24 147.5,-24 147.5,-30 141.5,-36 135.5,-36"/>
<text xml:space="preserve" text-anchor="middle" x="109.88" y="-21.05" font-family="Arial" font-size="11.00" fill="white">PostgreSQL</text>
<text xml:space="preserve" text-anchor="middle" x="109.88" y="-7.55" font-family="Arial" font-size="11.00" fill="white">(pgvector)</text>
</g>
<!-- taskservice&#45;&gt;db -->
<g id="edge7" class="edge">
<title>taskservice&#45;&gt;db</title>
<path fill="none" stroke="#374151" stroke-width="2" d="M109.88,-99.6C109.88,-99.6 109.88,-47.85 109.88,-47.85"/>
<polygon fill="#374151" stroke="#374151" stroke-width="2" points="112.68,-47.85 109.88,-39.85 107.08,-47.85 112.68,-47.85"/>
<text xml:space="preserve" text-anchor="middle" x="122.25" y="-64.95" font-family="Arial" font-size="9.00">SQLC</text>
</g>
</g>
</svg>
