<?xml version="1.0" encoding="UTF-8" standalone="no"?>
<!DOCTYPE svg PUBLIC "-//W3C//DTD SVG 1.1//EN"
 "http://www.w3.org/Graphics/SVG/1.1/DTD/svg11.dtd">
<!-- Generated by graphviz version 14.1.2 (0)
 -->
<!-- Title: nomad_architecture Pages: 1 -->
<svg width="968pt" height="523pt"
 viewBox="0.00 0.00 968.00 523.00" xmlns="http://www.w3.org/2000/svg" xmlns:xlink="http://www.w3.org/1999/xlink">
<g id="graph0" class="graph" transform="scale(1 1) rotate(0) translate(4 519)">
<title>nomad_architecture</title>
<polygon fill="white" stroke="none" points="-4,4 -4,-519 964.38,-519 964.38,4 -4,4"/>
<!-- user -->
<g id="node1" class="node">
<title>user</title>
<polygon fill="#4caf50" stroke="black" points="538,-515 481.5,-515 481.5,-479 538,-479 538,-515"/>
<text xml:space="preserve" text-anchor="middle" x="509.75" y="-500.05" font-family="Arial" font-size="11.00" fill="white">User</text>
<text xml:space="preserve" text-anchor="middle" x="509.75" y="-486.55" font-family="Arial" font-size="11.00" fill="white">Browser</text>
</g>
<!-- command_center -->
<g id="node2" class="node">
<title>command_center</title>
<path fill="#2196f3" stroke="black" d="M567.62,-421C567.62,-421 451.88,-421 451.88,-421 445.88,-421 439.88,-415 439.88,-409 439.88,-409 439.88,-396.5 439.88,-396.5 439.88,-390.5 445.88,-384.5 451.88,-384.5 451.88,-384.5 567.62,-384.5 567.62,-384.5 573.62,-384.5 579.62,-390.5 579.62,-396.5 579.62,-396.5 579.62,-409 579.62,-409 579.62,-415 573.62,-421 567.62,-421"/>
<text xml:space="preserve" text-anchor="middle" x="509.75" y="-405.6" font-family="Arial Bold" font-size="12.00" fill="white">Command Center</text>
<text xml:space="preserve" text-anchor="middle" x="509.75" y="-391.35" font-family="Arial Bold" font-size="12.00" fill="white">Management UI &amp; API</text>
</g>
<!-- user&#45;&gt;command_center -->
<g id="edge1" class="edge">
<title>user&#45;&gt;command_center</title>
<path fill="none" stroke="#4caf50" stroke-width="2" d="M509.75,-478.83C509.75,-478.83 509.75,-434.22 509.75,-434.22"/>
<polygon fill="#4caf50" stroke="#4caf50" stroke-width="2" points="513.25,-434.22 509.75,-424.22 506.25,-434.22 513.25,-434.22"/>
</g>
<!-- docker -->
<g id="node3" class="node">
<title>docker</title>
<path fill="#2196f3" stroke="black" d="M555.62,-326.5C555.62,-326.5 463.88,-326.5 463.88,-326.5 457.88,-326.5 451.88,-320.5 451.88,-314.5 451.88,-314.5 451.88,-302 451.88,-302 451.88,-296 457.88,-290 463.88,-290 463.88,-290 555.62,-290 555.62,-290 561.62,-290 567.62,-296 567.62,-302 567.62,-302 567.62,-314.5 567.62,-314.5 567.62,-320.5 561.62,-326.5 555.62,-326.5"/>
<text xml:space="preserve" text-anchor="middle" x="509.75" y="-311.1" font-family="Arial Bold" font-size="12.00" fill="white">Docker</text>
<text xml:space="preserve" text-anchor="middle" x="509.75" y="-296.85" font-family="Arial Bold" font-size="12.00" fill="white">Container Engine</text>
</g>
<!-- command_center&#45;&gt;docker -->
<g id="edge2" class="edge">
<title>command_center&#45;&gt;docker</title>
<path fill="none" stroke="#2196f3" stroke-width="2" d="M509.75,-384.08C509.75,-384.08 509.75,-339.91 509.75,-339.91"/>
<polygon fill="#2196f3" stroke="#2196f3" stroke-width="2" points="513.25,-339.91 509.75,-329.91 506.25,-339.91 513.25,-339.91"/>
</g>
<!-- ai_chat -->
<g id="node4" class="node">
<title>ai_chat</title>
<path fill="#ff9800" stroke="black" d="M83.5,-232C83.5,-232 12,-232 12,-232 6,-232 0,-226 0,-220 0,-220 0,-208 0,-208 0,-202 6,-196 12,-196 12,-196 83.5,-196 83.5,-196 89.5,-196 95.5,-202 95.5,-208 95.5,-208 95.5,-220 95.5,-220 95.5,-226 89.5,-232 83.5,-232"/>
<text xml:space="preserve" text-anchor="middle" x="47.75" y="-217.05" font-family="Arial" font-size="11.00" fill="white">AI Chat</text>
<text xml:space="preserve" text-anchor="middle" x="47.75" y="-203.55" font-family="Arial" font-size="11.00" fill="white">Ollama + Qdrant</text>
</g>
<!-- docker&#45;&gt;ai_chat -->
<g id="edge3" class="edge">
<title>docker&#45;&gt;ai_chat</title>
<path fill="none" stroke="#ff9800" stroke-width="1.5" d="M451.71,-317C327.62,-317 47.75,-317 47.75,-317 47.75,-317 47.75,-244.68 47.75,-244.68"/>
<polygon fill="#ff9800" stroke="#ff9800" stroke-width="1.5" points="51.25,-244.68 47.75,-234.68 44.25,-244.68 51.25,-244.68"/>
</g>
<!-- kiwix -->
<g id="node5" class="node">
<title>kiwix</title>
<path fill="#ff9800" stroke="black" d="M225.75,-232C225.75,-232 143.75,-232 143.75,-232 137.75,-232 131.75,-226 131.75,-220 131.75,-220 131.75,-208 131.75,-208 131.75,-202 137.75,-196 143.75,-196 143.75,-196 225.75,-196 225.75,-196 231.75,-196 237.75,-202 237.75,-208 237.75,-208 237.75,-220 237.75,-220 237.75,-226 231.75,-232 225.75,-232"/>
<text xml:space="preserve" text-anchor="middle" x="184.75" y="-217.05" font-family="Arial" font-size="11.00" fill="white">Information Library</text>
<text xml:space="preserve" text-anchor="middle" x="184.75" y="-203.55" font-family="Arial" font-size="11.00" fill="white">Kiwix</text>
</g>
<!-- docker&#45;&gt;kiwix -->
<g id="edge4" class="edge">
<title>docker&#45;&gt;kiwix</title>
<path fill="none" stroke="#ff9800" stroke-width="1.5" d="M451.65,-308C358.16,-308 184.75,-308 184.75,-308 184.75,-308 184.75,-244.39 184.75,-244.39"/>
<polygon fill="#ff9800" stroke="#ff9800" stroke-width="1.5" points="188.25,-244.39 184.75,-234.39 181.25,-244.39 188.25,-244.39"/>
</g>
<!-- kolibri -->
<g id="node6" class="node">
<title>kolibri</title>
<path fill="#ff9800" stroke="black" d="M369.5,-232C369.5,-232 286,-232 286,-232 280,-232 274,-226 274,-220 274,-220 274,-208 274,-208 274,-202 280,-196 286,-196 286,-196 369.5,-196 369.5,-196 375.5,-196 381.5,-202 381.5,-208 381.5,-208 381.5,-220 381.5,-220 381.5,-226 375.5,-232 369.5,-232"/>
<text xml:space="preserve" text-anchor="middle" x="327.75" y="-217.05" font-family="Arial" font-size="11.00" fill="white">Education Platform</text>
<text xml:space="preserve" text-anchor="middle" x="327.75" y="-203.55" font-family="Arial" font-size="11.00" fill="white">Kolibri</text>
</g>
<!-- docker&#45;&gt;kolibri -->
<g id="edge5" class="edge">
<title>docker&#45;&gt;kolibri</title>
<path fill="none" stroke="#ff9800" stroke-width="1.5" d="M451.41,-299C398.18,-299 327.75,-299 327.75,-299 327.75,-299 327.75,-244.71 327.75,-244.71"/>
<polygon fill="#ff9800" stroke="#ff9800" stroke-width="1.5" points="331.25,-244.71 327.75,-234.71 324.25,-244.71 331.25,-244.71"/>
</g>
<!-- protomaps -->
<g id="node7" class="node">
<title>protomaps</title>
<path fill="#ff9800" stroke="black" d="M481.75,-232C481.75,-232 429.75,-232 429.75,-232 423.75,-232 417.75,-226 417.75,-220 417.75,-220 417.75,-208 417.75,-208 417.75,-202 423.75,-196 429.75,-196 429.75,-196 481.75,-196 481.75,-196 487.75,-196 493.75,-202 493.75,-208 493.75,-208 493.75,-220 493.75,-220 493.75,-226 487.75,-232 481.75,-232"/>
<text xml:space="preserve" text-anchor="middle" x="455.75" y="-217.05" font-family="Arial" font-size="11.00" fill="white">Offline Maps</text>
<text xml:space="preserve" text-anchor="middle" x="455.75" y="-203.55" font-family="Arial" font-size="11.00" fill="white">ProtoMaps</text>
</g>
<!-- docker&#45;&gt;protomaps -->
<g id="edge6" class="edge">
<title>docker&#45;&gt;protomaps</title>
<path fill="none" stroke="#ff9800" stroke-width="1.5" d="M472.81,-289.63C472.81,-289.63 472.81,-244.53 472.81,-244.53"/>
<polygon fill="#ff9800" stroke="#ff9800" stroke-width="1.5" points="476.31,-244.53 472.81,-234.53 469.31,-244.53 476.31,-244.53"/>
</g>
<!-- cyberchef -->
<g id="node8" class="node">
<title>cyberchef</title>
<path fill="#ff9800" stroke="black" d="M586,-232C586,-232 541.5,-232 541.5,-232 535.5,-232 529.5,-226 529.5,-220 529.5,-220 529.5,-208 529.5,-208 529.5,-202 535.5,-196 541.5,-196 541.5,-196 586,-196 586,-196 592,-196 598,-202 598,-208 598,-208 598,-220 598,-220 598,-226 592,-232 586,-232"/>
<text xml:space="preserve" text-anchor="middle" x="563.75" y="-217.05" font-family="Arial" font-size="11.00" fill="white">Data Tools</text>
<text xml:space="preserve" text-anchor="middle" x="563.75" y="-203.55" font-family="Arial" font-size="11.00" fill="white">CyberChef</text>
</g>
<!-- docker&#45;&gt;cyberchef -->
<g id="edge7" class="edge">
<title>docker&#45;&gt;cyberchef</title>
<path fill="none" stroke="#ff9800" stroke-width="1.5" d="M548.56,-289.63C548.56,-289.63 548.56,-244.53 548.56,-244.53"/>
<polygon fill="#ff9800" stroke="#ff9800" stroke-width="1.5" points="552.06,-244.53 548.56,-234.53 545.06,-244.53 552.06,-244.53"/>
</g>
<!-- flatnotes -->
<g id="node9" class="node">
<title>flatnotes</title>
<path fill="#ff9800" stroke="black" d="M685,-232C685,-232 646.5,-232 646.5,-232 640.5,-232 634.5,-226 634.5,-220 634.5,-220 634.5,-208 634.5,-208 634.5,-202 640.5,-196 646.5,-196 646.5,-196 685,-196 685,-196 691,-196 697,-202 697,-208 697,-208 697,-220 697,-220 697,-226 691,-232 685,-232"/>
<text xml:space="preserve" text-anchor="middle" x="665.75" y="-217.05" font-family="Arial" font-size="11.00" fill="white">Notes</text>
<text xml:space="preserve" text-anchor="middle" x="665.75" y="-203.55" font-family="Arial" font-size="11.00" fill="white">FlatNotes</text>
</g>
<!-- docker&#45;&gt;flatnotes -->
<g id="edge8" class="edge">
<title>docker&#45;&gt;flatnotes</title>
<path fill="none" stroke="#ff9800" stroke-width="1.5" d="M567.84,-299C612.19,-299 665.75,-299 665.75,-299 665.75,-299 665.75,-244.71 665.75,-244.71"/>
<polygon fill="#ff9800" stroke="#ff9800" stroke-width="1.5" points="669.25,-244.71 665.75,-234.71 662.25,-244.71 669.25,-244.71"/>
</g>
<!-- benchmark -->
<g id="node10" class="node">
<title>benchmark</title>
<path fill="#ff9800" stroke="black" d="M830.62,-232C830.62,-232 744.88,-232 744.88,-232 738.88,-232 732.88,-226 732.88,-220 732.88,-220 732.88,-208 732.88,-208 732.88,-202 738.88,-196 744.88,-196 744.88,-196 830.62,-196 830.62,-196 836.62,-196 842.62,-202 842.62,-208 842.62,-208 842.62,-220 842.62,-220 842.62,-226 836.62,-232 830.62,-232"/>
<text xml:space="preserve" text-anchor="middle" x="787.75" y="-217.05" font-family="Arial" font-size="11.00" fill="white">System Benchmark</text>
<text xml:space="preserve" text-anchor="middle" x="787.75" y="-203.55" font-family="Arial" font-size="11.00" fill="white">Built&#45;in</text>
</g>
<!-- docker&#45;&gt;benchmark -->
<g id="edge9" class="edge">
<title>docker&#45;&gt;benchmark</title>
<path fill="none" stroke="#ff9800" stroke-width="1.5" d="M568.03,-308C649.55,-308 787.75,-308 787.75,-308 787.75,-308 787.75,-244.39 787.75,-244.39"/>
<polygon fill="#ff9800" stroke="#ff9800" stroke-width="1.5" points="791.25,-244.39 787.75,-234.39 784.25,-244.39 791.25,-244.39"/>
</g>
<!-- setup_wizard -->
<g id="node11" class="node">
<title>setup_wizard</title>
<path fill="#ff9800" stroke="black" d="M948.38,-232C948.38,-232 891.12,-232 891.12,-232 885.12,-232 879.12,-226 879.12,-220 879.12,-220 879.12,-208 879.12,-208 879.12,-202 885.12,-196 891.12,-196 891.12,-196 948.38,-196 948.38,-196 954.38,-196 960.38,-202 960.38,-208 960.38,-208 960.38,-220 960.38,-220 960.38,-226 954.38,-232 948.38,-232"/>
<text xml:space="preserve" text-anchor="middle" x="919.75" y="-217.05" font-family="Arial" font-size="11.00" fill="white">Setup Wizard</text>
<text xml:space="preserve" text-anchor="middle" x="919.75" y="-203.55" font-family="Arial" font-size="11.00" fill="white">Built&#45;in</text>
</g>
<!-- docker&#45;&gt;setup_wizard -->
<g id="edge10" class="edge">
<title>docker&#45;&gt;setup_wizard</title>
<path fill="none" stroke="#ff9800" stroke-width="1.5" d="M568.06,-317C681.25,-317 919.75,-317 919.75,-317 919.75,-317 919.75,-244.68 919.75,-244.68"/>
<polygon fill="#ff9800" stroke="#ff9800" stroke-width="1.5" points="923.25,-244.68 919.75,-234.68 916.25,-244.68 923.25,-244.68"/>
</g>
<!-- models -->
<g id="node12" class="node">
<title>models</title>
<path fill="#9c27b0" stroke="black" d="M102.75,-134C102.75,-136.21 85.72,-138 64.75,-138 43.78,-138 26.75,-136.21 26.75,-134 26.75,-134 26.75,-98 26.75,-98 26.75,-95.79 43.78,-94 64.75,-94 85.72,-94 102.75,-95.79 102.75,-98 102.75,-98 102.75,-134 102.75,-134"/>
<path fill="none" stroke="black" d="M102.75,-134C102.75,-131.79 85.72,-130 64.75,-130 43.78,-130 26.75,-131.79 26.75,-134"/>
<text xml:space="preserve" text-anchor="middle" x="64.75" y="-118.5" font-family="Arial" font-size="10.00" fill="white">LLM Models</text>
<text xml:space="preserve" text-anchor="middle" x="64.75" y="-106.5" font-family="Arial" font-size="10.00" fill="white">Local Storage</text>
</g>
<!-- ai_chat&#45;&gt;models -->
<g id="edge11" class="edge">
<title>ai_chat&#45;&gt;models</title>
<path fill="none" stroke="#9c27b0" stroke-width="1.5" d="M61.12,-195.57C61.12,-195.57 61.12,-150.75 61.12,-150.75"/>
<polygon fill="#9c27b0" stroke="#9c27b0" stroke-width="1.5" points="64.63,-150.75 61.13,-140.75 57.63,-150.75 64.63,-150.75"/>
</g>
<!-- zim_files -->
<g id="node13" class="node">
<title>zim_files</title>
<path fill="#9c27b0" stroke="black" d="M231.38,-134C231.38,-136.21 213.17,-138 190.75,-138 168.33,-138 150.12,-136.21 150.12,-134 150.12,-134 150.12,-98 150.12,-98 150.12,-95.79 168.33,-94 190.75,-94 213.17,-94 231.38,-95.79 231.38,-98 231.38,-98 231.38,-134 231.38,-134"/>
<path fill="none" stroke="black" d="M231.38,-134C231.38,-131.79 213.17,-130 190.75,-130 168.33,-130 150.12,-131.79 150.12,-134"/>
<text xml:space="preserve" text-anchor="middle" x="190.75" y="-118.5" font-family="Arial" font-size="10.00" fill="white">ZIM Archives</text>
<text xml:space="preserve" text-anchor="middle" x="190.75" y="-106.5" font-family="Arial" font-size="10.00" fill="white">Wikipedia, etc.</text>
</g>
<!-- kiwix&#45;&gt;zim_files -->
<g id="edge12" class="edge">
<title>kiwix&#45;&gt;zim_files</title>
<path fill="none" stroke="#9c27b0" stroke-width="1.5" d="M190.75,-195.57C190.75,-195.57 190.75,-150.75 190.75,-150.75"/>
<polygon fill="#9c27b0" stroke="#9c27b0" stroke-width="1.5" points="194.25,-150.75 190.75,-140.75 187.25,-150.75 194.25,-150.75"/>
</g>
<!-- course_data -->
<g id="node14" class="node">
<title>course_data</title>
<path fill="#9c27b0" stroke="black" d="M361.75,-134C361.75,-136.21 343.37,-138 320.75,-138 298.13,-138 279.75,-136.21 279.75,-134 279.75,-134 279.75,-98 279.75,-98 279.75,-95.79 298.13,-94 320.75,-94 343.37,-94 361.75,-95.79 361.75,-98 361.75,-98 361.75,-134 361.75,-134"/>
<path fill="none" stroke="black" d="M361.75,-134C361.75,-131.79 343.37,-130 320.75,-130 298.13,-130 279.75,-131.79 279.75,-134"/>
<text xml:space="preserve" text-anchor="middle" x="320.75" y="-118.5" font-family="Arial" font-size="10.00" fill="white">Course Data</text>
<text xml:space="preserve" text-anchor="middle" x="320.75" y="-106.5" font-family="Arial" font-size="10.00" fill="white">Khan Academy</text>
</g>
<!-- kolibri&#45;&gt;course_data -->
<g id="edge13" class="edge">
<title>kolibri&#45;&gt;course_data</title>
<path fill="none" stroke="#9c27b0" stroke-width="1.5" d="M320.75,-195.57C320.75,-195.57 320.75,-150.75 320.75,-150.75"/>
<polygon fill="#9c27b0" stroke="#9c27b0" stroke-width="1.5" points="324.25,-150.75 320.75,-140.75 317.25,-150.75 324.25,-150.75"/>
</g>
<!-- map_tiles -->
<g id="node15" class="node">
<title>map_tiles</title>
<path fill="#9c27b0" stroke="black" d="M472.75,-134C472.75,-136.21 459.75,-138 443.75,-138 427.75,-138 414.75,-136.21 414.75,-134 414.75,-134 414.75,-98 414.75,-98 414.75,-95.79 427.75,-94 443.75,-94 459.75,-94 472.75,-95.79 472.75,-98 472.75,-98 472.75,-134 472.75,-134"/>
<path fill="none" stroke="black" d="M472.75,-134C472.75,-131.79 459.75,-130 443.75,-130 427.75,-130 414.75,-131.79 414.75,-134"/>
<text xml:space="preserve" text-anchor="middle" x="443.75" y="-118.5" font-family="Arial" font-size="10.00" fill="white">Map Tiles</text>
<text xml:space="preserve" text-anchor="middle" x="443.75" y="-106.5" font-family="Arial" font-size="10.00" fill="white">Regional</text>
</g>
<!-- protomaps&#45;&gt;map_tiles -->
<g id="edge14" class="edge">
<title>protomaps&#45;&gt;map_tiles</title>
<path fill="none" stroke="#9c27b0" stroke-width="1.5" d="M445.25,-195.57C445.25,-195.57 445.25,-150.75 445.25,-150.75"/>
<polygon fill="#9c27b0" stroke="#9c27b0" stroke-width="1.5" points="448.75,-150.75 445.25,-140.75 441.75,-150.75 448.75,-150.75"/>
</g>
<!-- output -->
<g id="node16" class="node">
<title>output</title>
<polygon fill="#f44336" stroke="black" points="307.62,-36 203.88,-36 203.88,0 307.62,0 307.62,-36"/>
<text xml:space="preserve" text-anchor="middle" x="255.75" y="-21.05" font-family="Arial" font-size="11.00" fill="white">Offline Knowledge</text>
<text xml:space="preserve" text-anchor="middle" x="255.75" y="-7.55" font-family="Arial" font-size="11.00" fill="white">Always Available</text>
</g>
<!-- models&#45;&gt;output -->
<g id="edge15" class="edge">
<title>models&#45;&gt;output</title>
<path fill="none" stroke="#f44336" stroke-width="1.5" stroke-dasharray="5,2" d="M64.75,-93.76C64.75,-64.85 64.75,-18 64.75,-18 64.75,-18 191.29,-18 191.29,-18"/>
<polygon fill="#f44336" stroke="#f44336" stroke-width="1.5" points="191.29,-21.5 201.29,-18 191.29,-14.5 191.29,-21.5"/>
</g>
<!-- zim_files&#45;&gt;output -->
<g id="edge16" class="edge">
<title>zim_files&#45;&gt;output</title>
<path fill="none" stroke="#f44336" stroke-width="1.5" stroke-dasharray="5,2" d="M217.62,-94.25C217.62,-94.25 217.62,-48.67 217.62,-48.67"/>
<polygon fill="#f44336" stroke="#f44336" stroke-width="1.5" points="221.13,-48.67 217.63,-38.67 214.13,-48.67 221.13,-48.67"/>
</g>
<!-- course_data&#45;&gt;output -->
<g id="edge17" class="edge">
<title>course_data&#45;&gt;output</title>
<path fill="none" stroke="#f44336" stroke-width="1.5" stroke-dasharray="5,2" d="M293.69,-94.25C293.69,-94.25 293.69,-48.67 293.69,-48.67"/>
<polygon fill="#f44336" stroke="#f44336" stroke-width="1.5" points="297.19,-48.67 293.69,-38.67 290.19,-48.67 297.19,-48.67"/>
</g>
<!-- map_tiles&#45;&gt;output -->
<g id="edge18" class="edge">
<title>map_tiles&#45;&gt;output</title>
<path fill="none" stroke="#f44336" stroke-width="1.5" stroke-dasharray="5,2" d="M443.75,-93.76C443.75,-64.85 443.75,-18 443.75,-18 443.75,-18 320.39,-18 320.39,-18"/>
<polygon fill="#f44336" stroke="#f44336" stroke-width="1.5" points="320.39,-14.5 310.39,-18 320.39,-21.5 320.39,-14.5"/>
</g>
</g>
</svg>
