<?xml version="1.0" encoding="UTF-8" standalone="no"?>
<!DOCTYPE svg PUBLIC "-//W3C//DTD SVG 1.1//EN"
 "http://www.w3.org/Graphics/SVG/1.1/DTD/svg11.dtd">
<!-- Generated by graphviz version 14.1.2 (0)
 -->
<!-- Title: oh_my_codex_architecture Pages: 1 -->
<svg width="760pt" height="398pt"
 viewBox="0.00 0.00 760.00 398.00" xmlns="http://www.w3.org/2000/svg" xmlns:xlink="http://www.w3.org/1999/xlink">
<g id="graph0" class="graph" transform="scale(1 1) rotate(0) translate(4 394)">
<title>oh_my_codex_architecture</title>
<polygon fill="white" stroke="none" points="-4,4 -4,-394 756,-394 756,4 -4,4"/>
<!-- user_input -->
<g id="node1" class="node">
<title>user_input</title>
<polygon fill="#4caf50" stroke="black" points="438.5,-390 355.75,-390 355.75,-354 438.5,-354 438.5,-390"/>
<text xml:space="preserve" text-anchor="middle" x="397.12" y="-368.3" font-family="Arial" font-size="11.00" fill="white">User Request</text>
</g>
<!-- omx_layer -->
<g id="node2" class="node">
<title>omx_layer</title>
<path fill="#2196f3" stroke="black" d="M452.38,-289C452.38,-289 341.88,-289 341.88,-289 335.88,-289 329.88,-283 329.88,-277 329.88,-277 329.88,-264.5 329.88,-264.5 329.88,-258.5 335.88,-252.5 341.88,-252.5 341.88,-252.5 452.38,-252.5 452.38,-252.5 458.38,-252.5 464.38,-258.5 464.38,-264.5 464.38,-264.5 464.38,-277 464.38,-277 464.38,-283 458.38,-289 452.38,-289"/>
<text xml:space="preserve" text-anchor="middle" x="397.12" y="-273.6" font-family="Arial Bold" font-size="12.00" fill="white">OMX Workflow Layer</text>
<text xml:space="preserve" text-anchor="middle" x="397.12" y="-259.35" font-family="Arial Bold" font-size="12.00" fill="white">Coordination Engine</text>
</g>
<!-- user_input&#45;&gt;omx_layer -->
<g id="edge1" class="edge">
<title>user_input&#45;&gt;omx_layer</title>
<path fill="none" stroke="#4caf50" stroke-width="2" d="M397.12,-353.9C397.12,-353.9 397.12,-302.41 397.12,-302.41"/>
<polygon fill="#4caf50" stroke="#4caf50" stroke-width="2" points="400.63,-302.41 397.13,-292.41 393.63,-302.41 400.63,-302.41"/>
</g>
<!-- codex_cli -->
<g id="node3" class="node">
<title>codex_cli</title>
<path fill="#2196f3" stroke="black" d="M155.75,-174.75C155.75,-174.75 62.5,-174.75 62.5,-174.75 56.5,-174.75 50.5,-168.75 50.5,-162.75 50.5,-162.75 50.5,-150.25 50.5,-150.25 50.5,-144.25 56.5,-138.25 62.5,-138.25 62.5,-138.25 155.75,-138.25 155.75,-138.25 161.75,-138.25 167.75,-144.25 167.75,-150.25 167.75,-150.25 167.75,-162.75 167.75,-162.75 167.75,-168.75 161.75,-174.75 155.75,-174.75"/>
<text xml:space="preserve" text-anchor="middle" x="109.12" y="-159.35" font-family="Arial Bold" font-size="12.00" fill="white">Codex CLI</text>
<text xml:space="preserve" text-anchor="middle" x="109.12" y="-145.1" font-family="Arial Bold" font-size="12.00" fill="white">Execution Engine</text>
</g>
<!-- omx_layer&#45;&gt;codex_cli -->
<g id="edge2" class="edge">
<title>omx_layer&#45;&gt;codex_cli</title>
<path fill="none" stroke="#2196f3" stroke-width="2" d="M329.6,-271C244.48,-271 109.12,-271 109.12,-271 109.12,-271 109.12,-188.18 109.12,-188.18"/>
<polygon fill="#2196f3" stroke="#2196f3" stroke-width="2" points="112.63,-188.18 109.13,-178.18 105.63,-188.18 112.63,-188.18"/>
</g>
<!-- skills -->
<g id="node4" class="node">
<title>skills</title>
<path fill="#ff9800" stroke="black" d="M291.38,-187.5C291.38,-187.5 222.88,-187.5 222.88,-187.5 216.88,-187.5 210.88,-181.5 210.88,-175.5 210.88,-175.5 210.88,-137.5 210.88,-137.5 210.88,-131.5 216.88,-125.5 222.88,-125.5 222.88,-125.5 291.38,-125.5 291.38,-125.5 297.38,-125.5 303.38,-131.5 303.38,-137.5 303.38,-137.5 303.38,-175.5 303.38,-175.5 303.38,-181.5 297.38,-187.5 291.38,-187.5"/>
<text xml:space="preserve" text-anchor="middle" x="257.12" y="-173.05" font-family="Arial" font-size="11.00" fill="white">Skills System</text>
<text xml:space="preserve" text-anchor="middle" x="257.12" y="-159.55" font-family="Arial" font-size="11.00" fill="white">$deep&#45;interview</text>
<text xml:space="preserve" text-anchor="middle" x="257.12" y="-146.05" font-family="Arial" font-size="11.00" fill="white">$ralplan</text>
<text xml:space="preserve" text-anchor="middle" x="257.12" y="-132.55" font-family="Arial" font-size="11.00" fill="white">$team / $ralph</text>
</g>
<!-- omx_layer&#45;&gt;skills -->
<g id="edge3" class="edge">
<title>omx_layer&#45;&gt;skills</title>
<path fill="none" stroke="#ff9800" stroke-width="1.5" d="M338.12,-252.22C338.12,-219.99 338.12,-157 338.12,-157 338.12,-157 316.04,-157 316.04,-157"/>
<polygon fill="#ff9800" stroke="#ff9800" stroke-width="1.5" points="316.04,-153.5 306.04,-157 316.04,-160.5 316.04,-153.5"/>
</g>
<!-- hooks -->
<g id="node5" class="node">
<title>hooks</title>
<path fill="#ff9800" stroke="black" d="M435.88,-180.75C435.88,-180.75 358.38,-180.75 358.38,-180.75 352.38,-180.75 346.38,-174.75 346.38,-168.75 346.38,-168.75 346.38,-144.25 346.38,-144.25 346.38,-138.25 352.38,-132.25 358.38,-132.25 358.38,-132.25 435.88,-132.25 435.88,-132.25 441.88,-132.25 447.88,-138.25 447.88,-144.25 447.88,-144.25 447.88,-168.75 447.88,-168.75 447.88,-174.75 441.88,-180.75 435.88,-180.75"/>
<text xml:space="preserve" text-anchor="middle" x="397.12" y="-166.3" font-family="Arial" font-size="11.00" fill="white">Hooks System</text>
<text xml:space="preserve" text-anchor="middle" x="397.12" y="-152.8" font-family="Arial" font-size="11.00" fill="white">Lifecycle Events</text>
<text xml:space="preserve" text-anchor="middle" x="397.12" y="-139.3" font-family="Arial" font-size="11.00" fill="white">Plugin Extensions</text>
</g>
<!-- omx_layer&#45;&gt;hooks -->
<g id="edge4" class="edge">
<title>omx_layer&#45;&gt;hooks</title>
<path fill="none" stroke="#ff9800" stroke-width="1.5" d="M397.12,-252.14C397.12,-252.14 397.12,-193.36 397.12,-193.36"/>
<polygon fill="#ff9800" stroke="#ff9800" stroke-width="1.5" points="400.63,-193.36 397.13,-183.36 393.63,-193.36 400.63,-193.36"/>
</g>
<!-- agent_teams -->
<g id="node6" class="node">
<title>agent_teams</title>
<path fill="#ff9800" stroke="black" d="M581.25,-180.75C581.25,-180.75 503,-180.75 503,-180.75 497,-180.75 491,-174.75 491,-168.75 491,-168.75 491,-144.25 491,-144.25 491,-138.25 497,-132.25 503,-132.25 503,-132.25 581.25,-132.25 581.25,-132.25 587.25,-132.25 593.25,-138.25 593.25,-144.25 593.25,-144.25 593.25,-168.75 593.25,-168.75 593.25,-174.75 587.25,-180.75 581.25,-180.75"/>
<text xml:space="preserve" text-anchor="middle" x="542.12" y="-166.3" font-family="Arial" font-size="11.00" fill="white">Agent Teams</text>
<text xml:space="preserve" text-anchor="middle" x="542.12" y="-152.8" font-family="Arial" font-size="11.00" fill="white">Leader / Worker</text>
<text xml:space="preserve" text-anchor="middle" x="542.12" y="-139.3" font-family="Arial" font-size="11.00" fill="white">Parallel Execution</text>
</g>
<!-- omx_layer&#45;&gt;agent_teams -->
<g id="edge5" class="edge">
<title>omx_layer&#45;&gt;agent_teams</title>
<path fill="none" stroke="#ff9800" stroke-width="1.5" d="M456.12,-252.22C456.12,-219.99 456.12,-157 456.12,-157 456.12,-157 478.34,-157 478.34,-157"/>
<polygon fill="#ff9800" stroke="#ff9800" stroke-width="1.5" points="478.34,-160.5 488.34,-157 478.34,-153.5 478.34,-160.5"/>
</g>
<!-- hud -->
<g id="node7" class="node">
<title>hud</title>
<path fill="#ff9800" stroke="black" d="M740,-180.75C740,-180.75 648.25,-180.75 648.25,-180.75 642.25,-180.75 636.25,-174.75 636.25,-168.75 636.25,-168.75 636.25,-144.25 636.25,-144.25 636.25,-138.25 642.25,-132.25 648.25,-132.25 648.25,-132.25 740,-132.25 740,-132.25 746,-132.25 752,-138.25 752,-144.25 752,-144.25 752,-168.75 752,-168.75 752,-174.75 746,-180.75 740,-180.75"/>
<text xml:space="preserve" text-anchor="middle" x="694.12" y="-166.3" font-family="Arial" font-size="11.00" fill="white">HUD Display</text>
<text xml:space="preserve" text-anchor="middle" x="694.12" y="-152.8" font-family="Arial" font-size="11.00" fill="white">Real&#45;time Monitoring</text>
<text xml:space="preserve" text-anchor="middle" x="694.12" y="-139.3" font-family="Arial" font-size="11.00" fill="white">Status Dashboard</text>
</g>
<!-- omx_layer&#45;&gt;hud -->
<g id="edge6" class="edge">
<title>omx_layer&#45;&gt;hud</title>
<path fill="none" stroke="#ff9800" stroke-width="1.5" d="M464.52,-271C552.15,-271 694.12,-271 694.12,-271 694.12,-271 694.12,-193.33 694.12,-193.33"/>
<polygon fill="#ff9800" stroke="#ff9800" stroke-width="1.5" points="697.63,-193.33 694.13,-183.33 690.63,-193.33 697.63,-193.33"/>
</g>
<!-- state_storage -->
<g id="node8" class="node">
<title>state_storage</title>
<path fill="#9c27b0" stroke="black" d="M84.25,-55C84.25,-58.03 65.37,-60.5 42.12,-60.5 18.88,-60.5 0,-58.03 0,-55 0,-55 0,-5.5 0,-5.5 0,-2.47 18.88,0 42.12,0 65.37,0 84.25,-2.47 84.25,-5.5 84.25,-5.5 84.25,-55 84.25,-55"/>
<path fill="none" stroke="black" d="M84.25,-55C84.25,-51.97 65.37,-49.5 42.12,-49.5 18.88,-49.5 0,-51.97 0,-55"/>
<text xml:space="preserve" text-anchor="middle" x="42.12" y="-38.75" font-family="Arial" font-size="10.00" fill="white">.omx/ State</text>
<text xml:space="preserve" text-anchor="middle" x="42.12" y="-26.75" font-family="Arial" font-size="10.00" fill="white">Plans / Logs</text>
<text xml:space="preserve" text-anchor="middle" x="42.12" y="-14.75" font-family="Arial" font-size="10.00" fill="white">Memory / Mode</text>
</g>
<!-- codex_cli&#45;&gt;state_storage -->
<g id="edge7" class="edge">
<title>codex_cli&#45;&gt;state_storage</title>
<path fill="none" stroke="#9c27b0" stroke-width="1.5" d="M67.38,-137.87C67.38,-137.87 67.38,-72.98 67.38,-72.98"/>
<polygon fill="#9c27b0" stroke="#9c27b0" stroke-width="1.5" points="70.88,-72.98 67.38,-62.98 63.88,-72.98 70.88,-72.98"/>
</g>
<!-- output -->
<g id="node9" class="node">
<title>output</title>
<polygon fill="#f44336" stroke="black" points="225.38,-48.25 126.88,-48.25 126.88,-12.25 225.38,-12.25 225.38,-48.25"/>
<text xml:space="preserve" text-anchor="middle" x="176.12" y="-33.3" font-family="Arial" font-size="11.00" fill="white">Completed Tasks</text>
<text xml:space="preserve" text-anchor="middle" x="176.12" y="-19.8" font-family="Arial" font-size="11.00" fill="white">Verified Results</text>
</g>
<!-- codex_cli&#45;&gt;output -->
<g id="edge8" class="edge">
<title>codex_cli&#45;&gt;output</title>
<path fill="none" stroke="#f44336" stroke-width="2" d="M147.31,-137.87C147.31,-137.87 147.31,-61.57 147.31,-61.57"/>
<polygon fill="#f44336" stroke="#f44336" stroke-width="2" points="150.81,-61.57 147.31,-51.57 143.81,-61.57 150.81,-61.57"/>
</g>
</g>
</svg>
