<?xml version="1.0" encoding="UTF-8" standalone="no"?>
<!DOCTYPE svg PUBLIC "-//W3C//DTD SVG 1.1//EN"
 "http://www.w3.org/Graphics/SVG/1.1/DTD/svg11.dtd">
<!-- Generated by graphviz version 14.1.2 (0)
 -->
<!-- Title: onyx_architecture Pages: 1 -->
<svg width="667pt" height="347pt"
 viewBox="0.00 0.00 667.00 347.00" xmlns="http://www.w3.org/2000/svg" xmlns:xlink="http://www.w3.org/1999/xlink">
<g id="graph0" class="graph" transform="scale(1 1) rotate(0) translate(4 343)">
<title>onyx_architecture</title>
<polygon fill="white" stroke="none" points="-4,4 -4,-343 662.5,-343 662.5,4 -4,4"/>
<!-- ui -->
<g id="node1" class="node">
<title>ui</title>
<polygon fill="#4caf50" stroke="black" points="402.62,-339 272.62,-339 272.62,-303 402.62,-303 402.62,-339"/>
<text xml:space="preserve" text-anchor="middle" x="337.62" y="-324.05" font-family="Arial" font-size="11.00" fill="white">User Interface</text>
<text xml:space="preserve" text-anchor="middle" x="337.62" y="-310.55" font-family="Arial" font-size="11.00" fill="white">Web / Desktop / Widget</text>
</g>
<!-- api -->
<g id="node2" class="node">
<title>api</title>
<path fill="#2196f3" stroke="black" d="M383.12,-245C383.12,-245 292.12,-245 292.12,-245 286.12,-245 280.12,-239 280.12,-233 280.12,-233 280.12,-220.5 280.12,-220.5 280.12,-214.5 286.12,-208.5 292.12,-208.5 292.12,-208.5 383.12,-208.5 383.12,-208.5 389.12,-208.5 395.12,-214.5 395.12,-220.5 395.12,-220.5 395.12,-233 395.12,-233 395.12,-239 389.12,-245 383.12,-245"/>
<text xml:space="preserve" text-anchor="middle" x="337.62" y="-229.6" font-family="Arial Bold" font-size="12.00" fill="white">API Gateway</text>
<text xml:space="preserve" text-anchor="middle" x="337.62" y="-215.35" font-family="Arial Bold" font-size="12.00" fill="white">FastAPI Backend</text>
</g>
<!-- ui&#45;&gt;api -->
<g id="edge1" class="edge">
<title>ui&#45;&gt;api</title>
<path fill="none" stroke="#4caf50" stroke-width="2" d="M337.62,-302.83C337.62,-302.83 337.62,-258.22 337.62,-258.22"/>
<polygon fill="#4caf50" stroke="#4caf50" stroke-width="2" points="341.13,-258.22 337.63,-248.22 334.13,-258.22 341.13,-258.22"/>
</g>
<!-- chat -->
<g id="node3" class="node">
<title>chat</title>
<path fill="#2196f3" stroke="black" d="M99.25,-146.75C99.25,-146.75 12,-146.75 12,-146.75 6,-146.75 0,-140.75 0,-134.75 0,-134.75 0,-122.25 0,-122.25 0,-116.25 6,-110.25 12,-110.25 12,-110.25 99.25,-110.25 99.25,-110.25 105.25,-110.25 111.25,-116.25 111.25,-122.25 111.25,-122.25 111.25,-134.75 111.25,-134.75 111.25,-140.75 105.25,-146.75 99.25,-146.75"/>
<text xml:space="preserve" text-anchor="middle" x="55.62" y="-131.35" font-family="Arial Bold" font-size="12.00" fill="white">Chat Service</text>
<text xml:space="preserve" text-anchor="middle" x="55.62" y="-117.1" font-family="Arial Bold" font-size="12.00" fill="white">LLM Interactions</text>
</g>
<!-- api&#45;&gt;chat -->
<g id="edge2" class="edge">
<title>api&#45;&gt;chat</title>
<path fill="none" stroke="#2196f3" stroke-width="2" d="M279.88,-227C197.37,-227 55.62,-227 55.62,-227 55.62,-227 55.62,-160.05 55.62,-160.05"/>
<polygon fill="#2196f3" stroke="#2196f3" stroke-width="2" points="59.13,-160.05 55.63,-150.05 52.13,-160.05 59.13,-160.05"/>
</g>
<!-- rag -->
<g id="node4" class="node">
<title>rag</title>
<path fill="#2196f3" stroke="black" d="M374.5,-146.75C374.5,-146.75 300.75,-146.75 300.75,-146.75 294.75,-146.75 288.75,-140.75 288.75,-134.75 288.75,-134.75 288.75,-122.25 288.75,-122.25 288.75,-116.25 294.75,-110.25 300.75,-110.25 300.75,-110.25 374.5,-110.25 374.5,-110.25 380.5,-110.25 386.5,-116.25 386.5,-122.25 386.5,-122.25 386.5,-134.75 386.5,-134.75 386.5,-140.75 380.5,-146.75 374.5,-146.75"/>
<text xml:space="preserve" text-anchor="middle" x="337.62" y="-131.35" font-family="Arial Bold" font-size="12.00" fill="white">RAG Engine</text>
<text xml:space="preserve" text-anchor="middle" x="337.62" y="-117.1" font-family="Arial Bold" font-size="12.00" fill="white">Hybrid Search</text>
</g>
<!-- api&#45;&gt;rag -->
<g id="edge3" class="edge">
<title>api&#45;&gt;rag</title>
<path fill="none" stroke="#2196f3" stroke-width="2" d="M337.62,-208.27C337.62,-208.27 337.62,-160.26 337.62,-160.26"/>
<polygon fill="#2196f3" stroke="#2196f3" stroke-width="2" points="341.13,-160.26 337.63,-150.26 334.13,-160.26 341.13,-160.26"/>
</g>
<!-- agent -->
<g id="node5" class="node">
<title>agent</title>
<path fill="#2196f3" stroke="black" d="M240.25,-146.75C240.25,-146.75 159,-146.75 159,-146.75 153,-146.75 147,-140.75 147,-134.75 147,-134.75 147,-122.25 147,-122.25 147,-116.25 153,-110.25 159,-110.25 159,-110.25 240.25,-110.25 240.25,-110.25 246.25,-110.25 252.25,-116.25 252.25,-122.25 252.25,-122.25 252.25,-134.75 252.25,-134.75 252.25,-140.75 246.25,-146.75 240.25,-146.75"/>
<text xml:space="preserve" text-anchor="middle" x="199.62" y="-131.35" font-family="Arial Bold" font-size="12.00" fill="white">Agent System</text>
<text xml:space="preserve" text-anchor="middle" x="199.62" y="-117.1" font-family="Arial Bold" font-size="12.00" fill="white">Custom Agents</text>
</g>
<!-- api&#45;&gt;agent -->
<g id="edge4" class="edge">
<title>api&#45;&gt;agent</title>
<path fill="none" stroke="#2196f3" stroke-width="2" d="M284.44,-208.36C284.44,-180.05 284.44,-129 284.44,-129 284.44,-129 265.4,-129 265.4,-129"/>
<polygon fill="#2196f3" stroke="#2196f3" stroke-width="2" points="265.4,-125.5 255.4,-129 265.4,-132.5 265.4,-125.5"/>
</g>
<!-- postgres -->
<g id="node7" class="node">
<title>postgres</title>
<path fill="#9c27b0" stroke="black" d="M536.75,-146.5C536.75,-148.71 511.15,-150.5 479.62,-150.5 448.1,-150.5 422.5,-148.71 422.5,-146.5 422.5,-146.5 422.5,-110.5 422.5,-110.5 422.5,-108.29 448.1,-106.5 479.62,-106.5 511.15,-106.5 536.75,-108.29 536.75,-110.5 536.75,-110.5 536.75,-146.5 536.75,-146.5"/>
<path fill="none" stroke="black" d="M536.75,-146.5C536.75,-144.29 511.15,-142.5 479.62,-142.5 448.1,-142.5 422.5,-144.29 422.5,-146.5"/>
<text xml:space="preserve" text-anchor="middle" x="479.62" y="-131" font-family="Arial" font-size="10.00" fill="white">PostgreSQL</text>
<text xml:space="preserve" text-anchor="middle" x="479.62" y="-119" font-family="Arial" font-size="10.00" fill="white">User Data &amp; Metadata</text>
</g>
<!-- api&#45;&gt;postgres -->
<g id="edge9" class="edge">
<title>api&#45;&gt;postgres</title>
<path fill="none" stroke="#9c27b0" stroke-width="1.5" d="M395.38,-221C434.7,-221 479.62,-221 479.62,-221 479.62,-221 479.62,-163.16 479.62,-163.16"/>
<polygon fill="#9c27b0" stroke="#9c27b0" stroke-width="1.5" points="483.13,-163.16 479.63,-153.16 476.13,-163.16 483.13,-163.16"/>
</g>
<!-- redis -->
<g id="node9" class="node">
<title>redis</title>
<path fill="#9c27b0" stroke="black" d="M658.5,-146.5C658.5,-148.71 639.28,-150.5 615.62,-150.5 591.97,-150.5 572.75,-148.71 572.75,-146.5 572.75,-146.5 572.75,-110.5 572.75,-110.5 572.75,-108.29 591.97,-106.5 615.62,-106.5 639.28,-106.5 658.5,-108.29 658.5,-110.5 658.5,-110.5 658.5,-146.5 658.5,-146.5"/>
<path fill="none" stroke="black" d="M658.5,-146.5C658.5,-144.29 639.28,-142.5 615.62,-142.5 591.97,-142.5 572.75,-144.29 572.75,-146.5"/>
<text xml:space="preserve" text-anchor="middle" x="615.62" y="-131" font-family="Arial" font-size="10.00" fill="white">Redis</text>
<text xml:space="preserve" text-anchor="middle" x="615.62" y="-119" font-family="Arial" font-size="10.00" fill="white">Cache &amp; Queue</text>
</g>
<!-- api&#45;&gt;redis -->
<g id="edge10" class="edge">
<title>api&#45;&gt;redis</title>
<path fill="none" stroke="#9c27b0" stroke-width="1.5" d="M395.56,-233C477.04,-233 615.62,-233 615.62,-233 615.62,-233 615.62,-163.19 615.62,-163.19"/>
<polygon fill="#9c27b0" stroke="#9c27b0" stroke-width="1.5" points="619.13,-163.19 615.63,-153.19 612.13,-163.19 619.13,-163.19"/>
</g>
<!-- llm -->
<g id="node6" class="node">
<title>llm</title>
<path fill="#ff9800" stroke="black" d="M254.38,-48.5C254.38,-48.5 128.88,-48.5 128.88,-48.5 122.88,-48.5 116.88,-42.5 116.88,-36.5 116.88,-36.5 116.88,-12 116.88,-12 116.88,-6 122.88,0 128.88,0 128.88,0 254.38,0 254.38,0 260.38,0 266.38,-6 266.38,-12 266.38,-12 266.38,-36.5 266.38,-36.5 266.38,-42.5 260.38,-48.5 254.38,-48.5"/>
<text xml:space="preserve" text-anchor="middle" x="191.62" y="-34.05" font-family="Arial" font-size="11.00" fill="white">LLM Providers</text>
<text xml:space="preserve" text-anchor="middle" x="191.62" y="-20.55" font-family="Arial" font-size="11.00" fill="white">OpenAI / Anthropic / Gemini</text>
<text xml:space="preserve" text-anchor="middle" x="191.62" y="-7.05" font-family="Arial" font-size="11.00" fill="white">Ollama / vLLM / LiteLLM</text>
</g>
<!-- chat&#45;&gt;llm -->
<g id="edge5" class="edge">
<title>chat&#45;&gt;llm</title>
<path fill="none" stroke="#ff9800" stroke-width="2" d="M111.49,-129C123.12,-129 131.94,-129 131.94,-129 131.94,-129 131.94,-61.84 131.94,-61.84"/>
<polygon fill="#ff9800" stroke="#ff9800" stroke-width="2" points="135.44,-61.84 131.94,-51.84 128.44,-61.84 135.44,-61.84"/>
</g>
<!-- response -->
<g id="node10" class="node">
<title>response</title>
<polygon fill="#f44336" stroke="black" points="80.88,-42.25 0.38,-42.25 0.38,-6.25 80.88,-6.25 80.88,-42.25"/>
<text xml:space="preserve" text-anchor="middle" x="40.62" y="-27.3" font-family="Arial" font-size="11.00" fill="white">AI Response</text>
<text xml:space="preserve" text-anchor="middle" x="40.62" y="-13.8" font-family="Arial" font-size="11.00" fill="white">with Citations</text>
</g>
<!-- chat&#45;&gt;response -->
<g id="edge8" class="edge">
<title>chat&#45;&gt;response</title>
<path fill="none" stroke="#f44336" stroke-width="2" d="M40.62,-109.86C40.62,-109.86 40.62,-55.75 40.62,-55.75"/>
<polygon fill="#f44336" stroke="#f44336" stroke-width="2" points="44.13,-55.75 40.63,-45.75 37.13,-55.75 44.13,-55.75"/>
</g>
<!-- vespa -->
<g id="node8" class="node">
<title>vespa</title>
<path fill="#9c27b0" stroke="black" d="M391,-42.25C391,-44.46 371.11,-46.25 346.62,-46.25 322.14,-46.25 302.25,-44.46 302.25,-42.25 302.25,-42.25 302.25,-6.25 302.25,-6.25 302.25,-4.04 322.14,-2.25 346.62,-2.25 371.11,-2.25 391,-4.04 391,-6.25 391,-6.25 391,-42.25 391,-42.25"/>
<path fill="none" stroke="black" d="M391,-42.25C391,-40.04 371.11,-38.25 346.62,-38.25 322.14,-38.25 302.25,-40.04 302.25,-42.25"/>
<text xml:space="preserve" text-anchor="middle" x="346.62" y="-26.75" font-family="Arial" font-size="10.00" fill="white">Vespa</text>
<text xml:space="preserve" text-anchor="middle" x="346.62" y="-14.75" font-family="Arial" font-size="10.00" fill="white">Vector Database</text>
</g>
<!-- rag&#45;&gt;vespa -->
<g id="edge6" class="edge">
<title>rag&#45;&gt;vespa</title>
<path fill="none" stroke="#9c27b0" stroke-width="2" d="M344.38,-109.86C344.38,-109.86 344.38,-59.74 344.38,-59.74"/>
<polygon fill="#9c27b0" stroke="#9c27b0" stroke-width="2" points="347.88,-59.74 344.38,-49.74 340.88,-59.74 347.88,-59.74"/>
</g>
<!-- agent&#45;&gt;llm -->
<g id="edge7" class="edge">
<title>agent&#45;&gt;llm</title>
<path fill="none" stroke="#ff9800" stroke-width="2" d="M199.62,-109.86C199.62,-109.86 199.62,-62.03 199.62,-62.03"/>
<polygon fill="#ff9800" stroke="#ff9800" stroke-width="2" points="203.13,-62.03 199.63,-52.03 196.13,-62.03 203.13,-62.03"/>
</g>
</g>
</svg>
