<?xml version="1.0" encoding="UTF-8" standalone="no"?>
<!DOCTYPE svg PUBLIC "-//W3C//DTD SVG 1.1//EN"
 "http://www.w3.org/Graphics/SVG/1.1/DTD/svg11.dtd">
<!-- Generated by graphviz version 14.1.2 (0)
 -->
<!-- Title: onyx_rag Pages: 1 -->
<svg width="237pt" height="631pt"
 viewBox="0.00 0.00 237.00 631.00" xmlns="http://www.w3.org/2000/svg" xmlns:xlink="http://www.w3.org/1999/xlink">
<g id="graph0" class="graph" transform="scale(1 1) rotate(0) translate(4 626.5)">
<title>onyx_rag</title>
<polygon fill="white" stroke="none" points="-4,4 -4,-626.5 233.12,-626.5 233.12,4 -4,4"/>
<!-- query -->
<g id="node1" class="node">
<title>query</title>
<polygon fill="#4caf50" stroke="black" points="71.5,-512 0,-512 0,-476 71.5,-476 71.5,-512"/>
<text xml:space="preserve" text-anchor="middle" x="35.75" y="-490.3" font-family="Arial" font-size="11.00" fill="white">User Query</text>
</g>
<!-- retrieval -->
<g id="node2" class="node">
<title>retrieval</title>
<path fill="#2196f3" stroke="black" d="M147,-414C147,-414 42.5,-414 42.5,-414 36.5,-414 30.5,-408 30.5,-402 30.5,-402 30.5,-389.5 30.5,-389.5 30.5,-383.5 36.5,-377.5 42.5,-377.5 42.5,-377.5 147,-377.5 147,-377.5 153,-377.5 159,-383.5 159,-389.5 159,-389.5 159,-402 159,-402 159,-408 153,-414 147,-414"/>
<text xml:space="preserve" text-anchor="middle" x="94.75" y="-398.6" font-family="Arial Bold" font-size="12.00" fill="white">Document Retrieval</text>
<text xml:space="preserve" text-anchor="middle" x="94.75" y="-384.35" font-family="Arial Bold" font-size="12.00" fill="white">Hybrid Search</text>
</g>
<!-- query&#45;&gt;retrieval -->
<g id="edge1" class="edge">
<title>query&#45;&gt;retrieval</title>
<path fill="none" stroke="#4caf50" stroke-width="2" d="M51,-475.52C51,-475.52 51,-427.51 51,-427.51"/>
<polygon fill="#4caf50" stroke="#4caf50" stroke-width="2" points="54.5,-427.51 51,-417.51 47.5,-427.51 54.5,-427.51"/>
</g>
<!-- ranking -->
<g id="node3" class="node">
<title>ranking</title>
<path fill="#2196f3" stroke="black" d="M144.75,-319.5C144.75,-319.5 44.75,-319.5 44.75,-319.5 38.75,-319.5 32.75,-313.5 32.75,-307.5 32.75,-307.5 32.75,-295 32.75,-295 32.75,-289 38.75,-283 44.75,-283 44.75,-283 144.75,-283 144.75,-283 150.75,-283 156.75,-289 156.75,-295 156.75,-295 156.75,-307.5 156.75,-307.5 156.75,-313.5 150.75,-319.5 144.75,-319.5"/>
<text xml:space="preserve" text-anchor="middle" x="94.75" y="-304.1" font-family="Arial Bold" font-size="12.00" fill="white">Result Ranking</text>
<text xml:space="preserve" text-anchor="middle" x="94.75" y="-289.85" font-family="Arial Bold" font-size="12.00" fill="white">Relevance Scoring</text>
</g>
<!-- retrieval&#45;&gt;ranking -->
<g id="edge4" class="edge">
<title>retrieval&#45;&gt;ranking</title>
<path fill="none" stroke="#2196f3" stroke-width="2" d="M94.75,-377.08C94.75,-377.08 94.75,-332.91 94.75,-332.91"/>
<polygon fill="#2196f3" stroke="#2196f3" stroke-width="2" points="98.25,-332.91 94.75,-322.91 91.25,-332.91 98.25,-332.91"/>
</g>
<!-- context -->
<g id="node4" class="node">
<title>context</title>
<path fill="#2196f3" stroke="black" d="M139.88,-225C139.88,-225 49.62,-225 49.62,-225 43.62,-225 37.62,-219 37.62,-213 37.62,-213 37.62,-200.5 37.62,-200.5 37.62,-194.5 43.62,-188.5 49.62,-188.5 49.62,-188.5 139.88,-188.5 139.88,-188.5 145.88,-188.5 151.88,-194.5 151.88,-200.5 151.88,-200.5 151.88,-213 151.88,-213 151.88,-219 145.88,-225 139.88,-225"/>
<text xml:space="preserve" text-anchor="middle" x="94.75" y="-209.6" font-family="Arial Bold" font-size="12.00" fill="white">Context Building</text>
<text xml:space="preserve" text-anchor="middle" x="94.75" y="-195.35" font-family="Arial Bold" font-size="12.00" fill="white">Chunk Assembly</text>
</g>
<!-- ranking&#45;&gt;context -->
<g id="edge5" class="edge">
<title>ranking&#45;&gt;context</title>
<path fill="none" stroke="#2196f3" stroke-width="2" d="M94.75,-282.58C94.75,-282.58 94.75,-238.41 94.75,-238.41"/>
<polygon fill="#2196f3" stroke="#2196f3" stroke-width="2" points="98.25,-238.41 94.75,-228.41 91.25,-238.41 98.25,-238.41"/>
</g>
<!-- generation -->
<g id="node5" class="node">
<title>generation</title>
<path fill="#2196f3" stroke="black" d="M145.5,-130.5C145.5,-130.5 44,-130.5 44,-130.5 38,-130.5 32,-124.5 32,-118.5 32,-118.5 32,-106 32,-106 32,-100 38,-94 44,-94 44,-94 145.5,-94 145.5,-94 151.5,-94 157.5,-100 157.5,-106 157.5,-106 157.5,-118.5 157.5,-118.5 157.5,-124.5 151.5,-130.5 145.5,-130.5"/>
<text xml:space="preserve" text-anchor="middle" x="94.75" y="-115.1" font-family="Arial Bold" font-size="12.00" fill="white">Answer Generation</text>
<text xml:space="preserve" text-anchor="middle" x="94.75" y="-100.85" font-family="Arial Bold" font-size="12.00" fill="white">LLM Processing</text>
</g>
<!-- context&#45;&gt;generation -->
<g id="edge6" class="edge">
<title>context&#45;&gt;generation</title>
<path fill="none" stroke="#2196f3" stroke-width="2" d="M94.75,-188.08C94.75,-188.08 94.75,-143.91 94.75,-143.91"/>
<polygon fill="#2196f3" stroke="#2196f3" stroke-width="2" points="98.25,-143.91 94.75,-133.91 91.25,-143.91 98.25,-143.91"/>
</g>
<!-- answer -->
<g id="node8" class="node">
<title>answer</title>
<polygon fill="#f44336" stroke="black" points="132.38,-36 57.12,-36 57.12,0 132.38,0 132.38,-36"/>
<text xml:space="preserve" text-anchor="middle" x="94.75" y="-21.05" font-family="Arial" font-size="11.00" fill="white">Answer with</text>
<text xml:space="preserve" text-anchor="middle" x="94.75" y="-7.55" font-family="Arial" font-size="11.00" fill="white">Citations</text>
</g>
<!-- generation&#45;&gt;answer -->
<g id="edge7" class="edge">
<title>generation&#45;&gt;answer</title>
<path fill="none" stroke="#f44336" stroke-width="2" d="M94.75,-93.63C94.75,-93.63 94.75,-49.29 94.75,-49.29"/>
<polygon fill="#f44336" stroke="#f44336" stroke-width="2" points="98.25,-49.29 94.75,-39.29 91.25,-49.29 98.25,-49.29"/>
</g>
<!-- connectors -->
<g id="node6" class="node">
<title>connectors</title>
<path fill="#ff9800" stroke="black" d="M217.12,-622.5C217.12,-622.5 92.38,-622.5 92.38,-622.5 86.38,-622.5 80.38,-616.5 80.38,-610.5 80.38,-610.5 80.38,-586 80.38,-586 80.38,-580 86.38,-574 92.38,-574 92.38,-574 217.12,-574 217.12,-574 223.12,-574 229.12,-580 229.12,-586 229.12,-586 229.12,-610.5 229.12,-610.5 229.12,-616.5 223.12,-622.5 217.12,-622.5"/>
<text xml:space="preserve" text-anchor="middle" x="154.75" y="-608.05" font-family="Arial" font-size="11.00" fill="white">50+ Connectors</text>
<text xml:space="preserve" text-anchor="middle" x="154.75" y="-594.55" font-family="Arial" font-size="11.00" fill="white">Slack / Confluence / GitHub</text>
<text xml:space="preserve" text-anchor="middle" x="154.75" y="-581.05" font-family="Arial" font-size="11.00" fill="white">Google Drive / Jira</text>
</g>
<!-- vector_db -->
<g id="node7" class="node">
<title>vector_db</title>
<path fill="#9c27b0" stroke="black" d="M201.75,-512C201.75,-514.21 180.68,-516 154.75,-516 128.82,-516 107.75,-514.21 107.75,-512 107.75,-512 107.75,-476 107.75,-476 107.75,-473.79 128.82,-472 154.75,-472 180.68,-472 201.75,-473.79 201.75,-476 201.75,-476 201.75,-512 201.75,-512"/>
<path fill="none" stroke="black" d="M201.75,-512C201.75,-509.79 180.68,-508 154.75,-508 128.82,-508 107.75,-509.79 107.75,-512"/>
<text xml:space="preserve" text-anchor="middle" x="154.75" y="-496.5" font-family="Arial" font-size="10.00" fill="white">Vespa Index</text>
<text xml:space="preserve" text-anchor="middle" x="154.75" y="-484.5" font-family="Arial" font-size="10.00" fill="white">Vector + Keyword</text>
</g>
<!-- connectors&#45;&gt;vector_db -->
<g id="edge2" class="edge">
<title>connectors&#45;&gt;vector_db</title>
<path fill="none" stroke="#ff9800" stroke-width="2" d="M154.75,-573.54C154.75,-573.54 154.75,-529.42 154.75,-529.42"/>
<polygon fill="#ff9800" stroke="#ff9800" stroke-width="2" points="158.25,-529.42 154.75,-519.42 151.25,-529.42 158.25,-529.42"/>
</g>
<!-- vector_db&#45;&gt;retrieval -->
<g id="edge3" class="edge">
<title>vector_db&#45;&gt;retrieval</title>
<path fill="none" stroke="#9c27b0" stroke-width="2" d="M133.38,-471.71C133.38,-471.71 133.38,-427.36 133.38,-427.36"/>
<polygon fill="#9c27b0" stroke="#9c27b0" stroke-width="2" points="136.88,-427.36 133.38,-417.36 129.88,-427.36 136.88,-427.36"/>
</g>
</g>
</svg>
