<?xml version="1.0" encoding="UTF-8" standalone="no"?>
<!DOCTYPE svg PUBLIC "-//W3C//DTD SVG 1.1//EN"
 "http://www.w3.org/Graphics/SVG/1.1/DTD/svg11.dtd">
<!-- Generated by graphviz version 14.1.2 (0)
 -->
<!-- Title: key_features Pages: 1 -->
<svg width="771pt" height="203pt"
 viewBox="0.00 0.00 771.00 203.00" xmlns="http://www.w3.org/2000/svg" xmlns:xlink="http://www.w3.org/1999/xlink">
<g id="graph0" class="graph" transform="scale(1 1) rotate(0) translate(4 198.5)">
<title>key_features</title>
<polygon fill="white" stroke="none" points="-4,4 -4,-198.5 767,-198.5 767,4 -4,4"/>
<!-- title -->
<g id="node1" class="node">
<title>title</title>
<path fill="#2196f3" stroke="black" d="M452.38,-194.5C452.38,-194.5 335.12,-194.5 335.12,-194.5 329.12,-194.5 323.12,-188.5 323.12,-182.5 323.12,-182.5 323.12,-170 323.12,-170 323.12,-164 329.12,-158 335.12,-158 335.12,-158 452.38,-158 452.38,-158 458.38,-158 464.38,-164 464.38,-170 464.38,-170 464.38,-182.5 464.38,-182.5 464.38,-188.5 458.38,-194.5 452.38,-194.5"/>
<text xml:space="preserve" text-anchor="middle" x="393.75" y="-179.1" font-family="Arial Bold" font-size="12.00" fill="white">OpenDataLoader PDF</text>
<text xml:space="preserve" text-anchor="middle" x="393.75" y="-164.85" font-family="Arial Bold" font-size="12.00" fill="white">Key Features</text>
</g>
<!-- extraction -->
<g id="node2" class="node">
<title>extraction</title>
<polygon fill="#4caf50" stroke="black" points="206.75,-115 94.75,-115 94.75,-79 206.75,-79 206.75,-115"/>
<text xml:space="preserve" text-anchor="middle" x="150.75" y="-99.5" font-family="Arial" font-size="10.00" fill="white">Data Extraction</text>
<text xml:space="preserve" text-anchor="middle" x="150.75" y="-87.5" font-family="Arial" font-size="10.00" fill="white">#1 Benchmark (0.907)</text>
</g>
<!-- title&#45;&gt;extraction -->
<g id="edge1" class="edge">
<title>title&#45;&gt;extraction</title>
<path fill="none" stroke="#2196f3" stroke-width="2" d="M322.81,-176C251.09,-176 150.75,-176 150.75,-176 150.75,-176 150.75,-128.35 150.75,-128.35"/>
<polygon fill="#2196f3" stroke="#2196f3" stroke-width="2" points="154.25,-128.35 150.75,-118.35 147.25,-128.35 154.25,-128.35"/>
</g>
<!-- accessibility -->
<g id="node3" class="node">
<title>accessibility</title>
<polygon fill="#4caf50" stroke="black" points="374.75,-115 280.75,-115 280.75,-79 374.75,-79 374.75,-115"/>
<text xml:space="preserve" text-anchor="middle" x="327.75" y="-99.5" font-family="Arial" font-size="10.00" fill="white">PDF Accessibility</text>
<text xml:space="preserve" text-anchor="middle" x="327.75" y="-87.5" font-family="Arial" font-size="10.00" fill="white">Auto&#45;Tagging</text>
</g>
<!-- title&#45;&gt;accessibility -->
<g id="edge2" class="edge">
<title>title&#45;&gt;accessibility</title>
<path fill="none" stroke="#2196f3" stroke-width="2" d="M348.94,-157.87C348.94,-157.87 348.94,-128.31 348.94,-128.31"/>
<polygon fill="#2196f3" stroke="#2196f3" stroke-width="2" points="352.44,-128.31 348.94,-118.31 345.44,-128.31 352.44,-128.31"/>
</g>
<!-- safety -->
<g id="node4" class="node">
<title>safety</title>
<polygon fill="#4caf50" stroke="black" points="515.75,-115 403.75,-115 403.75,-79 515.75,-79 515.75,-115"/>
<text xml:space="preserve" text-anchor="middle" x="459.75" y="-99.5" font-family="Arial" font-size="10.00" fill="white">AI Safety</text>
<text xml:space="preserve" text-anchor="middle" x="459.75" y="-87.5" font-family="Arial" font-size="10.00" fill="white">Prompt Injection Filter</text>
</g>
<!-- title&#45;&gt;safety -->
<g id="edge3" class="edge">
<title>title&#45;&gt;safety</title>
<path fill="none" stroke="#2196f3" stroke-width="2" d="M434.06,-157.87C434.06,-157.87 434.06,-128.31 434.06,-128.31"/>
<polygon fill="#2196f3" stroke="#2196f3" stroke-width="2" points="437.56,-128.31 434.06,-118.31 430.56,-128.31 437.56,-128.31"/>
</g>
<!-- performance -->
<g id="node5" class="node">
<title>performance</title>
<polygon fill="#4caf50" stroke="black" points="674,-115 593.5,-115 593.5,-79 674,-79 674,-115"/>
<text xml:space="preserve" text-anchor="middle" x="633.75" y="-99.5" font-family="Arial" font-size="10.00" fill="white">Performance</text>
<text xml:space="preserve" text-anchor="middle" x="633.75" y="-87.5" font-family="Arial" font-size="10.00" fill="white">60+ pages/sec</text>
</g>
<!-- title&#45;&gt;performance -->
<g id="edge4" class="edge">
<title>title&#45;&gt;performance</title>
<path fill="none" stroke="#2196f3" stroke-width="2" d="M464.78,-176C535.55,-176 633.75,-176 633.75,-176 633.75,-176 633.75,-128.35 633.75,-128.35"/>
<polygon fill="#2196f3" stroke="#2196f3" stroke-width="2" points="637.25,-128.35 633.75,-118.35 630.25,-128.35 637.25,-128.35"/>
</g>
<!-- ext_detail1 -->
<g id="node6" class="node">
<title>ext_detail1</title>
<path fill="#ff9800" stroke="black" d="M71.5,-36C71.5,-36 12,-36 12,-36 6,-36 0,-30 0,-24 0,-24 0,-12 0,-12 0,-6 6,0 12,0 12,0 71.5,0 71.5,0 77.5,0 83.5,-6 83.5,-12 83.5,-12 83.5,-24 83.5,-24 83.5,-30 77.5,-36 71.5,-36"/>
<text xml:space="preserve" text-anchor="middle" x="41.75" y="-19.95" font-family="Arial" font-size="9.00" fill="white">Bounding Boxes</text>
<text xml:space="preserve" text-anchor="middle" x="41.75" y="-9.45" font-family="Arial" font-size="9.00" fill="white">Every Element</text>
</g>
<!-- extraction&#45;&gt;ext_detail1 -->
<g id="edge5" class="edge">
<title>extraction&#45;&gt;ext_detail1</title>
<path fill="none" stroke="#4caf50" stroke-width="1.5" d="M103.56,-78.68C103.56,-55.34 103.56,-18 103.56,-18 103.56,-18 95.93,-18 95.93,-18"/>
<polygon fill="#4caf50" stroke="#4caf50" stroke-width="1.5" points="95.93,-14.5 85.93,-18 95.93,-21.5 95.93,-14.5"/>
</g>
<!-- ext_detail2 -->
<g id="node7" class="node">
<title>ext_detail2</title>
<path fill="#ff9800" stroke="black" d="M177.12,-36C177.12,-36 124.38,-36 124.38,-36 118.38,-36 112.38,-30 112.38,-24 112.38,-24 112.38,-12 112.38,-12 112.38,-6 118.38,0 124.38,0 124.38,0 177.12,0 177.12,0 183.12,0 189.12,-6 189.12,-12 189.12,-12 189.12,-24 189.12,-24 189.12,-30 183.12,-36 177.12,-36"/>
<text xml:space="preserve" text-anchor="middle" x="150.75" y="-19.95" font-family="Arial" font-size="9.00" fill="white">XY&#45;Cut++</text>
<text xml:space="preserve" text-anchor="middle" x="150.75" y="-9.45" font-family="Arial" font-size="9.00" fill="white">Reading Order</text>
</g>
<!-- extraction&#45;&gt;ext_detail2 -->
<g id="edge6" class="edge">
<title>extraction&#45;&gt;ext_detail2</title>
<path fill="none" stroke="#4caf50" stroke-width="1.5" d="M150.75,-78.68C150.75,-78.68 150.75,-48.77 150.75,-48.77"/>
<polygon fill="#4caf50" stroke="#4caf50" stroke-width="1.5" points="154.25,-48.77 150.75,-38.77 147.25,-48.77 154.25,-48.77"/>
</g>
<!-- acc_detail1 -->
<g id="node8" class="node">
<title>acc_detail1</title>
<path fill="#ff9800" stroke="black" d="M273.25,-36C273.25,-36 230.25,-36 230.25,-36 224.25,-36 218.25,-30 218.25,-24 218.25,-24 218.25,-12 218.25,-12 218.25,-6 224.25,0 230.25,0 230.25,0 273.25,0 273.25,0 279.25,0 285.25,-6 285.25,-12 285.25,-12 285.25,-24 285.25,-24 285.25,-30 279.25,-36 273.25,-36"/>
<text xml:space="preserve" text-anchor="middle" x="251.75" y="-19.95" font-family="Arial" font-size="9.00" fill="white">Tagged PDF</text>
<text xml:space="preserve" text-anchor="middle" x="251.75" y="-9.45" font-family="Arial" font-size="9.00" fill="white">Output</text>
</g>
<!-- accessibility&#45;&gt;acc_detail1 -->
<g id="edge7" class="edge">
<title>accessibility&#45;&gt;acc_detail1</title>
<path fill="none" stroke="#4caf50" stroke-width="1.5" d="M299.62,-78.68C299.62,-55.34 299.62,-18 299.62,-18 299.62,-18 297.79,-18 297.79,-18"/>
<polygon fill="#4caf50" stroke="#4caf50" stroke-width="1.5" points="297.79,-14.5 287.79,-18 297.79,-21.5 297.79,-14.5"/>
</g>
<!-- acc_detail2 -->
<g id="node9" class="node">
<title>acc_detail2</title>
<path fill="#ff9800" stroke="black" d="M367.5,-36C367.5,-36 326,-36 326,-36 320,-36 314,-30 314,-24 314,-24 314,-12 314,-12 314,-6 320,0 326,0 326,0 367.5,0 367.5,0 373.5,0 379.5,-6 379.5,-12 379.5,-12 379.5,-24 379.5,-24 379.5,-30 373.5,-36 367.5,-36"/>
<text xml:space="preserve" text-anchor="middle" x="346.75" y="-19.95" font-family="Arial" font-size="9.00" fill="white">PDF/UA</text>
<text xml:space="preserve" text-anchor="middle" x="346.75" y="-9.45" font-family="Arial" font-size="9.00" fill="white">Compliance</text>
</g>
<!-- accessibility&#45;&gt;acc_detail2 -->
<g id="edge8" class="edge">
<title>accessibility&#45;&gt;acc_detail2</title>
<path fill="none" stroke="#4caf50" stroke-width="1.5" d="M344.38,-78.68C344.38,-78.68 344.38,-48.77 344.38,-48.77"/>
<polygon fill="#4caf50" stroke="#4caf50" stroke-width="1.5" points="347.88,-48.77 344.38,-38.77 340.88,-48.77 347.88,-48.77"/>
</g>
<!-- safe_detail1 -->
<g id="node10" class="node">
<title>safe_detail1</title>
<path fill="#ff9800" stroke="black" d="M461.12,-36C461.12,-36 420.38,-36 420.38,-36 414.38,-36 408.38,-30 408.38,-24 408.38,-24 408.38,-12 408.38,-12 408.38,-6 414.38,0 420.38,0 420.38,0 461.12,0 461.12,0 467.12,0 473.12,-6 473.12,-12 473.12,-12 473.12,-24 473.12,-24 473.12,-30 467.12,-36 461.12,-36"/>
<text xml:space="preserve" text-anchor="middle" x="440.75" y="-19.95" font-family="Arial" font-size="9.00" fill="white">Hidden Text</text>
<text xml:space="preserve" text-anchor="middle" x="440.75" y="-9.45" font-family="Arial" font-size="9.00" fill="white">Detection</text>
</g>
<!-- safety&#45;&gt;safe_detail1 -->
<g id="edge9" class="edge">
<title>safety&#45;&gt;safe_detail1</title>
<path fill="none" stroke="#4caf50" stroke-width="1.5" d="M440.75,-78.68C440.75,-78.68 440.75,-48.77 440.75,-48.77"/>
<polygon fill="#4caf50" stroke="#4caf50" stroke-width="1.5" points="444.25,-48.77 440.75,-38.77 437.25,-48.77 444.25,-48.77"/>
</g>
<!-- safe_detail2 -->
<g id="node11" class="node">
<title>safe_detail2</title>
<path fill="#ff9800" stroke="black" d="M561.12,-36C561.12,-36 514.38,-36 514.38,-36 508.38,-36 502.38,-30 502.38,-24 502.38,-24 502.38,-12 502.38,-12 502.38,-6 508.38,0 514.38,0 514.38,0 561.12,0 561.12,0 567.12,0 573.12,-6 573.12,-12 573.12,-12 573.12,-24 573.12,-24 573.12,-30 567.12,-36 561.12,-36"/>
<text xml:space="preserve" text-anchor="middle" x="537.75" y="-19.95" font-family="Arial" font-size="9.00" fill="white">Off&#45;Page</text>
<text xml:space="preserve" text-anchor="middle" x="537.75" y="-9.45" font-family="Arial" font-size="9.00" fill="white">Content Filter</text>
</g>
<!-- safety&#45;&gt;safe_detail2 -->
<g id="edge10" class="edge">
<title>safety&#45;&gt;safe_detail2</title>
<path fill="none" stroke="#4caf50" stroke-width="1.5" d="M509.06,-78.68C509.06,-78.68 509.06,-48.77 509.06,-48.77"/>
<polygon fill="#4caf50" stroke="#4caf50" stroke-width="1.5" points="512.56,-48.77 509.06,-38.77 505.56,-48.77 512.56,-48.77"/>
</g>
<!-- perf_detail1 -->
<g id="node12" class="node">
<title>perf_detail1</title>
<path fill="#ff9800" stroke="black" d="M653.75,-36C653.75,-36 613.75,-36 613.75,-36 607.75,-36 601.75,-30 601.75,-24 601.75,-24 601.75,-12 601.75,-12 601.75,-6 607.75,0 613.75,0 613.75,0 653.75,0 653.75,0 659.75,0 665.75,-6 665.75,-12 665.75,-12 665.75,-24 665.75,-24 665.75,-30 659.75,-36 653.75,-36"/>
<text xml:space="preserve" text-anchor="middle" x="633.75" y="-19.95" font-family="Arial" font-size="9.00" fill="white">Local Mode</text>
<text xml:space="preserve" text-anchor="middle" x="633.75" y="-9.45" font-family="Arial" font-size="9.00" fill="white">No GPU</text>
</g>
<!-- performance&#45;&gt;perf_detail1 -->
<g id="edge11" class="edge">
<title>performance&#45;&gt;perf_detail1</title>
<path fill="none" stroke="#4caf50" stroke-width="1.5" d="M633.75,-78.68C633.75,-78.68 633.75,-48.77 633.75,-48.77"/>
<polygon fill="#4caf50" stroke="#4caf50" stroke-width="1.5" points="637.25,-48.77 633.75,-38.77 630.25,-48.77 637.25,-48.77"/>
</g>
<!-- perf_detail2 -->
<g id="node13" class="node">
<title>perf_detail2</title>
<path fill="#ff9800" stroke="black" d="M751,-36C751,-36 706.5,-36 706.5,-36 700.5,-36 694.5,-30 694.5,-24 694.5,-24 694.5,-12 694.5,-12 694.5,-6 700.5,0 706.5,0 706.5,0 751,0 751,0 757,0 763,-6 763,-12 763,-12 763,-24 763,-24 763,-30 757,-36 751,-36"/>
<text xml:space="preserve" text-anchor="middle" x="728.75" y="-19.95" font-family="Arial" font-size="9.00" fill="white">Hybrid Mode</text>
<text xml:space="preserve" text-anchor="middle" x="728.75" y="-9.45" font-family="Arial" font-size="9.00" fill="white">AI Backend</text>
</g>
<!-- performance&#45;&gt;perf_detail2 -->
<g id="edge12" class="edge">
<title>performance&#45;&gt;perf_detail2</title>
<path fill="none" stroke="#4caf50" stroke-width="1.5" d="M669.88,-78.68C669.88,-55.34 669.88,-18 669.88,-18 669.88,-18 681.89,-18 681.89,-18"/>
<polygon fill="#4caf50" stroke="#4caf50" stroke-width="1.5" points="681.89,-21.5 691.89,-18 681.89,-14.5 681.89,-21.5"/>
</g>
</g>
</svg>
