<?xml version="1.0" encoding="UTF-8" standalone="no"?>
<!DOCTYPE svg PUBLIC "-//W3C//DTD SVG 1.1//EN"
 "http://www.w3.org/Graphics/SVG/1.1/DTD/svg11.dtd">
<!-- Generated by graphviz version 14.1.2 (0)
 -->
<!-- Title: opensquilla_features Pages: 1 -->
<svg width="2142pt" height="256pt"
 viewBox="0.00 0.00 2142.00 256.00" xmlns="http://www.w3.org/2000/svg" xmlns:xlink="http://www.w3.org/1999/xlink">
<g id="graph0" class="graph" transform="scale(1 1) rotate(0) translate(4 251.7)">
<title>opensquilla_features</title>
<text xml:space="preserve" text-anchor="middle" x="1067" y="-7.2" font-family="Times New Roman,serif" font-size="14.00">OpenSquilla Key Features</text>
<!-- center -->
<g id="node1" class="node">
<title>center</title>
<path fill="#2196f3" stroke="black" d="M1163,-247.7C1163,-247.7 971,-247.7 971,-247.7 965,-247.7 959,-241.7 959,-235.7 959,-235.7 959,-173.3 959,-173.3 959,-167.3 965,-161.3 971,-161.3 971,-161.3 1163,-161.3 1163,-161.3 1169,-161.3 1175,-167.3 1175,-173.3 1175,-173.3 1175,-235.7 1175,-235.7 1175,-241.7 1169,-247.7 1163,-247.7"/>
<text xml:space="preserve" text-anchor="middle" x="1067" y="-217.43" font-family="Arial Bold" font-size="16.00" fill="white">OpenSquilla</text>
<text xml:space="preserve" text-anchor="middle" x="1067" y="-198.68" font-family="Arial Bold" font-size="16.00" fill="white">Token&#45;Efficient</text>
<text xml:space="preserve" text-anchor="middle" x="1067" y="-179.93" font-family="Arial Bold" font-size="16.00" fill="white">AI Agent</text>
</g>
<!-- token_eff -->
<g id="node2" class="node">
<title>token_eff</title>
<path fill="#4caf50" stroke="black" d="M204,-89.3C204,-89.3 12,-89.3 12,-89.3 6,-89.3 0,-83.3 0,-77.3 0,-77.3 0,-36.5 0,-36.5 0,-30.5 6,-24.5 12,-24.5 12,-24.5 204,-24.5 204,-24.5 210,-24.5 216,-30.5 216,-36.5 216,-36.5 216,-77.3 216,-77.3 216,-83.3 210,-89.3 204,-89.3"/>
<text xml:space="preserve" text-anchor="middle" x="108" y="-66.7" font-family="Arial Bold" font-size="11.00" fill="white">Token Efficiency</text>
<text xml:space="preserve" text-anchor="middle" x="108" y="-53.2" font-family="Arial Bold" font-size="11.00" fill="white">Prompt Compression</text>
<text xml:space="preserve" text-anchor="middle" x="108" y="-39.7" font-family="Arial Bold" font-size="11.00" fill="white">and Context Pruning</text>
</g>
<!-- center&#45;&gt;token_eff -->
<g id="edge1" class="edge">
<title>center&#45;&gt;token_eff</title>
<path fill="none" stroke="#4caf50" stroke-width="2" d="M958.85,-226.5C708.05,-226.5 108,-226.5 108,-226.5 108,-226.5 108,-102.63 108,-102.63"/>
<polygon fill="#4caf50" stroke="#4caf50" stroke-width="2" points="111.5,-102.63 108,-92.63 104.5,-102.63 111.5,-102.63"/>
<text xml:space="preserve" text-anchor="middle" x="444.87" y="-229.7" font-family="Times New Roman,serif" font-size="14.00">optimizes</text>
</g>
<!-- mcp -->
<g id="node3" class="node">
<title>mcp</title>
<path fill="#009688" stroke="black" d="M478,-89.3C478,-89.3 286,-89.3 286,-89.3 280,-89.3 274,-83.3 274,-77.3 274,-77.3 274,-36.5 274,-36.5 274,-30.5 280,-24.5 286,-24.5 286,-24.5 478,-24.5 478,-24.5 484,-24.5 490,-30.5 490,-36.5 490,-36.5 490,-77.3 490,-77.3 490,-83.3 484,-89.3 478,-89.3"/>
<text xml:space="preserve" text-anchor="middle" x="382" y="-66.7" font-family="Arial Bold" font-size="11.00" fill="white">MCP Integration</text>
<text xml:space="preserve" text-anchor="middle" x="382" y="-53.2" font-family="Arial Bold" font-size="11.00" fill="white">Client and Server</text>
<text xml:space="preserve" text-anchor="middle" x="382" y="-39.7" font-family="Arial Bold" font-size="11.00" fill="white">Protocol Support</text>
</g>
<!-- center&#45;&gt;mcp -->
<g id="edge2" class="edge">
<title>center&#45;&gt;mcp</title>
<path fill="none" stroke="#009688" stroke-width="2" d="M958.84,-204.5C765.81,-204.5 382,-204.5 382,-204.5 382,-204.5 382,-102.68 382,-102.68"/>
<polygon fill="#009688" stroke="#009688" stroke-width="2" points="385.5,-102.68 382,-92.68 378.5,-102.68 385.5,-102.68"/>
<text xml:space="preserve" text-anchor="middle" x="595.89" y="-207.7" font-family="Times New Roman,serif" font-size="14.00">connects</text>
</g>
<!-- memory -->
<g id="node4" class="node">
<title>memory</title>
<path fill="#9c27b0" stroke="black" d="M752,-89.3C752,-89.3 560,-89.3 560,-89.3 554,-89.3 548,-83.3 548,-77.3 548,-77.3 548,-36.5 548,-36.5 548,-30.5 554,-24.5 560,-24.5 560,-24.5 752,-24.5 752,-24.5 758,-24.5 764,-30.5 764,-36.5 764,-36.5 764,-77.3 764,-77.3 764,-83.3 758,-89.3 752,-89.3"/>
<text xml:space="preserve" text-anchor="middle" x="656" y="-66.7" font-family="Arial Bold" font-size="11.00" fill="white">Persistent Memory</text>
<text xml:space="preserve" text-anchor="middle" x="656" y="-53.2" font-family="Arial Bold" font-size="11.00" fill="white">FTS + Semantic Recall</text>
<text xml:space="preserve" text-anchor="middle" x="656" y="-39.7" font-family="Arial Bold" font-size="11.00" fill="white">On&#45;Device Embeddings</text>
</g>
<!-- center&#45;&gt;memory -->
<g id="edge3" class="edge">
<title>center&#45;&gt;memory</title>
<path fill="none" stroke="#9c27b0" stroke-width="2" d="M958.75,-182.5C836.98,-182.5 656,-182.5 656,-182.5 656,-182.5 656,-102.6 656,-102.6"/>
<polygon fill="#9c27b0" stroke="#9c27b0" stroke-width="2" points="659.5,-102.6 656,-92.6 652.5,-102.6 659.5,-102.6"/>
<text xml:space="preserve" text-anchor="middle" x="736.67" y="-185.7" font-family="Times New Roman,serif" font-size="14.00">remembers</text>
</g>
<!-- skills -->
<g id="node5" class="node">
<title>skills</title>
<path fill="#ff9800" stroke="black" d="M1026,-89.3C1026,-89.3 834,-89.3 834,-89.3 828,-89.3 822,-83.3 822,-77.3 822,-77.3 822,-36.5 822,-36.5 822,-30.5 828,-24.5 834,-24.5 834,-24.5 1026,-24.5 1026,-24.5 1032,-24.5 1038,-30.5 1038,-36.5 1038,-36.5 1038,-77.3 1038,-77.3 1038,-83.3 1032,-89.3 1026,-89.3"/>
<text xml:space="preserve" text-anchor="middle" x="930" y="-66.7" font-family="Arial Bold" font-size="11.00" fill="white">Modular Skills</text>
<text xml:space="preserve" text-anchor="middle" x="930" y="-53.2" font-family="Arial Bold" font-size="11.00" fill="white">15 Bundled Skills</text>
<text xml:space="preserve" text-anchor="middle" x="930" y="-39.7" font-family="Arial Bold" font-size="11.00" fill="white">On&#45;Demand Loading</text>
</g>
<!-- center&#45;&gt;skills -->
<g id="edge4" class="edge">
<title>center&#45;&gt;skills</title>
<path fill="none" stroke="#ff9800" stroke-width="2" d="M998.5,-161.01C998.5,-161.01 998.5,-102.8 998.5,-102.8"/>
<polygon fill="#ff9800" stroke="#ff9800" stroke-width="2" points="1002,-102.8 998.5,-92.8 995,-102.8 1002,-102.8"/>
<text xml:space="preserve" text-anchor="middle" x="975.25" y="-135.11" font-family="Times New Roman,serif" font-size="14.00">executes</text>
</g>
<!-- openclaw -->
<g id="node6" class="node">
<title>openclaw</title>
<path fill="#e91e63" stroke="black" d="M1300,-89.3C1300,-89.3 1108,-89.3 1108,-89.3 1102,-89.3 1096,-83.3 1096,-77.3 1096,-77.3 1096,-36.5 1096,-36.5 1096,-30.5 1102,-24.5 1108,-24.5 1108,-24.5 1300,-24.5 1300,-24.5 1306,-24.5 1312,-30.5 1312,-36.5 1312,-36.5 1312,-77.3 1312,-77.3 1312,-83.3 1306,-89.3 1300,-89.3"/>
<text xml:space="preserve" text-anchor="middle" x="1204" y="-66.7" font-family="Arial Bold" font-size="11.00" fill="white">OpenClaw Compat</text>
<text xml:space="preserve" text-anchor="middle" x="1204" y="-53.2" font-family="Arial Bold" font-size="11.00" fill="white">Migration Path</text>
<text xml:space="preserve" text-anchor="middle" x="1204" y="-39.7" font-family="Arial Bold" font-size="11.00" fill="white">Config Import</text>
</g>
<!-- center&#45;&gt;openclaw -->
<g id="edge5" class="edge">
<title>center&#45;&gt;openclaw</title>
<path fill="none" stroke="#e91e63" stroke-width="2" d="M1135.5,-161.01C1135.5,-161.01 1135.5,-102.8 1135.5,-102.8"/>
<polygon fill="#e91e63" stroke="#e91e63" stroke-width="2" points="1139,-102.8 1135.5,-92.8 1132,-102.8 1139,-102.8"/>
<text xml:space="preserve" text-anchor="middle" x="1111.88" y="-135.11" font-family="Times New Roman,serif" font-size="14.00">migrates</text>
</g>
<!-- python -->
<g id="node7" class="node">
<title>python</title>
<path fill="#ffc107" stroke="black" d="M1574,-89.3C1574,-89.3 1382,-89.3 1382,-89.3 1376,-89.3 1370,-83.3 1370,-77.3 1370,-77.3 1370,-36.5 1370,-36.5 1370,-30.5 1376,-24.5 1382,-24.5 1382,-24.5 1574,-24.5 1574,-24.5 1580,-24.5 1586,-30.5 1586,-36.5 1586,-36.5 1586,-77.3 1586,-77.3 1586,-83.3 1580,-89.3 1574,-89.3"/>
<text xml:space="preserve" text-anchor="middle" x="1478" y="-66.7" font-family="Arial Bold" font-size="11.00" fill="#333333">Python&#45;Native</text>
<text xml:space="preserve" text-anchor="middle" x="1478" y="-53.2" font-family="Arial Bold" font-size="11.00" fill="#333333">3.12+ Runtime</text>
<text xml:space="preserve" text-anchor="middle" x="1478" y="-39.7" font-family="Arial Bold" font-size="11.00" fill="#333333">CLI and Web UI</text>
</g>
<!-- center&#45;&gt;python -->
<g id="edge6" class="edge">
<title>center&#45;&gt;python</title>
<path fill="none" stroke="#ffc107" stroke-width="2" d="M1175.25,-182.5C1297.02,-182.5 1478,-182.5 1478,-182.5 1478,-182.5 1478,-102.6 1478,-102.6"/>
<polygon fill="#ffc107" stroke="#ffc107" stroke-width="2" points="1481.5,-102.6 1478,-92.6 1474.5,-102.6 1481.5,-102.6"/>
<text xml:space="preserve" text-anchor="middle" x="1346.33" y="-185.7" font-family="Times New Roman,serif" font-size="14.00">runs on</text>
</g>
<!-- foundation -->
<g id="node8" class="node">
<title>foundation</title>
<path fill="#e91e63" stroke="black" d="M1848,-89.3C1848,-89.3 1656,-89.3 1656,-89.3 1650,-89.3 1644,-83.3 1644,-77.3 1644,-77.3 1644,-36.5 1644,-36.5 1644,-30.5 1650,-24.5 1656,-24.5 1656,-24.5 1848,-24.5 1848,-24.5 1854,-24.5 1860,-30.5 1860,-36.5 1860,-36.5 1860,-77.3 1860,-77.3 1860,-83.3 1854,-89.3 1848,-89.3"/>
<text xml:space="preserve" text-anchor="middle" x="1752" y="-66.7" font-family="Arial Bold" font-size="11.00" fill="white">Foundation Models</text>
<text xml:space="preserve" text-anchor="middle" x="1752" y="-53.2" font-family="Arial Bold" font-size="11.00" fill="white">20+ LLM Providers</text>
<text xml:space="preserve" text-anchor="middle" x="1752" y="-39.7" font-family="Arial Bold" font-size="11.00" fill="white">Smart Routing</text>
</g>
<!-- center&#45;&gt;foundation -->
<g id="edge7" class="edge">
<title>center&#45;&gt;foundation</title>
<path fill="none" stroke="#e91e63" stroke-width="2" d="M1175.16,-204.5C1368.19,-204.5 1752,-204.5 1752,-204.5 1752,-204.5 1752,-102.68 1752,-102.68"/>
<polygon fill="#e91e63" stroke="#e91e63" stroke-width="2" points="1755.5,-102.68 1752,-92.68 1748.5,-102.68 1755.5,-102.68"/>
<text xml:space="preserve" text-anchor="middle" x="1490.86" y="-207.7" font-family="Times New Roman,serif" font-size="14.00">routes to</text>
</g>
<!-- deep -->
<g id="node9" class="node">
<title>deep</title>
<path fill="#f44336" stroke="black" d="M2122,-89.3C2122,-89.3 1930,-89.3 1930,-89.3 1924,-89.3 1918,-83.3 1918,-77.3 1918,-77.3 1918,-36.5 1918,-36.5 1918,-30.5 1924,-24.5 1930,-24.5 1930,-24.5 2122,-24.5 2122,-24.5 2128,-24.5 2134,-30.5 2134,-36.5 2134,-36.5 2134,-77.3 2134,-77.3 2134,-83.3 2128,-89.3 2122,-89.3"/>
<text xml:space="preserve" text-anchor="middle" x="2026" y="-66.7" font-family="Arial Bold" font-size="11.00" fill="white">Deep Learning</text>
<text xml:space="preserve" text-anchor="middle" x="2026" y="-53.2" font-family="Arial Bold" font-size="11.00" fill="white">ONNX + LightGBM</text>
<text xml:space="preserve" text-anchor="middle" x="2026" y="-39.7" font-family="Arial Bold" font-size="11.00" fill="white">Local Classifier</text>
</g>
<!-- center&#45;&gt;deep -->
<g id="edge8" class="edge">
<title>center&#45;&gt;deep</title>
<path fill="none" stroke="#f44336" stroke-width="2" d="M1175.15,-226.5C1425.95,-226.5 2026,-226.5 2026,-226.5 2026,-226.5 2026,-102.63 2026,-102.63"/>
<polygon fill="#f44336" stroke="#f44336" stroke-width="2" points="2029.5,-102.63 2026,-92.63 2022.5,-102.63 2029.5,-102.63"/>
<text xml:space="preserve" text-anchor="middle" x="1637.76" y="-229.7" font-family="Times New Roman,serif" font-size="14.00">classifies</text>
</g>
</g>
</svg>
