<?xml version="1.0" encoding="UTF-8" standalone="no"?>
<!DOCTYPE svg PUBLIC "-//W3C//DTD SVG 1.1//EN"
 "http://www.w3.org/Graphics/SVG/1.1/DTD/svg11.dtd">
<!-- Generated by graphviz version 14.1.2 (0)
 -->
<!-- Title: openscreen_recording Pages: 1 -->
<svg width="506pt" height="430pt"
 viewBox="0.00 0.00 506.00 430.00" xmlns="http://www.w3.org/2000/svg" xmlns:xlink="http://www.w3.org/1999/xlink">
<g id="graph0" class="graph" transform="scale(1 1) rotate(0) translate(4 425.5)">
<title>openscreen_recording</title>
<polygon fill="white" stroke="none" points="-4,4 -4,-425.5 501.88,-425.5 501.88,4 -4,4"/>
<!-- screen -->
<g id="node1" class="node">
<title>screen</title>
<polygon fill="#4caf50" stroke="black" points="97.75,-421.5 0,-421.5 0,-385.5 97.75,-385.5 97.75,-421.5"/>
<text xml:space="preserve" text-anchor="middle" x="48.88" y="-399.8" font-family="Arial" font-size="11.00" fill="white">Screen Selection</text>
</g>
<!-- capture -->
<g id="node6" class="node">
<title>capture</title>
<path fill="#2196f3" stroke="black" d="M230,-327.5C230,-327.5 139.75,-327.5 139.75,-327.5 133.75,-327.5 127.75,-321.5 127.75,-315.5 127.75,-315.5 127.75,-303 127.75,-303 127.75,-297 133.75,-291 139.75,-291 139.75,-291 230,-291 230,-291 236,-291 242,-297 242,-303 242,-303 242,-315.5 242,-315.5 242,-321.5 236,-327.5 230,-327.5"/>
<text xml:space="preserve" text-anchor="middle" x="184.88" y="-312.1" font-family="Arial Bold" font-size="12.00" fill="white">Electron</text>
<text xml:space="preserve" text-anchor="middle" x="184.88" y="-297.85" font-family="Arial Bold" font-size="12.00" fill="white">DesktopCapturer</text>
</g>
<!-- screen&#45;&gt;capture -->
<g id="edge1" class="edge">
<title>screen&#45;&gt;capture</title>
<path fill="none" stroke="#4caf50" stroke-width="2" d="M48.88,-385.28C48.88,-357.82 48.88,-309 48.88,-309 48.88,-309 114.57,-309 114.57,-309"/>
<polygon fill="#4caf50" stroke="#4caf50" stroke-width="2" points="114.57,-312.5 124.57,-309 114.57,-305.5 114.57,-312.5"/>
</g>
<!-- window -->
<g id="node2" class="node">
<title>window</title>
<polygon fill="#4caf50" stroke="black" points="236,-421.5 133.75,-421.5 133.75,-385.5 236,-385.5 236,-421.5"/>
<text xml:space="preserve" text-anchor="middle" x="184.88" y="-399.8" font-family="Arial" font-size="11.00" fill="white">Window Selection</text>
</g>
<!-- window&#45;&gt;capture -->
<g id="edge2" class="edge">
<title>window&#45;&gt;capture</title>
<path fill="none" stroke="#4caf50" stroke-width="2" d="M184.88,-385.33C184.88,-385.33 184.88,-340.72 184.88,-340.72"/>
<polygon fill="#4caf50" stroke="#4caf50" stroke-width="2" points="188.38,-340.72 184.88,-330.72 181.38,-340.72 188.38,-340.72"/>
</g>
<!-- webcam -->
<g id="node3" class="node">
<title>webcam</title>
<polygon fill="#4caf50" stroke="black" points="357.75,-421.5 272,-421.5 272,-385.5 357.75,-385.5 357.75,-421.5"/>
<text xml:space="preserve" text-anchor="middle" x="314.88" y="-399.8" font-family="Arial" font-size="11.00" fill="white">Webcam Input</text>
</g>
<!-- webcam&#45;&gt;capture -->
<g id="edge3" class="edge">
<title>webcam&#45;&gt;capture</title>
<path fill="none" stroke="#4caf50" stroke-width="2" d="M271.6,-404C263.23,-404 257,-404 257,-404 257,-404 257,-309 257,-309 257,-309 255.43,-309 255.43,-309"/>
<polygon fill="#4caf50" stroke="#4caf50" stroke-width="2" points="255.43,-305.5 245.43,-309 255.43,-312.5 255.43,-305.5"/>
</g>
<!-- mic -->
<g id="node4" class="node">
<title>mic</title>
<polygon fill="#4caf50" stroke="black" points="380,-327.25 277.75,-327.25 277.75,-291.25 380,-291.25 380,-327.25"/>
<text xml:space="preserve" text-anchor="middle" x="328.88" y="-305.55" font-family="Arial" font-size="11.00" fill="white">Microphone Audio</text>
</g>
<!-- encoding -->
<g id="node7" class="node">
<title>encoding</title>
<path fill="#2196f3" stroke="black" d="M368.38,-233C368.38,-233 289.38,-233 289.38,-233 283.38,-233 277.38,-227 277.38,-221 277.38,-221 277.38,-208.5 277.38,-208.5 277.38,-202.5 283.38,-196.5 289.38,-196.5 289.38,-196.5 368.38,-196.5 368.38,-196.5 374.38,-196.5 380.38,-202.5 380.38,-208.5 380.38,-208.5 380.38,-221 380.38,-221 380.38,-227 374.38,-233 368.38,-233"/>
<text xml:space="preserve" text-anchor="middle" x="328.88" y="-217.6" font-family="Arial Bold" font-size="12.00" fill="white">MediaRecorder</text>
<text xml:space="preserve" text-anchor="middle" x="328.88" y="-203.35" font-family="Arial Bold" font-size="12.00" fill="white">API</text>
</g>
<!-- mic&#45;&gt;encoding -->
<g id="edge4" class="edge">
<title>mic&#45;&gt;encoding</title>
<path fill="none" stroke="#4caf50" stroke-width="2" d="M328.88,-291.03C328.88,-291.03 328.88,-246.26 328.88,-246.26"/>
<polygon fill="#4caf50" stroke="#4caf50" stroke-width="2" points="332.38,-246.26 328.88,-236.26 325.38,-246.26 332.38,-246.26"/>
</g>
<!-- system_audio -->
<g id="node5" class="node">
<title>system_audio</title>
<polygon fill="#4caf50" stroke="black" points="497.88,-327.25 415.88,-327.25 415.88,-291.25 497.88,-291.25 497.88,-327.25"/>
<text xml:space="preserve" text-anchor="middle" x="456.88" y="-305.55" font-family="Arial" font-size="11.00" fill="white">System Audio</text>
</g>
<!-- system_audio&#45;&gt;encoding -->
<g id="edge5" class="edge">
<title>system_audio&#45;&gt;encoding</title>
<path fill="none" stroke="#4caf50" stroke-width="2" d="M456.88,-291.08C456.88,-263.69 456.88,-215 456.88,-215 456.88,-215 393.6,-215 393.6,-215"/>
<polygon fill="#4caf50" stroke="#4caf50" stroke-width="2" points="393.6,-211.5 383.6,-215 393.6,-218.5 393.6,-211.5"/>
</g>
<!-- capture&#45;&gt;encoding -->
<g id="edge6" class="edge">
<title>capture&#45;&gt;encoding</title>
<path fill="none" stroke="#2196f3" stroke-width="2" d="M184.88,-290.63C184.88,-263.16 184.88,-215 184.88,-215 184.88,-215 263.86,-215 263.86,-215"/>
<polygon fill="#2196f3" stroke="#2196f3" stroke-width="2" points="263.86,-218.5 273.86,-215 263.86,-211.5 263.86,-218.5"/>
</g>
<!-- buffer -->
<g id="node8" class="node">
<title>buffer</title>
<path fill="#2196f3" stroke="black" d="M361.62,-138.5C361.62,-138.5 296.12,-138.5 296.12,-138.5 290.12,-138.5 284.12,-132.5 284.12,-126.5 284.12,-126.5 284.12,-114 284.12,-114 284.12,-108 290.12,-102 296.12,-102 296.12,-102 361.62,-102 361.62,-102 367.62,-102 373.62,-108 373.62,-114 373.62,-114 373.62,-126.5 373.62,-126.5 373.62,-132.5 367.62,-138.5 361.62,-138.5"/>
<text xml:space="preserve" text-anchor="middle" x="328.88" y="-123.1" font-family="Arial Bold" font-size="12.00" fill="white">WebM Buffer</text>
<text xml:space="preserve" text-anchor="middle" x="328.88" y="-108.85" font-family="Arial Bold" font-size="12.00" fill="white">Processing</text>
</g>
<!-- encoding&#45;&gt;buffer -->
<g id="edge7" class="edge">
<title>encoding&#45;&gt;buffer</title>
<path fill="none" stroke="#2196f3" stroke-width="2" d="M328.88,-196.08C328.88,-196.08 328.88,-151.91 328.88,-151.91"/>
<polygon fill="#2196f3" stroke="#2196f3" stroke-width="2" points="332.38,-151.91 328.88,-141.91 325.38,-151.91 332.38,-151.91"/>
</g>
<!-- raw_video -->
<g id="node9" class="node">
<title>raw_video</title>
<path fill="#ff9800" stroke="black" d="M370.62,-40C370.62,-42.21 351.91,-44 328.88,-44 305.84,-44 287.12,-42.21 287.12,-40 287.12,-40 287.12,-4 287.12,-4 287.12,-1.79 305.84,0 328.88,0 351.91,0 370.62,-1.79 370.62,-4 370.62,-4 370.62,-40 370.62,-40"/>
<path fill="none" stroke="black" d="M370.62,-40C370.62,-37.79 351.91,-36 328.88,-36 305.84,-36 287.12,-37.79 287.12,-40"/>
<text xml:space="preserve" text-anchor="middle" x="328.88" y="-24.5" font-family="Arial" font-size="10.00" fill="white">Raw Recording</text>
<text xml:space="preserve" text-anchor="middle" x="328.88" y="-12.5" font-family="Arial" font-size="10.00" fill="white">(WebM)</text>
</g>
<!-- buffer&#45;&gt;raw_video -->
<g id="edge8" class="edge">
<title>buffer&#45;&gt;raw_video</title>
<path fill="none" stroke="#ff9800" stroke-width="2" d="M328.88,-101.77C328.88,-101.77 328.88,-57.21 328.88,-57.21"/>
<polygon fill="#ff9800" stroke="#ff9800" stroke-width="2" points="332.38,-57.21 328.88,-47.21 325.38,-57.21 332.38,-57.21"/>
</g>
</g>
</svg>
