<?xml version="1.0" encoding="UTF-8" standalone="no"?>
<!DOCTYPE svg PUBLIC "-//W3C//DTD SVG 1.1//EN"
 "http://www.w3.org/Graphics/SVG/1.1/DTD/svg11.dtd">
<!-- Generated by graphviz version 14.1.2 (0)
 -->
<!-- Title: open_swe_sandboxes Pages: 1 -->
<svg width="663pt" height="131pt"
 viewBox="0.00 0.00 663.00 131.00" xmlns="http://www.w3.org/2000/svg" xmlns:xlink="http://www.w3.org/1999/xlink">
<g id="graph0" class="graph" transform="scale(1 1) rotate(0) translate(4 126.5)">
<title>open_swe_sandboxes</title>
<polygon fill="white" stroke="none" points="-4,4 -4,-126.5 658.75,-126.5 658.75,4 -4,4"/>
<!-- hub -->
<g id="node1" class="node">
<title>hub</title>
<path fill="#2196f3" stroke="black" d="M389.25,-122.5C389.25,-122.5 266,-122.5 266,-122.5 260,-122.5 254,-116.5 254,-110.5 254,-110.5 254,-98 254,-98 254,-92 260,-86 266,-86 266,-86 389.25,-86 389.25,-86 395.25,-86 401.25,-92 401.25,-98 401.25,-98 401.25,-110.5 401.25,-110.5 401.25,-116.5 395.25,-122.5 389.25,-122.5"/>
<text xml:space="preserve" text-anchor="middle" x="327.62" y="-107.1" font-family="Arial Bold" font-size="12.00" fill="white">Sandbox Interface</text>
<text xml:space="preserve" text-anchor="middle" x="327.62" y="-92.85" font-family="Arial Bold" font-size="12.00" fill="white">Pluggable Architecture</text>
</g>
<!-- modal -->
<g id="node2" class="node">
<title>modal</title>
<path fill="#795548" stroke="black" d="M105.25,-36C105.25,-36 12,-36 12,-36 6,-36 0,-30 0,-24 0,-24 0,-12 0,-12 0,-6 6,0 12,0 12,0 105.25,0 105.25,0 111.25,0 117.25,-6 117.25,-12 117.25,-12 117.25,-24 117.25,-24 117.25,-30 111.25,-36 105.25,-36"/>
<text xml:space="preserve" text-anchor="middle" x="58.62" y="-21.05" font-family="Arial" font-size="11.00" fill="white">Modal Containers</text>
<text xml:space="preserve" text-anchor="middle" x="58.62" y="-7.55" font-family="Arial" font-size="11.00" fill="white">Serverless Execution</text>
</g>
<!-- hub&#45;&gt;modal -->
<g id="edge1" class="edge">
<title>hub&#45;&gt;modal</title>
<path fill="none" stroke="#2196f3" stroke-width="1.5" d="M253.76,-104C174.13,-104 58.62,-104 58.62,-104 58.62,-104 58.62,-48.51 58.62,-48.51"/>
<polygon fill="#2196f3" stroke="#2196f3" stroke-width="1.5" points="62.13,-48.51 58.63,-38.51 55.13,-48.51 62.13,-48.51"/>
</g>
<!-- daytona -->
<g id="node3" class="node">
<title>daytona</title>
<path fill="#795548" stroke="black" d="M245.88,-36C245.88,-36 165.38,-36 165.38,-36 159.38,-36 153.38,-30 153.38,-24 153.38,-24 153.38,-12 153.38,-12 153.38,-6 159.38,0 165.38,0 165.38,0 245.88,0 245.88,0 251.88,0 257.88,-6 257.88,-12 257.88,-12 257.88,-24 257.88,-24 257.88,-30 251.88,-36 245.88,-36"/>
<text xml:space="preserve" text-anchor="middle" x="205.62" y="-21.05" font-family="Arial" font-size="11.00" fill="white">Daytona</text>
<text xml:space="preserve" text-anchor="middle" x="205.62" y="-7.55" font-family="Arial" font-size="11.00" fill="white">Dev Environments</text>
</g>
<!-- hub&#45;&gt;daytona -->
<g id="edge2" class="edge">
<title>hub&#45;&gt;daytona</title>
<path fill="none" stroke="#2196f3" stroke-width="1.5" d="M276,-85.54C276,-60.17 276,-18 276,-18 276,-18 270.51,-18 270.51,-18"/>
<polygon fill="#2196f3" stroke="#2196f3" stroke-width="1.5" points="270.51,-14.5 260.51,-18 270.51,-21.5 270.51,-14.5"/>
</g>
<!-- runloop -->
<g id="node4" class="node">
<title>runloop</title>
<path fill="#795548" stroke="black" d="M349.12,-36C349.12,-36 306.12,-36 306.12,-36 300.12,-36 294.12,-30 294.12,-24 294.12,-24 294.12,-12 294.12,-12 294.12,-6 300.12,0 306.12,0 306.12,0 349.12,0 349.12,0 355.12,0 361.12,-6 361.12,-12 361.12,-12 361.12,-24 361.12,-24 361.12,-30 355.12,-36 349.12,-36"/>
<text xml:space="preserve" text-anchor="middle" x="327.62" y="-21.05" font-family="Arial" font-size="11.00" fill="white">Runloop</text>
<text xml:space="preserve" text-anchor="middle" x="327.62" y="-7.55" font-family="Arial" font-size="11.00" fill="white">Integration</text>
</g>
<!-- hub&#45;&gt;runloop -->
<g id="edge3" class="edge">
<title>hub&#45;&gt;runloop</title>
<path fill="none" stroke="#2196f3" stroke-width="1.5" d="M327.62,-85.54C327.62,-85.54 327.62,-48.65 327.62,-48.65"/>
<polygon fill="#2196f3" stroke="#2196f3" stroke-width="1.5" points="331.13,-48.65 327.63,-38.65 324.13,-48.65 331.13,-48.65"/>
</g>
<!-- langsmith -->
<g id="node5" class="node">
<title>langsmith</title>
<path fill="#795548" stroke="black" d="M498.38,-36C498.38,-36 408.88,-36 408.88,-36 402.88,-36 396.88,-30 396.88,-24 396.88,-24 396.88,-12 396.88,-12 396.88,-6 402.88,0 408.88,0 408.88,0 498.38,0 498.38,0 504.38,0 510.38,-6 510.38,-12 510.38,-12 510.38,-24 510.38,-24 510.38,-30 504.38,-36 498.38,-36"/>
<text xml:space="preserve" text-anchor="middle" x="453.62" y="-21.05" font-family="Arial" font-size="11.00" fill="white">LangSmith Sandbox</text>
<text xml:space="preserve" text-anchor="middle" x="453.62" y="-7.55" font-family="Arial" font-size="11.00" fill="white">(Default)</text>
</g>
<!-- hub&#45;&gt;langsmith -->
<g id="edge4" class="edge">
<title>hub&#45;&gt;langsmith</title>
<path fill="none" stroke="#2196f3" stroke-width="1.5" d="M379,-85.54C379,-60.17 379,-18 379,-18 379,-18 384.41,-18 384.41,-18"/>
<polygon fill="#2196f3" stroke="#2196f3" stroke-width="1.5" points="384.41,-21.5 394.41,-18 384.41,-14.5 384.41,-21.5"/>
</g>
<!-- local -->
<g id="node6" class="node">
<title>local</title>
<path fill="#00bcd4" stroke="black" d="M642.75,-36C642.75,-36 558.5,-36 558.5,-36 552.5,-36 546.5,-30 546.5,-24 546.5,-24 546.5,-12 546.5,-12 546.5,-6 552.5,0 558.5,0 558.5,0 642.75,0 642.75,0 648.75,0 654.75,-6 654.75,-12 654.75,-12 654.75,-24 654.75,-24 654.75,-30 648.75,-36 642.75,-36"/>
<text xml:space="preserve" text-anchor="middle" x="600.62" y="-21.05" font-family="Arial" font-size="11.00" fill="white">Local Development</text>
<text xml:space="preserve" text-anchor="middle" x="600.62" y="-7.55" font-family="Arial" font-size="11.00" fill="white">Option</text>
</g>
<!-- hub&#45;&gt;local -->
<g id="edge5" class="edge">
<title>hub&#45;&gt;local</title>
<path fill="none" stroke="#2196f3" stroke-width="1.5" d="M401.5,-104C482.35,-104 600.62,-104 600.62,-104 600.62,-104 600.62,-48.51 600.62,-48.51"/>
<polygon fill="#2196f3" stroke="#2196f3" stroke-width="1.5" points="604.13,-48.51 600.63,-38.51 597.13,-48.51 604.13,-48.51"/>
</g>
</g>
</svg>
