<?xml version="1.0" encoding="UTF-8" standalone="no"?>

<!DOCTYPE svg PUBLIC "-//W3C//DTD SVG 1.1//EN"

 "http://www.w3.org/Graphics/SVG/1.1/DTD/svg11.dtd">

<!-- Generated by graphviz version 14.1.2 (0)

 -->

<!-- Title: openenv_features Pages: 1 -->

<svg width="2366pt" height="740pt"

 viewBox="0.00 0.00 2366.00 740.00" xmlns="http://www.w3.org/2000/svg" xmlns:xlink="http://www.w3.org/1999/xlink">

<g id="graph0" class="graph" transform="scale(1 1) rotate(0) translate(4 736.1)">

<title>openenv_features</title>

<polygon fill="white" stroke="none" points="-4,4 -4,-736.1 2362,-736.1 2362,4 -4,4"/>

<text xml:space="preserve" text-anchor="middle" x="1179" y="-7.2" font-family="Times New Roman,serif" font-size="14.00">OpenEnv Key Features and Components</text>

<!-- api_layer -->

<g id="node1" class="node">

<title>api_layer</title>

<polygon fill="#4caf50" stroke="black" points="594,-732.1 378,-732.1 378,-674.5 594,-674.5 594,-732.1"/>

<text xml:space="preserve" text-anchor="middle" x="486" y="-699.6" font-family="Arial" font-size="11.00" fill="white">API Layer</text>

</g>

<!-- gym_api -->

<g id="node2" class="node">

<title>gym_api</title>

<polygon fill="#4caf50" stroke="black" points="216,-616.5 0,-616.5 0,-544.5 216,-544.5 216,-616.5"/>

<text xml:space="preserve" text-anchor="middle" x="108" y="-583.55" font-family="Arial" font-size="11.00" fill="white">Gymnasium API</text>

<text xml:space="preserve" text-anchor="middle" x="108" y="-570.05" font-family="Arial" font-size="11.00" fill="white">reset(), step(), state()</text>

</g>

<!-- api_layer&#45;&gt;gym_api -->

<g id="edge1" class="edge">

<title>api_layer&#45;&gt;gym_api</title>

<path fill="none" stroke="#2196f3" stroke-width="1.5" d="M377.68,-703.5C265.98,-703.5 108,-703.5 108,-703.5 108,-703.5 108,-629.01 108,-629.01"/>

<polygon fill="#2196f3" stroke="#2196f3" stroke-width="1.5" points="111.5,-629.01 108,-619.01 104.5,-629.01 111.5,-629.01"/>

</g>

<!-- type_safe -->

<g id="node3" class="node">

<title>type_safe</title>

<polygon fill="#4caf50" stroke="black" points="468,-616.5 252,-616.5 252,-544.5 468,-544.5 468,-616.5"/>

<text xml:space="preserve" text-anchor="middle" x="360" y="-583.55" font-family="Arial" font-size="11.00" fill="white">Type&#45;Safe Models</text>

<text xml:space="preserve" text-anchor="middle" x="360" y="-570.05" font-family="Arial" font-size="11.00" fill="white">Action, Observation, State</text>

</g>

<!-- api_layer&#45;&gt;type_safe -->

<g id="edge2" class="edge">

<title>api_layer&#45;&gt;type_safe</title>

<path fill="none" stroke="#2196f3" stroke-width="1.5" d="M423,-674.2C423,-674.2 423,-629.14 423,-629.14"/>

<polygon fill="#2196f3" stroke="#2196f3" stroke-width="1.5" points="426.5,-629.14 423,-619.14 419.5,-629.14 426.5,-629.14"/>

</g>

<!-- async_client -->

<g id="node4" class="node">

<title>async_client</title>

<polygon fill="#4caf50" stroke="black" points="720,-616.5 504,-616.5 504,-544.5 720,-544.5 720,-616.5"/>

<text xml:space="preserve" text-anchor="middle" x="612" y="-583.55" font-family="Arial" font-size="11.00" fill="white">Async&#45;First Client</text>

<text xml:space="preserve" text-anchor="middle" x="612" y="-570.05" font-family="Arial" font-size="11.00" fill="white">with Sync Wrapper</text>

</g>

<!-- api_layer&#45;&gt;async_client -->

<g id="edge3" class="edge">

<title>api_layer&#45;&gt;async_client</title>

<path fill="none" stroke="#2196f3" stroke-width="1.5" d="M549,-674.2C549,-674.2 549,-629.14 549,-629.14"/>

<polygon fill="#2196f3" stroke="#2196f3" stroke-width="1.5" points="552.5,-629.14 549,-619.14 545.5,-629.14 552.5,-629.14"/>

</g>

<!-- env_layer -->

<g id="node5" class="node">

<title>env_layer</title>

<path fill="#2196f3" stroke="black" d="M960,-609.3C960,-609.3 768,-609.3 768,-609.3 762,-609.3 756,-603.3 756,-597.3 756,-597.3 756,-563.7 756,-563.7 756,-557.7 762,-551.7 768,-551.7 768,-551.7 960,-551.7 960,-551.7 966,-551.7 972,-557.7 972,-563.7 972,-563.7 972,-597.3 972,-597.3 972,-603.3 966,-609.3 960,-609.3"/>

<text xml:space="preserve" text-anchor="middle" x="864" y="-576.23" font-family="Arial Bold" font-size="12.00" fill="white">Environment Layer</text>

</g>

<!-- api_layer&#45;&gt;env_layer -->

<g id="edge16" class="edge">

<title>api_layer&#45;&gt;env_layer</title>

<path fill="none" stroke="#4caf50" stroke-width="2" d="M594.32,-703.5C706.02,-703.5 864,-703.5 864,-703.5 864,-703.5 864,-622.68 864,-622.68"/>

<polygon fill="#4caf50" stroke="#4caf50" stroke-width="2" points="867.5,-622.68 864,-612.68 860.5,-622.68 867.5,-622.68"/>

</g>

<!-- env_base -->

<g id="node6" class="node">

<title>env_base</title>

<path fill="#2196f3" stroke="black" d="M582,-486.5C582,-486.5 390,-486.5 390,-486.5 384,-486.5 378,-480.5 378,-474.5 378,-474.5 378,-426.5 378,-426.5 378,-420.5 384,-414.5 390,-414.5 390,-414.5 582,-414.5 582,-414.5 588,-414.5 594,-420.5 594,-426.5 594,-426.5 594,-474.5 594,-474.5 594,-480.5 588,-486.5 582,-486.5"/>

<text xml:space="preserve" text-anchor="middle" x="486" y="-453.35" font-family="Arial Bold" font-size="12.00" fill="white">Environment Base Class</text>

<text xml:space="preserve" text-anchor="middle" x="486" y="-439.1" font-family="Arial Bold" font-size="12.00" fill="white">reset/step/state</text>

</g>

<!-- env_layer&#45;&gt;env_base -->

<g id="edge4" class="edge">

<title>env_layer&#45;&gt;env_base</title>

<path fill="none" stroke="#2196f3" stroke-width="1.5" d="M786,-551.42C786,-534.12 786,-515.5 786,-515.5 786,-515.5 549,-515.5 549,-515.5 549,-515.5 549,-499.07 549,-499.07"/>

<polygon fill="#2196f3" stroke="#2196f3" stroke-width="1.5" points="552.5,-499.07 549,-489.07 545.5,-499.07 552.5,-499.07"/>

</g>

<!-- example_envs -->

<g id="node7" class="node">

<title>example_envs</title>

<path fill="#2196f3" stroke="black" d="M834,-486.5C834,-486.5 642,-486.5 642,-486.5 636,-486.5 630,-480.5 630,-474.5 630,-474.5 630,-426.5 630,-426.5 630,-420.5 636,-414.5 642,-414.5 642,-414.5 834,-414.5 834,-414.5 840,-414.5 846,-420.5 846,-426.5 846,-426.5 846,-474.5 846,-474.5 846,-480.5 840,-486.5 834,-486.5"/>

<text xml:space="preserve" text-anchor="middle" x="738" y="-453.35" font-family="Arial Bold" font-size="12.00" fill="white">5 Example Environments</text>

<text xml:space="preserve" text-anchor="middle" x="738" y="-439.1" font-family="Arial Bold" font-size="12.00" fill="white">Echo, Coding, Chess, Atari, FinRL</text>

</g>

<!-- env_layer&#45;&gt;example_envs -->

<g id="edge5" class="edge">

<title>env_layer&#45;&gt;example_envs</title>

<path fill="none" stroke="#2196f3" stroke-width="1.5" d="M816,-551.33C816,-551.33 816,-498.81 816,-498.81"/>

<polygon fill="#2196f3" stroke="#2196f3" stroke-width="1.5" points="819.5,-498.81 816,-488.81 812.5,-498.81 819.5,-498.81"/>

</g>

<!-- auto_env -->

<g id="node8" class="node">

<title>auto_env</title>

<path fill="#2196f3" stroke="black" d="M1086,-486.5C1086,-486.5 894,-486.5 894,-486.5 888,-486.5 882,-480.5 882,-474.5 882,-474.5 882,-426.5 882,-426.5 882,-420.5 888,-414.5 894,-414.5 894,-414.5 1086,-414.5 1086,-414.5 1092,-414.5 1098,-420.5 1098,-426.5 1098,-426.5 1098,-474.5 1098,-474.5 1098,-480.5 1092,-486.5 1086,-486.5"/>

<text xml:space="preserve" text-anchor="middle" x="990" y="-453.35" font-family="Arial Bold" font-size="12.00" fill="white">AutoEnv Auto&#45;Discovery</text>

<text xml:space="preserve" text-anchor="middle" x="990" y="-439.1" font-family="Arial Bold" font-size="12.00" fill="white">AutoEnv.from_env()</text>

</g>

<!-- env_layer&#45;&gt;auto_env -->

<g id="edge6" class="edge">

<title>env_layer&#45;&gt;auto_env</title>

<path fill="none" stroke="#2196f3" stroke-width="1.5" d="M927,-551.33C927,-551.33 927,-498.81 927,-498.81"/>

<polygon fill="#2196f3" stroke="#2196f3" stroke-width="1.5" points="930.5,-498.81 927,-488.81 923.5,-498.81 930.5,-498.81"/>

</g>

<!-- deploy_layer -->

<g id="node9" class="node">

<title>deploy_layer</title>

<path fill="#ff9800" stroke="black" d="M1338,-479.3C1338,-479.3 1146,-479.3 1146,-479.3 1140,-479.3 1134,-473.3 1134,-467.3 1134,-467.3 1134,-433.7 1134,-433.7 1134,-427.7 1140,-421.7 1146,-421.7 1146,-421.7 1338,-421.7 1338,-421.7 1344,-421.7 1350,-427.7 1350,-433.7 1350,-433.7 1350,-467.3 1350,-467.3 1350,-473.3 1344,-479.3 1338,-479.3"/>

<text xml:space="preserve" text-anchor="middle" x="1242" y="-446.8" font-family="Arial" font-size="11.00" fill="white">Deployment Layer</text>

</g>

<!-- env_layer&#45;&gt;deploy_layer -->

<g id="edge17" class="edge">

<title>env_layer&#45;&gt;deploy_layer</title>

<path fill="none" stroke="#ff9800" stroke-width="2" d="M972.32,-580.5C1084.02,-580.5 1242,-580.5 1242,-580.5 1242,-580.5 1242,-492.7 1242,-492.7"/>

<polygon fill="#ff9800" stroke="#ff9800" stroke-width="2" points="1245.5,-492.7 1242,-482.7 1238.5,-492.7 1245.5,-492.7"/>

</g>

<!-- cli_tools -->

<g id="node10" class="node">

<title>cli_tools</title>

<path fill="#ff9800" stroke="black" d="M960,-356.5C960,-356.5 768,-356.5 768,-356.5 762,-356.5 756,-350.5 756,-344.5 756,-344.5 756,-296.5 756,-296.5 756,-290.5 762,-284.5 768,-284.5 768,-284.5 960,-284.5 960,-284.5 966,-284.5 972,-290.5 972,-296.5 972,-296.5 972,-344.5 972,-344.5 972,-350.5 966,-356.5 960,-356.5"/>

<text xml:space="preserve" text-anchor="middle" x="864" y="-323.55" font-family="Arial" font-size="11.00" fill="white">CLI Tools</text>

<text xml:space="preserve" text-anchor="middle" x="864" y="-310.05" font-family="Arial" font-size="11.00" fill="white">init, push, serve, build, fork, validate</text>

</g>

<!-- deploy_layer&#45;&gt;cli_tools -->

<g id="edge7" class="edge">

<title>deploy_layer&#45;&gt;cli_tools</title>

<path fill="none" stroke="#2196f3" stroke-width="1.5" d="M1164,-421.42C1164,-404.12 1164,-385.5 1164,-385.5 1164,-385.5 927,-385.5 927,-385.5 927,-385.5 927,-369.07 927,-369.07"/>

<polygon fill="#2196f3" stroke="#2196f3" stroke-width="1.5" points="930.5,-369.07 927,-359.07 923.5,-369.07 930.5,-369.07"/>

</g>

<!-- container_providers -->

<g id="node11" class="node">

<title>container_providers</title>

<path fill="#ff9800" stroke="black" d="M1212,-356.5C1212,-356.5 1020,-356.5 1020,-356.5 1014,-356.5 1008,-350.5 1008,-344.5 1008,-344.5 1008,-296.5 1008,-296.5 1008,-290.5 1014,-284.5 1020,-284.5 1020,-284.5 1212,-284.5 1212,-284.5 1218,-284.5 1224,-290.5 1224,-296.5 1224,-296.5 1224,-344.5 1224,-344.5 1224,-350.5 1218,-356.5 1212,-356.5"/>

<text xml:space="preserve" text-anchor="middle" x="1116" y="-323.55" font-family="Arial" font-size="11.00" fill="white">Container Providers</text>

<text xml:space="preserve" text-anchor="middle" x="1116" y="-310.05" font-family="Arial" font-size="11.00" fill="white">Docker, K8s, Swarm, Daytona, ACA</text>

</g>

<!-- deploy_layer&#45;&gt;container_providers -->

<g id="edge8" class="edge">

<title>deploy_layer&#45;&gt;container_providers</title>

<path fill="none" stroke="#2196f3" stroke-width="1.5" d="M1194,-421.33C1194,-421.33 1194,-368.81 1194,-368.81"/>

<polygon fill="#2196f3" stroke="#2196f3" stroke-width="1.5" points="1197.5,-368.81 1194,-358.81 1190.5,-368.81 1197.5,-368.81"/>

</g>

<!-- hf_spaces -->

<g id="node12" class="node">

<title>hf_spaces</title>

<path fill="#ff9800" stroke="black" d="M1464,-356.5C1464,-356.5 1272,-356.5 1272,-356.5 1266,-356.5 1260,-350.5 1260,-344.5 1260,-344.5 1260,-296.5 1260,-296.5 1260,-290.5 1266,-284.5 1272,-284.5 1272,-284.5 1464,-284.5 1464,-284.5 1470,-284.5 1476,-290.5 1476,-296.5 1476,-296.5 1476,-344.5 1476,-344.5 1476,-350.5 1470,-356.5 1464,-356.5"/>

<text xml:space="preserve" text-anchor="middle" x="1368" y="-323.55" font-family="Arial" font-size="11.00" fill="white">Hugging Face Spaces</text>

<text xml:space="preserve" text-anchor="middle" x="1368" y="-310.05" font-family="Arial" font-size="11.00" fill="white">One&#45;Command Deployment</text>

</g>

<!-- deploy_layer&#45;&gt;hf_spaces -->

<g id="edge9" class="edge">

<title>deploy_layer&#45;&gt;hf_spaces</title>

<path fill="none" stroke="#2196f3" stroke-width="1.5" d="M1305,-421.33C1305,-421.33 1305,-368.81 1305,-368.81"/>

<polygon fill="#2196f3" stroke="#2196f3" stroke-width="1.5" points="1308.5,-368.81 1305,-358.81 1301.5,-368.81 1308.5,-368.81"/>

</g>

<!-- integ_layer -->

<g id="node13" class="node">

<title>integ_layer</title>

<path fill="#9c27b0" stroke="black" d="M1716,-349.3C1716,-349.3 1524,-349.3 1524,-349.3 1518,-349.3 1512,-343.3 1512,-337.3 1512,-337.3 1512,-303.7 1512,-303.7 1512,-297.7 1518,-291.7 1524,-291.7 1524,-291.7 1716,-291.7 1716,-291.7 1722,-291.7 1728,-297.7 1728,-303.7 1728,-303.7 1728,-337.3 1728,-337.3 1728,-343.3 1722,-349.3 1716,-349.3"/>

<text xml:space="preserve" text-anchor="middle" x="1620" y="-316.8" font-family="Arial" font-size="11.00" fill="white">Integration Layer</text>

</g>

<!-- deploy_layer&#45;&gt;integ_layer -->

<g id="edge18" class="edge">

<title>deploy_layer&#45;&gt;integ_layer</title>

<path fill="none" stroke="#9c27b0" stroke-width="2" d="M1350.32,-450.5C1462.02,-450.5 1620,-450.5 1620,-450.5 1620,-450.5 1620,-362.7 1620,-362.7"/>

<polygon fill="#9c27b0" stroke="#9c27b0" stroke-width="2" points="1623.5,-362.7 1620,-352.7 1616.5,-362.7 1623.5,-362.7"/>

</g>

<!-- rl_frameworks -->

<g id="node14" class="node">

<title>rl_frameworks</title>

<path fill="#9c27b0" stroke="black" d="M1338,-226.5C1338,-226.5 1146,-226.5 1146,-226.5 1140,-226.5 1134,-220.5 1134,-214.5 1134,-214.5 1134,-166.5 1134,-166.5 1134,-160.5 1140,-154.5 1146,-154.5 1146,-154.5 1338,-154.5 1338,-154.5 1344,-154.5 1350,-160.5 1350,-166.5 1350,-166.5 1350,-214.5 1350,-214.5 1350,-220.5 1344,-226.5 1338,-226.5"/>

<text xml:space="preserve" text-anchor="middle" x="1242" y="-193.55" font-family="Arial" font-size="11.00" fill="white">RL Frameworks</text>

<text xml:space="preserve" text-anchor="middle" x="1242" y="-180.05" font-family="Arial" font-size="11.00" fill="white">TRL, torchforge, Unsloth, SkyRL, ART, Oumi</text>

</g>

<!-- integ_layer&#45;&gt;rl_frameworks -->

<g id="edge10" class="edge">

<title>integ_layer&#45;&gt;rl_frameworks</title>

<path fill="none" stroke="#2196f3" stroke-width="1.5" d="M1542,-291.42C1542,-274.12 1542,-255.5 1542,-255.5 1542,-255.5 1305,-255.5 1305,-255.5 1305,-255.5 1305,-239.07 1305,-239.07"/>

<polygon fill="#2196f3" stroke="#2196f3" stroke-width="1.5" points="1308.5,-239.07 1305,-229.07 1301.5,-239.07 1308.5,-239.07"/>

</g>

<!-- mcp_feature -->

<g id="node15" class="node">

<title>mcp_feature</title>

<path fill="#9c27b0" stroke="black" d="M1590,-226.5C1590,-226.5 1398,-226.5 1398,-226.5 1392,-226.5 1386,-220.5 1386,-214.5 1386,-214.5 1386,-166.5 1386,-166.5 1386,-160.5 1392,-154.5 1398,-154.5 1398,-154.5 1590,-154.5 1590,-154.5 1596,-154.5 1602,-160.5 1602,-166.5 1602,-166.5 1602,-214.5 1602,-214.5 1602,-220.5 1596,-226.5 1590,-226.5"/>

<text xml:space="preserve" text-anchor="middle" x="1494" y="-193.55" font-family="Arial" font-size="11.00" fill="white">MCP Support</text>

<text xml:space="preserve" text-anchor="middle" x="1494" y="-180.05" font-family="Arial" font-size="11.00" fill="white">Model Context Protocol (RFC 003)</text>

</g>

<!-- integ_layer&#45;&gt;mcp_feature -->

<g id="edge11" class="edge">

<title>integ_layer&#45;&gt;mcp_feature</title>

<path fill="none" stroke="#2196f3" stroke-width="1.5" d="M1572,-291.33C1572,-291.33 1572,-238.81 1572,-238.81"/>

<polygon fill="#2196f3" stroke="#2196f3" stroke-width="1.5" points="1575.5,-238.81 1572,-228.81 1568.5,-238.81 1575.5,-238.81"/>

</g>

<!-- web_debug -->

<g id="node16" class="node">

<title>web_debug</title>

<path fill="#9c27b0" stroke="black" d="M1842,-226.5C1842,-226.5 1650,-226.5 1650,-226.5 1644,-226.5 1638,-220.5 1638,-214.5 1638,-214.5 1638,-166.5 1638,-166.5 1638,-160.5 1644,-154.5 1650,-154.5 1650,-154.5 1842,-154.5 1842,-154.5 1848,-154.5 1854,-160.5 1854,-166.5 1854,-166.5 1854,-214.5 1854,-214.5 1854,-220.5 1848,-226.5 1842,-226.5"/>

<text xml:space="preserve" text-anchor="middle" x="1746" y="-193.55" font-family="Arial" font-size="11.00" fill="white">Web Interface</text>

<text xml:space="preserve" text-anchor="middle" x="1746" y="-180.05" font-family="Arial" font-size="11.00" fill="white">Interactive Debugging UI</text>

</g>

<!-- integ_layer&#45;&gt;web_debug -->

<g id="edge12" class="edge">

<title>integ_layer&#45;&gt;web_debug</title>

<path fill="none" stroke="#2196f3" stroke-width="1.5" d="M1683,-291.33C1683,-291.33 1683,-238.81 1683,-238.81"/>

<polygon fill="#2196f3" stroke="#2196f3" stroke-width="1.5" points="1686.5,-238.81 1683,-228.81 1679.5,-238.81 1686.5,-238.81"/>

</g>

<!-- gov_layer -->

<g id="node17" class="node">

<title>gov_layer</title>

<path fill="#009688" stroke="black" d="M2094,-219.3C2094,-219.3 1902,-219.3 1902,-219.3 1896,-219.3 1890,-213.3 1890,-207.3 1890,-207.3 1890,-173.7 1890,-173.7 1890,-167.7 1896,-161.7 1902,-161.7 1902,-161.7 2094,-161.7 2094,-161.7 2100,-161.7 2106,-167.7 2106,-173.7 2106,-173.7 2106,-207.3 2106,-207.3 2106,-213.3 2100,-219.3 2094,-219.3"/>

<text xml:space="preserve" text-anchor="middle" x="1998" y="-186.8" font-family="Arial" font-size="11.00" fill="white">Governance Layer</text>

</g>

<!-- integ_layer&#45;&gt;gov_layer -->

<g id="edge19" class="edge">

<title>integ_layer&#45;&gt;gov_layer</title>

<path fill="none" stroke="#009688" stroke-width="2" d="M1728.32,-320.5C1840.02,-320.5 1998,-320.5 1998,-320.5 1998,-320.5 1998,-232.7 1998,-232.7"/>

<polygon fill="#009688" stroke="#009688" stroke-width="2" points="2001.5,-232.7 1998,-222.7 1994.5,-232.7 2001.5,-232.7"/>

</g>

<!-- rfc_process -->

<g id="node18" class="node">

<title>rfc_process</title>

<path fill="#009688" stroke="black" d="M1842,-96.5C1842,-96.5 1650,-96.5 1650,-96.5 1644,-96.5 1638,-90.5 1638,-84.5 1638,-84.5 1638,-36.5 1638,-36.5 1638,-30.5 1644,-24.5 1650,-24.5 1650,-24.5 1842,-24.5 1842,-24.5 1848,-24.5 1854,-30.5 1854,-36.5 1854,-36.5 1854,-84.5 1854,-84.5 1854,-90.5 1848,-96.5 1842,-96.5"/>

<text xml:space="preserve" text-anchor="middle" x="1746" y="-63.55" font-family="Arial" font-size="11.00" fill="white">RFC Process</text>

<text xml:space="preserve" text-anchor="middle" x="1746" y="-50.05" font-family="Arial" font-size="11.00" fill="white">5 Active RFCs</text>

</g>

<!-- gov_layer&#45;&gt;rfc_process -->

<g id="edge13" class="edge">

<title>gov_layer&#45;&gt;rfc_process</title>

<path fill="none" stroke="#2196f3" stroke-width="1.5" d="M1889.52,-190.5C1878.92,-190.5 1872,-190.5 1872,-190.5 1872,-190.5 1872,-60.5 1872,-60.5 1872,-60.5 1866.75,-60.5 1866.75,-60.5"/>

<polygon fill="#2196f3" stroke="#2196f3" stroke-width="1.5" points="1866.75,-57 1856.75,-60.5 1866.75,-64 1866.75,-57"/>

</g>

<!-- license_node -->

<g id="node19" class="node">

<title>license_node</title>

<path fill="#009688" stroke="black" d="M2094,-96.5C2094,-96.5 1902,-96.5 1902,-96.5 1896,-96.5 1890,-90.5 1890,-84.5 1890,-84.5 1890,-36.5 1890,-36.5 1890,-30.5 1896,-24.5 1902,-24.5 1902,-24.5 2094,-24.5 2094,-24.5 2100,-24.5 2106,-30.5 2106,-36.5 2106,-36.5 2106,-84.5 2106,-84.5 2106,-90.5 2100,-96.5 2094,-96.5"/>

<text xml:space="preserve" text-anchor="middle" x="1998" y="-63.55" font-family="Arial" font-size="11.00" fill="white">BSD&#45;3&#45;Clause License</text>

<text xml:space="preserve" text-anchor="middle" x="1998" y="-50.05" font-family="Arial" font-size="11.00" fill="white">Open Source</text>

</g>

<!-- gov_layer&#45;&gt;license_node -->

<g id="edge14" class="edge">

<title>gov_layer&#45;&gt;license_node</title>

<path fill="none" stroke="#2196f3" stroke-width="1.5" d="M1998,-161.33C1998,-161.33 1998,-108.81 1998,-108.81"/>

<polygon fill="#2196f3" stroke="#2196f3" stroke-width="1.5" points="2001.5,-108.81 1998,-98.81 1994.5,-108.81 2001.5,-108.81"/>

</g>

<!-- community -->

<g id="node20" class="node">

<title>community</title>

<path fill="#009688" stroke="black" d="M2346,-96.5C2346,-96.5 2154,-96.5 2154,-96.5 2148,-96.5 2142,-90.5 2142,-84.5 2142,-84.5 2142,-36.5 2142,-36.5 2142,-30.5 2148,-24.5 2154,-24.5 2154,-24.5 2346,-24.5 2346,-24.5 2352,-24.5 2358,-30.5 2358,-36.5 2358,-36.5 2358,-84.5 2358,-84.5 2358,-90.5 2352,-96.5 2346,-96.5"/>

<text xml:space="preserve" text-anchor="middle" x="2250" y="-63.55" font-family="Arial" font-size="11.00" fill="white">Community&#45;Driven</text>

<text xml:space="preserve" text-anchor="middle" x="2250" y="-50.05" font-family="Arial" font-size="11.00" fill="white">Technical Committee Governance</text>

</g>

<!-- gov_layer&#45;&gt;community -->

<g id="edge15" class="edge">

<title>gov_layer&#45;&gt;community</title>

<path fill="none" stroke="#2196f3" stroke-width="1.5" d="M2106.33,-190.5C2174.63,-190.5 2250,-190.5 2250,-190.5 2250,-190.5 2250,-108.98 2250,-108.98"/>

<polygon fill="#2196f3" stroke="#2196f3" stroke-width="1.5" points="2253.5,-108.98 2250,-98.98 2246.5,-108.98 2253.5,-108.98"/>

</g>

</g>

</svg>

