<?xml version="1.0" encoding="UTF-8" standalone="no"?>
<!DOCTYPE svg PUBLIC "-//W3C//DTD SVG 1.1//EN"
 "http://www.w3.org/Graphics/SVG/1.1/DTD/svg11.dtd">
<!-- Generated by graphviz version 14.1.2 (0)
 -->
<!-- Title: open_swe_workflow Pages: 1 -->
<svg width="188pt" height="440pt"
 viewBox="0.00 0.00 188.00 440.00" xmlns="http://www.w3.org/2000/svg" xmlns:xlink="http://www.w3.org/1999/xlink">
<g id="graph0" class="graph" transform="scale(1 1) rotate(0) translate(4 436)">
<title>open_swe_workflow</title>
<polygon fill="white" stroke="none" points="-4,4 -4,-436 183.5,-436 183.5,4 -4,4"/>
<!-- user_trigger -->
<g id="node1" class="node">
<title>user_trigger</title>
<polygon fill="#4caf50" stroke="black" points="151.75,-432 27.75,-432 27.75,-396 151.75,-396 151.75,-432"/>
<text xml:space="preserve" text-anchor="middle" x="89.75" y="-417.05" font-family="Arial" font-size="11.00" fill="white">User Request</text>
<text xml:space="preserve" text-anchor="middle" x="89.75" y="-403.55" font-family="Arial" font-size="11.00" fill="white">Slack | Linear | GitHub</text>
</g>
<!-- agent_pickup -->
<g id="node2" class="node">
<title>agent_pickup</title>
<path fill="#2196f3" stroke="black" d="M145,-353C145,-353 34.5,-353 34.5,-353 28.5,-353 22.5,-347 22.5,-341 22.5,-341 22.5,-328.5 22.5,-328.5 22.5,-322.5 28.5,-316.5 34.5,-316.5 34.5,-316.5 145,-316.5 145,-316.5 151,-316.5 157,-322.5 157,-328.5 157,-328.5 157,-341 157,-341 157,-347 151,-353 145,-353"/>
<text xml:space="preserve" text-anchor="middle" x="89.75" y="-337.6" font-family="Arial Bold" font-size="12.00" fill="white">Agent Picks Up Task</text>
<text xml:space="preserve" text-anchor="middle" x="89.75" y="-323.35" font-family="Arial Bold" font-size="12.00" fill="white">(eyes reaction)</text>
</g>
<!-- user_trigger&#45;&gt;agent_pickup -->
<g id="edge1" class="edge">
<title>user_trigger&#45;&gt;agent_pickup</title>
<path fill="none" stroke="#4caf50" stroke-width="2" d="M89.75,-395.62C89.75,-395.62 89.75,-366.33 89.75,-366.33"/>
<polygon fill="#4caf50" stroke="#4caf50" stroke-width="2" points="93.25,-366.33 89.75,-356.33 86.25,-366.33 93.25,-366.33"/>
</g>
<!-- context_assembly -->
<g id="node3" class="node">
<title>context_assembly</title>
<path fill="#2196f3" stroke="black" d="M167.5,-273.5C167.5,-273.5 12,-273.5 12,-273.5 6,-273.5 0,-267.5 0,-261.5 0,-261.5 0,-249 0,-249 0,-243 6,-237 12,-237 12,-237 167.5,-237 167.5,-237 173.5,-237 179.5,-243 179.5,-249 179.5,-249 179.5,-261.5 179.5,-261.5 179.5,-267.5 173.5,-273.5 167.5,-273.5"/>
<text xml:space="preserve" text-anchor="middle" x="89.75" y="-258.1" font-family="Arial Bold" font-size="12.00" fill="white">Context Assembly</text>
<text xml:space="preserve" text-anchor="middle" x="89.75" y="-243.85" font-family="Arial Bold" font-size="12.00" fill="white">AGENTS.md + Issue Context</text>
</g>
<!-- agent_pickup&#45;&gt;context_assembly -->
<g id="edge2" class="edge">
<title>agent_pickup&#45;&gt;context_assembly</title>
<path fill="none" stroke="#2196f3" stroke-width="2" d="M89.75,-316.31C89.75,-316.31 89.75,-286.89 89.75,-286.89"/>
<polygon fill="#2196f3" stroke="#2196f3" stroke-width="2" points="93.25,-286.89 89.75,-276.89 86.25,-286.89 93.25,-286.89"/>
</g>
<!-- task_execution -->
<g id="node4" class="node">
<title>task_execution</title>
<path fill="#795548" stroke="black" d="M145,-194C145,-194 34.5,-194 34.5,-194 28.5,-194 22.5,-188 22.5,-182 22.5,-182 22.5,-170 22.5,-170 22.5,-164 28.5,-158 34.5,-158 34.5,-158 145,-158 145,-158 151,-158 157,-164 157,-170 157,-170 157,-182 157,-182 157,-188 151,-194 145,-194"/>
<text xml:space="preserve" text-anchor="middle" x="89.75" y="-179.05" font-family="Arial" font-size="11.00" fill="white">Task Execution</text>
<text xml:space="preserve" text-anchor="middle" x="89.75" y="-165.55" font-family="Arial" font-size="11.00" fill="white">In Sandbox Environment</text>
</g>
<!-- context_assembly&#45;&gt;task_execution -->
<g id="edge3" class="edge">
<title>context_assembly&#45;&gt;task_execution</title>
<path fill="none" stroke="#2196f3" stroke-width="2" d="M89.75,-236.87C89.75,-236.87 89.75,-207.31 89.75,-207.31"/>
<polygon fill="#2196f3" stroke="#2196f3" stroke-width="2" points="93.25,-207.31 89.75,-197.31 86.25,-207.31 93.25,-207.31"/>
</g>
<!-- code_changes -->
<g id="node5" class="node">
<title>code_changes</title>
<path fill="#ff9800" stroke="black" d="M136.75,-115C136.75,-115 42.75,-115 42.75,-115 36.75,-115 30.75,-109 30.75,-103 30.75,-103 30.75,-91 30.75,-91 30.75,-85 36.75,-79 42.75,-79 42.75,-79 136.75,-79 136.75,-79 142.75,-79 148.75,-85 148.75,-91 148.75,-91 148.75,-103 148.75,-103 148.75,-109 142.75,-115 136.75,-115"/>
<text xml:space="preserve" text-anchor="middle" x="89.75" y="-100.05" font-family="Arial" font-size="11.00" fill="white">Code Changes</text>
<text xml:space="preserve" text-anchor="middle" x="89.75" y="-86.55" font-family="Arial" font-size="11.00" fill="white">Committed to Branch</text>
</g>
<!-- task_execution&#45;&gt;code_changes -->
<g id="edge4" class="edge">
<title>task_execution&#45;&gt;code_changes</title>
<path fill="none" stroke="#795548" stroke-width="2" d="M89.75,-157.68C89.75,-157.68 89.75,-128.52 89.75,-128.52"/>
<polygon fill="#795548" stroke="#795548" stroke-width="2" points="93.25,-128.52 89.75,-118.52 86.25,-128.52 93.25,-128.52"/>
</g>
<!-- pr_creation -->
<g id="node6" class="node">
<title>pr_creation</title>
<polygon fill="#f44336" stroke="black" points="140.12,-36 39.38,-36 39.38,0 140.12,0 140.12,-36"/>
<text xml:space="preserve" text-anchor="middle" x="89.75" y="-21.05" font-family="Arial" font-size="11.00" fill="white">Draft PR Created</text>
<text xml:space="preserve" text-anchor="middle" x="89.75" y="-7.55" font-family="Arial" font-size="11.00" fill="white">Automatically</text>
</g>
<!-- code_changes&#45;&gt;pr_creation -->
<g id="edge5" class="edge">
<title>code_changes&#45;&gt;pr_creation</title>
<path fill="none" stroke="#ff9800" stroke-width="2" d="M89.75,-78.68C89.75,-78.68 89.75,-49.52 89.75,-49.52"/>
<polygon fill="#ff9800" stroke="#ff9800" stroke-width="2" points="93.25,-49.52 89.75,-39.52 86.25,-49.52 93.25,-49.52"/>
</g>
</g>
</svg>
