<?xml version="1.0" encoding="UTF-8" standalone="no"?>
<!DOCTYPE svg PUBLIC "-//W3C//DTD SVG 1.1//EN"
 "http://www.w3.org/Graphics/SVG/1.1/DTD/svg11.dtd">
<!-- Generated by graphviz version 14.1.2 (0)
 -->
<!-- Title: rustfs_dataflow Pages: 1 -->
<svg width="95pt" height="921pt"
 viewBox="0.00 0.00 95.00 921.00" xmlns="http://www.w3.org/2000/svg" xmlns:xlink="http://www.w3.org/1999/xlink">
<g id="graph0" class="graph" transform="scale(1 1) rotate(0) translate(4 917)">
<title>rustfs_dataflow</title>
<polygon fill="white" stroke="none" points="-4,4 -4,-917 90.5,-917 90.5,4 -4,4"/>
<!-- http_req -->
<g id="node1" class="node">
<title>http_req</title>
<polygon fill="#4caf50" stroke="black" points="84.25,-913 2.25,-913 2.25,-877 84.25,-877 84.25,-913"/>
<text xml:space="preserve" text-anchor="middle" x="43.25" y="-897.5" font-family="Arial" font-size="10.00" fill="white">HTTP Request</text>
<text xml:space="preserve" text-anchor="middle" x="43.25" y="-885.5" font-family="Arial" font-size="10.00" fill="white">(PUT Object)</text>
</g>
<!-- tls -->
<g id="node2" class="node">
<title>tls</title>
<path fill="#2196f3" stroke="black" d="M64.38,-834C64.38,-834 22.12,-834 22.12,-834 16.12,-834 10.12,-828 10.12,-822 10.12,-822 10.12,-810 10.12,-810 10.12,-804 16.12,-798 22.12,-798 22.12,-798 64.38,-798 64.38,-798 70.38,-798 76.38,-804 76.38,-810 76.38,-810 76.38,-822 76.38,-822 76.38,-828 70.38,-834 64.38,-834"/>
<text xml:space="preserve" text-anchor="middle" x="43.25" y="-818.5" font-family="Arial" font-size="10.00" fill="white">TLS</text>
<text xml:space="preserve" text-anchor="middle" x="43.25" y="-806.5" font-family="Arial" font-size="10.00" fill="white">Termination</text>
</g>
<!-- http_req&#45;&gt;tls -->
<g id="edge1" class="edge">
<title>http_req&#45;&gt;tls</title>
<path fill="none" stroke="#4caf50" stroke-width="2" d="M43.25,-876.68C43.25,-876.68 43.25,-847.52 43.25,-847.52"/>
<polygon fill="#4caf50" stroke="#4caf50" stroke-width="2" points="46.75,-847.52 43.25,-837.52 39.75,-847.52 46.75,-847.52"/>
</g>
<!-- auth -->
<g id="node3" class="node">
<title>auth</title>
<path fill="#2196f3" stroke="black" d="M70.38,-755C70.38,-755 16.12,-755 16.12,-755 10.12,-755 4.12,-749 4.12,-743 4.12,-743 4.12,-731 4.12,-731 4.12,-725 10.12,-719 16.12,-719 16.12,-719 70.38,-719 70.38,-719 76.38,-719 82.38,-725 82.38,-731 82.38,-731 82.38,-743 82.38,-743 82.38,-749 76.38,-755 70.38,-755"/>
<text xml:space="preserve" text-anchor="middle" x="43.25" y="-739.5" font-family="Arial" font-size="10.00" fill="white">Authentication</text>
<text xml:space="preserve" text-anchor="middle" x="43.25" y="-727.5" font-family="Arial" font-size="10.00" fill="white">(S3 Signature)</text>
</g>
<!-- tls&#45;&gt;auth -->
<g id="edge2" class="edge">
<title>tls&#45;&gt;auth</title>
<path fill="none" stroke="#2196f3" stroke-width="2" d="M43.25,-797.68C43.25,-797.68 43.25,-768.52 43.25,-768.52"/>
<polygon fill="#2196f3" stroke="#2196f3" stroke-width="2" points="46.75,-768.52 43.25,-758.52 39.75,-768.52 46.75,-768.52"/>
</g>
<!-- routing -->
<g id="node4" class="node">
<title>routing</title>
<path fill="#2196f3" stroke="black" d="M58.25,-676C58.25,-676 28.25,-676 28.25,-676 22.25,-676 16.25,-670 16.25,-664 16.25,-664 16.25,-652 16.25,-652 16.25,-646 22.25,-640 28.25,-640 28.25,-640 58.25,-640 58.25,-640 64.25,-640 70.25,-646 70.25,-652 70.25,-652 70.25,-664 70.25,-664 70.25,-670 64.25,-676 58.25,-676"/>
<text xml:space="preserve" text-anchor="middle" x="43.25" y="-660.5" font-family="Arial" font-size="10.00" fill="white">Request</text>
<text xml:space="preserve" text-anchor="middle" x="43.25" y="-648.5" font-family="Arial" font-size="10.00" fill="white">Routing</text>
</g>
<!-- auth&#45;&gt;routing -->
<g id="edge3" class="edge">
<title>auth&#45;&gt;routing</title>
<path fill="none" stroke="#2196f3" stroke-width="2" d="M43.25,-718.68C43.25,-718.68 43.25,-689.52 43.25,-689.52"/>
<polygon fill="#2196f3" stroke="#2196f3" stroke-width="2" points="46.75,-689.52 43.25,-679.52 39.75,-689.52 46.75,-689.52"/>
</g>
<!-- validation -->
<g id="node5" class="node">
<title>validation</title>
<path fill="#2196f3" stroke="black" d="M73.38,-597C73.38,-597 13.12,-597 13.12,-597 7.12,-597 1.12,-591 1.12,-585 1.12,-585 1.12,-573 1.12,-573 1.12,-567 7.12,-561 13.12,-561 13.12,-561 73.38,-561 73.38,-561 79.38,-561 85.38,-567 85.38,-573 85.38,-573 85.38,-585 85.38,-585 85.38,-591 79.38,-597 73.38,-597"/>
<text xml:space="preserve" text-anchor="middle" x="43.25" y="-581.5" font-family="Arial" font-size="10.00" fill="white">Validation</text>
<text xml:space="preserve" text-anchor="middle" x="43.25" y="-569.5" font-family="Arial" font-size="10.00" fill="white">&amp; Policy Check</text>
</g>
<!-- routing&#45;&gt;validation -->
<g id="edge4" class="edge">
<title>routing&#45;&gt;validation</title>
<path fill="none" stroke="#2196f3" stroke-width="2" d="M43.25,-639.68C43.25,-639.68 43.25,-610.52 43.25,-610.52"/>
<polygon fill="#2196f3" stroke="#2196f3" stroke-width="2" points="46.75,-610.52 43.25,-600.52 39.75,-610.52 46.75,-610.52"/>
</g>
<!-- lifecycle -->
<g id="node6" class="node">
<title>lifecycle</title>
<path fill="#2196f3" stroke="black" d="M67.38,-518C67.38,-518 19.12,-518 19.12,-518 13.12,-518 7.12,-512 7.12,-506 7.12,-506 7.12,-494 7.12,-494 7.12,-488 13.12,-482 19.12,-482 19.12,-482 67.38,-482 67.38,-482 73.38,-482 79.38,-488 79.38,-494 79.38,-494 79.38,-506 79.38,-506 79.38,-512 73.38,-518 67.38,-518"/>
<text xml:space="preserve" text-anchor="middle" x="43.25" y="-502.5" font-family="Arial" font-size="10.00" fill="white">Lifecycle</text>
<text xml:space="preserve" text-anchor="middle" x="43.25" y="-490.5" font-family="Arial" font-size="10.00" fill="white">Management</text>
</g>
<!-- validation&#45;&gt;lifecycle -->
<g id="edge5" class="edge">
<title>validation&#45;&gt;lifecycle</title>
<path fill="none" stroke="#2196f3" stroke-width="2" d="M43.25,-560.68C43.25,-560.68 43.25,-531.52 43.25,-531.52"/>
<polygon fill="#2196f3" stroke="#2196f3" stroke-width="2" points="46.75,-531.52 43.25,-521.52 39.75,-531.52 46.75,-531.52"/>
</g>
<!-- ec_encoding -->
<g id="node7" class="node">
<title>ec_encoding</title>
<path fill="#ff9800" stroke="black" d="M74.5,-439C74.5,-439 12,-439 12,-439 6,-439 0,-433 0,-427 0,-427 0,-415 0,-415 0,-409 6,-403 12,-403 12,-403 74.5,-403 74.5,-403 80.5,-403 86.5,-409 86.5,-415 86.5,-415 86.5,-427 86.5,-427 86.5,-433 80.5,-439 74.5,-439"/>
<text xml:space="preserve" text-anchor="middle" x="43.25" y="-423.5" font-family="Arial" font-size="10.00" fill="white">Erasure Coding</text>
<text xml:space="preserve" text-anchor="middle" x="43.25" y="-411.5" font-family="Arial" font-size="10.00" fill="white">(Reed&#45;Solomon)</text>
</g>
<!-- lifecycle&#45;&gt;ec_encoding -->
<g id="edge6" class="edge">
<title>lifecycle&#45;&gt;ec_encoding</title>
<path fill="none" stroke="#ff9800" stroke-width="2" d="M43.25,-481.68C43.25,-481.68 43.25,-452.52 43.25,-452.52"/>
<polygon fill="#ff9800" stroke="#ff9800" stroke-width="2" points="46.75,-452.52 43.25,-442.52 39.75,-452.52 46.75,-452.52"/>
</g>
<!-- encryption -->
<g id="node8" class="node">
<title>encryption</title>
<path fill="#ff9800" stroke="black" d="M62.5,-360C62.5,-360 24,-360 24,-360 18,-360 12,-354 12,-348 12,-348 12,-336 12,-336 12,-330 18,-324 24,-324 24,-324 62.5,-324 62.5,-324 68.5,-324 74.5,-330 74.5,-336 74.5,-336 74.5,-348 74.5,-348 74.5,-354 68.5,-360 62.5,-360"/>
<text xml:space="preserve" text-anchor="middle" x="43.25" y="-344.5" font-family="Arial" font-size="10.00" fill="white">Encryption</text>
<text xml:space="preserve" text-anchor="middle" x="43.25" y="-332.5" font-family="Arial" font-size="10.00" fill="white">(SSE)</text>
</g>
<!-- ec_encoding&#45;&gt;encryption -->
<g id="edge7" class="edge">
<title>ec_encoding&#45;&gt;encryption</title>
<path fill="none" stroke="#ff9800" stroke-width="2" d="M43.25,-402.68C43.25,-402.68 43.25,-373.52 43.25,-373.52"/>
<polygon fill="#ff9800" stroke="#ff9800" stroke-width="2" points="46.75,-373.52 43.25,-363.52 39.75,-373.52 46.75,-373.52"/>
</g>
<!-- checksum -->
<g id="node9" class="node">
<title>checksum</title>
<path fill="#ff9800" stroke="black" d="M62.88,-281C62.88,-281 23.62,-281 23.62,-281 17.62,-281 11.62,-275 11.62,-269 11.62,-269 11.62,-257 11.62,-257 11.62,-251 17.62,-245 23.62,-245 23.62,-245 62.88,-245 62.88,-245 68.88,-245 74.88,-251 74.88,-257 74.88,-257 74.88,-269 74.88,-269 74.88,-275 68.88,-281 62.88,-281"/>
<text xml:space="preserve" text-anchor="middle" x="43.25" y="-265.5" font-family="Arial" font-size="10.00" fill="white">Checksum</text>
<text xml:space="preserve" text-anchor="middle" x="43.25" y="-253.5" font-family="Arial" font-size="10.00" fill="white">Hash</text>
</g>
<!-- encryption&#45;&gt;checksum -->
<g id="edge8" class="edge">
<title>encryption&#45;&gt;checksum</title>
<path fill="none" stroke="#ff9800" stroke-width="2" d="M43.25,-323.68C43.25,-323.68 43.25,-294.52 43.25,-294.52"/>
<polygon fill="#ff9800" stroke="#ff9800" stroke-width="2" points="46.75,-294.52 43.25,-284.52 39.75,-294.52 46.75,-294.52"/>
</g>
<!-- compress -->
<g id="node10" class="node">
<title>compress</title>
<path fill="#ff9800" stroke="black" d="M68.12,-202C68.12,-202 18.38,-202 18.38,-202 12.38,-202 6.38,-196 6.38,-190 6.38,-190 6.38,-178 6.38,-178 6.38,-172 12.38,-166 18.38,-166 18.38,-166 68.12,-166 68.12,-166 74.12,-166 80.12,-172 80.12,-178 80.12,-178 80.12,-190 80.12,-190 80.12,-196 74.12,-202 68.12,-202"/>
<text xml:space="preserve" text-anchor="middle" x="43.25" y="-186.5" font-family="Arial" font-size="10.00" fill="white">Compression</text>
<text xml:space="preserve" text-anchor="middle" x="43.25" y="-174.5" font-family="Arial" font-size="10.00" fill="white">(Optional)</text>
</g>
<!-- checksum&#45;&gt;compress -->
<g id="edge9" class="edge">
<title>checksum&#45;&gt;compress</title>
<path fill="none" stroke="#ff9800" stroke-width="2" d="M43.25,-244.68C43.25,-244.68 43.25,-215.52 43.25,-215.52"/>
<polygon fill="#ff9800" stroke="#ff9800" stroke-width="2" points="46.75,-215.52 43.25,-205.52 39.75,-215.52 46.75,-215.52"/>
</g>
<!-- write -->
<g id="node11" class="node">
<title>write</title>
<path fill="#2196f3" stroke="black" d="M62.12,-123C62.12,-123 24.38,-123 24.38,-123 18.38,-123 12.38,-117 12.38,-111 12.38,-111 12.38,-99 12.38,-99 12.38,-93 18.38,-87 24.38,-87 24.38,-87 62.12,-87 62.12,-87 68.12,-87 74.12,-93 74.12,-99 74.12,-99 74.12,-111 74.12,-111 74.12,-117 68.12,-123 62.12,-123"/>
<text xml:space="preserve" text-anchor="middle" x="43.25" y="-107.5" font-family="Arial" font-size="10.00" fill="white">Zero&#45;Copy</text>
<text xml:space="preserve" text-anchor="middle" x="43.25" y="-95.5" font-family="Arial" font-size="10.00" fill="white">Write</text>
</g>
<!-- compress&#45;&gt;write -->
<g id="edge10" class="edge">
<title>compress&#45;&gt;write</title>
<path fill="none" stroke="#2196f3" stroke-width="2" d="M43.25,-165.68C43.25,-165.68 43.25,-136.52 43.25,-136.52"/>
<polygon fill="#2196f3" stroke="#2196f3" stroke-width="2" points="46.75,-136.52 43.25,-126.52 39.75,-136.52 46.75,-136.52"/>
</g>
<!-- disk_pool -->
<g id="node12" class="node">
<title>disk_pool</title>
<path fill="#9c27b0" stroke="black" d="M77.88,-40C77.88,-42.21 62.36,-44 43.25,-44 24.14,-44 8.62,-42.21 8.62,-40 8.62,-40 8.62,-4 8.62,-4 8.62,-1.79 24.14,0 43.25,0 62.36,0 77.88,-1.79 77.88,-4 77.88,-4 77.88,-40 77.88,-40"/>
<path fill="none" stroke="black" d="M77.88,-40C77.88,-37.79 62.36,-36 43.25,-36 24.14,-36 8.62,-37.79 8.62,-40"/>
<text xml:space="preserve" text-anchor="middle" x="43.25" y="-24.5" font-family="Arial" font-size="10.00" fill="white">Disk Pool</text>
<text xml:space="preserve" text-anchor="middle" x="43.25" y="-12.5" font-family="Arial" font-size="10.00" fill="white">(Distributed)</text>
</g>
<!-- write&#45;&gt;disk_pool -->
<g id="edge11" class="edge">
<title>write&#45;&gt;disk_pool</title>
<path fill="none" stroke="#9c27b0" stroke-width="2" d="M43.25,-86.58C43.25,-86.58 43.25,-57.23 43.25,-57.23"/>
<polygon fill="#9c27b0" stroke="#9c27b0" stroke-width="2" points="46.75,-57.23 43.25,-47.23 39.75,-57.23 46.75,-57.23"/>
</g>
</g>
</svg>
