<?xml version="1.0" encoding="UTF-8" standalone="no"?>
<!DOCTYPE svg PUBLIC "-//W3C//DTD SVG 1.1//EN"
 "http://www.w3.org/Graphics/SVG/1.1/DTD/svg11.dtd">
<!-- Generated by graphviz version 14.1.2 (0)
 -->
<!-- Title: scrcpy_architecture Pages: 1 -->
<svg width="742pt" height="927pt"
 viewBox="0.00 0.00 742.00 927.00" xmlns="http://www.w3.org/2000/svg" xmlns:xlink="http://www.w3.org/1999/xlink">
<g id="graph0" class="graph" transform="scale(1 1) rotate(0) translate(4 922.5)">
<title>scrcpy_architecture</title>
<text xml:space="preserve" text-anchor="middle" x="367" y="-7.2" font-family="Times New Roman,serif" font-size="14.00">scrcpy &#45; Architecture Overview</text>
<!-- android -->
<g id="node1" class="node">
<title>android</title>
<path fill="#4caf50" stroke="black" d="M635,-918.5C635,-918.5 443,-918.5 443,-918.5 437,-918.5 431,-912.5 431,-906.5 431,-906.5 431,-858.5 431,-858.5 431,-852.5 437,-846.5 443,-846.5 443,-846.5 635,-846.5 635,-846.5 641,-846.5 647,-852.5 647,-858.5 647,-858.5 647,-906.5 647,-906.5 647,-912.5 641,-918.5 635,-918.5"/>
<text xml:space="preserve" text-anchor="middle" x="539" y="-885.35" font-family="Arial Bold" font-size="12.00" fill="white">Android Device</text>
<text xml:space="preserve" text-anchor="middle" x="539" y="-871.1" font-family="Arial Bold" font-size="12.00" fill="white">(Java Server)</text>
</g>
<!-- server -->
<g id="node2" class="node">
<title>server</title>
<path fill="#4caf50" stroke="black" d="M635,-781.5C635,-781.5 443,-781.5 443,-781.5 437,-781.5 431,-775.5 431,-769.5 431,-769.5 431,-721.5 431,-721.5 431,-715.5 437,-709.5 443,-709.5 443,-709.5 635,-709.5 635,-709.5 641,-709.5 647,-715.5 647,-721.5 647,-721.5 647,-769.5 647,-769.5 647,-775.5 641,-781.5 635,-781.5"/>
<text xml:space="preserve" text-anchor="middle" x="539" y="-748.35" font-family="Arial Bold" font-size="12.00" fill="white">scrcpy&#45;server.jar</text>
<text xml:space="preserve" text-anchor="middle" x="539" y="-734.1" font-family="Arial Bold" font-size="12.00" fill="white">(Pushed via ADB)</text>
</g>
<!-- android&#45;&gt;server -->
<g id="edge1" class="edge">
<title>android&#45;&gt;server</title>
<path fill="none" stroke="#4caf50" stroke-width="2" d="M539,-846.15C539,-846.15 539,-794.58 539,-794.58"/>
<polygon fill="#4caf50" stroke="#4caf50" stroke-width="2" points="542.5,-794.58 539,-784.58 535.5,-794.58 542.5,-794.58"/>
<text xml:space="preserve" text-anchor="middle" x="507.88" y="-823.56" font-family="Times New Roman,serif" font-size="14.00">push server</text>
</g>
<!-- adb -->
<g id="node3" class="node">
<title>adb</title>
<path fill="#ff9800" stroke="black" d="M635,-644.5C635,-644.5 443,-644.5 443,-644.5 437,-644.5 431,-638.5 431,-632.5 431,-632.5 431,-584.5 431,-584.5 431,-578.5 437,-572.5 443,-572.5 443,-572.5 635,-572.5 635,-572.5 641,-572.5 647,-578.5 647,-584.5 647,-584.5 647,-632.5 647,-632.5 647,-638.5 641,-644.5 635,-644.5"/>
<text xml:space="preserve" text-anchor="middle" x="539" y="-611.55" font-family="Arial" font-size="11.00" fill="white">ADB Connection</text>
<text xml:space="preserve" text-anchor="middle" x="539" y="-598.05" font-family="Arial" font-size="11.00" fill="white">(USB or TCP/IP)</text>
</g>
<!-- server&#45;&gt;adb -->
<g id="edge2" class="edge">
<title>server&#45;&gt;adb</title>
<path fill="none" stroke="#ff9800" stroke-width="2" d="M539,-709.15C539,-709.15 539,-657.58 539,-657.58"/>
<polygon fill="#ff9800" stroke="#ff9800" stroke-width="2" points="542.5,-657.58 539,-647.58 535.5,-657.58 542.5,-657.58"/>
<text xml:space="preserve" text-anchor="middle" x="506" y="-686.56" font-family="Times New Roman,serif" font-size="14.00">ADB tunnel</text>
</g>
<!-- socket -->
<g id="node4" class="node">
<title>socket</title>
<path fill="#ff9800" stroke="black" d="M635,-507.5C635,-507.5 443,-507.5 443,-507.5 437,-507.5 431,-501.5 431,-495.5 431,-495.5 431,-447.5 431,-447.5 431,-441.5 437,-435.5 443,-435.5 443,-435.5 635,-435.5 635,-435.5 641,-435.5 647,-441.5 647,-447.5 647,-447.5 647,-495.5 647,-495.5 647,-501.5 641,-507.5 635,-507.5"/>
<text xml:space="preserve" text-anchor="middle" x="539" y="-474.55" font-family="Arial" font-size="11.00" fill="white">Local Socket</text>
<text xml:space="preserve" text-anchor="middle" x="539" y="-461.05" font-family="Arial" font-size="11.00" fill="white">(Video + Audio + Control)</text>
</g>
<!-- adb&#45;&gt;socket -->
<g id="edge3" class="edge">
<title>adb&#45;&gt;socket</title>
<path fill="none" stroke="#ff9800" stroke-width="2" d="M539,-572.15C539,-572.15 539,-520.58 539,-520.58"/>
<polygon fill="#ff9800" stroke="#ff9800" stroke-width="2" points="542.5,-520.58 539,-510.58 535.5,-520.58 542.5,-520.58"/>
<text xml:space="preserve" text-anchor="middle" x="517.62" y="-549.56" font-family="Times New Roman,serif" font-size="14.00">forward</text>
</g>
<!-- client -->
<g id="node5" class="node">
<title>client</title>
<path fill="#2196f3" stroke="black" d="M549,-370.5C549,-370.5 357,-370.5 357,-370.5 351,-370.5 345,-364.5 345,-358.5 345,-358.5 345,-310.5 345,-310.5 345,-304.5 351,-298.5 357,-298.5 357,-298.5 549,-298.5 549,-298.5 555,-298.5 561,-304.5 561,-310.5 561,-310.5 561,-358.5 561,-358.5 561,-364.5 555,-370.5 549,-370.5"/>
<text xml:space="preserve" text-anchor="middle" x="453" y="-337.35" font-family="Arial Bold" font-size="12.00" fill="white">scrcpy Client</text>
<text xml:space="preserve" text-anchor="middle" x="453" y="-323.1" font-family="Arial Bold" font-size="12.00" fill="white">(C + SDL3)</text>
</g>
<!-- socket&#45;&gt;client -->
<g id="edge4" class="edge">
<title>socket&#45;&gt;client</title>
<path fill="none" stroke="#2196f3" stroke-width="2" d="M496,-435.15C496,-435.15 496,-383.58 496,-383.58"/>
<polygon fill="#2196f3" stroke="#2196f3" stroke-width="2" points="499.5,-383.58 496,-373.58 492.5,-383.58 499.5,-383.58"/>
<text xml:space="preserve" text-anchor="middle" x="475" y="-412.56" font-family="Times New Roman,serif" font-size="14.00">connect</text>
</g>
<!-- decoder -->
<g id="node6" class="node">
<title>decoder</title>
<path fill="#2196f3" stroke="black" d="M463,-233.5C463,-233.5 271,-233.5 271,-233.5 265,-233.5 259,-227.5 259,-221.5 259,-221.5 259,-173.5 259,-173.5 259,-167.5 265,-161.5 271,-161.5 271,-161.5 463,-161.5 463,-161.5 469,-161.5 475,-167.5 475,-173.5 475,-173.5 475,-221.5 475,-221.5 475,-227.5 469,-233.5 463,-233.5"/>
<text xml:space="preserve" text-anchor="middle" x="367" y="-200.35" font-family="Arial Bold" font-size="12.00" fill="white">Video/Audio</text>
<text xml:space="preserve" text-anchor="middle" x="367" y="-186.1" font-family="Arial Bold" font-size="12.00" fill="white">Decoder (FFmpeg)</text>
</g>
<!-- client&#45;&gt;decoder -->
<g id="edge5" class="edge">
<title>client&#45;&gt;decoder</title>
<path fill="none" stroke="#2196f3" stroke-width="2" d="M410,-298.15C410,-298.15 410,-246.58 410,-246.58"/>
<polygon fill="#2196f3" stroke="#2196f3" stroke-width="2" points="413.5,-246.58 410,-236.58 406.5,-246.58 413.5,-246.58"/>
<text xml:space="preserve" text-anchor="middle" x="372.88" y="-275.56" font-family="Times New Roman,serif" font-size="14.00">media stream</text>
</g>
<!-- controller -->
<g id="node7" class="node">
<title>controller</title>
<path fill="#2196f3" stroke="black" d="M722,-233.5C722,-233.5 530,-233.5 530,-233.5 524,-233.5 518,-227.5 518,-221.5 518,-221.5 518,-173.5 518,-173.5 518,-167.5 524,-161.5 530,-161.5 530,-161.5 722,-161.5 722,-161.5 728,-161.5 734,-167.5 734,-173.5 734,-173.5 734,-221.5 734,-221.5 734,-227.5 728,-233.5 722,-233.5"/>
<text xml:space="preserve" text-anchor="middle" x="626" y="-200.35" font-family="Arial Bold" font-size="12.00" fill="white">Controller</text>
<text xml:space="preserve" text-anchor="middle" x="626" y="-186.1" font-family="Arial Bold" font-size="12.00" fill="white">(Input Events)</text>
</g>
<!-- client&#45;&gt;controller -->
<g id="edge6" class="edge">
<title>client&#45;&gt;controller</title>
<path fill="none" stroke="#2196f3" stroke-width="2" d="M539.5,-298.15C539.5,-298.15 539.5,-246.58 539.5,-246.58"/>
<polygon fill="#2196f3" stroke="#2196f3" stroke-width="2" points="543,-246.58 539.5,-236.58 536,-246.58 543,-246.58"/>
<text xml:space="preserve" text-anchor="middle" x="504.25" y="-275.56" font-family="Times New Roman,serif" font-size="14.00">control msgs</text>
</g>
<!-- display -->
<g id="node8" class="node">
<title>display</title>
<path fill="#9c27b0" stroke="black" d="M204,-96.5C204,-96.5 12,-96.5 12,-96.5 6,-96.5 0,-90.5 0,-84.5 0,-84.5 0,-36.5 0,-36.5 0,-30.5 6,-24.5 12,-24.5 12,-24.5 204,-24.5 204,-24.5 210,-24.5 216,-30.5 216,-36.5 216,-36.5 216,-84.5 216,-84.5 216,-90.5 210,-96.5 204,-96.5"/>
<text xml:space="preserve" text-anchor="middle" x="108" y="-63.55" font-family="Arial" font-size="11.00" fill="white">Desktop Display</text>
<text xml:space="preserve" text-anchor="middle" x="108" y="-50.05" font-family="Arial" font-size="11.00" fill="white">(SDL3 Window)</text>
</g>
<!-- decoder&#45;&gt;display -->
<g id="edge8" class="edge">
<title>decoder&#45;&gt;display</title>
<path fill="none" stroke="#9c27b0" stroke-width="2" d="M258.66,-197.5C187.69,-197.5 108,-197.5 108,-197.5 108,-197.5 108,-109.88 108,-109.88"/>
<polygon fill="#9c27b0" stroke="#9c27b0" stroke-width="2" points="111.5,-109.88 108,-99.88 104.5,-109.88 111.5,-109.88"/>
<text xml:space="preserve" text-anchor="middle" x="122.27" y="-200.7" font-family="Times New Roman,serif" font-size="14.00">render</text>
</g>
<!-- recorder -->
<g id="node9" class="node">
<title>recorder</title>
<path fill="#9c27b0" stroke="black" d="M463,-96.5C463,-96.5 271,-96.5 271,-96.5 265,-96.5 259,-90.5 259,-84.5 259,-84.5 259,-36.5 259,-36.5 259,-30.5 265,-24.5 271,-24.5 271,-24.5 463,-24.5 463,-24.5 469,-24.5 475,-30.5 475,-36.5 475,-36.5 475,-84.5 475,-84.5 475,-90.5 469,-96.5 463,-96.5"/>
<text xml:space="preserve" text-anchor="middle" x="367" y="-63.55" font-family="Arial" font-size="11.00" fill="white">File Recorder</text>
<text xml:space="preserve" text-anchor="middle" x="367" y="-50.05" font-family="Arial" font-size="11.00" fill="white">(MP4/MKV/TS)</text>
</g>
<!-- decoder&#45;&gt;recorder -->
<g id="edge9" class="edge">
<title>decoder&#45;&gt;recorder</title>
<path fill="none" stroke="#9c27b0" stroke-width="1.5" stroke-dasharray="5,2" d="M367,-161.15C367,-161.15 367,-108.82 367,-108.82"/>
<polygon fill="#9c27b0" stroke="#9c27b0" stroke-width="1.5" points="370.5,-108.82 367,-98.82 363.5,-108.82 370.5,-108.82"/>
<text xml:space="preserve" text-anchor="middle" x="349.75" y="-138.18" font-family="Times New Roman,serif" font-size="14.00">record</text>
</g>
<!-- v4l2 -->
<g id="node10" class="node">
<title>v4l2</title>
<path fill="#9c27b0" stroke="black" d="M722,-96.5C722,-96.5 530,-96.5 530,-96.5 524,-96.5 518,-90.5 518,-84.5 518,-84.5 518,-36.5 518,-36.5 518,-30.5 524,-24.5 530,-24.5 530,-24.5 722,-24.5 722,-24.5 728,-24.5 734,-30.5 734,-36.5 734,-36.5 734,-84.5 734,-84.5 734,-90.5 728,-96.5 722,-96.5"/>
<text xml:space="preserve" text-anchor="middle" x="626" y="-63.55" font-family="Arial" font-size="11.00" fill="white">V4L2 Sink</text>
<text xml:space="preserve" text-anchor="middle" x="626" y="-50.05" font-family="Arial" font-size="11.00" fill="white">(Linux Webcam)</text>
</g>
<!-- decoder&#45;&gt;v4l2 -->
<g id="edge10" class="edge">
<title>decoder&#45;&gt;v4l2</title>
<path fill="none" stroke="#9c27b0" stroke-width="1.5" stroke-dasharray="5,2" d="M475.41,-197.5C488.02,-197.5 496.5,-197.5 496.5,-197.5 496.5,-197.5 496.5,-60.5 496.5,-60.5 496.5,-60.5 505.32,-60.5 505.32,-60.5"/>
<polygon fill="#9c27b0" stroke="#9c27b0" stroke-width="1.5" points="505.32,-64 515.32,-60.5 505.32,-57 505.32,-64"/>
<text xml:space="preserve" text-anchor="middle" x="480.75" y="-138.34" font-family="Times New Roman,serif" font-size="14.00">V4L2</text>
</g>
<!-- controller&#45;&gt;socket -->
<g id="edge7" class="edge">
<title>controller&#45;&gt;socket</title>
<path fill="none" stroke="#f44336" stroke-width="1.5" stroke-dasharray="5,2" d="M604,-233.89C604,-233.89 604,-423.13 604,-423.13"/>
<polygon fill="#f44336" stroke="#f44336" stroke-width="1.5" points="600.5,-423.13 604,-433.13 607.5,-423.13 600.5,-423.13"/>
<text xml:space="preserve" text-anchor="middle" x="632.12" y="-331.71" font-family="Times New Roman,serif" font-size="14.00">send input</text>
</g>
</g>
</svg>
