<?xml version="1.0" encoding="UTF-8" standalone="no"?>
<!DOCTYPE svg PUBLIC "-//W3C//DTD SVG 1.1//EN"
 "http://www.w3.org/Graphics/SVG/1.1/DTD/svg11.dtd">
<!-- Generated by graphviz version 14.1.2 (0)
 -->
<!-- Title: scrcpy_workflow Pages: 1 -->
<svg width="770pt" height="1051pt"
 viewBox="0.00 0.00 770.00 1051.00" xmlns="http://www.w3.org/2000/svg" xmlns:xlink="http://www.w3.org/1999/xlink">
<g id="graph0" class="graph" transform="scale(1 1) rotate(0) translate(4 1046.5)">
<title>scrcpy_workflow</title>
<text xml:space="preserve" text-anchor="middle" x="381.2" y="-7.2" font-family="Times New Roman,serif" font-size="14.00">scrcpy &#45; Connection and Streaming Workflow</text>
<!-- s1 -->
<g id="node1" class="node">
<title>s1</title>
<path fill="#2196f3" stroke="black" d="M484.4,-1042.5C484.4,-1042.5 278,-1042.5 278,-1042.5 272,-1042.5 266,-1036.5 266,-1030.5 266,-1030.5 266,-982.5 266,-982.5 266,-976.5 272,-970.5 278,-970.5 278,-970.5 484.4,-970.5 484.4,-970.5 490.4,-970.5 496.4,-976.5 496.4,-982.5 496.4,-982.5 496.4,-1030.5 496.4,-1030.5 496.4,-1036.5 490.4,-1042.5 484.4,-1042.5"/>
<text xml:space="preserve" text-anchor="middle" x="381.2" y="-1009.55" font-family="Arial Bold" font-size="11.00" fill="white">1. Launch scrcpy</text>
<text xml:space="preserve" text-anchor="middle" x="381.2" y="-996.05" font-family="Arial Bold" font-size="11.00" fill="white">on Desktop</text>
</g>
<!-- s2 -->
<g id="node2" class="node">
<title>s2</title>
<path fill="#2196f3" stroke="black" d="M484.4,-912.5C484.4,-912.5 278,-912.5 278,-912.5 272,-912.5 266,-906.5 266,-900.5 266,-900.5 266,-852.5 266,-852.5 266,-846.5 272,-840.5 278,-840.5 278,-840.5 484.4,-840.5 484.4,-840.5 490.4,-840.5 496.4,-846.5 496.4,-852.5 496.4,-852.5 496.4,-900.5 496.4,-900.5 496.4,-906.5 490.4,-912.5 484.4,-912.5"/>
<text xml:space="preserve" text-anchor="middle" x="381.2" y="-879.55" font-family="Arial Bold" font-size="11.00" fill="white">2. ADB Detect</text>
<text xml:space="preserve" text-anchor="middle" x="381.2" y="-866.05" font-family="Arial Bold" font-size="11.00" fill="white">Android Device</text>
</g>
<!-- s1&#45;&gt;s2 -->
<g id="edge1" class="edge">
<title>s1&#45;&gt;s2</title>
<path fill="none" stroke="#2196f3" stroke-width="2" d="M381.2,-970.29C381.2,-970.29 381.2,-926 381.2,-926"/>
<polygon fill="#2196f3" stroke="#2196f3" stroke-width="2" points="384.7,-926 381.2,-916 377.7,-926 384.7,-926"/>
</g>
<!-- d1 -->
<g id="node5" class="node">
<title>d1</title>
<polygon fill="#ff9800" stroke="black" points="381.2,-782.5 291.2,-728.5 381.2,-674.5 471.2,-728.5 381.2,-782.5"/>
<text xml:space="preserve" text-anchor="middle" x="381.2" y="-731" font-family="Arial Bold" font-size="10.00" fill="white">Connection</text>
<text xml:space="preserve" text-anchor="middle" x="381.2" y="-719" font-family="Arial Bold" font-size="10.00" fill="white">Mode?</text>
</g>
<!-- s2&#45;&gt;d1 -->
<g id="edge2" class="edge">
<title>s2&#45;&gt;d1</title>
<path fill="none" stroke="#2196f3" stroke-width="2" d="M381.2,-840.3C381.2,-840.3 381.2,-795.84 381.2,-795.84"/>
<polygon fill="#2196f3" stroke="#2196f3" stroke-width="2" points="384.7,-795.84 381.2,-785.84 377.7,-795.84 384.7,-795.84"/>
</g>
<!-- s3 -->
<g id="node3" class="node">
<title>s3</title>
<path fill="#2196f3" stroke="black" d="M351.4,-486.5C351.4,-486.5 145,-486.5 145,-486.5 139,-486.5 133,-480.5 133,-474.5 133,-474.5 133,-426.5 133,-426.5 133,-420.5 139,-414.5 145,-414.5 145,-414.5 351.4,-414.5 351.4,-414.5 357.4,-414.5 363.4,-420.5 363.4,-426.5 363.4,-426.5 363.4,-474.5 363.4,-474.5 363.4,-480.5 357.4,-486.5 351.4,-486.5"/>
<text xml:space="preserve" text-anchor="middle" x="248.2" y="-453.55" font-family="Arial Bold" font-size="11.00" fill="white">3. Push Server JAR</text>
<text xml:space="preserve" text-anchor="middle" x="248.2" y="-440.05" font-family="Arial Bold" font-size="11.00" fill="white">to /data/local/tmp</text>
</g>
<!-- s4 -->
<g id="node4" class="node">
<title>s4</title>
<path fill="#2196f3" stroke="black" d="M351.4,-356.5C351.4,-356.5 145,-356.5 145,-356.5 139,-356.5 133,-350.5 133,-344.5 133,-344.5 133,-296.5 133,-296.5 133,-290.5 139,-284.5 145,-284.5 145,-284.5 351.4,-284.5 351.4,-284.5 357.4,-284.5 363.4,-290.5 363.4,-296.5 363.4,-296.5 363.4,-344.5 363.4,-344.5 363.4,-350.5 357.4,-356.5 351.4,-356.5"/>
<text xml:space="preserve" text-anchor="middle" x="248.2" y="-323.55" font-family="Arial Bold" font-size="11.00" fill="white">4. Start Server</text>
<text xml:space="preserve" text-anchor="middle" x="248.2" y="-310.05" font-family="Arial Bold" font-size="11.00" fill="white">on Android</text>
</g>
<!-- s3&#45;&gt;s4 -->
<g id="edge8" class="edge">
<title>s3&#45;&gt;s4</title>
<path fill="none" stroke="#2196f3" stroke-width="2" d="M248.2,-414.29C248.2,-414.29 248.2,-370 248.2,-370"/>
<polygon fill="#2196f3" stroke="#2196f3" stroke-width="2" points="251.7,-370 248.2,-360 244.7,-370 251.7,-370"/>
</g>
<!-- s6 -->
<g id="node8" class="node">
<title>s6</title>
<path fill="#4caf50" stroke="black" d="M351.4,-226.5C351.4,-226.5 145,-226.5 145,-226.5 139,-226.5 133,-220.5 133,-214.5 133,-214.5 133,-166.5 133,-166.5 133,-160.5 139,-154.5 145,-154.5 145,-154.5 351.4,-154.5 351.4,-154.5 357.4,-154.5 363.4,-160.5 363.4,-166.5 363.4,-166.5 363.4,-214.5 363.4,-214.5 363.4,-220.5 357.4,-226.5 351.4,-226.5"/>
<text xml:space="preserve" text-anchor="middle" x="248.2" y="-193.55" font-family="Arial" font-size="11.00" fill="white">6. Establish Socket</text>
<text xml:space="preserve" text-anchor="middle" x="248.2" y="-180.05" font-family="Arial" font-size="11.00" fill="white">Video + Audio + Ctrl</text>
</g>
<!-- s4&#45;&gt;s6 -->
<g id="edge9" class="edge">
<title>s4&#45;&gt;s6</title>
<path fill="none" stroke="#2196f3" stroke-width="2" d="M248.2,-284.29C248.2,-284.29 248.2,-240 248.2,-240"/>
<polygon fill="#2196f3" stroke="#2196f3" stroke-width="2" points="251.7,-240 248.2,-230 244.7,-240 251.7,-240"/>
</g>
<!-- s5a -->
<g id="node6" class="node">
<title>s5a</title>
<path fill="#2196f3" stroke="black" d="M218.4,-616.5C218.4,-616.5 12,-616.5 12,-616.5 6,-616.5 0,-610.5 0,-604.5 0,-604.5 0,-556.5 0,-556.5 0,-550.5 6,-544.5 12,-544.5 12,-544.5 218.4,-544.5 218.4,-544.5 224.4,-544.5 230.4,-550.5 230.4,-556.5 230.4,-556.5 230.4,-604.5 230.4,-604.5 230.4,-610.5 224.4,-616.5 218.4,-616.5"/>
<text xml:space="preserve" text-anchor="middle" x="115.2" y="-583.55" font-family="Arial Bold" font-size="11.00" fill="white">5a. USB ADB</text>
<text xml:space="preserve" text-anchor="middle" x="115.2" y="-570.05" font-family="Arial Bold" font-size="11.00" fill="white">Forward Port</text>
</g>
<!-- d1&#45;&gt;s5a -->
<g id="edge3" class="edge">
<title>d1&#45;&gt;s5a</title>
<path fill="none" stroke="#4caf50" stroke-width="2" d="M290.4,-728.5C213.34,-728.5 115.2,-728.5 115.2,-728.5 115.2,-728.5 115.2,-629.73 115.2,-629.73"/>
<polygon fill="#4caf50" stroke="#4caf50" stroke-width="2" points="118.7,-629.73 115.2,-619.73 111.7,-629.73 118.7,-629.73"/>
<text xml:space="preserve" text-anchor="middle" x="140.29" y="-731.7" font-family="Times New Roman,serif" font-size="14.00">USB</text>
</g>
<!-- s5b -->
<g id="node7" class="node">
<title>s5b</title>
<path fill="#2196f3" stroke="black" d="M484.4,-616.5C484.4,-616.5 278,-616.5 278,-616.5 272,-616.5 266,-610.5 266,-604.5 266,-604.5 266,-556.5 266,-556.5 266,-550.5 272,-544.5 278,-544.5 278,-544.5 484.4,-544.5 484.4,-544.5 490.4,-544.5 496.4,-550.5 496.4,-556.5 496.4,-556.5 496.4,-604.5 496.4,-604.5 496.4,-610.5 490.4,-616.5 484.4,-616.5"/>
<text xml:space="preserve" text-anchor="middle" x="381.2" y="-583.55" font-family="Arial Bold" font-size="11.00" fill="white">5b. TCP/IP</text>
<text xml:space="preserve" text-anchor="middle" x="381.2" y="-570.05" font-family="Arial Bold" font-size="11.00" fill="white">Reverse Port</text>
</g>
<!-- d1&#45;&gt;s5b -->
<g id="edge4" class="edge">
<title>d1&#45;&gt;s5b</title>
<path fill="none" stroke="#ff9800" stroke-width="2" d="M381.2,-674.23C381.2,-674.23 381.2,-629.79 381.2,-629.79"/>
<polygon fill="#ff9800" stroke="#ff9800" stroke-width="2" points="384.7,-629.79 381.2,-619.79 377.7,-629.79 384.7,-629.79"/>
<text xml:space="preserve" text-anchor="middle" x="360.95" y="-655.21" font-family="Times New Roman,serif" font-size="14.00">TCP/IP</text>
</g>
<!-- err -->
<g id="node10" class="node">
<title>err</title>
<path fill="#f44336" stroke="black" d="M750.4,-616.5C750.4,-616.5 544,-616.5 544,-616.5 538,-616.5 532,-610.5 532,-604.5 532,-604.5 532,-556.5 532,-556.5 532,-550.5 538,-544.5 544,-544.5 544,-544.5 750.4,-544.5 750.4,-544.5 756.4,-544.5 762.4,-550.5 762.4,-556.5 762.4,-556.5 762.4,-604.5 762.4,-604.5 762.4,-610.5 756.4,-616.5 750.4,-616.5"/>
<text xml:space="preserve" text-anchor="middle" x="647.2" y="-583.55" font-family="Arial" font-size="11.00" fill="white">Error:</text>
<text xml:space="preserve" text-anchor="middle" x="647.2" y="-570.05" font-family="Arial" font-size="11.00" fill="white">Device Not Found</text>
</g>
<!-- d1&#45;&gt;err -->
<g id="edge5" class="edge">
<title>d1&#45;&gt;err</title>
<path fill="none" stroke="#f44336" stroke-width="1.5" stroke-dasharray="5,2" d="M472,-728.5C549.06,-728.5 647.2,-728.5 647.2,-728.5 647.2,-728.5 647.2,-628.98 647.2,-628.98"/>
<polygon fill="#f44336" stroke="#f44336" stroke-width="1.5" points="650.7,-628.98 647.2,-618.98 643.7,-628.98 650.7,-628.98"/>
<text xml:space="preserve" text-anchor="middle" x="594.74" y="-731.7" font-family="Times New Roman,serif" font-size="14.00">None</text>
</g>
<!-- s5a&#45;&gt;s3 -->
<g id="edge6" class="edge">
<title>s5a&#45;&gt;s3</title>
<path fill="none" stroke="#4caf50" stroke-width="2" d="M181.7,-544.29C181.7,-544.29 181.7,-500 181.7,-500"/>
<polygon fill="#4caf50" stroke="#4caf50" stroke-width="2" points="185.2,-500 181.7,-490 178.2,-500 185.2,-500"/>
</g>
<!-- s5b&#45;&gt;s3 -->
<g id="edge7" class="edge">
<title>s5b&#45;&gt;s3</title>
<path fill="none" stroke="#ff9800" stroke-width="2" d="M314.7,-544.29C314.7,-544.29 314.7,-500 314.7,-500"/>
<polygon fill="#ff9800" stroke="#ff9800" stroke-width="2" points="318.2,-500 314.7,-490 311.2,-500 318.2,-500"/>
</g>
<!-- s7 -->
<g id="node9" class="node">
<title>s7</title>
<path fill="#4caf50" stroke="black" d="M351.4,-96.5C351.4,-96.5 145,-96.5 145,-96.5 139,-96.5 133,-90.5 133,-84.5 133,-84.5 133,-36.5 133,-36.5 133,-30.5 139,-24.5 145,-24.5 145,-24.5 351.4,-24.5 351.4,-24.5 357.4,-24.5 363.4,-30.5 363.4,-36.5 363.4,-36.5 363.4,-84.5 363.4,-84.5 363.4,-90.5 357.4,-96.5 351.4,-96.5"/>
<text xml:space="preserve" text-anchor="middle" x="248.2" y="-63.55" font-family="Arial" font-size="11.00" fill="white">7. Stream Media</text>
<text xml:space="preserve" text-anchor="middle" x="248.2" y="-50.05" font-family="Arial" font-size="11.00" fill="white">Decode + Render</text>
</g>
<!-- s6&#45;&gt;s7 -->
<g id="edge10" class="edge">
<title>s6&#45;&gt;s7</title>
<path fill="none" stroke="#4caf50" stroke-width="2" d="M248.2,-154.29C248.2,-154.29 248.2,-110 248.2,-110"/>
<polygon fill="#4caf50" stroke="#4caf50" stroke-width="2" points="251.7,-110 248.2,-100 244.7,-110 251.7,-110"/>
</g>
</g>
</svg>
