<?xml version="1.0" encoding="UTF-8" standalone="no"?>
<!DOCTYPE svg PUBLIC "-//W3C//DTD SVG 1.1//EN"
 "http://www.w3.org/Graphics/SVG/1.1/DTD/svg11.dtd">
<!-- Generated by graphviz version 14.1.2 (0)
 -->
<!-- Title: skillspector_analysis_pipeline Pages: 1 -->
<svg width="1159pt" height="1384pt"
 viewBox="-16.0 -8.0 1191.2 1375.0" xmlns="http://www.w3.org/2000/svg" xmlns:xlink="http://www.w3.org/1999/xlink">
<g id="graph0" class="graph" transform="scale(1 1) rotate(0) translate(4 1379.5)">
<title>skillspector_analysis_pipeline</title>
<text xml:space="preserve" text-anchor="middle" x="575.62" y="-7.2" font-family="Times New Roman,serif" font-size="14.00">SkillSpector Two&#45;Stage Analysis Pipeline</text>
<g id="clust1" class="cluster">
<title>cluster_stage1</title>
<polygon fill="none" stroke="#009688" stroke-dasharray="5,2" points="462.25,-32.5 462.25,-1367.5 690.5,-1367.5 690.5,-32.5 462.25,-32.5"/>
<text xml:space="preserve" text-anchor="middle" x="576.38" y="-1350.2" font-family="Arial Bold" font-size="14.00" fill="#009688">Stage 1: Static Analysis (Parallel)</text>
</g>
<!-- input_Git Repo -->
<g id="node1" class="node">
<title>input_Git Repo</title>
<polygon fill="#4caf50" stroke="black" points="62.5,-831.5 3.75,-831.5 3.75,-795.5 62.5,-795.5 62.5,-831.5"/>
<text xml:space="preserve" text-anchor="middle" x="33.12" y="-809.8" font-family="Arial" font-size="11.00" fill="white">Git Repo</text>
</g>
<!-- resolve_input -->
<g id="node6" class="node">
<title>resolve_input</title>
<path fill="#2196f3" stroke="black" d="M220.25,-701.5C220.25,-701.5 150.25,-701.5 150.25,-701.5 144.25,-701.5 138.25,-695.5 138.25,-689.5 138.25,-689.5 138.25,-677.5 138.25,-677.5 138.25,-671.5 144.25,-665.5 150.25,-665.5 150.25,-665.5 220.25,-665.5 220.25,-665.5 226.25,-665.5 232.25,-671.5 232.25,-677.5 232.25,-677.5 232.25,-689.5 232.25,-689.5 232.25,-695.5 226.25,-701.5 220.25,-701.5"/>
<text xml:space="preserve" text-anchor="middle" x="185.25" y="-679.23" font-family="Arial Bold" font-size="12.00" fill="white">resolve_input</text>
</g>
<!-- input_Git Repo&#45;&gt;resolve_input -->
<g id="edge1" class="edge">
<title>input_Git Repo&#45;&gt;resolve_input</title>
<path fill="none" stroke="#4caf50" stroke-width="1.5" d="M62.8,-814C111.06,-814 201.25,-814 201.25,-814 201.25,-814 201.25,-714.19 201.25,-714.19"/>
<polygon fill="#4caf50" stroke="#4caf50" stroke-width="1.5" points="204.75,-714.19 201.25,-704.19 197.75,-714.19 204.75,-714.19"/>
</g>
<!-- input_URL -->
<g id="node2" class="node">
<title>input_URL</title>
<polygon fill="#4caf50" stroke="black" points="60.12,-766.5 6.12,-766.5 6.12,-730.5 60.12,-730.5 60.12,-766.5"/>
<text xml:space="preserve" text-anchor="middle" x="33.12" y="-744.8" font-family="Arial" font-size="11.00" fill="white">URL</text>
</g>
<!-- input_URL&#45;&gt;resolve_input -->
<g id="edge2" class="edge">
<title>input_URL&#45;&gt;resolve_input</title>
<path fill="none" stroke="#4caf50" stroke-width="1.5" d="M60.34,-749C100.07,-749 169.25,-749 169.25,-749 169.25,-749 169.25,-714.02 169.25,-714.02"/>
<polygon fill="#4caf50" stroke="#4caf50" stroke-width="1.5" points="172.75,-714.02 169.25,-704.02 165.75,-714.02 172.75,-714.02"/>
</g>
<!-- input_Zip File -->
<g id="node3" class="node">
<title>input_Zip File</title>
<polygon fill="#4caf50" stroke="black" points="60.12,-701.5 6.12,-701.5 6.12,-665.5 60.12,-665.5 60.12,-701.5"/>
<text xml:space="preserve" text-anchor="middle" x="33.12" y="-679.8" font-family="Arial" font-size="11.00" fill="white">Zip File</text>
</g>
<!-- input_Zip File&#45;&gt;resolve_input -->
<g id="edge3" class="edge">
<title>input_Zip File&#45;&gt;resolve_input</title>
<path fill="none" stroke="#4caf50" stroke-width="1.5" d="M60.32,-683.5C60.32,-683.5 125.71,-683.5 125.71,-683.5"/>
<polygon fill="#4caf50" stroke="#4caf50" stroke-width="1.5" points="125.71,-687 135.71,-683.5 125.71,-680 125.71,-687"/>
</g>
<!-- input_Directory -->
<g id="node4" class="node">
<title>input_Directory</title>
<polygon fill="#4caf50" stroke="black" points="62.88,-636.5 3.37,-636.5 3.37,-600.5 62.88,-600.5 62.88,-636.5"/>
<text xml:space="preserve" text-anchor="middle" x="33.12" y="-614.8" font-family="Arial" font-size="11.00" fill="white">Directory</text>
</g>
<!-- input_Directory&#45;&gt;resolve_input -->
<g id="edge4" class="edge">
<title>input_Directory&#45;&gt;resolve_input</title>
<path fill="none" stroke="#4caf50" stroke-width="1.5" d="M63.34,-619C103.44,-619 169.25,-619 169.25,-619 169.25,-619 169.25,-652.92 169.25,-652.92"/>
<polygon fill="#4caf50" stroke="#4caf50" stroke-width="1.5" points="165.75,-652.92 169.25,-662.92 172.75,-652.92 165.75,-652.92"/>
</g>
<!-- input_Single File -->
<g id="node5" class="node">
<title>input_Single File</title>
<polygon fill="#4caf50" stroke="black" points="66.25,-571.5 0,-571.5 0,-535.5 66.25,-535.5 66.25,-571.5"/>
<text xml:space="preserve" text-anchor="middle" x="33.12" y="-549.8" font-family="Arial" font-size="11.00" fill="white">Single File</text>
</g>
<!-- input_Single File&#45;&gt;resolve_input -->
<g id="edge5" class="edge">
<title>input_Single File&#45;&gt;resolve_input</title>
<path fill="none" stroke="#4caf50" stroke-width="1.5" d="M66.74,-554C115.81,-554 201.25,-554 201.25,-554 201.25,-554 201.25,-652.95 201.25,-652.95"/>
<polygon fill="#4caf50" stroke="#4caf50" stroke-width="1.5" points="197.75,-652.95 201.25,-662.95 204.75,-652.95 197.75,-652.95"/>
</g>
<!-- build_context -->
<g id="node7" class="node">
<title>build_context</title>
<path fill="#2196f3" stroke="black" d="M386.25,-701.5C386.25,-701.5 316.25,-701.5 316.25,-701.5 310.25,-701.5 304.25,-695.5 304.25,-689.5 304.25,-689.5 304.25,-677.5 304.25,-677.5 304.25,-671.5 310.25,-665.5 316.25,-665.5 316.25,-665.5 386.25,-665.5 386.25,-665.5 392.25,-665.5 398.25,-671.5 398.25,-677.5 398.25,-677.5 398.25,-689.5 398.25,-689.5 398.25,-695.5 392.25,-701.5 386.25,-701.5"/>
<text xml:space="preserve" text-anchor="middle" x="351.25" y="-679.23" font-family="Arial Bold" font-size="12.00" fill="white">build_context</text>
</g>
<!-- resolve_input&#45;&gt;build_context -->
<g id="edge6" class="edge">
<title>resolve_input&#45;&gt;build_context</title>
<path fill="none" stroke="#2196f3" stroke-width="2" d="M232.37,-683.5C232.37,-683.5 290.98,-683.5 290.98,-683.5"/>
<polygon fill="#2196f3" stroke="#2196f3" stroke-width="2" points="290.98,-687 300.98,-683.5 290.98,-680 290.98,-687"/>
</g>
<!-- analyzer_prompt_injection -->
<g id="node8" class="node">
<title>analyzer_prompt_injection</title>
<path fill="#009688" stroke="black" d="M590.88,-76.5C590.88,-76.5 560.88,-76.5 560.88,-76.5 554.88,-76.5 548.88,-70.5 548.88,-64.5 548.88,-64.5 548.88,-52.5 548.88,-52.5 548.88,-46.5 554.88,-40.5 560.88,-40.5 560.88,-40.5 590.88,-40.5 590.88,-40.5 596.88,-40.5 602.88,-46.5 602.88,-52.5 602.88,-52.5 602.88,-64.5 602.88,-64.5 602.88,-70.5 596.88,-76.5 590.88,-76.5"/>
<text xml:space="preserve" text-anchor="middle" x="575.88" y="-61" font-family="Arial" font-size="10.00" fill="white">prompt</text>
<text xml:space="preserve" text-anchor="middle" x="575.88" y="-49" font-family="Arial" font-size="10.00" fill="white">injection</text>
</g>
<!-- build_context&#45;&gt;analyzer_prompt_injection -->
<g id="edge7" class="edge">
<title>build_context&#45;&gt;analyzer_prompt_injection</title>
<path fill="none" stroke="#009688" stroke-width="1.5" d="M313.25,-665.13C313.25,-561.9 313.25,-58.5 313.25,-58.5 313.25,-58.5 536.49,-58.5 536.49,-58.5"/>
<polygon fill="#009688" stroke="#009688" stroke-width="1.5" points="536.49,-62 546.49,-58.5 536.49,-55 536.49,-62"/>
</g>
<!-- analyzer_data_exfiltration -->
<g id="node9" class="node">
<title>analyzer_data_exfiltration</title>
<path fill="#009688" stroke="black" d="M594.38,-141.5C594.38,-141.5 557.38,-141.5 557.38,-141.5 551.38,-141.5 545.38,-135.5 545.38,-129.5 545.38,-129.5 545.38,-117.5 545.38,-117.5 545.38,-111.5 551.38,-105.5 557.38,-105.5 557.38,-105.5 594.38,-105.5 594.38,-105.5 600.38,-105.5 606.38,-111.5 606.38,-117.5 606.38,-117.5 606.38,-129.5 606.38,-129.5 606.38,-135.5 600.38,-141.5 594.38,-141.5"/>
<text xml:space="preserve" text-anchor="middle" x="575.88" y="-126" font-family="Arial" font-size="10.00" fill="white">data</text>
<text xml:space="preserve" text-anchor="middle" x="575.88" y="-114" font-family="Arial" font-size="10.00" fill="white">exfiltration</text>
</g>
<!-- build_context&#45;&gt;analyzer_data_exfiltration -->
<g id="edge8" class="edge">
<title>build_context&#45;&gt;analyzer_data_exfiltration</title>
<path fill="none" stroke="#009688" stroke-width="1.5" d="M323.25,-665.19C323.25,-568.67 323.25,-123.5 323.25,-123.5 323.25,-123.5 532.63,-123.5 532.63,-123.5"/>
<polygon fill="#009688" stroke="#009688" stroke-width="1.5" points="532.63,-127 542.63,-123.5 532.63,-120 532.63,-127"/>
</g>
<!-- analyzer_privilege_escalation -->
<g id="node10" class="node">
<title>analyzer_privilege_escalation</title>
<path fill="#009688" stroke="black" d="M594,-206.5C594,-206.5 557.75,-206.5 557.75,-206.5 551.75,-206.5 545.75,-200.5 545.75,-194.5 545.75,-194.5 545.75,-182.5 545.75,-182.5 545.75,-176.5 551.75,-170.5 557.75,-170.5 557.75,-170.5 594,-170.5 594,-170.5 600,-170.5 606,-176.5 606,-182.5 606,-182.5 606,-194.5 606,-194.5 606,-200.5 600,-206.5 594,-206.5"/>
<text xml:space="preserve" text-anchor="middle" x="575.88" y="-191" font-family="Arial" font-size="10.00" fill="white">privilege</text>
<text xml:space="preserve" text-anchor="middle" x="575.88" y="-179" font-family="Arial" font-size="10.00" fill="white">escalation</text>
</g>
<!-- build_context&#45;&gt;analyzer_privilege_escalation -->
<g id="edge9" class="edge">
<title>build_context&#45;&gt;analyzer_privilege_escalation</title>
<path fill="none" stroke="#009688" stroke-width="1.5" d="M332.25,-665.3C332.25,-575.99 332.25,-188.5 332.25,-188.5 332.25,-188.5 533.24,-188.5 533.24,-188.5"/>
<polygon fill="#009688" stroke="#009688" stroke-width="1.5" points="533.24,-192 543.24,-188.5 533.24,-185 533.24,-192"/>
</g>
<!-- analyzer_supply_chain -->
<g id="node11" class="node">
<title>analyzer_supply_chain</title>
<path fill="#009688" stroke="black" d="M590.88,-271.5C590.88,-271.5 560.88,-271.5 560.88,-271.5 554.88,-271.5 548.88,-265.5 548.88,-259.5 548.88,-259.5 548.88,-247.5 548.88,-247.5 548.88,-241.5 554.88,-235.5 560.88,-235.5 560.88,-235.5 590.88,-235.5 590.88,-235.5 596.88,-235.5 602.88,-241.5 602.88,-247.5 602.88,-247.5 602.88,-259.5 602.88,-259.5 602.88,-265.5 596.88,-271.5 590.88,-271.5"/>
<text xml:space="preserve" text-anchor="middle" x="575.88" y="-256" font-family="Arial" font-size="10.00" fill="white">supply</text>
<text xml:space="preserve" text-anchor="middle" x="575.88" y="-244" font-family="Arial" font-size="10.00" fill="white">chain</text>
</g>
<!-- build_context&#45;&gt;analyzer_supply_chain -->
<g id="edge10" class="edge">
<title>build_context&#45;&gt;analyzer_supply_chain</title>
<path fill="none" stroke="#009688" stroke-width="1.5" d="M342.25,-665.02C342.25,-582.72 342.25,-253.5 342.25,-253.5 342.25,-253.5 536.35,-253.5 536.35,-253.5"/>
<polygon fill="#009688" stroke="#009688" stroke-width="1.5" points="536.35,-257 546.35,-253.5 536.35,-250 536.35,-257"/>
</g>
<!-- analyzer_excessive_agency -->
<g id="node12" class="node">
<title>analyzer_excessive_agency</title>
<path fill="#009688" stroke="black" d="M594,-336.5C594,-336.5 557.75,-336.5 557.75,-336.5 551.75,-336.5 545.75,-330.5 545.75,-324.5 545.75,-324.5 545.75,-312.5 545.75,-312.5 545.75,-306.5 551.75,-300.5 557.75,-300.5 557.75,-300.5 594,-300.5 594,-300.5 600,-300.5 606,-306.5 606,-312.5 606,-312.5 606,-324.5 606,-324.5 606,-330.5 600,-336.5 594,-336.5"/>
<text xml:space="preserve" text-anchor="middle" x="575.88" y="-321" font-family="Arial" font-size="10.00" fill="white">excessive</text>
<text xml:space="preserve" text-anchor="middle" x="575.88" y="-309" font-family="Arial" font-size="10.00" fill="white">agency</text>
</g>
<!-- build_context&#45;&gt;analyzer_excessive_agency -->
<g id="edge11" class="edge">
<title>build_context&#45;&gt;analyzer_excessive_agency</title>
<path fill="none" stroke="#009688" stroke-width="1.5" d="M351.25,-665.15C351.25,-591.13 351.25,-318.5 351.25,-318.5 351.25,-318.5 533.31,-318.5 533.31,-318.5"/>
<polygon fill="#009688" stroke="#009688" stroke-width="1.5" points="533.31,-322 543.31,-318.5 533.31,-315 533.31,-322"/>
</g>
<!-- analyzer_output_handling -->
<g id="node13" class="node">
<title>analyzer_output_handling</title>
<path fill="#009688" stroke="black" d="M590.88,-401.5C590.88,-401.5 560.88,-401.5 560.88,-401.5 554.88,-401.5 548.88,-395.5 548.88,-389.5 548.88,-389.5 548.88,-377.5 548.88,-377.5 548.88,-371.5 554.88,-365.5 560.88,-365.5 560.88,-365.5 590.88,-365.5 590.88,-365.5 596.88,-365.5 602.88,-371.5 602.88,-377.5 602.88,-377.5 602.88,-389.5 602.88,-389.5 602.88,-395.5 596.88,-401.5 590.88,-401.5"/>
<text xml:space="preserve" text-anchor="middle" x="575.88" y="-386" font-family="Arial" font-size="10.00" fill="white">output</text>
<text xml:space="preserve" text-anchor="middle" x="575.88" y="-374" font-family="Arial" font-size="10.00" fill="white">handling</text>
</g>
<!-- build_context&#45;&gt;analyzer_output_handling -->
<g id="edge12" class="edge">
<title>build_context&#45;&gt;analyzer_output_handling</title>
<path fill="none" stroke="#009688" stroke-width="1.5" d="M360.25,-665.19C360.25,-600.05 360.25,-383.5 360.25,-383.5 360.25,-383.5 536.3,-383.5 536.3,-383.5"/>
<polygon fill="#009688" stroke="#009688" stroke-width="1.5" points="536.3,-387 546.3,-383.5 536.3,-380 536.3,-387"/>
</g>
<!-- analyzer_system_prompt_leakage -->
<g id="node14" class="node">
<title>analyzer_system_prompt_leakage</title>
<path fill="#009688" stroke="black" d="M590.88,-474.5C590.88,-474.5 560.88,-474.5 560.88,-474.5 554.88,-474.5 548.88,-468.5 548.88,-462.5 548.88,-462.5 548.88,-442.5 548.88,-442.5 548.88,-436.5 554.88,-430.5 560.88,-430.5 560.88,-430.5 590.88,-430.5 590.88,-430.5 596.88,-430.5 602.88,-436.5 602.88,-442.5 602.88,-442.5 602.88,-462.5 602.88,-462.5 602.88,-468.5 596.88,-474.5 590.88,-474.5"/>
<text xml:space="preserve" text-anchor="middle" x="575.88" y="-461" font-family="Arial" font-size="10.00" fill="white">system</text>
<text xml:space="preserve" text-anchor="middle" x="575.88" y="-449" font-family="Arial" font-size="10.00" fill="white">prompt</text>
<text xml:space="preserve" text-anchor="middle" x="575.88" y="-437" font-family="Arial" font-size="10.00" fill="white">leakage</text>
</g>
<!-- build_context&#45;&gt;analyzer_system_prompt_leakage -->
<g id="edge13" class="edge">
<title>build_context&#45;&gt;analyzer_system_prompt_leakage</title>
<path fill="none" stroke="#009688" stroke-width="1.5" d="M370.25,-665.37C370.25,-610.92 370.25,-452.5 370.25,-452.5 370.25,-452.5 536.3,-452.5 536.3,-452.5"/>
<polygon fill="#009688" stroke="#009688" stroke-width="1.5" points="536.3,-456 546.3,-452.5 536.3,-449 536.3,-456"/>
</g>
<!-- analyzer_memory_poisoning -->
<g id="node15" class="node">
<title>analyzer_memory_poisoning</title>
<path fill="#009688" stroke="black" d="M592.5,-539.5C592.5,-539.5 559.25,-539.5 559.25,-539.5 553.25,-539.5 547.25,-533.5 547.25,-527.5 547.25,-527.5 547.25,-515.5 547.25,-515.5 547.25,-509.5 553.25,-503.5 559.25,-503.5 559.25,-503.5 592.5,-503.5 592.5,-503.5 598.5,-503.5 604.5,-509.5 604.5,-515.5 604.5,-515.5 604.5,-527.5 604.5,-527.5 604.5,-533.5 598.5,-539.5 592.5,-539.5"/>
<text xml:space="preserve" text-anchor="middle" x="575.88" y="-524" font-family="Arial" font-size="10.00" fill="white">memory</text>
<text xml:space="preserve" text-anchor="middle" x="575.88" y="-512" font-family="Arial" font-size="10.00" fill="white">poisoning</text>
</g>
<!-- build_context&#45;&gt;analyzer_memory_poisoning -->
<g id="edge14" class="edge">
<title>build_context&#45;&gt;analyzer_memory_poisoning</title>
<path fill="none" stroke="#009688" stroke-width="1.5" d="M379.25,-665.01C379.25,-622.12 379.25,-519.5 379.25,-519.5 379.25,-519.5 534.59,-519.5 534.59,-519.5"/>
<polygon fill="#009688" stroke="#009688" stroke-width="1.5" points="534.59,-523 544.59,-519.5 534.59,-516 534.59,-523"/>
</g>
<!-- analyzer_tool_misuse -->
<g id="node16" class="node">
<title>analyzer_tool_misuse</title>
<path fill="#009688" stroke="black" d="M590.88,-604.5C590.88,-604.5 560.88,-604.5 560.88,-604.5 554.88,-604.5 548.88,-598.5 548.88,-592.5 548.88,-592.5 548.88,-580.5 548.88,-580.5 548.88,-574.5 554.88,-568.5 560.88,-568.5 560.88,-568.5 590.88,-568.5 590.88,-568.5 596.88,-568.5 602.88,-574.5 602.88,-580.5 602.88,-580.5 602.88,-592.5 602.88,-592.5 602.88,-598.5 596.88,-604.5 590.88,-604.5"/>
<text xml:space="preserve" text-anchor="middle" x="575.88" y="-589" font-family="Arial" font-size="10.00" fill="white">tool</text>
<text xml:space="preserve" text-anchor="middle" x="575.88" y="-577" font-family="Arial" font-size="10.00" fill="white">misuse</text>
</g>
<!-- build_context&#45;&gt;analyzer_tool_misuse -->
<g id="edge15" class="edge">
<title>build_context&#45;&gt;analyzer_tool_misuse</title>
<path fill="none" stroke="#009688" stroke-width="1.5" d="M389.25,-665.16C389.25,-636.92 389.25,-586 389.25,-586 389.25,-586 536.47,-586 536.47,-586"/>
<polygon fill="#009688" stroke="#009688" stroke-width="1.5" points="536.47,-589.5 546.47,-586 536.47,-582.5 536.47,-589.5"/>
</g>
<!-- analyzer_rogue_agent -->
<g id="node17" class="node">
<title>analyzer_rogue_agent</title>
<path fill="#009688" stroke="black" d="M590.88,-669.5C590.88,-669.5 560.88,-669.5 560.88,-669.5 554.88,-669.5 548.88,-663.5 548.88,-657.5 548.88,-657.5 548.88,-645.5 548.88,-645.5 548.88,-639.5 554.88,-633.5 560.88,-633.5 560.88,-633.5 590.88,-633.5 590.88,-633.5 596.88,-633.5 602.88,-639.5 602.88,-645.5 602.88,-645.5 602.88,-657.5 602.88,-657.5 602.88,-663.5 596.88,-669.5 590.88,-669.5"/>
<text xml:space="preserve" text-anchor="middle" x="575.88" y="-654" font-family="Arial" font-size="10.00" fill="white">rogue</text>
<text xml:space="preserve" text-anchor="middle" x="575.88" y="-642" font-family="Arial" font-size="10.00" fill="white">agent</text>
</g>
<!-- build_context&#45;&gt;analyzer_rogue_agent -->
<g id="edge16" class="edge">
<title>build_context&#45;&gt;analyzer_rogue_agent</title>
<path fill="none" stroke="#009688" stroke-width="1.5" d="M398.65,-679.17C462.24,-679.17 567.25,-679.17 567.25,-679.17 567.25,-679.17 567.25,-678.23 567.25,-678.23"/>
<polygon fill="#009688" stroke="#009688" stroke-width="1.5" points="570.75,-682.07 567.25,-672.07 563.75,-682.07 570.75,-682.07"/>
</g>
<!-- analyzer_trigger_abuse -->
<g id="node18" class="node">
<title>analyzer_trigger_abuse</title>
<path fill="#009688" stroke="black" d="M590.88,-734.5C590.88,-734.5 560.88,-734.5 560.88,-734.5 554.88,-734.5 548.88,-728.5 548.88,-722.5 548.88,-722.5 548.88,-710.5 548.88,-710.5 548.88,-704.5 554.88,-698.5 560.88,-698.5 560.88,-698.5 590.88,-698.5 590.88,-698.5 596.88,-698.5 602.88,-704.5 602.88,-710.5 602.88,-710.5 602.88,-722.5 602.88,-722.5 602.88,-728.5 596.88,-734.5 590.88,-734.5"/>
<text xml:space="preserve" text-anchor="middle" x="575.88" y="-719" font-family="Arial" font-size="10.00" fill="white">trigger</text>
<text xml:space="preserve" text-anchor="middle" x="575.88" y="-707" font-family="Arial" font-size="10.00" fill="white">abuse</text>
</g>
<!-- build_context&#45;&gt;analyzer_trigger_abuse -->
<g id="edge17" class="edge">
<title>build_context&#45;&gt;analyzer_trigger_abuse</title>
<path fill="none" stroke="#009688" stroke-width="1.5" d="M398.6,-688.83C466.98,-688.83 585.25,-688.83 585.25,-688.83 585.25,-688.83 585.25,-689.77 585.25,-689.77"/>
<polygon fill="#009688" stroke="#009688" stroke-width="1.5" points="581.75,-685.93 585.25,-695.93 588.75,-685.93 581.75,-685.93"/>
</g>
<!-- analyzer_behavioral_ast -->
<g id="node19" class="node">
<title>analyzer_behavioral_ast</title>
<path fill="#009688" stroke="black" d="M594,-799.5C594,-799.5 557.75,-799.5 557.75,-799.5 551.75,-799.5 545.75,-793.5 545.75,-787.5 545.75,-787.5 545.75,-775.5 545.75,-775.5 545.75,-769.5 551.75,-763.5 557.75,-763.5 557.75,-763.5 594,-763.5 594,-763.5 600,-763.5 606,-769.5 606,-775.5 606,-775.5 606,-787.5 606,-787.5 606,-793.5 600,-799.5 594,-799.5"/>
<text xml:space="preserve" text-anchor="middle" x="575.88" y="-784" font-family="Arial" font-size="10.00" fill="white">behavioral</text>
<text xml:space="preserve" text-anchor="middle" x="575.88" y="-772" font-family="Arial" font-size="10.00" fill="white">ast</text>
</g>
<!-- build_context&#45;&gt;analyzer_behavioral_ast -->
<g id="edge18" class="edge">
<title>build_context&#45;&gt;analyzer_behavioral_ast</title>
<path fill="none" stroke="#009688" stroke-width="1.5" d="M389.25,-701.84C389.25,-730.08 389.25,-781 389.25,-781 389.25,-781 533.2,-781 533.2,-781"/>
<polygon fill="#009688" stroke="#009688" stroke-width="1.5" points="533.2,-784.5 543.2,-781 533.2,-777.5 533.2,-784.5"/>
</g>
<!-- analyzer_taint_tracking -->
<g id="node20" class="node">
<title>analyzer_taint_tracking</title>
<path fill="#009688" stroke="black" d="M590.88,-864.5C590.88,-864.5 560.88,-864.5 560.88,-864.5 554.88,-864.5 548.88,-858.5 548.88,-852.5 548.88,-852.5 548.88,-840.5 548.88,-840.5 548.88,-834.5 554.88,-828.5 560.88,-828.5 560.88,-828.5 590.88,-828.5 590.88,-828.5 596.88,-828.5 602.88,-834.5 602.88,-840.5 602.88,-840.5 602.88,-852.5 602.88,-852.5 602.88,-858.5 596.88,-864.5 590.88,-864.5"/>
<text xml:space="preserve" text-anchor="middle" x="575.88" y="-849" font-family="Arial" font-size="10.00" fill="white">taint</text>
<text xml:space="preserve" text-anchor="middle" x="575.88" y="-837" font-family="Arial" font-size="10.00" fill="white">tracking</text>
</g>
<!-- build_context&#45;&gt;analyzer_taint_tracking -->
<g id="edge19" class="edge">
<title>build_context&#45;&gt;analyzer_taint_tracking</title>
<path fill="none" stroke="#009688" stroke-width="1.5" d="M379.25,-701.73C379.25,-744.56 379.25,-848 379.25,-848 379.25,-848 536.26,-848 536.26,-848"/>
<polygon fill="#009688" stroke="#009688" stroke-width="1.5" points="536.26,-851.5 546.26,-848 536.26,-844.5 536.26,-851.5"/>
</g>
<!-- analyzer_yara_signatures -->
<g id="node21" class="node">
<title>analyzer_yara_signatures</title>
<path fill="#009688" stroke="black" d="M594.38,-929.5C594.38,-929.5 557.38,-929.5 557.38,-929.5 551.38,-929.5 545.38,-923.5 545.38,-917.5 545.38,-917.5 545.38,-905.5 545.38,-905.5 545.38,-899.5 551.38,-893.5 557.38,-893.5 557.38,-893.5 594.38,-893.5 594.38,-893.5 600.38,-893.5 606.38,-899.5 606.38,-905.5 606.38,-905.5 606.38,-917.5 606.38,-917.5 606.38,-923.5 600.38,-929.5 594.38,-929.5"/>
<text xml:space="preserve" text-anchor="middle" x="575.88" y="-914" font-family="Arial" font-size="10.00" fill="white">yara</text>
<text xml:space="preserve" text-anchor="middle" x="575.88" y="-902" font-family="Arial" font-size="10.00" fill="white">signatures</text>
</g>
<!-- build_context&#45;&gt;analyzer_yara_signatures -->
<g id="edge20" class="edge">
<title>build_context&#45;&gt;analyzer_yara_signatures</title>
<path fill="none" stroke="#009688" stroke-width="1.5" d="M370.25,-701.77C370.25,-755.88 370.25,-911.5 370.25,-911.5 370.25,-911.5 532.82,-911.5 532.82,-911.5"/>
<polygon fill="#009688" stroke="#009688" stroke-width="1.5" points="532.82,-915 542.82,-911.5 532.82,-908 532.82,-915"/>
</g>
<!-- analyzer_osv_client -->
<g id="node22" class="node">
<title>analyzer_osv_client</title>
<path fill="#009688" stroke="black" d="M590.88,-994.5C590.88,-994.5 560.88,-994.5 560.88,-994.5 554.88,-994.5 548.88,-988.5 548.88,-982.5 548.88,-982.5 548.88,-970.5 548.88,-970.5 548.88,-964.5 554.88,-958.5 560.88,-958.5 560.88,-958.5 590.88,-958.5 590.88,-958.5 596.88,-958.5 602.88,-964.5 602.88,-970.5 602.88,-970.5 602.88,-982.5 602.88,-982.5 602.88,-988.5 596.88,-994.5 590.88,-994.5"/>
<text xml:space="preserve" text-anchor="middle" x="575.88" y="-979" font-family="Arial" font-size="10.00" fill="white">osv</text>
<text xml:space="preserve" text-anchor="middle" x="575.88" y="-967" font-family="Arial" font-size="10.00" fill="white">client</text>
</g>
<!-- build_context&#45;&gt;analyzer_osv_client -->
<g id="edge21" class="edge">
<title>build_context&#45;&gt;analyzer_osv_client</title>
<path fill="none" stroke="#009688" stroke-width="1.5" d="M360.25,-701.83C360.25,-765.97 360.25,-976.5 360.25,-976.5 360.25,-976.5 536.3,-976.5 536.3,-976.5"/>
<polygon fill="#009688" stroke="#009688" stroke-width="1.5" points="536.3,-980 546.3,-976.5 536.3,-973 536.3,-980"/>
</g>
<!-- analyzer_mcp_least_privilege -->
<g id="node23" class="node">
<title>analyzer_mcp_least_privilege</title>
<path fill="#009688" stroke="black" d="M590.88,-1067.5C590.88,-1067.5 560.88,-1067.5 560.88,-1067.5 554.88,-1067.5 548.88,-1061.5 548.88,-1055.5 548.88,-1055.5 548.88,-1035.5 548.88,-1035.5 548.88,-1029.5 554.88,-1023.5 560.88,-1023.5 560.88,-1023.5 590.88,-1023.5 590.88,-1023.5 596.88,-1023.5 602.88,-1029.5 602.88,-1035.5 602.88,-1035.5 602.88,-1055.5 602.88,-1055.5 602.88,-1061.5 596.88,-1067.5 590.88,-1067.5"/>
<text xml:space="preserve" text-anchor="middle" x="575.88" y="-1054" font-family="Arial" font-size="10.00" fill="white">mcp</text>
<text xml:space="preserve" text-anchor="middle" x="575.88" y="-1042" font-family="Arial" font-size="10.00" fill="white">least</text>
<text xml:space="preserve" text-anchor="middle" x="575.88" y="-1030" font-family="Arial" font-size="10.00" fill="white">privilege</text>
</g>
<!-- build_context&#45;&gt;analyzer_mcp_least_privilege -->
<g id="edge22" class="edge">
<title>build_context&#45;&gt;analyzer_mcp_least_privilege</title>
<path fill="none" stroke="#009688" stroke-width="1.5" d="M351.25,-701.95C351.25,-775.72 351.25,-1045.5 351.25,-1045.5 351.25,-1045.5 536.51,-1045.5 536.51,-1045.5"/>
<polygon fill="#009688" stroke="#009688" stroke-width="1.5" points="536.51,-1049 546.51,-1045.5 536.51,-1042 536.51,-1049"/>
</g>
<!-- analyzer_mcp_tool_poisoning -->
<g id="node24" class="node">
<title>analyzer_mcp_tool_poisoning</title>
<path fill="#009688" stroke="black" d="M592.5,-1140.5C592.5,-1140.5 559.25,-1140.5 559.25,-1140.5 553.25,-1140.5 547.25,-1134.5 547.25,-1128.5 547.25,-1128.5 547.25,-1108.5 547.25,-1108.5 547.25,-1102.5 553.25,-1096.5 559.25,-1096.5 559.25,-1096.5 592.5,-1096.5 592.5,-1096.5 598.5,-1096.5 604.5,-1102.5 604.5,-1108.5 604.5,-1108.5 604.5,-1128.5 604.5,-1128.5 604.5,-1134.5 598.5,-1140.5 592.5,-1140.5"/>
<text xml:space="preserve" text-anchor="middle" x="575.88" y="-1127" font-family="Arial" font-size="10.00" fill="white">mcp</text>
<text xml:space="preserve" text-anchor="middle" x="575.88" y="-1115" font-family="Arial" font-size="10.00" fill="white">tool</text>
<text xml:space="preserve" text-anchor="middle" x="575.88" y="-1103" font-family="Arial" font-size="10.00" fill="white">poisoning</text>
</g>
<!-- build_context&#45;&gt;analyzer_mcp_tool_poisoning -->
<g id="edge23" class="edge">
<title>build_context&#45;&gt;analyzer_mcp_tool_poisoning</title>
<path fill="none" stroke="#009688" stroke-width="1.5" d="M342.25,-701.91C342.25,-784.71 342.25,-1118.5 342.25,-1118.5 342.25,-1118.5 534.49,-1118.5 534.49,-1118.5"/>
<polygon fill="#009688" stroke="#009688" stroke-width="1.5" points="534.49,-1122 544.49,-1118.5 534.49,-1115 534.49,-1122"/>
</g>
<!-- analyzer_semantic_discovery -->
<g id="node25" class="node">
<title>analyzer_semantic_discovery</title>
<path fill="#009688" stroke="black" d="M592.88,-1205.5C592.88,-1205.5 558.88,-1205.5 558.88,-1205.5 552.88,-1205.5 546.88,-1199.5 546.88,-1193.5 546.88,-1193.5 546.88,-1181.5 546.88,-1181.5 546.88,-1175.5 552.88,-1169.5 558.88,-1169.5 558.88,-1169.5 592.88,-1169.5 592.88,-1169.5 598.88,-1169.5 604.88,-1175.5 604.88,-1181.5 604.88,-1181.5 604.88,-1193.5 604.88,-1193.5 604.88,-1199.5 598.88,-1205.5 592.88,-1205.5"/>
<text xml:space="preserve" text-anchor="middle" x="575.88" y="-1190" font-family="Arial" font-size="10.00" fill="white">semantic</text>
<text xml:space="preserve" text-anchor="middle" x="575.88" y="-1178" font-family="Arial" font-size="10.00" fill="white">discovery</text>
</g>
<!-- build_context&#45;&gt;analyzer_semantic_discovery -->
<g id="edge24" class="edge">
<title>build_context&#45;&gt;analyzer_semantic_discovery</title>
<path fill="none" stroke="#009688" stroke-width="1.5" d="M332.25,-701.74C332.25,-792.09 332.25,-1187.5 332.25,-1187.5 332.25,-1187.5 534.22,-1187.5 534.22,-1187.5"/>
<polygon fill="#009688" stroke="#009688" stroke-width="1.5" points="534.22,-1191 544.22,-1187.5 534.22,-1184 534.22,-1191"/>
</g>
<!-- analyzer_semantic_intent -->
<g id="node26" class="node">
<title>analyzer_semantic_intent</title>
<path fill="#009688" stroke="black" d="M591.75,-1270.5C591.75,-1270.5 560,-1270.5 560,-1270.5 554,-1270.5 548,-1264.5 548,-1258.5 548,-1258.5 548,-1246.5 548,-1246.5 548,-1240.5 554,-1234.5 560,-1234.5 560,-1234.5 591.75,-1234.5 591.75,-1234.5 597.75,-1234.5 603.75,-1240.5 603.75,-1246.5 603.75,-1246.5 603.75,-1258.5 603.75,-1258.5 603.75,-1264.5 597.75,-1270.5 591.75,-1270.5"/>
<text xml:space="preserve" text-anchor="middle" x="575.88" y="-1255" font-family="Arial" font-size="10.00" fill="white">semantic</text>
<text xml:space="preserve" text-anchor="middle" x="575.88" y="-1243" font-family="Arial" font-size="10.00" fill="white">intent</text>
</g>
<!-- build_context&#45;&gt;analyzer_semantic_intent -->
<g id="edge25" class="edge">
<title>build_context&#45;&gt;analyzer_semantic_intent</title>
<path fill="none" stroke="#009688" stroke-width="1.5" d="M323.25,-701.79C323.25,-799.18 323.25,-1252.5 323.25,-1252.5 323.25,-1252.5 535.6,-1252.5 535.6,-1252.5"/>
<polygon fill="#009688" stroke="#009688" stroke-width="1.5" points="535.6,-1256 545.6,-1252.5 535.6,-1249 535.6,-1256"/>
</g>
<!-- analyzer_semantic_quality -->
<g id="node27" class="node">
<title>analyzer_semantic_quality</title>
<path fill="#009688" stroke="black" d="M591.75,-1335.5C591.75,-1335.5 560,-1335.5 560,-1335.5 554,-1335.5 548,-1329.5 548,-1323.5 548,-1323.5 548,-1311.5 548,-1311.5 548,-1305.5 554,-1299.5 560,-1299.5 560,-1299.5 591.75,-1299.5 591.75,-1299.5 597.75,-1299.5 603.75,-1305.5 603.75,-1311.5 603.75,-1311.5 603.75,-1323.5 603.75,-1323.5 603.75,-1329.5 597.75,-1335.5 591.75,-1335.5"/>
<text xml:space="preserve" text-anchor="middle" x="575.88" y="-1320" font-family="Arial" font-size="10.00" fill="white">semantic</text>
<text xml:space="preserve" text-anchor="middle" x="575.88" y="-1308" font-family="Arial" font-size="10.00" fill="white">quality</text>
</g>
<!-- build_context&#45;&gt;analyzer_semantic_quality -->
<g id="edge26" class="edge">
<title>build_context&#45;&gt;analyzer_semantic_quality</title>
<path fill="none" stroke="#009688" stroke-width="1.5" d="M313.25,-701.79C313.25,-805.74 313.25,-1317.5 313.25,-1317.5 313.25,-1317.5 535.25,-1317.5 535.25,-1317.5"/>
<polygon fill="#009688" stroke="#009688" stroke-width="1.5" points="535.25,-1321 545.25,-1317.5 535.25,-1314 535.25,-1321"/>
</g>
<!-- meta_analyzer -->
<g id="node28" class="node">
<title>meta_analyzer</title>
<path fill="#9c27b0" stroke="black" d="M843.25,-708.88C843.25,-708.88 766.5,-708.88 766.5,-708.88 760.5,-708.88 754.5,-702.88 754.5,-696.88 754.5,-696.88 754.5,-670.12 754.5,-670.12 754.5,-664.12 760.5,-658.12 766.5,-658.12 766.5,-658.12 843.25,-658.12 843.25,-658.12 849.25,-658.12 855.25,-664.12 855.25,-670.12 855.25,-670.12 855.25,-696.88 855.25,-696.88 855.25,-702.88 849.25,-708.88 843.25,-708.88"/>
<text xml:space="preserve" text-anchor="middle" x="804.88" y="-693.48" font-family="Arial Bold" font-size="12.00" fill="white">meta_analyzer</text>
<text xml:space="preserve" text-anchor="middle" x="804.88" y="-679.23" font-family="Arial Bold" font-size="12.00" fill="white">(LLM Semantic</text>
<text xml:space="preserve" text-anchor="middle" x="804.88" y="-664.98" font-family="Arial Bold" font-size="12.00" fill="white">Analysis)</text>
</g>
<!-- analyzer_prompt_injection&#45;&gt;meta_analyzer -->
<g id="edge27" class="edge">
<title>analyzer_prompt_injection&#45;&gt;meta_analyzer</title>
<path fill="none" stroke="#9c27b0" stroke-width="1.5" d="M603.19,-58.5C671.67,-58.5 845.25,-58.5 845.25,-58.5 845.25,-58.5 845.25,-645.56 845.25,-645.56"/>
<polygon fill="#9c27b0" stroke="#9c27b0" stroke-width="1.5" points="841.75,-645.56 845.25,-655.56 848.75,-645.56 841.75,-645.56"/>
</g>
<!-- analyzer_data_exfiltration&#45;&gt;meta_analyzer -->
<g id="edge28" class="edge">
<title>analyzer_data_exfiltration&#45;&gt;meta_analyzer</title>
<path fill="none" stroke="#9c27b0" stroke-width="1.5" d="M606.65,-123.5C675.35,-123.5 835.25,-123.5 835.25,-123.5 835.25,-123.5 835.25,-645.71 835.25,-645.71"/>
<polygon fill="#9c27b0" stroke="#9c27b0" stroke-width="1.5" points="831.75,-645.71 835.25,-655.71 838.75,-645.71 831.75,-645.71"/>
</g>
<!-- analyzer_privilege_escalation&#45;&gt;meta_analyzer -->
<g id="edge29" class="edge">
<title>analyzer_privilege_escalation&#45;&gt;meta_analyzer</title>
<path fill="none" stroke="#9c27b0" stroke-width="1.5" d="M606.45,-188.5C673.04,-188.5 825.25,-188.5 825.25,-188.5 825.25,-188.5 825.25,-645.66 825.25,-645.66"/>
<polygon fill="#9c27b0" stroke="#9c27b0" stroke-width="1.5" points="821.75,-645.66 825.25,-655.66 828.75,-645.66 821.75,-645.66"/>
</g>
<!-- analyzer_supply_chain&#45;&gt;meta_analyzer -->
<g id="edge30" class="edge">
<title>analyzer_supply_chain&#45;&gt;meta_analyzer</title>
<path fill="none" stroke="#9c27b0" stroke-width="1.5" d="M603.33,-253.5C666.21,-253.5 815.25,-253.5 815.25,-253.5 815.25,-253.5 815.25,-645.62 815.25,-645.62"/>
<polygon fill="#9c27b0" stroke="#9c27b0" stroke-width="1.5" points="811.75,-645.62 815.25,-655.62 818.75,-645.62 811.75,-645.62"/>
</g>
<!-- analyzer_excessive_agency&#45;&gt;meta_analyzer -->
<g id="edge31" class="edge">
<title>analyzer_excessive_agency&#45;&gt;meta_analyzer</title>
<path fill="none" stroke="#9c27b0" stroke-width="1.5" d="M606.33,-318.5C668.73,-318.5 805.25,-318.5 805.25,-318.5 805.25,-318.5 805.25,-645.56 805.25,-645.56"/>
<polygon fill="#9c27b0" stroke="#9c27b0" stroke-width="1.5" points="801.75,-645.56 805.25,-655.56 808.75,-645.56 801.75,-645.56"/>
</g>
<!-- analyzer_output_handling&#45;&gt;meta_analyzer -->
<g id="edge32" class="edge">
<title>analyzer_output_handling&#45;&gt;meta_analyzer</title>
<path fill="none" stroke="#9c27b0" stroke-width="1.5" d="M603.22,-383.5C662.02,-383.5 795.25,-383.5 795.25,-383.5 795.25,-383.5 795.25,-645.39 795.25,-645.39"/>
<polygon fill="#9c27b0" stroke="#9c27b0" stroke-width="1.5" points="791.75,-645.39 795.25,-655.39 798.75,-645.39 791.75,-645.39"/>
</g>
<!-- analyzer_system_prompt_leakage&#45;&gt;meta_analyzer -->
<g id="edge33" class="edge">
<title>analyzer_system_prompt_leakage&#45;&gt;meta_analyzer</title>
<path fill="none" stroke="#9c27b0" stroke-width="1.5" d="M603.12,-452.5C659.6,-452.5 784.25,-452.5 784.25,-452.5 784.25,-452.5 784.25,-645.63 784.25,-645.63"/>
<polygon fill="#9c27b0" stroke="#9c27b0" stroke-width="1.5" points="780.75,-645.63 784.25,-655.63 787.75,-645.63 780.75,-645.63"/>
</g>
<!-- analyzer_memory_poisoning&#45;&gt;meta_analyzer -->
<g id="edge34" class="edge">
<title>analyzer_memory_poisoning&#45;&gt;meta_analyzer</title>
<path fill="none" stroke="#9c27b0" stroke-width="1.5" d="M604.72,-521.5C659.74,-521.5 774.25,-521.5 774.25,-521.5 774.25,-521.5 774.25,-645.56 774.25,-645.56"/>
<polygon fill="#9c27b0" stroke="#9c27b0" stroke-width="1.5" points="770.75,-645.56 774.25,-655.56 777.75,-645.56 770.75,-645.56"/>
</g>
<!-- analyzer_tool_misuse&#45;&gt;meta_analyzer -->
<g id="edge35" class="edge">
<title>analyzer_tool_misuse&#45;&gt;meta_analyzer</title>
<path fill="none" stroke="#9c27b0" stroke-width="1.5" d="M603.27,-580.5C655.51,-580.5 764.25,-580.5 764.25,-580.5 764.25,-580.5 764.25,-645.5 764.25,-645.5"/>
<polygon fill="#9c27b0" stroke="#9c27b0" stroke-width="1.5" points="760.75,-645.5 764.25,-655.5 767.75,-645.5 760.75,-645.5"/>
</g>
<!-- analyzer_rogue_agent&#45;&gt;meta_analyzer -->
<g id="edge36" class="edge">
<title>analyzer_rogue_agent&#45;&gt;meta_analyzer</title>
<path fill="none" stroke="#9c27b0" stroke-width="1.5" d="M603.04,-663.81C603.04,-663.81 742.09,-663.81 742.09,-663.81"/>
<polygon fill="#9c27b0" stroke="#9c27b0" stroke-width="1.5" points="742.09,-667.31 752.09,-663.81 742.09,-660.31 742.09,-667.31"/>
</g>
<!-- analyzer_trigger_abuse&#45;&gt;meta_analyzer -->
<g id="edge37" class="edge">
<title>analyzer_trigger_abuse&#45;&gt;meta_analyzer</title>
<path fill="none" stroke="#9c27b0" stroke-width="1.5" d="M603.04,-703.69C603.04,-703.69 742.09,-703.69 742.09,-703.69"/>
<polygon fill="#9c27b0" stroke="#9c27b0" stroke-width="1.5" points="742.09,-707.19 752.09,-703.69 742.09,-700.19 742.09,-707.19"/>
</g>
<!-- analyzer_behavioral_ast&#45;&gt;meta_analyzer -->
<g id="edge38" class="edge">
<title>analyzer_behavioral_ast&#45;&gt;meta_analyzer</title>
<path fill="none" stroke="#9c27b0" stroke-width="1.5" d="M606.14,-775.5C659.39,-775.5 764.25,-775.5 764.25,-775.5 764.25,-775.5 764.25,-721.4 764.25,-721.4"/>
<polygon fill="#9c27b0" stroke="#9c27b0" stroke-width="1.5" points="767.75,-721.4 764.25,-711.4 760.75,-721.4 767.75,-721.4"/>
</g>
<!-- analyzer_taint_tracking&#45;&gt;meta_analyzer -->
<g id="edge39" class="edge">
<title>analyzer_taint_tracking&#45;&gt;meta_analyzer</title>
<path fill="none" stroke="#9c27b0" stroke-width="1.5" d="M603.04,-846.5C657.37,-846.5 774.25,-846.5 774.25,-846.5 774.25,-846.5 774.25,-721.6 774.25,-721.6"/>
<polygon fill="#9c27b0" stroke="#9c27b0" stroke-width="1.5" points="777.75,-721.6 774.25,-711.6 770.75,-721.6 777.75,-721.6"/>
</g>
<!-- analyzer_yara_signatures&#45;&gt;meta_analyzer -->
<g id="edge40" class="edge">
<title>analyzer_yara_signatures&#45;&gt;meta_analyzer</title>
<path fill="none" stroke="#9c27b0" stroke-width="1.5" d="M606.62,-911.5C664.58,-911.5 784.25,-911.5 784.25,-911.5 784.25,-911.5 784.25,-721.48 784.25,-721.48"/>
<polygon fill="#9c27b0" stroke="#9c27b0" stroke-width="1.5" points="787.75,-721.48 784.25,-711.48 780.75,-721.48 787.75,-721.48"/>
</g>
<!-- analyzer_osv_client&#45;&gt;meta_analyzer -->
<g id="edge41" class="edge">
<title>analyzer_osv_client&#45;&gt;meta_analyzer</title>
<path fill="none" stroke="#9c27b0" stroke-width="1.5" d="M603.22,-976.5C662.02,-976.5 795.25,-976.5 795.25,-976.5 795.25,-976.5 795.25,-721.52 795.25,-721.52"/>
<polygon fill="#9c27b0" stroke="#9c27b0" stroke-width="1.5" points="798.75,-721.52 795.25,-711.52 791.75,-721.52 798.75,-721.52"/>
</g>
<!-- analyzer_mcp_least_privilege&#45;&gt;meta_analyzer -->
<g id="edge42" class="edge">
<title>analyzer_mcp_least_privilege&#45;&gt;meta_analyzer</title>
<path fill="none" stroke="#9c27b0" stroke-width="1.5" d="M603.09,-1045.5C663.85,-1045.5 805.25,-1045.5 805.25,-1045.5 805.25,-1045.5 805.25,-721.51 805.25,-721.51"/>
<polygon fill="#9c27b0" stroke="#9c27b0" stroke-width="1.5" points="808.75,-721.51 805.25,-711.51 801.75,-721.51 808.75,-721.51"/>
</g>
<!-- analyzer_mcp_tool_poisoning&#45;&gt;meta_analyzer -->
<g id="edge43" class="edge">
<title>analyzer_mcp_tool_poisoning&#45;&gt;meta_analyzer</title>
<path fill="none" stroke="#9c27b0" stroke-width="1.5" d="M604.75,-1118.5C668.42,-1118.5 815.25,-1118.5 815.25,-1118.5 815.25,-1118.5 815.25,-721.36 815.25,-721.36"/>
<polygon fill="#9c27b0" stroke="#9c27b0" stroke-width="1.5" points="818.75,-721.36 815.25,-711.36 811.75,-721.36 818.75,-721.36"/>
</g>
<!-- analyzer_semantic_discovery&#45;&gt;meta_analyzer -->
<g id="edge44" class="edge">
<title>analyzer_semantic_discovery&#45;&gt;meta_analyzer</title>
<path fill="none" stroke="#9c27b0" stroke-width="1.5" d="M604.97,-1187.5C670.75,-1187.5 825.25,-1187.5 825.25,-1187.5 825.25,-1187.5 825.25,-721.46 825.25,-721.46"/>
<polygon fill="#9c27b0" stroke="#9c27b0" stroke-width="1.5" points="828.75,-721.46 825.25,-711.46 821.75,-721.46 828.75,-721.46"/>
</g>
<!-- analyzer_semantic_intent&#45;&gt;meta_analyzer -->
<g id="edge45" class="edge">
<title>analyzer_semantic_intent&#45;&gt;meta_analyzer</title>
<path fill="none" stroke="#9c27b0" stroke-width="1.5" d="M604.13,-1252.5C671.35,-1252.5 835.25,-1252.5 835.25,-1252.5 835.25,-1252.5 835.25,-721.32 835.25,-721.32"/>
<polygon fill="#9c27b0" stroke="#9c27b0" stroke-width="1.5" points="838.75,-721.32 835.25,-711.32 831.75,-721.32 838.75,-721.32"/>
</g>
<!-- analyzer_semantic_quality&#45;&gt;meta_analyzer -->
<g id="edge46" class="edge">
<title>analyzer_semantic_quality&#45;&gt;meta_analyzer</title>
<path fill="none" stroke="#9c27b0" stroke-width="1.5" d="M604.19,-1317.5C673.35,-1317.5 845.25,-1317.5 845.25,-1317.5 845.25,-1317.5 845.25,-721.41 845.25,-721.41"/>
<polygon fill="#9c27b0" stroke="#9c27b0" stroke-width="1.5" points="848.75,-721.41 845.25,-711.41 841.75,-721.41 848.75,-721.41"/>
</g>
<!-- report -->
<g id="node29" class="node">
<title>report</title>
<path fill="#2196f3" stroke="black" d="M1001,-708.88C1001,-708.88 939.25,-708.88 939.25,-708.88 933.25,-708.88 927.25,-702.88 927.25,-696.88 927.25,-696.88 927.25,-670.12 927.25,-670.12 927.25,-664.12 933.25,-658.12 939.25,-658.12 939.25,-658.12 1001,-658.12 1001,-658.12 1007,-658.12 1013,-664.12 1013,-670.12 1013,-670.12 1013,-696.88 1013,-696.88 1013,-702.88 1007,-708.88 1001,-708.88"/>
<text xml:space="preserve" text-anchor="middle" x="970.12" y="-693.48" font-family="Arial Bold" font-size="12.00" fill="white">report</text>
<text xml:space="preserve" text-anchor="middle" x="970.12" y="-679.23" font-family="Arial Bold" font-size="12.00" fill="white">(SARIF 2.1.0</text>
<text xml:space="preserve" text-anchor="middle" x="970.12" y="-664.98" font-family="Arial Bold" font-size="12.00" fill="white">Risk Score)</text>
</g>
<!-- meta_analyzer&#45;&gt;report -->
<g id="edge47" class="edge">
<title>meta_analyzer&#45;&gt;report</title>
<path fill="none" stroke="#2196f3" stroke-width="2" d="M855.35,-683.5C855.35,-683.5 913.9,-683.5 913.9,-683.5"/>
<polygon fill="#2196f3" stroke="#2196f3" stroke-width="2" points="913.9,-687 923.9,-683.5 913.9,-680 913.9,-687"/>
</g>
<!-- output_Terminal -->
<g id="node30" class="node">
<title>output_Terminal</title>
<polygon fill="#ff5722" stroke="black" points="1146.38,-799.5 1089.88,-799.5 1089.88,-763.5 1146.38,-763.5 1146.38,-799.5"/>
<text xml:space="preserve" text-anchor="middle" x="1118.12" y="-777.8" font-family="Arial" font-size="11.00" fill="white">Terminal</text>
</g>
<!-- report&#45;&gt;output_Terminal -->
<g id="edge48" class="edge">
<title>report&#45;&gt;output_Terminal</title>
<path fill="none" stroke="#ff5722" stroke-width="1.5" d="M970.25,-709.21C970.25,-740.01 970.25,-787.5 970.25,-787.5 970.25,-787.5 1077.34,-787.5 1077.34,-787.5"/>
<polygon fill="#ff5722" stroke="#ff5722" stroke-width="1.5" points="1077.34,-791 1087.34,-787.5 1077.34,-784 1077.34,-791"/>
</g>
<!-- output_JSON -->
<g id="node31" class="node">
<title>output_JSON</title>
<polygon fill="#ff5722" stroke="black" points="1145.12,-734.5 1091.12,-734.5 1091.12,-698.5 1145.12,-698.5 1145.12,-734.5"/>
<text xml:space="preserve" text-anchor="middle" x="1118.12" y="-712.8" font-family="Arial" font-size="11.00" fill="white">JSON</text>
</g>
<!-- report&#45;&gt;output_JSON -->
<g id="edge49" class="edge">
<title>report&#45;&gt;output_JSON</title>
<path fill="none" stroke="#ff5722" stroke-width="1.5" d="M1013.33,-703.69C1013.33,-703.69 1078.68,-703.69 1078.68,-703.69"/>
<polygon fill="#ff5722" stroke="#ff5722" stroke-width="1.5" points="1078.68,-707.19 1088.68,-703.69 1078.68,-700.19 1078.68,-707.19"/>
</g>
<!-- output_Markdown -->
<g id="node32" class="node">
<title>output_Markdown</title>
<polygon fill="#ff5722" stroke="black" points="1151.25,-669.5 1085,-669.5 1085,-633.5 1151.25,-633.5 1151.25,-669.5"/>
<text xml:space="preserve" text-anchor="middle" x="1118.12" y="-647.8" font-family="Arial" font-size="11.00" fill="white">Markdown</text>
</g>
<!-- report&#45;&gt;output_Markdown -->
<g id="edge50" class="edge">
<title>report&#45;&gt;output_Markdown</title>
<path fill="none" stroke="#ff5722" stroke-width="1.5" d="M1013.33,-663.81C1013.33,-663.81 1072.24,-663.81 1072.24,-663.81"/>
<polygon fill="#ff5722" stroke="#ff5722" stroke-width="1.5" points="1072.24,-667.31 1082.24,-663.81 1072.24,-660.31 1072.24,-667.31"/>
</g>
<!-- output_SARIF -->
<g id="node33" class="node">
<title>output_SARIF</title>
<polygon fill="#ff5722" stroke="black" points="1145.12,-604.5 1091.12,-604.5 1091.12,-568.5 1145.12,-568.5 1145.12,-604.5"/>
<text xml:space="preserve" text-anchor="middle" x="1118.12" y="-582.8" font-family="Arial" font-size="11.00" fill="white">SARIF</text>
</g>
<!-- report&#45;&gt;output_SARIF -->
<g id="edge51" class="edge">
<title>report&#45;&gt;output_SARIF</title>
<path fill="none" stroke="#ff5722" stroke-width="1.5" d="M970.25,-657.67C970.25,-630.76 970.25,-592.5 970.25,-592.5 970.25,-592.5 1078.39,-592.5 1078.39,-592.5"/>
<polygon fill="#ff5722" stroke="#ff5722" stroke-width="1.5" points="1078.39,-596 1088.39,-592.5 1078.39,-589 1078.39,-596"/>
</g>
</g>
</svg>
