<?xml version="1.0" encoding="UTF-8" standalone="no"?>
<!DOCTYPE svg PUBLIC "-//W3C//DTD SVG 1.1//EN"
 "http://www.w3.org/Graphics/SVG/1.1/DTD/svg11.dtd">
<!-- Generated by graphviz version 14.1.2 (0)
 -->
<!-- Title: smallcode_pipeline Pages: 1 -->
<svg width="1173pt" height="328pt"
 viewBox="0.00 0.00 1173.00 328.00" xmlns="http://www.w3.org/2000/svg" xmlns:xlink="http://www.w3.org/1999/xlink">
<g id="graph0" class="graph" transform="scale(1 1) rotate(0) translate(4 323.7)">
<title>smallcode_pipeline</title>
<text xml:space="preserve" text-anchor="middle" x="582.7" y="-7.2" font-family="Times New Roman,serif" font-size="14.00">SmallCode Optimization Pipeline</text>
<!-- raw -->
<g id="node1" class="node">
<title>raw</title>
<polygon fill="#f44336" stroke="black" points="158.4,-200.9 0,-200.9 0,-143.3 158.4,-143.3 158.4,-200.9"/>
<text xml:space="preserve" text-anchor="middle" x="79.2" y="-175.15" font-family="Arial" font-size="11.00" fill="white">Raw</text>
<text xml:space="preserve" text-anchor="middle" x="79.2" y="-161.65" font-family="Arial" font-size="11.00" fill="white">Input</text>
</g>
<!-- sysprompt -->
<g id="node2" class="node">
<title>sysprompt</title>
<polygon fill="#f44336" stroke="black" points="359.8,-297.9 201.4,-297.9 201.4,-240.3 359.8,-240.3 359.8,-297.9"/>
<text xml:space="preserve" text-anchor="middle" x="280.6" y="-272.15" font-family="Arial" font-size="11.00" fill="white">Full System</text>
<text xml:space="preserve" text-anchor="middle" x="280.6" y="-258.65" font-family="Arial" font-size="11.00" fill="white">Prompt</text>
</g>
<!-- raw&#45;&gt;sysprompt -->
<g id="edge1" class="edge">
<title>raw&#45;&gt;sysprompt</title>
<path fill="none" stroke="#f44336" stroke-width="1.5" d="M79.4,-201.2C79.4,-229.78 79.4,-269.1 79.4,-269.1 79.4,-269.1 188.81,-269.1 188.81,-269.1"/>
<polygon fill="#f44336" stroke="#f44336" stroke-width="1.5" points="188.81,-272.6 198.81,-269.1 188.81,-265.6 188.81,-272.6"/>
<text xml:space="preserve" text-anchor="middle" x="77.66" y="-255.8" font-family="Times New Roman,serif" font-size="14.00">includes</text>
</g>
<!-- fullctx -->
<g id="node3" class="node">
<title>fullctx</title>
<polygon fill="#f44336" stroke="black" points="359.8,-200.9 201.4,-200.9 201.4,-143.3 359.8,-143.3 359.8,-200.9"/>
<text xml:space="preserve" text-anchor="middle" x="280.6" y="-175.15" font-family="Arial" font-size="11.00" fill="white">Full File</text>
<text xml:space="preserve" text-anchor="middle" x="280.6" y="-161.65" font-family="Arial" font-size="11.00" fill="white">Context</text>
</g>
<!-- raw&#45;&gt;fullctx -->
<g id="edge2" class="edge">
<title>raw&#45;&gt;fullctx</title>
<path fill="none" stroke="#f44336" stroke-width="1.5" d="M158.8,-172.1C158.8,-172.1 188.65,-172.1 188.65,-172.1"/>
<polygon fill="#f44336" stroke="#f44336" stroke-width="1.5" points="188.65,-175.6 198.65,-172.1 188.65,-168.6 188.65,-175.6"/>
<text xml:space="preserve" text-anchor="middle" x="196.22" y="-158.8" font-family="Times New Roman,serif" font-size="14.00">includes</text>
</g>
<!-- complextask -->
<g id="node4" class="node">
<title>complextask</title>
<polygon fill="#f44336" stroke="black" points="359.8,-103.9 201.4,-103.9 201.4,-46.3 359.8,-46.3 359.8,-103.9"/>
<text xml:space="preserve" text-anchor="middle" x="280.6" y="-78.15" font-family="Arial" font-size="11.00" fill="white">Complex</text>
<text xml:space="preserve" text-anchor="middle" x="280.6" y="-64.65" font-family="Arial" font-size="11.00" fill="white">Task</text>
</g>
<!-- raw&#45;&gt;complextask -->
<g id="edge3" class="edge">
<title>raw&#45;&gt;complextask</title>
<path fill="none" stroke="#f44336" stroke-width="1.5" d="M79.4,-143C79.4,-114.42 79.4,-75.1 79.4,-75.1 79.4,-75.1 188.81,-75.1 188.81,-75.1"/>
<polygon fill="#f44336" stroke="#f44336" stroke-width="1.5" points="188.81,-78.6 198.81,-75.1 188.81,-71.6 188.81,-78.6"/>
<text xml:space="preserve" text-anchor="middle" x="77.66" y="-61.8" font-family="Times New Roman,serif" font-size="14.00">includes</text>
</g>
<!-- compress -->
<g id="node5" class="node">
<title>compress</title>
<polygon fill="#2196f3" stroke="black" points="482,-319.7 402.8,-280.1 482,-240.5 561.2,-280.1 482,-319.7"/>
<text xml:space="preserve" text-anchor="middle" x="482" y="-282.6" font-family="Arial Bold" font-size="10.00" fill="white">Context</text>
<text xml:space="preserve" text-anchor="middle" x="482" y="-270.6" font-family="Arial Bold" font-size="10.00" fill="white">Budget</text>
</g>
<!-- sysprompt&#45;&gt;compress -->
<g id="edge4" class="edge">
<title>sysprompt&#45;&gt;compress</title>
<path fill="none" stroke="#f44336" stroke-width="1.5" d="M360.2,-269.2C360.2,-269.2 411.51,-269.2 411.51,-269.2"/>
<polygon fill="#f44336" stroke="#f44336" stroke-width="1.5" points="411.51,-272.7 421.51,-269.2 411.51,-265.7 411.51,-272.7"/>
<text xml:space="preserve" text-anchor="middle" x="361.86" y="-255.9" font-family="Times New Roman,serif" font-size="14.00">too large</text>
</g>
<!-- prune -->
<g id="node6" class="node">
<title>prune</title>
<polygon fill="#2196f3" stroke="black" points="482,-211.7 402.8,-172.1 482,-132.5 561.2,-172.1 482,-211.7"/>
<text xml:space="preserve" text-anchor="middle" x="482" y="-174.6" font-family="Arial Bold" font-size="10.00" fill="white">Read</text>
<text xml:space="preserve" text-anchor="middle" x="482" y="-162.6" font-family="Arial Bold" font-size="10.00" fill="white">Guard</text>
</g>
<!-- fullctx&#45;&gt;prune -->
<g id="edge5" class="edge">
<title>fullctx&#45;&gt;prune</title>
<path fill="none" stroke="#f44336" stroke-width="1.5" d="M360.2,-172.1C360.2,-172.1 389.72,-172.1 389.72,-172.1"/>
<polygon fill="#f44336" stroke="#f44336" stroke-width="1.5" points="389.72,-175.6 399.72,-172.1 389.72,-168.6 389.72,-175.6"/>
<text xml:space="preserve" text-anchor="middle" x="398.96" y="-175.3" font-family="Times New Roman,serif" font-size="14.00">too large</text>
</g>
<!-- decompose -->
<g id="node7" class="node">
<title>decompose</title>
<polygon fill="#2196f3" stroke="black" points="482,-103.7 402.8,-64.1 482,-24.5 561.2,-64.1 482,-103.7"/>
<text xml:space="preserve" text-anchor="middle" x="482" y="-66.6" font-family="Arial Bold" font-size="10.00" fill="white">TODO</text>
<text xml:space="preserve" text-anchor="middle" x="482" y="-54.6" font-family="Arial Bold" font-size="10.00" fill="white">Planner</text>
</g>
<!-- complextask&#45;&gt;decompose -->
<g id="edge6" class="edge">
<title>complextask&#45;&gt;decompose</title>
<path fill="none" stroke="#f44336" stroke-width="1.5" d="M360.2,-75C360.2,-75 411.51,-75 411.51,-75"/>
<polygon fill="#f44336" stroke="#f44336" stroke-width="1.5" points="411.51,-78.5 421.51,-75 411.51,-71.5 411.51,-78.5"/>
<text xml:space="preserve" text-anchor="middle" x="351.73" y="-78.2" font-family="Times New Roman,serif" font-size="14.00">too complex</text>
</g>
<!-- compact -->
<g id="node8" class="node">
<title>compact</title>
<path fill="#4caf50" stroke="black" d="M750.6,-297.9C750.6,-297.9 616.2,-297.9 616.2,-297.9 610.2,-297.9 604.2,-291.9 604.2,-285.9 604.2,-285.9 604.2,-252.3 604.2,-252.3 604.2,-246.3 610.2,-240.3 616.2,-240.3 616.2,-240.3 750.6,-240.3 750.6,-240.3 756.6,-240.3 762.6,-246.3 762.6,-252.3 762.6,-252.3 762.6,-285.9 762.6,-285.9 762.6,-291.9 756.6,-297.9 750.6,-297.9"/>
<text xml:space="preserve" text-anchor="middle" x="683.4" y="-272.15" font-family="Arial" font-size="11.00" fill="white">Budgeted</text>
<text xml:space="preserve" text-anchor="middle" x="683.4" y="-258.65" font-family="Arial" font-size="11.00" fill="white">Prompt</text>
</g>
<!-- compress&#45;&gt;compact -->
<g id="edge7" class="edge">
<title>compress&#45;&gt;compact</title>
<path fill="none" stroke="#2196f3" stroke-width="2" d="M540.25,-269.2C540.25,-269.2 590.9,-269.2 590.9,-269.2"/>
<polygon fill="#2196f3" stroke="#2196f3" stroke-width="2" points="590.9,-272.7 600.9,-269.2 590.9,-265.7 590.9,-272.7"/>
<text xml:space="preserve" text-anchor="middle" x="598.58" y="-255.9" font-family="Times New Roman,serif" font-size="14.00">70% budget</text>
</g>
<!-- relevant -->
<g id="node9" class="node">
<title>relevant</title>
<path fill="#4caf50" stroke="black" d="M750.6,-200.9C750.6,-200.9 616.2,-200.9 616.2,-200.9 610.2,-200.9 604.2,-194.9 604.2,-188.9 604.2,-188.9 604.2,-155.3 604.2,-155.3 604.2,-149.3 610.2,-143.3 616.2,-143.3 616.2,-143.3 750.6,-143.3 750.6,-143.3 756.6,-143.3 762.6,-149.3 762.6,-155.3 762.6,-155.3 762.6,-188.9 762.6,-188.9 762.6,-194.9 756.6,-200.9 750.6,-200.9"/>
<text xml:space="preserve" text-anchor="middle" x="683.4" y="-175.15" font-family="Arial" font-size="11.00" fill="white">Guarded</text>
<text xml:space="preserve" text-anchor="middle" x="683.4" y="-161.65" font-family="Arial" font-size="11.00" fill="white">Context</text>
</g>
<!-- prune&#45;&gt;relevant -->
<g id="edge8" class="edge">
<title>prune&#45;&gt;relevant</title>
<path fill="none" stroke="#2196f3" stroke-width="2" d="M562.18,-172.1C562.18,-172.1 590.8,-172.1 590.8,-172.1"/>
<polygon fill="#2196f3" stroke="#2196f3" stroke-width="2" points="590.8,-175.6 600.8,-172.1 590.8,-168.6 590.8,-175.6"/>
<text xml:space="preserve" text-anchor="middle" x="603.86" y="-158.8" font-family="Times New Roman,serif" font-size="14.00">head lines</text>
</g>
<!-- subtasks -->
<g id="node10" class="node">
<title>subtasks</title>
<path fill="#4caf50" stroke="black" d="M750.6,-103.9C750.6,-103.9 616.2,-103.9 616.2,-103.9 610.2,-103.9 604.2,-97.9 604.2,-91.9 604.2,-91.9 604.2,-58.3 604.2,-58.3 604.2,-52.3 610.2,-46.3 616.2,-46.3 616.2,-46.3 750.6,-46.3 750.6,-46.3 756.6,-46.3 762.6,-52.3 762.6,-58.3 762.6,-58.3 762.6,-91.9 762.6,-91.9 762.6,-97.9 756.6,-103.9 750.6,-103.9"/>
<text xml:space="preserve" text-anchor="middle" x="683.4" y="-78.15" font-family="Arial" font-size="11.00" fill="white">Atomic</text>
<text xml:space="preserve" text-anchor="middle" x="683.4" y="-64.65" font-family="Arial" font-size="11.00" fill="white">Sub&#45;tasks</text>
</g>
<!-- decompose&#45;&gt;subtasks -->
<g id="edge9" class="edge">
<title>decompose&#45;&gt;subtasks</title>
<path fill="none" stroke="#2196f3" stroke-width="2" d="M540.25,-75C540.25,-75 590.9,-75 590.9,-75"/>
<polygon fill="#2196f3" stroke="#2196f3" stroke-width="2" points="590.9,-78.5 600.9,-75 590.9,-71.5 590.9,-78.5"/>
<text xml:space="preserve" text-anchor="middle" x="589.95" y="-78.2" font-family="Times New Roman,serif" font-size="14.00">3&#45;5 steps</text>
</g>
<!-- llm -->
<g id="node11" class="node">
<title>llm</title>
<polygon fill="#9c27b0" stroke="black" points="964,-200.9 809.6,-200.9 805.6,-196.9 805.6,-143.3 960,-143.3 964,-147.3 964,-200.9"/>
<polyline fill="none" stroke="black" points="960,-196.9 805.6,-196.9"/>
<polyline fill="none" stroke="black" points="960,-196.9 960,-143.3"/>
<polyline fill="none" stroke="black" points="960,-196.9 964,-200.9"/>
<text xml:space="preserve" text-anchor="middle" x="884.8" y="-174.95" font-family="Arial Bold" font-size="12.00" fill="white">Small LLM</text>
<text xml:space="preserve" text-anchor="middle" x="884.8" y="-160.7" font-family="Arial Bold" font-size="12.00" fill="white">8B&#45;35B</text>
</g>
<!-- compact&#45;&gt;llm -->
<g id="edge10" class="edge">
<title>compact&#45;&gt;llm</title>
<path fill="none" stroke="#4caf50" stroke-width="2" d="M762.84,-269.1C819.02,-269.1 884.4,-269.1 884.4,-269.1 884.4,-269.1 884.4,-214.23 884.4,-214.23"/>
<polygon fill="#4caf50" stroke="#4caf50" stroke-width="2" points="887.9,-214.23 884.4,-204.23 880.9,-214.23 887.9,-214.23"/>
<text xml:space="preserve" text-anchor="middle" x="820.68" y="-255.8" font-family="Times New Roman,serif" font-size="14.00">fits context</text>
</g>
<!-- relevant&#45;&gt;llm -->
<g id="edge11" class="edge">
<title>relevant&#45;&gt;llm</title>
<path fill="none" stroke="#4caf50" stroke-width="2" d="M763,-172.1C763,-172.1 792.09,-172.1 792.09,-172.1"/>
<polygon fill="#4caf50" stroke="#4caf50" stroke-width="2" points="792.09,-175.6 802.09,-172.1 792.09,-168.6 792.09,-175.6"/>
<text xml:space="preserve" text-anchor="middle" x="807.92" y="-158.8" font-family="Times New Roman,serif" font-size="14.00">fits context</text>
</g>
<!-- subtasks&#45;&gt;llm -->
<g id="edge12" class="edge">
<title>subtasks&#45;&gt;llm</title>
<path fill="none" stroke="#4caf50" stroke-width="2" d="M762.84,-75.1C819.02,-75.1 884.4,-75.1 884.4,-75.1 884.4,-75.1 884.4,-129.97 884.4,-129.97"/>
<polygon fill="#4caf50" stroke="#4caf50" stroke-width="2" points="880.9,-129.97 884.4,-139.97 887.9,-129.97 880.9,-129.97"/>
<text xml:space="preserve" text-anchor="middle" x="814.31" y="-61.8" font-family="Times New Roman,serif" font-size="14.00">fits reasoning</text>
</g>
<!-- result -->
<g id="node12" class="node">
<title>result</title>
<path fill="#4caf50" stroke="black" d="M1153.4,-200.9C1153.4,-200.9 1019,-200.9 1019,-200.9 1013,-200.9 1007,-194.9 1007,-188.9 1007,-188.9 1007,-155.3 1007,-155.3 1007,-149.3 1013,-143.3 1019,-143.3 1019,-143.3 1153.4,-143.3 1153.4,-143.3 1159.4,-143.3 1165.4,-149.3 1165.4,-155.3 1165.4,-155.3 1165.4,-188.9 1165.4,-188.9 1165.4,-194.9 1159.4,-200.9 1153.4,-200.9"/>
<text xml:space="preserve" text-anchor="middle" x="1086.2" y="-175.15" font-family="Arial" font-size="11.00" fill="white">87% Single&#45;</text>
<text xml:space="preserve" text-anchor="middle" x="1086.2" y="-161.65" font-family="Arial" font-size="11.00" fill="white">File Success</text>
</g>
<!-- llm&#45;&gt;result -->
<g id="edge13" class="edge">
<title>llm&#45;&gt;result</title>
<path fill="none" stroke="#4caf50" stroke-width="2" d="M964.4,-172.1C964.4,-172.1 993.49,-172.1 993.49,-172.1"/>
<polygon fill="#4caf50" stroke="#4caf50" stroke-width="2" points="993.49,-175.6 1003.49,-172.1 993.49,-168.6 993.49,-175.6"/>
<text xml:space="preserve" text-anchor="middle" x="1005.2" y="-158.8" font-family="Times New Roman,serif" font-size="14.00">4B&#45;active</text>
</g>
</g>
</svg>
