<?xml version="1.0" encoding="UTF-8" standalone="no"?>
<!DOCTYPE svg PUBLIC "-//W3C//DTD SVG 1.1//EN"
 "http://www.w3.org/Graphics/SVG/1.1/DTD/svg11.dtd">
<!-- Generated by graphviz version 14.1.2 (0)
 -->
<!-- Title: sdd_workflow Pages: 1 -->
<svg width="1413pt" height="1121pt"
 viewBox="0.00 0.00 1413.00 1121.00" xmlns="http://www.w3.org/2000/svg" xmlns:xlink="http://www.w3.org/1999/xlink">
<g id="graph0" class="graph" transform="scale(1 1) rotate(0) translate(4 1117.3)">
<title>sdd_workflow</title>
<polygon fill="white" stroke="none" points="-4,4 -4,-1117.3 1409,-1117.3 1409,4 -4,4"/>
<text xml:space="preserve" text-anchor="middle" x="702.5" y="-7.2" font-family="Times New Roman,serif" font-size="14.00">Spec&#45;Driven Development Workflow</text>
<!-- start -->
<g id="node1" class="node">
<title>start</title>
<ellipse fill="#9c27b0" stroke="black" cx="420" cy="-1088.1" rx="72" ry="25.2"/>
<text xml:space="preserve" text-anchor="middle" x="420" y="-1090.95" font-family="Arial Bold" font-size="12.00" fill="white">Start</text>
<text xml:space="preserve" text-anchor="middle" x="420" y="-1076.7" font-family="Arial Bold" font-size="12.00" fill="white">Project Idea</text>
</g>
<!-- s1 -->
<g id="node2" class="node">
<title>s1</title>
<path fill="#2196f3" stroke="black" d="M534,-997.9C534,-997.9 306,-997.9 306,-997.9 300,-997.9 294,-991.9 294,-985.9 294,-985.9 294,-937.9 294,-937.9 294,-931.9 300,-925.9 306,-925.9 306,-925.9 534,-925.9 534,-925.9 540,-925.9 546,-931.9 546,-937.9 546,-937.9 546,-985.9 546,-985.9 546,-991.9 540,-997.9 534,-997.9"/>
<text xml:space="preserve" text-anchor="middle" x="420" y="-964.55" font-family="Arial Bold" font-size="13.00" fill="white">Step 1: Constitution</text>
<text xml:space="preserve" text-anchor="middle" x="420" y="-949.55" font-family="Arial Bold" font-size="13.00" fill="white">Establish Project Principles</text>
</g>
<!-- start&#45;&gt;s1 -->
<g id="edge1" class="edge">
<title>start&#45;&gt;s1</title>
<path fill="none" stroke="#9c27b0" stroke-width="2" d="M420,-1062.56C420,-1062.56 420,-1010.95 420,-1010.95"/>
<polygon fill="#9c27b0" stroke="#9c27b0" stroke-width="2" points="423.5,-1010.95 420,-1000.95 416.5,-1010.95 423.5,-1010.95"/>
</g>
<!-- c1 -->
<g id="node3" class="node">
<title>c1</title>
<path fill="#ff9800" stroke="black" d="M387,-846.5C387,-846.5 159,-846.5 159,-846.5 153,-846.5 147,-840.5 147,-834.5 147,-834.5 147,-815.3 147,-815.3 147,-809.3 153,-803.3 159,-803.3 159,-803.3 387,-803.3 387,-803.3 393,-803.3 399,-809.3 399,-815.3 399,-815.3 399,-834.5 399,-834.5 399,-840.5 393,-846.5 387,-846.5"/>
<text xml:space="preserve" text-anchor="middle" x="273" y="-821.4" font-family="Arial" font-size="10.00" fill="white">/speckit.constitution</text>
</g>
<!-- s1&#45;&gt;c1 -->
<g id="edge2" class="edge">
<title>s1&#45;&gt;c1</title>
<path fill="none" stroke="#ff9800" stroke-width="1.5" stroke-dasharray="5,2" d="M346.5,-925.55C346.5,-925.55 346.5,-859.11 346.5,-859.11"/>
<polygon fill="#ff9800" stroke="#ff9800" stroke-width="1.5" points="350,-859.11 346.5,-849.11 343,-859.11 350,-859.11"/>
</g>
<!-- s2 -->
<g id="node5" class="node">
<title>s2</title>
<path fill="#2196f3" stroke="black" d="M682,-860.9C682,-860.9 454,-860.9 454,-860.9 448,-860.9 442,-854.9 442,-848.9 442,-848.9 442,-800.9 442,-800.9 442,-794.9 448,-788.9 454,-788.9 454,-788.9 682,-788.9 682,-788.9 688,-788.9 694,-794.9 694,-800.9 694,-800.9 694,-848.9 694,-848.9 694,-854.9 688,-860.9 682,-860.9"/>
<text xml:space="preserve" text-anchor="middle" x="568" y="-827.55" font-family="Arial Bold" font-size="13.00" fill="white">Step 2: Specify</text>
<text xml:space="preserve" text-anchor="middle" x="568" y="-812.55" font-family="Arial Bold" font-size="13.00" fill="white">Define What to Build</text>
</g>
<!-- s1&#45;&gt;s2 -->
<g id="edge4" class="edge">
<title>s1&#45;&gt;s2</title>
<path fill="none" stroke="#2196f3" stroke-width="2.5" d="M494,-925.55C494,-925.55 494,-874.73 494,-874.73"/>
<polygon fill="#2196f3" stroke="#2196f3" stroke-width="2.5" points="497.5,-874.73 494,-864.73 490.5,-874.73 497.5,-874.73"/>
</g>
<!-- o1 -->
<g id="node4" class="node">
<title>o1</title>
<path fill="#4caf50" stroke="black" d="M240,-709.5C240,-709.5 12,-709.5 12,-709.5 6,-709.5 0,-703.5 0,-697.5 0,-697.5 0,-678.3 0,-678.3 0,-672.3 6,-666.3 12,-666.3 12,-666.3 240,-666.3 240,-666.3 246,-666.3 252,-672.3 252,-678.3 252,-678.3 252,-697.5 252,-697.5 252,-703.5 246,-709.5 240,-709.5"/>
<text xml:space="preserve" text-anchor="middle" x="126" y="-684.4" font-family="Arial" font-size="10.00" fill="white">constitution.md</text>
</g>
<!-- c1&#45;&gt;o1 -->
<g id="edge3" class="edge">
<title>c1&#45;&gt;o1</title>
<path fill="none" stroke="#4caf50" stroke-width="1.5" stroke-dasharray="5,2" d="M199.5,-802.89C199.5,-802.89 199.5,-722.13 199.5,-722.13"/>
<polygon fill="#4caf50" stroke="#4caf50" stroke-width="1.5" points="203,-722.13 199.5,-712.13 196,-722.13 203,-722.13"/>
</g>
<!-- c2 -->
<g id="node6" class="node">
<title>c2</title>
<path fill="#ff9800" stroke="black" d="M535,-709.5C535,-709.5 307,-709.5 307,-709.5 301,-709.5 295,-703.5 295,-697.5 295,-697.5 295,-678.3 295,-678.3 295,-672.3 301,-666.3 307,-666.3 307,-666.3 535,-666.3 535,-666.3 541,-666.3 547,-672.3 547,-678.3 547,-678.3 547,-697.5 547,-697.5 547,-703.5 541,-709.5 535,-709.5"/>
<text xml:space="preserve" text-anchor="middle" x="421" y="-684.4" font-family="Arial" font-size="10.00" fill="white">/speckit.specify</text>
</g>
<!-- s2&#45;&gt;c2 -->
<g id="edge5" class="edge">
<title>s2&#45;&gt;c2</title>
<path fill="none" stroke="#ff9800" stroke-width="1.5" stroke-dasharray="5,2" d="M494.5,-788.55C494.5,-788.55 494.5,-722.11 494.5,-722.11"/>
<polygon fill="#ff9800" stroke="#ff9800" stroke-width="1.5" points="498,-722.11 494.5,-712.11 491,-722.11 498,-722.11"/>
</g>
<!-- s3 -->
<g id="node8" class="node">
<title>s3</title>
<path fill="#2196f3" stroke="black" d="M830,-723.9C830,-723.9 602,-723.9 602,-723.9 596,-723.9 590,-717.9 590,-711.9 590,-711.9 590,-663.9 590,-663.9 590,-657.9 596,-651.9 602,-651.9 602,-651.9 830,-651.9 830,-651.9 836,-651.9 842,-657.9 842,-663.9 842,-663.9 842,-711.9 842,-711.9 842,-717.9 836,-723.9 830,-723.9"/>
<text xml:space="preserve" text-anchor="middle" x="716" y="-690.55" font-family="Arial Bold" font-size="13.00" fill="white">Step 3: Clarify</text>
<text xml:space="preserve" text-anchor="middle" x="716" y="-675.55" font-family="Arial Bold" font-size="13.00" fill="white">Refine Requirements</text>
</g>
<!-- s2&#45;&gt;s3 -->
<g id="edge7" class="edge">
<title>s2&#45;&gt;s3</title>
<path fill="none" stroke="#2196f3" stroke-width="2.5" d="M642,-788.55C642,-788.55 642,-737.73 642,-737.73"/>
<polygon fill="#2196f3" stroke="#2196f3" stroke-width="2.5" points="645.5,-737.73 642,-727.73 638.5,-737.73 645.5,-737.73"/>
</g>
<!-- o2 -->
<g id="node7" class="node">
<title>o2</title>
<path fill="#4caf50" stroke="black" d="M387,-572.5C387,-572.5 159,-572.5 159,-572.5 153,-572.5 147,-566.5 147,-560.5 147,-560.5 147,-541.3 147,-541.3 147,-535.3 153,-529.3 159,-529.3 159,-529.3 387,-529.3 387,-529.3 393,-529.3 399,-535.3 399,-541.3 399,-541.3 399,-560.5 399,-560.5 399,-566.5 393,-572.5 387,-572.5"/>
<text xml:space="preserve" text-anchor="middle" x="273" y="-547.4" font-family="Arial" font-size="10.00" fill="white">spec.md</text>
</g>
<!-- c2&#45;&gt;o2 -->
<g id="edge6" class="edge">
<title>c2&#45;&gt;o2</title>
<path fill="none" stroke="#4caf50" stroke-width="1.5" stroke-dasharray="5,2" d="M347,-665.89C347,-665.89 347,-585.13 347,-585.13"/>
<polygon fill="#4caf50" stroke="#4caf50" stroke-width="1.5" points="350.5,-585.13 347,-575.13 343.5,-585.13 350.5,-585.13"/>
</g>
<!-- c3 -->
<g id="node9" class="node">
<title>c3</title>
<path fill="#ff9800" stroke="black" d="M682,-572.5C682,-572.5 454,-572.5 454,-572.5 448,-572.5 442,-566.5 442,-560.5 442,-560.5 442,-541.3 442,-541.3 442,-535.3 448,-529.3 454,-529.3 454,-529.3 682,-529.3 682,-529.3 688,-529.3 694,-535.3 694,-541.3 694,-541.3 694,-560.5 694,-560.5 694,-566.5 688,-572.5 682,-572.5"/>
<text xml:space="preserve" text-anchor="middle" x="568" y="-547.4" font-family="Arial" font-size="10.00" fill="white">/speckit.clarify</text>
</g>
<!-- s3&#45;&gt;c3 -->
<g id="edge8" class="edge">
<title>s3&#45;&gt;c3</title>
<path fill="none" stroke="#ff9800" stroke-width="1.5" stroke-dasharray="5,2" d="M642,-651.55C642,-651.55 642,-585.11 642,-585.11"/>
<polygon fill="#ff9800" stroke="#ff9800" stroke-width="1.5" points="645.5,-585.11 642,-575.11 638.5,-585.11 645.5,-585.11"/>
</g>
<!-- s4 -->
<g id="node11" class="node">
<title>s4</title>
<path fill="#2196f3" stroke="black" d="M977,-586.9C977,-586.9 749,-586.9 749,-586.9 743,-586.9 737,-580.9 737,-574.9 737,-574.9 737,-526.9 737,-526.9 737,-520.9 743,-514.9 749,-514.9 749,-514.9 977,-514.9 977,-514.9 983,-514.9 989,-520.9 989,-526.9 989,-526.9 989,-574.9 989,-574.9 989,-580.9 983,-586.9 977,-586.9"/>
<text xml:space="preserve" text-anchor="middle" x="863" y="-553.55" font-family="Arial Bold" font-size="13.00" fill="white">Step 4: Plan</text>
<text xml:space="preserve" text-anchor="middle" x="863" y="-538.55" font-family="Arial Bold" font-size="13.00" fill="white">Technical Implementation</text>
</g>
<!-- s3&#45;&gt;s4 -->
<g id="edge10" class="edge">
<title>s3&#45;&gt;s4</title>
<path fill="none" stroke="#2196f3" stroke-width="2.5" d="M789.5,-651.55C789.5,-651.55 789.5,-600.73 789.5,-600.73"/>
<polygon fill="#2196f3" stroke="#2196f3" stroke-width="2.5" points="793,-600.73 789.5,-590.73 786,-600.73 793,-600.73"/>
</g>
<!-- o3 -->
<g id="node10" class="node">
<title>o3</title>
<path fill="#4caf50" stroke="black" d="M534,-435.5C534,-435.5 306,-435.5 306,-435.5 300,-435.5 294,-429.5 294,-423.5 294,-423.5 294,-404.3 294,-404.3 294,-398.3 300,-392.3 306,-392.3 306,-392.3 534,-392.3 534,-392.3 540,-392.3 546,-398.3 546,-404.3 546,-404.3 546,-423.5 546,-423.5 546,-429.5 540,-435.5 534,-435.5"/>
<text xml:space="preserve" text-anchor="middle" x="420" y="-416.4" font-family="Arial" font-size="10.00" fill="white">Clarifications</text>
<text xml:space="preserve" text-anchor="middle" x="420" y="-404.4" font-family="Arial" font-size="10.00" fill="white">in spec.md</text>
</g>
<!-- c3&#45;&gt;o3 -->
<g id="edge9" class="edge">
<title>c3&#45;&gt;o3</title>
<path fill="none" stroke="#4caf50" stroke-width="1.5" stroke-dasharray="5,2" d="M494,-528.89C494,-528.89 494,-448.13 494,-448.13"/>
<polygon fill="#4caf50" stroke="#4caf50" stroke-width="1.5" points="497.5,-448.13 494,-438.13 490.5,-448.13 497.5,-448.13"/>
</g>
<!-- c4 -->
<g id="node12" class="node">
<title>c4</title>
<path fill="#ff9800" stroke="black" d="M829,-435.5C829,-435.5 601,-435.5 601,-435.5 595,-435.5 589,-429.5 589,-423.5 589,-423.5 589,-404.3 589,-404.3 589,-398.3 595,-392.3 601,-392.3 601,-392.3 829,-392.3 829,-392.3 835,-392.3 841,-398.3 841,-404.3 841,-404.3 841,-423.5 841,-423.5 841,-429.5 835,-435.5 829,-435.5"/>
<text xml:space="preserve" text-anchor="middle" x="715" y="-410.4" font-family="Arial" font-size="10.00" fill="white">/speckit.plan</text>
</g>
<!-- s4&#45;&gt;c4 -->
<g id="edge11" class="edge">
<title>s4&#45;&gt;c4</title>
<path fill="none" stroke="#ff9800" stroke-width="1.5" stroke-dasharray="5,2" d="M789,-514.55C789,-514.55 789,-448.11 789,-448.11"/>
<polygon fill="#ff9800" stroke="#ff9800" stroke-width="1.5" points="792.5,-448.11 789,-438.11 785.5,-448.11 792.5,-448.11"/>
</g>
<!-- s5 -->
<g id="node14" class="node">
<title>s5</title>
<path fill="#2196f3" stroke="black" d="M1124,-449.9C1124,-449.9 896,-449.9 896,-449.9 890,-449.9 884,-443.9 884,-437.9 884,-437.9 884,-389.9 884,-389.9 884,-383.9 890,-377.9 896,-377.9 896,-377.9 1124,-377.9 1124,-377.9 1130,-377.9 1136,-383.9 1136,-389.9 1136,-389.9 1136,-437.9 1136,-437.9 1136,-443.9 1130,-449.9 1124,-449.9"/>
<text xml:space="preserve" text-anchor="middle" x="1010" y="-416.55" font-family="Arial Bold" font-size="13.00" fill="white">Step 5: Tasks</text>
<text xml:space="preserve" text-anchor="middle" x="1010" y="-401.55" font-family="Arial Bold" font-size="13.00" fill="white">Break Down Into Tasks</text>
</g>
<!-- s4&#45;&gt;s5 -->
<g id="edge13" class="edge">
<title>s4&#45;&gt;s5</title>
<path fill="none" stroke="#2196f3" stroke-width="2.5" d="M936.5,-514.55C936.5,-514.55 936.5,-463.73 936.5,-463.73"/>
<polygon fill="#2196f3" stroke="#2196f3" stroke-width="2.5" points="940,-463.73 936.5,-453.73 933,-463.73 940,-463.73"/>
</g>
<!-- o4 -->
<g id="node13" class="node">
<title>o4</title>
<path fill="#4caf50" stroke="black" d="M803,-298.5C803,-298.5 575,-298.5 575,-298.5 569,-298.5 563,-292.5 563,-286.5 563,-286.5 563,-267.3 563,-267.3 563,-261.3 569,-255.3 575,-255.3 575,-255.3 803,-255.3 803,-255.3 809,-255.3 815,-261.3 815,-267.3 815,-267.3 815,-286.5 815,-286.5 815,-292.5 809,-298.5 803,-298.5"/>
<text xml:space="preserve" text-anchor="middle" x="689" y="-285.4" font-family="Arial" font-size="10.00" fill="white">plan.md</text>
<text xml:space="preserve" text-anchor="middle" x="689" y="-273.4" font-family="Arial" font-size="10.00" fill="white">data&#45;model.md</text>
<text xml:space="preserve" text-anchor="middle" x="689" y="-261.4" font-family="Arial" font-size="10.00" fill="white">contracts/</text>
</g>
<!-- c4&#45;&gt;o4 -->
<g id="edge12" class="edge">
<title>c4&#45;&gt;o4</title>
<path fill="none" stroke="#4caf50" stroke-width="1.5" stroke-dasharray="5,2" d="M702,-391.89C702,-391.89 702,-311.13 702,-311.13"/>
<polygon fill="#4caf50" stroke="#4caf50" stroke-width="1.5" points="705.5,-311.13 702,-301.13 698.5,-311.13 705.5,-311.13"/>
</g>
<!-- c5 -->
<g id="node15" class="node">
<title>c5</title>
<path fill="#ff9800" stroke="black" d="M1098,-298.5C1098,-298.5 870,-298.5 870,-298.5 864,-298.5 858,-292.5 858,-286.5 858,-286.5 858,-267.3 858,-267.3 858,-261.3 864,-255.3 870,-255.3 870,-255.3 1098,-255.3 1098,-255.3 1104,-255.3 1110,-261.3 1110,-267.3 1110,-267.3 1110,-286.5 1110,-286.5 1110,-292.5 1104,-298.5 1098,-298.5"/>
<text xml:space="preserve" text-anchor="middle" x="984" y="-273.4" font-family="Arial" font-size="10.00" fill="white">/speckit.tasks</text>
</g>
<!-- s5&#45;&gt;c5 -->
<g id="edge14" class="edge">
<title>s5&#45;&gt;c5</title>
<path fill="none" stroke="#ff9800" stroke-width="1.5" stroke-dasharray="5,2" d="M997,-377.55C997,-377.55 997,-311.11 997,-311.11"/>
<polygon fill="#ff9800" stroke="#ff9800" stroke-width="1.5" points="1000.5,-311.11 997,-301.11 993.5,-311.11 1000.5,-311.11"/>
</g>
<!-- s6 -->
<g id="node17" class="node">
<title>s6</title>
<path fill="#2196f3" stroke="black" d="M1393,-312.9C1393,-312.9 1165,-312.9 1165,-312.9 1159,-312.9 1153,-306.9 1153,-300.9 1153,-300.9 1153,-252.9 1153,-252.9 1153,-246.9 1159,-240.9 1165,-240.9 1165,-240.9 1393,-240.9 1393,-240.9 1399,-240.9 1405,-246.9 1405,-252.9 1405,-252.9 1405,-300.9 1405,-300.9 1405,-306.9 1399,-312.9 1393,-312.9"/>
<text xml:space="preserve" text-anchor="middle" x="1279" y="-279.55" font-family="Arial Bold" font-size="13.00" fill="white">Step 6: Implement</text>
<text xml:space="preserve" text-anchor="middle" x="1279" y="-264.55" font-family="Arial Bold" font-size="13.00" fill="white">Execute and Build</text>
</g>
<!-- s5&#45;&gt;s6 -->
<g id="edge16" class="edge">
<title>s5&#45;&gt;s6</title>
<path fill="none" stroke="#2196f3" stroke-width="2.5" d="M1123,-377.5C1123,-346.01 1123,-305.5 1123,-305.5 1123,-305.5 1138.93,-305.5 1138.93,-305.5"/>
<polygon fill="#2196f3" stroke="#2196f3" stroke-width="2.5" points="1138.93,-309 1148.93,-305.5 1138.93,-302 1138.93,-309"/>
</g>
<!-- o5 -->
<g id="node16" class="node">
<title>o5</title>
<path fill="#4caf50" stroke="black" d="M1098,-175.9C1098,-175.9 870,-175.9 870,-175.9 864,-175.9 858,-169.9 858,-163.9 858,-163.9 858,-144.7 858,-144.7 858,-138.7 864,-132.7 870,-132.7 870,-132.7 1098,-132.7 1098,-132.7 1104,-132.7 1110,-138.7 1110,-144.7 1110,-144.7 1110,-163.9 1110,-163.9 1110,-169.9 1104,-175.9 1098,-175.9"/>
<text xml:space="preserve" text-anchor="middle" x="984" y="-150.8" font-family="Arial" font-size="10.00" fill="white">tasks.md</text>
</g>
<!-- c5&#45;&gt;o5 -->
<g id="edge15" class="edge">
<title>c5&#45;&gt;o5</title>
<path fill="none" stroke="#4caf50" stroke-width="1.5" stroke-dasharray="5,2" d="M984,-254.98C984,-254.98 984,-188.3 984,-188.3"/>
<polygon fill="#4caf50" stroke="#4caf50" stroke-width="1.5" points="987.5,-188.3 984,-178.3 980.5,-188.3 987.5,-188.3"/>
</g>
<!-- s6&#45;&gt;s2 -->
<g id="edge19" class="edge">
<title>s6&#45;&gt;s2</title>
<path fill="none" stroke="#f44336" stroke-width="1.5" stroke-dasharray="5,2" d="M1279,-313.25C1279,-435.56 1279,-824.5 1279,-824.5 1279,-824.5 706.56,-824.5 706.56,-824.5"/>
<polygon fill="#f44336" stroke="#f44336" stroke-width="1.5" points="706.56,-821 696.56,-824.5 706.56,-828 706.56,-821"/>
<text xml:space="preserve" text-anchor="middle" x="1231.15" y="-827.7" font-family="Times New Roman,serif" font-size="14.00">Iterate</text>
</g>
<!-- c6 -->
<g id="node18" class="node">
<title>c6</title>
<path fill="#ff9800" stroke="black" d="M1393,-175.9C1393,-175.9 1165,-175.9 1165,-175.9 1159,-175.9 1153,-169.9 1153,-163.9 1153,-163.9 1153,-144.7 1153,-144.7 1153,-138.7 1159,-132.7 1165,-132.7 1165,-132.7 1393,-132.7 1393,-132.7 1399,-132.7 1405,-138.7 1405,-144.7 1405,-144.7 1405,-163.9 1405,-163.9 1405,-169.9 1399,-175.9 1393,-175.9"/>
<text xml:space="preserve" text-anchor="middle" x="1279" y="-150.8" font-family="Arial" font-size="10.00" fill="white">/speckit.implement</text>
</g>
<!-- s6&#45;&gt;c6 -->
<g id="edge17" class="edge">
<title>s6&#45;&gt;c6</title>
<path fill="none" stroke="#ff9800" stroke-width="1.5" stroke-dasharray="5,2" d="M1279,-240.45C1279,-240.45 1279,-188.48 1279,-188.48"/>
<polygon fill="#ff9800" stroke="#ff9800" stroke-width="1.5" points="1282.5,-188.48 1279,-178.48 1275.5,-188.48 1282.5,-188.48"/>
</g>
<!-- o6 -->
<g id="node19" class="node">
<title>o6</title>
<path fill="#4caf50" stroke="black" d="M1393,-67.7C1393,-67.7 1165,-67.7 1165,-67.7 1159,-67.7 1153,-61.7 1153,-55.7 1153,-55.7 1153,-36.5 1153,-36.5 1153,-30.5 1159,-24.5 1165,-24.5 1165,-24.5 1393,-24.5 1393,-24.5 1399,-24.5 1405,-30.5 1405,-36.5 1405,-36.5 1405,-55.7 1405,-55.7 1405,-61.7 1399,-67.7 1393,-67.7"/>
<text xml:space="preserve" text-anchor="middle" x="1279" y="-48.6" font-family="Arial" font-size="10.00" fill="white">Working</text>
<text xml:space="preserve" text-anchor="middle" x="1279" y="-36.6" font-family="Arial" font-size="10.00" fill="white">Application</text>
</g>
<!-- c6&#45;&gt;o6 -->
<g id="edge18" class="edge">
<title>c6&#45;&gt;o6</title>
<path fill="none" stroke="#4caf50" stroke-width="1.5" stroke-dasharray="5,2" d="M1279,-132.4C1279,-132.4 1279,-80.23 1279,-80.23"/>
<polygon fill="#4caf50" stroke="#4caf50" stroke-width="1.5" points="1282.5,-80.23 1279,-70.23 1275.5,-80.23 1282.5,-80.23"/>
</g>
</g>
</svg>
