<?xml version="1.0" encoding="UTF-8" standalone="no"?>
<!DOCTYPE svg PUBLIC "-//W3C//DTD SVG 1.1//EN"
 "http://www.w3.org/Graphics/SVG/1.1/DTD/svg11.dtd">
<!-- Generated by graphviz version 14.1.2 (0)
 -->
<!-- Title: stable_worldmodel_mpc_pipeline Pages: 1 -->
<svg width="608pt" height="966pt"
 viewBox="0.00 0.00 608.00 966.00" xmlns="http://www.w3.org/2000/svg" xmlns:xlink="http://www.w3.org/1999/xlink">
<g id="graph0" class="graph" transform="scale(1 1) rotate(0) translate(4 961.7)">
<title>stable_worldmodel_mpc_pipeline</title>
<text xml:space="preserve" text-anchor="middle" x="300" y="-7.2" font-family="Times New Roman,serif" font-size="14.00">Stable&#45;WorldModel MPC Pipeline</text>
<!-- step1 -->
<g id="node1" class="node">
<title>step1</title>
<path fill="#4caf50" stroke="black" d="M271,-957.7C271,-957.7 43,-957.7 43,-957.7 37,-957.7 31,-951.7 31,-945.7 31,-945.7 31,-904.9 31,-904.9 31,-898.9 37,-892.9 43,-892.9 43,-892.9 271,-892.9 271,-892.9 277,-892.9 283,-898.9 283,-904.9 283,-904.9 283,-945.7 283,-945.7 283,-951.7 277,-957.7 271,-957.7"/>
<text xml:space="preserve" text-anchor="middle" x="157" y="-935.27" font-family="Arial Bold" font-size="12.00" fill="white">1. Observe</text>
<text xml:space="preserve" text-anchor="middle" x="157" y="-921.02" font-family="Arial Bold" font-size="12.00" fill="white">Current state from world.infos</text>
<text xml:space="preserve" text-anchor="middle" x="157" y="-906.77" font-family="Arial Bold" font-size="12.00" fill="white">(pixels, state, goal)</text>
</g>
<!-- step2 -->
<g id="node2" class="node">
<title>step2</title>
<path fill="#2196f3" stroke="black" d="M362,-842.9C362,-842.9 134,-842.9 134,-842.9 128,-842.9 122,-836.9 122,-830.9 122,-830.9 122,-790.1 122,-790.1 122,-784.1 128,-778.1 134,-778.1 134,-778.1 362,-778.1 362,-778.1 368,-778.1 374,-784.1 374,-790.1 374,-790.1 374,-830.9 374,-830.9 374,-836.9 368,-842.9 362,-842.9"/>
<text xml:space="preserve" text-anchor="middle" x="248" y="-820.48" font-family="Arial Bold" font-size="12.00" fill="white">2. Check Buffer</text>
<text xml:space="preserve" text-anchor="middle" x="248" y="-806.23" font-family="Arial Bold" font-size="12.00" fill="white">WorldModelPolicy checks</text>
<text xml:space="preserve" text-anchor="middle" x="248" y="-791.98" font-family="Arial Bold" font-size="12.00" fill="white">action buffer</text>
</g>
<!-- step1&#45;&gt;step2 -->
<g id="edge1" class="edge">
<title>step1&#45;&gt;step2</title>
<path fill="none" stroke="#4caf50" stroke-width="2" d="M202.5,-892.4C202.5,-892.4 202.5,-856.03 202.5,-856.03"/>
<polygon fill="#4caf50" stroke="#4caf50" stroke-width="2" points="206,-856.03 202.5,-846.03 199,-856.03 206,-856.03"/>
</g>
<!-- decision -->
<g id="node3" class="node">
<title>decision</title>
<polygon fill="#ff9800" stroke="black" points="248,-706.5 158,-663.3 248,-620.1 338,-663.3 248,-706.5"/>
<text xml:space="preserve" text-anchor="middle" x="248" y="-666.35" font-family="Arial Bold" font-size="11.00" fill="white">Buffer</text>
<text xml:space="preserve" text-anchor="middle" x="248" y="-652.85" font-family="Arial Bold" font-size="11.00" fill="white">empty?</text>
</g>
<!-- step2&#45;&gt;decision -->
<g id="edge2" class="edge">
<title>step2&#45;&gt;decision</title>
<path fill="none" stroke="#2196f3" stroke-width="2" d="M248,-777.83C248,-777.83 248,-720.07 248,-720.07"/>
<polygon fill="#2196f3" stroke="#2196f3" stroke-width="2" points="251.5,-720.07 248,-710.07 244.5,-720.07 251.5,-720.07"/>
</g>
<!-- step3 -->
<g id="node4" class="node">
<title>step3</title>
<path fill="#009688" stroke="black" d="M436,-548.5C436,-548.5 208,-548.5 208,-548.5 202,-548.5 196,-542.5 196,-536.5 196,-536.5 196,-495.7 196,-495.7 196,-489.7 202,-483.7 208,-483.7 208,-483.7 436,-483.7 436,-483.7 442,-483.7 448,-489.7 448,-495.7 448,-495.7 448,-536.5 448,-536.5 448,-542.5 442,-548.5 436,-548.5"/>
<text xml:space="preserve" text-anchor="middle" x="322" y="-526.08" font-family="Arial Bold" font-size="12.00" fill="white">3. Plan</text>
<text xml:space="preserve" text-anchor="middle" x="322" y="-511.83" font-family="Arial Bold" font-size="12.00" fill="white">Solver samples action candidates</text>
<text xml:space="preserve" text-anchor="middle" x="322" y="-497.58" font-family="Arial Bold" font-size="12.00" fill="white">(CEM: 300 samples x 10 horizon)</text>
</g>
<!-- decision&#45;&gt;step3 -->
<g id="edge3" class="edge">
<title>decision&#45;&gt;step3</title>
<path fill="none" stroke="#ff9800" stroke-width="2" d="M267,-628.79C267,-628.79 267,-561.91 267,-561.91"/>
<polygon fill="#ff9800" stroke="#ff9800" stroke-width="2" points="270.5,-561.91 267,-551.91 263.5,-561.91 270.5,-561.91"/>
<text xml:space="preserve" text-anchor="middle" x="233.62" y="-598.55" font-family="Times New Roman,serif" font-size="14.00">Yes (replan)</text>
</g>
<!-- step7 -->
<g id="node8" class="node">
<title>step7</title>
<path fill="#f44336" stroke="black" d="M255,-89.3C255,-89.3 27,-89.3 27,-89.3 21,-89.3 15,-83.3 15,-77.3 15,-77.3 15,-36.5 15,-36.5 15,-30.5 21,-24.5 27,-24.5 27,-24.5 255,-24.5 255,-24.5 261,-24.5 267,-30.5 267,-36.5 267,-36.5 267,-77.3 267,-77.3 267,-83.3 261,-89.3 255,-89.3"/>
<text xml:space="preserve" text-anchor="middle" x="141" y="-66.88" font-family="Arial Bold" font-size="12.00" fill="white">7. Execute</text>
<text xml:space="preserve" text-anchor="middle" x="141" y="-52.63" font-family="Arial Bold" font-size="12.00" fill="white">Pop action from buffer</text>
<text xml:space="preserve" text-anchor="middle" x="141" y="-38.38" font-family="Arial Bold" font-size="12.00" fill="white">Apply to environment</text>
</g>
<!-- decision&#45;&gt;step7 -->
<g id="edge4" class="edge">
<title>decision&#45;&gt;step7</title>
<path fill="none" stroke="#4caf50" stroke-width="2" stroke-dasharray="5,2" d="M177,-653.77C177,-653.77 177,-102.71 177,-102.71"/>
<polygon fill="#4caf50" stroke="#4caf50" stroke-width="2" points="180.5,-102.71 177,-92.71 173.5,-102.71 180.5,-102.71"/>
<text xml:space="preserve" text-anchor="middle" x="135" y="-381.44" font-family="Times New Roman,serif" font-size="14.00">No (use buffer)</text>
</g>
<!-- step4 -->
<g id="node5" class="node">
<title>step4</title>
<path fill="#9c27b0" stroke="black" d="M436,-433.7C436,-433.7 208,-433.7 208,-433.7 202,-433.7 196,-427.7 196,-421.7 196,-421.7 196,-380.9 196,-380.9 196,-374.9 202,-368.9 208,-368.9 208,-368.9 436,-368.9 436,-368.9 442,-368.9 448,-374.9 448,-380.9 448,-380.9 448,-421.7 448,-421.7 448,-427.7 442,-433.7 436,-433.7"/>
<text xml:space="preserve" text-anchor="middle" x="322" y="-411.28" font-family="Arial Bold" font-size="12.00" fill="white">4. Evaluate Costs</text>
<text xml:space="preserve" text-anchor="middle" x="322" y="-397.03" font-family="Arial Bold" font-size="12.00" fill="white">World model predicts outcomes</text>
<text xml:space="preserve" text-anchor="middle" x="322" y="-382.78" font-family="Arial Bold" font-size="12.00" fill="white">get_cost() per candidate</text>
</g>
<!-- step3&#45;&gt;step4 -->
<g id="edge5" class="edge">
<title>step3&#45;&gt;step4</title>
<path fill="none" stroke="#009688" stroke-width="2" d="M322,-483.2C322,-483.2 322,-446.83 322,-446.83"/>
<polygon fill="#009688" stroke="#009688" stroke-width="2" points="325.5,-446.83 322,-436.83 318.5,-446.83 325.5,-446.83"/>
</g>
<!-- step5 -->
<g id="node6" class="node">
<title>step5</title>
<path fill="#ff9800" stroke="black" d="M436,-318.9C436,-318.9 208,-318.9 208,-318.9 202,-318.9 196,-312.9 196,-306.9 196,-306.9 196,-266.1 196,-266.1 196,-260.1 202,-254.1 208,-254.1 208,-254.1 436,-254.1 436,-254.1 442,-254.1 448,-260.1 448,-266.1 448,-266.1 448,-306.9 448,-306.9 448,-312.9 442,-318.9 436,-318.9"/>
<text xml:space="preserve" text-anchor="middle" x="322" y="-296.48" font-family="Arial Bold" font-size="12.00" fill="white">5. Select Best</text>
<text xml:space="preserve" text-anchor="middle" x="322" y="-282.23" font-family="Arial Bold" font-size="12.00" fill="white">CEM selects top&#45;k elites</text>
<text xml:space="preserve" text-anchor="middle" x="322" y="-267.98" font-family="Arial Bold" font-size="12.00" fill="white">Updates distribution (n_steps iters)</text>
</g>
<!-- step4&#45;&gt;step5 -->
<g id="edge6" class="edge">
<title>step4&#45;&gt;step5</title>
<path fill="none" stroke="#9c27b0" stroke-width="2" d="M322,-368.4C322,-368.4 322,-332.03 322,-332.03"/>
<polygon fill="#9c27b0" stroke="#9c27b0" stroke-width="2" points="325.5,-332.03 322,-322.03 318.5,-332.03 325.5,-332.03"/>
</g>
<!-- step6 -->
<g id="node7" class="node">
<title>step6</title>
<path fill="#e91e63" stroke="black" d="M436,-204.1C436,-204.1 208,-204.1 208,-204.1 202,-204.1 196,-198.1 196,-192.1 196,-192.1 196,-151.3 196,-151.3 196,-145.3 202,-139.3 208,-139.3 208,-139.3 436,-139.3 436,-139.3 442,-139.3 448,-145.3 448,-151.3 448,-151.3 448,-192.1 448,-192.1 448,-198.1 442,-204.1 436,-204.1"/>
<text xml:space="preserve" text-anchor="middle" x="322" y="-181.67" font-family="Arial Bold" font-size="12.00" fill="white">6. Buffer Actions</text>
<text xml:space="preserve" text-anchor="middle" x="322" y="-167.42" font-family="Arial Bold" font-size="12.00" fill="white">Store receding_horizon actions</text>
<text xml:space="preserve" text-anchor="middle" x="322" y="-153.17" font-family="Arial Bold" font-size="12.00" fill="white">Warm&#45;start next plan</text>
</g>
<!-- step5&#45;&gt;step6 -->
<g id="edge7" class="edge">
<title>step5&#45;&gt;step6</title>
<path fill="none" stroke="#ff9800" stroke-width="2" d="M322,-253.6C322,-253.6 322,-217.23 322,-217.23"/>
<polygon fill="#ff9800" stroke="#ff9800" stroke-width="2" points="325.5,-217.23 322,-207.23 318.5,-217.23 325.5,-217.23"/>
</g>
<!-- step6&#45;&gt;step7 -->
<g id="edge8" class="edge">
<title>step6&#45;&gt;step7</title>
<path fill="none" stroke="#e91e63" stroke-width="2" d="M231.5,-138.8C231.5,-138.8 231.5,-102.43 231.5,-102.43"/>
<polygon fill="#e91e63" stroke="#e91e63" stroke-width="2" points="235,-102.43 231.5,-92.43 228,-102.43 235,-102.43"/>
</g>
<!-- step7&#45;&gt;step1 -->
<g id="edge9" class="edge">
<title>step7&#45;&gt;step1</title>
<path fill="none" stroke="#f44336" stroke-width="2" stroke-dasharray="5,2" d="M76.5,-89.62C76.5,-89.62 76.5,-879.69 76.5,-879.69"/>
<polygon fill="#f44336" stroke="#f44336" stroke-width="2" points="73,-879.69 76.5,-889.69 80,-879.69 73,-879.69"/>
<text xml:space="preserve" text-anchor="middle" x="38.25" y="-487.85" font-family="Times New Roman,serif" font-size="14.00">Next timestep</text>
</g>
<!-- plan_config -->
<g id="node9" class="node">
<title>plan_config</title>
<path fill="#7b1fa2" stroke="black" d="M588,-728.1C588,-728.1 396,-728.1 396,-728.1 390,-728.1 384,-722.1 384,-716.1 384,-716.1 384,-610.5 384,-610.5 384,-604.5 390,-598.5 396,-598.5 396,-598.5 588,-598.5 588,-598.5 594,-598.5 600,-604.5 600,-610.5 600,-610.5 600,-716.1 600,-716.1 600,-722.1 594,-728.1 588,-728.1"/>
<text xml:space="preserve" text-anchor="middle" x="492" y="-683.8" font-family="Arial" font-size="10.00" fill="white">PlanConfig</text>
<text xml:space="preserve" text-anchor="middle" x="492" y="-671.8" font-family="Arial" font-size="10.00" fill="white">horizon=10</text>
<text xml:space="preserve" text-anchor="middle" x="492" y="-659.8" font-family="Arial" font-size="10.00" fill="white">receding_horizon=5</text>
<text xml:space="preserve" text-anchor="middle" x="492" y="-647.8" font-family="Arial" font-size="10.00" fill="white">action_block=1</text>
<text xml:space="preserve" text-anchor="middle" x="492" y="-635.8" font-family="Arial" font-size="10.00" fill="white">warm_start=True</text>
</g>
<!-- plan_config&#45;&gt;step3 -->
<g id="edge10" class="edge">
<title>plan_config&#45;&gt;step3</title>
<path fill="none" stroke="#7b1fa2" stroke-width="1.5" stroke-dasharray="1,5" d="M416,-598.31C416,-598.31 416,-561.16 416,-561.16"/>
<polygon fill="#7b1fa2" stroke="#7b1fa2" stroke-width="1.5" points="419.5,-561.16 416,-551.16 412.5,-561.16 419.5,-561.16"/>
</g>
<!-- plan_config&#45;&gt;step6 -->
<g id="edge11" class="edge">
<title>plan_config&#45;&gt;step6</title>
<path fill="none" stroke="#7b1fa2" stroke-width="1.5" stroke-dasharray="1,5" d="M524,-598.25C524,-464.58 524,-171.5 524,-171.5 524,-171.5 460.77,-171.5 460.77,-171.5"/>
<polygon fill="#7b1fa2" stroke="#7b1fa2" stroke-width="1.5" points="460.77,-168 450.77,-171.5 460.77,-175 460.77,-168"/>
</g>
</g>
</svg>
