<?xml version="1.0" encoding="UTF-8" standalone="no"?>
<!DOCTYPE svg PUBLIC "-//W3C//DTD SVG 1.1//EN"
 "http://www.w3.org/Graphics/SVG/1.1/DTD/svg11.dtd">
<!-- Generated by graphviz version 14.1.2 (0)
 -->
<!-- Title: sumo_rl_multiagent Pages: 1 -->
<svg width="652pt" height="625pt"
 viewBox="-8.0 100.5 668.0 515.5" xmlns="http://www.w3.org/2000/svg" xmlns:xlink="http://www.w3.org/1999/xlink">
<g id="graph0" class="graph" transform="scale(1 1) rotate(0) translate(4 620.5)">
<title>sumo_rl_multiagent</title>
<text xml:space="preserve" text-anchor="middle" x="322" y="-7.2" font-family="Times New Roman,serif" font-size="14.00">SUMO&#45;RL &#45; Multi&#45;Agent Traffic Control</text>
<g id="clust1" class="cluster">
<title>cluster_ts</title>
<polygon fill="none" stroke="black" points="8,-276.5 8,-389 636,-389 636,-276.5 8,-276.5"/>
<text xml:space="preserve" text-anchor="middle" x="322" y="-371.7" font-family="Times New Roman,serif" font-size="14.00">SUMO&#45;RL &#45; Multi&#45;Agent Traffic Control</text>
</g>
<g id="clust2" class="cluster">
<title>cluster_obs</title>
<polygon fill="none" stroke="black" points="8,-146.5 8,-259 636,-259 636,-146.5 8,-146.5"/>
<text xml:space="preserve" text-anchor="middle" x="322" y="-241.7" font-family="Times New Roman,serif" font-size="14.00">SUMO&#45;RL &#45; Multi&#45;Agent Traffic Control</text>
</g>
<!-- env_pz -->
<g id="node1" class="node">
<title>env_pz</title>
<path fill="#2196f3" stroke="black" d="M400,-486.5C400,-486.5 244,-486.5 244,-486.5 238,-486.5 232,-480.5 232,-474.5 232,-474.5 232,-426.5 232,-426.5 232,-420.5 238,-414.5 244,-414.5 244,-414.5 400,-414.5 400,-414.5 406,-414.5 412,-420.5 412,-426.5 412,-426.5 412,-474.5 412,-474.5 412,-480.5 406,-486.5 400,-486.5"/>
<text xml:space="preserve" text-anchor="middle" x="322" y="-446.23" font-family="Arial Bold" font-size="12.00" fill="white">SumoEnvironmentPZ</text>
</g>
<!-- ts1 -->
<g id="node2" class="node">
<title>ts1</title>
<path fill="#9c27b0" stroke="black" d="M184,-356.5C184,-356.5 28,-356.5 28,-356.5 22,-356.5 16,-350.5 16,-344.5 16,-344.5 16,-296.5 16,-296.5 16,-290.5 22,-284.5 28,-284.5 28,-284.5 184,-284.5 184,-284.5 190,-284.5 196,-290.5 196,-296.5 196,-296.5 196,-344.5 196,-344.5 196,-350.5 190,-356.5 184,-356.5"/>
<text xml:space="preserve" text-anchor="middle" x="106" y="-323.55" font-family="Arial" font-size="11.00" fill="white">TrafficSignal</text>
<text xml:space="preserve" text-anchor="middle" x="106" y="-310.05" font-family="Arial" font-size="11.00" fill="white">TL&#45;1</text>
</g>
<!-- env_pz&#45;&gt;ts1 -->
<g id="edge1" class="edge">
<title>env_pz&#45;&gt;ts1</title>
<path fill="none" stroke="#2563eb" stroke-width="2" d="M231.65,-450.5C172.46,-450.5 106,-450.5 106,-450.5 106,-450.5 106,-369.74 106,-369.74"/>
<polygon fill="#2563eb" stroke="#2563eb" stroke-width="2" points="109.5,-369.74 106,-359.74 102.5,-369.74 109.5,-369.74"/>
</g>
<!-- ts2 -->
<g id="node5" class="node">
<title>ts2</title>
<path fill="#9c27b0" stroke="black" d="M400,-356.5C400,-356.5 244,-356.5 244,-356.5 238,-356.5 232,-350.5 232,-344.5 232,-344.5 232,-296.5 232,-296.5 232,-290.5 238,-284.5 244,-284.5 244,-284.5 400,-284.5 400,-284.5 406,-284.5 412,-290.5 412,-296.5 412,-296.5 412,-344.5 412,-344.5 412,-350.5 406,-356.5 400,-356.5"/>
<text xml:space="preserve" text-anchor="middle" x="322" y="-323.55" font-family="Arial" font-size="11.00" fill="white">TrafficSignal</text>
<text xml:space="preserve" text-anchor="middle" x="322" y="-310.05" font-family="Arial" font-size="11.00" fill="white">TL&#45;2</text>
</g>
<!-- env_pz&#45;&gt;ts2 -->
<g id="edge2" class="edge">
<title>env_pz&#45;&gt;ts2</title>
<path fill="none" stroke="#2563eb" stroke-width="2" d="M322,-414.29C322,-414.29 322,-370 322,-370"/>
<polygon fill="#2563eb" stroke="#2563eb" stroke-width="2" points="325.5,-370 322,-360 318.5,-370 325.5,-370"/>
</g>
<!-- ts3 -->
<g id="node7" class="node">
<title>ts3</title>
<path fill="#9c27b0" stroke="black" d="M616,-356.5C616,-356.5 460,-356.5 460,-356.5 454,-356.5 448,-350.5 448,-344.5 448,-344.5 448,-296.5 448,-296.5 448,-290.5 454,-284.5 460,-284.5 460,-284.5 616,-284.5 616,-284.5 622,-284.5 628,-290.5 628,-296.5 628,-296.5 628,-344.5 628,-344.5 628,-350.5 622,-356.5 616,-356.5"/>
<text xml:space="preserve" text-anchor="middle" x="538" y="-323.55" font-family="Arial" font-size="11.00" fill="white">TrafficSignal</text>
<text xml:space="preserve" text-anchor="middle" x="538" y="-310.05" font-family="Arial" font-size="11.00" fill="white">TL&#45;3</text>
</g>
<!-- env_pz&#45;&gt;ts3 -->
<g id="edge3" class="edge">
<title>env_pz&#45;&gt;ts3</title>
<path fill="none" stroke="#2563eb" stroke-width="2" d="M412.35,-450.5C471.54,-450.5 538,-450.5 538,-450.5 538,-450.5 538,-369.74 538,-369.74"/>
<polygon fill="#2563eb" stroke="#2563eb" stroke-width="2" points="541.5,-369.74 538,-359.74 534.5,-369.74 541.5,-369.74"/>
</g>
<!-- obs1 -->
<g id="node3" class="node">
<title>obs1</title>
<polygon fill="#4caf50" stroke="black" points="196,-226.5 16,-226.5 16,-154.5 196,-154.5 196,-226.5"/>
<text xml:space="preserve" text-anchor="middle" x="106" y="-200.3" font-family="Arial" font-size="11.00" fill="white">Obs Space</text>
<text xml:space="preserve" text-anchor="middle" x="106" y="-186.8" font-family="Arial" font-size="11.00" fill="white">Action Space</text>
<text xml:space="preserve" text-anchor="middle" x="106" y="-173.3" font-family="Arial" font-size="11.00" fill="white">Reward Fn</text>
</g>
<!-- ts1&#45;&gt;obs1 -->
<g id="edge4" class="edge">
<title>ts1&#45;&gt;obs1</title>
<path fill="none" stroke="#2563eb" stroke-width="2" d="M106,-284.29C106,-284.29 106,-240 106,-240"/>
<polygon fill="#2563eb" stroke="#2563eb" stroke-width="2" points="109.5,-240 106,-230 102.5,-240 109.5,-240"/>
</g>
<!-- sumo_sim -->
<g id="node9" class="node">
<title>sumo_sim</title>
<polygon fill="#f44336" stroke="black" points="412,-96.5 232,-96.5 232,-24.5 412,-24.5 412,-96.5"/>
<text xml:space="preserve" text-anchor="middle" x="322" y="-63.55" font-family="Arial" font-size="11.00" fill="white">SUMO</text>
<text xml:space="preserve" text-anchor="middle" x="322" y="-50.05" font-family="Arial" font-size="11.00" fill="white">Simulator</text>
</g>
<!-- obs1&#45;&gt;sumo_sim -->
<g id="edge7" class="edge">
<title>obs1&#45;&gt;sumo_sim</title>
<path fill="none" stroke="#2563eb" stroke-width="2" d="M106,-154.29C106,-115.82 106,-60.5 106,-60.5 106,-60.5 218.62,-60.5 218.62,-60.5"/>
<polygon fill="#2563eb" stroke="#2563eb" stroke-width="2" points="218.62,-64 228.62,-60.5 218.62,-57 218.62,-64"/>
</g>
<!-- pz_api -->
<g id="node4" class="node">
<title>pz_api</title>
<path fill="#ff9800" stroke="black" d="M400,-616.5C400,-616.5 244,-616.5 244,-616.5 238,-616.5 232,-610.5 232,-604.5 232,-604.5 232,-556.5 232,-556.5 232,-550.5 238,-544.5 244,-544.5 244,-544.5 400,-544.5 400,-544.5 406,-544.5 412,-550.5 412,-556.5 412,-556.5 412,-604.5 412,-604.5 412,-610.5 406,-616.5 400,-616.5"/>
<text xml:space="preserve" text-anchor="middle" x="322" y="-583.55" font-family="Arial" font-size="11.00" fill="white">PettingZoo</text>
<text xml:space="preserve" text-anchor="middle" x="322" y="-570.05" font-family="Arial" font-size="11.00" fill="white">AEC/Parallel API</text>
</g>
<!-- pz_api&#45;&gt;env_pz -->
<g id="edge10" class="edge">
<title>pz_api&#45;&gt;env_pz</title>
<path fill="none" stroke="#ea580c" stroke-width="2" d="M322,-544.29C322,-544.29 322,-500 322,-500"/>
<polygon fill="#ea580c" stroke="#ea580c" stroke-width="2" points="325.5,-500 322,-490 318.5,-500 325.5,-500"/>
</g>
<!-- obs2 -->
<g id="node6" class="node">
<title>obs2</title>
<polygon fill="#4caf50" stroke="black" points="412,-226.5 232,-226.5 232,-154.5 412,-154.5 412,-226.5"/>
<text xml:space="preserve" text-anchor="middle" x="322" y="-200.3" font-family="Arial" font-size="11.00" fill="white">Obs Space</text>
<text xml:space="preserve" text-anchor="middle" x="322" y="-186.8" font-family="Arial" font-size="11.00" fill="white">Action Space</text>
<text xml:space="preserve" text-anchor="middle" x="322" y="-173.3" font-family="Arial" font-size="11.00" fill="white">Reward Fn</text>
</g>
<!-- ts2&#45;&gt;obs2 -->
<g id="edge5" class="edge">
<title>ts2&#45;&gt;obs2</title>
<path fill="none" stroke="#2563eb" stroke-width="2" d="M322,-284.29C322,-284.29 322,-240 322,-240"/>
<polygon fill="#2563eb" stroke="#2563eb" stroke-width="2" points="325.5,-240 322,-230 318.5,-240 325.5,-240"/>
</g>
<!-- obs2&#45;&gt;sumo_sim -->
<g id="edge8" class="edge">
<title>obs2&#45;&gt;sumo_sim</title>
<path fill="none" stroke="#2563eb" stroke-width="2" d="M322,-154.29C322,-154.29 322,-110 322,-110"/>
<polygon fill="#2563eb" stroke="#2563eb" stroke-width="2" points="325.5,-110 322,-100 318.5,-110 325.5,-110"/>
</g>
<!-- obs3 -->
<g id="node8" class="node">
<title>obs3</title>
<polygon fill="#4caf50" stroke="black" points="628,-226.5 448,-226.5 448,-154.5 628,-154.5 628,-226.5"/>
<text xml:space="preserve" text-anchor="middle" x="538" y="-200.3" font-family="Arial" font-size="11.00" fill="white">Obs Space</text>
<text xml:space="preserve" text-anchor="middle" x="538" y="-186.8" font-family="Arial" font-size="11.00" fill="white">Action Space</text>
<text xml:space="preserve" text-anchor="middle" x="538" y="-173.3" font-family="Arial" font-size="11.00" fill="white">Reward Fn</text>
</g>
<!-- ts3&#45;&gt;obs3 -->
<g id="edge6" class="edge">
<title>ts3&#45;&gt;obs3</title>
<path fill="none" stroke="#2563eb" stroke-width="2" d="M538,-284.29C538,-284.29 538,-240 538,-240"/>
<polygon fill="#2563eb" stroke="#2563eb" stroke-width="2" points="541.5,-240 538,-230 534.5,-240 541.5,-240"/>
</g>
<!-- obs3&#45;&gt;sumo_sim -->
<g id="edge9" class="edge">
<title>obs3&#45;&gt;sumo_sim</title>
<path fill="none" stroke="#2563eb" stroke-width="2" d="M538,-154.29C538,-115.82 538,-60.5 538,-60.5 538,-60.5 425.38,-60.5 425.38,-60.5"/>
<polygon fill="#2563eb" stroke="#2563eb" stroke-width="2" points="425.38,-57 415.38,-60.5 425.38,-64 425.38,-57"/>
</g>
</g>
</svg>
