<?xml version="1.0" encoding="UTF-8" standalone="no"?>
<!DOCTYPE svg PUBLIC "-//W3C//DTD SVG 1.1//EN"
 "http://www.w3.org/Graphics/SVG/1.1/DTD/svg11.dtd">
<!-- Generated by graphviz version 14.1.2 (0)
 -->
<!-- Title: supervision_workflow Pages: 1 -->
<svg width="299pt" height="825pt"
 viewBox="0.00 0.00 299.00 825.00" xmlns="http://www.w3.org/2000/svg" xmlns:xlink="http://www.w3.org/1999/xlink">
<g id="graph0" class="graph" transform="scale(1 1) rotate(0) translate(4 821.25)">
<title>supervision_workflow</title>
<text xml:space="preserve" text-anchor="middle" x="145.25" y="-7.2" font-family="Times New Roman,serif" font-size="14.00">Roboflow Supervision &#45; Vision Pipeline Workflow</text>
<!-- step1 -->
<g id="node1" class="node">
<title>step1</title>
<polygon fill="#4caf50" stroke="black" points="204.81,-817.25 113.81,-817.25 113.81,-781.25 204.81,-781.25 204.81,-817.25"/>
<text xml:space="preserve" text-anchor="middle" x="159.31" y="-802.3" font-family="Arial" font-size="11.00" fill="white">1. Load Image</text>
<text xml:space="preserve" text-anchor="middle" x="159.31" y="-788.8" font-family="Arial" font-size="11.00" fill="white">or Video Frame</text>
</g>
<!-- step2 -->
<g id="node2" class="node">
<title>step2</title>
<path fill="#2196f3" stroke="black" d="M207.81,-731.25C207.81,-731.25 110.81,-731.25 110.81,-731.25 104.81,-731.25 98.81,-725.25 98.81,-719.25 98.81,-719.25 98.81,-706.75 98.81,-706.75 98.81,-700.75 104.81,-694.75 110.81,-694.75 110.81,-694.75 207.81,-694.75 207.81,-694.75 213.81,-694.75 219.81,-700.75 219.81,-706.75 219.81,-706.75 219.81,-719.25 219.81,-719.25 219.81,-725.25 213.81,-731.25 207.81,-731.25"/>
<text xml:space="preserve" text-anchor="middle" x="159.31" y="-715.85" font-family="Arial Bold" font-size="12.00" fill="white">2. Run Detection</text>
<text xml:space="preserve" text-anchor="middle" x="159.31" y="-701.6" font-family="Arial Bold" font-size="12.00" fill="white">Model (YOLO, etc.)</text>
</g>
<!-- step1&#45;&gt;step2 -->
<g id="edge1" class="edge">
<title>step1&#45;&gt;step2</title>
<path fill="none" stroke="#4caf50" stroke-width="2" d="M159.31,-780.96C159.31,-780.96 159.31,-744.59 159.31,-744.59"/>
<polygon fill="#4caf50" stroke="#4caf50" stroke-width="2" points="162.81,-744.59 159.31,-734.59 155.81,-744.59 162.81,-744.59"/>
</g>
<!-- step3 -->
<g id="node3" class="node">
<title>step3</title>
<path fill="#3f51b5" stroke="black" d="M193.94,-644.75C193.94,-644.75 124.69,-644.75 124.69,-644.75 118.69,-644.75 112.69,-638.75 112.69,-632.75 112.69,-632.75 112.69,-620.25 112.69,-620.25 112.69,-614.25 118.69,-608.25 124.69,-608.25 124.69,-608.25 193.94,-608.25 193.94,-608.25 199.94,-608.25 205.94,-614.25 205.94,-620.25 205.94,-620.25 205.94,-632.75 205.94,-632.75 205.94,-638.75 199.94,-644.75 193.94,-644.75"/>
<text xml:space="preserve" text-anchor="middle" x="159.31" y="-629.35" font-family="Arial Bold" font-size="12.00" fill="white">3. Convert to</text>
<text xml:space="preserve" text-anchor="middle" x="159.31" y="-615.1" font-family="Arial Bold" font-size="12.00" fill="white">sv.Detections</text>
</g>
<!-- step2&#45;&gt;step3 -->
<g id="edge2" class="edge">
<title>step2&#45;&gt;step3</title>
<path fill="none" stroke="#2196f3" stroke-width="2" d="M159.31,-694.66C159.31,-694.66 159.31,-658.14 159.31,-658.14"/>
<polygon fill="#2196f3" stroke="#2196f3" stroke-width="2" points="162.81,-658.14 159.31,-648.14 155.81,-658.14 162.81,-658.14"/>
</g>
<!-- step4 -->
<g id="node4" class="node">
<title>step4</title>
<polygon fill="#f44336" stroke="black" points="159.31,-558.25 102.06,-526.25 159.31,-494.25 216.56,-526.25 159.31,-558.25"/>
<text xml:space="preserve" text-anchor="middle" x="159.31" y="-528.75" font-family="Arial Bold" font-size="10.00" fill="white">Track</text>
<text xml:space="preserve" text-anchor="middle" x="159.31" y="-516.75" font-family="Arial Bold" font-size="10.00" fill="white">Objects?</text>
</g>
<!-- step3&#45;&gt;step4 -->
<g id="edge3" class="edge">
<title>step3&#45;&gt;step4</title>
<path fill="none" stroke="#2196f3" stroke-width="2" d="M159.31,-608.11C159.31,-608.11 159.31,-571.75 159.31,-571.75"/>
<polygon fill="#2196f3" stroke="#2196f3" stroke-width="2" points="162.81,-571.75 159.31,-561.75 155.81,-571.75 162.81,-571.75"/>
</g>
<!-- step4a -->
<g id="node5" class="node">
<title>step4a</title>
<path fill="#00bcd4" stroke="black" d="M140.31,-444.25C140.31,-444.25 82.31,-444.25 82.31,-444.25 76.31,-444.25 70.31,-438.25 70.31,-432.25 70.31,-432.25 70.31,-420.25 70.31,-420.25 70.31,-414.25 76.31,-408.25 82.31,-408.25 82.31,-408.25 140.31,-408.25 140.31,-408.25 146.31,-408.25 152.31,-414.25 152.31,-420.25 152.31,-420.25 152.31,-432.25 152.31,-432.25 152.31,-438.25 146.31,-444.25 140.31,-444.25"/>
<text xml:space="preserve" text-anchor="middle" x="111.31" y="-429.3" font-family="Arial" font-size="11.00" fill="white">4a. ByteTrack</text>
<text xml:space="preserve" text-anchor="middle" x="111.31" y="-415.8" font-family="Arial" font-size="11.00" fill="white">Update IDs</text>
</g>
<!-- step4&#45;&gt;step4a -->
<g id="edge4" class="edge">
<title>step4&#45;&gt;step4a</title>
<path fill="none" stroke="#4caf50" stroke-width="2" d="M127.19,-511.92C127.19,-511.92 127.19,-457.66 127.19,-457.66"/>
<polygon fill="#4caf50" stroke="#4caf50" stroke-width="2" points="130.69,-457.65 127.19,-447.66 123.69,-457.66 130.69,-457.65"/>
<text xml:space="preserve" text-anchor="middle" x="117.06" y="-471.49" font-family="Times New Roman,serif" font-size="14.00">Yes</text>
</g>
<!-- step5 -->
<g id="node6" class="node">
<title>step5</title>
<path fill="#2196f3" stroke="black" d="M208.19,-358.25C208.19,-358.25 110.44,-358.25 110.44,-358.25 104.44,-358.25 98.44,-352.25 98.44,-346.25 98.44,-346.25 98.44,-319.5 98.44,-319.5 98.44,-313.5 104.44,-307.5 110.44,-307.5 110.44,-307.5 208.19,-307.5 208.19,-307.5 214.19,-307.5 220.19,-313.5 220.19,-319.5 220.19,-319.5 220.19,-346.25 220.19,-346.25 220.19,-352.25 214.19,-358.25 208.19,-358.25"/>
<text xml:space="preserve" text-anchor="middle" x="159.31" y="-342.85" font-family="Arial Bold" font-size="12.00" fill="white">5. Filter Detections</text>
<text xml:space="preserve" text-anchor="middle" x="159.31" y="-328.6" font-family="Arial Bold" font-size="12.00" fill="white">by class, area,</text>
<text xml:space="preserve" text-anchor="middle" x="159.31" y="-314.35" font-family="Arial Bold" font-size="12.00" fill="white">confidence</text>
</g>
<!-- step4&#45;&gt;step5 -->
<g id="edge5" class="edge">
<title>step4&#45;&gt;step5</title>
<path fill="none" stroke="#ff9800" stroke-width="2" d="M184.44,-508.06C184.44,-508.06 184.44,-371.47 184.44,-371.47"/>
<polygon fill="#ff9800" stroke="#ff9800" stroke-width="2" points="187.94,-371.47 184.44,-361.47 180.94,-371.47 187.94,-371.47"/>
<text xml:space="preserve" text-anchor="middle" x="176.19" y="-442.96" font-family="Times New Roman,serif" font-size="14.00">No</text>
</g>
<!-- step4a&#45;&gt;step5 -->
<g id="edge6" class="edge">
<title>step4a&#45;&gt;step5</title>
<path fill="none" stroke="#00bcd4" stroke-width="2" d="M125.38,-407.8C125.38,-407.8 125.38,-371.73 125.38,-371.73"/>
<polygon fill="#00bcd4" stroke="#00bcd4" stroke-width="2" points="128.88,-371.73 125.38,-361.73 121.88,-371.73 128.88,-371.73"/>
</g>
<!-- step6 -->
<g id="node7" class="node">
<title>step6</title>
<path fill="#00bcd4" stroke="black" d="M194.69,-257.5C194.69,-257.5 123.94,-257.5 123.94,-257.5 117.94,-257.5 111.94,-251.5 111.94,-245.5 111.94,-245.5 111.94,-221 111.94,-221 111.94,-215 117.94,-209 123.94,-209 123.94,-209 194.69,-209 194.69,-209 200.69,-209 206.69,-215 206.69,-221 206.69,-221 206.69,-245.5 206.69,-245.5 206.69,-251.5 200.69,-257.5 194.69,-257.5"/>
<text xml:space="preserve" text-anchor="middle" x="159.31" y="-243.05" font-family="Arial" font-size="11.00" fill="white">6. Zone Analysis</text>
<text xml:space="preserve" text-anchor="middle" x="159.31" y="-229.55" font-family="Arial" font-size="11.00" fill="white">PolygonZone /</text>
<text xml:space="preserve" text-anchor="middle" x="159.31" y="-216.05" font-family="Arial" font-size="11.00" fill="white">LineZone</text>
</g>
<!-- step5&#45;&gt;step6 -->
<g id="edge7" class="edge">
<title>step5&#45;&gt;step6</title>
<path fill="none" stroke="#2196f3" stroke-width="2" d="M159.31,-307.22C159.31,-307.22 159.31,-270.82 159.31,-270.82"/>
<polygon fill="#2196f3" stroke="#2196f3" stroke-width="2" points="162.81,-270.82 159.31,-260.82 155.81,-270.82 162.81,-270.82"/>
</g>
<!-- step7 -->
<g id="node8" class="node">
<title>step7</title>
<path fill="#ff9800" stroke="black" d="M203.31,-159C203.31,-159 115.31,-159 115.31,-159 109.31,-159 103.31,-153 103.31,-147 103.31,-147 103.31,-122.5 103.31,-122.5 103.31,-116.5 109.31,-110.5 115.31,-110.5 115.31,-110.5 203.31,-110.5 203.31,-110.5 209.31,-110.5 215.31,-116.5 215.31,-122.5 215.31,-122.5 215.31,-147 215.31,-147 215.31,-153 209.31,-159 203.31,-159"/>
<text xml:space="preserve" text-anchor="middle" x="159.31" y="-144.55" font-family="Arial" font-size="11.00" fill="white">7. Annotate Frame</text>
<text xml:space="preserve" text-anchor="middle" x="159.31" y="-131.05" font-family="Arial" font-size="11.00" fill="white">BoxAnnotator,</text>
<text xml:space="preserve" text-anchor="middle" x="159.31" y="-117.55" font-family="Arial" font-size="11.00" fill="white">LabelAnnotator, etc.</text>
</g>
<!-- step6&#45;&gt;step7 -->
<g id="edge8" class="edge">
<title>step6&#45;&gt;step7</title>
<path fill="none" stroke="#ff9800" stroke-width="2" d="M159.31,-208.65C159.31,-208.65 159.31,-172.41 159.31,-172.41"/>
<polygon fill="#ff9800" stroke="#ff9800" stroke-width="2" points="162.81,-172.41 159.31,-162.41 155.81,-172.41 162.81,-172.41"/>
</g>
<!-- step8 -->
<g id="node9" class="node">
<title>step8</title>
<polygon fill="#e91e63" stroke="black" points="209.69,-60.5 108.94,-60.5 108.94,-24.5 209.69,-24.5 209.69,-60.5"/>
<text xml:space="preserve" text-anchor="middle" x="159.31" y="-45.55" font-family="Arial" font-size="11.00" fill="white">8. Save / Display</text>
<text xml:space="preserve" text-anchor="middle" x="159.31" y="-32.05" font-family="Arial" font-size="11.00" fill="white">Annotated Output</text>
</g>
<!-- step7&#45;&gt;step8 -->
<g id="edge9" class="edge">
<title>step7&#45;&gt;step8</title>
<path fill="none" stroke="#e91e63" stroke-width="2" d="M159.31,-110.03C159.31,-110.03 159.31,-73.88 159.31,-73.88"/>
<polygon fill="#e91e63" stroke="#e91e63" stroke-width="2" points="162.81,-73.88 159.31,-63.88 155.81,-73.88 162.81,-73.88"/>
</g>
</g>
</svg>
