<?xml version="1.0" encoding="UTF-8" standalone="no"?>
<!DOCTYPE svg PUBLIC "-//W3C//DTD SVG 1.1//EN"
 "http://www.w3.org/Graphics/SVG/1.1/DTD/svg11.dtd">
<!-- Generated by graphviz version 14.1.2 (0)
 -->
<!-- Title: superpowers_overview Pages: 1 -->
<svg width="1854pt" height="303pt"
 viewBox="0.00 0.00 1854.00 303.00" xmlns="http://www.w3.org/2000/svg" xmlns:xlink="http://www.w3.org/1999/xlink">
<g id="graph0" class="graph" transform="scale(1 1) rotate(0) translate(4 298.5)">
<title>superpowers_overview</title>
<polygon fill="white" stroke="none" points="-4,4 -4,-298.5 1850.38,-298.5 1850.38,4 -4,4"/>
<!-- philosophy -->
<g id="node1" class="node">
<title>philosophy</title>
<path fill="#9c27b0" stroke="black" d="M981.5,-294.5C981.5,-294.5 893.5,-294.5 893.5,-294.5 887.5,-294.5 881.5,-288.5 881.5,-282.5 881.5,-282.5 881.5,-270.5 881.5,-270.5 881.5,-264.5 887.5,-258.5 893.5,-258.5 893.5,-258.5 981.5,-258.5 981.5,-258.5 987.5,-258.5 993.5,-264.5 993.5,-270.5 993.5,-270.5 993.5,-282.5 993.5,-282.5 993.5,-288.5 987.5,-294.5 981.5,-294.5"/>
<text xml:space="preserve" text-anchor="middle" x="937.5" y="-272.23" font-family="Arial Bold" font-size="12.00" fill="white">Core Philosophy</text>
</g>
<!-- p1 -->
<g id="node2" class="node">
<title>p1</title>
<path fill="#9c27b0" stroke="black" d="M797.38,-208.5C797.38,-208.5 729.62,-208.5 729.62,-208.5 723.62,-208.5 717.62,-202.5 717.62,-196.5 717.62,-196.5 717.62,-184 717.62,-184 717.62,-178 723.62,-172 729.62,-172 729.62,-172 797.38,-172 797.38,-172 803.38,-172 809.38,-178 809.38,-184 809.38,-184 809.38,-196.5 809.38,-196.5 809.38,-202.5 803.38,-208.5 797.38,-208.5"/>
<text xml:space="preserve" text-anchor="middle" x="763.5" y="-193.1" font-family="Arial Bold" font-size="12.00" fill="white">Test&#45;Driven</text>
<text xml:space="preserve" text-anchor="middle" x="763.5" y="-178.85" font-family="Arial Bold" font-size="12.00" fill="white">Development</text>
</g>
<!-- philosophy&#45;&gt;p1 -->
<g id="edge1" class="edge">
<title>philosophy&#45;&gt;p1</title>
<path fill="none" stroke="#9c27b0" stroke-width="2" d="M881.01,-277C830.2,-277 763.5,-277 763.5,-277 763.5,-277 763.5,-221.67 763.5,-221.67"/>
<polygon fill="#9c27b0" stroke="#9c27b0" stroke-width="2" points="767,-221.67 763.5,-211.67 760,-221.67 767,-221.67"/>
</g>
<!-- p2 -->
<g id="node3" class="node">
<title>p2</title>
<path fill="#9c27b0" stroke="black" d="M912.75,-208.5C912.75,-208.5 850.25,-208.5 850.25,-208.5 844.25,-208.5 838.25,-202.5 838.25,-196.5 838.25,-196.5 838.25,-184 838.25,-184 838.25,-178 844.25,-172 850.25,-172 850.25,-172 912.75,-172 912.75,-172 918.75,-172 924.75,-178 924.75,-184 924.75,-184 924.75,-196.5 924.75,-196.5 924.75,-202.5 918.75,-208.5 912.75,-208.5"/>
<text xml:space="preserve" text-anchor="middle" x="881.5" y="-193.1" font-family="Arial Bold" font-size="12.00" fill="white">Systematic</text>
<text xml:space="preserve" text-anchor="middle" x="881.5" y="-178.85" font-family="Arial Bold" font-size="12.00" fill="white">over Ad&#45;hoc</text>
</g>
<!-- philosophy&#45;&gt;p2 -->
<g id="edge2" class="edge">
<title>philosophy&#45;&gt;p2</title>
<path fill="none" stroke="#9c27b0" stroke-width="2" d="M903.12,-258.21C903.12,-258.21 903.12,-221.84 903.12,-221.84"/>
<polygon fill="#9c27b0" stroke="#9c27b0" stroke-width="2" points="906.63,-221.84 903.13,-211.84 899.63,-221.84 906.63,-221.84"/>
</g>
<!-- p3 -->
<g id="node4" class="node">
<title>p3</title>
<path fill="#9c27b0" stroke="black" d="M1022.75,-208.5C1022.75,-208.5 966.25,-208.5 966.25,-208.5 960.25,-208.5 954.25,-202.5 954.25,-196.5 954.25,-196.5 954.25,-184 954.25,-184 954.25,-178 960.25,-172 966.25,-172 966.25,-172 1022.75,-172 1022.75,-172 1028.75,-172 1034.75,-178 1034.75,-184 1034.75,-184 1034.75,-196.5 1034.75,-196.5 1034.75,-202.5 1028.75,-208.5 1022.75,-208.5"/>
<text xml:space="preserve" text-anchor="middle" x="994.5" y="-193.1" font-family="Arial Bold" font-size="12.00" fill="white">Complexity</text>
<text xml:space="preserve" text-anchor="middle" x="994.5" y="-178.85" font-family="Arial Bold" font-size="12.00" fill="white">Reduction</text>
</g>
<!-- philosophy&#45;&gt;p3 -->
<g id="edge3" class="edge">
<title>philosophy&#45;&gt;p3</title>
<path fill="none" stroke="#9c27b0" stroke-width="2" d="M973.88,-258.21C973.88,-258.21 973.88,-221.84 973.88,-221.84"/>
<polygon fill="#9c27b0" stroke="#9c27b0" stroke-width="2" points="977.38,-221.84 973.88,-211.84 970.38,-221.84 977.38,-221.84"/>
</g>
<!-- p4 -->
<g id="node5" class="node">
<title>p4</title>
<path fill="#9c27b0" stroke="black" d="M1135.25,-208.5C1135.25,-208.5 1075.75,-208.5 1075.75,-208.5 1069.75,-208.5 1063.75,-202.5 1063.75,-196.5 1063.75,-196.5 1063.75,-184 1063.75,-184 1063.75,-178 1069.75,-172 1075.75,-172 1075.75,-172 1135.25,-172 1135.25,-172 1141.25,-172 1147.25,-178 1147.25,-184 1147.25,-184 1147.25,-196.5 1147.25,-196.5 1147.25,-202.5 1141.25,-208.5 1135.25,-208.5"/>
<text xml:space="preserve" text-anchor="middle" x="1105.5" y="-193.1" font-family="Arial Bold" font-size="12.00" fill="white">Evidence</text>
<text xml:space="preserve" text-anchor="middle" x="1105.5" y="-178.85" font-family="Arial Bold" font-size="12.00" fill="white">over Claims</text>
</g>
<!-- philosophy&#45;&gt;p4 -->
<g id="edge4" class="edge">
<title>philosophy&#45;&gt;p4</title>
<path fill="none" stroke="#9c27b0" stroke-width="2" d="M993.91,-277C1042.71,-277 1105.5,-277 1105.5,-277 1105.5,-277 1105.5,-221.67 1105.5,-221.67"/>
<polygon fill="#9c27b0" stroke="#9c27b0" stroke-width="2" points="1109,-221.67 1105.5,-211.67 1102,-221.67 1109,-221.67"/>
</g>
<!-- testing_cat -->
<g id="node6" class="node">
<title>testing_cat</title>
<path fill="#4caf50" stroke="black" d="M470.38,-122C470.38,-122 408.62,-122 408.62,-122 402.62,-122 396.62,-116 396.62,-110 396.62,-110 396.62,-98 396.62,-98 396.62,-92 402.62,-86 408.62,-86 408.62,-86 470.38,-86 470.38,-86 476.38,-86 482.38,-92 482.38,-98 482.38,-98 482.38,-110 482.38,-110 482.38,-116 476.38,-122 470.38,-122"/>
<text xml:space="preserve" text-anchor="middle" x="439.5" y="-100.3" font-family="Arial Bold" font-size="11.00" fill="white">Testing Skills</text>
</g>
<!-- p1&#45;&gt;testing_cat -->
<g id="edge5" class="edge">
<title>p1&#45;&gt;testing_cat</title>
<path fill="none" stroke="#4caf50" stroke-width="1.5" stroke-dasharray="5,2" d="M717.17,-190C624.52,-190 425.21,-190 425.21,-190 425.21,-190 425.21,-134.51 425.21,-134.51"/>
<polygon fill="#4caf50" stroke="#4caf50" stroke-width="1.5" points="428.71,-134.51 425.21,-124.51 421.71,-134.51 428.71,-134.51"/>
</g>
<!-- debugging_cat -->
<g id="node7" class="node">
<title>debugging_cat</title>
<path fill="#ff9800" stroke="black" d="M793.12,-122C793.12,-122 711.88,-122 711.88,-122 705.88,-122 699.88,-116 699.88,-110 699.88,-110 699.88,-98 699.88,-98 699.88,-92 705.88,-86 711.88,-86 711.88,-86 793.12,-86 793.12,-86 799.12,-86 805.12,-92 805.12,-98 805.12,-98 805.12,-110 805.12,-110 805.12,-116 799.12,-122 793.12,-122"/>
<text xml:space="preserve" text-anchor="middle" x="752.5" y="-100.3" font-family="Arial Bold" font-size="11.00" fill="white">Debugging Skills</text>
</g>
<!-- p1&#45;&gt;debugging_cat -->
<g id="edge7" class="edge">
<title>p1&#45;&gt;debugging_cat</title>
<path fill="none" stroke="#ff9800" stroke-width="1.5" stroke-dasharray="5,2" d="M746.79,-171.54C746.79,-171.54 746.79,-134.65 746.79,-134.65"/>
<polygon fill="#ff9800" stroke="#ff9800" stroke-width="1.5" points="750.29,-134.65 746.79,-124.65 743.29,-134.65 750.29,-134.65"/>
</g>
<!-- collaboration_cat -->
<g id="node8" class="node">
<title>collaboration_cat</title>
<path fill="#2196f3" stroke="black" d="M940.88,-122C940.88,-122 846.12,-122 846.12,-122 840.12,-122 834.12,-116 834.12,-110 834.12,-110 834.12,-98 834.12,-98 834.12,-92 840.12,-86 846.12,-86 846.12,-86 940.88,-86 940.88,-86 946.88,-86 952.88,-92 952.88,-98 952.88,-98 952.88,-110 952.88,-110 952.88,-116 946.88,-122 940.88,-122"/>
<text xml:space="preserve" text-anchor="middle" x="893.5" y="-100.3" font-family="Arial Bold" font-size="11.00" fill="white">Collaboration Skills</text>
</g>
<!-- p1&#45;&gt;collaboration_cat -->
<g id="edge9" class="edge">
<title>p1&#45;&gt;collaboration_cat</title>
<path fill="none" stroke="#2196f3" stroke-width="1.5" stroke-dasharray="5,2" d="M809.63,-196C817.91,-196 823.96,-196 823.96,-196 823.96,-196 823.96,-104 823.96,-104 823.96,-104 824.93,-104 824.93,-104"/>
<polygon fill="#2196f3" stroke="#2196f3" stroke-width="1.5" points="821.36,-107.5 831.36,-104 821.36,-100.5 821.36,-107.5"/>
</g>
<!-- meta_cat -->
<g id="node9" class="node">
<title>meta_cat</title>
<path fill="#009688" stroke="black" d="M1377.62,-122C1377.62,-122 1329.38,-122 1329.38,-122 1323.38,-122 1317.38,-116 1317.38,-110 1317.38,-110 1317.38,-98 1317.38,-98 1317.38,-92 1323.38,-86 1329.38,-86 1329.38,-86 1377.62,-86 1377.62,-86 1383.62,-86 1389.62,-92 1389.62,-98 1389.62,-98 1389.62,-110 1389.62,-110 1389.62,-116 1383.62,-122 1377.62,-122"/>
<text xml:space="preserve" text-anchor="middle" x="1353.5" y="-100.3" font-family="Arial Bold" font-size="11.00" fill="white">Meta Skills</text>
</g>
<!-- p1&#45;&gt;meta_cat -->
<g id="edge11" class="edge">
<title>p1&#45;&gt;meta_cat</title>
<path fill="none" stroke="#009688" stroke-width="1.5" stroke-dasharray="5,2" d="M775.96,-171.66C775.96,-159.93 775.96,-147 775.96,-147 775.96,-147 1341.46,-147 1341.46,-147 1341.46,-147 1341.46,-134.76 1341.46,-134.76"/>
<polygon fill="#009688" stroke="#009688" stroke-width="1.5" points="1344.96,-134.76 1341.46,-124.76 1337.96,-134.76 1344.96,-134.76"/>
</g>
<!-- p2&#45;&gt;testing_cat -->
<g id="edge6" class="edge">
<title>p2&#45;&gt;testing_cat</title>
<path fill="none" stroke="#4caf50" stroke-width="1.5" stroke-dasharray="5,2" d="M859.88,-171.54C859.88,-155.52 859.88,-135 859.88,-135 859.88,-135 453.79,-135 453.79,-135 453.79,-135 453.79,-133.74 453.79,-133.74"/>
<polygon fill="#4caf50" stroke="#4caf50" stroke-width="1.5" points="457.29,-134.66 453.79,-124.66 450.29,-134.66 457.29,-134.66"/>
</g>
<!-- p2&#45;&gt;debugging_cat -->
<g id="edge8" class="edge">
<title>p2&#45;&gt;debugging_cat</title>
<path fill="none" stroke="#ff9800" stroke-width="1.5" stroke-dasharray="5,2" d="M838.18,-184C832.74,-184 829.04,-184 829.04,-184 829.04,-184 829.04,-113 829.04,-113 829.04,-113 817.51,-113 817.51,-113"/>
<polygon fill="#ff9800" stroke="#ff9800" stroke-width="1.5" points="817.51,-109.5 807.51,-113 817.51,-116.5 817.51,-109.5"/>
</g>
<!-- p2&#45;&gt;collaboration_cat -->
<g id="edge10" class="edge">
<title>p2&#45;&gt;collaboration_cat</title>
<path fill="none" stroke="#2196f3" stroke-width="1.5" stroke-dasharray="5,2" d="M881.5,-171.54C881.5,-171.54 881.5,-134.65 881.5,-134.65"/>
<polygon fill="#2196f3" stroke="#2196f3" stroke-width="1.5" points="885,-134.65 881.5,-124.65 878,-134.65 885,-134.65"/>
</g>
<!-- p2&#45;&gt;meta_cat -->
<g id="edge12" class="edge">
<title>p2&#45;&gt;meta_cat</title>
<path fill="none" stroke="#009688" stroke-width="1.5" stroke-dasharray="5,2" d="M903.12,-171.61C903.12,-165.38 903.12,-160 903.12,-160 903.12,-160 1365.54,-160 1365.54,-160 1365.54,-160 1365.54,-134.61 1365.54,-134.61"/>
<polygon fill="#009688" stroke="#009688" stroke-width="1.5" points="1369.04,-134.61 1365.54,-124.61 1362.04,-134.61 1369.04,-134.61"/>
</g>
<!-- test_tdd -->
<g id="node10" class="node">
<title>test_tdd</title>
<path fill="#4caf50" stroke="black" d="M305.25,-36C305.25,-36 197.75,-36 197.75,-36 191.75,-36 185.75,-30 185.75,-24 185.75,-24 185.75,-12 185.75,-12 185.75,-6 191.75,0 197.75,0 197.75,0 305.25,0 305.25,0 311.25,0 317.25,-6 317.25,-12 317.25,-12 317.25,-24 317.25,-24 317.25,-30 311.25,-36 305.25,-36"/>
<text xml:space="preserve" text-anchor="middle" x="251.5" y="-14.3" font-family="Arial" font-size="11.00" fill="white">test&#45;driven&#45;development</text>
</g>
<!-- testing_cat&#45;&gt;test_tdd -->
<g id="edge13" class="edge">
<title>testing_cat&#45;&gt;test_tdd</title>
<path fill="none" stroke="#4caf50" stroke-width="1.5" d="M396.37,-98C340.86,-98 251.5,-98 251.5,-98 251.5,-98 251.5,-48.42 251.5,-48.42"/>
<polygon fill="#4caf50" stroke="#4caf50" stroke-width="1.5" points="255,-48.42 251.5,-38.42 248,-48.42 255,-48.42"/>
</g>
<!-- test_verify -->
<g id="node11" class="node">
<title>test_verify</title>
<path fill="#4caf50" stroke="black" d="M145,-36C145,-36 12,-36 12,-36 6,-36 0,-30 0,-24 0,-24 0,-12 0,-12 0,-6 6,0 12,0 12,0 145,0 145,0 151,0 157,-6 157,-12 157,-12 157,-24 157,-24 157,-30 151,-36 145,-36"/>
<text xml:space="preserve" text-anchor="middle" x="78.5" y="-14.3" font-family="Arial" font-size="11.00" fill="white">verification&#45;before&#45;completion</text>
</g>
<!-- testing_cat&#45;&gt;test_verify -->
<g id="edge14" class="edge">
<title>testing_cat&#45;&gt;test_verify</title>
<path fill="none" stroke="#4caf50" stroke-width="1.5" d="M396.31,-110C300.49,-110 78.5,-110 78.5,-110 78.5,-110 78.5,-48.45 78.5,-48.45"/>
<polygon fill="#4caf50" stroke="#4caf50" stroke-width="1.5" points="82,-48.45 78.5,-38.45 75,-48.45 82,-48.45"/>
</g>
<!-- debug_sys -->
<g id="node12" class="node">
<title>debug_sys</title>
<path fill="#ff9800" stroke="black" d="M454.62,-36C454.62,-36 358.38,-36 358.38,-36 352.38,-36 346.38,-30 346.38,-24 346.38,-24 346.38,-12 346.38,-12 346.38,-6 352.38,0 358.38,0 358.38,0 454.62,0 454.62,0 460.62,0 466.62,-6 466.62,-12 466.62,-12 466.62,-24 466.62,-24 466.62,-30 460.62,-36 454.62,-36"/>
<text xml:space="preserve" text-anchor="middle" x="406.5" y="-14.3" font-family="Arial" font-size="11.00" fill="white">systematic&#45;debugging</text>
</g>
<!-- debugging_cat&#45;&gt;debug_sys -->
<g id="edge15" class="edge">
<title>debugging_cat&#45;&gt;debug_sys</title>
<path fill="none" stroke="#ff9800" stroke-width="1.5" d="M699.51,-104C622.58,-104 489.06,-104 489.06,-104 489.06,-104 489.06,-18 489.06,-18 489.06,-18 479.21,-18 479.21,-18"/>
<polygon fill="#ff9800" stroke="#ff9800" stroke-width="1.5" points="479.21,-14.5 469.21,-18 479.21,-21.5 479.21,-14.5"/>
</g>
<!-- collab_brain -->
<g id="node13" class="node">
<title>collab_brain</title>
<path fill="#2196f3" stroke="black" d="M701.12,-36C701.12,-36 643.88,-36 643.88,-36 637.88,-36 631.88,-30 631.88,-24 631.88,-24 631.88,-12 631.88,-12 631.88,-6 637.88,0 643.88,0 643.88,0 701.12,0 701.12,0 707.12,0 713.12,-6 713.12,-12 713.12,-12 713.12,-24 713.12,-24 713.12,-30 707.12,-36 701.12,-36"/>
<text xml:space="preserve" text-anchor="middle" x="672.5" y="-14.3" font-family="Arial" font-size="11.00" fill="white">brainstorming</text>
</g>
<!-- collaboration_cat&#45;&gt;collab_brain -->
<g id="edge16" class="edge">
<title>collaboration_cat&#45;&gt;collab_brain</title>
<path fill="none" stroke="#2196f3" stroke-width="1.5" d="M843.38,-85.69C843.38,-69.69 843.38,-49 843.38,-49 843.38,-49 706.5,-49 706.5,-49 706.5,-49 706.5,-47.74 706.5,-47.74"/>
<polygon fill="#2196f3" stroke="#2196f3" stroke-width="1.5" points="710,-48.66 706.5,-38.66 703,-48.66 710,-48.66"/>
</g>
<!-- collab_plan -->
<g id="node14" class="node">
<title>collab_plan</title>
<path fill="#2196f3" stroke="black" d="M806.88,-36C806.88,-36 754.12,-36 754.12,-36 748.12,-36 742.12,-30 742.12,-24 742.12,-24 742.12,-12 742.12,-12 742.12,-6 748.12,0 754.12,0 754.12,0 806.88,0 806.88,0 812.88,0 818.88,-6 818.88,-12 818.88,-12 818.88,-24 818.88,-24 818.88,-30 812.88,-36 806.88,-36"/>
<text xml:space="preserve" text-anchor="middle" x="780.5" y="-14.3" font-family="Arial" font-size="11.00" fill="white">writing&#45;plans</text>
</g>
<!-- collaboration_cat&#45;&gt;collab_plan -->
<g id="edge17" class="edge">
<title>collaboration_cat&#45;&gt;collab_plan</title>
<path fill="none" stroke="#2196f3" stroke-width="1.5" d="M833.75,-95C822.47,-95 814.12,-95 814.12,-95 814.12,-95 814.12,-48.52 814.12,-48.52"/>
<polygon fill="#2196f3" stroke="#2196f3" stroke-width="1.5" points="817.63,-48.52 814.13,-38.52 810.63,-48.52 817.63,-48.52"/>
</g>
<!-- collab_exec -->
<g id="node15" class="node">
<title>collab_exec</title>
<path fill="#2196f3" stroke="black" d="M927,-36C927,-36 860,-36 860,-36 854,-36 848,-30 848,-24 848,-24 848,-12 848,-12 848,-6 854,0 860,0 860,0 927,0 927,0 933,0 939,-6 939,-12 939,-12 939,-24 939,-24 939,-30 933,-36 927,-36"/>
<text xml:space="preserve" text-anchor="middle" x="893.5" y="-14.3" font-family="Arial" font-size="11.00" fill="white">executing&#45;plans</text>
</g>
<!-- collaboration_cat&#45;&gt;collab_exec -->
<g id="edge18" class="edge">
<title>collaboration_cat&#45;&gt;collab_exec</title>
<path fill="none" stroke="#2196f3" stroke-width="1.5" d="M893.5,-85.76C893.5,-85.76 893.5,-48.48 893.5,-48.48"/>
<polygon fill="#2196f3" stroke="#2196f3" stroke-width="1.5" points="897,-48.48 893.5,-38.48 890,-48.48 897,-48.48"/>
</g>
<!-- collab_subagent -->
<g id="node16" class="node">
<title>collab_subagent</title>
<path fill="#2196f3" stroke="black" d="M1114.75,-36C1114.75,-36 980.25,-36 980.25,-36 974.25,-36 968.25,-30 968.25,-24 968.25,-24 968.25,-12 968.25,-12 968.25,-6 974.25,0 980.25,0 980.25,0 1114.75,0 1114.75,0 1120.75,0 1126.75,-6 1126.75,-12 1126.75,-12 1126.75,-24 1126.75,-24 1126.75,-30 1120.75,-36 1114.75,-36"/>
<text xml:space="preserve" text-anchor="middle" x="1047.5" y="-14.3" font-family="Arial" font-size="11.00" fill="white">subagent&#45;driven&#45;development</text>
</g>
<!-- collaboration_cat&#45;&gt;collab_subagent -->
<g id="edge19" class="edge">
<title>collaboration_cat&#45;&gt;collab_subagent</title>
<path fill="none" stroke="#2196f3" stroke-width="1.5" d="M948.25,-85.76C948.25,-60.52 948.25,-18 948.25,-18 948.25,-18 955.59,-18 955.59,-18"/>
<polygon fill="#2196f3" stroke="#2196f3" stroke-width="1.5" points="955.59,-21.5 965.59,-18 955.59,-14.5 955.59,-21.5"/>
</g>
<!-- collab_parallel -->
<g id="node17" class="node">
<title>collab_parallel</title>
<path fill="#2196f3" stroke="black" d="M1287.62,-36C1287.62,-36 1167.38,-36 1167.38,-36 1161.38,-36 1155.38,-30 1155.38,-24 1155.38,-24 1155.38,-12 1155.38,-12 1155.38,-6 1161.38,0 1167.38,0 1167.38,0 1287.62,0 1287.62,0 1293.62,0 1299.62,-6 1299.62,-12 1299.62,-12 1299.62,-24 1299.62,-24 1299.62,-30 1293.62,-36 1287.62,-36"/>
<text xml:space="preserve" text-anchor="middle" x="1227.5" y="-14.3" font-family="Arial" font-size="11.00" fill="white">dispatching&#45;parallel&#45;agents</text>
</g>
<!-- collaboration_cat&#45;&gt;collab_parallel -->
<g id="edge20" class="edge">
<title>collaboration_cat&#45;&gt;collab_parallel</title>
<path fill="none" stroke="#2196f3" stroke-width="1.5" d="M953.21,-98C1049.28,-98 1227.5,-98 1227.5,-98 1227.5,-98 1227.5,-48.42 1227.5,-48.42"/>
<polygon fill="#2196f3" stroke="#2196f3" stroke-width="1.5" points="1231,-48.42 1227.5,-38.42 1224,-48.42 1231,-48.42"/>
</g>
<!-- collab_req -->
<g id="node18" class="node">
<title>collab_req</title>
<path fill="#2196f3" stroke="black" d="M1444.75,-36C1444.75,-36 1340.25,-36 1340.25,-36 1334.25,-36 1328.25,-30 1328.25,-24 1328.25,-24 1328.25,-12 1328.25,-12 1328.25,-6 1334.25,0 1340.25,0 1340.25,0 1444.75,0 1444.75,0 1450.75,0 1456.75,-6 1456.75,-12 1456.75,-12 1456.75,-24 1456.75,-24 1456.75,-30 1450.75,-36 1444.75,-36"/>
<text xml:space="preserve" text-anchor="middle" x="1392.5" y="-14.3" font-family="Arial" font-size="11.00" fill="white">requesting&#45;code&#45;review</text>
</g>
<!-- collaboration_cat&#45;&gt;collab_req -->
<g id="edge21" class="edge">
<title>collaboration_cat&#45;&gt;collab_req</title>
<path fill="none" stroke="#2196f3" stroke-width="1.5" d="M952.96,-110C1067.71,-110 1308.5,-110 1308.5,-110 1308.5,-110 1308.5,-18 1308.5,-18 1308.5,-18 1315.71,-18 1315.71,-18"/>
<polygon fill="#2196f3" stroke="#2196f3" stroke-width="1.5" points="1315.71,-21.5 1325.71,-18 1315.71,-14.5 1315.71,-21.5"/>
</g>
<!-- collab_recv -->
<g id="node19" class="node">
<title>collab_recv</title>
<path fill="#2196f3" stroke="black" d="M1595,-36C1595,-36 1498,-36 1498,-36 1492,-36 1486,-30 1486,-24 1486,-24 1486,-12 1486,-12 1486,-6 1492,0 1498,0 1498,0 1595,0 1595,0 1601,0 1607,-6 1607,-12 1607,-12 1607,-24 1607,-24 1607,-30 1601,-36 1595,-36"/>
<text xml:space="preserve" text-anchor="middle" x="1546.5" y="-14.3" font-family="Arial" font-size="11.00" fill="white">receiving&#45;code&#45;review</text>
</g>
<!-- collaboration_cat&#45;&gt;collab_recv -->
<g id="edge22" class="edge">
<title>collaboration_cat&#45;&gt;collab_recv</title>
<path fill="none" stroke="#2196f3" stroke-width="1.5" d="M943.62,-85.51C943.62,-79.34 943.62,-74 943.62,-74 943.62,-74 1546.5,-74 1546.5,-74 1546.5,-74 1546.5,-48.61 1546.5,-48.61"/>
<polygon fill="#2196f3" stroke="#2196f3" stroke-width="1.5" points="1550,-48.61 1546.5,-38.61 1543,-48.61 1550,-48.61"/>
</g>
<!-- collab_git -->
<g id="node20" class="node">
<title>collab_git</title>
<path fill="#2196f3" stroke="black" d="M591.25,-36C591.25,-36 507.75,-36 507.75,-36 501.75,-36 495.75,-30 495.75,-24 495.75,-24 495.75,-12 495.75,-12 495.75,-6 501.75,0 507.75,0 507.75,0 591.25,0 591.25,0 597.25,0 603.25,-6 603.25,-12 603.25,-12 603.25,-24 603.25,-24 603.25,-30 597.25,-36 591.25,-36"/>
<text xml:space="preserve" text-anchor="middle" x="549.5" y="-14.3" font-family="Arial" font-size="11.00" fill="white">using&#45;git&#45;worktrees</text>
</g>
<!-- collaboration_cat&#45;&gt;collab_git -->
<g id="edge23" class="edge">
<title>collaboration_cat&#45;&gt;collab_git</title>
<path fill="none" stroke="#2196f3" stroke-width="1.5" d="M838.75,-85.51C838.75,-73.86 838.75,-61 838.75,-61 838.75,-61 549.5,-61 549.5,-61 549.5,-61 549.5,-48.76 549.5,-48.76"/>
<polygon fill="#2196f3" stroke="#2196f3" stroke-width="1.5" points="553,-48.76 549.5,-38.76 546,-48.76 553,-48.76"/>
</g>
<!-- meta_write -->
<g id="node21" class="node">
<title>meta_write</title>
<path fill="#009688" stroke="black" d="M1834.38,-36C1834.38,-36 1784.62,-36 1784.62,-36 1778.62,-36 1772.62,-30 1772.62,-24 1772.62,-24 1772.62,-12 1772.62,-12 1772.62,-6 1778.62,0 1784.62,0 1784.62,0 1834.38,0 1834.38,0 1840.38,0 1846.38,-6 1846.38,-12 1846.38,-12 1846.38,-24 1846.38,-24 1846.38,-30 1840.38,-36 1834.38,-36"/>
<text xml:space="preserve" text-anchor="middle" x="1809.5" y="-14.3" font-family="Arial" font-size="11.00" fill="white">writing&#45;skills</text>
</g>
<!-- meta_cat&#45;&gt;meta_write -->
<g id="edge24" class="edge">
<title>meta_cat&#45;&gt;meta_write</title>
<path fill="none" stroke="#009688" stroke-width="1.5" d="M1390.05,-110C1498.25,-110 1809.5,-110 1809.5,-110 1809.5,-110 1809.5,-48.45 1809.5,-48.45"/>
<polygon fill="#009688" stroke="#009688" stroke-width="1.5" points="1813,-48.45 1809.5,-38.45 1806,-48.45 1813,-48.45"/>
</g>
<!-- meta_super -->
<g id="node22" class="node">
<title>meta_super</title>
<path fill="#009688" stroke="black" d="M1731.25,-36C1731.25,-36 1647.75,-36 1647.75,-36 1641.75,-36 1635.75,-30 1635.75,-24 1635.75,-24 1635.75,-12 1635.75,-12 1635.75,-6 1641.75,0 1647.75,0 1647.75,0 1731.25,0 1731.25,0 1737.25,0 1743.25,-6 1743.25,-12 1743.25,-12 1743.25,-24 1743.25,-24 1743.25,-30 1737.25,-36 1731.25,-36"/>
<text xml:space="preserve" text-anchor="middle" x="1689.5" y="-14.3" font-family="Arial" font-size="11.00" fill="white">using&#45;superpowers</text>
</g>
<!-- meta_cat&#45;&gt;meta_super -->
<g id="edge25" class="edge">
<title>meta_cat&#45;&gt;meta_super</title>
<path fill="none" stroke="#009688" stroke-width="1.5" d="M1390.1,-98C1477.18,-98 1689.5,-98 1689.5,-98 1689.5,-98 1689.5,-48.42 1689.5,-48.42"/>
<polygon fill="#009688" stroke="#009688" stroke-width="1.5" points="1693,-48.42 1689.5,-38.42 1686,-48.42 1693,-48.42"/>
</g>
</g>
</svg>
