<?xml version="1.0" encoding="UTF-8" standalone="no"?>

<!DOCTYPE svg PUBLIC "-//W3C//DTD SVG 1.1//EN"

 "http://www.w3.org/Graphics/SVG/1.1/DTD/svg11.dtd">

<!-- Generated by graphviz version 14.1.2 (0)

 -->

<!-- Title: swarm_forge_workflow Pages: 1 -->

<svg width="800pt" height="1393pt"

 viewBox="-223.5 0.0 800.0 1393.0" xmlns="http://www.w3.org/2000/svg" xmlns:xlink="http://www.w3.org/1999/xlink">

<g id="graph0" class="graph" transform="scale(1 1) rotate(0) translate(4 1389.3)">

<title>swarm_forge_workflow</title>

<text xml:space="preserve" text-anchor="middle" x="172.25" y="-7.2" font-family="Times New Roman,serif" font-size="14.00">SwarmForge Workflow</text>

<!-- s1 -->

<g id="node1" class="node">

<title>s1</title>

<path fill="#4caf50" stroke="black" d="M323,-1385.3C323,-1385.3 131,-1385.3 131,-1385.3 125,-1385.3 119,-1379.3 119,-1373.3 119,-1373.3 119,-1310.9 119,-1310.9 119,-1304.9 125,-1298.9 131,-1298.9 131,-1298.9 323,-1298.9 323,-1298.9 329,-1298.9 335,-1304.9 335,-1310.9 335,-1310.9 335,-1373.3 335,-1373.3 335,-1379.3 329,-1385.3 323,-1385.3"/>

<text xml:space="preserve" text-anchor="middle" x="227" y="-1345.15" font-family="Arial" font-size="11.00" fill="white">1. Create</text>

<text xml:space="preserve" text-anchor="middle" x="227" y="-1331.65" font-family="Arial" font-size="11.00" fill="white">swarmforge/</text>

</g>

<!-- s2 -->

<g id="node2" class="node">

<title>s2</title>

<path fill="#2196f3" stroke="black" d="M323,-1226.9C323,-1226.9 131,-1226.9 131,-1226.9 125,-1226.9 119,-1220.9 119,-1214.9 119,-1214.9 119,-1152.5 119,-1152.5 119,-1146.5 125,-1140.5 131,-1140.5 131,-1140.5 323,-1140.5 323,-1140.5 329,-1140.5 335,-1146.5 335,-1152.5 335,-1152.5 335,-1214.9 335,-1214.9 335,-1220.9 329,-1226.9 323,-1226.9"/>

<text xml:space="preserve" text-anchor="middle" x="227" y="-1186.75" font-family="Arial" font-size="11.00" fill="white">2. Write</text>

<text xml:space="preserve" text-anchor="middle" x="227" y="-1173.25" font-family="Arial" font-size="11.00" fill="white">swarmforge.conf</text>

</g>

<!-- s1&#45;&gt;s2 -->

<g id="edge1" class="edge">

<title>s1&#45;&gt;s2</title>

<path fill="none" stroke="#2196f3" stroke-width="2" d="M227,-1298.82C227,-1298.82 227,-1240.23 227,-1240.23"/>

<polygon fill="#2196f3" stroke="#2196f3" stroke-width="2" points="230.5,-1240.23 227,-1230.23 223.5,-1240.23 230.5,-1240.23"/>

</g>

<!-- s3 -->

<g id="node3" class="node">

<title>s3</title>

<path fill="#009688" stroke="black" d="M323,-1068.5C323,-1068.5 131,-1068.5 131,-1068.5 125,-1068.5 119,-1062.5 119,-1056.5 119,-1056.5 119,-994.1 119,-994.1 119,-988.1 125,-982.1 131,-982.1 131,-982.1 323,-982.1 323,-982.1 329,-982.1 335,-988.1 335,-994.1 335,-994.1 335,-1056.5 335,-1056.5 335,-1062.5 329,-1068.5 323,-1068.5"/>

<text xml:space="preserve" text-anchor="middle" x="227" y="-1028.35" font-family="Arial" font-size="11.00" fill="white">3. Run swarm</text>

<text xml:space="preserve" text-anchor="middle" x="227" y="-1014.85" font-family="Arial" font-size="11.00" fill="white">Command</text>

</g>

<!-- s2&#45;&gt;s3 -->

<g id="edge2" class="edge">

<title>s2&#45;&gt;s3</title>

<path fill="none" stroke="#2196f3" stroke-width="2" d="M227,-1140.42C227,-1140.42 227,-1081.83 227,-1081.83"/>

<polygon fill="#2196f3" stroke="#2196f3" stroke-width="2" points="230.5,-1081.83 227,-1071.83 223.5,-1081.83 230.5,-1081.83"/>

</g>

<!-- s4 -->

<g id="node4" class="node">

<title>s4</title>

<path fill="#9c27b0" stroke="black" d="M323,-910.1C323,-910.1 131,-910.1 131,-910.1 125,-910.1 119,-904.1 119,-898.1 119,-898.1 119,-835.7 119,-835.7 119,-829.7 125,-823.7 131,-823.7 131,-823.7 323,-823.7 323,-823.7 329,-823.7 335,-829.7 335,-835.7 335,-835.7 335,-898.1 335,-898.1 335,-904.1 329,-910.1 323,-910.1"/>

<text xml:space="preserve" text-anchor="middle" x="227" y="-869.95" font-family="Arial" font-size="11.00" fill="white">4. tmux Sessions</text>

<text xml:space="preserve" text-anchor="middle" x="227" y="-856.45" font-family="Arial" font-size="11.00" fill="white">Launch</text>

</g>

<!-- s3&#45;&gt;s4 -->

<g id="edge3" class="edge">

<title>s3&#45;&gt;s4</title>

<path fill="none" stroke="#2196f3" stroke-width="2" d="M227,-982.02C227,-982.02 227,-923.43 227,-923.43"/>

<polygon fill="#2196f3" stroke="#2196f3" stroke-width="2" points="230.5,-923.43 227,-913.43 223.5,-923.43 230.5,-923.43"/>

</g>

<!-- s5 -->

<g id="node5" class="node">

<title>s5</title>

<path fill="#ff9800" stroke="black" d="M323,-751.7C323,-751.7 131,-751.7 131,-751.7 125,-751.7 119,-745.7 119,-739.7 119,-739.7 119,-677.3 119,-677.3 119,-671.3 125,-665.3 131,-665.3 131,-665.3 323,-665.3 323,-665.3 329,-665.3 335,-671.3 335,-677.3 335,-677.3 335,-739.7 335,-739.7 335,-745.7 329,-751.7 323,-751.7"/>

<text xml:space="preserve" text-anchor="middle" x="227" y="-711.55" font-family="Arial" font-size="11.00" fill="white">5. Agents Start</text>

<text xml:space="preserve" text-anchor="middle" x="227" y="-698.05" font-family="Arial" font-size="11.00" fill="white">in Worktrees</text>

</g>

<!-- s4&#45;&gt;s5 -->

<g id="edge4" class="edge">

<title>s4&#45;&gt;s5</title>

<path fill="none" stroke="#2196f3" stroke-width="2" d="M227,-823.62C227,-823.62 227,-765.03 227,-765.03"/>

<polygon fill="#2196f3" stroke="#2196f3" stroke-width="2" points="230.5,-765.03 227,-755.03 223.5,-765.03 230.5,-765.03"/>

</g>

<!-- s6 -->

<g id="node6" class="node">

<title>s6</title>

<path fill="#e91e63" stroke="black" d="M323,-593.3C323,-593.3 131,-593.3 131,-593.3 125,-593.3 119,-587.3 119,-581.3 119,-581.3 119,-518.9 119,-518.9 119,-512.9 125,-506.9 131,-506.9 131,-506.9 323,-506.9 323,-506.9 329,-506.9 335,-512.9 335,-518.9 335,-518.9 335,-581.3 335,-581.3 335,-587.3 329,-593.3 323,-593.3"/>

<text xml:space="preserve" text-anchor="middle" x="227" y="-553.15" font-family="Arial" font-size="11.00" fill="white">6. File&#45;Based</text>

<text xml:space="preserve" text-anchor="middle" x="227" y="-539.65" font-family="Arial" font-size="11.00" fill="white">Handoffs</text>

</g>

<!-- s5&#45;&gt;s6 -->

<g id="edge5" class="edge">

<title>s5&#45;&gt;s6</title>

<path fill="none" stroke="#2196f3" stroke-width="2" d="M227,-665.22C227,-665.22 227,-606.63 227,-606.63"/>

<polygon fill="#2196f3" stroke="#2196f3" stroke-width="2" points="230.5,-606.63 227,-596.63 223.5,-606.63 230.5,-606.63"/>

</g>

<!-- s7 -->

<g id="node7" class="node">

<title>s7</title>

<path fill="#ffc107" stroke="black" d="M204,-434.9C204,-434.9 12,-434.9 12,-434.9 6,-434.9 0,-428.9 0,-422.9 0,-422.9 0,-360.5 0,-360.5 0,-354.5 6,-348.5 12,-348.5 12,-348.5 204,-348.5 204,-348.5 210,-348.5 216,-354.5 216,-360.5 216,-360.5 216,-422.9 216,-422.9 216,-428.9 210,-434.9 204,-434.9"/>

<text xml:space="preserve" text-anchor="middle" x="108" y="-394.75" font-family="Arial" font-size="11.00">7. User Observes</text>

<text xml:space="preserve" text-anchor="middle" x="108" y="-381.25" font-family="Arial" font-size="11.00">in Terminal</text>

</g>

<!-- s6&#45;&gt;s7 -->

<g id="edge6" class="edge">

<title>s6&#45;&gt;s7</title>

<path fill="none" stroke="#2196f3" stroke-width="2" d="M167.5,-506.82C167.5,-506.82 167.5,-448.23 167.5,-448.23"/>

<polygon fill="#2196f3" stroke="#2196f3" stroke-width="2" points="171,-448.23 167.5,-438.23 164,-448.23 171,-448.23"/>

</g>

<!-- decision -->

<g id="node8" class="node">

<title>decision</title>

<polygon fill="#f44336" stroke="black" points="227,-276.5 137,-222.5 227,-168.5 317,-222.5 227,-276.5"/>

<text xml:space="preserve" text-anchor="middle" x="227" y="-225.55" font-family="Arial Bold" font-size="11.00" fill="white">Work</text>

<text xml:space="preserve" text-anchor="middle" x="227" y="-212.05" font-family="Arial Bold" font-size="11.00" fill="white">Complete?</text>

</g>

<!-- s7&#45;&gt;decision -->

<g id="edge7" class="edge">

<title>s7&#45;&gt;decision</title>

<path fill="none" stroke="#2196f3" stroke-width="2" d="M176.5,-348.13C176.5,-348.13 176.5,-259.61 176.5,-259.61"/>

<polygon fill="#2196f3" stroke="#2196f3" stroke-width="2" points="180,-259.61 176.5,-249.61 173,-259.61 180,-259.61"/>

</g>

<!-- decision&#45;&gt;s6 -->

<g id="edge9" class="edge">

<title>decision&#45;&gt;s6</title>

<path fill="none" stroke="#f44336" stroke-width="1.5" stroke-dasharray="5,2" d="M266.5,-253.32C266.5,-253.32 266.5,-494.24 266.5,-494.24"/>

<polygon fill="#f44336" stroke="#f44336" stroke-width="1.5" points="263,-494.24 266.5,-504.24 270,-494.24 263,-494.24"/>

<text xml:space="preserve" text-anchor="middle" x="305.5" y="-376.98" font-family="Times New Roman,serif" font-size="14.00">No &#45; Continue</text>

</g>

<!-- end -->

<g id="node9" class="node">

<title>end</title>

<path fill="#607d8b" stroke="black" d="M323,-96.5C323,-96.5 131,-96.5 131,-96.5 125,-96.5 119,-90.5 119,-84.5 119,-84.5 119,-36.5 119,-36.5 119,-30.5 125,-24.5 131,-24.5 131,-24.5 323,-24.5 323,-24.5 329,-24.5 335,-30.5 335,-36.5 335,-36.5 335,-84.5 335,-84.5 335,-90.5 329,-96.5 323,-96.5"/>

<text xml:space="preserve" text-anchor="middle" x="227" y="-56.8" font-family="Arial" font-size="11.00" fill="white">swarm&#45;cleanup.sh</text>

</g>

<!-- decision&#45;&gt;end -->

<g id="edge8" class="edge">

<title>decision&#45;&gt;end</title>

<path fill="none" stroke="#4caf50" stroke-width="2" d="M227,-168.11C227,-168.11 227,-109.68 227,-109.68"/>

<polygon fill="#4caf50" stroke="#4caf50" stroke-width="2" points="230.5,-109.68 227,-99.68 223.5,-109.68 230.5,-109.68"/>

<text xml:space="preserve" text-anchor="middle" x="216.88" y="-142.09" font-family="Times New Roman,serif" font-size="14.00">Yes</text>

</g>

</g>

</svg>

