<?xml version="1.0" encoding="UTF-8" standalone="no"?>
<!DOCTYPE svg PUBLIC "-//W3C//DTD SVG 1.1//EN"
 "http://www.w3.org/Graphics/SVG/1.1/DTD/svg11.dtd">
<!-- Generated by graphviz version 14.1.2 (0)
 -->
<!-- Title: symphony_state_machine Pages: 1 -->
<svg width="635pt" height="1010pt"
 viewBox="0.00 0.00 635.00 1010.00" xmlns="http://www.w3.org/2000/svg" xmlns:xlink="http://www.w3.org/1999/xlink">
<style>
<!-- White text halo for edge label readability -->
text { paint-order: stroke; stroke: #ffffff; stroke-width: 3px; stroke-linejoin: round; fill: #1a1a2e; }
</style>
<g id="graph0" class="graph" transform="scale(1 1) rotate(0) translate(4 1005.75)">
<title>symphony_state_machine</title>
<polygon fill="white" stroke="none" points="-4,4 -4,-1005.75 631.25,-1005.75 631.25,4 -4,4"/>
<text xml:space="preserve" text-anchor="middle" x="313.62" y="-7.2" font-family="Times New Roman,serif" font-size="14.00">Symphony &#45; Orchestration State Machine</text>
<!-- unclaimed -->
<g id="node1" class="node">
<title>unclaimed</title>
<path fill="#4caf50" stroke="black" d="M615.25,-1001.75C615.25,-1001.75 540,-1001.75 540,-1001.75 534,-1001.75 528,-995.75 528,-989.75 528,-989.75 528,-969.75 528,-969.75 528,-963.75 534,-957.75 540,-957.75 540,-957.75 615.25,-957.75 615.25,-957.75 621.25,-957.75 627.25,-963.75 627.25,-969.75 627.25,-969.75 627.25,-989.75 627.25,-989.75 627.25,-995.75 621.25,-1001.75 615.25,-1001.75"/>
<text xml:space="preserve" text-anchor="middle" x="577.62" y="-988.25" font-family="Arial" font-size="10.00" fill="white">Unclaimed</text>
<text xml:space="preserve" text-anchor="middle" x="577.62" y="-976.25" font-family="Arial" font-size="10.00" fill="white">(Issue not running,</text>
<text xml:space="preserve" text-anchor="middle" x="577.62" y="-964.25" font-family="Arial" font-size="10.00" fill="white">no retry scheduled)</text>
</g>
<!-- poll_finds -->
<g id="node6" class="node">
<title>poll_finds</title>
<polygon fill="#f44336" stroke="black" points="506.62,-885.75 429.88,-853.75 506.62,-821.75 583.38,-853.75 506.62,-885.75"/>
<text xml:space="preserve" text-anchor="middle" x="506.62" y="-856.25" font-family="Arial Bold" font-size="10.00" fill="white">Poll finds</text>
<text xml:space="preserve" text-anchor="middle" x="506.62" y="-844.25" font-family="Arial Bold" font-size="10.00" fill="white">active issue?</text>
</g>
<!-- unclaimed&#45;&gt;poll_finds -->
<g id="edge1" class="edge">
<title>unclaimed&#45;&gt;poll_finds</title>
<path fill="none" stroke="#2196f3" stroke-width="2" d="M555.69,-957.51C555.69,-957.51 555.69,-878.56 555.69,-878.56"/>
<polygon fill="#2196f3" stroke="#2196f3" stroke-width="2" points="559.19,-878.56 555.69,-868.56 552.19,-878.56 559.19,-878.56"/>
</g>
<!-- claimed -->
<g id="node2" class="node">
<title>claimed</title>
<path fill="#2196f3" stroke="black" d="M507.38,-749.75C507.38,-749.75 387.88,-749.75 387.88,-749.75 381.88,-749.75 375.88,-743.75 375.88,-737.75 375.88,-737.75 375.88,-711 375.88,-711 375.88,-705 381.88,-699 387.88,-699 387.88,-699 507.38,-699 507.38,-699 513.38,-699 519.38,-705 519.38,-711 519.38,-711 519.38,-737.75 519.38,-737.75 519.38,-743.75 513.38,-749.75 507.38,-749.75"/>
<text xml:space="preserve" text-anchor="middle" x="447.62" y="-734.35" font-family="Arial Bold" font-size="12.00" fill="white">Claimed</text>
<text xml:space="preserve" text-anchor="middle" x="447.62" y="-720.1" font-family="Arial Bold" font-size="12.00" fill="white">(Issue reserved,</text>
<text xml:space="preserve" text-anchor="middle" x="447.62" y="-705.85" font-family="Arial Bold" font-size="12.00" fill="white">preventing duplicates)</text>
</g>
<!-- workspace_ok -->
<g id="node7" class="node">
<title>workspace_ok</title>
<polygon fill="#f44336" stroke="black" points="330.62,-627 263.62,-583 330.62,-539 397.62,-583 330.62,-627"/>
<text xml:space="preserve" text-anchor="middle" x="330.62" y="-591.5" font-family="Arial Bold" font-size="10.00" fill="white">Workspace</text>
<text xml:space="preserve" text-anchor="middle" x="330.62" y="-579.5" font-family="Arial Bold" font-size="10.00" fill="white">+ Codex</text>
<text xml:space="preserve" text-anchor="middle" x="330.62" y="-567.5" font-family="Arial Bold" font-size="10.00" fill="white">launched?</text>
</g>
<!-- claimed&#45;&gt;workspace_ok -->
<g id="edge3" class="edge">
<title>claimed&#45;&gt;workspace_ok</title>
<path fill="none" stroke="#2196f3" stroke-width="2" d="M386.75,-698.77C386.75,-698.77 386.75,-603.51 386.75,-603.51"/>
<polygon fill="#2196f3" stroke="#2196f3" stroke-width="2" points="390.25,-603.51 386.75,-593.51 383.25,-603.51 390.25,-603.51"/>
</g>
<!-- running -->
<g id="node3" class="node">
<title>running</title>
<path fill="#ff9800" stroke="black" d="M359.25,-467C359.25,-467 272,-467 272,-467 266,-467 260,-461 260,-455 260,-455 260,-430.5 260,-430.5 260,-424.5 266,-418.5 272,-418.5 272,-418.5 359.25,-418.5 359.25,-418.5 365.25,-418.5 371.25,-424.5 371.25,-430.5 371.25,-430.5 371.25,-455 371.25,-455 371.25,-461 365.25,-467 359.25,-467"/>
<text xml:space="preserve" text-anchor="middle" x="315.62" y="-452.55" font-family="Arial" font-size="11.00" fill="white">Running</text>
<text xml:space="preserve" text-anchor="middle" x="315.62" y="-439.05" font-family="Arial" font-size="11.00" fill="white">(Worker task active,</text>
<text xml:space="preserve" text-anchor="middle" x="315.62" y="-425.55" font-family="Arial" font-size="11.00" fill="white">Codex session live)</text>
</g>
<!-- work_complete -->
<g id="node8" class="node">
<title>work_complete</title>
<polygon fill="#f44336" stroke="black" points="430.62,-346.5 365.88,-314.5 430.62,-282.5 495.38,-314.5 430.62,-346.5"/>
<text xml:space="preserve" text-anchor="middle" x="430.62" y="-317" font-family="Arial Bold" font-size="10.00" fill="white">Work</text>
<text xml:space="preserve" text-anchor="middle" x="430.62" y="-305" font-family="Arial Bold" font-size="10.00" fill="white">complete?</text>
</g>
<!-- running&#45;&gt;work_complete -->
<g id="edge5" class="edge">
<title>running&#45;&gt;work_complete</title>
<path fill="none" stroke="#2196f3" stroke-width="2" d="M371.49,-442.5C379.14,-442.5 384.44,-442.5 384.44,-442.5 384.44,-442.5 384.44,-337.15 384.44,-337.15"/>
<polygon fill="#2196f3" stroke="#2196f3" stroke-width="2" points="387.94,-337.15 384.44,-327.15 380.94,-337.15 387.94,-337.15"/>
</g>
<!-- error_check -->
<g id="node9" class="node">
<title>error_check</title>
<polygon fill="#f44336" stroke="black" points="182.62,-346.5 129.88,-314.5 182.62,-282.5 235.38,-314.5 182.62,-346.5"/>
<text xml:space="preserve" text-anchor="middle" x="182.62" y="-317" font-family="Arial Bold" font-size="10.00" fill="white">Error or</text>
<text xml:space="preserve" text-anchor="middle" x="182.62" y="-305" font-family="Arial Bold" font-size="10.00" fill="white">stall?</text>
</g>
<!-- running&#45;&gt;error_check -->
<g id="edge7" class="edge">
<title>running&#45;&gt;error_check</title>
<path fill="none" stroke="#f44336" stroke-width="1.5" stroke-dasharray="5,2" d="M280.38,-418.02C280.38,-380.75 280.38,-314.5 280.38,-314.5 280.38,-314.5 248.35,-314.5 248.35,-314.5"/>
<polygon fill="#f44336" stroke="#f44336" stroke-width="1.5" points="248.35,-311 238.35,-314.5 248.35,-318 248.35,-311"/>
</g>
<!-- retry_queued -->
<g id="node4" class="node">
<title>retry_queued</title>
<path fill="#f44336" stroke="black" d="M95.12,-207.5C95.12,-207.5 16.12,-207.5 16.12,-207.5 10.12,-207.5 4.12,-201.5 4.12,-195.5 4.12,-195.5 4.12,-175.5 4.12,-175.5 4.12,-169.5 10.12,-163.5 16.12,-163.5 16.12,-163.5 95.12,-163.5 95.12,-163.5 101.12,-163.5 107.12,-169.5 107.12,-175.5 107.12,-175.5 107.12,-195.5 107.12,-195.5 107.12,-201.5 101.12,-207.5 95.12,-207.5"/>
<text xml:space="preserve" text-anchor="middle" x="55.62" y="-194" font-family="Arial" font-size="10.00" fill="white">RetryQueued</text>
<text xml:space="preserve" text-anchor="middle" x="55.62" y="-182" font-family="Arial" font-size="10.00" fill="white">(Retry timer active,</text>
<text xml:space="preserve" text-anchor="middle" x="55.62" y="-170" font-family="Arial" font-size="10.00" fill="white">exponential backoff)</text>
</g>
<!-- backoff_expired -->
<g id="node10" class="node">
<title>backoff_expired</title>
<polygon fill="#f44336" stroke="black" points="264.62,-88.5 208.12,-56.5 264.62,-24.5 321.12,-56.5 264.62,-88.5"/>
<text xml:space="preserve" text-anchor="middle" x="264.62" y="-59" font-family="Arial Bold" font-size="10.00" fill="white">Backoff</text>
<text xml:space="preserve" text-anchor="middle" x="264.62" y="-47" font-family="Arial Bold" font-size="10.00" fill="white">expired?</text>
</g>
<!-- retry_queued&#45;&gt;backoff_expired -->
<g id="edge9" class="edge">
<title>retry_queued&#45;&gt;backoff_expired</title>
<path fill="none" stroke="#ff9800" stroke-width="2" d="M72.79,-163.15C72.79,-132.86 72.79,-82.5 72.79,-82.5 72.79,-82.5 240.17,-82.5 240.17,-82.5"/>
<polygon fill="#ff9800" stroke="#ff9800" stroke-width="2" points="240.17,-86 250.17,-82.5 240.17,-79 240.17,-86"/>
</g>
<!-- backoff_note -->
<g id="node13" class="node">
<title>backoff_note</title>
<polygon fill="#fff9c4" stroke="black" points="105.25,-76.25 0,-76.25 0,-36.75 111.25,-36.75 111.25,-70.25 105.25,-76.25"/>
<polyline fill="none" stroke="black" points="105.25,-76.25 105.25,-70.25"/>
<polyline fill="none" stroke="black" points="111.25,-70.25 105.25,-70.25"/>
<text xml:space="preserve" text-anchor="middle" x="55.62" y="-63.7" font-family="Arial" font-size="9.00" fill="#333333">Backoff:</text>
<text xml:space="preserve" text-anchor="middle" x="55.62" y="-53.2" font-family="Arial" font-size="9.00" fill="#333333">min(10s * 2^(n&#45;1),</text>
<text xml:space="preserve" text-anchor="middle" x="55.62" y="-42.7" font-family="Arial" font-size="9.00" fill="#333333">max_retry_backoff_ms)</text>
</g>
<!-- retry_queued&#45;&gt;backoff_note -->
<g id="edge14" class="edge">
<title>retry_queued&#45;&gt;backoff_note</title>
<path fill="none" stroke="#9e9e9e" stroke-dasharray="1,5" d="M38.46,-163.03C38.46,-163.03 38.46,-88.11 38.46,-88.11"/>
<polygon fill="#9e9e9e" stroke="#9e9e9e" points="41.96,-88.11 38.46,-78.11 34.96,-88.11 41.96,-88.11"/>
</g>
<!-- released -->
<g id="node5" class="node">
<title>released</title>
<polygon fill="#f44336" stroke="black" points="491.38,-209.75 365.88,-209.75 365.88,-161.25 491.38,-161.25 491.38,-209.75"/>
<text xml:space="preserve" text-anchor="middle" x="428.62" y="-195.3" font-family="Arial" font-size="11.00" fill="white">Released</text>
<text xml:space="preserve" text-anchor="middle" x="428.62" y="-181.8" font-family="Arial" font-size="11.00" fill="white">(Claim removed,</text>
<text xml:space="preserve" text-anchor="middle" x="428.62" y="-168.3" font-family="Arial" font-size="11.00" fill="white">issue terminal or gone)</text>
</g>
<!-- reconcile -->
<g id="node11" class="node">
<title>reconcile</title>
<polygon fill="#f44336" stroke="black" points="464.62,-88.5 381.12,-56.5 464.62,-24.5 548.12,-56.5 464.62,-88.5"/>
<text xml:space="preserve" text-anchor="middle" x="464.62" y="-59" font-family="Arial Bold" font-size="10.00" fill="white">Reconciliation</text>
<text xml:space="preserve" text-anchor="middle" x="464.62" y="-47" font-family="Arial Bold" font-size="10.00" fill="white">check?</text>
</g>
<!-- released&#45;&gt;reconcile -->
<g id="edge11" class="edge">
<title>released&#45;&gt;reconcile</title>
<path fill="none" stroke="#9c27b0" stroke-width="1.5" stroke-dasharray="5,2" d="M436.25,-160.93C436.25,-160.93 436.25,-90.25 436.25,-90.25"/>
<polygon fill="#9c27b0" stroke="#9c27b0" stroke-width="1.5" points="439.75,-90.25 436.25,-80.25 432.75,-90.25 439.75,-90.25"/>
</g>
<!-- poll_finds&#45;&gt;claimed -->
<g id="edge2" class="edge">
<title>poll_finds&#45;&gt;claimed</title>
<path fill="none" stroke="#4caf50" stroke-width="2" d="M474.62,-834.66C474.62,-834.66 474.62,-763.28 474.62,-763.28"/>
<polygon fill="#4caf50" stroke="#4caf50" stroke-width="2" points="478.13,-763.28 474.63,-753.28 471.13,-763.28 478.13,-763.28"/>
<text xml:space="preserve" text-anchor="middle" x="464.5" y="-802.17" font-family="Times New Roman,serif" font-size="14.00">Yes</text>
</g>
<!-- workspace_ok&#45;&gt;running -->
<g id="edge4" class="edge">
<title>workspace_ok&#45;&gt;running</title>
<path fill="none" stroke="#4caf50" stroke-width="2" d="M317.44,-547.25C317.44,-547.25 317.44,-480.42 317.44,-480.42"/>
<polygon fill="#4caf50" stroke="#4caf50" stroke-width="2" points="320.94,-480.42 317.44,-470.42 313.94,-480.42 320.94,-480.42"/>
<text xml:space="preserve" text-anchor="middle" x="307.31" y="-517.03" font-family="Times New Roman,serif" font-size="14.00">Yes</text>
</g>
<!-- work_complete&#45;&gt;released -->
<g id="edge6" class="edge">
<title>work_complete&#45;&gt;released</title>
<path fill="none" stroke="#4caf50" stroke-width="2" d="M428.62,-282.94C428.62,-282.94 428.62,-222.89 428.62,-222.89"/>
<polygon fill="#4caf50" stroke="#4caf50" stroke-width="2" points="432.13,-222.89 428.63,-212.89 425.13,-222.89 432.13,-222.89"/>
<text xml:space="preserve" text-anchor="middle" x="418.5" y="-256.12" font-family="Times New Roman,serif" font-size="14.00">Yes</text>
</g>
<!-- max_turns_note -->
<g id="node12" class="node">
<title>max_turns_note</title>
<polygon fill="#fff9c4" stroke="black" points="606.38,-203.5 534.88,-203.5 534.88,-167.5 612.38,-167.5 612.38,-197.5 606.38,-203.5"/>
<polyline fill="none" stroke="black" points="606.38,-203.5 606.38,-197.5"/>
<polyline fill="none" stroke="black" points="612.38,-197.5 606.38,-197.5"/>
<text xml:space="preserve" text-anchor="middle" x="573.62" y="-187.45" font-family="Arial" font-size="9.00" fill="#333333">max_turns limit</text>
<text xml:space="preserve" text-anchor="middle" x="573.62" y="-176.95" font-family="Arial" font-size="9.00" fill="#333333">(default: 20)</text>
</g>
<!-- work_complete&#45;&gt;max_turns_note -->
<g id="edge13" class="edge">
<title>work_complete&#45;&gt;max_turns_note</title>
<path fill="none" stroke="#9e9e9e" stroke-dasharray="1,5" d="M496.38,-314.5C528,-314.5 559.12,-314.5 559.12,-314.5 559.12,-314.5 559.12,-215.5 559.12,-215.5"/>
<polygon fill="#9e9e9e" stroke="#9e9e9e" points="562.63,-215.5 559.13,-205.5 555.63,-215.5 562.63,-215.5"/>
</g>
<!-- error_check&#45;&gt;retry_queued -->
<g id="edge8" class="edge">
<title>error_check&#45;&gt;retry_queued</title>
<path fill="none" stroke="#f44336" stroke-width="2" d="M140,-307.93C140,-281.64 140,-185.5 140,-185.5 140,-185.5 120.65,-185.5 120.65,-185.5"/>
<polygon fill="#f44336" stroke="#f44336" stroke-width="2" points="120.65,-182 110.65,-185.5 120.65,-189 120.65,-182"/>
<text xml:space="preserve" text-anchor="middle" x="129.88" y="-240.24" font-family="Times New Roman,serif" font-size="14.00">Yes</text>
</g>
<!-- stall_note -->
<g id="node14" class="node">
<title>stall_note</title>
<polygon fill="#fff9c4" stroke="black" points="229.12,-210.5 150.12,-210.5 150.12,-160.5 235.12,-160.5 235.12,-204.5 229.12,-210.5"/>
<polyline fill="none" stroke="black" points="229.12,-210.5 229.12,-204.5"/>
<polyline fill="none" stroke="black" points="235.12,-204.5 229.12,-204.5"/>
<text xml:space="preserve" text-anchor="middle" x="192.62" y="-197.95" font-family="Arial" font-size="9.00" fill="#333333">Stall detection:</text>
<text xml:space="preserve" text-anchor="middle" x="192.62" y="-187.45" font-family="Arial" font-size="9.00" fill="#333333">no activity for</text>
<text xml:space="preserve" text-anchor="middle" x="192.62" y="-176.95" font-family="Arial" font-size="9.00" fill="#333333">stall_timeout_ms</text>
<text xml:space="preserve" text-anchor="middle" x="192.62" y="-166.45" font-family="Arial" font-size="9.00" fill="#333333">(default: 5 min)</text>
</g>
<!-- error_check&#45;&gt;stall_note -->
<g id="edge15" class="edge">
<title>error_check&#45;&gt;stall_note</title>
<path fill="none" stroke="#9e9e9e" stroke-dasharray="1,5" d="M192.62,-288.08C192.62,-288.08 192.62,-222.08 192.62,-222.08"/>
<polygon fill="#9e9e9e" stroke="#9e9e9e" points="196.13,-222.08 192.63,-212.08 189.13,-222.08 196.13,-222.08"/>
</g>
<!-- backoff_expired&#45;&gt;running -->
<g id="edge10" class="edge">
<title>backoff_expired&#45;&gt;running</title>
<path fill="none" stroke="#4caf50" stroke-width="2" d="M300.75,-68.48C300.75,-68.48 300.75,-405.14 300.75,-405.14"/>
<polygon fill="#4caf50" stroke="#4caf50" stroke-width="2" points="297.25,-405.14 300.75,-415.14 304.25,-405.14 297.25,-405.14"/>
<text xml:space="preserve" text-anchor="middle" x="290.62" y="-240.01" font-family="Times New Roman,serif" font-size="14.00">Yes</text>
</g>
<!-- reconcile&#45;&gt;unclaimed -->
<g id="edge12" class="edge">
<title>reconcile&#45;&gt;unclaimed</title>
<path fill="none" stroke="#4caf50" stroke-width="2" d="M549.48,-56.5C585.71,-56.5 619.81,-56.5 619.81,-56.5 619.81,-56.5 619.81,-944.36 619.81,-944.36"/>
<polygon fill="#4caf50" stroke="#4caf50" stroke-width="2" points="616.31,-944.36 619.81,-954.36 623.31,-944.36 616.31,-944.36"/>
<text xml:space="preserve" text-anchor="middle" x="591.69" y="-484.96" font-family="Times New Roman,serif" font-size="14.00">Issue</text>
<text xml:space="preserve" text-anchor="middle" x="591.69" y="-468.46" font-family="Times New Roman,serif" font-size="14.00">still active</text>
</g>
</g>
</svg>
