<?xml version="1.0" encoding="UTF-8" standalone="no"?>
<!DOCTYPE svg PUBLIC "-//W3C//DTD SVG 1.1//EN"
 "http://www.w3.org/Graphics/SVG/1.1/DTD/svg11.dtd">
<!-- Generated by graphviz version 14.1.2 (0)
 -->
<!-- Title: symphony_architecture Pages: 1 -->
<svg width="996pt" height="696pt"
 viewBox="0.00 0.00 996.00 696.00" xmlns="http://www.w3.org/2000/svg" xmlns:xlink="http://www.w3.org/1999/xlink">
<style>
<!-- White text halo for edge label readability -->
text { paint-order: stroke; stroke: #ffffff; stroke-width: 3px; stroke-linejoin: round; fill: #1a1a2e; }
</style>
<g id="graph0" class="graph" transform="scale(1 1) rotate(0) translate(4 692)">
<title>symphony_architecture</title>
<polygon fill="white" stroke="none" points="-4,4 -4,-692 991.5,-692 991.5,4 -4,4"/>
<text xml:space="preserve" text-anchor="middle" x="493.75" y="-7.2" font-family="Times New Roman,serif" font-size="14.00">Symphony &#45; 6&#45;Layer Architecture</text>
<!-- policy -->
<g id="node1" class="node">
<title>policy</title>
<path fill="#2196f3" stroke="black" d="M626.62,-580C626.62,-580 466.62,-580 466.62,-580 460.62,-580 454.62,-574 454.62,-568 454.62,-568 454.62,-541.25 454.62,-541.25 454.62,-535.25 460.62,-529.25 466.62,-529.25 466.62,-529.25 626.62,-529.25 626.62,-529.25 632.62,-529.25 638.62,-535.25 638.62,-541.25 638.62,-541.25 638.62,-568 638.62,-568 638.62,-574 632.62,-580 626.62,-580"/>
<text xml:space="preserve" text-anchor="middle" x="546.62" y="-564.6" font-family="Arial Bold" font-size="12.00" fill="white">Policy Layer</text>
<text xml:space="preserve" text-anchor="middle" x="546.62" y="-550.35" font-family="Arial Bold" font-size="12.00" fill="white">WORKFLOW.md</text>
<text xml:space="preserve" text-anchor="middle" x="546.62" y="-536.1" font-family="Arial Bold" font-size="12.00" fill="white">Team rules, prompt templates</text>
</g>
<!-- config -->
<g id="node4" class="node">
<title>config</title>
<path fill="#2196f3" stroke="black" d="M635.25,-457.25C635.25,-457.25 458,-457.25 458,-457.25 452,-457.25 446,-451.25 446,-445.25 446,-445.25 446,-418.5 446,-418.5 446,-412.5 452,-406.5 458,-406.5 458,-406.5 635.25,-406.5 635.25,-406.5 641.25,-406.5 647.25,-412.5 647.25,-418.5 647.25,-418.5 647.25,-445.25 647.25,-445.25 647.25,-451.25 641.25,-457.25 635.25,-457.25"/>
<text xml:space="preserve" text-anchor="middle" x="546.62" y="-441.85" font-family="Arial Bold" font-size="12.00" fill="white">Configuration Layer</text>
<text xml:space="preserve" text-anchor="middle" x="546.62" y="-427.6" font-family="Arial Bold" font-size="12.00" fill="white">Typed getters, YAML front matter</text>
<text xml:space="preserve" text-anchor="middle" x="546.62" y="-413.35" font-family="Arial Bold" font-size="12.00" fill="white">Env var resolution, defaults</text>
</g>
<!-- policy&#45;&gt;config -->
<g id="edge3" class="edge">
<title>policy&#45;&gt;config</title>
<path fill="none" stroke="#2196f3" stroke-width="2" d="M546.62,-528.89C546.62,-528.89 546.62,-470.6 546.62,-470.6"/>
<polygon fill="#2196f3" stroke="#2196f3" stroke-width="2" points="550.13,-470.6 546.63,-460.6 543.13,-470.6 550.13,-470.6"/>
</g>
<!-- workspace -->
<g id="node2" class="node">
<title>workspace</title>
<path fill="#2196f3" stroke="black" d="M407.12,-190.38C407.12,-190.38 262.12,-190.38 262.12,-190.38 256.12,-190.38 250.12,-184.38 250.12,-178.38 250.12,-178.38 250.12,-151.62 250.12,-151.62 250.12,-145.62 256.12,-139.62 262.12,-139.62 262.12,-139.62 407.12,-139.62 407.12,-139.62 413.12,-139.62 419.12,-145.62 419.12,-151.62 419.12,-151.62 419.12,-178.38 419.12,-178.38 419.12,-184.38 413.12,-190.38 407.12,-190.38"/>
<text xml:space="preserve" text-anchor="middle" x="334.62" y="-174.97" font-family="Arial Bold" font-size="12.00" fill="white">Execution Layer</text>
<text xml:space="preserve" text-anchor="middle" x="334.62" y="-160.72" font-family="Arial Bold" font-size="12.00" fill="white">Workspace Manager</text>
<text xml:space="preserve" text-anchor="middle" x="334.62" y="-146.47" font-family="Arial Bold" font-size="12.00" fill="white">Filesystem lifecycle, hooks</text>
</g>
<!-- agent_runner -->
<g id="node5" class="node">
<title>agent_runner</title>
<path fill="#2196f3" stroke="black" d="M619.12,-197.5C619.12,-197.5 474.12,-197.5 474.12,-197.5 468.12,-197.5 462.12,-191.5 462.12,-185.5 462.12,-185.5 462.12,-144.5 462.12,-144.5 462.12,-138.5 468.12,-132.5 474.12,-132.5 474.12,-132.5 619.12,-132.5 619.12,-132.5 625.12,-132.5 631.12,-138.5 631.12,-144.5 631.12,-144.5 631.12,-185.5 631.12,-185.5 631.12,-191.5 625.12,-197.5 619.12,-197.5"/>
<text xml:space="preserve" text-anchor="middle" x="546.62" y="-182.1" font-family="Arial Bold" font-size="12.00" fill="white">Execution Layer</text>
<text xml:space="preserve" text-anchor="middle" x="546.62" y="-167.85" font-family="Arial Bold" font-size="12.00" fill="white">Agent Runner</text>
<text xml:space="preserve" text-anchor="middle" x="546.62" y="-153.6" font-family="Arial Bold" font-size="12.00" fill="white">Codex app&#45;server protocol</text>
<text xml:space="preserve" text-anchor="middle" x="546.62" y="-139.35" font-family="Arial Bold" font-size="12.00" fill="white">Multi&#45;turn sessions</text>
</g>
<!-- workspace&#45;&gt;agent_runner -->
<g id="edge8" class="edge">
<title>workspace&#45;&gt;agent_runner</title>
<path fill="none" stroke="#ff9800" stroke-width="1.5" stroke-dasharray="5,2" d="M419.33,-156.5C419.33,-156.5 449.44,-156.5 449.44,-156.5"/>
<polygon fill="#ff9800" stroke="#ff9800" stroke-width="1.5" points="449.44,-160 459.44,-156.5 449.44,-153 449.44,-160"/>
</g>
<!-- dashboard -->
<g id="node3" class="node">
<title>dashboard</title>
<path fill="#ff9800" stroke="black" d="M811,-189.25C811,-189.25 686.25,-189.25 686.25,-189.25 680.25,-189.25 674.25,-183.25 674.25,-177.25 674.25,-177.25 674.25,-152.75 674.25,-152.75 674.25,-146.75 680.25,-140.75 686.25,-140.75 686.25,-140.75 811,-140.75 811,-140.75 817,-140.75 823,-146.75 823,-152.75 823,-152.75 823,-177.25 823,-177.25 823,-183.25 817,-189.25 811,-189.25"/>
<text xml:space="preserve" text-anchor="middle" x="748.62" y="-174.8" font-family="Arial" font-size="11.00" fill="white">Observability Layer</text>
<text xml:space="preserve" text-anchor="middle" x="748.62" y="-161.3" font-family="Arial" font-size="11.00" fill="white">Status Dashboard</text>
<text xml:space="preserve" text-anchor="middle" x="748.62" y="-147.8" font-family="Arial" font-size="11.00" fill="white">Phoenix LiveView, real&#45;time</text>
</g>
<!-- orchestrator -->
<g id="node7" class="node">
<title>orchestrator</title>
<path fill="#2196f3" stroke="black" d="M629.62,-334.5C629.62,-334.5 463.62,-334.5 463.62,-334.5 457.62,-334.5 451.62,-328.5 451.62,-322.5 451.62,-322.5 451.62,-281.5 451.62,-281.5 451.62,-275.5 457.62,-269.5 463.62,-269.5 463.62,-269.5 629.62,-269.5 629.62,-269.5 635.62,-269.5 641.62,-275.5 641.62,-281.5 641.62,-281.5 641.62,-322.5 641.62,-322.5 641.62,-328.5 635.62,-334.5 629.62,-334.5"/>
<text xml:space="preserve" text-anchor="middle" x="546.62" y="-319.1" font-family="Arial Bold" font-size="12.00" fill="white">Coordination Layer</text>
<text xml:space="preserve" text-anchor="middle" x="546.62" y="-304.85" font-family="Arial Bold" font-size="12.00" fill="white">Orchestrator (GenServer)</text>
<text xml:space="preserve" text-anchor="middle" x="546.62" y="-290.6" font-family="Arial Bold" font-size="12.00" fill="white">Polling, eligibility, concurrency</text>
<text xml:space="preserve" text-anchor="middle" x="546.62" y="-276.35" font-family="Arial Bold" font-size="12.00" fill="white">Retries, reconciliation</text>
</g>
<!-- config&#45;&gt;orchestrator -->
<g id="edge4" class="edge">
<title>config&#45;&gt;orchestrator</title>
<path fill="none" stroke="#2196f3" stroke-width="2" d="M546.62,-406.22C546.62,-406.22 546.62,-347.56 546.62,-347.56"/>
<polygon fill="#2196f3" stroke="#2196f3" stroke-width="2" points="550.13,-347.56 546.63,-337.56 543.13,-347.56 550.13,-347.56"/>
</g>
<!-- codex -->
<g id="node11" class="node">
<title>codex</title>
<path fill="#9c27b0" stroke="black" d="M586.88,-60.5C586.88,-60.5 506.38,-60.5 506.38,-60.5 500.38,-60.5 494.38,-54.5 494.38,-48.5 494.38,-48.5 494.38,-36.5 494.38,-36.5 494.38,-30.5 500.38,-24.5 506.38,-24.5 506.38,-24.5 586.88,-24.5 586.88,-24.5 592.88,-24.5 598.88,-30.5 598.88,-36.5 598.88,-36.5 598.88,-48.5 598.88,-48.5 598.88,-54.5 592.88,-60.5 586.88,-60.5"/>
<text xml:space="preserve" text-anchor="middle" x="546.62" y="-45.55" font-family="Arial" font-size="11.00" fill="white">Codex App Server</text>
<text xml:space="preserve" text-anchor="middle" x="546.62" y="-32.05" font-family="Arial" font-size="11.00" fill="white">(Coding Agent)</text>
</g>
<!-- agent_runner&#45;&gt;codex -->
<g id="edge9" class="edge">
<title>agent_runner&#45;&gt;codex</title>
<path fill="none" stroke="#9c27b0" stroke-width="2" d="M546.62,-132.17C546.62,-132.17 546.62,-73.98 546.62,-73.98"/>
<polygon fill="#9c27b0" stroke="#9c27b0" stroke-width="2" points="550.13,-73.98 546.63,-63.98 543.13,-73.98 550.13,-73.98"/>
</g>
<!-- api -->
<g id="node6" class="node">
<title>api</title>
<path fill="#ff9800" stroke="black" d="M975.5,-189.25C975.5,-189.25 877.75,-189.25 877.75,-189.25 871.75,-189.25 865.75,-183.25 865.75,-177.25 865.75,-177.25 865.75,-152.75 865.75,-152.75 865.75,-146.75 871.75,-140.75 877.75,-140.75 877.75,-140.75 975.5,-140.75 975.5,-140.75 981.5,-140.75 987.5,-146.75 987.5,-152.75 987.5,-152.75 987.5,-177.25 987.5,-177.25 987.5,-183.25 981.5,-189.25 975.5,-189.25"/>
<text xml:space="preserve" text-anchor="middle" x="926.62" y="-174.8" font-family="Arial" font-size="11.00" fill="white">Observability Layer</text>
<text xml:space="preserve" text-anchor="middle" x="926.62" y="-161.3" font-family="Arial" font-size="11.00" fill="white">HTTP API</text>
<text xml:space="preserve" text-anchor="middle" x="926.62" y="-147.8" font-family="Arial" font-size="11.00" fill="white">JSON REST, /api/v1/*</text>
</g>
<!-- orchestrator&#45;&gt;workspace -->
<g id="edge5" class="edge">
<title>orchestrator&#45;&gt;workspace</title>
<path fill="none" stroke="#2196f3" stroke-width="2" d="M458.62,-269.24C458.62,-231.17 458.62,-173.5 458.62,-173.5 458.62,-173.5 432.42,-173.5 432.42,-173.5"/>
<polygon fill="#2196f3" stroke="#2196f3" stroke-width="2" points="432.42,-170 422.42,-173.5 432.42,-177 432.42,-170"/>
</g>
<!-- orchestrator&#45;&gt;dashboard -->
<g id="edge10" class="edge">
<title>orchestrator&#45;&gt;dashboard</title>
<path fill="none" stroke="#ff9800" stroke-width="1.5" stroke-dasharray="5,2" d="M636.38,-269.3C636.38,-228.92 636.38,-165.5 636.38,-165.5 636.38,-165.5 661.48,-165.5 661.48,-165.5"/>
<polygon fill="#ff9800" stroke="#ff9800" stroke-width="1.5" points="661.48,-169 671.48,-165.5 661.48,-162 661.48,-169"/>
</g>
<!-- orchestrator&#45;&gt;agent_runner -->
<g id="edge6" class="edge">
<title>orchestrator&#45;&gt;agent_runner</title>
<path fill="none" stroke="#2196f3" stroke-width="2" d="M546.62,-269.19C546.62,-269.19 546.62,-210.57 546.62,-210.57"/>
<polygon fill="#2196f3" stroke="#2196f3" stroke-width="2" points="550.13,-210.57 546.63,-200.57 543.13,-210.57 550.13,-210.57"/>
</g>
<!-- orchestrator&#45;&gt;api -->
<g id="edge11" class="edge">
<title>orchestrator&#45;&gt;api</title>
<path fill="none" stroke="#ff9800" stroke-width="1.5" stroke-dasharray="5,2" d="M642.02,-302.5C754.59,-302.5 926.62,-302.5 926.62,-302.5 926.62,-302.5 926.62,-201.85 926.62,-201.85"/>
<polygon fill="#ff9800" stroke="#ff9800" stroke-width="1.5" points="930.13,-201.85 926.63,-191.85 923.13,-201.85 930.13,-201.85"/>
</g>
<!-- linear -->
<g id="node8" class="node">
<title>linear</title>
<path fill="#2196f3" stroke="black" d="M195.25,-197.5C195.25,-197.5 12,-197.5 12,-197.5 6,-197.5 0,-191.5 0,-185.5 0,-185.5 0,-144.5 0,-144.5 0,-138.5 6,-132.5 12,-132.5 12,-132.5 195.25,-132.5 195.25,-132.5 201.25,-132.5 207.25,-138.5 207.25,-144.5 207.25,-144.5 207.25,-185.5 207.25,-185.5 207.25,-191.5 201.25,-197.5 195.25,-197.5"/>
<text xml:space="preserve" text-anchor="middle" x="103.62" y="-182.1" font-family="Arial Bold" font-size="12.00" fill="white">Integration Layer</text>
<text xml:space="preserve" text-anchor="middle" x="103.62" y="-167.85" font-family="Arial Bold" font-size="12.00" fill="white">Linear Adapter</text>
<text xml:space="preserve" text-anchor="middle" x="103.62" y="-153.6" font-family="Arial Bold" font-size="12.00" fill="white">GraphQL API, issue normalization</text>
<text xml:space="preserve" text-anchor="middle" x="103.62" y="-139.35" font-family="Arial Bold" font-size="12.00" fill="white">Candidate fetching</text>
</g>
<!-- orchestrator&#45;&gt;linear -->
<g id="edge7" class="edge">
<title>orchestrator&#45;&gt;linear</title>
<path fill="none" stroke="#2196f3" stroke-width="2" stroke-dasharray="5,2" d="M455.12,-269.15C455.12,-237.22 455.12,-193.5 455.12,-193.5 455.12,-193.5 220.69,-193.5 220.69,-193.5"/>
<polygon fill="#2196f3" stroke="#2196f3" stroke-width="2" points="220.69,-190 210.69,-193.5 220.69,-197 220.69,-190"/>
</g>
<!-- workflow_file -->
<g id="node9" class="node">
<title>workflow_file</title>
<polygon fill="#4caf50" stroke="black" points="605.25,-688 488,-688 488,-652 605.25,-652 605.25,-688"/>
<text xml:space="preserve" text-anchor="middle" x="546.62" y="-673.05" font-family="Arial" font-size="11.00" fill="white">WORKFLOW.md</text>
<text xml:space="preserve" text-anchor="middle" x="546.62" y="-659.55" font-family="Arial" font-size="11.00" fill="white">(Repo&#45;owned config)</text>
</g>
<!-- workflow_file&#45;&gt;policy -->
<g id="edge1" class="edge">
<title>workflow_file&#45;&gt;policy</title>
<path fill="none" stroke="#4caf50" stroke-width="2" d="M546.62,-651.72C546.62,-651.72 546.62,-593.14 546.62,-593.14"/>
<polygon fill="#4caf50" stroke="#4caf50" stroke-width="2" points="550.13,-593.14 546.63,-583.14 543.13,-593.14 550.13,-593.14"/>
</g>
<!-- linear_api -->
<g id="node10" class="node">
<title>linear_api</title>
<polygon fill="#4caf50" stroke="black" points="137.5,-320 69.75,-320 69.75,-284 137.5,-284 137.5,-320"/>
<text xml:space="preserve" text-anchor="middle" x="103.62" y="-305.05" font-family="Arial" font-size="11.00" fill="white">Linear API</text>
<text xml:space="preserve" text-anchor="middle" x="103.62" y="-291.55" font-family="Arial" font-size="11.00" fill="white">(GraphQL)</text>
</g>
<!-- linear_api&#45;&gt;linear -->
<g id="edge2" class="edge">
<title>linear_api&#45;&gt;linear</title>
<path fill="none" stroke="#4caf50" stroke-width="2" d="M103.62,-283.52C103.62,-283.52 103.62,-210.89 103.62,-210.89"/>
<polygon fill="#4caf50" stroke="#4caf50" stroke-width="2" points="107.13,-210.89 103.63,-200.89 100.13,-210.89 107.13,-210.89"/>
</g>
</g>
</svg>
