<?xml version="1.0" encoding="UTF-8" standalone="no"?>
<!DOCTYPE svg PUBLIC "-//W3C//DTD SVG 1.1//EN"
 "http://www.w3.org/Graphics/SVG/1.1/DTD/svg11.dtd">
<!-- Generated by graphviz version 14.1.2 (0)
 -->
<!-- Title: thclaws_enterprise_features Pages: 1 -->
<svg width="1054pt" height="563pt"
 viewBox="0.00 0.00 1054.00 563.00" xmlns="http://www.w3.org/2000/svg" xmlns:xlink="http://www.w3.org/1999/xlink">
<style>
<!-- White text halo for edge label readability -->
text { paint-order: stroke; stroke: #ffffff; stroke-width: 3px; stroke-linejoin: round; fill: #1a1a2e; }
</style>
<g id="graph0" class="graph" transform="scale(1 1) rotate(0) translate(4 559)">
<title>thclaws_enterprise_features</title>
<!-- title -->
<g id="node1" class="node">
<title>title</title>
<text xml:space="preserve" text-anchor="middle" x="447.25" y="-531.15" font-family="Inter Bold" font-size="18.00" fill="#1a1a2e">thClaws Enterprise and Advanced Features</text>
</g>
<!-- binary -->
<g id="node2" class="node">
<title>binary</title>
<path fill="#10b981" stroke="black" stroke-width="0" d="M474.38,-469C474.38,-469 420.12,-469 420.12,-469 414.12,-469 408.12,-463 408.12,-457 408.12,-457 408.12,-444.5 408.12,-444.5 408.12,-438.5 414.12,-432.5 420.12,-432.5 420.12,-432.5 474.38,-432.5 474.38,-432.5 480.38,-432.5 486.38,-438.5 486.38,-444.5 486.38,-444.5 486.38,-457 486.38,-457 486.38,-463 480.38,-469 474.38,-469"/>
<text xml:space="preserve" text-anchor="middle" x="447.25" y="-454.55" font-family="Inter" font-size="11.00" fill="white">Single Binary</text>
<text xml:space="preserve" text-anchor="middle" x="447.25" y="-440.3" font-family="Inter" font-size="11.00" fill="white">(Open&#45;Core)</text>
</g>
<!-- title&#45;&gt;binary -->
<!-- policy_file -->
<g id="node3" class="node">
<title>policy_file</title>
<path fill="#ef4444" stroke="black" stroke-width="0" d="M200.62,-382.5C200.62,-382.5 99.88,-382.5 99.88,-382.5 93.88,-382.5 87.88,-376.5 87.88,-370.5 87.88,-370.5 87.88,-358 87.88,-358 87.88,-352 93.88,-346 99.88,-346 99.88,-346 200.62,-346 200.62,-346 206.62,-346 212.62,-352 212.62,-358 212.62,-358 212.62,-370.5 212.62,-370.5 212.62,-376.5 206.62,-382.5 200.62,-382.5"/>
<text xml:space="preserve" text-anchor="middle" x="150.25" y="-368.05" font-family="Inter" font-size="11.00" fill="white">Ed25519 Policy File</text>
<text xml:space="preserve" text-anchor="middle" x="150.25" y="-353.8" font-family="Inter" font-size="11.00" fill="white">(Enterprise Activation)</text>
</g>
<!-- binary&#45;&gt;policy_file -->
<g id="edge2" class="edge">
<title>binary&#45;&gt;policy_file</title>
<path fill="none" stroke="#ef4444" stroke-width="2" d="M408.42,-457C327.92,-457 150.25,-457 150.25,-457 150.25,-457 150.25,-395.16 150.25,-395.16"/>
<polygon fill="#ef4444" stroke="#ef4444" stroke-width="2" points="153.75,-395.16 150.25,-385.16 146.75,-395.16 153.75,-395.16"/>
<text xml:space="preserve" text-anchor="middle" x="224.79" y="-460.2" font-family="Times New Roman,serif" font-size="14.00">activates</text>
</g>
<!-- serve_mode -->
<g id="node8" class="node">
<title>serve_mode</title>
<path fill="#2563eb" stroke="black" stroke-width="0" d="M352.88,-382.5C352.88,-382.5 271.62,-382.5 271.62,-382.5 265.62,-382.5 259.62,-376.5 259.62,-370.5 259.62,-370.5 259.62,-358 259.62,-358 259.62,-352 265.62,-346 271.62,-346 271.62,-346 352.88,-346 352.88,-346 358.88,-346 364.88,-352 364.88,-358 364.88,-358 364.88,-370.5 364.88,-370.5 364.88,-376.5 358.88,-382.5 352.88,-382.5"/>
<text xml:space="preserve" text-anchor="middle" x="312.25" y="-368.05" font-family="Inter" font-size="11.00" fill="white">&#45;&#45;serve Mode</text>
<text xml:space="preserve" text-anchor="middle" x="312.25" y="-353.8" font-family="Inter" font-size="11.00" fill="white">(Axum HTTP+WS)</text>
</g>
<!-- binary&#45;&gt;serve_mode -->
<g id="edge7" class="edge">
<title>binary&#45;&gt;serve_mode</title>
<path fill="none" stroke="#2563eb" stroke-width="2" d="M408.2,-445C368.33,-445 312.25,-445 312.25,-445 312.25,-445 312.25,-395.2 312.25,-395.2"/>
<polygon fill="#2563eb" stroke="#2563eb" stroke-width="2" points="315.75,-395.2 312.25,-385.2 308.75,-395.2 315.75,-395.2"/>
</g>
<!-- plan_enter -->
<g id="node12" class="node">
<title>plan_enter</title>
<path fill="#ec4899" stroke="black" stroke-width="0" d="M488.62,-382.25C488.62,-382.25 405.88,-382.25 405.88,-382.25 399.88,-382.25 393.88,-376.25 393.88,-370.25 393.88,-370.25 393.88,-358.25 393.88,-358.25 393.88,-352.25 399.88,-346.25 405.88,-346.25 405.88,-346.25 488.62,-346.25 488.62,-346.25 494.62,-346.25 500.62,-352.25 500.62,-358.25 500.62,-358.25 500.62,-370.25 500.62,-370.25 500.62,-376.25 494.62,-382.25 488.62,-382.25"/>
<text xml:space="preserve" text-anchor="middle" x="447.25" y="-367.5" font-family="Inter" font-size="10.00" fill="white">EnterPlanMode</text>
<text xml:space="preserve" text-anchor="middle" x="447.25" y="-354.75" font-family="Inter" font-size="10.00" fill="white">(Structured Planning)</text>
</g>
<!-- binary&#45;&gt;plan_enter -->
<g id="edge11" class="edge">
<title>binary&#45;&gt;plan_enter</title>
<path fill="none" stroke="#ec4899" stroke-width="1.5" d="M447.25,-432.83C447.25,-432.83 447.25,-394.42 447.25,-394.42"/>
<polygon fill="#ec4899" stroke="#ec4899" stroke-width="1.5" points="450.75,-394.42 447.25,-384.42 443.75,-394.42 450.75,-394.42"/>
<text xml:space="preserve" text-anchor="middle" x="418.38" y="-416.82" font-family="Times New Roman,serif" font-size="14.00">plan mode</text>
</g>
<!-- sub_l1 -->
<g id="node15" class="node">
<title>sub_l1</title>
<path fill="#f97316" stroke="black" stroke-width="0" d="M617.88,-382.5C617.88,-382.5 542.62,-382.5 542.62,-382.5 536.62,-382.5 530.62,-376.5 530.62,-370.5 530.62,-370.5 530.62,-358 530.62,-358 530.62,-352 536.62,-346 542.62,-346 542.62,-346 617.88,-346 617.88,-346 623.88,-346 629.88,-352 629.88,-358 629.88,-358 629.88,-370.5 629.88,-370.5 629.88,-376.5 623.88,-382.5 617.88,-382.5"/>
<text xml:space="preserve" text-anchor="middle" x="580.25" y="-368.05" font-family="Inter" font-size="11.00" fill="white">Level 1</text>
<text xml:space="preserve" text-anchor="middle" x="580.25" y="-353.8" font-family="Inter" font-size="11.00" fill="white">(Lead delegates)</text>
</g>
<!-- binary&#45;&gt;sub_l1 -->
<g id="edge14" class="edge">
<title>binary&#45;&gt;sub_l1</title>
<path fill="none" stroke="#f97316" stroke-width="1.5" d="M486.08,-445C525.33,-445 580.25,-445 580.25,-445 580.25,-445 580.25,-394.44 580.25,-394.44"/>
<polygon fill="#f97316" stroke="#f97316" stroke-width="1.5" points="583.75,-394.44 580.25,-384.44 576.75,-394.44 583.75,-394.44"/>
<text xml:space="preserve" text-anchor="middle" x="530.32" y="-448.2" font-family="Times New Roman,serif" font-size="14.00">delegation</text>
</g>
<!-- thai_label -->
<g id="node18" class="node">
<title>thai_label</title>
<text xml:space="preserve" text-anchor="middle" x="812.25" y="-360.15" font-family="Inter Bold" font-size="13.00" fill="#d946ef">Thai LLM Ecosystem</text>
</g>
<!-- binary&#45;&gt;thai_label -->
<g id="edge17" class="edge">
<title>binary&#45;&gt;thai_label</title>
<path fill="none" stroke="#d946ef" stroke-width="1.5" d="M486.31,-457C580.47,-457 812.25,-457 812.25,-457 812.25,-457 812.25,-394.4 812.25,-394.4"/>
<polygon fill="#d946ef" stroke="#d946ef" stroke-width="1.5" points="815.75,-394.4 812.25,-384.4 808.75,-394.4 815.75,-394.4"/>
<text xml:space="preserve" text-anchor="middle" x="646.08" y="-460.2" font-family="Times New Roman,serif" font-size="14.00">Thai support</text>
</g>
<!-- phase1 -->
<g id="node4" class="node">
<title>phase1</title>
<path fill="#ef4444" stroke="black" stroke-width="0" d="M162.25,-296C162.25,-296 68.25,-296 68.25,-296 62.25,-296 56.25,-290 56.25,-284 56.25,-284 56.25,-271.5 56.25,-271.5 56.25,-265.5 62.25,-259.5 68.25,-259.5 68.25,-259.5 162.25,-259.5 162.25,-259.5 168.25,-259.5 174.25,-265.5 174.25,-271.5 174.25,-271.5 174.25,-284 174.25,-284 174.25,-290 168.25,-296 162.25,-296"/>
<text xml:space="preserve" text-anchor="middle" x="115.25" y="-281.55" font-family="Inter" font-size="11.00" fill="white">Phase 1: Branding</text>
<text xml:space="preserve" text-anchor="middle" x="115.25" y="-267.3" font-family="Inter" font-size="11.00" fill="white">(custom logo, name)</text>
</g>
<!-- policy_file&#45;&gt;phase1 -->
<g id="edge3" class="edge">
<title>policy_file&#45;&gt;phase1</title>
<path fill="none" stroke="#ef4444" stroke-width="1.5" d="M131.06,-346.33C131.06,-346.33 131.06,-308.22 131.06,-308.22"/>
<polygon fill="#ef4444" stroke="#ef4444" stroke-width="1.5" points="134.56,-308.22 131.06,-298.22 127.56,-308.22 134.56,-308.22"/>
</g>
<!-- phase2 -->
<g id="node5" class="node">
<title>phase2</title>
<path fill="#ef4444" stroke="black" stroke-width="0" d="M143.5,-209.5C143.5,-209.5 27,-209.5 27,-209.5 21,-209.5 15,-203.5 15,-197.5 15,-197.5 15,-185 15,-185 15,-179 21,-173 27,-173 27,-173 143.5,-173 143.5,-173 149.5,-173 155.5,-179 155.5,-185 155.5,-185 155.5,-197.5 155.5,-197.5 155.5,-203.5 149.5,-209.5 143.5,-209.5"/>
<text xml:space="preserve" text-anchor="middle" x="85.25" y="-195.05" font-family="Inter" font-size="11.00" fill="white">Phase 2: Plugin Allow&#45;List</text>
<text xml:space="preserve" text-anchor="middle" x="85.25" y="-180.8" font-family="Inter" font-size="11.00" fill="white">(restrict MCP tools)</text>
</g>
<!-- phase1&#45;&gt;phase2 -->
<g id="edge4" class="edge">
<title>phase1&#45;&gt;phase2</title>
<path fill="none" stroke="#ef4444" stroke-width="1.5" d="M105.88,-259.83C105.88,-259.83 105.88,-221.72 105.88,-221.72"/>
<polygon fill="#ef4444" stroke="#ef4444" stroke-width="1.5" points="109.38,-221.72 105.88,-211.72 102.38,-221.72 109.38,-221.72"/>
</g>
<!-- phase3 -->
<g id="node6" class="node">
<title>phase3</title>
<path fill="#ef4444" stroke="black" stroke-width="0" d="M158.5,-123C158.5,-123 12,-123 12,-123 6,-123 0,-117 0,-111 0,-111 0,-98.5 0,-98.5 0,-92.5 6,-86.5 12,-86.5 12,-86.5 158.5,-86.5 158.5,-86.5 164.5,-86.5 170.5,-92.5 170.5,-98.5 170.5,-98.5 170.5,-111 170.5,-111 170.5,-117 164.5,-123 158.5,-123"/>
<text xml:space="preserve" text-anchor="middle" x="85.25" y="-108.55" font-family="Inter" font-size="11.00" fill="white">Phase 3: Gateway Enforcement</text>
<text xml:space="preserve" text-anchor="middle" x="85.25" y="-94.3" font-family="Inter" font-size="11.00" fill="white">(policy at gateway)</text>
</g>
<!-- phase2&#45;&gt;phase3 -->
<g id="edge5" class="edge">
<title>phase2&#45;&gt;phase3</title>
<path fill="none" stroke="#ef4444" stroke-width="1.5" d="M85.25,-173.33C85.25,-173.33 85.25,-135.22 85.25,-135.22"/>
<polygon fill="#ef4444" stroke="#ef4444" stroke-width="1.5" points="88.75,-135.22 85.25,-125.22 81.75,-135.22 88.75,-135.22"/>
</g>
<!-- phase4 -->
<g id="node7" class="node">
<title>phase4</title>
<path fill="#ef4444" stroke="black" stroke-width="0" d="M128.88,-36.5C128.88,-36.5 41.62,-36.5 41.62,-36.5 35.62,-36.5 29.62,-30.5 29.62,-24.5 29.62,-24.5 29.62,-12 29.62,-12 29.62,-6 35.62,0 41.62,0 41.62,0 128.88,0 128.88,0 134.88,0 140.88,-6 140.88,-12 140.88,-12 140.88,-24.5 140.88,-24.5 140.88,-30.5 134.88,-36.5 128.88,-36.5"/>
<text xml:space="preserve" text-anchor="middle" x="85.25" y="-22.05" font-family="Inter" font-size="11.00" fill="white">Phase 4: OIDC SSO</text>
<text xml:space="preserve" text-anchor="middle" x="85.25" y="-7.8" font-family="Inter" font-size="11.00" fill="white">(enterprise auth)</text>
</g>
<!-- phase3&#45;&gt;phase4 -->
<g id="edge6" class="edge">
<title>phase3&#45;&gt;phase4</title>
<path fill="none" stroke="#ef4444" stroke-width="1.5" d="M85.25,-86.83C85.25,-86.83 85.25,-48.72 85.25,-48.72"/>
<polygon fill="#ef4444" stroke="#ef4444" stroke-width="1.5" points="88.75,-48.72 85.25,-38.72 81.75,-48.72 88.75,-48.72"/>
</g>
<!-- localhost -->
<g id="node9" class="node">
<title>localhost</title>
<path fill="#10b981" stroke="black" stroke-width="0" d="M343.5,-296C343.5,-296 281,-296 281,-296 275,-296 269,-290 269,-284 269,-284 269,-271.5 269,-271.5 269,-265.5 275,-259.5 281,-259.5 281,-259.5 343.5,-259.5 343.5,-259.5 349.5,-259.5 355.5,-265.5 355.5,-271.5 355.5,-271.5 355.5,-284 355.5,-284 355.5,-290 349.5,-296 343.5,-296"/>
<text xml:space="preserve" text-anchor="middle" x="312.25" y="-281.55" font-family="Inter" font-size="11.00" fill="white">localhost:8443</text>
<text xml:space="preserve" text-anchor="middle" x="312.25" y="-267.3" font-family="Inter" font-size="11.00" fill="white">(Single&#45;User)</text>
</g>
<!-- serve_mode&#45;&gt;localhost -->
<g id="edge8" class="edge">
<title>serve_mode&#45;&gt;localhost</title>
<path fill="none" stroke="#2563eb" stroke-width="1.5" d="M312.25,-346.33C312.25,-346.33 312.25,-308.22 312.25,-308.22"/>
<polygon fill="#2563eb" stroke="#2563eb" stroke-width="1.5" points="315.75,-308.22 312.25,-298.22 308.75,-308.22 315.75,-308.22"/>
</g>
<!-- http_api -->
<g id="node10" class="node">
<title>http_api</title>
<path fill="#14b8a6" stroke="black" stroke-width="0" d="M254.25,-209.25C254.25,-209.25 196.25,-209.25 196.25,-209.25 190.25,-209.25 184.25,-203.25 184.25,-197.25 184.25,-197.25 184.25,-185.25 184.25,-185.25 184.25,-179.25 190.25,-173.25 196.25,-173.25 196.25,-173.25 254.25,-173.25 254.25,-173.25 260.25,-173.25 266.25,-179.25 266.25,-185.25 266.25,-185.25 266.25,-197.25 266.25,-197.25 266.25,-203.25 260.25,-209.25 254.25,-209.25"/>
<text xml:space="preserve" text-anchor="middle" x="225.25" y="-194.5" font-family="Inter" font-size="10.00" fill="white">HTTP REST API</text>
<text xml:space="preserve" text-anchor="middle" x="225.25" y="-181.75" font-family="Inter" font-size="10.00" fill="white">(Endpoints)</text>
</g>
<!-- localhost&#45;&gt;http_api -->
<g id="edge9" class="edge">
<title>localhost&#45;&gt;http_api</title>
<path fill="none" stroke="#14b8a6" stroke-width="1.5" d="M269.14,-278C260.59,-278 254.19,-278 254.19,-278 254.19,-278 254.19,-221.49 254.19,-221.49"/>
<polygon fill="#14b8a6" stroke="#14b8a6" stroke-width="1.5" points="257.69,-221.49 254.19,-211.49 250.69,-221.5 257.69,-221.49"/>
</g>
<!-- ws_stream -->
<g id="node11" class="node">
<title>ws_stream</title>
<path fill="#14b8a6" stroke="black" stroke-width="0" d="M381.12,-209.25C381.12,-209.25 307.38,-209.25 307.38,-209.25 301.38,-209.25 295.38,-203.25 295.38,-197.25 295.38,-197.25 295.38,-185.25 295.38,-185.25 295.38,-179.25 301.38,-173.25 307.38,-173.25 307.38,-173.25 381.12,-173.25 381.12,-173.25 387.12,-173.25 393.12,-179.25 393.12,-185.25 393.12,-185.25 393.12,-197.25 393.12,-197.25 393.12,-203.25 387.12,-209.25 381.12,-209.25"/>
<text xml:space="preserve" text-anchor="middle" x="344.25" y="-194.5" font-family="Inter" font-size="10.00" fill="white">WebSocket Stream</text>
<text xml:space="preserve" text-anchor="middle" x="344.25" y="-181.75" font-family="Inter" font-size="10.00" fill="white">(Real&#45;time)</text>
</g>
<!-- localhost&#45;&gt;ws_stream -->
<g id="edge10" class="edge">
<title>localhost&#45;&gt;ws_stream</title>
<path fill="none" stroke="#14b8a6" stroke-width="1.5" d="M325.44,-259.83C325.44,-259.83 325.44,-221.42 325.44,-221.42"/>
<polygon fill="#14b8a6" stroke="#14b8a6" stroke-width="1.5" points="328.94,-221.42 325.44,-211.42 321.94,-221.42 328.94,-221.42"/>
</g>
<!-- plan_submit -->
<g id="node13" class="node">
<title>plan_submit</title>
<path fill="#ec4899" stroke="black" stroke-width="0" d="M476.38,-295.75C476.38,-295.75 416.12,-295.75 416.12,-295.75 410.12,-295.75 404.12,-289.75 404.12,-283.75 404.12,-283.75 404.12,-271.75 404.12,-271.75 404.12,-265.75 410.12,-259.75 416.12,-259.75 416.12,-259.75 476.38,-259.75 476.38,-259.75 482.38,-259.75 488.38,-265.75 488.38,-271.75 488.38,-271.75 488.38,-283.75 488.38,-283.75 488.38,-289.75 482.38,-295.75 476.38,-295.75"/>
<text xml:space="preserve" text-anchor="middle" x="446.25" y="-281" font-family="Inter" font-size="10.00" fill="white">SubmitPlan</text>
<text xml:space="preserve" text-anchor="middle" x="446.25" y="-268.25" font-family="Inter" font-size="10.00" fill="white">(Propose Steps)</text>
</g>
<!-- plan_enter&#45;&gt;plan_submit -->
<g id="edge12" class="edge">
<title>plan_enter&#45;&gt;plan_submit</title>
<path fill="none" stroke="#ec4899" stroke-width="1.5" d="M446.25,-346.33C446.25,-346.33 446.25,-307.92 446.25,-307.92"/>
<polygon fill="#ec4899" stroke="#ec4899" stroke-width="1.5" points="449.75,-307.92 446.25,-297.92 442.75,-307.92 449.75,-307.92"/>
</g>
<!-- plan_exit -->
<g id="node14" class="node">
<title>plan_exit</title>
<path fill="#ec4899" stroke="black" stroke-width="0" d="M488.38,-209.25C488.38,-209.25 434.12,-209.25 434.12,-209.25 428.12,-209.25 422.12,-203.25 422.12,-197.25 422.12,-197.25 422.12,-185.25 422.12,-185.25 422.12,-179.25 428.12,-173.25 434.12,-173.25 434.12,-173.25 488.38,-173.25 488.38,-173.25 494.38,-173.25 500.38,-179.25 500.38,-185.25 500.38,-185.25 500.38,-197.25 500.38,-197.25 500.38,-203.25 494.38,-209.25 488.38,-209.25"/>
<text xml:space="preserve" text-anchor="middle" x="461.25" y="-194.5" font-family="Inter" font-size="10.00" fill="white">ExitPlanMode</text>
<text xml:space="preserve" text-anchor="middle" x="461.25" y="-181.75" font-family="Inter" font-size="10.00" fill="white">(Execute Plan)</text>
</g>
<!-- plan_submit&#45;&gt;plan_exit -->
<g id="edge13" class="edge">
<title>plan_submit&#45;&gt;plan_exit</title>
<path fill="none" stroke="#ec4899" stroke-width="1.5" d="M455.25,-259.83C455.25,-259.83 455.25,-221.42 455.25,-221.42"/>
<polygon fill="#ec4899" stroke="#ec4899" stroke-width="1.5" points="458.75,-221.42 455.25,-211.42 451.75,-221.42 458.75,-221.42"/>
</g>
<!-- sub_l2 -->
<g id="node16" class="node">
<title>sub_l2</title>
<path fill="#f97316" stroke="black" stroke-width="0" d="M632.75,-296C632.75,-296 529.75,-296 529.75,-296 523.75,-296 517.75,-290 517.75,-284 517.75,-284 517.75,-271.5 517.75,-271.5 517.75,-265.5 523.75,-259.5 529.75,-259.5 529.75,-259.5 632.75,-259.5 632.75,-259.5 638.75,-259.5 644.75,-265.5 644.75,-271.5 644.75,-271.5 644.75,-284 644.75,-284 644.75,-290 638.75,-296 632.75,-296"/>
<text xml:space="preserve" text-anchor="middle" x="581.25" y="-281.55" font-family="Inter" font-size="11.00" fill="white">Level 2</text>
<text xml:space="preserve" text-anchor="middle" x="581.25" y="-267.3" font-family="Inter" font-size="11.00" fill="white">(Teammate delegates)</text>
</g>
<!-- sub_l1&#45;&gt;sub_l2 -->
<g id="edge15" class="edge">
<title>sub_l1&#45;&gt;sub_l2</title>
<path fill="none" stroke="#f97316" stroke-width="1.5" d="M580.25,-346.33C580.25,-346.33 580.25,-308.22 580.25,-308.22"/>
<polygon fill="#f97316" stroke="#f97316" stroke-width="1.5" points="583.75,-308.22 580.25,-298.22 576.75,-308.22 583.75,-308.22"/>
</g>
<!-- sub_l3 -->
<g id="node17" class="node">
<title>sub_l3</title>
<path fill="#ef4444" stroke="black" stroke-width="0" d="M607.25,-209.5C607.25,-209.5 555.25,-209.5 555.25,-209.5 549.25,-209.5 543.25,-203.5 543.25,-197.5 543.25,-197.5 543.25,-185 543.25,-185 543.25,-179 549.25,-173 555.25,-173 555.25,-173 607.25,-173 607.25,-173 613.25,-173 619.25,-179 619.25,-185 619.25,-185 619.25,-197.5 619.25,-197.5 619.25,-203.5 613.25,-209.5 607.25,-209.5"/>
<text xml:space="preserve" text-anchor="middle" x="581.25" y="-195.05" font-family="Inter" font-size="11.00" fill="white">Level 3</text>
<text xml:space="preserve" text-anchor="middle" x="581.25" y="-180.8" font-family="Inter" font-size="11.00" fill="white">(Max depth)</text>
</g>
<!-- sub_l2&#45;&gt;sub_l3 -->
<g id="edge16" class="edge">
<title>sub_l2&#45;&gt;sub_l3</title>
<path fill="none" stroke="#f97316" stroke-width="1.5" d="M581.25,-259.83C581.25,-259.83 581.25,-221.72 581.25,-221.72"/>
<polygon fill="#f97316" stroke="#f97316" stroke-width="1.5" points="584.75,-221.72 581.25,-211.72 577.75,-221.72 584.75,-221.72"/>
</g>
<!-- otg -->
<g id="node19" class="node">
<title>otg</title>
<path fill="#d946ef" stroke="black" stroke-width="0" d="M740.38,-295.75C740.38,-295.75 686.12,-295.75 686.12,-295.75 680.12,-295.75 674.12,-289.75 674.12,-283.75 674.12,-283.75 674.12,-271.75 674.12,-271.75 674.12,-265.75 680.12,-259.75 686.12,-259.75 686.12,-259.75 740.38,-259.75 740.38,-259.75 746.38,-259.75 752.38,-265.75 752.38,-271.75 752.38,-271.75 752.38,-283.75 752.38,-283.75 752.38,-289.75 746.38,-295.75 740.38,-295.75"/>
<text xml:space="preserve" text-anchor="middle" x="713.25" y="-281" font-family="Inter" font-size="10.00" fill="white">OpenThaiGPT</text>
<text xml:space="preserve" text-anchor="middle" x="713.25" y="-268.25" font-family="Inter" font-size="10.00" fill="white">(Open Source)</text>
</g>
<!-- thai_label&#45;&gt;otg -->
<g id="edge18" class="edge">
<title>thai_label&#45;&gt;otg</title>
<path fill="none" stroke="#d946ef" stroke-width="1.5" d="M745.5,-346.33C745.5,-346.33 745.5,-307.92 745.5,-307.92"/>
<polygon fill="#d946ef" stroke="#d946ef" stroke-width="1.5" points="749,-307.92 745.5,-297.92 742,-307.92 749,-307.92"/>
</g>
<!-- typhoon -->
<g id="node20" class="node">
<title>typhoon</title>
<path fill="#d946ef" stroke="black" stroke-width="0" d="M830.75,-295.75C830.75,-295.75 793.75,-295.75 793.75,-295.75 787.75,-295.75 781.75,-289.75 781.75,-283.75 781.75,-283.75 781.75,-271.75 781.75,-271.75 781.75,-265.75 787.75,-259.75 793.75,-259.75 793.75,-259.75 830.75,-259.75 830.75,-259.75 836.75,-259.75 842.75,-265.75 842.75,-271.75 842.75,-271.75 842.75,-283.75 842.75,-283.75 842.75,-289.75 836.75,-295.75 830.75,-295.75"/>
<text xml:space="preserve" text-anchor="middle" x="812.25" y="-281" font-family="Inter" font-size="10.00" fill="white">Typhoon&#45;S</text>
<text xml:space="preserve" text-anchor="middle" x="812.25" y="-268.25" font-family="Inter" font-size="10.00" fill="white">(SCB10X)</text>
</g>
<!-- thai_label&#45;&gt;typhoon -->
<g id="edge19" class="edge">
<title>thai_label&#45;&gt;typhoon</title>
<path fill="none" stroke="#d946ef" stroke-width="1.5" d="M812.25,-346.33C812.25,-346.33 812.25,-307.92 812.25,-307.92"/>
<polygon fill="#d946ef" stroke="#d946ef" stroke-width="1.5" points="815.75,-307.92 812.25,-297.92 808.75,-307.92 815.75,-307.92"/>
</g>
<!-- pathumma -->
<g id="node21" class="node">
<title>pathumma</title>
<path fill="#d946ef" stroke="black" stroke-width="0" d="M921.12,-295.75C921.12,-295.75 883.38,-295.75 883.38,-295.75 877.38,-295.75 871.38,-289.75 871.38,-283.75 871.38,-283.75 871.38,-271.75 871.38,-271.75 871.38,-265.75 877.38,-259.75 883.38,-259.75 883.38,-259.75 921.12,-259.75 921.12,-259.75 927.12,-259.75 933.12,-265.75 933.12,-271.75 933.12,-271.75 933.12,-283.75 933.12,-283.75 933.12,-289.75 927.12,-295.75 921.12,-295.75"/>
<text xml:space="preserve" text-anchor="middle" x="902.25" y="-281" font-family="Inter" font-size="10.00" fill="white">Pathumma</text>
<text xml:space="preserve" text-anchor="middle" x="902.25" y="-268.25" font-family="Inter" font-size="10.00" fill="white">(Nectec)</text>
</g>
<!-- thai_label&#45;&gt;pathumma -->
<g id="edge20" class="edge">
<title>thai_label&#45;&gt;pathumma</title>
<path fill="none" stroke="#d946ef" stroke-width="1.5" d="M878.62,-346.33C878.62,-346.33 878.62,-307.92 878.62,-307.92"/>
<polygon fill="#d946ef" stroke="#d946ef" stroke-width="1.5" points="882.13,-307.92 878.63,-297.92 875.13,-307.92 882.13,-307.92"/>
</g>
<!-- thalle -->
<g id="node22" class="node">
<title>thalle</title>
<path fill="#d946ef" stroke="black" stroke-width="0" d="M1034.38,-295.75C1034.38,-295.75 974.12,-295.75 974.12,-295.75 968.12,-295.75 962.12,-289.75 962.12,-283.75 962.12,-283.75 962.12,-271.75 962.12,-271.75 962.12,-265.75 968.12,-259.75 974.12,-259.75 974.12,-259.75 1034.38,-259.75 1034.38,-259.75 1040.38,-259.75 1046.38,-265.75 1046.38,-271.75 1046.38,-271.75 1046.38,-283.75 1046.38,-283.75 1046.38,-289.75 1040.38,-295.75 1034.38,-295.75"/>
<text xml:space="preserve" text-anchor="middle" x="1004.25" y="-281" font-family="Inter" font-size="10.00" fill="white">THaLLE</text>
<text xml:space="preserve" text-anchor="middle" x="1004.25" y="-268.25" font-family="Inter" font-size="10.00" fill="white">(Thai LLM Eval)</text>
</g>
<!-- thai_label&#45;&gt;thalle -->
<g id="edge21" class="edge">
<title>thai_label&#45;&gt;thalle</title>
<path fill="none" stroke="#d946ef" stroke-width="1.5" d="M885.66,-364C939.86,-364 1004.25,-364 1004.25,-364 1004.25,-364 1004.25,-307.89 1004.25,-307.89"/>
<polygon fill="#d946ef" stroke="#d946ef" stroke-width="1.5" points="1007.75,-307.89 1004.25,-297.89 1000.75,-307.89 1007.75,-307.89"/>
</g>
</g>
</svg>
