<?xml version="1.0" encoding="UTF-8" standalone="no"?>
<!DOCTYPE svg PUBLIC "-//W3C//DTD SVG 1.1//EN"
 "http://www.w3.org/Graphics/SVG/1.1/DTD/svg11.dtd">
<!-- Generated by graphviz version 14.1.2 (0)
 -->
<!-- Title: timesfm_forecasting_workflow Pages: 1 -->
<svg width="623pt" height="70pt"
 viewBox="0.00 0.00 623.00 70.00" xmlns="http://www.w3.org/2000/svg" xmlns:xlink="http://www.w3.org/1999/xlink">
<g id="graph0" class="graph" transform="scale(1 1) rotate(0) translate(4 66)">
<title>timesfm_forecasting_workflow</title>
<polygon fill="white" stroke="none" points="-4,4 -4,-66 618.5,-66 618.5,4 -4,4"/>
<!-- input -->
<g id="node1" class="node">
<title>input</title>
<polygon fill="#4caf50" stroke="black" points="86.5,-49 0,-49 0,-13 86.5,-13 86.5,-49"/>
<text xml:space="preserve" text-anchor="middle" x="43.25" y="-34.05" font-family="Arial" font-size="11.00" fill="white">Any Univariate</text>
<text xml:space="preserve" text-anchor="middle" x="43.25" y="-20.55" font-family="Arial" font-size="11.00" fill="white">Time Series</text>
</g>
<!-- process -->
<g id="node2" class="node">
<title>process</title>
<path fill="#2196f3" stroke="black" d="M270,-49.25C270,-49.25 156.5,-49.25 156.5,-49.25 150.5,-49.25 144.5,-43.25 144.5,-37.25 144.5,-37.25 144.5,-24.75 144.5,-24.75 144.5,-18.75 150.5,-12.75 156.5,-12.75 156.5,-12.75 270,-12.75 270,-12.75 276,-12.75 282,-18.75 282,-24.75 282,-24.75 282,-37.25 282,-37.25 282,-43.25 276,-49.25 270,-49.25"/>
<text xml:space="preserve" text-anchor="middle" x="213.25" y="-33.85" font-family="Arial Bold" font-size="12.00" fill="white">TimesFM Model</text>
<text xml:space="preserve" text-anchor="middle" x="213.25" y="-19.6" font-family="Arial Bold" font-size="12.00" fill="white">No Training Required</text>
</g>
<!-- input&#45;&gt;process -->
<g id="edge1" class="edge">
<title>input&#45;&gt;process</title>
<path fill="none" stroke="#4caf50" stroke-width="2" d="M86.59,-31C86.59,-31 131.2,-31 131.2,-31"/>
<polygon fill="#4caf50" stroke="#4caf50" stroke-width="2" points="131.2,-34.5 141.2,-31 131.2,-27.5 131.2,-34.5"/>
</g>
<!-- features -->
<g id="node3" class="node">
<title>features</title>
<path fill="#ff9800" stroke="black" d="M437,-62C437,-62 352,-62 352,-62 346,-62 340,-56 340,-50 340,-50 340,-12 340,-12 340,-6 346,0 352,0 352,0 437,0 437,0 443,0 449,-6 449,-12 449,-12 449,-50 449,-50 449,-56 443,-62 437,-62"/>
<text xml:space="preserve" text-anchor="middle" x="394.5" y="-47.55" font-family="Arial" font-size="11.00" fill="white">Features</text>
<text xml:space="preserve" text-anchor="middle" x="394.5" y="-34.05" font-family="Arial" font-size="11.00" fill="white">Zero&#45;Shot</text>
<text xml:space="preserve" text-anchor="middle" x="394.5" y="-20.55" font-family="Arial" font-size="11.00" fill="white">Probabilistic</text>
<text xml:space="preserve" text-anchor="middle" x="394.5" y="-7.05" font-family="Arial" font-size="11.00" fill="white">Calibrated Intervals</text>
</g>
<!-- process&#45;&gt;features -->
<g id="edge2" class="edge">
<title>process&#45;&gt;features</title>
<path fill="none" stroke="#2196f3" stroke-width="2" d="M282.29,-31C282.29,-31 326.71,-31 326.71,-31"/>
<polygon fill="#2196f3" stroke="#2196f3" stroke-width="2" points="326.71,-34.5 336.71,-31 326.71,-27.5 326.71,-34.5"/>
</g>
<!-- output -->
<g id="node4" class="node">
<title>output</title>
<polygon fill="#f44336" stroke="black" points="614.5,-62 507,-62 507,0 614.5,0 614.5,-62"/>
<text xml:space="preserve" text-anchor="middle" x="560.75" y="-47.55" font-family="Arial" font-size="11.00" fill="white">Point Forecasts</text>
<text xml:space="preserve" text-anchor="middle" x="560.75" y="-34.05" font-family="Arial" font-size="11.00" fill="white">+</text>
<text xml:space="preserve" text-anchor="middle" x="560.75" y="-20.55" font-family="Arial" font-size="11.00" fill="white">Prediction Intervals</text>
<text xml:space="preserve" text-anchor="middle" x="560.75" y="-7.05" font-family="Arial" font-size="11.00" fill="white">(q10 &#45; q90)</text>
</g>
<!-- features&#45;&gt;output -->
<g id="edge3" class="edge">
<title>features&#45;&gt;output</title>
<path fill="none" stroke="#ff9800" stroke-width="2" d="M449.4,-31C449.4,-31 493.73,-31 493.73,-31"/>
<polygon fill="#ff9800" stroke="#ff9800" stroke-width="2" points="493.73,-34.5 503.73,-31 493.73,-27.5 493.73,-34.5"/>
</g>
</g>
</svg>
