<?xml version="1.0" encoding="UTF-8" standalone="no"?>
<!DOCTYPE svg PUBLIC "-//W3C//DTD SVG 1.1//EN"
 "http://www.w3.org/Graphics/SVG/1.1/DTD/svg11.dtd">
<!-- Generated by graphviz version 14.1.2 (0)
 -->
<!-- Title: tolaria_architecture Pages: 1 -->
<svg width="1984pt" height="513pt"
 viewBox="0.00 0.00 1984.00 513.00" xmlns="http://www.w3.org/2000/svg" xmlns:xlink="http://www.w3.org/1999/xlink">
<style>
<!-- White text halo for edge label readability -->
text { paint-order: stroke; stroke: #ffffff; stroke-width: 3px; stroke-linejoin: round; fill: #1a1a2e; }
</style>
<g id="graph0" class="graph" transform="scale(1 1) rotate(0) translate(4 508.75)">
<title>tolaria_architecture</title>
<text xml:space="preserve" text-anchor="middle" x="988" y="-7.2" font-family="Times New Roman,serif" font-size="14.00">Tolaria &#45; System Architecture</text>
<g id="clust1" class="cluster">
<title>cluster_frontend</title>
<path fill="none" stroke="#2196f3" stroke-dasharray="5,2" d="M20,-393.7C20,-393.7 1236,-393.7 1236,-393.7 1242,-393.7 1248,-399.7 1248,-405.7 1248,-405.7 1248,-484.75 1248,-484.75 1248,-490.75 1242,-496.75 1236,-496.75 1236,-496.75 20,-496.75 20,-496.75 14,-496.75 8,-490.75 8,-484.75 8,-484.75 8,-405.7 8,-405.7 8,-399.7 14,-393.7 20,-393.7"/>
<text xml:space="preserve" text-anchor="middle" x="628" y="-481.35" font-family="Arial Bold" font-size="12.00" fill="#1565c0">React Frontend</text>
</g>
<g id="clust2" class="cluster">
<title>cluster_backend</title>
<path fill="none" stroke="#ff9800" stroke-dasharray="5,2" d="M272,-32.5C272,-32.5 1236,-32.5 1236,-32.5 1242,-32.5 1248,-38.5 1248,-44.5 1248,-44.5 1248,-246.35 1248,-246.35 1248,-252.35 1242,-258.35 1236,-258.35 1236,-258.35 272,-258.35 272,-258.35 266,-258.35 260,-252.35 260,-246.35 260,-246.35 260,-44.5 260,-44.5 260,-38.5 266,-32.5 272,-32.5"/>
<text xml:space="preserve" text-anchor="middle" x="754" y="-242.95" font-family="Arial Bold" font-size="12.00" fill="#e65100">Rust Backend (Tauri)</text>
</g>
<!-- sidebar -->
<g id="node1" class="node">
<title>sidebar</title>
<path fill="#2196f3" stroke="black" d="M220,-466.5C220,-466.5 28,-466.5 28,-466.5 22,-466.5 16,-460.5 16,-454.5 16,-454.5 16,-413.7 16,-413.7 16,-407.7 22,-401.7 28,-401.7 28,-401.7 220,-401.7 220,-401.7 226,-401.7 232,-407.7 232,-413.7 232,-413.7 232,-454.5 232,-454.5 232,-460.5 226,-466.5 220,-466.5"/>
<text xml:space="preserve" text-anchor="middle" x="124" y="-437.15" font-family="Arial Bold" font-size="11.00" fill="white">Sidebar</text>
<text xml:space="preserve" text-anchor="middle" x="124" y="-423.65" font-family="Arial Bold" font-size="11.00" fill="white">Navigation + Filters</text>
</g>
<!-- ipc -->
<g id="node6" class="node">
<title>ipc</title>
<polygon fill="#ffc107" stroke="black" points="754,-343.7 502,-343.7 502,-286.1 754,-286.1 754,-343.7"/>
<text xml:space="preserve" text-anchor="middle" x="628" y="-317.95" font-family="Arial Bold" font-size="11.00" fill="#000000">Tauri IPC Bridge</text>
<text xml:space="preserve" text-anchor="middle" x="628" y="-304.45" font-family="Arial Bold" font-size="11.00" fill="#000000">(Invoke Commands)</text>
</g>
<!-- sidebar&#45;&gt;ipc -->
<g id="edge1" class="edge">
<title>sidebar&#45;&gt;ipc</title>
<path fill="none" stroke="#2196f3" stroke-width="2" d="M124,-401.42C124,-366.01 124,-314.5 124,-314.5 124,-314.5 488.77,-314.5 488.77,-314.5"/>
<polygon fill="#2196f3" stroke="#2196f3" stroke-width="2" points="488.77,-318 498.77,-314.5 488.77,-311 488.77,-318"/>
</g>
<!-- notelist -->
<g id="node2" class="node">
<title>notelist</title>
<path fill="#2196f3" stroke="black" d="M472,-466.5C472,-466.5 280,-466.5 280,-466.5 274,-466.5 268,-460.5 268,-454.5 268,-454.5 268,-413.7 268,-413.7 268,-407.7 274,-401.7 280,-401.7 280,-401.7 472,-401.7 472,-401.7 478,-401.7 484,-407.7 484,-413.7 484,-413.7 484,-454.5 484,-454.5 484,-460.5 478,-466.5 472,-466.5"/>
<text xml:space="preserve" text-anchor="middle" x="376" y="-437.15" font-family="Arial Bold" font-size="11.00" fill="white">Note List</text>
<text xml:space="preserve" text-anchor="middle" x="376" y="-423.65" font-family="Arial Bold" font-size="11.00" fill="white">Pulse View</text>
</g>
<!-- notelist&#45;&gt;ipc -->
<g id="edge2" class="edge">
<title>notelist&#45;&gt;ipc</title>
<path fill="none" stroke="#2196f3" stroke-width="2" d="M484.33,-434.5C500.02,-434.5 511,-434.5 511,-434.5 511,-434.5 511,-357.18 511,-357.18"/>
<polygon fill="#2196f3" stroke="#2196f3" stroke-width="2" points="514.5,-357.18 511,-347.18 507.5,-357.18 514.5,-357.18"/>
</g>
<!-- editor -->
<g id="node3" class="node">
<title>editor</title>
<path fill="#2196f3" stroke="black" d="M724,-466.5C724,-466.5 532,-466.5 532,-466.5 526,-466.5 520,-460.5 520,-454.5 520,-454.5 520,-413.7 520,-413.7 520,-407.7 526,-401.7 532,-401.7 532,-401.7 724,-401.7 724,-401.7 730,-401.7 736,-407.7 736,-413.7 736,-413.7 736,-454.5 736,-454.5 736,-460.5 730,-466.5 724,-466.5"/>
<text xml:space="preserve" text-anchor="middle" x="628" y="-437.15" font-family="Arial Bold" font-size="11.00" fill="white">Editor</text>
<text xml:space="preserve" text-anchor="middle" x="628" y="-423.65" font-family="Arial Bold" font-size="11.00" fill="white">BlockNote + CodeMirror</text>
</g>
<!-- editor&#45;&gt;ipc -->
<g id="edge3" class="edge">
<title>editor&#45;&gt;ipc</title>
<path fill="none" stroke="#2196f3" stroke-width="2" d="M628,-401.21C628,-401.21 628,-357.05 628,-357.05"/>
<polygon fill="#2196f3" stroke="#2196f3" stroke-width="2" points="631.5,-357.05 628,-347.05 624.5,-357.05 631.5,-357.05"/>
</g>
<!-- inspector -->
<g id="node4" class="node">
<title>inspector</title>
<path fill="#2196f3" stroke="black" d="M976,-466.5C976,-466.5 784,-466.5 784,-466.5 778,-466.5 772,-460.5 772,-454.5 772,-454.5 772,-413.7 772,-413.7 772,-407.7 778,-401.7 784,-401.7 784,-401.7 976,-401.7 976,-401.7 982,-401.7 988,-407.7 988,-413.7 988,-413.7 988,-454.5 988,-454.5 988,-460.5 982,-466.5 976,-466.5"/>
<text xml:space="preserve" text-anchor="middle" x="880" y="-437.15" font-family="Arial Bold" font-size="11.00" fill="white">Right Panel</text>
<text xml:space="preserve" text-anchor="middle" x="880" y="-423.65" font-family="Arial Bold" font-size="11.00" fill="white">Inspector + TOC + AI</text>
</g>
<!-- inspector&#45;&gt;ipc -->
<g id="edge4" class="edge">
<title>inspector&#45;&gt;ipc</title>
<path fill="none" stroke="#2196f3" stroke-width="2" d="M771.67,-434.5C755.98,-434.5 745,-434.5 745,-434.5 745,-434.5 745,-357.18 745,-357.18"/>
<polygon fill="#2196f3" stroke="#2196f3" stroke-width="2" points="748.5,-357.18 745,-347.18 741.5,-357.18 748.5,-357.18"/>
</g>
<!-- cmd_palette -->
<g id="node5" class="node">
<title>cmd_palette</title>
<path fill="#2196f3" stroke="black" d="M1228,-466.5C1228,-466.5 1036,-466.5 1036,-466.5 1030,-466.5 1024,-460.5 1024,-454.5 1024,-454.5 1024,-413.7 1024,-413.7 1024,-407.7 1030,-401.7 1036,-401.7 1036,-401.7 1228,-401.7 1228,-401.7 1234,-401.7 1240,-407.7 1240,-413.7 1240,-413.7 1240,-454.5 1240,-454.5 1240,-460.5 1234,-466.5 1228,-466.5"/>
<text xml:space="preserve" text-anchor="middle" x="1132" y="-437.15" font-family="Arial Bold" font-size="11.00" fill="white">Command Palette</text>
<text xml:space="preserve" text-anchor="middle" x="1132" y="-423.65" font-family="Arial Bold" font-size="11.00" fill="white">Cmd+K</text>
</g>
<!-- cmd_palette&#45;&gt;ipc -->
<g id="edge5" class="edge">
<title>cmd_palette&#45;&gt;ipc</title>
<path fill="none" stroke="#2196f3" stroke-width="2" d="M1096,-401.22C1096,-368.93 1096,-324.5 1096,-324.5 1096,-324.5 767.37,-324.5 767.37,-324.5"/>
<polygon fill="#2196f3" stroke="#2196f3" stroke-width="2" points="767.37,-321 757.37,-324.5 767.37,-328 767.37,-321"/>
</g>
<!-- vault_mod -->
<g id="node7" class="node">
<title>vault_mod</title>
<path fill="#ff9800" stroke="black" d="M724,-228.1C724,-228.1 532,-228.1 532,-228.1 526,-228.1 520,-222.1 520,-216.1 520,-216.1 520,-175.3 520,-175.3 520,-169.3 526,-163.3 532,-163.3 532,-163.3 724,-163.3 724,-163.3 730,-163.3 736,-169.3 736,-175.3 736,-175.3 736,-216.1 736,-216.1 736,-222.1 730,-228.1 724,-228.1"/>
<text xml:space="preserve" text-anchor="middle" x="628" y="-198.75" font-family="Arial Bold" font-size="11.00" fill="white">Vault Module</text>
<text xml:space="preserve" text-anchor="middle" x="628" y="-185.25" font-family="Arial Bold" font-size="11.00" fill="white">Scan + Cache + Parse</text>
</g>
<!-- ipc&#45;&gt;vault_mod -->
<g id="edge6" class="edge">
<title>ipc&#45;&gt;vault_mod</title>
<path fill="none" stroke="#ff9800" stroke-width="2" d="M628,-285.74C628,-285.74 628,-241.37 628,-241.37"/>
<polygon fill="#ff9800" stroke="#ff9800" stroke-width="2" points="631.5,-241.37 628,-231.37 624.5,-241.37 631.5,-241.37"/>
</g>
<!-- git_mod -->
<g id="node8" class="node">
<title>git_mod</title>
<path fill="#ff9800" stroke="black" d="M976,-228.1C976,-228.1 784,-228.1 784,-228.1 778,-228.1 772,-222.1 772,-216.1 772,-216.1 772,-175.3 772,-175.3 772,-169.3 778,-163.3 784,-163.3 784,-163.3 976,-163.3 976,-163.3 982,-163.3 988,-169.3 988,-175.3 988,-175.3 988,-216.1 988,-216.1 988,-222.1 982,-228.1 976,-228.1"/>
<text xml:space="preserve" text-anchor="middle" x="880" y="-198.75" font-family="Arial Bold" font-size="11.00" fill="white">Git Module</text>
<text xml:space="preserve" text-anchor="middle" x="880" y="-185.25" font-family="Arial Bold" font-size="11.00" fill="white">Commit + Sync + Pulse</text>
</g>
<!-- ipc&#45;&gt;git_mod -->
<g id="edge7" class="edge">
<title>ipc&#45;&gt;git_mod</title>
<path fill="none" stroke="#ff9800" stroke-width="2" d="M745,-285.69C745,-250.34 745,-195.5 745,-195.5 745,-195.5 758.64,-195.5 758.64,-195.5"/>
<polygon fill="#ff9800" stroke="#ff9800" stroke-width="2" points="758.64,-199 768.64,-195.5 758.64,-192 758.64,-199"/>
</g>
<!-- ai_mod -->
<g id="node9" class="node">
<title>ai_mod</title>
<path fill="#ff9800" stroke="black" d="M472,-228.1C472,-228.1 280,-228.1 280,-228.1 274,-228.1 268,-222.1 268,-216.1 268,-216.1 268,-175.3 268,-175.3 268,-169.3 274,-163.3 280,-163.3 280,-163.3 472,-163.3 472,-163.3 478,-163.3 484,-169.3 484,-175.3 484,-175.3 484,-216.1 484,-216.1 484,-222.1 478,-228.1 472,-228.1"/>
<text xml:space="preserve" text-anchor="middle" x="376" y="-198.75" font-family="Arial Bold" font-size="11.00" fill="white">AI Agents</text>
<text xml:space="preserve" text-anchor="middle" x="376" y="-185.25" font-family="Arial Bold" font-size="11.00" fill="white">Claude + Codex + Gemini</text>
</g>
<!-- ipc&#45;&gt;ai_mod -->
<g id="edge8" class="edge">
<title>ipc&#45;&gt;ai_mod</title>
<path fill="none" stroke="#ff9800" stroke-width="2" d="M508,-285.69C508,-250.34 508,-195.5 508,-195.5 508,-195.5 497.43,-195.5 497.43,-195.5"/>
<polygon fill="#ff9800" stroke="#ff9800" stroke-width="2" points="497.43,-192 487.43,-195.5 497.43,-199 497.43,-192"/>
</g>
<!-- mcp_mod -->
<g id="node10" class="node">
<title>mcp_mod</title>
<path fill="#ff9800" stroke="black" d="M472,-105.3C472,-105.3 280,-105.3 280,-105.3 274,-105.3 268,-99.3 268,-93.3 268,-93.3 268,-52.5 268,-52.5 268,-46.5 274,-40.5 280,-40.5 280,-40.5 472,-40.5 472,-40.5 478,-40.5 484,-46.5 484,-52.5 484,-52.5 484,-93.3 484,-93.3 484,-99.3 478,-105.3 472,-105.3"/>
<text xml:space="preserve" text-anchor="middle" x="376" y="-75.95" font-family="Arial Bold" font-size="11.00" fill="white">MCP Server</text>
<text xml:space="preserve" text-anchor="middle" x="376" y="-62.45" font-family="Arial Bold" font-size="11.00" fill="white">14 Vault Tools</text>
</g>
<!-- ipc&#45;&gt;mcp_mod -->
<g id="edge9" class="edge">
<title>ipc&#45;&gt;mcp_mod</title>
<path fill="none" stroke="#ff9800" stroke-width="2" d="M514,-285.95C514,-219.65 514,-62.5 514,-62.5 514,-62.5 497.42,-62.5 497.42,-62.5"/>
<polygon fill="#ff9800" stroke="#ff9800" stroke-width="2" points="497.42,-59 487.42,-62.5 497.42,-66 497.42,-59"/>
</g>
<!-- search_mod -->
<g id="node11" class="node">
<title>search_mod</title>
<path fill="#ff9800" stroke="black" d="M1228,-228.1C1228,-228.1 1036,-228.1 1036,-228.1 1030,-228.1 1024,-222.1 1024,-216.1 1024,-216.1 1024,-175.3 1024,-175.3 1024,-169.3 1030,-163.3 1036,-163.3 1036,-163.3 1228,-163.3 1228,-163.3 1234,-163.3 1240,-169.3 1240,-175.3 1240,-175.3 1240,-216.1 1240,-216.1 1240,-222.1 1234,-228.1 1228,-228.1"/>
<text xml:space="preserve" text-anchor="middle" x="1132" y="-198.75" font-family="Arial Bold" font-size="11.00" fill="white">Search</text>
<text xml:space="preserve" text-anchor="middle" x="1132" y="-185.25" font-family="Arial Bold" font-size="11.00" fill="white">Keyword Scan</text>
</g>
<!-- ipc&#45;&gt;search_mod -->
<g id="edge10" class="edge">
<title>ipc&#45;&gt;search_mod</title>
<path fill="none" stroke="#ff9800" stroke-width="2" d="M754.27,-305.5C913.85,-305.5 1168,-305.5 1168,-305.5 1168,-305.5 1168,-241.37 1168,-241.37"/>
<polygon fill="#ff9800" stroke="#ff9800" stroke-width="2" points="1171.5,-241.37 1168,-231.37 1164.5,-241.37 1171.5,-241.37"/>
</g>
<!-- filesystem -->
<g id="node12" class="node">
<title>filesystem</title>
<path fill="#9c27b0" stroke="black" d="M1724,-99.41C1724,-102.66 1675.59,-105.3 1616,-105.3 1556.41,-105.3 1508,-102.66 1508,-99.41 1508,-99.41 1508,-46.39 1508,-46.39 1508,-43.14 1556.41,-40.5 1616,-40.5 1675.59,-40.5 1724,-43.14 1724,-46.39 1724,-46.39 1724,-99.41 1724,-99.41"/>
<path fill="none" stroke="black" d="M1724,-99.41C1724,-96.16 1675.59,-93.52 1616,-93.52 1556.41,-93.52 1508,-96.16 1508,-99.41"/>
<text xml:space="preserve" text-anchor="middle" x="1616" y="-75.4" font-family="Arial" font-size="10.00" fill="white">Filesystem</text>
<text xml:space="preserve" text-anchor="middle" x="1616" y="-63.4" font-family="Arial" font-size="10.00" fill="white">.md Files (Source of Truth)</text>
</g>
<!-- vault_mod&#45;&gt;filesystem -->
<g id="edge11" class="edge">
<title>vault_mod&#45;&gt;filesystem</title>
<path fill="none" stroke="#9c27b0" stroke-width="2" d="M592,-162.94C592,-142.29 592,-119.5 592,-119.5 592,-119.5 1580,-119.5 1580,-119.5 1580,-119.5 1580,-118.13 1580,-118.13"/>
<polygon fill="#9c27b0" stroke="#9c27b0" stroke-width="2" points="1583.5,-118.8 1580,-108.8 1576.5,-118.8 1583.5,-118.8"/>
<text xml:space="preserve" text-anchor="middle" x="1032.34" y="-122.7" font-family="Times New Roman,serif" font-size="14.00">reads/writes</text>
</g>
<!-- cache -->
<g id="node13" class="node">
<title>cache</title>
<path fill="#9c27b0" stroke="black" d="M1472,-99.41C1472,-102.66 1423.59,-105.3 1364,-105.3 1304.41,-105.3 1256,-102.66 1256,-99.41 1256,-99.41 1256,-46.39 1256,-46.39 1256,-43.14 1304.41,-40.5 1364,-40.5 1423.59,-40.5 1472,-43.14 1472,-46.39 1472,-46.39 1472,-99.41 1472,-99.41"/>
<path fill="none" stroke="black" d="M1472,-99.41C1472,-96.16 1423.59,-93.52 1364,-93.52 1304.41,-93.52 1256,-96.16 1256,-99.41"/>
<text xml:space="preserve" text-anchor="middle" x="1364" y="-75.4" font-family="Arial" font-size="10.00" fill="white">Cache</text>
<text xml:space="preserve" text-anchor="middle" x="1364" y="-63.4" font-family="Arial" font-size="10.00" fill="white">~/.laputa/cache/</text>
</g>
<!-- vault_mod&#45;&gt;cache -->
<g id="edge12" class="edge">
<title>vault_mod&#45;&gt;cache</title>
<path fill="none" stroke="#9c27b0" stroke-width="2" d="M664,-162.95C664,-129.83 664,-83.5 664,-83.5 664,-83.5 1242.75,-83.5 1242.75,-83.5"/>
<polygon fill="#9c27b0" stroke="#9c27b0" stroke-width="2" points="1242.75,-87 1252.75,-83.5 1242.75,-80 1242.75,-87"/>
<text xml:space="preserve" text-anchor="middle" x="893.03" y="-86.7" font-family="Times New Roman,serif" font-size="14.00">indexes</text>
</g>
<!-- git_mod&#45;&gt;filesystem -->
<g id="edge13" class="edge">
<title>git_mod&#45;&gt;filesystem</title>
<path fill="none" stroke="#9c27b0" stroke-width="2" d="M844,-162.95C844,-148.4 844,-134.5 844,-134.5 844,-134.5 1652,-134.5 1652,-134.5 1652,-134.5 1652,-118.53 1652,-118.53"/>
<polygon fill="#9c27b0" stroke="#9c27b0" stroke-width="2" points="1655.5,-118.53 1652,-108.53 1648.5,-118.53 1655.5,-118.53"/>
<text xml:space="preserve" text-anchor="middle" x="1200.88" y="-137.7" font-family="Times New Roman,serif" font-size="14.00">version control</text>
</g>
<!-- git_remote -->
<g id="node14" class="node">
<title>git_remote</title>
<path fill="#9c27b0" stroke="black" d="M1976,-99.41C1976,-102.66 1927.59,-105.3 1868,-105.3 1808.41,-105.3 1760,-102.66 1760,-99.41 1760,-99.41 1760,-46.39 1760,-46.39 1760,-43.14 1808.41,-40.5 1868,-40.5 1927.59,-40.5 1976,-43.14 1976,-46.39 1976,-46.39 1976,-99.41 1976,-99.41"/>
<path fill="none" stroke="black" d="M1976,-99.41C1976,-96.16 1927.59,-93.52 1868,-93.52 1808.41,-93.52 1760,-96.16 1760,-99.41"/>
<text xml:space="preserve" text-anchor="middle" x="1868" y="-75.4" font-family="Arial" font-size="10.00" fill="white">Git Remotes</text>
<text xml:space="preserve" text-anchor="middle" x="1868" y="-63.4" font-family="Arial" font-size="10.00" fill="white">GitHub / GitLab / Gitea</text>
</g>
<!-- git_mod&#45;&gt;git_remote -->
<g id="edge14" class="edge">
<title>git_mod&#45;&gt;git_remote</title>
<path fill="none" stroke="#9c27b0" stroke-width="2" d="M916,-162.92C916,-154.86 916,-148.5 916,-148.5 916,-148.5 1868,-148.5 1868,-148.5 1868,-148.5 1868,-118.43 1868,-118.43"/>
<polygon fill="#9c27b0" stroke="#9c27b0" stroke-width="2" points="1871.5,-118.43 1868,-108.43 1864.5,-118.43 1871.5,-118.43"/>
<text xml:space="preserve" text-anchor="middle" x="1374.7" y="-151.7" font-family="Times New Roman,serif" font-size="14.00">push/pull</text>
</g>
<!-- ai_mod&#45;&gt;mcp_mod -->
<g id="edge15" class="edge">
<title>ai_mod&#45;&gt;mcp_mod</title>
<path fill="none" stroke="#ff9800" stroke-width="1.5" stroke-dasharray="5,2" d="M376,-163.11C376,-163.11 376,-117.91 376,-117.91"/>
<polygon fill="#ff9800" stroke="#ff9800" stroke-width="1.5" points="379.5,-117.91 376,-107.91 372.5,-117.91 379.5,-117.91"/>
<text xml:space="preserve" text-anchor="middle" x="351.25" y="-143.71" font-family="Times New Roman,serif" font-size="14.00">tool calls</text>
</g>
</g>
</svg>
