<?xml version="1.0" encoding="UTF-8" standalone="no"?>
<!DOCTYPE svg PUBLIC "-//W3C//DTD SVG 1.1//EN"
 "http://www.w3.org/Graphics/SVG/1.1/DTD/svg11.dtd">
<!-- Generated by graphviz version 14.1.2 (0)
 -->
<!-- Title: G Pages: 1 -->
<svg width="1259pt" height="2334pt"
 viewBox="0.00 0.00 1259.00 2334.00" xmlns="http://www.w3.org/2000/svg" xmlns:xlink="http://www.w3.org/1999/xlink">
<g id="graph0" class="graph" transform="scale(2.08333 2.08333) rotate(0) translate(36 1084.25)">
<title>G</title>
<!-- title -->
<g id="node1" class="node">
<title>title</title>
<text xml:space="preserve" text-anchor="middle" x="104.38" y="-1013.6" font-family="Inter Bold" font-size="18.00" fill="#4f46e5">WorldSeed Tick Cycle</text>
</g>
<!-- step1 -->
<g id="node2" class="node">
<title>step1</title>
<path fill="#fffbeb" stroke="black" stroke-width="1.5" d="M412.38,-1048.25C412.38,-1048.25 256.38,-1048.25 256.38,-1048.25 250.38,-1048.25 244.38,-1042.25 244.38,-1036.25 244.38,-1036.25 244.38,-1002.65 244.38,-1002.65 244.38,-996.65 250.38,-990.65 256.38,-990.65 256.38,-990.65 412.38,-990.65 412.38,-990.65 418.38,-990.65 424.38,-996.65 424.38,-1002.65 424.38,-1002.65 424.38,-1036.25 424.38,-1036.25 424.38,-1042.25 418.38,-1048.25 412.38,-1048.25"/>
<text xml:space="preserve" text-anchor="middle" x="334.38" y="-1023.6" font-family="Inter" font-size="13.00" fill="#92400e">1. TickRunner</text>
<text xml:space="preserve" text-anchor="middle" x="334.38" y="-1007.1" font-family="Inter" font-size="13.00" fill="#92400e">Fires Step</text>
</g>
<!-- step2 -->
<g id="node3" class="node">
<title>step2</title>
<path fill="#ecfeff" stroke="black" stroke-width="1.5" d="M412.38,-939.65C412.38,-939.65 256.38,-939.65 256.38,-939.65 250.38,-939.65 244.38,-933.65 244.38,-927.65 244.38,-927.65 244.38,-894.05 244.38,-894.05 244.38,-888.05 250.38,-882.05 256.38,-882.05 256.38,-882.05 412.38,-882.05 412.38,-882.05 418.38,-882.05 424.38,-888.05 424.38,-894.05 424.38,-894.05 424.38,-927.65 424.38,-927.65 424.38,-933.65 418.38,-939.65 412.38,-939.65"/>
<text xml:space="preserve" text-anchor="middle" x="334.38" y="-915" font-family="Inter" font-size="13.00" fill="#155e75">2. Pull Actions</text>
<text xml:space="preserve" text-anchor="middle" x="334.38" y="-898.5" font-family="Inter" font-size="13.00" fill="#155e75">From Queue</text>
</g>
<!-- step1&#45;&gt;step2 -->
<g id="edge1" class="edge">
<title>step1&#45;&gt;step2</title>
<path fill="none" stroke="#4f46e5" stroke-width="1.5" d="M334.38,-990.16C334.38,-978 334.38,-963.58 334.38,-950.45"/>
<polygon fill="#4f46e5" stroke="#4f46e5" stroke-width="1.5" points="337.18,-950.54 334.38,-942.54 331.58,-950.54 337.18,-950.54"/>
</g>
<!-- step3 -->
<g id="node4" class="node">
<title>step3</title>
<path fill="#ecfdf5" stroke="black" stroke-width="1.5" d="M412.38,-831.05C412.38,-831.05 256.38,-831.05 256.38,-831.05 250.38,-831.05 244.38,-825.05 244.38,-819.05 244.38,-819.05 244.38,-785.45 244.38,-785.45 244.38,-779.45 250.38,-773.45 256.38,-773.45 256.38,-773.45 412.38,-773.45 412.38,-773.45 418.38,-773.45 424.38,-779.45 424.38,-785.45 424.38,-785.45 424.38,-819.05 424.38,-819.05 424.38,-825.05 418.38,-831.05 412.38,-831.05"/>
<text xml:space="preserve" text-anchor="middle" x="334.38" y="-806.4" font-family="Inter" font-size="13.00" fill="#065f46">3. Check</text>
<text xml:space="preserve" text-anchor="middle" x="334.38" y="-789.9" font-family="Inter" font-size="13.00" fill="#065f46">Preconditions</text>
</g>
<!-- step2&#45;&gt;step3 -->
<g id="edge2" class="edge">
<title>step2&#45;&gt;step3</title>
<path fill="none" stroke="#4f46e5" stroke-width="1.5" d="M334.38,-881.56C334.38,-869.4 334.38,-854.98 334.38,-841.85"/>
<polygon fill="#4f46e5" stroke="#4f46e5" stroke-width="1.5" points="337.18,-841.94 334.38,-833.94 331.58,-841.94 337.18,-841.94"/>
</g>
<!-- step4a -->
<g id="node5" class="node">
<title>step4a</title>
<path fill="#ecfdf5" stroke="black" stroke-width="1.5" d="M304.38,-709.2C304.38,-709.2 148.38,-709.2 148.38,-709.2 142.38,-709.2 136.38,-703.2 136.38,-697.2 136.38,-697.2 136.38,-663.6 136.38,-663.6 136.38,-657.6 142.38,-651.6 148.38,-651.6 148.38,-651.6 304.38,-651.6 304.38,-651.6 310.38,-651.6 316.38,-657.6 316.38,-663.6 316.38,-663.6 316.38,-697.2 316.38,-697.2 316.38,-703.2 310.38,-709.2 304.38,-709.2"/>
<text xml:space="preserve" text-anchor="middle" x="226.38" y="-684.55" font-family="Inter" font-size="13.00" fill="#065f46">4a. DSL Effects</text>
<text xml:space="preserve" text-anchor="middle" x="226.38" y="-668.05" font-family="Inter" font-size="13.00" fill="#065f46">(Deterministic)</text>
</g>
<!-- step3&#45;&gt;step4a -->
<g id="edge3" class="edge">
<title>step3&#45;&gt;step4a</title>
<path fill="none" stroke="#059669" stroke-width="1.5" d="M308.78,-772.85C293.72,-756.13 274.53,-734.84 258.46,-717.01"/>
<polygon fill="#059669" stroke="#059669" stroke-width="1.5" points="260.74,-715.35 253.31,-711.29 256.58,-719.1 260.74,-715.35"/>
<text xml:space="preserve" text-anchor="middle" x="294.86" y="-738" font-family="Inter" font-size="11.00" fill="#6b7280">pass</text>
</g>
<!-- step4b -->
<g id="node6" class="node">
<title>step4b</title>
<path fill="#fffbeb" stroke="black" stroke-width="1.5" d="M520.38,-709.2C520.38,-709.2 364.38,-709.2 364.38,-709.2 358.38,-709.2 352.38,-703.2 352.38,-697.2 352.38,-697.2 352.38,-663.6 352.38,-663.6 352.38,-657.6 358.38,-651.6 364.38,-651.6 364.38,-651.6 520.38,-651.6 520.38,-651.6 526.38,-651.6 532.38,-657.6 532.38,-663.6 532.38,-663.6 532.38,-697.2 532.38,-697.2 532.38,-703.2 526.38,-709.2 520.38,-709.2"/>
<text xml:space="preserve" text-anchor="middle" x="442.38" y="-684.55" font-family="Inter" font-size="13.00" fill="#92400e">4b. DM Judgment</text>
<text xml:space="preserve" text-anchor="middle" x="442.38" y="-668.05" font-family="Inter" font-size="13.00" fill="#92400e">(LLM Call)</text>
</g>
<!-- step3&#45;&gt;step4b -->
<g id="edge4" class="edge">
<title>step3&#45;&gt;step4b</title>
<path fill="none" stroke="#d97706" stroke-width="1.5" d="M359.97,-772.85C375.03,-756.13 394.22,-734.84 410.29,-717.01"/>
<polygon fill="#d97706" stroke="#d97706" stroke-width="1.5" points="412.17,-719.1 415.44,-711.29 408.01,-715.35 412.17,-719.1"/>
<text xml:space="preserve" text-anchor="middle" x="414.11" y="-738" font-family="Inter" font-size="11.00" fill="#6b7280">uncertain</text>
</g>
<!-- step5 -->
<g id="node7" class="node">
<title>step5</title>
<path fill="#eef2ff" stroke="black" stroke-width="1.5" d="M411.38,-600.6C411.38,-600.6 255.38,-600.6 255.38,-600.6 249.38,-600.6 243.38,-594.6 243.38,-588.6 243.38,-588.6 243.38,-555 243.38,-555 243.38,-549 249.38,-543 255.38,-543 255.38,-543 411.38,-543 411.38,-543 417.38,-543 423.38,-549 423.38,-555 423.38,-555 423.38,-588.6 423.38,-588.6 423.38,-594.6 417.38,-600.6 411.38,-600.6"/>
<text xml:space="preserve" text-anchor="middle" x="333.38" y="-575.95" font-family="Inter" font-size="13.00" fill="#312e81">5. Apply Effects</text>
<text xml:space="preserve" text-anchor="middle" x="333.38" y="-559.45" font-family="Inter" font-size="13.00" fill="#312e81">To StateStore</text>
</g>
<!-- step4a&#45;&gt;step5 -->
<g id="edge5" class="edge">
<title>step4a&#45;&gt;step5</title>
<path fill="none" stroke="#059669" stroke-width="1.5" d="M254.77,-651.11C267.95,-637.98 283.76,-622.23 297.73,-608.31"/>
<polygon fill="#059669" stroke="#059669" stroke-width="1.5" points="299.55,-610.45 303.24,-602.82 295.6,-606.48 299.55,-610.45"/>
</g>
<!-- step4b&#45;&gt;step5 -->
<g id="edge6" class="edge">
<title>step4b&#45;&gt;step5</title>
<path fill="none" stroke="#d97706" stroke-width="1.5" d="M413.45,-651.11C400.02,-637.98 383.92,-622.23 369.68,-608.31"/>
<polygon fill="#d97706" stroke="#d97706" stroke-width="1.5" points="371.73,-606.4 364.06,-602.81 367.82,-610.4 371.73,-606.4"/>
</g>
<!-- step6 -->
<g id="node8" class="node">
<title>step6</title>
<path fill="#f5f3ff" stroke="black" stroke-width="1.5" d="M411.38,-492C411.38,-492 255.38,-492 255.38,-492 249.38,-492 243.38,-486 243.38,-480 243.38,-480 243.38,-446.4 243.38,-446.4 243.38,-440.4 249.38,-434.4 255.38,-434.4 255.38,-434.4 411.38,-434.4 411.38,-434.4 417.38,-434.4 423.38,-440.4 423.38,-446.4 423.38,-446.4 423.38,-480 423.38,-480 423.38,-486 417.38,-492 411.38,-492"/>
<text xml:space="preserve" text-anchor="middle" x="333.38" y="-467.35" font-family="Inter" font-size="13.00" fill="#4c1d95">6. Scan</text>
<text xml:space="preserve" text-anchor="middle" x="333.38" y="-450.85" font-family="Inter" font-size="13.00" fill="#4c1d95">Consequences</text>
</g>
<!-- step5&#45;&gt;step6 -->
<g id="edge7" class="edge">
<title>step5&#45;&gt;step6</title>
<path fill="none" stroke="#4f46e5" stroke-width="1.5" d="M333.38,-542.51C333.38,-530.35 333.38,-515.93 333.38,-502.8"/>
<polygon fill="#4f46e5" stroke="#4f46e5" stroke-width="1.5" points="336.18,-502.89 333.38,-494.89 330.58,-502.89 336.18,-502.89"/>
</g>
<!-- step7 -->
<g id="node9" class="node">
<title>step7</title>
<path fill="#f5f3ff" stroke="black" stroke-width="1.5" d="M411.38,-383.4C411.38,-383.4 255.38,-383.4 255.38,-383.4 249.38,-383.4 243.38,-377.4 243.38,-371.4 243.38,-371.4 243.38,-337.8 243.38,-337.8 243.38,-331.8 249.38,-325.8 255.38,-325.8 255.38,-325.8 411.38,-325.8 411.38,-325.8 417.38,-325.8 423.38,-331.8 423.38,-337.8 423.38,-337.8 423.38,-371.4 423.38,-371.4 423.38,-377.4 417.38,-383.4 411.38,-383.4"/>
<text xml:space="preserve" text-anchor="middle" x="333.38" y="-358.75" font-family="Inter" font-size="13.00" fill="#4c1d95">7. Run AutoTick</text>
<text xml:space="preserve" text-anchor="middle" x="333.38" y="-342.25" font-family="Inter" font-size="13.00" fill="#4c1d95">(Decay/Progress)</text>
</g>
<!-- step6&#45;&gt;step7 -->
<g id="edge8" class="edge">
<title>step6&#45;&gt;step7</title>
<path fill="none" stroke="#4f46e5" stroke-width="1.5" d="M333.38,-433.91C333.38,-421.75 333.38,-407.33 333.38,-394.2"/>
<polygon fill="#4f46e5" stroke="#4f46e5" stroke-width="1.5" points="336.18,-394.29 333.38,-386.29 330.58,-394.29 336.18,-394.29"/>
</g>
<!-- step8 -->
<g id="node10" class="node">
<title>step8</title>
<path fill="#ecfeff" stroke="black" stroke-width="1.5" d="M411.38,-274.8C411.38,-274.8 255.38,-274.8 255.38,-274.8 249.38,-274.8 243.38,-268.8 243.38,-262.8 243.38,-262.8 243.38,-229.2 243.38,-229.2 243.38,-223.2 249.38,-217.2 255.38,-217.2 255.38,-217.2 411.38,-217.2 411.38,-217.2 417.38,-217.2 423.38,-223.2 423.38,-229.2 423.38,-229.2 423.38,-262.8 423.38,-262.8 423.38,-268.8 417.38,-274.8 411.38,-274.8"/>
<text xml:space="preserve" text-anchor="middle" x="333.38" y="-250.15" font-family="Inter" font-size="13.00" fill="#155e75">8. Perceiver</text>
<text xml:space="preserve" text-anchor="middle" x="333.38" y="-233.65" font-family="Inter" font-size="13.00" fill="#155e75">Deliver Inboxes</text>
</g>
<!-- step7&#45;&gt;step8 -->
<g id="edge9" class="edge">
<title>step7&#45;&gt;step8</title>
<path fill="none" stroke="#4f46e5" stroke-width="1.5" d="M333.38,-325.31C333.38,-313.15 333.38,-298.73 333.38,-285.6"/>
<polygon fill="#4f46e5" stroke="#4f46e5" stroke-width="1.5" points="336.18,-285.69 333.38,-277.69 330.58,-285.69 336.18,-285.69"/>
</g>
<!-- step9 -->
<g id="node11" class="node">
<title>step9</title>
<path fill="#ecfeff" stroke="black" stroke-width="1.5" d="M411.38,-166.2C411.38,-166.2 255.38,-166.2 255.38,-166.2 249.38,-166.2 243.38,-160.2 243.38,-154.2 243.38,-154.2 243.38,-120.6 243.38,-120.6 243.38,-114.6 249.38,-108.6 255.38,-108.6 255.38,-108.6 411.38,-108.6 411.38,-108.6 417.38,-108.6 423.38,-114.6 423.38,-120.6 423.38,-120.6 423.38,-154.2 423.38,-154.2 423.38,-160.2 417.38,-166.2 411.38,-166.2"/>
<text xml:space="preserve" text-anchor="middle" x="333.38" y="-141.55" font-family="Inter" font-size="13.00" fill="#155e75">9. Notify Agents</text>
<text xml:space="preserve" text-anchor="middle" x="333.38" y="-125.05" font-family="Inter" font-size="13.00" fill="#155e75">Via WebSocket</text>
</g>
<!-- step8&#45;&gt;step9 -->
<g id="edge10" class="edge">
<title>step8&#45;&gt;step9</title>
<path fill="none" stroke="#4f46e5" stroke-width="1.5" d="M333.38,-216.71C333.38,-204.55 333.38,-190.13 333.38,-177"/>
<polygon fill="#4f46e5" stroke="#4f46e5" stroke-width="1.5" points="336.18,-177.09 333.38,-169.09 330.58,-177.09 336.18,-177.09"/>
</g>
<!-- step10 -->
<g id="node12" class="node">
<title>step10</title>
<path fill="#f9fafb" stroke="black" stroke-width="1.5" d="M411.38,-57.6C411.38,-57.6 255.38,-57.6 255.38,-57.6 249.38,-57.6 243.38,-51.6 243.38,-45.6 243.38,-45.6 243.38,-12 243.38,-12 243.38,-6 249.38,0 255.38,0 255.38,0 411.38,0 411.38,0 417.38,0 423.38,-6 423.38,-12 423.38,-12 423.38,-45.6 423.38,-45.6 423.38,-51.6 417.38,-57.6 411.38,-57.6"/>
<text xml:space="preserve" text-anchor="middle" x="333.38" y="-32.95" font-family="Inter" font-size="13.00" fill="#374151">10. Record Event</text>
<text xml:space="preserve" text-anchor="middle" x="333.38" y="-16.45" font-family="Inter" font-size="13.00" fill="#374151">To Stream Log</text>
</g>
<!-- step9&#45;&gt;step10 -->
<g id="edge11" class="edge">
<title>step9&#45;&gt;step10</title>
<path fill="none" stroke="#4f46e5" stroke-width="1.5" d="M333.38,-108.11C333.38,-95.95 333.38,-81.53 333.38,-68.4"/>
<polygon fill="#4f46e5" stroke="#4f46e5" stroke-width="1.5" points="336.18,-68.49 333.38,-60.49 330.58,-68.49 336.18,-68.49"/>
</g>
</g>
</svg>
