<?xml version="1.0" encoding="UTF-8" standalone="no"?>
<!DOCTYPE svg PUBLIC "-//W3C//DTD SVG 1.1//EN"
 "http://www.w3.org/Graphics/SVG/1.1/DTD/svg11.dtd">
<!-- Generated by graphviz version 14.1.2 (0)
 -->
<!-- Title: NFSIISE_Architecture Pages: 1 -->
<svg width="1903pt" height="588pt"
 viewBox="0.00 0.00 1903.00 588.00" xmlns="http://www.w3.org/2000/svg" xmlns:xlink="http://www.w3.org/1999/xlink">
<g id="graph0" class="graph" transform="scale(2.08333 2.08333) rotate(0) translate(4 278.4)">
<title>NFSIISE_Architecture</title>
<!-- game -->
<g id="node1" class="node">
<title>game</title>
<path fill="#e8f5e9" stroke="#2d7d46" stroke-width="1.5" d="M519.8,-274.4C519.8,-274.4 385.4,-274.4 385.4,-274.4 379.4,-274.4 373.4,-268.4 373.4,-262.4 373.4,-262.4 373.4,-228.8 373.4,-228.8 373.4,-222.8 379.4,-216.8 385.4,-216.8 385.4,-216.8 519.8,-216.8 519.8,-216.8 525.8,-216.8 531.8,-222.8 531.8,-228.8 531.8,-228.8 531.8,-262.4 531.8,-262.4 531.8,-268.4 525.8,-274.4 519.8,-274.4"/>
<text xml:space="preserve" text-anchor="middle" x="452.6" y="-255.4" font-family="Arial" font-size="11.00" fill="#1a1a1a">NFS II SE</text>
<text xml:space="preserve" text-anchor="middle" x="452.6" y="-241.9" font-family="Arial" font-size="11.00" fill="#1a1a1a">Game Binary</text>
<text xml:space="preserve" text-anchor="middle" x="452.6" y="-228.4" font-family="Arial" font-size="11.00" fill="#1a1a1a">(x86 Assembly)</text>
</g>
<!-- glide2x -->
<g id="node2" class="node">
<title>glide2x</title>
<path fill="#e3f2fd" stroke="#3366cc" stroke-width="1.5" d="M103.2,-158.8C103.2,-158.8 12,-158.8 12,-158.8 6,-158.8 0,-152.8 0,-146.8 0,-146.8 0,-120.4 0,-120.4 0,-114.4 6,-108.4 12,-108.4 12,-108.4 103.2,-108.4 103.2,-108.4 109.2,-108.4 115.2,-114.4 115.2,-120.4 115.2,-120.4 115.2,-146.8 115.2,-146.8 115.2,-152.8 109.2,-158.8 103.2,-158.8"/>
<text xml:space="preserve" text-anchor="middle" x="57.6" y="-143.4" font-family="Arial" font-size="11.00" fill="#1a1a1a">Glide2x.c</text>
<text xml:space="preserve" text-anchor="middle" x="57.6" y="-129.9" font-family="Arial" font-size="11.00" fill="#1a1a1a">3dfx Glide API</text>
<text xml:space="preserve" text-anchor="middle" x="57.6" y="-116.4" font-family="Arial" font-size="11.00" fill="#1a1a1a">calls</text>
</g>
<!-- game&#45;&gt;glide2x -->
<g id="edge1" class="edge">
<title>game&#45;&gt;glide2x</title>
<path fill="none" stroke="#2d7d46" stroke-width="1.2" d="M372.67,-255C257.25,-255 57.6,-255 57.6,-255 57.6,-255 57.6,-169.16 57.6,-169.16"/>
<polygon fill="#2d7d46" stroke="#2d7d46" stroke-width="1.2" points="60.4,-169.16 57.6,-161.16 54.8,-169.16 60.4,-169.16"/>
</g>
<!-- dinput -->
<g id="node4" class="node">
<title>dinput</title>
<path fill="#e3f2fd" stroke="#3366cc" stroke-width="1.5" d="M261.2,-158.8C261.2,-158.8 170,-158.8 170,-158.8 164,-158.8 158,-152.8 158,-146.8 158,-146.8 158,-120.4 158,-120.4 158,-114.4 164,-108.4 170,-108.4 170,-108.4 261.2,-108.4 261.2,-108.4 267.2,-108.4 273.2,-114.4 273.2,-120.4 273.2,-120.4 273.2,-146.8 273.2,-146.8 273.2,-152.8 267.2,-158.8 261.2,-158.8"/>
<text xml:space="preserve" text-anchor="middle" x="215.6" y="-143.4" font-family="Arial" font-size="11.00" fill="#1a1a1a">DInput.c</text>
<text xml:space="preserve" text-anchor="middle" x="215.6" y="-129.9" font-family="Arial" font-size="11.00" fill="#1a1a1a">DirectInput</text>
<text xml:space="preserve" text-anchor="middle" x="215.6" y="-116.4" font-family="Arial" font-size="11.00" fill="#1a1a1a">joystick/FF</text>
</g>
<!-- game&#45;&gt;dinput -->
<g id="edge2" class="edge">
<title>game&#45;&gt;dinput</title>
<path fill="none" stroke="#2d7d46" stroke-width="1.2" d="M372.69,-236C303.89,-236 215.6,-236 215.6,-236 215.6,-236 215.6,-169.26 215.6,-169.26"/>
<polygon fill="#2d7d46" stroke="#2d7d46" stroke-width="1.2" points="218.4,-169.26 215.6,-161.26 212.8,-169.26 218.4,-169.26"/>
</g>
<!-- kernel32 -->
<g id="node6" class="node">
<title>kernel32</title>
<path fill="#e3f2fd" stroke="#3366cc" stroke-width="1.5" d="M419.2,-158.8C419.2,-158.8 328,-158.8 328,-158.8 322,-158.8 316,-152.8 316,-146.8 316,-146.8 316,-120.4 316,-120.4 316,-114.4 322,-108.4 328,-108.4 328,-108.4 419.2,-108.4 419.2,-108.4 425.2,-108.4 431.2,-114.4 431.2,-120.4 431.2,-120.4 431.2,-146.8 431.2,-146.8 431.2,-152.8 425.2,-158.8 419.2,-158.8"/>
<text xml:space="preserve" text-anchor="middle" x="373.6" y="-143.4" font-family="Arial" font-size="11.00" fill="#1a1a1a">Kernel32.c</text>
<text xml:space="preserve" text-anchor="middle" x="373.6" y="-129.9" font-family="Arial" font-size="11.00" fill="#1a1a1a">Windows kernel</text>
<text xml:space="preserve" text-anchor="middle" x="373.6" y="-116.4" font-family="Arial" font-size="11.00" fill="#1a1a1a">threads/files/mem</text>
</g>
<!-- game&#45;&gt;kernel32 -->
<g id="edge3" class="edge">
<title>game&#45;&gt;kernel32</title>
<path fill="none" stroke="#2d7d46" stroke-width="1.2" d="M402.3,-216.17C402.3,-216.17 402.3,-169.22 402.3,-169.22"/>
<polygon fill="#2d7d46" stroke="#2d7d46" stroke-width="1.2" points="405.1,-169.22 402.3,-161.22 399.5,-169.22 405.1,-169.22"/>
</g>
<!-- user32 -->
<g id="node8" class="node">
<title>user32</title>
<path fill="#e3f2fd" stroke="#3366cc" stroke-width="1.5" d="M577.2,-158.8C577.2,-158.8 486,-158.8 486,-158.8 480,-158.8 474,-152.8 474,-146.8 474,-146.8 474,-120.4 474,-120.4 474,-114.4 480,-108.4 486,-108.4 486,-108.4 577.2,-108.4 577.2,-108.4 583.2,-108.4 589.2,-114.4 589.2,-120.4 589.2,-120.4 589.2,-146.8 589.2,-146.8 589.2,-152.8 583.2,-158.8 577.2,-158.8"/>
<text xml:space="preserve" text-anchor="middle" x="531.6" y="-143.4" font-family="Arial" font-size="11.00" fill="#1a1a1a">User32.c</text>
<text xml:space="preserve" text-anchor="middle" x="531.6" y="-129.9" font-family="Arial" font-size="11.00" fill="#1a1a1a">Windows user</text>
<text xml:space="preserve" text-anchor="middle" x="531.6" y="-116.4" font-family="Arial" font-size="11.00" fill="#1a1a1a">window messages</text>
</g>
<!-- game&#45;&gt;user32 -->
<g id="edge4" class="edge">
<title>game&#45;&gt;user32</title>
<path fill="none" stroke="#2d7d46" stroke-width="1.2" d="M502.9,-216.17C502.9,-216.17 502.9,-169.22 502.9,-169.22"/>
<polygon fill="#2d7d46" stroke="#2d7d46" stroke-width="1.2" points="505.7,-169.22 502.9,-161.22 500.1,-169.22 505.7,-169.22"/>
</g>
<!-- wsock32 -->
<g id="node10" class="node">
<title>wsock32</title>
<path fill="#e3f2fd" stroke="#3366cc" stroke-width="1.5" d="M735.2,-158.8C735.2,-158.8 644,-158.8 644,-158.8 638,-158.8 632,-152.8 632,-146.8 632,-146.8 632,-120.4 632,-120.4 632,-114.4 638,-108.4 644,-108.4 644,-108.4 735.2,-108.4 735.2,-108.4 741.2,-108.4 747.2,-114.4 747.2,-120.4 747.2,-120.4 747.2,-146.8 747.2,-146.8 747.2,-152.8 741.2,-158.8 735.2,-158.8"/>
<text xml:space="preserve" text-anchor="middle" x="689.6" y="-143.4" font-family="Arial" font-size="11.00" fill="#1a1a1a">Wsock32.c</text>
<text xml:space="preserve" text-anchor="middle" x="689.6" y="-129.9" font-family="Arial" font-size="11.00" fill="#1a1a1a">Winsock</text>
<text xml:space="preserve" text-anchor="middle" x="689.6" y="-116.4" font-family="Arial" font-size="11.00" fill="#1a1a1a">TCP/UDP/IPX</text>
</g>
<!-- game&#45;&gt;wsock32 -->
<g id="edge5" class="edge">
<title>game&#45;&gt;wsock32</title>
<path fill="none" stroke="#2d7d46" stroke-width="1.2" d="M532.51,-236C601.31,-236 689.6,-236 689.6,-236 689.6,-236 689.6,-169.26 689.6,-169.26"/>
<polygon fill="#2d7d46" stroke="#2d7d46" stroke-width="1.2" points="692.4,-169.26 689.6,-161.26 686.8,-169.26 692.4,-169.26"/>
</g>
<!-- eacsnd -->
<g id="node12" class="node">
<title>eacsnd</title>
<path fill="#e3f2fd" stroke="#3366cc" stroke-width="1.5" d="M893.2,-158.8C893.2,-158.8 802,-158.8 802,-158.8 796,-158.8 790,-152.8 790,-146.8 790,-146.8 790,-120.4 790,-120.4 790,-114.4 796,-108.4 802,-108.4 802,-108.4 893.2,-108.4 893.2,-108.4 899.2,-108.4 905.2,-114.4 905.2,-120.4 905.2,-120.4 905.2,-146.8 905.2,-146.8 905.2,-152.8 899.2,-158.8 893.2,-158.8"/>
<text xml:space="preserve" text-anchor="middle" x="847.6" y="-143.4" font-family="Arial" font-size="11.00" fill="#1a1a1a">EAcsnd.c</text>
<text xml:space="preserve" text-anchor="middle" x="847.6" y="-129.9" font-family="Arial" font-size="11.00" fill="#1a1a1a">EA sound</text>
<text xml:space="preserve" text-anchor="middle" x="847.6" y="-116.4" font-family="Arial" font-size="11.00" fill="#1a1a1a">system</text>
</g>
<!-- game&#45;&gt;eacsnd -->
<g id="edge6" class="edge">
<title>game&#45;&gt;eacsnd</title>
<path fill="none" stroke="#2d7d46" stroke-width="1.2" d="M532.53,-255C647.95,-255 847.6,-255 847.6,-255 847.6,-255 847.6,-169.16 847.6,-169.16"/>
<polygon fill="#2d7d46" stroke="#2d7d46" stroke-width="1.2" points="850.4,-169.16 847.6,-161.16 844.8,-169.16 850.4,-169.16"/>
</g>
<!-- opengl -->
<g id="node3" class="node">
<title>opengl</title>
<path fill="#e0f7fa" stroke="#1a8a8a" stroke-width="1.5" d="M103.2,-50.4C103.2,-50.4 12,-50.4 12,-50.4 6,-50.4 0,-44.4 0,-38.4 0,-38.4 0,-12 0,-12 0,-6 6,0 12,0 12,0 103.2,0 103.2,0 109.2,0 115.2,-6 115.2,-12 115.2,-12 115.2,-38.4 115.2,-38.4 115.2,-44.4 109.2,-50.4 103.2,-50.4"/>
<text xml:space="preserve" text-anchor="middle" x="57.6" y="-28.25" font-family="Arial" font-size="11.00" fill="#1a1a1a">OpenGL</text>
<text xml:space="preserve" text-anchor="middle" x="57.6" y="-14.75" font-family="Arial" font-size="11.00" fill="#1a1a1a">1.x / 2.x / ES 2.0</text>
</g>
<!-- glide2x&#45;&gt;opengl -->
<g id="edge7" class="edge">
<title>glide2x&#45;&gt;opengl</title>
<path fill="none" stroke="#3366cc" stroke-width="1.2" d="M57.6,-107.91C57.6,-107.91 57.6,-60.9 57.6,-60.9"/>
<polygon fill="#3366cc" stroke="#3366cc" stroke-width="1.2" points="60.4,-60.9 57.6,-52.9 54.8,-60.9 60.4,-60.9"/>
</g>
<!-- sdl_joy -->
<g id="node5" class="node">
<title>sdl_joy</title>
<path fill="#f3e5f5" stroke="#7b5ea7" stroke-width="1.5" d="M261.2,-50.4C261.2,-50.4 170,-50.4 170,-50.4 164,-50.4 158,-44.4 158,-38.4 158,-38.4 158,-12 158,-12 158,-6 164,0 170,0 170,0 261.2,0 261.2,0 267.2,0 273.2,-6 273.2,-12 273.2,-12 273.2,-38.4 273.2,-38.4 273.2,-44.4 267.2,-50.4 261.2,-50.4"/>
<text xml:space="preserve" text-anchor="middle" x="215.6" y="-28.25" font-family="Arial" font-size="11.00" fill="#1a1a1a">SDL2 Joystick</text>
<text xml:space="preserve" text-anchor="middle" x="215.6" y="-14.75" font-family="Arial" font-size="11.00" fill="#1a1a1a">/ Haptic</text>
</g>
<!-- dinput&#45;&gt;sdl_joy -->
<g id="edge8" class="edge">
<title>dinput&#45;&gt;sdl_joy</title>
<path fill="none" stroke="#1a8a8a" stroke-width="1.2" d="M215.6,-107.91C215.6,-107.91 215.6,-60.9 215.6,-60.9"/>
<polygon fill="#1a8a8a" stroke="#1a8a8a" stroke-width="1.2" points="218.4,-60.9 215.6,-52.9 212.8,-60.9 218.4,-60.9"/>
</g>
<!-- posix_thr -->
<g id="node7" class="node">
<title>posix_thr</title>
<path fill="#e0f7fa" stroke="#1a8a8a" stroke-width="1.5" d="M419.2,-50.4C419.2,-50.4 328,-50.4 328,-50.4 322,-50.4 316,-44.4 316,-38.4 316,-38.4 316,-12 316,-12 316,-6 322,0 328,0 328,0 419.2,0 419.2,0 425.2,0 431.2,-6 431.2,-12 431.2,-12 431.2,-38.4 431.2,-38.4 431.2,-44.4 425.2,-50.4 419.2,-50.4"/>
<text xml:space="preserve" text-anchor="middle" x="373.6" y="-28.25" font-family="Arial" font-size="11.00" fill="#1a1a1a">POSIX / SDL</text>
<text xml:space="preserve" text-anchor="middle" x="373.6" y="-14.75" font-family="Arial" font-size="11.00" fill="#1a1a1a">Threads</text>
</g>
<!-- kernel32&#45;&gt;posix_thr -->
<g id="edge9" class="edge">
<title>kernel32&#45;&gt;posix_thr</title>
<path fill="none" stroke="#3366cc" stroke-width="1.2" d="M373.6,-107.91C373.6,-107.91 373.6,-60.9 373.6,-60.9"/>
<polygon fill="#3366cc" stroke="#3366cc" stroke-width="1.2" points="376.4,-60.9 373.6,-52.9 370.8,-60.9 376.4,-60.9"/>
</g>
<!-- sdl_win -->
<g id="node9" class="node">
<title>sdl_win</title>
<path fill="#f3e5f5" stroke="#7b5ea7" stroke-width="1.5" d="M577.2,-50.4C577.2,-50.4 486,-50.4 486,-50.4 480,-50.4 474,-44.4 474,-38.4 474,-38.4 474,-12 474,-12 474,-6 480,0 486,0 486,0 577.2,0 577.2,0 583.2,0 589.2,-6 589.2,-12 589.2,-12 589.2,-38.4 589.2,-38.4 589.2,-44.4 583.2,-50.4 577.2,-50.4"/>
<text xml:space="preserve" text-anchor="middle" x="531.6" y="-28.25" font-family="Arial" font-size="11.00" fill="#1a1a1a">SDL Window</text>
<text xml:space="preserve" text-anchor="middle" x="531.6" y="-14.75" font-family="Arial" font-size="11.00" fill="#1a1a1a">Events</text>
</g>
<!-- user32&#45;&gt;sdl_win -->
<g id="edge10" class="edge">
<title>user32&#45;&gt;sdl_win</title>
<path fill="none" stroke="#1a8a8a" stroke-width="1.2" d="M531.6,-107.91C531.6,-107.91 531.6,-60.9 531.6,-60.9"/>
<polygon fill="#1a8a8a" stroke="#1a8a8a" stroke-width="1.2" points="534.4,-60.9 531.6,-52.9 528.8,-60.9 534.4,-60.9"/>
</g>
<!-- posix_sock -->
<g id="node11" class="node">
<title>posix_sock</title>
<path fill="#e0f7fa" stroke="#1a8a8a" stroke-width="1.5" d="M735.2,-50.4C735.2,-50.4 644,-50.4 644,-50.4 638,-50.4 632,-44.4 632,-38.4 632,-38.4 632,-12 632,-12 632,-6 638,0 644,0 644,0 735.2,0 735.2,0 741.2,0 747.2,-6 747.2,-12 747.2,-12 747.2,-38.4 747.2,-38.4 747.2,-44.4 741.2,-50.4 735.2,-50.4"/>
<text xml:space="preserve" text-anchor="middle" x="689.6" y="-28.25" font-family="Arial" font-size="11.00" fill="#1a1a1a">POSIX</text>
<text xml:space="preserve" text-anchor="middle" x="689.6" y="-14.75" font-family="Arial" font-size="11.00" fill="#1a1a1a">Sockets</text>
</g>
<!-- wsock32&#45;&gt;posix_sock -->
<g id="edge11" class="edge">
<title>wsock32&#45;&gt;posix_sock</title>
<path fill="none" stroke="#3366cc" stroke-width="1.2" d="M689.6,-107.91C689.6,-107.91 689.6,-60.9 689.6,-60.9"/>
<polygon fill="#3366cc" stroke="#3366cc" stroke-width="1.2" points="692.4,-60.9 689.6,-52.9 686.8,-60.9 692.4,-60.9"/>
</g>
<!-- sdl_audio -->
<g id="node13" class="node">
<title>sdl_audio</title>
<path fill="#f3e5f5" stroke="#7b5ea7" stroke-width="1.5" d="M893.2,-50.4C893.2,-50.4 802,-50.4 802,-50.4 796,-50.4 790,-44.4 790,-38.4 790,-38.4 790,-12 790,-12 790,-6 796,0 802,0 802,0 893.2,0 893.2,0 899.2,0 905.2,-6 905.2,-12 905.2,-12 905.2,-38.4 905.2,-38.4 905.2,-44.4 899.2,-50.4 893.2,-50.4"/>
<text xml:space="preserve" text-anchor="middle" x="847.6" y="-28.25" font-family="Arial" font-size="11.00" fill="#1a1a1a">SDL Audio</text>
<text xml:space="preserve" text-anchor="middle" x="847.6" y="-14.75" font-family="Arial" font-size="11.00" fill="#1a1a1a">22050/44100Hz</text>
</g>
<!-- eacsnd&#45;&gt;sdl_audio -->
<g id="edge12" class="edge">
<title>eacsnd&#45;&gt;sdl_audio</title>
<path fill="none" stroke="#1a8a8a" stroke-width="1.2" d="M847.6,-107.91C847.6,-107.91 847.6,-60.9 847.6,-60.9"/>
<polygon fill="#1a8a8a" stroke="#1a8a8a" stroke-width="1.2" points="850.4,-60.9 847.6,-52.9 844.8,-60.9 850.4,-60.9"/>
</g>
</g>
</svg>
