<?xml version="1.0" encoding="UTF-8" standalone="no"?>
<!DOCTYPE svg PUBLIC "-//W3C//DTD SVG 1.1//EN"
 "http://www.w3.org/Graphics/SVG/1.1/DTD/svg11.dtd">
<!-- Generated by graphviz version 14.1.2 (0)
 -->
<!-- Title: supertonic_features Pages: 1 -->
<svg width="3356pt" height="329pt"
 viewBox="0.00 0.00 3356.00 329.00" xmlns="http://www.w3.org/2000/svg" xmlns:xlink="http://www.w3.org/1999/xlink">
<g id="graph0" class="graph" transform="scale(1 1) rotate(0) translate(4 324.5)">
<title>supertonic_features</title>
<text xml:space="preserve" text-anchor="middle" x="1674" y="-7.2" font-family="Times New Roman,serif" font-size="14.00">Supertonic &#45; Key Features and Platform Support</text>
<!-- supertonic -->
<g id="node1" class="node">
<title>supertonic</title>
<path fill="#2196f3" stroke="black" d="M2783.2,-320.5C2783.2,-320.5 2555.2,-320.5 2555.2,-320.5 2549.2,-320.5 2543.2,-314.5 2543.2,-308.5 2543.2,-308.5 2543.2,-260.5 2543.2,-260.5 2543.2,-254.5 2549.2,-248.5 2555.2,-248.5 2555.2,-248.5 2783.2,-248.5 2783.2,-248.5 2789.2,-248.5 2795.2,-254.5 2795.2,-260.5 2795.2,-260.5 2795.2,-308.5 2795.2,-308.5 2795.2,-314.5 2789.2,-320.5 2783.2,-320.5"/>
<text xml:space="preserve" text-anchor="middle" x="2669.2" y="-287.15" font-family="Arial Bold" font-size="13.00" fill="white">Supertonic</text>
<text xml:space="preserve" text-anchor="middle" x="2669.2" y="-272.15" font-family="Arial Bold" font-size="13.00" fill="white">On&#45;Device TTS Engine</text>
</g>
<!-- f_ondevice -->
<g id="node2" class="node">
<title>f_ondevice</title>
<path fill="#4caf50" stroke="black" d="M1103,-190.5C1103,-190.5 925.4,-190.5 925.4,-190.5 919.4,-190.5 913.4,-184.5 913.4,-178.5 913.4,-178.5 913.4,-144.9 913.4,-144.9 913.4,-138.9 919.4,-132.9 925.4,-132.9 925.4,-132.9 1103,-132.9 1103,-132.9 1109,-132.9 1115,-138.9 1115,-144.9 1115,-144.9 1115,-178.5 1115,-178.5 1115,-184.5 1109,-190.5 1103,-190.5"/>
<text xml:space="preserve" text-anchor="middle" x="1014.2" y="-164.75" font-family="Arial" font-size="11.00" fill="white">On&#45;Device</text>
<text xml:space="preserve" text-anchor="middle" x="1014.2" y="-151.25" font-family="Arial" font-size="11.00" fill="white">Inference</text>
</g>
<!-- supertonic&#45;&gt;f_ondevice -->
<g id="edge1" class="edge">
<title>supertonic&#45;&gt;f_ondevice</title>
<path fill="none" stroke="#4caf50" stroke-width="2" d="M2542.77,-296.5C2155.89,-296.5 1014.2,-296.5 1014.2,-296.5 1014.2,-296.5 1014.2,-203.98 1014.2,-203.98"/>
<polygon fill="#4caf50" stroke="#4caf50" stroke-width="2" points="1017.7,-203.98 1014.2,-193.98 1010.7,-203.98 1017.7,-203.98"/>
</g>
<!-- f_multilingual -->
<g id="node3" class="node">
<title>f_multilingual</title>
<path fill="#4caf50" stroke="black" d="M2412,-190.5C2412,-190.5 2234.4,-190.5 2234.4,-190.5 2228.4,-190.5 2222.4,-184.5 2222.4,-178.5 2222.4,-178.5 2222.4,-144.9 2222.4,-144.9 2222.4,-138.9 2228.4,-132.9 2234.4,-132.9 2234.4,-132.9 2412,-132.9 2412,-132.9 2418,-132.9 2424,-138.9 2424,-144.9 2424,-144.9 2424,-178.5 2424,-178.5 2424,-184.5 2418,-190.5 2412,-190.5"/>
<text xml:space="preserve" text-anchor="middle" x="2323.2" y="-164.75" font-family="Arial" font-size="11.00" fill="white">31 Language</text>
<text xml:space="preserve" text-anchor="middle" x="2323.2" y="-151.25" font-family="Arial" font-size="11.00" fill="white">Support</text>
</g>
<!-- supertonic&#45;&gt;f_multilingual -->
<g id="edge2" class="edge">
<title>supertonic&#45;&gt;f_multilingual</title>
<path fill="none" stroke="#4caf50" stroke-width="2" d="M2542.82,-272.5C2443.98,-272.5 2323.2,-272.5 2323.2,-272.5 2323.2,-272.5 2323.2,-203.84 2323.2,-203.84"/>
<polygon fill="#4caf50" stroke="#4caf50" stroke-width="2" points="2326.7,-203.84 2323.2,-193.84 2319.7,-203.84 2326.7,-203.84"/>
</g>
<!-- f_fast -->
<g id="node4" class="node">
<title>f_fast</title>
<path fill="#4caf50" stroke="black" d="M2643,-190.5C2643,-190.5 2465.4,-190.5 2465.4,-190.5 2459.4,-190.5 2453.4,-184.5 2453.4,-178.5 2453.4,-178.5 2453.4,-144.9 2453.4,-144.9 2453.4,-138.9 2459.4,-132.9 2465.4,-132.9 2465.4,-132.9 2643,-132.9 2643,-132.9 2649,-132.9 2655,-138.9 2655,-144.9 2655,-144.9 2655,-178.5 2655,-178.5 2655,-184.5 2649,-190.5 2643,-190.5"/>
<text xml:space="preserve" text-anchor="middle" x="2554.2" y="-164.75" font-family="Arial" font-size="11.00" fill="white">Lightning&#45;Fast</text>
<text xml:space="preserve" text-anchor="middle" x="2554.2" y="-151.25" font-family="Arial" font-size="11.00" fill="white">CPU Inference</text>
</g>
<!-- supertonic&#45;&gt;f_fast -->
<g id="edge3" class="edge">
<title>supertonic&#45;&gt;f_fast</title>
<path fill="none" stroke="#4caf50" stroke-width="2" d="M2599.1,-248.32C2599.1,-248.32 2599.1,-203.65 2599.1,-203.65"/>
<polygon fill="#4caf50" stroke="#4caf50" stroke-width="2" points="2602.6,-203.65 2599.1,-193.65 2595.6,-203.65 2602.6,-203.65"/>
</g>
<!-- f_expressive -->
<g id="node5" class="node">
<title>f_expressive</title>
<path fill="#4caf50" stroke="black" d="M2874,-190.5C2874,-190.5 2696.4,-190.5 2696.4,-190.5 2690.4,-190.5 2684.4,-184.5 2684.4,-178.5 2684.4,-178.5 2684.4,-144.9 2684.4,-144.9 2684.4,-138.9 2690.4,-132.9 2696.4,-132.9 2696.4,-132.9 2874,-132.9 2874,-132.9 2880,-132.9 2886,-138.9 2886,-144.9 2886,-144.9 2886,-178.5 2886,-178.5 2886,-184.5 2880,-190.5 2874,-190.5"/>
<text xml:space="preserve" text-anchor="middle" x="2785.2" y="-164.75" font-family="Arial" font-size="11.00" fill="white">Expressive Tags</text>
<text xml:space="preserve" text-anchor="middle" x="2785.2" y="-151.25" font-family="Arial" font-size="11.00" fill="white">&lt;laugh&gt; &lt;breath&gt;</text>
</g>
<!-- supertonic&#45;&gt;f_expressive -->
<g id="edge4" class="edge">
<title>supertonic&#45;&gt;f_expressive</title>
<path fill="none" stroke="#4caf50" stroke-width="2" d="M2739.8,-248.32C2739.8,-248.32 2739.8,-203.65 2739.8,-203.65"/>
<polygon fill="#4caf50" stroke="#4caf50" stroke-width="2" points="2743.3,-203.65 2739.8,-193.65 2736.3,-203.65 2743.3,-203.65"/>
</g>
<!-- f_compact -->
<g id="node6" class="node">
<title>f_compact</title>
<path fill="#4caf50" stroke="black" d="M3105,-190.5C3105,-190.5 2927.4,-190.5 2927.4,-190.5 2921.4,-190.5 2915.4,-184.5 2915.4,-178.5 2915.4,-178.5 2915.4,-144.9 2915.4,-144.9 2915.4,-138.9 2921.4,-132.9 2927.4,-132.9 2927.4,-132.9 3105,-132.9 3105,-132.9 3111,-132.9 3117,-138.9 3117,-144.9 3117,-144.9 3117,-178.5 3117,-178.5 3117,-184.5 3111,-190.5 3105,-190.5"/>
<text xml:space="preserve" text-anchor="middle" x="3016.2" y="-164.75" font-family="Arial" font-size="11.00" fill="white">Compact Model</text>
<text xml:space="preserve" text-anchor="middle" x="3016.2" y="-151.25" font-family="Arial" font-size="11.00" fill="white">99M Parameters</text>
</g>
<!-- supertonic&#45;&gt;f_compact -->
<g id="edge5" class="edge">
<title>supertonic&#45;&gt;f_compact</title>
<path fill="none" stroke="#4caf50" stroke-width="2" d="M2795.46,-272.5C2894.67,-272.5 3016.2,-272.5 3016.2,-272.5 3016.2,-272.5 3016.2,-203.84 3016.2,-203.84"/>
<polygon fill="#4caf50" stroke="#4caf50" stroke-width="2" points="3019.7,-203.84 3016.2,-193.84 3012.7,-203.84 3019.7,-203.84"/>
</g>
<!-- f_privacy -->
<g id="node7" class="node">
<title>f_privacy</title>
<path fill="#4caf50" stroke="black" d="M3336,-190.5C3336,-190.5 3158.4,-190.5 3158.4,-190.5 3152.4,-190.5 3146.4,-184.5 3146.4,-178.5 3146.4,-178.5 3146.4,-144.9 3146.4,-144.9 3146.4,-138.9 3152.4,-132.9 3158.4,-132.9 3158.4,-132.9 3336,-132.9 3336,-132.9 3342,-132.9 3348,-138.9 3348,-144.9 3348,-144.9 3348,-178.5 3348,-178.5 3348,-184.5 3342,-190.5 3336,-190.5"/>
<text xml:space="preserve" text-anchor="middle" x="3247.2" y="-164.75" font-family="Arial" font-size="11.00" fill="white">Zero Network</text>
<text xml:space="preserve" text-anchor="middle" x="3247.2" y="-151.25" font-family="Arial" font-size="11.00" fill="white">Dependency</text>
</g>
<!-- supertonic&#45;&gt;f_privacy -->
<g id="edge6" class="edge">
<title>supertonic&#45;&gt;f_privacy</title>
<path fill="none" stroke="#4caf50" stroke-width="2" d="M2795.69,-296.5C2965.79,-296.5 3247.2,-296.5 3247.2,-296.5 3247.2,-296.5 3247.2,-203.98 3247.2,-203.98"/>
<polygon fill="#4caf50" stroke="#4caf50" stroke-width="2" points="3250.7,-203.98 3247.2,-193.98 3243.7,-203.98 3250.7,-203.98"/>
</g>
<!-- p_python -->
<g id="node8" class="node">
<title>p_python</title>
<path fill="#ff9800" stroke="black" d="M146.4,-74.9C146.4,-74.9 12,-74.9 12,-74.9 6,-74.9 0,-68.9 0,-62.9 0,-62.9 0,-36.5 0,-36.5 0,-30.5 6,-24.5 12,-24.5 12,-24.5 146.4,-24.5 146.4,-24.5 152.4,-24.5 158.4,-30.5 158.4,-36.5 158.4,-36.5 158.4,-62.9 158.4,-62.9 158.4,-68.9 152.4,-74.9 146.4,-74.9"/>
<text xml:space="preserve" text-anchor="middle" x="79.2" y="-46.2" font-family="Arial" font-size="10.00" fill="white">Python</text>
</g>
<!-- f_ondevice&#45;&gt;p_python -->
<g id="edge7" class="edge">
<title>f_ondevice&#45;&gt;p_python</title>
<path fill="none" stroke="#ff9800" stroke-width="1.5" d="M913.25,-178.5C671.48,-178.5 79.2,-178.5 79.2,-178.5 79.2,-178.5 79.2,-87.42 79.2,-87.42"/>
<polygon fill="#ff9800" stroke="#ff9800" stroke-width="1.5" points="82.7,-87.42 79.2,-77.42 75.7,-87.42 82.7,-87.42"/>
</g>
<!-- p_nodejs -->
<g id="node9" class="node">
<title>p_nodejs</title>
<path fill="#ff9800" stroke="black" d="M333.4,-74.9C333.4,-74.9 199,-74.9 199,-74.9 193,-74.9 187,-68.9 187,-62.9 187,-62.9 187,-36.5 187,-36.5 187,-30.5 193,-24.5 199,-24.5 199,-24.5 333.4,-24.5 333.4,-24.5 339.4,-24.5 345.4,-30.5 345.4,-36.5 345.4,-36.5 345.4,-62.9 345.4,-62.9 345.4,-68.9 339.4,-74.9 333.4,-74.9"/>
<text xml:space="preserve" text-anchor="middle" x="266.2" y="-46.2" font-family="Arial" font-size="10.00" fill="white">Node.js</text>
</g>
<!-- f_ondevice&#45;&gt;p_nodejs -->
<g id="edge8" class="edge">
<title>f_ondevice&#45;&gt;p_nodejs</title>
<path fill="none" stroke="#ff9800" stroke-width="1.5" d="M912.93,-167.5C708.59,-167.5 266.2,-167.5 266.2,-167.5 266.2,-167.5 266.2,-87.53 266.2,-87.53"/>
<polygon fill="#ff9800" stroke="#ff9800" stroke-width="1.5" points="269.7,-87.53 266.2,-77.53 262.7,-87.53 269.7,-87.53"/>
</g>
<!-- p_browser -->
<g id="node10" class="node">
<title>p_browser</title>
<path fill="#ff9800" stroke="black" d="M520.4,-74.9C520.4,-74.9 386,-74.9 386,-74.9 380,-74.9 374,-68.9 374,-62.9 374,-62.9 374,-36.5 374,-36.5 374,-30.5 380,-24.5 386,-24.5 386,-24.5 520.4,-24.5 520.4,-24.5 526.4,-24.5 532.4,-30.5 532.4,-36.5 532.4,-36.5 532.4,-62.9 532.4,-62.9 532.4,-68.9 526.4,-74.9 520.4,-74.9"/>
<text xml:space="preserve" text-anchor="middle" x="453.2" y="-52.2" font-family="Arial" font-size="10.00" fill="white">Browser</text>
<text xml:space="preserve" text-anchor="middle" x="453.2" y="-40.2" font-family="Arial" font-size="10.00" fill="white">(WebGPU)</text>
</g>
<!-- f_ondevice&#45;&gt;p_browser -->
<g id="edge9" class="edge">
<title>f_ondevice&#45;&gt;p_browser</title>
<path fill="none" stroke="#ff9800" stroke-width="1.5" d="M912.93,-155.5C751.34,-155.5 453.2,-155.5 453.2,-155.5 453.2,-155.5 453.2,-87.58 453.2,-87.58"/>
<polygon fill="#ff9800" stroke="#ff9800" stroke-width="1.5" points="456.7,-87.58 453.2,-77.58 449.7,-87.58 456.7,-87.58"/>
</g>
<!-- p_ios -->
<g id="node11" class="node">
<title>p_ios</title>
<path fill="#ff9800" stroke="black" d="M707.4,-74.9C707.4,-74.9 573,-74.9 573,-74.9 567,-74.9 561,-68.9 561,-62.9 561,-62.9 561,-36.5 561,-36.5 561,-30.5 567,-24.5 573,-24.5 573,-24.5 707.4,-24.5 707.4,-24.5 713.4,-24.5 719.4,-30.5 719.4,-36.5 719.4,-36.5 719.4,-62.9 719.4,-62.9 719.4,-68.9 713.4,-74.9 707.4,-74.9"/>
<text xml:space="preserve" text-anchor="middle" x="640.2" y="-52.2" font-family="Arial" font-size="10.00" fill="white">iOS</text>
<text xml:space="preserve" text-anchor="middle" x="640.2" y="-40.2" font-family="Arial" font-size="10.00" fill="white">(Swift)</text>
</g>
<!-- f_ondevice&#45;&gt;p_ios -->
<g id="edge10" class="edge">
<title>f_ondevice&#45;&gt;p_ios</title>
<path fill="none" stroke="#ff9800" stroke-width="1.5" d="M912.99,-144.5C802.23,-144.5 640.2,-144.5 640.2,-144.5 640.2,-144.5 640.2,-87.37 640.2,-87.37"/>
<polygon fill="#ff9800" stroke="#ff9800" stroke-width="1.5" points="643.7,-87.37 640.2,-77.37 636.7,-87.38 643.7,-87.37"/>
</g>
<!-- p_android -->
<g id="node12" class="node">
<title>p_android</title>
<path fill="#ff9800" stroke="black" d="M894.4,-74.9C894.4,-74.9 760,-74.9 760,-74.9 754,-74.9 748,-68.9 748,-62.9 748,-62.9 748,-36.5 748,-36.5 748,-30.5 754,-24.5 760,-24.5 760,-24.5 894.4,-24.5 894.4,-24.5 900.4,-24.5 906.4,-30.5 906.4,-36.5 906.4,-36.5 906.4,-62.9 906.4,-62.9 906.4,-68.9 900.4,-74.9 894.4,-74.9"/>
<text xml:space="preserve" text-anchor="middle" x="827.2" y="-46.2" font-family="Arial" font-size="10.00" fill="white">Flutter</text>
</g>
<!-- f_ondevice&#45;&gt;p_android -->
<g id="edge11" class="edge">
<title>f_ondevice&#45;&gt;p_android</title>
<path fill="none" stroke="#ff9800" stroke-width="1.5" d="M924.2,-132.51C924.2,-99.27 924.2,-49.5 924.2,-49.5 924.2,-49.5 919.13,-49.5 919.13,-49.5"/>
<polygon fill="#ff9800" stroke="#ff9800" stroke-width="1.5" points="919.13,-46 909.13,-49.5 919.13,-53 919.13,-46"/>
</g>
<!-- p_cpp -->
<g id="node13" class="node">
<title>p_cpp</title>
<path fill="#ff9800" stroke="black" d="M1081.4,-74.9C1081.4,-74.9 947,-74.9 947,-74.9 941,-74.9 935,-68.9 935,-62.9 935,-62.9 935,-36.5 935,-36.5 935,-30.5 941,-24.5 947,-24.5 947,-24.5 1081.4,-24.5 1081.4,-24.5 1087.4,-24.5 1093.4,-30.5 1093.4,-36.5 1093.4,-36.5 1093.4,-62.9 1093.4,-62.9 1093.4,-68.9 1087.4,-74.9 1081.4,-74.9"/>
<text xml:space="preserve" text-anchor="middle" x="1014.2" y="-46.2" font-family="Arial" font-size="10.00" fill="white">C++</text>
</g>
<!-- f_ondevice&#45;&gt;p_cpp -->
<g id="edge12" class="edge">
<title>f_ondevice&#45;&gt;p_cpp</title>
<path fill="none" stroke="#ff9800" stroke-width="1.5" d="M1014.2,-132.57C1014.2,-132.57 1014.2,-87.53 1014.2,-87.53"/>
<polygon fill="#ff9800" stroke="#ff9800" stroke-width="1.5" points="1017.7,-87.53 1014.2,-77.53 1010.7,-87.53 1017.7,-87.53"/>
</g>
<!-- p_csharp -->
<g id="node14" class="node">
<title>p_csharp</title>
<path fill="#ff9800" stroke="black" d="M1268.4,-74.9C1268.4,-74.9 1134,-74.9 1134,-74.9 1128,-74.9 1122,-68.9 1122,-62.9 1122,-62.9 1122,-36.5 1122,-36.5 1122,-30.5 1128,-24.5 1134,-24.5 1134,-24.5 1268.4,-24.5 1268.4,-24.5 1274.4,-24.5 1280.4,-30.5 1280.4,-36.5 1280.4,-36.5 1280.4,-62.9 1280.4,-62.9 1280.4,-68.9 1274.4,-74.9 1268.4,-74.9"/>
<text xml:space="preserve" text-anchor="middle" x="1201.2" y="-46.2" font-family="Arial" font-size="10.00" fill="white">C#/.NET</text>
</g>
<!-- f_ondevice&#45;&gt;p_csharp -->
<g id="edge13" class="edge">
<title>f_ondevice&#45;&gt;p_csharp</title>
<path fill="none" stroke="#ff9800" stroke-width="1.5" d="M1104.2,-132.51C1104.2,-99.27 1104.2,-49.5 1104.2,-49.5 1104.2,-49.5 1109.27,-49.5 1109.27,-49.5"/>
<polygon fill="#ff9800" stroke="#ff9800" stroke-width="1.5" points="1109.27,-53 1119.27,-49.5 1109.27,-46 1109.27,-53"/>
</g>
<!-- p_go -->
<g id="node15" class="node">
<title>p_go</title>
<path fill="#ff9800" stroke="black" d="M1455.4,-74.9C1455.4,-74.9 1321,-74.9 1321,-74.9 1315,-74.9 1309,-68.9 1309,-62.9 1309,-62.9 1309,-36.5 1309,-36.5 1309,-30.5 1315,-24.5 1321,-24.5 1321,-24.5 1455.4,-24.5 1455.4,-24.5 1461.4,-24.5 1467.4,-30.5 1467.4,-36.5 1467.4,-36.5 1467.4,-62.9 1467.4,-62.9 1467.4,-68.9 1461.4,-74.9 1455.4,-74.9"/>
<text xml:space="preserve" text-anchor="middle" x="1388.2" y="-46.2" font-family="Arial" font-size="10.00" fill="white">Go</text>
</g>
<!-- f_ondevice&#45;&gt;p_go -->
<g id="edge14" class="edge">
<title>f_ondevice&#45;&gt;p_go</title>
<path fill="none" stroke="#ff9800" stroke-width="1.5" d="M1115.41,-155.5C1226.17,-155.5 1388.2,-155.5 1388.2,-155.5 1388.2,-155.5 1388.2,-87.58 1388.2,-87.58"/>
<polygon fill="#ff9800" stroke="#ff9800" stroke-width="1.5" points="1391.7,-87.58 1388.2,-77.58 1384.7,-87.58 1391.7,-87.58"/>
</g>
<!-- p_rust -->
<g id="node16" class="node">
<title>p_rust</title>
<path fill="#ff9800" stroke="black" d="M1642.4,-74.9C1642.4,-74.9 1508,-74.9 1508,-74.9 1502,-74.9 1496,-68.9 1496,-62.9 1496,-62.9 1496,-36.5 1496,-36.5 1496,-30.5 1502,-24.5 1508,-24.5 1508,-24.5 1642.4,-24.5 1642.4,-24.5 1648.4,-24.5 1654.4,-30.5 1654.4,-36.5 1654.4,-36.5 1654.4,-62.9 1654.4,-62.9 1654.4,-68.9 1648.4,-74.9 1642.4,-74.9"/>
<text xml:space="preserve" text-anchor="middle" x="1575.2" y="-46.2" font-family="Arial" font-size="10.00" fill="white">Rust</text>
</g>
<!-- f_ondevice&#45;&gt;p_rust -->
<g id="edge15" class="edge">
<title>f_ondevice&#45;&gt;p_rust</title>
<path fill="none" stroke="#ff9800" stroke-width="1.5" d="M1115.47,-167.5C1277.06,-167.5 1575.2,-167.5 1575.2,-167.5 1575.2,-167.5 1575.2,-87.53 1575.2,-87.53"/>
<polygon fill="#ff9800" stroke="#ff9800" stroke-width="1.5" points="1578.7,-87.53 1575.2,-77.53 1571.7,-87.53 1578.7,-87.53"/>
</g>
<!-- p_java -->
<g id="node17" class="node">
<title>p_java</title>
<path fill="#ff9800" stroke="black" d="M1829.4,-74.9C1829.4,-74.9 1695,-74.9 1695,-74.9 1689,-74.9 1683,-68.9 1683,-62.9 1683,-62.9 1683,-36.5 1683,-36.5 1683,-30.5 1689,-24.5 1695,-24.5 1695,-24.5 1829.4,-24.5 1829.4,-24.5 1835.4,-24.5 1841.4,-30.5 1841.4,-36.5 1841.4,-36.5 1841.4,-62.9 1841.4,-62.9 1841.4,-68.9 1835.4,-74.9 1829.4,-74.9"/>
<text xml:space="preserve" text-anchor="middle" x="1762.2" y="-46.2" font-family="Arial" font-size="10.00" fill="white">Java</text>
</g>
<!-- f_ondevice&#45;&gt;p_java -->
<g id="edge16" class="edge">
<title>f_ondevice&#45;&gt;p_java</title>
<path fill="none" stroke="#ff9800" stroke-width="1.5" d="M1115.47,-178.5C1319.81,-178.5 1762.2,-178.5 1762.2,-178.5 1762.2,-178.5 1762.2,-87.42 1762.2,-87.42"/>
<polygon fill="#ff9800" stroke="#ff9800" stroke-width="1.5" points="1765.7,-87.42 1762.2,-77.42 1758.7,-87.42 1765.7,-87.42"/>
</g>
<!-- l_en -->
<g id="node18" class="node">
<title>l_en</title>
<path fill="#9c27b0" stroke="black" d="M2016.4,-74.9C2016.4,-74.9 1882,-74.9 1882,-74.9 1876,-74.9 1870,-68.9 1870,-62.9 1870,-62.9 1870,-36.5 1870,-36.5 1870,-30.5 1876,-24.5 1882,-24.5 1882,-24.5 2016.4,-24.5 2016.4,-24.5 2022.4,-24.5 2028.4,-30.5 2028.4,-36.5 2028.4,-36.5 2028.4,-62.9 2028.4,-62.9 2028.4,-68.9 2022.4,-74.9 2016.4,-74.9"/>
<text xml:space="preserve" text-anchor="middle" x="1949.2" y="-46.2" font-family="Arial" font-size="10.00" fill="white">English</text>
</g>
<!-- f_multilingual&#45;&gt;l_en -->
<g id="edge17" class="edge">
<title>f_multilingual&#45;&gt;l_en</title>
<path fill="none" stroke="#9c27b0" stroke-width="1.5" d="M2221.99,-144.5C2111.23,-144.5 1949.2,-144.5 1949.2,-144.5 1949.2,-144.5 1949.2,-87.37 1949.2,-87.37"/>
<polygon fill="#9c27b0" stroke="#9c27b0" stroke-width="1.5" points="1952.7,-87.37 1949.2,-77.37 1945.7,-87.38 1952.7,-87.37"/>
</g>
<!-- l_ko -->
<g id="node19" class="node">
<title>l_ko</title>
<path fill="#9c27b0" stroke="black" d="M2203.4,-74.9C2203.4,-74.9 2069,-74.9 2069,-74.9 2063,-74.9 2057,-68.9 2057,-62.9 2057,-62.9 2057,-36.5 2057,-36.5 2057,-30.5 2063,-24.5 2069,-24.5 2069,-24.5 2203.4,-24.5 2203.4,-24.5 2209.4,-24.5 2215.4,-30.5 2215.4,-36.5 2215.4,-36.5 2215.4,-62.9 2215.4,-62.9 2215.4,-68.9 2209.4,-74.9 2203.4,-74.9"/>
<text xml:space="preserve" text-anchor="middle" x="2136.2" y="-46.2" font-family="Arial" font-size="10.00" fill="white">Korean</text>
</g>
<!-- f_multilingual&#45;&gt;l_ko -->
<g id="edge18" class="edge">
<title>f_multilingual&#45;&gt;l_ko</title>
<path fill="none" stroke="#9c27b0" stroke-width="1.5" d="M2233.2,-132.51C2233.2,-99.27 2233.2,-49.5 2233.2,-49.5 2233.2,-49.5 2228.13,-49.5 2228.13,-49.5"/>
<polygon fill="#9c27b0" stroke="#9c27b0" stroke-width="1.5" points="2228.13,-46 2218.13,-49.5 2228.13,-53 2228.13,-46"/>
</g>
<!-- l_ja -->
<g id="node20" class="node">
<title>l_ja</title>
<path fill="#9c27b0" stroke="black" d="M2390.4,-74.9C2390.4,-74.9 2256,-74.9 2256,-74.9 2250,-74.9 2244,-68.9 2244,-62.9 2244,-62.9 2244,-36.5 2244,-36.5 2244,-30.5 2250,-24.5 2256,-24.5 2256,-24.5 2390.4,-24.5 2390.4,-24.5 2396.4,-24.5 2402.4,-30.5 2402.4,-36.5 2402.4,-36.5 2402.4,-62.9 2402.4,-62.9 2402.4,-68.9 2396.4,-74.9 2390.4,-74.9"/>
<text xml:space="preserve" text-anchor="middle" x="2323.2" y="-46.2" font-family="Arial" font-size="10.00" fill="white">Japanese</text>
</g>
<!-- f_multilingual&#45;&gt;l_ja -->
<g id="edge19" class="edge">
<title>f_multilingual&#45;&gt;l_ja</title>
<path fill="none" stroke="#9c27b0" stroke-width="1.5" d="M2323.2,-132.57C2323.2,-132.57 2323.2,-87.53 2323.2,-87.53"/>
<polygon fill="#9c27b0" stroke="#9c27b0" stroke-width="1.5" points="2326.7,-87.53 2323.2,-77.53 2319.7,-87.53 2326.7,-87.53"/>
</g>
<!-- l_zh -->
<g id="node21" class="node">
<title>l_zh</title>
<path fill="#9c27b0" stroke="black" d="M2577.4,-74.9C2577.4,-74.9 2443,-74.9 2443,-74.9 2437,-74.9 2431,-68.9 2431,-62.9 2431,-62.9 2431,-36.5 2431,-36.5 2431,-30.5 2437,-24.5 2443,-24.5 2443,-24.5 2577.4,-24.5 2577.4,-24.5 2583.4,-24.5 2589.4,-30.5 2589.4,-36.5 2589.4,-36.5 2589.4,-62.9 2589.4,-62.9 2589.4,-68.9 2583.4,-74.9 2577.4,-74.9"/>
<text xml:space="preserve" text-anchor="middle" x="2510.2" y="-46.2" font-family="Arial" font-size="10.00" fill="white">Chinese</text>
</g>
<!-- f_multilingual&#45;&gt;l_zh -->
<g id="edge20" class="edge">
<title>f_multilingual&#45;&gt;l_zh</title>
<path fill="none" stroke="#9c27b0" stroke-width="1.5" d="M2418.6,-132.51C2418.6,-99.27 2418.6,-49.5 2418.6,-49.5 2418.6,-49.5 2419.8,-49.5 2419.8,-49.5"/>
<polygon fill="#9c27b0" stroke="#9c27b0" stroke-width="1.5" points="2418.3,-53 2428.3,-49.5 2418.3,-46 2418.3,-53"/>
</g>
<!-- l_eu -->
<g id="node22" class="node">
<title>l_eu</title>
<path fill="#9c27b0" stroke="black" d="M2764.4,-74.9C2764.4,-74.9 2630,-74.9 2630,-74.9 2624,-74.9 2618,-68.9 2618,-62.9 2618,-62.9 2618,-36.5 2618,-36.5 2618,-30.5 2624,-24.5 2630,-24.5 2630,-24.5 2764.4,-24.5 2764.4,-24.5 2770.4,-24.5 2776.4,-30.5 2776.4,-36.5 2776.4,-36.5 2776.4,-62.9 2776.4,-62.9 2776.4,-68.9 2770.4,-74.9 2764.4,-74.9"/>
<text xml:space="preserve" text-anchor="middle" x="2697.2" y="-52.2" font-family="Arial" font-size="10.00" fill="white">European</text>
<text xml:space="preserve" text-anchor="middle" x="2697.2" y="-40.2" font-family="Arial" font-size="10.00" fill="white">Languages</text>
</g>
<!-- f_multilingual&#45;&gt;l_eu -->
<g id="edge21" class="edge">
<title>f_multilingual&#45;&gt;l_eu</title>
<path fill="none" stroke="#9c27b0" stroke-width="1.5" d="M2407.8,-132.42C2407.8,-114.31 2407.8,-94.5 2407.8,-94.5 2407.8,-94.5 2636.5,-94.5 2636.5,-94.5 2636.5,-94.5 2636.5,-87.51 2636.5,-87.51"/>
<polygon fill="#9c27b0" stroke="#9c27b0" stroke-width="1.5" points="2640,-87.51 2636.5,-77.51 2633,-87.51 2640,-87.51"/>
</g>
<!-- l_more -->
<g id="node23" class="node">
<title>l_more</title>
<path fill="#9c27b0" stroke="black" d="M2951.4,-74.9C2951.4,-74.9 2817,-74.9 2817,-74.9 2811,-74.9 2805,-68.9 2805,-62.9 2805,-62.9 2805,-36.5 2805,-36.5 2805,-30.5 2811,-24.5 2817,-24.5 2817,-24.5 2951.4,-24.5 2951.4,-24.5 2957.4,-24.5 2963.4,-30.5 2963.4,-36.5 2963.4,-36.5 2963.4,-62.9 2963.4,-62.9 2963.4,-68.9 2957.4,-74.9 2951.4,-74.9"/>
<text xml:space="preserve" text-anchor="middle" x="2884.2" y="-52.2" font-family="Arial" font-size="10.00" fill="white">+ 16 More</text>
<text xml:space="preserve" text-anchor="middle" x="2884.2" y="-40.2" font-family="Arial" font-size="10.00" fill="white">Languages</text>
</g>
<!-- f_multilingual&#45;&gt;l_more -->
<g id="edge22" class="edge">
<title>f_multilingual&#45;&gt;l_more</title>
<path fill="none" stroke="#9c27b0" stroke-width="1.5" d="M2413.2,-132.55C2413.2,-122.4 2413.2,-113.5 2413.2,-113.5 2413.2,-113.5 2845.5,-113.5 2845.5,-113.5 2845.5,-113.5 2845.5,-87.55 2845.5,-87.55"/>
<polygon fill="#9c27b0" stroke="#9c27b0" stroke-width="1.5" points="2849,-87.55 2845.5,-77.55 2842,-87.55 2849,-87.55"/>
</g>
</g>
</svg>
