<svg xmlns="http://www.w3.org/2000/svg" viewBox="0 0 860 430" width="860" height="430" font-family="-apple-system, 'Segoe UI', Inter, sans-serif">
<style>
  .title { font-size: 20px; font-weight: 700; fill: #0f172a; }
  .band-label { font-size: 13px; font-weight: 700; fill: #1e40af; letter-spacing:0.3px; }
  .node-title { font-size: 14px; font-weight: 700; fill: #0f172a; }
  .node-title-w { font-size: 14px; font-weight: 700; fill: #ffffff; }
  .item { font-size: 12px; font-weight: 400; fill: #0f172a; }
  .item-sub { font-size: 11px; font-weight: 400; fill: #475569; }
  .mono { font-family: ui-monospace, "SF Mono", Consolas, monospace; font-size: 12px; font-weight: 600; fill: #0f172a; }
  .stage { font-size: 15px; font-weight: 700; fill: #ffffff; }
  .stage-sub { font-size: 11px; font-weight: 400; fill: #e0e7ff; }
  .note { font-size: 12px; font-weight: 400; fill: #1e40af; }
</style>
<defs>
  <marker id="arrow" markerWidth="10" markerHeight="10" refX="8" refY="5" markerUnits="strokeWidth" orient="auto">
    <path d="M0,1 L8,5 L0,9 z" fill="#475569"/>
  </marker>
  <marker id="arrow-accent" markerWidth="10" markerHeight="10" refX="8" refY="5" markerUnits="strokeWidth" orient="auto">
    <path d="M0,1 L8,5 L0,9 z" fill="#2563eb"/>
  </marker>
</defs>
<rect width="860" height="430" fill="#ffffff"/>
<text x="320" y="38" text-anchor="middle" class="title">Kubernetes Toolchain + Interfaces</text>
<rect x="40" y="70" width="780" height="70" rx="12" fill="#f8fafc" stroke="#e2e8f0" stroke-width="1"/>
<rect x="54" y="84" width="200" height="42" rx="8" fill="#1e40af"/>
<text x="154" y="110" text-anchor="middle" class="node-title-w">CLI + packaging</text>
<rect x="274" y="84" width="130" height="42" rx="8" fill="#ffffff" stroke="#cbd5e1" stroke-width="1"/>
<text x="339.0" y="103" text-anchor="middle" class="item">kubectl</text>
<text x="339.0" y="118" text-anchor="middle" class="item-sub">talk to API server</text>
<rect x="418" y="84" width="130" height="42" rx="8" fill="#ffffff" stroke="#cbd5e1" stroke-width="1"/>
<text x="483.0" y="103" text-anchor="middle" class="item">helm</text>
<text x="483.0" y="118" text-anchor="middle" class="item-sub">chart packages</text>
<rect x="562" y="84" width="130" height="42" rx="8" fill="#ffffff" stroke="#cbd5e1" stroke-width="1"/>
<text x="627.0" y="103" text-anchor="middle" class="item">kustomize</text>
<text x="627.0" y="118" text-anchor="middle" class="item-sub">overlay patches</text>
<rect x="706" y="84" width="130" height="42" rx="8" fill="#ffffff" stroke="#cbd5e1" stroke-width="1"/>
<text x="771.0" y="103" text-anchor="middle" class="item">k9s / lens</text>
<text x="771.0" y="118" text-anchor="middle" class="item-sub">TUI / GUI</text>
<rect x="40" y="150" width="780" height="70" rx="12" fill="#f8fafc" stroke="#e2e8f0" stroke-width="1"/>
<rect x="54" y="164" width="200" height="42" rx="8" fill="#1e40af"/>
<text x="154" y="190" text-anchor="middle" class="node-title-w">Container runtime (CRI)</text>
<rect x="274" y="164" width="130" height="42" rx="8" fill="#ffffff" stroke="#cbd5e1" stroke-width="1"/>
<text x="339.0" y="183" text-anchor="middle" class="item">containerd</text>
<text x="339.0" y="198" text-anchor="middle" class="item-sub">default</text>
<rect x="418" y="164" width="130" height="42" rx="8" fill="#ffffff" stroke="#cbd5e1" stroke-width="1"/>
<text x="483.0" y="183" text-anchor="middle" class="item">CRI-O</text>
<text x="483.0" y="198" text-anchor="middle" class="item-sub">K8s-native</text>
<rect x="562" y="164" width="130" height="42" rx="8" fill="#ffffff" stroke="#cbd5e1" stroke-width="1"/>
<text x="627.0" y="183" text-anchor="middle" class="item">docker-shim</text>
<text x="627.0" y="198" text-anchor="middle" class="item-sub">removed 1.24+</text>
<rect x="40" y="230" width="780" height="70" rx="12" fill="#f8fafc" stroke="#e2e8f0" stroke-width="1"/>
<rect x="54" y="244" width="200" height="42" rx="8" fill="#1e40af"/>
<text x="154" y="270" text-anchor="middle" class="node-title-w">Network (CNI)</text>
<rect x="274" y="244" width="130" height="42" rx="8" fill="#ffffff" stroke="#cbd5e1" stroke-width="1"/>
<text x="339.0" y="263" text-anchor="middle" class="item">Calico</text>
<text x="339.0" y="278" text-anchor="middle" class="item-sub">policy + BGP</text>
<rect x="418" y="244" width="130" height="42" rx="8" fill="#ffffff" stroke="#cbd5e1" stroke-width="1"/>
<text x="483.0" y="263" text-anchor="middle" class="item">Cilium</text>
<text x="483.0" y="278" text-anchor="middle" class="item-sub">eBPF-based</text>
<rect x="562" y="244" width="130" height="42" rx="8" fill="#ffffff" stroke="#cbd5e1" stroke-width="1"/>
<text x="627.0" y="263" text-anchor="middle" class="item">Flannel</text>
<text x="627.0" y="278" text-anchor="middle" class="item-sub">simple overlay</text>
<rect x="40" y="310" width="780" height="70" rx="12" fill="#f8fafc" stroke="#e2e8f0" stroke-width="1"/>
<rect x="54" y="324" width="200" height="42" rx="8" fill="#1e40af"/>
<text x="154" y="350" text-anchor="middle" class="node-title-w">Storage (CSI)</text>
<rect x="274" y="324" width="130" height="42" rx="8" fill="#ffffff" stroke="#cbd5e1" stroke-width="1"/>
<text x="339.0" y="343" text-anchor="middle" class="item">in-tree</text>
<text x="339.0" y="358" text-anchor="middle" class="item-sub">legacy plugins</text>
<rect x="418" y="324" width="130" height="42" rx="8" fill="#ffffff" stroke="#cbd5e1" stroke-width="1"/>
<text x="483.0" y="343" text-anchor="middle" class="item">CSI drivers</text>
<text x="483.0" y="358" text-anchor="middle" class="item-sub">external, standard</text>
<rect x="562" y="324" width="130" height="42" rx="8" fill="#ffffff" stroke="#cbd5e1" stroke-width="1"/>
<text x="627.0" y="343" text-anchor="middle" class="item">Longhorn / Rook</text>
<text x="627.0" y="358" text-anchor="middle" class="item-sub">distributed</text>
<rect x="40" y="394" width="780" height="30" rx="12" fill="#dbeafe" stroke="#93c5fd" stroke-width="1"/>
<text x="430" y="414" text-anchor="middle" class="note">Registry (push images) + GitOps (ArgoCD, Flux) deploy to clusters.</text>
</svg>
