<?xml version="1.0" encoding="UTF-8" standalone="no"?>
<!DOCTYPE svg PUBLIC "-//W3C//DTD SVG 1.1//EN"
 "http://www.w3.org/Graphics/SVG/1.1/DTD/svg11.dtd">
<!-- Generated by graphviz version 14.1.2 (0)
 -->
<!-- Title: open_webui_rag_pipeline Pages: 1 -->
<svg width="1477pt" height="864pt"
 viewBox="0.00 0.00 1477.00 864.00" xmlns="http://www.w3.org/2000/svg" xmlns:xlink="http://www.w3.org/1999/xlink">
<g id="graph0" class="graph" transform="scale(1 1) rotate(0) translate(36 827.75)">
<title>open_webui_rag_pipeline</title>
<polygon fill="white" stroke="none" points="-36,36 -36,-827.75 1440.75,-827.75 1440.75,36 -36,36"/>
<text xml:space="preserve" text-anchor="middle" x="702.38" y="-774.45" font-family="Helvetica,sans-Serif" font-size="14.00">Open WebUI — RAG Pipeline</text>
<g id="clust1" class="cluster">
<title>cluster_cluster_input</title>
<path fill="#eff6ff" stroke="#0ea5e9" stroke-width="1.5" d="M61,-685.75C61,-685.75 471,-685.75 471,-685.75 477,-685.75 483,-691.75 483,-697.75 483,-697.75 483,-748 483,-748 483,-754 477,-760 471,-760 471,-760 61,-760 61,-760 55,-760 49,-754 49,-748 49,-748 49,-697.75 49,-697.75 49,-691.75 55,-685.75 61,-685.75"/>
<text xml:space="preserve" text-anchor="middle" x="266" y="-744.6" font-family="Helvetica,sans-Serif" font-size="12.00" fill="#1e40af">Document Input</text>
</g>
<g id="clust2" class="cluster">
<title>cluster_cluster_loaders</title>
<path fill="#f0fdfa" stroke="#14b8a6" stroke-width="1.5" d="M20,-577.5C20,-577.5 492,-577.5 492,-577.5 498,-577.5 504,-583.5 504,-589.5 504,-589.5 504,-639.75 504,-639.75 504,-645.75 498,-651.75 492,-651.75 492,-651.75 20,-651.75 20,-651.75 14,-651.75 8,-645.75 8,-639.75 8,-639.75 8,-589.5 8,-589.5 8,-583.5 14,-577.5 20,-577.5"/>
<text xml:space="preserve" text-anchor="middle" x="256" y="-636.35" font-family="Helvetica,sans-Serif" font-size="12.00" fill="#14b8a6">Document Loaders</text>
</g>
<g id="clust3" class="cluster">
<title>cluster_cluster_embed</title>
<path fill="#eef2ff" stroke="#6366f1" stroke-width="1.5" d="M149,-459.75C149,-459.75 543,-459.75 543,-459.75 549,-459.75 555,-465.75 555,-471.75 555,-471.75 555,-522 555,-522 555,-528 549,-534 543,-534 543,-534 149,-534 149,-534 143,-534 137,-528 137,-522 137,-522 137,-471.75 137,-471.75 137,-465.75 143,-459.75 149,-459.75"/>
<text xml:space="preserve" text-anchor="middle" x="346" y="-518.6" font-family="Helvetica,sans-Serif" font-size="12.00" fill="#6366f1">Embedding Engine</text>
</g>
<g id="clust4" class="cluster">
<title>cluster_cluster_vecdb</title>
<path fill="#ecfdf5" stroke="#10b981" stroke-width="1.5" d="M152,-329.5C152,-329.5 659,-329.5 659,-329.5 665,-329.5 671,-335.5 671,-341.5 671,-341.5 671,-404.25 671,-404.25 671,-410.25 665,-416.25 659,-416.25 659,-416.25 152,-416.25 152,-416.25 146,-416.25 140,-410.25 140,-404.25 140,-404.25 140,-341.5 140,-341.5 140,-335.5 146,-329.5 152,-329.5"/>
<text xml:space="preserve" text-anchor="middle" x="405.5" y="-400.85" font-family="Helvetica,sans-Serif" font-size="12.00" fill="#10b981">Vector DB Factory (15 Backends)</text>
</g>
<g id="clust5" class="cluster">
<title>cluster_cluster_websearch</title>
<path fill="#fef3c7" stroke="#f59e0b" stroke-width="1.5" d="M703,-329.5C703,-329.5 1257,-329.5 1257,-329.5 1263,-329.5 1269,-335.5 1269,-341.5 1269,-341.5 1269,-404.25 1269,-404.25 1269,-410.25 1263,-416.25 1257,-416.25 1257,-416.25 703,-416.25 703,-416.25 697,-416.25 691,-410.25 691,-404.25 691,-404.25 691,-341.5 691,-341.5 691,-335.5 697,-329.5 703,-329.5"/>
<text xml:space="preserve" text-anchor="middle" x="980" y="-400.85" font-family="Helvetica,sans-Serif" font-size="12.00" fill="#f59e0b">Web Search (20+ Providers)</text>
</g>
<!-- pdf -->
<g id="node1" class="node">
<title>pdf</title>
<polygon fill="#eff6ff" stroke="#0ea5e9" stroke-width="1.5" points="213,-729.75 165,-729.75 165,-693.75 219,-693.75 219,-723.75 213,-729.75"/>
<polyline fill="none" stroke="#0ea5e9" stroke-width="1.5" points="213,-729.75 213,-723.75"/>
<polyline fill="none" stroke="#0ea5e9" stroke-width="1.5" points="219,-723.75 213,-723.75"/>
<text xml:space="preserve" text-anchor="middle" x="192" y="-708.05" font-family="Helvetica,sans-Serif" font-size="11.00" fill="#1e40af">PDF</text>
</g>
<!-- tika -->
<g id="node5" class="node">
<title>tika</title>
<path fill="#f0fdfa" stroke="#14b8a6" stroke-width="1.5" d="M214.12,-621.5C214.12,-621.5 141.88,-621.5 141.88,-621.5 135.88,-621.5 129.88,-615.5 129.88,-609.5 129.88,-609.5 129.88,-597.5 129.88,-597.5 129.88,-591.5 135.88,-585.5 141.88,-585.5 141.88,-585.5 214.12,-585.5 214.12,-585.5 220.12,-585.5 226.12,-591.5 226.12,-597.5 226.12,-597.5 226.12,-609.5 226.12,-609.5 226.12,-615.5 220.12,-621.5 214.12,-621.5"/>
<text xml:space="preserve" text-anchor="middle" x="178" y="-606.55" font-family="Helvetica,sans-Serif" font-size="11.00" fill="#14b8a6">Apache Tika</text>
<text xml:space="preserve" text-anchor="middle" x="178" y="-593.05" font-family="Helvetica,sans-Serif" font-size="11.00" fill="#14b8a6">Universal Parser</text>
</g>
<!-- pdf&#45;&gt;tika -->
<g id="edge1" class="edge">
<title>pdf&#45;&gt;tika</title>
<path fill="none" stroke="#0ea5e9" stroke-width="1.2" d="M192,-693.39C192,-693.39 192,-633.77 192,-633.77"/>
<polygon fill="#0ea5e9" stroke="#0ea5e9" stroke-width="1.2" points="195.5,-633.77 192,-623.77 188.5,-633.77 195.5,-633.77"/>
</g>
<!-- docling -->
<g id="node6" class="node">
<title>docling</title>
<path fill="#f0fdfa" stroke="#14b8a6" stroke-width="1.5" d="M352.12,-621.5C352.12,-621.5 273.88,-621.5 273.88,-621.5 267.88,-621.5 261.88,-615.5 261.88,-609.5 261.88,-609.5 261.88,-597.5 261.88,-597.5 261.88,-591.5 267.88,-585.5 273.88,-585.5 273.88,-585.5 352.12,-585.5 352.12,-585.5 358.12,-585.5 364.12,-591.5 364.12,-597.5 364.12,-597.5 364.12,-609.5 364.12,-609.5 364.12,-615.5 358.12,-621.5 352.12,-621.5"/>
<text xml:space="preserve" text-anchor="middle" x="313" y="-606.55" font-family="Helvetica,sans-Serif" font-size="11.00" fill="#14b8a6">Docling</text>
<text xml:space="preserve" text-anchor="middle" x="313" y="-593.05" font-family="Helvetica,sans-Serif" font-size="11.00" fill="#14b8a6">IBM Deep Search</text>
</g>
<!-- pdf&#45;&gt;docling -->
<g id="edge2" class="edge">
<title>pdf&#45;&gt;docling</title>
<path fill="none" stroke="#0ea5e9" stroke-width="1.2" d="M219.47,-706C230.52,-706 240.69,-706 240.69,-706 240.69,-706 240.69,-604 240.69,-604 240.69,-604 249.4,-604 249.4,-604"/>
<polygon fill="#0ea5e9" stroke="#0ea5e9" stroke-width="1.2" points="249.4,-607.5 259.4,-604 249.4,-600.5 249.4,-607.5"/>
</g>
<!-- web_doc -->
<g id="node2" class="node">
<title>web_doc</title>
<polygon fill="#eff6ff" stroke="#0ea5e9" stroke-width="1.5" points="123.12,-729.75 56.88,-729.75 56.88,-693.75 129.12,-693.75 129.12,-723.75 123.12,-729.75"/>
<polyline fill="none" stroke="#0ea5e9" stroke-width="1.5" points="123.12,-729.75 123.12,-723.75"/>
<polyline fill="none" stroke="#0ea5e9" stroke-width="1.5" points="129.12,-723.75 123.12,-723.75"/>
<text xml:space="preserve" text-anchor="middle" x="93" y="-708.05" font-family="Helvetica,sans-Serif" font-size="11.00" fill="#1e40af">Web Pages</text>
</g>
<!-- web_doc&#45;&gt;tika -->
<g id="edge3" class="edge">
<title>web_doc&#45;&gt;tika</title>
<path fill="none" stroke="#0ea5e9" stroke-width="1.2" d="M111.62,-693.47C111.62,-662.73 111.62,-604 111.62,-604 111.62,-604 117.6,-604 117.6,-604"/>
<polygon fill="#0ea5e9" stroke="#0ea5e9" stroke-width="1.2" points="117.6,-607.5 127.6,-604 117.6,-600.5 117.6,-607.5"/>
</g>
<!-- youtube -->
<g id="node3" class="node">
<title>youtube</title>
<polygon fill="#eff6ff" stroke="#0ea5e9" stroke-width="1.5" points="469,-729.75 417,-729.75 417,-693.75 475,-693.75 475,-723.75 469,-729.75"/>
<polyline fill="none" stroke="#0ea5e9" stroke-width="1.5" points="469,-729.75 469,-723.75"/>
<polyline fill="none" stroke="#0ea5e9" stroke-width="1.5" points="475,-723.75 469,-723.75"/>
<text xml:space="preserve" text-anchor="middle" x="446" y="-708.05" font-family="Helvetica,sans-Serif" font-size="11.00" fill="#1e40af">YouTube</text>
</g>
<!-- custom_loader -->
<g id="node8" class="node">
<title>custom_loader</title>
<path fill="#f0fdfa" stroke="#14b8a6" stroke-width="1.5" d="M483.75,-621.5C483.75,-621.5 412.25,-621.5 412.25,-621.5 406.25,-621.5 400.25,-615.5 400.25,-609.5 400.25,-609.5 400.25,-597.5 400.25,-597.5 400.25,-591.5 406.25,-585.5 412.25,-585.5 412.25,-585.5 483.75,-585.5 483.75,-585.5 489.75,-585.5 495.75,-591.5 495.75,-597.5 495.75,-597.5 495.75,-609.5 495.75,-609.5 495.75,-615.5 489.75,-621.5 483.75,-621.5"/>
<text xml:space="preserve" text-anchor="middle" x="448" y="-606.55" font-family="Helvetica,sans-Serif" font-size="11.00" fill="#14b8a6">Custom Loaders</text>
<text xml:space="preserve" text-anchor="middle" x="448" y="-593.05" font-family="Helvetica,sans-Serif" font-size="11.00" fill="#14b8a6">BYOF Functions</text>
</g>
<!-- youtube&#45;&gt;custom_loader -->
<g id="edge4" class="edge">
<title>youtube&#45;&gt;custom_loader</title>
<path fill="none" stroke="#0ea5e9" stroke-width="1.2" d="M446,-693.39C446,-693.39 446,-633.77 446,-633.77"/>
<polygon fill="#0ea5e9" stroke="#0ea5e9" stroke-width="1.2" points="449.5,-633.77 446,-623.77 442.5,-633.77 449.5,-633.77"/>
</g>
<!-- office -->
<g id="node4" class="node">
<title>office</title>
<polygon fill="#eff6ff" stroke="#0ea5e9" stroke-width="1.5" points="374.75,-729.75 255.25,-729.75 255.25,-693.75 380.75,-693.75 380.75,-723.75 374.75,-729.75"/>
<polyline fill="none" stroke="#0ea5e9" stroke-width="1.5" points="374.75,-729.75 374.75,-723.75"/>
<polyline fill="none" stroke="#0ea5e9" stroke-width="1.5" points="380.75,-723.75 374.75,-723.75"/>
<text xml:space="preserve" text-anchor="middle" x="318" y="-714.8" font-family="Helvetica,sans-Serif" font-size="11.00" fill="#1e40af">Office Docs</text>
<text xml:space="preserve" text-anchor="middle" x="318" y="-701.3" font-family="Helvetica,sans-Serif" font-size="11.00" fill="#1e40af">DOCX · PPTX · XLSX</text>
</g>
<!-- office&#45;&gt;tika -->
<g id="edge5" class="edge">
<title>office&#45;&gt;tika</title>
<path fill="none" stroke="#0ea5e9" stroke-width="1.2" d="M254.61,-718C236.98,-718 222.56,-718 222.56,-718 222.56,-718 222.56,-633.97 222.56,-633.97"/>
<polygon fill="#0ea5e9" stroke="#0ea5e9" stroke-width="1.2" points="226.06,-633.97 222.56,-623.97 219.06,-633.97 226.06,-633.97"/>
</g>
<!-- office&#45;&gt;docling -->
<g id="edge6" class="edge">
<title>office&#45;&gt;docling</title>
<path fill="none" stroke="#0ea5e9" stroke-width="1.2" d="M313,-693.39C313,-693.39 313,-633.77 313,-633.77"/>
<polygon fill="#0ea5e9" stroke="#0ea5e9" stroke-width="1.2" points="316.5,-633.77 313,-623.77 309.5,-633.77 316.5,-633.77"/>
</g>
<!-- sentence_tf -->
<g id="node9" class="node">
<title>sentence_tf</title>
<path fill="#eef2ff" stroke="#6366f1" stroke-width="1.5" d="M262.62,-503.75C262.62,-503.75 157.38,-503.75 157.38,-503.75 151.38,-503.75 145.38,-497.75 145.38,-491.75 145.38,-491.75 145.38,-479.75 145.38,-479.75 145.38,-473.75 151.38,-467.75 157.38,-467.75 157.38,-467.75 262.62,-467.75 262.62,-467.75 268.62,-467.75 274.62,-473.75 274.62,-479.75 274.62,-479.75 274.62,-491.75 274.62,-491.75 274.62,-497.75 268.62,-503.75 262.62,-503.75"/>
<text xml:space="preserve" text-anchor="middle" x="210" y="-488.8" font-family="Helvetica,sans-Serif" font-size="11.00" fill="#6366f1">Sentence&#45;Transformers</text>
<text xml:space="preserve" text-anchor="middle" x="210" y="-475.3" font-family="Helvetica,sans-Serif" font-size="11.00" fill="#6366f1">Local Embedding</text>
</g>
<!-- tika&#45;&gt;sentence_tf -->
<g id="edge7" class="edge">
<title>tika&#45;&gt;sentence_tf</title>
<path fill="none" stroke="#14b8a6" stroke-width="1.2" d="M185.75,-584.84C185.75,-584.84 185.75,-516.14 185.75,-516.14"/>
<polygon fill="#14b8a6" stroke="#14b8a6" stroke-width="1.2" points="189.25,-516.14 185.75,-506.14 182.25,-516.14 189.25,-516.14"/>
<text xml:space="preserve" text-anchor="middle" x="218.62" y="-543.95" font-family="Helvetica,sans-Serif" font-size="9.00">chunks</text>
</g>
<!-- docling&#45;&gt;sentence_tf -->
<g id="edge8" class="edge">
<title>docling&#45;&gt;sentence_tf</title>
<path fill="none" stroke="#14b8a6" stroke-width="1.2" d="M268.25,-584.84C268.25,-584.84 268.25,-516.14 268.25,-516.14"/>
<polygon fill="#14b8a6" stroke="#14b8a6" stroke-width="1.2" points="271.75,-516.14 268.25,-506.14 264.75,-516.14 271.75,-516.14"/>
</g>
<!-- mistral_ocr -->
<g id="node7" class="node">
<title>mistral_ocr</title>
<path fill="#f0fdfa" stroke="#14b8a6" stroke-width="1.5" d="M82.12,-621.5C82.12,-621.5 27.88,-621.5 27.88,-621.5 21.88,-621.5 15.88,-615.5 15.88,-609.5 15.88,-609.5 15.88,-597.5 15.88,-597.5 15.88,-591.5 21.88,-585.5 27.88,-585.5 27.88,-585.5 82.12,-585.5 82.12,-585.5 88.12,-585.5 94.12,-591.5 94.12,-597.5 94.12,-597.5 94.12,-609.5 94.12,-609.5 94.12,-615.5 88.12,-621.5 82.12,-621.5"/>
<text xml:space="preserve" text-anchor="middle" x="55" y="-606.55" font-family="Helvetica,sans-Serif" font-size="11.00" fill="#14b8a6">Mistral OCR</text>
<text xml:space="preserve" text-anchor="middle" x="55" y="-593.05" font-family="Helvetica,sans-Serif" font-size="11.00" fill="#14b8a6">Vision&#45;based</text>
</g>
<!-- mistral_ocr&#45;&gt;sentence_tf -->
<g id="edge9" class="edge">
<title>mistral_ocr&#45;&gt;sentence_tf</title>
<path fill="none" stroke="#14b8a6" stroke-width="1.2" d="M55,-584.88C55,-551.75 55,-486 55,-486 55,-486 132.9,-486 132.9,-486"/>
<polygon fill="#14b8a6" stroke="#14b8a6" stroke-width="1.2" points="132.9,-489.5 142.9,-486 132.9,-482.5 132.9,-489.5"/>
</g>
<!-- ollama_emb -->
<g id="node10" class="node">
<title>ollama_emb</title>
<path fill="#eef2ff" stroke="#6366f1" stroke-width="1.5" d="M407.12,-503.75C407.12,-503.75 322.88,-503.75 322.88,-503.75 316.88,-503.75 310.88,-497.75 310.88,-491.75 310.88,-491.75 310.88,-479.75 310.88,-479.75 310.88,-473.75 316.88,-467.75 322.88,-467.75 322.88,-467.75 407.12,-467.75 407.12,-467.75 413.12,-467.75 419.12,-473.75 419.12,-479.75 419.12,-479.75 419.12,-491.75 419.12,-491.75 419.12,-497.75 413.12,-503.75 407.12,-503.75"/>
<text xml:space="preserve" text-anchor="middle" x="365" y="-488.8" font-family="Helvetica,sans-Serif" font-size="11.00" fill="#6366f1">Ollama</text>
<text xml:space="preserve" text-anchor="middle" x="365" y="-475.3" font-family="Helvetica,sans-Serif" font-size="11.00" fill="#6366f1">Embedding Models</text>
</g>
<!-- custom_loader&#45;&gt;ollama_emb -->
<g id="edge10" class="edge">
<title>custom_loader&#45;&gt;ollama_emb</title>
<path fill="none" stroke="#14b8a6" stroke-width="1.2" d="M409.69,-584.84C409.69,-584.84 409.69,-516.14 409.69,-516.14"/>
<polygon fill="#14b8a6" stroke="#14b8a6" stroke-width="1.2" points="413.19,-516.14 409.69,-506.14 406.19,-516.14 413.19,-516.14"/>
</g>
<!-- chroma -->
<g id="node12" class="node">
<title>chroma</title>
<path fill="#ecfdf5" stroke="#10b981" stroke-width="1.5" d="M206.38,-379.75C206.38,-379.75 159.62,-379.75 159.62,-379.75 153.62,-379.75 147.62,-373.75 147.62,-367.75 147.62,-367.75 147.62,-355.75 147.62,-355.75 147.62,-349.75 153.62,-343.75 159.62,-343.75 159.62,-343.75 206.38,-343.75 206.38,-343.75 212.38,-343.75 218.38,-349.75 218.38,-355.75 218.38,-355.75 218.38,-367.75 218.38,-367.75 218.38,-373.75 212.38,-379.75 206.38,-379.75"/>
<text xml:space="preserve" text-anchor="middle" x="183" y="-358.05" font-family="Helvetica,sans-Serif" font-size="11.00" fill="#10b981">ChromaDB</text>
</g>
<!-- sentence_tf&#45;&gt;chroma -->
<g id="edge11" class="edge">
<title>sentence_tf&#45;&gt;chroma</title>
<path fill="none" stroke="#6366f1" stroke-width="1.2" d="M183,-467.19C183,-467.19 183,-392.26 183,-392.26"/>
<polygon fill="#6366f1" stroke="#6366f1" stroke-width="1.2" points="186.5,-392.26 183,-382.26 179.5,-392.26 186.5,-392.26"/>
<text xml:space="preserve" text-anchor="middle" x="218.25" y="-426.2" font-family="Helvetica,sans-Serif" font-size="9.00">embed</text>
</g>
<!-- pgvec -->
<g id="node13" class="node">
<title>pgvec</title>
<path fill="#ecfdf5" stroke="#10b981" stroke-width="1.5" d="M305.25,-379.75C305.25,-379.75 266.75,-379.75 266.75,-379.75 260.75,-379.75 254.75,-373.75 254.75,-367.75 254.75,-367.75 254.75,-355.75 254.75,-355.75 254.75,-349.75 260.75,-343.75 266.75,-343.75 266.75,-343.75 305.25,-343.75 305.25,-343.75 311.25,-343.75 317.25,-349.75 317.25,-355.75 317.25,-355.75 317.25,-367.75 317.25,-367.75 317.25,-373.75 311.25,-379.75 305.25,-379.75"/>
<text xml:space="preserve" text-anchor="middle" x="286" y="-358.05" font-family="Helvetica,sans-Serif" font-size="11.00" fill="#10b981">PGVector</text>
</g>
<!-- sentence_tf&#45;&gt;pgvec -->
<g id="edge12" class="edge">
<title>sentence_tf&#45;&gt;pgvec</title>
<path fill="none" stroke="#6366f1" stroke-width="1.2" d="M264.69,-467.19C264.69,-467.19 264.69,-392.26 264.69,-392.26"/>
<polygon fill="#6366f1" stroke="#6366f1" stroke-width="1.2" points="268.19,-392.26 264.69,-382.26 261.19,-392.26 268.19,-392.26"/>
</g>
<!-- qdrant -->
<g id="node14" class="node">
<title>qdrant</title>
<path fill="#ecfdf5" stroke="#10b981" stroke-width="1.5" d="M395,-379.75C395,-379.75 365,-379.75 365,-379.75 359,-379.75 353,-373.75 353,-367.75 353,-367.75 353,-355.75 353,-355.75 353,-349.75 359,-343.75 365,-343.75 365,-343.75 395,-343.75 395,-343.75 401,-343.75 407,-349.75 407,-355.75 407,-355.75 407,-367.75 407,-367.75 407,-373.75 401,-379.75 395,-379.75"/>
<text xml:space="preserve" text-anchor="middle" x="380" y="-358.05" font-family="Helvetica,sans-Serif" font-size="11.00" fill="#10b981">Qdrant</text>
</g>
<!-- ollama_emb&#45;&gt;qdrant -->
<g id="edge13" class="edge">
<title>ollama_emb&#45;&gt;qdrant</title>
<path fill="none" stroke="#6366f1" stroke-width="1.2" d="M380,-467.19C380,-467.19 380,-392.26 380,-392.26"/>
<polygon fill="#6366f1" stroke="#6366f1" stroke-width="1.2" points="383.5,-392.26 380,-382.26 376.5,-392.26 383.5,-392.26"/>
</g>
<!-- openai_emb -->
<g id="node11" class="node">
<title>openai_emb</title>
<path fill="#eef2ff" stroke="#6366f1" stroke-width="1.5" d="M534.5,-503.75C534.5,-503.75 467.5,-503.75 467.5,-503.75 461.5,-503.75 455.5,-497.75 455.5,-491.75 455.5,-491.75 455.5,-479.75 455.5,-479.75 455.5,-473.75 461.5,-467.75 467.5,-467.75 467.5,-467.75 534.5,-467.75 534.5,-467.75 540.5,-467.75 546.5,-473.75 546.5,-479.75 546.5,-479.75 546.5,-491.75 546.5,-491.75 546.5,-497.75 540.5,-503.75 534.5,-503.75"/>
<text xml:space="preserve" text-anchor="middle" x="501" y="-488.8" font-family="Helvetica,sans-Serif" font-size="11.00" fill="#6366f1">OpenAI</text>
<text xml:space="preserve" text-anchor="middle" x="501" y="-475.3" font-family="Helvetica,sans-Serif" font-size="11.00" fill="#6366f1">Embedding API</text>
</g>
<!-- milvus -->
<g id="node15" class="node">
<title>milvus</title>
<path fill="#ecfdf5" stroke="#10b981" stroke-width="1.5" d="M485,-379.75C485,-379.75 455,-379.75 455,-379.75 449,-379.75 443,-373.75 443,-367.75 443,-367.75 443,-355.75 443,-355.75 443,-349.75 449,-343.75 455,-343.75 455,-343.75 485,-343.75 485,-343.75 491,-343.75 497,-349.75 497,-355.75 497,-355.75 497,-367.75 497,-367.75 497,-373.75 491,-379.75 485,-379.75"/>
<text xml:space="preserve" text-anchor="middle" x="470" y="-358.05" font-family="Helvetica,sans-Serif" font-size="11.00" fill="#10b981">Milvus</text>
</g>
<!-- openai_emb&#45;&gt;milvus -->
<g id="edge14" class="edge">
<title>openai_emb&#45;&gt;milvus</title>
<path fill="none" stroke="#6366f1" stroke-width="1.2" d="M476.25,-467.19C476.25,-467.19 476.25,-392.26 476.25,-392.26"/>
<polygon fill="#6366f1" stroke="#6366f1" stroke-width="1.2" points="479.75,-392.26 476.25,-382.26 472.75,-392.26 479.75,-392.26"/>
</g>
<!-- retrieve -->
<g id="node23" class="node">
<title>retrieve</title>
<path fill="#f5f3ff" stroke="#8b5cf6" stroke-width="1.5" d="M768.12,-261C768.12,-261 707.88,-261 707.88,-261 701.88,-261 695.88,-255 695.88,-249 695.88,-249 695.88,-237 695.88,-237 695.88,-231 701.88,-225 707.88,-225 707.88,-225 768.12,-225 768.12,-225 774.12,-225 780.12,-231 780.12,-237 780.12,-237 780.12,-249 780.12,-249 780.12,-255 774.12,-261 768.12,-261"/>
<text xml:space="preserve" text-anchor="middle" x="738" y="-246.05" font-family="Helvetica,sans-Serif" font-size="11.00" fill="#8b5cf6">Retrieve</text>
<text xml:space="preserve" text-anchor="middle" x="738" y="-232.55" font-family="Helvetica,sans-Serif" font-size="11.00" fill="#8b5cf6">Top&#45;K Chunks</text>
</g>
<!-- chroma&#45;&gt;retrieve -->
<g id="edge18" class="edge">
<title>chroma&#45;&gt;retrieve</title>
<path fill="none" stroke="#10b981" stroke-width="1.2" stroke-dasharray="5,2" d="M183,-343.07C183,-308.27 183,-237 183,-237 183,-237 683.56,-237 683.56,-237"/>
<polygon fill="#10b981" stroke="#10b981" stroke-width="1.2" points="683.56,-240.5 693.56,-237 683.56,-233.5 683.56,-240.5"/>
<text xml:space="preserve" text-anchor="middle" x="310" y="-295.95" font-family="Helvetica,sans-Serif" font-size="9.00">similarity</text>
</g>
<!-- pgvec&#45;&gt;retrieve -->
<g id="edge19" class="edge">
<title>pgvec&#45;&gt;retrieve</title>
<path fill="none" stroke="#10b981" stroke-width="1.2" stroke-dasharray="5,2" d="M286,-343.13C286,-311.11 286,-249 286,-249 286,-249 683.66,-249 683.66,-249"/>
<polygon fill="#10b981" stroke="#10b981" stroke-width="1.2" points="683.66,-252.5 693.66,-249 683.66,-245.5 683.66,-252.5"/>
</g>
<!-- more_vec -->
<g id="node16" class="node">
<title>more_vec</title>
<path fill="#ecfdf5" stroke="#10b981" stroke-width="1.5" d="M651.38,-386C651.38,-386 544.62,-386 544.62,-386 538.62,-386 532.62,-380 532.62,-374 532.62,-374 532.62,-349.5 532.62,-349.5 532.62,-343.5 538.62,-337.5 544.62,-337.5 544.62,-337.5 651.38,-337.5 651.38,-337.5 657.38,-337.5 663.38,-343.5 663.38,-349.5 663.38,-349.5 663.38,-374 663.38,-374 663.38,-380 657.38,-386 651.38,-386"/>
<text xml:space="preserve" text-anchor="middle" x="598" y="-371.55" font-family="Helvetica,sans-Serif" font-size="11.00" fill="#10b981">+ 11 more</text>
<text xml:space="preserve" text-anchor="middle" x="598" y="-358.05" font-family="Helvetica,sans-Serif" font-size="11.00" fill="#10b981">Weaviate · Pinecone</text>
<text xml:space="preserve" text-anchor="middle" x="598" y="-344.55" font-family="Helvetica,sans-Serif" font-size="11.00" fill="#10b981">Vespa · OpenSearch …</text>
</g>
<!-- searxng -->
<g id="node17" class="node">
<title>searxng</title>
<path fill="#fef3c7" stroke="#f59e0b" stroke-width="1.5" d="M764.75,-379.75C764.75,-379.75 711.25,-379.75 711.25,-379.75 705.25,-379.75 699.25,-373.75 699.25,-367.75 699.25,-367.75 699.25,-355.75 699.25,-355.75 699.25,-349.75 705.25,-343.75 711.25,-343.75 711.25,-343.75 764.75,-343.75 764.75,-343.75 770.75,-343.75 776.75,-349.75 776.75,-355.75 776.75,-355.75 776.75,-367.75 776.75,-367.75 776.75,-373.75 770.75,-379.75 764.75,-379.75"/>
<text xml:space="preserve" text-anchor="middle" x="738" y="-364.8" font-family="Helvetica,sans-Serif" font-size="11.00" fill="#f59e0b">SearXNG</text>
<text xml:space="preserve" text-anchor="middle" x="738" y="-351.3" font-family="Helvetica,sans-Serif" font-size="11.00" fill="#f59e0b">Meta Search</text>
</g>
<!-- searxng&#45;&gt;retrieve -->
<g id="edge20" class="edge">
<title>searxng&#45;&gt;retrieve</title>
<path fill="none" stroke="#f59e0b" stroke-width="1.2" stroke-dasharray="5,2" d="M738,-343.2C738,-343.2 738,-273.24 738,-273.24"/>
<polygon fill="#f59e0b" stroke="#f59e0b" stroke-width="1.2" points="741.5,-273.24 738,-263.24 734.5,-273.24 741.5,-273.24"/>
<text xml:space="preserve" text-anchor="middle" x="761.25" y="-295.95" font-family="Helvetica,sans-Serif" font-size="9.00">web results</text>
</g>
<!-- google_pse -->
<g id="node18" class="node">
<title>google_pse</title>
<path fill="#fef3c7" stroke="#f59e0b" stroke-width="1.5" d="M887.62,-379.75C887.62,-379.75 824.38,-379.75 824.38,-379.75 818.38,-379.75 812.38,-373.75 812.38,-367.75 812.38,-367.75 812.38,-355.75 812.38,-355.75 812.38,-349.75 818.38,-343.75 824.38,-343.75 824.38,-343.75 887.62,-343.75 887.62,-343.75 893.62,-343.75 899.62,-349.75 899.62,-355.75 899.62,-355.75 899.62,-367.75 899.62,-367.75 899.62,-373.75 893.62,-379.75 887.62,-379.75"/>
<text xml:space="preserve" text-anchor="middle" x="856" y="-364.8" font-family="Helvetica,sans-Serif" font-size="11.00" fill="#f59e0b">Google PSE</text>
<text xml:space="preserve" text-anchor="middle" x="856" y="-351.3" font-family="Helvetica,sans-Serif" font-size="11.00" fill="#f59e0b">Programmable</text>
</g>
<!-- google_pse&#45;&gt;retrieve -->
<g id="edge21" class="edge">
<title>google_pse&#45;&gt;retrieve</title>
<path fill="none" stroke="#f59e0b" stroke-width="1.2" stroke-dasharray="5,2" d="M856,-343.13C856,-311.11 856,-249 856,-249 856,-249 792.42,-249 792.42,-249"/>
<polygon fill="#f59e0b" stroke="#f59e0b" stroke-width="1.2" points="792.42,-245.5 782.42,-249 792.42,-252.5 792.42,-245.5"/>
</g>
<!-- bing -->
<g id="node19" class="node">
<title>bing</title>
<path fill="#fef3c7" stroke="#f59e0b" stroke-width="1.5" d="M994.38,-379.75C994.38,-379.75 947.62,-379.75 947.62,-379.75 941.62,-379.75 935.62,-373.75 935.62,-367.75 935.62,-367.75 935.62,-355.75 935.62,-355.75 935.62,-349.75 941.62,-343.75 947.62,-343.75 947.62,-343.75 994.38,-343.75 994.38,-343.75 1000.38,-343.75 1006.38,-349.75 1006.38,-355.75 1006.38,-355.75 1006.38,-367.75 1006.38,-367.75 1006.38,-373.75 1000.38,-379.75 994.38,-379.75"/>
<text xml:space="preserve" text-anchor="middle" x="971" y="-364.8" font-family="Helvetica,sans-Serif" font-size="11.00" fill="#f59e0b">Bing</text>
<text xml:space="preserve" text-anchor="middle" x="971" y="-351.3" font-family="Helvetica,sans-Serif" font-size="11.00" fill="#f59e0b">Search API</text>
</g>
<!-- brave -->
<g id="node20" class="node">
<title>brave</title>
<path fill="#fef3c7" stroke="#f59e0b" stroke-width="1.5" d="M1101.38,-379.75C1101.38,-379.75 1054.62,-379.75 1054.62,-379.75 1048.62,-379.75 1042.62,-373.75 1042.62,-367.75 1042.62,-367.75 1042.62,-355.75 1042.62,-355.75 1042.62,-349.75 1048.62,-343.75 1054.62,-343.75 1054.62,-343.75 1101.38,-343.75 1101.38,-343.75 1107.38,-343.75 1113.38,-349.75 1113.38,-355.75 1113.38,-355.75 1113.38,-367.75 1113.38,-367.75 1113.38,-373.75 1107.38,-379.75 1101.38,-379.75"/>
<text xml:space="preserve" text-anchor="middle" x="1078" y="-364.8" font-family="Helvetica,sans-Serif" font-size="11.00" fill="#f59e0b">Brave</text>
<text xml:space="preserve" text-anchor="middle" x="1078" y="-351.3" font-family="Helvetica,sans-Serif" font-size="11.00" fill="#f59e0b">Search API</text>
</g>
<!-- more_search -->
<g id="node21" class="node">
<title>more_search</title>
<path fill="#fef3c7" stroke="#f59e0b" stroke-width="1.5" d="M1248.62,-386C1248.62,-386 1161.38,-386 1161.38,-386 1155.38,-386 1149.38,-380 1149.38,-374 1149.38,-374 1149.38,-349.5 1149.38,-349.5 1149.38,-343.5 1155.38,-337.5 1161.38,-337.5 1161.38,-337.5 1248.62,-337.5 1248.62,-337.5 1254.62,-337.5 1260.62,-343.5 1260.62,-349.5 1260.62,-349.5 1260.62,-374 1260.62,-374 1260.62,-380 1254.62,-386 1248.62,-386"/>
<text xml:space="preserve" text-anchor="middle" x="1205" y="-371.55" font-family="Helvetica,sans-Serif" font-size="11.00" fill="#f59e0b">+ 16 more</text>
<text xml:space="preserve" text-anchor="middle" x="1205" y="-358.05" font-family="Helvetica,sans-Serif" font-size="11.00" fill="#f59e0b">DuckDuckGo · Kagi</text>
<text xml:space="preserve" text-anchor="middle" x="1205" y="-344.55" font-family="Helvetica,sans-Serif" font-size="11.00" fill="#f59e0b">Tavily · Jina …</text>
</g>
<!-- query -->
<g id="node22" class="node">
<title>query</title>
<ellipse fill="#fdf2f8" stroke="#ec4899" stroke-width="1.5" cx="1341" cy="-361.75" rx="44.57" ry="18"/>
<text xml:space="preserve" text-anchor="middle" x="1341" y="-358.05" font-family="Helvetica,sans-Serif" font-size="11.00" fill="#ec4899">User Query</text>
</g>
<!-- query&#45;&gt;retrieve -->
<g id="edge15" class="edge">
<title>query&#45;&gt;retrieve</title>
<path fill="none" stroke="#ec4899" stroke-width="1.2" d="M1341,-343.07C1341,-308.27 1341,-237 1341,-237 1341,-237 792.22,-237 792.22,-237"/>
<polygon fill="#ec4899" stroke="#ec4899" stroke-width="1.2" points="792.22,-233.5 782.22,-237 792.22,-240.5 792.22,-233.5"/>
<text xml:space="preserve" text-anchor="middle" x="1372.88" y="-295.95" font-family="Helvetica,sans-Serif" font-size="9.00">1. embed query</text>
</g>
<!-- rerank -->
<g id="node24" class="node">
<title>rerank</title>
<path fill="#f5f3ff" stroke="#8b5cf6" stroke-width="1.5" d="M792.88,-148.5C792.88,-148.5 683.12,-148.5 683.12,-148.5 677.12,-148.5 671.12,-142.5 671.12,-136.5 671.12,-136.5 671.12,-124.5 671.12,-124.5 671.12,-118.5 677.12,-112.5 683.12,-112.5 683.12,-112.5 792.88,-112.5 792.88,-112.5 798.88,-112.5 804.88,-118.5 804.88,-124.5 804.88,-124.5 804.88,-136.5 804.88,-136.5 804.88,-142.5 798.88,-148.5 792.88,-148.5"/>
<text xml:space="preserve" text-anchor="middle" x="738" y="-133.55" font-family="Helvetica,sans-Serif" font-size="11.00" fill="#8b5cf6">Rerank</text>
<text xml:space="preserve" text-anchor="middle" x="738" y="-120.05" font-family="Helvetica,sans-Serif" font-size="11.00" fill="#8b5cf6">Cohere / Cross&#45;Encoder</text>
</g>
<!-- retrieve&#45;&gt;rerank -->
<g id="edge16" class="edge">
<title>retrieve&#45;&gt;rerank</title>
<path fill="none" stroke="#8b5cf6" stroke-width="1.2" d="M738,-224.42C738,-224.42 738,-160.92 738,-160.92"/>
<polygon fill="#8b5cf6" stroke="#8b5cf6" stroke-width="1.2" points="741.5,-160.92 738,-150.92 734.5,-160.92 741.5,-160.92"/>
<text xml:space="preserve" text-anchor="middle" x="764.62" y="-183.45" font-family="Helvetica,sans-Serif" font-size="9.00">2. top&#45;K docs</text>
</g>
<!-- generate -->
<g id="node25" class="node">
<title>generate</title>
<path fill="#eef2ff" stroke="#6366f1" stroke-width="1.5" d="M770.38,-36C770.38,-36 705.62,-36 705.62,-36 699.62,-36 693.62,-30 693.62,-24 693.62,-24 693.62,-12 693.62,-12 693.62,-6 699.62,0 705.62,0 705.62,0 770.38,0 770.38,0 776.38,0 782.38,-6 782.38,-12 782.38,-12 782.38,-24 782.38,-24 782.38,-30 776.38,-36 770.38,-36"/>
<text xml:space="preserve" text-anchor="middle" x="738" y="-21.05" font-family="Helvetica,sans-Serif" font-size="11.00" fill="#6366f1">Generate</text>
<text xml:space="preserve" text-anchor="middle" x="738" y="-7.55" font-family="Helvetica,sans-Serif" font-size="11.00" fill="#6366f1">LLM Response</text>
</g>
<!-- rerank&#45;&gt;generate -->
<g id="edge17" class="edge">
<title>rerank&#45;&gt;generate</title>
<path fill="none" stroke="#8b5cf6" stroke-width="1.2" d="M738,-111.92C738,-111.92 738,-48.42 738,-48.42"/>
<polygon fill="#8b5cf6" stroke="#8b5cf6" stroke-width="1.2" points="741.5,-48.42 738,-38.42 734.5,-48.42 741.5,-48.42"/>
<text xml:space="preserve" text-anchor="middle" x="772.88" y="-70.95" font-family="Helvetica,sans-Serif" font-size="9.00">3. ranked context</text>
</g>
</g>
</svg>
