<?xml version="1.0" encoding="UTF-8" standalone="no"?>
<!DOCTYPE svg PUBLIC "-//W3C//DTD SVG 1.1//EN"
 "http://www.w3.org/Graphics/SVG/1.1/DTD/svg11.dtd">
<!-- Generated by graphviz version 14.1.2 (0)
 -->
<!-- Title: architecture Pages: 1 -->
<svg width="411pt" height="839pt"
 viewBox="0.00 0.00 411.00 839.00" xmlns="http://www.w3.org/2000/svg" xmlns:xlink="http://www.w3.org/1999/xlink">
<g id="graph0" class="graph" transform="scale(1 1) rotate(0) translate(4 834.9)">
<title>architecture</title>
<polygon fill="white" stroke="none" points="-4,4 -4,-834.9 407,-834.9 407,4 -4,4"/>
<text xml:space="preserve" text-anchor="middle" x="201.5" y="-7.2" font-family="Times New Roman,serif" font-size="14.00">codebase&#45;memory&#45;mcp &#45; Architecture Overview</text>
<!-- src -->
<g id="node1" class="node">
<title>src</title>
<polygon fill="#4caf50" stroke="black" points="180,-830.9 0,-830.9 0,-758.9 180,-758.9 180,-830.9"/>
<text xml:space="preserve" text-anchor="middle" x="90" y="-797.95" font-family="Arial" font-size="11.00" fill="white">Source Code</text>
<text xml:space="preserve" text-anchor="middle" x="90" y="-784.45" font-family="Arial" font-size="11.00" fill="white">(158 Languages)</text>
</g>
<!-- tree_sitter -->
<g id="node2" class="node">
<title>tree_sitter</title>
<path fill="#2196f3" stroke="black" d="M168,-686.9C168,-686.9 12,-686.9 12,-686.9 6,-686.9 0,-680.9 0,-674.9 0,-674.9 0,-612.5 0,-612.5 0,-606.5 6,-600.5 12,-600.5 12,-600.5 168,-600.5 168,-600.5 174,-600.5 180,-606.5 180,-612.5 180,-612.5 180,-674.9 180,-674.9 180,-680.9 174,-686.9 168,-686.9"/>
<text xml:space="preserve" text-anchor="middle" x="90" y="-653.68" font-family="Arial Bold" font-size="12.00" fill="white">Tree&#45;Sitter</text>
<text xml:space="preserve" text-anchor="middle" x="90" y="-639.43" font-family="Arial Bold" font-size="12.00" fill="white">AST Parser</text>
<text xml:space="preserve" text-anchor="middle" x="90" y="-625.18" font-family="Arial Bold" font-size="12.00" fill="white">(158 Grammars)</text>
</g>
<!-- src&#45;&gt;tree_sitter -->
<g id="edge1" class="edge">
<title>src&#45;&gt;tree_sitter</title>
<path fill="none" stroke="#4caf50" stroke-width="2" d="M90,-758.68C90,-758.68 90,-700.18 90,-700.18"/>
<polygon fill="#4caf50" stroke="#4caf50" stroke-width="2" points="93.5,-700.18 90,-690.18 86.5,-700.18 93.5,-700.18"/>
<text xml:space="preserve" text-anchor="middle" x="75.75" y="-732.63" font-family="Times New Roman,serif" font-size="14.00">parse</text>
</g>
<!-- knowledge_graph -->
<g id="node3" class="node">
<title>knowledge_graph</title>
<path fill="#2196f3" stroke="black" d="M279,-528.5C279,-528.5 123,-528.5 123,-528.5 117,-528.5 111,-522.5 111,-516.5 111,-516.5 111,-468.5 111,-468.5 111,-462.5 117,-456.5 123,-456.5 123,-456.5 279,-456.5 279,-456.5 285,-456.5 291,-462.5 291,-468.5 291,-468.5 291,-516.5 291,-516.5 291,-522.5 285,-528.5 279,-528.5"/>
<text xml:space="preserve" text-anchor="middle" x="201" y="-495.35" font-family="Arial Bold" font-size="12.00" fill="white">Knowledge Graph</text>
<text xml:space="preserve" text-anchor="middle" x="201" y="-481.1" font-family="Arial Bold" font-size="12.00" fill="white">Builder</text>
</g>
<!-- tree_sitter&#45;&gt;knowledge_graph -->
<g id="edge2" class="edge">
<title>tree_sitter&#45;&gt;knowledge_graph</title>
<path fill="none" stroke="#2196f3" stroke-width="2" d="M145.5,-600.37C145.5,-600.37 145.5,-541.71 145.5,-541.71"/>
<polygon fill="#2196f3" stroke="#2196f3" stroke-width="2" points="149,-541.71 145.5,-531.71 142,-541.71 149,-541.71"/>
<text xml:space="preserve" text-anchor="middle" x="132.75" y="-574.24" font-family="Times New Roman,serif" font-size="14.00">AST</text>
</g>
<!-- sqlite -->
<g id="node5" class="node">
<title>sqlite</title>
<path fill="#ff9800" stroke="black" d="M291,-377.95C291,-381.57 250.66,-384.5 201,-384.5 151.34,-384.5 111,-381.57 111,-377.95 111,-377.95 111,-319.05 111,-319.05 111,-315.43 151.34,-312.5 201,-312.5 250.66,-312.5 291,-315.43 291,-319.05 291,-319.05 291,-377.95 291,-377.95"/>
<path fill="none" stroke="black" d="M291,-377.95C291,-374.34 250.66,-371.41 201,-371.41 151.34,-371.41 111,-374.34 111,-377.95"/>
<text xml:space="preserve" text-anchor="middle" x="201" y="-357" font-family="Arial" font-size="10.00" fill="white">SQLite</text>
<text xml:space="preserve" text-anchor="middle" x="201" y="-345" font-family="Arial" font-size="10.00" fill="white">Knowledge Graph</text>
<text xml:space="preserve" text-anchor="middle" x="201" y="-333" font-family="Arial" font-size="10.00" fill="white">(Persistent)</text>
</g>
<!-- knowledge_graph&#45;&gt;sqlite -->
<g id="edge4" class="edge">
<title>knowledge_graph&#45;&gt;sqlite</title>
<path fill="none" stroke="#ff9800" stroke-width="2" d="M201,-456.16C201,-456.16 201,-397.85 201,-397.85"/>
<polygon fill="#ff9800" stroke="#ff9800" stroke-width="2" points="204.5,-397.85 201,-387.85 197.5,-397.85 204.5,-397.85"/>
<text xml:space="preserve" text-anchor="middle" x="183.38" y="-430.21" font-family="Times New Roman,serif" font-size="14.00">persist</text>
</g>
<!-- hybrid_lsp -->
<g id="node4" class="node">
<title>hybrid_lsp</title>
<path fill="#00bcd4" stroke="black" d="M391,-686.9C391,-686.9 235,-686.9 235,-686.9 229,-686.9 223,-680.9 223,-674.9 223,-674.9 223,-612.5 223,-612.5 223,-606.5 229,-600.5 235,-600.5 235,-600.5 391,-600.5 391,-600.5 397,-600.5 403,-606.5 403,-612.5 403,-612.5 403,-674.9 403,-674.9 403,-680.9 397,-686.9 391,-686.9"/>
<text xml:space="preserve" text-anchor="middle" x="313" y="-660.25" font-family="Arial" font-size="11.00" fill="white">Hybrid LSP</text>
<text xml:space="preserve" text-anchor="middle" x="313" y="-646.75" font-family="Arial" font-size="11.00" fill="white">Semantic Type</text>
<text xml:space="preserve" text-anchor="middle" x="313" y="-633.25" font-family="Arial" font-size="11.00" fill="white">Resolution</text>
<text xml:space="preserve" text-anchor="middle" x="313" y="-619.75" font-family="Arial" font-size="11.00" fill="white">(9 Languages)</text>
</g>
<!-- hybrid_lsp&#45;&gt;knowledge_graph -->
<g id="edge3" class="edge">
<title>hybrid_lsp&#45;&gt;knowledge_graph</title>
<path fill="none" stroke="#00bcd4" stroke-width="2" stroke-dasharray="5,2" d="M257,-600.37C257,-600.37 257,-541.71 257,-541.71"/>
<polygon fill="#00bcd4" stroke="#00bcd4" stroke-width="2" points="260.5,-541.71 257,-531.71 253.5,-541.71 260.5,-541.71"/>
<text xml:space="preserve" text-anchor="middle" x="242.75" y="-574.24" font-family="Times New Roman,serif" font-size="14.00">types</text>
</g>
<!-- mcp_server -->
<g id="node6" class="node">
<title>mcp_server</title>
<path fill="#ff9800" stroke="black" d="M279,-240.5C279,-240.5 123,-240.5 123,-240.5 117,-240.5 111,-234.5 111,-228.5 111,-228.5 111,-180.5 111,-180.5 111,-174.5 117,-168.5 123,-168.5 123,-168.5 279,-168.5 279,-168.5 285,-168.5 291,-174.5 291,-180.5 291,-180.5 291,-228.5 291,-228.5 291,-234.5 285,-240.5 279,-240.5"/>
<text xml:space="preserve" text-anchor="middle" x="201" y="-207.55" font-family="Arial" font-size="11.00" fill="white">MCP Server</text>
<text xml:space="preserve" text-anchor="middle" x="201" y="-194.05" font-family="Arial" font-size="11.00" fill="white">(14 Tools)</text>
</g>
<!-- sqlite&#45;&gt;mcp_server -->
<g id="edge5" class="edge">
<title>sqlite&#45;&gt;mcp_server</title>
<path fill="none" stroke="#9c27b0" stroke-width="2" d="M201,-312.16C201,-312.16 201,-253.85 201,-253.85"/>
<polygon fill="#9c27b0" stroke="#9c27b0" stroke-width="2" points="204.5,-253.85 201,-243.85 197.5,-253.85 204.5,-253.85"/>
<text xml:space="preserve" text-anchor="middle" x="185.62" y="-286.21" font-family="Times New Roman,serif" font-size="14.00">query</text>
</g>
<!-- agents -->
<g id="node7" class="node">
<title>agents</title>
<path fill="#4caf50" stroke="black" d="M279,-96.5C279,-96.5 123,-96.5 123,-96.5 117,-96.5 111,-90.5 111,-84.5 111,-84.5 111,-36.5 111,-36.5 111,-30.5 117,-24.5 123,-24.5 123,-24.5 279,-24.5 279,-24.5 285,-24.5 291,-30.5 291,-36.5 291,-36.5 291,-84.5 291,-84.5 291,-90.5 285,-96.5 279,-96.5"/>
<text xml:space="preserve" text-anchor="middle" x="201" y="-63" font-family="Arial" font-size="10.00" fill="white">AI Coding Agents</text>
<text xml:space="preserve" text-anchor="middle" x="201" y="-51" font-family="Arial" font-size="10.00" fill="white">(11 Supported)</text>
</g>
<!-- mcp_server&#45;&gt;agents -->
<g id="edge6" class="edge">
<title>mcp_server&#45;&gt;agents</title>
<path fill="none" stroke="#4caf50" stroke-width="2" d="M201,-168.16C201,-168.16 201,-109.85 201,-109.85"/>
<polygon fill="#4caf50" stroke="#4caf50" stroke-width="2" points="204.5,-109.85 201,-99.85 197.5,-109.85 204.5,-109.85"/>
<text xml:space="preserve" text-anchor="middle" x="162" y="-142.21" font-family="Times New Roman,serif" font-size="14.00">MCP protocol</text>
</g>
</g>
</svg>
