<?xml version="1.0" encoding="UTF-8" standalone="no"?>
<!DOCTYPE svg PUBLIC "-//W3C//DTD SVG 1.1//EN"
 "http://www.w3.org/Graphics/SVG/1.1/DTD/svg11.dtd">
<!-- Generated by graphviz version 14.1.2 (0)
 -->
<!-- Title: cbm_architecture Pages: 1 -->
<svg width="388pt" height="628pt"
 viewBox="0.00 0.00 388.00 628.00" xmlns="http://www.w3.org/2000/svg" xmlns:xlink="http://www.w3.org/1999/xlink">
<style>
<!-- White text halo for edge label readability -->
text { paint-order: stroke; stroke: #ffffff; stroke-width: 3px; stroke-linejoin: round; fill: #1a1a2e; }
</style>
<g id="graph0" class="graph" transform="scale(1 1) rotate(0) translate(4 623.94)">
<title>cbm_architecture</title>
<polygon fill="white" stroke="none" points="-4,4 -4,-623.94 383.75,-623.94 383.75,4 -4,4"/>
<text xml:space="preserve" text-anchor="middle" x="189.88" y="-600.74" font-family="Arial Bold" font-size="16.00">codebase&#45;memory&#45;mcp &#45; Architecture Overview</text>
<!-- source -->
<g id="node1" class="node">
<title>source</title>
<polygon fill="#4caf50" stroke="black" points="185,-593.19 73.75,-593.19 73.75,-556.69 185,-556.69 185,-593.19"/>
<text xml:space="preserve" text-anchor="middle" x="129.38" y="-577.79" font-family="Arial Bold" font-size="12.00" fill="white">Source Code</text>
<text xml:space="preserve" text-anchor="middle" x="129.38" y="-563.54" font-family="Arial Bold" font-size="12.00" fill="white">(158 Languages)</text>
</g>
<!-- treesitter -->
<g id="node2" class="node">
<title>treesitter</title>
<path fill="#2196f3" stroke="black" d="M170.38,-493.06C170.38,-493.06 88.38,-493.06 88.38,-493.06 82.38,-493.06 76.38,-487.06 76.38,-481.06 76.38,-481.06 76.38,-454.31 76.38,-454.31 76.38,-448.31 82.38,-442.31 88.38,-442.31 88.38,-442.31 170.38,-442.31 170.38,-442.31 176.38,-442.31 182.38,-448.31 182.38,-454.31 182.38,-454.31 182.38,-481.06 182.38,-481.06 182.38,-487.06 176.38,-493.06 170.38,-493.06"/>
<text xml:space="preserve" text-anchor="middle" x="129.38" y="-477.66" font-family="Arial Bold" font-size="12.00" fill="white">Tree&#45;Sitter</text>
<text xml:space="preserve" text-anchor="middle" x="129.38" y="-463.41" font-family="Arial Bold" font-size="12.00" fill="white">AST Parser</text>
<text xml:space="preserve" text-anchor="middle" x="129.38" y="-449.16" font-family="Arial Bold" font-size="12.00" fill="white">(158 Grammars)</text>
</g>
<!-- source&#45;&gt;treesitter -->
<g id="edge1" class="edge">
<title>source&#45;&gt;treesitter</title>
<path fill="none" stroke="#4caf50" stroke-width="2" d="M129.38,-556.26C129.38,-556.26 129.38,-506.41 129.38,-506.41"/>
<polygon fill="#4caf50" stroke="#4caf50" stroke-width="2" points="132.88,-506.41 129.38,-496.41 125.88,-506.41 132.88,-506.41"/>
<text xml:space="preserve" text-anchor="middle" x="115.12" y="-534.53" font-family="Times New Roman,serif" font-size="14.00">parse</text>
</g>
<!-- builder -->
<g id="node4" class="node">
<title>builder</title>
<path fill="#2196f3" stroke="black" d="M242.75,-378.69C242.75,-378.69 148,-378.69 148,-378.69 142,-378.69 136,-372.69 136,-366.69 136,-366.69 136,-325.69 136,-325.69 136,-319.69 142,-313.69 148,-313.69 148,-313.69 242.75,-313.69 242.75,-313.69 248.75,-313.69 254.75,-319.69 254.75,-325.69 254.75,-325.69 254.75,-366.69 254.75,-366.69 254.75,-372.69 248.75,-378.69 242.75,-378.69"/>
<text xml:space="preserve" text-anchor="middle" x="195.38" y="-363.29" font-family="Arial Bold" font-size="12.00" fill="white">Knowledge Graph</text>
<text xml:space="preserve" text-anchor="middle" x="195.38" y="-349.04" font-family="Arial Bold" font-size="12.00" fill="white">Builder</text>
<text xml:space="preserve" text-anchor="middle" x="195.38" y="-334.79" font-family="Arial Bold" font-size="12.00" fill="white">(14 Node Types</text>
<text xml:space="preserve" text-anchor="middle" x="195.38" y="-320.54" font-family="Arial Bold" font-size="12.00" fill="white">19+ Edge Types)</text>
</g>
<!-- treesitter&#45;&gt;builder -->
<g id="edge2" class="edge">
<title>treesitter&#45;&gt;builder</title>
<path fill="none" stroke="#2196f3" stroke-width="2" d="M159.19,-441.92C159.19,-441.92 159.19,-391.89 159.19,-391.89"/>
<polygon fill="#2196f3" stroke="#2196f3" stroke-width="2" points="162.69,-391.89 159.19,-381.89 155.69,-391.89 162.69,-391.89"/>
<text xml:space="preserve" text-anchor="middle" x="146.44" y="-420.11" font-family="Times New Roman,serif" font-size="14.00">AST</text>
</g>
<!-- lsp -->
<g id="node3" class="node">
<title>lsp</title>
<polygon fill="#00bcd4" stroke="black" points="306,-498.69 218.75,-498.69 218.75,-436.69 306,-436.69 306,-498.69"/>
<text xml:space="preserve" text-anchor="middle" x="262.38" y="-484.24" font-family="Arial" font-size="11.00" fill="white">Hybrid LSP</text>
<text xml:space="preserve" text-anchor="middle" x="262.38" y="-470.74" font-family="Arial" font-size="11.00" fill="white">Semantic Type</text>
<text xml:space="preserve" text-anchor="middle" x="262.38" y="-457.24" font-family="Arial" font-size="11.00" fill="white">Resolution</text>
<text xml:space="preserve" text-anchor="middle" x="262.38" y="-443.74" font-family="Arial" font-size="11.00" fill="white">(9 Languages)</text>
</g>
<!-- lsp&#45;&gt;builder -->
<g id="edge3" class="edge">
<title>lsp&#45;&gt;builder</title>
<path fill="none" stroke="#00bcd4" stroke-width="1.5" stroke-dasharray="5,2" d="M236.75,-436.4C236.75,-436.4 236.75,-391.34 236.75,-391.34"/>
<polygon fill="#00bcd4" stroke="#00bcd4" stroke-width="1.5" points="240.25,-391.34 236.75,-381.34 233.25,-391.34 240.25,-391.34"/>
<text xml:space="preserve" text-anchor="middle" x="222.5" y="-417.07" font-family="Times New Roman,serif" font-size="14.00">types</text>
</g>
<!-- sqlite -->
<g id="node5" class="node">
<title>sqlite</title>
<path fill="#ff9800" stroke="black" d="M246.88,-249.62C246.88,-252.97 223.79,-255.69 195.38,-255.69 166.96,-255.69 143.88,-252.97 143.88,-249.62 143.88,-249.62 143.88,-195.06 143.88,-195.06 143.88,-191.72 166.96,-189 195.38,-189 223.79,-189 246.88,-191.72 246.88,-195.06 246.88,-195.06 246.88,-249.62 246.88,-249.62"/>
<path fill="none" stroke="black" d="M246.88,-249.62C246.88,-246.28 223.79,-243.56 195.38,-243.56 166.96,-243.56 143.88,-246.28 143.88,-249.62"/>
<text xml:space="preserve" text-anchor="middle" x="195.38" y="-232.14" font-family="Arial" font-size="11.00" fill="white">SQLite</text>
<text xml:space="preserve" text-anchor="middle" x="195.38" y="-218.64" font-family="Arial" font-size="11.00" fill="white">Knowledge Graph</text>
<text xml:space="preserve" text-anchor="middle" x="195.38" y="-205.14" font-family="Arial" font-size="11.00" fill="white">(Persistent)</text>
</g>
<!-- builder&#45;&gt;sqlite -->
<g id="edge4" class="edge">
<title>builder&#45;&gt;sqlite</title>
<path fill="none" stroke="#2196f3" stroke-width="2" d="M195.38,-313.32C195.38,-313.32 195.38,-268.82 195.38,-268.82"/>
<polygon fill="#2196f3" stroke="#2196f3" stroke-width="2" points="198.88,-268.82 195.38,-258.82 191.88,-268.82 198.88,-268.82"/>
<text xml:space="preserve" text-anchor="middle" x="177.75" y="-294.27" font-family="Times New Roman,serif" font-size="14.00">persist</text>
</g>
<!-- mcp -->
<g id="node6" class="node">
<title>mcp</title>
<path fill="#ff9800" stroke="black" d="M224.75,-131C224.75,-131 166,-131 166,-131 160,-131 154,-125 154,-119 154,-119 154,-106.5 154,-106.5 154,-100.5 160,-94.5 166,-94.5 166,-94.5 224.75,-94.5 224.75,-94.5 230.75,-94.5 236.75,-100.5 236.75,-106.5 236.75,-106.5 236.75,-119 236.75,-119 236.75,-125 230.75,-131 224.75,-131"/>
<text xml:space="preserve" text-anchor="middle" x="195.38" y="-115.6" font-family="Arial Bold" font-size="12.00" fill="white">MCP Server</text>
<text xml:space="preserve" text-anchor="middle" x="195.38" y="-101.35" font-family="Arial Bold" font-size="12.00" fill="white">(14 Tools)</text>
</g>
<!-- sqlite&#45;&gt;mcp -->
<g id="edge5" class="edge">
<title>sqlite&#45;&gt;mcp</title>
<path fill="none" stroke="#ff9800" stroke-width="2" d="M195.38,-188.57C195.38,-188.57 195.38,-144.3 195.38,-144.3"/>
<polygon fill="#ff9800" stroke="#ff9800" stroke-width="2" points="198.88,-144.3 195.38,-134.3 191.88,-144.3 198.88,-144.3"/>
<text xml:space="preserve" text-anchor="middle" x="180" y="-169.64" font-family="Times New Roman,serif" font-size="14.00">query</text>
</g>
<!-- agents -->
<g id="node7" class="node">
<title>agents</title>
<polygon fill="#4caf50" stroke="black" points="254,-36.5 136.75,-36.5 136.75,0 254,0 254,-36.5"/>
<text xml:space="preserve" text-anchor="middle" x="195.38" y="-21.1" font-family="Arial Bold" font-size="12.00" fill="white">AI Coding Agents</text>
<text xml:space="preserve" text-anchor="middle" x="195.38" y="-6.85" font-family="Arial Bold" font-size="12.00" fill="white">(11 Supported)</text>
</g>
<!-- mcp&#45;&gt;agents -->
<g id="edge6" class="edge">
<title>mcp&#45;&gt;agents</title>
<path fill="none" stroke="#ff9800" stroke-width="2" d="M195.38,-94.08C195.38,-94.08 195.38,-49.91 195.38,-49.91"/>
<polygon fill="#ff9800" stroke="#ff9800" stroke-width="2" points="198.88,-49.91 195.38,-39.91 191.88,-49.91 198.88,-49.91"/>
<text xml:space="preserve" text-anchor="middle" x="156.38" y="-75.19" font-family="Times New Roman,serif" font-size="14.00">MCP protocol</text>
</g>
</g>
</svg>
