<?xml version="1.0" encoding="UTF-8" standalone="no"?>
<!DOCTYPE svg PUBLIC "-//W3C//DTD SVG 1.1//EN"
 "http://www.w3.org/Graphics/SVG/1.1/DTD/svg11.dtd">
<!-- Generated by graphviz version 14.1.4 (20260321.0153)
 -->
<!-- Title: cognee_deployment Pages: 1 -->
<svg width="954pt" height="516pt"
 viewBox="0.00 0.00 954.00 516.00" xmlns="http://www.w3.org/2000/svg" xmlns:xlink="http://www.w3.org/1999/xlink">
<style>
<!-- White text halo for edge label readability -->
text { paint-order: stroke; stroke: #ffffff; stroke-width: 3px; stroke-linejoin: round; fill: #1a1a2e; }
</style>
<g id="graph0" class="graph" transform="scale(1 1) rotate(0) translate(4 512.25)">
<title>cognee_deployment</title>
<polygon fill="white" stroke="none" points="-4,4 -4,-512.25 950,-512.25 950,4 -4,4"/>
<text xml:space="preserve" text-anchor="middle" x="473" y="-7.2" font-family="Times New Roman,serif" font-size="14.00">Cognee &#45; Deployment Options</text>
<g id="clust1" class="cluster">
<title>cluster_local</title>
<polygon fill="#e8f5e9" stroke="#4caf50" points="8,-130.5 8,-500.25 320,-500.25 320,-130.5 8,-130.5"/>
<text xml:space="preserve" text-anchor="middle" x="164" y="-482.95" font-family="Arial Bold" font-size="14.00">Local Deployment</text>
</g>
<g id="clust2" class="cluster">
<title>cluster_docker</title>
<polygon fill="#e3f2fd" stroke="#2196f3" points="340,-130.5 340,-500.25 652,-500.25 652,-130.5 340,-130.5"/>
<text xml:space="preserve" text-anchor="middle" x="496" y="-482.95" font-family="Arial Bold" font-size="14.00">Docker Deployment</text>
</g>
<g id="clust3" class="cluster">
<title>cluster_cloud</title>
<polygon fill="#fff3e0" stroke="#ff9800" points="802,-32.5 802,-500.25 938,-500.25 938,-32.5 802,-32.5"/>
<text xml:space="preserve" text-anchor="middle" x="870" y="-482.95" font-family="Arial Bold" font-size="14.00">Cloud Deployment</text>
</g>
<g id="clust4" class="cluster">
<title>cluster_platforms</title>
<polygon fill="#f3e5f5" stroke="#7e57c2" points="273,-32.5 273,-108.25 785,-108.25 785,-32.5 273,-32.5"/>
<text xml:space="preserve" text-anchor="middle" x="529" y="-90.95" font-family="Arial Bold" font-size="14.00">Hosting Platforms</text>
</g>
<!-- pip_install -->
<g id="node1" class="node">
<title>pip_install</title>
<path fill="#4caf50" stroke="black" d="M210.25,-468.5C210.25,-468.5 135.75,-468.5 135.75,-468.5 129.75,-468.5 123.75,-462.5 123.75,-456.5 123.75,-456.5 123.75,-444.5 123.75,-444.5 123.75,-438.5 129.75,-432.5 135.75,-432.5 135.75,-432.5 210.25,-432.5 210.25,-432.5 216.25,-432.5 222.25,-438.5 222.25,-444.5 222.25,-444.5 222.25,-456.5 222.25,-456.5 222.25,-462.5 216.25,-468.5 210.25,-468.5"/>
<text xml:space="preserve" text-anchor="middle" x="173" y="-453.55" font-family="Arial" font-size="11.00" fill="white">pip install cognee</text>
<text xml:space="preserve" text-anchor="middle" x="173" y="-440.05" font-family="Arial" font-size="11.00" fill="white">Python 3.10&#45;3.14</text>
</g>
<!-- local_config -->
<g id="node2" class="node">
<title>local_config</title>
<path fill="#66bb6a" stroke="black" d="M196.38,-374.5C196.38,-374.5 149.62,-374.5 149.62,-374.5 143.62,-374.5 137.62,-368.5 137.62,-362.5 137.62,-362.5 137.62,-350.5 137.62,-350.5 137.62,-344.5 143.62,-338.5 149.62,-338.5 149.62,-338.5 196.38,-338.5 196.38,-338.5 202.38,-338.5 208.38,-344.5 208.38,-350.5 208.38,-350.5 208.38,-362.5 208.38,-362.5 208.38,-368.5 202.38,-374.5 196.38,-374.5"/>
<text xml:space="preserve" text-anchor="middle" x="173" y="-359" font-family="Arial" font-size="10.00" fill="white">Local Config</text>
<text xml:space="preserve" text-anchor="middle" x="173" y="-347" font-family="Arial" font-size="10.00" fill="white">.env File</text>
</g>
<!-- pip_install&#45;&gt;local_config -->
<g id="edge1" class="edge">
<title>pip_install&#45;&gt;local_config</title>
<path fill="none" stroke="#4caf50" stroke-width="2" d="M173,-432.38C173,-432.38 173,-387.92 173,-387.92"/>
<polygon fill="#4caf50" stroke="#4caf50" stroke-width="2" points="176.5,-387.92 173,-377.92 169.5,-387.92 176.5,-387.92"/>
<text xml:space="preserve" text-anchor="middle" x="145.62" y="-413.35" font-family="Times New Roman,serif" font-size="14.00">Configure</text>
</g>
<!-- sqlite_loc -->
<g id="node3" class="node">
<title>sqlite_loc</title>
<path fill="#81c784" stroke="black" d="M101.88,-276.5C101.88,-278.71 82.66,-280.5 59,-280.5 35.34,-280.5 16.12,-278.71 16.12,-276.5 16.12,-276.5 16.12,-240.5 16.12,-240.5 16.12,-238.29 35.34,-236.5 59,-236.5 82.66,-236.5 101.88,-238.29 101.88,-240.5 101.88,-240.5 101.88,-276.5 101.88,-276.5"/>
<path fill="none" stroke="black" d="M101.88,-276.5C101.88,-274.29 82.66,-272.5 59,-272.5 35.34,-272.5 16.12,-274.29 16.12,-276.5"/>
<text xml:space="preserve" text-anchor="middle" x="59" y="-261" font-family="Arial" font-size="10.00" fill="white">SQLite</text>
<text xml:space="preserve" text-anchor="middle" x="59" y="-249" font-family="Arial" font-size="10.00" fill="white">Relational Store</text>
</g>
<!-- local_config&#45;&gt;sqlite_loc -->
<g id="edge2" class="edge">
<title>local_config&#45;&gt;sqlite_loc</title>
<path fill="none" stroke="#4caf50" stroke-width="1.5" d="M137.24,-356.5C103.81,-356.5 59,-356.5 59,-356.5 59,-356.5 59,-293.01 59,-293.01"/>
<polygon fill="#4caf50" stroke="#4caf50" stroke-width="1.5" points="62.5,-293.01 59,-283.01 55.5,-293.01 62.5,-293.01"/>
<text xml:space="preserve" text-anchor="middle" x="46.13" y="-359.7" font-family="Times New Roman,serif" font-size="14.00">Default</text>
</g>
<!-- lancedb_loc -->
<g id="node4" class="node">
<title>lancedb_loc</title>
<path fill="#81c784" stroke="black" d="M208,-276.5C208,-278.71 192.31,-280.5 173,-280.5 153.69,-280.5 138,-278.71 138,-276.5 138,-276.5 138,-240.5 138,-240.5 138,-238.29 153.69,-236.5 173,-236.5 192.31,-236.5 208,-238.29 208,-240.5 208,-240.5 208,-276.5 208,-276.5"/>
<path fill="none" stroke="black" d="M208,-276.5C208,-274.29 192.31,-272.5 173,-272.5 153.69,-272.5 138,-274.29 138,-276.5"/>
<text xml:space="preserve" text-anchor="middle" x="173" y="-261" font-family="Arial" font-size="10.00" fill="white">LanceDB</text>
<text xml:space="preserve" text-anchor="middle" x="173" y="-249" font-family="Arial" font-size="10.00" fill="white">Vector Store</text>
</g>
<!-- local_config&#45;&gt;lancedb_loc -->
<g id="edge3" class="edge">
<title>local_config&#45;&gt;lancedb_loc</title>
<path fill="none" stroke="#4caf50" stroke-width="1.5" d="M173,-338.07C173,-338.07 173,-293.25 173,-293.25"/>
<polygon fill="#4caf50" stroke="#4caf50" stroke-width="1.5" points="176.5,-293.25 173,-283.25 169.5,-293.25 176.5,-293.25"/>
<text xml:space="preserve" text-anchor="middle" x="152.75" y="-318.86" font-family="Times New Roman,serif" font-size="14.00">Default</text>
</g>
<!-- kuzu_loc -->
<g id="node5" class="node">
<title>kuzu_loc</title>
<path fill="#81c784" stroke="black" d="M312.25,-276.5C312.25,-278.71 296.9,-280.5 278,-280.5 259.1,-280.5 243.75,-278.71 243.75,-276.5 243.75,-276.5 243.75,-240.5 243.75,-240.5 243.75,-238.29 259.1,-236.5 278,-236.5 296.9,-236.5 312.25,-238.29 312.25,-240.5 312.25,-240.5 312.25,-276.5 312.25,-276.5"/>
<path fill="none" stroke="black" d="M312.25,-276.5C312.25,-274.29 296.9,-272.5 278,-272.5 259.1,-272.5 243.75,-274.29 243.75,-276.5"/>
<text xml:space="preserve" text-anchor="middle" x="278" y="-261" font-family="Arial" font-size="10.00" fill="white">Kuzu</text>
<text xml:space="preserve" text-anchor="middle" x="278" y="-249" font-family="Arial" font-size="10.00" fill="white">Graph Store</text>
</g>
<!-- local_config&#45;&gt;kuzu_loc -->
<g id="edge4" class="edge">
<title>local_config&#45;&gt;kuzu_loc</title>
<path fill="none" stroke="#4caf50" stroke-width="1.5" d="M208.84,-356.5C239.26,-356.5 278,-356.5 278,-356.5 278,-356.5 278,-293.01 278,-293.01"/>
<polygon fill="#4caf50" stroke="#4caf50" stroke-width="1.5" points="281.5,-293.01 278,-283.01 274.5,-293.01 281.5,-293.01"/>
<text xml:space="preserve" text-anchor="middle" x="254.92" y="-359.7" font-family="Times New Roman,serif" font-size="14.00">Default</text>
</g>
<!-- local_dev -->
<g id="node6" class="node">
<title>local_dev</title>
<path fill="#2e7d32" stroke="black" d="M220.75,-174.5C220.75,-174.5 125.25,-174.5 125.25,-174.5 119.25,-174.5 113.25,-168.5 113.25,-162.5 113.25,-162.5 113.25,-150.5 113.25,-150.5 113.25,-144.5 119.25,-138.5 125.25,-138.5 125.25,-138.5 220.75,-138.5 220.75,-138.5 226.75,-138.5 232.75,-144.5 232.75,-150.5 232.75,-150.5 232.75,-162.5 232.75,-162.5 232.75,-168.5 226.75,-174.5 220.75,-174.5"/>
<text xml:space="preserve" text-anchor="middle" x="173" y="-159.55" font-family="Arial" font-size="11.00" fill="white">Local Development</text>
<text xml:space="preserve" text-anchor="middle" x="173" y="-146.05" font-family="Arial" font-size="11.00" fill="white">Full Control + Privacy</text>
</g>
<!-- sqlite_loc&#45;&gt;local_dev -->
<g id="edge5" class="edge">
<title>sqlite_loc&#45;&gt;local_dev</title>
<path fill="none" stroke="#4caf50" stroke-width="2" d="M102.24,-258.5C111.47,-258.5 118.5,-258.5 118.5,-258.5 118.5,-258.5 118.5,-187.76 118.5,-187.76"/>
<polygon fill="#4caf50" stroke="#4caf50" stroke-width="2" points="122,-187.76 118.5,-177.76 115,-187.76 122,-187.76"/>
</g>
<!-- lancedb_loc&#45;&gt;local_dev -->
<g id="edge6" class="edge">
<title>lancedb_loc&#45;&gt;local_dev</title>
<path fill="none" stroke="#4caf50" stroke-width="2" d="M173,-236.12C173,-236.12 173,-187.78 173,-187.78"/>
<polygon fill="#4caf50" stroke="#4caf50" stroke-width="2" points="176.5,-187.78 173,-177.78 169.5,-187.78 176.5,-187.78"/>
</g>
<!-- kuzu_loc&#45;&gt;local_dev -->
<g id="edge7" class="edge">
<title>kuzu_loc&#45;&gt;local_dev</title>
<path fill="none" stroke="#4caf50" stroke-width="2" d="M243.48,-258.5C234.6,-258.5 227.5,-258.5 227.5,-258.5 227.5,-258.5 227.5,-187.76 227.5,-187.76"/>
<polygon fill="#4caf50" stroke="#4caf50" stroke-width="2" points="231,-187.76 227.5,-177.76 224,-187.76 231,-187.76"/>
</g>
<!-- docker_compose -->
<g id="node7" class="node">
<title>docker_compose</title>
<path fill="#2196f3" stroke="black" d="M552.75,-468.5C552.75,-468.5 457.25,-468.5 457.25,-468.5 451.25,-468.5 445.25,-462.5 445.25,-456.5 445.25,-456.5 445.25,-444.5 445.25,-444.5 445.25,-438.5 451.25,-432.5 457.25,-432.5 457.25,-432.5 552.75,-432.5 552.75,-432.5 558.75,-432.5 564.75,-438.5 564.75,-444.5 564.75,-444.5 564.75,-456.5 564.75,-456.5 564.75,-462.5 558.75,-468.5 552.75,-468.5"/>
<text xml:space="preserve" text-anchor="middle" x="505" y="-453.55" font-family="Arial" font-size="11.00" fill="white">Docker Compose</text>
<text xml:space="preserve" text-anchor="middle" x="505" y="-440.05" font-family="Arial" font-size="11.00" fill="white">Containerized Deploy</text>
</g>
<!-- docker_config -->
<g id="node8" class="node">
<title>docker_config</title>
<path fill="#64b5f6" stroke="black" d="M549.75,-374.5C549.75,-374.5 460.25,-374.5 460.25,-374.5 454.25,-374.5 448.25,-368.5 448.25,-362.5 448.25,-362.5 448.25,-350.5 448.25,-350.5 448.25,-344.5 454.25,-338.5 460.25,-338.5 460.25,-338.5 549.75,-338.5 549.75,-338.5 555.75,-338.5 561.75,-344.5 561.75,-350.5 561.75,-350.5 561.75,-362.5 561.75,-362.5 561.75,-368.5 555.75,-374.5 549.75,-374.5"/>
<text xml:space="preserve" text-anchor="middle" x="505" y="-359" font-family="Arial" font-size="10.00" fill="white">Docker Config</text>
<text xml:space="preserve" text-anchor="middle" x="505" y="-347" font-family="Arial" font-size="10.00" fill="white">Environment Variables</text>
</g>
<!-- docker_compose&#45;&gt;docker_config -->
<g id="edge8" class="edge">
<title>docker_compose&#45;&gt;docker_config</title>
<path fill="none" stroke="#2196f3" stroke-width="2" d="M505,-432.38C505,-432.38 505,-387.92 505,-387.92"/>
<polygon fill="#2196f3" stroke="#2196f3" stroke-width="2" points="508.5,-387.92 505,-377.92 501.5,-387.92 508.5,-387.92"/>
<text xml:space="preserve" text-anchor="middle" x="477.62" y="-413.35" font-family="Times New Roman,serif" font-size="14.00">Configure</text>
</g>
<!-- postgres_docker -->
<g id="node9" class="node">
<title>postgres_docker</title>
<path fill="#42a5f5" stroke="black" d="M433.88,-276.5C433.88,-278.71 414.66,-280.5 391,-280.5 367.34,-280.5 348.12,-278.71 348.12,-276.5 348.12,-276.5 348.12,-240.5 348.12,-240.5 348.12,-238.29 367.34,-236.5 391,-236.5 414.66,-236.5 433.88,-238.29 433.88,-240.5 433.88,-240.5 433.88,-276.5 433.88,-276.5"/>
<path fill="none" stroke="black" d="M433.88,-276.5C433.88,-274.29 414.66,-272.5 391,-272.5 367.34,-272.5 348.12,-274.29 348.12,-276.5"/>
<text xml:space="preserve" text-anchor="middle" x="391" y="-261" font-family="Arial" font-size="10.00" fill="white">PostgreSQL</text>
<text xml:space="preserve" text-anchor="middle" x="391" y="-249" font-family="Arial" font-size="10.00" fill="white">Relational Store</text>
</g>
<!-- docker_config&#45;&gt;postgres_docker -->
<g id="edge9" class="edge">
<title>docker_config&#45;&gt;postgres_docker</title>
<path fill="none" stroke="#2196f3" stroke-width="1.5" d="M463.75,-338.08C463.75,-311.49 463.75,-265.5 463.75,-265.5 463.75,-265.5 446.43,-265.5 446.43,-265.5"/>
<polygon fill="#2196f3" stroke="#2196f3" stroke-width="1.5" points="446.43,-262 436.43,-265.5 446.43,-269 446.43,-262"/>
<text xml:space="preserve" text-anchor="middle" x="422.88" y="-296.33" font-family="Times New Roman,serif" font-size="14.00">Production DB</text>
</g>
<!-- qdrant_docker -->
<g id="node10" class="node">
<title>qdrant_docker</title>
<path fill="#42a5f5" stroke="black" d="M540,-276.5C540,-278.71 524.31,-280.5 505,-280.5 485.69,-280.5 470,-278.71 470,-276.5 470,-276.5 470,-240.5 470,-240.5 470,-238.29 485.69,-236.5 505,-236.5 524.31,-236.5 540,-238.29 540,-240.5 540,-240.5 540,-276.5 540,-276.5"/>
<path fill="none" stroke="black" d="M540,-276.5C540,-274.29 524.31,-272.5 505,-272.5 485.69,-272.5 470,-274.29 470,-276.5"/>
<text xml:space="preserve" text-anchor="middle" x="505" y="-261" font-family="Arial" font-size="10.00" fill="white">Qdrant</text>
<text xml:space="preserve" text-anchor="middle" x="505" y="-249" font-family="Arial" font-size="10.00" fill="white">Vector Store</text>
</g>
<!-- docker_config&#45;&gt;qdrant_docker -->
<g id="edge10" class="edge">
<title>docker_config&#45;&gt;qdrant_docker</title>
<path fill="none" stroke="#2196f3" stroke-width="1.5" d="M505,-338.07C505,-338.07 505,-293.25 505,-293.25"/>
<polygon fill="#2196f3" stroke="#2196f3" stroke-width="1.5" points="508.5,-293.25 505,-283.25 501.5,-293.25 508.5,-293.25"/>
<text xml:space="preserve" text-anchor="middle" x="460.38" y="-318.86" font-family="Times New Roman,serif" font-size="14.00">Scalable Vectors</text>
</g>
<!-- neo4j_docker -->
<g id="node11" class="node">
<title>neo4j_docker</title>
<path fill="#42a5f5" stroke="black" d="M644.25,-276.5C644.25,-278.71 628.9,-280.5 610,-280.5 591.1,-280.5 575.75,-278.71 575.75,-276.5 575.75,-276.5 575.75,-240.5 575.75,-240.5 575.75,-238.29 591.1,-236.5 610,-236.5 628.9,-236.5 644.25,-238.29 644.25,-240.5 644.25,-240.5 644.25,-276.5 644.25,-276.5"/>
<path fill="none" stroke="black" d="M644.25,-276.5C644.25,-274.29 628.9,-272.5 610,-272.5 591.1,-272.5 575.75,-274.29 575.75,-276.5"/>
<text xml:space="preserve" text-anchor="middle" x="610" y="-261" font-family="Arial" font-size="10.00" fill="white">Neo4j</text>
<text xml:space="preserve" text-anchor="middle" x="610" y="-249" font-family="Arial" font-size="10.00" fill="white">Graph Store</text>
</g>
<!-- docker_config&#45;&gt;neo4j_docker -->
<g id="edge11" class="edge">
<title>docker_config&#45;&gt;neo4j_docker</title>
<path fill="none" stroke="#2196f3" stroke-width="1.5" d="M552.5,-338.08C552.5,-311.49 552.5,-265.5 552.5,-265.5 552.5,-265.5 563.29,-265.5 563.29,-265.5"/>
<polygon fill="#2196f3" stroke="#2196f3" stroke-width="1.5" points="563.29,-269 573.29,-265.5 563.29,-262 563.29,-269"/>
<text xml:space="preserve" text-anchor="middle" x="599" y="-299.6" font-family="Times New Roman,serif" font-size="14.00">Enterprise Graph</text>
</g>
<!-- docker_prod -->
<g id="node12" class="node">
<title>docker_prod</title>
<path fill="#1565c0" stroke="black" d="M546.75,-174.5C546.75,-174.5 463.25,-174.5 463.25,-174.5 457.25,-174.5 451.25,-168.5 451.25,-162.5 451.25,-162.5 451.25,-150.5 451.25,-150.5 451.25,-144.5 457.25,-138.5 463.25,-138.5 463.25,-138.5 546.75,-138.5 546.75,-138.5 552.75,-138.5 558.75,-144.5 558.75,-150.5 558.75,-150.5 558.75,-162.5 558.75,-162.5 558.75,-168.5 552.75,-174.5 546.75,-174.5"/>
<text xml:space="preserve" text-anchor="middle" x="505" y="-159.55" font-family="Arial" font-size="11.00" fill="white">Production Deploy</text>
<text xml:space="preserve" text-anchor="middle" x="505" y="-146.05" font-family="Arial" font-size="11.00" fill="white">Scalable + Isolated</text>
</g>
<!-- postgres_docker&#45;&gt;docker_prod -->
<g id="edge12" class="edge">
<title>postgres_docker&#45;&gt;docker_prod</title>
<path fill="none" stroke="#2196f3" stroke-width="2" d="M434.24,-251.5C446.94,-251.5 457.5,-251.5 457.5,-251.5 457.5,-251.5 457.5,-187.84 457.5,-187.84"/>
<polygon fill="#2196f3" stroke="#2196f3" stroke-width="2" points="461,-187.84 457.5,-177.84 454,-187.84 461,-187.84"/>
</g>
<!-- qdrant_docker&#45;&gt;docker_prod -->
<g id="edge13" class="edge">
<title>qdrant_docker&#45;&gt;docker_prod</title>
<path fill="none" stroke="#2196f3" stroke-width="2" d="M505,-236.12C505,-236.12 505,-187.78 505,-187.78"/>
<polygon fill="#2196f3" stroke="#2196f3" stroke-width="2" points="508.5,-187.78 505,-177.78 501.5,-187.78 508.5,-187.78"/>
</g>
<!-- neo4j_docker&#45;&gt;docker_prod -->
<g id="edge14" class="edge">
<title>neo4j_docker&#45;&gt;docker_prod</title>
<path fill="none" stroke="#2196f3" stroke-width="2" d="M575.51,-251.5C560.49,-251.5 546.25,-251.5 546.25,-251.5 546.25,-251.5 546.25,-187.84 546.25,-187.84"/>
<polygon fill="#2196f3" stroke="#2196f3" stroke-width="2" points="549.75,-187.84 546.25,-177.84 542.75,-187.84 549.75,-187.84"/>
</g>
<!-- modal -->
<g id="node18" class="node">
<title>modal</title>
<path fill="#7e57c2" stroke="black" d="M331.25,-76.5C331.25,-76.5 292.75,-76.5 292.75,-76.5 286.75,-76.5 280.75,-70.5 280.75,-64.5 280.75,-64.5 280.75,-52.5 280.75,-52.5 280.75,-46.5 286.75,-40.5 292.75,-40.5 292.75,-40.5 331.25,-40.5 331.25,-40.5 337.25,-40.5 343.25,-46.5 343.25,-52.5 343.25,-52.5 343.25,-64.5 343.25,-64.5 343.25,-70.5 337.25,-76.5 331.25,-76.5"/>
<text xml:space="preserve" text-anchor="middle" x="312" y="-61" font-family="Arial" font-size="10.00" fill="white">Modal</text>
<text xml:space="preserve" text-anchor="middle" x="312" y="-49" font-family="Arial" font-size="10.00" fill="white">Serverless</text>
</g>
<!-- docker_prod&#45;&gt;modal -->
<g id="edge19" class="edge">
<title>docker_prod&#45;&gt;modal</title>
<path fill="none" stroke="#7e57c2" stroke-width="1.5" d="M450.86,-156.5C398.73,-156.5 327.75,-156.5 327.75,-156.5 327.75,-156.5 327.75,-89.2 327.75,-89.2"/>
<polygon fill="#7e57c2" stroke="#7e57c2" stroke-width="1.5" points="331.25,-89.2 327.75,-79.2 324.25,-89.2 331.25,-89.2"/>
<text xml:space="preserve" text-anchor="middle" x="327.15" y="-159.7" font-family="Times New Roman,serif" font-size="14.00">Deploy To</text>
</g>
<!-- railway -->
<g id="node19" class="node">
<title>railway</title>
<path fill="#7e57c2" stroke="black" d="M421,-76.5C421,-76.5 391,-76.5 391,-76.5 385,-76.5 379,-70.5 379,-64.5 379,-64.5 379,-52.5 379,-52.5 379,-46.5 385,-40.5 391,-40.5 391,-40.5 421,-40.5 421,-40.5 427,-40.5 433,-46.5 433,-52.5 433,-52.5 433,-64.5 433,-64.5 433,-70.5 427,-76.5 421,-76.5"/>
<text xml:space="preserve" text-anchor="middle" x="406" y="-61" font-family="Arial" font-size="10.00" fill="white">Railway</text>
<text xml:space="preserve" text-anchor="middle" x="406" y="-49" font-family="Arial" font-size="10.00" fill="white">PaaS</text>
</g>
<!-- docker_prod&#45;&gt;railway -->
<g id="edge20" class="edge">
<title>docker_prod&#45;&gt;railway</title>
<path fill="none" stroke="#7e57c2" stroke-width="1.5" d="M460.06,-138.07C460.06,-109.68 460.06,-58.5 460.06,-58.5 460.06,-58.5 445.62,-58.5 445.62,-58.5"/>
<polygon fill="#7e57c2" stroke="#7e57c2" stroke-width="1.5" points="445.62,-55 435.62,-58.5 445.62,-62 445.62,-55"/>
<text xml:space="preserve" text-anchor="middle" x="431.56" y="-94.26" font-family="Times New Roman,serif" font-size="14.00">Deploy To</text>
</g>
<!-- flyio -->
<g id="node20" class="node">
<title>flyio</title>
<path fill="#7e57c2" stroke="black" d="M529.12,-76.5C529.12,-76.5 480.88,-76.5 480.88,-76.5 474.88,-76.5 468.88,-70.5 468.88,-64.5 468.88,-64.5 468.88,-52.5 468.88,-52.5 468.88,-46.5 474.88,-40.5 480.88,-40.5 480.88,-40.5 529.12,-40.5 529.12,-40.5 535.12,-40.5 541.12,-46.5 541.12,-52.5 541.12,-52.5 541.12,-64.5 541.12,-64.5 541.12,-70.5 535.12,-76.5 529.12,-76.5"/>
<text xml:space="preserve" text-anchor="middle" x="505" y="-61" font-family="Arial" font-size="10.00" fill="white">Fly.io</text>
<text xml:space="preserve" text-anchor="middle" x="505" y="-49" font-family="Arial" font-size="10.00" fill="white">Edge Deploy</text>
</g>
<!-- docker_prod&#45;&gt;flyio -->
<g id="edge21" class="edge">
<title>docker_prod&#45;&gt;flyio</title>
<path fill="none" stroke="#7e57c2" stroke-width="1.5" d="M505,-138.07C505,-138.07 505,-89.12 505,-89.12"/>
<polygon fill="#7e57c2" stroke="#7e57c2" stroke-width="1.5" points="508.5,-89.12 505,-79.12 501.5,-89.12 508.5,-89.12"/>
<text xml:space="preserve" text-anchor="middle" x="476.5" y="-116.79" font-family="Times New Roman,serif" font-size="14.00">Deploy To</text>
</g>
<!-- render -->
<g id="node21" class="node">
<title>render</title>
<path fill="#7e57c2" stroke="black" d="M636.75,-76.5C636.75,-76.5 589.25,-76.5 589.25,-76.5 583.25,-76.5 577.25,-70.5 577.25,-64.5 577.25,-64.5 577.25,-52.5 577.25,-52.5 577.25,-46.5 583.25,-40.5 589.25,-40.5 589.25,-40.5 636.75,-40.5 636.75,-40.5 642.75,-40.5 648.75,-46.5 648.75,-52.5 648.75,-52.5 648.75,-64.5 648.75,-64.5 648.75,-70.5 642.75,-76.5 636.75,-76.5"/>
<text xml:space="preserve" text-anchor="middle" x="613" y="-61" font-family="Arial" font-size="10.00" fill="white">Render</text>
<text xml:space="preserve" text-anchor="middle" x="613" y="-49" font-family="Arial" font-size="10.00" fill="white">Web Service</text>
</g>
<!-- docker_prod&#45;&gt;render -->
<g id="edge22" class="edge">
<title>docker_prod&#45;&gt;render</title>
<path fill="none" stroke="#7e57c2" stroke-width="1.5" d="M549.94,-138.07C549.94,-109.68 549.94,-58.5 549.94,-58.5 549.94,-58.5 564.78,-58.5 564.78,-58.5"/>
<polygon fill="#7e57c2" stroke="#7e57c2" stroke-width="1.5" points="564.78,-62 574.78,-58.5 564.78,-55 564.78,-62"/>
<text xml:space="preserve" text-anchor="middle" x="578.44" y="-77.56" font-family="Times New Roman,serif" font-size="14.00">Deploy To</text>
</g>
<!-- daytona -->
<g id="node22" class="node">
<title>daytona</title>
<path fill="#7e57c2" stroke="black" d="M764.88,-76.5C764.88,-76.5 697.12,-76.5 697.12,-76.5 691.12,-76.5 685.12,-70.5 685.12,-64.5 685.12,-64.5 685.12,-52.5 685.12,-52.5 685.12,-46.5 691.12,-40.5 697.12,-40.5 697.12,-40.5 764.88,-40.5 764.88,-40.5 770.88,-40.5 776.88,-46.5 776.88,-52.5 776.88,-52.5 776.88,-64.5 776.88,-64.5 776.88,-70.5 770.88,-76.5 764.88,-76.5"/>
<text xml:space="preserve" text-anchor="middle" x="731" y="-61" font-family="Arial" font-size="10.00" fill="white">Daytona</text>
<text xml:space="preserve" text-anchor="middle" x="731" y="-49" font-family="Arial" font-size="10.00" fill="white">Dev Environment</text>
</g>
<!-- docker_prod&#45;&gt;daytona -->
<g id="edge23" class="edge">
<title>docker_prod&#45;&gt;daytona</title>
<path fill="none" stroke="#7e57c2" stroke-width="1.5" d="M559.13,-156.5C625.99,-156.5 731,-156.5 731,-156.5 731,-156.5 731,-89.2 731,-89.2"/>
<polygon fill="#7e57c2" stroke="#7e57c2" stroke-width="1.5" points="734.5,-89.2 731,-79.2 727.5,-89.2 734.5,-89.2"/>
<text xml:space="preserve" text-anchor="middle" x="650.21" y="-159.7" font-family="Times New Roman,serif" font-size="14.00">Deploy To</text>
</g>
<!-- cognee_cloud -->
<g id="node13" class="node">
<title>cognee_cloud</title>
<path fill="#ff9800" stroke="black" d="M908,-468.5C908,-468.5 832,-468.5 832,-468.5 826,-468.5 820,-462.5 820,-456.5 820,-456.5 820,-444.5 820,-444.5 820,-438.5 826,-432.5 832,-432.5 832,-432.5 908,-432.5 908,-432.5 914,-432.5 920,-438.5 920,-444.5 920,-444.5 920,-456.5 920,-456.5 920,-462.5 914,-468.5 908,-468.5"/>
<text xml:space="preserve" text-anchor="middle" x="870" y="-453.55" font-family="Arial" font-size="11.00" fill="white">Cognee Cloud</text>
<text xml:space="preserve" text-anchor="middle" x="870" y="-440.05" font-family="Arial" font-size="11.00" fill="white">Managed Service</text>
</g>
<!-- cloud_config -->
<g id="node14" class="node">
<title>cloud_config</title>
<path fill="#ffb74d" stroke="black" d="M899.75,-374.5C899.75,-374.5 840.25,-374.5 840.25,-374.5 834.25,-374.5 828.25,-368.5 828.25,-362.5 828.25,-362.5 828.25,-350.5 828.25,-350.5 828.25,-344.5 834.25,-338.5 840.25,-338.5 840.25,-338.5 899.75,-338.5 899.75,-338.5 905.75,-338.5 911.75,-344.5 911.75,-350.5 911.75,-350.5 911.75,-362.5 911.75,-362.5 911.75,-368.5 905.75,-374.5 899.75,-374.5"/>
<text xml:space="preserve" text-anchor="middle" x="870" y="-359" font-family="Arial" font-size="10.00" fill="white">Cloud Config</text>
<text xml:space="preserve" text-anchor="middle" x="870" y="-347" font-family="Arial" font-size="10.00" fill="white">API Key Based</text>
</g>
<!-- cognee_cloud&#45;&gt;cloud_config -->
<g id="edge15" class="edge">
<title>cognee_cloud&#45;&gt;cloud_config</title>
<path fill="none" stroke="#ff9800" stroke-width="2" d="M870,-432.38C870,-432.38 870,-387.92 870,-387.92"/>
<polygon fill="#ff9800" stroke="#ff9800" stroke-width="2" points="873.5,-387.92 870,-377.92 866.5,-387.92 873.5,-387.92"/>
<text xml:space="preserve" text-anchor="middle" x="847.5" y="-413.35" font-family="Times New Roman,serif" font-size="14.00">Sign Up</text>
</g>
<!-- cloud_api -->
<g id="node15" class="node">
<title>cloud_api</title>
<path fill="#ffb74d" stroke="black" d="M910.62,-276.5C910.62,-276.5 829.38,-276.5 829.38,-276.5 823.38,-276.5 817.38,-270.5 817.38,-264.5 817.38,-264.5 817.38,-252.5 817.38,-252.5 817.38,-246.5 823.38,-240.5 829.38,-240.5 829.38,-240.5 910.62,-240.5 910.62,-240.5 916.62,-240.5 922.62,-246.5 922.62,-252.5 922.62,-252.5 922.62,-264.5 922.62,-264.5 922.62,-270.5 916.62,-276.5 910.62,-276.5"/>
<text xml:space="preserve" text-anchor="middle" x="870" y="-261" font-family="Arial" font-size="10.00" fill="white">Cloud API</text>
<text xml:space="preserve" text-anchor="middle" x="870" y="-249" font-family="Arial" font-size="10.00" fill="white">REST + WebSocket</text>
</g>
<!-- cloud_config&#45;&gt;cloud_api -->
<g id="edge16" class="edge">
<title>cloud_config&#45;&gt;cloud_api</title>
<path fill="none" stroke="#ff9800" stroke-width="2" d="M870,-338.07C870,-338.07 870,-289.88 870,-289.88"/>
<polygon fill="#ff9800" stroke="#ff9800" stroke-width="2" points="873.5,-289.88 870,-279.88 866.5,-289.88 873.5,-289.88"/>
<text xml:space="preserve" text-anchor="middle" x="846" y="-317.17" font-family="Times New Roman,serif" font-size="14.00">API Key</text>
</g>
<!-- cloud_infra -->
<g id="node16" class="node">
<title>cloud_infra</title>
<path fill="#ff9800" stroke="black" d="M921.12,-174.5C921.12,-176.71 898.21,-178.5 870,-178.5 841.79,-178.5 818.88,-176.71 818.88,-174.5 818.88,-174.5 818.88,-138.5 818.88,-138.5 818.88,-136.29 841.79,-134.5 870,-134.5 898.21,-134.5 921.12,-136.29 921.12,-138.5 921.12,-138.5 921.12,-174.5 921.12,-174.5"/>
<path fill="none" stroke="black" d="M921.12,-174.5C921.12,-172.29 898.21,-170.5 870,-170.5 841.79,-170.5 818.88,-172.29 818.88,-174.5"/>
<text xml:space="preserve" text-anchor="middle" x="870" y="-159" font-family="Arial" font-size="10.00" fill="white">Cloud Infrastructure</text>
<text xml:space="preserve" text-anchor="middle" x="870" y="-147" font-family="Arial" font-size="10.00" fill="white">Managed Storage</text>
</g>
<!-- cloud_api&#45;&gt;cloud_infra -->
<g id="edge17" class="edge">
<title>cloud_api&#45;&gt;cloud_infra</title>
<path fill="none" stroke="#ff9800" stroke-width="2" d="M870,-240.26C870,-240.26 870,-191.88 870,-191.88"/>
<polygon fill="#ff9800" stroke="#ff9800" stroke-width="2" points="873.5,-191.88 870,-181.88 866.5,-191.88 873.5,-191.88"/>
</g>
<!-- cloud_result -->
<g id="node17" class="node">
<title>cloud_result</title>
<path fill="#e65100" stroke="black" d="M915.5,-76.5C915.5,-76.5 824.5,-76.5 824.5,-76.5 818.5,-76.5 812.5,-70.5 812.5,-64.5 812.5,-64.5 812.5,-52.5 812.5,-52.5 812.5,-46.5 818.5,-40.5 824.5,-40.5 824.5,-40.5 915.5,-40.5 915.5,-40.5 921.5,-40.5 927.5,-46.5 927.5,-52.5 927.5,-52.5 927.5,-64.5 927.5,-64.5 927.5,-70.5 921.5,-76.5 915.5,-76.5"/>
<text xml:space="preserve" text-anchor="middle" x="870" y="-61.55" font-family="Arial" font-size="11.00" fill="white">Zero&#45;Config Deploy</text>
<text xml:space="preserve" text-anchor="middle" x="870" y="-48.05" font-family="Arial" font-size="11.00" fill="white">Managed + Scalable</text>
</g>
<!-- cloud_infra&#45;&gt;cloud_result -->
<g id="edge18" class="edge">
<title>cloud_infra&#45;&gt;cloud_result</title>
<path fill="none" stroke="#ff9800" stroke-width="2" d="M870,-134.26C870,-134.26 870,-89.74 870,-89.74"/>
<polygon fill="#ff9800" stroke="#ff9800" stroke-width="2" points="873.5,-89.74 870,-79.74 866.5,-89.74 873.5,-89.74"/>
</g>
</g>
</svg>
