<?xml version="1.0" encoding="UTF-8" standalone="no"?>
<!DOCTYPE svg PUBLIC "-//W3C//DTD SVG 1.1//EN"
 "http://www.w3.org/Graphics/SVG/1.1/DTD/svg11.dtd">
<!-- Generated by graphviz version 14.1.2 (0)
 -->
<!-- Title: G Pages: 1 -->
<svg width="268pt" height="556pt"
 viewBox="0.00 0.00 268.00 556.00" xmlns="http://www.w3.org/2000/svg" xmlns:xlink="http://www.w3.org/1999/xlink">
<g id="graph0" class="graph" transform="scale(1 1) rotate(0) translate(4 552.02)">
<title>G</title>
<!-- db -->
<g id="node1" class="node">
<title>db</title>
<path fill="#e0f7fa" stroke="#00838f" d="M69.6,-309.51C69.6,-312.94 54,-315.73 34.8,-315.73 15.6,-315.73 0,-312.94 0,-309.51 0,-309.51 0,-253.51 0,-253.51 0,-250.08 15.6,-247.29 34.8,-247.29 54,-247.29 69.6,-250.08 69.6,-253.51 69.6,-253.51 69.6,-309.51 69.6,-309.51"/>
<path fill="none" stroke="#00838f" d="M69.6,-309.51C69.6,-306.07 54,-303.28 34.8,-303.28 15.6,-303.28 0,-306.07 0,-309.51"/>
<text xml:space="preserve" text-anchor="middle" x="34.8" y="-291.13" font-family="Inter" font-size="10.00">CodeGraph</text>
<text xml:space="preserve" text-anchor="middle" x="34.8" y="-278.38" font-family="Inter" font-size="10.00">SQLite DB</text>
<text xml:space="preserve" text-anchor="middle" x="34.8" y="-265.63" font-family="Inter" font-size="10.00">(FTS5)</text>
</g>
<!-- search -->
<g id="node2" class="node">
<title>search</title>
<path fill="#e8f5e9" stroke="#2e7d32" d="M247.95,-548.02C247.95,-548.02 153.6,-548.02 153.6,-548.02 147.6,-548.02 141.6,-542.02 141.6,-536.02 141.6,-536.02 141.6,-523 141.6,-523 141.6,-517 147.6,-511 153.6,-511 153.6,-511 247.95,-511 247.95,-511 253.95,-511 259.95,-517 259.95,-523 259.95,-523 259.95,-536.02 259.95,-536.02 259.95,-542.02 253.95,-548.02 247.95,-548.02"/>
<text xml:space="preserve" text-anchor="middle" x="200.77" y="-532.76" font-family="Inter" font-size="10.00">codegraph_search</text>
<text xml:space="preserve" text-anchor="middle" x="200.77" y="-520.01" font-family="Inter" font-size="10.00">Find symbols by name</text>
</g>
<!-- db&#45;&gt;search -->
<g id="edge1" class="edge">
<title>db&#45;&gt;search</title>
<path fill="none" stroke="#bdbdbd" d="M46.43,-316.17C61.63,-361.25 93.21,-440.49 141.6,-493.51 146.14,-498.48 151.51,-503.01 157.14,-507.06"/>
<polygon fill="#bdbdbd" stroke="#bdbdbd" points="155.99,-508.4 161.11,-509.78 157.97,-505.51 155.99,-508.4"/>
</g>
<!-- files -->
<g id="node3" class="node">
<title>files</title>
<path fill="#e8f5e9" stroke="#2e7d32" d="M245.7,-475.02C245.7,-475.02 155.85,-475.02 155.85,-475.02 149.85,-475.02 143.85,-469.02 143.85,-463.02 143.85,-463.02 143.85,-450 143.85,-450 143.85,-444 149.85,-438 155.85,-438 155.85,-438 245.7,-438 245.7,-438 251.7,-438 257.7,-444 257.7,-450 257.7,-450 257.7,-463.02 257.7,-463.02 257.7,-469.02 251.7,-475.02 245.7,-475.02"/>
<text xml:space="preserve" text-anchor="middle" x="200.77" y="-459.76" font-family="Inter" font-size="10.00">codegraph_files</text>
<text xml:space="preserve" text-anchor="middle" x="200.77" y="-447.01" font-family="Inter" font-size="10.00">Indexed file structure</text>
</g>
<!-- db&#45;&gt;files -->
<g id="edge2" class="edge">
<title>db&#45;&gt;files</title>
<path fill="none" stroke="#bdbdbd" d="M56.53,-315.47C75.96,-345.48 107.13,-389.22 141.6,-420.51 146.96,-425.38 153.06,-429.96 159.25,-434.13"/>
<polygon fill="#bdbdbd" stroke="#bdbdbd" points="158.05,-435.44 163.19,-436.7 159.96,-432.51 158.05,-435.44"/>
</g>
<!-- status -->
<g id="node4" class="node">
<title>status</title>
<path fill="#e8f5e9" stroke="#2e7d32" d="M240.45,-402.02C240.45,-402.02 161.1,-402.02 161.1,-402.02 155.1,-402.02 149.1,-396.02 149.1,-390.02 149.1,-390.02 149.1,-377 149.1,-377 149.1,-371 155.1,-365 161.1,-365 161.1,-365 240.45,-365 240.45,-365 246.45,-365 252.45,-371 252.45,-377 252.45,-377 252.45,-390.02 252.45,-390.02 252.45,-396.02 246.45,-402.02 240.45,-402.02"/>
<text xml:space="preserve" text-anchor="middle" x="200.77" y="-386.76" font-family="Inter" font-size="10.00">codegraph_status</text>
<text xml:space="preserve" text-anchor="middle" x="200.77" y="-374.01" font-family="Inter" font-size="10.00">Index health check</text>
</g>
<!-- db&#45;&gt;status -->
<g id="edge3" class="edge">
<title>db&#45;&gt;status</title>
<path fill="none" stroke="#bdbdbd" d="M70.09,-302.94C90.79,-315.87 117.69,-332.66 141.6,-347.51 148.75,-351.96 156.41,-356.7 163.74,-361.24"/>
<polygon fill="#bdbdbd" stroke="#bdbdbd" points="162.81,-362.72 167.98,-363.86 164.65,-359.74 162.81,-362.72"/>
</g>
<!-- callers -->
<g id="node5" class="node">
<title>callers</title>
<path fill="#e3f2fd" stroke="#1565c0" d="M238.57,-183.02C238.57,-183.02 162.97,-183.02 162.97,-183.02 156.97,-183.02 150.97,-177.02 150.97,-171.02 150.97,-171.02 150.97,-158 150.97,-158 150.97,-152 156.97,-146 162.97,-146 162.97,-146 238.57,-146 238.57,-146 244.57,-146 250.57,-152 250.57,-158 250.57,-158 250.57,-171.02 250.57,-171.02 250.57,-177.02 244.57,-183.02 238.57,-183.02"/>
<text xml:space="preserve" text-anchor="middle" x="200.77" y="-167.76" font-family="Inter" font-size="10.00">codegraph_callers</text>
<text xml:space="preserve" text-anchor="middle" x="200.77" y="-155.01" font-family="Inter" font-size="10.00">Who calls this?</text>
</g>
<!-- db&#45;&gt;callers -->
<g id="edge4" class="edge">
<title>db&#45;&gt;callers</title>
<path fill="none" stroke="#bdbdbd" d="M69.94,-253.99C90.36,-237.89 117.03,-217.45 141.6,-200.51 148.3,-195.89 155.58,-191.16 162.65,-186.72"/>
<polygon fill="#bdbdbd" stroke="#bdbdbd" points="163.41,-188.31 166.72,-184.18 161.56,-185.34 163.41,-188.31"/>
</g>
<!-- callees -->
<g id="node6" class="node">
<title>callees</title>
<path fill="#e3f2fd" stroke="#1565c0" d="M242.32,-329.02C242.32,-329.02 159.22,-329.02 159.22,-329.02 153.22,-329.02 147.22,-323.02 147.22,-317.02 147.22,-317.02 147.22,-304 147.22,-304 147.22,-298 153.22,-292 159.22,-292 159.22,-292 242.32,-292 242.32,-292 248.32,-292 254.32,-298 254.32,-304 254.32,-304 254.32,-317.02 254.32,-317.02 254.32,-323.02 248.32,-329.02 242.32,-329.02"/>
<text xml:space="preserve" text-anchor="middle" x="200.77" y="-313.76" font-family="Inter" font-size="10.00">codegraph_callees</text>
<text xml:space="preserve" text-anchor="middle" x="200.77" y="-301.01" font-family="Inter" font-size="10.00">What does this call?</text>
</g>
<!-- db&#45;&gt;callees -->
<g id="edge5" class="edge">
<title>db&#45;&gt;callees</title>
<path fill="none" stroke="#bdbdbd" d="M69.78,-287.52C90.18,-291.13 116.72,-295.82 140.49,-300.03"/>
<polygon fill="#bdbdbd" stroke="#bdbdbd" points="140.07,-301.73 145.3,-300.88 140.68,-298.28 140.07,-301.73"/>
</g>
<!-- node_tool -->
<g id="node7" class="node">
<title>node_tool</title>
<path fill="#e3f2fd" stroke="#1565c0" d="M235.2,-256.02C235.2,-256.02 166.35,-256.02 166.35,-256.02 160.35,-256.02 154.35,-250.02 154.35,-244.02 154.35,-244.02 154.35,-231 154.35,-231 154.35,-225 160.35,-219 166.35,-219 166.35,-219 235.2,-219 235.2,-219 241.2,-219 247.2,-225 247.2,-231 247.2,-231 247.2,-244.02 247.2,-244.02 247.2,-250.02 241.2,-256.02 235.2,-256.02"/>
<text xml:space="preserve" text-anchor="middle" x="200.77" y="-240.76" font-family="Inter" font-size="10.00">codegraph_node</text>
<text xml:space="preserve" text-anchor="middle" x="200.77" y="-228.01" font-family="Inter" font-size="10.00">Symbol details</text>
</g>
<!-- db&#45;&gt;node_tool -->
<g id="edge6" class="edge">
<title>db&#45;&gt;node_tool</title>
<path fill="none" stroke="#bdbdbd" d="M69.78,-272.39C92.36,-266.33 122.44,-258.26 147.98,-251.41"/>
<polygon fill="#bdbdbd" stroke="#bdbdbd" points="148.19,-253.16 152.56,-250.18 147.28,-249.78 148.19,-253.16"/>
</g>
<!-- impact -->
<g id="node8" class="node">
<title>impact</title>
<path fill="#fff8e1" stroke="#f57f17" d="M246.07,-110.02C246.07,-110.02 155.47,-110.02 155.47,-110.02 149.47,-110.02 143.47,-104.02 143.47,-98.02 143.47,-98.02 143.47,-85 143.47,-85 143.47,-79 149.47,-73 155.47,-73 155.47,-73 246.07,-73 246.07,-73 252.07,-73 258.07,-79 258.07,-85 258.07,-85 258.07,-98.02 258.07,-98.02 258.07,-104.02 252.07,-110.02 246.07,-110.02"/>
<text xml:space="preserve" text-anchor="middle" x="200.77" y="-94.76" font-family="Inter" font-size="10.00">codegraph_impact</text>
<text xml:space="preserve" text-anchor="middle" x="200.77" y="-82.01" font-family="Inter" font-size="10.00">Change impact radius</text>
</g>
<!-- db&#45;&gt;impact -->
<g id="edge7" class="edge">
<title>db&#45;&gt;impact</title>
<path fill="none" stroke="#bdbdbd" d="M53.96,-246.95C72.7,-213.57 104.39,-162.99 141.6,-127.51 146.77,-122.58 152.72,-117.98 158.81,-113.82"/>
<polygon fill="#bdbdbd" stroke="#bdbdbd" points="159.46,-115.49 162.67,-111.28 157.53,-112.57 159.46,-115.49"/>
</g>
<!-- context -->
<g id="node9" class="node">
<title>context</title>
<path fill="#f3e5f5" stroke="#7b1fa2" d="M240.45,-37.02C240.45,-37.02 161.1,-37.02 161.1,-37.02 155.1,-37.02 149.1,-31.02 149.1,-25.02 149.1,-25.02 149.1,-12 149.1,-12 149.1,-6 155.1,0 161.1,0 161.1,0 240.45,0 240.45,0 246.45,0 252.45,-6 252.45,-12 252.45,-12 252.45,-25.02 252.45,-25.02 252.45,-31.02 246.45,-37.02 240.45,-37.02"/>
<text xml:space="preserve" text-anchor="middle" x="200.77" y="-21.76" font-family="Inter" font-size="10.00">codegraph_context</text>
<text xml:space="preserve" text-anchor="middle" x="200.77" y="-9.01" font-family="Inter" font-size="10.00">Build task context</text>
</g>
<!-- db&#45;&gt;context -->
<g id="edge8" class="edge">
<title>db&#45;&gt;context</title>
<path fill="none" stroke="#bdbdbd" d="M50.54,-247.1C76.25,-187.51 127.88,-69.95 141.6,-54.51 146.01,-49.55 151.27,-45.04 156.79,-41.01"/>
<polygon fill="#bdbdbd" stroke="#bdbdbd" points="157.56,-42.61 160.68,-38.32 155.57,-39.73 157.56,-42.61"/>
</g>
<!-- search_label -->
<g id="node10" class="node">
<title>search_label</title>
<text xml:space="preserve" text-anchor="middle" x="34.8" y="-526.96" font-family="Inter" font-size="9.00" fill="#2e7d32">Search</text>
</g>
<!-- search_label&#45;&gt;search -->
<!-- nav_label -->
<g id="node11" class="node">
<title>nav_label</title>
<text xml:space="preserve" text-anchor="middle" x="34.8" y="-161.96" font-family="Inter" font-size="9.00" fill="#1565c0">Navigation</text>
</g>
<!-- nav_label&#45;&gt;callers -->
<!-- impact_label -->
<g id="node12" class="node">
<title>impact_label</title>
<text xml:space="preserve" text-anchor="middle" x="34.8" y="-88.96" font-family="Inter" font-size="9.00" fill="#f57f17">Impact</text>
</g>
<!-- impact_label&#45;&gt;impact -->
<!-- ctx_label -->
<g id="node13" class="node">
<title>ctx_label</title>
<text xml:space="preserve" text-anchor="middle" x="34.8" y="-15.96" font-family="Inter" font-size="9.00" fill="#7b1fa2">Context</text>
</g>
<!-- ctx_label&#45;&gt;context -->
</g>
</svg>
