<?xml version="1.0" encoding="UTF-8" standalone="no"?>
<!DOCTYPE svg PUBLIC "-//W3C//DTD SVG 1.1//EN"
 "http://www.w3.org/Graphics/SVG/1.1/DTD/svg11.dtd">
<!-- Generated by graphviz version 14.1.2 (0)
 -->
<!-- Title: G Pages: 1 -->
<svg width="1012pt" height="565pt"
 viewBox="0.00 0.00 1012.00 565.00" xmlns="http://www.w3.org/2000/svg" xmlns:xlink="http://www.w3.org/1999/xlink">
<g id="graph0" class="graph" transform="scale(1.33333 1.33333) rotate(0) translate(36 387.75)">
<title>G</title>
<polygon fill="#1a1a2e" stroke="none" points="-36,36 -36,-387.75 722.75,-387.75 722.75,36 -36,36"/>
<text xml:space="preserve" text-anchor="middle" x="343.38" y="-10.2" font-family="Inter, system-ui, sans-serif" font-size="14.00" fill="#e2e8f0">CUA Bench &#45; Benchmarks &amp; RL Environments</text>
<!-- datasets -->
<g id="node1" class="node">
<title>datasets</title>
<path fill="#16213e" stroke="#f59e0b" stroke-width="2" d="M168,-351.75C168,-351.75 48,-351.75 48,-351.75 42,-351.75 36,-345.75 36,-339.75 36,-339.75 36,-238.25 36,-238.25 36,-232.25 42,-226.25 48,-226.25 48,-226.25 168,-226.25 168,-226.25 174,-226.25 180,-232.25 180,-238.25 180,-238.25 180,-339.75 180,-339.75 180,-345.75 174,-351.75 168,-351.75"/>
<text xml:space="preserve" text-anchor="middle" x="108" y="-336.35" font-family="Inter, system-ui, sans-serif" font-size="12.00" fill="#e2e8f0">Benchmark</text>
<text xml:space="preserve" text-anchor="middle" x="108" y="-319.1" font-family="Inter, system-ui, sans-serif" font-size="12.00" fill="#e2e8f0">Datasets</text>
<text xml:space="preserve" text-anchor="middle" x="108" y="-287.85" font-family="Inter, system-ui, sans-serif" font-size="12.00" fill="#e2e8f0">OSWorld</text>
<text xml:space="preserve" text-anchor="middle" x="108" y="-270.6" font-family="Inter, system-ui, sans-serif" font-size="12.00" fill="#e2e8f0">ScreenSpot</text>
<text xml:space="preserve" text-anchor="middle" x="108" y="-253.35" font-family="Inter, system-ui, sans-serif" font-size="12.00" fill="#e2e8f0">Windows Arena</text>
<text xml:space="preserve" text-anchor="middle" x="108" y="-236.1" font-family="Inter, system-ui, sans-serif" font-size="12.00" fill="#e2e8f0">Custom Tasks</text>
</g>
<!-- bench -->
<g id="node2" class="node">
<title>bench</title>
<path fill="#f59e0b" stroke="#f59e0b" stroke-width="2" d="M435.25,-281C435.25,-281 315.25,-281 315.25,-281 309.25,-281 303.25,-275 303.25,-269 303.25,-269 303.25,-185 303.25,-185 303.25,-179 309.25,-173 315.25,-173 315.25,-173 435.25,-173 435.25,-173 441.25,-173 447.25,-179 447.25,-185 447.25,-185 447.25,-269 447.25,-269 447.25,-275 441.25,-281 435.25,-281"/>
<text xml:space="preserve" text-anchor="middle" x="375.25" y="-242.95" font-family="Inter, system-ui, sans-serif" font-size="14.00" fill="white">CUA Bench</text>
<text xml:space="preserve" text-anchor="middle" x="375.25" y="-223.45" font-family="Inter, system-ui, sans-serif" font-size="14.00" fill="white">Evaluation</text>
<text xml:space="preserve" text-anchor="middle" x="375.25" y="-203.95" font-family="Inter, system-ui, sans-serif" font-size="14.00" fill="white">Engine</text>
</g>
<!-- datasets&#45;&gt;bench -->
<g id="edge1" class="edge">
<title>datasets&#45;&gt;bench</title>
<path fill="none" stroke="#f59e0b" stroke-width="2" d="M180.78,-272.22C214.4,-264.36 254.67,-254.95 289.75,-246.75"/>
<polygon fill="#f59e0b" stroke="#f59e0b" stroke-width="2" points="290.52,-250.16 299.46,-244.48 288.93,-243.35 290.52,-250.16"/>
<text xml:space="preserve" text-anchor="middle" x="259.62" y="-260.89" font-family="Inter, system-ui, sans-serif" font-size="10.00" fill="#94a3b8">cb run</text>
</g>
<!-- agent -->
<g id="node3" class="node">
<title>agent</title>
<path fill="#16213e" stroke="#0ea5e9" stroke-width="2" d="M656.75,-332.25C656.75,-332.25 572.75,-332.25 572.75,-332.25 566.75,-332.25 560.75,-326.25 560.75,-320.25 560.75,-320.25 560.75,-301.75 560.75,-301.75 560.75,-295.75 566.75,-289.75 572.75,-289.75 572.75,-289.75 656.75,-289.75 656.75,-289.75 662.75,-289.75 668.75,-295.75 668.75,-301.75 668.75,-301.75 668.75,-320.25 668.75,-320.25 668.75,-326.25 662.75,-332.25 656.75,-332.25"/>
<text xml:space="preserve" text-anchor="middle" x="614.75" y="-316.85" font-family="Inter, system-ui, sans-serif" font-size="12.00" fill="#e2e8f0">Computer&#45;Use</text>
<text xml:space="preserve" text-anchor="middle" x="614.75" y="-299.6" font-family="Inter, system-ui, sans-serif" font-size="12.00" fill="#e2e8f0">Agent</text>
</g>
<!-- bench&#45;&gt;agent -->
<g id="edge2" class="edge">
<title>bench&#45;&gt;agent</title>
<path fill="none" stroke="#0ea5e9" stroke-width="2" d="M448.06,-265.25C457.4,-269.53 466.96,-273.58 476.25,-277 499.03,-285.39 524.69,-292.37 547.61,-297.77"/>
<polygon fill="#0ea5e9" stroke="#0ea5e9" stroke-width="2" points="546.56,-301.12 557.09,-299.94 548.12,-294.3 546.56,-301.12"/>
<text xml:space="preserve" text-anchor="middle" x="495" y="-293.64" font-family="Inter, system-ui, sans-serif" font-size="10.00" fill="#94a3b8">evaluate</text>
</g>
<!-- metrics -->
<g id="node4" class="node">
<title>metrics</title>
<path fill="#0f172a" stroke="#10b981" stroke-width="2" d="M674.75,-232.5C674.75,-232.5 554.75,-232.5 554.75,-232.5 548.75,-232.5 542.75,-226.5 542.75,-220.5 542.75,-220.5 542.75,-163.5 542.75,-163.5 542.75,-157.5 548.75,-151.5 554.75,-151.5 554.75,-151.5 674.75,-151.5 674.75,-151.5 680.75,-151.5 686.75,-157.5 686.75,-163.5 686.75,-163.5 686.75,-220.5 686.75,-220.5 686.75,-226.5 680.75,-232.5 674.75,-232.5"/>
<text xml:space="preserve" text-anchor="middle" x="614.75" y="-218.05" font-family="Inter, system-ui, sans-serif" font-size="11.00" fill="#e2e8f0">Metrics</text>
<text xml:space="preserve" text-anchor="middle" x="614.75" y="-190.05" font-family="Inter, system-ui, sans-serif" font-size="11.00" fill="#e2e8f0">Accuracy</text>
<text xml:space="preserve" text-anchor="middle" x="614.75" y="-175.05" font-family="Inter, system-ui, sans-serif" font-size="11.00" fill="#e2e8f0">Step Count</text>
<text xml:space="preserve" text-anchor="middle" x="614.75" y="-160.05" font-family="Inter, system-ui, sans-serif" font-size="11.00" fill="#e2e8f0">Time to Complete</text>
</g>
<!-- bench&#45;&gt;metrics -->
<g id="edge4" class="edge">
<title>bench&#45;&gt;metrics</title>
<path fill="none" stroke="#10b981" stroke-width="1.5" d="M448.15,-216.4C473.96,-212.6 503.29,-208.28 530.02,-204.34"/>
<polygon fill="#10b981" stroke="#10b981" stroke-width="1.5" points="530.46,-207.81 539.85,-202.89 529.44,-200.89 530.46,-207.81"/>
</g>
<!-- trajectories -->
<g id="node5" class="node">
<title>trajectories</title>
<path fill="#0f172a" stroke="#8b5cf6" stroke-width="2" d="M674.75,-108.5C674.75,-108.5 554.75,-108.5 554.75,-108.5 548.75,-108.5 542.75,-102.5 542.75,-96.5 542.75,-96.5 542.75,-39.5 542.75,-39.5 542.75,-33.5 548.75,-27.5 554.75,-27.5 554.75,-27.5 674.75,-27.5 674.75,-27.5 680.75,-27.5 686.75,-33.5 686.75,-39.5 686.75,-39.5 686.75,-96.5 686.75,-96.5 686.75,-102.5 680.75,-108.5 674.75,-108.5"/>
<text xml:space="preserve" text-anchor="middle" x="614.75" y="-94.05" font-family="Inter, system-ui, sans-serif" font-size="11.00" fill="#e2e8f0">Trajectories</text>
<text xml:space="preserve" text-anchor="middle" x="614.75" y="-66.05" font-family="Inter, system-ui, sans-serif" font-size="11.00" fill="#e2e8f0">Replay Data</text>
<text xml:space="preserve" text-anchor="middle" x="614.75" y="-51.05" font-family="Inter, system-ui, sans-serif" font-size="11.00" fill="#e2e8f0">RL Training</text>
<text xml:space="preserve" text-anchor="middle" x="614.75" y="-36.05" font-family="Inter, system-ui, sans-serif" font-size="11.00" fill="#e2e8f0">Fine&#45;tuning</text>
</g>
<!-- bench&#45;&gt;trajectories -->
<g id="edge5" class="edge">
<title>bench&#45;&gt;trajectories</title>
<path fill="none" stroke="#8b5cf6" stroke-width="1.5" d="M448.15,-178.86C477.96,-158.91 512.46,-135.81 542.22,-115.89"/>
<polygon fill="#8b5cf6" stroke="#8b5cf6" stroke-width="1.5" points="543.87,-118.99 550.24,-110.52 539.98,-113.18 543.87,-118.99"/>
</g>
<!-- agent&#45;&gt;bench -->
<g id="edge3" class="edge">
<title>agent&#45;&gt;bench</title>
<path fill="none" stroke="#10b981" stroke-width="1.5" stroke-dasharray="5,2" d="M577.81,-288.82C559.24,-278.16 535.88,-265.95 513.75,-257.75 496.63,-251.41 477.8,-246.15 459.71,-241.88"/>
<polygon fill="#10b981" stroke="#10b981" stroke-width="1.5" points="460.7,-238.52 450.18,-239.72 459.16,-245.35 460.7,-238.52"/>
<text xml:space="preserve" text-anchor="middle" x="495" y="-262.5" font-family="Inter, system-ui, sans-serif" font-size="10.00" fill="#94a3b8">results</text>
</g>
<!-- cli_cmd -->
<g id="node6" class="node">
<title>cli_cmd</title>
<path fill="#0f172a" stroke="#94a3b8" stroke-width="2" d="M204,-183.25C204,-183.25 12,-183.25 12,-183.25 6,-183.25 0,-177.25 0,-171.25 0,-171.25 0,-158.75 0,-158.75 0,-152.75 6,-146.75 12,-146.75 12,-146.75 204,-146.75 204,-146.75 210,-146.75 216,-152.75 216,-158.75 216,-158.75 216,-171.25 216,-171.25 216,-177.25 210,-183.25 204,-183.25"/>
<text xml:space="preserve" text-anchor="middle" x="108" y="-169.75" font-family="Inter, system-ui, sans-serif" font-size="10.00" fill="#e2e8f0">cb run dataset datasets/cua&#45;bench&#45;basic</text>
<text xml:space="preserve" text-anchor="middle" x="108" y="-155.5" font-family="Inter, system-ui, sans-serif" font-size="10.00" fill="#e2e8f0">&#45;&#45;agent cua&#45;agent &#45;&#45;max&#45;parallel 4</text>
</g>
<!-- cli_cmd&#45;&gt;bench -->
<g id="edge6" class="edge">
<title>cli_cmd&#45;&gt;bench</title>
<path fill="none" stroke="#94a3b8" stroke-width="1.5" stroke-dasharray="1,5" d="M191.11,-184.19C222.68,-191.57 258.74,-200 290.47,-207.42"/>
<polygon fill="#94a3b8" stroke="#94a3b8" stroke-width="1.5" points="289.65,-210.82 300.18,-209.69 291.24,-204 289.65,-210.82"/>
</g>
</g>
</svg>
