<?xml version="1.0" encoding="UTF-8" standalone="no"?>
<!DOCTYPE svg PUBLIC "-//W3C//DTD SVG 1.1//EN"
 "http://www.w3.org/Graphics/SVG/1.1/DTD/svg11.dtd">
<!-- Generated by graphviz version 14.1.2 (0)
 -->
<!-- Title: hue_multi_platform_output Pages: 1 -->
<svg width="1322pt" height="305pt"
 viewBox="0.00 0.00 1322.00 305.00" xmlns="http://www.w3.org/2000/svg" xmlns:xlink="http://www.w3.org/1999/xlink">
<g id="graph0" class="graph" transform="scale(1 1) rotate(0) translate(4 300.75)">
<title>hue_multi_platform_output</title>
<g id="clust1" class="cluster">
<title>cluster_tokens</title>
<polygon fill="#d6eaf8" stroke="#2980b9" stroke-width="2" points="8,-104 8,-211 602,-211 602,-104 8,-104"/>
<text xml:space="preserve" text-anchor="middle" x="305" y="-196.55" font-family="Segoe UI" font-size="11.00">Token Outputs</text>
</g>
<g id="clust2" class="cluster">
<title>cluster_visuals</title>
<polygon fill="#e8daef" stroke="#8e44ad" stroke-width="2" points="615,-111.5 615,-203.5 1306,-203.5 1306,-111.5 615,-111.5"/>
<text xml:space="preserve" text-anchor="middle" x="960.5" y="-189.05" font-family="Segoe UI" font-size="11.00">Visual Outputs</text>
</g>
<!-- yaml -->
<g id="node1" class="node">
<title>yaml</title>
<path fill="#fadbd8" stroke="#e74c3c" stroke-width="3" d="M745.62,-296.75C745.62,-296.75 634.38,-296.75 634.38,-296.75 628.38,-296.75 622.38,-290.75 622.38,-284.75 622.38,-284.75 622.38,-272.75 622.38,-272.75 622.38,-266.75 628.38,-260.75 634.38,-260.75 634.38,-260.75 745.62,-260.75 745.62,-260.75 751.62,-260.75 757.62,-266.75 757.62,-272.75 757.62,-272.75 757.62,-284.75 757.62,-284.75 757.62,-290.75 751.62,-296.75 745.62,-296.75"/>
<text xml:space="preserve" text-anchor="middle" x="690" y="-275.2" font-family="Segoe UI" font-size="14.00" fill="#8b0000">design&#45;model.yaml</text>
</g>
<!-- css -->
<g id="node2" class="node">
<title>css</title>
<path fill="#d6eaf8" stroke="#2980b9" stroke-width="1.5" d="M203.5,-180C203.5,-180 28.5,-180 28.5,-180 22.5,-180 16.5,-174 16.5,-168 16.5,-168 16.5,-124 16.5,-124 16.5,-118 22.5,-112 28.5,-112 28.5,-112 203.5,-112 203.5,-112 209.5,-112 215.5,-118 215.5,-124 215.5,-124 215.5,-168 215.5,-168 215.5,-174 209.5,-180 203.5,-180"/>
<text xml:space="preserve" text-anchor="middle" x="116" y="-165.55" font-family="Segoe UI" font-size="11.00" fill="#1a1a1a">CSS Custom Properties</text>
<text xml:space="preserve" text-anchor="middle" x="116" y="-150.55" font-family="Segoe UI" font-size="11.00" fill="#1a1a1a">:root block with</text>
<text xml:space="preserve" text-anchor="middle" x="116" y="-135.55" font-family="Segoe UI" font-size="11.00" fill="#1a1a1a">[data&#45;theme=&quot;dark&quot;] /</text>
<text xml:space="preserve" text-anchor="middle" x="116" y="-120.55" font-family="Segoe UI" font-size="11.00" fill="#1a1a1a">@media (prefers&#45;color&#45;scheme: dark)</text>
</g>
<!-- yaml&#45;&gt;css -->
<g id="edge1" class="edge">
<title>yaml&#45;&gt;css</title>
<path fill="none" stroke="#2980b9" stroke-width="1.5" d="M667.58,-259.42C667.58,-229.66 667.58,-176 667.58,-176 667.58,-176 226.48,-176 226.48,-176"/>
<polygon fill="#2980b9" stroke="#2980b9" stroke-width="1.5" points="226.48,-173.2 218.48,-176 226.48,-178.8 226.48,-173.2"/>
<text xml:space="preserve" text-anchor="middle" x="320.12" y="-223.2" font-family="Segoe UI" font-size="9.00" fill="#555555">tokens</text>
</g>
<!-- swiftui -->
<g id="node3" class="node">
<title>swiftui</title>
<path fill="#d6eaf8" stroke="#2980b9" stroke-width="1.5" d="M403.25,-172.5C403.25,-172.5 256.75,-172.5 256.75,-172.5 250.75,-172.5 244.75,-166.5 244.75,-160.5 244.75,-160.5 244.75,-131.5 244.75,-131.5 244.75,-125.5 250.75,-119.5 256.75,-119.5 256.75,-119.5 403.25,-119.5 403.25,-119.5 409.25,-119.5 415.25,-125.5 415.25,-131.5 415.25,-131.5 415.25,-160.5 415.25,-160.5 415.25,-166.5 409.25,-172.5 403.25,-172.5"/>
<text xml:space="preserve" text-anchor="middle" x="330" y="-158.05" font-family="Segoe UI" font-size="11.00" fill="#1a1a1a">SwiftUI</text>
<text xml:space="preserve" text-anchor="middle" x="330" y="-143.05" font-family="Segoe UI" font-size="11.00" fill="#1a1a1a">Color extension, Font extension</text>
<text xml:space="preserve" text-anchor="middle" x="330" y="-128.05" font-family="Segoe UI" font-size="11.00" fill="#1a1a1a">spacing/radius enums</text>
</g>
<!-- yaml&#45;&gt;swiftui -->
<g id="edge2" class="edge">
<title>yaml&#45;&gt;swiftui</title>
<path fill="none" stroke="#2980b9" stroke-width="1.5" d="M621.01,-285C516.48,-285 330,-285 330,-285 330,-285 330,-183.4 330,-183.4"/>
<polygon fill="#2980b9" stroke="#2980b9" stroke-width="1.5" points="332.8,-183.4 330,-175.4 327.2,-183.4 332.8,-183.4"/>
</g>
<!-- tailwind -->
<g id="node4" class="node">
<title>tailwind</title>
<path fill="#d6eaf8" stroke="#2980b9" stroke-width="1.5" d="M582.12,-172.5C582.12,-172.5 455.88,-172.5 455.88,-172.5 449.88,-172.5 443.88,-166.5 443.88,-160.5 443.88,-160.5 443.88,-131.5 443.88,-131.5 443.88,-125.5 449.88,-119.5 455.88,-119.5 455.88,-119.5 582.12,-119.5 582.12,-119.5 588.12,-119.5 594.12,-125.5 594.12,-131.5 594.12,-131.5 594.12,-160.5 594.12,-160.5 594.12,-166.5 588.12,-172.5 582.12,-172.5"/>
<text xml:space="preserve" text-anchor="middle" x="519" y="-158.05" font-family="Segoe UI" font-size="11.00" fill="#1a1a1a">Tailwind</text>
<text xml:space="preserve" text-anchor="middle" x="519" y="-143.05" font-family="Segoe UI" font-size="11.00" fill="#1a1a1a">Complete tailwind.config.js</text>
<text xml:space="preserve" text-anchor="middle" x="519" y="-128.05" font-family="Segoe UI" font-size="11.00" fill="#1a1a1a">with all tokens mapped</text>
</g>
<!-- yaml&#45;&gt;tailwind -->
<g id="edge3" class="edge">
<title>yaml&#45;&gt;tailwind</title>
<path fill="none" stroke="#2980b9" stroke-width="1.5" d="M620.94,-273C573.48,-273 519,-273 519,-273 519,-273 519,-183.52 519,-183.52"/>
<polygon fill="#2980b9" stroke="#2980b9" stroke-width="1.5" points="521.8,-183.51 519,-175.52 516.2,-183.52 521.8,-183.51"/>
</g>
<!-- preview -->
<g id="node5" class="node">
<title>preview</title>
<path fill="#e8daef" stroke="#8e44ad" stroke-width="1.5" d="M745.25,-172.5C745.25,-172.5 634.75,-172.5 634.75,-172.5 628.75,-172.5 622.75,-166.5 622.75,-160.5 622.75,-160.5 622.75,-131.5 622.75,-131.5 622.75,-125.5 628.75,-119.5 634.75,-119.5 634.75,-119.5 745.25,-119.5 745.25,-119.5 751.25,-119.5 757.25,-125.5 757.25,-131.5 757.25,-131.5 757.25,-160.5 757.25,-160.5 757.25,-166.5 751.25,-172.5 745.25,-172.5"/>
<text xml:space="preserve" text-anchor="middle" x="690" y="-158.05" font-family="Segoe UI" font-size="11.00" fill="#1a1a1a">preview.html</text>
<text xml:space="preserve" text-anchor="middle" x="690" y="-143.05" font-family="Segoe UI" font-size="11.00" fill="#1a1a1a">&quot;What does it feel like?&quot;</text>
<text xml:space="preserve" text-anchor="middle" x="690" y="-128.05" font-family="Segoe UI" font-size="11.00" fill="#1a1a1a">Bento Grid Dashboard</text>
</g>
<!-- yaml&#45;&gt;preview -->
<g id="edge4" class="edge">
<title>yaml&#45;&gt;preview</title>
<path fill="none" stroke="#8e44ad" stroke-width="1.5" d="M712.42,-259.45C712.42,-259.45 712.42,-183.43 712.42,-183.43"/>
<polygon fill="#8e44ad" stroke="#8e44ad" stroke-width="1.5" points="715.22,-183.43 712.42,-175.43 709.62,-183.43 715.22,-183.43"/>
<text xml:space="preserve" text-anchor="middle" x="703.12" y="-223.2" font-family="Segoe UI" font-size="9.00" fill="#555555">visuals</text>
</g>
<!-- complib -->
<g id="node6" class="node">
<title>complib</title>
<path fill="#e8daef" stroke="#8e44ad" stroke-width="1.5" d="M928,-172.5C928,-172.5 798,-172.5 798,-172.5 792,-172.5 786,-166.5 786,-160.5 786,-160.5 786,-131.5 786,-131.5 786,-125.5 792,-119.5 798,-119.5 798,-119.5 928,-119.5 928,-119.5 934,-119.5 940,-125.5 940,-131.5 940,-131.5 940,-160.5 940,-160.5 940,-166.5 934,-172.5 928,-172.5"/>
<text xml:space="preserve" text-anchor="middle" x="863" y="-158.05" font-family="Segoe UI" font-size="11.00" fill="#1a1a1a">component&#45;library.html</text>
<text xml:space="preserve" text-anchor="middle" x="863" y="-143.05" font-family="Segoe UI" font-size="11.00" fill="#1a1a1a">&quot;What are the exact values?&quot;</text>
<text xml:space="preserve" text-anchor="middle" x="863" y="-128.05" font-family="Segoe UI" font-size="11.00" fill="#1a1a1a">40 Component Specs</text>
</g>
<!-- yaml&#45;&gt;complib -->
<g id="edge5" class="edge">
<title>yaml&#45;&gt;complib</title>
<path fill="none" stroke="#8e44ad" stroke-width="1.5" d="M758.87,-270C807.12,-270 863,-270 863,-270 863,-270 863,-183.48 863,-183.48"/>
<polygon fill="#8e44ad" stroke="#8e44ad" stroke-width="1.5" points="865.8,-183.48 863,-175.48 860.2,-183.48 865.8,-183.48"/>
</g>
<!-- landing -->
<g id="node7" class="node">
<title>landing</title>
<path fill="#e8daef" stroke="#8e44ad" stroke-width="1.5" d="M1100.75,-172.5C1100.75,-172.5 981.25,-172.5 981.25,-172.5 975.25,-172.5 969.25,-166.5 969.25,-160.5 969.25,-160.5 969.25,-131.5 969.25,-131.5 969.25,-125.5 975.25,-119.5 981.25,-119.5 981.25,-119.5 1100.75,-119.5 1100.75,-119.5 1106.75,-119.5 1112.75,-125.5 1112.75,-131.5 1112.75,-131.5 1112.75,-160.5 1112.75,-160.5 1112.75,-166.5 1106.75,-172.5 1100.75,-172.5"/>
<text xml:space="preserve" text-anchor="middle" x="1041" y="-158.05" font-family="Segoe UI" font-size="11.00" fill="#1a1a1a">landing&#45;page.html</text>
<text xml:space="preserve" text-anchor="middle" x="1041" y="-143.05" font-family="Segoe UI" font-size="11.00" fill="#1a1a1a">&quot;How does it tell a story?&quot;</text>
<text xml:space="preserve" text-anchor="middle" x="1041" y="-128.05" font-family="Segoe UI" font-size="11.00" fill="#1a1a1a">7&#45;Section Marketing Page</text>
</g>
<!-- yaml&#45;&gt;landing -->
<g id="edge6" class="edge">
<title>yaml&#45;&gt;landing</title>
<path fill="none" stroke="#8e44ad" stroke-width="1.5" d="M758.93,-279C861.15,-279 1041,-279 1041,-279 1041,-279 1041,-183.51 1041,-183.51"/>
<polygon fill="#8e44ad" stroke="#8e44ad" stroke-width="1.5" points="1043.8,-183.51 1041,-175.51 1038.2,-183.51 1043.8,-183.51"/>
</g>
<!-- appscreen -->
<g id="node8" class="node">
<title>appscreen</title>
<path fill="#e8daef" stroke="#8e44ad" stroke-width="1.5" d="M1286.12,-172.5C1286.12,-172.5 1153.88,-172.5 1153.88,-172.5 1147.88,-172.5 1141.88,-166.5 1141.88,-160.5 1141.88,-160.5 1141.88,-131.5 1141.88,-131.5 1141.88,-125.5 1147.88,-119.5 1153.88,-119.5 1153.88,-119.5 1286.12,-119.5 1286.12,-119.5 1292.12,-119.5 1298.12,-125.5 1298.12,-131.5 1298.12,-131.5 1298.12,-160.5 1298.12,-160.5 1298.12,-166.5 1292.12,-172.5 1286.12,-172.5"/>
<text xml:space="preserve" text-anchor="middle" x="1220" y="-158.05" font-family="Segoe UI" font-size="11.00" fill="#1a1a1a">app&#45;screen.html</text>
<text xml:space="preserve" text-anchor="middle" x="1220" y="-143.05" font-family="Segoe UI" font-size="11.00" fill="#1a1a1a">&quot;Does it survive real use?&quot;</text>
<text xml:space="preserve" text-anchor="middle" x="1220" y="-128.05" font-family="Segoe UI" font-size="11.00" fill="#1a1a1a">6 Device&#45;Framed Archetypes</text>
</g>
<!-- yaml&#45;&gt;appscreen -->
<g id="edge7" class="edge">
<title>yaml&#45;&gt;appscreen</title>
<path fill="none" stroke="#8e44ad" stroke-width="1.5" d="M759.02,-288C902.55,-288 1220,-288 1220,-288 1220,-288 1220,-183.31 1220,-183.31"/>
<polygon fill="#8e44ad" stroke="#8e44ad" stroke-width="1.5" points="1222.8,-183.31 1220,-175.31 1217.2,-183.31 1222.8,-183.31"/>
</g>
<!-- common -->
<g id="node9" class="node">
<title>common</title>
<path fill="#fdebd0" stroke="#e67e22" stroke-width="2" d="M780.12,-53C780.12,-53 599.88,-53 599.88,-53 593.88,-53 587.88,-47 587.88,-41 587.88,-41 587.88,-12 587.88,-12 587.88,-6 593.88,0 599.88,0 599.88,0 780.12,0 780.12,0 786.12,0 792.12,-6 792.12,-12 792.12,-12 792.12,-41 792.12,-41 792.12,-47 786.12,-53 780.12,-53"/>
<text xml:space="preserve" text-anchor="middle" x="690" y="-38.55" font-family="Segoe UI" font-size="11.00" fill="#1a1a1a">All Outputs Include:</text>
<text xml:space="preserve" text-anchor="middle" x="690" y="-23.55" font-family="Segoe UI" font-size="11.00" fill="#1a1a1a">* Floating Light/Dark mode toggle bar</text>
<text xml:space="preserve" text-anchor="middle" x="690" y="-8.55" font-family="Segoe UI" font-size="11.00" fill="#1a1a1a">* Click&#45;disabled anchors</text>
</g>
<!-- css&#45;&gt;common -->
<g id="edge8" class="edge">
<title>css&#45;&gt;common</title>
<path fill="none" stroke="#e67e22" stroke-width="1.2" stroke-dasharray="5,2" d="M216.13,-116C358.81,-116 603.54,-116 603.54,-116 603.54,-116 603.54,-63.66 603.54,-63.66"/>
<polygon fill="#e67e22" stroke="#e67e22" stroke-width="1.2" points="606.34,-63.66 603.54,-55.66 600.74,-63.66 606.34,-63.66"/>
</g>
<!-- swiftui&#45;&gt;common -->
<g id="edge9" class="edge">
<title>swiftui&#45;&gt;common</title>
<path fill="none" stroke="#e67e22" stroke-width="1.2" stroke-dasharray="5,2" d="M330,-119C330,-83.89 330,-27 330,-27 330,-27 577.5,-27 577.5,-27"/>
<polygon fill="#e67e22" stroke="#e67e22" stroke-width="1.2" points="577.5,-29.8 585.5,-27 577.5,-24.2 577.5,-29.8"/>
</g>
<!-- tailwind&#45;&gt;common -->
<g id="edge10" class="edge">
<title>tailwind&#45;&gt;common</title>
<path fill="none" stroke="#e67e22" stroke-width="1.2" stroke-dasharray="5,2" d="M594.84,-146C605.53,-146 612.96,-146 612.96,-146 612.96,-146 612.96,-63.73 612.96,-63.73"/>
<polygon fill="#e67e22" stroke="#e67e22" stroke-width="1.2" points="615.76,-63.73 612.96,-55.73 610.16,-63.73 615.76,-63.73"/>
</g>
<!-- preview&#45;&gt;common -->
<g id="edge11" class="edge">
<title>preview&#45;&gt;common</title>
<path fill="none" stroke="#e67e22" stroke-width="1.2" stroke-dasharray="5,2" d="M690,-118.88C690,-118.88 690,-63.74 690,-63.74"/>
<polygon fill="#e67e22" stroke="#e67e22" stroke-width="1.2" points="692.8,-63.74 690,-55.74 687.2,-63.74 692.8,-63.74"/>
</g>
<!-- complib&#45;&gt;common -->
<g id="edge12" class="edge">
<title>complib&#45;&gt;common</title>
<path fill="none" stroke="#e67e22" stroke-width="1.2" stroke-dasharray="5,2" d="M785.27,-146C777.16,-146 771.81,-146 771.81,-146 771.81,-146 771.81,-63.73 771.81,-63.73"/>
<polygon fill="#e67e22" stroke="#e67e22" stroke-width="1.2" points="774.61,-63.73 771.81,-55.73 769.01,-63.73 774.61,-63.73"/>
</g>
<!-- landing&#45;&gt;common -->
<g id="edge13" class="edge">
<title>landing&#45;&gt;common</title>
<path fill="none" stroke="#e67e22" stroke-width="1.2" stroke-dasharray="5,2" d="M1041,-118.85C1041,-85.98 1041,-35 1041,-35 1041,-35 802.76,-35 802.76,-35"/>
<polygon fill="#e67e22" stroke="#e67e22" stroke-width="1.2" points="802.76,-32.2 794.76,-35 802.76,-37.8 802.76,-32.2"/>
</g>
<!-- appscreen&#45;&gt;common -->
<g id="edge14" class="edge">
<title>appscreen&#45;&gt;common</title>
<path fill="none" stroke="#e67e22" stroke-width="1.2" stroke-dasharray="5,2" d="M1220,-118.85C1220,-81.28 1220,-18 1220,-18 1220,-18 802.63,-18 802.63,-18"/>
<polygon fill="#e67e22" stroke="#e67e22" stroke-width="1.2" points="802.63,-15.2 794.63,-18 802.63,-20.8 802.63,-15.2"/>
</g>
</g>
</svg>
