<?xml version="1.0" encoding="UTF-8" standalone="no"?>
<!DOCTYPE svg PUBLIC "-//W3C//DTD SVG 1.1//EN"
 "http://www.w3.org/Graphics/SVG/1.1/DTD/svg11.dtd">
<!-- Generated by graphviz version 14.1.2 (0)
 -->
<!-- Title: hue_pipeline_architecture Pages: 1 -->
<svg width="537pt" height="1500pt"
 viewBox="0.00 0.00 537.00 1500.00" xmlns="http://www.w3.org/2000/svg" xmlns:xlink="http://www.w3.org/1999/xlink">
<g id="graph0" class="graph" transform="scale(1 1) rotate(0) translate(4 1495.75)">
<title>hue_pipeline_architecture</title>
<g id="clust1" class="cluster">
<title>cluster_analysis</title>
<polygon fill="#d6eaf8" stroke="#2980b9" stroke-width="2" points="59,-974 59,-1387 241,-1387 241,-974 59,-974"/>
<text xml:space="preserve" text-anchor="middle" x="150" y="-1370.65" font-family="Segoe UI" font-size="13.00">Analysis Track (Phases 1&#45;4)</text>
</g>
<g id="clust2" class="cluster">
<title>cluster_validation</title>
<polygon fill="#fef9e7" stroke="#f39c12" stroke-width="2" points="60,-740 60,-937 241,-937 241,-740 60,-740"/>
<text xml:space="preserve" text-anchor="middle" x="150.5" y="-920.65" font-family="Segoe UI" font-size="13.00">Validation Gates (Phases 5&#45;6)</text>
</g>
<g id="clust3" class="cluster">
<title>cluster_skill_gen</title>
<polygon fill="#d5f5e3" stroke="#27ae60" stroke-width="2" points="36,-362 36,-568 264,-568 264,-362 36,-362"/>
<text xml:space="preserve" text-anchor="middle" x="150" y="-551.65" font-family="Segoe UI" font-size="13.00">Skill Generation (Phases 8&#45;9)</text>
</g>
<g id="clust4" class="cluster">
<title>cluster_visual</title>
<polygon fill="#e8daef" stroke="#8e44ad" stroke-width="2" points="272,-362 272,-820 521,-820 521,-362 272,-362"/>
<text xml:space="preserve" text-anchor="middle" x="396.5" y="-803.65" font-family="Segoe UI" font-size="13.00">Visual Output Generation (Phases 10&#45;13)</text>
</g>
<g id="clust5" class="cluster">
<title>cluster_finalization</title>
<polygon fill="#eaecee" stroke="#7f8c8d" stroke-width="2" points="56,-8 56,-325 244,-325 244,-8 56,-8"/>
<text xml:space="preserve" text-anchor="middle" x="150" y="-308.65" font-family="Segoe UI" font-size="13.00">Finalization (Phases 14&#45;16)</text>
</g>
<!-- input -->
<g id="node1" class="node">
<title>input</title>
<path fill="#4caf50" stroke="#2e7d32" stroke-width="1.5" d="M242.75,-1491.75C242.75,-1491.75 57.25,-1491.75 57.25,-1491.75 51.25,-1491.75 45.25,-1485.75 45.25,-1479.75 45.25,-1479.75 45.25,-1444 45.25,-1444 45.25,-1438 51.25,-1432 57.25,-1432 57.25,-1432 242.75,-1432 242.75,-1432 248.75,-1432 254.75,-1438 254.75,-1444 254.75,-1444 254.75,-1479.75 254.75,-1479.75 254.75,-1485.75 248.75,-1491.75 242.75,-1491.75"/>
<text xml:space="preserve" text-anchor="middle" x="150" y="-1476.35" font-family="Segoe UI" font-size="12.00" fill="white">Input Sources</text>
<text xml:space="preserve" text-anchor="middle" x="150" y="-1459.1" font-family="Segoe UI" font-size="12.00" fill="white">URL / Name / Screenshot / Codebase</text>
<text xml:space="preserve" text-anchor="middle" x="150" y="-1441.85" font-family="Segoe UI" font-size="12.00" fill="white">/ Description / Remix</text>
</g>
<!-- p1 -->
<g id="node2" class="node">
<title>p1</title>
<path fill="#d6eaf8" stroke="#2980b9" stroke-width="1.5" d="M206.38,-1353C206.38,-1353 93.62,-1353 93.62,-1353 87.62,-1353 81.62,-1347 81.62,-1341 81.62,-1341 81.62,-1327 81.62,-1327 81.62,-1321 87.62,-1315 93.62,-1315 93.62,-1315 206.38,-1315 206.38,-1315 212.38,-1315 218.38,-1321 218.38,-1327 218.38,-1327 218.38,-1341 218.38,-1341 218.38,-1347 212.38,-1353 206.38,-1353"/>
<text xml:space="preserve" text-anchor="middle" x="150" y="-1338.55" font-family="Segoe UI" font-size="11.00" fill="#1a1a1a">Phase 1: Deep Analysis</text>
<text xml:space="preserve" text-anchor="middle" x="150" y="-1323.55" font-family="Segoe UI" font-size="11.00" fill="#1a1a1a">Brand Type Classification</text>
</g>
<!-- input&#45;&gt;p1 -->
<g id="edge1" class="edge">
<title>input&#45;&gt;p1</title>
<path fill="none" stroke="#2e7d32" stroke-width="2" d="M150,-1431.57C150,-1431.57 150,-1364.77 150,-1364.77"/>
<polygon fill="#2e7d32" stroke="#2e7d32" stroke-width="2" points="152.8,-1364.77 150,-1356.77 147.2,-1364.77 152.8,-1364.77"/>
</g>
<!-- p2 -->
<g id="node3" class="node">
<title>p2</title>
<path fill="#d6eaf8" stroke="#2980b9" stroke-width="1.5" d="M220.62,-1242C220.62,-1242 79.38,-1242 79.38,-1242 73.38,-1242 67.38,-1236 67.38,-1230 67.38,-1230 67.38,-1216 67.38,-1216 67.38,-1210 73.38,-1204 79.38,-1204 79.38,-1204 220.62,-1204 220.62,-1204 226.62,-1204 232.62,-1210 232.62,-1216 232.62,-1216 232.62,-1230 232.62,-1230 232.62,-1236 226.62,-1242 220.62,-1242"/>
<text xml:space="preserve" text-anchor="middle" x="150" y="-1227.55" font-family="Segoe UI" font-size="11.00" fill="#1a1a1a">Phase 2: Component Inventory</text>
<text xml:space="preserve" text-anchor="middle" x="150" y="-1212.55" font-family="Segoe UI" font-size="11.00" fill="#1a1a1a">Tear&#45;Down Sheets</text>
</g>
<!-- p1&#45;&gt;p2 -->
<g id="edge2" class="edge">
<title>p1&#45;&gt;p2</title>
<path fill="none" stroke="#2980b9" stroke-width="1.2" d="M150,-1314.41C150,-1314.41 150,-1252.21 150,-1252.21"/>
<polygon fill="#2980b9" stroke="#2980b9" stroke-width="1.2" points="152.8,-1252.21 150,-1244.21 147.2,-1252.21 152.8,-1252.21"/>
</g>
<!-- p3 -->
<g id="node4" class="node">
<title>p3</title>
<path fill="#d6eaf8" stroke="#2980b9" stroke-width="1.5" d="M210.12,-1131C210.12,-1131 89.88,-1131 89.88,-1131 83.88,-1131 77.88,-1125 77.88,-1119 77.88,-1119 77.88,-1105 77.88,-1105 77.88,-1099 83.88,-1093 89.88,-1093 89.88,-1093 210.12,-1093 210.12,-1093 216.12,-1093 222.12,-1099 222.12,-1105 222.12,-1105 222.12,-1119 222.12,-1119 222.12,-1125 216.12,-1131 210.12,-1131"/>
<text xml:space="preserve" text-anchor="middle" x="150" y="-1116.55" font-family="Segoe UI" font-size="11.00" fill="#1a1a1a">Phase 3: Icon Kit Selection</text>
<text xml:space="preserve" text-anchor="middle" x="150" y="-1101.55" font-family="Segoe UI" font-size="11.00" fill="#1a1a1a">6&#45;Kit Catalog Match</text>
</g>
<!-- p2&#45;&gt;p3 -->
<g id="edge3" class="edge">
<title>p2&#45;&gt;p3</title>
<path fill="none" stroke="#2980b9" stroke-width="1.2" d="M150,-1203.41C150,-1203.41 150,-1141.21 150,-1141.21"/>
<polygon fill="#2980b9" stroke="#2980b9" stroke-width="1.2" points="152.8,-1141.21 150,-1133.21 147.2,-1141.21 152.8,-1141.21"/>
</g>
<!-- p4 -->
<g id="node5" class="node">
<title>p4</title>
<path fill="#d6eaf8" stroke="#2980b9" stroke-width="1.5" d="M214.62,-1020C214.62,-1020 85.38,-1020 85.38,-1020 79.38,-1020 73.38,-1014 73.38,-1008 73.38,-1008 73.38,-994 73.38,-994 73.38,-988 79.38,-982 85.38,-982 85.38,-982 214.62,-982 214.62,-982 220.62,-982 226.62,-988 226.62,-994 226.62,-994 226.62,-1008 226.62,-1008 226.62,-1014 220.62,-1020 214.62,-1020"/>
<text xml:space="preserve" text-anchor="middle" x="150" y="-1005.55" font-family="Segoe UI" font-size="11.00" fill="#1a1a1a">Phase 4: Hero Stage Analysis</text>
<text xml:space="preserve" text-anchor="middle" x="150" y="-990.55" font-family="Segoe UI" font-size="11.00" fill="#1a1a1a">9&#45;Preset Dial System</text>
</g>
<!-- p3&#45;&gt;p4 -->
<g id="edge4" class="edge">
<title>p3&#45;&gt;p4</title>
<path fill="none" stroke="#2980b9" stroke-width="1.2" d="M150,-1092.41C150,-1092.41 150,-1030.21 150,-1030.21"/>
<polygon fill="#2980b9" stroke="#2980b9" stroke-width="1.2" points="152.8,-1030.21 150,-1022.21 147.2,-1030.21 152.8,-1030.21"/>
</g>
<!-- p5 -->
<g id="node6" class="node">
<title>p5</title>
<path fill="#fef9e7" stroke="#f39c12" stroke-width="1.5" d="M210.88,-903C210.88,-903 89.12,-903 89.12,-903 83.12,-903 77.12,-897 77.12,-891 77.12,-891 77.12,-877 77.12,-877 77.12,-871 83.12,-865 89.12,-865 89.12,-865 210.88,-865 210.88,-865 216.88,-865 222.88,-871 222.88,-877 222.88,-877 222.88,-891 222.88,-891 222.88,-897 216.88,-903 210.88,-903"/>
<text xml:space="preserve" text-anchor="middle" x="150" y="-888.55" font-family="Segoe UI" font-size="11.00" fill="#1a1a1a">Phase 5: Confirm Direction</text>
<text xml:space="preserve" text-anchor="middle" x="150" y="-873.55" font-family="Segoe UI" font-size="11.00" fill="#1a1a1a">User Approval</text>
</g>
<!-- p4&#45;&gt;p5 -->
<g id="edge5" class="edge">
<title>p4&#45;&gt;p5</title>
<path fill="none" stroke="#2980b9" stroke-width="1.2" d="M150,-981.42C150,-981.42 150,-913.46 150,-913.46"/>
<polygon fill="#2980b9" stroke="#2980b9" stroke-width="1.2" points="152.8,-913.46 150,-905.46 147.2,-913.46 152.8,-913.46"/>
</g>
<!-- p6 -->
<g id="node7" class="node">
<title>p6</title>
<path fill="#fef9e7" stroke="#f39c12" stroke-width="1.5" d="M201.88,-786C201.88,-786 98.12,-786 98.12,-786 92.12,-786 86.12,-780 86.12,-774 86.12,-774 86.12,-760 86.12,-760 86.12,-754 92.12,-748 98.12,-748 98.12,-748 201.88,-748 201.88,-748 207.88,-748 213.88,-754 213.88,-760 213.88,-760 213.88,-774 213.88,-774 213.88,-780 207.88,-786 201.88,-786"/>
<text xml:space="preserve" text-anchor="middle" x="150" y="-771.55" font-family="Segoe UI" font-size="11.00" fill="#1a1a1a">Phase 6: Token Preview</text>
<text xml:space="preserve" text-anchor="middle" x="150" y="-756.55" font-family="Segoe UI" font-size="11.00" fill="#1a1a1a">Core Token Validation</text>
</g>
<!-- p5&#45;&gt;p6 -->
<g id="edge6" class="edge">
<title>p5&#45;&gt;p6</title>
<path fill="none" stroke="#f39c12" stroke-width="1.2" d="M150,-864.42C150,-864.42 150,-796.46 150,-796.46"/>
<polygon fill="#f39c12" stroke="#f39c12" stroke-width="1.2" points="152.8,-796.46 150,-788.46 147.2,-796.46 152.8,-796.46"/>
</g>
<!-- p7 -->
<g id="node8" class="node">
<title>p7</title>
<path fill="#fadbd8" stroke="#e74c3c" stroke-width="3" d="M227.38,-675C227.38,-675 72.62,-675 72.62,-675 66.62,-675 60.62,-669 60.62,-663 60.62,-663 60.62,-625 60.62,-625 60.62,-619 66.62,-613 72.62,-613 72.62,-613 227.38,-613 227.38,-613 233.38,-613 239.38,-619 239.38,-625 239.38,-625 239.38,-663 239.38,-663 239.38,-669 233.38,-675 227.38,-675"/>
<text xml:space="preserve" text-anchor="middle" x="150" y="-658.65" font-family="Segoe UI" font-size="13.00" fill="#8b0000">Phase 7: Build Design Model</text>
<text xml:space="preserve" text-anchor="middle" x="150" y="-640.65" font-family="Segoe UI" font-size="13.00" fill="#8b0000">design&#45;model.yaml</text>
<text xml:space="preserve" text-anchor="middle" x="150" y="-622.65" font-family="Segoe UI" font-size="13.00" fill="#8b0000">(Single Source of Truth)</text>
</g>
<!-- p6&#45;&gt;p7 -->
<g id="edge7" class="edge">
<title>p6&#45;&gt;p7</title>
<path fill="none" stroke="#f39c12" stroke-width="2" d="M150,-747.51C150,-747.51 150,-687.36 150,-687.36"/>
<polygon fill="#f39c12" stroke="#f39c12" stroke-width="2" points="152.8,-687.36 150,-679.36 147.2,-687.36 152.8,-687.36"/>
</g>
<!-- p8 -->
<g id="node9" class="node">
<title>p8</title>
<path fill="#d5f5e3" stroke="#27ae60" stroke-width="1.5" d="M243.88,-534C243.88,-534 56.12,-534 56.12,-534 50.12,-534 44.12,-528 44.12,-522 44.12,-522 44.12,-493 44.12,-493 44.12,-487 50.12,-481 56.12,-481 56.12,-481 243.88,-481 243.88,-481 249.88,-481 255.88,-487 255.88,-493 255.88,-493 255.88,-522 255.88,-522 255.88,-528 249.88,-534 243.88,-534"/>
<text xml:space="preserve" text-anchor="middle" x="150" y="-519.55" font-family="Segoe UI" font-size="11.00" fill="#1a1a1a">Phase 8: Generate Skill Files</text>
<text xml:space="preserve" text-anchor="middle" x="150" y="-504.55" font-family="Segoe UI" font-size="11.00" fill="#1a1a1a">SKILL.md, tokens.md</text>
<text xml:space="preserve" text-anchor="middle" x="150" y="-489.55" font-family="Segoe UI" font-size="11.00" fill="#1a1a1a">components.md, platform&#45;mapping.md</text>
</g>
<!-- p7&#45;&gt;p8 -->
<g id="edge8" class="edge">
<title>p7&#45;&gt;p8</title>
<path fill="none" stroke="#e74c3c" stroke-width="2" d="M150,-611.65C150,-611.65 150,-545.59 150,-545.59"/>
<polygon fill="#e74c3c" stroke="#e74c3c" stroke-width="2" points="152.8,-545.59 150,-537.59 147.2,-545.59 152.8,-545.59"/>
</g>
<!-- p10 -->
<g id="node11" class="node">
<title>p10</title>
<path fill="#e8daef" stroke="#8e44ad" stroke-width="1.5" d="M400,-786C400,-786 300,-786 300,-786 294,-786 288,-780 288,-774 288,-774 288,-760 288,-760 288,-754 294,-748 300,-748 300,-748 400,-748 400,-748 406,-748 412,-754 412,-760 412,-760 412,-774 412,-774 412,-780 406,-786 400,-786"/>
<text xml:space="preserve" text-anchor="middle" x="350" y="-771.55" font-family="Segoe UI" font-size="11.00" fill="#1a1a1a">Phase 10: Preview</text>
<text xml:space="preserve" text-anchor="middle" x="350" y="-756.55" font-family="Segoe UI" font-size="11.00" fill="#1a1a1a">Bento Grid Dashboard</text>
</g>
<!-- p7&#45;&gt;p10 -->
<g id="edge10" class="edge">
<title>p7&#45;&gt;p10</title>
<path fill="none" stroke="#e74c3c" stroke-width="2" d="M218.38,-676.32C218.38,-712.76 218.38,-767 218.38,-767 218.38,-767 276.24,-767 276.24,-767"/>
<polygon fill="#e74c3c" stroke="#e74c3c" stroke-width="2" points="276.24,-769.8 284.24,-767 276.24,-764.2 276.24,-769.8"/>
</g>
<!-- p9 -->
<g id="node10" class="node">
<title>p9</title>
<path fill="#d5f5e3" stroke="#27ae60" stroke-width="1.5" d="M205.62,-408C205.62,-408 94.38,-408 94.38,-408 88.38,-408 82.38,-402 82.38,-396 82.38,-396 82.38,-382 82.38,-382 82.38,-376 88.38,-370 94.38,-370 94.38,-370 205.62,-370 205.62,-370 211.62,-370 217.62,-376 217.62,-382 217.62,-382 217.62,-396 217.62,-396 217.62,-402 211.62,-408 205.62,-408"/>
<text xml:space="preserve" text-anchor="middle" x="150" y="-393.55" font-family="Segoe UI" font-size="11.00" fill="#1a1a1a">Phase 9: Write Files</text>
<text xml:space="preserve" text-anchor="middle" x="150" y="-378.55" font-family="Segoe UI" font-size="11.00" fill="#1a1a1a">Output to Skill Directory</text>
</g>
<!-- p8&#45;&gt;p9 -->
<g id="edge9" class="edge">
<title>p8&#45;&gt;p9</title>
<path fill="none" stroke="#27ae60" stroke-width="1.2" d="M150,-480.31C150,-480.31 150,-418.48 150,-418.48"/>
<polygon fill="#27ae60" stroke="#27ae60" stroke-width="1.2" points="152.8,-418.48 150,-410.48 147.2,-418.48 152.8,-418.48"/>
</g>
<!-- p14 -->
<g id="node15" class="node">
<title>p14</title>
<path fill="#eaecee" stroke="#7f8c8d" stroke-width="1.5" d="M224,-291C224,-291 76,-291 76,-291 70,-291 64,-285 64,-279 64,-279 64,-250 64,-250 64,-244 70,-238 76,-238 76,-238 224,-238 224,-238 230,-238 236,-244 236,-250 236,-250 236,-279 236,-279 236,-285 230,-291 224,-291"/>
<text xml:space="preserve" text-anchor="middle" x="150" y="-276.55" font-family="Segoe UI" font-size="11.00" fill="#1a1a1a">Phase 14: Self&#45;Validation</text>
<text xml:space="preserve" text-anchor="middle" x="150" y="-261.55" font-family="Segoe UI" font-size="11.00" fill="#1a1a1a">YAML Parse / Placeholder Check</text>
<text xml:space="preserve" text-anchor="middle" x="150" y="-246.55" font-family="Segoe UI" font-size="11.00" fill="#1a1a1a">/ CSS Coverage</text>
</g>
<!-- p9&#45;&gt;p14 -->
<g id="edge14" class="edge">
<title>p9&#45;&gt;p14</title>
<path fill="none" stroke="#27ae60" stroke-width="1.2" d="M150,-369.27C150,-369.27 150,-301.36 150,-301.36"/>
<polygon fill="#27ae60" stroke="#27ae60" stroke-width="1.2" points="152.8,-301.36 150,-293.36 147.2,-301.36 152.8,-301.36"/>
</g>
<!-- p11 -->
<g id="node12" class="node">
<title>p11</title>
<path fill="#e8daef" stroke="#8e44ad" stroke-width="1.5" d="M426.25,-663C426.25,-663 291.75,-663 291.75,-663 285.75,-663 279.75,-657 279.75,-651 279.75,-651 279.75,-637 279.75,-637 279.75,-631 285.75,-625 291.75,-625 291.75,-625 426.25,-625 426.25,-625 432.25,-625 438.25,-631 438.25,-637 438.25,-637 438.25,-651 438.25,-651 438.25,-657 432.25,-663 426.25,-663"/>
<text xml:space="preserve" text-anchor="middle" x="359" y="-648.55" font-family="Segoe UI" font-size="11.00" fill="#1a1a1a">Phase 11: Component Library</text>
<text xml:space="preserve" text-anchor="middle" x="359" y="-633.55" font-family="Segoe UI" font-size="11.00" fill="#1a1a1a">40 Component Specs</text>
</g>
<!-- p10&#45;&gt;p11 -->
<g id="edge11" class="edge">
<title>p10&#45;&gt;p11</title>
<path fill="none" stroke="#8e44ad" stroke-width="1.2" d="M350,-747.51C350,-747.51 350,-673.21 350,-673.21"/>
<polygon fill="#8e44ad" stroke="#8e44ad" stroke-width="1.2" points="352.8,-673.21 350,-665.21 347.2,-673.21 352.8,-673.21"/>
</g>
<!-- p12 -->
<g id="node13" class="node">
<title>p12</title>
<path fill="#e8daef" stroke="#8e44ad" stroke-width="1.5" d="M417.38,-526.5C417.38,-526.5 298.62,-526.5 298.62,-526.5 292.62,-526.5 286.62,-520.5 286.62,-514.5 286.62,-514.5 286.62,-500.5 286.62,-500.5 286.62,-494.5 292.62,-488.5 298.62,-488.5 298.62,-488.5 417.38,-488.5 417.38,-488.5 423.38,-488.5 429.38,-494.5 429.38,-500.5 429.38,-500.5 429.38,-514.5 429.38,-514.5 429.38,-520.5 423.38,-526.5 417.38,-526.5"/>
<text xml:space="preserve" text-anchor="middle" x="358" y="-512.05" font-family="Segoe UI" font-size="11.00" fill="#1a1a1a">Phase 12: Landing Page</text>
<text xml:space="preserve" text-anchor="middle" x="358" y="-497.05" font-family="Segoe UI" font-size="11.00" fill="#1a1a1a">7&#45;Section Marketing Page</text>
</g>
<!-- p11&#45;&gt;p12 -->
<g id="edge12" class="edge">
<title>p11&#45;&gt;p12</title>
<path fill="none" stroke="#8e44ad" stroke-width="1.2" d="M358,-624.44C358,-624.44 358,-536.84 358,-536.84"/>
<polygon fill="#8e44ad" stroke="#8e44ad" stroke-width="1.2" points="360.8,-536.84 358,-528.84 355.2,-536.84 360.8,-536.84"/>
</g>
<!-- p13 -->
<g id="node14" class="node">
<title>p13</title>
<path fill="#e8daef" stroke="#8e44ad" stroke-width="1.5" d="M424.12,-408C424.12,-408 291.88,-408 291.88,-408 285.88,-408 279.88,-402 279.88,-396 279.88,-396 279.88,-382 279.88,-382 279.88,-376 285.88,-370 291.88,-370 291.88,-370 424.12,-370 424.12,-370 430.12,-370 436.12,-376 436.12,-382 436.12,-382 436.12,-396 436.12,-396 436.12,-402 430.12,-408 424.12,-408"/>
<text xml:space="preserve" text-anchor="middle" x="358" y="-393.55" font-family="Segoe UI" font-size="11.00" fill="#1a1a1a">Phase 13: App Screen</text>
<text xml:space="preserve" text-anchor="middle" x="358" y="-378.55" font-family="Segoe UI" font-size="11.00" fill="#1a1a1a">6 Device&#45;Framed Archetypes</text>
</g>
<!-- p12&#45;&gt;p13 -->
<g id="edge13" class="edge">
<title>p12&#45;&gt;p13</title>
<path fill="none" stroke="#8e44ad" stroke-width="1.2" d="M358,-487.93C358,-487.93 358,-418.41 358,-418.41"/>
<polygon fill="#8e44ad" stroke="#8e44ad" stroke-width="1.2" points="360.8,-418.41 358,-410.41 355.2,-418.41 360.8,-418.41"/>
</g>
<!-- p13&#45;&gt;p14 -->
<g id="edge15" class="edge">
<title>p13&#45;&gt;p14</title>
<path fill="none" stroke="#8e44ad" stroke-width="1.2" d="M279.42,-389C251.48,-389 226.81,-389 226.81,-389 226.81,-389 226.81,-301.33 226.81,-301.33"/>
<polygon fill="#8e44ad" stroke="#8e44ad" stroke-width="1.2" points="229.61,-301.33 226.81,-293.33 224.01,-301.33 229.61,-301.33"/>
</g>
<!-- p15 -->
<g id="node16" class="node">
<title>p15</title>
<path fill="#eaecee" stroke="#7f8c8d" stroke-width="1.5" d="M211,-165C211,-165 87,-165 87,-165 81,-165 75,-159 75,-153 75,-153 75,-139 75,-139 75,-133 81,-127 87,-127 87,-127 211,-127 211,-127 217,-127 223,-133 223,-139 223,-139 223,-153 223,-153 223,-159 217,-165 211,-165"/>
<text xml:space="preserve" text-anchor="middle" x="149" y="-150.55" font-family="Segoe UI" font-size="11.00" fill="#1a1a1a">Phase 15: Offer Iteration</text>
<text xml:space="preserve" text-anchor="middle" x="149" y="-135.55" font-family="Segoe UI" font-size="11.00" fill="#1a1a1a">Update Model, Regenerate</text>
</g>
<!-- p14&#45;&gt;p15 -->
<g id="edge16" class="edge">
<title>p14&#45;&gt;p15</title>
<path fill="none" stroke="#7f8c8d" stroke-width="1.2" d="M149,-237.31C149,-237.31 149,-175.48 149,-175.48"/>
<polygon fill="#7f8c8d" stroke="#7f8c8d" stroke-width="1.2" points="151.8,-175.48 149,-167.48 146.2,-175.48 151.8,-175.48"/>
</g>
<!-- p15&#45;&gt;p7 -->
<g id="edge18" class="edge">
<title>p15&#45;&gt;p7</title>
<path fill="none" stroke="#e74c3c" stroke-width="1.5" stroke-dasharray="5,2" d="M223.57,-146C247.44,-146 267.81,-146 267.81,-146 267.81,-146 267.81,-619 267.81,-619 267.81,-619 251.05,-619 251.05,-619"/>
<polygon fill="#e74c3c" stroke="#e74c3c" stroke-width="1.5" points="251.05,-616.2 243.05,-619 251.05,-621.8 251.05,-616.2"/>
<text xml:space="preserve" text-anchor="middle" x="12.38" y="-386.82" font-family="Segoe UI" font-size="9.00" fill="#555555">iterate</text>
</g>
<!-- p16 -->
<g id="node17" class="node">
<title>p16</title>
<path fill="#eaecee" stroke="#7f8c8d" stroke-width="1.5" d="M220.75,-54C220.75,-54 77.25,-54 77.25,-54 71.25,-54 65.25,-48 65.25,-42 65.25,-42 65.25,-28 65.25,-28 65.25,-22 71.25,-16 77.25,-16 77.25,-16 220.75,-16 220.75,-16 226.75,-16 232.75,-22 232.75,-28 232.75,-28 232.75,-42 232.75,-42 232.75,-48 226.75,-54 220.75,-54"/>
<text xml:space="preserve" text-anchor="middle" x="149" y="-39.55" font-family="Segoe UI" font-size="11.00" fill="#1a1a1a">Phase 16: Installation Reminder</text>
<text xml:space="preserve" text-anchor="middle" x="149" y="-24.55" font-family="Segoe UI" font-size="11.00" fill="#1a1a1a">Restart Assistant</text>
</g>
<!-- p15&#45;&gt;p16 -->
<g id="edge17" class="edge">
<title>p15&#45;&gt;p16</title>
<path fill="none" stroke="#7f8c8d" stroke-width="1.2" d="M149,-126.41C149,-126.41 149,-64.21 149,-64.21"/>
<polygon fill="#7f8c8d" stroke="#7f8c8d" stroke-width="1.2" points="151.8,-64.21 149,-56.21 146.2,-64.21 151.8,-64.21"/>
</g>
</g>
</svg>
