<?xml version="1.0" encoding="UTF-8" standalone="no"?>
<!DOCTYPE svg PUBLIC "-//W3C//DTD SVG 1.1//EN"
 "http://www.w3.org/Graphics/SVG/1.1/DTD/svg11.dtd">
<!-- Generated by graphviz version 14.1.2 (0)
 -->
<!-- Title: dflash_speculative_decoding Pages: 1 -->
<svg width="338pt" height="770pt"
 viewBox="0.00 0.00 338.00 770.00" xmlns="http://www.w3.org/2000/svg" xmlns:xlink="http://www.w3.org/1999/xlink">
<g id="graph0" class="graph" transform="scale(1 1) rotate(0) translate(4 765.5)">
<title>dflash_speculative_decoding</title>
<polygon fill="white" stroke="none" points="-4,4 -4,-765.5 333.75,-765.5 333.75,4 -4,4"/>
<!-- prompt -->
<g id="node1" class="node">
<title>prompt</title>
<polygon fill="#4caf50" stroke="black" points="197.5,-761.5 119.25,-761.5 119.25,-725.5 197.5,-725.5 197.5,-761.5"/>
<text xml:space="preserve" text-anchor="middle" x="158.38" y="-739.8" font-family="Arial" font-size="11.00" fill="white">Input Prompt</text>
</g>
<!-- target_llm -->
<g id="node2" class="node">
<title>target_llm</title>
<path fill="#2196f3" stroke="black" d="M205.75,-674.5C205.75,-674.5 111,-674.5 111,-674.5 105,-674.5 99,-668.5 99,-662.5 99,-662.5 99,-650 99,-650 99,-644 105,-638 111,-638 111,-638 205.75,-638 205.75,-638 211.75,-638 217.75,-644 217.75,-650 217.75,-650 217.75,-662.5 217.75,-662.5 217.75,-668.5 211.75,-674.5 205.75,-674.5"/>
<text xml:space="preserve" text-anchor="middle" x="158.38" y="-659.1" font-family="Arial Bold" font-size="12.00" fill="white">Target LLM</text>
<text xml:space="preserve" text-anchor="middle" x="158.38" y="-644.85" font-family="Arial Bold" font-size="12.00" fill="white">(e.g. Qwen3&#45;235B)</text>
</g>
<!-- prompt&#45;&gt;target_llm -->
<g id="edge1" class="edge">
<title>prompt&#45;&gt;target_llm</title>
<path fill="none" stroke="#4caf50" stroke-width="2" d="M158.38,-725.42C158.38,-725.42 158.38,-687.93 158.38,-687.93"/>
<polygon fill="#4caf50" stroke="#4caf50" stroke-width="2" points="161.88,-687.93 158.38,-677.93 154.88,-687.93 161.88,-687.93"/>
</g>
<!-- hidden_extract -->
<g id="node3" class="node">
<title>hidden_extract</title>
<path fill="#ff9800" stroke="black" d="M88.75,-587C88.75,-587 12,-587 12,-587 6,-587 0,-581 0,-575 0,-575 0,-550.5 0,-550.5 0,-544.5 6,-538.5 12,-538.5 12,-538.5 88.75,-538.5 88.75,-538.5 94.75,-538.5 100.75,-544.5 100.75,-550.5 100.75,-550.5 100.75,-575 100.75,-575 100.75,-581 94.75,-587 88.75,-587"/>
<text xml:space="preserve" text-anchor="middle" x="50.38" y="-572.55" font-family="Arial" font-size="11.00" fill="white">Hidden State</text>
<text xml:space="preserve" text-anchor="middle" x="50.38" y="-559.05" font-family="Arial" font-size="11.00" fill="white">Extraction</text>
<text xml:space="preserve" text-anchor="middle" x="50.38" y="-545.55" font-family="Arial" font-size="11.00" fill="white">(Selected Layers)</text>
</g>
<!-- target_llm&#45;&gt;hidden_extract -->
<g id="edge2" class="edge">
<title>target_llm&#45;&gt;hidden_extract</title>
<path fill="none" stroke="#2196f3" stroke-width="2" d="M119.83,-637.75C119.83,-612.68 119.83,-571 119.83,-571 119.83,-571 114.25,-571 114.25,-571"/>
<polygon fill="#2196f3" stroke="#2196f3" stroke-width="2" points="114.25,-567.5 104.25,-571 114.25,-574.5 114.25,-567.5"/>
</g>
<!-- verify -->
<g id="node7" class="node">
<title>verify</title>
<path fill="#2196f3" stroke="black" d="M242.25,-313C242.25,-313 186.5,-313 186.5,-313 180.5,-313 174.5,-307 174.5,-301 174.5,-301 174.5,-288.5 174.5,-288.5 174.5,-282.5 180.5,-276.5 186.5,-276.5 186.5,-276.5 242.25,-276.5 242.25,-276.5 248.25,-276.5 254.25,-282.5 254.25,-288.5 254.25,-288.5 254.25,-301 254.25,-301 254.25,-307 248.25,-313 242.25,-313"/>
<text xml:space="preserve" text-anchor="middle" x="214.38" y="-297.6" font-family="Arial Bold" font-size="12.00" fill="white">Target LLM</text>
<text xml:space="preserve" text-anchor="middle" x="214.38" y="-283.35" font-family="Arial Bold" font-size="12.00" fill="white">Verification</text>
</g>
<!-- target_llm&#45;&gt;verify -->
<g id="edge7" class="edge">
<title>target_llm&#45;&gt;verify</title>
<path fill="none" stroke="#2196f3" stroke-width="2" stroke-dasharray="5,2" d="M218.24,-656C230.11,-656 239,-656 239,-656 239,-656 239,-326.44 239,-326.44"/>
<polygon fill="#2196f3" stroke="#2196f3" stroke-width="2" points="242.5,-326.44 239,-316.44 235.5,-326.44 242.5,-326.44"/>
</g>
<!-- draft_model -->
<g id="node4" class="node">
<title>draft_model</title>
<path fill="#2196f3" stroke="black" d="M211.75,-487.5C211.75,-487.5 111,-487.5 111,-487.5 105,-487.5 99,-481.5 99,-475.5 99,-475.5 99,-463 99,-463 99,-457 105,-451 111,-451 111,-451 211.75,-451 211.75,-451 217.75,-451 223.75,-457 223.75,-463 223.75,-463 223.75,-475.5 223.75,-475.5 223.75,-481.5 217.75,-487.5 211.75,-487.5"/>
<text xml:space="preserve" text-anchor="middle" x="161.38" y="-472.1" font-family="Arial Bold" font-size="12.00" fill="white">DFlash Draft Model</text>
<text xml:space="preserve" text-anchor="middle" x="161.38" y="-457.85" font-family="Arial Bold" font-size="12.00" fill="white">(Block Diffusion)</text>
</g>
<!-- hidden_extract&#45;&gt;draft_model -->
<g id="edge3" class="edge">
<title>hidden_extract&#45;&gt;draft_model</title>
<path fill="none" stroke="#ff9800" stroke-width="2" d="M101.19,-555C106.66,-555 110.29,-555 110.29,-555 110.29,-555 110.29,-500.88 110.29,-500.88"/>
<polygon fill="#ff9800" stroke="#ff9800" stroke-width="2" points="113.79,-500.88 110.29,-490.88 106.79,-500.88 113.79,-500.88"/>
</g>
<!-- block_gen -->
<g id="node6" class="node">
<title>block_gen</title>
<path fill="#ff9800" stroke="black" d="M211.25,-400C211.25,-400 113.5,-400 113.5,-400 107.5,-400 101.5,-394 101.5,-388 101.5,-388 101.5,-376 101.5,-376 101.5,-370 107.5,-364 113.5,-364 113.5,-364 211.25,-364 211.25,-364 217.25,-364 223.25,-370 223.25,-376 223.25,-376 223.25,-388 223.25,-388 223.25,-394 217.25,-400 211.25,-400"/>
<text xml:space="preserve" text-anchor="middle" x="162.38" y="-385.05" font-family="Arial" font-size="11.00" fill="white">Parallel Block</text>
<text xml:space="preserve" text-anchor="middle" x="162.38" y="-371.55" font-family="Arial" font-size="11.00" fill="white">Generation (B tokens)</text>
</g>
<!-- draft_model&#45;&gt;block_gen -->
<g id="edge5" class="edge">
<title>draft_model&#45;&gt;block_gen</title>
<path fill="none" stroke="#2196f3" stroke-width="2" d="M162.38,-450.75C162.38,-450.75 162.38,-413.5 162.38,-413.5"/>
<polygon fill="#2196f3" stroke="#2196f3" stroke-width="2" points="165.88,-413.5 162.38,-403.5 158.88,-413.5 165.88,-413.5"/>
</g>
<!-- noise_mask -->
<g id="node5" class="node">
<title>noise_mask</title>
<path fill="#00bcd4" stroke="black" d="M211.38,-587C211.38,-587 141.38,-587 141.38,-587 135.38,-587 129.38,-581 129.38,-575 129.38,-575 129.38,-550.5 129.38,-550.5 129.38,-544.5 135.38,-538.5 141.38,-538.5 141.38,-538.5 211.38,-538.5 211.38,-538.5 217.38,-538.5 223.38,-544.5 223.38,-550.5 223.38,-550.5 223.38,-575 223.38,-575 223.38,-581 217.38,-587 211.38,-587"/>
<text xml:space="preserve" text-anchor="middle" x="176.38" y="-572.55" font-family="Arial" font-size="11.00" fill="white">Noise Mask</text>
<text xml:space="preserve" text-anchor="middle" x="176.38" y="-559.05" font-family="Arial" font-size="11.00" fill="white">(Mask Tokens at</text>
<text xml:space="preserve" text-anchor="middle" x="176.38" y="-545.55" font-family="Arial" font-size="11.00" fill="white">Draft Positions)</text>
</g>
<!-- noise_mask&#45;&gt;draft_model -->
<g id="edge4" class="edge">
<title>noise_mask&#45;&gt;draft_model</title>
<path fill="none" stroke="#00bcd4" stroke-width="2" d="M176.38,-538.18C176.38,-538.18 176.38,-500.77 176.38,-500.77"/>
<polygon fill="#00bcd4" stroke="#00bcd4" stroke-width="2" points="179.88,-500.77 176.38,-490.77 172.88,-500.77 179.88,-500.77"/>
</g>
<!-- block_gen&#45;&gt;verify -->
<g id="edge6" class="edge">
<title>block_gen&#45;&gt;verify</title>
<path fill="none" stroke="#ff9800" stroke-width="2" d="M198.88,-363.92C198.88,-363.92 198.88,-326.43 198.88,-326.43"/>
<polygon fill="#ff9800" stroke="#ff9800" stroke-width="2" points="202.38,-326.43 198.88,-316.43 195.38,-326.43 202.38,-326.43"/>
</g>
<!-- accept -->
<g id="node8" class="node">
<title>accept</title>
<polygon fill="#4caf50" stroke="black" points="200.25,-210 102.5,-210 102.5,-174 200.25,-174 200.25,-210"/>
<text xml:space="preserve" text-anchor="middle" x="151.38" y="-195.05" font-family="Arial" font-size="11.00" fill="white">Accepted Tokens</text>
<text xml:space="preserve" text-anchor="middle" x="151.38" y="-181.55" font-family="Arial" font-size="11.00" fill="white">(Match)</text>
</g>
<!-- verify&#45;&gt;accept -->
<g id="edge8" class="edge">
<title>verify&#45;&gt;accept</title>
<path fill="none" stroke="#4caf50" stroke-width="2" d="M187.38,-276.38C187.38,-276.38 187.38,-223.24 187.38,-223.24"/>
<polygon fill="#4caf50" stroke="#4caf50" stroke-width="2" points="190.88,-223.24 187.38,-213.24 183.88,-223.24 190.88,-223.24"/>
<text xml:space="preserve" text-anchor="middle" x="198" y="-238.2" font-family="Times New Roman,serif" font-size="14.00">Match</text>
</g>
<!-- correct -->
<g id="node9" class="node">
<title>correct</title>
<polygon fill="#f44336" stroke="black" points="329.75,-210 229,-210 229,-174 329.75,-174 329.75,-210"/>
<text xml:space="preserve" text-anchor="middle" x="279.38" y="-195.05" font-family="Arial" font-size="11.00" fill="white">Corrected Tokens</text>
<text xml:space="preserve" text-anchor="middle" x="279.38" y="-181.55" font-family="Arial" font-size="11.00" fill="white">(Mismatch)</text>
</g>
<!-- verify&#45;&gt;correct -->
<g id="edge9" class="edge">
<title>verify&#45;&gt;correct</title>
<path fill="none" stroke="#f44336" stroke-width="2" d="M241.62,-276.38C241.62,-276.38 241.62,-223.24 241.62,-223.24"/>
<polygon fill="#f44336" stroke="#f44336" stroke-width="2" points="245.13,-223.24 241.63,-213.24 238.13,-223.24 245.13,-223.24"/>
<text xml:space="preserve" text-anchor="middle" x="292.12" y="-238.2" font-family="Times New Roman,serif" font-size="14.00">Mismatch</text>
</g>
<!-- merge -->
<g id="node10" class="node">
<title>merge</title>
<path fill="#00bcd4" stroke="black" d="M254.25,-123C254.25,-123 174.5,-123 174.5,-123 168.5,-123 162.5,-117 162.5,-111 162.5,-111 162.5,-99 162.5,-99 162.5,-93 168.5,-87 174.5,-87 174.5,-87 254.25,-87 254.25,-87 260.25,-87 266.25,-93 266.25,-99 266.25,-99 266.25,-111 266.25,-111 266.25,-117 260.25,-123 254.25,-123"/>
<text xml:space="preserve" text-anchor="middle" x="214.38" y="-108.05" font-family="Arial" font-size="11.00" fill="white">Merge Accepted +</text>
<text xml:space="preserve" text-anchor="middle" x="214.38" y="-94.55" font-family="Arial" font-size="11.00" fill="white">Corrected Tokens</text>
</g>
<!-- accept&#45;&gt;merge -->
<g id="edge10" class="edge">
<title>accept&#45;&gt;merge</title>
<path fill="none" stroke="#4caf50" stroke-width="2" d="M181.38,-173.55C181.38,-173.55 181.38,-136.45 181.38,-136.45"/>
<polygon fill="#4caf50" stroke="#4caf50" stroke-width="2" points="184.88,-136.45 181.38,-126.45 177.88,-136.45 184.88,-136.45"/>
</g>
<!-- correct&#45;&gt;merge -->
<g id="edge11" class="edge">
<title>correct&#45;&gt;merge</title>
<path fill="none" stroke="#f44336" stroke-width="2" d="M247.62,-173.55C247.62,-173.55 247.62,-136.45 247.62,-136.45"/>
<polygon fill="#f44336" stroke="#f44336" stroke-width="2" points="251.13,-136.45 247.63,-126.45 244.13,-136.45 251.13,-136.45"/>
</g>
<!-- output -->
<g id="node11" class="node">
<title>output</title>
<polygon fill="#f44336" stroke="black" points="268.12,-36 160.62,-36 160.62,0 268.12,0 268.12,-36"/>
<text xml:space="preserve" text-anchor="middle" x="214.38" y="-21.05" font-family="Arial" font-size="11.00" fill="white">Accelerated Text</text>
<text xml:space="preserve" text-anchor="middle" x="214.38" y="-7.55" font-family="Arial" font-size="11.00" fill="white">Generation (2&#45;3x+)</text>
</g>
<!-- merge&#45;&gt;output -->
<g id="edge12" class="edge">
<title>merge&#45;&gt;output</title>
<path fill="none" stroke="#f44336" stroke-width="2" d="M214.38,-86.55C214.38,-86.55 214.38,-49.45 214.38,-49.45"/>
<polygon fill="#f44336" stroke="#f44336" stroke-width="2" points="217.88,-49.45 214.38,-39.45 210.88,-49.45 217.88,-49.45"/>
</g>
</g>
</svg>
