<?xml version="1.0" encoding="UTF-8" standalone="no"?>
<!DOCTYPE svg PUBLIC "-//W3C//DTD SVG 1.1//EN"
 "http://www.w3.org/Graphics/SVG/1.1/DTD/svg11.dtd">
<!-- Generated by graphviz version 14.1.4 (20260321.0153)
 -->
<!-- Title: scala_fp Pages: 1 -->
<svg width="648pt" height="309pt"
 viewBox="0.00 0.00 648.00 309.00" xmlns="http://www.w3.org/2000/svg" xmlns:xlink="http://www.w3.org/1999/xlink">
<style>
text { paint-order: stroke; stroke: #ffffff; stroke-width: 3px; stroke-linejoin: round; fill: #1a1a2e; }
</style>
<g id="graph0" class="graph" transform="scale(1 1) rotate(0) translate(4 304.5)">
<title>scala_fp</title>
<polygon fill="white" stroke="none" points="-4,4 -4,-304.5 643.62,-304.5 643.62,4 -4,4"/>
<text xml:space="preserve" text-anchor="middle" x="319.81" y="-7.2" font-family="Times New Roman,serif" font-size="14.00">Scala FP &#45; Immutability, ADTs, HOFs</text>
<!-- title -->
<g id="node1" class="node">
<title>title</title>
<path fill="#1565c0" stroke="black" d="M367.5,-300.5C367.5,-300.5 233.75,-300.5 233.75,-300.5 227.75,-300.5 221.75,-294.5 221.75,-288.5 221.75,-288.5 221.75,-276.5 221.75,-276.5 221.75,-270.5 227.75,-264.5 233.75,-264.5 233.75,-264.5 367.5,-264.5 367.5,-264.5 373.5,-264.5 379.5,-270.5 379.5,-276.5 379.5,-276.5 379.5,-288.5 379.5,-288.5 379.5,-294.5 373.5,-300.5 367.5,-300.5"/>
<text xml:space="preserve" text-anchor="middle" x="300.62" y="-277.07" font-family="Arial Bold" font-size="14.00" fill="#ffffff">Scala Functional Core</text>
</g>
<!-- imm -->
<g id="node2" class="node">
<title>imm</title>
<path fill="#2196f3" stroke="black" d="M111.25,-206.5C111.25,-206.5 12,-206.5 12,-206.5 6,-206.5 0,-200.5 0,-194.5 0,-194.5 0,-156.5 0,-156.5 0,-150.5 6,-144.5 12,-144.5 12,-144.5 111.25,-144.5 111.25,-144.5 117.25,-144.5 123.25,-150.5 123.25,-156.5 123.25,-156.5 123.25,-194.5 123.25,-194.5 123.25,-200.5 117.25,-206.5 111.25,-206.5"/>
<text xml:space="preserve" text-anchor="middle" x="61.62" y="-192.05" font-family="Arial Bold" font-size="11.00" fill="#ffffff">Immutability</text>
<text xml:space="preserve" text-anchor="middle" x="61.62" y="-178.55" font-family="Arial Bold" font-size="11.00" fill="#ffffff">val not var</text>
<text xml:space="preserve" text-anchor="middle" x="61.62" y="-165.05" font-family="Arial Bold" font-size="11.00" fill="#ffffff">List/Map immutable</text>
<text xml:space="preserve" text-anchor="middle" x="61.62" y="-151.55" font-family="Arial Bold" font-size="11.00" fill="#ffffff">new copy on change</text>
</g>
<!-- title&#45;&gt;imm -->
<g id="edge1" class="edge">
<title>title&#45;&gt;imm</title>
<path fill="none" stroke="#4caf50" stroke-width="2" d="M221.37,-282.5C151.8,-282.5 61.62,-282.5 61.62,-282.5 61.62,-282.5 61.62,-219.76 61.62,-219.76"/>
<polygon fill="#4caf50" stroke="#4caf50" stroke-width="2" points="65.13,-219.76 61.63,-209.76 58.13,-219.76 65.13,-219.76"/>
</g>
<!-- adt -->
<g id="node3" class="node">
<title>adt</title>
<path fill="#2196f3" stroke="black" d="M270.25,-206.5C270.25,-206.5 171,-206.5 171,-206.5 165,-206.5 159,-200.5 159,-194.5 159,-194.5 159,-156.5 159,-156.5 159,-150.5 165,-144.5 171,-144.5 171,-144.5 270.25,-144.5 270.25,-144.5 276.25,-144.5 282.25,-150.5 282.25,-156.5 282.25,-156.5 282.25,-194.5 282.25,-194.5 282.25,-200.5 276.25,-206.5 270.25,-206.5"/>
<text xml:space="preserve" text-anchor="middle" x="220.62" y="-192.05" font-family="Arial Bold" font-size="11.00" fill="#ffffff">ADTs</text>
<text xml:space="preserve" text-anchor="middle" x="220.62" y="-178.55" font-family="Arial Bold" font-size="11.00" fill="#ffffff">sealed + case class</text>
<text xml:space="preserve" text-anchor="middle" x="220.62" y="-165.05" font-family="Arial Bold" font-size="11.00" fill="#ffffff">sum (variants)</text>
<text xml:space="preserve" text-anchor="middle" x="220.62" y="-151.55" font-family="Arial Bold" font-size="11.00" fill="#ffffff">product (case fields)</text>
</g>
<!-- title&#45;&gt;adt -->
<g id="edge2" class="edge">
<title>title&#45;&gt;adt</title>
<path fill="none" stroke="#00bcd4" stroke-width="2" d="M252,-264.35C252,-264.35 252,-219.79 252,-219.79"/>
<polygon fill="#00bcd4" stroke="#00bcd4" stroke-width="2" points="255.5,-219.79 252,-209.79 248.5,-219.79 255.5,-219.79"/>
</g>
<!-- pm -->
<g id="node4" class="node">
<title>pm</title>
<path fill="#2196f3" stroke="black" d="M431.38,-206.5C431.38,-206.5 329.88,-206.5 329.88,-206.5 323.88,-206.5 317.88,-200.5 317.88,-194.5 317.88,-194.5 317.88,-156.5 317.88,-156.5 317.88,-150.5 323.88,-144.5 329.88,-144.5 329.88,-144.5 431.38,-144.5 431.38,-144.5 437.38,-144.5 443.38,-150.5 443.38,-156.5 443.38,-156.5 443.38,-194.5 443.38,-194.5 443.38,-200.5 437.38,-206.5 431.38,-206.5"/>
<text xml:space="preserve" text-anchor="middle" x="380.62" y="-192.05" font-family="Arial Bold" font-size="11.00" fill="#ffffff">Pattern Matching</text>
<text xml:space="preserve" text-anchor="middle" x="380.62" y="-178.55" font-family="Arial Bold" font-size="11.00" fill="#ffffff">match { case ... =&gt; }</text>
<text xml:space="preserve" text-anchor="middle" x="380.62" y="-165.05" font-family="Arial Bold" font-size="11.00" fill="#ffffff">exhaustive on sealed</text>
<text xml:space="preserve" text-anchor="middle" x="380.62" y="-151.55" font-family="Arial Bold" font-size="11.00" fill="#ffffff">extract fields</text>
</g>
<!-- title&#45;&gt;pm -->
<g id="edge3" class="edge">
<title>title&#45;&gt;pm</title>
<path fill="none" stroke="#ff9800" stroke-width="2" d="M348.69,-264.35C348.69,-264.35 348.69,-219.79 348.69,-219.79"/>
<polygon fill="#ff9800" stroke="#ff9800" stroke-width="2" points="352.19,-219.79 348.69,-209.79 345.19,-219.79 352.19,-219.79"/>
</g>
<!-- hof -->
<g id="node5" class="node">
<title>hof</title>
<path fill="#2196f3" stroke="black" d="M627.62,-206.5C627.62,-206.5 491.62,-206.5 491.62,-206.5 485.62,-206.5 479.62,-200.5 479.62,-194.5 479.62,-194.5 479.62,-156.5 479.62,-156.5 479.62,-150.5 485.62,-144.5 491.62,-144.5 491.62,-144.5 627.62,-144.5 627.62,-144.5 633.62,-144.5 639.62,-150.5 639.62,-156.5 639.62,-156.5 639.62,-194.5 639.62,-194.5 639.62,-200.5 633.62,-206.5 627.62,-206.5"/>
<text xml:space="preserve" text-anchor="middle" x="559.62" y="-192.05" font-family="Arial Bold" font-size="11.00" fill="#ffffff">Higher&#45;Order Fns</text>
<text xml:space="preserve" text-anchor="middle" x="559.62" y="-178.55" font-family="Arial Bold" font-size="11.00" fill="#ffffff">map/filter/fold</text>
<text xml:space="preserve" text-anchor="middle" x="559.62" y="-165.05" font-family="Arial Bold" font-size="11.00" fill="#ffffff">functions as values</text>
<text xml:space="preserve" text-anchor="middle" x="559.62" y="-151.55" font-family="Arial Bold" font-size="11.00" fill="#ffffff">currying, partial application</text>
</g>
<!-- title&#45;&gt;hof -->
<g id="edge4" class="edge">
<title>title&#45;&gt;hof</title>
<path fill="none" stroke="#9c27b0" stroke-width="2" d="M379.74,-282.5C455.91,-282.5 559.62,-282.5 559.62,-282.5 559.62,-282.5 559.62,-219.76 559.62,-219.76"/>
<polygon fill="#9c27b0" stroke="#9c27b0" stroke-width="2" points="563.13,-219.76 559.63,-209.76 556.13,-219.76 563.13,-219.76"/>
</g>
<!-- pure -->
<g id="node6" class="node">
<title>pure</title>
<polygon fill="#ff9800" stroke="black" points="372.75,-86.5 228.5,-86.5 228.5,-24.5 372.75,-24.5 372.75,-86.5"/>
<text xml:space="preserve" text-anchor="middle" x="300.62" y="-72.05" font-family="Arial" font-size="11.00" fill="#ffffff">Pure functions</text>
<text xml:space="preserve" text-anchor="middle" x="300.62" y="-58.55" font-family="Arial" font-size="11.00" fill="#ffffff">same input &#45;&gt; same output</text>
<text xml:space="preserve" text-anchor="middle" x="300.62" y="-45.05" font-family="Arial" font-size="11.00" fill="#ffffff">no side effects</text>
<text xml:space="preserve" text-anchor="middle" x="300.62" y="-31.55" font-family="Arial" font-size="11.00" fill="#ffffff">referential transparency</text>
</g>
<!-- imm&#45;&gt;pure -->
<g id="edge5" class="edge">
<title>imm&#45;&gt;pure</title>
<path fill="none" stroke="#f44336" stroke-width="2" d="M61.62,-144.28C61.62,-108.73 61.62,-55.5 61.62,-55.5 61.62,-55.5 215.24,-55.5 215.24,-55.5"/>
<polygon fill="#f44336" stroke="#f44336" stroke-width="2" points="215.24,-59 225.24,-55.5 215.24,-52 215.24,-59"/>
</g>
<!-- adt&#45;&gt;pure -->
<g id="edge6" class="edge">
<title>adt&#45;&gt;pure</title>
<path fill="none" stroke="#f44336" stroke-width="2" d="M255.38,-144.28C255.38,-144.28 255.38,-100 255.38,-100"/>
<polygon fill="#f44336" stroke="#f44336" stroke-width="2" points="258.88,-100 255.38,-90 251.88,-100 258.88,-100"/>
</g>
<!-- pm&#45;&gt;pure -->
<g id="edge7" class="edge">
<title>pm&#45;&gt;pure</title>
<path fill="none" stroke="#f44336" stroke-width="2" d="M345.31,-144.28C345.31,-144.28 345.31,-100 345.31,-100"/>
<polygon fill="#f44336" stroke="#f44336" stroke-width="2" points="348.81,-100 345.31,-90 341.81,-100 348.81,-100"/>
</g>
<!-- hof&#45;&gt;pure -->
<g id="edge8" class="edge">
<title>hof&#45;&gt;pure</title>
<path fill="none" stroke="#f44336" stroke-width="2" d="M559.62,-144.28C559.62,-108.73 559.62,-55.5 559.62,-55.5 559.62,-55.5 386.14,-55.5 386.14,-55.5"/>
<polygon fill="#f44336" stroke="#f44336" stroke-width="2" points="386.14,-52 376.14,-55.5 386.14,-59 386.14,-52"/>
</g>
</g>
</svg>
