<svg xmlns="http://www.w3.org/2000/svg" viewBox="0 0 1200 1120" font-family="Inter, system-ui, -apple-system, sans-serif">
<style>
  text { fill: #1e293b; }
  .title { font-size:20px; font-weight:700; fill:#1e293b; }
  .section { font-size:15px; font-weight:700; }
  .label { font-size:12px; font-weight:600; fill:#1e293b; }
  .small { font-size:10px; fill:#64748b; }
  .annot { font-size:9px; fill:#94a3b8; }
  .mono { font-size:11px; font-family:JetBrains Mono, Fira Code, monospace; fill:#1e293b; }
</style>
<defs>
  <marker id="arr-blue" markerWidth="8" markerHeight="6" refX="7" refY="3" orient="auto"><polygon points="0 0, 8 3, 0 6" fill="#2563eb"/></marker>
  <marker id="arr-green" markerWidth="8" markerHeight="6" refX="7" refY="3" orient="auto"><polygon points="0 0, 8 3, 0 6" fill="#059669"/></marker>
  <marker id="arr-purple" markerWidth="8" markerHeight="6" refX="7" refY="3" orient="auto"><polygon points="0 0, 8 3, 0 6" fill="#7c3aed"/></marker>
  <marker id="arr-orange" markerWidth="8" markerHeight="6" refX="7" refY="3" orient="auto"><polygon points="0 0, 8 3, 0 6" fill="#ea580c"/></marker>
  <marker id="arr-red" markerWidth="8" markerHeight="6" refX="7" refY="3" orient="auto"><polygon points="0 0, 8 3, 0 6" fill="#dc2626"/></marker>
  <marker id="arr-gray" markerWidth="8" markerHeight="6" refX="7" refY="3" orient="auto"><polygon points="0 0, 8 3, 0 6" fill="#64748b"/></marker>
  <filter id="shadow" x="-10%" y="-10%" width="120%" height="120%"><feDropShadow dx="0" dy="2" stdDeviation="3" flood-opacity="0.08"/></filter>
</defs>
<rect width="1200" height="1120" fill="#ffffff"/>
<text x="600" y="30" text-anchor="middle" class="title">LLM Quantization: Running 70B Models on a Laptop</text>
<text x="600" y="48" text-anchor="middle" class="small">From FP32 to INT4: how reducing precision cuts memory 8x with minimal quality loss</text>

<text x="40" y="78" class="section" fill="#2563eb">1. Number Precision Formats</text>
<text x="40" y="94" class="small">Each format uses different bit widths to represent the same number. Fewer bits = less memory but less precision.</text>

<rect x="40" y="110" width="265" height="145" rx="8" fill="#ffffff" stroke="#2563eb" stroke-width="2" filter="url(#shadow)"/>
<rect x="40" y="110" width="265" height="28" rx="8" fill="#dbeafe" stroke="#2563eb" stroke-width="1"/>
<rect x="40" y="130" width="265" height="8" fill="#dbeafe"/>
<text x="172" y="129" text-anchor="middle" class="label" fill="#2563eb">FP32 (32 bits)</text>
<rect x="60" y="150" width="6" height="16" rx="1" fill="#dc2626" opacity="0.7"/>
<rect x="67" y="150" width="6" height="16" rx="1" fill="#f59e0b" opacity="0.7"/>
<rect x="74" y="150" width="6" height="16" rx="1" fill="#f59e0b" opacity="0.7"/>
<rect x="81" y="150" width="6" height="16" rx="1" fill="#f59e0b" opacity="0.7"/>
<rect x="88" y="150" width="6" height="16" rx="1" fill="#f59e0b" opacity="0.7"/>
<rect x="95" y="150" width="6" height="16" rx="1" fill="#f59e0b" opacity="0.7"/>
<rect x="102" y="150" width="6" height="16" rx="1" fill="#f59e0b" opacity="0.7"/>
<rect x="109" y="150" width="6" height="16" rx="1" fill="#f59e0b" opacity="0.7"/>
<rect x="116" y="150" width="6" height="16" rx="1" fill="#f59e0b" opacity="0.7"/>
<rect x="123" y="150" width="6" height="16" rx="1" fill="#059669" opacity="0.7"/>
<rect x="130" y="150" width="6" height="16" rx="1" fill="#059669" opacity="0.7"/>
<rect x="137" y="150" width="6" height="16" rx="1" fill="#059669" opacity="0.7"/>
<rect x="144" y="150" width="6" height="16" rx="1" fill="#059669" opacity="0.7"/>
<rect x="151" y="150" width="6" height="16" rx="1" fill="#059669" opacity="0.7"/>
<rect x="158" y="150" width="6" height="16" rx="1" fill="#059669" opacity="0.7"/>
<rect x="165" y="150" width="6" height="16" rx="1" fill="#059669" opacity="0.7"/>
<rect x="172" y="150" width="6" height="16" rx="1" fill="#059669" opacity="0.7"/>
<rect x="179" y="150" width="6" height="16" rx="1" fill="#059669" opacity="0.7"/>
<rect x="186" y="150" width="6" height="16" rx="1" fill="#059669" opacity="0.7"/>
<rect x="193" y="150" width="6" height="16" rx="1" fill="#059669" opacity="0.7"/>
<rect x="200" y="150" width="6" height="16" rx="1" fill="#059669" opacity="0.7"/>
<rect x="207" y="150" width="6" height="16" rx="1" fill="#059669" opacity="0.7"/>
<rect x="214" y="150" width="6" height="16" rx="1" fill="#059669" opacity="0.7"/>
<rect x="221" y="150" width="6" height="16" rx="1" fill="#059669" opacity="0.7"/>
<rect x="228" y="150" width="6" height="16" rx="1" fill="#059669" opacity="0.7"/>
<rect x="235" y="150" width="6" height="16" rx="1" fill="#059669" opacity="0.7"/>
<rect x="242" y="150" width="6" height="16" rx="1" fill="#059669" opacity="0.7"/>
<rect x="249" y="150" width="6" height="16" rx="1" fill="#059669" opacity="0.7"/>
<rect x="256" y="150" width="6" height="16" rx="1" fill="#059669" opacity="0.7"/>
<rect x="263" y="150" width="6" height="16" rx="1" fill="#059669" opacity="0.7"/>
<rect x="270" y="150" width="6" height="16" rx="1" fill="#059669" opacity="0.7"/>
<rect x="277" y="150" width="6" height="16" rx="1" fill="#059669" opacity="0.7"/>
<text x="72" y="182" text-anchor="middle" class="annot" fill="#dc2626">S</text>
<text x="98" y="182" text-anchor="middle" class="annot" fill="#f59e0b">Exponent (8)</text>
<text x="200" y="182" text-anchor="middle" class="annot" fill="#059669">Mantissa (23)</text>
<text x="52" y="202" class="annot">1 sign + 8 exp + 23 mantissa</text>
<text x="52" y="216" class="annot">Range: ~1e-38 to 1e+38</text>
<text x="52" y="232" class="small" font-weight="600">Training (rarely used for inference)</text>
<text x="52" y="248" class="annot">Size per param: 4 bytes</text>

<rect x="325" y="110" width="265" height="145" rx="8" fill="#ffffff" stroke="#059669" stroke-width="2" filter="url(#shadow)"/>
<rect x="325" y="110" width="265" height="28" rx="8" fill="#d1fae5" stroke="#059669" stroke-width="1"/>
<rect x="325" y="130" width="265" height="8" fill="#d1fae5"/>
<text x="457" y="129" text-anchor="middle" class="label" fill="#059669">FP16/BF16 (16 bits)</text>
<rect x="345" y="150" width="13" height="16" rx="1" fill="#dc2626" opacity="0.7"/>
<rect x="359" y="150" width="13" height="16" rx="1" fill="#f59e0b" opacity="0.7"/>
<rect x="373" y="150" width="13" height="16" rx="1" fill="#f59e0b" opacity="0.7"/>
<rect x="387" y="150" width="13" height="16" rx="1" fill="#f59e0b" opacity="0.7"/>
<rect x="401" y="150" width="13" height="16" rx="1" fill="#f59e0b" opacity="0.7"/>
<rect x="415" y="150" width="13" height="16" rx="1" fill="#f59e0b" opacity="0.7"/>
<rect x="429" y="150" width="13" height="16" rx="1" fill="#059669" opacity="0.7"/>
<rect x="443" y="150" width="13" height="16" rx="1" fill="#059669" opacity="0.7"/>
<rect x="457" y="150" width="13" height="16" rx="1" fill="#059669" opacity="0.7"/>
<rect x="471" y="150" width="13" height="16" rx="1" fill="#059669" opacity="0.7"/>
<rect x="485" y="150" width="13" height="16" rx="1" fill="#059669" opacity="0.7"/>
<rect x="499" y="150" width="13" height="16" rx="1" fill="#059669" opacity="0.7"/>
<rect x="513" y="150" width="13" height="16" rx="1" fill="#059669" opacity="0.7"/>
<rect x="527" y="150" width="13" height="16" rx="1" fill="#059669" opacity="0.7"/>
<rect x="541" y="150" width="13" height="16" rx="1" fill="#059669" opacity="0.7"/>
<rect x="555" y="150" width="13" height="16" rx="1" fill="#059669" opacity="0.7"/>
<text x="352" y="182" text-anchor="middle" class="annot" fill="#dc2626">S</text>
<text x="394" y="182" text-anchor="middle" class="annot" fill="#f59e0b">Exp</text>
<text x="499" y="182" text-anchor="middle" class="annot" fill="#059669">Mantissa</text>
<text x="337" y="202" class="annot">1 sign + 5/8 exp + 10/7 mantissa</text>
<text x="337" y="216" class="annot">Range: ~1e-5 to 65504 (FP16)</text>
<text x="337" y="232" class="small" font-weight="600">Standard inference + training</text>
<text x="337" y="248" class="annot">Size per param: 2 bytes</text>

<rect x="610" y="110" width="265" height="145" rx="8" fill="#ffffff" stroke="#ea580c" stroke-width="2" filter="url(#shadow)"/>
<rect x="610" y="110" width="265" height="28" rx="8" fill="#fed7aa" stroke="#ea580c" stroke-width="1"/>
<rect x="610" y="130" width="265" height="8" fill="#fed7aa"/>
<text x="742" y="129" text-anchor="middle" class="label" fill="#ea580c">INT8 (8 bits)</text>
<rect x="646" y="150" width="23" height="16" rx="1" fill="#dc2626" opacity="0.7"/>
<rect x="670" y="150" width="23" height="16" rx="1" fill="#059669" opacity="0.7"/>
<rect x="694" y="150" width="23" height="16" rx="1" fill="#059669" opacity="0.7"/>
<rect x="718" y="150" width="23" height="16" rx="1" fill="#059669" opacity="0.7"/>
<rect x="742" y="150" width="23" height="16" rx="1" fill="#059669" opacity="0.7"/>
<rect x="766" y="150" width="23" height="16" rx="1" fill="#059669" opacity="0.7"/>
<rect x="790" y="150" width="23" height="16" rx="1" fill="#059669" opacity="0.7"/>
<rect x="814" y="150" width="23" height="16" rx="1" fill="#059669" opacity="0.7"/>
<text x="742" y="182" text-anchor="middle" class="annot">8-bit integer value</text>
<text x="622" y="202" class="annot">8-bit integer (-128 to 127)</text>
<text x="622" y="216" class="annot">Range: -128 to 127</text>
<text x="622" y="232" class="small" font-weight="600">4x smaller, minimal quality loss</text>
<text x="622" y="248" class="annot">Size per param: 1 byte</text>

<rect x="895" y="110" width="265" height="145" rx="8" fill="#ffffff" stroke="#dc2626" stroke-width="2" filter="url(#shadow)"/>
<rect x="895" y="110" width="265" height="28" rx="8" fill="#fee2e2" stroke="#dc2626" stroke-width="1"/>
<rect x="895" y="130" width="265" height="8" fill="#fee2e2"/>
<text x="1027" y="129" text-anchor="middle" class="label" fill="#dc2626">INT4 (4 bits)</text>
<rect x="979" y="150" width="23" height="16" rx="1" fill="#dc2626" opacity="0.7"/>
<rect x="1003" y="150" width="23" height="16" rx="1" fill="#059669" opacity="0.7"/>
<rect x="1027" y="150" width="23" height="16" rx="1" fill="#059669" opacity="0.7"/>
<rect x="1051" y="150" width="23" height="16" rx="1" fill="#059669" opacity="0.7"/>
<text x="1027" y="182" text-anchor="middle" class="annot">4-bit integer value</text>
<text x="907" y="202" class="annot">4-bit integer (-8 to 7)</text>
<text x="907" y="216" class="annot">Range: -8 to 7</text>
<text x="907" y="232" class="small" font-weight="600">8x smaller, noticeable quality loss</text>
<text x="907" y="248" class="annot">Size per param: 0.5 bytes</text>

<text x="40" y="290" class="section" fill="#059669">2. Model Size at Different Precisions</text>
<text x="40" y="306" class="small">A 7B model needs 28 GB in FP32 but only 3.5 GB in INT4 -- datacenter vs laptop.</text>
<rect x="40" y="320" width="760" height="26" rx="4" fill="#d1fae5" stroke="#059669" stroke-width="1"/>
<text x="116" y="338" text-anchor="middle" class="label" fill="#059669">Model</text>
<text x="268" y="338" text-anchor="middle" class="label" fill="#059669">FP32 (4B)</text>
<text x="420" y="338" text-anchor="middle" class="label" fill="#059669">FP16 (2B)</text>
<text x="572" y="338" text-anchor="middle" class="label" fill="#059669">INT8 (1B)</text>
<text x="724" y="338" text-anchor="middle" class="label" fill="#059669">INT4 (0.5B)</text>
<rect x="40" y="346" width="760" height="26" fill="#f8fafc" opacity="0.5"/>
<text x="116" y="364" text-anchor="middle" class="small" font-weight="600" fill="#1e293b">7B (Llama-3)</text>
<text x="268" y="364" text-anchor="middle" class="small" fill="#1e293b">28 GB</text>
<text x="420" y="364" text-anchor="middle" class="small" fill="#1e293b">14 GB</text>
<text x="572" y="364" text-anchor="middle" class="small" fill="#1e293b">7 GB</text>
<text x="724" y="364" text-anchor="middle" class="small" fill="#1e293b">3.5 GB</text>
<line x1="40" y1="372" x2="800" y2="372" stroke="#e2e8f0" stroke-width="0.5"/>
<text x="116" y="390" text-anchor="middle" class="small" font-weight="600" fill="#1e293b">13B</text>
<text x="268" y="390" text-anchor="middle" class="small" fill="#1e293b">52 GB</text>
<text x="420" y="390" text-anchor="middle" class="small" fill="#1e293b">26 GB</text>
<text x="572" y="390" text-anchor="middle" class="small" fill="#1e293b">13 GB</text>
<text x="724" y="390" text-anchor="middle" class="small" fill="#1e293b">6.5 GB</text>
<line x1="40" y1="398" x2="800" y2="398" stroke="#e2e8f0" stroke-width="0.5"/>
<rect x="40" y="398" width="760" height="26" fill="#f8fafc" opacity="0.5"/>
<text x="116" y="416" text-anchor="middle" class="small" font-weight="600" fill="#1e293b">34B</text>
<text x="268" y="416" text-anchor="middle" class="small" fill="#dc2626">136 GB</text>
<text x="420" y="416" text-anchor="middle" class="small" fill="#1e293b">68 GB</text>
<text x="572" y="416" text-anchor="middle" class="small" fill="#1e293b">34 GB</text>
<text x="724" y="416" text-anchor="middle" class="small" fill="#1e293b">17 GB</text>
<line x1="40" y1="424" x2="800" y2="424" stroke="#e2e8f0" stroke-width="0.5"/>
<text x="116" y="442" text-anchor="middle" class="small" font-weight="600" fill="#1e293b">70B (Llama-3)</text>
<text x="268" y="442" text-anchor="middle" class="small" fill="#dc2626">280 GB</text>
<text x="420" y="442" text-anchor="middle" class="small" fill="#dc2626">140 GB</text>
<text x="572" y="442" text-anchor="middle" class="small" fill="#1e293b">70 GB</text>
<text x="724" y="442" text-anchor="middle" class="small" fill="#1e293b">35 GB</text>
<line x1="40" y1="450" x2="800" y2="450" stroke="#e2e8f0" stroke-width="0.5"/>
<rect x="40" y="450" width="760" height="26" fill="#f8fafc" opacity="0.5"/>
<text x="116" y="468" text-anchor="middle" class="small" font-weight="600" fill="#1e293b">405B (Llama-3)</text>
<text x="268" y="468" text-anchor="middle" class="small" fill="#dc2626">1,620 GB</text>
<text x="420" y="468" text-anchor="middle" class="small" fill="#dc2626">810 GB</text>
<text x="572" y="468" text-anchor="middle" class="small" fill="#dc2626">405 GB</text>
<text x="724" y="468" text-anchor="middle" class="small" fill="#dc2626">202 GB</text>
<rect x="40" y="486" width="760" height="24" rx="4" fill="#fef3c7" stroke="#f59e0b" stroke-width="1"/>
<text x="420" y="502" text-anchor="middle" class="small" fill="#92400e">RTX 4090 (24GB) can run: 7B INT4, 13B INT4 | MacBook Pro M3 Max (64GB) can run: 70B INT4</text>

<text x="840" y="290" class="section" fill="#7c3aed">3. Quantization Methods</text>
<text x="840" y="306" class="small">Methods trade off speed, quality, and hardware compatibility.</text>
<rect x="840" y="320" width="320" height="36" rx="6" fill="#ffffff" stroke="#7c3aed" stroke-width="1.5" filter="url(#shadow)"/>
<rect x="840" y="320" width="110" height="36" rx="6" fill="#ede9fe" stroke="#7c3aed" stroke-width="1"/>
<rect x="942" y="320" width="8" height="36" fill="#ede9fe"/>
<text x="895" y="342" text-anchor="middle" class="label" fill="#7c3aed">GGUF</text>
<text x="960" y="334" class="small">CPU + GPU mixed (llama.cpp)</text>
<text x="960" y="348" class="annot">Used by: Ollama, LM Studio</text>
<rect x="840" y="362" width="320" height="36" rx="6" fill="#ffffff" stroke="#2563eb" stroke-width="1.5" filter="url(#shadow)"/>
<rect x="840" y="362" width="110" height="36" rx="6" fill="#dbeafe" stroke="#2563eb" stroke-width="1"/>
<rect x="942" y="362" width="8" height="36" fill="#dbeafe"/>
<text x="895" y="384" text-anchor="middle" class="label" fill="#2563eb">GPTQ</text>
<text x="960" y="376" class="small">Post-training quantization</text>
<text x="960" y="390" class="annot">Used by: vLLM, TGI</text>
<rect x="840" y="404" width="320" height="36" rx="6" fill="#ffffff" stroke="#059669" stroke-width="1.5" filter="url(#shadow)"/>
<rect x="840" y="404" width="110" height="36" rx="6" fill="#d1fae5" stroke="#059669" stroke-width="1"/>
<rect x="942" y="404" width="8" height="36" fill="#d1fae5"/>
<text x="895" y="426" text-anchor="middle" class="label" fill="#059669">AWQ</text>
<text x="960" y="418" class="small">Activation-aware quantization</text>
<text x="960" y="432" class="annot">Used by: vLLM, Hugging Face</text>
<rect x="840" y="446" width="320" height="36" rx="6" fill="#ffffff" stroke="#ea580c" stroke-width="1.5" filter="url(#shadow)"/>
<rect x="840" y="446" width="110" height="36" rx="6" fill="#fed7aa" stroke="#ea580c" stroke-width="1"/>
<rect x="942" y="446" width="8" height="36" fill="#fed7aa"/>
<text x="895" y="468" text-anchor="middle" class="label" fill="#ea580c">bitsandbytes</text>
<text x="960" y="460" class="small">Naive INT8/INT4 quantization</text>
<text x="960" y="474" class="annot">Used by: HF Transformers</text>
<rect x="840" y="488" width="320" height="36" rx="6" fill="#ffffff" stroke="#dc2626" stroke-width="1.5" filter="url(#shadow)"/>
<rect x="840" y="488" width="110" height="36" rx="6" fill="#fee2e2" stroke="#dc2626" stroke-width="1"/>
<rect x="942" y="488" width="8" height="36" fill="#fee2e2"/>
<text x="895" y="510" text-anchor="middle" class="label" fill="#dc2626">EXL2</text>
<text x="960" y="502" class="small">Mixed-bit quantization</text>
<text x="960" y="516" class="annot">Used by: ExLlamaV2, TabbyAPI</text>
<rect x="840" y="530" width="320" height="36" rx="6" fill="#ffffff" stroke="#64748b" stroke-width="1.5" filter="url(#shadow)"/>
<rect x="840" y="530" width="110" height="36" rx="6" fill="#f1f5f9" stroke="#64748b" stroke-width="1"/>
<rect x="942" y="530" width="8" height="36" fill="#f1f5f9"/>
<text x="895" y="552" text-anchor="middle" class="label" fill="#64748b">FP8 (H100)</text>
<text x="960" y="544" class="small">Hardware FP8 on H100/4090</text>
<text x="960" y="558" class="annot">Used by: TensorRT-LLM, vLLM</text>

<text x="40" y="606" class="section" fill="#dc2626">4. Quality vs Memory Tradeoff (Llama-2 7B)</text>
<line x1="60" y1="626" x2="60" y2="796" stroke="#64748b" stroke-width="1"/>
<line x1="60" y1="796" x2="560" y2="796" stroke="#64748b" stroke-width="1"/>
<text x="46" y="711" text-anchor="middle" class="small" transform="rotate(-90 46 711)">Quality (MMLU %)</text>
<text x="310" y="834" text-anchor="middle" class="small">Memory Usage (GB) --&gt;</text>
<polyline points="526 642 293 642 176 648 118 675 110 684 101 751" fill="none" stroke="#94a3b8" stroke-width="1.5" stroke-dasharray="4 3"/>
<circle cx="526" cy="642" r="6" fill="#2563eb" stroke="#ffffff" stroke-width="2"/>
<text x="536" y="634" class="small" font-weight="600" fill="#2563eb">FP32</text>
<text x="536" y="646" class="annot">45.3%</text>
<text x="536" y="658" class="annot">28 GB</text>
<circle cx="293" cy="642" r="6" fill="#059669" stroke="#ffffff" stroke-width="2"/>
<text x="303" y="634" class="small" font-weight="600" fill="#059669">FP16</text>
<text x="303" y="646" class="annot">45.3%</text>
<text x="303" y="658" class="annot">14 GB</text>
<circle cx="176" cy="648" r="6" fill="#ea580c" stroke="#ffffff" stroke-width="2"/>
<text x="186" y="640" class="small" font-weight="600" fill="#ea580c">INT8</text>
<text x="186" y="652" class="annot">44.9%</text>
<text x="186" y="664" class="annot">7 GB</text>
<circle cx="118" cy="675" r="6" fill="#dc2626" stroke="#ffffff" stroke-width="2"/>
<text x="130" y="669" class="small" font-weight="600" fill="#dc2626">INT4</text>
<text x="130" y="681" class="annot">43.1%</text>
<text x="130" y="693" class="annot">3.5 GB</text>
<circle cx="110" cy="684" r="6" fill="#7c3aed" stroke="#ffffff" stroke-width="2"/>
<text x="152" y="712" class="small" font-weight="600" fill="#7c3aed">INT3</text>
<text x="152" y="724" class="annot">42.5%</text>
<text x="152" y="736" class="annot">3.0 GB</text>
<line x1="116" y1="688" x2="148" y2="714" stroke="#7c3aed" stroke-width="0.75"/>
<circle cx="101" cy="751" r="6" fill="#64748b" stroke="#ffffff" stroke-width="2"/>
<text x="113" y="743" class="small" font-weight="600" fill="#64748b">INT2</text>
<text x="113" y="755" class="annot">38.0%</text>
<text x="113" y="767" class="annot">2.5 GB</text>
<rect x="200" y="700" width="130" height="20" rx="4" fill="#fef3c7" stroke="#f59e0b" stroke-width="1"/>
<text x="265" y="714" text-anchor="middle" class="annot" font-weight="600" fill="#92400e">Sweet spot (INT4)</text>
<line x1="60" y1="796" x2="60" y2="800" stroke="#64748b" stroke-width="1"/>
<text x="60" y="812" text-anchor="middle" class="annot">0</text>
<line x1="176" y1="796" x2="176" y2="800" stroke="#64748b" stroke-width="1"/>
<text x="176" y="812" text-anchor="middle" class="annot">7</text>
<line x1="293" y1="796" x2="293" y2="800" stroke="#64748b" stroke-width="1"/>
<text x="293" y="812" text-anchor="middle" class="annot">14</text>
<line x1="410" y1="796" x2="410" y2="800" stroke="#64748b" stroke-width="1"/>
<text x="410" y="812" text-anchor="middle" class="annot">21</text>
<line x1="526" y1="796" x2="526" y2="800" stroke="#64748b" stroke-width="1"/>
<text x="526" y="812" text-anchor="middle" class="annot">28</text>

<text x="620" y="606" class="section" fill="#7c3aed">5. How Quantization Works (INT8 Example)</text>
<rect x="620" y="626" width="260" height="100" rx="6" fill="#ffffff" stroke="#2563eb" stroke-width="1.5" filter="url(#shadow)"/>
<rect x="620" y="626" width="260" height="22" rx="6" fill="#dbeafe" stroke="#2563eb" stroke-width="1"/>
<rect x="620" y="640" width="260" height="8" fill="#dbeafe"/>
<text x="750" y="642" text-anchor="middle" class="label" fill="#2563eb">Step 1: Calibrate</text>
<text x="632" y="662" class="annot">Run a small dataset (128-512 samples)</text>
<text x="632" y="676" class="annot">through the model. Record the min</text>
<text x="632" y="690" class="annot">and max activation values for each</text>
<text x="632" y="704" class="annot">layer.</text>
<line x1="880" y1="676" x2="890" y2="676" stroke="#64748b" stroke-width="1.5" marker-end="url(#arr-gray)"/>
<rect x="890" y="626" width="260" height="100" rx="6" fill="#ffffff" stroke="#059669" stroke-width="1.5" filter="url(#shadow)"/>
<rect x="890" y="626" width="260" height="22" rx="6" fill="#d1fae5" stroke="#059669" stroke-width="1"/>
<rect x="890" y="640" width="260" height="8" fill="#d1fae5"/>
<text x="1020" y="642" text-anchor="middle" class="label" fill="#059669">Step 2: Compute Scale</text>
<text x="902" y="662" class="annot">For each weight tensor W:</text>
<text x="902" y="676" class="annot">scale = max(|W|) / 127</text>
<text x="902" y="690" class="annot">zero_point = 0 (symmetric)</text>
<text x="902" y="704" class="annot">This maps FP16 range to INT8 range.</text>
<rect x="620" y="736" width="260" height="100" rx="6" fill="#ffffff" stroke="#ea580c" stroke-width="1.5" filter="url(#shadow)"/>
<rect x="620" y="736" width="260" height="22" rx="6" fill="#fed7aa" stroke="#ea580c" stroke-width="1"/>
<rect x="620" y="750" width="260" height="8" fill="#fed7aa"/>
<text x="750" y="752" text-anchor="middle" class="label" fill="#ea580c">Step 3: Quantize</text>
<text x="632" y="772" class="annot">W_int8 = round(W_fp16 / scale)</text>
<text x="632" y="786" class="annot">Store W_int8 (1 byte per weight)</text>
<text x="632" y="800" class="annot">instead of W_fp16 (2 bytes).</text>
<text x="632" y="814" class="annot">50% memory savings.</text>
<line x1="880" y1="786" x2="890" y2="786" stroke="#64748b" stroke-width="1.5" marker-end="url(#arr-gray)"/>
<rect x="890" y="736" width="260" height="100" rx="6" fill="#ffffff" stroke="#dc2626" stroke-width="1.5" filter="url(#shadow)"/>
<rect x="890" y="736" width="260" height="22" rx="6" fill="#fee2e2" stroke="#dc2626" stroke-width="1"/>
<rect x="890" y="750" width="260" height="8" fill="#fee2e2"/>
<text x="1020" y="752" text-anchor="middle" class="label" fill="#dc2626">Step 4: Dequantize</text>
<text x="902" y="772" class="annot">During inference:</text>
<text x="902" y="786" class="annot">W_fp16 = W_int8 * scale</text>
<text x="902" y="800" class="annot">Convert back on-the-fly before</text>
<text x="902" y="814" class="annot">matrix multiplication.</text>
<text x="902" y="828" class="annot">Overhead: minimal (fused kernels).</text>

<text x="40" y="886" class="section" fill="#059669">6. KV-Cache Quantization: Double the Savings</text>
<text x="40" y="902" class="small">As explained in our KV-cache deep dive, the cache grows with context length. Quantizing it provides additional savings.</text>
<rect x="40" y="916" width="720" height="26" rx="4" fill="#d1fae5" stroke="#059669" stroke-width="1"/>
<text x="130" y="934" text-anchor="middle" class="label" fill="#059669">Context Length</text>
<text x="310" y="934" text-anchor="middle" class="label" fill="#059669">FP16 KV-cache</text>
<text x="490" y="934" text-anchor="middle" class="label" fill="#059669">INT8 KV-cache</text>
<text x="670" y="934" text-anchor="middle" class="label" fill="#059669">INT4 KV-cache</text>
<rect x="40" y="942" width="720" height="24" fill="#f8fafc" opacity="0.5"/>
<text x="130" y="959" text-anchor="middle" class="small" font-weight="600">4K context</text>
<text x="310" y="959" text-anchor="middle" class="small">2.0 GB</text>
<text x="490" y="959" text-anchor="middle" class="small">1.0 GB</text>
<text x="670" y="959" text-anchor="middle" class="small">0.5 GB</text>
<line x1="40" y1="966" x2="760" y2="966" stroke="#e2e8f0" stroke-width="0.5"/>
<text x="130" y="983" text-anchor="middle" class="small" font-weight="600">8K context</text>
<text x="310" y="983" text-anchor="middle" class="small">4.0 GB</text>
<text x="490" y="983" text-anchor="middle" class="small">2.0 GB</text>
<text x="670" y="983" text-anchor="middle" class="small">1.0 GB</text>
<line x1="40" y1="990" x2="760" y2="990" stroke="#e2e8f0" stroke-width="0.5"/>
<rect x="40" y="990" width="720" height="24" fill="#f8fafc" opacity="0.5"/>
<text x="130" y="1007" text-anchor="middle" class="small" font-weight="600">32K context</text>
<text x="310" y="1007" text-anchor="middle" class="small">16 GB</text>
<text x="490" y="1007" text-anchor="middle" class="small">8 GB</text>
<text x="670" y="1007" text-anchor="middle" class="small">4 GB</text>
<line x1="40" y1="1014" x2="760" y2="1014" stroke="#e2e8f0" stroke-width="0.5"/>
<text x="130" y="1031" text-anchor="middle" class="small" font-weight="600">128K context</text>
<text x="310" y="1031" text-anchor="middle" class="small">64 GB</text>
<text x="490" y="1031" text-anchor="middle" class="small">32 GB</text>
<text x="670" y="1031" text-anchor="middle" class="small">16 GB</text>

<rect x="800" y="916" width="360" height="130" rx="8" fill="#f8fafc" stroke="#7c3aed" stroke-width="2" filter="url(#shadow)"/>
<text x="980" y="936" text-anchor="middle" class="label" fill="#7c3aed">Combined Savings: 70B + 32K Context</text>
<text x="820" y="956" class="small">FP16 weights + FP16 KV-cache:</text>
<text x="1020" y="956" class="small" font-weight="700" fill="#dc2626">140 + 16 = 156 GB</text>
<text x="820" y="974" class="small">INT4 weights + INT8 KV-cache:</text>
<text x="1020" y="974" class="small" font-weight="700" fill="#059669">35 + 8 = 43 GB</text>
<text x="820" y="992" class="small">INT4 weights + INT4 KV-cache:</text>
<text x="1020" y="992" class="small" font-weight="700" fill="#059669">35 + 4 = 39 GB</text>
<text x="820" y="1012" class="small" font-weight="600" fill="#7c3aed">Total savings: 156 GB -&gt; 39 GB (4x)</text>
<text x="820" y="1028" class="annot">Fits on a single A100 40GB with room to spare!</text>

<rect x="40" y="1070" width="1120" height="40" rx="4" fill="#fef3c7" stroke="#f59e0b" stroke-width="1"/>
<text x="600" y="1088" text-anchor="middle" class="small" font-weight="600" fill="#92400e">Key: INT4 is the sweet spot for local deployment (8x smaller, ~5% quality loss) | INT8 for production serving</text>
<text x="600" y="1102" text-anchor="middle" class="small" font-weight="600" fill="#92400e">FP16 when quality is critical | GGUF for CPU/mixed, AWQ/GPTQ for GPU-only</text>
</svg>
