<?xml version="1.0" encoding="UTF-8" standalone="no"?>
<!DOCTYPE svg PUBLIC "-//W3C//DTD SVG 1.1//EN"
 "http://www.w3.org/Graphics/SVG/1.1/DTD/svg11.dtd">
<!-- Generated by graphviz version 14.1.2 (0)
 -->
<!-- Title: typescript&#45;go&#45;ecosystem Pages: 1 -->
<svg width="537pt" height="217pt"
 viewBox="0.00 0.00 537.00 217.00" xmlns="http://www.w3.org/2000/svg" xmlns:xlink="http://www.w3.org/1999/xlink">
<style>
<!-- White text halo for edge label readability -->
text { paint-order: stroke; stroke: #ffffff; stroke-width: 3px; stroke-linejoin: round; fill: #1a1a2e; }
</style>
<g id="graph0" class="graph" transform="scale(1 1) rotate(0) translate(4 213.14)">
<title>typescript&#45;go&#45;ecosystem</title>
<polygon fill="white" stroke="none" points="-4,4 -4,-213.14 533.38,-213.14 533.38,4 -4,4"/>
<text xml:space="preserve" text-anchor="middle" x="264.69" y="-7.2" font-family="Times New Roman,serif" font-size="14.00">TypeScript 7 Ecosystem Integration</text>
<!-- tsgo -->
<g id="node1" class="node">
<title>tsgo</title>
<ellipse fill="#00add8" stroke="black" cx="286.75" cy="-170.07" rx="68.06" ry="39.07"/>
<text xml:space="preserve" text-anchor="middle" x="286.75" y="-180.39" font-family="Arial Bold" font-size="14.00" fill="white">TypeScript 7</text>
<text xml:space="preserve" text-anchor="middle" x="286.75" y="-164.64" font-family="Arial Bold" font-size="14.00" fill="white">(tsgo)</text>
<text xml:space="preserve" text-anchor="middle" x="286.75" y="-148.89" font-family="Arial Bold" font-size="14.00" fill="white">Go Native</text>
</g>
<!-- vscode -->
<g id="node2" class="node">
<title>vscode</title>
<path fill="#4caf50" stroke="black" d="M89.5,-66.75C89.5,-66.75 12,-66.75 12,-66.75 6,-66.75 0,-60.75 0,-54.75 0,-54.75 0,-42.75 0,-42.75 0,-36.75 6,-30.75 12,-30.75 12,-30.75 89.5,-30.75 89.5,-30.75 95.5,-30.75 101.5,-36.75 101.5,-42.75 101.5,-42.75 101.5,-54.75 101.5,-54.75 101.5,-60.75 95.5,-66.75 89.5,-66.75"/>
<text xml:space="preserve" text-anchor="middle" x="50.75" y="-51.25" font-family="Arial" font-size="10.00" fill="white">VS Code</text>
<text xml:space="preserve" text-anchor="middle" x="50.75" y="-39.25" font-family="Arial" font-size="10.00" fill="white">Extension Available</text>
</g>
<!-- tsgo&#45;&gt;vscode -->
<g id="edge1" class="edge">
<title>tsgo&#45;&gt;vscode</title>
<path fill="none" stroke="#4caf50" stroke-width="2" d="M218.49,-170.5C148.79,-170.5 50.75,-170.5 50.75,-170.5 50.75,-170.5 50.75,-80.27 50.75,-80.27"/>
<polygon fill="#4caf50" stroke="#4caf50" stroke-width="2" points="54.25,-80.27 50.75,-70.27 47.25,-80.27 54.25,-80.27"/>
<text xml:space="preserve" text-anchor="middle" x="77.88" y="-173.7" font-family="Times New Roman,serif" font-size="14.00">LSP</text>
</g>
<!-- npm -->
<g id="node3" class="node">
<title>npm</title>
<polygon fill="#f44336" stroke="black" points="283.62,-66.75 137.88,-66.75 137.88,-30.75 283.62,-30.75 283.62,-66.75"/>
<text xml:space="preserve" text-anchor="middle" x="210.75" y="-51.8" font-family="Arial" font-size="11.00" fill="white">npm Package</text>
<text xml:space="preserve" text-anchor="middle" x="210.75" y="-38.3" font-family="Arial" font-size="11.00" fill="white">@typescript/native&#45;preview</text>
</g>
<!-- tsgo&#45;&gt;npm -->
<g id="edge2" class="edge">
<title>tsgo&#45;&gt;npm</title>
<path fill="none" stroke="#f44336" stroke-width="2" d="M251.16,-136.27C251.16,-136.27 251.16,-80.01 251.16,-80.01"/>
<polygon fill="#f44336" stroke="#f44336" stroke-width="2" points="254.66,-80.01 251.16,-70.01 247.66,-80.01 254.66,-80.01"/>
<text xml:space="preserve" text-anchor="middle" x="227.91" y="-111.34" font-family="Times New Roman,serif" font-size="14.00">npx tsgo</text>
</g>
<!-- build -->
<g id="node4" class="node">
<title>build</title>
<path fill="#ff9800" stroke="black" d="M393.62,-73C393.62,-73 331.88,-73 331.88,-73 325.88,-73 319.88,-67 319.88,-61 319.88,-61 319.88,-36.5 319.88,-36.5 319.88,-30.5 325.88,-24.5 331.88,-24.5 331.88,-24.5 393.62,-24.5 393.62,-24.5 399.62,-24.5 405.62,-30.5 405.62,-36.5 405.62,-36.5 405.62,-61 405.62,-61 405.62,-67 399.62,-73 393.62,-73"/>
<text xml:space="preserve" text-anchor="middle" x="362.75" y="-58.55" font-family="Arial" font-size="11.00" fill="white">Build Tools</text>
<text xml:space="preserve" text-anchor="middle" x="362.75" y="-45.05" font-family="Arial" font-size="11.00" fill="white">Webpack, Vite</text>
<text xml:space="preserve" text-anchor="middle" x="362.75" y="-31.55" font-family="Arial" font-size="11.00" fill="white">esbuild, etc.</text>
</g>
<!-- tsgo&#45;&gt;build -->
<g id="edge3" class="edge">
<title>tsgo&#45;&gt;build</title>
<path fill="none" stroke="#ff9800" stroke-width="2" d="M337.34,-143.44C337.34,-143.44 337.34,-86.28 337.34,-86.28"/>
<polygon fill="#ff9800" stroke="#ff9800" stroke-width="2" points="340.84,-86.28 337.34,-76.28 333.84,-86.28 340.84,-86.28"/>
</g>
<!-- cicd -->
<g id="node5" class="node">
<title>cicd</title>
<path fill="#9c27b0" stroke="black" d="M517.38,-73C517.38,-73 454.12,-73 454.12,-73 448.12,-73 442.12,-67 442.12,-61 442.12,-61 442.12,-36.5 442.12,-36.5 442.12,-30.5 448.12,-24.5 454.12,-24.5 454.12,-24.5 517.38,-24.5 517.38,-24.5 523.38,-24.5 529.38,-30.5 529.38,-36.5 529.38,-36.5 529.38,-61 529.38,-61 529.38,-67 523.38,-73 517.38,-73"/>
<text xml:space="preserve" text-anchor="middle" x="485.75" y="-58.55" font-family="Arial" font-size="11.00" fill="white">CI/CD</text>
<text xml:space="preserve" text-anchor="middle" x="485.75" y="-45.05" font-family="Arial" font-size="11.00" fill="white">GitHub Actions</text>
<text xml:space="preserve" text-anchor="middle" x="485.75" y="-31.55" font-family="Arial" font-size="11.00" fill="white">Faster builds</text>
</g>
<!-- tsgo&#45;&gt;cicd -->
<g id="edge4" class="edge">
<title>tsgo&#45;&gt;cicd</title>
<path fill="none" stroke="#9c27b0" stroke-width="2" d="M355.23,-170.5C412.8,-170.5 485.75,-170.5 485.75,-170.5 485.75,-170.5 485.75,-86.42 485.75,-86.42"/>
<polygon fill="#9c27b0" stroke="#9c27b0" stroke-width="2" points="489.25,-86.41 485.75,-76.42 482.25,-86.42 489.25,-86.41"/>
</g>
</g>
</svg>
