<?xml version="1.0" encoding="UTF-8" standalone="no"?>
<!DOCTYPE svg PUBLIC "-//W3C//DTD SVG 1.1//EN"
 "http://www.w3.org/Graphics/SVG/1.1/DTD/svg11.dtd">
<!-- Generated by graphviz version 14.1.2 (0)
 -->
<!-- Title: typescript&#45;go&#45;performance Pages: 1 -->
<svg width="1748pt" height="163pt"
 viewBox="0.00 0.00 1748.00 163.00" xmlns="http://www.w3.org/2000/svg" xmlns:xlink="http://www.w3.org/1999/xlink">
<style>
<!-- White text halo for edge label readability -->
text { paint-order: stroke; stroke: #ffffff; stroke-width: 3px; stroke-linejoin: round; fill: #1a1a2e; }
</style>
<g id="graph0" class="graph" transform="scale(1 1) rotate(0) translate(4 158.5)">
<title>typescript&#45;go&#45;performance</title>
<polygon fill="white" stroke="none" points="-4,4 -4,-158.5 1743.62,-158.5 1743.62,4 -4,4"/>
<text xml:space="preserve" text-anchor="middle" x="869.81" y="-7.2" font-family="Times New Roman,serif" font-size="14.00">TypeScript 7 Performance Advantages</text>
<!-- ts6 -->
<g id="node1" class="node">
<title>ts6</title>
<path fill="#3178c6" stroke="black" d="M553.62,-154.5C553.62,-154.5 426.62,-154.5 426.62,-154.5 420.62,-154.5 414.62,-148.5 414.62,-142.5 414.62,-142.5 414.62,-130.5 414.62,-130.5 414.62,-124.5 420.62,-118.5 426.62,-118.5 426.62,-118.5 553.62,-118.5 553.62,-118.5 559.62,-118.5 565.62,-124.5 565.62,-130.5 565.62,-130.5 565.62,-142.5 565.62,-142.5 565.62,-148.5 559.62,-154.5 553.62,-154.5"/>
<text xml:space="preserve" text-anchor="middle" x="490.12" y="-132.22" font-family="Arial Bold" font-size="12.00" fill="white">TypeScript 6.x (Node.js)</text>
</g>
<!-- ts6_runtime -->
<g id="node2" class="node">
<title>ts6_runtime</title>
<path fill="#2196f3" stroke="black" d="M162.25,-60.5C162.25,-60.5 12,-60.5 12,-60.5 6,-60.5 0,-54.5 0,-48.5 0,-48.5 0,-36.5 0,-36.5 0,-30.5 6,-24.5 12,-24.5 12,-24.5 162.25,-24.5 162.25,-24.5 168.25,-24.5 174.25,-30.5 174.25,-36.5 174.25,-36.5 174.25,-48.5 174.25,-48.5 174.25,-54.5 168.25,-60.5 162.25,-60.5"/>
<text xml:space="preserve" text-anchor="middle" x="87.12" y="-38.23" font-family="Arial Bold" font-size="12.00" fill="white">Runtime: Node.js V8 engine</text>
</g>
<!-- ts6&#45;&gt;ts6_runtime -->
<g id="edge1" class="edge">
<title>ts6&#45;&gt;ts6_runtime</title>
<path fill="none" stroke="#3178c6" stroke-width="2" d="M414.32,-142.5C297.58,-142.5 87.12,-142.5 87.12,-142.5 87.12,-142.5 87.12,-73.87 87.12,-73.87"/>
<polygon fill="#3178c6" stroke="#3178c6" stroke-width="2" points="90.63,-73.87 87.13,-63.87 83.63,-73.87 90.63,-73.87"/>
</g>
<!-- ts6_startup -->
<g id="node3" class="node">
<title>ts6_startup</title>
<path fill="#2196f3" stroke="black" d="M365.5,-60.5C365.5,-60.5 222.75,-60.5 222.75,-60.5 216.75,-60.5 210.75,-54.5 210.75,-48.5 210.75,-48.5 210.75,-36.5 210.75,-36.5 210.75,-30.5 216.75,-24.5 222.75,-24.5 222.75,-24.5 365.5,-24.5 365.5,-24.5 371.5,-24.5 377.5,-30.5 377.5,-36.5 377.5,-36.5 377.5,-48.5 377.5,-48.5 377.5,-54.5 371.5,-60.5 365.5,-60.5"/>
<text xml:space="preserve" text-anchor="middle" x="294.12" y="-38.23" font-family="Arial Bold" font-size="12.00" fill="white">Startup: Slow (V8 warmup)</text>
</g>
<!-- ts6&#45;&gt;ts6_startup -->
<g id="edge2" class="edge">
<title>ts6&#45;&gt;ts6_startup</title>
<path fill="none" stroke="#3178c6" stroke-width="2" d="M414.35,-130.5C359.19,-130.5 294.12,-130.5 294.12,-130.5 294.12,-130.5 294.12,-73.76 294.12,-73.76"/>
<polygon fill="#3178c6" stroke="#3178c6" stroke-width="2" points="297.63,-73.76 294.13,-63.76 290.63,-73.76 297.63,-73.76"/>
</g>
<!-- ts6_memory -->
<g id="node4" class="node">
<title>ts6_memory</title>
<path fill="#2196f3" stroke="black" d="M554.38,-60.5C554.38,-60.5 425.88,-60.5 425.88,-60.5 419.88,-60.5 413.88,-54.5 413.88,-48.5 413.88,-48.5 413.88,-36.5 413.88,-36.5 413.88,-30.5 419.88,-24.5 425.88,-24.5 425.88,-24.5 554.38,-24.5 554.38,-24.5 560.38,-24.5 566.38,-30.5 566.38,-36.5 566.38,-36.5 566.38,-48.5 566.38,-48.5 566.38,-54.5 560.38,-60.5 554.38,-60.5"/>
<text xml:space="preserve" text-anchor="middle" x="490.12" y="-38.23" font-family="Arial Bold" font-size="12.00" fill="white">Memory: High (V8 heap)</text>
</g>
<!-- ts6&#45;&gt;ts6_memory -->
<g id="edge3" class="edge">
<title>ts6&#45;&gt;ts6_memory</title>
<path fill="none" stroke="#3178c6" stroke-width="2" d="M490.12,-118.38C490.12,-118.38 490.12,-73.92 490.12,-73.92"/>
<polygon fill="#3178c6" stroke="#3178c6" stroke-width="2" points="493.63,-73.92 490.13,-63.92 486.63,-73.92 493.63,-73.92"/>
</g>
<!-- ts6_parallel -->
<g id="node5" class="node">
<title>ts6_parallel</title>
<path fill="#2196f3" stroke="black" d="M766,-60.5C766,-60.5 614.25,-60.5 614.25,-60.5 608.25,-60.5 602.25,-54.5 602.25,-48.5 602.25,-48.5 602.25,-36.5 602.25,-36.5 602.25,-30.5 608.25,-24.5 614.25,-24.5 614.25,-24.5 766,-24.5 766,-24.5 772,-24.5 778,-30.5 778,-36.5 778,-36.5 778,-48.5 778,-48.5 778,-54.5 772,-60.5 766,-60.5"/>
<text xml:space="preserve" text-anchor="middle" x="690.12" y="-38.23" font-family="Arial Bold" font-size="12.00" fill="white">Parallelism: Single&#45;threaded</text>
</g>
<!-- ts6&#45;&gt;ts6_parallel -->
<g id="edge4" class="edge">
<title>ts6&#45;&gt;ts6_parallel</title>
<path fill="none" stroke="#3178c6" stroke-width="2" d="M566.02,-127.5C622.6,-127.5 690.12,-127.5 690.12,-127.5 690.12,-127.5 690.12,-73.97 690.12,-73.97"/>
<polygon fill="#3178c6" stroke="#3178c6" stroke-width="2" points="693.63,-73.97 690.13,-63.97 686.63,-73.97 693.63,-73.97"/>
</g>
<!-- ts6_binary -->
<g id="node6" class="node">
<title>ts6_binary</title>
<path fill="#2196f3" stroke="black" d="M960.38,-60.5C960.38,-60.5 825.88,-60.5 825.88,-60.5 819.88,-60.5 813.88,-54.5 813.88,-48.5 813.88,-48.5 813.88,-36.5 813.88,-36.5 813.88,-30.5 819.88,-24.5 825.88,-24.5 825.88,-24.5 960.38,-24.5 960.38,-24.5 966.38,-24.5 972.38,-30.5 972.38,-36.5 972.38,-36.5 972.38,-48.5 972.38,-48.5 972.38,-54.5 966.38,-60.5 960.38,-60.5"/>
<text xml:space="preserve" text-anchor="middle" x="893.12" y="-38.23" font-family="Arial Bold" font-size="12.00" fill="white">Binary: Requires Node.js</text>
</g>
<!-- ts6&#45;&gt;ts6_binary -->
<g id="edge5" class="edge">
<title>ts6&#45;&gt;ts6_binary</title>
<path fill="none" stroke="#3178c6" stroke-width="2" d="M565.93,-145.5C682.67,-145.5 893.12,-145.5 893.12,-145.5 893.12,-145.5 893.12,-73.94 893.12,-73.94"/>
<polygon fill="#3178c6" stroke="#3178c6" stroke-width="2" points="896.63,-73.94 893.13,-63.94 889.63,-73.94 896.63,-73.94"/>
</g>
<!-- ts7 -->
<g id="node7" class="node">
<title>ts7</title>
<path fill="#00add8" stroke="black" d="M1430.75,-154.5C1430.75,-154.5 1301.5,-154.5 1301.5,-154.5 1295.5,-154.5 1289.5,-148.5 1289.5,-142.5 1289.5,-142.5 1289.5,-130.5 1289.5,-130.5 1289.5,-124.5 1295.5,-118.5 1301.5,-118.5 1301.5,-118.5 1430.75,-118.5 1430.75,-118.5 1436.75,-118.5 1442.75,-124.5 1442.75,-130.5 1442.75,-130.5 1442.75,-142.5 1442.75,-142.5 1442.75,-148.5 1436.75,-154.5 1430.75,-154.5"/>
<text xml:space="preserve" text-anchor="middle" x="1366.12" y="-132.22" font-family="Arial Bold" font-size="12.00" fill="white">TypeScript 7 (Go Native)</text>
</g>
<!-- ts7_runtime -->
<g id="node8" class="node">
<title>ts7_runtime</title>
<path fill="#4caf50" stroke="black" d="M1125.75,-60.5C1125.75,-60.5 1020.5,-60.5 1020.5,-60.5 1014.5,-60.5 1008.5,-54.5 1008.5,-48.5 1008.5,-48.5 1008.5,-36.5 1008.5,-36.5 1008.5,-30.5 1014.5,-24.5 1020.5,-24.5 1020.5,-24.5 1125.75,-24.5 1125.75,-24.5 1131.75,-24.5 1137.75,-30.5 1137.75,-36.5 1137.75,-36.5 1137.75,-48.5 1137.75,-48.5 1137.75,-54.5 1131.75,-60.5 1125.75,-60.5"/>
<text xml:space="preserve" text-anchor="middle" x="1073.12" y="-39" font-family="Arial" font-size="10.00" fill="white">Runtime: Compiled binary</text>
</g>
<!-- ts7&#45;&gt;ts7_runtime -->
<g id="edge6" class="edge">
<title>ts7&#45;&gt;ts7_runtime</title>
<path fill="none" stroke="#00add8" stroke-width="2" d="M1289.14,-136.5C1202.33,-136.5 1073.12,-136.5 1073.12,-136.5 1073.12,-136.5 1073.12,-73.65 1073.12,-73.65"/>
<polygon fill="#00add8" stroke="#00add8" stroke-width="2" points="1076.63,-73.65 1073.13,-63.65 1069.63,-73.65 1076.63,-73.65"/>
</g>
<!-- ts7_startup -->
<g id="node9" class="node">
<title>ts7_startup</title>
<path fill="#4caf50" stroke="black" d="M1266.75,-60.5C1266.75,-60.5 1185.5,-60.5 1185.5,-60.5 1179.5,-60.5 1173.5,-54.5 1173.5,-48.5 1173.5,-48.5 1173.5,-36.5 1173.5,-36.5 1173.5,-30.5 1179.5,-24.5 1185.5,-24.5 1185.5,-24.5 1266.75,-24.5 1266.75,-24.5 1272.75,-24.5 1278.75,-30.5 1278.75,-36.5 1278.75,-36.5 1278.75,-48.5 1278.75,-48.5 1278.75,-54.5 1272.75,-60.5 1266.75,-60.5"/>
<text xml:space="preserve" text-anchor="middle" x="1226.12" y="-39" font-family="Arial" font-size="10.00" fill="white">Startup: 5&#45;10x faster</text>
</g>
<!-- ts7&#45;&gt;ts7_startup -->
<g id="edge7" class="edge">
<title>ts7&#45;&gt;ts7_startup</title>
<path fill="none" stroke="#00add8" stroke-width="2" d="M1302.25,-118.38C1302.25,-91.06 1302.25,-42.5 1302.25,-42.5 1302.25,-42.5 1292.02,-42.5 1292.02,-42.5"/>
<polygon fill="#00add8" stroke="#00add8" stroke-width="2" points="1292.02,-39 1282.02,-42.5 1292.02,-46 1292.02,-39"/>
</g>
<!-- ts7_memory -->
<g id="node10" class="node">
<title>ts7_memory</title>
<path fill="#4caf50" stroke="black" d="M1405.25,-60.5C1405.25,-60.5 1327,-60.5 1327,-60.5 1321,-60.5 1315,-54.5 1315,-48.5 1315,-48.5 1315,-36.5 1315,-36.5 1315,-30.5 1321,-24.5 1327,-24.5 1327,-24.5 1405.25,-24.5 1405.25,-24.5 1411.25,-24.5 1417.25,-30.5 1417.25,-36.5 1417.25,-36.5 1417.25,-48.5 1417.25,-48.5 1417.25,-54.5 1411.25,-60.5 1405.25,-60.5"/>
<text xml:space="preserve" text-anchor="middle" x="1366.12" y="-39" font-family="Arial" font-size="10.00" fill="white">Memory: 3&#45;5x lower</text>
</g>
<!-- ts7&#45;&gt;ts7_memory -->
<g id="edge8" class="edge">
<title>ts7&#45;&gt;ts7_memory</title>
<path fill="none" stroke="#00add8" stroke-width="2" d="M1366.12,-118.38C1366.12,-118.38 1366.12,-73.92 1366.12,-73.92"/>
<polygon fill="#00add8" stroke="#00add8" stroke-width="2" points="1369.63,-73.92 1366.13,-63.92 1362.63,-73.92 1369.63,-73.92"/>
</g>
<!-- ts7_parallel -->
<g id="node11" class="node">
<title>ts7_parallel</title>
<path fill="#4caf50" stroke="black" d="M1558.75,-60.5C1558.75,-60.5 1465.5,-60.5 1465.5,-60.5 1459.5,-60.5 1453.5,-54.5 1453.5,-48.5 1453.5,-48.5 1453.5,-36.5 1453.5,-36.5 1453.5,-30.5 1459.5,-24.5 1465.5,-24.5 1465.5,-24.5 1558.75,-24.5 1558.75,-24.5 1564.75,-24.5 1570.75,-30.5 1570.75,-36.5 1570.75,-36.5 1570.75,-48.5 1570.75,-48.5 1570.75,-54.5 1564.75,-60.5 1558.75,-60.5"/>
<text xml:space="preserve" text-anchor="middle" x="1512.12" y="-39" font-family="Arial" font-size="10.00" fill="white">Parallelism: Goroutines</text>
</g>
<!-- ts7&#45;&gt;ts7_parallel -->
<g id="edge9" class="edge">
<title>ts7&#45;&gt;ts7_parallel</title>
<path fill="none" stroke="#00add8" stroke-width="2" d="M1430,-118.38C1430,-91.06 1430,-42.5 1430,-42.5 1430,-42.5 1440.29,-42.5 1440.29,-42.5"/>
<polygon fill="#00add8" stroke="#00add8" stroke-width="2" points="1440.29,-46 1450.29,-42.5 1440.29,-39 1440.29,-46"/>
</g>
<!-- ts7_binary -->
<g id="node12" class="node">
<title>ts7_binary</title>
<path fill="#4caf50" stroke="black" d="M1727.62,-60.5C1727.62,-60.5 1618.62,-60.5 1618.62,-60.5 1612.62,-60.5 1606.62,-54.5 1606.62,-48.5 1606.62,-48.5 1606.62,-36.5 1606.62,-36.5 1606.62,-30.5 1612.62,-24.5 1618.62,-24.5 1618.62,-24.5 1727.62,-24.5 1727.62,-24.5 1733.62,-24.5 1739.62,-30.5 1739.62,-36.5 1739.62,-36.5 1739.62,-48.5 1739.62,-48.5 1739.62,-54.5 1733.62,-60.5 1727.62,-60.5"/>
<text xml:space="preserve" text-anchor="middle" x="1673.12" y="-39" font-family="Arial" font-size="10.00" fill="white">Binary: Single static binary</text>
</g>
<!-- ts7&#45;&gt;ts7_binary -->
<g id="edge10" class="edge">
<title>ts7&#45;&gt;ts7_binary</title>
<path fill="none" stroke="#00add8" stroke-width="2" d="M1443.2,-136.5C1534.14,-136.5 1673.12,-136.5 1673.12,-136.5 1673.12,-136.5 1673.12,-73.65 1673.12,-73.65"/>
<polygon fill="#00add8" stroke="#00add8" stroke-width="2" points="1676.63,-73.65 1673.13,-63.65 1669.63,-73.65 1676.63,-73.65"/>
</g>
</g>
</svg>
