<?xml version="1.0" encoding="UTF-8" standalone="no"?>
<!DOCTYPE svg PUBLIC "-//W3C//DTD SVG 1.1//EN"
 "http://www.w3.org/Graphics/SVG/1.1/DTD/svg11.dtd">
<!-- Generated by graphviz version 14.1.2 (0)
 -->
<!-- Title: G Pages: 1 -->
<svg><style>
    text { paint-order: stroke fill; stroke: #0d1117; stroke-width: 3px; stroke-linejoin: round; }
    </style> width="505pt" height="776pt"
 viewBox="0.00 0.00 505.00 776.00" xmlns="http://www.w3.org/2000/svg" xmlns:xlink="http://www.w3.org/1999/xlink">
<g id="graph0" class="graph" transform="scale(1 1) rotate(0) translate(28.8 746.8)">
<title>G</title>
<polygon fill="#0d1117" stroke="none" points="-28.8,28.8 -28.8,-746.8 476.05,-746.8 476.05,28.8 -28.8,28.8"/>
<!-- title -->
<g id="node1" class="node">
<title>title</title>
<polygon fill="lightgrey" stroke="none" points="447.25,-718 0,-718 0,-680 447.25,-680 447.25,-718"/>
<text xml:space="preserve" text-anchor="middle" x="223.62" y="-693.1" font-family="Segoe UI Bold, Arial, sans-serif" font-size="22.00" fill="#e6edf3">Future AGI — Self&#45;Improving Feedback Loop</text>
</g>
<!-- deploy -->
<g id="node2" class="node">
<title>deploy</title>
<path fill="#161b22" stroke="#58a6ff" stroke-width="2" d="M251.12,-635C251.12,-635 196.12,-635 196.12,-635 190.12,-635 184.12,-629 184.12,-623 184.12,-623 184.12,-585 184.12,-585 184.12,-579 190.12,-573 196.12,-573 196.12,-573 251.12,-573 251.12,-573 257.12,-573 263.12,-579 263.12,-585 263.12,-585 263.12,-623 263.12,-623 263.12,-629 257.12,-635 251.12,-635"/>
<text xml:space="preserve" text-anchor="middle" x="223.62" y="-618.65" font-family="Segoe UI, Arial, sans-serif" font-size="13.00" fill="#e6edf3">1. Deploy</text>
<text xml:space="preserve" text-anchor="middle" x="223.62" y="-600.65" font-family="Segoe UI, Arial, sans-serif" font-size="13.00" fill="#e6edf3">Agent to</text>
<text xml:space="preserve" text-anchor="middle" x="223.62" y="-582.65" font-family="Segoe UI, Arial, sans-serif" font-size="13.00" fill="#e6edf3">Production</text>
</g>
<!-- title&#45;&gt;deploy -->
<!-- monitor -->
<g id="node3" class="node">
<title>monitor</title>
<path fill="#161b22" stroke="#79c0ff" stroke-width="2" d="M206.12,-528C206.12,-528 127.12,-528 127.12,-528 121.12,-528 115.12,-522 115.12,-516 115.12,-516 115.12,-478 115.12,-478 115.12,-472 121.12,-466 127.12,-466 127.12,-466 206.12,-466 206.12,-466 212.12,-466 218.12,-472 218.12,-478 218.12,-478 218.12,-516 218.12,-516 218.12,-522 212.12,-528 206.12,-528"/>
<text xml:space="preserve" text-anchor="middle" x="166.62" y="-511.65" font-family="Segoe UI, Arial, sans-serif" font-size="13.00" fill="#e6edf3">2. Monitor</text>
<text xml:space="preserve" text-anchor="middle" x="166.62" y="-493.65" font-family="Segoe UI, Arial, sans-serif" font-size="13.00" fill="#e6edf3">OTel Traces</text>
<text xml:space="preserve" text-anchor="middle" x="166.62" y="-475.65" font-family="Segoe UI, Arial, sans-serif" font-size="13.00" fill="#e6edf3">Cost &amp; Latency</text>
</g>
<!-- deploy&#45;&gt;monitor -->
<g id="edge1" class="edge">
<title>deploy&#45;&gt;monitor</title>
<path fill="none" stroke="#58a6ff" d="M201.12,-572.19C201.12,-572.19 201.12,-540.39 201.12,-540.39"/>
<polygon fill="#58a6ff" stroke="#58a6ff" points="204.63,-540.39 201.13,-530.39 197.63,-540.39 204.63,-540.39"/>
</g>
<!-- evaluate -->
<g id="node4" class="node">
<title>evaluate</title>
<path fill="#161b22" stroke="#3fb950" stroke-width="2" d="M210.5,-421C210.5,-421 94.75,-421 94.75,-421 88.75,-421 82.75,-415 82.75,-409 82.75,-409 82.75,-371 82.75,-371 82.75,-365 88.75,-359 94.75,-359 94.75,-359 210.5,-359 210.5,-359 216.5,-359 222.5,-365 222.5,-371 222.5,-371 222.5,-409 222.5,-409 222.5,-415 216.5,-421 210.5,-421"/>
<text xml:space="preserve" text-anchor="middle" x="152.62" y="-404.65" font-family="Segoe UI, Arial, sans-serif" font-size="13.00" fill="#e6edf3">3. Evaluate</text>
<text xml:space="preserve" text-anchor="middle" x="152.62" y="-386.65" font-family="Segoe UI, Arial, sans-serif" font-size="13.00" fill="#e6edf3">50+ Metrics</text>
<text xml:space="preserve" text-anchor="middle" x="152.62" y="-368.65" font-family="Segoe UI, Arial, sans-serif" font-size="13.00" fill="#e6edf3">Hallucination &amp; More</text>
</g>
<!-- monitor&#45;&gt;evaluate -->
<g id="edge2" class="edge">
<title>monitor&#45;&gt;evaluate</title>
<path fill="none" stroke="#79c0ff" d="M166.62,-465.19C166.62,-465.19 166.62,-433.39 166.62,-433.39"/>
<polygon fill="#79c0ff" stroke="#79c0ff" points="170.13,-433.39 166.63,-423.39 163.13,-433.39 170.13,-433.39"/>
</g>
<!-- simulate -->
<g id="node5" class="node">
<title>simulate</title>
<path fill="#161b22" stroke="#ffa657" stroke-width="2" d="M192.12,-276C192.12,-276 113.12,-276 113.12,-276 107.12,-276 101.12,-270 101.12,-264 101.12,-264 101.12,-226 101.12,-226 101.12,-220 107.12,-214 113.12,-214 113.12,-214 192.12,-214 192.12,-214 198.12,-214 204.12,-220 204.12,-226 204.12,-226 204.12,-264 204.12,-264 204.12,-270 198.12,-276 192.12,-276"/>
<text xml:space="preserve" text-anchor="middle" x="152.62" y="-259.65" font-family="Segoe UI, Arial, sans-serif" font-size="13.00" fill="#e6edf3">4. Simulate</text>
<text xml:space="preserve" text-anchor="middle" x="152.62" y="-241.65" font-family="Segoe UI, Arial, sans-serif" font-size="13.00" fill="#e6edf3">Persona&#45;Driven</text>
<text xml:space="preserve" text-anchor="middle" x="152.62" y="-223.65" font-family="Segoe UI, Arial, sans-serif" font-size="13.00" fill="#e6edf3">Edge Cases</text>
</g>
<!-- evaluate&#45;&gt;simulate -->
<g id="edge3" class="edge">
<title>evaluate&#45;&gt;simulate</title>
<path fill="none" stroke="#3fb950" d="M152.62,-358.18C152.62,-358.18 152.62,-288.26 152.62,-288.26"/>
<polygon fill="#3fb950" stroke="#3fb950" points="156.13,-288.26 152.63,-278.26 149.13,-288.26 156.13,-288.26"/>
</g>
<!-- optimize -->
<g id="node6" class="node">
<title>optimize</title>
<path fill="#161b22" stroke="#d2a8ff" stroke-width="2" d="M210.5,-169C210.5,-169 94.75,-169 94.75,-169 88.75,-169 82.75,-163 82.75,-157 82.75,-157 82.75,-119 82.75,-119 82.75,-113 88.75,-107 94.75,-107 94.75,-107 210.5,-107 210.5,-107 216.5,-107 222.5,-113 222.5,-119 222.5,-119 222.5,-157 222.5,-157 222.5,-163 216.5,-169 210.5,-169"/>
<text xml:space="preserve" text-anchor="middle" x="152.62" y="-152.65" font-family="Segoe UI, Arial, sans-serif" font-size="13.00" fill="#e6edf3">5. Optimize</text>
<text xml:space="preserve" text-anchor="middle" x="152.62" y="-134.65" font-family="Segoe UI, Arial, sans-serif" font-size="13.00" fill="#e6edf3">6 Algorithms</text>
<text xml:space="preserve" text-anchor="middle" x="152.62" y="-116.65" font-family="Segoe UI, Arial, sans-serif" font-size="13.00" fill="#e6edf3">GEPA · PromptWizard</text>
</g>
<!-- simulate&#45;&gt;optimize -->
<g id="edge4" class="edge">
<title>simulate&#45;&gt;optimize</title>
<path fill="none" stroke="#ffa657" d="M152.62,-213.19C152.62,-213.19 152.62,-181.39 152.62,-181.39"/>
<polygon fill="#ffa657" stroke="#ffa657" points="156.13,-181.39 152.63,-171.39 149.13,-181.39 156.13,-181.39"/>
</g>
<!-- protect -->
<g id="node7" class="node">
<title>protect</title>
<path fill="#161b22" stroke="#f78166" stroke-width="2" d="M257.12,-62C257.12,-62 172.12,-62 172.12,-62 166.12,-62 160.12,-56 160.12,-50 160.12,-50 160.12,-12 160.12,-12 160.12,-6 166.12,0 172.12,0 172.12,0 257.12,0 257.12,0 263.12,0 269.12,-6 269.12,-12 269.12,-12 269.12,-50 269.12,-50 269.12,-56 263.12,-62 257.12,-62"/>
<text xml:space="preserve" text-anchor="middle" x="214.62" y="-45.65" font-family="Segoe UI, Arial, sans-serif" font-size="13.00" fill="#e6edf3">6. Protect</text>
<text xml:space="preserve" text-anchor="middle" x="214.62" y="-27.65" font-family="Segoe UI, Arial, sans-serif" font-size="13.00" fill="#e6edf3">18 Scanners</text>
<text xml:space="preserve" text-anchor="middle" x="214.62" y="-9.65" font-family="Segoe UI, Arial, sans-serif" font-size="13.00" fill="#e6edf3">Guardrails Inline</text>
</g>
<!-- optimize&#45;&gt;protect -->
<g id="edge5" class="edge">
<title>optimize&#45;&gt;protect</title>
<path fill="none" stroke="#d2a8ff" d="M191.31,-106.19C191.31,-106.19 191.31,-74.39 191.31,-74.39"/>
<polygon fill="#d2a8ff" stroke="#d2a8ff" points="194.81,-74.39 191.31,-64.39 187.81,-74.39 194.81,-74.39"/>
</g>
<!-- protect&#45;&gt;deploy -->
<g id="edge6" class="edge">
<title>protect&#45;&gt;deploy</title>
<path fill="none" stroke="#f78166" stroke-dasharray="5,2" d="M242.81,-62.62C242.81,-62.62 242.81,-560.61 242.81,-560.61"/>
<polygon fill="#f78166" stroke="#f78166" points="239.31,-560.61 242.81,-570.61 246.31,-560.61 239.31,-560.61"/>
<text xml:space="preserve" text-anchor="middle" x="307.25" y="-323.7" font-family="Segoe UI, Arial, sans-serif" font-size="14.00" fill="#8b949e">improved</text>
<text xml:space="preserve" text-anchor="middle" x="307.25" y="-304.2" font-family="Segoe UI, Arial, sans-serif" font-size="14.00" fill="#8b949e">agent</text>
</g>
</g>
</svg>
