<svg xmlns="http://www.w3.org/2000/svg" viewBox="0 0 860 430" width="860" height="430" font-family="-apple-system, 'Segoe UI', Inter, sans-serif">
<style>
  .title { font-size: 20px; font-weight: 700; fill: #0f172a; }
  .band-label { font-size: 13px; font-weight: 700; fill: #1e40af; letter-spacing:0.3px; }
  .node-title { font-size: 14px; font-weight: 700; fill: #0f172a; }
  .node-title-w { font-size: 14px; font-weight: 700; fill: #ffffff; }
  .item { font-size: 12px; font-weight: 400; fill: #0f172a; }
  .item-sub { font-size: 11px; font-weight: 400; fill: #475569; }
  .stage { font-size: 15px; font-weight: 700; fill: #ffffff; }
  .stage-sub { font-size: 11px; font-weight: 400; fill: #e0e7ff; }
  .note { font-size: 12px; font-weight: 400; fill: #1e40af; }
</style>
<defs>
  <marker id="arrow" markerWidth="10" markerHeight="10" refX="8" refY="5" markerUnits="strokeWidth" orient="auto">
    <path d="M0,1 L8,5 L0,9 z" fill="#475569"/>
  </marker>
  <marker id="arrow-accent" markerWidth="10" markerHeight="10" refX="8" refY="5" markerUnits="strokeWidth" orient="auto">
    <path d="M0,1 L8,5 L0,9 z" fill="#2563eb"/>
  </marker>
</defs>
<rect width="860" height="430" fill="#ffffff"/>
<text x="320" y="38" text-anchor="middle" class="title">Extractors: How Axum Reads Requests</text>
<rect x="40" y="70" width="780" height="36" rx="12" fill="#f8fafc" stroke="#e2e8f0" stroke-width="1"/>
<rect x="54" y="72" width="180" height="30" rx="8" fill="#1e40af"/>
<text x="144" y="92" text-anchor="middle" class="node-title-w">State&lt;T&gt;</text>
<rect x="250" y="72" width="560" height="30" rx="8" fill="#ffffff" stroke="#cbd5e1" stroke-width="1"/>
<text x="530" y="92" text-anchor="middle" class="item">shared app state (DB pool, config)</text>
<rect x="40" y="114" width="780" height="36" rx="12" fill="#f1f5f9" stroke="#e2e8f0" stroke-width="1"/>
<rect x="54" y="116" width="180" height="30" rx="8" fill="#2563eb"/>
<text x="144" y="136" text-anchor="middle" class="node-title-w">Path&lt;T&gt;</text>
<rect x="250" y="116" width="560" height="30" rx="8" fill="#ffffff" stroke="#cbd5e1" stroke-width="1"/>
<text x="530" y="136" text-anchor="middle" class="item">URL path params: /users/:id -&gt; id: u64</text>
<rect x="40" y="158" width="780" height="36" rx="12" fill="#f8fafc" stroke="#e2e8f0" stroke-width="1"/>
<rect x="54" y="160" width="180" height="30" rx="8" fill="#1e40af"/>
<text x="144" y="180" text-anchor="middle" class="node-title-w">Query&lt;T&gt;</text>
<rect x="250" y="160" width="560" height="30" rx="8" fill="#ffffff" stroke="#cbd5e1" stroke-width="1"/>
<text x="530" y="180" text-anchor="middle" class="item">query string: ?page=1&amp;limit=10</text>
<rect x="40" y="202" width="780" height="36" rx="12" fill="#f1f5f9" stroke="#e2e8f0" stroke-width="1"/>
<rect x="54" y="204" width="180" height="30" rx="8" fill="#2563eb"/>
<text x="144" y="224" text-anchor="middle" class="node-title-w">Json&lt;T&gt;</text>
<rect x="250" y="204" width="560" height="30" rx="8" fill="#ffffff" stroke="#cbd5e1" stroke-width="1"/>
<text x="530" y="224" text-anchor="middle" class="item">deserialize JSON body via serde</text>
<rect x="40" y="246" width="780" height="36" rx="12" fill="#f8fafc" stroke="#e2e8f0" stroke-width="1"/>
<rect x="54" y="248" width="180" height="30" rx="8" fill="#1e40af"/>
<text x="144" y="268" text-anchor="middle" class="node-title-w">Form&lt;T&gt;</text>
<rect x="250" y="248" width="560" height="30" rx="8" fill="#ffffff" stroke="#cbd5e1" stroke-width="1"/>
<text x="530" y="268" text-anchor="middle" class="item">URL-encoded form body</text>
<rect x="40" y="290" width="780" height="36" rx="12" fill="#f1f5f9" stroke="#e2e8f0" stroke-width="1"/>
<rect x="54" y="292" width="180" height="30" rx="8" fill="#2563eb"/>
<text x="144" y="312" text-anchor="middle" class="node-title-w">Header&lt;T&gt;</text>
<rect x="250" y="292" width="560" height="30" rx="8" fill="#ffffff" stroke="#cbd5e1" stroke-width="1"/>
<text x="530" y="312" text-anchor="middle" class="item">extract a specific header</text>
<rect x="40" y="334" width="780" height="36" rx="12" fill="#f8fafc" stroke="#e2e8f0" stroke-width="1"/>
<rect x="54" y="336" width="180" height="30" rx="8" fill="#1e40af"/>
<text x="144" y="356" text-anchor="middle" class="node-title-w">TypedHeader</text>
<rect x="250" y="336" width="560" height="30" rx="8" fill="#ffffff" stroke="#cbd5e1" stroke-width="1"/>
<text x="530" y="356" text-anchor="middle" class="item">typed headers via headers crate</text>
<rect x="40" y="378" width="780" height="36" rx="12" fill="#f1f5f9" stroke="#e2e8f0" stroke-width="1"/>
<rect x="54" y="380" width="180" height="30" rx="8" fill="#2563eb"/>
<text x="144" y="400" text-anchor="middle" class="node-title-w">Custom</text>
<rect x="250" y="380" width="560" height="30" rx="8" fill="#ffffff" stroke="#cbd5e1" stroke-width="1"/>
<text x="530" y="400" text-anchor="middle" class="item">implement FromRequestParts/Self</text>
<rect x="40" y="430" width="780" height="0" rx="12" fill="#dbeafe" stroke="#93c5fd" stroke-width="1"/>
</svg>
