<?xml version="1.0" encoding="UTF-8" standalone="no"?>
<!DOCTYPE svg PUBLIC "-//W3C//DTD SVG 1.1//EN"
 "http://www.w3.org/Graphics/SVG/1.1/DTD/svg11.dtd">
<!-- Generated by graphviz version 14.1.2 (0)
 -->
<!-- Title: G Pages: 1 -->
<svg width="1900pt" height="366pt"
 viewBox="0.00 0.00 1900.00 366.00" xmlns="http://www.w3.org/2000/svg" xmlns:xlink="http://www.w3.org/1999/xlink">
<g id="graph0" class="graph" transform="scale(1 1) rotate(0) translate(28.8 337.05)">
<title>G</title>
<polygon fill="white" stroke="none" points="-28.8,28.8 -28.8,-337.05 1871.55,-337.05 1871.55,28.8 -28.8,28.8"/>
<g id="clust1" class="cluster">
<title>cluster_fe</title>
<path fill="#e3f2fd" stroke="#37474f" d="M257.75,-224.5C257.75,-224.5 872.75,-224.5 872.75,-224.5 878.75,-224.5 884.75,-230.5 884.75,-236.5 884.75,-236.5 884.75,-288.25 884.75,-288.25 884.75,-294.25 878.75,-300.25 872.75,-300.25 872.75,-300.25 257.75,-300.25 257.75,-300.25 251.75,-300.25 245.75,-294.25 245.75,-288.25 245.75,-288.25 245.75,-236.5 245.75,-236.5 245.75,-230.5 251.75,-224.5 257.75,-224.5"/>
<text xml:space="preserve" text-anchor="middle" x="565.25" y="-282.95" font-family="Helvetica,sans-Serif" font-size="14.00" fill="#1a237e">Frontend Layer</text>
</g>
<g id="clust2" class="cluster">
<title>cluster_ef</title>
<path fill="#e8f5e9" stroke="#37474f" d="M677.75,-116.25C677.75,-116.25 1143.75,-116.25 1143.75,-116.25 1149.75,-116.25 1155.75,-122.25 1155.75,-128.25 1155.75,-128.25 1155.75,-180 1155.75,-180 1155.75,-186 1149.75,-192 1143.75,-192 1143.75,-192 677.75,-192 677.75,-192 671.75,-192 665.75,-186 665.75,-180 665.75,-180 665.75,-128.25 665.75,-128.25 665.75,-122.25 671.75,-116.25 677.75,-116.25"/>
<text xml:space="preserve" text-anchor="middle" x="910.75" y="-174.7" font-family="Helvetica,sans-Serif" font-size="14.00" fill="#1b5e20">Edge Functions (Vercel, 60+)</text>
</g>
<g id="clust3" class="cluster">
<title>cluster_ai</title>
<path fill="#fff3e0" stroke="#37474f" d="M803.75,-8C803.75,-8 1248.75,-8 1248.75,-8 1254.75,-8 1260.75,-14 1260.75,-20 1260.75,-20 1260.75,-71.75 1260.75,-71.75 1260.75,-77.75 1254.75,-83.75 1248.75,-83.75 1248.75,-83.75 803.75,-83.75 803.75,-83.75 797.75,-83.75 791.75,-77.75 791.75,-71.75 791.75,-71.75 791.75,-20 791.75,-20 791.75,-14 797.75,-8 803.75,-8"/>
<text xml:space="preserve" text-anchor="middle" x="1026.25" y="-66.45" font-family="Helvetica,sans-Serif" font-size="14.00" fill="#e65100">AI / ML Layer</text>
</g>
<g id="clust4" class="cluster">
<title>cluster_rw</title>
<path fill="#fffde7" stroke="#37474f" d="M911.75,-224.5C911.75,-224.5 1085.75,-224.5 1085.75,-224.5 1091.75,-224.5 1097.75,-230.5 1097.75,-236.5 1097.75,-236.5 1097.75,-288.25 1097.75,-288.25 1097.75,-294.25 1091.75,-300.25 1085.75,-300.25 1085.75,-300.25 911.75,-300.25 911.75,-300.25 905.75,-300.25 899.75,-294.25 899.75,-288.25 899.75,-288.25 899.75,-236.5 899.75,-236.5 899.75,-230.5 905.75,-224.5 911.75,-224.5"/>
<text xml:space="preserve" text-anchor="middle" x="998.75" y="-282.95" font-family="Helvetica,sans-Serif" font-size="14.00" fill="#f57f17">Railway Relay</text>
</g>
<g id="clust5" class="cluster">
<title>cluster_ds</title>
<path fill="#f3e5f5" stroke="#37474f" d="M1287.75,-8C1287.75,-8 1822.75,-8 1822.75,-8 1828.75,-8 1834.75,-14 1834.75,-20 1834.75,-20 1834.75,-71.75 1834.75,-71.75 1834.75,-77.75 1828.75,-83.75 1822.75,-83.75 1822.75,-83.75 1287.75,-83.75 1287.75,-83.75 1281.75,-83.75 1275.75,-77.75 1275.75,-71.75 1275.75,-71.75 1275.75,-20 1275.75,-20 1275.75,-14 1281.75,-8 1287.75,-8"/>
<text xml:space="preserve" text-anchor="middle" x="1555.25" y="-66.45" font-family="Helvetica,sans-Serif" font-size="14.00" fill="#4a148c">Data Sources</text>
</g>
<g id="clust6" class="cluster">
<title>cluster_ca</title>
<path fill="#f5f5f5" stroke="#37474f" d="M310.75,-8C310.75,-8 714.75,-8 714.75,-8 720.75,-8 726.75,-14 726.75,-20 726.75,-20 726.75,-71.75 726.75,-71.75 726.75,-77.75 720.75,-83.75 714.75,-83.75 714.75,-83.75 310.75,-83.75 310.75,-83.75 304.75,-83.75 298.75,-77.75 298.75,-71.75 298.75,-71.75 298.75,-20 298.75,-20 298.75,-14 304.75,-8 310.75,-8"/>
<text xml:space="preserve" text-anchor="middle" x="512.75" y="-66.45" font-family="Helvetica,sans-Serif" font-size="14.00" fill="#37474f">Caching Layer</text>
</g>
<g id="clust7" class="cluster">
<title>cluster_dk</title>
<path fill="#fce4ec" stroke="#37474f" d="M1124.75,-224.5C1124.75,-224.5 1494.75,-224.5 1494.75,-224.5 1500.75,-224.5 1506.75,-230.5 1506.75,-236.5 1506.75,-236.5 1506.75,-288.25 1506.75,-288.25 1506.75,-294.25 1500.75,-300.25 1494.75,-300.25 1494.75,-300.25 1124.75,-300.25 1124.75,-300.25 1118.75,-300.25 1112.75,-294.25 1112.75,-288.25 1112.75,-288.25 1112.75,-236.5 1112.75,-236.5 1112.75,-230.5 1118.75,-224.5 1124.75,-224.5"/>
<text xml:space="preserve" text-anchor="middle" x="1309.75" y="-282.95" font-family="Helvetica,sans-Serif" font-size="14.00" fill="#880e4f">Desktop</text>
</g>
<!-- __title__ -->
<g id="node1" class="node">
<title>__title__</title>
<text xml:space="preserve" text-anchor="middle" x="110.75" y="-245.07" font-family="Helvetica,sans-Serif" font-size="14.00" fill="#1a237e">WorldMonitor System Architecture</text>
</g>
<!-- fe1 -->
<g id="node2" class="node">
<title>fe1</title>
<path fill="#e3f2fd" stroke="#37474f" stroke-width="1.2" d="M537.25,-268.5C537.25,-268.5 428.25,-268.5 428.25,-268.5 422.25,-268.5 416.25,-262.5 416.25,-256.5 416.25,-256.5 416.25,-244.5 416.25,-244.5 416.25,-238.5 422.25,-232.5 428.25,-232.5 428.25,-232.5 537.25,-232.5 537.25,-232.5 543.25,-232.5 549.25,-238.5 549.25,-244.5 549.25,-244.5 549.25,-256.5 549.25,-256.5 549.25,-262.5 543.25,-268.5 537.25,-268.5"/>
<text xml:space="preserve" text-anchor="middle" x="482.75" y="-246.8" font-family="Helvetica,sans-Serif" font-size="11.00">Vanilla TypeScript + Vite</text>
</g>
<!-- ef1 -->
<g id="node6" class="node">
<title>ef1</title>
<path fill="#e8f5e9" stroke="#37474f" stroke-width="1.2" d="M1019.75,-160.25C1019.75,-160.25 943.75,-160.25 943.75,-160.25 937.75,-160.25 931.75,-154.25 931.75,-148.25 931.75,-148.25 931.75,-136.25 931.75,-136.25 931.75,-130.25 937.75,-124.25 943.75,-124.25 943.75,-124.25 1019.75,-124.25 1019.75,-124.25 1025.75,-124.25 1031.75,-130.25 1031.75,-136.25 1031.75,-136.25 1031.75,-148.25 1031.75,-148.25 1031.75,-154.25 1025.75,-160.25 1019.75,-160.25"/>
<text xml:space="preserve" text-anchor="middle" x="981.75" y="-138.55" font-family="Helvetica,sans-Serif" font-size="11.00">Data Aggregation</text>
</g>
<!-- fe1&#45;&gt;ef1 -->
<g id="edge1" class="edge">
<title>fe1&#45;&gt;ef1</title>
<path fill="none" stroke="#455a64" stroke-width="1.1" d="M526,-232.23C526,-220.71 526,-208 526,-208 526,-208 956.75,-208 956.75,-208 956.75,-208 956.75,-172.23 956.75,-172.23"/>
<polygon fill="#455a64" stroke="#455a64" stroke-width="1.1" points="960.25,-172.23 956.75,-162.23 953.25,-172.23 960.25,-172.23"/>
<text xml:space="preserve" text-anchor="middle" x="709.25" y="-201.95" font-family="Helvetica,sans-Serif" font-size="9.00" fill="#263238">calls via protobuf</text>
</g>
<!-- fe2 -->
<g id="node3" class="node">
<title>fe2</title>
<path fill="#e3f2fd" stroke="#37474f" stroke-width="1.2" d="M371.75,-268.5C371.75,-268.5 265.75,-268.5 265.75,-268.5 259.75,-268.5 253.75,-262.5 253.75,-256.5 253.75,-256.5 253.75,-244.5 253.75,-244.5 253.75,-238.5 259.75,-232.5 265.75,-232.5 265.75,-232.5 371.75,-232.5 371.75,-232.5 377.75,-232.5 383.75,-238.5 383.75,-244.5 383.75,-244.5 383.75,-256.5 383.75,-256.5 383.75,-262.5 377.75,-268.5 371.75,-268.5"/>
<text xml:space="preserve" text-anchor="middle" x="318.75" y="-246.8" font-family="Helvetica,sans-Serif" font-size="11.00">globe.gl + Three.js (3D)</text>
</g>
<!-- fe3 -->
<g id="node4" class="node">
<title>fe3</title>
<path fill="#e3f2fd" stroke="#37474f" stroke-width="1.2" d="M718.5,-268.5C718.5,-268.5 593,-268.5 593,-268.5 587,-268.5 581,-262.5 581,-256.5 581,-256.5 581,-244.5 581,-244.5 581,-238.5 587,-232.5 593,-232.5 593,-232.5 718.5,-232.5 718.5,-232.5 724.5,-232.5 730.5,-238.5 730.5,-244.5 730.5,-244.5 730.5,-256.5 730.5,-256.5 730.5,-262.5 724.5,-268.5 718.5,-268.5"/>
<text xml:space="preserve" text-anchor="middle" x="655.75" y="-246.8" font-family="Helvetica,sans-Serif" font-size="11.00">deck.gl + MapLibre GL (2D)</text>
</g>
<!-- fe4 -->
<g id="node5" class="node">
<title>fe4</title>
<path fill="#e3f2fd" stroke="#37474f" stroke-width="1.2" d="M864.5,-268.5C864.5,-268.5 775,-268.5 775,-268.5 769,-268.5 763,-262.5 763,-256.5 763,-256.5 763,-244.5 763,-244.5 763,-238.5 769,-232.5 775,-232.5 775,-232.5 864.5,-232.5 864.5,-232.5 870.5,-232.5 876.5,-238.5 876.5,-244.5 876.5,-244.5 876.5,-256.5 876.5,-256.5 876.5,-262.5 870.5,-268.5 864.5,-268.5"/>
<text xml:space="preserve" text-anchor="middle" x="819.75" y="-246.8" font-family="Helvetica,sans-Serif" font-size="11.00">56 Map Layer Types</text>
</g>
<!-- ds1 -->
<g id="node15" class="node">
<title>ds1</title>
<path fill="#f3e5f5" stroke="#37474f" stroke-width="1.2" d="M1387.25,-52C1387.25,-52 1296.25,-52 1296.25,-52 1290.25,-52 1284.25,-46 1284.25,-40 1284.25,-40 1284.25,-28 1284.25,-28 1284.25,-22 1290.25,-16 1296.25,-16 1296.25,-16 1387.25,-16 1387.25,-16 1393.25,-16 1399.25,-22 1399.25,-28 1399.25,-28 1399.25,-40 1399.25,-40 1399.25,-46 1393.25,-52 1387.25,-52"/>
<text xml:space="preserve" text-anchor="middle" x="1341.75" y="-30.3" font-family="Helvetica,sans-Serif" font-size="11.00">65+ Providers / APIs</text>
</g>
<!-- ef1&#45;&gt;ds1 -->
<g id="edge2" class="edge">
<title>ef1&#45;&gt;ds1</title>
<path fill="none" stroke="#455a64" stroke-width="1.1" d="M1017.94,-123.88C1017.94,-108.15 1017.94,-88 1017.94,-88 1017.94,-88 1305.62,-88 1305.62,-88 1305.62,-88 1305.62,-64.25 1305.62,-64.25"/>
<polygon fill="#455a64" stroke="#455a64" stroke-width="1.1" points="1309.13,-64.25 1305.63,-54.25 1302.13,-64.25 1309.13,-64.25"/>
<text xml:space="preserve" text-anchor="middle" x="1028.12" y="-93.7" font-family="Helvetica,sans-Serif" font-size="9.00" fill="#263238">aggregates from</text>
</g>
<!-- ef2 -->
<g id="node7" class="node">
<title>ef2</title>
<path fill="#e8f5e9" stroke="#37474f" stroke-width="1.2" d="M887.75,-160.25C887.75,-160.25 835.75,-160.25 835.75,-160.25 829.75,-160.25 823.75,-154.25 823.75,-148.25 823.75,-148.25 823.75,-136.25 823.75,-136.25 823.75,-130.25 829.75,-124.25 835.75,-124.25 835.75,-124.25 887.75,-124.25 887.75,-124.25 893.75,-124.25 899.75,-130.25 899.75,-136.25 899.75,-136.25 899.75,-148.25 899.75,-148.25 899.75,-154.25 893.75,-160.25 887.75,-160.25"/>
<text xml:space="preserve" text-anchor="middle" x="861.75" y="-138.55" font-family="Helvetica,sans-Serif" font-size="11.00">AI Synthesis</text>
</g>
<!-- ai1 -->
<g id="node10" class="node">
<title>ai1</title>
<path fill="#fff3e0" stroke="#37474f" stroke-width="1.2" d="M873.62,-52C873.62,-52 811.88,-52 811.88,-52 805.88,-52 799.88,-46 799.88,-40 799.88,-40 799.88,-28 799.88,-28 799.88,-22 805.88,-16 811.88,-16 811.88,-16 873.62,-16 873.62,-16 879.62,-16 885.62,-22 885.62,-28 885.62,-28 885.62,-40 885.62,-40 885.62,-46 879.62,-52 873.62,-52"/>
<text xml:space="preserve" text-anchor="middle" x="842.75" y="-30.3" font-family="Helvetica,sans-Serif" font-size="11.00">Ollama (Local)</text>
</g>
<!-- ef2&#45;&gt;ai1 -->
<g id="edge3" class="edge">
<title>ef2&#45;&gt;ai1</title>
<path fill="none" stroke="#455a64" stroke-width="1.1" d="M854.69,-123.89C854.69,-123.89 854.69,-64.12 854.69,-64.12"/>
<polygon fill="#455a64" stroke="#455a64" stroke-width="1.1" points="858.19,-64.12 854.69,-54.12 851.19,-64.12 858.19,-64.12"/>
<text xml:space="preserve" text-anchor="middle" x="891.12" y="-93.7" font-family="Helvetica,sans-Serif" font-size="9.00" fill="#263238">invokes for synthesis</text>
</g>
<!-- ef3 -->
<g id="node8" class="node">
<title>ef3</title>
<path fill="#e8f5e9" stroke="#37474f" stroke-width="1.2" d="M780.12,-160.25C780.12,-160.25 685.38,-160.25 685.38,-160.25 679.38,-160.25 673.38,-154.25 673.38,-148.25 673.38,-148.25 673.38,-136.25 673.38,-136.25 673.38,-130.25 679.38,-124.25 685.38,-124.25 685.38,-124.25 780.12,-124.25 780.12,-124.25 786.12,-124.25 792.12,-130.25 792.12,-136.25 792.12,-136.25 792.12,-148.25 792.12,-148.25 792.12,-154.25 786.12,-160.25 780.12,-160.25"/>
<text xml:space="preserve" text-anchor="middle" x="732.75" y="-138.55" font-family="Helvetica,sans-Serif" font-size="11.00">Protobuf Serialization</text>
</g>
<!-- ca1 -->
<g id="node19" class="node">
<title>ca1</title>
<path fill="#f5f5f5" stroke="#37474f" stroke-width="1.2" d="M584.75,-52C584.75,-52 514.75,-52 514.75,-52 508.75,-52 502.75,-46 502.75,-40 502.75,-40 502.75,-28 502.75,-28 502.75,-22 508.75,-16 514.75,-16 514.75,-16 584.75,-16 584.75,-16 590.75,-16 596.75,-22 596.75,-28 596.75,-28 596.75,-40 596.75,-40 596.75,-46 590.75,-52 584.75,-52"/>
<text xml:space="preserve" text-anchor="middle" x="549.75" y="-30.3" font-family="Helvetica,sans-Serif" font-size="11.00">Redis (Upstash)</text>
</g>
<!-- ef3&#45;&gt;ca1 -->
<g id="edge4" class="edge">
<title>ef3&#45;&gt;ca1</title>
<path fill="none" stroke="#455a64" stroke-width="1.1" d="M672.98,-142C633.45,-142 588.88,-142 588.88,-142 588.88,-142 588.88,-63.99 588.88,-63.99"/>
<polygon fill="#455a64" stroke="#455a64" stroke-width="1.1" points="592.38,-63.99 588.88,-53.99 585.38,-63.99 592.38,-63.99"/>
<text xml:space="preserve" text-anchor="middle" x="660.25" y="-93.7" font-family="Helvetica,sans-Serif" font-size="9.00" fill="#263238">caches to</text>
</g>
<!-- ef4 -->
<g id="node9" class="node">
<title>ef4</title>
<path fill="#e8f5e9" stroke="#37474f" stroke-width="1.2" d="M1135.88,-160.25C1135.88,-160.25 1075.62,-160.25 1075.62,-160.25 1069.62,-160.25 1063.62,-154.25 1063.62,-148.25 1063.62,-148.25 1063.62,-136.25 1063.62,-136.25 1063.62,-130.25 1069.62,-124.25 1075.62,-124.25 1075.62,-124.25 1135.88,-124.25 1135.88,-124.25 1141.88,-124.25 1147.88,-130.25 1147.88,-136.25 1147.88,-136.25 1147.88,-148.25 1147.88,-148.25 1147.88,-154.25 1141.88,-160.25 1135.88,-160.25"/>
<text xml:space="preserve" text-anchor="middle" x="1105.75" y="-138.55" font-family="Helvetica,sans-Serif" font-size="11.00">CII v8 Scoring</text>
</g>
<!-- ai2 -->
<g id="node11" class="node">
<title>ai2</title>
<path fill="#fff3e0" stroke="#37474f" stroke-width="1.2" d="M959.75,-52C959.75,-52 929.75,-52 929.75,-52 923.75,-52 917.75,-46 917.75,-40 917.75,-40 917.75,-28 917.75,-28 917.75,-22 923.75,-16 929.75,-16 929.75,-16 959.75,-16 959.75,-16 965.75,-16 971.75,-22 971.75,-28 971.75,-28 971.75,-40 971.75,-40 971.75,-46 965.75,-52 959.75,-52"/>
<text xml:space="preserve" text-anchor="middle" x="944.75" y="-30.3" font-family="Helvetica,sans-Serif" font-size="11.00">Groq</text>
</g>
<!-- ai3 -->
<g id="node12" class="node">
<title>ai3</title>
<path fill="#fff3e0" stroke="#37474f" stroke-width="1.2" d="M1067.38,-52C1067.38,-52 1016.12,-52 1016.12,-52 1010.12,-52 1004.12,-46 1004.12,-40 1004.12,-40 1004.12,-28 1004.12,-28 1004.12,-22 1010.12,-16 1016.12,-16 1016.12,-16 1067.38,-16 1067.38,-16 1073.38,-16 1079.38,-22 1079.38,-28 1079.38,-28 1079.38,-40 1079.38,-40 1079.38,-46 1073.38,-52 1067.38,-52"/>
<text xml:space="preserve" text-anchor="middle" x="1041.75" y="-30.3" font-family="Helvetica,sans-Serif" font-size="11.00">OpenRouter</text>
</g>
<!-- ai4 -->
<g id="node13" class="node">
<title>ai4</title>
<path fill="#fff3e0" stroke="#37474f" stroke-width="1.2" d="M1240.38,-52C1240.38,-52 1123.12,-52 1123.12,-52 1117.12,-52 1111.12,-46 1111.12,-40 1111.12,-40 1111.12,-28 1111.12,-28 1111.12,-22 1117.12,-16 1123.12,-16 1123.12,-16 1240.38,-16 1240.38,-16 1246.38,-16 1252.38,-22 1252.38,-28 1252.38,-28 1252.38,-40 1252.38,-40 1252.38,-46 1246.38,-52 1240.38,-52"/>
<text xml:space="preserve" text-anchor="middle" x="1181.75" y="-30.3" font-family="Helvetica,sans-Serif" font-size="11.00">Transformers.js (Browser)</text>
</g>
<!-- rw1 -->
<g id="node14" class="node">
<title>rw1</title>
<path fill="#fffde7" stroke="#37474f" stroke-width="1.2" d="M1077.25,-268.5C1077.25,-268.5 920.25,-268.5 920.25,-268.5 914.25,-268.5 908.25,-262.5 908.25,-256.5 908.25,-256.5 908.25,-244.5 908.25,-244.5 908.25,-238.5 914.25,-232.5 920.25,-232.5 920.25,-232.5 1077.25,-232.5 1077.25,-232.5 1083.25,-232.5 1089.25,-238.5 1089.25,-244.5 1089.25,-244.5 1089.25,-256.5 1089.25,-256.5 1089.25,-262.5 1083.25,-268.5 1077.25,-268.5"/>
<text xml:space="preserve" text-anchor="middle" x="998.75" y="-246.8" font-family="Helvetica,sans-Serif" font-size="11.00">Persistent Background Processing</text>
</g>
<!-- rw1&#45;&gt;ef1 -->
<g id="edge5" class="edge">
<title>rw1&#45;&gt;ef1</title>
<path fill="none" stroke="#455a64" stroke-width="1.1" d="M981.75,-232.14C981.75,-232.14 981.75,-172.37 981.75,-172.37"/>
<polygon fill="#455a64" stroke="#455a64" stroke-width="1.1" points="985.25,-172.37 981.75,-162.37 978.25,-172.37 985.25,-172.37"/>
<text xml:space="preserve" text-anchor="middle" x="1042.75" y="-201.95" font-family="Helvetica,sans-Serif" font-size="9.00" fill="#263238">background processing</text>
</g>
<!-- ds2 -->
<g id="node16" class="node">
<title>ds2</title>
<path fill="#f3e5f5" stroke="#37474f" stroke-width="1.2" d="M1534.62,-52C1534.62,-52 1442.88,-52 1442.88,-52 1436.88,-52 1430.88,-46 1430.88,-40 1430.88,-40 1430.88,-28 1430.88,-28 1430.88,-22 1436.88,-16 1442.88,-16 1442.88,-16 1534.62,-16 1534.62,-16 1540.62,-16 1546.62,-22 1546.62,-28 1546.62,-28 1546.62,-40 1546.62,-40 1546.62,-46 1540.62,-52 1534.62,-52"/>
<text xml:space="preserve" text-anchor="middle" x="1488.75" y="-30.3" font-family="Helvetica,sans-Serif" font-size="11.00">500+ Curated Feeds</text>
</g>
<!-- ds3 -->
<g id="node17" class="node">
<title>ds3</title>
<path fill="#f3e5f5" stroke="#37474f" stroke-width="1.2" d="M1679.12,-52C1679.12,-52 1590.38,-52 1590.38,-52 1584.38,-52 1578.38,-46 1578.38,-40 1578.38,-40 1578.38,-28 1578.38,-28 1578.38,-22 1584.38,-16 1590.38,-16 1590.38,-16 1679.12,-16 1679.12,-16 1685.12,-16 1691.12,-22 1691.12,-28 1691.12,-28 1691.12,-40 1691.12,-40 1691.12,-46 1685.12,-52 1679.12,-52"/>
<text xml:space="preserve" text-anchor="middle" x="1634.75" y="-30.3" font-family="Helvetica,sans-Serif" font-size="11.00">Wingbits Flight Data</text>
</g>
<!-- ds4 -->
<g id="node18" class="node">
<title>ds4</title>
<path fill="#f3e5f5" stroke="#37474f" stroke-width="1.2" d="M1814.62,-52C1814.62,-52 1734.88,-52 1734.88,-52 1728.88,-52 1722.88,-46 1722.88,-40 1722.88,-40 1722.88,-28 1722.88,-28 1722.88,-22 1728.88,-16 1734.88,-16 1734.88,-16 1814.62,-16 1814.62,-16 1820.62,-16 1826.62,-22 1826.62,-28 1826.62,-28 1826.62,-40 1826.62,-40 1826.62,-46 1820.62,-52 1814.62,-52"/>
<text xml:space="preserve" text-anchor="middle" x="1774.75" y="-30.3" font-family="Helvetica,sans-Serif" font-size="11.00">35 Source Groups</text>
</g>
<!-- ca2 -->
<g id="node20" class="node">
<title>ca2</title>
<path fill="#f5f5f5" stroke="#37474f" stroke-width="1.2" d="M458.88,-52C458.88,-52 404.62,-52 404.62,-52 398.62,-52 392.62,-46 392.62,-40 392.62,-40 392.62,-28 392.62,-28 392.62,-22 398.62,-16 404.62,-16 404.62,-16 458.88,-16 458.88,-16 464.88,-16 470.88,-22 470.88,-28 470.88,-28 470.88,-40 470.88,-40 470.88,-46 464.88,-52 458.88,-52"/>
<text xml:space="preserve" text-anchor="middle" x="431.75" y="-30.3" font-family="Helvetica,sans-Serif" font-size="11.00">3&#45;Tier Cache</text>
</g>
<!-- ca3 -->
<g id="node21" class="node">
<title>ca3</title>
<path fill="#f5f5f5" stroke="#37474f" stroke-width="1.2" d="M348.75,-52C348.75,-52 318.75,-52 318.75,-52 312.75,-52 306.75,-46 306.75,-40 306.75,-40 306.75,-28 306.75,-28 306.75,-22 312.75,-16 318.75,-16 318.75,-16 348.75,-16 348.75,-16 354.75,-16 360.75,-22 360.75,-28 360.75,-28 360.75,-40 360.75,-40 360.75,-46 354.75,-52 348.75,-52"/>
<text xml:space="preserve" text-anchor="middle" x="333.75" y="-30.3" font-family="Helvetica,sans-Serif" font-size="11.00">CDN</text>
</g>
<!-- ca3&#45;&gt;fe2 -->
<g id="edge7" class="edge">
<title>ca3&#45;&gt;fe2</title>
<path fill="none" stroke="#455a64" stroke-width="1.1" d="M333.75,-52.46C333.75,-52.46 333.75,-220.42 333.75,-220.42"/>
<polygon fill="#455a64" stroke="#455a64" stroke-width="1.1" points="330.25,-220.42 333.75,-230.42 337.25,-220.42 330.25,-220.42"/>
<text xml:space="preserve" text-anchor="middle" x="358.12" y="-138.95" font-family="Helvetica,sans-Serif" font-size="9.00" fill="#263238">CDN delivery</text>
</g>
<!-- ca4 -->
<g id="node22" class="node">
<title>ca4</title>
<path fill="#f5f5f5" stroke="#37474f" stroke-width="1.2" d="M706.88,-52C706.88,-52 640.62,-52 640.62,-52 634.62,-52 628.62,-46 628.62,-40 628.62,-40 628.62,-28 628.62,-28 628.62,-22 634.62,-16 640.62,-16 640.62,-16 706.88,-16 706.88,-16 712.88,-16 718.88,-22 718.88,-28 718.88,-28 718.88,-40 718.88,-40 718.88,-46 712.88,-52 706.88,-52"/>
<text xml:space="preserve" text-anchor="middle" x="673.75" y="-30.3" font-family="Helvetica,sans-Serif" font-size="11.00">Service Worker</text>
</g>
<!-- dk1 -->
<g id="node23" class="node">
<title>dk1</title>
<path fill="#fce4ec" stroke="#37474f" stroke-width="1.2" d="M1190.38,-268.5C1190.38,-268.5 1133.12,-268.5 1133.12,-268.5 1127.12,-268.5 1121.12,-262.5 1121.12,-256.5 1121.12,-256.5 1121.12,-244.5 1121.12,-244.5 1121.12,-238.5 1127.12,-232.5 1133.12,-232.5 1133.12,-232.5 1190.38,-232.5 1190.38,-232.5 1196.38,-232.5 1202.38,-238.5 1202.38,-244.5 1202.38,-244.5 1202.38,-256.5 1202.38,-256.5 1202.38,-262.5 1196.38,-268.5 1190.38,-268.5"/>
<text xml:space="preserve" text-anchor="middle" x="1161.75" y="-246.8" font-family="Helvetica,sans-Serif" font-size="11.00">Tauri 2 (Rust)</text>
</g>
<!-- dk1&#45;&gt;ef1 -->
<g id="edge6" class="edge">
<title>dk1&#45;&gt;ef1</title>
<path fill="none" stroke="#455a64" stroke-width="1.1" d="M1134.5,-231.98C1134.5,-212.3 1134.5,-184 1134.5,-184 1134.5,-184 1006.75,-184 1006.75,-184 1006.75,-184 1006.75,-172.35 1006.75,-172.35"/>
<polygon fill="#455a64" stroke="#455a64" stroke-width="1.1" points="1010.25,-172.35 1006.75,-162.35 1003.25,-172.35 1010.25,-172.35"/>
<text xml:space="preserve" text-anchor="middle" x="1168.25" y="-201.95" font-family="Helvetica,sans-Serif" font-size="9.00" fill="#263238">same API</text>
</g>
<!-- dk2 -->
<g id="node24" class="node">
<title>dk2</title>
<path fill="#fce4ec" stroke="#37474f" stroke-width="1.2" d="M1315,-268.5C1315,-268.5 1246.5,-268.5 1246.5,-268.5 1240.5,-268.5 1234.5,-262.5 1234.5,-256.5 1234.5,-256.5 1234.5,-244.5 1234.5,-244.5 1234.5,-238.5 1240.5,-232.5 1246.5,-232.5 1246.5,-232.5 1315,-232.5 1315,-232.5 1321,-232.5 1327,-238.5 1327,-244.5 1327,-244.5 1327,-256.5 1327,-256.5 1327,-262.5 1321,-268.5 1315,-268.5"/>
<text xml:space="preserve" text-anchor="middle" x="1280.75" y="-246.8" font-family="Helvetica,sans-Serif" font-size="11.00">Node.js Sidecar</text>
</g>
<!-- dk3 -->
<g id="node25" class="node">
<title>dk3</title>
<path fill="#fce4ec" stroke="#37474f" stroke-width="1.2" d="M1486.62,-268.5C1486.62,-268.5 1370.88,-268.5 1370.88,-268.5 1364.88,-268.5 1358.88,-262.5 1358.88,-256.5 1358.88,-256.5 1358.88,-244.5 1358.88,-244.5 1358.88,-238.5 1364.88,-232.5 1370.88,-232.5 1370.88,-232.5 1486.62,-232.5 1486.62,-232.5 1492.62,-232.5 1498.62,-238.5 1498.62,-244.5 1498.62,-244.5 1498.62,-256.5 1498.62,-256.5 1498.62,-262.5 1492.62,-268.5 1486.62,-268.5"/>
<text xml:space="preserve" text-anchor="middle" x="1428.75" y="-246.8" font-family="Helvetica,sans-Serif" font-size="11.00">macOS / Windows / Linux</text>
</g>
</g>
</svg>
