<?xml version="1.0" encoding="UTF-8" standalone="no"?>
<!DOCTYPE svg PUBLIC "-//W3C//DTD SVG 1.1//EN"
 "http://www.w3.org/Graphics/SVG/1.1/DTD/svg11.dtd">
<!-- Generated by graphviz version 14.1.2 (0)
 -->
<!-- Title: G Pages: 1 -->
<svg width="1422pt" height="366pt"
 viewBox="0.00 0.00 1422.00 366.00" xmlns="http://www.w3.org/2000/svg" xmlns:xlink="http://www.w3.org/1999/xlink">
<g id="graph0" class="graph" transform="scale(1 1) rotate(0) translate(28.8 336.8)">
<title>G</title>
<polygon fill="white" stroke="none" points="-28.8,28.8 -28.8,-336.8 1393.05,-336.8 1393.05,28.8 -28.8,28.8"/>
<!-- __title__ -->
<g id="node1" class="node">
<title>__title__</title>
<text xml:space="preserve" text-anchor="middle" x="128.38" y="-12.57" font-family="Helvetica,sans-Serif" font-size="14.00" fill="#1a237e">WorldMonitor Data Aggregation Pipeline</text>
</g>
<!-- src1 -->
<g id="node2" class="node">
<title>src1</title>
<path fill="#f3e5f5" stroke="#37474f" stroke-width="1.2" d="M174.25,-308C174.25,-308 82.5,-308 82.5,-308 76.5,-308 70.5,-302 70.5,-296 70.5,-296 70.5,-284 70.5,-284 70.5,-278 76.5,-272 82.5,-272 82.5,-272 174.25,-272 174.25,-272 180.25,-272 186.25,-278 186.25,-284 186.25,-284 186.25,-296 186.25,-296 186.25,-302 180.25,-308 174.25,-308"/>
<text xml:space="preserve" text-anchor="middle" x="128.38" y="-293.05" font-family="Helvetica,sans-Serif" font-size="11.00">External Providers</text>
<text xml:space="preserve" text-anchor="middle" x="128.38" y="-279.55" font-family="Helvetica,sans-Serif" font-size="11.00">65+ APIs, 8 domains</text>
</g>
<!-- ef -->
<g id="node5" class="node">
<title>ef</title>
<path fill="#e8f5e9" stroke="#37474f" stroke-width="1.2" d="M478.75,-206C478.75,-206 389.25,-206 389.25,-206 383.25,-206 377.25,-200 377.25,-194 377.25,-194 377.25,-182 377.25,-182 377.25,-176 383.25,-170 389.25,-170 389.25,-170 478.75,-170 478.75,-170 484.75,-170 490.75,-176 490.75,-182 490.75,-182 490.75,-194 490.75,-194 490.75,-200 484.75,-206 478.75,-206"/>
<text xml:space="preserve" text-anchor="middle" x="434" y="-191.05" font-family="Helvetica,sans-Serif" font-size="11.00">Edge Functions</text>
<text xml:space="preserve" text-anchor="middle" x="434" y="-177.55" font-family="Helvetica,sans-Serif" font-size="11.00">60+ Vercel functions</text>
</g>
<!-- src1&#45;&gt;ef -->
<g id="edge1" class="edge">
<title>src1&#45;&gt;ef</title>
<path fill="none" stroke="#455a64" stroke-width="1.1" d="M186.63,-290C275.37,-290 434.25,-290 434.25,-290 434.25,-290 434.25,-217.9 434.25,-217.9"/>
<polygon fill="#455a64" stroke="#455a64" stroke-width="1.1" points="437.75,-217.9 434.25,-207.9 430.75,-217.9 437.75,-217.9"/>
</g>
<!-- src2 -->
<g id="node3" class="node">
<title>src2</title>
<path fill="#f3e5f5" stroke="#37474f" stroke-width="1.2" d="M186.62,-240C186.62,-240 70.12,-240 70.12,-240 64.12,-240 58.12,-234 58.12,-228 58.12,-228 58.12,-216 58.12,-216 58.12,-210 64.12,-204 70.12,-204 70.12,-204 186.62,-204 186.62,-204 192.62,-204 198.62,-210 198.62,-216 198.62,-216 198.62,-228 198.62,-228 198.62,-234 192.62,-240 186.62,-240"/>
<text xml:space="preserve" text-anchor="middle" x="128.38" y="-225.05" font-family="Helvetica,sans-Serif" font-size="11.00">Curated News Feeds</text>
<text xml:space="preserve" text-anchor="middle" x="128.38" y="-211.55" font-family="Helvetica,sans-Serif" font-size="11.00">500+ feeds, 15 categories</text>
</g>
<!-- src2&#45;&gt;ef -->
<g id="edge2" class="edge">
<title>src2&#45;&gt;ef</title>
<path fill="none" stroke="#455a64" stroke-width="1.1" d="M191.25,-203.68C191.25,-198.06 191.25,-193.33 191.25,-193.33 191.25,-193.33 365.11,-193.33 365.11,-193.33"/>
<polygon fill="#455a64" stroke="#455a64" stroke-width="1.1" points="365.11,-196.83 375.11,-193.33 365.11,-189.83 365.11,-196.83"/>
</g>
<!-- src3 -->
<g id="node4" class="node">
<title>src3</title>
<path fill="#f3e5f5" stroke="#37474f" stroke-width="1.2" d="M172.75,-172C172.75,-172 84,-172 84,-172 78,-172 72,-166 72,-160 72,-160 72,-148 72,-148 72,-142 78,-136 84,-136 84,-136 172.75,-136 172.75,-136 178.75,-136 184.75,-142 184.75,-148 184.75,-148 184.75,-160 184.75,-160 184.75,-166 178.75,-172 172.75,-172"/>
<text xml:space="preserve" text-anchor="middle" x="128.38" y="-157.05" font-family="Helvetica,sans-Serif" font-size="11.00">Wingbits Flight Data</text>
<text xml:space="preserve" text-anchor="middle" x="128.38" y="-143.55" font-family="Helvetica,sans-Serif" font-size="11.00">ADS&#45;B tracking</text>
</g>
<!-- src3&#45;&gt;ef -->
<g id="edge3" class="edge">
<title>src3&#45;&gt;ef</title>
<path fill="none" stroke="#455a64" stroke-width="1.1" d="M128.25,-172.32C128.25,-177.94 128.25,-182.67 128.25,-182.67 128.25,-182.67 365.18,-182.67 365.18,-182.67"/>
<polygon fill="#455a64" stroke="#455a64" stroke-width="1.1" points="365.18,-186.17 375.18,-182.67 365.18,-179.17 365.18,-186.17"/>
</g>
<!-- ai -->
<g id="node6" class="node">
<title>ai</title>
<path fill="#fff3e0" stroke="#37474f" stroke-width="1.2" d="M674.75,-241C674.75,-241 547.75,-241 547.75,-241 541.75,-241 535.75,-235 535.75,-229 535.75,-229 535.75,-217 535.75,-217 535.75,-211 541.75,-205 547.75,-205 547.75,-205 674.75,-205 674.75,-205 680.75,-205 686.75,-211 686.75,-217 686.75,-217 686.75,-229 686.75,-229 686.75,-235 680.75,-241 674.75,-241"/>
<text xml:space="preserve" text-anchor="middle" x="611.25" y="-226.05" font-family="Helvetica,sans-Serif" font-size="11.00">AI Synthesis</text>
<text xml:space="preserve" text-anchor="middle" x="611.25" y="-212.55" font-family="Helvetica,sans-Serif" font-size="11.00">Ollama / Groq / OpenRouter</text>
</g>
<!-- ef&#45;&gt;ai -->
<g id="edge4" class="edge">
<title>ef&#45;&gt;ai</title>
<path fill="none" stroke="#455a64" stroke-width="1.1" d="M491.29,-198.6C519.38,-198.6 547.25,-198.6 547.25,-198.6 547.25,-198.6 547.25,-199.19 547.25,-199.19"/>
<polygon fill="#455a64" stroke="#455a64" stroke-width="1.1" points="543.75,-192.84 547.25,-202.84 550.75,-192.84 543.75,-192.84"/>
</g>
<!-- cii -->
<g id="node7" class="node">
<title>cii</title>
<path fill="#fff3e0" stroke="#37474f" stroke-width="1.2" d="M651.88,-173C651.88,-173 570.62,-173 570.62,-173 564.62,-173 558.62,-167 558.62,-161 558.62,-161 558.62,-149 558.62,-149 558.62,-143 564.62,-137 570.62,-137 570.62,-137 651.88,-137 651.88,-137 657.88,-137 663.88,-143 663.88,-149 663.88,-149 663.88,-161 663.88,-161 663.88,-167 657.88,-173 651.88,-173"/>
<text xml:space="preserve" text-anchor="middle" x="611.25" y="-158.05" font-family="Helvetica,sans-Serif" font-size="11.00">CII v8 Scoring</text>
<text xml:space="preserve" text-anchor="middle" x="611.25" y="-144.55" font-family="Helvetica,sans-Serif" font-size="11.00">31 Tier&#45;1 countries</text>
</g>
<!-- ef&#45;&gt;cii -->
<g id="edge5" class="edge">
<title>ef&#45;&gt;cii</title>
<path fill="none" stroke="#455a64" stroke-width="1.1" d="M491.04,-192.2C536.74,-192.2 593.25,-192.2 593.25,-192.2 593.25,-192.2 593.25,-185.26 593.25,-185.26"/>
<polygon fill="#455a64" stroke="#455a64" stroke-width="1.1" points="596.75,-185.26 593.25,-175.26 589.75,-185.26 596.75,-185.26"/>
</g>
<!-- pb -->
<g id="node8" class="node">
<title>pb</title>
<path fill="#e8f5e9" stroke="#37474f" stroke-width="1.2" d="M846.75,-206C846.75,-206 743.75,-206 743.75,-206 737.75,-206 731.75,-200 731.75,-194 731.75,-194 731.75,-182 731.75,-182 731.75,-176 737.75,-170 743.75,-170 743.75,-170 846.75,-170 846.75,-170 852.75,-170 858.75,-176 858.75,-182 858.75,-182 858.75,-194 858.75,-194 858.75,-200 852.75,-206 846.75,-206"/>
<text xml:space="preserve" text-anchor="middle" x="795.25" y="-191.05" font-family="Helvetica,sans-Serif" font-size="11.00">Protobuf Serialization</text>
<text xml:space="preserve" text-anchor="middle" x="795.25" y="-177.55" font-family="Helvetica,sans-Serif" font-size="11.00">276 protos, 34 services</text>
</g>
<!-- ai&#45;&gt;pb -->
<g id="edge6" class="edge">
<title>ai&#45;&gt;pb</title>
<path fill="none" stroke="#455a64" stroke-width="1.1" d="M675.25,-204.4C675.25,-195.1 675.25,-185.8 675.25,-185.8 675.25,-185.8 719.72,-185.8 719.72,-185.8"/>
<polygon fill="#455a64" stroke="#455a64" stroke-width="1.1" points="719.72,-189.3 729.72,-185.8 719.72,-182.3 719.72,-189.3"/>
</g>
<!-- cii&#45;&gt;pb -->
<g id="edge7" class="edge">
<title>cii&#45;&gt;pb</title>
<path fill="none" stroke="#455a64" stroke-width="1.1" d="M629.25,-173.49C629.25,-176.9 629.25,-179.4 629.25,-179.4 629.25,-179.4 719.88,-179.4 719.88,-179.4"/>
<polygon fill="#455a64" stroke="#455a64" stroke-width="1.1" points="719.88,-182.9 729.88,-179.4 719.88,-175.9 719.88,-182.9"/>
</g>
<!-- cache -->
<g id="node9" class="node">
<title>cache</title>
<path fill="#fffde7" stroke="#37474f" stroke-width="1.2" d="M1009.75,-206C1009.75,-206 915.75,-206 915.75,-206 909.75,-206 903.75,-200 903.75,-194 903.75,-194 903.75,-182 903.75,-182 903.75,-176 909.75,-170 915.75,-170 915.75,-170 1009.75,-170 1009.75,-170 1015.75,-170 1021.75,-176 1021.75,-182 1021.75,-182 1021.75,-194 1021.75,-194 1021.75,-200 1015.75,-206 1009.75,-206"/>
<text xml:space="preserve" text-anchor="middle" x="962.75" y="-191.05" font-family="Helvetica,sans-Serif" font-size="11.00">Redis 3&#45;Tier Cache</text>
<text xml:space="preserve" text-anchor="middle" x="962.75" y="-177.55" font-family="Helvetica,sans-Serif" font-size="11.00">edge + Redis + CDN</text>
</g>
<!-- pb&#45;&gt;cache -->
<g id="edge8" class="edge">
<title>pb&#45;&gt;cache</title>
<path fill="none" stroke="#455a64" stroke-width="1.1" d="M859.05,-188C859.05,-188 891.59,-188 891.59,-188"/>
<polygon fill="#455a64" stroke="#455a64" stroke-width="1.1" points="891.59,-191.5 901.59,-188 891.59,-184.5 891.59,-191.5"/>
</g>
<!-- render -->
<g id="node11" class="node">
<title>render</title>
<path fill="#e3f2fd" stroke="#37474f" stroke-width="1.2" d="M1185.5,-206C1185.5,-206 1078.75,-206 1078.75,-206 1072.75,-206 1066.75,-200 1066.75,-194 1066.75,-194 1066.75,-182 1066.75,-182 1066.75,-176 1072.75,-170 1078.75,-170 1078.75,-170 1185.5,-170 1185.5,-170 1191.5,-170 1197.5,-176 1197.5,-182 1197.5,-182 1197.5,-194 1197.5,-194 1197.5,-200 1191.5,-206 1185.5,-206"/>
<text xml:space="preserve" text-anchor="middle" x="1132.12" y="-191.05" font-family="Helvetica,sans-Serif" font-size="11.00">Frontend Rendering</text>
<text xml:space="preserve" text-anchor="middle" x="1132.12" y="-177.55" font-family="Helvetica,sans-Serif" font-size="11.00">globe.gl 3D / deck.gl 2D</text>
</g>
<!-- cache&#45;&gt;render -->
<g id="edge10" class="edge">
<title>cache&#45;&gt;render</title>
<path fill="none" stroke="#455a64" stroke-width="1.1" d="M1021.99,-188C1021.99,-188 1054.6,-188 1054.6,-188"/>
<polygon fill="#455a64" stroke="#455a64" stroke-width="1.1" points="1054.6,-191.5 1064.6,-188 1054.6,-184.5 1054.6,-191.5"/>
</g>
<!-- fresh -->
<g id="node10" class="node">
<title>fresh</title>
<path fill="#e8f5e9" stroke="#37474f" stroke-width="1.2" d="M169,-104C169,-104 87.75,-104 87.75,-104 81.75,-104 75.75,-98 75.75,-92 75.75,-92 75.75,-80 75.75,-80 75.75,-74 81.75,-68 87.75,-68 87.75,-68 169,-68 169,-68 175,-68 181,-74 181,-80 181,-80 181,-92 181,-92 181,-98 175,-104 169,-104"/>
<text xml:space="preserve" text-anchor="middle" x="128.38" y="-89.05" font-family="Helvetica,sans-Serif" font-size="11.00">Freshness Monitor</text>
<text xml:space="preserve" text-anchor="middle" x="128.38" y="-75.55" font-family="Helvetica,sans-Serif" font-size="11.00">35 source groups</text>
</g>
<!-- fresh&#45;&gt;ef -->
<g id="edge9" class="edge">
<title>fresh&#45;&gt;ef</title>
<path fill="none" stroke="#455a64" stroke-width="1.1" d="M181.31,-86C268.85,-86 434.25,-86 434.25,-86 434.25,-86 434.25,-158.1 434.25,-158.1"/>
<polygon fill="#455a64" stroke="#455a64" stroke-width="1.1" points="430.75,-158.1 434.25,-168.1 437.75,-158.1 430.75,-158.1"/>
<text xml:space="preserve" text-anchor="middle" x="317" y="-87.95" font-family="Helvetica,sans-Serif" font-size="9.00" fill="#263238">monitors staleness</text>
</g>
<!-- dash -->
<g id="node12" class="node">
<title>dash</title>
<path fill="#e3f2fd" stroke="#37474f" stroke-width="1.2" d="M1352.25,-206C1352.25,-206 1254.5,-206 1254.5,-206 1248.5,-206 1242.5,-200 1242.5,-194 1242.5,-194 1242.5,-182 1242.5,-182 1242.5,-176 1248.5,-170 1254.5,-170 1254.5,-170 1352.25,-170 1352.25,-170 1358.25,-170 1364.25,-176 1364.25,-182 1364.25,-182 1364.25,-194 1364.25,-194 1364.25,-200 1358.25,-206 1352.25,-206"/>
<text xml:space="preserve" text-anchor="middle" x="1303.38" y="-191.05" font-family="Helvetica,sans-Serif" font-size="11.00">User Dashboard</text>
<text xml:space="preserve" text-anchor="middle" x="1303.38" y="-177.55" font-family="Helvetica,sans-Serif" font-size="11.00">Situational awareness</text>
</g>
<!-- render&#45;&gt;dash -->
<g id="edge11" class="edge">
<title>render&#45;&gt;dash</title>
<path fill="none" stroke="#455a64" stroke-width="1.1" d="M1197.84,-188C1197.84,-188 1230.38,-188 1230.38,-188"/>
<polygon fill="#455a64" stroke="#455a64" stroke-width="1.1" points="1230.38,-191.5 1240.38,-188 1230.38,-184.5 1230.38,-191.5"/>
</g>
</g>
</svg>
