<?xml version="1.0" encoding="UTF-8" standalone="no"?>
<!DOCTYPE svg PUBLIC "-//W3C//DTD SVG 1.1//EN"
 "http://www.w3.org/Graphics/SVG/1.1/DTD/svg11.dtd">
<!-- Generated by graphviz version 14.1.2 (0)
 -->
<!-- Title: web_design_skill_transformation Pages: 1 -->
<svg width="890pt" height="483pt"
 viewBox="0.00 0.00 890.00 483.00" xmlns="http://www.w3.org/2000/svg" xmlns:xlink="http://www.w3.org/1999/xlink">
<style>
/* White halo for edge labels - ensures text is readable over edge lines */
text {
    paint-order: stroke;
    stroke: #ffffff;
    stroke-width: 4px;
    stroke-linejoin: round;
    stroke-linecap: round;
}
/* Node labels: no halo needed (they sit on filled backgrounds) */
g.node text,
g.cluster text {
    stroke: none;
}
</style>

<g id="graph0" class="graph" transform="scale(1 1) rotate(0) translate(4 478.5)">
<title>web_design_skill_transformation</title>
<polygon fill="white" stroke="none" points="-4,4 -4,-478.5 886,-478.5 886,4 -4,4"/>
<text xml:space="preserve" text-anchor="middle" x="441" y="-6.45" font-family="Arial" font-size="14.00">Web Design Skill &#45; Before/After Transformation</text>
<g id="clust1" class="cluster">
<title>cluster_cluster_before</title>
<polygon fill="#cccccc" stroke="#cccccc" points="96,-370.75 96,-466.5 825,-466.5 825,-370.75 96,-370.75"/>
<text xml:space="preserve" text-anchor="middle" x="460.5" y="-449.2" font-family="Arial Bold" font-size="14.00" fill="#333333">Before: Functional Output</text>
</g>
<g id="clust2" class="cluster">
<title>cluster_cluster_transform</title>
<polygon fill="#cccccc" stroke="#cccccc" points="8,-137.75 8,-245.5 874,-245.5 874,-137.75 8,-137.75"/>
<text xml:space="preserve" text-anchor="middle" x="441" y="-228.2" font-family="Arial Bold" font-size="14.00" fill="#333333">Transformation Pillars</text>
</g>
<g id="clust3" class="cluster">
<title>cluster_cluster_after</title>
<polygon fill="#cccccc" stroke="#cccccc" points="57,-31.75 57,-127.5 859,-127.5 859,-31.75 57,-31.75"/>
<text xml:space="preserve" text-anchor="middle" x="458" y="-110.2" font-family="Arial Bold" font-size="14.00" fill="#333333">After: Stunning Output</text>
</g>
<!-- hardcoded_hex -->
<g id="node1" class="node">
<title>hardcoded_hex</title>
<path fill="#f44336" stroke="black" d="M203.62,-434.75C203.62,-434.75 116.38,-434.75 116.38,-434.75 110.38,-434.75 104.38,-428.75 104.38,-422.75 104.38,-422.75 104.38,-390.75 104.38,-390.75 104.38,-384.75 110.38,-378.75 116.38,-378.75 116.38,-378.75 203.62,-378.75 203.62,-378.75 209.62,-378.75 215.62,-384.75 215.62,-390.75 215.62,-390.75 215.62,-422.75 215.62,-422.75 215.62,-428.75 209.62,-434.75 203.62,-434.75"/>
<text xml:space="preserve" text-anchor="middle" x="160" y="-421.25" font-family="Arial" font-size="10.00" fill="white">Hardcoded Hex</text>
<text xml:space="preserve" text-anchor="middle" x="160" y="-409.25" font-family="Arial" font-size="10.00" fill="white">#7cf0ff, #b388ff</text>
<text xml:space="preserve" text-anchor="middle" x="160" y="-397.25" font-family="Arial" font-size="10.00" fill="white">Random Color Values</text>
<text xml:space="preserve" text-anchor="middle" x="160" y="-385.25" font-family="Arial" font-size="10.00" fill="white">No Token System</text>
</g>
<!-- skill_apply -->
<g id="node7" class="node">
<title>skill_apply</title>
<path fill="#2196f3" stroke="black" d="M504.25,-328.75C504.25,-328.75 393.75,-328.75 393.75,-328.75 387.75,-328.75 381.75,-322.75 381.75,-316.75 381.75,-316.75 381.75,-275.75 381.75,-275.75 381.75,-269.75 387.75,-263.75 393.75,-263.75 393.75,-263.75 504.25,-263.75 504.25,-263.75 510.25,-263.75 516.25,-269.75 516.25,-275.75 516.25,-275.75 516.25,-316.75 516.25,-316.75 516.25,-322.75 510.25,-328.75 504.25,-328.75"/>
<text xml:space="preserve" text-anchor="middle" x="449" y="-313.35" font-family="Arial" font-size="12.00" fill="white">Apply Web</text>
<text xml:space="preserve" text-anchor="middle" x="449" y="-299.1" font-family="Arial" font-size="12.00" fill="white">Design Skill</text>
<text xml:space="preserve" text-anchor="middle" x="449" y="-284.85" font-family="Arial" font-size="12.00" fill="white">SKILL.md +</text>
<text xml:space="preserve" text-anchor="middle" x="449" y="-270.6" font-family="Arial" font-size="12.00" fill="white">advanced&#45;patterns.md</text>
</g>
<!-- hardcoded_hex&#45;&gt;skill_apply -->
<g id="edge1" class="edge">
<title>hardcoded_hex&#45;&gt;skill_apply</title>
<path fill="none" stroke="#f44336" stroke-width="1.5" d="M211.75,-378.33C211.75,-347.54 211.75,-302.75 211.75,-302.75 211.75,-302.75 371.06,-302.75 371.06,-302.75"/>
<polygon fill="#f44336" stroke="#f44336" stroke-width="1.5" points="371.06,-305.55 379.06,-302.75 371.06,-299.95 371.06,-305.55"/>
<text xml:space="preserve" text-anchor="middle" x="243.49" y="-304.7" font-family="Arial" font-size="9.00" fill="#f44336">input</text>
</g>
<!-- default_fonts -->
<g id="node2" class="node">
<title>default_fonts</title>
<path fill="#f44336" stroke="black" d="M325.88,-434.75C325.88,-434.75 246.12,-434.75 246.12,-434.75 240.12,-434.75 234.12,-428.75 234.12,-422.75 234.12,-422.75 234.12,-390.75 234.12,-390.75 234.12,-384.75 240.12,-378.75 246.12,-378.75 246.12,-378.75 325.88,-378.75 325.88,-378.75 331.88,-378.75 337.88,-384.75 337.88,-390.75 337.88,-390.75 337.88,-422.75 337.88,-422.75 337.88,-428.75 331.88,-434.75 325.88,-434.75"/>
<text xml:space="preserve" text-anchor="middle" x="286" y="-421.25" font-family="Arial" font-size="10.00" fill="white">Default Fonts</text>
<text xml:space="preserve" text-anchor="middle" x="286" y="-409.25" font-family="Arial" font-size="10.00" fill="white">Inter / Roboto / Arial</text>
<text xml:space="preserve" text-anchor="middle" x="286" y="-397.25" font-family="Arial" font-size="10.00" fill="white">System&#45;ui Fallback</text>
<text xml:space="preserve" text-anchor="middle" x="286" y="-385.25" font-family="Arial" font-size="10.00" fill="white">Instant AI Tell</text>
</g>
<!-- default_fonts&#45;&gt;skill_apply -->
<g id="edge2" class="edge">
<title>default_fonts&#45;&gt;skill_apply</title>
<path fill="none" stroke="#f44336" stroke-width="1.5" d="M326.69,-378.46C326.69,-351.74 326.69,-315.75 326.69,-315.75 326.69,-315.75 371.13,-315.75 371.13,-315.75"/>
<polygon fill="#f44336" stroke="#f44336" stroke-width="1.5" points="371.13,-318.55 379.13,-315.75 371.13,-312.95 371.13,-318.55"/>
<text xml:space="preserve" text-anchor="middle" x="316.56" y="-326.83" font-family="Arial" font-size="9.00" fill="#f44336">input</text>
</g>
<!-- standard_layout -->
<g id="node3" class="node">
<title>standard_layout</title>
<path fill="#f44336" stroke="black" d="M450,-434.75C450,-434.75 368,-434.75 368,-434.75 362,-434.75 356,-428.75 356,-422.75 356,-422.75 356,-390.75 356,-390.75 356,-384.75 362,-378.75 368,-378.75 368,-378.75 450,-378.75 450,-378.75 456,-378.75 462,-384.75 462,-390.75 462,-390.75 462,-422.75 462,-422.75 462,-428.75 456,-434.75 450,-434.75"/>
<text xml:space="preserve" text-anchor="middle" x="409" y="-421.25" font-family="Arial" font-size="10.00" fill="white">Standard Layout</text>
<text xml:space="preserve" text-anchor="middle" x="409" y="-409.25" font-family="Arial" font-size="10.00" fill="white">Cookie&#45;Cutter Cards</text>
<text xml:space="preserve" text-anchor="middle" x="409" y="-397.25" font-family="Arial" font-size="10.00" fill="white">Left&#45;Border Accents</text>
<text xml:space="preserve" text-anchor="middle" x="409" y="-385.25" font-family="Arial" font-size="10.00" fill="white">Gradient Buttons</text>
</g>
<!-- standard_layout&#45;&gt;skill_apply -->
<g id="edge3" class="edge">
<title>standard_layout&#45;&gt;skill_apply</title>
<path fill="none" stroke="#f44336" stroke-width="1.5" d="M421.88,-378.29C421.88,-378.29 421.88,-339.18 421.88,-339.18"/>
<polygon fill="#f44336" stroke="#f44336" stroke-width="1.5" points="424.68,-339.18 421.88,-331.18 419.08,-339.18 424.68,-339.18"/>
<text xml:space="preserve" text-anchor="middle" x="411.75" y="-360.69" font-family="Arial" font-size="9.00" fill="#f44336">input</text>
</g>
<!-- emoji_icons -->
<g id="node4" class="node">
<title>emoji_icons</title>
<path fill="#f44336" stroke="black" d="M563.75,-434.75C563.75,-434.75 492.25,-434.75 492.25,-434.75 486.25,-434.75 480.25,-428.75 480.25,-422.75 480.25,-422.75 480.25,-390.75 480.25,-390.75 480.25,-384.75 486.25,-378.75 492.25,-378.75 492.25,-378.75 563.75,-378.75 563.75,-378.75 569.75,-378.75 575.75,-384.75 575.75,-390.75 575.75,-390.75 575.75,-422.75 575.75,-422.75 575.75,-428.75 569.75,-434.75 563.75,-434.75"/>
<text xml:space="preserve" text-anchor="middle" x="528" y="-421.25" font-family="Arial" font-size="10.00" fill="white">Emoji as Icons</text>
<text xml:space="preserve" text-anchor="middle" x="528" y="-409.25" font-family="Arial" font-size="10.00" fill="white">Rocket / Lightning</text>
<text xml:space="preserve" text-anchor="middle" x="528" y="-397.25" font-family="Arial" font-size="10.00" fill="white">Spark Filler</text>
<text xml:space="preserve" text-anchor="middle" x="528" y="-385.25" font-family="Arial" font-size="10.00" fill="white">Decorative Spam</text>
</g>
<!-- emoji_icons&#45;&gt;skill_apply -->
<g id="edge4" class="edge">
<title>emoji_icons&#45;&gt;skill_apply</title>
<path fill="none" stroke="#f44336" stroke-width="1.5" d="M498.25,-378.29C498.25,-378.29 498.25,-339.18 498.25,-339.18"/>
<polygon fill="#f44336" stroke="#f44336" stroke-width="1.5" points="501.05,-339.18 498.25,-331.18 495.45,-339.18 501.05,-339.18"/>
<text xml:space="preserve" text-anchor="middle" x="488.12" y="-360.69" font-family="Arial" font-size="9.00" fill="#f44336">input</text>
</g>
<!-- neon_effects -->
<g id="node5" class="node">
<title>neon_effects</title>
<path fill="#f44336" stroke="black" d="M692.62,-434.75C692.62,-434.75 605.38,-434.75 605.38,-434.75 599.38,-434.75 593.38,-428.75 593.38,-422.75 593.38,-422.75 593.38,-390.75 593.38,-390.75 593.38,-384.75 599.38,-378.75 605.38,-378.75 605.38,-378.75 692.62,-378.75 692.62,-378.75 698.62,-378.75 704.62,-384.75 704.62,-390.75 704.62,-390.75 704.62,-422.75 704.62,-422.75 704.62,-428.75 698.62,-434.75 692.62,-434.75"/>
<text xml:space="preserve" text-anchor="middle" x="649" y="-421.25" font-family="Arial" font-size="10.00" fill="white">Neon Effects</text>
<text xml:space="preserve" text-anchor="middle" x="649" y="-409.25" font-family="Arial" font-size="10.00" fill="white">Heavy Glow</text>
<text xml:space="preserve" text-anchor="middle" x="649" y="-397.25" font-family="Arial" font-size="10.00" fill="white">Purple&#45;Pink Gradients</text>
<text xml:space="preserve" text-anchor="middle" x="649" y="-385.25" font-family="Arial" font-size="10.00" fill="white">Overblown Shadows</text>
</g>
<!-- neon_effects&#45;&gt;skill_apply -->
<g id="edge5" class="edge">
<title>neon_effects&#45;&gt;skill_apply</title>
<path fill="none" stroke="#f44336" stroke-width="1.5" d="M602.44,-378.46C602.44,-351.74 602.44,-315.75 602.44,-315.75 602.44,-315.75 527.02,-315.75 527.02,-315.75"/>
<polygon fill="#f44336" stroke="#f44336" stroke-width="1.5" points="527.02,-312.95 519.02,-315.75 527.02,-318.55 527.02,-312.95"/>
<text xml:space="preserve" text-anchor="middle" x="585.96" y="-317.7" font-family="Arial" font-size="9.00" fill="#f44336">input</text>
</g>
<!-- fake_data -->
<g id="node6" class="node">
<title>fake_data</title>
<path fill="#f44336" stroke="black" d="M805.38,-434.75C805.38,-434.75 734.62,-434.75 734.62,-434.75 728.62,-434.75 722.62,-428.75 722.62,-422.75 722.62,-422.75 722.62,-390.75 722.62,-390.75 722.62,-384.75 728.62,-378.75 734.62,-378.75 734.62,-378.75 805.38,-378.75 805.38,-378.75 811.38,-378.75 817.38,-384.75 817.38,-390.75 817.38,-390.75 817.38,-422.75 817.38,-422.75 817.38,-428.75 811.38,-434.75 805.38,-434.75"/>
<text xml:space="preserve" text-anchor="middle" x="770" y="-421.25" font-family="Arial" font-size="10.00" fill="white">Fabricated Data</text>
<text xml:space="preserve" text-anchor="middle" x="770" y="-409.25" font-family="Arial" font-size="10.00" fill="white">Fake Testimonials</text>
<text xml:space="preserve" text-anchor="middle" x="770" y="-397.25" font-family="Arial" font-size="10.00" fill="white">Logo Walls</text>
<text xml:space="preserve" text-anchor="middle" x="770" y="-385.25" font-family="Arial" font-size="10.00" fill="white">Stats Spam</text>
</g>
<!-- fake_data&#45;&gt;skill_apply -->
<g id="edge6" class="edge">
<title>fake_data&#45;&gt;skill_apply</title>
<path fill="none" stroke="#f44336" stroke-width="1.5" d="M729.75,-378.33C729.75,-347.54 729.75,-302.75 729.75,-302.75 729.75,-302.75 526.87,-302.75 526.87,-302.75"/>
<polygon fill="#f44336" stroke="#f44336" stroke-width="1.5" points="526.87,-299.95 518.87,-302.75 526.87,-305.55 526.87,-299.95"/>
<text xml:space="preserve" text-anchor="middle" x="655.98" y="-304.7" font-family="Arial" font-size="9.00" fill="#f44336">input</text>
</g>
<!-- color_transform -->
<g id="node8" class="node">
<title>color_transform</title>
<path fill="#2196f3" stroke="black" d="M177.75,-213.75C177.75,-213.75 28.25,-213.75 28.25,-213.75 22.25,-213.75 16.25,-207.75 16.25,-201.75 16.25,-201.75 16.25,-157.75 16.25,-157.75 16.25,-151.75 22.25,-145.75 28.25,-145.75 28.25,-145.75 177.75,-145.75 177.75,-145.75 183.75,-145.75 189.75,-151.75 189.75,-157.75 189.75,-157.75 189.75,-201.75 189.75,-201.75 189.75,-207.75 183.75,-213.75 177.75,-213.75"/>
<text xml:space="preserve" text-anchor="middle" x="103" y="-200.25" font-family="Arial" font-size="10.00" fill="white">Color System</text>
<text xml:space="preserve" text-anchor="middle" x="103" y="-188.25" font-family="Arial" font-size="10.00" fill="white">oklch Token Derivation</text>
<text xml:space="preserve" text-anchor="middle" x="103" y="-176.25" font-family="Arial" font-size="10.00" fill="white">CSS Custom Properties</text>
<text xml:space="preserve" text-anchor="middle" x="103" y="-164.25" font-family="Arial" font-size="10.00" fill="white">Perceptually Uniform</text>
<text xml:space="preserve" text-anchor="middle" x="103" y="-152.25" font-family="Arial" font-size="10.00" fill="white">Same Lightness = Same Brightness</text>
</g>
<!-- skill_apply&#45;&gt;color_transform -->
<g id="edge7" class="edge">
<title>skill_apply&#45;&gt;color_transform</title>
<path fill="none" stroke="#2196f3" stroke-width="1.5" d="M381.62,-289.75C292.63,-289.75 147.06,-289.75 147.06,-289.75 147.06,-289.75 147.06,-224.22 147.06,-224.22"/>
<polygon fill="#2196f3" stroke="#2196f3" stroke-width="1.5" points="149.86,-224.22 147.06,-216.22 144.26,-224.22 149.86,-224.22"/>
<text xml:space="preserve" text-anchor="middle" x="216.57" y="-291.7" font-family="Arial" font-size="9.00" fill="#2196f3">applies</text>
</g>
<!-- typography_transform -->
<g id="node9" class="node">
<title>typography_transform</title>
<path fill="#2196f3" stroke="black" d="M310.12,-213.75C310.12,-213.75 219.88,-213.75 219.88,-213.75 213.88,-213.75 207.88,-207.75 207.88,-201.75 207.88,-201.75 207.88,-157.75 207.88,-157.75 207.88,-151.75 213.88,-145.75 219.88,-145.75 219.88,-145.75 310.12,-145.75 310.12,-145.75 316.12,-145.75 322.12,-151.75 322.12,-157.75 322.12,-157.75 322.12,-201.75 322.12,-201.75 322.12,-207.75 316.12,-213.75 310.12,-213.75"/>
<text xml:space="preserve" text-anchor="middle" x="265" y="-200.25" font-family="Arial" font-size="10.00" fill="white">Typography Scale</text>
<text xml:space="preserve" text-anchor="middle" x="265" y="-188.25" font-family="Arial" font-size="10.00" fill="white">Curated Font Pairings</text>
<text xml:space="preserve" text-anchor="middle" x="265" y="-176.25" font-family="Arial" font-size="10.00" fill="white">Space Grotesk / Outfit</text>
<text xml:space="preserve" text-anchor="middle" x="265" y="-164.25" font-family="Arial" font-size="10.00" fill="white">Instrument Serif</text>
<text xml:space="preserve" text-anchor="middle" x="265" y="-152.25" font-family="Arial" font-size="10.00" fill="white">No Inter / Roboto</text>
</g>
<!-- skill_apply&#45;&gt;typography_transform -->
<g id="edge8" class="edge">
<title>skill_apply&#45;&gt;typography_transform</title>
<path fill="none" stroke="#2196f3" stroke-width="1.5" d="M381.47,-276.75C333.7,-276.75 278.12,-276.75 278.12,-276.75 278.12,-276.75 278.12,-224.49 278.12,-224.49"/>
<polygon fill="#2196f3" stroke="#2196f3" stroke-width="1.5" points="280.93,-224.49 278.13,-216.49 275.33,-224.49 280.93,-224.49"/>
<text xml:space="preserve" text-anchor="middle" x="288.67" y="-278.7" font-family="Arial" font-size="9.00" fill="#2196f3">applies</text>
</g>
<!-- layout_transform -->
<g id="node10" class="node">
<title>layout_transform</title>
<path fill="#2196f3" stroke="black" d="M449.88,-213.75C449.88,-213.75 352.12,-213.75 352.12,-213.75 346.12,-213.75 340.12,-207.75 340.12,-201.75 340.12,-201.75 340.12,-157.75 340.12,-157.75 340.12,-151.75 346.12,-145.75 352.12,-145.75 352.12,-145.75 449.88,-145.75 449.88,-145.75 455.88,-145.75 461.88,-151.75 461.88,-157.75 461.88,-157.75 461.88,-201.75 461.88,-201.75 461.88,-207.75 455.88,-213.75 449.88,-213.75"/>
<text xml:space="preserve" text-anchor="middle" x="401" y="-200.25" font-family="Arial" font-size="10.00" fill="white">Layout Rules</text>
<text xml:space="preserve" text-anchor="middle" x="401" y="-188.25" font-family="Arial" font-size="10.00" fill="white">Editorial Magazine Style</text>
<text xml:space="preserve" text-anchor="middle" x="401" y="-176.25" font-family="Arial" font-size="10.00" fill="white">Grid Compositions</text>
<text xml:space="preserve" text-anchor="middle" x="401" y="-164.25" font-family="Arial" font-size="10.00" fill="white">Asymmetric Designs</text>
<text xml:space="preserve" text-anchor="middle" x="401" y="-152.25" font-family="Arial" font-size="10.00" fill="white">Typographic Hierarchy</text>
</g>
<!-- skill_apply&#45;&gt;layout_transform -->
<g id="edge9" class="edge">
<title>skill_apply&#45;&gt;layout_transform</title>
<path fill="none" stroke="#2196f3" stroke-width="1.5" d="M421.81,-263.49C421.81,-263.49 421.81,-224.16 421.81,-224.16"/>
<polygon fill="#2196f3" stroke="#2196f3" stroke-width="1.5" points="424.61,-224.16 421.81,-216.16 419.01,-224.16 424.61,-224.16"/>
<text xml:space="preserve" text-anchor="middle" x="406.81" y="-245.77" font-family="Arial" font-size="9.00" fill="#2196f3">applies</text>
</g>
<!-- motion_transform -->
<g id="node11" class="node">
<title>motion_transform</title>
<path fill="#2196f3" stroke="black" d="M577.88,-213.75C577.88,-213.75 492.12,-213.75 492.12,-213.75 486.12,-213.75 480.12,-207.75 480.12,-201.75 480.12,-201.75 480.12,-157.75 480.12,-157.75 480.12,-151.75 486.12,-145.75 492.12,-145.75 492.12,-145.75 577.88,-145.75 577.88,-145.75 583.88,-145.75 589.88,-151.75 589.88,-157.75 589.88,-157.75 589.88,-201.75 589.88,-201.75 589.88,-207.75 583.88,-213.75 577.88,-213.75"/>
<text xml:space="preserve" text-anchor="middle" x="535" y="-200.25" font-family="Arial" font-size="10.00" fill="white">Animation Library</text>
<text xml:space="preserve" text-anchor="middle" x="535" y="-188.25" font-family="Arial" font-size="10.00" fill="white">CSS Transitions First</text>
<text xml:space="preserve" text-anchor="middle" x="535" y="-176.25" font-family="Arial" font-size="10.00" fill="white">React State + RAF</text>
<text xml:space="preserve" text-anchor="middle" x="535" y="-164.25" font-family="Arial" font-size="10.00" fill="white">Timeline Engine</text>
<text xml:space="preserve" text-anchor="middle" x="535" y="-152.25" font-family="Arial" font-size="10.00" fill="white">No Heavy Libraries</text>
</g>
<!-- skill_apply&#45;&gt;motion_transform -->
<g id="edge10" class="edge">
<title>skill_apply&#45;&gt;motion_transform</title>
<path fill="none" stroke="#2196f3" stroke-width="1.5" d="M498.19,-263.49C498.19,-263.49 498.19,-224.16 498.19,-224.16"/>
<polygon fill="#2196f3" stroke="#2196f3" stroke-width="1.5" points="500.99,-224.16 498.19,-216.16 495.39,-224.16 500.99,-224.16"/>
<text xml:space="preserve" text-anchor="middle" x="483.19" y="-245.77" font-family="Arial" font-size="9.00" fill="#2196f3">applies</text>
</g>
<!-- content_transform -->
<g id="node12" class="node">
<title>content_transform</title>
<path fill="#2196f3" stroke="black" d="M708,-213.75C708,-213.75 620,-213.75 620,-213.75 614,-213.75 608,-207.75 608,-201.75 608,-201.75 608,-157.75 608,-157.75 608,-151.75 614,-145.75 620,-145.75 620,-145.75 708,-145.75 708,-145.75 714,-145.75 720,-151.75 720,-157.75 720,-157.75 720,-201.75 720,-201.75 720,-207.75 714,-213.75 708,-213.75"/>
<text xml:space="preserve" text-anchor="middle" x="664" y="-200.25" font-family="Arial" font-size="10.00" fill="white">Content Principles</text>
<text xml:space="preserve" text-anchor="middle" x="664" y="-188.25" font-family="Arial" font-size="10.00" fill="white">No Filler Content</text>
<text xml:space="preserve" text-anchor="middle" x="664" y="-176.25" font-family="Arial" font-size="10.00" fill="white">Placeholders &gt; Fakes</text>
<text xml:space="preserve" text-anchor="middle" x="664" y="-164.25" font-family="Arial" font-size="10.00" fill="white">Less is More</text>
<text xml:space="preserve" text-anchor="middle" x="664" y="-152.25" font-family="Arial" font-size="10.00" fill="white">Whitespace is Design</text>
</g>
<!-- skill_apply&#45;&gt;content_transform -->
<g id="edge11" class="edge">
<title>skill_apply&#45;&gt;content_transform</title>
<path fill="none" stroke="#2196f3" stroke-width="1.5" d="M516.6,-276.75C577.09,-276.75 656.31,-276.75 656.31,-276.75 656.31,-276.75 656.31,-224.49 656.31,-224.49"/>
<polygon fill="#2196f3" stroke="#2196f3" stroke-width="1.5" points="659.11,-224.49 656.31,-216.49 653.51,-224.49 659.11,-224.49"/>
<text xml:space="preserve" text-anchor="middle" x="597.58" y="-278.7" font-family="Arial" font-size="9.00" fill="#2196f3">applies</text>
</g>
<!-- anti_cliche_transform -->
<g id="node13" class="node">
<title>anti_cliche_transform</title>
<path fill="#2196f3" stroke="black" d="M853.5,-213.75C853.5,-213.75 750.5,-213.75 750.5,-213.75 744.5,-213.75 738.5,-207.75 738.5,-201.75 738.5,-201.75 738.5,-157.75 738.5,-157.75 738.5,-151.75 744.5,-145.75 750.5,-145.75 750.5,-145.75 853.5,-145.75 853.5,-145.75 859.5,-145.75 865.5,-151.75 865.5,-157.75 865.5,-157.75 865.5,-201.75 865.5,-201.75 865.5,-207.75 859.5,-213.75 853.5,-213.75"/>
<text xml:space="preserve" text-anchor="middle" x="802" y="-200.25" font-family="Arial" font-size="10.00" fill="white">Anti&#45;Cliche Enforcement</text>
<text xml:space="preserve" text-anchor="middle" x="802" y="-188.25" font-family="Arial" font-size="10.00" fill="white">No Purple&#45;Pink Gradients</text>
<text xml:space="preserve" text-anchor="middle" x="802" y="-176.25" font-family="Arial" font-size="10.00" fill="white">No Left&#45;Border Cards</text>
<text xml:space="preserve" text-anchor="middle" x="802" y="-164.25" font-family="Arial" font-size="10.00" fill="white">No Emoji Substitutes</text>
<text xml:space="preserve" text-anchor="middle" x="802" y="-152.25" font-family="Arial" font-size="10.00" fill="white">No Data Slop</text>
</g>
<!-- skill_apply&#45;&gt;anti_cliche_transform -->
<g id="edge12" class="edge">
<title>skill_apply&#45;&gt;anti_cliche_transform</title>
<path fill="none" stroke="#2196f3" stroke-width="1.5" d="M516.36,-289.75C612.59,-289.75 777.94,-289.75 777.94,-289.75 777.94,-289.75 777.94,-224.22 777.94,-224.22"/>
<polygon fill="#2196f3" stroke="#2196f3" stroke-width="1.5" points="780.74,-224.22 777.94,-216.22 775.14,-224.22 780.74,-224.22"/>
<text xml:space="preserve" text-anchor="middle" x="664.91" y="-291.7" font-family="Arial" font-size="9.00" fill="#2196f3">applies</text>
</g>
<!-- oklch_tokens -->
<g id="node14" class="node">
<title>oklch_tokens</title>
<path fill="#4caf50" stroke="black" d="M174.88,-95.75C174.88,-95.75 77.12,-95.75 77.12,-95.75 71.12,-95.75 65.12,-89.75 65.12,-83.75 65.12,-83.75 65.12,-51.75 65.12,-51.75 65.12,-45.75 71.12,-39.75 77.12,-39.75 77.12,-39.75 174.88,-39.75 174.88,-39.75 180.88,-39.75 186.88,-45.75 186.88,-51.75 186.88,-51.75 186.88,-83.75 186.88,-83.75 186.88,-89.75 180.88,-95.75 174.88,-95.75"/>
<text xml:space="preserve" text-anchor="middle" x="126" y="-82.25" font-family="Arial" font-size="10.00" fill="white">oklch Token System</text>
<text xml:space="preserve" text-anchor="middle" x="126" y="-70.25" font-family="Arial" font-size="10.00" fill="white">CSS Custom Properties</text>
<text xml:space="preserve" text-anchor="middle" x="126" y="-58.25" font-family="Arial" font-size="10.00" fill="white">Harmonious Palette</text>
<text xml:space="preserve" text-anchor="middle" x="126" y="-46.25" font-family="Arial" font-size="10.00" fill="white">Semantic Color Names</text>
</g>
<!-- color_transform&#45;&gt;oklch_tokens -->
<g id="edge13" class="edge">
<title>color_transform&#45;&gt;oklch_tokens</title>
<path fill="none" stroke="#4caf50" stroke-width="1.5" d="M126,-145.54C126,-145.54 126,-106.38 126,-106.38"/>
<polygon fill="#4caf50" stroke="#4caf50" stroke-width="1.5" points="128.8,-106.38 126,-98.38 123.2,-106.38 128.8,-106.38"/>
<text xml:space="preserve" text-anchor="middle" x="106.88" y="-127.91" font-family="Arial" font-size="9.00" fill="#4caf50">produces</text>
</g>
<!-- curated_fonts -->
<g id="node15" class="node">
<title>curated_fonts</title>
<path fill="#4caf50" stroke="black" d="M300.75,-95.75C300.75,-95.75 217.25,-95.75 217.25,-95.75 211.25,-95.75 205.25,-89.75 205.25,-83.75 205.25,-83.75 205.25,-51.75 205.25,-51.75 205.25,-45.75 211.25,-39.75 217.25,-39.75 217.25,-39.75 300.75,-39.75 300.75,-39.75 306.75,-39.75 312.75,-45.75 312.75,-51.75 312.75,-51.75 312.75,-83.75 312.75,-83.75 312.75,-89.75 306.75,-95.75 300.75,-95.75"/>
<text xml:space="preserve" text-anchor="middle" x="259" y="-82.25" font-family="Arial" font-size="10.00" fill="white">Curated Font Stack</text>
<text xml:space="preserve" text-anchor="middle" x="259" y="-70.25" font-family="Arial" font-size="10.00" fill="white">Display + UI + Mono</text>
<text xml:space="preserve" text-anchor="middle" x="259" y="-58.25" font-family="Arial" font-size="10.00" fill="white">Personality Fit</text>
<text xml:space="preserve" text-anchor="middle" x="259" y="-46.25" font-family="Arial" font-size="10.00" fill="white">Brand&#45;Appropriate</text>
</g>
<!-- typography_transform&#45;&gt;curated_fonts -->
<g id="edge14" class="edge">
<title>typography_transform&#45;&gt;curated_fonts</title>
<path fill="none" stroke="#4caf50" stroke-width="1.5" d="M260.31,-145.54C260.31,-145.54 260.31,-106.38 260.31,-106.38"/>
<polygon fill="#4caf50" stroke="#4caf50" stroke-width="1.5" points="263.11,-106.38 260.31,-98.38 257.51,-106.38 263.11,-106.38"/>
<text xml:space="preserve" text-anchor="middle" x="241.19" y="-127.91" font-family="Arial" font-size="9.00" fill="#4caf50">produces</text>
</g>
<!-- editorial_layout -->
<g id="node16" class="node">
<title>editorial_layout</title>
<path fill="#4caf50" stroke="black" d="M450.75,-95.75C450.75,-95.75 343.25,-95.75 343.25,-95.75 337.25,-95.75 331.25,-89.75 331.25,-83.75 331.25,-83.75 331.25,-51.75 331.25,-51.75 331.25,-45.75 337.25,-39.75 343.25,-39.75 343.25,-39.75 450.75,-39.75 450.75,-39.75 456.75,-39.75 462.75,-45.75 462.75,-51.75 462.75,-51.75 462.75,-83.75 462.75,-83.75 462.75,-89.75 456.75,-95.75 450.75,-95.75"/>
<text xml:space="preserve" text-anchor="middle" x="397" y="-82.25" font-family="Arial" font-size="10.00" fill="white">Editorial Layout</text>
<text xml:space="preserve" text-anchor="middle" x="397" y="-70.25" font-family="Arial" font-size="10.00" fill="white">Magazine&#45;Style Grids</text>
<text xml:space="preserve" text-anchor="middle" x="397" y="-58.25" font-family="Arial" font-size="10.00" fill="white">Numbered Sections</text>
<text xml:space="preserve" text-anchor="middle" x="397" y="-46.25" font-family="Arial" font-size="10.00" fill="white">Asymmetric Compositions</text>
</g>
<!-- layout_transform&#45;&gt;editorial_layout -->
<g id="edge15" class="edge">
<title>layout_transform&#45;&gt;editorial_layout</title>
<path fill="none" stroke="#4caf50" stroke-width="1.5" d="M401,-145.54C401,-145.54 401,-106.38 401,-106.38"/>
<polygon fill="#4caf50" stroke="#4caf50" stroke-width="1.5" points="403.8,-106.38 401,-98.38 398.2,-106.38 403.8,-106.38"/>
<text xml:space="preserve" text-anchor="middle" x="381.88" y="-127.91" font-family="Arial" font-size="9.00" fill="#4caf50">produces</text>
</g>
<!-- restrained_motion -->
<g id="node17" class="node">
<title>restrained_motion</title>
<path fill="#4caf50" stroke="black" d="M584.88,-95.75C584.88,-95.75 493.12,-95.75 493.12,-95.75 487.12,-95.75 481.12,-89.75 481.12,-83.75 481.12,-83.75 481.12,-51.75 481.12,-51.75 481.12,-45.75 487.12,-39.75 493.12,-39.75 493.12,-39.75 584.88,-39.75 584.88,-39.75 590.88,-39.75 596.88,-45.75 596.88,-51.75 596.88,-51.75 596.88,-83.75 596.88,-83.75 596.88,-89.75 590.88,-95.75 584.88,-95.75"/>
<text xml:space="preserve" text-anchor="middle" x="539" y="-82.25" font-family="Arial" font-size="10.00" fill="white">Restrained Motion</text>
<text xml:space="preserve" text-anchor="middle" x="539" y="-70.25" font-family="Arial" font-size="10.00" fill="white">Ken Burns / Film Grain</text>
<text xml:space="preserve" text-anchor="middle" x="539" y="-58.25" font-family="Arial" font-size="10.00" fill="white">mix&#45;blend&#45;mode</text>
<text xml:space="preserve" text-anchor="middle" x="539" y="-46.25" font-family="Arial" font-size="10.00" fill="white">Backdrop Filters</text>
</g>
<!-- motion_transform&#45;&gt;restrained_motion -->
<g id="edge16" class="edge">
<title>motion_transform&#45;&gt;restrained_motion</title>
<path fill="none" stroke="#4caf50" stroke-width="1.5" d="M535.5,-145.54C535.5,-145.54 535.5,-106.38 535.5,-106.38"/>
<polygon fill="#4caf50" stroke="#4caf50" stroke-width="1.5" points="538.3,-106.38 535.5,-98.38 532.7,-106.38 538.3,-106.38"/>
<text xml:space="preserve" text-anchor="middle" x="516.38" y="-127.91" font-family="Arial" font-size="9.00" fill="#4caf50">produces</text>
</g>
<!-- honest_content -->
<g id="node18" class="node">
<title>honest_content</title>
<path fill="#4caf50" stroke="black" d="M706.88,-95.75C706.88,-95.75 627.12,-95.75 627.12,-95.75 621.12,-95.75 615.12,-89.75 615.12,-83.75 615.12,-83.75 615.12,-51.75 615.12,-51.75 615.12,-45.75 621.12,-39.75 627.12,-39.75 627.12,-39.75 706.88,-39.75 706.88,-39.75 712.88,-39.75 718.88,-45.75 718.88,-51.75 718.88,-51.75 718.88,-83.75 718.88,-83.75 718.88,-89.75 712.88,-95.75 706.88,-95.75"/>
<text xml:space="preserve" text-anchor="middle" x="667" y="-82.25" font-family="Arial" font-size="10.00" fill="white">Honest Content</text>
<text xml:space="preserve" text-anchor="middle" x="667" y="-70.25" font-family="Arial" font-size="10.00" fill="white">[icon] Placeholders</text>
<text xml:space="preserve" text-anchor="middle" x="667" y="-58.25" font-family="Arial" font-size="10.00" fill="white">No Fabricated Stats</text>
<text xml:space="preserve" text-anchor="middle" x="667" y="-46.25" font-family="Arial" font-size="10.00" fill="white">Real Data Only</text>
</g>
<!-- content_transform&#45;&gt;honest_content -->
<g id="edge17" class="edge">
<title>content_transform&#45;&gt;honest_content</title>
<path fill="none" stroke="#4caf50" stroke-width="1.5" d="M667,-145.54C667,-145.54 667,-106.38 667,-106.38"/>
<polygon fill="#4caf50" stroke="#4caf50" stroke-width="1.5" points="669.8,-106.38 667,-98.38 664.2,-106.38 669.8,-106.38"/>
<text xml:space="preserve" text-anchor="middle" x="647.88" y="-127.91" font-family="Arial" font-size="9.00" fill="#4caf50">produces</text>
</g>
<!-- professional_feel -->
<g id="node19" class="node">
<title>professional_feel</title>
<path fill="#4caf50" stroke="black" d="M839.12,-95.75C839.12,-95.75 748.88,-95.75 748.88,-95.75 742.88,-95.75 736.88,-89.75 736.88,-83.75 736.88,-83.75 736.88,-51.75 736.88,-51.75 736.88,-45.75 742.88,-39.75 748.88,-39.75 748.88,-39.75 839.12,-39.75 839.12,-39.75 845.12,-39.75 851.12,-45.75 851.12,-51.75 851.12,-51.75 851.12,-83.75 851.12,-83.75 851.12,-89.75 845.12,-95.75 839.12,-95.75"/>
<text xml:space="preserve" text-anchor="middle" x="794" y="-82.25" font-family="Arial" font-size="10.00" fill="white">Professional Feel</text>
<text xml:space="preserve" text-anchor="middle" x="794" y="-70.25" font-family="Arial" font-size="10.00" fill="white">Experienced Director</text>
<text xml:space="preserve" text-anchor="middle" x="794" y="-58.25" font-family="Arial" font-size="10.00" fill="white">Not Junior Designer</text>
<text xml:space="preserve" text-anchor="middle" x="794" y="-46.25" font-family="Arial" font-size="10.00" fill="white">Every Pixel Intentional</text>
</g>
<!-- anti_cliche_transform&#45;&gt;professional_feel -->
<g id="edge18" class="edge">
<title>anti_cliche_transform&#45;&gt;professional_feel</title>
<path fill="none" stroke="#4caf50" stroke-width="1.5" d="M794.81,-145.54C794.81,-145.54 794.81,-106.38 794.81,-106.38"/>
<polygon fill="#4caf50" stroke="#4caf50" stroke-width="1.5" points="797.61,-106.38 794.81,-98.38 792.01,-106.38 797.61,-106.38"/>
<text xml:space="preserve" text-anchor="middle" x="775.69" y="-127.91" font-family="Arial" font-size="9.00" fill="#4caf50">produces</text>
</g>
</g>
</svg>
