<?xml version="1.0" encoding="UTF-8" standalone="no"?>
<!DOCTYPE svg PUBLIC "-//W3C//DTD SVG 1.1//EN"
 "http://www.w3.org/Graphics/SVG/1.1/DTD/svg11.dtd">
<!-- Generated by graphviz version 14.1.2 (0)
 -->
<!-- Title: insomnia_plugin_system Pages: 1 -->
<svg width="530pt" height="716pt"
 viewBox="0.00 0.00 530.00 716.00" xmlns="http://www.w3.org/2000/svg" xmlns:xlink="http://www.w3.org/1999/xlink">
<style>
<!-- White text halo for edge label readability -->
text { paint-order: stroke; stroke: #ffffff; stroke-width: 3px; stroke-linejoin: round; fill: #1a1a2e; }
</style>
<g id="graph0" class="graph" transform="scale(1 1) rotate(0) translate(4 712)">
<title>insomnia_plugin_system</title>
<polygon fill="white" stroke="none" points="-4,4 -4,-712 526.44,-712 526.44,4 -4,4"/>
<g id="clust1" class="cluster">
<title>cluster_api</title>
<polygon fill="#e3f2fd" stroke="black" points="163,-368.5 163,-552 479,-552 479,-368.5 163,-368.5"/>
<text xml:space="preserve" text-anchor="middle" x="321" y="-534.7" font-family="Times New Roman,serif" font-size="14.00">Plugin API (src/plugins)</text>
</g>
<g id="clust2" class="cluster">
<title>cluster_execution</title>
<polygon fill="#f3e5f5" stroke="black" points="8,-180.5 8,-351 361,-351 361,-180.5 8,-180.5"/>
<text xml:space="preserve" text-anchor="middle" x="184.5" y="-333.7" font-family="Times New Roman,serif" font-size="14.00">Hook Execution Engine</text>
</g>
<!-- developer -->
<g id="node1" class="node">
<title>developer</title>
<path fill="#4caf50" stroke="black" d="M364.75,-708C364.75,-708 281.25,-708 281.25,-708 275.25,-708 269.25,-702 269.25,-696 269.25,-696 269.25,-684 269.25,-684 269.25,-678 275.25,-672 281.25,-672 281.25,-672 364.75,-672 364.75,-672 370.75,-672 376.75,-678 376.75,-684 376.75,-684 376.75,-696 376.75,-696 376.75,-702 370.75,-708 364.75,-708"/>
<text xml:space="preserve" text-anchor="middle" x="323" y="-693.05" font-family="Arial" font-size="11.00" fill="white">Plugin Developer</text>
<text xml:space="preserve" text-anchor="middle" x="323" y="-679.55" font-family="Arial" font-size="11.00" fill="white">Writes NPM Plugin</text>
</g>
<!-- manifest -->
<g id="node2" class="node">
<title>manifest</title>
<path fill="#2196f3" stroke="black" d="M424.75,-614C424.75,-614 221.25,-614 221.25,-614 215.25,-614 209.25,-608 209.25,-602 209.25,-602 209.25,-589.5 209.25,-589.5 209.25,-583.5 215.25,-577.5 221.25,-577.5 221.25,-577.5 424.75,-577.5 424.75,-577.5 430.75,-577.5 436.75,-583.5 436.75,-589.5 436.75,-589.5 436.75,-602 436.75,-602 436.75,-608 430.75,-614 424.75,-614"/>
<text xml:space="preserve" text-anchor="middle" x="323" y="-598.6" font-family="Arial Bold" font-size="12.00" fill="white">Plugin Manifest</text>
<text xml:space="preserve" text-anchor="middle" x="323" y="-584.35" font-family="Arial Bold" font-size="12.00" fill="white">package.json + insomnia plugin spec</text>
</g>
<!-- developer&#45;&gt;manifest -->
<g id="edge1" class="edge">
<title>developer&#45;&gt;manifest</title>
<path fill="none" stroke="#4caf50" stroke-width="2" d="M323,-671.83C323,-671.83 323,-627.22 323,-627.22"/>
<polygon fill="#4caf50" stroke="#4caf50" stroke-width="2" points="326.5,-627.22 323,-617.22 319.5,-627.22 326.5,-627.22"/>
<text xml:space="preserve" text-anchor="middle" x="304.25" y="-652.72" font-family="Times New Roman,serif" font-size="14.00" fill="#4caf50">creates</text>
</g>
<!-- context -->
<g id="node3" class="node">
<title>context</title>
<path fill="#2196f3" stroke="black" d="M374.88,-519.5C374.88,-519.5 271.12,-519.5 271.12,-519.5 265.12,-519.5 259.12,-513.5 259.12,-507.5 259.12,-507.5 259.12,-495 259.12,-495 259.12,-489 265.12,-483 271.12,-483 271.12,-483 374.88,-483 374.88,-483 380.88,-483 386.88,-489 386.88,-495 386.88,-495 386.88,-507.5 386.88,-507.5 386.88,-513.5 380.88,-519.5 374.88,-519.5"/>
<text xml:space="preserve" text-anchor="middle" x="323" y="-504.1" font-family="Arial Bold" font-size="12.00" fill="white">Plugin Context</text>
<text xml:space="preserve" text-anchor="middle" x="323" y="-489.85" font-family="Arial Bold" font-size="12.00" fill="white">App Context Object</text>
</g>
<!-- manifest&#45;&gt;context -->
<g id="edge2" class="edge">
<title>manifest&#45;&gt;context</title>
<path fill="none" stroke="#2196f3" stroke-width="2" d="M323,-577.08C323,-577.08 323,-532.91 323,-532.91"/>
<polygon fill="#2196f3" stroke="#2196f3" stroke-width="2" points="326.5,-532.91 323,-522.91 319.5,-532.91 326.5,-532.91"/>
<text xml:space="preserve" text-anchor="middle" x="282.12" y="-558.19" font-family="Times New Roman,serif" font-size="14.00" fill="#2196f3">initialized with</text>
</g>
<!-- hooks -->
<g id="node4" class="node">
<title>hooks</title>
<path fill="#ff9800" stroke="black" d="M297.12,-425C297.12,-425 182.88,-425 182.88,-425 176.88,-425 170.88,-419 170.88,-413 170.88,-413 170.88,-388.5 170.88,-388.5 170.88,-382.5 176.88,-376.5 182.88,-376.5 182.88,-376.5 297.12,-376.5 297.12,-376.5 303.12,-376.5 309.12,-382.5 309.12,-388.5 309.12,-388.5 309.12,-413 309.12,-413 309.12,-419 303.12,-425 297.12,-425"/>
<text xml:space="preserve" text-anchor="middle" x="240" y="-410.55" font-family="Arial" font-size="11.00" fill="white">Hook Registration</text>
<text xml:space="preserve" text-anchor="middle" x="240" y="-397.05" font-family="Arial" font-size="11.00" fill="white">request.addRequestBody</text>
<text xml:space="preserve" text-anchor="middle" x="240" y="-383.55" font-family="Arial" font-size="11.00" fill="white">response.addTag etc</text>
</g>
<!-- context&#45;&gt;hooks -->
<g id="edge3" class="edge">
<title>context&#45;&gt;hooks</title>
<path fill="none" stroke="#ff9800" stroke-width="1.5" d="M284.12,-482.82C284.12,-482.82 284.12,-437.4 284.12,-437.4"/>
<polygon fill="#ff9800" stroke="#ff9800" stroke-width="1.5" points="287.63,-437.4 284.13,-427.4 280.63,-437.4 287.63,-437.4"/>
<text xml:space="preserve" text-anchor="middle" x="261.25" y="-463.31" font-family="Times New Roman,serif" font-size="14.00" fill="#ff9800">registers</text>
</g>
<!-- template_tag -->
<g id="node5" class="node">
<title>template_tag</title>
<path fill="#ff9800" stroke="black" d="M459.12,-418.75C459.12,-418.75 356.88,-418.75 356.88,-418.75 350.88,-418.75 344.88,-412.75 344.88,-406.75 344.88,-406.75 344.88,-394.75 344.88,-394.75 344.88,-388.75 350.88,-382.75 356.88,-382.75 356.88,-382.75 459.12,-382.75 459.12,-382.75 465.12,-382.75 471.12,-388.75 471.12,-394.75 471.12,-394.75 471.12,-406.75 471.12,-406.75 471.12,-412.75 465.12,-418.75 459.12,-418.75"/>
<text xml:space="preserve" text-anchor="middle" x="408" y="-403.8" font-family="Arial" font-size="11.00" fill="white">Template Tags</text>
<text xml:space="preserve" text-anchor="middle" x="408" y="-390.3" font-family="Arial" font-size="11.00" fill="white">Custom Nunjucks Tags</text>
</g>
<!-- context&#45;&gt;template_tag -->
<g id="edge4" class="edge">
<title>context&#45;&gt;template_tag</title>
<path fill="none" stroke="#ff9800" stroke-width="1.5" d="M365.88,-482.82C365.88,-482.82 365.88,-431.34 365.88,-431.34"/>
<polygon fill="#ff9800" stroke="#ff9800" stroke-width="1.5" points="369.38,-431.34 365.88,-421.34 362.38,-431.34 369.38,-431.34"/>
<text xml:space="preserve" text-anchor="middle" x="346.38" y="-460.28" font-family="Times New Roman,serif" font-size="14.00" fill="#ff9800">defines</text>
</g>
<!-- lifecycle -->
<g id="node6" class="node">
<title>lifecycle</title>
<path fill="#9c27b0" stroke="black" d="M303.88,-318.5C303.88,-318.5 176.12,-318.5 176.12,-318.5 170.12,-318.5 164.12,-312.5 164.12,-306.5 164.12,-306.5 164.12,-294.5 164.12,-294.5 164.12,-288.5 170.12,-282.5 176.12,-282.5 176.12,-282.5 303.88,-282.5 303.88,-282.5 309.88,-282.5 315.88,-288.5 315.88,-294.5 315.88,-294.5 315.88,-306.5 315.88,-306.5 315.88,-312.5 309.88,-318.5 303.88,-318.5"/>
<text xml:space="preserve" text-anchor="middle" x="240" y="-303.55" font-family="Arial" font-size="11.00" fill="white">Hook Execution</text>
<text xml:space="preserve" text-anchor="middle" x="240" y="-290.05" font-family="Arial" font-size="11.00" fill="white">Pre&#45;request / Post&#45;response</text>
</g>
<!-- hooks&#45;&gt;lifecycle -->
<g id="edge5" class="edge">
<title>hooks&#45;&gt;lifecycle</title>
<path fill="none" stroke="#9c27b0" stroke-width="2" d="M240,-376.23C240,-376.23 240,-331.82 240,-331.82"/>
<polygon fill="#9c27b0" stroke="#9c27b0" stroke-width="2" points="243.5,-331.82 240,-321.82 236.5,-331.82 243.5,-331.82"/>
<text xml:space="preserve" text-anchor="middle" x="219.38" y="-357.23" font-family="Times New Roman,serif" font-size="14.00" fill="#9c27b0">triggers</text>
</g>
<!-- app -->
<g id="node9" class="node">
<title>app</title>
<path fill="#2196f3" stroke="black" d="M330.38,-130.5C330.38,-130.5 217.62,-130.5 217.62,-130.5 211.62,-130.5 205.62,-124.5 205.62,-118.5 205.62,-118.5 205.62,-106 205.62,-106 205.62,-100 211.62,-94 217.62,-94 217.62,-94 330.38,-94 330.38,-94 336.38,-94 342.38,-100 342.38,-106 342.38,-106 342.38,-118.5 342.38,-118.5 342.38,-124.5 336.38,-130.5 330.38,-130.5"/>
<text xml:space="preserve" text-anchor="middle" x="274" y="-115.1" font-family="Arial Bold" font-size="12.00" fill="white">Insomnia Application</text>
<text xml:space="preserve" text-anchor="middle" x="274" y="-100.85" font-family="Arial Bold" font-size="12.00" fill="white">Electron + React</text>
</g>
<!-- template_tag&#45;&gt;app -->
<g id="edge10" class="edge">
<title>template_tag&#45;&gt;app</title>
<path fill="none" stroke="#ff9800" stroke-width="1.5" d="M412.19,-382.69C412.19,-319.47 412.19,-112 412.19,-112 412.19,-112 354.96,-112 354.96,-112"/>
<polygon fill="#ff9800" stroke="#ff9800" stroke-width="1.5" points="354.96,-108.5 344.96,-112 354.96,-115.5 354.96,-108.5"/>
<text xml:space="preserve" text-anchor="middle" x="467.31" y="-221.93" font-family="Times New Roman,serif" font-size="14.00" fill="#ff9800">renders in templates</text>
</g>
<!-- request_hook -->
<g id="node7" class="node">
<title>request_hook</title>
<path fill="#9c27b0" stroke="black" d="M146.38,-224.5C146.38,-224.5 27.62,-224.5 27.62,-224.5 21.62,-224.5 15.62,-218.5 15.62,-212.5 15.62,-212.5 15.62,-200.5 15.62,-200.5 15.62,-194.5 21.62,-188.5 27.62,-188.5 27.62,-188.5 146.38,-188.5 146.38,-188.5 152.38,-188.5 158.38,-194.5 158.38,-200.5 158.38,-200.5 158.38,-212.5 158.38,-212.5 158.38,-218.5 152.38,-224.5 146.38,-224.5"/>
<text xml:space="preserve" text-anchor="middle" x="87" y="-209.55" font-family="Arial" font-size="11.00" fill="white">Request Hooks</text>
<text xml:space="preserve" text-anchor="middle" x="87" y="-196.05" font-family="Arial" font-size="11.00" fill="white">Modify Outgoing Requests</text>
</g>
<!-- lifecycle&#45;&gt;request_hook -->
<g id="edge6" class="edge">
<title>lifecycle&#45;&gt;request_hook</title>
<path fill="none" stroke="#9c27b0" stroke-width="1.5" d="M179.44,-282.03C179.44,-254.78 179.44,-207 179.44,-207 179.44,-207 170.73,-207 170.73,-207"/>
<polygon fill="#9c27b0" stroke="#9c27b0" stroke-width="1.5" points="170.73,-203.5 160.73,-207 170.73,-210.5 170.73,-203.5"/>
<text xml:space="preserve" text-anchor="middle" x="149.06" y="-243.36" font-family="Times New Roman,serif" font-size="14.00" fill="#9c27b0">pre&#45;request</text>
</g>
<!-- response_hook -->
<g id="node8" class="node">
<title>response_hook</title>
<path fill="#9c27b0" stroke="black" d="M341.25,-224.5C341.25,-224.5 206.75,-224.5 206.75,-224.5 200.75,-224.5 194.75,-218.5 194.75,-212.5 194.75,-212.5 194.75,-200.5 194.75,-200.5 194.75,-194.5 200.75,-188.5 206.75,-188.5 206.75,-188.5 341.25,-188.5 341.25,-188.5 347.25,-188.5 353.25,-194.5 353.25,-200.5 353.25,-200.5 353.25,-212.5 353.25,-212.5 353.25,-218.5 347.25,-224.5 341.25,-224.5"/>
<text xml:space="preserve" text-anchor="middle" x="274" y="-209.55" font-family="Arial" font-size="11.00" fill="white">Response Hooks</text>
<text xml:space="preserve" text-anchor="middle" x="274" y="-196.05" font-family="Arial" font-size="11.00" fill="white">Process Incoming Responses</text>
</g>
<!-- lifecycle&#45;&gt;response_hook -->
<g id="edge7" class="edge">
<title>lifecycle&#45;&gt;response_hook</title>
<path fill="none" stroke="#9c27b0" stroke-width="1.5" d="M255.31,-282.38C255.31,-282.38 255.31,-237.16 255.31,-237.16"/>
<polygon fill="#9c27b0" stroke="#9c27b0" stroke-width="1.5" points="258.81,-237.16 255.31,-227.16 251.81,-237.16 258.81,-237.16"/>
<text xml:space="preserve" text-anchor="middle" x="218.19" y="-262.97" font-family="Times New Roman,serif" font-size="14.00" fill="#9c27b0">post&#45;response</text>
</g>
<!-- request_hook&#45;&gt;app -->
<g id="edge8" class="edge">
<title>request_hook&#45;&gt;app</title>
<path fill="none" stroke="#9c27b0" stroke-width="1.5" d="M87,-188.28C87,-160.82 87,-112 87,-112 87,-112 192.89,-112 192.89,-112"/>
<polygon fill="#9c27b0" stroke="#9c27b0" stroke-width="1.5" points="192.89,-115.5 202.89,-112 192.89,-108.5 192.89,-115.5"/>
<text xml:space="preserve" text-anchor="middle" x="56.43" y="-115.2" font-family="Times New Roman,serif" font-size="14.00" fill="#9c27b0">modifies request</text>
</g>
<!-- response_hook&#45;&gt;app -->
<g id="edge9" class="edge">
<title>response_hook&#45;&gt;app</title>
<path fill="none" stroke="#9c27b0" stroke-width="1.5" d="M274,-188.33C274,-188.33 274,-142.96 274,-142.96"/>
<polygon fill="#9c27b0" stroke="#9c27b0" stroke-width="1.5" points="277.5,-142.96 274,-132.96 270.5,-142.96 277.5,-142.96"/>
<text xml:space="preserve" text-anchor="middle" x="222.62" y="-168.84" font-family="Times New Roman,serif" font-size="14.00" fill="#9c27b0">processes response</text>
</g>
<!-- output -->
<g id="node10" class="node">
<title>output</title>
<path fill="#f44336" stroke="black" d="M324.38,-36C324.38,-36 223.62,-36 223.62,-36 217.62,-36 211.62,-30 211.62,-24 211.62,-24 211.62,-12 211.62,-12 211.62,-6 217.62,0 223.62,0 223.62,0 324.38,0 324.38,0 330.38,0 336.38,-6 336.38,-12 336.38,-12 336.38,-24 336.38,-24 336.38,-30 330.38,-36 324.38,-36"/>
<text xml:space="preserve" text-anchor="middle" x="274" y="-21.05" font-family="Arial" font-size="11.00" fill="white">Extended Functionality</text>
<text xml:space="preserve" text-anchor="middle" x="274" y="-7.55" font-family="Arial" font-size="11.00" fill="white">Custom Workflows</text>
</g>
<!-- app&#45;&gt;output -->
<g id="edge11" class="edge">
<title>app&#45;&gt;output</title>
<path fill="none" stroke="#f44336" stroke-width="2" d="M274,-93.63C274,-93.63 274,-49.29 274,-49.29"/>
<polygon fill="#f44336" stroke="#f44336" stroke-width="2" points="277.5,-49.29 274,-39.29 270.5,-49.29 277.5,-49.29"/>
<text xml:space="preserve" text-anchor="middle" x="224.12" y="-74.66" font-family="Times New Roman,serif" font-size="14.00" fill="#f44336">extended behavior</text>
</g>
</g>
</svg>
