<?xml version="1.0" encoding="UTF-8" standalone="no"?>
<!DOCTYPE svg PUBLIC "-//W3C//DTD SVG 1.1//EN"
 "http://www.w3.org/Graphics/SVG/1.1/DTD/svg11.dtd">
<!-- Generated by graphviz version 14.1.2 (0)
 -->
<!-- Title: insomnia_protocol_support Pages: 1 -->
<svg width="1093pt" height="334pt"
 viewBox="0.00 0.00 1093.00 334.00" xmlns="http://www.w3.org/2000/svg" xmlns:xlink="http://www.w3.org/1999/xlink">
<style>
<!-- White text halo for edge label readability -->
text { paint-order: stroke; stroke: #ffffff; stroke-width: 3px; stroke-linejoin: round; fill: #1a1a2e; }
</style>
<g id="graph0" class="graph" transform="scale(1 1) rotate(0) translate(4 329.5)">
<title>insomnia_protocol_support</title>
<polygon fill="white" stroke="none" points="-4,4 -4,-329.5 1088.62,-329.5 1088.62,4 -4,4"/>
<g id="clust1" class="cluster">
<title>cluster_protocols</title>
<polygon fill="#e8f5e9" stroke="black" points="8,-180 8,-256.5 905,-256.5 905,-180 8,-180"/>
<text xml:space="preserve" text-anchor="middle" x="456.5" y="-239.2" font-family="Times New Roman,serif" font-size="14.00">Supported Protocols</text>
</g>
<!-- ui -->
<g id="node1" class="node">
<title>ui</title>
<path fill="#2196f3" stroke="black" d="M714.62,-318.5C714.62,-318.5 633.38,-318.5 633.38,-318.5 627.38,-318.5 621.38,-312.5 621.38,-306.5 621.38,-306.5 621.38,-294 621.38,-294 621.38,-288 627.38,-282 633.38,-282 633.38,-282 714.62,-282 714.62,-282 720.62,-282 726.62,-288 726.62,-294 726.62,-294 726.62,-306.5 726.62,-306.5 726.62,-312.5 720.62,-318.5 714.62,-318.5"/>
<text xml:space="preserve" text-anchor="middle" x="674" y="-303.1" font-family="Arial Bold" font-size="12.00" fill="white">Insomnia UI</text>
<text xml:space="preserve" text-anchor="middle" x="674" y="-288.85" font-family="Arial Bold" font-size="12.00" fill="white">React Renderer</text>
</g>
<!-- graphql -->
<g id="node2" class="node">
<title>graphql</title>
<path fill="#4caf50" stroke="black" d="M180.25,-224C180.25,-224 27.75,-224 27.75,-224 21.75,-224 15.75,-218 15.75,-212 15.75,-212 15.75,-200 15.75,-200 15.75,-194 21.75,-188 27.75,-188 27.75,-188 180.25,-188 180.25,-188 186.25,-188 192.25,-194 192.25,-200 192.25,-200 192.25,-212 192.25,-212 192.25,-218 186.25,-224 180.25,-224"/>
<text xml:space="preserve" text-anchor="middle" x="104" y="-209.05" font-family="Arial" font-size="11.00" fill="white">GraphQL</text>
<text xml:space="preserve" text-anchor="middle" x="104" y="-195.55" font-family="Arial" font-size="11.00" fill="white">Queries, Mutations, Subscriptions</text>
</g>
<!-- ui&#45;&gt;graphql -->
<g id="edge1" class="edge">
<title>ui&#45;&gt;graphql</title>
<path fill="none" stroke="#4caf50" stroke-width="2" d="M620.89,-309C479.39,-309 104,-309 104,-309 104,-309 104,-237.44 104,-237.44"/>
<polygon fill="#4caf50" stroke="#4caf50" stroke-width="2" points="107.5,-237.44 104,-227.44 100.5,-237.44 107.5,-237.44"/>
<text xml:space="preserve" text-anchor="middle" x="311.66" y="-312.2" font-family="Times New Roman,serif" font-size="14.00" fill="#4caf50">sends</text>
</g>
<!-- rest -->
<g id="node3" class="node">
<title>rest</title>
<path fill="#4caf50" stroke="black" d="M407.38,-224C407.38,-224 240.62,-224 240.62,-224 234.62,-224 228.62,-218 228.62,-212 228.62,-212 228.62,-200 228.62,-200 228.62,-194 234.62,-188 240.62,-188 240.62,-188 407.38,-188 407.38,-188 413.38,-188 419.38,-194 419.38,-200 419.38,-200 419.38,-212 419.38,-212 419.38,-218 413.38,-224 407.38,-224"/>
<text xml:space="preserve" text-anchor="middle" x="324" y="-209.05" font-family="Arial" font-size="11.00" fill="white">REST</text>
<text xml:space="preserve" text-anchor="middle" x="324" y="-195.55" font-family="Arial" font-size="11.00" fill="white">GET, POST, PUT, DELETE, PATCH</text>
</g>
<!-- ui&#45;&gt;rest -->
<g id="edge2" class="edge">
<title>ui&#45;&gt;rest</title>
<path fill="none" stroke="#4caf50" stroke-width="2" d="M621.22,-300C523.45,-300 324,-300 324,-300 324,-300 324,-237.15 324,-237.15"/>
<polygon fill="#4caf50" stroke="#4caf50" stroke-width="2" points="327.5,-237.15 324,-227.15 320.5,-237.15 327.5,-237.15"/>
<text xml:space="preserve" text-anchor="middle" x="426.19" y="-303.2" font-family="Times New Roman,serif" font-size="14.00" fill="#4caf50">sends</text>
</g>
<!-- websockets -->
<g id="node4" class="node">
<title>websockets</title>
<path fill="#4caf50" stroke="black" d="M570.5,-224C570.5,-224 467.5,-224 467.5,-224 461.5,-224 455.5,-218 455.5,-212 455.5,-212 455.5,-200 455.5,-200 455.5,-194 461.5,-188 467.5,-188 467.5,-188 570.5,-188 570.5,-188 576.5,-188 582.5,-194 582.5,-200 582.5,-200 582.5,-212 582.5,-212 582.5,-218 576.5,-224 570.5,-224"/>
<text xml:space="preserve" text-anchor="middle" x="519" y="-209.05" font-family="Arial" font-size="11.00" fill="white">WebSockets</text>
<text xml:space="preserve" text-anchor="middle" x="519" y="-195.55" font-family="Arial" font-size="11.00" fill="white">Bidirectional Real&#45;Time</text>
</g>
<!-- ui&#45;&gt;websockets -->
<g id="edge3" class="edge">
<title>ui&#45;&gt;websockets</title>
<path fill="none" stroke="#4caf50" stroke-width="2" d="M621.09,-291C576.19,-291 519,-291 519,-291 519,-291 519,-237.47 519,-237.47"/>
<polygon fill="#4caf50" stroke="#4caf50" stroke-width="2" points="522.5,-237.47 519,-227.47 515.5,-237.47 522.5,-237.47"/>
<text xml:space="preserve" text-anchor="middle" x="519.66" y="-294.2" font-family="Times New Roman,serif" font-size="14.00" fill="#4caf50">connects</text>
</g>
<!-- sse -->
<g id="node5" class="node">
<title>sse</title>
<path fill="#4caf50" stroke="black" d="M717.25,-224C717.25,-224 630.75,-224 630.75,-224 624.75,-224 618.75,-218 618.75,-212 618.75,-212 618.75,-200 618.75,-200 618.75,-194 624.75,-188 630.75,-188 630.75,-188 717.25,-188 717.25,-188 723.25,-188 729.25,-194 729.25,-200 729.25,-200 729.25,-212 729.25,-212 729.25,-218 723.25,-224 717.25,-224"/>
<text xml:space="preserve" text-anchor="middle" x="674" y="-209.05" font-family="Arial" font-size="11.00" fill="white">SSE</text>
<text xml:space="preserve" text-anchor="middle" x="674" y="-195.55" font-family="Arial" font-size="11.00" fill="white">Server&#45;Sent Events</text>
</g>
<!-- ui&#45;&gt;sse -->
<g id="edge4" class="edge">
<title>ui&#45;&gt;sse</title>
<path fill="none" stroke="#4caf50" stroke-width="2" d="M674,-281.63C674,-281.63 674,-237.29 674,-237.29"/>
<polygon fill="#4caf50" stroke="#4caf50" stroke-width="2" points="677.5,-237.29 674,-227.29 670.5,-237.29 677.5,-237.29"/>
<text xml:space="preserve" text-anchor="middle" x="656.75" y="-262.66" font-family="Times New Roman,serif" font-size="14.00" fill="#4caf50">listens</text>
</g>
<!-- grpc -->
<g id="node6" class="node">
<title>grpc</title>
<path fill="#4caf50" stroke="black" d="M885.12,-224C885.12,-224 776.88,-224 776.88,-224 770.88,-224 764.88,-218 764.88,-212 764.88,-212 764.88,-200 764.88,-200 764.88,-194 770.88,-188 776.88,-188 776.88,-188 885.12,-188 885.12,-188 891.12,-188 897.12,-194 897.12,-200 897.12,-200 897.12,-212 897.12,-212 897.12,-218 891.12,-224 885.12,-224"/>
<text xml:space="preserve" text-anchor="middle" x="831" y="-209.05" font-family="Arial" font-size="11.00" fill="white">gRPC</text>
<text xml:space="preserve" text-anchor="middle" x="831" y="-195.55" font-family="Arial" font-size="11.00" fill="white">Unary, Streaming RPCs</text>
</g>
<!-- ui&#45;&gt;grpc -->
<g id="edge5" class="edge">
<title>ui&#45;&gt;grpc</title>
<path fill="none" stroke="#4caf50" stroke-width="2" d="M726.72,-291C772.33,-291 831,-291 831,-291 831,-291 831,-237.47 831,-237.47"/>
<polygon fill="#4caf50" stroke="#4caf50" stroke-width="2" points="834.5,-237.47 831,-227.47 827.5,-237.47 834.5,-237.47"/>
<text xml:space="preserve" text-anchor="middle" x="793.25" y="-294.2" font-family="Times New Roman,serif" font-size="14.00" fill="#4caf50">calls</text>
</g>
<!-- openapi -->
<g id="node8" class="node">
<title>openapi</title>
<path fill="#ff9800" stroke="black" d="M919.75,-130C919.75,-130 836.25,-130 836.25,-130 830.25,-130 824.25,-124 824.25,-118 824.25,-118 824.25,-106 824.25,-106 824.25,-100 830.25,-94 836.25,-94 836.25,-94 919.75,-94 919.75,-94 925.75,-94 931.75,-100 931.75,-106 931.75,-106 931.75,-118 931.75,-118 931.75,-124 925.75,-130 919.75,-130"/>
<text xml:space="preserve" text-anchor="middle" x="878" y="-115.05" font-family="Arial" font-size="11.00" fill="white">OpenAPI Editor</text>
<text xml:space="preserve" text-anchor="middle" x="878" y="-101.55" font-family="Arial" font-size="11.00" fill="white">Design&#45;First Specs</text>
</g>
<!-- ui&#45;&gt;openapi -->
<g id="edge11" class="edge">
<title>ui&#45;&gt;openapi</title>
<path fill="none" stroke="#ff9800" stroke-width="1.5" d="M727.06,-300C797.87,-300 914.44,-300 914.44,-300 914.44,-300 914.44,-142.64 914.44,-142.64"/>
<polygon fill="#ff9800" stroke="#ff9800" stroke-width="1.5" points="917.94,-142.64 914.44,-132.64 910.94,-142.64 917.94,-142.64"/>
<text xml:space="preserve" text-anchor="middle" x="879.18" y="-303.2" font-family="Times New Roman,serif" font-size="14.00" fill="#ff9800">designs</text>
</g>
<!-- mock -->
<g id="node9" class="node">
<title>mock</title>
<path fill="#ff9800" stroke="black" d="M1072.62,-130C1072.62,-130 979.38,-130 979.38,-130 973.38,-130 967.38,-124 967.38,-118 967.38,-118 967.38,-106 967.38,-106 967.38,-100 973.38,-94 979.38,-94 979.38,-94 1072.62,-94 1072.62,-94 1078.62,-94 1084.62,-100 1084.62,-106 1084.62,-106 1084.62,-118 1084.62,-118 1084.62,-124 1078.62,-130 1072.62,-130"/>
<text xml:space="preserve" text-anchor="middle" x="1026" y="-115.05" font-family="Arial" font-size="11.00" fill="white">Mock Server</text>
<text xml:space="preserve" text-anchor="middle" x="1026" y="-101.55" font-family="Arial" font-size="11.00" fill="white">Cloud or Self&#45;Hosted</text>
</g>
<!-- ui&#45;&gt;mock -->
<g id="edge12" class="edge">
<title>ui&#45;&gt;mock</title>
<path fill="none" stroke="#ff9800" stroke-width="1.5" d="M727.08,-309C825.41,-309 1026,-309 1026,-309 1026,-309 1026,-142.45 1026,-142.45"/>
<polygon fill="#ff9800" stroke="#ff9800" stroke-width="1.5" points="1029.5,-142.45 1026,-132.45 1022.5,-142.45 1029.5,-142.45"/>
<text xml:space="preserve" text-anchor="middle" x="941.81" y="-312.2" font-family="Times New Roman,serif" font-size="14.00" fill="#ff9800">mocks</text>
</g>
<!-- libcurl -->
<g id="node7" class="node">
<title>libcurl</title>
<path fill="#9c27b0" stroke="black" d="M625.25,-130C625.25,-130 568.75,-130 568.75,-130 562.75,-130 556.75,-124 556.75,-118 556.75,-118 556.75,-106 556.75,-106 556.75,-100 562.75,-94 568.75,-94 568.75,-94 625.25,-94 625.25,-94 631.25,-94 637.25,-100 637.25,-106 637.25,-106 637.25,-118 637.25,-118 637.25,-124 631.25,-130 625.25,-130"/>
<text xml:space="preserve" text-anchor="middle" x="597" y="-115.05" font-family="Arial" font-size="11.00" fill="white">libcurl Engine</text>
<text xml:space="preserve" text-anchor="middle" x="597" y="-101.55" font-family="Arial" font-size="11.00" fill="white">node&#45;libcurl</text>
</g>
<!-- graphql&#45;&gt;libcurl -->
<g id="edge6" class="edge">
<title>graphql&#45;&gt;libcurl</title>
<path fill="none" stroke="#9c27b0" stroke-width="1.5" d="M104,-187.66C104,-158.79 104,-106 104,-106 104,-106 544.39,-106 544.39,-106"/>
<polygon fill="#9c27b0" stroke="#9c27b0" stroke-width="1.5" points="544.39,-109.5 554.39,-106 544.39,-102.5 544.39,-109.5"/>
<text xml:space="preserve" text-anchor="middle" x="261.24" y="-109.2" font-family="Times New Roman,serif" font-size="14.00" fill="#9c27b0">HTTP/2</text>
</g>
<!-- rest&#45;&gt;libcurl -->
<g id="edge7" class="edge">
<title>rest&#45;&gt;libcurl</title>
<path fill="none" stroke="#9c27b0" stroke-width="1.5" d="M324,-187.77C324,-161.99 324,-118 324,-118 324,-118 544.15,-118 544.15,-118"/>
<polygon fill="#9c27b0" stroke="#9c27b0" stroke-width="1.5" points="544.15,-121.5 554.15,-118 544.15,-114.5 544.15,-121.5"/>
<text xml:space="preserve" text-anchor="middle" x="371.82" y="-121.2" font-family="Times New Roman,serif" font-size="14.00" fill="#9c27b0">HTTP/1.1</text>
</g>
<!-- websockets&#45;&gt;libcurl -->
<g id="edge8" class="edge">
<title>websockets&#45;&gt;libcurl</title>
<path fill="none" stroke="#9c27b0" stroke-width="1.5" d="M569.62,-187.88C569.62,-187.88 569.62,-142.66 569.62,-142.66"/>
<polygon fill="#9c27b0" stroke="#9c27b0" stroke-width="1.5" points="573.13,-142.66 569.63,-132.66 566.13,-142.66 573.13,-142.66"/>
<text xml:space="preserve" text-anchor="middle" x="535.5" y="-168.47" font-family="Times New Roman,serif" font-size="14.00" fill="#9c27b0">WS upgrade</text>
</g>
<!-- sse&#45;&gt;libcurl -->
<g id="edge9" class="edge">
<title>sse&#45;&gt;libcurl</title>
<path fill="none" stroke="#9c27b0" stroke-width="1.5" d="M628,-187.88C628,-187.88 628,-142.66 628,-142.66"/>
<polygon fill="#9c27b0" stroke="#9c27b0" stroke-width="1.5" points="631.5,-142.66 628,-132.66 624.5,-142.66 631.5,-142.66"/>
<text xml:space="preserve" text-anchor="middle" x="590.88" y="-151.97" font-family="Times New Roman,serif" font-size="14.00" fill="#9c27b0">HTTP stream</text>
</g>
<!-- grpc&#45;&gt;libcurl -->
<g id="edge10" class="edge">
<title>grpc&#45;&gt;libcurl</title>
<path fill="none" stroke="#9c27b0" stroke-width="1.5" d="M785.19,-187.77C785.19,-161.99 785.19,-118 785.19,-118 785.19,-118 649.64,-118 649.64,-118"/>
<polygon fill="#9c27b0" stroke="#9c27b0" stroke-width="1.5" points="649.64,-114.5 639.64,-118 649.64,-121.5 649.64,-114.5"/>
<text xml:space="preserve" text-anchor="middle" x="699.05" y="-121.2" font-family="Times New Roman,serif" font-size="14.00" fill="#9c27b0">HTTP/2 + protobuf</text>
</g>
<!-- output -->
<g id="node10" class="node">
<title>output</title>
<path fill="#f44336" stroke="black" d="M938.5,-36C938.5,-36 817.5,-36 817.5,-36 811.5,-36 805.5,-30 805.5,-24 805.5,-24 805.5,-12 805.5,-12 805.5,-6 811.5,0 817.5,0 817.5,0 938.5,0 938.5,0 944.5,0 950.5,-6 950.5,-12 950.5,-12 950.5,-24 950.5,-24 950.5,-30 944.5,-36 938.5,-36"/>
<text xml:space="preserve" text-anchor="middle" x="878" y="-21.05" font-family="Arial" font-size="11.00" fill="white">Unified API Development</text>
<text xml:space="preserve" text-anchor="middle" x="878" y="-7.55" font-family="Arial" font-size="11.00" fill="white">Debug, Design, Test, Mock</text>
</g>
<!-- libcurl&#45;&gt;output -->
<g id="edge13" class="edge">
<title>libcurl&#45;&gt;output</title>
<path fill="none" stroke="#f44336" stroke-width="2" d="M637.73,-106C700.79,-106 814.88,-106 814.88,-106 814.88,-106 814.88,-49.26 814.88,-49.26"/>
<polygon fill="#f44336" stroke="#f44336" stroke-width="2" points="818.38,-49.26 814.88,-39.26 811.38,-49.26 818.38,-49.26"/>
<text xml:space="preserve" text-anchor="middle" x="728.42" y="-92.7" font-family="Times New Roman,serif" font-size="14.00" fill="#f44336">responses</text>
</g>
<!-- openapi&#45;&gt;output -->
<g id="edge14" class="edge">
<title>openapi&#45;&gt;output</title>
<path fill="none" stroke="#f44336" stroke-width="1.5" d="M878,-93.88C878,-93.88 878,-48.66 878,-48.66"/>
<polygon fill="#f44336" stroke="#f44336" stroke-width="1.5" points="881.5,-48.66 878,-38.66 874.5,-48.66 881.5,-48.66"/>
<text xml:space="preserve" text-anchor="middle" x="863.38" y="-74.47" font-family="Times New Roman,serif" font-size="14.00" fill="#f44336">specs</text>
</g>
<!-- mock&#45;&gt;output -->
<g id="edge15" class="edge">
<title>mock&#45;&gt;output</title>
<path fill="none" stroke="#f44336" stroke-width="1.5" d="M967.05,-112C952.57,-112 941.12,-112 941.12,-112 941.12,-112 941.12,-48.39 941.12,-48.39"/>
<polygon fill="#f44336" stroke="#f44336" stroke-width="1.5" points="944.63,-48.39 941.13,-38.39 937.63,-48.39 944.63,-48.39"/>
<text xml:space="preserve" text-anchor="middle" x="984.63" y="-79.86" font-family="Times New Roman,serif" font-size="14.00" fill="#f44336">mock responses</text>
</g>
</g>
</svg>
