<?xml version="1.0" encoding="UTF-8" standalone="no"?>
<!DOCTYPE svg PUBLIC "-//W3C//DTD SVG 1.1//EN"
 "http://www.w3.org/Graphics/SVG/1.1/DTD/svg11.dtd">
<!-- Generated by graphviz version 14.1.2 (0)
 -->
<!-- Title: career_ops_modes Pages: 1 -->
<svg width="1139pt" height="237pt"
 viewBox="0.00 0.00 1139.00 237.00" xmlns="http://www.w3.org/2000/svg" xmlns:xlink="http://www.w3.org/1999/xlink">
<g id="graph0" class="graph" transform="scale(1 1) rotate(0) translate(4 233)">
<title>career_ops_modes</title>
<polygon fill="white" stroke="none" points="-4,4 -4,-233 1134.75,-233 1134.75,4 -4,4"/>
<!-- core -->
<g id="node1" class="node">
<title>core</title>
<path fill="#2196f3" stroke="black" d="M675.88,-229C675.88,-229 583.38,-229 583.38,-229 577.38,-229 571.38,-223 571.38,-217 571.38,-217 571.38,-204.5 571.38,-204.5 571.38,-198.5 577.38,-192.5 583.38,-192.5 583.38,-192.5 675.88,-192.5 675.88,-192.5 681.88,-192.5 687.88,-198.5 687.88,-204.5 687.88,-204.5 687.88,-217 687.88,-217 687.88,-223 681.88,-229 675.88,-229"/>
<text xml:space="preserve" text-anchor="middle" x="629.62" y="-213.6" font-family="Arial Bold" font-size="12.00" fill="white">/career&#45;ops</text>
<text xml:space="preserve" text-anchor="middle" x="629.62" y="-199.35" font-family="Arial Bold" font-size="12.00" fill="white">Command Center</text>
</g>
<!-- auto -->
<g id="node2" class="node">
<title>auto</title>
<path fill="#ff9800" stroke="black" d="M81.25,-142.5C81.25,-142.5 12,-142.5 12,-142.5 6,-142.5 0,-136.5 0,-130.5 0,-130.5 0,-106 0,-106 0,-100 6,-94 12,-94 12,-94 81.25,-94 81.25,-94 87.25,-94 93.25,-100 93.25,-106 93.25,-106 93.25,-130.5 93.25,-130.5 93.25,-136.5 87.25,-142.5 81.25,-142.5"/>
<text xml:space="preserve" text-anchor="middle" x="46.62" y="-128.05" font-family="Arial" font-size="11.00" fill="white">Auto&#45;Pipeline</text>
<text xml:space="preserve" text-anchor="middle" x="46.62" y="-114.55" font-family="Arial" font-size="11.00" fill="white">Evaluate + PDF</text>
<text xml:space="preserve" text-anchor="middle" x="46.62" y="-101.05" font-family="Arial" font-size="11.00" fill="white">+ Tracker</text>
</g>
<!-- core&#45;&gt;auto -->
<g id="edge1" class="edge">
<title>core&#45;&gt;auto</title>
<path fill="none" stroke="#ff9800" stroke-width="2" d="M571.06,-222C423.21,-222 46.62,-222 46.62,-222 46.62,-222 46.62,-155.86 46.62,-155.86"/>
<polygon fill="#ff9800" stroke="#ff9800" stroke-width="2" points="50.13,-155.86 46.63,-145.86 43.13,-155.86 50.13,-155.86"/>
</g>
<!-- scan -->
<g id="node3" class="node">
<title>scan</title>
<path fill="#ff9800" stroke="black" d="M202.88,-142.5C202.88,-142.5 134.38,-142.5 134.38,-142.5 128.38,-142.5 122.38,-136.5 122.38,-130.5 122.38,-130.5 122.38,-106 122.38,-106 122.38,-100 128.38,-94 134.38,-94 134.38,-94 202.88,-94 202.88,-94 208.88,-94 214.88,-100 214.88,-106 214.88,-106 214.88,-130.5 214.88,-130.5 214.88,-136.5 208.88,-142.5 202.88,-142.5"/>
<text xml:space="preserve" text-anchor="middle" x="168.62" y="-128.05" font-family="Arial" font-size="11.00" fill="white">Scan</text>
<text xml:space="preserve" text-anchor="middle" x="168.62" y="-114.55" font-family="Arial" font-size="11.00" fill="white">Portal Scanner</text>
<text xml:space="preserve" text-anchor="middle" x="168.62" y="-101.05" font-family="Arial" font-size="11.00" fill="white">45+ Companies</text>
</g>
<!-- core&#45;&gt;scan -->
<g id="edge2" class="edge">
<title>core&#45;&gt;scan</title>
<path fill="none" stroke="#ff9800" stroke-width="2" d="M571.24,-214C447.19,-214 168.62,-214 168.62,-214 168.62,-214 168.62,-155.94 168.62,-155.94"/>
<polygon fill="#ff9800" stroke="#ff9800" stroke-width="2" points="172.13,-155.94 168.63,-145.94 165.13,-155.94 172.13,-155.94"/>
</g>
<!-- batch -->
<g id="node4" class="node">
<title>batch</title>
<path fill="#ff9800" stroke="black" d="M307.62,-142.5C307.62,-142.5 255.62,-142.5 255.62,-142.5 249.62,-142.5 243.62,-136.5 243.62,-130.5 243.62,-130.5 243.62,-106 243.62,-106 243.62,-100 249.62,-94 255.62,-94 255.62,-94 307.62,-94 307.62,-94 313.62,-94 319.62,-100 319.62,-106 319.62,-106 319.62,-130.5 319.62,-130.5 319.62,-136.5 313.62,-142.5 307.62,-142.5"/>
<text xml:space="preserve" text-anchor="middle" x="281.62" y="-128.05" font-family="Arial" font-size="11.00" fill="white">Batch</text>
<text xml:space="preserve" text-anchor="middle" x="281.62" y="-114.55" font-family="Arial" font-size="11.00" fill="white">Parallel Eval</text>
<text xml:space="preserve" text-anchor="middle" x="281.62" y="-101.05" font-family="Arial" font-size="11.00" fill="white">10+ Offers</text>
</g>
<!-- core&#45;&gt;batch -->
<g id="edge3" class="edge">
<title>core&#45;&gt;batch</title>
<path fill="none" stroke="#ff9800" stroke-width="2" d="M570.99,-207C471.81,-207 281.62,-207 281.62,-207 281.62,-207 281.62,-156 281.62,-156"/>
<polygon fill="#ff9800" stroke="#ff9800" stroke-width="2" points="285.13,-156 281.63,-146 278.13,-156 285.13,-156"/>
</g>
<!-- pipeline -->
<g id="node5" class="node">
<title>pipeline</title>
<path fill="#ff9800" stroke="black" d="M434.5,-142.5C434.5,-142.5 360.75,-142.5 360.75,-142.5 354.75,-142.5 348.75,-136.5 348.75,-130.5 348.75,-130.5 348.75,-106 348.75,-106 348.75,-100 354.75,-94 360.75,-94 360.75,-94 434.5,-94 434.5,-94 440.5,-94 446.5,-100 446.5,-106 446.5,-106 446.5,-130.5 446.5,-130.5 446.5,-136.5 440.5,-142.5 434.5,-142.5"/>
<text xml:space="preserve" text-anchor="middle" x="397.62" y="-128.05" font-family="Arial" font-size="11.00" fill="white">Pipeline</text>
<text xml:space="preserve" text-anchor="middle" x="397.62" y="-114.55" font-family="Arial" font-size="11.00" fill="white">Process Pending</text>
<text xml:space="preserve" text-anchor="middle" x="397.62" y="-101.05" font-family="Arial" font-size="11.00" fill="white">URLs</text>
</g>
<!-- core&#45;&gt;pipeline -->
<g id="edge4" class="edge">
<title>core&#45;&gt;pipeline</title>
<path fill="none" stroke="#ff9800" stroke-width="2" d="M571.08,-200C502.35,-200 397.62,-200 397.62,-200 397.62,-200 397.62,-155.8 397.62,-155.8"/>
<polygon fill="#ff9800" stroke="#ff9800" stroke-width="2" points="401.13,-155.8 397.63,-145.8 394.13,-155.8 401.13,-155.8"/>
</g>
<!-- pdf_mode -->
<g id="node6" class="node">
<title>pdf_mode</title>
<path fill="#9c27b0" stroke="black" d="M552,-142.5C552,-142.5 487.25,-142.5 487.25,-142.5 481.25,-142.5 475.25,-136.5 475.25,-130.5 475.25,-130.5 475.25,-106 475.25,-106 475.25,-100 481.25,-94 487.25,-94 487.25,-94 552,-94 552,-94 558,-94 564,-100 564,-106 564,-106 564,-130.5 564,-130.5 564,-136.5 558,-142.5 552,-142.5"/>
<text xml:space="preserve" text-anchor="middle" x="519.62" y="-128.05" font-family="Arial" font-size="11.00" fill="white">PDF</text>
<text xml:space="preserve" text-anchor="middle" x="519.62" y="-114.55" font-family="Arial" font-size="11.00" fill="white">ATS&#45;Optimized</text>
<text xml:space="preserve" text-anchor="middle" x="519.62" y="-101.05" font-family="Arial" font-size="11.00" fill="white">CV Generation</text>
</g>
<!-- core&#45;&gt;pdf_mode -->
<g id="edge5" class="edge">
<title>core&#45;&gt;pdf_mode</title>
<path fill="none" stroke="#9c27b0" stroke-width="2" d="M582.06,-192.43C582.06,-165.4 582.06,-118 582.06,-118 582.06,-118 577.36,-118 577.36,-118"/>
<polygon fill="#9c27b0" stroke="#9c27b0" stroke-width="2" points="577.36,-114.5 567.36,-118 577.36,-121.5 577.36,-114.5"/>
</g>
<!-- tracker_mode -->
<g id="node7" class="node">
<title>tracker_mode</title>
<path fill="#9c27b0" stroke="black" d="M654.5,-142.5C654.5,-142.5 604.75,-142.5 604.75,-142.5 598.75,-142.5 592.75,-136.5 592.75,-130.5 592.75,-130.5 592.75,-106 592.75,-106 592.75,-100 598.75,-94 604.75,-94 604.75,-94 654.5,-94 654.5,-94 660.5,-94 666.5,-100 666.5,-106 666.5,-106 666.5,-130.5 666.5,-130.5 666.5,-136.5 660.5,-142.5 654.5,-142.5"/>
<text xml:space="preserve" text-anchor="middle" x="629.62" y="-128.05" font-family="Arial" font-size="11.00" fill="white">Tracker</text>
<text xml:space="preserve" text-anchor="middle" x="629.62" y="-114.55" font-family="Arial" font-size="11.00" fill="white">Application</text>
<text xml:space="preserve" text-anchor="middle" x="629.62" y="-101.05" font-family="Arial" font-size="11.00" fill="white">Status View</text>
</g>
<!-- core&#45;&gt;tracker_mode -->
<g id="edge6" class="edge">
<title>core&#45;&gt;tracker_mode</title>
<path fill="none" stroke="#9c27b0" stroke-width="2" d="M629.62,-192.03C629.62,-192.03 629.62,-155.94 629.62,-155.94"/>
<polygon fill="#9c27b0" stroke="#9c27b0" stroke-width="2" points="633.13,-155.94 629.63,-145.94 626.13,-155.94 633.13,-155.94"/>
</g>
<!-- apply_mode -->
<g id="node8" class="node">
<title>apply_mode</title>
<path fill="#9c27b0" stroke="black" d="M738.12,-142.5C738.12,-142.5 707.12,-142.5 707.12,-142.5 701.12,-142.5 695.12,-136.5 695.12,-130.5 695.12,-130.5 695.12,-106 695.12,-106 695.12,-100 701.12,-94 707.12,-94 707.12,-94 738.12,-94 738.12,-94 744.12,-94 750.12,-100 750.12,-106 750.12,-106 750.12,-130.5 750.12,-130.5 750.12,-136.5 744.12,-142.5 738.12,-142.5"/>
<text xml:space="preserve" text-anchor="middle" x="722.62" y="-128.05" font-family="Arial" font-size="11.00" fill="white">Apply</text>
<text xml:space="preserve" text-anchor="middle" x="722.62" y="-114.55" font-family="Arial" font-size="11.00" fill="white">AI Form</text>
<text xml:space="preserve" text-anchor="middle" x="722.62" y="-101.05" font-family="Arial" font-size="11.00" fill="white">Filling</text>
</g>
<!-- core&#45;&gt;apply_mode -->
<g id="edge7" class="edge">
<title>core&#45;&gt;apply_mode</title>
<path fill="none" stroke="#9c27b0" stroke-width="2" d="M677.19,-192.43C677.19,-165.4 677.19,-118 677.19,-118 677.19,-118 681.86,-118 681.86,-118"/>
<polygon fill="#9c27b0" stroke="#9c27b0" stroke-width="2" points="681.86,-121.5 691.86,-118 681.86,-114.5 681.86,-121.5"/>
</g>
<!-- deep -->
<g id="node9" class="node">
<title>deep</title>
<path fill="#00bcd4" stroke="black" d="M829.88,-142.5C829.88,-142.5 791.38,-142.5 791.38,-142.5 785.38,-142.5 779.38,-136.5 779.38,-130.5 779.38,-130.5 779.38,-106 779.38,-106 779.38,-100 785.38,-94 791.38,-94 791.38,-94 829.88,-94 829.88,-94 835.88,-94 841.88,-100 841.88,-106 841.88,-106 841.88,-130.5 841.88,-130.5 841.88,-136.5 835.88,-142.5 829.88,-142.5"/>
<text xml:space="preserve" text-anchor="middle" x="810.62" y="-128.05" font-family="Arial" font-size="11.00" fill="white">Deep</text>
<text xml:space="preserve" text-anchor="middle" x="810.62" y="-114.55" font-family="Arial" font-size="11.00" fill="white">Company</text>
<text xml:space="preserve" text-anchor="middle" x="810.62" y="-101.05" font-family="Arial" font-size="11.00" fill="white">Research</text>
</g>
<!-- core&#45;&gt;deep -->
<g id="edge8" class="edge">
<title>core&#45;&gt;deep</title>
<path fill="none" stroke="#00bcd4" stroke-width="2" d="M687.89,-200C740.8,-200 810.62,-200 810.62,-200 810.62,-200 810.62,-155.8 810.62,-155.8"/>
<polygon fill="#00bcd4" stroke="#00bcd4" stroke-width="2" points="814.13,-155.8 810.63,-145.8 807.13,-155.8 814.13,-155.8"/>
</g>
<!-- contacto -->
<g id="node10" class="node">
<title>contacto</title>
<path fill="#00bcd4" stroke="black" d="M918.75,-142.5C918.75,-142.5 882.5,-142.5 882.5,-142.5 876.5,-142.5 870.5,-136.5 870.5,-130.5 870.5,-130.5 870.5,-106 870.5,-106 870.5,-100 876.5,-94 882.5,-94 882.5,-94 918.75,-94 918.75,-94 924.75,-94 930.75,-100 930.75,-106 930.75,-106 930.75,-130.5 930.75,-130.5 930.75,-136.5 924.75,-142.5 918.75,-142.5"/>
<text xml:space="preserve" text-anchor="middle" x="900.62" y="-128.05" font-family="Arial" font-size="11.00" fill="white">Contacto</text>
<text xml:space="preserve" text-anchor="middle" x="900.62" y="-114.55" font-family="Arial" font-size="11.00" fill="white">LinkedIn</text>
<text xml:space="preserve" text-anchor="middle" x="900.62" y="-101.05" font-family="Arial" font-size="11.00" fill="white">Outreach</text>
</g>
<!-- core&#45;&gt;contacto -->
<g id="edge9" class="edge">
<title>core&#45;&gt;contacto</title>
<path fill="none" stroke="#00bcd4" stroke-width="2" d="M688.09,-207C767.76,-207 900.62,-207 900.62,-207 900.62,-207 900.62,-156 900.62,-156"/>
<polygon fill="#00bcd4" stroke="#00bcd4" stroke-width="2" points="904.13,-156 900.63,-146 897.13,-156 904.13,-156"/>
</g>
<!-- training -->
<g id="node11" class="node">
<title>training</title>
<path fill="#00bcd4" stroke="black" d="M1023.25,-142.5C1023.25,-142.5 972,-142.5 972,-142.5 966,-142.5 960,-136.5 960,-130.5 960,-130.5 960,-106 960,-106 960,-100 966,-94 972,-94 972,-94 1023.25,-94 1023.25,-94 1029.25,-94 1035.25,-100 1035.25,-106 1035.25,-106 1035.25,-130.5 1035.25,-130.5 1035.25,-136.5 1029.25,-142.5 1023.25,-142.5"/>
<text xml:space="preserve" text-anchor="middle" x="997.62" y="-128.05" font-family="Arial" font-size="11.00" fill="white">Training</text>
<text xml:space="preserve" text-anchor="middle" x="997.62" y="-114.55" font-family="Arial" font-size="11.00" fill="white">Course/Cert</text>
<text xml:space="preserve" text-anchor="middle" x="997.62" y="-101.05" font-family="Arial" font-size="11.00" fill="white">Evaluation</text>
</g>
<!-- core&#45;&gt;training -->
<g id="edge10" class="edge">
<title>core&#45;&gt;training</title>
<path fill="none" stroke="#00bcd4" stroke-width="2" d="M688.34,-214C792.24,-214 997.62,-214 997.62,-214 997.62,-214 997.62,-155.94 997.62,-155.94"/>
<polygon fill="#00bcd4" stroke="#00bcd4" stroke-width="2" points="1001.13,-155.94 997.63,-145.94 994.13,-155.94 1001.13,-155.94"/>
</g>
<!-- project -->
<g id="node12" class="node">
<title>project</title>
<path fill="#00bcd4" stroke="black" d="M1118.75,-142.5C1118.75,-142.5 1076.5,-142.5 1076.5,-142.5 1070.5,-142.5 1064.5,-136.5 1064.5,-130.5 1064.5,-130.5 1064.5,-106 1064.5,-106 1064.5,-100 1070.5,-94 1076.5,-94 1076.5,-94 1118.75,-94 1118.75,-94 1124.75,-94 1130.75,-100 1130.75,-106 1130.75,-106 1130.75,-130.5 1130.75,-130.5 1130.75,-136.5 1124.75,-142.5 1118.75,-142.5"/>
<text xml:space="preserve" text-anchor="middle" x="1097.62" y="-128.05" font-family="Arial" font-size="11.00" fill="white">Project</text>
<text xml:space="preserve" text-anchor="middle" x="1097.62" y="-114.55" font-family="Arial" font-size="11.00" fill="white">Portfolio</text>
<text xml:space="preserve" text-anchor="middle" x="1097.62" y="-101.05" font-family="Arial" font-size="11.00" fill="white">Evaluation</text>
</g>
<!-- core&#45;&gt;project -->
<g id="edge11" class="edge">
<title>core&#45;&gt;project</title>
<path fill="none" stroke="#00bcd4" stroke-width="2" d="M687.95,-222C813.41,-222 1097.62,-222 1097.62,-222 1097.62,-222 1097.62,-155.86 1097.62,-155.86"/>
<polygon fill="#00bcd4" stroke="#00bcd4" stroke-width="2" points="1101.13,-155.86 1097.63,-145.86 1094.13,-155.86 1101.13,-155.86"/>
</g>
<!-- human -->
<g id="node13" class="node">
<title>human</title>
<polygon fill="#e8f5e9" stroke="black" points="702.5,-44 556.75,-44 556.75,0 702.5,0 702.5,-44"/>
<text xml:space="preserve" text-anchor="middle" x="629.62" y="-30.5" font-family="Arial" font-size="10.00" fill="#1b5e20">Human&#45;in&#45;the&#45;Loop</text>
<text xml:space="preserve" text-anchor="middle" x="629.62" y="-18.5" font-family="Arial" font-size="10.00" fill="#1b5e20">AI Evaluates &amp; Recommends</text>
<text xml:space="preserve" text-anchor="middle" x="629.62" y="-6.5" font-family="Arial" font-size="10.00" fill="#1b5e20">You Decide &amp; Act</text>
</g>
<!-- tracker_mode&#45;&gt;human -->
<g id="edge12" class="edge">
<title>tracker_mode&#45;&gt;human</title>
<path fill="none" stroke="#4caf50" stroke-width="1.5" stroke-dasharray="5,2" d="M629.62,-93.71C629.62,-93.71 629.62,-56.46 629.62,-56.46"/>
<polygon fill="#4caf50" stroke="#4caf50" stroke-width="1.5" points="633.13,-56.46 629.63,-46.46 626.13,-56.46 633.13,-56.46"/>
</g>
</g>
</svg>
