<?xml version="1.0" encoding="UTF-8" standalone="no"?>
<!DOCTYPE svg PUBLIC "-//W3C//DTD SVG 1.1//EN"
 "http://www.w3.org/Graphics/SVG/1.1/DTD/svg11.dtd">
<!-- Generated by graphviz version 14.1.2 (0)
 -->
<!-- Title: cavemem Pages: 1 -->
<svg width="1799pt" height="138pt"
 viewBox="0.00 0.00 1799.00 138.00" xmlns="http://www.w3.org/2000/svg" xmlns:xlink="http://www.w3.org/1999/xlink">
<g id="graph0" class="graph" transform="scale(1.33333 1.33333) rotate(0) translate(28.8 74.7)">
<title>cavemem</title>
<polygon fill="#0d1117" stroke="none" points="-28.8,28.8 -28.8,-74.7 1320.24,-74.7 1320.24,28.8 -28.8,28.8"/>
<!-- ide -->
<g id="node1" class="node">
<title>ide</title>
<path fill="#161b22" stroke="#58a6ff" stroke-width="1.5" d="M154.92,-45.9C154.92,-45.9 12,-45.9 12,-45.9 6,-45.9 0,-39.9 0,-33.9 0,-33.9 0,-12 0,-12 0,-6 6,0 12,0 12,0 154.92,0 154.92,0 160.92,0 166.92,-6 166.92,-12 166.92,-12 166.92,-33.9 166.92,-33.9 166.92,-39.9 160.92,-45.9 154.92,-45.9"/>
<text xml:space="preserve" text-anchor="middle" x="83.46" y="-27.3" font-family="Inter" paint-order="stroke" stroke="#0d1117" stroke-width="4px" stroke-linejoin="round" font-size="12.00" fill="#58a6ff">IDE Session</text>
<text xml:space="preserve" text-anchor="middle" x="83.46" y="-11.55" font-family="Inter" paint-order="stroke" stroke="#0d1117" stroke-width="4px" stroke-linejoin="round" font-size="12.00" fill="#58a6ff">(Claude / Cursor / Gemini)</text>
</g>
<!-- hook -->
<g id="node2" class="node">
<title>hook</title>
<path fill="#161b22" stroke="#f0c040" stroke-width="1.5" d="M362.09,-45.9C362.09,-45.9 287.42,-45.9 287.42,-45.9 281.42,-45.9 275.42,-39.9 275.42,-33.9 275.42,-33.9 275.42,-12 275.42,-12 275.42,-6 281.42,0 287.42,0 287.42,0 362.09,0 362.09,0 368.09,0 374.09,-6 374.09,-12 374.09,-12 374.09,-33.9 374.09,-33.9 374.09,-39.9 368.09,-45.9 362.09,-45.9"/>
<text xml:space="preserve" text-anchor="middle" x="324.75" y="-27.3" font-family="Inter" paint-order="stroke" stroke="#0d1117" stroke-width="4px" stroke-linejoin="round" font-size="12.00" fill="#f0c040">Hook Handler</text>
<text xml:space="preserve" text-anchor="middle" x="324.75" y="-11.55" font-family="Inter" paint-order="stroke" stroke="#0d1117" stroke-width="4px" stroke-linejoin="round" font-size="12.00" fill="#f0c040">(&lt; 150 ms)</text>
</g>
<!-- ide&#45;&gt;hook -->
<g id="edge1" class="edge">
<title>ide&#45;&gt;hook</title>
<path fill="none" stroke="#8b949e" d="M167.48,-22.95C200.18,-22.95 236.92,-22.95 266.55,-22.95"/>
<polygon fill="#8b949e" stroke="#8b949e" points="266.2,-25.4 273.2,-22.95 266.2,-20.5 266.2,-25.4"/>
<text xml:space="preserve" text-anchor="middle" x="221.17" y="-26.2" font-family="Inter" paint-order="stroke" stroke="#0d1117" stroke-width="4px" stroke-linejoin="round" font-size="10.00" fill="#8b949e">session event</text>
</g>
<!-- redact -->
<g id="node3" class="node">
<title>redact</title>
<path fill="#161b22" stroke="#f85149" stroke-width="1.5" d="M569.26,-45.9C569.26,-45.9 487.84,-45.9 487.84,-45.9 481.84,-45.9 475.84,-39.9 475.84,-33.9 475.84,-33.9 475.84,-12 475.84,-12 475.84,-6 481.84,0 487.84,0 487.84,0 569.26,0 569.26,0 575.26,0 581.26,-6 581.26,-12 581.26,-12 581.26,-33.9 581.26,-33.9 581.26,-39.9 575.26,-45.9 569.26,-45.9"/>
<text xml:space="preserve" text-anchor="middle" x="528.55" y="-27.3" font-family="Inter" paint-order="stroke" stroke="#0d1117" stroke-width="4px" stroke-linejoin="round" font-size="12.00" fill="#f85149">Redact</text>
<text xml:space="preserve" text-anchor="middle" x="528.55" y="-11.55" font-family="Inter" paint-order="stroke" stroke="#0d1117" stroke-width="4px" stroke-linejoin="round" font-size="12.00" fill="#f85149">&lt;private&gt; tags</text>
</g>
<!-- hook&#45;&gt;redact -->
<g id="edge2" class="edge">
<title>hook&#45;&gt;redact</title>
<path fill="none" stroke="#8b949e" d="M374.6,-22.95C402.43,-22.95 437.53,-22.95 467.09,-22.95"/>
<polygon fill="#8b949e" stroke="#8b949e" points="466.75,-25.4 473.75,-22.95 466.75,-20.5 466.75,-25.4"/>
<text xml:space="preserve" text-anchor="middle" x="424.97" y="-26.2" font-family="Inter" paint-order="stroke" stroke="#0d1117" stroke-width="4px" stroke-linejoin="round" font-size="10.00" fill="#f85149">strip private</text>
</g>
<!-- comp -->
<g id="node4" class="node">
<title>comp</title>
<path fill="#161b22" stroke="#f0c040" stroke-width="1.5" d="M753.18,-45.9C753.18,-45.9 688.26,-45.9 688.26,-45.9 682.26,-45.9 676.26,-39.9 676.26,-33.9 676.26,-33.9 676.26,-12 676.26,-12 676.26,-6 682.26,0 688.26,0 688.26,0 753.18,0 753.18,0 759.18,0 765.18,-6 765.18,-12 765.18,-12 765.18,-33.9 765.18,-33.9 765.18,-39.9 759.18,-45.9 753.18,-45.9"/>
<text xml:space="preserve" text-anchor="middle" x="720.72" y="-27.3" font-family="Inter" paint-order="stroke" stroke="#0d1117" stroke-width="4px" stroke-linejoin="round" font-size="12.00" fill="#f0c040">Caveman</text>
<text xml:space="preserve" text-anchor="middle" x="720.72" y="-11.55" font-family="Inter" paint-order="stroke" stroke="#0d1117" stroke-width="4px" stroke-linejoin="round" font-size="12.00" fill="#f0c040">Compressor</text>
</g>
<!-- redact&#45;&gt;comp -->
<g id="edge3" class="edge">
<title>redact&#45;&gt;comp</title>
<path fill="none" stroke="#8b949e" d="M581.77,-22.95C608.36,-22.95 640.6,-22.95 667.23,-22.95"/>
<polygon fill="#8b949e" stroke="#8b949e" points="667.15,-25.4 674.15,-22.95 667.15,-20.5 667.15,-25.4"/>
<text xml:space="preserve" text-anchor="middle" x="628.76" y="-26.2" font-family="Inter" paint-order="stroke" stroke="#0d1117" stroke-width="4px" stroke-linejoin="round" font-size="10.00" fill="#f0c040">prose only</text>
</g>
<!-- store -->
<g id="node5" class="node">
<title>store</title>
<path fill="#161b22" stroke="#3fb950" stroke-width="1.5" d="M957.35,-45.9C957.35,-45.9 878.93,-45.9 878.93,-45.9 872.93,-45.9 866.93,-39.9 866.93,-33.9 866.93,-33.9 866.93,-12 866.93,-12 866.93,-6 872.93,0 878.93,0 878.93,0 957.35,0 957.35,0 963.35,0 969.35,-6 969.35,-12 969.35,-12 969.35,-33.9 969.35,-33.9 969.35,-39.9 963.35,-45.9 957.35,-45.9"/>
<text xml:space="preserve" text-anchor="middle" x="918.14" y="-27.3" font-family="Inter" paint-order="stroke" stroke="#0d1117" stroke-width="4px" stroke-linejoin="round" font-size="12.00" fill="#3fb950">SQLite + FTS5</text>
<text xml:space="preserve" text-anchor="middle" x="918.14" y="-11.55" font-family="Inter" paint-order="stroke" stroke="#0d1117" stroke-width="4px" stroke-linejoin="round" font-size="12.00" fill="#3fb950">Local DB</text>
</g>
<!-- comp&#45;&gt;store -->
<g id="edge4" class="edge">
<title>comp&#45;&gt;store</title>
<path fill="none" stroke="#8b949e" d="M765.58,-22.95C792.94,-22.95 828.49,-22.95 858.29,-22.95"/>
<polygon fill="#8b949e" stroke="#8b949e" points="858.01,-25.4 865.01,-22.95 858.01,-20.5 858.01,-25.4"/>
<text xml:space="preserve" text-anchor="middle" x="816.06" y="-26.2" font-family="Inter" paint-order="stroke" stroke="#0d1117" stroke-width="4px" stroke-linejoin="round" font-size="10.00" fill="#3fb950">compressed</text>
</g>
<!-- worker -->
<g id="node6" class="node">
<title>worker</title>
<path fill="#161b22" stroke="#bc8cff" stroke-width="1.5" d="M1119.52,-45.9C1119.52,-45.9 1055.35,-45.9 1055.35,-45.9 1049.35,-45.9 1043.35,-39.9 1043.35,-33.9 1043.35,-33.9 1043.35,-12 1043.35,-12 1043.35,-6 1049.35,0 1055.35,0 1055.35,0 1119.52,0 1119.52,0 1125.52,0 1131.52,-6 1131.52,-12 1131.52,-12 1131.52,-33.9 1131.52,-33.9 1131.52,-39.9 1125.52,-45.9 1119.52,-45.9"/>
<text xml:space="preserve" text-anchor="middle" x="1087.44" y="-27.3" font-family="Inter" paint-order="stroke" stroke="#0d1117" stroke-width="4px" stroke-linejoin="round" font-size="12.00" fill="#bc8cff">Background</text>
<text xml:space="preserve" text-anchor="middle" x="1087.44" y="-11.55" font-family="Inter" paint-order="stroke" stroke="#0d1117" stroke-width="4px" stroke-linejoin="round" font-size="12.00" fill="#bc8cff">Worker</text>
</g>
<!-- store&#45;&gt;worker -->
<g id="edge5" class="edge">
<title>store&#45;&gt;worker</title>
<path fill="none" stroke="#8b949e" stroke-dasharray="5,2" d="M969.79,-22.95C990.24,-22.95 1013.83,-22.95 1034.42,-22.95"/>
<polygon fill="#8b949e" stroke="#8b949e" points="1034.23,-25.4 1041.23,-22.95 1034.23,-20.5 1034.23,-25.4"/>
<text xml:space="preserve" text-anchor="middle" x="1006.35" y="-26.2" font-family="Inter" paint-order="stroke" stroke="#0d1117" stroke-width="4px" stroke-linejoin="round" font-size="10.00" fill="#bc8cff">notify</text>
</g>
<!-- embed -->
<g id="node7" class="node">
<title>embed</title>
<path fill="#161b22" stroke="#bc8cff" stroke-width="1.5" d="M1279.44,-45.9C1279.44,-45.9 1218.27,-45.9 1218.27,-45.9 1212.27,-45.9 1206.27,-39.9 1206.27,-33.9 1206.27,-33.9 1206.27,-12 1206.27,-12 1206.27,-6 1212.27,0 1218.27,0 1218.27,0 1279.44,0 1279.44,0 1285.44,0 1291.44,-6 1291.44,-12 1291.44,-12 1291.44,-33.9 1291.44,-33.9 1291.44,-39.9 1285.44,-45.9 1279.44,-45.9"/>
<text xml:space="preserve" text-anchor="middle" x="1248.86" y="-27.3" font-family="Inter" paint-order="stroke" stroke="#0d1117" stroke-width="4px" stroke-linejoin="round" font-size="12.00" fill="#bc8cff">Embedding</text>
<text xml:space="preserve" text-anchor="middle" x="1248.86" y="-11.55" font-family="Inter" paint-order="stroke" stroke="#0d1117" stroke-width="4px" stroke-linejoin="round" font-size="12.00" fill="#bc8cff">Index</text>
</g>
<!-- worker&#45;&gt;embed -->
<g id="edge6" class="edge">
<title>worker&#45;&gt;embed</title>
<path fill="none" stroke="#8b949e" stroke-dasharray="5,2" d="M1132,-22.95C1152.17,-22.95 1176.27,-22.95 1197.25,-22.95"/>
<polygon fill="#8b949e" stroke="#8b949e" points="1197.21,-25.4 1204.21,-22.95 1197.21,-20.5 1197.21,-25.4"/>
<text xml:space="preserve" text-anchor="middle" x="1168.9" y="-26.2" font-family="Inter" paint-order="stroke" stroke="#0d1117" stroke-width="4px" stroke-linejoin="round" font-size="10.00" fill="#bc8cff">async</text>
</g>
</g>
</svg>
