<svg xmlns="http://www.w3.org/2000/svg" xmlns:ns2="http://design.blush" xmlns:xlink="http://www.w3.org/1999/xlink" width="264px" height="280px" viewBox="0 0 264 280" version="1.1">
    <title id="circle_Title">Avataaar/Circle</title>
    <desc>Created with python_avatars</desc>
    <defs>
        <circle id="circle_path-1" cx="120" cy="120" r="120" />
        <path d="M-3.19744231e-14,160 L-3.19744231e-14,-1.42108547e-14 L264,-1.42108547e-14 L264,160 L252,160 C252,226.27417 198.27417,280 132,280 C65.72583,280 12,226.27417 12,160 L12,160 L-3.19744231e-14,160 Z" id="circle_path-3" />
        <path d="M100,0 C130.927946,-5.68137151e-15 156,25.072054 156,56 L156.000809,62.1660527 C161.675838,63.1185422 166,68.05429 166,74 L166,88 C166,94.0524166 161.519235,99.0582945 155.693975,99.8813638 C153.627928,119.686472 141.237929,136.421678 124.001014,144.610469 L124,163 L128,163 C167.764502,163 200,195.235498 200,235 L200,244 L0,244 L0,235 C-4.86974701e-15,195.235498 32.235498,163 72,163 L76,163 L75.9999836,144.610943 C58.7625487,136.422324 46.3721119,119.686854 44.3051107,99.8809698 C38.480765,99.0582945 34,94.0524166 34,88 L34,74 C34,68.053942 38.3246685,63.1179645 44.0001873,62.1658855 L44,56 C44,25.072054 69.072054,5.68137151e-15 100,0 Z" id="circle_path-5" />
        <path d="M83,36.3476251 C83,52.6289957 105.161905,65.8276544 132.5,65.8276544 C159.838095,65.8276544 182,52.6289957 182,36.3476251 C182,34.9853134 181.844841,33.6445843 181.544472,32.3313638 C210.784239,41.4879251 232,68.792221 232,101.051724 L232,110 L32,110 L32,101.051724 C32,68.3970853 53.7386736,40.8197864 83.5337207,32.0021267 C83.1821692,33.4207025 83,34.871494 83,36.3476251 Z" id="circle_path-7" />
        <rect id="circle_path-9" x="0" y="0" width="264" height="280" />
        <path d="M74,0 C114.869071,0 148,33.1309285 148,74 L148,84.1482318 L148,197.608051 C135.525121,187.236892 119.490913,181 102,181 L102,181 L98,181 L98,162.610951 C115.530782,154.282984 128.048193,137.114792 129.791419,116.867187 C135.569129,116.002364 140,111.018625 140,105 L140,105 L140,92 C140,87.3536213 137.359271,83.3240177 133.496777,81.3301515 C132.723933,81.0500337 131.951808,80.748163 131.180891,80.4262497 C130.794819,80.3202581 130.400778,80.2331546 130,80.1659169 L130,80.1659169 L130.000458,79.9172528 C117.224481,74.2339715 104.877985,63.0706967 96.1104311,47.8848473 C93.1752556,42.8009742 90.8310687,37.5951441 89.0661426,32.3970356 C80.4313947,42.9409152 67.7445474,53.6023901 52.3415164,62.4953343 C42.777598,68.0170651 33.1467898,72.2910056 24,75.2659587 L24.0003852,137.246608 C29.6019576,148.318362 38.7728825,157.277529 50,162.610951 L50,162.610951 L50,181 L46,181 C38.3273639,181 30.9350359,182.200142 24.0004995,184.422941 L24,230 C24,244.105888 13.5691766,255.775526 0,257.716445 L0,74 C0,33.1309285 33.1309285,0 74,0 Z" id="circle_path-11" />
    </defs>
    <g id="circle_Avataaar/Circle" stroke="none" stroke-width="1" fill="none" fill-rule="evenodd">
        <g id="circle_Circle" transform="translate(12.000000, 40.000000)">
            <mask id="circle_mask-2" fill="white">
                <use xlink:href="#circle_path-1" />
            </mask>
            <use id="circle_Background-Color" fill="#262E33" xlink:href="#circle_path-1" />
            <g id="circle_Fabric-Color" mask="url(#circle_mask-2)" fill="">
                <rect id="circle_ðŸ–Color" x="0" y="0" width="240" height="240" />
            </g>
        </g>
        <mask id="circle_mask-4" fill="white">
            <use xlink:href="#circle_path-3" />
        </mask>
        <g id="circle_Mask" />
        <g id="circle_Avataaar" mask="url(#circle_mask-4)">
            <g id="circle_Body" transform="translate(32.000000, 36.000000)">
                <mask id="circle_mask-6" fill="white">
                    <use xlink:href="#circle_path-5" />
                </mask>
                <use fill="#D0C6AC" xlink:href="#circle_path-5" />
                <g id="circle_Skin-Color" mask="url(#circle_mask-6)" fill="#563d3e">
                    <g transform="translate(-32.000000, 0.000000)" id="circle_Color">
                        <rect x="0" y="0" width="264" height="244" />
                    </g>
                </g>
                <path d="M44,94 C44,124.927946 69.072054,150 100,150 C130.927946,150 156,124.927946 156,94 L156,94 L156,102 C156,132.927946 130.927946,158 100,158 C69.072054,158 44,132.927946 44,102 Z" id="circle_Neck-Shadow" fill-opacity="0.100000001" fill="#000000" mask="url(#circle_mask-6)" />
            </g>
            <g id="circle_Clothing" transform="translate(0.000000, 170.000000)">
                
            </g>
            <g id="circle_Face" transform="translate(76.000000, 82.000000)" fill="#000000">
                <g id="circle_Mouth" transform="translate(2.000000, 52.000000)">    
                    
                <g id="sad_Mouth/Sad" stroke="none" stroke-width="1" fill="none" fill-rule="evenodd" fill-opacity="0.699999988">
        <path d="M40.0582943,16.6539438 C40.7076459,23.6831146 46.7016363,28.3768187 54,28.3768187 C61.3416045,28.3768187 67.3633339,23.627332 67.9526838,16.5287605 C67.9840218,16.1513016 67.0772329,15.8529531 66.6289111,16.077395 C61.0902255,18.8502083 56.8805885,20.2366149 54,20.2366149 C51.1558456,20.2366149 47.0072148,18.8804569 41.5541074,16.168141 C41.0473376,15.9160792 40.0197139,16.2363147 40.0582943,16.6539438 Z" id="sad_Mouth" fill="#000000" transform="translate(54.005357, 22.188409) scale(1, -1) translate(-54.005357, -22.188409) " />
    </g>
</g>
                <g id="circle_Nose" transform="translate(28.000000, 40.000000)" fill-opacity="0.16">
                    
                <g id="default_Nose/Default" stroke="none" stroke-width="1" fill="none" fill-rule="evenodd" fill-opacity="0.16">
        <path d="M16,8 C16,12.418278 21.372583,16 28,16 L28,16 C34.627417,16 40,12.418278 40,8" id="default_Nose" fill="#000000" />
    </g>
</g>
                <g id="circle_Eyes" transform="translate(0.000000, 8.000000)">
                    
                <g id="surprised_Eyes/Surprised-ðŸ˜³" stroke="none" stroke-width="1" fill="none" fill-rule="evenodd">
        <circle id="surprised_The-White-Stuff" fill="#FFFFFF" cx="30" cy="22" r="14" />
        <circle id="surprised_Eye-Ball" fill="#FFFFFF" cx="82" cy="22" r="14" />
        <circle id="surprised_Eye" fill-opacity="0.699999988" fill="#000000" cx="30" cy="22" r="6" />
        <circle id="surprised_Eye" fill-opacity="0.699999988" fill="#000000" cx="82" cy="22" r="6" />
    </g>
</g>
                <g id="circle_Eyebrow" fill-opacity="0.599999964">
                    
                <g id="default_Eyebrow/Outline/Default" stroke="none" stroke-width="1" fill="none" fill-rule="evenodd" fill-opacity="0.599999964">
        <g id="default_I-Browse" transform="translate(12.000000, 6.000000)" fill="#000000" fill-rule="nonzero">
            <path d="M3.63024536,11.1585767 C7.54515501,5.64986673 18.2779197,2.56083721 27.5230268,4.83118046 C28.5957248,5.0946055 29.6788665,4.43856013 29.9422916,3.36586212 C30.2057166,2.2931641 29.5496712,1.21002236 28.4769732,0.94659732 C17.7403633,-1.69001789 5.31209962,1.88699832 0.369754639,8.84142326 C-0.270109626,9.74178291 -0.0589363917,10.9903811 0.84142326,11.6302454 C1.74178291,12.2701096 2.9903811,12.0589364 3.63024536,11.1585767 Z" id="default_Eyebrow" />
            <path d="M61.6302454,11.1585767 C65.545155,5.64986673 76.2779197,2.56083721 85.5230268,4.83118046 C86.5957248,5.0946055 87.6788665,4.43856013 87.9422916,3.36586212 C88.2057166,2.2931641 87.5496712,1.21002236 86.4769732,0.94659732 C75.7403633,-1.69001789 63.3120996,1.88699832 58.3697546,8.84142326 C57.7298904,9.74178291 57.9410636,10.9903811 58.8414233,11.6302454 C59.7417829,12.2701096 60.9903811,12.0589364 61.6302454,11.1585767 Z" id="default_Eyebrow" transform="translate(73.000154, 6.039198) scale(-1, 1) translate(-73.000154, -6.039198) " />
        </g>
    </g>
</g>
            </g>
            <g id="circle_Top">
                
            <defs>
        <path d="M264,0 L264,280 L232,280 L232,271 C232,231.235498 199.764502,199 160,199 L160,199 L156,199 L156.001014,180.610469 C173.531251,172.282329 186.048207,155.114429 187.791415,134.867236 C193.568906,134.002616 198,129.018777 198,123 L198,123 L198,110 C198,104.05429 193.675838,99.1185422 188.000809,98.1660527 L188,92 C188,61.072054 162.927946,36 132,36 C101.072054,36 76,61.072054 76,92 L76,92 L76.0001873,98.1658855 C70.3246685,99.1179645 66,104.053942 66,110 L66,110 L66,123 C66,129.018777 70.4310943,134.002616 76.2090181,134.867253 C77.9518263,155.114813 90.4692242,172.28298 107.999984,180.610943 L108,199 L104,199 C64.633143,199 32.6454629,230.594012 32.0096459,269.809348 L32,271 L32,280 L0,280 L0,0 L264,0 Z" id="twist_long_hair_hairstyletwist-long-hair-path-1" />
    </defs>
    <g id="twist_long_hair_Hairstyle/Twist Long hair" stroke="none" stroke-width="1" fill="none" fill-rule="evenodd">
        <g id="twist_long_hair_template-for-hairstyles" opacity=".184" transform="translate(1.000000, 0.000000)">
            <mask id="twist_long_hair_hairstyletwist-long-hair-mask-2" fill="#fff">
                <use xlink:href="#twist_long_hair_hairstyletwist-long-hair-path-1" />
            </mask>
            <g id="twist_long_hair_Mask-Hair" />
        </g>
        <g id="twist_long_hair_Group-51" transform="translate(75.000000, 33.000000)">
            <g id="twist_long_hair_Hair-Color" fill="#2C1B18">
                <path d="M113.9408,49.3483 C113.5818,48.9423 113.1338,48.6693 112.6548,48.5073 C112.1988,45.5163 111.5358,42.3423 110.5878,39.1103 L111.0748,38.2873 C111.9188,36.8613 111.4458,35.0223 110.0198,34.1783 C109.6238,33.9443 109.1958,33.8213 108.7648,33.7823 C107.7368,31.1693 106.4958,28.5683 105.0028,26.0413 L105.3908,25.1413 C106.0448,23.6193 105.3418,21.8543 103.8198,21.2003 C103.1148,20.8963 102.3598,20.8963 101.6838,21.1233 C100.3128,19.3433 98.7878,17.6313 97.0928,16.0133 L97.1038,15.9793 C97.6268,14.4073 96.7748,12.7093 95.2028,12.1863 C94.3788,11.9143 93.5258,12.0253 92.8198,12.4113 C90.9638,11.0413 88.9458,9.7743 86.7508,8.6333 C86.6608,7.3083 85.7048,6.1553 84.3388,5.8903 C83.4618,5.7223 82.6078,5.9623 81.9508,6.4653 C79.4918,5.5033 76.8458,4.6843 73.9968,4.0343 C73.7748,2.7613 72.7548,1.7253 71.4068,1.5653 C70.1858,1.4263 69.0518,2.0353 68.4678,3.0313 C65.7328,2.6483 62.8418,2.4003 59.7698,2.3153 C59.2298,1.5223 58.3208,1.0003 57.2888,1.0003 C56.2558,1.0003 55.3468,1.5223 54.8068,2.3153 C51.7748,2.3993 48.9198,2.6413 46.2148,3.0163 C45.6278,2.0303 44.5018,1.4273 43.2868,1.5653 C41.9488,1.7243 40.9348,2.7443 40.7028,4.0043 C37.8368,4.6523 35.1768,5.4713 32.7038,6.4333 C32.0518,5.9513 31.2138,5.7253 30.3548,5.8903 C29.0098,6.1513 28.0648,7.2733 27.9498,8.5723 C25.7288,9.7183 23.6848,10.9913 21.8098,12.3713 C21.1168,12.0153 20.2888,11.9233 19.4908,12.1863 C17.9378,12.7023 17.0928,14.3673 17.5768,15.9233 C15.8538,17.5593 14.3048,19.2923 12.9148,21.0963 C12.2628,20.9003 11.5458,20.9113 10.8738,21.2003 C9.3518,21.8543 8.6488,23.6193 9.3028,25.1413 L9.6408,25.9283 C8.1188,28.4913 6.8548,31.1333 5.8098,33.7863 C5.4198,33.8373 5.0338,33.9653 4.6738,34.1783 C3.2478,35.0223 2.7748,36.8613 3.6188,38.2873 L4.0268,38.9783 C3.0538,42.2723 2.3778,45.5083 1.9158,48.5523 C1.4838,48.7193 1.0808,48.9773 0.7528,49.3483 C-0.3452,50.5893 -0.2282,52.4853 1.0128,53.5833 L1.2918,53.8293 C0.8798,58.6893 0.9788,62.6943 1.1378,65.0943 C1.9268,76.9683 8.8848,76.8313 8.8848,64.6623 C8.8848,62.9153 9.0688,60.9203 9.4868,58.7923 C9.8848,58.6233 10.2538,58.3693 10.5598,58.0233 C11.5178,56.9403 11.5498,55.3583 10.7168,54.2433 C11.3508,52.4123 12.1788,50.5423 13.2258,48.6833 C13.2328,48.6793 13.2398,48.6783 13.2458,48.6743 C14.1368,48.1473 14.6558,47.2313 14.7138,46.2703 C15.8258,44.6363 17.1378,43.0353 18.6548,41.4993 C18.9418,41.4683 19.2308,41.4083 19.5098,41.2873 C20.4568,40.8803 21.0868,40.0433 21.2698,39.1023 C22.4978,38.0873 23.8468,37.1213 25.3078,36.2083 C25.6978,36.3893 26.1258,36.4923 26.5658,36.4923 C26.8798,36.4923 27.1978,36.4423 27.5118,36.3383 C28.6288,35.9673 29.3708,34.9993 29.5248,33.9083 C30.6958,33.3523 31.9188,32.8263 33.2148,32.3433 C33.7238,32.7243 34.3478,32.9503 35.0088,32.9503 C35.1968,32.9503 35.3898,32.9323 35.5818,32.8953 C36.6968,32.6793 37.5338,31.8673 37.8568,30.8563 C39.7168,30.3533 41.6848,29.9203 43.7758,29.5703 C44.2838,30.5393 45.2978,31.1793 46.4288,31.1793 C46.5468,31.1793 46.6648,31.1723 46.7848,31.1583 C48.0678,31.0063 49.0558,30.0623 49.3408,28.8753 C51.0318,28.7233 52.7918,28.6213 54.6208,28.5703 C55.1148,29.5483 56.1178,30.2253 57.2888,30.2253 C58.4598,30.2253 59.4618,29.5483 59.9568,28.5703 C61.8288,28.6223 63.6278,28.7293 65.3548,28.8873 C65.6438,30.0693 66.6298,31.0073 67.9088,31.1583 C68.0288,31.1723 68.1468,31.1793 68.2648,31.1793 C69.3888,31.1793 70.3978,30.5483 70.9098,29.5903 C73.0088,29.9453 74.9828,30.3853 76.8488,30.8943 C77.1808,31.8873 78.0108,32.6813 79.1118,32.8953 C79.3038,32.9323 79.4968,32.9503 79.6848,32.9503 C80.3298,32.9503 80.9368,32.7343 81.4388,32.3693 C82.7548,32.8633 83.9938,33.4013 85.1788,33.9683 C85.3528,35.0353 86.0858,35.9743 87.1818,36.3383 C87.4958,36.4423 87.8138,36.4923 88.1278,36.4923 C88.5428,36.4923 88.9438,36.3983 89.3158,36.2373 C90.8178,37.1783 92.2048,38.1743 93.4598,39.2223 C93.6708,40.1133 94.2778,40.8983 95.1838,41.2873 C95.4208,41.3903 95.6648,41.4483 95.9098,41.4863 C97.5018,43.0963 98.8678,44.7783 100.0148,46.4943 C100.1268,47.3043 100.5618,48.0533 101.2738,48.5463 C102.3818,50.4933 103.2468,52.4523 103.9008,54.3673 C103.1568,55.4733 103.2098,56.9783 104.1338,58.0233 C104.4058,58.3303 104.7298,58.5603 105.0778,58.7283 C105.5048,60.8803 105.6918,62.8983 105.6918,64.6623 C105.6918,76.8313 112.6498,76.9683 113.4388,65.0943 C113.5968,62.7103 113.6948,58.7423 113.2938,53.9263 L113.6808,53.5833 C114.9218,52.4853 115.0388,50.5893 113.9408,49.3483" id="twist_long_hair_Fill-1" ns2:color="Hair-500" />
                <path d="M32.9872,165.9284 L32.9872,147.5394 C15.4562,139.2114 2.9392,122.0434 1.1962,101.7954 L1.1962,171.4894 C9.7472,167.9074 19.1362,165.9284 28.9872,165.9284 L32.9872,165.9284 Z" id="twist_long_hair_Fill-4" ns2:color="Hair-500" />
                <path d="M80.9877,147.5387 L80.9867,165.9287 L84.9867,165.9287 C94.8667,165.9287 104.2797,167.9227 112.8507,171.5227 L112.8507,101.7957 L112.7787,101.7957 C111.0357,122.0427 98.5177,139.2107 80.9877,147.5387" id="twist_long_hair_Fill-6" ns2:color="Hair-500" />
            </g>
            <path d="M6.6562,169.4792 C8.6202,168.8382 10.6212,168.2832 12.6562,167.8112 L12.6562,131.1382 C10.3472,128.1512 8.3302,124.9262 6.6562,121.5032 L6.6562,169.4792 Z" id="twist_long_hair_Fill-8" fill-opacity=".24" fill="#000" />
            <path d="M29.7026,165.9284 L32.9876,165.9284 L32.9876,147.5394 C31.8716,147.0094 30.7766,146.4424 29.7026,145.8424 L29.7026,165.9284 Z" id="twist_long_hair_Fill-10" fill-opacity=".24" fill="#000" />
            <path d="M24.1796,142.3093 C22.0646,140.7783 20.0576,139.1063 18.1796,137.3013 L18.1796,166.7363 C20.1526,166.4393 22.1576,166.2403 24.1796,166.1063 L24.1796,142.3093 Z" id="twist_long_hair_Fill-12" fill-opacity=".24" fill="#000" />
            <path d="M83.853,146.069 C82.914,146.585 81.959,147.078 80.988,147.539 L80.987,165.928 L83.853,165.928 L83.853,146.069 Z" id="twist_long_hair_Fill-14" fill-opacity=".24" fill="#000" />
            <path d="M95.3764,166.6852 L95.3764,137.6912 C93.4944,139.4632 91.4894,141.1072 89.3764,142.6082 L89.3764,166.0752 C91.3994,166.1972 93.4014,166.3992 95.3764,166.6852" id="twist_long_hair_Fill-16" fill-opacity=".24" fill="#000" />
            <path d="M106.8998,122.3307 C105.2068,125.6507 103.1948,128.7787 100.8998,131.6757 L100.8998,167.7177 C102.9328,168.1767 104.9358,168.7137 106.8998,169.3417 L106.8998,122.3307 Z" id="twist_long_hair_Fill-18" fill-opacity=".24" fill="#000" />
            <path d="M32.9872,158.6843 L32.9872,147.5393 C15.4562,139.2113 2.9392,122.0433 1.1962,101.7953 L1.1962,141.3833 C9.0002,149.2063 20.0532,155.3023 32.9872,158.6843" id="twist_long_hair_Fill-20" fill-opacity=".24" fill="#000" />
            <path d="M112.851,140.3151 L112.851,101.7951 L112.779,101.7951 C111.036,122.0431 98.518,139.2111 80.988,147.5391 L80.988,158.4151 C94.082,154.8261 105.195,148.4521 112.851,140.3151" id="twist_long_hair_Fill-22" fill-opacity=".24" fill="#000" />
            <path d="M57.2885,1.0002 C55.6315,1.0002 54.2885,2.3432 54.2885,4.0002 L54.2885,27.2252 C54.2885,28.8822 55.6315,30.2252 57.2885,30.2252 C58.9455,30.2252 60.2885,28.8822 60.2885,27.2252 L60.2885,4.0002 C60.2885,2.3432 58.9455,1.0002 57.2885,1.0002" id="twist_long_hair_Fill-24" fill-opacity=".24" fill="#000" />
            <path d="M71.4067,1.5656 C69.7607,1.3786 68.2687,2.5466 68.0747,4.1926 L65.2817,27.8266 C65.0877,29.4726 66.2637,30.9636 67.9087,31.1586 C68.0287,31.1716 68.1467,31.1796 68.2647,31.1796 C69.7637,31.1796 71.0597,30.0566 71.2407,28.5306 L74.0337,4.8976 C74.2277,3.2516 73.0517,1.7606 71.4067,1.5656" id="twist_long_hair_Fill-26" fill-opacity=".24" fill="#000" />
            <path d="M84.3393,5.8908 C82.7113,5.5788 81.1383,6.6398 80.8233,8.2658 L76.7363,29.3798 C76.4223,31.0068 77.4853,32.5798 79.1113,32.8948 C79.3043,32.9328 79.4963,32.9508 79.6853,32.9508 C81.0933,32.9508 82.3503,31.9538 82.6273,30.5198 L86.7143,9.4068 C87.0283,7.7798 85.9663,6.2058 84.3393,5.8908" id="twist_long_hair_Fill-28" fill-opacity=".24" fill="#000" />
            <path d="M95.2026,12.1867 C93.6316,11.6677 91.9326,12.5167 91.4106,14.0887 L85.2806,32.5457 C84.7586,34.1187 85.6096,35.8157 87.1816,36.3387 C87.4956,36.4427 87.8136,36.4927 88.1276,36.4927 C89.3856,36.4927 90.5566,35.6957 90.9736,34.4367 L97.1036,15.9787 C97.6266,14.4067 96.7746,12.7087 95.2026,12.1867" id="twist_long_hair_Fill-30" fill-opacity=".24" fill="#000" />
            <path d="M103.8197,21.2004 C102.3007,20.5464 100.5337,21.2494 99.8797,22.7714 L93.6127,37.3464 C92.9587,38.8694 93.6617,40.6334 95.1837,41.2874 C95.5697,41.4544 95.9717,41.5334 96.3677,41.5334 C97.5297,41.5334 98.6357,40.8524 99.1247,39.7174 L105.3907,25.1414 C106.0457,23.6184 105.3417,21.8544 103.8197,21.2004" id="twist_long_hair_Fill-32" fill-opacity=".24" fill="#000" />
            <path d="M105.5571,47.6188 L111.0751,38.2878 C111.9181,36.8618 111.4461,35.0218 110.0201,34.1788 C108.5921,33.3348 106.7531,33.8088 105.9111,35.2338 L100.3931,44.5648 C99.5491,45.9918 100.0221,47.8308 101.4481,48.6748 C101.9271,48.9578 102.4531,49.0928 102.9721,49.0928 C103.9981,49.0928 104.9971,48.5658 105.5571,47.6188" id="twist_long_hair_Fill-34" fill-opacity=".24" fill="#000" />
            <path d="M113.9408,49.3483 C112.8428,48.1053 110.9458,47.9923 109.7068,49.0893 L104.3938,53.7883 C103.1528,54.8873 103.0368,56.7823 104.1338,58.0233 C104.7268,58.6943 105.5528,59.0363 106.3818,59.0363 C107.0888,59.0363 107.7978,58.7873 108.3688,58.2833 L113.6808,53.5833 C114.9218,52.4853 115.0388,50.5893 113.9408,49.3483" id="twist_long_hair_Fill-36" fill-opacity=".24" fill="#000" />
            <path d="M46.6191,4.193 C46.4251,2.547 44.9321,1.378 43.2871,1.566 C41.6421,1.76 40.4661,3.252 40.6601,4.897 L43.4531,28.531 C43.6341,30.057 44.9301,31.179 46.4291,31.179 C46.5471,31.179 46.6651,31.172 46.7851,31.158 C48.4301,30.964 49.6061,29.472 49.4121,27.827 L46.6191,4.193 Z" id="twist_long_hair_Fill-38" fill-opacity=".24" fill="#000" />
            <path d="M33.87,8.2658 C33.556,6.6398 31.982,5.5778 30.354,5.8908 C28.727,6.2058 27.665,7.7798 27.979,9.4068 L32.066,30.5198 C32.344,31.9538 33.6,32.9508 35.009,32.9508 C35.197,32.9508 35.39,32.9328 35.582,32.8948 C37.208,32.5798 38.271,31.0068 37.957,29.3798 L33.87,8.2658 Z" id="twist_long_hair_Fill-40" fill-opacity=".24" fill="#000" />
            <path d="M23.2831,14.0886 C22.7611,12.5166 21.0621,11.6676 19.4911,12.1866 C17.9191,12.7096 17.0671,14.4066 17.5901,15.9796 L23.7201,34.4366 C24.1371,35.6956 25.3081,36.4926 26.5661,36.4926 C26.8801,36.4926 27.1981,36.4426 27.5121,36.3386 C29.0841,35.8166 29.9351,34.1186 29.4131,32.5466 L23.2831,14.0886 Z" id="twist_long_hair_Fill-42" fill-opacity=".24" fill="#000" />
            <path d="M14.8144,22.7712 C14.1604,21.2492 12.3924,20.5462 10.8744,21.2002 C9.3514,21.8542 8.6484,23.6192 9.3024,25.1412 L15.5694,39.7172 C16.0574,40.8532 17.1644,41.5332 18.3264,41.5332 C18.7214,41.5332 19.1244,41.4542 19.5094,41.2882 C21.0324,40.6332 21.7354,38.8692 21.0814,37.3472 L14.8144,22.7712 Z" id="twist_long_hair_Fill-44" fill-opacity=".24" fill="#000" />
            <path d="M8.7831,35.2341 C7.9401,33.8091 6.1011,33.3351 4.6741,34.1781 C3.2481,35.0221 2.7751,36.8611 3.6191,38.2881 L9.1371,47.6191 C9.6961,48.5661 10.6951,49.0921 11.7211,49.0921 C12.2401,49.0921 12.7661,48.9581 13.2461,48.6741 C14.6721,47.8311 15.1441,45.9911 14.3011,44.5651 L8.7831,35.2341 Z" id="twist_long_hair_Fill-46" fill-opacity=".24" fill="#000" />
            <path d="M4.9872,49.089 C3.7482,47.992 1.8502,48.106 0.7532,49.348 C-0.3448,50.589 -0.2288,52.485 1.0122,53.583 L6.3252,58.283 C6.8952,58.788 7.6042,59.036 8.3112,59.036 C9.1402,59.036 9.9662,58.694 10.5592,58.024 C11.6572,56.782 11.5412,54.887 10.2992,53.789 L4.9872,49.089 Z" id="twist_long_hair_Fill-48" fill-opacity=".24" fill="#000" />
        </g>
        <g id="twist_long_hair_Facial-Hair" transform="translate(49.000000, 72.000000)" />
        <g id="twist_long_hair_Accessory" transform="translate(62.000000, 85.000000)" />
    </g>
</g>
        </g>
    </g>
</svg>