<svg xmlns="http://www.w3.org/2000/svg" xmlns:ns2="http://design.blush" xmlns:xlink="http://www.w3.org/1999/xlink" width="264px" height="280px" viewBox="0 0 264 280" version="1.1">
    <title id="circle_Title">Avataaar/Circle</title>
    <desc>Created with python_avatars</desc>
    <defs>
        <circle id="circle_path-1" cx="120" cy="120" r="120" />
        <path d="M-3.19744231e-14,160 L-3.19744231e-14,-1.42108547e-14 L264,-1.42108547e-14 L264,160 L252,160 C252,226.27417 198.27417,280 132,280 C65.72583,280 12,226.27417 12,160 L12,160 L-3.19744231e-14,160 Z" id="circle_path-3" />
        <path d="M100,0 C130.927946,-5.68137151e-15 156,25.072054 156,56 L156.000809,62.1660527 C161.675838,63.1185422 166,68.05429 166,74 L166,88 C166,94.0524166 161.519235,99.0582945 155.693975,99.8813638 C153.627928,119.686472 141.237929,136.421678 124.001014,144.610469 L124,163 L128,163 C167.764502,163 200,195.235498 200,235 L200,244 L0,244 L0,235 C-4.86974701e-15,195.235498 32.235498,163 72,163 L76,163 L75.9999836,144.610943 C58.7625487,136.422324 46.3721119,119.686854 44.3051107,99.8809698 C38.480765,99.0582945 34,94.0524166 34,88 L34,74 C34,68.053942 38.3246685,63.1179645 44.0001873,62.1658855 L44,56 C44,25.072054 69.072054,5.68137151e-15 100,0 Z" id="circle_path-5" />
        <path d="M83,36.3476251 C83,52.6289957 105.161905,65.8276544 132.5,65.8276544 C159.838095,65.8276544 182,52.6289957 182,36.3476251 C182,34.9853134 181.844841,33.6445843 181.544472,32.3313638 C210.784239,41.4879251 232,68.792221 232,101.051724 L232,110 L32,110 L32,101.051724 C32,68.3970853 53.7386736,40.8197864 83.5337207,32.0021267 C83.1821692,33.4207025 83,34.871494 83,36.3476251 Z" id="circle_path-7" />
        <rect id="circle_path-9" x="0" y="0" width="264" height="280" />
        <path d="M74,0 C114.869071,0 148,33.1309285 148,74 L148,84.1482318 L148,197.608051 C135.525121,187.236892 119.490913,181 102,181 L102,181 L98,181 L98,162.610951 C115.530782,154.282984 128.048193,137.114792 129.791419,116.867187 C135.569129,116.002364 140,111.018625 140,105 L140,105 L140,92 C140,87.3536213 137.359271,83.3240177 133.496777,81.3301515 C132.723933,81.0500337 131.951808,80.748163 131.180891,80.4262497 C130.794819,80.3202581 130.400778,80.2331546 130,80.1659169 L130,80.1659169 L130.000458,79.9172528 C117.224481,74.2339715 104.877985,63.0706967 96.1104311,47.8848473 C93.1752556,42.8009742 90.8310687,37.5951441 89.0661426,32.3970356 C80.4313947,42.9409152 67.7445474,53.6023901 52.3415164,62.4953343 C42.777598,68.0170651 33.1467898,72.2910056 24,75.2659587 L24.0003852,137.246608 C29.6019576,148.318362 38.7728825,157.277529 50,162.610951 L50,162.610951 L50,181 L46,181 C38.3273639,181 30.9350359,182.200142 24.0004995,184.422941 L24,230 C24,244.105888 13.5691766,255.775526 0,257.716445 L0,74 C0,33.1309285 33.1309285,0 74,0 Z" id="circle_path-11" />
    </defs>
    <g id="circle_Avataaar/Circle" stroke="none" stroke-width="1" fill="none" fill-rule="evenodd">
        <g id="circle_Circle" transform="translate(12.000000, 40.000000)">
            <mask id="circle_mask-2" fill="white">
                <use xlink:href="#circle_path-1" />
            </mask>
            <use id="circle_Background-Color" fill="#FFFFFF" xlink:href="#circle_path-1" />
            <g id="circle_Fabric-Color" mask="url(#circle_mask-2)" fill="">
                <rect id="circle_ðŸ–Color" x="0" y="0" width="240" height="240" />
            </g>
        </g>
        <mask id="circle_mask-4" fill="white">
            <use xlink:href="#circle_path-3" />
        </mask>
        <g id="circle_Mask" />
        <g id="circle_Avataaar" mask="url(#circle_mask-4)">
            <g id="circle_Body" transform="translate(32.000000, 36.000000)">
                <mask id="circle_mask-6" fill="white">
                    <use xlink:href="#circle_path-5" />
                </mask>
                <use fill="#D0C6AC" xlink:href="#circle_path-5" />
                <g id="circle_Skin-Color" mask="url(#circle_mask-6)" fill="#e24a07">
                    <g transform="translate(-32.000000, 0.000000)" id="circle_Color">
                        <rect x="0" y="0" width="264" height="244" />
                    </g>
                </g>
                <path d="M44,94 C44,124.927946 69.072054,150 100,150 C130.927946,150 156,124.927946 156,94 L156,94 L156,102 C156,132.927946 130.927946,158 100,158 C69.072054,158 44,132.927946 44,102 Z" id="circle_Neck-Shadow" fill-opacity="0.100000001" fill="#000000" mask="url(#circle_mask-6)" />
            </g>
            <g id="circle_Clothing" transform="translate(0.000000, 170.000000)">
                
            <g id="astronaut_suit_Clothing/Astronaut suit" stroke="none" stroke-width="1" fill="none" fill-rule="evenodd"><g id="astronaut_suit_Astronaut-suit" transform="translate(32.000000, 22.000000)"><path d="M127.9997,6.7405 L123.9997,6.7405 L124.0007,0.0005 L75.9997,0.0005 L75.9997,6.7405 L71.9997,6.7405 C32.6327,6.7405 0.6457,38.3345 0.0097,77.5495 L-0.0003,78.7405 L-0.0003,87.7405 L199.9997,87.7405 L199.9997,78.7405 C199.9997,38.9755 167.7647,6.7405 127.9997,6.7405" id="astronaut_suit_Fill-1" fill="#B0DBE2" /><path d="M180.2253,29.2054 C168.8273,38.7164 145.7303,58.8474 145.7303,58.8474 L145.7303,87.7404 L199.9993,87.7404 L199.9993,78.7404 C199.9993,59.5424 192.4713,42.1134 180.2253,29.2054" id="astronaut_suit_Fill-4" fill="#D4EEF4" /><path d="M0.0095,77.5491 L0.0005,78.7401 L0.0005,87.7401 L54.3105,87.7401 L54.3105,58.8471 C54.3105,58.8471 31.1785,38.6861 19.7905,29.1841 C7.7865,41.8261 0.3135,58.8131 0.0095,77.5491" id="astronaut_suit_Fill-6" fill="#D4EEF4" /><path d="M121.8503,50.7298 L78.1893,50.7298 C73.4013,50.7298 69.5203,54.6118 69.5203,59.3998 L69.5203,87.7738 L130.5203,87.7738 L130.5203,59.3998 C130.5203,54.6118 126.6383,50.7298 121.8503,50.7298" id="astronaut_suit_Fill-8" fill="#60ADE6" ns2:color="Top-500" /><path d="M83.6935,58.473 C80.9605,58.473 78.7445,60.689 78.7445,63.422 C78.7445,66.156 80.9605,68.371 83.6935,68.371 C86.4265,68.371 88.6425,66.156 88.6425,63.422 C88.6425,60.689 86.4265,58.473 83.6935,58.473" id="astronaut_suit_Fill-10" fill="#EBFCFF" /><path d="M100.0202,58.473 C97.2872,58.473 95.0712,60.689 95.0712,63.422 C95.0712,66.156 97.2872,68.371 100.0202,68.371 C102.7532,68.371 104.9692,66.156 104.9692,63.422 C104.9692,60.689 102.7532,58.473 100.0202,58.473" id="astronaut_suit_Fill-12" fill="#EBFCFF" /><path d="M116.3464,58.473 C113.6144,58.473 111.3974,60.689 111.3974,63.422 C111.3974,66.156 113.6144,68.371 116.3464,68.371 C119.0804,68.371 121.2964,66.156 121.2964,63.422 C121.2964,60.689 119.0804,58.473 116.3464,58.473" id="astronaut_suit_Fill-14" fill="#EBFCFF" /><path d="M117.8112,87.7737 L82.2292,87.7737 C80.3042,87.7737 78.7442,86.2137 78.7442,84.2897 L78.7442,78.4967 C78.7442,76.5717 80.3042,75.0107 82.2292,75.0107 L117.8112,75.0107 C119.7362,75.0107 121.2962,76.5717 121.2962,78.4967 L121.2962,84.2897 C121.2962,86.2137 119.7362,87.7737 117.8112,87.7737" id="astronaut_suit_Fill-16" fill="#B0DBE2" /><path d="M164.361,16.6038 C153.687,10.3438 141.267,6.7408 128,6.7408 L124,6.7408 L124.001,-0.0002 L76,-0.0002 L76,6.7408 L72,6.7408 C59.006,6.7408 46.827,10.1998 36.303,16.2208 C95.548,34.5108 143.322,23.6098 164.361,16.6038" id="astronaut_suit_Fill-18" fill="#60ADE6" ns2:color="Top-500" /></g></g></g>
            <g id="circle_Face" transform="translate(76.000000, 82.000000)" fill="#000000">
                <g id="circle_Mouth" transform="translate(2.000000, 52.000000)">    
                    
                <g id="disbelief_Mouth/Disbelief" stroke="none" stroke-width="1" fill="none" fill-rule="evenodd" fill-opacity="0.699999988">
        <path d="M40,15 C40,22.7319865 46.2680135,29 54,29 L54,29 C61.7319865,29 68,22.7319865 68,15" id="disbelief_Mouth" fill="#000000" transform="translate(54.000000, 22.000000) scale(1, -1) translate(-54.000000, -22.000000) " />
    </g>
</g>
                <g id="circle_Nose" transform="translate(28.000000, 40.000000)" fill-opacity="0.16">
                    
                <g id="default_Nose/Default" stroke="none" stroke-width="1" fill="none" fill-rule="evenodd" fill-opacity="0.16">
        <path d="M16,8 C16,12.418278 21.372583,16 28,16 L28,16 C34.627417,16 40,12.418278 40,8" id="default_Nose" fill="#000000" />
    </g>
</g>
                <g id="circle_Eyes" transform="translate(0.000000, 8.000000)">
                    
                <g id="wink_Eyes/Wink-ðŸ˜‰" stroke="none" stroke-width="1" fill="none" fill-rule="evenodd" fill-opacity="0.599999964">
        <circle id="wink_Eye" fill="#000000" cx="30" cy="22" r="6" />
        <path d="M70.4123979,24.204889 C72.2589064,20.4060854 76.4166529,17.7575774 81.2498107,17.7575774 C86.065907,17.7575774 90.2113521,20.3874194 92.0675822,24.1647016 C92.618991,25.2867751 91.8343342,26.2050591 91.0428374,25.5246002 C88.5917368,23.4173607 85.1109468,22.1013658 81.2498107,22.1013658 C77.5094365,22.1013658 74.1259889,23.3363293 71.6897696,25.3292186 C70.7990233,26.0578718 69.8723316,25.3159619 70.4123979,24.204889 Z" id="wink_Winky-Wink" fill="#000000" transform="translate(81.252230, 21.757577) rotate(-4.000000) translate(-81.252230, -21.757577) " />
    </g>
</g>
                <g id="circle_Eyebrow" fill-opacity="0.599999964">
                    
                <g id="default_Eyebrow/Outline/Default" stroke="none" stroke-width="1" fill="none" fill-rule="evenodd" fill-opacity="0.599999964">
        <g id="default_I-Browse" transform="translate(12.000000, 6.000000)" fill="#000000" fill-rule="nonzero">
            <path d="M3.63024536,11.1585767 C7.54515501,5.64986673 18.2779197,2.56083721 27.5230268,4.83118046 C28.5957248,5.0946055 29.6788665,4.43856013 29.9422916,3.36586212 C30.2057166,2.2931641 29.5496712,1.21002236 28.4769732,0.94659732 C17.7403633,-1.69001789 5.31209962,1.88699832 0.369754639,8.84142326 C-0.270109626,9.74178291 -0.0589363917,10.9903811 0.84142326,11.6302454 C1.74178291,12.2701096 2.9903811,12.0589364 3.63024536,11.1585767 Z" id="default_Eyebrow" />
            <path d="M61.6302454,11.1585767 C65.545155,5.64986673 76.2779197,2.56083721 85.5230268,4.83118046 C86.5957248,5.0946055 87.6788665,4.43856013 87.9422916,3.36586212 C88.2057166,2.2931641 87.5496712,1.21002236 86.4769732,0.94659732 C75.7403633,-1.69001789 63.3120996,1.88699832 58.3697546,8.84142326 C57.7298904,9.74178291 57.9410636,10.9903811 58.8414233,11.6302454 C59.7417829,12.2701096 60.9903811,12.0589364 61.6302454,11.1585767 Z" id="default_Eyebrow" transform="translate(73.000154, 6.039198) scale(-1, 1) translate(-73.000154, -6.039198) " />
        </g>
    </g>
</g>
            </g>
            <g id="circle_Top">
                
            <defs>
        <path d="M94.2519269,52.0221149 C94.3749353,51.9677149 94.0696712,51.9468149 93.3361345,51.9595149 C94.2276637,51.9577149 94.5329279,51.9785149 94.2519269,52.0221149 M86.1169775,36.3015924 C86.1148422,36.2819924 86.1337548,36.4526924 86.1169775,36.3015924 M193.765056,70.7656665 C193.500946,67.448734 193.03295,64.1518864 192.246676,60.9110823 C191.622233,58.3353492 190.769007,55.8775343 189.760006,53.4200433 C189.150703,51.9353766 187.727538,49.8961062 187.560324,48.2944933 C187.395466,46.7168527 188.626521,44.969138 188.889285,43.1323368 C189.144311,41.3447761 189.100909,39.4652134 188.734183,37.6938503 C187.901144,33.6710288 185.140271,29.9300447 180.877167,28.8814158 C179.925362,28.6471994 177.913417,28.9358396 177.240862,28.3815597 C176.469729,27.7459682 175.932761,25.5806808 175.234637,24.7121687 C173.244224,22.2362125 170.13984,20.6417265 166.865887,21.1976261 C164.454917,21.606776 165.839391,22.1053363 164.032005,20.6864317 C163.027041,19.8976114 162.276095,18.6931622 161.300066,17.8392279 C159.832826,16.5563826 158.149588,15.4581893 156.408146,14.556958 C151.851325,12.19892 146.654249,10.4848961 141.564162,9.64942693 C132.278934,8.12523827 122.368926,9.45408458 113.368668,11.8688141 C108.890239,13.0703477 104.381531,14.5951842 100.222053,16.6117782 C98.4385542,17.4764029 97.4090304,18.1936301 95.5494951,18.4200717 C92.6207355,18.7767416 90.1404579,18.7589243 87.3661268,20.0009517 C78.8298269,23.8229236 74.9849256,32.6897818 78.3066539,41.1750259 C78.974835,42.8815988 79.8795374,44.3801954 81.1267416,45.7586062 C82.6474761,47.4392631 83.1975648,47.1085093 81.8877817,49.0411999 C79.9289949,51.9311653 78.2777195,55.0129095 76.9332826,58.2128958 C73.4043038,66.6145606 72.8138416,76.0771643 73.043634,85.0373203 C73.1240445,88.1741362 73.2586228,91.3495022 73.753198,94.4561907 C73.966841,95.8009106 74.0267283,98.3293468 75.0353925,99.3271154 C75.5471264,99.8331265 76.2762042,100.115288 77.0035997,99.9137903 C78.7130802,99.4401742 78.1253096,98.1787097 78.1650102,97.0076274 C78.364859,91.1240324 78.0950295,85.9191145 79.4943071,80.1064647 C80.5278683,75.8118486 82.2504702,71.9114806 84.4827873,68.0713675 C87.3213795,63.1871608 90.3857268,58.8977279 94.2895061,54.7155226 C95.2073299,53.7320079 95.4078515,53.3150832 96.6385698,53.243814 C97.5705244,53.1900382 98.9338023,53.8282213 99.8398505,54.0491558 C101.837665,54.5360539 103.83918,55.0174448 105.873331,55.3452831 C109.613261,55.9481556 113.316519,55.9886494 117.090094,55.8704074 C124.516459,55.6381346 131.974787,55.1172217 139.175061,53.2470535 C143.956964,52.00535 148.196516,49.7762443 152.776887,48.1422364 C152.858644,48.1130808 154.006596,47.2951049 154.207791,47.3284719 C154.488723,47.3747968 156.184746,49.1542588 156.471061,49.3784327 C158.696649,51.1238798 161.137899,51.8566566 163.541467,53.2081794 C166.504881,54.8745825 163.634999,52.4899804 165.269452,54.5668292 C165.745859,55.1716454 165.989782,56.2931632 166.371984,56.9783192 C167.587899,59.1610999 169.279548,61.0795367 171.302932,62.6017816 C173.258018,64.0725184 176.196198,64.7829426 177.193087,66.697168 C177.961865,68.1740599 178.220929,70.1812592 178.841334,71.7579279 C180.468722,75.8931602 182.617937,79.7494709 184.767152,83.6443317 C186.498502,86.7830913 188.392354,89.5250111 188.584801,93.1117947 C188.651754,94.3603012 187.463764,101.849397 190.357534,99.5716982 C190.786502,99.2341415 191.711391,95.415733 191.901483,94.7678314 C192.672616,92.135083 192.94682,89.3866841 193.29605,86.6816947 C193.990474,81.3021672 194.218584,76.1837441 193.765056,70.7656665" id="short_curly_path-1" />
    </defs>
    <g id="short_curly_Top/Short-Hair/Short-Curly" stroke="none" stroke-width="1" fill="none" fill-rule="evenodd" transform="translate(-1 0)">
        <g id="short_curly_Facial-Hair" transform="translate(49.000000, 72.000000)" />
        <mask id="short_curly_mask-2" fill="white">
            <use xlink:href="#short_curly_path-1" />
        </mask>
        <use id="short_curly_Short-Hair" fill="#28354B" xlink:href="#short_curly_path-1" />
        <g id="short_curly_Hair-Color" mask="url(#short_curly_mask-2)" fill="#724133">
            <g transform="translate(1.000000, 0.000000)" id="short_curly_Color">
                <rect x="0" y="0" width="264" height="280" />
            </g>
        </g>
        <g id="short_curly_Accessory" transform="translate(62.000000, 86.000000)" />
    </g>
</g>
        </g>
    </g>
</svg>