<?xml version="1.0" encoding="UTF-8" standalone="no"?>
<!DOCTYPE svg PUBLIC "-//W3C//DTD SVG 1.1//EN"
 "http://www.w3.org/Graphics/SVG/1.1/DTD/svg11.dtd">
<!-- Generated by graphviz version 14.1.2 (0)
 -->
<!-- Title: rustdesk_security Pages: 1 -->
<svg width="1417pt" height="327pt"
 viewBox="0.00 0.00 1417.00 327.00" xmlns="http://www.w3.org/2000/svg" xmlns:xlink="http://www.w3.org/1999/xlink">
<g id="graph0" class="graph" transform="scale(1 1) rotate(0) translate(4 322.5)">
<title>rustdesk_security</title>
<polygon fill="white" stroke="none" points="-4,4 -4,-322.5 1412.75,-322.5 1412.75,4 -4,4"/>
<!-- privacy_first -->
<g id="node1" class="node">
<title>privacy_first</title>
<polygon fill="#4caf50" stroke="black" points="700.38,-318.5 549.38,-318.5 549.38,-282.5 700.38,-282.5 700.38,-318.5"/>
<text xml:space="preserve" text-anchor="middle" x="624.88" y="-303.55" font-family="Arial" font-size="11.00" fill="white">Privacy&#45;First Design</text>
<text xml:space="preserve" text-anchor="middle" x="624.88" y="-290.05" font-family="Arial" font-size="11.00" fill="white">No Third&#45;Party Dependency</text>
</g>
<!-- encryption -->
<g id="node2" class="node">
<title>encryption</title>
<path fill="#2196f3" stroke="black" d="M310.5,-224.5C310.5,-224.5 187.25,-224.5 187.25,-224.5 181.25,-224.5 175.25,-218.5 175.25,-212.5 175.25,-212.5 175.25,-200 175.25,-200 175.25,-194 181.25,-188 187.25,-188 187.25,-188 310.5,-188 310.5,-188 316.5,-188 322.5,-194 322.5,-200 322.5,-200 322.5,-212.5 322.5,-212.5 322.5,-218.5 316.5,-224.5 310.5,-224.5"/>
<text xml:space="preserve" text-anchor="middle" x="248.88" y="-209.1" font-family="Arial Bold" font-size="12.00" fill="white">End&#45;to&#45;End Encryption</text>
<text xml:space="preserve" text-anchor="middle" x="248.88" y="-194.85" font-family="Arial Bold" font-size="12.00" fill="white">NaCl Crypto Library</text>
</g>
<!-- privacy_first&#45;&gt;encryption -->
<g id="edge1" class="edge">
<title>privacy_first&#45;&gt;encryption</title>
<path fill="none" stroke="#4caf50" stroke-width="2" d="M549.24,-301C439.44,-301 248.88,-301 248.88,-301 248.88,-301 248.88,-238 248.88,-238"/>
<polygon fill="#4caf50" stroke="#4caf50" stroke-width="2" points="252.38,-238 248.88,-228 245.38,-238 252.38,-238"/>
</g>
<!-- self_hosted -->
<g id="node6" class="node">
<title>self_hosted</title>
<path fill="#2196f3" stroke="black" d="M682,-224.5C682,-224.5 567.75,-224.5 567.75,-224.5 561.75,-224.5 555.75,-218.5 555.75,-212.5 555.75,-212.5 555.75,-200 555.75,-200 555.75,-194 561.75,-188 567.75,-188 567.75,-188 682,-188 682,-188 688,-188 694,-194 694,-200 694,-200 694,-212.5 694,-212.5 694,-218.5 688,-224.5 682,-224.5"/>
<text xml:space="preserve" text-anchor="middle" x="624.88" y="-209.1" font-family="Arial Bold" font-size="12.00" fill="white">Self&#45;Hosted Server</text>
<text xml:space="preserve" text-anchor="middle" x="624.88" y="-194.85" font-family="Arial Bold" font-size="12.00" fill="white">Full Data Sovereignty</text>
</g>
<!-- privacy_first&#45;&gt;self_hosted -->
<g id="edge2" class="edge">
<title>privacy_first&#45;&gt;self_hosted</title>
<path fill="none" stroke="#4caf50" stroke-width="2" d="M624.88,-282.33C624.88,-282.33 624.88,-237.72 624.88,-237.72"/>
<polygon fill="#4caf50" stroke="#4caf50" stroke-width="2" points="628.38,-237.72 624.88,-227.72 621.38,-237.72 628.38,-237.72"/>
</g>
<!-- access_control -->
<g id="node10" class="node">
<title>access_control</title>
<path fill="#2196f3" stroke="black" d="M1129,-224.5C1129,-224.5 1026.75,-224.5 1026.75,-224.5 1020.75,-224.5 1014.75,-218.5 1014.75,-212.5 1014.75,-212.5 1014.75,-200 1014.75,-200 1014.75,-194 1020.75,-188 1026.75,-188 1026.75,-188 1129,-188 1129,-188 1135,-188 1141,-194 1141,-200 1141,-200 1141,-212.5 1141,-212.5 1141,-218.5 1135,-224.5 1129,-224.5"/>
<text xml:space="preserve" text-anchor="middle" x="1077.88" y="-209.1" font-family="Arial Bold" font-size="12.00" fill="white">Access Control</text>
<text xml:space="preserve" text-anchor="middle" x="1077.88" y="-194.85" font-family="Arial Bold" font-size="12.00" fill="white">Permission System</text>
</g>
<!-- privacy_first&#45;&gt;access_control -->
<g id="edge3" class="edge">
<title>privacy_first&#45;&gt;access_control</title>
<path fill="none" stroke="#4caf50" stroke-width="2" d="M700.7,-301C829.66,-301 1077.88,-301 1077.88,-301 1077.88,-301 1077.88,-238 1077.88,-238"/>
<polygon fill="#4caf50" stroke="#4caf50" stroke-width="2" points="1081.38,-238 1077.88,-228 1074.38,-238 1081.38,-238"/>
</g>
<!-- key_exchange -->
<g id="node3" class="node">
<title>key_exchange</title>
<path fill="#ff9800" stroke="black" d="M73.75,-130C73.75,-130 12,-130 12,-130 6,-130 0,-124 0,-118 0,-118 0,-106 0,-106 0,-100 6,-94 12,-94 12,-94 73.75,-94 73.75,-94 79.75,-94 85.75,-100 85.75,-106 85.75,-106 85.75,-118 85.75,-118 85.75,-124 79.75,-130 73.75,-130"/>
<text xml:space="preserve" text-anchor="middle" x="42.88" y="-115.05" font-family="Arial" font-size="11.00" fill="white">Key Exchange</text>
<text xml:space="preserve" text-anchor="middle" x="42.88" y="-101.55" font-family="Arial" font-size="11.00" fill="white">X25519 DH</text>
</g>
<!-- encryption&#45;&gt;key_exchange -->
<g id="edge4" class="edge">
<title>encryption&#45;&gt;key_exchange</title>
<path fill="none" stroke="#2196f3" stroke-width="2" d="M174.8,-206C115.74,-206 42.88,-206 42.88,-206 42.88,-206 42.88,-143.15 42.88,-143.15"/>
<polygon fill="#2196f3" stroke="#2196f3" stroke-width="2" points="46.38,-143.15 42.88,-133.15 39.38,-143.15 46.38,-143.15"/>
</g>
<!-- aes_256 -->
<g id="node4" class="node">
<title>aes_256</title>
<path fill="#ff9800" stroke="black" d="M215.5,-130C215.5,-130 134.25,-130 134.25,-130 128.25,-130 122.25,-124 122.25,-118 122.25,-118 122.25,-106 122.25,-106 122.25,-100 128.25,-94 134.25,-94 134.25,-94 215.5,-94 215.5,-94 221.5,-94 227.5,-100 227.5,-106 227.5,-106 227.5,-118 227.5,-118 227.5,-124 221.5,-130 215.5,-130"/>
<text xml:space="preserve" text-anchor="middle" x="174.88" y="-115.05" font-family="Arial" font-size="11.00" fill="white">Stream Encryption</text>
<text xml:space="preserve" text-anchor="middle" x="174.88" y="-101.55" font-family="Arial" font-size="11.00" fill="white">AES&#45;256&#45;GCM</text>
</g>
<!-- encryption&#45;&gt;aes_256 -->
<g id="edge5" class="edge">
<title>encryption&#45;&gt;aes_256</title>
<path fill="none" stroke="#2196f3" stroke-width="2" d="M201.38,-187.63C201.38,-187.63 201.38,-143.29 201.38,-143.29"/>
<polygon fill="#2196f3" stroke="#2196f3" stroke-width="2" points="204.88,-143.29 201.38,-133.29 197.88,-143.29 204.88,-143.29"/>
</g>
<!-- sign_verify -->
<g id="node5" class="node">
<title>sign_verify</title>
<path fill="#ff9800" stroke="black" d="M369.88,-130C369.88,-130 275.88,-130 275.88,-130 269.88,-130 263.88,-124 263.88,-118 263.88,-118 263.88,-106 263.88,-106 263.88,-100 269.88,-94 275.88,-94 275.88,-94 369.88,-94 369.88,-94 375.88,-94 381.88,-100 381.88,-106 381.88,-106 381.88,-118 381.88,-118 381.88,-124 375.88,-130 369.88,-130"/>
<text xml:space="preserve" text-anchor="middle" x="322.88" y="-115.05" font-family="Arial" font-size="11.00" fill="white">Signature Verification</text>
<text xml:space="preserve" text-anchor="middle" x="322.88" y="-101.55" font-family="Arial" font-size="11.00" fill="white">Ed25519</text>
</g>
<!-- encryption&#45;&gt;sign_verify -->
<g id="edge6" class="edge">
<title>encryption&#45;&gt;sign_verify</title>
<path fill="none" stroke="#2196f3" stroke-width="2" d="M293.19,-187.63C293.19,-187.63 293.19,-143.29 293.19,-143.29"/>
<polygon fill="#2196f3" stroke="#2196f3" stroke-width="2" points="296.69,-143.29 293.19,-133.29 289.69,-143.29 296.69,-143.29"/>
</g>
<!-- secure_session -->
<g id="node15" class="node">
<title>secure_session</title>
<polygon fill="#f44336" stroke="black" points="446.38,-36 349.38,-36 349.38,0 446.38,0 446.38,-36"/>
<text xml:space="preserve" text-anchor="middle" x="397.88" y="-21.05" font-family="Arial" font-size="11.00" fill="white">Secure Remote</text>
<text xml:space="preserve" text-anchor="middle" x="397.88" y="-7.55" font-family="Arial" font-size="11.00" fill="white">Desktop Session</text>
</g>
<!-- key_exchange&#45;&gt;secure_session -->
<g id="edge14" class="edge">
<title>key_exchange&#45;&gt;secure_session</title>
<path fill="none" stroke="#f44336" stroke-width="2" d="M42.88,-93.66C42.88,-64.79 42.88,-12 42.88,-12 42.88,-12 335.86,-12 335.86,-12"/>
<polygon fill="#f44336" stroke="#f44336" stroke-width="2" points="335.86,-15.5 345.86,-12 335.86,-8.5 335.86,-15.5"/>
</g>
<!-- aes_256&#45;&gt;secure_session -->
<g id="edge15" class="edge">
<title>aes_256&#45;&gt;secure_session</title>
<path fill="none" stroke="#f44336" stroke-width="2" d="M174.88,-93.77C174.88,-67.99 174.88,-24 174.88,-24 174.88,-24 335.91,-24 335.91,-24"/>
<polygon fill="#f44336" stroke="#f44336" stroke-width="2" points="335.91,-27.5 345.91,-24 335.91,-20.5 335.91,-27.5"/>
</g>
<!-- sign_verify&#45;&gt;secure_session -->
<g id="edge16" class="edge">
<title>sign_verify&#45;&gt;secure_session</title>
<path fill="none" stroke="#f44336" stroke-width="2" d="M365.62,-93.88C365.62,-93.88 365.62,-49.42 365.62,-49.42"/>
<polygon fill="#f44336" stroke="#f44336" stroke-width="2" points="369.13,-49.42 365.63,-39.42 362.13,-49.42 369.13,-49.42"/>
</g>
<!-- docker_server -->
<g id="node7" class="node">
<title>docker_server</title>
<path fill="#ff9800" stroke="black" d="M517.5,-130C517.5,-130 430.25,-130 430.25,-130 424.25,-130 418.25,-124 418.25,-118 418.25,-118 418.25,-106 418.25,-106 418.25,-100 424.25,-94 430.25,-94 430.25,-94 517.5,-94 517.5,-94 523.5,-94 529.5,-100 529.5,-106 529.5,-106 529.5,-118 529.5,-118 529.5,-124 523.5,-130 517.5,-130"/>
<text xml:space="preserve" text-anchor="middle" x="473.88" y="-115.05" font-family="Arial" font-size="11.00" fill="white">Docker Deployment</text>
<text xml:space="preserve" text-anchor="middle" x="473.88" y="-101.55" font-family="Arial" font-size="11.00" fill="white">Private Cloud/VPS</text>
</g>
<!-- self_hosted&#45;&gt;docker_server -->
<g id="edge7" class="edge">
<title>self_hosted&#45;&gt;docker_server</title>
<path fill="none" stroke="#ff9800" stroke-width="2" d="M560.44,-187.63C560.44,-160.16 560.44,-112 560.44,-112 560.44,-112 542.7,-112 542.7,-112"/>
<polygon fill="#ff9800" stroke="#ff9800" stroke-width="2" points="542.7,-108.5 532.7,-112 542.7,-115.5 542.7,-108.5"/>
</g>
<!-- custom_relay -->
<g id="node8" class="node">
<title>custom_relay</title>
<path fill="#ff9800" stroke="black" d="M672.62,-130C672.62,-130 577.12,-130 577.12,-130 571.12,-130 565.12,-124 565.12,-118 565.12,-118 565.12,-106 565.12,-106 565.12,-100 571.12,-94 577.12,-94 577.12,-94 672.62,-94 672.62,-94 678.62,-94 684.62,-100 684.62,-106 684.62,-106 684.62,-118 684.62,-118 684.62,-124 678.62,-130 672.62,-130"/>
<text xml:space="preserve" text-anchor="middle" x="624.88" y="-115.05" font-family="Arial" font-size="11.00" fill="white">Custom Relay Server</text>
<text xml:space="preserve" text-anchor="middle" x="624.88" y="-101.55" font-family="Arial" font-size="11.00" fill="white">Write Your Own</text>
</g>
<!-- self_hosted&#45;&gt;custom_relay -->
<g id="edge8" class="edge">
<title>self_hosted&#45;&gt;custom_relay</title>
<path fill="none" stroke="#ff9800" stroke-width="2" d="M624.88,-187.63C624.88,-187.63 624.88,-143.29 624.88,-143.29"/>
<polygon fill="#ff9800" stroke="#ff9800" stroke-width="2" points="628.38,-143.29 624.88,-133.29 621.38,-143.29 628.38,-143.29"/>
</g>
<!-- no_cloud -->
<g id="node9" class="node">
<title>no_cloud</title>
<path fill="#ff9800" stroke="black" d="M834.62,-130C834.62,-130 733.12,-130 733.12,-130 727.12,-130 721.12,-124 721.12,-118 721.12,-118 721.12,-106 721.12,-106 721.12,-100 727.12,-94 733.12,-94 733.12,-94 834.62,-94 834.62,-94 840.62,-94 846.62,-100 846.62,-106 846.62,-106 846.62,-118 846.62,-118 846.62,-124 840.62,-130 834.62,-130"/>
<text xml:space="preserve" text-anchor="middle" x="783.88" y="-115.05" font-family="Arial" font-size="11.00" fill="white">No Cloud Dependency</text>
<text xml:space="preserve" text-anchor="middle" x="783.88" y="-101.55" font-family="Arial" font-size="11.00" fill="white">Air&#45;Gapped Possible</text>
</g>
<!-- self_hosted&#45;&gt;no_cloud -->
<g id="edge9" class="edge">
<title>self_hosted&#45;&gt;no_cloud</title>
<path fill="none" stroke="#ff9800" stroke-width="2" d="M689.31,-187.63C689.31,-160.16 689.31,-112 689.31,-112 689.31,-112 707.77,-112 707.77,-112"/>
<polygon fill="#ff9800" stroke="#ff9800" stroke-width="2" points="707.77,-115.5 717.77,-112 707.77,-108.5 707.77,-115.5"/>
</g>
<!-- docker_server&#45;&gt;secure_session -->
<g id="edge17" class="edge">
<title>docker_server&#45;&gt;secure_session</title>
<path fill="none" stroke="#f44336" stroke-width="1.5" stroke-dasharray="5,2" d="M432.31,-93.88C432.31,-93.88 432.31,-48.66 432.31,-48.66"/>
<polygon fill="#f44336" stroke="#f44336" stroke-width="1.5" points="435.81,-48.66 432.31,-38.66 428.81,-48.66 435.81,-48.66"/>
</g>
<!-- password_auth -->
<g id="node11" class="node">
<title>password_auth</title>
<path fill="#ff9800" stroke="black" d="M984.62,-130C984.62,-130 895.12,-130 895.12,-130 889.12,-130 883.12,-124 883.12,-118 883.12,-118 883.12,-106 883.12,-106 883.12,-100 889.12,-94 895.12,-94 895.12,-94 984.62,-94 984.62,-94 990.62,-94 996.62,-100 996.62,-106 996.62,-106 996.62,-118 996.62,-118 996.62,-124 990.62,-130 984.62,-130"/>
<text xml:space="preserve" text-anchor="middle" x="939.88" y="-115.05" font-family="Arial" font-size="11.00" fill="white">Password Auth</text>
<text xml:space="preserve" text-anchor="middle" x="939.88" y="-101.55" font-family="Arial" font-size="11.00" fill="white">Permanent/Random</text>
</g>
<!-- access_control&#45;&gt;password_auth -->
<g id="edge10" class="edge">
<title>access_control&#45;&gt;password_auth</title>
<path fill="none" stroke="#9c27b0" stroke-width="2" d="M1023.56,-187.63C1023.56,-160.16 1023.56,-112 1023.56,-112 1023.56,-112 1010.11,-112 1010.11,-112"/>
<polygon fill="#9c27b0" stroke="#9c27b0" stroke-width="2" points="1010.11,-108.5 1000.11,-112 1010.11,-115.5 1010.11,-108.5"/>
</g>
<!-- confirm_access -->
<g id="node12" class="node">
<title>confirm_access</title>
<path fill="#ff9800" stroke="black" d="M1111.38,-130C1111.38,-130 1044.38,-130 1044.38,-130 1038.38,-130 1032.38,-124 1032.38,-118 1032.38,-118 1032.38,-106 1032.38,-106 1032.38,-100 1038.38,-94 1044.38,-94 1044.38,-94 1111.38,-94 1111.38,-94 1117.38,-94 1123.38,-100 1123.38,-106 1123.38,-106 1123.38,-118 1123.38,-118 1123.38,-124 1117.38,-130 1111.38,-130"/>
<text xml:space="preserve" text-anchor="middle" x="1077.88" y="-115.05" font-family="Arial" font-size="11.00" fill="white">Confirm Access</text>
<text xml:space="preserve" text-anchor="middle" x="1077.88" y="-101.55" font-family="Arial" font-size="11.00" fill="white">User Approval</text>
</g>
<!-- access_control&#45;&gt;confirm_access -->
<g id="edge11" class="edge">
<title>access_control&#45;&gt;confirm_access</title>
<path fill="none" stroke="#9c27b0" stroke-width="2" d="M1077.88,-187.63C1077.88,-187.63 1077.88,-143.29 1077.88,-143.29"/>
<polygon fill="#9c27b0" stroke="#9c27b0" stroke-width="2" points="1081.38,-143.29 1077.88,-133.29 1074.38,-143.29 1081.38,-143.29"/>
</g>
<!-- whitelist -->
<g id="node13" class="node">
<title>whitelist</title>
<path fill="#ff9800" stroke="black" d="M1244.75,-130C1244.75,-130 1171,-130 1171,-130 1165,-130 1159,-124 1159,-118 1159,-118 1159,-106 1159,-106 1159,-100 1165,-94 1171,-94 1171,-94 1244.75,-94 1244.75,-94 1250.75,-94 1256.75,-100 1256.75,-106 1256.75,-106 1256.75,-118 1256.75,-118 1256.75,-124 1250.75,-130 1244.75,-130"/>
<text xml:space="preserve" text-anchor="middle" x="1207.88" y="-115.05" font-family="Arial" font-size="11.00" fill="white">IP Whitelist</text>
<text xml:space="preserve" text-anchor="middle" x="1207.88" y="-101.55" font-family="Arial" font-size="11.00" fill="white">Connection Filter</text>
</g>
<!-- access_control&#45;&gt;whitelist -->
<g id="edge12" class="edge">
<title>access_control&#45;&gt;whitelist</title>
<path fill="none" stroke="#9c27b0" stroke-width="2" d="M1132.19,-187.63C1132.19,-160.16 1132.19,-112 1132.19,-112 1132.19,-112 1145.63,-112 1145.63,-112"/>
<polygon fill="#9c27b0" stroke="#9c27b0" stroke-width="2" points="1145.63,-115.5 1155.63,-112 1145.63,-108.5 1145.63,-115.5"/>
</g>
<!-- two_fa -->
<g id="node14" class="node">
<title>two_fa</title>
<path fill="#ff9800" stroke="black" d="M1396.75,-130C1396.75,-130 1305,-130 1305,-130 1299,-130 1293,-124 1293,-118 1293,-118 1293,-106 1293,-106 1293,-100 1299,-94 1305,-94 1305,-94 1396.75,-94 1396.75,-94 1402.75,-94 1408.75,-100 1408.75,-106 1408.75,-106 1408.75,-118 1408.75,-118 1408.75,-124 1402.75,-130 1396.75,-130"/>
<text xml:space="preserve" text-anchor="middle" x="1350.88" y="-115.05" font-family="Arial" font-size="11.00" fill="white">2FA Support</text>
<text xml:space="preserve" text-anchor="middle" x="1350.88" y="-101.55" font-family="Arial" font-size="11.00" fill="white">TOTP Authentication</text>
</g>
<!-- access_control&#45;&gt;two_fa -->
<g id="edge13" class="edge">
<title>access_control&#45;&gt;two_fa</title>
<path fill="none" stroke="#9c27b0" stroke-width="2" d="M1141.19,-206C1221.84,-206 1350.88,-206 1350.88,-206 1350.88,-206 1350.88,-143.15 1350.88,-143.15"/>
<polygon fill="#9c27b0" stroke="#9c27b0" stroke-width="2" points="1354.38,-143.15 1350.88,-133.15 1347.38,-143.15 1354.38,-143.15"/>
</g>
<!-- password_auth&#45;&gt;secure_session -->
<g id="edge18" class="edge">
<title>password_auth&#45;&gt;secure_session</title>
<path fill="none" stroke="#f44336" stroke-width="1.5" stroke-dasharray="5,2" d="M939.88,-93.77C939.88,-67.99 939.88,-24 939.88,-24 939.88,-24 458.72,-24 458.72,-24"/>
<polygon fill="#f44336" stroke="#f44336" stroke-width="1.5" points="458.72,-20.5 448.72,-24 458.72,-27.5 458.72,-20.5"/>
</g>
<!-- confirm_access&#45;&gt;secure_session -->
<g id="edge19" class="edge">
<title>confirm_access&#45;&gt;secure_session</title>
<path fill="none" stroke="#f44336" stroke-width="1.5" stroke-dasharray="5,2" d="M1077.88,-93.66C1077.88,-64.79 1077.88,-12 1077.88,-12 1077.88,-12 459.05,-12 459.05,-12"/>
<polygon fill="#f44336" stroke="#f44336" stroke-width="1.5" points="459.05,-8.5 449.05,-12 459.05,-15.5 459.05,-8.5"/>
</g>
</g>
</svg>
