<?xml version="1.0" encoding="UTF-8" standalone="no"?>
<!DOCTYPE svg PUBLIC "-//W3C//DTD SVG 1.1//EN"
 "http://www.w3.org/Graphics/SVG/1.1/DTD/svg11.dtd">
<!-- Generated by graphviz version 14.1.2 (0)
 -->
<!-- Title: rustdesk_connection Pages: 1 -->
<svg width="711pt" height="754pt"
 viewBox="0.00 0.00 711.00 754.00" xmlns="http://www.w3.org/2000/svg" xmlns:xlink="http://www.w3.org/1999/xlink">
<g id="graph0" class="graph" transform="scale(1 1) rotate(0) translate(4 750)">
<title>rustdesk_connection</title>
<polygon fill="white" stroke="none" points="-4,4 -4,-750 707.25,-750 707.25,4 -4,4"/>
<!-- client_start -->
<g id="node1" class="node">
<title>client_start</title>
<polygon fill="#4caf50" stroke="black" points="416.5,-746 318.75,-746 318.75,-710 416.5,-710 416.5,-746"/>
<text xml:space="preserve" text-anchor="middle" x="367.62" y="-731.05" font-family="Arial" font-size="11.00" fill="white">Client Starts</text>
<text xml:space="preserve" text-anchor="middle" x="367.62" y="-717.55" font-family="Arial" font-size="11.00" fill="white">Enter Remote ID</text>
</g>
<!-- rendezvous_lookup -->
<g id="node2" class="node">
<title>rendezvous_lookup</title>
<path fill="#2196f3" stroke="black" d="M435.62,-651C435.62,-651 299.62,-651 299.62,-651 293.62,-651 287.62,-645 287.62,-639 287.62,-639 287.62,-626.5 287.62,-626.5 287.62,-620.5 293.62,-614.5 299.62,-614.5 299.62,-614.5 435.62,-614.5 435.62,-614.5 441.62,-614.5 447.62,-620.5 447.62,-626.5 447.62,-626.5 447.62,-639 447.62,-639 447.62,-645 441.62,-651 435.62,-651"/>
<text xml:space="preserve" text-anchor="middle" x="367.62" y="-635.6" font-family="Arial Bold" font-size="12.00" fill="white">Rendezvous Server</text>
<text xml:space="preserve" text-anchor="middle" x="367.62" y="-621.35" font-family="Arial Bold" font-size="12.00" fill="white">ID Lookup &amp; Registration</text>
</g>
<!-- client_start&#45;&gt;rendezvous_lookup -->
<g id="edge1" class="edge">
<title>client_start&#45;&gt;rendezvous_lookup</title>
<path fill="none" stroke="#4caf50" stroke-width="2" d="M367.62,-709.63C367.62,-709.63 367.62,-664.41 367.62,-664.41"/>
<polygon fill="#4caf50" stroke="#4caf50" stroke-width="2" points="371.13,-664.41 367.63,-654.41 364.13,-664.41 371.13,-664.41"/>
</g>
<!-- connection_type -->
<g id="node3" class="node">
<title>connection_type</title>
<polygon fill="#f44336" stroke="black" points="367.62,-555.5 297.62,-523.5 367.62,-491.5 437.62,-523.5 367.62,-555.5"/>
<text xml:space="preserve" text-anchor="middle" x="367.62" y="-526" font-family="Arial Bold" font-size="10.00" fill="white">Connection</text>
<text xml:space="preserve" text-anchor="middle" x="367.62" y="-514" font-family="Arial Bold" font-size="10.00" fill="white">Type?</text>
</g>
<!-- rendezvous_lookup&#45;&gt;connection_type -->
<g id="edge2" class="edge">
<title>rendezvous_lookup&#45;&gt;connection_type</title>
<path fill="none" stroke="#2196f3" stroke-width="2" d="M367.62,-614.22C367.62,-614.22 367.62,-568.88 367.62,-568.88"/>
<polygon fill="#2196f3" stroke="#2196f3" stroke-width="2" points="371.13,-568.88 367.63,-558.88 364.13,-568.88 371.13,-568.88"/>
</g>
<!-- hole_punch -->
<g id="node4" class="node">
<title>hole_punch</title>
<path fill="#2196f3" stroke="black" d="M340.5,-417C340.5,-417 236.75,-417 236.75,-417 230.75,-417 224.75,-411 224.75,-405 224.75,-405 224.75,-392.5 224.75,-392.5 224.75,-386.5 230.75,-380.5 236.75,-380.5 236.75,-380.5 340.5,-380.5 340.5,-380.5 346.5,-380.5 352.5,-386.5 352.5,-392.5 352.5,-392.5 352.5,-405 352.5,-405 352.5,-411 346.5,-417 340.5,-417"/>
<text xml:space="preserve" text-anchor="middle" x="288.62" y="-401.6" font-family="Arial Bold" font-size="12.00" fill="white">TCP Hole Punching</text>
<text xml:space="preserve" text-anchor="middle" x="288.62" y="-387.35" font-family="Arial Bold" font-size="12.00" fill="white">NAT Traversal</text>
</g>
<!-- connection_type&#45;&gt;hole_punch -->
<g id="edge3" class="edge">
<title>connection_type&#45;&gt;hole_punch</title>
<path fill="none" stroke="#4caf50" stroke-width="2" d="M325.06,-510.62C325.06,-510.62 325.06,-430.43 325.06,-430.43"/>
<polygon fill="#4caf50" stroke="#4caf50" stroke-width="2" points="328.56,-430.43 325.06,-420.43 321.56,-430.43 328.56,-430.43"/>
<text xml:space="preserve" text-anchor="middle" x="347.5" y="-449.2" font-family="Times New Roman,serif" font-size="14.00">Direct</text>
</g>
<!-- relay_server -->
<g id="node6" class="node">
<title>relay_server</title>
<path fill="#2196f3" stroke="black" d="M496.38,-417C496.38,-417 400.88,-417 400.88,-417 394.88,-417 388.88,-411 388.88,-405 388.88,-405 388.88,-392.5 388.88,-392.5 388.88,-386.5 394.88,-380.5 400.88,-380.5 400.88,-380.5 496.38,-380.5 496.38,-380.5 502.38,-380.5 508.38,-386.5 508.38,-392.5 508.38,-392.5 508.38,-405 508.38,-405 508.38,-411 502.38,-417 496.38,-417"/>
<text xml:space="preserve" text-anchor="middle" x="448.62" y="-401.6" font-family="Arial Bold" font-size="12.00" fill="white">Relay Server</text>
<text xml:space="preserve" text-anchor="middle" x="448.62" y="-387.35" font-family="Arial Bold" font-size="12.00" fill="white">Traffic Forwarding</text>
</g>
<!-- connection_type&#45;&gt;relay_server -->
<g id="edge5" class="edge">
<title>connection_type&#45;&gt;relay_server</title>
<path fill="none" stroke="#ff9800" stroke-width="2" d="M413.25,-511.99C413.25,-511.99 413.25,-430.49 413.25,-430.49"/>
<polygon fill="#ff9800" stroke="#ff9800" stroke-width="2" points="416.75,-430.49 413.25,-420.49 409.75,-430.49 416.75,-430.49"/>
<text xml:space="preserve" text-anchor="middle" x="442.38" y="-449.2" font-family="Times New Roman,serif" font-size="14.00">Relay</text>
</g>
<!-- direct_connect -->
<g id="node5" class="node">
<title>direct_connect</title>
<path fill="#ff9800" stroke="black" d="M342.75,-321.5C342.75,-321.5 240.5,-321.5 240.5,-321.5 234.5,-321.5 228.5,-315.5 228.5,-309.5 228.5,-309.5 228.5,-297.5 228.5,-297.5 228.5,-291.5 234.5,-285.5 240.5,-285.5 240.5,-285.5 342.75,-285.5 342.75,-285.5 348.75,-285.5 354.75,-291.5 354.75,-297.5 354.75,-297.5 354.75,-309.5 354.75,-309.5 354.75,-315.5 348.75,-321.5 342.75,-321.5"/>
<text xml:space="preserve" text-anchor="middle" x="291.62" y="-306.55" font-family="Arial" font-size="11.00" fill="white">Direct P2P Connection</text>
<text xml:space="preserve" text-anchor="middle" x="291.62" y="-293.05" font-family="Arial" font-size="11.00" fill="white">Low Latency</text>
</g>
<!-- hole_punch&#45;&gt;direct_connect -->
<g id="edge4" class="edge">
<title>hole_punch&#45;&gt;direct_connect</title>
<path fill="none" stroke="#4caf50" stroke-width="2" d="M290.5,-380.38C290.5,-380.38 290.5,-334.84 290.5,-334.84"/>
<polygon fill="#4caf50" stroke="#4caf50" stroke-width="2" points="294,-334.84 290.5,-324.84 287,-334.84 294,-334.84"/>
</g>
<!-- encrypted_channel -->
<g id="node8" class="node">
<title>encrypted_channel</title>
<path fill="#9c27b0" stroke="black" d="M410.75,-226.5C410.75,-226.5 326.5,-226.5 326.5,-226.5 320.5,-226.5 314.5,-220.5 314.5,-214.5 314.5,-214.5 314.5,-202.5 314.5,-202.5 314.5,-196.5 320.5,-190.5 326.5,-190.5 326.5,-190.5 410.75,-190.5 410.75,-190.5 416.75,-190.5 422.75,-196.5 422.75,-202.5 422.75,-202.5 422.75,-214.5 422.75,-214.5 422.75,-220.5 416.75,-226.5 410.75,-226.5"/>
<text xml:space="preserve" text-anchor="middle" x="368.62" y="-211.55" font-family="Arial" font-size="11.00" fill="white">Encrypted Channel</text>
<text xml:space="preserve" text-anchor="middle" x="368.62" y="-198.05" font-family="Arial" font-size="11.00" fill="white">NaCl/AES&#45;256</text>
</g>
<!-- direct_connect&#45;&gt;encrypted_channel -->
<g id="edge7" class="edge">
<title>direct_connect&#45;&gt;encrypted_channel</title>
<path fill="none" stroke="#9c27b0" stroke-width="2" d="M334.62,-285.18C334.62,-285.18 334.62,-239.79 334.62,-239.79"/>
<polygon fill="#9c27b0" stroke="#9c27b0" stroke-width="2" points="338.13,-239.79 334.63,-229.79 331.13,-239.79 338.13,-239.79"/>
</g>
<!-- relay_connect -->
<g id="node7" class="node">
<title>relay_connect</title>
<path fill="#ff9800" stroke="black" d="M492.38,-321.5C492.38,-321.5 402.88,-321.5 402.88,-321.5 396.88,-321.5 390.88,-315.5 390.88,-309.5 390.88,-309.5 390.88,-297.5 390.88,-297.5 390.88,-291.5 396.88,-285.5 402.88,-285.5 402.88,-285.5 492.38,-285.5 492.38,-285.5 498.38,-285.5 504.38,-291.5 504.38,-297.5 504.38,-297.5 504.38,-309.5 504.38,-309.5 504.38,-315.5 498.38,-321.5 492.38,-321.5"/>
<text xml:space="preserve" text-anchor="middle" x="447.62" y="-306.55" font-family="Arial" font-size="11.00" fill="white">Relayed Connection</text>
<text xml:space="preserve" text-anchor="middle" x="447.62" y="-293.05" font-family="Arial" font-size="11.00" fill="white">Through Server</text>
</g>
<!-- relay_server&#45;&gt;relay_connect -->
<g id="edge6" class="edge">
<title>relay_server&#45;&gt;relay_connect</title>
<path fill="none" stroke="#ff9800" stroke-width="2" d="M447.62,-380.38C447.62,-380.38 447.62,-334.84 447.62,-334.84"/>
<polygon fill="#ff9800" stroke="#ff9800" stroke-width="2" points="451.13,-334.84 447.63,-324.84 444.13,-334.84 451.13,-334.84"/>
</g>
<!-- relay_connect&#45;&gt;encrypted_channel -->
<g id="edge8" class="edge">
<title>relay_connect&#45;&gt;encrypted_channel</title>
<path fill="none" stroke="#9c27b0" stroke-width="2" d="M406.81,-285.18C406.81,-285.18 406.81,-239.79 406.81,-239.79"/>
<polygon fill="#9c27b0" stroke="#9c27b0" stroke-width="2" points="410.31,-239.79 406.81,-229.79 403.31,-239.79 410.31,-239.79"/>
</g>
<!-- video_service -->
<g id="node9" class="node">
<title>video_service</title>
<path fill="#2196f3" stroke="black" d="M93.25,-131.5C93.25,-131.5 12,-131.5 12,-131.5 6,-131.5 0,-125.5 0,-119.5 0,-119.5 0,-107 0,-107 0,-101 6,-95 12,-95 12,-95 93.25,-95 93.25,-95 99.25,-95 105.25,-101 105.25,-107 105.25,-107 105.25,-119.5 105.25,-119.5 105.25,-125.5 99.25,-131.5 93.25,-131.5"/>
<text xml:space="preserve" text-anchor="middle" x="52.62" y="-116.1" font-family="Arial Bold" font-size="12.00" fill="white">Video Service</text>
<text xml:space="preserve" text-anchor="middle" x="52.62" y="-101.85" font-family="Arial Bold" font-size="12.00" fill="white">Screen Capture</text>
</g>
<!-- encrypted_channel&#45;&gt;video_service -->
<g id="edge9" class="edge">
<title>encrypted_channel&#45;&gt;video_service</title>
<path fill="none" stroke="#2196f3" stroke-width="2" d="M314.3,-215C223.95,-215 52.62,-215 52.62,-215 52.62,-215 52.62,-144.94 52.62,-144.94"/>
<polygon fill="#2196f3" stroke="#2196f3" stroke-width="2" points="56.13,-144.94 52.63,-134.94 49.13,-144.94 56.13,-144.94"/>
</g>
<!-- audio_service -->
<g id="node10" class="node">
<title>audio_service</title>
<path fill="#2196f3" stroke="black" d="M263.88,-131.5C263.88,-131.5 153.38,-131.5 153.38,-131.5 147.38,-131.5 141.38,-125.5 141.38,-119.5 141.38,-119.5 141.38,-107 141.38,-107 141.38,-101 147.38,-95 153.38,-95 153.38,-95 263.88,-95 263.88,-95 269.88,-95 275.88,-101 275.88,-107 275.88,-107 275.88,-119.5 275.88,-119.5 275.88,-125.5 269.88,-131.5 263.88,-131.5"/>
<text xml:space="preserve" text-anchor="middle" x="208.62" y="-116.1" font-family="Arial Bold" font-size="12.00" fill="white">Audio Service</text>
<text xml:space="preserve" text-anchor="middle" x="208.62" y="-101.85" font-family="Arial Bold" font-size="12.00" fill="white">Microphone/Speaker</text>
</g>
<!-- encrypted_channel&#45;&gt;audio_service -->
<g id="edge10" class="edge">
<title>encrypted_channel&#45;&gt;audio_service</title>
<path fill="none" stroke="#2196f3" stroke-width="2" d="M314.16,-203C283.85,-203 252.19,-203 252.19,-203 252.19,-203 252.19,-144.87 252.19,-144.87"/>
<polygon fill="#2196f3" stroke="#2196f3" stroke-width="2" points="255.69,-144.87 252.19,-134.87 248.69,-144.87 255.69,-144.87"/>
</g>
<!-- input_service -->
<g id="node11" class="node">
<title>input_service</title>
<path fill="#2196f3" stroke="black" d="M413.38,-131.5C413.38,-131.5 323.88,-131.5 323.88,-131.5 317.88,-131.5 311.88,-125.5 311.88,-119.5 311.88,-119.5 311.88,-107 311.88,-107 311.88,-101 317.88,-95 323.88,-95 323.88,-95 413.38,-95 413.38,-95 419.38,-95 425.38,-101 425.38,-107 425.38,-107 425.38,-119.5 425.38,-119.5 425.38,-125.5 419.38,-131.5 413.38,-131.5"/>
<text xml:space="preserve" text-anchor="middle" x="368.62" y="-116.1" font-family="Arial Bold" font-size="12.00" fill="white">Input Service</text>
<text xml:space="preserve" text-anchor="middle" x="368.62" y="-101.85" font-family="Arial Bold" font-size="12.00" fill="white">Keyboard/Mouse</text>
</g>
<!-- encrypted_channel&#45;&gt;input_service -->
<g id="edge11" class="edge">
<title>encrypted_channel&#45;&gt;input_service</title>
<path fill="none" stroke="#2196f3" stroke-width="2" d="M368.62,-190.13C368.62,-190.13 368.62,-144.91 368.62,-144.91"/>
<polygon fill="#2196f3" stroke="#2196f3" stroke-width="2" points="372.13,-144.91 368.63,-134.91 365.13,-144.91 372.13,-144.91"/>
</g>
<!-- clipboard_service -->
<g id="node12" class="node">
<title>clipboard_service</title>
<path fill="#2196f3" stroke="black" d="M567.62,-131.5C567.62,-131.5 473.62,-131.5 473.62,-131.5 467.62,-131.5 461.62,-125.5 461.62,-119.5 461.62,-119.5 461.62,-107 461.62,-107 461.62,-101 467.62,-95 473.62,-95 473.62,-95 567.62,-95 567.62,-95 573.62,-95 579.62,-101 579.62,-107 579.62,-107 579.62,-119.5 579.62,-119.5 579.62,-125.5 573.62,-131.5 567.62,-131.5"/>
<text xml:space="preserve" text-anchor="middle" x="520.62" y="-116.1" font-family="Arial Bold" font-size="12.00" fill="white">Clipboard Service</text>
<text xml:space="preserve" text-anchor="middle" x="520.62" y="-101.85" font-family="Arial Bold" font-size="12.00" fill="white">Copy/Paste</text>
</g>
<!-- encrypted_channel&#45;&gt;clipboard_service -->
<g id="edge12" class="edge">
<title>encrypted_channel&#45;&gt;clipboard_service</title>
<path fill="none" stroke="#2196f3" stroke-width="1.5" d="M423.13,-203C452.59,-203 483,-203 483,-203 483,-203 483,-144.12 483,-144.12"/>
<polygon fill="#2196f3" stroke="#2196f3" stroke-width="1.5" points="486.5,-144.12 483,-134.12 479.5,-144.12 486.5,-144.12"/>
</g>
<!-- file_service -->
<g id="node13" class="node">
<title>file_service</title>
<path fill="#2196f3" stroke="black" d="M691.25,-131.5C691.25,-131.5 628,-131.5 628,-131.5 622,-131.5 616,-125.5 616,-119.5 616,-119.5 616,-107 616,-107 616,-101 622,-95 628,-95 628,-95 691.25,-95 691.25,-95 697.25,-95 703.25,-101 703.25,-107 703.25,-107 703.25,-119.5 703.25,-119.5 703.25,-125.5 697.25,-131.5 691.25,-131.5"/>
<text xml:space="preserve" text-anchor="middle" x="659.62" y="-116.1" font-family="Arial Bold" font-size="12.00" fill="white">File Transfer</text>
<text xml:space="preserve" text-anchor="middle" x="659.62" y="-101.85" font-family="Arial Bold" font-size="12.00" fill="white">Drag &amp; Drop</text>
</g>
<!-- encrypted_channel&#45;&gt;file_service -->
<g id="edge13" class="edge">
<title>encrypted_channel&#45;&gt;file_service</title>
<path fill="none" stroke="#2196f3" stroke-width="1.5" d="M423.02,-215C507.24,-215 659.62,-215 659.62,-215 659.62,-215 659.62,-144.18 659.62,-144.18"/>
<polygon fill="#2196f3" stroke="#2196f3" stroke-width="1.5" points="663.13,-144.18 659.63,-134.18 656.13,-144.18 663.13,-144.18"/>
</g>
<!-- active_session -->
<g id="node14" class="node">
<title>active_session</title>
<polygon fill="#f44336" stroke="black" points="417.12,-36 320.12,-36 320.12,0 417.12,0 417.12,-36"/>
<text xml:space="preserve" text-anchor="middle" x="368.62" y="-21.05" font-family="Arial" font-size="11.00" fill="white">Active Remote</text>
<text xml:space="preserve" text-anchor="middle" x="368.62" y="-7.55" font-family="Arial" font-size="11.00" fill="white">Desktop Session</text>
</g>
<!-- video_service&#45;&gt;active_session -->
<g id="edge14" class="edge">
<title>video_service&#45;&gt;active_session</title>
<path fill="none" stroke="#f44336" stroke-width="2" d="M52.62,-94.68C52.62,-65.45 52.62,-12 52.62,-12 52.62,-12 306.92,-12 306.92,-12"/>
<polygon fill="#f44336" stroke="#f44336" stroke-width="2" points="306.92,-15.5 316.92,-12 306.92,-8.5 306.92,-15.5"/>
</g>
<!-- audio_service&#45;&gt;active_session -->
<g id="edge15" class="edge">
<title>audio_service&#45;&gt;active_session</title>
<path fill="none" stroke="#f44336" stroke-width="2" d="M208.62,-94.76C208.62,-68.62 208.62,-24 208.62,-24 208.62,-24 306.72,-24 306.72,-24"/>
<polygon fill="#f44336" stroke="#f44336" stroke-width="2" points="306.72,-27.5 316.72,-24 306.72,-20.5 306.72,-27.5"/>
</g>
<!-- input_service&#45;&gt;active_session -->
<g id="edge16" class="edge">
<title>input_service&#45;&gt;active_session</title>
<path fill="none" stroke="#f44336" stroke-width="2" d="M368.62,-94.88C368.62,-94.88 368.62,-49.34 368.62,-49.34"/>
<polygon fill="#f44336" stroke="#f44336" stroke-width="2" points="372.13,-49.34 368.63,-39.34 365.13,-49.34 372.13,-49.34"/>
</g>
<!-- clipboard_service&#45;&gt;active_session -->
<g id="edge17" class="edge">
<title>clipboard_service&#45;&gt;active_session</title>
<path fill="none" stroke="#f44336" stroke-width="1.5" d="M520.62,-94.76C520.62,-68.62 520.62,-24 520.62,-24 520.62,-24 429.83,-24 429.83,-24"/>
<polygon fill="#f44336" stroke="#f44336" stroke-width="1.5" points="429.83,-20.5 419.83,-24 429.83,-27.5 429.83,-20.5"/>
</g>
<!-- file_service&#45;&gt;active_session -->
<g id="edge18" class="edge">
<title>file_service&#45;&gt;active_session</title>
<path fill="none" stroke="#f44336" stroke-width="1.5" d="M659.62,-94.68C659.62,-65.45 659.62,-12 659.62,-12 659.62,-12 429.6,-12 429.6,-12"/>
<polygon fill="#f44336" stroke="#f44336" stroke-width="1.5" points="429.6,-8.5 419.6,-12 429.6,-15.5 429.6,-8.5"/>
</g>
</g>
</svg>
