<?xml version="1.0" encoding="UTF-8" standalone="no"?>
<!DOCTYPE svg PUBLIC "-//W3C//DTD SVG 1.1//EN"
 "http://www.w3.org/Graphics/SVG/1.1/DTD/svg11.dtd">
<!-- Generated by graphviz version 14.1.2 (0)
 -->
<!-- Title: rustdesk_architecture Pages: 1 -->
<svg width="720pt" height="429pt"
 viewBox="0.00 0.00 720.00 429.00" xmlns="http://www.w3.org/2000/svg" xmlns:xlink="http://www.w3.org/1999/xlink">
<g id="graph0" class="graph" transform="scale(1 1) rotate(0) translate(4 425)">
<title>rustdesk_architecture</title>
<polygon fill="white" stroke="none" points="-4,4 -4,-425 716,-425 716,4 -4,4"/>
<!-- user -->
<g id="node1" class="node">
<title>user</title>
<polygon fill="#4caf50" stroke="black" points="345,-421 217.25,-421 217.25,-385 345,-385 345,-421"/>
<text xml:space="preserve" text-anchor="middle" x="281.12" y="-406.05" font-family="Arial" font-size="11.00" fill="white">User</text>
<text xml:space="preserve" text-anchor="middle" x="281.12" y="-392.55" font-family="Arial" font-size="11.00" fill="white">Remote Desktop Client</text>
</g>
<!-- flutter_desktop -->
<g id="node3" class="node">
<title>flutter_desktop</title>
<path fill="#2196f3" stroke="black" d="M179.12,-327C179.12,-327 55.12,-327 55.12,-327 49.12,-327 43.12,-321 43.12,-315 43.12,-315 43.12,-302.5 43.12,-302.5 43.12,-296.5 49.12,-290.5 55.12,-290.5 55.12,-290.5 179.12,-290.5 179.12,-290.5 185.12,-290.5 191.12,-296.5 191.12,-302.5 191.12,-302.5 191.12,-315 191.12,-315 191.12,-321 185.12,-327 179.12,-327"/>
<text xml:space="preserve" text-anchor="middle" x="117.12" y="-311.6" font-family="Arial Bold" font-size="12.00" fill="white">Flutter Desktop UI</text>
<text xml:space="preserve" text-anchor="middle" x="117.12" y="-297.35" font-family="Arial Bold" font-size="12.00" fill="white">Windows/macOS/Linux</text>
</g>
<!-- user&#45;&gt;flutter_desktop -->
<g id="edge1" class="edge">
<title>user&#45;&gt;flutter_desktop</title>
<path fill="none" stroke="#4caf50" stroke-width="2" d="M216.78,-403C170.83,-403 117.12,-403 117.12,-403 117.12,-403 117.12,-340.4 117.12,-340.4"/>
<polygon fill="#4caf50" stroke="#4caf50" stroke-width="2" points="120.63,-340.4 117.13,-330.4 113.63,-340.4 120.63,-340.4"/>
</g>
<!-- flutter_mobile -->
<g id="node4" class="node">
<title>flutter_mobile</title>
<path fill="#2196f3" stroke="black" d="M323.25,-327C323.25,-327 239,-327 239,-327 233,-327 227,-321 227,-315 227,-315 227,-302.5 227,-302.5 227,-296.5 233,-290.5 239,-290.5 239,-290.5 323.25,-290.5 323.25,-290.5 329.25,-290.5 335.25,-296.5 335.25,-302.5 335.25,-302.5 335.25,-315 335.25,-315 335.25,-321 329.25,-327 323.25,-327"/>
<text xml:space="preserve" text-anchor="middle" x="281.12" y="-311.6" font-family="Arial Bold" font-size="12.00" fill="white">Flutter Mobile UI</text>
<text xml:space="preserve" text-anchor="middle" x="281.12" y="-297.35" font-family="Arial Bold" font-size="12.00" fill="white">Android/iOS</text>
</g>
<!-- user&#45;&gt;flutter_mobile -->
<g id="edge2" class="edge">
<title>user&#45;&gt;flutter_mobile</title>
<path fill="none" stroke="#4caf50" stroke-width="2" d="M281.12,-384.83C281.12,-384.83 281.12,-340.22 281.12,-340.22"/>
<polygon fill="#4caf50" stroke="#4caf50" stroke-width="2" points="284.63,-340.22 281.13,-330.22 277.63,-340.22 284.63,-340.22"/>
</g>
<!-- flutter_web -->
<g id="node5" class="node">
<title>flutter_web</title>
<path fill="#2196f3" stroke="black" d="M476.75,-327C476.75,-327 383.5,-327 383.5,-327 377.5,-327 371.5,-321 371.5,-315 371.5,-315 371.5,-302.5 371.5,-302.5 371.5,-296.5 377.5,-290.5 383.5,-290.5 383.5,-290.5 476.75,-290.5 476.75,-290.5 482.75,-290.5 488.75,-296.5 488.75,-302.5 488.75,-302.5 488.75,-315 488.75,-315 488.75,-321 482.75,-327 476.75,-327"/>
<text xml:space="preserve" text-anchor="middle" x="430.12" y="-311.6" font-family="Arial Bold" font-size="12.00" fill="white">Flutter Web Client</text>
<text xml:space="preserve" text-anchor="middle" x="430.12" y="-297.35" font-family="Arial Bold" font-size="12.00" fill="white">Browser Access</text>
</g>
<!-- user&#45;&gt;flutter_web -->
<g id="edge3" class="edge">
<title>user&#45;&gt;flutter_web</title>
<path fill="none" stroke="#4caf50" stroke-width="2" d="M345.18,-403C385.56,-403 430.12,-403 430.12,-403 430.12,-403 430.12,-340.4 430.12,-340.4"/>
<polygon fill="#4caf50" stroke="#4caf50" stroke-width="2" points="433.63,-340.4 430.13,-330.4 426.63,-340.4 433.63,-340.4"/>
</g>
<!-- admin -->
<g id="node2" class="node">
<title>admin</title>
<polygon fill="#4caf50" stroke="black" points="560.25,-138 452,-138 452,-102 560.25,-102 560.25,-138"/>
<text xml:space="preserve" text-anchor="middle" x="506.12" y="-123.05" font-family="Arial" font-size="11.00" fill="white">Admin</text>
<text xml:space="preserve" text-anchor="middle" x="506.12" y="-109.55" font-family="Arial" font-size="11.00" fill="white">Self&#45;Hosted Server</text>
</g>
<!-- rendezvous_server -->
<g id="node15" class="node">
<title>rendezvous_server</title>
<path fill="#9c27b0" stroke="black" d="M549.75,-40C549.75,-42.21 527.51,-44 500.12,-44 472.74,-44 450.5,-42.21 450.5,-40 450.5,-40 450.5,-4 450.5,-4 450.5,-1.79 472.74,0 500.12,0 527.51,0 549.75,-1.79 549.75,-4 549.75,-4 549.75,-40 549.75,-40"/>
<path fill="none" stroke="black" d="M549.75,-40C549.75,-37.79 527.51,-36 500.12,-36 472.74,-36 450.5,-37.79 450.5,-40"/>
<text xml:space="preserve" text-anchor="middle" x="500.12" y="-24.5" font-family="Arial" font-size="10.00" fill="white">RustDesk Server</text>
<text xml:space="preserve" text-anchor="middle" x="500.12" y="-12.5" font-family="Arial" font-size="10.00" fill="white">Rendezvous/Relay</text>
</g>
<!-- admin&#45;&gt;rendezvous_server -->
<g id="edge16" class="edge">
<title>admin&#45;&gt;rendezvous_server</title>
<path fill="none" stroke="#4caf50" stroke-width="2" d="M500.88,-101.57C500.88,-101.57 500.88,-57.51 500.88,-57.51"/>
<polygon fill="#4caf50" stroke="#4caf50" stroke-width="2" points="504.38,-57.51 500.88,-47.51 497.38,-57.51 504.38,-57.51"/>
</g>
<!-- rust_core -->
<g id="node6" class="node">
<title>rust_core</title>
<path fill="#2196f3" stroke="black" d="M327.75,-232.5C327.75,-232.5 234.5,-232.5 234.5,-232.5 228.5,-232.5 222.5,-226.5 222.5,-220.5 222.5,-220.5 222.5,-208 222.5,-208 222.5,-202 228.5,-196 234.5,-196 234.5,-196 327.75,-196 327.75,-196 333.75,-196 339.75,-202 339.75,-208 339.75,-208 339.75,-220.5 339.75,-220.5 339.75,-226.5 333.75,-232.5 327.75,-232.5"/>
<text xml:space="preserve" text-anchor="middle" x="281.12" y="-217.1" font-family="Arial Bold" font-size="12.00" fill="white">Rust Core Engine</text>
<text xml:space="preserve" text-anchor="middle" x="281.12" y="-202.85" font-family="Arial Bold" font-size="12.00" fill="white">librustdesk</text>
</g>
<!-- flutter_desktop&#45;&gt;rust_core -->
<g id="edge4" class="edge">
<title>flutter_desktop&#45;&gt;rust_core</title>
<path fill="none" stroke="#2196f3" stroke-width="2" d="M174.25,-290.36C174.25,-264.37 174.25,-220 174.25,-220 174.25,-220 209.03,-220 209.03,-220"/>
<polygon fill="#2196f3" stroke="#2196f3" stroke-width="2" points="209.03,-223.5 219.03,-220 209.03,-216.5 209.03,-223.5"/>
</g>
<!-- flutter_mobile&#45;&gt;rust_core -->
<g id="edge5" class="edge">
<title>flutter_mobile&#45;&gt;rust_core</title>
<path fill="none" stroke="#2196f3" stroke-width="2" d="M281.12,-290.08C281.12,-290.08 281.12,-245.91 281.12,-245.91"/>
<polygon fill="#2196f3" stroke="#2196f3" stroke-width="2" points="284.63,-245.91 281.13,-235.91 277.63,-245.91 284.63,-245.91"/>
</g>
<!-- flutter_web&#45;&gt;rust_core -->
<g id="edge6" class="edge">
<title>flutter_web&#45;&gt;rust_core</title>
<path fill="none" stroke="#2196f3" stroke-width="2" d="M393.56,-290.36C393.56,-264.37 393.56,-220 393.56,-220 393.56,-220 353.01,-220 353.01,-220"/>
<polygon fill="#2196f3" stroke="#2196f3" stroke-width="2" points="353.01,-216.5 343.01,-220 353.01,-223.5 353.01,-216.5"/>
</g>
<!-- client_mod -->
<g id="node7" class="node">
<title>client_mod</title>
<path fill="#ff9800" stroke="black" d="M108.12,-138C108.12,-138 20.12,-138 20.12,-138 14.12,-138 8.13,-132 8.13,-126 8.13,-126 8.13,-114 8.13,-114 8.13,-108 14.13,-102 20.13,-102 20.13,-102 108.12,-102 108.12,-102 114.12,-102 120.12,-108 120.12,-114 120.12,-114 120.12,-126 120.12,-126 120.12,-132 114.12,-138 108.12,-138"/>
<text xml:space="preserve" text-anchor="middle" x="64.12" y="-123.05" font-family="Arial" font-size="11.00" fill="white">Client Module</text>
<text xml:space="preserve" text-anchor="middle" x="64.12" y="-109.55" font-family="Arial" font-size="11.00" fill="white">Connection Handler</text>
</g>
<!-- rust_core&#45;&gt;client_mod -->
<g id="edge7" class="edge">
<title>rust_core&#45;&gt;client_mod</title>
<path fill="none" stroke="#2196f3" stroke-width="2" d="M222.08,-208C163.25,-208 81.62,-208 81.62,-208 81.62,-208 81.62,-151.26 81.62,-151.26"/>
<polygon fill="#2196f3" stroke="#2196f3" stroke-width="2" points="85.13,-151.26 81.63,-141.26 78.13,-151.26 85.13,-151.26"/>
</g>
<!-- server_mod -->
<g id="node8" class="node">
<title>server_mod</title>
<path fill="#ff9800" stroke="black" d="M246.88,-138C246.88,-138 169.38,-138 169.38,-138 163.38,-138 157.38,-132 157.38,-126 157.38,-126 157.38,-114 157.38,-114 157.38,-108 163.38,-102 169.38,-102 169.38,-102 246.88,-102 246.88,-102 252.88,-102 258.88,-108 258.88,-114 258.88,-114 258.88,-126 258.88,-126 258.88,-132 252.88,-138 246.88,-138"/>
<text xml:space="preserve" text-anchor="middle" x="208.12" y="-123.05" font-family="Arial" font-size="11.00" fill="white">Server Module</text>
<text xml:space="preserve" text-anchor="middle" x="208.12" y="-109.55" font-family="Arial" font-size="11.00" fill="white">Audio/Video/Input</text>
</g>
<!-- rust_core&#45;&gt;server_mod -->
<g id="edge8" class="edge">
<title>rust_core&#45;&gt;server_mod</title>
<path fill="none" stroke="#2196f3" stroke-width="2" d="M240.69,-195.63C240.69,-195.63 240.69,-151.29 240.69,-151.29"/>
<polygon fill="#2196f3" stroke="#2196f3" stroke-width="2" points="244.19,-151.29 240.69,-141.29 237.19,-151.29 244.19,-151.29"/>
</g>
<!-- rendezvous -->
<g id="node9" class="node">
<title>rendezvous</title>
<path fill="#ff9800" stroke="black" d="M403.62,-138C403.62,-138 306.62,-138 306.62,-138 300.62,-138 294.62,-132 294.62,-126 294.62,-126 294.62,-114 294.62,-114 294.62,-108 300.62,-102 306.62,-102 306.62,-102 403.62,-102 403.62,-102 409.62,-102 415.62,-108 415.62,-114 415.62,-114 415.62,-126 415.62,-126 415.62,-132 409.62,-138 403.62,-138"/>
<text xml:space="preserve" text-anchor="middle" x="355.12" y="-123.05" font-family="Arial" font-size="11.00" fill="white">Rendezvous Mediator</text>
<text xml:space="preserve" text-anchor="middle" x="355.12" y="-109.55" font-family="Arial" font-size="11.00" fill="white">Discovery &amp; Relay</text>
</g>
<!-- rust_core&#45;&gt;rendezvous -->
<g id="edge9" class="edge">
<title>rust_core&#45;&gt;rendezvous</title>
<path fill="none" stroke="#2196f3" stroke-width="2" d="M317.19,-195.63C317.19,-195.63 317.19,-151.29 317.19,-151.29"/>
<polygon fill="#2196f3" stroke="#2196f3" stroke-width="2" points="320.69,-151.29 317.19,-141.29 313.69,-151.29 320.69,-151.29"/>
</g>
<!-- ipc_mod -->
<g id="node10" class="node">
<title>ipc_mod</title>
<path fill="#ff9800" stroke="black" d="M700,-138C700,-138 608.25,-138 608.25,-138 602.25,-138 596.25,-132 596.25,-126 596.25,-126 596.25,-114 596.25,-114 596.25,-108 602.25,-102 608.25,-102 608.25,-102 700,-102 700,-102 706,-102 712,-108 712,-114 712,-114 712,-126 712,-126 712,-132 706,-138 700,-138"/>
<text xml:space="preserve" text-anchor="middle" x="654.12" y="-123.05" font-family="Arial" font-size="11.00" fill="white">IPC Layer</text>
<text xml:space="preserve" text-anchor="middle" x="654.12" y="-109.55" font-family="Arial" font-size="11.00" fill="white">Inter&#45;Process Comm</text>
</g>
<!-- rust_core&#45;&gt;ipc_mod -->
<g id="edge10" class="edge">
<title>rust_core&#45;&gt;ipc_mod</title>
<path fill="none" stroke="#2196f3" stroke-width="1.5" d="M340.23,-208C445.4,-208 654.12,-208 654.12,-208 654.12,-208 654.12,-150.5 654.12,-150.5"/>
<polygon fill="#2196f3" stroke="#2196f3" stroke-width="1.5" points="657.63,-150.5 654.13,-140.5 650.63,-150.5 657.63,-150.5"/>
</g>
<!-- hbb_common -->
<g id="node11" class="node">
<title>hbb_common</title>
<path fill="#9c27b0" stroke="black" d="M114.25,-40C114.25,-40 12,-40 12,-40 6,-40 0,-34 0,-28 0,-28 0,-16 0,-16 0,-10 6,-4 12,-4 12,-4 114.25,-4 114.25,-4 120.25,-4 126.25,-10 126.25,-16 126.25,-16 126.25,-28 126.25,-28 126.25,-34 120.25,-40 114.25,-40"/>
<text xml:space="preserve" text-anchor="middle" x="63.12" y="-25.05" font-family="Arial" font-size="11.00" fill="white">hbb_common</text>
<text xml:space="preserve" text-anchor="middle" x="63.12" y="-11.55" font-family="Arial" font-size="11.00" fill="white">Codec/Config/Protobuf</text>
</g>
<!-- client_mod&#45;&gt;hbb_common -->
<g id="edge11" class="edge">
<title>client_mod&#45;&gt;hbb_common</title>
<path fill="none" stroke="#9c27b0" stroke-width="2" d="M64.12,-101.57C64.12,-101.57 64.12,-53.38 64.12,-53.38"/>
<polygon fill="#9c27b0" stroke="#9c27b0" stroke-width="2" points="67.63,-53.38 64.13,-43.38 60.63,-53.38 67.63,-53.38"/>
</g>
<!-- scrap -->
<g id="node12" class="node">
<title>scrap</title>
<path fill="#9c27b0" stroke="black" d="M242.38,-40C242.38,-40 173.88,-40 173.88,-40 167.88,-40 161.88,-34 161.88,-28 161.88,-28 161.88,-16 161.88,-16 161.88,-10 167.88,-4 173.88,-4 173.88,-4 242.38,-4 242.38,-4 248.38,-4 254.38,-10 254.38,-16 254.38,-16 254.38,-28 254.38,-28 254.38,-34 248.38,-40 242.38,-40"/>
<text xml:space="preserve" text-anchor="middle" x="208.12" y="-25.05" font-family="Arial" font-size="11.00" fill="white">scrap</text>
<text xml:space="preserve" text-anchor="middle" x="208.12" y="-11.55" font-family="Arial" font-size="11.00" fill="white">Screen Capture</text>
</g>
<!-- server_mod&#45;&gt;scrap -->
<g id="edge12" class="edge">
<title>server_mod&#45;&gt;scrap</title>
<path fill="none" stroke="#9c27b0" stroke-width="2" d="M208.12,-101.57C208.12,-101.57 208.12,-53.38 208.12,-53.38"/>
<polygon fill="#9c27b0" stroke="#9c27b0" stroke-width="2" points="211.63,-53.38 208.13,-43.38 204.63,-53.38 211.63,-53.38"/>
</g>
<!-- enigo -->
<g id="node13" class="node">
<title>enigo</title>
<path fill="#9c27b0" stroke="black" d="M396.12,-40C396.12,-40 302.12,-40 302.12,-40 296.12,-40 290.12,-34 290.12,-28 290.12,-28 290.12,-16 290.12,-16 290.12,-10 296.12,-4 302.12,-4 302.12,-4 396.12,-4 396.12,-4 402.12,-4 408.12,-10 408.12,-16 408.12,-16 408.12,-28 408.12,-28 408.12,-34 402.12,-40 396.12,-40"/>
<text xml:space="preserve" text-anchor="middle" x="349.12" y="-25.05" font-family="Arial" font-size="11.00" fill="white">enigo</text>
<text xml:space="preserve" text-anchor="middle" x="349.12" y="-11.55" font-family="Arial" font-size="11.00" fill="white">Keyboard/Mouse Ctrl</text>
</g>
<!-- server_mod&#45;&gt;enigo -->
<g id="edge13" class="edge">
<title>server_mod&#45;&gt;enigo</title>
<path fill="none" stroke="#9c27b0" stroke-width="2" d="M259.11,-120C268.02,-120 274.5,-120 274.5,-120 274.5,-120 274.5,-22 274.5,-22 274.5,-22 276.94,-22 276.94,-22"/>
<polygon fill="#9c27b0" stroke="#9c27b0" stroke-width="2" points="276.94,-25.5 286.94,-22 276.94,-18.5 276.94,-25.5"/>
</g>
<!-- rendezvous&#45;&gt;rendezvous_server -->
<g id="edge15" class="edge">
<title>rendezvous&#45;&gt;rendezvous_server</title>
<path fill="none" stroke="#ff9800" stroke-width="2" d="M411.88,-101.57C411.88,-73.18 411.88,-22 411.88,-22 411.88,-22 437.04,-22 437.04,-22"/>
<polygon fill="#ff9800" stroke="#ff9800" stroke-width="2" points="437.04,-25.5 447.04,-22 437.04,-18.5 437.04,-25.5"/>
</g>
<!-- clipboard -->
<g id="node14" class="node">
<title>clipboard</title>
<path fill="#9c27b0" stroke="black" d="M688.38,-40C688.38,-40 619.88,-40 619.88,-40 613.88,-40 607.88,-34 607.88,-28 607.88,-28 607.88,-16 607.88,-16 607.88,-10 613.88,-4 619.88,-4 619.88,-4 688.38,-4 688.38,-4 694.38,-4 700.38,-10 700.38,-16 700.38,-16 700.38,-28 700.38,-28 700.38,-34 694.38,-40 688.38,-40"/>
<text xml:space="preserve" text-anchor="middle" x="654.12" y="-25.05" font-family="Arial" font-size="11.00" fill="white">clipboard</text>
<text xml:space="preserve" text-anchor="middle" x="654.12" y="-11.55" font-family="Arial" font-size="11.00" fill="white">File Copy/Paste</text>
</g>
<!-- ipc_mod&#45;&gt;clipboard -->
<g id="edge14" class="edge">
<title>ipc_mod&#45;&gt;clipboard</title>
<path fill="none" stroke="#9c27b0" stroke-width="2" d="M654.12,-101.57C654.12,-101.57 654.12,-53.38 654.12,-53.38"/>
<polygon fill="#9c27b0" stroke="#9c27b0" stroke-width="2" points="657.63,-53.38 654.13,-43.38 650.63,-53.38 657.63,-53.38"/>
</g>
</g>
</svg>
