<?xml version="1.0" encoding="UTF-8" standalone="no"?>
<!DOCTYPE svg PUBLIC "-//W3C//DTD SVG 1.1//EN"
 "http://www.w3.org/Graphics/SVG/1.1/DTD/svg11.dtd">
<!-- Generated by graphviz version 14.1.2 (0)
 -->
<!-- Title: build&#45;your&#45;own&#45;x&#45;complexity Pages: 1 -->
<svg width="585pt" height="69pt"
 viewBox="0.00 0.00 585.00 69.00" xmlns="http://www.w3.org/2000/svg" xmlns:xlink="http://www.w3.org/1999/xlink">
<style>
<!-- White text halo for edge label readability -->
text { paint-order: stroke; stroke: #ffffff; stroke-width: 3px; stroke-linejoin: round; fill: #1a1a2e; }
</style>
<g id="graph0" class="graph" transform="scale(1 1) rotate(0) translate(4 65)">
<title>build&#45;your&#45;own&#45;x&#45;complexity</title>
<polygon fill="white" stroke="none" points="-4,4 -4,-65 580.5,-65 580.5,4 -4,4"/>
<text xml:space="preserve" text-anchor="middle" x="288.25" y="-7.2" font-family="Times New Roman,serif" font-size="14.00">Complexity Spectrum</text>
<!-- beginner -->
<g id="node1" class="node">
<title>beginner</title>
<polygon fill="#4caf50" stroke="black" points="114.25,-60.75 0,-60.75 0,-24.75 114.25,-24.75 114.25,-60.75"/>
<text xml:space="preserve" text-anchor="middle" x="57.12" y="-45.8" font-family="Arial" font-size="11.00" fill="white">Beginner</text>
<text xml:space="preserve" text-anchor="middle" x="57.12" y="-32.3" font-family="Arial" font-size="11.00" fill="white">Bot | CLI Tool | Shell</text>
</g>
<!-- intermediate -->
<g id="node2" class="node">
<title>intermediate</title>
<path fill="#2196f3" stroke="black" d="M347.25,-61C347.25,-61 184.25,-61 184.25,-61 178.25,-61 172.25,-55 172.25,-49 172.25,-49 172.25,-36.5 172.25,-36.5 172.25,-30.5 178.25,-24.5 184.25,-24.5 184.25,-24.5 347.25,-24.5 347.25,-24.5 353.25,-24.5 359.25,-30.5 359.25,-36.5 359.25,-36.5 359.25,-49 359.25,-49 359.25,-55 353.25,-61 347.25,-61"/>
<text xml:space="preserve" text-anchor="middle" x="265.75" y="-45.6" font-family="Arial Bold" font-size="12.00" fill="white">Intermediate</text>
<text xml:space="preserve" text-anchor="middle" x="265.75" y="-31.35" font-family="Arial Bold" font-size="12.00" fill="white">Database | Web Server | Game</text>
</g>
<!-- beginner&#45;&gt;intermediate -->
<g id="edge1" class="edge">
<title>beginner&#45;&gt;intermediate</title>
<path fill="none" stroke="#9e9e9e" stroke-width="2" d="M114.68,-42.75C114.68,-42.75 158.9,-42.75 158.9,-42.75"/>
<polygon fill="#9e9e9e" stroke="#9e9e9e" stroke-width="2" points="158.9,-46.25 168.9,-42.75 158.9,-39.25 158.9,-46.25"/>
<text xml:space="preserve" text-anchor="middle" x="197.17" y="-41.83" font-family="Times New Roman,serif" font-size="14.00">increasing complexity</text>
</g>
<!-- advanced -->
<g id="node3" class="node">
<title>advanced</title>
<polygon fill="#f44336" stroke="black" points="576.5,-60.75 417.25,-60.75 417.25,-24.75 576.5,-24.75 576.5,-60.75"/>
<text xml:space="preserve" text-anchor="middle" x="496.88" y="-45.8" font-family="Arial" font-size="11.00" fill="white">Advanced</text>
<text xml:space="preserve" text-anchor="middle" x="496.88" y="-32.3" font-family="Arial" font-size="11.00" fill="white">Compiler | OS | Browser | VM</text>
</g>
<!-- intermediate&#45;&gt;advanced -->
<g id="edge2" class="edge">
<title>intermediate&#45;&gt;advanced</title>
<path fill="none" stroke="#9e9e9e" stroke-width="2" d="M359.42,-42.75C359.42,-42.75 403.76,-42.75 403.76,-42.75"/>
<polygon fill="#9e9e9e" stroke="#9e9e9e" stroke-width="2" points="403.76,-46.25 413.76,-42.75 403.76,-39.25 403.76,-46.25"/>
<text xml:space="preserve" text-anchor="middle" x="441.97" y="-41.83" font-family="Times New Roman,serif" font-size="14.00">increasing complexity</text>
</g>
</g>
</svg>
