<?xml version="1.0" encoding="UTF-8" standalone="no"?>
<!DOCTYPE svg PUBLIC "-//W3C//DTD SVG 1.1//EN"
 "http://www.w3.org/Graphics/SVG/1.1/DTD/svg11.dtd">
<!-- Generated by graphviz version 14.1.2 (0)
 -->
<!-- Title: NavigationWorkflow Pages: 1 -->
<svg width="582pt" height="601pt"
 viewBox="0.00 0.00 582.00 601.00" xmlns="http://www.w3.org/2000/svg" xmlns:xlink="http://www.w3.org/1999/xlink">
<g id="graph0" class="graph" transform="scale(1 1) rotate(0) translate(4 597)">
<title>NavigationWorkflow</title>
<!-- github -->
<g id="node1" class="node">
<title>github</title>
<path fill="#2e86c1" stroke="black" stroke-width="2" d="M187.5,-593C187.5,-593 48.5,-593 48.5,-593 42.5,-593 36.5,-587 36.5,-581 36.5,-581 36.5,-552 36.5,-552 36.5,-546 42.5,-540 48.5,-540 48.5,-540 187.5,-540 187.5,-540 193.5,-540 199.5,-546 199.5,-552 199.5,-552 199.5,-581 199.5,-581 199.5,-587 193.5,-593 187.5,-593"/>
<text xml:space="preserve" text-anchor="middle" x="118" y="-578.55" font-family="Segoe UI" font-size="11.00" fill="white">GitHub Repository</text>
<text xml:space="preserve" text-anchor="middle" x="118" y="-563.55" font-family="Segoe UI" font-size="11.00" fill="white">github.com/EbookFoundation</text>
<text xml:space="preserve" text-anchor="middle" x="118" y="-548.55" font-family="Segoe UI" font-size="11.00" fill="white">/free&#45;programming&#45;books</text>
</g>
<!-- what_resource -->
<g id="node4" class="node">
<title>what_resource</title>
<polygon fill="#f9e79f" stroke="black" points="311,-503 230.5,-465 311,-427 391.5,-465 311,-503"/>
<text xml:space="preserve" text-anchor="middle" x="311" y="-469.55" font-family="Segoe UI" font-size="11.00">What are you</text>
<text xml:space="preserve" text-anchor="middle" x="311" y="-454.55" font-family="Segoe UI" font-size="11.00">looking for?</text>
</g>
<!-- github&#45;&gt;what_resource -->
<g id="edge1" class="edge">
<title>github&#45;&gt;what_resource</title>
<path fill="none" stroke="#5d6d7e" stroke-width="2" d="M169.21,-539.1C197.87,-524.32 233.43,-505.99 261.76,-491.39"/>
<polygon fill="#5d6d7e" stroke="#5d6d7e" stroke-width="2" points="263.05,-494.66 270.33,-486.97 259.84,-488.44 263.05,-494.66"/>
</g>
<!-- search_site -->
<g id="node2" class="node">
<title>search_site</title>
<path fill="#27ae60" stroke="black" stroke-width="2" d="M392.5,-593C392.5,-593 229.5,-593 229.5,-593 223.5,-593 217.5,-587 217.5,-581 217.5,-581 217.5,-552 217.5,-552 217.5,-546 223.5,-540 229.5,-540 229.5,-540 392.5,-540 392.5,-540 398.5,-540 404.5,-546 404.5,-552 404.5,-552 404.5,-581 404.5,-581 404.5,-587 398.5,-593 392.5,-593"/>
<text xml:space="preserve" text-anchor="middle" x="311" y="-578.55" font-family="Segoe UI" font-size="11.00" fill="white">Search Website</text>
<text xml:space="preserve" text-anchor="middle" x="311" y="-563.55" font-family="Segoe UI" font-size="11.00" fill="white">ebookfoundation.github.io</text>
<text xml:space="preserve" text-anchor="middle" x="311" y="-548.55" font-family="Segoe UI" font-size="11.00" fill="white">/free&#45;programming&#45;books&#45;search/</text>
</g>
<!-- search_site&#45;&gt;what_resource -->
<g id="edge2" class="edge">
<title>search_site&#45;&gt;what_resource</title>
<path fill="none" stroke="#5d6d7e" stroke-width="2" d="M311,-539.1C311,-532 311,-524.09 311,-516.17"/>
<polygon fill="#5d6d7e" stroke="#5d6d7e" stroke-width="2" points="314.5,-516.42 311,-506.42 307.5,-516.42 314.5,-516.42"/>
</g>
<!-- static_site -->
<g id="node3" class="node">
<title>static_site</title>
<path fill="#8e44ad" stroke="black" stroke-width="2" d="M561.88,-593C561.88,-593 434.12,-593 434.12,-593 428.12,-593 422.12,-587 422.12,-581 422.12,-581 422.12,-552 422.12,-552 422.12,-546 428.12,-540 434.12,-540 434.12,-540 561.88,-540 561.88,-540 567.88,-540 573.88,-546 573.88,-552 573.88,-552 573.88,-581 573.88,-581 573.88,-587 567.88,-593 561.88,-593"/>
<text xml:space="preserve" text-anchor="middle" x="498" y="-578.55" font-family="Segoe UI" font-size="11.00" fill="white">Static Website</text>
<text xml:space="preserve" text-anchor="middle" x="498" y="-563.55" font-family="Segoe UI" font-size="11.00" fill="white">ebookfoundation.github.io</text>
<text xml:space="preserve" text-anchor="middle" x="498" y="-548.55" font-family="Segoe UI" font-size="11.00" fill="white">/free&#45;programming&#45;books/</text>
</g>
<!-- static_site&#45;&gt;what_resource -->
<g id="edge3" class="edge">
<title>static_site&#45;&gt;what_resource</title>
<path fill="none" stroke="#5d6d7e" stroke-width="2" d="M448.38,-539.1C420.92,-524.49 386.94,-506.41 359.64,-491.88"/>
<polygon fill="#5d6d7e" stroke="#5d6d7e" stroke-width="2" points="361.53,-488.92 351.06,-487.32 358.24,-495.1 361.53,-488.92"/>
</g>
<!-- book_path -->
<g id="node5" class="node">
<title>book_path</title>
<path fill="#aed6f1" stroke="black" d="M112,-376.75C112,-376.75 12,-376.75 12,-376.75 6,-376.75 0,-370.75 0,-364.75 0,-364.75 0,-352.25 0,-352.25 0,-346.25 6,-340.25 12,-340.25 12,-340.25 112,-340.25 112,-340.25 118,-340.25 124,-346.25 124,-352.25 124,-352.25 124,-364.75 124,-364.75 124,-370.75 118,-376.75 112,-376.75"/>
<text xml:space="preserve" text-anchor="middle" x="62" y="-363.25" font-family="Segoe UI" font-size="10.00">Books by</text>
<text xml:space="preserve" text-anchor="middle" x="62" y="-349" font-family="Segoe UI" font-size="10.00">Programming Language</text>
</g>
<!-- what_resource&#45;&gt;book_path -->
<g id="edge4" class="edge">
<title>what_resource&#45;&gt;book_path</title>
<path fill="none" stroke="#5d6d7e" d="M269.04,-446.39C226.48,-428.53 160.5,-400.84 114.5,-381.53"/>
<polygon fill="#5d6d7e" stroke="#5d6d7e" points="116.1,-378.41 105.53,-377.77 113.39,-384.86 116.1,-378.41"/>
<text xml:space="preserve" text-anchor="middle" x="192.91" y="-399.5" font-family="Segoe UI" font-size="10.00">Books</text>
</g>
<!-- subject_path -->
<g id="node6" class="node">
<title>subject_path</title>
<path fill="#aed6f1" stroke="black" d="M203.5,-376.75C203.5,-376.75 154.5,-376.75 154.5,-376.75 148.5,-376.75 142.5,-370.75 142.5,-364.75 142.5,-364.75 142.5,-352.25 142.5,-352.25 142.5,-346.25 148.5,-340.25 154.5,-340.25 154.5,-340.25 203.5,-340.25 203.5,-340.25 209.5,-340.25 215.5,-346.25 215.5,-352.25 215.5,-352.25 215.5,-364.75 215.5,-364.75 215.5,-370.75 209.5,-376.75 203.5,-376.75"/>
<text xml:space="preserve" text-anchor="middle" x="179" y="-363.25" font-family="Segoe UI" font-size="10.00">Books by</text>
<text xml:space="preserve" text-anchor="middle" x="179" y="-349" font-family="Segoe UI" font-size="10.00">Subject Area</text>
</g>
<!-- what_resource&#45;&gt;subject_path -->
<g id="edge5" class="edge">
<title>what_resource&#45;&gt;subject_path</title>
<path fill="none" stroke="#5d6d7e" d="M281.38,-440.55C260.09,-423.7 231.47,-401.04 209.9,-383.96"/>
<polygon fill="#5d6d7e" stroke="#5d6d7e" points="212.33,-381.42 202.32,-377.96 207.99,-386.91 212.33,-381.42"/>
<text xml:space="preserve" text-anchor="middle" x="257.54" y="-399.5" font-family="Segoe UI" font-size="10.00">Subject</text>
</g>
<!-- course_path -->
<g id="node7" class="node">
<title>course_path</title>
<path fill="#a9dfbf" stroke="black" d="M288.88,-376.75C288.88,-376.75 245.12,-376.75 245.12,-376.75 239.12,-376.75 233.12,-370.75 233.12,-364.75 233.12,-364.75 233.12,-352.25 233.12,-352.25 233.12,-346.25 239.12,-340.25 245.12,-340.25 245.12,-340.25 288.88,-340.25 288.88,-340.25 294.88,-340.25 300.88,-346.25 300.88,-352.25 300.88,-352.25 300.88,-364.75 300.88,-364.75 300.88,-370.75 294.88,-376.75 288.88,-376.75"/>
<text xml:space="preserve" text-anchor="middle" x="267" y="-363.25" font-family="Segoe UI" font-size="10.00">Free Online</text>
<text xml:space="preserve" text-anchor="middle" x="267" y="-349" font-family="Segoe UI" font-size="10.00">Courses</text>
</g>
<!-- what_resource&#45;&gt;course_path -->
<g id="edge6" class="edge">
<title>what_resource&#45;&gt;course_path</title>
<path fill="none" stroke="#5d6d7e" d="M297.27,-432.94C293.87,-425.14 290.27,-416.78 287,-409 284.08,-402.05 280.99,-394.51 278.14,-387.47"/>
<polygon fill="#5d6d7e" stroke="#5d6d7e" points="281.46,-386.33 274.48,-378.36 274.97,-388.95 281.46,-386.33"/>
<text xml:space="preserve" text-anchor="middle" x="305" y="-399.5" font-family="Segoe UI" font-size="10.00">Courses</text>
</g>
<!-- cheat_path -->
<g id="node8" class="node">
<title>cheat_path</title>
<path fill="#f9e79f" stroke="black" d="M369.38,-249.5C369.38,-249.5 304.62,-249.5 304.62,-249.5 298.62,-249.5 292.62,-243.5 292.62,-237.5 292.62,-237.5 292.62,-225 292.62,-225 292.62,-219 298.62,-213 304.62,-213 304.62,-213 369.38,-213 369.38,-213 375.38,-213 381.38,-219 381.38,-225 381.38,-225 381.38,-237.5 381.38,-237.5 381.38,-243.5 375.38,-249.5 369.38,-249.5"/>
<text xml:space="preserve" text-anchor="middle" x="337" y="-236" font-family="Segoe UI" font-size="10.00">Cheat Sheets &amp;</text>
<text xml:space="preserve" text-anchor="middle" x="337" y="-221.75" font-family="Segoe UI" font-size="10.00">Quick Reference</text>
</g>
<!-- what_resource&#45;&gt;cheat_path -->
<g id="edge7" class="edge">
<title>what_resource&#45;&gt;cheat_path</title>
<path fill="none" stroke="#5d6d7e" d="M319.09,-430.39C320.57,-423.36 321.97,-415.96 323,-409 330.66,-357.25 334.32,-296.31 335.91,-261.19"/>
<polygon fill="#5d6d7e" stroke="#5d6d7e" points="339.4,-261.55 336.33,-251.41 332.41,-261.25 339.4,-261.55"/>
<text xml:space="preserve" text-anchor="middle" x="352.78" y="-356.12" font-family="Segoe UI" font-size="10.00">Reference</text>
</g>
<!-- podcast_path -->
<g id="node9" class="node">
<title>podcast_path</title>
<path fill="#f5b7b1" stroke="black" d="M431.25,-322.25C431.25,-322.25 386.75,-322.25 386.75,-322.25 380.75,-322.25 374.75,-316.25 374.75,-310.25 374.75,-310.25 374.75,-297.75 374.75,-297.75 374.75,-291.75 380.75,-285.75 386.75,-285.75 386.75,-285.75 431.25,-285.75 431.25,-285.75 437.25,-285.75 443.25,-291.75 443.25,-297.75 443.25,-297.75 443.25,-310.25 443.25,-310.25 443.25,-316.25 437.25,-322.25 431.25,-322.25"/>
<text xml:space="preserve" text-anchor="middle" x="409" y="-308.75" font-family="Segoe UI" font-size="10.00">Podcasts &amp;</text>
<text xml:space="preserve" text-anchor="middle" x="409" y="-294.5" font-family="Segoe UI" font-size="10.00">Screencasts</text>
</g>
<!-- what_resource&#45;&gt;podcast_path -->
<g id="edge8" class="edge">
<title>what_resource&#45;&gt;podcast_path</title>
<path fill="none" stroke="#5d6d7e" d="M336.85,-438.87C352.57,-422.42 372.03,-399.76 385,-376.75 392.61,-363.25 398.3,-346.96 402.23,-333.31"/>
<polygon fill="#5d6d7e" stroke="#5d6d7e" points="405.5,-334.62 404.72,-324.05 398.74,-332.8 405.5,-334.62"/>
<text xml:space="preserve" text-anchor="middle" x="401.17" y="-399.5" font-family="Segoe UI" font-size="10.00">Audio/Video</text>
</g>
<!-- interactive_path -->
<g id="node10" class="node">
<title>interactive_path</title>
<path fill="#d7bde2" stroke="black" d="M503.62,-322.25C503.62,-322.25 464.38,-322.25 464.38,-322.25 458.38,-322.25 452.38,-316.25 452.38,-310.25 452.38,-310.25 452.38,-297.75 452.38,-297.75 452.38,-291.75 458.38,-285.75 464.38,-285.75 464.38,-285.75 503.62,-285.75 503.62,-285.75 509.62,-285.75 515.62,-291.75 515.62,-297.75 515.62,-297.75 515.62,-310.25 515.62,-310.25 515.62,-316.25 509.62,-322.25 503.62,-322.25"/>
<text xml:space="preserve" text-anchor="middle" x="484" y="-308.75" font-family="Segoe UI" font-size="10.00">Interactive</text>
<text xml:space="preserve" text-anchor="middle" x="484" y="-294.5" font-family="Segoe UI" font-size="10.00">Tutorials</text>
</g>
<!-- what_resource&#45;&gt;interactive_path -->
<g id="edge9" class="edge">
<title>what_resource&#45;&gt;interactive_path</title>
<path fill="none" stroke="#5d6d7e" d="M361.05,-450.24C385.14,-441.58 413.05,-428.31 433,-409 454.51,-388.18 468.25,-356.41 475.98,-333.46"/>
<polygon fill="#5d6d7e" stroke="#5d6d7e" points="479.25,-334.72 478.94,-324.13 472.58,-332.6 479.25,-334.72"/>
<text xml:space="preserve" text-anchor="middle" x="466.92" y="-399.5" font-family="Segoe UI" font-size="10.00">Hands&#45;on</text>
</g>
<!-- lang_select -->
<g id="node11" class="node">
<title>lang_select</title>
<polygon fill="#ebf5fb" stroke="black" points="194,-267.75 128.5,-231.25 194,-194.75 259.5,-231.25 194,-267.75"/>
<text xml:space="preserve" text-anchor="middle" x="194" y="-236" font-family="Segoe UI" font-size="10.00">Select Your</text>
<text xml:space="preserve" text-anchor="middle" x="194" y="-221.75" font-family="Segoe UI" font-size="10.00">Language</text>
</g>
<!-- book_path&#45;&gt;lang_select -->
<g id="edge10" class="edge">
<title>book_path&#45;&gt;lang_select</title>
<path fill="none" stroke="#5d6d7e" d="M80.63,-339.82C101.7,-319.83 136.39,-286.92 161.85,-262.76"/>
<polygon fill="#5d6d7e" stroke="#5d6d7e" points="164.16,-265.39 169,-255.97 159.34,-260.31 164.16,-265.39"/>
</g>
<!-- subject_path&#45;&gt;lang_select -->
<g id="edge11" class="edge">
<title>subject_path&#45;&gt;lang_select</title>
<path fill="none" stroke="#5d6d7e" d="M181.12,-339.82C183.06,-323.59 186.03,-298.84 188.62,-277.17"/>
<polygon fill="#5d6d7e" stroke="#5d6d7e" points="192.08,-277.7 189.8,-267.36 185.13,-276.87 192.08,-277.7"/>
</g>
<!-- course_path&#45;&gt;lang_select -->
<g id="edge12" class="edge">
<title>course_path&#45;&gt;lang_select</title>
<path fill="none" stroke="#5d6d7e" d="M256.7,-339.82C246.01,-321.49 229.01,-292.31 215.4,-268.97"/>
<polygon fill="#5d6d7e" stroke="#5d6d7e" points="218.43,-267.22 210.37,-260.35 212.39,-270.75 218.43,-267.22"/>
</g>
<!-- result -->
<g id="node12" class="node">
<title>result</title>
<path fill="#2ecc71" stroke="black" stroke-width="2" d="M426,-157.75C426,-157.75 356,-157.75 356,-157.75 350,-157.75 344,-151.75 344,-145.75 344,-145.75 344,-127.25 344,-127.25 344,-121.25 350,-115.25 356,-115.25 356,-115.25 426,-115.25 426,-115.25 432,-115.25 438,-121.25 438,-127.25 438,-127.25 438,-145.75 438,-145.75 438,-151.75 432,-157.75 426,-157.75"/>
<text xml:space="preserve" text-anchor="middle" x="391" y="-142.35" font-family="Segoe UI" font-size="12.00" fill="white">Curated List of</text>
<text xml:space="preserve" text-anchor="middle" x="391" y="-125.1" font-family="Segoe UI" font-size="12.00" fill="white">Free Resources</text>
</g>
<!-- cheat_path&#45;&gt;result -->
<g id="edge14" class="edge">
<title>cheat_path&#45;&gt;result</title>
<path fill="none" stroke="#5d6d7e" d="M347.16,-212.8C354.46,-200.27 364.49,-183.04 373.11,-168.22"/>
<polygon fill="#5d6d7e" stroke="#5d6d7e" points="376.04,-170.15 378.05,-159.75 369.99,-166.63 376.04,-170.15"/>
</g>
<!-- podcast_path&#45;&gt;result -->
<g id="edge15" class="edge">
<title>podcast_path&#45;&gt;result</title>
<path fill="none" stroke="#5d6d7e" d="M407.07,-285.29C404.09,-257.84 398.3,-204.59 394.54,-170.07"/>
<polygon fill="#5d6d7e" stroke="#5d6d7e" points="398.03,-169.78 393.47,-160.22 391.07,-170.54 398.03,-169.78"/>
</g>
<!-- interactive_path&#45;&gt;result -->
<g id="edge16" class="edge">
<title>interactive_path&#45;&gt;result</title>
<path fill="none" stroke="#5d6d7e" d="M474.05,-285.29C458.42,-257.48 427.92,-203.19 408.55,-168.72"/>
<polygon fill="#5d6d7e" stroke="#5d6d7e" points="411.61,-167.04 403.66,-160.03 405.51,-170.47 411.61,-167.04"/>
</g>
<!-- lang_select&#45;&gt;result -->
<g id="edge13" class="edge">
<title>lang_select&#45;&gt;result</title>
<path fill="none" stroke="#5d6d7e" stroke-width="2" d="M228.77,-213.88C258.01,-200.11 300.4,-180.16 334.51,-164.1"/>
<polygon fill="#5d6d7e" stroke="#5d6d7e" stroke-width="2" points="335.9,-167.31 343.46,-159.88 332.92,-160.98 335.9,-167.31"/>
</g>
<!-- contribute -->
<g id="node13" class="node">
<title>contribute</title>
<path fill="#f2f3f4" stroke="black" d="M443.25,-50.75C443.25,-50.75 338.75,-50.75 338.75,-50.75 332.75,-50.75 326.75,-44.75 326.75,-38.75 326.75,-38.75 326.75,-12 326.75,-12 326.75,-6 332.75,0 338.75,0 338.75,0 443.25,0 443.25,0 449.25,0 455.25,-6 455.25,-12 455.25,-12 455.25,-38.75 455.25,-38.75 455.25,-44.75 449.25,-50.75 443.25,-50.75"/>
<text xml:space="preserve" text-anchor="middle" x="391" y="-37.25" font-family="Segoe UI" font-size="10.00">Want to Contribute?</text>
<text xml:space="preserve" text-anchor="middle" x="391" y="-23" font-family="Segoe UI" font-size="10.00">Read CONTRIBUTING.md</text>
<text xml:space="preserve" text-anchor="middle" x="391" y="-8.75" font-family="Segoe UI" font-size="10.00">Submit a PR</text>
</g>
<!-- result&#45;&gt;contribute -->
<g id="edge17" class="edge">
<title>result&#45;&gt;contribute</title>
<path fill="none" stroke="#5d6d7e" stroke-dasharray="5,2" d="M391,-114.46C391,-99.77 391,-79.78 391,-62.55"/>
<polygon fill="#5d6d7e" stroke="#5d6d7e" points="394.5,-62.68 391,-52.68 387.5,-62.68 394.5,-62.68"/>
<text xml:space="preserve" text-anchor="middle" x="430" y="-87.75" font-family="Segoe UI" font-size="10.00">found something</text>
<text xml:space="preserve" text-anchor="middle" x="430" y="-73.5" font-family="Segoe UI" font-size="10.00">to add?</text>
</g>
</g>
</svg>
