<?xml version="1.0" encoding="UTF-8" standalone="no"?>
<!DOCTYPE svg PUBLIC "-//W3C//DTD SVG 1.1//EN"
 "http://www.w3.org/Graphics/SVG/1.1/DTD/svg11.dtd">
<!-- Generated by graphviz version 14.1.2 (0)
 -->
<!-- Title: posthog&#45;deployment Pages: 1 -->
<svg width="266pt" height="178pt"
 viewBox="0.00 0.00 266.00 178.00" xmlns="http://www.w3.org/2000/svg" xmlns:xlink="http://www.w3.org/1999/xlink">
<style>
<!-- White text halo for edge label readability -->
text { paint-order: stroke; stroke: #ffffff; stroke-width: 3px; stroke-linejoin: round; fill: #1a1a2e; }
</style>
<g id="graph0" class="graph" transform="scale(1 1) rotate(0) translate(4 173.75)">
<title>posthog&#45;deployment</title>
<polygon fill="white" stroke="none" points="-4,4 -4,-173.75 262.25,-173.75 262.25,4 -4,4"/>
<text xml:space="preserve" text-anchor="middle" x="129.12" y="-7.2" font-family="Times New Roman,serif" font-size="14.00">Deployment Options</text>
<!-- cloud -->
<g id="node1" class="node">
<title>cloud</title>
<path fill="#2196f3" stroke="black" d="M106,-169.75C106,-169.75 12,-169.75 12,-169.75 6,-169.75 0,-163.75 0,-157.75 0,-157.75 0,-145.25 0,-145.25 0,-139.25 6,-133.25 12,-133.25 12,-133.25 106,-133.25 106,-133.25 112,-133.25 118,-139.25 118,-145.25 118,-145.25 118,-157.75 118,-157.75 118,-163.75 112,-169.75 106,-169.75"/>
<text xml:space="preserve" text-anchor="middle" x="59" y="-154.35" font-family="Arial Bold" font-size="12.00" fill="white">PostHog Cloud</text>
<text xml:space="preserve" text-anchor="middle" x="59" y="-140.1" font-family="Arial Bold" font-size="12.00" fill="white">US | EU | Free Tier</text>
</g>
<!-- features -->
<g id="node3" class="node">
<title>features</title>
<path fill="#2196f3" stroke="black" d="M239.75,-75.25C239.75,-75.25 24.25,-75.25 24.25,-75.25 18.25,-75.25 12.25,-69.25 12.25,-63.25 12.25,-63.25 12.25,-36.5 12.25,-36.5 12.25,-30.5 18.25,-24.5 24.25,-24.5 24.25,-24.5 239.75,-24.5 239.75,-24.5 245.75,-24.5 251.75,-30.5 251.75,-36.5 251.75,-36.5 251.75,-63.25 251.75,-63.25 251.75,-69.25 245.75,-75.25 239.75,-75.25"/>
<text xml:space="preserve" text-anchor="middle" x="132" y="-59.85" font-family="Arial Bold" font-size="12.00" fill="white">All Features</text>
<text xml:space="preserve" text-anchor="middle" x="132" y="-45.6" font-family="Arial Bold" font-size="12.00" fill="white">Analytics | Replay | Flags | Experiments</text>
<text xml:space="preserve" text-anchor="middle" x="132" y="-31.35" font-family="Arial Bold" font-size="12.00" fill="white">Surveys | Warehouse</text>
</g>
<!-- cloud&#45;&gt;features -->
<g id="edge1" class="edge">
<title>cloud&#45;&gt;features</title>
<path fill="none" stroke="#2196f3" stroke-width="2" d="M65.12,-132.86C65.12,-132.86 65.12,-88.69 65.12,-88.69"/>
<polygon fill="#2196f3" stroke="#2196f3" stroke-width="2" points="68.63,-88.69 65.13,-78.69 61.63,-88.69 68.63,-88.69"/>
</g>
<!-- self_hosted -->
<g id="node2" class="node">
<title>self_hosted</title>
<path fill="#ff9800" stroke="black" d="M246.25,-169.75C246.25,-169.75 165.75,-169.75 165.75,-169.75 159.75,-169.75 153.75,-163.75 153.75,-157.75 153.75,-157.75 153.75,-145.25 153.75,-145.25 153.75,-139.25 159.75,-133.25 165.75,-133.25 165.75,-133.25 246.25,-133.25 246.25,-133.25 252.25,-133.25 258.25,-139.25 258.25,-145.25 258.25,-145.25 258.25,-157.75 258.25,-157.75 258.25,-163.75 252.25,-169.75 246.25,-169.75"/>
<text xml:space="preserve" text-anchor="middle" x="206" y="-154.35" font-family="Arial Bold" font-size="12.00" fill="white">Self&#45;Hosted</text>
<text xml:space="preserve" text-anchor="middle" x="206" y="-140.1" font-family="Arial Bold" font-size="12.00" fill="white">Docker | Hobby</text>
</g>
<!-- self_hosted&#45;&gt;features -->
<g id="edge2" class="edge">
<title>self_hosted&#45;&gt;features</title>
<path fill="none" stroke="#ff9800" stroke-width="2" d="M202.75,-132.86C202.75,-132.86 202.75,-88.69 202.75,-88.69"/>
<polygon fill="#ff9800" stroke="#ff9800" stroke-width="2" points="206.25,-88.69 202.75,-78.69 199.25,-88.69 206.25,-88.69"/>
</g>
</g>
</svg>
