<?xml version="1.0" encoding="UTF-8" standalone="no"?>
<!DOCTYPE svg PUBLIC "-//W3C//DTD SVG 1.1//EN"
 "http://www.w3.org/Graphics/SVG/1.1/DTD/svg11.dtd">
<!-- Generated by graphviz version 14.1.2 (0)
 -->
<!-- Title: posthog&#45;data&#45;flow Pages: 1 -->
<svg width="916pt" height="69pt"
 viewBox="0.00 0.00 916.00 69.00" xmlns="http://www.w3.org/2000/svg" xmlns:xlink="http://www.w3.org/1999/xlink">
<style>
<!-- White text halo for edge label readability -->
text { paint-order: stroke; stroke: #ffffff; stroke-width: 3px; stroke-linejoin: round; fill: #1a1a2e; }
</style>
<g id="graph0" class="graph" transform="scale(1 1) rotate(0) translate(4 65)">
<title>posthog&#45;data&#45;flow</title>
<polygon fill="white" stroke="none" points="-4,4 -4,-65 912,-65 912,4 -4,4"/>
<text xml:space="preserve" text-anchor="middle" x="454" y="-7.2" font-family="Times New Roman,serif" font-size="14.00">PostHog Data Flow</text>
<!-- capture -->
<g id="node1" class="node">
<title>capture</title>
<polygon fill="#f44336" stroke="black" points="85.75,-60.75 0,-60.75 0,-24.75 85.75,-24.75 85.75,-60.75"/>
<text xml:space="preserve" text-anchor="middle" x="42.88" y="-45.8" font-family="Arial" font-size="11.00" fill="white">Event Capture</text>
<text xml:space="preserve" text-anchor="middle" x="42.88" y="-32.3" font-family="Arial" font-size="11.00" fill="white">SDKs | API</text>
</g>
<!-- ingest -->
<g id="node2" class="node">
<title>ingest</title>
<path fill="#2196f3" stroke="black" d="M279,-61C279,-61 155.75,-61 155.75,-61 149.75,-61 143.75,-55 143.75,-49 143.75,-49 143.75,-36.5 143.75,-36.5 143.75,-30.5 149.75,-24.5 155.75,-24.5 155.75,-24.5 279,-24.5 279,-24.5 285,-24.5 291,-30.5 291,-36.5 291,-36.5 291,-49 291,-49 291,-55 285,-61 279,-61"/>
<text xml:space="preserve" text-anchor="middle" x="217.38" y="-45.6" font-family="Arial Bold" font-size="12.00" fill="white">Ingestion</text>
<text xml:space="preserve" text-anchor="middle" x="217.38" y="-31.35" font-family="Arial Bold" font-size="12.00" fill="white">Validation | Enrichment</text>
</g>
<!-- capture&#45;&gt;ingest -->
<g id="edge1" class="edge">
<title>capture&#45;&gt;ingest</title>
<path fill="none" stroke="#2196f3" stroke-width="2" d="M86.01,-42.75C86.01,-42.75 130.46,-42.75 130.46,-42.75"/>
<polygon fill="#2196f3" stroke="#2196f3" stroke-width="2" points="130.46,-46.25 140.46,-42.75 130.46,-39.25 130.46,-46.25"/>
</g>
<!-- process -->
<g id="node3" class="node">
<title>process</title>
<path fill="#2196f3" stroke="black" d="M449,-61C449,-61 361,-61 361,-61 355,-61 349,-55 349,-49 349,-49 349,-36.5 349,-36.5 349,-30.5 355,-24.5 361,-24.5 361,-24.5 449,-24.5 449,-24.5 455,-24.5 461,-30.5 461,-36.5 461,-36.5 461,-49 461,-49 461,-55 455,-61 449,-61"/>
<text xml:space="preserve" text-anchor="middle" x="405" y="-45.6" font-family="Arial Bold" font-size="12.00" fill="white">Processing</text>
<text xml:space="preserve" text-anchor="middle" x="405" y="-31.35" font-family="Arial Bold" font-size="12.00" fill="white">Transform | Filter</text>
</g>
<!-- ingest&#45;&gt;process -->
<g id="edge2" class="edge">
<title>ingest&#45;&gt;process</title>
<path fill="none" stroke="#2196f3" stroke-width="2" d="M291.26,-42.75C291.26,-42.75 335.56,-42.75 335.56,-42.75"/>
<polygon fill="#2196f3" stroke="#2196f3" stroke-width="2" points="335.56,-46.25 345.56,-42.75 335.56,-39.25 335.56,-46.25"/>
</g>
<!-- store -->
<g id="node4" class="node">
<title>store</title>
<path fill="#ff9800" stroke="black" d="M577.75,-60.75C577.75,-60.75 531,-60.75 531,-60.75 525,-60.75 519,-54.75 519,-48.75 519,-48.75 519,-36.75 519,-36.75 519,-30.75 525,-24.75 531,-24.75 531,-24.75 577.75,-24.75 577.75,-24.75 583.75,-24.75 589.75,-30.75 589.75,-36.75 589.75,-36.75 589.75,-48.75 589.75,-48.75 589.75,-54.75 583.75,-60.75 577.75,-60.75"/>
<text xml:space="preserve" text-anchor="middle" x="554.38" y="-45.8" font-family="Arial" font-size="11.00" fill="white">Storage</text>
<text xml:space="preserve" text-anchor="middle" x="554.38" y="-32.3" font-family="Arial" font-size="11.00" fill="white">ClickHouse</text>
</g>
<!-- process&#45;&gt;store -->
<g id="edge3" class="edge">
<title>process&#45;&gt;store</title>
<path fill="none" stroke="#ff9800" stroke-width="2" d="M461.47,-42.75C461.47,-42.75 505.58,-42.75 505.58,-42.75"/>
<polygon fill="#ff9800" stroke="#ff9800" stroke-width="2" points="505.58,-46.25 515.58,-42.75 505.58,-39.25 505.58,-46.25"/>
</g>
<!-- query -->
<g id="node5" class="node">
<title>query</title>
<path fill="#9c27b0" stroke="black" d="M717.75,-60.75C717.75,-60.75 659.75,-60.75 659.75,-60.75 653.75,-60.75 647.75,-54.75 647.75,-48.75 647.75,-48.75 647.75,-36.75 647.75,-36.75 647.75,-30.75 653.75,-24.75 659.75,-24.75 659.75,-24.75 717.75,-24.75 717.75,-24.75 723.75,-24.75 729.75,-30.75 729.75,-36.75 729.75,-36.75 729.75,-48.75 729.75,-48.75 729.75,-54.75 723.75,-60.75 717.75,-60.75"/>
<text xml:space="preserve" text-anchor="middle" x="688.75" y="-45.8" font-family="Arial" font-size="11.00" fill="white">Query Engine</text>
<text xml:space="preserve" text-anchor="middle" x="688.75" y="-32.3" font-family="Arial" font-size="11.00" fill="white">SQL | API</text>
</g>
<!-- store&#45;&gt;query -->
<g id="edge4" class="edge">
<title>store&#45;&gt;query</title>
<path fill="none" stroke="#9c27b0" stroke-width="2" d="M590.03,-42.75C590.03,-42.75 634.66,-42.75 634.66,-42.75"/>
<polygon fill="#9c27b0" stroke="#9c27b0" stroke-width="2" points="634.66,-46.25 644.66,-42.75 634.66,-39.25 634.66,-46.25"/>
</g>
<!-- viz -->
<g id="node6" class="node">
<title>viz</title>
<polygon fill="#4caf50" stroke="black" points="908,-60.75 787.75,-60.75 787.75,-24.75 908,-24.75 908,-60.75"/>
<text xml:space="preserve" text-anchor="middle" x="847.88" y="-45.8" font-family="Arial" font-size="11.00" fill="white">Visualization</text>
<text xml:space="preserve" text-anchor="middle" x="847.88" y="-32.3" font-family="Arial" font-size="11.00" fill="white">Dashboards | Insights</text>
</g>
<!-- query&#45;&gt;viz -->
<g id="edge5" class="edge">
<title>query&#45;&gt;viz</title>
<path fill="none" stroke="#4caf50" stroke-width="2" d="M730.14,-42.75C730.14,-42.75 774.48,-42.75 774.48,-42.75"/>
<polygon fill="#4caf50" stroke="#4caf50" stroke-width="2" points="774.48,-46.25 784.48,-42.75 774.48,-39.25 774.48,-46.25"/>
</g>
</g>
</svg>
