<svg xmlns="http://www.w3.org/2000/svg" viewBox="0 0 860 440" width="860" height="440" font-family="-apple-system, 'Segoe UI', Inter, sans-serif">
<style>
  .title { font-size: 20px; font-weight: 700; fill: #0f172a; }
  .band-label { font-size: 13px; font-weight: 700; fill: #1e40af; letter-spacing:0.3px; }
  .node-title { font-size: 14px; font-weight: 700; fill: #0f172a; }
  .node-title-w { font-size: 14px; font-weight: 700; fill: #ffffff; }
  .item { font-size: 12px; font-weight: 400; fill: #0f172a; }
  .item-sub { font-size: 11px; font-weight: 400; fill: #475569; }
  .stage { font-size: 15px; font-weight: 700; fill: #ffffff; }
  .stage-sub { font-size: 11px; font-weight: 400; fill: #e0e7ff; }
  .note { font-size: 12px; font-weight: 400; fill: #1e40af; }
</style>
<defs>
  <marker id="arrow" markerWidth="10" markerHeight="10" refX="8" refY="5" markerUnits="strokeWidth" orient="auto">
    <path d="M0,1 L8,5 L0,9 z" fill="#475569"/>
  </marker>
  <marker id="arrow-accent" markerWidth="10" markerHeight="10" refX="8" refY="5" markerUnits="strokeWidth" orient="auto">
    <path d="M0,1 L8,5 L0,9 z" fill="#2563eb"/>
  </marker>
</defs>
<rect width="860" height="440" fill="#ffffff"/>
<text x="300" y="38" text-anchor="middle" class="title">Elastic Stack / OpenSearch Ecosystem</text>
<rect x="40" y="70" width="780" height="70" rx="12" fill="#f8fafc" stroke="#e2e8f0" stroke-width="1"/>
<rect x="54" y="84" width="200" height="42" rx="8" fill="#2563eb"/>
<text x="154" y="110" text-anchor="middle" class="node-title-w">ELK Stack</text>
<rect x="274" y="84" width="120" height="42" rx="8" fill="#ffffff" stroke="#cbd5e1" stroke-width="1"/>
<text x="334" y="103" text-anchor="middle" class="item">Elasticsearch</text>
<text x="334" y="118" text-anchor="middle" class="item-sub">search + storage</text>
<rect x="404" y="84" width="120" height="42" rx="8" fill="#ffffff" stroke="#cbd5e1" stroke-width="1"/>
<text x="464" y="103" text-anchor="middle" class="item">Logstash</text>
<text x="464" y="118" text-anchor="middle" class="item-sub">ingest pipeline</text>
<rect x="534" y="84" width="120" height="42" rx="8" fill="#ffffff" stroke="#cbd5e1" stroke-width="1"/>
<text x="594" y="103" text-anchor="middle" class="item">Beats</text>
<text x="594" y="118" text-anchor="middle" class="item-sub">lightweight shippers</text>
<rect x="664" y="84" width="120" height="42" rx="8" fill="#ffffff" stroke="#cbd5e1" stroke-width="1"/>
<text x="724" y="103" text-anchor="middle" class="item">Kibana</text>
<text x="724" y="118" text-anchor="middle" class="item-sub">dashboards + viz</text>
<rect x="40" y="150" width="780" height="70" rx="12" fill="#f1f5f9" stroke="#e2e8f0" stroke-width="1"/>
<rect x="54" y="164" width="200" height="42" rx="8" fill="#1e40af"/>
<text x="154" y="190" text-anchor="middle" class="node-title-w">OpenSearch</text>
<rect x="274" y="164" width="120" height="42" rx="8" fill="#ffffff" stroke="#cbd5e1" stroke-width="1"/>
<text x="334" y="183" text-anchor="middle" class="item">AWS fork</text>
<text x="334" y="198" text-anchor="middle" class="item-sub">Apache 2.0 license</text>
<rect x="404" y="164" width="120" height="42" rx="8" fill="#ffffff" stroke="#cbd5e1" stroke-width="1"/>
<text x="464" y="183" text-anchor="middle" class="item">OpenSearch Dashboards</text>
<text x="464" y="198" text-anchor="middle" class="item-sub">Kibana fork</text>
<rect x="534" y="164" width="120" height="42" rx="8" fill="#ffffff" stroke="#cbd5e1" stroke-width="1"/>
<text x="594" y="183" text-anchor="middle" class="item">same API</text>
<text x="594" y="198" text-anchor="middle" class="item-sub">drop-in compatible</text>
<rect x="664" y="164" width="120" height="42" rx="8" fill="#ffffff" stroke="#cbd5e1" stroke-width="1"/>
<text x="724" y="183" text-anchor="middle" class="item">OpenSearch Serverless</text>
<text x="724" y="198" text-anchor="middle" class="item-sub">managed</text>
<rect x="40" y="230" width="780" height="70" rx="12" fill="#f8fafc" stroke="#e2e8f0" stroke-width="1"/>
<rect x="54" y="244" width="200" height="42" rx="8" fill="#2563eb"/>
<text x="154" y="270" text-anchor="middle" class="node-title-w">Features</text>
<rect x="274" y="244" width="120" height="42" rx="8" fill="#ffffff" stroke="#cbd5e1" stroke-width="1"/>
<text x="334" y="263" text-anchor="middle" class="item">vector search</text>
<text x="334" y="278" text-anchor="middle" class="item-sub">kNN + embeddings</text>
<rect x="404" y="244" width="120" height="42" rx="8" fill="#ffffff" stroke="#cbd5e1" stroke-width="1"/>
<text x="464" y="263" text-anchor="middle" class="item">anomaly detection</text>
<text x="464" y="278" text-anchor="middle" class="item-sub">ML jobs</text>
<rect x="534" y="244" width="120" height="42" rx="8" fill="#ffffff" stroke="#cbd5e1" stroke-width="1"/>
<text x="594" y="263" text-anchor="middle" class="item">SQL + PPL</text>
<text x="594" y="278" text-anchor="middle" class="item-sub">query languages</text>
<rect x="664" y="244" width="120" height="42" rx="8" fill="#ffffff" stroke="#cbd5e1" stroke-width="1"/>
<text x="724" y="263" text-anchor="middle" class="item">alerting</text>
<text x="724" y="278" text-anchor="middle" class="item-sub">monitors + notifs</text>
<rect x="40" y="310" width="780" height="70" rx="12" fill="#f1f5f9" stroke="#e2e8f0" stroke-width="1"/>
<rect x="54" y="324" width="200" height="42" rx="8" fill="#1e40af"/>
<text x="154" y="350" text-anchor="middle" class="node-title-w">Clients + tools</text>
<rect x="274" y="324" width="120" height="42" rx="8" fill="#ffffff" stroke="#cbd5e1" stroke-width="1"/>
<text x="334" y="343" text-anchor="middle" class="item">Python elasticsearch-py</text>
<text x="334" y="358" text-anchor="middle" class="item-sub">official client</text>
<rect x="404" y="324" width="120" height="42" rx="8" fill="#ffffff" stroke="#cbd5e1" stroke-width="1"/>
<text x="464" y="343" text-anchor="middle" class="item">Elastic Cloud</text>
<text x="464" y="358" text-anchor="middle" class="item-sub">managed</text>
<rect x="534" y="324" width="120" height="42" rx="8" fill="#ffffff" stroke="#cbd5e1" stroke-width="1"/>
<text x="594" y="343" text-anchor="middle" class="item">OpenSearch Helm chart</text>
<text x="594" y="358" text-anchor="middle" class="item-sub">K8s deploy</text>
<rect x="664" y="324" width="120" height="42" rx="8" fill="#ffffff" stroke="#cbd5e1" stroke-width="1"/>
<text x="724" y="343" text-anchor="middle" class="item">Curator</text>
<text x="724" y="358" text-anchor="middle" class="item-sub">index lifecycle</text>
</svg>
