<?xml version="1.0" encoding="UTF-8" standalone="no"?>
<!DOCTYPE svg PUBLIC "-//W3C//DTD SVG 1.1//EN"
 "http://www.w3.org/Graphics/SVG/1.1/DTD/svg11.dtd">
<!-- Generated by graphviz version 14.1.2 (0)
 -->
<!-- Title: kami_features Pages: 1 -->
<svg width="2169pt" height="284pt"
 viewBox="0.00 0.00 2169.00 284.00" xmlns="http://www.w3.org/2000/svg" xmlns:xlink="http://www.w3.org/1999/xlink">
<g id="graph0" class="graph" transform="scale(1 1) rotate(0) translate(4 279.75)">
<title>kami_features</title>
<polygon fill="white" stroke="none" points="-4,4 -4,-279.75 2164.5,-279.75 2164.5,4 -4,4"/>
<text xml:space="preserve" text-anchor="middle" x="1080.25" y="-7.2" font-family="Times New Roman,serif" font-size="14.00">Kami Feature Showcase &#45; Design System for the AI Era</text>
<!-- kami_core -->
<g id="node1" class="node">
<title>kami_core</title>
<path fill="#1b365d" stroke="black" d="M1053.88,-275.75C1053.88,-275.75 906.62,-275.75 906.62,-275.75 900.62,-275.75 894.62,-269.75 894.62,-263.75 894.62,-263.75 894.62,-232.5 894.62,-232.5 894.62,-226.5 900.62,-220.5 906.62,-220.5 906.62,-220.5 1053.88,-220.5 1053.88,-220.5 1059.88,-220.5 1065.88,-226.5 1065.88,-232.5 1065.88,-232.5 1065.88,-263.75 1065.88,-263.75 1065.88,-269.75 1059.88,-275.75 1053.88,-275.75"/>
<text xml:space="preserve" text-anchor="middle" x="980.25" y="-258.45" font-family="Arial Bold" font-size="14.00" fill="white">Kami</text>
<text xml:space="preserve" text-anchor="middle" x="980.25" y="-242.7" font-family="Arial Bold" font-size="14.00" fill="white">(Good content deserves</text>
<text xml:space="preserve" text-anchor="middle" x="980.25" y="-226.95" font-family="Arial Bold" font-size="14.00" fill="white">good paper)</text>
</g>
<!-- one_pager -->
<g id="node2" class="node">
<title>one_pager</title>
<path fill="#2196f3" stroke="black" d="M68.5,-162.5C68.5,-162.5 12,-162.5 12,-162.5 6,-162.5 0,-156.5 0,-150.5 0,-150.5 0,-130.5 0,-130.5 0,-124.5 6,-118.5 12,-118.5 12,-118.5 68.5,-118.5 68.5,-118.5 74.5,-118.5 80.5,-124.5 80.5,-130.5 80.5,-130.5 80.5,-150.5 80.5,-150.5 80.5,-156.5 74.5,-162.5 68.5,-162.5"/>
<text xml:space="preserve" text-anchor="middle" x="40.25" y="-149" font-family="Arial" font-size="10.00" fill="white">One&#45;Pager</text>
<text xml:space="preserve" text-anchor="middle" x="40.25" y="-137" font-family="Arial" font-size="10.00" fill="white">Single&#45;page</text>
<text xml:space="preserve" text-anchor="middle" x="40.25" y="-125" font-family="Arial" font-size="10.00" fill="white">exec summary</text>
</g>
<!-- kami_core&#45;&gt;one_pager -->
<g id="edge1" class="edge">
<title>kami_core&#45;&gt;one_pager</title>
<path fill="none" stroke="#2196f3" stroke-width="1.5" d="M894.34,-268.5C662.29,-268.5 40.25,-268.5 40.25,-268.5 40.25,-268.5 40.25,-175.07 40.25,-175.07"/>
<polygon fill="#2196f3" stroke="#2196f3" stroke-width="1.5" points="43.75,-175.07 40.25,-165.07 36.75,-175.07 43.75,-175.07"/>
</g>
<!-- long_doc -->
<g id="node3" class="node">
<title>long_doc</title>
<path fill="#2196f3" stroke="black" d="M174.62,-162.5C174.62,-162.5 121.88,-162.5 121.88,-162.5 115.88,-162.5 109.88,-156.5 109.88,-150.5 109.88,-150.5 109.88,-130.5 109.88,-130.5 109.88,-124.5 115.88,-118.5 121.88,-118.5 121.88,-118.5 174.62,-118.5 174.62,-118.5 180.62,-118.5 186.62,-124.5 186.62,-130.5 186.62,-130.5 186.62,-150.5 186.62,-150.5 186.62,-156.5 180.62,-162.5 174.62,-162.5"/>
<text xml:space="preserve" text-anchor="middle" x="148.25" y="-149" font-family="Arial" font-size="10.00" fill="white">Long Doc</text>
<text xml:space="preserve" text-anchor="middle" x="148.25" y="-137" font-family="Arial" font-size="10.00" fill="white">White papers,</text>
<text xml:space="preserve" text-anchor="middle" x="148.25" y="-125" font-family="Arial" font-size="10.00" fill="white">reports</text>
</g>
<!-- kami_core&#45;&gt;long_doc -->
<g id="edge2" class="edge">
<title>kami_core&#45;&gt;long_doc</title>
<path fill="none" stroke="#2196f3" stroke-width="1.5" d="M894.35,-261.5C681.77,-261.5 148.25,-261.5 148.25,-261.5 148.25,-261.5 148.25,-175.25 148.25,-175.25"/>
<polygon fill="#2196f3" stroke="#2196f3" stroke-width="1.5" points="151.75,-175.25 148.25,-165.25 144.75,-175.25 151.75,-175.25"/>
</g>
<!-- letter -->
<g id="node4" class="node">
<title>letter</title>
<path fill="#2196f3" stroke="black" d="M282.75,-162.5C282.75,-162.5 227.75,-162.5 227.75,-162.5 221.75,-162.5 215.75,-156.5 215.75,-150.5 215.75,-150.5 215.75,-130.5 215.75,-130.5 215.75,-124.5 221.75,-118.5 227.75,-118.5 227.75,-118.5 282.75,-118.5 282.75,-118.5 288.75,-118.5 294.75,-124.5 294.75,-130.5 294.75,-130.5 294.75,-150.5 294.75,-150.5 294.75,-156.5 288.75,-162.5 282.75,-162.5"/>
<text xml:space="preserve" text-anchor="middle" x="255.25" y="-149" font-family="Arial" font-size="10.00" fill="white">Letter</text>
<text xml:space="preserve" text-anchor="middle" x="255.25" y="-137" font-family="Arial" font-size="10.00" fill="white">Formal letters,</text>
<text xml:space="preserve" text-anchor="middle" x="255.25" y="-125" font-family="Arial" font-size="10.00" fill="white">memos</text>
</g>
<!-- kami_core&#45;&gt;letter -->
<g id="edge3" class="edge">
<title>kami_core&#45;&gt;letter</title>
<path fill="none" stroke="#2196f3" stroke-width="1.5" d="M894.24,-255.5C702.19,-255.5 255.25,-255.5 255.25,-255.5 255.25,-255.5 255.25,-175.22 255.25,-175.22"/>
<polygon fill="#2196f3" stroke="#2196f3" stroke-width="1.5" points="258.75,-175.22 255.25,-165.22 251.75,-175.22 258.75,-175.22"/>
</g>
<!-- portfolio -->
<g id="node5" class="node">
<title>portfolio</title>
<path fill="#2196f3" stroke="black" d="M414.38,-162.5C414.38,-162.5 336.12,-162.5 336.12,-162.5 330.12,-162.5 324.12,-156.5 324.12,-150.5 324.12,-150.5 324.12,-130.5 324.12,-130.5 324.12,-124.5 330.12,-118.5 336.12,-118.5 336.12,-118.5 414.38,-118.5 414.38,-118.5 420.38,-118.5 426.38,-124.5 426.38,-130.5 426.38,-130.5 426.38,-150.5 426.38,-150.5 426.38,-156.5 420.38,-162.5 414.38,-162.5"/>
<text xml:space="preserve" text-anchor="middle" x="375.25" y="-149" font-family="Arial" font-size="10.00" fill="white">Portfolio</text>
<text xml:space="preserve" text-anchor="middle" x="375.25" y="-137" font-family="Arial" font-size="10.00" fill="white">Project showcases,</text>
<text xml:space="preserve" text-anchor="middle" x="375.25" y="-125" font-family="Arial" font-size="10.00" fill="white">case studies</text>
</g>
<!-- kami_core&#45;&gt;portfolio -->
<g id="edge4" class="edge">
<title>kami_core&#45;&gt;portfolio</title>
<path fill="none" stroke="#2196f3" stroke-width="1.5" d="M894.21,-248.5C727.18,-248.5 375.25,-248.5 375.25,-248.5 375.25,-248.5 375.25,-175.15 375.25,-175.15"/>
<polygon fill="#2196f3" stroke="#2196f3" stroke-width="1.5" points="378.75,-175.15 375.25,-165.15 371.75,-175.15 378.75,-175.15"/>
</g>
<!-- resume -->
<g id="node6" class="node">
<title>resume</title>
<path fill="#2196f3" stroke="black" d="M537.25,-162.5C537.25,-162.5 467.25,-162.5 467.25,-162.5 461.25,-162.5 455.25,-156.5 455.25,-150.5 455.25,-150.5 455.25,-130.5 455.25,-130.5 455.25,-124.5 461.25,-118.5 467.25,-118.5 467.25,-118.5 537.25,-118.5 537.25,-118.5 543.25,-118.5 549.25,-124.5 549.25,-130.5 549.25,-130.5 549.25,-150.5 549.25,-150.5 549.25,-156.5 543.25,-162.5 537.25,-162.5"/>
<text xml:space="preserve" text-anchor="middle" x="502.25" y="-149" font-family="Arial" font-size="10.00" fill="white">Resume</text>
<text xml:space="preserve" text-anchor="middle" x="502.25" y="-137" font-family="Arial" font-size="10.00" fill="white">CVs, professional</text>
<text xml:space="preserve" text-anchor="middle" x="502.25" y="-125" font-family="Arial" font-size="10.00" fill="white">profiles</text>
</g>
<!-- kami_core&#45;&gt;resume -->
<g id="edge5" class="edge">
<title>kami_core&#45;&gt;resume</title>
<path fill="none" stroke="#2196f3" stroke-width="1.5" d="M894.24,-241.5C756.62,-241.5 502.25,-241.5 502.25,-241.5 502.25,-241.5 502.25,-175.19 502.25,-175.19"/>
<polygon fill="#2196f3" stroke="#2196f3" stroke-width="1.5" points="505.75,-175.19 502.25,-165.19 498.75,-175.19 505.75,-175.19"/>
</g>
<!-- slides -->
<g id="node7" class="node">
<title>slides</title>
<path fill="#2196f3" stroke="black" d="M646.12,-162.5C646.12,-162.5 590.38,-162.5 590.38,-162.5 584.38,-162.5 578.38,-156.5 578.38,-150.5 578.38,-150.5 578.38,-130.5 578.38,-130.5 578.38,-124.5 584.38,-118.5 590.38,-118.5 590.38,-118.5 646.12,-118.5 646.12,-118.5 652.12,-118.5 658.12,-124.5 658.12,-130.5 658.12,-130.5 658.12,-150.5 658.12,-150.5 658.12,-156.5 652.12,-162.5 646.12,-162.5"/>
<text xml:space="preserve" text-anchor="middle" x="618.25" y="-149" font-family="Arial" font-size="10.00" fill="white">Slides</text>
<text xml:space="preserve" text-anchor="middle" x="618.25" y="-137" font-family="Arial" font-size="10.00" fill="white">Presentations,</text>
<text xml:space="preserve" text-anchor="middle" x="618.25" y="-125" font-family="Arial" font-size="10.00" fill="white">keynote decks</text>
</g>
<!-- kami_core&#45;&gt;slides -->
<g id="edge6" class="edge">
<title>kami_core&#45;&gt;slides</title>
<path fill="none" stroke="#2196f3" stroke-width="1.5" d="M894.46,-234.5C787.41,-234.5 618.25,-234.5 618.25,-234.5 618.25,-234.5 618.25,-175.05 618.25,-175.05"/>
<polygon fill="#2196f3" stroke="#2196f3" stroke-width="1.5" points="621.75,-175.05 618.25,-165.05 614.75,-175.05 621.75,-175.05"/>
</g>
<!-- equity -->
<g id="node8" class="node">
<title>equity</title>
<path fill="#2196f3" stroke="black" d="M774.88,-162.5C774.88,-162.5 699.62,-162.5 699.62,-162.5 693.62,-162.5 687.62,-156.5 687.62,-150.5 687.62,-150.5 687.62,-130.5 687.62,-130.5 687.62,-124.5 693.62,-118.5 699.62,-118.5 699.62,-118.5 774.88,-118.5 774.88,-118.5 780.88,-118.5 786.88,-124.5 786.88,-130.5 786.88,-130.5 786.88,-150.5 786.88,-150.5 786.88,-156.5 780.88,-162.5 774.88,-162.5"/>
<text xml:space="preserve" text-anchor="middle" x="737.25" y="-149" font-family="Arial" font-size="10.00" fill="white">Equity Report</text>
<text xml:space="preserve" text-anchor="middle" x="737.25" y="-137" font-family="Arial" font-size="10.00" fill="white">Stock analysis,</text>
<text xml:space="preserve" text-anchor="middle" x="737.25" y="-125" font-family="Arial" font-size="10.00" fill="white">investment memos</text>
</g>
<!-- kami_core&#45;&gt;equity -->
<g id="edge7" class="edge">
<title>kami_core&#45;&gt;equity</title>
<path fill="none" stroke="#2196f3" stroke-width="1.5" d="M894.24,-227.5C824.33,-227.5 737.25,-227.5 737.25,-227.5 737.25,-227.5 737.25,-175.17 737.25,-175.17"/>
<polygon fill="#2196f3" stroke="#2196f3" stroke-width="1.5" points="740.75,-175.17 737.25,-165.17 733.75,-175.18 740.75,-175.17"/>
</g>
<!-- changelog -->
<g id="node9" class="node">
<title>changelog</title>
<path fill="#2196f3" stroke="black" d="M886.62,-162.5C886.62,-162.5 827.88,-162.5 827.88,-162.5 821.88,-162.5 815.88,-156.5 815.88,-150.5 815.88,-150.5 815.88,-130.5 815.88,-130.5 815.88,-124.5 821.88,-118.5 827.88,-118.5 827.88,-118.5 886.62,-118.5 886.62,-118.5 892.62,-118.5 898.62,-124.5 898.62,-130.5 898.62,-130.5 898.62,-150.5 898.62,-150.5 898.62,-156.5 892.62,-162.5 886.62,-162.5"/>
<text xml:space="preserve" text-anchor="middle" x="857.25" y="-149" font-family="Arial" font-size="10.00" fill="white">Changelog</text>
<text xml:space="preserve" text-anchor="middle" x="857.25" y="-137" font-family="Arial" font-size="10.00" fill="white">Release notes,</text>
<text xml:space="preserve" text-anchor="middle" x="857.25" y="-125" font-family="Arial" font-size="10.00" fill="white">version records</text>
</g>
<!-- kami_core&#45;&gt;changelog -->
<g id="edge8" class="edge">
<title>kami_core&#45;&gt;changelog</title>
<path fill="none" stroke="#2196f3" stroke-width="1.5" d="M913.31,-220.13C913.31,-188.24 913.31,-140.5 913.31,-140.5 913.31,-140.5 911.15,-140.5 911.15,-140.5"/>
<polygon fill="#2196f3" stroke="#2196f3" stroke-width="1.5" points="911.15,-137 901.15,-140.5 911.15,-144 911.15,-137"/>
</g>
<!-- inv_parchment -->
<g id="node10" class="node">
<title>inv_parchment</title>
<path fill="#5d4037" stroke="black" d="M1020.5,-158.5C1020.5,-158.5 940,-158.5 940,-158.5 934,-158.5 928,-152.5 928,-146.5 928,-146.5 928,-134.5 928,-134.5 928,-128.5 934,-122.5 940,-122.5 940,-122.5 1020.5,-122.5 1020.5,-122.5 1026.5,-122.5 1032.5,-128.5 1032.5,-134.5 1032.5,-134.5 1032.5,-146.5 1032.5,-146.5 1032.5,-152.5 1026.5,-158.5 1020.5,-158.5"/>
<text xml:space="preserve" text-anchor="middle" x="980.25" y="-143" font-family="Arial" font-size="10.00" fill="white">Parchment Canvas</text>
<text xml:space="preserve" text-anchor="middle" x="980.25" y="-131" font-family="Arial" font-size="10.00" fill="white">#f5f4ed, never white</text>
</g>
<!-- kami_core&#45;&gt;inv_parchment -->
<g id="edge9" class="edge">
<title>kami_core&#45;&gt;inv_parchment</title>
<path fill="none" stroke="#5d4037" stroke-width="1.5" d="M980.25,-220.13C980.25,-220.13 980.25,-171.16 980.25,-171.16"/>
<polygon fill="#5d4037" stroke="#5d4037" stroke-width="1.5" points="983.75,-171.16 980.25,-161.16 976.75,-171.16 983.75,-171.16"/>
</g>
<!-- inv_accent -->
<g id="node11" class="node">
<title>inv_accent</title>
<path fill="#5d4037" stroke="black" d="M1143.25,-158.5C1143.25,-158.5 1073.25,-158.5 1073.25,-158.5 1067.25,-158.5 1061.25,-152.5 1061.25,-146.5 1061.25,-146.5 1061.25,-134.5 1061.25,-134.5 1061.25,-128.5 1067.25,-122.5 1073.25,-122.5 1073.25,-122.5 1143.25,-122.5 1143.25,-122.5 1149.25,-122.5 1155.25,-128.5 1155.25,-134.5 1155.25,-134.5 1155.25,-146.5 1155.25,-146.5 1155.25,-152.5 1149.25,-158.5 1143.25,-158.5"/>
<text xml:space="preserve" text-anchor="middle" x="1108.25" y="-143" font-family="Arial" font-size="10.00" fill="white">Single Accent</text>
<text xml:space="preserve" text-anchor="middle" x="1108.25" y="-131" font-family="Arial" font-size="10.00" fill="white">Ink&#45;blue #1B365D</text>
</g>
<!-- kami_core&#45;&gt;inv_accent -->
<g id="edge10" class="edge">
<title>kami_core&#45;&gt;inv_accent</title>
<path fill="none" stroke="#5d4037" stroke-width="1.5" d="M1046.88,-220.13C1046.88,-188.24 1046.88,-140.5 1046.88,-140.5 1046.88,-140.5 1048.53,-140.5 1048.53,-140.5"/>
<polygon fill="#5d4037" stroke="#5d4037" stroke-width="1.5" points="1048.53,-144 1058.53,-140.5 1048.53,-137 1048.53,-144"/>
</g>
<!-- inv_serif -->
<g id="node12" class="node">
<title>inv_serif</title>
<path fill="#5d4037" stroke="black" d="M1300.5,-162.5C1300.5,-162.5 1196,-162.5 1196,-162.5 1190,-162.5 1184,-156.5 1184,-150.5 1184,-150.5 1184,-130.5 1184,-130.5 1184,-124.5 1190,-118.5 1196,-118.5 1196,-118.5 1300.5,-118.5 1300.5,-118.5 1306.5,-118.5 1312.5,-124.5 1312.5,-130.5 1312.5,-130.5 1312.5,-150.5 1312.5,-150.5 1312.5,-156.5 1306.5,-162.5 1300.5,-162.5"/>
<text xml:space="preserve" text-anchor="middle" x="1248.25" y="-149" font-family="Arial" font-size="10.00" fill="white">Serif Hierarchy</text>
<text xml:space="preserve" text-anchor="middle" x="1248.25" y="-137" font-family="Arial" font-size="10.00" fill="white">Charter / TsangerJinKai02</text>
<text xml:space="preserve" text-anchor="middle" x="1248.25" y="-125" font-family="Arial" font-size="10.00" fill="white">YuMincho (JA)</text>
</g>
<!-- kami_core&#45;&gt;inv_serif -->
<g id="edge11" class="edge">
<title>kami_core&#45;&gt;inv_serif</title>
<path fill="none" stroke="#5d4037" stroke-width="1.5" d="M1066.15,-227.5C1144.54,-227.5 1248.25,-227.5 1248.25,-227.5 1248.25,-227.5 1248.25,-175.17 1248.25,-175.17"/>
<polygon fill="#5d4037" stroke="#5d4037" stroke-width="1.5" points="1251.75,-175.17 1248.25,-165.17 1244.75,-175.18 1251.75,-175.17"/>
</g>
<!-- inv_warm -->
<g id="node13" class="node">
<title>inv_warm</title>
<path fill="#5d4037" stroke="black" d="M1449,-162.5C1449,-162.5 1353.5,-162.5 1353.5,-162.5 1347.5,-162.5 1341.5,-156.5 1341.5,-150.5 1341.5,-150.5 1341.5,-130.5 1341.5,-130.5 1341.5,-124.5 1347.5,-118.5 1353.5,-118.5 1353.5,-118.5 1449,-118.5 1449,-118.5 1455,-118.5 1461,-124.5 1461,-130.5 1461,-130.5 1461,-150.5 1461,-150.5 1461,-156.5 1455,-162.5 1449,-162.5"/>
<text xml:space="preserve" text-anchor="middle" x="1401.25" y="-149" font-family="Arial" font-size="10.00" fill="white">Warm Neutrals</text>
<text xml:space="preserve" text-anchor="middle" x="1401.25" y="-137" font-family="Arial" font-size="10.00" fill="white">Yellow&#45;brown undertone</text>
<text xml:space="preserve" text-anchor="middle" x="1401.25" y="-125" font-family="Arial" font-size="10.00" fill="white">No cool blue&#45;grays</text>
</g>
<!-- kami_core&#45;&gt;inv_warm -->
<g id="edge12" class="edge">
<title>kami_core&#45;&gt;inv_warm</title>
<path fill="none" stroke="#5d4037" stroke-width="1.5" d="M1066.21,-234.5C1189.34,-234.5 1401.25,-234.5 1401.25,-234.5 1401.25,-234.5 1401.25,-175.05 1401.25,-175.05"/>
<polygon fill="#5d4037" stroke="#5d4037" stroke-width="1.5" points="1404.75,-175.05 1401.25,-165.05 1397.75,-175.05 1404.75,-175.05"/>
</g>
<!-- diag_arch -->
<g id="node14" class="node">
<title>diag_arch</title>
<path fill="#00897b" stroke="black" d="M1584.25,-158.5C1584.25,-158.5 1502.25,-158.5 1502.25,-158.5 1496.25,-158.5 1490.25,-152.5 1490.25,-146.5 1490.25,-146.5 1490.25,-134.5 1490.25,-134.5 1490.25,-128.5 1496.25,-122.5 1502.25,-122.5 1502.25,-122.5 1584.25,-122.5 1584.25,-122.5 1590.25,-122.5 1596.25,-128.5 1596.25,-134.5 1596.25,-134.5 1596.25,-146.5 1596.25,-146.5 1596.25,-152.5 1590.25,-158.5 1584.25,-158.5"/>
<text xml:space="preserve" text-anchor="middle" x="1543.25" y="-143" font-family="Arial" font-size="10.00" fill="white">Architecture</text>
<text xml:space="preserve" text-anchor="middle" x="1543.25" y="-131" font-family="Arial" font-size="10.00" fill="white">System components</text>
</g>
<!-- kami_core&#45;&gt;diag_arch -->
<g id="edge13" class="edge">
<title>kami_core&#45;&gt;diag_arch</title>
<path fill="none" stroke="#00897b" stroke-width="1.5" d="M1066.37,-241.5C1224.08,-241.5 1543.25,-241.5 1543.25,-241.5 1543.25,-241.5 1543.25,-170.83 1543.25,-170.83"/>
<polygon fill="#00897b" stroke="#00897b" stroke-width="1.5" points="1546.75,-170.83 1543.25,-160.83 1539.75,-170.83 1546.75,-170.83"/>
</g>
<!-- diag_flow -->
<g id="node15" class="node">
<title>diag_flow</title>
<path fill="#00897b" stroke="black" d="M1693.5,-158.5C1693.5,-158.5 1637,-158.5 1637,-158.5 1631,-158.5 1625,-152.5 1625,-146.5 1625,-146.5 1625,-134.5 1625,-134.5 1625,-128.5 1631,-122.5 1637,-122.5 1637,-122.5 1693.5,-122.5 1693.5,-122.5 1699.5,-122.5 1705.5,-128.5 1705.5,-134.5 1705.5,-134.5 1705.5,-146.5 1705.5,-146.5 1705.5,-152.5 1699.5,-158.5 1693.5,-158.5"/>
<text xml:space="preserve" text-anchor="middle" x="1665.25" y="-143" font-family="Arial" font-size="10.00" fill="white">Flowchart</text>
<text xml:space="preserve" text-anchor="middle" x="1665.25" y="-131" font-family="Arial" font-size="10.00" fill="white">Decision flows</text>
</g>
<!-- kami_core&#45;&gt;diag_flow -->
<g id="edge14" class="edge">
<title>kami_core&#45;&gt;diag_flow</title>
<path fill="none" stroke="#00897b" stroke-width="1.5" d="M1066.31,-248.5C1250.29,-248.5 1665.25,-248.5 1665.25,-248.5 1665.25,-248.5 1665.25,-171.09 1665.25,-171.09"/>
<polygon fill="#00897b" stroke="#00897b" stroke-width="1.5" points="1668.75,-171.09 1665.25,-161.09 1661.75,-171.09 1668.75,-171.09"/>
</g>
<!-- diag_chart -->
<g id="node16" class="node">
<title>diag_chart</title>
<path fill="#00897b" stroke="black" d="M1834.25,-162.5C1834.25,-162.5 1746.25,-162.5 1746.25,-162.5 1740.25,-162.5 1734.25,-156.5 1734.25,-150.5 1734.25,-150.5 1734.25,-130.5 1734.25,-130.5 1734.25,-124.5 1740.25,-118.5 1746.25,-118.5 1746.25,-118.5 1834.25,-118.5 1834.25,-118.5 1840.25,-118.5 1846.25,-124.5 1846.25,-130.5 1846.25,-130.5 1846.25,-150.5 1846.25,-150.5 1846.25,-156.5 1840.25,-162.5 1834.25,-162.5"/>
<text xml:space="preserve" text-anchor="middle" x="1790.25" y="-149" font-family="Arial" font-size="10.00" fill="white">Charts</text>
<text xml:space="preserve" text-anchor="middle" x="1790.25" y="-137" font-family="Arial" font-size="10.00" fill="white">Bar, Line, Donut</text>
<text xml:space="preserve" text-anchor="middle" x="1790.25" y="-125" font-family="Arial" font-size="10.00" fill="white">Candlestick, Waterfall</text>
</g>
<!-- kami_core&#45;&gt;diag_chart -->
<g id="edge15" class="edge">
<title>kami_core&#45;&gt;diag_chart</title>
<path fill="none" stroke="#00897b" stroke-width="1.5" d="M1066.17,-255.5C1274.63,-255.5 1790.25,-255.5 1790.25,-255.5 1790.25,-255.5 1790.25,-175.22 1790.25,-175.22"/>
<polygon fill="#00897b" stroke="#00897b" stroke-width="1.5" points="1793.75,-175.22 1790.25,-165.22 1786.75,-175.22 1793.75,-175.22"/>
</g>
<!-- diag_struct -->
<g id="node17" class="node">
<title>diag_struct</title>
<path fill="#00897b" stroke="black" d="M1963.62,-162.5C1963.62,-162.5 1886.88,-162.5 1886.88,-162.5 1880.88,-162.5 1874.88,-156.5 1874.88,-150.5 1874.88,-150.5 1874.88,-130.5 1874.88,-130.5 1874.88,-124.5 1880.88,-118.5 1886.88,-118.5 1886.88,-118.5 1963.62,-118.5 1963.62,-118.5 1969.62,-118.5 1975.62,-124.5 1975.62,-130.5 1975.62,-130.5 1975.62,-150.5 1975.62,-150.5 1975.62,-156.5 1969.62,-162.5 1963.62,-162.5"/>
<text xml:space="preserve" text-anchor="middle" x="1925.25" y="-149" font-family="Arial" font-size="10.00" fill="white">Structure</text>
<text xml:space="preserve" text-anchor="middle" x="1925.25" y="-137" font-family="Arial" font-size="10.00" fill="white">Tree, Layer Stack</text>
<text xml:space="preserve" text-anchor="middle" x="1925.25" y="-125" font-family="Arial" font-size="10.00" fill="white">Swimlane, Timeline</text>
</g>
<!-- kami_core&#45;&gt;diag_struct -->
<g id="edge16" class="edge">
<title>kami_core&#45;&gt;diag_struct</title>
<path fill="none" stroke="#00897b" stroke-width="1.5" d="M1066.2,-261.5C1299.15,-261.5 1925.25,-261.5 1925.25,-261.5 1925.25,-261.5 1925.25,-175.25 1925.25,-175.25"/>
<polygon fill="#00897b" stroke="#00897b" stroke-width="1.5" points="1928.75,-175.25 1925.25,-165.25 1921.75,-175.25 1928.75,-175.25"/>
</g>
<!-- kami_trilogy -->
<g id="node20" class="node">
<title>kami_trilogy</title>
<path fill="#9c27b0" stroke="black" d="M2114.12,-158.5C2114.12,-158.5 2016.38,-158.5 2016.38,-158.5 2010.38,-158.5 2004.38,-152.5 2004.38,-146.5 2004.38,-146.5 2004.38,-134.5 2004.38,-134.5 2004.38,-128.5 2010.38,-122.5 2016.38,-122.5 2016.38,-122.5 2114.12,-122.5 2114.12,-122.5 2120.12,-122.5 2126.12,-128.5 2126.12,-134.5 2126.12,-134.5 2126.12,-146.5 2126.12,-146.5 2126.12,-152.5 2120.12,-158.5 2114.12,-158.5"/>
<text xml:space="preserve" text-anchor="middle" x="2065.25" y="-143.55" font-family="Arial Bold" font-size="11.00" fill="white">Kami</text>
<text xml:space="preserve" text-anchor="middle" x="2065.25" y="-130.05" font-family="Arial Bold" font-size="11.00" fill="white">Delivers Documents</text>
</g>
<!-- kami_core&#45;&gt;kami_trilogy -->
<g id="edge17" class="edge">
<title>kami_core&#45;&gt;kami_trilogy</title>
<path fill="none" stroke="#9c27b0" stroke-width="2" d="M1066.3,-268.5C1322.92,-268.5 2065.25,-268.5 2065.25,-268.5 2065.25,-268.5 2065.25,-171.87 2065.25,-171.87"/>
<polygon fill="#9c27b0" stroke="#9c27b0" stroke-width="2" points="2068.75,-171.87 2065.25,-161.87 2061.75,-171.87 2068.75,-171.87"/>
</g>
<!-- kaku -->
<g id="node18" class="node">
<title>kaku</title>
<path fill="#9c27b0" stroke="black" d="M2038.5,-60.5C2038.5,-60.5 1982,-60.5 1982,-60.5 1976,-60.5 1970,-54.5 1970,-48.5 1970,-48.5 1970,-36.5 1970,-36.5 1970,-30.5 1976,-24.5 1982,-24.5 1982,-24.5 2038.5,-24.5 2038.5,-24.5 2044.5,-24.5 2050.5,-30.5 2050.5,-36.5 2050.5,-36.5 2050.5,-48.5 2050.5,-48.5 2050.5,-54.5 2044.5,-60.5 2038.5,-60.5"/>
<text xml:space="preserve" text-anchor="middle" x="2010.25" y="-45.55" font-family="Arial Bold" font-size="11.00" fill="white">Kaku</text>
<text xml:space="preserve" text-anchor="middle" x="2010.25" y="-32.05" font-family="Arial Bold" font-size="11.00" fill="white">Writes Code</text>
</g>
<!-- waza -->
<g id="node19" class="node">
<title>waza</title>
<path fill="#9c27b0" stroke="black" d="M2148.5,-60.5C2148.5,-60.5 2092,-60.5 2092,-60.5 2086,-60.5 2080,-54.5 2080,-48.5 2080,-48.5 2080,-36.5 2080,-36.5 2080,-30.5 2086,-24.5 2092,-24.5 2092,-24.5 2148.5,-24.5 2148.5,-24.5 2154.5,-24.5 2160.5,-30.5 2160.5,-36.5 2160.5,-36.5 2160.5,-48.5 2160.5,-48.5 2160.5,-54.5 2154.5,-60.5 2148.5,-60.5"/>
<text xml:space="preserve" text-anchor="middle" x="2120.25" y="-45.55" font-family="Arial Bold" font-size="11.00" fill="white">Waza</text>
<text xml:space="preserve" text-anchor="middle" x="2120.25" y="-32.05" font-family="Arial Bold" font-size="11.00" fill="white">Drills Habits</text>
</g>
<!-- kami_trilogy&#45;&gt;kaku -->
<g id="edge18" class="edge">
<title>kami_trilogy&#45;&gt;kaku</title>
<path fill="none" stroke="#9c27b0" stroke-width="1.5" stroke-dasharray="5,2" d="M2027.44,-122.07C2027.44,-122.07 2027.44,-73.12 2027.44,-73.12"/>
<polygon fill="#9c27b0" stroke="#9c27b0" stroke-width="1.5" points="2030.94,-73.12 2027.44,-63.12 2023.94,-73.12 2030.94,-73.12"/>
</g>
<!-- kami_trilogy&#45;&gt;waza -->
<g id="edge19" class="edge">
<title>kami_trilogy&#45;&gt;waza</title>
<path fill="none" stroke="#9c27b0" stroke-width="1.5" stroke-dasharray="5,2" d="M2103.06,-122.07C2103.06,-122.07 2103.06,-73.12 2103.06,-73.12"/>
<polygon fill="#9c27b0" stroke="#9c27b0" stroke-width="1.5" points="2106.56,-73.12 2103.06,-63.12 2099.56,-73.12 2106.56,-73.12"/>
</g>
</g>
</svg>
