<?xml version="1.0" encoding="UTF-8" standalone="no"?>
<!DOCTYPE svg PUBLIC "-//W3C//DTD SVG 1.1//EN"
 "http://www.w3.org/Graphics/SVG/1.1/DTD/svg11.dtd">
<!-- Generated by graphviz version 14.1.4 (20260321.0153)
 -->
<!-- Title: lua_oop Pages: 1 -->
<svg width="661pt" height="424pt"
 viewBox="0.00 0.00 661.00 424.00" xmlns="http://www.w3.org/2000/svg" xmlns:xlink="http://www.w3.org/1999/xlink">
<style>
text { paint-order: stroke; stroke: #ffffff; stroke-width: 3px; stroke-linejoin: round; fill: #1a1a2e; }
</style>
<g id="graph0" class="graph" transform="scale(1 1) rotate(0) translate(4 419.5)">
<title>lua_oop</title>
<polygon fill="white" stroke="none" points="-4,4 -4,-419.5 656.5,-419.5 656.5,4 -4,4"/>
<text xml:space="preserve" text-anchor="middle" x="326.25" y="-7.2" font-family="Times New Roman,serif" font-size="14.00">Lua OOP via Metatables &#45; Classes, Inheritance</text>
<!-- title -->
<g id="node1" class="node">
<title>title</title>
<path fill="#1565c0" stroke="black" d="M363.38,-415.5C363.38,-415.5 215.38,-415.5 215.38,-415.5 209.38,-415.5 203.38,-409.5 203.38,-403.5 203.38,-403.5 203.38,-391.5 203.38,-391.5 203.38,-385.5 209.38,-379.5 215.38,-379.5 215.38,-379.5 363.38,-379.5 363.38,-379.5 369.38,-379.5 375.38,-385.5 375.38,-391.5 375.38,-391.5 375.38,-403.5 375.38,-403.5 375.38,-409.5 369.38,-415.5 363.38,-415.5"/>
<text xml:space="preserve" text-anchor="middle" x="289.38" y="-392.07" font-family="Arial Bold" font-size="14.00" fill="#ffffff">Lua OOP via Metatables</text>
</g>
<!-- cls -->
<g id="node2" class="node">
<title>cls</title>
<path fill="#2196f3" stroke="black" d="M364.5,-321.5C364.5,-321.5 214.25,-321.5 214.25,-321.5 208.25,-321.5 202.25,-315.5 202.25,-309.5 202.25,-309.5 202.25,-268.5 202.25,-268.5 202.25,-262.5 208.25,-256.5 214.25,-256.5 214.25,-256.5 364.5,-256.5 364.5,-256.5 370.5,-256.5 376.5,-262.5 376.5,-268.5 376.5,-268.5 376.5,-309.5 376.5,-309.5 376.5,-315.5 370.5,-321.5 364.5,-321.5"/>
<text xml:space="preserve" text-anchor="middle" x="289.38" y="-306.1" font-family="Arial Bold" font-size="12.00" fill="#ffffff">Class via __index</text>
<text xml:space="preserve" text-anchor="middle" x="289.38" y="-291.85" font-family="Arial Bold" font-size="12.00" fill="#ffffff">Account = {balance=0}</text>
<text xml:space="preserve" text-anchor="middle" x="289.38" y="-277.6" font-family="Arial Bold" font-size="12.00" fill="#ffffff">Account.__index = Account</text>
<text xml:space="preserve" text-anchor="middle" x="289.38" y="-263.35" font-family="Arial Bold" font-size="12.00" fill="#ffffff">setmetatable(a, Account)</text>
</g>
<!-- title&#45;&gt;cls -->
<g id="edge1" class="edge">
<title>title&#45;&gt;cls</title>
<path fill="none" stroke="#4caf50" stroke-width="2" d="M289.38,-379.09C289.38,-379.09 289.38,-334.59 289.38,-334.59"/>
<polygon fill="#4caf50" stroke="#4caf50" stroke-width="2" points="292.88,-334.59 289.38,-324.59 285.88,-334.59 292.88,-334.59"/>
</g>
<!-- new -->
<g id="node3" class="node">
<title>new</title>
<path fill="#bbdefb" stroke="black" d="M118.75,-198.5C118.75,-198.5 12,-198.5 12,-198.5 6,-198.5 0,-192.5 0,-186.5 0,-186.5 0,-130.5 0,-130.5 0,-124.5 6,-118.5 12,-118.5 12,-118.5 118.75,-118.5 118.75,-118.5 124.75,-118.5 130.75,-124.5 130.75,-130.5 130.75,-130.5 130.75,-186.5 130.75,-186.5 130.75,-192.5 124.75,-198.5 118.75,-198.5"/>
<text xml:space="preserve" text-anchor="middle" x="65.38" y="-185" font-family="Arial" font-size="10.00" fill="#1a1a2e">Constructor</text>
<text xml:space="preserve" text-anchor="middle" x="65.38" y="-173" font-family="Arial" font-size="10.00" fill="#1a1a2e">function Account.new(o)</text>
<text xml:space="preserve" text-anchor="middle" x="65.38" y="-161" font-family="Arial" font-size="10.00" fill="#1a1a2e"> &#160;o = o or {}</text>
<text xml:space="preserve" text-anchor="middle" x="65.38" y="-149" font-family="Arial" font-size="10.00" fill="#1a1a2e"> &#160;setmetatable(o, Account)</text>
<text xml:space="preserve" text-anchor="middle" x="65.38" y="-137" font-family="Arial" font-size="10.00" fill="#1a1a2e"> &#160;return o</text>
<text xml:space="preserve" text-anchor="middle" x="65.38" y="-125" font-family="Arial" font-size="10.00" fill="#1a1a2e">end</text>
</g>
<!-- cls&#45;&gt;new -->
<g id="edge2" class="edge">
<title>cls&#45;&gt;new</title>
<path fill="none" stroke="#00bcd4" stroke-width="2" d="M260.33,-256.2C260.33,-227.55 260.33,-190.5 260.33,-190.5 260.33,-190.5 144.13,-190.5 144.13,-190.5"/>
<polygon fill="#00bcd4" stroke="#00bcd4" stroke-width="2" points="144.13,-187 134.13,-190.5 144.13,-194 144.13,-187"/>
</g>
<!-- inh -->
<g id="node4" class="node">
<title>inh</title>
<path fill="#2196f3" stroke="black" d="M399.75,-182.75C399.75,-182.75 179,-182.75 179,-182.75 173,-182.75 167,-176.75 167,-170.75 167,-170.75 167,-146.25 167,-146.25 167,-140.25 173,-134.25 179,-134.25 179,-134.25 399.75,-134.25 399.75,-134.25 405.75,-134.25 411.75,-140.25 411.75,-146.25 411.75,-146.25 411.75,-170.75 411.75,-170.75 411.75,-176.75 405.75,-182.75 399.75,-182.75"/>
<text xml:space="preserve" text-anchor="middle" x="289.38" y="-168.3" font-family="Arial Bold" font-size="11.00" fill="#ffffff">Inheritance</text>
<text xml:space="preserve" text-anchor="middle" x="289.38" y="-154.8" font-family="Arial Bold" font-size="11.00" fill="#ffffff">setmetatable(Savings, {__index = Account})</text>
<text xml:space="preserve" text-anchor="middle" x="289.38" y="-141.3" font-family="Arial Bold" font-size="11.00" fill="#ffffff">Savings inherits Account</text>
</g>
<!-- cls&#45;&gt;inh -->
<g id="edge3" class="edge">
<title>cls&#45;&gt;inh</title>
<path fill="none" stroke="#ff9800" stroke-width="2" d="M318.42,-256.07C318.42,-256.07 318.42,-196.21 318.42,-196.21"/>
<polygon fill="#ff9800" stroke="#ff9800" stroke-width="2" points="321.92,-196.21 318.42,-186.21 314.92,-196.21 321.92,-196.21"/>
</g>
<!-- mt -->
<g id="node5" class="node">
<title>mt</title>
<path fill="#bbdefb" stroke="black" d="M640.5,-180.5C640.5,-180.5 460.25,-180.5 460.25,-180.5 454.25,-180.5 448.25,-174.5 448.25,-168.5 448.25,-168.5 448.25,-148.5 448.25,-148.5 448.25,-142.5 454.25,-136.5 460.25,-136.5 460.25,-136.5 640.5,-136.5 640.5,-136.5 646.5,-136.5 652.5,-142.5 652.5,-148.5 652.5,-148.5 652.5,-168.5 652.5,-168.5 652.5,-174.5 646.5,-180.5 640.5,-180.5"/>
<text xml:space="preserve" text-anchor="middle" x="550.38" y="-167" font-family="Arial" font-size="10.00" fill="#1a1a2e">Syntactic sugar</text>
<text xml:space="preserve" text-anchor="middle" x="550.38" y="-155" font-family="Arial" font-size="10.00" fill="#1a1a2e">a:deposit(100) &#160;== &#160;Account.deposit(a, 100)</text>
<text xml:space="preserve" text-anchor="middle" x="550.38" y="-143" font-family="Arial" font-size="10.00" fill="#1a1a2e">: passes self</text>
</g>
<!-- cls&#45;&gt;mt -->
<g id="edge4" class="edge">
<title>cls&#45;&gt;mt</title>
<path fill="none" stroke="#9c27b0" stroke-width="2" d="M376.65,-289.5C452.52,-289.5 550.38,-289.5 550.38,-289.5 550.38,-289.5 550.38,-193.75 550.38,-193.75"/>
<polygon fill="#9c27b0" stroke="#9c27b0" stroke-width="2" points="553.88,-193.75 550.38,-183.75 546.88,-193.75 553.88,-193.75"/>
</g>
<!-- out -->
<g id="node6" class="node">
<title>out</title>
<polygon fill="#ff9800" stroke="black" points="514,-60.5 324.75,-60.5 324.75,-24.5 514,-24.5 514,-60.5"/>
<text xml:space="preserve" text-anchor="middle" x="419.38" y="-45.55" font-family="Arial" font-size="11.00" fill="#ffffff">Prototype&#45;based OOP</text>
<text xml:space="preserve" text-anchor="middle" x="419.38" y="-32.05" font-family="Arial" font-size="11.00" fill="#ffffff">no classes &#45; just tables + metatables</text>
</g>
<!-- inh&#45;&gt;out -->
<g id="edge5" class="edge">
<title>inh&#45;&gt;out</title>
<path fill="none" stroke="#f44336" stroke-width="2" d="M368.25,-133.9C368.25,-133.9 368.25,-74 368.25,-74"/>
<polygon fill="#f44336" stroke="#f44336" stroke-width="2" points="371.75,-74 368.25,-64 364.75,-74 371.75,-74"/>
</g>
<!-- mt&#45;&gt;out -->
<g id="edge6" class="edge">
<title>mt&#45;&gt;out</title>
<path fill="none" stroke="#f44336" stroke-width="2" d="M481.12,-136.13C481.12,-136.13 481.12,-74 481.12,-74"/>
<polygon fill="#f44336" stroke="#f44336" stroke-width="2" points="484.63,-74 481.13,-64 477.63,-74 484.63,-74"/>
</g>
</g>
</svg>
