<?xml version="1.0" encoding="UTF-8" standalone="no"?>
<!DOCTYPE svg PUBLIC "-//W3C//DTD SVG 1.1//EN"
 "http://www.w3.org/Graphics/SVG/1.1/DTD/svg11.dtd">
<!-- Generated by graphviz version 14.1.2 (0)
 -->
<!-- Title: thunderbolt_features Pages: 1 -->
<svg width="1439pt" height="233pt"
 viewBox="0.00 0.00 1439.00 233.00" xmlns="http://www.w3.org/2000/svg" xmlns:xlink="http://www.w3.org/1999/xlink">
<g id="graph0" class="graph" transform="scale(1 1) rotate(0) translate(4 228.5)">
<title>thunderbolt_features</title>
<polygon fill="white" stroke="none" points="-4,4 -4,-228.5 1434.75,-228.5 1434.75,4 -4,4"/>
<!-- thunderbolt -->
<g id="node1" class="node">
<title>thunderbolt</title>
<path fill="#2196f3" stroke="black" d="M710.25,-130.5C710.25,-130.5 635.75,-130.5 635.75,-130.5 629.75,-130.5 623.75,-124.5 623.75,-118.5 623.75,-118.5 623.75,-106 623.75,-106 623.75,-100 629.75,-94 635.75,-94 635.75,-94 710.25,-94 710.25,-94 716.25,-94 722.25,-100 722.25,-106 722.25,-106 722.25,-118.5 722.25,-118.5 722.25,-124.5 716.25,-130.5 710.25,-130.5"/>
<text xml:space="preserve" text-anchor="middle" x="673" y="-115.1" font-family="Arial Bold" font-size="12.00" fill="white">Thunderbolt</text>
<text xml:space="preserve" text-anchor="middle" x="673" y="-100.85" font-family="Arial Bold" font-size="12.00" fill="white">AI You Control</text>
</g>
<!-- chat -->
<g id="node5" class="node">
<title>chat</title>
<path fill="#f44336" stroke="black" d="M412.75,-36C412.75,-36 371.25,-36 371.25,-36 365.25,-36 359.25,-30 359.25,-24 359.25,-24 359.25,-12 359.25,-12 359.25,-6 365.25,0 371.25,0 371.25,0 412.75,0 412.75,0 418.75,0 424.75,-6 424.75,-12 424.75,-12 424.75,-24 424.75,-24 424.75,-30 418.75,-36 412.75,-36"/>
<text xml:space="preserve" text-anchor="middle" x="392" y="-20.5" font-family="Arial" font-size="10.00" fill="white">Chat Mode</text>
<text xml:space="preserve" text-anchor="middle" x="392" y="-8.5" font-family="Arial" font-size="10.00" fill="white">(Multi&#45;Turn)</text>
</g>
<!-- thunderbolt&#45;&gt;chat -->
<g id="edge14" class="edge">
<title>thunderbolt&#45;&gt;chat</title>
<path fill="none" stroke="#f44336" stroke-width="1.5" d="M623.26,-103C547.07,-103 410.19,-103 410.19,-103 410.19,-103 410.19,-48.71 410.19,-48.71"/>
<polygon fill="#f44336" stroke="#f44336" stroke-width="1.5" points="413.69,-48.71 410.19,-38.71 406.69,-48.71 413.69,-48.71"/>
</g>
<!-- search -->
<g id="node9" class="node">
<title>search</title>
<path fill="#f44336" stroke="black" d="M523.62,-36C523.62,-36 472.38,-36 472.38,-36 466.38,-36 460.38,-30 460.38,-24 460.38,-24 460.38,-12 460.38,-12 460.38,-6 466.38,0 472.38,0 472.38,0 523.62,0 523.62,0 529.62,0 535.62,-6 535.62,-12 535.62,-12 535.62,-24 535.62,-24 535.62,-30 529.62,-36 523.62,-36"/>
<text xml:space="preserve" text-anchor="middle" x="498" y="-20.5" font-family="Arial" font-size="10.00" fill="white">Search Mode</text>
<text xml:space="preserve" text-anchor="middle" x="498" y="-8.5" font-family="Arial" font-size="10.00" fill="white">(Web Search)</text>
</g>
<!-- thunderbolt&#45;&gt;search -->
<g id="edge15" class="edge">
<title>thunderbolt&#45;&gt;search</title>
<path fill="none" stroke="#f44336" stroke-width="1.5" d="M623.36,-99C581.63,-99 528.75,-99 528.75,-99 528.75,-99 528.75,-48.65 528.75,-48.65"/>
<polygon fill="#f44336" stroke="#f44336" stroke-width="1.5" points="532.25,-48.65 528.75,-38.65 525.25,-48.65 532.25,-48.65"/>
</g>
<!-- research -->
<g id="node13" class="node">
<title>research</title>
<path fill="#f44336" stroke="black" d="M644.5,-36C644.5,-36 583.5,-36 583.5,-36 577.5,-36 571.5,-30 571.5,-24 571.5,-24 571.5,-12 571.5,-12 571.5,-6 577.5,0 583.5,0 583.5,0 644.5,0 644.5,0 650.5,0 656.5,-6 656.5,-12 656.5,-12 656.5,-24 656.5,-24 656.5,-30 650.5,-36 644.5,-36"/>
<text xml:space="preserve" text-anchor="middle" x="614" y="-20.5" font-family="Arial" font-size="10.00" fill="white">Research Mode</text>
<text xml:space="preserve" text-anchor="middle" x="614" y="-8.5" font-family="Arial" font-size="10.00" fill="white">(Deep Analysis)</text>
</g>
<!-- thunderbolt&#45;&gt;research -->
<g id="edge16" class="edge">
<title>thunderbolt&#45;&gt;research</title>
<path fill="none" stroke="#f44336" stroke-width="1.5" d="M640.12,-93.63C640.12,-93.63 640.12,-48.53 640.12,-48.53"/>
<polygon fill="#f44336" stroke="#f44336" stroke-width="1.5" points="643.63,-48.53 640.13,-38.53 636.63,-48.53 643.63,-48.53"/>
</g>
<!-- mcp -->
<g id="node16" class="node">
<title>mcp</title>
<path fill="#f44336" stroke="black" d="M759.5,-36C759.5,-36 704.5,-36 704.5,-36 698.5,-36 692.5,-30 692.5,-24 692.5,-24 692.5,-12 692.5,-12 692.5,-6 698.5,0 704.5,0 704.5,0 759.5,0 759.5,0 765.5,0 771.5,-6 771.5,-12 771.5,-12 771.5,-24 771.5,-24 771.5,-30 765.5,-36 759.5,-36"/>
<text xml:space="preserve" text-anchor="middle" x="732" y="-20.5" font-family="Arial" font-size="10.00" fill="white">MCP Support</text>
<text xml:space="preserve" text-anchor="middle" x="732" y="-8.5" font-family="Arial" font-size="10.00" fill="white">(Tool Protocol)</text>
</g>
<!-- thunderbolt&#45;&gt;mcp -->
<g id="edge17" class="edge">
<title>thunderbolt&#45;&gt;mcp</title>
<path fill="none" stroke="#f44336" stroke-width="1.5" d="M707.38,-93.63C707.38,-93.63 707.38,-48.53 707.38,-48.53"/>
<polygon fill="#f44336" stroke="#f44336" stroke-width="1.5" points="710.88,-48.53 707.38,-38.53 703.88,-48.53 710.88,-48.53"/>
</g>
<!-- widgets -->
<g id="node18" class="node">
<title>widgets</title>
<path fill="#f44336" stroke="black" d="M886.5,-36C886.5,-36 819.5,-36 819.5,-36 813.5,-36 807.5,-30 807.5,-24 807.5,-24 807.5,-12 807.5,-12 807.5,-6 813.5,0 819.5,0 819.5,0 886.5,0 886.5,0 892.5,0 898.5,-6 898.5,-12 898.5,-12 898.5,-24 898.5,-24 898.5,-30 892.5,-36 886.5,-36"/>
<text xml:space="preserve" text-anchor="middle" x="853" y="-20.5" font-family="Arial" font-size="10.00" fill="white">Chat Widgets</text>
<text xml:space="preserve" text-anchor="middle" x="853" y="-8.5" font-family="Arial" font-size="10.00" fill="white">(UI Components)</text>
</g>
<!-- thunderbolt&#45;&gt;widgets -->
<g id="edge18" class="edge">
<title>thunderbolt&#45;&gt;widgets</title>
<path fill="none" stroke="#f44336" stroke-width="1.5" d="M722.74,-99C766.61,-99 823.62,-99 823.62,-99 823.62,-99 823.62,-48.65 823.62,-48.65"/>
<polygon fill="#f44336" stroke="#f44336" stroke-width="1.5" points="827.13,-48.65 823.63,-38.65 820.13,-48.65 827.13,-48.65"/>
</g>
<!-- sync -->
<g id="node20" class="node">
<title>sync</title>
<path fill="#f44336" stroke="black" d="M999,-36C999,-36 947,-36 947,-36 941,-36 935,-30 935,-24 935,-24 935,-12 935,-12 935,-6 941,0 947,0 947,0 999,0 999,0 1005,0 1011,-6 1011,-12 1011,-12 1011,-24 1011,-24 1011,-30 1005,-36 999,-36"/>
<text xml:space="preserve" text-anchor="middle" x="973" y="-20.5" font-family="Arial" font-size="10.00" fill="white">Cross&#45;Device</text>
<text xml:space="preserve" text-anchor="middle" x="973" y="-8.5" font-family="Arial" font-size="10.00" fill="white">Cloud Sync</text>
</g>
<!-- thunderbolt&#45;&gt;sync -->
<g id="edge19" class="edge">
<title>thunderbolt&#45;&gt;sync</title>
<path fill="none" stroke="#f44336" stroke-width="1.5" d="M722.63,-103C803.81,-103 956.06,-103 956.06,-103 956.06,-103 956.06,-48.71 956.06,-48.71"/>
<polygon fill="#f44336" stroke="#f44336" stroke-width="1.5" points="959.56,-48.71 956.06,-38.71 952.56,-48.71 959.56,-48.71"/>
</g>
<!-- web -->
<g id="node2" class="node">
<title>web</title>
<path fill="#4caf50" stroke="black" d="M46,-224.5C46,-224.5 12,-224.5 12,-224.5 6,-224.5 0,-218.5 0,-212.5 0,-212.5 0,-200.5 0,-200.5 0,-194.5 6,-188.5 12,-188.5 12,-188.5 46,-188.5 46,-188.5 52,-188.5 58,-194.5 58,-200.5 58,-200.5 58,-212.5 58,-212.5 58,-218.5 52,-224.5 46,-224.5"/>
<text xml:space="preserve" text-anchor="middle" x="29" y="-209" font-family="Arial" font-size="10.00" fill="white">Web App</text>
<text xml:space="preserve" text-anchor="middle" x="29" y="-197" font-family="Arial" font-size="10.00" fill="white">(Browser)</text>
</g>
<!-- web&#45;&gt;thunderbolt -->
<g id="edge1" class="edge">
<title>web&#45;&gt;thunderbolt</title>
<path fill="none" stroke="#4caf50" stroke-width="1.5" d="M29,-188.43C29,-160 29,-108 29,-108 29,-108 611,-108 611,-108"/>
<polygon fill="#4caf50" stroke="#4caf50" stroke-width="1.5" points="611,-111.5 621,-108 611,-104.5 611,-111.5"/>
</g>
<!-- anthropic -->
<g id="node3" class="node">
<title>anthropic</title>
<path fill="#ff9800" stroke="black" d="M139.62,-224.5C139.62,-224.5 106.38,-224.5 106.38,-224.5 100.38,-224.5 94.38,-218.5 94.38,-212.5 94.38,-212.5 94.38,-200.5 94.38,-200.5 94.38,-194.5 100.38,-188.5 106.38,-188.5 106.38,-188.5 139.62,-188.5 139.62,-188.5 145.62,-188.5 151.62,-194.5 151.62,-200.5 151.62,-200.5 151.62,-212.5 151.62,-212.5 151.62,-218.5 145.62,-224.5 139.62,-224.5"/>
<text xml:space="preserve" text-anchor="middle" x="123" y="-209" font-family="Arial" font-size="10.00" fill="white">Anthropic</text>
<text xml:space="preserve" text-anchor="middle" x="123" y="-197" font-family="Arial" font-size="10.00" fill="white">(Claude)</text>
</g>
<!-- anthropic&#45;&gt;thunderbolt -->
<g id="edge4" class="edge">
<title>anthropic&#45;&gt;thunderbolt</title>
<path fill="none" stroke="#ff9800" stroke-width="1.5" d="M123,-188.28C123,-160.82 123,-112 123,-112 123,-112 611.44,-112 611.44,-112"/>
<polygon fill="#ff9800" stroke="#ff9800" stroke-width="1.5" points="611.44,-115.5 621.44,-112 611.44,-108.5 611.44,-115.5"/>
</g>
<!-- e2e -->
<g id="node4" class="node">
<title>e2e</title>
<path fill="#9c27b0" stroke="black" d="M260.5,-224.5C260.5,-224.5 199.5,-224.5 199.5,-224.5 193.5,-224.5 187.5,-218.5 187.5,-212.5 187.5,-212.5 187.5,-200.5 187.5,-200.5 187.5,-194.5 193.5,-188.5 199.5,-188.5 199.5,-188.5 260.5,-188.5 260.5,-188.5 266.5,-188.5 272.5,-194.5 272.5,-200.5 272.5,-200.5 272.5,-212.5 272.5,-212.5 272.5,-218.5 266.5,-224.5 260.5,-224.5"/>
<text xml:space="preserve" text-anchor="middle" x="230" y="-209" font-family="Arial" font-size="10.00" fill="white">E2E Encryption</text>
<text xml:space="preserve" text-anchor="middle" x="230" y="-197" font-family="Arial" font-size="10.00" fill="white">(Post&#45;Quantum)</text>
</g>
<!-- e2e&#45;&gt;thunderbolt -->
<g id="edge10" class="edge">
<title>e2e&#45;&gt;thunderbolt</title>
<path fill="none" stroke="#9c27b0" stroke-width="1.5" d="M230,-188.39C230,-162.24 230,-117 230,-117 230,-117 611.2,-117 611.2,-117"/>
<polygon fill="#9c27b0" stroke="#9c27b0" stroke-width="1.5" points="611.2,-120.5 621.2,-117 611.2,-113.5 611.2,-120.5"/>
</g>
<!-- desktop -->
<g id="node6" class="node">
<title>desktop</title>
<path fill="#4caf50" stroke="black" d="M383.62,-224.5C383.62,-224.5 320.38,-224.5 320.38,-224.5 314.38,-224.5 308.38,-218.5 308.38,-212.5 308.38,-212.5 308.38,-200.5 308.38,-200.5 308.38,-194.5 314.38,-188.5 320.38,-188.5 320.38,-188.5 383.62,-188.5 383.62,-188.5 389.62,-188.5 395.62,-194.5 395.62,-200.5 395.62,-200.5 395.62,-212.5 395.62,-212.5 395.62,-218.5 389.62,-224.5 383.62,-224.5"/>
<text xml:space="preserve" text-anchor="middle" x="352" y="-209" font-family="Arial" font-size="10.00" fill="white">Desktop</text>
<text xml:space="preserve" text-anchor="middle" x="352" y="-197" font-family="Arial" font-size="10.00" fill="white">(Mac/Linux/Win)</text>
</g>
<!-- desktop&#45;&gt;thunderbolt -->
<g id="edge2" class="edge">
<title>desktop&#45;&gt;thunderbolt</title>
<path fill="none" stroke="#4caf50" stroke-width="1.5" d="M377.44,-188.37C377.44,-163.27 377.44,-121 377.44,-121 377.44,-121 611.26,-121 611.26,-121"/>
<polygon fill="#4caf50" stroke="#4caf50" stroke-width="1.5" points="611.26,-124.5 621.26,-121 611.26,-117.5 611.26,-124.5"/>
</g>
<!-- openai -->
<g id="node7" class="node">
<title>openai</title>
<path fill="#ff9800" stroke="black" d="M474,-224.5C474,-224.5 444,-224.5 444,-224.5 438,-224.5 432,-218.5 432,-212.5 432,-212.5 432,-200.5 432,-200.5 432,-194.5 438,-188.5 444,-188.5 444,-188.5 474,-188.5 474,-188.5 480,-188.5 486,-194.5 486,-200.5 486,-200.5 486,-212.5 486,-212.5 486,-218.5 480,-224.5 474,-224.5"/>
<text xml:space="preserve" text-anchor="middle" x="459" y="-209" font-family="Arial" font-size="10.00" fill="white">OpenAI</text>
<text xml:space="preserve" text-anchor="middle" x="459" y="-197" font-family="Arial" font-size="10.00" fill="white">(GPT)</text>
</g>
<!-- openai&#45;&gt;thunderbolt -->
<g id="edge5" class="edge">
<title>openai&#45;&gt;thunderbolt</title>
<path fill="none" stroke="#ff9800" stroke-width="1.5" d="M473.19,-188.23C473.19,-164.48 473.19,-126 473.19,-126 473.19,-126 611.08,-126 611.08,-126"/>
<polygon fill="#ff9800" stroke="#ff9800" stroke-width="1.5" points="611.08,-129.5 621.08,-126 611.08,-122.5 611.08,-129.5"/>
</g>
<!-- offline -->
<g id="node8" class="node">
<title>offline</title>
<path fill="#9c27b0" stroke="black" d="M588.12,-224.5C588.12,-224.5 533.88,-224.5 533.88,-224.5 527.88,-224.5 521.88,-218.5 521.88,-212.5 521.88,-212.5 521.88,-200.5 521.88,-200.5 521.88,-194.5 527.88,-188.5 533.88,-188.5 533.88,-188.5 588.12,-188.5 588.12,-188.5 594.12,-188.5 600.12,-194.5 600.12,-200.5 600.12,-200.5 600.12,-212.5 600.12,-212.5 600.12,-218.5 594.12,-224.5 588.12,-224.5"/>
<text xml:space="preserve" text-anchor="middle" x="561" y="-209" font-family="Arial" font-size="10.00" fill="white">Offline&#45;First</text>
<text xml:space="preserve" text-anchor="middle" x="561" y="-197" font-family="Arial" font-size="10.00" fill="white">(Local SQLite)</text>
</g>
<!-- offline&#45;&gt;thunderbolt -->
<g id="edge11" class="edge">
<title>offline&#45;&gt;thunderbolt</title>
<path fill="none" stroke="#9c27b0" stroke-width="1.5" d="M600.59,-207C615.88,-207 629.75,-207 629.75,-207 629.75,-207 629.75,-143.24 629.75,-143.24"/>
<polygon fill="#9c27b0" stroke="#9c27b0" stroke-width="1.5" points="633.25,-143.24 629.75,-133.24 626.25,-143.24 633.25,-143.24"/>
</g>
<!-- mobile -->
<g id="node10" class="node">
<title>mobile</title>
<path fill="#4caf50" stroke="black" d="M698.25,-224.5C698.25,-224.5 647.75,-224.5 647.75,-224.5 641.75,-224.5 635.75,-218.5 635.75,-212.5 635.75,-212.5 635.75,-200.5 635.75,-200.5 635.75,-194.5 641.75,-188.5 647.75,-188.5 647.75,-188.5 698.25,-188.5 698.25,-188.5 704.25,-188.5 710.25,-194.5 710.25,-200.5 710.25,-200.5 710.25,-212.5 710.25,-212.5 710.25,-218.5 704.25,-224.5 698.25,-224.5"/>
<text xml:space="preserve" text-anchor="middle" x="673" y="-209" font-family="Arial" font-size="10.00" fill="white">Mobile</text>
<text xml:space="preserve" text-anchor="middle" x="673" y="-197" font-family="Arial" font-size="10.00" fill="white">(iOS/Android)</text>
</g>
<!-- mobile&#45;&gt;thunderbolt -->
<g id="edge3" class="edge">
<title>mobile&#45;&gt;thunderbolt</title>
<path fill="none" stroke="#4caf50" stroke-width="1.5" d="M673,-188.33C673,-188.33 673,-142.96 673,-142.96"/>
<polygon fill="#4caf50" stroke="#4caf50" stroke-width="1.5" points="676.5,-142.96 673,-132.96 669.5,-142.96 676.5,-142.96"/>
</g>
<!-- mistral -->
<g id="node11" class="node">
<title>mistral</title>
<path fill="#ff9800" stroke="black" d="M791.25,-224.5C791.25,-224.5 758.75,-224.5 758.75,-224.5 752.75,-224.5 746.75,-218.5 746.75,-212.5 746.75,-212.5 746.75,-200.5 746.75,-200.5 746.75,-194.5 752.75,-188.5 758.75,-188.5 758.75,-188.5 791.25,-188.5 791.25,-188.5 797.25,-188.5 803.25,-194.5 803.25,-200.5 803.25,-200.5 803.25,-212.5 803.25,-212.5 803.25,-218.5 797.25,-224.5 791.25,-224.5"/>
<text xml:space="preserve" text-anchor="middle" x="775" y="-209" font-family="Arial" font-size="10.00" fill="white">Mistral</text>
<text xml:space="preserve" text-anchor="middle" x="775" y="-197" font-family="Arial" font-size="10.00" fill="white">(Le Chat)</text>
</g>
<!-- mistral&#45;&gt;thunderbolt -->
<g id="edge6" class="edge">
<title>mistral&#45;&gt;thunderbolt</title>
<path fill="none" stroke="#ff9800" stroke-width="1.5" d="M746.31,-207C731.4,-207 716.25,-207 716.25,-207 716.25,-207 716.25,-143.24 716.25,-143.24"/>
<polygon fill="#ff9800" stroke="#ff9800" stroke-width="1.5" points="719.75,-143.24 716.25,-133.24 712.75,-143.24 719.75,-143.24"/>
</g>
<!-- self_host -->
<g id="node12" class="node">
<title>self_host</title>
<path fill="#9c27b0" stroke="black" d="M926.25,-224.5C926.25,-224.5 851.75,-224.5 851.75,-224.5 845.75,-224.5 839.75,-218.5 839.75,-212.5 839.75,-212.5 839.75,-200.5 839.75,-200.5 839.75,-194.5 845.75,-188.5 851.75,-188.5 851.75,-188.5 926.25,-188.5 926.25,-188.5 932.25,-188.5 938.25,-194.5 938.25,-200.5 938.25,-200.5 938.25,-212.5 938.25,-212.5 938.25,-218.5 932.25,-224.5 926.25,-224.5"/>
<text xml:space="preserve" text-anchor="middle" x="889" y="-209" font-family="Arial" font-size="10.00" fill="white">Self&#45;Hostable</text>
<text xml:space="preserve" text-anchor="middle" x="889" y="-197" font-family="Arial" font-size="10.00" fill="white">(Docker Compose)</text>
</g>
<!-- self_host&#45;&gt;thunderbolt -->
<g id="edge12" class="edge">
<title>self_host&#45;&gt;thunderbolt</title>
<path fill="none" stroke="#9c27b0" stroke-width="1.5" d="M869.12,-188.23C869.12,-164.48 869.12,-126 869.12,-126 869.12,-126 735.01,-126 735.01,-126"/>
<polygon fill="#9c27b0" stroke="#9c27b0" stroke-width="1.5" points="735.01,-122.5 725.01,-126 735.01,-129.5 735.01,-122.5"/>
</g>
<!-- openrouter -->
<g id="node14" class="node">
<title>openrouter</title>
<path fill="#ff9800" stroke="black" d="M1034.12,-224.5C1034.12,-224.5 985.88,-224.5 985.88,-224.5 979.88,-224.5 973.88,-218.5 973.88,-212.5 973.88,-212.5 973.88,-200.5 973.88,-200.5 973.88,-194.5 979.88,-188.5 985.88,-188.5 985.88,-188.5 1034.12,-188.5 1034.12,-188.5 1040.12,-188.5 1046.12,-194.5 1046.12,-200.5 1046.12,-200.5 1046.12,-212.5 1046.12,-212.5 1046.12,-218.5 1040.12,-224.5 1034.12,-224.5"/>
<text xml:space="preserve" text-anchor="middle" x="1010" y="-209" font-family="Arial" font-size="10.00" fill="white">OpenRouter</text>
<text xml:space="preserve" text-anchor="middle" x="1010" y="-197" font-family="Arial" font-size="10.00" fill="white">(Multi&#45;Model)</text>
</g>
<!-- openrouter&#45;&gt;thunderbolt -->
<g id="edge7" class="edge">
<title>openrouter&#45;&gt;thunderbolt</title>
<path fill="none" stroke="#ff9800" stroke-width="1.5" d="M992.44,-188.37C992.44,-163.27 992.44,-121 992.44,-121 992.44,-121 734.83,-121 734.83,-121"/>
<polygon fill="#ff9800" stroke="#ff9800" stroke-width="1.5" points="734.83,-117.5 724.83,-121 734.83,-124.5 734.83,-117.5"/>
</g>
<!-- data_own -->
<g id="node15" class="node">
<title>data_own</title>
<path fill="#9c27b0" stroke="black" d="M1172.12,-224.5C1172.12,-224.5 1093.88,-224.5 1093.88,-224.5 1087.88,-224.5 1081.88,-218.5 1081.88,-212.5 1081.88,-212.5 1081.88,-200.5 1081.88,-200.5 1081.88,-194.5 1087.88,-188.5 1093.88,-188.5 1093.88,-188.5 1172.12,-188.5 1172.12,-188.5 1178.12,-188.5 1184.12,-194.5 1184.12,-200.5 1184.12,-200.5 1184.12,-212.5 1184.12,-212.5 1184.12,-218.5 1178.12,-224.5 1172.12,-224.5"/>
<text xml:space="preserve" text-anchor="middle" x="1133" y="-209" font-family="Arial" font-size="10.00" fill="white">Own Your Data</text>
<text xml:space="preserve" text-anchor="middle" x="1133" y="-197" font-family="Arial" font-size="10.00" fill="white">(No Vendor Lock&#45;in)</text>
</g>
<!-- data_own&#45;&gt;thunderbolt -->
<g id="edge13" class="edge">
<title>data_own&#45;&gt;thunderbolt</title>
<path fill="none" stroke="#9c27b0" stroke-width="1.5" d="M1133,-188.39C1133,-162.24 1133,-117 1133,-117 1133,-117 734.94,-117 734.94,-117"/>
<polygon fill="#9c27b0" stroke="#9c27b0" stroke-width="1.5" points="734.94,-113.5 724.94,-117 734.94,-120.5 734.94,-113.5"/>
</g>
<!-- ollama -->
<g id="node17" class="node">
<title>ollama</title>
<path fill="#ff9800" stroke="black" d="M1275.5,-224.5C1275.5,-224.5 1232.5,-224.5 1232.5,-224.5 1226.5,-224.5 1220.5,-218.5 1220.5,-212.5 1220.5,-212.5 1220.5,-200.5 1220.5,-200.5 1220.5,-194.5 1226.5,-188.5 1232.5,-188.5 1232.5,-188.5 1275.5,-188.5 1275.5,-188.5 1281.5,-188.5 1287.5,-194.5 1287.5,-200.5 1287.5,-200.5 1287.5,-212.5 1287.5,-212.5 1287.5,-218.5 1281.5,-224.5 1275.5,-224.5"/>
<text xml:space="preserve" text-anchor="middle" x="1254" y="-209" font-family="Arial" font-size="10.00" fill="white">Ollama</text>
<text xml:space="preserve" text-anchor="middle" x="1254" y="-197" font-family="Arial" font-size="10.00" fill="white">(Local LLM)</text>
</g>
<!-- ollama&#45;&gt;thunderbolt -->
<g id="edge8" class="edge">
<title>ollama&#45;&gt;thunderbolt</title>
<path fill="none" stroke="#ff9800" stroke-width="1.5" d="M1254,-188.28C1254,-160.82 1254,-112 1254,-112 1254,-112 734.81,-112 734.81,-112"/>
<polygon fill="#ff9800" stroke="#ff9800" stroke-width="1.5" points="734.81,-108.5 724.81,-112 734.81,-115.5 734.81,-108.5"/>
</g>
<!-- custom -->
<g id="node19" class="node">
<title>custom</title>
<path fill="#ff9800" stroke="black" d="M1418.75,-224.5C1418.75,-224.5 1335.25,-224.5 1335.25,-224.5 1329.25,-224.5 1323.25,-218.5 1323.25,-212.5 1323.25,-212.5 1323.25,-200.5 1323.25,-200.5 1323.25,-194.5 1329.25,-188.5 1335.25,-188.5 1335.25,-188.5 1418.75,-188.5 1418.75,-188.5 1424.75,-188.5 1430.75,-194.5 1430.75,-200.5 1430.75,-200.5 1430.75,-212.5 1430.75,-212.5 1430.75,-218.5 1424.75,-224.5 1418.75,-224.5"/>
<text xml:space="preserve" text-anchor="middle" x="1377" y="-209" font-family="Arial" font-size="10.00" fill="white">Custom</text>
<text xml:space="preserve" text-anchor="middle" x="1377" y="-197" font-family="Arial" font-size="10.00" fill="white">(OpenAI&#45;Compatible)</text>
</g>
<!-- custom&#45;&gt;thunderbolt -->
<g id="edge9" class="edge">
<title>custom&#45;&gt;thunderbolt</title>
<path fill="none" stroke="#ff9800" stroke-width="1.5" d="M1377,-188.43C1377,-160 1377,-108 1377,-108 1377,-108 734.77,-108 734.77,-108"/>
<polygon fill="#ff9800" stroke="#ff9800" stroke-width="1.5" points="734.77,-104.5 724.77,-108 734.77,-111.5 734.77,-104.5"/>
</g>
</g>
</svg>
