<?xml version="1.0" encoding="UTF-8" standalone="no"?>
<!DOCTYPE svg PUBLIC "-//W3C//DTD SVG 1.1//EN"
 "http://www.w3.org/Graphics/SVG/1.1/DTD/svg11.dtd">
<!-- Generated by graphviz version 14.1.2 (0)
 -->
<!-- Title: thunderbolt_tech_stack Pages: 1 -->
<svg width="2430pt" height="139pt"
 viewBox="0.00 0.00 2430.00 139.00" xmlns="http://www.w3.org/2000/svg" xmlns:xlink="http://www.w3.org/1999/xlink">
<g id="graph0" class="graph" transform="scale(1 1) rotate(0) translate(4 134.5)">
<title>thunderbolt_tech_stack</title>
<polygon fill="white" stroke="none" points="-4,4 -4,-134.5 2425.75,-134.5 2425.75,4 -4,4"/>
<!-- frontend -->
<g id="node1" class="node">
<title>frontend</title>
<path fill="#2196f3" stroke="black" d="M509.38,-130.5C509.38,-130.5 462.62,-130.5 462.62,-130.5 456.62,-130.5 450.62,-124.5 450.62,-118.5 450.62,-118.5 450.62,-106 450.62,-106 450.62,-100 456.62,-94 462.62,-94 462.62,-94 509.38,-94 509.38,-94 515.38,-94 521.38,-100 521.38,-106 521.38,-106 521.38,-118.5 521.38,-118.5 521.38,-124.5 515.38,-130.5 509.38,-130.5"/>
<text xml:space="preserve" text-anchor="middle" x="486" y="-115.1" font-family="Arial Bold" font-size="12.00" fill="white">Frontend</text>
<text xml:space="preserve" text-anchor="middle" x="486" y="-100.85" font-family="Arial Bold" font-size="12.00" fill="white">(UI Layer)</text>
</g>
<!-- react -->
<g id="node2" class="node">
<title>react</title>
<path fill="#4caf50" stroke="black" d="M576.12,-36C576.12,-36 515.88,-36 515.88,-36 509.88,-36 503.88,-30 503.88,-24 503.88,-24 503.88,-12 503.88,-12 503.88,-6 509.88,0 515.88,0 515.88,0 576.12,0 576.12,0 582.12,0 588.12,-6 588.12,-12 588.12,-12 588.12,-24 588.12,-24 588.12,-30 582.12,-36 576.12,-36"/>
<text xml:space="preserve" text-anchor="middle" x="546" y="-20.5" font-family="Arial" font-size="10.00" fill="white">React 19</text>
<text xml:space="preserve" text-anchor="middle" x="546" y="-8.5" font-family="Arial" font-size="10.00" fill="white">(UI Framework)</text>
</g>
<!-- frontend&#45;&gt;react -->
<g id="edge1" class="edge">
<title>frontend&#45;&gt;react</title>
<path fill="none" stroke="#4caf50" stroke-width="1.5" d="M509.71,-93.63C509.71,-93.63 509.71,-48.53 509.71,-48.53"/>
<polygon fill="#4caf50" stroke="#4caf50" stroke-width="1.5" points="513.21,-48.53 509.71,-38.53 506.21,-48.53 513.21,-48.53"/>
</g>
<!-- tailwind -->
<g id="node3" class="node">
<title>tailwind</title>
<path fill="#4caf50" stroke="black" d="M687.62,-36C687.62,-36 636.38,-36 636.38,-36 630.38,-36 624.38,-30 624.38,-24 624.38,-24 624.38,-12 624.38,-12 624.38,-6 630.38,0 636.38,0 636.38,0 687.62,0 687.62,0 693.62,0 699.62,-6 699.62,-12 699.62,-12 699.62,-24 699.62,-24 699.62,-30 693.62,-36 687.62,-36"/>
<text xml:space="preserve" text-anchor="middle" x="662" y="-20.5" font-family="Arial" font-size="10.00" fill="white">Tailwind CSS</text>
<text xml:space="preserve" text-anchor="middle" x="662" y="-8.5" font-family="Arial" font-size="10.00" fill="white">(Styling)</text>
</g>
<!-- frontend&#45;&gt;tailwind -->
<g id="edge4" class="edge">
<title>frontend&#45;&gt;tailwind</title>
<path fill="none" stroke="#4caf50" stroke-width="1.5" d="M521.62,-106C573.04,-106 662,-106 662,-106 662,-106 662,-48.5 662,-48.5"/>
<polygon fill="#4caf50" stroke="#4caf50" stroke-width="1.5" points="665.5,-48.5 662,-38.5 658.5,-48.5 665.5,-48.5"/>
</g>
<!-- backend -->
<g id="node9" class="node">
<title>backend</title>
<path fill="#2196f3" stroke="black" d="M1470.12,-130.5C1470.12,-130.5 1397.88,-130.5 1397.88,-130.5 1391.88,-130.5 1385.88,-124.5 1385.88,-118.5 1385.88,-118.5 1385.88,-106 1385.88,-106 1385.88,-100 1391.88,-94 1397.88,-94 1397.88,-94 1470.12,-94 1470.12,-94 1476.12,-94 1482.12,-100 1482.12,-106 1482.12,-106 1482.12,-118.5 1482.12,-118.5 1482.12,-124.5 1476.12,-130.5 1470.12,-130.5"/>
<text xml:space="preserve" text-anchor="middle" x="1434" y="-115.1" font-family="Arial Bold" font-size="12.00" fill="white">Backend</text>
<text xml:space="preserve" text-anchor="middle" x="1434" y="-100.85" font-family="Arial Bold" font-size="12.00" fill="white">(Server Layer)</text>
</g>
<!-- frontend&#45;&gt;backend -->
<g id="edge22" class="edge">
<title>frontend&#45;&gt;backend</title>
<path fill="none" stroke="#2196f3" stroke-width="2" stroke-dasharray="5,2" d="M515.54,-93.62C515.54,-84.31 515.54,-75 515.54,-75 515.54,-75 1394.04,-75 1394.04,-75 1394.04,-75 1394.04,-80.6 1394.04,-80.6"/>
<polygon fill="#2196f3" stroke="#2196f3" stroke-width="2" points="1390.54,-80.6 1394.04,-90.6 1397.54,-80.6 1390.54,-80.6"/>
</g>
<!-- vite -->
<g id="node10" class="node">
<title>vite</title>
<path fill="#4caf50" stroke="black" d="M52,-36C52,-36 12,-36 12,-36 6,-36 0,-30 0,-24 0,-24 0,-12 0,-12 0,-6 6,0 12,0 12,0 52,0 52,0 58,0 64,-6 64,-12 64,-12 64,-24 64,-24 64,-30 58,-36 52,-36"/>
<text xml:space="preserve" text-anchor="middle" x="32" y="-20.5" font-family="Arial" font-size="10.00" fill="white">Vite</text>
<text xml:space="preserve" text-anchor="middle" x="32" y="-8.5" font-family="Arial" font-size="10.00" fill="white">(Build Tool)</text>
</g>
<!-- frontend&#45;&gt;vite -->
<g id="edge2" class="edge">
<title>frontend&#45;&gt;vite</title>
<path fill="none" stroke="#4caf50" stroke-width="1.5" d="M450.38,-121C343.35,-121 32,-121 32,-121 32,-121 32,-48.68 32,-48.68"/>
<polygon fill="#4caf50" stroke="#4caf50" stroke-width="1.5" points="35.5,-48.68 32,-38.68 28.5,-48.68 35.5,-48.68"/>
</g>
<!-- zustand -->
<g id="node11" class="node">
<title>zustand</title>
<path fill="#4caf50" stroke="black" d="M192.25,-36C192.25,-36 111.75,-36 111.75,-36 105.75,-36 99.75,-30 99.75,-24 99.75,-24 99.75,-12 99.75,-12 99.75,-6 105.75,0 111.75,0 111.75,0 192.25,0 192.25,0 198.25,0 204.25,-6 204.25,-12 204.25,-12 204.25,-24 204.25,-24 204.25,-30 198.25,-36 192.25,-36"/>
<text xml:space="preserve" text-anchor="middle" x="152" y="-20.5" font-family="Arial" font-size="10.00" fill="white">Zustand</text>
<text xml:space="preserve" text-anchor="middle" x="152" y="-8.5" font-family="Arial" font-size="10.00" fill="white">(State Management)</text>
</g>
<!-- frontend&#45;&gt;zustand -->
<g id="edge5" class="edge">
<title>frontend&#45;&gt;zustand</title>
<path fill="none" stroke="#4caf50" stroke-width="1.5" d="M450.26,-112C364.09,-112 152,-112 152,-112 152,-112 152,-48.39 152,-48.39"/>
<polygon fill="#4caf50" stroke="#4caf50" stroke-width="1.5" points="155.5,-48.39 152,-38.39 148.5,-48.39 155.5,-48.39"/>
</g>
<!-- desktop -->
<g id="node17" class="node">
<title>desktop</title>
<path fill="#2196f3" stroke="black" d="M874.25,-130.5C874.25,-130.5 793.75,-130.5 793.75,-130.5 787.75,-130.5 781.75,-124.5 781.75,-118.5 781.75,-118.5 781.75,-106 781.75,-106 781.75,-100 787.75,-94 793.75,-94 793.75,-94 874.25,-94 874.25,-94 880.25,-94 886.25,-100 886.25,-106 886.25,-106 886.25,-118.5 886.25,-118.5 886.25,-124.5 880.25,-130.5 874.25,-130.5"/>
<text xml:space="preserve" text-anchor="middle" x="834" y="-115.1" font-family="Arial Bold" font-size="12.00" fill="white">Desktop/Mobile</text>
<text xml:space="preserve" text-anchor="middle" x="834" y="-100.85" font-family="Arial Bold" font-size="12.00" fill="white">(Native Layer)</text>
</g>
<!-- frontend&#45;&gt;desktop -->
<g id="edge21" class="edge">
<title>frontend&#45;&gt;desktop</title>
<path fill="none" stroke="#2196f3" stroke-width="2" stroke-dasharray="5,2" d="M521.61,-118C521.61,-118 768.52,-118 768.52,-118"/>
<polygon fill="#2196f3" stroke="#2196f3" stroke-width="2" points="768.52,-121.5 778.52,-118 768.52,-114.5 768.52,-121.5"/>
</g>
<!-- radix -->
<g id="node18" class="node">
<title>radix</title>
<path fill="#4caf50" stroke="black" d="M333.25,-36C333.25,-36 252.75,-36 252.75,-36 246.75,-36 240.75,-30 240.75,-24 240.75,-24 240.75,-12 240.75,-12 240.75,-6 246.75,0 252.75,0 252.75,0 333.25,0 333.25,0 339.25,0 345.25,-6 345.25,-12 345.25,-12 345.25,-24 345.25,-24 345.25,-30 339.25,-36 333.25,-36"/>
<text xml:space="preserve" text-anchor="middle" x="293" y="-20.5" font-family="Arial" font-size="10.00" fill="white">Radix UI</text>
<text xml:space="preserve" text-anchor="middle" x="293" y="-8.5" font-family="Arial" font-size="10.00" fill="white">(Component Library)</text>
</g>
<!-- frontend&#45;&gt;radix -->
<g id="edge3" class="edge">
<title>frontend&#45;&gt;radix</title>
<path fill="none" stroke="#4caf50" stroke-width="1.5" d="M450.15,-103C394.34,-103 293,-103 293,-103 293,-103 293,-48.71 293,-48.71"/>
<polygon fill="#4caf50" stroke="#4caf50" stroke-width="1.5" points="296.5,-48.71 293,-38.71 289.5,-48.71 296.5,-48.71"/>
</g>
<!-- tanstack -->
<g id="node19" class="node">
<title>tanstack</title>
<path fill="#4caf50" stroke="black" d="M456.25,-36C456.25,-36 393.75,-36 393.75,-36 387.75,-36 381.75,-30 381.75,-24 381.75,-24 381.75,-12 381.75,-12 381.75,-6 387.75,0 393.75,0 393.75,0 456.25,0 456.25,0 462.25,0 468.25,-6 468.25,-12 468.25,-12 468.25,-24 468.25,-24 468.25,-30 462.25,-36 456.25,-36"/>
<text xml:space="preserve" text-anchor="middle" x="425" y="-20.5" font-family="Arial" font-size="10.00" fill="white">TanStack Query</text>
<text xml:space="preserve" text-anchor="middle" x="425" y="-8.5" font-family="Arial" font-size="10.00" fill="white">(Data Fetching)</text>
</g>
<!-- frontend&#45;&gt;tanstack -->
<g id="edge6" class="edge">
<title>frontend&#45;&gt;tanstack</title>
<path fill="none" stroke="#4caf50" stroke-width="1.5" d="M459.44,-93.63C459.44,-93.63 459.44,-48.53 459.44,-48.53"/>
<polygon fill="#4caf50" stroke="#4caf50" stroke-width="1.5" points="462.94,-48.53 459.44,-38.53 455.94,-48.53 462.94,-48.53"/>
</g>
<!-- elysia -->
<g id="node4" class="node">
<title>elysia</title>
<path fill="#ff9800" stroke="black" d="M1183,-36C1183,-36 1107,-36 1107,-36 1101,-36 1095,-30 1095,-24 1095,-24 1095,-12 1095,-12 1095,-6 1101,0 1107,0 1107,0 1183,0 1183,0 1189,0 1195,-6 1195,-12 1195,-12 1195,-24 1195,-24 1195,-30 1189,-36 1183,-36"/>
<text xml:space="preserve" text-anchor="middle" x="1145" y="-20.5" font-family="Arial" font-size="10.00" fill="white">Elysia</text>
<text xml:space="preserve" text-anchor="middle" x="1145" y="-8.5" font-family="Arial" font-size="10.00" fill="white">(HTTP Framework)</text>
</g>
<!-- better_auth -->
<g id="node5" class="node">
<title>better_auth</title>
<path fill="#ff9800" stroke="black" d="M1303.12,-36C1303.12,-36 1242.88,-36 1242.88,-36 1236.88,-36 1230.88,-30 1230.88,-24 1230.88,-24 1230.88,-12 1230.88,-12 1230.88,-6 1236.88,0 1242.88,0 1242.88,0 1303.12,0 1303.12,0 1309.12,0 1315.12,-6 1315.12,-12 1315.12,-12 1315.12,-24 1315.12,-24 1315.12,-30 1309.12,-36 1303.12,-36"/>
<text xml:space="preserve" text-anchor="middle" x="1273" y="-20.5" font-family="Arial" font-size="10.00" fill="white">Better Auth</text>
<text xml:space="preserve" text-anchor="middle" x="1273" y="-8.5" font-family="Arial" font-size="10.00" fill="white">(Authentication)</text>
</g>
<!-- tauri -->
<g id="node6" class="node">
<title>tauri</title>
<path fill="#4caf50" stroke="black" d="M798.62,-36C798.62,-36 747.38,-36 747.38,-36 741.38,-36 735.38,-30 735.38,-24 735.38,-24 735.38,-12 735.38,-12 735.38,-6 741.38,0 747.38,0 747.38,0 798.62,0 798.62,0 804.62,0 810.62,-6 810.62,-12 810.62,-12 810.62,-24 810.62,-24 810.62,-30 804.62,-36 798.62,-36"/>
<text xml:space="preserve" text-anchor="middle" x="773" y="-20.5" font-family="Arial" font-size="10.00" fill="white">Tauri v2</text>
<text xml:space="preserve" text-anchor="middle" x="773" y="-8.5" font-family="Arial" font-size="10.00" fill="white">(Native Shell)</text>
</g>
<!-- sqlite -->
<g id="node7" class="node">
<title>sqlite</title>
<path fill="#9c27b0" stroke="black" d="M2278.12,-36C2278.12,-36 2211.88,-36 2211.88,-36 2205.88,-36 2199.88,-30 2199.88,-24 2199.88,-24 2199.88,-12 2199.88,-12 2199.88,-6 2205.88,0 2211.88,0 2211.88,0 2278.12,0 2278.12,0 2284.12,0 2290.12,-6 2290.12,-12 2290.12,-12 2290.12,-24 2290.12,-24 2290.12,-30 2284.12,-36 2278.12,-36"/>
<text xml:space="preserve" text-anchor="middle" x="2245" y="-20.5" font-family="Arial" font-size="10.00" fill="white">SQLite</text>
<text xml:space="preserve" text-anchor="middle" x="2245" y="-8.5" font-family="Arial" font-size="10.00" fill="white">(Local Database)</text>
</g>
<!-- e2e -->
<g id="node8" class="node">
<title>e2e</title>
<path fill="#f44336" stroke="black" d="M1909.12,-36C1909.12,-36 1848.88,-36 1848.88,-36 1842.88,-36 1836.88,-30 1836.88,-24 1836.88,-24 1836.88,-12 1836.88,-12 1836.88,-6 1842.88,0 1848.88,0 1848.88,0 1909.12,0 1909.12,0 1915.12,0 1921.12,-6 1921.12,-12 1921.12,-12 1921.12,-24 1921.12,-24 1921.12,-30 1915.12,-36 1909.12,-36"/>
<text xml:space="preserve" text-anchor="middle" x="1879" y="-20.5" font-family="Arial" font-size="10.00" fill="white">Post&#45;Quantum</text>
<text xml:space="preserve" text-anchor="middle" x="1879" y="-8.5" font-family="Arial" font-size="10.00" fill="white">E2E Encryption</text>
</g>
<!-- backend&#45;&gt;elysia -->
<g id="edge7" class="edge">
<title>backend&#45;&gt;elysia</title>
<path fill="none" stroke="#ff9800" stroke-width="1.5" d="M1385.63,-121C1303.36,-121 1145,-121 1145,-121 1145,-121 1145,-48.68 1145,-48.68"/>
<polygon fill="#ff9800" stroke="#ff9800" stroke-width="1.5" points="1148.5,-48.68 1145,-38.68 1141.5,-48.68 1148.5,-48.68"/>
</g>
<!-- backend&#45;&gt;better_auth -->
<g id="edge10" class="edge">
<title>backend&#45;&gt;better_auth</title>
<path fill="none" stroke="#ff9800" stroke-width="1.5" d="M1385.69,-103C1338.27,-103 1273,-103 1273,-103 1273,-103 1273,-48.71 1273,-48.71"/>
<polygon fill="#ff9800" stroke="#ff9800" stroke-width="1.5" points="1276.5,-48.71 1273,-38.71 1269.5,-48.71 1276.5,-48.71"/>
</g>
<!-- bun -->
<g id="node12" class="node">
<title>bun</title>
<path fill="#ff9800" stroke="black" d="M1398.38,-36C1398.38,-36 1363.62,-36 1363.62,-36 1357.62,-36 1351.62,-30 1351.62,-24 1351.62,-24 1351.62,-12 1351.62,-12 1351.62,-6 1357.62,0 1363.62,0 1363.62,0 1398.38,0 1398.38,0 1404.38,0 1410.38,-6 1410.38,-12 1410.38,-12 1410.38,-24 1410.38,-24 1410.38,-30 1404.38,-36 1398.38,-36"/>
<text xml:space="preserve" text-anchor="middle" x="1381" y="-20.5" font-family="Arial" font-size="10.00" fill="white">Bun</text>
<text xml:space="preserve" text-anchor="middle" x="1381" y="-8.5" font-family="Arial" font-size="10.00" fill="white">(Runtime)</text>
</g>
<!-- backend&#45;&gt;bun -->
<g id="edge8" class="edge">
<title>backend&#45;&gt;bun</title>
<path fill="none" stroke="#ff9800" stroke-width="1.5" d="M1402.21,-93.63C1402.21,-93.63 1402.21,-48.53 1402.21,-48.53"/>
<polygon fill="#ff9800" stroke="#ff9800" stroke-width="1.5" points="1405.71,-48.53 1402.21,-38.53 1398.71,-48.53 1405.71,-48.53"/>
</g>
<!-- ai_sdk -->
<g id="node13" class="node">
<title>ai_sdk</title>
<path fill="#ff9800" stroke="black" d="M1515.25,-36C1515.25,-36 1458.75,-36 1458.75,-36 1452.75,-36 1446.75,-30 1446.75,-24 1446.75,-24 1446.75,-12 1446.75,-12 1446.75,-6 1452.75,0 1458.75,0 1458.75,0 1515.25,0 1515.25,0 1521.25,0 1527.25,-6 1527.25,-12 1527.25,-12 1527.25,-24 1527.25,-24 1527.25,-30 1521.25,-36 1515.25,-36"/>
<text xml:space="preserve" text-anchor="middle" x="1487" y="-20.5" font-family="Arial" font-size="10.00" fill="white">Vercel AI SDK</text>
<text xml:space="preserve" text-anchor="middle" x="1487" y="-8.5" font-family="Arial" font-size="10.00" fill="white">(AI Integration)</text>
</g>
<!-- backend&#45;&gt;ai_sdk -->
<g id="edge11" class="edge">
<title>backend&#45;&gt;ai_sdk</title>
<path fill="none" stroke="#ff9800" stroke-width="1.5" d="M1458.54,-93.63C1458.54,-93.63 1458.54,-48.53 1458.54,-48.53"/>
<polygon fill="#ff9800" stroke="#ff9800" stroke-width="1.5" points="1462.04,-48.53 1458.54,-38.53 1455.04,-48.53 1462.04,-48.53"/>
</g>
<!-- drizzle -->
<g id="node20" class="node">
<title>drizzle</title>
<path fill="#ff9800" stroke="black" d="M1641.12,-36C1641.12,-36 1574.88,-36 1574.88,-36 1568.88,-36 1562.88,-30 1562.88,-24 1562.88,-24 1562.88,-12 1562.88,-12 1562.88,-6 1568.88,0 1574.88,0 1574.88,0 1641.12,0 1641.12,0 1647.12,0 1653.12,-6 1653.12,-12 1653.12,-12 1653.12,-24 1653.12,-24 1653.12,-30 1647.12,-36 1641.12,-36"/>
<text xml:space="preserve" text-anchor="middle" x="1608" y="-20.5" font-family="Arial" font-size="10.00" fill="white">Drizzle ORM</text>
<text xml:space="preserve" text-anchor="middle" x="1608" y="-8.5" font-family="Arial" font-size="10.00" fill="white">(Database ORM)</text>
</g>
<!-- backend&#45;&gt;drizzle -->
<g id="edge9" class="edge">
<title>backend&#45;&gt;drizzle</title>
<path fill="none" stroke="#ff9800" stroke-width="1.5" d="M1482.47,-106C1533.95,-106 1608,-106 1608,-106 1608,-106 1608,-48.5 1608,-48.5"/>
<polygon fill="#ff9800" stroke="#ff9800" stroke-width="1.5" points="1611.5,-48.5 1608,-38.5 1604.5,-48.5 1611.5,-48.5"/>
</g>
<!-- data -->
<g id="node24" class="node">
<title>data</title>
<path fill="#2196f3" stroke="black" d="M2224.88,-130.5C2224.88,-130.5 2145.12,-130.5 2145.12,-130.5 2139.12,-130.5 2133.12,-124.5 2133.12,-118.5 2133.12,-118.5 2133.12,-106 2133.12,-106 2133.12,-100 2139.12,-94 2145.12,-94 2145.12,-94 2224.88,-94 2224.88,-94 2230.88,-94 2236.88,-100 2236.88,-106 2236.88,-106 2236.88,-118.5 2236.88,-118.5 2236.88,-124.5 2230.88,-130.5 2224.88,-130.5"/>
<text xml:space="preserve" text-anchor="middle" x="2185" y="-115.1" font-family="Arial Bold" font-size="12.00" fill="white">Data &amp; Sync</text>
<text xml:space="preserve" text-anchor="middle" x="2185" y="-100.85" font-family="Arial Bold" font-size="12.00" fill="white">(Storage Layer)</text>
</g>
<!-- backend&#45;&gt;data -->
<g id="edge23" class="edge">
<title>backend&#45;&gt;data</title>
<path fill="none" stroke="#9c27b0" stroke-width="2" stroke-dasharray="5,2" d="M1470.33,-93.5C1470.33,-76.81 1470.33,-55 1470.33,-55 1470.33,-55 2143.33,-55 2143.33,-55 2143.33,-55 2143.33,-80.48 2143.33,-80.48"/>
<polygon fill="#9c27b0" stroke="#9c27b0" stroke-width="2" points="2139.83,-80.48 2143.33,-90.48 2146.83,-80.48 2139.83,-80.48"/>
</g>
<!-- security -->
<g id="node25" class="node">
<title>security</title>
<path fill="#2196f3" stroke="black" d="M1853,-130.5C1853,-130.5 1771,-130.5 1771,-130.5 1765,-130.5 1759,-124.5 1759,-118.5 1759,-118.5 1759,-106 1759,-106 1759,-100 1765,-94 1771,-94 1771,-94 1853,-94 1853,-94 1859,-94 1865,-100 1865,-106 1865,-106 1865,-118.5 1865,-118.5 1865,-124.5 1859,-130.5 1853,-130.5"/>
<text xml:space="preserve" text-anchor="middle" x="1812" y="-115.1" font-family="Arial Bold" font-size="12.00" fill="white">Security &amp; Auth</text>
<text xml:space="preserve" text-anchor="middle" x="1812" y="-100.85" font-family="Arial Bold" font-size="12.00" fill="white">(Trust Layer)</text>
</g>
<!-- backend&#45;&gt;security -->
<g id="edge24" class="edge">
<title>backend&#45;&gt;security</title>
<path fill="none" stroke="#f44336" stroke-width="2" stroke-dasharray="5,2" d="M1482.26,-118C1482.26,-118 1745.53,-118 1745.53,-118"/>
<polygon fill="#f44336" stroke="#f44336" stroke-width="2" points="1745.53,-121.5 1755.53,-118 1745.53,-114.5 1745.53,-121.5"/>
</g>
<!-- rust -->
<g id="node14" class="node">
<title>rust</title>
<path fill="#4caf50" stroke="black" d="M931.5,-36C931.5,-36 858.5,-36 858.5,-36 852.5,-36 846.5,-30 846.5,-24 846.5,-24 846.5,-12 846.5,-12 846.5,-6 852.5,0 858.5,0 858.5,0 931.5,0 931.5,0 937.5,0 943.5,-6 943.5,-12 943.5,-12 943.5,-24 943.5,-24 943.5,-30 937.5,-36 931.5,-36"/>
<text xml:space="preserve" text-anchor="middle" x="895" y="-20.5" font-family="Arial" font-size="10.00" fill="white">Rust</text>
<text xml:space="preserve" text-anchor="middle" x="895" y="-8.5" font-family="Arial" font-size="10.00" fill="white">(System Backend)</text>
</g>
<!-- postgres -->
<g id="node15" class="node">
<title>postgres</title>
<path fill="#9c27b0" stroke="black" d="M2409.75,-36C2409.75,-36 2338.25,-36 2338.25,-36 2332.25,-36 2326.25,-30 2326.25,-24 2326.25,-24 2326.25,-12 2326.25,-12 2326.25,-6 2332.25,0 2338.25,0 2338.25,0 2409.75,0 2409.75,0 2415.75,0 2421.75,-6 2421.75,-12 2421.75,-12 2421.75,-24 2421.75,-24 2421.75,-30 2415.75,-36 2409.75,-36"/>
<text xml:space="preserve" text-anchor="middle" x="2374" y="-20.5" font-family="Arial" font-size="10.00" fill="white">PostgreSQL</text>
<text xml:space="preserve" text-anchor="middle" x="2374" y="-8.5" font-family="Arial" font-size="10.00" fill="white">(Server Database)</text>
</g>
<!-- oidc -->
<g id="node16" class="node">
<title>oidc</title>
<path fill="#f44336" stroke="black" d="M2038.62,-36C2038.62,-36 1969.38,-36 1969.38,-36 1963.38,-36 1957.38,-30 1957.38,-24 1957.38,-24 1957.38,-12 1957.38,-12 1957.38,-6 1963.38,0 1969.38,0 1969.38,0 2038.62,0 2038.62,0 2044.62,0 2050.62,-6 2050.62,-12 2050.62,-12 2050.62,-24 2050.62,-24 2050.62,-30 2044.62,-36 2038.62,-36"/>
<text xml:space="preserve" text-anchor="middle" x="2004" y="-20.5" font-family="Arial" font-size="10.00" fill="white">OIDC</text>
<text xml:space="preserve" text-anchor="middle" x="2004" y="-8.5" font-family="Arial" font-size="10.00" fill="white">(Identity Provider)</text>
</g>
<!-- desktop&#45;&gt;tauri -->
<g id="edge12" class="edge">
<title>desktop&#45;&gt;tauri</title>
<path fill="none" stroke="#4caf50" stroke-width="1.5" d="M796.19,-93.63C796.19,-93.63 796.19,-48.53 796.19,-48.53"/>
<polygon fill="#4caf50" stroke="#4caf50" stroke-width="1.5" points="799.69,-48.53 796.19,-38.53 792.69,-48.53 799.69,-48.53"/>
</g>
<!-- desktop&#45;&gt;rust -->
<g id="edge13" class="edge">
<title>desktop&#45;&gt;rust</title>
<path fill="none" stroke="#4caf50" stroke-width="1.5" d="M866.38,-93.63C866.38,-93.63 866.38,-48.53 866.38,-48.53"/>
<polygon fill="#4caf50" stroke="#4caf50" stroke-width="1.5" points="869.88,-48.53 866.38,-38.53 862.88,-48.53 869.88,-48.53"/>
</g>
<!-- mcp -->
<g id="node21" class="node">
<title>mcp</title>
<path fill="#4caf50" stroke="black" d="M1046.5,-36C1046.5,-36 991.5,-36 991.5,-36 985.5,-36 979.5,-30 979.5,-24 979.5,-24 979.5,-12 979.5,-12 979.5,-6 985.5,0 991.5,0 991.5,0 1046.5,0 1046.5,0 1052.5,0 1058.5,-6 1058.5,-12 1058.5,-12 1058.5,-24 1058.5,-24 1058.5,-30 1052.5,-36 1046.5,-36"/>
<text xml:space="preserve" text-anchor="middle" x="1019" y="-20.5" font-family="Arial" font-size="10.00" fill="white">MCP Client</text>
<text xml:space="preserve" text-anchor="middle" x="1019" y="-8.5" font-family="Arial" font-size="10.00" fill="white">(Tool Protocol)</text>
</g>
<!-- desktop&#45;&gt;mcp -->
<g id="edge14" class="edge">
<title>desktop&#45;&gt;mcp</title>
<path fill="none" stroke="#4caf50" stroke-width="1.5" d="M886.52,-112C941.21,-112 1019,-112 1019,-112 1019,-112 1019,-48.39 1019,-48.39"/>
<polygon fill="#4caf50" stroke="#4caf50" stroke-width="1.5" points="1022.5,-48.39 1019,-38.39 1015.5,-48.39 1022.5,-48.39"/>
</g>
<!-- powersync -->
<g id="node22" class="node">
<title>powersync</title>
<path fill="#9c27b0" stroke="black" d="M2151.75,-36C2151.75,-36 2098.25,-36 2098.25,-36 2092.25,-36 2086.25,-30 2086.25,-24 2086.25,-24 2086.25,-12 2086.25,-12 2086.25,-6 2092.25,0 2098.25,0 2098.25,0 2151.75,0 2151.75,0 2157.75,0 2163.75,-6 2163.75,-12 2163.75,-12 2163.75,-24 2163.75,-24 2163.75,-30 2157.75,-36 2151.75,-36"/>
<text xml:space="preserve" text-anchor="middle" x="2125" y="-20.5" font-family="Arial" font-size="10.00" fill="white">PowerSync</text>
<text xml:space="preserve" text-anchor="middle" x="2125" y="-8.5" font-family="Arial" font-size="10.00" fill="white">(Sync Engine)</text>
</g>
<!-- otp -->
<g id="node23" class="node">
<title>otp</title>
<path fill="#f44336" stroke="black" d="M1788.62,-36C1788.62,-36 1701.38,-36 1701.38,-36 1695.38,-36 1689.38,-30 1689.38,-24 1689.38,-24 1689.38,-12 1689.38,-12 1689.38,-6 1695.38,0 1701.38,0 1701.38,0 1788.62,0 1788.62,0 1794.62,0 1800.62,-6 1800.62,-12 1800.62,-12 1800.62,-24 1800.62,-24 1800.62,-30 1794.62,-36 1788.62,-36"/>
<text xml:space="preserve" text-anchor="middle" x="1745" y="-20.5" font-family="Arial" font-size="10.00" fill="white">OTP</text>
<text xml:space="preserve" text-anchor="middle" x="1745" y="-8.5" font-family="Arial" font-size="10.00" fill="white">(One&#45;Time Password)</text>
</g>
<!-- data&#45;&gt;sqlite -->
<g id="edge15" class="edge">
<title>data&#45;&gt;sqlite</title>
<path fill="none" stroke="#9c27b0" stroke-width="1.5" d="M2218.38,-93.63C2218.38,-93.63 2218.38,-48.53 2218.38,-48.53"/>
<polygon fill="#9c27b0" stroke="#9c27b0" stroke-width="1.5" points="2221.88,-48.53 2218.38,-38.53 2214.88,-48.53 2221.88,-48.53"/>
</g>
<!-- data&#45;&gt;postgres -->
<g id="edge16" class="edge">
<title>data&#45;&gt;postgres</title>
<path fill="none" stroke="#9c27b0" stroke-width="1.5" d="M2237.15,-112C2293.09,-112 2374,-112 2374,-112 2374,-112 2374,-48.39 2374,-48.39"/>
<polygon fill="#9c27b0" stroke="#9c27b0" stroke-width="1.5" points="2377.5,-48.39 2374,-38.39 2370.5,-48.39 2377.5,-48.39"/>
</g>
<!-- data&#45;&gt;powersync -->
<g id="edge17" class="edge">
<title>data&#45;&gt;powersync</title>
<path fill="none" stroke="#9c27b0" stroke-width="1.5" d="M2153.54,-93.63C2153.54,-93.63 2153.54,-48.53 2153.54,-48.53"/>
<polygon fill="#9c27b0" stroke="#9c27b0" stroke-width="1.5" points="2157.04,-48.53 2153.54,-38.53 2150.04,-48.53 2157.04,-48.53"/>
</g>
<!-- security&#45;&gt;e2e -->
<g id="edge18" class="edge">
<title>security&#45;&gt;e2e</title>
<path fill="none" stroke="#f44336" stroke-width="1.5" d="M1850.94,-93.63C1850.94,-93.63 1850.94,-48.53 1850.94,-48.53"/>
<polygon fill="#f44336" stroke="#f44336" stroke-width="1.5" points="1854.44,-48.53 1850.94,-38.53 1847.44,-48.53 1854.44,-48.53"/>
</g>
<!-- security&#45;&gt;oidc -->
<g id="edge19" class="edge">
<title>security&#45;&gt;oidc</title>
<path fill="none" stroke="#f44336" stroke-width="1.5" d="M1865.48,-112C1922.29,-112 2004,-112 2004,-112 2004,-112 2004,-48.39 2004,-48.39"/>
<polygon fill="#f44336" stroke="#f44336" stroke-width="1.5" points="2007.5,-48.39 2004,-38.39 2000.5,-48.39 2007.5,-48.39"/>
</g>
<!-- security&#45;&gt;otp -->
<g id="edge20" class="edge">
<title>security&#45;&gt;otp</title>
<path fill="none" stroke="#f44336" stroke-width="1.5" d="M1779.81,-93.63C1779.81,-93.63 1779.81,-48.53 1779.81,-48.53"/>
<polygon fill="#f44336" stroke="#f44336" stroke-width="1.5" points="1783.31,-48.53 1779.81,-38.53 1776.31,-48.53 1783.31,-48.53"/>
</g>
</g>
</svg>
