<?xml version="1.0" encoding="UTF-8" standalone="no"?>
<!DOCTYPE svg PUBLIC "-//W3C//DTD SVG 1.1//EN"
 "http://www.w3.org/Graphics/SVG/1.1/DTD/svg11.dtd">
<!-- Generated by graphviz version 14.1.2 (0)
 -->
<!-- Title: lmcache_feat Pages: 1 -->
<svg width="3036pt" height="163pt"
 viewBox="0.00 0.00 3036.00 163.00" xmlns="http://www.w3.org/2000/svg" xmlns:xlink="http://www.w3.org/1999/xlink">
<style>
<!-- White text halo for edge label readability -->
text { paint-order: stroke; stroke: #ffffff; stroke-width: 3px; stroke-linejoin: round; fill: #1a1a2e; }
</style>
<g id="graph0" class="graph" transform="scale(1 1) rotate(0) translate(4 158.5)">
<title>lmcache_feat</title>
<polygon fill="white" stroke="none" points="-4,4 -4,-158.5 3032.25,-158.5 3032.25,4 -4,4"/>
<text xml:space="preserve" text-anchor="middle" x="1514.12" y="-7.2" font-family="Times New Roman,serif" font-size="14.00">LMCache &#45; 7 Key Features and Source Components</text>
<!-- f1 -->
<g id="node1" class="node">
<title>f1</title>
<path fill="#1565c0" stroke="black" d="M218.62,-154.5C218.62,-154.5 35.38,-154.5 35.38,-154.5 29.38,-154.5 23.37,-148.5 23.37,-142.5 23.37,-142.5 23.37,-130.5 23.37,-130.5 23.37,-124.5 29.37,-118.5 35.37,-118.5 35.37,-118.5 218.62,-118.5 218.62,-118.5 224.62,-118.5 230.62,-124.5 230.62,-130.5 230.62,-130.5 230.62,-142.5 230.62,-142.5 230.62,-148.5 224.62,-154.5 218.62,-154.5"/>
<text xml:space="preserve" text-anchor="middle" x="127" y="-139.55" font-family="Arial Bold" font-size="11.00" fill="white">1. Engine&#45;Independent Deployment</text>
<text xml:space="preserve" text-anchor="middle" x="127" y="-126.05" font-family="Arial Bold" font-size="11.00" fill="white">standalone/ daemon, no fate&#45;sharing</text>
</g>
<!-- f1c1 -->
<g id="node8" class="node">
<title>f1c1</title>
<path fill="#90a4ae" stroke="black" d="M52,-60.5C52,-60.5 12,-60.5 12,-60.5 6,-60.5 0,-54.5 0,-48.5 0,-48.5 0,-36.5 0,-36.5 0,-30.5 6,-24.5 12,-24.5 12,-24.5 52,-24.5 52,-24.5 58,-24.5 64,-30.5 64,-36.5 64,-36.5 64,-48.5 64,-48.5 64,-54.5 58,-60.5 52,-60.5"/>
<text xml:space="preserve" text-anchor="middle" x="32" y="-39.2" font-family="Arial" font-size="9.00" fill="#1a1a2e">standalone/</text>
</g>
<!-- f1&#45;&gt;f1c1 -->
<g id="edge1" class="edge">
<title>f1&#45;&gt;f1c1</title>
<path fill="none" stroke="#90a4ae" stroke-width="1.5" d="M43.69,-118.38C43.69,-118.38 43.69,-73.16 43.69,-73.16"/>
<polygon fill="#90a4ae" stroke="#90a4ae" stroke-width="1.5" points="47.19,-73.16 43.69,-63.16 40.19,-73.16 47.19,-73.16"/>
</g>
<!-- f1c2 -->
<g id="node9" class="node">
<title>f1c2</title>
<path fill="#90a4ae" stroke="black" d="M142,-60.5C142,-60.5 112,-60.5 112,-60.5 106,-60.5 100,-54.5 100,-48.5 100,-48.5 100,-36.5 100,-36.5 100,-30.5 106,-24.5 112,-24.5 112,-24.5 142,-24.5 142,-24.5 148,-24.5 154,-30.5 154,-36.5 154,-36.5 154,-48.5 154,-48.5 154,-54.5 148,-60.5 142,-60.5"/>
<text xml:space="preserve" text-anchor="middle" x="127" y="-39.2" font-family="Arial" font-size="9.00" fill="#1a1a2e">server/</text>
</g>
<!-- f1&#45;&gt;f1c2 -->
<g id="edge2" class="edge">
<title>f1&#45;&gt;f1c2</title>
<path fill="none" stroke="#90a4ae" stroke-width="1.5" d="M127,-118.38C127,-118.38 127,-73.16 127,-73.16"/>
<polygon fill="#90a4ae" stroke="#90a4ae" stroke-width="1.5" points="130.5,-73.16 127,-63.16 123.5,-73.16 130.5,-73.16"/>
</g>
<!-- f1c3 -->
<g id="node10" class="node">
<title>f1c3</title>
<path fill="#90a4ae" stroke="black" d="M262.12,-60.5C262.12,-60.5 201.88,-60.5 201.88,-60.5 195.88,-60.5 189.88,-54.5 189.88,-48.5 189.88,-48.5 189.88,-36.5 189.88,-36.5 189.88,-30.5 195.88,-24.5 201.88,-24.5 201.88,-24.5 262.12,-24.5 262.12,-24.5 268.12,-24.5 274.12,-30.5 274.12,-36.5 274.12,-36.5 274.12,-48.5 274.12,-48.5 274.12,-54.5 268.12,-60.5 262.12,-60.5"/>
<text xml:space="preserve" text-anchor="middle" x="232" y="-39.2" font-family="Arial" font-size="9.00" fill="#1a1a2e">daemon process</text>
</g>
<!-- f1&#45;&gt;f1c3 -->
<g id="edge3" class="edge">
<title>f1&#45;&gt;f1c3</title>
<path fill="none" stroke="#90a4ae" stroke-width="1.5" d="M210.25,-118.38C210.25,-118.38 210.25,-73.16 210.25,-73.16"/>
<polygon fill="#90a4ae" stroke="#90a4ae" stroke-width="1.5" points="213.75,-73.16 210.25,-63.16 206.75,-73.16 213.75,-73.16"/>
</g>
<!-- f2 -->
<g id="node2" class="node">
<title>f2</title>
<path fill="#e65100" stroke="black" d="M646.75,-154.5C646.75,-154.5 497.25,-154.5 497.25,-154.5 491.25,-154.5 485.25,-148.5 485.25,-142.5 485.25,-142.5 485.25,-130.5 485.25,-130.5 485.25,-124.5 491.25,-118.5 497.25,-118.5 497.25,-118.5 646.75,-118.5 646.75,-118.5 652.75,-118.5 658.75,-124.5 658.75,-130.5 658.75,-130.5 658.75,-142.5 658.75,-142.5 658.75,-148.5 652.75,-154.5 646.75,-154.5"/>
<text xml:space="preserve" text-anchor="middle" x="572" y="-139.55" font-family="Arial Bold" font-size="11.00" fill="white">2. Tiered KV Cache Offloading</text>
<text xml:space="preserve" text-anchor="middle" x="572" y="-126.05" font-family="Arial Bold" font-size="11.00" fill="white">L1/L2 storage backends</text>
</g>
<!-- f2c1 -->
<g id="node11" class="node">
<title>f2c1</title>
<path fill="#90a4ae" stroke="black" d="M398,-60.5C398,-60.5 322,-60.5 322,-60.5 316,-60.5 310,-54.5 310,-48.5 310,-48.5 310,-36.5 310,-36.5 310,-30.5 316,-24.5 322,-24.5 322,-24.5 398,-24.5 398,-24.5 404,-24.5 410,-30.5 410,-36.5 410,-36.5 410,-48.5 410,-48.5 410,-54.5 404,-60.5 398,-60.5"/>
<text xml:space="preserve" text-anchor="middle" x="360" y="-39.2" font-family="Arial" font-size="9.00" fill="#1a1a2e">storage_manager.py</text>
</g>
<!-- f2&#45;&gt;f2c1 -->
<g id="edge4" class="edge">
<title>f2&#45;&gt;f2c1</title>
<path fill="none" stroke="#90a4ae" stroke-width="1.5" d="M484.85,-136.5C426.38,-136.5 360,-136.5 360,-136.5 360,-136.5 360,-72.89 360,-72.89"/>
<polygon fill="#90a4ae" stroke="#90a4ae" stroke-width="1.5" points="363.5,-72.89 360,-62.89 356.5,-72.89 363.5,-72.89"/>
</g>
<!-- f2c2 -->
<g id="node12" class="node">
<title>f2c2</title>
<path fill="#90a4ae" stroke="black" d="M542.12,-60.5C542.12,-60.5 457.88,-60.5 457.88,-60.5 451.88,-60.5 445.88,-54.5 445.88,-48.5 445.88,-48.5 445.88,-36.5 445.88,-36.5 445.88,-30.5 451.88,-24.5 457.88,-24.5 457.88,-24.5 542.12,-24.5 542.12,-24.5 548.12,-24.5 554.12,-30.5 554.12,-36.5 554.12,-36.5 554.12,-48.5 554.12,-48.5 554.12,-54.5 548.12,-60.5 542.12,-60.5"/>
<text xml:space="preserve" text-anchor="middle" x="500" y="-39.2" font-family="Arial" font-size="9.00" fill="#1a1a2e">local_cpu_backend.py</text>
</g>
<!-- f2&#45;&gt;f2c2 -->
<g id="edge5" class="edge">
<title>f2&#45;&gt;f2c2</title>
<path fill="none" stroke="#90a4ae" stroke-width="1.5" d="M519.69,-118.38C519.69,-118.38 519.69,-73.16 519.69,-73.16"/>
<polygon fill="#90a4ae" stroke="#90a4ae" stroke-width="1.5" points="523.19,-73.16 519.69,-63.16 516.19,-73.16 523.19,-73.16"/>
</g>
<!-- f2c3 -->
<g id="node13" class="node">
<title>f2c3</title>
<path fill="#90a4ae" stroke="black" d="M687.88,-60.5C687.88,-60.5 602.12,-60.5 602.12,-60.5 596.12,-60.5 590.12,-54.5 590.12,-48.5 590.12,-48.5 590.12,-36.5 590.12,-36.5 590.12,-30.5 596.12,-24.5 602.12,-24.5 602.12,-24.5 687.88,-24.5 687.88,-24.5 693.88,-24.5 699.88,-30.5 699.88,-36.5 699.88,-36.5 699.88,-48.5 699.88,-48.5 699.88,-54.5 693.88,-60.5 687.88,-60.5"/>
<text xml:space="preserve" text-anchor="middle" x="645" y="-39.2" font-family="Arial" font-size="9.00" fill="#1a1a2e">local_disk_backend.py</text>
</g>
<!-- f2&#45;&gt;f2c3 -->
<g id="edge6" class="edge">
<title>f2&#45;&gt;f2c3</title>
<path fill="none" stroke="#90a4ae" stroke-width="1.5" d="M624.44,-118.38C624.44,-118.38 624.44,-73.16 624.44,-73.16"/>
<polygon fill="#90a4ae" stroke="#90a4ae" stroke-width="1.5" points="627.94,-73.16 624.44,-63.16 620.94,-73.16 627.94,-73.16"/>
</g>
<!-- f2c4 -->
<g id="node14" class="node">
<title>f2c4</title>
<path fill="#90a4ae" stroke="black" d="M807.75,-60.5C807.75,-60.5 748.25,-60.5 748.25,-60.5 742.25,-60.5 736.25,-54.5 736.25,-48.5 736.25,-48.5 736.25,-36.5 736.25,-36.5 736.25,-30.5 742.25,-24.5 748.25,-24.5 748.25,-24.5 807.75,-24.5 807.75,-24.5 813.75,-24.5 819.75,-30.5 819.75,-36.5 819.75,-36.5 819.75,-48.5 819.75,-48.5 819.75,-54.5 813.75,-60.5 807.75,-60.5"/>
<text xml:space="preserve" text-anchor="middle" x="778" y="-39.2" font-family="Arial" font-size="9.00" fill="#1a1a2e">gds_backend.py</text>
</g>
<!-- f2&#45;&gt;f2c4 -->
<g id="edge7" class="edge">
<title>f2&#45;&gt;f2c4</title>
<path fill="none" stroke="#90a4ae" stroke-width="1.5" d="M659.06,-136.5C715.29,-136.5 778,-136.5 778,-136.5 778,-136.5 778,-72.89 778,-72.89"/>
<polygon fill="#90a4ae" stroke="#90a4ae" stroke-width="1.5" points="781.5,-72.89 778,-62.89 774.5,-72.89 781.5,-72.89"/>
</g>
<!-- f3 -->
<g id="node3" class="node">
<title>f3</title>
<path fill="#00838f" stroke="black" d="M1100.88,-154.5C1100.88,-154.5 931.12,-154.5 931.12,-154.5 925.12,-154.5 919.12,-148.5 919.12,-142.5 919.12,-142.5 919.12,-130.5 919.12,-130.5 919.12,-124.5 925.12,-118.5 931.12,-118.5 931.12,-118.5 1100.88,-118.5 1100.88,-118.5 1106.88,-118.5 1112.88,-124.5 1112.88,-130.5 1112.88,-130.5 1112.88,-142.5 1112.88,-142.5 1112.88,-148.5 1106.88,-154.5 1100.88,-154.5"/>
<text xml:space="preserve" text-anchor="middle" x="1016" y="-139.55" font-family="Arial Bold" font-size="11.00" fill="white">3. KV Cache Observability</text>
<text xml:space="preserve" text-anchor="middle" x="1016" y="-126.05" font-family="Arial Bold" font-size="11.00" fill="white">observability module, K8s metrics</text>
</g>
<!-- f3c1 -->
<g id="node15" class="node">
<title>f3c1</title>
<path fill="#90a4ae" stroke="black" d="M923.88,-60.5C923.88,-60.5 868.12,-60.5 868.12,-60.5 862.12,-60.5 856.12,-54.5 856.12,-48.5 856.12,-48.5 856.12,-36.5 856.12,-36.5 856.12,-30.5 862.12,-24.5 868.12,-24.5 868.12,-24.5 923.88,-24.5 923.88,-24.5 929.88,-24.5 935.88,-30.5 935.88,-36.5 935.88,-36.5 935.88,-48.5 935.88,-48.5 935.88,-54.5 929.88,-60.5 923.88,-60.5"/>
<text xml:space="preserve" text-anchor="middle" x="896" y="-39.2" font-family="Arial" font-size="9.00" fill="#1a1a2e">health_monitor/</text>
</g>
<!-- f3&#45;&gt;f3c1 -->
<g id="edge8" class="edge">
<title>f3&#45;&gt;f3c1</title>
<path fill="none" stroke="#90a4ae" stroke-width="1.5" d="M927.5,-118.38C927.5,-118.38 927.5,-73.16 927.5,-73.16"/>
<polygon fill="#90a4ae" stroke="#90a4ae" stroke-width="1.5" points="931,-73.16 927.5,-63.16 924,-73.16 931,-73.16"/>
</g>
<!-- f3c2 -->
<g id="node16" class="node">
<title>f3c2</title>
<path fill="#90a4ae" stroke="black" d="M1048,-60.5C1048,-60.5 984,-60.5 984,-60.5 978,-60.5 972,-54.5 972,-48.5 972,-48.5 972,-36.5 972,-36.5 972,-30.5 978,-24.5 984,-24.5 984,-24.5 1048,-24.5 1048,-24.5 1054,-24.5 1060,-30.5 1060,-36.5 1060,-36.5 1060,-48.5 1060,-48.5 1060,-54.5 1054,-60.5 1048,-60.5"/>
<text xml:space="preserve" text-anchor="middle" x="1016" y="-39.2" font-family="Arial" font-size="9.00" fill="#1a1a2e">mp_observability/</text>
</g>
<!-- f3&#45;&gt;f3c2 -->
<g id="edge9" class="edge">
<title>f3&#45;&gt;f3c2</title>
<path fill="none" stroke="#90a4ae" stroke-width="1.5" d="M1016,-118.38C1016,-118.38 1016,-73.16 1016,-73.16"/>
<polygon fill="#90a4ae" stroke="#90a4ae" stroke-width="1.5" points="1019.5,-73.16 1016,-63.16 1012.5,-73.16 1019.5,-73.16"/>
</g>
<!-- f3c3 -->
<g id="node17" class="node">
<title>f3c3</title>
<path fill="#90a4ae" stroke="black" d="M1178.38,-60.5C1178.38,-60.5 1107.62,-60.5 1107.62,-60.5 1101.62,-60.5 1095.62,-54.5 1095.62,-48.5 1095.62,-48.5 1095.62,-36.5 1095.62,-36.5 1095.62,-30.5 1101.62,-24.5 1107.62,-24.5 1107.62,-24.5 1178.38,-24.5 1178.38,-24.5 1184.38,-24.5 1190.38,-30.5 1190.38,-36.5 1190.38,-36.5 1190.38,-48.5 1190.38,-48.5 1190.38,-54.5 1184.38,-60.5 1178.38,-60.5"/>
<text xml:space="preserve" text-anchor="middle" x="1143" y="-39.2" font-family="Arial" font-size="9.00" fill="#1a1a2e">Kubernetes metrics</text>
</g>
<!-- f3&#45;&gt;f3c3 -->
<g id="edge10" class="edge">
<title>f3&#45;&gt;f3c3</title>
<path fill="none" stroke="#90a4ae" stroke-width="1.5" d="M1104.25,-118.38C1104.25,-118.38 1104.25,-73.16 1104.25,-73.16"/>
<polygon fill="#90a4ae" stroke="#90a4ae" stroke-width="1.5" points="1107.75,-73.16 1104.25,-63.16 1100.75,-73.16 1107.75,-73.16"/>
</g>
<!-- f4 -->
<g id="node4" class="node">
<title>f4</title>
<path fill="#6a1b9a" stroke="black" d="M1607.38,-154.5C1607.38,-154.5 1476.62,-154.5 1476.62,-154.5 1470.62,-154.5 1464.62,-148.5 1464.62,-142.5 1464.62,-142.5 1464.62,-130.5 1464.62,-130.5 1464.62,-124.5 1470.62,-118.5 1476.62,-118.5 1476.62,-118.5 1607.38,-118.5 1607.38,-118.5 1613.38,-118.5 1619.38,-124.5 1619.38,-130.5 1619.38,-130.5 1619.38,-142.5 1619.38,-142.5 1619.38,-148.5 1613.38,-154.5 1607.38,-154.5"/>
<text xml:space="preserve" text-anchor="middle" x="1542" y="-139.55" font-family="Arial Bold" font-size="11.00" fill="white">4. Pluggable Backends</text>
<text xml:space="preserve" text-anchor="middle" x="1542" y="-126.05" font-family="Arial Bold" font-size="11.00" fill="white">storage_backend adapters</text>
</g>
<!-- f4c1 -->
<g id="node18" class="node">
<title>f4c1</title>
<path fill="#90a4ae" stroke="black" d="M1307.62,-60.5C1307.62,-60.5 1238.38,-60.5 1238.38,-60.5 1232.38,-60.5 1226.38,-54.5 1226.38,-48.5 1226.38,-48.5 1226.38,-36.5 1226.38,-36.5 1226.38,-30.5 1232.38,-24.5 1238.38,-24.5 1238.38,-24.5 1307.62,-24.5 1307.62,-24.5 1313.62,-24.5 1319.62,-30.5 1319.62,-36.5 1319.62,-36.5 1319.62,-48.5 1319.62,-48.5 1319.62,-54.5 1313.62,-60.5 1307.62,-60.5"/>
<text xml:space="preserve" text-anchor="middle" x="1273" y="-39.2" font-family="Arial" font-size="9.00" fill="#1a1a2e">redis_connector.py</text>
</g>
<!-- f4&#45;&gt;f4c1 -->
<g id="edge11" class="edge">
<title>f4&#45;&gt;f4c1</title>
<path fill="none" stroke="#90a4ae" stroke-width="1.5" d="M1464.19,-136.5C1384.75,-136.5 1273,-136.5 1273,-136.5 1273,-136.5 1273,-72.89 1273,-72.89"/>
<polygon fill="#90a4ae" stroke="#90a4ae" stroke-width="1.5" points="1276.5,-72.89 1273,-62.89 1269.5,-72.89 1276.5,-72.89"/>
</g>
<!-- f4c2 -->
<g id="node19" class="node">
<title>f4c2</title>
<path fill="#90a4ae" stroke="black" d="M1426.38,-60.5C1426.38,-60.5 1367.62,-60.5 1367.62,-60.5 1361.62,-60.5 1355.62,-54.5 1355.62,-48.5 1355.62,-48.5 1355.62,-36.5 1355.62,-36.5 1355.62,-30.5 1361.62,-24.5 1367.62,-24.5 1367.62,-24.5 1426.38,-24.5 1426.38,-24.5 1432.38,-24.5 1438.38,-30.5 1438.38,-36.5 1438.38,-36.5 1438.38,-48.5 1438.38,-48.5 1438.38,-54.5 1432.38,-60.5 1426.38,-60.5"/>
<text xml:space="preserve" text-anchor="middle" x="1397" y="-39.2" font-family="Arial" font-size="9.00" fill="#1a1a2e">s3_connector.py</text>
</g>
<!-- f4&#45;&gt;f4c2 -->
<g id="edge12" class="edge">
<title>f4&#45;&gt;f4c2</title>
<path fill="none" stroke="#90a4ae" stroke-width="1.5" d="M1469.31,-118.38C1469.31,-91.06 1469.31,-42.5 1469.31,-42.5 1469.31,-42.5 1450.92,-42.5 1450.92,-42.5"/>
<polygon fill="#90a4ae" stroke="#90a4ae" stroke-width="1.5" points="1450.92,-39 1440.92,-42.5 1450.92,-46 1450.92,-39"/>
</g>
<!-- f4c3 -->
<g id="node20" class="node">
<title>f4c3</title>
<path fill="#90a4ae" stroke="black" d="M1598,-60.5C1598,-60.5 1486,-60.5 1486,-60.5 1480,-60.5 1474,-54.5 1474,-48.5 1474,-48.5 1474,-36.5 1474,-36.5 1474,-30.5 1480,-24.5 1486,-24.5 1486,-24.5 1598,-24.5 1598,-24.5 1604,-24.5 1610,-30.5 1610,-36.5 1610,-36.5 1610,-48.5 1610,-48.5 1610,-54.5 1604,-60.5 1598,-60.5"/>
<text xml:space="preserve" text-anchor="middle" x="1542" y="-39.2" font-family="Arial" font-size="9.00" fill="#1a1a2e">mooncakestore_connector.py</text>
</g>
<!-- f4&#45;&gt;f4c3 -->
<g id="edge13" class="edge">
<title>f4&#45;&gt;f4c3</title>
<path fill="none" stroke="#90a4ae" stroke-width="1.5" d="M1542,-118.38C1542,-118.38 1542,-73.16 1542,-73.16"/>
<polygon fill="#90a4ae" stroke="#90a4ae" stroke-width="1.5" points="1545.5,-73.16 1542,-63.16 1538.5,-73.16 1545.5,-73.16"/>
</g>
<!-- f4c4 -->
<g id="node21" class="node">
<title>f4c4</title>
<path fill="#90a4ae" stroke="black" d="M1746.38,-60.5C1746.38,-60.5 1657.62,-60.5 1657.62,-60.5 1651.62,-60.5 1645.62,-54.5 1645.62,-48.5 1645.62,-48.5 1645.62,-36.5 1645.62,-36.5 1645.62,-30.5 1651.62,-24.5 1657.62,-24.5 1657.62,-24.5 1746.38,-24.5 1746.38,-24.5 1752.38,-24.5 1758.38,-30.5 1758.38,-36.5 1758.38,-36.5 1758.38,-48.5 1758.38,-48.5 1758.38,-54.5 1752.38,-60.5 1746.38,-60.5"/>
<text xml:space="preserve" text-anchor="middle" x="1702" y="-39.2" font-family="Arial" font-size="9.00" fill="#1a1a2e">infinistore_connector.py</text>
</g>
<!-- f4&#45;&gt;f4c4 -->
<g id="edge14" class="edge">
<title>f4&#45;&gt;f4c4</title>
<path fill="none" stroke="#90a4ae" stroke-width="1.5" d="M1614.69,-118.38C1614.69,-91.06 1614.69,-42.5 1614.69,-42.5 1614.69,-42.5 1632.95,-42.5 1632.95,-42.5"/>
<polygon fill="#90a4ae" stroke="#90a4ae" stroke-width="1.5" points="1632.95,-46 1642.95,-42.5 1632.95,-39 1632.95,-46"/>
</g>
<!-- f4c5 -->
<g id="node22" class="node">
<title>f4c5</title>
<path fill="#90a4ae" stroke="black" d="M1881.62,-60.5C1881.62,-60.5 1806.38,-60.5 1806.38,-60.5 1800.38,-60.5 1794.38,-54.5 1794.38,-48.5 1794.38,-48.5 1794.38,-36.5 1794.38,-36.5 1794.38,-30.5 1800.38,-24.5 1806.38,-24.5 1806.38,-24.5 1881.62,-24.5 1881.62,-24.5 1887.62,-24.5 1893.62,-30.5 1893.62,-36.5 1893.62,-36.5 1893.62,-48.5 1893.62,-48.5 1893.62,-54.5 1887.62,-60.5 1881.62,-60.5"/>
<text xml:space="preserve" text-anchor="middle" x="1844" y="-39.2" font-family="Arial" font-size="9.00" fill="#1a1a2e">valkey_connector.py</text>
</g>
<!-- f4&#45;&gt;f4c5 -->
<g id="edge15" class="edge">
<title>f4&#45;&gt;f4c5</title>
<path fill="none" stroke="#90a4ae" stroke-width="1.5" d="M1619.77,-136.5C1709.25,-136.5 1844,-136.5 1844,-136.5 1844,-136.5 1844,-72.89 1844,-72.89"/>
<polygon fill="#90a4ae" stroke="#90a4ae" stroke-width="1.5" points="1847.5,-72.89 1844,-62.89 1840.5,-72.89 1847.5,-72.89"/>
</g>
<!-- f5 -->
<g id="node5" class="node">
<title>f5</title>
<path fill="#c62828" stroke="black" d="M2138.5,-154.5C2138.5,-154.5 2023.5,-154.5 2023.5,-154.5 2017.5,-154.5 2011.5,-148.5 2011.5,-142.5 2011.5,-142.5 2011.5,-130.5 2011.5,-130.5 2011.5,-124.5 2017.5,-118.5 2023.5,-118.5 2023.5,-118.5 2138.5,-118.5 2138.5,-118.5 2144.5,-118.5 2150.5,-124.5 2150.5,-130.5 2150.5,-130.5 2150.5,-142.5 2150.5,-142.5 2150.5,-148.5 2144.5,-154.5 2138.5,-154.5"/>
<text xml:space="preserve" text-anchor="middle" x="2081" y="-139.55" font-family="Arial Bold" font-size="11.00" fill="white">5. Non&#45;Prefix KV Reuse</text>
<text xml:space="preserve" text-anchor="middle" x="2081" y="-126.05" font-family="Arial Bold" font-size="11.00" fill="white">Cacheblend</text>
</g>
<!-- f5c1 -->
<g id="node23" class="node">
<title>f5c1</title>
<path fill="#90a4ae" stroke="black" d="M1984.12,-60.5C1984.12,-60.5 1941.88,-60.5 1941.88,-60.5 1935.88,-60.5 1929.88,-54.5 1929.88,-48.5 1929.88,-48.5 1929.88,-36.5 1929.88,-36.5 1929.88,-30.5 1935.88,-24.5 1941.88,-24.5 1941.88,-24.5 1984.12,-24.5 1984.12,-24.5 1990.12,-24.5 1996.12,-30.5 1996.12,-36.5 1996.12,-36.5 1996.12,-48.5 1996.12,-48.5 1996.12,-54.5 1990.12,-60.5 1984.12,-60.5"/>
<text xml:space="preserve" text-anchor="middle" x="1963" y="-39.2" font-family="Arial" font-size="9.00" fill="#1a1a2e">Cacheblend</text>
</g>
<!-- f5&#45;&gt;f5c1 -->
<g id="edge16" class="edge">
<title>f5&#45;&gt;f5c1</title>
<path fill="none" stroke="#90a4ae" stroke-width="1.5" d="M2021.81,-118.38C2021.81,-91.06 2021.81,-42.5 2021.81,-42.5 2021.81,-42.5 2008.8,-42.5 2008.8,-42.5"/>
<polygon fill="#90a4ae" stroke="#90a4ae" stroke-width="1.5" points="2008.8,-39 1998.8,-42.5 2008.8,-46 2008.8,-39"/>
</g>
<!-- f5c2 -->
<g id="node24" class="node">
<title>f5c2</title>
<path fill="#90a4ae" stroke="black" d="M2117.88,-60.5C2117.88,-60.5 2044.12,-60.5 2044.12,-60.5 2038.12,-60.5 2032.12,-54.5 2032.12,-48.5 2032.12,-48.5 2032.12,-36.5 2032.12,-36.5 2032.12,-30.5 2038.12,-24.5 2044.12,-24.5 2044.12,-24.5 2117.88,-24.5 2117.88,-24.5 2123.88,-24.5 2129.88,-30.5 2129.88,-36.5 2129.88,-36.5 2129.88,-48.5 2129.88,-48.5 2129.88,-54.5 2123.88,-60.5 2117.88,-60.5"/>
<text xml:space="preserve" text-anchor="middle" x="2081" y="-39.2" font-family="Arial" font-size="9.00" fill="#1a1a2e">blend_kv/ examples</text>
</g>
<!-- f5&#45;&gt;f5c2 -->
<g id="edge17" class="edge">
<title>f5&#45;&gt;f5c2</title>
<path fill="none" stroke="#90a4ae" stroke-width="1.5" d="M2081,-118.38C2081,-118.38 2081,-73.16 2081,-73.16"/>
<polygon fill="#90a4ae" stroke="#90a4ae" stroke-width="1.5" points="2084.5,-73.16 2081,-63.16 2077.5,-73.16 2084.5,-73.16"/>
</g>
<!-- f5c3 -->
<g id="node25" class="node">
<title>f5c3</title>
<path fill="#90a4ae" stroke="black" d="M2266.38,-60.5C2266.38,-60.5 2177.62,-60.5 2177.62,-60.5 2171.62,-60.5 2165.62,-54.5 2165.62,-48.5 2165.62,-48.5 2165.62,-36.5 2165.62,-36.5 2165.62,-30.5 2171.62,-24.5 2177.62,-24.5 2177.62,-24.5 2266.38,-24.5 2266.38,-24.5 2272.38,-24.5 2278.38,-30.5 2278.38,-36.5 2278.38,-36.5 2278.38,-48.5 2278.38,-48.5 2278.38,-54.5 2272.38,-60.5 2266.38,-60.5"/>
<text xml:space="preserve" text-anchor="middle" x="2222" y="-39.2" font-family="Arial" font-size="9.00" fill="#1a1a2e">selective recomputation</text>
</g>
<!-- f5&#45;&gt;f5c3 -->
<g id="edge18" class="edge">
<title>f5&#45;&gt;f5c3</title>
<path fill="none" stroke="#90a4ae" stroke-width="1.5" d="M2140.19,-118.38C2140.19,-91.06 2140.19,-42.5 2140.19,-42.5 2140.19,-42.5 2152.91,-42.5 2152.91,-42.5"/>
<polygon fill="#90a4ae" stroke="#90a4ae" stroke-width="1.5" points="2152.91,-46 2162.91,-42.5 2152.91,-39 2152.91,-46"/>
</g>
<!-- f6 -->
<g id="node6" class="node">
<title>f6</title>
<path fill="#2e7d32" stroke="black" d="M2541,-154.5C2541,-154.5 2429,-154.5 2429,-154.5 2423,-154.5 2417,-148.5 2417,-142.5 2417,-142.5 2417,-130.5 2417,-130.5 2417,-124.5 2423,-118.5 2429,-118.5 2429,-118.5 2541,-118.5 2541,-118.5 2547,-118.5 2553,-124.5 2553,-130.5 2553,-130.5 2553,-142.5 2553,-142.5 2553,-148.5 2547,-154.5 2541,-154.5"/>
<text xml:space="preserve" text-anchor="middle" x="2485" y="-139.55" font-family="Arial Bold" font-size="11.00" fill="white">6. PD Disaggregation</text>
<text xml:space="preserve" text-anchor="middle" x="2485" y="-126.05" font-family="Arial Bold" font-size="11.00" fill="white">transfer_channel, NIXL</text>
</g>
<!-- f6c1 -->
<g id="node26" class="node">
<title>f6c1</title>
<path fill="#90a4ae" stroke="black" d="M2383.25,-60.5C2383.25,-60.5 2326.75,-60.5 2326.75,-60.5 2320.75,-60.5 2314.75,-54.5 2314.75,-48.5 2314.75,-48.5 2314.75,-36.5 2314.75,-36.5 2314.75,-30.5 2320.75,-24.5 2326.75,-24.5 2326.75,-24.5 2383.25,-24.5 2383.25,-24.5 2389.25,-24.5 2395.25,-30.5 2395.25,-36.5 2395.25,-36.5 2395.25,-48.5 2395.25,-48.5 2395.25,-54.5 2389.25,-60.5 2383.25,-60.5"/>
<text xml:space="preserve" text-anchor="middle" x="2355" y="-39.2" font-family="Arial" font-size="9.00" fill="#1a1a2e">nixl_channel.py</text>
</g>
<!-- f6&#45;&gt;f6c1 -->
<g id="edge19" class="edge">
<title>f6&#45;&gt;f6c1</title>
<path fill="none" stroke="#90a4ae" stroke-width="1.5" d="M2424.12,-118.38C2424.12,-91.06 2424.12,-42.5 2424.12,-42.5 2424.12,-42.5 2407.88,-42.5 2407.88,-42.5"/>
<polygon fill="#90a4ae" stroke="#90a4ae" stroke-width="1.5" points="2407.88,-39 2397.88,-42.5 2407.88,-46 2407.88,-39"/>
</g>
<!-- f6c2 -->
<g id="node27" class="node">
<title>f6c2</title>
<path fill="#90a4ae" stroke="black" d="M2526.75,-60.5C2526.75,-60.5 2443.25,-60.5 2443.25,-60.5 2437.25,-60.5 2431.25,-54.5 2431.25,-48.5 2431.25,-48.5 2431.25,-36.5 2431.25,-36.5 2431.25,-30.5 2437.25,-24.5 2443.25,-24.5 2443.25,-24.5 2526.75,-24.5 2526.75,-24.5 2532.75,-24.5 2538.75,-30.5 2538.75,-36.5 2538.75,-36.5 2538.75,-48.5 2538.75,-48.5 2538.75,-54.5 2532.75,-60.5 2526.75,-60.5"/>
<text xml:space="preserve" text-anchor="middle" x="2485" y="-39.2" font-family="Arial" font-size="9.00" fill="#1a1a2e">py_socket_channel.py</text>
</g>
<!-- f6&#45;&gt;f6c2 -->
<g id="edge20" class="edge">
<title>f6&#45;&gt;f6c2</title>
<path fill="none" stroke="#90a4ae" stroke-width="1.5" d="M2485,-118.38C2485,-118.38 2485,-73.16 2485,-73.16"/>
<polygon fill="#90a4ae" stroke="#90a4ae" stroke-width="1.5" points="2488.5,-73.16 2485,-63.16 2481.5,-73.16 2488.5,-73.16"/>
</g>
<!-- f6c3 -->
<g id="node28" class="node">
<title>f6c3</title>
<path fill="#90a4ae" stroke="black" d="M2641.5,-60.5C2641.5,-60.5 2586.5,-60.5 2586.5,-60.5 2580.5,-60.5 2574.5,-54.5 2574.5,-48.5 2574.5,-48.5 2574.5,-36.5 2574.5,-36.5 2574.5,-30.5 2580.5,-24.5 2586.5,-24.5 2586.5,-24.5 2641.5,-24.5 2641.5,-24.5 2647.5,-24.5 2653.5,-30.5 2653.5,-36.5 2653.5,-36.5 2653.5,-48.5 2653.5,-48.5 2653.5,-54.5 2647.5,-60.5 2641.5,-60.5"/>
<text xml:space="preserve" text-anchor="middle" x="2614" y="-39.2" font-family="Arial" font-size="9.00" fill="#1a1a2e">pd_backend.py</text>
</g>
<!-- f6&#45;&gt;f6c3 -->
<g id="edge21" class="edge">
<title>f6&#45;&gt;f6c3</title>
<path fill="none" stroke="#90a4ae" stroke-width="1.5" d="M2545.88,-118.38C2545.88,-91.06 2545.88,-42.5 2545.88,-42.5 2545.88,-42.5 2562.1,-42.5 2562.1,-42.5"/>
<polygon fill="#90a4ae" stroke="#90a4ae" stroke-width="1.5" points="2562.1,-46 2572.1,-42.5 2562.1,-39 2562.1,-46"/>
</g>
<!-- f7 -->
<g id="node7" class="node">
<title>f7</title>
<path fill="#00695c" stroke="black" d="M2900.5,-154.5C2900.5,-154.5 2797.5,-154.5 2797.5,-154.5 2791.5,-154.5 2785.5,-148.5 2785.5,-142.5 2785.5,-142.5 2785.5,-130.5 2785.5,-130.5 2785.5,-124.5 2791.5,-118.5 2797.5,-118.5 2797.5,-118.5 2900.5,-118.5 2900.5,-118.5 2906.5,-118.5 2912.5,-124.5 2912.5,-130.5 2912.5,-130.5 2912.5,-142.5 2912.5,-142.5 2912.5,-148.5 2906.5,-154.5 2900.5,-154.5"/>
<text xml:space="preserve" text-anchor="middle" x="2849" y="-139.55" font-family="Arial Bold" font-size="11.00" fill="white">7. KV Transformation</text>
<text xml:space="preserve" text-anchor="middle" x="2849" y="-126.05" font-family="Arial Bold" font-size="11.00" fill="white">kv_codec, SERDE</text>
</g>
<!-- f7c1 -->
<g id="node29" class="node">
<title>f7c1</title>
<path fill="#90a4ae" stroke="black" d="M2762.5,-60.5C2762.5,-60.5 2701.5,-60.5 2701.5,-60.5 2695.5,-60.5 2689.5,-54.5 2689.5,-48.5 2689.5,-48.5 2689.5,-36.5 2689.5,-36.5 2689.5,-30.5 2695.5,-24.5 2701.5,-24.5 2701.5,-24.5 2762.5,-24.5 2762.5,-24.5 2768.5,-24.5 2774.5,-30.5 2774.5,-36.5 2774.5,-36.5 2774.5,-48.5 2774.5,-48.5 2774.5,-54.5 2768.5,-60.5 2762.5,-60.5"/>
<text xml:space="preserve" text-anchor="middle" x="2732" y="-39.2" font-family="Arial" font-size="9.00" fill="#1a1a2e">asym_k16_v8.py</text>
</g>
<!-- f7&#45;&gt;f7c1 -->
<g id="edge22" class="edge">
<title>f7&#45;&gt;f7c1</title>
<path fill="none" stroke="#90a4ae" stroke-width="1.5" d="M2797.88,-118.38C2797.88,-91.06 2797.88,-42.5 2797.88,-42.5 2797.88,-42.5 2787.11,-42.5 2787.11,-42.5"/>
<polygon fill="#90a4ae" stroke="#90a4ae" stroke-width="1.5" points="2787.11,-39 2777.11,-42.5 2787.11,-46 2787.11,-39"/>
</g>
<!-- f7c2 -->
<g id="node30" class="node">
<title>f7c2</title>
<path fill="#90a4ae" stroke="black" d="M2875.75,-60.5C2875.75,-60.5 2822.25,-60.5 2822.25,-60.5 2816.25,-60.5 2810.25,-54.5 2810.25,-48.5 2810.25,-48.5 2810.25,-36.5 2810.25,-36.5 2810.25,-30.5 2816.25,-24.5 2822.25,-24.5 2822.25,-24.5 2875.75,-24.5 2875.75,-24.5 2881.75,-24.5 2887.75,-30.5 2887.75,-36.5 2887.75,-36.5 2887.75,-48.5 2887.75,-48.5 2887.75,-54.5 2881.75,-60.5 2875.75,-60.5"/>
<text xml:space="preserve" text-anchor="middle" x="2849" y="-39.2" font-family="Arial" font-size="9.00" fill="#1a1a2e">encoded_kv.py</text>
</g>
<!-- f7&#45;&gt;f7c2 -->
<g id="edge23" class="edge">
<title>f7&#45;&gt;f7c2</title>
<path fill="none" stroke="#90a4ae" stroke-width="1.5" d="M2849,-118.38C2849,-118.38 2849,-73.16 2849,-73.16"/>
<polygon fill="#90a4ae" stroke="#90a4ae" stroke-width="1.5" points="2852.5,-73.16 2849,-63.16 2845.5,-73.16 2852.5,-73.16"/>
</g>
<!-- f7c3 -->
<g id="node31" class="node">
<title>f7c3</title>
<path fill="#90a4ae" stroke="black" d="M3016.25,-60.5C3016.25,-60.5 2935.75,-60.5 2935.75,-60.5 2929.75,-60.5 2923.75,-54.5 2923.75,-48.5 2923.75,-48.5 2923.75,-36.5 2923.75,-36.5 2923.75,-30.5 2929.75,-24.5 2935.75,-24.5 2935.75,-24.5 3016.25,-24.5 3016.25,-24.5 3022.25,-24.5 3028.25,-30.5 3028.25,-36.5 3028.25,-36.5 3028.25,-48.5 3028.25,-48.5 3028.25,-54.5 3022.25,-60.5 3016.25,-60.5"/>
<text xml:space="preserve" text-anchor="middle" x="2976" y="-39.2" font-family="Arial" font-size="9.00" fill="#1a1a2e">naive_serde/serde.py</text>
</g>
<!-- f7&#45;&gt;f7c3 -->
<g id="edge24" class="edge">
<title>f7&#45;&gt;f7c3</title>
<path fill="none" stroke="#90a4ae" stroke-width="1.5" d="M2900.12,-118.38C2900.12,-91.06 2900.12,-42.5 2900.12,-42.5 2900.12,-42.5 2911.03,-42.5 2911.03,-42.5"/>
<polygon fill="#90a4ae" stroke="#90a4ae" stroke-width="1.5" points="2911.03,-46 2921.03,-42.5 2911.03,-39 2911.03,-46"/>
</g>
</g>
</svg>
