<?xml version="1.0" encoding="UTF-8" standalone="no"?>
<!DOCTYPE svg PUBLIC "-//W3C//DTD SVG 1.1//EN"
 "http://www.w3.org/Graphics/SVG/1.1/DTD/svg11.dtd">
<!-- Generated by graphviz version 14.1.2 (0)
 -->
<!-- Title: lmcache_perf Pages: 1 -->
<svg width="885pt" height="563pt"
 viewBox="0.00 0.00 885.00 563.00" xmlns="http://www.w3.org/2000/svg" xmlns:xlink="http://www.w3.org/1999/xlink">
<style>
<!-- White text halo for edge label readability -->
text { paint-order: stroke; stroke: #ffffff; stroke-width: 3px; stroke-linejoin: round; fill: #1a1a2e; }
</style>
<g id="graph0" class="graph" transform="scale(1 1) rotate(0) translate(4 558.5)">
<title>lmcache_perf</title>
<polygon fill="white" stroke="none" points="-4,4 -4,-558.5 881,-558.5 881,4 -4,4"/>
<text xml:space="preserve" text-anchor="middle" x="438.5" y="-7.2" font-family="Times New Roman,serif" font-size="14.00">LMCache &#45; Performance Tiers and Benchmarks</text>
<!-- tier0 -->
<g id="node1" class="node">
<title>tier0</title>
<path fill="#b71c1c" stroke="black" d="M709.38,-554.5C709.38,-554.5 538.12,-554.5 538.12,-554.5 532.12,-554.5 526.12,-548.5 526.12,-542.5 526.12,-542.5 526.12,-530.5 526.12,-530.5 526.12,-524.5 532.12,-518.5 538.12,-518.5 538.12,-518.5 709.38,-518.5 709.38,-518.5 715.38,-518.5 721.38,-524.5 721.38,-530.5 721.38,-530.5 721.38,-542.5 721.38,-542.5 721.38,-548.5 715.38,-554.5 709.38,-554.5"/>
<text xml:space="preserve" text-anchor="middle" x="623.75" y="-539.55" font-family="Arial Bold" font-size="11.00" fill="white">Tier 0: GPU HBM</text>
<text xml:space="preserve" text-anchor="middle" x="623.75" y="-526.05" font-family="Arial Bold" font-size="11.00" fill="white">~40&#45;80 GB per GPU | &lt;1 us latency</text>
</g>
<!-- tier1 -->
<g id="node2" class="node">
<title>tier1</title>
<path fill="#e65100" stroke="black" d="M511,-460.5C511,-460.5 358.5,-460.5 358.5,-460.5 352.5,-460.5 346.5,-454.5 346.5,-448.5 346.5,-448.5 346.5,-436.5 346.5,-436.5 346.5,-430.5 352.5,-424.5 358.5,-424.5 358.5,-424.5 511,-424.5 511,-424.5 517,-424.5 523,-430.5 523,-436.5 523,-436.5 523,-448.5 523,-448.5 523,-454.5 517,-460.5 511,-460.5"/>
<text xml:space="preserve" text-anchor="middle" x="434.75" y="-445.55" font-family="Arial Bold" font-size="11.00" fill="white">Tier 1: CPU RAM</text>
<text xml:space="preserve" text-anchor="middle" x="434.75" y="-432.05" font-family="Arial Bold" font-size="11.00" fill="white">Host memory | us&#45;level latency</text>
</g>
<!-- tier0&#45;&gt;tier1 -->
<g id="edge1" class="edge">
<title>tier0&#45;&gt;tier1</title>
<path fill="none" stroke="#546e7a" stroke-width="2" d="M541.75,-518.27C541.75,-492.49 541.75,-448.5 541.75,-448.5 541.75,-448.5 536.14,-448.5 536.14,-448.5"/>
<polygon fill="#546e7a" stroke="#546e7a" stroke-width="2" points="536.14,-445 526.14,-448.5 536.14,-452 536.14,-445"/>
<text xml:space="preserve" text-anchor="middle" x="522.25" y="-483.78" font-family="Times New Roman,serif" font-size="14.00">offload</text>
</g>
<!-- b1 -->
<g id="node6" class="node">
<title>b1</title>
<polygon fill="#fff9c4" stroke="black" points="682,-460.5 559.5,-460.5 559.5,-424.5 688,-424.5 688,-454.5 682,-460.5"/>
<polyline fill="none" stroke="black" points="682,-460.5 682,-454.5"/>
<polyline fill="none" stroke="black" points="688,-454.5 682,-454.5"/>
<text xml:space="preserve" text-anchor="middle" x="623.75" y="-445" font-family="Arial" font-size="10.00" fill="#1a1a2e">10x MoE Inference Boost</text>
<text xml:space="preserve" text-anchor="middle" x="623.75" y="-433" font-family="Arial" font-size="10.00" fill="#1a1a2e">MP architecture (2026/04)</text>
</g>
<!-- tier0&#45;&gt;b1 -->
<g id="edge5" class="edge">
<title>tier0&#45;&gt;b1</title>
<path fill="none" stroke="#b71c1c" stroke-width="1.5" stroke-dasharray="5,2" d="M623.75,-518.38C623.75,-518.38 623.75,-473.16 623.75,-473.16"/>
<polygon fill="#b71c1c" stroke="#b71c1c" stroke-width="1.5" points="627.25,-473.16 623.75,-463.16 620.25,-473.16 627.25,-473.16"/>
</g>
<!-- b2 -->
<g id="node7" class="node">
<title>b2</title>
<polygon fill="#fff9c4" stroke="black" points="871,-460.5 724.5,-460.5 724.5,-424.5 877,-424.5 877,-454.5 871,-460.5"/>
<polyline fill="none" stroke="black" points="871,-460.5 871,-454.5"/>
<polyline fill="none" stroke="black" points="877,-454.5 871,-454.5"/>
<text xml:space="preserve" text-anchor="middle" x="800.75" y="-445" font-family="Arial" font-size="10.00" fill="#1a1a2e">AMD MI300X Agentic</text>
<text xml:space="preserve" text-anchor="middle" x="800.75" y="-433" font-family="Arial" font-size="10.00" fill="#1a1a2e">Workload Benchmark (2026/05)</text>
</g>
<!-- tier0&#45;&gt;b2 -->
<g id="edge6" class="edge">
<title>tier0&#45;&gt;b2</title>
<path fill="none" stroke="#b71c1c" stroke-width="1.5" stroke-dasharray="5,2" d="M706,-518.38C706,-491.06 706,-442.5 706,-442.5 706,-442.5 712,-442.5 712,-442.5"/>
<polygon fill="#b71c1c" stroke="#b71c1c" stroke-width="1.5" points="712,-446 722,-442.5 712,-439 712,-446"/>
</g>
<!-- tier2 -->
<g id="node3" class="node">
<title>tier2</title>
<path fill="#f9a825" stroke="black" d="M325.5,-362.5C325.5,-362.5 164,-362.5 164,-362.5 158,-362.5 152,-356.5 152,-350.5 152,-350.5 152,-338.5 152,-338.5 152,-332.5 158,-326.5 164,-326.5 164,-326.5 325.5,-326.5 325.5,-326.5 331.5,-326.5 337.5,-332.5 337.5,-338.5 337.5,-338.5 337.5,-350.5 337.5,-350.5 337.5,-356.5 331.5,-362.5 325.5,-362.5"/>
<text xml:space="preserve" text-anchor="middle" x="244.75" y="-347.55" font-family="Arial Bold" font-size="11.00" fill="white">Tier 2: Local Disk/SSD</text>
<text xml:space="preserve" text-anchor="middle" x="244.75" y="-334.05" font-family="Arial Bold" font-size="11.00" fill="white">Large capacity | ms&#45;level latency</text>
</g>
<!-- tier1&#45;&gt;tier2 -->
<g id="edge2" class="edge">
<title>tier1&#45;&gt;tier2</title>
<path fill="none" stroke="#546e7a" stroke-width="2" d="M359.81,-424.07C359.81,-395.68 359.81,-344.5 359.81,-344.5 359.81,-344.5 350.93,-344.5 350.93,-344.5"/>
<polygon fill="#546e7a" stroke="#546e7a" stroke-width="2" points="350.93,-341 340.93,-344.5 350.93,-348 350.93,-341"/>
<text xml:space="preserve" text-anchor="middle" x="340.31" y="-383.04" font-family="Times New Roman,serif" font-size="14.00">offload</text>
</g>
<!-- b3 -->
<g id="node8" class="node">
<title>b3</title>
<polygon fill="#fff9c4" stroke="black" points="490.38,-366.5 373.12,-366.5 373.12,-322.5 496.38,-322.5 496.38,-360.5 490.38,-366.5"/>
<polyline fill="none" stroke="black" points="490.38,-366.5 490.38,-360.5"/>
<polyline fill="none" stroke="black" points="496.38,-360.5 490.38,-360.5"/>
<text xml:space="preserve" text-anchor="middle" x="434.75" y="-353" font-family="Arial" font-size="10.00" fill="#1a1a2e">TTFT Reduction</text>
<text xml:space="preserve" text-anchor="middle" x="434.75" y="-341" font-family="Arial" font-size="10.00" fill="#1a1a2e">Cached prefill eliminates</text>
<text xml:space="preserve" text-anchor="middle" x="434.75" y="-329" font-family="Arial" font-size="10.00" fill="#1a1a2e">redundant computation</text>
</g>
<!-- tier1&#45;&gt;b3 -->
<g id="edge7" class="edge">
<title>tier1&#45;&gt;b3</title>
<path fill="none" stroke="#e65100" stroke-width="1.5" stroke-dasharray="5,2" d="M434.75,-424.07C434.75,-424.07 434.75,-379.25 434.75,-379.25"/>
<polygon fill="#e65100" stroke="#e65100" stroke-width="1.5" points="438.25,-379.25 434.75,-369.25 431.25,-379.25 438.25,-379.25"/>
</g>
<!-- codec_note -->
<g id="node12" class="node">
<title>codec_note</title>
<path fill="#6a1b9a" stroke="black" d="M678.62,-366.5C678.62,-366.5 544.88,-366.5 544.88,-366.5 538.88,-366.5 532.88,-360.5 532.88,-354.5 532.88,-354.5 532.88,-334.5 532.88,-334.5 532.88,-328.5 538.88,-322.5 544.88,-322.5 544.88,-322.5 678.62,-322.5 678.62,-322.5 684.62,-322.5 690.62,-328.5 690.62,-334.5 690.62,-334.5 690.62,-354.5 690.62,-354.5 690.62,-360.5 684.62,-366.5 678.62,-366.5"/>
<text xml:space="preserve" text-anchor="middle" x="611.75" y="-353" font-family="Arial" font-size="10.00" fill="white">KV Codec Compression</text>
<text xml:space="preserve" text-anchor="middle" x="611.75" y="-341" font-family="Arial" font-size="10.00" fill="white">K16/V8 asymmetric quantization</text>
<text xml:space="preserve" text-anchor="middle" x="611.75" y="-329" font-family="Arial" font-size="10.00" fill="white">Reduces memory footprint</text>
</g>
<!-- tier1&#45;&gt;codec_note -->
<g id="edge11" class="edge">
<title>tier1&#45;&gt;codec_note</title>
<path fill="none" stroke="#6a1b9a" stroke-width="1.5" stroke-dasharray="5,2" d="M523.46,-436.5C539.17,-436.5 550.62,-436.5 550.62,-436.5 550.62,-436.5 550.62,-379.04 550.62,-379.04"/>
<polygon fill="#6a1b9a" stroke="#6a1b9a" stroke-width="1.5" points="554.13,-379.04 550.63,-369.04 547.13,-379.04 554.13,-379.04"/>
</g>
<!-- tier3 -->
<g id="node4" class="node">
<title>tier3</title>
<path fill="#9ccc65" stroke="black" d="M225.88,-260.5C225.88,-260.5 57.62,-260.5 57.62,-260.5 51.62,-260.5 45.62,-254.5 45.62,-248.5 45.62,-248.5 45.62,-236.5 45.62,-236.5 45.62,-230.5 51.62,-224.5 57.62,-224.5 57.62,-224.5 225.88,-224.5 225.88,-224.5 231.88,-224.5 237.88,-230.5 237.88,-236.5 237.88,-236.5 237.88,-248.5 237.88,-248.5 237.88,-254.5 231.88,-260.5 225.88,-260.5"/>
<text xml:space="preserve" text-anchor="middle" x="141.75" y="-245.55" font-family="Arial Bold" font-size="11.00" fill="#1a1a2e">Tier 3: GDS</text>
<text xml:space="preserve" text-anchor="middle" x="141.75" y="-232.05" font-family="Arial Bold" font-size="11.00" fill="#1a1a2e">GPU Direct Storage | bypass CPU</text>
</g>
<!-- tier2&#45;&gt;tier3 -->
<g id="edge3" class="edge">
<title>tier2&#45;&gt;tier3</title>
<path fill="none" stroke="#546e7a" stroke-width="2" d="M194.94,-326.26C194.94,-326.26 194.94,-273.95 194.94,-273.95"/>
<polygon fill="#546e7a" stroke="#546e7a" stroke-width="2" points="198.44,-273.95 194.94,-263.95 191.44,-273.95 198.44,-273.95"/>
<text xml:space="preserve" text-anchor="middle" x="175.44" y="-303.31" font-family="Times New Roman,serif" font-size="14.00">offload</text>
</g>
<!-- policy -->
<g id="node11" class="node">
<title>policy</title>
<path fill="#00838f" stroke="black" d="M411.5,-264.5C411.5,-264.5 286,-264.5 286,-264.5 280,-264.5 274,-258.5 274,-252.5 274,-252.5 274,-232.5 274,-232.5 274,-226.5 280,-220.5 286,-220.5 286,-220.5 411.5,-220.5 411.5,-220.5 417.5,-220.5 423.5,-226.5 423.5,-232.5 423.5,-232.5 423.5,-252.5 423.5,-252.5 423.5,-258.5 417.5,-264.5 411.5,-264.5"/>
<text xml:space="preserve" text-anchor="middle" x="348.75" y="-251" font-family="Arial" font-size="10.00" fill="white">Eviction &amp; Quota Management</text>
<text xml:space="preserve" text-anchor="middle" x="348.75" y="-239" font-family="Arial" font-size="10.00" fill="white">eviction.py &#160;quota_manager.py</text>
<text xml:space="preserve" text-anchor="middle" x="348.75" y="-227" font-family="Arial" font-size="10.00" fill="white">FIFO / LRU / LFU / MRU</text>
</g>
<!-- tier2&#45;&gt;policy -->
<g id="edge10" class="edge">
<title>tier2&#45;&gt;policy</title>
<path fill="none" stroke="#00838f" stroke-width="1.5" stroke-dasharray="5,2" d="M305.75,-326.26C305.75,-326.26 305.75,-277.12 305.75,-277.12"/>
<polygon fill="#00838f" stroke="#00838f" stroke-width="1.5" points="309.25,-277.12 305.75,-267.12 302.25,-277.12 309.25,-277.12"/>
</g>
<!-- tier4 -->
<g id="node5" class="node">
<title>tier4</title>
<path fill="#42a5f5" stroke="black" d="M233.75,-162.5C233.75,-162.5 49.75,-162.5 49.75,-162.5 43.75,-162.5 37.75,-156.5 37.75,-150.5 37.75,-150.5 37.75,-138.5 37.75,-138.5 37.75,-132.5 43.75,-126.5 49.75,-126.5 49.75,-126.5 233.75,-126.5 233.75,-126.5 239.75,-126.5 245.75,-132.5 245.75,-138.5 245.75,-138.5 245.75,-150.5 245.75,-150.5 245.75,-156.5 239.75,-162.5 233.75,-162.5"/>
<text xml:space="preserve" text-anchor="middle" x="141.75" y="-147.55" font-family="Arial Bold" font-size="11.00" fill="white">Tier 4: Remote Backends</text>
<text xml:space="preserve" text-anchor="middle" x="141.75" y="-134.05" font-family="Arial Bold" font-size="11.00" fill="white">Redis/S3/Mooncake/P2P/NIXL/RDMA</text>
</g>
<!-- tier3&#45;&gt;tier4 -->
<g id="edge4" class="edge">
<title>tier3&#45;&gt;tier4</title>
<path fill="none" stroke="#546e7a" stroke-width="2" d="M141.75,-224.07C141.75,-224.07 141.75,-175.88 141.75,-175.88"/>
<polygon fill="#546e7a" stroke="#546e7a" stroke-width="2" points="145.25,-175.88 141.75,-165.88 138.25,-175.88 145.25,-175.88"/>
<text xml:space="preserve" text-anchor="middle" x="122.25" y="-203.17" font-family="Times New Roman,serif" font-size="14.00">offload</text>
</g>
<!-- b4 -->
<g id="node9" class="node">
<title>b4</title>
<polygon fill="#fff9c4" stroke="black" points="113.5,-68.5 0,-68.5 0,-24.5 119.5,-24.5 119.5,-62.5 113.5,-68.5"/>
<polyline fill="none" stroke="black" points="113.5,-68.5 113.5,-62.5"/>
<polyline fill="none" stroke="black" points="119.5,-62.5 113.5,-62.5"/>
<text xml:space="preserve" text-anchor="middle" x="59.75" y="-55" font-family="Arial" font-size="10.00" fill="#1a1a2e">Multi&#45;Node P2P</text>
<text xml:space="preserve" text-anchor="middle" x="59.75" y="-43" font-family="Arial" font-size="10.00" fill="#1a1a2e">Aggregate memory pool</text>
<text xml:space="preserve" text-anchor="middle" x="59.75" y="-31" font-family="Arial" font-size="10.00" fill="#1a1a2e">across nodes</text>
</g>
<!-- tier4&#45;&gt;b4 -->
<g id="edge8" class="edge">
<title>tier4&#45;&gt;b4</title>
<path fill="none" stroke="#42a5f5" stroke-width="1.5" stroke-dasharray="5,2" d="M78.62,-126.07C78.62,-126.07 78.62,-81.25 78.62,-81.25"/>
<polygon fill="#42a5f5" stroke="#42a5f5" stroke-width="1.5" points="82.13,-81.25 78.63,-71.25 75.13,-81.25 82.13,-81.25"/>
</g>
<!-- b5 -->
<g id="node10" class="node">
<title>b5</title>
<polygon fill="#fff9c4" stroke="black" points="288.25,-64.5 155.25,-64.5 155.25,-28.5 294.25,-28.5 294.25,-58.5 288.25,-64.5"/>
<polyline fill="none" stroke="black" points="288.25,-64.5 288.25,-58.5"/>
<polyline fill="none" stroke="black" points="294.25,-58.5 288.25,-58.5"/>
<text xml:space="preserve" text-anchor="middle" x="224.75" y="-49" font-family="Arial" font-size="10.00" fill="#1a1a2e">CoreWeave x Cohere</text>
<text xml:space="preserve" text-anchor="middle" x="224.75" y="-37" font-family="Arial" font-size="10.00" fill="#1a1a2e">Breaking the memory barrier</text>
</g>
<!-- tier4&#45;&gt;b5 -->
<g id="edge9" class="edge">
<title>tier4&#45;&gt;b5</title>
<path fill="none" stroke="#42a5f5" stroke-width="1.5" stroke-dasharray="5,2" d="M200.5,-126.07C200.5,-126.07 200.5,-77.12 200.5,-77.12"/>
<polygon fill="#42a5f5" stroke="#42a5f5" stroke-width="1.5" points="204,-77.12 200.5,-67.12 197,-77.12 204,-77.12"/>
</g>
</g>
</svg>
