<?xml version="1.0" encoding="UTF-8" standalone="no"?>
<!DOCTYPE svg PUBLIC "-//W3C//DTD SVG 1.1//EN"
 "http://www.w3.org/Graphics/SVG/1.1/DTD/svg11.dtd">
<!-- Generated by graphviz version 14.1.2 (0)
 -->
<!-- Title: lmcache_wf Pages: 1 -->
<svg width="521pt" height="987pt"
 viewBox="0.00 0.00 521.00 987.00" xmlns="http://www.w3.org/2000/svg" xmlns:xlink="http://www.w3.org/1999/xlink">
<style>
<!-- White text halo for edge label readability -->
text { paint-order: stroke; stroke: #ffffff; stroke-width: 3px; stroke-linejoin: round; fill: #1a1a2e; }
</style>
<g id="graph0" class="graph" transform="scale(1 1) rotate(0) translate(4 982.5)">
<title>lmcache_wf</title>
<polygon fill="white" stroke="none" points="-4,4 -4,-982.5 516.88,-982.5 516.88,4 -4,4"/>
<text xml:space="preserve" text-anchor="middle" x="256.44" y="-7.2" font-family="Times New Roman,serif" font-size="14.00">LMCache &#45; KV Cache Lifecycle Flow</text>
<!-- req -->
<g id="node1" class="node">
<title>req</title>
<polygon fill="#4caf50" stroke="black" points="401.12,-978.5 299.62,-978.5 299.62,-942.5 401.12,-942.5 401.12,-978.5"/>
<text xml:space="preserve" text-anchor="middle" x="350.38" y="-963.55" font-family="Arial" font-size="11.00" fill="white">Request Arrives</text>
<text xml:space="preserve" text-anchor="middle" x="350.38" y="-950.05" font-family="Arial" font-size="11.00" fill="white">at Serving Engine</text>
</g>
<!-- integ2 -->
<g id="node2" class="node">
<title>integ2</title>
<path fill="#2e7d32" stroke="black" d="M391,-884.5C391,-884.5 309.75,-884.5 309.75,-884.5 303.75,-884.5 297.75,-878.5 297.75,-872.5 297.75,-872.5 297.75,-860.5 297.75,-860.5 297.75,-854.5 303.75,-848.5 309.75,-848.5 309.75,-848.5 391,-848.5 391,-848.5 397,-848.5 403,-854.5 403,-860.5 403,-860.5 403,-872.5 403,-872.5 403,-878.5 397,-884.5 391,-884.5"/>
<text xml:space="preserve" text-anchor="middle" x="350.38" y="-869.55" font-family="Arial Bold" font-size="11.00" fill="white">Integration Layer</text>
<text xml:space="preserve" text-anchor="middle" x="350.38" y="-856.05" font-family="Arial Bold" font-size="11.00" fill="white">Intercepts Prefill</text>
</g>
<!-- req&#45;&gt;integ2 -->
<g id="edge1" class="edge">
<title>req&#45;&gt;integ2</title>
<path fill="none" stroke="#4caf50" stroke-width="2" d="M350.38,-942.38C350.38,-942.38 350.38,-897.92 350.38,-897.92"/>
<polygon fill="#4caf50" stroke="#4caf50" stroke-width="2" points="353.88,-897.92 350.38,-887.92 346.88,-897.92 353.88,-897.92"/>
</g>
<!-- lookup -->
<g id="node3" class="node">
<title>lookup</title>
<path fill="#2e7d32" stroke="black" d="M388,-790.5C388,-790.5 312.75,-790.5 312.75,-790.5 306.75,-790.5 300.75,-784.5 300.75,-778.5 300.75,-778.5 300.75,-766.5 300.75,-766.5 300.75,-760.5 306.75,-754.5 312.75,-754.5 312.75,-754.5 388,-754.5 388,-754.5 394,-754.5 400,-760.5 400,-766.5 400,-766.5 400,-778.5 400,-778.5 400,-784.5 394,-790.5 388,-790.5"/>
<text xml:space="preserve" text-anchor="middle" x="350.38" y="-775.55" font-family="Arial Bold" font-size="11.00" fill="white">Token Database</text>
<text xml:space="preserve" text-anchor="middle" x="350.38" y="-762.05" font-family="Arial Bold" font-size="11.00" fill="white">Lookup</text>
</g>
<!-- integ2&#45;&gt;lookup -->
<g id="edge2" class="edge">
<title>integ2&#45;&gt;lookup</title>
<path fill="none" stroke="#2e7d32" stroke-width="2" d="M350.38,-848.38C350.38,-848.38 350.38,-803.92 350.38,-803.92"/>
<polygon fill="#2e7d32" stroke="#2e7d32" stroke-width="2" points="353.88,-803.92 350.38,-793.92 346.88,-803.92 353.88,-803.92"/>
</g>
<!-- hit_miss -->
<g id="node4" class="node">
<title>hit_miss</title>
<polygon fill="#c62828" stroke="black" points="277.38,-696.5 232.12,-664.5 277.38,-632.5 322.62,-664.5 277.38,-696.5"/>
<text xml:space="preserve" text-anchor="middle" x="277.38" y="-667" font-family="Arial Bold" font-size="10.00" fill="white">Cache</text>
<text xml:space="preserve" text-anchor="middle" x="277.38" y="-655" font-family="Arial Bold" font-size="10.00" fill="white">Hit?</text>
</g>
<!-- lookup&#45;&gt;hit_miss -->
<g id="edge3" class="edge">
<title>lookup&#45;&gt;hit_miss</title>
<path fill="none" stroke="#2e7d32" stroke-width="2" d="M311.69,-754.18C311.69,-754.18 311.69,-685.84 311.69,-685.84"/>
<polygon fill="#2e7d32" stroke="#2e7d32" stroke-width="2" points="315.19,-685.84 311.69,-675.84 308.19,-685.84 315.19,-685.84"/>
</g>
<!-- blend_dec -->
<g id="node14" class="node">
<title>blend_dec</title>
<polygon fill="#c62828" stroke="black" points="425.38,-696.5 359.88,-664.5 425.38,-632.5 490.88,-664.5 425.38,-696.5"/>
<text xml:space="preserve" text-anchor="middle" x="425.38" y="-667" font-family="Arial Bold" font-size="10.00" fill="white">Non&#45;Prefix</text>
<text xml:space="preserve" text-anchor="middle" x="425.38" y="-655" font-family="Arial Bold" font-size="10.00" fill="white">Reuse?</text>
</g>
<!-- lookup&#45;&gt;blend_dec -->
<g id="edge16" class="edge">
<title>lookup&#45;&gt;blend_dec</title>
<path fill="none" stroke="#6a1b9a" stroke-width="1.5" stroke-dasharray="5,2" d="M379.94,-754.18C379.94,-754.18 379.94,-687.02 379.94,-687.02"/>
<polygon fill="#6a1b9a" stroke="#6a1b9a" stroke-width="1.5" points="383.44,-687.02 379.94,-677.02 376.44,-687.02 383.44,-687.02"/>
</g>
<!-- retrieve -->
<g id="node5" class="node">
<title>retrieve</title>
<path fill="#2e7d32" stroke="black" d="M327,-574.5C327,-574.5 227.75,-574.5 227.75,-574.5 221.75,-574.5 215.75,-568.5 215.75,-562.5 215.75,-562.5 215.75,-542.5 215.75,-542.5 215.75,-536.5 221.75,-530.5 227.75,-530.5 227.75,-530.5 327,-530.5 327,-530.5 333,-530.5 339,-536.5 339,-542.5 339,-542.5 339,-562.5 339,-562.5 339,-568.5 333,-574.5 327,-574.5"/>
<text xml:space="preserve" text-anchor="middle" x="277.38" y="-561" font-family="Arial" font-size="10.00" fill="white">Retrieve KV from</text>
<text xml:space="preserve" text-anchor="middle" x="277.38" y="-549" font-family="Arial" font-size="10.00" fill="white">L1 (CPU/SSD/GDS) or</text>
<text xml:space="preserve" text-anchor="middle" x="277.38" y="-537" font-family="Arial" font-size="10.00" fill="white">L2 (Redis/S3/P2P/NIXL)</text>
</g>
<!-- hit_miss&#45;&gt;retrieve -->
<g id="edge4" class="edge">
<title>hit_miss&#45;&gt;retrieve</title>
<path fill="none" stroke="#2e7d32" stroke-width="2" d="M277.38,-632.1C277.38,-632.1 277.38,-587.91 277.38,-587.91"/>
<polygon fill="#2e7d32" stroke="#2e7d32" stroke-width="2" points="280.88,-587.91 277.38,-577.91 273.88,-587.91 280.88,-587.91"/>
<text xml:space="preserve" text-anchor="middle" x="267.25" y="-613.21" font-family="Times New Roman,serif" font-size="14.00">Yes</text>
</g>
<!-- compute -->
<g id="node8" class="node">
<title>compute</title>
<path fill="#e65100" stroke="black" d="M167.62,-570.5C167.62,-570.5 63.12,-570.5 63.12,-570.5 57.13,-570.5 51.12,-564.5 51.12,-558.5 51.12,-558.5 51.12,-546.5 51.12,-546.5 51.12,-540.5 57.12,-534.5 63.12,-534.5 63.12,-534.5 167.62,-534.5 167.62,-534.5 173.62,-534.5 179.62,-540.5 179.62,-546.5 179.62,-546.5 179.62,-558.5 179.62,-558.5 179.62,-564.5 173.62,-570.5 167.62,-570.5"/>
<text xml:space="preserve" text-anchor="middle" x="115.38" y="-555" font-family="Arial" font-size="10.00" fill="white">Compute Prefill</text>
<text xml:space="preserve" text-anchor="middle" x="115.38" y="-543" font-family="Arial" font-size="10.00" fill="white">Generate New KV Blocks</text>
</g>
<!-- hit_miss&#45;&gt;compute -->
<g id="edge8" class="edge">
<title>hit_miss&#45;&gt;compute</title>
<path fill="none" stroke="#e65100" stroke-width="2" d="M231.39,-664.5C183.49,-664.5 115.38,-664.5 115.38,-664.5 115.38,-664.5 115.38,-584.02 115.38,-584.02"/>
<polygon fill="#e65100" stroke="#e65100" stroke-width="2" points="118.88,-584.02 115.38,-574.02 111.88,-584.02 118.88,-584.02"/>
<text xml:space="preserve" text-anchor="middle" x="124.89" y="-667.7" font-family="Times New Roman,serif" font-size="14.00">No</text>
</g>
<!-- codec_hit -->
<g id="node6" class="node">
<title>codec_hit</title>
<path fill="#6a1b9a" stroke="black" d="M314.25,-468.5C314.25,-468.5 222.5,-468.5 222.5,-468.5 216.5,-468.5 210.5,-462.5 210.5,-456.5 210.5,-456.5 210.5,-444.5 210.5,-444.5 210.5,-438.5 216.5,-432.5 222.5,-432.5 222.5,-432.5 314.25,-432.5 314.25,-432.5 320.25,-432.5 326.25,-438.5 326.25,-444.5 326.25,-444.5 326.25,-456.5 326.25,-456.5 326.25,-462.5 320.25,-468.5 314.25,-468.5"/>
<text xml:space="preserve" text-anchor="middle" x="268.38" y="-453" font-family="Arial" font-size="10.00" fill="white">KV Codec</text>
<text xml:space="preserve" text-anchor="middle" x="268.38" y="-441" font-family="Arial" font-size="10.00" fill="white">Decompress (SERDE)</text>
</g>
<!-- retrieve&#45;&gt;codec_hit -->
<g id="edge5" class="edge">
<title>retrieve&#45;&gt;codec_hit</title>
<path fill="none" stroke="#2e7d32" stroke-width="2" d="M271,-530.12C271,-530.12 271,-481.78 271,-481.78"/>
<polygon fill="#2e7d32" stroke="#2e7d32" stroke-width="2" points="274.5,-481.78 271,-471.78 267.5,-481.78 274.5,-481.78"/>
</g>
<!-- deliver_hit -->
<g id="node7" class="node">
<title>deliver_hit</title>
<polygon fill="#7b1fa2" stroke="black" points="367.62,-370.5 251.12,-370.5 251.12,-334.5 367.62,-334.5 367.62,-370.5"/>
<text xml:space="preserve" text-anchor="middle" x="309.38" y="-355.55" font-family="Arial" font-size="11.00" fill="white">Deliver KV to Engine</text>
<text xml:space="preserve" text-anchor="middle" x="309.38" y="-342.05" font-family="Arial" font-size="11.00" fill="white">for Decode</text>
</g>
<!-- codec_hit&#45;&gt;deliver_hit -->
<g id="edge6" class="edge">
<title>codec_hit&#45;&gt;deliver_hit</title>
<path fill="none" stroke="#6a1b9a" stroke-width="2" d="M288.69,-432.07C288.69,-432.07 288.69,-383.88 288.69,-383.88"/>
<polygon fill="#6a1b9a" stroke="#6a1b9a" stroke-width="2" points="292.19,-383.88 288.69,-373.88 285.19,-383.88 292.19,-383.88"/>
</g>
<!-- response -->
<g id="node16" class="node">
<title>response</title>
<polygon fill="#7b1fa2" stroke="black" points="273.12,-60.5 159.62,-60.5 159.62,-24.5 273.12,-24.5 273.12,-60.5"/>
<text xml:space="preserve" text-anchor="middle" x="216.38" y="-45.55" font-family="Arial" font-size="11.00" fill="white">Response Delivered</text>
<text xml:space="preserve" text-anchor="middle" x="216.38" y="-32.05" font-family="Arial" font-size="11.00" fill="white">to User</text>
</g>
<!-- deliver_hit&#45;&gt;response -->
<g id="edge7" class="edge">
<title>deliver_hit&#45;&gt;response</title>
<path fill="none" stroke="#7b1fa2" stroke-width="2" d="M263.75,-334.04C263.75,-334.04 263.75,-73.89 263.75,-73.89"/>
<polygon fill="#7b1fa2" stroke="#7b1fa2" stroke-width="2" points="267.25,-73.89 263.75,-63.89 260.25,-73.89 267.25,-73.89"/>
</g>
<!-- codec_miss -->
<g id="node9" class="node">
<title>codec_miss</title>
<path fill="#6a1b9a" stroke="black" d="M154.5,-468.5C154.5,-468.5 76.25,-468.5 76.25,-468.5 70.25,-468.5 64.25,-462.5 64.25,-456.5 64.25,-456.5 64.25,-444.5 64.25,-444.5 64.25,-438.5 70.25,-432.5 76.25,-432.5 76.25,-432.5 154.5,-432.5 154.5,-432.5 160.5,-432.5 166.5,-438.5 166.5,-444.5 166.5,-444.5 166.5,-456.5 166.5,-456.5 166.5,-462.5 160.5,-468.5 154.5,-468.5"/>
<text xml:space="preserve" text-anchor="middle" x="115.38" y="-453" font-family="Arial" font-size="10.00" fill="white">KV Codec</text>
<text xml:space="preserve" text-anchor="middle" x="115.38" y="-441" font-family="Arial" font-size="10.00" fill="white">Compress (K16/V8)</text>
</g>
<!-- compute&#45;&gt;codec_miss -->
<g id="edge9" class="edge">
<title>compute&#45;&gt;codec_miss</title>
<path fill="none" stroke="#e65100" stroke-width="2" d="M115.38,-534.26C115.38,-534.26 115.38,-481.95 115.38,-481.95"/>
<polygon fill="#e65100" stroke="#e65100" stroke-width="2" points="118.88,-481.95 115.38,-471.95 111.88,-481.95 118.88,-481.95"/>
</g>
<!-- store -->
<g id="node10" class="node">
<title>store</title>
<path fill="#e65100" stroke="black" d="M158.62,-370.5C158.62,-370.5 72.12,-370.5 72.12,-370.5 66.12,-370.5 60.12,-364.5 60.12,-358.5 60.12,-358.5 60.12,-346.5 60.12,-346.5 60.12,-340.5 66.12,-334.5 72.12,-334.5 72.12,-334.5 158.62,-334.5 158.62,-334.5 164.62,-334.5 170.62,-340.5 170.62,-346.5 170.62,-346.5 170.62,-358.5 170.62,-358.5 170.62,-364.5 164.62,-370.5 158.62,-370.5"/>
<text xml:space="preserve" text-anchor="middle" x="115.38" y="-355" font-family="Arial" font-size="10.00" fill="white">Store in Tiered Cache</text>
<text xml:space="preserve" text-anchor="middle" x="115.38" y="-343" font-family="Arial" font-size="10.00" fill="white">L1 first, offload to L2</text>
</g>
<!-- codec_miss&#45;&gt;store -->
<g id="edge10" class="edge">
<title>codec_miss&#45;&gt;store</title>
<path fill="none" stroke="#6a1b9a" stroke-width="2" d="M115.38,-432.07C115.38,-432.07 115.38,-383.88 115.38,-383.88"/>
<polygon fill="#6a1b9a" stroke="#6a1b9a" stroke-width="2" points="118.88,-383.88 115.38,-373.88 111.88,-383.88 118.88,-383.88"/>
</g>
<!-- pd_dec -->
<g id="node11" class="node">
<title>pd_dec</title>
<polygon fill="#c62828" stroke="black" points="115.38,-276.5 22.12,-244.5 115.37,-212.5 208.62,-244.5 115.38,-276.5"/>
<text xml:space="preserve" text-anchor="middle" x="115.38" y="-247" font-family="Arial Bold" font-size="10.00" fill="white">PD</text>
<text xml:space="preserve" text-anchor="middle" x="115.38" y="-235" font-family="Arial Bold" font-size="10.00" fill="white">Disaggregation?</text>
</g>
<!-- store&#45;&gt;pd_dec -->
<g id="edge11" class="edge">
<title>store&#45;&gt;pd_dec</title>
<path fill="none" stroke="#e65100" stroke-width="2" d="M115.38,-334.18C115.38,-334.18 115.38,-289.94 115.38,-289.94"/>
<polygon fill="#e65100" stroke="#e65100" stroke-width="2" points="118.88,-289.94 115.38,-279.94 111.88,-289.94 118.88,-289.94"/>
</g>
<!-- transfer_kv -->
<g id="node12" class="node">
<title>transfer_kv</title>
<path fill="#6a1b9a" stroke="black" d="M130.75,-154.5C130.75,-154.5 12,-154.5 12,-154.5 6,-154.5 0,-148.5 0,-142.5 0,-142.5 0,-130.5 0,-130.5 0,-124.5 6,-118.5 12,-118.5 12,-118.5 130.75,-118.5 130.75,-118.5 136.75,-118.5 142.75,-124.5 142.75,-130.5 142.75,-130.5 142.75,-142.5 142.75,-142.5 142.75,-148.5 136.75,-154.5 130.75,-154.5"/>
<text xml:space="preserve" text-anchor="middle" x="71.38" y="-139" font-family="Arial" font-size="10.00" fill="white">Transfer KV via NIXL/RDMA</text>
<text xml:space="preserve" text-anchor="middle" x="71.38" y="-127" font-family="Arial" font-size="10.00" fill="white">to Decode Worker</text>
</g>
<!-- pd_dec&#45;&gt;transfer_kv -->
<g id="edge12" class="edge">
<title>pd_dec&#45;&gt;transfer_kv</title>
<path fill="none" stroke="#6a1b9a" stroke-width="2" d="M82.44,-223.42C82.44,-223.42 82.44,-167.68 82.44,-167.68"/>
<polygon fill="#6a1b9a" stroke="#6a1b9a" stroke-width="2" points="85.94,-167.68 82.44,-157.68 78.94,-167.68 85.94,-167.68"/>
<text xml:space="preserve" text-anchor="middle" x="72.31" y="-198.75" font-family="Times New Roman,serif" font-size="14.00">Yes</text>
</g>
<!-- local_decode -->
<g id="node13" class="node">
<title>local_decode</title>
<path fill="#2e7d32" stroke="black" d="M242.38,-154.5C242.38,-154.5 190.38,-154.5 190.38,-154.5 184.38,-154.5 178.38,-148.5 178.38,-142.5 178.38,-142.5 178.38,-130.5 178.38,-130.5 178.38,-124.5 184.38,-118.5 190.38,-118.5 190.38,-118.5 242.38,-118.5 242.38,-118.5 248.38,-118.5 254.38,-124.5 254.38,-130.5 254.38,-130.5 254.38,-142.5 254.38,-142.5 254.38,-148.5 248.38,-154.5 242.38,-154.5"/>
<text xml:space="preserve" text-anchor="middle" x="216.38" y="-133" font-family="Arial" font-size="10.00" fill="white">Local Decode</text>
</g>
<!-- pd_dec&#45;&gt;local_decode -->
<g id="edge13" class="edge">
<title>pd_dec&#45;&gt;local_decode</title>
<path fill="none" stroke="#2e7d32" stroke-width="2" d="M193.5,-239C193.5,-239 193.5,-168.01 193.5,-168.01"/>
<polygon fill="#2e7d32" stroke="#2e7d32" stroke-width="2" points="197,-168.01 193.5,-158.01 190,-168.01 197,-168.01"/>
<text xml:space="preserve" text-anchor="middle" x="185.25" y="-190.2" font-family="Times New Roman,serif" font-size="14.00">No</text>
</g>
<!-- transfer_kv&#45;&gt;response -->
<g id="edge14" class="edge">
<title>transfer_kv&#45;&gt;response</title>
<path fill="none" stroke="#6a1b9a" stroke-width="2" d="M143.09,-136.5C157.85,-136.5 169,-136.5 169,-136.5 169,-136.5 169,-73.65 169,-73.65"/>
<polygon fill="#6a1b9a" stroke="#6a1b9a" stroke-width="2" points="172.5,-73.65 169,-63.65 165.5,-73.65 172.5,-73.65"/>
</g>
<!-- local_decode&#45;&gt;response -->
<g id="edge15" class="edge">
<title>local_decode&#45;&gt;response</title>
<path fill="none" stroke="#2e7d32" stroke-width="2" d="M216.38,-118.38C216.38,-118.38 216.38,-73.92 216.38,-73.92"/>
<polygon fill="#2e7d32" stroke="#2e7d32" stroke-width="2" points="219.88,-73.92 216.38,-63.92 212.88,-73.92 219.88,-73.92"/>
</g>
<!-- blend -->
<g id="node15" class="node">
<title>blend</title>
<path fill="#6a1b9a" stroke="black" d="M500.88,-472.5C500.88,-472.5 373.88,-472.5 373.88,-472.5 367.88,-472.5 361.88,-466.5 361.88,-460.5 361.88,-460.5 361.88,-440.5 361.88,-440.5 361.88,-434.5 367.88,-428.5 373.88,-428.5 373.88,-428.5 500.88,-428.5 500.88,-428.5 506.88,-428.5 512.88,-434.5 512.88,-440.5 512.88,-440.5 512.88,-460.5 512.88,-460.5 512.88,-466.5 506.88,-472.5 500.88,-472.5"/>
<text xml:space="preserve" text-anchor="middle" x="437.38" y="-459" font-family="Arial" font-size="10.00" fill="white">Cacheblend: Identify</text>
<text xml:space="preserve" text-anchor="middle" x="437.38" y="-447" font-family="Arial" font-size="10.00" fill="white">Reusable Blocks at Any</text>
<text xml:space="preserve" text-anchor="middle" x="437.38" y="-435" font-family="Arial" font-size="10.00" fill="white">Position, Selective Recompute</text>
</g>
<!-- blend_dec&#45;&gt;blend -->
<g id="edge17" class="edge">
<title>blend_dec&#45;&gt;blend</title>
<path fill="none" stroke="#6a1b9a" stroke-width="2" d="M426.38,-632.46C426.38,-632.46 426.38,-485.94 426.38,-485.94"/>
<polygon fill="#6a1b9a" stroke="#6a1b9a" stroke-width="2" points="429.88,-485.94 426.38,-475.94 422.88,-485.94 429.88,-485.94"/>
<text xml:space="preserve" text-anchor="middle" x="416.25" y="-562.4" font-family="Times New Roman,serif" font-size="14.00">Yes</text>
</g>
<!-- blend&#45;&gt;deliver_hit -->
<g id="edge18" class="edge">
<title>blend&#45;&gt;deliver_hit</title>
<path fill="none" stroke="#6a1b9a" stroke-width="1.5" stroke-dasharray="5,2" d="M361.66,-450.5C354.27,-450.5 349.44,-450.5 349.44,-450.5 349.44,-450.5 349.44,-383.2 349.44,-383.2"/>
<polygon fill="#6a1b9a" stroke="#6a1b9a" stroke-width="1.5" points="352.94,-383.2 349.44,-373.2 345.94,-383.2 352.94,-383.2"/>
</g>
</g>
</svg>
