<?xml version="1.0" encoding="UTF-8" standalone="no"?>
<!DOCTYPE svg PUBLIC "-//W3C//DTD SVG 1.1//EN"
 "http://www.w3.org/Graphics/SVG/1.1/DTD/svg11.dtd">
<!-- Generated by graphviz version 14.1.4 (20260321.0153)
 -->
<!-- Title: puremac_comparison Pages: 1 -->
<svg width="403pt" height="911pt"
 viewBox="0.00 0.00 403.00 911.00" xmlns="http://www.w3.org/2000/svg" xmlns:xlink="http://www.w3.org/1999/xlink">
<g id="graph0" class="graph" transform="scale(1 1) rotate(0) translate(4 907)">
<title>puremac_comparison</title>
<polygon fill="white" stroke="none" points="-4,4 -4,-907 399.12,-907 399.12,4 -4,4"/>
<!-- title -->
<g id="node1" class="node">
<title>title</title>
<path fill="#1e293b" stroke="black" stroke-width="3" d="M347.62,-903C347.62,-903 159.12,-903 159.12,-903 153.12,-903 147.12,-897 147.12,-891 147.12,-891 147.12,-879 147.12,-879 147.12,-873 153.12,-867 159.12,-867 159.12,-867 347.62,-867 347.62,-867 353.62,-867 359.62,-873 359.62,-879 359.62,-879 359.62,-891 359.62,-891 359.62,-897 353.62,-903 347.62,-903"/>
<text xml:space="preserve" text-anchor="middle" x="253.38" y="-879.92" font-family="Helvetica Bold" font-size="16.00" fill="white">PureMac vs CleanMyMac</text>
</g>
<!-- pm_header -->
<g id="node2" class="node">
<title>pm_header</title>
<path fill="#059669" stroke="black" stroke-width="2" d="M221.12,-817C221.12,-817 173.62,-817 173.62,-817 167.62,-817 161.62,-811 161.62,-805 161.62,-805 161.62,-793 161.62,-793 161.62,-787 167.62,-781 173.62,-781 173.62,-781 221.12,-781 221.12,-781 227.12,-781 233.12,-787 233.12,-793 233.12,-793 233.12,-805 233.12,-805 233.12,-811 227.12,-817 221.12,-817"/>
<text xml:space="preserve" text-anchor="middle" x="197.38" y="-794.9" font-family="Helvetica Bold" font-size="13.00" fill="white">PureMac</text>
</g>
<!-- title&#45;&gt;pm_header -->
<g id="edge1" class="edge">
<title>title&#45;&gt;pm_header</title>
<path fill="none" stroke="#059669" stroke-width="2" d="M197.38,-865.91C197.38,-865.91 197.38,-830.76 197.38,-830.76"/>
<polygon fill="#059669" stroke="#059669" stroke-width="2" points="200.88,-830.76 197.38,-820.76 193.88,-830.76 200.88,-830.76"/>
</g>
<!-- cm_header -->
<g id="node3" class="node">
<title>cm_header</title>
<path fill="#dc2626" stroke="black" stroke-width="2" d="M346.5,-817C346.5,-817 274.25,-817 274.25,-817 268.25,-817 262.25,-811 262.25,-805 262.25,-805 262.25,-793 262.25,-793 262.25,-787 268.25,-781 274.25,-781 274.25,-781 346.5,-781 346.5,-781 352.5,-781 358.5,-787 358.5,-793 358.5,-793 358.5,-805 358.5,-805 358.5,-811 352.5,-817 346.5,-817"/>
<text xml:space="preserve" text-anchor="middle" x="310.38" y="-794.9" font-family="Helvetica Bold" font-size="13.00" fill="white">CleanMyMac</text>
</g>
<!-- title&#45;&gt;cm_header -->
<g id="edge2" class="edge">
<title>title&#45;&gt;cm_header</title>
<path fill="none" stroke="#dc2626" stroke-width="2" d="M310.38,-865.91C310.38,-865.91 310.38,-830.76 310.38,-830.76"/>
<polygon fill="#dc2626" stroke="#dc2626" stroke-width="2" points="313.88,-830.76 310.38,-820.76 306.88,-830.76 313.88,-830.76"/>
</g>
<!-- pm_price -->
<g id="node5" class="node">
<title>pm_price</title>
<path fill="#d1fae5" stroke="black" stroke-width="1.5" d="M224.88,-731C224.88,-731 175.88,-731 175.88,-731 169.88,-731 163.88,-725 163.88,-719 163.88,-719 163.88,-707 163.88,-707 163.88,-701 169.88,-695 175.88,-695 175.88,-695 224.88,-695 224.88,-695 230.88,-695 236.88,-701 236.88,-707 236.88,-707 236.88,-719 236.88,-719 236.88,-725 230.88,-731 224.88,-731"/>
<text xml:space="preserve" text-anchor="middle" x="200.38" y="-715.5" font-family="Helvetica,sans-Serif" font-size="10.00" fill="#064e3b">Free &amp;</text>
<text xml:space="preserve" text-anchor="middle" x="200.38" y="-703.5" font-family="Helvetica,sans-Serif" font-size="10.00" fill="#064e3b">Open Source</text>
</g>
<!-- pm_header&#45;&gt;pm_price -->
<!-- cm_price -->
<g id="node6" class="node">
<title>cm_price</title>
<path fill="#fee2e2" stroke="black" stroke-width="1.5" d="M330.38,-731C330.38,-731 284.38,-731 284.38,-731 278.38,-731 272.38,-725 272.38,-719 272.38,-719 272.38,-707 272.38,-707 272.38,-701 278.38,-695 284.38,-695 284.38,-695 330.38,-695 330.38,-695 336.38,-695 342.38,-701 342.38,-707 342.38,-707 342.38,-719 342.38,-719 342.38,-725 336.38,-731 330.38,-731"/>
<text xml:space="preserve" text-anchor="middle" x="307.38" y="-715.5" font-family="Helvetica,sans-Serif" font-size="10.00" fill="#7f1d1d">$90/year</text>
<text xml:space="preserve" text-anchor="middle" x="307.38" y="-703.5" font-family="Helvetica,sans-Serif" font-size="10.00" fill="#7f1d1d">Subscription</text>
</g>
<!-- cm_header&#45;&gt;cm_price -->
<!-- feat_price -->
<g id="node4" class="node">
<title>feat_price</title>
<path fill="#f1f5f9" stroke="black" stroke-width="1.5" d="M122.38,-731C122.38,-731 92.38,-731 92.38,-731 86.38,-731 80.38,-725 80.38,-719 80.38,-719 80.38,-707 80.38,-707 80.38,-701 86.38,-695 92.38,-695 92.38,-695 122.38,-695 122.38,-695 128.38,-695 134.38,-701 134.38,-707 134.38,-707 134.38,-719 134.38,-719 134.38,-725 128.38,-731 122.38,-731"/>
<text xml:space="preserve" text-anchor="middle" x="107.38" y="-709.67" font-family="Helvetica Bold" font-size="11.00" fill="#334155">Price</text>
</g>
<!-- feat_price&#45;&gt;pm_price -->
<g id="edge3" class="edge">
<title>feat_price&#45;&gt;pm_price</title>
<path fill="none" stroke="#059669" stroke-width="1.5" d="M135.03,-713C135.03,-713 151.09,-713 151.09,-713"/>
<polygon fill="#059669" stroke="#059669" stroke-width="1.5" points="151.09,-716.5 161.09,-713 151.09,-709.5 151.09,-716.5"/>
</g>
<!-- feat_price&#45;&gt;cm_price -->
<g id="edge4" class="edge">
<title>feat_price&#45;&gt;cm_price</title>
<path fill="none" stroke="#dc2626" stroke-width="1.5" d="M107.38,-731.74C107.38,-743.32 107.38,-756 107.38,-756 107.38,-756 295.71,-756 295.71,-756 295.71,-756 295.71,-744.01 295.71,-744.01"/>
<polygon fill="#dc2626" stroke="#dc2626" stroke-width="1.5" points="299.21,-744.01 295.71,-734.01 292.21,-744.01 299.21,-744.01"/>
</g>
<!-- feat_open_src -->
<g id="node7" class="node">
<title>feat_open_src</title>
<path fill="#f1f5f9" stroke="black" stroke-width="1.5" d="M137.88,-645C137.88,-645 76.88,-645 76.88,-645 70.88,-645 64.88,-639 64.88,-633 64.88,-633 64.88,-621 64.88,-621 64.88,-615 70.88,-609 76.88,-609 76.88,-609 137.88,-609 137.88,-609 143.88,-609 149.88,-615 149.88,-621 149.88,-621 149.88,-633 149.88,-633 149.88,-639 143.88,-645 137.88,-645"/>
<text xml:space="preserve" text-anchor="middle" x="107.38" y="-623.67" font-family="Helvetica Bold" font-size="11.00" fill="#334155">Open Source</text>
</g>
<!-- feat_price&#45;&gt;feat_open_src -->
<g id="edge9" class="edge">
<title>feat_price&#45;&gt;feat_open_src</title>
<path fill="none" stroke="#475569" stroke-width="1.5" d="M107.38,-694.34C107.38,-694.34 107.38,-657.89 107.38,-657.89"/>
<polygon fill="#475569" stroke="#475569" stroke-width="1.5" points="110.88,-657.89 107.38,-647.89 103.88,-657.89 110.88,-657.89"/>
</g>
<!-- pm_open_src -->
<g id="node8" class="node">
<title>pm_open_src</title>
<path fill="#d1fae5" stroke="black" stroke-width="1.5" d="M237.38,-645C237.38,-645 191.38,-645 191.38,-645 185.38,-645 179.38,-639 179.38,-633 179.38,-633 179.38,-621 179.38,-621 179.38,-615 185.38,-609 191.38,-609 191.38,-609 237.38,-609 237.38,-609 243.38,-609 249.38,-615 249.38,-621 249.38,-621 249.38,-633 249.38,-633 249.38,-639 243.38,-645 237.38,-645"/>
<text xml:space="preserve" text-anchor="middle" x="214.38" y="-629.5" font-family="Helvetica,sans-Serif" font-size="10.00" fill="#064e3b">Yes</text>
<text xml:space="preserve" text-anchor="middle" x="214.38" y="-617.5" font-family="Helvetica,sans-Serif" font-size="10.00" fill="#064e3b">MIT License</text>
</g>
<!-- feat_open_src&#45;&gt;pm_open_src -->
<g id="edge7" class="edge">
<title>feat_open_src&#45;&gt;pm_open_src</title>
<path fill="none" stroke="#059669" stroke-width="1.5" d="M150.59,-627C150.59,-627 166.61,-627 166.61,-627"/>
<polygon fill="#059669" stroke="#059669" stroke-width="1.5" points="166.61,-630.5 176.61,-627 166.61,-623.5 166.61,-630.5"/>
</g>
<!-- cm_open_src -->
<g id="node9" class="node">
<title>cm_open_src</title>
<path fill="#fee2e2" stroke="black" stroke-width="1.5" d="M330,-645C330,-645 290.75,-645 290.75,-645 284.75,-645 278.75,-639 278.75,-633 278.75,-633 278.75,-621 278.75,-621 278.75,-615 284.75,-609 290.75,-609 290.75,-609 330,-609 330,-609 336,-609 342,-615 342,-621 342,-621 342,-633 342,-633 342,-639 336,-645 330,-645"/>
<text xml:space="preserve" text-anchor="middle" x="310.38" y="-629.5" font-family="Helvetica,sans-Serif" font-size="10.00" fill="#7f1d1d">No</text>
<text xml:space="preserve" text-anchor="middle" x="310.38" y="-617.5" font-family="Helvetica,sans-Serif" font-size="10.00" fill="#7f1d1d">Proprietary</text>
</g>
<!-- feat_open_src&#45;&gt;cm_open_src -->
<g id="edge8" class="edge">
<title>feat_open_src&#45;&gt;cm_open_src</title>
<path fill="none" stroke="#dc2626" stroke-width="1.5" d="M140.75,-645.74C140.75,-657.32 140.75,-670 140.75,-670 140.75,-670 310.38,-670 310.38,-670 310.38,-670 310.38,-658.01 310.38,-658.01"/>
<polygon fill="#dc2626" stroke="#dc2626" stroke-width="1.5" points="313.88,-658.01 310.38,-648.01 306.88,-658.01 313.88,-658.01"/>
</g>
<!-- feat_telemetry -->
<g id="node10" class="node">
<title>feat_telemetry</title>
<path fill="#f1f5f9" stroke="black" stroke-width="1.5" d="M131.12,-559C131.12,-559 83.62,-559 83.62,-559 77.62,-559 71.62,-553 71.62,-547 71.62,-547 71.62,-535 71.62,-535 71.62,-529 77.62,-523 83.62,-523 83.62,-523 131.12,-523 131.12,-523 137.12,-523 143.12,-529 143.12,-535 143.12,-535 143.12,-547 143.12,-547 143.12,-553 137.12,-559 131.12,-559"/>
<text xml:space="preserve" text-anchor="middle" x="107.38" y="-537.67" font-family="Helvetica Bold" font-size="11.00" fill="#334155">Telemetry</text>
</g>
<!-- feat_open_src&#45;&gt;feat_telemetry -->
<g id="edge12" class="edge">
<title>feat_open_src&#45;&gt;feat_telemetry</title>
<path fill="none" stroke="#475569" stroke-width="1.5" d="M107.38,-608.34C107.38,-608.34 107.38,-571.89 107.38,-571.89"/>
<polygon fill="#475569" stroke="#475569" stroke-width="1.5" points="110.88,-571.89 107.38,-561.89 103.88,-571.89 110.88,-571.89"/>
</g>
<!-- pm_telemetry -->
<g id="node11" class="node">
<title>pm_telemetry</title>
<path fill="#d1fae5" stroke="black" stroke-width="1.5" d="M250.5,-559C250.5,-559 184.25,-559 184.25,-559 178.25,-559 172.25,-553 172.25,-547 172.25,-547 172.25,-535 172.25,-535 172.25,-529 178.25,-523 184.25,-523 184.25,-523 250.5,-523 250.5,-523 256.5,-523 262.5,-529 262.5,-535 262.5,-535 262.5,-547 262.5,-547 262.5,-553 256.5,-559 250.5,-559"/>
<text xml:space="preserve" text-anchor="middle" x="217.38" y="-543.5" font-family="Helvetica,sans-Serif" font-size="10.00" fill="#064e3b">Zero</text>
<text xml:space="preserve" text-anchor="middle" x="217.38" y="-531.5" font-family="Helvetica,sans-Serif" font-size="10.00" fill="#064e3b">No network code</text>
</g>
<!-- feat_telemetry&#45;&gt;pm_telemetry -->
<g id="edge10" class="edge">
<title>feat_telemetry&#45;&gt;pm_telemetry</title>
<path fill="none" stroke="#059669" stroke-width="1.5" d="M143.7,-541C143.7,-541 159.6,-541 159.6,-541"/>
<polygon fill="#059669" stroke="#059669" stroke-width="1.5" points="159.6,-544.5 169.6,-541 159.6,-537.5 159.6,-544.5"/>
</g>
<!-- cm_telemetry -->
<g id="node12" class="node">
<title>cm_telemetry</title>
<path fill="#fef3c7" stroke="black" stroke-width="1.5" d="M339.12,-559C339.12,-559 303.62,-559 303.62,-559 297.62,-559 291.62,-553 291.62,-547 291.62,-547 291.62,-535 291.62,-535 291.62,-529 297.62,-523 303.62,-523 303.62,-523 339.12,-523 339.12,-523 345.12,-523 351.12,-529 351.12,-535 351.12,-535 351.12,-547 351.12,-547 351.12,-553 345.12,-559 339.12,-559"/>
<text xml:space="preserve" text-anchor="middle" x="321.38" y="-543.5" font-family="Helvetica,sans-Serif" font-size="10.00" fill="#78350f">Unknown</text>
<text xml:space="preserve" text-anchor="middle" x="321.38" y="-531.5" font-family="Helvetica,sans-Serif" font-size="10.00" fill="#78350f">Black box</text>
</g>
<!-- feat_telemetry&#45;&gt;cm_telemetry -->
<g id="edge11" class="edge">
<title>feat_telemetry&#45;&gt;cm_telemetry</title>
<path fill="none" stroke="#dc2626" stroke-width="1.5" d="M125.25,-522.27C125.25,-513.95 125.25,-506 125.25,-506 125.25,-506 300.38,-506 300.38,-506 300.38,-506 300.38,-510 300.38,-510"/>
<polygon fill="#dc2626" stroke="#dc2626" stroke-width="1.5" points="296.88,-510 300.38,-520 303.88,-510 296.88,-510"/>
</g>
<!-- feat_uninstaller -->
<g id="node13" class="node">
<title>feat_uninstaller</title>
<path fill="#f1f5f9" stroke="black" stroke-width="1.5" d="M133,-473C133,-473 81.75,-473 81.75,-473 75.75,-473 69.75,-467 69.75,-461 69.75,-461 69.75,-448.5 69.75,-448.5 69.75,-442.5 75.75,-436.5 81.75,-436.5 81.75,-436.5 133,-436.5 133,-436.5 139,-436.5 145,-442.5 145,-448.5 145,-448.5 145,-461 145,-461 145,-467 139,-473 133,-473"/>
<text xml:space="preserve" text-anchor="middle" x="107.38" y="-458.55" font-family="Helvetica Bold" font-size="11.00" fill="#334155">App</text>
<text xml:space="preserve" text-anchor="middle" x="107.38" y="-444.3" font-family="Helvetica Bold" font-size="11.00" fill="#334155">Uninstaller</text>
</g>
<!-- feat_telemetry&#45;&gt;feat_uninstaller -->
<g id="edge15" class="edge">
<title>feat_telemetry&#45;&gt;feat_uninstaller</title>
<path fill="none" stroke="#475569" stroke-width="1.5" d="M89.5,-522.29C89.5,-522.29 89.5,-486 89.5,-486"/>
<polygon fill="#475569" stroke="#475569" stroke-width="1.5" points="93,-486 89.5,-476 86,-486 93,-486"/>
</g>
<!-- pm_uninstaller -->
<g id="node14" class="node">
<title>pm_uninstaller</title>
<path fill="#d1fae5" stroke="black" stroke-width="1.5" d="M264.5,-472.75C264.5,-472.75 186.25,-472.75 186.25,-472.75 180.25,-472.75 174.25,-466.75 174.25,-460.75 174.25,-460.75 174.25,-448.75 174.25,-448.75 174.25,-442.75 180.25,-436.75 186.25,-436.75 186.25,-436.75 264.5,-436.75 264.5,-436.75 270.5,-436.75 276.5,-442.75 276.5,-448.75 276.5,-448.75 276.5,-460.75 276.5,-460.75 276.5,-466.75 270.5,-472.75 264.5,-472.75"/>
<text xml:space="preserve" text-anchor="middle" x="225.38" y="-457.25" font-family="Helvetica,sans-Serif" font-size="10.00" fill="#064e3b">10&#45;Level Heuristic</text>
<text xml:space="preserve" text-anchor="middle" x="225.38" y="-445.25" font-family="Helvetica,sans-Serif" font-size="10.00" fill="#064e3b">3 Sensitivity Modes</text>
</g>
<!-- feat_uninstaller&#45;&gt;pm_uninstaller -->
<g id="edge13" class="edge">
<title>feat_uninstaller&#45;&gt;pm_uninstaller</title>
<path fill="none" stroke="#059669" stroke-width="1.5" d="M145.69,-455C145.69,-455 161.25,-455 161.25,-455"/>
<polygon fill="#059669" stroke="#059669" stroke-width="1.5" points="161.25,-458.5 171.25,-455 161.25,-451.5 161.25,-458.5"/>
</g>
<!-- cm_uninstaller -->
<g id="node15" class="node">
<title>cm_uninstaller</title>
<path fill="#fee2e2" stroke="black" stroke-width="1.5" d="M357,-472.75C357,-472.75 317.75,-472.75 317.75,-472.75 311.75,-472.75 305.75,-466.75 305.75,-460.75 305.75,-460.75 305.75,-448.75 305.75,-448.75 305.75,-442.75 311.75,-436.75 317.75,-436.75 317.75,-436.75 357,-436.75 357,-436.75 363,-436.75 369,-442.75 369,-448.75 369,-448.75 369,-460.75 369,-460.75 369,-466.75 363,-472.75 357,-472.75"/>
<text xml:space="preserve" text-anchor="middle" x="337.38" y="-457.25" font-family="Helvetica,sans-Serif" font-size="10.00" fill="#7f1d1d">Proprietary</text>
<text xml:space="preserve" text-anchor="middle" x="337.38" y="-445.25" font-family="Helvetica,sans-Serif" font-size="10.00" fill="#7f1d1d">Algorithm</text>
</g>
<!-- feat_uninstaller&#45;&gt;cm_uninstaller -->
<g id="edge14" class="edge">
<title>feat_uninstaller&#45;&gt;cm_uninstaller</title>
<path fill="none" stroke="#dc2626" stroke-width="1.5" d="M107.38,-473.61C107.38,-481.99 107.38,-490 107.38,-490 107.38,-490 328.44,-490 328.44,-490 328.44,-490 328.44,-485.47 328.44,-485.47"/>
<polygon fill="#dc2626" stroke="#dc2626" stroke-width="1.5" points="331.94,-485.47 328.44,-475.47 324.94,-485.47 331.94,-485.47"/>
</g>
<!-- feat_cli -->
<g id="node16" class="node">
<title>feat_cli</title>
<path fill="#f1f5f9" stroke="black" stroke-width="1.5" d="M129.25,-386.5C129.25,-386.5 85.5,-386.5 85.5,-386.5 79.5,-386.5 73.5,-380.5 73.5,-374.5 73.5,-374.5 73.5,-362.5 73.5,-362.5 73.5,-356.5 79.5,-350.5 85.5,-350.5 85.5,-350.5 129.25,-350.5 129.25,-350.5 135.25,-350.5 141.25,-356.5 141.25,-362.5 141.25,-362.5 141.25,-374.5 141.25,-374.5 141.25,-380.5 135.25,-386.5 129.25,-386.5"/>
<text xml:space="preserve" text-anchor="middle" x="107.38" y="-365.18" font-family="Helvetica Bold" font-size="11.00" fill="#334155">CLI Mode</text>
</g>
<!-- feat_uninstaller&#45;&gt;feat_cli -->
<g id="edge18" class="edge">
<title>feat_uninstaller&#45;&gt;feat_cli</title>
<path fill="none" stroke="#475569" stroke-width="1.5" d="M107.38,-436.04C107.38,-436.04 107.38,-399.45 107.38,-399.45"/>
<polygon fill="#475569" stroke="#475569" stroke-width="1.5" points="110.88,-399.45 107.38,-389.45 103.88,-399.45 110.88,-399.45"/>
</g>
<!-- pm_cli -->
<g id="node17" class="node">
<title>pm_cli</title>
<path fill="#d1fae5" stroke="black" stroke-width="1.5" d="M262.62,-386.5C262.62,-386.5 182.12,-386.5 182.12,-386.5 176.12,-386.5 170.12,-380.5 170.12,-374.5 170.12,-374.5 170.12,-362.5 170.12,-362.5 170.12,-356.5 176.12,-350.5 182.12,-350.5 182.12,-350.5 262.62,-350.5 262.62,-350.5 268.62,-350.5 274.62,-356.5 274.62,-362.5 274.62,-362.5 274.62,-374.5 274.62,-374.5 274.62,-380.5 268.62,-386.5 262.62,-386.5"/>
<text xml:space="preserve" text-anchor="middle" x="222.38" y="-371" font-family="Helvetica,sans-Serif" font-size="10.00" fill="#064e3b">Yes</text>
<text xml:space="preserve" text-anchor="middle" x="222.38" y="-359" font-family="Helvetica,sans-Serif" font-size="10.00" fill="#064e3b">puremac scan &#45;&#45;json</text>
</g>
<!-- feat_cli&#45;&gt;pm_cli -->
<g id="edge16" class="edge">
<title>feat_cli&#45;&gt;pm_cli</title>
<path fill="none" stroke="#059669" stroke-width="1.5" d="M141.88,-369C141.88,-369 157.33,-369 157.33,-369"/>
<polygon fill="#059669" stroke="#059669" stroke-width="1.5" points="157.33,-372.5 167.33,-369 157.33,-365.5 157.33,-372.5"/>
</g>
<!-- cm_cli -->
<g id="node18" class="node">
<title>cm_cli</title>
<path fill="#fee2e2" stroke="black" stroke-width="1.5" d="M349,-386.5C349,-386.5 315.75,-386.5 315.75,-386.5 309.75,-386.5 303.75,-380.5 303.75,-374.5 303.75,-374.5 303.75,-362.5 303.75,-362.5 303.75,-356.5 309.75,-350.5 315.75,-350.5 315.75,-350.5 349,-350.5 349,-350.5 355,-350.5 361,-356.5 361,-362.5 361,-362.5 361,-374.5 361,-374.5 361,-380.5 355,-386.5 349,-386.5"/>
<text xml:space="preserve" text-anchor="middle" x="332.38" y="-371" font-family="Helvetica,sans-Serif" font-size="10.00" fill="#7f1d1d">No</text>
<text xml:space="preserve" text-anchor="middle" x="332.38" y="-359" font-family="Helvetica,sans-Serif" font-size="10.00" fill="#7f1d1d">GUI Only</text>
</g>
<!-- feat_cli&#45;&gt;cm_cli -->
<g id="edge17" class="edge">
<title>feat_cli&#45;&gt;cm_cli</title>
<path fill="none" stroke="#dc2626" stroke-width="1.5" d="M107.38,-349.91C107.38,-335.16 107.38,-317 107.38,-317 107.38,-317 332.38,-317 332.38,-317 332.38,-317 332.38,-337.64 332.38,-337.64"/>
<polygon fill="#dc2626" stroke="#dc2626" stroke-width="1.5" points="328.88,-337.64 332.38,-347.64 335.88,-337.64 328.88,-337.64"/>
</g>
<!-- feat_signing -->
<g id="node19" class="node">
<title>feat_signing</title>
<path fill="#f1f5f9" stroke="black" stroke-width="1.5" d="M123.25,-300.5C123.25,-300.5 91.5,-300.5 91.5,-300.5 85.5,-300.5 79.5,-294.5 79.5,-288.5 79.5,-288.5 79.5,-276 79.5,-276 79.5,-270 85.5,-264 91.5,-264 91.5,-264 123.25,-264 123.25,-264 129.25,-264 135.25,-270 135.25,-276 135.25,-276 135.25,-288.5 135.25,-288.5 135.25,-294.5 129.25,-300.5 123.25,-300.5"/>
<text xml:space="preserve" text-anchor="middle" x="107.38" y="-286.05" font-family="Helvetica Bold" font-size="11.00" fill="#334155">Code</text>
<text xml:space="preserve" text-anchor="middle" x="107.38" y="-271.8" font-family="Helvetica Bold" font-size="11.00" fill="#334155">Signing</text>
</g>
<!-- feat_cli&#45;&gt;feat_signing -->
<g id="edge21" class="edge">
<title>feat_cli&#45;&gt;feat_signing</title>
<path fill="none" stroke="#475569" stroke-width="1.5" d="M93.44,-349.79C93.44,-349.79 93.44,-313.5 93.44,-313.5"/>
<polygon fill="#475569" stroke="#475569" stroke-width="1.5" points="96.94,-313.5 93.44,-303.5 89.94,-313.5 96.94,-313.5"/>
</g>
<!-- pm_signing -->
<g id="node20" class="node">
<title>pm_signing</title>
<path fill="#d1fae5" stroke="black" stroke-width="1.5" d="M252.75,-300.25C252.75,-300.25 176,-300.25 176,-300.25 170,-300.25 164,-294.25 164,-288.25 164,-288.25 164,-276.25 164,-276.25 164,-270.25 170,-264.25 176,-264.25 176,-264.25 252.75,-264.25 252.75,-264.25 258.75,-264.25 264.75,-270.25 264.75,-276.25 264.75,-276.25 264.75,-288.25 264.75,-288.25 264.75,-294.25 258.75,-300.25 252.75,-300.25"/>
<text xml:space="preserve" text-anchor="middle" x="214.38" y="-284.75" font-family="Helvetica,sans-Serif" font-size="10.00" fill="#064e3b">Yes</text>
<text xml:space="preserve" text-anchor="middle" x="214.38" y="-272.75" font-family="Helvetica,sans-Serif" font-size="10.00" fill="#064e3b">Signed &amp; Notarized</text>
</g>
<!-- feat_signing&#45;&gt;pm_signing -->
<g id="edge19" class="edge">
<title>feat_signing&#45;&gt;pm_signing</title>
<path fill="none" stroke="#059669" stroke-width="1.5" d="M135.77,-282C135.77,-282 151.23,-282 151.23,-282"/>
<polygon fill="#059669" stroke="#059669" stroke-width="1.5" points="151.23,-285.5 161.23,-282 151.23,-278.5 151.23,-285.5"/>
</g>
<!-- cm_signing -->
<g id="node21" class="node">
<title>cm_signing</title>
<path fill="#d1fae5" stroke="black" stroke-width="1.5" d="M383.12,-300.25C383.12,-300.25 305.62,-300.25 305.62,-300.25 299.62,-300.25 293.62,-294.25 293.62,-288.25 293.62,-288.25 293.62,-276.25 293.62,-276.25 293.62,-270.25 299.62,-264.25 305.62,-264.25 305.62,-264.25 383.12,-264.25 383.12,-264.25 389.12,-264.25 395.12,-270.25 395.12,-276.25 395.12,-276.25 395.12,-288.25 395.12,-288.25 395.12,-294.25 389.12,-300.25 383.12,-300.25"/>
<text xml:space="preserve" text-anchor="middle" x="344.38" y="-284.75" font-family="Helvetica,sans-Serif" font-size="10.00" fill="#064e3b">Yes</text>
<text xml:space="preserve" text-anchor="middle" x="344.38" y="-272.75" font-family="Helvetica,sans-Serif" font-size="10.00" fill="#064e3b">Apple Developer ID</text>
</g>
<!-- feat_signing&#45;&gt;cm_signing -->
<g id="edge20" class="edge">
<title>feat_signing&#45;&gt;cm_signing</title>
<path fill="none" stroke="#dc2626" stroke-width="1.5" d="M121.31,-301.23C121.31,-316 121.31,-334 121.31,-334 121.31,-334 297,-334 297,-334 297,-334 297,-313.2 297,-313.2"/>
<polygon fill="#dc2626" stroke="#dc2626" stroke-width="1.5" points="300.5,-313.2 297,-303.2 293.5,-313.2 300.5,-313.2"/>
</g>
<!-- feat_scheduled -->
<g id="node22" class="node">
<title>feat_scheduled</title>
<path fill="#f1f5f9" stroke="black" stroke-width="1.5" d="M131.5,-214C131.5,-214 83.25,-214 83.25,-214 77.25,-214 71.25,-208 71.25,-202 71.25,-202 71.25,-189.5 71.25,-189.5 71.25,-183.5 77.25,-177.5 83.25,-177.5 83.25,-177.5 131.5,-177.5 131.5,-177.5 137.5,-177.5 143.5,-183.5 143.5,-189.5 143.5,-189.5 143.5,-202 143.5,-202 143.5,-208 137.5,-214 131.5,-214"/>
<text xml:space="preserve" text-anchor="middle" x="107.38" y="-199.55" font-family="Helvetica Bold" font-size="11.00" fill="#334155">Scheduled</text>
<text xml:space="preserve" text-anchor="middle" x="107.38" y="-185.3" font-family="Helvetica Bold" font-size="11.00" fill="#334155">Cleaning</text>
</g>
<!-- feat_signing&#45;&gt;feat_scheduled -->
<g id="edge24" class="edge">
<title>feat_signing&#45;&gt;feat_scheduled</title>
<path fill="none" stroke="#475569" stroke-width="1.5" d="M107.38,-263.48C107.38,-263.48 107.38,-226.75 107.38,-226.75"/>
<polygon fill="#475569" stroke="#475569" stroke-width="1.5" points="110.88,-226.75 107.38,-216.75 103.88,-226.75 110.88,-226.75"/>
</g>
<!-- pm_scheduled -->
<g id="node23" class="node">
<title>pm_scheduled</title>
<path fill="#d1fae5" stroke="black" stroke-width="1.5" d="M252.62,-213.75C252.62,-213.75 184.12,-213.75 184.12,-213.75 178.12,-213.75 172.12,-207.75 172.12,-201.75 172.12,-201.75 172.12,-189.75 172.12,-189.75 172.12,-183.75 178.12,-177.75 184.12,-177.75 184.12,-177.75 252.62,-177.75 252.62,-177.75 258.62,-177.75 264.62,-183.75 264.62,-189.75 264.62,-189.75 264.62,-201.75 264.62,-201.75 264.62,-207.75 258.62,-213.75 252.62,-213.75"/>
<text xml:space="preserve" text-anchor="middle" x="218.38" y="-198.25" font-family="Helvetica,sans-Serif" font-size="10.00" fill="#064e3b">Yes</text>
<text xml:space="preserve" text-anchor="middle" x="218.38" y="-186.25" font-family="Helvetica,sans-Serif" font-size="10.00" fill="#064e3b">SchedulerService</text>
</g>
<!-- feat_scheduled&#45;&gt;pm_scheduled -->
<g id="edge22" class="edge">
<title>feat_scheduled&#45;&gt;pm_scheduled</title>
<path fill="none" stroke="#059669" stroke-width="1.5" d="M144.03,-196C144.03,-196 159.4,-196 159.4,-196"/>
<polygon fill="#059669" stroke="#059669" stroke-width="1.5" points="159.4,-199.5 169.4,-196 159.4,-192.5 159.4,-199.5"/>
</g>
<!-- cm_scheduled -->
<g id="node24" class="node">
<title>cm_scheduled</title>
<path fill="#d1fae5" stroke="black" stroke-width="1.5" d="M335.38,-213.75C335.38,-213.75 305.38,-213.75 305.38,-213.75 299.38,-213.75 293.38,-207.75 293.38,-201.75 293.38,-201.75 293.38,-189.75 293.38,-189.75 293.38,-183.75 299.38,-177.75 305.38,-177.75 305.38,-177.75 335.38,-177.75 335.38,-177.75 341.38,-177.75 347.38,-183.75 347.38,-189.75 347.38,-189.75 347.38,-201.75 347.38,-201.75 347.38,-207.75 341.38,-213.75 335.38,-213.75"/>
<text xml:space="preserve" text-anchor="middle" x="320.38" y="-198.25" font-family="Helvetica,sans-Serif" font-size="10.00" fill="#064e3b">Yes</text>
<text xml:space="preserve" text-anchor="middle" x="320.38" y="-186.25" font-family="Helvetica,sans-Serif" font-size="10.00" fill="#064e3b">Built&#45;in</text>
</g>
<!-- feat_scheduled&#45;&gt;cm_scheduled -->
<g id="edge23" class="edge">
<title>feat_scheduled&#45;&gt;cm_scheduled</title>
<path fill="none" stroke="#dc2626" stroke-width="1.5" d="M139.38,-177.15C139.38,-168.89 139.38,-161 139.38,-161 139.38,-161 318.12,-161 318.12,-161 318.12,-161 318.12,-164.88 318.12,-164.88"/>
<polygon fill="#dc2626" stroke="#dc2626" stroke-width="1.5" points="314.63,-164.88 318.13,-174.88 321.63,-164.88 314.63,-164.88"/>
</g>
<!-- feat_privacy -->
<g id="node25" class="node">
<title>feat_privacy</title>
<path fill="#f1f5f9" stroke="black" stroke-width="1.5" d="M123.25,-127.5C123.25,-127.5 91.5,-127.5 91.5,-127.5 85.5,-127.5 79.5,-121.5 79.5,-115.5 79.5,-115.5 79.5,-103 79.5,-103 79.5,-97 85.5,-91 91.5,-91 91.5,-91 123.25,-91 123.25,-91 129.25,-91 135.25,-97 135.25,-103 135.25,-103 135.25,-115.5 135.25,-115.5 135.25,-121.5 129.25,-127.5 123.25,-127.5"/>
<text xml:space="preserve" text-anchor="middle" x="107.38" y="-113.05" font-family="Helvetica Bold" font-size="11.00" fill="#334155">Privacy</text>
<text xml:space="preserve" text-anchor="middle" x="107.38" y="-98.8" font-family="Helvetica Bold" font-size="11.00" fill="#334155">Audit</text>
</g>
<!-- feat_scheduled&#45;&gt;feat_privacy -->
<g id="edge27" class="edge">
<title>feat_scheduled&#45;&gt;feat_privacy</title>
<path fill="none" stroke="#475569" stroke-width="1.5" d="M98.08,-176.98C98.08,-176.98 98.08,-140.25 98.08,-140.25"/>
<polygon fill="#475569" stroke="#475569" stroke-width="1.5" points="101.58,-140.25 98.08,-130.25 94.58,-140.25 101.58,-140.25"/>
</g>
<!-- pm_privacy -->
<g id="node26" class="node">
<title>pm_privacy</title>
<path fill="#d1fae5" stroke="black" stroke-width="1.5" d="M240.75,-127.25C240.75,-127.25 176,-127.25 176,-127.25 170,-127.25 164,-121.25 164,-115.25 164,-115.25 164,-103.25 164,-103.25 164,-97.25 170,-91.25 176,-91.25 176,-91.25 240.75,-91.25 240.75,-91.25 246.75,-91.25 252.75,-97.25 252.75,-103.25 252.75,-103.25 252.75,-115.25 252.75,-115.25 252.75,-121.25 246.75,-127.25 240.75,-127.25"/>
<text xml:space="preserve" text-anchor="middle" x="208.38" y="-111.75" font-family="Helvetica,sans-Serif" font-size="10.00" fill="#064e3b">Full Audit</text>
<text xml:space="preserve" text-anchor="middle" x="208.38" y="-99.75" font-family="Helvetica,sans-Serif" font-size="10.00" fill="#064e3b">Source Available</text>
</g>
<!-- feat_privacy&#45;&gt;pm_privacy -->
<g id="edge25" class="edge">
<title>feat_privacy&#45;&gt;pm_privacy</title>
<path fill="none" stroke="#059669" stroke-width="1.5" d="M135.78,-109C135.78,-109 151.29,-109 151.29,-109"/>
<polygon fill="#059669" stroke="#059669" stroke-width="1.5" points="151.29,-112.5 161.29,-109 151.29,-105.5 151.29,-112.5"/>
</g>
<!-- cm_privacy -->
<g id="node27" class="node">
<title>cm_privacy</title>
<path fill="#fee2e2" stroke="black" stroke-width="1.5" d="M330.88,-127.25C330.88,-127.25 293.88,-127.25 293.88,-127.25 287.88,-127.25 281.88,-121.25 281.88,-115.25 281.88,-115.25 281.88,-103.25 281.88,-103.25 281.88,-97.25 287.88,-91.25 293.88,-91.25 293.88,-91.25 330.88,-91.25 330.88,-91.25 336.88,-91.25 342.88,-97.25 342.88,-103.25 342.88,-103.25 342.88,-115.25 342.88,-115.25 342.88,-121.25 336.88,-127.25 330.88,-127.25"/>
<text xml:space="preserve" text-anchor="middle" x="312.38" y="-111.75" font-family="Helvetica,sans-Serif" font-size="10.00" fill="#7f1d1d">Black Box</text>
<text xml:space="preserve" text-anchor="middle" x="312.38" y="-99.75" font-family="Helvetica,sans-Serif" font-size="10.00" fill="#7f1d1d">No Audit</text>
</g>
<!-- feat_privacy&#45;&gt;cm_privacy -->
<g id="edge26" class="edge">
<title>feat_privacy&#45;&gt;cm_privacy</title>
<path fill="none" stroke="#dc2626" stroke-width="1.5" d="M116.67,-127.85C116.67,-136.11 116.67,-144 116.67,-144 116.67,-144 286.75,-144 286.75,-144 286.75,-144 286.75,-140.12 286.75,-140.12"/>
<polygon fill="#dc2626" stroke="#dc2626" stroke-width="1.5" points="290.25,-140.12 286.75,-130.12 283.25,-140.12 290.25,-140.12"/>
</g>
<!-- advantage -->
<g id="node28" class="node">
<title>advantage</title>
<path fill="#059669" stroke="black" stroke-width="3" d="M202.75,-41C202.75,-41 12,-41 12,-41 6,-41 0,-35 0,-29 0,-29 0,-12 0,-12 0,-6 6,0 12,0 12,0 202.75,0 202.75,0 208.75,0 214.75,-6 214.75,-12 214.75,-12 214.75,-29 214.75,-29 214.75,-35 208.75,-41 202.75,-41"/>
<text xml:space="preserve" text-anchor="middle" x="107.38" y="-24.65" font-family="Helvetica Bold" font-size="13.00" fill="white">PureMac Advantage:</text>
<text xml:space="preserve" text-anchor="middle" x="107.38" y="-8.15" font-family="Helvetica Bold" font-size="13.00" fill="white">Free, Open, Private, CLI&#45;Ready</text>
</g>
<!-- feat_privacy&#45;&gt;advantage -->
<g id="edge28" class="edge">
<title>feat_privacy&#45;&gt;advantage</title>
<path fill="none" stroke="#059669" stroke-width="2" d="M107.38,-90.43C107.38,-90.43 107.38,-55.45 107.38,-55.45"/>
<polygon fill="#059669" stroke="#059669" stroke-width="2" points="110.88,-55.45 107.38,-45.45 103.88,-55.45 110.88,-55.45"/>
</g>
</g>
</svg>
