<svg id="splitsvg" xmlns="http://www.w3.org/2000/svg" xmlns:xlink="http://www.w3.org/1999/xlink" width="1380" height="860"><g id="svgg"><path id="path0" d="M164.400 0.800 C 164.400 1.565,164.133 1.600,158.387 1.600 C 151.608 1.600,149.807 2.034,149.371 3.774 C 149.114 4.796,149.098 4.800,144.785 4.800 C 140.072 4.800,139.200 5.148,139.200 7.029 C 139.200 7.987,139.149 8.000,135.500 8.005 C 130.464 8.013,130.000 8.168,130.000 9.847 L 130.000 11.200 125.900 11.206 C 121.266 11.213,121.008 11.305,120.622 13.083 L 120.344 14.366 117.472 14.483 L 114.600 14.600 114.475 15.900 L 114.349 17.200 111.803 17.200 C 108.985 17.200,108.000 17.777,108.000 19.429 C 108.000 20.356,107.885 20.400,105.429 20.400 C 102.584 20.400,101.600 20.973,101.600 22.629 C 101.600 23.541,101.464 23.600,99.374 23.600 C 96.516 23.600,95.600 24.089,95.600 25.614 C 95.600 26.728,95.504 26.800,94.024 26.800 C 92.492 26.800,92.445 26.842,92.324 28.300 L 92.200 29.800 89.600 29.914 C 86.803 30.037,86.000 30.564,86.000 32.276 C 86.000 33.065,85.796 33.200,84.600 33.200 C 83.267 33.200,83.200 33.267,83.200 34.600 L 83.200 36.000 81.026 36.000 C 77.871 36.000,76.800 36.504,76.800 37.990 C 76.800 39.049,76.660 39.200,75.680 39.200 C 74.265 39.200,73.600 39.858,73.600 41.256 C 73.600 42.233,73.438 42.365,72.100 42.476 C 70.681 42.593,70.593 42.681,70.476 44.100 C 70.355 45.558,70.308 45.600,68.776 45.600 C 67.214 45.600,67.200 45.613,67.200 47.144 L 67.200 48.689 65.145 48.932 C 63.083 49.176,61.600 50.064,61.600 51.054 C 61.600 51.346,61.105 51.693,60.500 51.826 C 58.526 52.258,58.400 52.361,58.400 53.536 C 58.400 54.582,58.240 54.723,56.804 54.953 C 55.311 55.192,55.192 55.311,54.953 56.804 C 54.723 58.240,54.582 58.400,53.536 58.400 C 52.361 58.400,52.258 58.526,51.826 60.500 C 51.693 61.105,51.346 61.600,51.054 61.600 C 50.064 61.600,49.176 63.083,48.932 65.145 L 48.689 67.200 47.144 67.200 C 45.613 67.200,45.600 67.214,45.600 68.776 C 45.600 70.308,45.558 70.355,44.100 70.476 C 42.681 70.593,42.593 70.681,42.476 72.100 C 42.365 73.438,42.233 73.600,41.256 73.600 C 39.858 73.600,39.200 74.265,39.200 75.680 C 39.200 76.660,39.049 76.800,37.990 76.800 C 36.504 76.800,36.000 77.871,36.000 81.026 L 36.000 83.200 34.600 83.200 C 33.267 83.200,33.200 83.267,33.200 84.600 C 33.200 85.796,33.065 86.000,32.276 86.000 C 30.564 86.000,30.037 86.803,29.914 89.600 L 29.800 92.200 28.300 92.324 C 26.842 92.445,26.800 92.492,26.800 94.024 C 26.800 95.504,26.728 95.600,25.614 95.600 C 24.089 95.600,23.600 96.516,23.600 99.374 C 23.600 101.464,23.541 101.600,22.629 101.600 C 20.973 101.600,20.400 102.584,20.400 105.429 C 20.400 107.885,20.356 108.000,19.429 108.000 C 17.777 108.000,17.200 108.985,17.200 111.803 L 17.200 114.349 15.900 114.475 L 14.600 114.600 14.483 117.472 L 14.366 120.344 13.083 120.622 C 11.305 121.008,11.213 121.266,11.206 125.900 L 11.200 130.000 9.847 130.000 C 8.168 130.000,8.013 130.464,8.005 135.500 C 8.000 139.149,7.987 139.200,7.029 139.200 C 5.148 139.200,4.800 140.072,4.800 144.785 C 4.800 149.098,4.796 149.114,3.774 149.371 C 2.034 149.807,1.600 151.608,1.600 158.387 C 1.600 164.133,1.565 164.400,0.800 164.400 C 0.006 164.400,0.000 164.667,0.000 200.200 C 0.000 235.733,0.006 236.000,0.800 236.000 C 1.563 236.000,1.600 236.267,1.600 241.813 C 1.600 248.253,2.037 250.070,3.779 250.863 C 4.777 251.318,4.800 251.421,4.800 255.431 C 4.800 260.465,4.913 260.800,6.607 260.800 L 7.929 260.800 8.065 265.215 C 8.208 269.903,8.415 270.381,10.300 270.394 C 11.175 270.400,11.200 270.516,11.200 274.520 C 11.200 278.997,11.445 279.600,13.262 279.600 C 14.354 279.600,14.366 279.630,14.482 282.500 C 14.600 285.391,14.604 285.401,15.900 285.783 C 17.183 286.160,17.200 286.198,17.200 288.603 C 17.200 291.315,17.620 292.000,19.280 292.000 C 20.384 292.000,20.400 292.036,20.400 294.426 C 20.400 297.453,20.869 298.400,22.369 298.400 C 23.501 298.400,23.511 298.423,23.669 301.223 C 23.837 304.186,24.205 304.782,25.876 304.794 C 26.598 304.799,26.774 305.063,26.876 306.300 C 26.993 307.715,27.084 307.807,28.483 307.923 L 29.966 308.046 30.083 310.923 L 30.200 313.800 31.700 313.924 C 33.158 314.045,33.200 314.092,33.200 315.624 C 33.200 317.158,33.237 317.200,34.600 317.200 L 36.000 317.200 36.005 319.300 C 36.014 322.507,36.294 323.144,37.822 323.430 C 38.960 323.644,39.173 323.865,39.278 324.940 C 39.388 326.081,39.542 326.212,40.900 326.324 C 42.358 326.445,42.400 326.492,42.400 328.024 C 42.400 329.596,42.404 329.600,44.000 329.600 C 45.596 329.600,45.600 329.604,45.600 331.176 C 45.600 332.708,45.642 332.755,47.100 332.876 C 48.366 332.981,48.616 333.156,48.705 334.000 C 48.967 336.491,49.654 338.008,50.788 338.594 C 51.565 338.995,51.988 339.556,52.073 340.296 C 52.170 341.138,52.496 341.487,53.446 341.768 C 54.425 342.056,54.768 342.442,55.046 343.568 C 55.353 344.809,55.587 345.027,56.800 345.200 C 58.003 345.372,58.219 345.569,58.336 346.599 C 58.493 347.982,58.973 348.385,60.472 348.394 C 61.276 348.398,61.576 348.624,61.672 349.298 C 61.824 350.367,64.008 351.553,65.876 351.581 C 67.057 351.599,67.161 351.711,67.276 353.100 C 67.393 354.514,67.485 354.607,68.877 354.723 C 70.265 354.838,70.362 354.935,70.477 356.323 C 70.593 357.711,70.689 357.807,72.076 357.923 C 73.413 358.034,73.564 358.166,73.676 359.323 C 73.789 360.484,73.937 360.611,75.300 360.724 C 76.638 360.835,76.800 360.967,76.800 361.944 C 76.800 363.619,77.481 364.000,80.480 364.000 L 83.200 364.000 83.200 365.600 C 83.200 367.152,83.241 367.200,84.555 367.200 C 85.780 367.200,85.936 367.331,86.165 368.556 C 86.456 370.106,87.082 370.386,90.276 370.395 L 92.352 370.400 92.476 371.900 C 92.593 373.314,92.685 373.407,94.076 373.523 C 95.413 373.634,95.564 373.766,95.676 374.923 L 95.800 376.200 98.700 376.318 C 101.305 376.423,101.600 376.517,101.600 377.244 C 101.600 379.164,102.260 379.600,105.163 379.600 L 107.898 379.600 108.154 381.200 L 108.409 382.800 111.405 382.800 L 114.400 382.800 114.400 383.986 C 114.400 385.507,115.316 386.000,118.142 386.000 C 120.265 386.000,120.345 386.040,120.605 387.224 C 120.960 388.839,122.018 389.200,126.401 389.200 L 129.949 389.200 130.075 390.500 L 130.200 391.800 134.700 391.913 C 139.144 392.025,139.200 392.038,139.200 392.980 C 139.200 395.145,139.330 395.200,144.443 395.200 C 148.800 395.200,149.200 395.262,149.200 395.938 C 149.200 397.843,150.431 398.192,157.641 398.326 C 164.013 398.445,164.400 398.497,164.400 399.226 C 164.400 399.985,165.073 400.000,200.200 400.000 C 235.733 400.000,236.000 399.994,236.000 399.200 C 236.000 398.437,236.280 398.398,242.100 398.360 C 249.382 398.313,250.024 398.175,250.767 396.501 L 251.334 395.224 255.967 395.112 L 260.600 395.000 260.723 393.513 L 260.847 392.026 265.323 391.913 L 269.800 391.800 270.171 390.543 L 270.541 389.286 274.692 389.132 C 279.085 388.969,279.581 388.743,279.594 386.900 C 279.600 386.061,279.773 386.000,282.171 386.000 C 285.008 386.000,286.000 385.427,286.000 383.789 C 286.000 382.882,286.144 382.829,288.900 382.718 L 291.800 382.600 291.923 381.116 L 292.046 379.633 295.123 379.516 L 298.200 379.400 298.323 377.917 L 298.446 376.434 301.323 376.317 C 304.178 376.201,304.203 376.190,304.577 374.920 C 304.899 373.827,305.164 373.622,306.377 373.520 C 307.707 373.408,307.808 373.302,307.924 371.900 L 308.048 370.400 310.250 370.400 C 313.069 370.400,314.000 369.906,314.000 368.410 C 314.000 367.356,314.139 367.237,315.500 367.124 C 316.915 367.007,317.007 366.916,317.123 365.517 L 317.246 364.034 320.123 363.917 L 323.000 363.800 323.371 362.300 C 323.706 360.942,323.867 360.800,325.071 360.800 C 326.319 360.800,326.400 360.716,326.400 359.424 C 326.400 358.123,326.481 358.042,327.900 357.924 C 329.319 357.807,329.407 357.719,329.524 356.300 C 329.645 354.842,329.692 354.800,331.224 354.800 C 332.796 354.800,332.800 354.796,332.800 353.200 C 332.800 351.618,332.817 351.600,334.300 351.599 C 336.060 351.597,338.218 350.405,338.591 349.228 C 338.759 348.699,339.195 348.400,339.798 348.400 C 341.017 348.400,342.000 347.405,342.000 346.171 C 342.000 345.374,342.201 345.200,343.120 345.200 C 344.541 345.200,345.200 344.541,345.200 343.120 C 345.200 342.201,345.374 342.000,346.171 342.000 C 347.405 342.000,348.400 341.017,348.400 339.798 C 348.400 339.195,348.699 338.759,349.228 338.591 C 350.405 338.218,351.597 336.060,351.599 334.300 C 351.600 332.817,351.618 332.800,353.200 332.800 C 354.796 332.800,354.800 332.796,354.800 331.224 C 354.800 329.692,354.842 329.645,356.300 329.524 C 357.719 329.407,357.807 329.319,357.924 327.900 C 358.042 326.481,358.123 326.400,359.424 326.400 C 360.716 326.400,360.800 326.319,360.800 325.071 C 360.800 323.867,360.942 323.706,362.300 323.371 L 363.800 323.000 363.917 320.123 L 364.034 317.246 365.517 317.123 C 366.916 317.007,367.007 316.915,367.124 315.500 C 367.237 314.139,367.356 314.000,368.410 314.000 C 369.906 314.000,370.400 313.069,370.400 310.250 L 370.400 308.048 371.900 307.924 C 373.302 307.808,373.408 307.707,373.520 306.377 C 373.622 305.164,373.827 304.899,374.920 304.577 C 376.190 304.203,376.201 304.178,376.317 301.323 L 376.434 298.446 377.917 298.323 L 379.400 298.200 379.516 295.123 L 379.633 292.046 381.116 291.923 L 382.600 291.800 382.718 288.900 C 382.829 286.144,382.882 286.000,383.789 286.000 C 385.427 286.000,386.000 285.008,386.000 282.171 C 386.000 279.773,386.061 279.600,386.900 279.594 C 388.743 279.581,388.969 279.085,389.132 274.692 L 389.286 270.541 390.543 270.171 L 391.800 269.800 391.913 265.323 L 392.026 260.847 393.513 260.723 L 395.000 260.600 395.112 255.967 L 395.224 251.334 396.501 250.767 C 398.175 250.024,398.313 249.382,398.360 242.100 C 398.398 236.280,398.437 236.000,399.200 236.000 C 399.994 236.000,400.000 235.733,400.000 200.200 C 400.000 164.667,399.994 164.400,399.200 164.400 C 398.430 164.400,398.400 164.133,398.400 157.229 C 398.400 149.448,398.229 148.800,396.171 148.800 L 395.200 148.800 395.194 144.100 C 395.188 139.009,394.833 137.738,393.192 136.923 C 392.294 136.477,392.181 136.136,392.000 133.315 L 391.800 130.200 390.500 130.075 L 389.200 129.949 389.200 126.401 C 389.200 122.018,388.839 120.960,387.224 120.605 C 386.029 120.343,386.000 120.281,386.000 118.001 C 386.000 114.827,385.782 114.400,384.157 114.400 L 382.800 114.400 382.800 111.443 C 382.800 108.286,382.615 108.000,380.567 108.000 C 379.631 108.000,379.600 107.904,379.600 105.043 C 379.600 101.886,379.415 101.600,377.367 101.600 C 376.453 101.600,376.400 101.470,376.400 99.229 C 376.400 96.692,375.789 95.600,374.371 95.600 C 373.755 95.600,373.600 95.316,373.600 94.187 C 373.600 93.203,373.388 92.700,372.900 92.528 C 371.229 91.938,370.400 90.705,370.400 88.810 C 370.400 86.680,369.897 86.000,368.320 86.000 C 367.336 86.000,367.200 85.851,367.200 84.769 C 367.200 83.855,366.787 83.141,365.600 82.000 C 364.352 80.801,364.000 80.165,364.000 79.111 C 364.000 77.474,363.401 76.800,361.944 76.800 C 360.967 76.800,360.835 76.638,360.724 75.300 C 360.611 73.937,360.484 73.789,359.323 73.676 C 358.166 73.564,358.034 73.413,357.923 72.076 C 357.807 70.685,357.714 70.593,356.300 70.476 C 354.873 70.358,354.800 70.283,354.800 68.938 C 354.800 67.307,353.538 65.309,352.182 64.793 C 351.577 64.563,351.213 64.053,351.129 63.321 C 351.036 62.511,350.641 62.033,349.709 61.600 C 348.998 61.270,348.413 60.700,348.409 60.333 C 348.392 59.084,347.916 58.400,347.057 58.394 C 345.776 58.385,345.287 57.928,345.136 56.599 C 345.021 55.587,344.766 55.342,343.500 55.029 C 342.372 54.751,341.998 54.453,341.994 53.829 C 341.985 52.599,341.545 52.132,340.100 51.818 C 339.199 51.623,338.800 51.307,338.800 50.791 C 338.800 49.939,337.371 48.800,336.301 48.800 C 335.905 48.800,335.423 48.388,335.232 47.884 C 334.710 46.512,333.852 45.969,331.723 45.667 C 329.847 45.401,329.797 45.358,329.676 43.897 C 329.556 42.446,329.504 42.400,328.000 42.400 C 326.496 42.400,326.445 42.354,326.324 40.900 C 326.211 39.538,326.083 39.389,324.927 39.277 C 323.878 39.175,323.607 38.941,323.390 37.953 C 323.125 36.747,321.979 36.000,320.393 36.000 C 319.978 36.000,319.027 35.370,318.279 34.600 C 317.223 33.513,316.599 33.200,315.484 33.200 C 314.114 33.200,314.043 33.132,313.924 31.700 C 313.800 30.203,313.797 30.200,311.800 30.075 C 309.637 29.939,308.000 28.843,308.000 27.530 C 308.000 26.946,307.683 26.800,306.411 26.800 C 304.958 26.800,304.794 26.690,304.489 25.513 C 304.114 24.064,303.307 23.703,300.300 23.640 C 298.414 23.600,298.400 23.590,298.400 22.243 C 298.400 20.599,297.987 20.400,294.567 20.400 L 292.000 20.400 292.000 19.043 C 292.000 17.416,291.575 17.200,288.367 17.200 C 286.300 17.200,286.000 17.103,286.000 16.433 C 286.000 14.606,285.652 14.400,282.557 14.400 L 279.600 14.400 279.600 13.280 C 279.600 11.443,279.006 11.200,274.520 11.200 L 270.400 11.200 270.400 10.080 C 270.400 8.366,269.734 8.000,266.615 8.000 C 264.069 8.000,263.751 7.911,263.395 7.100 C 262.667 5.443,260.635 4.840,255.700 4.819 C 251.234 4.800,251.200 4.793,251.200 3.849 C 251.200 2.026,250.381 1.810,242.940 1.667 C 236.413 1.542,236.000 1.488,236.000 0.767 C 236.000 0.017,235.219 0.000,200.200 0.000 C 164.667 0.000,164.400 0.006,164.400 0.800 M204.876 77.900 C 204.993 79.319,205.081 79.407,206.500 79.524 C 207.774 79.630,208.000 79.790,208.000 80.591 C 208.000 82.303,208.414 82.800,209.843 82.800 C 210.982 82.800,211.201 82.945,211.206 83.700 C 211.215 85.074,211.657 85.500,213.401 85.820 C 214.518 86.024,215.434 86.578,216.439 87.656 C 217.509 88.805,218.194 89.200,219.113 89.200 C 220.215 89.200,220.363 89.341,220.475 90.500 C 220.589 91.687,220.731 91.811,222.100 91.924 C 223.352 92.028,223.600 92.197,223.600 92.948 C 223.600 94.255,224.429 95.132,225.800 95.275 C 226.679 95.367,227.033 95.633,227.124 96.271 C 227.313 97.595,228.140 98.052,230.785 98.292 L 233.200 98.511 233.200 100.056 C 233.200 101.554,233.242 101.600,234.600 101.600 C 235.876 101.600,236.000 101.702,236.000 102.751 C 236.000 104.123,236.581 104.682,238.198 104.865 C 239.173 104.975,239.434 105.222,239.601 106.192 C 239.784 107.263,240.013 107.425,241.867 107.792 C 243.965 108.207,245.600 109.289,245.600 110.262 C 245.600 110.623,246.126 110.800,247.200 110.800 L 248.800 110.800 248.800 112.400 C 248.800 113.952,248.841 114.000,250.155 114.000 C 251.388 114.000,251.535 114.127,251.773 115.398 C 252.009 116.653,252.197 116.822,253.606 117.047 C 254.673 117.218,255.257 117.548,255.424 118.077 C 255.782 119.204,257.966 120.397,259.676 120.399 C 261.092 120.400,261.157 120.460,261.276 121.900 C 261.393 123.314,261.485 123.407,262.876 123.523 C 264.213 123.634,264.364 123.766,264.476 124.923 C 264.589 126.084,264.737 126.211,266.100 126.324 C 267.461 126.437,267.600 126.556,267.600 127.610 C 267.600 129.106,268.531 129.600,271.350 129.600 L 273.552 129.600 273.676 131.100 C 273.793 132.514,273.885 132.607,275.277 132.723 C 276.665 132.838,276.762 132.935,276.877 134.323 C 276.993 135.711,277.089 135.807,278.476 135.923 C 279.813 136.034,279.964 136.166,280.076 137.323 C 280.184 138.437,280.397 138.649,281.740 138.980 C 282.588 139.190,283.875 139.955,284.600 140.680 C 285.658 141.738,286.241 142.000,287.536 142.000 C 289.114 142.000,289.155 142.035,289.276 143.500 C 289.393 144.914,289.485 145.007,290.877 145.123 C 292.265 145.238,292.362 145.335,292.477 146.723 C 292.593 148.115,292.686 148.207,294.100 148.324 L 295.600 148.448 295.600 215.824 L 295.600 283.200 265.802 283.200 L 236.004 283.200 235.902 241.100 L 235.800 199.000 202.012 199.000 L 168.224 199.000 167.718 200.000 C 167.320 200.787,167.211 209.767,167.206 242.100 L 167.200 283.200 139.032 283.200 L 110.864 283.200 110.592 281.965 C 110.399 281.084,109.990 280.615,109.161 280.326 L 108.000 279.922 108.000 214.161 L 108.000 148.400 109.400 148.400 C 110.767 148.400,110.800 148.362,110.800 146.800 L 110.800 145.200 112.400 145.200 C 113.374 145.200,114.000 145.013,114.000 144.722 C 114.000 143.757,116.131 142.000,117.301 142.000 C 118.986 142.000,120.000 141.319,120.000 140.186 C 120.000 139.362,120.193 139.200,121.171 139.200 C 122.587 139.200,123.600 138.281,123.600 136.997 C 123.600 136.222,123.835 136.028,124.900 135.925 C 126.087 135.811,126.211 135.669,126.324 134.300 C 126.445 132.846,126.496 132.800,128.000 132.800 C 129.504 132.800,129.555 132.754,129.676 131.300 L 129.800 129.800 132.341 129.557 C 134.975 129.305,135.583 128.888,135.594 127.324 C 135.599 126.602,135.863 126.426,137.100 126.324 C 138.399 126.217,138.650 126.029,138.977 124.920 C 139.282 123.886,139.590 123.616,140.577 123.520 C 141.676 123.412,141.813 123.248,141.924 121.900 C 142.045 120.442,142.092 120.400,143.624 120.400 C 145.187 120.400,145.200 120.387,145.200 118.852 L 145.200 117.303 147.965 117.031 C 150.793 116.752,151.200 116.467,151.200 114.767 C 151.200 114.159,151.486 114.000,152.586 114.000 C 154.049 114.000,154.800 113.203,154.800 111.650 C 154.800 111.012,155.107 110.823,156.300 110.724 C 157.669 110.611,157.811 110.487,157.925 109.300 C 158.040 108.110,158.167 108.000,159.425 108.000 C 160.754 108.000,160.800 107.948,160.800 106.457 L 160.800 104.914 163.259 104.657 C 166.044 104.366,166.800 103.916,166.800 102.551 C 166.800 101.766,167.005 101.600,167.971 101.600 C 169.387 101.600,170.400 100.681,170.400 99.396 C 170.400 98.590,170.624 98.430,171.900 98.324 C 173.319 98.207,173.407 98.119,173.524 96.700 C 173.642 95.281,173.723 95.200,175.024 95.200 C 176.363 95.200,176.400 95.157,176.400 93.600 L 176.400 92.000 178.374 92.000 C 180.978 92.000,182.244 91.476,182.546 90.274 C 182.729 89.543,183.149 89.224,184.181 89.030 C 185.375 88.806,185.606 88.575,185.829 87.385 C 186.049 86.213,186.254 86.000,187.165 86.000 C 188.543 86.000,189.200 85.329,189.200 83.920 C 189.200 82.907,189.333 82.800,190.600 82.800 C 191.967 82.800,192.000 82.762,192.000 81.200 L 192.000 79.600 193.974 79.600 C 196.774 79.600,197.874 79.085,198.195 77.624 L 198.464 76.400 201.608 76.400 L 204.752 76.400 204.876 77.900  M -25 0 L -5 0 L -5 20 L -25 20 Z M 405 0 L 425 0 L 425 20 L 405 20 Z" stroke="none" fill="#040404" fill-rule="evenodd" transform="translate(30,0)"></path><path id="path1" d=" M -25 0 L -5 0 L -5 20 L -25 20 Z M 405 0 L 425 0 L 425 20 L 405 20 Z" stroke="none" fill="#080404" fill-rule="evenodd" transform="translate(490,0)"></path><path id="path2" d=" M -25 0 L -5 0 L -5 20 L -25 20 Z M 405 0 L 425 0 L 425 20 L 405 20 Z" stroke="none" fill="#080404" fill-rule="evenodd" transform="translate(950,0)"></path><path id="path3" d=" M -25 0 L -5 0 L -5 20 L -25 20 Z M 405 0 L 425 0 L 425 20 L 405 20 Z" stroke="none" fill="#080404" fill-rule="evenodd" transform="translate(30,460)"></path><path id="path4" d=" M -25 0 L -5 0 L -5 20 L -25 20 Z M 405 0 L 425 0 L 425 20 L 405 20 Z" stroke="none" fill="#080404" fill-rule="evenodd" transform="translate(490,460)"></path></g></svg>