<?xml version="1.0" encoding="UTF-8" standalone="no"?>
<!DOCTYPE svg PUBLIC "-//W3C//DTD SVG 1.1//EN"
 "http://www.w3.org/Graphics/SVG/1.1/DTD/svg11.dtd">
<!-- Generated by graphviz version 14.1.2 (0)
 -->
<!-- Title: workflow Pages: 1 -->
<svg width="311pt" height="1080pt"
 viewBox="0.00 0.00 311.00 1080.00" xmlns="http://www.w3.org/2000/svg" xmlns:xlink="http://www.w3.org/1999/xlink">
<style>
<!-- White text halo for edge label readability -->
text { paint-order: stroke; stroke: #ffffff; stroke-width: 3px; stroke-linejoin: round; fill: #1a1a2e; }
</style>
<g id="graph0" class="graph" transform="scale(1 1) rotate(0) translate(4 1075.9)">
<title>workflow</title>
<polygon fill="white" stroke="none" points="-4,4 -4,-1075.9 307.25,-1075.9 307.25,4 -4,4"/>
<text xml:space="preserve" text-anchor="middle" x="151.62" y="-7.2" font-family="Times New Roman,serif" font-size="14.00">Skills Manage &#45; Skill Lifecycle Workflow</text>
<!-- start -->
<g id="node1" class="node">
<title>start</title>
<ellipse fill="#607d8b" stroke="black" cx="150.75" cy="-1049.2" rx="22.7" ry="22.7"/>
<text xml:space="preserve" text-anchor="middle" x="150.75" y="-1045.7" font-family="Arial Bold" font-size="10.00" fill="white">Start</text>
</g>
<!-- scan_dirs -->
<g id="node2" class="node">
<title>scan_dirs</title>
<path fill="#3f51b5" stroke="black" d="M172.62,-976.5C172.62,-976.5 128.88,-976.5 128.88,-976.5 122.88,-976.5 116.88,-970.5 116.88,-964.5 116.88,-964.5 116.88,-952.5 116.88,-952.5 116.88,-946.5 122.88,-940.5 128.88,-940.5 128.88,-940.5 172.62,-940.5 172.62,-940.5 178.62,-940.5 184.62,-946.5 184.62,-952.5 184.62,-952.5 184.62,-964.5 184.62,-964.5 184.62,-970.5 178.62,-976.5 172.62,-976.5"/>
<text xml:space="preserve" text-anchor="middle" x="150.75" y="-961.55" font-family="Arial" font-size="11.00" fill="white">Scan Skill</text>
<text xml:space="preserve" text-anchor="middle" x="150.75" y="-948.05" font-family="Arial" font-size="11.00" fill="white">Directories</text>
</g>
<!-- start&#45;&gt;scan_dirs -->
<g id="edge1" class="edge">
<title>start&#45;&gt;scan_dirs</title>
<path fill="none" stroke="#2196f3" stroke-width="2" d="M150.75,-1026.31C150.75,-1026.31 150.75,-989.84 150.75,-989.84"/>
<polygon fill="#2196f3" stroke="#2196f3" stroke-width="2" points="154.25,-989.84 150.75,-979.84 147.25,-989.84 154.25,-989.84"/>
</g>
<!-- discover -->
<g id="node3" class="node">
<title>discover</title>
<path fill="#3f51b5" stroke="black" d="M65.5,-890.5C65.5,-890.5 12,-890.5 12,-890.5 6,-890.5 0,-884.5 0,-878.5 0,-878.5 0,-866.5 0,-866.5 0,-860.5 6,-854.5 12,-854.5 12,-854.5 65.5,-854.5 65.5,-854.5 71.5,-854.5 77.5,-860.5 77.5,-866.5 77.5,-866.5 77.5,-878.5 77.5,-878.5 77.5,-884.5 71.5,-890.5 65.5,-890.5"/>
<text xml:space="preserve" text-anchor="middle" x="38.75" y="-875.55" font-family="Arial" font-size="11.00" fill="white">Discover</text>
<text xml:space="preserve" text-anchor="middle" x="38.75" y="-862.05" font-family="Arial" font-size="11.00" fill="white">Project Skills</text>
</g>
<!-- scan_dirs&#45;&gt;discover -->
<g id="edge2" class="edge">
<title>scan_dirs&#45;&gt;discover</title>
<path fill="none" stroke="#00bcd4" stroke-width="1.5" d="M116.54,-958.5C83.6,-958.5 38.75,-958.5 38.75,-958.5 38.75,-958.5 38.75,-903.01 38.75,-903.01"/>
<polygon fill="#00bcd4" stroke="#00bcd4" stroke-width="1.5" points="42.25,-903.01 38.75,-893.01 35.25,-903.01 42.25,-903.01"/>
<text xml:space="preserve" text-anchor="middle" x="36.77" y="-961.7" font-family="Times New Roman,serif" font-size="14.00">local</text>
</g>
<!-- marketplace -->
<g id="node4" class="node">
<title>marketplace</title>
<path fill="#3f51b5" stroke="black" d="M176,-890.5C176,-890.5 125.5,-890.5 125.5,-890.5 119.5,-890.5 113.5,-884.5 113.5,-878.5 113.5,-878.5 113.5,-866.5 113.5,-866.5 113.5,-860.5 119.5,-854.5 125.5,-854.5 125.5,-854.5 176,-854.5 176,-854.5 182,-854.5 188,-860.5 188,-866.5 188,-866.5 188,-878.5 188,-878.5 188,-884.5 182,-890.5 176,-890.5"/>
<text xml:space="preserve" text-anchor="middle" x="150.75" y="-875.55" font-family="Arial" font-size="11.00" fill="white">Browse</text>
<text xml:space="preserve" text-anchor="middle" x="150.75" y="-862.05" font-family="Arial" font-size="11.00" fill="white">Marketplace</text>
</g>
<!-- scan_dirs&#45;&gt;marketplace -->
<g id="edge3" class="edge">
<title>scan_dirs&#45;&gt;marketplace</title>
<path fill="none" stroke="#e91e63" stroke-width="1.5" d="M150.75,-940.26C150.75,-940.26 150.75,-902.98 150.75,-902.98"/>
<polygon fill="#e91e63" stroke="#e91e63" stroke-width="1.5" points="154.25,-902.98 150.75,-892.98 147.25,-902.98 154.25,-902.98"/>
<text xml:space="preserve" text-anchor="middle" x="131.62" y="-924.82" font-family="Times New Roman,serif" font-size="14.00">remote</text>
</g>
<!-- gh_import -->
<g id="node5" class="node">
<title>gh_import</title>
<path fill="#3f51b5" stroke="black" d="M291.25,-890.5C291.25,-890.5 236.25,-890.5 236.25,-890.5 230.25,-890.5 224.25,-884.5 224.25,-878.5 224.25,-878.5 224.25,-866.5 224.25,-866.5 224.25,-860.5 230.25,-854.5 236.25,-854.5 236.25,-854.5 291.25,-854.5 291.25,-854.5 297.25,-854.5 303.25,-860.5 303.25,-866.5 303.25,-866.5 303.25,-878.5 303.25,-878.5 303.25,-884.5 297.25,-890.5 291.25,-890.5"/>
<text xml:space="preserve" text-anchor="middle" x="263.75" y="-875.55" font-family="Arial" font-size="11.00" fill="white">Import from</text>
<text xml:space="preserve" text-anchor="middle" x="263.75" y="-862.05" font-family="Arial" font-size="11.00" fill="white">GitHub Repo</text>
</g>
<!-- scan_dirs&#45;&gt;gh_import -->
<g id="edge4" class="edge">
<title>scan_dirs&#45;&gt;gh_import</title>
<path fill="none" stroke="#3f51b5" stroke-width="1.5" d="M184.96,-958.5C218.22,-958.5 263.75,-958.5 263.75,-958.5 263.75,-958.5 263.75,-903.01 263.75,-903.01"/>
<polygon fill="#3f51b5" stroke="#3f51b5" stroke-width="1.5" points="267.25,-903.01 263.75,-893.01 260.25,-903.01 267.25,-903.01"/>
<text xml:space="preserve" text-anchor="middle" x="233.73" y="-961.7" font-family="Times New Roman,serif" font-size="14.00">import</text>
</g>
<!-- select -->
<g id="node6" class="node">
<title>select</title>
<path fill="#3f51b5" stroke="black" d="M165.75,-804.5C165.75,-804.5 135.75,-804.5 135.75,-804.5 129.75,-804.5 123.75,-798.5 123.75,-792.5 123.75,-792.5 123.75,-780.5 123.75,-780.5 123.75,-774.5 129.75,-768.5 135.75,-768.5 135.75,-768.5 165.75,-768.5 165.75,-768.5 171.75,-768.5 177.75,-774.5 177.75,-780.5 177.75,-780.5 177.75,-792.5 177.75,-792.5 177.75,-798.5 171.75,-804.5 165.75,-804.5"/>
<text xml:space="preserve" text-anchor="middle" x="150.75" y="-789.55" font-family="Arial" font-size="11.00" fill="white">Select</text>
<text xml:space="preserve" text-anchor="middle" x="150.75" y="-776.05" font-family="Arial" font-size="11.00" fill="white">Skill(s)</text>
</g>
<!-- discover&#45;&gt;select -->
<g id="edge5" class="edge">
<title>discover&#45;&gt;select</title>
<path fill="none" stroke="#2196f3" stroke-width="2" d="M58.19,-854.26C58.19,-829.02 58.19,-786.5 58.19,-786.5 58.19,-786.5 110.45,-786.5 110.45,-786.5"/>
<polygon fill="#2196f3" stroke="#2196f3" stroke-width="2" points="110.45,-790 120.45,-786.5 110.45,-783 110.45,-790"/>
</g>
<!-- marketplace&#45;&gt;select -->
<g id="edge6" class="edge">
<title>marketplace&#45;&gt;select</title>
<path fill="none" stroke="#2196f3" stroke-width="2" d="M150.75,-854.26C150.75,-854.26 150.75,-817.74 150.75,-817.74"/>
<polygon fill="#2196f3" stroke="#2196f3" stroke-width="2" points="154.25,-817.74 150.75,-807.74 147.25,-817.74 154.25,-817.74"/>
</g>
<!-- gh_import&#45;&gt;select -->
<g id="edge7" class="edge">
<title>gh_import&#45;&gt;select</title>
<path fill="none" stroke="#2196f3" stroke-width="2" d="M257.38,-854.26C257.38,-829.02 257.38,-786.5 257.38,-786.5 257.38,-786.5 191.24,-786.5 191.24,-786.5"/>
<polygon fill="#2196f3" stroke="#2196f3" stroke-width="2" points="191.24,-783 181.24,-786.5 191.24,-790 191.24,-783"/>
</g>
<!-- preview -->
<g id="node7" class="node">
<title>preview</title>
<path fill="#00bcd4" stroke="black" d="M168.5,-718.5C168.5,-718.5 133,-718.5 133,-718.5 127,-718.5 121,-712.5 121,-706.5 121,-706.5 121,-694.5 121,-694.5 121,-688.5 127,-682.5 133,-682.5 133,-682.5 168.5,-682.5 168.5,-682.5 174.5,-682.5 180.5,-688.5 180.5,-694.5 180.5,-694.5 180.5,-706.5 180.5,-706.5 180.5,-712.5 174.5,-718.5 168.5,-718.5"/>
<text xml:space="preserve" text-anchor="middle" x="150.75" y="-703" font-family="Arial" font-size="10.00" fill="white">Preview</text>
<text xml:space="preserve" text-anchor="middle" x="150.75" y="-691" font-family="Arial" font-size="10.00" fill="white">SKILL.md</text>
</g>
<!-- select&#45;&gt;preview -->
<g id="edge8" class="edge">
<title>select&#45;&gt;preview</title>
<path fill="none" stroke="#00bcd4" stroke-width="1.5" d="M150.75,-768.26C150.75,-768.26 150.75,-730.98 150.75,-730.98"/>
<polygon fill="#00bcd4" stroke="#00bcd4" stroke-width="1.5" points="154.25,-730.98 150.75,-720.98 147.25,-730.98 154.25,-730.98"/>
</g>
<!-- ai_explain -->
<g id="node8" class="node">
<title>ai_explain</title>
<path fill="#00bcd4" stroke="black" d="M106.62,-618.5C106.62,-618.5 50.88,-618.5 50.88,-618.5 44.88,-618.5 38.88,-612.5 38.88,-606.5 38.88,-606.5 38.88,-594.5 38.88,-594.5 38.88,-588.5 44.88,-582.5 50.88,-582.5 50.88,-582.5 106.62,-582.5 106.62,-582.5 112.62,-582.5 118.62,-588.5 118.62,-594.5 118.62,-594.5 118.62,-606.5 118.62,-606.5 118.62,-612.5 112.62,-618.5 106.62,-618.5"/>
<text xml:space="preserve" text-anchor="middle" x="78.75" y="-603" font-family="Arial" font-size="10.00" fill="white">AI Explanation</text>
<text xml:space="preserve" text-anchor="middle" x="78.75" y="-591" font-family="Arial" font-size="10.00" fill="white">(Claude/GLM)</text>
</g>
<!-- preview&#45;&gt;ai_explain -->
<g id="edge9" class="edge">
<title>preview&#45;&gt;ai_explain</title>
<path fill="none" stroke="#9c27b0" stroke-width="1.5" stroke-dasharray="5,2" d="M128.44,-682.16C128.44,-653.29 128.44,-600.5 128.44,-600.5 128.44,-600.5 127.48,-600.5 127.48,-600.5"/>
<polygon fill="#9c27b0" stroke="#9c27b0" stroke-width="1.5" points="131.13,-597 121.13,-600.5 131.13,-604 131.13,-597"/>
<text xml:space="preserve" text-anchor="middle" x="106.31" y="-644.05" font-family="Times New Roman,serif" font-size="14.00">optional</text>
</g>
<!-- install_decision -->
<g id="node9" class="node">
<title>install_decision</title>
<polygon fill="#f44336" stroke="black" points="222.75,-632.5 155,-600.5 222.75,-568.5 290.5,-600.5 222.75,-632.5"/>
<text xml:space="preserve" text-anchor="middle" x="222.75" y="-603" font-family="Arial Bold" font-size="10.00" fill="white">Install</text>
<text xml:space="preserve" text-anchor="middle" x="222.75" y="-591" font-family="Arial Bold" font-size="10.00" fill="white">to Central?</text>
</g>
<!-- preview&#45;&gt;install_decision -->
<g id="edge10" class="edge">
<title>preview&#45;&gt;install_decision</title>
<path fill="none" stroke="#2196f3" stroke-width="2" d="M167.75,-682.16C167.75,-682.16 167.75,-619.85 167.75,-619.85"/>
<polygon fill="#2196f3" stroke="#2196f3" stroke-width="2" points="171.25,-619.85 167.75,-609.85 164.25,-619.85 171.25,-619.85"/>
</g>
<!-- install_central -->
<g id="node10" class="node">
<title>install_central</title>
<path fill="#4caf50" stroke="black" d="M253.62,-518.5C253.62,-518.5 191.88,-518.5 191.88,-518.5 185.88,-518.5 179.88,-512.5 179.88,-506.5 179.88,-506.5 179.88,-494.5 179.88,-494.5 179.88,-488.5 185.88,-482.5 191.88,-482.5 191.88,-482.5 253.62,-482.5 253.62,-482.5 259.62,-482.5 265.62,-488.5 265.62,-494.5 265.62,-494.5 265.62,-506.5 265.62,-506.5 265.62,-512.5 259.62,-518.5 253.62,-518.5"/>
<text xml:space="preserve" text-anchor="middle" x="222.75" y="-503" font-family="Arial" font-size="10.00" fill="white">Install to</text>
<text xml:space="preserve" text-anchor="middle" x="222.75" y="-491" font-family="Arial" font-size="10.00" fill="white">~/.agents/skills/</text>
</g>
<!-- install_decision&#45;&gt;install_central -->
<g id="edge11" class="edge">
<title>install_decision&#45;&gt;install_central</title>
<path fill="none" stroke="#4caf50" stroke-width="2" d="M222.75,-568.03C222.75,-568.03 222.75,-531.85 222.75,-531.85"/>
<polygon fill="#4caf50" stroke="#4caf50" stroke-width="2" points="226.25,-531.85 222.75,-521.85 219.25,-531.85 226.25,-531.85"/>
<text xml:space="preserve" text-anchor="middle" x="212.62" y="-553.14" font-family="Times New Roman,serif" font-size="14.00">Yes</text>
</g>
<!-- symlink -->
<g id="node11" class="node">
<title>symlink</title>
<path fill="#4caf50" stroke="black" d="M255.12,-432.5C255.12,-432.5 190.38,-432.5 190.38,-432.5 184.38,-432.5 178.38,-426.5 178.38,-420.5 178.38,-420.5 178.38,-408.5 178.38,-408.5 178.38,-402.5 184.38,-396.5 190.38,-396.5 190.38,-396.5 255.12,-396.5 255.12,-396.5 261.12,-396.5 267.12,-402.5 267.12,-408.5 267.12,-408.5 267.12,-420.5 267.12,-420.5 267.12,-426.5 261.12,-432.5 255.12,-432.5"/>
<text xml:space="preserve" text-anchor="middle" x="222.75" y="-417" font-family="Arial" font-size="10.00" fill="white">Create Symlinks</text>
<text xml:space="preserve" text-anchor="middle" x="222.75" y="-405" font-family="Arial" font-size="10.00" fill="white">to Platforms</text>
</g>
<!-- install_central&#45;&gt;symlink -->
<g id="edge12" class="edge">
<title>install_central&#45;&gt;symlink</title>
<path fill="none" stroke="#4caf50" stroke-width="2" d="M222.75,-482.26C222.75,-482.26 222.75,-445.74 222.75,-445.74"/>
<polygon fill="#4caf50" stroke="#4caf50" stroke-width="2" points="226.25,-445.74 222.75,-435.74 219.25,-445.74 226.25,-445.74"/>
</g>
<!-- collection_decision -->
<g id="node12" class="node">
<title>collection_decision</title>
<polygon fill="#f44336" stroke="black" points="222.75,-346.5 152.75,-314.5 222.75,-282.5 292.75,-314.5 222.75,-346.5"/>
<text xml:space="preserve" text-anchor="middle" x="222.75" y="-317" font-family="Arial Bold" font-size="10.00" fill="white">Add to</text>
<text xml:space="preserve" text-anchor="middle" x="222.75" y="-305" font-family="Arial Bold" font-size="10.00" fill="white">Collection?</text>
</g>
<!-- symlink&#45;&gt;collection_decision -->
<g id="edge13" class="edge">
<title>symlink&#45;&gt;collection_decision</title>
<path fill="none" stroke="#2196f3" stroke-width="2" d="M222.75,-396.16C222.75,-396.16 222.75,-359.92 222.75,-359.92"/>
<polygon fill="#2196f3" stroke="#2196f3" stroke-width="2" points="226.25,-359.92 222.75,-349.92 219.25,-359.92 226.25,-359.92"/>
</g>
<!-- create_collection -->
<g id="node13" class="node">
<title>create_collection</title>
<path fill="#00bcd4" stroke="black" d="M203.62,-232.5C203.62,-232.5 147.88,-232.5 147.88,-232.5 141.88,-232.5 135.88,-226.5 135.88,-220.5 135.88,-220.5 135.88,-208.5 135.88,-208.5 135.88,-202.5 141.88,-196.5 147.88,-196.5 147.88,-196.5 203.62,-196.5 203.62,-196.5 209.62,-196.5 215.62,-202.5 215.62,-208.5 215.62,-208.5 215.62,-220.5 215.62,-220.5 215.62,-226.5 209.62,-232.5 203.62,-232.5"/>
<text xml:space="preserve" text-anchor="middle" x="175.75" y="-217" font-family="Arial" font-size="10.00" fill="white">Create/Update</text>
<text xml:space="preserve" text-anchor="middle" x="175.75" y="-205" font-family="Arial" font-size="10.00" fill="white">Collection</text>
</g>
<!-- collection_decision&#45;&gt;create_collection -->
<g id="edge14" class="edge">
<title>collection_decision&#45;&gt;create_collection</title>
<path fill="none" stroke="#4caf50" stroke-width="2" d="M184.19,-299.74C184.19,-299.74 184.19,-245.74 184.19,-245.74"/>
<polygon fill="#4caf50" stroke="#4caf50" stroke-width="2" points="187.69,-245.74 184.19,-235.74 180.69,-245.74 187.69,-245.74"/>
<text xml:space="preserve" text-anchor="middle" x="174.06" y="-259.44" font-family="Times New Roman,serif" font-size="14.00">Yes</text>
</g>
<!-- complete -->
<g id="node15" class="node">
<title>complete</title>
<path fill="#4caf50" stroke="black" d="M265.5,-60.5C265.5,-60.5 182,-60.5 182,-60.5 176,-60.5 170,-54.5 170,-48.5 170,-48.5 170,-36.5 170,-36.5 170,-30.5 176,-24.5 182,-24.5 182,-24.5 265.5,-24.5 265.5,-24.5 271.5,-24.5 277.5,-30.5 277.5,-36.5 277.5,-36.5 277.5,-48.5 277.5,-48.5 277.5,-54.5 271.5,-60.5 265.5,-60.5"/>
<text xml:space="preserve" text-anchor="middle" x="223.75" y="-45.55" font-family="Arial Bold" font-size="11.00" fill="white">Skill Active</text>
<text xml:space="preserve" text-anchor="middle" x="223.75" y="-32.05" font-family="Arial Bold" font-size="11.00" fill="white">Across Platforms</text>
</g>
<!-- collection_decision&#45;&gt;complete -->
<g id="edge17" class="edge">
<title>collection_decision&#45;&gt;complete</title>
<path fill="none" stroke="#ff9800" stroke-width="1.5" d="M246.56,-293.16C246.56,-293.16 246.56,-73.11 246.56,-73.11"/>
<polygon fill="#ff9800" stroke="#ff9800" stroke-width="1.5" points="250.06,-73.11 246.56,-63.11 243.06,-73.11 250.06,-73.11"/>
<text xml:space="preserve" text-anchor="middle" x="238.31" y="-186.33" font-family="Times New Roman,serif" font-size="14.00">No</text>
</g>
<!-- batch_install -->
<g id="node14" class="node">
<title>batch_install</title>
<path fill="#4caf50" stroke="black" d="M202.12,-146.5C202.12,-146.5 155.38,-146.5 155.38,-146.5 149.38,-146.5 143.38,-140.5 143.38,-134.5 143.38,-134.5 143.38,-122.5 143.38,-122.5 143.38,-116.5 149.38,-110.5 155.38,-110.5 155.38,-110.5 202.12,-110.5 202.12,-110.5 208.12,-110.5 214.12,-116.5 214.12,-122.5 214.12,-122.5 214.12,-134.5 214.12,-134.5 214.12,-140.5 208.12,-146.5 202.12,-146.5"/>
<text xml:space="preserve" text-anchor="middle" x="178.75" y="-131" font-family="Arial" font-size="10.00" fill="white">Batch Install</text>
<text xml:space="preserve" text-anchor="middle" x="178.75" y="-119" font-family="Arial" font-size="10.00" fill="white">Collection</text>
</g>
<!-- create_collection&#45;&gt;batch_install -->
<g id="edge15" class="edge">
<title>create_collection&#45;&gt;batch_install</title>
<path fill="none" stroke="#4caf50" stroke-width="2" d="M178.75,-196.26C178.75,-196.26 178.75,-159.74 178.75,-159.74"/>
<polygon fill="#4caf50" stroke="#4caf50" stroke-width="2" points="182.25,-159.74 178.75,-149.74 175.25,-159.74 182.25,-159.74"/>
</g>
<!-- batch_install&#45;&gt;complete -->
<g id="edge16" class="edge">
<title>batch_install&#45;&gt;complete</title>
<path fill="none" stroke="#4caf50" stroke-width="2" d="M192.06,-110.26C192.06,-110.26 192.06,-73.74 192.06,-73.74"/>
<polygon fill="#4caf50" stroke="#4caf50" stroke-width="2" points="195.56,-73.74 192.06,-63.74 188.56,-73.74 195.56,-73.74"/>
</g>
</g>
</svg>
