<?xml version="1.0" encoding="UTF-8" standalone="no"?>
<!DOCTYPE svg PUBLIC "-//W3C//DTD SVG 1.1//EN"
 "http://www.w3.org/Graphics/SVG/1.1/DTD/svg11.dtd">
<!-- Generated by graphviz version 14.1.2 (0)
 -->
<!-- Title: systems Pages: 1 -->
<svg width="860pt" height="130pt"
 viewBox="0.00 0.00 860.00 130.00" xmlns="http://www.w3.org/2000/svg" xmlns:xlink="http://www.w3.org/1999/xlink">
<g id="graph0" class="graph" transform="scale(1 1) rotate(0) translate(4 126)">
<title>systems</title>
<polygon fill="white" stroke="none" points="-4,4 -4,-126 855.88,-126 855.88,4 -4,4"/>
<!-- core_sys -->
<g id="node1" class="node">
<title>core_sys</title>
<path fill="#9c27b0" stroke="black" d="M313,-122C313,-122 227.25,-122 227.25,-122 221.25,-122 215.25,-116 215.25,-110 215.25,-110 215.25,-98 215.25,-98 215.25,-92 221.25,-86 227.25,-86 227.25,-86 313,-86 313,-86 319,-86 325,-92 325,-98 325,-98 325,-110 325,-110 325,-116 319,-122 313,-122"/>
<text xml:space="preserve" text-anchor="middle" x="270.12" y="-107.05" font-family="Arial Bold" font-size="11.00" fill="white">Core Systems</text>
<text xml:space="preserve" text-anchor="middle" x="270.12" y="-93.55" font-family="Arial Bold" font-size="11.00" fill="white">@pascal&#45;app/core</text>
</g>
<!-- wall -->
<g id="node2" class="node">
<title>wall</title>
<path fill="#4caf50" stroke="black" d="M72.25,-36C72.25,-36 12,-36 12,-36 6,-36 0,-30 0,-24 0,-24 0,-12 0,-12 0,-6 6,0 12,0 12,0 72.25,0 72.25,0 78.25,0 84.25,-6 84.25,-12 84.25,-12 84.25,-24 84.25,-24 84.25,-30 78.25,-36 72.25,-36"/>
<text xml:space="preserve" text-anchor="middle" x="42.12" y="-20.5" font-family="Arial" font-size="10.00" fill="white">WallSystem</text>
<text xml:space="preserve" text-anchor="middle" x="42.12" y="-8.5" font-family="Arial" font-size="10.00" fill="white">Mitering + CSG</text>
</g>
<!-- core_sys&#45;&gt;wall -->
<g id="edge1" class="edge">
<title>core_sys&#45;&gt;wall</title>
<path fill="none" stroke="#9c27b0" stroke-width="1.5" d="M214.93,-104C147.46,-104 42.12,-104 42.12,-104 42.12,-104 42.12,-48.51 42.12,-48.51"/>
<polygon fill="#9c27b0" stroke="#9c27b0" stroke-width="1.5" points="45.63,-48.51 42.13,-38.51 38.63,-48.51 45.63,-48.51"/>
</g>
<!-- slab -->
<g id="node3" class="node">
<title>slab</title>
<path fill="#4caf50" stroke="black" d="M182.75,-36C182.75,-36 125.5,-36 125.5,-36 119.5,-36 113.5,-30 113.5,-24 113.5,-24 113.5,-12 113.5,-12 113.5,-6 119.5,0 125.5,0 125.5,0 182.75,0 182.75,0 188.75,0 194.75,-6 194.75,-12 194.75,-12 194.75,-24 194.75,-24 194.75,-30 188.75,-36 182.75,-36"/>
<text xml:space="preserve" text-anchor="middle" x="154.12" y="-20.5" font-family="Arial" font-size="10.00" fill="white">SlabSystem</text>
<text xml:space="preserve" text-anchor="middle" x="154.12" y="-8.5" font-family="Arial" font-size="10.00" fill="white">Floor Polygons</text>
</g>
<!-- core_sys&#45;&gt;slab -->
<g id="edge2" class="edge">
<title>core_sys&#45;&gt;slab</title>
<path fill="none" stroke="#9c27b0" stroke-width="1.5" d="M219.75,-85.76C219.75,-60.52 219.75,-18 219.75,-18 219.75,-18 207.21,-18 207.21,-18"/>
<polygon fill="#9c27b0" stroke="#9c27b0" stroke-width="1.5" points="207.21,-14.5 197.21,-18 207.21,-21.5 207.21,-14.5"/>
</g>
<!-- ceiling -->
<g id="node4" class="node">
<title>ceiling</title>
<path fill="#4caf50" stroke="black" d="M304,-36C304,-36 236.25,-36 236.25,-36 230.25,-36 224.25,-30 224.25,-24 224.25,-24 224.25,-12 224.25,-12 224.25,-6 230.25,0 236.25,0 236.25,0 304,0 304,0 310,0 316,-6 316,-12 316,-12 316,-24 316,-24 316,-30 310,-36 304,-36"/>
<text xml:space="preserve" text-anchor="middle" x="270.12" y="-20.5" font-family="Arial" font-size="10.00" fill="white">CeilingSystem</text>
<text xml:space="preserve" text-anchor="middle" x="270.12" y="-8.5" font-family="Arial" font-size="10.00" fill="white">Ceiling Geometry</text>
</g>
<!-- core_sys&#45;&gt;ceiling -->
<g id="edge3" class="edge">
<title>core_sys&#45;&gt;ceiling</title>
<path fill="none" stroke="#9c27b0" stroke-width="1.5" d="M270.12,-85.76C270.12,-85.76 270.12,-48.48 270.12,-48.48"/>
<polygon fill="#9c27b0" stroke="#9c27b0" stroke-width="1.5" points="273.63,-48.48 270.13,-38.48 266.63,-48.48 273.63,-48.48"/>
</g>
<!-- roof -->
<g id="node5" class="node">
<title>roof</title>
<path fill="#4caf50" stroke="black" d="M415.5,-36C415.5,-36 356.75,-36 356.75,-36 350.75,-36 344.75,-30 344.75,-24 344.75,-24 344.75,-12 344.75,-12 344.75,-6 350.75,0 356.75,0 356.75,0 415.5,0 415.5,0 421.5,0 427.5,-6 427.5,-12 427.5,-12 427.5,-24 427.5,-24 427.5,-30 421.5,-36 415.5,-36"/>
<text xml:space="preserve" text-anchor="middle" x="386.12" y="-20.5" font-family="Arial" font-size="10.00" fill="white">RoofSystem</text>
<text xml:space="preserve" text-anchor="middle" x="386.12" y="-8.5" font-family="Arial" font-size="10.00" fill="white">Roof Geometry</text>
</g>
<!-- core_sys&#45;&gt;roof -->
<g id="edge4" class="edge">
<title>core_sys&#45;&gt;roof</title>
<path fill="none" stroke="#9c27b0" stroke-width="1.5" d="M320.5,-85.76C320.5,-60.52 320.5,-18 320.5,-18 320.5,-18 332.29,-18 332.29,-18"/>
<polygon fill="#9c27b0" stroke="#9c27b0" stroke-width="1.5" points="332.29,-21.5 342.29,-18 332.29,-14.5 332.29,-21.5"/>
</g>
<!-- item -->
<g id="node6" class="node">
<title>item</title>
<path fill="#4caf50" stroke="black" d="M513.75,-36C513.75,-36 468.5,-36 468.5,-36 462.5,-36 456.5,-30 456.5,-24 456.5,-24 456.5,-12 456.5,-12 456.5,-6 462.5,0 468.5,0 468.5,0 513.75,0 513.75,0 519.75,0 525.75,-6 525.75,-12 525.75,-12 525.75,-24 525.75,-24 525.75,-30 519.75,-36 513.75,-36"/>
<text xml:space="preserve" text-anchor="middle" x="491.12" y="-20.5" font-family="Arial" font-size="10.00" fill="white">ItemSystem</text>
<text xml:space="preserve" text-anchor="middle" x="491.12" y="-8.5" font-family="Arial" font-size="10.00" fill="white">Positioning</text>
</g>
<!-- core_sys&#45;&gt;item -->
<g id="edge5" class="edge">
<title>core_sys&#45;&gt;item</title>
<path fill="none" stroke="#9c27b0" stroke-width="1.5" d="M325.32,-104C390.78,-104 491.12,-104 491.12,-104 491.12,-104 491.12,-48.51 491.12,-48.51"/>
<polygon fill="#9c27b0" stroke="#9c27b0" stroke-width="1.5" points="494.63,-48.51 491.13,-38.51 487.63,-48.51 494.63,-48.51"/>
</g>
<!-- viewer_sys -->
<g id="node7" class="node">
<title>viewer_sys</title>
<path fill="#ff9800" stroke="black" d="M746.25,-122C746.25,-122 656,-122 656,-122 650,-122 644,-116 644,-110 644,-110 644,-98 644,-98 644,-92 650,-86 656,-86 656,-86 746.25,-86 746.25,-86 752.25,-86 758.25,-92 758.25,-98 758.25,-98 758.25,-110 758.25,-110 758.25,-116 752.25,-122 746.25,-122"/>
<text xml:space="preserve" text-anchor="middle" x="701.12" y="-107.05" font-family="Arial" font-size="11.00" fill="white">Viewer Systems</text>
<text xml:space="preserve" text-anchor="middle" x="701.12" y="-93.55" font-family="Arial" font-size="11.00" fill="white">@pascal&#45;app/viewer</text>
</g>
<!-- level -->
<g id="node8" class="node">
<title>level</title>
<path fill="#4caf50" stroke="black" d="M615.62,-36C615.62,-36 566.62,-36 566.62,-36 560.62,-36 554.62,-30 554.62,-24 554.62,-24 554.62,-12 554.62,-12 554.62,-6 560.62,0 566.62,0 566.62,0 615.62,0 615.62,0 621.62,0 627.62,-6 627.62,-12 627.62,-12 627.62,-24 627.62,-24 627.62,-30 621.62,-36 615.62,-36"/>
<text xml:space="preserve" text-anchor="middle" x="591.12" y="-20.5" font-family="Arial" font-size="10.00" fill="white">LevelSystem</text>
<text xml:space="preserve" text-anchor="middle" x="591.12" y="-8.5" font-family="Arial" font-size="10.00" fill="white">Visibility</text>
</g>
<!-- viewer_sys&#45;&gt;level -->
<g id="edge6" class="edge">
<title>viewer_sys&#45;&gt;level</title>
<path fill="none" stroke="#ff9800" stroke-width="1.5" d="M650.38,-85.76C650.38,-60.52 650.38,-18 650.38,-18 650.38,-18 640.25,-18 640.25,-18"/>
<polygon fill="#ff9800" stroke="#ff9800" stroke-width="1.5" points="640.25,-14.5 630.25,-18 640.25,-21.5 640.25,-14.5"/>
</g>
<!-- scan -->
<g id="node9" class="node">
<title>scan</title>
<path fill="#4caf50" stroke="black" d="M733.5,-36C733.5,-36 668.75,-36 668.75,-36 662.75,-36 656.75,-30 656.75,-24 656.75,-24 656.75,-12 656.75,-12 656.75,-6 662.75,0 668.75,0 668.75,0 733.5,0 733.5,0 739.5,0 745.5,-6 745.5,-12 745.5,-12 745.5,-24 745.5,-24 745.5,-30 739.5,-36 733.5,-36"/>
<text xml:space="preserve" text-anchor="middle" x="701.12" y="-20.5" font-family="Arial" font-size="10.00" fill="white">ScanSystem</text>
<text xml:space="preserve" text-anchor="middle" x="701.12" y="-8.5" font-family="Arial" font-size="10.00" fill="white">3D Scan Control</text>
</g>
<!-- viewer_sys&#45;&gt;scan -->
<g id="edge7" class="edge">
<title>viewer_sys&#45;&gt;scan</title>
<path fill="none" stroke="#ff9800" stroke-width="1.5" d="M701.12,-85.76C701.12,-85.76 701.12,-48.48 701.12,-48.48"/>
<polygon fill="#ff9800" stroke="#ff9800" stroke-width="1.5" points="704.63,-48.48 701.13,-38.48 697.63,-48.48 704.63,-48.48"/>
</g>
<!-- guide -->
<g id="node10" class="node">
<title>guide</title>
<path fill="#4caf50" stroke="black" d="M839.88,-36C839.88,-36 786.38,-36 786.38,-36 780.38,-36 774.38,-30 774.38,-24 774.38,-24 774.38,-12 774.38,-12 774.38,-6 780.38,0 786.38,0 786.38,0 839.88,0 839.88,0 845.88,0 851.88,-6 851.88,-12 851.88,-12 851.88,-24 851.88,-24 851.88,-30 845.88,-36 839.88,-36"/>
<text xml:space="preserve" text-anchor="middle" x="813.12" y="-20.5" font-family="Arial" font-size="10.00" fill="white">GuideSystem</text>
<text xml:space="preserve" text-anchor="middle" x="813.12" y="-8.5" font-family="Arial" font-size="10.00" fill="white">Image Control</text>
</g>
<!-- viewer_sys&#45;&gt;guide -->
<g id="edge8" class="edge">
<title>viewer_sys&#45;&gt;guide</title>
<path fill="none" stroke="#ff9800" stroke-width="1.5" d="M751.88,-85.76C751.88,-60.52 751.88,-18 751.88,-18 751.88,-18 761.72,-18 761.72,-18"/>
<polygon fill="#ff9800" stroke="#ff9800" stroke-width="1.5" points="761.72,-21.5 771.72,-18 761.72,-14.5 761.72,-21.5"/>
</g>
</g>
</svg>
