<?xml version="1.0" encoding="UTF-8" standalone="no"?>
<!DOCTYPE svg PUBLIC "-//W3C//DTD SVG 1.1//EN"
 "http://www.w3.org/Graphics/SVG/1.1/DTD/svg11.dtd">
<!-- Generated by graphviz version 14.1.2 (0)
 -->
<!-- Title: langchain_ecosystem Pages: 1 -->
<svg width="743pt" height="270pt"
 viewBox="0.00 0.00 743.00 270.00" xmlns="http://www.w3.org/2000/svg" xmlns:xlink="http://www.w3.org/1999/xlink">
<style>
<!-- White text halo for edge label readability -->
text { paint-order: stroke; stroke: #ffffff; stroke-width: 3px; stroke-linejoin: round; fill: #1a1a2e; }
</style>
<g id="graph0" class="graph" transform="scale(1 1) rotate(0) translate(4 265.5)">
<title>langchain_ecosystem</title>
<polygon fill="white" stroke="none" points="-4,4 -4,-265.5 738.88,-265.5 738.88,4 -4,4"/>
<text xml:space="preserve" text-anchor="middle" x="367.44" y="-7.2" font-family="Times New Roman,serif" font-size="14.00">LangChain Ecosystem</text>
<!-- lc_core -->
<g id="node1" class="node">
<title>lc_core</title>
<path fill="#2196f3" stroke="black" d="M418.75,-261.5C418.75,-261.5 297,-261.5 297,-261.5 291,-261.5 285,-255.5 285,-249.5 285,-249.5 285,-237 285,-237 285,-231 291,-225 297,-225 297,-225 418.75,-225 418.75,-225 424.75,-225 430.75,-231 430.75,-237 430.75,-237 430.75,-249.5 430.75,-249.5 430.75,-255.5 424.75,-261.5 418.75,-261.5"/>
<text xml:space="preserve" text-anchor="middle" x="357.88" y="-246.1" font-family="Arial Bold" font-size="12.00" fill="white">LangChain Framework</text>
<text xml:space="preserve" text-anchor="middle" x="357.88" y="-231.85" font-family="Arial Bold" font-size="12.00" fill="white">Python + JS/TS</text>
</g>
<!-- langgraph -->
<g id="node2" class="node">
<title>langgraph</title>
<path fill="#ff9800" stroke="black" d="M97.75,-167C97.75,-167 12,-167 12,-167 6,-167 0,-161 0,-155 0,-155 0,-130.5 0,-130.5 0,-124.5 6,-118.5 12,-118.5 12,-118.5 97.75,-118.5 97.75,-118.5 103.75,-118.5 109.75,-124.5 109.75,-130.5 109.75,-130.5 109.75,-155 109.75,-155 109.75,-161 103.75,-167 97.75,-167"/>
<text xml:space="preserve" text-anchor="middle" x="54.88" y="-152.55" font-family="Arial" font-size="11.00" fill="white">LangGraph</text>
<text xml:space="preserve" text-anchor="middle" x="54.88" y="-139.05" font-family="Arial" font-size="11.00" fill="white">Agent orchestration</text>
<text xml:space="preserve" text-anchor="middle" x="54.88" y="-125.55" font-family="Arial" font-size="11.00" fill="white">State machines</text>
</g>
<!-- lc_core&#45;&gt;langgraph -->
<g id="edge1" class="edge">
<title>lc_core&#45;&gt;langgraph</title>
<path fill="none" stroke="#2196f3" stroke-width="2" d="M284.53,-243.5C194.85,-243.5 54.88,-243.5 54.88,-243.5 54.88,-243.5 54.88,-180.42 54.88,-180.42"/>
<polygon fill="#2196f3" stroke="#2196f3" stroke-width="2" points="58.38,-180.42 54.88,-170.42 51.38,-180.42 58.38,-180.42"/>
</g>
<!-- langsmith -->
<g id="node3" class="node">
<title>langsmith</title>
<path fill="#ff9800" stroke="black" d="M249.75,-167C249.75,-167 158,-167 158,-167 152,-167 146,-161 146,-155 146,-155 146,-130.5 146,-130.5 146,-124.5 152,-118.5 158,-118.5 158,-118.5 249.75,-118.5 249.75,-118.5 255.75,-118.5 261.75,-124.5 261.75,-130.5 261.75,-130.5 261.75,-155 261.75,-155 261.75,-161 255.75,-167 249.75,-167"/>
<text xml:space="preserve" text-anchor="middle" x="203.88" y="-152.55" font-family="Arial" font-size="11.00" fill="white">LangSmith</text>
<text xml:space="preserve" text-anchor="middle" x="203.88" y="-139.05" font-family="Arial" font-size="11.00" fill="white">Observability &amp; evals</text>
<text xml:space="preserve" text-anchor="middle" x="203.88" y="-125.55" font-family="Arial" font-size="11.00" fill="white">Debugging</text>
</g>
<!-- lc_core&#45;&gt;langsmith -->
<g id="edge2" class="edge">
<title>lc_core&#45;&gt;langsmith</title>
<path fill="none" stroke="#2196f3" stroke-width="2" d="M291.19,-224.77C291.19,-195.69 291.19,-142.5 291.19,-142.5 291.19,-142.5 275.14,-142.5 275.14,-142.5"/>
<polygon fill="#2196f3" stroke="#2196f3" stroke-width="2" points="275.14,-139 265.14,-142.5 275.14,-146 275.14,-139"/>
</g>
<!-- deepagents -->
<g id="node4" class="node">
<title>deepagents</title>
<path fill="#ff9800" stroke="black" d="M406.38,-167C406.38,-167 309.38,-167 309.38,-167 303.38,-167 297.38,-161 297.38,-155 297.38,-155 297.38,-130.5 297.38,-130.5 297.38,-124.5 303.38,-118.5 309.38,-118.5 309.38,-118.5 406.38,-118.5 406.38,-118.5 412.38,-118.5 418.38,-124.5 418.38,-130.5 418.38,-130.5 418.38,-155 418.38,-155 418.38,-161 412.38,-167 406.38,-167"/>
<text xml:space="preserve" text-anchor="middle" x="357.88" y="-152.55" font-family="Arial" font-size="11.00" fill="white">Deep Agents</text>
<text xml:space="preserve" text-anchor="middle" x="357.88" y="-139.05" font-family="Arial" font-size="11.00" fill="white">Planning &amp; subagents</text>
<text xml:space="preserve" text-anchor="middle" x="357.88" y="-125.55" font-family="Arial" font-size="11.00" fill="white">File system access</text>
</g>
<!-- lc_core&#45;&gt;deepagents -->
<g id="edge3" class="edge">
<title>lc_core&#45;&gt;deepagents</title>
<path fill="none" stroke="#2196f3" stroke-width="2" d="M357.88,-224.82C357.88,-224.82 357.88,-180.16 357.88,-180.16"/>
<polygon fill="#2196f3" stroke="#2196f3" stroke-width="2" points="361.38,-180.16 357.88,-170.16 354.38,-180.16 361.38,-180.16"/>
</g>
<!-- integrations -->
<g id="node5" class="node">
<title>integrations</title>
<path fill="#ff9800" stroke="black" d="M557,-167C557,-167 466.75,-167 466.75,-167 460.75,-167 454.75,-161 454.75,-155 454.75,-155 454.75,-130.5 454.75,-130.5 454.75,-124.5 460.75,-118.5 466.75,-118.5 466.75,-118.5 557,-118.5 557,-118.5 563,-118.5 569,-124.5 569,-130.5 569,-130.5 569,-155 569,-155 569,-161 563,-167 557,-167"/>
<text xml:space="preserve" text-anchor="middle" x="511.88" y="-152.55" font-family="Arial" font-size="11.00" fill="white">Integrations</text>
<text xml:space="preserve" text-anchor="middle" x="511.88" y="-139.05" font-family="Arial" font-size="11.00" fill="white">100+ providers</text>
<text xml:space="preserve" text-anchor="middle" x="511.88" y="-125.55" font-family="Arial" font-size="11.00" fill="white">Models, tools, stores</text>
</g>
<!-- lc_core&#45;&gt;integrations -->
<g id="edge4" class="edge">
<title>lc_core&#45;&gt;integrations</title>
<path fill="none" stroke="#2196f3" stroke-width="2" d="M424.56,-224.77C424.56,-195.69 424.56,-142.5 424.56,-142.5 424.56,-142.5 441.58,-142.5 441.58,-142.5"/>
<polygon fill="#2196f3" stroke="#2196f3" stroke-width="2" points="441.58,-146 451.58,-142.5 441.58,-139 441.58,-146"/>
</g>
<!-- academy -->
<g id="node6" class="node">
<title>academy</title>
<path fill="#9c27b0" stroke="black" d="M722.88,-160.75C722.88,-160.75 616.88,-160.75 616.88,-160.75 610.88,-160.75 604.88,-154.75 604.88,-148.75 604.88,-148.75 604.88,-136.75 604.88,-136.75 604.88,-130.75 610.88,-124.75 616.88,-124.75 616.88,-124.75 722.88,-124.75 722.88,-124.75 728.88,-124.75 734.88,-130.75 734.88,-136.75 734.88,-136.75 734.88,-148.75 734.88,-148.75 734.88,-154.75 728.88,-160.75 722.88,-160.75"/>
<text xml:space="preserve" text-anchor="middle" x="669.88" y="-145.8" font-family="Arial" font-size="11.00" fill="white">LangChain Academy</text>
<text xml:space="preserve" text-anchor="middle" x="669.88" y="-132.3" font-family="Arial" font-size="11.00" fill="white">Free courses &amp; tutorials</text>
</g>
<!-- lc_core&#45;&gt;academy -->
<g id="edge5" class="edge">
<title>lc_core&#45;&gt;academy</title>
<path fill="none" stroke="#2196f3" stroke-width="2" d="M431.03,-243.5C523.24,-243.5 669.88,-243.5 669.88,-243.5 669.88,-243.5 669.88,-174.26 669.88,-174.26"/>
<polygon fill="#2196f3" stroke="#2196f3" stroke-width="2" points="673.38,-174.26 669.88,-164.26 666.38,-174.26 673.38,-174.26"/>
</g>
<!-- deploy -->
<g id="node7" class="node">
<title>deploy</title>
<polygon fill="#f44336" stroke="black" points="193.12,-60.5 64.62,-60.5 64.62,-24.5 193.12,-24.5 193.12,-60.5"/>
<text xml:space="preserve" text-anchor="middle" x="128.88" y="-45.55" font-family="Arial" font-size="11.00" fill="white">LangSmith Deployment</text>
<text xml:space="preserve" text-anchor="middle" x="128.88" y="-32.05" font-family="Arial" font-size="11.00" fill="white">Production hosting</text>
</g>
<!-- langgraph&#45;&gt;deploy -->
<g id="edge7" class="edge">
<title>langgraph&#45;&gt;deploy</title>
<path fill="none" stroke="#f44336" stroke-width="2" d="M87.19,-118.23C87.19,-118.23 87.19,-73.82 87.19,-73.82"/>
<polygon fill="#f44336" stroke="#f44336" stroke-width="2" points="90.69,-73.82 87.19,-63.82 83.69,-73.82 90.69,-73.82"/>
</g>
<!-- langsmith&#45;&gt;deploy -->
<g id="edge6" class="edge">
<title>langsmith&#45;&gt;deploy</title>
<path fill="none" stroke="#f44336" stroke-width="2" d="M169.56,-118.23C169.56,-118.23 169.56,-73.82 169.56,-73.82"/>
<polygon fill="#f44336" stroke="#f44336" stroke-width="2" points="173.06,-73.82 169.56,-63.82 166.06,-73.82 173.06,-73.82"/>
</g>
</g>
</svg>
