<?xml version="1.0" encoding="UTF-8" standalone="no"?>
<!DOCTYPE svg PUBLIC "-//W3C//DTD SVG 1.1//EN"
 "http://www.w3.org/Graphics/SVG/1.1/DTD/svg11.dtd">
<!-- Generated by graphviz version 14.1.2 (0)
 -->
<!-- Title: langchain_features Pages: 1 -->
<svg width="1210pt" height="271pt"
 viewBox="0.00 0.00 1210.00 271.00" xmlns="http://www.w3.org/2000/svg" xmlns:xlink="http://www.w3.org/1999/xlink">
<style>
<!-- White text halo for edge label readability -->
text { paint-order: stroke; stroke: #ffffff; stroke-width: 3px; stroke-linejoin: round; fill: #1a1a2e; }
</style>
<g id="graph0" class="graph" transform="scale(1 1) rotate(0) translate(4 267.25)">
<title>langchain_features</title>
<polygon fill="white" stroke="none" points="-4,4 -4,-267.25 1206.38,-267.25 1206.38,4 -4,4"/>
<text xml:space="preserve" text-anchor="middle" x="601.19" y="-7.2" font-family="Times New Roman,serif" font-size="14.00">LangChain Key Features</text>
<!-- user -->
<g id="node1" class="node">
<title>user</title>
<polygon fill="#4caf50" stroke="black" points="658.12,-263.25 592.62,-263.25 592.62,-227.25 658.12,-227.25 658.12,-263.25"/>
<text xml:space="preserve" text-anchor="middle" x="625.38" y="-241.55" font-family="Arial" font-size="11.00" fill="white">Developer</text>
</g>
<!-- models -->
<g id="node2" class="node">
<title>models</title>
<path fill="#2196f3" stroke="black" d="M190.75,-169.25C190.75,-169.25 12,-169.25 12,-169.25 6,-169.25 0,-163.25 0,-157.25 0,-157.25 0,-130.5 0,-130.5 0,-124.5 6,-118.5 12,-118.5 12,-118.5 190.75,-118.5 190.75,-118.5 196.75,-118.5 202.75,-124.5 202.75,-130.5 202.75,-130.5 202.75,-157.25 202.75,-157.25 202.75,-163.25 196.75,-169.25 190.75,-169.25"/>
<text xml:space="preserve" text-anchor="middle" x="101.38" y="-153.85" font-family="Arial Bold" font-size="12.00" fill="white">Model I/O</text>
<text xml:space="preserve" text-anchor="middle" x="101.38" y="-139.6" font-family="Arial Bold" font-size="12.00" fill="white">Chat models, LLMs, embeddings</text>
<text xml:space="preserve" text-anchor="middle" x="101.38" y="-125.35" font-family="Arial Bold" font-size="12.00" fill="white">Prompt templates</text>
</g>
<!-- user&#45;&gt;models -->
<g id="edge1" class="edge">
<title>user&#45;&gt;models</title>
<path fill="none" stroke="#4caf50" stroke-width="2" d="M592.2,-251.5C477.01,-251.5 101.38,-251.5 101.38,-251.5 101.38,-251.5 101.38,-182.68 101.38,-182.68"/>
<polygon fill="#4caf50" stroke="#4caf50" stroke-width="2" points="104.88,-182.68 101.38,-172.68 97.88,-182.68 104.88,-182.68"/>
</g>
<!-- retrieval -->
<g id="node3" class="node">
<title>retrieval</title>
<path fill="#2196f3" stroke="black" d="M378.25,-169.25C378.25,-169.25 250.5,-169.25 250.5,-169.25 244.5,-169.25 238.5,-163.25 238.5,-157.25 238.5,-157.25 238.5,-130.5 238.5,-130.5 238.5,-124.5 244.5,-118.5 250.5,-118.5 250.5,-118.5 378.25,-118.5 378.25,-118.5 384.25,-118.5 390.25,-124.5 390.25,-130.5 390.25,-130.5 390.25,-157.25 390.25,-157.25 390.25,-163.25 384.25,-169.25 378.25,-169.25"/>
<text xml:space="preserve" text-anchor="middle" x="314.38" y="-153.85" font-family="Arial Bold" font-size="12.00" fill="white">Retrieval</text>
<text xml:space="preserve" text-anchor="middle" x="314.38" y="-139.6" font-family="Arial Bold" font-size="12.00" fill="white">Vector stores, retrievers</text>
<text xml:space="preserve" text-anchor="middle" x="314.38" y="-125.35" font-family="Arial Bold" font-size="12.00" fill="white">Document loaders</text>
</g>
<!-- user&#45;&gt;retrieval -->
<g id="edge2" class="edge">
<title>user&#45;&gt;retrieval</title>
<path fill="none" stroke="#4caf50" stroke-width="2" d="M592.39,-239.5C512.35,-239.5 314.38,-239.5 314.38,-239.5 314.38,-239.5 314.38,-182.53 314.38,-182.53"/>
<polygon fill="#4caf50" stroke="#4caf50" stroke-width="2" points="317.88,-182.53 314.38,-172.53 310.88,-182.53 317.88,-182.53"/>
</g>
<!-- agents -->
<g id="node4" class="node">
<title>agents</title>
<path fill="#2196f3" stroke="black" d="M572.62,-169.25C572.62,-169.25 438.12,-169.25 438.12,-169.25 432.12,-169.25 426.12,-163.25 426.12,-157.25 426.12,-157.25 426.12,-130.5 426.12,-130.5 426.12,-124.5 432.12,-118.5 438.12,-118.5 438.12,-118.5 572.62,-118.5 572.62,-118.5 578.62,-118.5 584.62,-124.5 584.62,-130.5 584.62,-130.5 584.62,-157.25 584.62,-157.25 584.62,-163.25 578.62,-169.25 572.62,-169.25"/>
<text xml:space="preserve" text-anchor="middle" x="505.38" y="-153.85" font-family="Arial Bold" font-size="12.00" fill="white">Agents</text>
<text xml:space="preserve" text-anchor="middle" x="505.38" y="-139.6" font-family="Arial Bold" font-size="12.00" fill="white">Tool use, planning</text>
<text xml:space="preserve" text-anchor="middle" x="505.38" y="-125.35" font-family="Arial Bold" font-size="12.00" fill="white">Multi&#45;agent orchestration</text>
</g>
<!-- user&#45;&gt;agents -->
<g id="edge3" class="edge">
<title>user&#45;&gt;agents</title>
<path fill="none" stroke="#4caf50" stroke-width="2" d="M606.5,-227.06C606.5,-197.79 606.5,-143.5 606.5,-143.5 606.5,-143.5 598.08,-143.5 598.08,-143.5"/>
<polygon fill="#4caf50" stroke="#4caf50" stroke-width="2" points="598.08,-140 588.08,-143.5 598.08,-147 598.08,-140"/>
</g>
<!-- chains -->
<g id="node5" class="node">
<title>chains</title>
<path fill="#2196f3" stroke="black" d="M858.38,-169.25C858.38,-169.25 632.38,-169.25 632.38,-169.25 626.38,-169.25 620.38,-163.25 620.38,-157.25 620.38,-157.25 620.38,-130.5 620.38,-130.5 620.38,-124.5 626.38,-118.5 632.38,-118.5 632.38,-118.5 858.38,-118.5 858.38,-118.5 864.38,-118.5 870.38,-124.5 870.38,-130.5 870.38,-130.5 870.38,-157.25 870.38,-157.25 870.38,-163.25 864.38,-169.25 858.38,-169.25"/>
<text xml:space="preserve" text-anchor="middle" x="745.38" y="-153.85" font-family="Arial Bold" font-size="12.00" fill="white">Chains</text>
<text xml:space="preserve" text-anchor="middle" x="745.38" y="-139.6" font-family="Arial Bold" font-size="12.00" fill="white">Composable pipelines</text>
<text xml:space="preserve" text-anchor="middle" x="745.38" y="-125.35" font-family="Arial Bold" font-size="12.00" fill="white">LCEL (LangChain Expression Language)</text>
</g>
<!-- user&#45;&gt;chains -->
<g id="edge4" class="edge">
<title>user&#45;&gt;chains</title>
<path fill="none" stroke="#4caf50" stroke-width="2" d="M639.25,-227.13C639.25,-227.13 639.25,-182.49 639.25,-182.49"/>
<polygon fill="#4caf50" stroke="#4caf50" stroke-width="2" points="642.75,-182.49 639.25,-172.49 635.75,-182.49 642.75,-182.49"/>
</g>
<!-- memory -->
<g id="node6" class="node">
<title>memory</title>
<path fill="#2196f3" stroke="black" d="M1030.38,-169.25C1030.38,-169.25 918.38,-169.25 918.38,-169.25 912.38,-169.25 906.38,-163.25 906.38,-157.25 906.38,-157.25 906.38,-130.5 906.38,-130.5 906.38,-124.5 912.38,-118.5 918.38,-118.5 918.38,-118.5 1030.38,-118.5 1030.38,-118.5 1036.38,-118.5 1042.38,-124.5 1042.38,-130.5 1042.38,-130.5 1042.38,-157.25 1042.38,-157.25 1042.38,-163.25 1036.38,-169.25 1030.38,-169.25"/>
<text xml:space="preserve" text-anchor="middle" x="974.38" y="-153.85" font-family="Arial Bold" font-size="12.00" fill="white">Memory</text>
<text xml:space="preserve" text-anchor="middle" x="974.38" y="-139.6" font-family="Arial Bold" font-size="12.00" fill="white">Conversation history</text>
<text xml:space="preserve" text-anchor="middle" x="974.38" y="-125.35" font-family="Arial Bold" font-size="12.00" fill="white">State management</text>
</g>
<!-- user&#45;&gt;memory -->
<g id="edge5" class="edge">
<title>user&#45;&gt;memory</title>
<path fill="none" stroke="#4caf50" stroke-width="2" d="M658.52,-239.5C745.64,-239.5 974.38,-239.5 974.38,-239.5 974.38,-239.5 974.38,-182.53 974.38,-182.53"/>
<polygon fill="#4caf50" stroke="#4caf50" stroke-width="2" points="977.88,-182.53 974.38,-172.53 970.88,-182.53 977.88,-182.53"/>
</g>
<!-- callbacks -->
<g id="node7" class="node">
<title>callbacks</title>
<path fill="#2196f3" stroke="black" d="M1190.38,-169.25C1190.38,-169.25 1090.38,-169.25 1090.38,-169.25 1084.38,-169.25 1078.38,-163.25 1078.38,-157.25 1078.38,-157.25 1078.38,-130.5 1078.38,-130.5 1078.38,-124.5 1084.38,-118.5 1090.38,-118.5 1090.38,-118.5 1190.38,-118.5 1190.38,-118.5 1196.38,-118.5 1202.38,-124.5 1202.38,-130.5 1202.38,-130.5 1202.38,-157.25 1202.38,-157.25 1202.38,-163.25 1196.38,-169.25 1190.38,-169.25"/>
<text xml:space="preserve" text-anchor="middle" x="1140.38" y="-153.85" font-family="Arial Bold" font-size="12.00" fill="white">Callbacks</text>
<text xml:space="preserve" text-anchor="middle" x="1140.38" y="-139.6" font-family="Arial Bold" font-size="12.00" fill="white">Streaming, logging</text>
<text xml:space="preserve" text-anchor="middle" x="1140.38" y="-125.35" font-family="Arial Bold" font-size="12.00" fill="white">Event handling</text>
</g>
<!-- user&#45;&gt;callbacks -->
<g id="edge6" class="edge">
<title>user&#45;&gt;callbacks</title>
<path fill="none" stroke="#4caf50" stroke-width="2" d="M658.37,-251.5C772.04,-251.5 1140.38,-251.5 1140.38,-251.5 1140.38,-251.5 1140.38,-182.68 1140.38,-182.68"/>
<polygon fill="#4caf50" stroke="#4caf50" stroke-width="2" points="1143.88,-182.68 1140.38,-172.68 1136.88,-182.68 1143.88,-182.68"/>
</g>
<!-- app -->
<g id="node8" class="node">
<title>app</title>
<polygon fill="#f44336" stroke="black" points="676.5,-60.5 574.25,-60.5 574.25,-24.5 676.5,-24.5 676.5,-60.5"/>
<text xml:space="preserve" text-anchor="middle" x="625.38" y="-38.8" font-family="Arial" font-size="11.00" fill="white">Production AI App</text>
</g>
<!-- models&#45;&gt;app -->
<g id="edge7" class="edge">
<title>models&#45;&gt;app</title>
<path fill="none" stroke="#2196f3" stroke-width="1.5" d="M101.38,-118.16C101.38,-86.39 101.38,-36.5 101.38,-36.5 101.38,-36.5 561.91,-36.5 561.91,-36.5"/>
<polygon fill="#2196f3" stroke="#2196f3" stroke-width="1.5" points="561.91,-40 571.91,-36.5 561.91,-33 561.91,-40"/>
</g>
<!-- retrieval&#45;&gt;app -->
<g id="edge8" class="edge">
<title>retrieval&#45;&gt;app</title>
<path fill="none" stroke="#2196f3" stroke-width="1.5" d="M314.38,-118.07C314.38,-89.82 314.38,-48.5 314.38,-48.5 314.38,-48.5 561.75,-48.5 561.75,-48.5"/>
<polygon fill="#2196f3" stroke="#2196f3" stroke-width="1.5" points="561.75,-52 571.75,-48.5 561.75,-45 561.75,-52"/>
</g>
<!-- agents&#45;&gt;app -->
<g id="edge9" class="edge">
<title>agents&#45;&gt;app</title>
<path fill="none" stroke="#2196f3" stroke-width="1.5" d="M579.44,-118.03C579.44,-118.03 579.44,-73.21 579.44,-73.21"/>
<polygon fill="#2196f3" stroke="#2196f3" stroke-width="1.5" points="582.94,-73.21 579.44,-63.21 575.94,-73.21 582.94,-73.21"/>
</g>
<!-- chains&#45;&gt;app -->
<g id="edge10" class="edge">
<title>chains&#45;&gt;app</title>
<path fill="none" stroke="#2196f3" stroke-width="1.5" d="M648.44,-118.03C648.44,-118.03 648.44,-73.21 648.44,-73.21"/>
<polygon fill="#2196f3" stroke="#2196f3" stroke-width="1.5" points="651.94,-73.21 648.44,-63.21 644.94,-73.21 651.94,-73.21"/>
</g>
<!-- memory&#45;&gt;app -->
<g id="edge11" class="edge">
<title>memory&#45;&gt;app</title>
<path fill="none" stroke="#2196f3" stroke-width="1.5" d="M974.38,-118.07C974.38,-89.82 974.38,-48.5 974.38,-48.5 974.38,-48.5 689.14,-48.5 689.14,-48.5"/>
<polygon fill="#2196f3" stroke="#2196f3" stroke-width="1.5" points="689.14,-45 679.14,-48.5 689.14,-52 689.14,-45"/>
</g>
<!-- callbacks&#45;&gt;app -->
<g id="edge12" class="edge">
<title>callbacks&#45;&gt;app</title>
<path fill="none" stroke="#2196f3" stroke-width="1.5" d="M1140.38,-118.16C1140.38,-86.39 1140.38,-36.5 1140.38,-36.5 1140.38,-36.5 688.91,-36.5 688.91,-36.5"/>
<polygon fill="#2196f3" stroke="#2196f3" stroke-width="1.5" points="688.91,-33 678.91,-36.5 688.91,-40 688.91,-33"/>
</g>
</g>
</svg>
