<?xml version="1.0" encoding="UTF-8" standalone="no"?>
<!DOCTYPE svg PUBLIC "-//W3C//DTD SVG 1.1//EN"
 "http://www.w3.org/Graphics/SVG/1.1/DTD/svg11.dtd">
<!-- Generated by graphviz version 14.1.2 (0)
 -->
<!-- Title: langchain_workflow Pages: 1 -->
<svg width="326pt" height="445pt"
 viewBox="0.00 0.00 326.00 445.00" xmlns="http://www.w3.org/2000/svg" xmlns:xlink="http://www.w3.org/1999/xlink">
<style>
<!-- White text halo for edge label readability -->
text { paint-order: stroke; stroke: #ffffff; stroke-width: 3px; stroke-linejoin: round; fill: #1a1a2e; }
</style>
<g id="graph0" class="graph" transform="scale(1 1) rotate(0) translate(4 441)">
<title>langchain_workflow</title>
<polygon fill="white" stroke="none" points="-4,4 -4,-441 322.25,-441 322.25,4 -4,4"/>
<text xml:space="preserve" text-anchor="middle" x="159.12" y="-7.2" font-family="Times New Roman,serif" font-size="14.00">LangChain Agent Workflow</text>
<!-- user_input -->
<g id="node1" class="node">
<title>user_input</title>
<polygon fill="#4caf50" stroke="black" points="281.88,-437 210.38,-437 210.38,-401 281.88,-401 281.88,-437"/>
<text xml:space="preserve" text-anchor="middle" x="246.12" y="-415.3" font-family="Arial" font-size="11.00" fill="white">User Query</text>
</g>
<!-- llm -->
<g id="node2" class="node">
<title>llm</title>
<path fill="#2196f3" stroke="black" d="M306.25,-343C306.25,-343 186,-343 186,-343 180,-343 174,-337 174,-331 174,-331 174,-318.5 174,-318.5 174,-312.5 180,-306.5 186,-306.5 186,-306.5 306.25,-306.5 306.25,-306.5 312.25,-306.5 318.25,-312.5 318.25,-318.5 318.25,-318.5 318.25,-331 318.25,-331 318.25,-337 312.25,-343 306.25,-343"/>
<text xml:space="preserve" text-anchor="middle" x="246.12" y="-327.6" font-family="Arial Bold" font-size="12.00" fill="white">LLM</text>
<text xml:space="preserve" text-anchor="middle" x="246.12" y="-313.35" font-family="Arial Bold" font-size="12.00" fill="white">Reasoning &amp; Planning</text>
</g>
<!-- user_input&#45;&gt;llm -->
<g id="edge1" class="edge">
<title>user_input&#45;&gt;llm</title>
<path fill="none" stroke="#4caf50" stroke-width="2" d="M246.12,-400.83C246.12,-400.83 246.12,-356.22 246.12,-356.22"/>
<polygon fill="#4caf50" stroke="#4caf50" stroke-width="2" points="249.63,-356.22 246.13,-346.22 242.63,-356.22 249.63,-356.22"/>
</g>
<!-- decision -->
<g id="node3" class="node">
<title>decision</title>
<polygon fill="#f44336" stroke="black" points="189.12,-248.5 130.23,-230.5 189.12,-212.5 248.02,-230.5 189.12,-248.5"/>
<text xml:space="preserve" text-anchor="middle" x="189.12" y="-227" font-family="Arial Bold" font-size="10.00" fill="white">Need Tool?</text>
</g>
<!-- llm&#45;&gt;decision -->
<g id="edge2" class="edge">
<title>llm&#45;&gt;decision</title>
<path fill="none" stroke="#2196f3" stroke-width="2" d="M211.01,-306.13C211.01,-306.13 211.01,-255.26 211.01,-255.26"/>
<polygon fill="#2196f3" stroke="#2196f3" stroke-width="2" points="214.51,-255.26 211.01,-245.26 207.51,-255.26 214.51,-255.26"/>
</g>
<!-- tool_exec -->
<g id="node4" class="node">
<title>tool_exec</title>
<path fill="#ff9800" stroke="black" d="M108.25,-154.5C108.25,-154.5 12,-154.5 12,-154.5 6,-154.5 0,-148.5 0,-142.5 0,-142.5 0,-130.5 0,-130.5 0,-124.5 6,-118.5 12,-118.5 12,-118.5 108.25,-118.5 108.25,-118.5 114.25,-118.5 120.25,-124.5 120.25,-130.5 120.25,-130.5 120.25,-142.5 120.25,-142.5 120.25,-148.5 114.25,-154.5 108.25,-154.5"/>
<text xml:space="preserve" text-anchor="middle" x="60.12" y="-139.55" font-family="Arial" font-size="11.00" fill="white">Tool Execution</text>
<text xml:space="preserve" text-anchor="middle" x="60.12" y="-126.05" font-family="Arial" font-size="11.00" fill="white">API call, search, code</text>
</g>
<!-- decision&#45;&gt;tool_exec -->
<g id="edge3" class="edge">
<title>decision&#45;&gt;tool_exec</title>
<path fill="none" stroke="#ff9800" stroke-width="2" d="M142.38,-226.72C142.38,-209.88 142.38,-142.5 142.38,-142.5 142.38,-142.5 133.36,-142.5 133.36,-142.5"/>
<polygon fill="#ff9800" stroke="#ff9800" stroke-width="2" points="133.36,-139 123.36,-142.5 133.36,-146 133.36,-139"/>
<text xml:space="preserve" text-anchor="middle" x="132.25" y="-183.3" font-family="Times New Roman,serif" font-size="14.00">Yes</text>
</g>
<!-- final -->
<g id="node6" class="node">
<title>final</title>
<polygon fill="#f44336" stroke="black" points="247.62,-154.5 156.62,-154.5 156.62,-118.5 247.62,-118.5 247.62,-154.5"/>
<text xml:space="preserve" text-anchor="middle" x="202.12" y="-132.8" font-family="Arial" font-size="11.00" fill="white">Final Response</text>
</g>
<!-- decision&#45;&gt;final -->
<g id="edge4" class="edge">
<title>decision&#45;&gt;final</title>
<path fill="none" stroke="#4caf50" stroke-width="2" d="M202.12,-216.22C202.12,-216.22 202.12,-167.82 202.12,-167.82"/>
<polygon fill="#4caf50" stroke="#4caf50" stroke-width="2" points="205.63,-167.82 202.13,-157.82 198.63,-167.82 205.63,-167.82"/>
<text xml:space="preserve" text-anchor="middle" x="193.88" y="-195.22" font-family="Times New Roman,serif" font-size="14.00">No</text>
</g>
<!-- observation -->
<g id="node5" class="node">
<title>observation</title>
<path fill="#9c27b0" stroke="black" d="M215,-60.5C215,-60.5 147.25,-60.5 147.25,-60.5 141.25,-60.5 135.25,-54.5 135.25,-48.5 135.25,-48.5 135.25,-36.5 135.25,-36.5 135.25,-30.5 141.25,-24.5 147.25,-24.5 147.25,-24.5 215,-24.5 215,-24.5 221,-24.5 227,-30.5 227,-36.5 227,-36.5 227,-48.5 227,-48.5 227,-54.5 221,-60.5 215,-60.5"/>
<text xml:space="preserve" text-anchor="middle" x="181.12" y="-45.55" font-family="Arial" font-size="11.00" fill="white">Observation</text>
<text xml:space="preserve" text-anchor="middle" x="181.12" y="-32.05" font-family="Arial" font-size="11.00" fill="white">Result from tool</text>
</g>
<!-- tool_exec&#45;&gt;observation -->
<g id="edge5" class="edge">
<title>tool_exec&#45;&gt;observation</title>
<path fill="none" stroke="#ff9800" stroke-width="1.5" d="M120.73,-130.5C136.67,-130.5 149.5,-130.5 149.5,-130.5 149.5,-130.5 149.5,-73 149.5,-73"/>
<polygon fill="#ff9800" stroke="#ff9800" stroke-width="1.5" points="153,-73 149.5,-63 146,-73 153,-73"/>
</g>
<!-- observation&#45;&gt;llm -->
<g id="edge6" class="edge">
<title>observation&#45;&gt;llm</title>
<path fill="none" stroke="#9c27b0" stroke-width="1.5" d="M227.35,-42.5C254.34,-42.5 283.13,-42.5 283.13,-42.5 283.13,-42.5 283.13,-293.96 283.13,-293.96"/>
<polygon fill="#9c27b0" stroke="#9c27b0" stroke-width="1.5" points="279.63,-293.96 283.13,-303.96 286.63,-293.96 279.63,-293.96"/>
</g>
</g>
</svg>
