<?xml version="1.0" encoding="UTF-8" standalone="no"?>
<!DOCTYPE svg PUBLIC "-//W3C//DTD SVG 1.1//EN"
 "http://www.w3.org/Graphics/SVG/1.1/DTD/svg11.dtd">
<!-- Generated by graphviz version 14.1.2 (0)
 -->
<!-- Title: G Pages: 1 -->
<svg width="2419pt" height="1178pt"
 viewBox="0.00 0.00 2419.00 1178.00" xmlns="http://www.w3.org/2000/svg" xmlns:xlink="http://www.w3.org/1999/xlink">
<g id="graph0" class="graph" transform="scale(1 1) rotate(0) translate(36 1142.29)">
<title>G</title>
<text xml:space="preserve" text-anchor="middle" x="1173.62" y="-1087.09" font-family="Inter, Arial, sans-serif" font-size="16.00" fill="#1a1a2e">AutoResearchClaw: 23&#45;Stage Autonomous Research Pipeline Architecture</text>
<g id="clust1" class="cluster">
<title>cluster_cluster_A</title>
<path fill="#2e7d32" stroke="#2e7d32" stroke-width="2" d="M57.25,-869.09C57.25,-869.09 394.25,-869.09 394.25,-869.09 400.25,-869.09 406.25,-875.09 406.25,-881.09 406.25,-881.09 406.25,-952.79 406.25,-952.79 406.25,-958.79 400.25,-964.79 394.25,-964.79 394.25,-964.79 57.25,-964.79 57.25,-964.79 51.25,-964.79 45.25,-958.79 45.25,-952.79 45.25,-952.79 45.25,-881.09 45.25,-881.09 45.25,-875.09 51.25,-869.09 57.25,-869.09"/>
<text xml:space="preserve" text-anchor="middle" x="102.75" y="-949.39" font-family="Inter, Arial, sans-serif" font-size="12.00" fill="#1b5e20">Phase A:</text>
<text xml:space="preserve" text-anchor="middle" x="102.75" y="-935.14" font-family="Inter, Arial, sans-serif" font-size="12.00" fill="#1b5e20">Research Scoping</text>
</g>
<g id="clust2" class="cluster">
<title>cluster_cluster_B</title>
<path fill="#1565c0" stroke="#1565c0" stroke-width="2" d="M244.25,-739.16C244.25,-739.16 997.25,-739.16 997.25,-739.16 1003.25,-739.16 1009.25,-745.16 1009.25,-751.16 1009.25,-751.16 1009.25,-829.44 1009.25,-829.44 1009.25,-835.44 1003.25,-841.44 997.25,-841.44 997.25,-841.44 244.25,-841.44 244.25,-841.44 238.25,-841.44 232.25,-835.44 232.25,-829.44 232.25,-829.44 232.25,-751.16 232.25,-751.16 232.25,-745.16 238.25,-739.16 244.25,-739.16"/>
<text xml:space="preserve" text-anchor="middle" x="293.5" y="-826.04" font-family="Inter, Arial, sans-serif" font-size="12.00" fill="#0d47a1">Phase B:</text>
<text xml:space="preserve" text-anchor="middle" x="293.5" y="-811.79" font-family="Inter, Arial, sans-serif" font-size="12.00" fill="#0d47a1">Literature Discovery</text>
</g>
<g id="clust3" class="cluster">
<title>cluster_cluster_C</title>
<path fill="#e65100" stroke="#e65100" stroke-width="2" d="M707.25,-624.46C707.25,-624.46 1044.25,-624.46 1044.25,-624.46 1050.25,-624.46 1056.25,-630.46 1056.25,-636.46 1056.25,-636.46 1056.25,-708.16 1056.25,-708.16 1056.25,-714.16 1050.25,-720.16 1044.25,-720.16 1044.25,-720.16 707.25,-720.16 707.25,-720.16 701.25,-720.16 695.25,-714.16 695.25,-708.16 695.25,-708.16 695.25,-636.46 695.25,-636.46 695.25,-630.46 701.25,-624.46 707.25,-624.46"/>
<text xml:space="preserve" text-anchor="middle" x="761.38" y="-704.76" font-family="Inter, Arial, sans-serif" font-size="12.00" fill="#bf360c">Phase C:</text>
<text xml:space="preserve" text-anchor="middle" x="761.38" y="-690.51" font-family="Inter, Arial, sans-serif" font-size="12.00" fill="#bf360c">Knowledge Synthesis</text>
</g>
<g id="clust4" class="cluster">
<title>cluster_cluster_D</title>
<path fill="#7b1fa2" stroke="#7b1fa2" stroke-width="2" d="M874.25,-503.18C874.25,-503.18 1438.25,-503.18 1438.25,-503.18 1444.25,-503.18 1450.25,-509.18 1450.25,-515.18 1450.25,-515.18 1450.25,-593.46 1450.25,-593.46 1450.25,-599.46 1444.25,-605.46 1438.25,-605.46 1438.25,-605.46 874.25,-605.46 874.25,-605.46 868.25,-605.46 862.25,-599.46 862.25,-593.46 862.25,-593.46 862.25,-515.18 862.25,-515.18 862.25,-509.18 868.25,-503.18 874.25,-503.18"/>
<text xml:space="preserve" text-anchor="middle" x="921.25" y="-590.06" font-family="Inter, Arial, sans-serif" font-size="12.00" fill="#4a148c">Phase D:</text>
<text xml:space="preserve" text-anchor="middle" x="921.25" y="-575.81" font-family="Inter, Arial, sans-serif" font-size="12.00" fill="#4a148c">Experiment Design</text>
</g>
<g id="clust5" class="cluster">
<title>cluster_cluster_E</title>
<path fill="#c62828" stroke="#c62828" stroke-width="2" d="M1073.25,-361.6C1073.25,-361.6 1410.25,-361.6 1410.25,-361.6 1416.25,-361.6 1422.25,-367.6 1422.25,-373.6 1422.25,-373.6 1422.25,-445.3 1422.25,-445.3 1422.25,-451.3 1416.25,-457.3 1410.25,-457.3 1410.25,-457.3 1073.25,-457.3 1073.25,-457.3 1067.25,-457.3 1061.25,-451.3 1061.25,-445.3 1061.25,-445.3 1061.25,-373.6 1061.25,-373.6 1061.25,-367.6 1067.25,-361.6 1073.25,-361.6"/>
<text xml:space="preserve" text-anchor="middle" x="1127.75" y="-441.9" font-family="Inter, Arial, sans-serif" font-size="12.00" fill="#b71c1c">Phase E:</text>
<text xml:space="preserve" text-anchor="middle" x="1127.75" y="-427.65" font-family="Inter, Arial, sans-serif" font-size="12.00" fill="#b71c1c">Experiment Execution</text>
</g>
<g id="clust6" class="cluster">
<title>cluster_cluster_F</title>
<path fill="#00695c" stroke="#00695c" stroke-width="2" d="M1191.25,-237.4C1191.25,-237.4 1528.25,-237.4 1528.25,-237.4 1534.25,-237.4 1540.25,-243.4 1540.25,-249.4 1540.25,-249.4 1540.25,-321.1 1540.25,-321.1 1540.25,-327.1 1534.25,-333.1 1528.25,-333.1 1528.25,-333.1 1191.25,-333.1 1191.25,-333.1 1185.25,-333.1 1179.25,-327.1 1179.25,-321.1 1179.25,-321.1 1179.25,-249.4 1179.25,-249.4 1179.25,-243.4 1185.25,-237.4 1191.25,-237.4"/>
<text xml:space="preserve" text-anchor="middle" x="1240.88" y="-317.7" font-family="Inter, Arial, sans-serif" font-size="12.00" fill="#004d40">Phase F:</text>
<text xml:space="preserve" text-anchor="middle" x="1240.88" y="-303.45" font-family="Inter, Arial, sans-serif" font-size="12.00" fill="#004d40">Analysis &amp; Decision</text>
</g>
<g id="clust7" class="cluster">
<title>cluster_cluster_G</title>
<path fill="#33691e" stroke="#33691e" stroke-width="2" d="M1055.25,-122.7C1055.25,-122.7 1766.25,-122.7 1766.25,-122.7 1772.25,-122.7 1778.25,-128.7 1778.25,-134.7 1778.25,-134.7 1778.25,-206.4 1778.25,-206.4 1778.25,-212.4 1772.25,-218.4 1766.25,-218.4 1766.25,-218.4 1055.25,-218.4 1055.25,-218.4 1049.25,-218.4 1043.25,-212.4 1043.25,-206.4 1043.25,-206.4 1043.25,-134.7 1043.25,-134.7 1043.25,-128.7 1049.25,-122.7 1055.25,-122.7"/>
<text xml:space="preserve" text-anchor="middle" x="1087.62" y="-203" font-family="Inter, Arial, sans-serif" font-size="12.00" fill="#1b5e20">Phase G:</text>
<text xml:space="preserve" text-anchor="middle" x="1087.62" y="-188.75" font-family="Inter, Arial, sans-serif" font-size="12.00" fill="#1b5e20">Paper Writing</text>
</g>
<g id="clust8" class="cluster">
<title>cluster_cluster_H</title>
<path fill="#4527a0" stroke="#4527a0" stroke-width="2" d="M1616.25,-8C1616.25,-8 2327.25,-8 2327.25,-8 2333.25,-8 2339.25,-14 2339.25,-20 2339.25,-20 2339.25,-91.7 2339.25,-91.7 2339.25,-97.7 2333.25,-103.7 2327.25,-103.7 2327.25,-103.7 1616.25,-103.7 1616.25,-103.7 1610.25,-103.7 1604.25,-97.7 1604.25,-91.7 1604.25,-91.7 1604.25,-20 1604.25,-20 1604.25,-14 1610.25,-8 1616.25,-8"/>
<text xml:space="preserve" text-anchor="middle" x="1643.38" y="-88.3" font-family="Inter, Arial, sans-serif" font-size="12.00" fill="#311b92">Phase H:</text>
<text xml:space="preserve" text-anchor="middle" x="1643.38" y="-74.05" font-family="Inter, Arial, sans-serif" font-size="12.00" fill="#311b92">Finalization</text>
</g>
<!-- stage_1 -->
<g id="node1" class="node">
<title>stage_1</title>
<path fill="white" stroke="#2e7d32" stroke-width="1.5" d="M199.45,-920.29C199.45,-920.29 65.05,-920.29 65.05,-920.29 59.05,-920.29 53.05,-914.29 53.05,-908.29 53.05,-908.29 53.05,-889.09 53.05,-889.09 53.05,-883.09 59.05,-877.09 65.05,-877.09 65.05,-877.09 199.45,-877.09 199.45,-877.09 205.45,-877.09 211.45,-883.09 211.45,-889.09 211.45,-889.09 211.45,-908.29 211.45,-908.29 211.45,-914.29 205.45,-920.29 199.45,-920.29"/>
<text xml:space="preserve" text-anchor="middle" x="132.25" y="-905.89" font-family="Inter, Arial, sans-serif" font-size="9.00" fill="#1b5e20">1. TOPIC_INIT</text>
<text xml:space="preserve" text-anchor="middle" x="132.25" y="-895.39" font-family="Inter, Arial, sans-serif" font-size="9.00" fill="#1b5e20">Decompose topic</text>
<text xml:space="preserve" text-anchor="middle" x="132.25" y="-884.89" font-family="Inter, Arial, sans-serif" font-size="9.00" fill="#1b5e20">into problem tree</text>
</g>
<!-- stage_2 -->
<g id="node2" class="node">
<title>stage_2</title>
<path fill="white" stroke="#2e7d32" stroke-width="1.5" d="M386.45,-920.29C386.45,-920.29 252.05,-920.29 252.05,-920.29 246.05,-920.29 240.05,-914.29 240.05,-908.29 240.05,-908.29 240.05,-889.09 240.05,-889.09 240.05,-883.09 246.05,-877.09 252.05,-877.09 252.05,-877.09 386.45,-877.09 386.45,-877.09 392.45,-877.09 398.45,-883.09 398.45,-889.09 398.45,-889.09 398.45,-908.29 398.45,-908.29 398.45,-914.29 392.45,-920.29 386.45,-920.29"/>
<text xml:space="preserve" text-anchor="middle" x="319.25" y="-905.89" font-family="Inter, Arial, sans-serif" font-size="9.00" fill="#1b5e20">2. PROBLEM_DECOMPOSE</text>
<text xml:space="preserve" text-anchor="middle" x="319.25" y="-895.39" font-family="Inter, Arial, sans-serif" font-size="9.00" fill="#1b5e20">Structure research</text>
<text xml:space="preserve" text-anchor="middle" x="319.25" y="-884.89" font-family="Inter, Arial, sans-serif" font-size="9.00" fill="#1b5e20">questions</text>
</g>
<!-- stage_3 -->
<g id="node3" class="node">
<title>stage_3</title>
<path fill="white" stroke="#1565c0" stroke-width="1.5" d="M386.45,-793.65C386.45,-793.65 252.05,-793.65 252.05,-793.65 246.05,-793.65 240.05,-787.65 240.05,-781.65 240.05,-781.65 240.05,-762.45 240.05,-762.45 240.05,-756.45 246.05,-750.45 252.05,-750.45 252.05,-750.45 386.45,-750.45 386.45,-750.45 392.45,-750.45 398.45,-756.45 398.45,-762.45 398.45,-762.45 398.45,-781.65 398.45,-781.65 398.45,-787.65 392.45,-793.65 386.45,-793.65"/>
<text xml:space="preserve" text-anchor="middle" x="319.25" y="-779.25" font-family="Inter, Arial, sans-serif" font-size="9.00" fill="#0d47a1">3. SEARCH_STRATEGY</text>
<text xml:space="preserve" text-anchor="middle" x="319.25" y="-768.75" font-family="Inter, Arial, sans-serif" font-size="9.00" fill="#0d47a1">Query expansion</text>
<text xml:space="preserve" text-anchor="middle" x="319.25" y="-758.25" font-family="Inter, Arial, sans-serif" font-size="9.00" fill="#0d47a1">&amp; planning</text>
</g>
<!-- stage_2&#45;&gt;stage_3 -->
<g id="edge1" class="edge">
<title>stage_2&#45;&gt;stage_3</title>
<path fill="none" stroke="#666666" stroke-width="1.5" d="M319.25,-876.34C319.25,-876.34 319.25,-804.44 319.25,-804.44"/>
<polygon fill="#666666" stroke="#666666" stroke-width="1.5" points="322.05,-804.44 319.25,-796.44 316.45,-804.44 322.05,-804.44"/>
</g>
<!-- stage_4 -->
<g id="node4" class="node">
<title>stage_4</title>
<path fill="white" stroke="#1565c0" stroke-width="1.5" d="M573.45,-793.65C573.45,-793.65 439.05,-793.65 439.05,-793.65 433.05,-793.65 427.05,-787.65 427.05,-781.65 427.05,-781.65 427.05,-762.45 427.05,-762.45 427.05,-756.45 433.05,-750.45 439.05,-750.45 439.05,-750.45 573.45,-750.45 573.45,-750.45 579.45,-750.45 585.45,-756.45 585.45,-762.45 585.45,-762.45 585.45,-781.65 585.45,-781.65 585.45,-787.65 579.45,-793.65 573.45,-793.65"/>
<text xml:space="preserve" text-anchor="middle" x="506.25" y="-779.25" font-family="Inter, Arial, sans-serif" font-size="9.00" fill="#0d47a1">4. LITERATURE_COLLECT</text>
<text xml:space="preserve" text-anchor="middle" x="506.25" y="-768.75" font-family="Inter, Arial, sans-serif" font-size="9.00" fill="#0d47a1">OpenAlex, Semantic</text>
<text xml:space="preserve" text-anchor="middle" x="506.25" y="-758.25" font-family="Inter, Arial, sans-serif" font-size="9.00" fill="#0d47a1">Scholar, arXiv</text>
</g>
<!-- stage_5 -->
<g id="node5" class="node">
<title>stage_5</title>
<path fill="white" stroke="#1565c0" stroke-width="2.5" d="M814.02,-768.61C814.02,-768.61 814.02,-775.48 814.02,-775.48 814.02,-778.92 810.68,-783.19 807.35,-784.02 807.35,-784.02 762.24,-795.27 762.24,-795.27 758.91,-796.11 752.14,-796.94 748.7,-796.94 748.7,-796.94 679.8,-796.94 679.8,-796.94 676.36,-796.94 669.59,-796.11 666.26,-795.27 666.26,-795.27 621.15,-784.02 621.15,-784.02 617.82,-783.19 614.48,-778.92 614.48,-775.48 614.48,-775.48 614.48,-768.61 614.48,-768.61 614.48,-765.17 617.82,-760.91 621.15,-760.07 621.15,-760.07 666.26,-748.82 666.26,-748.82 669.59,-747.99 676.36,-747.16 679.8,-747.16 679.8,-747.16 748.7,-747.16 748.7,-747.16 752.14,-747.16 758.91,-747.99 762.24,-748.82 762.24,-748.82 807.35,-760.07 807.35,-760.07 810.68,-760.91 814.02,-765.17 814.02,-768.61"/>
<text xml:space="preserve" text-anchor="middle" x="714.25" y="-774" font-family="Inter, Arial, sans-serif" font-size="9.00" fill="#0d47a1">5. LITERATURE_SCREEN</text>
<text xml:space="preserve" text-anchor="middle" x="714.25" y="-763.5" font-family="Inter, Arial, sans-serif" font-size="9.00" fill="#0d47a1">Relevance filtering</text>
</g>
<!-- stage_6 -->
<g id="node6" class="node">
<title>stage_6</title>
<path fill="white" stroke="#1565c0" stroke-width="1.5" d="M989.45,-793.65C989.45,-793.65 855.05,-793.65 855.05,-793.65 849.05,-793.65 843.05,-787.65 843.05,-781.65 843.05,-781.65 843.05,-762.45 843.05,-762.45 843.05,-756.45 849.05,-750.45 855.05,-750.45 855.05,-750.45 989.45,-750.45 989.45,-750.45 995.45,-750.45 1001.45,-756.45 1001.45,-762.45 1001.45,-762.45 1001.45,-781.65 1001.45,-781.65 1001.45,-787.65 995.45,-793.65 989.45,-793.65"/>
<text xml:space="preserve" text-anchor="middle" x="922.25" y="-779.25" font-family="Inter, Arial, sans-serif" font-size="9.00" fill="#0d47a1">6. KNOWLEDGE_EXTRACT</text>
<text xml:space="preserve" text-anchor="middle" x="922.25" y="-768.75" font-family="Inter, Arial, sans-serif" font-size="9.00" fill="#0d47a1">Extract knowledge</text>
<text xml:space="preserve" text-anchor="middle" x="922.25" y="-758.25" font-family="Inter, Arial, sans-serif" font-size="9.00" fill="#0d47a1">cards</text>
</g>
<!-- stage_7 -->
<g id="node7" class="node">
<title>stage_7</title>
<path fill="white" stroke="#e65100" stroke-width="1.5" d="M849.45,-675.66C849.45,-675.66 715.05,-675.66 715.05,-675.66 709.05,-675.66 703.05,-669.66 703.05,-663.66 703.05,-663.66 703.05,-644.46 703.05,-644.46 703.05,-638.46 709.05,-632.46 715.05,-632.46 715.05,-632.46 849.45,-632.46 849.45,-632.46 855.45,-632.46 861.45,-638.46 861.45,-644.46 861.45,-644.46 861.45,-663.66 861.45,-663.66 861.45,-669.66 855.45,-675.66 849.45,-675.66"/>
<text xml:space="preserve" text-anchor="middle" x="782.25" y="-661.26" font-family="Inter, Arial, sans-serif" font-size="9.00" fill="#bf360c">7. SYNTHESIS</text>
<text xml:space="preserve" text-anchor="middle" x="782.25" y="-650.76" font-family="Inter, Arial, sans-serif" font-size="9.00" fill="#bf360c">Cluster findings</text>
<text xml:space="preserve" text-anchor="middle" x="782.25" y="-640.26" font-family="Inter, Arial, sans-serif" font-size="9.00" fill="#bf360c">&amp; identify gaps</text>
</g>
<!-- stage_6&#45;&gt;stage_7 -->
<g id="edge2" class="edge">
<title>stage_6&#45;&gt;stage_7</title>
<path fill="none" stroke="#666666" stroke-width="1.5" d="M852.25,-749.85C852.25,-749.85 852.25,-686.42 852.25,-686.42"/>
<polygon fill="#666666" stroke="#666666" stroke-width="1.5" points="855.05,-686.42 852.25,-678.42 849.45,-686.42 855.05,-686.42"/>
</g>
<!-- stage_8 -->
<g id="node8" class="node">
<title>stage_8</title>
<path fill="white" stroke="#e65100" stroke-width="1.5" d="M1036.45,-675.66C1036.45,-675.66 902.05,-675.66 902.05,-675.66 896.05,-675.66 890.05,-669.66 890.05,-663.66 890.05,-663.66 890.05,-644.46 890.05,-644.46 890.05,-638.46 896.05,-632.46 902.05,-632.46 902.05,-632.46 1036.45,-632.46 1036.45,-632.46 1042.45,-632.46 1048.45,-638.46 1048.45,-644.46 1048.45,-644.46 1048.45,-663.66 1048.45,-663.66 1048.45,-669.66 1042.45,-675.66 1036.45,-675.66"/>
<text xml:space="preserve" text-anchor="middle" x="969.25" y="-661.26" font-family="Inter, Arial, sans-serif" font-size="9.00" fill="#bf360c">8. HYPOTHESIS_GEN</text>
<text xml:space="preserve" text-anchor="middle" x="969.25" y="-650.76" font-family="Inter, Arial, sans-serif" font-size="9.00" fill="#bf360c">Multi&#45;agent debate</text>
<text xml:space="preserve" text-anchor="middle" x="969.25" y="-640.26" font-family="Inter, Arial, sans-serif" font-size="9.00" fill="#bf360c">for hypotheses</text>
</g>
<!-- stage_9 -->
<g id="node9" class="node">
<title>stage_9</title>
<path fill="white" stroke="#7b1fa2" stroke-width="2.5" d="M1068.44,-532.63C1068.44,-532.63 1068.44,-539.5 1068.44,-539.5 1068.44,-542.94 1065.11,-547.21 1061.78,-548.05 1061.78,-548.05 1017,-559.29 1017,-559.29 1013.67,-560.12 1006.9,-560.96 1003.46,-560.96 1003.46,-560.96 935.04,-560.96 935.04,-560.96 931.6,-560.96 924.83,-560.12 921.5,-559.29 921.5,-559.29 876.72,-548.05 876.72,-548.05 873.39,-547.21 870.06,-542.94 870.06,-539.5 870.06,-539.5 870.06,-532.63 870.06,-532.63 870.06,-529.2 873.39,-524.92 876.72,-524.09 876.72,-524.09 921.5,-512.85 921.5,-512.85 924.83,-512.02 931.6,-511.18 935.04,-511.18 935.04,-511.18 1003.46,-511.18 1003.46,-511.18 1006.9,-511.18 1013.67,-512.02 1017,-512.85 1017,-512.85 1061.78,-524.09 1061.78,-524.09 1065.11,-524.92 1068.44,-529.2 1068.44,-532.63"/>
<text xml:space="preserve" text-anchor="middle" x="969.25" y="-538.02" font-family="Inter, Arial, sans-serif" font-size="9.00" fill="#4a148c">9. EXPERIMENT_DESIGN</text>
<text xml:space="preserve" text-anchor="middle" x="969.25" y="-527.52" font-family="Inter, Arial, sans-serif" font-size="9.00" fill="#4a148c">Plan experiments</text>
</g>
<!-- stage_8&#45;&gt;stage_9 -->
<g id="edge3" class="edge">
<title>stage_8&#45;&gt;stage_9</title>
<path fill="none" stroke="#666666" stroke-width="1.5" d="M969.25,-631.87C969.25,-631.87 969.25,-572.13 969.25,-572.13"/>
<polygon fill="#666666" stroke="#666666" stroke-width="1.5" points="972.05,-572.13 969.25,-564.13 966.45,-572.13 972.05,-572.13"/>
</g>
<!-- stage_10 -->
<g id="node10" class="node">
<title>stage_10</title>
<path fill="white" stroke="#7b1fa2" stroke-width="1.5" d="M1243.45,-557.67C1243.45,-557.67 1109.05,-557.67 1109.05,-557.67 1103.05,-557.67 1097.05,-551.67 1097.05,-545.67 1097.05,-545.67 1097.05,-526.47 1097.05,-526.47 1097.05,-520.47 1103.05,-514.47 1109.05,-514.47 1109.05,-514.47 1243.45,-514.47 1243.45,-514.47 1249.45,-514.47 1255.45,-520.47 1255.45,-526.47 1255.45,-526.47 1255.45,-545.67 1255.45,-545.67 1255.45,-551.67 1249.45,-557.67 1243.45,-557.67"/>
<text xml:space="preserve" text-anchor="middle" x="1176.25" y="-543.27" font-family="Inter, Arial, sans-serif" font-size="9.00" fill="#4a148c">10. CODE_GENERATION</text>
<text xml:space="preserve" text-anchor="middle" x="1176.25" y="-532.77" font-family="Inter, Arial, sans-serif" font-size="9.00" fill="#4a148c">Hardware&#45;aware</text>
<text xml:space="preserve" text-anchor="middle" x="1176.25" y="-522.27" font-family="Inter, Arial, sans-serif" font-size="9.00" fill="#4a148c">Python generation</text>
</g>
<!-- stage_11 -->
<g id="node11" class="node">
<title>stage_11</title>
<path fill="white" stroke="#7b1fa2" stroke-width="1.5" d="M1430.45,-557.67C1430.45,-557.67 1296.05,-557.67 1296.05,-557.67 1290.05,-557.67 1284.05,-551.67 1284.05,-545.67 1284.05,-545.67 1284.05,-526.47 1284.05,-526.47 1284.05,-520.47 1290.05,-514.47 1296.05,-514.47 1296.05,-514.47 1430.45,-514.47 1430.45,-514.47 1436.45,-514.47 1442.45,-520.47 1442.45,-526.47 1442.45,-526.47 1442.45,-545.67 1442.45,-545.67 1442.45,-551.67 1436.45,-557.67 1430.45,-557.67"/>
<text xml:space="preserve" text-anchor="middle" x="1363.25" y="-543.27" font-family="Inter, Arial, sans-serif" font-size="9.00" fill="#4a148c">11. RESOURCE_PLANNING</text>
<text xml:space="preserve" text-anchor="middle" x="1363.25" y="-532.77" font-family="Inter, Arial, sans-serif" font-size="9.00" fill="#4a148c">Estimate compute</text>
<text xml:space="preserve" text-anchor="middle" x="1363.25" y="-522.27" font-family="Inter, Arial, sans-serif" font-size="9.00" fill="#4a148c">needs</text>
</g>
<!-- stage_12 -->
<g id="node12" class="node">
<title>stage_12</title>
<path fill="white" stroke="#c62828" stroke-width="1.5" d="M1215.45,-412.8C1215.45,-412.8 1081.05,-412.8 1081.05,-412.8 1075.05,-412.8 1069.05,-406.8 1069.05,-400.8 1069.05,-400.8 1069.05,-381.6 1069.05,-381.6 1069.05,-375.6 1075.05,-369.6 1081.05,-369.6 1081.05,-369.6 1215.45,-369.6 1215.45,-369.6 1221.45,-369.6 1227.45,-375.6 1227.45,-381.6 1227.45,-381.6 1227.45,-400.8 1227.45,-400.8 1227.45,-406.8 1221.45,-412.8 1215.45,-412.8"/>
<text xml:space="preserve" text-anchor="middle" x="1148.25" y="-398.4" font-family="Inter, Arial, sans-serif" font-size="9.00" fill="#b71c1c">12. EXPERIMENT_RUN</text>
<text xml:space="preserve" text-anchor="middle" x="1148.25" y="-387.9" font-family="Inter, Arial, sans-serif" font-size="9.00" fill="#b71c1c">Sandbox execution</text>
<text xml:space="preserve" text-anchor="middle" x="1148.25" y="-377.4" font-family="Inter, Arial, sans-serif" font-size="9.00" fill="#b71c1c">with self&#45;healing</text>
</g>
<!-- stage_11&#45;&gt;stage_12 -->
<g id="edge4" class="edge">
<title>stage_11&#45;&gt;stage_12</title>
<path fill="none" stroke="#666666" stroke-width="1.5" d="M1349.25,-513.82C1349.25,-508.84 1349.25,-505 1349.25,-505 1349.25,-505 1140.52,-505 1140.52,-505 1140.52,-505 1140.52,-423.68 1140.52,-423.68"/>
<polygon fill="#666666" stroke="#666666" stroke-width="1.5" points="1143.32,-423.68 1140.52,-415.68 1137.72,-423.68 1143.32,-423.68"/>
</g>
<!-- stage_13 -->
<g id="node13" class="node">
<title>stage_13</title>
<path fill="white" stroke="#c62828" stroke-width="1.5" d="M1402.45,-412.8C1402.45,-412.8 1268.05,-412.8 1268.05,-412.8 1262.05,-412.8 1256.05,-406.8 1256.05,-400.8 1256.05,-400.8 1256.05,-381.6 1256.05,-381.6 1256.05,-375.6 1262.05,-369.6 1268.05,-369.6 1268.05,-369.6 1402.45,-369.6 1402.45,-369.6 1408.45,-369.6 1414.45,-375.6 1414.45,-381.6 1414.45,-381.6 1414.45,-400.8 1414.45,-400.8 1414.45,-406.8 1408.45,-412.8 1402.45,-412.8"/>
<text xml:space="preserve" text-anchor="middle" x="1335.25" y="-398.4" font-family="Inter, Arial, sans-serif" font-size="9.00" fill="#b71c1c">13. ITERATIVE_REFINE</text>
<text xml:space="preserve" text-anchor="middle" x="1335.25" y="-387.9" font-family="Inter, Arial, sans-serif" font-size="9.00" fill="#b71c1c">Repair &amp; retry</text>
<text xml:space="preserve" text-anchor="middle" x="1335.25" y="-377.4" font-family="Inter, Arial, sans-serif" font-size="9.00" fill="#b71c1c">loop</text>
</g>
<!-- stage_14 -->
<g id="node14" class="node">
<title>stage_14</title>
<path fill="white" stroke="#00695c" stroke-width="1.5" d="M1333.45,-288.6C1333.45,-288.6 1199.05,-288.6 1199.05,-288.6 1193.05,-288.6 1187.05,-282.6 1187.05,-276.6 1187.05,-276.6 1187.05,-257.4 1187.05,-257.4 1187.05,-251.4 1193.05,-245.4 1199.05,-245.4 1199.05,-245.4 1333.45,-245.4 1333.45,-245.4 1339.45,-245.4 1345.45,-251.4 1345.45,-257.4 1345.45,-257.4 1345.45,-276.6 1345.45,-276.6 1345.45,-282.6 1339.45,-288.6 1333.45,-288.6"/>
<text xml:space="preserve" text-anchor="middle" x="1266.25" y="-274.2" font-family="Inter, Arial, sans-serif" font-size="9.00" fill="#004d40">14. RESULT_ANALYSIS</text>
<text xml:space="preserve" text-anchor="middle" x="1266.25" y="-263.7" font-family="Inter, Arial, sans-serif" font-size="9.00" fill="#004d40">Multi&#45;agent</text>
<text xml:space="preserve" text-anchor="middle" x="1266.25" y="-253.2" font-family="Inter, Arial, sans-serif" font-size="9.00" fill="#004d40">result analysis</text>
</g>
<!-- stage_13&#45;&gt;stage_14 -->
<g id="edge5" class="edge">
<title>stage_13&#45;&gt;stage_14</title>
<path fill="none" stroke="#666666" stroke-width="1.5" d="M1300.75,-369C1300.75,-369 1300.75,-299.28 1300.75,-299.28"/>
<polygon fill="#666666" stroke="#666666" stroke-width="1.5" points="1303.55,-299.28 1300.75,-291.28 1297.95,-299.28 1303.55,-299.28"/>
</g>
<!-- stage_15 -->
<g id="node15" class="node">
<title>stage_15</title>
<path fill="white" stroke="#00695c" stroke-width="1.5" d="M1520.45,-288.6C1520.45,-288.6 1386.05,-288.6 1386.05,-288.6 1380.05,-288.6 1374.05,-282.6 1374.05,-276.6 1374.05,-276.6 1374.05,-257.4 1374.05,-257.4 1374.05,-251.4 1380.05,-245.4 1386.05,-245.4 1386.05,-245.4 1520.45,-245.4 1520.45,-245.4 1526.45,-245.4 1532.45,-251.4 1532.45,-257.4 1532.45,-257.4 1532.45,-276.6 1532.45,-276.6 1532.45,-282.6 1526.45,-288.6 1520.45,-288.6"/>
<text xml:space="preserve" text-anchor="middle" x="1453.25" y="-274.2" font-family="Inter, Arial, sans-serif" font-size="9.00" fill="#004d40">15. RESEARCH_DECISION</text>
<text xml:space="preserve" text-anchor="middle" x="1453.25" y="-263.7" font-family="Inter, Arial, sans-serif" font-size="9.00" fill="#004d40">PROCEED / REFINE</text>
<text xml:space="preserve" text-anchor="middle" x="1453.25" y="-253.2" font-family="Inter, Arial, sans-serif" font-size="9.00" fill="#004d40">/ PIVOT</text>
</g>
<!-- stage_15&#45;&gt;stage_8 -->
<g id="edge8" class="edge">
<title>stage_15&#45;&gt;stage_8</title>
<path fill="none" stroke="#c62828" stroke-width="1.5" stroke-dasharray="5,2" d="M1458.66,-289.2C1458.66,-371.43 1458.66,-654 1458.66,-654 1458.66,-654 1059.24,-654 1059.24,-654"/>
<polygon fill="#c62828" stroke="#c62828" stroke-width="1.5" points="1059.24,-651.2 1051.24,-654 1059.24,-656.8 1059.24,-651.2"/>
<text xml:space="preserve" text-anchor="middle" x="1477.75" y="-467.25" font-family="Times New Roman,serif" font-size="9.00" fill="#c62828">PIVOT</text>
</g>
<!-- stage_15&#45;&gt;stage_13 -->
<g id="edge9" class="edge">
<title>stage_15&#45;&gt;stage_13</title>
<path fill="none" stroke="#e65100" stroke-width="1.5" stroke-dasharray="5,2" d="M1394.25,-289.2C1394.25,-289.2 1394.25,-358.92 1394.25,-358.92"/>
<polygon fill="#e65100" stroke="#e65100" stroke-width="1.5" points="1391.45,-358.92 1394.25,-366.92 1397.05,-358.92 1391.45,-358.92"/>
<text xml:space="preserve" text-anchor="middle" x="1475" y="-343.05" font-family="Times New Roman,serif" font-size="9.00" fill="#e65100">REFINE</text>
</g>
<!-- stage_16 -->
<g id="node16" class="node">
<title>stage_16</title>
<path fill="white" stroke="#33691e" stroke-width="1.5" d="M1197.45,-173.9C1197.45,-173.9 1063.05,-173.9 1063.05,-173.9 1057.05,-173.9 1051.05,-167.9 1051.05,-161.9 1051.05,-161.9 1051.05,-142.7 1051.05,-142.7 1051.05,-136.7 1057.05,-130.7 1063.05,-130.7 1063.05,-130.7 1197.45,-130.7 1197.45,-130.7 1203.45,-130.7 1209.45,-136.7 1209.45,-142.7 1209.45,-142.7 1209.45,-161.9 1209.45,-161.9 1209.45,-167.9 1203.45,-173.9 1197.45,-173.9"/>
<text xml:space="preserve" text-anchor="middle" x="1130.25" y="-159.5" font-family="Inter, Arial, sans-serif" font-size="9.00" fill="#1b5e20">16. PAPER_OUTLINE</text>
<text xml:space="preserve" text-anchor="middle" x="1130.25" y="-149" font-family="Inter, Arial, sans-serif" font-size="9.00" fill="#1b5e20">Section&#45;by&#45;section</text>
<text xml:space="preserve" text-anchor="middle" x="1130.25" y="-138.5" font-family="Inter, Arial, sans-serif" font-size="9.00" fill="#1b5e20">outline</text>
</g>
<!-- stage_15&#45;&gt;stage_16 -->
<g id="edge6" class="edge">
<title>stage_15&#45;&gt;stage_16</title>
<path fill="none" stroke="#666666" stroke-width="1.5" d="M1385.25,-244.8C1385.25,-228.79 1385.25,-210 1385.25,-210 1385.25,-210 1198.25,-210 1198.25,-210 1198.25,-210 1198.25,-184.71 1198.25,-184.71"/>
<polygon fill="#666666" stroke="#666666" stroke-width="1.5" points="1201.05,-184.71 1198.25,-176.71 1195.45,-184.71 1201.05,-184.71"/>
</g>
<!-- stage_17 -->
<g id="node17" class="node">
<title>stage_17</title>
<path fill="white" stroke="#33691e" stroke-width="1.5" d="M1384.45,-173.9C1384.45,-173.9 1250.05,-173.9 1250.05,-173.9 1244.05,-173.9 1238.05,-167.9 1238.05,-161.9 1238.05,-161.9 1238.05,-142.7 1238.05,-142.7 1238.05,-136.7 1244.05,-130.7 1250.05,-130.7 1250.05,-130.7 1384.45,-130.7 1384.45,-130.7 1390.45,-130.7 1396.45,-136.7 1396.45,-142.7 1396.45,-142.7 1396.45,-161.9 1396.45,-161.9 1396.45,-167.9 1390.45,-173.9 1384.45,-173.9"/>
<text xml:space="preserve" text-anchor="middle" x="1317.25" y="-159.5" font-family="Inter, Arial, sans-serif" font-size="9.00" fill="#1b5e20">17. PAPER_DRAFT</text>
<text xml:space="preserve" text-anchor="middle" x="1317.25" y="-149" font-family="Inter, Arial, sans-serif" font-size="9.00" fill="#1b5e20">5,000&#45;6,500 word</text>
<text xml:space="preserve" text-anchor="middle" x="1317.25" y="-138.5" font-family="Inter, Arial, sans-serif" font-size="9.00" fill="#1b5e20">draft</text>
</g>
<!-- stage_18 -->
<g id="node18" class="node">
<title>stage_18</title>
<path fill="white" stroke="#33691e" stroke-width="1.5" d="M1571.45,-173.9C1571.45,-173.9 1437.05,-173.9 1437.05,-173.9 1431.05,-173.9 1425.05,-167.9 1425.05,-161.9 1425.05,-161.9 1425.05,-142.7 1425.05,-142.7 1425.05,-136.7 1431.05,-130.7 1437.05,-130.7 1437.05,-130.7 1571.45,-130.7 1571.45,-130.7 1577.45,-130.7 1583.45,-136.7 1583.45,-142.7 1583.45,-142.7 1583.45,-161.9 1583.45,-161.9 1583.45,-167.9 1577.45,-173.9 1571.45,-173.9"/>
<text xml:space="preserve" text-anchor="middle" x="1504.25" y="-159.5" font-family="Inter, Arial, sans-serif" font-size="9.00" fill="#1b5e20">18. PEER_REVIEW</text>
<text xml:space="preserve" text-anchor="middle" x="1504.25" y="-149" font-family="Inter, Arial, sans-serif" font-size="9.00" fill="#1b5e20">Evidence check</text>
<text xml:space="preserve" text-anchor="middle" x="1504.25" y="-138.5" font-family="Inter, Arial, sans-serif" font-size="9.00" fill="#1b5e20">&amp; methodology review</text>
</g>
<!-- stage_19 -->
<g id="node19" class="node">
<title>stage_19</title>
<path fill="white" stroke="#33691e" stroke-width="1.5" d="M1758.45,-173.9C1758.45,-173.9 1624.05,-173.9 1624.05,-173.9 1618.05,-173.9 1612.05,-167.9 1612.05,-161.9 1612.05,-161.9 1612.05,-142.7 1612.05,-142.7 1612.05,-136.7 1618.05,-130.7 1624.05,-130.7 1624.05,-130.7 1758.45,-130.7 1758.45,-130.7 1764.45,-130.7 1770.45,-136.7 1770.45,-142.7 1770.45,-142.7 1770.45,-161.9 1770.45,-161.9 1770.45,-167.9 1764.45,-173.9 1758.45,-173.9"/>
<text xml:space="preserve" text-anchor="middle" x="1691.25" y="-159.5" font-family="Inter, Arial, sans-serif" font-size="9.00" fill="#1b5e20">19. PAPER_REVISION</text>
<text xml:space="preserve" text-anchor="middle" x="1691.25" y="-149" font-family="Inter, Arial, sans-serif" font-size="9.00" fill="#1b5e20">Length guard &amp;</text>
<text xml:space="preserve" text-anchor="middle" x="1691.25" y="-138.5" font-family="Inter, Arial, sans-serif" font-size="9.00" fill="#1b5e20">anti&#45;fabrication</text>
</g>
<!-- stage_20 -->
<g id="node20" class="node">
<title>stage_20</title>
<path fill="white" stroke="#4527a0" stroke-width="1.5" d="M1758.45,-59.2C1758.45,-59.2 1624.05,-59.2 1624.05,-59.2 1618.05,-59.2 1612.05,-53.2 1612.05,-47.2 1612.05,-47.2 1612.05,-28 1612.05,-28 1612.05,-22 1618.05,-16 1624.05,-16 1624.05,-16 1758.45,-16 1758.45,-16 1764.45,-16 1770.45,-22 1770.45,-28 1770.45,-28 1770.45,-47.2 1770.45,-47.2 1770.45,-53.2 1764.45,-59.2 1758.45,-59.2"/>
<text xml:space="preserve" text-anchor="middle" x="1691.25" y="-44.8" font-family="Inter, Arial, sans-serif" font-size="9.00" fill="#311b92">20. QUALITY_GATE</text>
<text xml:space="preserve" text-anchor="middle" x="1691.25" y="-34.3" font-family="Inter, Arial, sans-serif" font-size="9.00" fill="#311b92">Final quality</text>
<text xml:space="preserve" text-anchor="middle" x="1691.25" y="-23.8" font-family="Inter, Arial, sans-serif" font-size="9.00" fill="#311b92">check [gate]</text>
</g>
<!-- stage_19&#45;&gt;stage_20 -->
<g id="edge7" class="edge">
<title>stage_19&#45;&gt;stage_20</title>
<path fill="none" stroke="#666666" stroke-width="1.5" d="M1691.25,-130.18C1691.25,-130.18 1691.25,-69.92 1691.25,-69.92"/>
<polygon fill="#666666" stroke="#666666" stroke-width="1.5" points="1694.05,-69.92 1691.25,-61.92 1688.45,-69.92 1694.05,-69.92"/>
</g>
<!-- stage_21 -->
<g id="node21" class="node">
<title>stage_21</title>
<path fill="white" stroke="#4527a0" stroke-width="1.5" d="M1945.45,-59.2C1945.45,-59.2 1811.05,-59.2 1811.05,-59.2 1805.05,-59.2 1799.05,-53.2 1799.05,-47.2 1799.05,-47.2 1799.05,-28 1799.05,-28 1799.05,-22 1805.05,-16 1811.05,-16 1811.05,-16 1945.45,-16 1945.45,-16 1951.45,-16 1957.45,-22 1957.45,-28 1957.45,-28 1957.45,-47.2 1957.45,-47.2 1957.45,-53.2 1951.45,-59.2 1945.45,-59.2"/>
<text xml:space="preserve" text-anchor="middle" x="1878.25" y="-44.8" font-family="Inter, Arial, sans-serif" font-size="9.00" fill="#311b92">21. KNOWLEDGE_ARCHIVE</text>
<text xml:space="preserve" text-anchor="middle" x="1878.25" y="-34.3" font-family="Inter, Arial, sans-serif" font-size="9.00" fill="#311b92">Store lessons</text>
<text xml:space="preserve" text-anchor="middle" x="1878.25" y="-23.8" font-family="Inter, Arial, sans-serif" font-size="9.00" fill="#311b92">learned</text>
</g>
<!-- stage_22 -->
<g id="node22" class="node">
<title>stage_22</title>
<path fill="white" stroke="#4527a0" stroke-width="1.5" d="M2132.45,-59.2C2132.45,-59.2 1998.05,-59.2 1998.05,-59.2 1992.05,-59.2 1986.05,-53.2 1986.05,-47.2 1986.05,-47.2 1986.05,-28 1986.05,-28 1986.05,-22 1992.05,-16 1998.05,-16 1998.05,-16 2132.45,-16 2132.45,-16 2138.45,-16 2144.45,-22 2144.45,-28 2144.45,-28 2144.45,-47.2 2144.45,-47.2 2144.45,-53.2 2138.45,-59.2 2132.45,-59.2"/>
<text xml:space="preserve" text-anchor="middle" x="2065.25" y="-44.8" font-family="Inter, Arial, sans-serif" font-size="9.00" fill="#311b92">22. EXPORT_PUBLISH</text>
<text xml:space="preserve" text-anchor="middle" x="2065.25" y="-34.3" font-family="Inter, Arial, sans-serif" font-size="9.00" fill="#311b92">LaTeX output</text>
<text xml:space="preserve" text-anchor="middle" x="2065.25" y="-23.8" font-family="Inter, Arial, sans-serif" font-size="9.00" fill="#311b92">NeurIPS/ICML/ICLR</text>
</g>
<!-- stage_23 -->
<g id="node23" class="node">
<title>stage_23</title>
<path fill="white" stroke="#4527a0" stroke-width="1.5" d="M2319.45,-59.2C2319.45,-59.2 2185.05,-59.2 2185.05,-59.2 2179.05,-59.2 2173.05,-53.2 2173.05,-47.2 2173.05,-47.2 2173.05,-28 2173.05,-28 2173.05,-22 2179.05,-16 2185.05,-16 2185.05,-16 2319.45,-16 2319.45,-16 2325.45,-16 2331.45,-22 2331.45,-28 2331.45,-28 2331.45,-47.2 2331.45,-47.2 2331.45,-53.2 2325.45,-59.2 2319.45,-59.2"/>
<text xml:space="preserve" text-anchor="middle" x="2252.25" y="-44.8" font-family="Inter, Arial, sans-serif" font-size="9.00" fill="#311b92">23. CITATION_VERIFY</text>
<text xml:space="preserve" text-anchor="middle" x="2252.25" y="-34.3" font-family="Inter, Arial, sans-serif" font-size="9.00" fill="#311b92">4&#45;layer citation</text>
<text xml:space="preserve" text-anchor="middle" x="2252.25" y="-23.8" font-family="Inter, Arial, sans-serif" font-size="9.00" fill="#311b92">integrity check</text>
</g>
<!-- sentinel -->
<g id="node24" class="node">
<title>sentinel</title>
<polygon fill="#fff9c4" stroke="#f57f17" stroke-width="2" points="1621.62,-520.22 1621.62,-551.92 1579.81,-574.34 1520.69,-574.34 1478.88,-551.92 1478.88,-520.22 1520.69,-497.8 1579.81,-497.8 1621.62,-520.22"/>
<polygon fill="none" stroke="#f57f17" stroke-width="2" points="1625.62,-517.82 1625.62,-554.31 1580.82,-578.34 1519.68,-578.34 1474.88,-554.31 1474.88,-517.82 1519.68,-493.8 1580.82,-493.8 1625.62,-517.82"/>
<text xml:space="preserve" text-anchor="middle" x="1550.25" y="-548.52" font-family="Inter, Arial, sans-serif" font-size="9.00" fill="#e65100">Sentinel Watchdog</text>
<text xml:space="preserve" text-anchor="middle" x="1550.25" y="-538.02" font-family="Inter, Arial, sans-serif" font-size="9.00" fill="#e65100">NaN/Inf Detection</text>
<text xml:space="preserve" text-anchor="middle" x="1550.25" y="-527.52" font-family="Inter, Arial, sans-serif" font-size="9.00" fill="#e65100">Claim Verification</text>
<text xml:space="preserve" text-anchor="middle" x="1550.25" y="-517.02" font-family="Inter, Arial, sans-serif" font-size="9.00" fill="#e65100">Quality Monitor</text>
</g>
<!-- sentinel&#45;&gt;stage_12 -->
<g id="edge10" class="edge">
<title>sentinel&#45;&gt;stage_12</title>
<path fill="none" stroke="#f57f17" stroke-dasharray="1,5" d="M1506.07,-500C1408.65,-500 1183.98,-500 1183.98,-500 1183.98,-500 1183.98,-420.7 1183.98,-420.7"/>
<polygon fill="#f57f17" stroke="#f57f17" points="1183.98,-414.7 1186.68,-420.7 1183.98,-416.48 1183.98,-420.7 1183.98,-420.7 1183.98,-420.7 1183.98,-416.48 1181.28,-420.7 1183.98,-414.7"/>
</g>
<!-- sentinel&#45;&gt;stage_15 -->
<g id="edge11" class="edge">
<title>sentinel&#45;&gt;stage_15</title>
<path fill="none" stroke="#f57f17" stroke-dasharray="1,5" d="M1503.66,-501.44C1503.66,-501.44 1503.66,-296.57 1503.66,-296.57"/>
<polygon fill="#f57f17" stroke="#f57f17" points="1503.66,-290.57 1506.36,-296.57 1503.66,-292.35 1503.66,-296.57 1503.66,-296.57 1503.66,-296.57 1503.66,-292.35 1500.96,-296.57 1503.66,-290.57"/>
</g>
<!-- sentinel&#45;&gt;stage_18 -->
<g id="edge12" class="edge">
<title>sentinel&#45;&gt;stage_18</title>
<path fill="none" stroke="#f57f17" stroke-dasharray="1,5" d="M1557.95,-493.16C1557.95,-493.16 1557.95,-181.5 1557.95,-181.5"/>
<polygon fill="#f57f17" stroke="#f57f17" points="1557.95,-175.5 1560.65,-181.5 1557.95,-177.28 1557.95,-181.5 1557.95,-181.5 1557.95,-181.5 1557.95,-177.28 1555.25,-181.5 1557.95,-175.5"/>
</g>
<!-- sentinel&#45;&gt;stage_23 -->
<g id="edge13" class="edge">
<title>sentinel&#45;&gt;stage_23</title>
<path fill="none" stroke="#f57f17" stroke-dasharray="1,5" d="M1626.38,-536C1808.11,-536 2252.25,-536 2252.25,-536 2252.25,-536 2252.25,-66.88 2252.25,-66.88"/>
<polygon fill="#f57f17" stroke="#f57f17" points="2252.25,-60.88 2254.95,-66.88 2252.25,-62.66 2252.25,-66.88 2252.25,-66.88 2252.25,-66.88 2252.25,-62.66 2249.55,-66.88 2252.25,-60.88"/>
</g>
<!-- metaclaw -->
<g id="node25" class="node">
<title>metaclaw</title>
<path fill="#e8eaf6" stroke="#283593" stroke-width="1.5" d="M86.5,-1062.26C86.5,-1064.98 67.11,-1067.19 43.25,-1067.19 19.39,-1067.19 0,-1064.98 0,-1062.26 0,-1062.26 0,-1017.82 0,-1017.82 0,-1015.09 19.39,-1012.88 43.25,-1012.88 67.11,-1012.88 86.5,-1015.09 86.5,-1017.82 86.5,-1017.82 86.5,-1062.26 86.5,-1062.26"/>
<path fill="none" stroke="#283593" stroke-width="1.5" d="M86.5,-1062.26C86.5,-1059.53 67.11,-1057.32 43.25,-1057.32 19.39,-1057.32 0,-1059.53 0,-1062.26"/>
<text xml:space="preserve" text-anchor="middle" x="43.25" y="-1047.24" font-family="Inter, Arial, sans-serif" font-size="9.00" fill="#1a237e">MetaClaw Bridge</text>
<text xml:space="preserve" text-anchor="middle" x="43.25" y="-1036.74" font-family="Inter, Arial, sans-serif" font-size="9.00" fill="#1a237e">Self&#45;Learning</text>
<text xml:space="preserve" text-anchor="middle" x="43.25" y="-1026.24" font-family="Inter, Arial, sans-serif" font-size="9.00" fill="#1a237e">Lessons to Skills</text>
</g>
<!-- metaclaw&#45;&gt;stage_1 -->
<g id="edge14" class="edge">
<title>metaclaw&#45;&gt;stage_1</title>
<path fill="none" stroke="#283593" stroke-dasharray="5,2" d="M69.78,-1012.45C69.78,-1012.45 69.78,-928.16 69.78,-928.16"/>
<polygon fill="#283593" stroke="#283593" points="71.88,-928.16 69.78,-922.16 67.68,-928.16 71.88,-928.16"/>
<text xml:space="preserve" text-anchor="middle" x="63.12" y="-974.94" font-family="Times New Roman,serif" font-size="8.00" fill="#283593">injects skills</text>
</g>
<!-- hitl -->
<g id="node26" class="node">
<title>hitl</title>
<path fill="#fce4ec" stroke="#880e4f" stroke-width="2" d="M1131,-928.94C1131,-928.94 1053.5,-928.94 1053.5,-928.94 1047.5,-928.94 1041.5,-922.94 1041.5,-916.94 1041.5,-916.94 1041.5,-880.44 1041.5,-880.44 1041.5,-874.44 1047.5,-868.44 1053.5,-868.44 1053.5,-868.44 1131,-868.44 1131,-868.44 1137,-868.44 1143,-874.44 1143,-880.44 1143,-880.44 1143,-916.94 1143,-916.94 1143,-922.94 1137,-928.94 1131,-928.94"/>
<text xml:space="preserve" text-anchor="middle" x="1092.25" y="-916.39" font-family="Inter, Arial, sans-serif" font-size="9.00" fill="#880e4f">HITL Co&#45;Pilot</text>
<text xml:space="preserve" text-anchor="middle" x="1092.25" y="-905.89" font-family="Inter, Arial, sans-serif" font-size="9.00" fill="#880e4f">6 Intervention Modes</text>
<text xml:space="preserve" text-anchor="middle" x="1092.25" y="-895.39" font-family="Inter, Arial, sans-serif" font-size="9.00" fill="#880e4f">Idea Workshop</text>
<text xml:space="preserve" text-anchor="middle" x="1092.25" y="-884.89" font-family="Inter, Arial, sans-serif" font-size="9.00" fill="#880e4f">Baseline Navigator</text>
<text xml:space="preserve" text-anchor="middle" x="1092.25" y="-874.39" font-family="Inter, Arial, sans-serif" font-size="9.00" fill="#880e4f">Paper Co&#45;Writer</text>
</g>
<!-- hitl&#45;&gt;stage_5 -->
<g id="edge15" class="edge">
<title>hitl&#45;&gt;stage_5</title>
<path fill="none" stroke="#880e4f" stroke-dasharray="5,2" d="M1040.88,-873C937.53,-873 714.25,-873 714.25,-873 714.25,-873 714.25,-803.85 714.25,-803.85"/>
<ellipse fill="none" stroke="#880e4f" cx="714.25" cy="-800.95" rx="2.4" ry="2.4"/>
</g>
<!-- hitl&#45;&gt;stage_9 -->
<g id="edge16" class="edge">
<title>hitl&#45;&gt;stage_9</title>
<path fill="none" stroke="#880e4f" stroke-dasharray="5,2" d="M1058.45,-867.46C1058.45,-867.46 1058.45,-555.92 1058.45,-555.92"/>
<ellipse fill="none" stroke="#880e4f" cx="1058.45" cy="-553.02" rx="2.4" ry="2.4"/>
</g>
<!-- hitl&#45;&gt;stage_20 -->
<g id="edge17" class="edge">
<title>hitl&#45;&gt;stage_20</title>
<path fill="none" stroke="#880e4f" stroke-dasharray="5,2" d="M1143.73,-899C1304.22,-899 1784.75,-899 1784.75,-899 1784.75,-899 1784.75,-38 1784.75,-38 1784.75,-38 1776.75,-38 1776.75,-38"/>
<ellipse fill="none" stroke="#880e4f" cx="1773.85" cy="-38" rx="2.4" ry="2.4"/>
</g>
<!-- llm -->
<g id="node27" class="node">
<title>llm</title>
<polygon fill="#e0f2f1" stroke="#00695c" stroke-width="1.5" points="324.7,-1079.54 158.54,-1079.54 115.8,-1000.54 281.96,-1000.54 324.7,-1079.54"/>
<text xml:space="preserve" text-anchor="middle" x="220.25" y="-1047.24" font-family="Inter, Arial, sans-serif" font-size="9.00" fill="#004d40">LLM Providers</text>
<text xml:space="preserve" text-anchor="middle" x="220.25" y="-1036.74" font-family="Inter, Arial, sans-serif" font-size="9.00" fill="#004d40">OpenAI / Anthropic /</text>
<text xml:space="preserve" text-anchor="middle" x="220.25" y="-1026.24" font-family="Inter, Arial, sans-serif" font-size="9.00" fill="#004d40">Google / Local / ACP</text>
</g>
<!-- llm&#45;&gt;stage_1 -->
<g id="edge18" class="edge">
<title>llm&#45;&gt;stage_1</title>
<path fill="none" stroke="#00695c" stroke-dasharray="1,5" d="M163.62,-999.91C163.62,-999.91 163.62,-928.41 163.62,-928.41"/>
<polygon fill="#00695c" stroke="#00695c" points="165.72,-928.41 163.62,-922.41 161.52,-928.41 165.72,-928.41"/>
<text xml:space="preserve" text-anchor="middle" x="248" y="-974.94" font-family="Times New Roman,serif" font-size="8.00" fill="#00695c">powers all stages</text>
</g>
</g>
</svg>
