<?xml version="1.0" encoding="UTF-8" standalone="no"?>
<!DOCTYPE svg PUBLIC "-//W3C//DTD SVG 1.1//EN"
 "http://www.w3.org/Graphics/SVG/1.1/DTD/svg11.dtd">
<!-- Generated by graphviz version 14.1.2 (0)
 -->
<!-- Title: G Pages: 1 -->
<svg width="276pt" height="1272pt"
 viewBox="0.00 0.00 276.00 1272.00" xmlns="http://www.w3.org/2000/svg" xmlns:xlink="http://www.w3.org/1999/xlink">
<g id="graph0" class="graph" transform="scale(1 1) rotate(0) translate(36 1235.75)">
<title>G</title>
<polygon fill="white" stroke="none" points="-36,36 -36,-1235.75 240.25,-1235.75 240.25,36 -36,36"/>
<text xml:space="preserve" text-anchor="middle" x="102.12" y="-7.55" font-family="Arial bold" font-size="16.00">Human&#45;in&#45;the&#45;Loop Flow</text>
<!-- user_input -->
<g id="node1" class="node">
<title>user_input</title>
<ellipse fill="#10b981" stroke="black" stroke-width="0" cx="102.12" cy="-1170.95" rx="90" ry="28.8"/>
<text xml:space="preserve" text-anchor="middle" x="102.12" y="-1166.67" font-family="Arial bold" font-size="12.00" fill="white">User Input</text>
</g>
<!-- graph_exec -->
<g id="node2" class="node">
<title>graph_exec</title>
<ellipse fill="#2563eb" stroke="black" stroke-width="0" cx="102.12" cy="-1054.35" rx="90" ry="28.8"/>
<text xml:space="preserve" text-anchor="middle" x="102.12" y="-1057.2" font-family="Arial bold" font-size="12.00" fill="white">Graph</text>
<text xml:space="preserve" text-anchor="middle" x="102.12" y="-1042.95" font-family="Arial bold" font-size="12.00" fill="white">Execution</text>
</g>
<!-- user_input&#45;&gt;graph_exec -->
<g id="edge1" class="edge">
<title>user_input&#45;&gt;graph_exec</title>
<path fill="none" stroke="#64748b" stroke-width="1.5" d="M102.12,-1142.43C102.12,-1142.43 102.12,-1095.25 102.12,-1095.25"/>
<polygon fill="#64748b" stroke="#64748b" stroke-width="1.5" points="105.63,-1095.25 102.13,-1085.25 98.63,-1095.25 105.63,-1095.25"/>
</g>
<!-- interrupt_node -->
<g id="node3" class="node">
<title>interrupt_node</title>
<ellipse fill="#ef4444" stroke="black" stroke-width="0" cx="102.12" cy="-937.75" rx="90" ry="28.8"/>
<text xml:space="preserve" text-anchor="middle" x="102.12" y="-940.6" font-family="Arial bold" font-size="12.00" fill="white">Node with</text>
<text xml:space="preserve" text-anchor="middle" x="102.12" y="-926.35" font-family="Arial bold" font-size="12.00" fill="white">interrupt()</text>
</g>
<!-- graph_exec&#45;&gt;interrupt_node -->
<g id="edge2" class="edge">
<title>graph_exec&#45;&gt;interrupt_node</title>
<path fill="none" stroke="#64748b" stroke-width="1.5" d="M102.12,-1025.83C102.12,-1025.83 102.12,-978.65 102.12,-978.65"/>
<polygon fill="#64748b" stroke="#64748b" stroke-width="1.5" points="105.63,-978.65 102.13,-968.65 98.63,-978.65 105.63,-978.65"/>
</g>
<!-- graph_interrupt -->
<g id="node4" class="node">
<title>graph_interrupt</title>
<ellipse fill="#ef4444" stroke="black" stroke-width="0" cx="102.12" cy="-810.15" rx="90" ry="28.8"/>
<text xml:space="preserve" text-anchor="middle" x="102.12" y="-820.12" font-family="Arial bold" font-size="12.00" fill="white">GraphInterrupt</text>
<text xml:space="preserve" text-anchor="middle" x="102.12" y="-805.87" font-family="Arial bold" font-size="12.00" fill="white">Exception raised</text>
<text xml:space="preserve" text-anchor="middle" x="102.12" y="-791.62" font-family="Arial bold" font-size="12.00" fill="white">to client</text>
</g>
<!-- interrupt_node&#45;&gt;graph_interrupt -->
<g id="edge3" class="edge">
<title>interrupt_node&#45;&gt;graph_interrupt</title>
<path fill="none" stroke="#64748b" stroke-width="1.5" d="M102.12,-909.11C102.12,-909.11 102.12,-850.96 102.12,-850.96"/>
<polygon fill="#64748b" stroke="#64748b" stroke-width="1.5" points="105.63,-850.96 102.13,-840.96 98.63,-850.96 105.63,-850.96"/>
<text xml:space="preserve" text-anchor="middle" x="115.25" y="-870.45" font-family="Arial" font-size="10.00">raises</text>
</g>
<!-- client_recv -->
<g id="node5" class="node">
<title>client_recv</title>
<ellipse fill="#f59e0b" stroke="black" stroke-width="0" cx="102.12" cy="-682.55" rx="90" ry="28.8"/>
<text xml:space="preserve" text-anchor="middle" x="102.12" y="-692.52" font-family="Arial bold" font-size="12.00" fill="white">Client Receives</text>
<text xml:space="preserve" text-anchor="middle" x="102.12" y="-678.27" font-family="Arial bold" font-size="12.00" fill="white">Application</text>
<text xml:space="preserve" text-anchor="middle" x="102.12" y="-664.02" font-family="Arial bold" font-size="12.00" fill="white">handles interrupt</text>
</g>
<!-- graph_interrupt&#45;&gt;client_recv -->
<g id="edge4" class="edge">
<title>graph_interrupt&#45;&gt;client_recv</title>
<path fill="none" stroke="#64748b" stroke-width="1.5" d="M102.12,-781.51C102.12,-781.51 102.12,-723.36 102.12,-723.36"/>
<polygon fill="#64748b" stroke="#64748b" stroke-width="1.5" points="105.63,-723.36 102.13,-713.36 98.63,-723.36 105.63,-723.36"/>
<text xml:space="preserve" text-anchor="middle" x="120.88" y="-742.85" font-family="Arial" font-size="10.00">surfaces</text>
</g>
<!-- human_review -->
<g id="node6" class="node">
<title>human_review</title>
<ellipse fill="#8b5cf6" stroke="black" stroke-width="0" cx="102.12" cy="-554.95" rx="90" ry="28.8"/>
<text xml:space="preserve" text-anchor="middle" x="102.12" y="-564.93" font-family="Arial bold" font-size="12.00" fill="white">Human Reviews</text>
<text xml:space="preserve" text-anchor="middle" x="102.12" y="-550.68" font-family="Arial bold" font-size="12.00" fill="white">Human makes</text>
<text xml:space="preserve" text-anchor="middle" x="102.12" y="-536.43" font-family="Arial bold" font-size="12.00" fill="white">decision</text>
</g>
<!-- client_recv&#45;&gt;human_review -->
<g id="edge5" class="edge">
<title>client_recv&#45;&gt;human_review</title>
<path fill="none" stroke="#64748b" stroke-width="1.5" d="M102.12,-653.91C102.12,-653.91 102.12,-595.76 102.12,-595.76"/>
<polygon fill="#64748b" stroke="#64748b" stroke-width="1.5" points="105.63,-595.76 102.13,-585.76 98.63,-595.76 105.63,-595.76"/>
<text xml:space="preserve" text-anchor="middle" x="120.88" y="-615.25" font-family="Arial" font-size="10.00">presents</text>
</g>
<!-- cmd_resume -->
<g id="node7" class="node">
<title>cmd_resume</title>
<ellipse fill="#2563eb" stroke="black" stroke-width="0" cx="102.12" cy="-427.35" rx="90" ry="28.8"/>
<text xml:space="preserve" text-anchor="middle" x="102.12" y="-437.33" font-family="Arial bold" font-size="12.00" fill="white">Command Resume</text>
<text xml:space="preserve" text-anchor="middle" x="102.12" y="-423.08" font-family="Arial bold" font-size="12.00" fill="white">Command(resume=</text>
<text xml:space="preserve" text-anchor="middle" x="102.12" y="-408.83" font-family="Arial bold" font-size="12.00" fill="white">value)</text>
</g>
<!-- human_review&#45;&gt;cmd_resume -->
<g id="edge6" class="edge">
<title>human_review&#45;&gt;cmd_resume</title>
<path fill="none" stroke="#64748b" stroke-width="1.5" d="M102.12,-526.31C102.12,-526.31 102.12,-468.16 102.12,-468.16"/>
<polygon fill="#64748b" stroke="#64748b" stroke-width="1.5" points="105.63,-468.16 102.13,-458.16 98.63,-468.16 105.63,-468.16"/>
<text xml:space="preserve" text-anchor="middle" x="119" y="-487.65" font-family="Arial" font-size="10.00">decides</text>
</g>
<!-- reexec -->
<g id="node8" class="node">
<title>reexec</title>
<ellipse fill="#2563eb" stroke="black" stroke-width="0" cx="102.12" cy="-299.75" rx="90" ry="28.8"/>
<text xml:space="preserve" text-anchor="middle" x="102.12" y="-309.73" font-family="Arial bold" font-size="12.00" fill="white">Re&#45;execute Node</text>
<text xml:space="preserve" text-anchor="middle" x="102.12" y="-295.48" font-family="Arial bold" font-size="12.00" fill="white">Node re&#45;runs</text>
<text xml:space="preserve" text-anchor="middle" x="102.12" y="-281.23" font-family="Arial bold" font-size="12.00" fill="white">interrupt() returns</text>
</g>
<!-- cmd_resume&#45;&gt;reexec -->
<g id="edge7" class="edge">
<title>cmd_resume&#45;&gt;reexec</title>
<path fill="none" stroke="#64748b" stroke-width="1.5" d="M102.12,-398.71C102.12,-398.71 102.12,-340.56 102.12,-340.56"/>
<polygon fill="#64748b" stroke="#64748b" stroke-width="1.5" points="105.63,-340.56 102.13,-330.56 98.63,-340.56 105.63,-340.56"/>
<text xml:space="preserve" text-anchor="middle" x="120.88" y="-360.05" font-family="Arial" font-size="10.00">resumes</text>
</g>
<!-- continue_exec -->
<g id="node9" class="node">
<title>continue_exec</title>
<ellipse fill="#2563eb" stroke="black" stroke-width="0" cx="102.12" cy="-172.15" rx="90" ry="28.8"/>
<text xml:space="preserve" text-anchor="middle" x="102.12" y="-175" font-family="Arial bold" font-size="12.00" fill="white">Continue</text>
<text xml:space="preserve" text-anchor="middle" x="102.12" y="-160.75" font-family="Arial bold" font-size="12.00" fill="white">Execution</text>
</g>
<!-- reexec&#45;&gt;continue_exec -->
<g id="edge8" class="edge">
<title>reexec&#45;&gt;continue_exec</title>
<path fill="none" stroke="#64748b" stroke-width="1.5" d="M102.12,-271.11C102.12,-271.11 102.12,-212.96 102.12,-212.96"/>
<polygon fill="#64748b" stroke="#64748b" stroke-width="1.5" points="105.63,-212.96 102.13,-202.96 98.63,-212.96 105.63,-212.96"/>
<text xml:space="preserve" text-anchor="middle" x="130.25" y="-232.45" font-family="Arial" font-size="10.00">returns value</text>
</g>
<!-- output -->
<g id="node10" class="node">
<title>output</title>
<ellipse fill="#10b981" stroke="black" stroke-width="0" cx="102.12" cy="-55.55" rx="90" ry="28.8"/>
<text xml:space="preserve" text-anchor="middle" x="102.12" y="-51.27" font-family="Arial bold" font-size="12.00" fill="white">Output</text>
</g>
<!-- continue_exec&#45;&gt;output -->
<g id="edge9" class="edge">
<title>continue_exec&#45;&gt;output</title>
<path fill="none" stroke="#64748b" stroke-width="1.5" d="M102.12,-143.63C102.12,-143.63 102.12,-96.45 102.12,-96.45"/>
<polygon fill="#64748b" stroke="#64748b" stroke-width="1.5" points="105.63,-96.45 102.13,-86.45 98.63,-96.45 105.63,-96.45"/>
</g>
</g>
</svg>
