<?xml version="1.0" encoding="UTF-8" standalone="no"?>
<!DOCTYPE svg PUBLIC "-//W3C//DTD SVG 1.1//EN"
 "http://www.w3.org/Graphics/SVG/1.1/DTD/svg11.dtd">
<!-- Generated by graphviz version 14.1.2 (0)
 -->
<!-- Title: design_system Pages: 1 -->
<svg width="1350pt" height="294pt"
 viewBox="0.00 0.00 1350.00 294.00" xmlns="http://www.w3.org/2000/svg" xmlns:xlink="http://www.w3.org/1999/xlink">
<style>
<!-- White text halo for edge label readability -->
text { paint-order: stroke; stroke: #ffffff; stroke-width: 3px; stroke-linejoin: round; fill: #1a1a2e; }
</style>
<g id="graph0" class="graph" transform="scale(1 1) rotate(0) translate(4 290)">
<title>design_system</title>
<polygon fill="white" stroke="none" points="-4,4 -4,-290 1345.62,-290 1345.62,4 -4,4"/>
<text xml:space="preserve" text-anchor="middle" x="670.81" y="-7.2" font-family="Times New Roman,serif" font-size="14.00">Web Design Skill &#45; Design System &amp; Principles</text>
<!-- core -->
<g id="node1" class="node">
<title>core</title>
<path fill="#ff9800" stroke="black" d="M806.88,-286C806.88,-286 680.62,-286 680.62,-286 674.62,-286 668.62,-280 668.62,-274 668.62,-274 668.62,-245 668.62,-245 668.62,-239 674.62,-233 680.62,-233 680.62,-233 806.88,-233 806.88,-233 812.88,-233 818.88,-239 818.88,-245 818.88,-245 818.88,-274 818.88,-274 818.88,-280 812.88,-286 806.88,-286"/>
<text xml:space="preserve" text-anchor="middle" x="743.75" y="-269.65" font-family="Arial Bold" font-size="13.00" fill="white">Design Philosophy</text>
<text xml:space="preserve" text-anchor="middle" x="743.75" y="-254.65" font-family="Arial Bold" font-size="13.00" fill="white">&quot;The bar is stunning,</text>
<text xml:space="preserve" text-anchor="middle" x="743.75" y="-239.65" font-family="Arial Bold" font-size="13.00" fill="white">not functional&quot;</text>
</g>
<!-- aim_to_stun -->
<g id="node2" class="node">
<title>aim_to_stun</title>
<path fill="#2196f3" stroke="black" d="M129.88,-175C129.88,-175 39.62,-175 39.62,-175 33.62,-175 27.62,-169 27.62,-163 27.62,-163 27.62,-138.5 27.62,-138.5 27.62,-132.5 33.62,-126.5 39.62,-126.5 39.62,-126.5 129.88,-126.5 129.88,-126.5 135.88,-126.5 141.88,-132.5 141.88,-138.5 141.88,-138.5 141.88,-163 141.88,-163 141.88,-169 135.88,-175 129.88,-175"/>
<text xml:space="preserve" text-anchor="middle" x="84.75" y="-160.55" font-family="Arial" font-size="11.00" fill="white">Aim to Stun</text>
<text xml:space="preserve" text-anchor="middle" x="84.75" y="-147.05" font-family="Arial" font-size="11.00" fill="white">(Bold type contrast,</text>
<text xml:space="preserve" text-anchor="middle" x="84.75" y="-133.55" font-family="Arial" font-size="11.00" fill="white">depth, blend modes)</text>
</g>
<!-- core&#45;&gt;aim_to_stun -->
<g id="edge1" class="edge">
<title>core&#45;&gt;aim_to_stun</title>
<path fill="none" stroke="#2196f3" stroke-width="2" d="M668.15,-272.5C495.06,-272.5 84.75,-272.5 84.75,-272.5 84.75,-272.5 84.75,-188.42 84.75,-188.42"/>
<polygon fill="#2196f3" stroke="#2196f3" stroke-width="2" points="88.25,-188.41 84.75,-178.42 81.25,-188.42 88.25,-188.41"/>
</g>
<!-- no_cliche -->
<g id="node3" class="node">
<title>no_cliche</title>
<path fill="#2196f3" stroke="black" d="M311.62,-175C311.62,-175 189.88,-175 189.88,-175 183.88,-175 177.88,-169 177.88,-163 177.88,-163 177.88,-138.5 177.88,-138.5 177.88,-132.5 183.88,-126.5 189.88,-126.5 189.88,-126.5 311.62,-126.5 311.62,-126.5 317.62,-126.5 323.62,-132.5 323.62,-138.5 323.62,-138.5 323.62,-163 323.62,-163 323.62,-169 317.62,-175 311.62,-175"/>
<text xml:space="preserve" text-anchor="middle" x="250.75" y="-160.55" font-family="Arial" font-size="11.00" fill="white">Avoid AI Cliches</text>
<text xml:space="preserve" text-anchor="middle" x="250.75" y="-147.05" font-family="Arial" font-size="11.00" fill="white">(No purple&#45;pink gradients,</text>
<text xml:space="preserve" text-anchor="middle" x="250.75" y="-133.55" font-family="Arial" font-size="11.00" fill="white">No Inter/Roboto, No emoji)</text>
</g>
<!-- core&#45;&gt;no_cliche -->
<g id="edge2" class="edge">
<title>core&#45;&gt;no_cliche</title>
<path fill="none" stroke="#2196f3" stroke-width="2" d="M668.34,-259.5C530.23,-259.5 250.75,-259.5 250.75,-259.5 250.75,-259.5 250.75,-188.45 250.75,-188.45"/>
<polygon fill="#2196f3" stroke="#2196f3" stroke-width="2" points="254.25,-188.45 250.75,-178.45 247.25,-188.45 254.25,-188.45"/>
</g>
<!-- placeholders -->
<g id="node4" class="node">
<title>placeholders</title>
<path fill="#2196f3" stroke="black" d="M476,-175C476,-175 371.5,-175 371.5,-175 365.5,-175 359.5,-169 359.5,-163 359.5,-163 359.5,-138.5 359.5,-138.5 359.5,-132.5 365.5,-126.5 371.5,-126.5 371.5,-126.5 476,-126.5 476,-126.5 482,-126.5 488,-132.5 488,-138.5 488,-138.5 488,-163 488,-163 488,-169 482,-175 476,-175"/>
<text xml:space="preserve" text-anchor="middle" x="423.75" y="-160.55" font-family="Arial" font-size="11.00" fill="white">Placeholder Philosophy</text>
<text xml:space="preserve" text-anchor="middle" x="423.75" y="-147.05" font-family="Arial" font-size="11.00" fill="white">(Honest markers &gt;</text>
<text xml:space="preserve" text-anchor="middle" x="423.75" y="-133.55" font-family="Arial" font-size="11.00" fill="white">poorly drawn fakes)</text>
</g>
<!-- core&#45;&gt;placeholders -->
<g id="edge3" class="edge">
<title>core&#45;&gt;placeholders</title>
<path fill="none" stroke="#2196f3" stroke-width="2" d="M668.32,-246.5C573.71,-246.5 423.75,-246.5 423.75,-246.5 423.75,-246.5 423.75,-188.44 423.75,-188.44"/>
<polygon fill="#2196f3" stroke="#2196f3" stroke-width="2" points="427.25,-188.44 423.75,-178.44 420.25,-188.44 427.25,-188.44"/>
</g>
<!-- content_first -->
<g id="node5" class="node">
<title>content_first</title>
<path fill="#2196f3" stroke="black" d="M637.88,-175C637.88,-175 535.62,-175 535.62,-175 529.62,-175 523.62,-169 523.62,-163 523.62,-163 523.62,-138.5 523.62,-138.5 523.62,-132.5 529.62,-126.5 535.62,-126.5 535.62,-126.5 637.88,-126.5 637.88,-126.5 643.88,-126.5 649.88,-132.5 649.88,-138.5 649.88,-138.5 649.88,-163 649.88,-163 649.88,-169 643.88,-175 637.88,-175"/>
<text xml:space="preserve" text-anchor="middle" x="586.75" y="-160.55" font-family="Arial" font-size="11.00" fill="white">Content Principles</text>
<text xml:space="preserve" text-anchor="middle" x="586.75" y="-147.05" font-family="Arial" font-size="11.00" fill="white">(No filler, No fabricated</text>
<text xml:space="preserve" text-anchor="middle" x="586.75" y="-133.55" font-family="Arial" font-size="11.00" fill="white">data, Less is more)</text>
</g>
<!-- core&#45;&gt;content_first -->
<g id="edge4" class="edge">
<title>core&#45;&gt;content_first</title>
<path fill="none" stroke="#2196f3" stroke-width="2" d="M678.46,-232.56C678.46,-200.28 678.46,-150.5 678.46,-150.5 678.46,-150.5 663.22,-150.5 663.22,-150.5"/>
<polygon fill="#2196f3" stroke="#2196f3" stroke-width="2" points="663.22,-147 653.22,-150.5 663.22,-154 663.22,-147"/>
</g>
<!-- appropriate_scale -->
<g id="node6" class="node">
<title>appropriate_scale</title>
<path fill="#2196f3" stroke="black" d="M789.62,-175C789.62,-175 697.88,-175 697.88,-175 691.88,-175 685.88,-169 685.88,-163 685.88,-163 685.88,-138.5 685.88,-138.5 685.88,-132.5 691.88,-126.5 697.88,-126.5 697.88,-126.5 789.62,-126.5 789.62,-126.5 795.62,-126.5 801.62,-132.5 801.62,-138.5 801.62,-138.5 801.62,-163 801.62,-163 801.62,-169 795.62,-175 789.62,-175"/>
<text xml:space="preserve" text-anchor="middle" x="743.75" y="-160.55" font-family="Arial" font-size="11.00" fill="white">Appropriate Scale</text>
<text xml:space="preserve" text-anchor="middle" x="743.75" y="-147.05" font-family="Arial" font-size="11.00" fill="white">(Web: 16&#45;18px body,</text>
<text xml:space="preserve" text-anchor="middle" x="743.75" y="-133.55" font-family="Arial" font-size="11.00" fill="white">Slides: 24px+ text)</text>
</g>
<!-- core&#45;&gt;appropriate_scale -->
<g id="edge5" class="edge">
<title>core&#45;&gt;appropriate_scale</title>
<path fill="none" stroke="#2196f3" stroke-width="2" d="M743.75,-232.62C743.75,-232.62 743.75,-188.49 743.75,-188.49"/>
<polygon fill="#2196f3" stroke="#2196f3" stroke-width="2" points="747.25,-188.49 743.75,-178.49 740.25,-188.49 747.25,-188.49"/>
</g>
<!-- color_tokens -->
<g id="node7" class="node">
<title>color_tokens</title>
<path fill="#9c27b0" stroke="black" d="M915.88,-172.75C915.88,-172.75 849.62,-172.75 849.62,-172.75 843.62,-172.75 837.62,-166.75 837.62,-160.75 837.62,-160.75 837.62,-140.75 837.62,-140.75 837.62,-134.75 843.62,-128.75 849.62,-128.75 849.62,-128.75 915.88,-128.75 915.88,-128.75 921.88,-128.75 927.88,-134.75 927.88,-140.75 927.88,-140.75 927.88,-160.75 927.88,-160.75 927.88,-166.75 921.88,-172.75 915.88,-172.75"/>
<text xml:space="preserve" text-anchor="middle" x="882.75" y="-159.25" font-family="Arial" font-size="10.00" fill="white">Color Tokens</text>
<text xml:space="preserve" text-anchor="middle" x="882.75" y="-147.25" font-family="Arial" font-size="10.00" fill="white">(oklch perceptual</text>
<text xml:space="preserve" text-anchor="middle" x="882.75" y="-135.25" font-family="Arial" font-size="10.00" fill="white">uniform system)</text>
</g>
<!-- core&#45;&gt;color_tokens -->
<g id="edge6" class="edge">
<title>core&#45;&gt;color_tokens</title>
<path fill="none" stroke="#9c27b0" stroke-width="2" d="M812.62,-232.7C812.62,-202.78 812.62,-158.5 812.62,-158.5 812.62,-158.5 824.12,-158.5 824.12,-158.5"/>
<polygon fill="#9c27b0" stroke="#9c27b0" stroke-width="2" points="824.12,-162 834.12,-158.5 824.12,-155 824.12,-162"/>
</g>
<!-- font_tokens -->
<g id="node8" class="node">
<title>font_tokens</title>
<path fill="#9c27b0" stroke="black" d="M1045.38,-172.75C1045.38,-172.75 976.12,-172.75 976.12,-172.75 970.12,-172.75 964.12,-166.75 964.12,-160.75 964.12,-160.75 964.12,-140.75 964.12,-140.75 964.12,-134.75 970.12,-128.75 976.12,-128.75 976.12,-128.75 1045.38,-128.75 1045.38,-128.75 1051.38,-128.75 1057.38,-134.75 1057.38,-140.75 1057.38,-140.75 1057.38,-160.75 1057.38,-160.75 1057.38,-166.75 1051.38,-172.75 1045.38,-172.75"/>
<text xml:space="preserve" text-anchor="middle" x="1010.75" y="-159.25" font-family="Arial" font-size="10.00" fill="white">Font Tokens</text>
<text xml:space="preserve" text-anchor="middle" x="1010.75" y="-147.25" font-family="Arial" font-size="10.00" fill="white">(Curated pairings:</text>
<text xml:space="preserve" text-anchor="middle" x="1010.75" y="-135.25" font-family="Arial" font-size="10.00" fill="white">6 style presets)</text>
</g>
<!-- core&#45;&gt;font_tokens -->
<g id="edge7" class="edge">
<title>core&#45;&gt;font_tokens</title>
<path fill="none" stroke="#9c27b0" stroke-width="2" d="M819.19,-246.5C898.15,-246.5 1010.75,-246.5 1010.75,-246.5 1010.75,-246.5 1010.75,-185.98 1010.75,-185.98"/>
<polygon fill="#9c27b0" stroke="#9c27b0" stroke-width="2" points="1014.25,-185.98 1010.75,-175.98 1007.25,-185.98 1014.25,-185.98"/>
</g>
<!-- spacing_tokens -->
<g id="node9" class="node">
<title>spacing_tokens</title>
<path fill="#9c27b0" stroke="black" d="M1202.25,-172.75C1202.25,-172.75 1105.25,-172.75 1105.25,-172.75 1099.25,-172.75 1093.25,-166.75 1093.25,-160.75 1093.25,-160.75 1093.25,-140.75 1093.25,-140.75 1093.25,-134.75 1099.25,-128.75 1105.25,-128.75 1105.25,-128.75 1202.25,-128.75 1202.25,-128.75 1208.25,-128.75 1214.25,-134.75 1214.25,-140.75 1214.25,-140.75 1214.25,-160.75 1214.25,-160.75 1214.25,-166.75 1208.25,-172.75 1202.25,-172.75"/>
<text xml:space="preserve" text-anchor="middle" x="1153.75" y="-159.25" font-family="Arial" font-size="10.00" fill="white">Spacing Tokens</text>
<text xml:space="preserve" text-anchor="middle" x="1153.75" y="-147.25" font-family="Arial" font-size="10.00" fill="white">(CSS custom properties</text>
<text xml:space="preserve" text-anchor="middle" x="1153.75" y="-135.25" font-family="Arial" font-size="10.00" fill="white">+ clamp())</text>
</g>
<!-- core&#45;&gt;spacing_tokens -->
<g id="edge8" class="edge">
<title>core&#45;&gt;spacing_tokens</title>
<path fill="none" stroke="#9c27b0" stroke-width="2" d="M818.95,-259.5C937.31,-259.5 1153.75,-259.5 1153.75,-259.5 1153.75,-259.5 1153.75,-186.05 1153.75,-186.05"/>
<polygon fill="#9c27b0" stroke="#9c27b0" stroke-width="2" points="1157.25,-186.05 1153.75,-176.05 1150.25,-186.05 1157.25,-186.05"/>
</g>
<!-- motion_tokens -->
<g id="node10" class="node">
<title>motion_tokens</title>
<path fill="#9c27b0" stroke="black" d="M1329.62,-172.75C1329.62,-172.75 1261.88,-172.75 1261.88,-172.75 1255.88,-172.75 1249.88,-166.75 1249.88,-160.75 1249.88,-160.75 1249.88,-140.75 1249.88,-140.75 1249.88,-134.75 1255.88,-128.75 1261.88,-128.75 1261.88,-128.75 1329.62,-128.75 1329.62,-128.75 1335.62,-128.75 1341.62,-134.75 1341.62,-140.75 1341.62,-140.75 1341.62,-160.75 1341.62,-160.75 1341.62,-166.75 1335.62,-172.75 1329.62,-172.75"/>
<text xml:space="preserve" text-anchor="middle" x="1295.75" y="-159.25" font-family="Arial" font-size="10.00" fill="white">Motion Tokens</text>
<text xml:space="preserve" text-anchor="middle" x="1295.75" y="-147.25" font-family="Arial" font-size="10.00" fill="white">(Easing curves,</text>
<text xml:space="preserve" text-anchor="middle" x="1295.75" y="-135.25" font-family="Arial" font-size="10.00" fill="white">duration, triggers)</text>
</g>
<!-- core&#45;&gt;motion_tokens -->
<g id="edge9" class="edge">
<title>core&#45;&gt;motion_tokens</title>
<path fill="none" stroke="#9c27b0" stroke-width="2" d="M819.35,-272.5C970.52,-272.5 1295.75,-272.5 1295.75,-272.5 1295.75,-272.5 1295.75,-186.11 1295.75,-186.11"/>
<polygon fill="#9c27b0" stroke="#9c27b0" stroke-width="2" points="1299.25,-186.11 1295.75,-176.11 1292.25,-186.11 1299.25,-186.11"/>
</g>
<!-- avoid_gradient -->
<g id="node17" class="node">
<title>avoid_gradient</title>
<polygon fill="#f44336" stroke="black" points="95.5,-64.5 0,-64.5 0,-28.5 95.5,-28.5 95.5,-64.5"/>
<text xml:space="preserve" text-anchor="middle" x="47.75" y="-49" font-family="Arial" font-size="10.00" fill="white">Avoid: Purple&#45;pink</text>
<text xml:space="preserve" text-anchor="middle" x="47.75" y="-37" font-family="Arial" font-size="10.00" fill="white">gradients</text>
</g>
<!-- no_cliche&#45;&gt;avoid_gradient -->
<g id="edge16" class="edge">
<title>no_cliche&#45;&gt;avoid_gradient</title>
<path fill="none" stroke="#f44336" stroke-width="1.5" stroke-dasharray="5,2" d="M197.96,-126.31C197.96,-109.99 197.96,-91.5 197.96,-91.5 197.96,-91.5 61.56,-91.5 61.56,-91.5 61.56,-91.5 61.56,-77.07 61.56,-77.07"/>
<polygon fill="#f44336" stroke="#f44336" stroke-width="1.5" points="65.06,-77.07 61.56,-67.07 58.06,-77.07 65.06,-77.07"/>
</g>
<!-- avoid_inter -->
<g id="node18" class="node">
<title>avoid_inter</title>
<polygon fill="#f44336" stroke="black" points="238.12,-64.5 131.38,-64.5 131.38,-28.5 238.12,-28.5 238.12,-64.5"/>
<text xml:space="preserve" text-anchor="middle" x="184.75" y="-49" font-family="Arial" font-size="10.00" fill="white">Avoid: Inter, Roboto,</text>
<text xml:space="preserve" text-anchor="middle" x="184.75" y="-37" font-family="Arial" font-size="10.00" fill="white">Arial, Fraunces</text>
</g>
<!-- no_cliche&#45;&gt;avoid_inter -->
<g id="edge17" class="edge">
<title>no_cliche&#45;&gt;avoid_inter</title>
<path fill="none" stroke="#f44336" stroke-width="1.5" stroke-dasharray="5,2" d="M218.04,-126.04C218.04,-126.04 218.04,-77.1 218.04,-77.1"/>
<polygon fill="#f44336" stroke="#f44336" stroke-width="1.5" points="221.54,-77.1 218.04,-67.1 214.54,-77.1 221.54,-77.1"/>
</g>
<!-- avoid_emoji -->
<g id="node19" class="node">
<title>avoid_emoji</title>
<polygon fill="#f44336" stroke="black" points="359.25,-64.5 274.25,-64.5 274.25,-28.5 359.25,-28.5 359.25,-64.5"/>
<text xml:space="preserve" text-anchor="middle" x="316.75" y="-49" font-family="Arial" font-size="10.00" fill="white">Avoid: Emoji as</text>
<text xml:space="preserve" text-anchor="middle" x="316.75" y="-37" font-family="Arial" font-size="10.00" fill="white">icon substitutes</text>
</g>
<!-- no_cliche&#45;&gt;avoid_emoji -->
<g id="edge18" class="edge">
<title>no_cliche&#45;&gt;avoid_emoji</title>
<path fill="none" stroke="#f44336" stroke-width="1.5" stroke-dasharray="5,2" d="M307.17,-126.04C307.17,-126.04 307.17,-77.1 307.17,-77.1"/>
<polygon fill="#f44336" stroke="#f44336" stroke-width="1.5" points="310.67,-77.1 307.17,-67.1 303.67,-77.1 310.67,-77.1"/>
</g>
<!-- avoid_border -->
<g id="node20" class="node">
<title>avoid_border</title>
<polygon fill="#f44336" stroke="black" points="488.38,-64.5 395.12,-64.5 395.12,-28.5 488.38,-28.5 488.38,-64.5"/>
<text xml:space="preserve" text-anchor="middle" x="441.75" y="-49" font-family="Arial" font-size="10.00" fill="white">Avoid: Left&#45;border</text>
<text xml:space="preserve" text-anchor="middle" x="441.75" y="-37" font-family="Arial" font-size="10.00" fill="white">accent cards</text>
</g>
<!-- no_cliche&#45;&gt;avoid_border -->
<g id="edge19" class="edge">
<title>no_cliche&#45;&gt;avoid_border</title>
<path fill="none" stroke="#f44336" stroke-width="1.5" stroke-dasharray="5,2" d="M290.71,-126.18C290.71,-105.92 290.71,-80.5 290.71,-80.5 290.71,-80.5 441.56,-80.5 441.56,-80.5 441.56,-80.5 441.56,-76.96 441.56,-76.96"/>
<polygon fill="#f44336" stroke="#f44336" stroke-width="1.5" points="445.06,-76.96 441.56,-66.96 438.06,-76.96 445.06,-76.96"/>
</g>
<!-- modern_tech -->
<g id="node11" class="node">
<title>modern_tech</title>
<path fill="#00bcd4" stroke="black" d="M671.38,-68.5C671.38,-68.5 614.12,-68.5 614.12,-68.5 608.12,-68.5 602.12,-62.5 602.12,-56.5 602.12,-56.5 602.12,-36.5 602.12,-36.5 602.12,-30.5 608.12,-24.5 614.12,-24.5 614.12,-24.5 671.38,-24.5 671.38,-24.5 677.38,-24.5 683.38,-30.5 683.38,-36.5 683.38,-36.5 683.38,-56.5 683.38,-56.5 683.38,-62.5 677.38,-68.5 671.38,-68.5"/>
<text xml:space="preserve" text-anchor="middle" x="642.75" y="-55" font-family="Arial" font-size="10.00" fill="white">Modern Tech</text>
<text xml:space="preserve" text-anchor="middle" x="642.75" y="-43" font-family="Arial" font-size="10.00" fill="white">Blue&#45;violet +</text>
<text xml:space="preserve" text-anchor="middle" x="642.75" y="-31" font-family="Arial" font-size="10.00" fill="white">Space Grotesk</text>
</g>
<!-- color_tokens&#45;&gt;modern_tech -->
<g id="edge10" class="edge">
<title>color_tokens&#45;&gt;modern_tech</title>
<path fill="none" stroke="#00bcd4" stroke-width="1.5" d="M869.83,-128.51C869.83,-116.25 869.83,-103.5 869.83,-103.5 869.83,-103.5 673.54,-103.5 673.54,-103.5 673.54,-103.5 673.54,-80.97 673.54,-80.97"/>
<polygon fill="#00bcd4" stroke="#00bcd4" stroke-width="1.5" points="677.04,-80.97 673.54,-70.97 670.04,-80.97 677.04,-80.97"/>
</g>
<!-- elegant_editorial -->
<g id="node12" class="node">
<title>elegant_editorial</title>
<path fill="#00bcd4" stroke="black" d="M794.38,-68.5C794.38,-68.5 731.12,-68.5 731.12,-68.5 725.12,-68.5 719.12,-62.5 719.12,-56.5 719.12,-56.5 719.12,-36.5 719.12,-36.5 719.12,-30.5 725.12,-24.5 731.12,-24.5 731.12,-24.5 794.38,-24.5 794.38,-24.5 800.38,-24.5 806.38,-30.5 806.38,-36.5 806.38,-36.5 806.38,-56.5 806.38,-56.5 806.38,-62.5 800.38,-68.5 794.38,-68.5"/>
<text xml:space="preserve" text-anchor="middle" x="762.75" y="-55" font-family="Arial" font-size="10.00" fill="white">Elegant Editorial</text>
<text xml:space="preserve" text-anchor="middle" x="762.75" y="-43" font-family="Arial" font-size="10.00" fill="white">Warm brown +</text>
<text xml:space="preserve" text-anchor="middle" x="762.75" y="-31" font-family="Arial" font-size="10.00" fill="white">Newsreader</text>
</g>
<!-- color_tokens&#45;&gt;elegant_editorial -->
<g id="edge11" class="edge">
<title>color_tokens&#45;&gt;elegant_editorial</title>
<path fill="none" stroke="#00bcd4" stroke-width="1.5" d="M837.25,-143.5C831.87,-143.5 828.25,-143.5 828.25,-143.5 828.25,-143.5 828.25,-46.5 828.25,-46.5 828.25,-46.5 819.07,-46.5 819.07,-46.5"/>
<polygon fill="#00bcd4" stroke="#00bcd4" stroke-width="1.5" points="819.07,-43 809.07,-46.5 819.07,-50 819.07,-43"/>
</g>
<!-- premium_brand -->
<g id="node13" class="node">
<title>premium_brand</title>
<path fill="#00bcd4" stroke="black" d="M913.5,-68.5C913.5,-68.5 854,-68.5 854,-68.5 848,-68.5 842,-62.5 842,-56.5 842,-56.5 842,-36.5 842,-36.5 842,-30.5 848,-24.5 854,-24.5 854,-24.5 913.5,-24.5 913.5,-24.5 919.5,-24.5 925.5,-30.5 925.5,-36.5 925.5,-36.5 925.5,-56.5 925.5,-56.5 925.5,-62.5 919.5,-68.5 913.5,-68.5"/>
<text xml:space="preserve" text-anchor="middle" x="883.75" y="-55" font-family="Arial" font-size="10.00" fill="white">Premium Brand</text>
<text xml:space="preserve" text-anchor="middle" x="883.75" y="-43" font-family="Arial" font-size="10.00" fill="white">Near&#45;black +</text>
<text xml:space="preserve" text-anchor="middle" x="883.75" y="-31" font-family="Arial" font-size="10.00" fill="white">Sora</text>
</g>
<!-- color_tokens&#45;&gt;premium_brand -->
<g id="edge12" class="edge">
<title>color_tokens&#45;&gt;premium_brand</title>
<path fill="none" stroke="#00bcd4" stroke-width="1.5" d="M897.67,-128.39C897.67,-128.39 897.67,-81.1 897.67,-81.1"/>
<polygon fill="#00bcd4" stroke="#00bcd4" stroke-width="1.5" points="901.17,-81.1 897.67,-71.1 894.17,-81.1 901.17,-81.1"/>
</g>
<!-- lively_consumer -->
<g id="node14" class="node">
<title>lively_consumer</title>
<path fill="#00bcd4" stroke="black" d="M1045.88,-68.5C1045.88,-68.5 973.62,-68.5 973.62,-68.5 967.62,-68.5 961.62,-62.5 961.62,-56.5 961.62,-56.5 961.62,-36.5 961.62,-36.5 961.62,-30.5 967.62,-24.5 973.62,-24.5 973.62,-24.5 1045.88,-24.5 1045.88,-24.5 1051.88,-24.5 1057.88,-30.5 1057.88,-36.5 1057.88,-36.5 1057.88,-56.5 1057.88,-56.5 1057.88,-62.5 1051.88,-68.5 1045.88,-68.5"/>
<text xml:space="preserve" text-anchor="middle" x="1009.75" y="-55" font-family="Arial" font-size="10.00" fill="white">Lively Consumer</text>
<text xml:space="preserve" text-anchor="middle" x="1009.75" y="-43" font-family="Arial" font-size="10.00" fill="white">Coral +</text>
<text xml:space="preserve" text-anchor="middle" x="1009.75" y="-31" font-family="Arial" font-size="10.00" fill="white">Plus Jakarta Sans</text>
</g>
<!-- font_tokens&#45;&gt;lively_consumer -->
<g id="edge13" class="edge">
<title>font_tokens&#45;&gt;lively_consumer</title>
<path fill="none" stroke="#00bcd4" stroke-width="1.5" d="M995.21,-128.39C995.21,-128.39 995.21,-81.1 995.21,-81.1"/>
<polygon fill="#00bcd4" stroke="#00bcd4" stroke-width="1.5" points="998.71,-81.1 995.21,-71.1 991.71,-81.1 998.71,-81.1"/>
</g>
<!-- minimal_pro -->
<g id="node15" class="node">
<title>minimal_pro</title>
<path fill="#00bcd4" stroke="black" d="M1189.12,-68.5C1189.12,-68.5 1106.38,-68.5 1106.38,-68.5 1100.38,-68.5 1094.38,-62.5 1094.38,-56.5 1094.38,-56.5 1094.38,-36.5 1094.38,-36.5 1094.38,-30.5 1100.38,-24.5 1106.38,-24.5 1106.38,-24.5 1189.12,-24.5 1189.12,-24.5 1195.12,-24.5 1201.12,-30.5 1201.12,-36.5 1201.12,-36.5 1201.12,-56.5 1201.12,-56.5 1201.12,-62.5 1195.12,-68.5 1189.12,-68.5"/>
<text xml:space="preserve" text-anchor="middle" x="1147.75" y="-55" font-family="Arial" font-size="10.00" fill="white">Minimal Professional</text>
<text xml:space="preserve" text-anchor="middle" x="1147.75" y="-43" font-family="Arial" font-size="10.00" fill="white">Teal&#45;blue +</text>
<text xml:space="preserve" text-anchor="middle" x="1147.75" y="-31" font-family="Arial" font-size="10.00" fill="white">Outfit</text>
</g>
<!-- font_tokens&#45;&gt;minimal_pro -->
<g id="edge14" class="edge">
<title>font_tokens&#45;&gt;minimal_pro</title>
<path fill="none" stroke="#00bcd4" stroke-width="1.5" d="M1057.85,-150.5C1067.9,-150.5 1075.56,-150.5 1075.56,-150.5 1075.56,-150.5 1075.56,-46.5 1075.56,-46.5 1075.56,-46.5 1081.88,-46.5 1081.88,-46.5"/>
<polygon fill="#00bcd4" stroke="#00bcd4" stroke-width="1.5" points="1081.88,-50 1091.88,-46.5 1081.88,-43 1081.88,-50"/>
</g>
<!-- artisan_warmth -->
<g id="node16" class="node">
<title>artisan_warmth</title>
<path fill="#00bcd4" stroke="black" d="M1308.5,-68.5C1308.5,-68.5 1249,-68.5 1249,-68.5 1243,-68.5 1237,-62.5 1237,-56.5 1237,-56.5 1237,-36.5 1237,-36.5 1237,-30.5 1243,-24.5 1249,-24.5 1249,-24.5 1308.5,-24.5 1308.5,-24.5 1314.5,-24.5 1320.5,-30.5 1320.5,-36.5 1320.5,-36.5 1320.5,-56.5 1320.5,-56.5 1320.5,-62.5 1314.5,-68.5 1308.5,-68.5"/>
<text xml:space="preserve" text-anchor="middle" x="1278.75" y="-55" font-family="Arial" font-size="10.00" fill="white">Artisan Warmth</text>
<text xml:space="preserve" text-anchor="middle" x="1278.75" y="-43" font-family="Arial" font-size="10.00" fill="white">Caramel +</text>
<text xml:space="preserve" text-anchor="middle" x="1278.75" y="-31" font-family="Arial" font-size="10.00" fill="white">Caveat</text>
</g>
<!-- font_tokens&#45;&gt;artisan_warmth -->
<g id="edge15" class="edge">
<title>font_tokens&#45;&gt;artisan_warmth</title>
<path fill="none" stroke="#00bcd4" stroke-width="1.5" d="M1026.29,-128.41C1026.29,-120.95 1026.29,-114.5 1026.29,-114.5 1026.29,-114.5 1243.44,-114.5 1243.44,-114.5 1243.44,-114.5 1243.44,-81.04 1243.44,-81.04"/>
<polygon fill="#00bcd4" stroke="#00bcd4" stroke-width="1.5" points="1246.94,-81.04 1243.44,-71.04 1239.94,-81.04 1246.94,-81.04"/>
</g>
</g>
</svg>
