<?xml version="1.0" encoding="UTF-8" standalone="no"?>
<!DOCTYPE svg PUBLIC "-//W3C//DTD SVG 1.1//EN"
 "http://www.w3.org/Graphics/SVG/1.1/DTD/svg11.dtd">
<!-- Generated by graphviz version 14.1.3 (0)
 -->
<!-- Title: gastown_refinery Pages: 1 -->
<svg width="1310pt" height="369pt"
 viewBox="0.00 0.00 1310.00 369.00" xmlns="http://www.w3.org/2000/svg" xmlns:xlink="http://www.w3.org/1999/xlink">
<style>
<!-- White text halo for edge label readability -->
text { paint-order: stroke; stroke: #ffffff; stroke-width: 3px; stroke-linejoin: round; fill: #1a1a2e; }
</style>
<g id="graph0" class="graph" transform="scale(1 1) rotate(0) translate(4 364.75)">
<title>gastown_refinery</title>
<polygon fill="white" stroke="none" points="-4,4 -4,-364.75 1306.45,-364.75 1306.45,4 -4,4"/>
<text xml:space="preserve" text-anchor="middle" x="651.22" y="-7.2" font-family="Times New Roman,serif" font-size="14.00">Gas Town &#45; Refinery: Bors&#45;Style Bisecting Merge Queue</text>
<!-- agent1 -->
<g id="node1" class="node">
<title>agent1</title>
<path fill="#c62828" stroke="black" d="M96.25,-360.75C96.25,-360.75 20.25,-360.75 20.25,-360.75 14.25,-360.75 8.25,-354.75 8.25,-348.75 8.25,-348.75 8.25,-336.75 8.25,-336.75 8.25,-330.75 14.25,-324.75 20.25,-324.75 20.25,-324.75 96.25,-324.75 96.25,-324.75 102.25,-324.75 108.25,-330.75 108.25,-336.75 108.25,-336.75 108.25,-348.75 108.25,-348.75 108.25,-354.75 102.25,-360.75 96.25,-360.75"/>
<text xml:space="preserve" text-anchor="middle" x="58.25" y="-345.8" font-family="Arial" font-size="11.00" fill="white">Agent A</text>
<text xml:space="preserve" text-anchor="middle" x="58.25" y="-332.3" font-family="Arial" font-size="11.00" fill="white">Feature Branch 1</text>
</g>
<!-- queue -->
<g id="node5" class="node">
<title>queue</title>
<path fill="#ff6f00" stroke="black" d="M318.75,-217C318.75,-217 186.5,-217 186.5,-217 180.5,-217 174.5,-211 174.5,-205 174.5,-205 174.5,-192.5 174.5,-192.5 174.5,-186.5 180.5,-180.5 186.5,-180.5 186.5,-180.5 318.75,-180.5 318.75,-180.5 324.75,-180.5 330.75,-186.5 330.75,-192.5 330.75,-192.5 330.75,-205 330.75,-205 330.75,-211 324.75,-217 318.75,-217"/>
<text xml:space="preserve" text-anchor="middle" x="252.62" y="-201.6" font-family="Arial Bold" font-size="12.00" fill="white">Refinery Queue</text>
<text xml:space="preserve" text-anchor="middle" x="252.62" y="-187.35" font-family="Arial Bold" font-size="12.00" fill="white">Batch Candidate Merges</text>
</g>
<!-- agent1&#45;&gt;queue -->
<g id="edge1" class="edge">
<title>agent1&#45;&gt;queue</title>
<path fill="none" stroke="#c62828" stroke-width="2" d="M108.49,-342.75C173.48,-342.75 278.45,-342.75 278.45,-342.75 278.45,-342.75 278.45,-230.31 278.45,-230.31"/>
<polygon fill="#c62828" stroke="#c62828" stroke-width="2" points="281.95,-230.31 278.45,-220.31 274.95,-230.31 281.95,-230.31"/>
</g>
<!-- agent2 -->
<g id="node2" class="node">
<title>agent2</title>
<path fill="#c62828" stroke="black" d="M96.25,-288.75C96.25,-288.75 20.25,-288.75 20.25,-288.75 14.25,-288.75 8.25,-282.75 8.25,-276.75 8.25,-276.75 8.25,-264.75 8.25,-264.75 8.25,-258.75 14.25,-252.75 20.25,-252.75 20.25,-252.75 96.25,-252.75 96.25,-252.75 102.25,-252.75 108.25,-258.75 108.25,-264.75 108.25,-264.75 108.25,-276.75 108.25,-276.75 108.25,-282.75 102.25,-288.75 96.25,-288.75"/>
<text xml:space="preserve" text-anchor="middle" x="58.25" y="-273.8" font-family="Arial" font-size="11.00" fill="white">Agent B</text>
<text xml:space="preserve" text-anchor="middle" x="58.25" y="-260.3" font-family="Arial" font-size="11.00" fill="white">Feature Branch 2</text>
</g>
<!-- agent2&#45;&gt;queue -->
<g id="edge2" class="edge">
<title>agent2&#45;&gt;queue</title>
<path fill="none" stroke="#c62828" stroke-width="2" d="M108.72,-264.42C158.26,-264.42 226.45,-264.42 226.45,-264.42 226.45,-264.42 226.45,-230.42 226.45,-230.42"/>
<polygon fill="#c62828" stroke="#c62828" stroke-width="2" points="229.95,-230.42 226.45,-220.42 222.95,-230.42 229.95,-230.42"/>
</g>
<!-- agent3 -->
<g id="node3" class="node">
<title>agent3</title>
<path fill="#c62828" stroke="black" d="M96.25,-216.75C96.25,-216.75 20.25,-216.75 20.25,-216.75 14.25,-216.75 8.25,-210.75 8.25,-204.75 8.25,-204.75 8.25,-192.75 8.25,-192.75 8.25,-186.75 14.25,-180.75 20.25,-180.75 20.25,-180.75 96.25,-180.75 96.25,-180.75 102.25,-180.75 108.25,-186.75 108.25,-192.75 108.25,-192.75 108.25,-204.75 108.25,-204.75 108.25,-210.75 102.25,-216.75 96.25,-216.75"/>
<text xml:space="preserve" text-anchor="middle" x="58.25" y="-201.8" font-family="Arial" font-size="11.00" fill="white">Agent C</text>
<text xml:space="preserve" text-anchor="middle" x="58.25" y="-188.3" font-family="Arial" font-size="11.00" fill="white">Feature Branch 3</text>
</g>
<!-- agent3&#45;&gt;queue -->
<g id="edge3" class="edge">
<title>agent3&#45;&gt;queue</title>
<path fill="none" stroke="#c62828" stroke-width="2" d="M108.56,-204.75C108.56,-204.75 161.22,-204.75 161.22,-204.75"/>
<polygon fill="#c62828" stroke="#c62828" stroke-width="2" points="161.22,-208.25 171.22,-204.75 161.22,-201.25 161.22,-208.25"/>
</g>
<!-- agent4 -->
<g id="node4" class="node">
<title>agent4</title>
<path fill="#c62828" stroke="black" d="M96.25,-144.75C96.25,-144.75 20.25,-144.75 20.25,-144.75 14.25,-144.75 8.25,-138.75 8.25,-132.75 8.25,-132.75 8.25,-120.75 8.25,-120.75 8.25,-114.75 14.25,-108.75 20.25,-108.75 20.25,-108.75 96.25,-108.75 96.25,-108.75 102.25,-108.75 108.25,-114.75 108.25,-120.75 108.25,-120.75 108.25,-132.75 108.25,-132.75 108.25,-138.75 102.25,-144.75 96.25,-144.75"/>
<text xml:space="preserve" text-anchor="middle" x="58.25" y="-129.8" font-family="Arial" font-size="11.00" fill="white">Agent D</text>
<text xml:space="preserve" text-anchor="middle" x="58.25" y="-116.3" font-family="Arial" font-size="11.00" fill="white">Feature Branch 4</text>
</g>
<!-- agent4&#45;&gt;queue -->
<g id="edge4" class="edge">
<title>agent4&#45;&gt;queue</title>
<path fill="none" stroke="#c62828" stroke-width="2" d="M108.51,-126.75C166.05,-126.75 252.45,-126.75 252.45,-126.75 252.45,-126.75 252.45,-167.18 252.45,-167.18"/>
<polygon fill="#c62828" stroke="#c62828" stroke-width="2" points="248.95,-167.18 252.45,-177.18 255.95,-167.18 248.95,-167.18"/>
</g>
<!-- batch -->
<g id="node6" class="node">
<title>batch</title>
<path fill="#1565c0" stroke="black" d="M498.5,-216.75C498.5,-216.75 400.75,-216.75 400.75,-216.75 394.75,-216.75 388.75,-210.75 388.75,-204.75 388.75,-204.75 388.75,-192.75 388.75,-192.75 388.75,-186.75 394.75,-180.75 400.75,-180.75 400.75,-180.75 498.5,-180.75 498.5,-180.75 504.5,-180.75 510.5,-186.75 510.5,-192.75 510.5,-192.75 510.5,-204.75 510.5,-204.75 510.5,-210.75 504.5,-216.75 498.5,-216.75"/>
<text xml:space="preserve" text-anchor="middle" x="449.62" y="-201.8" font-family="Arial Bold" font-size="11.00" fill="white">Test Batch</text>
<text xml:space="preserve" text-anchor="middle" x="449.62" y="-188.3" font-family="Arial Bold" font-size="11.00" fill="white">All Merged Together</text>
</g>
<!-- queue&#45;&gt;batch -->
<g id="edge5" class="edge">
<title>queue&#45;&gt;batch</title>
<path fill="none" stroke="#ff6f00" stroke-width="2" d="M331.05,-198.75C331.05,-198.75 375.44,-198.75 375.44,-198.75"/>
<polygon fill="#ff6f00" stroke="#ff6f00" stroke-width="2" points="375.44,-202.25 385.44,-198.75 375.44,-195.25 375.44,-202.25"/>
<text xml:space="preserve" text-anchor="middle" x="367.87" y="-185.45" font-family="Times New Roman,serif" font-size="14.00">batch</text>
</g>
<!-- pass -->
<g id="node7" class="node">
<title>pass</title>
<polygon fill="#2e7d32" stroke="black" points="623.6,-216.75 568.5,-198.75 623.6,-180.75 678.7,-198.75 623.6,-216.75"/>
<text xml:space="preserve" text-anchor="middle" x="623.6" y="-195.05" font-family="Arial Bold" font-size="11.00" fill="white">CI Pass?</text>
</g>
<!-- batch&#45;&gt;pass -->
<g id="edge6" class="edge">
<title>batch&#45;&gt;pass</title>
<path fill="none" stroke="#1565c0" stroke-width="2" d="M510.96,-198.75C510.96,-198.75 554.15,-198.75 554.15,-198.75"/>
<polygon fill="#1565c0" stroke="#1565c0" stroke-width="2" points="554.15,-202.25 564.15,-198.75 554.15,-195.25 554.15,-202.25"/>
<text xml:space="preserve" text-anchor="middle" x="550.18" y="-185.45" font-family="Times New Roman,serif" font-size="14.00">run CI</text>
</g>
<!-- merge_all -->
<g id="node8" class="node">
<title>merge_all</title>
<path fill="#2e7d32" stroke="black" d="M808.2,-287.75C808.2,-287.75 766.7,-287.75 766.7,-287.75 760.7,-287.75 754.7,-281.75 754.7,-275.75 754.7,-275.75 754.7,-263.75 754.7,-263.75 754.7,-257.75 760.7,-251.75 766.7,-251.75 766.7,-251.75 808.2,-251.75 808.2,-251.75 814.2,-251.75 820.2,-257.75 820.2,-263.75 820.2,-263.75 820.2,-275.75 820.2,-275.75 820.2,-281.75 814.2,-287.75 808.2,-287.75"/>
<text xml:space="preserve" text-anchor="middle" x="787.45" y="-272.8" font-family="Arial Bold" font-size="11.00" fill="white">Merge All</text>
<text xml:space="preserve" text-anchor="middle" x="787.45" y="-259.3" font-family="Arial Bold" font-size="11.00" fill="white">to Main</text>
</g>
<!-- pass&#45;&gt;merge_all -->
<g id="edge7" class="edge">
<title>pass&#45;&gt;merge_all</title>
<path fill="none" stroke="#2e7d32" stroke-width="2.5" d="M623.45,-217.08C623.45,-239.95 623.45,-276.08 623.45,-276.08 623.45,-276.08 740.48,-276.08 740.48,-276.08"/>
<polygon fill="#2e7d32" stroke="#2e7d32" stroke-width="2.5" points="740.48,-279.58 750.48,-276.08 740.48,-272.58 740.48,-279.58"/>
<text xml:space="preserve" text-anchor="middle" x="639.71" y="-262.78" font-family="Times New Roman,serif" font-size="14.00">YES</text>
</g>
<!-- bisect -->
<g id="node9" class="node">
<title>bisect</title>
<path fill="#ad1457" stroke="black" d="M826.2,-215.75C826.2,-215.75 748.7,-215.75 748.7,-215.75 742.7,-215.75 736.7,-209.75 736.7,-203.75 736.7,-203.75 736.7,-191.75 736.7,-191.75 736.7,-185.75 742.7,-179.75 748.7,-179.75 748.7,-179.75 826.2,-179.75 826.2,-179.75 832.2,-179.75 838.2,-185.75 838.2,-191.75 838.2,-191.75 838.2,-203.75 838.2,-203.75 838.2,-209.75 832.2,-215.75 826.2,-215.75"/>
<text xml:space="preserve" text-anchor="middle" x="787.45" y="-200.8" font-family="Arial" font-size="11.00" fill="white">Bisect</text>
<text xml:space="preserve" text-anchor="middle" x="787.45" y="-187.3" font-family="Arial" font-size="11.00" fill="white">Split Batch in Half</text>
</g>
<!-- pass&#45;&gt;bisect -->
<g id="edge8" class="edge">
<title>pass&#45;&gt;bisect</title>
<path fill="none" stroke="#ad1457" stroke-width="2.5" d="M678.62,-198.25C678.62,-198.25 722.67,-198.25 722.67,-198.25"/>
<polygon fill="#ad1457" stroke="#ad1457" stroke-width="2.5" points="722.67,-201.75 732.67,-198.25 722.67,-194.75 722.67,-201.75"/>
<text xml:space="preserve" text-anchor="middle" x="690.89" y="-184.95" font-family="Times New Roman,serif" font-size="14.00">NO</text>
</g>
<!-- test_half -->
<g id="node10" class="node">
<title>test_half</title>
<path fill="#1565c0" stroke="black" d="M973.7,-233.75C973.7,-233.75 908.2,-233.75 908.2,-233.75 902.2,-233.75 896.2,-227.75 896.2,-221.75 896.2,-221.75 896.2,-209.75 896.2,-209.75 896.2,-203.75 902.2,-197.75 908.2,-197.75 908.2,-197.75 973.7,-197.75 973.7,-197.75 979.7,-197.75 985.7,-203.75 985.7,-209.75 985.7,-209.75 985.7,-221.75 985.7,-221.75 985.7,-227.75 979.7,-233.75 973.7,-233.75"/>
<text xml:space="preserve" text-anchor="middle" x="940.95" y="-218.8" font-family="Arial Bold" font-size="11.00" fill="white">Test Half</text>
<text xml:space="preserve" text-anchor="middle" x="940.95" y="-205.3" font-family="Arial Bold" font-size="11.00" fill="white">Isolate Failure</text>
</g>
<!-- bisect&#45;&gt;test_half -->
<g id="edge9" class="edge">
<title>bisect&#45;&gt;test_half</title>
<path fill="none" stroke="#ad1457" stroke-width="2" d="M838.56,-206.75C838.56,-206.75 882.7,-206.75 882.7,-206.75"/>
<polygon fill="#ad1457" stroke="#ad1457" stroke-width="2" points="882.7,-210.25 892.7,-206.75 882.7,-203.25 882.7,-210.25"/>
<text xml:space="preserve" text-anchor="middle" x="872.26" y="-193.45" font-family="Times New Roman,serif" font-size="14.00">split</text>
</g>
<!-- isolate -->
<g id="node11" class="node">
<title>isolate</title>
<path fill="#c62828" stroke="black" d="M1145.2,-269.75C1145.2,-269.75 1055.7,-269.75 1055.7,-269.75 1049.7,-269.75 1043.7,-263.75 1043.7,-257.75 1043.7,-257.75 1043.7,-245.75 1043.7,-245.75 1043.7,-239.75 1049.7,-233.75 1055.7,-233.75 1055.7,-233.75 1145.2,-233.75 1145.2,-233.75 1151.2,-233.75 1157.2,-239.75 1157.2,-245.75 1157.2,-245.75 1157.2,-257.75 1157.2,-257.75 1157.2,-263.75 1151.2,-269.75 1145.2,-269.75"/>
<text xml:space="preserve" text-anchor="middle" x="1100.45" y="-254.8" font-family="Arial" font-size="11.00" fill="white">Isolate</text>
<text xml:space="preserve" text-anchor="middle" x="1100.45" y="-241.3" font-family="Arial" font-size="11.00" fill="white">Problematic Commit</text>
</g>
<!-- test_half&#45;&gt;isolate -->
<g id="edge10" class="edge">
<title>test_half&#45;&gt;isolate</title>
<path fill="none" stroke="#1565c0" stroke-width="2" d="M940.45,-234.21C940.45,-238.95 940.45,-242.75 940.45,-242.75 940.45,-242.75 1030.56,-242.75 1030.56,-242.75"/>
<polygon fill="#1565c0" stroke="#1565c0" stroke-width="2" points="1030.56,-246.25 1040.56,-242.75 1030.56,-239.25 1030.56,-246.25"/>
<text xml:space="preserve" text-anchor="middle" x="965.48" y="-245.95" font-family="Times New Roman,serif" font-size="14.00">found</text>
</g>
<!-- reject -->
<g id="node12" class="node">
<title>reject</title>
<path fill="#ef6c00" stroke="black" d="M1290.45,-305.75C1290.45,-305.75 1227.2,-305.75 1227.2,-305.75 1221.2,-305.75 1215.2,-299.75 1215.2,-293.75 1215.2,-293.75 1215.2,-281.75 1215.2,-281.75 1215.2,-275.75 1221.2,-269.75 1227.2,-269.75 1227.2,-269.75 1290.45,-269.75 1290.45,-269.75 1296.45,-269.75 1302.45,-275.75 1302.45,-281.75 1302.45,-281.75 1302.45,-293.75 1302.45,-293.75 1302.45,-299.75 1296.45,-305.75 1290.45,-305.75"/>
<text xml:space="preserve" text-anchor="middle" x="1258.82" y="-290.8" font-family="Arial" font-size="11.00" fill="white">Reject + Notify</text>
<text xml:space="preserve" text-anchor="middle" x="1258.82" y="-277.3" font-family="Arial" font-size="11.00" fill="white">Agent Notified</text>
</g>
<!-- isolate&#45;&gt;reject -->
<g id="edge11" class="edge">
<title>isolate&#45;&gt;reject</title>
<path fill="none" stroke="#c62828" stroke-width="2" d="M1157.49,-251.75C1202.75,-251.75 1258.45,-251.75 1258.45,-251.75 1258.45,-251.75 1258.45,-256.3 1258.45,-256.3"/>
<polygon fill="#c62828" stroke="#c62828" stroke-width="2" points="1254.95,-256.3 1258.45,-266.3 1261.95,-256.3 1254.95,-256.3"/>
<text xml:space="preserve" text-anchor="middle" x="1189.25" y="-238.45" font-family="Times New Roman,serif" font-size="14.00">identify</text>
</g>
<!-- reject&#45;&gt;agent1 -->
<g id="edge12" class="edge">
<title>reject&#45;&gt;agent1</title>
<path fill="none" stroke="#ef6c00" stroke-width="1.5" stroke-dasharray="5,2" d="M1215.04,-297.25C999.15,-297.25 58.45,-297.25 58.45,-297.25 58.45,-297.25 58.45,-312.24 58.45,-312.24"/>
<polygon fill="#ef6c00" stroke="#ef6c00" stroke-width="1.5" points="54.95,-312.24 58.45,-322.24 61.95,-312.24 54.95,-312.24"/>
<text xml:space="preserve" text-anchor="middle" x="613.13" y="-283.95" font-family="Times New Roman,serif" font-size="14.00">notify</text>
</g>
<!-- scheduler -->
<g id="node13" class="node">
<title>scheduler</title>
<path fill="#6a1b9a" stroke="black" d="M104.5,-73C104.5,-73 12,-73 12,-73 6,-73 0,-67 0,-61 0,-61 0,-36.5 0,-36.5 0,-30.5 6,-24.5 12,-24.5 12,-24.5 104.5,-24.5 104.5,-24.5 110.5,-24.5 116.5,-30.5 116.5,-36.5 116.5,-36.5 116.5,-61 116.5,-61 116.5,-67 110.5,-73 104.5,-73"/>
<text xml:space="preserve" text-anchor="middle" x="58.25" y="-58.55" font-family="Arial" font-size="11.00" fill="white">Scheduler</text>
<text xml:space="preserve" text-anchor="middle" x="58.25" y="-45.05" font-family="Arial" font-size="11.00" fill="white">Capacity Governor</text>
<text xml:space="preserve" text-anchor="middle" x="58.25" y="-31.55" font-family="Arial" font-size="11.00" fill="white">Rate Limit Protection</text>
</g>
<!-- scheduler&#45;&gt;queue -->
<g id="edge13" class="edge">
<title>scheduler&#45;&gt;queue</title>
<path fill="none" stroke="#6a1b9a" stroke-width="1.5" stroke-dasharray="5,2" d="M112.45,-73.18C112.45,-114.26 112.45,-192.75 112.45,-192.75 112.45,-192.75 162.07,-192.75 162.07,-192.75"/>
<polygon fill="#6a1b9a" stroke="#6a1b9a" stroke-width="1.5" points="162.07,-196.25 172.07,-192.75 162.07,-189.25 162.07,-196.25"/>
<text xml:space="preserve" text-anchor="middle" x="131.95" y="-144.47" font-family="Times New Roman,serif" font-size="14.00">throttle</text>
</g>
</g>
</svg>
