<?xml version="1.0" encoding="UTF-8" standalone="no"?>
<!DOCTYPE svg PUBLIC "-//W3C//DTD SVG 1.1//EN"
 "http://www.w3.org/Graphics/SVG/1.1/DTD/svg11.dtd">
<!-- Generated by graphviz version 14.1.3 (0)
 -->
<!-- Title: gastown_monitor Pages: 1 -->
<svg width="744pt" height="578pt"
 viewBox="0.00 0.00 744.00 578.00" xmlns="http://www.w3.org/2000/svg" xmlns:xlink="http://www.w3.org/1999/xlink">
<style>
<!-- White text halo for edge label readability -->
text { paint-order: stroke; stroke: #ffffff; stroke-width: 3px; stroke-linejoin: round; fill: #1a1a2e; }
</style>
<g id="graph0" class="graph" transform="scale(1 1) rotate(0) translate(4 574.25)">
<title>gastown_monitor</title>
<polygon fill="white" stroke="none" points="-4,4 -4,-574.25 739.62,-574.25 739.62,4 -4,4"/>
<text xml:space="preserve" text-anchor="middle" x="367.81" y="-7.2" font-family="Times New Roman,serif" font-size="14.00">Gas Town &#45; 3&#45;Tier Watchdog Monitoring System</text>
<!-- deacon -->
<g id="node1" class="node">
<title>deacon</title>
<path fill="#1565c0" stroke="black" d="M453.25,-570.25C453.25,-570.25 315,-570.25 315,-570.25 309,-570.25 303,-564.25 303,-558.25 303,-558.25 303,-531.5 303,-531.5 303,-525.5 309,-519.5 315,-519.5 315,-519.5 453.25,-519.5 453.25,-519.5 459.25,-519.5 465.25,-525.5 465.25,-531.5 465.25,-531.5 465.25,-558.25 465.25,-558.25 465.25,-564.25 459.25,-570.25 453.25,-570.25"/>
<text xml:space="preserve" text-anchor="middle" x="384.12" y="-554.85" font-family="Arial Bold" font-size="12.00" fill="white">Deacon</text>
<text xml:space="preserve" text-anchor="middle" x="384.12" y="-540.6" font-family="Arial Bold" font-size="12.00" fill="white">Background Supervisor</text>
<text xml:space="preserve" text-anchor="middle" x="384.12" y="-526.35" font-family="Arial Bold" font-size="12.00" fill="white">Continuous Patrol Cycles</text>
</g>
<!-- rig1 -->
<g id="node2" class="node">
<title>rig1</title>
<path fill="#2e7d32" stroke="black" d="M180.12,-461.5C180.12,-461.5 150.12,-461.5 150.12,-461.5 144.12,-461.5 138.12,-455.5 138.12,-449.5 138.12,-449.5 138.12,-437.5 138.12,-437.5 138.12,-431.5 144.12,-425.5 150.12,-425.5 150.12,-425.5 180.12,-425.5 180.12,-425.5 186.12,-425.5 192.12,-431.5 192.12,-437.5 192.12,-437.5 192.12,-449.5 192.12,-449.5 192.12,-455.5 186.12,-461.5 180.12,-461.5"/>
<text xml:space="preserve" text-anchor="middle" x="165.12" y="-439.8" font-family="Arial Bold" font-size="11.00" fill="white">Rig 1</text>
</g>
<!-- deacon&#45;&gt;rig1 -->
<g id="edge1" class="edge">
<title>deacon&#45;&gt;rig1</title>
<path fill="none" stroke="#1565c0" stroke-width="2" d="M302.58,-544.5C240.31,-544.5 165.12,-544.5 165.12,-544.5 165.12,-544.5 165.12,-474.58 165.12,-474.58"/>
<polygon fill="#1565c0" stroke="#1565c0" stroke-width="2" points="168.63,-474.58 165.13,-464.58 161.63,-474.58 168.63,-474.58"/>
<text xml:space="preserve" text-anchor="middle" x="180.52" y="-547.7" font-family="Times New Roman,serif" font-size="14.00">patrols</text>
</g>
<!-- rig2 -->
<g id="node3" class="node">
<title>rig2</title>
<path fill="#2e7d32" stroke="black" d="M309.12,-461.5C309.12,-461.5 279.12,-461.5 279.12,-461.5 273.12,-461.5 267.12,-455.5 267.12,-449.5 267.12,-449.5 267.12,-437.5 267.12,-437.5 267.12,-431.5 273.12,-425.5 279.12,-425.5 279.12,-425.5 309.12,-425.5 309.12,-425.5 315.12,-425.5 321.12,-431.5 321.12,-437.5 321.12,-437.5 321.12,-449.5 321.12,-449.5 321.12,-455.5 315.12,-461.5 309.12,-461.5"/>
<text xml:space="preserve" text-anchor="middle" x="294.12" y="-439.8" font-family="Arial Bold" font-size="11.00" fill="white">Rig 2</text>
</g>
<!-- deacon&#45;&gt;rig2 -->
<g id="edge2" class="edge">
<title>deacon&#45;&gt;rig2</title>
<path fill="none" stroke="#1565c0" stroke-width="2" d="M312.06,-519.03C312.06,-519.03 312.06,-474.97 312.06,-474.97"/>
<polygon fill="#1565c0" stroke="#1565c0" stroke-width="2" points="315.56,-474.97 312.06,-464.97 308.56,-474.97 315.56,-474.97"/>
</g>
<!-- rigN -->
<g id="node4" class="node">
<title>rigN</title>
<path fill="#2e7d32" stroke="black" d="M399.12,-461.5C399.12,-461.5 369.12,-461.5 369.12,-461.5 363.12,-461.5 357.12,-455.5 357.12,-449.5 357.12,-449.5 357.12,-437.5 357.12,-437.5 357.12,-431.5 363.12,-425.5 369.12,-425.5 369.12,-425.5 399.12,-425.5 399.12,-425.5 405.12,-425.5 411.12,-431.5 411.12,-437.5 411.12,-437.5 411.12,-449.5 411.12,-449.5 411.12,-455.5 405.12,-461.5 399.12,-461.5"/>
<text xml:space="preserve" text-anchor="middle" x="384.12" y="-439.8" font-family="Arial Bold" font-size="11.00" fill="white">Rig N</text>
</g>
<!-- deacon&#45;&gt;rigN -->
<g id="edge3" class="edge">
<title>deacon&#45;&gt;rigN</title>
<path fill="none" stroke="#1565c0" stroke-width="2" d="M384.12,-519.03C384.12,-519.03 384.12,-474.97 384.12,-474.97"/>
<polygon fill="#1565c0" stroke="#1565c0" stroke-width="2" points="387.63,-474.97 384.13,-464.97 380.63,-474.97 387.63,-474.97"/>
</g>
<!-- feed -->
<g id="node12" class="node">
<title>feed</title>
<path fill="#6a1b9a" stroke="black" d="M566.88,-461.5C566.88,-461.5 459.38,-461.5 459.38,-461.5 453.38,-461.5 447.38,-455.5 447.38,-449.5 447.38,-449.5 447.38,-437.5 447.38,-437.5 447.38,-431.5 453.38,-425.5 459.38,-425.5 459.38,-425.5 566.88,-425.5 566.88,-425.5 572.88,-425.5 578.88,-431.5 578.88,-437.5 578.88,-437.5 578.88,-449.5 578.88,-449.5 578.88,-455.5 572.88,-461.5 566.88,-461.5"/>
<text xml:space="preserve" text-anchor="middle" x="513.12" y="-446.55" font-family="Arial" font-size="11.00" fill="white">Activity Feed TUI</text>
<text xml:space="preserve" text-anchor="middle" x="513.12" y="-433.05" font-family="Arial" font-size="11.00" fill="white">gt feed &#45; Problems View</text>
</g>
<!-- deacon&#45;&gt;feed -->
<g id="edge12" class="edge">
<title>deacon&#45;&gt;feed</title>
<path fill="none" stroke="#1565c0" stroke-width="2" d="M456.31,-519.03C456.31,-519.03 456.31,-474.97 456.31,-474.97"/>
<polygon fill="#1565c0" stroke="#1565c0" stroke-width="2" points="459.81,-474.97 456.31,-464.97 452.81,-474.97 459.81,-474.97"/>
<text xml:space="preserve" text-anchor="middle" x="437.56" y="-500.2" font-family="Times New Roman,serif" font-size="14.00">reports</text>
</g>
<!-- otel -->
<g id="node13" class="node">
<title>otel</title>
<path fill="#ef6c00" stroke="black" d="M723.62,-461.5C723.62,-461.5 626.62,-461.5 626.62,-461.5 620.62,-461.5 614.62,-455.5 614.62,-449.5 614.62,-449.5 614.62,-437.5 614.62,-437.5 614.62,-431.5 620.62,-425.5 626.62,-425.5 626.62,-425.5 723.62,-425.5 723.62,-425.5 729.62,-425.5 735.62,-431.5 735.62,-437.5 735.62,-437.5 735.62,-449.5 735.62,-449.5 735.62,-455.5 729.62,-461.5 723.62,-461.5"/>
<text xml:space="preserve" text-anchor="middle" x="675.12" y="-446.55" font-family="Arial" font-size="11.00" fill="white">OpenTelemetry</text>
<text xml:space="preserve" text-anchor="middle" x="675.12" y="-433.05" font-family="Arial" font-size="11.00" fill="white">Metrics + Logs Export</text>
</g>
<!-- deacon&#45;&gt;otel -->
<g id="edge13" class="edge">
<title>deacon&#45;&gt;otel</title>
<path fill="none" stroke="#1565c0" stroke-width="2" d="M465.57,-544.5C551.66,-544.5 675.12,-544.5 675.12,-544.5 675.12,-544.5 675.12,-474.58 675.12,-474.58"/>
<polygon fill="#1565c0" stroke="#1565c0" stroke-width="2" points="678.63,-474.58 675.13,-464.58 671.63,-474.58 678.63,-474.58"/>
<text xml:space="preserve" text-anchor="middle" x="585.43" y="-547.7" font-family="Times New Roman,serif" font-size="14.00">exports</text>
</g>
<!-- witness1 -->
<g id="node5" class="node">
<title>witness1</title>
<path fill="#ad1457" stroke="black" d="M179.88,-367.5C179.88,-367.5 72.38,-367.5 72.38,-367.5 66.38,-367.5 60.38,-361.5 60.38,-355.5 60.38,-355.5 60.38,-331 60.38,-331 60.38,-325 66.38,-319 72.38,-319 72.38,-319 179.88,-319 179.88,-319 185.88,-319 191.88,-325 191.88,-331 191.88,-331 191.88,-355.5 191.88,-355.5 191.88,-361.5 185.88,-367.5 179.88,-367.5"/>
<text xml:space="preserve" text-anchor="middle" x="126.12" y="-353.05" font-family="Arial" font-size="11.00" fill="white">Witness</text>
<text xml:space="preserve" text-anchor="middle" x="126.12" y="-339.55" font-family="Arial" font-size="11.00" fill="white">Rig 1 Lifecycle Manager</text>
<text xml:space="preserve" text-anchor="middle" x="126.12" y="-326.05" font-family="Arial" font-size="11.00" fill="white">Detects Stuck Agents</text>
</g>
<!-- rig1&#45;&gt;witness1 -->
<g id="edge4" class="edge">
<title>rig1&#45;&gt;witness1</title>
<path fill="none" stroke="#2e7d32" stroke-width="2" d="M165,-425.11C165,-425.11 165,-380.97 165,-380.97"/>
<polygon fill="#2e7d32" stroke="#2e7d32" stroke-width="2" points="168.5,-380.97 165,-370.97 161.5,-380.97 168.5,-380.97"/>
</g>
<!-- witness2 -->
<g id="node6" class="node">
<title>witness2</title>
<path fill="#ad1457" stroke="black" d="M347.88,-361.25C347.88,-361.25 240.38,-361.25 240.38,-361.25 234.38,-361.25 228.38,-355.25 228.38,-349.25 228.38,-349.25 228.38,-337.25 228.38,-337.25 228.38,-331.25 234.38,-325.25 240.38,-325.25 240.38,-325.25 347.88,-325.25 347.88,-325.25 353.88,-325.25 359.88,-331.25 359.88,-337.25 359.88,-337.25 359.88,-349.25 359.88,-349.25 359.88,-355.25 353.88,-361.25 347.88,-361.25"/>
<text xml:space="preserve" text-anchor="middle" x="294.12" y="-346.3" font-family="Arial" font-size="11.00" fill="white">Witness</text>
<text xml:space="preserve" text-anchor="middle" x="294.12" y="-332.8" font-family="Arial" font-size="11.00" fill="white">Rig 2 Lifecycle Manager</text>
</g>
<!-- rig2&#45;&gt;witness2 -->
<g id="edge5" class="edge">
<title>rig2&#45;&gt;witness2</title>
<path fill="none" stroke="#2e7d32" stroke-width="2" d="M294.12,-425.11C294.12,-425.11 294.12,-374.55 294.12,-374.55"/>
<polygon fill="#2e7d32" stroke="#2e7d32" stroke-width="2" points="297.63,-374.55 294.13,-364.55 290.63,-374.55 297.63,-374.55"/>
</g>
<!-- witnessN -->
<g id="node7" class="node">
<title>witnessN</title>
<path fill="#ad1457" stroke="black" d="M518,-361.25C518,-361.25 408.25,-361.25 408.25,-361.25 402.25,-361.25 396.25,-355.25 396.25,-349.25 396.25,-349.25 396.25,-337.25 396.25,-337.25 396.25,-331.25 402.25,-325.25 408.25,-325.25 408.25,-325.25 518,-325.25 518,-325.25 524,-325.25 530,-331.25 530,-337.25 530,-337.25 530,-349.25 530,-349.25 530,-355.25 524,-361.25 518,-361.25"/>
<text xml:space="preserve" text-anchor="middle" x="463.12" y="-346.3" font-family="Arial" font-size="11.00" fill="white">Witness</text>
<text xml:space="preserve" text-anchor="middle" x="463.12" y="-332.8" font-family="Arial" font-size="11.00" fill="white">Rig N Lifecycle Manager</text>
</g>
<!-- rigN&#45;&gt;witnessN -->
<g id="edge6" class="edge">
<title>rigN&#45;&gt;witnessN</title>
<path fill="none" stroke="#2e7d32" stroke-width="2" d="M403.69,-425.11C403.69,-425.11 403.69,-374.55 403.69,-374.55"/>
<polygon fill="#2e7d32" stroke="#2e7d32" stroke-width="2" points="407.19,-374.55 403.69,-364.55 400.19,-374.55 407.19,-374.55"/>
</g>
<!-- polecat_stuck -->
<g id="node8" class="node">
<title>polecat_stuck</title>
<path fill="#c62828" stroke="black" d="M128.5,-60.5C128.5,-60.5 27.75,-60.5 27.75,-60.5 21.75,-60.5 15.75,-54.5 15.75,-48.5 15.75,-48.5 15.75,-36.5 15.75,-36.5 15.75,-30.5 21.75,-24.5 27.75,-24.5 27.75,-24.5 128.5,-24.5 128.5,-24.5 134.5,-24.5 140.5,-30.5 140.5,-36.5 140.5,-36.5 140.5,-48.5 140.5,-48.5 140.5,-54.5 134.5,-60.5 128.5,-60.5"/>
<text xml:space="preserve" text-anchor="middle" x="78.12" y="-45.55" font-family="Arial" font-size="11.00" fill="white">Polecat</text>
<text xml:space="preserve" text-anchor="middle" x="78.12" y="-32.05" font-family="Arial" font-size="11.00" fill="white">STUCK &#45; No Progress</text>
</g>
<!-- witness1&#45;&gt;polecat_stuck -->
<g id="edge7" class="edge">
<title>witness1&#45;&gt;polecat_stuck</title>
<path fill="none" stroke="#c62828" stroke-width="2.5" d="M69.75,-318.64C69.75,-318.64 69.75,-74.49 69.75,-74.49"/>
<polygon fill="#c62828" stroke="#c62828" stroke-width="2.5" points="73.25,-74.49 69.75,-64.49 66.25,-74.49 73.25,-74.49"/>
<text xml:space="preserve" text-anchor="middle" x="34.88" y="-199.76" font-family="Times New Roman,serif" font-size="14.00">detects stuck</text>
</g>
<!-- polecat_ok -->
<g id="node9" class="node">
<title>polecat_ok</title>
<path fill="#2e7d32" stroke="black" d="M161.12,-254.75C161.12,-254.75 91.12,-254.75 91.12,-254.75 85.12,-254.75 79.12,-248.75 79.12,-242.75 79.12,-242.75 79.12,-230.75 79.12,-230.75 79.12,-224.75 85.12,-218.75 91.12,-218.75 91.12,-218.75 161.12,-218.75 161.12,-218.75 167.12,-218.75 173.12,-224.75 173.12,-230.75 173.12,-230.75 173.12,-242.75 173.12,-242.75 173.12,-248.75 167.12,-254.75 161.12,-254.75"/>
<text xml:space="preserve" text-anchor="middle" x="126.12" y="-239.25" font-family="Arial" font-size="10.00" fill="white">Polecat</text>
<text xml:space="preserve" text-anchor="middle" x="126.12" y="-227.25" font-family="Arial" font-size="10.00" fill="white">Healthy &#45; Working</text>
</g>
<!-- witness1&#45;&gt;polecat_ok -->
<g id="edge8" class="edge">
<title>witness1&#45;&gt;polecat_ok</title>
<path fill="none" stroke="#ad1457" stroke-width="2" d="M126.12,-318.55C126.12,-318.55 126.12,-268.02 126.12,-268.02"/>
<polygon fill="#ad1457" stroke="#ad1457" stroke-width="2" points="129.63,-268.02 126.13,-258.02 122.63,-268.02 129.63,-268.02"/>
<text xml:space="preserve" text-anchor="middle" x="106.25" y="-296.49" font-family="Times New Roman,serif" font-size="14.00">healthy</text>
</g>
<!-- dogs -->
<g id="node10" class="node">
<title>dogs</title>
<path fill="#ff6f00" stroke="black" d="M337,-261C337,-261 221.25,-261 221.25,-261 215.25,-261 209.25,-255 209.25,-249 209.25,-249 209.25,-224.5 209.25,-224.5 209.25,-218.5 215.25,-212.5 221.25,-212.5 221.25,-212.5 337,-212.5 337,-212.5 343,-212.5 349,-218.5 349,-224.5 349,-224.5 349,-249 349,-249 349,-255 343,-261 337,-261"/>
<text xml:space="preserve" text-anchor="middle" x="279.12" y="-246.55" font-family="Arial" font-size="11.00" fill="white">Dogs</text>
<text xml:space="preserve" text-anchor="middle" x="279.12" y="-233.05" font-family="Arial" font-size="11.00" fill="white">Infrastructure Workers</text>
<text xml:space="preserve" text-anchor="middle" x="279.12" y="-219.55" font-family="Arial" font-size="11.00" fill="white">Cleanup + Health Checks</text>
</g>
<!-- witness1&#45;&gt;dogs -->
<g id="edge9" class="edge">
<title>witness1&#45;&gt;dogs</title>
<path fill="none" stroke="#ad1457" stroke-width="2" d="M192,-343.5C207.1,-343.5 218.81,-343.5 218.81,-343.5 218.81,-343.5 218.81,-274.27 218.81,-274.27"/>
<polygon fill="#ad1457" stroke="#ad1457" stroke-width="2" points="222.31,-274.27 218.81,-264.27 215.31,-274.27 222.31,-274.27"/>
<text xml:space="preserve" text-anchor="middle" x="246.94" y="-308.99" font-family="Times New Roman,serif" font-size="14.00">dispatches</text>
</g>
<!-- recovery -->
<g id="node11" class="node">
<title>recovery</title>
<path fill="#00838f" stroke="black" d="M245.75,-154.5C245.75,-154.5 164.5,-154.5 164.5,-154.5 158.5,-154.5 152.5,-148.5 152.5,-142.5 152.5,-142.5 152.5,-130.5 152.5,-130.5 152.5,-124.5 158.5,-118.5 164.5,-118.5 164.5,-118.5 245.75,-118.5 245.75,-118.5 251.75,-118.5 257.75,-124.5 257.75,-130.5 257.75,-130.5 257.75,-142.5 257.75,-142.5 257.75,-148.5 251.75,-154.5 245.75,-154.5"/>
<text xml:space="preserve" text-anchor="middle" x="205.12" y="-139.55" font-family="Arial" font-size="11.00" fill="white">Recovery Action</text>
<text xml:space="preserve" text-anchor="middle" x="205.12" y="-126.05" font-family="Arial" font-size="11.00" fill="white">Restart / Reassign</text>
</g>
<!-- dogs&#45;&gt;recovery -->
<g id="edge10" class="edge">
<title>dogs&#45;&gt;recovery</title>
<path fill="none" stroke="#ff6f00" stroke-width="2" d="M233.5,-212.23C233.5,-212.23 233.5,-167.82 233.5,-167.82"/>
<polygon fill="#ff6f00" stroke="#ff6f00" stroke-width="2" points="237,-167.82 233.5,-157.82 230,-167.82 237,-167.82"/>
<text xml:space="preserve" text-anchor="middle" x="212.5" y="-193.23" font-family="Times New Roman,serif" font-size="14.00">cleanup</text>
</g>
<!-- recovery&#45;&gt;polecat_stuck -->
<g id="edge11" class="edge">
<title>recovery&#45;&gt;polecat_stuck</title>
<path fill="none" stroke="#00838f" stroke-width="2" stroke-dasharray="5,2" d="M152.17,-136.5C130.23,-136.5 109.81,-136.5 109.81,-136.5 109.81,-136.5 109.81,-73.65 109.81,-73.65"/>
<polygon fill="#00838f" stroke="#00838f" stroke-width="2" points="113.31,-73.65 109.81,-63.65 106.31,-73.65 113.31,-73.65"/>
<text xml:space="preserve" text-anchor="middle" x="92.94" y="-129.46" font-family="Times New Roman,serif" font-size="14.00">restart</text>
</g>
</g>
</svg>
