<?xml version="1.0" encoding="UTF-8" standalone="no"?>
<!DOCTYPE svg PUBLIC "-//W3C//DTD SVG 1.1//EN"
 "http://www.w3.org/Graphics/SVG/1.1/DTD/svg11.dtd">
<!-- Generated by graphviz version 14.1.2 (0)
 -->
<!-- Title: freellmapi_security_flow Pages: 1 -->
<svg width="511pt" height="963pt"
 viewBox="0.00 0.00 511.00 963.00" xmlns="http://www.w3.org/2000/svg" xmlns:xlink="http://www.w3.org/1999/xlink">
<style>
<!-- White text halo for edge label readability -->
text { paint-order: stroke; stroke: #ffffff; stroke-width: 3px; stroke-linejoin: round; fill: #1a1a2e; }
</style>
<g id="graph0" class="graph" transform="scale(1 1) rotate(0) translate(4 958.5)">
<title>freellmapi_security_flow</title>
<polygon fill="white" stroke="none" points="-4,4 -4,-958.5 507,-958.5 507,4 -4,4"/>
<!-- inp -->
<g id="node1" class="node">
<title>inp</title>
<path fill="#2196f3" stroke="black" d="M235.38,-954.5C235.38,-954.5 133.88,-954.5 133.88,-954.5 127.88,-954.5 121.88,-948.5 121.88,-942.5 121.88,-942.5 121.88,-930 121.88,-930 121.88,-924 127.88,-918 133.88,-918 133.88,-918 235.38,-918 235.38,-918 241.38,-918 247.38,-924 247.38,-930 247.38,-930 247.38,-942.5 247.38,-942.5 247.38,-948.5 241.38,-954.5 235.38,-954.5"/>
<text xml:space="preserve" text-anchor="middle" x="184.62" y="-939.1" font-family="Arial Bold" font-size="12.00" fill="white">Incoming Request</text>
<text xml:space="preserve" text-anchor="middle" x="184.62" y="-924.85" font-family="Arial Bold" font-size="12.00" fill="white">Bearer freellmapi&#45;...</text>
</g>
<!-- ak -->
<g id="node2" class="node">
<title>ak</title>
<path fill="#ff9800" stroke="black" d="M220.75,-860C220.75,-860 148.5,-860 148.5,-860 142.5,-860 136.5,-854 136.5,-848 136.5,-848 136.5,-836 136.5,-836 136.5,-830 142.5,-824 148.5,-824 148.5,-824 220.75,-824 220.75,-824 226.75,-824 232.75,-830 232.75,-836 232.75,-836 232.75,-848 232.75,-848 232.75,-854 226.75,-860 220.75,-860"/>
<text xml:space="preserve" text-anchor="middle" x="184.62" y="-844.5" font-family="Arial" font-size="10.00" fill="white">API Key Lookup</text>
<text xml:space="preserve" text-anchor="middle" x="184.62" y="-832.5" font-family="Arial" font-size="10.00" fill="white">by key&#45;prefix hash</text>
</g>
<!-- inp&#45;&gt;ak -->
<g id="edge1" class="edge">
<title>inp&#45;&gt;ak</title>
<path fill="none" stroke="#4caf50" stroke-width="2" d="M184.62,-917.63C184.62,-917.63 184.62,-873.29 184.62,-873.29"/>
<polygon fill="#4caf50" stroke="#4caf50" stroke-width="2" points="188.13,-873.29 184.63,-863.29 181.13,-873.29 188.13,-873.29"/>
</g>
<!-- authnm -->
<g id="node3" class="node">
<title>authnm</title>
<path fill="#9c27b0" stroke="black" d="M232.38,-766C232.38,-766 136.88,-766 136.88,-766 130.88,-766 124.88,-760 124.88,-754 124.88,-754 124.88,-742 124.88,-742 124.88,-736 130.88,-730 136.88,-730 136.88,-730 232.38,-730 232.38,-730 238.38,-730 244.38,-736 244.38,-742 244.38,-742 244.38,-754 244.38,-754 244.38,-760 238.38,-766 232.38,-766"/>
<text xml:space="preserve" text-anchor="middle" x="184.62" y="-751.05" font-family="Arial" font-size="11.00" fill="white">HMAC&#45;SHA256</text>
<text xml:space="preserve" text-anchor="middle" x="184.62" y="-737.55" font-family="Arial" font-size="11.00" fill="white">Verify token signature</text>
</g>
<!-- ak&#45;&gt;authnm -->
<g id="edge2" class="edge">
<title>ak&#45;&gt;authnm</title>
<path fill="none" stroke="#9c27b0" stroke-width="2" d="M184.62,-823.88C184.62,-823.88 184.62,-779.42 184.62,-779.42"/>
<polygon fill="#9c27b0" stroke="#9c27b0" stroke-width="2" points="188.13,-779.42 184.63,-769.42 181.13,-779.42 188.13,-779.42"/>
</g>
<!-- admm -->
<g id="node4" class="node">
<title>admm</title>
<polygon fill="#ff9800" stroke="black" points="184.62,-672 130.38,-640 184.62,-608 238.88,-640 184.62,-672"/>
<text xml:space="preserve" text-anchor="middle" x="184.62" y="-642.5" font-family="Arial Bold" font-size="10.00" fill="white">Key still</text>
<text xml:space="preserve" text-anchor="middle" x="184.62" y="-630.5" font-family="Arial Bold" font-size="10.00" fill="white">valid?</text>
</g>
<!-- authnm&#45;&gt;admm -->
<g id="edge3" class="edge">
<title>authnm&#45;&gt;admm</title>
<path fill="none" stroke="#9c27b0" stroke-width="2" d="M184.62,-729.68C184.62,-729.68 184.62,-685.44 184.62,-685.44"/>
<polygon fill="#9c27b0" stroke="#9c27b0" stroke-width="2" points="188.13,-685.44 184.63,-675.44 181.13,-685.44 188.13,-685.44"/>
</g>
<!-- rejj -->
<g id="node5" class="node">
<title>rejj</title>
<path fill="#f44336" stroke="black" d="M117.25,-546C117.25,-546 12,-546 12,-546 6,-546 0,-540 0,-534 0,-534 0,-522 0,-522 0,-516 6,-510 12,-510 12,-510 117.25,-510 117.25,-510 123.25,-510 129.25,-516 129.25,-522 129.25,-522 129.25,-534 129.25,-534 129.25,-540 123.25,-546 117.25,-546"/>
<text xml:space="preserve" text-anchor="middle" x="64.62" y="-531.05" font-family="Arial" font-size="11.00" fill="white">403 / 401</text>
<text xml:space="preserve" text-anchor="middle" x="64.62" y="-517.55" font-family="Arial" font-size="11.00" fill="white">Revoked or expired key</text>
</g>
<!-- admm&#45;&gt;rejj -->
<g id="edge4" class="edge">
<title>admm&#45;&gt;rejj</title>
<path fill="none" stroke="#f44336" stroke-width="2" d="M149.38,-628.25C149.38,-600.65 149.38,-534 149.38,-534 149.38,-534 142.75,-534 142.75,-534"/>
<polygon fill="#f44336" stroke="#f44336" stroke-width="2" points="142.75,-530.5 132.75,-534 142.75,-537.5 142.75,-530.5"/>
<text xml:space="preserve" text-anchor="middle" x="141.12" y="-581.01" font-family="Times New Roman,serif" font-size="14.00" fill="#f44336">No</text>
</g>
<!-- decc -->
<g id="node6" class="node">
<title>decc</title>
<path fill="#9c27b0" stroke="black" d="M295.75,-448C295.75,-448 181.5,-448 181.5,-448 175.5,-448 169.5,-442 169.5,-436 169.5,-436 169.5,-424 169.5,-424 169.5,-418 175.5,-412 181.5,-412 181.5,-412 295.75,-412 295.75,-412 301.75,-412 307.75,-418 307.75,-424 307.75,-424 307.75,-436 307.75,-436 307.75,-442 301.75,-448 295.75,-448"/>
<text xml:space="preserve" text-anchor="middle" x="238.62" y="-433.05" font-family="Arial" font-size="11.00" fill="white">AES&#45;256&#45;GCM Decrypt</text>
<text xml:space="preserve" text-anchor="middle" x="238.62" y="-419.55" font-family="Arial" font-size="11.00" fill="white">per&#45;user provider API key</text>
</g>
<!-- admm&#45;&gt;decc -->
<g id="edge6" class="edge">
<title>admm&#45;&gt;decc</title>
<path fill="none" stroke="#9c27b0" stroke-width="2" d="M192.62,-612.55C192.62,-612.55 192.62,-461.51 192.62,-461.51"/>
<polygon fill="#9c27b0" stroke="#9c27b0" stroke-width="2" points="196.13,-461.51 192.63,-451.51 189.13,-461.51 196.13,-461.51"/>
<text xml:space="preserve" text-anchor="middle" x="182.5" y="-540.23" font-family="Times New Roman,serif" font-size="14.00" fill="#4caf50">Yes</text>
</g>
<!-- enckv -->
<g id="node7" class="node">
<title>enckv</title>
<path fill="#6a1b9a" stroke="black" d="M346,-546C346,-548.21 322.08,-550 292.62,-550 263.17,-550 239.25,-548.21 239.25,-546 239.25,-546 239.25,-510 239.25,-510 239.25,-507.79 263.17,-506 292.62,-506 322.08,-506 346,-507.79 346,-510 346,-510 346,-546 346,-546"/>
<path fill="none" stroke="black" d="M346,-546C346,-543.79 322.08,-542 292.62,-542 263.17,-542 239.25,-543.79 239.25,-546"/>
<text xml:space="preserve" text-anchor="middle" x="292.62" y="-530.5" font-family="Arial" font-size="10.00" fill="white">Encrypted KV Store</text>
<text xml:space="preserve" text-anchor="middle" x="292.62" y="-518.5" font-family="Arial" font-size="10.00" fill="white">Provider keys at rest</text>
</g>
<!-- admm&#45;&gt;enckv -->
<g id="edge5" class="edge">
<title>admm&#45;&gt;enckv</title>
<path fill="none" stroke="#6a1b9a" stroke-width="1.5" d="M215.75,-626C215.75,-594.74 215.75,-522 215.75,-522 215.75,-522 226.54,-522 226.54,-522"/>
<polygon fill="#6a1b9a" stroke="#6a1b9a" stroke-width="1.5" points="226.54,-525.5 236.54,-522 226.54,-518.5 226.54,-525.5"/>
<text xml:space="preserve" text-anchor="middle" x="188" y="-571.8" font-family="Times New Roman,serif" font-size="14.00" fill="#6a1b9a">Read only</text>
</g>
<!-- rlm -->
<g id="node8" class="node">
<title>rlm</title>
<path fill="#ce93d8" stroke="black" d="M296.88,-354C296.88,-354 180.38,-354 180.38,-354 174.38,-354 168.38,-348 168.38,-342 168.38,-342 168.38,-330 168.38,-330 168.38,-324 174.38,-318 180.38,-318 180.38,-318 296.88,-318 296.88,-318 302.88,-318 308.88,-324 308.88,-330 308.88,-330 308.88,-342 308.88,-342 308.88,-348 302.88,-354 296.88,-354"/>
<text xml:space="preserve" text-anchor="middle" x="238.62" y="-338.5" font-family="Arial" font-size="10.00">Quota Enforcement</text>
<text xml:space="preserve" text-anchor="middle" x="238.62" y="-326.5" font-family="Arial" font-size="10.00">RPM / TPM per&#45;key buckets</text>
</g>
<!-- decc&#45;&gt;rlm -->
<g id="edge8" class="edge">
<title>decc&#45;&gt;rlm</title>
<path fill="none" stroke="#2196f3" stroke-width="2" d="M238.62,-411.88C238.62,-411.88 238.62,-367.42 238.62,-367.42"/>
<polygon fill="#2196f3" stroke="#2196f3" stroke-width="2" points="242.13,-367.42 238.63,-357.42 235.13,-367.42 242.13,-367.42"/>
</g>
<!-- enckv&#45;&gt;decc -->
<g id="edge7" class="edge">
<title>enckv&#45;&gt;decc</title>
<path fill="none" stroke="#6a1b9a" stroke-width="2" d="M273.5,-505.76C273.5,-505.76 273.5,-461.24 273.5,-461.24"/>
<polygon fill="#6a1b9a" stroke="#6a1b9a" stroke-width="2" points="277,-461.24 273.5,-451.24 270,-461.24 277,-461.24"/>
</g>
<!-- qkok -->
<g id="node9" class="node">
<title>qkok</title>
<polygon fill="#ff9800" stroke="black" points="238.62,-260 190.38,-228 238.62,-196 286.88,-228 238.62,-260"/>
<text xml:space="preserve" text-anchor="middle" x="238.62" y="-230.5" font-family="Arial Bold" font-size="10.00" fill="white">Under</text>
<text xml:space="preserve" text-anchor="middle" x="238.62" y="-218.5" font-family="Arial Bold" font-size="10.00" fill="white">limits?</text>
</g>
<!-- rlm&#45;&gt;qkok -->
<g id="edge9" class="edge">
<title>rlm&#45;&gt;qkok</title>
<path fill="none" stroke="#ce93d8" stroke-width="2" d="M238.62,-317.68C238.62,-317.68 238.62,-273.44 238.62,-273.44"/>
<polygon fill="#ce93d8" stroke="#ce93d8" stroke-width="2" points="242.13,-273.44 238.63,-263.44 235.13,-273.44 242.13,-273.44"/>
</g>
<!-- rej429 -->
<g id="node10" class="node">
<title>rej429</title>
<path fill="#bf360c" stroke="black" d="M215,-138C215,-138 138.25,-138 138.25,-138 132.25,-138 126.25,-132 126.25,-126 126.25,-126 126.25,-114 126.25,-114 126.25,-108 132.25,-102 138.25,-102 138.25,-102 215,-102 215,-102 221,-102 227,-108 227,-114 227,-114 227,-126 227,-126 227,-132 221,-138 215,-138"/>
<text xml:space="preserve" text-anchor="middle" x="176.62" y="-122.5" font-family="Arial Bold" font-size="10.00" fill="white">429 Rate Limit</text>
<text xml:space="preserve" text-anchor="middle" x="176.62" y="-110.5" font-family="Arial Bold" font-size="10.00" fill="white">Retry&#45;After header</text>
</g>
<!-- qkok&#45;&gt;rej429 -->
<g id="edge10" class="edge">
<title>qkok&#45;&gt;rej429</title>
<path fill="none" stroke="#f44336" stroke-width="2" d="M208.69,-215.61C208.69,-215.61 208.69,-151.38 208.69,-151.38"/>
<polygon fill="#f44336" stroke="#f44336" stroke-width="2" points="212.19,-151.38 208.69,-141.38 205.19,-151.38 212.19,-151.38"/>
<text xml:space="preserve" text-anchor="middle" x="200.44" y="-170.2" font-family="Times New Roman,serif" font-size="14.00" fill="#f44336">No</text>
</g>
<!-- approved -->
<g id="node11" class="node">
<title>approved</title>
<path fill="#2e7d32" stroke="black" d="M326.62,-138C326.62,-138 274.62,-138 274.62,-138 268.62,-138 262.62,-132 262.62,-126 262.62,-126 262.62,-114 262.62,-114 262.62,-108 268.62,-102 274.62,-102 274.62,-102 326.62,-102 326.62,-102 332.62,-102 338.62,-108 338.62,-114 338.62,-114 338.62,-126 338.62,-126 338.62,-132 332.62,-138 326.62,-138"/>
<text xml:space="preserve" text-anchor="middle" x="300.62" y="-122.5" font-family="Arial" font-size="10.00" fill="white">Request</text>
<text xml:space="preserve" text-anchor="middle" x="300.62" y="-110.5" font-family="Arial" font-size="10.00" fill="white">Authenticated</text>
</g>
<!-- qkok&#45;&gt;approved -->
<g id="edge11" class="edge">
<title>qkok&#45;&gt;approved</title>
<path fill="none" stroke="#4caf50" stroke-width="2" d="M274.75,-219.53C274.75,-219.53 274.75,-151.39 274.75,-151.39"/>
<polygon fill="#4caf50" stroke="#4caf50" stroke-width="2" points="278.25,-151.39 274.75,-141.39 271.25,-151.39 278.25,-151.39"/>
<text xml:space="preserve" text-anchor="middle" x="264.62" y="-172.16" font-family="Times New Roman,serif" font-size="14.00" fill="#4caf50">Yes</text>
</g>
<!-- rldh -->
<g id="node12" class="node">
<title>rldh</title>
<path fill="#81c784" stroke="black" d="M193.62,-41.75C193.62,-41.75 105.62,-41.75 105.62,-41.75 99.62,-41.75 93.62,-35.75 93.62,-29.75 93.62,-29.75 93.62,-14.25 93.62,-14.25 93.62,-8.25 99.62,-2.25 105.62,-2.25 105.62,-2.25 193.62,-2.25 193.62,-2.25 199.62,-2.25 205.62,-8.25 205.62,-14.25 205.62,-14.25 205.62,-29.75 205.62,-29.75 205.62,-35.75 199.62,-41.75 193.62,-41.75"/>
<text xml:space="preserve" text-anchor="middle" x="149.62" y="-29.2" font-family="Arial" font-size="9.00">Rate&#45;Limit Headers</text>
<text xml:space="preserve" text-anchor="middle" x="149.62" y="-18.7" font-family="Arial" font-size="9.00">X&#45;RateLimit&#45;Remaining</text>
<text xml:space="preserve" text-anchor="middle" x="149.62" y="-8.2" font-family="Arial" font-size="9.00">X&#45;RateLimit&#45;Reset</text>
</g>
<!-- approved&#45;&gt;rldh -->
<g id="edge12" class="edge">
<title>approved&#45;&gt;rldh</title>
<path fill="none" stroke="#81c784" stroke-width="1.5" d="M262.33,-120C247.54,-120 234.12,-120 234.12,-120 234.12,-120 234.12,-22 234.12,-22 234.12,-22 218.26,-22 218.26,-22"/>
<polygon fill="#81c784" stroke="#81c784" stroke-width="1.5" points="218.26,-18.5 208.26,-22 218.26,-25.5 218.26,-18.5"/>
</g>
<!-- out_route -->
<g id="node13" class="node">
<title>out_route</title>
<path fill="#2196f3" stroke="black" d="M348,-40.25C348,-40.25 253.25,-40.25 253.25,-40.25 247.25,-40.25 241.25,-34.25 241.25,-28.25 241.25,-28.25 241.25,-15.75 241.25,-15.75 241.25,-9.75 247.25,-3.75 253.25,-3.75 253.25,-3.75 348,-3.75 348,-3.75 354,-3.75 360,-9.75 360,-15.75 360,-15.75 360,-28.25 360,-28.25 360,-34.25 354,-40.25 348,-40.25"/>
<text xml:space="preserve" text-anchor="middle" x="300.62" y="-24.85" font-family="Arial Bold" font-size="12.00" fill="white">Forward to</text>
<text xml:space="preserve" text-anchor="middle" x="300.62" y="-10.6" font-family="Arial Bold" font-size="12.00" fill="white">Bandit&#45;pro Router</text>
</g>
<!-- approved&#45;&gt;out_route -->
<g id="edge14" class="edge">
<title>approved&#45;&gt;out_route</title>
<path fill="none" stroke="#2196f3" stroke-width="2.5" d="M300.62,-101.57C300.62,-101.57 300.62,-54.47 300.62,-54.47"/>
<polygon fill="#2196f3" stroke="#2196f3" stroke-width="2.5" points="304.13,-54.47 300.63,-44.47 297.13,-54.47 304.13,-54.47"/>
</g>
<!-- snfo -->
<g id="node14" class="node">
<title>snfo</title>
<path fill="#37474f" stroke="black" d="M503,-40C503,-42.21 479.08,-44 449.62,-44 420.17,-44 396.25,-42.21 396.25,-40 396.25,-40 396.25,-4 396.25,-4 396.25,-1.79 420.17,0 449.62,0 479.08,0 503,-1.79 503,-4 503,-4 503,-40 503,-40"/>
<path fill="none" stroke="black" d="M503,-40C503,-37.79 479.08,-36 449.62,-36 420.17,-36 396.25,-37.79 396.25,-40"/>
<text xml:space="preserve" text-anchor="middle" x="449.62" y="-24.5" font-family="Arial" font-size="10.00" fill="white">Stripe&#45;Delta Store</text>
<text xml:space="preserve" text-anchor="middle" x="449.62" y="-12.5" font-family="Arial" font-size="10.00" fill="white">non&#45;shared key vault</text>
</g>
<!-- approved&#45;&gt;snfo -->
<g id="edge13" class="edge">
<title>approved&#45;&gt;snfo</title>
<path fill="none" stroke="#546e7a" stroke-dasharray="5,2" d="M339,-120C383.14,-120 449.62,-120 449.62,-120 449.62,-120 449.62,-55.75 449.62,-55.75"/>
<polygon fill="#546e7a" stroke="#546e7a" points="453.13,-55.75 449.63,-45.75 446.13,-55.75 453.13,-55.75"/>
</g>
</g>
</svg>
