<?xml version="1.0" encoding="UTF-8" standalone="no"?>
<!DOCTYPE svg PUBLIC "-//W3C//DTD SVG 1.1//EN"
 "http://www.w3.org/Graphics/SVG/1.1/DTD/svg11.dtd">
<!-- Generated by graphviz version 14.1.2 (0)
 -->
<!-- Title: keychron_open_hardware_philosophy Pages: 1 -->
<svg width="1505pt" height="543pt"
 viewBox="0.00 0.00 1505.00 543.00" xmlns="http://www.w3.org/2000/svg" xmlns:xlink="http://www.w3.org/1999/xlink">
<g id="graph0" class="graph" transform="scale(1 1) rotate(0) translate(4 538.75)">
<title>keychron_open_hardware_philosophy</title>
<polygon fill="white" stroke="none" points="-4,4 -4,-538.75 1501.12,-538.75 1501.12,4 -4,4"/>
<!-- central -->
<g id="node1" class="node">
<title>central</title>
<path fill="#0d47a1" stroke="black" stroke-width="3" d="M965.75,-534.75C965.75,-534.75 872.5,-534.75 872.5,-534.75 866.5,-534.75 860.5,-528.75 860.5,-522.75 860.5,-522.75 860.5,-507.25 860.5,-507.25 860.5,-501.25 866.5,-495.25 872.5,-495.25 872.5,-495.25 965.75,-495.25 965.75,-495.25 971.75,-495.25 977.75,-501.25 977.75,-507.25 977.75,-507.25 977.75,-522.75 977.75,-522.75 977.75,-528.75 971.75,-534.75 965.75,-534.75"/>
<text xml:space="preserve" text-anchor="middle" x="919.12" y="-517.45" font-family="Arial Bold" font-size="14.00" fill="white">Open Hardware</text>
<text xml:space="preserve" text-anchor="middle" x="919.12" y="-501.7" font-family="Arial Bold" font-size="14.00" fill="white">Philosophy</text>
</g>
<!-- license_node -->
<g id="node2" class="node">
<title>license_node</title>
<path fill="#ff8f00" stroke="black" stroke-width="2" d="M994.25,-428.25C994.25,-428.25 844,-428.25 844,-428.25 838,-428.25 832,-422.25 832,-416.25 832,-416.25 832,-389.5 832,-389.5 832,-383.5 838,-377.5 844,-377.5 844,-377.5 994.25,-377.5 994.25,-377.5 1000.25,-377.5 1006.25,-383.5 1006.25,-389.5 1006.25,-389.5 1006.25,-416.25 1006.25,-416.25 1006.25,-422.25 1000.25,-428.25 994.25,-428.25"/>
<text xml:space="preserve" text-anchor="middle" x="919.12" y="-412.85" font-family="Arial Bold" font-size="12.00" fill="white">Source&#45;Available License</text>
<text xml:space="preserve" text-anchor="middle" x="919.12" y="-398.6" font-family="Arial Bold" font-size="12.00" fill="white">Permissive for Accessories</text>
<text xml:space="preserve" text-anchor="middle" x="919.12" y="-384.35" font-family="Arial Bold" font-size="12.00" fill="white">Restricts Keyboard Cloning</text>
</g>
<!-- central&#45;&gt;license_node -->
<g id="edge1" class="edge">
<title>central&#45;&gt;license_node</title>
<path fill="none" stroke="#ff8f00" stroke-width="2.5" d="M919.12,-493.91C919.12,-493.91 919.12,-442.79 919.12,-442.79"/>
<polygon fill="#ff8f00" stroke="#ff8f00" stroke-width="2.5" points="922.63,-442.79 919.13,-432.79 915.63,-442.79 922.63,-442.79"/>
</g>
<!-- can_hub -->
<g id="node3" class="node">
<title>can_hub</title>
<path fill="#2e7d32" stroke="black" stroke-width="2" d="M847.38,-288.75C847.38,-288.75 808.88,-288.75 808.88,-288.75 802.88,-288.75 796.88,-282.75 796.88,-276.75 796.88,-276.75 796.88,-264.75 796.88,-264.75 796.88,-258.75 802.88,-252.75 808.88,-252.75 808.88,-252.75 847.38,-252.75 847.38,-252.75 853.38,-252.75 859.38,-258.75 859.38,-264.75 859.38,-264.75 859.38,-276.75 859.38,-276.75 859.38,-282.75 853.38,-288.75 847.38,-288.75"/>
<text xml:space="preserve" text-anchor="middle" x="828.12" y="-273.8" font-family="Arial" font-size="11.00" fill="white">What You</text>
<text xml:space="preserve" text-anchor="middle" x="828.12" y="-260.3" font-family="Arial" font-size="11.00" fill="white">CAN Do</text>
</g>
<!-- central&#45;&gt;can_hub -->
<g id="edge2" class="edge">
<title>central&#45;&gt;can_hub</title>
<path fill="none" stroke="#2e7d32" stroke-width="2.5" d="M859.14,-508C835.75,-508 814.44,-508 814.44,-508 814.44,-508 814.44,-303.15 814.44,-303.15"/>
<polygon fill="#2e7d32" stroke="#2e7d32" stroke-width="2.5" points="817.94,-303.15 814.44,-293.15 810.94,-303.15 817.94,-303.15"/>
</g>
<!-- cannot_hub -->
<g id="node9" class="node">
<title>cannot_hub</title>
<path fill="#c62828" stroke="black" stroke-width="2" d="M379.38,-288.75C379.38,-288.75 322.88,-288.75 322.88,-288.75 316.88,-288.75 310.88,-282.75 310.88,-276.75 310.88,-276.75 310.88,-264.75 310.88,-264.75 310.88,-258.75 316.88,-252.75 322.88,-252.75 322.88,-252.75 379.38,-252.75 379.38,-252.75 385.38,-252.75 391.38,-258.75 391.38,-264.75 391.38,-264.75 391.38,-276.75 391.38,-276.75 391.38,-282.75 385.38,-288.75 379.38,-288.75"/>
<text xml:space="preserve" text-anchor="middle" x="351.12" y="-273.8" font-family="Arial" font-size="11.00" fill="white">What You</text>
<text xml:space="preserve" text-anchor="middle" x="351.12" y="-260.3" font-family="Arial" font-size="11.00" fill="white">CANNOT Do</text>
</g>
<!-- central&#45;&gt;cannot_hub -->
<g id="edge3" class="edge">
<title>central&#45;&gt;cannot_hub</title>
<path fill="none" stroke="#c62828" stroke-width="2.5" d="M859.09,-522C710.54,-522 337.71,-522 337.71,-522 337.71,-522 337.71,-303.42 337.71,-303.42"/>
<polygon fill="#c62828" stroke="#c62828" stroke-width="2.5" points="341.21,-303.42 337.71,-293.42 334.21,-303.42 341.21,-303.42"/>
</g>
<!-- benefits_hub -->
<g id="node13" class="node">
<title>benefits_hub</title>
<path fill="#1565c0" stroke="black" stroke-width="2" d="M1203.5,-157.75C1203.5,-157.75 1156.75,-157.75 1156.75,-157.75 1150.75,-157.75 1144.75,-151.75 1144.75,-145.75 1144.75,-145.75 1144.75,-133.75 1144.75,-133.75 1144.75,-127.75 1150.75,-121.75 1156.75,-121.75 1156.75,-121.75 1203.5,-121.75 1203.5,-121.75 1209.5,-121.75 1215.5,-127.75 1215.5,-133.75 1215.5,-133.75 1215.5,-145.75 1215.5,-145.75 1215.5,-151.75 1209.5,-157.75 1203.5,-157.75"/>
<text xml:space="preserve" text-anchor="middle" x="1180.12" y="-142.8" font-family="Arial" font-size="11.00" fill="white">Community</text>
<text xml:space="preserve" text-anchor="middle" x="1180.12" y="-129.3" font-family="Arial" font-size="11.00" fill="white">Benefits</text>
</g>
<!-- central&#45;&gt;benefits_hub -->
<g id="edge4" class="edge">
<title>central&#45;&gt;benefits_hub</title>
<path fill="none" stroke="#1565c0" stroke-width="2.5" d="M979.09,-522C1071.43,-522 1237.92,-522 1237.92,-522 1237.92,-522 1237.92,-140 1237.92,-140 1237.92,-140 1230.18,-140 1230.18,-140"/>
<polygon fill="#1565c0" stroke="#1565c0" stroke-width="2.5" points="1230.18,-136.5 1220.18,-140 1230.18,-143.5 1230.18,-136.5"/>
</g>
<!-- firmware_hub -->
<g id="node18" class="node">
<title>firmware_hub</title>
<path fill="#e65100" stroke="black" stroke-width="2" d="M1183.38,-420.88C1183.38,-420.88 1138.88,-420.88 1138.88,-420.88 1132.88,-420.88 1126.88,-414.88 1126.88,-408.88 1126.88,-408.88 1126.88,-396.88 1126.88,-396.88 1126.88,-390.88 1132.88,-384.88 1138.88,-384.88 1138.88,-384.88 1183.38,-384.88 1183.38,-384.88 1189.38,-384.88 1195.38,-390.88 1195.38,-396.88 1195.38,-396.88 1195.38,-408.88 1195.38,-408.88 1195.38,-414.88 1189.38,-420.88 1183.38,-420.88"/>
<text xml:space="preserve" text-anchor="middle" x="1161.12" y="-405.93" font-family="Arial" font-size="11.00" fill="white">Firmware</text>
<text xml:space="preserve" text-anchor="middle" x="1161.12" y="-392.43" font-family="Arial" font-size="11.00" fill="white">Ecosystem</text>
</g>
<!-- central&#45;&gt;firmware_hub -->
<g id="edge5" class="edge">
<title>central&#45;&gt;firmware_hub</title>
<path fill="none" stroke="#e65100" stroke-width="2.5" d="M978.95,-508C1050.61,-508 1161.12,-508 1161.12,-508 1161.12,-508 1161.12,-435.45 1161.12,-435.45"/>
<polygon fill="#e65100" stroke="#e65100" stroke-width="2.5" points="1164.63,-435.45 1161.13,-425.45 1157.63,-435.45 1164.63,-435.45"/>
</g>
<!-- license_node&#45;&gt;can_hub -->
<g id="edge6" class="edge">
<title>license_node&#45;&gt;can_hub</title>
<path fill="none" stroke="#2e7d32" stroke-width="2" d="M845.69,-376.77C845.69,-376.77 845.69,-302.57 845.69,-302.57"/>
<polygon fill="#2e7d32" stroke="#2e7d32" stroke-width="2" points="849.19,-302.57 845.69,-292.57 842.19,-302.57 849.19,-302.57"/>
<text xml:space="preserve" text-anchor="middle" x="940.75" y="-331.2" font-family="Times New Roman,serif" font-size="14.00">permits</text>
</g>
<!-- license_node&#45;&gt;cannot_hub -->
<g id="edge7" class="edge">
<title>license_node&#45;&gt;cannot_hub</title>
<path fill="none" stroke="#c62828" stroke-width="2" d="M831.25,-403C674.87,-403 364.54,-403 364.54,-403 364.54,-403 364.54,-302.73 364.54,-302.73"/>
<polygon fill="#c62828" stroke="#c62828" stroke-width="2" points="368.04,-302.73 364.54,-292.73 361.04,-302.73 368.04,-302.73"/>
<text xml:space="preserve" text-anchor="middle" x="857.5" y="-331.2" font-family="Times New Roman,serif" font-size="14.00">restricts</text>
</g>
<!-- study_cad -->
<g id="node4" class="node">
<title>study_cad</title>
<path fill="#2e7d32" stroke="black" stroke-width="2" d="M528.25,-164C528.25,-164 456,-164 456,-164 450,-164 444,-158 444,-152 444,-152 444,-127.5 444,-127.5 444,-121.5 450,-115.5 456,-115.5 456,-115.5 528.25,-115.5 528.25,-115.5 534.25,-115.5 540.25,-121.5 540.25,-127.5 540.25,-127.5 540.25,-152 540.25,-152 540.25,-158 534.25,-164 528.25,-164"/>
<text xml:space="preserve" text-anchor="middle" x="492.12" y="-149.55" font-family="Arial" font-size="11.00" fill="white">Study CAD Files</text>
<text xml:space="preserve" text-anchor="middle" x="492.12" y="-136.05" font-family="Arial" font-size="11.00" fill="white">Learn from Real</text>
<text xml:space="preserve" text-anchor="middle" x="492.12" y="-122.55" font-family="Arial" font-size="11.00" fill="white">Product Designs</text>
</g>
<!-- can_hub&#45;&gt;study_cad -->
<g id="edge8" class="edge">
<title>can_hub&#45;&gt;study_cad</title>
<path fill="none" stroke="#4caf50" stroke-width="1.5" d="M795.91,-277C711.81,-277 492.12,-277 492.12,-277 492.12,-277 492.12,-177.19 492.12,-177.19"/>
<polygon fill="#4caf50" stroke="#4caf50" stroke-width="1.5" points="495.63,-177.19 492.13,-167.19 488.63,-177.19 495.63,-177.19"/>
</g>
<!-- remix_plates -->
<g id="node5" class="node">
<title>remix_plates</title>
<path fill="#2e7d32" stroke="black" stroke-width="2" d="M680.38,-164C680.38,-164 587.88,-164 587.88,-164 581.88,-164 575.88,-158 575.88,-152 575.88,-152 575.88,-127.5 575.88,-127.5 575.88,-121.5 581.88,-115.5 587.88,-115.5 587.88,-115.5 680.38,-115.5 680.38,-115.5 686.38,-115.5 692.38,-121.5 692.38,-127.5 692.38,-127.5 692.38,-152 692.38,-152 692.38,-158 686.38,-164 680.38,-164"/>
<text xml:space="preserve" text-anchor="middle" x="634.12" y="-149.55" font-family="Arial" font-size="11.00" fill="white">Remix Plate Designs</text>
<text xml:space="preserve" text-anchor="middle" x="634.12" y="-136.05" font-family="Arial" font-size="11.00" fill="white">Custom Layouts</text>
<text xml:space="preserve" text-anchor="middle" x="634.12" y="-122.55" font-family="Arial" font-size="11.00" fill="white">Alternative Materials</text>
</g>
<!-- can_hub&#45;&gt;remix_plates -->
<g id="edge9" class="edge">
<title>can_hub&#45;&gt;remix_plates</title>
<path fill="none" stroke="#4caf50" stroke-width="1.5" d="M796.09,-265C740.99,-265 634.12,-265 634.12,-265 634.12,-265 634.12,-177.07 634.12,-177.07"/>
<polygon fill="#4caf50" stroke="#4caf50" stroke-width="1.5" points="637.63,-177.07 634.13,-167.07 630.63,-177.07 637.63,-177.07"/>
</g>
<!-- design_accessories -->
<g id="node6" class="node">
<title>design_accessories</title>
<path fill="#2e7d32" stroke="black" stroke-width="2" d="M826,-164C826,-164 740.25,-164 740.25,-164 734.25,-164 728.25,-158 728.25,-152 728.25,-152 728.25,-127.5 728.25,-127.5 728.25,-121.5 734.25,-115.5 740.25,-115.5 740.25,-115.5 826,-115.5 826,-115.5 832,-115.5 838,-121.5 838,-127.5 838,-127.5 838,-152 838,-152 838,-158 832,-164 826,-164"/>
<text xml:space="preserve" text-anchor="middle" x="783.12" y="-149.55" font-family="Arial" font-size="11.00" fill="white">Design Accessories</text>
<text xml:space="preserve" text-anchor="middle" x="783.12" y="-136.05" font-family="Arial" font-size="11.00" fill="white">Cases, Covers</text>
<text xml:space="preserve" text-anchor="middle" x="783.12" y="-122.55" font-family="Arial" font-size="11.00" fill="white">Desk Mats</text>
</g>
<!-- can_hub&#45;&gt;design_accessories -->
<g id="edge10" class="edge">
<title>can_hub&#45;&gt;design_accessories</title>
<path fill="none" stroke="#4caf50" stroke-width="1.5" d="M817.44,-251.98C817.44,-251.98 817.44,-177.03 817.44,-177.03"/>
<polygon fill="#4caf50" stroke="#4caf50" stroke-width="1.5" points="820.94,-177.03 817.44,-167.03 813.94,-177.03 820.94,-177.03"/>
</g>
<!-- print_3d -->
<g id="node7" class="node">
<title>print_3d</title>
<path fill="#2e7d32" stroke="black" stroke-width="2" d="M951.88,-164C951.88,-164 886.38,-164 886.38,-164 880.38,-164 874.38,-158 874.38,-152 874.38,-152 874.38,-127.5 874.38,-127.5 874.38,-121.5 880.38,-115.5 886.38,-115.5 886.38,-115.5 951.88,-115.5 951.88,-115.5 957.88,-115.5 963.88,-121.5 963.88,-127.5 963.88,-127.5 963.88,-152 963.88,-152 963.88,-158 957.88,-164 951.88,-164"/>
<text xml:space="preserve" text-anchor="middle" x="919.12" y="-149.55" font-family="Arial" font-size="11.00" fill="white">3D Print Cases</text>
<text xml:space="preserve" text-anchor="middle" x="919.12" y="-136.05" font-family="Arial" font-size="11.00" fill="white">Prototyping</text>
<text xml:space="preserve" text-anchor="middle" x="919.12" y="-122.55" font-family="Arial" font-size="11.00" fill="white">Personal Use</text>
</g>
<!-- can_hub&#45;&gt;print_3d -->
<g id="edge11" class="edge">
<title>can_hub&#45;&gt;print_3d</title>
<path fill="none" stroke="#4caf50" stroke-width="1.5" d="M845.12,-252.02C845.12,-215.86 845.12,-140 845.12,-140 845.12,-140 861.25,-140 861.25,-140"/>
<polygon fill="#4caf50" stroke="#4caf50" stroke-width="1.5" points="861.25,-143.5 871.25,-140 861.25,-136.5 861.25,-143.5"/>
</g>
<!-- learn_products -->
<g id="node8" class="node">
<title>learn_products</title>
<path fill="#2e7d32" stroke="black" stroke-width="2" d="M1096.25,-164C1096.25,-164 1012,-164 1012,-164 1006,-164 1000,-158 1000,-152 1000,-152 1000,-127.5 1000,-127.5 1000,-121.5 1006,-115.5 1012,-115.5 1012,-115.5 1096.25,-115.5 1096.25,-115.5 1102.25,-115.5 1108.25,-121.5 1108.25,-127.5 1108.25,-127.5 1108.25,-152 1108.25,-152 1108.25,-158 1102.25,-164 1096.25,-164"/>
<text xml:space="preserve" text-anchor="middle" x="1054.12" y="-149.55" font-family="Arial" font-size="11.00" fill="white">Learn from</text>
<text xml:space="preserve" text-anchor="middle" x="1054.12" y="-136.05" font-family="Arial" font-size="11.00" fill="white">Real Products</text>
<text xml:space="preserve" text-anchor="middle" x="1054.12" y="-122.55" font-family="Arial" font-size="11.00" fill="white">Engineering Insight</text>
</g>
<!-- can_hub&#45;&gt;learn_products -->
<g id="edge12" class="edge">
<title>can_hub&#45;&gt;learn_products</title>
<path fill="none" stroke="#4caf50" stroke-width="1.5" d="M859.98,-271C922.94,-271 1057.25,-271 1057.25,-271 1057.25,-271 1057.25,-177.02 1057.25,-177.02"/>
<polygon fill="#4caf50" stroke="#4caf50" stroke-width="1.5" points="1060.75,-177.02 1057.25,-167.02 1053.75,-177.02 1060.75,-177.02"/>
</g>
<!-- can_hub&#45;&gt;benefits_hub -->
<g id="edge23" class="edge">
<title>can_hub&#45;&gt;benefits_hub</title>
<path fill="none" stroke="#78909c" stroke-width="1.5" stroke-dasharray="5,2" d="M852.25,-252.08C852.25,-232.65 852.25,-205 852.25,-205 852.25,-205 1179.06,-205 1179.06,-205 1179.06,-205 1179.06,-170.89 1179.06,-170.89"/>
<polygon fill="#78909c" stroke="#78909c" stroke-width="1.5" points="1182.56,-170.89 1179.06,-160.89 1175.56,-170.89 1182.56,-170.89"/>
<text xml:space="preserve" text-anchor="middle" x="991.62" y="-200.2" font-family="Times New Roman,serif" font-size="14.00">drives</text>
</g>
<!-- copy_keyboards -->
<g id="node10" class="node">
<title>copy_keyboards</title>
<path fill="#c62828" stroke="black" stroke-width="2" d="M245.5,-164C245.5,-164 156.75,-164 156.75,-164 150.75,-164 144.75,-158 144.75,-152 144.75,-152 144.75,-127.5 144.75,-127.5 144.75,-121.5 150.75,-115.5 156.75,-115.5 156.75,-115.5 245.5,-115.5 245.5,-115.5 251.5,-115.5 257.5,-121.5 257.5,-127.5 257.5,-127.5 257.5,-152 257.5,-152 257.5,-158 251.5,-164 245.5,-164"/>
<text xml:space="preserve" text-anchor="middle" x="201.12" y="-149.55" font-family="Arial" font-size="11.00" fill="white">Copy Keyboards</text>
<text xml:space="preserve" text-anchor="middle" x="201.12" y="-136.05" font-family="Arial" font-size="11.00" fill="white">Manufacture Clones</text>
<text xml:space="preserve" text-anchor="middle" x="201.12" y="-122.55" font-family="Arial" font-size="11.00" fill="white">Reverse Engineer</text>
</g>
<!-- cannot_hub&#45;&gt;copy_keyboards -->
<g id="edge13" class="edge">
<title>cannot_hub&#45;&gt;copy_keyboards</title>
<path fill="none" stroke="#ef5350" stroke-width="1.5" d="M310.14,-265C265.72,-265 201.12,-265 201.12,-265 201.12,-265 201.12,-177.07 201.12,-177.07"/>
<polygon fill="#ef5350" stroke="#ef5350" stroke-width="1.5" points="204.63,-177.07 201.13,-167.07 197.63,-177.07 204.63,-177.07"/>
</g>
<!-- sell_clones -->
<g id="node11" class="node">
<title>sell_clones</title>
<path fill="#c62828" stroke="black" stroke-width="2" d="M396.25,-164C396.25,-164 306,-164 306,-164 300,-164 294,-158 294,-152 294,-152 294,-127.5 294,-127.5 294,-121.5 300,-115.5 306,-115.5 306,-115.5 396.25,-115.5 396.25,-115.5 402.25,-115.5 408.25,-121.5 408.25,-127.5 408.25,-127.5 408.25,-152 408.25,-152 408.25,-158 402.25,-164 396.25,-164"/>
<text xml:space="preserve" text-anchor="middle" x="351.12" y="-149.55" font-family="Arial" font-size="11.00" fill="white">Sell Clones</text>
<text xml:space="preserve" text-anchor="middle" x="351.12" y="-136.05" font-family="Arial" font-size="11.00" fill="white">Competing Products</text>
<text xml:space="preserve" text-anchor="middle" x="351.12" y="-122.55" font-family="Arial" font-size="11.00" fill="white">Undercut Market</text>
</g>
<!-- cannot_hub&#45;&gt;sell_clones -->
<g id="edge14" class="edge">
<title>cannot_hub&#45;&gt;sell_clones</title>
<path fill="none" stroke="#ef5350" stroke-width="1.5" d="M351.12,-251.98C351.12,-251.98 351.12,-177.03 351.12,-177.03"/>
<polygon fill="#ef5350" stroke="#ef5350" stroke-width="1.5" points="354.63,-177.03 351.13,-167.03 347.63,-177.03 354.63,-177.03"/>
</g>
<!-- use_trademarks -->
<g id="node12" class="node">
<title>use_trademarks</title>
<path fill="#c62828" stroke="black" stroke-width="2" d="M96.25,-164C96.25,-164 12,-164 12,-164 6,-164 0,-158 0,-152 0,-152 0,-127.5 0,-127.5 0,-121.5 6,-115.5 12,-115.5 12,-115.5 96.25,-115.5 96.25,-115.5 102.25,-115.5 108.25,-121.5 108.25,-127.5 108.25,-127.5 108.25,-152 108.25,-152 108.25,-158 102.25,-164 96.25,-164"/>
<text xml:space="preserve" text-anchor="middle" x="54.12" y="-149.55" font-family="Arial" font-size="11.00" fill="white">Use Trademarks</text>
<text xml:space="preserve" text-anchor="middle" x="54.12" y="-136.05" font-family="Arial" font-size="11.00" fill="white">Keychron Branding</text>
<text xml:space="preserve" text-anchor="middle" x="54.12" y="-122.55" font-family="Arial" font-size="11.00" fill="white">Logo &amp; Name</text>
</g>
<!-- cannot_hub&#45;&gt;use_trademarks -->
<g id="edge15" class="edge">
<title>cannot_hub&#45;&gt;use_trademarks</title>
<path fill="none" stroke="#ef5350" stroke-width="1.5" d="M310.14,-277C228.67,-277 54.12,-277 54.12,-277 54.12,-277 54.12,-177.19 54.12,-177.19"/>
<polygon fill="#ef5350" stroke="#ef5350" stroke-width="1.5" points="57.63,-177.19 54.13,-167.19 50.63,-177.19 57.63,-177.19"/>
</g>
<!-- knowledge -->
<g id="node14" class="node">
<title>knowledge</title>
<path fill="#1565c0" stroke="black" stroke-width="2" d="M1011.5,-48.5C1011.5,-48.5 940.75,-48.5 940.75,-48.5 934.75,-48.5 928.75,-42.5 928.75,-36.5 928.75,-36.5 928.75,-12 928.75,-12 928.75,-6 934.75,0 940.75,0 940.75,0 1011.5,0 1011.5,0 1017.5,0 1023.5,-6 1023.5,-12 1023.5,-12 1023.5,-36.5 1023.5,-36.5 1023.5,-42.5 1017.5,-48.5 1011.5,-48.5"/>
<text xml:space="preserve" text-anchor="middle" x="976.12" y="-34.05" font-family="Arial" font-size="11.00" fill="white">Knowledge</text>
<text xml:space="preserve" text-anchor="middle" x="976.12" y="-20.55" font-family="Arial" font-size="11.00" fill="white">Sharing</text>
<text xml:space="preserve" text-anchor="middle" x="976.12" y="-7.05" font-family="Arial" font-size="11.00" fill="white">Open CAD Files</text>
</g>
<!-- benefits_hub&#45;&gt;knowledge -->
<g id="edge16" class="edge">
<title>benefits_hub&#45;&gt;knowledge</title>
<path fill="none" stroke="#42a5f5" stroke-width="1.5" d="M1151.54,-120.84C1151.54,-104 1151.54,-82 1151.54,-82 1151.54,-82 1011.75,-82 1011.75,-82 1011.75,-82 1011.75,-61.68 1011.75,-61.68"/>
<polygon fill="#42a5f5" stroke="#42a5f5" stroke-width="1.5" points="1015.25,-61.68 1011.75,-51.68 1008.25,-61.68 1015.25,-61.68"/>
</g>
<!-- innovation -->
<g id="node15" class="node">
<title>innovation</title>
<path fill="#1565c0" stroke="black" stroke-width="2" d="M1153.12,-48.5C1153.12,-48.5 1071.12,-48.5 1071.12,-48.5 1065.12,-48.5 1059.12,-42.5 1059.12,-36.5 1059.12,-36.5 1059.12,-12 1059.12,-12 1059.12,-6 1065.12,0 1071.12,0 1071.12,0 1153.12,0 1153.12,0 1159.12,0 1165.12,-6 1165.12,-12 1165.12,-12 1165.12,-36.5 1165.12,-36.5 1165.12,-42.5 1159.12,-48.5 1153.12,-48.5"/>
<text xml:space="preserve" text-anchor="middle" x="1112.12" y="-34.05" font-family="Arial" font-size="11.00" fill="white">Innovation</text>
<text xml:space="preserve" text-anchor="middle" x="1112.12" y="-20.55" font-family="Arial" font-size="11.00" fill="white">Community&#45;Driven</text>
<text xml:space="preserve" text-anchor="middle" x="1112.12" y="-7.05" font-family="Arial" font-size="11.00" fill="white">Accessory Market</text>
</g>
<!-- benefits_hub&#45;&gt;innovation -->
<g id="edge17" class="edge">
<title>benefits_hub&#45;&gt;innovation</title>
<path fill="none" stroke="#42a5f5" stroke-width="1.5" d="M1158.33,-120.94C1158.33,-120.94 1158.33,-61.38 1158.33,-61.38"/>
<polygon fill="#42a5f5" stroke="#42a5f5" stroke-width="1.5" points="1161.83,-61.38 1158.33,-51.38 1154.83,-61.38 1161.83,-61.38"/>
</g>
<!-- customization -->
<g id="node16" class="node">
<title>customization</title>
<path fill="#1565c0" stroke="black" stroke-width="2" d="M1280.62,-48.5C1280.62,-48.5 1213.62,-48.5 1213.62,-48.5 1207.62,-48.5 1201.62,-42.5 1201.62,-36.5 1201.62,-36.5 1201.62,-12 1201.62,-12 1201.62,-6 1207.62,0 1213.62,0 1213.62,0 1280.62,0 1280.62,0 1286.62,0 1292.62,-6 1292.62,-12 1292.62,-12 1292.62,-36.5 1292.62,-36.5 1292.62,-42.5 1286.62,-48.5 1280.62,-48.5"/>
<text xml:space="preserve" text-anchor="middle" x="1247.12" y="-34.05" font-family="Arial" font-size="11.00" fill="white">Customization</text>
<text xml:space="preserve" text-anchor="middle" x="1247.12" y="-20.55" font-family="Arial" font-size="11.00" fill="white">Personal Builds</text>
<text xml:space="preserve" text-anchor="middle" x="1247.12" y="-7.05" font-family="Arial" font-size="11.00" fill="white">Unique Setups</text>
</g>
<!-- benefits_hub&#45;&gt;customization -->
<g id="edge18" class="edge">
<title>benefits_hub&#45;&gt;customization</title>
<path fill="none" stroke="#42a5f5" stroke-width="1.5" d="M1208.56,-120.94C1208.56,-120.94 1208.56,-61.38 1208.56,-61.38"/>
<polygon fill="#42a5f5" stroke="#42a5f5" stroke-width="1.5" points="1212.06,-61.38 1208.56,-51.38 1205.06,-61.38 1212.06,-61.38"/>
</g>
<!-- education -->
<g id="node17" class="node">
<title>education</title>
<path fill="#1565c0" stroke="black" stroke-width="2" d="M1411.5,-48.5C1411.5,-48.5 1340.75,-48.5 1340.75,-48.5 1334.75,-48.5 1328.75,-42.5 1328.75,-36.5 1328.75,-36.5 1328.75,-12 1328.75,-12 1328.75,-6 1334.75,0 1340.75,0 1340.75,0 1411.5,0 1411.5,0 1417.5,0 1423.5,-6 1423.5,-12 1423.5,-12 1423.5,-36.5 1423.5,-36.5 1423.5,-42.5 1417.5,-48.5 1411.5,-48.5"/>
<text xml:space="preserve" text-anchor="middle" x="1376.12" y="-34.05" font-family="Arial" font-size="11.00" fill="white">Education</text>
<text xml:space="preserve" text-anchor="middle" x="1376.12" y="-20.55" font-family="Arial" font-size="11.00" fill="white">Learn Hardware</text>
<text xml:space="preserve" text-anchor="middle" x="1376.12" y="-7.05" font-family="Arial" font-size="11.00" fill="white">Design Skills</text>
</g>
<!-- benefits_hub&#45;&gt;education -->
<g id="edge19" class="edge">
<title>benefits_hub&#45;&gt;education</title>
<path fill="none" stroke="#42a5f5" stroke-width="1.5" d="M1216.29,-131C1264.81,-131 1344.94,-131 1344.94,-131 1344.94,-131 1344.94,-61.55 1344.94,-61.55"/>
<polygon fill="#42a5f5" stroke="#42a5f5" stroke-width="1.5" points="1348.44,-61.55 1344.94,-51.55 1341.44,-61.55 1348.44,-61.55"/>
</g>
<!-- firmware_hub&#45;&gt;benefits_hub -->
<g id="edge24" class="edge">
<title>firmware_hub&#45;&gt;benefits_hub</title>
<path fill="none" stroke="#78909c" stroke-width="1.5" stroke-dasharray="5,2" d="M1196.22,-394C1211.81,-394 1226.71,-394 1226.71,-394 1226.71,-394 1226.71,-149 1226.71,-149 1226.71,-149 1225.67,-149 1225.67,-149"/>
<polygon fill="#78909c" stroke="#78909c" stroke-width="1.5" points="1228.64,-145.5 1218.64,-149 1228.64,-152.5 1228.64,-145.5"/>
<text xml:space="preserve" text-anchor="middle" x="1052.38" y="-265.7" font-family="Times New Roman,serif" font-size="14.00">enables</text>
</g>
<!-- qmk_fw -->
<g id="node19" class="node">
<title>qmk_fw</title>
<path fill="#e65100" stroke="black" stroke-width="2" d="M1201.38,-295C1201.38,-295 1120.88,-295 1120.88,-295 1114.88,-295 1108.88,-289 1108.88,-283 1108.88,-283 1108.88,-258.5 1108.88,-258.5 1108.88,-252.5 1114.88,-246.5 1120.88,-246.5 1120.88,-246.5 1201.38,-246.5 1201.38,-246.5 1207.38,-246.5 1213.38,-252.5 1213.38,-258.5 1213.38,-258.5 1213.38,-283 1213.38,-283 1213.38,-289 1207.38,-295 1201.38,-295"/>
<text xml:space="preserve" text-anchor="middle" x="1161.12" y="-280.55" font-family="Arial" font-size="11.00" fill="white">QMK</text>
<text xml:space="preserve" text-anchor="middle" x="1161.12" y="-267.05" font-family="Arial" font-size="11.00" fill="white">Wired Keyboards</text>
<text xml:space="preserve" text-anchor="middle" x="1161.12" y="-253.55" font-family="Arial" font-size="11.00" fill="white">Full Customization</text>
</g>
<!-- firmware_hub&#45;&gt;qmk_fw -->
<g id="edge20" class="edge">
<title>firmware_hub&#45;&gt;qmk_fw</title>
<path fill="none" stroke="#ff9800" stroke-width="1.5" d="M1161.12,-383.94C1161.12,-383.94 1161.12,-308.25 1161.12,-308.25"/>
<polygon fill="#ff9800" stroke="#ff9800" stroke-width="1.5" points="1164.63,-308.25 1161.13,-298.25 1157.63,-308.25 1164.63,-308.25"/>
</g>
<!-- zmk_fw -->
<g id="node20" class="node">
<title>zmk_fw</title>
<path fill="#e65100" stroke="black" stroke-width="2" d="M1349.12,-295C1349.12,-295 1261.12,-295 1261.12,-295 1255.12,-295 1249.12,-289 1249.12,-283 1249.12,-283 1249.12,-258.5 1249.12,-258.5 1249.12,-252.5 1255.12,-246.5 1261.12,-246.5 1261.12,-246.5 1349.12,-246.5 1349.12,-246.5 1355.12,-246.5 1361.12,-252.5 1361.12,-258.5 1361.12,-258.5 1361.12,-283 1361.12,-283 1361.12,-289 1355.12,-295 1349.12,-295"/>
<text xml:space="preserve" text-anchor="middle" x="1305.12" y="-280.55" font-family="Arial" font-size="11.00" fill="white">ZMK</text>
<text xml:space="preserve" text-anchor="middle" x="1305.12" y="-267.05" font-family="Arial" font-size="11.00" fill="white">Wireless Keyboards</text>
<text xml:space="preserve" text-anchor="middle" x="1305.12" y="-253.55" font-family="Arial" font-size="11.00" fill="white">Bluetooth LE</text>
</g>
<!-- firmware_hub&#45;&gt;zmk_fw -->
<g id="edge21" class="edge">
<title>firmware_hub&#45;&gt;zmk_fw</title>
<path fill="none" stroke="#ff9800" stroke-width="1.5" d="M1196.35,-403C1238.98,-403 1305.12,-403 1305.12,-403 1305.12,-403 1305.12,-308.21 1305.12,-308.21"/>
<polygon fill="#ff9800" stroke="#ff9800" stroke-width="1.5" points="1308.63,-308.21 1305.13,-298.21 1301.63,-308.21 1308.63,-308.21"/>
</g>
<!-- zgm_fw -->
<g id="node21" class="node">
<title>zgm_fw</title>
<path fill="#e65100" stroke="black" stroke-width="2" d="M1485.12,-295C1485.12,-295 1409.12,-295 1409.12,-295 1403.12,-295 1397.12,-289 1397.12,-283 1397.12,-283 1397.12,-258.5 1397.12,-258.5 1397.12,-252.5 1403.12,-246.5 1409.12,-246.5 1409.12,-246.5 1485.12,-246.5 1485.12,-246.5 1491.12,-246.5 1497.12,-252.5 1497.12,-258.5 1497.12,-258.5 1497.12,-283 1497.12,-283 1497.12,-289 1491.12,-295 1485.12,-295"/>
<text xml:space="preserve" text-anchor="middle" x="1447.12" y="-280.55" font-family="Arial" font-size="11.00" fill="white">ZGM</text>
<text xml:space="preserve" text-anchor="middle" x="1447.12" y="-267.05" font-family="Arial" font-size="11.00" fill="white">Gaming Mice</text>
<text xml:space="preserve" text-anchor="middle" x="1447.12" y="-253.55" font-family="Arial" font-size="11.00" fill="white">High Polling Rate</text>
</g>
<!-- firmware_hub&#45;&gt;zgm_fw -->
<g id="edge22" class="edge">
<title>firmware_hub&#45;&gt;zgm_fw</title>
<path fill="none" stroke="#ff9800" stroke-width="1.5" d="M1196.19,-412C1272.56,-412 1447.12,-412 1447.12,-412 1447.12,-412 1447.12,-307.95 1447.12,-307.95"/>
<polygon fill="#ff9800" stroke="#ff9800" stroke-width="1.5" points="1450.63,-307.95 1447.13,-297.95 1443.63,-307.95 1450.63,-307.95"/>
</g>
</g>
</svg>
