<?xml version="1.0" encoding="UTF-8" standalone="no"?>
<!DOCTYPE svg PUBLIC "-//W3C//DTD SVG 1.1//EN"
 "http://www.w3.org/Graphics/SVG/1.1/DTD/svg11.dtd">
<!-- Generated by graphviz version 14.1.2 (0)
 -->
<!-- Title: keychron_hardware_ecosystem Pages: 1 -->
<svg width="1369pt" height="700pt"
 viewBox="0.00 0.00 1369.00 700.00" xmlns="http://www.w3.org/2000/svg" xmlns:xlink="http://www.w3.org/1999/xlink">
<g id="graph0" class="graph" transform="scale(1 1) rotate(0) translate(4 696.25)">
<title>keychron_hardware_ecosystem</title>
<polygon fill="white" stroke="none" points="-4,4 -4,-696.25 1365,-696.25 1365,4 -4,4"/>
<!-- central -->
<g id="node1" class="node">
<title>central</title>
<path fill="#0d47a1" stroke="black" stroke-width="3" d="M869.12,-692.25C869.12,-692.25 805.12,-692.25 805.12,-692.25 799.12,-692.25 793.12,-686.25 793.12,-680.25 793.12,-680.25 793.12,-649 793.12,-649 793.12,-643 799.12,-637 805.12,-637 805.12,-637 869.12,-637 869.12,-637 875.12,-637 881.12,-643 881.12,-649 881.12,-649 881.12,-680.25 881.12,-680.25 881.12,-686.25 875.12,-692.25 869.12,-692.25"/>
<text xml:space="preserve" text-anchor="middle" x="837.12" y="-674.95" font-family="Arial Bold" font-size="14.00" fill="white">Keychron</text>
<text xml:space="preserve" text-anchor="middle" x="837.12" y="-659.2" font-family="Arial Bold" font-size="14.00" fill="white">Hardware</text>
<text xml:space="preserve" text-anchor="middle" x="837.12" y="-643.45" font-family="Arial Bold" font-size="14.00" fill="white">Ecosystem</text>
</g>
<!-- product_hub -->
<g id="node2" class="node">
<title>product_hub</title>
<path fill="#1565c0" stroke="black" stroke-width="2" d="M811.38,-433.5C811.38,-433.5 712.88,-433.5 712.88,-433.5 706.88,-433.5 700.88,-427.5 700.88,-421.5 700.88,-421.5 700.88,-409 700.88,-409 700.88,-403 706.88,-397 712.88,-397 712.88,-397 811.38,-397 811.38,-397 817.38,-397 823.38,-403 823.38,-409 823.38,-409 823.38,-421.5 823.38,-421.5 823.38,-427.5 817.38,-433.5 811.38,-433.5"/>
<text xml:space="preserve" text-anchor="middle" x="762.12" y="-418.1" font-family="Arial Bold" font-size="12.00" fill="white">Product Lines</text>
<text xml:space="preserve" text-anchor="middle" x="762.12" y="-403.85" font-family="Arial Bold" font-size="12.00" fill="white">135 Device Models</text>
</g>
<!-- central&#45;&gt;product_hub -->
<g id="edge1" class="edge">
<title>central&#45;&gt;product_hub</title>
<path fill="none" stroke="#1565c0" stroke-width="2.5" d="M803.21,-635.53C803.21,-635.53 803.21,-448.02 803.21,-448.02"/>
<polygon fill="#1565c0" stroke="#1565c0" stroke-width="2.5" points="806.71,-448.02 803.21,-438.02 799.71,-448.02 806.71,-448.02"/>
</g>
<!-- files_hub -->
<g id="node10" class="node">
<title>files_hub</title>
<path fill="#2e7d32" stroke="black" stroke-width="2" d="M317.75,-296.25C317.75,-296.25 266.5,-296.25 266.5,-296.25 260.5,-296.25 254.5,-290.25 254.5,-284.25 254.5,-284.25 254.5,-272.25 254.5,-272.25 254.5,-266.25 260.5,-260.25 266.5,-260.25 266.5,-260.25 317.75,-260.25 317.75,-260.25 323.75,-260.25 329.75,-266.25 329.75,-272.25 329.75,-272.25 329.75,-284.25 329.75,-284.25 329.75,-290.25 323.75,-296.25 317.75,-296.25"/>
<text xml:space="preserve" text-anchor="middle" x="292.12" y="-281.3" font-family="Arial" font-size="11.00" fill="white">Design Files</text>
<text xml:space="preserve" text-anchor="middle" x="292.12" y="-267.8" font-family="Arial" font-size="11.00" fill="white">734+ Files</text>
</g>
<!-- central&#45;&gt;files_hub -->
<g id="edge2" class="edge">
<title>central&#45;&gt;files_hub</title>
<path fill="none" stroke="#2e7d32" stroke-width="2.5" d="M791.97,-665C659.24,-665 279.58,-665 279.58,-665 279.58,-665 279.58,-310.95 279.58,-310.95"/>
<polygon fill="#2e7d32" stroke="#2e7d32" stroke-width="2.5" points="283.08,-310.95 279.58,-300.95 276.08,-310.95 283.08,-310.95"/>
</g>
<!-- firmware_hub -->
<g id="node16" class="node">
<title>firmware_hub</title>
<path fill="#e65100" stroke="black" stroke-width="2" d="M927,-564C927,-564 871.25,-564 871.25,-564 865.25,-564 859.25,-558 859.25,-552 859.25,-552 859.25,-540 859.25,-540 859.25,-534 865.25,-528 871.25,-528 871.25,-528 927,-528 927,-528 933,-528 939,-534 939,-540 939,-540 939,-552 939,-552 939,-558 933,-564 927,-564"/>
<text xml:space="preserve" text-anchor="middle" x="899.12" y="-549.05" font-family="Arial" font-size="11.00" fill="white">Firmware</text>
<text xml:space="preserve" text-anchor="middle" x="899.12" y="-535.55" font-family="Arial" font-size="11.00" fill="white">Open Source</text>
</g>
<!-- central&#45;&gt;firmware_hub -->
<g id="edge3" class="edge">
<title>central&#45;&gt;firmware_hub</title>
<path fill="none" stroke="#e65100" stroke-width="2.5" d="M870.19,-635.61C870.19,-635.61 870.19,-578.52 870.19,-578.52"/>
<polygon fill="#e65100" stroke="#e65100" stroke-width="2.5" points="873.69,-578.52 870.19,-568.52 866.69,-578.52 873.69,-578.52"/>
</g>
<!-- community_hub -->
<g id="node20" class="node">
<title>community_hub</title>
<path fill="#6a1b9a" stroke="black" stroke-width="2" d="M1218,-161.5C1218,-161.5 1138.25,-161.5 1138.25,-161.5 1132.25,-161.5 1126.25,-155.5 1126.25,-149.5 1126.25,-149.5 1126.25,-137.5 1126.25,-137.5 1126.25,-131.5 1132.25,-125.5 1138.25,-125.5 1138.25,-125.5 1218,-125.5 1218,-125.5 1224,-125.5 1230,-131.5 1230,-137.5 1230,-137.5 1230,-149.5 1230,-149.5 1230,-155.5 1224,-161.5 1218,-161.5"/>
<text xml:space="preserve" text-anchor="middle" x="1178.12" y="-146.55" font-family="Arial" font-size="11.00" fill="white">Community</text>
<text xml:space="preserve" text-anchor="middle" x="1178.12" y="-133.05" font-family="Arial" font-size="11.00" fill="white">Makers &amp; Builders</text>
</g>
<!-- central&#45;&gt;community_hub -->
<g id="edge4" class="edge">
<title>central&#45;&gt;community_hub</title>
<path fill="none" stroke="#6a1b9a" stroke-width="2.5" d="M841.31,-635.6C841.31,-561.83 841.31,-373 841.31,-373 841.31,-373 1185.19,-373 1185.19,-373 1185.19,-373 1185.19,-176.06 1185.19,-176.06"/>
<polygon fill="#6a1b9a" stroke="#6a1b9a" stroke-width="2.5" points="1188.69,-176.06 1185.19,-166.06 1181.69,-176.06 1188.69,-176.06"/>
</g>
<!-- q_series -->
<g id="node3" class="node">
<title>q_series</title>
<path fill="#42a5f5" stroke="black" stroke-width="2" d="M1155.38,-302.5C1155.38,-302.5 1068.88,-302.5 1068.88,-302.5 1062.88,-302.5 1056.88,-296.5 1056.88,-290.5 1056.88,-290.5 1056.88,-266 1056.88,-266 1056.88,-260 1062.88,-254 1068.88,-254 1068.88,-254 1155.38,-254 1155.38,-254 1161.38,-254 1167.38,-260 1167.38,-266 1167.38,-266 1167.38,-290.5 1167.38,-290.5 1167.38,-296.5 1161.38,-302.5 1155.38,-302.5"/>
<text xml:space="preserve" text-anchor="middle" x="1112.12" y="-288.05" font-family="Arial" font-size="11.00" fill="white">Q&#45;Series</text>
<text xml:space="preserve" text-anchor="middle" x="1112.12" y="-274.55" font-family="Arial" font-size="11.00" fill="white">Q0&#45;Q12, Q60, Q65</text>
<text xml:space="preserve" text-anchor="middle" x="1112.12" y="-261.05" font-family="Arial" font-size="11.00" fill="white">Custom Mechanical</text>
</g>
<!-- product_hub&#45;&gt;q_series -->
<g id="edge5" class="edge">
<title>product_hub&#45;&gt;q_series</title>
<path fill="none" stroke="#42a5f5" stroke-width="1.5" d="M803.98,-396.15C803.98,-373.28 803.98,-338 803.98,-338 803.98,-338 1065.31,-338 1065.31,-338 1065.31,-338 1065.31,-315.51 1065.31,-315.51"/>
<polygon fill="#42a5f5" stroke="#42a5f5" stroke-width="1.5" points="1068.81,-315.51 1065.31,-305.51 1061.81,-315.51 1068.81,-315.51"/>
</g>
<!-- k_series -->
<g id="node4" class="node">
<title>k_series</title>
<path fill="#42a5f5" stroke="black" stroke-width="2" d="M1305.25,-302.5C1305.25,-302.5 1215,-302.5 1215,-302.5 1209,-302.5 1203,-296.5 1203,-290.5 1203,-290.5 1203,-266 1203,-266 1203,-260 1209,-254 1215,-254 1215,-254 1305.25,-254 1305.25,-254 1311.25,-254 1317.25,-260 1317.25,-266 1317.25,-266 1317.25,-290.5 1317.25,-290.5 1317.25,-296.5 1311.25,-302.5 1305.25,-302.5"/>
<text xml:space="preserve" text-anchor="middle" x="1260.12" y="-288.05" font-family="Arial" font-size="11.00" fill="white">K&#45;Series</text>
<text xml:space="preserve" text-anchor="middle" x="1260.12" y="-274.55" font-family="Arial" font-size="11.00" fill="white">K1&#45;K17</text>
<text xml:space="preserve" text-anchor="middle" x="1260.12" y="-261.05" font-family="Arial" font-size="11.00" fill="white">Wireless Mechanical</text>
</g>
<!-- product_hub&#45;&gt;k_series -->
<g id="edge6" class="edge">
<title>product_hub&#45;&gt;k_series</title>
<path fill="none" stroke="#42a5f5" stroke-width="1.5" d="M813.67,-396.18C813.67,-378.86 813.67,-356 813.67,-356 813.67,-356 1212.56,-356 1212.56,-356 1212.56,-356 1212.56,-315.55 1212.56,-315.55"/>
<polygon fill="#42a5f5" stroke="#42a5f5" stroke-width="1.5" points="1216.06,-315.55 1212.56,-305.55 1209.06,-315.55 1216.06,-315.55"/>
</g>
<!-- v_series -->
<g id="node5" class="node">
<title>v_series</title>
<path fill="#42a5f5" stroke="black" stroke-width="2" d="M444.62,-302.5C444.62,-302.5 377.62,-302.5 377.62,-302.5 371.62,-302.5 365.62,-296.5 365.62,-290.5 365.62,-290.5 365.62,-266 365.62,-266 365.62,-260 371.62,-254 377.62,-254 377.62,-254 444.62,-254 444.62,-254 450.62,-254 456.62,-260 456.62,-266 456.62,-266 456.62,-290.5 456.62,-290.5 456.62,-296.5 450.62,-302.5 444.62,-302.5"/>
<text xml:space="preserve" text-anchor="middle" x="411.12" y="-288.05" font-family="Arial" font-size="11.00" fill="white">V&#45;Series</text>
<text xml:space="preserve" text-anchor="middle" x="411.12" y="-274.55" font-family="Arial" font-size="11.00" fill="white">V1&#45;V10</text>
<text xml:space="preserve" text-anchor="middle" x="411.12" y="-261.05" font-family="Arial" font-size="11.00" fill="white">Budget Custom</text>
</g>
<!-- product_hub&#45;&gt;v_series -->
<g id="edge7" class="edge">
<title>product_hub&#45;&gt;v_series</title>
<path fill="none" stroke="#42a5f5" stroke-width="1.5" d="M700.18,-415C599.42,-415 411.12,-415 411.12,-415 411.12,-415 411.12,-315.6 411.12,-315.6"/>
<polygon fill="#42a5f5" stroke="#42a5f5" stroke-width="1.5" points="414.63,-315.6 411.13,-305.6 407.63,-315.6 414.63,-315.6"/>
</g>
<!-- he_series -->
<g id="node6" class="node">
<title>he_series</title>
<path fill="#42a5f5" stroke="black" stroke-width="2" d="M587.12,-302.5C587.12,-302.5 505.12,-302.5 505.12,-302.5 499.12,-302.5 493.12,-296.5 493.12,-290.5 493.12,-290.5 493.12,-266 493.12,-266 493.12,-260 499.12,-254 505.12,-254 505.12,-254 587.12,-254 587.12,-254 593.12,-254 599.12,-260 599.12,-266 599.12,-266 599.12,-290.5 599.12,-290.5 599.12,-296.5 593.12,-302.5 587.12,-302.5"/>
<text xml:space="preserve" text-anchor="middle" x="546.12" y="-288.05" font-family="Arial" font-size="11.00" fill="white">HE&#45;Series</text>
<text xml:space="preserve" text-anchor="middle" x="546.12" y="-274.55" font-family="Arial" font-size="11.00" fill="white">Hall Effect</text>
<text xml:space="preserve" text-anchor="middle" x="546.12" y="-261.05" font-family="Arial" font-size="11.00" fill="white">Magnetic Switches</text>
</g>
<!-- product_hub&#45;&gt;he_series -->
<g id="edge8" class="edge">
<title>product_hub&#45;&gt;he_series</title>
<path fill="none" stroke="#42a5f5" stroke-width="1.5" d="M699.94,-406C636.13,-406 546.12,-406 546.12,-406 546.12,-406 546.12,-315.76 546.12,-315.76"/>
<polygon fill="#42a5f5" stroke="#42a5f5" stroke-width="1.5" points="549.63,-315.76 546.13,-305.76 542.63,-315.76 549.63,-315.76"/>
</g>
<!-- eightk_series -->
<g id="node7" class="node">
<title>eightk_series</title>
<path fill="#42a5f5" stroke="black" stroke-width="2" d="M726.62,-302.5C726.62,-302.5 647.62,-302.5 647.62,-302.5 641.62,-302.5 635.62,-296.5 635.62,-290.5 635.62,-290.5 635.62,-266 635.62,-266 635.62,-260 641.62,-254 647.62,-254 647.62,-254 726.62,-254 726.62,-254 732.62,-254 738.62,-260 738.62,-266 738.62,-266 738.62,-290.5 738.62,-290.5 738.62,-296.5 732.62,-302.5 726.62,-302.5"/>
<text xml:space="preserve" text-anchor="middle" x="687.12" y="-288.05" font-family="Arial" font-size="11.00" fill="white">8K&#45;Series</text>
<text xml:space="preserve" text-anchor="middle" x="687.12" y="-274.55" font-family="Arial" font-size="11.00" fill="white">8K Polling</text>
<text xml:space="preserve" text-anchor="middle" x="687.12" y="-261.05" font-family="Arial" font-size="11.00" fill="white">Ultra Low Latency</text>
</g>
<!-- product_hub&#45;&gt;eightk_series -->
<g id="edge9" class="edge">
<title>product_hub&#45;&gt;eightk_series</title>
<path fill="none" stroke="#42a5f5" stroke-width="1.5" d="M719.75,-396.2C719.75,-396.2 719.75,-315.44 719.75,-315.44"/>
<polygon fill="#42a5f5" stroke="#42a5f5" stroke-width="1.5" points="723.25,-315.44 719.75,-305.44 716.25,-315.44 723.25,-315.44"/>
</g>
<!-- mice -->
<g id="node8" class="node">
<title>mice</title>
<path fill="#42a5f5" stroke="black" stroke-width="2" d="M885.38,-302.5C885.38,-302.5 786.88,-302.5 786.88,-302.5 780.88,-302.5 774.88,-296.5 774.88,-290.5 774.88,-290.5 774.88,-266 774.88,-266 774.88,-260 780.88,-254 786.88,-254 786.88,-254 885.38,-254 885.38,-254 891.38,-254 897.38,-260 897.38,-266 897.38,-266 897.38,-290.5 897.38,-290.5 897.38,-296.5 891.38,-302.5 885.38,-302.5"/>
<text xml:space="preserve" text-anchor="middle" x="836.12" y="-288.05" font-family="Arial" font-size="11.00" fill="white">Mice</text>
<text xml:space="preserve" text-anchor="middle" x="836.12" y="-274.55" font-family="Arial" font-size="11.00" fill="white">M1&#45;M7, G1&#45;G4</text>
<text xml:space="preserve" text-anchor="middle" x="836.12" y="-261.05" font-family="Arial" font-size="11.00" fill="white">Gaming &amp; Productivity</text>
</g>
<!-- product_hub&#45;&gt;mice -->
<g id="edge10" class="edge">
<title>product_hub&#45;&gt;mice</title>
<path fill="none" stroke="#42a5f5" stroke-width="1.5" d="M784.58,-396.2C784.58,-396.2 784.58,-315.44 784.58,-315.44"/>
<polygon fill="#42a5f5" stroke="#42a5f5" stroke-width="1.5" points="788.08,-315.44 784.58,-305.44 781.08,-315.44 788.08,-315.44"/>
</g>
<!-- other_series -->
<g id="node9" class="node">
<title>other_series</title>
<path fill="#42a5f5" stroke="black" stroke-width="2" d="M1009.12,-296.25C1009.12,-296.25 945.12,-296.25 945.12,-296.25 939.12,-296.25 933.12,-290.25 933.12,-284.25 933.12,-284.25 933.12,-272.25 933.12,-272.25 933.12,-266.25 939.12,-260.25 945.12,-260.25 945.12,-260.25 1009.12,-260.25 1009.12,-260.25 1015.12,-260.25 1021.12,-266.25 1021.12,-272.25 1021.12,-272.25 1021.12,-284.25 1021.12,-284.25 1021.12,-290.25 1015.12,-296.25 1009.12,-296.25"/>
<text xml:space="preserve" text-anchor="middle" x="977.12" y="-281.3" font-family="Arial" font-size="11.00" fill="white">B/C/L/P Series</text>
<text xml:space="preserve" text-anchor="middle" x="977.12" y="-267.8" font-family="Arial" font-size="11.00" fill="white">Specialty Lines</text>
</g>
<!-- product_hub&#45;&gt;other_series -->
<g id="edge11" class="edge">
<title>product_hub&#45;&gt;other_series</title>
<path fill="none" stroke="#42a5f5" stroke-width="1.5" d="M794.27,-396.43C794.27,-368.67 794.27,-320 794.27,-320 794.27,-320 956.75,-320 956.75,-320 956.75,-320 956.75,-309.44 956.75,-309.44"/>
<polygon fill="#42a5f5" stroke="#42a5f5" stroke-width="1.5" points="960.25,-309.44 956.75,-299.44 953.25,-309.44 960.25,-309.44"/>
</g>
<!-- product_hub&#45;&gt;files_hub -->
<g id="edge23" class="edge">
<title>product_hub&#45;&gt;files_hub</title>
<path fill="none" stroke="#78909c" stroke-width="1.5" stroke-dasharray="5,2" d="M699.95,-424C574.88,-424 304.67,-424 304.67,-424 304.67,-424 304.67,-309.28 304.67,-309.28"/>
<polygon fill="#78909c" stroke="#78909c" stroke-width="1.5" points="308.17,-309.28 304.67,-299.28 301.17,-309.28 308.17,-309.28"/>
<text xml:space="preserve" text-anchor="middle" x="376.5" y="-341.7" font-family="Times New Roman,serif" font-size="14.00">produces</text>
</g>
<!-- step_files -->
<g id="node11" class="node">
<title>step_files</title>
<path fill="#66bb6a" stroke="black" stroke-width="1.5" d="M561.12,-165.5C561.12,-165.5 497.12,-165.5 497.12,-165.5 491.12,-165.5 485.12,-159.5 485.12,-153.5 485.12,-153.5 485.12,-133.5 485.12,-133.5 485.12,-127.5 491.12,-121.5 497.12,-121.5 497.12,-121.5 561.12,-121.5 561.12,-121.5 567.12,-121.5 573.12,-127.5 573.12,-133.5 573.12,-133.5 573.12,-153.5 573.12,-153.5 573.12,-159.5 567.12,-165.5 561.12,-165.5"/>
<text xml:space="preserve" text-anchor="middle" x="529.12" y="-152" font-family="Arial" font-size="10.00" fill="white">STEP Files</text>
<text xml:space="preserve" text-anchor="middle" x="529.12" y="-140" font-family="Arial" font-size="10.00" fill="white">474 Files</text>
<text xml:space="preserve" text-anchor="middle" x="529.12" y="-128" font-family="Arial" font-size="10.00" fill="white">3D CAD Models</text>
</g>
<!-- files_hub&#45;&gt;step_files -->
<g id="edge12" class="edge">
<title>files_hub&#45;&gt;step_files</title>
<path fill="none" stroke="#66bb6a" stroke-width="1.5" d="M292.12,-259.36C292.12,-234.8 292.12,-195 292.12,-195 292.12,-195 489.12,-195 489.12,-195 489.12,-195 489.12,-178.51 489.12,-178.51"/>
<polygon fill="#66bb6a" stroke="#66bb6a" stroke-width="1.5" points="492.63,-178.51 489.13,-168.51 485.63,-178.51 492.63,-178.51"/>
</g>
<!-- dwg_files -->
<g id="node12" class="node">
<title>dwg_files</title>
<path fill="#66bb6a" stroke="black" stroke-width="1.5" d="M90.25,-165.5C90.25,-165.5 12,-165.5 12,-165.5 6,-165.5 0,-159.5 0,-153.5 0,-153.5 0,-133.5 0,-133.5 0,-127.5 6,-121.5 12,-121.5 12,-121.5 90.25,-121.5 90.25,-121.5 96.25,-121.5 102.25,-127.5 102.25,-133.5 102.25,-133.5 102.25,-153.5 102.25,-153.5 102.25,-159.5 96.25,-165.5 90.25,-165.5"/>
<text xml:space="preserve" text-anchor="middle" x="51.12" y="-152" font-family="Arial" font-size="10.00" fill="white">DWG Files</text>
<text xml:space="preserve" text-anchor="middle" x="51.12" y="-140" font-family="Arial" font-size="10.00" fill="white">84 Files</text>
<text xml:space="preserve" text-anchor="middle" x="51.12" y="-128" font-family="Arial" font-size="10.00" fill="white">AutoCAD Drawings</text>
</g>
<!-- files_hub&#45;&gt;dwg_files -->
<g id="edge13" class="edge">
<title>files_hub&#45;&gt;dwg_files</title>
<path fill="none" stroke="#66bb6a" stroke-width="1.5" d="M253.67,-284C185.63,-284 51.12,-284 51.12,-284 51.12,-284 51.12,-178.34 51.12,-178.34"/>
<polygon fill="#66bb6a" stroke="#66bb6a" stroke-width="1.5" points="54.63,-178.34 51.13,-168.34 47.63,-178.34 54.63,-178.34"/>
</g>
<!-- dxf_files -->
<g id="node13" class="node">
<title>dxf_files</title>
<path fill="#66bb6a" stroke="black" stroke-width="1.5" d="M207.75,-165.5C207.75,-165.5 150.5,-165.5 150.5,-165.5 144.5,-165.5 138.5,-159.5 138.5,-153.5 138.5,-153.5 138.5,-133.5 138.5,-133.5 138.5,-127.5 144.5,-121.5 150.5,-121.5 150.5,-121.5 207.75,-121.5 207.75,-121.5 213.75,-121.5 219.75,-127.5 219.75,-133.5 219.75,-133.5 219.75,-153.5 219.75,-153.5 219.75,-159.5 213.75,-165.5 207.75,-165.5"/>
<text xml:space="preserve" text-anchor="middle" x="179.12" y="-152" font-family="Arial" font-size="10.00" fill="white">DXF Files</text>
<text xml:space="preserve" text-anchor="middle" x="179.12" y="-140" font-family="Arial" font-size="10.00" fill="white">33 Files</text>
<text xml:space="preserve" text-anchor="middle" x="179.12" y="-128" font-family="Arial" font-size="10.00" fill="white">Plate Cut Files</text>
</g>
<!-- files_hub&#45;&gt;dxf_files -->
<g id="edge14" class="edge">
<title>files_hub&#45;&gt;dxf_files</title>
<path fill="none" stroke="#66bb6a" stroke-width="1.5" d="M253.55,-272C220.82,-272 179.12,-272 179.12,-272 179.12,-272 179.12,-178.45 179.12,-178.45"/>
<polygon fill="#66bb6a" stroke="#66bb6a" stroke-width="1.5" points="182.63,-178.45 179.13,-168.45 175.63,-178.45 182.63,-178.45"/>
</g>
<!-- pdf_files -->
<g id="node14" class="node">
<title>pdf_files</title>
<path fill="#66bb6a" stroke="black" stroke-width="1.5" d="M316.62,-165.5C316.62,-165.5 267.62,-165.5 267.62,-165.5 261.62,-165.5 255.62,-159.5 255.62,-153.5 255.62,-153.5 255.62,-133.5 255.62,-133.5 255.62,-127.5 261.62,-121.5 267.62,-121.5 267.62,-121.5 316.62,-121.5 316.62,-121.5 322.62,-121.5 328.62,-127.5 328.62,-133.5 328.62,-133.5 328.62,-153.5 328.62,-153.5 328.62,-159.5 322.62,-165.5 316.62,-165.5"/>
<text xml:space="preserve" text-anchor="middle" x="292.12" y="-152" font-family="Arial" font-size="10.00" fill="white">PDF Files</text>
<text xml:space="preserve" text-anchor="middle" x="292.12" y="-140" font-family="Arial" font-size="10.00" fill="white">98 Files</text>
<text xml:space="preserve" text-anchor="middle" x="292.12" y="-128" font-family="Arial" font-size="10.00" fill="white">2D Drawings</text>
</g>
<!-- files_hub&#45;&gt;pdf_files -->
<g id="edge15" class="edge">
<title>files_hub&#45;&gt;pdf_files</title>
<path fill="none" stroke="#66bb6a" stroke-width="1.5" d="M273.88,-259.51C273.88,-259.51 273.88,-178.39 273.88,-178.39"/>
<polygon fill="#66bb6a" stroke="#66bb6a" stroke-width="1.5" points="277.38,-178.39 273.88,-168.39 270.38,-178.39 277.38,-178.39"/>
</g>
<!-- zip_files -->
<g id="node15" class="node">
<title>zip_files</title>
<path fill="#66bb6a" stroke="black" stroke-width="1.5" d="M437.25,-165.5C437.25,-165.5 377,-165.5 377,-165.5 371,-165.5 365,-159.5 365,-153.5 365,-153.5 365,-133.5 365,-133.5 365,-127.5 371,-121.5 377,-121.5 377,-121.5 437.25,-121.5 437.25,-121.5 443.25,-121.5 449.25,-127.5 449.25,-133.5 449.25,-133.5 449.25,-153.5 449.25,-153.5 449.25,-159.5 443.25,-165.5 437.25,-165.5"/>
<text xml:space="preserve" text-anchor="middle" x="407.12" y="-152" font-family="Arial" font-size="10.00" fill="white">ZIP Archives</text>
<text xml:space="preserve" text-anchor="middle" x="407.12" y="-140" font-family="Arial" font-size="10.00" fill="white">19 Files</text>
<text xml:space="preserve" text-anchor="middle" x="407.12" y="-128" font-family="Arial" font-size="10.00" fill="white">Bundled Assets</text>
</g>
<!-- files_hub&#45;&gt;zip_files -->
<g id="edge16" class="edge">
<title>files_hub&#45;&gt;zip_files</title>
<path fill="none" stroke="#66bb6a" stroke-width="1.5" d="M330.5,-278C339.93,-278 347.38,-278 347.38,-278 347.38,-278 347.38,-144 347.38,-144 347.38,-144 352.07,-144 352.07,-144"/>
<polygon fill="#66bb6a" stroke="#66bb6a" stroke-width="1.5" points="352.07,-147.5 362.07,-144 352.07,-140.5 352.07,-147.5"/>
</g>
<!-- files_hub&#45;&gt;community_hub -->
<g id="edge24" class="edge">
<title>files_hub&#45;&gt;community_hub</title>
<path fill="none" stroke="#78909c" stroke-width="1.5" stroke-dasharray="5,2" d="M310.38,-259.33C310.38,-244.02 310.38,-225 310.38,-225 310.38,-225 1146.81,-225 1146.81,-225 1146.81,-225 1146.81,-174.67 1146.81,-174.67"/>
<polygon fill="#78909c" stroke="#78909c" stroke-width="1.5" points="1150.31,-174.67 1146.81,-164.67 1143.31,-174.67 1150.31,-174.67"/>
<text xml:space="preserve" text-anchor="middle" x="1004.38" y="-204.7" font-family="Times New Roman,serif" font-size="14.00">enables</text>
</g>
<!-- firmware_hub&#45;&gt;product_hub -->
<g id="edge25" class="edge">
<title>firmware_hub&#45;&gt;product_hub</title>
<path fill="none" stroke="#78909c" stroke-width="1.5" stroke-dasharray="5,2" d="M858.47,-546C836.29,-546 813.29,-546 813.29,-546 813.29,-546 813.29,-446.53 813.29,-446.53"/>
<polygon fill="#78909c" stroke="#78909c" stroke-width="1.5" points="816.79,-446.53 813.29,-436.53 809.79,-446.53 816.79,-446.53"/>
<text xml:space="preserve" text-anchor="middle" x="852.62" y="-478.7" font-family="Times New Roman,serif" font-size="14.00">powers</text>
</g>
<!-- qmk -->
<g id="node17" class="node">
<title>qmk</title>
<path fill="#e65100" stroke="black" stroke-width="2" d="M1061.75,-439.5C1061.75,-439.5 986.5,-439.5 986.5,-439.5 980.5,-439.5 974.5,-433.5 974.5,-427.5 974.5,-427.5 974.5,-403 974.5,-403 974.5,-397 980.5,-391 986.5,-391 986.5,-391 1061.75,-391 1061.75,-391 1067.75,-391 1073.75,-397 1073.75,-403 1073.75,-403 1073.75,-427.5 1073.75,-427.5 1073.75,-433.5 1067.75,-439.5 1061.75,-439.5"/>
<text xml:space="preserve" text-anchor="middle" x="1024.12" y="-425.05" font-family="Arial" font-size="11.00" fill="white">QMK</text>
<text xml:space="preserve" text-anchor="middle" x="1024.12" y="-411.55" font-family="Arial" font-size="11.00" fill="white">Wired Keyboards</text>
<text xml:space="preserve" text-anchor="middle" x="1024.12" y="-398.05" font-family="Arial" font-size="11.00" fill="white">USB Connection</text>
</g>
<!-- firmware_hub&#45;&gt;qmk -->
<g id="edge17" class="edge">
<title>firmware_hub&#45;&gt;qmk</title>
<path fill="none" stroke="#ff9800" stroke-width="1.5" d="M939.71,-540C976.21,-540 1024.12,-540 1024.12,-540 1024.12,-540 1024.12,-452.77 1024.12,-452.77"/>
<polygon fill="#ff9800" stroke="#ff9800" stroke-width="1.5" points="1027.63,-452.77 1024.13,-442.77 1020.63,-452.77 1027.63,-452.77"/>
</g>
<!-- zmk -->
<g id="node18" class="node">
<title>zmk</title>
<path fill="#e65100" stroke="black" stroke-width="2" d="M1210.12,-439.5C1210.12,-439.5 1122.12,-439.5 1122.12,-439.5 1116.12,-439.5 1110.12,-433.5 1110.12,-427.5 1110.12,-427.5 1110.12,-403 1110.12,-403 1110.12,-397 1116.12,-391 1122.12,-391 1122.12,-391 1210.12,-391 1210.12,-391 1216.12,-391 1222.12,-397 1222.12,-403 1222.12,-403 1222.12,-427.5 1222.12,-427.5 1222.12,-433.5 1216.12,-439.5 1210.12,-439.5"/>
<text xml:space="preserve" text-anchor="middle" x="1166.12" y="-425.05" font-family="Arial" font-size="11.00" fill="white">ZMK</text>
<text xml:space="preserve" text-anchor="middle" x="1166.12" y="-411.55" font-family="Arial" font-size="11.00" fill="white">Wireless Keyboards</text>
<text xml:space="preserve" text-anchor="middle" x="1166.12" y="-398.05" font-family="Arial" font-size="11.00" fill="white">Bluetooth</text>
</g>
<!-- firmware_hub&#45;&gt;zmk -->
<g id="edge18" class="edge">
<title>firmware_hub&#45;&gt;zmk</title>
<path fill="none" stroke="#ff9800" stroke-width="1.5" d="M939.97,-552C1014.76,-552 1166.12,-552 1166.12,-552 1166.12,-552 1166.12,-452.6 1166.12,-452.6"/>
<polygon fill="#ff9800" stroke="#ff9800" stroke-width="1.5" points="1169.63,-452.6 1166.13,-442.6 1162.63,-452.6 1169.63,-452.6"/>
</g>
<!-- zgm -->
<g id="node19" class="node">
<title>zgm</title>
<path fill="#e65100" stroke="black" stroke-width="2" d="M926.62,-439.5C926.62,-439.5 871.62,-439.5 871.62,-439.5 865.62,-439.5 859.62,-433.5 859.62,-427.5 859.62,-427.5 859.62,-403 859.62,-403 859.62,-397 865.62,-391 871.62,-391 871.62,-391 926.62,-391 926.62,-391 932.62,-391 938.62,-397 938.62,-403 938.62,-403 938.62,-427.5 938.62,-427.5 938.62,-433.5 932.62,-439.5 926.62,-439.5"/>
<text xml:space="preserve" text-anchor="middle" x="899.12" y="-425.05" font-family="Arial" font-size="11.00" fill="white">ZGM</text>
<text xml:space="preserve" text-anchor="middle" x="899.12" y="-411.55" font-family="Arial" font-size="11.00" fill="white">Gaming Mice</text>
<text xml:space="preserve" text-anchor="middle" x="899.12" y="-398.05" font-family="Arial" font-size="11.00" fill="white">High Polling</text>
</g>
<!-- firmware_hub&#45;&gt;zgm -->
<g id="edge19" class="edge">
<title>firmware_hub&#45;&gt;zgm</title>
<path fill="none" stroke="#ff9800" stroke-width="1.5" d="M899.12,-527.27C899.12,-527.27 899.12,-452.48 899.12,-452.48"/>
<polygon fill="#ff9800" stroke="#ff9800" stroke-width="1.5" points="902.63,-452.48 899.13,-442.48 895.63,-452.48 902.63,-452.48"/>
</g>
<!-- contributors -->
<g id="node21" class="node">
<title>contributors</title>
<path fill="#6a1b9a" stroke="black" stroke-width="2" d="M1087,-48.5C1087,-48.5 1031.25,-48.5 1031.25,-48.5 1025.25,-48.5 1019.25,-42.5 1019.25,-36.5 1019.25,-36.5 1019.25,-12 1019.25,-12 1019.25,-6 1025.25,0 1031.25,0 1031.25,0 1087,0 1087,0 1093,0 1099,-6 1099,-12 1099,-12 1099,-36.5 1099,-36.5 1099,-42.5 1093,-48.5 1087,-48.5"/>
<text xml:space="preserve" text-anchor="middle" x="1059.12" y="-34.05" font-family="Arial" font-size="11.00" fill="white">Contributors</text>
<text xml:space="preserve" text-anchor="middle" x="1059.12" y="-20.55" font-family="Arial" font-size="11.00" fill="white">Code &amp; CAD</text>
<text xml:space="preserve" text-anchor="middle" x="1059.12" y="-7.05" font-family="Arial" font-size="11.00" fill="white">Submissions</text>
</g>
<!-- community_hub&#45;&gt;contributors -->
<g id="edge20" class="edge">
<title>community_hub&#45;&gt;contributors</title>
<path fill="none" stroke="#ab47bc" stroke-width="1.5" d="M1130.75,-124.56C1130.75,-90.87 1130.75,-24 1130.75,-24 1130.75,-24 1112.23,-24 1112.23,-24"/>
<polygon fill="#ab47bc" stroke="#ab47bc" stroke-width="1.5" points="1112.23,-20.5 1102.23,-24 1112.23,-27.5 1112.23,-20.5"/>
</g>
<!-- makers -->
<g id="node22" class="node">
<title>makers</title>
<path fill="#6a1b9a" stroke="black" stroke-width="2" d="M1209,-48.5C1209,-48.5 1147.25,-48.5 1147.25,-48.5 1141.25,-48.5 1135.25,-42.5 1135.25,-36.5 1135.25,-36.5 1135.25,-12 1135.25,-12 1135.25,-6 1141.25,0 1147.25,0 1147.25,0 1209,0 1209,0 1215,0 1221,-6 1221,-12 1221,-12 1221,-36.5 1221,-36.5 1221,-42.5 1215,-48.5 1209,-48.5"/>
<text xml:space="preserve" text-anchor="middle" x="1178.12" y="-34.05" font-family="Arial" font-size="11.00" fill="white">Makers</text>
<text xml:space="preserve" text-anchor="middle" x="1178.12" y="-20.55" font-family="Arial" font-size="11.00" fill="white">3D Printing</text>
<text xml:space="preserve" text-anchor="middle" x="1178.12" y="-7.05" font-family="Arial" font-size="11.00" fill="white">Custom Builds</text>
</g>
<!-- community_hub&#45;&gt;makers -->
<g id="edge21" class="edge">
<title>community_hub&#45;&gt;makers</title>
<path fill="none" stroke="#ab47bc" stroke-width="1.5" d="M1178.12,-124.6C1178.12,-124.6 1178.12,-61.55 1178.12,-61.55"/>
<polygon fill="#ab47bc" stroke="#ab47bc" stroke-width="1.5" points="1181.63,-61.55 1178.13,-51.55 1174.63,-61.55 1181.63,-61.55"/>
</g>
<!-- accessory_makers -->
<g id="node23" class="node">
<title>accessory_makers</title>
<path fill="#6a1b9a" stroke="black" stroke-width="2" d="M1349,-48.5C1349,-48.5 1269.25,-48.5 1269.25,-48.5 1263.25,-48.5 1257.25,-42.5 1257.25,-36.5 1257.25,-36.5 1257.25,-12 1257.25,-12 1257.25,-6 1263.25,0 1269.25,0 1269.25,0 1349,0 1349,0 1355,0 1361,-6 1361,-12 1361,-12 1361,-36.5 1361,-36.5 1361,-42.5 1355,-48.5 1349,-48.5"/>
<text xml:space="preserve" text-anchor="middle" x="1309.12" y="-34.05" font-family="Arial" font-size="11.00" fill="white">Accessory Makers</text>
<text xml:space="preserve" text-anchor="middle" x="1309.12" y="-20.55" font-family="Arial" font-size="11.00" fill="white">Plates, Cases</text>
<text xml:space="preserve" text-anchor="middle" x="1309.12" y="-7.05" font-family="Arial" font-size="11.00" fill="white">Keycaps</text>
</g>
<!-- community_hub&#45;&gt;accessory_makers -->
<g id="edge22" class="edge">
<title>community_hub&#45;&gt;accessory_makers</title>
<path fill="none" stroke="#ab47bc" stroke-width="1.5" d="M1225.5,-124.56C1225.5,-90.87 1225.5,-24 1225.5,-24 1225.5,-24 1244.37,-24 1244.37,-24"/>
<polygon fill="#ab47bc" stroke="#ab47bc" stroke-width="1.5" points="1244.37,-27.5 1254.37,-24 1244.37,-20.5 1244.37,-27.5"/>
</g>
</g>
</svg>
