<?xml version="1.0" encoding="UTF-8" standalone="no"?>
<!DOCTYPE svg PUBLIC "-//W3C//DTD SVG 1.1//EN"
 "http://www.w3.org/Graphics/SVG/1.1/DTD/svg11.dtd">
<!-- Generated by graphviz version 14.1.2 (0)
 -->
<!-- Title: G Pages: 1 -->
<svg width="3158pt" height="1092pt"
 viewBox="0.00 0.00 3158.00 1092.00" xmlns="http://www.w3.org/2000/svg" xmlns:xlink="http://www.w3.org/1999/xlink">
<g id="graph0" class="graph" transform="scale(2.08333 2.08333) rotate(0) translate(4 520)">
<title>G</title>
<!-- legacy -->
<g id="node1" class="node">
<title>legacy</title>
<path fill="#e8f5e9" stroke="#2e7d32" stroke-width="1.5" d="M58,-115.25C58,-115.25 18,-115.25 18,-115.25 12,-115.25 6,-109.25 6,-103.25 6,-103.25 6,-90.75 6,-90.75 6,-84.75 12,-78.75 18,-78.75 18,-78.75 58,-78.75 58,-78.75 64,-78.75 70,-84.75 70,-90.75 70,-90.75 70,-103.25 70,-103.25 70,-109.25 64,-115.25 58,-115.25"/>
<text xml:space="preserve" text-anchor="middle" x="38" y="-100.8" font-family="Inter" font-size="11.00" fill="#1b5e20">Legacy</text>
<text xml:space="preserve" text-anchor="middle" x="38" y="-86.55" font-family="Inter" font-size="11.00" fill="#1b5e20">Codebase</text>
</g>
<!-- p1 -->
<g id="node2" class="node">
<title>p1</title>
<path fill="#e3f2fd" stroke="#1565c0" stroke-width="1.5" d="M267.25,-75.25C267.25,-75.25 197.25,-75.25 197.25,-75.25 191.25,-75.25 185.25,-69.25 185.25,-63.25 185.25,-63.25 185.25,-50.75 185.25,-50.75 185.25,-44.75 191.25,-38.75 197.25,-38.75 197.25,-38.75 267.25,-38.75 267.25,-38.75 273.25,-38.75 279.25,-44.75 279.25,-50.75 279.25,-50.75 279.25,-63.25 279.25,-63.25 279.25,-69.25 273.25,-75.25 267.25,-75.25"/>
<text xml:space="preserve" text-anchor="middle" x="232.25" y="-60.8" font-family="Inter" font-size="11.00" fill="#0d47a1">Phase 1</text>
<text xml:space="preserve" text-anchor="middle" x="232.25" y="-46.55" font-family="Inter" font-size="11.00" fill="#0d47a1">Reconnaissance</text>
</g>
<!-- legacy&#45;&gt;p1 -->
<g id="edge1" class="edge">
<title>legacy&#45;&gt;p1</title>
<path fill="none" stroke="#546e7a" stroke-width="1.5" d="M70.48,-97C116.39,-97 194.75,-97 194.75,-97 194.75,-97 194.75,-85.87 194.75,-85.87"/>
<polygon fill="#546e7a" stroke="#546e7a" stroke-width="1.5" points="197.55,-85.87 194.75,-77.87 191.95,-85.87 197.55,-85.87"/>
<text xml:space="preserve" text-anchor="middle" x="130.62" y="-100.45" font-family="Inter" font-size="9.00" fill="#37474f">install</text>
</g>
<!-- p2 -->
<g id="node3" class="node">
<title>p2</title>
<path fill="#e3f2fd" stroke="#1565c0" stroke-width="1.5" d="M475,-75.25C475,-75.25 431.25,-75.25 431.25,-75.25 425.25,-75.25 419.25,-69.25 419.25,-63.25 419.25,-63.25 419.25,-50.75 419.25,-50.75 419.25,-44.75 425.25,-38.75 431.25,-38.75 431.25,-38.75 475,-38.75 475,-38.75 481,-38.75 487,-44.75 487,-50.75 487,-50.75 487,-63.25 487,-63.25 487,-69.25 481,-75.25 475,-75.25"/>
<text xml:space="preserve" text-anchor="middle" x="453.12" y="-60.8" font-family="Inter" font-size="11.00" fill="#0d47a1">Phase 2</text>
<text xml:space="preserve" text-anchor="middle" x="453.12" y="-46.55" font-family="Inter" font-size="11.00" fill="#0d47a1">Excavation</text>
</g>
<!-- p1&#45;&gt;p2 -->
<g id="edge2" class="edge">
<title>p1&#45;&gt;p2</title>
<path fill="none" stroke="#546e7a" stroke-width="1.5" d="M279.9,-57C279.9,-57 408.28,-57 408.28,-57"/>
<polygon fill="#546e7a" stroke="#546e7a" stroke-width="1.5" points="408.28,-59.8 416.28,-57 408.28,-54.2 408.28,-59.8"/>
<text xml:space="preserve" text-anchor="middle" x="346.25" y="-60.45" font-family="Inter" font-size="9.00" fill="#37474f">surface.json</text>
</g>
<!-- p3 -->
<g id="node4" class="node">
<title>p3</title>
<path fill="#e3f2fd" stroke="#1565c0" stroke-width="1.5" d="M703,-315.25C703,-315.25 644.25,-315.25 644.25,-315.25 638.25,-315.25 632.25,-309.25 632.25,-303.25 632.25,-303.25 632.25,-290.75 632.25,-290.75 632.25,-284.75 638.25,-278.75 644.25,-278.75 644.25,-278.75 703,-278.75 703,-278.75 709,-278.75 715,-284.75 715,-290.75 715,-290.75 715,-303.25 715,-303.25 715,-309.25 709,-315.25 703,-315.25"/>
<text xml:space="preserve" text-anchor="middle" x="673.62" y="-300.8" font-family="Inter" font-size="11.00" fill="#0d47a1">Phase 3</text>
<text xml:space="preserve" text-anchor="middle" x="673.62" y="-286.55" font-family="Inter" font-size="11.00" fill="#0d47a1">Interpretation</text>
</g>
<!-- p2&#45;&gt;p3 -->
<g id="edge3" class="edge">
<title>p2&#45;&gt;p3</title>
<path fill="none" stroke="#546e7a" stroke-width="1.5" d="M487.6,-57C549.65,-57 673.75,-57 673.75,-57 673.75,-57 673.75,-267.9 673.75,-267.9"/>
<polygon fill="#546e7a" stroke="#546e7a" stroke-width="1.5" points="670.95,-267.9 673.75,-275.9 676.55,-267.9 670.95,-267.9"/>
<text xml:space="preserve" text-anchor="middle" x="562.62" y="-141.45" font-family="Inter" font-size="9.00" fill="#37474f">modules.json</text>
</g>
<!-- p4 -->
<g id="node5" class="node">
<title>p4</title>
<path fill="#e3f2fd" stroke="#1565c0" stroke-width="1.5" d="M905.5,-315.25C905.5,-315.25 860.25,-315.25 860.25,-315.25 854.25,-315.25 848.25,-309.25 848.25,-303.25 848.25,-303.25 848.25,-290.75 848.25,-290.75 848.25,-284.75 854.25,-278.75 860.25,-278.75 860.25,-278.75 905.5,-278.75 905.5,-278.75 911.5,-278.75 917.5,-284.75 917.5,-290.75 917.5,-290.75 917.5,-303.25 917.5,-303.25 917.5,-309.25 911.5,-315.25 905.5,-315.25"/>
<text xml:space="preserve" text-anchor="middle" x="882.88" y="-300.8" font-family="Inter" font-size="11.00" fill="#0d47a1">Phase 4</text>
<text xml:space="preserve" text-anchor="middle" x="882.88" y="-286.55" font-family="Inter" font-size="11.00" fill="#0d47a1">Generation</text>
</g>
<!-- p3&#45;&gt;p4 -->
<g id="edge4" class="edge">
<title>p3&#45;&gt;p4</title>
<path fill="none" stroke="#546e7a" stroke-width="1.5" d="M715.72,-297C715.72,-297 837.52,-297 837.52,-297"/>
<polygon fill="#546e7a" stroke="#546e7a" stroke-width="1.5" points="837.52,-299.8 845.52,-297 837.52,-294.2 837.52,-299.8"/>
<text xml:space="preserve" text-anchor="middle" x="781.62" y="-312.45" font-family="Inter" font-size="9.00" fill="#37474f">domain +</text>
<text xml:space="preserve" text-anchor="middle" x="781.62" y="-300.45" font-family="Inter" font-size="9.00" fill="#37474f">architecture</text>
</g>
<!-- p5 -->
<g id="node6" class="node">
<title>p5</title>
<path fill="#e3f2fd" stroke="#1565c0" stroke-width="1.5" d="M1089.25,-315.25C1089.25,-315.25 1058.25,-315.25 1058.25,-315.25 1052.25,-315.25 1046.25,-309.25 1046.25,-303.25 1046.25,-303.25 1046.25,-290.75 1046.25,-290.75 1046.25,-284.75 1052.25,-278.75 1058.25,-278.75 1058.25,-278.75 1089.25,-278.75 1089.25,-278.75 1095.25,-278.75 1101.25,-284.75 1101.25,-290.75 1101.25,-290.75 1101.25,-303.25 1101.25,-303.25 1101.25,-309.25 1095.25,-315.25 1089.25,-315.25"/>
<text xml:space="preserve" text-anchor="middle" x="1073.75" y="-300.8" font-family="Inter" font-size="11.00" fill="#0d47a1">Phase 5</text>
<text xml:space="preserve" text-anchor="middle" x="1073.75" y="-286.55" font-family="Inter" font-size="11.00" fill="#0d47a1">Review</text>
</g>
<!-- p4&#45;&gt;p5 -->
<g id="edge5" class="edge">
<title>p4&#45;&gt;p5</title>
<path fill="none" stroke="#546e7a" stroke-width="1.5" d="M917.88,-297C917.88,-297 1035.51,-297 1035.51,-297"/>
<polygon fill="#546e7a" stroke="#546e7a" stroke-width="1.5" points="1035.51,-299.8 1043.51,-297 1035.51,-294.2 1035.51,-299.8"/>
<text xml:space="preserve" text-anchor="middle" x="981.5" y="-300.45" font-family="Inter" font-size="9.00" fill="#37474f">SDD specs</text>
</g>
<!-- specs -->
<g id="node13" class="node">
<title>specs</title>
<path fill="#fff3e0" stroke="#e65100" stroke-width="1.5" d="M1306.75,-322.38C1306.75,-322.38 1236,-322.38 1236,-322.38 1230,-322.38 1224,-316.38 1224,-310.38 1224,-310.38 1224,-283.62 1224,-283.62 1224,-277.62 1230,-271.62 1236,-271.62 1236,-271.62 1306.75,-271.62 1306.75,-271.62 1312.75,-271.62 1318.75,-277.62 1318.75,-283.62 1318.75,-283.62 1318.75,-310.38 1318.75,-310.38 1318.75,-316.38 1312.75,-322.38 1306.75,-322.38"/>
<text xml:space="preserve" text-anchor="middle" x="1271.38" y="-307.93" font-family="Inter" font-size="11.00" fill="#bf360c">Executable</text>
<text xml:space="preserve" text-anchor="middle" x="1271.38" y="-293.68" font-family="Inter" font-size="11.00" fill="#bf360c">Specifications</text>
<text xml:space="preserve" text-anchor="middle" x="1271.38" y="-279.43" font-family="Inter" font-size="11.00" fill="#bf360c">(_reversa_sdd/)</text>
</g>
<!-- p5&#45;&gt;specs -->
<g id="edge6" class="edge">
<title>p5&#45;&gt;specs</title>
<path fill="none" stroke="#546e7a" stroke-width="1.5" d="M1101.65,-297C1101.65,-297 1213.17,-297 1213.17,-297"/>
<polygon fill="#546e7a" stroke="#546e7a" stroke-width="1.5" points="1213.17,-299.8 1221.17,-297 1213.17,-294.2 1213.17,-299.8"/>
<text xml:space="preserve" text-anchor="middle" x="1163" y="-300.45" font-family="Inter" font-size="9.00" fill="#37474f">validated</text>
</g>
<!-- a1 -->
<g id="node7" class="node">
<title>a1</title>
<polygon fill="#f3e5f5" stroke="#7b1fa2" stroke-width="1.2" points="259.25,-197 205.25,-197 205.25,-161 259.25,-161 259.25,-197"/>
<text xml:space="preserve" text-anchor="middle" x="232.25" y="-175.88" font-family="Inter" font-size="10.00" fill="#4a148c">Scout</text>
</g>
<!-- a1&#45;&gt;p1 -->
<g id="edge8" class="edge">
<title>a1&#45;&gt;p1</title>
<path fill="none" stroke="#7b1fa2" stroke-dasharray="5,2" d="M231.75,-160.47C231.75,-160.47 231.75,-85.22 231.75,-85.22"/>
<polygon fill="#7b1fa2" stroke="#7b1fa2" points="234.55,-85.22 231.75,-77.22 228.95,-85.22 234.55,-85.22"/>
</g>
<!-- a2 -->
<g id="node8" class="node">
<title>a2</title>
<polygon fill="#f3e5f5" stroke="#7b1fa2" stroke-width="1.2" points="490,-197 416.25,-197 416.25,-161 490,-161 490,-197"/>
<text xml:space="preserve" text-anchor="middle" x="453.12" y="-175.88" font-family="Inter" font-size="10.00" fill="#4a148c">Archaeologist</text>
</g>
<!-- a2&#45;&gt;p2 -->
<g id="edge9" class="edge">
<title>a2&#45;&gt;p2</title>
<path fill="none" stroke="#7b1fa2" stroke-dasharray="5,2" d="M452.75,-160.47C452.75,-160.47 452.75,-85.22 452.75,-85.22"/>
<polygon fill="#7b1fa2" stroke="#7b1fa2" points="455.55,-85.22 452.75,-77.22 449.95,-85.22 455.55,-85.22"/>
</g>
<!-- a3a -->
<g id="node9" class="node">
<title>a3a</title>
<polygon fill="#f3e5f5" stroke="#7b1fa2" stroke-width="1.2" points="701.88,-437 645.38,-437 645.38,-401 701.88,-401 701.88,-437"/>
<text xml:space="preserve" text-anchor="middle" x="673.62" y="-415.88" font-family="Inter" font-size="10.00" fill="#4a148c">Detective</text>
</g>
<!-- a3a&#45;&gt;p3 -->
<g id="edge10" class="edge">
<title>a3a&#45;&gt;p3</title>
<path fill="none" stroke="#7b1fa2" stroke-dasharray="5,2" d="M673.75,-400.47C673.75,-400.47 673.75,-325.22 673.75,-325.22"/>
<polygon fill="#7b1fa2" stroke="#7b1fa2" points="676.55,-325.22 673.75,-317.22 670.95,-325.22 676.55,-325.22"/>
</g>
<!-- a4 -->
<g id="node10" class="node">
<title>a4</title>
<polygon fill="#f3e5f5" stroke="#7b1fa2" stroke-width="1.2" points="909.88,-437 855.88,-437 855.88,-401 909.88,-401 909.88,-437"/>
<text xml:space="preserve" text-anchor="middle" x="882.88" y="-415.88" font-family="Inter" font-size="10.00" fill="#4a148c">Writer</text>
</g>
<!-- a4&#45;&gt;p4 -->
<g id="edge12" class="edge">
<title>a4&#45;&gt;p4</title>
<path fill="none" stroke="#7b1fa2" stroke-dasharray="5,2" d="M882.75,-400.47C882.75,-400.47 882.75,-325.22 882.75,-325.22"/>
<polygon fill="#7b1fa2" stroke="#7b1fa2" points="885.55,-325.22 882.75,-317.22 879.95,-325.22 885.55,-325.22"/>
</g>
<!-- a5 -->
<g id="node11" class="node">
<title>a5</title>
<polygon fill="#f3e5f5" stroke="#7b1fa2" stroke-width="1.2" points="1102,-437 1045.5,-437 1045.5,-401 1102,-401 1102,-437"/>
<text xml:space="preserve" text-anchor="middle" x="1073.75" y="-415.88" font-family="Inter" font-size="10.00" fill="#4a148c">Reviewer</text>
</g>
<!-- a5&#45;&gt;p5 -->
<g id="edge13" class="edge">
<title>a5&#45;&gt;p5</title>
<path fill="none" stroke="#7b1fa2" stroke-dasharray="5,2" d="M1073.75,-400.47C1073.75,-400.47 1073.75,-325.22 1073.75,-325.22"/>
<polygon fill="#7b1fa2" stroke="#7b1fa2" points="1076.55,-325.22 1073.75,-317.22 1070.95,-325.22 1076.55,-325.22"/>
</g>
<!-- a3b -->
<g id="node12" class="node">
<title>a3b</title>
<polygon fill="#f3e5f5" stroke="#7b1fa2" stroke-width="1.2" points="700.62,-516 646.62,-516 646.62,-480 700.62,-480 700.62,-516"/>
<text xml:space="preserve" text-anchor="middle" x="673.62" y="-494.88" font-family="Inter" font-size="10.00" fill="#4a148c">Architect</text>
</g>
<!-- a3b&#45;&gt;p3 -->
<g id="edge11" class="edge">
<title>a3b&#45;&gt;p3</title>
<path fill="none" stroke="#7b1fa2" stroke-dasharray="5,2" d="M646.18,-498C643.5,-498 641.75,-498 641.75,-498 641.75,-498 641.75,-325.42 641.75,-325.42"/>
<polygon fill="#7b1fa2" stroke="#7b1fa2" points="644.55,-325.42 641.75,-317.42 638.95,-325.42 644.55,-325.42"/>
</g>
<!-- ai_agent -->
<g id="node14" class="node">
<title>ai_agent</title>
<path fill="#fce4ec" stroke="#c62828" stroke-width="1.5" d="M1495.75,-315.25C1495.75,-315.25 1456.5,-315.25 1456.5,-315.25 1450.5,-315.25 1444.5,-309.25 1444.5,-303.25 1444.5,-303.25 1444.5,-290.75 1444.5,-290.75 1444.5,-284.75 1450.5,-278.75 1456.5,-278.75 1456.5,-278.75 1495.75,-278.75 1495.75,-278.75 1501.75,-278.75 1507.75,-284.75 1507.75,-290.75 1507.75,-290.75 1507.75,-303.25 1507.75,-303.25 1507.75,-309.25 1501.75,-315.25 1495.75,-315.25"/>
<text xml:space="preserve" text-anchor="middle" x="1476.12" y="-300.8" font-family="Inter" font-size="11.00" fill="#b71c1c">AI Coding</text>
<text xml:space="preserve" text-anchor="middle" x="1476.12" y="-286.55" font-family="Inter" font-size="11.00" fill="#b71c1c">Agent</text>
</g>
<!-- specs&#45;&gt;ai_agent -->
<g id="edge7" class="edge">
<title>specs&#45;&gt;ai_agent</title>
<path fill="none" stroke="#546e7a" stroke-width="1.5" d="M1319.38,-297C1319.38,-297 1433.77,-297 1433.77,-297"/>
<polygon fill="#546e7a" stroke="#546e7a" stroke-width="1.5" points="1433.77,-299.8 1441.77,-297 1433.77,-294.2 1433.77,-299.8"/>
<text xml:space="preserve" text-anchor="middle" x="1381.62" y="-300.45" font-family="Inter" font-size="9.00" fill="#37474f">consumes</text>
</g>
<!-- ind1 -->
<g id="node15" class="node">
<title>ind1</title>
<polygon fill="#f5f5f5" stroke="#616161" stroke-dasharray="5,2" points="480.12,-434 426.12,-434 426.12,-398 480.12,-398 480.12,-434"/>
<text xml:space="preserve" text-anchor="middle" x="453.12" y="-412.88" font-family="Inter" font-size="10.00" fill="#424242">Visor</text>
</g>
<!-- ind1&#45;&gt;p3 -->
<g id="edge14" class="edge">
<title>ind1&#45;&gt;p3</title>
<path fill="none" stroke="#9e9e9e" stroke-width="0.8" stroke-dasharray="1,5" d="M480.51,-417.5C532.15,-417.5 638.75,-417.5 638.75,-417.5 638.75,-417.5 638.75,-324.8 638.75,-324.8"/>
<polygon fill="#9e9e9e" stroke="#9e9e9e" stroke-width="0.8" points="638.75,-316.8 642.35,-324.8 638.75,-319.83 638.75,-324.8 638.75,-324.8 638.75,-324.8 638.75,-319.83 635.15,-324.8 638.75,-316.8"/>
<text xml:space="preserve" text-anchor="middle" x="562.62" y="-419.45" font-family="Inter" font-size="9.00" fill="#37474f">any phase</text>
</g>
<!-- ind2 -->
<g id="node16" class="node">
<title>ind2</title>
<polygon fill="#f5f5f5" stroke="#616161" stroke-dasharray="5,2" points="487.38,-355 418.88,-355 418.88,-319 487.38,-319 487.38,-355"/>
<text xml:space="preserve" text-anchor="middle" x="453.12" y="-333.88" font-family="Inter" font-size="10.00" fill="#424242">Data Master</text>
</g>
<!-- ind2&#45;&gt;p3 -->
<g id="edge15" class="edge">
<title>ind2&#45;&gt;p3</title>
<path fill="none" stroke="#9e9e9e" stroke-width="0.8" stroke-dasharray="1,5" d="M487.48,-338.69C540.38,-338.69 635.75,-338.69 635.75,-338.69 635.75,-338.69 635.75,-324.87 635.75,-324.87"/>
<polygon fill="#9e9e9e" stroke="#9e9e9e" stroke-width="0.8" points="635.75,-316.87 639.35,-324.87 635.75,-319.89 635.75,-324.87 635.75,-324.87 635.75,-324.87 635.75,-319.89 632.15,-324.87 635.75,-316.87"/>
</g>
<!-- ind3 -->
<g id="node17" class="node">
<title>ind3</title>
<polygon fill="#f5f5f5" stroke="#616161" stroke-dasharray="5,2" points="493,-276 413.25,-276 413.25,-240 493,-240 493,-276"/>
<text xml:space="preserve" text-anchor="middle" x="453.12" y="-254.88" font-family="Inter" font-size="10.00" fill="#424242">Design System</text>
</g>
<!-- ind3&#45;&gt;p3 -->
<g id="edge16" class="edge">
<title>ind3&#45;&gt;p3</title>
<path fill="none" stroke="#9e9e9e" stroke-width="0.8" stroke-dasharray="1,5" d="M452.75,-276.13C452.75,-286.31 452.75,-297 452.75,-297 452.75,-297 622.59,-297 622.59,-297"/>
<polygon fill="#9e9e9e" stroke="#9e9e9e" stroke-width="0.8" points="630.59,-297 622.59,-300.6 627.56,-297 622.59,-297 622.59,-297 622.59,-297 627.56,-297 622.59,-293.4 630.59,-297"/>
</g>
<!-- ind4 -->
<g id="node18" class="node">
<title>ind4</title>
<polygon fill="#f5f5f5" stroke="#616161" stroke-dasharray="5,2" points="76,-36 0,-36 0,0 76,0 76,-36"/>
<text xml:space="preserve" text-anchor="middle" x="38" y="-14.88" font-family="Inter" font-size="10.00" fill="#424242">Soul Extractor</text>
</g>
<!-- ind4&#45;&gt;p1 -->
<g id="edge17" class="edge">
<title>ind4&#45;&gt;p1</title>
<path fill="none" stroke="#9e9e9e" stroke-width="0.8" stroke-dasharray="1,5" d="M37.75,-36.13C37.75,-46.31 37.75,-57 37.75,-57 37.75,-57 175.7,-57 175.7,-57"/>
<polygon fill="#9e9e9e" stroke="#9e9e9e" stroke-width="0.8" points="183.7,-57 175.7,-60.6 180.67,-57 175.7,-57 175.7,-57 175.7,-57 180.67,-57 175.7,-53.4 183.7,-57"/>
</g>
</g>
</svg>
