<svg xmlns="http://www.w3.org/2000/svg" viewBox="0 0 960 600">
  <style>
    text { font-family: Inter, system-ui, -apple-system, sans-serif; }
    .mono { font-family: JetBrains Mono, Fira Code, monospace; }
    .title { font-size: 17px; font-weight: 700; fill: #1e293b; }
    .comp  { font-size: 12px; font-weight: 600; fill: #ffffff; }
    .comp-d { font-size: 12px; font-weight: 600; fill: #334155; }
    .label { font-size: 10px; fill: #64748b; }
    .anno  { font-size: 9px; fill: #94a3b8; }
    .legend { font-size: 9px; fill: #475569; }
  </style>
  <defs>
    <filter id="shadow"><feDropShadow dx="0" dy="2" stdDeviation="3" flood-opacity="0.1"/></filter>
    <marker id="arr-blue" markerWidth="8" markerHeight="6" refX="8" refY="3" orient="auto">
      <path d="M0,0 L8,3 L0,6 Z" fill="#2563eb"/>
    </marker>
    <marker id="arr-orange" markerWidth="8" markerHeight="6" refX="8" refY="3" orient="auto">
      <path d="M0,0 L8,3 L0,6 Z" fill="#ea580c"/>
    </marker>
    <marker id="arr-green" markerWidth="8" markerHeight="6" refX="8" refY="3" orient="auto">
      <path d="M0,0 L8,3 L0,6 Z" fill="#059669"/>
    </marker>
    <marker id="arr-purple" markerWidth="8" markerHeight="6" refX="8" refY="3" orient="auto">
      <path d="M0,0 L8,3 L0,6 Z" fill="#7c3aed"/>
    </marker>
    <marker id="arr-gray" markerWidth="8" markerHeight="6" refX="8" refY="3" orient="auto">
      <path d="M0,0 L8,3 L0,6 Z" fill="#64748b"/>
    </marker>
  </defs>
  <rect width="960" height="600" fill="#ffffff"/>
  <text x="480" y="28" text-anchor="middle" class="title">Crush — Architecture Overview</text>
  <circle cx="96" cy="96" r="16" fill="#f1f5f9" stroke="#94a3b8" stroke-width="1.5"/>
  <path d="M72,128 Q96,112 120,128" fill="none" stroke="#94a3b8" stroke-width="1.5"/>
  <text x="96" y="152" text-anchor="middle" class="comp-d">User</text>
  <rect x="48" y="184" width="144" height="40" rx="8" fill="#ec4899" filter="url(#shadow)"/>
  <text x="120" y="208" text-anchor="middle" class="comp">Bubble Tea TUI</text>
  <polygon points="380,200 430,174 530,174 580,200 530,226 430,226" fill="#2563eb" filter="url(#shadow)"/>
  <text x="480" y="196" text-anchor="middle" class="comp">Coordinator</text>
  <text x="480" y="210" text-anchor="middle" class="comp">(Orchestrator)</text>
  <rect x="56" y="296" width="128" height="36" rx="6" fill="#10b981" filter="url(#shadow)"/>
  <text x="120" y="318" text-anchor="middle" class="comp">Coder Agent</text>
  <rect x="200" y="296" width="128" height="36" rx="6" fill="#10b981" filter="url(#shadow)"/>
  <text x="264" y="318" text-anchor="middle" class="comp">Task Agent</text>
  <rect x="344" y="296" width="128" height="36" rx="6" fill="#6366f1" filter="url(#shadow)"/>
  <text x="408" y="318" text-anchor="middle" class="comp">LSP Client</text>
  <rect x="488" y="296" width="128" height="36" rx="6" fill="#8b5cf6" filter="url(#shadow)"/>
  <text x="552" y="318" text-anchor="middle" class="comp">MCP Servers</text>
  <rect x="632" y="296" width="128" height="36" rx="6" fill="#059669" filter="url(#shadow)"/>
  <text x="696" y="318" text-anchor="middle" class="comp">SQLite</text>
  <rect x="776" y="296" width="128" height="36" rx="6" fill="#f59e0b" filter="url(#shadow)"/>
  <text x="840" y="318" text-anchor="middle" class="comp">Hooks</text>
  <rect x="40" y="272" width="880" height="80" rx="8" fill="none" stroke="#94a3b8" stroke-width="1" stroke-dasharray="8 4"/>
  <text x="48" y="288" class="anno" fill="#94a3b8">Core Components</text>
  <rect x="88" y="416" width="96" height="32" rx="6" fill="#ef4444" filter="url(#shadow)"/>
  <text x="136" y="436" text-anchor="middle" class="comp">Fantasy</text>
  <rect x="192" y="416" width="96" height="32" rx="6" fill="#ef4444" filter="url(#shadow)"/>
  <text x="240" y="436" text-anchor="middle" class="comp">Bash</text>
  <rect x="296" y="416" width="96" height="32" rx="6" fill="#ef4444" filter="url(#shadow)"/>
  <text x="344" y="436" text-anchor="middle" class="comp">Edit</text>
  <rect x="400" y="416" width="96" height="32" rx="6" fill="#ef4444" filter="url(#shadow)"/>
  <text x="448" y="436" text-anchor="middle" class="comp">View</text>
  <rect x="504" y="416" width="96" height="32" rx="6" fill="#ef4444" filter="url(#shadow)"/>
  <text x="552" y="436" text-anchor="middle" class="comp">Grep</text>
  <rect x="608" y="416" width="96" height="32" rx="6" fill="#ef4444" filter="url(#shadow)"/>
  <text x="656" y="436" text-anchor="middle" class="comp">Write</text>
  <rect x="712" y="416" width="96" height="32" rx="6" fill="#ef4444" filter="url(#shadow)"/>
  <text x="760" y="436" text-anchor="middle" class="comp">Web</text>
  <rect x="72" y="400" width="816" height="64" rx="8" fill="none" stroke="#94a3b8" stroke-width="1" stroke-dasharray="8 4"/>
  <text x="80" y="416" class="anno" fill="#94a3b8">Built-in Tools</text>
  <path d="M96,160 L96,184" fill="none" stroke="#2563eb" stroke-width="1.5" marker-end="url(#arr-blue)"/>
  <path d="M192,204 L380,204" fill="none" stroke="#ea580c" stroke-width="1.5" marker-end="url(#arr-orange)"/>
  <line x1="480" y1="226" x2="480" y2="260" stroke="#ea580c" stroke-width="1.5"/>
  <line x1="120" y1="260" x2="840" y2="260" stroke="#ea580c" stroke-width="1.5"/>
  <path d="M120,260 L120,296" fill="none" stroke="#ea580c" stroke-width="1.5" marker-end="url(#arr-orange)"/>
  <path d="M264,260 L264,296" fill="none" stroke="#ea580c" stroke-width="1.5" marker-end="url(#arr-orange)"/>
  <path d="M408,260 L408,296" fill="none" stroke="#ea580c" stroke-width="1.5" marker-end="url(#arr-orange)"/>
  <path d="M552,260 L552,296" fill="none" stroke="#ea580c" stroke-width="1.5" marker-end="url(#arr-orange)"/>
  <path d="M696,260 L696,296" fill="none" stroke="#ea580c" stroke-width="1.5" marker-end="url(#arr-orange)"/>
  <path d="M840,260 L840,296" fill="none" stroke="#ea580c" stroke-width="1.5" marker-end="url(#arr-orange)"/>
  <line x1="480" y1="352" x2="480" y2="384" stroke="#2563eb" stroke-width="1.5"/>
  <line x1="136" y1="384" x2="824" y2="384" stroke="#2563eb" stroke-width="1.5"/>
  <path d="M136,384 L136,416" fill="none" stroke="#2563eb" stroke-width="1.5" marker-end="url(#arr-blue)"/>
  <path d="M240,384 L240,416" fill="none" stroke="#2563eb" stroke-width="1.5" marker-end="url(#arr-blue)"/>
  <path d="M344,384 L344,416" fill="none" stroke="#2563eb" stroke-width="1.5" marker-end="url(#arr-blue)"/>
  <path d="M448,384 L448,416" fill="none" stroke="#2563eb" stroke-width="1.5" marker-end="url(#arr-blue)"/>
  <path d="M552,384 L552,416" fill="none" stroke="#2563eb" stroke-width="1.5" marker-end="url(#arr-blue)"/>
  <path d="M656,384 L656,416" fill="none" stroke="#2563eb" stroke-width="1.5" marker-end="url(#arr-blue)"/>
  <path d="M760,384 L760,416" fill="none" stroke="#2563eb" stroke-width="1.5" marker-end="url(#arr-blue)"/>
  <rect x="760" y="520" width="140" height="52" rx="4" fill="#f8fafc" stroke="#e2e8f0" stroke-width="1"/>
  <text x="830" y="532" text-anchor="middle" class="legend" font-weight="600">Legend</text>
  <line x1="768" y1="544" x2="792" y2="544" stroke="#2563eb" stroke-width="1.5"/>
  <text x="800" y="548" class="legend">Data Flow</text>
  <line x1="768" y1="562" x2="792" y2="562" stroke="#ea580c" stroke-width="1.5"/>
  <text x="800" y="566" class="legend">Control</text>
</svg>