<?xml version="1.0" encoding="UTF-8" standalone="no"?>
<!DOCTYPE svg PUBLIC "-//W3C//DTD SVG 1.1//EN"
 "http://www.w3.org/Graphics/SVG/1.1/DTD/svg11.dtd">
<!-- Generated by graphviz version 14.1.2 (0)
 -->
<!-- Title: crush_multi_provider Pages: 1 -->
<svg width="1545pt" height="373pt"
 viewBox="0.00 0.00 1545.00 373.00" xmlns="http://www.w3.org/2000/svg" xmlns:xlink="http://www.w3.org/1999/xlink">
<style>
<!-- White text halo for edge label readability -->
text { paint-order: stroke; stroke: #ffffff; stroke-width: 3px; stroke-linejoin: round; fill: #1a1a2e; }
</style>
<g id="graph0" class="graph" transform="scale(1 1) rotate(0) translate(4 369.25)">
<title>crush_multi_provider</title>
<polygon fill="white" stroke="none" points="-4,4 -4,-369.25 1541,-369.25 1541,4 -4,4"/>
<text xml:space="preserve" text-anchor="middle" x="768.5" y="-7.2" font-family="Times New Roman,serif" font-size="14.00">Crush &#45; Multi&#45;Provider LLM Architecture</text>
<g id="clust1" class="cluster">
<title>cluster_anthropic</title>
<polygon fill="none" stroke="#d32f2f" stroke-dasharray="5,2" points="116,-32.5 116,-106 466,-106 466,-32.5 116,-32.5"/>
<text xml:space="preserve" text-anchor="middle" x="291" y="-91.55" font-family="Times New Roman,serif" font-size="11.00" fill="#d32f2f">Anthropic&#45;Compatible</text>
</g>
<g id="clust2" class="cluster">
<title>cluster_openai</title>
<polygon fill="none" stroke="#10a37f" stroke-dasharray="5,2" points="485,-32.5 485,-106 1032,-106 1032,-32.5 485,-32.5"/>
<text xml:space="preserve" text-anchor="middle" x="758.5" y="-91.55" font-family="Times New Roman,serif" font-size="11.00" fill="#10a37f">OpenAI&#45;Compatible</text>
</g>
<g id="clust3" class="cluster">
<title>cluster_other</title>
<polygon fill="none" stroke="#009688" stroke-dasharray="5,2" points="1052,-32.5 1052,-106 1529,-106 1529,-32.5 1052,-32.5"/>
<text xml:space="preserve" text-anchor="middle" x="1290.5" y="-91.55" font-family="Times New Roman,serif" font-size="11.00" fill="#009688">Other Providers</text>
</g>
<!-- user_mp -->
<g id="node1" class="node">
<title>user_mp</title>
<polygon fill="#4caf50" stroke="black" points="776,-365.25 628,-365.25 628,-329.25 776,-329.25 776,-365.25"/>
<text xml:space="preserve" text-anchor="middle" x="702" y="-350.3" font-family="Arial" font-size="11.00" fill="white">User</text>
<text xml:space="preserve" text-anchor="middle" x="702" y="-336.8" font-family="Arial" font-size="11.00" fill="white">Switch Models Mid&#45;Session</text>
</g>
<!-- tui_mp -->
<g id="node2" class="node">
<title>tui_mp</title>
<path fill="#2196f3" stroke="black" d="M747.5,-271.25C747.5,-271.25 656.5,-271.25 656.5,-271.25 650.5,-271.25 644.5,-265.25 644.5,-259.25 644.5,-259.25 644.5,-246.75 644.5,-246.75 644.5,-240.75 650.5,-234.75 656.5,-234.75 656.5,-234.75 747.5,-234.75 747.5,-234.75 753.5,-234.75 759.5,-240.75 759.5,-246.75 759.5,-246.75 759.5,-259.25 759.5,-259.25 759.5,-265.25 753.5,-271.25 747.5,-271.25"/>
<text xml:space="preserve" text-anchor="middle" x="702" y="-255.85" font-family="Arial Bold" font-size="12.00" fill="white">Crush TUI</text>
<text xml:space="preserve" text-anchor="middle" x="702" y="-241.6" font-family="Arial Bold" font-size="12.00" fill="white">Session Manager</text>
</g>
<!-- user_mp&#45;&gt;tui_mp -->
<g id="edge1" class="edge">
<title>user_mp&#45;&gt;tui_mp</title>
<path fill="none" stroke="#4caf50" stroke-width="2" d="M702,-329.08C702,-329.08 702,-284.47 702,-284.47"/>
<polygon fill="#4caf50" stroke="#4caf50" stroke-width="2" points="705.5,-284.47 702,-274.47 698.5,-284.47 705.5,-284.47"/>
</g>
<!-- fantasy_mp -->
<g id="node3" class="node">
<title>fantasy_mp</title>
<path fill="#9c27b0" stroke="black" d="M813.38,-176.75C813.38,-176.75 724.62,-176.75 724.62,-176.75 718.62,-176.75 712.62,-170.75 712.62,-164.75 712.62,-164.75 712.62,-152.75 712.62,-152.75 712.62,-146.75 718.62,-140.75 724.62,-140.75 724.62,-140.75 813.38,-140.75 813.38,-140.75 819.38,-140.75 825.38,-146.75 825.38,-152.75 825.38,-152.75 825.38,-164.75 825.38,-164.75 825.38,-170.75 819.38,-176.75 813.38,-176.75"/>
<text xml:space="preserve" text-anchor="middle" x="769" y="-161.8" font-family="Arial" font-size="11.00" fill="white">Fantasy</text>
<text xml:space="preserve" text-anchor="middle" x="769" y="-148.3" font-family="Arial" font-size="11.00" fill="white">Provider Abstraction</text>
</g>
<!-- tui_mp&#45;&gt;fantasy_mp -->
<g id="edge2" class="edge">
<title>tui_mp&#45;&gt;fantasy_mp</title>
<path fill="none" stroke="#2196f3" stroke-width="2" d="M736.06,-234.38C736.06,-234.38 736.06,-190.04 736.06,-190.04"/>
<polygon fill="#2196f3" stroke="#2196f3" stroke-width="2" points="739.56,-190.04 736.06,-180.04 732.56,-190.04 739.56,-190.04"/>
</g>
<!-- catwalk_mp -->
<g id="node4" class="node">
<title>catwalk_mp</title>
<path fill="#009688" stroke="black" d="M76,-82.75C76,-82.75 12,-82.75 12,-82.75 6,-82.75 0,-76.75 0,-70.75 0,-70.75 0,-46.25 0,-46.25 0,-40.25 6,-34.25 12,-34.25 12,-34.25 76,-34.25 76,-34.25 82,-34.25 88,-40.25 88,-46.25 88,-46.25 88,-70.75 88,-70.75 88,-76.75 82,-82.75 76,-82.75"/>
<text xml:space="preserve" text-anchor="middle" x="44" y="-68.3" font-family="Arial" font-size="11.00" fill="white">Catwalk</text>
<text xml:space="preserve" text-anchor="middle" x="44" y="-54.8" font-family="Arial" font-size="11.00" fill="white">Model Registry</text>
<text xml:space="preserve" text-anchor="middle" x="44" y="-41.3" font-family="Arial" font-size="11.00" fill="white">Auto&#45;Update</text>
</g>
<!-- fantasy_mp&#45;&gt;catwalk_mp -->
<g id="edge3" class="edge">
<title>fantasy_mp&#45;&gt;catwalk_mp</title>
<path fill="none" stroke="#009688" stroke-width="1.5" stroke-dasharray="5,2" d="M712.41,-170.5C541.78,-170.5 44,-170.5 44,-170.5 44,-170.5 44,-95.35 44,-95.35"/>
<polygon fill="#009688" stroke="#009688" stroke-width="1.5" points="47.5,-95.35 44,-85.35 40.5,-95.35 47.5,-95.35"/>
</g>
<!-- anthropic -->
<g id="node5" class="node">
<title>anthropic</title>
<path fill="#d32f2f" stroke="black" d="M193.62,-76.5C193.62,-76.5 136.38,-76.5 136.38,-76.5 130.38,-76.5 124.38,-70.5 124.38,-64.5 124.38,-64.5 124.38,-52.5 124.38,-52.5 124.38,-46.5 130.38,-40.5 136.38,-40.5 136.38,-40.5 193.62,-40.5 193.62,-40.5 199.62,-40.5 205.62,-46.5 205.62,-52.5 205.62,-52.5 205.62,-64.5 205.62,-64.5 205.62,-70.5 199.62,-76.5 193.62,-76.5"/>
<text xml:space="preserve" text-anchor="middle" x="165" y="-61" font-family="Arial" font-size="10.00" fill="white">Anthropic</text>
<text xml:space="preserve" text-anchor="middle" x="165" y="-49" font-family="Arial" font-size="10.00" fill="white">Claude Models</text>
</g>
<!-- fantasy_mp&#45;&gt;anthropic -->
<g id="edge5" class="edge">
<title>fantasy_mp&#45;&gt;anthropic</title>
<path fill="none" stroke="#d32f2f" stroke-width="1.5" d="M712.18,-164.5C561.82,-164.5 165,-164.5 165,-164.5 165,-164.5 165,-89.23 165,-89.23"/>
<polygon fill="#d32f2f" stroke="#d32f2f" stroke-width="1.5" points="168.5,-89.23 165,-79.23 161.5,-89.23 168.5,-89.23"/>
</g>
<!-- bedrock -->
<g id="node6" class="node">
<title>bedrock</title>
<path fill="#ff9800" stroke="black" d="M320.5,-76.5C320.5,-76.5 253.5,-76.5 253.5,-76.5 247.5,-76.5 241.5,-70.5 241.5,-64.5 241.5,-64.5 241.5,-52.5 241.5,-52.5 241.5,-46.5 247.5,-40.5 253.5,-40.5 253.5,-40.5 320.5,-40.5 320.5,-40.5 326.5,-40.5 332.5,-46.5 332.5,-52.5 332.5,-52.5 332.5,-64.5 332.5,-64.5 332.5,-70.5 326.5,-76.5 320.5,-76.5"/>
<text xml:space="preserve" text-anchor="middle" x="287" y="-61" font-family="Arial" font-size="10.00" fill="white">Amazon Bedrock</text>
<text xml:space="preserve" text-anchor="middle" x="287" y="-49" font-family="Arial" font-size="10.00" fill="white">Claude via AWS</text>
</g>
<!-- fantasy_mp&#45;&gt;bedrock -->
<g id="edge6" class="edge">
<title>fantasy_mp&#45;&gt;bedrock</title>
<path fill="none" stroke="#ff9800" stroke-width="1.5" d="M712.29,-158.5C584.88,-158.5 287,-158.5 287,-158.5 287,-158.5 287,-89.11 287,-89.11"/>
<polygon fill="#ff9800" stroke="#ff9800" stroke-width="1.5" points="290.5,-89.11 287,-79.11 283.5,-89.11 290.5,-89.11"/>
</g>
<!-- vertex -->
<g id="node7" class="node">
<title>vertex</title>
<path fill="#4285f4" stroke="black" d="M445.75,-76.5C445.75,-76.5 380.25,-76.5 380.25,-76.5 374.25,-76.5 368.25,-70.5 368.25,-64.5 368.25,-64.5 368.25,-52.5 368.25,-52.5 368.25,-46.5 374.25,-40.5 380.25,-40.5 380.25,-40.5 445.75,-40.5 445.75,-40.5 451.75,-40.5 457.75,-46.5 457.75,-52.5 457.75,-52.5 457.75,-64.5 457.75,-64.5 457.75,-70.5 451.75,-76.5 445.75,-76.5"/>
<text xml:space="preserve" text-anchor="middle" x="413" y="-61" font-family="Arial" font-size="10.00" fill="white">Google Vertex AI</text>
<text xml:space="preserve" text-anchor="middle" x="413" y="-49" font-family="Arial" font-size="10.00" fill="white">Claude + Gemini</text>
</g>
<!-- fantasy_mp&#45;&gt;vertex -->
<g id="edge7" class="edge">
<title>fantasy_mp&#45;&gt;vertex</title>
<path fill="none" stroke="#4285f4" stroke-width="1.5" d="M712.2,-152.5C611.69,-152.5 413,-152.5 413,-152.5 413,-152.5 413,-88.89 413,-88.89"/>
<polygon fill="#4285f4" stroke="#4285f4" stroke-width="1.5" points="416.5,-88.89 413,-78.89 409.5,-88.89 416.5,-88.89"/>
</g>
<!-- openai -->
<g id="node8" class="node">
<title>openai</title>
<path fill="#10a37f" stroke="black" d="M568.62,-76.5C568.62,-76.5 505.38,-76.5 505.38,-76.5 499.38,-76.5 493.38,-70.5 493.38,-64.5 493.38,-64.5 493.38,-52.5 493.38,-52.5 493.38,-46.5 499.38,-40.5 505.38,-40.5 505.38,-40.5 568.62,-40.5 568.62,-40.5 574.62,-40.5 580.62,-46.5 580.62,-52.5 580.62,-52.5 580.62,-64.5 580.62,-64.5 580.62,-70.5 574.62,-76.5 568.62,-76.5"/>
<text xml:space="preserve" text-anchor="middle" x="537" y="-61" font-family="Arial" font-size="10.00" fill="white">OpenAI</text>
<text xml:space="preserve" text-anchor="middle" x="537" y="-49" font-family="Arial" font-size="10.00" fill="white">GPT&#45;4 / o&#45;series</text>
</g>
<!-- fantasy_mp&#45;&gt;openai -->
<g id="edge8" class="edge">
<title>fantasy_mp&#45;&gt;openai</title>
<path fill="none" stroke="#10a37f" stroke-width="1.5" d="M712.25,-146.5C643.56,-146.5 537,-146.5 537,-146.5 537,-146.5 537,-89 537,-89"/>
<polygon fill="#10a37f" stroke="#10a37f" stroke-width="1.5" points="540.5,-89 537,-79 533.5,-89 540.5,-89"/>
</g>
<!-- deepseek -->
<g id="node9" class="node">
<title>deepseek</title>
<path fill="#2196f3" stroke="black" d="M681.38,-76.5C681.38,-76.5 628.62,-76.5 628.62,-76.5 622.62,-76.5 616.62,-70.5 616.62,-64.5 616.62,-64.5 616.62,-52.5 616.62,-52.5 616.62,-46.5 622.62,-40.5 628.62,-40.5 628.62,-40.5 681.38,-40.5 681.38,-40.5 687.38,-40.5 693.38,-46.5 693.38,-52.5 693.38,-52.5 693.38,-64.5 693.38,-64.5 693.38,-70.5 687.38,-76.5 681.38,-76.5"/>
<text xml:space="preserve" text-anchor="middle" x="655" y="-61" font-family="Arial" font-size="10.00" fill="white">DeepSeek</text>
<text xml:space="preserve" text-anchor="middle" x="655" y="-49" font-family="Arial" font-size="10.00" fill="white">DeepSeek V3</text>
</g>
<!-- fantasy_mp&#45;&gt;deepseek -->
<g id="edge9" class="edge">
<title>fantasy_mp&#45;&gt;deepseek</title>
<path fill="none" stroke="#2196f3" stroke-width="1.5" d="M721.06,-140.36C721.06,-111.42 721.06,-58.5 721.06,-58.5 721.06,-58.5 706.08,-58.5 706.08,-58.5"/>
<polygon fill="#2196f3" stroke="#2196f3" stroke-width="1.5" points="706.08,-55 696.08,-58.5 706.08,-62 706.08,-55"/>
</g>
<!-- groq -->
<g id="node10" class="node">
<title>groq</title>
<path fill="#f44336" stroke="black" d="M796.5,-76.5C796.5,-76.5 741.5,-76.5 741.5,-76.5 735.5,-76.5 729.5,-70.5 729.5,-64.5 729.5,-64.5 729.5,-52.5 729.5,-52.5 729.5,-46.5 735.5,-40.5 741.5,-40.5 741.5,-40.5 796.5,-40.5 796.5,-40.5 802.5,-40.5 808.5,-46.5 808.5,-52.5 808.5,-52.5 808.5,-64.5 808.5,-64.5 808.5,-70.5 802.5,-76.5 796.5,-76.5"/>
<text xml:space="preserve" text-anchor="middle" x="769" y="-61" font-family="Arial" font-size="10.00" fill="white">Groq</text>
<text xml:space="preserve" text-anchor="middle" x="769" y="-49" font-family="Arial" font-size="10.00" fill="white">Fast Inference</text>
</g>
<!-- fantasy_mp&#45;&gt;groq -->
<g id="edge10" class="edge">
<title>fantasy_mp&#45;&gt;groq</title>
<path fill="none" stroke="#f44336" stroke-width="1.5" d="M769,-140.36C769,-140.36 769,-89.04 769,-89.04"/>
<polygon fill="#f44336" stroke="#f44336" stroke-width="1.5" points="772.5,-89.04 769,-79.04 765.5,-89.04 772.5,-89.04"/>
</g>
<!-- cerebras -->
<g id="node11" class="node">
<title>cerebras</title>
<path fill="#7b1fa2" stroke="black" d="M901.62,-76.5C901.62,-76.5 856.38,-76.5 856.38,-76.5 850.38,-76.5 844.38,-70.5 844.38,-64.5 844.38,-64.5 844.38,-52.5 844.38,-52.5 844.38,-46.5 850.38,-40.5 856.38,-40.5 856.38,-40.5 901.62,-40.5 901.62,-40.5 907.62,-40.5 913.62,-46.5 913.62,-52.5 913.62,-52.5 913.62,-64.5 913.62,-64.5 913.62,-70.5 907.62,-76.5 901.62,-76.5"/>
<text xml:space="preserve" text-anchor="middle" x="879" y="-61" font-family="Arial" font-size="10.00" fill="white">Cerebras</text>
<text xml:space="preserve" text-anchor="middle" x="879" y="-49" font-family="Arial" font-size="10.00" fill="white">Wafer&#45;Scale</text>
</g>
<!-- fantasy_mp&#45;&gt;cerebras -->
<g id="edge11" class="edge">
<title>fantasy_mp&#45;&gt;cerebras</title>
<path fill="none" stroke="#7b1fa2" stroke-width="1.5" d="M816.94,-140.36C816.94,-111.42 816.94,-58.5 816.94,-58.5 816.94,-58.5 831.71,-58.5 831.71,-58.5"/>
<polygon fill="#7b1fa2" stroke="#7b1fa2" stroke-width="1.5" points="831.71,-62 841.71,-58.5 831.71,-55 831.71,-62"/>
</g>
<!-- ollama -->
<g id="node12" class="node">
<title>ollama</title>
<path fill="#607d8b" stroke="black" d="M1011.88,-76.5C1011.88,-76.5 962.12,-76.5 962.12,-76.5 956.12,-76.5 950.12,-70.5 950.12,-64.5 950.12,-64.5 950.12,-52.5 950.12,-52.5 950.12,-46.5 956.12,-40.5 962.12,-40.5 962.12,-40.5 1011.88,-40.5 1011.88,-40.5 1017.88,-40.5 1023.88,-46.5 1023.88,-52.5 1023.88,-52.5 1023.88,-64.5 1023.88,-64.5 1023.88,-70.5 1017.88,-76.5 1011.88,-76.5"/>
<text xml:space="preserve" text-anchor="middle" x="987" y="-61" font-family="Arial" font-size="10.00" fill="white">Ollama</text>
<text xml:space="preserve" text-anchor="middle" x="987" y="-49" font-family="Arial" font-size="10.00" fill="white">Local Models</text>
</g>
<!-- fantasy_mp&#45;&gt;ollama -->
<g id="edge12" class="edge">
<title>fantasy_mp&#45;&gt;ollama</title>
<path fill="none" stroke="#607d8b" stroke-width="1.5" d="M825.71,-146.5C890.3,-146.5 987,-146.5 987,-146.5 987,-146.5 987,-89 987,-89"/>
<polygon fill="#607d8b" stroke="#607d8b" stroke-width="1.5" points="990.5,-89 987,-79 983.5,-89 990.5,-89"/>
</g>
<!-- gemini -->
<g id="node13" class="node">
<title>gemini</title>
<path fill="#4285f4" stroke="black" d="M1128.25,-76.5C1128.25,-76.5 1071.75,-76.5 1071.75,-76.5 1065.75,-76.5 1059.75,-70.5 1059.75,-64.5 1059.75,-64.5 1059.75,-52.5 1059.75,-52.5 1059.75,-46.5 1065.75,-40.5 1071.75,-40.5 1071.75,-40.5 1128.25,-40.5 1128.25,-40.5 1134.25,-40.5 1140.25,-46.5 1140.25,-52.5 1140.25,-52.5 1140.25,-64.5 1140.25,-64.5 1140.25,-70.5 1134.25,-76.5 1128.25,-76.5"/>
<text xml:space="preserve" text-anchor="middle" x="1100" y="-61" font-family="Arial" font-size="10.00" fill="white">Google Gemini</text>
<text xml:space="preserve" text-anchor="middle" x="1100" y="-49" font-family="Arial" font-size="10.00" fill="white">Native API</text>
</g>
<!-- fantasy_mp&#45;&gt;gemini -->
<g id="edge13" class="edge">
<title>fantasy_mp&#45;&gt;gemini</title>
<path fill="none" stroke="#4285f4" stroke-width="1.5" d="M825.52,-152.5C920.06,-152.5 1100,-152.5 1100,-152.5 1100,-152.5 1100,-88.89 1100,-88.89"/>
<polygon fill="#4285f4" stroke="#4285f4" stroke-width="1.5" points="1103.5,-88.89 1100,-78.89 1096.5,-88.89 1103.5,-88.89"/>
</g>
<!-- openrouter -->
<g id="node14" class="node">
<title>openrouter</title>
<path fill="#6a1b9a" stroke="black" d="M1263.25,-76.5C1263.25,-76.5 1188.75,-76.5 1188.75,-76.5 1182.75,-76.5 1176.75,-70.5 1176.75,-64.5 1176.75,-64.5 1176.75,-52.5 1176.75,-52.5 1176.75,-46.5 1182.75,-40.5 1188.75,-40.5 1188.75,-40.5 1263.25,-40.5 1263.25,-40.5 1269.25,-40.5 1275.25,-46.5 1275.25,-52.5 1275.25,-52.5 1275.25,-64.5 1275.25,-64.5 1275.25,-70.5 1269.25,-76.5 1263.25,-76.5"/>
<text xml:space="preserve" text-anchor="middle" x="1226" y="-61" font-family="Arial" font-size="10.00" fill="white">OpenRouter</text>
<text xml:space="preserve" text-anchor="middle" x="1226" y="-49" font-family="Arial" font-size="10.00" fill="white">Multi&#45;Model Router</text>
</g>
<!-- fantasy_mp&#45;&gt;openrouter -->
<g id="edge14" class="edge">
<title>fantasy_mp&#45;&gt;openrouter</title>
<path fill="none" stroke="#6a1b9a" stroke-width="1.5" d="M825.5,-158.5C947.77,-158.5 1226,-158.5 1226,-158.5 1226,-158.5 1226,-89.11 1226,-89.11"/>
<polygon fill="#6a1b9a" stroke="#6a1b9a" stroke-width="1.5" points="1229.5,-89.11 1226,-79.11 1222.5,-89.11 1229.5,-89.11"/>
</g>
<!-- vercel -->
<g id="node15" class="node">
<title>vercel</title>
<path fill="#000000" stroke="black" d="M1396.5,-76.5C1396.5,-76.5 1323.5,-76.5 1323.5,-76.5 1317.5,-76.5 1311.5,-70.5 1311.5,-64.5 1311.5,-64.5 1311.5,-52.5 1311.5,-52.5 1311.5,-46.5 1317.5,-40.5 1323.5,-40.5 1323.5,-40.5 1396.5,-40.5 1396.5,-40.5 1402.5,-40.5 1408.5,-46.5 1408.5,-52.5 1408.5,-52.5 1408.5,-64.5 1408.5,-64.5 1408.5,-70.5 1402.5,-76.5 1396.5,-76.5"/>
<text xml:space="preserve" text-anchor="middle" x="1360" y="-61" font-family="Arial" font-size="10.00" fill="white">Vercel AI Gateway</text>
<text xml:space="preserve" text-anchor="middle" x="1360" y="-49" font-family="Arial" font-size="10.00" fill="white">Unified API</text>
</g>
<!-- fantasy_mp&#45;&gt;vercel -->
<g id="edge15" class="edge">
<title>fantasy_mp&#45;&gt;vercel</title>
<path fill="none" stroke="#000000" stroke-width="1.5" d="M825.67,-164.5C973.59,-164.5 1360,-164.5 1360,-164.5 1360,-164.5 1360,-89.23 1360,-89.23"/>
<polygon fill="#000000" stroke="#000000" stroke-width="1.5" points="1363.5,-89.23 1360,-79.23 1356.5,-89.23 1363.5,-89.23"/>
</g>
<!-- hf -->
<g id="node16" class="node">
<title>hf</title>
<path fill="#ffd600" stroke="black" d="M1509.38,-76.5C1509.38,-76.5 1456.62,-76.5 1456.62,-76.5 1450.62,-76.5 1444.62,-70.5 1444.62,-64.5 1444.62,-64.5 1444.62,-52.5 1444.62,-52.5 1444.62,-46.5 1450.62,-40.5 1456.62,-40.5 1456.62,-40.5 1509.38,-40.5 1509.38,-40.5 1515.38,-40.5 1521.38,-46.5 1521.38,-52.5 1521.38,-52.5 1521.38,-64.5 1521.38,-64.5 1521.38,-70.5 1515.38,-76.5 1509.38,-76.5"/>
<text xml:space="preserve" text-anchor="middle" x="1483" y="-61" font-family="Arial" font-size="10.00" fill="#1a1a2e">Hugging Face</text>
<text xml:space="preserve" text-anchor="middle" x="1483" y="-49" font-family="Arial" font-size="10.00" fill="#1a1a2e">Inference API</text>
</g>
<!-- fantasy_mp&#45;&gt;hf -->
<g id="edge16" class="edge">
<title>fantasy_mp&#45;&gt;hf</title>
<path fill="none" stroke="#ffd600" stroke-width="1.5" d="M825.62,-170.5C994.5,-170.5 1483,-170.5 1483,-170.5 1483,-170.5 1483,-89.26 1483,-89.26"/>
<polygon fill="#ffd600" stroke="#ffd600" stroke-width="1.5" points="1486.5,-89.26 1483,-79.26 1479.5,-89.26 1486.5,-89.26"/>
</g>
<!-- config_mp -->
<g id="node17" class="node">
<title>config_mp</title>
<polygon fill="#ffc107" stroke="black" points="872.75,-271 795.25,-271 795.25,-235 878.75,-235 878.75,-265 872.75,-271"/>
<polyline fill="none" stroke="black" points="872.75,-271 872.75,-265"/>
<polyline fill="none" stroke="black" points="878.75,-265 872.75,-265"/>
<text xml:space="preserve" text-anchor="middle" x="837" y="-255.5" font-family="Arial" font-size="10.00" fill="#1a1a2e">crush.json</text>
<text xml:space="preserve" text-anchor="middle" x="837" y="-243.5" font-family="Arial" font-size="10.00" fill="#1a1a2e">Provider Config</text>
</g>
<!-- config_mp&#45;&gt;fantasy_mp -->
<g id="edge4" class="edge">
<title>config_mp&#45;&gt;fantasy_mp</title>
<path fill="none" stroke="#ffc107" stroke-width="1.5" d="M810.31,-234.83C810.31,-234.83 810.31,-189.46 810.31,-189.46"/>
<polygon fill="#ffc107" stroke="#ffc107" stroke-width="1.5" points="813.81,-189.46 810.31,-179.46 806.81,-189.46 813.81,-189.46"/>
</g>
</g>
</svg>
