<?xml version="1.0" encoding="UTF-8" standalone="no"?>
<!DOCTYPE svg PUBLIC "-//W3C//DTD SVG 1.1//EN"
 "http://www.w3.org/Graphics/SVG/1.1/DTD/svg11.dtd">
<!-- Generated by graphviz version 14.1.2 (0)
 -->
<!-- Title: G Pages: 1 -->
<svg width="1456pt" height="586pt"
 viewBox="0.00 0.00 1456.00 586.00" xmlns="http://www.w3.org/2000/svg" xmlns:xlink="http://www.w3.org/1999/xlink">
<style>
<!-- White text halo for edge label readability -->
text { paint-order: stroke; stroke: #ffffff; stroke-width: 3px; stroke-linejoin: round; fill: #1a1a2e; }
</style>
<g id="graph0" class="graph" transform="scale(1 1) rotate(0) translate(4 581.75)">
<title>G</title>
<polygon fill="white" stroke="none" points="-4,4 -4,-581.75 1452,-581.75 1452,4 -4,4"/>
<g id="clust1" class="cluster">
<title>cluster_gui</title>
<polygon fill="white" stroke="#94a3b8" stroke-dasharray="5,2" points="8,-8 8,-83.75 596,-83.75 596,-8 8,-8"/>
<text xml:space="preserve" text-anchor="middle" x="302" y="-68.35" font-family="Inter" font-size="12.00" fill="#475569">GUI Layer (iced framework)</text>
</g>
<g id="clust2" class="cluster">
<title>cluster_core</title>
<polygon fill="white" stroke="#94a3b8" stroke-dasharray="5,2" points="104,-91.75 104,-247.5 436,-247.5 436,-91.75 104,-91.75"/>
<text xml:space="preserve" text-anchor="middle" x="270" y="-232.1" font-family="Inter" font-size="12.00" fill="#475569">Core Application (Rust)</text>
</g>
<g id="clust3" class="cluster">
<title>cluster_networking</title>
<polygon fill="white" stroke="#94a3b8" stroke-dasharray="5,2" points="814,-255.5 814,-569.75 938,-569.75 938,-255.5 814,-255.5"/>
<text xml:space="preserve" text-anchor="middle" x="876" y="-554.35" font-family="Inter" font-size="12.00" fill="#475569">Networking Layer</text>
</g>
<g id="clust4" class="cluster">
<title>cluster_data</title>
<polygon fill="white" stroke="#94a3b8" stroke-dasharray="5,2" points="449,-171.25 449,-247.5 1060,-247.5 1060,-171.25 449,-171.25"/>
<text xml:space="preserve" text-anchor="middle" x="754.5" y="-232.1" font-family="Inter" font-size="12.00" fill="#475569">Data &amp; Intelligence Layer</text>
</g>
<g id="clust5" class="cluster">
<title>cluster_notif</title>
<polygon fill="white" stroke="#94a3b8" stroke-dasharray="5,2" points="1074,-171.25 1074,-247.5 1440,-247.5 1440,-171.25 1074,-171.25"/>
<text xml:space="preserve" text-anchor="middle" x="1257" y="-232.1" font-family="Inter" font-size="12.00" fill="#475569">Notifications &amp; Reports</text>
</g>
<!-- overview_page -->
<g id="node1" class="node">
<title>overview_page</title>
<path fill="#f59e0b" stroke="black" stroke-width="0" d="M92,-52C92,-52 28,-52 28,-52 22,-52 16,-46 16,-40 16,-40 16,-28 16,-28 16,-22 22,-16 28,-16 28,-16 92,-16 92,-16 98,-16 104,-22 104,-28 104,-28 104,-40 104,-40 104,-46 98,-52 92,-52"/>
<text xml:space="preserve" text-anchor="middle" x="60" y="-30.68" font-family="Inter" font-size="11.00" fill="#1a1a2e">Overview Page</text>
</g>
<!-- inspect_page -->
<g id="node2" class="node">
<title>inspect_page</title>
<path fill="#f59e0b" stroke="black" stroke-width="0" d="M200.88,-52C200.88,-52 145.12,-52 145.12,-52 139.12,-52 133.12,-46 133.12,-40 133.12,-40 133.12,-28 133.12,-28 133.12,-22 139.12,-16 145.12,-16 145.12,-16 200.88,-16 200.88,-16 206.88,-16 212.88,-22 212.88,-28 212.88,-28 212.88,-40 212.88,-40 212.88,-46 206.88,-52 200.88,-52"/>
<text xml:space="preserve" text-anchor="middle" x="173" y="-30.68" font-family="Inter" font-size="11.00" fill="#1a1a2e">Inspect Page</text>
</g>
<!-- notifications_page -->
<g id="node3" class="node">
<title>notifications_page</title>
<path fill="#f59e0b" stroke="black" stroke-width="0" d="M333.88,-52C333.88,-52 254.12,-52 254.12,-52 248.12,-52 242.12,-46 242.12,-40 242.12,-40 242.12,-28 242.12,-28 242.12,-22 248.12,-16 254.12,-16 254.12,-16 333.88,-16 333.88,-16 339.88,-16 345.88,-22 345.88,-28 345.88,-28 345.88,-40 345.88,-40 345.88,-46 339.88,-52 333.88,-52"/>
<text xml:space="preserve" text-anchor="middle" x="294" y="-30.68" font-family="Inter" font-size="11.00" fill="#1a1a2e">Notifications Page</text>
</g>
<!-- thumbnail_page -->
<g id="node4" class="node">
<title>thumbnail_page</title>
<path fill="#f59e0b" stroke="black" stroke-width="0" d="M459.12,-52C459.12,-52 386.88,-52 386.88,-52 380.88,-52 374.88,-46 374.88,-40 374.88,-40 374.88,-28 374.88,-28 374.88,-22 380.88,-16 386.88,-16 386.88,-16 459.12,-16 459.12,-16 465.12,-16 471.12,-22 471.12,-28 471.12,-28 471.12,-40 471.12,-40 471.12,-46 465.12,-52 459.12,-52"/>
<text xml:space="preserve" text-anchor="middle" x="423" y="-30.68" font-family="Inter" font-size="11.00" fill="#1a1a2e">Thumbnail Mode</text>
</g>
<!-- settings_page -->
<g id="node5" class="node">
<title>settings_page</title>
<path fill="#f59e0b" stroke="black" stroke-width="0" d="M576,-52C576,-52 512,-52 512,-52 506,-52 500,-46 500,-40 500,-40 500,-28 500,-28 500,-22 506,-16 512,-16 512,-16 576,-16 576,-16 582,-16 588,-22 588,-28 588,-28 588,-40 588,-40 588,-46 582,-52 576,-52"/>
<text xml:space="preserve" text-anchor="middle" x="544" y="-30.68" font-family="Inter" font-size="11.00" fill="#1a1a2e">Settings Pages</text>
</g>
<!-- sniffer -->
<g id="node6" class="node">
<title>sniffer</title>
<path fill="#1e40af" stroke="black" stroke-width="0" d="M320.38,-136.25C320.38,-136.25 267.62,-136.25 267.62,-136.25 261.62,-136.25 255.62,-130.25 255.62,-124.25 255.62,-124.25 255.62,-111.75 255.62,-111.75 255.62,-105.75 261.62,-99.75 267.62,-99.75 267.62,-99.75 320.38,-99.75 320.38,-99.75 326.38,-99.75 332.38,-105.75 332.38,-111.75 332.38,-111.75 332.38,-124.25 332.38,-124.25 332.38,-130.25 326.38,-136.25 320.38,-136.25"/>
<text xml:space="preserve" text-anchor="middle" x="294" y="-121.8" font-family="Inter" font-size="11.00" fill="white">Sniffer State</text>
<text xml:space="preserve" text-anchor="middle" x="294" y="-107.55" font-family="Inter" font-size="11.00" fill="white">Manager</text>
</g>
<!-- sniffer&#45;&gt;overview_page -->
<g id="edge6" class="edge">
<title>sniffer&#45;&gt;overview_page</title>
<path fill="none" stroke="#f59e0b" d="M255.88,-118C189.58,-118 60,-118 60,-118 60,-118 60,-63.33 60,-63.33"/>
<polygon fill="#f59e0b" stroke="#f59e0b" points="63.5,-63.33 60,-53.33 56.5,-63.33 63.5,-63.33"/>
<text xml:space="preserve" text-anchor="middle" x="106.61" y="-119.95" font-family="Times New Roman,serif" font-size="9.00">stats &amp; charts</text>
</g>
<!-- sniffer&#45;&gt;inspect_page -->
<g id="edge7" class="edge">
<title>sniffer&#45;&gt;inspect_page</title>
<path fill="none" stroke="#f59e0b" d="M255.72,-109C224.76,-109 186.29,-109 186.29,-109 186.29,-109 186.29,-63.29 186.29,-63.29"/>
<polygon fill="#f59e0b" stroke="#f59e0b" points="189.79,-63.29 186.29,-53.29 182.79,-63.29 189.79,-63.29"/>
<text xml:space="preserve" text-anchor="middle" x="179.03" y="-100.45" font-family="Times New Roman,serif" font-size="9.00">connection</text>
<text xml:space="preserve" text-anchor="middle" x="179.03" y="-89.95" font-family="Times New Roman,serif" font-size="9.00">details</text>
</g>
<!-- sniffer&#45;&gt;notifications_page -->
<g id="edge8" class="edge">
<title>sniffer&#45;&gt;notifications_page</title>
<path fill="none" stroke="#f59e0b" d="M294,-99.77C294,-99.77 294,-63.42 294,-63.42"/>
<polygon fill="#f59e0b" stroke="#f59e0b" points="297.5,-63.42 294,-53.42 290.5,-63.42 297.5,-63.42"/>
<text xml:space="preserve" text-anchor="middle" x="281.62" y="-94.04" font-family="Times New Roman,serif" font-size="9.00">alert</text>
<text xml:space="preserve" text-anchor="middle" x="281.62" y="-83.54" font-family="Times New Roman,serif" font-size="9.00">history</text>
</g>
<!-- sniffer&#45;&gt;thumbnail_page -->
<g id="edge9" class="edge">
<title>sniffer&#45;&gt;thumbnail_page</title>
<path fill="none" stroke="#f59e0b" d="M332.35,-109C359.99,-109 392.46,-109 392.46,-109 392.46,-109 392.46,-63.29 392.46,-63.29"/>
<polygon fill="#f59e0b" stroke="#f59e0b" points="395.96,-63.29 392.46,-53.29 388.96,-63.29 395.96,-63.29"/>
<text xml:space="preserve" text-anchor="middle" x="370.63" y="-121.45" font-family="Times New Roman,serif" font-size="9.00">compact</text>
<text xml:space="preserve" text-anchor="middle" x="370.63" y="-110.95" font-family="Times New Roman,serif" font-size="9.00">view</text>
</g>
<!-- sniffer&#45;&gt;settings_page -->
<g id="edge10" class="edge">
<title>sniffer&#45;&gt;settings_page</title>
<path fill="none" stroke="#f59e0b" d="M332.33,-118C399.77,-118 532.56,-118 532.56,-118 532.56,-118 532.56,-63.33 532.56,-63.33"/>
<polygon fill="#f59e0b" stroke="#f59e0b" points="536.06,-63.33 532.56,-53.33 529.06,-63.33 536.06,-63.33"/>
<text xml:space="preserve" text-anchor="middle" x="448.53" y="-119.95" font-family="Times New Roman,serif" font-size="9.00">config</text>
</g>
<!-- message_handler -->
<g id="node7" class="node">
<title>message_handler</title>
<path fill="#1e40af" stroke="black" stroke-width="0" d="M206,-215.75C206,-215.75 124,-215.75 124,-215.75 118,-215.75 112,-209.75 112,-203.75 112,-203.75 112,-191.25 112,-191.25 112,-185.25 118,-179.25 124,-179.25 124,-179.25 206,-179.25 206,-179.25 212,-179.25 218,-185.25 218,-191.25 218,-191.25 218,-203.75 218,-203.75 218,-209.75 212,-215.75 206,-215.75"/>
<text xml:space="preserve" text-anchor="middle" x="165" y="-201.3" font-family="Inter" font-size="11.00" fill="white">Message Handler</text>
<text xml:space="preserve" text-anchor="middle" x="165" y="-187.05" font-family="Inter" font-size="11.00" fill="white">(iced update loop)</text>
</g>
<!-- message_handler&#45;&gt;sniffer -->
<g id="edge5" class="edge">
<title>message_handler&#45;&gt;sniffer</title>
<path fill="none" stroke="#0ea5e9" d="M159.71,-179.34C159.71,-158.46 159.71,-127 159.71,-127 159.71,-127 244.36,-127 244.36,-127"/>
<polygon fill="#0ea5e9" stroke="#0ea5e9" points="244.36,-130.5 254.36,-127 244.36,-123.5 244.36,-130.5"/>
<text xml:space="preserve" text-anchor="middle" x="153.36" y="-128.95" font-family="Times New Roman,serif" font-size="9.00">state updates</text>
</g>
<!-- config -->
<g id="node8" class="node">
<title>config</title>
<path fill="#8b5cf6" stroke="black" stroke-width="0" d="M329,-215.75C329,-215.75 259,-215.75 259,-215.75 253,-215.75 247,-209.75 247,-203.75 247,-203.75 247,-191.25 247,-191.25 247,-185.25 253,-179.25 259,-179.25 259,-179.25 329,-179.25 329,-179.25 335,-179.25 341,-185.25 341,-191.25 341,-191.25 341,-203.75 341,-203.75 341,-209.75 335,-215.75 329,-215.75"/>
<text xml:space="preserve" text-anchor="middle" x="294" y="-201.3" font-family="Inter" font-size="11.00" fill="white">Configuration</text>
<text xml:space="preserve" text-anchor="middle" x="294" y="-187.05" font-family="Inter" font-size="11.00" fill="white">(confy + TOML)</text>
</g>
<!-- config&#45;&gt;sniffer -->
<g id="edge12" class="edge">
<title>config&#45;&gt;sniffer</title>
<path fill="none" stroke="#64748b" d="M294,-179.46C294,-179.46 294,-147.76 294,-147.76"/>
<polygon fill="#64748b" stroke="#64748b" points="297.5,-147.76 294,-137.76 290.5,-147.76 297.5,-147.76"/>
<text xml:space="preserve" text-anchor="middle" x="278.25" y="-155.06" font-family="Times New Roman,serif" font-size="9.00">persisted</text>
<text xml:space="preserve" text-anchor="middle" x="278.25" y="-144.56" font-family="Times New Roman,serif" font-size="9.00">settings</text>
</g>
<!-- cli -->
<g id="node9" class="node">
<title>cli</title>
<path fill="#0ea5e9" stroke="black" stroke-width="0" d="M415.62,-215.75C415.62,-215.75 382.38,-215.75 382.38,-215.75 376.38,-215.75 370.38,-209.75 370.38,-203.75 370.38,-203.75 370.38,-191.25 370.38,-191.25 370.38,-185.25 376.38,-179.25 382.38,-179.25 382.38,-179.25 415.62,-179.25 415.62,-179.25 421.62,-179.25 427.62,-185.25 427.62,-191.25 427.62,-191.25 427.62,-203.75 427.62,-203.75 427.62,-209.75 421.62,-215.75 415.62,-215.75"/>
<text xml:space="preserve" text-anchor="middle" x="399" y="-201.3" font-family="Inter" font-size="11.00" fill="white">CLI Args</text>
<text xml:space="preserve" text-anchor="middle" x="399" y="-187.05" font-family="Inter" font-size="11.00" fill="white">(clap)</text>
</g>
<!-- cli&#45;&gt;sniffer -->
<g id="edge11" class="edge">
<title>cli&#45;&gt;sniffer</title>
<path fill="none" stroke="#64748b" d="M410.04,-179.34C410.04,-158.46 410.04,-127 410.04,-127 410.04,-127 343.83,-127 343.83,-127"/>
<polygon fill="#64748b" stroke="#64748b" points="343.83,-123.5 333.83,-127 343.83,-130.5 343.83,-123.5"/>
<text xml:space="preserve" text-anchor="middle" x="419.61" y="-128.95" font-family="Times New Roman,serif" font-size="9.00">boot args</text>
</g>
<!-- pcap_capture -->
<g id="node10" class="node">
<title>pcap_capture</title>
<path fill="#10b981" stroke="black" stroke-width="0" d="M909.12,-459C909.12,-459 842.88,-459 842.88,-459 836.88,-459 830.88,-453 830.88,-447 830.88,-447 830.88,-434.5 830.88,-434.5 830.88,-428.5 836.88,-422.5 842.88,-422.5 842.88,-422.5 909.12,-422.5 909.12,-422.5 915.12,-422.5 921.12,-428.5 921.12,-434.5 921.12,-434.5 921.12,-447 921.12,-447 921.12,-453 915.12,-459 909.12,-459"/>
<text xml:space="preserve" text-anchor="middle" x="876" y="-444.55" font-family="Inter" font-size="11.00" fill="white">Packet Capture</text>
<text xml:space="preserve" text-anchor="middle" x="876" y="-430.3" font-family="Inter" font-size="11.00" fill="white">(pcap crate)</text>
</g>
<!-- packet_parser -->
<g id="node11" class="node">
<title>packet_parser</title>
<path fill="#10b981" stroke="black" stroke-width="0" d="M905.38,-379.5C905.38,-379.5 846.62,-379.5 846.62,-379.5 840.62,-379.5 834.62,-373.5 834.62,-367.5 834.62,-367.5 834.62,-355 834.62,-355 834.62,-349 840.62,-343 846.62,-343 846.62,-343 905.38,-343 905.38,-343 911.38,-343 917.38,-349 917.38,-355 917.38,-355 917.38,-367.5 917.38,-367.5 917.38,-373.5 911.38,-379.5 905.38,-379.5"/>
<text xml:space="preserve" text-anchor="middle" x="876" y="-365.05" font-family="Inter" font-size="11.00" fill="white">Packet Parser</text>
<text xml:space="preserve" text-anchor="middle" x="876" y="-350.8" font-family="Inter" font-size="11.00" fill="white">(etherparse)</text>
</g>
<!-- pcap_capture&#45;&gt;packet_parser -->
<g id="edge1" class="edge">
<title>pcap_capture&#45;&gt;packet_parser</title>
<path fill="none" stroke="#64748b" d="M876,-422.71C876,-422.71 876,-391.01 876,-391.01"/>
<polygon fill="#64748b" stroke="#64748b" points="879.5,-391.01 876,-381.01 872.5,-391.01 879.5,-391.01"/>
<text xml:space="preserve" text-anchor="middle" x="855" y="-408.81" font-family="Times New Roman,serif" font-size="9.00">raw packets</text>
</g>
<!-- traffic_analyzer -->
<g id="node12" class="node">
<title>traffic_analyzer</title>
<path fill="#10b981" stroke="black" stroke-width="0" d="M917.75,-300C917.75,-300 834.25,-300 834.25,-300 828.25,-300 822.25,-294 822.25,-288 822.25,-288 822.25,-275.5 822.25,-275.5 822.25,-269.5 828.25,-263.5 834.25,-263.5 834.25,-263.5 917.75,-263.5 917.75,-263.5 923.75,-263.5 929.75,-269.5 929.75,-275.5 929.75,-275.5 929.75,-288 929.75,-288 929.75,-294 923.75,-300 917.75,-300"/>
<text xml:space="preserve" text-anchor="middle" x="876" y="-285.55" font-family="Inter" font-size="11.00" fill="white">Traffic Analyzer</text>
<text xml:space="preserve" text-anchor="middle" x="876" y="-271.3" font-family="Inter" font-size="11.00" fill="white">(manage_packets)</text>
</g>
<!-- packet_parser&#45;&gt;traffic_analyzer -->
<g id="edge2" class="edge">
<title>packet_parser&#45;&gt;traffic_analyzer</title>
<path fill="none" stroke="#64748b" d="M876,-343.21C876,-343.21 876,-311.51 876,-311.51"/>
<polygon fill="#64748b" stroke="#64748b" points="879.5,-311.51 876,-301.51 872.5,-311.51 879.5,-311.51"/>
<text xml:space="preserve" text-anchor="middle" x="849.75" y="-329.31" font-family="Times New Roman,serif" font-size="9.00">parsed headers</text>
</g>
<!-- traffic_analyzer&#45;&gt;message_handler -->
<g id="edge4" class="edge">
<title>traffic_analyzer&#45;&gt;message_handler</title>
<path fill="none" stroke="#0ea5e9" d="M822.27,-293C656.63,-293 165,-293 165,-293 165,-293 165,-226.98 165,-226.98"/>
<polygon fill="#0ea5e9" stroke="#0ea5e9" points="168.5,-226.98 165,-216.98 161.5,-226.98 168.5,-226.98"/>
<text xml:space="preserve" text-anchor="middle" x="433.25" y="-305.45" font-family="Times New Roman,serif" font-size="9.00">BackendTraffic</text>
<text xml:space="preserve" text-anchor="middle" x="433.25" y="-294.95" font-family="Times New Roman,serif" font-size="9.00">Message</text>
</g>
<!-- mmdb_country -->
<g id="node14" class="node">
<title>mmdb_country</title>
<path fill="#8b5cf6" stroke="black" stroke-width="0" d="M553.12,-215.75C553.12,-215.75 468.88,-215.75 468.88,-215.75 462.88,-215.75 456.88,-209.75 456.88,-203.75 456.88,-203.75 456.88,-191.25 456.88,-191.25 456.88,-185.25 462.88,-179.25 468.88,-179.25 468.88,-179.25 553.12,-179.25 553.12,-179.25 559.12,-179.25 565.12,-185.25 565.12,-191.25 565.12,-191.25 565.12,-203.75 565.12,-203.75 565.12,-209.75 559.12,-215.75 553.12,-215.75"/>
<text xml:space="preserve" text-anchor="middle" x="511" y="-201.3" font-family="Inter" font-size="11.00" fill="white">GeoLocation DB</text>
<text xml:space="preserve" text-anchor="middle" x="511" y="-187.05" font-family="Inter" font-size="11.00" fill="white">(MaxMind Country)</text>
</g>
<!-- traffic_analyzer&#45;&gt;mmdb_country -->
<g id="edge13" class="edge">
<title>traffic_analyzer&#45;&gt;mmdb_country</title>
<path fill="none" stroke="#8b5cf6" d="M822.53,-285C721.15,-285 511,-285 511,-285 511,-285 511,-227.14 511,-227.14"/>
<polygon fill="#8b5cf6" stroke="#8b5cf6" points="514.5,-227.14 511,-217.14 507.5,-227.14 514.5,-227.14"/>
<text xml:space="preserve" text-anchor="middle" x="612.71" y="-286.95" font-family="Times New Roman,serif" font-size="9.00">IP geolocation</text>
</g>
<!-- mmdb_asn -->
<g id="node15" class="node">
<title>mmdb_asn</title>
<path fill="#8b5cf6" stroke="black" stroke-width="0" d="M673.5,-215.75C673.5,-215.75 606.5,-215.75 606.5,-215.75 600.5,-215.75 594.5,-209.75 594.5,-203.75 594.5,-203.75 594.5,-191.25 594.5,-191.25 594.5,-185.25 600.5,-179.25 606.5,-179.25 606.5,-179.25 673.5,-179.25 673.5,-179.25 679.5,-179.25 685.5,-185.25 685.5,-191.25 685.5,-191.25 685.5,-203.75 685.5,-203.75 685.5,-209.75 679.5,-215.75 673.5,-215.75"/>
<text xml:space="preserve" text-anchor="middle" x="640" y="-201.3" font-family="Inter" font-size="11.00" fill="white">ASN Database</text>
<text xml:space="preserve" text-anchor="middle" x="640" y="-187.05" font-family="Inter" font-size="11.00" fill="white">(MaxMind ASN)</text>
</g>
<!-- traffic_analyzer&#45;&gt;mmdb_asn -->
<g id="edge14" class="edge">
<title>traffic_analyzer&#45;&gt;mmdb_asn</title>
<path fill="none" stroke="#8b5cf6" d="M822.45,-278C752.82,-278 640,-278 640,-278 640,-278 640,-226.88 640,-226.88"/>
<polygon fill="#8b5cf6" stroke="#8b5cf6" points="643.5,-226.88 640,-216.88 636.5,-226.88 643.5,-226.88"/>
<text xml:space="preserve" text-anchor="middle" x="682.79" y="-279.95" font-family="Times New Roman,serif" font-size="9.00">ASN lookup</text>
</g>
<!-- dns_lookup -->
<g id="node16" class="node">
<title>dns_lookup</title>
<path fill="#8b5cf6" stroke="black" stroke-width="0" d="M781.88,-215.75C781.88,-215.75 726.12,-215.75 726.12,-215.75 720.12,-215.75 714.12,-209.75 714.12,-203.75 714.12,-203.75 714.12,-191.25 714.12,-191.25 714.12,-185.25 720.12,-179.25 726.12,-179.25 726.12,-179.25 781.88,-179.25 781.88,-179.25 787.88,-179.25 793.88,-185.25 793.88,-191.25 793.88,-191.25 793.88,-203.75 793.88,-203.75 793.88,-209.75 787.88,-215.75 781.88,-215.75"/>
<text xml:space="preserve" text-anchor="middle" x="754" y="-201.3" font-family="Inter" font-size="11.00" fill="white">Reverse DNS</text>
<text xml:space="preserve" text-anchor="middle" x="754" y="-187.05" font-family="Inter" font-size="11.00" fill="white">(dns&#45;lookup)</text>
</g>
<!-- traffic_analyzer&#45;&gt;dns_lookup -->
<g id="edge15" class="edge">
<title>traffic_analyzer&#45;&gt;dns_lookup</title>
<path fill="none" stroke="#8b5cf6" d="M822.49,-271C789.71,-271 754,-271 754,-271 754,-271 754,-227.18 754,-227.18"/>
<polygon fill="#8b5cf6" stroke="#8b5cf6" points="757.5,-227.18 754,-217.18 750.5,-227.18 757.5,-227.18"/>
<text xml:space="preserve" text-anchor="middle" x="743.09" y="-272.95" font-family="Times New Roman,serif" font-size="9.00">reverse DNS</text>
</g>
<!-- service_db -->
<g id="node17" class="node">
<title>service_db</title>
<path fill="#8b5cf6" stroke="black" stroke-width="0" d="M916.62,-215.75C916.62,-215.75 835.38,-215.75 835.38,-215.75 829.38,-215.75 823.38,-209.75 823.38,-203.75 823.38,-203.75 823.38,-191.25 823.38,-191.25 823.38,-185.25 829.38,-179.25 835.38,-179.25 835.38,-179.25 916.62,-179.25 916.62,-179.25 922.62,-179.25 928.62,-185.25 928.62,-191.25 928.62,-191.25 928.62,-203.75 928.62,-203.75 928.62,-209.75 922.62,-215.75 916.62,-215.75"/>
<text xml:space="preserve" text-anchor="middle" x="876" y="-201.3" font-family="Inter" font-size="11.00" fill="white">Service Database</text>
<text xml:space="preserve" text-anchor="middle" x="876" y="-187.05" font-family="Inter" font-size="11.00" fill="white">(6000+ protocols)</text>
</g>
<!-- traffic_analyzer&#45;&gt;service_db -->
<g id="edge16" class="edge">
<title>traffic_analyzer&#45;&gt;service_db</title>
<path fill="none" stroke="#8b5cf6" d="M876,-263.88C876,-263.88 876,-227.15 876,-227.15"/>
<polygon fill="#8b5cf6" stroke="#8b5cf6" points="879.5,-227.15 876,-217.15 872.5,-227.15 879.5,-227.15"/>
<text xml:space="preserve" text-anchor="middle" x="853.12" y="-236.96" font-family="Times New Roman,serif" font-size="9.00">port/protocol</text>
<text xml:space="preserve" text-anchor="middle" x="853.12" y="-226.46" font-family="Times New Roman,serif" font-size="9.00">identification</text>
</g>
<!-- program_lookup -->
<g id="node18" class="node">
<title>program_lookup</title>
<path fill="#8b5cf6" stroke="black" stroke-width="0" d="M1040.38,-215.75C1040.38,-215.75 969.62,-215.75 969.62,-215.75 963.62,-215.75 957.62,-209.75 957.62,-203.75 957.62,-203.75 957.62,-191.25 957.62,-191.25 957.62,-185.25 963.62,-179.25 969.62,-179.25 969.62,-179.25 1040.38,-179.25 1040.38,-179.25 1046.38,-179.25 1052.38,-185.25 1052.38,-191.25 1052.38,-191.25 1052.38,-203.75 1052.38,-203.75 1052.38,-209.75 1046.38,-215.75 1040.38,-215.75"/>
<text xml:space="preserve" text-anchor="middle" x="1005" y="-201.3" font-family="Inter" font-size="11.00" fill="white">Program Lookup</text>
<text xml:space="preserve" text-anchor="middle" x="1005" y="-187.05" font-family="Inter" font-size="11.00" fill="white">(picon)</text>
</g>
<!-- traffic_analyzer&#45;&gt;program_lookup -->
<g id="edge17" class="edge">
<title>traffic_analyzer&#45;&gt;program_lookup</title>
<path fill="none" stroke="#8b5cf6" d="M929.59,-271C965.03,-271 1005,-271 1005,-271 1005,-271 1005,-227.18 1005,-227.18"/>
<polygon fill="#8b5cf6" stroke="#8b5cf6" points="1008.5,-227.18 1005,-217.18 1001.5,-227.18 1008.5,-227.18"/>
<text xml:space="preserve" text-anchor="middle" x="966.33" y="-283.45" font-family="Times New Roman,serif" font-size="9.00">process</text>
<text xml:space="preserve" text-anchor="middle" x="966.33" y="-272.95" font-family="Times New Roman,serif" font-size="9.00">identification</text>
</g>
<!-- notify -->
<g id="node19" class="node">
<title>notify</title>
<path fill="#ef4444" stroke="black" stroke-width="0" d="M1176.38,-215.75C1176.38,-215.75 1093.62,-215.75 1093.62,-215.75 1087.62,-215.75 1081.62,-209.75 1081.62,-203.75 1081.62,-203.75 1081.62,-191.25 1081.62,-191.25 1081.62,-185.25 1087.62,-179.25 1093.62,-179.25 1093.62,-179.25 1176.38,-179.25 1176.38,-179.25 1182.38,-179.25 1188.38,-185.25 1188.38,-191.25 1188.38,-191.25 1188.38,-203.75 1188.38,-203.75 1188.38,-209.75 1182.38,-215.75 1176.38,-215.75"/>
<text xml:space="preserve" text-anchor="middle" x="1135" y="-201.3" font-family="Inter" font-size="11.00" fill="white">Notification Engine</text>
<text xml:space="preserve" text-anchor="middle" x="1135" y="-187.05" font-family="Inter" font-size="11.00" fill="white">(rodio + sound)</text>
</g>
<!-- traffic_analyzer&#45;&gt;notify -->
<g id="edge18" class="edge">
<title>traffic_analyzer&#45;&gt;notify</title>
<path fill="none" stroke="#ef4444" d="M929.66,-278C1005.53,-278 1135,-278 1135,-278 1135,-278 1135,-226.88 1135,-226.88"/>
<polygon fill="#ef4444" stroke="#ef4444" points="1138.5,-226.88 1135,-216.88 1131.5,-226.88 1138.5,-226.88"/>
<text xml:space="preserve" text-anchor="middle" x="1046.27" y="-290.45" font-family="Times New Roman,serif" font-size="9.00">trigger</text>
<text xml:space="preserve" text-anchor="middle" x="1046.27" y="-279.95" font-family="Times New Roman,serif" font-size="9.00">alerts</text>
</g>
<!-- pcap_export -->
<g id="node20" class="node">
<title>pcap_export</title>
<path fill="#10b981" stroke="black" stroke-width="0" d="M1296.5,-215.75C1296.5,-215.75 1229.5,-215.75 1229.5,-215.75 1223.5,-215.75 1217.5,-209.75 1217.5,-203.75 1217.5,-203.75 1217.5,-191.25 1217.5,-191.25 1217.5,-185.25 1223.5,-179.25 1229.5,-179.25 1229.5,-179.25 1296.5,-179.25 1296.5,-179.25 1302.5,-179.25 1308.5,-185.25 1308.5,-191.25 1308.5,-191.25 1308.5,-203.75 1308.5,-203.75 1308.5,-209.75 1302.5,-215.75 1296.5,-215.75"/>
<text xml:space="preserve" text-anchor="middle" x="1263" y="-201.3" font-family="Inter" font-size="11.00" fill="white">PCAP Export</text>
<text xml:space="preserve" text-anchor="middle" x="1263" y="-187.05" font-family="Inter" font-size="11.00" fill="white">(import/export)</text>
</g>
<!-- traffic_analyzer&#45;&gt;pcap_export -->
<g id="edge19" class="edge">
<title>traffic_analyzer&#45;&gt;pcap_export</title>
<path fill="none" stroke="#64748b" d="M929.4,-285C1035.57,-285 1263,-285 1263,-285 1263,-285 1263,-227.14 1263,-227.14"/>
<polygon fill="#64748b" stroke="#64748b" points="1266.5,-227.14 1263,-217.14 1259.5,-227.14 1266.5,-227.14"/>
<text xml:space="preserve" text-anchor="middle" x="1112.38" y="-297.45" font-family="Times New Roman,serif" font-size="9.00">capture</text>
<text xml:space="preserve" text-anchor="middle" x="1112.38" y="-286.95" font-family="Times New Roman,serif" font-size="9.00">data</text>
</g>
<!-- bpf_filter -->
<g id="node13" class="node">
<title>bpf_filter</title>
<path fill="#0ea5e9" stroke="black" stroke-width="0" d="M897.88,-538C897.88,-538 854.12,-538 854.12,-538 848.12,-538 842.12,-532 842.12,-526 842.12,-526 842.12,-514 842.12,-514 842.12,-508 848.12,-502 854.12,-502 854.12,-502 897.88,-502 897.88,-502 903.88,-502 909.88,-508 909.88,-514 909.88,-514 909.88,-526 909.88,-526 909.88,-532 903.88,-538 897.88,-538"/>
<text xml:space="preserve" text-anchor="middle" x="876" y="-516.67" font-family="Inter" font-size="11.00" fill="white">BPF Filters</text>
</g>
<!-- bpf_filter&#45;&gt;pcap_capture -->
<g id="edge3" class="edge">
<title>bpf_filter&#45;&gt;pcap_capture</title>
<path fill="none" stroke="#64748b" d="M876,-502.02C876,-502.02 876,-470.45 876,-470.45"/>
<polygon fill="#64748b" stroke="#64748b" points="879.5,-470.45 876,-460.45 872.5,-470.45 879.5,-470.45"/>
<text xml:space="preserve" text-anchor="middle" x="845.25" y="-488.18" font-family="Times New Roman,serif" font-size="9.00">applied at capture</text>
</g>
<!-- ip_blacklist -->
<g id="node21" class="node">
<title>ip_blacklist</title>
<path fill="#ef4444" stroke="black" stroke-width="0" d="M1420.38,-215.75C1420.38,-215.75 1349.62,-215.75 1349.62,-215.75 1343.62,-215.75 1337.62,-209.75 1337.62,-203.75 1337.62,-203.75 1337.62,-191.25 1337.62,-191.25 1337.62,-185.25 1343.62,-179.25 1349.62,-179.25 1349.62,-179.25 1420.38,-179.25 1420.38,-179.25 1426.38,-179.25 1432.38,-185.25 1432.38,-191.25 1432.38,-191.25 1432.38,-203.75 1432.38,-203.75 1432.38,-209.75 1426.38,-215.75 1420.38,-215.75"/>
<text xml:space="preserve" text-anchor="middle" x="1385" y="-201.3" font-family="Inter" font-size="11.00" fill="white">IP Blacklist</text>
<text xml:space="preserve" text-anchor="middle" x="1385" y="-187.05" font-family="Inter" font-size="11.00" fill="white">(custom import)</text>
</g>
<!-- ip_blacklist&#45;&gt;traffic_analyzer -->
<g id="edge20" class="edge">
<title>ip_blacklist&#45;&gt;traffic_analyzer</title>
<path fill="none" stroke="#ef4444" d="M1385,-215.46C1385,-243.13 1385,-293 1385,-293 1385,-293 941.02,-293 941.02,-293"/>
<polygon fill="#ef4444" stroke="#ef4444" points="941.02,-289.5 931.02,-293 941.02,-296.5 941.02,-289.5"/>
<text xml:space="preserve" text-anchor="middle" x="1183.03" y="-305.45" font-family="Times New Roman,serif" font-size="9.00">flag</text>
<text xml:space="preserve" text-anchor="middle" x="1183.03" y="-294.95" font-family="Times New Roman,serif" font-size="9.00">suspicious</text>
</g>
</g>
</svg>
