<?xml version="1.0" encoding="UTF-8" standalone="no"?>
<!DOCTYPE svg PUBLIC "-//W3C//DTD SVG 1.1//EN"
 "http://www.w3.org/Graphics/SVG/1.1/DTD/svg11.dtd">
<!-- Generated by graphviz version 14.1.2 (0)
 -->
<!-- Title: ollama_architecture Pages: 1 -->
<svg width="790pt" height="312pt"
 viewBox="0.00 0.00 790.00 312.00" xmlns="http://www.w3.org/2000/svg" xmlns:xlink="http://www.w3.org/1999/xlink">
<g id="graph0" class="graph" transform="scale(1 1) rotate(0) translate(4 308.25)">
<title>ollama_architecture</title>
<!-- CLI\n(Cobra + Bubbletea TUI) -->
<g id="node1" class="node">
<title>CLI\n(Cobra + Bubbletea TUI)</title>
<path fill="#2563eb" stroke="black" d="M127.75,-304.25C127.75,-304.25 12,-304.25 12,-304.25 6,-304.25 0,-298.25 0,-292.25 0,-292.25 0,-279.75 0,-279.75 0,-273.75 6,-267.75 12,-267.75 12,-267.75 127.75,-267.75 127.75,-267.75 133.75,-267.75 139.75,-273.75 139.75,-279.75 139.75,-279.75 139.75,-292.25 139.75,-292.25 139.75,-298.25 133.75,-304.25 127.75,-304.25"/>
<text xml:space="preserve" text-anchor="middle" x="69.88" y="-289.8" font-family="sans-serif" font-size="11.00" fill="#ffffff">CLI</text>
<text xml:space="preserve" text-anchor="middle" x="69.88" y="-275.55" font-family="sans-serif" font-size="11.00" fill="#ffffff">(Cobra + Bubbletea TUI)</text>
</g>
<!-- Gin HTTP Server\n(18+ Endpoints) -->
<g id="node4" class="node">
<title>Gin HTTP Server\n(18+ Endpoints)</title>
<path fill="#0891b2" stroke="black" d="M233,-212.62C233,-212.62 160.75,-212.62 160.75,-212.62 154.75,-212.62 148.75,-206.62 148.75,-200.62 148.75,-200.62 148.75,-188.12 148.75,-188.12 148.75,-182.12 154.75,-176.12 160.75,-176.12 160.75,-176.12 233,-176.12 233,-176.12 239,-176.12 245,-182.12 245,-188.12 245,-188.12 245,-200.62 245,-200.62 245,-206.62 239,-212.62 233,-212.62"/>
<text xml:space="preserve" text-anchor="middle" x="196.88" y="-198.18" font-family="sans-serif" font-size="11.00" fill="#ffffff">Gin HTTP Server</text>
<text xml:space="preserve" text-anchor="middle" x="196.88" y="-183.93" font-family="sans-serif" font-size="11.00" fill="#ffffff">(18+ Endpoints)</text>
</g>
<!-- CLI\n(Cobra + Bubbletea TUI)&#45;&gt;Gin HTTP Server\n(18+ Endpoints) -->
<g id="edge1" class="edge">
<title>CLI\n(Cobra + Bubbletea TUI)&#45;&gt;Gin HTTP Server\n(18+ Endpoints)</title>
<path fill="none" stroke="#64748b" d="M140.22,-286C148.04,-286 153.25,-286 153.25,-286 153.25,-286 153.25,-224.43 153.25,-224.43"/>
<polygon fill="#64748b" stroke="#64748b" points="156.75,-224.43 153.25,-214.43 149.75,-224.43 156.75,-224.43"/>
<text xml:space="preserve" text-anchor="middle" x="80.75" y="-241.2" font-family="sans-serif" font-size="9.00" fill="#64748b">HTTP</text>
</g>
<!-- REST API\n(Port 11434) -->
<g id="node2" class="node">
<title>REST API\n(Port 11434)</title>
<path fill="#2563eb" stroke="black" d="M224,-304.25C224,-304.25 169.75,-304.25 169.75,-304.25 163.75,-304.25 157.75,-298.25 157.75,-292.25 157.75,-292.25 157.75,-279.75 157.75,-279.75 157.75,-273.75 163.75,-267.75 169.75,-267.75 169.75,-267.75 224,-267.75 224,-267.75 230,-267.75 236,-273.75 236,-279.75 236,-279.75 236,-292.25 236,-292.25 236,-298.25 230,-304.25 224,-304.25"/>
<text xml:space="preserve" text-anchor="middle" x="196.88" y="-289.8" font-family="sans-serif" font-size="11.00" fill="#ffffff">REST API</text>
<text xml:space="preserve" text-anchor="middle" x="196.88" y="-275.55" font-family="sans-serif" font-size="11.00" fill="#ffffff">(Port 11434)</text>
</g>
<!-- REST API\n(Port 11434)&#45;&gt;Gin HTTP Server\n(18+ Endpoints) -->
<g id="edge2" class="edge">
<title>REST API\n(Port 11434)&#45;&gt;Gin HTTP Server\n(18+ Endpoints)</title>
<path fill="none" stroke="#64748b" d="M196.88,-267.46C196.88,-267.46 196.88,-224.4 196.88,-224.4"/>
<polygon fill="#64748b" stroke="#64748b" points="200.38,-224.4 196.88,-214.4 193.38,-224.4 200.38,-224.4"/>
<text xml:space="preserve" text-anchor="middle" x="207.75" y="-241.2" font-family="sans-serif" font-size="9.00" fill="#64748b">HTTP</text>
</g>
<!-- OpenAI Compatible API\n(/v1/*) -->
<g id="node3" class="node">
<title>OpenAI Compatible API\n(/v1/*)</title>
<path fill="#2563eb" stroke="black" d="M371.88,-304.25C371.88,-304.25 265.88,-304.25 265.88,-304.25 259.88,-304.25 253.88,-298.25 253.88,-292.25 253.88,-292.25 253.88,-279.75 253.88,-279.75 253.88,-273.75 259.88,-267.75 265.88,-267.75 265.88,-267.75 371.88,-267.75 371.88,-267.75 377.88,-267.75 383.88,-273.75 383.88,-279.75 383.88,-279.75 383.88,-292.25 383.88,-292.25 383.88,-298.25 377.88,-304.25 371.88,-304.25"/>
<text xml:space="preserve" text-anchor="middle" x="318.88" y="-289.8" font-family="sans-serif" font-size="11.00" fill="#ffffff">OpenAI Compatible API</text>
<text xml:space="preserve" text-anchor="middle" x="318.88" y="-275.55" font-family="sans-serif" font-size="11.00" fill="#ffffff">(/v1/*)</text>
</g>
<!-- OpenAI Compatible API\n(/v1/*)&#45;&gt;Gin HTTP Server\n(18+ Endpoints) -->
<g id="edge3" class="edge">
<title>OpenAI Compatible API\n(/v1/*)&#45;&gt;Gin HTTP Server\n(18+ Endpoints)</title>
<path fill="none" stroke="#64748b" d="M253.44,-286C245.71,-286 240.5,-286 240.5,-286 240.5,-286 240.5,-224.43 240.5,-224.43"/>
<polygon fill="#64748b" stroke="#64748b" points="244,-224.43 240.5,-214.43 237,-224.43 244,-224.43"/>
<text xml:space="preserve" text-anchor="middle" x="329.75" y="-241.2" font-family="sans-serif" font-size="9.00" fill="#64748b">HTTP</text>
</g>
<!-- Model Scheduler\n(LRU Eviction · Keep&#45;Alive\nConcurrency Control) -->
<g id="node5" class="node">
<title>Model Scheduler\n(LRU Eviction · Keep&#45;Alive\nConcurrency Control)</title>
<path fill="#0891b2" stroke="black" d="M412.88,-219.75C412.88,-219.75 294.88,-219.75 294.88,-219.75 288.88,-219.75 282.88,-213.75 282.88,-207.75 282.88,-207.75 282.88,-181 282.88,-181 282.88,-175 288.88,-169 294.88,-169 294.88,-169 412.88,-169 412.88,-169 418.88,-169 424.88,-175 424.88,-181 424.88,-181 424.88,-207.75 424.88,-207.75 424.88,-213.75 418.88,-219.75 412.88,-219.75"/>
<text xml:space="preserve" text-anchor="middle" x="353.88" y="-205.3" font-family="sans-serif" font-size="11.00" fill="#ffffff">Model Scheduler</text>
<text xml:space="preserve" text-anchor="middle" x="353.88" y="-191.05" font-family="sans-serif" font-size="11.00" fill="#ffffff">(LRU Eviction · Keep&#45;Alive</text>
<text xml:space="preserve" text-anchor="middle" x="353.88" y="-176.8" font-family="sans-serif" font-size="11.00" fill="#ffffff">Concurrency Control)</text>
</g>
<!-- Gin HTTP Server\n(18+ Endpoints)&#45;&gt;Model Scheduler\n(LRU Eviction · Keep&#45;Alive\nConcurrency Control) -->
<g id="edge4" class="edge">
<title>Gin HTTP Server\n(18+ Endpoints)&#45;&gt;Model Scheduler\n(LRU Eviction · Keep&#45;Alive\nConcurrency Control)</title>
<path fill="none" stroke="#64748b" d="M245.26,-194C245.26,-194 271.05,-194 271.05,-194"/>
<polygon fill="#64748b" stroke="#64748b" points="271.05,-197.5 281.05,-194 271.05,-190.5 271.05,-197.5"/>
</g>
<!-- llamarunner\n(llama.cpp · C++) -->
<g id="node6" class="node">
<title>llamarunner\n(llama.cpp · C++)</title>
<path fill="#059669" stroke="black" d="M669.5,-121C669.5,-121 588.25,-121 588.25,-121 582.25,-121 576.25,-115 576.25,-109 576.25,-109 576.25,-96.5 576.25,-96.5 576.25,-90.5 582.25,-84.5 588.25,-84.5 588.25,-84.5 669.5,-84.5 669.5,-84.5 675.5,-84.5 681.5,-90.5 681.5,-96.5 681.5,-96.5 681.5,-109 681.5,-109 681.5,-115 675.5,-121 669.5,-121"/>
<text xml:space="preserve" text-anchor="middle" x="628.88" y="-106.55" font-family="sans-serif" font-size="11.00" fill="#ffffff">llamarunner</text>
<text xml:space="preserve" text-anchor="middle" x="628.88" y="-92.3" font-family="sans-serif" font-size="11.00" fill="#ffffff">(llama.cpp · C++)</text>
</g>
<!-- Model Scheduler\n(LRU Eviction · Keep&#45;Alive\nConcurrency Control)&#45;&gt;llamarunner\n(llama.cpp · C++) -->
<g id="edge5" class="edge">
<title>Model Scheduler\n(LRU Eviction · Keep&#45;Alive\nConcurrency Control)&#45;&gt;llamarunner\n(llama.cpp · C++)</title>
<path fill="none" stroke="#64748b" d="M415.56,-168.76C415.56,-143.61 415.56,-109 415.56,-109 415.56,-109 564.36,-109 564.36,-109"/>
<polygon fill="#64748b" stroke="#64748b" points="564.36,-112.5 574.36,-109 564.36,-105.5 564.36,-112.5"/>
<text xml:space="preserve" text-anchor="middle" x="579.62" y="-142.45" font-family="sans-serif" font-size="9.00" fill="#64748b">spawn</text>
</g>
<!-- ollamarunner\n(Go CGO) -->
<g id="node7" class="node">
<title>ollamarunner\n(Go CGO)</title>
<path fill="#059669" stroke="black" d="M381.38,-121C381.38,-121 326.38,-121 326.38,-121 320.38,-121 314.38,-115 314.38,-109 314.38,-109 314.38,-96.5 314.38,-96.5 314.38,-90.5 320.38,-84.5 326.38,-84.5 326.38,-84.5 381.38,-84.5 381.38,-84.5 387.38,-84.5 393.38,-90.5 393.38,-96.5 393.38,-96.5 393.38,-109 393.38,-109 393.38,-115 387.38,-121 381.38,-121"/>
<text xml:space="preserve" text-anchor="middle" x="353.88" y="-106.55" font-family="sans-serif" font-size="11.00" fill="#ffffff">ollamarunner</text>
<text xml:space="preserve" text-anchor="middle" x="353.88" y="-92.3" font-family="sans-serif" font-size="11.00" fill="#ffffff">(Go CGO)</text>
</g>
<!-- Model Scheduler\n(LRU Eviction · Keep&#45;Alive\nConcurrency Control)&#45;&gt;ollamarunner\n(Go CGO) -->
<g id="edge6" class="edge">
<title>Model Scheduler\n(LRU Eviction · Keep&#45;Alive\nConcurrency Control)&#45;&gt;ollamarunner\n(Go CGO)</title>
<path fill="none" stroke="#64748b" d="M353.88,-168.85C353.88,-168.85 353.88,-132.97 353.88,-132.97"/>
<polygon fill="#64748b" stroke="#64748b" points="357.38,-132.97 353.88,-122.97 350.38,-132.97 357.38,-132.97"/>
<text xml:space="preserve" text-anchor="middle" x="366.62" y="-142.45" font-family="sans-serif" font-size="9.00" fill="#64748b">spawn</text>
</g>
<!-- mlxrunner\n(Apple MLX) -->
<g id="node8" class="node">
<title>mlxrunner\n(Apple MLX)</title>
<path fill="#059669" stroke="black" d="M201.88,-121C201.88,-121 149.88,-121 149.88,-121 143.88,-121 137.88,-115 137.88,-109 137.88,-109 137.88,-96.5 137.88,-96.5 137.88,-90.5 143.88,-84.5 149.88,-84.5 149.88,-84.5 201.88,-84.5 201.88,-84.5 207.88,-84.5 213.88,-90.5 213.88,-96.5 213.88,-96.5 213.88,-109 213.88,-109 213.88,-115 207.88,-121 201.88,-121"/>
<text xml:space="preserve" text-anchor="middle" x="175.88" y="-106.55" font-family="sans-serif" font-size="11.00" fill="#ffffff">mlxrunner</text>
<text xml:space="preserve" text-anchor="middle" x="175.88" y="-92.3" font-family="sans-serif" font-size="11.00" fill="#ffffff">(Apple MLX)</text>
</g>
<!-- Model Scheduler\n(LRU Eviction · Keep&#45;Alive\nConcurrency Control)&#45;&gt;mlxrunner\n(Apple MLX) -->
<g id="edge7" class="edge">
<title>Model Scheduler\n(LRU Eviction · Keep&#45;Alive\nConcurrency Control)&#45;&gt;mlxrunner\n(Apple MLX)</title>
<path fill="none" stroke="#64748b" d="M298.62,-168.76C298.62,-143.61 298.62,-109 298.62,-109 298.62,-109 225.55,-109 225.55,-109"/>
<polygon fill="#64748b" stroke="#64748b" points="225.55,-105.5 215.55,-109 225.55,-112.5 225.55,-105.5"/>
<text xml:space="preserve" text-anchor="middle" x="294.62" y="-142.45" font-family="sans-serif" font-size="9.00" fill="#64748b">spawn</text>
</g>
<!-- GGUF Models -->
<g id="node9" class="node">
<title>GGUF Models</title>
<path fill="#7c3aed" stroke="black" d="M204.88,-36.25C204.88,-36.25 146.88,-36.25 146.88,-36.25 140.88,-36.25 134.88,-30.25 134.88,-24.25 134.88,-24.25 134.88,-12.25 134.88,-12.25 134.88,-6.25 140.88,-0.25 146.88,-0.25 146.88,-0.25 204.88,-0.25 204.88,-0.25 210.88,-0.25 216.88,-6.25 216.88,-12.25 216.88,-12.25 216.88,-24.25 216.88,-24.25 216.88,-30.25 210.88,-36.25 204.88,-36.25"/>
<text xml:space="preserve" text-anchor="middle" x="175.88" y="-14.93" font-family="sans-serif" font-size="11.00" fill="#ffffff">GGUF Models</text>
</g>
<!-- llamarunner\n(llama.cpp · C++)&#45;&gt;GGUF Models -->
<g id="edge8" class="edge">
<title>llamarunner\n(llama.cpp · C++)&#45;&gt;GGUF Models</title>
<path fill="none" stroke="#64748b" d="M583.06,-84.32C583.06,-73.13 583.06,-61 583.06,-61 583.06,-61 188.54,-61 188.54,-61 188.54,-61 188.54,-48.14 188.54,-48.14"/>
<polygon fill="#64748b" stroke="#64748b" points="192.04,-48.14 188.54,-38.14 185.04,-48.14 192.04,-48.14"/>
<text xml:space="preserve" text-anchor="middle" x="615.5" y="-57.95" font-family="sans-serif" font-size="9.00" fill="#64748b">load</text>
</g>
<!-- NVIDIA CUDA -->
<g id="node12" class="node">
<title>NVIDIA CUDA</title>
<path fill="#dc2626" stroke="black" d="M680,-36.25C680,-36.25 619.75,-36.25 619.75,-36.25 613.75,-36.25 607.75,-30.25 607.75,-24.25 607.75,-24.25 607.75,-12.25 607.75,-12.25 607.75,-6.25 613.75,-0.25 619.75,-0.25 619.75,-0.25 680,-0.25 680,-0.25 686,-0.25 692,-6.25 692,-12.25 692,-12.25 692,-24.25 692,-24.25 692,-30.25 686,-36.25 680,-36.25"/>
<text xml:space="preserve" text-anchor="middle" x="649.88" y="-14.93" font-family="sans-serif" font-size="11.00" fill="#ffffff">NVIDIA CUDA</text>
</g>
<!-- llamarunner\n(llama.cpp · C++)&#45;&gt;NVIDIA CUDA -->
<g id="edge13" class="edge">
<title>llamarunner\n(llama.cpp · C++)&#45;&gt;NVIDIA CUDA</title>
<path fill="none" stroke="#64748b" d="M644.62,-84.41C644.62,-84.41 644.62,-48.06 644.62,-48.06"/>
<polygon fill="#64748b" stroke="#64748b" points="648.13,-48.06 644.63,-38.06 641.13,-48.06 648.13,-48.06"/>
<text xml:space="preserve" text-anchor="middle" x="658.5" y="-57.95" font-family="sans-serif" font-size="9.00" fill="#64748b">GPU</text>
</g>
<!-- AMD ROCm -->
<g id="node13" class="node">
<title>AMD ROCm</title>
<path fill="#dc2626" stroke="black" d="M770,-36.25C770,-36.25 721.75,-36.25 721.75,-36.25 715.75,-36.25 709.75,-30.25 709.75,-24.25 709.75,-24.25 709.75,-12.25 709.75,-12.25 709.75,-6.25 715.75,-0.25 721.75,-0.25 721.75,-0.25 770,-0.25 770,-0.25 776,-0.25 782,-6.25 782,-12.25 782,-12.25 782,-24.25 782,-24.25 782,-30.25 776,-36.25 770,-36.25"/>
<text xml:space="preserve" text-anchor="middle" x="745.88" y="-14.93" font-family="sans-serif" font-size="11.00" fill="#ffffff">AMD ROCm</text>
</g>
<!-- llamarunner\n(llama.cpp · C++)&#45;&gt;AMD ROCm -->
<g id="edge14" class="edge">
<title>llamarunner\n(llama.cpp · C++)&#45;&gt;AMD ROCm</title>
<path fill="none" stroke="#64748b" d="M681.9,-103C712.85,-103 745.88,-103 745.88,-103 745.88,-103 745.88,-48.15 745.88,-48.15"/>
<polygon fill="#64748b" stroke="#64748b" points="749.38,-48.15 745.88,-38.15 742.38,-48.15 749.38,-48.15"/>
<text xml:space="preserve" text-anchor="middle" x="754.5" y="-57.95" font-family="sans-serif" font-size="9.00" fill="#64748b">GPU</text>
</g>
<!-- ollamarunner\n(Go CGO)&#45;&gt;GGUF Models -->
<g id="edge9" class="edge">
<title>ollamarunner\n(Go CGO)&#45;&gt;GGUF Models</title>
<path fill="none" stroke="#64748b" d="M314.09,-97C284.58,-97 249.44,-97 249.44,-97 249.44,-97 249.44,-24 249.44,-24 249.44,-24 228.47,-24 228.47,-24"/>
<polygon fill="#64748b" stroke="#64748b" points="228.47,-20.5 218.47,-24 228.47,-27.5 228.47,-20.5"/>
<text xml:space="preserve" text-anchor="middle" x="252.5" y="-57.95" font-family="sans-serif" font-size="9.00" fill="#64748b">load</text>
</g>
<!-- CPU -->
<g id="node15" class="node">
<title>CPU</title>
<path fill="#dc2626" stroke="black" d="M577.88,-36.25C577.88,-36.25 547.88,-36.25 547.88,-36.25 541.88,-36.25 535.88,-30.25 535.88,-24.25 535.88,-24.25 535.88,-12.25 535.88,-12.25 535.88,-6.25 541.88,-0.25 547.88,-0.25 547.88,-0.25 577.88,-0.25 577.88,-0.25 583.88,-0.25 589.88,-6.25 589.88,-12.25 589.88,-12.25 589.88,-24.25 589.88,-24.25 589.88,-30.25 583.88,-36.25 577.88,-36.25"/>
<text xml:space="preserve" text-anchor="middle" x="562.88" y="-14.93" font-family="sans-serif" font-size="11.00" fill="#ffffff">CPU</text>
</g>
<!-- ollamarunner\n(Go CGO)&#45;&gt;CPU -->
<g id="edge16" class="edge">
<title>ollamarunner\n(Go CGO)&#45;&gt;CPU</title>
<path fill="none" stroke="#64748b" d="M393.82,-97C452.74,-97 556.06,-97 556.06,-97 556.06,-97 556.06,-48.03 556.06,-48.03"/>
<polygon fill="#64748b" stroke="#64748b" points="559.56,-48.03 556.06,-38.03 552.56,-48.03 559.56,-48.03"/>
<text xml:space="preserve" text-anchor="middle" x="571.12" y="-57.95" font-family="sans-serif" font-size="9.00" fill="#64748b">CPU</text>
</g>
<!-- mlxrunner\n(Apple MLX)&#45;&gt;GGUF Models -->
<g id="edge10" class="edge">
<title>mlxrunner\n(Apple MLX)&#45;&gt;GGUF Models</title>
<path fill="none" stroke="#64748b" d="M163.21,-84.41C163.21,-84.41 163.21,-48.06 163.21,-48.06"/>
<polygon fill="#64748b" stroke="#64748b" points="166.71,-48.06 163.21,-38.06 159.71,-48.06 166.71,-48.06"/>
<text xml:space="preserve" text-anchor="middle" x="184.5" y="-57.95" font-family="sans-serif" font-size="9.00" fill="#64748b">load</text>
</g>
<!-- Apple Metal -->
<g id="node14" class="node">
<title>Apple Metal</title>
<path fill="#dc2626" stroke="black" d="M104.38,-36.25C104.38,-36.25 55.38,-36.25 55.38,-36.25 49.38,-36.25 43.38,-30.25 43.38,-24.25 43.38,-24.25 43.38,-12.25 43.38,-12.25 43.38,-6.25 49.38,-0.25 55.38,-0.25 55.38,-0.25 104.38,-0.25 104.38,-0.25 110.38,-0.25 116.38,-6.25 116.38,-12.25 116.38,-12.25 116.38,-24.25 116.38,-24.25 116.38,-30.25 110.38,-36.25 104.38,-36.25"/>
<text xml:space="preserve" text-anchor="middle" x="79.88" y="-14.93" font-family="sans-serif" font-size="11.00" fill="#ffffff">Apple Metal</text>
</g>
<!-- mlxrunner\n(Apple MLX)&#45;&gt;Apple Metal -->
<g id="edge15" class="edge">
<title>mlxrunner\n(Apple MLX)&#45;&gt;Apple Metal</title>
<path fill="none" stroke="#64748b" d="M137.38,-103C110.67,-103 79.88,-103 79.88,-103 79.88,-103 79.88,-48.15 79.88,-48.15"/>
<polygon fill="#64748b" stroke="#64748b" points="83.38,-48.15 79.88,-38.15 76.38,-48.15 83.38,-48.15"/>
<text xml:space="preserve" text-anchor="middle" x="88.5" y="-57.95" font-family="sans-serif" font-size="9.00" fill="#64748b">GPU</text>
</g>
<!-- Manifest / Blobs\n(Docker&#45;like Layers) -->
<g id="node10" class="node">
<title>Manifest / Blobs\n(Docker&#45;like Layers)</title>
<path fill="#7c3aed" stroke="black" d="M356.62,-36.5C356.62,-36.5 267.12,-36.5 267.12,-36.5 261.12,-36.5 255.12,-30.5 255.12,-24.5 255.12,-24.5 255.12,-12 255.12,-12 255.12,-6 261.12,0 267.12,0 267.12,0 356.62,0 356.62,0 362.62,0 368.62,-6 368.62,-12 368.62,-12 368.62,-24.5 368.62,-24.5 368.62,-30.5 362.62,-36.5 356.62,-36.5"/>
<text xml:space="preserve" text-anchor="middle" x="311.88" y="-22.05" font-family="sans-serif" font-size="11.00" fill="#ffffff">Manifest / Blobs</text>
<text xml:space="preserve" text-anchor="middle" x="311.88" y="-7.8" font-family="sans-serif" font-size="11.00" fill="#ffffff">(Docker&#45;like Layers)</text>
</g>
<!-- GGUF Models&#45;&gt;Manifest / Blobs\n(Docker&#45;like Layers) -->
<g id="edge11" class="edge">
<title>GGUF Models&#45;&gt;Manifest / Blobs\n(Docker&#45;like Layers)</title>
<path fill="none" stroke="#64748b" d="M217.05,-12C217.05,-12 243.27,-12 243.27,-12"/>
<polygon fill="#64748b" stroke="#64748b" points="243.27,-15.5 253.27,-12 243.27,-8.5 243.27,-15.5"/>
</g>
<!-- Model Registry\n(~/.ollama/models) -->
<g id="node11" class="node">
<title>Model Registry\n(~/.ollama/models)</title>
<path fill="#7c3aed" stroke="black" d="M505.5,-36.5C505.5,-36.5 418.25,-36.5 418.25,-36.5 412.25,-36.5 406.25,-30.5 406.25,-24.5 406.25,-24.5 406.25,-12 406.25,-12 406.25,-6 412.25,0 418.25,0 418.25,0 505.5,0 505.5,0 511.5,0 517.5,-6 517.5,-12 517.5,-12 517.5,-24.5 517.5,-24.5 517.5,-30.5 511.5,-36.5 505.5,-36.5"/>
<text xml:space="preserve" text-anchor="middle" x="461.88" y="-22.05" font-family="sans-serif" font-size="11.00" fill="#ffffff">Model Registry</text>
<text xml:space="preserve" text-anchor="middle" x="461.88" y="-7.8" font-family="sans-serif" font-size="11.00" fill="#ffffff">(~/.ollama/models)</text>
</g>
<!-- Manifest / Blobs\n(Docker&#45;like Layers)&#45;&gt;Model Registry\n(~/.ollama/models) -->
<g id="edge12" class="edge">
<title>Manifest / Blobs\n(Docker&#45;like Layers)&#45;&gt;Model Registry\n(~/.ollama/models)</title>
<path fill="none" stroke="#64748b" d="M369.01,-18C369.01,-18 394.38,-18 394.38,-18"/>
<polygon fill="#64748b" stroke="#64748b" points="394.38,-21.5 404.38,-18 394.38,-14.5 394.38,-21.5"/>
</g>
<!-- User Interfaces -->
<g id="node16" class="node">
<title>User Interfaces</title>
<path fill="#2563eb" stroke="none" d="M492,-304C492,-304 413.75,-304 413.75,-304 407.75,-304 401.75,-298 401.75,-292 401.75,-292 401.75,-280 401.75,-280 401.75,-274 407.75,-268 413.75,-268 413.75,-268 492,-268 492,-268 498,-268 504,-274 504,-280 504,-280 504,-292 504,-292 504,-298 498,-304 492,-304"/>
<text xml:space="preserve" text-anchor="middle" x="452.88" y="-281.9" font-family="sans-serif" font-size="13.00" fill="#ffffff">User Interfaces</text>
</g>
</g>
</svg>
