<?xml version="1.0" encoding="UTF-8" standalone="no"?>
<!DOCTYPE svg PUBLIC "-//W3C//DTD SVG 1.1//EN"
 "http://www.w3.org/Graphics/SVG/1.1/DTD/svg11.dtd">
<!-- Generated by graphviz version 14.1.2 (0)
 -->
<!-- Title: TwoPhaseInference Pages: 1 -->
<svg width="1563pt" height="249pt"
 viewBox="0.00 0.00 1563.00 249.00" xmlns="http://www.w3.org/2000/svg" xmlns:xlink="http://www.w3.org/1999/xlink">
<g id="graph0" class="graph" transform="scale(1 1) rotate(0) translate(4 245.25)">
<title>TwoPhaseInference</title>
<polygon fill="#f8fafc" stroke="none" points="-4,4 -4,-245.25 1559,-245.25 1559,4 -4,4"/>
<!-- p1_attn -->
<g id="node1" class="node">
<title>p1_attn</title>
<path fill="#0891b2" stroke="black" d="M427.25,-59.25C427.25,-59.25 330.25,-59.25 330.25,-59.25 324.25,-59.25 318.25,-53.25 318.25,-47.25 318.25,-47.25 318.25,-22.75 318.25,-22.75 318.25,-16.75 324.25,-10.75 330.25,-10.75 330.25,-10.75 427.25,-10.75 427.25,-10.75 433.25,-10.75 439.25,-16.75 439.25,-22.75 439.25,-22.75 439.25,-47.25 439.25,-47.25 439.25,-53.25 433.25,-59.25 427.25,-59.25"/>
<text xml:space="preserve" text-anchor="middle" x="378.75" y="-44.8" font-family="Arial" font-size="11.00" fill="white">Bidirectional Attention</text>
<text xml:space="preserve" text-anchor="middle" x="378.75" y="-31.3" font-family="Arial" font-size="11.00" fill="white">(All Scale Frames</text>
<text xml:space="preserve" text-anchor="middle" x="378.75" y="-17.8" font-family="Arial" font-size="11.00" fill="white">Attend to Each Other)</text>
</g>
<!-- p1_scale -->
<g id="node5" class="node">
<title>p1_scale</title>
<path fill="#7c3aed" stroke="black" d="M610.75,-53C610.75,-53 492.75,-53 492.75,-53 486.75,-53 480.75,-47 480.75,-41 480.75,-41 480.75,-29 480.75,-29 480.75,-23 486.75,-17 492.75,-17 492.75,-17 610.75,-17 610.75,-17 616.75,-17 622.75,-23 622.75,-29 622.75,-29 622.75,-41 622.75,-41 622.75,-47 616.75,-53 610.75,-53"/>
<text xml:space="preserve" text-anchor="middle" x="551.75" y="-38.05" font-family="Arial" font-size="11.00" fill="white">Scale Tokens Establish</text>
<text xml:space="preserve" text-anchor="middle" x="551.75" y="-24.55" font-family="Arial" font-size="11.00" fill="white">Global Coordinate System</text>
</g>
<!-- p1_attn&#45;&gt;p1_scale -->
<g id="edge3" class="edge">
<title>p1_attn&#45;&gt;p1_scale</title>
<path fill="none" stroke="#64748b" d="M439.74,-35C439.74,-35 468.85,-35 468.85,-35"/>
<polygon fill="#64748b" stroke="#64748b" points="468.85,-38.5 478.85,-35 468.85,-31.5 468.85,-38.5"/>
</g>
<!-- p2_attn -->
<g id="node2" class="node">
<title>p2_attn</title>
<path fill="#0891b2" stroke="black" d="M431.75,-174.25C431.75,-174.25 325.75,-174.25 325.75,-174.25 319.75,-174.25 313.75,-168.25 313.75,-162.25 313.75,-162.25 313.75,-137.75 313.75,-137.75 313.75,-131.75 319.75,-125.75 325.75,-125.75 325.75,-125.75 431.75,-125.75 431.75,-125.75 437.75,-125.75 443.75,-131.75 443.75,-137.75 443.75,-137.75 443.75,-162.25 443.75,-162.25 443.75,-168.25 437.75,-174.25 431.75,-174.25"/>
<text xml:space="preserve" text-anchor="middle" x="378.75" y="-159.8" font-family="Arial" font-size="11.00" fill="white">Causal Attention</text>
<text xml:space="preserve" text-anchor="middle" x="378.75" y="-146.3" font-family="Arial" font-size="11.00" fill="white">(Current Frame Attends</text>
<text xml:space="preserve" text-anchor="middle" x="378.75" y="-132.8" font-family="Arial" font-size="11.00" fill="white">to Cached Frames)</text>
</g>
<!-- p2_keyframe -->
<g id="node11" class="node">
<title>p2_keyframe</title>
<path fill="#7c3aed" stroke="black" d="M595.75,-241.25C595.75,-241.25 507.75,-241.25 507.75,-241.25 501.75,-241.25 495.75,-235.25 495.75,-229.25 495.75,-229.25 495.75,-204.75 495.75,-204.75 495.75,-198.75 501.75,-192.75 507.75,-192.75 507.75,-192.75 595.75,-192.75 595.75,-192.75 601.75,-192.75 607.75,-198.75 607.75,-204.75 607.75,-204.75 607.75,-229.25 607.75,-229.25 607.75,-235.25 601.75,-241.25 595.75,-241.25"/>
<text xml:space="preserve" text-anchor="middle" x="551.75" y="-226.8" font-family="Arial" font-size="11.00" fill="white">Keyframe Mode:</text>
<text xml:space="preserve" text-anchor="middle" x="551.75" y="-213.3" font-family="Arial" font-size="11.00" fill="white">Every N&#45;th Frame</text>
<text xml:space="preserve" text-anchor="middle" x="551.75" y="-199.8" font-family="Arial" font-size="11.00" fill="white">Stored in KV Cache</text>
</g>
<!-- p2_attn&#45;&gt;p2_keyframe -->
<g id="edge10" class="edge">
<title>p2_attn&#45;&gt;p2_keyframe</title>
<path fill="none" stroke="#64748b" d="M379,-174.57C379,-193.69 379,-217 379,-217 379,-217 484.15,-217 484.15,-217"/>
<polygon fill="#64748b" stroke="#64748b" points="484.15,-220.5 494.15,-217 484.15,-213.5 484.15,-220.5"/>
</g>
<!-- p2_nonkey -->
<g id="node12" class="node">
<title>p2_nonkey</title>
<path fill="#7c3aed" stroke="black" d="M604.38,-174.25C604.38,-174.25 499.12,-174.25 499.12,-174.25 493.12,-174.25 487.12,-168.25 487.12,-162.25 487.12,-162.25 487.12,-137.75 487.12,-137.75 487.12,-131.75 493.12,-125.75 499.12,-125.75 499.12,-125.75 604.38,-125.75 604.38,-125.75 610.38,-125.75 616.38,-131.75 616.38,-137.75 616.38,-137.75 616.38,-162.25 616.38,-162.25 616.38,-168.25 610.38,-174.25 604.38,-174.25"/>
<text xml:space="preserve" text-anchor="middle" x="551.75" y="-159.8" font-family="Arial" font-size="11.00" fill="white">Non&#45;Keyframe Frames:</text>
<text xml:space="preserve" text-anchor="middle" x="551.75" y="-146.3" font-family="Arial" font-size="11.00" fill="white">Attend But Don&#39;t</text>
<text xml:space="preserve" text-anchor="middle" x="551.75" y="-132.8" font-family="Arial" font-size="11.00" fill="white">Persist KV</text>
</g>
<!-- p2_attn&#45;&gt;p2_nonkey -->
<g id="edge11" class="edge">
<title>p2_attn&#45;&gt;p2_nonkey</title>
<path fill="none" stroke="#64748b" d="M444.15,-150C444.15,-150 475.31,-150 475.31,-150"/>
<polygon fill="#64748b" stroke="#64748b" points="475.31,-153.5 485.31,-150 475.31,-146.5 475.31,-153.5"/>
</g>
<!-- phase1_title -->
<g id="node3" class="node">
<title>phase1_title</title>
<path fill="#1e40af" stroke="black" stroke-width="2" d="M145,-53C145,-53 12,-53 12,-53 6,-53 0,-47 0,-41 0,-41 0,-29 0,-29 0,-23 6,-17 12,-17 12,-17 145,-17 145,-17 151,-17 157,-23 157,-29 157,-29 157,-41 157,-41 157,-47 151,-53 145,-53"/>
<text xml:space="preserve" text-anchor="middle" x="78.5" y="-29.58" font-family="Arial" font-size="14.00" fill="white">Phase 1: Scale Frames</text>
</g>
<!-- p1_input -->
<g id="node4" class="node">
<title>p1_input</title>
<path fill="#059669" stroke="black" d="M264.75,-53C264.75,-53 206,-53 206,-53 200,-53 194,-47 194,-41 194,-41 194,-29 194,-29 194,-23 200,-17 206,-17 206,-17 264.75,-17 264.75,-17 270.75,-17 276.75,-23 276.75,-29 276.75,-29 276.75,-41 276.75,-41 276.75,-47 270.75,-53 264.75,-53"/>
<text xml:space="preserve" text-anchor="middle" x="235.38" y="-38.05" font-family="Arial" font-size="11.00" fill="white">Input: Initial N</text>
<text xml:space="preserve" text-anchor="middle" x="235.38" y="-24.55" font-family="Arial" font-size="11.00" fill="white">Scale Frames</text>
</g>
<!-- phase1_title&#45;&gt;p1_input -->
<!-- p1_input&#45;&gt;p1_attn -->
<g id="edge2" class="edge">
<title>p1_input&#45;&gt;p1_attn</title>
<path fill="none" stroke="#64748b" d="M277.23,-35C277.23,-35 306.41,-35 306.41,-35"/>
<polygon fill="#64748b" stroke="#64748b" points="306.41,-38.5 316.41,-35 306.41,-31.5 306.41,-38.5"/>
</g>
<!-- p1_kv -->
<g id="node6" class="node">
<title>p1_kv</title>
<path fill="#d97706" stroke="black" d="M831.5,-53C831.5,-53 712.75,-53 712.75,-53 706.75,-53 700.75,-47 700.75,-41 700.75,-41 700.75,-29 700.75,-29 700.75,-23 706.75,-17 712.75,-17 712.75,-17 831.5,-17 831.5,-17 837.5,-17 843.5,-23 843.5,-29 843.5,-29 843.5,-41 843.5,-41 843.5,-47 837.5,-53 831.5,-53"/>
<text xml:space="preserve" text-anchor="middle" x="772.12" y="-38.05" font-family="Arial" font-size="11.00" fill="white">KV Cache Populated</text>
<text xml:space="preserve" text-anchor="middle" x="772.12" y="-24.55" font-family="Arial" font-size="11.00" fill="white">(Patch + Special Streams)</text>
</g>
<!-- p1_scale&#45;&gt;p1_kv -->
<g id="edge4" class="edge">
<title>p1_scale&#45;&gt;p1_kv</title>
<path fill="none" stroke="#64748b" d="M623,-35C623,-35 688.86,-35 688.86,-35"/>
<polygon fill="#64748b" stroke="#64748b" points="688.86,-38.5 698.86,-35 688.86,-31.5 688.86,-38.5"/>
</g>
<!-- p1_output -->
<g id="node7" class="node">
<title>p1_output</title>
<path fill="#059669" stroke="black" d="M1071,-59.25C1071,-59.25 965,-59.25 965,-59.25 959,-59.25 953,-53.25 953,-47.25 953,-47.25 953,-22.75 953,-22.75 953,-16.75 959,-10.75 965,-10.75 965,-10.75 1071,-10.75 1071,-10.75 1077,-10.75 1083,-16.75 1083,-22.75 1083,-22.75 1083,-47.25 1083,-47.25 1083,-53.25 1077,-59.25 1071,-59.25"/>
<text xml:space="preserve" text-anchor="middle" x="1018" y="-44.8" font-family="Arial" font-size="11.00" fill="white">Output: Initial</text>
<text xml:space="preserve" text-anchor="middle" x="1018" y="-31.3" font-family="Arial" font-size="11.00" fill="white">Camera Poses + Depth</text>
<text xml:space="preserve" text-anchor="middle" x="1018" y="-17.8" font-family="Arial" font-size="11.00" fill="white">+ 3D Points</text>
</g>
<!-- p1_kv&#45;&gt;p1_output -->
<g id="edge5" class="edge">
<title>p1_kv&#45;&gt;p1_output</title>
<path fill="none" stroke="#64748b" d="M843.9,-35C843.9,-35 941.34,-35 941.34,-35"/>
<polygon fill="#64748b" stroke="#64748b" points="941.34,-38.5 951.34,-35 941.34,-31.5 941.34,-38.5"/>
</g>
<!-- transition -->
<g id="node8" class="node">
<title>transition</title>
<polygon fill="#dc2626" stroke="black" points="1285,-70 1189.5,-35 1285,0 1380.5,-35 1285,-70"/>
<text xml:space="preserve" text-anchor="middle" x="1285" y="-38.05" font-family="Arial" font-size="11.00" fill="white">Transition</text>
<text xml:space="preserve" text-anchor="middle" x="1285" y="-24.55" font-family="Arial" font-size="11.00" fill="white">Scale → Stream</text>
</g>
<!-- p1_output&#45;&gt;transition -->
<g id="edge6" class="edge">
<title>p1_output&#45;&gt;transition</title>
<path fill="none" stroke="#64748b" d="M1083.32,-35C1083.32,-35 1176.79,-35 1176.79,-35"/>
<polygon fill="#64748b" stroke="#64748b" points="1176.79,-38.5 1186.79,-35 1176.79,-31.5 1176.79,-38.5"/>
<text xml:space="preserve" text-anchor="middle" x="1136.25" y="-36.95" font-family="Arial" font-size="9.00" fill="#64748b">establishes scale</text>
</g>
<!-- p2_input -->
<g id="node10" class="node">
<title>p2_input</title>
<path fill="#059669" stroke="black" d="M1543,-116C1543,-116 1429.5,-116 1429.5,-116 1423.5,-116 1417.5,-110 1417.5,-104 1417.5,-104 1417.5,-92 1417.5,-92 1417.5,-86 1423.5,-80 1429.5,-80 1429.5,-80 1543,-80 1543,-80 1549,-80 1555,-86 1555,-92 1555,-92 1555,-104 1555,-104 1555,-110 1549,-116 1543,-116"/>
<text xml:space="preserve" text-anchor="middle" x="1486.25" y="-101.05" font-family="Arial" font-size="11.00" fill="white">Input: Remaining Frames</text>
<text xml:space="preserve" text-anchor="middle" x="1486.25" y="-87.55" font-family="Arial" font-size="11.00" fill="white">(One&#45;by&#45;One)</text>
</g>
<!-- transition&#45;&gt;p2_input -->
<g id="edge7" class="edge">
<title>transition&#45;&gt;p2_input</title>
<path fill="none" stroke="#64748b" d="M1303.91,-63.5C1353.95,-63.5 1486,-63.5 1486,-63.5 1486,-63.5 1486,-68.02 1486,-68.02"/>
<polygon fill="#64748b" stroke="#64748b" points="1482.5,-68.02 1486,-78.02 1489.5,-68.02 1482.5,-68.02"/>
</g>
<!-- data_flow -->
<g id="node16" class="node">
<title>data_flow</title>
<polygon fill="none" stroke="black" points="1547.12,-57 1419.38,-57 1419.38,-13 1553.12,-13 1553.12,-51 1547.12,-57"/>
<polyline fill="none" stroke="black" points="1547.12,-57 1547.12,-51"/>
<polyline fill="none" stroke="black" points="1553.12,-51 1547.12,-51"/>
<text xml:space="preserve" text-anchor="middle" x="1486.25" y="-43.5" font-family="Arial" font-size="10.00" fill="#1e40af">Phase 1 Establishes Scale</text>
<text xml:space="preserve" text-anchor="middle" x="1486.25" y="-31.5" font-family="Arial" font-size="10.00" fill="#1e40af">→ Phase 2 Streams</text>
<text xml:space="preserve" text-anchor="middle" x="1486.25" y="-19.5" font-family="Arial" font-size="10.00" fill="#1e40af">with Drift Correction</text>
</g>
<!-- transition&#45;&gt;data_flow -->
<g id="edge16" class="edge">
<title>transition&#45;&gt;data_flow</title>
<path fill="none" stroke="#64748b" stroke-dasharray="1,5" d="M1381.79,-35C1381.79,-35 1407.49,-35 1407.49,-35"/>
<polygon fill="#64748b" stroke="#64748b" points="1407.49,-38.5 1417.49,-35 1407.49,-31.5 1407.49,-38.5"/>
</g>
<!-- phase2_title -->
<g id="node9" class="node">
<title>phase2_title</title>
<path fill="#1e40af" stroke="black" stroke-width="2" d="M1365.75,-162C1365.75,-162 1204.25,-162 1204.25,-162 1198.25,-162 1192.25,-156 1192.25,-150 1192.25,-150 1192.25,-138 1192.25,-138 1192.25,-132 1198.25,-126 1204.25,-126 1204.25,-126 1365.75,-126 1365.75,-126 1371.75,-126 1377.75,-132 1377.75,-138 1377.75,-138 1377.75,-150 1377.75,-150 1377.75,-156 1371.75,-162 1365.75,-162"/>
<text xml:space="preserve" text-anchor="middle" x="1285" y="-138.57" font-family="Arial" font-size="14.00" fill="white">Phase 2: Streaming Frames</text>
</g>
<!-- phase2_title&#45;&gt;p2_input -->
<!-- p2_input&#45;&gt;p2_attn -->
<g id="edge9" class="edge">
<title>p2_input&#45;&gt;p2_attn</title>
<path fill="none" stroke="#64748b" d="M1417.4,-98C1175.5,-98 379,-98 379,-98 379,-98 379,-114.01 379,-114.01"/>
<polygon fill="#64748b" stroke="#64748b" points="375.5,-114.01 379,-124.01 382.5,-114.01 375.5,-114.01"/>
</g>
<!-- p2_windowed -->
<g id="node13" class="node">
<title>p2_windowed</title>
<path fill="#d97706" stroke="black" d="M817.62,-241.25C817.62,-241.25 726.62,-241.25 726.62,-241.25 720.62,-241.25 714.62,-235.25 714.62,-229.25 714.62,-229.25 714.62,-204.75 714.62,-204.75 714.62,-198.75 720.62,-192.75 726.62,-192.75 726.62,-192.75 817.62,-192.75 817.62,-192.75 823.62,-192.75 829.62,-198.75 829.62,-204.75 829.62,-204.75 829.62,-229.25 829.62,-229.25 829.62,-235.25 823.62,-241.25 817.62,-241.25"/>
<text xml:space="preserve" text-anchor="middle" x="772.12" y="-226.8" font-family="Arial" font-size="11.00" fill="white">Windowed Inference</text>
<text xml:space="preserve" text-anchor="middle" x="772.12" y="-213.3" font-family="Arial" font-size="11.00" fill="white">(&gt;3000 Frames)</text>
<text xml:space="preserve" text-anchor="middle" x="772.12" y="-199.8" font-family="Arial" font-size="11.00" fill="white">Sliding Window</text>
</g>
<!-- p2_keyframe&#45;&gt;p2_windowed -->
<g id="edge12" class="edge">
<title>p2_keyframe&#45;&gt;p2_windowed</title>
<path fill="none" stroke="#64748b" stroke-dasharray="5,2" d="M608.22,-225.08C608.22,-225.08 702.76,-225.08 702.76,-225.08"/>
<polygon fill="#64748b" stroke="#64748b" points="702.76,-228.58 712.76,-225.08 702.76,-221.58 702.76,-228.58"/>
<text xml:space="preserve" text-anchor="middle" x="661.75" y="-218.95" font-family="Arial" font-size="9.00" fill="#64748b">if long seq</text>
</g>
<!-- p2_output -->
<g id="node14" class="node">
<title>p2_output</title>
<path fill="#059669" stroke="black" d="M825.12,-174.25C825.12,-174.25 719.12,-174.25 719.12,-174.25 713.12,-174.25 707.12,-168.25 707.12,-162.25 707.12,-162.25 707.12,-137.75 707.12,-137.75 707.12,-131.75 713.12,-125.75 719.12,-125.75 719.12,-125.75 825.12,-125.75 825.12,-125.75 831.12,-125.75 837.12,-131.75 837.12,-137.75 837.12,-137.75 837.12,-162.25 837.12,-162.25 837.12,-168.25 831.12,-174.25 825.12,-174.25"/>
<text xml:space="preserve" text-anchor="middle" x="772.12" y="-159.8" font-family="Arial" font-size="11.00" fill="white">Output: Continuous</text>
<text xml:space="preserve" text-anchor="middle" x="772.12" y="-146.3" font-family="Arial" font-size="11.00" fill="white">Camera Poses + Depth</text>
<text xml:space="preserve" text-anchor="middle" x="772.12" y="-132.8" font-family="Arial" font-size="11.00" fill="white">+ 3D Points</text>
</g>
<!-- p2_keyframe&#45;&gt;p2_output -->
<g id="edge13" class="edge">
<title>p2_keyframe&#45;&gt;p2_output</title>
<path fill="none" stroke="#64748b" d="M607.9,-208.92C653.74,-208.92 711,-208.92 711,-208.92 711,-208.92 711,-186.16 711,-186.16"/>
<polygon fill="#64748b" stroke="#64748b" points="714.5,-186.16 711,-176.16 707.5,-186.16 714.5,-186.16"/>
</g>
<!-- p2_nonkey&#45;&gt;p2_output -->
<g id="edge14" class="edge">
<title>p2_nonkey&#45;&gt;p2_output</title>
<path fill="none" stroke="#64748b" stroke-dasharray="5,2" d="M616.68,-150C616.68,-150 695.39,-150 695.39,-150"/>
<polygon fill="#64748b" stroke="#64748b" points="695.39,-153.5 705.39,-150 695.39,-146.5 695.39,-153.5"/>
</g>
<!-- p2_trajectory -->
<g id="node15" class="node">
<title>p2_trajectory</title>
<path fill="#059669" stroke="black" stroke-width="2" d="M1060.88,-174.25C1060.88,-174.25 975.12,-174.25 975.12,-174.25 969.12,-174.25 963.12,-168.25 963.12,-162.25 963.12,-162.25 963.12,-137.75 963.12,-137.75 963.12,-131.75 969.12,-125.75 975.12,-125.75 975.12,-125.75 1060.88,-125.75 1060.88,-125.75 1066.88,-125.75 1072.88,-131.75 1072.88,-137.75 1072.88,-137.75 1072.88,-162.25 1072.88,-162.25 1072.88,-168.25 1066.88,-174.25 1060.88,-174.25"/>
<text xml:space="preserve" text-anchor="middle" x="1018" y="-159.8" font-family="Arial" font-size="11.00" fill="white">Trajectory Memory</text>
<text xml:space="preserve" text-anchor="middle" x="1018" y="-146.3" font-family="Arial" font-size="11.00" fill="white">(Drift Correction via</text>
<text xml:space="preserve" text-anchor="middle" x="1018" y="-132.8" font-family="Arial" font-size="11.00" fill="white">Special Stream)</text>
</g>
<!-- p2_output&#45;&gt;p2_trajectory -->
<g id="edge15" class="edge">
<title>p2_output&#45;&gt;p2_trajectory</title>
<path fill="none" stroke="#64748b" stroke-dasharray="5,2" d="M837.37,-150C837.37,-150 950.95,-150 950.95,-150"/>
<polygon fill="#64748b" stroke="#64748b" points="950.95,-153.5 960.95,-150 950.95,-146.5 950.95,-153.5"/>
<text xml:space="preserve" text-anchor="middle" x="898.25" y="-151.95" font-family="Arial" font-size="9.00" fill="#64748b">via special stream</text>
</g>
</g>
</svg>
