<?xml version="1.0" encoding="UTF-8" standalone="no"?>
<!DOCTYPE svg PUBLIC "-//W3C//DTD SVG 1.1//EN"
 "http://www.w3.org/Graphics/SVG/1.1/DTD/svg11.dtd">
<!-- Generated by graphviz version 14.1.2 (0)
 -->
<!-- Title: aether_architecture Pages: 1 -->
<svg width="2716pt" height="1094pt"
 viewBox="0.00 0.00 2716.00 1094.00" xmlns="http://www.w3.org/2000/svg" xmlns:xlink="http://www.w3.org/1999/xlink">
<g id="graph0" class="graph" transform="scale(2.08333 2.08333) rotate(0) translate(21.6 503.6)">
<title>aether_architecture</title>
<polygon fill="white" stroke="none" points="-21.6,21.6 -21.6,-503.6 1282.14,-503.6 1282.14,21.6 -21.6,21.6"/>
<!-- user -->
<g id="node1" class="node">
<title>user</title>
<path fill="#e3f2fd" stroke="#1565c0" stroke-width="1.5" d="M441.17,-482C441.17,-482 411.17,-482 411.17,-482 405.17,-482 399.17,-476 399.17,-470 399.17,-470 399.17,-458 399.17,-458 399.17,-452 405.17,-446 411.17,-446 411.17,-446 441.17,-446 441.17,-446 447.17,-446 453.17,-452 453.17,-458 453.17,-458 453.17,-470 453.17,-470 453.17,-476 447.17,-482 441.17,-482"/>
<text xml:space="preserve" text-anchor="middle" x="426.17" y="-460.5" font-family="Arial" font-size="10.00">User</text>
</g>
<!-- chat_ui -->
<g id="node2" class="node">
<title>chat_ui</title>
<path fill="#e3f2fd" stroke="#1565c0" stroke-width="1.5" d="M446.17,-396C446.17,-396 406.17,-396 406.17,-396 400.17,-396 394.17,-390 394.17,-384 394.17,-384 394.17,-372 394.17,-372 394.17,-366 400.17,-360 406.17,-360 406.17,-360 446.17,-360 446.17,-360 452.17,-360 458.17,-366 458.17,-372 458.17,-372 458.17,-384 458.17,-384 458.17,-390 452.17,-396 446.17,-396"/>
<text xml:space="preserve" text-anchor="middle" x="426.17" y="-380.5" font-family="Arial" font-size="10.00">Chat UI</text>
<text xml:space="preserve" text-anchor="middle" x="426.17" y="-368.5" font-family="Arial" font-size="10.00">(Compose)</text>
</g>
<!-- user&#45;&gt;chat_ui -->
<g id="edge1" class="edge">
<title>user&#45;&gt;chat_ui</title>
<path fill="none" stroke="black" d="M426.17,-445.34C426.17,-445.34 426.17,-408.14 426.17,-408.14"/>
<polygon fill="black" stroke="black" points="429.67,-408.14 426.17,-398.14 422.67,-408.14 429.67,-408.14"/>
<text xml:space="preserve" text-anchor="middle" x="403.29" y="-429.94" font-family="Times New Roman,serif" font-size="14.00">interacts</text>
</g>
<!-- viewmodel -->
<g id="node3" class="node">
<title>viewmodel</title>
<path fill="#e3f2fd" stroke="#1565c0" stroke-width="1.5" d="M574.42,-396C574.42,-396 505.92,-396 505.92,-396 499.92,-396 493.92,-390 493.92,-384 493.92,-384 493.92,-372 493.92,-372 493.92,-366 499.92,-360 505.92,-360 505.92,-360 574.42,-360 574.42,-360 580.42,-360 586.42,-366 586.42,-372 586.42,-372 586.42,-384 586.42,-384 586.42,-390 580.42,-396 574.42,-396"/>
<text xml:space="preserve" text-anchor="middle" x="540.17" y="-374.5" font-family="Arial" font-size="10.00">AetherViewModel</text>
</g>
<!-- chat_ui&#45;&gt;viewmodel -->
<g id="edge2" class="edge">
<title>chat_ui&#45;&gt;viewmodel</title>
<path fill="none" stroke="black" d="M458.83,-378C458.83,-378 481.96,-378 481.96,-378"/>
<polygon fill="black" stroke="black" points="481.96,-381.5 491.96,-378 481.96,-374.5 481.96,-381.5"/>
<text xml:space="preserve" text-anchor="middle" x="479.02" y="-364.7" font-family="Times New Roman,serif" font-size="14.00">events</text>
</g>
<!-- session_exec -->
<g id="node5" class="node">
<title>session_exec</title>
<path fill="#fff3e0" stroke="#e65100" stroke-width="1.5" d="M575.54,-310C575.54,-310 504.79,-310 504.79,-310 498.79,-310 492.79,-304 492.79,-298 492.79,-298 492.79,-286 492.79,-286 492.79,-280 498.79,-274 504.79,-274 504.79,-274 575.54,-274 575.54,-274 581.54,-274 587.54,-280 587.54,-286 587.54,-286 587.54,-298 587.54,-298 587.54,-304 581.54,-310 575.54,-310"/>
<text xml:space="preserve" text-anchor="middle" x="540.17" y="-294.5" font-family="Arial" font-size="10.00">SessionExecution</text>
<text xml:space="preserve" text-anchor="middle" x="540.17" y="-282.5" font-family="Arial" font-size="10.00">Manager</text>
</g>
<!-- viewmodel&#45;&gt;session_exec -->
<g id="edge3" class="edge">
<title>viewmodel&#45;&gt;session_exec</title>
<path fill="none" stroke="black" d="M540.17,-359.34C540.17,-359.34 540.17,-322.14 540.17,-322.14"/>
<polygon fill="black" stroke="black" points="543.67,-322.14 540.17,-312.14 536.67,-322.14 543.67,-322.14"/>
<text xml:space="preserve" text-anchor="middle" x="504.54" y="-343.94" font-family="Times New Roman,serif" font-size="14.00">starts session</text>
</g>
<!-- agent -->
<g id="node4" class="node">
<title>agent</title>
<path fill="#fff3e0" stroke="#e65100" stroke-width="1.5" d="M563.17,-224C563.17,-224 517.17,-224 517.17,-224 511.17,-224 505.17,-218 505.17,-212 505.17,-212 505.17,-200 505.17,-200 505.17,-194 511.17,-188 517.17,-188 517.17,-188 563.17,-188 563.17,-188 569.17,-188 575.17,-194 575.17,-200 575.17,-200 575.17,-212 575.17,-212 575.17,-218 569.17,-224 563.17,-224"/>
<text xml:space="preserve" text-anchor="middle" x="540.17" y="-208.5" font-family="Arial" font-size="10.00">AetherAgent</text>
<text xml:space="preserve" text-anchor="middle" x="540.17" y="-196.5" font-family="Arial" font-size="10.00">(Core Loop)</text>
</g>
<!-- llm_client -->
<g id="node6" class="node">
<title>llm_client</title>
<path fill="#ffebee" stroke="#c62828" stroke-width="1.5" d="M105.92,-134C105.92,-134 28.42,-134 28.42,-134 22.42,-134 16.42,-128 16.42,-122 16.42,-122 16.42,-110 16.42,-110 16.42,-104 22.42,-98 28.42,-98 28.42,-98 105.92,-98 105.92,-98 111.92,-98 117.92,-104 117.92,-110 117.92,-110 117.92,-122 117.92,-122 117.92,-128 111.92,-134 105.92,-134"/>
<text xml:space="preserve" text-anchor="middle" x="67.17" y="-118.5" font-family="Arial" font-size="10.00">OpenAI&#45;Compatible</text>
<text xml:space="preserve" text-anchor="middle" x="67.17" y="-106.5" font-family="Arial" font-size="10.00">LLM Client</text>
</g>
<!-- agent&#45;&gt;llm_client -->
<g id="edge5" class="edge">
<title>agent&#45;&gt;llm_client</title>
<path fill="none" stroke="black" d="M504.76,-212C397.6,-212 84.08,-212 84.08,-212 84.08,-212 84.08,-146.02 84.08,-146.02"/>
<polygon fill="black" stroke="black" points="87.58,-146.02 84.08,-136.02 80.58,-146.02 87.58,-146.02"/>
<text xml:space="preserve" text-anchor="middle" x="213.06" y="-198.7" font-family="Times New Roman,serif" font-size="14.00">streaming request</text>
</g>
<!-- fs_tools -->
<g id="node8" class="node">
<title>fs_tools</title>
<path fill="#e8f5e9" stroke="#2e7d32" stroke-width="1.5" d="M240.42,-138C240.42,-138 165.92,-138 165.92,-138 159.92,-138 153.92,-132 153.92,-126 153.92,-126 153.92,-106 153.92,-106 153.92,-100 159.92,-94 165.92,-94 165.92,-94 240.42,-94 240.42,-94 246.42,-94 252.42,-100 252.42,-106 252.42,-106 252.42,-126 252.42,-126 252.42,-132 246.42,-138 240.42,-138"/>
<text xml:space="preserve" text-anchor="middle" x="203.17" y="-124.5" font-family="Arial" font-size="10.00">Filesystem Tools</text>
<text xml:space="preserve" text-anchor="middle" x="203.17" y="-112.5" font-family="Arial" font-size="10.00">(read / edit / write /</text>
<text xml:space="preserve" text-anchor="middle" x="203.17" y="-100.5" font-family="Arial" font-size="10.00">grep / find / ls)</text>
</g>
<!-- agent&#45;&gt;fs_tools -->
<g id="edge9" class="edge">
<title>agent&#45;&gt;fs_tools</title>
<path fill="none" stroke="black" d="M504.42,-206C417.69,-206 203.17,-206 203.17,-206 203.17,-206 203.17,-150.22 203.17,-150.22"/>
<polygon fill="black" stroke="black" points="206.67,-150.22 203.17,-140.22 199.67,-150.22 206.67,-150.22"/>
<text xml:space="preserve" text-anchor="middle" x="305.66" y="-209.2" font-family="Times New Roman,serif" font-size="14.00">file ops</text>
</g>
<!-- bash_tool -->
<g id="node9" class="node">
<title>bash_tool</title>
<path fill="#e8f5e9" stroke="#2e7d32" stroke-width="1.5" d="M335.54,-134C335.54,-134 300.79,-134 300.79,-134 294.79,-134 288.79,-128 288.79,-122 288.79,-122 288.79,-110 288.79,-110 288.79,-104 294.79,-98 300.79,-98 300.79,-98 335.54,-98 335.54,-98 341.54,-98 347.54,-104 347.54,-110 347.54,-110 347.54,-122 347.54,-122 347.54,-128 341.54,-134 335.54,-134"/>
<text xml:space="preserve" text-anchor="middle" x="318.17" y="-118.5" font-family="Arial" font-size="10.00">Bash Tool</text>
<text xml:space="preserve" text-anchor="middle" x="318.17" y="-106.5" font-family="Arial" font-size="10.00">(Termux)</text>
</g>
<!-- agent&#45;&gt;bash_tool -->
<g id="edge10" class="edge">
<title>agent&#45;&gt;bash_tool</title>
<path fill="none" stroke="black" d="M504.5,-200C441.74,-200 318.17,-200 318.17,-200 318.17,-200 318.17,-146.16 318.17,-146.16"/>
<polygon fill="black" stroke="black" points="321.67,-146.16 318.17,-136.16 314.67,-146.16 321.67,-146.16"/>
<text xml:space="preserve" text-anchor="middle" x="355.16" y="-203.2" font-family="Times New Roman,serif" font-size="14.00">shell cmds</text>
</g>
<!-- web_tools -->
<g id="node10" class="node">
<title>web_tools</title>
<path fill="#e8f5e9" stroke="#2e7d32" stroke-width="1.5" d="M448.54,-138C448.54,-138 395.79,-138 395.79,-138 389.79,-138 383.79,-132 383.79,-126 383.79,-126 383.79,-106 383.79,-106 383.79,-100 389.79,-94 395.79,-94 395.79,-94 448.54,-94 448.54,-94 454.54,-94 460.54,-100 460.54,-106 460.54,-106 460.54,-126 460.54,-126 460.54,-132 454.54,-138 448.54,-138"/>
<text xml:space="preserve" text-anchor="middle" x="422.17" y="-124.5" font-family="Arial" font-size="10.00">Web Tools</text>
<text xml:space="preserve" text-anchor="middle" x="422.17" y="-112.5" font-family="Arial" font-size="10.00">(fetch_url /</text>
<text xml:space="preserve" text-anchor="middle" x="422.17" y="-100.5" font-family="Arial" font-size="10.00">tavily_search)</text>
</g>
<!-- agent&#45;&gt;web_tools -->
<g id="edge11" class="edge">
<title>agent&#45;&gt;web_tools</title>
<path fill="none" stroke="black" d="M504.72,-194C471.26,-194 426.17,-194 426.17,-194 426.17,-194 426.17,-150.07 426.17,-150.07"/>
<polygon fill="black" stroke="black" points="429.67,-150.07 426.17,-140.07 422.67,-150.07 429.67,-150.07"/>
<text xml:space="preserve" text-anchor="middle" x="413.11" y="-180.7" font-family="Times New Roman,serif" font-size="14.00">web search</text>
</g>
<!-- image_tool -->
<g id="node11" class="node">
<title>image_tool</title>
<path fill="#e8f5e9" stroke="#2e7d32" stroke-width="1.5" d="M571.79,-134C571.79,-134 508.54,-134 508.54,-134 502.54,-134 496.54,-128 496.54,-122 496.54,-122 496.54,-110 496.54,-110 496.54,-104 502.54,-98 508.54,-98 508.54,-98 571.79,-98 571.79,-98 577.79,-98 583.79,-104 583.79,-110 583.79,-110 583.79,-122 583.79,-122 583.79,-128 577.79,-134 571.79,-134"/>
<text xml:space="preserve" text-anchor="middle" x="540.17" y="-118.5" font-family="Arial" font-size="10.00">Image Analysis</text>
<text xml:space="preserve" text-anchor="middle" x="540.17" y="-106.5" font-family="Arial" font-size="10.00">(analyze_image)</text>
</g>
<!-- agent&#45;&gt;image_tool -->
<g id="edge12" class="edge">
<title>agent&#45;&gt;image_tool</title>
<path fill="none" stroke="black" d="M540.17,-187.35C540.17,-187.35 540.17,-146.14 540.17,-146.14"/>
<polygon fill="black" stroke="black" points="543.67,-146.14 540.17,-136.14 536.67,-146.14 543.67,-146.14"/>
<text xml:space="preserve" text-anchor="middle" x="499.67" y="-169.94" font-family="Times New Roman,serif" font-size="14.00">image analysis</text>
</g>
<!-- self_mgmt -->
<g id="node12" class="node">
<title>self_mgmt</title>
<path fill="#e8f5e9" stroke="#2e7d32" stroke-width="1.5" d="M718.04,-138C718.04,-138 632.29,-138 632.29,-138 626.29,-138 620.29,-132 620.29,-126 620.29,-126 620.29,-106 620.29,-106 620.29,-100 626.29,-94 632.29,-94 632.29,-94 718.04,-94 718.04,-94 724.04,-94 730.04,-100 730.04,-106 730.04,-106 730.04,-126 730.04,-126 730.04,-132 724.04,-138 718.04,-138"/>
<text xml:space="preserve" text-anchor="middle" x="675.17" y="-124.5" font-family="Arial" font-size="10.00">Self&#45;Management</text>
<text xml:space="preserve" text-anchor="middle" x="675.17" y="-112.5" font-family="Arial" font-size="10.00">(aether_config / skill /</text>
<text xml:space="preserve" text-anchor="middle" x="675.17" y="-100.5" font-family="Arial" font-size="10.00">mcp / termux)</text>
</g>
<!-- agent&#45;&gt;self_mgmt -->
<g id="edge13" class="edge">
<title>agent&#45;&gt;self_mgmt</title>
<path fill="none" stroke="black" d="M575.64,-194C615.63,-194 675.17,-194 675.17,-194 675.17,-194 675.17,-150.07 675.17,-150.07"/>
<polygon fill="black" stroke="black" points="678.67,-150.07 675.17,-140.07 671.67,-150.07 678.67,-150.07"/>
<text xml:space="preserve" text-anchor="middle" x="618.49" y="-197.2" font-family="Times New Roman,serif" font-size="14.00">self config</text>
</g>
<!-- skill_mgr -->
<g id="node13" class="node">
<title>skill_mgr</title>
<path fill="#f3e5f5" stroke="#6a1b9a" stroke-width="1.5" d="M852.04,-134C852.04,-134 778.29,-134 778.29,-134 772.29,-134 766.29,-128 766.29,-122 766.29,-122 766.29,-110 766.29,-110 766.29,-104 772.29,-98 778.29,-98 778.29,-98 852.04,-98 852.04,-98 858.04,-98 864.04,-104 864.04,-110 864.04,-110 864.04,-122 864.04,-122 864.04,-128 858.04,-134 852.04,-134"/>
<text xml:space="preserve" text-anchor="middle" x="815.17" y="-118.5" font-family="Arial" font-size="10.00">AgentSkillManager</text>
<text xml:space="preserve" text-anchor="middle" x="815.17" y="-106.5" font-family="Arial" font-size="10.00">(Anthropic Skills)</text>
</g>
<!-- agent&#45;&gt;skill_mgr -->
<g id="edge14" class="edge">
<title>agent&#45;&gt;skill_mgr</title>
<path fill="none" stroke="black" d="M575.84,-200C650.24,-200 815.17,-200 815.17,-200 815.17,-200 815.17,-146.16 815.17,-146.16"/>
<polygon fill="black" stroke="black" points="818.67,-146.16 815.17,-136.16 811.67,-146.16 818.67,-146.16"/>
<text xml:space="preserve" text-anchor="middle" x="686.42" y="-203.2" font-family="Times New Roman,serif" font-size="14.00">activate_skill</text>
</g>
<!-- mcp_mgr -->
<g id="node14" class="node">
<title>mcp_mgr</title>
<path fill="#f3e5f5" stroke="#6a1b9a" stroke-width="1.5" d="M986.04,-134C986.04,-134 912.29,-134 912.29,-134 906.29,-134 900.29,-128 900.29,-122 900.29,-122 900.29,-110 900.29,-110 900.29,-104 906.29,-98 912.29,-98 912.29,-98 986.04,-98 986.04,-98 992.04,-98 998.04,-104 998.04,-110 998.04,-110 998.04,-122 998.04,-122 998.04,-128 992.04,-134 986.04,-134"/>
<text xml:space="preserve" text-anchor="middle" x="949.17" y="-118.5" font-family="Arial" font-size="10.00">McpClientManager</text>
<text xml:space="preserve" text-anchor="middle" x="949.17" y="-106.5" font-family="Arial" font-size="10.00">(MCP Protocol)</text>
</g>
<!-- agent&#45;&gt;mcp_mgr -->
<g id="edge15" class="edge">
<title>agent&#45;&gt;mcp_mgr</title>
<path fill="none" stroke="black" d="M575.75,-206C675.25,-206 949.17,-206 949.17,-206 949.17,-206 949.17,-146.16 949.17,-146.16"/>
<polygon fill="black" stroke="black" points="952.67,-146.16 949.17,-136.16 945.67,-146.16 952.67,-146.16"/>
<text xml:space="preserve" text-anchor="middle" x="831.38" y="-192.7" font-family="Times New Roman,serif" font-size="14.00">mcp_call_tool</text>
</g>
<!-- agent_mode -->
<g id="node15" class="node">
<title>agent_mode</title>
<path fill="#f3e5f5" stroke="#6a1b9a" stroke-width="1.5" d="M1129.92,-134C1129.92,-134 1046.42,-134 1046.42,-134 1040.42,-134 1034.42,-128 1034.42,-122 1034.42,-122 1034.42,-110 1034.42,-110 1034.42,-104 1040.42,-98 1046.42,-98 1046.42,-98 1129.92,-98 1129.92,-98 1135.92,-98 1141.92,-104 1141.92,-110 1141.92,-110 1141.92,-122 1141.92,-122 1141.92,-128 1135.92,-134 1129.92,-134"/>
<text xml:space="preserve" text-anchor="middle" x="1088.17" y="-118.5" font-family="Arial" font-size="10.00">AgentModeController</text>
<text xml:space="preserve" text-anchor="middle" x="1088.17" y="-106.5" font-family="Arial" font-size="10.00">(GUI Agent)</text>
</g>
<!-- agent&#45;&gt;agent_mode -->
<g id="edge16" class="edge">
<title>agent&#45;&gt;agent_mode</title>
<path fill="none" stroke="black" d="M575.7,-212C697.13,-212 1088.17,-212 1088.17,-212 1088.17,-212 1088.17,-146.02 1088.17,-146.02"/>
<polygon fill="black" stroke="black" points="1091.67,-146.02 1088.17,-136.02 1084.67,-146.02 1091.67,-146.02"/>
<text xml:space="preserve" text-anchor="middle" x="827.42" y="-215.2" font-family="Times New Roman,serif" font-size="14.00">agent_display</text>
</g>
<!-- sched_mgr -->
<g id="node16" class="node">
<title>sched_mgr</title>
<path fill="#f3e5f5" stroke="#6a1b9a" stroke-width="1.5" d="M1248.54,-134C1248.54,-134 1189.79,-134 1189.79,-134 1183.79,-134 1177.79,-128 1177.79,-122 1177.79,-122 1177.79,-110 1177.79,-110 1177.79,-104 1183.79,-98 1189.79,-98 1189.79,-98 1248.54,-98 1248.54,-98 1254.54,-98 1260.54,-104 1260.54,-110 1260.54,-110 1260.54,-122 1260.54,-122 1260.54,-128 1254.54,-134 1248.54,-134"/>
<text xml:space="preserve" text-anchor="middle" x="1219.17" y="-118.5" font-family="Arial" font-size="10.00">ScheduledTask</text>
<text xml:space="preserve" text-anchor="middle" x="1219.17" y="-106.5" font-family="Arial" font-size="10.00">Manager</text>
</g>
<!-- agent&#45;&gt;sched_mgr -->
<g id="edge17" class="edge">
<title>agent&#45;&gt;sched_mgr</title>
<path fill="none" stroke="black" d="M575.72,-218C715.43,-218 1219.17,-218 1219.17,-218 1219.17,-218 1219.17,-146.22 1219.17,-146.22"/>
<polygon fill="black" stroke="black" points="1222.67,-146.22 1219.17,-136.22 1215.67,-146.22 1222.67,-146.22"/>
<text xml:space="preserve" text-anchor="middle" x="975.71" y="-221.2" font-family="Times New Roman,serif" font-size="14.00">scheduled tasks</text>
</g>
<!-- session_exec&#45;&gt;agent -->
<g id="edge4" class="edge">
<title>session_exec&#45;&gt;agent</title>
<path fill="none" stroke="black" d="M540.17,-273.34C540.17,-273.34 540.17,-236.14 540.17,-236.14"/>
<polygon fill="black" stroke="black" points="543.67,-236.14 540.17,-226.14 536.67,-236.14 543.67,-236.14"/>
<text xml:space="preserve" text-anchor="middle" x="515.79" y="-257.94" font-family="Times New Roman,serif" font-size="14.00">runs turn</text>
</g>
<!-- llm_client&#45;&gt;agent -->
<g id="edge8" class="edge">
<title>llm_client&#45;&gt;agent</title>
<path fill="none" stroke="black" d="M50.25,-146.22C50.25,-146.22 50.25,-218 50.25,-218 50.25,-218 391.8,-218 504.54,-218"/>
<polygon fill="black" stroke="black" points="53.75,-146.22 50.25,-136.22 46.75,-146.22 53.75,-146.22"/>
<text xml:space="preserve" text-anchor="middle" x="216.76" y="-221.2" font-family="Times New Roman,serif" font-size="14.00">tool calls</text>
</g>
<!-- providers -->
<g id="node7" class="node">
<title>providers</title>
<path fill="#ffebee" stroke="#c62828" stroke-width="1.5" d="M108.92,-44C108.92,-44 25.42,-44 25.42,-44 19.42,-44 13.42,-38 13.42,-32 13.42,-32 13.42,-12 13.42,-12 13.42,-6 19.42,0 25.42,0 25.42,0 108.92,0 108.92,0 114.92,0 120.92,-6 120.92,-12 120.92,-12 120.92,-32 120.92,-32 120.92,-38 114.92,-44 108.92,-44"/>
<text xml:space="preserve" text-anchor="middle" x="67.17" y="-30.5" font-family="Arial" font-size="10.00">LLM Providers</text>
<text xml:space="preserve" text-anchor="middle" x="67.17" y="-18.5" font-family="Arial" font-size="10.00">(OpenAI / Anthropic /</text>
<text xml:space="preserve" text-anchor="middle" x="67.17" y="-6.5" font-family="Arial" font-size="10.00">Google / Vertex)</text>
</g>
<!-- llm_client&#45;&gt;providers -->
<g id="edge6" class="edge">
<title>llm_client&#45;&gt;providers</title>
<path fill="none" stroke="black" d="M50.25,-97.43C50.25,-97.43 50.25,-56.03 50.25,-56.03"/>
<polygon fill="black" stroke="black" points="53.75,-56.03 50.25,-46.03 46.75,-56.03 53.75,-56.03"/>
<text xml:space="preserve" text-anchor="middle" x="25.12" y="-79.93" font-family="Times New Roman,serif" font-size="14.00">API calls</text>
</g>
<!-- providers&#45;&gt;llm_client -->
<g id="edge7" class="edge">
<title>providers&#45;&gt;llm_client</title>
<path fill="none" stroke="black" d="M84.08,-55.79C84.08,-55.79 84.08,-97.36 84.08,-97.36"/>
<polygon fill="black" stroke="black" points="87.58,-55.79 84.08,-45.79 80.58,-55.79 87.58,-55.79"/>
<text xml:space="preserve" text-anchor="middle" x="60.46" y="-63.28" font-family="Times New Roman,serif" font-size="14.00">response</text>
</g>
<!-- termux -->
<g id="node17" class="node">
<title>termux</title>
<polygon fill="#eceff1" stroke="#546e7a" stroke-width="1.5" points="287.17,-40 233.17,-40 233.17,-4 287.17,-4 287.17,-40"/>
<text xml:space="preserve" text-anchor="middle" x="260.17" y="-24.5" font-family="Arial" font-size="10.00">Termux</text>
<text xml:space="preserve" text-anchor="middle" x="260.17" y="-12.5" font-family="Arial" font-size="10.00">Shell</text>
</g>
<!-- fs_tools&#45;&gt;termux -->
<g id="edge19" class="edge">
<title>fs_tools&#45;&gt;termux</title>
<path fill="none" stroke="black" d="M242.79,-93.72C242.79,-93.72 242.79,-52.15 242.79,-52.15"/>
<polygon fill="black" stroke="black" points="246.29,-52.15 242.79,-42.15 239.29,-52.15 246.29,-52.15"/>
<text xml:space="preserve" text-anchor="middle" x="214.67" y="-76.14" font-family="Times New Roman,serif" font-size="14.00">file access</text>
</g>
<!-- bash_tool&#45;&gt;termux -->
<g id="edge18" class="edge">
<title>bash_tool&#45;&gt;termux</title>
<path fill="none" stroke="black" d="M288.08,-116C278.24,-116 269.79,-116 269.79,-116 269.79,-116 269.79,-52.08 269.79,-52.08"/>
<polygon fill="black" stroke="black" points="273.29,-52.08 269.79,-42.08 266.29,-52.08 273.29,-52.08"/>
<text xml:space="preserve" text-anchor="middle" x="293.04" y="-79.89" font-family="Times New Roman,serif" font-size="14.00">executes</text>
</g>
<!-- mcp_servers -->
<g id="node19" class="node">
<title>mcp_servers</title>
<polygon fill="#eceff1" stroke="#546e7a" stroke-width="1.5" points="990.54,-40 907.79,-40 907.79,-4 990.54,-4 990.54,-40"/>
<text xml:space="preserve" text-anchor="middle" x="949.17" y="-24.5" font-family="Arial" font-size="10.00">MCP Servers</text>
<text xml:space="preserve" text-anchor="middle" x="949.17" y="-12.5" font-family="Arial" font-size="10.00">(StdIO / HTTP)</text>
</g>
<!-- mcp_mgr&#45;&gt;mcp_servers -->
<g id="edge21" class="edge">
<title>mcp_mgr&#45;&gt;mcp_servers</title>
<path fill="none" stroke="black" d="M949.17,-97.43C949.17,-97.43 949.17,-52.05 949.17,-52.05"/>
<polygon fill="black" stroke="black" points="952.67,-52.05 949.17,-42.05 945.67,-52.05 952.67,-52.05"/>
<text xml:space="preserve" text-anchor="middle" x="918.04" y="-77.94" font-family="Times New Roman,serif" font-size="14.00">JSON&#45;RPC</text>
</g>
<!-- shizuku_root -->
<g id="node18" class="node">
<title>shizuku_root</title>
<polygon fill="#eceff1" stroke="#546e7a" stroke-width="1.5" points="1135.17,-40 1041.17,-40 1041.17,-4 1135.17,-4 1135.17,-40"/>
<text xml:space="preserve" text-anchor="middle" x="1088.17" y="-24.5" font-family="Arial" font-size="10.00">Shizuku / Root</text>
<text xml:space="preserve" text-anchor="middle" x="1088.17" y="-12.5" font-family="Arial" font-size="10.00">Privileged Access</text>
</g>
<!-- agent_mode&#45;&gt;shizuku_root -->
<g id="edge20" class="edge">
<title>agent_mode&#45;&gt;shizuku_root</title>
<path fill="none" stroke="black" d="M1088.17,-97.43C1088.17,-97.43 1088.17,-52.05 1088.17,-52.05"/>
<polygon fill="black" stroke="black" points="1091.67,-52.05 1088.17,-42.05 1084.67,-52.05 1091.67,-52.05"/>
<text xml:space="preserve" text-anchor="middle" x="1049.17" y="-77.94" font-family="Times New Roman,serif" font-size="14.00">virtual display</text>
</g>
</g>
</svg>
