<?xml version="1.0" encoding="UTF-8" standalone="no"?>
<!DOCTYPE svg PUBLIC "-//W3C//DTD SVG 1.1//EN"
 "http://www.w3.org/Graphics/SVG/1.1/DTD/svg11.dtd">
<!-- Generated by graphviz version 14.1.2 (0)
 -->
<!-- Title: video_use_pipeline Pages: 1 -->
<svg width="312pt" height="1202pt"
 viewBox="0.00 0.00 312.00 1202.00" xmlns="http://www.w3.org/2000/svg" xmlns:xlink="http://www.w3.org/1999/xlink">
<style>
<!-- White text halo for edge label readability -->
text { paint-order: stroke; stroke: #ffffff; stroke-width: 3px; stroke-linejoin: round; fill: #1a1a2e; }
</style>
<g id="graph0" class="graph" transform="scale(1 1) rotate(0) translate(4 1198.25)">
<title>video_use_pipeline</title>
<polygon fill="white" stroke="none" points="-4,4 -4,-1198.25 308,-1198.25 308,4 -4,4"/>
<text xml:space="preserve" text-anchor="middle" x="152" y="-7.2" font-family="Times New Roman,serif" font-size="14.00">video&#45;use Pipeline: From Raw Footage to Final.mp4</text>
<!-- inventory -->
<g id="node1" class="node">
<title>inventory</title>
<polygon fill="#4caf50" stroke="black" points="237,-1194.25 127.25,-1194.25 127.25,-1145.75 237,-1145.75 237,-1194.25"/>
<text xml:space="preserve" text-anchor="middle" x="182.12" y="-1179.8" font-family="Arial" font-size="11.00" fill="white">1. Inventory</text>
<text xml:space="preserve" text-anchor="middle" x="182.12" y="-1166.3" font-family="Arial" font-size="11.00" fill="white">ffprobe sources</text>
<text xml:space="preserve" text-anchor="middle" x="182.12" y="-1152.8" font-family="Arial" font-size="11.00" fill="white">transcribe_batch.py</text>
</g>
<!-- pack -->
<g id="node2" class="node">
<title>pack</title>
<path fill="#2196f3" stroke="black" d="M235.12,-1095.75C235.12,-1095.75 129.12,-1095.75 129.12,-1095.75 123.13,-1095.75 117.12,-1089.75 117.12,-1083.75 117.12,-1083.75 117.12,-1057 117.12,-1057 117.12,-1051 123.12,-1045 129.12,-1045 129.12,-1045 235.12,-1045 235.12,-1045 241.12,-1045 247.12,-1051 247.12,-1057 247.12,-1057 247.12,-1083.75 247.12,-1083.75 247.12,-1089.75 241.12,-1095.75 235.12,-1095.75"/>
<text xml:space="preserve" text-anchor="middle" x="182.12" y="-1080.35" font-family="Arial Bold" font-size="12.00" fill="white">2. Pack</text>
<text xml:space="preserve" text-anchor="middle" x="182.12" y="-1066.1" font-family="Arial Bold" font-size="12.00" fill="white">pack_transcripts.py</text>
<text xml:space="preserve" text-anchor="middle" x="182.12" y="-1051.85" font-family="Arial Bold" font-size="12.00" fill="white">&#45;&gt; takes_packed.md</text>
</g>
<!-- inventory&#45;&gt;pack -->
<g id="edge1" class="edge">
<title>inventory&#45;&gt;pack</title>
<path fill="none" stroke="#4caf50" stroke-width="2" d="M182.12,-1145.37C182.12,-1145.37 182.12,-1109.13 182.12,-1109.13"/>
<polygon fill="#4caf50" stroke="#4caf50" stroke-width="2" points="185.63,-1109.13 182.13,-1099.13 178.63,-1109.13 185.63,-1109.13"/>
</g>
<!-- prescan -->
<g id="node3" class="node">
<title>prescan</title>
<path fill="#2196f3" stroke="black" d="M242.62,-995C242.62,-995 121.62,-995 121.62,-995 115.62,-995 109.62,-989 109.62,-983 109.62,-983 109.62,-956.25 109.62,-956.25 109.62,-950.25 115.62,-944.25 121.62,-944.25 121.62,-944.25 242.62,-944.25 242.62,-944.25 248.62,-944.25 254.62,-950.25 254.62,-956.25 254.62,-956.25 254.62,-983 254.62,-983 254.62,-989 248.62,-995 242.62,-995"/>
<text xml:space="preserve" text-anchor="middle" x="182.12" y="-979.6" font-family="Arial Bold" font-size="12.00" fill="white">3. Pre&#45;Scan</text>
<text xml:space="preserve" text-anchor="middle" x="182.12" y="-965.35" font-family="Arial Bold" font-size="12.00" fill="white">Note verbal slips,</text>
<text xml:space="preserve" text-anchor="middle" x="182.12" y="-951.1" font-family="Arial Bold" font-size="12.00" fill="white">mis&#45;speaks, phrasings</text>
</g>
<!-- pack&#45;&gt;prescan -->
<g id="edge2" class="edge">
<title>pack&#45;&gt;prescan</title>
<path fill="none" stroke="#2196f3" stroke-width="2" d="M182.12,-1044.69C182.12,-1044.69 182.12,-1008.29 182.12,-1008.29"/>
<polygon fill="#2196f3" stroke="#2196f3" stroke-width="2" points="185.63,-1008.29 182.13,-998.29 178.63,-1008.29 185.63,-1008.29"/>
</g>
<!-- converse -->
<g id="node4" class="node">
<title>converse</title>
<path fill="#00bcd4" stroke="black" d="M242.25,-894.25C242.25,-894.25 122,-894.25 122,-894.25 116,-894.25 110,-888.25 110,-882.25 110,-882.25 110,-855.5 110,-855.5 110,-849.5 116,-843.5 122,-843.5 122,-843.5 242.25,-843.5 242.25,-843.5 248.25,-843.5 254.25,-849.5 254.25,-855.5 254.25,-855.5 254.25,-882.25 254.25,-882.25 254.25,-888.25 248.25,-894.25 242.25,-894.25"/>
<text xml:space="preserve" text-anchor="middle" x="182.12" y="-878.85" font-family="Arial Bold" font-size="12.00" fill="white">4. Converse</text>
<text xml:space="preserve" text-anchor="middle" x="182.12" y="-864.6" font-family="Arial Bold" font-size="12.00" fill="white">Ask questions shaped</text>
<text xml:space="preserve" text-anchor="middle" x="182.12" y="-850.35" font-family="Arial Bold" font-size="12.00" fill="white">by the material</text>
</g>
<!-- prescan&#45;&gt;converse -->
<g id="edge3" class="edge">
<title>prescan&#45;&gt;converse</title>
<path fill="none" stroke="#2196f3" stroke-width="2" d="M182.12,-943.94C182.12,-943.94 182.12,-907.54 182.12,-907.54"/>
<polygon fill="#2196f3" stroke="#2196f3" stroke-width="2" points="185.63,-907.54 182.13,-897.54 178.63,-907.54 185.63,-907.54"/>
</g>
<!-- strategy -->
<g id="node5" class="node">
<title>strategy</title>
<path fill="#00bcd4" stroke="black" d="M187.12,-793.5C187.12,-793.5 57.12,-793.5 57.12,-793.5 51.12,-793.5 45.12,-787.5 45.12,-781.5 45.12,-781.5 45.12,-740.5 45.12,-740.5 45.12,-734.5 51.12,-728.5 57.12,-728.5 57.12,-728.5 187.12,-728.5 187.12,-728.5 193.12,-728.5 199.12,-734.5 199.12,-740.5 199.12,-740.5 199.12,-781.5 199.12,-781.5 199.12,-787.5 193.12,-793.5 187.12,-793.5"/>
<text xml:space="preserve" text-anchor="middle" x="122.12" y="-778.1" font-family="Arial Bold" font-size="12.00" fill="white">5. Propose Strategy</text>
<text xml:space="preserve" text-anchor="middle" x="122.12" y="-763.85" font-family="Arial Bold" font-size="12.00" fill="white">4&#45;8 sentences:</text>
<text xml:space="preserve" text-anchor="middle" x="122.12" y="-749.6" font-family="Arial Bold" font-size="12.00" fill="white">shape, cuts, animations,</text>
<text xml:space="preserve" text-anchor="middle" x="122.12" y="-735.35" font-family="Arial Bold" font-size="12.00" fill="white">grade, subtitles</text>
</g>
<!-- converse&#45;&gt;strategy -->
<g id="edge4" class="edge">
<title>converse&#45;&gt;strategy</title>
<path fill="none" stroke="#00bcd4" stroke-width="2" d="M154.56,-843.04C154.56,-843.04 154.56,-807.02 154.56,-807.02"/>
<polygon fill="#00bcd4" stroke="#00bcd4" stroke-width="2" points="158.06,-807.02 154.56,-797.02 151.06,-807.02 158.06,-807.02"/>
</g>
<!-- confirm -->
<g id="node6" class="node">
<title>confirm</title>
<polygon fill="#f44336" stroke="black" points="182.12,-678.5 106.88,-634.5 182.12,-590.5 257.38,-634.5 182.12,-678.5"/>
<text xml:space="preserve" text-anchor="middle" x="182.12" y="-643" font-family="Arial Bold" font-size="10.00" fill="white">6. Confirm</text>
<text xml:space="preserve" text-anchor="middle" x="182.12" y="-631" font-family="Arial Bold" font-size="10.00" fill="white">Wait for user</text>
<text xml:space="preserve" text-anchor="middle" x="182.12" y="-619" font-family="Arial Bold" font-size="10.00" fill="white">approval</text>
</g>
<!-- strategy&#45;&gt;confirm -->
<g id="edge5" class="edge">
<title>strategy&#45;&gt;confirm</title>
<path fill="none" stroke="#00bcd4" stroke-width="2" d="M153,-728.09C153,-728.09 153,-674.72 153,-674.72"/>
<polygon fill="#00bcd4" stroke="#00bcd4" stroke-width="2" points="156.5,-674.72 153,-664.72 149.5,-674.72 156.5,-674.72"/>
</g>
<!-- confirm&#45;&gt;converse -->
<g id="edge7" class="edge">
<title>confirm&#45;&gt;converse</title>
<path fill="none" stroke="#ff9800" stroke-width="1.5" stroke-dasharray="5,2" d="M226.69,-652.89C226.69,-652.89 226.69,-831 226.69,-831"/>
<polygon fill="#ff9800" stroke="#ff9800" stroke-width="1.5" points="223.19,-831 226.69,-841 230.19,-831 223.19,-831"/>
<text xml:space="preserve" text-anchor="middle" x="245.06" y="-745.15" font-family="Times New Roman,serif" font-size="14.00">Revise</text>
</g>
<!-- execute -->
<g id="node7" class="node">
<title>execute</title>
<path fill="#2196f3" stroke="black" d="M243,-540.5C243,-540.5 121.25,-540.5 121.25,-540.5 115.25,-540.5 109.25,-534.5 109.25,-528.5 109.25,-528.5 109.25,-501.75 109.25,-501.75 109.25,-495.75 115.25,-489.75 121.25,-489.75 121.25,-489.75 243,-489.75 243,-489.75 249,-489.75 255,-495.75 255,-501.75 255,-501.75 255,-528.5 255,-528.5 255,-534.5 249,-540.5 243,-540.5"/>
<text xml:space="preserve" text-anchor="middle" x="182.12" y="-525.1" font-family="Arial Bold" font-size="12.00" fill="white">7. Execute</text>
<text xml:space="preserve" text-anchor="middle" x="182.12" y="-510.85" font-family="Arial Bold" font-size="12.00" fill="white">Build EDL, animations,</text>
<text xml:space="preserve" text-anchor="middle" x="182.12" y="-496.6" font-family="Arial Bold" font-size="12.00" fill="white">grade, render</text>
</g>
<!-- confirm&#45;&gt;execute -->
<g id="edge6" class="edge">
<title>confirm&#45;&gt;execute</title>
<path fill="none" stroke="#4caf50" stroke-width="2" d="M182.12,-590.05C182.12,-590.05 182.12,-553.91 182.12,-553.91"/>
<polygon fill="#4caf50" stroke="#4caf50" stroke-width="2" points="185.63,-553.91 182.13,-543.91 178.63,-553.91 185.63,-553.91"/>
<text xml:space="preserve" text-anchor="middle" x="155.12" y="-575.18" font-family="Times New Roman,serif" font-size="14.00">Approved</text>
</g>
<!-- preview -->
<g id="node8" class="node">
<title>preview</title>
<path fill="#ff9800" stroke="black" d="M224.62,-439.75C224.62,-439.75 139.62,-439.75 139.62,-439.75 133.62,-439.75 127.62,-433.75 127.62,-427.75 127.62,-427.75 127.62,-403.25 127.62,-403.25 127.62,-397.25 133.62,-391.25 139.62,-391.25 139.62,-391.25 224.62,-391.25 224.62,-391.25 230.62,-391.25 236.62,-397.25 236.62,-403.25 236.62,-403.25 236.62,-427.75 236.62,-427.75 236.62,-433.75 230.62,-439.75 224.62,-439.75"/>
<text xml:space="preserve" text-anchor="middle" x="182.12" y="-425.3" font-family="Arial" font-size="11.00" fill="white">8. Preview</text>
<text xml:space="preserve" text-anchor="middle" x="182.12" y="-411.8" font-family="Arial" font-size="11.00" fill="white">render.py &#45;&#45;preview</text>
<text xml:space="preserve" text-anchor="middle" x="182.12" y="-398.3" font-family="Arial" font-size="11.00" fill="white">720p fast QC</text>
</g>
<!-- execute&#45;&gt;preview -->
<g id="edge8" class="edge">
<title>execute&#45;&gt;preview</title>
<path fill="none" stroke="#2196f3" stroke-width="2" d="M182.12,-489.47C182.12,-489.47 182.12,-453.07 182.12,-453.07"/>
<polygon fill="#2196f3" stroke="#2196f3" stroke-width="2" points="185.63,-453.07 182.13,-443.07 178.63,-453.07 185.63,-453.07"/>
</g>
<!-- self_eval -->
<g id="node9" class="node">
<title>self_eval</title>
<path fill="#2196f3" stroke="black" d="M245.62,-341.25C245.62,-341.25 118.62,-341.25 118.62,-341.25 112.62,-341.25 106.62,-335.25 106.62,-329.25 106.62,-329.25 106.62,-302.5 106.62,-302.5 106.62,-296.5 112.62,-290.5 118.62,-290.5 118.62,-290.5 245.62,-290.5 245.62,-290.5 251.62,-290.5 257.62,-296.5 257.62,-302.5 257.62,-302.5 257.62,-329.25 257.62,-329.25 257.62,-335.25 251.62,-341.25 245.62,-341.25"/>
<text xml:space="preserve" text-anchor="middle" x="182.12" y="-325.85" font-family="Arial Bold" font-size="12.00" fill="white">9. Self&#45;Eval</text>
<text xml:space="preserve" text-anchor="middle" x="182.12" y="-311.6" font-family="Arial Bold" font-size="12.00" fill="white">timeline_view on output</text>
<text xml:space="preserve" text-anchor="middle" x="182.12" y="-297.35" font-family="Arial Bold" font-size="12.00" fill="white">at every cut boundary</text>
</g>
<!-- preview&#45;&gt;self_eval -->
<g id="edge9" class="edge">
<title>preview&#45;&gt;self_eval</title>
<path fill="none" stroke="#2196f3" stroke-width="2" d="M182.12,-390.87C182.12,-390.87 182.12,-354.63 182.12,-354.63"/>
<polygon fill="#2196f3" stroke="#2196f3" stroke-width="2" points="185.63,-354.63 182.13,-344.63 178.63,-354.63 185.63,-354.63"/>
</g>
<!-- pass_check -->
<g id="node10" class="node">
<title>pass_check</title>
<polygon fill="#f44336" stroke="black" points="141.12,-240.5 103.28,-222.5 141.12,-204.5 178.97,-222.5 141.12,-240.5"/>
<text xml:space="preserve" text-anchor="middle" x="141.12" y="-219" font-family="Arial Bold" font-size="10.00" fill="white">Pass?</text>
</g>
<!-- self_eval&#45;&gt;pass_check -->
<g id="edge10" class="edge">
<title>self_eval&#45;&gt;pass_check</title>
<path fill="none" stroke="#2196f3" stroke-width="2" d="M142.8,-290.36C142.8,-290.36 142.8,-253.04 142.8,-253.04"/>
<polygon fill="#2196f3" stroke="#2196f3" stroke-width="2" points="146.3,-253.04 142.8,-243.04 139.3,-253.04 146.3,-253.04"/>
</g>
<!-- deliver -->
<g id="node11" class="node">
<title>deliver</title>
<path fill="#4caf50" stroke="black" d="M140.25,-154.5C140.25,-154.5 56,-154.5 56,-154.5 50,-154.5 44,-148.5 44,-142.5 44,-142.5 44,-122.5 44,-122.5 44,-116.5 50,-110.5 56,-110.5 56,-110.5 140.25,-110.5 140.25,-110.5 146.25,-110.5 152.25,-116.5 152.25,-122.5 152.25,-122.5 152.25,-142.5 152.25,-142.5 152.25,-148.5 146.25,-154.5 140.25,-154.5"/>
<text xml:space="preserve" text-anchor="middle" x="98.12" y="-141" font-family="Arial" font-size="10.00" fill="white">10. Deliver</text>
<text xml:space="preserve" text-anchor="middle" x="98.12" y="-129" font-family="Arial" font-size="10.00" fill="white">final.mp4</text>
<text xml:space="preserve" text-anchor="middle" x="98.12" y="-117" font-family="Arial" font-size="10.00" fill="white">&#45;14 LUFS normalized</text>
</g>
<!-- pass_check&#45;&gt;deliver -->
<g id="edge11" class="edge">
<title>pass_check&#45;&gt;deliver</title>
<path fill="none" stroke="#4caf50" stroke-width="2" d="M127.77,-210.36C127.77,-210.36 127.77,-167.82 127.77,-167.82"/>
<polygon fill="#4caf50" stroke="#4caf50" stroke-width="2" points="131.27,-167.82 127.77,-157.82 124.27,-167.82 131.27,-167.82"/>
<text xml:space="preserve" text-anchor="middle" x="117.64" y="-175.79" font-family="Times New Roman,serif" font-size="14.00">Yes</text>
</g>
<!-- fix -->
<g id="node12" class="node">
<title>fix</title>
<path fill="#f44336" stroke="black" d="M253.25,-150.5C253.25,-150.5 193,-150.5 193,-150.5 187,-150.5 181,-144.5 181,-138.5 181,-138.5 181,-126.5 181,-126.5 181,-120.5 187,-114.5 193,-114.5 193,-114.5 253.25,-114.5 253.25,-114.5 259.25,-114.5 265.25,-120.5 265.25,-126.5 265.25,-126.5 265.25,-138.5 265.25,-138.5 265.25,-144.5 259.25,-150.5 253.25,-150.5"/>
<text xml:space="preserve" text-anchor="middle" x="223.12" y="-135" font-family="Arial" font-size="10.00" fill="white">Fix + Re&#45;render</text>
<text xml:space="preserve" text-anchor="middle" x="223.12" y="-123" font-family="Arial" font-size="10.00" fill="white">(max 3 passes)</text>
</g>
<!-- pass_check&#45;&gt;fix -->
<g id="edge12" class="edge">
<title>pass_check&#45;&gt;fix</title>
<path fill="none" stroke="#f44336" stroke-width="2" d="M168.23,-216.87C168.23,-197.17 168.23,-132.5 168.23,-132.5 168.23,-132.5 169.48,-132.5 169.48,-132.5"/>
<polygon fill="#f44336" stroke="#f44336" stroke-width="2" points="167.66,-136 177.66,-132.5 167.66,-129 167.66,-136"/>
<text xml:space="preserve" text-anchor="middle" x="159.98" y="-177.26" font-family="Times New Roman,serif" font-size="14.00">No</text>
</g>
<!-- persist -->
<g id="node13" class="node">
<title>persist</title>
<path fill="#9c27b0" stroke="black" d="M145.5,-60.5C145.5,-60.5 50.75,-60.5 50.75,-60.5 44.75,-60.5 38.75,-54.5 38.75,-48.5 38.75,-48.5 38.75,-36.5 38.75,-36.5 38.75,-30.5 44.75,-24.5 50.75,-24.5 50.75,-24.5 145.5,-24.5 145.5,-24.5 151.5,-24.5 157.5,-30.5 157.5,-36.5 157.5,-36.5 157.5,-48.5 157.5,-48.5 157.5,-54.5 151.5,-60.5 145.5,-60.5"/>
<text xml:space="preserve" text-anchor="middle" x="98.12" y="-45.55" font-family="Arial" font-size="11.00" fill="white">Persist</text>
<text xml:space="preserve" text-anchor="middle" x="98.12" y="-32.05" font-family="Arial" font-size="11.00" fill="white">Append to project.md</text>
</g>
<!-- deliver&#45;&gt;persist -->
<g id="edge14" class="edge">
<title>deliver&#45;&gt;persist</title>
<path fill="none" stroke="#9c27b0" stroke-width="2" d="M98.12,-110.25C98.12,-110.25 98.12,-73.89 98.12,-73.89"/>
<polygon fill="#9c27b0" stroke="#9c27b0" stroke-width="2" points="101.63,-73.89 98.13,-63.89 94.63,-73.89 101.63,-73.89"/>
</g>
<!-- fix&#45;&gt;self_eval -->
<g id="edge13" class="edge">
<title>fix&#45;&gt;self_eval</title>
<path fill="none" stroke="#f44336" stroke-width="1.5" stroke-dasharray="5,2" d="M219.31,-150.75C219.31,-150.75 219.31,-277.84 219.31,-277.84"/>
<polygon fill="#f44336" stroke="#f44336" stroke-width="1.5" points="215.81,-277.84 219.31,-287.84 222.81,-277.84 215.81,-277.84"/>
<text xml:space="preserve" text-anchor="middle" x="206.56" y="-217.49" font-family="Times New Roman,serif" font-size="14.00">retry</text>
</g>
</g>
</svg>
