<?xml version="1.0" encoding="UTF-8" standalone="no"?>
<!DOCTYPE svg PUBLIC "-//W3C//DTD SVG 1.1//EN"
 "http://www.w3.org/Graphics/SVG/1.1/DTD/svg11.dtd">
<!-- Generated by graphviz version 14.1.4 (20260321.0153)
 -->
<!-- Title: arch_types Pages: 1 -->
<svg width="2364pt" height="257pt"
 viewBox="0.00 0.00 2364.00 257.00" xmlns="http://www.w3.org/2000/svg" xmlns:xlink="http://www.w3.org/1999/xlink">
<style>
<!-- White text halo for edge label readability -->
text { paint-order: stroke; stroke: #ffffff; stroke-width: 3px; stroke-linejoin: round; fill: #1a1a2e; }
</style>
<g id="graph0" class="graph" transform="scale(1 1) rotate(0) translate(4 252.5)">
<title>arch_types</title>
<polygon fill="white" stroke="none" points="-4,4 -4,-252.5 2359.88,-252.5 2359.88,4 -4,4"/>
<text xml:space="preserve" text-anchor="middle" x="1177.94" y="-7.2" font-family="Times New Roman,serif" font-size="14.00">Archify &#45; Five Diagram Types</text>
<!-- title -->
<g id="node1" class="node">
<title>title</title>
<path fill="#1565c0" stroke="black" d="M1169.12,-248.5C1169.12,-248.5 1080.38,-248.5 1080.38,-248.5 1074.38,-248.5 1068.38,-242.5 1068.38,-236.5 1068.38,-236.5 1068.38,-224.5 1068.38,-224.5 1068.38,-218.5 1074.38,-212.5 1080.38,-212.5 1080.38,-212.5 1169.12,-212.5 1169.12,-212.5 1175.12,-212.5 1181.12,-218.5 1181.12,-224.5 1181.12,-224.5 1181.12,-236.5 1181.12,-236.5 1181.12,-242.5 1175.12,-248.5 1169.12,-248.5"/>
<text xml:space="preserve" text-anchor="middle" x="1124.75" y="-225.07" font-family="Arial Bold" font-size="14.00" fill="#ffffff">Diagram Types</text>
</g>
<!-- architecture -->
<g id="node2" class="node">
<title>architecture</title>
<path fill="#2196f3" stroke="black" d="M296.38,-154.5C296.38,-154.5 239.12,-154.5 239.12,-154.5 233.12,-154.5 227.12,-148.5 227.12,-142.5 227.12,-142.5 227.12,-130.5 227.12,-130.5 227.12,-124.5 233.12,-118.5 239.12,-118.5 239.12,-118.5 296.38,-118.5 296.38,-118.5 302.38,-118.5 308.38,-124.5 308.38,-130.5 308.38,-130.5 308.38,-142.5 308.38,-142.5 308.38,-148.5 302.38,-154.5 296.38,-154.5"/>
<text xml:space="preserve" text-anchor="middle" x="267.75" y="-132.8" font-family="Arial Bold" font-size="11.00" fill="#ffffff">Architecture</text>
</g>
<!-- title&#45;&gt;architecture -->
<g id="edge1" class="edge">
<title>title&#45;&gt;architecture</title>
<path fill="none" stroke="#4caf50" stroke-width="2" d="M1068.19,-230.5C877.15,-230.5 267.75,-230.5 267.75,-230.5 267.75,-230.5 267.75,-167.65 267.75,-167.65"/>
<polygon fill="#4caf50" stroke="#4caf50" stroke-width="2" points="271.25,-167.65 267.75,-157.65 264.25,-167.65 271.25,-167.65"/>
</g>
<!-- workflow -->
<g id="node7" class="node">
<title>workflow</title>
<path fill="#2196f3" stroke="black" d="M761.5,-154.5C761.5,-154.5 720,-154.5 720,-154.5 714,-154.5 708,-148.5 708,-142.5 708,-142.5 708,-130.5 708,-130.5 708,-124.5 714,-118.5 720,-118.5 720,-118.5 761.5,-118.5 761.5,-118.5 767.5,-118.5 773.5,-124.5 773.5,-130.5 773.5,-130.5 773.5,-142.5 773.5,-142.5 773.5,-148.5 767.5,-154.5 761.5,-154.5"/>
<text xml:space="preserve" text-anchor="middle" x="740.75" y="-132.8" font-family="Arial Bold" font-size="11.00" fill="#ffffff">Workflow</text>
</g>
<!-- title&#45;&gt;workflow -->
<g id="edge6" class="edge">
<title>title&#45;&gt;workflow</title>
<path fill="none" stroke="#00bcd4" stroke-width="2" d="M1079.62,-212.06C1079.62,-187.06 1079.62,-145.5 1079.62,-145.5 1079.62,-145.5 786.89,-145.5 786.89,-145.5"/>
<polygon fill="#00bcd4" stroke="#00bcd4" stroke-width="2" points="786.89,-142 776.89,-145.5 786.89,-149 786.89,-142"/>
</g>
<!-- sequence -->
<g id="node12" class="node">
<title>sequence</title>
<path fill="#2196f3" stroke="black" d="M1146.62,-154.5C1146.62,-154.5 1102.88,-154.5 1102.88,-154.5 1096.88,-154.5 1090.88,-148.5 1090.88,-142.5 1090.88,-142.5 1090.88,-130.5 1090.88,-130.5 1090.88,-124.5 1096.88,-118.5 1102.88,-118.5 1102.88,-118.5 1146.62,-118.5 1146.62,-118.5 1152.62,-118.5 1158.62,-124.5 1158.62,-130.5 1158.62,-130.5 1158.62,-142.5 1158.62,-142.5 1158.62,-148.5 1152.62,-154.5 1146.62,-154.5"/>
<text xml:space="preserve" text-anchor="middle" x="1124.75" y="-132.8" font-family="Arial Bold" font-size="11.00" fill="#ffffff">Sequence</text>
</g>
<!-- title&#45;&gt;sequence -->
<g id="edge11" class="edge">
<title>title&#45;&gt;sequence</title>
<path fill="none" stroke="#ff9800" stroke-width="2" d="M1124.75,-212.38C1124.75,-212.38 1124.75,-167.92 1124.75,-167.92"/>
<polygon fill="#ff9800" stroke="#ff9800" stroke-width="2" points="1128.25,-167.92 1124.75,-157.92 1121.25,-167.92 1128.25,-167.92"/>
</g>
<!-- dataflow -->
<g id="node17" class="node">
<title>dataflow</title>
<path fill="#2196f3" stroke="black" d="M1610.62,-154.5C1610.62,-154.5 1566.88,-154.5 1566.88,-154.5 1560.88,-154.5 1554.88,-148.5 1554.88,-142.5 1554.88,-142.5 1554.88,-130.5 1554.88,-130.5 1554.88,-124.5 1560.88,-118.5 1566.88,-118.5 1566.88,-118.5 1610.62,-118.5 1610.62,-118.5 1616.62,-118.5 1622.62,-124.5 1622.62,-130.5 1622.62,-130.5 1622.62,-142.5 1622.62,-142.5 1622.62,-148.5 1616.62,-154.5 1610.62,-154.5"/>
<text xml:space="preserve" text-anchor="middle" x="1588.75" y="-132.8" font-family="Arial Bold" font-size="11.00" fill="#ffffff">Data Flow</text>
</g>
<!-- title&#45;&gt;dataflow -->
<g id="edge16" class="edge">
<title>title&#45;&gt;dataflow</title>
<path fill="none" stroke="#9c27b0" stroke-width="2" d="M1169.88,-212.06C1169.88,-187.06 1169.88,-145.5 1169.88,-145.5 1169.88,-145.5 1541.44,-145.5 1541.44,-145.5"/>
<polygon fill="#9c27b0" stroke="#9c27b0" stroke-width="2" points="1541.44,-149 1551.44,-145.5 1541.44,-142 1541.44,-149"/>
</g>
<!-- lifecycle -->
<g id="node22" class="node">
<title>lifecycle</title>
<path fill="#2196f3" stroke="black" d="M2095,-154.5C2095,-154.5 2056.5,-154.5 2056.5,-154.5 2050.5,-154.5 2044.5,-148.5 2044.5,-142.5 2044.5,-142.5 2044.5,-130.5 2044.5,-130.5 2044.5,-124.5 2050.5,-118.5 2056.5,-118.5 2056.5,-118.5 2095,-118.5 2095,-118.5 2101,-118.5 2107,-124.5 2107,-130.5 2107,-130.5 2107,-142.5 2107,-142.5 2107,-148.5 2101,-154.5 2095,-154.5"/>
<text xml:space="preserve" text-anchor="middle" x="2075.75" y="-132.8" font-family="Arial Bold" font-size="11.00" fill="#ffffff">Lifecycle</text>
</g>
<!-- title&#45;&gt;lifecycle -->
<g id="edge21" class="edge">
<title>title&#45;&gt;lifecycle</title>
<path fill="none" stroke="#f44336" stroke-width="2" d="M1181.39,-230.5C1386.12,-230.5 2075.75,-230.5 2075.75,-230.5 2075.75,-230.5 2075.75,-167.65 2075.75,-167.65"/>
<polygon fill="#f44336" stroke="#f44336" stroke-width="2" points="2079.25,-167.65 2075.75,-157.65 2072.25,-167.65 2079.25,-167.65"/>
</g>
<!-- architecture_0 -->
<g id="node3" class="node">
<title>architecture_0</title>
<path fill="#bbdefb" stroke="black" d="M59.5,-60.5C59.5,-60.5 12,-60.5 12,-60.5 6,-60.5 0,-54.5 0,-48.5 0,-48.5 0,-36.5 0,-36.5 0,-30.5 6,-24.5 12,-24.5 12,-24.5 59.5,-24.5 59.5,-24.5 65.5,-24.5 71.5,-30.5 71.5,-36.5 71.5,-36.5 71.5,-48.5 71.5,-48.5 71.5,-54.5 65.5,-60.5 59.5,-60.5"/>
<text xml:space="preserve" text-anchor="middle" x="35.75" y="-39" font-family="Arial" font-size="10.00" fill="#1a1a2e">Components</text>
</g>
<!-- architecture&#45;&gt;architecture_0 -->
<g id="edge2" class="edge">
<title>architecture&#45;&gt;architecture_0</title>
<path fill="none" stroke="#4caf50" stroke-width="1.5" d="M226.81,-136.5C160.2,-136.5 35.75,-136.5 35.75,-136.5 35.75,-136.5 35.75,-72.89 35.75,-72.89"/>
<polygon fill="#4caf50" stroke="#4caf50" stroke-width="1.5" points="39.25,-72.89 35.75,-62.89 32.25,-72.89 39.25,-72.89"/>
</g>
<!-- architecture_1 -->
<g id="node4" class="node">
<title>architecture_1</title>
<path fill="#bbdefb" stroke="black" d="M187.62,-60.5C187.62,-60.5 119.88,-60.5 119.88,-60.5 113.88,-60.5 107.88,-54.5 107.88,-48.5 107.88,-48.5 107.88,-36.5 107.88,-36.5 107.88,-30.5 113.88,-24.5 119.88,-24.5 119.88,-24.5 187.62,-24.5 187.62,-24.5 193.62,-24.5 199.62,-30.5 199.62,-36.5 199.62,-36.5 199.62,-48.5 199.62,-48.5 199.62,-54.5 193.62,-60.5 187.62,-60.5"/>
<text xml:space="preserve" text-anchor="middle" x="153.75" y="-39" font-family="Arial" font-size="10.00" fill="#1a1a2e">Cloud Resources</text>
</g>
<!-- architecture&#45;&gt;architecture_1 -->
<g id="edge3" class="edge">
<title>architecture&#45;&gt;architecture_1</title>
<path fill="none" stroke="#4caf50" stroke-width="1.5" d="M231.62,-118.38C231.62,-91.06 231.62,-42.5 231.62,-42.5 231.62,-42.5 212.22,-42.5 212.22,-42.5"/>
<polygon fill="#4caf50" stroke="#4caf50" stroke-width="1.5" points="212.22,-39 202.22,-42.5 212.22,-46 212.22,-39"/>
</g>
<!-- architecture_2 -->
<g id="node5" class="node">
<title>architecture_2</title>
<path fill="#bbdefb" stroke="black" d="M287.38,-60.5C287.38,-60.5 248.12,-60.5 248.12,-60.5 242.12,-60.5 236.12,-54.5 236.12,-48.5 236.12,-48.5 236.12,-36.5 236.12,-36.5 236.12,-30.5 242.12,-24.5 248.12,-24.5 248.12,-24.5 287.38,-24.5 287.38,-24.5 293.38,-24.5 299.38,-30.5 299.38,-36.5 299.38,-36.5 299.38,-48.5 299.38,-48.5 299.38,-54.5 293.38,-60.5 287.38,-60.5"/>
<text xml:space="preserve" text-anchor="middle" x="267.75" y="-39" font-family="Arial" font-size="10.00" fill="#1a1a2e">Databases</text>
</g>
<!-- architecture&#45;&gt;architecture_2 -->
<g id="edge4" class="edge">
<title>architecture&#45;&gt;architecture_2</title>
<path fill="none" stroke="#4caf50" stroke-width="1.5" d="M267.75,-118.38C267.75,-118.38 267.75,-73.16 267.75,-73.16"/>
<polygon fill="#4caf50" stroke="#4caf50" stroke-width="1.5" points="271.25,-73.16 267.75,-63.16 264.25,-73.16 271.25,-73.16"/>
</g>
<!-- architecture_3 -->
<g id="node6" class="node">
<title>architecture_3</title>
<path fill="#bbdefb" stroke="black" d="M410,-60.5C410,-60.5 347.5,-60.5 347.5,-60.5 341.5,-60.5 335.5,-54.5 335.5,-48.5 335.5,-48.5 335.5,-36.5 335.5,-36.5 335.5,-30.5 341.5,-24.5 347.5,-24.5 347.5,-24.5 410,-24.5 410,-24.5 416,-24.5 422,-30.5 422,-36.5 422,-36.5 422,-48.5 422,-48.5 422,-54.5 416,-60.5 410,-60.5"/>
<text xml:space="preserve" text-anchor="middle" x="378.75" y="-39" font-family="Arial" font-size="10.00" fill="#1a1a2e">Security Groups</text>
</g>
<!-- architecture&#45;&gt;architecture_3 -->
<g id="edge5" class="edge">
<title>architecture&#45;&gt;architecture_3</title>
<path fill="none" stroke="#4caf50" stroke-width="1.5" d="M303.88,-118.38C303.88,-91.06 303.88,-42.5 303.88,-42.5 303.88,-42.5 322.92,-42.5 322.92,-42.5"/>
<polygon fill="#4caf50" stroke="#4caf50" stroke-width="1.5" points="322.92,-46 332.92,-42.5 322.92,-39 322.92,-46"/>
</g>
<!-- workflow_0 -->
<g id="node8" class="node">
<title>workflow_0</title>
<path fill="#bbdefb" stroke="black" d="M545.75,-60.5C545.75,-60.5 469.75,-60.5 469.75,-60.5 463.75,-60.5 457.75,-54.5 457.75,-48.5 457.75,-48.5 457.75,-36.5 457.75,-36.5 457.75,-30.5 463.75,-24.5 469.75,-24.5 469.75,-24.5 545.75,-24.5 545.75,-24.5 551.75,-24.5 557.75,-30.5 557.75,-36.5 557.75,-36.5 557.75,-48.5 557.75,-48.5 557.75,-54.5 551.75,-60.5 545.75,-60.5"/>
<text xml:space="preserve" text-anchor="middle" x="507.75" y="-39" font-family="Arial" font-size="10.00" fill="#1a1a2e">Request Lifecycles</text>
</g>
<!-- workflow&#45;&gt;workflow_0 -->
<g id="edge7" class="edge">
<title>workflow&#45;&gt;workflow_0</title>
<path fill="none" stroke="#00bcd4" stroke-width="1.5" d="M707.86,-142.5C643.63,-142.5 507.75,-142.5 507.75,-142.5 507.75,-142.5 507.75,-73.11 507.75,-73.11"/>
<polygon fill="#00bcd4" stroke="#00bcd4" stroke-width="1.5" points="511.25,-73.11 507.75,-63.11 504.25,-73.11 511.25,-73.11"/>
</g>
<!-- workflow_1 -->
<g id="node9" class="node">
<title>workflow_1</title>
<path fill="#bbdefb" stroke="black" d="M665.5,-60.5C665.5,-60.5 606,-60.5 606,-60.5 600,-60.5 594,-54.5 594,-48.5 594,-48.5 594,-36.5 594,-36.5 594,-30.5 600,-24.5 606,-24.5 606,-24.5 665.5,-24.5 665.5,-24.5 671.5,-24.5 677.5,-30.5 677.5,-36.5 677.5,-36.5 677.5,-48.5 677.5,-48.5 677.5,-54.5 671.5,-60.5 665.5,-60.5"/>
<text xml:space="preserve" text-anchor="middle" x="635.75" y="-39" font-family="Arial" font-size="10.00" fill="#1a1a2e">Approval Flows</text>
</g>
<!-- workflow&#45;&gt;workflow_1 -->
<g id="edge8" class="edge">
<title>workflow&#45;&gt;workflow_1</title>
<path fill="none" stroke="#00bcd4" stroke-width="1.5" d="M707.53,-130.5C676.77,-130.5 635.75,-130.5 635.75,-130.5 635.75,-130.5 635.75,-73 635.75,-73"/>
<polygon fill="#00bcd4" stroke="#00bcd4" stroke-width="1.5" points="639.25,-73 635.75,-63 632.25,-73 639.25,-73"/>
</g>
<!-- workflow_2 -->
<g id="node10" class="node">
<title>workflow_2</title>
<path fill="#bbdefb" stroke="black" d="M755.75,-60.5C755.75,-60.5 725.75,-60.5 725.75,-60.5 719.75,-60.5 713.75,-54.5 713.75,-48.5 713.75,-48.5 713.75,-36.5 713.75,-36.5 713.75,-30.5 719.75,-24.5 725.75,-24.5 725.75,-24.5 755.75,-24.5 755.75,-24.5 761.75,-24.5 767.75,-30.5 767.75,-36.5 767.75,-36.5 767.75,-48.5 767.75,-48.5 767.75,-54.5 761.75,-60.5 755.75,-60.5"/>
<text xml:space="preserve" text-anchor="middle" x="740.75" y="-39" font-family="Arial" font-size="10.00" fill="#1a1a2e">CI/CD</text>
</g>
<!-- workflow&#45;&gt;workflow_2 -->
<g id="edge9" class="edge">
<title>workflow&#45;&gt;workflow_2</title>
<path fill="none" stroke="#00bcd4" stroke-width="1.5" d="M740.75,-118.38C740.75,-118.38 740.75,-73.16 740.75,-73.16"/>
<polygon fill="#00bcd4" stroke="#00bcd4" stroke-width="1.5" points="744.25,-73.16 740.75,-63.16 737.25,-73.16 744.25,-73.16"/>
</g>
<!-- workflow_3 -->
<g id="node11" class="node">
<title>workflow_3</title>
<path fill="#bbdefb" stroke="black" d="M855.75,-60.5C855.75,-60.5 815.75,-60.5 815.75,-60.5 809.75,-60.5 803.75,-54.5 803.75,-48.5 803.75,-48.5 803.75,-36.5 803.75,-36.5 803.75,-30.5 809.75,-24.5 815.75,-24.5 815.75,-24.5 855.75,-24.5 855.75,-24.5 861.75,-24.5 867.75,-30.5 867.75,-36.5 867.75,-36.5 867.75,-48.5 867.75,-48.5 867.75,-54.5 861.75,-60.5 855.75,-60.5"/>
<text xml:space="preserve" text-anchor="middle" x="835.75" y="-39" font-family="Arial" font-size="10.00" fill="#1a1a2e">Swimlanes</text>
</g>
<!-- workflow&#45;&gt;workflow_3 -->
<g id="edge10" class="edge">
<title>workflow&#45;&gt;workflow_3</title>
<path fill="none" stroke="#00bcd4" stroke-width="1.5" d="M773.98,-127.5C801.37,-127.5 835.75,-127.5 835.75,-127.5 835.75,-127.5 835.75,-73.21 835.75,-73.21"/>
<polygon fill="#00bcd4" stroke="#00bcd4" stroke-width="1.5" points="839.25,-73.21 835.75,-63.21 832.25,-73.21 839.25,-73.21"/>
</g>
<!-- sequence_0 -->
<g id="node13" class="node">
<title>sequence_0</title>
<path fill="#bbdefb" stroke="black" d="M978,-60.5C978,-60.5 915.5,-60.5 915.5,-60.5 909.5,-60.5 903.5,-54.5 903.5,-48.5 903.5,-48.5 903.5,-36.5 903.5,-36.5 903.5,-30.5 909.5,-24.5 915.5,-24.5 915.5,-24.5 978,-24.5 978,-24.5 984,-24.5 990,-30.5 990,-36.5 990,-36.5 990,-48.5 990,-48.5 990,-54.5 984,-60.5 978,-60.5"/>
<text xml:space="preserve" text-anchor="middle" x="946.75" y="-39" font-family="Arial" font-size="10.00" fill="#1a1a2e">API Call Chains</text>
</g>
<!-- sequence&#45;&gt;sequence_0 -->
<g id="edge12" class="edge">
<title>sequence&#45;&gt;sequence_0</title>
<path fill="none" stroke="#ff9800" stroke-width="1.5" d="M1090.43,-136.5C1038.71,-136.5 946.75,-136.5 946.75,-136.5 946.75,-136.5 946.75,-72.89 946.75,-72.89"/>
<polygon fill="#ff9800" stroke="#ff9800" stroke-width="1.5" points="950.25,-72.89 946.75,-62.89 943.25,-72.89 950.25,-72.89"/>
</g>
<!-- sequence_1 -->
<g id="node14" class="node">
<title>sequence_1</title>
<path fill="#bbdefb" stroke="black" d="M1097.88,-60.5C1097.88,-60.5 1037.62,-60.5 1037.62,-60.5 1031.62,-60.5 1025.62,-54.5 1025.62,-48.5 1025.62,-48.5 1025.62,-36.5 1025.62,-36.5 1025.62,-30.5 1031.62,-24.5 1037.62,-24.5 1037.62,-24.5 1097.88,-24.5 1097.88,-24.5 1103.88,-24.5 1109.88,-30.5 1109.88,-36.5 1109.88,-36.5 1109.88,-48.5 1109.88,-48.5 1109.88,-54.5 1103.88,-60.5 1097.88,-60.5"/>
<text xml:space="preserve" text-anchor="middle" x="1067.75" y="-39" font-family="Arial" font-size="10.00" fill="#1a1a2e">Cache Fallback</text>
</g>
<!-- sequence&#45;&gt;sequence_1 -->
<g id="edge13" class="edge">
<title>sequence&#45;&gt;sequence_1</title>
<path fill="none" stroke="#ff9800" stroke-width="1.5" d="M1100.38,-118.38C1100.38,-118.38 1100.38,-73.16 1100.38,-73.16"/>
<polygon fill="#ff9800" stroke="#ff9800" stroke-width="1.5" points="1103.88,-73.16 1100.38,-63.16 1096.88,-73.16 1103.88,-73.16"/>
</g>
<!-- sequence_2 -->
<g id="node15" class="node">
<title>sequence_2</title>
<path fill="#bbdefb" stroke="black" d="M1207.25,-60.5C1207.25,-60.5 1158.25,-60.5 1158.25,-60.5 1152.25,-60.5 1146.25,-54.5 1146.25,-48.5 1146.25,-48.5 1146.25,-36.5 1146.25,-36.5 1146.25,-30.5 1152.25,-24.5 1158.25,-24.5 1158.25,-24.5 1207.25,-24.5 1207.25,-24.5 1213.25,-24.5 1219.25,-30.5 1219.25,-36.5 1219.25,-36.5 1219.25,-48.5 1219.25,-48.5 1219.25,-54.5 1213.25,-60.5 1207.25,-60.5"/>
<text xml:space="preserve" text-anchor="middle" x="1182.75" y="-39" font-family="Arial" font-size="10.00" fill="#1a1a2e">Auth Checks</text>
</g>
<!-- sequence&#45;&gt;sequence_2 -->
<g id="edge14" class="edge">
<title>sequence&#45;&gt;sequence_2</title>
<path fill="none" stroke="#ff9800" stroke-width="1.5" d="M1152.44,-118.38C1152.44,-118.38 1152.44,-73.16 1152.44,-73.16"/>
<polygon fill="#ff9800" stroke="#ff9800" stroke-width="1.5" points="1155.94,-73.16 1152.44,-63.16 1148.94,-73.16 1155.94,-73.16"/>
</g>
<!-- sequence_3 -->
<g id="node16" class="node">
<title>sequence_3</title>
<path fill="#bbdefb" stroke="black" d="M1356.12,-60.5C1356.12,-60.5 1267.38,-60.5 1267.38,-60.5 1261.38,-60.5 1255.38,-54.5 1255.38,-48.5 1255.38,-48.5 1255.38,-36.5 1255.38,-36.5 1255.38,-30.5 1261.38,-24.5 1267.38,-24.5 1267.38,-24.5 1356.12,-24.5 1356.12,-24.5 1362.12,-24.5 1368.12,-30.5 1368.12,-36.5 1368.12,-36.5 1368.12,-48.5 1368.12,-48.5 1368.12,-54.5 1362.12,-60.5 1356.12,-60.5"/>
<text xml:space="preserve" text-anchor="middle" x="1311.75" y="-39" font-family="Arial" font-size="10.00" fill="#1a1a2e">Interactions over Time</text>
</g>
<!-- sequence&#45;&gt;sequence_3 -->
<g id="edge15" class="edge">
<title>sequence&#45;&gt;sequence_3</title>
<path fill="none" stroke="#ff9800" stroke-width="1.5" d="M1159.05,-136.5C1213.03,-136.5 1311.75,-136.5 1311.75,-136.5 1311.75,-136.5 1311.75,-72.89 1311.75,-72.89"/>
<polygon fill="#ff9800" stroke="#ff9800" stroke-width="1.5" points="1315.25,-72.89 1311.75,-62.89 1308.25,-72.89 1315.25,-72.89"/>
</g>
<!-- dataflow_0 -->
<g id="node18" class="node">
<title>dataflow_0</title>
<path fill="#bbdefb" stroke="black" d="M1495.25,-60.5C1495.25,-60.5 1416.25,-60.5 1416.25,-60.5 1410.25,-60.5 1404.25,-54.5 1404.25,-48.5 1404.25,-48.5 1404.25,-36.5 1404.25,-36.5 1404.25,-30.5 1410.25,-24.5 1416.25,-24.5 1416.25,-24.5 1495.25,-24.5 1495.25,-24.5 1501.25,-24.5 1507.25,-30.5 1507.25,-36.5 1507.25,-36.5 1507.25,-48.5 1507.25,-48.5 1507.25,-54.5 1501.25,-60.5 1495.25,-60.5"/>
<text xml:space="preserve" text-anchor="middle" x="1455.75" y="-39" font-family="Arial" font-size="10.00" fill="#1a1a2e">ETL / ELT Pipelines</text>
</g>
<!-- dataflow&#45;&gt;dataflow_0 -->
<g id="edge17" class="edge">
<title>dataflow&#45;&gt;dataflow_0</title>
<path fill="none" stroke="#9c27b0" stroke-width="1.5" d="M1554.5,-127.5C1515.09,-127.5 1455.75,-127.5 1455.75,-127.5 1455.75,-127.5 1455.75,-73.21 1455.75,-73.21"/>
<polygon fill="#9c27b0" stroke="#9c27b0" stroke-width="1.5" points="1459.25,-73.21 1455.75,-63.21 1452.25,-73.21 1459.25,-73.21"/>
</g>
<!-- dataflow_1 -->
<g id="node19" class="node">
<title>dataflow_1</title>
<path fill="#bbdefb" stroke="black" d="M1621.88,-60.5C1621.88,-60.5 1555.62,-60.5 1555.62,-60.5 1549.62,-60.5 1543.62,-54.5 1543.62,-48.5 1543.62,-48.5 1543.62,-36.5 1543.62,-36.5 1543.62,-30.5 1549.62,-24.5 1555.62,-24.5 1555.62,-24.5 1621.88,-24.5 1621.88,-24.5 1627.88,-24.5 1633.88,-30.5 1633.88,-36.5 1633.88,-36.5 1633.88,-48.5 1633.88,-48.5 1633.88,-54.5 1627.88,-60.5 1621.88,-60.5"/>
<text xml:space="preserve" text-anchor="middle" x="1588.75" y="-39" font-family="Arial" font-size="10.00" fill="#1a1a2e">Analytics Events</text>
</g>
<!-- dataflow&#45;&gt;dataflow_1 -->
<g id="edge18" class="edge">
<title>dataflow&#45;&gt;dataflow_1</title>
<path fill="none" stroke="#9c27b0" stroke-width="1.5" d="M1588.75,-118.38C1588.75,-118.38 1588.75,-73.16 1588.75,-73.16"/>
<polygon fill="#9c27b0" stroke="#9c27b0" stroke-width="1.5" points="1592.25,-73.16 1588.75,-63.16 1585.25,-73.16 1592.25,-73.16"/>
</g>
<!-- dataflow_2 -->
<g id="node20" class="node">
<title>dataflow_2</title>
<path fill="#bbdefb" stroke="black" d="M1726,-60.5C1726,-60.5 1681.5,-60.5 1681.5,-60.5 1675.5,-60.5 1669.5,-54.5 1669.5,-48.5 1669.5,-48.5 1669.5,-36.5 1669.5,-36.5 1669.5,-30.5 1675.5,-24.5 1681.5,-24.5 1681.5,-24.5 1726,-24.5 1726,-24.5 1732,-24.5 1738,-30.5 1738,-36.5 1738,-36.5 1738,-48.5 1738,-48.5 1738,-54.5 1732,-60.5 1726,-60.5"/>
<text xml:space="preserve" text-anchor="middle" x="1703.75" y="-39" font-family="Arial" font-size="10.00" fill="#1a1a2e">PII Isolation</text>
</g>
<!-- dataflow&#45;&gt;dataflow_2 -->
<g id="edge19" class="edge">
<title>dataflow&#45;&gt;dataflow_2</title>
<path fill="none" stroke="#9c27b0" stroke-width="1.5" d="M1622.94,-127.5C1656.84,-127.5 1703.75,-127.5 1703.75,-127.5 1703.75,-127.5 1703.75,-73.21 1703.75,-73.21"/>
<polygon fill="#9c27b0" stroke="#9c27b0" stroke-width="1.5" points="1707.25,-73.21 1703.75,-63.21 1700.25,-73.21 1707.25,-73.21"/>
</g>
<!-- dataflow_3 -->
<g id="node21" class="node">
<title>dataflow_3</title>
<path fill="#bbdefb" stroke="black" d="M1851.88,-60.5C1851.88,-60.5 1785.62,-60.5 1785.62,-60.5 1779.62,-60.5 1773.62,-54.5 1773.62,-48.5 1773.62,-48.5 1773.62,-36.5 1773.62,-36.5 1773.62,-30.5 1779.62,-24.5 1785.62,-24.5 1785.62,-24.5 1851.88,-24.5 1851.88,-24.5 1857.88,-24.5 1863.88,-30.5 1863.88,-36.5 1863.88,-36.5 1863.88,-48.5 1863.88,-48.5 1863.88,-54.5 1857.88,-60.5 1851.88,-60.5"/>
<text xml:space="preserve" text-anchor="middle" x="1818.75" y="-39" font-family="Arial" font-size="10.00" fill="#1a1a2e">Warehouse Sync</text>
</g>
<!-- dataflow&#45;&gt;dataflow_3 -->
<g id="edge20" class="edge">
<title>dataflow&#45;&gt;dataflow_3</title>
<path fill="none" stroke="#9c27b0" stroke-width="1.5" d="M1622.69,-145.5C1686.67,-145.5 1818.75,-145.5 1818.75,-145.5 1818.75,-145.5 1818.75,-73.18 1818.75,-73.18"/>
<polygon fill="#9c27b0" stroke="#9c27b0" stroke-width="1.5" points="1822.25,-73.18 1818.75,-63.18 1815.25,-73.18 1822.25,-73.18"/>
</g>
<!-- lifecycle_0 -->
<g id="node23" class="node">
<title>lifecycle_0</title>
<path fill="#bbdefb" stroke="black" d="M1971.88,-60.5C1971.88,-60.5 1911.62,-60.5 1911.62,-60.5 1905.62,-60.5 1899.62,-54.5 1899.62,-48.5 1899.62,-48.5 1899.62,-36.5 1899.62,-36.5 1899.62,-30.5 1905.62,-24.5 1911.62,-24.5 1911.62,-24.5 1971.88,-24.5 1971.88,-24.5 1977.88,-24.5 1983.88,-30.5 1983.88,-36.5 1983.88,-36.5 1983.88,-48.5 1983.88,-48.5 1983.88,-54.5 1977.88,-60.5 1971.88,-60.5"/>
<text xml:space="preserve" text-anchor="middle" x="1941.75" y="-39" font-family="Arial" font-size="10.00" fill="#1a1a2e">State Machines</text>
</g>
<!-- lifecycle&#45;&gt;lifecycle_0 -->
<g id="edge22" class="edge">
<title>lifecycle&#45;&gt;lifecycle_0</title>
<path fill="none" stroke="#f44336" stroke-width="1.5" d="M2044.33,-136.5C2004.73,-136.5 1941.75,-136.5 1941.75,-136.5 1941.75,-136.5 1941.75,-72.89 1941.75,-72.89"/>
<polygon fill="#f44336" stroke="#f44336" stroke-width="1.5" points="1945.25,-72.89 1941.75,-62.89 1938.25,-72.89 1945.25,-72.89"/>
</g>
<!-- lifecycle_1 -->
<g id="node24" class="node">
<title>lifecycle_1</title>
<path fill="#bbdefb" stroke="black" d="M2119.38,-60.5C2119.38,-60.5 2032.12,-60.5 2032.12,-60.5 2026.12,-60.5 2020.12,-54.5 2020.12,-48.5 2020.12,-48.5 2020.12,-36.5 2020.12,-36.5 2020.12,-30.5 2026.12,-24.5 2032.12,-24.5 2032.12,-24.5 2119.38,-24.5 2119.38,-24.5 2125.38,-24.5 2131.38,-30.5 2131.38,-36.5 2131.38,-36.5 2131.38,-48.5 2131.38,-48.5 2131.38,-54.5 2125.38,-60.5 2119.38,-60.5"/>
<text xml:space="preserve" text-anchor="middle" x="2075.75" y="-39" font-family="Arial" font-size="10.00" fill="#1a1a2e">Order/Task Lifecycles</text>
</g>
<!-- lifecycle&#45;&gt;lifecycle_1 -->
<g id="edge23" class="edge">
<title>lifecycle&#45;&gt;lifecycle_1</title>
<path fill="none" stroke="#f44336" stroke-width="1.5" d="M2075.75,-118.38C2075.75,-118.38 2075.75,-73.16 2075.75,-73.16"/>
<polygon fill="#f44336" stroke="#f44336" stroke-width="1.5" points="2079.25,-73.16 2075.75,-63.16 2072.25,-73.16 2079.25,-73.16"/>
</g>
<!-- lifecycle_2 -->
<g id="node25" class="node">
<title>lifecycle_2</title>
<path fill="#bbdefb" stroke="black" d="M2224,-60.5C2224,-60.5 2179.5,-60.5 2179.5,-60.5 2173.5,-60.5 2167.5,-54.5 2167.5,-48.5 2167.5,-48.5 2167.5,-36.5 2167.5,-36.5 2167.5,-30.5 2173.5,-24.5 2179.5,-24.5 2179.5,-24.5 2224,-24.5 2224,-24.5 2230,-24.5 2236,-30.5 2236,-36.5 2236,-36.5 2236,-48.5 2236,-48.5 2236,-54.5 2230,-60.5 2224,-60.5"/>
<text xml:space="preserve" text-anchor="middle" x="2201.75" y="-39" font-family="Arial" font-size="10.00" fill="#1a1a2e">Retry Paths</text>
</g>
<!-- lifecycle&#45;&gt;lifecycle_2 -->
<g id="edge24" class="edge">
<title>lifecycle&#45;&gt;lifecycle_2</title>
<path fill="none" stroke="#f44336" stroke-width="1.5" d="M2107.22,-130.5C2144.54,-130.5 2201.75,-130.5 2201.75,-130.5 2201.75,-130.5 2201.75,-73 2201.75,-73"/>
<polygon fill="#f44336" stroke="#f44336" stroke-width="1.5" points="2205.25,-73 2201.75,-63 2198.25,-73 2205.25,-73"/>
</g>
<!-- lifecycle_3 -->
<g id="node26" class="node">
<title>lifecycle_3</title>
<path fill="#bbdefb" stroke="black" d="M2343.88,-60.5C2343.88,-60.5 2283.62,-60.5 2283.62,-60.5 2277.62,-60.5 2271.62,-54.5 2271.62,-48.5 2271.62,-48.5 2271.62,-36.5 2271.62,-36.5 2271.62,-30.5 2277.62,-24.5 2283.62,-24.5 2283.62,-24.5 2343.88,-24.5 2343.88,-24.5 2349.88,-24.5 2355.88,-30.5 2355.88,-36.5 2355.88,-36.5 2355.88,-48.5 2355.88,-48.5 2355.88,-54.5 2349.88,-60.5 2343.88,-60.5"/>
<text xml:space="preserve" text-anchor="middle" x="2313.75" y="-39" font-family="Arial" font-size="10.00" fill="#1a1a2e">Terminal States</text>
</g>
<!-- lifecycle&#45;&gt;lifecycle_3 -->
<g id="edge25" class="edge">
<title>lifecycle&#45;&gt;lifecycle_3</title>
<path fill="none" stroke="#f44336" stroke-width="1.5" d="M2107.35,-142.5C2172.1,-142.5 2313.75,-142.5 2313.75,-142.5 2313.75,-142.5 2313.75,-73.11 2313.75,-73.11"/>
<polygon fill="#f44336" stroke="#f44336" stroke-width="1.5" points="2317.25,-73.11 2313.75,-63.11 2310.25,-73.11 2317.25,-73.11"/>
</g>
</g>
</svg>
