<?xml version="1.0" encoding="UTF-8" standalone="no"?>
<!DOCTYPE svg PUBLIC "-//W3C//DTD SVG 1.1//EN"
 "http://www.w3.org/Graphics/SVG/1.1/DTD/svg11.dtd">
<!-- Generated by graphviz version 14.1.2 (0)
 -->
<!-- Title: ml_intern_tools Pages: 1 -->
<svg width="926pt" height="163pt"
 viewBox="0.00 0.00 926.00 163.00" xmlns="http://www.w3.org/2000/svg" xmlns:xlink="http://www.w3.org/1999/xlink">
<style>
<!-- White text halo for edge label readability -->
text { paint-order: stroke; stroke: #ffffff; stroke-width: 3px; stroke-linejoin: round; fill: #1a1a2e; }
</style>
<g id="graph0" class="graph" transform="scale(1 1) rotate(0) translate(4 158.5)">
<title>ml_intern_tools</title>
<polygon fill="white" stroke="none" points="-4,4 -4,-158.5 922.12,-158.5 922.12,4 -4,4"/>
<text xml:space="preserve" text-anchor="middle" x="459.06" y="-7.2" font-family="Times New Roman,serif" font-size="14.00">ML Intern &#45; Hugging Face Ecosystem Integration</text>
<!-- tool_router2 -->
<g id="node1" class="node">
<title>tool_router2</title>
<path fill="#2196f3" stroke="black" d="M482.38,-154.5C482.38,-154.5 426.62,-154.5 426.62,-154.5 420.62,-154.5 414.62,-148.5 414.62,-142.5 414.62,-142.5 414.62,-130.5 414.62,-130.5 414.62,-124.5 420.62,-118.5 426.62,-118.5 426.62,-118.5 482.38,-118.5 482.38,-118.5 488.38,-118.5 494.38,-124.5 494.38,-130.5 494.38,-130.5 494.38,-142.5 494.38,-142.5 494.38,-148.5 488.38,-154.5 482.38,-154.5"/>
<text xml:space="preserve" text-anchor="middle" x="454.5" y="-132.22" font-family="Arial Bold" font-size="12.00" fill="white">ToolRouter</text>
</g>
<!-- hf_docs -->
<g id="node2" class="node">
<title>hf_docs</title>
<polygon fill="#4caf50" stroke="black" points="73,-60.5 0,-60.5 0,-24.5 73,-24.5 73,-60.5"/>
<text xml:space="preserve" text-anchor="middle" x="36.5" y="-45.55" font-family="Arial" font-size="11.00" fill="white">HF Docs</text>
<text xml:space="preserve" text-anchor="middle" x="36.5" y="-32.05" font-family="Arial" font-size="11.00" fill="white">&amp; Research</text>
</g>
<!-- tool_router2&#45;&gt;hf_docs -->
<g id="edge1" class="edge">
<title>tool_router2&#45;&gt;hf_docs</title>
<path fill="none" stroke="#2196f3" stroke-width="1.5" d="M414.42,-145.5C309.8,-145.5 36.5,-145.5 36.5,-145.5 36.5,-145.5 36.5,-73.18 36.5,-73.18"/>
<polygon fill="#2196f3" stroke="#2196f3" stroke-width="1.5" points="40,-73.18 36.5,-63.18 33,-73.18 40,-73.18"/>
</g>
<!-- hf_repos -->
<g id="node3" class="node">
<title>hf_repos</title>
<polygon fill="#4caf50" stroke="black" points="201.12,-60.5 101.88,-60.5 101.88,-24.5 201.12,-24.5 201.12,-60.5"/>
<text xml:space="preserve" text-anchor="middle" x="151.5" y="-45.55" font-family="Arial" font-size="11.00" fill="white">HF Repos</text>
<text xml:space="preserve" text-anchor="middle" x="151.5" y="-32.05" font-family="Arial" font-size="11.00" fill="white">Datasets, Models</text>
</g>
<!-- tool_router2&#45;&gt;hf_repos -->
<g id="edge2" class="edge">
<title>tool_router2&#45;&gt;hf_repos</title>
<path fill="none" stroke="#2196f3" stroke-width="1.5" d="M414.26,-136.5C331.84,-136.5 151.5,-136.5 151.5,-136.5 151.5,-136.5 151.5,-72.89 151.5,-72.89"/>
<polygon fill="#2196f3" stroke="#2196f3" stroke-width="1.5" points="155,-72.89 151.5,-62.89 148,-72.89 155,-72.89"/>
</g>
<!-- hf_papers -->
<g id="node4" class="node">
<title>hf_papers</title>
<polygon fill="#4caf50" stroke="black" points="325.25,-60.5 229.75,-60.5 229.75,-24.5 325.25,-24.5 325.25,-60.5"/>
<text xml:space="preserve" text-anchor="middle" x="277.5" y="-45.55" font-family="Arial" font-size="11.00" fill="white">HF Papers</text>
<text xml:space="preserve" text-anchor="middle" x="277.5" y="-32.05" font-family="Arial" font-size="11.00" fill="white">ArXiv integration</text>
</g>
<!-- tool_router2&#45;&gt;hf_papers -->
<g id="edge3" class="edge">
<title>tool_router2&#45;&gt;hf_papers</title>
<path fill="none" stroke="#2196f3" stroke-width="1.5" d="M414.34,-127.5C362.11,-127.5 277.5,-127.5 277.5,-127.5 277.5,-127.5 277.5,-73.21 277.5,-73.21"/>
<polygon fill="#2196f3" stroke="#2196f3" stroke-width="1.5" points="281,-73.21 277.5,-63.21 274,-73.21 281,-73.21"/>
</g>
<!-- hf_jobs -->
<g id="node5" class="node">
<title>hf_jobs</title>
<polygon fill="#4caf50" stroke="black" points="442.88,-60.5 354.12,-60.5 354.12,-24.5 442.88,-24.5 442.88,-60.5"/>
<text xml:space="preserve" text-anchor="middle" x="398.5" y="-45.55" font-family="Arial" font-size="11.00" fill="white">HF Jobs</text>
<text xml:space="preserve" text-anchor="middle" x="398.5" y="-32.05" font-family="Arial" font-size="11.00" fill="white">Cloud compute</text>
</g>
<!-- tool_router2&#45;&gt;hf_jobs -->
<g id="edge4" class="edge">
<title>tool_router2&#45;&gt;hf_jobs</title>
<path fill="none" stroke="#2196f3" stroke-width="1.5" d="M428.75,-118.38C428.75,-118.38 428.75,-73.16 428.75,-73.16"/>
<polygon fill="#2196f3" stroke="#2196f3" stroke-width="1.5" points="432.25,-73.16 428.75,-63.16 425.25,-73.16 432.25,-73.16"/>
</g>
<!-- github_search -->
<g id="node6" class="node">
<title>github_search</title>
<polygon fill="#4caf50" stroke="black" points="549.25,-60.5 471.75,-60.5 471.75,-24.5 549.25,-24.5 549.25,-60.5"/>
<text xml:space="preserve" text-anchor="middle" x="510.5" y="-45.55" font-family="Arial" font-size="11.00" fill="white">GitHub</text>
<text xml:space="preserve" text-anchor="middle" x="510.5" y="-32.05" font-family="Arial" font-size="11.00" fill="white">Code search</text>
</g>
<!-- tool_router2&#45;&gt;github_search -->
<g id="edge5" class="edge">
<title>tool_router2&#45;&gt;github_search</title>
<path fill="none" stroke="#2196f3" stroke-width="1.5" d="M483.06,-118.38C483.06,-118.38 483.06,-73.16 483.06,-73.16"/>
<polygon fill="#2196f3" stroke="#2196f3" stroke-width="1.5" points="486.56,-73.16 483.06,-63.16 479.56,-73.16 486.56,-73.16"/>
</g>
<!-- sandbox_local -->
<g id="node7" class="node">
<title>sandbox_local</title>
<path fill="#ff9800" stroke="black" d="M656.62,-60.5C656.62,-60.5 590.38,-60.5 590.38,-60.5 584.38,-60.5 578.38,-54.5 578.38,-48.5 578.38,-48.5 578.38,-36.5 578.38,-36.5 578.38,-30.5 584.38,-24.5 590.38,-24.5 590.38,-24.5 656.62,-24.5 656.62,-24.5 662.62,-24.5 668.62,-30.5 668.62,-36.5 668.62,-36.5 668.62,-48.5 668.62,-48.5 668.62,-54.5 662.62,-60.5 656.62,-60.5"/>
<text xml:space="preserve" text-anchor="middle" x="623.5" y="-45.55" font-family="Arial" font-size="11.00" fill="white">Sandbox</text>
<text xml:space="preserve" text-anchor="middle" x="623.5" y="-32.05" font-family="Arial" font-size="11.00" fill="white">Local execution</text>
</g>
<!-- tool_router2&#45;&gt;sandbox_local -->
<g id="edge6" class="edge">
<title>tool_router2&#45;&gt;sandbox_local</title>
<path fill="none" stroke="#2196f3" stroke-width="1.5" d="M494.55,-127.5C544.53,-127.5 623.5,-127.5 623.5,-127.5 623.5,-127.5 623.5,-73.21 623.5,-73.21"/>
<polygon fill="#2196f3" stroke="#2196f3" stroke-width="1.5" points="627,-73.21 623.5,-63.21 620,-73.21 627,-73.21"/>
</g>
<!-- planning -->
<g id="node8" class="node">
<title>planning</title>
<path fill="#ff9800" stroke="black" d="M795.38,-60.5C795.38,-60.5 709.62,-60.5 709.62,-60.5 703.62,-60.5 697.62,-54.5 697.62,-48.5 697.62,-48.5 697.62,-36.5 697.62,-36.5 697.62,-30.5 703.62,-24.5 709.62,-24.5 709.62,-24.5 795.38,-24.5 795.38,-24.5 801.38,-24.5 807.38,-30.5 807.38,-36.5 807.38,-36.5 807.38,-48.5 807.38,-48.5 807.38,-54.5 801.38,-60.5 795.38,-60.5"/>
<text xml:space="preserve" text-anchor="middle" x="752.5" y="-45.55" font-family="Arial" font-size="11.00" fill="white">Planning</text>
<text xml:space="preserve" text-anchor="middle" x="752.5" y="-32.05" font-family="Arial" font-size="11.00" fill="white">Task decomposition</text>
</g>
<!-- tool_router2&#45;&gt;planning -->
<g id="edge7" class="edge">
<title>tool_router2&#45;&gt;planning</title>
<path fill="none" stroke="#2196f3" stroke-width="1.5" d="M494.69,-136.5C576.03,-136.5 752.5,-136.5 752.5,-136.5 752.5,-136.5 752.5,-72.89 752.5,-72.89"/>
<polygon fill="#2196f3" stroke="#2196f3" stroke-width="1.5" points="756,-72.89 752.5,-62.89 749,-72.89 756,-72.89"/>
</g>
<!-- mcp -->
<g id="node9" class="node">
<title>mcp</title>
<path fill="#ff9800" stroke="black" d="M906.12,-60.5C906.12,-60.5 848.88,-60.5 848.88,-60.5 842.88,-60.5 836.88,-54.5 836.88,-48.5 836.88,-48.5 836.88,-36.5 836.88,-36.5 836.88,-30.5 842.88,-24.5 848.88,-24.5 848.88,-24.5 906.12,-24.5 906.12,-24.5 912.12,-24.5 918.12,-30.5 918.12,-36.5 918.12,-36.5 918.12,-48.5 918.12,-48.5 918.12,-54.5 912.12,-60.5 906.12,-60.5"/>
<text xml:space="preserve" text-anchor="middle" x="877.5" y="-45.55" font-family="Arial" font-size="11.00" fill="white">MCP Servers</text>
<text xml:space="preserve" text-anchor="middle" x="877.5" y="-32.05" font-family="Arial" font-size="11.00" fill="white">External tools</text>
</g>
<!-- tool_router2&#45;&gt;mcp -->
<g id="edge8" class="edge">
<title>tool_router2&#45;&gt;mcp</title>
<path fill="none" stroke="#2196f3" stroke-width="1.5" d="M494.68,-145.5C600.26,-145.5 877.5,-145.5 877.5,-145.5 877.5,-145.5 877.5,-73.18 877.5,-73.18"/>
<polygon fill="#2196f3" stroke="#2196f3" stroke-width="1.5" points="881,-73.18 877.5,-63.18 874,-73.18 881,-73.18"/>
</g>
</g>
</svg>
