<?xml version="1.0" encoding="UTF-8" standalone="no"?>
<!DOCTYPE svg PUBLIC "-//W3C//DTD SVG 1.1//EN"
 "http://www.w3.org/Graphics/SVG/1.1/DTD/svg11.dtd">
<!-- Generated by graphviz version 14.1.2 (0)
 -->
<!-- Title: structure Pages: 1 -->
<svg width="862pt" height="303pt"
 viewBox="0.00 0.00 862.00 303.00" xmlns="http://www.w3.org/2000/svg" xmlns:xlink="http://www.w3.org/1999/xlink">
<g id="graph0" class="graph" transform="scale(1 1) rotate(0) translate(4 298.5)">
<title>structure</title>
<polygon fill="white" stroke="none" points="-4,4 -4,-298.5 857.88,-298.5 857.88,4 -4,4"/>
<!-- repo -->
<g id="node1" class="node">
<title>repo</title>
<path fill="#2196f3" stroke="black" d="M482.5,-294.5C482.5,-294.5 405.75,-294.5 405.75,-294.5 399.75,-294.5 393.75,-288.5 393.75,-282.5 393.75,-282.5 393.75,-270 393.75,-270 393.75,-264 399.75,-258 405.75,-258 405.75,-258 482.5,-258 482.5,-258 488.5,-258 494.5,-264 494.5,-270 494.5,-270 494.5,-282.5 494.5,-282.5 494.5,-288.5 488.5,-294.5 482.5,-294.5"/>
<text xml:space="preserve" text-anchor="middle" x="444.12" y="-279.1" font-family="Arial Bold" font-size="12.00" fill="white">Dive Into LLMs</text>
<text xml:space="preserve" text-anchor="middle" x="444.12" y="-264.85" font-family="Arial Bold" font-size="12.00" fill="white">Repository</text>
</g>
<!-- pdf -->
<g id="node2" class="node">
<title>pdf</title>
<polygon fill="#4caf50" stroke="black" points="222.5,-208 151.75,-208 151.75,-172 222.5,-172 222.5,-208"/>
<text xml:space="preserve" text-anchor="middle" x="187.12" y="-193.05" font-family="Arial" font-size="11.00" fill="white">PDF Slides</text>
<text xml:space="preserve" text-anchor="middle" x="187.12" y="-179.55" font-family="Arial" font-size="11.00" fill="white">(Theory)</text>
</g>
<!-- repo&#45;&gt;pdf -->
<g id="edge1" class="edge">
<title>repo&#45;&gt;pdf</title>
<path fill="none" stroke="#4caf50" stroke-width="2" d="M393.35,-276C318.45,-276 187.12,-276 187.12,-276 187.12,-276 187.12,-221.27 187.12,-221.27"/>
<polygon fill="#4caf50" stroke="#4caf50" stroke-width="2" points="190.63,-221.27 187.13,-211.27 183.63,-221.27 190.63,-221.27"/>
</g>
<!-- tutorial -->
<g id="node3" class="node">
<title>tutorial</title>
<path fill="#ff9800" stroke="black" d="M485.88,-208C485.88,-208 402.38,-208 402.38,-208 396.38,-208 390.38,-202 390.38,-196 390.38,-196 390.38,-184 390.38,-184 390.38,-178 396.38,-172 402.38,-172 402.38,-172 485.88,-172 485.88,-172 491.88,-172 497.88,-178 497.88,-184 497.88,-184 497.88,-196 497.88,-196 497.88,-202 491.88,-208 485.88,-208"/>
<text xml:space="preserve" text-anchor="middle" x="444.12" y="-193.05" font-family="Arial" font-size="11.00" fill="white">README Tutorials</text>
<text xml:space="preserve" text-anchor="middle" x="444.12" y="-179.55" font-family="Arial" font-size="11.00" fill="white">(Guide)</text>
</g>
<!-- repo&#45;&gt;tutorial -->
<g id="edge2" class="edge">
<title>repo&#45;&gt;tutorial</title>
<path fill="none" stroke="#ff9800" stroke-width="2" d="M444.12,-257.54C444.12,-257.54 444.12,-221.41 444.12,-221.41"/>
<polygon fill="#ff9800" stroke="#ff9800" stroke-width="2" points="447.63,-221.41 444.13,-211.41 440.63,-221.41 447.63,-221.41"/>
</g>
<!-- notebook -->
<g id="node4" class="node">
<title>notebook</title>
<path fill="#9c27b0" stroke="black" d="M718.12,-208C718.12,-208 636.12,-208 636.12,-208 630.12,-208 624.12,-202 624.12,-196 624.12,-196 624.12,-184 624.12,-184 624.12,-178 630.12,-172 636.12,-172 636.12,-172 718.12,-172 718.12,-172 724.12,-172 730.12,-178 730.12,-184 730.12,-184 730.12,-196 730.12,-196 730.12,-202 724.12,-208 718.12,-208"/>
<text xml:space="preserve" text-anchor="middle" x="677.12" y="-193.05" font-family="Arial" font-size="11.00" fill="white">Jupyter Notebooks</text>
<text xml:space="preserve" text-anchor="middle" x="677.12" y="-179.55" font-family="Arial" font-size="11.00" fill="white">(Practice)</text>
</g>
<!-- repo&#45;&gt;notebook -->
<g id="edge3" class="edge">
<title>repo&#45;&gt;notebook</title>
<path fill="none" stroke="#9c27b0" stroke-width="2" d="M494.97,-276C563.53,-276 677.12,-276 677.12,-276 677.12,-276 677.12,-221.27 677.12,-221.27"/>
<polygon fill="#9c27b0" stroke="#9c27b0" stroke-width="2" points="680.63,-221.27 677.13,-211.27 673.63,-221.27 680.63,-221.27"/>
</g>
<!-- pdf1 -->
<g id="node5" class="node">
<title>pdf1</title>
<path fill="#00bcd4" stroke="black" d="M60.25,-122C60.25,-122 12,-122 12,-122 6,-122 0,-116 0,-110 0,-110 0,-98 0,-98 0,-92 6,-86 12,-86 12,-86 60.25,-86 60.25,-86 66.25,-86 72.25,-92 72.25,-98 72.25,-98 72.25,-110 72.25,-110 72.25,-116 66.25,-122 60.25,-122"/>
<text xml:space="preserve" text-anchor="middle" x="36.12" y="-106.5" font-family="Arial" font-size="10.00" fill="white">Concept</text>
<text xml:space="preserve" text-anchor="middle" x="36.12" y="-94.5" font-family="Arial" font-size="10.00" fill="white">Explanations</text>
</g>
<!-- pdf&#45;&gt;pdf1 -->
<g id="edge4" class="edge">
<title>pdf&#45;&gt;pdf1</title>
<path fill="none" stroke="#00bcd4" stroke-width="1.5" d="M151.34,-190C106.69,-190 36.12,-190 36.12,-190 36.12,-190 36.12,-134.51 36.12,-134.51"/>
<polygon fill="#00bcd4" stroke="#00bcd4" stroke-width="1.5" points="39.63,-134.51 36.13,-124.51 32.63,-134.51 39.63,-134.51"/>
</g>
<!-- pdf2 -->
<g id="node6" class="node">
<title>pdf2</title>
<path fill="#00bcd4" stroke="black" d="M154.12,-122C154.12,-122 120.12,-122 120.12,-122 114.12,-122 108.12,-116 108.12,-110 108.12,-110 108.12,-98 108.12,-98 108.12,-92 114.12,-86 120.12,-86 120.12,-86 154.12,-86 154.12,-86 160.12,-86 166.12,-92 166.12,-98 166.12,-98 166.12,-110 166.12,-110 166.12,-116 160.12,-122 154.12,-122"/>
<text xml:space="preserve" text-anchor="middle" x="137.12" y="-106.5" font-family="Arial" font-size="10.00" fill="white">Visual</text>
<text xml:space="preserve" text-anchor="middle" x="137.12" y="-94.5" font-family="Arial" font-size="10.00" fill="white">Diagrams</text>
</g>
<!-- pdf&#45;&gt;pdf2 -->
<g id="edge5" class="edge">
<title>pdf&#45;&gt;pdf2</title>
<path fill="none" stroke="#00bcd4" stroke-width="1.5" d="M158.94,-171.76C158.94,-171.76 158.94,-134.48 158.94,-134.48"/>
<polygon fill="#00bcd4" stroke="#00bcd4" stroke-width="1.5" points="162.44,-134.48 158.94,-124.48 155.44,-134.48 162.44,-134.48"/>
</g>
<!-- pdf3 -->
<g id="node7" class="node">
<title>pdf3</title>
<path fill="#00bcd4" stroke="black" d="M258,-122C258,-122 214.25,-122 214.25,-122 208.25,-122 202.25,-116 202.25,-110 202.25,-110 202.25,-98 202.25,-98 202.25,-92 208.25,-86 214.25,-86 214.25,-86 258,-86 258,-86 264,-86 270,-92 270,-98 270,-98 270,-110 270,-110 270,-116 264,-122 258,-122"/>
<text xml:space="preserve" text-anchor="middle" x="236.12" y="-106.5" font-family="Arial" font-size="10.00" fill="white">Theory</text>
<text xml:space="preserve" text-anchor="middle" x="236.12" y="-94.5" font-family="Arial" font-size="10.00" fill="white">Background</text>
</g>
<!-- pdf&#45;&gt;pdf3 -->
<g id="edge6" class="edge">
<title>pdf&#45;&gt;pdf3</title>
<path fill="none" stroke="#00bcd4" stroke-width="1.5" d="M212.38,-171.76C212.38,-171.76 212.38,-134.48 212.38,-134.48"/>
<polygon fill="#00bcd4" stroke="#00bcd4" stroke-width="1.5" points="215.88,-134.48 212.38,-124.48 208.88,-134.48 215.88,-134.48"/>
</g>
<!-- tut1 -->
<g id="node8" class="node">
<title>tut1</title>
<path fill="#00bcd4" stroke="black" d="M366.62,-122C366.62,-122 317.62,-122 317.62,-122 311.62,-122 305.62,-116 305.62,-110 305.62,-110 305.62,-98 305.62,-98 305.62,-92 311.62,-86 317.62,-86 317.62,-86 366.62,-86 366.62,-86 372.62,-86 378.62,-92 378.62,-98 378.62,-98 378.62,-110 378.62,-110 378.62,-116 372.62,-122 366.62,-122"/>
<text xml:space="preserve" text-anchor="middle" x="342.12" y="-106.5" font-family="Arial" font-size="10.00" fill="white">Step&#45;by&#45;Step</text>
<text xml:space="preserve" text-anchor="middle" x="342.12" y="-94.5" font-family="Arial" font-size="10.00" fill="white">Instructions</text>
</g>
<!-- tutorial&#45;&gt;tut1 -->
<g id="edge7" class="edge">
<title>tutorial&#45;&gt;tut1</title>
<path fill="none" stroke="#00bcd4" stroke-width="1.5" d="M402.38,-171.76C402.38,-146.52 402.38,-104 402.38,-104 402.38,-104 391.18,-104 391.18,-104"/>
<polygon fill="#00bcd4" stroke="#00bcd4" stroke-width="1.5" points="391.18,-100.5 381.18,-104 391.18,-107.5 391.18,-100.5"/>
</g>
<!-- tut2 -->
<g id="node9" class="node">
<title>tut2</title>
<path fill="#00bcd4" stroke="black" d="M461.88,-122C461.88,-122 426.38,-122 426.38,-122 420.38,-122 414.38,-116 414.38,-110 414.38,-110 414.38,-98 414.38,-98 414.38,-92 420.38,-86 426.38,-86 426.38,-86 461.88,-86 461.88,-86 467.88,-86 473.88,-92 473.88,-98 473.88,-98 473.88,-110 473.88,-110 473.88,-116 467.88,-122 461.88,-122"/>
<text xml:space="preserve" text-anchor="middle" x="444.12" y="-106.5" font-family="Arial" font-size="10.00" fill="white">Code</text>
<text xml:space="preserve" text-anchor="middle" x="444.12" y="-94.5" font-family="Arial" font-size="10.00" fill="white">Examples</text>
</g>
<!-- tutorial&#45;&gt;tut2 -->
<g id="edge8" class="edge">
<title>tutorial&#45;&gt;tut2</title>
<path fill="none" stroke="#00bcd4" stroke-width="1.5" d="M444.12,-171.76C444.12,-171.76 444.12,-134.48 444.12,-134.48"/>
<polygon fill="#00bcd4" stroke="#00bcd4" stroke-width="1.5" points="447.63,-134.48 444.13,-124.48 440.63,-134.48 447.63,-134.48"/>
</g>
<!-- tut3 -->
<g id="node10" class="node">
<title>tut3</title>
<path fill="#00bcd4" stroke="black" d="M552.12,-122C552.12,-122 522.12,-122 522.12,-122 516.12,-122 510.12,-116 510.12,-110 510.12,-110 510.12,-98 510.12,-98 510.12,-92 516.12,-86 522.12,-86 522.12,-86 552.12,-86 552.12,-86 558.12,-86 564.12,-92 564.12,-98 564.12,-98 564.12,-110 564.12,-110 564.12,-116 558.12,-122 552.12,-122"/>
<text xml:space="preserve" text-anchor="middle" x="537.12" y="-106.5" font-family="Arial" font-size="10.00" fill="white">Setup</text>
<text xml:space="preserve" text-anchor="middle" x="537.12" y="-94.5" font-family="Arial" font-size="10.00" fill="white">Guides</text>
</g>
<!-- tutorial&#45;&gt;tut3 -->
<g id="edge9" class="edge">
<title>tutorial&#45;&gt;tut3</title>
<path fill="none" stroke="#00bcd4" stroke-width="1.5" d="M484.62,-171.76C484.62,-146.52 484.62,-104 484.62,-104 484.62,-104 497.37,-104 497.37,-104"/>
<polygon fill="#00bcd4" stroke="#00bcd4" stroke-width="1.5" points="497.37,-107.5 507.37,-104 497.37,-100.5 497.37,-107.5"/>
</g>
<!-- nb1 -->
<g id="node11" class="node">
<title>nb1</title>
<path fill="#00bcd4" stroke="black" d="M647.88,-122C647.88,-122 612.38,-122 612.38,-122 606.38,-122 600.38,-116 600.38,-110 600.38,-110 600.38,-98 600.38,-98 600.38,-92 606.38,-86 612.38,-86 612.38,-86 647.88,-86 647.88,-86 653.88,-86 659.88,-92 659.88,-98 659.88,-98 659.88,-110 659.88,-110 659.88,-116 653.88,-122 647.88,-122"/>
<text xml:space="preserve" text-anchor="middle" x="630.12" y="-106.5" font-family="Arial" font-size="10.00" fill="white">Hands&#45;on</text>
<text xml:space="preserve" text-anchor="middle" x="630.12" y="-94.5" font-family="Arial" font-size="10.00" fill="white">Exercises</text>
</g>
<!-- notebook&#45;&gt;nb1 -->
<g id="edge10" class="edge">
<title>notebook&#45;&gt;nb1</title>
<path fill="none" stroke="#00bcd4" stroke-width="1.5" d="M642,-171.76C642,-171.76 642,-134.48 642,-134.48"/>
<polygon fill="#00bcd4" stroke="#00bcd4" stroke-width="1.5" points="645.5,-134.48 642,-124.48 638.5,-134.48 645.5,-134.48"/>
</g>
<!-- nb2 -->
<g id="node12" class="node">
<title>nb2</title>
<path fill="#00bcd4" stroke="black" d="M740.75,-122C740.75,-122 707.5,-122 707.5,-122 701.5,-122 695.5,-116 695.5,-110 695.5,-110 695.5,-98 695.5,-98 695.5,-92 701.5,-86 707.5,-86 707.5,-86 740.75,-86 740.75,-86 746.75,-86 752.75,-92 752.75,-98 752.75,-98 752.75,-110 752.75,-110 752.75,-116 746.75,-122 740.75,-122"/>
<text xml:space="preserve" text-anchor="middle" x="724.12" y="-106.5" font-family="Arial" font-size="10.00" fill="white">Runnable</text>
<text xml:space="preserve" text-anchor="middle" x="724.12" y="-94.5" font-family="Arial" font-size="10.00" fill="white">Code</text>
</g>
<!-- notebook&#45;&gt;nb2 -->
<g id="edge11" class="edge">
<title>notebook&#45;&gt;nb2</title>
<path fill="none" stroke="#00bcd4" stroke-width="1.5" d="M712.81,-171.76C712.81,-171.76 712.81,-134.48 712.81,-134.48"/>
<polygon fill="#00bcd4" stroke="#00bcd4" stroke-width="1.5" points="716.31,-134.48 712.81,-124.48 709.31,-134.48 716.31,-134.48"/>
</g>
<!-- nb3 -->
<g id="node13" class="node">
<title>nb3</title>
<path fill="#00bcd4" stroke="black" d="M841.88,-122C841.88,-122 800.38,-122 800.38,-122 794.38,-122 788.38,-116 788.38,-110 788.38,-110 788.38,-98 788.38,-98 788.38,-92 794.38,-86 800.38,-86 800.38,-86 841.88,-86 841.88,-86 847.88,-86 853.88,-92 853.88,-98 853.88,-98 853.88,-110 853.88,-110 853.88,-116 847.88,-122 841.88,-122"/>
<text xml:space="preserve" text-anchor="middle" x="821.12" y="-106.5" font-family="Arial" font-size="10.00" fill="white">Experiment</text>
<text xml:space="preserve" text-anchor="middle" x="821.12" y="-94.5" font-family="Arial" font-size="10.00" fill="white">Results</text>
</g>
<!-- notebook&#45;&gt;nb3 -->
<g id="edge12" class="edge">
<title>notebook&#45;&gt;nb3</title>
<path fill="none" stroke="#00bcd4" stroke-width="1.5" d="M730.34,-190C771.36,-190 821.12,-190 821.12,-190 821.12,-190 821.12,-134.51 821.12,-134.51"/>
<polygon fill="#00bcd4" stroke="#00bcd4" stroke-width="1.5" points="824.63,-134.51 821.13,-124.51 817.63,-134.51 824.63,-134.51"/>
</g>
<!-- output -->
<g id="node14" class="node">
<title>output</title>
<polygon fill="#f44336" stroke="black" points="578.88,-36 495.38,-36 495.38,0 578.88,0 578.88,-36"/>
<text xml:space="preserve" text-anchor="middle" x="537.12" y="-21.05" font-family="Arial" font-size="11.00" fill="white">Complete</text>
<text xml:space="preserve" text-anchor="middle" x="537.12" y="-7.55" font-family="Arial" font-size="11.00" fill="white">Learning Path</text>
</g>
<!-- pdf3&#45;&gt;output -->
<g id="edge13" class="edge">
<title>pdf3&#45;&gt;output</title>
<path fill="none" stroke="#f44336" stroke-width="1.5" d="M236.12,-85.76C236.12,-60.52 236.12,-18 236.12,-18 236.12,-18 482.68,-18 482.68,-18"/>
<polygon fill="#f44336" stroke="#f44336" stroke-width="1.5" points="482.69,-21.5 492.68,-18 482.68,-14.5 482.69,-21.5"/>
</g>
<!-- tut3&#45;&gt;output -->
<g id="edge14" class="edge">
<title>tut3&#45;&gt;output</title>
<path fill="none" stroke="#f44336" stroke-width="1.5" d="M537.12,-85.76C537.12,-85.76 537.12,-48.48 537.12,-48.48"/>
<polygon fill="#f44336" stroke="#f44336" stroke-width="1.5" points="540.63,-48.48 537.13,-38.48 533.63,-48.48 540.63,-48.48"/>
</g>
<!-- nb3&#45;&gt;output -->
<g id="edge15" class="edge">
<title>nb3&#45;&gt;output</title>
<path fill="none" stroke="#f44336" stroke-width="1.5" d="M821.12,-85.76C821.12,-60.52 821.12,-18 821.12,-18 821.12,-18 591.61,-18 591.61,-18"/>
<polygon fill="#f44336" stroke="#f44336" stroke-width="1.5" points="591.61,-14.5 581.61,-18 591.61,-21.5 591.61,-14.5"/>
</g>
</g>
</svg>
