<?xml version="1.0" encoding="UTF-8" standalone="no"?>
<!DOCTYPE svg PUBLIC "-//W3C//DTD SVG 1.1//EN"
 "http://www.w3.org/Graphics/SVG/1.1/DTD/svg11.dtd">
<!-- Generated by graphviz version 14.1.2 (0)
 -->
<!-- Title: supervision_features Pages: 1 -->
<svg width="1191pt" height="392pt"
 viewBox="0.00 0.00 1191.00 392.00" xmlns="http://www.w3.org/2000/svg" xmlns:xlink="http://www.w3.org/1999/xlink">
<g id="graph0" class="graph" transform="scale(1 1) rotate(0) translate(4 387.5)">
<title>supervision_features</title>
<text xml:space="preserve" text-anchor="middle" x="591.5" y="-7.2" font-family="Times New Roman,serif" font-size="14.00">Roboflow Supervision &#45; Key Features and Components</text>
<!-- sv -->
<g id="node1" class="node">
<title>sv</title>
<path fill="#3f51b5" stroke="black" d="M321.38,-377.5C321.38,-377.5 244.62,-377.5 244.62,-377.5 238.62,-377.5 232.62,-371.5 232.62,-365.5 232.62,-365.5 232.62,-353 232.62,-353 232.62,-347 238.62,-341 244.62,-341 244.62,-341 321.38,-341 321.38,-341 327.38,-341 333.38,-347 333.38,-353 333.38,-353 333.38,-365.5 333.38,-365.5 333.38,-371.5 327.38,-377.5 321.38,-377.5"/>
<text xml:space="preserve" text-anchor="middle" x="283" y="-362.1" font-family="Arial Bold" font-size="12.00" fill="white">supervision</text>
<text xml:space="preserve" text-anchor="middle" x="283" y="-347.85" font-family="Arial Bold" font-size="12.00" fill="white">Python Library</text>
</g>
<!-- d_core -->
<g id="node2" class="node">
<title>d_core</title>
<polygon fill="#4caf50" stroke="black" points="145.62,-270.75 58.38,-270.75 58.38,-234.75 145.62,-234.75 145.62,-270.75"/>
<text xml:space="preserve" text-anchor="middle" x="102" y="-255.8" font-family="Arial" font-size="11.00" fill="white">sv.Detections</text>
<text xml:space="preserve" text-anchor="middle" x="102" y="-242.3" font-family="Arial" font-size="11.00" fill="white">Unified Format</text>
</g>
<!-- sv&#45;&gt;d_core -->
<g id="edge1" class="edge">
<title>sv&#45;&gt;d_core</title>
<path fill="none" stroke="#4caf50" stroke-width="2" d="M232.4,-359.5C199.88,-359.5 163.69,-359.5 163.69,-359.5 163.69,-359.5 163.69,-252.5 163.69,-252.5 163.69,-252.5 158.87,-252.5 158.87,-252.5"/>
<polygon fill="#4caf50" stroke="#4caf50" stroke-width="2" points="158.87,-249 148.87,-252.5 158.87,-256 158.87,-249"/>
</g>
<!-- a_box -->
<g id="node6" class="node">
<title>a_box</title>
<path fill="#ff9800" stroke="black" d="M257.38,-270.75C257.38,-270.75 186.62,-270.75 186.62,-270.75 180.62,-270.75 174.62,-264.75 174.62,-258.75 174.62,-258.75 174.62,-246.75 174.62,-246.75 174.62,-240.75 180.62,-234.75 186.62,-234.75 186.62,-234.75 257.38,-234.75 257.38,-234.75 263.38,-234.75 269.38,-240.75 269.38,-246.75 269.38,-246.75 269.38,-258.75 269.38,-258.75 269.38,-264.75 263.38,-270.75 257.38,-270.75"/>
<text xml:space="preserve" text-anchor="middle" x="222" y="-255.8" font-family="Arial" font-size="11.00" fill="white">BoxAnnotator</text>
<text xml:space="preserve" text-anchor="middle" x="222" y="-242.3" font-family="Arial" font-size="11.00" fill="white">Bounding Boxes</text>
</g>
<!-- sv&#45;&gt;a_box -->
<g id="edge2" class="edge">
<title>sv&#45;&gt;a_box</title>
<path fill="none" stroke="#ff9800" stroke-width="2" d="M251,-340.7C251,-340.7 251,-284.12 251,-284.12"/>
<polygon fill="#ff9800" stroke="#ff9800" stroke-width="2" points="254.5,-284.12 251,-274.12 247.5,-284.12 254.5,-284.12"/>
</g>
<!-- t_byte -->
<g id="node12" class="node">
<title>t_byte</title>
<path fill="#00bcd4" stroke="black" d="M359.5,-277C359.5,-277 310.5,-277 310.5,-277 304.5,-277 298.5,-271 298.5,-265 298.5,-265 298.5,-240.5 298.5,-240.5 298.5,-234.5 304.5,-228.5 310.5,-228.5 310.5,-228.5 359.5,-228.5 359.5,-228.5 365.5,-228.5 371.5,-234.5 371.5,-240.5 371.5,-240.5 371.5,-265 371.5,-265 371.5,-271 365.5,-277 359.5,-277"/>
<text xml:space="preserve" text-anchor="middle" x="335" y="-262.55" font-family="Arial" font-size="11.00" fill="white">ByteTrack</text>
<text xml:space="preserve" text-anchor="middle" x="335" y="-249.05" font-family="Arial" font-size="11.00" fill="white">Multi&#45;Object</text>
<text xml:space="preserve" text-anchor="middle" x="335" y="-235.55" font-family="Arial" font-size="11.00" fill="white">Tracker</text>
</g>
<!-- sv&#45;&gt;t_byte -->
<g id="edge3" class="edge">
<title>sv&#45;&gt;t_byte</title>
<path fill="none" stroke="#00bcd4" stroke-width="2" d="M310.12,-340.7C310.12,-340.7 310.12,-290.5 310.12,-290.5"/>
<polygon fill="#00bcd4" stroke="#00bcd4" stroke-width="2" points="313.63,-290.5 310.13,-280.5 306.63,-290.5 313.63,-290.5"/>
</g>
<!-- ds_load -->
<g id="node15" class="node">
<title>ds_load</title>
<path fill="#9c27b0" stroke="black" d="M519.75,-270.75C519.75,-272.96 492.97,-274.75 460,-274.75 427.03,-274.75 400.25,-272.96 400.25,-270.75 400.25,-270.75 400.25,-234.75 400.25,-234.75 400.25,-232.54 427.03,-230.75 460,-230.75 492.97,-230.75 519.75,-232.54 519.75,-234.75 519.75,-234.75 519.75,-270.75 519.75,-270.75"/>
<path fill="none" stroke="black" d="M519.75,-270.75C519.75,-268.54 492.97,-266.75 460,-266.75 427.03,-266.75 400.25,-268.54 400.25,-270.75"/>
<text xml:space="preserve" text-anchor="middle" x="460" y="-255.25" font-family="Arial" font-size="10.00" fill="white">Load: COCO, YOLO,</text>
<text xml:space="preserve" text-anchor="middle" x="460" y="-243.25" font-family="Arial" font-size="10.00" fill="white">Pascal VOC, TFRecord</text>
</g>
<!-- sv&#45;&gt;ds_load -->
<g id="edge4" class="edge">
<title>sv&#45;&gt;ds_load</title>
<path fill="none" stroke="#9c27b0" stroke-width="2" d="M321.75,-340.5C321.75,-325.34 321.75,-306.5 321.75,-306.5 321.75,-306.5 426,-306.5 426,-306.5 426,-306.5 426,-287.95 426,-287.95"/>
<polygon fill="#9c27b0" stroke="#9c27b0" stroke-width="2" points="429.5,-287.95 426,-277.95 422.5,-287.95 429.5,-287.95"/>
</g>
<!-- d_filter -->
<g id="node4" class="node">
<title>d_filter</title>
<path fill="#e3f2fd" stroke="black" d="M76,-166.5C76,-166.5 12,-166.5 12,-166.5 6,-166.5 0,-160.5 0,-154.5 0,-154.5 0,-142.5 0,-142.5 0,-136.5 6,-130.5 12,-130.5 12,-130.5 76,-130.5 76,-130.5 82,-130.5 88,-136.5 88,-142.5 88,-142.5 88,-154.5 88,-154.5 88,-160.5 82,-166.5 76,-166.5"/>
<text xml:space="preserve" text-anchor="middle" x="44" y="-151" font-family="Arial" font-size="10.00" fill="#1565c0">Filter by class,</text>
<text xml:space="preserve" text-anchor="middle" x="44" y="-139" font-family="Arial" font-size="10.00" fill="#1565c0">confidence, area</text>
</g>
<!-- d_core&#45;&gt;d_filter -->
<g id="edge6" class="edge">
<title>d_core&#45;&gt;d_filter</title>
<path fill="none" stroke="#81c784" stroke-width="1.5" d="M73.19,-234.59C73.19,-234.59 73.19,-179.07 73.19,-179.07"/>
<polygon fill="#81c784" stroke="#81c784" stroke-width="1.5" points="76.69,-179.07 73.19,-169.07 69.69,-179.07 76.69,-179.07"/>
</g>
<!-- d_nms -->
<g id="node5" class="node">
<title>d_nms</title>
<path fill="#e3f2fd" stroke="black" d="M192.62,-166.5C192.62,-166.5 129.38,-166.5 129.38,-166.5 123.38,-166.5 117.38,-160.5 117.38,-154.5 117.38,-154.5 117.38,-142.5 117.38,-142.5 117.38,-136.5 123.38,-130.5 129.38,-130.5 129.38,-130.5 192.62,-130.5 192.62,-130.5 198.62,-130.5 204.62,-136.5 204.62,-142.5 204.62,-142.5 204.62,-154.5 204.62,-154.5 204.62,-160.5 198.62,-166.5 192.62,-166.5"/>
<text xml:space="preserve" text-anchor="middle" x="161" y="-151" font-family="Arial" font-size="10.00" fill="#1565c0">NMS / NMM</text>
<text xml:space="preserve" text-anchor="middle" x="161" y="-139" font-family="Arial" font-size="10.00" fill="#1565c0">Overlap Filtering</text>
</g>
<!-- d_core&#45;&gt;d_nms -->
<g id="edge7" class="edge">
<title>d_core&#45;&gt;d_nms</title>
<path fill="none" stroke="#81c784" stroke-width="1.5" d="M131.5,-234.59C131.5,-234.59 131.5,-179.07 131.5,-179.07"/>
<polygon fill="#81c784" stroke="#81c784" stroke-width="1.5" points="135,-179.07 131.5,-169.07 128,-179.07 135,-179.07"/>
</g>
<!-- d_from -->
<g id="node3" class="node">
<title>d_from</title>
<path fill="#e3f2fd" stroke="black" d="M140.75,-381.25C140.75,-381.25 63.25,-381.25 63.25,-381.25 57.25,-381.25 51.25,-375.25 51.25,-369.25 51.25,-369.25 51.25,-349.25 51.25,-349.25 51.25,-343.25 57.25,-337.25 63.25,-337.25 63.25,-337.25 140.75,-337.25 140.75,-337.25 146.75,-337.25 152.75,-343.25 152.75,-349.25 152.75,-349.25 152.75,-369.25 152.75,-369.25 152.75,-375.25 146.75,-381.25 140.75,-381.25"/>
<text xml:space="preserve" text-anchor="middle" x="102" y="-367.75" font-family="Arial" font-size="10.00" fill="#1565c0">from_ultralytics()</text>
<text xml:space="preserve" text-anchor="middle" x="102" y="-355.75" font-family="Arial" font-size="10.00" fill="#1565c0">from_inference()</text>
<text xml:space="preserve" text-anchor="middle" x="102" y="-343.75" font-family="Arial" font-size="10.00" fill="#1565c0">from_transformers()</text>
</g>
<!-- d_from&#45;&gt;d_core -->
<g id="edge5" class="edge">
<title>d_from&#45;&gt;d_core</title>
<path fill="none" stroke="#81c784" stroke-width="1.5" d="M102,-336.92C102,-336.92 102,-283.42 102,-283.42"/>
<polygon fill="#81c784" stroke="#81c784" stroke-width="1.5" points="105.5,-283.42 102,-273.42 98.5,-283.42 105.5,-283.42"/>
</g>
<!-- a_label -->
<g id="node7" class="node">
<title>a_label</title>
<path fill="#ff9800" stroke="black" d="M439.75,-377.25C439.75,-377.25 374.25,-377.25 374.25,-377.25 368.25,-377.25 362.25,-371.25 362.25,-365.25 362.25,-365.25 362.25,-353.25 362.25,-353.25 362.25,-347.25 368.25,-341.25 374.25,-341.25 374.25,-341.25 439.75,-341.25 439.75,-341.25 445.75,-341.25 451.75,-347.25 451.75,-353.25 451.75,-353.25 451.75,-365.25 451.75,-365.25 451.75,-371.25 445.75,-377.25 439.75,-377.25"/>
<text xml:space="preserve" text-anchor="middle" x="407" y="-362.3" font-family="Arial" font-size="11.00" fill="white">LabelAnnotator</text>
<text xml:space="preserve" text-anchor="middle" x="407" y="-348.8" font-family="Arial" font-size="11.00" fill="white">Text Labels</text>
</g>
<!-- a_mask -->
<g id="node8" class="node">
<title>a_mask</title>
<path fill="#ff9800" stroke="black" d="M557.38,-377.25C557.38,-377.25 492.62,-377.25 492.62,-377.25 486.62,-377.25 480.62,-371.25 480.62,-365.25 480.62,-365.25 480.62,-353.25 480.62,-353.25 480.62,-347.25 486.62,-341.25 492.62,-341.25 492.62,-341.25 557.38,-341.25 557.38,-341.25 563.38,-341.25 569.38,-347.25 569.38,-353.25 569.38,-353.25 569.38,-365.25 569.38,-365.25 569.38,-371.25 563.38,-377.25 557.38,-377.25"/>
<text xml:space="preserve" text-anchor="middle" x="525" y="-362.3" font-family="Arial" font-size="11.00" fill="white">MaskAnnotator</text>
<text xml:space="preserve" text-anchor="middle" x="525" y="-348.8" font-family="Arial" font-size="11.00" fill="white">Segmentation</text>
</g>
<!-- a_heat -->
<g id="node9" class="node">
<title>a_heat</title>
<path fill="#ff9800" stroke="black" d="M693.75,-377.25C693.75,-377.25 610.25,-377.25 610.25,-377.25 604.25,-377.25 598.25,-371.25 598.25,-365.25 598.25,-365.25 598.25,-353.25 598.25,-353.25 598.25,-347.25 604.25,-341.25 610.25,-341.25 610.25,-341.25 693.75,-341.25 693.75,-341.25 699.75,-341.25 705.75,-347.25 705.75,-353.25 705.75,-353.25 705.75,-365.25 705.75,-365.25 705.75,-371.25 699.75,-377.25 693.75,-377.25"/>
<text xml:space="preserve" text-anchor="middle" x="652" y="-362.3" font-family="Arial" font-size="11.00" fill="white">HeatMapAnnotator</text>
<text xml:space="preserve" text-anchor="middle" x="652" y="-348.8" font-family="Arial" font-size="11.00" fill="white">Heat Maps</text>
</g>
<!-- a_trace -->
<g id="node10" class="node">
<title>a_trace</title>
<path fill="#ff9800" stroke="black" d="M813.12,-377.25C813.12,-377.25 746.88,-377.25 746.88,-377.25 740.88,-377.25 734.88,-371.25 734.88,-365.25 734.88,-365.25 734.88,-353.25 734.88,-353.25 734.88,-347.25 740.88,-341.25 746.88,-341.25 746.88,-341.25 813.12,-341.25 813.12,-341.25 819.12,-341.25 825.12,-347.25 825.12,-353.25 825.12,-353.25 825.12,-365.25 825.12,-365.25 825.12,-371.25 819.12,-377.25 813.12,-377.25"/>
<text xml:space="preserve" text-anchor="middle" x="780" y="-362.3" font-family="Arial" font-size="11.00" fill="white">TraceAnnotator</text>
<text xml:space="preserve" text-anchor="middle" x="780" y="-348.8" font-family="Arial" font-size="11.00" fill="white">Object Trails</text>
</g>
<!-- a_pixel -->
<g id="node11" class="node">
<title>a_pixel</title>
<path fill="#ff9800" stroke="black" d="M943.75,-377.25C943.75,-377.25 866.25,-377.25 866.25,-377.25 860.25,-377.25 854.25,-371.25 854.25,-365.25 854.25,-365.25 854.25,-353.25 854.25,-353.25 854.25,-347.25 860.25,-341.25 866.25,-341.25 866.25,-341.25 943.75,-341.25 943.75,-341.25 949.75,-341.25 955.75,-347.25 955.75,-353.25 955.75,-353.25 955.75,-365.25 955.75,-365.25 955.75,-371.25 949.75,-377.25 943.75,-377.25"/>
<text xml:space="preserve" text-anchor="middle" x="905" y="-362.3" font-family="Arial" font-size="11.00" fill="white">PixelateAnnotator</text>
<text xml:space="preserve" text-anchor="middle" x="905" y="-348.8" font-family="Arial" font-size="11.00" fill="white">Privacy Blur</text>
</g>
<!-- t_zone -->
<g id="node13" class="node">
<title>t_zone</title>
<path fill="#00bcd4" stroke="black" d="M1059.62,-377.25C1059.62,-377.25 996.38,-377.25 996.38,-377.25 990.38,-377.25 984.38,-371.25 984.38,-365.25 984.38,-365.25 984.38,-353.25 984.38,-353.25 984.38,-347.25 990.38,-341.25 996.38,-341.25 996.38,-341.25 1059.62,-341.25 1059.62,-341.25 1065.62,-341.25 1071.62,-347.25 1071.62,-353.25 1071.62,-353.25 1071.62,-365.25 1071.62,-365.25 1071.62,-371.25 1065.62,-377.25 1059.62,-377.25"/>
<text xml:space="preserve" text-anchor="middle" x="1028" y="-362.3" font-family="Arial" font-size="11.00" fill="white">PolygonZone</text>
<text xml:space="preserve" text-anchor="middle" x="1028" y="-348.8" font-family="Arial" font-size="11.00" fill="white">Zone Counting</text>
</g>
<!-- t_line -->
<g id="node14" class="node">
<title>t_line</title>
<path fill="#00bcd4" stroke="black" d="M1171,-383.5C1171,-383.5 1113,-383.5 1113,-383.5 1107,-383.5 1101,-377.5 1101,-371.5 1101,-371.5 1101,-347 1101,-347 1101,-341 1107,-335 1113,-335 1113,-335 1171,-335 1171,-335 1177,-335 1183,-341 1183,-347 1183,-347 1183,-371.5 1183,-371.5 1183,-377.5 1177,-383.5 1171,-383.5"/>
<text xml:space="preserve" text-anchor="middle" x="1142" y="-369.05" font-family="Arial" font-size="11.00" fill="white">LineZone</text>
<text xml:space="preserve" text-anchor="middle" x="1142" y="-355.55" font-family="Arial" font-size="11.00" fill="white">Line Crossing</text>
<text xml:space="preserve" text-anchor="middle" x="1142" y="-342.05" font-family="Arial" font-size="11.00" fill="white">Counter</text>
</g>
<!-- ds_split -->
<g id="node16" class="node">
<title>ds_split</title>
<path fill="#9c27b0" stroke="black" d="M495.75,-166.5C495.75,-168.71 479.73,-170.5 460,-170.5 440.27,-170.5 424.25,-168.71 424.25,-166.5 424.25,-166.5 424.25,-130.5 424.25,-130.5 424.25,-128.29 440.27,-126.5 460,-126.5 479.73,-126.5 495.75,-128.29 495.75,-130.5 495.75,-130.5 495.75,-166.5 495.75,-166.5"/>
<path fill="none" stroke="black" d="M495.75,-166.5C495.75,-164.29 479.73,-162.5 460,-162.5 440.27,-162.5 424.25,-164.29 424.25,-166.5"/>
<text xml:space="preserve" text-anchor="middle" x="460" y="-151" font-family="Arial" font-size="10.00" fill="white">Split / Merge</text>
<text xml:space="preserve" text-anchor="middle" x="460" y="-139" font-family="Arial" font-size="10.00" fill="white">Datasets</text>
</g>
<!-- ds_load&#45;&gt;ds_split -->
<g id="edge8" class="edge">
<title>ds_load&#45;&gt;ds_split</title>
<path fill="none" stroke="#ce93d8" stroke-width="1.5" d="M460,-230.39C460,-230.39 460,-183.1 460,-183.1"/>
<polygon fill="#ce93d8" stroke="#ce93d8" stroke-width="1.5" points="463.5,-183.1 460,-173.1 456.5,-183.1 463.5,-183.1"/>
</g>
<!-- ds_metrics -->
<g id="node17" class="node">
<title>ds_metrics</title>
<path fill="#9c27b0" stroke="black" d="M504.38,-64.5C504.38,-66.71 484.49,-68.5 460,-68.5 435.51,-68.5 415.62,-66.71 415.62,-64.5 415.62,-64.5 415.62,-28.5 415.62,-28.5 415.62,-26.29 435.51,-24.5 460,-24.5 484.49,-24.5 504.38,-26.29 504.38,-28.5 504.38,-28.5 504.38,-64.5 504.38,-64.5"/>
<path fill="none" stroke="black" d="M504.38,-64.5C504.38,-62.29 484.49,-60.5 460,-60.5 435.51,-60.5 415.62,-62.29 415.62,-64.5"/>
<text xml:space="preserve" text-anchor="middle" x="460" y="-49" font-family="Arial" font-size="10.00" fill="white">mAP, Confusion</text>
<text xml:space="preserve" text-anchor="middle" x="460" y="-37" font-family="Arial" font-size="10.00" fill="white">Matrix, F1 Score</text>
</g>
<!-- ds_split&#45;&gt;ds_metrics -->
<g id="edge9" class="edge">
<title>ds_split&#45;&gt;ds_metrics</title>
<path fill="none" stroke="#ce93d8" stroke-width="1.5" d="M460,-126.12C460,-126.12 460,-81.1 460,-81.1"/>
<polygon fill="#ce93d8" stroke="#ce93d8" stroke-width="1.5" points="463.5,-81.1 460,-71.1 456.5,-81.1 463.5,-81.1"/>
</g>
</g>
</svg>
