<?xml version="1.0" encoding="UTF-8" standalone="no"?>
<!DOCTYPE svg PUBLIC "-//W3C//DTD SVG 1.1//EN"
 "http://www.w3.org/Graphics/SVG/1.1/DTD/svg11.dtd">
<!-- Generated by graphviz version 14.1.2 (0)
 -->
<!-- Title: hermes_web_ui_architecture Pages: 1 -->
<svg width="567pt" height="591pt"
 viewBox="0.00 0.00 567.00 591.00" xmlns="http://www.w3.org/2000/svg" xmlns:xlink="http://www.w3.org/1999/xlink">
<g id="graph0" class="graph" transform="scale(1 1) rotate(0) translate(4 587)">
<title>hermes_web_ui_architecture</title>
<polygon fill="white" stroke="none" points="-4,4 -4,-587 562.88,-587 562.88,4 -4,4"/>
<!-- browser -->
<g id="node1" class="node">
<title>browser</title>
<polygon fill="#4caf50" stroke="black" points="317.88,-583 249.38,-583 249.38,-547 317.88,-547 317.88,-583"/>
<text xml:space="preserve" text-anchor="middle" x="283.62" y="-568.05" font-family="Arial" font-size="11.00" fill="white">Browser</text>
<text xml:space="preserve" text-anchor="middle" x="283.62" y="-554.55" font-family="Arial" font-size="11.00" fill="white">Vue 3 SPA</text>
</g>
<!-- bff -->
<g id="node2" class="node">
<title>bff</title>
<path fill="#2196f3" stroke="black" d="M316.75,-456C316.75,-456 250.5,-456 250.5,-456 244.5,-456 238.5,-450 238.5,-444 238.5,-444 238.5,-431.5 238.5,-431.5 238.5,-425.5 244.5,-419.5 250.5,-419.5 250.5,-419.5 316.75,-419.5 316.75,-419.5 322.75,-419.5 328.75,-425.5 328.75,-431.5 328.75,-431.5 328.75,-444 328.75,-444 328.75,-450 322.75,-456 316.75,-456"/>
<text xml:space="preserve" text-anchor="middle" x="283.62" y="-440.6" font-family="Arial Bold" font-size="12.00" fill="white">BFF Server</text>
<text xml:space="preserve" text-anchor="middle" x="283.62" y="-426.35" font-family="Arial Bold" font-size="12.00" fill="white">Koa 2 (:8648)</text>
</g>
<!-- browser&#45;&gt;bff -->
<g id="edge1" class="edge">
<title>browser&#45;&gt;bff</title>
<path fill="none" stroke="#4caf50" stroke-width="2" d="M283.62,-546.77C283.62,-546.77 283.62,-469.39 283.62,-469.39"/>
<polygon fill="#4caf50" stroke="#4caf50" stroke-width="2" points="287.13,-469.39 283.63,-459.39 280.13,-469.39 287.13,-469.39"/>
<text xml:space="preserve" text-anchor="middle" x="314.38" y="-504.7" font-family="Times New Roman,serif" font-size="14.00">HTTP/SSE</text>
<text xml:space="preserve" text-anchor="middle" x="314.38" y="-488.2" font-family="Times New Roman,serif" font-size="14.00">WebSocket</text>
</g>
<!-- local_routes -->
<g id="node3" class="node">
<title>local_routes</title>
<path fill="#ff9800" stroke="black" d="M126.12,-360.5C126.12,-360.5 71.12,-360.5 71.12,-360.5 65.12,-360.5 59.12,-354.5 59.12,-348.5 59.12,-348.5 59.12,-336.5 59.12,-336.5 59.12,-330.5 65.12,-324.5 71.12,-324.5 71.12,-324.5 126.12,-324.5 126.12,-324.5 132.12,-324.5 138.12,-330.5 138.12,-336.5 138.12,-336.5 138.12,-348.5 138.12,-348.5 138.12,-354.5 132.12,-360.5 126.12,-360.5"/>
<text xml:space="preserve" text-anchor="middle" x="98.62" y="-345.55" font-family="Arial" font-size="11.00" fill="white">Local Routes</text>
<text xml:space="preserve" text-anchor="middle" x="98.62" y="-332.05" font-family="Arial" font-size="11.00" fill="white">/api/*</text>
</g>
<!-- bff&#45;&gt;local_routes -->
<g id="edge2" class="edge">
<title>bff&#45;&gt;local_routes</title>
<path fill="none" stroke="#2196f3" stroke-width="1.5" d="M238.37,-438C183.6,-438 98.62,-438 98.62,-438 98.62,-438 98.62,-373.18 98.62,-373.18"/>
<polygon fill="#2196f3" stroke="#2196f3" stroke-width="1.5" points="102.13,-373.18 98.63,-363.18 95.13,-373.18 102.13,-373.18"/>
</g>
<!-- proxy_routes -->
<g id="node4" class="node">
<title>proxy_routes</title>
<path fill="#ff9800" stroke="black" d="M268.25,-360.5C268.25,-360.5 211,-360.5 211,-360.5 205,-360.5 199,-354.5 199,-348.5 199,-348.5 199,-336.5 199,-336.5 199,-330.5 205,-324.5 211,-324.5 211,-324.5 268.25,-324.5 268.25,-324.5 274.25,-324.5 280.25,-330.5 280.25,-336.5 280.25,-336.5 280.25,-348.5 280.25,-348.5 280.25,-354.5 274.25,-360.5 268.25,-360.5"/>
<text xml:space="preserve" text-anchor="middle" x="239.62" y="-345.55" font-family="Arial" font-size="11.00" fill="white">Proxy Routes</text>
<text xml:space="preserve" text-anchor="middle" x="239.62" y="-332.05" font-family="Arial" font-size="11.00" fill="white">/proxy/*</text>
</g>
<!-- bff&#45;&gt;proxy_routes -->
<g id="edge3" class="edge">
<title>bff&#45;&gt;proxy_routes</title>
<path fill="none" stroke="#2196f3" stroke-width="1.5" d="M259.38,-419.38C259.38,-419.38 259.38,-373.08 259.38,-373.08"/>
<polygon fill="#2196f3" stroke="#2196f3" stroke-width="1.5" points="262.88,-373.08 259.38,-363.08 255.88,-373.08 262.88,-373.08"/>
</g>
<!-- ws_terminal -->
<g id="node5" class="node">
<title>ws_terminal</title>
<path fill="#ff9800" stroke="black" d="M419.12,-360.5C419.12,-360.5 328.12,-360.5 328.12,-360.5 322.12,-360.5 316.12,-354.5 316.12,-348.5 316.12,-348.5 316.12,-336.5 316.12,-336.5 316.12,-330.5 322.12,-324.5 328.12,-324.5 328.12,-324.5 419.12,-324.5 419.12,-324.5 425.12,-324.5 431.12,-330.5 431.12,-336.5 431.12,-336.5 431.12,-348.5 431.12,-348.5 431.12,-354.5 425.12,-360.5 419.12,-360.5"/>
<text xml:space="preserve" text-anchor="middle" x="373.62" y="-345.55" font-family="Arial" font-size="11.00" fill="white">WebSocket Terminal</text>
<text xml:space="preserve" text-anchor="middle" x="373.62" y="-332.05" font-family="Arial" font-size="11.00" fill="white">/ws/pty</text>
</g>
<!-- bff&#45;&gt;ws_terminal -->
<g id="edge4" class="edge">
<title>bff&#45;&gt;ws_terminal</title>
<path fill="none" stroke="#2196f3" stroke-width="1.5" d="M322.44,-419.38C322.44,-419.38 322.44,-373.08 322.44,-373.08"/>
<polygon fill="#2196f3" stroke="#2196f3" stroke-width="1.5" points="325.94,-373.08 322.44,-363.08 318.94,-373.08 325.94,-373.08"/>
</g>
<!-- static_serve -->
<g id="node6" class="node">
<title>static_serve</title>
<path fill="#ff9800" stroke="black" d="M538,-360.5C538,-360.5 479.25,-360.5 479.25,-360.5 473.25,-360.5 467.25,-354.5 467.25,-348.5 467.25,-348.5 467.25,-336.5 467.25,-336.5 467.25,-330.5 473.25,-324.5 479.25,-324.5 479.25,-324.5 538,-324.5 538,-324.5 544,-324.5 550,-330.5 550,-336.5 550,-336.5 550,-348.5 550,-348.5 550,-354.5 544,-360.5 538,-360.5"/>
<text xml:space="preserve" text-anchor="middle" x="508.62" y="-345.55" font-family="Arial" font-size="11.00" fill="white">Static Serving</text>
<text xml:space="preserve" text-anchor="middle" x="508.62" y="-332.05" font-family="Arial" font-size="11.00" fill="white">dist/client/</text>
</g>
<!-- bff&#45;&gt;static_serve -->
<g id="edge5" class="edge">
<title>bff&#45;&gt;static_serve</title>
<path fill="none" stroke="#2196f3" stroke-width="1.5" d="M329.16,-438C394.9,-438 508.62,-438 508.62,-438 508.62,-438 508.62,-373.18 508.62,-373.18"/>
<polygon fill="#2196f3" stroke="#2196f3" stroke-width="1.5" points="512.13,-373.18 508.63,-363.18 505.13,-373.18 512.13,-373.18"/>
</g>
<!-- hermes_cli -->
<g id="node7" class="node">
<title>hermes_cli</title>
<path fill="#2196f3" stroke="black" d="M135.25,-250C135.25,-250 12,-250 12,-250 6,-250 0,-244 0,-238 0,-238 0,-225.5 0,-225.5 0,-219.5 6,-213.5 12,-213.5 12,-213.5 135.25,-213.5 135.25,-213.5 141.25,-213.5 147.25,-219.5 147.25,-225.5 147.25,-225.5 147.25,-238 147.25,-238 147.25,-244 141.25,-250 135.25,-250"/>
<text xml:space="preserve" text-anchor="middle" x="73.62" y="-234.6" font-family="Arial Bold" font-size="12.00" fill="white">Hermes CLI</text>
<text xml:space="preserve" text-anchor="middle" x="73.62" y="-220.35" font-family="Arial Bold" font-size="12.00" fill="white">child_process.execFile</text>
</g>
<!-- local_routes&#45;&gt;hermes_cli -->
<g id="edge6" class="edge">
<title>local_routes&#45;&gt;hermes_cli</title>
<path fill="none" stroke="#ff9800" stroke-width="1.5" d="M98.62,-324.21C98.62,-324.21 98.62,-262.71 98.62,-262.71"/>
<polygon fill="#ff9800" stroke="#ff9800" stroke-width="1.5" points="102.13,-262.71 98.63,-252.71 95.13,-262.71 102.13,-262.71"/>
<text xml:space="preserve" text-anchor="middle" x="98.75" y="-282.2" font-family="Times New Roman,serif" font-size="14.00">CLI exec</text>
</g>
<!-- gateway -->
<g id="node8" class="node">
<title>gateway</title>
<path fill="#2196f3" stroke="black" d="M283.62,-250C283.62,-250 195.62,-250 195.62,-250 189.62,-250 183.62,-244 183.62,-238 183.62,-238 183.62,-225.5 183.62,-225.5 183.62,-219.5 189.62,-213.5 195.62,-213.5 195.62,-213.5 283.62,-213.5 283.62,-213.5 289.62,-213.5 295.62,-219.5 295.62,-225.5 295.62,-225.5 295.62,-238 295.62,-238 295.62,-244 289.62,-250 283.62,-250"/>
<text xml:space="preserve" text-anchor="middle" x="239.62" y="-234.6" font-family="Arial Bold" font-size="12.00" fill="white">Hermes Gateway</text>
<text xml:space="preserve" text-anchor="middle" x="239.62" y="-220.35" font-family="Arial Bold" font-size="12.00" fill="white">(:8642)</text>
</g>
<!-- proxy_routes&#45;&gt;gateway -->
<g id="edge7" class="edge">
<title>proxy_routes&#45;&gt;gateway</title>
<path fill="none" stroke="#ff9800" stroke-width="1.5" d="M239.62,-324.21C239.62,-324.21 239.62,-262.71 239.62,-262.71"/>
<polygon fill="#ff9800" stroke="#ff9800" stroke-width="1.5" points="243.13,-262.71 239.63,-252.71 236.13,-262.71 243.13,-262.71"/>
<text xml:space="preserve" text-anchor="middle" x="274.12" y="-282.2" font-family="Times New Roman,serif" font-size="14.00">HTTP proxy</text>
</g>
<!-- node_pty -->
<g id="node9" class="node">
<title>node_pty</title>
<path fill="#ff9800" stroke="black" d="M423.12,-249.75C423.12,-249.75 344.12,-249.75 344.12,-249.75 338.12,-249.75 332.12,-243.75 332.12,-237.75 332.12,-237.75 332.12,-225.75 332.12,-225.75 332.12,-219.75 338.12,-213.75 344.12,-213.75 344.12,-213.75 423.12,-213.75 423.12,-213.75 429.12,-213.75 435.12,-219.75 435.12,-225.75 435.12,-225.75 435.12,-237.75 435.12,-237.75 435.12,-243.75 429.12,-249.75 423.12,-249.75"/>
<text xml:space="preserve" text-anchor="middle" x="383.62" y="-234.8" font-family="Arial" font-size="11.00" fill="white">node&#45;pty + xterm</text>
<text xml:space="preserve" text-anchor="middle" x="383.62" y="-221.3" font-family="Arial" font-size="11.00" fill="white">Terminal Emulator</text>
</g>
<!-- ws_terminal&#45;&gt;node_pty -->
<g id="edge8" class="edge">
<title>ws_terminal&#45;&gt;node_pty</title>
<path fill="none" stroke="#9c27b0" stroke-width="1.5" d="M381.62,-324.21C381.62,-324.21 381.62,-262.34 381.62,-262.34"/>
<polygon fill="#9c27b0" stroke="#9c27b0" stroke-width="1.5" points="385.13,-262.34 381.63,-252.34 378.13,-262.34 385.13,-262.34"/>
<text xml:space="preserve" text-anchor="middle" x="411.38" y="-282.2" font-family="Times New Roman,serif" font-size="14.00">pty spawn</text>
</g>
<!-- vue_dist -->
<g id="node10" class="node">
<title>vue_dist</title>
<path fill="#9c27b0" stroke="black" d="M532.38,-249.75C532.38,-249.75 484.88,-249.75 484.88,-249.75 478.88,-249.75 472.88,-243.75 472.88,-237.75 472.88,-237.75 472.88,-225.75 472.88,-225.75 472.88,-219.75 478.88,-213.75 484.88,-213.75 484.88,-213.75 532.38,-213.75 532.38,-213.75 538.38,-213.75 544.38,-219.75 544.38,-225.75 544.38,-225.75 544.38,-237.75 544.38,-237.75 544.38,-243.75 538.38,-249.75 532.38,-249.75"/>
<text xml:space="preserve" text-anchor="middle" x="508.62" y="-234.8" font-family="Arial" font-size="11.00" fill="white">Vue SPA</text>
<text xml:space="preserve" text-anchor="middle" x="508.62" y="-221.3" font-family="Arial" font-size="11.00" fill="white">Built Assets</text>
</g>
<!-- static_serve&#45;&gt;vue_dist -->
<g id="edge9" class="edge">
<title>static_serve&#45;&gt;vue_dist</title>
<path fill="none" stroke="#9c27b0" stroke-width="1.5" d="M508.62,-324.21C508.62,-324.21 508.62,-262.34 508.62,-262.34"/>
<polygon fill="#9c27b0" stroke="#9c27b0" stroke-width="1.5" points="512.13,-262.34 508.63,-252.34 505.13,-262.34 512.13,-262.34"/>
<text xml:space="preserve" text-anchor="middle" x="533.75" y="-282.2" font-family="Times New Roman,serif" font-size="14.00">file serve</text>
</g>
<!-- agent -->
<g id="node11" class="node">
<title>agent</title>
<polygon fill="#f44336" stroke="black" points="282.12,-139 197.12,-139 197.12,-103 282.12,-103 282.12,-139"/>
<text xml:space="preserve" text-anchor="middle" x="239.62" y="-124.05" font-family="Arial" font-size="11.00" fill="white">Hermes Agent</text>
<text xml:space="preserve" text-anchor="middle" x="239.62" y="-110.55" font-family="Arial" font-size="11.00" fill="white">(CLI Process)</text>
</g>
<!-- gateway&#45;&gt;agent -->
<g id="edge10" class="edge">
<title>gateway&#45;&gt;agent</title>
<path fill="none" stroke="#f44336" stroke-width="2" d="M239.62,-213.46C239.62,-213.46 239.62,-152.34 239.62,-152.34"/>
<polygon fill="#f44336" stroke="#f44336" stroke-width="2" points="243.13,-152.34 239.63,-142.34 236.13,-152.34 243.13,-152.34"/>
<text xml:space="preserve" text-anchor="middle" x="269.62" y="-171.2" font-family="Times New Roman,serif" font-size="14.00">CLI spawn</text>
</g>
<!-- config_yaml -->
<g id="node12" class="node">
<title>config_yaml</title>
<path fill="#9c27b0" stroke="black" d="M222.75,-40C222.75,-42.21 207.9,-44 189.62,-44 171.35,-44 156.5,-42.21 156.5,-40 156.5,-40 156.5,-4 156.5,-4 156.5,-1.79 171.35,0 189.62,0 207.9,0 222.75,-1.79 222.75,-4 222.75,-4 222.75,-40 222.75,-40"/>
<path fill="none" stroke="black" d="M222.75,-40C222.75,-37.79 207.9,-36 189.62,-36 171.35,-36 156.5,-37.79 156.5,-40"/>
<text xml:space="preserve" text-anchor="middle" x="189.62" y="-24.5" font-family="Arial" font-size="10.00" fill="white">~/.hermes/</text>
<text xml:space="preserve" text-anchor="middle" x="189.62" y="-12.5" font-family="Arial" font-size="10.00" fill="white">config.yaml</text>
</g>
<!-- agent&#45;&gt;config_yaml -->
<g id="edge11" class="edge">
<title>agent&#45;&gt;config_yaml</title>
<path fill="none" stroke="#9c27b0" stroke-width="1.5" d="M209.94,-102.84C209.94,-102.84 209.94,-56.47 209.94,-56.47"/>
<polygon fill="#9c27b0" stroke="#9c27b0" stroke-width="1.5" points="213.44,-56.47 209.94,-46.47 206.44,-56.47 213.44,-56.47"/>
</g>
<!-- auth_json -->
<g id="node13" class="node">
<title>auth_json</title>
<path fill="#9c27b0" stroke="black" d="M322.25,-40C322.25,-42.21 308.08,-44 290.62,-44 273.17,-44 259,-42.21 259,-40 259,-40 259,-4 259,-4 259,-1.79 273.17,0 290.62,0 308.08,0 322.25,-1.79 322.25,-4 322.25,-4 322.25,-40 322.25,-40"/>
<path fill="none" stroke="black" d="M322.25,-40C322.25,-37.79 308.08,-36 290.62,-36 273.17,-36 259,-37.79 259,-40"/>
<text xml:space="preserve" text-anchor="middle" x="290.62" y="-24.5" font-family="Arial" font-size="10.00" fill="white">~/.hermes/</text>
<text xml:space="preserve" text-anchor="middle" x="290.62" y="-12.5" font-family="Arial" font-size="10.00" fill="white">auth.json</text>
</g>
<!-- agent&#45;&gt;auth_json -->
<g id="edge12" class="edge">
<title>agent&#45;&gt;auth_json</title>
<path fill="none" stroke="#9c27b0" stroke-width="1.5" d="M270.56,-102.84C270.56,-102.84 270.56,-56.12 270.56,-56.12"/>
<polygon fill="#9c27b0" stroke="#9c27b0" stroke-width="1.5" points="274.06,-56.11 270.56,-46.12 267.06,-56.12 274.06,-56.11"/>
</g>
</g>
</svg>
