<?xml version="1.0" encoding="UTF-8" standalone="no"?>
<!DOCTYPE svg PUBLIC "-//W3C//DTD SVG 1.1//EN"
 "http://www.w3.org/Graphics/SVG/1.1/DTD/svg11.dtd">
<!-- Generated by graphviz version 14.1.2 (0)
 -->
<!-- Title: hermes_web_ui_platform_channels Pages: 1 -->
<svg width="927pt" height="499pt"
 viewBox="0.00 0.00 927.00 499.00" xmlns="http://www.w3.org/2000/svg" xmlns:xlink="http://www.w3.org/1999/xlink">
<g id="graph0" class="graph" transform="scale(1 1) rotate(0) translate(4 495)">
<title>hermes_web_ui_platform_channels</title>
<polygon fill="white" stroke="none" points="-4,4 -4,-495 922.75,-495 922.75,4 -4,4"/>
<!-- telegram -->
<g id="node1" class="node">
<title>telegram</title>
<path fill="#00bcd4" stroke="black" d="M58,-491C58,-491 21.75,-491 21.75,-491 15.75,-491 9.75,-485 9.75,-479 9.75,-479 9.75,-467 9.75,-467 9.75,-461 15.75,-455 21.75,-455 21.75,-455 58,-455 58,-455 64,-455 70,-461 70,-467 70,-467 70,-479 70,-479 70,-485 64,-491 58,-491"/>
<text xml:space="preserve" text-anchor="middle" x="39.88" y="-476.05" font-family="Arial" font-size="11.00" fill="white">Telegram</text>
<text xml:space="preserve" text-anchor="middle" x="39.88" y="-462.55" font-family="Arial" font-size="11.00" fill="white">Bot API</text>
</g>
<!-- gateways -->
<g id="node12" class="node">
<title>gateways</title>
<path fill="#ff9800" stroke="black" d="M248.25,-263C248.25,-263 164.75,-263 164.75,-263 158.75,-263 152.75,-257 152.75,-251 152.75,-251 152.75,-239 152.75,-239 152.75,-233 158.75,-227 164.75,-227 164.75,-227 248.25,-227 248.25,-227 254.25,-227 260.25,-233 260.25,-239 260.25,-239 260.25,-251 260.25,-251 260.25,-257 254.25,-263 248.25,-263"/>
<text xml:space="preserve" text-anchor="middle" x="206.5" y="-248.05" font-family="Arial" font-size="11.00" fill="white">Platform Gateways</text>
<text xml:space="preserve" text-anchor="middle" x="206.5" y="-234.55" font-family="Arial" font-size="11.00" fill="white">(Adapter Layer)</text>
</g>
<!-- telegram&#45;&gt;gateways -->
<g id="edge1" class="edge">
<title>telegram&#45;&gt;gateways</title>
<path fill="none" stroke="#00bcd4" stroke-width="1.5" d="M70.17,-473C124.7,-473 233.75,-473 233.75,-473 233.75,-473 233.75,-275.54 233.75,-275.54"/>
<polygon fill="#00bcd4" stroke="#00bcd4" stroke-width="1.5" points="237.25,-275.54 233.75,-265.54 230.25,-275.54 237.25,-275.54"/>
</g>
<!-- discord -->
<g id="node2" class="node">
<title>discord</title>
<path fill="#00bcd4" stroke="black" d="M67.38,-426C67.38,-426 12.38,-426 12.38,-426 6.38,-426 0.38,-420 0.38,-414 0.38,-414 0.38,-402 0.38,-402 0.38,-396 6.38,-390 12.38,-390 12.38,-390 67.38,-390 67.38,-390 73.38,-390 79.38,-396 79.38,-402 79.38,-402 79.38,-414 79.38,-414 79.38,-420 73.38,-426 67.38,-426"/>
<text xml:space="preserve" text-anchor="middle" x="39.88" y="-411.05" font-family="Arial" font-size="11.00" fill="white">Discord</text>
<text xml:space="preserve" text-anchor="middle" x="39.88" y="-397.55" font-family="Arial" font-size="11.00" fill="white">Gateway API</text>
</g>
<!-- discord&#45;&gt;gateways -->
<g id="edge2" class="edge">
<title>discord&#45;&gt;gateways</title>
<path fill="none" stroke="#00bcd4" stroke-width="1.5" d="M79.85,-408C129.21,-408 206.75,-408 206.75,-408 206.75,-408 206.75,-275.65 206.75,-275.65"/>
<polygon fill="#00bcd4" stroke="#00bcd4" stroke-width="1.5" points="210.25,-275.65 206.75,-265.65 203.25,-275.65 210.25,-275.65"/>
</g>
<!-- slack -->
<g id="node3" class="node">
<title>slack</title>
<path fill="#00bcd4" stroke="black" d="M62.5,-361C62.5,-361 17.25,-361 17.25,-361 11.25,-361 5.25,-355 5.25,-349 5.25,-349 5.25,-337 5.25,-337 5.25,-331 11.25,-325 17.25,-325 17.25,-325 62.5,-325 62.5,-325 68.5,-325 74.5,-331 74.5,-337 74.5,-337 74.5,-349 74.5,-349 74.5,-355 68.5,-361 62.5,-361"/>
<text xml:space="preserve" text-anchor="middle" x="39.88" y="-346.05" font-family="Arial" font-size="11.00" fill="white">Slack</text>
<text xml:space="preserve" text-anchor="middle" x="39.88" y="-332.55" font-family="Arial" font-size="11.00" fill="white">Events API</text>
</g>
<!-- slack&#45;&gt;gateways -->
<g id="edge3" class="edge">
<title>slack&#45;&gt;gateways</title>
<path fill="none" stroke="#00bcd4" stroke-width="1.5" d="M74.81,-343C116.24,-343 179.75,-343 179.75,-343 179.75,-343 179.75,-275.7 179.75,-275.7"/>
<polygon fill="#00bcd4" stroke="#00bcd4" stroke-width="1.5" points="183.25,-275.7 179.75,-265.7 176.25,-275.7 183.25,-275.7"/>
</g>
<!-- whatsapp -->
<g id="node4" class="node">
<title>whatsapp</title>
<path fill="#00bcd4" stroke="black" d="M61,-296C61,-296 18.75,-296 18.75,-296 12.75,-296 6.75,-290 6.75,-284 6.75,-284 6.75,-272 6.75,-272 6.75,-266 12.75,-260 18.75,-260 18.75,-260 61,-260 61,-260 67,-260 73,-266 73,-272 73,-272 73,-284 73,-284 73,-290 67,-296 61,-296"/>
<text xml:space="preserve" text-anchor="middle" x="39.88" y="-281.05" font-family="Arial" font-size="11.00" fill="white">WhatsApp</text>
<text xml:space="preserve" text-anchor="middle" x="39.88" y="-267.55" font-family="Arial" font-size="11.00" fill="white">Web API</text>
</g>
<!-- whatsapp&#45;&gt;gateways -->
<g id="edge4" class="edge">
<title>whatsapp&#45;&gt;gateways</title>
<path fill="none" stroke="#00bcd4" stroke-width="1.5" d="M28.75,-259.7C28.75,-254.55 28.75,-250.33 28.75,-250.33 28.75,-250.33 140.42,-250.33 140.42,-250.33"/>
<polygon fill="#00bcd4" stroke="#00bcd4" stroke-width="1.5" points="140.42,-253.83 150.42,-250.33 140.42,-246.83 140.42,-253.83"/>
</g>
<!-- matrix -->
<g id="node5" class="node">
<title>matrix</title>
<path fill="#00bcd4" stroke="black" d="M59.88,-231C59.88,-231 19.88,-231 19.88,-231 13.88,-231 7.88,-225 7.88,-219 7.88,-219 7.88,-207 7.88,-207 7.88,-201 13.88,-195 19.88,-195 19.88,-195 59.88,-195 59.88,-195 65.88,-195 71.88,-201 71.88,-207 71.88,-207 71.88,-219 71.88,-219 71.88,-225 65.88,-231 59.88,-231"/>
<text xml:space="preserve" text-anchor="middle" x="39.88" y="-216.05" font-family="Arial" font-size="11.00" fill="white">Matrix</text>
<text xml:space="preserve" text-anchor="middle" x="39.88" y="-202.55" font-family="Arial" font-size="11.00" fill="white">Client API</text>
</g>
<!-- matrix&#45;&gt;gateways -->
<g id="edge5" class="edge">
<title>matrix&#45;&gt;gateways</title>
<path fill="none" stroke="#00bcd4" stroke-width="1.5" d="M50.75,-231.3C50.75,-236.45 50.75,-240.67 50.75,-240.67 50.75,-240.67 140.19,-240.67 140.19,-240.67"/>
<polygon fill="#00bcd4" stroke="#00bcd4" stroke-width="1.5" points="140.19,-244.17 150.19,-240.67 140.19,-237.17 140.19,-244.17"/>
</g>
<!-- feishu -->
<g id="node6" class="node">
<title>feishu</title>
<path fill="#00bcd4" stroke="black" d="M67.75,-166C67.75,-166 12,-166 12,-166 6,-166 0,-160 0,-154 0,-154 0,-142 0,-142 0,-136 6,-130 12,-130 12,-130 67.75,-130 67.75,-130 73.75,-130 79.75,-136 79.75,-142 79.75,-142 79.75,-154 79.75,-154 79.75,-160 73.75,-166 67.75,-166"/>
<text xml:space="preserve" text-anchor="middle" x="39.88" y="-151.05" font-family="Arial" font-size="11.00" fill="white">Feishu (Lark)</text>
<text xml:space="preserve" text-anchor="middle" x="39.88" y="-137.55" font-family="Arial" font-size="11.00" fill="white">Bot API</text>
</g>
<!-- feishu&#45;&gt;gateways -->
<g id="edge6" class="edge">
<title>feishu&#45;&gt;gateways</title>
<path fill="none" stroke="#00bcd4" stroke-width="1.5" d="M79.96,-148C121.29,-148 179.75,-148 179.75,-148 179.75,-148 179.75,-214.48 179.75,-214.48"/>
<polygon fill="#00bcd4" stroke="#00bcd4" stroke-width="1.5" points="176.25,-214.48 179.75,-224.48 183.25,-214.48 176.25,-214.48"/>
</g>
<!-- wechat -->
<g id="node7" class="node">
<title>wechat</title>
<path fill="#00bcd4" stroke="black" d="M58.75,-101C58.75,-101 21,-101 21,-101 15,-101 9,-95 9,-89 9,-89 9,-77 9,-77 9,-71 15,-65 21,-65 21,-65 58.75,-65 58.75,-65 64.75,-65 70.75,-71 70.75,-77 70.75,-77 70.75,-89 70.75,-89 70.75,-95 64.75,-101 58.75,-101"/>
<text xml:space="preserve" text-anchor="middle" x="39.88" y="-86.05" font-family="Arial" font-size="11.00" fill="white">WeChat</text>
<text xml:space="preserve" text-anchor="middle" x="39.88" y="-72.55" font-family="Arial" font-size="11.00" fill="white">QR Login</text>
</g>
<!-- wechat&#45;&gt;gateways -->
<g id="edge7" class="edge">
<title>wechat&#45;&gt;gateways</title>
<path fill="none" stroke="#00bcd4" stroke-width="1.5" d="M70.87,-83C119.13,-83 206.75,-83 206.75,-83 206.75,-83 206.75,-214.46 206.75,-214.46"/>
<polygon fill="#00bcd4" stroke="#00bcd4" stroke-width="1.5" points="203.25,-214.46 206.75,-224.46 210.25,-214.46 203.25,-214.46"/>
</g>
<!-- wecom -->
<g id="node8" class="node">
<title>wecom</title>
<path fill="#00bcd4" stroke="black" d="M55.75,-36C55.75,-36 24,-36 24,-36 18,-36 12,-30 12,-24 12,-24 12,-12 12,-12 12,-6 18,0 24,0 24,0 55.75,0 55.75,0 61.75,0 67.75,-6 67.75,-12 67.75,-12 67.75,-24 67.75,-24 67.75,-30 61.75,-36 55.75,-36"/>
<text xml:space="preserve" text-anchor="middle" x="39.88" y="-21.05" font-family="Arial" font-size="11.00" fill="white">WeCom</text>
<text xml:space="preserve" text-anchor="middle" x="39.88" y="-7.55" font-family="Arial" font-size="11.00" fill="white">App API</text>
</g>
<!-- wecom&#45;&gt;gateways -->
<g id="edge8" class="edge">
<title>wecom&#45;&gt;gateways</title>
<path fill="none" stroke="#00bcd4" stroke-width="1.5" d="M68.07,-18C121.84,-18 233.75,-18 233.75,-18 233.75,-18 233.75,-214.54 233.75,-214.54"/>
<polygon fill="#00bcd4" stroke="#00bcd4" stroke-width="1.5" points="230.25,-214.54 233.75,-224.54 237.25,-214.54 230.25,-214.54"/>
</g>
<!-- agent -->
<g id="node9" class="node">
<title>agent</title>
<path fill="#2196f3" stroke="black" d="M487,-232.25C487,-232.25 413.25,-232.25 413.25,-232.25 407.25,-232.25 401.25,-226.25 401.25,-220.25 401.25,-220.25 401.25,-207.75 401.25,-207.75 401.25,-201.75 407.25,-195.75 413.25,-195.75 413.25,-195.75 487,-195.75 487,-195.75 493,-195.75 499,-201.75 499,-207.75 499,-207.75 499,-220.25 499,-220.25 499,-226.25 493,-232.25 487,-232.25"/>
<text xml:space="preserve" text-anchor="middle" x="450.12" y="-216.85" font-family="Arial Bold" font-size="12.00" fill="white">Hermes Agent</text>
<text xml:space="preserve" text-anchor="middle" x="450.12" y="-202.6" font-family="Arial Bold" font-size="12.00" fill="white">(CLI Core)</text>
</g>
<!-- webui -->
<g id="node10" class="node">
<title>webui</title>
<polygon fill="#f44336" stroke="black" points="725.75,-232 631.75,-232 631.75,-196 725.75,-196 725.75,-232"/>
<text xml:space="preserve" text-anchor="middle" x="678.75" y="-217.05" font-family="Arial" font-size="11.00" fill="white">Hermes Web UI</text>
<text xml:space="preserve" text-anchor="middle" x="678.75" y="-203.55" font-family="Arial" font-size="11.00" fill="white">Dashboard</text>
</g>
<!-- agent&#45;&gt;webui -->
<g id="edge10" class="edge">
<title>agent&#45;&gt;webui</title>
<path fill="none" stroke="#f44336" stroke-width="2" d="M499.45,-214C499.45,-214 618.44,-214 618.44,-214"/>
<polygon fill="#f44336" stroke="#f44336" stroke-width="2" points="618.44,-217.5 628.44,-214 618.44,-210.5 618.44,-217.5"/>
<text xml:space="preserve" text-anchor="middle" x="565.38" y="-217.2" font-family="Times New Roman,serif" font-size="14.00">SSE/HTTP</text>
</g>
<!-- config -->
<g id="node11" class="node">
<title>config</title>
<path fill="#9c27b0" stroke="black" d="M918.75,-263C918.75,-265.21 903.9,-267 885.62,-267 867.35,-267 852.5,-265.21 852.5,-263 852.5,-263 852.5,-227 852.5,-227 852.5,-224.79 867.35,-223 885.62,-223 903.9,-223 918.75,-224.79 918.75,-227 918.75,-227 918.75,-263 918.75,-263"/>
<path fill="none" stroke="black" d="M918.75,-263C918.75,-260.79 903.9,-259 885.62,-259 867.35,-259 852.5,-260.79 852.5,-263"/>
<text xml:space="preserve" text-anchor="middle" x="885.62" y="-247.5" font-family="Arial" font-size="10.00" fill="white">~/.hermes/</text>
<text xml:space="preserve" text-anchor="middle" x="885.62" y="-235.5" font-family="Arial" font-size="10.00" fill="white">config.yaml</text>
</g>
<!-- webui&#45;&gt;config -->
<g id="edge11" class="edge">
<title>webui&#45;&gt;config</title>
<path fill="none" stroke="#9c27b0" stroke-width="1.5" d="M726.21,-227.5C726.21,-227.5 839.98,-227.5 839.98,-227.5"/>
<polygon fill="#9c27b0" stroke="#9c27b0" stroke-width="1.5" points="839.98,-231 849.98,-227.5 839.98,-224 839.98,-231"/>
<text xml:space="preserve" text-anchor="middle" x="789.12" y="-238.7" font-family="Times New Roman,serif" font-size="14.00">read/write</text>
<text xml:space="preserve" text-anchor="middle" x="789.12" y="-222.2" font-family="Times New Roman,serif" font-size="14.00">config</text>
</g>
<!-- config&#45;&gt;gateways -->
<g id="edge12" class="edge">
<title>config&#45;&gt;gateways</title>
<path fill="none" stroke="#9c27b0" stroke-width="1.5" stroke-dasharray="5,2" d="M852.41,-252.75C852.41,-252.75 272.95,-252.75 272.95,-252.75"/>
<polygon fill="#9c27b0" stroke="#9c27b0" stroke-width="1.5" points="272.95,-249.25 262.95,-252.75 272.95,-256.25 272.95,-249.25"/>
<text xml:space="preserve" text-anchor="middle" x="565.38" y="-295.7" font-family="Times New Roman,serif" font-size="14.00">credentials</text>
<text xml:space="preserve" text-anchor="middle" x="565.38" y="-279.2" font-family="Times New Roman,serif" font-size="14.00">&amp; settings</text>
</g>
<!-- gateways&#45;&gt;agent -->
<g id="edge9" class="edge">
<title>gateways&#45;&gt;agent</title>
<path fill="none" stroke="#2196f3" stroke-width="2" d="M260.49,-242.5C332.15,-242.5 449.75,-242.5 449.75,-242.5 449.75,-242.5 449.75,-241.5 449.75,-241.5"/>
<polygon fill="#2196f3" stroke="#2196f3" stroke-width="2" points="453.25,-245.56 449.75,-235.56 446.25,-245.56 453.25,-245.56"/>
<text xml:space="preserve" text-anchor="middle" x="330.75" y="-230.2" font-family="Times New Roman,serif" font-size="14.00">message bus</text>
</g>
</g>
</svg>
