<?xml version="1.0" encoding="UTF-8" standalone="no"?>
<!DOCTYPE svg PUBLIC "-//W3C//DTD SVG 1.1//EN"
 "http://www.w3.org/Graphics/SVG/1.1/DTD/svg11.dtd">
<!-- Generated by graphviz version 14.1.2 (0)
 -->
<!-- Title: hermes_web_ui_data_flow Pages: 1 -->
<svg width="488pt" height="519pt"
 viewBox="0.00 0.00 488.00 519.00" xmlns="http://www.w3.org/2000/svg" xmlns:xlink="http://www.w3.org/1999/xlink">
<g id="graph0" class="graph" transform="scale(1 1) rotate(0) translate(4 514.5)">
<title>hermes_web_ui_data_flow</title>
<polygon fill="white" stroke="none" points="-4,4 -4,-514.5 484,-514.5 484,4 -4,4"/>
<!-- browser -->
<g id="node1" class="node">
<title>browser</title>
<polygon fill="#4caf50" stroke="black" points="274.5,-510.5 198.5,-510.5 198.5,-474.5 274.5,-474.5 274.5,-510.5"/>
<text xml:space="preserve" text-anchor="middle" x="236.5" y="-495.55" font-family="Arial" font-size="11.00" fill="white">Browser</text>
<text xml:space="preserve" text-anchor="middle" x="236.5" y="-482.05" font-family="Arial" font-size="11.00" fill="white">(Vue 3 SPA)</text>
</g>
<!-- sse_entry -->
<g id="node2" class="node">
<title>sse_entry</title>
<path fill="#bbdefb" stroke="black" d="M118.25,-423.5C118.25,-423.5 46.75,-423.5 46.75,-423.5 40.75,-423.5 34.75,-417.5 34.75,-411.5 34.75,-411.5 34.75,-399.5 34.75,-399.5 34.75,-393.5 40.75,-387.5 46.75,-387.5 46.75,-387.5 118.25,-387.5 118.25,-387.5 124.25,-387.5 130.25,-393.5 130.25,-399.5 130.25,-399.5 130.25,-411.5 130.25,-411.5 130.25,-417.5 124.25,-423.5 118.25,-423.5"/>
<text xml:space="preserve" text-anchor="middle" x="82.5" y="-408" font-family="Arial" font-size="10.00" fill="#0d47a1">SSE EventSource</text>
<text xml:space="preserve" text-anchor="middle" x="82.5" y="-396" font-family="Arial" font-size="10.00" fill="#0d47a1">/api/chat/stream</text>
</g>
<!-- browser&#45;&gt;sse_entry -->
<g id="edge1" class="edge">
<title>browser&#45;&gt;sse_entry</title>
<path fill="none" stroke="#2196f3" stroke-width="2" d="M198.04,-493C152.42,-493 82.5,-493 82.5,-493 82.5,-493 82.5,-436.66 82.5,-436.66"/>
<polygon fill="#2196f3" stroke="#2196f3" stroke-width="2" points="86,-436.66 82.5,-426.66 79,-436.66 86,-436.66"/>
</g>
<!-- rest_entry -->
<g id="node3" class="node">
<title>rest_entry</title>
<path fill="#ffe0b2" stroke="black" d="M222.38,-423.5C222.38,-423.5 178.62,-423.5 178.62,-423.5 172.62,-423.5 166.62,-417.5 166.62,-411.5 166.62,-411.5 166.62,-399.5 166.62,-399.5 166.62,-393.5 172.62,-387.5 178.62,-387.5 178.62,-387.5 222.38,-387.5 222.38,-387.5 228.38,-387.5 234.38,-393.5 234.38,-399.5 234.38,-399.5 234.38,-411.5 234.38,-411.5 234.38,-417.5 228.38,-423.5 222.38,-423.5"/>
<text xml:space="preserve" text-anchor="middle" x="200.5" y="-408" font-family="Arial" font-size="10.00" fill="#e65100">REST API</text>
<text xml:space="preserve" text-anchor="middle" x="200.5" y="-396" font-family="Arial" font-size="10.00" fill="#e65100">/api/config/*</text>
</g>
<!-- browser&#45;&gt;rest_entry -->
<g id="edge2" class="edge">
<title>browser&#45;&gt;rest_entry</title>
<path fill="none" stroke="#ff9800" stroke-width="2" d="M216.44,-474.05C216.44,-474.05 216.44,-436.95 216.44,-436.95"/>
<polygon fill="#ff9800" stroke="#ff9800" stroke-width="2" points="219.94,-436.95 216.44,-426.95 212.94,-436.95 219.94,-436.95"/>
</g>
<!-- ws_entry -->
<g id="node4" class="node">
<title>ws_entry</title>
<path fill="#e1bee7" stroke="black" d="M324.62,-423.5C324.62,-423.5 282.38,-423.5 282.38,-423.5 276.38,-423.5 270.38,-417.5 270.38,-411.5 270.38,-411.5 270.38,-399.5 270.38,-399.5 270.38,-393.5 276.38,-387.5 282.38,-387.5 282.38,-387.5 324.62,-387.5 324.62,-387.5 330.62,-387.5 336.62,-393.5 336.62,-399.5 336.62,-399.5 336.62,-411.5 336.62,-411.5 336.62,-417.5 330.62,-423.5 324.62,-423.5"/>
<text xml:space="preserve" text-anchor="middle" x="303.5" y="-408" font-family="Arial" font-size="10.00" fill="#4a148c">WebSocket</text>
<text xml:space="preserve" text-anchor="middle" x="303.5" y="-396" font-family="Arial" font-size="10.00" fill="#4a148c">/ws/pty</text>
</g>
<!-- browser&#45;&gt;ws_entry -->
<g id="edge3" class="edge">
<title>browser&#45;&gt;ws_entry</title>
<path fill="none" stroke="#9c27b0" stroke-width="2" d="M252.38,-474.16C252.38,-448.76 252.38,-406 252.38,-406 252.38,-406 256.94,-406 256.94,-406"/>
<polygon fill="#9c27b0" stroke="#9c27b0" stroke-width="2" points="256.94,-409.5 266.94,-406 256.94,-402.5 256.94,-409.5"/>
</g>
<!-- upload_entry -->
<g id="node5" class="node">
<title>upload_entry</title>
<path fill="#c8e6c9" stroke="black" d="M438.25,-423.5C438.25,-423.5 384.75,-423.5 384.75,-423.5 378.75,-423.5 372.75,-417.5 372.75,-411.5 372.75,-411.5 372.75,-399.5 372.75,-399.5 372.75,-393.5 378.75,-387.5 384.75,-387.5 384.75,-387.5 438.25,-387.5 438.25,-387.5 444.25,-387.5 450.25,-393.5 450.25,-399.5 450.25,-399.5 450.25,-411.5 450.25,-411.5 450.25,-417.5 444.25,-423.5 438.25,-423.5"/>
<text xml:space="preserve" text-anchor="middle" x="411.5" y="-408" font-family="Arial" font-size="10.00" fill="#1b5e20">POST /upload</text>
<text xml:space="preserve" text-anchor="middle" x="411.5" y="-396" font-family="Arial" font-size="10.00" fill="#1b5e20">File Upload</text>
</g>
<!-- browser&#45;&gt;upload_entry -->
<g id="edge4" class="edge">
<title>browser&#45;&gt;upload_entry</title>
<path fill="none" stroke="#4caf50" stroke-width="2" d="M274.9,-493C326.42,-493 411.5,-493 411.5,-493 411.5,-493 411.5,-436.66 411.5,-436.66"/>
<polygon fill="#4caf50" stroke="#4caf50" stroke-width="2" points="415,-436.66 411.5,-426.66 408,-436.66 415,-436.66"/>
</g>
<!-- bff -->
<g id="node6" class="node">
<title>bff</title>
<path fill="#2196f3" stroke="black" d="M284.62,-336.5C284.62,-336.5 218.38,-336.5 218.38,-336.5 212.38,-336.5 206.38,-330.5 206.38,-324.5 206.38,-324.5 206.38,-312 206.38,-312 206.38,-306 212.38,-300 218.38,-300 218.38,-300 284.62,-300 284.62,-300 290.62,-300 296.62,-306 296.62,-312 296.62,-312 296.62,-324.5 296.62,-324.5 296.62,-330.5 290.62,-336.5 284.62,-336.5"/>
<text xml:space="preserve" text-anchor="middle" x="251.5" y="-321.1" font-family="Arial Bold" font-size="12.00" fill="white">BFF Server</text>
<text xml:space="preserve" text-anchor="middle" x="251.5" y="-306.85" font-family="Arial Bold" font-size="12.00" fill="white">(Koa 2 :8648)</text>
</g>
<!-- sse_entry&#45;&gt;bff -->
<g id="edge5" class="edge">
<title>sse_entry&#45;&gt;bff</title>
<path fill="none" stroke="#2196f3" stroke-width="2" d="M125.62,-387.01C125.62,-362.96 125.62,-324 125.62,-324 125.62,-324 193.03,-324 193.03,-324"/>
<polygon fill="#2196f3" stroke="#2196f3" stroke-width="2" points="193.03,-327.5 203.03,-324 193.03,-320.5 193.03,-327.5"/>
</g>
<!-- rest_entry&#45;&gt;bff -->
<g id="edge6" class="edge">
<title>rest_entry&#45;&gt;bff</title>
<path fill="none" stroke="#ff9800" stroke-width="2" d="M220.38,-387.42C220.38,-387.42 220.38,-349.93 220.38,-349.93"/>
<polygon fill="#ff9800" stroke="#ff9800" stroke-width="2" points="223.88,-349.93 220.38,-339.93 216.88,-349.93 223.88,-349.93"/>
</g>
<!-- ws_entry&#45;&gt;bff -->
<g id="edge7" class="edge">
<title>ws_entry&#45;&gt;bff</title>
<path fill="none" stroke="#9c27b0" stroke-width="2" d="M283.5,-387.42C283.5,-387.42 283.5,-349.93 283.5,-349.93"/>
<polygon fill="#9c27b0" stroke="#9c27b0" stroke-width="2" points="287,-349.93 283.5,-339.93 280,-349.93 287,-349.93"/>
</g>
<!-- upload_entry&#45;&gt;bff -->
<g id="edge8" class="edge">
<title>upload_entry&#45;&gt;bff</title>
<path fill="none" stroke="#4caf50" stroke-width="2" d="M377.88,-387.01C377.88,-362.96 377.88,-324 377.88,-324 377.88,-324 310.15,-324 310.15,-324"/>
<polygon fill="#4caf50" stroke="#4caf50" stroke-width="2" points="310.15,-320.5 300.15,-324 310.15,-327.5 310.15,-320.5"/>
</g>
<!-- chat_handler -->
<g id="node7" class="node">
<title>chat_handler</title>
<path fill="#bbdefb" stroke="black" d="M100.38,-249C100.38,-249 50.62,-249 50.62,-249 44.62,-249 38.62,-243 38.62,-237 38.62,-237 38.62,-225 38.62,-225 38.62,-219 44.62,-213 50.62,-213 50.62,-213 100.38,-213 100.38,-213 106.38,-213 112.38,-219 112.38,-225 112.38,-225 112.38,-237 112.38,-237 112.38,-243 106.38,-249 100.38,-249"/>
<text xml:space="preserve" text-anchor="middle" x="75.5" y="-233.5" font-family="Arial" font-size="10.00" fill="#0d47a1">Chat Handler</text>
<text xml:space="preserve" text-anchor="middle" x="75.5" y="-221.5" font-family="Arial" font-size="10.00" fill="#0d47a1">SSE Stream</text>
</g>
<!-- bff&#45;&gt;chat_handler -->
<g id="edge9" class="edge">
<title>bff&#45;&gt;chat_handler</title>
<path fill="none" stroke="#2196f3" stroke-width="2" d="M206.18,-312C154.03,-312 75.5,-312 75.5,-312 75.5,-312 75.5,-262.41 75.5,-262.41"/>
<polygon fill="#2196f3" stroke="#2196f3" stroke-width="2" points="79,-262.41 75.5,-252.41 72,-262.41 79,-262.41"/>
</g>
<!-- config_handler -->
<g id="node8" class="node">
<title>config_handler</title>
<path fill="#ffe0b2" stroke="black" d="M223.12,-249C223.12,-249 165.88,-249 165.88,-249 159.88,-249 153.88,-243 153.88,-237 153.88,-237 153.88,-225 153.88,-225 153.88,-219 159.88,-213 165.88,-213 165.88,-213 223.12,-213 223.12,-213 229.12,-213 235.12,-219 235.12,-225 235.12,-225 235.12,-237 235.12,-237 235.12,-243 229.12,-249 223.12,-249"/>
<text xml:space="preserve" text-anchor="middle" x="194.5" y="-233.5" font-family="Arial" font-size="10.00" fill="#e65100">Config Handler</text>
<text xml:space="preserve" text-anchor="middle" x="194.5" y="-221.5" font-family="Arial" font-size="10.00" fill="#e65100">Local Route</text>
</g>
<!-- bff&#45;&gt;config_handler -->
<g id="edge10" class="edge">
<title>bff&#45;&gt;config_handler</title>
<path fill="none" stroke="#ff9800" stroke-width="2" d="M220.75,-299.75C220.75,-299.75 220.75,-262.5 220.75,-262.5"/>
<polygon fill="#ff9800" stroke="#ff9800" stroke-width="2" points="224.25,-262.5 220.75,-252.5 217.25,-262.5 224.25,-262.5"/>
</g>
<!-- pty_handler -->
<g id="node9" class="node">
<title>pty_handler</title>
<path fill="#e1bee7" stroke="black" d="M332.62,-249C332.62,-249 284.38,-249 284.38,-249 278.38,-249 272.38,-243 272.38,-237 272.38,-237 272.38,-225 272.38,-225 272.38,-219 278.38,-213 284.38,-213 284.38,-213 332.62,-213 332.62,-213 338.62,-213 344.62,-219 344.62,-225 344.62,-225 344.62,-237 344.62,-237 344.62,-243 338.62,-249 332.62,-249"/>
<text xml:space="preserve" text-anchor="middle" x="308.5" y="-233.5" font-family="Arial" font-size="10.00" fill="#4a148c">PTY Handler</text>
<text xml:space="preserve" text-anchor="middle" x="308.5" y="-221.5" font-family="Arial" font-size="10.00" fill="#4a148c">WebSocket</text>
</g>
<!-- bff&#45;&gt;pty_handler -->
<g id="edge11" class="edge">
<title>bff&#45;&gt;pty_handler</title>
<path fill="none" stroke="#9c27b0" stroke-width="2" d="M284.5,-299.75C284.5,-299.75 284.5,-262.5 284.5,-262.5"/>
<polygon fill="#9c27b0" stroke="#9c27b0" stroke-width="2" points="288,-262.5 284.5,-252.5 281,-262.5 288,-262.5"/>
</g>
<!-- upload_handler -->
<g id="node10" class="node">
<title>upload_handler</title>
<path fill="#c8e6c9" stroke="black" d="M456.25,-249C456.25,-249 396.75,-249 396.75,-249 390.75,-249 384.75,-243 384.75,-237 384.75,-237 384.75,-225 384.75,-225 384.75,-219 390.75,-213 396.75,-213 396.75,-213 456.25,-213 456.25,-213 462.25,-213 468.25,-219 468.25,-225 468.25,-225 468.25,-237 468.25,-237 468.25,-243 462.25,-249 456.25,-249"/>
<text xml:space="preserve" text-anchor="middle" x="426.5" y="-233.5" font-family="Arial" font-size="10.00" fill="#1b5e20">Upload Handler</text>
<text xml:space="preserve" text-anchor="middle" x="426.5" y="-221.5" font-family="Arial" font-size="10.00" fill="#1b5e20">Multipart</text>
</g>
<!-- bff&#45;&gt;upload_handler -->
<g id="edge12" class="edge">
<title>bff&#45;&gt;upload_handler</title>
<path fill="none" stroke="#4caf50" stroke-width="2" d="M296.86,-312C346.01,-312 417.5,-312 417.5,-312 417.5,-312 417.5,-262.41 417.5,-262.41"/>
<polygon fill="#4caf50" stroke="#4caf50" stroke-width="2" points="421,-262.41 417.5,-252.41 414,-262.41 421,-262.41"/>
</g>
<!-- gateway -->
<g id="node11" class="node">
<title>gateway</title>
<path fill="#bbdefb" stroke="black" d="M102.38,-146.5C102.38,-146.5 22.62,-146.5 22.62,-146.5 16.62,-146.5 10.62,-140.5 10.62,-134.5 10.62,-134.5 10.62,-122.5 10.62,-122.5 10.62,-116.5 16.62,-110.5 22.62,-110.5 22.62,-110.5 102.38,-110.5 102.38,-110.5 108.38,-110.5 114.38,-116.5 114.38,-122.5 114.38,-122.5 114.38,-134.5 114.38,-134.5 114.38,-140.5 108.38,-146.5 102.38,-146.5"/>
<text xml:space="preserve" text-anchor="middle" x="62.5" y="-131.55" font-family="Arial Bold" font-size="11.00" fill="#0d47a1">Hermes Gateway</text>
<text xml:space="preserve" text-anchor="middle" x="62.5" y="-118.05" font-family="Arial Bold" font-size="11.00" fill="#0d47a1">(:8642)</text>
</g>
<!-- chat_handler&#45;&gt;gateway -->
<g id="edge13" class="edge">
<title>chat_handler&#45;&gt;gateway</title>
<path fill="none" stroke="#2196f3" stroke-width="2" d="M75.5,-212.68C75.5,-212.68 75.5,-159.69 75.5,-159.69"/>
<polygon fill="#2196f3" stroke="#2196f3" stroke-width="2" points="79,-159.69 75.5,-149.69 72,-159.69 79,-159.69"/>
<text xml:space="preserve" text-anchor="middle" x="84.25" y="-174.7" font-family="Times New Roman,serif" font-size="14.00">proxy</text>
</g>
<!-- hermes_cli -->
<g id="node12" class="node">
<title>hermes_cli</title>
<path fill="#ffe0b2" stroke="black" d="M217.25,-146.5C217.25,-146.5 163.75,-146.5 163.75,-146.5 157.75,-146.5 151.75,-140.5 151.75,-134.5 151.75,-134.5 151.75,-122.5 151.75,-122.5 151.75,-116.5 157.75,-110.5 163.75,-110.5 163.75,-110.5 217.25,-110.5 217.25,-110.5 223.25,-110.5 229.25,-116.5 229.25,-122.5 229.25,-122.5 229.25,-134.5 229.25,-134.5 229.25,-140.5 223.25,-146.5 217.25,-146.5"/>
<text xml:space="preserve" text-anchor="middle" x="190.5" y="-131.55" font-family="Arial Bold" font-size="11.00" fill="#e65100">Hermes CLI</text>
<text xml:space="preserve" text-anchor="middle" x="190.5" y="-118.05" font-family="Arial Bold" font-size="11.00" fill="#e65100">execFile()</text>
</g>
<!-- config_handler&#45;&gt;hermes_cli -->
<g id="edge14" class="edge">
<title>config_handler&#45;&gt;hermes_cli</title>
<path fill="none" stroke="#ff9800" stroke-width="2" d="M191.56,-212.68C191.56,-212.68 191.56,-159.69 191.56,-159.69"/>
<polygon fill="#ff9800" stroke="#ff9800" stroke-width="2" points="195.06,-159.69 191.56,-149.69 188.06,-159.69 195.06,-159.69"/>
<text xml:space="preserve" text-anchor="middle" x="216.62" y="-174.7" font-family="Times New Roman,serif" font-size="14.00">CLI exec</text>
</g>
<!-- node_pty -->
<g id="node13" class="node">
<title>node_pty</title>
<path fill="#e1bee7" stroke="black" d="M341.5,-146.5C341.5,-146.5 277.5,-146.5 277.5,-146.5 271.5,-146.5 265.5,-140.5 265.5,-134.5 265.5,-134.5 265.5,-122.5 265.5,-122.5 265.5,-116.5 271.5,-110.5 277.5,-110.5 277.5,-110.5 341.5,-110.5 341.5,-110.5 347.5,-110.5 353.5,-116.5 353.5,-122.5 353.5,-122.5 353.5,-134.5 353.5,-134.5 353.5,-140.5 347.5,-146.5 341.5,-146.5"/>
<text xml:space="preserve" text-anchor="middle" x="309.5" y="-131.55" font-family="Arial Bold" font-size="11.00" fill="#4a148c">node&#45;pty</text>
<text xml:space="preserve" text-anchor="middle" x="309.5" y="-118.05" font-family="Arial Bold" font-size="11.00" fill="#4a148c">Shell Process</text>
</g>
<!-- pty_handler&#45;&gt;node_pty -->
<g id="edge15" class="edge">
<title>pty_handler&#45;&gt;node_pty</title>
<path fill="none" stroke="#9c27b0" stroke-width="2" d="M308.5,-212.68C308.5,-212.68 308.5,-159.69 308.5,-159.69"/>
<polygon fill="#9c27b0" stroke="#9c27b0" stroke-width="2" points="312,-159.69 308.5,-149.69 305,-159.69 312,-159.69"/>
<text xml:space="preserve" text-anchor="middle" x="336.25" y="-174.7" font-family="Times New Roman,serif" font-size="14.00">pty spawn</text>
</g>
<!-- file_system -->
<g id="node14" class="node">
<title>file_system</title>
<path fill="#c8e6c9" stroke="black" d="M457.62,-146.5C457.62,-146.5 403.38,-146.5 403.38,-146.5 397.38,-146.5 391.38,-140.5 391.38,-134.5 391.38,-134.5 391.38,-122.5 391.38,-122.5 391.38,-116.5 397.38,-110.5 403.38,-110.5 403.38,-110.5 457.62,-110.5 457.62,-110.5 463.62,-110.5 469.62,-116.5 469.62,-122.5 469.62,-122.5 469.62,-134.5 469.62,-134.5 469.62,-140.5 463.62,-146.5 457.62,-146.5"/>
<text xml:space="preserve" text-anchor="middle" x="430.5" y="-131.55" font-family="Arial Bold" font-size="11.00" fill="#1b5e20">File System</text>
<text xml:space="preserve" text-anchor="middle" x="430.5" y="-118.05" font-family="Arial Bold" font-size="11.00" fill="#1b5e20">Uploads Dir</text>
</g>
<!-- upload_handler&#45;&gt;file_system -->
<g id="edge16" class="edge">
<title>upload_handler&#45;&gt;file_system</title>
<path fill="none" stroke="#4caf50" stroke-width="2" d="M429.81,-212.68C429.81,-212.68 429.81,-159.69 429.81,-159.69"/>
<polygon fill="#4caf50" stroke="#4caf50" stroke-width="2" points="433.31,-159.69 429.81,-149.69 426.31,-159.69 433.31,-159.69"/>
<text xml:space="preserve" text-anchor="middle" x="442.38" y="-174.7" font-family="Times New Roman,serif" font-size="14.00">write</text>
</g>
<!-- llm -->
<g id="node15" class="node">
<title>llm</title>
<polygon fill="#0d47a1" stroke="black" points="121,-40 0,-40 0,-4 121,-4 121,-40"/>
<text xml:space="preserve" text-anchor="middle" x="60.5" y="-25.05" font-family="Arial Bold" font-size="11.00" fill="white">LLM Provider</text>
<text xml:space="preserve" text-anchor="middle" x="60.5" y="-11.55" font-family="Arial Bold" font-size="11.00" fill="white">(OpenAI/Claude/etc)</text>
</g>
<!-- gateway&#45;&gt;llm -->
<g id="edge17" class="edge">
<title>gateway&#45;&gt;llm</title>
<path fill="none" stroke="#2196f3" stroke-width="2" d="M62.5,-110.43C62.5,-110.43 62.5,-53.18 62.5,-53.18"/>
<polygon fill="#2196f3" stroke="#2196f3" stroke-width="2" points="66,-53.18 62.5,-43.18 59,-53.18 66,-53.18"/>
<text xml:space="preserve" text-anchor="middle" x="83" y="-72.2" font-family="Times New Roman,serif" font-size="14.00">API call</text>
</g>
<!-- config_files -->
<g id="node16" class="node">
<title>config_files</title>
<path fill="#e65100" stroke="black" d="M225.75,-40C225.75,-42.21 210.4,-44 191.5,-44 172.6,-44 157.25,-42.21 157.25,-40 157.25,-40 157.25,-4 157.25,-4 157.25,-1.79 172.6,0 191.5,0 210.4,0 225.75,-1.79 225.75,-4 225.75,-4 225.75,-40 225.75,-40"/>
<path fill="none" stroke="black" d="M225.75,-40C225.75,-37.79 210.4,-36 191.5,-36 172.6,-36 157.25,-37.79 157.25,-40"/>
<text xml:space="preserve" text-anchor="middle" x="191.5" y="-24.5" font-family="Arial" font-size="10.00" fill="white">Config Files</text>
<text xml:space="preserve" text-anchor="middle" x="191.5" y="-12.5" font-family="Arial" font-size="10.00" fill="white">~/.hermes/</text>
</g>
<!-- hermes_cli&#45;&gt;config_files -->
<g id="edge18" class="edge">
<title>hermes_cli&#45;&gt;config_files</title>
<path fill="none" stroke="#ff9800" stroke-width="2" d="M191.5,-110.43C191.5,-110.43 191.5,-57.25 191.5,-57.25"/>
<polygon fill="#ff9800" stroke="#ff9800" stroke-width="2" points="195,-57.25 191.5,-47.25 188,-57.25 195,-57.25"/>
<text xml:space="preserve" text-anchor="middle" x="218.88" y="-72.2" font-family="Times New Roman,serif" font-size="14.00">read/write</text>
</g>
<!-- shell -->
<g id="node17" class="node">
<title>shell</title>
<polygon fill="#4a148c" stroke="black" points="347,-40 268,-40 268,-4 347,-4 347,-40"/>
<text xml:space="preserve" text-anchor="middle" x="307.5" y="-25.05" font-family="Arial" font-size="11.00" fill="white">System Shell</text>
<text xml:space="preserve" text-anchor="middle" x="307.5" y="-11.55" font-family="Arial" font-size="11.00" fill="white">bash/zsh</text>
</g>
<!-- node_pty&#45;&gt;shell -->
<g id="edge19" class="edge">
<title>node_pty&#45;&gt;shell</title>
<path fill="none" stroke="#9c27b0" stroke-width="2" d="M307.5,-110.43C307.5,-110.43 307.5,-53.18 307.5,-53.18"/>
<polygon fill="#9c27b0" stroke="#9c27b0" stroke-width="2" points="311,-53.18 307.5,-43.18 304,-53.18 311,-53.18"/>
<text xml:space="preserve" text-anchor="middle" x="319.88" y="-72.2" font-family="Times New Roman,serif" font-size="14.00">exec</text>
</g>
<!-- stored_files -->
<g id="node18" class="node">
<title>stored_files</title>
<path fill="#1b5e20" stroke="black" d="M480,-40C480,-42.21 458.26,-44 431.5,-44 404.74,-44 383,-42.21 383,-40 383,-40 383,-4 383,-4 383,-1.79 404.74,0 431.5,0 458.26,0 480,-1.79 480,-4 480,-4 480,-40 480,-40"/>
<path fill="none" stroke="black" d="M480,-40C480,-37.79 458.26,-36 431.5,-36 404.74,-36 383,-37.79 383,-40"/>
<text xml:space="preserve" text-anchor="middle" x="431.5" y="-24.5" font-family="Arial" font-size="10.00" fill="white">Stored Files</text>
<text xml:space="preserve" text-anchor="middle" x="431.5" y="-12.5" font-family="Arial" font-size="10.00" fill="white">~/hermes/uploads/</text>
</g>
<!-- file_system&#45;&gt;stored_files -->
<g id="edge20" class="edge">
<title>file_system&#45;&gt;stored_files</title>
<path fill="none" stroke="#4caf50" stroke-width="2" d="M430.5,-110.43C430.5,-110.43 430.5,-57.25 430.5,-57.25"/>
<polygon fill="#4caf50" stroke="#4caf50" stroke-width="2" points="434,-57.25 430.5,-47.25 427,-57.25 434,-57.25"/>
<text xml:space="preserve" text-anchor="middle" x="449.12" y="-72.2" font-family="Times New Roman,serif" font-size="14.00">persist</text>
</g>
</g>
</svg>
