<?xml version="1.0" encoding="UTF-8" standalone="no"?>
<!DOCTYPE svg PUBLIC "-//W3C//DTD SVG 1.1//EN"
 "http://www.w3.org/Graphics/SVG/1.1/DTD/svg11.dtd">
<!-- Generated by graphviz version 14.1.4 (20260321.0153)
 -->
<!-- Title: kt_feat Pages: 1 -->
<svg width="2973pt" height="257pt"
 viewBox="0.00 0.00 2973.00 257.00" xmlns="http://www.w3.org/2000/svg" xmlns:xlink="http://www.w3.org/1999/xlink">
<style>
text { paint-order: stroke; stroke: #ffffff; stroke-width: 3px; stroke-linejoin: round; fill: #1a1a2e; }
</style>
<g id="graph0" class="graph" transform="scale(1 1) rotate(0) translate(4 252.5)">
<title>kt_feat</title>
<polygon fill="white" stroke="none" points="-4,4 -4,-252.5 2968.88,-252.5 2968.88,4 -4,4"/>
<text xml:space="preserve" text-anchor="middle" x="1482.44" y="-7.2" font-family="Times New Roman,serif" font-size="14.00">Kotlin Core Features</text>
<!-- title -->
<g id="node1" class="node">
<title>title</title>
<path fill="#1565c0" stroke="black" d="M1536.25,-248.5C1536.25,-248.5 1386,-248.5 1386,-248.5 1380,-248.5 1374,-242.5 1374,-236.5 1374,-236.5 1374,-224.5 1374,-224.5 1374,-218.5 1380,-212.5 1386,-212.5 1386,-212.5 1536.25,-212.5 1536.25,-212.5 1542.25,-212.5 1548.25,-218.5 1548.25,-224.5 1548.25,-224.5 1548.25,-236.5 1548.25,-236.5 1548.25,-242.5 1542.25,-248.5 1536.25,-248.5"/>
<text xml:space="preserve" text-anchor="middle" x="1461.12" y="-225.07" font-family="Arial Bold" font-size="14.00" fill="#ffffff">Core Language Features</text>
</g>
<!-- ext -->
<g id="node2" class="node">
<title>ext</title>
<path fill="#2196f3" stroke="black" d="M461.62,-154.5C461.62,-154.5 364.62,-154.5 364.62,-154.5 358.62,-154.5 352.62,-148.5 352.62,-142.5 352.62,-142.5 352.62,-130.5 352.62,-130.5 352.62,-124.5 358.62,-118.5 364.62,-118.5 364.62,-118.5 461.62,-118.5 461.62,-118.5 467.62,-118.5 473.62,-124.5 473.62,-130.5 473.62,-130.5 473.62,-142.5 473.62,-142.5 473.62,-148.5 467.62,-154.5 461.62,-154.5"/>
<text xml:space="preserve" text-anchor="middle" x="413.12" y="-132.8" font-family="Arial Bold" font-size="11.00" fill="#ffffff">Extension functions</text>
</g>
<!-- title&#45;&gt;ext -->
<g id="edge1" class="edge">
<title>title&#45;&gt;ext</title>
<path fill="none" stroke="#4caf50" stroke-width="2" d="M1373.58,-230.5C1121.7,-230.5 413.12,-230.5 413.12,-230.5 413.12,-230.5 413.12,-167.65 413.12,-167.65"/>
<polygon fill="#4caf50" stroke="#4caf50" stroke-width="2" points="416.63,-167.65 413.13,-157.65 409.63,-167.65 416.63,-167.65"/>
</g>
<!-- scope -->
<g id="node7" class="node">
<title>scope</title>
<path fill="#2196f3" stroke="black" d="M985.88,-154.5C985.88,-154.5 908.38,-154.5 908.38,-154.5 902.38,-154.5 896.38,-148.5 896.38,-142.5 896.38,-142.5 896.38,-130.5 896.38,-130.5 896.38,-124.5 902.38,-118.5 908.38,-118.5 908.38,-118.5 985.88,-118.5 985.88,-118.5 991.88,-118.5 997.88,-124.5 997.88,-130.5 997.88,-130.5 997.88,-142.5 997.88,-142.5 997.88,-148.5 991.88,-154.5 985.88,-154.5"/>
<text xml:space="preserve" text-anchor="middle" x="947.12" y="-132.8" font-family="Arial Bold" font-size="11.00" fill="#ffffff">Scope functions</text>
</g>
<!-- title&#45;&gt;scope -->
<g id="edge6" class="edge">
<title>title&#45;&gt;scope</title>
<path fill="none" stroke="#00bcd4" stroke-width="2" d="M1392.56,-212.06C1392.56,-187.06 1392.56,-145.5 1392.56,-145.5 1392.56,-145.5 1011.25,-145.5 1011.25,-145.5"/>
<polygon fill="#00bcd4" stroke="#00bcd4" stroke-width="2" points="1011.25,-142 1001.25,-145.5 1011.25,-149 1011.25,-142"/>
</g>
<!-- dsl -->
<g id="node12" class="node">
<title>dsl</title>
<path fill="#2196f3" stroke="black" d="M1499.12,-154.5C1499.12,-154.5 1423.12,-154.5 1423.12,-154.5 1417.12,-154.5 1411.12,-148.5 1411.12,-142.5 1411.12,-142.5 1411.12,-130.5 1411.12,-130.5 1411.12,-124.5 1417.12,-118.5 1423.12,-118.5 1423.12,-118.5 1499.12,-118.5 1499.12,-118.5 1505.12,-118.5 1511.12,-124.5 1511.12,-130.5 1511.12,-130.5 1511.12,-142.5 1511.12,-142.5 1511.12,-148.5 1505.12,-154.5 1499.12,-154.5"/>
<text xml:space="preserve" text-anchor="middle" x="1461.12" y="-132.8" font-family="Arial Bold" font-size="11.00" fill="#ffffff">DSLs + builders</text>
</g>
<!-- title&#45;&gt;dsl -->
<g id="edge11" class="edge">
<title>title&#45;&gt;dsl</title>
<path fill="none" stroke="#ff9800" stroke-width="2" d="M1461.12,-212.38C1461.12,-212.38 1461.12,-167.92 1461.12,-167.92"/>
<polygon fill="#ff9800" stroke="#ff9800" stroke-width="2" points="1464.63,-167.92 1461.13,-157.92 1457.63,-167.92 1464.63,-167.92"/>
</g>
<!-- gen -->
<g id="node17" class="node">
<title>gen</title>
<path fill="#2196f3" stroke="black" d="M1990.88,-154.5C1990.88,-154.5 1895.38,-154.5 1895.38,-154.5 1889.38,-154.5 1883.38,-148.5 1883.38,-142.5 1883.38,-142.5 1883.38,-130.5 1883.38,-130.5 1883.38,-124.5 1889.38,-118.5 1895.38,-118.5 1895.38,-118.5 1990.88,-118.5 1990.88,-118.5 1996.88,-118.5 2002.88,-124.5 2002.88,-130.5 2002.88,-130.5 2002.88,-142.5 2002.88,-142.5 2002.88,-148.5 1996.88,-154.5 1990.88,-154.5"/>
<text xml:space="preserve" text-anchor="middle" x="1943.12" y="-132.8" font-family="Arial Bold" font-size="11.00" fill="#ffffff">Generics + variance</text>
</g>
<!-- title&#45;&gt;gen -->
<g id="edge16" class="edge">
<title>title&#45;&gt;gen</title>
<path fill="none" stroke="#9c27b0" stroke-width="2" d="M1529.69,-212.06C1529.69,-187.06 1529.69,-145.5 1529.69,-145.5 1529.69,-145.5 1869.98,-145.5 1869.98,-145.5"/>
<polygon fill="#9c27b0" stroke="#9c27b0" stroke-width="2" points="1869.98,-149 1879.98,-145.5 1869.98,-142 1869.98,-149"/>
</g>
<!-- col -->
<g id="node22" class="node">
<title>col</title>
<path fill="#2196f3" stroke="black" d="M2587.88,-154.5C2587.88,-154.5 2504.38,-154.5 2504.38,-154.5 2498.38,-154.5 2492.38,-148.5 2492.38,-142.5 2492.38,-142.5 2492.38,-130.5 2492.38,-130.5 2492.38,-124.5 2498.38,-118.5 2504.38,-118.5 2504.38,-118.5 2587.88,-118.5 2587.88,-118.5 2593.88,-118.5 2599.88,-124.5 2599.88,-130.5 2599.88,-130.5 2599.88,-142.5 2599.88,-142.5 2599.88,-148.5 2593.88,-154.5 2587.88,-154.5"/>
<text xml:space="preserve" text-anchor="middle" x="2546.12" y="-132.8" font-family="Arial Bold" font-size="11.00" fill="#ffffff">Collections + ops</text>
</g>
<!-- title&#45;&gt;col -->
<g id="edge21" class="edge">
<title>title&#45;&gt;col</title>
<path fill="none" stroke="#f44336" stroke-width="2" d="M1548.54,-230.5C1806.42,-230.5 2546.12,-230.5 2546.12,-230.5 2546.12,-230.5 2546.12,-167.65 2546.12,-167.65"/>
<polygon fill="#f44336" stroke="#f44336" stroke-width="2" points="2549.63,-167.65 2546.13,-157.65 2542.63,-167.65 2549.63,-167.65"/>
</g>
<!-- ext_0 -->
<g id="node3" class="node">
<title>ext_0</title>
<path fill="#bbdefb" stroke="black" d="M144.25,-60.5C144.25,-60.5 12,-60.5 12,-60.5 6,-60.5 0,-54.5 0,-48.5 0,-48.5 0,-36.5 0,-36.5 0,-30.5 6,-24.5 12,-24.5 12,-24.5 144.25,-24.5 144.25,-24.5 150.25,-24.5 156.25,-30.5 156.25,-36.5 156.25,-36.5 156.25,-48.5 156.25,-48.5 156.25,-54.5 150.25,-60.5 144.25,-60.5"/>
<text xml:space="preserve" text-anchor="middle" x="78.12" y="-39" font-family="Arial" font-size="10.00" fill="#1a1a2e">fun String.shout() = upperCase()</text>
</g>
<!-- ext&#45;&gt;ext_0 -->
<g id="edge2" class="edge">
<title>ext&#45;&gt;ext_0</title>
<path fill="none" stroke="#4caf50" stroke-width="1.5" d="M352.46,-142.5C255.92,-142.5 78.12,-142.5 78.12,-142.5 78.12,-142.5 78.12,-73.11 78.12,-73.11"/>
<polygon fill="#4caf50" stroke="#4caf50" stroke-width="1.5" points="81.63,-73.11 78.13,-63.11 74.63,-73.11 81.63,-73.11"/>
</g>
<!-- ext_1 -->
<g id="node4" class="node">
<title>ext_1</title>
<path fill="#bbdefb" stroke="black" d="M309.75,-60.5C309.75,-60.5 204.5,-60.5 204.5,-60.5 198.5,-60.5 192.5,-54.5 192.5,-48.5 192.5,-48.5 192.5,-36.5 192.5,-36.5 192.5,-30.5 198.5,-24.5 204.5,-24.5 204.5,-24.5 309.75,-24.5 309.75,-24.5 315.75,-24.5 321.75,-30.5 321.75,-36.5 321.75,-36.5 321.75,-48.5 321.75,-48.5 321.75,-54.5 315.75,-60.5 309.75,-60.5"/>
<text xml:space="preserve" text-anchor="middle" x="257.12" y="-39" font-family="Arial" font-size="10.00" fill="#1a1a2e">adds methods to any type</text>
</g>
<!-- ext&#45;&gt;ext_1 -->
<g id="edge3" class="edge">
<title>ext&#45;&gt;ext_1</title>
<path fill="none" stroke="#4caf50" stroke-width="1.5" d="M352.36,-130.5C308.56,-130.5 257.12,-130.5 257.12,-130.5 257.12,-130.5 257.12,-73 257.12,-73"/>
<polygon fill="#4caf50" stroke="#4caf50" stroke-width="1.5" points="260.63,-73 257.13,-63 253.63,-73 260.63,-73"/>
</g>
<!-- ext_2 -->
<g id="node5" class="node">
<title>ext_2</title>
<path fill="#bbdefb" stroke="black" d="M456.75,-60.5C456.75,-60.5 369.5,-60.5 369.5,-60.5 363.5,-60.5 357.5,-54.5 357.5,-48.5 357.5,-48.5 357.5,-36.5 357.5,-36.5 357.5,-30.5 363.5,-24.5 369.5,-24.5 369.5,-24.5 456.75,-24.5 456.75,-24.5 462.75,-24.5 468.75,-30.5 468.75,-36.5 468.75,-36.5 468.75,-48.5 468.75,-48.5 468.75,-54.5 462.75,-60.5 456.75,-60.5"/>
<text xml:space="preserve" text-anchor="middle" x="413.12" y="-39" font-family="Arial" font-size="10.00" fill="#1a1a2e">no inheritance needed</text>
</g>
<!-- ext&#45;&gt;ext_2 -->
<g id="edge4" class="edge">
<title>ext&#45;&gt;ext_2</title>
<path fill="none" stroke="#4caf50" stroke-width="1.5" d="M413.12,-118.38C413.12,-118.38 413.12,-73.16 413.12,-73.16"/>
<polygon fill="#4caf50" stroke="#4caf50" stroke-width="1.5" points="416.63,-73.16 413.13,-63.16 409.63,-73.16 416.63,-73.16"/>
</g>
<!-- ext_3 -->
<g id="node6" class="node">
<title>ext_3</title>
<path fill="#bbdefb" stroke="black" d="M557.12,-60.5C557.12,-60.5 517.12,-60.5 517.12,-60.5 511.12,-60.5 505.12,-54.5 505.12,-48.5 505.12,-48.5 505.12,-36.5 505.12,-36.5 505.12,-30.5 511.12,-24.5 517.12,-24.5 517.12,-24.5 557.12,-24.5 557.12,-24.5 563.12,-24.5 569.12,-30.5 569.12,-36.5 569.12,-36.5 569.12,-48.5 569.12,-48.5 569.12,-54.5 563.12,-60.5 557.12,-60.5"/>
<text xml:space="preserve" text-anchor="middle" x="537.12" y="-39" font-family="Arial" font-size="10.00" fill="#1a1a2e">build DSLs</text>
</g>
<!-- ext&#45;&gt;ext_3 -->
<g id="edge5" class="edge">
<title>ext&#45;&gt;ext_3</title>
<path fill="none" stroke="#4caf50" stroke-width="1.5" d="M474.04,-127.5C505.39,-127.5 537.12,-127.5 537.12,-127.5 537.12,-127.5 537.12,-73.21 537.12,-73.21"/>
<polygon fill="#4caf50" stroke="#4caf50" stroke-width="1.5" points="540.63,-73.21 537.13,-63.21 533.63,-73.21 540.63,-73.21"/>
</g>
<!-- scope_0 -->
<g id="node8" class="node">
<title>scope_0</title>
<path fill="#bbdefb" stroke="black" d="M704.75,-60.5C704.75,-60.5 617.5,-60.5 617.5,-60.5 611.5,-60.5 605.5,-54.5 605.5,-48.5 605.5,-48.5 605.5,-36.5 605.5,-36.5 605.5,-30.5 611.5,-24.5 617.5,-24.5 617.5,-24.5 704.75,-24.5 704.75,-24.5 710.75,-24.5 716.75,-30.5 716.75,-36.5 716.75,-36.5 716.75,-48.5 716.75,-48.5 716.75,-54.5 710.75,-60.5 704.75,-60.5"/>
<text xml:space="preserve" text-anchor="middle" x="661.12" y="-39" font-family="Arial" font-size="10.00" fill="#1a1a2e">let/run/apply/also/with</text>
</g>
<!-- scope&#45;&gt;scope_0 -->
<g id="edge7" class="edge">
<title>scope&#45;&gt;scope_0</title>
<path fill="none" stroke="#00bcd4" stroke-width="1.5" d="M895.99,-145.5C813.73,-145.5 661.12,-145.5 661.12,-145.5 661.12,-145.5 661.12,-73.18 661.12,-73.18"/>
<polygon fill="#00bcd4" stroke="#00bcd4" stroke-width="1.5" points="664.63,-73.18 661.13,-63.18 657.63,-73.18 664.63,-73.18"/>
</g>
<!-- scope_1 -->
<g id="node9" class="node">
<title>scope_1</title>
<path fill="#bbdefb" stroke="black" d="M853.88,-60.5C853.88,-60.5 764.38,-60.5 764.38,-60.5 758.38,-60.5 752.38,-54.5 752.38,-48.5 752.38,-48.5 752.38,-36.5 752.38,-36.5 752.38,-30.5 758.38,-24.5 764.38,-24.5 764.38,-24.5 853.88,-24.5 853.88,-24.5 859.88,-24.5 865.88,-30.5 865.88,-36.5 865.88,-36.5 865.88,-48.5 865.88,-48.5 865.88,-54.5 859.88,-60.5 853.88,-60.5"/>
<text xml:space="preserve" text-anchor="middle" x="809.12" y="-39" font-family="Arial" font-size="10.00" fill="#1a1a2e">context object: it / this</text>
</g>
<!-- scope&#45;&gt;scope_1 -->
<g id="edge8" class="edge">
<title>scope&#45;&gt;scope_1</title>
<path fill="none" stroke="#00bcd4" stroke-width="1.5" d="M896.13,-136.5C856.82,-136.5 809.12,-136.5 809.12,-136.5 809.12,-136.5 809.12,-72.89 809.12,-72.89"/>
<polygon fill="#00bcd4" stroke="#00bcd4" stroke-width="1.5" points="812.63,-72.89 809.13,-62.89 805.63,-72.89 812.63,-72.89"/>
</g>
<!-- scope_2 -->
<g id="node10" class="node">
<title>scope_2</title>
<path fill="#bbdefb" stroke="black" d="M980.25,-60.5C980.25,-60.5 914,-60.5 914,-60.5 908,-60.5 902,-54.5 902,-48.5 902,-48.5 902,-36.5 902,-36.5 902,-30.5 908,-24.5 914,-24.5 914,-24.5 980.25,-24.5 980.25,-24.5 986.25,-24.5 992.25,-30.5 992.25,-36.5 992.25,-36.5 992.25,-48.5 992.25,-48.5 992.25,-54.5 986.25,-60.5 980.25,-60.5"/>
<text xml:space="preserve" text-anchor="middle" x="947.12" y="-39" font-family="Arial" font-size="10.00" fill="#1a1a2e">apply for builders</text>
</g>
<!-- scope&#45;&gt;scope_2 -->
<g id="edge9" class="edge">
<title>scope&#45;&gt;scope_2</title>
<path fill="none" stroke="#00bcd4" stroke-width="1.5" d="M947.12,-118.38C947.12,-118.38 947.12,-73.16 947.12,-73.16"/>
<polygon fill="#00bcd4" stroke="#00bcd4" stroke-width="1.5" points="950.63,-73.16 947.13,-63.16 943.63,-73.16 950.63,-73.16"/>
</g>
<!-- scope_3 -->
<g id="node11" class="node">
<title>scope_3</title>
<path fill="#bbdefb" stroke="black" d="M1117.88,-60.5C1117.88,-60.5 1040.38,-60.5 1040.38,-60.5 1034.38,-60.5 1028.38,-54.5 1028.38,-48.5 1028.38,-48.5 1028.38,-36.5 1028.38,-36.5 1028.38,-30.5 1034.38,-24.5 1040.38,-24.5 1040.38,-24.5 1117.88,-24.5 1117.88,-24.5 1123.88,-24.5 1129.88,-30.5 1129.88,-36.5 1129.88,-36.5 1129.88,-48.5 1129.88,-48.5 1129.88,-54.5 1123.88,-60.5 1117.88,-60.5"/>
<text xml:space="preserve" text-anchor="middle" x="1079.12" y="-39" font-family="Arial" font-size="10.00" fill="#1a1a2e">also for side effects</text>
</g>
<!-- scope&#45;&gt;scope_3 -->
<g id="edge10" class="edge">
<title>scope&#45;&gt;scope_3</title>
<path fill="none" stroke="#00bcd4" stroke-width="1.5" d="M998.16,-127.5C1035.3,-127.5 1079.12,-127.5 1079.12,-127.5 1079.12,-127.5 1079.12,-73.21 1079.12,-73.21"/>
<polygon fill="#00bcd4" stroke="#00bcd4" stroke-width="1.5" points="1082.63,-73.21 1079.13,-63.21 1075.63,-73.21 1082.63,-73.21"/>
</g>
<!-- dsl_0 -->
<g id="node13" class="node">
<title>dsl_0</title>
<path fill="#bbdefb" stroke="black" d="M1297.88,-60.5C1297.88,-60.5 1178.38,-60.5 1178.38,-60.5 1172.38,-60.5 1166.38,-54.5 1166.38,-48.5 1166.38,-48.5 1166.38,-36.5 1166.38,-36.5 1166.38,-30.5 1172.38,-24.5 1178.38,-24.5 1178.38,-24.5 1297.88,-24.5 1297.88,-24.5 1303.88,-24.5 1309.88,-30.5 1309.88,-36.5 1309.88,-36.5 1309.88,-48.5 1309.88,-48.5 1309.88,-54.5 1303.88,-60.5 1297.88,-60.5"/>
<text xml:space="preserve" text-anchor="middle" x="1238.12" y="-39" font-family="Arial" font-size="10.00" fill="#1a1a2e">fun html(block: Html.()&#45;&gt;Unit)</text>
</g>
<!-- dsl&#45;&gt;dsl_0 -->
<g id="edge12" class="edge">
<title>dsl&#45;&gt;dsl_0</title>
<path fill="none" stroke="#ff9800" stroke-width="1.5" d="M1410.8,-136.5C1345.03,-136.5 1238.12,-136.5 1238.12,-136.5 1238.12,-136.5 1238.12,-72.89 1238.12,-72.89"/>
<polygon fill="#ff9800" stroke="#ff9800" stroke-width="1.5" points="1241.63,-72.89 1238.13,-62.89 1234.63,-72.89 1241.63,-72.89"/>
</g>
<!-- dsl_1 -->
<g id="node14" class="node">
<title>dsl_1</title>
<path fill="#bbdefb" stroke="black" d="M1426.75,-60.5C1426.75,-60.5 1357.5,-60.5 1357.5,-60.5 1351.5,-60.5 1345.5,-54.5 1345.5,-48.5 1345.5,-48.5 1345.5,-36.5 1345.5,-36.5 1345.5,-30.5 1351.5,-24.5 1357.5,-24.5 1357.5,-24.5 1426.75,-24.5 1426.75,-24.5 1432.75,-24.5 1438.75,-30.5 1438.75,-36.5 1438.75,-36.5 1438.75,-48.5 1438.75,-48.5 1438.75,-54.5 1432.75,-60.5 1426.75,-60.5"/>
<text xml:space="preserve" text-anchor="middle" x="1392.12" y="-39" font-family="Arial" font-size="10.00" fill="#1a1a2e">type&#45;safe builders</text>
</g>
<!-- dsl&#45;&gt;dsl_1 -->
<g id="edge13" class="edge">
<title>dsl&#45;&gt;dsl_1</title>
<path fill="none" stroke="#ff9800" stroke-width="1.5" d="M1424.94,-118.38C1424.94,-118.38 1424.94,-73.16 1424.94,-73.16"/>
<polygon fill="#ff9800" stroke="#ff9800" stroke-width="1.5" points="1428.44,-73.16 1424.94,-63.16 1421.44,-73.16 1428.44,-73.16"/>
</g>
<!-- dsl_2 -->
<g id="node15" class="node">
<title>dsl_2</title>
<path fill="#bbdefb" stroke="black" d="M1573.75,-60.5C1573.75,-60.5 1486.5,-60.5 1486.5,-60.5 1480.5,-60.5 1474.5,-54.5 1474.5,-48.5 1474.5,-48.5 1474.5,-36.5 1474.5,-36.5 1474.5,-30.5 1480.5,-24.5 1486.5,-24.5 1486.5,-24.5 1573.75,-24.5 1573.75,-24.5 1579.75,-24.5 1585.75,-30.5 1585.75,-36.5 1585.75,-36.5 1585.75,-48.5 1585.75,-48.5 1585.75,-54.5 1579.75,-60.5 1573.75,-60.5"/>
<text xml:space="preserve" text-anchor="middle" x="1530.12" y="-39" font-family="Arial" font-size="10.00" fill="#1a1a2e">@DslMarker no leaks</text>
</g>
<!-- dsl&#45;&gt;dsl_2 -->
<g id="edge14" class="edge">
<title>dsl&#45;&gt;dsl_2</title>
<path fill="none" stroke="#ff9800" stroke-width="1.5" d="M1492.81,-118.38C1492.81,-118.38 1492.81,-73.16 1492.81,-73.16"/>
<polygon fill="#ff9800" stroke="#ff9800" stroke-width="1.5" points="1496.31,-73.16 1492.81,-63.16 1489.31,-73.16 1496.31,-73.16"/>
</g>
<!-- dsl_3 -->
<g id="node16" class="node">
<title>dsl_3</title>
<path fill="#bbdefb" stroke="black" d="M1722.12,-60.5C1722.12,-60.5 1634.12,-60.5 1634.12,-60.5 1628.12,-60.5 1622.12,-54.5 1622.12,-48.5 1622.12,-48.5 1622.12,-36.5 1622.12,-36.5 1622.12,-30.5 1628.12,-24.5 1634.12,-24.5 1634.12,-24.5 1722.12,-24.5 1722.12,-24.5 1728.12,-24.5 1734.12,-30.5 1734.12,-36.5 1734.12,-36.5 1734.12,-48.5 1734.12,-48.5 1734.12,-54.5 1728.12,-60.5 1722.12,-60.5"/>
<text xml:space="preserve" text-anchor="middle" x="1678.12" y="-39" font-family="Arial" font-size="10.00" fill="#1a1a2e">trailing lambda pattern</text>
</g>
<!-- dsl&#45;&gt;dsl_3 -->
<g id="edge15" class="edge">
<title>dsl&#45;&gt;dsl_3</title>
<path fill="none" stroke="#ff9800" stroke-width="1.5" d="M1511.45,-136.5C1575.56,-136.5 1678.12,-136.5 1678.12,-136.5 1678.12,-136.5 1678.12,-72.89 1678.12,-72.89"/>
<polygon fill="#ff9800" stroke="#ff9800" stroke-width="1.5" points="1681.63,-72.89 1678.13,-62.89 1674.63,-72.89 1681.63,-72.89"/>
</g>
<!-- gen_0 -->
<g id="node18" class="node">
<title>gen_0</title>
<path fill="#bbdefb" stroke="black" d="M1835.88,-60.5C1835.88,-60.5 1782.38,-60.5 1782.38,-60.5 1776.38,-60.5 1770.38,-54.5 1770.38,-48.5 1770.38,-48.5 1770.38,-36.5 1770.38,-36.5 1770.38,-30.5 1776.38,-24.5 1782.38,-24.5 1782.38,-24.5 1835.88,-24.5 1835.88,-24.5 1841.88,-24.5 1847.88,-30.5 1847.88,-36.5 1847.88,-36.5 1847.88,-48.5 1847.88,-48.5 1847.88,-54.5 1841.88,-60.5 1835.88,-60.5"/>
<text xml:space="preserve" text-anchor="middle" x="1809.12" y="-39" font-family="Arial" font-size="10.00" fill="#1a1a2e">class Box&lt;T&gt;</text>
</g>
<!-- gen&#45;&gt;gen_0 -->
<g id="edge17" class="edge">
<title>gen&#45;&gt;gen_0</title>
<path fill="none" stroke="#9c27b0" stroke-width="1.5" d="M1883.18,-127.5C1847.5,-127.5 1809.12,-127.5 1809.12,-127.5 1809.12,-127.5 1809.12,-73.21 1809.12,-73.21"/>
<polygon fill="#9c27b0" stroke="#9c27b0" stroke-width="1.5" points="1812.63,-73.21 1809.13,-63.21 1805.63,-73.21 1812.63,-73.21"/>
</g>
<!-- gen_1 -->
<g id="node19" class="node">
<title>gen_1</title>
<path fill="#bbdefb" stroke="black" d="M1990.5,-60.5C1990.5,-60.5 1895.75,-60.5 1895.75,-60.5 1889.75,-60.5 1883.75,-54.5 1883.75,-48.5 1883.75,-48.5 1883.75,-36.5 1883.75,-36.5 1883.75,-30.5 1889.75,-24.5 1895.75,-24.5 1895.75,-24.5 1990.5,-24.5 1990.5,-24.5 1996.5,-24.5 2002.5,-30.5 2002.5,-36.5 2002.5,-36.5 2002.5,-48.5 2002.5,-48.5 2002.5,-54.5 1996.5,-60.5 1990.5,-60.5"/>
<text xml:space="preserve" text-anchor="middle" x="1943.12" y="-39" font-family="Arial" font-size="10.00" fill="#1a1a2e">out (covariant producer)</text>
</g>
<!-- gen&#45;&gt;gen_1 -->
<g id="edge18" class="edge">
<title>gen&#45;&gt;gen_1</title>
<path fill="none" stroke="#9c27b0" stroke-width="1.5" d="M1943.12,-118.38C1943.12,-118.38 1943.12,-73.16 1943.12,-73.16"/>
<polygon fill="#9c27b0" stroke="#9c27b0" stroke-width="1.5" points="1946.63,-73.16 1943.13,-63.16 1939.63,-73.16 1946.63,-73.16"/>
</g>
<!-- gen_2 -->
<g id="node20" class="node">
<title>gen_2</title>
<path fill="#bbdefb" stroke="black" d="M2161.38,-60.5C2161.38,-60.5 2050.88,-60.5 2050.88,-60.5 2044.88,-60.5 2038.88,-54.5 2038.88,-48.5 2038.88,-48.5 2038.88,-36.5 2038.88,-36.5 2038.88,-30.5 2044.88,-24.5 2050.88,-24.5 2050.88,-24.5 2161.38,-24.5 2161.38,-24.5 2167.38,-24.5 2173.38,-30.5 2173.38,-36.5 2173.38,-36.5 2173.38,-48.5 2173.38,-48.5 2173.38,-54.5 2167.38,-60.5 2161.38,-60.5"/>
<text xml:space="preserve" text-anchor="middle" x="2106.12" y="-39" font-family="Arial" font-size="10.00" fill="#1a1a2e">in (contravariant consumer)</text>
</g>
<!-- gen&#45;&gt;gen_2 -->
<g id="edge19" class="edge">
<title>gen&#45;&gt;gen_2</title>
<path fill="none" stroke="#9c27b0" stroke-width="1.5" d="M2003.36,-136.5C2049.79,-136.5 2106.12,-136.5 2106.12,-136.5 2106.12,-136.5 2106.12,-72.89 2106.12,-72.89"/>
<polygon fill="#9c27b0" stroke="#9c27b0" stroke-width="1.5" points="2109.63,-72.89 2106.13,-62.89 2102.63,-72.89 2109.63,-72.89"/>
</g>
<!-- gen_3 -->
<g id="node21" class="node">
<title>gen_3</title>
<path fill="#bbdefb" stroke="black" d="M2288.62,-60.5C2288.62,-60.5 2221.62,-60.5 2221.62,-60.5 2215.62,-60.5 2209.62,-54.5 2209.62,-48.5 2209.62,-48.5 2209.62,-36.5 2209.62,-36.5 2209.62,-30.5 2215.62,-24.5 2221.62,-24.5 2221.62,-24.5 2288.62,-24.5 2288.62,-24.5 2294.62,-24.5 2300.62,-30.5 2300.62,-36.5 2300.62,-36.5 2300.62,-48.5 2300.62,-48.5 2300.62,-54.5 2294.62,-60.5 2288.62,-60.5"/>
<text xml:space="preserve" text-anchor="middle" x="2255.12" y="-39" font-family="Arial" font-size="10.00" fill="#1a1a2e">reified (inline + T)</text>
</g>
<!-- gen&#45;&gt;gen_3 -->
<g id="edge20" class="edge">
<title>gen&#45;&gt;gen_3</title>
<path fill="none" stroke="#9c27b0" stroke-width="1.5" d="M2003.28,-145.5C2093.95,-145.5 2255.12,-145.5 2255.12,-145.5 2255.12,-145.5 2255.12,-73.18 2255.12,-73.18"/>
<polygon fill="#9c27b0" stroke="#9c27b0" stroke-width="1.5" points="2258.63,-73.18 2255.13,-63.18 2251.63,-73.18 2258.63,-73.18"/>
</g>
<!-- col_0 -->
<g id="node23" class="node">
<title>col_0</title>
<path fill="#bbdefb" stroke="black" d="M2429.38,-60.5C2429.38,-60.5 2348.88,-60.5 2348.88,-60.5 2342.88,-60.5 2336.88,-54.5 2336.88,-48.5 2336.88,-48.5 2336.88,-36.5 2336.88,-36.5 2336.88,-30.5 2342.88,-24.5 2348.88,-24.5 2348.88,-24.5 2429.38,-24.5 2429.38,-24.5 2435.38,-24.5 2441.38,-30.5 2441.38,-36.5 2441.38,-36.5 2441.38,-48.5 2441.38,-48.5 2441.38,-54.5 2435.38,-60.5 2429.38,-60.5"/>
<text xml:space="preserve" text-anchor="middle" x="2389.12" y="-39" font-family="Arial" font-size="10.00" fill="#1a1a2e">listOf, mapOf, setOf</text>
</g>
<!-- col&#45;&gt;col_0 -->
<g id="edge22" class="edge">
<title>col&#45;&gt;col_0</title>
<path fill="none" stroke="#f44336" stroke-width="1.5" d="M2492.09,-127.5C2446.68,-127.5 2389.12,-127.5 2389.12,-127.5 2389.12,-127.5 2389.12,-73.21 2389.12,-73.21"/>
<polygon fill="#f44336" stroke="#f44336" stroke-width="1.5" points="2392.63,-73.21 2389.13,-63.21 2385.63,-73.21 2392.63,-73.21"/>
</g>
<!-- col_1 -->
<g id="node24" class="node">
<title>col_1</title>
<path fill="#bbdefb" stroke="black" d="M2602.88,-60.5C2602.88,-60.5 2489.38,-60.5 2489.38,-60.5 2483.38,-60.5 2477.38,-54.5 2477.38,-48.5 2477.38,-48.5 2477.38,-36.5 2477.38,-36.5 2477.38,-30.5 2483.38,-24.5 2489.38,-24.5 2489.38,-24.5 2602.88,-24.5 2602.88,-24.5 2608.88,-24.5 2614.88,-30.5 2614.88,-36.5 2614.88,-36.5 2614.88,-48.5 2614.88,-48.5 2614.88,-54.5 2608.88,-60.5 2602.88,-60.5"/>
<text xml:space="preserve" text-anchor="middle" x="2546.12" y="-39" font-family="Arial" font-size="10.00" fill="#1a1a2e">map/filter/groupBy/sortedBy</text>
</g>
<!-- col&#45;&gt;col_1 -->
<g id="edge23" class="edge">
<title>col&#45;&gt;col_1</title>
<path fill="none" stroke="#f44336" stroke-width="1.5" d="M2546.12,-118.38C2546.12,-118.38 2546.12,-73.16 2546.12,-73.16"/>
<polygon fill="#f44336" stroke="#f44336" stroke-width="1.5" points="2549.63,-73.16 2546.13,-63.16 2542.63,-73.16 2549.63,-73.16"/>
</g>
<!-- col_2 -->
<g id="node25" class="node">
<title>col_2</title>
<path fill="#bbdefb" stroke="black" d="M2779.75,-60.5C2779.75,-60.5 2662.5,-60.5 2662.5,-60.5 2656.5,-60.5 2650.5,-54.5 2650.5,-48.5 2650.5,-48.5 2650.5,-36.5 2650.5,-36.5 2650.5,-30.5 2656.5,-24.5 2662.5,-24.5 2662.5,-24.5 2779.75,-24.5 2779.75,-24.5 2785.75,-24.5 2791.75,-30.5 2791.75,-36.5 2791.75,-36.5 2791.75,-48.5 2791.75,-48.5 2791.75,-54.5 2785.75,-60.5 2779.75,-60.5"/>
<text xml:space="preserve" text-anchor="middle" x="2721.12" y="-39" font-family="Arial" font-size="10.00" fill="#1a1a2e">associate, partition, chunked</text>
</g>
<!-- col&#45;&gt;col_2 -->
<g id="edge24" class="edge">
<title>col&#45;&gt;col_2</title>
<path fill="none" stroke="#f44336" stroke-width="1.5" d="M2600.06,-130.5C2651.48,-130.5 2721.12,-130.5 2721.12,-130.5 2721.12,-130.5 2721.12,-73 2721.12,-73"/>
<polygon fill="#f44336" stroke="#f44336" stroke-width="1.5" points="2724.63,-73 2721.13,-63 2717.63,-73 2724.63,-73"/>
</g>
<!-- col_3 -->
<g id="node26" class="node">
<title>col_3</title>
<path fill="#bbdefb" stroke="black" d="M2952.88,-60.5C2952.88,-60.5 2839.38,-60.5 2839.38,-60.5 2833.38,-60.5 2827.38,-54.5 2827.38,-48.5 2827.38,-48.5 2827.38,-36.5 2827.38,-36.5 2827.38,-30.5 2833.38,-24.5 2839.38,-24.5 2839.38,-24.5 2952.88,-24.5 2952.88,-24.5 2958.88,-24.5 2964.88,-30.5 2964.88,-36.5 2964.88,-36.5 2964.88,-48.5 2964.88,-48.5 2964.88,-54.5 2958.88,-60.5 2952.88,-60.5"/>
<text xml:space="preserve" text-anchor="middle" x="2896.12" y="-39" font-family="Arial" font-size="10.00" fill="#1a1a2e">sequence (lazy like Stream)</text>
</g>
<!-- col&#45;&gt;col_3 -->
<g id="edge25" class="edge">
<title>col&#45;&gt;col_3</title>
<path fill="none" stroke="#f44336" stroke-width="1.5" d="M2600.05,-142.5C2698.22,-142.5 2896.12,-142.5 2896.12,-142.5 2896.12,-142.5 2896.12,-73.11 2896.12,-73.11"/>
<polygon fill="#f44336" stroke="#f44336" stroke-width="1.5" points="2899.63,-73.11 2896.13,-63.11 2892.63,-73.11 2899.63,-73.11"/>
</g>
</g>
</svg>
