<?xml version="1.0" encoding="UTF-8" standalone="no"?>
<!DOCTYPE svg PUBLIC "-//W3C//DTD SVG 1.1//EN"
 "http://www.w3.org/Graphics/SVG/1.1/DTD/svg11.dtd">
<!-- Generated by graphviz version 14.1.2 (0)
 -->
<!-- Title: GTweak_Architecture Pages: 1 -->
<svg width="3881pt" height="1528pt"
 viewBox="0.00 0.00 3881.00 1528.00" xmlns="http://www.w3.org/2000/svg" xmlns:xlink="http://www.w3.org/1999/xlink">
<g id="graph0" class="graph" transform="scale(2.08333 2.08333) rotate(0) translate(4 729.5)">
<title>GTweak_Architecture</title>
<g id="clust1" class="cluster">
<title>cluster_views</title>
<polygon fill="#e6f4ea" stroke="#34a853" stroke-width="1.5" points="8,-197.25 8,-274.5 918,-274.5 918,-197.25 8,-197.25"/>
<text xml:space="preserve" text-anchor="middle" x="463" y="-259.1" font-family="Segoe UI Bold" font-size="12.00" fill="#34a853">View Layer (9 Navigation Pages)</text>
</g>
<g id="clust2" class="cluster">
<title>cluster_viewmodels</title>
<polygon fill="#f3e8fd" stroke="#9334e6" stroke-width="1.5" points="710,-291.5 710,-368.75 1402,-368.75 1402,-291.5 710,-291.5"/>
<text xml:space="preserve" text-anchor="middle" x="1056" y="-353.35" font-family="Segoe UI Bold" font-size="12.00" fill="#9334e6">ViewModel Layer</text>
</g>
<g id="clust3" class="cluster">
<title>cluster_tweaks</title>
<polygon fill="#fef7e0" stroke="#fbbc04" stroke-width="1.5" points="945,-197 945,-274.75 1847,-274.75 1847,-197 945,-197"/>
<text xml:space="preserve" text-anchor="middle" x="1396" y="-259.35" font-family="Segoe UI Bold" font-size="12.00" fill="#fbbc04">Tweak Engine (Registry + System Modifications)</text>
</g>
<g id="clust4" class="cluster">
<title>cluster_helpers</title>
<polygon fill="#fce8e6" stroke="#ea4335" stroke-width="1.5" points="750,-102.5 750,-180.25 1627,-180.25 1627,-102.5 750,-102.5"/>
<text xml:space="preserve" text-anchor="middle" x="1188.5" y="-164.85" font-family="Segoe UI Bold" font-size="12.00" fill="#ea4335">System Helpers &amp; Managers</text>
</g>
<g id="clust5" class="cluster">
<title>cluster_resources</title>
<polygon fill="#e8eaed" stroke="#5f6368" stroke-width="1.5" points="1242,-8 1242,-85.75 1751,-85.75 1751,-8 1242,-8"/>
<text xml:space="preserve" text-anchor="middle" x="1496.5" y="-70.35" font-family="Segoe UI Bold" font-size="12.00" fill="#5f6368">Embedded Resources</text>
</g>
<!-- title -->
<g id="node1" class="node">
<title>title</title>
<text xml:space="preserve" text-anchor="middle" x="771" y="-700.6" font-family="Segoe UI Bold" font-size="22.00" fill="#1a73e8">GTweak Architecture</text>
</g>
<!-- app -->
<g id="node2" class="node">
<title>app</title>
<polygon fill="#e8f0fe" stroke="#4285f4" stroke-width="2" points="843.12,-629.5 698.88,-629.5 698.88,-585.5 843.12,-585.5 843.12,-629.5"/>
<text xml:space="preserve" text-anchor="middle" x="771" y="-613.15" font-family="Segoe UI Bold" font-size="13.00">GTweak.exe</text>
<text xml:space="preserve" text-anchor="middle" x="771" y="-595.15" font-family="Segoe UI Bold" font-size="13.00">(Portable Single&#45;File)</text>
</g>
<!-- title&#45;&gt;app -->
<!-- wpf -->
<g id="node3" class="node">
<title>wpf</title>
<polygon fill="#e6f4ea" stroke="#34a853" stroke-width="1.5" points="858.12,-527.5 683.88,-527.5 683.88,-489.5 858.12,-489.5 858.12,-527.5"/>
<text xml:space="preserve" text-anchor="middle" x="771" y="-513.05" font-family="Segoe UI" font-size="11.00">WPF&#45;UI Framework</text>
<text xml:space="preserve" text-anchor="middle" x="771" y="-498.05" font-family="Segoe UI" font-size="11.00">(Mica Backdrop + Fluent Design)</text>
</g>
<!-- app&#45;&gt;wpf -->
<g id="edge2" class="edge">
<title>app&#45;&gt;wpf</title>
<path fill="none" stroke="black" d="M771,-584.54C771,-584.54 771,-539.51 771,-539.51"/>
<polygon fill="black" stroke="black" points="774.5,-539.51 771,-529.51 767.5,-539.51 774.5,-539.51"/>
</g>
<!-- mvvm -->
<g id="node4" class="node">
<title>mvvm</title>
<polygon fill="#f3e8fd" stroke="#9334e6" stroke-width="1.5" points="866,-431.5 676,-431.5 676,-393.5 866,-393.5 866,-431.5"/>
<text xml:space="preserve" text-anchor="middle" x="771" y="-417.05" font-family="Segoe UI" font-size="11.00">MVVM Pattern</text>
<text xml:space="preserve" text-anchor="middle" x="771" y="-402.05" font-family="Segoe UI" font-size="11.00">(ViewModelBase + RelayCommand)</text>
</g>
<!-- wpf&#45;&gt;mvvm -->
<g id="edge3" class="edge">
<title>wpf&#45;&gt;mvvm</title>
<path fill="none" stroke="black" d="M771,-489.07C771,-489.07 771,-443.74 771,-443.74"/>
<polygon fill="black" stroke="black" points="774.5,-443.74 771,-433.74 767.5,-443.74 774.5,-443.74"/>
</g>
<!-- main_vm -->
<g id="node14" class="node">
<title>main_vm</title>
<path fill="white" stroke="#9334e6" d="M811.62,-335.5C811.62,-335.5 730.38,-335.5 730.38,-335.5 724.38,-335.5 718.38,-329.5 718.38,-323.5 718.38,-323.5 718.38,-311.5 718.38,-311.5 718.38,-305.5 724.38,-299.5 730.38,-299.5 730.38,-299.5 811.62,-299.5 811.62,-299.5 817.62,-299.5 823.62,-305.5 823.62,-311.5 823.62,-311.5 823.62,-323.5 823.62,-323.5 823.62,-329.5 817.62,-335.5 811.62,-335.5"/>
<text xml:space="preserve" text-anchor="middle" x="771" y="-315.12" font-family="Segoe UI" font-size="10.00">MainWinViewModel</text>
</g>
<!-- mvvm&#45;&gt;main_vm -->
<g id="edge4" class="edge">
<title>mvvm&#45;&gt;main_vm</title>
<path fill="none" stroke="black" d="M771,-392.82C771,-392.82 771,-347.38 771,-347.38"/>
<polygon fill="black" stroke="black" points="774.5,-347.38 771,-337.38 767.5,-347.38 774.5,-347.38"/>
</g>
<!-- utils_view -->
<g id="node5" class="node">
<title>utils_view</title>
<path fill="white" stroke="#34a853" d="M676,-241.25C676,-241.25 646,-241.25 646,-241.25 640,-241.25 634,-235.25 634,-229.25 634,-229.25 634,-217.25 634,-217.25 634,-211.25 640,-205.25 646,-205.25 646,-205.25 676,-205.25 676,-205.25 682,-205.25 688,-211.25 688,-217.25 688,-217.25 688,-229.25 688,-229.25 688,-235.25 682,-241.25 676,-241.25"/>
<text xml:space="preserve" text-anchor="middle" x="661" y="-220.88" font-family="Segoe UI" font-size="10.00">Utils</text>
</g>
<!-- conf_view -->
<g id="node6" class="node">
<title>conf_view</title>
<path fill="white" stroke="#34a853" d="M799.25,-241.25C799.25,-241.25 742.75,-241.25 742.75,-241.25 736.75,-241.25 730.75,-235.25 730.75,-229.25 730.75,-229.25 730.75,-217.25 730.75,-217.25 730.75,-211.25 736.75,-205.25 742.75,-205.25 742.75,-205.25 799.25,-205.25 799.25,-205.25 805.25,-205.25 811.25,-211.25 811.25,-217.25 811.25,-217.25 811.25,-229.25 811.25,-229.25 811.25,-235.25 805.25,-241.25 799.25,-241.25"/>
<text xml:space="preserve" text-anchor="middle" x="771" y="-220.88" font-family="Segoe UI" font-size="10.00">Confidentiality</text>
</g>
<!-- int_view -->
<g id="node7" class="node">
<title>int_view</title>
<path fill="white" stroke="#34a853" d="M897.88,-241.25C897.88,-241.25 866.12,-241.25 866.12,-241.25 860.12,-241.25 854.12,-235.25 854.12,-229.25 854.12,-229.25 854.12,-217.25 854.12,-217.25 854.12,-211.25 860.12,-205.25 866.12,-205.25 866.12,-205.25 897.88,-205.25 897.88,-205.25 903.88,-205.25 909.88,-211.25 909.88,-217.25 909.88,-217.25 909.88,-229.25 909.88,-229.25 909.88,-235.25 903.88,-241.25 897.88,-241.25"/>
<text xml:space="preserve" text-anchor="middle" x="882" y="-220.88" font-family="Segoe UI" font-size="10.00">Interface</text>
</g>
<!-- pkg_view -->
<g id="node8" class="node">
<title>pkg_view</title>
<path fill="white" stroke="#34a853" d="M75.75,-241.25C75.75,-241.25 28.25,-241.25 28.25,-241.25 22.25,-241.25 16.25,-235.25 16.25,-229.25 16.25,-229.25 16.25,-217.25 16.25,-217.25 16.25,-211.25 22.25,-205.25 28.25,-205.25 28.25,-205.25 75.75,-205.25 75.75,-205.25 81.75,-205.25 87.75,-211.25 87.75,-217.25 87.75,-217.25 87.75,-229.25 87.75,-229.25 87.75,-235.25 81.75,-241.25 75.75,-241.25"/>
<text xml:space="preserve" text-anchor="middle" x="52" y="-220.88" font-family="Segoe UI" font-size="10.00">Applications</text>
</g>
<!-- svc_view -->
<g id="node9" class="node">
<title>svc_view</title>
<path fill="white" stroke="#34a853" d="M173,-241.25C173,-241.25 143,-241.25 143,-241.25 137,-241.25 131,-235.25 131,-229.25 131,-229.25 131,-217.25 131,-217.25 131,-211.25 137,-205.25 143,-205.25 143,-205.25 173,-205.25 173,-205.25 179,-205.25 185,-211.25 185,-217.25 185,-217.25 185,-229.25 185,-229.25 185,-235.25 179,-241.25 173,-241.25"/>
<text xml:space="preserve" text-anchor="middle" x="158" y="-220.88" font-family="Segoe UI" font-size="10.00">Services</text>
</g>
<!-- sys_view -->
<g id="node10" class="node">
<title>sys_view</title>
<path fill="white" stroke="#34a853" d="M270,-241.25C270,-241.25 240,-241.25 240,-241.25 234,-241.25 228,-235.25 228,-229.25 228,-229.25 228,-217.25 228,-217.25 228,-211.25 234,-205.25 240,-205.25 240,-205.25 270,-205.25 270,-205.25 276,-205.25 282,-211.25 282,-217.25 282,-217.25 282,-229.25 282,-229.25 282,-235.25 276,-241.25 270,-241.25"/>
<text xml:space="preserve" text-anchor="middle" x="255" y="-220.88" font-family="Segoe UI" font-size="10.00">System</text>
</g>
<!-- data_view -->
<g id="node11" class="node">
<title>data_view</title>
<path fill="white" stroke="#34a853" d="M384.75,-241.25C384.75,-241.25 337.25,-241.25 337.25,-241.25 331.25,-241.25 325.25,-235.25 325.25,-229.25 325.25,-229.25 325.25,-217.25 325.25,-217.25 325.25,-211.25 331.25,-205.25 337.25,-205.25 337.25,-205.25 384.75,-205.25 384.75,-205.25 390.75,-205.25 396.75,-211.25 396.75,-217.25 396.75,-217.25 396.75,-229.25 396.75,-229.25 396.75,-235.25 390.75,-241.25 384.75,-241.25"/>
<text xml:space="preserve" text-anchor="middle" x="361" y="-220.88" font-family="Segoe UI" font-size="10.00">Data System</text>
</g>
<!-- addons_view -->
<g id="node12" class="node">
<title>addons_view</title>
<path fill="white" stroke="#34a853" d="M482,-241.25C482,-241.25 452,-241.25 452,-241.25 446,-241.25 440,-235.25 440,-229.25 440,-229.25 440,-217.25 440,-217.25 440,-211.25 446,-205.25 452,-205.25 452,-205.25 482,-205.25 482,-205.25 488,-205.25 494,-211.25 494,-217.25 494,-217.25 494,-229.25 494,-229.25 494,-235.25 488,-241.25 482,-241.25"/>
<text xml:space="preserve" text-anchor="middle" x="467" y="-220.88" font-family="Segoe UI" font-size="10.00">Addons</text>
</g>
<!-- toolset_view -->
<g id="node13" class="node">
<title>toolset_view</title>
<path fill="white" stroke="#34a853" d="M579,-241.25C579,-241.25 549,-241.25 549,-241.25 543,-241.25 537,-235.25 537,-229.25 537,-229.25 537,-217.25 537,-217.25 537,-211.25 543,-205.25 549,-205.25 549,-205.25 579,-205.25 579,-205.25 585,-205.25 591,-211.25 591,-217.25 591,-217.25 591,-229.25 591,-229.25 591,-235.25 585,-241.25 579,-241.25"/>
<text xml:space="preserve" text-anchor="middle" x="564" y="-220.88" font-family="Segoe UI" font-size="10.00">Toolset</text>
</g>
<!-- main_vm&#45;&gt;utils_view -->
<g id="edge5" class="edge">
<title>main_vm&#45;&gt;utils_view</title>
<path fill="none" stroke="#5f6368" stroke-dasharray="5,2" d="M717.94,-304C698.88,-304 682,-304 682,-304 682,-304 682,-253.09 682,-253.09"/>
<polygon fill="#5f6368" stroke="#5f6368" points="685.5,-253.09 682,-243.09 678.5,-253.09 685.5,-253.09"/>
</g>
<!-- main_vm&#45;&gt;conf_view -->
<g id="edge6" class="edge">
<title>main_vm&#45;&gt;conf_view</title>
<path fill="none" stroke="#5f6368" stroke-dasharray="5,2" d="M784.42,-299.33C784.42,-299.33 784.42,-253.2 784.42,-253.2"/>
<polygon fill="#5f6368" stroke="#5f6368" points="787.92,-253.2 784.42,-243.2 780.92,-253.2 787.92,-253.2"/>
</g>
<!-- main_vm&#45;&gt;int_view -->
<g id="edge7" class="edge">
<title>main_vm&#45;&gt;int_view</title>
<path fill="none" stroke="#5f6368" stroke-dasharray="5,2" d="M824.09,-318C843.17,-318 860.06,-318 860.06,-318 860.06,-318 860.06,-253.03 860.06,-253.03"/>
<polygon fill="#5f6368" stroke="#5f6368" points="863.56,-253.03 860.06,-243.03 856.56,-253.03 863.56,-253.03"/>
</g>
<!-- main_vm&#45;&gt;pkg_view -->
<g id="edge8" class="edge">
<title>main_vm&#45;&gt;pkg_view</title>
<path fill="none" stroke="#5f6368" stroke-dasharray="5,2" d="M718.13,-331C552.09,-331 52,-331 52,-331 52,-331 52,-253.04 52,-253.04"/>
<polygon fill="#5f6368" stroke="#5f6368" points="55.5,-253.04 52,-243.04 48.5,-253.04 55.5,-253.04"/>
</g>
<!-- main_vm&#45;&gt;svc_view -->
<g id="edge9" class="edge">
<title>main_vm&#45;&gt;svc_view</title>
<path fill="none" stroke="#5f6368" stroke-dasharray="5,2" d="M717.94,-327C569.02,-327 158,-327 158,-327 158,-327 158,-252.84 158,-252.84"/>
<polygon fill="#5f6368" stroke="#5f6368" points="161.5,-252.84 158,-242.84 154.5,-252.84 161.5,-252.84"/>
</g>
<!-- main_vm&#45;&gt;sys_view -->
<g id="edge10" class="edge">
<title>main_vm&#45;&gt;sys_view</title>
<path fill="none" stroke="#5f6368" stroke-dasharray="5,2" d="M718.2,-322C586.69,-322 255,-322 255,-322 255,-322 255,-252.88 255,-252.88"/>
<polygon fill="#5f6368" stroke="#5f6368" points="258.5,-252.88 255,-242.88 251.5,-252.88 258.5,-252.88"/>
</g>
<!-- main_vm&#45;&gt;data_view -->
<g id="edge11" class="edge">
<title>main_vm&#45;&gt;data_view</title>
<path fill="none" stroke="#5f6368" stroke-dasharray="5,2" d="M718.24,-318C607.5,-318 361,-318 361,-318 361,-318 361,-253.03 361,-253.03"/>
<polygon fill="#5f6368" stroke="#5f6368" points="364.5,-253.03 361,-243.03 357.5,-253.03 364.5,-253.03"/>
</g>
<!-- main_vm&#45;&gt;addons_view -->
<g id="edge12" class="edge">
<title>main_vm&#45;&gt;addons_view</title>
<path fill="none" stroke="#5f6368" stroke-dasharray="5,2" d="M718.05,-313C630.95,-313 467,-313 467,-313 467,-313 467,-252.93 467,-252.93"/>
<polygon fill="#5f6368" stroke="#5f6368" points="470.5,-252.93 467,-242.93 463.5,-252.93 470.5,-252.93"/>
</g>
<!-- main_vm&#45;&gt;toolset_view -->
<g id="edge13" class="edge">
<title>main_vm&#45;&gt;toolset_view</title>
<path fill="none" stroke="#5f6368" stroke-dasharray="5,2" d="M717.96,-309C656.63,-309 564,-309 564,-309 564,-309 564,-252.95 564,-252.95"/>
<polygon fill="#5f6368" stroke="#5f6368" points="567.5,-252.95 564,-242.95 560.5,-252.95 567.5,-252.95"/>
</g>
<!-- conf_tweak -->
<g id="node19" class="node">
<title>conf_tweak</title>
<path fill="white" stroke="#fbbc04" d="M1389.38,-241.5C1389.38,-241.5 1300.62,-241.5 1300.62,-241.5 1294.62,-241.5 1288.62,-235.5 1288.62,-229.5 1288.62,-229.5 1288.62,-217 1288.62,-217 1288.62,-211 1294.62,-205 1300.62,-205 1300.62,-205 1389.38,-205 1389.38,-205 1395.38,-205 1401.38,-211 1401.38,-217 1401.38,-217 1401.38,-229.5 1401.38,-229.5 1401.38,-235.5 1395.38,-241.5 1389.38,-241.5"/>
<text xml:space="preserve" text-anchor="middle" x="1345" y="-228" font-family="Segoe UI" font-size="10.00">ConfidentialityTweaks</text>
<text xml:space="preserve" text-anchor="middle" x="1345" y="-213.75" font-family="Segoe UI" font-size="10.00">(Privacy + Telemetry)</text>
</g>
<!-- main_vm&#45;&gt;conf_tweak -->
<g id="edge14" class="edge">
<title>main_vm&#45;&gt;conf_tweak</title>
<path fill="none" stroke="#fbbc04" d="M817.44,-299.2C817.44,-284.4 817.44,-266 817.44,-266 817.44,-266 1341.12,-266 1341.12,-266 1341.12,-266 1341.12,-253.14 1341.12,-253.14"/>
<polygon fill="#fbbc04" stroke="#fbbc04" points="1344.63,-253.14 1341.13,-243.14 1337.63,-253.14 1344.63,-253.14"/>
</g>
<!-- sys_tweak -->
<g id="node20" class="node">
<title>sys_tweak</title>
<path fill="white" stroke="#fbbc04" d="M1075.25,-241.5C1075.25,-241.5 964.75,-241.5 964.75,-241.5 958.75,-241.5 952.75,-235.5 952.75,-229.5 952.75,-229.5 952.75,-217 952.75,-217 952.75,-211 958.75,-205 964.75,-205 964.75,-205 1075.25,-205 1075.25,-205 1081.25,-205 1087.25,-211 1087.25,-217 1087.25,-217 1087.25,-229.5 1087.25,-229.5 1087.25,-235.5 1081.25,-241.5 1075.25,-241.5"/>
<text xml:space="preserve" text-anchor="middle" x="1020" y="-228" font-family="Segoe UI" font-size="10.00">SystemTweaks</text>
<text xml:space="preserve" text-anchor="middle" x="1020" y="-213.75" font-family="Segoe UI" font-size="10.00">(Performance + Hardware)</text>
</g>
<!-- main_vm&#45;&gt;sys_tweak -->
<g id="edge15" class="edge">
<title>main_vm&#45;&gt;sys_tweak</title>
<path fill="none" stroke="#fbbc04" d="M813.31,-299.06C813.31,-279.07 813.31,-250 813.31,-250 813.31,-250 957.25,-250 957.25,-250 957.25,-250 957.25,-249.18 957.25,-249.18"/>
<polygon fill="#fbbc04" stroke="#fbbc04" points="960.75,-253.34 957.25,-243.34 953.75,-253.34 960.75,-253.34"/>
</g>
<!-- svc_tweak -->
<g id="node21" class="node">
<title>svc_tweak</title>
<path fill="white" stroke="#fbbc04" d="M1233.88,-241.5C1233.88,-241.5 1142.12,-241.5 1142.12,-241.5 1136.12,-241.5 1130.12,-235.5 1130.12,-229.5 1130.12,-229.5 1130.12,-217 1130.12,-217 1130.12,-211 1136.12,-205 1142.12,-205 1142.12,-205 1233.88,-205 1233.88,-205 1239.88,-205 1245.88,-211 1245.88,-217 1245.88,-217 1245.88,-229.5 1245.88,-229.5 1245.88,-235.5 1239.88,-241.5 1233.88,-241.5"/>
<text xml:space="preserve" text-anchor="middle" x="1188" y="-228" font-family="Segoe UI" font-size="10.00">ServicesTweaks</text>
<text xml:space="preserve" text-anchor="middle" x="1188" y="-213.75" font-family="Segoe UI" font-size="10.00">(Service Management)</text>
</g>
<!-- main_vm&#45;&gt;svc_tweak -->
<g id="edge16" class="edge">
<title>main_vm&#45;&gt;svc_tweak</title>
<path fill="none" stroke="#fbbc04" d="M815.38,-299.32C815.38,-281.83 815.38,-258 815.38,-258 815.38,-258 1137.38,-258 1137.38,-258 1137.38,-258 1137.38,-253.36 1137.38,-253.36"/>
<polygon fill="#fbbc04" stroke="#fbbc04" points="1140.88,-253.36 1137.38,-243.36 1133.88,-253.36 1140.88,-253.36"/>
</g>
<!-- int_tweak -->
<g id="node22" class="node">
<title>int_tweak</title>
<path fill="white" stroke="#fbbc04" d="M1531.62,-241.5C1531.62,-241.5 1456.38,-241.5 1456.38,-241.5 1450.38,-241.5 1444.38,-235.5 1444.38,-229.5 1444.38,-229.5 1444.38,-217 1444.38,-217 1444.38,-211 1450.38,-205 1456.38,-205 1456.38,-205 1531.62,-205 1531.62,-205 1537.62,-205 1543.62,-211 1543.62,-217 1543.62,-217 1543.62,-229.5 1543.62,-229.5 1543.62,-235.5 1537.62,-241.5 1531.62,-241.5"/>
<text xml:space="preserve" text-anchor="middle" x="1494" y="-228" font-family="Segoe UI" font-size="10.00">InterfaceTweaks</text>
<text xml:space="preserve" text-anchor="middle" x="1494" y="-213.75" font-family="Segoe UI" font-size="10.00">(UI Customization)</text>
</g>
<!-- main_vm&#45;&gt;int_tweak -->
<g id="edge17" class="edge">
<title>main_vm&#45;&gt;int_tweak</title>
<path fill="none" stroke="#fbbc04" d="M819.5,-299.23C819.5,-287.71 819.5,-275 819.5,-275 819.5,-275 1494,-275 1494,-275 1494,-275 1494,-253.45 1494,-253.45"/>
<polygon fill="#fbbc04" stroke="#fbbc04" points="1497.5,-253.45 1494,-243.45 1490.5,-253.45 1497.5,-253.45"/>
</g>
<!-- defender -->
<g id="node23" class="node">
<title>defender</title>
<path fill="white" stroke="#fbbc04" d="M1673.25,-241.5C1673.25,-241.5 1598.75,-241.5 1598.75,-241.5 1592.75,-241.5 1586.75,-235.5 1586.75,-229.5 1586.75,-229.5 1586.75,-217 1586.75,-217 1586.75,-211 1592.75,-205 1598.75,-205 1598.75,-205 1673.25,-205 1673.25,-205 1679.25,-205 1685.25,-211 1685.25,-217 1685.25,-217 1685.25,-229.5 1685.25,-229.5 1685.25,-235.5 1679.25,-241.5 1673.25,-241.5"/>
<text xml:space="preserve" text-anchor="middle" x="1636" y="-228" font-family="Segoe UI" font-size="10.00">WindowsDefender</text>
<text xml:space="preserve" text-anchor="middle" x="1636" y="-213.75" font-family="Segoe UI" font-size="10.00">(ACL + Protection)</text>
</g>
<!-- main_vm&#45;&gt;defender -->
<g id="edge18" class="edge">
<title>main_vm&#45;&gt;defender</title>
<path fill="none" stroke="#fbbc04" d="M821.56,-299.04C821.56,-290.84 821.56,-283 821.56,-283 821.56,-283 1636,-283 1636,-283 1636,-283 1636,-253.34 1636,-253.34"/>
<polygon fill="#fbbc04" stroke="#fbbc04" points="1639.5,-253.34 1636,-243.34 1632.5,-253.34 1639.5,-253.34"/>
</g>
<!-- uninstall -->
<g id="node24" class="node">
<title>uninstall</title>
<path fill="white" stroke="#fbbc04" d="M1827.25,-241.5C1827.25,-241.5 1740.75,-241.5 1740.75,-241.5 1734.75,-241.5 1728.75,-235.5 1728.75,-229.5 1728.75,-229.5 1728.75,-217 1728.75,-217 1728.75,-211 1734.75,-205 1740.75,-205 1740.75,-205 1827.25,-205 1827.25,-205 1833.25,-205 1839.25,-211 1839.25,-217 1839.25,-217 1839.25,-229.5 1839.25,-229.5 1839.25,-235.5 1833.25,-241.5 1827.25,-241.5"/>
<text xml:space="preserve" text-anchor="middle" x="1784" y="-228" font-family="Segoe UI" font-size="10.00">UninstallingPackages</text>
<text xml:space="preserve" text-anchor="middle" x="1784" y="-213.75" font-family="Segoe UI" font-size="10.00">(UWP + Bloatware)</text>
</g>
<!-- main_vm&#45;&gt;uninstall -->
<g id="edge19" class="edge">
<title>main_vm&#45;&gt;uninstall</title>
<path fill="none" stroke="#fbbc04" d="M757.58,-299.09C757.58,-294.57 757.58,-291 757.58,-291 757.58,-291 1784,-291 1784,-291 1784,-291 1784,-253.28 1784,-253.28"/>
<polygon fill="#fbbc04" stroke="#fbbc04" points="1787.5,-253.28 1784,-243.28 1780.5,-253.28 1787.5,-253.28"/>
</g>
<!-- conf_vm -->
<g id="node15" class="node">
<title>conf_vm</title>
<path fill="white" stroke="#9334e6" d="M949.75,-335.5C949.75,-335.5 878.25,-335.5 878.25,-335.5 872.25,-335.5 866.25,-329.5 866.25,-323.5 866.25,-323.5 866.25,-311.5 866.25,-311.5 866.25,-305.5 872.25,-299.5 878.25,-299.5 878.25,-299.5 949.75,-299.5 949.75,-299.5 955.75,-299.5 961.75,-305.5 961.75,-311.5 961.75,-311.5 961.75,-323.5 961.75,-323.5 961.75,-329.5 955.75,-335.5 949.75,-335.5"/>
<text xml:space="preserve" text-anchor="middle" x="914" y="-315.12" font-family="Segoe UI" font-size="10.00">ConfidentialityVM</text>
</g>
<!-- sys_vm -->
<g id="node16" class="node">
<title>sys_vm</title>
<path fill="white" stroke="#9334e6" d="M1089.5,-335.5C1089.5,-335.5 1016.5,-335.5 1016.5,-335.5 1010.5,-335.5 1004.5,-329.5 1004.5,-323.5 1004.5,-323.5 1004.5,-311.5 1004.5,-311.5 1004.5,-305.5 1010.5,-299.5 1016.5,-299.5 1016.5,-299.5 1089.5,-299.5 1089.5,-299.5 1095.5,-299.5 1101.5,-305.5 1101.5,-311.5 1101.5,-311.5 1101.5,-323.5 1101.5,-323.5 1101.5,-329.5 1095.5,-335.5 1089.5,-335.5"/>
<text xml:space="preserve" text-anchor="middle" x="1053" y="-315.12" font-family="Segoe UI" font-size="10.00">SystemViewModel</text>
</g>
<!-- svc_vm -->
<g id="node17" class="node">
<title>svc_vm</title>
<path fill="white" stroke="#9334e6" d="M1233.38,-335.5C1233.38,-335.5 1156.62,-335.5 1156.62,-335.5 1150.62,-335.5 1144.62,-329.5 1144.62,-323.5 1144.62,-323.5 1144.62,-311.5 1144.62,-311.5 1144.62,-305.5 1150.62,-299.5 1156.62,-299.5 1156.62,-299.5 1233.38,-299.5 1233.38,-299.5 1239.38,-299.5 1245.38,-305.5 1245.38,-311.5 1245.38,-311.5 1245.38,-323.5 1245.38,-323.5 1245.38,-329.5 1239.38,-335.5 1233.38,-335.5"/>
<text xml:space="preserve" text-anchor="middle" x="1195" y="-315.12" font-family="Segoe UI" font-size="10.00">ServicesViewModel</text>
</g>
<!-- int_vm -->
<g id="node18" class="node">
<title>int_vm</title>
<path fill="white" stroke="#9334e6" d="M1381.62,-335.5C1381.62,-335.5 1300.38,-335.5 1300.38,-335.5 1294.38,-335.5 1288.38,-329.5 1288.38,-323.5 1288.38,-323.5 1288.38,-311.5 1288.38,-311.5 1288.38,-305.5 1294.38,-299.5 1300.38,-299.5 1300.38,-299.5 1381.62,-299.5 1381.62,-299.5 1387.62,-299.5 1393.62,-305.5 1393.62,-311.5 1393.62,-311.5 1393.62,-323.5 1393.62,-323.5 1393.62,-329.5 1387.62,-335.5 1381.62,-335.5"/>
<text xml:space="preserve" text-anchor="middle" x="1341" y="-315.12" font-family="Segoe UI" font-size="10.00">InterfaceViewModel</text>
</g>
<!-- trusted_inst -->
<g id="node25" class="node">
<title>trusted_inst</title>
<path fill="white" stroke="#ea4335" d="M1452.12,-147C1452.12,-147 1373.88,-147 1373.88,-147 1367.88,-147 1361.88,-141 1361.88,-135 1361.88,-135 1361.88,-122.5 1361.88,-122.5 1361.88,-116.5 1367.88,-110.5 1373.88,-110.5 1373.88,-110.5 1452.12,-110.5 1452.12,-110.5 1458.12,-110.5 1464.12,-116.5 1464.12,-122.5 1464.12,-122.5 1464.12,-135 1464.12,-135 1464.12,-141 1458.12,-147 1452.12,-147"/>
<text xml:space="preserve" text-anchor="middle" x="1413" y="-133.5" font-family="Segoe UI" font-size="10.00">TrustedInstaller</text>
<text xml:space="preserve" text-anchor="middle" x="1413" y="-119.25" font-family="Segoe UI" font-size="10.00">(Privilege Elevation)</text>
</g>
<!-- conf_tweak&#45;&gt;trusted_inst -->
<g id="edge20" class="edge">
<title>conf_tweak&#45;&gt;trusted_inst</title>
<path fill="none" stroke="#ea4335" stroke-dasharray="5,2" d="M1385.58,-204.58C1385.58,-204.58 1385.58,-158.89 1385.58,-158.89"/>
<polygon fill="#ea4335" stroke="#ea4335" points="1389.08,-158.89 1385.58,-148.89 1382.08,-158.89 1389.08,-158.89"/>
</g>
<!-- registry -->
<g id="node26" class="node">
<title>registry</title>
<path fill="white" stroke="#ea4335" d="M1606.62,-147C1606.62,-147 1519.38,-147 1519.38,-147 1513.38,-147 1507.38,-141 1507.38,-135 1507.38,-135 1507.38,-122.5 1507.38,-122.5 1507.38,-116.5 1513.38,-110.5 1519.38,-110.5 1519.38,-110.5 1606.62,-110.5 1606.62,-110.5 1612.62,-110.5 1618.62,-116.5 1618.62,-122.5 1618.62,-122.5 1618.62,-135 1618.62,-135 1618.62,-141 1612.62,-147 1606.62,-147"/>
<text xml:space="preserve" text-anchor="middle" x="1563" y="-133.5" font-family="Segoe UI" font-size="10.00">RegistryHelp</text>
<text xml:space="preserve" text-anchor="middle" x="1563" y="-119.25" font-family="Segoe UI" font-size="10.00">(Registry Operations)</text>
</g>
<!-- conf_tweak&#45;&gt;registry -->
<g id="edge23" class="edge">
<title>conf_tweak&#45;&gt;registry</title>
<path fill="none" stroke="#ea4335" stroke-dasharray="5,2" d="M1393.47,-204.88C1393.47,-202.57 1393.47,-201 1393.47,-201 1393.47,-201 1534.56,-201 1534.56,-201 1534.56,-201 1534.56,-158.87 1534.56,-158.87"/>
<polygon fill="#ea4335" stroke="#ea4335" points="1538.06,-158.87 1534.56,-148.87 1531.06,-158.87 1538.06,-158.87"/>
</g>
<!-- firewall -->
<g id="node27" class="node">
<title>firewall</title>
<path fill="white" stroke="#ea4335" d="M836.12,-147C836.12,-147 769.88,-147 769.88,-147 763.88,-147 757.88,-141 757.88,-135 757.88,-135 757.88,-122.5 757.88,-122.5 757.88,-116.5 763.88,-110.5 769.88,-110.5 769.88,-110.5 836.12,-110.5 836.12,-110.5 842.12,-110.5 848.12,-116.5 848.12,-122.5 848.12,-122.5 848.12,-135 848.12,-135 848.12,-141 842.12,-147 836.12,-147"/>
<text xml:space="preserve" text-anchor="middle" x="803" y="-133.5" font-family="Segoe UI" font-size="10.00">FirewallManager</text>
<text xml:space="preserve" text-anchor="middle" x="803" y="-119.25" font-family="Segoe UI" font-size="10.00">(Firewall Rules)</text>
</g>
<!-- conf_tweak&#45;&gt;firewall -->
<g id="edge26" class="edge">
<title>conf_tweak&#45;&gt;firewall</title>
<path fill="none" stroke="#ea4335" stroke-dasharray="5,2" d="M1294.72,-204.82C1294.72,-187.75 1294.72,-165 1294.72,-165 1294.72,-165 842,-165 842,-165 842,-165 842,-158.81 842,-158.81"/>
<polygon fill="#ea4335" stroke="#ea4335" points="845.5,-158.81 842,-148.81 838.5,-158.81 845.5,-158.81"/>
</g>
<!-- task_sched -->
<g id="node28" class="node">
<title>task_sched</title>
<path fill="white" stroke="#ea4335" d="M998.75,-147C998.75,-147 903.25,-147 903.25,-147 897.25,-147 891.25,-141 891.25,-135 891.25,-135 891.25,-122.5 891.25,-122.5 891.25,-116.5 897.25,-110.5 903.25,-110.5 903.25,-110.5 998.75,-110.5 998.75,-110.5 1004.75,-110.5 1010.75,-116.5 1010.75,-122.5 1010.75,-122.5 1010.75,-135 1010.75,-135 1010.75,-141 1004.75,-147 998.75,-147"/>
<text xml:space="preserve" text-anchor="middle" x="951" y="-133.5" font-family="Segoe UI" font-size="10.00">TaskSchedulerManager</text>
<text xml:space="preserve" text-anchor="middle" x="951" y="-119.25" font-family="Segoe UI" font-size="10.00">(Scheduled Tasks)</text>
</g>
<!-- conf_tweak&#45;&gt;task_sched -->
<g id="edge29" class="edge">
<title>conf_tweak&#45;&gt;task_sched</title>
<path fill="none" stroke="#ea4335" stroke-dasharray="5,2" d="M1300.83,-204.52C1300.83,-184.62 1300.83,-156 1300.83,-156 1300.83,-156 999.15,-156 999.15,-156 999.15,-156 999.15,-155.14 999.15,-155.14"/>
<polygon fill="#ea4335" stroke="#ea4335" points="1002.65,-158.89 999.15,-148.89 995.65,-158.89 1002.65,-158.89"/>
</g>
<!-- cmd_exec -->
<g id="node29" class="node">
<title>cmd_exec</title>
<path fill="white" stroke="#ea4335" d="M1144.12,-147C1144.12,-147 1065.88,-147 1065.88,-147 1059.88,-147 1053.88,-141 1053.88,-135 1053.88,-135 1053.88,-122.5 1053.88,-122.5 1053.88,-116.5 1059.88,-110.5 1065.88,-110.5 1065.88,-110.5 1144.12,-110.5 1144.12,-110.5 1150.12,-110.5 1156.12,-116.5 1156.12,-122.5 1156.12,-122.5 1156.12,-135 1156.12,-135 1156.12,-141 1150.12,-147 1144.12,-147"/>
<text xml:space="preserve" text-anchor="middle" x="1105" y="-133.5" font-family="Segoe UI" font-size="10.00">CommandExecutor</text>
<text xml:space="preserve" text-anchor="middle" x="1105" y="-119.25" font-family="Segoe UI" font-size="10.00">(Process Execution)</text>
</g>
<!-- conf_tweak&#45;&gt;cmd_exec -->
<g id="edge32" class="edge">
<title>conf_tweak&#45;&gt;cmd_exec</title>
<path fill="none" stroke="#ea4335" stroke-dasharray="5,2" d="M1306.92,-204.64C1306.92,-183.24 1306.92,-151 1306.92,-151 1306.92,-151 1150.92,-151 1150.92,-151 1150.92,-151 1150.92,-150.61 1150.92,-150.61"/>
<polygon fill="#ea4335" stroke="#ea4335" points="1154.43,-158.64 1150.93,-148.64 1147.43,-158.64 1154.43,-158.64"/>
</g>
<!-- clearing -->
<g id="node30" class="node">
<title>clearing</title>
<path fill="white" stroke="#ea4335" d="M1307.12,-147C1307.12,-147 1210.88,-147 1210.88,-147 1204.88,-147 1198.88,-141 1198.88,-135 1198.88,-135 1198.88,-122.5 1198.88,-122.5 1198.88,-116.5 1204.88,-110.5 1210.88,-110.5 1210.88,-110.5 1307.12,-110.5 1307.12,-110.5 1313.12,-110.5 1319.12,-116.5 1319.12,-122.5 1319.12,-122.5 1319.12,-135 1319.12,-135 1319.12,-141 1313.12,-147 1307.12,-147"/>
<text xml:space="preserve" text-anchor="middle" x="1259" y="-133.5" font-family="Segoe UI" font-size="10.00">ClearingMemory</text>
<text xml:space="preserve" text-anchor="middle" x="1259" y="-119.25" font-family="Segoe UI" font-size="10.00">(RAM + Temp Cleanup)</text>
</g>
<!-- conf_tweak&#45;&gt;clearing -->
<g id="edge35" class="edge">
<title>conf_tweak&#45;&gt;clearing</title>
<path fill="none" stroke="#ea4335" stroke-dasharray="5,2" d="M1313.03,-204.58C1313.03,-204.58 1313.03,-158.89 1313.03,-158.89"/>
<polygon fill="#ea4335" stroke="#ea4335" points="1316.53,-158.89 1313.03,-148.89 1309.53,-158.89 1316.53,-158.89"/>
</g>
<!-- sys_tweak&#45;&gt;trusted_inst -->
<g id="edge21" class="edge">
<title>sys_tweak&#45;&gt;trusted_inst</title>
<path fill="none" stroke="#ea4335" stroke-dasharray="5,2" d="M1073.9,-204.54C1073.9,-194.03 1073.9,-183 1073.9,-183 1073.9,-183 1369.78,-183 1369.78,-183 1369.78,-183 1369.78,-158.93 1369.78,-158.93"/>
<polygon fill="#ea4335" stroke="#ea4335" points="1373.28,-158.93 1369.78,-148.93 1366.28,-158.93 1373.28,-158.93"/>
</g>
<!-- sys_tweak&#45;&gt;registry -->
<g id="edge24" class="edge">
<title>sys_tweak&#45;&gt;registry</title>
<path fill="none" stroke="#ea4335" stroke-dasharray="5,2" d="M1080.58,-204.71C1080.58,-197.98 1080.58,-192 1080.58,-192 1080.58,-192 1516.44,-192 1516.44,-192 1516.44,-192 1516.44,-158.9 1516.44,-158.9"/>
<polygon fill="#ea4335" stroke="#ea4335" points="1519.94,-158.9 1516.44,-148.9 1512.94,-158.9 1519.94,-158.9"/>
</g>
<!-- sys_tweak&#45;&gt;firewall -->
<g id="edge27" class="edge">
<title>sys_tweak&#45;&gt;firewall</title>
<path fill="none" stroke="#ea4335" stroke-dasharray="5,2" d="M964.35,-204.63C964.35,-190.68 964.35,-174 964.35,-174 964.35,-174 829.75,-174 829.75,-174 829.75,-174 829.75,-158.93 829.75,-158.93"/>
<polygon fill="#ea4335" stroke="#ea4335" points="833.25,-158.93 829.75,-148.93 826.25,-158.93 833.25,-158.93"/>
</g>
<!-- sys_tweak&#45;&gt;task_sched -->
<g id="edge30" class="edge">
<title>sys_tweak&#45;&gt;task_sched</title>
<path fill="none" stroke="#ea4335" stroke-dasharray="5,2" d="M975.95,-204.58C975.95,-204.58 975.95,-158.89 975.95,-158.89"/>
<polygon fill="#ea4335" stroke="#ea4335" points="979.45,-158.89 975.95,-148.89 972.45,-158.89 979.45,-158.89"/>
</g>
<!-- sys_tweak&#45;&gt;cmd_exec -->
<g id="edge33" class="edge">
<title>sys_tweak&#45;&gt;cmd_exec</title>
<path fill="none" stroke="#ea4335" stroke-dasharray="5,2" d="M1060.55,-204.58C1060.55,-204.58 1060.55,-158.89 1060.55,-158.89"/>
<polygon fill="#ea4335" stroke="#ea4335" points="1064.05,-158.89 1060.55,-148.89 1057.05,-158.89 1064.05,-158.89"/>
</g>
<!-- sys_tweak&#45;&gt;clearing -->
<g id="edge36" class="edge">
<title>sys_tweak&#45;&gt;clearing</title>
<path fill="none" stroke="#ea4335" stroke-dasharray="5,2" d="M1067.22,-204.58C1067.22,-192.12 1067.22,-178 1067.22,-178 1067.22,-178 1208.28,-178 1208.28,-178 1208.28,-178 1208.28,-158.88 1208.28,-158.88"/>
<polygon fill="#ea4335" stroke="#ea4335" points="1211.78,-158.88 1208.28,-148.88 1204.78,-158.88 1211.78,-158.88"/>
</g>
<!-- svc_tweak&#45;&gt;trusted_inst -->
<g id="edge22" class="edge">
<title>svc_tweak&#45;&gt;trusted_inst</title>
<path fill="none" stroke="#ea4335" stroke-dasharray="5,2" d="M1227.08,-204.7C1227.08,-195.78 1227.08,-187 1227.08,-187 1227.08,-187 1377.67,-187 1377.67,-187 1377.67,-187 1377.67,-158.69 1377.67,-158.69"/>
<polygon fill="#ea4335" stroke="#ea4335" points="1381.18,-158.69 1377.68,-148.69 1374.18,-158.69 1381.18,-158.69"/>
</g>
<!-- svc_tweak&#45;&gt;registry -->
<g id="edge25" class="edge">
<title>svc_tweak&#45;&gt;registry</title>
<path fill="none" stroke="#ea4335" stroke-dasharray="5,2" d="M1236.47,-204.62C1236.47,-199.83 1236.47,-196 1236.47,-196 1236.47,-196 1525.5,-196 1525.5,-196 1525.5,-196 1525.5,-159 1525.5,-159"/>
<polygon fill="#ea4335" stroke="#ea4335" points="1529,-159 1525.5,-149 1522,-159 1529,-159"/>
</g>
<!-- svc_tweak&#45;&gt;firewall -->
<g id="edge28" class="edge">
<title>svc_tweak&#45;&gt;firewall</title>
<path fill="none" stroke="#ea4335" stroke-dasharray="5,2" d="M1135.33,-204.58C1135.33,-188.89 1135.33,-169 1135.33,-169 1135.33,-169 835.88,-169 835.88,-169 835.88,-169 835.88,-158.97 835.88,-158.97"/>
<polygon fill="#ea4335" stroke="#ea4335" points="839.38,-158.97 835.88,-148.97 832.38,-158.97 839.38,-158.97"/>
</g>
<!-- svc_tweak&#45;&gt;task_sched -->
<g id="edge31" class="edge">
<title>svc_tweak&#45;&gt;task_sched</title>
<path fill="none" stroke="#ea4335" stroke-dasharray="5,2" d="M1140.53,-204.62C1140.53,-185.96 1140.53,-160 1140.53,-160 1140.53,-160 987.55,-160 987.55,-160 987.55,-160 987.55,-158.73 987.55,-158.73"/>
<polygon fill="#ea4335" stroke="#ea4335" points="991.05,-158.8 987.55,-148.8 984.05,-158.8 991.05,-158.8"/>
</g>
<!-- svc_tweak&#45;&gt;cmd_exec -->
<g id="edge34" class="edge">
<title>svc_tweak&#45;&gt;cmd_exec</title>
<path fill="none" stroke="#ea4335" stroke-dasharray="5,2" d="M1145.72,-204.58C1145.72,-204.58 1145.72,-158.89 1145.72,-158.89"/>
<polygon fill="#ea4335" stroke="#ea4335" points="1149.23,-158.89 1145.73,-148.89 1142.23,-158.89 1149.23,-158.89"/>
</g>
<!-- svc_tweak&#45;&gt;clearing -->
<g id="edge37" class="edge">
<title>svc_tweak&#45;&gt;clearing</title>
<path fill="none" stroke="#ea4335" stroke-dasharray="5,2" d="M1217.67,-204.58C1217.67,-204.58 1217.67,-158.89 1217.67,-158.89"/>
<polygon fill="#ea4335" stroke="#ea4335" points="1221.18,-158.89 1217.68,-148.89 1214.18,-158.89 1221.18,-158.89"/>
</g>
<!-- blocklist -->
<g id="node31" class="node">
<title>blocklist</title>
<path fill="white" stroke="#5f6368" d="M1329.88,-52.5C1329.88,-52.5 1262.12,-52.5 1262.12,-52.5 1256.12,-52.5 1250.12,-46.5 1250.12,-40.5 1250.12,-40.5 1250.12,-28 1250.12,-28 1250.12,-22 1256.12,-16 1262.12,-16 1262.12,-16 1329.88,-16 1329.88,-16 1335.88,-16 1341.88,-22 1341.88,-28 1341.88,-28 1341.88,-40.5 1341.88,-40.5 1341.88,-46.5 1335.88,-52.5 1329.88,-52.5"/>
<text xml:space="preserve" text-anchor="middle" x="1296" y="-39" font-family="Segoe UI" font-size="10.00">Blocklist.txt</text>
<text xml:space="preserve" text-anchor="middle" x="1296" y="-24.75" font-family="Segoe UI" font-size="10.00">(1400+ Domains)</text>
</g>
<!-- trusted_inst&#45;&gt;blocklist -->
<g id="edge38" class="edge">
<title>trusted_inst&#45;&gt;blocklist</title>
<path fill="none" stroke="#5f6368" stroke-dasharray="1,5" d="M1373.38,-110.03C1373.38,-82.42 1373.38,-34 1373.38,-34 1373.38,-34 1353.86,-34 1353.86,-34"/>
<polygon fill="#5f6368" stroke="#5f6368" points="1353.86,-30.5 1343.86,-34 1353.86,-37.5 1353.86,-30.5"/>
</g>
<!-- languages -->
<g id="node32" class="node">
<title>languages</title>
<path fill="white" stroke="#5f6368" d="M1451.12,-52.5C1451.12,-52.5 1396.88,-52.5 1396.88,-52.5 1390.88,-52.5 1384.88,-46.5 1384.88,-40.5 1384.88,-40.5 1384.88,-28 1384.88,-28 1384.88,-22 1390.88,-16 1396.88,-16 1396.88,-16 1451.12,-16 1451.12,-16 1457.12,-16 1463.12,-22 1463.12,-28 1463.12,-28 1463.12,-40.5 1463.12,-40.5 1463.12,-46.5 1457.12,-52.5 1451.12,-52.5"/>
<text xml:space="preserve" text-anchor="middle" x="1424" y="-39" font-family="Segoe UI" font-size="10.00">15 Languages</text>
<text xml:space="preserve" text-anchor="middle" x="1424" y="-24.75" font-family="Segoe UI" font-size="10.00">(Localization)</text>
</g>
<!-- trusted_inst&#45;&gt;languages -->
<g id="edge39" class="edge">
<title>trusted_inst&#45;&gt;languages</title>
<path fill="none" stroke="#5f6368" stroke-dasharray="1,5" d="M1410.96,-110.08C1410.96,-110.08 1410.96,-64.39 1410.96,-64.39"/>
<polygon fill="#5f6368" stroke="#5f6368" points="1414.46,-64.39 1410.96,-54.39 1407.46,-64.39 1414.46,-64.39"/>
</g>
<!-- apps_cat -->
<g id="node33" class="node">
<title>apps_cat</title>
<path fill="white" stroke="#5f6368" d="M1585.88,-52.5C1585.88,-52.5 1518.12,-52.5 1518.12,-52.5 1512.12,-52.5 1506.12,-46.5 1506.12,-40.5 1506.12,-40.5 1506.12,-28 1506.12,-28 1506.12,-22 1512.12,-16 1518.12,-16 1518.12,-16 1585.88,-16 1585.88,-16 1591.88,-16 1597.88,-22 1597.88,-28 1597.88,-28 1597.88,-40.5 1597.88,-40.5 1597.88,-46.5 1591.88,-52.5 1585.88,-52.5"/>
<text xml:space="preserve" text-anchor="middle" x="1552" y="-39" font-family="Segoe UI" font-size="10.00">AppsCatalog.xml</text>
<text xml:space="preserve" text-anchor="middle" x="1552" y="-24.75" font-family="Segoe UI" font-size="10.00">(UWP App Icons)</text>
</g>
<!-- trusted_inst&#45;&gt;apps_cat -->
<g id="edge40" class="edge">
<title>trusted_inst&#45;&gt;apps_cat</title>
<path fill="none" stroke="#5f6368" stroke-dasharray="1,5" d="M1464.31,-123C1472.39,-123 1478.12,-123 1478.12,-123 1478.12,-123 1478.12,-28 1478.12,-28 1478.12,-28 1494.12,-28 1494.12,-28"/>
<polygon fill="#5f6368" stroke="#5f6368" points="1494.12,-31.5 1504.12,-28 1494.12,-24.5 1494.12,-31.5"/>
</g>
<!-- embedded -->
<g id="node34" class="node">
<title>embedded</title>
<path fill="white" stroke="#5f6368" d="M1731.12,-52.5C1731.12,-52.5 1652.88,-52.5 1652.88,-52.5 1646.88,-52.5 1640.88,-46.5 1640.88,-40.5 1640.88,-40.5 1640.88,-28 1640.88,-28 1640.88,-22 1646.88,-16 1652.88,-16 1652.88,-16 1731.12,-16 1731.12,-16 1737.12,-16 1743.12,-22 1743.12,-28 1743.12,-28 1743.12,-40.5 1743.12,-40.5 1743.12,-46.5 1737.12,-52.5 1731.12,-52.5"/>
<text xml:space="preserve" text-anchor="middle" x="1692" y="-39" font-family="Segoe UI" font-size="10.00">Embedded Binaries</text>
<text xml:space="preserve" text-anchor="middle" x="1692" y="-24.75" font-family="Segoe UI" font-size="10.00">(NSudo, Defender)</text>
</g>
<!-- trusted_inst&#45;&gt;embedded -->
<g id="edge41" class="edge">
<title>trusted_inst&#45;&gt;embedded</title>
<path fill="none" stroke="#5f6368" stroke-dasharray="1,5" d="M1437.04,-110.32C1437.04,-100.73 1437.04,-91 1437.04,-91 1437.04,-91 1663.06,-91 1663.06,-91 1663.06,-91 1663.06,-64.35 1663.06,-64.35"/>
<polygon fill="#5f6368" stroke="#5f6368" points="1666.56,-64.35 1663.06,-54.35 1659.56,-64.35 1666.56,-64.35"/>
</g>
<!-- registry&#45;&gt;blocklist -->
<g id="edge42" class="edge">
<title>registry&#45;&gt;blocklist</title>
<path fill="none" stroke="#5f6368" stroke-dasharray="1,5" d="M1537.54,-110.17C1537.54,-93.62 1537.54,-72 1537.54,-72 1537.54,-72 1330.5,-72 1330.5,-72 1330.5,-72 1330.5,-64.2 1330.5,-64.2"/>
<polygon fill="#5f6368" stroke="#5f6368" points="1334,-64.2 1330.5,-54.2 1327,-64.2 1334,-64.2"/>
</g>
<!-- registry&#45;&gt;languages -->
<g id="edge43" class="edge">
<title>registry&#45;&gt;languages</title>
<path fill="none" stroke="#5f6368" stroke-dasharray="1,5" d="M1507.16,-135C1498.37,-135 1492.12,-135 1492.12,-135 1492.12,-135 1492.12,-40 1492.12,-40 1492.12,-40 1474.75,-40 1474.75,-40"/>
<polygon fill="#5f6368" stroke="#5f6368" points="1474.75,-36.5 1464.75,-40 1474.75,-43.5 1474.75,-36.5"/>
</g>
<!-- registry&#45;&gt;apps_cat -->
<g id="edge44" class="edge">
<title>registry&#45;&gt;apps_cat</title>
<path fill="none" stroke="#5f6368" stroke-dasharray="1,5" d="M1567.71,-110.08C1567.71,-110.08 1567.71,-64.39 1567.71,-64.39"/>
<polygon fill="#5f6368" stroke="#5f6368" points="1571.21,-64.39 1567.71,-54.39 1564.21,-64.39 1571.21,-64.39"/>
</g>
<!-- registry&#45;&gt;embedded -->
<g id="edge45" class="edge">
<title>registry&#45;&gt;embedded</title>
<path fill="none" stroke="#5f6368" stroke-dasharray="1,5" d="M1608.25,-110.03C1608.25,-82.42 1608.25,-34 1608.25,-34 1608.25,-34 1628.88,-34 1628.88,-34"/>
<polygon fill="#5f6368" stroke="#5f6368" points="1628.88,-37.5 1638.88,-34 1628.88,-30.5 1628.88,-37.5"/>
</g>
</g>
</svg>
