<?xml version="1.0" encoding="UTF-8" standalone="no"?>
<!DOCTYPE svg PUBLIC "-//W3C//DTD SVG 1.1//EN"
 "http://www.w3.org/Graphics/SVG/1.1/DTD/svg11.dtd">
<!-- Generated by graphviz version 14.1.2 (0)
 -->
<!-- Title: omi_platform_architecture Pages: 1 -->
<svg width="510pt" height="767pt"
 viewBox="0.00 0.00 510.00 767.00" xmlns="http://www.w3.org/2000/svg" xmlns:xlink="http://www.w3.org/1999/xlink">
<g id="graph0" class="graph" transform="scale(1 1) rotate(0) translate(4 762.75)">
<title>omi_platform_architecture</title>
<polygon fill="white" stroke="none" points="-4,4 -4,-762.75 506,-762.75 506,4 -4,4"/>
<g id="clust1" class="cluster">
<title>cluster_input_layer</title>
<path fill="none" stroke="#999999" stroke-dasharray="5,2" d="M26,-675C26,-675 450,-675 450,-675 456,-675 462,-681 462,-687 462,-687 462,-738.75 462,-738.75 462,-744.75 456,-750.75 450,-750.75 450,-750.75 26,-750.75 26,-750.75 20,-750.75 14,-744.75 14,-738.75 14,-738.75 14,-687 14,-687 14,-681 20,-675 26,-675"/>
<text xml:space="preserve" text-anchor="middle" x="238" y="-733.45" font-family="Arial Bold" font-size="14.00" fill="#333333">Input Layer</text>
</g>
<g id="clust2" class="cluster">
<title>cluster_backend_layer</title>
<path fill="none" stroke="#999999" stroke-dasharray="5,2" d="M44,-486C44,-486 248,-486 248,-486 254,-486 260,-492 260,-498 260,-498 260,-644.75 260,-644.75 260,-650.75 254,-656.75 248,-656.75 248,-656.75 44,-656.75 44,-656.75 38,-656.75 32,-650.75 32,-644.75 32,-644.75 32,-498 32,-498 32,-492 38,-486 44,-486"/>
<text xml:space="preserve" text-anchor="middle" x="146" y="-639.45" font-family="Arial Bold" font-size="14.00" fill="#333333">Backend Layer</text>
</g>
<g id="clust3" class="cluster">
<title>cluster_processing_layer</title>
<path fill="none" stroke="#999999" stroke-dasharray="5,2" d="M112,-204C112,-204 330,-204 330,-204 336,-204 342,-210 342,-216 342,-216 342,-455.75 342,-455.75 342,-461.75 336,-467.75 330,-467.75 330,-467.75 112,-467.75 112,-467.75 106,-467.75 100,-461.75 100,-455.75 100,-455.75 100,-216 100,-216 100,-210 106,-204 112,-204"/>
<text xml:space="preserve" text-anchor="middle" x="221" y="-450.45" font-family="Arial Bold" font-size="14.00" fill="#333333">Processing Layer</text>
</g>
<g id="clust4" class="cluster">
<title>cluster_storage_layer</title>
<path fill="none" stroke="#999999" stroke-dasharray="5,2" d="M107,-102C107,-102 482,-102 482,-102 488,-102 494,-108 494,-114 494,-114 494,-173.75 494,-173.75 494,-179.75 488,-185.75 482,-185.75 482,-185.75 107,-185.75 107,-185.75 101,-185.75 95,-179.75 95,-173.75 95,-173.75 95,-114 95,-114 95,-108 101,-102 107,-102"/>
<text xml:space="preserve" text-anchor="middle" x="294.5" y="-168.45" font-family="Arial Bold" font-size="14.00" fill="#333333">Storage Layer</text>
</g>
<g id="clust5" class="cluster">
<title>cluster_output_layer</title>
<path fill="none" stroke="#999999" stroke-dasharray="5,2" d="M20,-8C20,-8 385,-8 385,-8 391,-8 397,-14 397,-20 397,-20 397,-71.75 397,-71.75 397,-77.75 391,-83.75 385,-83.75 385,-83.75 20,-83.75 20,-83.75 14,-83.75 8,-77.75 8,-71.75 8,-71.75 8,-20 8,-20 8,-14 14,-8 20,-8"/>
<text xml:space="preserve" text-anchor="middle" x="202.5" y="-66.45" font-family="Arial Bold" font-size="14.00" fill="#333333">Output Layer</text>
</g>
<!-- wearable -->
<g id="node1" class="node">
<title>wearable</title>
<polygon fill="#4caf50" stroke="black" points="107.5,-719 22.5,-719 22.5,-683 107.5,-683 107.5,-719"/>
<text xml:space="preserve" text-anchor="middle" x="65" y="-704.05" font-family="Arial" font-size="11.00" fill="white">Omi Wearable</text>
<text xml:space="preserve" text-anchor="middle" x="65" y="-690.55" font-family="Arial" font-size="11.00" fill="white">(BLE)</text>
</g>
<!-- omi_backend -->
<g id="node5" class="node">
<title>omi_backend</title>
<path fill="#2196f3" stroke="black" d="M240.38,-625C240.38,-625 151.62,-625 151.62,-625 145.62,-625 139.62,-619 139.62,-613 139.62,-613 139.62,-600.5 139.62,-600.5 139.62,-594.5 145.62,-588.5 151.62,-588.5 151.62,-588.5 240.38,-588.5 240.38,-588.5 246.38,-588.5 252.38,-594.5 252.38,-600.5 252.38,-600.5 252.38,-613 252.38,-613 252.38,-619 246.38,-625 240.38,-625"/>
<text xml:space="preserve" text-anchor="middle" x="196" y="-609.6" font-family="Arial Bold" font-size="12.00" fill="white">Omi Backend</text>
<text xml:space="preserve" text-anchor="middle" x="196" y="-595.35" font-family="Arial Bold" font-size="12.00" fill="white">(Python/FastAPI)</text>
</g>
<!-- wearable&#45;&gt;omi_backend -->
<g id="edge1" class="edge">
<title>wearable&#45;&gt;omi_backend</title>
<path fill="none" stroke="#4caf50" stroke-width="2" d="M73.56,-682.77C73.56,-656.99 73.56,-613 73.56,-613 73.56,-613 126.41,-613 126.41,-613"/>
<polygon fill="#4caf50" stroke="#4caf50" stroke-width="2" points="126.41,-616.5 136.41,-613 126.41,-609.5 126.41,-616.5"/>
</g>
<!-- macos_app -->
<g id="node2" class="node">
<title>macos_app</title>
<polygon fill="#4caf50" stroke="black" points="238.38,-719 143.62,-719 143.62,-683 238.38,-683 238.38,-719"/>
<text xml:space="preserve" text-anchor="middle" x="191" y="-704.05" font-family="Arial" font-size="11.00" fill="white">macOS Desktop</text>
<text xml:space="preserve" text-anchor="middle" x="191" y="-690.55" font-family="Arial" font-size="11.00" fill="white">App</text>
</g>
<!-- macos_app&#45;&gt;omi_backend -->
<g id="edge2" class="edge">
<title>macos_app&#45;&gt;omi_backend</title>
<path fill="none" stroke="#4caf50" stroke-width="2" d="M191,-682.83C191,-682.83 191,-638.22 191,-638.22"/>
<polygon fill="#4caf50" stroke="#4caf50" stroke-width="2" points="194.5,-638.22 191,-628.22 187.5,-638.22 194.5,-638.22"/>
</g>
<!-- mobile_app -->
<g id="node3" class="node">
<title>mobile_app</title>
<polygon fill="#4caf50" stroke="black" points="343.62,-719 274.38,-719 274.38,-683 343.62,-683 343.62,-719"/>
<text xml:space="preserve" text-anchor="middle" x="309" y="-704.05" font-family="Arial" font-size="11.00" fill="white">Mobile App</text>
<text xml:space="preserve" text-anchor="middle" x="309" y="-690.55" font-family="Arial" font-size="11.00" fill="white">(Flutter)</text>
</g>
<!-- mobile_app&#45;&gt;omi_backend -->
<g id="edge3" class="edge">
<title>mobile_app&#45;&gt;omi_backend</title>
<path fill="none" stroke="#4caf50" stroke-width="2" d="M274.21,-701C259.36,-701 245.38,-701 245.38,-701 245.38,-701 245.38,-638.4 245.38,-638.4"/>
<polygon fill="#4caf50" stroke="#4caf50" stroke-width="2" points="248.88,-638.4 245.38,-628.4 241.88,-638.4 248.88,-638.4"/>
</g>
<!-- phone_calls -->
<g id="node4" class="node">
<title>phone_calls</title>
<polygon fill="#4caf50" stroke="black" points="454.25,-719 379.75,-719 379.75,-683 454.25,-683 454.25,-719"/>
<text xml:space="preserve" text-anchor="middle" x="417" y="-697.3" font-family="Arial" font-size="11.00" fill="white">Phone Calls</text>
</g>
<!-- phone_calls&#45;&gt;omi_backend -->
<g id="edge4" class="edge">
<title>phone_calls&#45;&gt;omi_backend</title>
<path fill="none" stroke="#4caf50" stroke-width="2" d="M387.94,-682.58C387.94,-658.13 387.94,-618 387.94,-618 387.94,-618 265.84,-618 265.84,-618"/>
<polygon fill="#4caf50" stroke="#4caf50" stroke-width="2" points="265.84,-614.5 255.84,-618 265.84,-621.5 265.84,-614.5"/>
</g>
<!-- pusher -->
<g id="node6" class="node">
<title>pusher</title>
<path fill="#2196f3" stroke="black" d="M116.38,-530.5C116.38,-530.5 51.62,-530.5 51.62,-530.5 45.62,-530.5 39.62,-524.5 39.62,-518.5 39.62,-518.5 39.62,-506 39.62,-506 39.62,-500 45.62,-494 51.62,-494 51.62,-494 116.38,-494 116.38,-494 122.38,-494 128.38,-500 128.38,-506 128.38,-506 128.38,-518.5 128.38,-518.5 128.38,-524.5 122.38,-530.5 116.38,-530.5"/>
<text xml:space="preserve" text-anchor="middle" x="84" y="-515.1" font-family="Arial Bold" font-size="12.00" fill="white">Pusher</text>
<text xml:space="preserve" text-anchor="middle" x="84" y="-500.85" font-family="Arial Bold" font-size="12.00" fill="white">(WebSocket)</text>
</g>
<!-- omi_backend&#45;&gt;pusher -->
<g id="edge5" class="edge">
<title>omi_backend&#45;&gt;pusher</title>
<path fill="none" stroke="#2196f3" stroke-width="1.5" d="M139.27,-601C127.16,-601 117.94,-601 117.94,-601 117.94,-601 117.94,-542.91 117.94,-542.91"/>
<polygon fill="#2196f3" stroke="#2196f3" stroke-width="1.5" points="121.44,-542.91 117.94,-532.91 114.44,-542.91 121.44,-542.91"/>
</g>
<!-- agent_proxy -->
<g id="node7" class="node">
<title>agent_proxy</title>
<path fill="#2196f3" stroke="black" d="M239.62,-530.25C239.62,-530.25 176.38,-530.25 176.38,-530.25 170.38,-530.25 164.38,-524.25 164.38,-518.25 164.38,-518.25 164.38,-506.25 164.38,-506.25 164.38,-500.25 170.38,-494.25 176.38,-494.25 176.38,-494.25 239.62,-494.25 239.62,-494.25 245.62,-494.25 251.62,-500.25 251.62,-506.25 251.62,-506.25 251.62,-518.25 251.62,-518.25 251.62,-524.25 245.62,-530.25 239.62,-530.25"/>
<text xml:space="preserve" text-anchor="middle" x="208" y="-507.98" font-family="Arial Bold" font-size="12.00" fill="white">Agent Proxy</text>
</g>
<!-- omi_backend&#45;&gt;agent_proxy -->
<g id="edge6" class="edge">
<title>omi_backend&#45;&gt;agent_proxy</title>
<path fill="none" stroke="#2196f3" stroke-width="1.5" d="M208,-588.08C208,-588.08 208,-542.83 208,-542.83"/>
<polygon fill="#2196f3" stroke="#2196f3" stroke-width="1.5" points="211.5,-542.83 208,-532.83 204.5,-542.83 211.5,-542.83"/>
</g>
<!-- deepgram -->
<g id="node8" class="node">
<title>deepgram</title>
<path fill="#ff9800" stroke="black" d="M321.5,-342C321.5,-342 278.5,-342 278.5,-342 272.5,-342 266.5,-336 266.5,-330 266.5,-330 266.5,-318 266.5,-318 266.5,-312 272.5,-306 278.5,-306 278.5,-306 321.5,-306 321.5,-306 327.5,-306 333.5,-312 333.5,-318 333.5,-318 333.5,-330 333.5,-330 333.5,-336 327.5,-342 321.5,-342"/>
<text xml:space="preserve" text-anchor="middle" x="300" y="-327.05" font-family="Arial" font-size="11.00" fill="white">Deepgram</text>
<text xml:space="preserve" text-anchor="middle" x="300" y="-313.55" font-family="Arial" font-size="11.00" fill="white">STT</text>
</g>
<!-- omi_backend&#45;&gt;deepgram -->
<g id="edge8" class="edge">
<title>omi_backend&#45;&gt;deepgram</title>
<path fill="none" stroke="#2196f3" stroke-width="2" d="M252.8,-596C262.99,-596 270.44,-596 270.44,-596 270.44,-596 270.44,-355.3 270.44,-355.3"/>
<polygon fill="#2196f3" stroke="#2196f3" stroke-width="2" points="273.94,-355.3 270.44,-345.3 266.94,-355.3 273.94,-355.3"/>
</g>
<!-- vad -->
<g id="node9" class="node">
<title>vad</title>
<path fill="#ff9800" stroke="black" d="M322,-436C322,-436 292,-436 292,-436 286,-436 280,-430 280,-424 280,-424 280,-412 280,-412 280,-406 286,-400 292,-400 292,-400 322,-400 322,-400 328,-400 334,-406 334,-412 334,-412 334,-424 334,-424 334,-430 328,-436 322,-436"/>
<text xml:space="preserve" text-anchor="middle" x="307" y="-421.05" font-family="Arial" font-size="11.00" fill="white">VAD</text>
<text xml:space="preserve" text-anchor="middle" x="307" y="-407.55" font-family="Arial" font-size="11.00" fill="white">(GPU)</text>
</g>
<!-- omi_backend&#45;&gt;vad -->
<g id="edge7" class="edge">
<title>omi_backend&#45;&gt;vad</title>
<path fill="none" stroke="#2196f3" stroke-width="2" d="M252.8,-603C280.11,-603 307,-603 307,-603 307,-603 307,-449.44 307,-449.44"/>
<polygon fill="#2196f3" stroke="#2196f3" stroke-width="2" points="310.5,-449.44 307,-439.44 303.5,-449.44 310.5,-449.44"/>
</g>
<!-- redis -->
<g id="node13" class="node">
<title>redis</title>
<path fill="#9c27b0" stroke="black" d="M486,-146.73C486,-148.53 473.9,-150 459,-150 444.1,-150 432,-148.53 432,-146.73 432,-146.73 432,-117.27 432,-117.27 432,-115.47 444.1,-114 459,-114 473.9,-114 486,-115.47 486,-117.27 486,-117.27 486,-146.73 486,-146.73"/>
<path fill="none" stroke="black" d="M486,-146.73C486,-144.92 473.9,-143.45 459,-143.45 444.1,-143.45 432,-144.92 432,-146.73"/>
<text xml:space="preserve" text-anchor="middle" x="459" y="-128.5" font-family="Arial" font-size="10.00" fill="white">Redis</text>
</g>
<!-- omi_backend&#45;&gt;redis -->
<g id="edge15" class="edge">
<title>omi_backend&#45;&gt;redis</title>
<path fill="none" stroke="#9c27b0" stroke-width="1.5" d="M252.7,-610C325.66,-610 443.12,-610 443.12,-610 443.12,-610 443.12,-162.42 443.12,-162.42"/>
<polygon fill="#9c27b0" stroke="#9c27b0" stroke-width="1.5" points="446.63,-162.42 443.13,-152.42 439.63,-162.42 446.63,-162.42"/>
</g>
<!-- integrations -->
<g id="node19" class="node">
<title>integrations</title>
<polygon fill="#f44336" stroke="black" points="88.12,-52 15.88,-52 15.88,-16 88.12,-16 88.12,-52"/>
<text xml:space="preserve" text-anchor="middle" x="52" y="-30.3" font-family="Arial" font-size="11.00" fill="white">Integrations</text>
</g>
<!-- pusher&#45;&gt;integrations -->
<g id="edge19" class="edge">
<title>pusher&#45;&gt;integrations</title>
<path fill="none" stroke="#f44336" stroke-width="1.5" d="M63.88,-493.5C63.88,-493.5 63.88,-64.63 63.88,-64.63"/>
<polygon fill="#f44336" stroke="#f44336" stroke-width="1.5" points="67.38,-64.63 63.88,-54.63 60.38,-64.63 67.38,-64.63"/>
</g>
<!-- llms -->
<g id="node11" class="node">
<title>llms</title>
<path fill="#ff9800" stroke="black" d="M232,-436C232,-436 120,-436 120,-436 114,-436 108,-430 108,-424 108,-424 108,-412 108,-412 108,-406 114,-400 120,-400 120,-400 232,-400 232,-400 238,-400 244,-406 244,-412 244,-412 244,-424 244,-424 244,-430 238,-436 232,-436"/>
<text xml:space="preserve" text-anchor="middle" x="176" y="-421.05" font-family="Arial" font-size="11.00" fill="white">LLMs</text>
<text xml:space="preserve" text-anchor="middle" x="176" y="-407.55" font-family="Arial" font-size="11.00" fill="white">(OpenAI/Anthropic/Groq)</text>
</g>
<!-- agent_proxy&#45;&gt;llms -->
<g id="edge9" class="edge">
<title>agent_proxy&#45;&gt;llms</title>
<path fill="none" stroke="#ff9800" stroke-width="2" d="M204.19,-494.08C204.19,-494.08 204.19,-449.47 204.19,-449.47"/>
<polygon fill="#ff9800" stroke="#ff9800" stroke-width="2" points="207.69,-449.47 204.19,-439.47 200.69,-449.47 207.69,-449.47"/>
</g>
<!-- diarizer -->
<g id="node10" class="node">
<title>diarizer</title>
<path fill="#ff9800" stroke="black" d="M318,-248C318,-248 288,-248 288,-248 282,-248 276,-242 276,-236 276,-236 276,-224 276,-224 276,-218 282,-212 288,-212 288,-212 318,-212 318,-212 324,-212 330,-218 330,-224 330,-224 330,-236 330,-236 330,-242 324,-248 318,-248"/>
<text xml:space="preserve" text-anchor="middle" x="303" y="-233.05" font-family="Arial" font-size="11.00" fill="white">Diarizer</text>
<text xml:space="preserve" text-anchor="middle" x="303" y="-219.55" font-family="Arial" font-size="11.00" fill="white">(GPU)</text>
</g>
<!-- deepgram&#45;&gt;diarizer -->
<g id="edge11" class="edge">
<title>deepgram&#45;&gt;diarizer</title>
<path fill="none" stroke="#ff9800" stroke-width="1.5" d="M303,-305.88C303,-305.88 303,-260.66 303,-260.66"/>
<polygon fill="#ff9800" stroke="#ff9800" stroke-width="1.5" points="306.5,-260.66 303,-250.66 299.5,-260.66 306.5,-260.66"/>
</g>
<!-- vad&#45;&gt;deepgram -->
<g id="edge10" class="edge">
<title>vad&#45;&gt;deepgram</title>
<path fill="none" stroke="#ff9800" stroke-width="1.5" d="M306.75,-399.88C306.75,-399.88 306.75,-354.66 306.75,-354.66"/>
<polygon fill="#ff9800" stroke="#ff9800" stroke-width="1.5" points="310.25,-354.66 306.75,-344.66 303.25,-354.66 310.25,-354.66"/>
</g>
<!-- firestore -->
<g id="node12" class="node">
<title>firestore</title>
<path fill="#9c27b0" stroke="black" d="M396.12,-146.73C396.12,-148.53 383.97,-150 369,-150 354.03,-150 341.88,-148.53 341.88,-146.73 341.88,-146.73 341.88,-117.27 341.88,-117.27 341.88,-115.47 354.03,-114 369,-114 383.97,-114 396.12,-115.47 396.12,-117.27 396.12,-117.27 396.12,-146.73 396.12,-146.73"/>
<path fill="none" stroke="black" d="M396.12,-146.73C396.12,-144.92 383.97,-143.45 369,-143.45 354.03,-143.45 341.88,-144.92 341.88,-146.73"/>
<text xml:space="preserve" text-anchor="middle" x="369" y="-128.5" font-family="Arial" font-size="10.00" fill="white">Firestore</text>
</g>
<!-- diarizer&#45;&gt;firestore -->
<g id="edge12" class="edge">
<title>diarizer&#45;&gt;firestore</title>
<path fill="none" stroke="#9c27b0" stroke-width="1.5" d="M315.5,-211.57C315.5,-183.18 315.5,-132 315.5,-132 315.5,-132 329.35,-132 329.35,-132"/>
<polygon fill="#9c27b0" stroke="#9c27b0" stroke-width="1.5" points="329.35,-135.5 339.35,-132 329.35,-128.5 329.35,-135.5"/>
</g>
<!-- pinecone -->
<g id="node14" class="node">
<title>pinecone</title>
<path fill="#9c27b0" stroke="black" d="M170.5,-150C170.5,-152.21 155.48,-154 137,-154 118.52,-154 103.5,-152.21 103.5,-150 103.5,-150 103.5,-114 103.5,-114 103.5,-111.79 118.52,-110 137,-110 155.48,-110 170.5,-111.79 170.5,-114 170.5,-114 170.5,-150 170.5,-150"/>
<path fill="none" stroke="black" d="M170.5,-150C170.5,-147.79 155.48,-146 137,-146 118.52,-146 103.5,-147.79 103.5,-150"/>
<text xml:space="preserve" text-anchor="middle" x="137" y="-134.5" font-family="Arial" font-size="10.00" fill="white">Pinecone</text>
<text xml:space="preserve" text-anchor="middle" x="137" y="-122.5" font-family="Arial" font-size="10.00" fill="white">(Vector DB)</text>
</g>
<!-- llms&#45;&gt;pinecone -->
<g id="edge13" class="edge">
<title>llms&#45;&gt;pinecone</title>
<path fill="none" stroke="#9c27b0" stroke-width="1.5" d="M139.25,-399.67C139.25,-399.67 139.25,-166.69 139.25,-166.69"/>
<polygon fill="#9c27b0" stroke="#9c27b0" stroke-width="1.5" points="142.75,-166.69 139.25,-156.69 135.75,-166.69 142.75,-166.69"/>
</g>
<!-- neo4j -->
<g id="node15" class="node">
<title>neo4j</title>
<path fill="#9c27b0" stroke="black" d="M305.62,-150C305.62,-152.21 283.38,-154 256,-154 228.62,-154 206.38,-152.21 206.38,-150 206.38,-150 206.38,-114 206.38,-114 206.38,-111.79 228.62,-110 256,-110 283.38,-110 305.62,-111.79 305.62,-114 305.62,-114 305.62,-150 305.62,-150"/>
<path fill="none" stroke="black" d="M305.62,-150C305.62,-147.79 283.38,-146 256,-146 228.62,-146 206.38,-147.79 206.38,-150"/>
<text xml:space="preserve" text-anchor="middle" x="256" y="-134.5" font-family="Arial" font-size="10.00" fill="white">Neo4j</text>
<text xml:space="preserve" text-anchor="middle" x="256" y="-122.5" font-family="Arial" font-size="10.00" fill="white">(Knowledge Graph)</text>
</g>
<!-- llms&#45;&gt;neo4j -->
<g id="edge14" class="edge">
<title>llms&#45;&gt;neo4j</title>
<path fill="none" stroke="#9c27b0" stroke-width="1.5" d="M225.19,-399.67C225.19,-399.67 225.19,-166.29 225.19,-166.29"/>
<polygon fill="#9c27b0" stroke="#9c27b0" stroke-width="1.5" points="228.69,-166.29 225.19,-156.29 221.69,-166.29 228.69,-166.29"/>
</g>
<!-- memories -->
<g id="node17" class="node">
<title>memories</title>
<polygon fill="#f44336" stroke="black" points="388.62,-52 325.38,-52 325.38,-16 388.62,-16 388.62,-52"/>
<text xml:space="preserve" text-anchor="middle" x="357" y="-30.3" font-family="Arial" font-size="11.00" fill="white">Memories</text>
</g>
<!-- firestore&#45;&gt;memories -->
<g id="edge16" class="edge">
<title>firestore&#45;&gt;memories</title>
<path fill="none" stroke="#f44336" stroke-width="1.5" d="M365.25,-113.57C365.25,-113.57 365.25,-64.62 365.25,-64.62"/>
<polygon fill="#f44336" stroke="#f44336" stroke-width="1.5" points="368.75,-64.62 365.25,-54.62 361.75,-64.62 368.75,-64.62"/>
</g>
<!-- ai_chat -->
<g id="node16" class="node">
<title>ai_chat</title>
<polygon fill="#f44336" stroke="black" points="178,-52 124,-52 124,-16 178,-16 178,-52"/>
<text xml:space="preserve" text-anchor="middle" x="151" y="-30.3" font-family="Arial" font-size="11.00" fill="white">AI Chat</text>
</g>
<!-- pinecone&#45;&gt;ai_chat -->
<g id="edge17" class="edge">
<title>pinecone&#45;&gt;ai_chat</title>
<path fill="none" stroke="#f44336" stroke-width="1.5" d="M147.25,-109.76C147.25,-109.76 147.25,-64.48 147.25,-64.48"/>
<polygon fill="#f44336" stroke="#f44336" stroke-width="1.5" points="150.75,-64.48 147.25,-54.48 143.75,-64.48 150.75,-64.48"/>
</g>
<!-- action_items -->
<g id="node18" class="node">
<title>action_items</title>
<polygon fill="#f44336" stroke="black" points="289.62,-52 214.38,-52 214.38,-16 289.62,-16 289.62,-52"/>
<text xml:space="preserve" text-anchor="middle" x="252" y="-30.3" font-family="Arial" font-size="11.00" fill="white">Action Items</text>
</g>
<!-- neo4j&#45;&gt;action_items -->
<g id="edge18" class="edge">
<title>neo4j&#45;&gt;action_items</title>
<path fill="none" stroke="#f44336" stroke-width="1.5" d="M252,-109.76C252,-109.76 252,-64.48 252,-64.48"/>
<polygon fill="#f44336" stroke="#f44336" stroke-width="1.5" points="255.5,-64.48 252,-54.48 248.5,-64.48 255.5,-64.48"/>
</g>
</g>
</svg>
