<?xml version="1.0" encoding="UTF-8" standalone="no"?>
<!DOCTYPE svg PUBLIC "-//W3C//DTD SVG 1.1//EN"
 "http://www.w3.org/Graphics/SVG/1.1/DTD/svg11.dtd">
<!-- Generated by graphviz version 14.1.2 (0)
 -->
<!-- Title: openmontage_pipeline_workflow Pages: 1 -->
<svg width="341pt" height="1254pt"
 viewBox="0.00 0.00 341.00 1254.00" xmlns="http://www.w3.org/2000/svg" xmlns:xlink="http://www.w3.org/1999/xlink">
<style>
<!-- White text halo for edge label readability -->
text { paint-order: stroke; stroke: #ffffff; stroke-width: 3px; stroke-linejoin: round; fill: #1a1a2e; }
</style>
<g id="graph0" class="graph" transform="scale(1 1) rotate(0) translate(4 1249.5)">
<title>openmontage_pipeline_workflow</title>
<polygon fill="white" stroke="none" points="-4,4 -4,-1249.5 336.75,-1249.5 336.75,4 -4,4"/>
<text xml:space="preserve" text-anchor="middle" x="166.38" y="-7.2" font-family="Times New Roman,serif" font-size="14.00">OpenMontage &#45; Production Pipeline Workflow</text>
<!-- prompt -->
<g id="node1" class="node">
<title>prompt</title>
<path fill="#4caf50" stroke="black" d="M264.62,-1245.5C264.62,-1245.5 187.88,-1245.5 187.88,-1245.5 181.88,-1245.5 175.88,-1239.5 175.88,-1233.5 175.88,-1233.5 175.88,-1221.5 175.88,-1221.5 175.88,-1215.5 181.88,-1209.5 187.88,-1209.5 187.88,-1209.5 264.62,-1209.5 264.62,-1209.5 270.62,-1209.5 276.62,-1215.5 276.62,-1221.5 276.62,-1221.5 276.62,-1233.5 276.62,-1233.5 276.62,-1239.5 270.62,-1245.5 264.62,-1245.5"/>
<text xml:space="preserve" text-anchor="middle" x="226.25" y="-1230.55" font-family="Arial" font-size="11.00" fill="white">User Prompt</text>
<text xml:space="preserve" text-anchor="middle" x="226.25" y="-1217.05" font-family="Arial" font-size="11.00" fill="white">Video Description</text>
</g>
<!-- parse -->
<g id="node2" class="node">
<title>parse</title>
<path fill="#2196f3" stroke="black" d="M281.5,-1151.5C281.5,-1151.5 171,-1151.5 171,-1151.5 165,-1151.5 159,-1145.5 159,-1139.5 159,-1139.5 159,-1127 159,-1127 159,-1121 165,-1115 171,-1115 171,-1115 281.5,-1115 281.5,-1115 287.5,-1115 293.5,-1121 293.5,-1127 293.5,-1127 293.5,-1139.5 293.5,-1139.5 293.5,-1145.5 287.5,-1151.5 281.5,-1151.5"/>
<text xml:space="preserve" text-anchor="middle" x="226.25" y="-1136.1" font-family="Arial Bold" font-size="12.00" fill="white">Intent Parser</text>
<text xml:space="preserve" text-anchor="middle" x="226.25" y="-1121.85" font-family="Arial Bold" font-size="12.00" fill="white">Understand Request</text>
</g>
<!-- prompt&#45;&gt;parse -->
<g id="edge1" class="edge">
<title>prompt&#45;&gt;parse</title>
<path fill="none" stroke="#4caf50" stroke-width="2" d="M226.25,-1209.33C226.25,-1209.33 226.25,-1164.72 226.25,-1164.72"/>
<polygon fill="#4caf50" stroke="#4caf50" stroke-width="2" points="229.75,-1164.72 226.25,-1154.72 222.75,-1164.72 229.75,-1164.72"/>
</g>
<!-- plan -->
<g id="node3" class="node">
<title>plan</title>
<path fill="#2196f3" stroke="black" d="M286,-1057C286,-1057 166.5,-1057 166.5,-1057 160.5,-1057 154.5,-1051 154.5,-1045 154.5,-1045 154.5,-1032.5 154.5,-1032.5 154.5,-1026.5 160.5,-1020.5 166.5,-1020.5 166.5,-1020.5 286,-1020.5 286,-1020.5 292,-1020.5 298,-1026.5 298,-1032.5 298,-1032.5 298,-1045 298,-1045 298,-1051 292,-1057 286,-1057"/>
<text xml:space="preserve" text-anchor="middle" x="226.25" y="-1041.6" font-family="Arial Bold" font-size="12.00" fill="white">Production Planner</text>
<text xml:space="preserve" text-anchor="middle" x="226.25" y="-1027.35" font-family="Arial Bold" font-size="12.00" fill="white">Select Pipeline + Skills</text>
</g>
<!-- parse&#45;&gt;plan -->
<g id="edge2" class="edge">
<title>parse&#45;&gt;plan</title>
<path fill="none" stroke="#2196f3" stroke-width="2" d="M226.25,-1114.58C226.25,-1114.58 226.25,-1070.41 226.25,-1070.41"/>
<polygon fill="#2196f3" stroke="#2196f3" stroke-width="2" points="229.75,-1070.41 226.25,-1060.41 222.75,-1070.41 229.75,-1070.41"/>
</g>
<!-- has_context -->
<g id="node4" class="node">
<title>has_context</title>
<polygon fill="#f44336" stroke="black" points="171.25,-962.5 116.25,-930.5 171.25,-898.5 226.25,-930.5 171.25,-962.5"/>
<text xml:space="preserve" text-anchor="middle" x="171.25" y="-933" font-family="Arial Bold" font-size="10.00" fill="white">Existing</text>
<text xml:space="preserve" text-anchor="middle" x="171.25" y="-921" font-family="Arial Bold" font-size="10.00" fill="white">Project?</text>
</g>
<!-- plan&#45;&gt;has_context -->
<g id="edge3" class="edge">
<title>plan&#45;&gt;has_context</title>
<path fill="none" stroke="#2196f3" stroke-width="2" d="M190.38,-1020.39C190.38,-1020.39 190.38,-964.96 190.38,-964.96"/>
<polygon fill="#2196f3" stroke="#2196f3" stroke-width="2" points="193.88,-964.96 190.38,-954.96 186.88,-964.96 193.88,-964.96"/>
</g>
<!-- load_ctx -->
<g id="node5" class="node">
<title>load_ctx</title>
<path fill="#00bcd4" stroke="black" d="M74.5,-840.5C74.5,-840.5 12,-840.5 12,-840.5 6,-840.5 0,-834.5 0,-828.5 0,-828.5 0,-816.5 0,-816.5 0,-810.5 6,-804.5 12,-804.5 12,-804.5 74.5,-804.5 74.5,-804.5 80.5,-804.5 86.5,-810.5 86.5,-816.5 86.5,-816.5 86.5,-828.5 86.5,-828.5 86.5,-834.5 80.5,-840.5 74.5,-840.5"/>
<text xml:space="preserve" text-anchor="middle" x="43.25" y="-825" font-family="Arial" font-size="10.00" fill="white">Load Context</text>
<text xml:space="preserve" text-anchor="middle" x="43.25" y="-813" font-family="Arial" font-size="10.00" fill="white">Resume Project</text>
</g>
<!-- has_context&#45;&gt;load_ctx -->
<g id="edge4" class="edge">
<title>has_context&#45;&gt;load_ctx</title>
<path fill="none" stroke="#4caf50" stroke-width="2" d="M115.48,-930.5C80.99,-930.5 43.25,-930.5 43.25,-930.5 43.25,-930.5 43.25,-853.85 43.25,-853.85"/>
<polygon fill="#4caf50" stroke="#4caf50" stroke-width="2" points="46.75,-853.85 43.25,-843.85 39.75,-853.85 46.75,-853.85"/>
<text xml:space="preserve" text-anchor="middle" x="33.13" y="-931.49" font-family="Times New Roman,serif" font-size="14.00">Yes</text>
</g>
<!-- new_ctx -->
<g id="node6" class="node">
<title>new_ctx</title>
<path fill="#00bcd4" stroke="black" d="M212.38,-840.5C212.38,-840.5 134.12,-840.5 134.12,-840.5 128.12,-840.5 122.12,-834.5 122.12,-828.5 122.12,-828.5 122.12,-816.5 122.12,-816.5 122.12,-810.5 128.12,-804.5 134.12,-804.5 134.12,-804.5 212.38,-804.5 212.38,-804.5 218.38,-804.5 224.38,-810.5 224.38,-816.5 224.38,-816.5 224.38,-828.5 224.38,-828.5 224.38,-834.5 218.38,-840.5 212.38,-840.5"/>
<text xml:space="preserve" text-anchor="middle" x="173.25" y="-825" font-family="Arial" font-size="10.00" fill="white">Create New Project</text>
<text xml:space="preserve" text-anchor="middle" x="173.25" y="-813" font-family="Arial" font-size="10.00" fill="white">Initialize State</text>
</g>
<!-- has_context&#45;&gt;new_ctx -->
<g id="edge5" class="edge">
<title>has_context&#45;&gt;new_ctx</title>
<path fill="none" stroke="#f44336" stroke-width="2" d="M173.25,-899.26C173.25,-899.26 173.25,-853.86 173.25,-853.86"/>
<polygon fill="#f44336" stroke="#f44336" stroke-width="2" points="176.75,-853.86 173.25,-843.86 169.75,-853.86 176.75,-853.86"/>
<text xml:space="preserve" text-anchor="middle" x="165" y="-879.76" font-family="Times New Roman,serif" font-size="14.00">No</text>
</g>
<!-- script_pipe -->
<g id="node7" class="node">
<title>script_pipe</title>
<path fill="#ff9800" stroke="black" d="M198.88,-746.5C198.88,-746.5 99.62,-746.5 99.62,-746.5 93.62,-746.5 87.62,-740.5 87.62,-734.5 87.62,-734.5 87.62,-722.5 87.62,-722.5 87.62,-716.5 93.62,-710.5 99.62,-710.5 99.62,-710.5 198.88,-710.5 198.88,-710.5 204.88,-710.5 210.88,-716.5 210.88,-722.5 210.88,-722.5 210.88,-734.5 210.88,-734.5 210.88,-740.5 204.88,-746.5 198.88,-746.5"/>
<text xml:space="preserve" text-anchor="middle" x="149.25" y="-731.55" font-family="Arial Bold" font-size="11.00" fill="white">Script Pipeline</text>
<text xml:space="preserve" text-anchor="middle" x="149.25" y="-718.05" font-family="Arial Bold" font-size="11.00" fill="white">Narrative + Dialogue</text>
</g>
<!-- load_ctx&#45;&gt;script_pipe -->
<g id="edge6" class="edge">
<title>load_ctx&#45;&gt;script_pipe</title>
<path fill="none" stroke="#00bcd4" stroke-width="1.5" d="M86.82,-822.5C95.47,-822.5 101.94,-822.5 101.94,-822.5 101.94,-822.5 101.94,-758.89 101.94,-758.89"/>
<polygon fill="#00bcd4" stroke="#00bcd4" stroke-width="1.5" points="105.44,-758.89 101.94,-748.89 98.44,-758.89 105.44,-758.89"/>
</g>
<!-- new_ctx&#45;&gt;script_pipe -->
<g id="edge7" class="edge">
<title>new_ctx&#45;&gt;script_pipe</title>
<path fill="none" stroke="#00bcd4" stroke-width="1.5" d="M166.5,-804.38C166.5,-804.38 166.5,-759.16 166.5,-759.16"/>
<polygon fill="#00bcd4" stroke="#00bcd4" stroke-width="1.5" points="170,-759.16 166.5,-749.16 163,-759.16 170,-759.16"/>
</g>
<!-- visual_pipe -->
<g id="node8" class="node">
<title>visual_pipe</title>
<path fill="#ff9800" stroke="black" d="M195.5,-652.5C195.5,-652.5 103,-652.5 103,-652.5 97,-652.5 91,-646.5 91,-640.5 91,-640.5 91,-628.5 91,-628.5 91,-622.5 97,-616.5 103,-616.5 103,-616.5 195.5,-616.5 195.5,-616.5 201.5,-616.5 207.5,-622.5 207.5,-628.5 207.5,-628.5 207.5,-640.5 207.5,-640.5 207.5,-646.5 201.5,-652.5 195.5,-652.5"/>
<text xml:space="preserve" text-anchor="middle" x="149.25" y="-637.55" font-family="Arial Bold" font-size="11.00" fill="white">Visual Pipeline</text>
<text xml:space="preserve" text-anchor="middle" x="149.25" y="-624.05" font-family="Arial Bold" font-size="11.00" fill="white">Scene + Image Gen</text>
</g>
<!-- script_pipe&#45;&gt;visual_pipe -->
<g id="edge8" class="edge">
<title>script_pipe&#45;&gt;visual_pipe</title>
<path fill="none" stroke="#ff9800" stroke-width="2" d="M149.25,-710.38C149.25,-710.38 149.25,-665.92 149.25,-665.92"/>
<polygon fill="#ff9800" stroke="#ff9800" stroke-width="2" points="152.75,-665.92 149.25,-655.92 145.75,-665.92 152.75,-665.92"/>
</g>
<!-- audio_pipe -->
<g id="node9" class="node">
<title>audio_pipe</title>
<path fill="#ff9800" stroke="black" d="M198.5,-558.5C198.5,-558.5 100,-558.5 100,-558.5 94,-558.5 88,-552.5 88,-546.5 88,-546.5 88,-534.5 88,-534.5 88,-528.5 94,-522.5 100,-522.5 100,-522.5 198.5,-522.5 198.5,-522.5 204.5,-522.5 210.5,-528.5 210.5,-534.5 210.5,-534.5 210.5,-546.5 210.5,-546.5 210.5,-552.5 204.5,-558.5 198.5,-558.5"/>
<text xml:space="preserve" text-anchor="middle" x="149.25" y="-543.55" font-family="Arial Bold" font-size="11.00" fill="white">Audio Pipeline</text>
<text xml:space="preserve" text-anchor="middle" x="149.25" y="-530.05" font-family="Arial Bold" font-size="11.00" fill="white">Voice + Music + SFX</text>
</g>
<!-- visual_pipe&#45;&gt;audio_pipe -->
<g id="edge9" class="edge">
<title>visual_pipe&#45;&gt;audio_pipe</title>
<path fill="none" stroke="#ff9800" stroke-width="2" d="M149.25,-616.38C149.25,-616.38 149.25,-571.92 149.25,-571.92"/>
<polygon fill="#ff9800" stroke="#ff9800" stroke-width="2" points="152.75,-571.92 149.25,-561.92 145.75,-571.92 152.75,-571.92"/>
</g>
<!-- edit_pipe -->
<g id="node10" class="node">
<title>edit_pipe</title>
<path fill="#ff9800" stroke="black" d="M206.75,-464.5C206.75,-464.5 91.75,-464.5 91.75,-464.5 85.75,-464.5 79.75,-458.5 79.75,-452.5 79.75,-452.5 79.75,-440.5 79.75,-440.5 79.75,-434.5 85.75,-428.5 91.75,-428.5 91.75,-428.5 206.75,-428.5 206.75,-428.5 212.75,-428.5 218.75,-434.5 218.75,-440.5 218.75,-440.5 218.75,-452.5 218.75,-452.5 218.75,-458.5 212.75,-464.5 206.75,-464.5"/>
<text xml:space="preserve" text-anchor="middle" x="149.25" y="-449.55" font-family="Arial Bold" font-size="11.00" fill="white">Edit Pipeline</text>
<text xml:space="preserve" text-anchor="middle" x="149.25" y="-436.05" font-family="Arial Bold" font-size="11.00" fill="white">Assembly + Transitions</text>
</g>
<!-- audio_pipe&#45;&gt;edit_pipe -->
<g id="edge10" class="edge">
<title>audio_pipe&#45;&gt;edit_pipe</title>
<path fill="none" stroke="#ff9800" stroke-width="2" d="M149.25,-522.38C149.25,-522.38 149.25,-477.92 149.25,-477.92"/>
<polygon fill="#ff9800" stroke="#ff9800" stroke-width="2" points="152.75,-477.92 149.25,-467.92 145.75,-477.92 152.75,-477.92"/>
</g>
<!-- review -->
<g id="node11" class="node">
<title>review</title>
<path fill="#9c27b0" stroke="black" d="M192.12,-370.5C192.12,-370.5 106.38,-370.5 106.38,-370.5 100.38,-370.5 94.38,-364.5 94.38,-358.5 94.38,-358.5 94.38,-346.5 94.38,-346.5 94.38,-340.5 100.38,-334.5 106.38,-334.5 106.38,-334.5 192.12,-334.5 192.12,-334.5 198.12,-334.5 204.12,-340.5 204.12,-346.5 204.12,-346.5 204.12,-358.5 204.12,-358.5 204.12,-364.5 198.12,-370.5 192.12,-370.5"/>
<text xml:space="preserve" text-anchor="middle" x="149.25" y="-355.55" font-family="Arial Bold" font-size="11.00" fill="white">Quality Review</text>
<text xml:space="preserve" text-anchor="middle" x="149.25" y="-342.05" font-family="Arial Bold" font-size="11.00" fill="white">Agent Verification</text>
</g>
<!-- edit_pipe&#45;&gt;review -->
<g id="edge11" class="edge">
<title>edit_pipe&#45;&gt;review</title>
<path fill="none" stroke="#9c27b0" stroke-width="2" d="M149.25,-428.38C149.25,-428.38 149.25,-383.92 149.25,-383.92"/>
<polygon fill="#9c27b0" stroke="#9c27b0" stroke-width="2" points="152.75,-383.92 149.25,-373.92 145.75,-383.92 152.75,-383.92"/>
</g>
<!-- satisfied -->
<g id="node12" class="node">
<title>satisfied</title>
<polygon fill="#f44336" stroke="black" points="149.25,-276.5 93.5,-244.5 149.25,-212.5 205,-244.5 149.25,-276.5"/>
<text xml:space="preserve" text-anchor="middle" x="149.25" y="-247" font-family="Arial Bold" font-size="10.00" fill="white">Quality</text>
<text xml:space="preserve" text-anchor="middle" x="149.25" y="-235" font-family="Arial Bold" font-size="10.00" fill="white">Passed?</text>
</g>
<!-- review&#45;&gt;satisfied -->
<g id="edge12" class="edge">
<title>review&#45;&gt;satisfied</title>
<path fill="none" stroke="#9c27b0" stroke-width="2" d="M149.25,-334.18C149.25,-334.18 149.25,-289.94 149.25,-289.94"/>
<polygon fill="#9c27b0" stroke="#9c27b0" stroke-width="2" points="152.75,-289.94 149.25,-279.94 145.75,-289.94 152.75,-289.94"/>
</g>
<!-- refine -->
<g id="node13" class="node">
<title>refine</title>
<path fill="#ef6c00" stroke="black" d="M320.75,-154.5C320.75,-154.5 241.75,-154.5 241.75,-154.5 235.75,-154.5 229.75,-148.5 229.75,-142.5 229.75,-142.5 229.75,-130.5 229.75,-130.5 229.75,-124.5 235.75,-118.5 241.75,-118.5 241.75,-118.5 320.75,-118.5 320.75,-118.5 326.75,-118.5 332.75,-124.5 332.75,-130.5 332.75,-130.5 332.75,-142.5 332.75,-142.5 332.75,-148.5 326.75,-154.5 320.75,-154.5"/>
<text xml:space="preserve" text-anchor="middle" x="281.25" y="-139" font-family="Arial" font-size="10.00" fill="white">Refine + Iterate</text>
<text xml:space="preserve" text-anchor="middle" x="281.25" y="-127" font-family="Arial" font-size="10.00" fill="white">Re&#45;run Failed Steps</text>
</g>
<!-- satisfied&#45;&gt;refine -->
<g id="edge14" class="edge">
<title>satisfied&#45;&gt;refine</title>
<path fill="none" stroke="#f44336" stroke-width="1.5" d="M205.71,-244.5C229.81,-244.5 252.5,-244.5 252.5,-244.5 252.5,-244.5 252.5,-167.09 252.5,-167.09"/>
<polygon fill="#f44336" stroke="#f44336" stroke-width="1.5" points="256,-167.09 252.5,-157.09 249,-167.09 256,-167.09"/>
<text xml:space="preserve" text-anchor="middle" x="244.25" y="-232.39" font-family="Times New Roman,serif" font-size="14.00">No</text>
</g>
<!-- render -->
<g id="node14" class="node">
<title>render</title>
<path fill="#795548" stroke="black" d="M182,-154.5C182,-154.5 104.5,-154.5 104.5,-154.5 98.5,-154.5 92.5,-148.5 92.5,-142.5 92.5,-142.5 92.5,-130.5 92.5,-130.5 92.5,-124.5 98.5,-118.5 104.5,-118.5 104.5,-118.5 182,-118.5 182,-118.5 188,-118.5 194,-124.5 194,-130.5 194,-130.5 194,-142.5 194,-142.5 194,-148.5 188,-154.5 182,-154.5"/>
<text xml:space="preserve" text-anchor="middle" x="143.25" y="-139.55" font-family="Arial Bold" font-size="11.00" fill="white">Render Pipeline</text>
<text xml:space="preserve" text-anchor="middle" x="143.25" y="-126.05" font-family="Arial Bold" font-size="11.00" fill="white">FFmpeg Encode</text>
</g>
<!-- satisfied&#45;&gt;render -->
<g id="edge13" class="edge">
<title>satisfied&#45;&gt;render</title>
<path fill="none" stroke="#4caf50" stroke-width="2" d="M143.75,-215.27C143.75,-215.27 143.75,-167.91 143.75,-167.91"/>
<polygon fill="#4caf50" stroke="#4caf50" stroke-width="2" points="147.25,-167.91 143.75,-157.91 140.25,-167.91 147.25,-167.91"/>
<text xml:space="preserve" text-anchor="middle" x="133.62" y="-194.79" font-family="Times New Roman,serif" font-size="14.00">Yes</text>
</g>
<!-- refine&#45;&gt;plan -->
<g id="edge15" class="edge">
<title>refine&#45;&gt;plan</title>
<path fill="none" stroke="#ef6c00" stroke-width="1.5" stroke-dasharray="5,2" d="M275.25,-154.93C275.25,-154.93 275.25,-1008.08 275.25,-1008.08"/>
<polygon fill="#ef6c00" stroke="#ef6c00" stroke-width="1.5" points="271.75,-1008.08 275.25,-1018.08 278.75,-1008.08 271.75,-1008.08"/>
<text xml:space="preserve" text-anchor="middle" x="253.88" y="-584.7" font-family="Times New Roman,serif" font-size="14.00">Re&#45;plan</text>
</g>
<!-- final -->
<g id="node15" class="node">
<title>final</title>
<path fill="#f44336" stroke="black" d="M187.62,-60.5C187.62,-60.5 98.88,-60.5 98.88,-60.5 92.88,-60.5 86.88,-54.5 86.88,-48.5 86.88,-48.5 86.88,-36.5 86.88,-36.5 86.88,-30.5 92.88,-24.5 98.88,-24.5 98.88,-24.5 187.62,-24.5 187.62,-24.5 193.62,-24.5 199.62,-30.5 199.62,-36.5 199.62,-36.5 199.62,-48.5 199.62,-48.5 199.62,-54.5 193.62,-60.5 187.62,-60.5"/>
<text xml:space="preserve" text-anchor="middle" x="143.25" y="-45.55" font-family="Arial" font-size="11.00" fill="white">Final Video</text>
<text xml:space="preserve" text-anchor="middle" x="143.25" y="-32.05" font-family="Arial" font-size="11.00" fill="white">MP4 / MOV / WebM</text>
</g>
<!-- render&#45;&gt;final -->
<g id="edge16" class="edge">
<title>render&#45;&gt;final</title>
<path fill="none" stroke="#f44336" stroke-width="2.5" d="M143.25,-118.38C143.25,-118.38 143.25,-74.67 143.25,-74.67"/>
<polygon fill="#f44336" stroke="#f44336" stroke-width="2.5" points="146.75,-74.67 143.25,-64.67 139.75,-74.67 146.75,-74.67"/>
</g>
</g>
</svg>
