<?xml version="1.0" encoding="UTF-8" standalone="no"?>
<!DOCTYPE svg PUBLIC "-//W3C//DTD SVG 1.1//EN"
 "http://www.w3.org/Graphics/SVG/1.1/DTD/svg11.dtd">
<!-- Generated by graphviz version 14.1.2 (0)
 -->
<!-- Title: openmontage_architecture Pages: 1 -->
<svg width="2051pt" height="465pt"
 viewBox="0.00 0.00 2051.00 465.00" xmlns="http://www.w3.org/2000/svg" xmlns:xlink="http://www.w3.org/1999/xlink">
<style>
<!-- White text halo for edge label readability -->
text { paint-order: stroke; stroke: #ffffff; stroke-width: 3px; stroke-linejoin: round; fill: #1a1a2e; }
</style>
<g id="graph0" class="graph" transform="scale(1 1) rotate(0) translate(4 461)">
<title>openmontage_architecture</title>
<polygon fill="white" stroke="none" points="-4,4 -4,-461 2046.62,-461 2046.62,4 -4,4"/>
<text xml:space="preserve" text-anchor="middle" x="1021.31" y="-7.2" font-family="Times New Roman,serif" font-size="14.00">OpenMontage &#45; Agentic Architecture Overview</text>
<g id="clust1" class="cluster">
<title>cluster_pipelines</title>
<polygon fill="#fff3e0" stroke="black" points="8,-32.5 8,-109 727,-109 727,-32.5 8,-32.5"/>
<text xml:space="preserve" text-anchor="middle" x="367.5" y="-91.7" font-family="Times New Roman,serif" font-size="14.00">12 Production Pipelines</text>
</g>
<g id="clust2" class="cluster">
<title>cluster_skills</title>
<polygon fill="#f3e5f5" stroke="black" points="747,-32.5 747,-109 1303,-109 1303,-32.5 747,-32.5"/>
<text xml:space="preserve" text-anchor="middle" x="1025" y="-91.7" font-family="Times New Roman,serif" font-size="14.00">500+ Agent Skills</text>
</g>
<g id="clust3" class="cluster">
<title>cluster_tools</title>
<polygon fill="#fbe9e7" stroke="black" points="1323,-32.5 1323,-109 1766,-109 1766,-32.5 1323,-32.5"/>
<text xml:space="preserve" text-anchor="middle" x="1544.5" y="-91.7" font-family="Times New Roman,serif" font-size="14.00">52 Production Tools</text>
</g>
<!-- user -->
<g id="node1" class="node">
<title>user</title>
<path fill="#4caf50" stroke="black" d="M1549.75,-457C1549.75,-457 1478.25,-457 1478.25,-457 1472.25,-457 1466.25,-451 1466.25,-445 1466.25,-445 1466.25,-433 1466.25,-433 1466.25,-427 1472.25,-421 1478.25,-421 1478.25,-421 1549.75,-421 1549.75,-421 1555.75,-421 1561.75,-427 1561.75,-433 1561.75,-433 1561.75,-445 1561.75,-445 1561.75,-451 1555.75,-457 1549.75,-457"/>
<text xml:space="preserve" text-anchor="middle" x="1514" y="-442.05" font-family="Arial" font-size="11.00" fill="white">User / Creator</text>
<text xml:space="preserve" text-anchor="middle" x="1514" y="-428.55" font-family="Arial" font-size="11.00" fill="white">Prompt + Assets</text>
</g>
<!-- ai_assistant -->
<g id="node2" class="node">
<title>ai_assistant</title>
<path fill="#81c784" stroke="black" d="M1564,-363C1564,-363 1464,-363 1464,-363 1458,-363 1452,-357 1452,-351 1452,-351 1452,-339 1452,-339 1452,-333 1458,-327 1464,-327 1464,-327 1564,-327 1564,-327 1570,-327 1576,-333 1576,-339 1576,-339 1576,-351 1576,-351 1576,-357 1570,-363 1564,-363"/>
<text xml:space="preserve" text-anchor="middle" x="1514" y="-348.05" font-family="Arial" font-size="11.00">AI Coding Assistant</text>
<text xml:space="preserve" text-anchor="middle" x="1514" y="-334.55" font-family="Arial" font-size="11.00">Claude / GPT / Cursor</text>
</g>
<!-- user&#45;&gt;ai_assistant -->
<g id="edge1" class="edge">
<title>user&#45;&gt;ai_assistant</title>
<path fill="none" stroke="#4caf50" stroke-width="2" d="M1514,-420.88C1514,-420.88 1514,-376.42 1514,-376.42"/>
<polygon fill="#4caf50" stroke="#4caf50" stroke-width="2" points="1517.5,-376.42 1514,-366.42 1510.5,-376.42 1517.5,-376.42"/>
</g>
<!-- orchestrator -->
<g id="node3" class="node">
<title>orchestrator</title>
<path fill="#2196f3" stroke="black" d="M1594.75,-269C1594.75,-269 1433.25,-269 1433.25,-269 1427.25,-269 1421.25,-263 1421.25,-257 1421.25,-257 1421.25,-244.5 1421.25,-244.5 1421.25,-238.5 1427.25,-232.5 1433.25,-232.5 1433.25,-232.5 1594.75,-232.5 1594.75,-232.5 1600.75,-232.5 1606.75,-238.5 1606.75,-244.5 1606.75,-244.5 1606.75,-257 1606.75,-257 1606.75,-263 1600.75,-269 1594.75,-269"/>
<text xml:space="preserve" text-anchor="middle" x="1514" y="-253.6" font-family="Arial Bold" font-size="12.00" fill="white">OpenMontage Orchestrator</text>
<text xml:space="preserve" text-anchor="middle" x="1514" y="-239.35" font-family="Arial Bold" font-size="12.00" fill="white">Pipeline Manager + Scheduler</text>
</g>
<!-- ai_assistant&#45;&gt;orchestrator -->
<g id="edge2" class="edge">
<title>ai_assistant&#45;&gt;orchestrator</title>
<path fill="none" stroke="#2196f3" stroke-width="2.5" d="M1514,-326.83C1514,-326.83 1514,-282.97 1514,-282.97"/>
<polygon fill="#2196f3" stroke="#2196f3" stroke-width="2.5" points="1517.5,-282.97 1514,-272.97 1510.5,-282.97 1517.5,-282.97"/>
</g>
<!-- pipeline_router -->
<g id="node4" class="node">
<title>pipeline_router</title>
<path fill="#ff9800" stroke="black" d="M487.25,-174.5C487.25,-174.5 370.75,-174.5 370.75,-174.5 364.75,-174.5 358.75,-168.5 358.75,-162.5 358.75,-162.5 358.75,-150.5 358.75,-150.5 358.75,-144.5 364.75,-138.5 370.75,-138.5 370.75,-138.5 487.25,-138.5 487.25,-138.5 493.25,-138.5 499.25,-144.5 499.25,-150.5 499.25,-150.5 499.25,-162.5 499.25,-162.5 499.25,-168.5 493.25,-174.5 487.25,-174.5"/>
<text xml:space="preserve" text-anchor="middle" x="429" y="-159.55" font-family="Arial Bold" font-size="11.00" fill="white">Pipeline Router</text>
<text xml:space="preserve" text-anchor="middle" x="429" y="-146.05" font-family="Arial Bold" font-size="11.00" fill="white">12 Production Pipelines</text>
</g>
<!-- orchestrator&#45;&gt;pipeline_router -->
<g id="edge3" class="edge">
<title>orchestrator&#45;&gt;pipeline_router</title>
<path fill="none" stroke="#ff9800" stroke-width="2" d="M1421.02,-250.5C1158.24,-250.5 429,-250.5 429,-250.5 429,-250.5 429,-187.65 429,-187.65"/>
<polygon fill="#ff9800" stroke="#ff9800" stroke-width="2" points="432.5,-187.65 429,-177.65 425.5,-187.65 432.5,-187.65"/>
</g>
<!-- skill_registry -->
<g id="node5" class="node">
<title>skill_registry</title>
<path fill="#9c27b0" stroke="black" d="M1124.38,-174.5C1124.38,-174.5 1041.62,-174.5 1041.62,-174.5 1035.62,-174.5 1029.62,-168.5 1029.62,-162.5 1029.62,-162.5 1029.62,-150.5 1029.62,-150.5 1029.62,-144.5 1035.62,-138.5 1041.62,-138.5 1041.62,-138.5 1124.38,-138.5 1124.38,-138.5 1130.38,-138.5 1136.38,-144.5 1136.38,-150.5 1136.38,-150.5 1136.38,-162.5 1136.38,-162.5 1136.38,-168.5 1130.38,-174.5 1124.38,-174.5"/>
<text xml:space="preserve" text-anchor="middle" x="1083" y="-159.55" font-family="Arial Bold" font-size="11.00" fill="white">Skill Registry</text>
<text xml:space="preserve" text-anchor="middle" x="1083" y="-146.05" font-family="Arial Bold" font-size="11.00" fill="white">500+ Agent Skills</text>
</g>
<!-- orchestrator&#45;&gt;skill_registry -->
<g id="edge4" class="edge">
<title>orchestrator&#45;&gt;skill_registry</title>
<path fill="none" stroke="#9c27b0" stroke-width="2" d="M1437.38,-232.25C1437.38,-207.18 1437.38,-165.5 1437.38,-165.5 1437.38,-165.5 1149.85,-165.5 1149.85,-165.5"/>
<polygon fill="#9c27b0" stroke="#9c27b0" stroke-width="2" points="1149.85,-162 1139.85,-165.5 1149.85,-169 1149.85,-162"/>
</g>
<!-- tool_registry -->
<g id="node6" class="node">
<title>tool_registry</title>
<path fill="#ff5722" stroke="black" d="M1562.5,-174.5C1562.5,-174.5 1465.5,-174.5 1465.5,-174.5 1459.5,-174.5 1453.5,-168.5 1453.5,-162.5 1453.5,-162.5 1453.5,-150.5 1453.5,-150.5 1453.5,-144.5 1459.5,-138.5 1465.5,-138.5 1465.5,-138.5 1562.5,-138.5 1562.5,-138.5 1568.5,-138.5 1574.5,-144.5 1574.5,-150.5 1574.5,-150.5 1574.5,-162.5 1574.5,-162.5 1574.5,-168.5 1568.5,-174.5 1562.5,-174.5"/>
<text xml:space="preserve" text-anchor="middle" x="1514" y="-159.55" font-family="Arial Bold" font-size="11.00" fill="white">Tool Registry</text>
<text xml:space="preserve" text-anchor="middle" x="1514" y="-146.05" font-family="Arial Bold" font-size="11.00" fill="white">52 Production Tools</text>
</g>
<!-- orchestrator&#45;&gt;tool_registry -->
<g id="edge5" class="edge">
<title>orchestrator&#45;&gt;tool_registry</title>
<path fill="none" stroke="#ff5722" stroke-width="2" d="M1514,-232.13C1514,-232.13 1514,-187.79 1514,-187.79"/>
<polygon fill="#ff5722" stroke="#ff5722" stroke-width="2" points="1517.5,-187.79 1514,-177.79 1510.5,-187.79 1517.5,-187.79"/>
</g>
<!-- context_mgr -->
<g id="node7" class="node">
<title>context_mgr</title>
<path fill="#00bcd4" stroke="black" d="M1804,-174.5C1804,-174.5 1698,-174.5 1698,-174.5 1692,-174.5 1686,-168.5 1686,-162.5 1686,-162.5 1686,-150.5 1686,-150.5 1686,-144.5 1692,-138.5 1698,-138.5 1698,-138.5 1804,-138.5 1804,-138.5 1810,-138.5 1816,-144.5 1816,-150.5 1816,-150.5 1816,-162.5 1816,-162.5 1816,-168.5 1810,-174.5 1804,-174.5"/>
<text xml:space="preserve" text-anchor="middle" x="1751" y="-159.55" font-family="Arial" font-size="11.00" fill="white">Context Manager</text>
<text xml:space="preserve" text-anchor="middle" x="1751" y="-146.05" font-family="Arial" font-size="11.00" fill="white">Project State + Memory</text>
</g>
<!-- orchestrator&#45;&gt;context_mgr -->
<g id="edge6" class="edge">
<title>orchestrator&#45;&gt;context_mgr</title>
<path fill="none" stroke="#00bcd4" stroke-width="1.5" d="M1596,-232.25C1596,-207.18 1596,-165.5 1596,-165.5 1596,-165.5 1673.44,-165.5 1673.44,-165.5"/>
<polygon fill="#00bcd4" stroke="#00bcd4" stroke-width="1.5" points="1673.44,-169 1683.44,-165.5 1673.44,-162 1673.44,-169"/>
</g>
<!-- render_engine -->
<g id="node8" class="node">
<title>render_engine</title>
<path fill="#795548" stroke="black" d="M2030.62,-174.5C2030.62,-174.5 1901.38,-174.5 1901.38,-174.5 1895.38,-174.5 1889.38,-168.5 1889.38,-162.5 1889.38,-162.5 1889.38,-150.5 1889.38,-150.5 1889.38,-144.5 1895.38,-138.5 1901.38,-138.5 1901.38,-138.5 2030.62,-138.5 2030.62,-138.5 2036.62,-138.5 2042.62,-144.5 2042.62,-150.5 2042.62,-150.5 2042.62,-162.5 2042.62,-162.5 2042.62,-168.5 2036.62,-174.5 2030.62,-174.5"/>
<text xml:space="preserve" text-anchor="middle" x="1966" y="-159.55" font-family="Arial" font-size="11.00" fill="white">Render Engine</text>
<text xml:space="preserve" text-anchor="middle" x="1966" y="-146.05" font-family="Arial" font-size="11.00" fill="white">FFmpeg + Video Processing</text>
</g>
<!-- orchestrator&#45;&gt;render_engine -->
<g id="edge7" class="edge">
<title>orchestrator&#45;&gt;render_engine</title>
<path fill="none" stroke="#795548" stroke-width="2" d="M1607.11,-250.5C1739.42,-250.5 1966,-250.5 1966,-250.5 1966,-250.5 1966,-187.65 1966,-187.65"/>
<polygon fill="#795548" stroke="#795548" stroke-width="2" points="1969.5,-187.65 1966,-177.65 1962.5,-187.65 1969.5,-187.65"/>
</g>
<!-- pipe_script -->
<g id="node11" class="node">
<title>pipe_script</title>
<path fill="#ff9800" stroke="black" d="M93.75,-76.5C93.75,-76.5 28.25,-76.5 28.25,-76.5 22.25,-76.5 16.25,-70.5 16.25,-64.5 16.25,-64.5 16.25,-52.5 16.25,-52.5 16.25,-46.5 22.25,-40.5 28.25,-40.5 28.25,-40.5 93.75,-40.5 93.75,-40.5 99.75,-40.5 105.75,-46.5 105.75,-52.5 105.75,-52.5 105.75,-64.5 105.75,-64.5 105.75,-70.5 99.75,-76.5 93.75,-76.5"/>
<text xml:space="preserve" text-anchor="middle" x="61" y="-60.45" font-family="Arial" font-size="9.00" fill="white">Script Writing</text>
<text xml:space="preserve" text-anchor="middle" x="61" y="-49.95" font-family="Arial" font-size="9.00" fill="white">Narrative Pipeline</text>
</g>
<!-- pipeline_router&#45;&gt;pipe_script -->
<g id="edge9" class="edge">
<title>pipeline_router&#45;&gt;pipe_script</title>
<path fill="none" stroke="#ff9800" stroke-width="1.5" d="M358.48,-162.5C251.63,-162.5 61,-162.5 61,-162.5 61,-162.5 61,-88.89 61,-88.89"/>
<polygon fill="#ff9800" stroke="#ff9800" stroke-width="1.5" points="64.5,-88.89 61,-78.89 57.5,-88.89 64.5,-88.89"/>
</g>
<!-- pipe_scene -->
<g id="node12" class="node">
<title>pipe_scene</title>
<path fill="#ff9800" stroke="black" d="M220.12,-76.5C220.12,-76.5 153.88,-76.5 153.88,-76.5 147.88,-76.5 141.88,-70.5 141.88,-64.5 141.88,-64.5 141.88,-52.5 141.88,-52.5 141.88,-46.5 147.88,-40.5 153.88,-40.5 153.88,-40.5 220.12,-40.5 220.12,-40.5 226.12,-40.5 232.12,-46.5 232.12,-52.5 232.12,-52.5 232.12,-64.5 232.12,-64.5 232.12,-70.5 226.12,-76.5 220.12,-76.5"/>
<text xml:space="preserve" text-anchor="middle" x="187" y="-60.45" font-family="Arial" font-size="9.00" fill="white">Scene Generation</text>
<text xml:space="preserve" text-anchor="middle" x="187" y="-49.95" font-family="Arial" font-size="9.00" fill="white">Visual Pipeline</text>
</g>
<!-- pipeline_router&#45;&gt;pipe_scene -->
<g id="edge10" class="edge">
<title>pipeline_router&#45;&gt;pipe_scene</title>
<path fill="none" stroke="#ff9800" stroke-width="1.5" d="M358.35,-150.5C286.92,-150.5 187,-150.5 187,-150.5 187,-150.5 187,-88.95 187,-88.95"/>
<polygon fill="#ff9800" stroke="#ff9800" stroke-width="1.5" points="190.5,-88.95 187,-78.95 183.5,-88.95 190.5,-88.95"/>
</g>
<!-- pipe_audio -->
<g id="node13" class="node">
<title>pipe_audio</title>
<path fill="#ff9800" stroke="black" d="M335.5,-76.5C335.5,-76.5 280.5,-76.5 280.5,-76.5 274.5,-76.5 268.5,-70.5 268.5,-64.5 268.5,-64.5 268.5,-52.5 268.5,-52.5 268.5,-46.5 274.5,-40.5 280.5,-40.5 280.5,-40.5 335.5,-40.5 335.5,-40.5 341.5,-40.5 347.5,-46.5 347.5,-52.5 347.5,-52.5 347.5,-64.5 347.5,-64.5 347.5,-70.5 341.5,-76.5 335.5,-76.5"/>
<text xml:space="preserve" text-anchor="middle" x="308" y="-60.45" font-family="Arial" font-size="9.00" fill="white">Audio / Voice</text>
<text xml:space="preserve" text-anchor="middle" x="308" y="-49.95" font-family="Arial" font-size="9.00" fill="white">Sound Pipeline</text>
</g>
<!-- pipeline_router&#45;&gt;pipe_audio -->
<g id="edge11" class="edge">
<title>pipeline_router&#45;&gt;pipe_audio</title>
<path fill="none" stroke="#ff9800" stroke-width="1.5" d="M370.94,-138.07C370.94,-109.68 370.94,-58.5 370.94,-58.5 370.94,-58.5 360.13,-58.5 360.13,-58.5"/>
<polygon fill="#ff9800" stroke="#ff9800" stroke-width="1.5" points="360.13,-55 350.13,-58.5 360.13,-62 360.13,-55"/>
</g>
<!-- pipe_edit -->
<g id="node14" class="node">
<title>pipe_edit</title>
<path fill="#ff9800" stroke="black" d="M462.88,-76.5C462.88,-76.5 395.12,-76.5 395.12,-76.5 389.12,-76.5 383.12,-70.5 383.12,-64.5 383.12,-64.5 383.12,-52.5 383.12,-52.5 383.12,-46.5 389.12,-40.5 395.12,-40.5 395.12,-40.5 462.88,-40.5 462.88,-40.5 468.88,-40.5 474.88,-46.5 474.88,-52.5 474.88,-52.5 474.88,-64.5 474.88,-64.5 474.88,-70.5 468.88,-76.5 462.88,-76.5"/>
<text xml:space="preserve" text-anchor="middle" x="429" y="-60.45" font-family="Arial" font-size="9.00" fill="white">Video Editing</text>
<text xml:space="preserve" text-anchor="middle" x="429" y="-49.95" font-family="Arial" font-size="9.00" fill="white">Assembly Pipeline</text>
</g>
<!-- pipeline_router&#45;&gt;pipe_edit -->
<g id="edge12" class="edge">
<title>pipeline_router&#45;&gt;pipe_edit</title>
<path fill="none" stroke="#ff9800" stroke-width="1.5" d="M429,-138.07C429,-138.07 429,-89.12 429,-89.12"/>
<polygon fill="#ff9800" stroke="#ff9800" stroke-width="1.5" points="432.5,-89.12 429,-79.12 425.5,-89.12 432.5,-89.12"/>
</g>
<!-- pipe_effects -->
<g id="node15" class="node">
<title>pipe_effects</title>
<path fill="#ff9800" stroke="black" d="M580.62,-76.5C580.62,-76.5 523.38,-76.5 523.38,-76.5 517.38,-76.5 511.38,-70.5 511.38,-64.5 511.38,-64.5 511.38,-52.5 511.38,-52.5 511.38,-46.5 517.38,-40.5 523.38,-40.5 523.38,-40.5 580.62,-40.5 580.62,-40.5 586.62,-40.5 592.62,-46.5 592.62,-52.5 592.62,-52.5 592.62,-64.5 592.62,-64.5 592.62,-70.5 586.62,-76.5 580.62,-76.5"/>
<text xml:space="preserve" text-anchor="middle" x="552" y="-60.45" font-family="Arial" font-size="9.00" fill="white">Effects / VFX</text>
<text xml:space="preserve" text-anchor="middle" x="552" y="-49.95" font-family="Arial" font-size="9.00" fill="white">Post&#45;Production</text>
</g>
<!-- pipeline_router&#45;&gt;pipe_effects -->
<g id="edge13" class="edge">
<title>pipeline_router&#45;&gt;pipe_effects</title>
<path fill="none" stroke="#ff9800" stroke-width="1.5" d="M487.06,-138.07C487.06,-109.68 487.06,-58.5 487.06,-58.5 487.06,-58.5 498.97,-58.5 498.97,-58.5"/>
<polygon fill="#ff9800" stroke="#ff9800" stroke-width="1.5" points="498.97,-62 508.97,-58.5 498.97,-55 498.97,-62"/>
</g>
<!-- pipe_more -->
<g id="node16" class="node">
<title>pipe_more</title>
<path fill="#9e9e9e" stroke="black" d="M707.12,-76.5C707.12,-76.5 640.88,-76.5 640.88,-76.5 634.88,-76.5 628.88,-70.5 628.88,-64.5 628.88,-64.5 628.88,-52.5 628.88,-52.5 628.88,-46.5 634.88,-40.5 640.88,-40.5 640.88,-40.5 707.12,-40.5 707.12,-40.5 713.12,-40.5 719.12,-46.5 719.12,-52.5 719.12,-52.5 719.12,-64.5 719.12,-64.5 719.12,-70.5 713.12,-76.5 707.12,-76.5"/>
<text xml:space="preserve" text-anchor="middle" x="674" y="-60.45" font-family="Arial" font-size="9.00" fill="white">+7 More Pipelines</text>
<text xml:space="preserve" text-anchor="middle" x="674" y="-49.95" font-family="Arial" font-size="9.00" fill="white">...</text>
</g>
<!-- pipeline_router&#45;&gt;pipe_more -->
<g id="edge14" class="edge">
<title>pipeline_router&#45;&gt;pipe_more</title>
<path fill="none" stroke="#ff9800" stroke-width="1.5" d="M499.54,-156.5C571.91,-156.5 674,-156.5 674,-156.5 674,-156.5 674,-89.2 674,-89.2"/>
<polygon fill="#ff9800" stroke="#ff9800" stroke-width="1.5" points="677.5,-89.2 674,-79.2 670.5,-89.2 677.5,-89.2"/>
</g>
<!-- skill_write -->
<g id="node17" class="node">
<title>skill_write</title>
<path fill="#9c27b0" stroke="black" d="M820.75,-76.5C820.75,-76.5 767.25,-76.5 767.25,-76.5 761.25,-76.5 755.25,-70.5 755.25,-64.5 755.25,-64.5 755.25,-52.5 755.25,-52.5 755.25,-46.5 761.25,-40.5 767.25,-40.5 767.25,-40.5 820.75,-40.5 820.75,-40.5 826.75,-40.5 832.75,-46.5 832.75,-52.5 832.75,-52.5 832.75,-64.5 832.75,-64.5 832.75,-70.5 826.75,-76.5 820.75,-76.5"/>
<text xml:space="preserve" text-anchor="middle" x="794" y="-60.45" font-family="Arial" font-size="9.00" fill="white">Script Writing</text>
<text xml:space="preserve" text-anchor="middle" x="794" y="-49.95" font-family="Arial" font-size="9.00" fill="white">Narrative Skills</text>
</g>
<!-- skill_registry&#45;&gt;skill_write -->
<g id="edge15" class="edge">
<title>skill_registry&#45;&gt;skill_write</title>
<path fill="none" stroke="#9c27b0" stroke-width="1.5" d="M1029.32,-165.5C945.74,-165.5 794,-165.5 794,-165.5 794,-165.5 794,-88.92 794,-88.92"/>
<polygon fill="#9c27b0" stroke="#9c27b0" stroke-width="1.5" points="797.5,-88.92 794,-78.92 790.5,-88.92 797.5,-88.92"/>
</g>
<!-- skill_visual -->
<g id="node18" class="node">
<title>skill_visual</title>
<path fill="#9c27b0" stroke="black" d="M929.5,-76.5C929.5,-76.5 880.5,-76.5 880.5,-76.5 874.5,-76.5 868.5,-70.5 868.5,-64.5 868.5,-64.5 868.5,-52.5 868.5,-52.5 868.5,-46.5 874.5,-40.5 880.5,-40.5 880.5,-40.5 929.5,-40.5 929.5,-40.5 935.5,-40.5 941.5,-46.5 941.5,-52.5 941.5,-52.5 941.5,-64.5 941.5,-64.5 941.5,-70.5 935.5,-76.5 929.5,-76.5"/>
<text xml:space="preserve" text-anchor="middle" x="905" y="-60.45" font-family="Arial" font-size="9.00" fill="white">Visual Design</text>
<text xml:space="preserve" text-anchor="middle" x="905" y="-49.95" font-family="Arial" font-size="9.00" fill="white">Scene Skills</text>
</g>
<!-- skill_registry&#45;&gt;skill_visual -->
<g id="edge16" class="edge">
<title>skill_registry&#45;&gt;skill_visual</title>
<path fill="none" stroke="#9c27b0" stroke-width="1.5" d="M1029.59,-147.5C977.16,-147.5 905,-147.5 905,-147.5 905,-147.5 905,-89.21 905,-89.21"/>
<polygon fill="#9c27b0" stroke="#9c27b0" stroke-width="1.5" points="908.5,-89.21 905,-79.21 901.5,-89.21 908.5,-89.21"/>
</g>
<!-- skill_audio -->
<g id="node19" class="node">
<title>skill_audio</title>
<path fill="#9c27b0" stroke="black" d="M1058.25,-76.5C1058.25,-76.5 989.75,-76.5 989.75,-76.5 983.75,-76.5 977.75,-70.5 977.75,-64.5 977.75,-64.5 977.75,-52.5 977.75,-52.5 977.75,-46.5 983.75,-40.5 989.75,-40.5 989.75,-40.5 1058.25,-40.5 1058.25,-40.5 1064.25,-40.5 1070.25,-46.5 1070.25,-52.5 1070.25,-52.5 1070.25,-64.5 1070.25,-64.5 1070.25,-70.5 1064.25,-76.5 1058.25,-76.5"/>
<text xml:space="preserve" text-anchor="middle" x="1024" y="-60.45" font-family="Arial" font-size="9.00" fill="white">Audio Engineering</text>
<text xml:space="preserve" text-anchor="middle" x="1024" y="-49.95" font-family="Arial" font-size="9.00" fill="white">Sound Skills</text>
</g>
<!-- skill_registry&#45;&gt;skill_audio -->
<g id="edge17" class="edge">
<title>skill_registry&#45;&gt;skill_audio</title>
<path fill="none" stroke="#9c27b0" stroke-width="1.5" d="M1049.94,-138.07C1049.94,-138.07 1049.94,-89.12 1049.94,-89.12"/>
<polygon fill="#9c27b0" stroke="#9c27b0" stroke-width="1.5" points="1053.44,-89.12 1049.94,-79.12 1046.44,-89.12 1053.44,-89.12"/>
</g>
<!-- skill_edit -->
<g id="node20" class="node">
<title>skill_edit</title>
<path fill="#9c27b0" stroke="black" d="M1163.25,-76.5C1163.25,-76.5 1118.75,-76.5 1118.75,-76.5 1112.75,-76.5 1106.75,-70.5 1106.75,-64.5 1106.75,-64.5 1106.75,-52.5 1106.75,-52.5 1106.75,-46.5 1112.75,-40.5 1118.75,-40.5 1118.75,-40.5 1163.25,-40.5 1163.25,-40.5 1169.25,-40.5 1175.25,-46.5 1175.25,-52.5 1175.25,-52.5 1175.25,-64.5 1175.25,-64.5 1175.25,-70.5 1169.25,-76.5 1163.25,-76.5"/>
<text xml:space="preserve" text-anchor="middle" x="1141" y="-60.45" font-family="Arial" font-size="9.00" fill="white">Editing Skills</text>
<text xml:space="preserve" text-anchor="middle" x="1141" y="-49.95" font-family="Arial" font-size="9.00" fill="white">Cut + Trim</text>
</g>
<!-- skill_registry&#45;&gt;skill_edit -->
<g id="edge18" class="edge">
<title>skill_registry&#45;&gt;skill_edit</title>
<path fill="none" stroke="#9c27b0" stroke-width="1.5" d="M1121.56,-138.07C1121.56,-138.07 1121.56,-89.12 1121.56,-89.12"/>
<polygon fill="#9c27b0" stroke="#9c27b0" stroke-width="1.5" points="1125.06,-89.12 1121.56,-79.12 1118.06,-89.12 1125.06,-89.12"/>
</g>
<!-- skill_more -->
<g id="node21" class="node">
<title>skill_more</title>
<path fill="#9e9e9e" stroke="black" d="M1283.12,-76.5C1283.12,-76.5 1222.88,-76.5 1222.88,-76.5 1216.88,-76.5 1210.88,-70.5 1210.88,-64.5 1210.88,-64.5 1210.88,-52.5 1210.88,-52.5 1210.88,-46.5 1216.88,-40.5 1222.88,-40.5 1222.88,-40.5 1283.12,-40.5 1283.12,-40.5 1289.12,-40.5 1295.12,-46.5 1295.12,-52.5 1295.12,-52.5 1295.12,-64.5 1295.12,-64.5 1295.12,-70.5 1289.12,-76.5 1283.12,-76.5"/>
<text xml:space="preserve" text-anchor="middle" x="1253" y="-60.45" font-family="Arial" font-size="9.00" fill="white">+496 More Skills</text>
<text xml:space="preserve" text-anchor="middle" x="1253" y="-49.95" font-family="Arial" font-size="9.00" fill="white">...</text>
</g>
<!-- skill_registry&#45;&gt;skill_more -->
<g id="edge19" class="edge">
<title>skill_registry&#45;&gt;skill_more</title>
<path fill="none" stroke="#9c27b0" stroke-width="1.5" d="M1136.79,-156.5C1186.59,-156.5 1253,-156.5 1253,-156.5 1253,-156.5 1253,-89.2 1253,-89.2"/>
<polygon fill="#9c27b0" stroke="#9c27b0" stroke-width="1.5" points="1256.5,-89.2 1253,-79.2 1249.5,-89.2 1256.5,-89.2"/>
</g>
<!-- tool_ffmpeg -->
<g id="node22" class="node">
<title>tool_ffmpeg</title>
<path fill="#ff5722" stroke="black" d="M1407,-76.5C1407,-76.5 1343,-76.5 1343,-76.5 1337,-76.5 1331,-70.5 1331,-64.5 1331,-64.5 1331,-52.5 1331,-52.5 1331,-46.5 1337,-40.5 1343,-40.5 1343,-40.5 1407,-40.5 1407,-40.5 1413,-40.5 1419,-46.5 1419,-52.5 1419,-52.5 1419,-64.5 1419,-64.5 1419,-70.5 1413,-76.5 1407,-76.5"/>
<text xml:space="preserve" text-anchor="middle" x="1375" y="-60.45" font-family="Arial" font-size="9.00" fill="white">FFmpeg</text>
<text xml:space="preserve" text-anchor="middle" x="1375" y="-49.95" font-family="Arial" font-size="9.00" fill="white">Video Processing</text>
</g>
<!-- tool_registry&#45;&gt;tool_ffmpeg -->
<g id="edge20" class="edge">
<title>tool_registry&#45;&gt;tool_ffmpeg</title>
<path fill="none" stroke="#ff5722" stroke-width="1.5" d="M1453.03,-147.5C1415.69,-147.5 1375,-147.5 1375,-147.5 1375,-147.5 1375,-89.21 1375,-89.21"/>
<polygon fill="#ff5722" stroke="#ff5722" stroke-width="1.5" points="1378.5,-89.21 1375,-79.21 1371.5,-89.21 1378.5,-89.21"/>
</g>
<!-- tool_tts -->
<g id="node23" class="node">
<title>tool_tts</title>
<path fill="#ff5722" stroke="black" d="M1523.25,-76.5C1523.25,-76.5 1466.75,-76.5 1466.75,-76.5 1460.75,-76.5 1454.75,-70.5 1454.75,-64.5 1454.75,-64.5 1454.75,-52.5 1454.75,-52.5 1454.75,-46.5 1460.75,-40.5 1466.75,-40.5 1466.75,-40.5 1523.25,-40.5 1523.25,-40.5 1529.25,-40.5 1535.25,-46.5 1535.25,-52.5 1535.25,-52.5 1535.25,-64.5 1535.25,-64.5 1535.25,-70.5 1529.25,-76.5 1523.25,-76.5"/>
<text xml:space="preserve" text-anchor="middle" x="1495" y="-60.45" font-family="Arial" font-size="9.00" fill="white">TTS Engine</text>
<text xml:space="preserve" text-anchor="middle" x="1495" y="-49.95" font-family="Arial" font-size="9.00" fill="white">Voice Synthesis</text>
</g>
<!-- tool_registry&#45;&gt;tool_tts -->
<g id="edge21" class="edge">
<title>tool_registry&#45;&gt;tool_tts</title>
<path fill="none" stroke="#ff5722" stroke-width="1.5" d="M1495,-138.07C1495,-138.07 1495,-89.12 1495,-89.12"/>
<polygon fill="#ff5722" stroke="#ff5722" stroke-width="1.5" points="1498.5,-89.12 1495,-79.12 1491.5,-89.12 1498.5,-89.12"/>
</g>
<!-- tool_image -->
<g id="node24" class="node">
<title>tool_image</title>
<path fill="#ff5722" stroke="black" d="M1630.38,-76.5C1630.38,-76.5 1583.62,-76.5 1583.62,-76.5 1577.62,-76.5 1571.62,-70.5 1571.62,-64.5 1571.62,-64.5 1571.62,-52.5 1571.62,-52.5 1571.62,-46.5 1577.62,-40.5 1583.62,-40.5 1583.62,-40.5 1630.38,-40.5 1630.38,-40.5 1636.38,-40.5 1642.38,-46.5 1642.38,-52.5 1642.38,-52.5 1642.38,-64.5 1642.38,-64.5 1642.38,-70.5 1636.38,-76.5 1630.38,-76.5"/>
<text xml:space="preserve" text-anchor="middle" x="1607" y="-60.45" font-family="Arial" font-size="9.00" fill="white">Image Gen</text>
<text xml:space="preserve" text-anchor="middle" x="1607" y="-49.95" font-family="Arial" font-size="9.00" fill="white">Visual Assets</text>
</g>
<!-- tool_registry&#45;&gt;tool_image -->
<g id="edge22" class="edge">
<title>tool_registry&#45;&gt;tool_image</title>
<path fill="none" stroke="#ff5722" stroke-width="1.5" d="M1574.74,-147.5C1581.07,-147.5 1585.25,-147.5 1585.25,-147.5 1585.25,-147.5 1585.25,-89.21 1585.25,-89.21"/>
<polygon fill="#ff5722" stroke="#ff5722" stroke-width="1.5" points="1588.75,-89.21 1585.25,-79.21 1581.75,-89.21 1588.75,-89.21"/>
</g>
<!-- tool_more -->
<g id="node25" class="node">
<title>tool_more</title>
<path fill="#9e9e9e" stroke="black" d="M1745.5,-76.5C1745.5,-76.5 1690.5,-76.5 1690.5,-76.5 1684.5,-76.5 1678.5,-70.5 1678.5,-64.5 1678.5,-64.5 1678.5,-52.5 1678.5,-52.5 1678.5,-46.5 1684.5,-40.5 1690.5,-40.5 1690.5,-40.5 1745.5,-40.5 1745.5,-40.5 1751.5,-40.5 1757.5,-46.5 1757.5,-52.5 1757.5,-52.5 1757.5,-64.5 1757.5,-64.5 1757.5,-70.5 1751.5,-76.5 1745.5,-76.5"/>
<text xml:space="preserve" text-anchor="middle" x="1718" y="-60.45" font-family="Arial" font-size="9.00" fill="white">+49 More Tools</text>
<text xml:space="preserve" text-anchor="middle" x="1718" y="-49.95" font-family="Arial" font-size="9.00" fill="white">...</text>
</g>
<!-- tool_registry&#45;&gt;tool_more -->
<g id="edge23" class="edge">
<title>tool_registry&#45;&gt;tool_more</title>
<path fill="none" stroke="#ff5722" stroke-width="1.5" d="M1574.74,-156.5C1622.94,-156.5 1682.25,-156.5 1682.25,-156.5 1682.25,-156.5 1682.25,-89.2 1682.25,-89.2"/>
<polygon fill="#ff5722" stroke="#ff5722" stroke-width="1.5" points="1685.75,-89.2 1682.25,-79.2 1678.75,-89.2 1685.75,-89.2"/>
</g>
<!-- asset_store -->
<g id="node9" class="node">
<title>asset_store</title>
<path fill="#6a1b9a" stroke="black" d="M1892.25,-76.5C1892.25,-78.71 1870.18,-80.5 1843,-80.5 1815.82,-80.5 1793.75,-78.71 1793.75,-76.5 1793.75,-76.5 1793.75,-40.5 1793.75,-40.5 1793.75,-38.29 1815.82,-36.5 1843,-36.5 1870.18,-36.5 1892.25,-38.29 1892.25,-40.5 1892.25,-40.5 1892.25,-76.5 1892.25,-76.5"/>
<path fill="none" stroke="black" d="M1892.25,-76.5C1892.25,-74.29 1870.18,-72.5 1843,-72.5 1815.82,-72.5 1793.75,-74.29 1793.75,-76.5"/>
<text xml:space="preserve" text-anchor="middle" x="1843" y="-61" font-family="Arial" font-size="10.00" fill="white">Asset Store</text>
<text xml:space="preserve" text-anchor="middle" x="1843" y="-49" font-family="Arial" font-size="10.00" fill="white">Media + Templates</text>
</g>
<!-- context_mgr&#45;&gt;asset_store -->
<g id="edge24" class="edge">
<title>context_mgr&#45;&gt;asset_store</title>
<path fill="none" stroke="#6a1b9a" stroke-width="1.5" stroke-dasharray="5,2" d="M1804.88,-138.07C1804.88,-138.07 1804.88,-92.19 1804.88,-92.19"/>
<polygon fill="#6a1b9a" stroke="#6a1b9a" stroke-width="1.5" points="1808.38,-92.19 1804.88,-82.19 1801.38,-92.19 1808.38,-92.19"/>
</g>
<!-- output -->
<g id="node10" class="node">
<title>output</title>
<path fill="#f44336" stroke="black" d="M2029.38,-76.5C2029.38,-76.5 1940.62,-76.5 1940.62,-76.5 1934.62,-76.5 1928.62,-70.5 1928.62,-64.5 1928.62,-64.5 1928.62,-52.5 1928.62,-52.5 1928.62,-46.5 1934.62,-40.5 1940.62,-40.5 1940.62,-40.5 2029.38,-40.5 2029.38,-40.5 2035.38,-40.5 2041.38,-46.5 2041.38,-52.5 2041.38,-52.5 2041.38,-64.5 2041.38,-64.5 2041.38,-70.5 2035.38,-76.5 2029.38,-76.5"/>
<text xml:space="preserve" text-anchor="middle" x="1985" y="-61.55" font-family="Arial" font-size="11.00" fill="white">Produced Video</text>
<text xml:space="preserve" text-anchor="middle" x="1985" y="-48.05" font-family="Arial" font-size="11.00" fill="white">MP4 / MOV / WebM</text>
</g>
<!-- render_engine&#45;&gt;output -->
<g id="edge8" class="edge">
<title>render_engine&#45;&gt;output</title>
<path fill="none" stroke="#f44336" stroke-width="2.5" d="M1985,-138.07C1985,-138.07 1985,-90.63 1985,-90.63"/>
<polygon fill="#f44336" stroke="#f44336" stroke-width="2.5" points="1988.5,-90.63 1985,-80.63 1981.5,-90.63 1988.5,-90.63"/>
</g>
</g>
</svg>
