<?xml version="1.0" encoding="UTF-8" standalone="no"?>
<!DOCTYPE svg PUBLIC "-//W3C//DTD SVG 1.1//EN"
 "http://www.w3.org/Graphics/SVG/1.1/DTD/svg11.dtd">
<!-- Generated by graphviz version 14.1.2 (0)
 -->
<!-- Title: hysteria_protocol Pages: 1 -->
<svg width="240pt" height="793pt"
 viewBox="0.00 0.00 240.00 793.00" xmlns="http://www.w3.org/2000/svg" xmlns:xlink="http://www.w3.org/1999/xlink">
<g id="graph0" class="graph" transform="scale(1 1) rotate(0) translate(4 789)">
<title>hysteria_protocol</title>
<text xml:space="preserve" text-anchor="middle" x="116" y="-7.2" font-family="Times New Roman,serif" font-size="14.00">Hysteria &#45; Protocol and Security Layers</text>
<!-- app_layer -->
<g id="node1" class="node">
<title>app_layer</title>
<polygon fill="#4caf50" stroke="black" points="198.25,-785 33.75,-785 33.75,-749 198.25,-749 198.25,-785"/>
<text xml:space="preserve" text-anchor="middle" x="116" y="-770.05" font-family="Arial" font-size="11.00" fill="white">Application Layer</text>
<text xml:space="preserve" text-anchor="middle" x="116" y="-756.55" font-family="Arial" font-size="11.00" fill="white">(SOCKS5/HTTP/TUN/TProxy)</text>
</g>
<!-- hy_proto -->
<g id="node2" class="node">
<title>hy_proto</title>
<path fill="#2196f3" stroke="black" d="M183.62,-699C183.62,-699 48.38,-699 48.38,-699 42.38,-699 36.38,-693 36.38,-687 36.38,-687 36.38,-646 36.38,-646 36.38,-640 42.38,-634 48.38,-634 48.38,-634 183.62,-634 183.62,-634 189.62,-634 195.62,-640 195.62,-646 195.62,-646 195.62,-687 195.62,-687 195.62,-693 189.62,-699 183.62,-699"/>
<text xml:space="preserve" text-anchor="middle" x="116" y="-683.6" font-family="Arial Bold" font-size="12.00" fill="white">Hysteria Protocol v2</text>
<text xml:space="preserve" text-anchor="middle" x="116" y="-669.35" font-family="Arial Bold" font-size="12.00" fill="white">TCP: QUIC Streams</text>
<text xml:space="preserve" text-anchor="middle" x="116" y="-655.1" font-family="Arial Bold" font-size="12.00" fill="white">UDP: QUIC Datagrams</text>
<text xml:space="preserve" text-anchor="middle" x="116" y="-640.85" font-family="Arial Bold" font-size="12.00" fill="white">(Session ID + Fragments)</text>
</g>
<!-- app_layer&#45;&gt;hy_proto -->
<g id="edge1" class="edge">
<title>app_layer&#45;&gt;hy_proto</title>
<path fill="none" stroke="#4caf50" stroke-width="2" d="M116,-748.57C116,-748.57 116,-712.48 116,-712.48"/>
<polygon fill="#4caf50" stroke="#4caf50" stroke-width="2" points="119.5,-712.48 116,-702.48 112.5,-712.48 119.5,-712.48"/>
</g>
<!-- auth_layer -->
<g id="node3" class="node">
<title>auth_layer</title>
<path fill="#e91e63" stroke="black" d="M173.88,-584C173.88,-584 58.12,-584 58.12,-584 52.12,-584 46.12,-578 46.12,-572 46.12,-572 46.12,-547.5 46.12,-547.5 46.12,-541.5 52.12,-535.5 58.12,-535.5 58.12,-535.5 173.88,-535.5 173.88,-535.5 179.88,-535.5 185.88,-541.5 185.88,-547.5 185.88,-547.5 185.88,-572 185.88,-572 185.88,-578 179.88,-584 173.88,-584"/>
<text xml:space="preserve" text-anchor="middle" x="116" y="-569.55" font-family="Arial" font-size="11.00" fill="white">HTTP/3 Authentication</text>
<text xml:space="preserve" text-anchor="middle" x="116" y="-556.05" font-family="Arial" font-size="11.00" fill="white">POST /auth &#45;&gt; 233 HyOK</text>
<text xml:space="preserve" text-anchor="middle" x="116" y="-542.55" font-family="Arial" font-size="11.00" fill="white">Masquerades as HTTP/3</text>
</g>
<!-- hy_proto&#45;&gt;auth_layer -->
<g id="edge2" class="edge">
<title>hy_proto&#45;&gt;auth_layer</title>
<path fill="none" stroke="#e91e63" stroke-width="2" d="M116,-633.6C116,-633.6 116,-597.26 116,-597.26"/>
<polygon fill="#e91e63" stroke="#e91e63" stroke-width="2" points="119.5,-597.26 116,-587.26 112.5,-597.26 119.5,-597.26"/>
</g>
<!-- cc_layer -->
<g id="node4" class="node">
<title>cc_layer</title>
<path fill="#ff9800" stroke="black" d="M165.25,-485.5C165.25,-485.5 66.75,-485.5 66.75,-485.5 60.75,-485.5 54.75,-479.5 54.75,-473.5 54.75,-473.5 54.75,-435.5 54.75,-435.5 54.75,-429.5 60.75,-423.5 66.75,-423.5 66.75,-423.5 165.25,-423.5 165.25,-423.5 171.25,-423.5 177.25,-429.5 177.25,-435.5 177.25,-435.5 177.25,-473.5 177.25,-473.5 177.25,-479.5 171.25,-485.5 165.25,-485.5"/>
<text xml:space="preserve" text-anchor="middle" x="116" y="-471.05" font-family="Arial" font-size="11.00" fill="white">Congestion Control</text>
<text xml:space="preserve" text-anchor="middle" x="116" y="-457.55" font-family="Arial" font-size="11.00" fill="white">Brutal: Fixed rate</text>
<text xml:space="preserve" text-anchor="middle" x="116" y="-444.05" font-family="Arial" font-size="11.00" fill="white">BBR: Adaptive</text>
<text xml:space="preserve" text-anchor="middle" x="116" y="-430.55" font-family="Arial" font-size="11.00" fill="white">Bandwidth negotiation</text>
</g>
<!-- auth_layer&#45;&gt;cc_layer -->
<g id="edge3" class="edge">
<title>auth_layer&#45;&gt;cc_layer</title>
<path fill="none" stroke="#ff9800" stroke-width="2" d="M116,-535.07C116,-535.07 116,-498.85 116,-498.85"/>
<polygon fill="#ff9800" stroke="#ff9800" stroke-width="2" points="119.5,-498.85 116,-488.85 112.5,-498.85 119.5,-498.85"/>
</g>
<!-- quic_layer -->
<g id="node5" class="node">
<title>quic_layer</title>
<path fill="#009688" stroke="black" d="M175,-373.5C175,-373.5 57,-373.5 57,-373.5 51,-373.5 45,-367.5 45,-361.5 45,-361.5 45,-320.5 45,-320.5 45,-314.5 51,-308.5 57,-308.5 57,-308.5 175,-308.5 175,-308.5 181,-308.5 187,-314.5 187,-320.5 187,-320.5 187,-361.5 187,-361.5 187,-367.5 181,-373.5 175,-373.5"/>
<text xml:space="preserve" text-anchor="middle" x="116" y="-358.1" font-family="Arial Bold" font-size="12.00" fill="white">QUIC Transport</text>
<text xml:space="preserve" text-anchor="middle" x="116" y="-343.85" font-family="Arial Bold" font-size="12.00" fill="white">(RFC 9000)</text>
<text xml:space="preserve" text-anchor="middle" x="116" y="-329.6" font-family="Arial Bold" font-size="12.00" fill="white">+ Unreliable Datagram</text>
<text xml:space="preserve" text-anchor="middle" x="116" y="-315.35" font-family="Arial Bold" font-size="12.00" fill="white">Extension (RFC 9221)</text>
</g>
<!-- cc_layer&#45;&gt;quic_layer -->
<g id="edge4" class="edge">
<title>cc_layer&#45;&gt;quic_layer</title>
<path fill="none" stroke="#009688" stroke-width="2" d="M116,-423.19C116,-423.19 116,-386.82 116,-386.82"/>
<polygon fill="#009688" stroke="#009688" stroke-width="2" points="119.5,-386.82 116,-376.82 112.5,-386.82 119.5,-386.82"/>
</g>
<!-- tls_layer -->
<g id="node6" class="node">
<title>tls_layer</title>
<path fill="#e91e63" stroke="black" d="M179.12,-258.5C179.12,-258.5 52.88,-258.5 52.88,-258.5 46.88,-258.5 40.88,-252.5 40.88,-246.5 40.88,-246.5 40.88,-234.5 40.88,-234.5 40.88,-228.5 46.88,-222.5 52.88,-222.5 52.88,-222.5 179.12,-222.5 179.12,-222.5 185.12,-222.5 191.12,-228.5 191.12,-234.5 191.12,-234.5 191.12,-246.5 191.12,-246.5 191.12,-252.5 185.12,-258.5 179.12,-258.5"/>
<text xml:space="preserve" text-anchor="middle" x="116" y="-243.55" font-family="Arial" font-size="11.00" fill="white">TLS 1.3</text>
<text xml:space="preserve" text-anchor="middle" x="116" y="-230.05" font-family="Arial" font-size="11.00" fill="white">(Encrypted + Authenticated)</text>
</g>
<!-- quic_layer&#45;&gt;tls_layer -->
<g id="edge5" class="edge">
<title>quic_layer&#45;&gt;tls_layer</title>
<path fill="none" stroke="#e91e63" stroke-width="2" d="M116,-308.09C116,-308.09 116,-271.84 116,-271.84"/>
<polygon fill="#e91e63" stroke="#e91e63" stroke-width="2" points="119.5,-271.84 116,-261.84 112.5,-271.84 119.5,-271.84"/>
</g>
<!-- obfs_layer -->
<g id="node7" class="node">
<title>obfs_layer</title>
<path fill="#ff9800" stroke="black" d="M179.12,-172.5C179.12,-172.5 52.88,-172.5 52.88,-172.5 46.88,-172.5 40.88,-166.5 40.88,-160.5 40.88,-160.5 40.88,-122.5 40.88,-122.5 40.88,-116.5 46.88,-110.5 52.88,-110.5 52.88,-110.5 179.12,-110.5 179.12,-110.5 185.12,-110.5 191.12,-116.5 191.12,-122.5 191.12,-122.5 191.12,-160.5 191.12,-160.5 191.12,-166.5 185.12,-172.5 179.12,-172.5"/>
<text xml:space="preserve" text-anchor="middle" x="116" y="-158.05" font-family="Arial" font-size="11.00" fill="white">Salamander Obfuscation</text>
<text xml:space="preserve" text-anchor="middle" x="116" y="-144.55" font-family="Arial" font-size="11.00" fill="white">8&#45;byte Salt + BLAKE2b&#45;256</text>
<text xml:space="preserve" text-anchor="middle" x="116" y="-131.05" font-family="Arial" font-size="11.00" fill="white">XOR Payload</text>
<text xml:space="preserve" text-anchor="middle" x="116" y="-117.55" font-family="Arial" font-size="11.00" fill="white">(Optional Layer)</text>
</g>
<!-- tls_layer&#45;&gt;obfs_layer -->
<g id="edge6" class="edge">
<title>tls_layer&#45;&gt;obfs_layer</title>
<path fill="none" stroke="#ff9800" stroke-width="2" stroke-dasharray="5,2" d="M116,-222.34C116,-222.34 116,-185.8 116,-185.8"/>
<polygon fill="#ff9800" stroke="#ff9800" stroke-width="2" points="119.5,-185.8 116,-175.8 112.5,-185.8 119.5,-185.8"/>
</g>
<!-- udp_layer -->
<g id="node8" class="node">
<title>udp_layer</title>
<path fill="#9c27b0" stroke="black" d="M134.88,-60.5C134.88,-60.5 97.12,-60.5 97.12,-60.5 91.12,-60.5 85.12,-54.5 85.12,-48.5 85.12,-48.5 85.12,-36.5 85.12,-36.5 85.12,-30.5 91.12,-24.5 97.12,-24.5 97.12,-24.5 134.88,-24.5 134.88,-24.5 140.88,-24.5 146.88,-30.5 146.88,-36.5 146.88,-36.5 146.88,-48.5 146.88,-48.5 146.88,-54.5 140.88,-60.5 134.88,-60.5"/>
<text xml:space="preserve" text-anchor="middle" x="116" y="-45.55" font-family="Arial" font-size="11.00" fill="white">UDP / IP</text>
<text xml:space="preserve" text-anchor="middle" x="116" y="-32.05" font-family="Arial" font-size="11.00" fill="white">Transport</text>
</g>
<!-- obfs_layer&#45;&gt;udp_layer -->
<g id="edge7" class="edge">
<title>obfs_layer&#45;&gt;udp_layer</title>
<path fill="none" stroke="#9c27b0" stroke-width="2" d="M116,-110.18C116,-110.18 116,-73.97 116,-73.97"/>
<polygon fill="#9c27b0" stroke="#9c27b0" stroke-width="2" points="119.5,-73.97 116,-63.97 112.5,-73.97 119.5,-73.97"/>
</g>
</g>
</svg>
