<?xml version="1.0" encoding="UTF-8" standalone="no"?>
<!DOCTYPE svg PUBLIC "-//W3C//DTD SVG 1.1//EN"
 "http://www.w3.org/Graphics/SVG/1.1/DTD/svg11.dtd">
<!-- Generated by graphviz version 14.1.2 (0)
 -->
<!-- Title: token_architecture Pages: 1 -->
<svg width="1151pt" height="311pt"
 viewBox="0.00 0.00 1151.00 311.00" xmlns="http://www.w3.org/2000/svg" xmlns:xlink="http://www.w3.org/1999/xlink">
<style>
<!-- White text halo for edge label readability -->
text { paint-order: stroke; stroke: #ffffff; stroke-width: 3px; stroke-linejoin: round; fill: #1a1a2e; }
</style>
<g id="graph0" class="graph" transform="scale(1 1) rotate(0) translate(4 306.5)">
<title>token_architecture</title>
<polygon fill="white" stroke="none" points="-4,4 -4,-306.5 1146.75,-306.5 1146.75,4 -4,4"/>
<text xml:space="preserve" text-anchor="middle" x="571.38" y="-7.2" font-family="Times New Roman,serif" font-size="14.00">DESIGN.md Token Architecture</text>
<!-- design_md -->
<g id="node1" class="node">
<title>design_md</title>
<path fill="#1a73e8" stroke="black" d="M677.38,-302.5C677.38,-302.5 488.12,-302.5 488.12,-302.5 482.12,-302.5 476.12,-296.5 476.12,-290.5 476.12,-290.5 476.12,-276.5 476.12,-276.5 476.12,-270.5 482.12,-264.5 488.12,-264.5 488.12,-264.5 677.38,-264.5 677.38,-264.5 683.38,-264.5 689.38,-270.5 689.38,-276.5 689.38,-276.5 689.38,-290.5 689.38,-290.5 689.38,-296.5 683.38,-302.5 677.38,-302.5"/>
<text xml:space="preserve" text-anchor="middle" x="582.75" y="-286.15" font-family="Arial Bold" font-size="13.00" fill="white">DESIGN.md</text>
<text xml:space="preserve" text-anchor="middle" x="582.75" y="-271.15" font-family="Arial Bold" font-size="13.00" fill="white">YAML Front Matter + Markdown</text>
</g>
<!-- colors -->
<g id="node2" class="node">
<title>colors</title>
<path fill="#34a853" stroke="black" d="M208.25,-193.5C208.25,-193.5 123.25,-193.5 123.25,-193.5 117.25,-193.5 111.25,-187.5 111.25,-181.5 111.25,-181.5 111.25,-169.5 111.25,-169.5 111.25,-163.5 117.25,-157.5 123.25,-157.5 123.25,-157.5 208.25,-157.5 208.25,-157.5 214.25,-157.5 220.25,-163.5 220.25,-169.5 220.25,-169.5 220.25,-181.5 220.25,-181.5 220.25,-187.5 214.25,-193.5 208.25,-193.5"/>
<text xml:space="preserve" text-anchor="middle" x="165.75" y="-178.55" font-family="Arial" font-size="11.00" fill="white">colors</text>
<text xml:space="preserve" text-anchor="middle" x="165.75" y="-165.05" font-family="Arial" font-size="11.00" fill="white">Map&lt;string, Color&gt;</text>
</g>
<!-- design_md&#45;&gt;colors -->
<g id="edge1" class="edge">
<title>design_md&#45;&gt;colors</title>
<path fill="none" stroke="#34a853" stroke-width="2" d="M475.63,-289.5C352.08,-289.5 165.75,-289.5 165.75,-289.5 165.75,-289.5 165.75,-206.84 165.75,-206.84"/>
<polygon fill="#34a853" stroke="#34a853" stroke-width="2" points="169.25,-206.84 165.75,-196.84 162.25,-206.84 169.25,-206.84"/>
</g>
<!-- typography -->
<g id="node3" class="node">
<title>typography</title>
<path fill="#34a853" stroke="black" d="M383.25,-193.5C383.25,-193.5 268.25,-193.5 268.25,-193.5 262.25,-193.5 256.25,-187.5 256.25,-181.5 256.25,-181.5 256.25,-169.5 256.25,-169.5 256.25,-163.5 262.25,-157.5 268.25,-157.5 268.25,-157.5 383.25,-157.5 383.25,-157.5 389.25,-157.5 395.25,-163.5 395.25,-169.5 395.25,-169.5 395.25,-181.5 395.25,-181.5 395.25,-187.5 389.25,-193.5 383.25,-193.5"/>
<text xml:space="preserve" text-anchor="middle" x="325.75" y="-178.55" font-family="Arial" font-size="11.00" fill="white">typography</text>
<text xml:space="preserve" text-anchor="middle" x="325.75" y="-165.05" font-family="Arial" font-size="11.00" fill="white">Map&lt;string, Typography&gt;</text>
</g>
<!-- design_md&#45;&gt;typography -->
<g id="edge2" class="edge">
<title>design_md&#45;&gt;typography</title>
<path fill="none" stroke="#34a853" stroke-width="2" d="M475.99,-277.5C405.38,-277.5 325.75,-277.5 325.75,-277.5 325.75,-277.5 325.75,-206.76 325.75,-206.76"/>
<polygon fill="#34a853" stroke="#34a853" stroke-width="2" points="329.25,-206.76 325.75,-196.76 322.25,-206.76 329.25,-206.76"/>
</g>
<!-- rounded -->
<g id="node4" class="node">
<title>rounded</title>
<path fill="#34a853" stroke="black" d="M552.62,-193.5C552.62,-193.5 442.88,-193.5 442.88,-193.5 436.88,-193.5 430.88,-187.5 430.88,-181.5 430.88,-181.5 430.88,-169.5 430.88,-169.5 430.88,-163.5 436.88,-157.5 442.88,-157.5 442.88,-157.5 552.62,-157.5 552.62,-157.5 558.62,-157.5 564.62,-163.5 564.62,-169.5 564.62,-169.5 564.62,-181.5 564.62,-181.5 564.62,-187.5 558.62,-193.5 552.62,-193.5"/>
<text xml:space="preserve" text-anchor="middle" x="497.75" y="-178.55" font-family="Arial" font-size="11.00" fill="white">rounded</text>
<text xml:space="preserve" text-anchor="middle" x="497.75" y="-165.05" font-family="Arial" font-size="11.00" fill="white">Map&lt;string, Dimension&gt;</text>
</g>
<!-- design_md&#45;&gt;rounded -->
<g id="edge3" class="edge">
<title>design_md&#45;&gt;rounded</title>
<path fill="none" stroke="#34a853" stroke-width="2" d="M520.38,-264.19C520.38,-264.19 520.38,-206.95 520.38,-206.95"/>
<polygon fill="#34a853" stroke="#34a853" stroke-width="2" points="523.88,-206.95 520.38,-196.95 516.88,-206.95 523.88,-206.95"/>
</g>
<!-- spacing -->
<g id="node5" class="node">
<title>spacing</title>
<path fill="#34a853" stroke="black" d="M722.62,-193.5C722.62,-193.5 612.88,-193.5 612.88,-193.5 606.88,-193.5 600.88,-187.5 600.88,-181.5 600.88,-181.5 600.88,-169.5 600.88,-169.5 600.88,-163.5 606.88,-157.5 612.88,-157.5 612.88,-157.5 722.62,-157.5 722.62,-157.5 728.62,-157.5 734.62,-163.5 734.62,-169.5 734.62,-169.5 734.62,-181.5 734.62,-181.5 734.62,-187.5 728.62,-193.5 722.62,-193.5"/>
<text xml:space="preserve" text-anchor="middle" x="667.75" y="-178.55" font-family="Arial" font-size="11.00" fill="white">spacing</text>
<text xml:space="preserve" text-anchor="middle" x="667.75" y="-165.05" font-family="Arial" font-size="11.00" fill="white">Map&lt;string, Dimension&gt;</text>
</g>
<!-- design_md&#45;&gt;spacing -->
<g id="edge4" class="edge">
<title>design_md&#45;&gt;spacing</title>
<path fill="none" stroke="#34a853" stroke-width="2" d="M630.38,-264.19C630.38,-264.19 630.38,-206.95 630.38,-206.95"/>
<polygon fill="#34a853" stroke="#34a853" stroke-width="2" points="633.88,-206.95 630.38,-196.95 626.88,-206.95 633.88,-206.95"/>
</g>
<!-- components -->
<g id="node6" class="node">
<title>components</title>
<path fill="#34a853" stroke="black" d="M934.62,-193.5C934.62,-193.5 782.88,-193.5 782.88,-193.5 776.88,-193.5 770.88,-187.5 770.88,-181.5 770.88,-181.5 770.88,-169.5 770.88,-169.5 770.88,-163.5 776.88,-157.5 782.88,-157.5 782.88,-157.5 934.62,-157.5 934.62,-157.5 940.62,-157.5 946.62,-163.5 946.62,-169.5 946.62,-169.5 946.62,-181.5 946.62,-181.5 946.62,-187.5 940.62,-193.5 934.62,-193.5"/>
<text xml:space="preserve" text-anchor="middle" x="858.75" y="-178.55" font-family="Arial" font-size="11.00" fill="white">components</text>
<text xml:space="preserve" text-anchor="middle" x="858.75" y="-165.05" font-family="Arial" font-size="11.00" fill="white">Map&lt;string, Map&lt;string, string&gt;&gt;</text>
</g>
<!-- design_md&#45;&gt;components -->
<g id="edge5" class="edge">
<title>design_md&#45;&gt;components</title>
<path fill="none" stroke="#34a853" stroke-width="2" d="M689.85,-283.5C767.44,-283.5 858.75,-283.5 858.75,-283.5 858.75,-283.5 858.75,-206.85 858.75,-206.85"/>
<polygon fill="#34a853" stroke="#34a853" stroke-width="2" points="862.25,-206.85 858.75,-196.85 855.25,-206.85 862.25,-206.85"/>
</g>
<!-- md_sections -->
<g id="node14" class="node">
<title>md_sections</title>
<path fill="#2196f3" stroke="black" d="M1130.75,-206.5C1130.75,-206.5 994.75,-206.5 994.75,-206.5 988.75,-206.5 982.75,-200.5 982.75,-194.5 982.75,-194.5 982.75,-156.5 982.75,-156.5 982.75,-150.5 988.75,-144.5 994.75,-144.5 994.75,-144.5 1130.75,-144.5 1130.75,-144.5 1136.75,-144.5 1142.75,-150.5 1142.75,-156.5 1142.75,-156.5 1142.75,-194.5 1142.75,-194.5 1142.75,-200.5 1136.75,-206.5 1130.75,-206.5"/>
<text xml:space="preserve" text-anchor="middle" x="1062.75" y="-192.05" font-family="Arial" font-size="11.00" fill="white">Markdown Sections</text>
<text xml:space="preserve" text-anchor="middle" x="1062.75" y="-178.55" font-family="Arial" font-size="11.00" fill="white">Overview, Colors, Typography</text>
<text xml:space="preserve" text-anchor="middle" x="1062.75" y="-165.05" font-family="Arial" font-size="11.00" fill="white">Layout, Elevation, Shapes</text>
<text xml:space="preserve" text-anchor="middle" x="1062.75" y="-151.55" font-family="Arial" font-size="11.00" fill="white">Components, Do&#39;s and Don&#39;ts</text>
</g>
<!-- design_md&#45;&gt;md_sections -->
<g id="edge16" class="edge">
<title>design_md&#45;&gt;md_sections</title>
<path fill="none" stroke="#2196f3" stroke-width="2" d="M659.88,-264.25C659.88,-239.73 659.88,-200.5 659.88,-200.5 659.88,-200.5 969.65,-200.5 969.65,-200.5"/>
<polygon fill="#2196f3" stroke="#2196f3" stroke-width="2" points="969.65,-204 979.65,-200.5 969.65,-197 969.65,-204"/>
<text xml:space="preserve" text-anchor="middle" x="768.26" y="-203.7" font-family="Times New Roman,serif" font-size="14.00">prose</text>
</g>
<!-- color_type -->
<g id="node7" class="node">
<title>color_type</title>
<path fill="#fbbc04" stroke="black" d="M65.5,-77.5C65.5,-77.5 12,-77.5 12,-77.5 6,-77.5 0,-71.5 0,-65.5 0,-65.5 0,-45.5 0,-45.5 0,-39.5 6,-33.5 12,-33.5 12,-33.5 65.5,-33.5 65.5,-33.5 71.5,-33.5 77.5,-39.5 77.5,-45.5 77.5,-45.5 77.5,-65.5 77.5,-65.5 77.5,-71.5 71.5,-77.5 65.5,-77.5"/>
<text xml:space="preserve" text-anchor="middle" x="38.75" y="-64" font-family="Arial" font-size="10.00" fill="#1a1a2e">Color Type</text>
<text xml:space="preserve" text-anchor="middle" x="38.75" y="-52" font-family="Arial" font-size="10.00" fill="#1a1a2e">#hex (sRGB)</text>
<text xml:space="preserve" text-anchor="middle" x="38.75" y="-40" font-family="Arial" font-size="10.00" fill="#1a1a2e">e.g. #1A1C1E</text>
</g>
<!-- colors&#45;&gt;color_type -->
<g id="edge6" class="edge">
<title>colors&#45;&gt;color_type</title>
<path fill="none" stroke="#fbbc04" stroke-width="1.5" d="M110.78,-175.5C76.46,-175.5 38.75,-175.5 38.75,-175.5 38.75,-175.5 38.75,-90.06 38.75,-90.06"/>
<polygon fill="#fbbc04" stroke="#fbbc04" stroke-width="1.5" points="42.25,-90.06 38.75,-80.06 35.25,-90.06 42.25,-90.06"/>
</g>
<!-- dtcg -->
<g id="node12" class="node">
<title>dtcg</title>
<path fill="#9c27b0" stroke="black" d="M367.25,-79.75C367.25,-79.75 276.25,-79.75 276.25,-79.75 270.25,-79.75 264.25,-73.75 264.25,-67.75 264.25,-67.75 264.25,-43.25 264.25,-43.25 264.25,-37.25 270.25,-31.25 276.25,-31.25 276.25,-31.25 367.25,-31.25 367.25,-31.25 373.25,-31.25 379.25,-37.25 379.25,-43.25 379.25,-43.25 379.25,-67.75 379.25,-67.75 379.25,-73.75 373.25,-79.75 367.25,-79.75"/>
<text xml:space="preserve" text-anchor="middle" x="321.75" y="-65.3" font-family="Arial" font-size="11.00" fill="white">DTCG Export</text>
<text xml:space="preserve" text-anchor="middle" x="321.75" y="-51.8" font-family="Arial" font-size="11.00" fill="white">W3C Design Tokens</text>
<text xml:space="preserve" text-anchor="middle" x="321.75" y="-38.3" font-family="Arial" font-size="11.00" fill="white">Format (tokens.json)</text>
</g>
<!-- colors&#45;&gt;dtcg -->
<g id="edge12" class="edge">
<title>colors&#45;&gt;dtcg</title>
<path fill="none" stroke="#9c27b0" stroke-width="1.5" stroke-dasharray="5,2" d="M220.53,-181.5C232.79,-181.5 242.25,-181.5 242.25,-181.5 242.25,-181.5 242.25,-55.5 242.25,-55.5 242.25,-55.5 251.7,-55.5 251.7,-55.5"/>
<polygon fill="#9c27b0" stroke="#9c27b0" stroke-width="1.5" points="251.7,-59 261.7,-55.5 251.7,-52 251.7,-59"/>
<text xml:space="preserve" text-anchor="middle" x="225" y="-127.83" font-family="Times New Roman,serif" font-size="14.00">export</text>
</g>
<!-- tailwind -->
<g id="node13" class="node">
<title>tailwind</title>
<path fill="#9c27b0" stroke="black" d="M216.25,-79.75C216.25,-79.75 125.25,-79.75 125.25,-79.75 119.25,-79.75 113.25,-73.75 113.25,-67.75 113.25,-67.75 113.25,-43.25 113.25,-43.25 113.25,-37.25 119.25,-31.25 125.25,-31.25 125.25,-31.25 216.25,-31.25 216.25,-31.25 222.25,-31.25 228.25,-37.25 228.25,-43.25 228.25,-43.25 228.25,-67.75 228.25,-67.75 228.25,-73.75 222.25,-79.75 216.25,-79.75"/>
<text xml:space="preserve" text-anchor="middle" x="170.75" y="-65.3" font-family="Arial" font-size="11.00" fill="white">Tailwind Export</text>
<text xml:space="preserve" text-anchor="middle" x="170.75" y="-51.8" font-family="Arial" font-size="11.00" fill="white">theme.extend config</text>
<text xml:space="preserve" text-anchor="middle" x="170.75" y="-38.3" font-family="Arial" font-size="11.00" fill="white">(tailwind.theme.json)</text>
</g>
<!-- colors&#45;&gt;tailwind -->
<g id="edge14" class="edge">
<title>colors&#45;&gt;tailwind</title>
<path fill="none" stroke="#9c27b0" stroke-width="1.5" stroke-dasharray="5,2" d="M166.75,-157.01C166.75,-157.01 166.75,-92.31 166.75,-92.31"/>
<polygon fill="#9c27b0" stroke="#9c27b0" stroke-width="1.5" points="170.25,-92.31 166.75,-82.31 163.25,-92.31 170.25,-92.31"/>
<text xml:space="preserve" text-anchor="middle" x="149.5" y="-127.86" font-family="Times New Roman,serif" font-size="14.00">export</text>
</g>
<!-- typo_type -->
<g id="node8" class="node">
<title>typo_type</title>
<path fill="#fbbc04" stroke="black" d="M515.75,-83.5C515.75,-83.5 427.75,-83.5 427.75,-83.5 421.75,-83.5 415.75,-77.5 415.75,-71.5 415.75,-71.5 415.75,-39.5 415.75,-39.5 415.75,-33.5 421.75,-27.5 427.75,-27.5 427.75,-27.5 515.75,-27.5 515.75,-27.5 521.75,-27.5 527.75,-33.5 527.75,-39.5 527.75,-39.5 527.75,-71.5 527.75,-71.5 527.75,-77.5 521.75,-83.5 515.75,-83.5"/>
<text xml:space="preserve" text-anchor="middle" x="471.75" y="-70" font-family="Arial" font-size="10.00" fill="#1a1a2e">Typography Type</text>
<text xml:space="preserve" text-anchor="middle" x="471.75" y="-58" font-family="Arial" font-size="10.00" fill="#1a1a2e">fontFamily, fontSize</text>
<text xml:space="preserve" text-anchor="middle" x="471.75" y="-46" font-family="Arial" font-size="10.00" fill="#1a1a2e">fontWeight, lineHeight</text>
<text xml:space="preserve" text-anchor="middle" x="471.75" y="-34" font-family="Arial" font-size="10.00" fill="#1a1a2e">letterSpacing</text>
</g>
<!-- typography&#45;&gt;typo_type -->
<g id="edge7" class="edge">
<title>typography&#45;&gt;typo_type</title>
<path fill="none" stroke="#fbbc04" stroke-width="1.5" d="M395.62,-175.5C411.25,-175.5 423.31,-175.5 423.31,-175.5 423.31,-175.5 423.31,-96.21 423.31,-96.21"/>
<polygon fill="#fbbc04" stroke="#fbbc04" stroke-width="1.5" points="426.81,-96.21 423.31,-86.21 419.81,-96.21 426.81,-96.21"/>
</g>
<!-- typography&#45;&gt;dtcg -->
<g id="edge13" class="edge">
<title>typography&#45;&gt;dtcg</title>
<path fill="none" stroke="#9c27b0" stroke-width="1.5" stroke-dasharray="5,2" d="M321.75,-157.01C321.75,-157.01 321.75,-92.31 321.75,-92.31"/>
<polygon fill="#9c27b0" stroke="#9c27b0" stroke-width="1.5" points="325.25,-92.31 321.75,-82.31 318.25,-92.31 325.25,-92.31"/>
<text xml:space="preserve" text-anchor="middle" x="304.5" y="-127.86" font-family="Times New Roman,serif" font-size="14.00">export</text>
</g>
<!-- typography&#45;&gt;tailwind -->
<g id="edge15" class="edge">
<title>typography&#45;&gt;tailwind</title>
<path fill="none" stroke="#9c27b0" stroke-width="1.5" stroke-dasharray="5,2" d="M255.81,-169.5C238.23,-169.5 224.25,-169.5 224.25,-169.5 224.25,-169.5 224.25,-92.51 224.25,-92.51"/>
<polygon fill="#9c27b0" stroke="#9c27b0" stroke-width="1.5" points="227.75,-92.51 224.25,-82.51 220.75,-92.51 227.75,-92.51"/>
<text xml:space="preserve" text-anchor="middle" x="241.5" y="-149.98" font-family="Times New Roman,serif" font-size="14.00">export</text>
</g>
<!-- dim_type -->
<g id="node9" class="node">
<title>dim_type</title>
<path fill="#fbbc04" stroke="black" d="M668.62,-77.5C668.62,-77.5 606.88,-77.5 606.88,-77.5 600.88,-77.5 594.88,-71.5 594.88,-65.5 594.88,-65.5 594.88,-45.5 594.88,-45.5 594.88,-39.5 600.88,-33.5 606.88,-33.5 606.88,-33.5 668.62,-33.5 668.62,-33.5 674.62,-33.5 680.62,-39.5 680.62,-45.5 680.62,-45.5 680.62,-65.5 680.62,-65.5 680.62,-71.5 674.62,-77.5 668.62,-77.5"/>
<text xml:space="preserve" text-anchor="middle" x="637.75" y="-64" font-family="Arial" font-size="10.00" fill="#1a1a2e">Dimension Type</text>
<text xml:space="preserve" text-anchor="middle" x="637.75" y="-52" font-family="Arial" font-size="10.00" fill="#1a1a2e">number + unit</text>
<text xml:space="preserve" text-anchor="middle" x="637.75" y="-40" font-family="Arial" font-size="10.00" fill="#1a1a2e">px, em, rem</text>
</g>
<!-- rounded&#45;&gt;dim_type -->
<g id="edge8" class="edge">
<title>rounded&#45;&gt;dim_type</title>
<path fill="none" stroke="#fbbc04" stroke-width="1.5" d="M546.19,-157.01C546.19,-123.35 546.19,-55.5 546.19,-55.5 546.19,-55.5 582.11,-55.5 582.11,-55.5"/>
<polygon fill="#fbbc04" stroke="#fbbc04" stroke-width="1.5" points="582.11,-59 592.11,-55.5 582.11,-52 582.11,-59"/>
</g>
<!-- spacing&#45;&gt;dim_type -->
<g id="edge9" class="edge">
<title>spacing&#45;&gt;dim_type</title>
<path fill="none" stroke="#fbbc04" stroke-width="1.5" d="M640.75,-157.01C640.75,-157.01 640.75,-90.16 640.75,-90.16"/>
<polygon fill="#fbbc04" stroke="#fbbc04" stroke-width="1.5" points="644.25,-90.16 640.75,-80.16 637.25,-90.16 644.25,-90.16"/>
</g>
<!-- ref_type -->
<g id="node10" class="node">
<title>ref_type</title>
<path fill="#ea4335" stroke="black" d="M1040.25,-77.5C1040.25,-77.5 961.25,-77.5 961.25,-77.5 955.25,-77.5 949.25,-71.5 949.25,-65.5 949.25,-65.5 949.25,-45.5 949.25,-45.5 949.25,-39.5 955.25,-33.5 961.25,-33.5 961.25,-33.5 1040.25,-33.5 1040.25,-33.5 1046.25,-33.5 1052.25,-39.5 1052.25,-45.5 1052.25,-45.5 1052.25,-65.5 1052.25,-65.5 1052.25,-71.5 1046.25,-77.5 1040.25,-77.5"/>
<text xml:space="preserve" text-anchor="middle" x="1000.75" y="-64" font-family="Arial" font-size="10.00" fill="white">Token Reference</text>
<text xml:space="preserve" text-anchor="middle" x="1000.75" y="-52" font-family="Arial" font-size="10.00" fill="white">{path.to.token}</text>
<text xml:space="preserve" text-anchor="middle" x="1000.75" y="-40" font-family="Arial" font-size="10.00" fill="white">e.g. {colors.primary}</text>
</g>
<!-- components&#45;&gt;ref_type -->
<g id="edge10" class="edge">
<title>components&#45;&gt;ref_type</title>
<path fill="none" stroke="#ea4335" stroke-width="1.5" d="M946.83,-175.5C958.21,-175.5 966,-175.5 966,-175.5 966,-175.5 966,-90.06 966,-90.06"/>
<polygon fill="#ea4335" stroke="#ea4335" stroke-width="1.5" points="969.5,-90.06 966,-80.06 962.5,-90.06 969.5,-90.06"/>
</g>
<!-- comp_props -->
<g id="node11" class="node">
<title>comp_props</title>
<path fill="#2196f3" stroke="black" d="M901.38,-86.5C901.38,-86.5 778.12,-86.5 778.12,-86.5 772.12,-86.5 766.12,-80.5 766.12,-74.5 766.12,-74.5 766.12,-36.5 766.12,-36.5 766.12,-30.5 772.12,-24.5 778.12,-24.5 778.12,-24.5 901.38,-24.5 901.38,-24.5 907.38,-24.5 913.38,-30.5 913.38,-36.5 913.38,-36.5 913.38,-74.5 913.38,-74.5 913.38,-80.5 907.38,-86.5 901.38,-86.5"/>
<text xml:space="preserve" text-anchor="middle" x="839.75" y="-72.05" font-family="Arial" font-size="11.00" fill="white">Component Properties</text>
<text xml:space="preserve" text-anchor="middle" x="839.75" y="-58.55" font-family="Arial" font-size="11.00" fill="white">backgroundColor, textColor</text>
<text xml:space="preserve" text-anchor="middle" x="839.75" y="-45.05" font-family="Arial" font-size="11.00" fill="white">typography, rounded</text>
<text xml:space="preserve" text-anchor="middle" x="839.75" y="-31.55" font-family="Arial" font-size="11.00" fill="white">padding, size, height, width</text>
</g>
<!-- components&#45;&gt;comp_props -->
<g id="edge11" class="edge">
<title>components&#45;&gt;comp_props</title>
<path fill="none" stroke="#2196f3" stroke-width="1.5" d="M842.12,-157.01C842.12,-157.01 842.12,-99.13 842.12,-99.13"/>
<polygon fill="#2196f3" stroke="#2196f3" stroke-width="1.5" points="845.63,-99.13 842.13,-89.13 838.63,-99.13 845.63,-99.13"/>
</g>
</g>
</svg>
