<?xml version="1.0" encoding="UTF-8" standalone="no"?>
<!DOCTYPE svg PUBLIC "-//W3C//DTD SVG 1.1//EN"
 "http://www.w3.org/Graphics/SVG/1.1/DTD/svg11.dtd">
<!-- Generated by graphviz version 14.1.3 (0)
 -->
<!-- Title: G Pages: 1 -->
<svg width="752pt" height="226pt"
 viewBox="0.00 0.00 752.00 226.00" xmlns="http://www.w3.org/2000/svg" xmlns:xlink="http://www.w3.org/1999/xlink">
<g id="graph0" class="graph" transform="scale(1 1) rotate(0) translate(4 222.4)">
<title>G</title>
<polygon fill="white" stroke="none" points="-4,4 -4,-222.4 747.83,-222.4 747.83,4 -4,4"/>
<g id="clust1" class="cluster">
<title>cluster_commands</title>
<path fill="#e8f4f8" stroke="black" d="M318.83,-136C318.83,-136 405.83,-136 405.83,-136 411.83,-136 417.83,-142 417.83,-148 417.83,-148 417.83,-198.4 417.83,-198.4 417.83,-204.4 411.83,-210.4 405.83,-210.4 405.83,-210.4 318.83,-210.4 318.83,-210.4 312.83,-210.4 306.83,-204.4 306.83,-198.4 306.83,-198.4 306.83,-148 306.83,-148 306.83,-142 312.83,-136 318.83,-136"/>
<text xml:space="preserve" text-anchor="middle" x="362.33" y="-195.6" font-family="Arial" font-size="12.00">Slash Commands</text>
</g>
<g id="clust2" class="cluster">
<title>cluster_skills</title>
<path fill="#fff4e6" stroke="black" d="M437.83,-136C437.83,-136 723.83,-136 723.83,-136 729.83,-136 735.83,-142 735.83,-148 735.83,-148 735.83,-198.4 735.83,-198.4 735.83,-204.4 729.83,-210.4 723.83,-210.4 723.83,-210.4 437.83,-210.4 437.83,-210.4 431.83,-210.4 425.83,-204.4 425.83,-198.4 425.83,-198.4 425.83,-148 425.83,-148 425.83,-142 431.83,-136 437.83,-136"/>
<text xml:space="preserve" text-anchor="middle" x="580.83" y="-195.6" font-family="Arial" font-size="12.00">Skills</text>
</g>
<!-- Claude Code -->
<g id="node1" class="node">
<title>Claude Code</title>
<path fill="#4a90e2" stroke="black" stroke-width="2" d="M285.99,-180C285.99,-180 231.67,-180 231.67,-180 225.67,-180 219.67,-174 219.67,-168 219.67,-168 219.67,-156 219.67,-156 219.67,-150 225.67,-144 231.67,-144 231.67,-144 285.99,-144 285.99,-144 291.99,-144 297.99,-150 297.99,-156 297.99,-156 297.99,-168 297.99,-168 297.99,-174 291.99,-180 285.99,-180"/>
<text xml:space="preserve" text-anchor="middle" x="258.83" y="-158.4" font-family="Times New Roman,serif" font-size="12.00" fill="white">Claude Code</text>
</g>
<!-- Codex Plugin -->
<g id="node2" class="node">
<title>Codex Plugin</title>
<path fill="#50e3c2" stroke="black" stroke-width="2" d="M287.67,-108C287.67,-108 229.99,-108 229.99,-108 223.99,-108 217.99,-102 217.99,-96 217.99,-96 217.99,-84 217.99,-84 217.99,-78 223.99,-72 229.99,-72 229.99,-72 287.67,-72 287.67,-72 293.67,-72 299.67,-78 299.67,-84 299.67,-84 299.67,-96 299.67,-96 299.67,-102 293.67,-108 287.67,-108"/>
<text xml:space="preserve" text-anchor="middle" x="258.83" y="-86.4" font-family="Times New Roman,serif" font-size="12.00" fill="white">Codex Plugin</text>
</g>
<!-- Claude Code&#45;&gt;Codex Plugin -->
<g id="edge1" class="edge">
<title>Claude Code&#45;&gt;Codex Plugin</title>
<path fill="none" stroke="#333333" stroke-width="2" d="M258.83,-143.34C258.83,-136.75 258.83,-129.08 258.83,-121.67"/>
<polygon fill="#333333" stroke="#333333" stroke-width="2" points="262.33,-121.93 258.83,-111.93 255.33,-121.93 262.33,-121.93"/>
</g>
<!-- Codex CLI -->
<g id="node3" class="node">
<title>Codex CLI</title>
<path fill="#f5a623" stroke="black" stroke-width="2" d="M57.66,-36C57.66,-36 12,-36 12,-36 6,-36 0,-30 0,-24 0,-24 0,-12 0,-12 0,-6 6,0 12,0 12,0 57.66,0 57.66,0 63.66,0 69.66,-6 69.66,-12 69.66,-12 69.66,-24 69.66,-24 69.66,-30 63.66,-36 57.66,-36"/>
<text xml:space="preserve" text-anchor="middle" x="34.83" y="-14.4" font-family="Times New Roman,serif" font-size="12.00" fill="white">Codex CLI</text>
</g>
<!-- Codex Plugin&#45;&gt;Codex CLI -->
<g id="edge2" class="edge">
<title>Codex Plugin&#45;&gt;Codex CLI</title>
<path fill="none" stroke="#333333" stroke-width="2" d="M217.16,-77.97C182.99,-68.66 133.15,-54.51 82.57,-37.5"/>
<polygon fill="#333333" stroke="#333333" stroke-width="2" points="83.86,-34.24 73.27,-34.33 81.6,-40.87 83.86,-34.24"/>
</g>
<!-- Codex App Server -->
<g id="node4" class="node">
<title>Codex App Server</title>
<path fill="#f5a623" stroke="black" stroke-width="2" d="M180.49,-36C180.49,-36 99.17,-36 99.17,-36 93.17,-36 87.17,-30 87.17,-24 87.17,-24 87.17,-12 87.17,-12 87.17,-6 93.17,0 99.17,0 99.17,0 180.49,0 180.49,0 186.49,0 192.49,-6 192.49,-12 192.49,-12 192.49,-24 192.49,-24 192.49,-30 186.49,-36 180.49,-36"/>
<text xml:space="preserve" text-anchor="middle" x="139.83" y="-14.4" font-family="Times New Roman,serif" font-size="12.00" fill="white">Codex App Server</text>
</g>
<!-- Codex Plugin&#45;&gt;Codex App Server -->
<g id="edge3" class="edge">
<title>Codex Plugin&#45;&gt;Codex App Server</title>
<path fill="none" stroke="#333333" stroke-width="2" d="M228.49,-71.15C214.09,-62.68 196.65,-52.42 181.06,-43.25"/>
<polygon fill="#333333" stroke="#333333" stroke-width="2" points="183.11,-40.4 172.72,-38.35 179.57,-46.43 183.11,-40.4"/>
</g>
<!-- Claude Hooks -->
<g id="node5" class="node">
<title>Claude Hooks</title>
<ellipse fill="#9013fe" stroke="black" cx="258.83" cy="-18" rx="48.65" ry="18"/>
<text xml:space="preserve" text-anchor="middle" x="258.83" y="-14.7" font-family="Times New Roman,serif" font-size="11.00" fill="white">Claude Hooks</text>
</g>
<!-- Codex Plugin&#45;&gt;Claude Hooks -->
<g id="edge4" class="edge">
<title>Codex Plugin&#45;&gt;Claude Hooks</title>
<path fill="none" stroke="#333333" stroke-width="2" d="M258.83,-71.34C258.83,-64.65 258.83,-56.84 258.83,-49.32"/>
<polygon fill="#333333" stroke="#333333" stroke-width="2" points="262.33,-49.44 258.83,-39.44 255.33,-49.44 262.33,-49.44"/>
</g>
<!-- Slash Commands -->
<g id="node6" class="node">
<title>Slash Commands</title>
<ellipse fill="#9013fe" stroke="black" cx="382.83" cy="-18" rx="57.35" ry="18"/>
<text xml:space="preserve" text-anchor="middle" x="382.83" y="-14.7" font-family="Times New Roman,serif" font-size="11.00" fill="white">Slash Commands</text>
</g>
<!-- Codex Plugin&#45;&gt;Slash Commands -->
<g id="edge5" class="edge">
<title>Codex Plugin&#45;&gt;Slash Commands</title>
<path fill="none" stroke="#333333" stroke-width="2" d="M290.44,-71.15C307.04,-61.78 327.5,-50.23 344.94,-40.39"/>
<polygon fill="#333333" stroke="#333333" stroke-width="2" points="346.28,-43.66 353.26,-35.69 342.83,-37.56 346.28,-43.66"/>
</g>
<!-- Skills -->
<g id="node7" class="node">
<title>Skills</title>
<ellipse fill="#9013fe" stroke="black" cx="484.83" cy="-18" rx="27" ry="18"/>
<text xml:space="preserve" text-anchor="middle" x="484.83" y="-14.7" font-family="Times New Roman,serif" font-size="11.00" fill="white">Skills</text>
</g>
<!-- Codex Plugin&#45;&gt;Skills -->
<g id="edge6" class="edge">
<title>Codex Plugin&#45;&gt;Skills</title>
<path fill="none" stroke="#333333" stroke-width="2" d="M300.61,-79.5C339.55,-70.15 398.93,-54.59 448.83,-36 449.91,-35.6 451,-35.18 452.09,-34.74"/>
<polygon fill="#333333" stroke="#333333" stroke-width="2" points="453.21,-38.07 460.99,-30.88 450.42,-31.65 453.21,-38.07"/>
</g>
<!-- /codex -->
<g id="node8" class="node">
<title>/codex</title>
<polygon fill="white" stroke="black" points="383.83,-180 335.83,-180 335.83,-144 389.83,-144 389.83,-174 383.83,-180"/>
<polyline fill="none" stroke="black" points="383.83,-180 383.83,-174"/>
<polyline fill="none" stroke="black" points="389.83,-174 383.83,-174"/>
<text xml:space="preserve" text-anchor="middle" x="362.83" y="-159.3" font-family="Times New Roman,serif" font-size="9.00">/codex</text>
</g>
<!-- codex&#45;cli&#45;runtime -->
<g id="node9" class="node">
<title>codex&#45;cli&#45;runtime</title>
<polygon fill="white" stroke="black" points="508.07,-180 433.59,-180 433.59,-144 514.07,-144 514.07,-174 508.07,-180"/>
<polyline fill="none" stroke="black" points="508.07,-180 508.07,-174"/>
<polyline fill="none" stroke="black" points="514.07,-174 508.07,-174"/>
<text xml:space="preserve" text-anchor="middle" x="473.83" y="-159.3" font-family="Times New Roman,serif" font-size="9.00">codex&#45;cli&#45;runtime</text>
</g>
<!-- codex&#45;result&#45;handling -->
<g id="node10" class="node">
<title>codex&#45;result&#45;handling</title>
<polygon fill="white" stroke="black" points="621.32,-180 532.34,-180 532.34,-144 627.32,-144 627.32,-174 621.32,-180"/>
<polyline fill="none" stroke="black" points="621.32,-180 621.32,-174"/>
<polyline fill="none" stroke="black" points="627.32,-174 621.32,-174"/>
<text xml:space="preserve" text-anchor="middle" x="579.83" y="-159.3" font-family="Times New Roman,serif" font-size="9.00">codex&#45;result&#45;handling</text>
</g>
<!-- gpt&#45;5&#45;4&#45;prompting -->
<g id="node11" class="node">
<title>gpt&#45;5&#45;4&#45;prompting</title>
<polygon fill="white" stroke="black" points="722.33,-180 645.33,-180 645.33,-144 728.33,-144 728.33,-174 722.33,-180"/>
<polyline fill="none" stroke="black" points="722.33,-180 722.33,-174"/>
<polyline fill="none" stroke="black" points="728.33,-174 722.33,-174"/>
<text xml:space="preserve" text-anchor="middle" x="686.83" y="-159.3" font-family="Times New Roman,serif" font-size="9.00">gpt&#45;5&#45;4&#45;prompting</text>
</g>
</g>
</svg>
