<?xml version="1.0" encoding="UTF-8" standalone="no"?>
<!DOCTYPE svg PUBLIC "-//W3C//DTD SVG 1.1//EN"
 "http://www.w3.org/Graphics/SVG/1.1/DTD/svg11.dtd">
<!-- Generated by graphviz version 14.1.2 (0)
 -->
<!-- Title: langflow_architecture Pages: 1 -->
<svg width="834pt" height="916pt"
 viewBox="0.00 0.00 834.00 916.00" xmlns="http://www.w3.org/2000/svg" xmlns:xlink="http://www.w3.org/1999/xlink">
<g id="graph0" class="graph" transform="scale(1 1) rotate(0) translate(4 911.94)">
<title>langflow_architecture</title>
<polygon fill="white" stroke="none" points="-4,4 -4,-911.94 830,-911.94 830,4 -4,4"/>
<g id="clust1" class="cluster">
<title>cluster_api</title>
<polygon fill="#ebf4ff" stroke="black" points="89,-736.44 89,-812.19 662,-812.19 662,-736.44 89,-736.44"/>
<text xml:space="preserve" text-anchor="middle" x="375.5" y="-794.89" font-family="Helvetica,sans-Serif" font-size="14.00" fill="#2b6cb0">API Layer</text>
</g>
<g id="clust2" class="cluster">
<title>cluster_services</title>
<polygon fill="#f0fff4" stroke="black" points="8,-151.44 8,-227.19 818,-227.19 818,-151.44 8,-151.44"/>
<text xml:space="preserve" text-anchor="middle" x="413" y="-209.89" font-family="Helvetica,sans-Serif" font-size="14.00" fill="#38a169">Service Layer</text>
</g>
<g id="clust3" class="cluster">
<title>cluster_data</title>
<polygon fill="#f0fff4" stroke="black" points="226,-8 226,-114.44 711,-114.44 711,-8 226,-8"/>
<text xml:space="preserve" text-anchor="middle" x="468.5" y="-97.14" font-family="Helvetica,sans-Serif" font-size="14.00" fill="#38a169">Data Stores</text>
</g>
<!-- visual_builder -->
<g id="node1" class="node">
<title>visual_builder</title>
<path fill="#e53e3e" stroke="black" d="M443.38,-907.94C443.38,-907.94 306.62,-907.94 306.62,-907.94 300.62,-907.94 294.62,-901.94 294.62,-895.94 294.62,-895.94 294.62,-869.19 294.62,-869.19 294.62,-863.19 300.62,-857.19 306.62,-857.19 306.62,-857.19 443.38,-857.19 443.38,-857.19 449.38,-857.19 455.38,-863.19 455.38,-869.19 455.38,-869.19 455.38,-895.94 455.38,-895.94 455.38,-901.94 449.38,-907.94 443.38,-907.94"/>
<text xml:space="preserve" text-anchor="middle" x="375" y="-892.54" font-family="Helvetica,sans-Serif" font-size="12.00" fill="white">Visual Flow Builder</text>
<text xml:space="preserve" text-anchor="middle" x="375" y="-878.29" font-family="Helvetica,sans-Serif" font-size="12.00" fill="white">React Flow / @xyflow/react</text>
<text xml:space="preserve" text-anchor="middle" x="375" y="-864.04" font-family="Helvetica,sans-Serif" font-size="12.00" fill="white">Drag&#45;and&#45;Drop Canvas</text>
</g>
<!-- api_v1 -->
<g id="node2" class="node">
<title>api_v1</title>
<path fill="#2b6cb0" stroke="black" d="M197,-780.44C197,-780.44 109,-780.44 109,-780.44 103,-780.44 97,-774.44 97,-768.44 97,-768.44 97,-756.44 97,-756.44 97,-750.44 103,-744.44 109,-744.44 109,-744.44 197,-744.44 197,-744.44 203,-744.44 209,-750.44 209,-756.44 209,-756.44 209,-768.44 209,-768.44 209,-774.44 203,-780.44 197,-780.44"/>
<text xml:space="preserve" text-anchor="middle" x="153" y="-764.94" font-family="Helvetica,sans-Serif" font-size="10.00" fill="white">FastAPI v1 Endpoints</text>
<text xml:space="preserve" text-anchor="middle" x="153" y="-752.94" font-family="Helvetica,sans-Serif" font-size="10.00" fill="white">REST API</text>
</g>
<!-- visual_builder&#45;&gt;api_v1 -->
<g id="edge1" class="edge">
<title>visual_builder&#45;&gt;api_v1</title>
<path fill="none" stroke="#718096" stroke-width="2" d="M294.22,-883C230.75,-883 153,-883 153,-883 153,-883 153,-793.78 153,-793.78"/>
<polygon fill="#718096" stroke="#718096" stroke-width="2" points="156.5,-793.78 153,-783.78 149.5,-793.78 156.5,-793.78"/>
</g>
<!-- api_v2 -->
<g id="node3" class="node">
<title>api_v2</title>
<path fill="#2b6cb0" stroke="black" d="M642,-780.44C642,-780.44 554,-780.44 554,-780.44 548,-780.44 542,-774.44 542,-768.44 542,-768.44 542,-756.44 542,-756.44 542,-750.44 548,-744.44 554,-744.44 554,-744.44 642,-744.44 642,-744.44 648,-744.44 654,-750.44 654,-756.44 654,-756.44 654,-768.44 654,-768.44 654,-774.44 648,-780.44 642,-780.44"/>
<text xml:space="preserve" text-anchor="middle" x="598" y="-764.94" font-family="Helvetica,sans-Serif" font-size="10.00" fill="white">FastAPI v2 Endpoints</text>
<text xml:space="preserve" text-anchor="middle" x="598" y="-752.94" font-family="Helvetica,sans-Serif" font-size="10.00" fill="white">REST API</text>
</g>
<!-- visual_builder&#45;&gt;api_v2 -->
<g id="edge2" class="edge">
<title>visual_builder&#45;&gt;api_v2</title>
<path fill="none" stroke="#718096" stroke-width="2" d="M455.82,-883C519.64,-883 598,-883 598,-883 598,-883 598,-793.78 598,-793.78"/>
<polygon fill="#718096" stroke="#718096" stroke-width="2" points="601.5,-793.78 598,-783.78 594.5,-793.78 601.5,-793.78"/>
</g>
<!-- graph_engine -->
<g id="node6" class="node">
<title>graph_engine</title>
<path fill="#2d3748" stroke="black" d="M443.25,-655.94C443.25,-655.94 320.75,-655.94 320.75,-655.94 314.75,-655.94 308.75,-649.94 308.75,-643.94 308.75,-643.94 308.75,-588.69 308.75,-588.69 308.75,-582.69 314.75,-576.69 320.75,-576.69 320.75,-576.69 443.25,-576.69 443.25,-576.69 449.25,-576.69 455.25,-582.69 455.25,-588.69 455.25,-588.69 455.25,-643.94 455.25,-643.94 455.25,-649.94 449.25,-655.94 443.25,-655.94"/>
<text xml:space="preserve" text-anchor="middle" x="382" y="-640.54" font-family="Helvetica,sans-Serif" font-size="12.00" fill="#e2e8f0">Graph Execution Engine</text>
<text xml:space="preserve" text-anchor="middle" x="382" y="-626.29" font-family="Helvetica,sans-Serif" font-size="12.00" fill="#e2e8f0">DAG Orchestration</text>
<text xml:space="preserve" text-anchor="middle" x="382" y="-612.04" font-family="Helvetica,sans-Serif" font-size="12.00" fill="#e2e8f0">Topological Sort</text>
<text xml:space="preserve" text-anchor="middle" x="382" y="-597.79" font-family="Helvetica,sans-Serif" font-size="12.00" fill="#e2e8f0">Vertex/Edge Model</text>
<text xml:space="preserve" text-anchor="middle" x="382" y="-583.54" font-family="Helvetica,sans-Serif" font-size="12.00" fill="#e2e8f0">Cycle Detection</text>
</g>
<!-- api_v1&#45;&gt;graph_engine -->
<g id="edge3" class="edge">
<title>api_v1&#45;&gt;graph_engine</title>
<path fill="none" stroke="#718096" stroke-width="2" d="M209.27,-762C226.53,-762 241.06,-762 241.06,-762 241.06,-762 241.06,-616 241.06,-616 241.06,-616 295.61,-616 295.61,-616"/>
<polygon fill="#718096" stroke="#718096" stroke-width="2" points="295.61,-619.5 305.61,-616 295.61,-612.5 295.61,-619.5"/>
</g>
<!-- mcp -->
<g id="node9" class="node">
<title>mcp</title>
<path fill="#d69e2e" stroke="black" d="M213.88,-654.06C213.88,-654.06 92.12,-654.06 92.12,-654.06 86.12,-654.06 80.12,-648.06 80.12,-642.06 80.12,-642.06 80.12,-590.56 80.12,-590.56 80.12,-584.56 86.12,-578.56 92.12,-578.56 92.12,-578.56 213.88,-578.56 213.88,-578.56 219.88,-578.56 225.88,-584.56 225.88,-590.56 225.88,-590.56 225.88,-642.06 225.88,-642.06 225.88,-648.06 219.88,-654.06 213.88,-654.06"/>
<text xml:space="preserve" text-anchor="middle" x="153" y="-639.61" font-family="Helvetica,sans-Serif" font-size="11.00" fill="white">MCP Server</text>
<text xml:space="preserve" text-anchor="middle" x="153" y="-626.11" font-family="Helvetica,sans-Serif" font-size="11.00" fill="white">FastMCP Server</text>
<text xml:space="preserve" text-anchor="middle" x="153" y="-612.61" font-family="Helvetica,sans-Serif" font-size="11.00" fill="white">Tool Groups:</text>
<text xml:space="preserve" text-anchor="middle" x="153" y="-599.11" font-family="Helvetica,sans-Serif" font-size="11.00" fill="white">auth/flow/component</text>
<text xml:space="preserve" text-anchor="middle" x="153" y="-585.61" font-family="Helvetica,sans-Serif" font-size="11.00" fill="white">connection/execution/batch</text>
</g>
<!-- api_v1&#45;&gt;mcp -->
<g id="edge9" class="edge">
<title>api_v1&#45;&gt;mcp</title>
<path fill="none" stroke="#d69e2e" stroke-width="1.5" stroke-dasharray="5,2" d="M153,-731.96C153,-731.96 153,-666.76 153,-666.76"/>
<polygon fill="#d69e2e" stroke="#d69e2e" stroke-width="1.5" points="149.5,-731.96 153,-741.96 156.5,-731.96 149.5,-731.96"/>
<polygon fill="#d69e2e" stroke="#d69e2e" stroke-width="1.5" points="156.5,-666.76 153,-656.76 149.5,-666.76 156.5,-666.76"/>
<text xml:space="preserve" text-anchor="middle" x="167.62" y="-695.14" font-family="Times New Roman,serif" font-size="14.00">MCP</text>
</g>
<!-- api_v2&#45;&gt;graph_engine -->
<g id="edge4" class="edge">
<title>api_v2&#45;&gt;graph_engine</title>
<path fill="none" stroke="#718096" stroke-width="2" d="M579.33,-744.2C579.33,-712.83 579.33,-652 579.33,-652 579.33,-652 468.51,-652 468.51,-652"/>
<polygon fill="#718096" stroke="#718096" stroke-width="2" points="468.51,-648.5 458.51,-652 468.51,-655.5 468.51,-648.5"/>
</g>
<!-- lfx -->
<g id="node10" class="node">
<title>lfx</title>
<path fill="#d69e2e" stroke="black" d="M655.88,-647.31C655.88,-647.31 540.12,-647.31 540.12,-647.31 534.12,-647.31 528.12,-641.31 528.12,-635.31 528.12,-635.31 528.12,-597.31 528.12,-597.31 528.12,-591.31 534.12,-585.31 540.12,-585.31 540.12,-585.31 655.88,-585.31 655.88,-585.31 661.88,-585.31 667.88,-591.31 667.88,-597.31 667.88,-597.31 667.88,-635.31 667.88,-635.31 667.88,-641.31 661.88,-647.31 655.88,-647.31"/>
<text xml:space="preserve" text-anchor="middle" x="598" y="-632.86" font-family="Helvetica,sans-Serif" font-size="11.00" fill="white">LFX Lightweight Executor</text>
<text xml:space="preserve" text-anchor="middle" x="598" y="-619.36" font-family="Helvetica,sans-Serif" font-size="11.00" fill="white">Stateless CLI</text>
<text xml:space="preserve" text-anchor="middle" x="598" y="-605.86" font-family="Helvetica,sans-Serif" font-size="11.00" fill="white">NoopSession</text>
<text xml:space="preserve" text-anchor="middle" x="598" y="-592.36" font-family="Helvetica,sans-Serif" font-size="11.00" fill="white">Minimal Dependencies</text>
</g>
<!-- api_v2&#45;&gt;lfx -->
<g id="edge10" class="edge">
<title>api_v2&#45;&gt;lfx</title>
<path fill="none" stroke="#d69e2e" stroke-width="1.5" stroke-dasharray="5,2" d="M616.67,-731.96C616.67,-731.96 616.67,-659.84 616.67,-659.84"/>
<polygon fill="#d69e2e" stroke="#d69e2e" stroke-width="1.5" points="613.17,-731.96 616.67,-741.96 620.17,-731.96 613.17,-731.96"/>
<polygon fill="#d69e2e" stroke="#d69e2e" stroke-width="1.5" points="620.17,-659.84 616.67,-649.84 613.17,-659.84 620.17,-659.84"/>
<text xml:space="preserve" text-anchor="middle" x="610.75" y="-695.14" font-family="Times New Roman,serif" font-size="14.00">LFX</text>
</g>
<!-- openai_ep -->
<g id="node4" class="node">
<title>openai_ep</title>
<path fill="#2b6cb0" stroke="black" d="M341.75,-780.44C341.75,-780.44 264.25,-780.44 264.25,-780.44 258.25,-780.44 252.25,-774.44 252.25,-768.44 252.25,-768.44 252.25,-756.44 252.25,-756.44 252.25,-750.44 258.25,-744.44 264.25,-744.44 264.25,-744.44 341.75,-744.44 341.75,-744.44 347.75,-744.44 353.75,-750.44 353.75,-756.44 353.75,-756.44 353.75,-768.44 353.75,-768.44 353.75,-774.44 347.75,-780.44 341.75,-780.44"/>
<text xml:space="preserve" text-anchor="middle" x="303" y="-764.94" font-family="Helvetica,sans-Serif" font-size="10.00" fill="white">OpenAI&#45;Compatible</text>
<text xml:space="preserve" text-anchor="middle" x="303" y="-752.94" font-family="Helvetica,sans-Serif" font-size="10.00" fill="white">Endpoint</text>
</g>
<!-- openai_ep&#45;&gt;graph_engine -->
<g id="edge5" class="edge">
<title>openai_ep&#45;&gt;graph_engine</title>
<path fill="none" stroke="#718096" stroke-width="1.5" d="M331.25,-744.23C331.25,-744.23 331.25,-668.56 331.25,-668.56"/>
<polygon fill="#718096" stroke="#718096" stroke-width="1.5" points="334.75,-668.56 331.25,-658.56 327.75,-668.56 334.75,-668.56"/>
</g>
<!-- sse_stream -->
<g id="node5" class="node">
<title>sse_stream</title>
<path fill="#2b6cb0" stroke="black" d="M486.75,-780.44C486.75,-780.44 409.25,-780.44 409.25,-780.44 403.25,-780.44 397.25,-774.44 397.25,-768.44 397.25,-768.44 397.25,-756.44 397.25,-756.44 397.25,-750.44 403.25,-744.44 409.25,-744.44 409.25,-744.44 486.75,-744.44 486.75,-744.44 492.75,-744.44 498.75,-750.44 498.75,-756.44 498.75,-756.44 498.75,-768.44 498.75,-768.44 498.75,-774.44 492.75,-780.44 486.75,-780.44"/>
<text xml:space="preserve" text-anchor="middle" x="448" y="-764.94" font-family="Helvetica,sans-Serif" font-size="10.00" fill="white">SSE Streaming</text>
<text xml:space="preserve" text-anchor="middle" x="448" y="-752.94" font-family="Helvetica,sans-Serif" font-size="10.00" fill="white">Server&#45;Sent Events</text>
</g>
<!-- sse_stream&#45;&gt;graph_engine -->
<g id="edge6" class="edge">
<title>sse_stream&#45;&gt;graph_engine</title>
<path fill="none" stroke="#718096" stroke-width="1.5" d="M426.25,-744.23C426.25,-744.23 426.25,-668.56 426.25,-668.56"/>
<polygon fill="#718096" stroke="#718096" stroke-width="1.5" points="429.75,-668.56 426.25,-658.56 422.75,-668.56 429.75,-668.56"/>
</g>
<!-- comp_system -->
<g id="node7" class="node">
<title>comp_system</title>
<path fill="#2d3748" stroke="black" d="M216.38,-503.69C216.38,-503.69 91.62,-503.69 91.62,-503.69 85.62,-503.69 79.62,-497.69 79.62,-491.69 79.62,-491.69 79.62,-436.44 79.62,-436.44 79.62,-430.44 85.62,-424.44 91.62,-424.44 91.62,-424.44 216.38,-424.44 216.38,-424.44 222.38,-424.44 228.38,-430.44 228.38,-436.44 228.38,-436.44 228.38,-491.69 228.38,-491.69 228.38,-497.69 222.38,-503.69 216.38,-503.69"/>
<text xml:space="preserve" text-anchor="middle" x="154" y="-488.29" font-family="Helvetica,sans-Serif" font-size="12.00" fill="#e2e8f0">Component System</text>
<text xml:space="preserve" text-anchor="middle" x="154" y="-474.04" font-family="Helvetica,sans-Serif" font-size="12.00" fill="#e2e8f0">100+ Components</text>
<text xml:space="preserve" text-anchor="middle" x="154" y="-459.79" font-family="Helvetica,sans-Serif" font-size="12.00" fill="#e2e8f0">Component Base Class</text>
<text xml:space="preserve" text-anchor="middle" x="154" y="-445.54" font-family="Helvetica,sans-Serif" font-size="12.00" fill="#e2e8f0">ComponentToolkit</text>
<text xml:space="preserve" text-anchor="middle" x="154" y="-431.29" font-family="Helvetica,sans-Serif" font-size="12.00" fill="#e2e8f0">Component Index Cache</text>
</g>
<!-- graph_engine&#45;&gt;comp_system -->
<g id="edge7" class="edge">
<title>graph_engine&#45;&gt;comp_system</title>
<path fill="none" stroke="#718096" stroke-width="2" d="M314.41,-576.29C314.41,-531.17 314.41,-464 314.41,-464 314.41,-464 241.6,-464 241.6,-464"/>
<polygon fill="#718096" stroke="#718096" stroke-width="2" points="241.6,-460.5 231.6,-464 241.6,-467.5 241.6,-460.5"/>
</g>
<!-- auth_svc -->
<g id="node11" class="node">
<title>auth_svc</title>
<path fill="#2b6cb0" stroke="black" d="M290.12,-195.44C290.12,-195.44 241.88,-195.44 241.88,-195.44 235.88,-195.44 229.88,-189.44 229.88,-183.44 229.88,-183.44 229.88,-171.44 229.88,-171.44 229.88,-165.44 235.88,-159.44 241.88,-159.44 241.88,-159.44 290.12,-159.44 290.12,-159.44 296.12,-159.44 302.12,-165.44 302.12,-171.44 302.12,-171.44 302.12,-183.44 302.12,-183.44 302.12,-189.44 296.12,-195.44 290.12,-195.44"/>
<text xml:space="preserve" text-anchor="middle" x="266" y="-173.94" font-family="Helvetica,sans-Serif" font-size="10.00" fill="white">Auth Service</text>
</g>
<!-- graph_engine&#45;&gt;auth_svc -->
<g id="edge11" class="edge">
<title>graph_engine&#45;&gt;auth_svc</title>
<path fill="none" stroke="#718096" stroke-width="1.5" d="M320.06,-576.32C320.06,-469.05 320.06,-183 320.06,-183 320.06,-183 314.63,-183 314.63,-183"/>
<polygon fill="#718096" stroke="#718096" stroke-width="1.5" points="314.63,-179.5 304.63,-183 314.63,-186.5 314.63,-179.5"/>
</g>
<!-- db_svc -->
<g id="node12" class="node">
<title>db_svc</title>
<path fill="#2b6cb0" stroke="black" d="M406.88,-195.44C406.88,-195.44 357.12,-195.44 357.12,-195.44 351.12,-195.44 345.12,-189.44 345.12,-183.44 345.12,-183.44 345.12,-171.44 345.12,-171.44 345.12,-165.44 351.12,-159.44 357.12,-159.44 357.12,-159.44 406.88,-159.44 406.88,-159.44 412.88,-159.44 418.88,-165.44 418.88,-171.44 418.88,-171.44 418.88,-183.44 418.88,-183.44 418.88,-189.44 412.88,-195.44 406.88,-195.44"/>
<text xml:space="preserve" text-anchor="middle" x="382" y="-179.94" font-family="Helvetica,sans-Serif" font-size="10.00" fill="white">Database</text>
<text xml:space="preserve" text-anchor="middle" x="382" y="-167.94" font-family="Helvetica,sans-Serif" font-size="10.00" fill="white">SQLAlchemy</text>
</g>
<!-- graph_engine&#45;&gt;db_svc -->
<g id="edge12" class="edge">
<title>graph_engine&#45;&gt;db_svc</title>
<path fill="none" stroke="#718096" stroke-width="1.5" d="M382,-576.2C382,-576.2 382,-207.81 382,-207.81"/>
<polygon fill="#718096" stroke="#718096" stroke-width="1.5" points="385.5,-207.81 382,-197.81 378.5,-207.81 385.5,-207.81"/>
</g>
<!-- cache_svc -->
<g id="node13" class="node">
<title>cache_svc</title>
<path fill="#2b6cb0" stroke="black" d="M530.25,-195.44C530.25,-195.44 473.75,-195.44 473.75,-195.44 467.75,-195.44 461.75,-189.44 461.75,-183.44 461.75,-183.44 461.75,-171.44 461.75,-171.44 461.75,-165.44 467.75,-159.44 473.75,-159.44 473.75,-159.44 530.25,-159.44 530.25,-159.44 536.25,-159.44 542.25,-165.44 542.25,-171.44 542.25,-171.44 542.25,-183.44 542.25,-183.44 542.25,-189.44 536.25,-195.44 530.25,-195.44"/>
<text xml:space="preserve" text-anchor="middle" x="502" y="-173.94" font-family="Helvetica,sans-Serif" font-size="10.00" fill="white">Cache Service</text>
</g>
<!-- graph_engine&#45;&gt;cache_svc -->
<g id="edge13" class="edge">
<title>graph_engine&#45;&gt;cache_svc</title>
<path fill="none" stroke="#718096" stroke-width="1.5" d="M455.71,-580C469.8,-580 480.25,-580 480.25,-580 480.25,-580 480.25,-208.05 480.25,-208.05"/>
<polygon fill="#718096" stroke="#718096" stroke-width="1.5" points="483.75,-208.05 480.25,-198.05 476.75,-208.05 483.75,-208.05"/>
</g>
<!-- flow_svc -->
<g id="node17" class="node">
<title>flow_svc</title>
<path fill="#2b6cb0" stroke="black" d="M798.12,-195.44C798.12,-195.44 725.88,-195.44 725.88,-195.44 719.88,-195.44 713.88,-189.44 713.88,-183.44 713.88,-183.44 713.88,-171.44 713.88,-171.44 713.88,-165.44 719.88,-159.44 725.88,-159.44 725.88,-159.44 798.12,-159.44 798.12,-159.44 804.12,-159.44 810.12,-165.44 810.12,-171.44 810.12,-171.44 810.12,-183.44 810.12,-183.44 810.12,-189.44 804.12,-195.44 798.12,-195.44"/>
<text xml:space="preserve" text-anchor="middle" x="762" y="-173.94" font-family="Helvetica,sans-Serif" font-size="10.00" fill="white">Flow Management</text>
</g>
<!-- graph_engine&#45;&gt;flow_svc -->
<g id="edge14" class="edge">
<title>graph_engine&#45;&gt;flow_svc</title>
<path fill="none" stroke="#718096" stroke-width="1.5" d="M455.72,-582C566.22,-582 762,-582 762,-582 762,-582 762,-208.14 762,-208.14"/>
<polygon fill="#718096" stroke="#718096" stroke-width="1.5" points="765.5,-208.14 762,-198.14 758.5,-208.14 765.5,-208.14"/>
</g>
<!-- agentic -->
<g id="node8" class="node">
<title>agentic</title>
<path fill="#2b6cb0" stroke="black" d="M210.88,-351.44C210.88,-351.44 89.12,-351.44 89.12,-351.44 83.12,-351.44 77.12,-345.44 77.12,-339.44 77.12,-339.44 77.12,-284.19 77.12,-284.19 77.12,-278.19 83.12,-272.19 89.12,-272.19 89.12,-272.19 210.88,-272.19 210.88,-272.19 216.88,-272.19 222.88,-278.19 222.88,-284.19 222.88,-284.19 222.88,-339.44 222.88,-339.44 222.88,-345.44 216.88,-351.44 210.88,-351.44"/>
<text xml:space="preserve" text-anchor="middle" x="150" y="-336.04" font-family="Helvetica,sans-Serif" font-size="12.00" fill="white">Agentic Service</text>
<text xml:space="preserve" text-anchor="middle" x="150" y="-321.79" font-family="Helvetica,sans-Serif" font-size="12.00" fill="white">Assistant Service</text>
<text xml:space="preserve" text-anchor="middle" x="150" y="-307.54" font-family="Helvetica,sans-Serif" font-size="12.00" fill="white">Flow Executor</text>
<text xml:space="preserve" text-anchor="middle" x="150" y="-293.29" font-family="Helvetica,sans-Serif" font-size="12.00" fill="white">Input Sanitization</text>
<text xml:space="preserve" text-anchor="middle" x="150" y="-279.04" font-family="Helvetica,sans-Serif" font-size="12.00" fill="white">Code Security Scanning</text>
</g>
<!-- comp_system&#45;&gt;agentic -->
<g id="edge8" class="edge">
<title>comp_system&#45;&gt;agentic</title>
<path fill="none" stroke="#718096" stroke-width="2" d="M151.25,-424.06C151.25,-424.06 151.25,-364.84 151.25,-364.84"/>
<polygon fill="#718096" stroke="#718096" stroke-width="2" points="154.75,-364.84 151.25,-354.84 147.75,-364.84 154.75,-364.84"/>
</g>
<!-- tracing_svc -->
<g id="node15" class="node">
<title>tracing_svc</title>
<path fill="#2b6cb0" stroke="black" d="M58,-195.44C58,-195.44 28,-195.44 28,-195.44 22,-195.44 16,-189.44 16,-183.44 16,-183.44 16,-171.44 16,-171.44 16,-165.44 22,-159.44 28,-159.44 28,-159.44 58,-159.44 58,-159.44 64,-159.44 70,-165.44 70,-171.44 70,-171.44 70,-183.44 70,-183.44 70,-189.44 64,-195.44 58,-195.44"/>
<text xml:space="preserve" text-anchor="middle" x="43" y="-173.94" font-family="Helvetica,sans-Serif" font-size="10.00" fill="white">Tracing</text>
</g>
<!-- agentic&#45;&gt;tracing_svc -->
<g id="edge20" class="edge">
<title>agentic&#45;&gt;tracing_svc</title>
<path fill="none" stroke="#718096" stroke-width="1.5" d="M95.31,-271.73C95.31,-231.99 95.31,-177 95.31,-177 95.31,-177 82.65,-177 82.65,-177"/>
<polygon fill="#718096" stroke="#718096" stroke-width="1.5" points="82.65,-173.5 72.65,-177 82.65,-180.5 82.65,-173.5"/>
</g>
<!-- chat_svc -->
<g id="node16" class="node">
<title>chat_svc</title>
<path fill="#2b6cb0" stroke="black" d="M174.5,-195.44C174.5,-195.44 125.5,-195.44 125.5,-195.44 119.5,-195.44 113.5,-189.44 113.5,-183.44 113.5,-183.44 113.5,-171.44 113.5,-171.44 113.5,-165.44 119.5,-159.44 125.5,-159.44 125.5,-159.44 174.5,-159.44 174.5,-159.44 180.5,-159.44 186.5,-165.44 186.5,-171.44 186.5,-171.44 186.5,-183.44 186.5,-183.44 186.5,-189.44 180.5,-195.44 174.5,-195.44"/>
<text xml:space="preserve" text-anchor="middle" x="150" y="-173.94" font-family="Helvetica,sans-Serif" font-size="10.00" fill="white">Chat Service</text>
</g>
<!-- agentic&#45;&gt;chat_svc -->
<g id="edge19" class="edge">
<title>agentic&#45;&gt;chat_svc</title>
<path fill="none" stroke="#718096" stroke-width="1.5" d="M150,-271.86C150,-271.86 150,-208.05 150,-208.05"/>
<polygon fill="#718096" stroke="#718096" stroke-width="1.5" points="153.5,-208.05 150,-198.05 146.5,-208.05 153.5,-208.05"/>
</g>
<!-- sqlite -->
<g id="node18" class="node">
<title>sqlite</title>
<path fill="#38a169" stroke="black" d="M288,-64.07C288,-65.88 275.9,-67.34 261,-67.34 246.1,-67.34 234,-65.88 234,-64.07 234,-64.07 234,-34.62 234,-34.62 234,-32.81 246.1,-31.34 261,-31.34 275.9,-31.34 288,-32.81 288,-34.62 288,-34.62 288,-64.07 288,-64.07"/>
<path fill="none" stroke="black" d="M288,-64.07C288,-62.27 275.9,-60.8 261,-60.8 246.1,-60.8 234,-62.27 234,-64.07"/>
<text xml:space="preserve" text-anchor="middle" x="261" y="-45.84" font-family="Helvetica,sans-Serif" font-size="10.00" fill="white">SQLite</text>
</g>
<!-- db_svc&#45;&gt;sqlite -->
<g id="edge15" class="edge">
<title>db_svc&#45;&gt;sqlite</title>
<path fill="none" stroke="#38a169" stroke-width="1.5" d="M344.77,-171C334.31,-171 325.72,-171 325.72,-171 325.72,-171 325.72,-49 325.72,-49 325.72,-49 300.72,-49 300.72,-49"/>
<polygon fill="#38a169" stroke="#38a169" stroke-width="1.5" points="300.72,-45.5 290.72,-49 300.72,-52.5 300.72,-45.5"/>
</g>
<!-- postgres -->
<g id="node19" class="node">
<title>postgres</title>
<path fill="#38a169" stroke="black" d="M400.62,-64.07C400.62,-65.88 385.11,-67.34 366,-67.34 346.89,-67.34 331.38,-65.88 331.38,-64.07 331.38,-64.07 331.38,-34.62 331.38,-34.62 331.38,-32.81 346.89,-31.34 366,-31.34 385.11,-31.34 400.62,-32.81 400.62,-34.62 400.62,-34.62 400.62,-64.07 400.62,-64.07"/>
<path fill="none" stroke="black" d="M400.62,-64.07C400.62,-62.27 385.11,-60.8 366,-60.8 346.89,-60.8 331.38,-62.27 331.38,-64.07"/>
<text xml:space="preserve" text-anchor="middle" x="366" y="-45.84" font-family="Helvetica,sans-Serif" font-size="10.00" fill="white">PostgreSQL</text>
</g>
<!-- db_svc&#45;&gt;postgres -->
<g id="edge16" class="edge">
<title>db_svc&#45;&gt;postgres</title>
<path fill="none" stroke="#38a169" stroke-width="1.5" d="M372.88,-159.08C372.88,-159.08 372.88,-79.93 372.88,-79.93"/>
<polygon fill="#38a169" stroke="#38a169" stroke-width="1.5" points="376.38,-79.93 372.88,-69.93 369.38,-79.93 376.38,-79.93"/>
</g>
<!-- vector_stores -->
<g id="node20" class="node">
<title>vector_stores</title>
<path fill="#38a169" stroke="black" d="M580.75,-76.62C580.75,-79.97 549.94,-82.69 512,-82.69 474.06,-82.69 443.25,-79.97 443.25,-76.62 443.25,-76.62 443.25,-22.06 443.25,-22.06 443.25,-18.72 474.06,-16 512,-16 549.94,-16 580.75,-18.72 580.75,-22.06 580.75,-22.06 580.75,-76.62 580.75,-76.62"/>
<path fill="none" stroke="black" d="M580.75,-76.62C580.75,-73.28 549.94,-70.56 512,-70.56 474.06,-70.56 443.25,-73.28 443.25,-76.62"/>
<text xml:space="preserve" text-anchor="middle" x="512" y="-59.14" font-family="Helvetica,sans-Serif" font-size="11.00" fill="white">Vector Stores</text>
<text xml:space="preserve" text-anchor="middle" x="512" y="-45.64" font-family="Helvetica,sans-Serif" font-size="11.00" fill="white">Pinecone/Chroma/FAISS</text>
<text xml:space="preserve" text-anchor="middle" x="512" y="-32.14" font-family="Helvetica,sans-Serif" font-size="11.00" fill="white">Qdrant/Weaviate</text>
</g>
<!-- cache_svc&#45;&gt;vector_stores -->
<g id="edge18" class="edge">
<title>cache_svc&#45;&gt;vector_stores</title>
<path fill="none" stroke="#38a169" stroke-width="1.5" d="M502,-159.08C502,-159.08 502,-95.32 502,-95.32"/>
<polygon fill="#38a169" stroke="#38a169" stroke-width="1.5" points="505.5,-95.32 502,-85.32 498.5,-95.32 505.5,-95.32"/>
</g>
<!-- storage_svc -->
<g id="node14" class="node">
<title>storage_svc</title>
<path fill="#2b6cb0" stroke="black" d="M658.88,-195.44C658.88,-195.44 597.12,-195.44 597.12,-195.44 591.12,-195.44 585.12,-189.44 585.12,-183.44 585.12,-183.44 585.12,-171.44 585.12,-171.44 585.12,-165.44 591.12,-159.44 597.12,-159.44 597.12,-159.44 658.88,-159.44 658.88,-159.44 664.88,-159.44 670.88,-165.44 670.88,-171.44 670.88,-171.44 670.88,-183.44 670.88,-183.44 670.88,-189.44 664.88,-195.44 658.88,-195.44"/>
<text xml:space="preserve" text-anchor="middle" x="628" y="-173.94" font-family="Helvetica,sans-Serif" font-size="10.00" fill="white">Storage Service</text>
</g>
<!-- file_storage -->
<g id="node21" class="node">
<title>file_storage</title>
<path fill="#38a169" stroke="black" d="M702.5,-67.34C702.5,-69.55 684.8,-71.34 663,-71.34 641.2,-71.34 623.5,-69.55 623.5,-67.34 623.5,-67.34 623.5,-31.34 623.5,-31.34 623.5,-29.14 641.2,-27.34 663,-27.34 684.8,-27.34 702.5,-29.14 702.5,-31.34 702.5,-31.34 702.5,-67.34 702.5,-67.34"/>
<path fill="none" stroke="black" d="M702.5,-67.34C702.5,-65.14 684.8,-63.34 663,-63.34 641.2,-63.34 623.5,-65.14 623.5,-67.34"/>
<text xml:space="preserve" text-anchor="middle" x="663" y="-51.84" font-family="Helvetica,sans-Serif" font-size="10.00" fill="white">File Storage</text>
<text xml:space="preserve" text-anchor="middle" x="663" y="-39.84" font-family="Helvetica,sans-Serif" font-size="10.00" fill="white">Local/S3/GCS</text>
</g>
<!-- storage_svc&#45;&gt;file_storage -->
<g id="edge17" class="edge">
<title>storage_svc&#45;&gt;file_storage</title>
<path fill="none" stroke="#38a169" stroke-width="1.5" d="M647.19,-159.08C647.19,-159.08 647.19,-83.81 647.19,-83.81"/>
<polygon fill="#38a169" stroke="#38a169" stroke-width="1.5" points="650.69,-83.81 647.19,-73.81 643.69,-83.81 650.69,-83.81"/>
</g>
</g>
</svg>
