<?xml version="1.0" encoding="UTF-8" standalone="no"?>
<!DOCTYPE svg PUBLIC "-//W3C//DTD SVG 1.1//EN"
 "http://www.w3.org/Graphics/SVG/1.1/DTD/svg11.dtd">
<!-- Generated by graphviz version 14.1.2 (0)
 -->
<!-- Title: G Pages: 1 -->
<svg width="242pt" height="761pt"
 viewBox="0.00 0.00 242.00 761.00" xmlns="http://www.w3.org/2000/svg" xmlns:xlink="http://www.w3.org/1999/xlink">
<g id="graph0" class="graph" transform="scale(1 1) rotate(0) translate(4 756.5)">
<title>G</title>
<!-- draft -->
<g id="node1" class="node">
<title>draft</title>
<path fill="#3498db" stroke="black" d="M156.75,-752.5C156.75,-752.5 98,-752.5 98,-752.5 92,-752.5 86,-746.5 86,-740.5 86,-740.5 86,-728.5 86,-728.5 86,-722.5 92,-716.5 98,-716.5 98,-716.5 156.75,-716.5 156.75,-716.5 162.75,-716.5 168.75,-722.5 168.75,-728.5 168.75,-728.5 168.75,-740.5 168.75,-740.5 168.75,-746.5 162.75,-752.5 156.75,-752.5"/>
<text xml:space="preserve" text-anchor="middle" x="127.38" y="-731.17" font-family="Helvetica Bold" font-size="11.00" fill="white">Draft Article</text>
</g>
<!-- l1 -->
<g id="node2" class="node">
<title>l1</title>
<path fill="#e74c3c" stroke="black" d="M98.25,-679.5C98.25,-679.5 12.5,-679.5 12.5,-679.5 6.5,-679.5 0.5,-673.5 0.5,-667.5 0.5,-667.5 0.5,-590 0.5,-590 0.5,-584 6.5,-578 12.5,-578 12.5,-578 98.25,-578 98.25,-578 104.25,-578 110.25,-584 110.25,-590 110.25,-590 110.25,-667.5 110.25,-667.5 110.25,-673.5 104.25,-679.5 98.25,-679.5"/>
<text xml:space="preserve" text-anchor="middle" x="55.38" y="-666.95" font-family="Times New Roman,serif" font-size="9.00" fill="white">L1: Hard Rules Check</text>
<text xml:space="preserve" text-anchor="middle" x="55.38" y="-656.45" font-family="Times New Roman,serif" font-size="9.00" fill="white">(Syntax Layer)</text>
<text xml:space="preserve" text-anchor="middle" x="55.38" y="-635.95" font-family="Times New Roman,serif" font-size="9.00" fill="white">&#45; Banned word scan</text>
<text xml:space="preserve" text-anchor="middle" x="55.38" y="-625.45" font-family="Times New Roman,serif" font-size="9.00" fill="white">&#45; Banned punctuation scan</text>
<text xml:space="preserve" text-anchor="middle" x="55.38" y="-614.95" font-family="Times New Roman,serif" font-size="9.00" fill="white">&#45; Structural cliche scan</text>
<text xml:space="preserve" text-anchor="middle" x="55.38" y="-604.45" font-family="Times New Roman,serif" font-size="9.00" fill="white">&#45; Vague tool name check</text>
<text xml:space="preserve" text-anchor="middle" x="55.38" y="-583.95" font-family="Times New Roman,serif" font-size="9.00" fill="white">Zero hits required</text>
</g>
<!-- draft&#45;&gt;l1 -->
<g id="edge1" class="edge">
<title>draft&#45;&gt;l1</title>
<path fill="none" stroke="#555555" stroke-width="1.5" d="M94.08,-716.08C94.08,-716.08 94.08,-691.94 94.08,-691.94"/>
<polygon fill="#555555" stroke="#555555" stroke-width="1.5" points="97.58,-691.94 94.08,-681.94 90.58,-691.94 97.58,-691.94"/>
</g>
<!-- l1&#45;&gt;l1 -->
<g id="edge6" class="edge">
<title>l1&#45;&gt;l1</title>
<path fill="none" stroke="#e74c3c" stroke-dasharray="5,2" d="M102.17,-679.81C102.17,-690.18 102.17,-698 102.17,-698 102.17,-698 129.75,-698 129.75,-698 129.75,-698 129.75,-555 129.75,-555 129.75,-555 92.38,-555 92.38,-555 92.38,-555 92.38,-566.01 92.38,-566.01"/>
<polygon fill="#e74c3c" stroke="#e74c3c" points="88.88,-566.01 92.38,-576.01 95.88,-566.01 88.88,-566.01"/>
</g>
<!-- l2 -->
<g id="node3" class="node">
<title>l2</title>
<path fill="#f39c12" stroke="black" d="M188.12,-531.5C188.12,-531.5 68.62,-531.5 68.62,-531.5 62.62,-531.5 56.62,-525.5 56.62,-519.5 56.62,-519.5 56.62,-442 56.62,-442 56.62,-436 62.62,-430 68.62,-430 68.62,-430 188.12,-430 188.12,-430 194.12,-430 200.12,-436 200.12,-442 200.12,-442 200.12,-519.5 200.12,-519.5 200.12,-525.5 194.12,-531.5 188.12,-531.5"/>
<text xml:space="preserve" text-anchor="middle" x="128.38" y="-518.95" font-family="Times New Roman,serif" font-size="9.00" fill="white">L2: Style Consistency</text>
<text xml:space="preserve" text-anchor="middle" x="128.38" y="-508.45" font-family="Times New Roman,serif" font-size="9.00" fill="white">(Pattern Matching Layer)</text>
<text xml:space="preserve" text-anchor="middle" x="128.38" y="-487.95" font-family="Times New Roman,serif" font-size="9.00" fill="white">&#45; Opening check (specific event?)</text>
<text xml:space="preserve" text-anchor="middle" x="128.38" y="-477.45" font-family="Times New Roman,serif" font-size="9.00" fill="white">&#45; Rhythm check (long/short mix?)</text>
<text xml:space="preserve" text-anchor="middle" x="128.38" y="-466.95" font-family="Times New Roman,serif" font-size="9.00" fill="white">&#45; Colloquial check (8&#45;10+ phrases?)</text>
<text xml:space="preserve" text-anchor="middle" x="128.38" y="-456.45" font-family="Times New Roman,serif" font-size="9.00" fill="white">&#45; Punctuation re&#45;verification</text>
<text xml:space="preserve" text-anchor="middle" x="128.38" y="-435.95" font-family="Times New Roman,serif" font-size="9.00" fill="white">3/4 items must pass</text>
</g>
<!-- l1&#45;&gt;l2 -->
<g id="edge2" class="edge">
<title>l1&#45;&gt;l2</title>
<path fill="none" stroke="#2ecc71" stroke-width="1.5" d="M74.5,-577.82C74.5,-577.82 74.5,-544.05 74.5,-544.05"/>
<polygon fill="#2ecc71" stroke="#2ecc71" stroke-width="1.5" points="78,-544.05 74.5,-534.05 71,-544.05 78,-544.05"/>
<text xml:space="preserve" text-anchor="middle" x="120.88" y="-551.45" font-family="Times New Roman,serif" font-size="9.00" fill="#2ecc71"> &#160;Pass</text>
</g>
<!-- l2&#45;&gt;draft -->
<g id="edge7" class="edge">
<title>l2&#45;&gt;draft</title>
<path fill="none" stroke="#e74c3c" stroke-dasharray="5,2" d="M149.25,-531.79C149.25,-531.79 149.25,-704.73 149.25,-704.73"/>
<polygon fill="#e74c3c" stroke="#e74c3c" points="145.75,-704.73 149.25,-714.73 152.75,-704.74 145.75,-704.73"/>
<text xml:space="preserve" text-anchor="middle" x="213.12" y="-626.6" font-family="Times New Roman,serif" font-size="7.00" fill="#e74c3c"> &#160;Rewrite</text>
</g>
<!-- l3 -->
<g id="node4" class="node">
<title>l3</title>
<path fill="#2ecc71" stroke="black" d="M186.25,-383.5C186.25,-383.5 70.5,-383.5 70.5,-383.5 64.5,-383.5 58.5,-377.5 58.5,-371.5 58.5,-371.5 58.5,-273 58.5,-273 58.5,-267 64.5,-261 70.5,-261 70.5,-261 186.25,-261 186.25,-261 192.25,-261 198.25,-267 198.25,-273 198.25,-273 198.25,-371.5 198.25,-371.5 198.25,-377.5 192.25,-383.5 186.25,-383.5"/>
<text xml:space="preserve" text-anchor="middle" x="128.38" y="-370.95" font-family="Times New Roman,serif" font-size="9.00" fill="white">L3: Content Quality</text>
<text xml:space="preserve" text-anchor="middle" x="128.38" y="-360.45" font-family="Times New Roman,serif" font-size="9.00" fill="white">(Integration Test Layer)</text>
<text xml:space="preserve" text-anchor="middle" x="128.38" y="-339.95" font-family="Times New Roman,serif" font-size="9.00" fill="white">&#45; Claim support (evidence?)</text>
<text xml:space="preserve" text-anchor="middle" x="128.38" y="-329.45" font-family="Times New Roman,serif" font-size="9.00" fill="white">&#45; Knowledge output (natural?)</text>
<text xml:space="preserve" text-anchor="middle" x="128.38" y="-318.95" font-family="Times New Roman,serif" font-size="9.00" fill="white">&#45; Cultural elevation (connected?)</text>
<text xml:space="preserve" text-anchor="middle" x="128.38" y="-308.45" font-family="Times New Roman,serif" font-size="9.00" fill="white">&#45; Empathy check (opposing view?)</text>
<text xml:space="preserve" text-anchor="middle" x="128.38" y="-297.95" font-family="Times New Roman,serif" font-size="9.00" fill="white">&#45; Type&#45;specific checks</text>
<text xml:space="preserve" text-anchor="middle" x="128.38" y="-287.45" font-family="Times New Roman,serif" font-size="9.00" fill="white">&#45; Progressive reveal check</text>
<text xml:space="preserve" text-anchor="middle" x="128.38" y="-266.95" font-family="Times New Roman,serif" font-size="9.00" fill="white">Core items must pass</text>
</g>
<!-- l2&#45;&gt;l3 -->
<g id="edge3" class="edge">
<title>l2&#45;&gt;l3</title>
<path fill="none" stroke="#2ecc71" stroke-width="1.5" d="M128.38,-429.73C128.38,-429.73 128.38,-396.26 128.38,-396.26"/>
<polygon fill="#2ecc71" stroke="#2ecc71" stroke-width="1.5" points="131.88,-396.26 128.38,-386.26 124.88,-396.26 131.88,-396.26"/>
<text xml:space="preserve" text-anchor="middle" x="138.88" y="-403.45" font-family="Times New Roman,serif" font-size="9.00" fill="#2ecc71"> &#160;Pass</text>
</g>
<!-- l4 -->
<g id="node5" class="node">
<title>l4</title>
<path fill="#9b59b6" stroke="black" d="M179.5,-214.5C179.5,-214.5 77.25,-214.5 77.25,-214.5 71.25,-214.5 65.25,-208.5 65.25,-202.5 65.25,-202.5 65.25,-125 65.25,-125 65.25,-119 71.25,-113 77.25,-113 77.25,-113 179.5,-113 179.5,-113 185.5,-113 191.5,-119 191.5,-125 191.5,-125 191.5,-202.5 191.5,-202.5 191.5,-208.5 185.5,-214.5 179.5,-214.5"/>
<text xml:space="preserve" text-anchor="middle" x="128.38" y="-201.95" font-family="Times New Roman,serif" font-size="9.00" fill="white">L4: Human Feel Final</text>
<text xml:space="preserve" text-anchor="middle" x="128.38" y="-191.45" font-family="Times New Roman,serif" font-size="9.00" fill="white">(Personality Layer)</text>
<text xml:space="preserve" text-anchor="middle" x="128.38" y="-170.95" font-family="Times New Roman,serif" font-size="9.00" fill="white">&#45; Temperature (body memory?)</text>
<text xml:space="preserve" text-anchor="middle" x="128.38" y="-160.45" font-family="Times New Roman,serif" font-size="9.00" fill="white">&#45; Uniqueness (only Khazix?)</text>
<text xml:space="preserve" text-anchor="middle" x="128.38" y="-149.95" font-family="Times New Roman,serif" font-size="9.00" fill="white">&#45; Posture (peer, not teacher?)</text>
<text xml:space="preserve" text-anchor="middle" x="128.38" y="-139.45" font-family="Times New Roman,serif" font-size="9.00" fill="white">&#45; Flow (attention breaks?)</text>
<text xml:space="preserve" text-anchor="middle" x="128.38" y="-118.95" font-family="Times New Roman,serif" font-size="9.00" fill="white">Overall &#39;feels human&#39;</text>
</g>
<!-- l3&#45;&gt;l4 -->
<g id="edge4" class="edge">
<title>l3&#45;&gt;l4</title>
<path fill="none" stroke="#2ecc71" stroke-width="1.5" d="M128.38,-260.52C128.38,-260.52 128.38,-227.08 128.38,-227.08"/>
<polygon fill="#2ecc71" stroke="#2ecc71" stroke-width="1.5" points="131.88,-227.08 128.38,-217.08 124.88,-227.08 131.88,-227.08"/>
<text xml:space="preserve" text-anchor="middle" x="138.88" y="-234.45" font-family="Times New Roman,serif" font-size="9.00" fill="#2ecc71"> &#160;Pass</text>
</g>
<!-- final -->
<g id="node6" class="node">
<title>final</title>
<path fill="#1abc9c" stroke="black" d="M118.75,-51.5C118.75,-51.5 12,-51.5 12,-51.5 6,-51.5 0,-45.5 0,-39.5 0,-39.5 0,-27 0,-27 0,-21 6,-15 12,-15 12,-15 118.75,-15 118.75,-15 124.75,-15 130.75,-21 130.75,-27 130.75,-27 130.75,-39.5 130.75,-39.5 130.75,-45.5 124.75,-51.5 118.75,-51.5"/>
<text xml:space="preserve" text-anchor="middle" x="65.38" y="-37.05" font-family="Helvetica Bold" font-size="11.00" fill="white">Published Article</text>
<text xml:space="preserve" text-anchor="middle" x="65.38" y="-22.8" font-family="Helvetica Bold" font-size="11.00" fill="white">4&#45;layer quality report</text>
</g>
<!-- l4&#45;&gt;final -->
<g id="edge5" class="edge">
<title>l4&#45;&gt;final</title>
<path fill="none" stroke="#2ecc71" stroke-width="1.5" d="M98,-112.55C98,-112.55 98,-64.03 98,-64.03"/>
<polygon fill="#2ecc71" stroke="#2ecc71" stroke-width="1.5" points="101.5,-64.03 98,-54.03 94.5,-64.03 101.5,-64.03"/>
<text xml:space="preserve" text-anchor="middle" x="75.88" y="-86.45" font-family="Times New Roman,serif" font-size="9.00" fill="#2ecc71"> &#160;Pass</text>
</g>
<!-- analogy -->
<g id="node7" class="node">
<title>analogy</title>
<polygon fill="#fff9e6" stroke="black" points="228.25,-66.5 148.5,-66.5 148.5,0 234.25,0 234.25,-60.5 228.25,-66.5"/>
<polyline fill="none" stroke="black" points="228.25,-66.5 228.25,-60.5"/>
<polyline fill="none" stroke="black" points="234.25,-60.5 228.25,-60.5"/>
<text xml:space="preserve" text-anchor="middle" x="191.38" y="-54.9" font-family="Times New Roman,serif" font-size="8.00" fill="#666666">Inspired by software</text>
<text xml:space="preserve" text-anchor="middle" x="191.38" y="-45.15" font-family="Times New Roman,serif" font-size="8.00" fill="#666666">testing pyramid:</text>
<text xml:space="preserve" text-anchor="middle" x="191.38" y="-35.4" font-family="Times New Roman,serif" font-size="8.00" fill="#666666">L1 = syntax check</text>
<text xml:space="preserve" text-anchor="middle" x="191.38" y="-25.65" font-family="Times New Roman,serif" font-size="8.00" fill="#666666">L2 = unit tests</text>
<text xml:space="preserve" text-anchor="middle" x="191.38" y="-15.9" font-family="Times New Roman,serif" font-size="8.00" fill="#666666">L3 = integration tests</text>
<text xml:space="preserve" text-anchor="middle" x="191.38" y="-6.15" font-family="Times New Roman,serif" font-size="8.00" fill="#666666">L4 = user acceptance</text>
</g>
<!-- l4&#45;&gt;analogy -->
<g id="edge8" class="edge">
<title>l4&#45;&gt;analogy</title>
<path fill="none" stroke="#cccccc" stroke-width="0.5" stroke-dasharray="1,5" d="M170,-112.55C170,-112.55 170,-77.41 170,-77.41"/>
<polygon fill="#cccccc" stroke="#cccccc" stroke-width="0.5" points="173.5,-77.41 170,-67.41 166.5,-77.41 173.5,-77.41"/>
</g>
</g>
</svg>
