<?xml version="1.0" encoding="UTF-8" standalone="no"?>
<!DOCTYPE svg PUBLIC "-//W3C//DTD SVG 1.1//EN"
 "http://www.w3.org/Graphics/SVG/1.1/DTD/svg11.dtd">
<!-- Generated by graphviz version 14.1.2 (0)
 -->
<!-- Title: tailslayer_latency_problem Pages: 1 -->
<svg width="464pt" height="663pt"
 viewBox="0.00 0.00 464.00 663.00" xmlns="http://www.w3.org/2000/svg" xmlns:xlink="http://www.w3.org/1999/xlink">
<g id="graph0" class="graph" transform="scale(1 1) rotate(0) translate(4 658.5)">
<title>tailslayer_latency_problem</title>
<polygon fill="white" stroke="none" points="-4,4 -4,-658.5 459.5,-658.5 459.5,4 -4,4"/>
<!-- normal_title -->
<g id="node1" class="node">
<title>normal_title</title>
<path fill="#2e7d32" stroke="black" d="M114.25,-654.5C114.25,-654.5 12,-654.5 12,-654.5 6,-654.5 0,-648.5 0,-642.5 0,-642.5 0,-630.5 0,-630.5 0,-624.5 6,-618.5 12,-618.5 12,-618.5 114.25,-618.5 114.25,-618.5 120.25,-618.5 126.25,-624.5 126.25,-630.5 126.25,-630.5 126.25,-642.5 126.25,-642.5 126.25,-648.5 120.25,-654.5 114.25,-654.5"/>
<text xml:space="preserve" text-anchor="middle" x="63.12" y="-632.23" font-family="Helvetica,sans-Serif" font-size="12.00" fill="white">Normal DRAM Read</text>
</g>
<!-- normal_read -->
<g id="node2" class="node">
<title>normal_read</title>
<path fill="#4caf50" stroke="black" d="M88,-567.5C88,-567.5 38.25,-567.5 38.25,-567.5 32.25,-567.5 26.25,-561.5 26.25,-555.5 26.25,-555.5 26.25,-543.5 26.25,-543.5 26.25,-537.5 32.25,-531.5 38.25,-531.5 38.25,-531.5 88,-531.5 88,-531.5 94,-531.5 100,-537.5 100,-543.5 100,-543.5 100,-555.5 100,-555.5 100,-561.5 94,-567.5 88,-567.5"/>
<text xml:space="preserve" text-anchor="middle" x="63.12" y="-552.55" font-family="Helvetica,sans-Serif" font-size="11.00" fill="white">~50&#45;100ns</text>
<text xml:space="preserve" text-anchor="middle" x="63.12" y="-539.05" font-family="Helvetica,sans-Serif" font-size="11.00" fill="white">Fast Access</text>
</g>
<!-- normal_title&#45;&gt;normal_read -->
<g id="edge1" class="edge">
<title>normal_title&#45;&gt;normal_read</title>
<path fill="none" stroke="#555555" stroke-width="1.5" d="M63.12,-618.05C63.12,-618.05 63.12,-580.19 63.12,-580.19"/>
<polygon fill="#555555" stroke="#555555" stroke-width="1.5" points="66.63,-580.19 63.13,-570.19 59.63,-580.19 66.63,-580.19"/>
</g>
<!-- normal_t1 -->
<g id="node3" class="node">
<title>normal_t1</title>
<path fill="#66bb6a" stroke="black" d="M78.12,-471C78.12,-471 48.12,-471 48.12,-471 42.12,-471 36.12,-465 36.12,-459 36.12,-459 36.12,-447 36.12,-447 36.12,-441 42.12,-435 48.12,-435 48.12,-435 78.12,-435 78.12,-435 84.12,-435 90.12,-441 90.12,-447 90.12,-447 90.12,-459 90.12,-459 90.12,-465 84.12,-471 78.12,-471"/>
<text xml:space="preserve" text-anchor="middle" x="63.12" y="-456.82" font-family="Helvetica,sans-Serif" font-size="9.00" fill="white">Read 1</text>
<text xml:space="preserve" text-anchor="middle" x="63.12" y="-446.32" font-family="Helvetica,sans-Serif" font-size="9.00" fill="white">✓ 80ns</text>
</g>
<!-- normal_read&#45;&gt;normal_t1 -->
<g id="edge2" class="edge">
<title>normal_read&#45;&gt;normal_t1</title>
<path fill="none" stroke="#555555" stroke-width="1.5" d="M63.12,-531.35C63.12,-531.35 63.12,-483.67 63.12,-483.67"/>
<polygon fill="#555555" stroke="#555555" stroke-width="1.5" points="66.63,-483.67 63.13,-473.67 59.63,-483.67 66.63,-483.67"/>
</g>
<!-- normal_t2 -->
<g id="node4" class="node">
<title>normal_t2</title>
<path fill="#66bb6a" stroke="black" d="M78.12,-384C78.12,-384 48.12,-384 48.12,-384 42.12,-384 36.12,-378 36.12,-372 36.12,-372 36.12,-360 36.12,-360 36.12,-354 42.12,-348 48.12,-348 48.12,-348 78.12,-348 78.12,-348 84.12,-348 90.12,-354 90.12,-360 90.12,-360 90.12,-372 90.12,-372 90.12,-378 84.12,-384 78.12,-384"/>
<text xml:space="preserve" text-anchor="middle" x="63.12" y="-369.82" font-family="Helvetica,sans-Serif" font-size="9.00" fill="white">Read 2</text>
<text xml:space="preserve" text-anchor="middle" x="63.12" y="-359.32" font-family="Helvetica,sans-Serif" font-size="9.00" fill="white">✓ 65ns</text>
</g>
<!-- normal_t1&#45;&gt;normal_t2 -->
<g id="edge3" class="edge">
<title>normal_t1&#45;&gt;normal_t2</title>
<path fill="none" stroke="#555555" stroke-width="1.5" d="M63.12,-434.55C63.12,-434.55 63.12,-396.69 63.12,-396.69"/>
<polygon fill="#555555" stroke="#555555" stroke-width="1.5" points="66.63,-396.69 63.13,-386.69 59.63,-396.69 66.63,-396.69"/>
</g>
<!-- normal_t3 -->
<g id="node5" class="node">
<title>normal_t3</title>
<path fill="#66bb6a" stroke="black" d="M78.12,-297C78.12,-297 48.12,-297 48.12,-297 42.12,-297 36.12,-291 36.12,-285 36.12,-285 36.12,-273 36.12,-273 36.12,-267 42.12,-261 48.12,-261 48.12,-261 78.12,-261 78.12,-261 84.12,-261 90.12,-267 90.12,-273 90.12,-273 90.12,-285 90.12,-285 90.12,-291 84.12,-297 78.12,-297"/>
<text xml:space="preserve" text-anchor="middle" x="63.12" y="-282.82" font-family="Helvetica,sans-Serif" font-size="9.00" fill="white">Read 3</text>
<text xml:space="preserve" text-anchor="middle" x="63.12" y="-272.32" font-family="Helvetica,sans-Serif" font-size="9.00" fill="white">✓ 90ns</text>
</g>
<!-- normal_t2&#45;&gt;normal_t3 -->
<g id="edge4" class="edge">
<title>normal_t2&#45;&gt;normal_t3</title>
<path fill="none" stroke="#555555" stroke-width="1.5" d="M63.12,-347.55C63.12,-347.55 63.12,-309.69 63.12,-309.69"/>
<polygon fill="#555555" stroke="#555555" stroke-width="1.5" points="66.63,-309.69 63.13,-299.69 59.63,-309.69 66.63,-309.69"/>
</g>
<!-- stall_title -->
<g id="node6" class="node">
<title>stall_title</title>
<path fill="#c62828" stroke="black" d="M291.12,-654.5C291.12,-654.5 191.12,-654.5 191.12,-654.5 185.12,-654.5 179.12,-648.5 179.12,-642.5 179.12,-642.5 179.12,-630.5 179.12,-630.5 179.12,-624.5 185.12,-618.5 191.12,-618.5 191.12,-618.5 291.12,-618.5 291.12,-618.5 297.12,-618.5 303.12,-624.5 303.12,-630.5 303.12,-630.5 303.12,-642.5 303.12,-642.5 303.12,-648.5 297.12,-654.5 291.12,-654.5"/>
<text xml:space="preserve" text-anchor="middle" x="241.12" y="-632.23" font-family="Helvetica,sans-Serif" font-size="12.00" fill="white">DRAM Refresh Stall</text>
</g>
<!-- stall_read -->
<g id="node7" class="node">
<title>stall_read</title>
<path fill="#e53935" stroke="black" d="M278,-567.5C278,-567.5 204.25,-567.5 204.25,-567.5 198.25,-567.5 192.25,-561.5 192.25,-555.5 192.25,-555.5 192.25,-543.5 192.25,-543.5 192.25,-537.5 198.25,-531.5 204.25,-531.5 204.25,-531.5 278,-531.5 278,-531.5 284,-531.5 290,-537.5 290,-543.5 290,-543.5 290,-555.5 290,-555.5 290,-561.5 284,-567.5 278,-567.5"/>
<text xml:space="preserve" text-anchor="middle" x="241.12" y="-552.55" font-family="Helvetica,sans-Serif" font-size="11.00" fill="white">~350ns Stall</text>
<text xml:space="preserve" text-anchor="middle" x="241.12" y="-539.05" font-family="Helvetica,sans-Serif" font-size="11.00" fill="white">Refresh Collision</text>
</g>
<!-- stall_title&#45;&gt;stall_read -->
<g id="edge5" class="edge">
<title>stall_title&#45;&gt;stall_read</title>
<path fill="none" stroke="#555555" stroke-width="1.5" d="M241.12,-618.05C241.12,-618.05 241.12,-580.19 241.12,-580.19"/>
<polygon fill="#555555" stroke="#555555" stroke-width="1.5" points="244.63,-580.19 241.13,-570.19 237.63,-580.19 244.63,-580.19"/>
</g>
<!-- stall_t1 -->
<g id="node8" class="node">
<title>stall_t1</title>
<path fill="#66bb6a" stroke="black" d="M185.12,-471C185.12,-471 155.12,-471 155.12,-471 149.12,-471 143.12,-465 143.12,-459 143.12,-459 143.12,-447 143.12,-447 143.12,-441 149.12,-435 155.12,-435 155.12,-435 185.12,-435 185.12,-435 191.12,-435 197.12,-441 197.12,-447 197.12,-447 197.12,-459 197.12,-459 197.12,-465 191.12,-471 185.12,-471"/>
<text xml:space="preserve" text-anchor="middle" x="170.12" y="-456.82" font-family="Helvetica,sans-Serif" font-size="9.00" fill="white">Read 1</text>
<text xml:space="preserve" text-anchor="middle" x="170.12" y="-446.32" font-family="Helvetica,sans-Serif" font-size="9.00" fill="white">✓ 75ns</text>
</g>
<!-- stall_read&#45;&gt;stall_t1 -->
<g id="edge6" class="edge">
<title>stall_read&#45;&gt;stall_t1</title>
<path fill="none" stroke="#555555" stroke-width="1.5" d="M192.05,-550C188.15,-550 185.69,-550 185.69,-550 185.69,-550 185.69,-483.52 185.69,-483.52"/>
<polygon fill="#555555" stroke="#555555" stroke-width="1.5" points="189.19,-483.52 185.69,-473.52 182.19,-483.52 189.19,-483.52"/>
</g>
<!-- dist_title -->
<g id="node11" class="node">
<title>dist_title</title>
<path fill="#1565c0" stroke="black" d="M336,-471C336,-471 238.25,-471 238.25,-471 232.25,-471 226.25,-465 226.25,-459 226.25,-459 226.25,-447 226.25,-447 226.25,-441 232.25,-435 238.25,-435 238.25,-435 336,-435 336,-435 342,-435 348,-441 348,-447 348,-447 348,-459 348,-459 348,-465 342,-471 336,-471"/>
<text xml:space="preserve" text-anchor="middle" x="287.12" y="-448.73" font-family="Helvetica,sans-Serif" font-size="12.00" fill="white">Latency Distribution</text>
</g>
<!-- stall_read&#45;&gt;dist_title -->
<g id="edge13" class="edge">
<title>stall_read&#45;&gt;dist_title</title>
<path fill="none" stroke="#c62828" stroke-width="1.5" stroke-dasharray="5,2" d="M258.12,-531.35C258.12,-531.35 258.12,-483.67 258.12,-483.67"/>
<polygon fill="#c62828" stroke="#c62828" stroke-width="1.5" points="261.63,-483.67 258.13,-473.67 254.63,-483.67 261.63,-483.67"/>
<text xml:space="preserve" text-anchor="middle" x="285.88" y="-497.95" font-family="Helvetica,sans-Serif" font-size="9.00">causes tail</text>
</g>
<!-- stall_t2 -->
<g id="node9" class="node">
<title>stall_t2</title>
<path fill="#ff5722" stroke="black" d="M188.25,-384C188.25,-384 152,-384 152,-384 146,-384 140,-378 140,-372 140,-372 140,-360 140,-360 140,-354 146,-348 152,-348 152,-348 188.25,-348 188.25,-348 194.25,-348 200.25,-354 200.25,-360 200.25,-360 200.25,-372 200.25,-372 200.25,-378 194.25,-384 188.25,-384"/>
<text xml:space="preserve" text-anchor="middle" x="170.12" y="-369.82" font-family="Helvetica,sans-Serif" font-size="9.00" fill="white">Read 2</text>
<text xml:space="preserve" text-anchor="middle" x="170.12" y="-359.32" font-family="Helvetica,sans-Serif" font-size="9.00" fill="white">✗ 350ns!</text>
</g>
<!-- stall_t1&#45;&gt;stall_t2 -->
<g id="edge7" class="edge">
<title>stall_t1&#45;&gt;stall_t2</title>
<path fill="none" stroke="#555555" stroke-width="1.5" d="M170.12,-434.55C170.12,-434.55 170.12,-396.69 170.12,-396.69"/>
<polygon fill="#555555" stroke="#555555" stroke-width="1.5" points="173.63,-396.69 170.13,-386.69 166.63,-396.69 173.63,-396.69"/>
</g>
<!-- stall_t3 -->
<g id="node10" class="node">
<title>stall_t3</title>
<path fill="#66bb6a" stroke="black" d="M185.12,-297C185.12,-297 155.12,-297 155.12,-297 149.12,-297 143.12,-291 143.12,-285 143.12,-285 143.12,-273 143.12,-273 143.12,-267 149.12,-261 155.12,-261 155.12,-261 185.12,-261 185.12,-261 191.12,-261 197.12,-267 197.12,-273 197.12,-273 197.12,-285 197.12,-285 197.12,-291 191.12,-297 185.12,-297"/>
<text xml:space="preserve" text-anchor="middle" x="170.12" y="-282.82" font-family="Helvetica,sans-Serif" font-size="9.00" fill="white">Read 3</text>
<text xml:space="preserve" text-anchor="middle" x="170.12" y="-272.32" font-family="Helvetica,sans-Serif" font-size="9.00" fill="white">✓ 80ns</text>
</g>
<!-- stall_t2&#45;&gt;stall_t3 -->
<g id="edge8" class="edge">
<title>stall_t2&#45;&gt;stall_t3</title>
<path fill="none" stroke="#555555" stroke-width="1.5" d="M170.12,-347.55C170.12,-347.55 170.12,-309.69 170.12,-309.69"/>
<polygon fill="#555555" stroke="#555555" stroke-width="1.5" points="173.63,-309.69 170.13,-299.69 166.63,-309.69 173.63,-309.69"/>
</g>
<!-- p50 -->
<g id="node12" class="node">
<title>p50</title>
<path fill="#4caf50" stroke="black" d="M307.5,-384C307.5,-384 266.75,-384 266.75,-384 260.75,-384 254.75,-378 254.75,-372 254.75,-372 254.75,-360 254.75,-360 254.75,-354 260.75,-348 266.75,-348 266.75,-348 307.5,-348 307.5,-348 313.5,-348 319.5,-354 319.5,-360 319.5,-360 319.5,-372 319.5,-372 319.5,-378 313.5,-384 307.5,-384"/>
<text xml:space="preserve" text-anchor="middle" x="287.12" y="-362.5" font-family="Helvetica,sans-Serif" font-size="10.00" fill="white">p50: ~80ns</text>
</g>
<!-- dist_title&#45;&gt;p50 -->
<g id="edge9" class="edge">
<title>dist_title&#45;&gt;p50</title>
<path fill="none" stroke="#555555" stroke-width="1.5" d="M287.12,-434.55C287.12,-434.55 287.12,-396.69 287.12,-396.69"/>
<polygon fill="#555555" stroke="#555555" stroke-width="1.5" points="290.63,-396.69 287.13,-386.69 283.63,-396.69 290.63,-396.69"/>
</g>
<!-- p99 -->
<g id="node13" class="node">
<title>p99</title>
<path fill="#ff9800" stroke="black" d="M310.12,-297C310.12,-297 264.12,-297 264.12,-297 258.12,-297 252.12,-291 252.12,-285 252.12,-285 252.12,-273 252.12,-273 252.12,-267 258.12,-261 264.12,-261 264.12,-261 310.12,-261 310.12,-261 316.12,-261 322.12,-267 322.12,-273 322.12,-273 322.12,-285 322.12,-285 322.12,-291 316.12,-297 310.12,-297"/>
<text xml:space="preserve" text-anchor="middle" x="287.12" y="-275.5" font-family="Helvetica,sans-Serif" font-size="10.00" fill="white">p99: ~350ns</text>
</g>
<!-- p50&#45;&gt;p99 -->
<g id="edge10" class="edge">
<title>p50&#45;&gt;p99</title>
<path fill="none" stroke="#555555" stroke-width="1.5" d="M287.12,-347.55C287.12,-347.55 287.12,-309.69 287.12,-309.69"/>
<polygon fill="#555555" stroke="#555555" stroke-width="1.5" points="290.63,-309.69 287.13,-299.69 283.63,-309.69 290.63,-309.69"/>
</g>
<!-- p999 -->
<g id="node14" class="node">
<title>p999</title>
<path fill="#f44336" stroke="black" d="M315.75,-210C315.75,-210 258.5,-210 258.5,-210 252.5,-210 246.5,-204 246.5,-198 246.5,-198 246.5,-186 246.5,-186 246.5,-180 252.5,-174 258.5,-174 258.5,-174 315.75,-174 315.75,-174 321.75,-174 327.75,-180 327.75,-186 327.75,-186 327.75,-198 327.75,-198 327.75,-204 321.75,-210 315.75,-210"/>
<text xml:space="preserve" text-anchor="middle" x="287.12" y="-188.5" font-family="Helvetica,sans-Serif" font-size="10.00" fill="white">p999: ~350ns+</text>
</g>
<!-- p99&#45;&gt;p999 -->
<g id="edge11" class="edge">
<title>p99&#45;&gt;p999</title>
<path fill="none" stroke="#555555" stroke-width="1.5" d="M287.12,-260.55C287.12,-260.55 287.12,-222.69 287.12,-222.69"/>
<polygon fill="#555555" stroke="#555555" stroke-width="1.5" points="290.63,-222.69 287.13,-212.69 283.63,-222.69 290.63,-222.69"/>
</g>
<!-- tail_label -->
<g id="node15" class="node">
<title>tail_label</title>
<path fill="#c62828" stroke="black" d="M317.25,-123C317.25,-123 257,-123 257,-123 251,-123 245,-117 245,-111 245,-111 245,-99 245,-99 245,-93 251,-87 257,-87 257,-87 317.25,-87 317.25,-87 323.25,-87 329.25,-93 329.25,-99 329.25,-99 329.25,-111 329.25,-111 329.25,-117 323.25,-123 317.25,-123"/>
<text xml:space="preserve" text-anchor="middle" x="287.12" y="-107.5" font-family="Helvetica,sans-Serif" font-size="10.00" fill="white">Long Tail</text>
<text xml:space="preserve" text-anchor="middle" x="287.12" y="-95.5" font-family="Helvetica,sans-Serif" font-size="10.00" fill="white">(Refresh Stalls)</text>
</g>
<!-- p999&#45;&gt;tail_label -->
<g id="edge12" class="edge">
<title>p999&#45;&gt;tail_label</title>
<path fill="none" stroke="#555555" stroke-width="1.5" d="M287.12,-173.55C287.12,-173.55 287.12,-135.69 287.12,-135.69"/>
<polygon fill="#555555" stroke="#555555" stroke-width="1.5" points="290.63,-135.69 287.13,-125.69 283.63,-135.69 290.63,-135.69"/>
</g>
<!-- impact1 -->
<g id="node16" class="node">
<title>impact1</title>
<path fill="#d84315" stroke="black" d="M201,-36C201,-36 145.25,-36 145.25,-36 139.25,-36 133.25,-30 133.25,-24 133.25,-24 133.25,-12 133.25,-12 133.25,-6 139.25,0 145.25,0 145.25,0 201,0 201,0 207,0 213,-6 213,-12 213,-12 213,-24 213,-24 213,-30 207,-36 201,-36"/>
<text xml:space="preserve" text-anchor="middle" x="173.12" y="-20.5" font-family="Helvetica,sans-Serif" font-size="10.00" fill="white">Web Service</text>
<text xml:space="preserve" text-anchor="middle" x="173.12" y="-8.5" font-family="Helvetica,sans-Serif" font-size="10.00" fill="white">SLA Violations</text>
</g>
<!-- tail_label&#45;&gt;impact1 -->
<g id="edge14" class="edge">
<title>tail_label&#45;&gt;impact1</title>
<path fill="none" stroke="#555555" stroke-width="1.5" d="M244.52,-105C225.21,-105 206.62,-105 206.62,-105 206.62,-105 206.62,-48.72 206.62,-48.72"/>
<polygon fill="#555555" stroke="#555555" stroke-width="1.5" points="210.13,-48.72 206.63,-38.72 203.13,-48.72 210.13,-48.72"/>
</g>
<!-- impact2 -->
<g id="node17" class="node">
<title>impact2</title>
<path fill="#d84315" stroke="black" d="M319.88,-36C319.88,-36 254.38,-36 254.38,-36 248.38,-36 242.38,-30 242.38,-24 242.38,-24 242.38,-12 242.38,-12 242.38,-6 248.38,0 254.38,0 254.38,0 319.88,0 319.88,0 325.88,0 331.88,-6 331.88,-12 331.88,-12 331.88,-24 331.88,-24 331.88,-30 325.88,-36 319.88,-36"/>
<text xml:space="preserve" text-anchor="middle" x="287.12" y="-20.5" font-family="Helvetica,sans-Serif" font-size="10.00" fill="white">Financial Trading</text>
<text xml:space="preserve" text-anchor="middle" x="287.12" y="-8.5" font-family="Helvetica,sans-Serif" font-size="10.00" fill="white">Delays</text>
</g>
<!-- tail_label&#45;&gt;impact2 -->
<g id="edge15" class="edge">
<title>tail_label&#45;&gt;impact2</title>
<path fill="none" stroke="#555555" stroke-width="1.5" d="M287.12,-86.55C287.12,-86.55 287.12,-48.69 287.12,-48.69"/>
<polygon fill="#555555" stroke="#555555" stroke-width="1.5" points="290.63,-48.69 287.13,-38.69 283.63,-48.69 290.63,-48.69"/>
</g>
<!-- impact3 -->
<g id="node18" class="node">
<title>impact3</title>
<path fill="#d84315" stroke="black" d="M443.5,-36C443.5,-36 372.75,-36 372.75,-36 366.75,-36 360.75,-30 360.75,-24 360.75,-24 360.75,-12 360.75,-12 360.75,-6 366.75,0 372.75,0 372.75,0 443.5,0 443.5,0 449.5,0 455.5,-6 455.5,-12 455.5,-12 455.5,-24 455.5,-24 455.5,-30 449.5,-36 443.5,-36"/>
<text xml:space="preserve" text-anchor="middle" x="408.12" y="-20.5" font-family="Helvetica,sans-Serif" font-size="10.00" fill="white">Real&#45;time System</text>
<text xml:space="preserve" text-anchor="middle" x="408.12" y="-8.5" font-family="Helvetica,sans-Serif" font-size="10.00" fill="white">Jitter</text>
</g>
<!-- tail_label&#45;&gt;impact3 -->
<g id="edge16" class="edge">
<title>tail_label&#45;&gt;impact3</title>
<path fill="none" stroke="#555555" stroke-width="1.5" d="M329.44,-105C364.34,-105 408.12,-105 408.12,-105 408.12,-105 408.12,-48.72 408.12,-48.72"/>
<polygon fill="#555555" stroke="#555555" stroke-width="1.5" points="411.63,-48.72 408.13,-38.72 404.63,-48.72 411.63,-48.72"/>
</g>
</g>
</svg>
