<?xml version="1.0" encoding="UTF-8" standalone="no"?>
<!DOCTYPE svg PUBLIC "-//W3C//DTD SVG 1.1//EN"
 "http://www.w3.org/Graphics/SVG/1.1/DTD/svg11.dtd">
<!-- Generated by graphviz version 14.1.2 (0)
 -->
<!-- Title: tailslayer_integration_flow Pages: 1 -->
<svg width="233pt" height="1225pt"
 viewBox="0.00 0.00 233.00 1225.00" xmlns="http://www.w3.org/2000/svg" xmlns:xlink="http://www.w3.org/1999/xlink">
<g id="graph0" class="graph" transform="scale(1 1) rotate(0) translate(4 1220.5)">
<title>tailslayer_integration_flow</title>
<polygon fill="white" stroke="none" points="-4,4 -4,-1220.5 228.5,-1220.5 228.5,4 -4,4"/>
<!-- prereq -->
<g id="node1" class="node">
<title>prereq</title>
<path fill="#4e342e" stroke="black" d="M212.5,-1216.5C212.5,-1216.5 12,-1216.5 12,-1216.5 6,-1216.5 0,-1210.5 0,-1204.5 0,-1204.5 0,-1192.5 0,-1192.5 0,-1186.5 6,-1180.5 12,-1180.5 12,-1180.5 212.5,-1180.5 212.5,-1180.5 218.5,-1180.5 224.5,-1186.5 224.5,-1192.5 224.5,-1192.5 224.5,-1204.5 224.5,-1204.5 224.5,-1210.5 218.5,-1216.5 212.5,-1216.5"/>
<text xml:space="preserve" text-anchor="middle" x="112.25" y="-1201.55" font-family="Helvetica,sans-Serif" font-size="11.00" fill="white">Prerequisites</text>
<text xml:space="preserve" text-anchor="middle" x="112.25" y="-1188.05" font-family="Helvetica,sans-Serif" font-size="11.00" fill="white">Linux · x86_64 · 1GB Huge Pages · C++17</text>
</g>
<!-- step1 -->
<g id="node2" class="node">
<title>step1</title>
<path fill="#1565c0" stroke="black" d="M169.38,-1129.5C169.38,-1129.5 55.12,-1129.5 55.12,-1129.5 49.12,-1129.5 43.12,-1123.5 43.12,-1117.5 43.12,-1117.5 43.12,-1105.5 43.12,-1105.5 43.12,-1099.5 49.12,-1093.5 55.12,-1093.5 55.12,-1093.5 169.38,-1093.5 169.38,-1093.5 175.38,-1093.5 181.38,-1099.5 181.38,-1105.5 181.38,-1105.5 181.38,-1117.5 181.38,-1117.5 181.38,-1123.5 175.38,-1129.5 169.38,-1129.5"/>
<text xml:space="preserve" text-anchor="middle" x="112.25" y="-1107.22" font-family="Helvetica,sans-Serif" font-size="12.00" fill="white">Step 1: Include Header</text>
</g>
<!-- prereq&#45;&gt;step1 -->
<g id="edge1" class="edge">
<title>prereq&#45;&gt;step1</title>
<path fill="none" stroke="#555555" stroke-width="1.5" d="M112.25,-1180.05C112.25,-1180.05 112.25,-1142.19 112.25,-1142.19"/>
<polygon fill="#555555" stroke="#555555" stroke-width="1.5" points="115.75,-1142.19 112.25,-1132.19 108.75,-1142.19 115.75,-1142.19"/>
</g>
<!-- code1 -->
<g id="node3" class="node">
<title>code1</title>
<path fill="#0d47a1" stroke="black" d="M196,-1042.5C196,-1042.5 28.5,-1042.5 28.5,-1042.5 22.5,-1042.5 16.5,-1036.5 16.5,-1030.5 16.5,-1030.5 16.5,-1018.5 16.5,-1018.5 16.5,-1012.5 22.5,-1006.5 28.5,-1006.5 28.5,-1006.5 196,-1006.5 196,-1006.5 202,-1006.5 208,-1012.5 208,-1018.5 208,-1018.5 208,-1030.5 208,-1030.5 208,-1036.5 202,-1042.5 196,-1042.5"/>
<text xml:space="preserve" text-anchor="middle" x="112.25" y="-1021" font-family="Helvetica,sans-Serif" font-size="10.00" fill="#b3e5fc">#include &lt;tailslayer/hedged_reader.hpp&gt;</text>
</g>
<!-- step1&#45;&gt;code1 -->
<g id="edge2" class="edge">
<title>step1&#45;&gt;code1</title>
<path fill="none" stroke="#555555" stroke-width="1.5" d="M112.25,-1093.05C112.25,-1093.05 112.25,-1055.19 112.25,-1055.19"/>
<polygon fill="#555555" stroke="#555555" stroke-width="1.5" points="115.75,-1055.19 112.25,-1045.19 108.75,-1055.19 115.75,-1055.19"/>
</g>
<!-- step2 -->
<g id="node4" class="node">
<title>step2</title>
<path fill="#2e7d32" stroke="black" d="M189.62,-955.5C189.62,-955.5 34.88,-955.5 34.88,-955.5 28.88,-955.5 22.88,-949.5 22.88,-943.5 22.88,-943.5 22.88,-931.5 22.88,-931.5 22.88,-925.5 28.88,-919.5 34.88,-919.5 34.88,-919.5 189.62,-919.5 189.62,-919.5 195.62,-919.5 201.62,-925.5 201.62,-931.5 201.62,-931.5 201.62,-943.5 201.62,-943.5 201.62,-949.5 195.62,-955.5 189.62,-955.5"/>
<text xml:space="preserve" text-anchor="middle" x="112.25" y="-933.23" font-family="Helvetica,sans-Serif" font-size="12.00" fill="white">Step 2: Define Signal Function</text>
</g>
<!-- code1&#45;&gt;step2 -->
<g id="edge3" class="edge">
<title>code1&#45;&gt;step2</title>
<path fill="none" stroke="#555555" stroke-width="1.5" d="M112.25,-1006.05C112.25,-1006.05 112.25,-968.19 112.25,-968.19"/>
<polygon fill="#555555" stroke="#555555" stroke-width="1.5" points="115.75,-968.19 112.25,-958.19 108.75,-968.19 115.75,-968.19"/>
</g>
<!-- code2 -->
<g id="node5" class="node">
<title>code2</title>
<path fill="#1b5e20" stroke="black" d="M167.5,-868.5C167.5,-868.5 57,-868.5 57,-868.5 51,-868.5 45,-862.5 45,-856.5 45,-856.5 45,-824.5 45,-824.5 45,-818.5 51,-812.5 57,-812.5 57,-812.5 167.5,-812.5 167.5,-812.5 173.5,-812.5 179.5,-818.5 179.5,-824.5 179.5,-824.5 179.5,-856.5 179.5,-856.5 179.5,-862.5 173.5,-868.5 167.5,-868.5"/>
<text xml:space="preserve" text-anchor="middle" x="112.25" y="-855" font-family="Helvetica,sans-Serif" font-size="10.00" fill="#c8e6c9">auto signal = []() &#45;&gt; size_t {</text>
<text xml:space="preserve" text-anchor="middle" x="112.25" y="-843" font-family="Helvetica,sans-Serif" font-size="10.00" fill="#c8e6c9"> &#160;// Wait for trigger</text>
<text xml:space="preserve" text-anchor="middle" x="112.25" y="-831" font-family="Helvetica,sans-Serif" font-size="10.00" fill="#c8e6c9"> &#160;return target_index;</text>
<text xml:space="preserve" text-anchor="middle" x="112.25" y="-819" font-family="Helvetica,sans-Serif" font-size="10.00" fill="#c8e6c9">};</text>
</g>
<!-- step2&#45;&gt;code2 -->
<g id="edge4" class="edge">
<title>step2&#45;&gt;code2</title>
<path fill="none" stroke="#555555" stroke-width="1.5" d="M112.25,-919.26C112.25,-919.26 112.25,-881.23 112.25,-881.23"/>
<polygon fill="#555555" stroke="#555555" stroke-width="1.5" points="115.75,-881.23 112.25,-871.23 108.75,-881.23 115.75,-881.23"/>
</g>
<!-- step3 -->
<g id="node6" class="node">
<title>step3</title>
<path fill="#6a1b9a" stroke="black" d="M186.25,-761.5C186.25,-761.5 38.25,-761.5 38.25,-761.5 32.25,-761.5 26.25,-755.5 26.25,-749.5 26.25,-749.5 26.25,-737.5 26.25,-737.5 26.25,-731.5 32.25,-725.5 38.25,-725.5 38.25,-725.5 186.25,-725.5 186.25,-725.5 192.25,-725.5 198.25,-731.5 198.25,-737.5 198.25,-737.5 198.25,-749.5 198.25,-749.5 198.25,-755.5 192.25,-761.5 186.25,-761.5"/>
<text xml:space="preserve" text-anchor="middle" x="112.25" y="-739.23" font-family="Helvetica,sans-Serif" font-size="12.00" fill="white">Step 3: Define Work Function</text>
</g>
<!-- code2&#45;&gt;step3 -->
<g id="edge5" class="edge">
<title>code2&#45;&gt;step3</title>
<path fill="none" stroke="#555555" stroke-width="1.5" d="M112.25,-812.18C112.25,-812.18 112.25,-774.16 112.25,-774.16"/>
<polygon fill="#555555" stroke="#555555" stroke-width="1.5" points="115.75,-774.16 112.25,-764.16 108.75,-774.16 115.75,-774.16"/>
</g>
<!-- code3 -->
<g id="node7" class="node">
<title>code3</title>
<path fill="#4a148c" stroke="black" d="M160.75,-674.5C160.75,-674.5 63.75,-674.5 63.75,-674.5 57.75,-674.5 51.75,-668.5 51.75,-662.5 51.75,-662.5 51.75,-630.5 51.75,-630.5 51.75,-624.5 57.75,-618.5 63.75,-618.5 63.75,-618.5 160.75,-618.5 160.75,-618.5 166.75,-618.5 172.75,-624.5 172.75,-630.5 172.75,-630.5 172.75,-662.5 172.75,-662.5 172.75,-668.5 166.75,-674.5 160.75,-674.5"/>
<text xml:space="preserve" text-anchor="middle" x="112.25" y="-661" font-family="Helvetica,sans-Serif" font-size="10.00" fill="#e1bee7">auto work = [](T value) {</text>
<text xml:space="preserve" text-anchor="middle" x="112.25" y="-649" font-family="Helvetica,sans-Serif" font-size="10.00" fill="#e1bee7"> &#160;// Process result</text>
<text xml:space="preserve" text-anchor="middle" x="112.25" y="-637" font-family="Helvetica,sans-Serif" font-size="10.00" fill="#e1bee7"> &#160;process(value);</text>
<text xml:space="preserve" text-anchor="middle" x="112.25" y="-625" font-family="Helvetica,sans-Serif" font-size="10.00" fill="#e1bee7">};</text>
</g>
<!-- step3&#45;&gt;code3 -->
<g id="edge6" class="edge">
<title>step3&#45;&gt;code3</title>
<path fill="none" stroke="#555555" stroke-width="1.5" d="M112.25,-725.26C112.25,-725.26 112.25,-687.23 112.25,-687.23"/>
<polygon fill="#555555" stroke="#555555" stroke-width="1.5" points="115.75,-687.23 112.25,-677.23 108.75,-687.23 115.75,-687.23"/>
</g>
<!-- step4 -->
<g id="node8" class="node">
<title>step4</title>
<path fill="#e65100" stroke="black" d="M198.62,-567.5C198.62,-567.5 25.88,-567.5 25.88,-567.5 19.88,-567.5 13.88,-561.5 13.88,-555.5 13.88,-555.5 13.88,-543.5 13.88,-543.5 13.88,-537.5 19.88,-531.5 25.88,-531.5 25.88,-531.5 198.62,-531.5 198.62,-531.5 204.62,-531.5 210.62,-537.5 210.62,-543.5 210.62,-543.5 210.62,-555.5 210.62,-555.5 210.62,-561.5 204.62,-567.5 198.62,-567.5"/>
<text xml:space="preserve" text-anchor="middle" x="112.25" y="-545.23" font-family="Helvetica,sans-Serif" font-size="12.00" fill="white">Step 4: Instantiate HedgedReader</text>
</g>
<!-- code3&#45;&gt;step4 -->
<g id="edge7" class="edge">
<title>code3&#45;&gt;step4</title>
<path fill="none" stroke="#555555" stroke-width="1.5" d="M112.25,-618.18C112.25,-618.18 112.25,-580.16 112.25,-580.16"/>
<polygon fill="#555555" stroke="#555555" stroke-width="1.5" points="115.75,-580.16 112.25,-570.16 108.75,-580.16 115.75,-580.16"/>
</g>
<!-- code4 -->
<g id="node9" class="node">
<title>code4</title>
<path fill="#bf360c" stroke="black" d="M195.25,-480.5C195.25,-480.5 29.25,-480.5 29.25,-480.5 23.25,-480.5 17.25,-474.5 17.25,-468.5 17.25,-468.5 17.25,-456.5 17.25,-456.5 17.25,-450.5 23.25,-444.5 29.25,-444.5 29.25,-444.5 195.25,-444.5 195.25,-444.5 201.25,-444.5 207.25,-450.5 207.25,-456.5 207.25,-456.5 207.25,-468.5 207.25,-468.5 207.25,-474.5 201.25,-480.5 195.25,-480.5"/>
<text xml:space="preserve" text-anchor="middle" x="112.25" y="-459" font-family="Helvetica,sans-Serif" font-size="10.00" fill="#ffccbc">HedgedReader&lt;T, signal, work&gt; reader;</text>
</g>
<!-- step4&#45;&gt;code4 -->
<g id="edge8" class="edge">
<title>step4&#45;&gt;code4</title>
<path fill="none" stroke="#555555" stroke-width="1.5" d="M112.25,-531.05C112.25,-531.05 112.25,-493.19 112.25,-493.19"/>
<polygon fill="#555555" stroke="#555555" stroke-width="1.5" points="115.75,-493.19 112.25,-483.19 108.75,-493.19 115.75,-493.19"/>
</g>
<!-- step5 -->
<g id="node10" class="node">
<title>step5</title>
<path fill="#00695c" stroke="black" d="M157.38,-393.5C157.38,-393.5 67.12,-393.5 67.12,-393.5 61.12,-393.5 55.12,-387.5 55.12,-381.5 55.12,-381.5 55.12,-369.5 55.12,-369.5 55.12,-363.5 61.12,-357.5 67.12,-357.5 67.12,-357.5 157.38,-357.5 157.38,-357.5 163.38,-357.5 169.38,-363.5 169.38,-369.5 169.38,-369.5 169.38,-381.5 169.38,-381.5 169.38,-387.5 163.38,-393.5 157.38,-393.5"/>
<text xml:space="preserve" text-anchor="middle" x="112.25" y="-371.23" font-family="Helvetica,sans-Serif" font-size="12.00" fill="white">Step 5: Insert Data</text>
</g>
<!-- code4&#45;&gt;step5 -->
<g id="edge9" class="edge">
<title>code4&#45;&gt;step5</title>
<path fill="none" stroke="#555555" stroke-width="1.5" d="M112.25,-444.05C112.25,-444.05 112.25,-406.19 112.25,-406.19"/>
<polygon fill="#555555" stroke="#555555" stroke-width="1.5" points="115.75,-406.19 112.25,-396.19 108.75,-406.19 115.75,-406.19"/>
</g>
<!-- code5 -->
<g id="node11" class="node">
<title>code5</title>
<path fill="#004d40" stroke="black" d="M178.38,-306.5C178.38,-306.5 46.12,-306.5 46.12,-306.5 40.12,-306.5 34.12,-300.5 34.12,-294.5 34.12,-294.5 34.12,-282.5 34.12,-282.5 34.12,-276.5 40.12,-270.5 46.12,-270.5 46.12,-270.5 178.38,-270.5 178.38,-270.5 184.38,-270.5 190.38,-276.5 190.38,-282.5 190.38,-282.5 190.38,-294.5 190.38,-294.5 190.38,-300.5 184.38,-306.5 178.38,-306.5"/>
<text xml:space="preserve" text-anchor="middle" x="112.25" y="-291" font-family="Helvetica,sans-Serif" font-size="10.00" fill="#b2dfdb">reader.insert(value);</text>
<text xml:space="preserve" text-anchor="middle" x="112.25" y="-279" font-family="Helvetica,sans-Serif" font-size="10.00" fill="#b2dfdb">// Replicates across N channels</text>
</g>
<!-- step5&#45;&gt;code5 -->
<g id="edge10" class="edge">
<title>step5&#45;&gt;code5</title>
<path fill="none" stroke="#555555" stroke-width="1.5" d="M112.25,-357.05C112.25,-357.05 112.25,-319.19 112.25,-319.19"/>
<polygon fill="#555555" stroke="#555555" stroke-width="1.5" points="115.75,-319.19 112.25,-309.19 108.75,-319.19 115.75,-319.19"/>
</g>
<!-- step6 -->
<g id="node12" class="node">
<title>step6</title>
<path fill="#1565c0" stroke="black" d="M164.5,-219.5C164.5,-219.5 60,-219.5 60,-219.5 54,-219.5 48,-213.5 48,-207.5 48,-207.5 48,-195.5 48,-195.5 48,-189.5 54,-183.5 60,-183.5 60,-183.5 164.5,-183.5 164.5,-183.5 170.5,-183.5 176.5,-189.5 176.5,-195.5 176.5,-195.5 176.5,-207.5 176.5,-207.5 176.5,-213.5 170.5,-219.5 164.5,-219.5"/>
<text xml:space="preserve" text-anchor="middle" x="112.25" y="-197.22" font-family="Helvetica,sans-Serif" font-size="12.00" fill="white">Step 6: Start Workers</text>
</g>
<!-- code5&#45;&gt;step6 -->
<g id="edge11" class="edge">
<title>code5&#45;&gt;step6</title>
<path fill="none" stroke="#555555" stroke-width="1.5" d="M112.25,-270.05C112.25,-270.05 112.25,-232.19 112.25,-232.19"/>
<polygon fill="#555555" stroke="#555555" stroke-width="1.5" points="115.75,-232.19 112.25,-222.19 108.75,-232.19 115.75,-232.19"/>
</g>
<!-- code6 -->
<g id="node13" class="node">
<title>code6</title>
<path fill="#0d47a1" stroke="black" d="M159.25,-132.5C159.25,-132.5 65.25,-132.5 65.25,-132.5 59.25,-132.5 53.25,-126.5 53.25,-120.5 53.25,-120.5 53.25,-108.5 53.25,-108.5 53.25,-102.5 59.25,-96.5 65.25,-96.5 65.25,-96.5 159.25,-96.5 159.25,-96.5 165.25,-96.5 171.25,-102.5 171.25,-108.5 171.25,-108.5 171.25,-120.5 171.25,-120.5 171.25,-126.5 165.25,-132.5 159.25,-132.5"/>
<text xml:space="preserve" text-anchor="middle" x="112.25" y="-117" font-family="Helvetica,sans-Serif" font-size="10.00" fill="#b3e5fc">reader.start_workers();</text>
<text xml:space="preserve" text-anchor="middle" x="112.25" y="-105" font-family="Helvetica,sans-Serif" font-size="10.00" fill="#b3e5fc">// Pins threads to cores</text>
</g>
<!-- step6&#45;&gt;code6 -->
<g id="edge12" class="edge">
<title>step6&#45;&gt;code6</title>
<path fill="none" stroke="#555555" stroke-width="1.5" d="M112.25,-183.05C112.25,-183.05 112.25,-145.19 112.25,-145.19"/>
<polygon fill="#555555" stroke="#555555" stroke-width="1.5" points="115.75,-145.19 112.25,-135.19 108.75,-145.19 115.75,-145.19"/>
</g>
<!-- dram -->
<g id="node14" class="node">
<title>dram</title>
<path fill="#c62828" stroke="black" d="M170.88,-36C170.88,-36 53.62,-36 53.62,-36 47.62,-36 41.62,-30 41.62,-24 41.62,-24 41.62,-12 41.62,-12 41.62,-6 47.62,0 53.62,0 53.62,0 170.88,0 170.88,0 176.88,0 182.88,-6 182.88,-12 182.88,-12 182.88,-24 182.88,-24 182.88,-30 176.88,-36 170.88,-36"/>
<text xml:space="preserve" text-anchor="middle" x="112.25" y="-21.05" font-family="Helvetica,sans-Serif" font-size="11.00" fill="white">DRAM Channels</text>
<text xml:space="preserve" text-anchor="middle" x="112.25" y="-7.55" font-family="Helvetica,sans-Serif" font-size="11.00" fill="white">(Hedged Read Execution)</text>
</g>
<!-- code6&#45;&gt;dram -->
<g id="edge13" class="edge">
<title>code6&#45;&gt;dram</title>
<path fill="none" stroke="#555555" stroke-width="1.5" d="M112.25,-96.35C112.25,-96.35 112.25,-48.67 112.25,-48.67"/>
<polygon fill="#555555" stroke="#555555" stroke-width="1.5" points="115.75,-48.67 112.25,-38.67 108.75,-48.67 115.75,-48.67"/>
<text xml:space="preserve" text-anchor="middle" x="140.75" y="-62.95" font-family="Helvetica,sans-Serif" font-size="9.00">hedged reads</text>
</g>
</g>
</svg>
