<?xml version="1.0" encoding="UTF-8" standalone="no"?>
<!DOCTYPE svg PUBLIC "-//W3C//DTD SVG 1.1//EN"
 "http://www.w3.org/Graphics/SVG/1.1/DTD/svg11.dtd">
<!-- Generated by graphviz version 14.1.2 (0)
 -->
<!-- Title: tailslayer_optimization_techniques Pages: 1 -->
<svg width="882pt" height="535pt"
 viewBox="0.00 0.00 882.00 535.00" xmlns="http://www.w3.org/2000/svg" xmlns:xlink="http://www.w3.org/1999/xlink">
<g id="graph0" class="graph" transform="scale(1 1) rotate(0) translate(4 530.5)">
<title>tailslayer_optimization_techniques</title>
<polygon fill="white" stroke="none" points="-4,4 -4,-530.5 878,-530.5 878,4 -4,4"/>
<!-- repl_title -->
<g id="node1" class="node">
<title>repl_title</title>
<path fill="#1565c0" stroke="black" d="M118.38,-435.5C118.38,-435.5 24.38,-435.5 24.38,-435.5 18.38,-435.5 12.38,-429.5 12.38,-423.5 12.38,-423.5 12.38,-411.5 12.38,-411.5 12.38,-405.5 18.38,-399.5 24.38,-399.5 24.38,-399.5 118.38,-399.5 118.38,-399.5 124.38,-399.5 130.38,-405.5 130.38,-411.5 130.38,-411.5 130.38,-423.5 130.38,-423.5 130.38,-429.5 124.38,-435.5 118.38,-435.5"/>
<text xml:space="preserve" text-anchor="middle" x="71.38" y="-413.23" font-family="Helvetica,sans-Serif" font-size="12.00" fill="white">1. Data Replication</text>
</g>
<!-- repl_desc -->
<g id="node2" class="node">
<title>repl_desc</title>
<path fill="#1976d2" stroke="black" d="M130.75,-344.5C130.75,-344.5 12,-344.5 12,-344.5 6,-344.5 0,-338.5 0,-332.5 0,-332.5 0,-312.5 0,-312.5 0,-306.5 6,-300.5 12,-300.5 12,-300.5 130.75,-300.5 130.75,-300.5 136.75,-300.5 142.75,-306.5 142.75,-312.5 142.75,-312.5 142.75,-332.5 142.75,-332.5 142.75,-338.5 136.75,-344.5 130.75,-344.5"/>
<text xml:space="preserve" text-anchor="middle" x="71.38" y="-331" font-family="Helvetica,sans-Serif" font-size="10.00" fill="white">N copies across independent</text>
<text xml:space="preserve" text-anchor="middle" x="71.38" y="-319" font-family="Helvetica,sans-Serif" font-size="10.00" fill="white">DRAM channels</text>
<text xml:space="preserve" text-anchor="middle" x="71.38" y="-307" font-family="Helvetica,sans-Serif" font-size="10.00" fill="white">channel_offset=256 bytes</text>
</g>
<!-- repl_title&#45;&gt;repl_desc -->
<g id="edge1" class="edge">
<title>repl_title&#45;&gt;repl_desc</title>
<path fill="none" stroke="#555555" stroke-width="1.5" d="M71.38,-399.18C71.38,-399.18 71.38,-357.04 71.38,-357.04"/>
<polygon fill="#555555" stroke="#555555" stroke-width="1.5" points="74.88,-357.04 71.38,-347.04 67.88,-357.04 74.88,-357.04"/>
</g>
<!-- repl_ch0 -->
<g id="node3" class="node">
<title>repl_ch0</title>
<path fill="#42a5f5" stroke="black" d="M73.88,-239.5C73.88,-239.5 36.88,-239.5 36.88,-239.5 30.88,-239.5 24.88,-233.5 24.88,-227.5 24.88,-227.5 24.88,-215.5 24.88,-215.5 24.88,-209.5 30.88,-203.5 36.88,-203.5 36.88,-203.5 73.88,-203.5 73.88,-203.5 79.88,-203.5 85.88,-209.5 85.88,-215.5 85.88,-215.5 85.88,-227.5 85.88,-227.5 85.88,-233.5 79.88,-239.5 73.88,-239.5"/>
<text xml:space="preserve" text-anchor="middle" x="55.38" y="-223.45" font-family="Helvetica,sans-Serif" font-size="9.00" fill="white">Channel 0</text>
<text xml:space="preserve" text-anchor="middle" x="55.38" y="-212.95" font-family="Helvetica,sans-Serif" font-size="9.00" fill="white">(Replica 0)</text>
</g>
<!-- repl_desc&#45;&gt;repl_ch0 -->
<g id="edge2" class="edge">
<title>repl_desc&#45;&gt;repl_ch0</title>
<path fill="none" stroke="#555555" stroke-width="1.5" d="M55.38,-300.08C55.38,-300.08 55.38,-252.08 55.38,-252.08"/>
<polygon fill="#555555" stroke="#555555" stroke-width="1.5" points="58.88,-252.08 55.38,-242.08 51.88,-252.08 58.88,-252.08"/>
</g>
<!-- repl_ch1 -->
<g id="node4" class="node">
<title>repl_ch1</title>
<path fill="#42a5f5" stroke="black" d="M170.88,-239.5C170.88,-239.5 133.88,-239.5 133.88,-239.5 127.88,-239.5 121.88,-233.5 121.88,-227.5 121.88,-227.5 121.88,-215.5 121.88,-215.5 121.88,-209.5 127.88,-203.5 133.88,-203.5 133.88,-203.5 170.88,-203.5 170.88,-203.5 176.88,-203.5 182.88,-209.5 182.88,-215.5 182.88,-215.5 182.88,-227.5 182.88,-227.5 182.88,-233.5 176.88,-239.5 170.88,-239.5"/>
<text xml:space="preserve" text-anchor="middle" x="152.38" y="-223.45" font-family="Helvetica,sans-Serif" font-size="9.00" fill="white">Channel 1</text>
<text xml:space="preserve" text-anchor="middle" x="152.38" y="-212.95" font-family="Helvetica,sans-Serif" font-size="9.00" fill="white">(Replica 1)</text>
</g>
<!-- repl_desc&#45;&gt;repl_ch1 -->
<g id="edge3" class="edge">
<title>repl_desc&#45;&gt;repl_ch1</title>
<path fill="none" stroke="#555555" stroke-width="1.5" d="M132.31,-300.08C132.31,-300.08 132.31,-252.08 132.31,-252.08"/>
<polygon fill="#555555" stroke="#555555" stroke-width="1.5" points="135.81,-252.08 132.31,-242.08 128.81,-252.08 135.81,-252.08"/>
</g>
<!-- result -->
<g id="node16" class="node">
<title>result</title>
<path fill="#1b5e20" stroke="black" d="M543.62,-142.5C543.62,-142.5 355.12,-142.5 355.12,-142.5 349.12,-142.5 343.12,-136.5 343.12,-130.5 343.12,-130.5 343.12,-116.5 343.12,-116.5 343.12,-110.5 349.12,-104.5 355.12,-104.5 355.12,-104.5 543.62,-104.5 543.62,-104.5 549.62,-104.5 555.62,-110.5 555.62,-116.5 555.62,-116.5 555.62,-130.5 555.62,-130.5 555.62,-136.5 549.62,-142.5 543.62,-142.5"/>
<text xml:space="preserve" text-anchor="middle" x="449.38" y="-126.15" font-family="Helvetica,sans-Serif" font-size="13.00" fill="white">Combined Result</text>
<text xml:space="preserve" text-anchor="middle" x="449.38" y="-111.15" font-family="Helvetica,sans-Serif" font-size="13.00" fill="white">P(stall)^N Exponential Reduction</text>
</g>
<!-- repl_ch0&#45;&gt;result -->
<g id="edge12" class="edge">
<title>repl_ch0&#45;&gt;result</title>
<path fill="none" stroke="#555555" stroke-width="1.5" stroke-dasharray="5,2" d="M55.38,-203.3C55.38,-173.36 55.38,-117 55.38,-117 55.38,-117 330.48,-117 330.48,-117"/>
<polygon fill="#555555" stroke="#555555" stroke-width="1.5" points="330.48,-120.5 340.48,-117 330.48,-113.5 330.48,-120.5"/>
</g>
<!-- hedge_title -->
<g id="node5" class="node">
<title>hedge_title</title>
<path fill="#2e7d32" stroke="black" d="M311.25,-526.5C311.25,-526.5 225.5,-526.5 225.5,-526.5 219.5,-526.5 213.5,-520.5 213.5,-514.5 213.5,-514.5 213.5,-502.5 213.5,-502.5 213.5,-496.5 219.5,-490.5 225.5,-490.5 225.5,-490.5 311.25,-490.5 311.25,-490.5 317.25,-490.5 323.25,-496.5 323.25,-502.5 323.25,-502.5 323.25,-514.5 323.25,-514.5 323.25,-520.5 317.25,-526.5 311.25,-526.5"/>
<text xml:space="preserve" text-anchor="middle" x="268.38" y="-504.23" font-family="Helvetica,sans-Serif" font-size="12.00" fill="white">2. Hedged Reads</text>
</g>
<!-- hedge_desc -->
<g id="node6" class="node">
<title>hedge_desc</title>
<path fill="#388e3c" stroke="black" d="M307.5,-439.5C307.5,-439.5 229.25,-439.5 229.25,-439.5 223.25,-439.5 217.25,-433.5 217.25,-427.5 217.25,-427.5 217.25,-407.5 217.25,-407.5 217.25,-401.5 223.25,-395.5 229.25,-395.5 229.25,-395.5 307.5,-395.5 307.5,-395.5 313.5,-395.5 319.5,-401.5 319.5,-407.5 319.5,-407.5 319.5,-427.5 319.5,-427.5 319.5,-433.5 313.5,-439.5 307.5,-439.5"/>
<text xml:space="preserve" text-anchor="middle" x="268.38" y="-426" font-family="Helvetica,sans-Serif" font-size="10.00" fill="white">Simultaneous reads</text>
<text xml:space="preserve" text-anchor="middle" x="268.38" y="-414" font-family="Helvetica,sans-Serif" font-size="10.00" fill="white">across all replicas</text>
<text xml:space="preserve" text-anchor="middle" x="268.38" y="-402" font-family="Helvetica,sans-Serif" font-size="10.00" fill="white">First response wins</text>
</g>
<!-- hedge_title&#45;&gt;hedge_desc -->
<g id="edge4" class="edge">
<title>hedge_title&#45;&gt;hedge_desc</title>
<path fill="none" stroke="#555555" stroke-width="1.5" d="M268.38,-490.08C268.38,-490.08 268.38,-452.02 268.38,-452.02"/>
<polygon fill="#555555" stroke="#555555" stroke-width="1.5" points="271.88,-452.02 268.38,-442.02 264.88,-452.02 271.88,-452.02"/>
</g>
<!-- hedge_w0 -->
<g id="node7" class="node">
<title>hedge_w0</title>
<path fill="#66bb6a" stroke="black" d="M238.38,-340.5C238.38,-340.5 192.38,-340.5 192.38,-340.5 186.38,-340.5 180.38,-334.5 180.38,-328.5 180.38,-328.5 180.38,-316.5 180.38,-316.5 180.38,-310.5 186.38,-304.5 192.38,-304.5 192.38,-304.5 238.38,-304.5 238.38,-304.5 244.38,-304.5 250.38,-310.5 250.38,-316.5 250.38,-316.5 250.38,-328.5 250.38,-328.5 250.38,-334.5 244.38,-340.5 238.38,-340.5"/>
<text xml:space="preserve" text-anchor="middle" x="215.38" y="-324.45" font-family="Helvetica,sans-Serif" font-size="9.00" fill="white">Worker 0</text>
<text xml:space="preserve" text-anchor="middle" x="215.38" y="-313.95" font-family="Helvetica,sans-Serif" font-size="9.00" fill="white">→ Channel 0</text>
</g>
<!-- hedge_desc&#45;&gt;hedge_w0 -->
<g id="edge5" class="edge">
<title>hedge_desc&#45;&gt;hedge_w0</title>
<path fill="none" stroke="#555555" stroke-width="1.5" d="M233.81,-395.47C233.81,-395.47 233.81,-353.17 233.81,-353.17"/>
<polygon fill="#555555" stroke="#555555" stroke-width="1.5" points="237.31,-353.17 233.81,-343.17 230.31,-353.17 237.31,-353.17"/>
</g>
<!-- hedge_w1 -->
<g id="node8" class="node">
<title>hedge_w1</title>
<path fill="#66bb6a" stroke="black" d="M344.38,-340.5C344.38,-340.5 298.38,-340.5 298.38,-340.5 292.38,-340.5 286.38,-334.5 286.38,-328.5 286.38,-328.5 286.38,-316.5 286.38,-316.5 286.38,-310.5 292.38,-304.5 298.38,-304.5 298.38,-304.5 344.38,-304.5 344.38,-304.5 350.38,-304.5 356.38,-310.5 356.38,-316.5 356.38,-316.5 356.38,-328.5 356.38,-328.5 356.38,-334.5 350.38,-340.5 344.38,-340.5"/>
<text xml:space="preserve" text-anchor="middle" x="321.38" y="-324.45" font-family="Helvetica,sans-Serif" font-size="9.00" fill="white">Worker 1</text>
<text xml:space="preserve" text-anchor="middle" x="321.38" y="-313.95" font-family="Helvetica,sans-Serif" font-size="9.00" fill="white">→ Channel 1</text>
</g>
<!-- hedge_desc&#45;&gt;hedge_w1 -->
<g id="edge6" class="edge">
<title>hedge_desc&#45;&gt;hedge_w1</title>
<path fill="none" stroke="#555555" stroke-width="1.5" d="M302.94,-395.47C302.94,-395.47 302.94,-353.17 302.94,-353.17"/>
<polygon fill="#555555" stroke="#555555" stroke-width="1.5" points="306.44,-353.17 302.94,-343.17 299.44,-353.17 306.44,-353.17"/>
</g>
<!-- hedge_first -->
<g id="node9" class="node">
<title>hedge_first</title>
<path fill="#1b5e20" stroke="black" d="M289.75,-239.5C289.75,-239.5 231,-239.5 231,-239.5 225,-239.5 219,-233.5 219,-227.5 219,-227.5 219,-215.5 219,-215.5 219,-209.5 225,-203.5 231,-203.5 231,-203.5 289.75,-203.5 289.75,-203.5 295.75,-203.5 301.75,-209.5 301.75,-215.5 301.75,-215.5 301.75,-227.5 301.75,-227.5 301.75,-233.5 295.75,-239.5 289.75,-239.5"/>
<text xml:space="preserve" text-anchor="middle" x="260.38" y="-225.88" font-family="Helvetica,sans-Serif" font-size="10.00" fill="white">First Response</text>
<text xml:space="preserve" text-anchor="middle" x="260.38" y="-213.88" font-family="Helvetica,sans-Serif" font-size="10.00" fill="white">✓ Wins</text>
</g>
<!-- hedge_w0&#45;&gt;hedge_first -->
<g id="edge7" class="edge">
<title>hedge_w0&#45;&gt;hedge_first</title>
<path fill="none" stroke="#555555" stroke-width="1.5" d="M234.69,-304.44C234.69,-304.44 234.69,-252.01 234.69,-252.01"/>
<polygon fill="#555555" stroke="#555555" stroke-width="1.5" points="238.19,-252.01 234.69,-242.01 231.19,-252.01 238.19,-252.01"/>
</g>
<!-- hedge_w1&#45;&gt;hedge_first -->
<g id="edge8" class="edge">
<title>hedge_w1&#45;&gt;hedge_first</title>
<path fill="none" stroke="#555555" stroke-width="1.5" d="M294.06,-304.44C294.06,-304.44 294.06,-252.01 294.06,-252.01"/>
<polygon fill="#555555" stroke="#555555" stroke-width="1.5" points="297.56,-252.01 294.06,-242.01 290.56,-252.01 297.56,-252.01"/>
</g>
<!-- hedge_first&#45;&gt;result -->
<g id="edge13" class="edge">
<title>hedge_first&#45;&gt;result</title>
<path fill="none" stroke="#555555" stroke-width="1.5" stroke-dasharray="5,2" d="M260.38,-203.42C260.38,-176.76 260.38,-130 260.38,-130 260.38,-130 330.45,-130 330.45,-130"/>
<polygon fill="#555555" stroke="#555555" stroke-width="1.5" points="330.45,-133.5 340.45,-130 330.45,-126.5 330.45,-133.5"/>
</g>
<!-- huge_title -->
<g id="node10" class="node">
<title>huge_title</title>
<path fill="#6a1b9a" stroke="black" d="M485.12,-340.5C485.12,-340.5 413.62,-340.5 413.62,-340.5 407.62,-340.5 401.62,-334.5 401.62,-328.5 401.62,-328.5 401.62,-316.5 401.62,-316.5 401.62,-310.5 407.62,-304.5 413.62,-304.5 413.62,-304.5 485.12,-304.5 485.12,-304.5 491.12,-304.5 497.12,-310.5 497.12,-316.5 497.12,-316.5 497.12,-328.5 497.12,-328.5 497.12,-334.5 491.12,-340.5 485.12,-340.5"/>
<text xml:space="preserve" text-anchor="middle" x="449.38" y="-318.23" font-family="Helvetica,sans-Serif" font-size="12.00" fill="white">3. Huge Pages</text>
</g>
<!-- huge_desc -->
<g id="node11" class="node">
<title>huge_desc</title>
<path fill="#7b1fa2" stroke="black" d="M549.25,-243.5C549.25,-243.5 349.5,-243.5 349.5,-243.5 343.5,-243.5 337.5,-237.5 337.5,-231.5 337.5,-231.5 337.5,-211.5 337.5,-211.5 337.5,-205.5 343.5,-199.5 349.5,-199.5 349.5,-199.5 549.25,-199.5 549.25,-199.5 555.25,-199.5 561.25,-205.5 561.25,-211.5 561.25,-211.5 561.25,-231.5 561.25,-231.5 561.25,-237.5 555.25,-243.5 549.25,-243.5"/>
<text xml:space="preserve" text-anchor="middle" x="449.38" y="-230" font-family="Helvetica,sans-Serif" font-size="10.00" fill="white">1GB pages via mmap</text>
<text xml:space="preserve" text-anchor="middle" x="449.38" y="-218" font-family="Helvetica,sans-Serif" font-size="10.00" fill="white">MAP_HUGETLB | (30 &lt;&lt; MAP_HUGE_SHIFT)</text>
<text xml:space="preserve" text-anchor="middle" x="449.38" y="-206" font-family="Helvetica,sans-Serif" font-size="10.00" fill="white">Eliminates TLB misses</text>
</g>
<!-- huge_title&#45;&gt;huge_desc -->
<g id="edge9" class="edge">
<title>huge_title&#45;&gt;huge_desc</title>
<path fill="none" stroke="#555555" stroke-width="1.5" d="M449.38,-304.44C449.38,-304.44 449.38,-256.27 449.38,-256.27"/>
<polygon fill="#555555" stroke="#555555" stroke-width="1.5" points="452.88,-256.27 449.38,-246.27 445.88,-256.27 452.88,-256.27"/>
</g>
<!-- huge_desc&#45;&gt;result -->
<g id="edge14" class="edge">
<title>huge_desc&#45;&gt;result</title>
<path fill="none" stroke="#555555" stroke-width="1.5" stroke-dasharray="5,2" d="M449.38,-199.26C449.38,-199.26 449.38,-155.27 449.38,-155.27"/>
<polygon fill="#555555" stroke="#555555" stroke-width="1.5" points="452.88,-155.27 449.38,-145.27 445.88,-155.27 452.88,-155.27"/>
</g>
<!-- core_title -->
<g id="node12" class="node">
<title>core_title</title>
<path fill="#e65100" stroke="black" d="M691,-340.5C691,-340.5 615.75,-340.5 615.75,-340.5 609.75,-340.5 603.75,-334.5 603.75,-328.5 603.75,-328.5 603.75,-316.5 603.75,-316.5 603.75,-310.5 609.75,-304.5 615.75,-304.5 615.75,-304.5 691,-304.5 691,-304.5 697,-304.5 703,-310.5 703,-316.5 703,-316.5 703,-328.5 703,-328.5 703,-334.5 697,-340.5 691,-340.5"/>
<text xml:space="preserve" text-anchor="middle" x="653.38" y="-318.23" font-family="Helvetica,sans-Serif" font-size="12.00" fill="white">4. Core Pinning</text>
</g>
<!-- core_desc -->
<g id="node13" class="node">
<title>core_desc</title>
<path fill="#ef6c00" stroke="black" d="M697.38,-249.5C697.38,-249.5 609.38,-249.5 609.38,-249.5 603.38,-249.5 597.38,-243.5 597.38,-237.5 597.38,-237.5 597.38,-205.5 597.38,-205.5 597.38,-199.5 603.38,-193.5 609.38,-193.5 609.38,-193.5 697.38,-193.5 697.38,-193.5 703.38,-193.5 709.38,-199.5 709.38,-205.5 709.38,-205.5 709.38,-237.5 709.38,-237.5 709.38,-243.5 703.38,-249.5 697.38,-249.5"/>
<text xml:space="preserve" text-anchor="middle" x="653.38" y="-236" font-family="Helvetica,sans-Serif" font-size="10.00" fill="white">sched_setaffinity()</text>
<text xml:space="preserve" text-anchor="middle" x="653.38" y="-224" font-family="Helvetica,sans-Serif" font-size="10.00" fill="white">Dedicated CPU cores</text>
<text xml:space="preserve" text-anchor="middle" x="653.38" y="-212" font-family="Helvetica,sans-Serif" font-size="10.00" fill="white">per worker thread</text>
<text xml:space="preserve" text-anchor="middle" x="653.38" y="-200" font-family="Helvetica,sans-Serif" font-size="10.00" fill="white">Cores: 11, 12, 14</text>
</g>
<!-- core_title&#45;&gt;core_desc -->
<g id="edge10" class="edge">
<title>core_title&#45;&gt;core_desc</title>
<path fill="none" stroke="#555555" stroke-width="1.5" d="M653.38,-304.44C653.38,-304.44 653.38,-261.97 653.38,-261.97"/>
<polygon fill="#555555" stroke="#555555" stroke-width="1.5" points="656.88,-261.97 653.38,-251.97 649.88,-261.97 656.88,-261.97"/>
</g>
<!-- core_desc&#45;&gt;result -->
<g id="edge15" class="edge">
<title>core_desc&#45;&gt;result</title>
<path fill="none" stroke="#555555" stroke-width="1.5" stroke-dasharray="5,2" d="M653.38,-193.05C653.38,-166.19 653.38,-130 653.38,-130 653.38,-130 568.13,-130 568.13,-130"/>
<polygon fill="#555555" stroke="#555555" stroke-width="1.5" points="568.13,-126.5 558.13,-130 568.13,-133.5 568.13,-126.5"/>
</g>
<!-- math_title -->
<g id="node14" class="node">
<title>math_title</title>
<path fill="#00695c" stroke="black" d="M862,-340.5C862,-340.5 756.75,-340.5 756.75,-340.5 750.75,-340.5 744.75,-334.5 744.75,-328.5 744.75,-328.5 744.75,-316.5 744.75,-316.5 744.75,-310.5 750.75,-304.5 756.75,-304.5 756.75,-304.5 862,-304.5 862,-304.5 868,-304.5 874,-310.5 874,-316.5 874,-316.5 874,-328.5 874,-328.5 874,-334.5 868,-340.5 862,-340.5"/>
<text xml:space="preserve" text-anchor="middle" x="809.38" y="-318.23" font-family="Helvetica,sans-Serif" font-size="12.00" fill="white">5. Precomputed Math</text>
</g>
<!-- math_desc -->
<g id="node15" class="node">
<title>math_desc</title>
<path fill="#00796b" stroke="black" d="M861.62,-249.5C861.62,-249.5 757.12,-249.5 757.12,-249.5 751.12,-249.5 745.12,-243.5 745.12,-237.5 745.12,-237.5 745.12,-205.5 745.12,-205.5 745.12,-199.5 751.12,-193.5 757.12,-193.5 757.12,-193.5 861.62,-193.5 861.62,-193.5 867.62,-193.5 873.62,-199.5 873.62,-205.5 873.62,-205.5 873.62,-237.5 873.62,-237.5 873.62,-243.5 867.62,-249.5 861.62,-249.5"/>
<text xml:space="preserve" text-anchor="middle" x="809.38" y="-236" font-family="Helvetica,sans-Serif" font-size="10.00" fill="white">chunk_shift_ (CTZ)</text>
<text xml:space="preserve" text-anchor="middle" x="809.38" y="-224" font-family="Helvetica,sans-Serif" font-size="10.00" fill="white">chunk_mask_</text>
<text xml:space="preserve" text-anchor="middle" x="809.38" y="-212" font-family="Helvetica,sans-Serif" font-size="10.00" fill="white">stride_in_elements_</text>
<text xml:space="preserve" text-anchor="middle" x="809.38" y="-200" font-family="Helvetica,sans-Serif" font-size="10.00" fill="white">Zero&#45;overhead addressing</text>
</g>
<!-- math_title&#45;&gt;math_desc -->
<g id="edge11" class="edge">
<title>math_title&#45;&gt;math_desc</title>
<path fill="none" stroke="#555555" stroke-width="1.5" d="M809.38,-304.44C809.38,-304.44 809.38,-261.97 809.38,-261.97"/>
<polygon fill="#555555" stroke="#555555" stroke-width="1.5" points="812.88,-261.97 809.38,-251.97 805.88,-261.97 812.88,-261.97"/>
</g>
<!-- math_desc&#45;&gt;result -->
<g id="edge16" class="edge">
<title>math_desc&#45;&gt;result</title>
<path fill="none" stroke="#555555" stroke-width="1.5" stroke-dasharray="5,2" d="M809.38,-193.22C809.38,-162.27 809.38,-117 809.38,-117 809.38,-117 568.2,-117 568.2,-117"/>
<polygon fill="#555555" stroke="#555555" stroke-width="1.5" points="568.2,-113.5 558.2,-117 568.2,-120.5 568.2,-113.5"/>
</g>
<!-- prob_single -->
<g id="node17" class="node">
<title>prob_single</title>
<path fill="#ff9800" stroke="black" d="M412,-40C412,-40 360.75,-40 360.75,-40 354.75,-40 348.75,-34 348.75,-28 348.75,-28 348.75,-16 348.75,-16 348.75,-10 354.75,-4 360.75,-4 360.75,-4 412,-4 412,-4 418,-4 424,-10 424,-16 424,-16 424,-28 424,-28 424,-34 418,-40 412,-40"/>
<text xml:space="preserve" text-anchor="middle" x="386.38" y="-24.5" font-family="Helvetica,sans-Serif" font-size="10.00" fill="white">P(single stall)</text>
<text xml:space="preserve" text-anchor="middle" x="386.38" y="-12.5" font-family="Helvetica,sans-Serif" font-size="10.00" fill="white">≈ 0.5%</text>
</g>
<!-- result&#45;&gt;prob_single -->
<g id="edge17" class="edge">
<title>result&#45;&gt;prob_single</title>
<path fill="none" stroke="#ff9800" stroke-width="1.5" d="M386.38,-104.41C386.38,-104.41 386.38,-52.59 386.38,-52.59"/>
<polygon fill="#ff9800" stroke="#ff9800" stroke-width="1.5" points="389.88,-52.59 386.38,-42.59 382.88,-52.59 389.88,-52.59"/>
<text xml:space="preserve" text-anchor="middle" x="416.38" y="-70.95" font-family="Helvetica,sans-Serif" font-size="9.00">single channel</text>
</g>
<!-- prob_all -->
<g id="node18" class="node">
<title>prob_all</title>
<path fill="#4caf50" stroke="black" d="M554.38,-44C554.38,-44 472.38,-44 472.38,-44 466.38,-44 460.38,-38 460.38,-32 460.38,-32 460.38,-12 460.38,-12 460.38,-6 466.38,0 472.38,0 472.38,0 554.38,0 554.38,0 560.38,0 566.38,-6 566.38,-12 566.38,-12 566.38,-32 566.38,-32 566.38,-38 560.38,-44 554.38,-44"/>
<text xml:space="preserve" text-anchor="middle" x="513.38" y="-30.5" font-family="Helvetica,sans-Serif" font-size="10.00" fill="white">P(all N stall)</text>
<text xml:space="preserve" text-anchor="middle" x="513.38" y="-18.5" font-family="Helvetica,sans-Serif" font-size="10.00" fill="white">≈ 0.0025% (N=2)</text>
<text xml:space="preserve" text-anchor="middle" x="513.38" y="-6.5" font-family="Helvetica,sans-Serif" font-size="10.00" fill="white">≈ 0.0000125% (N=3)</text>
</g>
<!-- result&#45;&gt;prob_all -->
<g id="edge18" class="edge">
<title>result&#45;&gt;prob_all</title>
<path fill="none" stroke="#4caf50" stroke-width="1.5" d="M508,-104.41C508,-104.41 508,-56.46 508,-56.46"/>
<polygon fill="#4caf50" stroke="#4caf50" stroke-width="1.5" points="511.5,-56.46 508,-46.46 504.5,-56.46 511.5,-56.46"/>
<text xml:space="preserve" text-anchor="middle" x="536.62" y="-70.95" font-family="Helvetica,sans-Serif" font-size="9.00">N channels</text>
</g>
</g>
</svg>
