<?xml version="1.0" encoding="UTF-8" standalone="no"?>
<!DOCTYPE svg PUBLIC "-//W3C//DTD SVG 1.1//EN"
 "http://www.w3.org/Graphics/SVG/1.1/DTD/svg11.dtd">
<!-- Generated by graphviz version 14.1.2 (0)
 -->
<!-- Title: ldr_architecture Pages: 1 -->
<svg width="1160pt" height="690pt"
 viewBox="0.00 0.00 1160.00 690.00" xmlns="http://www.w3.org/2000/svg" xmlns:xlink="http://www.w3.org/1999/xlink">
<g id="graph0" class="graph" transform="scale(1 1) rotate(0) translate(4 685.7)">
<title>ldr_architecture</title>
<text xml:space="preserve" text-anchor="middle" x="576" y="-7.2" font-family="Times New Roman,serif" font-size="14.00">Local Deep Research &#45; Architecture Overview</text>
<!-- user_query -->
<g id="node1" class="node">
<title>user_query</title>
<path fill="#4caf50" stroke="black" d="M681,-681.7C681,-681.7 561,-681.7 561,-681.7 555,-681.7 549,-675.7 549,-669.7 549,-669.7 549,-636.1 549,-636.1 549,-630.1 555,-624.1 561,-624.1 561,-624.1 681,-624.1 681,-624.1 687,-624.1 693,-630.1 693,-636.1 693,-636.1 693,-669.7 693,-669.7 693,-675.7 687,-681.7 681,-681.7"/>
<text xml:space="preserve" text-anchor="middle" x="621" y="-649.2" font-family="Arial Bold" font-size="11.00" fill="white">User Query</text>
</g>
<!-- web_ui -->
<g id="node2" class="node">
<title>web_ui</title>
<path fill="#03a9f4" stroke="black" d="M424.8,-566.1C424.8,-566.1 319.2,-566.1 319.2,-566.1 313.2,-566.1 307.2,-560.1 307.2,-554.1 307.2,-554.1 307.2,-527.7 307.2,-527.7 307.2,-521.7 313.2,-515.7 319.2,-515.7 319.2,-515.7 424.8,-515.7 424.8,-515.7 430.8,-515.7 436.8,-521.7 436.8,-527.7 436.8,-527.7 436.8,-554.1 436.8,-554.1 436.8,-560.1 430.8,-566.1 424.8,-566.1"/>
<text xml:space="preserve" text-anchor="middle" x="372" y="-537.2" font-family="Arial" font-size="11.00" fill="white">Web UI</text>
</g>
<!-- user_query&#45;&gt;web_ui -->
<g id="edge1" class="edge">
<title>user_query&#45;&gt;web_ui</title>
<path fill="none" stroke="#4caf50" stroke-width="2" d="M548.64,-652.5C475.13,-652.5 372,-652.5 372,-652.5 372,-652.5 372,-579.53 372,-579.53"/>
<polygon fill="#4caf50" stroke="#4caf50" stroke-width="2" points="375.5,-579.53 372,-569.53 368.5,-579.53 375.5,-579.53"/>
</g>
<!-- rest_api -->
<g id="node3" class="node">
<title>rest_api</title>
<path fill="#03a9f4" stroke="black" d="M590.8,-566.1C590.8,-566.1 485.2,-566.1 485.2,-566.1 479.2,-566.1 473.2,-560.1 473.2,-554.1 473.2,-554.1 473.2,-527.7 473.2,-527.7 473.2,-521.7 479.2,-515.7 485.2,-515.7 485.2,-515.7 590.8,-515.7 590.8,-515.7 596.8,-515.7 602.8,-521.7 602.8,-527.7 602.8,-527.7 602.8,-554.1 602.8,-554.1 602.8,-560.1 596.8,-566.1 590.8,-566.1"/>
<text xml:space="preserve" text-anchor="middle" x="538" y="-537.2" font-family="Arial" font-size="11.00" fill="white">REST API</text>
</g>
<!-- user_query&#45;&gt;rest_api -->
<g id="edge2" class="edge">
<title>user_query&#45;&gt;rest_api</title>
<path fill="none" stroke="#4caf50" stroke-width="2" d="M575.9,-623.77C575.9,-623.77 575.9,-579.49 575.9,-579.49"/>
<polygon fill="#4caf50" stroke="#4caf50" stroke-width="2" points="579.4,-579.49 575.9,-569.49 572.4,-579.49 579.4,-579.49"/>
</g>
<!-- mcp_server -->
<g id="node4" class="node">
<title>mcp_server</title>
<path fill="#03a9f4" stroke="black" d="M756.8,-566.1C756.8,-566.1 651.2,-566.1 651.2,-566.1 645.2,-566.1 639.2,-560.1 639.2,-554.1 639.2,-554.1 639.2,-527.7 639.2,-527.7 639.2,-521.7 645.2,-515.7 651.2,-515.7 651.2,-515.7 756.8,-515.7 756.8,-515.7 762.8,-515.7 768.8,-521.7 768.8,-527.7 768.8,-527.7 768.8,-554.1 768.8,-554.1 768.8,-560.1 762.8,-566.1 756.8,-566.1"/>
<text xml:space="preserve" text-anchor="middle" x="704" y="-543.95" font-family="Arial" font-size="11.00" fill="white">MCP Server</text>
<text xml:space="preserve" text-anchor="middle" x="704" y="-530.45" font-family="Arial" font-size="11.00" fill="white">(8 Tools)</text>
</g>
<!-- user_query&#45;&gt;mcp_server -->
<g id="edge3" class="edge">
<title>user_query&#45;&gt;mcp_server</title>
<path fill="none" stroke="#4caf50" stroke-width="2" d="M666.1,-623.77C666.1,-623.77 666.1,-579.49 666.1,-579.49"/>
<polygon fill="#4caf50" stroke="#4caf50" stroke-width="2" points="669.6,-579.49 666.1,-569.49 662.6,-579.49 669.6,-579.49"/>
</g>
<!-- python_api -->
<g id="node5" class="node">
<title>python_api</title>
<path fill="#03a9f4" stroke="black" d="M922.8,-566.1C922.8,-566.1 817.2,-566.1 817.2,-566.1 811.2,-566.1 805.2,-560.1 805.2,-554.1 805.2,-554.1 805.2,-527.7 805.2,-527.7 805.2,-521.7 811.2,-515.7 817.2,-515.7 817.2,-515.7 922.8,-515.7 922.8,-515.7 928.8,-515.7 934.8,-521.7 934.8,-527.7 934.8,-527.7 934.8,-554.1 934.8,-554.1 934.8,-560.1 928.8,-566.1 922.8,-566.1"/>
<text xml:space="preserve" text-anchor="middle" x="870" y="-537.2" font-family="Arial" font-size="11.00" fill="white">Python API</text>
</g>
<!-- user_query&#45;&gt;python_api -->
<g id="edge4" class="edge">
<title>user_query&#45;&gt;python_api</title>
<path fill="none" stroke="#4caf50" stroke-width="2" d="M693.36,-652.5C766.87,-652.5 870,-652.5 870,-652.5 870,-652.5 870,-579.53 870,-579.53"/>
<polygon fill="#4caf50" stroke="#4caf50" stroke-width="2" points="873.5,-579.53 870,-569.53 866.5,-579.53 873.5,-579.53"/>
</g>
<!-- adv_search -->
<g id="node6" class="node">
<title>adv_search</title>
<path fill="#2196f3" stroke="black" d="M717,-457.7C717,-457.7 525,-457.7 525,-457.7 519,-457.7 513,-451.7 513,-445.7 513,-445.7 513,-397.7 513,-397.7 513,-391.7 519,-385.7 525,-385.7 525,-385.7 717,-385.7 717,-385.7 723,-385.7 729,-391.7 729,-397.7 729,-397.7 729,-445.7 729,-445.7 729,-451.7 723,-457.7 717,-457.7"/>
<text xml:space="preserve" text-anchor="middle" x="621" y="-424.55" font-family="Arial Bold" font-size="12.00" fill="white">AdvancedSearchSystem</text>
<text xml:space="preserve" text-anchor="middle" x="621" y="-410.3" font-family="Arial Bold" font-size="12.00" fill="white">(Orchestrator)</text>
</g>
<!-- web_ui&#45;&gt;adv_search -->
<g id="edge5" class="edge">
<title>web_ui&#45;&gt;adv_search</title>
<path fill="none" stroke="#03a9f4" stroke-width="2" d="M414,-515.31C414,-485.27 414,-439.5 414,-439.5 414,-439.5 499.62,-439.5 499.62,-439.5"/>
<polygon fill="#03a9f4" stroke="#03a9f4" stroke-width="2" points="499.62,-443 509.62,-439.5 499.62,-436 499.62,-443"/>
</g>
<!-- rest_api&#45;&gt;adv_search -->
<g id="edge6" class="edge">
<title>rest_api&#45;&gt;adv_search</title>
<path fill="none" stroke="#03a9f4" stroke-width="2" d="M557.9,-515.33C557.9,-515.33 557.9,-471.11 557.9,-471.11"/>
<polygon fill="#03a9f4" stroke="#03a9f4" stroke-width="2" points="561.4,-471.11 557.9,-461.11 554.4,-471.11 561.4,-471.11"/>
</g>
<!-- mcp_server&#45;&gt;adv_search -->
<g id="edge7" class="edge">
<title>mcp_server&#45;&gt;adv_search</title>
<path fill="none" stroke="#03a9f4" stroke-width="2" d="M684.1,-515.33C684.1,-515.33 684.1,-471.11 684.1,-471.11"/>
<polygon fill="#03a9f4" stroke="#03a9f4" stroke-width="2" points="687.6,-471.11 684.1,-461.11 680.6,-471.11 687.6,-471.11"/>
</g>
<!-- python_api&#45;&gt;adv_search -->
<g id="edge8" class="edge">
<title>python_api&#45;&gt;adv_search</title>
<path fill="none" stroke="#03a9f4" stroke-width="2" d="M812.8,-515.31C812.8,-485.27 812.8,-439.5 812.8,-439.5 812.8,-439.5 742.26,-439.5 742.26,-439.5"/>
<polygon fill="#03a9f4" stroke="#03a9f4" stroke-width="2" points="742.26,-436 732.26,-439.5 742.26,-443 742.26,-436"/>
</g>
<!-- strategy -->
<g id="node7" class="node">
<title>strategy</title>
<path fill="#ff9800" stroke="black" d="M168,-327.7C168,-327.7 12,-327.7 12,-327.7 6,-327.7 0,-321.7 0,-315.7 0,-315.7 0,-274.9 0,-274.9 0,-268.9 6,-262.9 12,-262.9 12,-262.9 168,-262.9 168,-262.9 174,-262.9 180,-268.9 180,-274.9 180,-274.9 180,-315.7 180,-315.7 180,-321.7 174,-327.7 168,-327.7"/>
<text xml:space="preserve" text-anchor="middle" x="90" y="-298.35" font-family="Arial" font-size="11.00" fill="white">Strategy Factory</text>
<text xml:space="preserve" text-anchor="middle" x="90" y="-284.85" font-family="Arial" font-size="11.00" fill="white">(25+ Strategies)</text>
</g>
<!-- adv_search&#45;&gt;strategy -->
<g id="edge9" class="edge">
<title>adv_search&#45;&gt;strategy</title>
<path fill="none" stroke="#2196f3" stroke-width="2" d="M512.58,-421.5C357.28,-421.5 90,-421.5 90,-421.5 90,-421.5 90,-341.16 90,-341.16"/>
<polygon fill="#2196f3" stroke="#2196f3" stroke-width="2" points="93.5,-341.16 90,-331.16 86.5,-341.16 93.5,-341.16"/>
<text xml:space="preserve" text-anchor="middle" x="243.12" y="-424.7" font-family="Times New Roman,serif" font-size="14.00">selects</text>
</g>
<!-- llm_registry -->
<g id="node8" class="node">
<title>llm_registry</title>
<path fill="#ff9800" stroke="black" d="M384,-327.7C384,-327.7 228,-327.7 228,-327.7 222,-327.7 216,-321.7 216,-315.7 216,-315.7 216,-274.9 216,-274.9 216,-268.9 222,-262.9 228,-262.9 228,-262.9 384,-262.9 384,-262.9 390,-262.9 396,-268.9 396,-274.9 396,-274.9 396,-315.7 396,-315.7 396,-321.7 390,-327.7 384,-327.7"/>
<text xml:space="preserve" text-anchor="middle" x="306" y="-298.35" font-family="Arial" font-size="11.00" fill="white">LLM Provider Registry</text>
<text xml:space="preserve" text-anchor="middle" x="306" y="-284.85" font-family="Arial" font-size="11.00" fill="white">(10 Providers)</text>
</g>
<!-- adv_search&#45;&gt;llm_registry -->
<g id="edge10" class="edge">
<title>adv_search&#45;&gt;llm_registry</title>
<path fill="none" stroke="#2196f3" stroke-width="2" d="M512.59,-403.5C437.73,-403.5 351.6,-403.5 351.6,-403.5 351.6,-403.5 351.6,-341.08 351.6,-341.08"/>
<polygon fill="#2196f3" stroke="#2196f3" stroke-width="2" points="355.1,-341.08 351.6,-331.08 348.1,-341.08 355.1,-341.08"/>
<text xml:space="preserve" text-anchor="middle" x="389.26" y="-406.7" font-family="Times New Roman,serif" font-size="14.00">uses</text>
</g>
<!-- search_factory -->
<g id="node9" class="node">
<title>search_factory</title>
<path fill="#ff9800" stroke="black" d="M600,-327.7C600,-327.7 444,-327.7 444,-327.7 438,-327.7 432,-321.7 432,-315.7 432,-315.7 432,-274.9 432,-274.9 432,-268.9 438,-262.9 444,-262.9 444,-262.9 600,-262.9 600,-262.9 606,-262.9 612,-268.9 612,-274.9 612,-274.9 612,-315.7 612,-315.7 612,-321.7 606,-327.7 600,-327.7"/>
<text xml:space="preserve" text-anchor="middle" x="522" y="-298.35" font-family="Arial" font-size="11.00" fill="white">Search Engine Factory</text>
<text xml:space="preserve" text-anchor="middle" x="522" y="-284.85" font-family="Arial" font-size="11.00" fill="white">(25+ Engines)</text>
</g>
<!-- adv_search&#45;&gt;search_factory -->
<g id="edge11" class="edge">
<title>adv_search&#45;&gt;search_factory</title>
<path fill="none" stroke="#2196f3" stroke-width="2" d="M562.5,-385.48C562.5,-385.48 562.5,-341.1 562.5,-341.1"/>
<polygon fill="#2196f3" stroke="#2196f3" stroke-width="2" points="566,-341.1 562.5,-331.1 559,-341.1 566,-341.1"/>
<text xml:space="preserve" text-anchor="middle" x="543" y="-366.49" font-family="Times New Roman,serif" font-size="14.00">queries</text>
</g>
<!-- citation -->
<g id="node10" class="node">
<title>citation</title>
<path fill="#009688" stroke="black" d="M780,-320.5C780,-320.5 660,-320.5 660,-320.5 654,-320.5 648,-314.5 648,-308.5 648,-308.5 648,-282.1 648,-282.1 648,-276.1 654,-270.1 660,-270.1 660,-270.1 780,-270.1 780,-270.1 786,-270.1 792,-276.1 792,-282.1 792,-282.1 792,-308.5 792,-308.5 792,-314.5 786,-320.5 780,-320.5"/>
<text xml:space="preserve" text-anchor="middle" x="720" y="-291.6" font-family="Arial" font-size="11.00" fill="white">Citation Handler</text>
</g>
<!-- adv_search&#45;&gt;citation -->
<g id="edge12" class="edge">
<title>adv_search&#45;&gt;citation</title>
<path fill="none" stroke="#009688" stroke-width="2" d="M688.5,-385.48C688.5,-385.48 688.5,-333.72 688.5,-333.72"/>
<polygon fill="#009688" stroke="#009688" stroke-width="2" points="692,-333.72 688.5,-323.72 685,-333.72 692,-333.72"/>
</g>
<!-- findings -->
<g id="node11" class="node">
<title>findings</title>
<path fill="#009688" stroke="black" d="M960,-320.5C960,-320.5 840,-320.5 840,-320.5 834,-320.5 828,-314.5 828,-308.5 828,-308.5 828,-282.1 828,-282.1 828,-276.1 834,-270.1 840,-270.1 840,-270.1 960,-270.1 960,-270.1 966,-270.1 972,-276.1 972,-282.1 972,-282.1 972,-308.5 972,-308.5 972,-314.5 966,-320.5 960,-320.5"/>
<text xml:space="preserve" text-anchor="middle" x="900" y="-298.35" font-family="Arial" font-size="11.00" fill="white">Findings</text>
<text xml:space="preserve" text-anchor="middle" x="900" y="-284.85" font-family="Arial" font-size="11.00" fill="white">Repository</text>
</g>
<!-- adv_search&#45;&gt;findings -->
<g id="edge13" class="edge">
<title>adv_search&#45;&gt;findings</title>
<path fill="none" stroke="#009688" stroke-width="2" d="M729.17,-403.5C800.72,-403.5 881.4,-403.5 881.4,-403.5 881.4,-403.5 881.4,-333.97 881.4,-333.97"/>
<polygon fill="#009688" stroke="#009688" stroke-width="2" points="884.9,-333.97 881.4,-323.97 877.9,-333.97 884.9,-333.97"/>
</g>
<!-- question_gen -->
<g id="node12" class="node">
<title>question_gen</title>
<path fill="#009688" stroke="black" d="M1140,-320.5C1140,-320.5 1020,-320.5 1020,-320.5 1014,-320.5 1008,-314.5 1008,-308.5 1008,-308.5 1008,-282.1 1008,-282.1 1008,-276.1 1014,-270.1 1020,-270.1 1020,-270.1 1140,-270.1 1140,-270.1 1146,-270.1 1152,-276.1 1152,-282.1 1152,-282.1 1152,-308.5 1152,-308.5 1152,-314.5 1146,-320.5 1140,-320.5"/>
<text xml:space="preserve" text-anchor="middle" x="1080" y="-298.35" font-family="Arial" font-size="11.00" fill="white">Question</text>
<text xml:space="preserve" text-anchor="middle" x="1080" y="-284.85" font-family="Arial" font-size="11.00" fill="white">Generator</text>
</g>
<!-- adv_search&#45;&gt;question_gen -->
<g id="edge14" class="edge">
<title>adv_search&#45;&gt;question_gen</title>
<path fill="none" stroke="#009688" stroke-width="2" d="M729.49,-421.5C865.2,-421.5 1080,-421.5 1080,-421.5 1080,-421.5 1080,-333.87 1080,-333.87"/>
<polygon fill="#009688" stroke="#009688" stroke-width="2" points="1083.5,-333.87 1080,-323.87 1076.5,-333.87 1083.5,-333.87"/>
</g>
<!-- db -->
<g id="node13" class="node">
<title>db</title>
<path fill="#9c27b0" stroke="black" d="M988.8,-204.9C988.8,-204.9 811.2,-204.9 811.2,-204.9 805.2,-204.9 799.2,-198.9 799.2,-192.9 799.2,-192.9 799.2,-152.1 799.2,-152.1 799.2,-146.1 805.2,-140.1 811.2,-140.1 811.2,-140.1 988.8,-140.1 988.8,-140.1 994.8,-140.1 1000.8,-146.1 1000.8,-152.1 1000.8,-152.1 1000.8,-192.9 1000.8,-192.9 1000.8,-198.9 994.8,-204.9 988.8,-204.9"/>
<text xml:space="preserve" text-anchor="middle" x="900" y="-175.55" font-family="Arial" font-size="11.00" fill="white">Encrypted Database</text>
<text xml:space="preserve" text-anchor="middle" x="900" y="-162.05" font-family="Arial" font-size="11.00" fill="white">(SQLCipher AES&#45;256)</text>
</g>
<!-- citation&#45;&gt;db -->
<g id="edge15" class="edge">
<title>citation&#45;&gt;db</title>
<path fill="none" stroke="#9c27b0" stroke-width="2" d="M792.43,-295.5C808.27,-295.5 820.4,-295.5 820.4,-295.5 820.4,-295.5 820.4,-218.17 820.4,-218.17"/>
<polygon fill="#9c27b0" stroke="#9c27b0" stroke-width="2" points="823.9,-218.17 820.4,-208.17 816.9,-218.17 823.9,-218.17"/>
</g>
<!-- findings&#45;&gt;db -->
<g id="edge16" class="edge">
<title>findings&#45;&gt;db</title>
<path fill="none" stroke="#9c27b0" stroke-width="2" d="M900,-269.86C900,-269.86 900,-218.41 900,-218.41"/>
<polygon fill="#9c27b0" stroke="#9c27b0" stroke-width="2" points="903.5,-218.41 900,-208.41 896.5,-218.41 903.5,-218.41"/>
</g>
<!-- question_gen&#45;&gt;db -->
<g id="edge17" class="edge">
<title>question_gen&#45;&gt;db</title>
<path fill="none" stroke="#9c27b0" stroke-width="2" d="M1007.64,-295.5C995.31,-295.5 986.4,-295.5 986.4,-295.5 986.4,-295.5 986.4,-218.17 986.4,-218.17"/>
<polygon fill="#9c27b0" stroke="#9c27b0" stroke-width="2" points="989.9,-218.17 986.4,-208.17 982.9,-218.17 989.9,-218.17"/>
</g>
<!-- report -->
<g id="node14" class="node">
<title>report</title>
<path fill="#f44336" stroke="black" d="M988.8,-82.1C988.8,-82.1 811.2,-82.1 811.2,-82.1 805.2,-82.1 799.2,-76.1 799.2,-70.1 799.2,-70.1 799.2,-36.5 799.2,-36.5 799.2,-30.5 805.2,-24.5 811.2,-24.5 811.2,-24.5 988.8,-24.5 988.8,-24.5 994.8,-24.5 1000.8,-30.5 1000.8,-36.5 1000.8,-36.5 1000.8,-70.1 1000.8,-70.1 1000.8,-76.1 994.8,-82.1 988.8,-82.1"/>
<text xml:space="preserve" text-anchor="middle" x="900" y="-56.35" font-family="Arial Bold" font-size="11.00" fill="white">Research Report</text>
<text xml:space="preserve" text-anchor="middle" x="900" y="-42.85" font-family="Arial Bold" font-size="11.00" fill="white">(Citations + Findings)</text>
</g>
<!-- db&#45;&gt;report -->
<g id="edge18" class="edge">
<title>db&#45;&gt;report</title>
<path fill="none" stroke="#f44336" stroke-width="2" d="M900,-139.61C900,-139.61 900,-95.45 900,-95.45"/>
<polygon fill="#f44336" stroke="#f44336" stroke-width="2" points="903.5,-95.45 900,-85.45 896.5,-95.45 903.5,-95.45"/>
</g>
</g>
</svg>
