<?xml version='1.0' encoding='utf-8'?>
<svg xmlns="http://www.w3.org/2000/svg" viewBox="0 0 1865 462" style="width: 100%; height: auto;">
<g id="graph0" class="graph" transform="scale(1.33333 1.33333) rotate(0) translate(4 342.4)">
<title>G</title>

<g id="node1" class="node">
<title>ruleset</title>
<polygon fill="#2196f3" stroke="black" points="774.4,-338.4 620,-338.4 616,-334.4 616,-280.8 770.4,-280.8 774.4,-284.8 774.4,-338.4" />
<polyline fill="none" stroke="black" points="770.4,-334.4 616,-334.4" />
<polyline fill="none" stroke="black" points="770.4,-334.4 770.4,-280.8" />
<polyline fill="none" stroke="black" points="770.4,-334.4 774.4,-338.4" />
<text text-anchor="middle" x="695.2" y="-312.05" font-family="Arial, Helvetica, sans-serif" font-size="14.00" fill="white" xml:space="preserve">Built-in</text>
<text text-anchor="middle" x="695.2" y="-296.3" font-family="Arial, Helvetica, sans-serif" font-size="14.00" fill="white" xml:space="preserve">Ruleset</text>
</g>

<g id="node2" class="node">
<title>npe</title>
<polygon fill="#f44336" stroke="black" points="334.4,-244.8 176,-244.8 176,-187.2 334.4,-187.2 334.4,-244.8" />
<text text-anchor="middle" x="255.2" y="-218.45" font-family="Arial, Helvetica, sans-serif" font-size="14.00" fill="white" xml:space="preserve">NPE</text>
<text text-anchor="middle" x="255.2" y="-202.7" font-family="Arial, Helvetica, sans-serif" font-size="14.00" fill="white" xml:space="preserve">Detection</text>
</g>

<g id="edge1" class="edge">
<title>ruleset-&gt;npe</title>
<path fill="none" stroke="#f44336" d="M615.52,-310C488.72,-310 255.2,-310 255.2,-310 255.2,-310 255.2,-254.74 255.2,-254.74" />
<polygon fill="#f44336" stroke="#f44336" points="258,-254.74 255.2,-246.74 252.4,-254.74 258,-254.74" />
<text text-anchor="middle" x="388.98" y="-312.5" font-family="Arial, Helvetica, sans-serif" font-size="10.00" fill="#f44336" xml:space="preserve">category</text>
</g>

<g id="node3" class="node">
<title>thread</title>
<polygon fill="#ff9800" stroke="black" points="686.4,-244.8 528,-244.8 528,-187.2 686.4,-187.2 686.4,-244.8" />
<text text-anchor="middle" x="607.2" y="-218.45" font-family="Arial, Helvetica, sans-serif" font-size="14.00" fill="white" xml:space="preserve">Thread</text>
<text text-anchor="middle" x="607.2" y="-202.7" font-family="Arial, Helvetica, sans-serif" font-size="14.00" fill="white" xml:space="preserve">Safety</text>
</g>

<g id="edge2" class="edge">
<title>ruleset-&gt;thread</title>
<path fill="none" stroke="#ff9800" d="M651.2,-280.5C651.2,-280.5 651.2,-254.6 651.2,-254.6" />
<polygon fill="#ff9800" stroke="#ff9800" points="654,-254.6 651.2,-246.6 648.4,-254.6 654,-254.6" />
<text text-anchor="middle" x="632.45" y="-270.05" font-family="Arial, Helvetica, sans-serif" font-size="10.00" fill="#ff9800" xml:space="preserve">category</text>
</g>

<g id="node4" class="node">
<title>xss</title>
<polygon fill="#9c27b0" stroke="black" points="862.4,-244.8 704,-244.8 704,-187.2 862.4,-187.2 862.4,-244.8" />
<text text-anchor="middle" x="783.2" y="-218.45" font-family="Arial, Helvetica, sans-serif" font-size="14.00" fill="white" xml:space="preserve">XSS</text>
<text text-anchor="middle" x="783.2" y="-202.7" font-family="Arial, Helvetica, sans-serif" font-size="14.00" fill="white" xml:space="preserve">Detection</text>
</g>

<g id="edge3" class="edge">
<title>ruleset-&gt;xss</title>
<path fill="none" stroke="#9c27b0" d="M739.2,-280.5C739.2,-280.5 739.2,-254.6 739.2,-254.6" />
<polygon fill="#9c27b0" stroke="#9c27b0" points="742,-254.6 739.2,-246.6 736.4,-254.6 742,-254.6" />
<text text-anchor="middle" x="720.45" y="-270.05" font-family="Arial, Helvetica, sans-serif" font-size="10.00" fill="#9c27b0" xml:space="preserve">category</text>
</g>

<g id="node5" class="node">
<title>sqli</title>
<polygon fill="#f44336" stroke="black" points="1214.4,-244.8 1056,-244.8 1056,-187.2 1214.4,-187.2 1214.4,-244.8" />
<text text-anchor="middle" x="1135.2" y="-218.45" font-family="Arial, Helvetica, sans-serif" font-size="14.00" fill="white" xml:space="preserve">SQL</text>
<text text-anchor="middle" x="1135.2" y="-202.7" font-family="Arial, Helvetica, sans-serif" font-size="14.00" fill="white" xml:space="preserve">Injection</text>
</g>

<g id="edge4" class="edge">
<title>ruleset-&gt;sqli</title>
<path fill="none" stroke="#f44336" d="M774.88,-310C901.68,-310 1135.2,-310 1135.2,-310 1135.2,-310 1135.2,-254.74 1135.2,-254.74" />
<polygon fill="#f44336" stroke="#f44336" points="1138,-254.74 1135.2,-246.74 1132.4,-254.74 1138,-254.74" />
<text text-anchor="middle" x="963.92" y="-312.5" font-family="Arial, Helvetica, sans-serif" font-size="10.00" fill="#f44336" xml:space="preserve">category</text>
</g>

<g id="node6" class="node">
<title>nullcheck</title>
<polygon fill="#f44336" stroke="black" points="158.4,-151.2 0,-151.2 0,-93.6 158.4,-93.6 158.4,-151.2" />
<text text-anchor="middle" x="79.2" y="-124.85" font-family="Arial, Helvetica, sans-serif" font-size="14.00" fill="white" xml:space="preserve">Missing Null</text>
<text text-anchor="middle" x="79.2" y="-109.1" font-family="Arial, Helvetica, sans-serif" font-size="14.00" fill="white" xml:space="preserve">Checks</text>
</g>

<g id="edge5" class="edge">
<title>npe-&gt;nullcheck</title>
<path fill="none" stroke="#f44336" d="M175.7,-216C129.05,-216 79.2,-216 79.2,-216 79.2,-216 79.2,-161.02 79.2,-161.02" />
<polygon fill="#f44336" stroke="#f44336" points="82,-161.02 79.2,-153.02 76.4,-161.02 82,-161.02" />
<text text-anchor="middle" x="83.83" y="-218.5" font-family="Arial, Helvetica, sans-serif" font-size="10.00" fill="#f44336" xml:space="preserve">detects</text>
</g>

<g id="node7" class="node">
<title>deref</title>
<polygon fill="#f44336" stroke="black" points="334.4,-151.2 176,-151.2 176,-93.6 334.4,-93.6 334.4,-151.2" />
<text text-anchor="middle" x="255.2" y="-124.85" font-family="Arial, Helvetica, sans-serif" font-size="14.00" fill="white" xml:space="preserve">Unsafe</text>
<text text-anchor="middle" x="255.2" y="-109.1" font-family="Arial, Helvetica, sans-serif" font-size="14.00" fill="white" xml:space="preserve">Dereference</text>
</g>

<g id="edge6" class="edge">
<title>npe-&gt;deref</title>
<path fill="none" stroke="#f44336" d="M255.2,-186.9C255.2,-186.9 255.2,-161 255.2,-161" />
<polygon fill="#f44336" stroke="#f44336" points="258,-161 255.2,-153 252.4,-161 258,-161" />
<text text-anchor="middle" x="239.08" y="-176.45" font-family="Arial, Helvetica, sans-serif" font-size="10.00" fill="#f44336" xml:space="preserve">detects</text>
</g>

<g id="node8" class="node">
<title>race</title>
<polygon fill="#ff9800" stroke="black" points="510.4,-151.2 352,-151.2 352,-93.6 510.4,-93.6 510.4,-151.2" />
<text text-anchor="middle" x="431.2" y="-124.85" font-family="Arial, Helvetica, sans-serif" font-size="14.00" fill="white" xml:space="preserve">Race</text>
<text text-anchor="middle" x="431.2" y="-109.1" font-family="Arial, Helvetica, sans-serif" font-size="14.00" fill="white" xml:space="preserve">Conditions</text>
</g>

<g id="edge7" class="edge">
<title>thread-&gt;race</title>
<path fill="none" stroke="#ff9800" d="M527.7,-216C481.05,-216 431.2,-216 431.2,-216 431.2,-216 431.2,-161.02 431.2,-161.02" />
<polygon fill="#ff9800" stroke="#ff9800" points="434,-161.02 431.2,-153.02 428.4,-161.02 434,-161.02" />
<text text-anchor="middle" x="435.83" y="-218.5" font-family="Arial, Helvetica, sans-serif" font-size="10.00" fill="#ff9800" xml:space="preserve">detects</text>
</g>

<g id="node9" class="node">
<title>deadlock</title>
<polygon fill="#ff9800" stroke="black" points="686.4,-151.2 528,-151.2 528,-93.6 686.4,-93.6 686.4,-151.2" />
<text text-anchor="middle" x="607.2" y="-124.85" font-family="Arial, Helvetica, sans-serif" font-size="14.00" fill="white" xml:space="preserve">Deadlock</text>
<text text-anchor="middle" x="607.2" y="-109.1" font-family="Arial, Helvetica, sans-serif" font-size="14.00" fill="white" xml:space="preserve">Risk</text>
</g>

<g id="edge8" class="edge">
<title>thread-&gt;deadlock</title>
<path fill="none" stroke="#ff9800" d="M607.2,-186.9C607.2,-186.9 607.2,-161 607.2,-161" />
<polygon fill="#ff9800" stroke="#ff9800" points="610,-161 607.2,-153 604.4,-161 610,-161" />
<text text-anchor="middle" x="591.08" y="-176.45" font-family="Arial, Helvetica, sans-serif" font-size="10.00" fill="#ff9800" xml:space="preserve">detects</text>
</g>

<g id="node10" class="node">
<title>escape</title>
<polygon fill="#9c27b0" stroke="black" points="862.4,-151.2 704,-151.2 704,-93.6 862.4,-93.6 862.4,-151.2" />
<text text-anchor="middle" x="783.2" y="-124.85" font-family="Arial, Helvetica, sans-serif" font-size="14.00" fill="white" xml:space="preserve">Unescaped</text>
<text text-anchor="middle" x="783.2" y="-109.1" font-family="Arial, Helvetica, sans-serif" font-size="14.00" fill="white" xml:space="preserve">Output</text>
</g>

<g id="edge9" class="edge">
<title>xss-&gt;escape</title>
<path fill="none" stroke="#9c27b0" d="M783.2,-186.9C783.2,-186.9 783.2,-161 783.2,-161" />
<polygon fill="#9c27b0" stroke="#9c27b0" points="786,-161 783.2,-153 780.4,-161 786,-161" />
<text text-anchor="middle" x="767.08" y="-176.45" font-family="Arial, Helvetica, sans-serif" font-size="10.00" fill="#9c27b0" xml:space="preserve">detects</text>
</g>

<g id="node11" class="node">
<title>dom</title>
<polygon fill="#9c27b0" stroke="black" points="1038.4,-151.2 880,-151.2 880,-93.6 1038.4,-93.6 1038.4,-151.2" />
<text text-anchor="middle" x="959.2" y="-124.85" font-family="Arial, Helvetica, sans-serif" font-size="14.00" fill="white" xml:space="preserve">Unsafe DOM</text>
<text text-anchor="middle" x="959.2" y="-109.1" font-family="Arial, Helvetica, sans-serif" font-size="14.00" fill="white" xml:space="preserve">Manipulation</text>
</g>

<g id="edge10" class="edge">
<title>xss-&gt;dom</title>
<path fill="none" stroke="#9c27b0" d="M862.7,-216C909.35,-216 959.2,-216 959.2,-216 959.2,-216 959.2,-161.02 959.2,-161.02" />
<polygon fill="#9c27b0" stroke="#9c27b0" points="962,-161.02 959.2,-153.02 956.4,-161.02 962,-161.02" />
<text text-anchor="middle" x="922.32" y="-218.5" font-family="Arial, Helvetica, sans-serif" font-size="10.00" fill="#9c27b0" xml:space="preserve">detects</text>
</g>

<g id="node12" class="node">
<title>concat</title>
<polygon fill="#f44336" stroke="black" points="1214.4,-151.2 1056,-151.2 1056,-93.6 1214.4,-93.6 1214.4,-151.2" />
<text text-anchor="middle" x="1135.2" y="-124.85" font-family="Arial, Helvetica, sans-serif" font-size="14.00" fill="white" xml:space="preserve">SQL String</text>
<text text-anchor="middle" x="1135.2" y="-109.1" font-family="Arial, Helvetica, sans-serif" font-size="14.00" fill="white" xml:space="preserve">Concatenation</text>
</g>

<g id="edge11" class="edge">
<title>sqli-&gt;concat</title>
<path fill="none" stroke="#f44336" d="M1135.2,-186.9C1135.2,-186.9 1135.2,-161 1135.2,-161" />
<polygon fill="#f44336" stroke="#f44336" points="1138,-161 1135.2,-153 1132.4,-161 1138,-161" />
<text text-anchor="middle" x="1119.08" y="-176.45" font-family="Arial, Helvetica, sans-serif" font-size="10.00" fill="#f44336" xml:space="preserve">detects</text>
</g>

<g id="node13" class="node">
<title>orm</title>
<polygon fill="#f44336" stroke="black" points="1390.4,-151.2 1232,-151.2 1232,-93.6 1390.4,-93.6 1390.4,-151.2" />
<text text-anchor="middle" x="1311.2" y="-124.85" font-family="Arial, Helvetica, sans-serif" font-size="14.00" fill="white" xml:space="preserve">ORM</text>
<text text-anchor="middle" x="1311.2" y="-109.1" font-family="Arial, Helvetica, sans-serif" font-size="14.00" fill="white" xml:space="preserve">Misuse</text>
</g>

<g id="edge12" class="edge">
<title>sqli-&gt;orm</title>
<path fill="none" stroke="#f44336" d="M1214.7,-216C1261.35,-216 1311.2,-216 1311.2,-216 1311.2,-216 1311.2,-161.02 1311.2,-161.02" />
<polygon fill="#f44336" stroke="#f44336" points="1314,-161.02 1311.2,-153.02 1308.4,-161.02 1314,-161.02" />
<text text-anchor="middle" x="1274.32" y="-218.5" font-family="Arial, Helvetica, sans-serif" font-size="10.00" fill="#f44336" xml:space="preserve">detects</text>
</g>

<g id="node14" class="node">
<title>output</title>
<polygon fill="#4caf50" stroke="black" points="774.4,-57.6 616,-57.6 616,0 774.4,0 774.4,-57.6" />
<text text-anchor="middle" x="695.2" y="-31.25" font-family="Arial, Helvetica, sans-serif" font-size="14.00" fill="white" xml:space="preserve">Precise</text>
<text text-anchor="middle" x="695.2" y="-15.5" font-family="Arial, Helvetica, sans-serif" font-size="14.00" fill="white" xml:space="preserve">Line Comments</text>
</g>

<g id="edge13" class="edge">
<title>nullcheck-&gt;output</title>
<path fill="none" stroke="#4caf50" d="M79.2,-93.35C79.2,-61.24 79.2,-14 79.2,-14 79.2,-14 606.1,-14 606.1,-14" />
<polygon fill="#4caf50" stroke="#4caf50" points="606.1,-16.8 614.1,-14 606.1,-11.2 606.1,-16.8" />
<text text-anchor="middle" x="273.73" y="-16.5" font-family="Arial, Helvetica, sans-serif" font-size="10.00" fill="#4caf50" xml:space="preserve">line comment</text>
</g>

<g id="edge14" class="edge">
<title>deref-&gt;output</title>
<path fill="none" stroke="#4caf50" d="M255.2,-93.1C255.2,-65.71 255.2,-29 255.2,-29 255.2,-29 606.01,-29 606.01,-29" />
<polygon fill="#4caf50" stroke="#4caf50" points="606.01,-31.8 614.01,-29 606.01,-26.2 606.01,-31.8" />
<text text-anchor="middle" x="369.3" y="-31.5" font-family="Arial, Helvetica, sans-serif" font-size="10.00" fill="#4caf50" xml:space="preserve">line comment</text>
</g>

<g id="edge15" class="edge">
<title>race-&gt;output</title>
<path fill="none" stroke="#4caf50" d="M431.2,-93.29C431.2,-70.62 431.2,-43 431.2,-43 431.2,-43 606.12,-43 606.12,-43" />
<polygon fill="#4caf50" stroke="#4caf50" points="606.12,-45.8 614.12,-43 606.12,-40.2 606.12,-45.8" />
<text text-anchor="middle" x="464.27" y="-45.5" font-family="Arial, Helvetica, sans-serif" font-size="10.00" fill="#4caf50" xml:space="preserve">line comment</text>
</g>

<g id="edge16" class="edge">
<title>deadlock-&gt;output</title>
<path fill="none" stroke="#4caf50" d="M651.2,-93.3C651.2,-93.3 651.2,-67.4 651.2,-67.4" />
<polygon fill="#4caf50" stroke="#4caf50" points="654,-67.4 651.2,-59.4 648.4,-67.4 654,-67.4" />
<text text-anchor="middle" x="621.95" y="-82.85" font-family="Arial, Helvetica, sans-serif" font-size="10.00" fill="#4caf50" xml:space="preserve">line comment</text>
</g>

<g id="edge17" class="edge">
<title>escape-&gt;output</title>
<path fill="none" stroke="#4caf50" d="M739.2,-93.3C739.2,-93.3 739.2,-67.4 739.2,-67.4" />
<polygon fill="#4caf50" stroke="#4caf50" points="742,-67.4 739.2,-59.4 736.4,-67.4 742,-67.4" />
<text text-anchor="middle" x="709.95" y="-82.85" font-family="Arial, Helvetica, sans-serif" font-size="10.00" fill="#4caf50" xml:space="preserve">line comment</text>
</g>

<g id="edge18" class="edge">
<title>dom-&gt;output</title>
<path fill="none" stroke="#4caf50" d="M959.2,-93.29C959.2,-70.62 959.2,-43 959.2,-43 959.2,-43 784.28,-43 784.28,-43" />
<polygon fill="#4caf50" stroke="#4caf50" points="784.28,-40.2 776.28,-43 784.28,-45.8 784.28,-40.2" />
<text text-anchor="middle" x="867.63" y="-45.5" font-family="Arial, Helvetica, sans-serif" font-size="10.00" fill="#4caf50" xml:space="preserve">line comment</text>
</g>

<g id="edge19" class="edge">
<title>concat-&gt;output</title>
<path fill="none" stroke="#4caf50" d="M1135.2,-93.1C1135.2,-65.71 1135.2,-29 1135.2,-29 1135.2,-29 784.39,-29 784.39,-29" />
<polygon fill="#4caf50" stroke="#4caf50" points="784.39,-26.2 776.39,-29 784.39,-31.8 784.39,-26.2" />
<text text-anchor="middle" x="962.6" y="-31.5" font-family="Arial, Helvetica, sans-serif" font-size="10.00" fill="#4caf50" xml:space="preserve">line comment</text>
</g>

<g id="edge20" class="edge">
<title>orm-&gt;output</title>
<path fill="none" stroke="#4caf50" d="M1311.2,-93.35C1311.2,-61.24 1311.2,-14 1311.2,-14 1311.2,-14 784.3,-14 784.3,-14" />
<polygon fill="#4caf50" stroke="#4caf50" points="784.3,-11.2 776.3,-14 784.3,-16.8 784.3,-11.2" />
<text text-anchor="middle" x="1058.17" y="-16.5" font-family="Arial, Helvetica, sans-serif" font-size="10.00" fill="#4caf50" xml:space="preserve">line comment</text>
</g>
</g>
</svg>