<?xml version="1.0" encoding="UTF-8" standalone="no"?>
<!DOCTYPE svg PUBLIC "-//W3C//DTD SVG 1.1//EN"
 "http://www.w3.org/Graphics/SVG/1.1/DTD/svg11.dtd">
<!-- Generated by graphviz version 14.1.2 (0)
 -->
<!-- Title: dify_rag_pipeline Pages: 1 -->
<svg width="1758pt" height="537pt"
 viewBox="0.00 0.00 1758.00 537.00" xmlns="http://www.w3.org/2000/svg" xmlns:xlink="http://www.w3.org/1999/xlink">
<g id="graph0" class="graph" transform="scale(1 1) rotate(0) translate(4 533)">
<title>dify_rag_pipeline</title>
<polygon fill="white" stroke="none" points="-4,4 -4,-533 1753.74,-533 1753.74,4 -4,4"/>
<g id="clust1" class="cluster">
<title>cluster_backends</title>
<polygon fill="none" stroke="#0d9488" stroke-dasharray="5,2" points="1002.25,-162 1002.25,-521 1104.5,-521 1104.5,-162 1002.25,-162"/>
<text xml:space="preserve" text-anchor="middle" x="1053.38" y="-508.45" font-family="Helvetica,sans-Serif" font-size="9.00">27+ Vector Backends</text>
</g>
<g id="clust2" class="cluster">
<title>cluster_rerank</title>
<polygon fill="none" stroke="#d97706" stroke-dasharray="5,2" points="1498.74,-14 1498.74,-229 1600.99,-229 1600.99,-14 1498.74,-14"/>
<text xml:space="preserve" text-anchor="middle" x="1549.86" y="-216.45" font-family="Helvetica,sans-Serif" font-size="9.00">Reranking Strategies</text>
</g>
<!-- doc_input -->
<g id="node1" class="node">
<title>doc_input</title>
<path fill="#f1f5f9" stroke="#64748b" d="M80.5,-414C80.5,-414 12,-414 12,-414 6,-414 0,-408 0,-402 0,-402 0,-390 0,-390 0,-384 6,-378 12,-378 12,-378 80.5,-378 80.5,-378 86.5,-378 92.5,-384 92.5,-390 92.5,-390 92.5,-402 92.5,-402 92.5,-408 86.5,-414 80.5,-414"/>
<text xml:space="preserve" text-anchor="middle" x="46.25" y="-392.3" font-family="Helvetica,sans-Serif" font-size="11.00">Document Input</text>
</g>
<!-- extraction -->
<g id="node4" class="node">
<title>extraction</title>
<path fill="#dbeafe" stroke="#2563eb" d="M226,-414C226,-414 163.5,-414 163.5,-414 157.5,-414 151.5,-408 151.5,-402 151.5,-402 151.5,-390 151.5,-390 151.5,-384 157.5,-378 163.5,-378 163.5,-378 226,-378 226,-378 232,-378 238,-384 238,-390 238,-390 238,-402 238,-402 238,-408 232,-414 226,-414"/>
<text xml:space="preserve" text-anchor="middle" x="194.75" y="-399.05" font-family="Helvetica,sans-Serif" font-size="11.00">Extraction</text>
<text xml:space="preserve" text-anchor="middle" x="194.75" y="-385.55" font-family="Helvetica,sans-Serif" font-size="11.00">PDF, PPT, etc.</text>
</g>
<!-- doc_input&#45;&gt;extraction -->
<g id="edge1" class="edge">
<title>doc_input&#45;&gt;extraction</title>
<path fill="none" stroke="#475569" d="M92.83,-396C92.83,-396 139.61,-396 139.61,-396"/>
<polygon fill="#475569" stroke="#475569" points="139.61,-399.5 149.61,-396 139.61,-392.5 139.61,-399.5"/>
</g>
<!-- weaviate -->
<g id="node2" class="node">
<title>weaviate</title>
<path fill="#ccfbf1" stroke="#0d9488" d="M1071.38,-494C1071.38,-494 1034.38,-494 1034.38,-494 1028.38,-494 1022.38,-488 1022.38,-482 1022.38,-482 1022.38,-470 1022.38,-470 1022.38,-464 1028.38,-458 1034.38,-458 1034.38,-458 1071.38,-458 1071.38,-458 1077.38,-458 1083.38,-464 1083.38,-470 1083.38,-470 1083.38,-482 1083.38,-482 1083.38,-488 1077.38,-494 1071.38,-494"/>
<text xml:space="preserve" text-anchor="middle" x="1052.88" y="-472.3" font-family="Helvetica,sans-Serif" font-size="11.00">Weaviate</text>
</g>
<!-- model_rerank -->
<g id="node3" class="node">
<title>model_rerank</title>
<path fill="#ccfbf1" stroke="#0d9488" d="M1576.49,-202C1576.49,-202 1522.24,-202 1522.24,-202 1516.24,-202 1510.24,-196 1510.24,-190 1510.24,-190 1510.24,-178 1510.24,-178 1510.24,-172 1516.24,-166 1522.24,-166 1522.24,-166 1576.49,-166 1576.49,-166 1582.49,-166 1588.49,-172 1588.49,-178 1588.49,-178 1588.49,-190 1588.49,-190 1588.49,-196 1582.49,-202 1576.49,-202"/>
<text xml:space="preserve" text-anchor="middle" x="1549.36" y="-180.3" font-family="Helvetica,sans-Serif" font-size="11.00">Model&#45;based</text>
</g>
<!-- output -->
<g id="node25" class="node">
<title>output</title>
<path fill="#f1f5f9" stroke="#64748b" d="M1737.74,-130C1737.74,-130 1663.99,-130 1663.99,-130 1657.99,-130 1651.99,-124 1651.99,-118 1651.99,-118 1651.99,-106 1651.99,-106 1651.99,-100 1657.99,-94 1663.99,-94 1663.99,-94 1737.74,-94 1737.74,-94 1743.74,-94 1749.74,-100 1749.74,-106 1749.74,-106 1749.74,-118 1749.74,-118 1749.74,-124 1743.74,-130 1737.74,-130"/>
<text xml:space="preserve" text-anchor="middle" x="1700.86" y="-108.3" font-family="Helvetica,sans-Serif" font-size="11.00">LLM / Application</text>
</g>
<!-- model_rerank&#45;&gt;output -->
<g id="edge27" class="edge">
<title>model_rerank&#45;&gt;output</title>
<path fill="none" stroke="#475569" d="M1588.74,-184C1633.59,-184 1700.74,-184 1700.74,-184 1700.74,-184 1700.74,-141.68 1700.74,-141.68"/>
<polygon fill="#475569" stroke="#475569" points="1704.24,-141.68 1700.74,-131.68 1697.24,-141.68 1704.24,-141.68"/>
</g>
<!-- cleaning -->
<g id="node7" class="node">
<title>cleaning</title>
<path fill="#dbeafe" stroke="#2563eb" d="M343.75,-414C343.75,-414 309,-414 309,-414 303,-414 297,-408 297,-402 297,-402 297,-390 297,-390 297,-384 303,-378 309,-378 309,-378 343.75,-378 343.75,-378 349.75,-378 355.75,-384 355.75,-390 355.75,-390 355.75,-402 355.75,-402 355.75,-408 349.75,-414 343.75,-414"/>
<text xml:space="preserve" text-anchor="middle" x="326.38" y="-392.3" font-family="Helvetica,sans-Serif" font-size="11.00">Cleaning</text>
</g>
<!-- extraction&#45;&gt;cleaning -->
<g id="edge2" class="edge">
<title>extraction&#45;&gt;cleaning</title>
<path fill="none" stroke="#475569" d="M238.21,-396C238.21,-396 285.16,-396 285.16,-396"/>
<polygon fill="#475569" stroke="#475569" points="285.16,-399.5 295.16,-396 285.16,-392.5 285.16,-399.5"/>
</g>
<!-- qdrant -->
<g id="node5" class="node">
<title>qdrant</title>
<path fill="#ccfbf1" stroke="#0d9488" d="M1067.88,-422C1067.88,-422 1037.88,-422 1037.88,-422 1031.88,-422 1025.88,-416 1025.88,-410 1025.88,-410 1025.88,-398 1025.88,-398 1025.88,-392 1031.88,-386 1037.88,-386 1037.88,-386 1067.88,-386 1067.88,-386 1073.88,-386 1079.88,-392 1079.88,-398 1079.88,-398 1079.88,-410 1079.88,-410 1079.88,-416 1073.88,-422 1067.88,-422"/>
<text xml:space="preserve" text-anchor="middle" x="1052.88" y="-400.3" font-family="Helvetica,sans-Serif" font-size="11.00">Qdrant</text>
</g>
<!-- weight_rerank -->
<g id="node6" class="node">
<title>weight_rerank</title>
<path fill="#ccfbf1" stroke="#0d9488" d="M1578.74,-130C1578.74,-130 1519.99,-130 1519.99,-130 1513.99,-130 1507.99,-124 1507.99,-118 1507.99,-118 1507.99,-106 1507.99,-106 1507.99,-100 1513.99,-94 1519.99,-94 1519.99,-94 1578.74,-94 1578.74,-94 1584.74,-94 1590.74,-100 1590.74,-106 1590.74,-106 1590.74,-118 1590.74,-118 1590.74,-124 1584.74,-130 1578.74,-130"/>
<text xml:space="preserve" text-anchor="middle" x="1549.36" y="-108.3" font-family="Helvetica,sans-Serif" font-size="11.00">Weight&#45;based</text>
</g>
<!-- weight_rerank&#45;&gt;output -->
<g id="edge28" class="edge">
<title>weight_rerank&#45;&gt;output</title>
<path fill="none" stroke="#475569" d="M1591.16,-112C1591.16,-112 1640.17,-112 1640.17,-112"/>
<polygon fill="#475569" stroke="#475569" points="1640.17,-115.5 1650.17,-112 1640.17,-108.5 1640.17,-115.5"/>
</g>
<!-- splitting -->
<g id="node10" class="node">
<title>splitting</title>
<path fill="#dbeafe" stroke="#2563eb" d="M457,-414C457,-414 426.75,-414 426.75,-414 420.75,-414 414.75,-408 414.75,-402 414.75,-402 414.75,-390 414.75,-390 414.75,-384 420.75,-378 426.75,-378 426.75,-378 457,-378 457,-378 463,-378 469,-384 469,-390 469,-390 469,-402 469,-402 469,-408 463,-414 457,-414"/>
<text xml:space="preserve" text-anchor="middle" x="441.88" y="-392.3" font-family="Helvetica,sans-Serif" font-size="11.00">Splitting</text>
</g>
<!-- cleaning&#45;&gt;splitting -->
<g id="edge3" class="edge">
<title>cleaning&#45;&gt;splitting</title>
<path fill="none" stroke="#475569" d="M356.12,-396C356.12,-396 403.09,-396 403.09,-396"/>
<polygon fill="#475569" stroke="#475569" points="403.09,-399.5 413.09,-396 403.09,-392.5 403.09,-399.5"/>
</g>
<!-- milvus -->
<g id="node8" class="node">
<title>milvus</title>
<path fill="#ccfbf1" stroke="#0d9488" d="M1067.88,-350C1067.88,-350 1037.88,-350 1037.88,-350 1031.88,-350 1025.88,-344 1025.88,-338 1025.88,-338 1025.88,-326 1025.88,-326 1025.88,-320 1031.88,-314 1037.88,-314 1037.88,-314 1067.88,-314 1067.88,-314 1073.88,-314 1079.88,-320 1079.88,-326 1079.88,-326 1079.88,-338 1079.88,-338 1079.88,-344 1073.88,-350 1067.88,-350"/>
<text xml:space="preserve" text-anchor="middle" x="1052.88" y="-328.3" font-family="Helvetica,sans-Serif" font-size="11.00">Milvus</text>
</g>
<!-- reorder_rerank -->
<g id="node9" class="node">
<title>reorder_rerank</title>
<path fill="#ccfbf1" stroke="#0d9488" d="M1565.24,-58C1565.24,-58 1533.49,-58 1533.49,-58 1527.49,-58 1521.49,-52 1521.49,-46 1521.49,-46 1521.49,-34 1521.49,-34 1521.49,-28 1527.49,-22 1533.49,-22 1533.49,-22 1565.24,-22 1565.24,-22 1571.24,-22 1577.24,-28 1577.24,-34 1577.24,-34 1577.24,-46 1577.24,-46 1577.24,-52 1571.24,-58 1565.24,-58"/>
<text xml:space="preserve" text-anchor="middle" x="1549.36" y="-36.3" font-family="Helvetica,sans-Serif" font-size="11.00">Reorder</text>
</g>
<!-- reorder_rerank&#45;&gt;output -->
<g id="edge29" class="edge">
<title>reorder_rerank&#45;&gt;output</title>
<path fill="none" stroke="#475569" d="M1577.48,-40C1621.26,-40 1700.74,-40 1700.74,-40 1700.74,-40 1700.74,-82.32 1700.74,-82.32"/>
<polygon fill="#475569" stroke="#475569" points="1697.24,-82.32 1700.74,-92.32 1704.24,-82.32 1697.24,-82.32"/>
</g>
<!-- fixed_split -->
<g id="node12" class="node">
<title>fixed_split</title>
<path fill="#ccfbf1" stroke="#0d9488" d="M605.88,-486C605.88,-486 565.12,-486 565.12,-486 559.12,-486 553.12,-480 553.12,-474 553.12,-474 553.12,-462 553.12,-462 553.12,-456 559.12,-450 565.12,-450 565.12,-450 605.88,-450 605.88,-450 611.88,-450 617.88,-456 617.88,-462 617.88,-462 617.88,-474 617.88,-474 617.88,-480 611.88,-486 605.88,-486"/>
<text xml:space="preserve" text-anchor="middle" x="585.5" y="-471.05" font-family="Helvetica,sans-Serif" font-size="11.00">Fixed Text</text>
<text xml:space="preserve" text-anchor="middle" x="585.5" y="-457.55" font-family="Helvetica,sans-Serif" font-size="11.00">Splitter</text>
</g>
<!-- splitting&#45;&gt;fixed_split -->
<g id="edge4" class="edge">
<title>splitting&#45;&gt;fixed_split</title>
<path fill="none" stroke="#475569" d="M441.74,-414.17C441.74,-435.5 441.74,-468 441.74,-468 441.74,-468 541.36,-468 541.36,-468"/>
<polygon fill="#475569" stroke="#475569" points="541.36,-471.5 551.36,-468 541.36,-464.5 541.36,-471.5"/>
</g>
<!-- recursive_split -->
<g id="node14" class="node">
<title>recursive_split</title>
<path fill="#ccfbf1" stroke="#0d9488" d="M631,-414C631,-414 540,-414 540,-414 534,-414 528,-408 528,-402 528,-402 528,-390 528,-390 528,-384 534,-378 540,-378 540,-378 631,-378 631,-378 637,-378 643,-384 643,-390 643,-390 643,-402 643,-402 643,-408 637,-414 631,-414"/>
<text xml:space="preserve" text-anchor="middle" x="585.5" y="-399.05" font-family="Helvetica,sans-Serif" font-size="11.00">Recursive Character</text>
<text xml:space="preserve" text-anchor="middle" x="585.5" y="-385.55" font-family="Helvetica,sans-Serif" font-size="11.00">Splitter</text>
</g>
<!-- splitting&#45;&gt;recursive_split -->
<g id="edge5" class="edge">
<title>splitting&#45;&gt;recursive_split</title>
<path fill="none" stroke="#475569" d="M469.23,-396C469.23,-396 516.11,-396 516.11,-396"/>
<polygon fill="#475569" stroke="#475569" points="516.11,-399.5 526.11,-396 516.11,-392.5 516.11,-399.5"/>
</g>
<!-- embedding -->
<g id="node15" class="node">
<title>embedding</title>
<path fill="#dbeafe" stroke="#2563eb" d="M608.88,-342C608.88,-342 562.12,-342 562.12,-342 556.12,-342 550.12,-336 550.12,-330 550.12,-330 550.12,-318 550.12,-318 550.12,-312 556.12,-306 562.12,-306 562.12,-306 608.88,-306 608.88,-306 614.88,-306 620.88,-312 620.88,-318 620.88,-318 620.88,-330 620.88,-330 620.88,-336 614.88,-342 608.88,-342"/>
<text xml:space="preserve" text-anchor="middle" x="585.5" y="-320.3" font-family="Helvetica,sans-Serif" font-size="11.00">Embedding</text>
</g>
<!-- splitting&#45;&gt;embedding -->
<g id="edge6" class="edge">
<title>splitting&#45;&gt;embedding</title>
<path fill="none" stroke="#475569" d="M441.74,-377.83C441.74,-356.5 441.74,-324 441.74,-324 441.74,-324 538.45,-324 538.45,-324"/>
<polygon fill="#475569" stroke="#475569" points="538.45,-327.5 548.45,-324 538.45,-320.5 538.45,-327.5"/>
</g>
<!-- pgvector -->
<g id="node11" class="node">
<title>pgvector</title>
<path fill="#ccfbf1" stroke="#0d9488" d="M1072.12,-278C1072.12,-278 1033.62,-278 1033.62,-278 1027.62,-278 1021.62,-272 1021.62,-266 1021.62,-266 1021.62,-254 1021.62,-254 1021.62,-248 1027.62,-242 1033.62,-242 1033.62,-242 1072.12,-242 1072.12,-242 1078.12,-242 1084.12,-248 1084.12,-254 1084.12,-254 1084.12,-266 1084.12,-266 1084.12,-272 1078.12,-278 1072.12,-278"/>
<text xml:space="preserve" text-anchor="middle" x="1052.88" y="-256.3" font-family="Helvetica,sans-Serif" font-size="11.00">PGVector</text>
</g>
<!-- chroma -->
<g id="node13" class="node">
<title>chroma</title>
<path fill="#ccfbf1" stroke="#0d9488" d="M1068.38,-206C1068.38,-206 1037.38,-206 1037.38,-206 1031.38,-206 1025.38,-200 1025.38,-194 1025.38,-194 1025.38,-182 1025.38,-182 1025.38,-176 1031.38,-170 1037.38,-170 1037.38,-170 1068.38,-170 1068.38,-170 1074.38,-170 1080.38,-176 1080.38,-182 1080.38,-182 1080.38,-194 1080.38,-194 1080.38,-200 1074.38,-206 1068.38,-206"/>
<text xml:space="preserve" text-anchor="middle" x="1052.88" y="-184.3" font-family="Helvetica,sans-Serif" font-size="11.00">Chroma</text>
</g>
<!-- embed_cache -->
<g id="node16" class="node">
<title>embed_cache</title>
<path fill="#ede9fe" stroke="#7c3aed" d="M807.25,-374.73C807.25,-376.53 783.66,-378 754.63,-378 725.59,-378 702,-376.53 702,-374.73 702,-374.73 702,-345.27 702,-345.27 702,-343.47 725.59,-342 754.63,-342 783.66,-342 807.25,-343.47 807.25,-345.27 807.25,-345.27 807.25,-374.73 807.25,-374.73"/>
<path fill="none" stroke="#7c3aed" d="M807.25,-374.73C807.25,-372.92 783.66,-371.45 754.63,-371.45 725.59,-371.45 702,-372.92 702,-374.73"/>
<text xml:space="preserve" text-anchor="middle" x="754.63" y="-356.3" font-family="Helvetica,sans-Serif" font-size="11.00">Embedding Cache</text>
</g>
<!-- embedding&#45;&gt;embed_cache -->
<g id="edge7" class="edge">
<title>embedding&#45;&gt;embed_cache</title>
<path fill="none" stroke="#475569" stroke-dasharray="5,2" d="M621.22,-332.67C659.17,-332.67 713.74,-332.67 713.74,-332.67 713.74,-332.67 713.74,-333.65 713.74,-333.65"/>
<polygon fill="#475569" stroke="#475569" points="710.24,-331.02 713.74,-341.02 717.24,-331.02 710.24,-331.02"/>
</g>
<!-- indexing -->
<g id="node17" class="node">
<title>indexing</title>
<path fill="#dbeafe" stroke="#2563eb" d="M770.88,-306C770.88,-306 738.38,-306 738.38,-306 732.38,-306 726.38,-300 726.38,-294 726.38,-294 726.38,-282 726.38,-282 726.38,-276 732.38,-270 738.38,-270 738.38,-270 770.88,-270 770.88,-270 776.88,-270 782.88,-276 782.88,-282 782.88,-282 782.88,-294 782.88,-294 782.88,-300 776.88,-306 770.88,-306"/>
<text xml:space="preserve" text-anchor="middle" x="754.63" y="-284.3" font-family="Helvetica,sans-Serif" font-size="11.00">Indexing</text>
</g>
<!-- embedding&#45;&gt;indexing -->
<g id="edge8" class="edge">
<title>embedding&#45;&gt;indexing</title>
<path fill="none" stroke="#475569" d="M620.98,-323.33C670.6,-323.33 754.74,-323.33 754.74,-323.33 754.74,-323.33 754.74,-318.01 754.74,-318.01"/>
<polygon fill="#475569" stroke="#475569" points="758.24,-318.01 754.74,-308.01 751.24,-318.01 758.24,-318.01"/>
</g>
<!-- vector_store -->
<g id="node18" class="node">
<title>vector_store</title>
<path fill="#ede9fe" stroke="#7c3aed" d="M951.25,-307.69C951.25,-310.1 932.2,-312.06 908.75,-312.06 885.3,-312.06 866.25,-310.1 866.25,-307.69 866.25,-307.69 866.25,-268.31 866.25,-268.31 866.25,-265.9 885.3,-263.94 908.75,-263.94 932.2,-263.94 951.25,-265.9 951.25,-268.31 951.25,-268.31 951.25,-307.69 951.25,-307.69"/>
<path fill="none" stroke="#7c3aed" d="M951.25,-307.69C951.25,-305.27 932.2,-303.31 908.75,-303.31 885.3,-303.31 866.25,-305.27 866.25,-307.69"/>
<text xml:space="preserve" text-anchor="middle" x="908.75" y="-291.05" font-family="Helvetica,sans-Serif" font-size="11.00">Vector Store</text>
<text xml:space="preserve" text-anchor="middle" x="908.75" y="-277.55" font-family="Helvetica,sans-Serif" font-size="11.00">27+ Backends</text>
</g>
<!-- indexing&#45;&gt;vector_store -->
<g id="edge9" class="edge">
<title>indexing&#45;&gt;vector_store</title>
<path fill="none" stroke="#475569" d="M783.25,-288C783.25,-288 854.5,-288 854.5,-288"/>
<polygon fill="#475569" stroke="#475569" points="854.5,-291.5 864.5,-288 854.5,-284.5 854.5,-291.5"/>
</g>
<!-- vector_store&#45;&gt;weaviate -->
<g id="edge10" class="edge">
<title>vector_store&#45;&gt;weaviate</title>
<path fill="none" stroke="#475569" stroke-dasharray="5,2" d="M894.74,-312.43C894.74,-362.49 894.74,-472 894.74,-472 894.74,-472 1010.5,-472 1010.5,-472"/>
<polygon fill="#475569" stroke="#475569" points="1010.5,-475.5 1020.5,-472 1010.5,-468.5 1010.5,-475.5"/>
</g>
<!-- vector_store&#45;&gt;qdrant -->
<g id="edge11" class="edge">
<title>vector_store&#45;&gt;qdrant</title>
<path fill="none" stroke="#475569" stroke-dasharray="5,2" d="M922.74,-312.3C922.74,-345.24 922.74,-400 922.74,-400 922.74,-400 1014.08,-400 1014.08,-400"/>
<polygon fill="#475569" stroke="#475569" points="1014.08,-403.5 1024.08,-400 1014.08,-396.5 1014.08,-403.5"/>
</g>
<!-- vector_store&#45;&gt;milvus -->
<g id="edge12" class="edge">
<title>vector_store&#45;&gt;milvus</title>
<path fill="none" stroke="#475569" stroke-dasharray="5,2" d="M951.56,-295.03C994.01,-295.03 1052.74,-295.03 1052.74,-295.03 1052.74,-295.03 1052.74,-302 1052.74,-302"/>
<polygon fill="#475569" stroke="#475569" points="1049.24,-302 1052.74,-312 1056.24,-302 1049.24,-302"/>
</g>
<!-- vector_store&#45;&gt;pgvector -->
<g id="edge13" class="edge">
<title>vector_store&#45;&gt;pgvector</title>
<path fill="none" stroke="#475569" stroke-dasharray="5,2" d="M951.6,-270.97C951.6,-270.97 1009.89,-270.97 1009.89,-270.97"/>
<polygon fill="#475569" stroke="#475569" points="1009.89,-274.47 1019.89,-270.97 1009.89,-267.47 1009.89,-274.47"/>
</g>
<!-- vector_store&#45;&gt;chroma -->
<g id="edge14" class="edge">
<title>vector_store&#45;&gt;chroma</title>
<path fill="none" stroke="#475569" stroke-dasharray="5,2" d="M922.74,-263.54C922.74,-233.93 922.74,-188 922.74,-188 922.74,-188 1013.44,-188 1013.44,-188"/>
<polygon fill="#475569" stroke="#475569" points="1013.44,-191.5 1023.44,-188 1013.44,-184.5 1013.44,-191.5"/>
</g>
<!-- retrieval -->
<g id="node19" class="node">
<title>retrieval</title>
<path fill="#dbeafe" stroke="#2563eb" d="M1070.25,-134C1070.25,-134 1035.5,-134 1035.5,-134 1029.5,-134 1023.5,-128 1023.5,-122 1023.5,-122 1023.5,-110 1023.5,-110 1023.5,-104 1029.5,-98 1035.5,-98 1035.5,-98 1070.25,-98 1070.25,-98 1076.25,-98 1082.25,-104 1082.25,-110 1082.25,-110 1082.25,-122 1082.25,-122 1082.25,-128 1076.25,-134 1070.25,-134"/>
<text xml:space="preserve" text-anchor="middle" x="1052.88" y="-112.3" font-family="Helvetica,sans-Serif" font-size="11.00">Retrieval</text>
</g>
<!-- vector_store&#45;&gt;retrieval -->
<g id="edge15" class="edge">
<title>vector_store&#45;&gt;retrieval</title>
<path fill="none" stroke="#475569" d="M894.74,-263.72C894.74,-216.31 894.74,-116 894.74,-116 894.74,-116 1011.62,-116 1011.62,-116"/>
<polygon fill="#475569" stroke="#475569" points="1011.62,-119.5 1021.62,-116 1011.62,-112.5 1011.62,-119.5"/>
</g>
<!-- single_ds -->
<g id="node20" class="node">
<title>single_ds</title>
<path fill="#ccfbf1" stroke="#0d9488" d="M1258.62,-252C1258.62,-252 1196.12,-252 1196.12,-252 1190.12,-252 1184.12,-246 1184.12,-240 1184.12,-240 1184.12,-228 1184.12,-228 1184.12,-222 1190.12,-216 1196.12,-216 1196.12,-216 1258.62,-216 1258.62,-216 1264.62,-216 1270.62,-222 1270.62,-228 1270.62,-228 1270.62,-240 1270.62,-240 1270.62,-246 1264.62,-252 1258.62,-252"/>
<text xml:space="preserve" text-anchor="middle" x="1227.38" y="-230.3" font-family="Helvetica,sans-Serif" font-size="11.00">Single Dataset</text>
</g>
<!-- retrieval&#45;&gt;single_ds -->
<g id="edge16" class="edge">
<title>retrieval&#45;&gt;single_ds</title>
<path fill="none" stroke="#475569" d="M1082.61,-115.33C1105.32,-115.33 1132.74,-115.33 1132.74,-115.33 1132.74,-115.33 1132.74,-229 1132.74,-229 1132.74,-229 1172.14,-229 1172.14,-229"/>
<polygon fill="#475569" stroke="#475569" points="1172.14,-232.5 1182.14,-229 1172.14,-225.5 1172.14,-232.5"/>
</g>
<!-- multi_ds -->
<g id="node21" class="node">
<title>multi_ds</title>
<path fill="#ccfbf1" stroke="#0d9488" d="M1255.25,-180C1255.25,-180 1199.5,-180 1199.5,-180 1193.5,-180 1187.5,-174 1187.5,-168 1187.5,-168 1187.5,-156 1187.5,-156 1187.5,-150 1193.5,-144 1199.5,-144 1199.5,-144 1255.25,-144 1255.25,-144 1261.25,-144 1267.25,-150 1267.25,-156 1267.25,-156 1267.25,-168 1267.25,-168 1267.25,-174 1261.25,-180 1255.25,-180"/>
<text xml:space="preserve" text-anchor="middle" x="1227.38" y="-158.3" font-family="Helvetica,sans-Serif" font-size="11.00">Multi&#45;Dataset</text>
</g>
<!-- retrieval&#45;&gt;multi_ds -->
<g id="edge17" class="edge">
<title>retrieval&#45;&gt;multi_ds</title>
<path fill="none" stroke="#475569" d="M1052.74,-134.1C1052.74,-145.09 1052.74,-157 1052.74,-157 1052.74,-157 1175.8,-157 1175.8,-157"/>
<polygon fill="#475569" stroke="#475569" points="1175.8,-160.5 1185.8,-157 1175.8,-153.5 1175.8,-160.5"/>
</g>
<!-- fulltext_search -->
<g id="node22" class="node">
<title>fulltext_search</title>
<path fill="#ccfbf1" stroke="#0d9488" d="M1261.25,-108C1261.25,-108 1193.5,-108 1193.5,-108 1187.5,-108 1181.5,-102 1181.5,-96 1181.5,-96 1181.5,-84 1181.5,-84 1181.5,-78 1187.5,-72 1193.5,-72 1193.5,-72 1261.25,-72 1261.25,-72 1267.25,-72 1273.25,-78 1273.25,-84 1273.25,-84 1273.25,-96 1273.25,-96 1273.25,-102 1267.25,-108 1261.25,-108"/>
<text xml:space="preserve" text-anchor="middle" x="1227.38" y="-86.3" font-family="Helvetica,sans-Serif" font-size="11.00">Full&#45;text Search</text>
</g>
<!-- retrieval&#45;&gt;fulltext_search -->
<g id="edge18" class="edge">
<title>retrieval&#45;&gt;fulltext_search</title>
<path fill="none" stroke="#475569" d="M1082.48,-103C1082.48,-103 1169.67,-103 1169.67,-103"/>
<polygon fill="#475569" stroke="#475569" points="1169.67,-106.5 1179.67,-103 1169.67,-99.5 1169.67,-106.5"/>
<text xml:space="preserve" text-anchor="middle" x="1139" y="-100.95" font-family="Helvetica,sans-Serif" font-size="9.00">Hybrid</text>
</g>
<!-- vector_search -->
<g id="node23" class="node">
<title>vector_search</title>
<path fill="#ccfbf1" stroke="#0d9488" d="M1257.5,-36C1257.5,-36 1197.25,-36 1197.25,-36 1191.25,-36 1185.25,-30 1185.25,-24 1185.25,-24 1185.25,-12 1185.25,-12 1185.25,-6 1191.25,0 1197.25,0 1197.25,0 1257.5,0 1257.5,0 1263.5,0 1269.5,-6 1269.5,-12 1269.5,-12 1269.5,-24 1269.5,-24 1269.5,-30 1263.5,-36 1257.5,-36"/>
<text xml:space="preserve" text-anchor="middle" x="1227.38" y="-14.3" font-family="Helvetica,sans-Serif" font-size="11.00">Vector Search</text>
</g>
<!-- retrieval&#45;&gt;vector_search -->
<g id="edge19" class="edge">
<title>retrieval&#45;&gt;vector_search</title>
<path fill="none" stroke="#475569" d="M1052.74,-97.57C1052.74,-69.18 1052.74,-18 1052.74,-18 1052.74,-18 1173.59,-18 1173.59,-18"/>
<polygon fill="#475569" stroke="#475569" points="1173.59,-21.5 1183.59,-18 1173.59,-14.5 1173.59,-21.5"/>
<text xml:space="preserve" text-anchor="middle" x="1139" y="-38.95" font-family="Helvetica,sans-Serif" font-size="9.00">Hybrid</text>
</g>
<!-- reranking -->
<g id="node24" class="node">
<title>reranking</title>
<polygon fill="#fef3c7" stroke="#d97706" points="1389.99,-130 1332.25,-112 1389.99,-94 1447.74,-112 1389.99,-130"/>
<text xml:space="preserve" text-anchor="middle" x="1389.99" y="-108.3" font-family="Helvetica,sans-Serif" font-size="11.00">Reranking</text>
</g>
<!-- single_ds&#45;&gt;reranking -->
<g id="edge20" class="edge">
<title>single_ds&#45;&gt;reranking</title>
<path fill="none" stroke="#475569" d="M1270.89,-234C1318.98,-234 1389.74,-234 1389.74,-234 1389.74,-234 1389.74,-141.78 1389.74,-141.78"/>
<polygon fill="#475569" stroke="#475569" points="1393.24,-141.78 1389.74,-131.78 1386.24,-141.78 1393.24,-141.78"/>
</g>
<!-- multi_ds&#45;&gt;reranking -->
<g id="edge21" class="edge">
<title>multi_ds&#45;&gt;reranking</title>
<path fill="none" stroke="#475569" d="M1227.74,-143.72C1227.74,-133.44 1227.74,-122.67 1227.74,-122.67 1227.74,-122.67 1353.48,-122.67 1353.48,-122.67"/>
<polygon fill="#475569" stroke="#475569" points="1353.48,-126.17 1363.48,-122.67 1353.48,-119.17 1353.48,-126.17"/>
</g>
<!-- fulltext_search&#45;&gt;reranking -->
<g id="edge22" class="edge">
<title>fulltext_search&#45;&gt;reranking</title>
<path fill="none" stroke="#475569" d="M1273.54,-101C1273.54,-101 1354.76,-101 1354.76,-101"/>
<polygon fill="#475569" stroke="#475569" points="1354.76,-104.5 1364.76,-101 1354.76,-97.5 1354.76,-104.5"/>
</g>
<!-- vector_search&#45;&gt;reranking -->
<g id="edge23" class="edge">
<title>vector_search&#45;&gt;reranking</title>
<path fill="none" stroke="#475569" d="M1269.61,-29C1317.72,-29 1389.74,-29 1389.74,-29 1389.74,-29 1389.74,-82.07 1389.74,-82.07"/>
<polygon fill="#475569" stroke="#475569" points="1386.24,-82.07 1389.74,-92.07 1393.24,-82.07 1386.24,-82.07"/>
</g>
<!-- reranking&#45;&gt;model_rerank -->
<g id="edge24" class="edge">
<title>reranking&#45;&gt;model_rerank</title>
<path fill="none" stroke="#475569" d="M1467.74,-112.04C1467.74,-113.89 1467.74,-173 1467.74,-173 1467.74,-173 1498.47,-173 1498.47,-173"/>
<polygon fill="#475569" stroke="#475569" points="1498.47,-176.5 1508.47,-173 1498.47,-169.5 1498.47,-176.5"/>
</g>
<!-- reranking&#45;&gt;weight_rerank -->
<g id="edge25" class="edge">
<title>reranking&#45;&gt;weight_rerank</title>
<path fill="none" stroke="#475569" d="M1449.34,-112C1449.34,-112 1496.36,-112 1496.36,-112"/>
<polygon fill="#475569" stroke="#475569" points="1496.36,-115.5 1506.36,-112 1496.36,-108.5 1496.36,-115.5"/>
</g>
<!-- reranking&#45;&gt;reorder_rerank -->
<g id="edge26" class="edge">
<title>reranking&#45;&gt;reorder_rerank</title>
<path fill="none" stroke="#475569" d="M1487.74,-111.95C1487.74,-109.98 1487.74,-47 1487.74,-47 1487.74,-47 1509.56,-47 1509.56,-47"/>
<polygon fill="#475569" stroke="#475569" points="1509.56,-50.5 1519.56,-47 1509.56,-43.5 1509.56,-50.5"/>
</g>
</g>
</svg>
