<?xml version="1.0" encoding="UTF-8" standalone="no"?>
<!DOCTYPE svg PUBLIC "-//W3C//DTD SVG 1.1//EN"
 "http://www.w3.org/Graphics/SVG/1.1/DTD/svg11.dtd">
<!-- Generated by graphviz version 14.1.2 (0)
 -->
<!-- Title: pipeline Pages: 1 -->
<svg width="606pt" height="828pt"
 viewBox="0.00 0.00 606.00 828.00" xmlns="http://www.w3.org/2000/svg" xmlns:xlink="http://www.w3.org/1999/xlink">
<g id="graph0" class="graph" transform="scale(1 1) rotate(0) translate(36 792)">
<title>pipeline</title>
<text xml:space="preserve" text-anchor="middle" x="266.88" y="-7.55" font-family="Arial Bold" font-size="16.00" fill="#111827">PyShine Screen Recorder — Recording Pipeline</text>
<g id="clust1" class="cluster">
<title>cluster_main</title>
<polygon fill="#e8f5e9" stroke="#d1d5db" stroke-dasharray="5,2" points="8,-452.25 8,-748 140,-748 140,-452.25 8,-452.25"/>
<text xml:space="preserve" text-anchor="middle" x="74" y="-732.6" font-family="Arial Bold" font-size="12.00" fill="#6b7280">Main Thread</text>
</g>
<g id="clust2" class="cluster">
<title>cluster_screen</title>
<polygon fill="#e3f2fd" stroke="#d1d5db" stroke-dasharray="5,2" points="148,-346 148,-526.75 266,-526.75 266,-346 148,-346"/>
<text xml:space="preserve" text-anchor="middle" x="207" y="-511.35" font-family="Arial Bold" font-size="12.00" fill="#6b7280">Screen Thread</text>
</g>
<g id="clust3" class="cluster">
<title>cluster_audio</title>
<polygon fill="#e3f2fd" stroke="#d1d5db" stroke-dasharray="5,2" points="286,-346 286,-526.75 400,-526.75 400,-346 286,-346"/>
<text xml:space="preserve" text-anchor="middle" x="343" y="-511.35" font-family="Arial Bold" font-size="12.00" fill="#6b7280">Audio Thread</text>
</g>
<g id="clust4" class="cluster">
<title>cluster_encoder</title>
<polygon fill="#f3e5f5" stroke="#d1d5db" stroke-dasharray="5,2" points="173,-124.75 173,-305 393,-305 393,-124.75 173,-124.75"/>
<text xml:space="preserve" text-anchor="middle" x="283" y="-289.6" font-family="Arial Bold" font-size="12.00" fill="#6b7280">Encoder Thread</text>
</g>
<!-- srapp -->
<g id="node1" class="node">
<title>srapp</title>
<polygon fill="#4caf50" stroke="black" points="131.5,-717.75 16.5,-717.75 16.5,-681.75 131.5,-681.75 131.5,-717.75"/>
<text xml:space="preserve" text-anchor="middle" x="74" y="-696.05" font-family="Arial" font-size="11.00" fill="white">ScreenRecorderApp</text>
</g>
<!-- start_btn -->
<g id="node2" class="node">
<title>start_btn</title>
<path fill="#4caf50" stroke="black" d="M120,-611.75C120,-611.75 90,-611.75 90,-611.75 84,-611.75 78,-605.75 78,-599.75 78,-599.75 78,-587.75 78,-587.75 78,-581.75 84,-575.75 90,-575.75 90,-575.75 120,-575.75 120,-575.75 126,-575.75 132,-581.75 132,-587.75 132,-587.75 132,-599.75 132,-599.75 132,-605.75 126,-611.75 120,-611.75"/>
<text xml:space="preserve" text-anchor="middle" x="105" y="-590.05" font-family="Arial" font-size="11.00" fill="white">Start</text>
</g>
<!-- srapp&#45;&gt;start_btn -->
<g id="edge1" class="edge">
<title>srapp&#45;&gt;start_btn</title>
<path fill="none" stroke="#2196f3" stroke-width="2" d="M104.75,-681.29C104.75,-681.29 104.75,-625.03 104.75,-625.03"/>
<polygon fill="#2196f3" stroke="#2196f3" stroke-width="2" points="108.25,-625.03 104.75,-615.03 101.25,-625.03 108.25,-625.03"/>
<text xml:space="preserve" text-anchor="middle" x="99.12" y="-643.25" font-family="Arial" font-size="10.00" fill="#2196f3">click</text>
</g>
<!-- stop_btn -->
<g id="node3" class="node">
<title>stop_btn</title>
<polygon fill="#f44336" stroke="black" points="120,-496.25 66,-496.25 66,-460.25 120,-460.25 120,-496.25"/>
<text xml:space="preserve" text-anchor="middle" x="93" y="-474.55" font-family="Arial" font-size="11.00" fill="white">Stop</text>
</g>
<!-- start_btn&#45;&gt;stop_btn -->
<g id="edge2" class="edge">
<title>start_btn&#45;&gt;stop_btn</title>
<path fill="none" stroke="#2196f3" stroke-width="2" d="M99,-575.45C99,-575.45 99,-509.49 99,-509.49"/>
<polygon fill="#2196f3" stroke="#2196f3" stroke-width="2" points="102.5,-509.49 99,-499.49 95.5,-509.49 102.5,-509.49"/>
<text xml:space="preserve" text-anchor="middle" x="108.38" y="-537.25" font-family="Arial" font-size="10.00" fill="#2196f3">then</text>
</g>
<!-- scap -->
<g id="node4" class="node">
<title>scap</title>
<path fill="#2196f3" stroke="black" d="M246.12,-496.5C246.12,-496.5 167.88,-496.5 167.88,-496.5 161.88,-496.5 155.88,-490.5 155.88,-484.5 155.88,-484.5 155.88,-472 155.88,-472 155.88,-466 161.88,-460 167.88,-460 167.88,-460 246.12,-460 246.12,-460 252.12,-460 258.12,-466 258.12,-472 258.12,-472 258.12,-484.5 258.12,-484.5 258.12,-490.5 252.12,-496.5 246.12,-496.5"/>
<text xml:space="preserve" text-anchor="middle" x="207" y="-481.1" font-family="Arial Bold" font-size="12.00" fill="white">ScreenCapture</text>
<text xml:space="preserve" text-anchor="middle" x="207" y="-466.85" font-family="Arial Bold" font-size="12.00" fill="white">(mss)</text>
</g>
<!-- start_btn&#45;&gt;scap -->
<g id="edge3" class="edge">
<title>start_btn&#45;&gt;scap</title>
<path fill="none" stroke="#2196f3" stroke-width="2" d="M129,-575.27C129,-542.77 129,-478.75 129,-478.75 129,-478.75 142.38,-478.75 142.38,-478.75"/>
<polygon fill="#2196f3" stroke="#2196f3" stroke-width="2" points="142.38,-482.25 152.38,-478.75 142.38,-475.25 142.38,-482.25"/>
<text xml:space="preserve" text-anchor="middle" x="195.75" y="-537.25" font-family="Arial" font-size="10.00" fill="#2196f3">start</text>
</g>
<!-- acap -->
<g id="node6" class="node">
<title>acap</title>
<path fill="#2196f3" stroke="black" d="M379.88,-496.5C379.88,-496.5 306.12,-496.5 306.12,-496.5 300.12,-496.5 294.12,-490.5 294.12,-484.5 294.12,-484.5 294.12,-472 294.12,-472 294.12,-466 300.12,-460 306.12,-460 306.12,-460 379.88,-460 379.88,-460 385.88,-460 391.88,-466 391.88,-472 391.88,-472 391.88,-484.5 391.88,-484.5 391.88,-490.5 385.88,-496.5 379.88,-496.5"/>
<text xml:space="preserve" text-anchor="middle" x="343" y="-481.1" font-family="Arial Bold" font-size="12.00" fill="white">AudioCapture</text>
<text xml:space="preserve" text-anchor="middle" x="343" y="-466.85" font-family="Arial Bold" font-size="12.00" fill="white">(sounddevice)</text>
</g>
<!-- start_btn&#45;&gt;acap -->
<g id="edge4" class="edge">
<title>start_btn&#45;&gt;acap</title>
<path fill="none" stroke="#2196f3" stroke-width="2" d="M132.3,-593.75C194.82,-593.75 343,-593.75 343,-593.75 343,-593.75 343,-509.83 343,-509.83"/>
<polygon fill="#2196f3" stroke="#2196f3" stroke-width="2" points="346.5,-509.83 343,-499.83 339.5,-509.83 346.5,-509.83"/>
<text xml:space="preserve" text-anchor="middle" x="304.75" y="-537.25" font-family="Arial" font-size="10.00" fill="#2196f3">start</text>
</g>
<!-- venc -->
<g id="node8" class="node">
<title>venc</title>
<path fill="#9c27b0" stroke="black" d="M253.12,-274.75C253.12,-274.75 192.88,-274.75 192.88,-274.75 186.88,-274.75 180.88,-268.75 180.88,-262.75 180.88,-262.75 180.88,-250.75 180.88,-250.75 180.88,-244.75 186.88,-238.75 192.88,-238.75 192.88,-238.75 253.12,-238.75 253.12,-238.75 259.12,-238.75 265.12,-244.75 265.12,-250.75 265.12,-250.75 265.12,-262.75 265.12,-262.75 265.12,-268.75 259.12,-274.75 253.12,-274.75"/>
<text xml:space="preserve" text-anchor="middle" x="223" y="-253.05" font-family="Arial" font-size="11.00" fill="white">VideoEncoder</text>
</g>
<!-- start_btn&#45;&gt;venc -->
<g id="edge5" class="edge">
<title>start_btn&#45;&gt;venc</title>
<path fill="none" stroke="#2196f3" stroke-width="2" d="M123,-575.63C123,-505.63 123,-256.75 123,-256.75 123,-256.75 167.56,-256.75 167.56,-256.75"/>
<polygon fill="#2196f3" stroke="#2196f3" stroke-width="2" points="167.56,-260.25 177.56,-256.75 167.56,-253.25 167.56,-260.25"/>
<text xml:space="preserve" text-anchor="middle" x="453.38" y="-421.5" font-family="Arial" font-size="10.00" fill="#2196f3">init</text>
</g>
<!-- aenc -->
<g id="node9" class="node">
<title>aenc</title>
<path fill="#9c27b0" stroke="black" d="M373.12,-274.75C373.12,-274.75 312.88,-274.75 312.88,-274.75 306.88,-274.75 300.88,-268.75 300.88,-262.75 300.88,-262.75 300.88,-250.75 300.88,-250.75 300.88,-244.75 306.88,-238.75 312.88,-238.75 312.88,-238.75 373.12,-238.75 373.12,-238.75 379.12,-238.75 385.12,-244.75 385.12,-250.75 385.12,-250.75 385.12,-262.75 385.12,-262.75 385.12,-268.75 379.12,-274.75 373.12,-274.75"/>
<text xml:space="preserve" text-anchor="middle" x="343" y="-259.8" font-family="Arial" font-size="11.00" fill="white">AudioEncoder</text>
<text xml:space="preserve" text-anchor="middle" x="343" y="-246.3" font-family="Arial" font-size="11.00" fill="white">(AAC)</text>
</g>
<!-- start_btn&#45;&gt;aenc -->
<g id="edge6" class="edge">
<title>start_btn&#45;&gt;aenc</title>
<path fill="none" stroke="#2196f3" stroke-width="2" d="M126,-575.34C126,-531.54 126,-424.75 126,-424.75 126,-424.75 304.62,-424.75 304.62,-424.75 304.62,-424.75 304.62,-288.08 304.62,-288.08"/>
<polygon fill="#2196f3" stroke="#2196f3" stroke-width="2" points="308.13,-288.08 304.63,-278.08 301.13,-288.08 308.13,-288.08"/>
<text xml:space="preserve" text-anchor="middle" x="527.38" y="-421.5" font-family="Arial" font-size="10.00" fill="#2196f3">init</text>
</g>
<!-- mux -->
<g id="node10" class="node">
<title>mux</title>
<path fill="#9c27b0" stroke="black" d="M238,-168.75C238,-168.75 208,-168.75 208,-168.75 202,-168.75 196,-162.75 196,-156.75 196,-156.75 196,-144.75 196,-144.75 196,-138.75 202,-132.75 208,-132.75 208,-132.75 238,-132.75 238,-132.75 244,-132.75 250,-138.75 250,-144.75 250,-144.75 250,-156.75 250,-156.75 250,-162.75 244,-168.75 238,-168.75"/>
<text xml:space="preserve" text-anchor="middle" x="223" y="-153.8" font-family="Arial" font-size="11.00" fill="white">Muxer</text>
<text xml:space="preserve" text-anchor="middle" x="223" y="-140.3" font-family="Arial" font-size="11.00" fill="white">(pyav)</text>
</g>
<!-- stop_btn&#45;&gt;mux -->
<g id="edge14" class="edge">
<title>stop_btn&#45;&gt;mux</title>
<path fill="none" stroke="#f44336" stroke-width="1.5" d="M93,-460.18C93,-391.52 93,-150.75 93,-150.75 93,-150.75 183.48,-150.75 183.48,-150.75"/>
<polygon fill="#f44336" stroke="#f44336" stroke-width="1.5" points="183.48,-154.25 193.48,-150.75 183.48,-147.25 183.48,-154.25"/>
<text xml:space="preserve" text-anchor="middle" x="122.38" y="-315.5" font-family="Arial" font-size="10.00" fill="#f44336">finalize</text>
</g>
<!-- fqueue -->
<g id="node5" class="node">
<title>fqueue</title>
<path fill="#ff9800" stroke="black" d="M251.12,-386.73C251.12,-388.53 234.93,-390 215,-390 195.07,-390 178.88,-388.53 178.88,-386.73 178.88,-386.73 178.88,-357.27 178.88,-357.27 178.88,-355.47 195.07,-354 215,-354 234.93,-354 251.12,-355.47 251.12,-357.27 251.12,-357.27 251.12,-386.73 251.12,-386.73"/>
<path fill="none" stroke="black" d="M251.12,-386.73C251.12,-384.92 234.93,-383.45 215,-383.45 195.07,-383.45 178.88,-384.92 178.88,-386.73"/>
<text xml:space="preserve" text-anchor="middle" x="215" y="-368.5" font-family="Arial" font-size="10.00" fill="white">FrameQueue</text>
</g>
<!-- scap&#45;&gt;fqueue -->
<g id="edge7" class="edge">
<title>scap&#45;&gt;fqueue</title>
<path fill="none" stroke="#4caf50" stroke-width="2" d="M215,-459.74C215,-459.74 215,-403.32 215,-403.32"/>
<polygon fill="#4caf50" stroke="#4caf50" stroke-width="2" points="218.5,-403.32 215,-393.32 211.5,-403.32 218.5,-403.32"/>
<text xml:space="preserve" text-anchor="middle" x="226" y="-421.5" font-family="Arial" font-size="10.00" fill="#4caf50">frames</text>
</g>
<!-- fqueue&#45;&gt;venc -->
<g id="edge9" class="edge">
<title>fqueue&#45;&gt;venc</title>
<path fill="none" stroke="#9c27b0" stroke-width="1.5" stroke-dasharray="5,2" d="M216,-353.74C216,-353.74 216,-287.2 216,-287.2"/>
<polygon fill="#9c27b0" stroke="#9c27b0" stroke-width="1.5" points="219.5,-287.2 216,-277.2 212.5,-287.2 219.5,-287.2"/>
<text xml:space="preserve" text-anchor="middle" x="237.38" y="-315.5" font-family="Arial" font-size="10.00" fill="#9c27b0">dequeue</text>
</g>
<!-- aqueue -->
<g id="node7" class="node">
<title>aqueue</title>
<path fill="#ff9800" stroke="black" d="M377.62,-386.73C377.62,-388.53 362.11,-390 343,-390 323.89,-390 308.38,-388.53 308.38,-386.73 308.38,-386.73 308.38,-357.27 308.38,-357.27 308.38,-355.47 323.89,-354 343,-354 362.11,-354 377.62,-355.47 377.62,-357.27 377.62,-357.27 377.62,-386.73 377.62,-386.73"/>
<path fill="none" stroke="black" d="M377.62,-386.73C377.62,-384.92 362.11,-383.45 343,-383.45 323.89,-383.45 308.38,-384.92 308.38,-386.73"/>
<text xml:space="preserve" text-anchor="middle" x="343" y="-368.5" font-family="Arial" font-size="10.00" fill="white">AudioQueue</text>
</g>
<!-- acap&#45;&gt;aqueue -->
<g id="edge8" class="edge">
<title>acap&#45;&gt;aqueue</title>
<path fill="none" stroke="#4caf50" stroke-width="2" d="M343,-459.74C343,-459.74 343,-403.32 343,-403.32"/>
<polygon fill="#4caf50" stroke="#4caf50" stroke-width="2" points="346.5,-403.32 343,-393.32 339.5,-403.32 346.5,-403.32"/>
<text xml:space="preserve" text-anchor="middle" x="354.62" y="-421.5" font-family="Arial" font-size="10.00" fill="#4caf50">audio</text>
</g>
<!-- aqueue&#45;&gt;aenc -->
<g id="edge10" class="edge">
<title>aqueue&#45;&gt;aenc</title>
<path fill="none" stroke="#9c27b0" stroke-width="1.5" stroke-dasharray="5,2" d="M343,-353.74C343,-353.74 343,-287.2 343,-287.2"/>
<polygon fill="#9c27b0" stroke="#9c27b0" stroke-width="1.5" points="346.5,-287.2 343,-277.2 339.5,-287.2 346.5,-287.2"/>
<text xml:space="preserve" text-anchor="middle" x="361.38" y="-315.5" font-family="Arial" font-size="10.00" fill="#9c27b0">dequeue</text>
</g>
<!-- venc&#45;&gt;mux -->
<g id="edge11" class="edge">
<title>venc&#45;&gt;mux</title>
<path fill="none" stroke="#4caf50" stroke-width="2" d="M223,-238.29C223,-238.29 223,-182.03 223,-182.03"/>
<polygon fill="#4caf50" stroke="#4caf50" stroke-width="2" points="226.5,-182.03 223,-172.03 219.5,-182.03 226.5,-182.03"/>
<text xml:space="preserve" text-anchor="middle" x="234.62" y="-200.25" font-family="Arial" font-size="10.00" fill="#4caf50">video</text>
</g>
<!-- aenc&#45;&gt;mux -->
<g id="edge12" class="edge">
<title>aenc&#45;&gt;mux</title>
<path fill="none" stroke="#4caf50" stroke-width="2" d="M343,-238.29C343,-207.92 343,-150.75 343,-150.75 343,-150.75 263.26,-150.75 263.26,-150.75"/>
<polygon fill="#4caf50" stroke="#4caf50" stroke-width="2" points="263.26,-147.25 253.26,-150.75 263.26,-154.25 263.26,-147.25"/>
<text xml:space="preserve" text-anchor="middle" x="326.62" y="-200.25" font-family="Arial" font-size="10.00" fill="#4caf50">audio</text>
</g>
<!-- outfile -->
<g id="node11" class="node">
<title>outfile</title>
<polygon fill="#f44336" stroke="black" points="255.75,-62.75 190.25,-62.75 190.25,-26.75 255.75,-26.75 255.75,-62.75"/>
<text xml:space="preserve" text-anchor="middle" x="223" y="-41.05" font-family="Arial" font-size="11.00" fill="white">OutputFile</text>
</g>
<!-- mux&#45;&gt;outfile -->
<g id="edge13" class="edge">
<title>mux&#45;&gt;outfile</title>
<path fill="none" stroke="#4caf50" stroke-width="2" d="M223,-132.29C223,-132.29 223,-76.03 223,-76.03"/>
<polygon fill="#4caf50" stroke="#4caf50" stroke-width="2" points="226.5,-76.03 223,-66.03 219.5,-76.03 226.5,-76.03"/>
<text xml:space="preserve" text-anchor="middle" x="233.5" y="-94.25" font-family="Arial" font-size="10.00" fill="#4caf50">write</text>
</g>
</g>
</svg>
