<?xml version="1.0" encoding="UTF-8" standalone="no"?>
<!DOCTYPE svg PUBLIC "-//W3C//DTD SVG 1.1//EN"
 "http://www.w3.org/Graphics/SVG/1.1/DTD/svg11.dtd">
<!-- Generated by graphviz version 14.1.4 (20260321.0153)
 -->
<!-- Title: G Pages: 1 -->
<svg width="2019pt" height="1001pt"
 viewBox="0.00 0.00 2019.00 1001.00" xmlns="http://www.w3.org/2000/svg" xmlns:xlink="http://www.w3.org/1999/xlink">
<style>
text {
  paint-order: stroke fill;
  stroke: 0d1b2a00;
  stroke-width: 3px;
  stroke-linecap: round;
  stroke-linejoin: round;
}
</style>
<g id="graph0" class="graph" transform="scale(2.08333 2.08333) rotate(0) translate(36 444.27)">
<title>G</title>
<polygon fill="#0d1b2a" stroke="none" points="-36,36 -36,-444.27 933,-444.27 933,36 -36,36"/>
<g id="clust1" class="cluster">
<title>cluster_left</title>
<polygon fill="#0d1b2a" stroke="#0d1b2a" points="8,-328.27 8,-400.27 276,-400.27 276,-328.27 8,-328.27"/>
<text xml:space="preserve" text-anchor="middle" x="142" y="-386.77" font-family="Helvetica,sans-Serif" font-size="10.00" fill="#e0fbfc">Primary Integrations</text>
</g>
<g id="clust2" class="cluster">
<title>cluster_right</title>
<polygon fill="#0d1b2a" stroke="#0d1b2a" points="290,-328.27 290,-400.27 584,-400.27 584,-328.27 290,-328.27"/>
<text xml:space="preserve" text-anchor="middle" x="437" y="-386.77" font-family="Helvetica,sans-Serif" font-size="10.00" fill="#e0fbfc">Additional Integrations</text>
</g>
<g id="clust3" class="cluster">
<title>cluster_more</title>
<polygon fill="#0d1b2a" stroke="#0d1b2a" points="597,-328.27 597,-400.27 889,-400.27 889,-328.27 597,-328.27"/>
<text xml:space="preserve" text-anchor="middle" x="743" y="-386.77" font-family="Helvetica,sans-Serif" font-size="10.00" fill="#e0fbfc">More Integrations</text>
</g>
<!-- mcp_server -->
<g id="node1" class="node">
<title>mcp_server</title>
<path fill="#00b4d8" stroke="black" d="M490,-282.52C490,-282.52 334,-282.52 334,-282.52 328,-282.52 322,-276.52 322,-270.52 322,-270.52 322,-208.12 322,-208.12 322,-202.12 328,-196.12 334,-196.12 334,-196.12 490,-196.12 490,-196.12 496,-196.12 502,-202.12 502,-208.12 502,-208.12 502,-270.52 502,-270.52 502,-276.52 496,-282.52 490,-282.52"/>
<text xml:space="preserve" text-anchor="middle" x="412" y="-241.77" font-family="Helvetica,sans-Serif" font-size="14.00" fill="#ffffff">Claude Context</text>
<text xml:space="preserve" text-anchor="middle" x="412" y="-226.02" font-family="Helvetica,sans-Serif" font-size="14.00" fill="#ffffff">MCP Server</text>
</g>
<!-- core_engine -->
<g id="node11" class="node">
<title>core_engine</title>
<path fill="#7b2cbf" stroke="black" d="M490,-140.12C490,-140.12 334,-140.12 334,-140.12 328,-140.12 322,-134.12 322,-128.12 322,-128.12 322,-116.12 322,-116.12 322,-110.12 328,-104.12 334,-104.12 334,-104.12 490,-104.12 490,-104.12 496,-104.12 502,-110.12 502,-116.12 502,-116.12 502,-128.12 502,-128.12 502,-134.12 496,-140.12 490,-140.12"/>
<text xml:space="preserve" text-anchor="middle" x="412" y="-125.17" font-family="Helvetica,sans-Serif" font-size="11.00" fill="#ffffff">Core Engine</text>
<text xml:space="preserve" text-anchor="middle" x="412" y="-111.67" font-family="Helvetica,sans-Serif" font-size="11.00" fill="#ffffff">(AST Chunking + Indexing)</text>
</g>
<!-- mcp_server&#45;&gt;core_engine -->
<g id="edge10" class="edge">
<title>mcp_server&#45;&gt;core_engine</title>
<path fill="none" stroke="#e0fbfc" d="M412,-195.76C412,-181.13 412,-165.12 412,-151.86"/>
<polygon fill="#e0fbfc" stroke="#e0fbfc" points="415.5,-152.09 412,-142.09 408.5,-152.09 415.5,-152.09"/>
<text xml:space="preserve" text-anchor="middle" x="422.5" y="-164.62" font-family="Helvetica,sans-Serif" font-size="10.00" fill="#e0fbfc">uses</text>
</g>
<!-- claude_code -->
<g id="node2" class="node">
<title>claude_code</title>
<path fill="#0077b6" stroke="black" d="M83.88,-372.27C83.88,-372.27 28.12,-372.27 28.12,-372.27 22.12,-372.27 16.12,-366.27 16.12,-360.27 16.12,-360.27 16.12,-348.27 16.12,-348.27 16.12,-342.27 22.12,-336.27 28.12,-336.27 28.12,-336.27 83.88,-336.27 83.88,-336.27 89.88,-336.27 95.88,-342.27 95.88,-348.27 95.88,-348.27 95.88,-360.27 95.88,-360.27 95.88,-366.27 89.88,-372.27 83.88,-372.27"/>
<text xml:space="preserve" text-anchor="middle" x="56" y="-350.57" font-family="Helvetica,sans-Serif" font-size="11.00" fill="#ffffff">Claude Code</text>
</g>
<!-- claude_code&#45;&gt;mcp_server -->
<g id="edge1" class="edge">
<title>claude_code&#45;&gt;mcp_server</title>
<path fill="none" stroke="#8d99ae" stroke-dasharray="5,2" d="M92.38,-335.86C98.53,-333.17 104.9,-330.54 111,-328.27 176.47,-303.97 251.89,-281.94 310.87,-266.01"/>
<polygon fill="#8d99ae" stroke="#8d99ae" points="311.47,-269.47 320.22,-263.5 309.65,-262.71 311.47,-269.47"/>
<text xml:space="preserve" text-anchor="middle" x="184.15" y="-306.67" font-family="Helvetica,sans-Serif" font-size="8.00" fill="#e0fbfc">stdio</text>
</g>
<!-- windsurf -->
<g id="node3" class="node">
<title>windsurf</title>
<path fill="#2ec4b6" stroke="black" d="M344.38,-372.27C344.38,-372.27 309.62,-372.27 309.62,-372.27 303.62,-372.27 297.62,-366.27 297.62,-360.27 297.62,-360.27 297.62,-348.27 297.62,-348.27 297.62,-342.27 303.62,-336.27 309.62,-336.27 309.62,-336.27 344.38,-336.27 344.38,-336.27 350.38,-336.27 356.38,-342.27 356.38,-348.27 356.38,-348.27 356.38,-360.27 356.38,-360.27 356.38,-366.27 350.38,-372.27 344.38,-372.27"/>
<text xml:space="preserve" text-anchor="middle" x="327" y="-350.57" font-family="Helvetica,sans-Serif" font-size="11.00" fill="#0d1b2a">Windsurf</text>
</g>
<!-- windsurf&#45;&gt;mcp_server -->
<g id="edge4" class="edge">
<title>windsurf&#45;&gt;mcp_server</title>
<path fill="none" stroke="#8d99ae" stroke-dasharray="5,2" d="M339.91,-336.12C348.92,-324.14 361.46,-307.48 373.55,-291.41"/>
<polygon fill="#8d99ae" stroke="#8d99ae" points="376.08,-293.88 379.29,-283.79 370.48,-289.67 376.08,-293.88"/>
<text xml:space="preserve" text-anchor="middle" x="370.14" y="-306.67" font-family="Helvetica,sans-Serif" font-size="8.00" fill="#e0fbfc">stdio</text>
</g>
<!-- gemini -->
<g id="node4" class="node">
<title>gemini</title>
<path fill="#ff9f1c" stroke="black" d="M663,-372.27C663,-372.27 617,-372.27 617,-372.27 611,-372.27 605,-366.27 605,-360.27 605,-360.27 605,-348.27 605,-348.27 605,-342.27 611,-336.27 617,-336.27 617,-336.27 663,-336.27 663,-336.27 669,-336.27 675,-342.27 675,-348.27 675,-348.27 675,-360.27 675,-360.27 675,-366.27 669,-372.27 663,-372.27"/>
<text xml:space="preserve" text-anchor="middle" x="640" y="-350.57" font-family="Helvetica,sans-Serif" font-size="11.00" fill="#0d1b2a">Gemini CLI</text>
</g>
<!-- gemini&#45;&gt;mcp_server -->
<g id="edge7" class="edge">
<title>gemini&#45;&gt;mcp_server</title>
<path fill="none" stroke="#8d99ae" stroke-dasharray="5,2" d="M606.03,-335.86C601,-333.3 595.87,-330.71 591,-328.27 564.64,-315.08 536.03,-300.93 509.56,-287.93"/>
<polygon fill="#8d99ae" stroke="#8d99ae" points="511.41,-284.94 500.89,-283.67 508.33,-291.22 511.41,-284.94"/>
<text xml:space="preserve" text-anchor="middle" x="570.04" y="-306.67" font-family="Helvetica,sans-Serif" font-size="8.00" fill="#e0fbfc">stdio</text>
</g>
<!-- cursor -->
<g id="node5" class="node">
<title>cursor</title>
<path fill="#0077b6" stroke="black" d="M167,-372.27C167,-372.27 137,-372.27 137,-372.27 131,-372.27 125,-366.27 125,-360.27 125,-360.27 125,-348.27 125,-348.27 125,-342.27 131,-336.27 137,-336.27 137,-336.27 167,-336.27 167,-336.27 173,-336.27 179,-342.27 179,-348.27 179,-348.27 179,-360.27 179,-360.27 179,-366.27 173,-372.27 167,-372.27"/>
<text xml:space="preserve" text-anchor="middle" x="152" y="-350.57" font-family="Helvetica,sans-Serif" font-size="11.00" fill="#ffffff">Cursor</text>
</g>
<!-- cursor&#45;&gt;mcp_server -->
<g id="edge2" class="edge">
<title>cursor&#45;&gt;mcp_server</title>
<path fill="none" stroke="#8d99ae" stroke-dasharray="5,2" d="M178.99,-335.95C183.59,-333.25 188.38,-330.59 193,-328.27 230.66,-309.39 273.41,-291.49 311.07,-276.82"/>
<polygon fill="#8d99ae" stroke="#8d99ae" points="312.07,-280.19 320.14,-273.32 309.55,-273.66 312.07,-280.19"/>
<text xml:space="preserve" text-anchor="middle" x="248.03" y="-306.67" font-family="Helvetica,sans-Serif" font-size="8.00" fill="#e0fbfc">stdio</text>
</g>
<!-- cline -->
<g id="node6" class="node">
<title>cline</title>
<path fill="#2ec4b6" stroke="black" d="M427,-372.27C427,-372.27 397,-372.27 397,-372.27 391,-372.27 385,-366.27 385,-360.27 385,-360.27 385,-348.27 385,-348.27 385,-342.27 391,-336.27 397,-336.27 397,-336.27 427,-336.27 427,-336.27 433,-336.27 439,-342.27 439,-348.27 439,-348.27 439,-360.27 439,-360.27 439,-366.27 433,-372.27 427,-372.27"/>
<text xml:space="preserve" text-anchor="middle" x="412" y="-350.57" font-family="Helvetica,sans-Serif" font-size="11.00" fill="#0d1b2a">Cline</text>
</g>
<!-- cline&#45;&gt;mcp_server -->
<g id="edge5" class="edge">
<title>cline&#45;&gt;mcp_server</title>
<path fill="none" stroke="#8d99ae" stroke-dasharray="5,2" d="M412,-336.12C412,-324.7 412,-309.02 412,-293.65"/>
<polygon fill="#8d99ae" stroke="#8d99ae" points="415.5,-294.09 412,-284.09 408.5,-294.09 415.5,-294.09"/>
<text xml:space="preserve" text-anchor="middle" x="420.25" y="-306.67" font-family="Helvetica,sans-Serif" font-size="8.00" fill="#e0fbfc">stdio</text>
</g>
<!-- roo -->
<g id="node7" class="node">
<title>roo</title>
<path fill="#ff9f1c" stroke="black" d="M757.75,-372.27C757.75,-372.27 716.25,-372.27 716.25,-372.27 710.25,-372.27 704.25,-366.27 704.25,-360.27 704.25,-360.27 704.25,-348.27 704.25,-348.27 704.25,-342.27 710.25,-336.27 716.25,-336.27 716.25,-336.27 757.75,-336.27 757.75,-336.27 763.75,-336.27 769.75,-342.27 769.75,-348.27 769.75,-348.27 769.75,-360.27 769.75,-360.27 769.75,-366.27 763.75,-372.27 757.75,-372.27"/>
<text xml:space="preserve" text-anchor="middle" x="737" y="-350.57" font-family="Helvetica,sans-Serif" font-size="11.00" fill="#0d1b2a">Roo Code</text>
</g>
<!-- roo&#45;&gt;mcp_server -->
<g id="edge8" class="edge">
<title>roo&#45;&gt;mcp_server</title>
<path fill="none" stroke="#8d99ae" stroke-dasharray="5,2" d="M706.04,-335.79C700.76,-333.1 695.28,-330.49 690,-328.27 632.8,-304.25 566.65,-283.07 513.24,-267.52"/>
<polygon fill="#8d99ae" stroke="#8d99ae" points="514.42,-264.22 503.84,-264.81 512.47,-270.94 514.42,-264.22"/>
<text xml:space="preserve" text-anchor="middle" x="661.43" y="-306.67" font-family="Helvetica,sans-Serif" font-size="8.00" fill="#e0fbfc">stdio</text>
</g>
<!-- vscode -->
<g id="node8" class="node">
<title>vscode</title>
<path fill="#0077b6" stroke="black" d="M256.12,-372.27C256.12,-372.27 219.88,-372.27 219.88,-372.27 213.88,-372.27 207.88,-366.27 207.88,-360.27 207.88,-360.27 207.88,-348.27 207.88,-348.27 207.88,-342.27 213.88,-336.27 219.88,-336.27 219.88,-336.27 256.12,-336.27 256.12,-336.27 262.12,-336.27 268.12,-342.27 268.12,-348.27 268.12,-348.27 268.12,-360.27 268.12,-360.27 268.12,-366.27 262.12,-372.27 256.12,-372.27"/>
<text xml:space="preserve" text-anchor="middle" x="238" y="-350.57" font-family="Helvetica,sans-Serif" font-size="11.00" fill="#ffffff">VS Code</text>
</g>
<!-- vscode&#45;&gt;mcp_server -->
<g id="edge3" class="edge">
<title>vscode&#45;&gt;mcp_server</title>
<path fill="none" stroke="#8d99ae" stroke-dasharray="5,2" d="M264.81,-335.87C284.16,-323.31 311.32,-305.68 337.04,-288.98"/>
<polygon fill="#8d99ae" stroke="#8d99ae" points="338.69,-292.09 345.17,-283.71 334.88,-286.22 338.69,-292.09"/>
<text xml:space="preserve" text-anchor="middle" x="317.67" y="-306.67" font-family="Helvetica,sans-Serif" font-size="8.00" fill="#e0fbfc">stdio</text>
</g>
<!-- codex -->
<g id="node9" class="node">
<title>codex</title>
<path fill="#2ec4b6" stroke="black" d="M563.75,-372.27C563.75,-372.27 480.25,-372.27 480.25,-372.27 474.25,-372.27 468.25,-366.27 468.25,-360.27 468.25,-360.27 468.25,-348.27 468.25,-348.27 468.25,-342.27 474.25,-336.27 480.25,-336.27 480.25,-336.27 563.75,-336.27 563.75,-336.27 569.75,-336.27 575.75,-342.27 575.75,-348.27 575.75,-348.27 575.75,-360.27 575.75,-360.27 575.75,-366.27 569.75,-372.27 563.75,-372.27"/>
<text xml:space="preserve" text-anchor="middle" x="522" y="-350.57" font-family="Helvetica,sans-Serif" font-size="11.00" fill="#0d1b2a">OpenAI Codex CLI</text>
</g>
<!-- codex&#45;&gt;mcp_server -->
<g id="edge6" class="edge">
<title>codex&#45;&gt;mcp_server</title>
<path fill="none" stroke="#8d99ae" stroke-dasharray="5,2" d="M505.29,-336.12C493.41,-323.92 476.8,-306.87 460.88,-290.52"/>
<polygon fill="#8d99ae" stroke="#8d99ae" points="463.69,-288.38 454.2,-283.66 458.67,-293.27 463.69,-288.38"/>
<text xml:space="preserve" text-anchor="middle" x="491.53" y="-306.67" font-family="Helvetica,sans-Serif" font-size="8.00" fill="#e0fbfc">stdio</text>
</g>
<!-- cherry -->
<g id="node10" class="node">
<title>cherry</title>
<path fill="#ff9f1c" stroke="black" d="M869.38,-372.27C869.38,-372.27 810.62,-372.27 810.62,-372.27 804.62,-372.27 798.62,-366.27 798.62,-360.27 798.62,-360.27 798.62,-348.27 798.62,-348.27 798.62,-342.27 804.62,-336.27 810.62,-336.27 810.62,-336.27 869.38,-336.27 869.38,-336.27 875.38,-336.27 881.38,-342.27 881.38,-348.27 881.38,-348.27 881.38,-360.27 881.38,-360.27 881.38,-366.27 875.38,-372.27 869.38,-372.27"/>
<text xml:space="preserve" text-anchor="middle" x="840" y="-350.57" font-family="Helvetica,sans-Serif" font-size="11.00" fill="#0d1b2a">Cherry Studio</text>
</g>
<!-- cherry&#45;&gt;mcp_server -->
<g id="edge9" class="edge">
<title>cherry&#45;&gt;mcp_server</title>
<path fill="none" stroke="#8d99ae" stroke-dasharray="5,2" d="M803.64,-335.86C797.18,-333.11 790.46,-330.46 784,-328.27 694.27,-297.94 588.96,-274.09 513.33,-258.93"/>
<polygon fill="#8d99ae" stroke="#8d99ae" points="514.37,-255.56 503.88,-257.05 513.01,-262.43 514.37,-255.56"/>
<text xml:space="preserve" text-anchor="middle" x="742.73" y="-306.67" font-family="Helvetica,sans-Serif" font-size="8.00" fill="#e0fbfc">stdio</text>
</g>
<!-- zilliz -->
<g id="node12" class="node">
<title>zilliz</title>
<path fill="#ff6b6b" stroke="black" d="M446.25,-43.75C446.25,-46.16 430.9,-48.12 412,-48.12 393.1,-48.12 377.75,-46.16 377.75,-43.75 377.75,-43.75 377.75,-4.38 377.75,-4.38 377.75,-1.96 393.1,0 412,0 430.9,0 446.25,-1.96 446.25,-4.38 446.25,-4.38 446.25,-43.75 446.25,-43.75"/>
<path fill="none" stroke="black" d="M446.25,-43.75C446.25,-41.34 430.9,-39.38 412,-39.38 393.1,-39.38 377.75,-41.34 377.75,-43.75"/>
<text xml:space="preserve" text-anchor="middle" x="412" y="-27.11" font-family="Helvetica,sans-Serif" font-size="11.00" fill="#ffffff">Zilliz Cloud</text>
<text xml:space="preserve" text-anchor="middle" x="412" y="-13.61" font-family="Helvetica,sans-Serif" font-size="11.00" fill="#ffffff">/ Milvus</text>
</g>
<!-- core_engine&#45;&gt;zilliz -->
<g id="edge11" class="edge">
<title>core_engine&#45;&gt;zilliz</title>
<path fill="none" stroke="#e0fbfc" d="M412,-103.95C412,-91.77 412,-75 412,-60.06"/>
<polygon fill="#e0fbfc" stroke="#e0fbfc" points="415.5,-60.1 412,-50.1 408.5,-60.1 415.5,-60.1"/>
<text xml:space="preserve" text-anchor="middle" x="428.12" y="-72.62" font-family="Helvetica,sans-Serif" font-size="10.00" fill="#e0fbfc">vectors</text>
</g>
</g>
</svg>
