<svg xmlns="http://www.w3.org/2000/svg" viewBox="0 0 860 460" width="860" height="460" font-family="-apple-system, 'Segoe UI', Inter, sans-serif">
<style>
  .title { font-size: 20px; font-weight: 700; fill: #0f172a; }
  .band-label { font-size: 13px; font-weight: 700; fill: #1e40af; letter-spacing:0.3px; }
  .node-title { font-size: 14px; font-weight: 700; fill: #0f172a; }
  .node-title-w { font-size: 14px; font-weight: 700; fill: #ffffff; }
  .item { font-size: 12px; font-weight: 400; fill: #0f172a; }
  .item-sub { font-size: 11px; font-weight: 400; fill: #475569; }
  .stage { font-size: 15px; font-weight: 700; fill: #ffffff; }
  .stage-sub { font-size: 11px; font-weight: 400; fill: #e0e7ff; }
  .note { font-size: 12px; font-weight: 400; fill: #1e40af; }
</style>
<defs>
  <marker id="arrow" markerWidth="10" markerHeight="10" refX="8" refY="5" markerUnits="strokeWidth" orient="auto">
    <path d="M0,1 L8,5 L0,9 z" fill="#475569"/>
  </marker>
  <marker id="arrow-accent" markerWidth="10" markerHeight="10" refX="8" refY="5" markerUnits="strokeWidth" orient="auto">
    <path d="M0,1 L8,5 L0,9 z" fill="#2563eb"/>
  </marker>
</defs>
<rect width="860" height="460" fill="#ffffff"/>
<text x="300" y="38" text-anchor="middle" class="title">OSI 7 Layers + TCP/IP Mapping</text>
<rect x="40" y="66" width="780" height="42" rx="12" fill="#f8fafc" stroke="#e2e8f0" stroke-width="1"/>
<rect x="54" y="71" width="170" height="32" rx="8" fill="#1e40af"/>
<text x="139" y="92" text-anchor="middle" class="node-title-w">7  Application</text>
<rect x="240" y="71" width="250" height="32" rx="8" fill="#ffffff" stroke="#cbd5e1" stroke-width="1"/>
<text x="365" y="92" text-anchor="middle" class="item">HTTP, DNS, SMTP, FTP</text>
<rect x="500" y="71" width="160" height="32" rx="8" fill="#ffffff" stroke="#cbd5e1" stroke-width="1"/>
<text x="580" y="92" text-anchor="middle" class="item">Application</text>
<rect x="668" y="71" width="140" height="32" rx="8" fill="#ffffff" stroke="#cbd5e1" stroke-width="1"/>
<text x="738" y="92" text-anchor="middle" class="item-sub">user-facing protocols</text>
<rect x="40" y="116" width="780" height="42" rx="12" fill="#f8fafc" stroke="#e2e8f0" stroke-width="1"/>
<rect x="54" y="121" width="170" height="32" rx="8" fill="#2563eb"/>
<text x="139" y="142" text-anchor="middle" class="node-title-w">6  Presentation</text>
<rect x="240" y="121" width="250" height="32" rx="8" fill="#ffffff" stroke="#cbd5e1" stroke-width="1"/>
<text x="365" y="142" text-anchor="middle" class="item">TLS, encoding, compression</text>
<rect x="500" y="121" width="160" height="32" rx="8" fill="#ffffff" stroke="#cbd5e1" stroke-width="1"/>
<text x="580" y="142" text-anchor="middle" class="item">Application</text>
<rect x="668" y="121" width="140" height="32" rx="8" fill="#ffffff" stroke="#cbd5e1" stroke-width="1"/>
<text x="738" y="142" text-anchor="middle" class="item-sub">(merged in TCP/IP)</text>
<rect x="40" y="166" width="780" height="42" rx="12" fill="#f8fafc" stroke="#e2e8f0" stroke-width="1"/>
<rect x="54" y="171" width="170" height="32" rx="8" fill="#1e40af"/>
<text x="139" y="192" text-anchor="middle" class="node-title-w">5  Session</text>
<rect x="240" y="171" width="250" height="32" rx="8" fill="#ffffff" stroke="#cbd5e1" stroke-width="1"/>
<text x="365" y="192" text-anchor="middle" class="item">sockets, RPC sessions</text>
<rect x="500" y="171" width="160" height="32" rx="8" fill="#ffffff" stroke="#cbd5e1" stroke-width="1"/>
<text x="580" y="192" text-anchor="middle" class="item">Application</text>
<rect x="668" y="171" width="140" height="32" rx="8" fill="#ffffff" stroke="#cbd5e1" stroke-width="1"/>
<text x="738" y="192" text-anchor="middle" class="item-sub">(merged in TCP/IP)</text>
<rect x="40" y="216" width="780" height="42" rx="12" fill="#f8fafc" stroke="#e2e8f0" stroke-width="1"/>
<rect x="54" y="221" width="170" height="32" rx="8" fill="#2563eb"/>
<text x="139" y="242" text-anchor="middle" class="node-title-w">4  Transport</text>
<rect x="240" y="221" width="250" height="32" rx="8" fill="#ffffff" stroke="#cbd5e1" stroke-width="1"/>
<text x="365" y="242" text-anchor="middle" class="item">TCP, UDP</text>
<rect x="500" y="221" width="160" height="32" rx="8" fill="#ffffff" stroke="#cbd5e1" stroke-width="1"/>
<text x="580" y="242" text-anchor="middle" class="item">Transport</text>
<rect x="668" y="221" width="140" height="32" rx="8" fill="#ffffff" stroke="#cbd5e1" stroke-width="1"/>
<text x="738" y="242" text-anchor="middle" class="item-sub">ports, reliability</text>
<rect x="40" y="266" width="780" height="42" rx="12" fill="#f8fafc" stroke="#e2e8f0" stroke-width="1"/>
<rect x="54" y="271" width="170" height="32" rx="8" fill="#1e40af"/>
<text x="139" y="292" text-anchor="middle" class="node-title-w">3  Network</text>
<rect x="240" y="271" width="250" height="32" rx="8" fill="#ffffff" stroke="#cbd5e1" stroke-width="1"/>
<text x="365" y="292" text-anchor="middle" class="item">IP, ICMP, routing</text>
<rect x="500" y="271" width="160" height="32" rx="8" fill="#ffffff" stroke="#cbd5e1" stroke-width="1"/>
<text x="580" y="292" text-anchor="middle" class="item">Internet</text>
<rect x="668" y="271" width="140" height="32" rx="8" fill="#ffffff" stroke="#cbd5e1" stroke-width="1"/>
<text x="738" y="292" text-anchor="middle" class="item-sub">addressing, routing</text>
<rect x="40" y="316" width="780" height="42" rx="12" fill="#f8fafc" stroke="#e2e8f0" stroke-width="1"/>
<rect x="54" y="321" width="170" height="32" rx="8" fill="#2563eb"/>
<text x="139" y="342" text-anchor="middle" class="node-title-w">2  Data link</text>
<rect x="240" y="321" width="250" height="32" rx="8" fill="#ffffff" stroke="#cbd5e1" stroke-width="1"/>
<text x="365" y="342" text-anchor="middle" class="item">Ethernet, MAC, switches</text>
<rect x="500" y="321" width="160" height="32" rx="8" fill="#ffffff" stroke="#cbd5e1" stroke-width="1"/>
<text x="580" y="342" text-anchor="middle" class="item">Network access</text>
<rect x="668" y="321" width="140" height="32" rx="8" fill="#ffffff" stroke="#cbd5e1" stroke-width="1"/>
<text x="738" y="342" text-anchor="middle" class="item-sub">framing, local delivery</text>
<rect x="40" y="366" width="780" height="42" rx="12" fill="#f8fafc" stroke="#e2e8f0" stroke-width="1"/>
<rect x="54" y="371" width="170" height="32" rx="8" fill="#1e40af"/>
<text x="139" y="392" text-anchor="middle" class="node-title-w">1  Physical</text>
<rect x="240" y="371" width="250" height="32" rx="8" fill="#ffffff" stroke="#cbd5e1" stroke-width="1"/>
<text x="365" y="392" text-anchor="middle" class="item">cables, radio, bits</text>
<rect x="500" y="371" width="160" height="32" rx="8" fill="#ffffff" stroke="#cbd5e1" stroke-width="1"/>
<text x="580" y="392" text-anchor="middle" class="item">Network access</text>
<rect x="668" y="371" width="140" height="32" rx="8" fill="#ffffff" stroke="#cbd5e1" stroke-width="1"/>
<text x="738" y="392" text-anchor="middle" class="item-sub">raw signal</text>
<text x="139" y="60" text-anchor="middle" class="band-label">OSI layer</text>
<text x="365" y="60" text-anchor="middle" class="band-label">Example protocols</text>
<text x="580" y="60" text-anchor="middle" class="band-label">TCP/IP layer</text>
<text x="738" y="60" text-anchor="middle" class="band-label">Role</text>
</svg>
