<?xml version="1.0" encoding="UTF-8" standalone="no"?>
<!DOCTYPE svg PUBLIC "-//W3C//DTD SVG 1.1//EN"
 "http://www.w3.org/Graphics/SVG/1.1/DTD/svg11.dtd">
<!-- Generated by graphviz version 14.1.2 (0)
 -->
<!-- Title: quarkdown_pipeline Pages: 1 -->
<svg width="2476pt" height="438pt"
 viewBox="0.00 0.00 2476.00 438.00" xmlns="http://www.w3.org/2000/svg" xmlns:xlink="http://www.w3.org/1999/xlink">
<g id="graph0" class="graph" transform="scale(2.08333 2.08333) rotate(0) translate(4 206)">
<title>quarkdown_pipeline</title>
<polygon fill="#1a1a2e" stroke="none" points="-4,4 -4,-206 1184.63,-206 1184.63,4 -4,4"/>
<!-- s1 -->
<g id="node1" class="node">
<title>s1</title>
<path fill="#1b3a5c" stroke="#0f3460" stroke-width="2" d="M112.75,-74C112.75,-74 12,-74 12,-74 6,-74 0,-68 0,-62 0,-62 0,-18 0,-18 0,-12 6,-6 12,-6 12,-6 112.75,-6 112.75,-6 118.75,-6 124.75,-12 124.75,-18 124.75,-18 124.75,-62 124.75,-62 124.75,-68 118.75,-74 112.75,-74"/>
<text xml:space="preserve" text-anchor="middle" x="62.38" y="-60.5" font-family="Helvetica,sans-Serif" font-size="10.00" fill="#00d2ff">1. Lexing</text>
<text xml:space="preserve" text-anchor="middle" x="62.38" y="-36.5" font-family="Helvetica,sans-Serif" font-size="10.00" fill="#00d2ff">Tokenize .qd source</text>
<text xml:space="preserve" text-anchor="middle" x="62.38" y="-24.5" font-family="Helvetica,sans-Serif" font-size="10.00" fill="#00d2ff">into Quarkdown tokens</text>
<text xml:space="preserve" text-anchor="middle" x="62.38" y="-12.5" font-family="Helvetica,sans-Serif" font-size="10.00" fill="#00d2ff">(functions, blocks, inline)</text>
</g>
<!-- s2 -->
<g id="node2" class="node">
<title>s2</title>
<path fill="#1b3a5c" stroke="#0f3460" stroke-width="2" d="M281.5,-74C281.5,-74 186.75,-74 186.75,-74 180.75,-74 174.75,-68 174.75,-62 174.75,-62 174.75,-18 174.75,-18 174.75,-12 180.75,-6 186.75,-6 186.75,-6 281.5,-6 281.5,-6 287.5,-6 293.5,-12 293.5,-18 293.5,-18 293.5,-62 293.5,-62 293.5,-68 287.5,-74 281.5,-74"/>
<text xml:space="preserve" text-anchor="middle" x="234.12" y="-60.5" font-family="Helvetica,sans-Serif" font-size="10.00" fill="#00d2ff">2. Parsing</text>
<text xml:space="preserve" text-anchor="middle" x="234.12" y="-36.5" font-family="Helvetica,sans-Serif" font-size="10.00" fill="#00d2ff">Build Abstract Syntax</text>
<text xml:space="preserve" text-anchor="middle" x="234.12" y="-24.5" font-family="Helvetica,sans-Serif" font-size="10.00" fill="#00d2ff">Tree (AST) from tokens</text>
<text xml:space="preserve" text-anchor="middle" x="234.12" y="-12.5" font-family="Helvetica,sans-Serif" font-size="10.00" fill="#00d2ff">(nested structure)</text>
</g>
<!-- s1&#45;&gt;s2 -->
<g id="edge1" class="edge">
<title>s1&#45;&gt;s2</title>
<path fill="none" stroke="#00d2ff" stroke-width="2" d="M125.35,-40C125.35,-40 162.99,-40 162.99,-40"/>
<polygon fill="#00d2ff" stroke="#00d2ff" stroke-width="2" points="162.99,-42.8 170.99,-40 162.99,-37.2 162.99,-42.8"/>
</g>
<!-- s3 -->
<g id="node3" class="node">
<title>s3</title>
<path fill="#2a1a4e" stroke="#0f3460" stroke-width="2" d="M416.5,-80C416.5,-80 355.5,-80 355.5,-80 349.5,-80 343.5,-74 343.5,-68 343.5,-68 343.5,-12 343.5,-12 343.5,-6 349.5,0 355.5,0 355.5,0 416.5,0 416.5,0 422.5,0 428.5,-6 428.5,-12 428.5,-12 428.5,-68 428.5,-68 428.5,-74 422.5,-80 416.5,-80"/>
<text xml:space="preserve" text-anchor="middle" x="386" y="-66.5" font-family="Helvetica,sans-Serif" font-size="10.00" fill="#b388ff">3. Library</text>
<text xml:space="preserve" text-anchor="middle" x="386" y="-54.5" font-family="Helvetica,sans-Serif" font-size="10.00" fill="#b388ff">Registration</text>
<text xml:space="preserve" text-anchor="middle" x="386" y="-30.5" font-family="Helvetica,sans-Serif" font-size="10.00" fill="#b388ff">Load Stdlib +</text>
<text xml:space="preserve" text-anchor="middle" x="386" y="-18.5" font-family="Helvetica,sans-Serif" font-size="10.00" fill="#b388ff">custom libraries</text>
<text xml:space="preserve" text-anchor="middle" x="386" y="-6.5" font-family="Helvetica,sans-Serif" font-size="10.00" fill="#b388ff">into context</text>
</g>
<!-- s2&#45;&gt;s3 -->
<g id="edge2" class="edge">
<title>s2&#45;&gt;s3</title>
<path fill="none" stroke="#00d2ff" stroke-width="2" d="M294.15,-40C294.15,-40 331.77,-40 331.77,-40"/>
<polygon fill="#00d2ff" stroke="#00d2ff" stroke-width="2" points="331.77,-42.8 339.77,-40 331.77,-37.2 331.77,-42.8"/>
</g>
<!-- s4 -->
<g id="node4" class="node">
<title>s4</title>
<path fill="#1b3a5c" stroke="#0f3460" stroke-width="2" d="M562.75,-128C562.75,-128 490.5,-128 490.5,-128 484.5,-128 478.5,-122 478.5,-116 478.5,-116 478.5,-60 478.5,-60 478.5,-54 484.5,-48 490.5,-48 490.5,-48 562.75,-48 562.75,-48 568.75,-48 574.75,-54 574.75,-60 574.75,-60 574.75,-116 574.75,-116 574.75,-122 568.75,-128 562.75,-128"/>
<text xml:space="preserve" text-anchor="middle" x="526.62" y="-114.5" font-family="Helvetica,sans-Serif" font-size="10.00" fill="#00d2ff">4. Tree</text>
<text xml:space="preserve" text-anchor="middle" x="526.62" y="-102.5" font-family="Helvetica,sans-Serif" font-size="10.00" fill="#00d2ff">Traversal</text>
<text xml:space="preserve" text-anchor="middle" x="526.62" y="-78.5" font-family="Helvetica,sans-Serif" font-size="10.00" fill="#00d2ff">Walk AST, resolve</text>
<text xml:space="preserve" text-anchor="middle" x="526.62" y="-66.5" font-family="Helvetica,sans-Serif" font-size="10.00" fill="#00d2ff">function calls,</text>
<text xml:space="preserve" text-anchor="middle" x="526.62" y="-54.5" font-family="Helvetica,sans-Serif" font-size="10.00" fill="#00d2ff">collect attributes</text>
</g>
<!-- s3&#45;&gt;s4 -->
<g id="edge3" class="edge">
<title>s3&#45;&gt;s4</title>
<path fill="none" stroke="#00d2ff" stroke-width="2" d="M429.34,-64C429.34,-64 466.75,-64 466.75,-64"/>
<polygon fill="#00d2ff" stroke="#00d2ff" stroke-width="2" points="466.75,-66.8 474.75,-64 466.75,-61.2 466.75,-66.8"/>
</g>
<!-- ctx -->
<g id="node9" class="node">
<title>ctx</title>
<ellipse fill="#533483" stroke="#0f3460" stroke-width="2" cx="830.32" cy="-64" rx="63.82" ry="31.11"/>
<text xml:space="preserve" text-anchor="middle" x="830.32" y="-72.5" font-family="Helvetica,sans-Serif" font-size="10.00" fill="white">Mutable Context</text>
<text xml:space="preserve" text-anchor="middle" x="830.32" y="-60.5" font-family="Helvetica,sans-Serif" font-size="10.00" fill="white">(state, attributes,</text>
<text xml:space="preserve" text-anchor="middle" x="830.32" y="-48.5" font-family="Helvetica,sans-Serif" font-size="10.00" fill="white">document info)</text>
</g>
<!-- s3&#45;&gt;ctx -->
<g id="edge8" class="edge">
<title>s3&#45;&gt;ctx</title>
<path fill="none" stroke="#b388ff" stroke-width="2" stroke-dasharray="5,2" d="M429.41,-40.44C429.41,-40.44 775.37,-40.44 775.37,-40.44"/>
<polygon fill="#b388ff" stroke="#b388ff" stroke-width="2" points="775.37,-43.24 783.37,-40.44 775.37,-37.64 775.37,-43.24"/>
<text xml:space="preserve" text-anchor="middle" x="583.64" y="-31.89" font-family="Helvetica,sans-Serif" font-size="9.00" fill="#a0a0b0"> registers</text>
</g>
<!-- s5 -->
<g id="node5" class="node">
<title>s5</title>
<path fill="#1b3a5c" stroke="#0f3460" stroke-width="2" d="M704.5,-202C704.5,-202 636.75,-202 636.75,-202 630.75,-202 624.75,-196 624.75,-190 624.75,-190 624.75,-134 624.75,-134 624.75,-128 630.75,-122 636.75,-122 636.75,-122 704.5,-122 704.5,-122 710.5,-122 716.5,-128 716.5,-134 716.5,-134 716.5,-190 716.5,-190 716.5,-196 710.5,-202 704.5,-202"/>
<text xml:space="preserve" text-anchor="middle" x="670.62" y="-188.5" font-family="Helvetica,sans-Serif" font-size="10.00" fill="#00d2ff">5. Function</text>
<text xml:space="preserve" text-anchor="middle" x="670.62" y="-176.5" font-family="Helvetica,sans-Serif" font-size="10.00" fill="#00d2ff">Expansion</text>
<text xml:space="preserve" text-anchor="middle" x="670.62" y="-152.5" font-family="Helvetica,sans-Serif" font-size="10.00" fill="#00d2ff">Evaluate function</text>
<text xml:space="preserve" text-anchor="middle" x="670.62" y="-140.5" font-family="Helvetica,sans-Serif" font-size="10.00" fill="#00d2ff">calls, produce</text>
<text xml:space="preserve" text-anchor="middle" x="670.62" y="-128.5" font-family="Helvetica,sans-Serif" font-size="10.00" fill="#00d2ff">new nodes</text>
</g>
<!-- s4&#45;&gt;s5 -->
<g id="edge4" class="edge">
<title>s4&#45;&gt;s5</title>
<path fill="none" stroke="#00d2ff" stroke-width="2" d="M575.38,-108.56C617.16,-108.56 670.63,-108.56 670.63,-108.56 670.63,-108.56 670.63,-110.19 670.63,-110.19"/>
<polygon fill="#00d2ff" stroke="#00d2ff" stroke-width="2" points="667.83,-110.19 670.63,-118.19 673.43,-110.19 667.83,-110.19"/>
</g>
<!-- s6 -->
<g id="node6" class="node">
<title>s6</title>
<path fill="#1b3a5c" stroke="#0f3460" stroke-width="2" d="M869.07,-199C869.07,-199 791.57,-199 791.57,-199 785.57,-199 779.57,-193 779.57,-187 779.57,-187 779.57,-143 779.57,-143 779.57,-137 785.57,-131 791.57,-131 791.57,-131 869.07,-131 869.07,-131 875.07,-131 881.07,-137 881.07,-143 881.07,-143 881.07,-187 881.07,-187 881.07,-193 875.07,-199 869.07,-199"/>
<text xml:space="preserve" text-anchor="middle" x="830.32" y="-185.5" font-family="Helvetica,sans-Serif" font-size="10.00" fill="#00d2ff">6. Rendering</text>
<text xml:space="preserve" text-anchor="middle" x="830.32" y="-161.5" font-family="Helvetica,sans-Serif" font-size="10.00" fill="#00d2ff">Convert AST nodes</text>
<text xml:space="preserve" text-anchor="middle" x="830.32" y="-149.5" font-family="Helvetica,sans-Serif" font-size="10.00" fill="#00d2ff">to HTML or</text>
<text xml:space="preserve" text-anchor="middle" x="830.32" y="-137.5" font-family="Helvetica,sans-Serif" font-size="10.00" fill="#00d2ff">plain text</text>
</g>
<!-- s5&#45;&gt;s6 -->
<g id="edge5" class="edge">
<title>s5&#45;&gt;s6</title>
<path fill="none" stroke="#00d2ff" stroke-width="2" d="M717.24,-165C717.24,-165 767.57,-165 767.57,-165"/>
<polygon fill="#00d2ff" stroke="#00d2ff" stroke-width="2" points="767.57,-167.8 775.57,-165 767.57,-162.2 767.57,-167.8"/>
</g>
<!-- s5&#45;&gt;ctx -->
<g id="edge10" class="edge">
<title>s5&#45;&gt;ctx</title>
<path fill="none" stroke="#b388ff" stroke-width="2" stroke-dasharray="5,2" d="M717.45,-126.5C744.27,-126.5 772.63,-126.5 772.63,-126.5 772.63,-126.5 772.63,-89.52 772.63,-89.52"/>
<polygon fill="#b388ff" stroke="#b388ff" stroke-width="2" points="775.43,-89.52 772.63,-81.52 769.83,-89.52 775.43,-89.52"/>
<text xml:space="preserve" text-anchor="middle" x="745.9" y="-117.95" font-family="Helvetica,sans-Serif" font-size="9.00" fill="#a0a0b0"> updates</text>
</g>
<!-- s7 -->
<g id="node7" class="node">
<title>s7</title>
<path fill="#1b3a5c" stroke="#0f3460" stroke-width="2" d="M1040.38,-199C1040.38,-199 956.13,-199 956.13,-199 950.13,-199 944.13,-193 944.13,-187 944.13,-187 944.13,-143 944.13,-143 944.13,-137 950.13,-131 956.13,-131 956.13,-131 1040.38,-131 1040.38,-131 1046.38,-131 1052.38,-137 1052.38,-143 1052.38,-143 1052.38,-187 1052.38,-187 1052.38,-193 1046.38,-199 1040.38,-199"/>
<text xml:space="preserve" text-anchor="middle" x="998.26" y="-185.5" font-family="Helvetica,sans-Serif" font-size="10.00" fill="#00d2ff">7. Post&#45;Rendering</text>
<text xml:space="preserve" text-anchor="middle" x="998.26" y="-161.5" font-family="Helvetica,sans-Serif" font-size="10.00" fill="#00d2ff">Assemble resources,</text>
<text xml:space="preserve" text-anchor="middle" x="998.26" y="-149.5" font-family="Helvetica,sans-Serif" font-size="10.00" fill="#00d2ff">wrap output,</text>
<text xml:space="preserve" text-anchor="middle" x="998.26" y="-137.5" font-family="Helvetica,sans-Serif" font-size="10.00" fill="#00d2ff">generate artifacts</text>
</g>
<!-- s6&#45;&gt;s7 -->
<g id="edge6" class="edge">
<title>s6&#45;&gt;s7</title>
<path fill="none" stroke="#00d2ff" stroke-width="2" d="M881.62,-165C881.62,-165 932.16,-165 932.16,-165"/>
<polygon fill="#00d2ff" stroke="#00d2ff" stroke-width="2" points="932.16,-167.8 940.16,-165 932.16,-162.2 932.16,-167.8"/>
</g>
<!-- s8 -->
<g id="node8" class="node">
<title>s8</title>
<path fill="#e94560" stroke="#0f3460" stroke-width="2" d="M1168.63,-193C1168.63,-193 1114.38,-193 1114.38,-193 1108.38,-193 1102.38,-187 1102.38,-181 1102.38,-181 1102.38,-149 1102.38,-149 1102.38,-143 1108.38,-137 1114.38,-137 1114.38,-137 1168.63,-137 1168.63,-137 1174.63,-137 1180.63,-143 1180.63,-149 1180.63,-149 1180.63,-181 1180.63,-181 1180.63,-187 1174.63,-193 1168.63,-193"/>
<text xml:space="preserve" text-anchor="middle" x="1141.51" y="-179.5" font-family="Helvetica,sans-Serif" font-size="10.00" fill="white">Output</text>
<text xml:space="preserve" text-anchor="middle" x="1141.51" y="-155.5" font-family="Helvetica,sans-Serif" font-size="10.00" fill="white">HTML / PDF /</text>
<text xml:space="preserve" text-anchor="middle" x="1141.51" y="-143.5" font-family="Helvetica,sans-Serif" font-size="10.00" fill="white">Plain Text</text>
</g>
<!-- s7&#45;&gt;s8 -->
<g id="edge7" class="edge">
<title>s7&#45;&gt;s8</title>
<path fill="none" stroke="#00d2ff" stroke-width="2" d="M1053.23,-165C1053.23,-165 1090.55,-165 1090.55,-165"/>
<polygon fill="#00d2ff" stroke="#00d2ff" stroke-width="2" points="1090.55,-167.8 1098.55,-165 1090.55,-162.2 1090.55,-167.8"/>
</g>
<!-- ctx&#45;&gt;s4 -->
<g id="edge9" class="edge">
<title>ctx&#45;&gt;s4</title>
<path fill="none" stroke="#b388ff" stroke-width="2" stroke-dasharray="5,2" d="M767.39,-71.56C767.39,-71.56 586.51,-71.56 586.51,-71.56"/>
<polygon fill="#b388ff" stroke="#b388ff" stroke-width="2" points="586.51,-68.76 578.51,-71.56 586.51,-74.36 586.51,-68.76"/>
<text xml:space="preserve" text-anchor="middle" x="658.2" y="-63.01" font-family="Helvetica,sans-Serif" font-size="9.00" fill="#a0a0b0"> provides</text>
</g>
</g>
</svg>
