<?xml version="1.0" encoding="UTF-8" standalone="no"?>
<!DOCTYPE svg PUBLIC "-//W3C//DTD SVG 1.1//EN"
 "http://www.w3.org/Graphics/SVG/1.1/DTD/svg11.dtd">
<!-- Generated by graphviz version 14.1.2 (0)
 -->
<!-- Title: lunar_module Pages: 1 -->
<svg width="568pt" height="281pt"
 viewBox="0.00 0.00 568.00 281.00" xmlns="http://www.w3.org/2000/svg" xmlns:xlink="http://www.w3.org/1999/xlink">
<g id="graph0" class="graph" transform="scale(1 1) rotate(0) translate(4 277)">
<title>lunar_module</title>
<polygon fill="white" stroke="none" points="-4,4 -4,-277 563.62,-277 563.62,4 -4,4"/>
<!-- exec -->
<g id="node1" class="node">
<title>exec</title>
<path fill="#e91e63" stroke="black" d="M386.75,-273C386.75,-273 307,-273 307,-273 301,-273 295,-267 295,-261 295,-261 295,-249 295,-249 295,-243 301,-237 307,-237 307,-237 386.75,-237 386.75,-237 392.75,-237 398.75,-243 398.75,-249 398.75,-249 398.75,-261 398.75,-261 398.75,-267 392.75,-273 386.75,-273"/>
<text xml:space="preserve" text-anchor="middle" x="346.88" y="-258.05" font-family="Arial Bold" font-size="11.00" fill="white">Executive</text>
<text xml:space="preserve" text-anchor="middle" x="346.88" y="-244.55" font-family="Arial Bold" font-size="11.00" fill="white">(Task Scheduler)</text>
</g>
<!-- interp -->
<g id="node2" class="node">
<title>interp</title>
<path fill="#e91e63" stroke="black" d="M317.75,-194C317.75,-194 262,-194 262,-194 256,-194 250,-188 250,-182 250,-182 250,-170 250,-170 250,-164 256,-158 262,-158 262,-158 317.75,-158 317.75,-158 323.75,-158 329.75,-164 329.75,-170 329.75,-170 329.75,-182 329.75,-182 329.75,-188 323.75,-194 317.75,-194"/>
<text xml:space="preserve" text-anchor="middle" x="289.88" y="-179.05" font-family="Arial Bold" font-size="11.00" fill="white">Interpreter</text>
<text xml:space="preserve" text-anchor="middle" x="289.88" y="-165.55" font-family="Arial Bold" font-size="11.00" fill="white">(VM Engine)</text>
</g>
<!-- exec&#45;&gt;interp -->
<g id="edge1" class="edge">
<title>exec&#45;&gt;interp</title>
<path fill="none" stroke="#e91e63" stroke-width="2" d="M312.38,-236.68C312.38,-236.68 312.38,-207.52 312.38,-207.52"/>
<polygon fill="#e91e63" stroke="#e91e63" stroke-width="2" points="315.88,-207.52 312.38,-197.52 308.88,-207.52 315.88,-207.52"/>
</g>
<!-- restart -->
<g id="node3" class="node">
<title>restart</title>
<path fill="#e91e63" stroke="black" d="M437.38,-194C437.38,-194 370.38,-194 370.38,-194 364.38,-194 358.38,-188 358.38,-182 358.38,-182 358.38,-170 358.38,-170 358.38,-164 364.38,-158 370.38,-158 370.38,-158 437.38,-158 437.38,-158 443.38,-158 449.38,-164 449.38,-170 449.38,-170 449.38,-182 449.38,-182 449.38,-188 443.38,-194 437.38,-194"/>
<text xml:space="preserve" text-anchor="middle" x="403.88" y="-179.05" font-family="Arial Bold" font-size="11.00" fill="white">Restart Tables</text>
<text xml:space="preserve" text-anchor="middle" x="403.88" y="-165.55" font-family="Arial Bold" font-size="11.00" fill="white">(Recovery)</text>
</g>
<!-- exec&#45;&gt;restart -->
<g id="edge2" class="edge">
<title>exec&#45;&gt;restart</title>
<path fill="none" stroke="#e91e63" stroke-width="2" d="M378.56,-236.68C378.56,-236.68 378.56,-207.52 378.56,-207.52"/>
<polygon fill="#e91e63" stroke="#e91e63" stroke-width="2" points="382.06,-207.52 378.56,-197.52 375.06,-207.52 382.06,-207.52"/>
</g>
<!-- p63 -->
<g id="node4" class="node">
<title>p63</title>
<path fill="#f44336" stroke="black" d="M84.75,-115C84.75,-115 23,-115 23,-115 17,-115 11,-109 11,-103 11,-103 11,-91 11,-91 11,-85 17,-79 23,-79 23,-79 84.75,-79 84.75,-79 90.75,-79 96.75,-85 96.75,-91 96.75,-91 96.75,-103 96.75,-103 96.75,-109 90.75,-115 84.75,-115"/>
<text xml:space="preserve" text-anchor="middle" x="53.88" y="-99.5" font-family="Arial" font-size="10.00" fill="white">P63</text>
<text xml:space="preserve" text-anchor="middle" x="53.88" y="-87.5" font-family="Arial" font-size="10.00" fill="white">(Braking Phase)</text>
</g>
<!-- interp&#45;&gt;p63 -->
<g id="edge3" class="edge">
<title>interp&#45;&gt;p63</title>
<path fill="none" stroke="#f44336" stroke-width="1.5" d="M249.57,-182C182.17,-182 53.88,-182 53.88,-182 53.88,-182 53.88,-127.71 53.88,-127.71"/>
<polygon fill="#f44336" stroke="#f44336" stroke-width="1.5" points="57.38,-127.71 53.88,-117.71 50.38,-127.71 57.38,-127.71"/>
</g>
<!-- p64 -->
<g id="node5" class="node">
<title>p64</title>
<path fill="#f44336" stroke="black" d="M207.88,-115C207.88,-115 137.88,-115 137.88,-115 131.88,-115 125.88,-109 125.88,-103 125.88,-103 125.88,-91 125.88,-91 125.88,-85 131.88,-79 137.88,-79 137.88,-79 207.88,-79 207.88,-79 213.88,-79 219.88,-85 219.88,-91 219.88,-91 219.88,-103 219.88,-103 219.88,-109 213.88,-115 207.88,-115"/>
<text xml:space="preserve" text-anchor="middle" x="172.88" y="-99.5" font-family="Arial" font-size="10.00" fill="white">P64</text>
<text xml:space="preserve" text-anchor="middle" x="172.88" y="-87.5" font-family="Arial" font-size="10.00" fill="white">(Approach Phase)</text>
</g>
<!-- interp&#45;&gt;p64 -->
<g id="edge4" class="edge">
<title>interp&#45;&gt;p64</title>
<path fill="none" stroke="#f44336" stroke-width="1.5" d="M249.61,-170C215.77,-170 172.88,-170 172.88,-170 172.88,-170 172.88,-127.69 172.88,-127.69"/>
<polygon fill="#f44336" stroke="#f44336" stroke-width="1.5" points="176.38,-127.69 172.88,-117.69 169.38,-127.69 176.38,-127.69"/>
</g>
<!-- p66 -->
<g id="node6" class="node">
<title>p66</title>
<path fill="#f44336" stroke="black" d="M319.25,-115C319.25,-115 260.5,-115 260.5,-115 254.5,-115 248.5,-109 248.5,-103 248.5,-103 248.5,-91 248.5,-91 248.5,-85 254.5,-79 260.5,-79 260.5,-79 319.25,-79 319.25,-79 325.25,-79 331.25,-85 331.25,-91 331.25,-91 331.25,-103 331.25,-103 331.25,-109 325.25,-115 319.25,-115"/>
<text xml:space="preserve" text-anchor="middle" x="289.88" y="-99.5" font-family="Arial" font-size="10.00" fill="white">P66</text>
<text xml:space="preserve" text-anchor="middle" x="289.88" y="-87.5" font-family="Arial" font-size="10.00" fill="white">(Final Descent)</text>
</g>
<!-- interp&#45;&gt;p66 -->
<g id="edge5" class="edge">
<title>interp&#45;&gt;p66</title>
<path fill="none" stroke="#f44336" stroke-width="1.5" d="M276.58,-157.68C276.58,-157.68 276.58,-127.77 276.58,-127.77"/>
<polygon fill="#f44336" stroke="#f44336" stroke-width="1.5" points="280.08,-127.77 276.58,-117.77 273.08,-127.77 280.08,-127.77"/>
</g>
<!-- p12 -->
<g id="node7" class="node">
<title>p12</title>
<path fill="#ff9800" stroke="black" d="M441.12,-115C441.12,-115 372.62,-115 372.62,-115 366.62,-115 360.62,-109 360.62,-103 360.62,-103 360.62,-91 360.62,-91 360.62,-85 366.62,-79 372.62,-79 372.62,-79 441.12,-79 441.12,-79 447.12,-79 453.12,-85 453.12,-91 453.12,-91 453.12,-103 453.12,-103 453.12,-109 447.12,-115 441.12,-115"/>
<text xml:space="preserve" text-anchor="middle" x="406.88" y="-99.5" font-family="Arial" font-size="10.00" fill="white">P12</text>
<text xml:space="preserve" text-anchor="middle" x="406.88" y="-87.5" font-family="Arial" font-size="10.00" fill="white">(Ascent Program)</text>
</g>
<!-- interp&#45;&gt;p12 -->
<g id="edge6" class="edge">
<title>interp&#45;&gt;p12</title>
<path fill="none" stroke="#ff9800" stroke-width="1.5" d="M330.23,-176C338.63,-176 345,-176 345,-176 345,-176 345,-97 345,-97 345,-97 348.02,-97 348.02,-97"/>
<polygon fill="#ff9800" stroke="#ff9800" stroke-width="1.5" points="348.02,-100.5 358.02,-97 348.02,-93.5 348.02,-100.5"/>
</g>
<!-- p70 -->
<g id="node8" class="node">
<title>p70</title>
<path fill="#ff9800" stroke="black" d="M547.62,-115C547.62,-115 494.12,-115 494.12,-115 488.12,-115 482.12,-109 482.12,-103 482.12,-103 482.12,-91 482.12,-91 482.12,-85 488.12,-79 494.12,-79 494.12,-79 547.62,-79 547.62,-79 553.62,-79 559.62,-85 559.62,-91 559.62,-91 559.62,-103 559.62,-103 559.62,-109 553.62,-115 547.62,-115"/>
<text xml:space="preserve" text-anchor="middle" x="520.88" y="-99.5" font-family="Arial" font-size="10.00" fill="white">P70&#45;P71</text>
<text xml:space="preserve" text-anchor="middle" x="520.88" y="-87.5" font-family="Arial" font-size="10.00" fill="white">(Abort Modes)</text>
</g>
<!-- interp&#45;&gt;p70 -->
<g id="edge7" class="edge">
<title>interp&#45;&gt;p70</title>
<path fill="none" stroke="#ff9800" stroke-width="1.5" d="M303.17,-157.87C303.17,-147.69 303.17,-137 303.17,-137 303.17,-137 520.88,-137 520.88,-137 520.88,-137 520.88,-127.4 520.88,-127.4"/>
<polygon fill="#ff9800" stroke="#ff9800" stroke-width="1.5" points="524.38,-127.4 520.88,-117.4 517.38,-127.4 524.38,-127.4"/>
</g>
<!-- landing -->
<g id="node9" class="node">
<title>landing</title>
<path fill="#4caf50" stroke="black" d="M91.75,-36C91.75,-36 12,-36 12,-36 6,-36 0,-30 0,-24 0,-24 0,-12 0,-12 0,-6 6,0 12,0 12,0 91.75,0 91.75,0 97.75,0 103.75,-6 103.75,-12 103.75,-12 103.75,-24 103.75,-24 103.75,-30 97.75,-36 91.75,-36"/>
<text xml:space="preserve" text-anchor="middle" x="51.88" y="-20.5" font-family="Arial" font-size="10.00" fill="white">Lunar Landing</text>
<text xml:space="preserve" text-anchor="middle" x="51.88" y="-8.5" font-family="Arial" font-size="10.00" fill="white">Guidance Equations</text>
</g>
<!-- p63&#45;&gt;landing -->
<g id="edge8" class="edge">
<title>p63&#45;&gt;landing</title>
<path fill="none" stroke="#4caf50" stroke-width="1.5" d="M53.88,-78.68C53.88,-78.68 53.88,-48.77 53.88,-48.77"/>
<polygon fill="#4caf50" stroke="#4caf50" stroke-width="1.5" points="57.38,-48.77 53.88,-38.77 50.38,-48.77 57.38,-48.77"/>
</g>
<!-- radar -->
<g id="node11" class="node">
<title>radar</title>
<path fill="#4caf50" stroke="black" d="M205.38,-36C205.38,-36 144.38,-36 144.38,-36 138.38,-36 132.38,-30 132.38,-24 132.38,-24 132.38,-12 132.38,-12 132.38,-6 138.38,0 144.38,0 144.38,0 205.38,0 205.38,0 211.38,0 217.38,-6 217.38,-12 217.38,-12 217.38,-24 217.38,-24 217.38,-30 211.38,-36 205.38,-36"/>
<text xml:space="preserve" text-anchor="middle" x="174.88" y="-20.5" font-family="Arial" font-size="10.00" fill="white">Radar Routines</text>
<text xml:space="preserve" text-anchor="middle" x="174.88" y="-8.5" font-family="Arial" font-size="10.00" fill="white">(Landing Radar)</text>
</g>
<!-- p64&#45;&gt;radar -->
<g id="edge9" class="edge">
<title>p64&#45;&gt;radar</title>
<path fill="none" stroke="#4caf50" stroke-width="1.5" d="M174.88,-78.68C174.88,-78.68 174.88,-48.77 174.88,-48.77"/>
<polygon fill="#4caf50" stroke="#4caf50" stroke-width="1.5" points="178.38,-48.77 174.88,-38.77 171.38,-48.77 178.38,-48.77"/>
</g>
<!-- throttle -->
<g id="node12" class="node">
<title>throttle</title>
<path fill="#4caf50" stroke="black" d="M319.62,-36C319.62,-36 260.12,-36 260.12,-36 254.12,-36 248.12,-30 248.12,-24 248.12,-24 248.12,-12 248.12,-12 248.12,-6 254.12,0 260.12,0 260.12,0 319.62,0 319.62,0 325.62,0 331.62,-6 331.62,-12 331.62,-12 331.62,-24 331.62,-24 331.62,-30 325.62,-36 319.62,-36"/>
<text xml:space="preserve" text-anchor="middle" x="289.88" y="-20.5" font-family="Arial" font-size="10.00" fill="white">Throttle Control</text>
<text xml:space="preserve" text-anchor="middle" x="289.88" y="-8.5" font-family="Arial" font-size="10.00" fill="white">(Engine)</text>
</g>
<!-- p66&#45;&gt;throttle -->
<g id="edge10" class="edge">
<title>p66&#45;&gt;throttle</title>
<path fill="none" stroke="#4caf50" stroke-width="1.5" d="M289.88,-78.68C289.88,-78.68 289.88,-48.77 289.88,-48.77"/>
<polygon fill="#4caf50" stroke="#4caf50" stroke-width="1.5" points="293.38,-48.77 289.88,-38.77 286.38,-48.77 293.38,-48.77"/>
</g>
<!-- ascent_g -->
<g id="node10" class="node">
<title>ascent_g</title>
<path fill="#4caf50" stroke="black" d="M440.38,-36C440.38,-36 373.38,-36 373.38,-36 367.38,-36 361.38,-30 361.38,-24 361.38,-24 361.38,-12 361.38,-12 361.38,-6 367.38,0 373.38,0 373.38,0 440.38,0 440.38,0 446.38,0 452.38,-6 452.38,-12 452.38,-12 452.38,-24 452.38,-24 452.38,-30 446.38,-36 440.38,-36"/>
<text xml:space="preserve" text-anchor="middle" x="406.88" y="-20.5" font-family="Arial" font-size="10.00" fill="white">Ascent Guidance</text>
<text xml:space="preserve" text-anchor="middle" x="406.88" y="-8.5" font-family="Arial" font-size="10.00" fill="white">(Trajectory)</text>
</g>
<!-- p12&#45;&gt;ascent_g -->
<g id="edge11" class="edge">
<title>p12&#45;&gt;ascent_g</title>
<path fill="none" stroke="#4caf50" stroke-width="1.5" d="M406.88,-78.68C406.88,-78.68 406.88,-48.77 406.88,-48.77"/>
<polygon fill="#4caf50" stroke="#4caf50" stroke-width="1.5" points="410.38,-48.77 406.88,-38.77 403.38,-48.77 410.38,-48.77"/>
</g>
</g>
</svg>
