<?xml version="1.0" encoding="UTF-8" standalone="no"?>
<!DOCTYPE svg PUBLIC "-//W3C//DTD SVG 1.1//EN"
 "http://www.w3.org/Graphics/SVG/1.1/DTD/svg11.dtd">
<!-- Generated by graphviz version 14.1.2 (0)
 -->
<!-- Title: agc_architecture Pages: 1 -->
<svg width="850pt" height="232pt"
 viewBox="0.00 0.00 850.00 232.00" xmlns="http://www.w3.org/2000/svg" xmlns:xlink="http://www.w3.org/1999/xlink">
<g id="graph0" class="graph" transform="scale(1 1) rotate(0) translate(4 228)">
<title>agc_architecture</title>
<polygon fill="white" stroke="none" points="-4,4 -4,-228 846.12,-228 846.12,4 -4,4"/>
<!-- hardware -->
<g id="node1" class="node">
<title>hardware</title>
<path fill="#e91e63" stroke="black" d="M275.12,-224C275.12,-224 140.62,-224 140.62,-224 134.62,-224 128.62,-218 128.62,-212 128.62,-212 128.62,-200 128.62,-200 128.62,-194 134.62,-188 140.62,-188 140.62,-188 275.12,-188 275.12,-188 281.12,-188 287.12,-194 287.12,-200 287.12,-200 287.12,-212 287.12,-212 287.12,-218 281.12,-224 275.12,-224"/>
<text xml:space="preserve" text-anchor="middle" x="207.88" y="-209.05" font-family="Arial Bold" font-size="11.00" fill="white">Apollo Guidance Computer</text>
<text xml:space="preserve" text-anchor="middle" x="207.88" y="-195.55" font-family="Arial Bold" font-size="11.00" fill="white">(AGC Hardware)</text>
</g>
<!-- memory -->
<g id="node2" class="node">
<title>memory</title>
<path fill="#e91e63" stroke="black" d="M115.75,-130C115.75,-130 12,-130 12,-130 6,-130 0,-124 0,-118 0,-118 0,-106 0,-106 0,-100 6,-94 12,-94 12,-94 115.75,-94 115.75,-94 121.75,-94 127.75,-100 127.75,-106 127.75,-106 127.75,-118 127.75,-118 127.75,-124 121.75,-130 115.75,-130"/>
<text xml:space="preserve" text-anchor="middle" x="63.88" y="-115.05" font-family="Arial Bold" font-size="11.00" fill="white">Memory</text>
<text xml:space="preserve" text-anchor="middle" x="63.88" y="-101.55" font-family="Arial Bold" font-size="11.00" fill="white">(36K ROM + 2K RAM)</text>
</g>
<!-- hardware&#45;&gt;memory -->
<g id="edge1" class="edge">
<title>hardware&#45;&gt;memory</title>
<path fill="none" stroke="#e91e63" stroke-width="2" d="M146.44,-187.88C146.44,-160.56 146.44,-112 146.44,-112 146.44,-112 141.14,-112 141.14,-112"/>
<polygon fill="#e91e63" stroke="#e91e63" stroke-width="2" points="141.14,-108.5 131.14,-112 141.14,-115.5 141.14,-108.5"/>
</g>
<!-- cpu -->
<g id="node3" class="node">
<title>cpu</title>
<path fill="#e91e63" stroke="black" d="M239.5,-130C239.5,-130 176.25,-130 176.25,-130 170.25,-130 164.25,-124 164.25,-118 164.25,-118 164.25,-106 164.25,-106 164.25,-100 170.25,-94 176.25,-94 176.25,-94 239.5,-94 239.5,-94 245.5,-94 251.5,-100 251.5,-106 251.5,-106 251.5,-118 251.5,-118 251.5,-124 245.5,-130 239.5,-130"/>
<text xml:space="preserve" text-anchor="middle" x="207.88" y="-115.05" font-family="Arial Bold" font-size="11.00" fill="white">CPU</text>
<text xml:space="preserve" text-anchor="middle" x="207.88" y="-101.55" font-family="Arial Bold" font-size="11.00" fill="white">(16&#45;bit, 2MHz)</text>
</g>
<!-- hardware&#45;&gt;cpu -->
<g id="edge2" class="edge">
<title>hardware&#45;&gt;cpu</title>
<path fill="none" stroke="#e91e63" stroke-width="2" d="M207.88,-187.88C207.88,-187.88 207.88,-143.42 207.88,-143.42"/>
<polygon fill="#e91e63" stroke="#e91e63" stroke-width="2" points="211.38,-143.42 207.88,-133.42 204.38,-143.42 211.38,-143.42"/>
</g>
<!-- io -->
<g id="node4" class="node">
<title>io</title>
<path fill="#e91e63" stroke="black" d="M380.12,-130C380.12,-130 299.62,-130 299.62,-130 293.62,-130 287.62,-124 287.62,-118 287.62,-118 287.62,-106 287.62,-106 287.62,-100 293.62,-94 299.62,-94 299.62,-94 380.12,-94 380.12,-94 386.12,-94 392.12,-100 392.12,-106 392.12,-106 392.12,-118 392.12,-118 392.12,-124 386.12,-130 380.12,-130"/>
<text xml:space="preserve" text-anchor="middle" x="339.88" y="-115.05" font-family="Arial Bold" font-size="11.00" fill="white">I/O Channels</text>
<text xml:space="preserve" text-anchor="middle" x="339.88" y="-101.55" font-family="Arial Bold" font-size="11.00" fill="white">(DSKY, IMU, etc.)</text>
</g>
<!-- hardware&#45;&gt;io -->
<g id="edge3" class="edge">
<title>hardware&#45;&gt;io</title>
<path fill="none" stroke="#e91e63" stroke-width="2" d="M269.31,-187.88C269.31,-160.56 269.31,-112 269.31,-112 269.31,-112 274.46,-112 274.46,-112"/>
<polygon fill="#e91e63" stroke="#e91e63" stroke-width="2" points="274.46,-115.5 284.46,-112 274.46,-108.5 274.46,-115.5"/>
</g>
<!-- dsky -->
<g id="node9" class="node">
<title>dsky</title>
<path fill="#ff9800" stroke="black" d="M160.5,-36C160.5,-36 85.25,-36 85.25,-36 79.25,-36 73.25,-30 73.25,-24 73.25,-24 73.25,-12 73.25,-12 73.25,-6 79.25,0 85.25,0 85.25,0 160.5,0 160.5,0 166.5,0 172.5,-6 172.5,-12 172.5,-12 172.5,-24 172.5,-24 172.5,-30 166.5,-36 160.5,-36"/>
<text xml:space="preserve" text-anchor="middle" x="122.88" y="-20.5" font-family="Arial" font-size="10.00" fill="white">DSKY Interface</text>
<text xml:space="preserve" text-anchor="middle" x="122.88" y="-8.5" font-family="Arial" font-size="10.00" fill="white">(Display Keyboard)</text>
</g>
<!-- io&#45;&gt;dsky -->
<g id="edge7" class="edge">
<title>io&#45;&gt;dsky</title>
<path fill="none" stroke="#ff9800" stroke-width="1.5" d="M298.96,-93.69C298.96,-80.5 298.96,-65 298.96,-65 298.96,-65 168.38,-65 168.38,-65 168.38,-65 168.38,-48.58 168.38,-48.58"/>
<polygon fill="#ff9800" stroke="#ff9800" stroke-width="1.5" points="171.88,-48.58 168.38,-38.58 164.88,-48.58 171.88,-48.58"/>
</g>
<!-- imu -->
<g id="node10" class="node">
<title>imu</title>
<path fill="#ff9800" stroke="black" d="M309.62,-36C309.62,-36 220.12,-36 220.12,-36 214.12,-36 208.12,-30 208.12,-24 208.12,-24 208.12,-12 208.12,-12 208.12,-6 214.12,0 220.12,0 220.12,0 309.62,0 309.62,0 315.62,0 321.62,-6 321.62,-12 321.62,-12 321.62,-24 321.62,-24 321.62,-30 315.62,-36 309.62,-36"/>
<text xml:space="preserve" text-anchor="middle" x="264.88" y="-20.5" font-family="Arial" font-size="10.00" fill="white">IMU Interface</text>
<text xml:space="preserve" text-anchor="middle" x="264.88" y="-8.5" font-family="Arial" font-size="10.00" fill="white">(Inertial Measurement)</text>
</g>
<!-- io&#45;&gt;imu -->
<g id="edge8" class="edge">
<title>io&#45;&gt;imu</title>
<path fill="none" stroke="#ff9800" stroke-width="1.5" d="M310.29,-93.88C310.29,-93.88 310.29,-48.66 310.29,-48.66"/>
<polygon fill="#ff9800" stroke="#ff9800" stroke-width="1.5" points="313.79,-48.66 310.29,-38.66 306.79,-48.66 313.79,-48.66"/>
</g>
<!-- radar -->
<g id="node11" class="node">
<title>radar</title>
<path fill="#ff9800" stroke="black" d="M459.62,-36C459.62,-36 370.12,-36 370.12,-36 364.12,-36 358.12,-30 358.12,-24 358.12,-24 358.12,-12 358.12,-12 358.12,-6 364.12,0 370.12,0 370.12,0 459.62,0 459.62,0 465.62,0 471.62,-6 471.62,-12 471.62,-12 471.62,-24 471.62,-24 471.62,-30 465.62,-36 459.62,-36"/>
<text xml:space="preserve" text-anchor="middle" x="414.88" y="-20.5" font-family="Arial" font-size="10.00" fill="white">Radar Interface</text>
<text xml:space="preserve" text-anchor="middle" x="414.88" y="-8.5" font-family="Arial" font-size="10.00" fill="white">(Rendezvous/Landing)</text>
</g>
<!-- io&#45;&gt;radar -->
<g id="edge9" class="edge">
<title>io&#45;&gt;radar</title>
<path fill="none" stroke="#ff9800" stroke-width="1.5" d="M375.12,-93.88C375.12,-93.88 375.12,-48.66 375.12,-48.66"/>
<polygon fill="#ff9800" stroke="#ff9800" stroke-width="1.5" points="378.63,-48.66 375.13,-38.66 371.63,-48.66 378.63,-48.66"/>
</g>
<!-- engine -->
<g id="node12" class="node">
<title>engine</title>
<path fill="#ff9800" stroke="black" d="M576.12,-36C576.12,-36 519.62,-36 519.62,-36 513.62,-36 507.62,-30 507.62,-24 507.62,-24 507.62,-12 507.62,-12 507.62,-6 513.62,0 519.62,0 519.62,0 576.12,0 576.12,0 582.12,0 588.12,-6 588.12,-12 588.12,-12 588.12,-24 588.12,-24 588.12,-30 582.12,-36 576.12,-36"/>
<text xml:space="preserve" text-anchor="middle" x="547.88" y="-20.5" font-family="Arial" font-size="10.00" fill="white">Engine Control</text>
<text xml:space="preserve" text-anchor="middle" x="547.88" y="-8.5" font-family="Arial" font-size="10.00" fill="white">(Thrust Vector)</text>
</g>
<!-- io&#45;&gt;engine -->
<g id="edge10" class="edge">
<title>io&#45;&gt;engine</title>
<path fill="none" stroke="#ff9800" stroke-width="1.5" d="M392.36,-112C453.98,-112 547.88,-112 547.88,-112 547.88,-112 547.88,-48.39 547.88,-48.39"/>
<polygon fill="#ff9800" stroke="#ff9800" stroke-width="1.5" points="551.38,-48.39 547.88,-38.39 544.38,-48.39 551.38,-48.39"/>
</g>
<!-- executive -->
<g id="node5" class="node">
<title>executive</title>
<path fill="#2196f3" stroke="black" d="M784.5,-224C784.5,-224 691.25,-224 691.25,-224 685.25,-224 679.25,-218 679.25,-212 679.25,-212 679.25,-200 679.25,-200 679.25,-194 685.25,-188 691.25,-188 691.25,-188 784.5,-188 784.5,-188 790.5,-188 796.5,-194 796.5,-200 796.5,-200 796.5,-212 796.5,-212 796.5,-218 790.5,-224 784.5,-224"/>
<text xml:space="preserve" text-anchor="middle" x="737.88" y="-209.05" font-family="Arial Bold" font-size="11.00" fill="white">Executive</text>
<text xml:space="preserve" text-anchor="middle" x="737.88" y="-195.55" font-family="Arial Bold" font-size="11.00" fill="white">(Operating System)</text>
</g>
<!-- interpreter -->
<g id="node6" class="node">
<title>interpreter</title>
<path fill="#2196f3" stroke="black" d="M793.12,-130C793.12,-130 682.62,-130 682.62,-130 676.62,-130 670.62,-124 670.62,-118 670.62,-118 670.62,-106 670.62,-106 670.62,-100 676.62,-94 682.62,-94 682.62,-94 793.12,-94 793.12,-94 799.12,-94 805.12,-100 805.12,-106 805.12,-106 805.12,-118 805.12,-118 805.12,-124 799.12,-130 793.12,-130"/>
<text xml:space="preserve" text-anchor="middle" x="737.88" y="-115.05" font-family="Arial Bold" font-size="11.00" fill="white">Interpreter</text>
<text xml:space="preserve" text-anchor="middle" x="737.88" y="-101.55" font-family="Arial Bold" font-size="11.00" fill="white">(High&#45;Level Language)</text>
</g>
<!-- executive&#45;&gt;interpreter -->
<g id="edge4" class="edge">
<title>executive&#45;&gt;interpreter</title>
<path fill="none" stroke="#2196f3" stroke-width="2" d="M737.88,-187.88C737.88,-187.88 737.88,-143.42 737.88,-143.42"/>
<polygon fill="#2196f3" stroke="#2196f3" stroke-width="2" points="741.38,-143.42 737.88,-133.42 734.38,-143.42 741.38,-143.42"/>
</g>
<!-- comanche -->
<g id="node7" class="node">
<title>comanche</title>
<path fill="#4caf50" stroke="black" d="M713.62,-36C713.62,-36 636.12,-36 636.12,-36 630.12,-36 624.12,-30 624.12,-24 624.12,-24 624.12,-12 624.12,-12 624.12,-6 630.12,0 636.12,0 636.12,0 713.62,0 713.62,0 719.62,0 725.62,-6 725.62,-12 725.62,-12 725.62,-24 725.62,-24 725.62,-30 719.62,-36 713.62,-36"/>
<text xml:space="preserve" text-anchor="middle" x="674.88" y="-20.5" font-family="Arial" font-size="10.00" fill="white">Comanche 055</text>
<text xml:space="preserve" text-anchor="middle" x="674.88" y="-8.5" font-family="Arial" font-size="10.00" fill="white">(Command Module)</text>
</g>
<!-- interpreter&#45;&gt;comanche -->
<g id="edge5" class="edge">
<title>interpreter&#45;&gt;comanche</title>
<path fill="none" stroke="#4caf50" stroke-width="1.5" stroke-dasharray="5,2" d="M698.12,-93.88C698.12,-93.88 698.12,-48.66 698.12,-48.66"/>
<polygon fill="#4caf50" stroke="#4caf50" stroke-width="1.5" points="701.63,-48.66 698.13,-38.66 694.63,-48.66 701.63,-48.66"/>
</g>
<!-- luminary -->
<g id="node8" class="node">
<title>luminary</title>
<path fill="#4caf50" stroke="black" d="M830.12,-36C830.12,-36 773.62,-36 773.62,-36 767.62,-36 761.62,-30 761.62,-24 761.62,-24 761.62,-12 761.62,-12 761.62,-6 767.62,0 773.62,0 773.62,0 830.12,0 830.12,0 836.12,0 842.12,-6 842.12,-12 842.12,-12 842.12,-24 842.12,-24 842.12,-30 836.12,-36 830.12,-36"/>
<text xml:space="preserve" text-anchor="middle" x="801.88" y="-20.5" font-family="Arial" font-size="10.00" fill="white">Luminary 099</text>
<text xml:space="preserve" text-anchor="middle" x="801.88" y="-8.5" font-family="Arial" font-size="10.00" fill="white">(Lunar Module)</text>
</g>
<!-- interpreter&#45;&gt;luminary -->
<g id="edge6" class="edge">
<title>interpreter&#45;&gt;luminary</title>
<path fill="none" stroke="#4caf50" stroke-width="1.5" stroke-dasharray="5,2" d="M783.38,-93.88C783.38,-93.88 783.38,-48.66 783.38,-48.66"/>
<polygon fill="#4caf50" stroke="#4caf50" stroke-width="1.5" points="786.88,-48.66 783.38,-38.66 779.88,-48.66 786.88,-48.66"/>
</g>
</g>
</svg>
