<?xml version="1.0" encoding="UTF-8" standalone="no"?>
<!DOCTYPE svg PUBLIC "-//W3C//DTD SVG 1.1//EN"
 "http://www.w3.org/Graphics/SVG/1.1/DTD/svg11.dtd">
<!-- Generated by graphviz version 14.1.3 (0)
 -->
<!-- Title: omniroute_routing Pages: 1 -->
<svg width="722pt" height="700pt"
 viewBox="0.00 0.00 722.00 700.00" xmlns="http://www.w3.org/2000/svg" xmlns:xlink="http://www.w3.org/1999/xlink">
<style>
<!-- White text halo for edge label readability -->
text { paint-order: stroke; stroke: #ffffff; stroke-width: 3px; stroke-linejoin: round; fill: #1a1a2e; }
</style>
<g id="graph0" class="graph" transform="scale(1 1) rotate(0) translate(4 696.25)">
<title>omniroute_routing</title>
<polygon fill="white" stroke="none" points="-4,4 -4,-696.25 717.62,-696.25 717.62,4 -4,4"/>
<text xml:space="preserve" text-anchor="middle" x="356.81" y="-7.2" font-family="Times New Roman,serif" font-size="14.00">OmniRoute &#45; Provider Routing Flow</text>
<!-- request -->
<g id="node1" class="node">
<title>request</title>
<path fill="#16a34a" stroke="black" d="M134.5,-692.25C134.5,-692.25 12,-692.25 12,-692.25 6,-692.25 0,-686.25 0,-680.25 0,-680.25 0,-668.25 0,-668.25 0,-662.25 6,-656.25 12,-656.25 12,-656.25 134.5,-656.25 134.5,-656.25 140.5,-656.25 146.5,-662.25 146.5,-668.25 146.5,-668.25 146.5,-680.25 146.5,-680.25 146.5,-686.25 140.5,-692.25 134.5,-692.25"/>
<text xml:space="preserve" text-anchor="middle" x="73.25" y="-677.3" font-family="Arial" font-size="11.00" fill="white">Incoming Request</text>
<text xml:space="preserve" text-anchor="middle" x="73.25" y="-663.8" font-family="Arial" font-size="11.00" fill="white">POST /v1/chat/completions</text>
</g>
<!-- parse -->
<g id="node2" class="node">
<title>parse</title>
<path fill="#2563eb" stroke="black" d="M121.75,-598.25C121.75,-598.25 24.75,-598.25 24.75,-598.25 18.75,-598.25 12.75,-592.25 12.75,-586.25 12.75,-586.25 12.75,-559.5 12.75,-559.5 12.75,-553.5 18.75,-547.5 24.75,-547.5 24.75,-547.5 121.75,-547.5 121.75,-547.5 127.75,-547.5 133.75,-553.5 133.75,-559.5 133.75,-559.5 133.75,-586.25 133.75,-586.25 133.75,-592.25 127.75,-598.25 121.75,-598.25"/>
<text xml:space="preserve" text-anchor="middle" x="73.25" y="-582.85" font-family="Arial Bold" font-size="12.00" fill="white">Parse &amp; Normalize</text>
<text xml:space="preserve" text-anchor="middle" x="73.25" y="-568.6" font-family="Arial Bold" font-size="12.00" fill="white">Translate between</text>
<text xml:space="preserve" text-anchor="middle" x="73.25" y="-554.35" font-family="Arial Bold" font-size="12.00" fill="white">API formats</text>
</g>
<!-- request&#45;&gt;parse -->
<g id="edge1" class="edge">
<title>request&#45;&gt;parse</title>
<path fill="none" stroke="#16a34a" stroke-width="2" d="M73.25,-656.13C73.25,-656.13 73.25,-611.49 73.25,-611.49"/>
<polygon fill="#16a34a" stroke="#16a34a" stroke-width="2" points="76.75,-611.49 73.25,-601.49 69.75,-611.49 76.75,-611.49"/>
</g>
<!-- compress -->
<g id="node3" class="node">
<title>compress</title>
<path fill="#ea580c" stroke="black" d="M127,-489.5C127,-489.5 19.5,-489.5 19.5,-489.5 13.5,-489.5 7.5,-483.5 7.5,-477.5 7.5,-477.5 7.5,-453 7.5,-453 7.5,-447 13.5,-441 19.5,-441 19.5,-441 127,-441 127,-441 133,-441 139,-447 139,-453 139,-453 139,-477.5 139,-477.5 139,-483.5 133,-489.5 127,-489.5"/>
<text xml:space="preserve" text-anchor="middle" x="73.25" y="-475.05" font-family="Arial Bold" font-size="11.00" fill="white">Compression Pipeline</text>
<text xml:space="preserve" text-anchor="middle" x="73.25" y="-461.55" font-family="Arial Bold" font-size="11.00" fill="white">10 engines</text>
<text xml:space="preserve" text-anchor="middle" x="73.25" y="-448.05" font-family="Arial Bold" font-size="11.00" fill="white">15&#45;95% tokens saved</text>
</g>
<!-- parse&#45;&gt;compress -->
<g id="edge2" class="edge">
<title>parse&#45;&gt;compress</title>
<path fill="none" stroke="#2563eb" stroke-width="2" d="M73.25,-547.1C73.25,-547.1 73.25,-502.74 73.25,-502.74"/>
<polygon fill="#2563eb" stroke="#2563eb" stroke-width="2" points="76.75,-502.74 73.25,-492.74 69.75,-502.74 76.75,-502.74"/>
</g>
<!-- route -->
<g id="node4" class="node">
<title>route</title>
<polygon fill="#ea580c" stroke="black" points="393.25,-383 336,-351 393.25,-319 450.5,-351 393.25,-383"/>
<text xml:space="preserve" text-anchor="middle" x="393.25" y="-353.5" font-family="Arial Bold" font-size="10.00" fill="white">Route</text>
<text xml:space="preserve" text-anchor="middle" x="393.25" y="-341.5" font-family="Arial Bold" font-size="10.00" fill="white">Decision</text>
</g>
<!-- compress&#45;&gt;route -->
<g id="edge3" class="edge">
<title>compress&#45;&gt;route</title>
<path fill="none" stroke="#ea580c" stroke-width="2" d="M73.25,-440.6C73.25,-404.25 73.25,-340.5 73.25,-340.5 73.25,-340.5 340.98,-340.5 340.98,-340.5"/>
<polygon fill="#ea580c" stroke="#ea580c" stroke-width="2" points="340.98,-344 350.98,-340.5 340.98,-337 340.98,-344"/>
</g>
<!-- select -->
<g id="node5" class="node">
<title>select</title>
<path fill="#7c3aed" stroke="black" d="M437.62,-261C437.62,-261 348.88,-261 348.88,-261 342.88,-261 336.88,-255 336.88,-249 336.88,-249 336.88,-237 336.88,-237 336.88,-231 342.88,-225 348.88,-225 348.88,-225 437.62,-225 437.62,-225 443.62,-225 449.62,-231 449.62,-237 449.62,-237 449.62,-249 449.62,-249 449.62,-255 443.62,-261 437.62,-261"/>
<text xml:space="preserve" text-anchor="middle" x="393.25" y="-246.05" font-family="Arial Bold" font-size="11.00" fill="white">Provider Selection</text>
<text xml:space="preserve" text-anchor="middle" x="393.25" y="-232.55" font-family="Arial Bold" font-size="11.00" fill="white">&amp; Execution</text>
</g>
<!-- route&#45;&gt;select -->
<g id="edge4" class="edge">
<title>route&#45;&gt;select</title>
<path fill="none" stroke="#7c3aed" stroke-width="2" d="M393.25,-318.6C393.25,-318.6 393.25,-274.28 393.25,-274.28"/>
<polygon fill="#7c3aed" stroke="#7c3aed" stroke-width="2" points="396.75,-274.28 393.25,-264.28 389.75,-274.28 396.75,-274.28"/>
</g>
<!-- aggregate -->
<g id="node6" class="node">
<title>aggregate</title>
<path fill="#16a34a" stroke="black" d="M449.62,-73C449.62,-73 336.88,-73 336.88,-73 330.88,-73 324.88,-67 324.88,-61 324.88,-61 324.88,-36.5 324.88,-36.5 324.88,-30.5 330.88,-24.5 336.88,-24.5 336.88,-24.5 449.62,-24.5 449.62,-24.5 455.62,-24.5 461.62,-30.5 461.62,-36.5 461.62,-36.5 461.62,-61 461.62,-61 461.62,-67 455.62,-73 449.62,-73"/>
<text xml:space="preserve" text-anchor="middle" x="393.25" y="-58.55" font-family="Arial Bold" font-size="11.00" fill="white">Response Aggregation</text>
<text xml:space="preserve" text-anchor="middle" x="393.25" y="-45.05" font-family="Arial Bold" font-size="11.00" fill="white">Merge results</text>
<text xml:space="preserve" text-anchor="middle" x="393.25" y="-31.55" font-family="Arial Bold" font-size="11.00" fill="white">Return to client</text>
</g>
<!-- select&#45;&gt;aggregate -->
<g id="edge5" class="edge">
<title>select&#45;&gt;aggregate</title>
<path fill="none" stroke="#16a34a" stroke-width="2" d="M431.12,-224.73C431.12,-224.73 431.12,-86.49 431.12,-86.49"/>
<polygon fill="#16a34a" stroke="#16a34a" stroke-width="2" points="434.63,-86.49 431.13,-76.49 427.63,-86.49 434.63,-86.49"/>
</g>
<!-- p_openai -->
<g id="node13" class="node">
<title>p_openai</title>
<path fill="#7c3aed" stroke="black" d="M316.25,-167C316.25,-167 286.25,-167 286.25,-167 280.25,-167 274.25,-161 274.25,-155 274.25,-155 274.25,-143 274.25,-143 274.25,-137 280.25,-131 286.25,-131 286.25,-131 316.25,-131 316.25,-131 322.25,-131 328.25,-137 328.25,-143 328.25,-143 328.25,-155 328.25,-155 328.25,-161 322.25,-167 316.25,-167"/>
<text xml:space="preserve" text-anchor="middle" x="301.25" y="-145.5" font-family="Arial" font-size="10.00" fill="white">OpenAI</text>
</g>
<!-- select&#45;&gt;p_openai -->
<g id="edge12" class="edge">
<title>select&#45;&gt;p_openai</title>
<path fill="none" stroke="#7c3aed" stroke-width="1.5" d="M350.75,-224.75C350.75,-196.03 350.75,-143.5 350.75,-143.5 350.75,-143.5 340.88,-143.5 340.88,-143.5"/>
<polygon fill="#7c3aed" stroke="#7c3aed" stroke-width="1.5" points="340.88,-140 330.88,-143.5 340.88,-147 340.88,-140"/>
</g>
<!-- p_anthropic -->
<g id="node14" class="node">
<title>p_anthropic</title>
<path fill="#7c3aed" stroke="black" d="M409.88,-167C409.88,-167 376.62,-167 376.62,-167 370.62,-167 364.62,-161 364.62,-155 364.62,-155 364.62,-143 364.62,-143 364.62,-137 370.62,-131 376.62,-131 376.62,-131 409.88,-131 409.88,-131 415.88,-131 421.88,-137 421.88,-143 421.88,-143 421.88,-155 421.88,-155 421.88,-161 415.88,-167 409.88,-167"/>
<text xml:space="preserve" text-anchor="middle" x="393.25" y="-145.5" font-family="Arial" font-size="10.00" fill="white">Anthropic</text>
</g>
<!-- select&#45;&gt;p_anthropic -->
<g id="edge14" class="edge">
<title>select&#45;&gt;p_anthropic</title>
<path fill="none" stroke="#7c3aed" stroke-width="1.5" d="M393.25,-224.88C393.25,-224.88 393.25,-179.66 393.25,-179.66"/>
<polygon fill="#7c3aed" stroke="#7c3aed" stroke-width="1.5" points="396.75,-179.66 393.25,-169.66 389.75,-179.66 396.75,-179.66"/>
</g>
<!-- p_deepseek -->
<g id="node15" class="node">
<title>p_deepseek</title>
<path fill="#7c3aed" stroke="black" d="M508.12,-167C508.12,-167 470.38,-167 470.38,-167 464.38,-167 458.38,-161 458.38,-155 458.38,-155 458.38,-143 458.38,-143 458.38,-137 464.38,-131 470.38,-131 470.38,-131 508.12,-131 508.12,-131 514.12,-131 520.12,-137 520.12,-143 520.12,-143 520.12,-155 520.12,-155 520.12,-161 514.12,-167 508.12,-167"/>
<text xml:space="preserve" text-anchor="middle" x="489.25" y="-145.5" font-family="Arial" font-size="10.00" fill="white">DeepSeek</text>
</g>
<!-- select&#45;&gt;p_deepseek -->
<g id="edge16" class="edge">
<title>select&#45;&gt;p_deepseek</title>
<path fill="none" stroke="#7c3aed" stroke-width="1.5" d="M440.38,-224.75C440.38,-196.03 440.38,-143.5 440.38,-143.5 440.38,-143.5 445.75,-143.5 445.75,-143.5"/>
<polygon fill="#7c3aed" stroke="#7c3aed" stroke-width="1.5" points="445.75,-147 455.75,-143.5 445.75,-140 445.75,-147"/>
</g>
<!-- p_groq -->
<g id="node16" class="node">
<title>p_groq</title>
<path fill="#7c3aed" stroke="black" d="M598.25,-167C598.25,-167 568.25,-167 568.25,-167 562.25,-167 556.25,-161 556.25,-155 556.25,-155 556.25,-143 556.25,-143 556.25,-137 562.25,-131 568.25,-131 568.25,-131 598.25,-131 598.25,-131 604.25,-131 610.25,-137 610.25,-143 610.25,-143 610.25,-155 610.25,-155 610.25,-161 604.25,-167 598.25,-167"/>
<text xml:space="preserve" text-anchor="middle" x="583.25" y="-145.5" font-family="Arial" font-size="10.00" fill="white">Groq</text>
</g>
<!-- select&#45;&gt;p_groq -->
<g id="edge18" class="edge">
<title>select&#45;&gt;p_groq</title>
<path fill="none" stroke="#7c3aed" stroke-width="1.5" d="M450.03,-243.5C509.16,-243.5 593.25,-243.5 593.25,-243.5 593.25,-243.5 593.25,-179.49 593.25,-179.49"/>
<polygon fill="#7c3aed" stroke="#7c3aed" stroke-width="1.5" points="596.75,-179.49 593.25,-169.49 589.75,-179.49 596.75,-179.49"/>
</g>
<!-- s_cost -->
<g id="node7" class="node">
<title>s_cost</title>
<path fill="#fef3c7" stroke="black" d="M217.25,-483.25C217.25,-483.25 187.25,-483.25 187.25,-483.25 181.25,-483.25 175.25,-477.25 175.25,-471.25 175.25,-471.25 175.25,-459.25 175.25,-459.25 175.25,-453.25 181.25,-447.25 187.25,-447.25 187.25,-447.25 217.25,-447.25 217.25,-447.25 223.25,-447.25 229.25,-453.25 229.25,-459.25 229.25,-459.25 229.25,-471.25 229.25,-471.25 229.25,-477.25 223.25,-483.25 217.25,-483.25"/>
<text xml:space="preserve" text-anchor="middle" x="202.25" y="-461.95" font-family="Arial" font-size="9.00" fill="#92400e">cost&#45;first</text>
</g>
<!-- s_cost&#45;&gt;route -->
<g id="edge6" class="edge">
<title>s_cost&#45;&gt;route</title>
<path fill="none" stroke="#ea580c" stroke-dasharray="5,2" d="M202.25,-447.18C202.25,-417.45 202.25,-361.5 202.25,-361.5 202.25,-361.5 342.62,-361.5 342.62,-361.5"/>
<polygon fill="#ea580c" stroke="#ea580c" points="342.62,-365 352.62,-361.5 342.62,-358 342.62,-365"/>
</g>
<!-- s_latency -->
<g id="node8" class="node">
<title>s_latency</title>
<path fill="#fef3c7" stroke="black" d="M315.5,-483.25C315.5,-483.25 277,-483.25 277,-483.25 271,-483.25 265,-477.25 265,-471.25 265,-471.25 265,-459.25 265,-459.25 265,-453.25 271,-447.25 277,-447.25 277,-447.25 315.5,-447.25 315.5,-447.25 321.5,-447.25 327.5,-453.25 327.5,-459.25 327.5,-459.25 327.5,-471.25 327.5,-471.25 327.5,-477.25 321.5,-483.25 315.5,-483.25"/>
<text xml:space="preserve" text-anchor="middle" x="296.25" y="-461.95" font-family="Arial" font-size="9.00" fill="#92400e">latency&#45;first</text>
</g>
<!-- s_latency&#45;&gt;route -->
<g id="edge7" class="edge">
<title>s_latency&#45;&gt;route</title>
<path fill="none" stroke="#ea580c" stroke-dasharray="5,2" d="M327.88,-465.5C339.36,-465.5 349.56,-465.5 349.56,-465.5 349.56,-465.5 349.56,-370.38 349.56,-370.38"/>
<polygon fill="#ea580c" stroke="#ea580c" points="353.06,-370.38 349.56,-360.38 346.06,-370.38 353.06,-370.38"/>
</g>
<!-- s_quality -->
<g id="node9" class="node">
<title>s_quality</title>
<path fill="#fef3c7" stroke="black" d="M411.38,-483.25C411.38,-483.25 375.12,-483.25 375.12,-483.25 369.12,-483.25 363.12,-477.25 363.12,-471.25 363.12,-471.25 363.12,-459.25 363.12,-459.25 363.12,-453.25 369.12,-447.25 375.12,-447.25 375.12,-447.25 411.38,-447.25 411.38,-447.25 417.38,-447.25 423.38,-453.25 423.38,-459.25 423.38,-459.25 423.38,-471.25 423.38,-471.25 423.38,-477.25 417.38,-483.25 411.38,-483.25"/>
<text xml:space="preserve" text-anchor="middle" x="393.25" y="-461.95" font-family="Arial" font-size="9.00" fill="#92400e">quality&#45;first</text>
</g>
<!-- s_quality&#45;&gt;route -->
<g id="edge8" class="edge">
<title>s_quality&#45;&gt;route</title>
<path fill="none" stroke="#ea580c" stroke-dasharray="5,2" d="M393.25,-446.89C393.25,-446.89 393.25,-394.66 393.25,-394.66"/>
<polygon fill="#ea580c" stroke="#ea580c" points="396.75,-394.66 393.25,-384.66 389.75,-394.66 396.75,-394.66"/>
</g>
<!-- s_roundrobin -->
<g id="node10" class="node">
<title>s_roundrobin</title>
<path fill="#fef3c7" stroke="black" d="M511.25,-483.25C511.25,-483.25 471.25,-483.25 471.25,-483.25 465.25,-483.25 459.25,-477.25 459.25,-471.25 459.25,-471.25 459.25,-459.25 459.25,-459.25 459.25,-453.25 465.25,-447.25 471.25,-447.25 471.25,-447.25 511.25,-447.25 511.25,-447.25 517.25,-447.25 523.25,-453.25 523.25,-459.25 523.25,-459.25 523.25,-471.25 523.25,-471.25 523.25,-477.25 517.25,-483.25 511.25,-483.25"/>
<text xml:space="preserve" text-anchor="middle" x="491.25" y="-461.95" font-family="Arial" font-size="9.00" fill="#92400e">round&#45;robin</text>
</g>
<!-- s_roundrobin&#45;&gt;route -->
<g id="edge9" class="edge">
<title>s_roundrobin&#45;&gt;route</title>
<path fill="none" stroke="#ea580c" stroke-dasharray="5,2" d="M459.03,-465.5C447.33,-465.5 436.94,-465.5 436.94,-465.5 436.94,-465.5 436.94,-370.38 436.94,-370.38"/>
<polygon fill="#ea580c" stroke="#ea580c" points="440.44,-370.38 436.94,-360.38 433.44,-370.38 440.44,-370.38"/>
</g>
<!-- s_fallback -->
<g id="node11" class="node">
<title>s_fallback</title>
<path fill="#fef3c7" stroke="black" d="M601.25,-483.25C601.25,-483.25 571.25,-483.25 571.25,-483.25 565.25,-483.25 559.25,-477.25 559.25,-471.25 559.25,-471.25 559.25,-459.25 559.25,-459.25 559.25,-453.25 565.25,-447.25 571.25,-447.25 571.25,-447.25 601.25,-447.25 601.25,-447.25 607.25,-447.25 613.25,-453.25 613.25,-459.25 613.25,-459.25 613.25,-471.25 613.25,-471.25 613.25,-477.25 607.25,-483.25 601.25,-483.25"/>
<text xml:space="preserve" text-anchor="middle" x="586.25" y="-461.95" font-family="Arial" font-size="9.00" fill="#92400e">fallback</text>
</g>
<!-- s_fallback&#45;&gt;route -->
<g id="edge10" class="edge">
<title>s_fallback&#45;&gt;route</title>
<path fill="none" stroke="#ea580c" stroke-dasharray="5,2" d="M576.25,-447.18C576.25,-417.45 576.25,-361.5 576.25,-361.5 576.25,-361.5 444.02,-361.5 444.02,-361.5"/>
<polygon fill="#ea580c" stroke="#ea580c" points="444.02,-358 434.02,-361.5 444.02,-365 444.02,-358"/>
</g>
<!-- s_autocombo -->
<g id="node12" class="node">
<title>s_autocombo</title>
<path fill="#fef3c7" stroke="black" d="M701.62,-483.25C701.62,-483.25 660.88,-483.25 660.88,-483.25 654.88,-483.25 648.88,-477.25 648.88,-471.25 648.88,-471.25 648.88,-459.25 648.88,-459.25 648.88,-453.25 654.88,-447.25 660.88,-447.25 660.88,-447.25 701.62,-447.25 701.62,-447.25 707.62,-447.25 713.62,-453.25 713.62,-459.25 713.62,-459.25 713.62,-471.25 713.62,-471.25 713.62,-477.25 707.62,-483.25 701.62,-483.25"/>
<text xml:space="preserve" text-anchor="middle" x="681.25" y="-461.95" font-family="Arial" font-size="9.00" fill="#92400e">auto&#45;combo</text>
</g>
<!-- s_autocombo&#45;&gt;route -->
<g id="edge11" class="edge">
<title>s_autocombo&#45;&gt;route</title>
<path fill="none" stroke="#ea580c" stroke-dasharray="5,2" d="M681.25,-446.84C681.25,-412.14 681.25,-340.5 681.25,-340.5 681.25,-340.5 444.2,-340.5 444.2,-340.5"/>
<polygon fill="#ea580c" stroke="#ea580c" points="444.2,-337 434.2,-340.5 444.2,-344 444.2,-337"/>
</g>
<!-- p_openai&#45;&gt;aggregate -->
<g id="edge13" class="edge">
<title>p_openai&#45;&gt;aggregate</title>
<path fill="none" stroke="#7c3aed" stroke-width="1.5" stroke-dasharray="5,2" d="M328.34,-155.5C330.65,-155.5 332.12,-155.5 332.12,-155.5 332.12,-155.5 332.12,-85.51 332.12,-85.51"/>
<polygon fill="#7c3aed" stroke="#7c3aed" stroke-width="1.5" points="335.63,-85.51 332.13,-75.51 328.63,-85.51 335.63,-85.51"/>
</g>
<!-- p_anthropic&#45;&gt;aggregate -->
<g id="edge15" class="edge">
<title>p_anthropic&#45;&gt;aggregate</title>
<path fill="none" stroke="#7c3aed" stroke-width="1.5" stroke-dasharray="5,2" d="M393.25,-130.61C393.25,-130.61 393.25,-85.71 393.25,-85.71"/>
<polygon fill="#7c3aed" stroke="#7c3aed" stroke-width="1.5" points="396.75,-85.71 393.25,-75.71 389.75,-85.71 396.75,-85.71"/>
</g>
<!-- p_deepseek&#45;&gt;aggregate -->
<g id="edge17" class="edge">
<title>p_deepseek&#45;&gt;aggregate</title>
<path fill="none" stroke="#7c3aed" stroke-width="1.5" stroke-dasharray="5,2" d="M457.9,-155.5C455.77,-155.5 454.44,-155.5 454.44,-155.5 454.44,-155.5 454.44,-85.51 454.44,-85.51"/>
<polygon fill="#7c3aed" stroke="#7c3aed" stroke-width="1.5" points="457.94,-85.51 454.44,-75.51 450.94,-85.51 457.94,-85.51"/>
</g>
<!-- p_groq&#45;&gt;aggregate -->
<g id="edge19" class="edge">
<title>p_groq&#45;&gt;aggregate</title>
<path fill="none" stroke="#7c3aed" stroke-width="1.5" stroke-dasharray="5,2" d="M583.25,-130.57C583.25,-101.55 583.25,-48.5 583.25,-48.5 583.25,-48.5 474.38,-48.5 474.38,-48.5"/>
<polygon fill="#7c3aed" stroke="#7c3aed" stroke-width="1.5" points="474.38,-45 464.38,-48.5 474.38,-52 474.38,-45"/>
</g>
</g>
</svg>
