<?xml version="1.0" encoding="UTF-8" standalone="no"?>
<!DOCTYPE svg PUBLIC "-//W3C//DTD SVG 1.1//EN"
 "http://www.w3.org/Graphics/SVG/1.1/DTD/svg11.dtd">
<!-- Generated by graphviz version 14.1.4 (20260321.0153)
 -->
<!-- Title: sql_roadmap Pages: 1 -->
<svg width="2227pt" height="633pt"
 viewBox="0.00 0.00 2227.00 633.00" xmlns="http://www.w3.org/2000/svg" xmlns:xlink="http://www.w3.org/1999/xlink">
<style>
text { paint-order: stroke; stroke: #ffffff; stroke-width: 3px; stroke-linejoin: round; fill: #1a1a2e; }
</style>
<g id="graph0" class="graph" transform="scale(1 1) rotate(0) translate(4 628.5)">
<title>sql_roadmap</title>
<polygon fill="white" stroke="none" points="-4,4 -4,-628.5 2223,-628.5 2223,4 -4,4"/>
<text xml:space="preserve" text-anchor="middle" x="1109.5" y="-7.2" font-family="Times New Roman,serif" font-size="14.00">SQL Learning Roadmap &#45; 5 Stages</text>
<!-- title -->
<g id="node1" class="node">
<title>title</title>
<path fill="#0d47a1" stroke="black" d="M499.5,-624.5C499.5,-624.5 352.25,-624.5 352.25,-624.5 346.25,-624.5 340.25,-618.5 340.25,-612.5 340.25,-612.5 340.25,-600.5 340.25,-600.5 340.25,-594.5 346.25,-588.5 352.25,-588.5 352.25,-588.5 499.5,-588.5 499.5,-588.5 505.5,-588.5 511.5,-594.5 511.5,-600.5 511.5,-600.5 511.5,-612.5 511.5,-612.5 511.5,-618.5 505.5,-624.5 499.5,-624.5"/>
<text xml:space="preserve" text-anchor="middle" x="425.88" y="-601.08" font-family="Arial Bold" font-size="14.00" fill="#ffffff">SQL Learning Roadmap</text>
</g>
<!-- s1 -->
<g id="node2" class="node">
<title>s1</title>
<path fill="#1976d2" stroke="black" d="M481.88,-530.5C481.88,-530.5 369.88,-530.5 369.88,-530.5 363.88,-530.5 357.88,-524.5 357.88,-518.5 357.88,-518.5 357.88,-506.5 357.88,-506.5 357.88,-500.5 363.88,-494.5 369.88,-494.5 369.88,-494.5 481.88,-494.5 481.88,-494.5 487.88,-494.5 493.88,-500.5 493.88,-506.5 493.88,-506.5 493.88,-518.5 493.88,-518.5 493.88,-524.5 487.88,-530.5 481.88,-530.5"/>
<text xml:space="preserve" text-anchor="middle" x="425.88" y="-508.8" font-family="Arial Bold" font-size="11.00" fill="#ffffff">Stage 1: Fundamentals</text>
</g>
<!-- title&#45;&gt;s1 -->
<g id="edge1" class="edge">
<title>title&#45;&gt;s1</title>
<path fill="none" stroke="#2e7d32" stroke-width="2" d="M425.88,-588.38C425.88,-588.38 425.88,-543.92 425.88,-543.92"/>
<polygon fill="#2e7d32" stroke="#2e7d32" stroke-width="2" points="429.38,-543.92 425.88,-533.92 422.38,-543.92 429.38,-543.92"/>
</g>
<!-- s1_0 -->
<g id="node3" class="node">
<title>s1_0</title>
<path fill="#bbdefb" stroke="black" d="M121.75,-436.5C121.75,-436.5 12,-436.5 12,-436.5 6,-436.5 0,-430.5 0,-424.5 0,-424.5 0,-412.5 0,-412.5 0,-406.5 6,-400.5 12,-400.5 12,-400.5 121.75,-400.5 121.75,-400.5 127.75,-400.5 133.75,-406.5 133.75,-412.5 133.75,-412.5 133.75,-424.5 133.75,-424.5 133.75,-430.5 127.75,-436.5 121.75,-436.5"/>
<text xml:space="preserve" text-anchor="middle" x="66.88" y="-415" font-family="Arial" font-size="10.00" fill="#1a1a2e">SELECT, FROM, WHERE</text>
</g>
<!-- s1&#45;&gt;s1_0 -->
<g id="edge2" class="edge">
<title>s1&#45;&gt;s1_0</title>
<path fill="none" stroke="#2e7d32" stroke-width="1.5" d="M357.5,-518.5C253.34,-518.5 66.88,-518.5 66.88,-518.5 66.88,-518.5 66.88,-449.11 66.88,-449.11"/>
<polygon fill="#2e7d32" stroke="#2e7d32" stroke-width="1.5" points="70.38,-449.11 66.88,-439.11 63.38,-449.11 70.38,-449.11"/>
</g>
<!-- s1_1 -->
<g id="node4" class="node">
<title>s1_1</title>
<path fill="#bbdefb" stroke="black" d="M305.88,-436.5C305.88,-436.5 181.88,-436.5 181.88,-436.5 175.88,-436.5 169.88,-430.5 169.88,-424.5 169.88,-424.5 169.88,-412.5 169.88,-412.5 169.88,-406.5 175.88,-400.5 181.88,-400.5 181.88,-400.5 305.88,-400.5 305.88,-400.5 311.88,-400.5 317.88,-406.5 317.88,-412.5 317.88,-412.5 317.88,-424.5 317.88,-424.5 317.88,-430.5 311.88,-436.5 305.88,-436.5"/>
<text xml:space="preserve" text-anchor="middle" x="243.88" y="-415" font-family="Arial" font-size="10.00" fill="#1a1a2e">Data types: INT, TEXT, DATE</text>
</g>
<!-- s1&#45;&gt;s1_1 -->
<g id="edge3" class="edge">
<title>s1&#45;&gt;s1_1</title>
<path fill="none" stroke="#2e7d32" stroke-width="1.5" d="M357.59,-506.5C305.94,-506.5 243.88,-506.5 243.88,-506.5 243.88,-506.5 243.88,-449 243.88,-449"/>
<polygon fill="#2e7d32" stroke="#2e7d32" stroke-width="1.5" points="247.38,-449 243.88,-439 240.38,-449 247.38,-449"/>
</g>
<!-- s1_2 -->
<g id="node5" class="node">
<title>s1_2</title>
<path fill="#bbdefb" stroke="black" d="M485.62,-436.5C485.62,-436.5 366.12,-436.5 366.12,-436.5 360.12,-436.5 354.12,-430.5 354.12,-424.5 354.12,-424.5 354.12,-412.5 354.12,-412.5 354.12,-406.5 360.12,-400.5 366.12,-400.5 366.12,-400.5 485.62,-400.5 485.62,-400.5 491.62,-400.5 497.62,-406.5 497.62,-412.5 497.62,-412.5 497.62,-424.5 497.62,-424.5 497.62,-430.5 491.62,-436.5 485.62,-436.5"/>
<text xml:space="preserve" text-anchor="middle" x="425.88" y="-415" font-family="Arial" font-size="10.00" fill="#1a1a2e">INSERT, UPDATE, DELETE</text>
</g>
<!-- s1&#45;&gt;s1_2 -->
<g id="edge4" class="edge">
<title>s1&#45;&gt;s1_2</title>
<path fill="none" stroke="#2e7d32" stroke-width="1.5" d="M425.88,-494.38C425.88,-494.38 425.88,-449.16 425.88,-449.16"/>
<polygon fill="#2e7d32" stroke="#2e7d32" stroke-width="1.5" points="429.38,-449.16 425.88,-439.16 422.38,-449.16 429.38,-449.16"/>
</g>
<!-- s1_3 -->
<g id="node6" class="node">
<title>s1_3</title>
<path fill="#bbdefb" stroke="black" d="M673.75,-436.5C673.75,-436.5 546,-436.5 546,-436.5 540,-436.5 534,-430.5 534,-424.5 534,-424.5 534,-412.5 534,-412.5 534,-406.5 540,-400.5 546,-400.5 546,-400.5 673.75,-400.5 673.75,-400.5 679.75,-400.5 685.75,-406.5 685.75,-412.5 685.75,-412.5 685.75,-424.5 685.75,-424.5 685.75,-430.5 679.75,-436.5 673.75,-436.5"/>
<text xml:space="preserve" text-anchor="middle" x="609.88" y="-415" font-family="Arial" font-size="10.00" fill="#1a1a2e">ORDER BY, LIMIT, DISTINCT</text>
</g>
<!-- s1&#45;&gt;s1_3 -->
<g id="edge5" class="edge">
<title>s1&#45;&gt;s1_3</title>
<path fill="none" stroke="#2e7d32" stroke-width="1.5" d="M494.13,-506.5C546.49,-506.5 609.88,-506.5 609.88,-506.5 609.88,-506.5 609.88,-449 609.88,-449"/>
<polygon fill="#2e7d32" stroke="#2e7d32" stroke-width="1.5" points="613.38,-449 609.88,-439 606.38,-449 613.38,-449"/>
</g>
<!-- s2 -->
<g id="node7" class="node">
<title>s2</title>
<path fill="#1976d2" stroke="black" d="M862.12,-436.5C862.12,-436.5 733.62,-436.5 733.62,-436.5 727.62,-436.5 721.62,-430.5 721.62,-424.5 721.62,-424.5 721.62,-412.5 721.62,-412.5 721.62,-406.5 727.62,-400.5 733.62,-400.5 733.62,-400.5 862.12,-400.5 862.12,-400.5 868.12,-400.5 874.12,-406.5 874.12,-412.5 874.12,-412.5 874.12,-424.5 874.12,-424.5 874.12,-430.5 868.12,-436.5 862.12,-436.5"/>
<text xml:space="preserve" text-anchor="middle" x="797.88" y="-414.8" font-family="Arial Bold" font-size="11.00" fill="#ffffff">Stage 2: Joins + Grouping</text>
</g>
<!-- s1&#45;&gt;s2 -->
<g id="edge6" class="edge">
<title>s1&#45;&gt;s2</title>
<path fill="none" stroke="#00838f" stroke-width="2" d="M494.11,-518.5C601.5,-518.5 797.88,-518.5 797.88,-518.5 797.88,-518.5 797.88,-449.87 797.88,-449.87"/>
<polygon fill="#00838f" stroke="#00838f" stroke-width="2" points="801.38,-449.87 797.88,-439.87 794.38,-449.87 801.38,-449.87"/>
</g>
<!-- s2_0 -->
<g id="node8" class="node">
<title>s2_0</title>
<path fill="#bbdefb" stroke="black" d="M527.38,-342.5C527.38,-342.5 388.38,-342.5 388.38,-342.5 382.38,-342.5 376.38,-336.5 376.38,-330.5 376.38,-330.5 376.38,-318.5 376.38,-318.5 376.38,-312.5 382.38,-306.5 388.38,-306.5 388.38,-306.5 527.38,-306.5 527.38,-306.5 533.38,-306.5 539.38,-312.5 539.38,-318.5 539.38,-318.5 539.38,-330.5 539.38,-330.5 539.38,-336.5 533.38,-342.5 527.38,-342.5"/>
<text xml:space="preserve" text-anchor="middle" x="457.88" y="-321" font-family="Arial" font-size="10.00" fill="#1a1a2e">INNER/LEFT/RIGHT/FULL JOIN</text>
</g>
<!-- s2&#45;&gt;s2_0 -->
<g id="edge7" class="edge">
<title>s2&#45;&gt;s2_0</title>
<path fill="none" stroke="#00838f" stroke-width="1.5" d="M728,-400.19C728,-387 728,-371.5 728,-371.5 728,-371.5 522.75,-371.5 522.75,-371.5 522.75,-371.5 522.75,-355.08 522.75,-355.08"/>
<polygon fill="#00838f" stroke="#00838f" stroke-width="1.5" points="526.25,-355.08 522.75,-345.08 519.25,-355.08 526.25,-355.08"/>
</g>
<!-- s2_1 -->
<g id="node9" class="node">
<title>s2_1</title>
<path fill="#bbdefb" stroke="black" d="M692.5,-342.5C692.5,-342.5 587.25,-342.5 587.25,-342.5 581.25,-342.5 575.25,-336.5 575.25,-330.5 575.25,-330.5 575.25,-318.5 575.25,-318.5 575.25,-312.5 581.25,-306.5 587.25,-306.5 587.25,-306.5 692.5,-306.5 692.5,-306.5 698.5,-306.5 704.5,-312.5 704.5,-318.5 704.5,-318.5 704.5,-330.5 704.5,-330.5 704.5,-336.5 698.5,-342.5 692.5,-342.5"/>
<text xml:space="preserve" text-anchor="middle" x="639.88" y="-321" font-family="Arial" font-size="10.00" fill="#1a1a2e">GROUP BY + aggregates</text>
</g>
<!-- s2&#45;&gt;s2_1 -->
<g id="edge8" class="edge">
<title>s2&#45;&gt;s2_1</title>
<path fill="none" stroke="#00838f" stroke-width="1.5" d="M734.38,-400.38C734.38,-373.06 734.38,-324.5 734.38,-324.5 734.38,-324.5 717.26,-324.5 717.26,-324.5"/>
<polygon fill="#00838f" stroke="#00838f" stroke-width="1.5" points="717.26,-321 707.26,-324.5 717.26,-328 717.26,-321"/>
</g>
<!-- s2_2 -->
<g id="node10" class="node">
<title>s2_2</title>
<path fill="#bbdefb" stroke="black" d="M843,-342.5C843,-342.5 752.75,-342.5 752.75,-342.5 746.75,-342.5 740.75,-336.5 740.75,-330.5 740.75,-330.5 740.75,-318.5 740.75,-318.5 740.75,-312.5 746.75,-306.5 752.75,-306.5 752.75,-306.5 843,-306.5 843,-306.5 849,-306.5 855,-312.5 855,-318.5 855,-318.5 855,-330.5 855,-330.5 855,-336.5 849,-342.5 843,-342.5"/>
<text xml:space="preserve" text-anchor="middle" x="797.88" y="-321" font-family="Arial" font-size="10.00" fill="#1a1a2e">HAVING (filter groups)</text>
</g>
<!-- s2&#45;&gt;s2_2 -->
<g id="edge9" class="edge">
<title>s2&#45;&gt;s2_2</title>
<path fill="none" stroke="#00838f" stroke-width="1.5" d="M797.88,-400.38C797.88,-400.38 797.88,-355.16 797.88,-355.16"/>
<polygon fill="#00838f" stroke="#00838f" stroke-width="1.5" points="801.38,-355.16 797.88,-345.16 794.38,-355.16 801.38,-355.16"/>
</g>
<!-- s2_3 -->
<g id="node11" class="node">
<title>s2_3</title>
<path fill="#bbdefb" stroke="black" d="M1002.5,-342.5C1002.5,-342.5 903.25,-342.5 903.25,-342.5 897.25,-342.5 891.25,-336.5 891.25,-330.5 891.25,-330.5 891.25,-318.5 891.25,-318.5 891.25,-312.5 897.25,-306.5 903.25,-306.5 903.25,-306.5 1002.5,-306.5 1002.5,-306.5 1008.5,-306.5 1014.5,-312.5 1014.5,-318.5 1014.5,-318.5 1014.5,-330.5 1014.5,-330.5 1014.5,-336.5 1008.5,-342.5 1002.5,-342.5"/>
<text xml:space="preserve" text-anchor="middle" x="952.88" y="-321" font-family="Arial" font-size="10.00" fill="#1a1a2e">Subqueries, EXISTS, IN</text>
</g>
<!-- s2&#45;&gt;s2_3 -->
<g id="edge10" class="edge">
<title>s2&#45;&gt;s2_3</title>
<path fill="none" stroke="#00838f" stroke-width="1.5" d="M865.31,-400.38C865.31,-373.06 865.31,-324.5 865.31,-324.5 865.31,-324.5 878.84,-324.5 878.84,-324.5"/>
<polygon fill="#00838f" stroke="#00838f" stroke-width="1.5" points="878.84,-328 888.84,-324.5 878.84,-321 878.84,-328"/>
</g>
<!-- s3 -->
<g id="node12" class="node">
<title>s3</title>
<path fill="#1976d2" stroke="black" d="M1216.88,-342.5C1216.88,-342.5 1062.88,-342.5 1062.88,-342.5 1056.88,-342.5 1050.88,-336.5 1050.88,-330.5 1050.88,-330.5 1050.88,-318.5 1050.88,-318.5 1050.88,-312.5 1056.88,-306.5 1062.88,-306.5 1062.88,-306.5 1216.88,-306.5 1216.88,-306.5 1222.88,-306.5 1228.88,-312.5 1228.88,-318.5 1228.88,-318.5 1228.88,-330.5 1228.88,-330.5 1228.88,-336.5 1222.88,-342.5 1216.88,-342.5"/>
<text xml:space="preserve" text-anchor="middle" x="1139.88" y="-320.8" font-family="Arial Bold" font-size="11.00" fill="#ffffff">Stage 3: Schema + Constraints</text>
</g>
<!-- s2&#45;&gt;s3 -->
<g id="edge11" class="edge">
<title>s2&#45;&gt;s3</title>
<path fill="none" stroke="#ef6c00" stroke-width="2" d="M874.2,-418.5C975,-418.5 1139.88,-418.5 1139.88,-418.5 1139.88,-418.5 1139.88,-355.65 1139.88,-355.65"/>
<polygon fill="#ef6c00" stroke="#ef6c00" stroke-width="2" points="1143.38,-355.65 1139.88,-345.65 1136.38,-355.65 1143.38,-355.65"/>
</g>
<!-- s3_0 -->
<g id="node13" class="node">
<title>s3_0</title>
<path fill="#bbdefb" stroke="black" d="M844.5,-248.5C844.5,-248.5 733.25,-248.5 733.25,-248.5 727.25,-248.5 721.25,-242.5 721.25,-236.5 721.25,-236.5 721.25,-224.5 721.25,-224.5 721.25,-218.5 727.25,-212.5 733.25,-212.5 733.25,-212.5 844.5,-212.5 844.5,-212.5 850.5,-212.5 856.5,-218.5 856.5,-224.5 856.5,-224.5 856.5,-236.5 856.5,-236.5 856.5,-242.5 850.5,-248.5 844.5,-248.5"/>
<text xml:space="preserve" text-anchor="middle" x="788.88" y="-227" font-family="Arial" font-size="10.00" fill="#1a1a2e">CREATE TABLE, schemas</text>
</g>
<!-- s3&#45;&gt;s3_0 -->
<g id="edge12" class="edge">
<title>s3&#45;&gt;s3_0</title>
<path fill="none" stroke="#ef6c00" stroke-width="1.5" d="M1057.06,-306.19C1057.06,-293 1057.06,-277.5 1057.06,-277.5 1057.06,-277.5 797.88,-277.5 797.88,-277.5 797.88,-277.5 797.88,-261.08 797.88,-261.08"/>
<polygon fill="#ef6c00" stroke="#ef6c00" stroke-width="1.5" points="801.38,-261.08 797.88,-251.08 794.38,-261.08 801.38,-261.08"/>
</g>
<!-- s3_1 -->
<g id="node14" class="node">
<title>s3_1</title>
<path fill="#bbdefb" stroke="black" d="M1014.75,-248.5C1014.75,-248.5 905,-248.5 905,-248.5 899,-248.5 893,-242.5 893,-236.5 893,-236.5 893,-224.5 893,-224.5 893,-218.5 899,-212.5 905,-212.5 905,-212.5 1014.75,-212.5 1014.75,-212.5 1020.75,-212.5 1026.75,-218.5 1026.75,-224.5 1026.75,-224.5 1026.75,-236.5 1026.75,-236.5 1026.75,-242.5 1020.75,-248.5 1014.75,-248.5"/>
<text xml:space="preserve" text-anchor="middle" x="959.88" y="-227" font-family="Arial" font-size="10.00" fill="#1a1a2e">PRIMARY/FOREIGN KEY</text>
</g>
<!-- s3&#45;&gt;s3_1 -->
<g id="edge13" class="edge">
<title>s3&#45;&gt;s3_1</title>
<path fill="none" stroke="#ef6c00" stroke-width="1.5" d="M1050.41,-324.5C1033.31,-324.5 1020.62,-324.5 1020.62,-324.5 1020.62,-324.5 1020.62,-260.89 1020.62,-260.89"/>
<polygon fill="#ef6c00" stroke="#ef6c00" stroke-width="1.5" points="1024.13,-260.89 1020.63,-250.89 1017.13,-260.89 1024.13,-260.89"/>
</g>
<!-- s3_2 -->
<g id="node15" class="node">
<title>s3_2</title>
<path fill="#bbdefb" stroke="black" d="M1204.5,-248.5C1204.5,-248.5 1075.25,-248.5 1075.25,-248.5 1069.25,-248.5 1063.25,-242.5 1063.25,-236.5 1063.25,-236.5 1063.25,-224.5 1063.25,-224.5 1063.25,-218.5 1069.25,-212.5 1075.25,-212.5 1075.25,-212.5 1204.5,-212.5 1204.5,-212.5 1210.5,-212.5 1216.5,-218.5 1216.5,-224.5 1216.5,-224.5 1216.5,-236.5 1216.5,-236.5 1216.5,-242.5 1210.5,-248.5 1204.5,-248.5"/>
<text xml:space="preserve" text-anchor="middle" x="1139.88" y="-227" font-family="Arial" font-size="10.00" fill="#1a1a2e">UNIQUE, NOT NULL, CHECK</text>
</g>
<!-- s3&#45;&gt;s3_2 -->
<g id="edge14" class="edge">
<title>s3&#45;&gt;s3_2</title>
<path fill="none" stroke="#ef6c00" stroke-width="1.5" d="M1139.88,-306.38C1139.88,-306.38 1139.88,-261.16 1139.88,-261.16"/>
<polygon fill="#ef6c00" stroke="#ef6c00" stroke-width="1.5" points="1143.38,-261.16 1139.88,-251.16 1136.38,-261.16 1143.38,-261.16"/>
</g>
<!-- s3_3 -->
<g id="node16" class="node">
<title>s3_3</title>
<path fill="#bbdefb" stroke="black" d="M1339.5,-248.5C1339.5,-248.5 1264.25,-248.5 1264.25,-248.5 1258.25,-248.5 1252.25,-242.5 1252.25,-236.5 1252.25,-236.5 1252.25,-224.5 1252.25,-224.5 1252.25,-218.5 1258.25,-212.5 1264.25,-212.5 1264.25,-212.5 1339.5,-212.5 1339.5,-212.5 1345.5,-212.5 1351.5,-218.5 1351.5,-224.5 1351.5,-224.5 1351.5,-236.5 1351.5,-236.5 1351.5,-242.5 1345.5,-248.5 1339.5,-248.5"/>
<text xml:space="preserve" text-anchor="middle" x="1301.88" y="-227" font-family="Arial" font-size="10.00" fill="#1a1a2e">Indexes, EXPLAIN</text>
</g>
<!-- s3&#45;&gt;s3_3 -->
<g id="edge15" class="edge">
<title>s3&#45;&gt;s3_3</title>
<path fill="none" stroke="#ef6c00" stroke-width="1.5" d="M1222.69,-306.38C1222.69,-279.06 1222.69,-230.5 1222.69,-230.5 1222.69,-230.5 1239.9,-230.5 1239.9,-230.5"/>
<polygon fill="#ef6c00" stroke="#ef6c00" stroke-width="1.5" points="1239.9,-234 1249.9,-230.5 1239.9,-227 1239.9,-234"/>
</g>
<!-- s4 -->
<g id="node17" class="node">
<title>s4</title>
<path fill="#1976d2" stroke="black" d="M1533.75,-248.5C1533.75,-248.5 1400,-248.5 1400,-248.5 1394,-248.5 1388,-242.5 1388,-236.5 1388,-236.5 1388,-224.5 1388,-224.5 1388,-218.5 1394,-212.5 1400,-212.5 1400,-212.5 1533.75,-212.5 1533.75,-212.5 1539.75,-212.5 1545.75,-218.5 1545.75,-224.5 1545.75,-224.5 1545.75,-236.5 1545.75,-236.5 1545.75,-242.5 1539.75,-248.5 1533.75,-248.5"/>
<text xml:space="preserve" text-anchor="middle" x="1466.88" y="-226.8" font-family="Arial Bold" font-size="11.00" fill="#ffffff">Stage 4: Advanced Queries</text>
</g>
<!-- s3&#45;&gt;s4 -->
<g id="edge16" class="edge">
<title>s3&#45;&gt;s4</title>
<path fill="none" stroke="#6a1b9a" stroke-width="2" d="M1229.23,-324.5C1326.05,-324.5 1466.88,-324.5 1466.88,-324.5 1466.88,-324.5 1466.88,-261.65 1466.88,-261.65"/>
<polygon fill="#6a1b9a" stroke="#6a1b9a" stroke-width="2" points="1470.38,-261.65 1466.88,-251.65 1463.38,-261.65 1470.38,-261.65"/>
</g>
<!-- s4_0 -->
<g id="node18" class="node">
<title>s4_0</title>
<path fill="#bbdefb" stroke="black" d="M1165.88,-154.5C1165.88,-154.5 999.88,-154.5 999.88,-154.5 993.88,-154.5 987.88,-148.5 987.88,-142.5 987.88,-142.5 987.88,-130.5 987.88,-130.5 987.88,-124.5 993.88,-118.5 999.88,-118.5 999.88,-118.5 1165.88,-118.5 1165.88,-118.5 1171.88,-118.5 1177.88,-124.5 1177.88,-130.5 1177.88,-130.5 1177.88,-142.5 1177.88,-142.5 1177.88,-148.5 1171.88,-154.5 1165.88,-154.5"/>
<text xml:space="preserve" text-anchor="middle" x="1082.88" y="-133" font-family="Arial" font-size="10.00" fill="#1a1a2e">Window functions (OVER, PARTITION)</text>
</g>
<!-- s4&#45;&gt;s4_0 -->
<g id="edge17" class="edge">
<title>s4&#45;&gt;s4_0</title>
<path fill="none" stroke="#6a1b9a" stroke-width="1.5" d="M1392.62,-212.19C1392.62,-199 1392.62,-183.5 1392.62,-183.5 1392.62,-183.5 1120.56,-183.5 1120.56,-183.5 1120.56,-183.5 1120.56,-167.08 1120.56,-167.08"/>
<polygon fill="#6a1b9a" stroke="#6a1b9a" stroke-width="1.5" points="1124.06,-167.08 1120.56,-157.08 1117.06,-167.08 1124.06,-167.08"/>
</g>
<!-- s4_1 -->
<g id="node19" class="node">
<title>s4_1</title>
<path fill="#bbdefb" stroke="black" d="M1353.38,-154.5C1353.38,-154.5 1226.38,-154.5 1226.38,-154.5 1220.38,-154.5 1214.38,-148.5 1214.38,-142.5 1214.38,-142.5 1214.38,-130.5 1214.38,-130.5 1214.38,-124.5 1220.38,-118.5 1226.38,-118.5 1226.38,-118.5 1353.38,-118.5 1353.38,-118.5 1359.38,-118.5 1365.38,-124.5 1365.38,-130.5 1365.38,-130.5 1365.38,-142.5 1365.38,-142.5 1365.38,-148.5 1359.38,-154.5 1353.38,-154.5"/>
<text xml:space="preserve" text-anchor="middle" x="1289.88" y="-133" font-family="Arial" font-size="10.00" fill="#1a1a2e">CTEs (WITH), recursive CTEs</text>
</g>
<!-- s4&#45;&gt;s4_1 -->
<g id="edge18" class="edge">
<title>s4&#45;&gt;s4_1</title>
<path fill="none" stroke="#6a1b9a" stroke-width="1.5" d="M1397.25,-212.38C1397.25,-185.06 1397.25,-136.5 1397.25,-136.5 1397.25,-136.5 1377.89,-136.5 1377.89,-136.5"/>
<polygon fill="#6a1b9a" stroke="#6a1b9a" stroke-width="1.5" points="1377.89,-133 1367.89,-136.5 1377.89,-140 1377.89,-133"/>
</g>
<!-- s4_2 -->
<g id="node20" class="node">
<title>s4_2</title>
<path fill="#bbdefb" stroke="black" d="M1519.88,-154.5C1519.88,-154.5 1413.88,-154.5 1413.88,-154.5 1407.88,-154.5 1401.88,-148.5 1401.88,-142.5 1401.88,-142.5 1401.88,-130.5 1401.88,-130.5 1401.88,-124.5 1407.88,-118.5 1413.88,-118.5 1413.88,-118.5 1519.88,-118.5 1519.88,-118.5 1525.88,-118.5 1531.88,-124.5 1531.88,-130.5 1531.88,-130.5 1531.88,-142.5 1531.88,-142.5 1531.88,-148.5 1525.88,-154.5 1519.88,-154.5"/>
<text xml:space="preserve" text-anchor="middle" x="1466.88" y="-133" font-family="Arial" font-size="10.00" fill="#1a1a2e">Views, materialized views</text>
</g>
<!-- s4&#45;&gt;s4_2 -->
<g id="edge19" class="edge">
<title>s4&#45;&gt;s4_2</title>
<path fill="none" stroke="#6a1b9a" stroke-width="1.5" d="M1466.88,-212.38C1466.88,-212.38 1466.88,-167.16 1466.88,-167.16"/>
<polygon fill="#6a1b9a" stroke="#6a1b9a" stroke-width="1.5" points="1470.38,-167.16 1466.88,-157.16 1463.38,-167.16 1470.38,-167.16"/>
</g>
<!-- s4_3 -->
<g id="node21" class="node">
<title>s4_3</title>
<path fill="#bbdefb" stroke="black" d="M1749.38,-154.5C1749.38,-154.5 1580.38,-154.5 1580.38,-154.5 1574.38,-154.5 1568.38,-148.5 1568.38,-142.5 1568.38,-142.5 1568.38,-130.5 1568.38,-130.5 1568.38,-124.5 1574.38,-118.5 1580.38,-118.5 1580.38,-118.5 1749.38,-118.5 1749.38,-118.5 1755.38,-118.5 1761.38,-124.5 1761.38,-130.5 1761.38,-130.5 1761.38,-142.5 1761.38,-142.5 1761.38,-148.5 1755.38,-154.5 1749.38,-154.5"/>
<text xml:space="preserve" text-anchor="middle" x="1664.88" y="-133" font-family="Arial" font-size="10.00" fill="#1a1a2e">Set ops: UNION/INTERSECT/EXCEPT</text>
</g>
<!-- s4&#45;&gt;s4_3 -->
<g id="edge20" class="edge">
<title>s4&#45;&gt;s4_3</title>
<path fill="none" stroke="#6a1b9a" stroke-width="1.5" d="M1541.31,-212.38C1541.31,-185.06 1541.31,-136.5 1541.31,-136.5 1541.31,-136.5 1555.85,-136.5 1555.85,-136.5"/>
<polygon fill="#6a1b9a" stroke="#6a1b9a" stroke-width="1.5" points="1555.85,-140 1565.85,-136.5 1555.85,-133 1555.85,-140"/>
</g>
<!-- s5 -->
<g id="node22" class="node">
<title>s5</title>
<path fill="#1976d2" stroke="black" d="M1956.12,-154.5C1956.12,-154.5 1809.62,-154.5 1809.62,-154.5 1803.62,-154.5 1797.62,-148.5 1797.62,-142.5 1797.62,-142.5 1797.62,-130.5 1797.62,-130.5 1797.62,-124.5 1803.62,-118.5 1809.62,-118.5 1809.62,-118.5 1956.12,-118.5 1956.12,-118.5 1962.12,-118.5 1968.12,-124.5 1968.12,-130.5 1968.12,-130.5 1968.12,-142.5 1968.12,-142.5 1968.12,-148.5 1962.12,-154.5 1956.12,-154.5"/>
<text xml:space="preserve" text-anchor="middle" x="1882.88" y="-132.8" font-family="Arial Bold" font-size="11.00" fill="#ffffff">Stage 5: Transactions + Tools</text>
</g>
<!-- s4&#45;&gt;s5 -->
<g id="edge21" class="edge">
<title>s4&#45;&gt;s5</title>
<path fill="none" stroke="#c62828" stroke-width="2" d="M1546.1,-230.5C1666.8,-230.5 1882.88,-230.5 1882.88,-230.5 1882.88,-230.5 1882.88,-167.65 1882.88,-167.65"/>
<polygon fill="#c62828" stroke="#c62828" stroke-width="2" points="1886.38,-167.65 1882.88,-157.65 1879.38,-167.65 1886.38,-167.65"/>
</g>
<!-- s5_0 -->
<g id="node23" class="node">
<title>s5_0</title>
<path fill="#bbdefb" stroke="black" d="M1702.88,-60.5C1702.88,-60.5 1548.88,-60.5 1548.88,-60.5 1542.88,-60.5 1536.88,-54.5 1536.88,-48.5 1536.88,-48.5 1536.88,-36.5 1536.88,-36.5 1536.88,-30.5 1542.88,-24.5 1548.88,-24.5 1548.88,-24.5 1702.88,-24.5 1702.88,-24.5 1708.88,-24.5 1714.88,-30.5 1714.88,-36.5 1714.88,-36.5 1714.88,-48.5 1714.88,-48.5 1714.88,-54.5 1708.88,-60.5 1702.88,-60.5"/>
<text xml:space="preserve" text-anchor="middle" x="1625.88" y="-39" font-family="Arial" font-size="10.00" fill="#1a1a2e">ACID, BEGIN/COMMIT/ROLLBACK</text>
</g>
<!-- s5&#45;&gt;s5_0 -->
<g id="edge22" class="edge">
<title>s5&#45;&gt;s5_0</title>
<path fill="none" stroke="#c62828" stroke-width="1.5" d="M1818.79,-118.19C1818.79,-105 1818.79,-89.5 1818.79,-89.5 1818.79,-89.5 1641.62,-89.5 1641.62,-89.5 1641.62,-89.5 1641.62,-73.08 1641.62,-73.08"/>
<polygon fill="#c62828" stroke="#c62828" stroke-width="1.5" points="1645.13,-73.08 1641.63,-63.08 1638.13,-73.08 1645.13,-73.08"/>
</g>
<!-- s5_1 -->
<g id="node24" class="node">
<title>s5_1</title>
<path fill="#bbdefb" stroke="black" d="M1849.12,-60.5C1849.12,-60.5 1762.62,-60.5 1762.62,-60.5 1756.62,-60.5 1750.62,-54.5 1750.62,-48.5 1750.62,-48.5 1750.62,-36.5 1750.62,-36.5 1750.62,-30.5 1756.62,-24.5 1762.62,-24.5 1762.62,-24.5 1849.12,-24.5 1849.12,-24.5 1855.12,-24.5 1861.12,-30.5 1861.12,-36.5 1861.12,-36.5 1861.12,-48.5 1861.12,-48.5 1861.12,-54.5 1855.12,-60.5 1849.12,-60.5"/>
<text xml:space="preserve" text-anchor="middle" x="1805.88" y="-39" font-family="Arial" font-size="10.00" fill="#1a1a2e">Isolation levels, locks</text>
</g>
<!-- s5&#45;&gt;s5_1 -->
<g id="edge23" class="edge">
<title>s5&#45;&gt;s5_1</title>
<path fill="none" stroke="#c62828" stroke-width="1.5" d="M1839.96,-118.38C1839.96,-118.38 1839.96,-73.16 1839.96,-73.16"/>
<polygon fill="#c62828" stroke="#c62828" stroke-width="1.5" points="1843.46,-73.16 1839.96,-63.16 1836.46,-73.16 1843.46,-73.16"/>
</g>
<!-- s5_2 -->
<g id="node25" class="node">
<title>s5_2</title>
<path fill="#bbdefb" stroke="black" d="M2008.88,-60.5C2008.88,-60.5 1908.88,-60.5 1908.88,-60.5 1902.88,-60.5 1896.88,-54.5 1896.88,-48.5 1896.88,-48.5 1896.88,-36.5 1896.88,-36.5 1896.88,-30.5 1902.88,-24.5 1908.88,-24.5 1908.88,-24.5 2008.88,-24.5 2008.88,-24.5 2014.88,-24.5 2020.88,-30.5 2020.88,-36.5 2020.88,-36.5 2020.88,-48.5 2020.88,-48.5 2020.88,-54.5 2014.88,-60.5 2008.88,-60.5"/>
<text xml:space="preserve" text-anchor="middle" x="1958.88" y="-39" font-family="Arial" font-size="10.00" fill="#1a1a2e">Postgres/MySQL/SQLite</text>
</g>
<!-- s5&#45;&gt;s5_2 -->
<g id="edge24" class="edge">
<title>s5&#45;&gt;s5_2</title>
<path fill="none" stroke="#c62828" stroke-width="1.5" d="M1932.5,-118.38C1932.5,-118.38 1932.5,-73.16 1932.5,-73.16"/>
<polygon fill="#c62828" stroke="#c62828" stroke-width="1.5" points="1936,-73.16 1932.5,-63.16 1929,-73.16 1936,-73.16"/>
</g>
<!-- s5_3 -->
<g id="node26" class="node">
<title>s5_3</title>
<path fill="#bbdefb" stroke="black" d="M2207,-60.5C2207,-60.5 2068.75,-60.5 2068.75,-60.5 2062.75,-60.5 2056.75,-54.5 2056.75,-48.5 2056.75,-48.5 2056.75,-36.5 2056.75,-36.5 2056.75,-30.5 2062.75,-24.5 2068.75,-24.5 2068.75,-24.5 2207,-24.5 2207,-24.5 2213,-24.5 2219,-30.5 2219,-36.5 2219,-36.5 2219,-48.5 2219,-48.5 2219,-54.5 2213,-60.5 2207,-60.5"/>
<text xml:space="preserve" text-anchor="middle" x="2137.88" y="-39" font-family="Arial" font-size="10.00" fill="#1a1a2e">Migrations, ORM, psql/mysql CLI</text>
</g>
<!-- s5&#45;&gt;s5_3 -->
<g id="edge25" class="edge">
<title>s5&#45;&gt;s5_3</title>
<path fill="none" stroke="#c62828" stroke-width="1.5" d="M1968.5,-136.5C2042.58,-136.5 2137.88,-136.5 2137.88,-136.5 2137.88,-136.5 2137.88,-72.89 2137.88,-72.89"/>
<polygon fill="#c62828" stroke="#c62828" stroke-width="1.5" points="2141.38,-72.89 2137.88,-62.89 2134.38,-72.89 2141.38,-72.89"/>
</g>
</g>
</svg>
