<?xml version="1.0" encoding="UTF-8" standalone="no"?>
<!DOCTYPE svg PUBLIC "-//W3C//DTD SVG 1.1//EN"
 "http://www.w3.org/Graphics/SVG/1.1/DTD/svg11.dtd">
<!-- Generated by graphviz version 14.1.4 (20260321.0153)
 -->
<!-- Title: sql_toolchain Pages: 1 -->
<svg width="420pt" height="933pt"
 viewBox="0.00 0.00 420.00 933.00" xmlns="http://www.w3.org/2000/svg" xmlns:xlink="http://www.w3.org/1999/xlink">
<style>
text { paint-order: stroke; stroke: #ffffff; stroke-width: 3px; stroke-linejoin: round; fill: #1a1a2e; }
</style>
<g id="graph0" class="graph" transform="scale(1 1) rotate(0) translate(4 928.5)">
<title>sql_toolchain</title>
<polygon fill="white" stroke="none" points="-4,4 -4,-928.5 415.5,-928.5 415.5,4 -4,4"/>
<text xml:space="preserve" text-anchor="middle" x="205.75" y="-7.2" font-family="Times New Roman,serif" font-size="14.00">SQL Ecosystem + Toolchain</text>
<!-- title -->
<g id="node1" class="node">
<title>title</title>
<path fill="#0d47a1" stroke="black" d="M99.25,-456.5C99.25,-456.5 12,-456.5 12,-456.5 6,-456.5 0,-450.5 0,-444.5 0,-444.5 0,-432.5 0,-432.5 0,-426.5 6,-420.5 12,-420.5 12,-420.5 99.25,-420.5 99.25,-420.5 105.25,-420.5 111.25,-426.5 111.25,-432.5 111.25,-432.5 111.25,-444.5 111.25,-444.5 111.25,-450.5 105.25,-456.5 99.25,-456.5"/>
<text xml:space="preserve" text-anchor="middle" x="55.62" y="-433.07" font-family="Arial Bold" font-size="14.00" fill="#ffffff">SQL Toolchain</text>
</g>
<!-- dbs -->
<g id="node2" class="node">
<title>dbs</title>
<path fill="#1976d2" stroke="black" d="M234.75,-744.5C234.75,-744.5 182,-744.5 182,-744.5 176,-744.5 170,-738.5 170,-732.5 170,-732.5 170,-720.5 170,-720.5 170,-714.5 176,-708.5 182,-708.5 182,-708.5 234.75,-708.5 234.75,-708.5 240.75,-708.5 246.75,-714.5 246.75,-720.5 246.75,-720.5 246.75,-732.5 246.75,-732.5 246.75,-738.5 240.75,-744.5 234.75,-744.5"/>
<text xml:space="preserve" text-anchor="middle" x="208.38" y="-722.23" font-family="Arial Bold" font-size="12.00" fill="#ffffff">Databases</text>
</g>
<!-- title&#45;&gt;dbs -->
<g id="edge1" class="edge">
<title>title&#45;&gt;dbs</title>
<path fill="none" stroke="#1976d2" stroke-width="2" d="M55.5,-456.95C55.5,-520.52 55.5,-726.5 55.5,-726.5 55.5,-726.5 156.77,-726.5 156.77,-726.5"/>
<polygon fill="#1976d2" stroke="#1976d2" stroke-width="2" points="156.77,-730 166.77,-726.5 156.77,-723 156.77,-730"/>
</g>
<!-- cli -->
<g id="node8" class="node">
<title>cli</title>
<path fill="#1976d2" stroke="black" d="M235.5,-456.5C235.5,-456.5 181.25,-456.5 181.25,-456.5 175.25,-456.5 169.25,-450.5 169.25,-444.5 169.25,-444.5 169.25,-432.5 169.25,-432.5 169.25,-426.5 175.25,-420.5 181.25,-420.5 181.25,-420.5 235.5,-420.5 235.5,-420.5 241.5,-420.5 247.5,-426.5 247.5,-432.5 247.5,-432.5 247.5,-444.5 247.5,-444.5 247.5,-450.5 241.5,-456.5 235.5,-456.5"/>
<text xml:space="preserve" text-anchor="middle" x="208.38" y="-434.23" font-family="Arial Bold" font-size="12.00" fill="#ffffff">CLI Clients</text>
</g>
<!-- title&#45;&gt;cli -->
<g id="edge7" class="edge">
<title>title&#45;&gt;cli</title>
<path fill="none" stroke="#1976d2" stroke-width="2" d="M111.64,-438.5C111.64,-438.5 156.06,-438.5 156.06,-438.5"/>
<polygon fill="#1976d2" stroke="#1976d2" stroke-width="2" points="156.06,-442 166.06,-438.5 156.06,-435 156.06,-442"/>
</g>
<!-- tools -->
<g id="node13" class="node">
<title>tools</title>
<path fill="#1976d2" stroke="black" d="M232.88,-204.5C232.88,-204.5 183.88,-204.5 183.88,-204.5 177.88,-204.5 171.88,-198.5 171.88,-192.5 171.88,-192.5 171.88,-180.5 171.88,-180.5 171.88,-174.5 177.88,-168.5 183.88,-168.5 183.88,-168.5 232.88,-168.5 232.88,-168.5 238.88,-168.5 244.88,-174.5 244.88,-180.5 244.88,-180.5 244.88,-192.5 244.88,-192.5 244.88,-198.5 238.88,-204.5 232.88,-204.5"/>
<text xml:space="preserve" text-anchor="middle" x="208.38" y="-182.22" font-family="Arial Bold" font-size="12.00" fill="#ffffff">Dev Tools</text>
</g>
<!-- title&#45;&gt;tools -->
<g id="edge12" class="edge">
<title>title&#45;&gt;tools</title>
<path fill="none" stroke="#1976d2" stroke-width="2" d="M55.5,-420.38C55.5,-362.6 55.5,-186.5 55.5,-186.5 55.5,-186.5 158.73,-186.5 158.73,-186.5"/>
<polygon fill="#1976d2" stroke="#1976d2" stroke-width="2" points="158.73,-190 168.73,-186.5 158.73,-183 158.73,-190"/>
</g>
<!-- db_PostgreSQL -->
<g id="node3" class="node">
<title>db_PostgreSQL</title>
<path fill="#6a1b9a" stroke="black" d="M393.12,-921.23C393.12,-923.03 377.61,-924.5 358.5,-924.5 339.39,-924.5 323.88,-923.03 323.88,-921.23 323.88,-921.23 323.88,-891.77 323.88,-891.77 323.88,-889.97 339.39,-888.5 358.5,-888.5 377.61,-888.5 393.12,-889.97 393.12,-891.77 393.12,-891.77 393.12,-921.23 393.12,-921.23"/>
<path fill="none" stroke="black" d="M393.12,-921.23C393.12,-919.42 377.61,-917.95 358.5,-917.95 339.39,-917.95 323.88,-919.42 323.88,-921.23"/>
<text xml:space="preserve" text-anchor="middle" x="358.5" y="-903" font-family="Arial" font-size="10.00" fill="#ffffff">PostgreSQL</text>
</g>
<!-- dbs&#45;&gt;db_PostgreSQL -->
<g id="edge2" class="edge">
<title>dbs&#45;&gt;db_PostgreSQL</title>
<path fill="none" stroke="#6a1b9a" stroke-width="1.5" d="M195.5,-744.75C195.5,-790.51 195.5,-906.5 195.5,-906.5 195.5,-906.5 311.26,-906.5 311.26,-906.5"/>
<polygon fill="#6a1b9a" stroke="#6a1b9a" stroke-width="1.5" points="311.26,-910 321.26,-906.5 311.26,-903 311.26,-910"/>
</g>
<!-- db_MySQL -->
<g id="node4" class="node">
<title>db_MySQL</title>
<path fill="#6a1b9a" stroke="black" d="M385.5,-849.23C385.5,-851.03 373.4,-852.5 358.5,-852.5 343.6,-852.5 331.5,-851.03 331.5,-849.23 331.5,-849.23 331.5,-819.77 331.5,-819.77 331.5,-817.97 343.6,-816.5 358.5,-816.5 373.4,-816.5 385.5,-817.97 385.5,-819.77 385.5,-819.77 385.5,-849.23 385.5,-849.23"/>
<path fill="none" stroke="black" d="M385.5,-849.23C385.5,-847.42 373.4,-845.95 358.5,-845.95 343.6,-845.95 331.5,-847.42 331.5,-849.23"/>
<text xml:space="preserve" text-anchor="middle" x="358.5" y="-831" font-family="Arial" font-size="10.00" fill="#ffffff">MySQL</text>
</g>
<!-- dbs&#45;&gt;db_MySQL -->
<g id="edge3" class="edge">
<title>dbs&#45;&gt;db_MySQL</title>
<path fill="none" stroke="#6a1b9a" stroke-width="1.5" d="M221.5,-744.82C221.5,-775.63 221.5,-834.5 221.5,-834.5 221.5,-834.5 318.83,-834.5 318.83,-834.5"/>
<polygon fill="#6a1b9a" stroke="#6a1b9a" stroke-width="1.5" points="318.83,-838 328.83,-834.5 318.83,-831 318.83,-838"/>
</g>
<!-- db_SQLite -->
<g id="node5" class="node">
<title>db_SQLite</title>
<path fill="#6a1b9a" stroke="black" d="M385.5,-777.23C385.5,-779.03 373.4,-780.5 358.5,-780.5 343.6,-780.5 331.5,-779.03 331.5,-777.23 331.5,-777.23 331.5,-747.77 331.5,-747.77 331.5,-745.97 343.6,-744.5 358.5,-744.5 373.4,-744.5 385.5,-745.97 385.5,-747.77 385.5,-747.77 385.5,-777.23 385.5,-777.23"/>
<path fill="none" stroke="black" d="M385.5,-777.23C385.5,-775.42 373.4,-773.95 358.5,-773.95 343.6,-773.95 331.5,-775.42 331.5,-777.23"/>
<text xml:space="preserve" text-anchor="middle" x="358.5" y="-759" font-family="Arial" font-size="10.00" fill="#ffffff">SQLite</text>
</g>
<!-- dbs&#45;&gt;db_SQLite -->
<g id="edge4" class="edge">
<title>dbs&#45;&gt;db_SQLite</title>
<path fill="none" stroke="#6a1b9a" stroke-width="1.5" d="M246.94,-732.5C288.72,-732.5 349.5,-732.5 349.5,-732.5 349.5,-732.5 349.5,-733.65 349.5,-733.65"/>
<polygon fill="#6a1b9a" stroke="#6a1b9a" stroke-width="1.5" points="346,-731.74 349.5,-741.74 353,-731.74 346,-731.74"/>
</g>
<!-- db_SQL Server -->
<g id="node6" class="node">
<title>db_SQL Server</title>
<path fill="#6a1b9a" stroke="black" d="M392,-705.23C392,-707.03 376.98,-708.5 358.5,-708.5 340.02,-708.5 325,-707.03 325,-705.23 325,-705.23 325,-675.77 325,-675.77 325,-673.97 340.02,-672.5 358.5,-672.5 376.98,-672.5 392,-673.97 392,-675.77 392,-675.77 392,-705.23 392,-705.23"/>
<path fill="none" stroke="black" d="M392,-705.23C392,-703.42 376.98,-701.95 358.5,-701.95 340.02,-701.95 325,-703.42 325,-705.23"/>
<text xml:space="preserve" text-anchor="middle" x="358.5" y="-687" font-family="Arial" font-size="10.00" fill="#ffffff">SQL Server</text>
</g>
<!-- dbs&#45;&gt;db_SQL Server -->
<g id="edge5" class="edge">
<title>dbs&#45;&gt;db_SQL Server</title>
<path fill="none" stroke="#6a1b9a" stroke-width="1.5" d="M246.89,-720.5C293.99,-720.5 367.5,-720.5 367.5,-720.5 367.5,-720.5 367.5,-719.35 367.5,-719.35"/>
<polygon fill="#6a1b9a" stroke="#6a1b9a" stroke-width="1.5" points="371,-721.26 367.5,-711.26 364,-721.26 371,-721.26"/>
</g>
<!-- db_Oracle -->
<g id="node7" class="node">
<title>db_Oracle</title>
<path fill="#6a1b9a" stroke="black" d="M385.5,-633.23C385.5,-635.03 373.4,-636.5 358.5,-636.5 343.6,-636.5 331.5,-635.03 331.5,-633.23 331.5,-633.23 331.5,-603.77 331.5,-603.77 331.5,-601.97 343.6,-600.5 358.5,-600.5 373.4,-600.5 385.5,-601.97 385.5,-603.77 385.5,-603.77 385.5,-633.23 385.5,-633.23"/>
<path fill="none" stroke="black" d="M385.5,-633.23C385.5,-631.42 373.4,-629.95 358.5,-629.95 343.6,-629.95 331.5,-631.42 331.5,-633.23"/>
<text xml:space="preserve" text-anchor="middle" x="358.5" y="-615" font-family="Arial" font-size="10.00" fill="#ffffff">Oracle</text>
</g>
<!-- dbs&#45;&gt;db_Oracle -->
<g id="edge6" class="edge">
<title>dbs&#45;&gt;db_Oracle</title>
<path fill="none" stroke="#6a1b9a" stroke-width="1.5" d="M221.5,-708.18C221.5,-677.37 221.5,-618.5 221.5,-618.5 221.5,-618.5 318.83,-618.5 318.83,-618.5"/>
<polygon fill="#6a1b9a" stroke="#6a1b9a" stroke-width="1.5" points="318.83,-622 328.83,-618.5 318.83,-615 318.83,-622"/>
</g>
<!-- cli_psql -->
<g id="node9" class="node">
<title>cli_psql</title>
<path fill="#1976d2" stroke="black" d="M373.5,-564.5C373.5,-564.5 343.5,-564.5 343.5,-564.5 337.5,-564.5 331.5,-558.5 331.5,-552.5 331.5,-552.5 331.5,-540.5 331.5,-540.5 331.5,-534.5 337.5,-528.5 343.5,-528.5 343.5,-528.5 373.5,-528.5 373.5,-528.5 379.5,-528.5 385.5,-534.5 385.5,-540.5 385.5,-540.5 385.5,-552.5 385.5,-552.5 385.5,-558.5 379.5,-564.5 373.5,-564.5"/>
<text xml:space="preserve" text-anchor="middle" x="358.5" y="-542.8" font-family="Arial Bold" font-size="11.00" fill="#ffffff">psql</text>
</g>
<!-- cli&#45;&gt;cli_psql -->
<g id="edge8" class="edge">
<title>cli&#45;&gt;cli_psql</title>
<path fill="none" stroke="#2e7d32" stroke-width="1.5" d="M195.5,-456.82C195.5,-487.63 195.5,-546.5 195.5,-546.5 195.5,-546.5 318.95,-546.5 318.95,-546.5"/>
<polygon fill="#2e7d32" stroke="#2e7d32" stroke-width="1.5" points="318.95,-550 328.95,-546.5 318.95,-543 318.95,-550"/>
</g>
<!-- cli_mysql -->
<g id="node10" class="node">
<title>cli_mysql</title>
<path fill="#1976d2" stroke="black" d="M373.5,-492.5C373.5,-492.5 343.5,-492.5 343.5,-492.5 337.5,-492.5 331.5,-486.5 331.5,-480.5 331.5,-480.5 331.5,-468.5 331.5,-468.5 331.5,-462.5 337.5,-456.5 343.5,-456.5 343.5,-456.5 373.5,-456.5 373.5,-456.5 379.5,-456.5 385.5,-462.5 385.5,-468.5 385.5,-468.5 385.5,-480.5 385.5,-480.5 385.5,-486.5 379.5,-492.5 373.5,-492.5"/>
<text xml:space="preserve" text-anchor="middle" x="358.5" y="-470.8" font-family="Arial Bold" font-size="11.00" fill="#ffffff">mysql</text>
</g>
<!-- cli&#45;&gt;cli_mysql -->
<g id="edge9" class="edge">
<title>cli&#45;&gt;cli_mysql</title>
<path fill="none" stroke="#2e7d32" stroke-width="1.5" d="M247.69,-444.5C289.44,-444.5 349.5,-444.5 349.5,-444.5 349.5,-444.5 349.5,-445.65 349.5,-445.65"/>
<polygon fill="#2e7d32" stroke="#2e7d32" stroke-width="1.5" points="346,-443.74 349.5,-453.74 353,-443.74 346,-443.74"/>
</g>
<!-- cli_sqlite3 -->
<g id="node11" class="node">
<title>cli_sqlite3</title>
<path fill="#1976d2" stroke="black" d="M373.5,-420.5C373.5,-420.5 343.5,-420.5 343.5,-420.5 337.5,-420.5 331.5,-414.5 331.5,-408.5 331.5,-408.5 331.5,-396.5 331.5,-396.5 331.5,-390.5 337.5,-384.5 343.5,-384.5 343.5,-384.5 373.5,-384.5 373.5,-384.5 379.5,-384.5 385.5,-390.5 385.5,-396.5 385.5,-396.5 385.5,-408.5 385.5,-408.5 385.5,-414.5 379.5,-420.5 373.5,-420.5"/>
<text xml:space="preserve" text-anchor="middle" x="358.5" y="-398.8" font-family="Arial Bold" font-size="11.00" fill="#ffffff">sqlite3</text>
</g>
<!-- cli&#45;&gt;cli_sqlite3 -->
<g id="edge10" class="edge">
<title>cli&#45;&gt;cli_sqlite3</title>
<path fill="none" stroke="#2e7d32" stroke-width="1.5" d="M247.71,-432.5C294.83,-432.5 367.5,-432.5 367.5,-432.5 367.5,-432.5 367.5,-431.35 367.5,-431.35"/>
<polygon fill="#2e7d32" stroke="#2e7d32" stroke-width="1.5" points="371,-433.26 367.5,-423.26 364,-433.26 371,-433.26"/>
</g>
<!-- cli_sqlcmd -->
<g id="node12" class="node">
<title>cli_sqlcmd</title>
<path fill="#1976d2" stroke="black" d="M373.62,-348.5C373.62,-348.5 343.38,-348.5 343.38,-348.5 337.38,-348.5 331.38,-342.5 331.38,-336.5 331.38,-336.5 331.38,-324.5 331.38,-324.5 331.38,-318.5 337.38,-312.5 343.38,-312.5 343.38,-312.5 373.62,-312.5 373.62,-312.5 379.62,-312.5 385.62,-318.5 385.62,-324.5 385.62,-324.5 385.62,-336.5 385.62,-336.5 385.62,-342.5 379.62,-348.5 373.62,-348.5"/>
<text xml:space="preserve" text-anchor="middle" x="358.5" y="-326.8" font-family="Arial Bold" font-size="11.00" fill="#ffffff">sqlcmd</text>
</g>
<!-- cli&#45;&gt;cli_sqlcmd -->
<g id="edge11" class="edge">
<title>cli&#45;&gt;cli_sqlcmd</title>
<path fill="none" stroke="#2e7d32" stroke-width="1.5" d="M196.5,-420.18C196.5,-389.37 196.5,-330.5 196.5,-330.5 196.5,-330.5 318.75,-330.5 318.75,-330.5"/>
<polygon fill="#2e7d32" stroke="#2e7d32" stroke-width="1.5" points="318.75,-334 328.75,-330.5 318.75,-327 318.75,-334"/>
</g>
<!-- tool_Migr -->
<g id="node14" class="node">
<title>tool_Migr</title>
<path fill="#bbdefb" stroke="black" d="M377,-276.5C377,-276.5 340,-276.5 340,-276.5 334,-276.5 328,-270.5 328,-264.5 328,-264.5 328,-252.5 328,-252.5 328,-246.5 334,-240.5 340,-240.5 340,-240.5 377,-240.5 377,-240.5 383,-240.5 389,-246.5 389,-252.5 389,-252.5 389,-264.5 389,-264.5 389,-270.5 383,-276.5 377,-276.5"/>
<text xml:space="preserve" text-anchor="middle" x="358.5" y="-255" font-family="Arial" font-size="10.00" fill="#1a1a2e">Migrations</text>
</g>
<!-- tools&#45;&gt;tool_Migr -->
<g id="edge13" class="edge">
<title>tools&#45;&gt;tool_Migr</title>
<path fill="none" stroke="#ef6c00" stroke-width="1.5" d="M220.5,-204.67C220.5,-226 220.5,-258.5 220.5,-258.5 220.5,-258.5 315.26,-258.5 315.26,-258.5"/>
<polygon fill="#ef6c00" stroke="#ef6c00" stroke-width="1.5" points="315.26,-262 325.26,-258.5 315.26,-255 315.26,-262"/>
</g>
<!-- tool_ORM  -->
<g id="node15" class="node">
<title>tool_ORM </title>
<path fill="#bbdefb" stroke="black" d="M399.5,-204.5C399.5,-204.5 317.5,-204.5 317.5,-204.5 311.5,-204.5 305.5,-198.5 305.5,-192.5 305.5,-192.5 305.5,-180.5 305.5,-180.5 305.5,-174.5 311.5,-168.5 317.5,-168.5 317.5,-168.5 399.5,-168.5 399.5,-168.5 405.5,-168.5 411.5,-174.5 411.5,-180.5 411.5,-180.5 411.5,-192.5 411.5,-192.5 411.5,-198.5 405.5,-204.5 399.5,-204.5"/>
<text xml:space="preserve" text-anchor="middle" x="358.5" y="-183" font-family="Arial" font-size="10.00" fill="#1a1a2e">ORM (SQLAlchemy)</text>
</g>
<!-- tools&#45;&gt;tool_ORM  -->
<g id="edge14" class="edge">
<title>tools&#45;&gt;tool_ORM </title>
<path fill="none" stroke="#ef6c00" stroke-width="1.5" d="M245.1,-186.5C245.1,-186.5 292.87,-186.5 292.87,-186.5"/>
<polygon fill="#ef6c00" stroke="#ef6c00" stroke-width="1.5" points="292.87,-190 302.87,-186.5 292.87,-183 292.87,-190"/>
</g>
<!-- tool_Pris -->
<g id="node16" class="node">
<title>tool_Pris</title>
<path fill="#bbdefb" stroke="black" d="M389.75,-132.5C389.75,-132.5 327.25,-132.5 327.25,-132.5 321.25,-132.5 315.25,-126.5 315.25,-120.5 315.25,-120.5 315.25,-108.5 315.25,-108.5 315.25,-102.5 321.25,-96.5 327.25,-96.5 327.25,-96.5 389.75,-96.5 389.75,-96.5 395.75,-96.5 401.75,-102.5 401.75,-108.5 401.75,-108.5 401.75,-120.5 401.75,-120.5 401.75,-126.5 395.75,-132.5 389.75,-132.5"/>
<text xml:space="preserve" text-anchor="middle" x="358.5" y="-111" font-family="Arial" font-size="10.00" fill="#1a1a2e">Prisma / Drizzle</text>
</g>
<!-- tools&#45;&gt;tool_Pris -->
<g id="edge15" class="edge">
<title>tools&#45;&gt;tool_Pris</title>
<path fill="none" stroke="#ef6c00" stroke-width="1.5" d="M220.5,-168.33C220.5,-147 220.5,-114.5 220.5,-114.5 220.5,-114.5 302.57,-114.5 302.57,-114.5"/>
<polygon fill="#ef6c00" stroke="#ef6c00" stroke-width="1.5" points="302.57,-118 312.57,-114.5 302.57,-111 302.57,-118"/>
</g>
<!-- tool_pgAd -->
<g id="node17" class="node">
<title>tool_pgAd</title>
<path fill="#bbdefb" stroke="black" d="M397.25,-60.5C397.25,-60.5 319.75,-60.5 319.75,-60.5 313.75,-60.5 307.75,-54.5 307.75,-48.5 307.75,-48.5 307.75,-36.5 307.75,-36.5 307.75,-30.5 313.75,-24.5 319.75,-24.5 319.75,-24.5 397.25,-24.5 397.25,-24.5 403.25,-24.5 409.25,-30.5 409.25,-36.5 409.25,-36.5 409.25,-48.5 409.25,-48.5 409.25,-54.5 403.25,-60.5 397.25,-60.5"/>
<text xml:space="preserve" text-anchor="middle" x="358.5" y="-39" font-family="Arial" font-size="10.00" fill="#1a1a2e">pgAdmin / DBeaver</text>
</g>
<!-- tools&#45;&gt;tool_pgAd -->
<g id="edge16" class="edge">
<title>tools&#45;&gt;tool_pgAd</title>
<path fill="none" stroke="#ef6c00" stroke-width="1.5" d="M196.5,-168.26C196.5,-129.51 196.5,-42.5 196.5,-42.5 196.5,-42.5 295.42,-42.5 295.42,-42.5"/>
<polygon fill="#ef6c00" stroke="#ef6c00" stroke-width="1.5" points="295.42,-46 305.42,-42.5 295.42,-39 295.42,-46"/>
</g>
</g>
</svg>
