<?xml version="1.0" encoding="UTF-8" standalone="no"?>
<!DOCTYPE svg PUBLIC "-//W3C//DTD SVG 1.1//EN"
 "http://www.w3.org/Graphics/SVG/1.1/DTD/svg11.dtd">
<!-- Generated by graphviz version 14.1.4 (20260321.0153)
 -->
<!-- Title: sql_features Pages: 1 -->
<svg width="1362pt" height="189pt"
 viewBox="0.00 0.00 1362.00 189.00" xmlns="http://www.w3.org/2000/svg" xmlns:xlink="http://www.w3.org/1999/xlink">
<style>
text { paint-order: stroke; stroke: #ffffff; stroke-width: 3px; stroke-linejoin: round; fill: #1a1a2e; }
</style>
<g id="graph0" class="graph" transform="scale(1 1) rotate(0) translate(4 184.5)">
<title>sql_features</title>
<polygon fill="white" stroke="none" points="-4,4 -4,-184.5 1357.88,-184.5 1357.88,4 -4,4"/>
<text xml:space="preserve" text-anchor="middle" x="676.94" y="-7.2" font-family="Times New Roman,serif" font-size="14.00">SQL Advanced Features</text>
<!-- title -->
<g id="node1" class="node">
<title>title</title>
<path fill="#0d47a1" stroke="black" d="M776.25,-180.5C776.25,-180.5 661.25,-180.5 661.25,-180.5 655.25,-180.5 649.25,-174.5 649.25,-168.5 649.25,-168.5 649.25,-156.5 649.25,-156.5 649.25,-150.5 655.25,-144.5 661.25,-144.5 661.25,-144.5 776.25,-144.5 776.25,-144.5 782.25,-144.5 788.25,-150.5 788.25,-156.5 788.25,-156.5 788.25,-168.5 788.25,-168.5 788.25,-174.5 782.25,-180.5 776.25,-180.5"/>
<text xml:space="preserve" text-anchor="middle" x="718.75" y="-157.07" font-family="Arial Bold" font-size="14.00" fill="#ffffff">SQL Core Features</text>
</g>
<!-- idx -->
<g id="node2" class="node">
<title>idx</title>
<path fill="#1976d2" stroke="black" d="M125.5,-86.5C125.5,-86.5 12,-86.5 12,-86.5 6,-86.5 0,-80.5 0,-74.5 0,-74.5 0,-36.5 0,-36.5 0,-30.5 6,-24.5 12,-24.5 12,-24.5 125.5,-24.5 125.5,-24.5 131.5,-24.5 137.5,-30.5 137.5,-36.5 137.5,-36.5 137.5,-74.5 137.5,-74.5 137.5,-80.5 131.5,-86.5 125.5,-86.5"/>
<text xml:space="preserve" text-anchor="middle" x="68.75" y="-72.05" font-family="Arial Bold" font-size="11.00" fill="#ffffff">Indexes</text>
<text xml:space="preserve" text-anchor="middle" x="68.75" y="-58.55" font-family="Arial Bold" font-size="11.00" fill="#ffffff">B&#45;tree, hash, GIN</text>
<text xml:space="preserve" text-anchor="middle" x="68.75" y="-45.05" font-family="Arial Bold" font-size="11.00" fill="#ffffff">speed up WHERE/JOIN</text>
<text xml:space="preserve" text-anchor="middle" x="68.75" y="-31.55" font-family="Arial Bold" font-size="11.00" fill="#ffffff">trade&#45;off: write cost</text>
</g>
<!-- title&#45;&gt;idx -->
<g id="edge1" class="edge">
<title>title&#45;&gt;idx</title>
<path fill="none" stroke="#1976d2" stroke-width="1.5" d="M648.88,-171.5C481,-171.5 68.75,-171.5 68.75,-171.5 68.75,-171.5 68.75,-99.16 68.75,-99.16"/>
<polygon fill="#1976d2" stroke="#1976d2" stroke-width="1.5" points="72.25,-99.16 68.75,-89.16 65.25,-99.16 72.25,-99.16"/>
</g>
<!-- txn -->
<g id="node3" class="node">
<title>txn</title>
<path fill="#00838f" stroke="black" d="M326,-79.75C326,-79.75 185.5,-79.75 185.5,-79.75 179.5,-79.75 173.5,-73.75 173.5,-67.75 173.5,-67.75 173.5,-43.25 173.5,-43.25 173.5,-37.25 179.5,-31.25 185.5,-31.25 185.5,-31.25 326,-31.25 326,-31.25 332,-31.25 338,-37.25 338,-43.25 338,-43.25 338,-67.75 338,-67.75 338,-73.75 332,-79.75 326,-79.75"/>
<text xml:space="preserve" text-anchor="middle" x="255.75" y="-65.3" font-family="Arial Bold" font-size="11.00" fill="#ffffff">Transactions</text>
<text xml:space="preserve" text-anchor="middle" x="255.75" y="-51.8" font-family="Arial Bold" font-size="11.00" fill="#ffffff">BEGIN/COMMIT/ROLLBACK</text>
<text xml:space="preserve" text-anchor="middle" x="255.75" y="-38.3" font-family="Arial Bold" font-size="11.00" fill="#ffffff">ACID guarantees</text>
</g>
<!-- title&#45;&gt;txn -->
<g id="edge2" class="edge">
<title>title&#45;&gt;txn</title>
<path fill="none" stroke="#00838f" stroke-width="1.5" d="M648.93,-162.5C519.59,-162.5 255.75,-162.5 255.75,-162.5 255.75,-162.5 255.75,-92.32 255.75,-92.32"/>
<polygon fill="#00838f" stroke="#00838f" stroke-width="1.5" points="259.25,-92.32 255.75,-82.32 252.25,-92.32 259.25,-92.32"/>
</g>
<!-- acid -->
<g id="node4" class="node">
<title>acid</title>
<path fill="#ef6c00" stroke="black" d="M499.12,-79.75C499.12,-79.75 386.38,-79.75 386.38,-79.75 380.38,-79.75 374.38,-73.75 374.38,-67.75 374.38,-67.75 374.38,-43.25 374.38,-43.25 374.38,-37.25 380.38,-31.25 386.38,-31.25 386.38,-31.25 499.12,-31.25 499.12,-31.25 505.12,-31.25 511.12,-37.25 511.12,-43.25 511.12,-43.25 511.12,-67.75 511.12,-67.75 511.12,-73.75 505.12,-79.75 499.12,-79.75"/>
<text xml:space="preserve" text-anchor="middle" x="442.75" y="-65.3" font-family="Arial Bold" font-size="11.00" fill="#ffffff">ACID</text>
<text xml:space="preserve" text-anchor="middle" x="442.75" y="-51.8" font-family="Arial Bold" font-size="11.00" fill="#ffffff">Atomicity, Consistency</text>
<text xml:space="preserve" text-anchor="middle" x="442.75" y="-38.3" font-family="Arial Bold" font-size="11.00" fill="#ffffff">Isolation, Durability</text>
</g>
<!-- title&#45;&gt;acid -->
<g id="edge3" class="edge">
<title>title&#45;&gt;acid</title>
<path fill="none" stroke="#ef6c00" stroke-width="1.5" d="M649.1,-153.5C567.34,-153.5 442.75,-153.5 442.75,-153.5 442.75,-153.5 442.75,-92.5 442.75,-92.5"/>
<polygon fill="#ef6c00" stroke="#ef6c00" stroke-width="1.5" points="446.25,-92.5 442.75,-82.5 439.25,-92.5 446.25,-92.5"/>
</g>
<!-- win -->
<g id="node5" class="node">
<title>win</title>
<path fill="#6a1b9a" stroke="black" d="M702.12,-79.75C702.12,-79.75 559.38,-79.75 559.38,-79.75 553.38,-79.75 547.38,-73.75 547.38,-67.75 547.38,-67.75 547.38,-43.25 547.38,-43.25 547.38,-37.25 553.38,-31.25 559.38,-31.25 559.38,-31.25 702.12,-31.25 702.12,-31.25 708.12,-31.25 714.12,-37.25 714.12,-43.25 714.12,-43.25 714.12,-67.75 714.12,-67.75 714.12,-73.75 708.12,-79.75 702.12,-79.75"/>
<text xml:space="preserve" text-anchor="middle" x="630.75" y="-65.3" font-family="Arial Bold" font-size="11.00" fill="#ffffff">Window Functions</text>
<text xml:space="preserve" text-anchor="middle" x="630.75" y="-51.8" font-family="Arial Bold" font-size="11.00" fill="#ffffff">OVER(), PARTITION BY</text>
<text xml:space="preserve" text-anchor="middle" x="630.75" y="-38.3" font-family="Arial Bold" font-size="11.00" fill="#ffffff">ROW_NUMBER, RANK, LAG</text>
</g>
<!-- title&#45;&gt;win -->
<g id="edge4" class="edge">
<title>title&#45;&gt;win</title>
<path fill="none" stroke="#6a1b9a" stroke-width="1.5" d="M681.69,-144.35C681.69,-144.35 681.69,-92.44 681.69,-92.44"/>
<polygon fill="#6a1b9a" stroke="#6a1b9a" stroke-width="1.5" points="685.19,-92.44 681.69,-82.44 678.19,-92.44 685.19,-92.44"/>
</g>
<!-- cte -->
<g id="node6" class="node">
<title>cte</title>
<path fill="#2e7d32" stroke="black" d="M852.88,-79.75C852.88,-79.75 762.62,-79.75 762.62,-79.75 756.62,-79.75 750.62,-73.75 750.62,-67.75 750.62,-67.75 750.62,-43.25 750.62,-43.25 750.62,-37.25 756.62,-31.25 762.62,-31.25 762.62,-31.25 852.88,-31.25 852.88,-31.25 858.88,-31.25 864.88,-37.25 864.88,-43.25 864.88,-43.25 864.88,-67.75 864.88,-67.75 864.88,-73.75 858.88,-79.75 852.88,-79.75"/>
<text xml:space="preserve" text-anchor="middle" x="807.75" y="-65.3" font-family="Arial Bold" font-size="11.00" fill="#ffffff">CTEs</text>
<text xml:space="preserve" text-anchor="middle" x="807.75" y="-51.8" font-family="Arial Bold" font-size="11.00" fill="#ffffff">WITH name AS (...)</text>
<text xml:space="preserve" text-anchor="middle" x="807.75" y="-38.3" font-family="Arial Bold" font-size="11.00" fill="#ffffff">recursive CTEs</text>
</g>
<!-- title&#45;&gt;cte -->
<g id="edge5" class="edge">
<title>title&#45;&gt;cte</title>
<path fill="none" stroke="#2e7d32" stroke-width="1.5" d="M769.44,-144.35C769.44,-144.35 769.44,-92.44 769.44,-92.44"/>
<polygon fill="#2e7d32" stroke="#2e7d32" stroke-width="1.5" points="772.94,-92.44 769.44,-82.44 765.94,-92.44 772.94,-92.44"/>
</g>
<!-- view -->
<g id="node7" class="node">
<title>view</title>
<path fill="#c62828" stroke="black" d="M1000.38,-79.75C1000.38,-79.75 913.12,-79.75 913.12,-79.75 907.12,-79.75 901.12,-73.75 901.12,-67.75 901.12,-67.75 901.12,-43.25 901.12,-43.25 901.12,-37.25 907.12,-31.25 913.12,-31.25 913.12,-31.25 1000.38,-31.25 1000.38,-31.25 1006.38,-31.25 1012.38,-37.25 1012.38,-43.25 1012.38,-43.25 1012.38,-67.75 1012.38,-67.75 1012.38,-73.75 1006.38,-79.75 1000.38,-79.75"/>
<text xml:space="preserve" text-anchor="middle" x="956.75" y="-65.3" font-family="Arial Bold" font-size="11.00" fill="#ffffff">Views</text>
<text xml:space="preserve" text-anchor="middle" x="956.75" y="-51.8" font-family="Arial Bold" font-size="11.00" fill="#ffffff">virtual tables</text>
<text xml:space="preserve" text-anchor="middle" x="956.75" y="-38.3" font-family="Arial Bold" font-size="11.00" fill="#ffffff">materialized views</text>
</g>
<!-- title&#45;&gt;view -->
<g id="edge6" class="edge">
<title>title&#45;&gt;view</title>
<path fill="none" stroke="#c62828" stroke-width="1.5" d="M788.55,-153.5C858.78,-153.5 956.75,-153.5 956.75,-153.5 956.75,-153.5 956.75,-92.5 956.75,-92.5"/>
<polygon fill="#c62828" stroke="#c62828" stroke-width="1.5" points="960.25,-92.5 956.75,-82.5 953.25,-92.5 960.25,-92.5"/>
</g>
<!-- trig -->
<g id="node8" class="node">
<title>trig</title>
<path fill="#0d47a1" stroke="black" d="M1179.12,-79.75C1179.12,-79.75 1060.38,-79.75 1060.38,-79.75 1054.38,-79.75 1048.38,-73.75 1048.38,-67.75 1048.38,-67.75 1048.38,-43.25 1048.38,-43.25 1048.38,-37.25 1054.38,-31.25 1060.38,-31.25 1060.38,-31.25 1179.12,-31.25 1179.12,-31.25 1185.12,-31.25 1191.12,-37.25 1191.12,-43.25 1191.12,-43.25 1191.12,-67.75 1191.12,-67.75 1191.12,-73.75 1185.12,-79.75 1179.12,-79.75"/>
<text xml:space="preserve" text-anchor="middle" x="1119.75" y="-65.3" font-family="Arial Bold" font-size="11.00" fill="#ffffff">Triggers / Functions</text>
<text xml:space="preserve" text-anchor="middle" x="1119.75" y="-51.8" font-family="Arial Bold" font-size="11.00" fill="#ffffff">fire on INSERT/UPDATE</text>
<text xml:space="preserve" text-anchor="middle" x="1119.75" y="-38.3" font-family="Arial Bold" font-size="11.00" fill="#ffffff">stored procedures</text>
</g>
<!-- title&#45;&gt;trig -->
<g id="edge7" class="edge">
<title>title&#45;&gt;trig</title>
<path fill="none" stroke="#0d47a1" stroke-width="1.5" d="M788.6,-162.5C903.49,-162.5 1119.75,-162.5 1119.75,-162.5 1119.75,-162.5 1119.75,-92.32 1119.75,-92.32"/>
<polygon fill="#0d47a1" stroke="#0d47a1" stroke-width="1.5" points="1123.25,-92.32 1119.75,-82.32 1116.25,-92.32 1123.25,-92.32"/>
</g>
<!-- norm -->
<g id="node9" class="node">
<title>norm</title>
<path fill="#00838f" stroke="black" d="M1341.88,-79.75C1341.88,-79.75 1239.62,-79.75 1239.62,-79.75 1233.62,-79.75 1227.62,-73.75 1227.62,-67.75 1227.62,-67.75 1227.62,-43.25 1227.62,-43.25 1227.62,-37.25 1233.62,-31.25 1239.62,-31.25 1239.62,-31.25 1341.88,-31.25 1341.88,-31.25 1347.88,-31.25 1353.88,-37.25 1353.88,-43.25 1353.88,-43.25 1353.88,-67.75 1353.88,-67.75 1353.88,-73.75 1347.88,-79.75 1341.88,-79.75"/>
<text xml:space="preserve" text-anchor="middle" x="1290.75" y="-65.3" font-family="Arial Bold" font-size="11.00" fill="#ffffff">Normalization</text>
<text xml:space="preserve" text-anchor="middle" x="1290.75" y="-51.8" font-family="Arial Bold" font-size="11.00" fill="#ffffff">1NF/2NF/3NF</text>
<text xml:space="preserve" text-anchor="middle" x="1290.75" y="-38.3" font-family="Arial Bold" font-size="11.00" fill="#ffffff">avoid data anomalies</text>
</g>
<!-- title&#45;&gt;norm -->
<g id="edge8" class="edge">
<title>title&#45;&gt;norm</title>
<path fill="none" stroke="#00838f" stroke-width="1.5" d="M788.6,-171.5C941.19,-171.5 1290.75,-171.5 1290.75,-171.5 1290.75,-171.5 1290.75,-92.37 1290.75,-92.37"/>
<polygon fill="#00838f" stroke="#00838f" stroke-width="1.5" points="1294.25,-92.37 1290.75,-82.37 1287.25,-92.37 1294.25,-92.37"/>
</g>
</g>
</svg>
