<?xml version="1.0" encoding="UTF-8" standalone="no"?>
<!DOCTYPE svg PUBLIC "-//W3C//DTD SVG 1.1//EN"
 "http://www.w3.org/Graphics/SVG/1.1/DTD/svg11.dtd">
<!-- Generated by graphviz version 14.1.2 (0)
 -->
<!-- Title: metatron_db_schema Pages: 1 -->
<svg width="3927pt" height="242pt"
 viewBox="0.00 0.00 3927.00 242.00" xmlns="http://www.w3.org/2000/svg" xmlns:xlink="http://www.w3.org/1999/xlink">
<g id="graph0" class="graph" transform="scale(1 1) rotate(0) translate(4 238)">
<title>metatron_db_schema</title>
<polygon fill="white" stroke="none" points="-4,4 -4,-238 3923,-238 3923,4 -4,4"/>
<!-- history -->
<g id="node1" class="node">
<title>history</title>
<polygon fill="#1a237e" stroke="none" points="1917.25,-133 0,-133 0,-97 1917.25,-97 1917.25,-133"/>
<text xml:space="preserve" text-anchor="middle" x="958.62" y="-111.5" font-family="Helvetica,sans-Serif" font-size="10.00" fill="#ffffff">{&lt;table border=&quot;0&quot; cellborder=&quot;1&quot; cellspacing=&quot;0&quot; cellpadding=&quot;4&quot;&gt;&lt;tr&gt;&lt;td colspan=&quot;2&quot;&gt;&lt;b&gt;history&lt;/b&gt;&lt;/td&gt;&lt;/tr&gt;&lt;tr&gt;&lt;td align=&quot;left&quot; bgcolor=&quot;#00695C&quot;&gt;&lt;font color=&quot;white&quot;&gt;PK&lt;/font&gt;&lt;/td&gt;&lt;td align=&quot;left&quot;&gt;sl_no (INT AUTO_INCREMENT)&lt;/td&gt;&lt;/tr&gt;&lt;tr&gt;&lt;td&gt;&lt;/td&gt;&lt;td align=&quot;left&quot;&gt;target (VARCHAR)&lt;/td&gt;&lt;/tr&gt;&lt;tr&gt;&lt;td&gt;&lt;/td&gt;&lt;td align=&quot;left&quot;&gt;date (DATETIME)&lt;/td&gt;&lt;/tr&gt;&lt;tr&gt;&lt;td&gt;&lt;/td&gt;&lt;td align=&quot;left&quot;&gt;status (VARCHAR)&lt;/td&gt;&lt;/tr&gt;&lt;/table&gt;}</text>
</g>
<!-- vulnerabilities -->
<g id="node2" class="node">
<title>vulnerabilities</title>
<polygon fill="#1a237e" stroke="none" points="3914.5,-231 2030.25,-231 2030.25,-195 3914.5,-195 3914.5,-231"/>
<text xml:space="preserve" text-anchor="middle" x="2972.38" y="-209.5" font-family="Helvetica,sans-Serif" font-size="10.00" fill="#ffffff">{&lt;table border=&quot;0&quot; cellborder=&quot;1&quot; cellspacing=&quot;0&quot; cellpadding=&quot;4&quot;&gt;&lt;tr&gt;&lt;td colspan=&quot;2&quot;&gt;&lt;b&gt;vulnerabilities&lt;/b&gt;&lt;/td&gt;&lt;/tr&gt;&lt;tr&gt;&lt;td align=&quot;left&quot; bgcolor=&quot;#00695C&quot;&gt;&lt;font color=&quot;white&quot;&gt;FK&lt;/font&gt;&lt;/td&gt;&lt;td align=&quot;left&quot;&gt;sl_no (INT)&lt;/td&gt;&lt;/tr&gt;&lt;tr&gt;&lt;td&gt;&lt;/td&gt;&lt;td align=&quot;left&quot;&gt;vuln_name (VARCHAR)&lt;/td&gt;&lt;/tr&gt;&lt;tr&gt;&lt;td&gt;&lt;/td&gt;&lt;td align=&quot;left&quot;&gt;severity (VARCHAR)&lt;/td&gt;&lt;/tr&gt;&lt;tr&gt;&lt;td&gt;&lt;/td&gt;&lt;td align=&quot;left&quot;&gt;description (TEXT)&lt;/td&gt;&lt;/tr&gt;&lt;/table&gt;}</text>
</g>
<!-- history&#45;&gt;vulnerabilities -->
<g id="edge1" class="edge">
<title>history&#45;&gt;vulnerabilities</title>
<path fill="none" stroke="#00897b" stroke-width="2" d="M1922.17,-118.4C1922.17,-118.4 2039,-118.4 2039,-118.4 2039,-118.4 2039,-184.32 2039,-184.32"/>
<polygon fill="#00897b" stroke="#00897b" stroke-width="2" points="1918.17,-123.4 1918.17,-113.4 1920.17,-113.4 1920.17,-123.4 1918.17,-123.4"/>
<polyline fill="none" stroke="#00897b" stroke-width="2" points="1917.17,-118.4 1922.17,-118.4"/>
<polygon fill="#00897b" stroke="#00897b" stroke-width="2" points="2039,-184.54 2034.5,-194.54 2039,-190.21 2039,-193.87 2039,-193.87 2039,-193.87 2039,-190.21 2043.5,-194.54 2039,-184.54"/>
<text xml:space="preserve" text-anchor="middle" x="1971.5" y="-225.45" font-family="Helvetica,sans-Serif" font-size="9.00" fill="#b0bec5">1:N</text>
<text xml:space="preserve" text-anchor="middle" x="1971.5" y="-214.95" font-family="Helvetica,sans-Serif" font-size="9.00" fill="#b0bec5">sl_no</text>
</g>
<!-- fixes -->
<g id="node3" class="node">
<title>fixes</title>
<polygon fill="#1a237e" stroke="none" points="3889,-166 2055.75,-166 2055.75,-130 3889,-130 3889,-166"/>
<text xml:space="preserve" text-anchor="middle" x="2972.38" y="-144.5" font-family="Helvetica,sans-Serif" font-size="10.00" fill="#ffffff">{&lt;table border=&quot;0&quot; cellborder=&quot;1&quot; cellspacing=&quot;0&quot; cellpadding=&quot;4&quot;&gt;&lt;tr&gt;&lt;td colspan=&quot;2&quot;&gt;&lt;b&gt;fixes&lt;/b&gt;&lt;/td&gt;&lt;/tr&gt;&lt;tr&gt;&lt;td align=&quot;left&quot; bgcolor=&quot;#00695C&quot;&gt;&lt;font color=&quot;white&quot;&gt;FK&lt;/font&gt;&lt;/td&gt;&lt;td align=&quot;left&quot;&gt;sl_no (INT)&lt;/td&gt;&lt;/tr&gt;&lt;tr&gt;&lt;td&gt;&lt;/td&gt;&lt;td align=&quot;left&quot;&gt;fix_name (VARCHAR)&lt;/td&gt;&lt;/tr&gt;&lt;tr&gt;&lt;td&gt;&lt;/td&gt;&lt;td align=&quot;left&quot;&gt;description (TEXT)&lt;/td&gt;&lt;/tr&gt;&lt;tr&gt;&lt;td&gt;&lt;/td&gt;&lt;td align=&quot;left&quot;&gt;priority (VARCHAR)&lt;/td&gt;&lt;/tr&gt;&lt;/table&gt;}</text>
</g>
<!-- history&#45;&gt;fixes -->
<g id="edge2" class="edge">
<title>history&#45;&gt;fixes</title>
<path fill="none" stroke="#00897b" stroke-width="2" d="M1922.06,-124.2C1922.06,-124.2 1990,-124.2 1990,-124.2 1990,-124.2 1990,-149.5 1990,-149.5 1990,-149.5 2045.1,-149.5 2045.1,-149.5"/>
<polygon fill="#00897b" stroke="#00897b" stroke-width="2" points="1918.06,-129.2 1918.06,-119.2 1920.06,-119.2 1920.06,-129.2 1918.06,-129.2"/>
<polyline fill="none" stroke="#00897b" stroke-width="2" points="1917.06,-124.2 1922.06,-124.2"/>
<polygon fill="#00897b" stroke="#00897b" stroke-width="2" points="2045.31,-149.5 2055.31,-154 2050.98,-149.5 2054.64,-149.5 2054.64,-149.5 2054.64,-149.5 2050.98,-149.5 2055.31,-145 2045.31,-149.5"/>
<text xml:space="preserve" text-anchor="middle" x="1971.5" y="-160.45" font-family="Helvetica,sans-Serif" font-size="9.00" fill="#b0bec5">1:N</text>
<text xml:space="preserve" text-anchor="middle" x="1971.5" y="-149.95" font-family="Helvetica,sans-Serif" font-size="9.00" fill="#b0bec5">sl_no</text>
</g>
<!-- exploits_attempted -->
<g id="node4" class="node">
<title>exploits_attempted</title>
<polygon fill="#1a237e" stroke="none" points="3916.75,-101 2028,-101 2028,-65 3916.75,-65 3916.75,-101"/>
<text xml:space="preserve" text-anchor="middle" x="2972.38" y="-79.5" font-family="Helvetica,sans-Serif" font-size="10.00" fill="#ffffff">{&lt;table border=&quot;0&quot; cellborder=&quot;1&quot; cellspacing=&quot;0&quot; cellpadding=&quot;4&quot;&gt;&lt;tr&gt;&lt;td colspan=&quot;2&quot;&gt;&lt;b&gt;exploits_attempted&lt;/b&gt;&lt;/td&gt;&lt;/tr&gt;&lt;tr&gt;&lt;td align=&quot;left&quot; bgcolor=&quot;#00695C&quot;&gt;&lt;font color=&quot;white&quot;&gt;FK&lt;/font&gt;&lt;/td&gt;&lt;td align=&quot;left&quot;&gt;sl_no (INT)&lt;/td&gt;&lt;/tr&gt;&lt;tr&gt;&lt;td&gt;&lt;/td&gt;&lt;td align=&quot;left&quot;&gt;exploit_name (VARCHAR)&lt;/td&gt;&lt;/tr&gt;&lt;tr&gt;&lt;td&gt;&lt;/td&gt;&lt;td align=&quot;left&quot;&gt;result (TEXT)&lt;/td&gt;&lt;/tr&gt;&lt;tr&gt;&lt;td&gt;&lt;/td&gt;&lt;td align=&quot;left&quot;&gt;cve_id (VARCHAR)&lt;/td&gt;&lt;/tr&gt;&lt;/table&gt;}</text>
</g>
<!-- history&#45;&gt;exploits_attempted -->
<g id="edge3" class="edge">
<title>history&#45;&gt;exploits_attempted</title>
<path fill="none" stroke="#00897b" stroke-width="2" d="M1922.07,-112.6C1922.07,-112.6 2047,-112.6 2047,-112.6 2047,-112.6 2047,-111.43 2047,-111.43"/>
<polygon fill="#00897b" stroke="#00897b" stroke-width="2" points="1918.07,-117.6 1918.07,-107.6 1920.07,-107.6 1920.07,-117.6 1918.07,-117.6"/>
<polyline fill="none" stroke="#00897b" stroke-width="2" points="1917.07,-112.6 1922.07,-112.6"/>
<polygon fill="#00897b" stroke="#00897b" stroke-width="2" points="2047,-111.57 2051.5,-101.57 2047,-105.9 2047,-102.24 2047,-102.24 2047,-102.24 2047,-105.9 2042.5,-101.57 2047,-111.57"/>
<text xml:space="preserve" text-anchor="middle" x="1971.5" y="-95.45" font-family="Helvetica,sans-Serif" font-size="9.00" fill="#b0bec5">1:N</text>
<text xml:space="preserve" text-anchor="middle" x="1971.5" y="-84.95" font-family="Helvetica,sans-Serif" font-size="9.00" fill="#b0bec5">sl_no</text>
</g>
<!-- summary -->
<g id="node5" class="node">
<title>summary</title>
<polygon fill="#1a237e" stroke="none" points="3919,-36 2025.75,-36 2025.75,0 3919,0 3919,-36"/>
<text xml:space="preserve" text-anchor="middle" x="2972.38" y="-14.5" font-family="Helvetica,sans-Serif" font-size="10.00" fill="#ffffff">{&lt;table border=&quot;0&quot; cellborder=&quot;1&quot; cellspacing=&quot;0&quot; cellpadding=&quot;4&quot;&gt;&lt;tr&gt;&lt;td colspan=&quot;2&quot;&gt;&lt;b&gt;summary&lt;/b&gt;&lt;/td&gt;&lt;/tr&gt;&lt;tr&gt;&lt;td align=&quot;left&quot; bgcolor=&quot;#00695C&quot;&gt;&lt;font color=&quot;white&quot;&gt;FK&lt;/font&gt;&lt;/td&gt;&lt;td align=&quot;left&quot;&gt;sl_no (INT)&lt;/td&gt;&lt;/tr&gt;&lt;tr&gt;&lt;td&gt;&lt;/td&gt;&lt;td align=&quot;left&quot;&gt;summary_text (TEXT)&lt;/td&gt;&lt;/tr&gt;&lt;tr&gt;&lt;td&gt;&lt;/td&gt;&lt;td align=&quot;left&quot;&gt;risk_level (VARCHAR)&lt;/td&gt;&lt;/tr&gt;&lt;tr&gt;&lt;td&gt;&lt;/td&gt;&lt;td align=&quot;left&quot;&gt;recommendations (TEXT)&lt;/td&gt;&lt;/tr&gt;&lt;/table&gt;}</text>
</g>
<!-- history&#45;&gt;summary -->
<g id="edge4" class="edge">
<title>history&#45;&gt;summary</title>
<path fill="none" stroke="#00897b" stroke-width="2" d="M1922.02,-106.8C1922.02,-106.8 1953,-106.8 1953,-106.8 1953,-106.8 1953,-18 1953,-18 1953,-18 2015.02,-18 2015.02,-18"/>
<polygon fill="#00897b" stroke="#00897b" stroke-width="2" points="1918.02,-111.8 1918.02,-101.8 1920.02,-101.8 1920.02,-111.8 1918.02,-111.8"/>
<polyline fill="none" stroke="#00897b" stroke-width="2" points="1917.02,-106.8 1922.02,-106.8"/>
<polygon fill="#00897b" stroke="#00897b" stroke-width="2" points="2015.23,-18 2025.23,-22.5 2020.9,-18 2024.56,-18 2024.56,-18 2024.56,-18 2020.9,-18 2025.23,-13.5 2015.23,-18"/>
<text xml:space="preserve" text-anchor="middle" x="1971.5" y="-30.45" font-family="Helvetica,sans-Serif" font-size="9.00" fill="#b0bec5">1:1</text>
<text xml:space="preserve" text-anchor="middle" x="1971.5" y="-19.95" font-family="Helvetica,sans-Serif" font-size="9.00" fill="#b0bec5">sl_no</text>
</g>
</g>
</svg>
