<svg xmlns="http://www.w3.org/2000/svg" viewBox="0 0 860 440" width="860" height="440" font-family="-apple-system, 'Segoe UI', Inter, sans-serif">
<style>
  .title { font-size: 20px; font-weight: 700; fill: #0f172a; }
  .band-label { font-size: 13px; font-weight: 700; fill: #1e40af; letter-spacing:0.3px; }
  .node-title { font-size: 14px; font-weight: 700; fill: #0f172a; }
  .node-title-w { font-size: 14px; font-weight: 700; fill: #ffffff; }
  .item { font-size: 12px; font-weight: 400; fill: #0f172a; }
  .item-sub { font-size: 11px; font-weight: 400; fill: #475569; }
  .stage { font-size: 15px; font-weight: 700; fill: #ffffff; }
  .stage-sub { font-size: 11px; font-weight: 400; fill: #e0e7ff; }
  .note { font-size: 12px; font-weight: 400; fill: #1e40af; }
</style>
<defs>
  <marker id="arrow" markerWidth="10" markerHeight="10" refX="8" refY="5" markerUnits="strokeWidth" orient="auto">
    <path d="M0,1 L8,5 L0,9 z" fill="#475569"/>
  </marker>
  <marker id="arrow-accent" markerWidth="10" markerHeight="10" refX="8" refY="5" markerUnits="strokeWidth" orient="auto">
    <path d="M0,1 L8,5 L0,9 z" fill="#2563eb"/>
  </marker>
</defs>
<rect width="860" height="440" fill="#ffffff"/>
<text x="300" y="38" text-anchor="middle" class="title">ML Applications of Linear Algebra</text>
<rect x="40" y="70" width="780" height="70" rx="12" fill="#f8fafc" stroke="#e2e8f0" stroke-width="1"/>
<rect x="54" y="84" width="200" height="42" rx="8" fill="#2563eb"/>
<text x="154" y="110" text-anchor="middle" class="node-title-w">Neural networks</text>
<rect x="274" y="84" width="120" height="42" rx="8" fill="#ffffff" stroke="#cbd5e1" stroke-width="1"/>
<text x="334" y="103" text-anchor="middle" class="item">weights = matrices</text>
<text x="334" y="118" text-anchor="middle" class="item-sub">layer = W @ x + b</text>
<rect x="404" y="84" width="120" height="42" rx="8" fill="#ffffff" stroke="#cbd5e1" stroke-width="1"/>
<text x="464" y="103" text-anchor="middle" class="item">forward pass</text>
<text x="464" y="118" text-anchor="middle" class="item-sub">sequential matmul</text>
<rect x="534" y="84" width="120" height="42" rx="8" fill="#ffffff" stroke="#cbd5e1" stroke-width="1"/>
<text x="594" y="103" text-anchor="middle" class="item">gradients</text>
<text x="594" y="118" text-anchor="middle" class="item-sub">Jacobian + chain rule</text>
<rect x="664" y="84" width="120" height="42" rx="8" fill="#ffffff" stroke="#cbd5e1" stroke-width="1"/>
<text x="724" y="103" text-anchor="middle" class="item">batch = matrix</text>
<text x="724" y="118" text-anchor="middle" class="item-sub">B x D input batch</text>
<rect x="40" y="150" width="780" height="70" rx="12" fill="#f1f5f9" stroke="#e2e8f0" stroke-width="1"/>
<rect x="54" y="164" width="200" height="42" rx="8" fill="#1e40af"/>
<text x="154" y="190" text-anchor="middle" class="node-title-w">Embeddings</text>
<rect x="274" y="164" width="120" height="42" rx="8" fill="#ffffff" stroke="#cbd5e1" stroke-width="1"/>
<text x="334" y="183" text-anchor="middle" class="item">word -&gt; vector</text>
<text x="334" y="198" text-anchor="middle" class="item-sub">word2vec, GPT</text>
<rect x="404" y="164" width="120" height="42" rx="8" fill="#ffffff" stroke="#cbd5e1" stroke-width="1"/>
<text x="464" y="183" text-anchor="middle" class="item">similarity = dot</text>
<text x="464" y="198" text-anchor="middle" class="item-sub">cosine distance</text>
<rect x="534" y="164" width="120" height="42" rx="8" fill="#ffffff" stroke="#cbd5e1" stroke-width="1"/>
<text x="594" y="183" text-anchor="middle" class="item">nearest neighbor</text>
<text x="594" y="198" text-anchor="middle" class="item-sub">find closest vectors</text>
<rect x="664" y="164" width="120" height="42" rx="8" fill="#ffffff" stroke="#cbd5e1" stroke-width="1"/>
<text x="724" y="183" text-anchor="middle" class="item">pgvector</text>
<text x="724" y="198" text-anchor="middle" class="item-sub">store + search in DB</text>
<rect x="40" y="230" width="780" height="70" rx="12" fill="#f8fafc" stroke="#e2e8f0" stroke-width="1"/>
<rect x="54" y="244" width="200" height="42" rx="8" fill="#2563eb"/>
<text x="154" y="270" text-anchor="middle" class="node-title-w">PCA / SVD</text>
<rect x="274" y="244" width="120" height="42" rx="8" fill="#ffffff" stroke="#cbd5e1" stroke-width="1"/>
<text x="334" y="263" text-anchor="middle" class="item">reduce dimensions</text>
<text x="334" y="278" text-anchor="middle" class="item-sub">1000D -&gt; 2D</text>
<rect x="404" y="244" width="120" height="42" rx="8" fill="#ffffff" stroke="#cbd5e1" stroke-width="1"/>
<text x="464" y="263" text-anchor="middle" class="item">covariance matrix</text>
<text x="464" y="278" text-anchor="middle" class="item-sub">eigendecomposition</text>
<rect x="534" y="244" width="120" height="42" rx="8" fill="#ffffff" stroke="#cbd5e1" stroke-width="1"/>
<text x="594" y="263" text-anchor="middle" class="item">SVD: A = U S V^T</text>
<text x="594" y="278" text-anchor="middle" class="item-sub">rank-k approximation</text>
<rect x="664" y="244" width="120" height="42" rx="8" fill="#ffffff" stroke="#cbd5e1" stroke-width="1"/>
<text x="724" y="263" text-anchor="middle" class="item">denoising</text>
<text x="724" y="278" text-anchor="middle" class="item-sub">keep top k components</text>
<rect x="40" y="310" width="780" height="70" rx="12" fill="#f1f5f9" stroke="#e2e8f0" stroke-width="1"/>
<rect x="54" y="324" width="200" height="42" rx="8" fill="#1e40af"/>
<text x="154" y="350" text-anchor="middle" class="node-title-w">Gradient descent</text>
<rect x="274" y="324" width="120" height="42" rx="8" fill="#ffffff" stroke="#cbd5e1" stroke-width="1"/>
<text x="334" y="343" text-anchor="middle" class="item">gradient = vector</text>
<text x="334" y="358" text-anchor="middle" class="item-sub">direction of steepest ascent</text>
<rect x="404" y="324" width="120" height="42" rx="8" fill="#ffffff" stroke="#cbd5e1" stroke-width="1"/>
<text x="464" y="343" text-anchor="middle" class="item">w -= lr * grad</text>
<text x="464" y="358" text-anchor="middle" class="item-sub">step in loss landscape</text>
<rect x="534" y="324" width="120" height="42" rx="8" fill="#ffffff" stroke="#cbd5e1" stroke-width="1"/>
<text x="594" y="343" text-anchor="middle" class="item">Hessian = 2nd deriv</text>
<text x="594" y="358" text-anchor="middle" class="item-sub">curvature info (Newton)</text>
<rect x="664" y="324" width="120" height="42" rx="8" fill="#ffffff" stroke="#cbd5e1" stroke-width="1"/>
<text x="724" y="343" text-anchor="middle" class="item">Jacobian</text>
<text x="724" y="358" text-anchor="middle" class="item-sub">gradient of vector output</text>
</svg>
