<?xml version="1.0" encoding="UTF-8" standalone="no"?>
<!DOCTYPE svg PUBLIC "-//W3C//DTD SVG 1.1//EN"
 "http://www.w3.org/Graphics/SVG/1.1/DTD/svg11.dtd">
<!-- Generated by graphviz version 14.1.4 (20260321.0153)
 -->
<!-- Title: chrome_devtools_mcp_architecture Pages: 1 -->
<svg width="1028pt" height="778pt"
 viewBox="0.00 0.00 1028.00 778.00" xmlns="http://www.w3.org/2000/svg" xmlns:xlink="http://www.w3.org/1999/xlink">
<g id="graph0" class="graph" transform="scale(1 1) rotate(0) translate(4 773.6)">
<title>chrome_devtools_mcp_architecture</title>
<polygon fill="#fafafa" stroke="none" points="-4,4 -4,-773.6 1023.6,-773.6 1023.6,4 -4,4"/>
<!-- claude -->
<g id="node1" class="node">
<title>claude</title>
<path fill="#4285f4" stroke="black" d="M989.6,-675.6C989.6,-675.6 920,-675.6 920,-675.6 914,-675.6 908,-669.6 908,-663.6 908,-663.6 908,-648 908,-648 908,-642 914,-636 920,-636 920,-636 989.6,-636 989.6,-636 995.6,-636 1001.6,-642 1001.6,-648 1001.6,-648 1001.6,-663.6 1001.6,-663.6 1001.6,-669.6 995.6,-675.6 989.6,-675.6"/>
<text xml:space="preserve" text-anchor="middle" x="954.8" y="-658.3" font-family="Arial Bold" font-size="10.00" fill="white">Claude</text>
<text xml:space="preserve" text-anchor="middle" x="954.8" y="-646.3" font-family="Arial Bold" font-size="10.00" fill="white">Code</text>
</g>
<!-- tool_reg -->
<g id="node8" class="node">
<title>tool_reg</title>
<path fill="#34a853" stroke="black" d="M609.8,-578C609.8,-578 489.8,-578 489.8,-578 483.8,-578 477.8,-572 477.8,-566 477.8,-566 477.8,-539.6 477.8,-539.6 477.8,-533.6 483.8,-527.6 489.8,-527.6 489.8,-527.6 609.8,-527.6 609.8,-527.6 615.8,-527.6 621.8,-533.6 621.8,-539.6 621.8,-539.6 621.8,-566 621.8,-566 621.8,-572 615.8,-578 609.8,-578"/>
<text xml:space="preserve" text-anchor="middle" x="549.8" y="-555.85" font-family="Arial Bold" font-size="11.00" fill="white">Tool Registry</text>
<text xml:space="preserve" text-anchor="middle" x="549.8" y="-542.35" font-family="Arial Bold" font-size="11.00" fill="white">(29 Tools)</text>
</g>
<!-- claude&#45;&gt;tool_reg -->
<g id="edge1" class="edge">
<title>claude&#45;&gt;tool_reg</title>
<path fill="none" stroke="#4285f4" stroke-width="1.5" d="M954.8,-635.55C954.8,-603.34 954.8,-544 954.8,-544 954.8,-544 632.48,-544 632.48,-544"/>
<polygon fill="#4285f4" stroke="#4285f4" stroke-width="1.5" points="632.48,-541.2 624.48,-544 632.48,-546.8 632.48,-541.2"/>
</g>
<!-- gemini -->
<g id="node2" class="node">
<title>gemini</title>
<path fill="#4285f4" stroke="black" d="M215.6,-675.6C215.6,-675.6 146,-675.6 146,-675.6 140,-675.6 134,-669.6 134,-663.6 134,-663.6 134,-648 134,-648 134,-642 140,-636 146,-636 146,-636 215.6,-636 215.6,-636 221.6,-636 227.6,-642 227.6,-648 227.6,-648 227.6,-663.6 227.6,-663.6 227.6,-669.6 221.6,-675.6 215.6,-675.6"/>
<text xml:space="preserve" text-anchor="middle" x="180.8" y="-658.3" font-family="Arial Bold" font-size="10.00" fill="white">Gemini</text>
<text xml:space="preserve" text-anchor="middle" x="180.8" y="-646.3" font-family="Arial Bold" font-size="10.00" fill="white">CLI</text>
</g>
<!-- gemini&#45;&gt;tool_reg -->
<g id="edge2" class="edge">
<title>gemini&#45;&gt;tool_reg</title>
<path fill="none" stroke="#4285f4" stroke-width="1.5" d="M219.3,-635.55C219.3,-603.34 219.3,-544 219.3,-544 219.3,-544 467.41,-544 467.41,-544"/>
<polygon fill="#4285f4" stroke="#4285f4" stroke-width="1.5" points="467.41,-546.8 475.41,-544 467.41,-541.2 467.41,-546.8"/>
</g>
<!-- cursor -->
<g id="node3" class="node">
<title>cursor</title>
<path fill="#4285f4" stroke="black" d="M338.6,-675.6C338.6,-675.6 269,-675.6 269,-675.6 263,-675.6 257,-669.6 257,-663.6 257,-663.6 257,-648 257,-648 257,-642 263,-636 269,-636 269,-636 338.6,-636 338.6,-636 344.6,-636 350.6,-642 350.6,-648 350.6,-648 350.6,-663.6 350.6,-663.6 350.6,-669.6 344.6,-675.6 338.6,-675.6"/>
<text xml:space="preserve" text-anchor="middle" x="303.8" y="-652.3" font-family="Arial Bold" font-size="10.00" fill="white">Cursor</text>
</g>
<!-- cursor&#45;&gt;tool_reg -->
<g id="edge3" class="edge">
<title>cursor&#45;&gt;tool_reg</title>
<path fill="none" stroke="#4285f4" stroke-width="1.5" d="M345.6,-635.7C345.6,-607.87 345.6,-561 345.6,-561 345.6,-561 467.25,-561 467.25,-561"/>
<polygon fill="#4285f4" stroke="#4285f4" stroke-width="1.5" points="467.25,-563.8 475.25,-561 467.25,-558.2 467.25,-563.8"/>
</g>
<!-- copilot -->
<g id="node4" class="node">
<title>copilot</title>
<path fill="#4285f4" stroke="black" d="M461.6,-675.6C461.6,-675.6 392,-675.6 392,-675.6 386,-675.6 380,-669.6 380,-663.6 380,-663.6 380,-648 380,-648 380,-642 386,-636 392,-636 392,-636 461.6,-636 461.6,-636 467.6,-636 473.6,-642 473.6,-648 473.6,-648 473.6,-663.6 473.6,-663.6 473.6,-669.6 467.6,-675.6 461.6,-675.6"/>
<text xml:space="preserve" text-anchor="middle" x="426.8" y="-658.3" font-family="Arial Bold" font-size="10.00" fill="white">GitHub</text>
<text xml:space="preserve" text-anchor="middle" x="426.8" y="-646.3" font-family="Arial Bold" font-size="10.00" fill="white">Copilot</text>
</g>
<!-- copilot&#45;&gt;tool_reg -->
<g id="edge4" class="edge">
<title>copilot&#45;&gt;tool_reg</title>
<path fill="none" stroke="#4285f4" stroke-width="1.5" d="M474.02,-656C483.39,-656 490.4,-656 490.4,-656 490.4,-656 490.4,-588.58 490.4,-588.58"/>
<polygon fill="#4285f4" stroke="#4285f4" stroke-width="1.5" points="493.2,-588.58 490.4,-580.58 487.6,-588.58 493.2,-588.58"/>
</g>
<!-- vscode -->
<g id="node5" class="node">
<title>vscode</title>
<path fill="#4285f4" stroke="black" d="M584.6,-675.6C584.6,-675.6 515,-675.6 515,-675.6 509,-675.6 503,-669.6 503,-663.6 503,-663.6 503,-648 503,-648 503,-642 509,-636 515,-636 515,-636 584.6,-636 584.6,-636 590.6,-636 596.6,-642 596.6,-648 596.6,-648 596.6,-663.6 596.6,-663.6 596.6,-669.6 590.6,-675.6 584.6,-675.6"/>
<text xml:space="preserve" text-anchor="middle" x="549.8" y="-652.3" font-family="Arial Bold" font-size="10.00" fill="white">VS Code</text>
</g>
<!-- vscode&#45;&gt;tool_reg -->
<g id="edge5" class="edge">
<title>vscode&#45;&gt;tool_reg</title>
<path fill="none" stroke="#4285f4" stroke-width="1.5" d="M549.8,-635.94C549.8,-635.94 549.8,-588.73 549.8,-588.73"/>
<polygon fill="#4285f4" stroke="#4285f4" stroke-width="1.5" points="552.6,-588.73 549.8,-580.73 547,-588.73 552.6,-588.73"/>
</g>
<!-- other -->
<g id="node6" class="node">
<title>other</title>
<path fill="#4285f4" stroke="black" d="M707.6,-675.6C707.6,-675.6 638,-675.6 638,-675.6 632,-675.6 626,-669.6 626,-663.6 626,-663.6 626,-648 626,-648 626,-642 632,-636 638,-636 638,-636 707.6,-636 707.6,-636 713.6,-636 719.6,-642 719.6,-648 719.6,-648 719.6,-663.6 719.6,-663.6 719.6,-669.6 713.6,-675.6 707.6,-675.6"/>
<text xml:space="preserve" text-anchor="middle" x="672.8" y="-658.3" font-family="Arial Bold" font-size="10.00" fill="white">Other</text>
<text xml:space="preserve" text-anchor="middle" x="672.8" y="-646.3" font-family="Arial Bold" font-size="10.00" fill="white">Clients</text>
</g>
<!-- other&#45;&gt;tool_reg -->
<g id="edge6" class="edge">
<title>other&#45;&gt;tool_reg</title>
<path fill="none" stroke="#4285f4" stroke-width="1.5" d="M625.58,-656C616.21,-656 609.2,-656 609.2,-656 609.2,-656 609.2,-588.58 609.2,-588.58"/>
<polygon fill="#4285f4" stroke="#4285f4" stroke-width="1.5" points="612,-588.58 609.2,-580.58 606.4,-588.58 612,-588.58"/>
</g>
<!-- client_label -->
<g id="node7" class="node">
<title>client_label</title>
<path fill="#e8f0fe" stroke="black" d="M1007.6,-769.6C1007.6,-769.6 902,-769.6 902,-769.6 896,-769.6 890,-763.6 890,-757.6 890,-757.6 890,-745.6 890,-745.6 890,-739.6 896,-733.6 902,-733.6 902,-733.6 1007.6,-733.6 1007.6,-733.6 1013.6,-733.6 1019.6,-739.6 1019.6,-745.6 1019.6,-745.6 1019.6,-757.6 1019.6,-757.6 1019.6,-763.6 1013.6,-769.6 1007.6,-769.6"/>
<text xml:space="preserve" text-anchor="middle" x="954.8" y="-746.17" font-family="Arial Bold" font-size="14.00" fill="#1a73e8">MCP Clients</text>
</g>
<!-- client_label&#45;&gt;claude -->
<!-- mutex -->
<g id="node9" class="node">
<title>mutex</title>
<path fill="#34a853" stroke="black" d="M609.8,-469.6C609.8,-469.6 489.8,-469.6 489.8,-469.6 483.8,-469.6 477.8,-463.6 477.8,-457.6 477.8,-457.6 477.8,-431.2 477.8,-431.2 477.8,-425.2 483.8,-419.2 489.8,-419.2 489.8,-419.2 609.8,-419.2 609.8,-419.2 615.8,-419.2 621.8,-425.2 621.8,-431.2 621.8,-431.2 621.8,-457.6 621.8,-457.6 621.8,-463.6 615.8,-469.6 609.8,-469.6"/>
<text xml:space="preserve" text-anchor="middle" x="549.8" y="-447.45" font-family="Arial Bold" font-size="11.00" fill="white">Mutex</text>
<text xml:space="preserve" text-anchor="middle" x="549.8" y="-433.95" font-family="Arial Bold" font-size="11.00" fill="white">Serializer</text>
</g>
<!-- tool_reg&#45;&gt;mutex -->
<g id="edge7" class="edge">
<title>tool_reg&#45;&gt;mutex</title>
<path fill="none" stroke="#34a853" stroke-width="2" d="M549.8,-527.11C549.8,-527.11 549.8,-482.93 549.8,-482.93"/>
<polygon fill="#34a853" stroke="#34a853" stroke-width="2" points="553.3,-482.93 549.8,-472.93 546.3,-482.93 553.3,-482.93"/>
</g>
<!-- resp -->
<g id="node10" class="node">
<title>resp</title>
<path fill="#34a853" stroke="black" d="M609.8,-361.2C609.8,-361.2 489.8,-361.2 489.8,-361.2 483.8,-361.2 477.8,-355.2 477.8,-349.2 477.8,-349.2 477.8,-322.8 477.8,-322.8 477.8,-316.8 483.8,-310.8 489.8,-310.8 489.8,-310.8 609.8,-310.8 609.8,-310.8 615.8,-310.8 621.8,-316.8 621.8,-322.8 621.8,-322.8 621.8,-349.2 621.8,-349.2 621.8,-355.2 615.8,-361.2 609.8,-361.2"/>
<text xml:space="preserve" text-anchor="middle" x="549.8" y="-339.05" font-family="Arial Bold" font-size="11.00" fill="white">Response</text>
<text xml:space="preserve" text-anchor="middle" x="549.8" y="-325.55" font-family="Arial Bold" font-size="11.00" fill="white">Builder</text>
</g>
<!-- mutex&#45;&gt;resp -->
<g id="edge8" class="edge">
<title>mutex&#45;&gt;resp</title>
<path fill="none" stroke="#34a853" stroke-width="2" d="M549.8,-418.71C549.8,-418.71 549.8,-374.53 549.8,-374.53"/>
<polygon fill="#34a853" stroke="#34a853" stroke-width="2" points="553.3,-374.53 549.8,-364.53 546.3,-374.53 553.3,-374.53"/>
</g>
<!-- page_mgr -->
<g id="node12" class="node">
<title>page_mgr</title>
<path fill="#9334e6" stroke="black" d="M317.8,-252.8C317.8,-252.8 233.8,-252.8 233.8,-252.8 227.8,-252.8 221.8,-246.8 221.8,-240.8 221.8,-240.8 221.8,-225.2 221.8,-225.2 221.8,-219.2 227.8,-213.2 233.8,-213.2 233.8,-213.2 317.8,-213.2 317.8,-213.2 323.8,-213.2 329.8,-219.2 329.8,-225.2 329.8,-225.2 329.8,-240.8 329.8,-240.8 329.8,-246.8 323.8,-252.8 317.8,-252.8"/>
<text xml:space="preserve" text-anchor="middle" x="275.8" y="-235.5" font-family="Arial Bold" font-size="10.00" fill="white">Page</text>
<text xml:space="preserve" text-anchor="middle" x="275.8" y="-223.5" font-family="Arial Bold" font-size="10.00" fill="white">Manager</text>
</g>
<!-- resp&#45;&gt;page_mgr -->
<g id="edge9" class="edge">
<title>resp&#45;&gt;page_mgr</title>
<path fill="none" stroke="#9334e6" stroke-width="2" d="M477.47,-314C401.77,-314 293.8,-314 293.8,-314 293.8,-314 293.8,-266.05 293.8,-266.05"/>
<polygon fill="#9334e6" stroke="#9334e6" stroke-width="2" points="297.3,-266.05 293.8,-256.05 290.3,-266.05 297.3,-266.05"/>
</g>
<!-- net_col -->
<g id="node13" class="node">
<title>net_col</title>
<path fill="#9334e6" stroke="black" d="M454.8,-252.8C454.8,-252.8 370.8,-252.8 370.8,-252.8 364.8,-252.8 358.8,-246.8 358.8,-240.8 358.8,-240.8 358.8,-225.2 358.8,-225.2 358.8,-219.2 364.8,-213.2 370.8,-213.2 370.8,-213.2 454.8,-213.2 454.8,-213.2 460.8,-213.2 466.8,-219.2 466.8,-225.2 466.8,-225.2 466.8,-240.8 466.8,-240.8 466.8,-246.8 460.8,-252.8 454.8,-252.8"/>
<text xml:space="preserve" text-anchor="middle" x="412.8" y="-235.5" font-family="Arial Bold" font-size="10.00" fill="white">Network</text>
<text xml:space="preserve" text-anchor="middle" x="412.8" y="-223.5" font-family="Arial Bold" font-size="10.00" fill="white">Collector</text>
</g>
<!-- resp&#45;&gt;net_col -->
<g id="edge10" class="edge">
<title>resp&#45;&gt;net_col</title>
<path fill="none" stroke="#9334e6" stroke-width="1.5" stroke-dasharray="5,2" d="M486.8,-310.54C486.8,-280.04 486.8,-233 486.8,-233 486.8,-233 479.24,-233 479.24,-233"/>
<polygon fill="#9334e6" stroke="#9334e6" stroke-width="1.5" points="479.24,-229.5 469.24,-233 479.24,-236.5 479.24,-229.5"/>
</g>
<!-- con_col -->
<g id="node14" class="node">
<title>con_col</title>
<path fill="#9334e6" stroke="black" d="M591.8,-252.8C591.8,-252.8 507.8,-252.8 507.8,-252.8 501.8,-252.8 495.8,-246.8 495.8,-240.8 495.8,-240.8 495.8,-225.2 495.8,-225.2 495.8,-219.2 501.8,-213.2 507.8,-213.2 507.8,-213.2 591.8,-213.2 591.8,-213.2 597.8,-213.2 603.8,-219.2 603.8,-225.2 603.8,-225.2 603.8,-240.8 603.8,-240.8 603.8,-246.8 597.8,-252.8 591.8,-252.8"/>
<text xml:space="preserve" text-anchor="middle" x="549.8" y="-235.5" font-family="Arial Bold" font-size="10.00" fill="white">Console</text>
<text xml:space="preserve" text-anchor="middle" x="549.8" y="-223.5" font-family="Arial Bold" font-size="10.00" fill="white">Collector</text>
</g>
<!-- resp&#45;&gt;con_col -->
<g id="edge11" class="edge">
<title>resp&#45;&gt;con_col</title>
<path fill="none" stroke="#9334e6" stroke-width="1.5" stroke-dasharray="5,2" d="M549.8,-310.54C549.8,-310.54 549.8,-265.28 549.8,-265.28"/>
<polygon fill="#9334e6" stroke="#9334e6" stroke-width="1.5" points="553.3,-265.28 549.8,-255.28 546.3,-265.28 553.3,-265.28"/>
</g>
<!-- emu_state -->
<g id="node15" class="node">
<title>emu_state</title>
<path fill="#9334e6" stroke="black" d="M728.8,-252.8C728.8,-252.8 644.8,-252.8 644.8,-252.8 638.8,-252.8 632.8,-246.8 632.8,-240.8 632.8,-240.8 632.8,-225.2 632.8,-225.2 632.8,-219.2 638.8,-213.2 644.8,-213.2 644.8,-213.2 728.8,-213.2 728.8,-213.2 734.8,-213.2 740.8,-219.2 740.8,-225.2 740.8,-225.2 740.8,-240.8 740.8,-240.8 740.8,-246.8 734.8,-252.8 728.8,-252.8"/>
<text xml:space="preserve" text-anchor="middle" x="686.8" y="-235.5" font-family="Arial Bold" font-size="10.00" fill="white">Emulation</text>
<text xml:space="preserve" text-anchor="middle" x="686.8" y="-223.5" font-family="Arial Bold" font-size="10.00" fill="white">State</text>
</g>
<!-- resp&#45;&gt;emu_state -->
<g id="edge12" class="edge">
<title>resp&#45;&gt;emu_state</title>
<path fill="none" stroke="#9334e6" stroke-width="1.5" stroke-dasharray="5,2" d="M612.8,-310.54C612.8,-280.04 612.8,-233 612.8,-233 612.8,-233 620.36,-233 620.36,-233"/>
<polygon fill="#9334e6" stroke="#9334e6" stroke-width="1.5" points="620.36,-236.5 630.36,-233 620.36,-229.5 620.36,-236.5"/>
</g>
<!-- ext_reg -->
<g id="node16" class="node">
<title>ext_reg</title>
<path fill="#9334e6" stroke="black" d="M865.8,-252.8C865.8,-252.8 781.8,-252.8 781.8,-252.8 775.8,-252.8 769.8,-246.8 769.8,-240.8 769.8,-240.8 769.8,-225.2 769.8,-225.2 769.8,-219.2 775.8,-213.2 781.8,-213.2 781.8,-213.2 865.8,-213.2 865.8,-213.2 871.8,-213.2 877.8,-219.2 877.8,-225.2 877.8,-225.2 877.8,-240.8 877.8,-240.8 877.8,-246.8 871.8,-252.8 865.8,-252.8"/>
<text xml:space="preserve" text-anchor="middle" x="823.8" y="-235.5" font-family="Arial Bold" font-size="10.00" fill="white">Extension</text>
<text xml:space="preserve" text-anchor="middle" x="823.8" y="-223.5" font-family="Arial Bold" font-size="10.00" fill="white">Registry</text>
</g>
<!-- resp&#45;&gt;ext_reg -->
<g id="edge13" class="edge">
<title>resp&#45;&gt;ext_reg</title>
<path fill="none" stroke="#9334e6" stroke-width="1.5" stroke-dasharray="5,2" d="M622.15,-336C703.33,-336 823.8,-336 823.8,-336 823.8,-336 823.8,-265.13 823.8,-265.13"/>
<polygon fill="#9334e6" stroke="#9334e6" stroke-width="1.5" points="827.3,-265.13 823.8,-255.13 820.3,-265.13 827.3,-265.13"/>
</g>
<!-- server_label -->
<g id="node11" class="node">
<title>server_label</title>
<path fill="#e8f5e9" stroke="black" d="M866.6,-673.8C866.6,-673.8 761,-673.8 761,-673.8 755,-673.8 749,-667.8 749,-661.8 749,-661.8 749,-649.8 749,-649.8 749,-643.8 755,-637.8 761,-637.8 761,-637.8 866.6,-637.8 866.6,-637.8 872.6,-637.8 878.6,-643.8 878.6,-649.8 878.6,-649.8 878.6,-661.8 878.6,-661.8 878.6,-667.8 872.6,-673.8 866.6,-673.8"/>
<text xml:space="preserve" text-anchor="middle" x="813.8" y="-650.38" font-family="Arial Bold" font-size="14.00" fill="#34a853">MCP Server</text>
</g>
<!-- server_label&#45;&gt;tool_reg -->
<!-- a11y -->
<g id="node18" class="node">
<title>a11y</title>
<path fill="#ff6d01" stroke="black" d="M106.8,-155.2C106.8,-155.2 22.8,-155.2 22.8,-155.2 16.8,-155.2 10.8,-149.2 10.8,-143.2 10.8,-143.2 10.8,-127.6 10.8,-127.6 10.8,-121.6 16.8,-115.6 22.8,-115.6 22.8,-115.6 106.8,-115.6 106.8,-115.6 112.8,-115.6 118.8,-121.6 118.8,-127.6 118.8,-127.6 118.8,-143.2 118.8,-143.2 118.8,-149.2 112.8,-155.2 106.8,-155.2"/>
<text xml:space="preserve" text-anchor="middle" x="64.8" y="-137.9" font-family="Arial Bold" font-size="10.00" fill="white">Accessibility</text>
<text xml:space="preserve" text-anchor="middle" x="64.8" y="-125.9" font-family="Arial Bold" font-size="10.00" fill="white">Tree</text>
</g>
<!-- page_mgr&#45;&gt;a11y -->
<g id="edge14" class="edge">
<title>page_mgr&#45;&gt;a11y</title>
<path fill="none" stroke="#ff6d01" stroke-width="2" d="M221.57,-233C183.23,-233 138.6,-233 138.6,-233 138.6,-233 138.6,-142 138.6,-142 138.6,-142 132.24,-142 132.24,-142"/>
<polygon fill="#ff6d01" stroke="#ff6d01" stroke-width="2" points="132.24,-138.5 122.24,-142 132.24,-145.5 132.24,-138.5"/>
</g>
<!-- uid -->
<g id="node19" class="node">
<title>uid</title>
<path fill="#ff6d01" stroke="black" d="M243.8,-155.2C243.8,-155.2 159.8,-155.2 159.8,-155.2 153.8,-155.2 147.8,-149.2 147.8,-143.2 147.8,-143.2 147.8,-127.6 147.8,-127.6 147.8,-121.6 153.8,-115.6 159.8,-115.6 159.8,-115.6 243.8,-115.6 243.8,-115.6 249.8,-115.6 255.8,-121.6 255.8,-127.6 255.8,-127.6 255.8,-143.2 255.8,-143.2 255.8,-149.2 249.8,-155.2 243.8,-155.2"/>
<text xml:space="preserve" text-anchor="middle" x="201.8" y="-137.9" font-family="Arial Bold" font-size="10.00" fill="white">UID</text>
<text xml:space="preserve" text-anchor="middle" x="201.8" y="-125.9" font-family="Arial Bold" font-size="10.00" fill="white">Mapping</text>
</g>
<!-- page_mgr&#45;&gt;uid -->
<g id="edge15" class="edge">
<title>page_mgr&#45;&gt;uid</title>
<path fill="none" stroke="#ff6d01" stroke-width="1.5" d="M238.8,-212.78C238.8,-212.78 238.8,-167.87 238.8,-167.87"/>
<polygon fill="#ff6d01" stroke="#ff6d01" stroke-width="1.5" points="242.3,-167.87 238.8,-157.87 235.3,-167.87 242.3,-167.87"/>
</g>
<!-- dialog -->
<g id="node20" class="node">
<title>dialog</title>
<path fill="#ff6d01" stroke="black" d="M380.8,-155.2C380.8,-155.2 296.8,-155.2 296.8,-155.2 290.8,-155.2 284.8,-149.2 284.8,-143.2 284.8,-143.2 284.8,-127.6 284.8,-127.6 284.8,-121.6 290.8,-115.6 296.8,-115.6 296.8,-115.6 380.8,-115.6 380.8,-115.6 386.8,-115.6 392.8,-121.6 392.8,-127.6 392.8,-127.6 392.8,-143.2 392.8,-143.2 392.8,-149.2 386.8,-155.2 380.8,-155.2"/>
<text xml:space="preserve" text-anchor="middle" x="338.8" y="-137.9" font-family="Arial Bold" font-size="10.00" fill="white">Dialog</text>
<text xml:space="preserve" text-anchor="middle" x="338.8" y="-125.9" font-family="Arial Bold" font-size="10.00" fill="white">Handler</text>
</g>
<!-- page_mgr&#45;&gt;dialog -->
<g id="edge16" class="edge">
<title>page_mgr&#45;&gt;dialog</title>
<path fill="none" stroke="#ff6d01" stroke-width="1.5" d="M299.8,-212.78C299.8,-212.78 299.8,-167.87 299.8,-167.87"/>
<polygon fill="#ff6d01" stroke="#ff6d01" stroke-width="1.5" points="303.3,-167.87 299.8,-157.87 296.3,-167.87 303.3,-167.87"/>
</g>
<!-- wait -->
<g id="node21" class="node">
<title>wait</title>
<path fill="#ff6d01" stroke="black" d="M517.8,-155.2C517.8,-155.2 433.8,-155.2 433.8,-155.2 427.8,-155.2 421.8,-149.2 421.8,-143.2 421.8,-143.2 421.8,-127.6 421.8,-127.6 421.8,-121.6 427.8,-115.6 433.8,-115.6 433.8,-115.6 517.8,-115.6 517.8,-115.6 523.8,-115.6 529.8,-121.6 529.8,-127.6 529.8,-127.6 529.8,-143.2 529.8,-143.2 529.8,-149.2 523.8,-155.2 517.8,-155.2"/>
<text xml:space="preserve" text-anchor="middle" x="475.8" y="-137.9" font-family="Arial Bold" font-size="10.00" fill="white">Wait&#45;for</text>
<text xml:space="preserve" text-anchor="middle" x="475.8" y="-125.9" font-family="Arial Bold" font-size="10.00" fill="white">Helper</text>
</g>
<!-- page_mgr&#45;&gt;wait -->
<g id="edge17" class="edge">
<title>page_mgr&#45;&gt;wait</title>
<path fill="none" stroke="#ff6d01" stroke-width="1.5" d="M314.8,-212.79C314.8,-199.29 314.8,-184 314.8,-184 314.8,-184 444.3,-184 444.3,-184 444.3,-184 444.3,-167.72 444.3,-167.72"/>
<polygon fill="#ff6d01" stroke="#ff6d01" stroke-width="1.5" points="447.8,-167.72 444.3,-157.72 440.8,-167.72 447.8,-167.72"/>
</g>
<!-- ctx_label -->
<g id="node17" class="node">
<title>ctx_label</title>
<path fill="#f3e5f5" stroke="black" d="M328.6,-354C328.6,-354 223,-354 223,-354 217,-354 211,-348 211,-342 211,-342 211,-330 211,-330 211,-324 217,-318 223,-318 223,-318 328.6,-318 328.6,-318 334.6,-318 340.6,-324 340.6,-330 340.6,-330 340.6,-342 340.6,-342 340.6,-348 334.6,-354 328.6,-354"/>
<text xml:space="preserve" text-anchor="middle" x="275.8" y="-330.57" font-family="Arial Bold" font-size="14.00" fill="#9334e6">McpContext</text>
</g>
<!-- ctx_label&#45;&gt;page_mgr -->
<!-- chrome -->
<g id="node23" class="node">
<title>chrome</title>
<path fill="#ea4335" stroke="black" d="M401.8,-57.6C401.8,-57.6 137.8,-57.6 137.8,-57.6 131.8,-57.6 125.8,-51.6 125.8,-45.6 125.8,-45.6 125.8,-12 125.8,-12 125.8,-6 131.8,0 137.8,0 137.8,0 401.8,0 401.8,0 407.8,0 413.8,-6 413.8,-12 413.8,-12 413.8,-45.6 413.8,-45.6 413.8,-51.6 407.8,-57.6 401.8,-57.6"/>
<text xml:space="preserve" text-anchor="middle" x="269.8" y="-31.45" font-family="Arial Bold" font-size="13.00" fill="white">Chrome Browser</text>
<text xml:space="preserve" text-anchor="middle" x="269.8" y="-16.45" font-family="Arial Bold" font-size="13.00" fill="white">(via Puppeteer CDP)</text>
</g>
<!-- a11y&#45;&gt;chrome -->
<g id="edge18" class="edge">
<title>a11y&#45;&gt;chrome</title>
<path fill="none" stroke="#ea4335" stroke-width="1.5" d="M119.25,-129C132.63,-129 143.2,-129 143.2,-129 143.2,-129 143.2,-68.32 143.2,-68.32"/>
<polygon fill="#ea4335" stroke="#ea4335" stroke-width="1.5" points="146,-68.32 143.2,-60.32 140.4,-68.32 146,-68.32"/>
</g>
<!-- uid&#45;&gt;chrome -->
<g id="edge19" class="edge">
<title>uid&#45;&gt;chrome</title>
<path fill="none" stroke="#ea4335" stroke-width="1.5" d="M201.8,-115.35C201.8,-115.35 201.8,-68.29 201.8,-68.29"/>
<polygon fill="#ea4335" stroke="#ea4335" stroke-width="1.5" points="204.6,-68.29 201.8,-60.29 199,-68.29 204.6,-68.29"/>
</g>
<!-- dialog&#45;&gt;chrome -->
<g id="edge20" class="edge">
<title>dialog&#45;&gt;chrome</title>
<path fill="none" stroke="#ea4335" stroke-width="1.5" d="M338.8,-115.35C338.8,-115.35 338.8,-68.29 338.8,-68.29"/>
<polygon fill="#ea4335" stroke="#ea4335" stroke-width="1.5" points="341.6,-68.29 338.8,-60.29 336,-68.29 341.6,-68.29"/>
</g>
<!-- wait&#45;&gt;chrome -->
<g id="edge21" class="edge">
<title>wait&#45;&gt;chrome</title>
<path fill="none" stroke="#ea4335" stroke-width="1.5" d="M421.59,-135C411.11,-135 403.3,-135 403.3,-135 403.3,-135 403.3,-68.09 403.3,-68.09"/>
<polygon fill="#ea4335" stroke="#ea4335" stroke-width="1.5" points="406.1,-68.09 403.3,-60.09 400.5,-68.09 406.1,-68.09"/>
</g>
<!-- page_label -->
<g id="node22" class="node">
<title>page_label</title>
<path fill="#fff3e0" stroke="black" d="M117.6,-251C117.6,-251 12,-251 12,-251 6,-251 0,-245 0,-239 0,-239 0,-227 0,-227 0,-221 6,-215 12,-215 12,-215 117.6,-215 117.6,-215 123.6,-215 129.6,-221 129.6,-227 129.6,-227 129.6,-239 129.6,-239 129.6,-245 123.6,-251 117.6,-251"/>
<text xml:space="preserve" text-anchor="middle" x="64.8" y="-227.57" font-family="Arial Bold" font-size="14.00" fill="#ff6d01">McpPage</text>
</g>
<!-- page_label&#45;&gt;a11y -->
</g>
</svg>
