<?xml version="1.0" encoding="UTF-8" standalone="no"?>
<!DOCTYPE svg PUBLIC "-//W3C//DTD SVG 1.1//EN"
 "http://www.w3.org/Graphics/SVG/1.1/DTD/svg11.dtd">
<!-- Generated by graphviz version 14.1.2 (0)
 -->
<!-- Title: open_agents_architecture Pages: 1 -->
<svg width="749pt" height="709pt"
 viewBox="0.00 0.00 749.00 709.00" xmlns="http://www.w3.org/2000/svg" xmlns:xlink="http://www.w3.org/1999/xlink">
<g id="graph0" class="graph" transform="scale(1 1) rotate(0) translate(4 704.5)">
<title>open_agents_architecture</title>
<polygon fill="white" stroke="none" points="-4,4 -4,-704.5 744.5,-704.5 744.5,4 -4,4"/>
<!-- web_label -->
<g id="node1" class="node">
<title>web_label</title>
<text xml:space="preserve" text-anchor="middle" x="42.12" y="-677.08" font-family="Arial Bold" font-size="14.00" fill="#2196f3">Web Layer</text>
</g>
<!-- web_auth -->
<g id="node2" class="node">
<title>web_auth</title>
<polygon fill="#4caf50" stroke="black" points="211.25,-700.5 127,-700.5 127,-664.5 211.25,-664.5 211.25,-700.5"/>
<text xml:space="preserve" text-anchor="middle" x="169.12" y="-685.55" font-family="Arial" font-size="11.00" fill="white">Authentication</text>
<text xml:space="preserve" text-anchor="middle" x="169.12" y="-672.05" font-family="Arial" font-size="11.00" fill="white">Vercel OAuth</text>
</g>
<!-- postgres -->
<g id="node14" class="node">
<title>postgres</title>
<path fill="#ff9800" stroke="black" d="M203.75,-588.5C203.75,-590.71 188.23,-592.5 169.12,-592.5 150.02,-592.5 134.5,-590.71 134.5,-588.5 134.5,-588.5 134.5,-552.5 134.5,-552.5 134.5,-550.29 150.02,-548.5 169.12,-548.5 188.23,-548.5 203.75,-550.29 203.75,-552.5 203.75,-552.5 203.75,-588.5 203.75,-588.5"/>
<path fill="none" stroke="black" d="M203.75,-588.5C203.75,-586.29 188.23,-584.5 169.12,-584.5 150.02,-584.5 134.5,-586.29 134.5,-588.5"/>
<text xml:space="preserve" text-anchor="middle" x="169.12" y="-573" font-family="Arial" font-size="10.00" fill="white">PostgreSQL</text>
<text xml:space="preserve" text-anchor="middle" x="169.12" y="-561" font-family="Arial" font-size="10.00" fill="white">Database</text>
</g>
<!-- web_auth&#45;&gt;postgres -->
<g id="edge8" class="edge">
<title>web_auth&#45;&gt;postgres</title>
<path fill="none" stroke="#ff9800" stroke-width="1.5" stroke-dasharray="5,2" d="M169.12,-664.01C169.12,-664.01 169.12,-605.15 169.12,-605.15"/>
<polygon fill="#ff9800" stroke="#ff9800" stroke-width="1.5" points="172.63,-605.15 169.13,-595.15 165.63,-605.15 172.63,-605.15"/>
</g>
<!-- web_sessions -->
<g id="node3" class="node">
<title>web_sessions</title>
<polygon fill="#4caf50" stroke="black" points="339.62,-700.5 260.62,-700.5 260.62,-664.5 339.62,-664.5 339.62,-700.5"/>
<text xml:space="preserve" text-anchor="middle" x="300.12" y="-685.55" font-family="Arial" font-size="11.00" fill="white">Session</text>
<text xml:space="preserve" text-anchor="middle" x="300.12" y="-672.05" font-family="Arial" font-size="11.00" fill="white">Management</text>
</g>
<!-- agent_workflow -->
<g id="node6" class="node">
<title>agent_workflow</title>
<path fill="#2196f3" stroke="black" d="M351.75,-588.75C351.75,-588.75 258.5,-588.75 258.5,-588.75 252.5,-588.75 246.5,-582.75 246.5,-576.75 246.5,-576.75 246.5,-564.25 246.5,-564.25 246.5,-558.25 252.5,-552.25 258.5,-552.25 258.5,-552.25 351.75,-552.25 351.75,-552.25 357.75,-552.25 363.75,-558.25 363.75,-564.25 363.75,-564.25 363.75,-576.75 363.75,-576.75 363.75,-582.75 357.75,-588.75 351.75,-588.75"/>
<text xml:space="preserve" text-anchor="middle" x="305.12" y="-573.35" font-family="Arial Bold" font-size="12.00" fill="white">Durable Workflow</text>
<text xml:space="preserve" text-anchor="middle" x="305.12" y="-559.1" font-family="Arial Bold" font-size="12.00" fill="white">Vercel SDK</text>
</g>
<!-- web_sessions&#45;&gt;agent_workflow -->
<g id="edge2" class="edge">
<title>web_sessions&#45;&gt;agent_workflow</title>
<path fill="none" stroke="#4caf50" stroke-width="2" d="M300.12,-664.01C300.12,-664.01 300.12,-602.05 300.12,-602.05"/>
<polygon fill="#4caf50" stroke="#4caf50" stroke-width="2" points="303.63,-602.05 300.13,-592.05 296.63,-602.05 303.63,-602.05"/>
</g>
<!-- web_chat -->
<g id="node4" class="node">
<title>web_chat</title>
<polygon fill="#4caf50" stroke="black" points="447.88,-700.5 382.38,-700.5 382.38,-664.5 447.88,-664.5 447.88,-700.5"/>
<text xml:space="preserve" text-anchor="middle" x="415.12" y="-685.55" font-family="Arial" font-size="11.00" fill="white">Chat UI</text>
<text xml:space="preserve" text-anchor="middle" x="415.12" y="-672.05" font-family="Arial" font-size="11.00" fill="white">Streaming</text>
</g>
<!-- web_chat&#45;&gt;agent_workflow -->
<g id="edge1" class="edge">
<title>web_chat&#45;&gt;agent_workflow</title>
<path fill="none" stroke="#4caf50" stroke-width="2" d="M381.92,-683C366.57,-683 351.69,-683 351.69,-683 351.69,-683 351.69,-602.1 351.69,-602.1"/>
<polygon fill="#4caf50" stroke="#4caf50" stroke-width="2" points="355.19,-602.1 351.69,-592.1 348.19,-602.1 355.19,-602.1"/>
</g>
<!-- agent_label -->
<g id="node5" class="node">
<title>agent_label</title>
<text xml:space="preserve" text-anchor="middle" x="538.12" y="-677.08" font-family="Arial Bold" font-size="14.00" fill="#2196f3">Agent Layer</text>
</g>
<!-- agent_runtime -->
<g id="node7" class="node">
<title>agent_runtime</title>
<path fill="#2196f3" stroke="black" d="M345.75,-476.5C345.75,-476.5 264.5,-476.5 264.5,-476.5 258.5,-476.5 252.5,-470.5 252.5,-464.5 252.5,-464.5 252.5,-452 252.5,-452 252.5,-446 258.5,-440 264.5,-440 264.5,-440 345.75,-440 345.75,-440 351.75,-440 357.75,-446 357.75,-452 357.75,-452 357.75,-464.5 357.75,-464.5 357.75,-470.5 351.75,-476.5 345.75,-476.5"/>
<text xml:space="preserve" text-anchor="middle" x="305.12" y="-461.1" font-family="Arial Bold" font-size="12.00" fill="white">Agent Runtime</text>
<text xml:space="preserve" text-anchor="middle" x="305.12" y="-446.85" font-family="Arial Bold" font-size="12.00" fill="white">ToolLoopAgent</text>
</g>
<!-- agent_workflow&#45;&gt;agent_runtime -->
<g id="edge3" class="edge">
<title>agent_workflow&#45;&gt;agent_runtime</title>
<path fill="none" stroke="#2196f3" stroke-width="2" d="M305.12,-551.96C305.12,-551.96 305.12,-489.84 305.12,-489.84"/>
<polygon fill="#2196f3" stroke="#2196f3" stroke-width="2" points="308.63,-489.84 305.13,-479.84 301.63,-489.84 308.63,-489.84"/>
</g>
<!-- agent_tools -->
<g id="node8" class="node">
<title>agent_tools</title>
<path fill="#ff9800" stroke="black" d="M338.62,-368C338.62,-368 271.62,-368 271.62,-368 265.62,-368 259.62,-362 259.62,-356 259.62,-356 259.62,-344 259.62,-344 259.62,-338 265.62,-332 271.62,-332 271.62,-332 338.62,-332 338.62,-332 344.62,-332 350.62,-338 350.62,-344 350.62,-344 350.62,-356 350.62,-356 350.62,-362 344.62,-368 338.62,-368"/>
<text xml:space="preserve" text-anchor="middle" x="305.12" y="-353.05" font-family="Arial" font-size="11.00" fill="white">Tools</text>
<text xml:space="preserve" text-anchor="middle" x="305.12" y="-339.55" font-family="Arial" font-size="11.00" fill="white">File, Shell, Task</text>
</g>
<!-- agent_runtime&#45;&gt;agent_tools -->
<g id="edge4" class="edge">
<title>agent_runtime&#45;&gt;agent_tools</title>
<path fill="none" stroke="#2196f3" stroke-width="2" d="M305.12,-439.89C305.12,-439.89 305.12,-381.48 305.12,-381.48"/>
<polygon fill="#2196f3" stroke="#2196f3" stroke-width="2" points="308.63,-381.48 305.13,-371.48 301.63,-381.48 308.63,-381.48"/>
</g>
<!-- sandbox_vm -->
<g id="node10" class="node">
<title>sandbox_vm</title>
<path fill="#9c27b0" stroke="black" d="M339,-260C339,-260 271.25,-260 271.25,-260 265.25,-260 259.25,-254 259.25,-248 259.25,-248 259.25,-236 259.25,-236 259.25,-230 265.25,-224 271.25,-224 271.25,-224 339,-224 339,-224 345,-224 351,-230 351,-236 351,-236 351,-248 351,-248 351,-254 345,-260 339,-260"/>
<text xml:space="preserve" text-anchor="middle" x="305.12" y="-245.05" font-family="Arial" font-size="11.00" fill="white">Vercel Sandbox</text>
<text xml:space="preserve" text-anchor="middle" x="305.12" y="-231.55" font-family="Arial" font-size="11.00" fill="white">Isolated VM</text>
</g>
<!-- agent_tools&#45;&gt;sandbox_vm -->
<g id="edge5" class="edge">
<title>agent_tools&#45;&gt;sandbox_vm</title>
<path fill="none" stroke="#ff9800" stroke-width="2" d="M305.12,-331.68C305.12,-331.68 305.12,-273.44 305.12,-273.44"/>
<polygon fill="#ff9800" stroke="#ff9800" stroke-width="2" points="308.63,-273.44 305.13,-263.44 301.63,-273.44 308.63,-273.44"/>
</g>
<!-- sandbox_label -->
<g id="node9" class="node">
<title>sandbox_label</title>
<text xml:space="preserve" text-anchor="middle" x="684.12" y="-677.08" font-family="Arial Bold" font-size="14.00" fill="#2196f3">Sandbox Layer</text>
</g>
<!-- sandbox_fs -->
<g id="node11" class="node">
<title>sandbox_fs</title>
<path fill="#9c27b0" stroke="black" d="M270.88,-152C270.88,-152 199.38,-152 199.38,-152 193.38,-152 187.38,-146 187.38,-140 187.38,-140 187.38,-128 187.38,-128 187.38,-122 193.38,-116 199.38,-116 199.38,-116 270.88,-116 270.88,-116 276.88,-116 282.88,-122 282.88,-128 282.88,-128 282.88,-140 282.88,-140 282.88,-146 276.88,-152 270.88,-152"/>
<text xml:space="preserve" text-anchor="middle" x="235.12" y="-137.05" font-family="Arial" font-size="11.00" fill="white">Filesystem</text>
<text xml:space="preserve" text-anchor="middle" x="235.12" y="-123.55" font-family="Arial" font-size="11.00" fill="white">Git, Dev Servers</text>
</g>
<!-- sandbox_vm&#45;&gt;sandbox_fs -->
<g id="edge6" class="edge">
<title>sandbox_vm&#45;&gt;sandbox_fs</title>
<path fill="none" stroke="#9c27b0" stroke-width="2" d="M271.06,-223.68C271.06,-223.68 271.06,-165.44 271.06,-165.44"/>
<polygon fill="#9c27b0" stroke="#9c27b0" stroke-width="2" points="274.56,-165.44 271.06,-155.44 267.56,-165.44 274.56,-165.44"/>
</g>
<!-- sandbox_ports -->
<g id="node12" class="node">
<title>sandbox_ports</title>
<path fill="#9c27b0" stroke="black" d="M414.12,-152C414.12,-152 338.12,-152 338.12,-152 332.12,-152 326.12,-146 326.12,-140 326.12,-140 326.12,-128 326.12,-128 326.12,-122 332.12,-116 338.12,-116 338.12,-116 414.12,-116 414.12,-116 420.12,-116 426.12,-122 426.12,-128 426.12,-128 426.12,-140 426.12,-140 426.12,-146 420.12,-152 414.12,-152"/>
<text xml:space="preserve" text-anchor="middle" x="376.12" y="-137.05" font-family="Arial" font-size="11.00" fill="white">Exposed Ports</text>
<text xml:space="preserve" text-anchor="middle" x="376.12" y="-123.55" font-family="Arial" font-size="11.00" fill="white">3000, 5173, 4321</text>
</g>
<!-- sandbox_vm&#45;&gt;sandbox_ports -->
<g id="edge7" class="edge">
<title>sandbox_vm&#45;&gt;sandbox_ports</title>
<path fill="none" stroke="#9c27b0" stroke-width="2" d="M338.56,-223.68C338.56,-223.68 338.56,-165.44 338.56,-165.44"/>
<polygon fill="#9c27b0" stroke="#9c27b0" stroke-width="2" points="342.06,-165.44 338.56,-155.44 335.06,-165.44 342.06,-165.44"/>
</g>
<!-- github -->
<g id="node13" class="node">
<title>github</title>
<path fill="#ff9800" stroke="black" d="M276.12,-40C276.12,-42.21 257.75,-44 235.12,-44 212.5,-44 194.12,-42.21 194.12,-40 194.12,-40 194.12,-4 194.12,-4 194.12,-1.79 212.5,0 235.12,0 257.75,0 276.12,-1.79 276.12,-4 276.12,-4 276.12,-40 276.12,-40"/>
<path fill="none" stroke="black" d="M276.12,-40C276.12,-37.79 257.75,-36 235.12,-36 212.5,-36 194.12,-37.79 194.12,-40"/>
<text xml:space="preserve" text-anchor="middle" x="235.12" y="-24.5" font-family="Arial" font-size="10.00" fill="white">GitHub</text>
<text xml:space="preserve" text-anchor="middle" x="235.12" y="-12.5" font-family="Arial" font-size="10.00" fill="white">App Integration</text>
</g>
<!-- sandbox_fs&#45;&gt;github -->
<g id="edge9" class="edge">
<title>sandbox_fs&#45;&gt;github</title>
<path fill="none" stroke="#ff9800" stroke-width="1.5" stroke-dasharray="5,2" d="M235.12,-115.51C235.12,-115.51 235.12,-56.65 235.12,-56.65"/>
<polygon fill="#ff9800" stroke="#ff9800" stroke-width="1.5" points="238.63,-56.65 235.13,-46.65 231.63,-56.65 238.63,-56.65"/>
</g>
</g>
</svg>
