<?xml version="1.0" encoding="UTF-8" standalone="no"?>
<!DOCTYPE svg PUBLIC "-//W3C//DTD SVG 1.1//EN"
 "http://www.w3.org/Graphics/SVG/1.1/DTD/svg11.dtd">
<!-- Generated by graphviz version 14.1.3 (0)
 -->
<!-- Title: meshery&#45;features Pages: 1 -->
<svg width="444pt" height="473pt"
 viewBox="0.00 0.00 444.00 473.00" xmlns="http://www.w3.org/2000/svg" xmlns:xlink="http://www.w3.org/1999/xlink">
<style>
<!-- White text halo for edge label readability -->
text { paint-order: stroke; stroke: #ffffff; stroke-width: 3px; stroke-linejoin: round; fill: #1a1a2e; }
</style>
<g id="graph0" class="graph" transform="scale(1 1) rotate(0) translate(4 468.5)">
<title>meshery&#45;features</title>
<polygon fill="white" stroke="none" points="-4,4 -4,-468.5 439.75,-468.5 439.75,4 -4,4"/>
<text xml:space="preserve" text-anchor="middle" x="217.88" y="-7.2" font-family="Times New Roman,serif" font-size="14.00">Meshery &#45; Key Features</text>
<!-- infrastructure -->
<g id="node1" class="node">
<title>infrastructure</title>
<path fill="#2196f3" stroke="black" d="M281.12,-363.5C281.12,-363.5 182.62,-363.5 182.62,-363.5 176.62,-363.5 170.62,-357.5 170.62,-351.5 170.62,-351.5 170.62,-339.5 170.62,-339.5 170.62,-333.5 176.62,-327.5 182.62,-327.5 182.62,-327.5 281.12,-327.5 281.12,-327.5 287.12,-327.5 293.12,-333.5 293.12,-339.5 293.12,-339.5 293.12,-351.5 293.12,-351.5 293.12,-357.5 287.12,-363.5 281.12,-363.5"/>
<text xml:space="preserve" text-anchor="middle" x="231.88" y="-342" font-family="Arial Bold" font-size="10.00" fill="white">Infrastructure Lifecycle</text>
</g>
<!-- multi_cluster -->
<g id="node2" class="node">
<title>multi_cluster</title>
<path fill="#2196f3" stroke="black" d="M121.75,-262.5C121.75,-262.5 12,-262.5 12,-262.5 6,-262.5 0,-256.5 0,-250.5 0,-250.5 0,-238.5 0,-238.5 0,-232.5 6,-226.5 12,-226.5 12,-226.5 121.75,-226.5 121.75,-226.5 127.75,-226.5 133.75,-232.5 133.75,-238.5 133.75,-238.5 133.75,-250.5 133.75,-250.5 133.75,-256.5 127.75,-262.5 121.75,-262.5"/>
<text xml:space="preserve" text-anchor="middle" x="66.88" y="-241" font-family="Arial Bold" font-size="10.00" fill="white">Multi&#45;Cluster/Multi&#45;Cloud</text>
</g>
<!-- infrastructure&#45;&gt;multi_cluster -->
<g id="edge1" class="edge">
<title>infrastructure&#45;&gt;multi_cluster</title>
<path fill="none" stroke="#4caf50" stroke-width="2" d="M170.44,-345.5C123.52,-345.5 66.88,-345.5 66.88,-345.5 66.88,-345.5 66.88,-275.58 66.88,-275.58"/>
<polygon fill="#4caf50" stroke="#4caf50" stroke-width="2" points="70.38,-275.58 66.88,-265.58 63.38,-275.58 70.38,-275.58"/>
</g>
<!-- gitops -->
<g id="node3" class="node">
<title>gitops</title>
<path fill="#2196f3" stroke="black" d="M211.88,-262.5C211.88,-262.5 181.88,-262.5 181.88,-262.5 175.88,-262.5 169.88,-256.5 169.88,-250.5 169.88,-250.5 169.88,-238.5 169.88,-238.5 169.88,-232.5 175.88,-226.5 181.88,-226.5 181.88,-226.5 211.88,-226.5 211.88,-226.5 217.88,-226.5 223.88,-232.5 223.88,-238.5 223.88,-238.5 223.88,-250.5 223.88,-250.5 223.88,-256.5 217.88,-262.5 211.88,-262.5"/>
<text xml:space="preserve" text-anchor="middle" x="196.88" y="-241" font-family="Arial Bold" font-size="10.00" fill="white">GitOps</text>
</g>
<!-- infrastructure&#45;&gt;gitops -->
<g id="edge2" class="edge">
<title>infrastructure&#45;&gt;gitops</title>
<path fill="none" stroke="#4caf50" stroke-width="2" d="M197.25,-327.44C197.25,-327.44 197.25,-275.77 197.25,-275.77"/>
<polygon fill="#4caf50" stroke="#4caf50" stroke-width="2" points="200.75,-275.77 197.25,-265.77 193.75,-275.77 200.75,-275.77"/>
</g>
<!-- performance -->
<g id="node6" class="node">
<title>performance</title>
<path fill="#2196f3" stroke="black" d="M323.5,-262.5C323.5,-262.5 272.25,-262.5 272.25,-262.5 266.25,-262.5 260.25,-256.5 260.25,-250.5 260.25,-250.5 260.25,-238.5 260.25,-238.5 260.25,-232.5 266.25,-226.5 272.25,-226.5 272.25,-226.5 323.5,-226.5 323.5,-226.5 329.5,-226.5 335.5,-232.5 335.5,-238.5 335.5,-238.5 335.5,-250.5 335.5,-250.5 335.5,-256.5 329.5,-262.5 323.5,-262.5"/>
<text xml:space="preserve" text-anchor="middle" x="297.88" y="-241" font-family="Arial Bold" font-size="10.00" fill="white">Performance</text>
</g>
<!-- infrastructure&#45;&gt;performance -->
<g id="edge5" class="edge">
<title>infrastructure&#45;&gt;performance</title>
<path fill="none" stroke="#2196f3" stroke-width="2" d="M276.69,-327.44C276.69,-327.44 276.69,-275.77 276.69,-275.77"/>
<polygon fill="#2196f3" stroke="#2196f3" stroke-width="2" points="280.19,-275.77 276.69,-265.77 273.19,-275.77 280.19,-275.77"/>
</g>
<!-- policies -->
<g id="node7" class="node">
<title>policies</title>
<path fill="#2196f3" stroke="black" d="M413.88,-262.5C413.88,-262.5 383.88,-262.5 383.88,-262.5 377.88,-262.5 371.88,-256.5 371.88,-250.5 371.88,-250.5 371.88,-238.5 371.88,-238.5 371.88,-232.5 377.88,-226.5 383.88,-226.5 383.88,-226.5 413.88,-226.5 413.88,-226.5 419.88,-226.5 425.88,-232.5 425.88,-238.5 425.88,-238.5 425.88,-250.5 425.88,-250.5 425.88,-256.5 419.88,-262.5 413.88,-262.5"/>
<text xml:space="preserve" text-anchor="middle" x="398.88" y="-241" font-family="Arial Bold" font-size="10.00" fill="white">Policies</text>
</g>
<!-- infrastructure&#45;&gt;policies -->
<g id="edge6" class="edge">
<title>infrastructure&#45;&gt;policies</title>
<path fill="none" stroke="#2196f3" stroke-width="2" d="M293.39,-345.5C321.55,-345.5 348.75,-345.5 348.75,-345.5 348.75,-345.5 348.75,-244.5 348.75,-244.5 348.75,-244.5 358.44,-244.5 358.44,-244.5"/>
<polygon fill="#2196f3" stroke="#2196f3" stroke-width="2" points="358.44,-248 368.44,-244.5 358.44,-241 358.44,-248"/>
</g>
<!-- workspaces -->
<g id="node4" class="node">
<title>workspaces</title>
<path fill="#2196f3" stroke="black" d="M91,-161.5C91,-161.5 42.75,-161.5 42.75,-161.5 36.75,-161.5 30.75,-155.5 30.75,-149.5 30.75,-149.5 30.75,-137.5 30.75,-137.5 30.75,-131.5 36.75,-125.5 42.75,-125.5 42.75,-125.5 91,-125.5 91,-125.5 97,-125.5 103,-131.5 103,-137.5 103,-137.5 103,-149.5 103,-149.5 103,-155.5 97,-161.5 91,-161.5"/>
<text xml:space="preserve" text-anchor="middle" x="66.88" y="-140" font-family="Arial Bold" font-size="10.00" fill="white">Workspaces</text>
</g>
<!-- multi_cluster&#45;&gt;workspaces -->
<g id="edge3" class="edge">
<title>multi_cluster&#45;&gt;workspaces</title>
<path fill="none" stroke="#4caf50" stroke-width="2" d="M66.88,-226.44C66.88,-226.44 66.88,-174.77 66.88,-174.77"/>
<polygon fill="#4caf50" stroke="#4caf50" stroke-width="2" points="70.38,-174.77 66.88,-164.77 63.38,-174.77 70.38,-174.77"/>
</g>
<!-- environments -->
<g id="node5" class="node">
<title>environments</title>
<path fill="#2196f3" stroke="black" d="M95.5,-60.5C95.5,-60.5 38.25,-60.5 38.25,-60.5 32.25,-60.5 26.25,-54.5 26.25,-48.5 26.25,-48.5 26.25,-36.5 26.25,-36.5 26.25,-30.5 32.25,-24.5 38.25,-24.5 38.25,-24.5 95.5,-24.5 95.5,-24.5 101.5,-24.5 107.5,-30.5 107.5,-36.5 107.5,-36.5 107.5,-48.5 107.5,-48.5 107.5,-54.5 101.5,-60.5 95.5,-60.5"/>
<text xml:space="preserve" text-anchor="middle" x="66.88" y="-39" font-family="Arial Bold" font-size="10.00" fill="white">Environments</text>
</g>
<!-- workspaces&#45;&gt;environments -->
<g id="edge4" class="edge">
<title>workspaces&#45;&gt;environments</title>
<path fill="none" stroke="#4caf50" stroke-width="2" d="M66.88,-125.44C66.88,-125.44 66.88,-73.77 66.88,-73.77"/>
<polygon fill="#4caf50" stroke="#4caf50" stroke-width="2" points="70.38,-73.77 66.88,-63.77 63.38,-73.77 70.38,-73.77"/>
</g>
<!-- integrations -->
<g id="node8" class="node">
<title>integrations</title>
<path fill="#2196f3" stroke="black" d="M422.62,-363.5C422.62,-363.5 375.12,-363.5 375.12,-363.5 369.12,-363.5 363.12,-357.5 363.12,-351.5 363.12,-351.5 363.12,-339.5 363.12,-339.5 363.12,-333.5 369.12,-327.5 375.12,-327.5 375.12,-327.5 422.62,-327.5 422.62,-327.5 428.62,-327.5 434.62,-333.5 434.62,-339.5 434.62,-339.5 434.62,-351.5 434.62,-351.5 434.62,-357.5 428.62,-363.5 422.62,-363.5"/>
<text xml:space="preserve" text-anchor="middle" x="398.88" y="-342" font-family="Arial Bold" font-size="10.00" fill="white">Integrations</text>
</g>
<!-- integrations&#45;&gt;policies -->
<g id="edge7" class="edge">
<title>integrations&#45;&gt;policies</title>
<path fill="none" stroke="#2196f3" stroke-width="2" d="M398.88,-327.44C398.88,-327.44 398.88,-275.77 398.88,-275.77"/>
<polygon fill="#2196f3" stroke="#2196f3" stroke-width="2" points="402.38,-275.77 398.88,-265.77 395.38,-275.77 402.38,-275.77"/>
</g>
<!-- extensibility -->
<g id="node9" class="node">
<title>extensibility</title>
<path fill="#2196f3" stroke="black" d="M423.75,-464.5C423.75,-464.5 374,-464.5 374,-464.5 368,-464.5 362,-458.5 362,-452.5 362,-452.5 362,-440.5 362,-440.5 362,-434.5 368,-428.5 374,-428.5 374,-428.5 423.75,-428.5 423.75,-428.5 429.75,-428.5 435.75,-434.5 435.75,-440.5 435.75,-440.5 435.75,-452.5 435.75,-452.5 435.75,-458.5 429.75,-464.5 423.75,-464.5"/>
<text xml:space="preserve" text-anchor="middle" x="398.88" y="-443" font-family="Arial Bold" font-size="10.00" fill="white">Extensibility</text>
</g>
<!-- extensibility&#45;&gt;integrations -->
<g id="edge8" class="edge">
<title>extensibility&#45;&gt;integrations</title>
<path fill="none" stroke="#ff9800" stroke-width="2" d="M398.88,-428.44C398.88,-428.44 398.88,-376.77 398.88,-376.77"/>
<polygon fill="#ff9800" stroke="#ff9800" stroke-width="2" points="402.38,-376.77 398.88,-366.77 395.38,-376.77 402.38,-376.77"/>
</g>
</g>
</svg>
