<?xml version="1.0" encoding="UTF-8" standalone="no"?>
<!DOCTYPE svg PUBLIC "-//W3C//DTD SVG 1.1//EN"
 "http://www.w3.org/Graphics/SVG/1.1/DTD/svg11.dtd">
<!-- Generated by graphviz version 14.1.2 (0)
 -->
<!-- Title: dsa_system_architecture Pages: 1 -->
<svg width="512pt" height="803pt"
 viewBox="0.00 0.00 512.00 803.00" xmlns="http://www.w3.org/2000/svg" xmlns:xlink="http://www.w3.org/1999/xlink">
<style>
<!-- White text halo for edge label readability -->
text { paint-order: stroke; stroke: #ffffff; stroke-width: 3px; stroke-linejoin: round; fill: #1a1a2e; }
</style>
<g id="graph0" class="graph" transform="scale(1 1) rotate(0) translate(4 798.81)">
<title>dsa_system_architecture</title>
<polygon fill="white" stroke="none" points="-4,4 -4,-798.81 508,-798.81 508,4 -4,4"/>
<g id="clust1" class="cluster">
<title>cluster_data</title>
<polygon fill="#e3f2fd" stroke="black" points="8,-196.25 8,-367.5 200,-367.5 200,-196.25 8,-196.25"/>
<text xml:space="preserve" text-anchor="middle" x="104" y="-350.2" font-family="Times New Roman,serif" font-size="14.00">Data Provider + Circuit Breaker</text>
</g>
<g id="clust2" class="cluster">
<title>cluster_web</title>
<polygon fill="#fff3e0" stroke="black" points="314,-500.15 314,-786.81 496,-786.81 496,-500.15 314,-500.15"/>
<text xml:space="preserve" text-anchor="middle" x="405" y="-769.51" font-family="Times New Roman,serif" font-size="14.00">Web + Bot Interface</text>
</g>
<g id="clust3" class="cluster">
<title>cluster_notify</title>
<polygon fill="#f3e5f5" stroke="black" points="334,-8 334,-178.5 466,-178.5 466,-8 334,-8"/>
<text xml:space="preserve" text-anchor="middle" x="400" y="-161.2" font-family="Times New Roman,serif" font-size="14.00">Notification Delivery</text>
</g>
<!-- user -->
<g id="node1" class="node">
<title>user</title>
<path fill="#4caf50" stroke="black" d="M259.88,-649.23C259.88,-649.23 198.12,-649.23 198.12,-649.23 192.12,-649.23 186.12,-643.23 186.12,-637.23 186.12,-637.23 186.12,-625.23 186.12,-625.23 186.12,-619.23 192.12,-613.23 198.12,-613.23 198.12,-613.23 259.88,-613.23 259.88,-613.23 265.88,-613.23 271.88,-619.23 271.88,-625.23 271.88,-625.23 271.88,-637.23 271.88,-637.23 271.88,-643.23 265.88,-649.23 259.88,-649.23"/>
<text xml:space="preserve" text-anchor="middle" x="229" y="-634.28" font-family="Arial" font-size="11.00" fill="white">User / Trader</text>
<text xml:space="preserve" text-anchor="middle" x="229" y="-620.78" font-family="Arial" font-size="11.00" fill="white">CLI or Web UI</text>
</g>
<!-- entry -->
<g id="node2" class="node">
<title>entry</title>
<path fill="#2196f3" stroke="black" d="M278.38,-544.65C278.38,-544.65 153.62,-544.65 153.62,-544.65 147.62,-544.65 141.62,-538.65 141.62,-532.65 141.62,-532.65 141.62,-520.15 141.62,-520.15 141.62,-514.15 147.62,-508.15 153.62,-508.15 153.62,-508.15 278.38,-508.15 278.38,-508.15 284.38,-508.15 290.38,-514.15 290.38,-520.15 290.38,-520.15 290.38,-532.65 290.38,-532.65 290.38,-538.65 284.38,-544.65 278.38,-544.65"/>
<text xml:space="preserve" text-anchor="middle" x="216" y="-529.25" font-family="Arial Bold" font-size="12.00" fill="white">Entry Layer</text>
<text xml:space="preserve" text-anchor="middle" x="216" y="-515" font-family="Arial Bold" font-size="12.00" fill="white">main.py CLI Dispatcher</text>
</g>
<!-- user&#45;&gt;entry -->
<g id="edge1" class="edge">
<title>user&#45;&gt;entry</title>
<path fill="none" stroke="#4caf50" stroke-width="2" d="M229,-612.97C229,-612.97 229,-557.83 229,-557.83"/>
<polygon fill="#4caf50" stroke="#4caf50" stroke-width="2" points="232.5,-557.83 229,-547.83 225.5,-557.83 232.5,-557.83"/>
<text xml:space="preserve" text-anchor="middle" x="186.25" y="-588.6" font-family="Times New Roman,serif" font-size="14.00" fill="#4caf50">CLI commands</text>
</g>
<!-- frontend -->
<g id="node9" class="node">
<title>frontend</title>
<path fill="#2196f3" stroke="black" d="M471.5,-544.65C471.5,-544.65 338.5,-544.65 338.5,-544.65 332.5,-544.65 326.5,-538.65 326.5,-532.65 326.5,-532.65 326.5,-520.15 326.5,-520.15 326.5,-514.15 332.5,-508.15 338.5,-508.15 338.5,-508.15 471.5,-508.15 471.5,-508.15 477.5,-508.15 483.5,-514.15 483.5,-520.15 483.5,-520.15 483.5,-532.65 483.5,-532.65 483.5,-538.65 477.5,-544.65 471.5,-544.65"/>
<text xml:space="preserve" text-anchor="middle" x="405" y="-529.25" font-family="Arial Bold" font-size="12.00" fill="white">Frontend Layer</text>
<text xml:space="preserve" text-anchor="middle" x="405" y="-515" font-family="Arial Bold" font-size="12.00" fill="white">React + TypeScript + Vite</text>
</g>
<!-- user&#45;&gt;frontend -->
<g id="edge2" class="edge">
<title>user&#45;&gt;frontend</title>
<path fill="none" stroke="#4caf50" stroke-width="1.5" stroke-dasharray="5,2" d="M271.99,-631C291.86,-631 311.13,-631 311.13,-631 311.13,-631 311.13,-526 311.13,-526 311.13,-526 313.94,-526 313.94,-526"/>
<polygon fill="#4caf50" stroke="#4caf50" stroke-width="1.5" points="313.94,-529.5 323.94,-526 313.94,-522.5 313.94,-529.5"/>
<text xml:space="preserve" text-anchor="middle" x="289.76" y="-599.87" font-family="Times New Roman,serif" font-size="14.00" fill="#4caf50">Web UI</text>
</g>
<!-- pipeline -->
<g id="node3" class="node">
<title>pipeline</title>
<polygon fill="#ff9800" stroke="black" points="390.8,-421.58 341.4,-450.15 242.6,-450.15 193.2,-421.58 242.6,-393 341.4,-393 390.8,-421.58"/>
<text xml:space="preserve" text-anchor="middle" x="292" y="-424.63" font-family="Arial" font-size="11.00" fill="white">Pipeline Layer</text>
<text xml:space="preserve" text-anchor="middle" x="292" y="-411.13" font-family="Arial" font-size="11.00" fill="white">StockAnalysisPipeline</text>
</g>
<!-- entry&#45;&gt;pipeline -->
<g id="edge3" class="edge">
<title>entry&#45;&gt;pipeline</title>
<path fill="none" stroke="#2196f3" stroke-width="2" d="M241.79,-507.66C241.79,-507.66 241.79,-463.06 241.79,-463.06"/>
<polygon fill="#2196f3" stroke="#2196f3" stroke-width="2" points="245.29,-463.06 241.79,-453.06 238.29,-463.06 245.29,-463.06"/>
<text xml:space="preserve" text-anchor="middle" x="213.66" y="-488.56" font-family="Times New Roman,serif" font-size="14.00" fill="#2196f3">dispatches</text>
</g>
<!-- dataprovider -->
<g id="node4" class="node">
<title>dataprovider</title>
<path fill="#2196f3" stroke="black" d="M169.62,-335C169.62,-335 64.38,-335 64.38,-335 58.38,-335 52.38,-329 52.38,-323 52.38,-323 52.38,-310.5 52.38,-310.5 52.38,-304.5 58.38,-298.5 64.38,-298.5 64.38,-298.5 169.62,-298.5 169.62,-298.5 175.62,-298.5 181.62,-304.5 181.62,-310.5 181.62,-310.5 181.62,-323 181.62,-323 181.62,-329 175.62,-335 169.62,-335"/>
<text xml:space="preserve" text-anchor="middle" x="117" y="-319.6" font-family="Arial Bold" font-size="12.00" fill="white">Data Provider Layer</text>
<text xml:space="preserve" text-anchor="middle" x="117" y="-305.35" font-family="Arial Bold" font-size="12.00" fill="white">data_provider/</text>
</g>
<!-- pipeline&#45;&gt;dataprovider -->
<g id="edge4" class="edge">
<title>pipeline&#45;&gt;dataprovider</title>
<path fill="none" stroke="#2196f3" stroke-width="2" d="M193.19,-422C175,-422 161.62,-422 161.62,-422 161.62,-422 161.62,-348.11 161.62,-348.11"/>
<polygon fill="#2196f3" stroke="#2196f3" stroke-width="2" points="165.13,-348.11 161.63,-338.11 158.13,-348.11 165.13,-348.11"/>
<text xml:space="preserve" text-anchor="middle" x="135" y="-404.04" font-family="Times New Roman,serif" font-size="14.00" fill="#2196f3">fetch data</text>
</g>
<!-- analysis -->
<g id="node6" class="node">
<title>analysis</title>
<path fill="#2196f3" stroke="black" d="M392.12,-240.5C392.12,-240.5 289.88,-240.5 289.88,-240.5 283.88,-240.5 277.88,-234.5 277.88,-228.5 277.88,-228.5 277.88,-216 277.88,-216 277.88,-210 283.88,-204 289.88,-204 289.88,-204 392.12,-204 392.12,-204 398.12,-204 404.12,-210 404.12,-216 404.12,-216 404.12,-228.5 404.12,-228.5 404.12,-234.5 398.12,-240.5 392.12,-240.5"/>
<text xml:space="preserve" text-anchor="middle" x="341" y="-225.1" font-family="Arial Bold" font-size="12.00" fill="white">Analysis Layer</text>
<text xml:space="preserve" text-anchor="middle" x="341" y="-210.85" font-family="Arial Bold" font-size="12.00" fill="white">market_analyzer.py</text>
</g>
<!-- pipeline&#45;&gt;analysis -->
<g id="edge5" class="edge">
<title>pipeline&#45;&gt;analysis</title>
<path fill="none" stroke="#2196f3" stroke-width="2" d="M284.75,-392.59C284.75,-392.59 284.75,-253.85 284.75,-253.85"/>
<polygon fill="#2196f3" stroke="#2196f3" stroke-width="2" points="288.25,-253.85 284.75,-243.85 281.25,-253.85 288.25,-253.85"/>
<text xml:space="preserve" text-anchor="middle" x="264.12" y="-326.42" font-family="Times New Roman,serif" font-size="14.00" fill="#2196f3">analyze</text>
</g>
<!-- strategy -->
<g id="node7" class="node">
<title>strategy</title>
<path fill="#9c27b0" stroke="black" d="M392.38,-334.75C392.38,-334.75 303.62,-334.75 303.62,-334.75 297.62,-334.75 291.62,-328.75 291.62,-322.75 291.62,-322.75 291.62,-310.75 291.62,-310.75 291.62,-304.75 297.62,-298.75 303.62,-298.75 303.62,-298.75 392.38,-298.75 392.38,-298.75 398.38,-298.75 404.38,-304.75 404.38,-310.75 404.38,-310.75 404.38,-322.75 404.38,-322.75 404.38,-328.75 398.38,-334.75 392.38,-334.75"/>
<text xml:space="preserve" text-anchor="middle" x="348" y="-319.8" font-family="Arial" font-size="11.00" fill="white">Strategy Layer</text>
<text xml:space="preserve" text-anchor="middle" x="348" y="-306.3" font-family="Arial" font-size="11.00" fill="white">strategies/ 15 YAML</text>
</g>
<!-- pipeline&#45;&gt;strategy -->
<g id="edge6" class="edge">
<title>pipeline&#45;&gt;strategy</title>
<path fill="none" stroke="#9c27b0" stroke-width="1.5" d="M341.21,-392.66C341.21,-392.66 341.21,-347.3 341.21,-347.3"/>
<polygon fill="#9c27b0" stroke="#9c27b0" stroke-width="1.5" points="344.71,-347.3 341.21,-337.3 337.71,-347.3 344.71,-347.3"/>
<text xml:space="preserve" text-anchor="middle" x="311.21" y="-373.18" font-family="Times New Roman,serif" font-size="14.00" fill="#9c27b0">apply rules</text>
</g>
<!-- notification -->
<g id="node11" class="node">
<title>notification</title>
<path fill="#9c27b0" stroke="black" d="M437.62,-146C437.62,-146 362.38,-146 362.38,-146 356.38,-146 350.38,-140 350.38,-134 350.38,-134 350.38,-122 350.38,-122 350.38,-116 356.38,-110 362.38,-110 362.38,-110 437.62,-110 437.62,-110 443.62,-110 449.62,-116 449.62,-122 449.62,-122 449.62,-134 449.62,-134 449.62,-140 443.62,-146 437.62,-146"/>
<text xml:space="preserve" text-anchor="middle" x="400" y="-131.05" font-family="Arial" font-size="11.00" fill="white">Notification Layer</text>
<text xml:space="preserve" text-anchor="middle" x="400" y="-117.55" font-family="Arial" font-size="11.00" fill="white">13+ Channels</text>
</g>
<!-- pipeline&#45;&gt;notification -->
<g id="edge11" class="edge">
<title>pipeline&#45;&gt;notification</title>
<path fill="none" stroke="#2196f3" stroke-width="1.5" d="M390.82,-422C411.41,-422 427,-422 427,-422 427,-422 427,-158.66 427,-158.66"/>
<polygon fill="#2196f3" stroke="#2196f3" stroke-width="1.5" points="430.5,-158.66 427,-148.66 423.5,-158.66 430.5,-158.66"/>
<text xml:space="preserve" text-anchor="middle" x="459.25" y="-311.62" font-family="Times New Roman,serif" font-size="14.00" fill="#2196f3">push results</text>
</g>
<!-- circuit -->
<g id="node5" class="node">
<title>circuit</title>
<path fill="#ff9800" stroke="black" d="M155.75,-240.25C155.75,-240.25 78.25,-240.25 78.25,-240.25 72.25,-240.25 66.25,-234.25 66.25,-228.25 66.25,-228.25 66.25,-216.25 66.25,-216.25 66.25,-210.25 72.25,-204.25 78.25,-204.25 78.25,-204.25 155.75,-204.25 155.75,-204.25 161.75,-204.25 167.75,-210.25 167.75,-216.25 167.75,-216.25 167.75,-228.25 167.75,-228.25 167.75,-234.25 161.75,-240.25 155.75,-240.25"/>
<text xml:space="preserve" text-anchor="middle" x="117" y="-225.3" font-family="Arial" font-size="11.00" fill="white">Circuit Breaker</text>
<text xml:space="preserve" text-anchor="middle" x="117" y="-211.8" font-family="Arial" font-size="11.00" fill="white">Fallback Manager</text>
</g>
<!-- dataprovider&#45;&gt;circuit -->
<g id="edge7" class="edge">
<title>dataprovider&#45;&gt;circuit</title>
<path fill="none" stroke="#ff9800" stroke-width="1.5" d="M133.92,-298.08C133.92,-298.08 133.92,-252.83 133.92,-252.83"/>
<polygon fill="#ff9800" stroke="#ff9800" stroke-width="1.5" points="137.42,-252.83 133.92,-242.83 130.42,-252.83 137.42,-252.83"/>
<text xml:space="preserve" text-anchor="middle" x="95.67" y="-278.65" font-family="Times New Roman,serif" font-size="14.00" fill="#ff9800">fallback chain</text>
</g>
<!-- circuit&#45;&gt;dataprovider -->
<g id="edge8" class="edge">
<title>circuit&#45;&gt;dataprovider</title>
<path fill="none" stroke="#ff9800" stroke-width="1.5" stroke-dasharray="5,2" d="M100.08,-240.47C100.08,-240.47 100.08,-285.99 100.08,-285.99"/>
<polygon fill="#ff9800" stroke="#ff9800" stroke-width="1.5" points="96.58,-285.99 100.08,-295.99 103.58,-285.99 96.58,-285.99"/>
<text xml:space="preserve" text-anchor="middle" x="54.33" y="-249.93" font-family="Times New Roman,serif" font-size="14.00" fill="#ff9800">retry next source</text>
</g>
<!-- analysis&#45;&gt;notification -->
<g id="edge9" class="edge">
<title>analysis&#45;&gt;notification</title>
<path fill="none" stroke="#9c27b0" stroke-width="1.5" d="M377.25,-203.63C377.25,-203.63 377.25,-158.53 377.25,-158.53"/>
<polygon fill="#9c27b0" stroke="#9c27b0" stroke-width="1.5" points="380.75,-158.53 377.25,-148.53 373.75,-158.53 380.75,-158.53"/>
<text xml:space="preserve" text-anchor="middle" x="335.62" y="-184.28" font-family="Times New Roman,serif" font-size="14.00" fill="#9c27b0">decision output</text>
</g>
<!-- strategy&#45;&gt;analysis -->
<g id="edge10" class="edge">
<title>strategy&#45;&gt;analysis</title>
<path fill="none" stroke="#9c27b0" stroke-width="1.5" d="M347.88,-298.53C347.88,-298.53 347.88,-253.01 347.88,-253.01"/>
<polygon fill="#9c27b0" stroke="#9c27b0" stroke-width="1.5" points="351.38,-253.01 347.88,-243.01 344.38,-253.01 351.38,-253.01"/>
<text xml:space="preserve" text-anchor="middle" x="304.75" y="-278.97" font-family="Times New Roman,serif" font-size="14.00" fill="#9c27b0">strategy context</text>
</g>
<!-- api -->
<g id="node8" class="node">
<title>api</title>
<polygon fill="#ff9800" stroke="black" points="488.49,-631.23 446.74,-659.81 363.26,-659.81 321.51,-631.23 363.26,-602.65 446.74,-602.65 488.49,-631.23"/>
<text xml:space="preserve" text-anchor="middle" x="405" y="-634.28" font-family="Arial" font-size="11.00" fill="white">API Layer</text>
<text xml:space="preserve" text-anchor="middle" x="405" y="-620.78" font-family="Arial" font-size="11.00" fill="white">FastAPI v1 REST</text>
</g>
<!-- api&#45;&gt;pipeline -->
<g id="edge14" class="edge">
<title>api&#45;&gt;pipeline</title>
<path fill="none" stroke="#ff9800" stroke-width="1.5" d="M354.71,-608C328.05,-608 300.75,-608 300.75,-608 300.75,-608 300.75,-462.57 300.75,-462.57"/>
<polygon fill="#ff9800" stroke="#ff9800" stroke-width="1.5" points="304.25,-462.57 300.75,-452.57 297.25,-462.57 304.25,-462.57"/>
<text xml:space="preserve" text-anchor="middle" x="259.13" y="-565.46" font-family="Times New Roman,serif" font-size="14.00" fill="#ff9800">trigger analysis</text>
</g>
<!-- api&#45;&gt;frontend -->
<g id="edge12" class="edge">
<title>api&#45;&gt;frontend</title>
<path fill="none" stroke="#ff9800" stroke-width="1.5" d="M431.17,-602.31C431.17,-602.31 431.17,-557.27 431.17,-557.27"/>
<polygon fill="#ff9800" stroke="#ff9800" stroke-width="1.5" points="434.67,-557.27 431.17,-547.27 427.67,-557.27 434.67,-557.27"/>
<text xml:space="preserve" text-anchor="middle" x="406.04" y="-582.99" font-family="Times New Roman,serif" font-size="14.00" fill="#ff9800">REST v1</text>
</g>
<!-- frontend&#45;&gt;api -->
<g id="edge13" class="edge">
<title>frontend&#45;&gt;api</title>
<path fill="none" stroke="#2196f3" stroke-width="1.5" stroke-dasharray="5,2" d="M378.83,-545.15C378.83,-545.15 378.83,-590.1 378.83,-590.1"/>
<polygon fill="#2196f3" stroke="#2196f3" stroke-width="1.5" points="375.33,-590.1 378.83,-600.1 382.33,-590.1 375.33,-590.1"/>
<text xml:space="preserve" text-anchor="middle" x="419.71" y="-554.32" font-family="Times New Roman,serif" font-size="14.00" fill="#2196f3">HTTP requests</text>
</g>
<!-- bot -->
<g id="node10" class="node">
<title>bot</title>
<path fill="#2196f3" stroke="black" d="M471.12,-754.31C471.12,-754.31 338.88,-754.31 338.88,-754.31 332.88,-754.31 326.88,-748.31 326.88,-742.31 326.88,-742.31 326.88,-729.81 326.88,-729.81 326.88,-723.81 332.88,-717.81 338.88,-717.81 338.88,-717.81 471.12,-717.81 471.12,-717.81 477.12,-717.81 483.12,-723.81 483.12,-729.81 483.12,-729.81 483.12,-742.31 483.12,-742.31 483.12,-748.31 477.12,-754.31 471.12,-754.31"/>
<text xml:space="preserve" text-anchor="middle" x="405" y="-738.91" font-family="Arial Bold" font-size="12.00" fill="white">Bot Layer</text>
<text xml:space="preserve" text-anchor="middle" x="405" y="-724.66" font-family="Arial Bold" font-size="12.00" fill="white">DingTalk Discord Feishu</text>
</g>
<!-- bot&#45;&gt;api -->
<g id="edge15" class="edge">
<title>bot&#45;&gt;api</title>
<path fill="none" stroke="#2196f3" stroke-width="1.5" d="M405,-717.32C405,-717.32 405,-672.36 405,-672.36"/>
<polygon fill="#2196f3" stroke="#2196f3" stroke-width="1.5" points="408.5,-672.36 405,-662.36 401.5,-672.36 408.5,-672.36"/>
<text xml:space="preserve" text-anchor="middle" x="364.5" y="-698.04" font-family="Times New Roman,serif" font-size="14.00" fill="#2196f3">bot commands</text>
</g>
<!-- output -->
<g id="node12" class="node">
<title>output</title>
<path fill="#f44336" stroke="black" d="M444.75,-52C444.75,-52 355.25,-52 355.25,-52 349.25,-52 343.25,-46 343.25,-40 343.25,-40 343.25,-28 343.25,-28 343.25,-22 349.25,-16 355.25,-16 355.25,-16 444.75,-16 444.75,-16 450.75,-16 456.75,-22 456.75,-28 456.75,-28 456.75,-40 456.75,-40 456.75,-46 450.75,-52 444.75,-52"/>
<text xml:space="preserve" text-anchor="middle" x="400" y="-37.05" font-family="Arial" font-size="11.00" fill="white">Decision Dashboard</text>
<text xml:space="preserve" text-anchor="middle" x="400" y="-23.55" font-family="Arial" font-size="11.00" fill="white">Multi&#45;Channel Push</text>
</g>
<!-- notification&#45;&gt;output -->
<g id="edge16" class="edge">
<title>notification&#45;&gt;output</title>
<path fill="none" stroke="#f44336" stroke-width="2" d="M400,-109.88C400,-109.88 400,-65.42 400,-65.42"/>
<polygon fill="#f44336" stroke="#f44336" stroke-width="2" points="403.5,-65.42 400,-55.42 396.5,-65.42 403.5,-65.42"/>
<text xml:space="preserve" text-anchor="middle" x="381.25" y="-90.85" font-family="Times New Roman,serif" font-size="14.00" fill="#f44336">deliver</text>
</g>
</g>
</svg>
