<?xml version="1.0" encoding="UTF-8" standalone="no"?>
<!DOCTYPE svg PUBLIC "-//W3C//DTD SVG 1.1//EN"
 "http://www.w3.org/Graphics/SVG/1.1/DTD/svg11.dtd">
<!-- Generated by graphviz version 14.1.2 (0)
 -->
<!-- Title: DSA_Deployment Pages: 1 -->
<svg width="926pt" height="882pt"
 viewBox="0.00 0.00 926.00 882.00" xmlns="http://www.w3.org/2000/svg" xmlns:xlink="http://www.w3.org/1999/xlink">
<g id="graph0" class="graph" transform="scale(2.08333 2.08333) rotate(0) translate(36 387.25)">
<title>DSA_Deployment</title>
<polygon fill="#ffffff" stroke="none" points="-36,36 -36,-387.25 408.5,-387.25 408.5,36 -36,36"/>
<!-- app -->
<g id="node1" class="node">
<title>app</title>
<path fill="#ede9fe" stroke="#7c3aed" stroke-width="2" d="M360.5,-209C360.5,-209 295,-209 295,-209 289,-209 283,-203 283,-197 283,-197 283,-180 283,-180 283,-174 289,-168 295,-168 295,-168 360.5,-168 360.5,-168 366.5,-168 372.5,-174 372.5,-180 372.5,-180 372.5,-197 372.5,-197 372.5,-203 366.5,-209 360.5,-209"/>
<text xml:space="preserve" text-anchor="middle" x="327.75" y="-191.7" font-family="Times New Roman,serif" font-size="14.00" fill="#1e293b">Daily Stock</text>
<text xml:space="preserve" text-anchor="middle" x="327.75" y="-175.2" font-family="Times New Roman,serif" font-size="14.00" fill="#1e293b">Analysis App</text>
</g>
<!-- deploy_gh_actions -->
<g id="node2" class="node">
<title>deploy_gh_actions</title>
<path fill="#eff6ff" stroke="#2563eb" stroke-width="2" d="M213,-351.25C213,-351.25 135.5,-351.25 135.5,-351.25 129.5,-351.25 123.5,-345.25 123.5,-339.25 123.5,-339.25 123.5,-305.75 123.5,-305.75 123.5,-299.75 129.5,-293.75 135.5,-293.75 135.5,-293.75 213,-293.75 213,-293.75 219,-293.75 225,-299.75 225,-305.75 225,-305.75 225,-339.25 225,-339.25 225,-345.25 219,-351.25 213,-351.25"/>
<text xml:space="preserve" text-anchor="middle" x="174.25" y="-333.95" font-family="Times New Roman,serif" font-size="14.00" fill="#1e293b">GitHub Actions</text>
<text xml:space="preserve" text-anchor="middle" x="174.25" y="-317.45" font-family="Times New Roman,serif" font-size="14.00" fill="#1e293b">(Zero Cost,</text>
<text xml:space="preserve" text-anchor="middle" x="174.25" y="-300.95" font-family="Times New Roman,serif" font-size="14.00" fill="#1e293b">No Server)</text>
</g>
<!-- deploy_gh_actions&#45;&gt;app -->
<g id="edge6" class="edge">
<title>deploy_gh_actions&#45;&gt;app</title>
<path fill="none" stroke="#2563eb" stroke-width="1.5" d="M208.87,-292.76C234.07,-270.47 268.39,-240.12 293.5,-217.91"/>
<polygon fill="#2563eb" stroke="#2563eb" stroke-width="1.5" points="295.76,-220.58 300.93,-211.33 291.12,-215.34 295.76,-220.58"/>
</g>
<!-- deploy_docker -->
<g id="node3" class="node">
<title>deploy_docker</title>
<path fill="#eff6ff" stroke="#2563eb" stroke-width="2" d="M212.62,-251C212.62,-251 135.88,-251 135.88,-251 129.88,-251 123.88,-245 123.88,-239 123.88,-239 123.88,-222 123.88,-222 123.88,-216 129.88,-210 135.88,-210 135.88,-210 212.62,-210 212.62,-210 218.62,-210 224.62,-216 224.62,-222 224.62,-222 224.62,-239 224.62,-239 224.62,-245 218.62,-251 212.62,-251"/>
<text xml:space="preserve" text-anchor="middle" x="174.25" y="-233.7" font-family="Times New Roman,serif" font-size="14.00" fill="#1e293b">Docker</text>
<text xml:space="preserve" text-anchor="middle" x="174.25" y="-217.2" font-family="Times New Roman,serif" font-size="14.00" fill="#1e293b">(Containerized)</text>
</g>
<!-- deploy_docker&#45;&gt;app -->
<g id="edge7" class="edge">
<title>deploy_docker&#45;&gt;app</title>
<path fill="none" stroke="#2563eb" stroke-width="1.5" d="M225.28,-216.63C239.76,-212.62 255.67,-208.2 270.51,-204.09"/>
<polygon fill="#2563eb" stroke="#2563eb" stroke-width="1.5" points="271.24,-207.52 279.94,-201.48 269.37,-200.77 271.24,-207.52"/>
</g>
<!-- deploy_local_cron -->
<g id="node4" class="node">
<title>deploy_local_cron</title>
<path fill="#eff6ff" stroke="#2563eb" stroke-width="2" d="M202.88,-167C202.88,-167 145.62,-167 145.62,-167 139.62,-167 133.62,-161 133.62,-155 133.62,-155 133.62,-138 133.62,-138 133.62,-132 139.62,-126 145.62,-126 145.62,-126 202.88,-126 202.88,-126 208.88,-126 214.88,-132 214.88,-138 214.88,-138 214.88,-155 214.88,-155 214.88,-161 208.88,-167 202.88,-167"/>
<text xml:space="preserve" text-anchor="middle" x="174.25" y="-149.7" font-family="Times New Roman,serif" font-size="14.00" fill="#1e293b">Local Cron</text>
<text xml:space="preserve" text-anchor="middle" x="174.25" y="-133.2" font-family="Times New Roman,serif" font-size="14.00" fill="#1e293b">(Scheduled)</text>
</g>
<!-- deploy_local_cron&#45;&gt;app -->
<g id="edge8" class="edge">
<title>deploy_local_cron&#45;&gt;app</title>
<path fill="none" stroke="#2563eb" stroke-width="1.5" d="M215.85,-157.76C232.6,-162.4 252.3,-167.86 270.41,-172.88"/>
<polygon fill="#2563eb" stroke="#2563eb" stroke-width="1.5" points="269.28,-176.2 279.85,-175.5 271.15,-169.45 269.28,-176.2"/>
</g>
<!-- deploy_fastapi -->
<g id="node5" class="node">
<title>deploy_fastapi</title>
<path fill="#eff6ff" stroke="#2563eb" stroke-width="2" d="M213,-83C213,-83 135.5,-83 135.5,-83 129.5,-83 123.5,-77 123.5,-71 123.5,-71 123.5,-54 123.5,-54 123.5,-48 129.5,-42 135.5,-42 135.5,-42 213,-42 213,-42 219,-42 225,-48 225,-54 225,-54 225,-71 225,-71 225,-77 219,-83 213,-83"/>
<text xml:space="preserve" text-anchor="middle" x="174.25" y="-65.7" font-family="Times New Roman,serif" font-size="14.00" fill="#1e293b">FastAPI</text>
<text xml:space="preserve" text-anchor="middle" x="174.25" y="-49.2" font-family="Times New Roman,serif" font-size="14.00" fill="#1e293b">(Service Mode)</text>
</g>
<!-- deploy_fastapi&#45;&gt;app -->
<g id="edge9" class="edge">
<title>deploy_fastapi&#45;&gt;app</title>
<path fill="none" stroke="#2563eb" stroke-width="1.5" d="M200.95,-83.87C225.87,-104.6 263.87,-136.21 291.59,-159.26"/>
<polygon fill="#2563eb" stroke="#2563eb" stroke-width="1.5" points="289.25,-161.87 299.18,-165.57 293.73,-156.48 289.25,-161.87"/>
</g>
<!-- trigger_schedule -->
<g id="node6" class="node">
<title>trigger_schedule</title>
<path fill="#fff7ed" stroke="#ea580c" stroke-width="2" d="M53.5,-251C53.5,-251 12,-251 12,-251 6,-251 0,-245 0,-239 0,-239 0,-222 0,-222 0,-216 6,-210 12,-210 12,-210 53.5,-210 53.5,-210 59.5,-210 65.5,-216 65.5,-222 65.5,-222 65.5,-239 65.5,-239 65.5,-245 59.5,-251 53.5,-251"/>
<text xml:space="preserve" text-anchor="middle" x="32.75" y="-233.7" font-family="Times New Roman,serif" font-size="14.00" fill="#1e293b">Cron</text>
<text xml:space="preserve" text-anchor="middle" x="32.75" y="-217.2" font-family="Times New Roman,serif" font-size="14.00" fill="#1e293b">Schedule</text>
</g>
<!-- trigger_schedule&#45;&gt;deploy_gh_actions -->
<g id="edge1" class="edge">
<title>trigger_schedule&#45;&gt;deploy_gh_actions</title>
<path fill="none" stroke="#ea580c" stroke-width="1.5" d="M66.1,-251.84C81.58,-262.04 100.54,-274.55 118.19,-286.19"/>
<polygon fill="#ea580c" stroke="#ea580c" stroke-width="1.5" points="116.22,-289.08 126.5,-291.67 120.08,-283.24 116.22,-289.08"/>
</g>
<!-- trigger_schedule&#45;&gt;deploy_docker -->
<g id="edge2" class="edge">
<title>trigger_schedule&#45;&gt;deploy_docker</title>
<path fill="none" stroke="#ea580c" stroke-width="1.5" d="M66.46,-230.5C79.74,-230.5 95.54,-230.5 110.87,-230.5"/>
<polygon fill="#ea580c" stroke="#ea580c" stroke-width="1.5" points="110.73,-234 120.73,-230.5 110.73,-227 110.73,-234"/>
</g>
<!-- trigger_schedule&#45;&gt;deploy_local_cron -->
<g id="edge3" class="edge">
<title>trigger_schedule&#45;&gt;deploy_local_cron</title>
<path fill="none" stroke="#ea580c" stroke-width="1.5" d="M66.46,-210.81C84.61,-199.87 107.49,-186.1 127.41,-174.1"/>
<polygon fill="#ea580c" stroke="#ea580c" stroke-width="1.5" points="129.11,-177.16 135.87,-169.01 125.5,-171.17 129.11,-177.16"/>
</g>
<!-- trigger_api -->
<g id="node7" class="node">
<title>trigger_api</title>
<path fill="#fff7ed" stroke="#ea580c" stroke-width="2" d="M52.75,-125C52.75,-125 12.75,-125 12.75,-125 6.75,-125 0.75,-119 0.75,-113 0.75,-113 0.75,-96 0.75,-96 0.75,-90 6.75,-84 12.75,-84 12.75,-84 52.75,-84 52.75,-84 58.75,-84 64.75,-90 64.75,-96 64.75,-96 64.75,-113 64.75,-113 64.75,-119 58.75,-125 52.75,-125"/>
<text xml:space="preserve" text-anchor="middle" x="32.75" y="-107.7" font-family="Times New Roman,serif" font-size="14.00" fill="#1e293b">REST</text>
<text xml:space="preserve" text-anchor="middle" x="32.75" y="-91.2" font-family="Times New Roman,serif" font-size="14.00" fill="#1e293b">API Call</text>
</g>
<!-- trigger_api&#45;&gt;deploy_fastapi -->
<g id="edge4" class="edge">
<title>trigger_api&#45;&gt;deploy_fastapi</title>
<path fill="none" stroke="#ea580c" stroke-width="1.5" d="M65.4,-94.97C78.99,-90.88 95.35,-85.95 111.18,-81.19"/>
<polygon fill="#ea580c" stroke="#ea580c" stroke-width="1.5" points="111.83,-84.65 120.4,-78.41 109.81,-77.94 111.83,-84.65"/>
</g>
<!-- trigger_webui -->
<g id="node8" class="node">
<title>trigger_webui</title>
<path fill="#fff7ed" stroke="#ea580c" stroke-width="2" d="M50.12,-41C50.12,-41 15.38,-41 15.38,-41 9.38,-41 3.38,-35 3.38,-29 3.38,-29 3.38,-12 3.38,-12 3.38,-6 9.38,0 15.38,0 15.38,0 50.12,0 50.12,0 56.12,0 62.12,-6 62.12,-12 62.12,-12 62.12,-29 62.12,-29 62.12,-35 56.12,-41 50.12,-41"/>
<text xml:space="preserve" text-anchor="middle" x="32.75" y="-23.7" font-family="Times New Roman,serif" font-size="14.00" fill="#1e293b">Web UI</text>
<text xml:space="preserve" text-anchor="middle" x="32.75" y="-7.2" font-family="Times New Roman,serif" font-size="14.00" fill="#1e293b">Manual</text>
</g>
<!-- trigger_webui&#45;&gt;deploy_fastapi -->
<g id="edge5" class="edge">
<title>trigger_webui&#45;&gt;deploy_fastapi</title>
<path fill="none" stroke="#ea580c" stroke-width="1.5" d="M62.99,-29.3C77.02,-33.53 94.38,-38.75 111.15,-43.8"/>
<polygon fill="#ea580c" stroke="#ea580c" stroke-width="1.5" points="109.85,-47.07 120.44,-46.6 111.87,-40.36 109.85,-47.07"/>
</g>
</g>
</svg>
