<?xml version="1.0" encoding="UTF-8" standalone="no"?>
<!DOCTYPE svg PUBLIC "-//W3C//DTD SVG 1.1//EN"
 "http://www.w3.org/Graphics/SVG/1.1/DTD/svg11.dtd">
<!-- Generated by graphviz version 14.1.2 (0)
 -->
<!-- Title: DSA_Strategy_System Pages: 1 -->
<svg width="2680pt" height="925pt"
 viewBox="0.00 0.00 2680.00 925.00" xmlns="http://www.w3.org/2000/svg" xmlns:xlink="http://www.w3.org/1999/xlink">
<g id="graph0" class="graph" transform="scale(2.08333 2.08333) rotate(0) translate(36 408)">
<title>DSA_Strategy_System</title>
<polygon fill="#ffffff" stroke="none" points="-36,36 -36,-408 1250.62,-408 1250.62,36 -36,36"/>
<!-- strat_ma_golden_cross -->
<g id="node1" class="node">
<title>strat_ma_golden_cross</title>
<path fill="#f0fdf4" stroke="#059669" stroke-width="2" d="M69.25,-372C69.25,-372 12,-372 12,-372 6,-372 0,-366 0,-360 0,-360 0,-343 0,-343 0,-337 6,-331 12,-331 12,-331 69.25,-331 69.25,-331 75.25,-331 81.25,-337 81.25,-343 81.25,-343 81.25,-360 81.25,-360 81.25,-366 75.25,-372 69.25,-372"/>
<text xml:space="preserve" text-anchor="middle" x="40.62" y="-354.7" font-family="Times New Roman,serif" font-size="14.00" fill="#1e293b">MA Golden</text>
<text xml:space="preserve" text-anchor="middle" x="40.62" y="-338.2" font-family="Times New Roman,serif" font-size="14.00" fill="#1e293b">Cross</text>
</g>
<!-- loader -->
<g id="node12" class="node">
<title>loader</title>
<path fill="#f8fafc" stroke="#2563eb" stroke-width="2" d="M678.62,-272C678.62,-272 596.62,-272 596.62,-272 590.62,-272 584.62,-266 584.62,-260 584.62,-260 584.62,-243 584.62,-243 584.62,-237 590.62,-231 596.62,-231 596.62,-231 678.62,-231 678.62,-231 684.62,-231 690.62,-237 690.62,-243 690.62,-243 690.62,-260 690.62,-260 690.62,-266 684.62,-272 678.62,-272"/>
<text xml:space="preserve" text-anchor="middle" x="637.62" y="-254.7" font-family="Times New Roman,serif" font-size="14.00" fill="#1e293b">Strategy</text>
<text xml:space="preserve" text-anchor="middle" x="637.62" y="-238.2" font-family="Times New Roman,serif" font-size="14.00" fill="#1e293b">Loader (YAML)</text>
</g>
<!-- strat_ma_golden_cross&#45;&gt;loader -->
<g id="edge1" class="edge">
<title>strat_ma_golden_cross&#45;&gt;loader</title>
<path fill="none" stroke="#059669" stroke-width="1.5" d="M82.06,-336.47C88.88,-334.45 95.92,-332.54 102.62,-331 269.53,-292.76 470.18,-269.16 571.76,-258.75"/>
<polygon fill="#059669" stroke="#059669" stroke-width="1.5" points="572.09,-262.24 581.69,-257.75 571.39,-255.27 572.09,-262.24"/>
</g>
<!-- strat_chan_theory -->
<g id="node2" class="node">
<title>strat_chan_theory</title>
<path fill="#f0fdf4" stroke="#059669" stroke-width="2" d="M198.88,-372C198.88,-372 136.38,-372 136.38,-372 130.38,-372 124.38,-366 124.38,-360 124.38,-360 124.38,-343 124.38,-343 124.38,-337 130.38,-331 136.38,-331 136.38,-331 198.88,-331 198.88,-331 204.88,-331 210.88,-337 210.88,-343 210.88,-343 210.88,-360 210.88,-360 210.88,-366 204.88,-372 198.88,-372"/>
<text xml:space="preserve" text-anchor="middle" x="167.62" y="-354.7" font-family="Times New Roman,serif" font-size="14.00" fill="#1e293b">Chan Theory</text>
<text xml:space="preserve" text-anchor="middle" x="167.62" y="-338.2" font-family="Times New Roman,serif" font-size="14.00" fill="#1e293b">(Chan Lun)</text>
</g>
<!-- strat_chan_theory&#45;&gt;loader -->
<g id="edge2" class="edge">
<title>strat_chan_theory&#45;&gt;loader</title>
<path fill="none" stroke="#059669" stroke-width="1.5" d="M211.87,-336.58C218.78,-334.59 225.88,-332.66 232.62,-331 351.19,-301.8 491.47,-276.68 571.95,-263.15"/>
<polygon fill="#059669" stroke="#059669" stroke-width="1.5" points="572.33,-266.63 581.62,-261.53 571.18,-259.73 572.33,-266.63"/>
</g>
<!-- strat_wave_theory -->
<g id="node3" class="node">
<title>strat_wave_theory</title>
<path fill="#f0fdf4" stroke="#059669" stroke-width="2" d="M331,-372C331,-372 266.25,-372 266.25,-372 260.25,-372 254.25,-366 254.25,-360 254.25,-360 254.25,-343 254.25,-343 254.25,-337 260.25,-331 266.25,-331 266.25,-331 331,-331 331,-331 337,-331 343,-337 343,-343 343,-343 343,-360 343,-360 343,-366 337,-372 331,-372"/>
<text xml:space="preserve" text-anchor="middle" x="298.62" y="-354.7" font-family="Times New Roman,serif" font-size="14.00" fill="#1e293b">Wave Theory</text>
<text xml:space="preserve" text-anchor="middle" x="298.62" y="-338.2" font-family="Times New Roman,serif" font-size="14.00" fill="#1e293b">(Elliott)</text>
</g>
<!-- strat_wave_theory&#45;&gt;loader -->
<g id="edge3" class="edge">
<title>strat_wave_theory&#45;&gt;loader</title>
<path fill="none" stroke="#059669" stroke-width="1.5" d="M343.7,-337.13C350.7,-335.07 357.86,-332.97 364.62,-331 435.42,-310.36 516.65,-287.05 571.98,-271.23"/>
<polygon fill="#059669" stroke="#059669" stroke-width="1.5" points="572.88,-274.61 581.54,-268.5 570.96,-267.88 572.88,-274.61"/>
</g>
<!-- strat_emotion_cycle -->
<g id="node4" class="node">
<title>strat_emotion_cycle</title>
<path fill="#f0fdf4" stroke="#059669" stroke-width="2" d="M437.25,-372C437.25,-372 398,-372 398,-372 392,-372 386,-366 386,-360 386,-360 386,-343 386,-343 386,-337 392,-331 398,-331 398,-331 437.25,-331 437.25,-331 443.25,-331 449.25,-337 449.25,-343 449.25,-343 449.25,-360 449.25,-360 449.25,-366 443.25,-372 437.25,-372"/>
<text xml:space="preserve" text-anchor="middle" x="417.62" y="-354.7" font-family="Times New Roman,serif" font-size="14.00" fill="#1e293b">Emotion</text>
<text xml:space="preserve" text-anchor="middle" x="417.62" y="-338.2" font-family="Times New Roman,serif" font-size="14.00" fill="#1e293b">Cycle</text>
</g>
<!-- strat_emotion_cycle&#45;&gt;loader -->
<g id="edge4" class="edge">
<title>strat_emotion_cycle&#45;&gt;loader</title>
<path fill="none" stroke="#059669" stroke-width="1.5" d="M450.09,-336.04C484.36,-320.77 539.05,-296.41 580.55,-277.92"/>
<polygon fill="#059669" stroke="#059669" stroke-width="1.5" points="581.83,-281.19 589.54,-273.92 578.98,-274.79 581.83,-281.19"/>
</g>
<!-- strat_volume_breakout -->
<g id="node5" class="node">
<title>strat_volume_breakout</title>
<path fill="#f0fdf4" stroke="#059669" stroke-width="2" d="M545.38,-372C545.38,-372 503.88,-372 503.88,-372 497.88,-372 491.88,-366 491.88,-360 491.88,-360 491.88,-343 491.88,-343 491.88,-337 497.88,-331 503.88,-331 503.88,-331 545.38,-331 545.38,-331 551.38,-331 557.38,-337 557.38,-343 557.38,-343 557.38,-360 557.38,-360 557.38,-366 551.38,-372 545.38,-372"/>
<text xml:space="preserve" text-anchor="middle" x="524.62" y="-354.7" font-family="Times New Roman,serif" font-size="14.00" fill="#1e293b">Volume</text>
<text xml:space="preserve" text-anchor="middle" x="524.62" y="-338.2" font-family="Times New Roman,serif" font-size="14.00" fill="#1e293b">Breakout</text>
</g>
<!-- strat_volume_breakout&#45;&gt;loader -->
<g id="edge5" class="edge">
<title>strat_volume_breakout&#45;&gt;loader</title>
<path fill="none" stroke="#059669" stroke-width="1.5" d="M548.04,-330.19C564.55,-315.87 586.89,-296.5 605.13,-280.68"/>
<polygon fill="#059669" stroke="#059669" stroke-width="1.5" points="607.26,-283.46 612.53,-274.27 602.68,-278.17 607.26,-283.46"/>
</g>
<!-- strat_bull_trend -->
<g id="node6" class="node">
<title>strat_bull_trend</title>
<path fill="#f0fdf4" stroke="#059669" stroke-width="2" d="M662.88,-372C662.88,-372 612.38,-372 612.38,-372 606.38,-372 600.38,-366 600.38,-360 600.38,-360 600.38,-343 600.38,-343 600.38,-337 606.38,-331 612.38,-331 612.38,-331 662.88,-331 662.88,-331 668.88,-331 674.88,-337 674.88,-343 674.88,-343 674.88,-360 674.88,-360 674.88,-366 668.88,-372 662.88,-372"/>
<text xml:space="preserve" text-anchor="middle" x="637.62" y="-354.7" font-family="Times New Roman,serif" font-size="14.00" fill="#1e293b">Bull Trend</text>
<text xml:space="preserve" text-anchor="middle" x="637.62" y="-338.2" font-family="Times New Roman,serif" font-size="14.00" fill="#1e293b">Following</text>
</g>
<!-- strat_bull_trend&#45;&gt;loader -->
<g id="edge6" class="edge">
<title>strat_bull_trend&#45;&gt;loader</title>
<path fill="none" stroke="#059669" stroke-width="1.5" d="M637.62,-330.19C637.62,-317.05 637.62,-299.66 637.62,-284.67"/>
<polygon fill="#059669" stroke="#059669" stroke-width="1.5" points="641.13,-285.05 637.63,-275.05 634.13,-285.05 641.13,-285.05"/>
</g>
<!-- strat_bottom_volume -->
<g id="node7" class="node">
<title>strat_bottom_volume</title>
<path fill="#f0fdf4" stroke="#059669" stroke-width="2" d="M765,-372C765,-372 730.25,-372 730.25,-372 724.25,-372 718.25,-366 718.25,-360 718.25,-360 718.25,-343 718.25,-343 718.25,-337 724.25,-331 730.25,-331 730.25,-331 765,-331 765,-331 771,-331 777,-337 777,-343 777,-343 777,-360 777,-360 777,-366 771,-372 765,-372"/>
<text xml:space="preserve" text-anchor="middle" x="747.62" y="-354.7" font-family="Times New Roman,serif" font-size="14.00" fill="#1e293b">Bottom</text>
<text xml:space="preserve" text-anchor="middle" x="747.62" y="-338.2" font-family="Times New Roman,serif" font-size="14.00" fill="#1e293b">Volume</text>
</g>
<!-- strat_bottom_volume&#45;&gt;loader -->
<g id="edge7" class="edge">
<title>strat_bottom_volume&#45;&gt;loader</title>
<path fill="none" stroke="#059669" stroke-width="1.5" d="M724.83,-330.19C708.76,-315.87 687.01,-296.5 669.26,-280.68"/>
<polygon fill="#059669" stroke="#059669" stroke-width="1.5" points="671.88,-278.33 662.08,-274.29 667.22,-283.56 671.88,-278.33"/>
</g>
<!-- strat_dragon_head -->
<g id="node8" class="node">
<title>strat_dragon_head</title>
<path fill="#f0fdf4" stroke="#059669" stroke-width="2" d="M864.88,-372C864.88,-372 832.38,-372 832.38,-372 826.38,-372 820.38,-366 820.38,-360 820.38,-360 820.38,-343 820.38,-343 820.38,-337 826.38,-331 832.38,-331 832.38,-331 864.88,-331 864.88,-331 870.88,-331 876.88,-337 876.88,-343 876.88,-343 876.88,-360 876.88,-360 876.88,-366 870.88,-372 864.88,-372"/>
<text xml:space="preserve" text-anchor="middle" x="848.62" y="-354.7" font-family="Times New Roman,serif" font-size="14.00" fill="#1e293b">Dragon</text>
<text xml:space="preserve" text-anchor="middle" x="848.62" y="-338.2" font-family="Times New Roman,serif" font-size="14.00" fill="#1e293b">Head</text>
</g>
<!-- strat_dragon_head&#45;&gt;loader -->
<g id="edge8" class="edge">
<title>strat_dragon_head&#45;&gt;loader</title>
<path fill="none" stroke="#059669" stroke-width="1.5" d="M819.73,-337.08C787.13,-321.94 733.35,-296.96 692.67,-278.07"/>
<polygon fill="#059669" stroke="#059669" stroke-width="1.5" points="694.18,-274.91 683.63,-273.87 691.23,-281.25 694.18,-274.91"/>
</g>
<!-- strat_box_oscillation -->
<g id="node9" class="node">
<title>strat_box_oscillation</title>
<path fill="#f0fdf4" stroke="#059669" stroke-width="2" d="M983.25,-372C983.25,-372 932,-372 932,-372 926,-372 920,-366 920,-360 920,-360 920,-343 920,-343 920,-337 926,-331 932,-331 932,-331 983.25,-331 983.25,-331 989.25,-331 995.25,-337 995.25,-343 995.25,-343 995.25,-360 995.25,-360 995.25,-366 989.25,-372 983.25,-372"/>
<text xml:space="preserve" text-anchor="middle" x="957.62" y="-354.7" font-family="Times New Roman,serif" font-size="14.00" fill="#1e293b">Box</text>
<text xml:space="preserve" text-anchor="middle" x="957.62" y="-338.2" font-family="Times New Roman,serif" font-size="14.00" fill="#1e293b">Oscillation</text>
</g>
<!-- strat_box_oscillation&#45;&gt;loader -->
<g id="edge9" class="edge">
<title>strat_box_oscillation&#45;&gt;loader</title>
<path fill="none" stroke="#059669" stroke-width="1.5" d="M919.27,-337.66C912.41,-335.41 905.31,-333.11 898.62,-331 832.13,-310.02 755.71,-287.18 702.82,-271.58"/>
<polygon fill="#059669" stroke="#059669" stroke-width="1.5" points="704,-268.28 693.42,-268.81 702.02,-274.99 704,-268.28"/>
</g>
<!-- strat_shrink_pullback -->
<g id="node10" class="node">
<title>strat_shrink_pullback</title>
<path fill="#f0fdf4" stroke="#059669" stroke-width="2" d="M1089.25,-372C1089.25,-372 1050,-372 1050,-372 1044,-372 1038,-366 1038,-360 1038,-360 1038,-343 1038,-343 1038,-337 1044,-331 1050,-331 1050,-331 1089.25,-331 1089.25,-331 1095.25,-331 1101.25,-337 1101.25,-343 1101.25,-343 1101.25,-360 1101.25,-360 1101.25,-366 1095.25,-372 1089.25,-372"/>
<text xml:space="preserve" text-anchor="middle" x="1069.62" y="-354.7" font-family="Times New Roman,serif" font-size="14.00" fill="#1e293b">Shrink</text>
<text xml:space="preserve" text-anchor="middle" x="1069.62" y="-338.2" font-family="Times New Roman,serif" font-size="14.00" fill="#1e293b">Pullback</text>
</g>
<!-- strat_shrink_pullback&#45;&gt;loader -->
<g id="edge10" class="edge">
<title>strat_shrink_pullback&#45;&gt;loader</title>
<path fill="none" stroke="#059669" stroke-width="1.5" d="M1037.08,-337.66C1030.38,-335.26 1023.32,-332.91 1016.62,-331 908.38,-300.06 779.49,-276 703.34,-263.06"/>
<polygon fill="#059669" stroke="#059669" stroke-width="1.5" points="704.26,-259.67 693.82,-261.46 703.1,-266.57 704.26,-259.67"/>
</g>
<!-- strat_one_yang_three_yin -->
<g id="node11" class="node">
<title>strat_one_yang_three_yin</title>
<path fill="#f0fdf4" stroke="#059669" stroke-width="2" d="M1202.62,-372C1202.62,-372 1156.62,-372 1156.62,-372 1150.62,-372 1144.62,-366 1144.62,-360 1144.62,-360 1144.62,-343 1144.62,-343 1144.62,-337 1150.62,-331 1156.62,-331 1156.62,-331 1202.62,-331 1202.62,-331 1208.62,-331 1214.62,-337 1214.62,-343 1214.62,-343 1214.62,-360 1214.62,-360 1214.62,-366 1208.62,-372 1202.62,-372"/>
<text xml:space="preserve" text-anchor="middle" x="1179.62" y="-354.7" font-family="Times New Roman,serif" font-size="14.00" fill="#1e293b">One Yang</text>
<text xml:space="preserve" text-anchor="middle" x="1179.62" y="-338.2" font-family="Times New Roman,serif" font-size="14.00" fill="#1e293b">Three Yin</text>
</g>
<!-- strat_one_yang_three_yin&#45;&gt;loader -->
<g id="edge11" class="edge">
<title>strat_one_yang_three_yin&#45;&gt;loader</title>
<path fill="none" stroke="#059669" stroke-width="1.5" d="M1143.72,-337.19C1136.78,-334.91 1129.52,-332.73 1122.62,-331 974.93,-294.07 797.42,-270.47 703.47,-259.57"/>
<polygon fill="#059669" stroke="#059669" stroke-width="1.5" points="703.92,-256.1 693.59,-258.44 703.12,-263.06 703.92,-256.1"/>
</g>
<!-- orchestrator -->
<g id="node13" class="node">
<title>orchestrator</title>
<path fill="#ede9fe" stroke="#7c3aed" stroke-width="2" d="M667.38,-156.5C667.38,-156.5 607.88,-156.5 607.88,-156.5 601.88,-156.5 595.88,-150.5 595.88,-144.5 595.88,-144.5 595.88,-127.5 595.88,-127.5 595.88,-121.5 601.88,-115.5 607.88,-115.5 607.88,-115.5 667.38,-115.5 667.38,-115.5 673.38,-115.5 679.38,-121.5 679.38,-127.5 679.38,-127.5 679.38,-144.5 679.38,-144.5 679.38,-150.5 673.38,-156.5 667.38,-156.5"/>
<text xml:space="preserve" text-anchor="middle" x="637.62" y="-139.2" font-family="Times New Roman,serif" font-size="14.00" fill="#1e293b">Agent</text>
<text xml:space="preserve" text-anchor="middle" x="637.62" y="-122.7" font-family="Times New Roman,serif" font-size="14.00" fill="#1e293b">Orchestrator</text>
</g>
<!-- loader&#45;&gt;orchestrator -->
<g id="edge12" class="edge">
<title>loader&#45;&gt;orchestrator</title>
<path fill="none" stroke="#ea580c" stroke-width="1.5" d="M637.62,-230.21C637.62,-213.37 637.62,-189.09 637.62,-169.54"/>
<polygon fill="#ea580c" stroke="#ea580c" stroke-width="1.5" points="641.13,-169.77 637.63,-159.77 634.13,-169.77 641.13,-169.77"/>
<text xml:space="preserve" text-anchor="middle" x="649.25" y="-188.7" font-family="Times New Roman,serif" font-size="14.00">load</text>
</g>
<!-- tool_get_daily_history -->
<g id="node14" class="node">
<title>tool_get_daily_history</title>
<path fill="#f8fafc" stroke="#2563eb" stroke-width="2" d="M389.88,-41C389.88,-41 357.38,-41 357.38,-41 351.38,-41 345.38,-35 345.38,-29 345.38,-29 345.38,-12 345.38,-12 345.38,-6 351.38,0 357.38,0 357.38,0 389.88,0 389.88,0 395.88,0 401.88,-6 401.88,-12 401.88,-12 401.88,-29 401.88,-29 401.88,-35 395.88,-41 389.88,-41"/>
<text xml:space="preserve" text-anchor="middle" x="373.62" y="-23.7" font-family="Times New Roman,serif" font-size="14.00" fill="#1e293b">Daily</text>
<text xml:space="preserve" text-anchor="middle" x="373.62" y="-7.2" font-family="Times New Roman,serif" font-size="14.00" fill="#1e293b">History</text>
</g>
<!-- orchestrator&#45;&gt;tool_get_daily_history -->
<g id="edge13" class="edge">
<title>orchestrator&#45;&gt;tool_get_daily_history</title>
<path fill="none" stroke="#2563eb" stroke-width="1.5" d="M594.88,-118.1C572.02,-108.95 543.45,-97.33 518.12,-86.5 482.62,-71.32 442.61,-53.24 413.71,-40.01"/>
<polygon fill="#2563eb" stroke="#2563eb" stroke-width="1.5" points="415.43,-36.95 404.88,-35.96 412.51,-43.31 415.43,-36.95"/>
<text xml:space="preserve" text-anchor="middle" x="527.88" y="-73.2" font-family="Times New Roman,serif" font-size="14.00">call</text>
</g>
<!-- tool_analyze_trend -->
<g id="node15" class="node">
<title>tool_analyze_trend</title>
<path fill="#f8fafc" stroke="#2563eb" stroke-width="2" d="M496.25,-41C496.25,-41 457,-41 457,-41 451,-41 445,-35 445,-29 445,-29 445,-12 445,-12 445,-6 451,0 457,0 457,0 496.25,0 496.25,0 502.25,0 508.25,-6 508.25,-12 508.25,-12 508.25,-29 508.25,-29 508.25,-35 502.25,-41 496.25,-41"/>
<text xml:space="preserve" text-anchor="middle" x="476.62" y="-23.7" font-family="Times New Roman,serif" font-size="14.00" fill="#1e293b">Trend</text>
<text xml:space="preserve" text-anchor="middle" x="476.62" y="-7.2" font-family="Times New Roman,serif" font-size="14.00" fill="#1e293b">Analysis</text>
</g>
<!-- orchestrator&#45;&gt;tool_analyze_trend -->
<g id="edge14" class="edge">
<title>orchestrator&#45;&gt;tool_analyze_trend</title>
<path fill="none" stroke="#2563eb" stroke-width="1.5" d="M608.84,-114.71C582.79,-96.34 544.2,-69.14 515.43,-48.86"/>
<polygon fill="#2563eb" stroke="#2563eb" stroke-width="1.5" points="517.75,-46.21 507.56,-43.31 513.71,-51.93 517.75,-46.21"/>
<text xml:space="preserve" text-anchor="middle" x="576.51" y="-73.2" font-family="Times New Roman,serif" font-size="14.00">call</text>
</g>
<!-- tool_get_realtime_quote -->
<g id="node16" class="node">
<title>tool_get_realtime_quote</title>
<path fill="#f8fafc" stroke="#2563eb" stroke-width="2" d="M604.38,-41C604.38,-41 562.88,-41 562.88,-41 556.88,-41 550.88,-35 550.88,-29 550.88,-29 550.88,-12 550.88,-12 550.88,-6 556.88,0 562.88,0 562.88,0 604.38,0 604.38,0 610.38,0 616.38,-6 616.38,-12 616.38,-12 616.38,-29 616.38,-29 616.38,-35 610.38,-41 604.38,-41"/>
<text xml:space="preserve" text-anchor="middle" x="583.62" y="-23.7" font-family="Times New Roman,serif" font-size="14.00" fill="#1e293b">Realtime</text>
<text xml:space="preserve" text-anchor="middle" x="583.62" y="-7.2" font-family="Times New Roman,serif" font-size="14.00" fill="#1e293b">Quote</text>
</g>
<!-- orchestrator&#45;&gt;tool_get_realtime_quote -->
<g id="edge15" class="edge">
<title>orchestrator&#45;&gt;tool_get_realtime_quote</title>
<path fill="none" stroke="#2563eb" stroke-width="1.5" d="M627.97,-114.71C619.81,-97.55 607.97,-72.67 598.58,-52.93"/>
<polygon fill="#2563eb" stroke="#2563eb" stroke-width="1.5" points="601.81,-51.58 594.35,-44.05 595.49,-54.58 601.81,-51.58"/>
<text xml:space="preserve" text-anchor="middle" x="623.61" y="-73.2" font-family="Times New Roman,serif" font-size="14.00">call</text>
</g>
<!-- tool_get_sector_rankings -->
<g id="node17" class="node">
<title>tool_get_sector_rankings</title>
<path fill="#f8fafc" stroke="#2563eb" stroke-width="2" d="M714.12,-41C714.12,-41 671.12,-41 671.12,-41 665.12,-41 659.12,-35 659.12,-29 659.12,-29 659.12,-12 659.12,-12 659.12,-6 665.12,0 671.12,0 671.12,0 714.12,0 714.12,0 720.12,0 726.12,-6 726.12,-12 726.12,-12 726.12,-29 726.12,-29 726.12,-35 720.12,-41 714.12,-41"/>
<text xml:space="preserve" text-anchor="middle" x="692.62" y="-23.7" font-family="Times New Roman,serif" font-size="14.00" fill="#1e293b">Sector</text>
<text xml:space="preserve" text-anchor="middle" x="692.62" y="-7.2" font-family="Times New Roman,serif" font-size="14.00" fill="#1e293b">Rankings</text>
</g>
<!-- orchestrator&#45;&gt;tool_get_sector_rankings -->
<g id="edge16" class="edge">
<title>orchestrator&#45;&gt;tool_get_sector_rankings</title>
<path fill="none" stroke="#2563eb" stroke-width="1.5" d="M647.46,-114.71C655.77,-97.55 667.83,-72.67 677.4,-52.93"/>
<polygon fill="#2563eb" stroke="#2563eb" stroke-width="1.5" points="680.49,-54.57 681.7,-44.04 674.19,-51.51 680.49,-54.57"/>
<text xml:space="preserve" text-anchor="middle" x="678.17" y="-73.2" font-family="Times New Roman,serif" font-size="14.00">call</text>
</g>
<!-- tool_search_stock_news -->
<g id="node18" class="node">
<title>tool_search_stock_news</title>
<path fill="#f8fafc" stroke="#2563eb" stroke-width="2" d="M811.62,-41C811.62,-41 781.62,-41 781.62,-41 775.62,-41 769.62,-35 769.62,-29 769.62,-29 769.62,-12 769.62,-12 769.62,-6 775.62,0 781.62,0 781.62,0 811.62,0 811.62,0 817.62,0 823.62,-6 823.62,-12 823.62,-12 823.62,-29 823.62,-29 823.62,-35 817.62,-41 811.62,-41"/>
<text xml:space="preserve" text-anchor="middle" x="796.62" y="-23.7" font-family="Times New Roman,serif" font-size="14.00" fill="#1e293b">News</text>
<text xml:space="preserve" text-anchor="middle" x="796.62" y="-7.2" font-family="Times New Roman,serif" font-size="14.00" fill="#1e293b">Search</text>
</g>
<!-- orchestrator&#45;&gt;tool_search_stock_news -->
<g id="edge17" class="edge">
<title>orchestrator&#45;&gt;tool_search_stock_news</title>
<path fill="none" stroke="#2563eb" stroke-width="1.5" d="M666.05,-114.71C692.02,-96.17 730.6,-68.63 759.09,-48.29"/>
<polygon fill="#2563eb" stroke="#2563eb" stroke-width="1.5" points="760.76,-51.4 766.86,-42.74 756.69,-45.71 760.76,-51.4"/>
<text xml:space="preserve" text-anchor="middle" x="736.39" y="-73.2" font-family="Times New Roman,serif" font-size="14.00">call</text>
</g>
<!-- agent_result -->
<g id="node19" class="node">
<title>agent_result</title>
<path fill="#fff7ed" stroke="#ea580c" stroke-width="2" d="M938.75,-41C938.75,-41 878.5,-41 878.5,-41 872.5,-41 866.5,-35 866.5,-29 866.5,-29 866.5,-12 866.5,-12 866.5,-6 872.5,0 878.5,0 878.5,0 938.75,0 938.75,0 944.75,0 950.75,-6 950.75,-12 950.75,-12 950.75,-29 950.75,-29 950.75,-35 944.75,-41 938.75,-41"/>
<text xml:space="preserve" text-anchor="middle" x="908.62" y="-23.7" font-family="Times New Roman,serif" font-size="14.00" fill="#1e293b">Strategy</text>
<text xml:space="preserve" text-anchor="middle" x="908.62" y="-7.2" font-family="Times New Roman,serif" font-size="14.00" fill="#1e293b">Q&amp;A Result</text>
</g>
<!-- orchestrator&#45;&gt;agent_result -->
<g id="edge18" class="edge">
<title>orchestrator&#45;&gt;agent_result</title>
<path fill="none" stroke="#059669" stroke-width="1.5" d="M680.11,-117.89C702.84,-108.68 731.3,-97.07 756.62,-86.5 789.24,-72.88 825.65,-57.32 854.66,-44.84"/>
<polygon fill="#059669" stroke="#059669" stroke-width="1.5" points="855.91,-48.12 863.71,-40.95 853.14,-41.69 855.91,-48.12"/>
</g>
</g>
</svg>
