<?xml version="1.0" encoding="UTF-8" standalone="no"?>
<!DOCTYPE svg PUBLIC "-//W3C//DTD SVG 1.1//EN"
 "http://www.w3.org/Graphics/SVG/1.1/DTD/svg11.dtd">
<!-- Generated by graphviz version 14.1.2 (0)
 -->
<!-- Title: roo_code_architecture Pages: 1 -->
<svg width="944pt" height="579pt"
 viewBox="0.00 0.00 944.00 579.00" xmlns="http://www.w3.org/2000/svg" xmlns:xlink="http://www.w3.org/1999/xlink">
<style>
<!-- White text halo for edge label readability -->
text { paint-order: stroke; stroke: #ffffff; stroke-width: 3px; stroke-linejoin: round; fill: #1a1a2e; }
</style>
<g id="graph0" class="graph" transform="scale(1 1) rotate(0) translate(4 575.25)">
<title>roo_code_architecture</title>
<polygon fill="white" stroke="none" points="-4,4 -4,-575.25 940.12,-575.25 940.12,4 -4,4"/>
<text xml:space="preserve" text-anchor="middle" x="468.06" y="-7.2" font-family="Times New Roman,serif" font-size="14.00">Roo Code &#45; Architecture Overview</text>
<!-- user -->
<g id="node1" class="node">
<title>user</title>
<polygon fill="#4caf50" stroke="black" points="496.38,-571.25 397.12,-571.25 397.12,-535.25 496.38,-535.25 496.38,-571.25"/>
<text xml:space="preserve" text-anchor="middle" x="446.75" y="-556.3" font-family="Arial" font-size="11.00" fill="white">Developer</text>
<text xml:space="preserve" text-anchor="middle" x="446.75" y="-542.8" font-family="Arial" font-size="11.00" fill="white">(VS Code Editor)</text>
</g>
<!-- webview -->
<g id="node2" class="node">
<title>webview</title>
<path fill="#2196f3" stroke="black" d="M486.25,-477.25C486.25,-477.25 407.25,-477.25 407.25,-477.25 401.25,-477.25 395.25,-471.25 395.25,-465.25 395.25,-465.25 395.25,-452.75 395.25,-452.75 395.25,-446.75 401.25,-440.75 407.25,-440.75 407.25,-440.75 486.25,-440.75 486.25,-440.75 492.25,-440.75 498.25,-446.75 498.25,-452.75 498.25,-452.75 498.25,-465.25 498.25,-465.25 498.25,-471.25 492.25,-477.25 486.25,-477.25"/>
<text xml:space="preserve" text-anchor="middle" x="446.75" y="-461.85" font-family="Arial Bold" font-size="12.00" fill="white">Webview UI</text>
<text xml:space="preserve" text-anchor="middle" x="446.75" y="-447.6" font-family="Arial Bold" font-size="12.00" fill="white">(Sidebar Panel)</text>
</g>
<!-- user&#45;&gt;webview -->
<g id="edge1" class="edge">
<title>user&#45;&gt;webview</title>
<path fill="none" stroke="#4caf50" stroke-width="2" d="M446.75,-535.08C446.75,-535.08 446.75,-490.47 446.75,-490.47"/>
<polygon fill="#4caf50" stroke="#4caf50" stroke-width="2" points="450.25,-490.47 446.75,-480.47 443.25,-490.47 450.25,-490.47"/>
</g>
<!-- extension -->
<g id="node3" class="node">
<title>extension</title>
<path fill="#2196f3" stroke="black" d="M498.25,-382.75C498.25,-382.75 395.25,-382.75 395.25,-382.75 389.25,-382.75 383.25,-376.75 383.25,-370.75 383.25,-370.75 383.25,-358.25 383.25,-358.25 383.25,-352.25 389.25,-346.25 395.25,-346.25 395.25,-346.25 498.25,-346.25 498.25,-346.25 504.25,-346.25 510.25,-352.25 510.25,-358.25 510.25,-358.25 510.25,-370.75 510.25,-370.75 510.25,-376.75 504.25,-382.75 498.25,-382.75"/>
<text xml:space="preserve" text-anchor="middle" x="446.75" y="-367.35" font-family="Arial Bold" font-size="12.00" fill="white">VS Code Extension</text>
<text xml:space="preserve" text-anchor="middle" x="446.75" y="-353.1" font-family="Arial Bold" font-size="12.00" fill="white">(Entry Point)</text>
</g>
<!-- webview&#45;&gt;extension -->
<g id="edge2" class="edge">
<title>webview&#45;&gt;extension</title>
<path fill="none" stroke="#2196f3" stroke-width="2" d="M446.75,-440.33C446.75,-440.33 446.75,-396.16 446.75,-396.16"/>
<polygon fill="#2196f3" stroke="#2196f3" stroke-width="2" points="450.25,-396.16 446.75,-386.16 443.25,-396.16 450.25,-396.16"/>
</g>
<!-- core_engine -->
<g id="node4" class="node">
<title>core_engine</title>
<path fill="#2196f3" stroke="black" d="M485.5,-288.25C485.5,-288.25 408,-288.25 408,-288.25 402,-288.25 396,-282.25 396,-276.25 396,-276.25 396,-249.5 396,-249.5 396,-243.5 402,-237.5 408,-237.5 408,-237.5 485.5,-237.5 485.5,-237.5 491.5,-237.5 497.5,-243.5 497.5,-249.5 497.5,-249.5 497.5,-276.25 497.5,-276.25 497.5,-282.25 491.5,-288.25 485.5,-288.25"/>
<text xml:space="preserve" text-anchor="middle" x="446.75" y="-272.85" font-family="Arial Bold" font-size="12.00" fill="white">Core Engine</text>
<text xml:space="preserve" text-anchor="middle" x="446.75" y="-258.6" font-family="Arial Bold" font-size="12.00" fill="white">(Task + Prompt</text>
<text xml:space="preserve" text-anchor="middle" x="446.75" y="-244.35" font-family="Arial Bold" font-size="12.00" fill="white">Generation)</text>
</g>
<!-- extension&#45;&gt;core_engine -->
<g id="edge3" class="edge">
<title>extension&#45;&gt;core_engine</title>
<path fill="none" stroke="#2196f3" stroke-width="2" d="M446.75,-345.86C446.75,-345.86 446.75,-301.69 446.75,-301.69"/>
<polygon fill="#2196f3" stroke="#2196f3" stroke-width="2" points="450.25,-301.69 446.75,-291.69 443.25,-301.69 450.25,-301.69"/>
</g>
<!-- mode_system -->
<g id="node5" class="node">
<title>mode_system</title>
<path fill="#00bcd4" stroke="black" d="M113.5,-179.5C113.5,-179.5 12,-179.5 12,-179.5 6,-179.5 0,-173.5 0,-167.5 0,-167.5 0,-143 0,-143 0,-137 6,-131 12,-131 12,-131 113.5,-131 113.5,-131 119.5,-131 125.5,-137 125.5,-143 125.5,-143 125.5,-167.5 125.5,-167.5 125.5,-173.5 119.5,-179.5 113.5,-179.5"/>
<text xml:space="preserve" text-anchor="middle" x="62.75" y="-165.05" font-family="Arial" font-size="11.00" fill="white">Mode System</text>
<text xml:space="preserve" text-anchor="middle" x="62.75" y="-151.55" font-family="Arial" font-size="11.00" fill="white">(Code | Architect |</text>
<text xml:space="preserve" text-anchor="middle" x="62.75" y="-138.05" font-family="Arial" font-size="11.00" fill="white">Ask | Debug | Custom)</text>
</g>
<!-- core_engine&#45;&gt;mode_system -->
<g id="edge4" class="edge">
<title>core_engine&#45;&gt;mode_system</title>
<path fill="none" stroke="#00bcd4" stroke-width="2" d="M395.76,-275.5C291.3,-275.5 62.75,-275.5 62.75,-275.5 62.75,-275.5 62.75,-192.9 62.75,-192.9"/>
<polygon fill="#00bcd4" stroke="#00bcd4" stroke-width="2" points="66.25,-192.9 62.75,-182.9 59.25,-192.9 66.25,-192.9"/>
</g>
<!-- tool_system -->
<g id="node6" class="node">
<title>tool_system</title>
<path fill="#ff9800" stroke="black" d="M298,-179.5C298,-179.5 247.5,-179.5 247.5,-179.5 241.5,-179.5 235.5,-173.5 235.5,-167.5 235.5,-167.5 235.5,-143 235.5,-143 235.5,-137 241.5,-131 247.5,-131 247.5,-131 298,-131 298,-131 304,-131 310,-137 310,-143 310,-143 310,-167.5 310,-167.5 310,-173.5 304,-179.5 298,-179.5"/>
<text xml:space="preserve" text-anchor="middle" x="272.75" y="-165.05" font-family="Arial" font-size="11.00" fill="white">Tool System</text>
<text xml:space="preserve" text-anchor="middle" x="272.75" y="-151.55" font-family="Arial" font-size="11.00" fill="white">(20+ Built&#45;in</text>
<text xml:space="preserve" text-anchor="middle" x="272.75" y="-138.05" font-family="Arial" font-size="11.00" fill="white">Tools)</text>
</g>
<!-- core_engine&#45;&gt;tool_system -->
<g id="edge5" class="edge">
<title>core_engine&#45;&gt;tool_system</title>
<path fill="none" stroke="#ff9800" stroke-width="2" d="M395.95,-250.5C344.6,-250.5 272.75,-250.5 272.75,-250.5 272.75,-250.5 272.75,-192.81 272.75,-192.81"/>
<polygon fill="#ff9800" stroke="#ff9800" stroke-width="2" points="276.25,-192.81 272.75,-182.81 269.25,-192.81 276.25,-192.81"/>
</g>
<!-- mcp_hub -->
<g id="node8" class="node">
<title>mcp_hub</title>
<path fill="#607d8b" stroke="black" d="M254.62,-73C254.62,-73 198.88,-73 198.88,-73 192.88,-73 186.88,-67 186.88,-61 186.88,-61 186.88,-36.5 186.88,-36.5 186.88,-30.5 192.88,-24.5 198.88,-24.5 198.88,-24.5 254.62,-24.5 254.62,-24.5 260.62,-24.5 266.62,-30.5 266.62,-36.5 266.62,-36.5 266.62,-61 266.62,-61 266.62,-67 260.62,-73 254.62,-73"/>
<text xml:space="preserve" text-anchor="middle" x="226.75" y="-58.55" font-family="Arial" font-size="11.00" fill="white">MCP Hub</text>
<text xml:space="preserve" text-anchor="middle" x="226.75" y="-45.05" font-family="Arial" font-size="11.00" fill="white">(External</text>
<text xml:space="preserve" text-anchor="middle" x="226.75" y="-31.55" font-family="Arial" font-size="11.00" fill="white">Tool Servers)</text>
</g>
<!-- core_engine&#45;&gt;mcp_hub -->
<g id="edge6" class="edge">
<title>core_engine&#45;&gt;mcp_hub</title>
<path fill="none" stroke="#607d8b" stroke-width="1.5" stroke-dasharray="5,2" d="M395.64,-262.5C326.36,-262.5 211.19,-262.5 211.19,-262.5 211.19,-262.5 211.19,-85.54 211.19,-85.54"/>
<polygon fill="#607d8b" stroke="#607d8b" stroke-width="1.5" points="214.69,-85.54 211.19,-75.54 207.69,-85.54 214.69,-85.54"/>
</g>
<!-- skills_mgr -->
<g id="node9" class="node">
<title>skills_mgr</title>
<path fill="#607d8b" stroke="black" d="M431.25,-179.5C431.25,-179.5 358.25,-179.5 358.25,-179.5 352.25,-179.5 346.25,-173.5 346.25,-167.5 346.25,-167.5 346.25,-143 346.25,-143 346.25,-137 352.25,-131 358.25,-131 358.25,-131 431.25,-131 431.25,-131 437.25,-131 443.25,-137 443.25,-143 443.25,-143 443.25,-167.5 443.25,-167.5 443.25,-173.5 437.25,-179.5 431.25,-179.5"/>
<text xml:space="preserve" text-anchor="middle" x="394.75" y="-165.05" font-family="Arial" font-size="11.00" fill="white">Skills Manager</text>
<text xml:space="preserve" text-anchor="middle" x="394.75" y="-151.55" font-family="Arial" font-size="11.00" fill="white">(Extensible</text>
<text xml:space="preserve" text-anchor="middle" x="394.75" y="-138.05" font-family="Arial" font-size="11.00" fill="white">Skill Framework)</text>
</g>
<!-- core_engine&#45;&gt;skills_mgr -->
<g id="edge7" class="edge">
<title>core_engine&#45;&gt;skills_mgr</title>
<path fill="none" stroke="#607d8b" stroke-width="1.5" stroke-dasharray="5,2" d="M419.62,-237.1C419.62,-237.1 419.62,-191.98 419.62,-191.98"/>
<polygon fill="#607d8b" stroke="#607d8b" stroke-width="1.5" points="423.13,-191.98 419.63,-181.98 416.13,-191.98 423.13,-191.98"/>
</g>
<!-- code_index -->
<g id="node10" class="node">
<title>code_index</title>
<path fill="#607d8b" stroke="black" d="M442.5,-73C442.5,-73 395,-73 395,-73 389,-73 383,-67 383,-61 383,-61 383,-36.5 383,-36.5 383,-30.5 389,-24.5 395,-24.5 395,-24.5 442.5,-24.5 442.5,-24.5 448.5,-24.5 454.5,-30.5 454.5,-36.5 454.5,-36.5 454.5,-61 454.5,-61 454.5,-67 448.5,-73 442.5,-73"/>
<text xml:space="preserve" text-anchor="middle" x="418.75" y="-58.55" font-family="Arial" font-size="11.00" fill="white">Code Index</text>
<text xml:space="preserve" text-anchor="middle" x="418.75" y="-45.05" font-family="Arial" font-size="11.00" fill="white">(Semantic</text>
<text xml:space="preserve" text-anchor="middle" x="418.75" y="-31.55" font-family="Arial" font-size="11.00" fill="white">Search)</text>
</g>
<!-- core_engine&#45;&gt;code_index -->
<g id="edge8" class="edge">
<title>core_engine&#45;&gt;code_index</title>
<path fill="none" stroke="#607d8b" stroke-width="1.5" stroke-dasharray="5,2" d="M448.88,-237.05C448.88,-237.05 448.88,-85.62 448.88,-85.62"/>
<polygon fill="#607d8b" stroke="#607d8b" stroke-width="1.5" points="452.38,-85.62 448.88,-75.62 445.38,-85.62 452.38,-85.62"/>
</g>
<!-- checkpoints -->
<g id="node11" class="node">
<title>checkpoints</title>
<path fill="#607d8b" stroke="black" d="M635.75,-179.5C635.75,-179.5 565.75,-179.5 565.75,-179.5 559.75,-179.5 553.75,-173.5 553.75,-167.5 553.75,-167.5 553.75,-143 553.75,-143 553.75,-137 559.75,-131 565.75,-131 565.75,-131 635.75,-131 635.75,-131 641.75,-131 647.75,-137 647.75,-143 647.75,-143 647.75,-167.5 647.75,-167.5 647.75,-173.5 641.75,-179.5 635.75,-179.5"/>
<text xml:space="preserve" text-anchor="middle" x="600.75" y="-165.05" font-family="Arial" font-size="11.00" fill="white">Checkpoints</text>
<text xml:space="preserve" text-anchor="middle" x="600.75" y="-151.55" font-family="Arial" font-size="11.00" fill="white">(Version Control</text>
<text xml:space="preserve" text-anchor="middle" x="600.75" y="-138.05" font-family="Arial" font-size="11.00" fill="white">for AI Changes)</text>
</g>
<!-- core_engine&#45;&gt;checkpoints -->
<g id="edge9" class="edge">
<title>core_engine&#45;&gt;checkpoints</title>
<path fill="none" stroke="#607d8b" stroke-width="1.5" stroke-dasharray="5,2" d="M476,-237.16C476,-205.39 476,-155.5 476,-155.5 476,-155.5 541.32,-155.5 541.32,-155.5"/>
<polygon fill="#607d8b" stroke="#607d8b" stroke-width="1.5" points="541.32,-159 551.32,-155.5 541.32,-152 541.32,-159"/>
</g>
<!-- llm_providers -->
<g id="node12" class="node">
<title>llm_providers</title>
<path fill="#9c27b0" stroke="black" d="M763.62,-179.5C763.62,-179.5 695.88,-179.5 695.88,-179.5 689.88,-179.5 683.88,-173.5 683.88,-167.5 683.88,-167.5 683.88,-143 683.88,-143 683.88,-137 689.88,-131 695.88,-131 695.88,-131 763.62,-131 763.62,-131 769.62,-131 775.62,-137 775.62,-143 775.62,-143 775.62,-167.5 775.62,-167.5 775.62,-173.5 769.62,-179.5 763.62,-179.5"/>
<text xml:space="preserve" text-anchor="middle" x="729.75" y="-165.05" font-family="Arial" font-size="11.00" fill="white">LLM Providers</text>
<text xml:space="preserve" text-anchor="middle" x="729.75" y="-151.55" font-family="Arial" font-size="11.00" fill="white">(Claude | GPT |</text>
<text xml:space="preserve" text-anchor="middle" x="729.75" y="-138.05" font-family="Arial" font-size="11.00" fill="white">Gemini | Local)</text>
</g>
<!-- core_engine&#45;&gt;llm_providers -->
<g id="edge10" class="edge">
<title>core_engine&#45;&gt;llm_providers</title>
<path fill="none" stroke="#9c27b0" stroke-width="2" d="M498,-254.5C579.55,-254.5 729.75,-254.5 729.75,-254.5 729.75,-254.5 729.75,-192.81 729.75,-192.81"/>
<polygon fill="#9c27b0" stroke="#9c27b0" stroke-width="2" points="733.25,-192.81 729.75,-182.81 726.25,-192.81 733.25,-192.81"/>
</g>
<!-- context_mgr -->
<g id="node13" class="node">
<title>context_mgr</title>
<path fill="#9c27b0" stroke="black" d="M924.12,-179.5C924.12,-179.5 823.38,-179.5 823.38,-179.5 817.38,-179.5 811.38,-173.5 811.38,-167.5 811.38,-167.5 811.38,-143 811.38,-143 811.38,-137 817.38,-131 823.38,-131 823.38,-131 924.12,-131 924.12,-131 930.12,-131 936.12,-137 936.12,-143 936.12,-143 936.12,-167.5 936.12,-167.5 936.12,-173.5 930.12,-179.5 924.12,-179.5"/>
<text xml:space="preserve" text-anchor="middle" x="873.75" y="-165.05" font-family="Arial" font-size="11.00" fill="white">Context</text>
<text xml:space="preserve" text-anchor="middle" x="873.75" y="-151.55" font-family="Arial" font-size="11.00" fill="white">Management</text>
<text xml:space="preserve" text-anchor="middle" x="873.75" y="-138.05" font-family="Arial" font-size="11.00" fill="white">(Window + Condense)</text>
</g>
<!-- core_engine&#45;&gt;context_mgr -->
<g id="edge11" class="edge">
<title>core_engine&#45;&gt;context_mgr</title>
<path fill="none" stroke="#9c27b0" stroke-width="1.5" stroke-dasharray="5,2" d="M497.83,-271.5C611.17,-271.5 873.75,-271.5 873.75,-271.5 873.75,-271.5 873.75,-192.17 873.75,-192.17"/>
<polygon fill="#9c27b0" stroke="#9c27b0" stroke-width="1.5" points="877.25,-192.17 873.75,-182.17 870.25,-192.17 877.25,-192.17"/>
</g>
<!-- tool_system&#45;&gt;mcp_hub -->
<g id="edge12" class="edge">
<title>tool_system&#45;&gt;mcp_hub</title>
<path fill="none" stroke="#ff9800" stroke-width="1.5" d="M251.06,-130.55C251.06,-130.55 251.06,-85.59 251.06,-85.59"/>
<polygon fill="#ff9800" stroke="#ff9800" stroke-width="1.5" points="254.56,-85.59 251.06,-75.59 247.56,-85.59 254.56,-85.59"/>
<text xml:space="preserve" text-anchor="middle" x="219.94" y="-111.27" font-family="Times New Roman,serif" font-size="14.00">MCP Tools</text>
</g>
<!-- tool_system&#45;&gt;code_index -->
<g id="edge13" class="edge">
<title>tool_system&#45;&gt;code_index</title>
<path fill="none" stroke="#ff9800" stroke-width="1.5" d="M288.31,-130.76C288.31,-99.24 288.31,-48.5 288.31,-48.5 288.31,-48.5 370.49,-48.5 370.49,-48.5"/>
<polygon fill="#ff9800" stroke="#ff9800" stroke-width="1.5" points="370.49,-52 380.49,-48.5 370.49,-45 370.49,-52"/>
<text xml:space="preserve" text-anchor="middle" x="306.69" y="-51.74" font-family="Times New Roman,serif" font-size="14.00">Search</text>
</g>
<!-- services_label -->
<g id="node7" class="node">
<title>services_label</title>
<text xml:space="preserve" text-anchor="middle" x="587.75" y="-547.83" font-family="Arial Bold" font-size="14.00" fill="#607d8b">Services Layer</text>
</g>
</g>
</svg>
