<?xml version="1.0" encoding="UTF-8" standalone="no"?>
<!DOCTYPE svg PUBLIC "-//W3C//DTD SVG 1.1//EN"
 "http://www.w3.org/Graphics/SVG/1.1/DTD/svg11.dtd">
<!-- Generated by graphviz version 14.1.2 (0)
 -->
<!-- Title: roo_code_comparison Pages: 1 -->
<svg width="336pt" height="531pt"
 viewBox="0.00 0.00 336.00 531.00" xmlns="http://www.w3.org/2000/svg" xmlns:xlink="http://www.w3.org/1999/xlink">
<style>
<!-- White text halo for edge label readability -->
text { paint-order: stroke; stroke: #ffffff; stroke-width: 3px; stroke-linejoin: round; fill: #1a1a2e; }
</style>
<g id="graph0" class="graph" transform="scale(1 1) rotate(0) translate(4 527)">
<title>roo_code_comparison</title>
<polygon fill="white" stroke="none" points="-4,4 -4,-527 332,-527 332,4 -4,4"/>
<text xml:space="preserve" text-anchor="middle" x="164" y="-7.2" font-family="Times New Roman,serif" font-size="14.00">Roo Code &#45; Feature Comparison vs AI Coding Assistants</text>
<!-- multi_mode -->
<g id="node1" class="node">
<title>multi_mode</title>
<path fill="#2196f3" stroke="black" d="M118.25,-523C118.25,-523 64,-523 64,-523 58,-523 52,-517 52,-511 52,-511 52,-498.5 52,-498.5 52,-492.5 58,-486.5 64,-486.5 64,-486.5 118.25,-486.5 118.25,-486.5 124.25,-486.5 130.25,-492.5 130.25,-498.5 130.25,-498.5 130.25,-511 130.25,-511 130.25,-517 124.25,-523 118.25,-523"/>
<text xml:space="preserve" text-anchor="middle" x="91.12" y="-507.6" font-family="Arial Bold" font-size="12.00" fill="white">Multi&#45;Mode</text>
<text xml:space="preserve" text-anchor="middle" x="91.12" y="-493.35" font-family="Arial Bold" font-size="12.00" fill="white">Agents</text>
</g>
<!-- roo -->
<g id="node9" class="node">
<title>roo</title>
<path fill="#4caf50" stroke="black" d="M265.88,-291.75C265.88,-291.75 216.12,-291.75 216.12,-291.75 210.12,-291.75 204.12,-285.75 204.12,-279.75 204.12,-279.75 204.12,-267.75 204.12,-267.75 204.12,-261.75 210.12,-255.75 216.12,-255.75 216.12,-255.75 265.88,-255.75 265.88,-255.75 271.88,-255.75 277.88,-261.75 277.88,-267.75 277.88,-267.75 277.88,-279.75 277.88,-279.75 277.88,-285.75 271.88,-291.75 265.88,-291.75"/>
<text xml:space="preserve" text-anchor="middle" x="241" y="-269.48" font-family="Arial Bold" font-size="12.00" fill="white">Roo Code</text>
</g>
<!-- multi_mode&#45;&gt;roo -->
<g id="edge1" class="edge">
<title>multi_mode&#45;&gt;roo</title>
<path fill="none" stroke="#4caf50" stroke-width="2" d="M130.67,-505.88C165.55,-505.88 210.88,-505.88 210.88,-505.88 210.88,-505.88 210.88,-304.99 210.88,-304.99"/>
<polygon fill="#4caf50" stroke="#4caf50" stroke-width="2" points="214.38,-304.99 210.88,-294.99 207.38,-304.99 214.38,-304.99"/>
</g>
<!-- cursor -->
<g id="node11" class="node">
<title>cursor</title>
<path fill="#9c27b0" stroke="black" d="M256.88,-423.75C256.88,-423.75 225.12,-423.75 225.12,-423.75 219.12,-423.75 213.12,-417.75 213.12,-411.75 213.12,-411.75 213.12,-399.75 213.12,-399.75 213.12,-393.75 219.12,-387.75 225.12,-387.75 225.12,-387.75 256.88,-387.75 256.88,-387.75 262.88,-387.75 268.88,-393.75 268.88,-399.75 268.88,-399.75 268.88,-411.75 268.88,-411.75 268.88,-417.75 262.88,-423.75 256.88,-423.75"/>
<text xml:space="preserve" text-anchor="middle" x="241" y="-401.48" font-family="Arial Bold" font-size="12.00" fill="white">Cursor</text>
</g>
<!-- multi_mode&#45;&gt;cursor -->
<g id="edge13" class="edge">
<title>multi_mode&#45;&gt;cursor</title>
<path fill="none" stroke="#9c27b0" stroke-width="2" d="M130.65,-497.31C158.88,-497.31 191.88,-497.31 191.88,-497.31 191.88,-497.31 191.88,-410.67 191.88,-410.67 191.88,-410.67 199.68,-410.67 199.68,-410.67"/>
<polygon fill="#9c27b0" stroke="#9c27b0" stroke-width="2" points="199.68,-414.17 209.68,-410.67 199.68,-407.17 199.68,-414.17"/>
</g>
<!-- copilot -->
<g id="node12" class="node">
<title>copilot</title>
<path fill="#ff9800" stroke="black" d="M257.62,-488.75C257.62,-488.75 224.38,-488.75 224.38,-488.75 218.38,-488.75 212.38,-482.75 212.38,-476.75 212.38,-476.75 212.38,-464.75 212.38,-464.75 212.38,-458.75 218.38,-452.75 224.38,-452.75 224.38,-452.75 257.62,-452.75 257.62,-452.75 263.62,-452.75 269.62,-458.75 269.62,-464.75 269.62,-464.75 269.62,-476.75 269.62,-476.75 269.62,-482.75 263.62,-488.75 257.62,-488.75"/>
<text xml:space="preserve" text-anchor="middle" x="241" y="-466.48" font-family="Arial Bold" font-size="12.00" fill="white">Copilot</text>
</g>
<!-- multi_mode&#45;&gt;copilot -->
<g id="edge16" class="edge">
<title>multi_mode&#45;&gt;copilot</title>
<path fill="none" stroke="#ff9800" stroke-width="2" d="M130.47,-514.44C174.84,-514.44 240.88,-514.44 240.88,-514.44 240.88,-514.44 240.88,-502.05 240.88,-502.05"/>
<polygon fill="#ff9800" stroke="#ff9800" stroke-width="2" points="244.38,-502.05 240.88,-492.05 237.38,-502.05 244.38,-502.05"/>
</g>
<!-- mcp -->
<g id="node2" class="node">
<title>mcp</title>
<path fill="#2196f3" stroke="black" d="M117.88,-193C117.88,-193 64.38,-193 64.38,-193 58.38,-193 52.38,-187 52.38,-181 52.38,-181 52.38,-168.5 52.38,-168.5 52.38,-162.5 58.38,-156.5 64.38,-156.5 64.38,-156.5 117.88,-156.5 117.88,-156.5 123.88,-156.5 129.88,-162.5 129.88,-168.5 129.88,-168.5 129.88,-181 129.88,-181 129.88,-187 123.88,-193 117.88,-193"/>
<text xml:space="preserve" text-anchor="middle" x="91.12" y="-177.6" font-family="Arial Bold" font-size="12.00" fill="white">MCP</text>
<text xml:space="preserve" text-anchor="middle" x="91.12" y="-163.35" font-family="Arial Bold" font-size="12.00" fill="white">Integration</text>
</g>
<!-- mcp&#45;&gt;roo -->
<g id="edge2" class="edge">
<title>mcp&#45;&gt;roo</title>
<path fill="none" stroke="#4caf50" stroke-width="2" d="M130.29,-185.55C163.54,-185.55 205.88,-185.55 205.88,-185.55 205.88,-185.55 205.88,-242.45 205.88,-242.45"/>
<polygon fill="#4caf50" stroke="#4caf50" stroke-width="2" points="202.38,-242.45 205.88,-252.45 209.38,-242.45 202.38,-242.45"/>
</g>
<!-- cline -->
<g id="node10" class="node">
<title>cline</title>
<path fill="#2196f3" stroke="black" d="M256,-192.75C256,-192.75 226,-192.75 226,-192.75 220,-192.75 214,-186.75 214,-180.75 214,-180.75 214,-168.75 214,-168.75 214,-162.75 220,-156.75 226,-156.75 226,-156.75 256,-156.75 256,-156.75 262,-156.75 268,-162.75 268,-168.75 268,-168.75 268,-180.75 268,-180.75 268,-186.75 262,-192.75 256,-192.75"/>
<text xml:space="preserve" text-anchor="middle" x="241" y="-170.47" font-family="Arial Bold" font-size="12.00" fill="white">Cline</text>
</g>
<!-- mcp&#45;&gt;cline -->
<g id="edge9" class="edge">
<title>mcp&#45;&gt;cline</title>
<path fill="none" stroke="#2196f3" stroke-width="2" d="M130.11,-178.35C130.11,-178.35 200.53,-178.35 200.53,-178.35"/>
<polygon fill="#2196f3" stroke="#2196f3" stroke-width="2" points="200.53,-181.85 210.53,-178.35 200.53,-174.85 200.53,-181.85"/>
</g>
<!-- custom_mode -->
<g id="node3" class="node">
<title>custom_mode</title>
<path fill="#2196f3" stroke="black" d="M109.62,-391C109.62,-391 72.62,-391 72.62,-391 66.62,-391 60.62,-385 60.62,-379 60.62,-379 60.62,-366.5 60.62,-366.5 60.62,-360.5 66.62,-354.5 72.62,-354.5 72.62,-354.5 109.62,-354.5 109.62,-354.5 115.62,-354.5 121.62,-360.5 121.62,-366.5 121.62,-366.5 121.62,-379 121.62,-379 121.62,-385 115.62,-391 109.62,-391"/>
<text xml:space="preserve" text-anchor="middle" x="91.12" y="-375.6" font-family="Arial Bold" font-size="12.00" fill="white">Custom</text>
<text xml:space="preserve" text-anchor="middle" x="91.12" y="-361.35" font-family="Arial Bold" font-size="12.00" fill="white">Modes</text>
</g>
<!-- custom_mode&#45;&gt;roo -->
<g id="edge3" class="edge">
<title>custom_mode&#45;&gt;roo</title>
<path fill="none" stroke="#4caf50" stroke-width="2" d="M122.11,-371.12C156.69,-371.12 207.88,-371.12 207.88,-371.12 207.88,-371.12 207.88,-305.09 207.88,-305.09"/>
<polygon fill="#4caf50" stroke="#4caf50" stroke-width="2" points="211.38,-305.09 207.88,-295.09 204.38,-305.09 211.38,-305.09"/>
</g>
<!-- checkpoint -->
<g id="node4" class="node">
<title>checkpoint</title>
<path fill="#2196f3" stroke="black" d="M120.12,-127C120.12,-127 62.12,-127 62.12,-127 56.12,-127 50.12,-121 50.12,-115 50.12,-115 50.12,-102.5 50.12,-102.5 50.12,-96.5 56.12,-90.5 62.12,-90.5 62.12,-90.5 120.12,-90.5 120.12,-90.5 126.12,-90.5 132.12,-96.5 132.12,-102.5 132.12,-102.5 132.12,-115 132.12,-115 132.12,-121 126.12,-127 120.12,-127"/>
<text xml:space="preserve" text-anchor="middle" x="91.12" y="-111.6" font-family="Arial Bold" font-size="12.00" fill="white">Checkpoint</text>
<text xml:space="preserve" text-anchor="middle" x="91.12" y="-97.35" font-family="Arial Bold" font-size="12.00" fill="white">Rollback</text>
</g>
<!-- checkpoint&#45;&gt;roo -->
<g id="edge4" class="edge">
<title>checkpoint&#45;&gt;roo</title>
<path fill="none" stroke="#4caf50" stroke-width="2" d="M132.62,-119.55C166.17,-119.55 207.88,-119.55 207.88,-119.55 207.88,-119.55 207.88,-242.43 207.88,-242.43"/>
<polygon fill="#4caf50" stroke="#4caf50" stroke-width="2" points="204.38,-242.43 207.88,-252.43 211.38,-242.43 204.38,-242.43"/>
</g>
<!-- checkpoint&#45;&gt;cline -->
<g id="edge10" class="edge">
<title>checkpoint&#45;&gt;cline</title>
<path fill="none" stroke="#2196f3" stroke-width="2" d="M132.34,-112.35C166.98,-112.35 210.88,-112.35 210.88,-112.35 210.88,-112.35 210.88,-163.95 210.88,-163.95 210.88,-163.95 211.15,-163.95 211.15,-163.95"/>
<polygon fill="#2196f3" stroke="#2196f3" stroke-width="2" points="200.63,-167.45 210.63,-163.95 200.63,-160.45 200.63,-167.45"/>
</g>
<!-- aider -->
<g id="node13" class="node">
<title>aider</title>
<path fill="#607d8b" stroke="black" d="M256,-126.75C256,-126.75 226,-126.75 226,-126.75 220,-126.75 214,-120.75 214,-114.75 214,-114.75 214,-102.75 214,-102.75 214,-96.75 220,-90.75 226,-90.75 226,-90.75 256,-90.75 256,-90.75 262,-90.75 268,-96.75 268,-102.75 268,-102.75 268,-114.75 268,-114.75 268,-120.75 262,-126.75 256,-126.75"/>
<text xml:space="preserve" text-anchor="middle" x="241" y="-104.47" font-family="Arial Bold" font-size="12.00" fill="white">Aider</text>
</g>
<!-- checkpoint&#45;&gt;aider -->
<g id="edge21" class="edge">
<title>checkpoint&#45;&gt;aider</title>
<path fill="none" stroke="#607d8b" stroke-width="2" d="M132.48,-97.95C132.48,-97.95 200.48,-97.95 200.48,-97.95"/>
<polygon fill="#607d8b" stroke="#607d8b" stroke-width="2" points="200.48,-101.45 210.48,-97.95 200.48,-94.45 200.48,-101.45"/>
</g>
<!-- code_index -->
<g id="node5" class="node">
<title>code_index</title>
<path fill="#2196f3" stroke="black" d="M116.38,-457C116.38,-457 65.88,-457 65.88,-457 59.88,-457 53.88,-451 53.88,-445 53.88,-445 53.88,-432.5 53.88,-432.5 53.88,-426.5 59.88,-420.5 65.88,-420.5 65.88,-420.5 116.38,-420.5 116.38,-420.5 122.38,-420.5 128.38,-426.5 128.38,-432.5 128.38,-432.5 128.38,-445 128.38,-445 128.38,-451 122.38,-457 116.38,-457"/>
<text xml:space="preserve" text-anchor="middle" x="91.12" y="-441.6" font-family="Arial Bold" font-size="12.00" fill="white">Codebase</text>
<text xml:space="preserve" text-anchor="middle" x="91.12" y="-427.35" font-family="Arial Bold" font-size="12.00" fill="white">Indexing</text>
</g>
<!-- code_index&#45;&gt;roo -->
<g id="edge5" class="edge">
<title>code_index&#45;&gt;roo</title>
<path fill="none" stroke="#4caf50" stroke-width="2" d="M128.71,-431C163.17,-431 208.88,-431 208.88,-431 208.88,-431 208.88,-305.12 208.88,-305.12"/>
<polygon fill="#4caf50" stroke="#4caf50" stroke-width="2" points="212.38,-305.12 208.88,-295.12 205.38,-305.12 212.38,-305.12"/>
</g>
<!-- code_index&#45;&gt;cursor -->
<g id="edge14" class="edge">
<title>code_index&#45;&gt;cursor</title>
<path fill="none" stroke="#9c27b0" stroke-width="2" d="M128.75,-438.25C175.69,-438.25 249.88,-438.25 249.88,-438.25 249.88,-438.25 249.88,-436.82 249.88,-436.82"/>
<polygon fill="#9c27b0" stroke="#9c27b0" stroke-width="2" points="253.38,-436.93 249.88,-426.93 246.38,-436.93 253.38,-436.93"/>
</g>
<!-- code_index&#45;&gt;copilot -->
<g id="edge17" class="edge">
<title>code_index&#45;&gt;copilot</title>
<path fill="none" stroke="#ff9800" stroke-width="2" d="M128.84,-445.5C170.54,-445.5 231.88,-445.5 231.88,-445.5 231.88,-445.5 231.88,-446.19 231.88,-446.19"/>
<polygon fill="#ff9800" stroke="#ff9800" stroke-width="2" points="228.38,-439.37 231.88,-449.37 235.38,-439.37 228.38,-439.37"/>
</g>
<!-- skills -->
<g id="node6" class="node">
<title>skills</title>
<path fill="#2196f3" stroke="black" d="M119,-325C119,-325 63.25,-325 63.25,-325 57.25,-325 51.25,-319 51.25,-313 51.25,-313 51.25,-300.5 51.25,-300.5 51.25,-294.5 57.25,-288.5 63.25,-288.5 63.25,-288.5 119,-288.5 119,-288.5 125,-288.5 131,-294.5 131,-300.5 131,-300.5 131,-313 131,-313 131,-319 125,-325 119,-325"/>
<text xml:space="preserve" text-anchor="middle" x="91.12" y="-309.6" font-family="Arial Bold" font-size="12.00" fill="white">Skills</text>
<text xml:space="preserve" text-anchor="middle" x="91.12" y="-295.35" font-family="Arial Bold" font-size="12.00" fill="white">Framework</text>
</g>
<!-- skills&#45;&gt;roo -->
<g id="edge6" class="edge">
<title>skills&#45;&gt;roo</title>
<path fill="none" stroke="#4caf50" stroke-width="2" d="M131.26,-308.38C164.35,-308.38 205.88,-308.38 205.88,-308.38 205.88,-308.38 205.88,-304.9 205.88,-304.9"/>
<polygon fill="#4caf50" stroke="#4caf50" stroke-width="2" points="209.38,-304.9 205.88,-294.9 202.38,-304.9 209.38,-304.9"/>
</g>
<!-- open_source -->
<g id="node7" class="node">
<title>open_source</title>
<path fill="#2196f3" stroke="black" d="M107.75,-61C107.75,-61 74.5,-61 74.5,-61 68.5,-61 62.5,-55 62.5,-49 62.5,-49 62.5,-36.5 62.5,-36.5 62.5,-30.5 68.5,-24.5 74.5,-24.5 74.5,-24.5 107.75,-24.5 107.75,-24.5 113.75,-24.5 119.75,-30.5 119.75,-36.5 119.75,-36.5 119.75,-49 119.75,-49 119.75,-55 113.75,-61 107.75,-61"/>
<text xml:space="preserve" text-anchor="middle" x="91.12" y="-45.6" font-family="Arial Bold" font-size="12.00" fill="white">Open</text>
<text xml:space="preserve" text-anchor="middle" x="91.12" y="-31.35" font-family="Arial Bold" font-size="12.00" fill="white">Source</text>
</g>
<!-- open_source&#45;&gt;roo -->
<g id="edge7" class="edge">
<title>open_source&#45;&gt;roo</title>
<path fill="none" stroke="#4caf50" stroke-width="2" d="M120.23,-42.75C155.1,-42.75 208.88,-42.75 208.88,-42.75 208.88,-42.75 208.88,-242.6 208.88,-242.6"/>
<polygon fill="#4caf50" stroke="#4caf50" stroke-width="2" points="205.38,-242.6 208.88,-252.6 212.38,-242.6 205.38,-242.6"/>
</g>
<!-- open_source&#45;&gt;cline -->
<g id="edge11" class="edge">
<title>open_source&#45;&gt;cline</title>
<path fill="none" stroke="#2196f3" stroke-width="2" d="M120.14,-51.88C141.88,-51.88 167.88,-51.88 167.88,-51.88 167.88,-51.88 167.88,-171.15 167.88,-171.15 167.88,-171.15 200.74,-171.15 200.74,-171.15"/>
<polygon fill="#2196f3" stroke="#2196f3" stroke-width="2" points="200.74,-174.65 210.74,-171.15 200.74,-167.65 200.74,-174.65"/>
</g>
<!-- open_source&#45;&gt;aider -->
<g id="edge19" class="edge">
<title>open_source&#45;&gt;aider</title>
<path fill="none" stroke="#607d8b" stroke-width="2" d="M120,-33.62C163.51,-33.62 240.88,-33.62 240.88,-33.62 240.88,-33.62 240.88,-77.54 240.88,-77.54"/>
<polygon fill="#607d8b" stroke="#607d8b" stroke-width="2" points="237.38,-77.54 240.88,-87.54 244.38,-77.54 237.38,-77.54"/>
</g>
<!-- multi_provider -->
<g id="node8" class="node">
<title>multi_provider</title>
<path fill="#2196f3" stroke="black" d="M114.88,-259C114.88,-259 67.38,-259 67.38,-259 61.38,-259 55.38,-253 55.38,-247 55.38,-247 55.38,-234.5 55.38,-234.5 55.38,-228.5 61.38,-222.5 67.38,-222.5 67.38,-222.5 114.88,-222.5 114.88,-222.5 120.88,-222.5 126.88,-228.5 126.88,-234.5 126.88,-234.5 126.88,-247 126.88,-247 126.88,-253 120.88,-259 114.88,-259"/>
<text xml:space="preserve" text-anchor="middle" x="91.12" y="-243.6" font-family="Arial Bold" font-size="12.00" fill="white">Multi&#45;LLM</text>
<text xml:space="preserve" text-anchor="middle" x="91.12" y="-229.35" font-family="Arial Bold" font-size="12.00" fill="white">Provider</text>
</g>
<!-- multi_provider&#45;&gt;roo -->
<g id="edge8" class="edge">
<title>multi_provider&#45;&gt;roo</title>
<path fill="none" stroke="#4caf50" stroke-width="2" d="M127.35,-239.12C162.92,-239.12 211.88,-239.12 211.88,-239.12 211.88,-239.12 211.88,-242.6 211.88,-242.6"/>
<polygon fill="#4caf50" stroke="#4caf50" stroke-width="2" points="208.38,-242.6 211.88,-252.6 215.38,-242.6 208.38,-242.6"/>
</g>
<!-- multi_provider&#45;&gt;cline -->
<g id="edge12" class="edge">
<title>multi_provider&#45;&gt;cline</title>
<path fill="none" stroke="#2196f3" stroke-width="2" d="M126.99,-233.58C171.3,-233.58 240.88,-233.58 240.88,-233.58 240.88,-233.58 240.88,-206.07 240.88,-206.07"/>
<polygon fill="#2196f3" stroke="#2196f3" stroke-width="2" points="244.38,-206.07 240.88,-196.07 237.38,-206.07 244.38,-206.07"/>
</g>
<!-- multi_provider&#45;&gt;cursor -->
<g id="edge15" class="edge">
<title>multi_provider&#45;&gt;cursor</title>
<path fill="none" stroke="#9c27b0" stroke-width="2" d="M127.29,-244.67C142.12,-244.67 155.88,-244.67 155.88,-244.67 155.88,-244.67 155.88,-400.83 155.88,-400.83 155.88,-400.83 199.63,-400.83 199.63,-400.83"/>
<polygon fill="#9c27b0" stroke="#9c27b0" stroke-width="2" points="199.63,-404.33 209.63,-400.83 199.63,-397.33 199.63,-404.33"/>
</g>
<!-- multi_provider&#45;&gt;copilot -->
<g id="edge18" class="edge">
<title>multi_provider&#45;&gt;copilot</title>
<path fill="none" stroke="#ff9800" stroke-width="2" d="M127.18,-250.21C136.46,-250.21 143.88,-250.21 143.88,-250.21 143.88,-250.21 143.88,-471.75 143.88,-471.75 143.88,-471.75 199.1,-471.75 199.1,-471.75"/>
<polygon fill="#ff9800" stroke="#ff9800" stroke-width="2" points="199.1,-475.25 209.1,-471.75 199.1,-468.25 199.1,-475.25"/>
</g>
<!-- multi_provider&#45;&gt;aider -->
<g id="edge20" class="edge">
<title>multi_provider&#45;&gt;aider</title>
<path fill="none" stroke="#607d8b" stroke-width="2" d="M127.22,-228.04C151.79,-228.04 179.88,-228.04 179.88,-228.04 179.88,-228.04 179.88,-105.15 179.88,-105.15 179.88,-105.15 200.63,-105.15 200.63,-105.15"/>
<polygon fill="#607d8b" stroke="#607d8b" stroke-width="2" points="200.63,-108.65 210.63,-105.15 200.63,-101.65 200.63,-108.65"/>
</g>
</g>
</svg>
