<?xml version="1.0" encoding="UTF-8" standalone="no"?>
<!DOCTYPE svg PUBLIC "-//W3C//DTD SVG 1.1//EN"
 "http://www.w3.org/Graphics/SVG/1.1/DTD/svg11.dtd">
<!-- Generated by graphviz version 14.1.2 (0)
 -->
<!-- Title: swarm_forge_features Pages: 1 -->
<svg width="2338pt" height="299pt"
 viewBox="0.00 0.00 2338.00 299.00" xmlns="http://www.w3.org/2000/svg" xmlns:xlink="http://www.w3.org/1999/xlink">
<g id="graph0" class="graph" transform="scale(1 1) rotate(0) translate(4 294.9)">
<title>swarm_forge_features</title>
<text xml:space="preserve" text-anchor="middle" x="1165" y="-7.2" font-family="Times New Roman,serif" font-size="14.00">SwarmForge Features</text>
<!-- hub -->
<g id="node1" class="node">
<title>hub</title>
<path fill="#2196f3" stroke="black" d="M1261,-290.9C1261,-290.9 1069,-290.9 1069,-290.9 1063,-290.9 1057,-284.9 1057,-278.9 1057,-278.9 1057,-194.9 1057,-194.9 1057,-188.9 1063,-182.9 1069,-182.9 1069,-182.9 1261,-182.9 1261,-182.9 1267,-182.9 1273,-188.9 1273,-194.9 1273,-194.9 1273,-278.9 1273,-278.9 1273,-284.9 1267,-290.9 1261,-290.9"/>
<text xml:space="preserve" text-anchor="middle" x="1165" y="-231.47" font-family="Arial Bold" font-size="14.00" fill="white">SwarmForge</text>
</g>
<!-- config -->
<g id="node2" class="node">
<title>config</title>
<path fill="#4caf50" stroke="black" d="M204,-110.9C204,-110.9 12,-110.9 12,-110.9 6,-110.9 0,-104.9 0,-98.9 0,-98.9 0,-36.5 0,-36.5 0,-30.5 6,-24.5 12,-24.5 12,-24.5 204,-24.5 204,-24.5 210,-24.5 216,-30.5 216,-36.5 216,-36.5 216,-98.9 216,-98.9 216,-104.9 210,-110.9 204,-110.9"/>
<text xml:space="preserve" text-anchor="middle" x="108" y="-70.75" font-family="Arial" font-size="11.00" fill="white">Config&#45;Driven</text>
<text xml:space="preserve" text-anchor="middle" x="108" y="-57.25" font-family="Arial" font-size="11.00" fill="white">Topology</text>
</g>
<!-- hub&#45;&gt;config -->
<g id="edge1" class="edge">
<title>hub&#45;&gt;config</title>
<path fill="none" stroke="#2196f3" stroke-width="2" d="M1056.85,-263.5C787.46,-263.5 108,-263.5 108,-263.5 108,-263.5 108,-124.18 108,-124.18"/>
<polygon fill="#2196f3" stroke="#2196f3" stroke-width="2" points="111.5,-124.18 108,-114.18 104.5,-124.18 111.5,-124.18"/>
</g>
<!-- roles -->
<g id="node3" class="node">
<title>roles</title>
<path fill="#009688" stroke="black" d="M506,-110.9C506,-110.9 314,-110.9 314,-110.9 308,-110.9 302,-104.9 302,-98.9 302,-98.9 302,-36.5 302,-36.5 302,-30.5 308,-24.5 314,-24.5 314,-24.5 506,-24.5 506,-24.5 512,-24.5 518,-30.5 518,-36.5 518,-36.5 518,-98.9 518,-98.9 518,-104.9 512,-110.9 506,-110.9"/>
<text xml:space="preserve" text-anchor="middle" x="410" y="-70.75" font-family="Arial" font-size="11.00" fill="white">Project&#45;Local</text>
<text xml:space="preserve" text-anchor="middle" x="410" y="-57.25" font-family="Arial" font-size="11.00" fill="white">Roles</text>
</g>
<!-- hub&#45;&gt;roles -->
<g id="edge2" class="edge">
<title>hub&#45;&gt;roles</title>
<path fill="none" stroke="#2196f3" stroke-width="2" d="M1056.83,-236.5C848.06,-236.5 410,-236.5 410,-236.5 410,-236.5 410,-124.2 410,-124.2"/>
<polygon fill="#2196f3" stroke="#2196f3" stroke-width="2" points="413.5,-124.2 410,-114.2 406.5,-124.2 413.5,-124.2"/>
</g>
<!-- constitution -->
<g id="node4" class="node">
<title>constitution</title>
<path fill="#9c27b0" stroke="black" d="M808,-110.9C808,-110.9 616,-110.9 616,-110.9 610,-110.9 604,-104.9 604,-98.9 604,-98.9 604,-36.5 604,-36.5 604,-30.5 610,-24.5 616,-24.5 616,-24.5 808,-24.5 808,-24.5 814,-24.5 820,-30.5 820,-36.5 820,-36.5 820,-98.9 820,-98.9 820,-104.9 814,-110.9 808,-110.9"/>
<text xml:space="preserve" text-anchor="middle" x="712" y="-70.75" font-family="Arial" font-size="11.00" fill="white">Layered</text>
<text xml:space="preserve" text-anchor="middle" x="712" y="-57.25" font-family="Arial" font-size="11.00" fill="white">Constitution</text>
</g>
<!-- hub&#45;&gt;constitution -->
<g id="edge3" class="edge">
<title>hub&#45;&gt;constitution</title>
<path fill="none" stroke="#2196f3" stroke-width="2" d="M1056.78,-209.5C922.78,-209.5 712,-209.5 712,-209.5 712,-209.5 712,-124.04 712,-124.04"/>
<polygon fill="#2196f3" stroke="#2196f3" stroke-width="2" points="715.5,-124.04 712,-114.04 708.5,-124.04 715.5,-124.04"/>
</g>
<!-- backend -->
<g id="node5" class="node">
<title>backend</title>
<path fill="#ff9800" stroke="black" d="M1110,-110.9C1110,-110.9 918,-110.9 918,-110.9 912,-110.9 906,-104.9 906,-98.9 906,-98.9 906,-36.5 906,-36.5 906,-30.5 912,-24.5 918,-24.5 918,-24.5 1110,-24.5 1110,-24.5 1116,-24.5 1122,-30.5 1122,-36.5 1122,-36.5 1122,-98.9 1122,-98.9 1122,-104.9 1116,-110.9 1110,-110.9"/>
<text xml:space="preserve" text-anchor="middle" x="1014" y="-70.75" font-family="Arial" font-size="11.00" fill="white">Backend Selection</text>
<text xml:space="preserve" text-anchor="middle" x="1014" y="-57.25" font-family="Arial" font-size="11.00" fill="white">Per Role</text>
</g>
<!-- hub&#45;&gt;backend -->
<g id="edge4" class="edge">
<title>hub&#45;&gt;backend</title>
<path fill="none" stroke="#2196f3" stroke-width="2" d="M1089.5,-182.43C1089.5,-182.43 1089.5,-124.38 1089.5,-124.38"/>
<polygon fill="#2196f3" stroke="#2196f3" stroke-width="2" points="1093,-124.38 1089.5,-114.38 1086,-124.38 1093,-124.38"/>
</g>
<!-- observable -->
<g id="node6" class="node">
<title>observable</title>
<path fill="#e91e63" stroke="black" d="M1412,-110.9C1412,-110.9 1220,-110.9 1220,-110.9 1214,-110.9 1208,-104.9 1208,-98.9 1208,-98.9 1208,-36.5 1208,-36.5 1208,-30.5 1214,-24.5 1220,-24.5 1220,-24.5 1412,-24.5 1412,-24.5 1418,-24.5 1424,-30.5 1424,-36.5 1424,-36.5 1424,-98.9 1424,-98.9 1424,-104.9 1418,-110.9 1412,-110.9"/>
<text xml:space="preserve" text-anchor="middle" x="1316" y="-70.75" font-family="Arial" font-size="11.00" fill="white">Observable</text>
<text xml:space="preserve" text-anchor="middle" x="1316" y="-57.25" font-family="Arial" font-size="11.00" fill="white">Swarm</text>
</g>
<!-- hub&#45;&gt;observable -->
<g id="edge5" class="edge">
<title>hub&#45;&gt;observable</title>
<path fill="none" stroke="#2196f3" stroke-width="2" d="M1240.5,-182.43C1240.5,-182.43 1240.5,-124.38 1240.5,-124.38"/>
<polygon fill="#2196f3" stroke="#2196f3" stroke-width="2" points="1244,-124.38 1240.5,-114.38 1237,-124.38 1244,-124.38"/>
</g>
<!-- lightweight -->
<g id="node7" class="node">
<title>lightweight</title>
<path fill="#ffc107" stroke="black" d="M1714,-110.9C1714,-110.9 1522,-110.9 1522,-110.9 1516,-110.9 1510,-104.9 1510,-98.9 1510,-98.9 1510,-36.5 1510,-36.5 1510,-30.5 1516,-24.5 1522,-24.5 1522,-24.5 1714,-24.5 1714,-24.5 1720,-24.5 1726,-30.5 1726,-36.5 1726,-36.5 1726,-98.9 1726,-98.9 1726,-104.9 1720,-110.9 1714,-110.9"/>
<text xml:space="preserve" text-anchor="middle" x="1618" y="-70.75" font-family="Arial" font-size="11.00">Self&#45;Hosted and</text>
<text xml:space="preserve" text-anchor="middle" x="1618" y="-57.25" font-family="Arial" font-size="11.00">Lightweight</text>
</g>
<!-- hub&#45;&gt;lightweight -->
<g id="edge6" class="edge">
<title>hub&#45;&gt;lightweight</title>
<path fill="none" stroke="#2196f3" stroke-width="2" d="M1273.22,-209.5C1407.22,-209.5 1618,-209.5 1618,-209.5 1618,-209.5 1618,-124.04 1618,-124.04"/>
<polygon fill="#2196f3" stroke="#2196f3" stroke-width="2" points="1621.5,-124.04 1618,-114.04 1614.5,-124.04 1621.5,-124.04"/>
</g>
<!-- worktree -->
<g id="node8" class="node">
<title>worktree</title>
<path fill="#e040fb" stroke="black" d="M2016,-110.9C2016,-110.9 1824,-110.9 1824,-110.9 1818,-110.9 1812,-104.9 1812,-98.9 1812,-98.9 1812,-36.5 1812,-36.5 1812,-30.5 1818,-24.5 1824,-24.5 1824,-24.5 2016,-24.5 2016,-24.5 2022,-24.5 2028,-30.5 2028,-36.5 2028,-36.5 2028,-98.9 2028,-98.9 2028,-104.9 2022,-110.9 2016,-110.9"/>
<text xml:space="preserve" text-anchor="middle" x="1920" y="-70.75" font-family="Arial" font-size="11.00" fill="white">Git Worktree</text>
<text xml:space="preserve" text-anchor="middle" x="1920" y="-57.25" font-family="Arial" font-size="11.00" fill="white">Isolation</text>
</g>
<!-- hub&#45;&gt;worktree -->
<g id="edge7" class="edge">
<title>hub&#45;&gt;worktree</title>
<path fill="none" stroke="#2196f3" stroke-width="2" d="M1273.17,-236.5C1481.94,-236.5 1920,-236.5 1920,-236.5 1920,-236.5 1920,-124.2 1920,-124.2"/>
<polygon fill="#2196f3" stroke="#2196f3" stroke-width="2" points="1923.5,-124.2 1920,-114.2 1916.5,-124.2 1923.5,-124.2"/>
</g>
<!-- queueing -->
<g id="node9" class="node">
<title>queueing</title>
<path fill="#f44336" stroke="black" d="M2318,-110.9C2318,-110.9 2126,-110.9 2126,-110.9 2120,-110.9 2114,-104.9 2114,-98.9 2114,-98.9 2114,-36.5 2114,-36.5 2114,-30.5 2120,-24.5 2126,-24.5 2126,-24.5 2318,-24.5 2318,-24.5 2324,-24.5 2330,-30.5 2330,-36.5 2330,-36.5 2330,-98.9 2330,-98.9 2330,-104.9 2324,-110.9 2318,-110.9"/>
<text xml:space="preserve" text-anchor="middle" x="2222" y="-70.75" font-family="Arial" font-size="11.00" fill="white">Message</text>
<text xml:space="preserve" text-anchor="middle" x="2222" y="-57.25" font-family="Arial" font-size="11.00" fill="white">Queueing</text>
</g>
<!-- hub&#45;&gt;queueing -->
<g id="edge8" class="edge">
<title>hub&#45;&gt;queueing</title>
<path fill="none" stroke="#2196f3" stroke-width="2" d="M1273.15,-263.5C1542.54,-263.5 2222,-263.5 2222,-263.5 2222,-263.5 2222,-124.18 2222,-124.18"/>
<polygon fill="#2196f3" stroke="#2196f3" stroke-width="2" points="2225.5,-124.18 2222,-114.18 2218.5,-124.18 2225.5,-124.18"/>
</g>
</g>
</svg>
