<svg width="935pt" height="1144pt"

 viewBox="0.00 0.00 935.00 1144.00" xmlns="http://www.w3.org/2000/svg" xmlns:xlink="http://www.w3.org/1999/xlink">

<g id="graph0" class="graph" transform="scale(1 1) rotate(0) translate(4 1140.3)">

<title>swarm_forge_features</title>

<text xml:space="preserve" text-anchor="middle" x="463.25" y="-7.2" font-family="Times New Roman,serif" font-size="14.00">SwarmForge &#45; Key Features</text>

<g id="node1" class="node">

<title>swarmforge</title>

<path fill="#2196f3" stroke="black" d="M505,-1077.5C505,-1077.5 429.75,-1077.5 429.75,-1077.5 423.75,-1077.5 417.75,-1071.5 417.75,-1065.5 417.75,-1065.5 417.75,-1053.5 417.75,-1053.5 417.75,-1047.5 423.75,-1041.5 429.75,-1041.5 429.75,-1041.5 505,-1041.5 505,-1041.5 511,-1041.5 517,-1047.5 517,-1053.5 517,-1053.5 517,-1065.5 517,-1065.5 517,-1071.5 511,-1077.5 505,-1077.5"/>

<text xml:space="preserve" text-anchor="middle" x="467.38" y="-1054.08" font-family="Arial Bold" font-size="14.00" fill="white">SwarmForge</text>

</g>

<g id="node2" class="node">

<title>config</title>

<path fill="#4caf50" stroke="black" d="M76.75,-602.5C76.75,-602.5 12,-602.5 12,-602.5 6,-602.5 0,-596.5 0,-590.5 0,-590.5 0,-570.5 0,-570.5 0,-564.5 6,-558.5 12,-558.5 12,-558.5 76.75,-558.5 76.75,-558.5 82.75,-558.5 88.75,-564.5 88.75,-570.5 88.75,-570.5 88.75,-590.5 88.75,-590.5 88.75,-596.5 82.75,-602.5 76.75,-602.5"/>

<text xml:space="preserve" text-anchor="middle" x="44.38" y="-589" font-family="Arial" font-size="10.00" fill="white">Config&#45;Driven</text>

<text xml:space="preserve" text-anchor="middle" x="44.38" y="-577" font-family="Arial" font-size="10.00" fill="white">Topology</text>

<text xml:space="preserve" text-anchor="middle" x="44.38" y="-565" font-family="Arial" font-size="10.00" fill="white">swarmforge.conf</text>

</g>

<g id="edge1" class="edge">

<title>swarmforge&#45;&gt;config</title>

<path fill="none" stroke="#4caf50" stroke-width="2" d="M417.61,-1068.5C305.79,-1068.5 44.38,-1068.5 44.38,-1068.5 44.38,-1068.5 44.38,-615.76 44.38,-615.76"/>

<polygon fill="#4caf50" stroke="#4caf50" stroke-width="2" points="47.88,-615.76 44.38,-605.76 40.88,-615.76 47.88,-615.76"/>

</g>

<g id="node3" class="node">

<title>roles</title>

<path fill="#009688" stroke="black" d="M189.75,-602.5C189.75,-602.5 137,-602.5 137,-602.5 131,-602.5 125,-596.5 125,-590.5 125,-590.5 125,-570.5 125,-570.5 125,-564.5 131,-558.5 137,-558.5 137,-558.5 189.75,-558.5 189.75,-558.5 195.75,-558.5 201.75,-564.5 201.75,-570.5 201.75,-570.5 201.75,-590.5 201.75,-590.5 201.75,-596.5 195.75,-602.5 189.75,-602.5"/>

<text xml:space="preserve" text-anchor="middle" x="163.38" y="-589" font-family="Arial" font-size="10.00" fill="white">Project&#45;Local</text>

<text xml:space="preserve" text-anchor="middle" x="163.38" y="-577" font-family="Arial" font-size="10.00" fill="white">Roles</text>

<text xml:space="preserve" text-anchor="middle" x="163.38" y="-565" font-family="Arial" font-size="10.00" fill="white">&lt;role&gt;.prompt</text>

</g>

<g id="edge2" class="edge">

<title>swarmforge&#45;&gt;roles</title>

<path fill="none" stroke="#009688" stroke-width="2" d="M417.52,-1059.5C331.27,-1059.5 163.38,-1059.5 163.38,-1059.5 163.38,-1059.5 163.38,-615.99 163.38,-615.99"/>

<polygon fill="#009688" stroke="#009688" stroke-width="2" points="166.88,-615.99 163.38,-605.99 159.88,-615.99 166.88,-615.99"/>

</g>

<g id="node4" class="node">

<title>constitution</title>

<path fill="#9c27b0" stroke="black" d="M318.62,-602.5C318.62,-602.5 250.12,-602.5 250.12,-602.5 244.12,-602.5 238.12,-596.5 238.12,-590.5 238.12,-590.5 238.12,-570.5 238.12,-570.5 238.12,-564.5 244.12,-558.5 250.12,-558.5 250.12,-558.5 318.62,-558.5 318.62,-558.5 324.62,-558.5 330.62,-564.5 330.62,-570.5 330.62,-570.5 330.62,-590.5 330.62,-590.5 330.62,-596.5 324.62,-602.5 318.62,-602.5"/>

<text xml:space="preserve" text-anchor="middle" x="284.38" y="-589" font-family="Arial" font-size="10.00" fill="white">Layered</text>

<text xml:space="preserve" text-anchor="middle" x="284.38" y="-577" font-family="Arial" font-size="10.00" fill="white">Constitution</text>

<text xml:space="preserve" text-anchor="middle" x="284.38" y="-565" font-family="Arial" font-size="10.00" fill="white">precedence chain</text>

</g>

<g id="edge3" class="edge">

<title>swarmforge&#45;&gt;constitution</title>

<path fill="none" stroke="#9c27b0" stroke-width="2" d="M417.37,-1050.5C363.19,-1050.5 284.38,-1050.5 284.38,-1050.5 284.38,-1050.5 284.38,-615.88 284.38,-615.88"/>

<polygon fill="#9c27b0" stroke="#9c27b0" stroke-width="2" points="287.88,-615.88 284.38,-605.88 280.88,-615.88 287.88,-615.88"/>

</g>

<g id="node5" class="node">

<title>backend</title>

<path fill="#ff9800" stroke="black" d="M434.25,-602.5C434.25,-602.5 378.5,-602.5 378.5,-602.5 372.5,-602.5 366.5,-596.5 366.5,-590.5 366.5,-590.5 366.5,-570.5 366.5,-570.5 366.5,-564.5 372.5,-558.5 378.5,-558.5 378.5,-558.5 434.25,-558.5 434.25,-558.5 440.25,-558.5 446.25,-564.5 446.25,-570.5 446.25,-570.5 446.25,-590.5 446.25,-590.5 446.25,-596.5 440.25,-602.5 434.25,-602.5"/>

<text xml:space="preserve" text-anchor="middle" x="406.38" y="-589" font-family="Arial" font-size="10.00" fill="white">Backend</text>

<text xml:space="preserve" text-anchor="middle" x="406.38" y="-577" font-family="Arial" font-size="10.00" fill="white">Selection</text>

<text xml:space="preserve" text-anchor="middle" x="406.38" y="-565" font-family="Arial" font-size="10.00" fill="white">claude / codex</text>

</g>

<g id="edge4" class="edge">

<title>swarmforge&#45;&gt;backend</title>

<path fill="none" stroke="#ff9800" stroke-width="2" d="M432,-1041.02C432,-1041.02 432,-616 432,-616"/>

<polygon fill="#ff9800" stroke="#ff9800" stroke-width="2" points="435.5,-616 432,-606 428.5,-616 435.5,-616"/>

</g>

<g id="node6" class="node">

<title>observable</title>

<path fill="#ff7043" stroke="black" d="M564.38,-602.5C564.38,-602.5 494.38,-602.5 494.38,-602.5 488.38,-602.5 482.38,-596.5 482.38,-590.5 482.38,-590.5 482.38,-570.5 482.38,-570.5 482.38,-564.5 488.38,-558.5 494.38,-558.5 494.38,-558.5 564.38,-558.5 564.38,-558.5 570.38,-558.5 576.38,-564.5 576.38,-570.5 576.38,-570.5 576.38,-590.5 576.38,-590.5 576.38,-596.5 570.38,-602.5 564.38,-602.5"/>

<text xml:space="preserve" text-anchor="middle" x="529.38" y="-589" font-family="Arial" font-size="10.00" fill="white">Observable</text>

<text xml:space="preserve" text-anchor="middle" x="529.38" y="-577" font-family="Arial" font-size="10.00" fill="white">Swarm</text>

<text xml:space="preserve" text-anchor="middle" x="529.38" y="-565" font-family="Arial" font-size="10.00" fill="white">Terminal windows</text>

</g>

<g id="edge5" class="edge">

<title>swarmforge&#45;&gt;observable</title>

<path fill="none" stroke="#ff7043" stroke-width="2" d="M499.69,-1041.02C499.69,-1041.02 499.69,-616 499.69,-616"/>

<polygon fill="#ff7043" stroke="#ff7043" stroke-width="2" points="503.19,-616 499.69,-606 496.19,-616 503.19,-616"/>

</g>

<g id="node7" class="node">

<title>lightweight</title>

<path fill="#ffc107" stroke="black" d="M684.5,-602.5C684.5,-602.5 624.25,-602.5 624.25,-602.5 618.25,-602.5 612.25,-596.5 612.25,-590.5 612.25,-590.5 612.25,-570.5 612.25,-570.5 612.25,-564.5 618.25,-558.5 624.25,-558.5 624.25,-558.5 684.5,-558.5 684.5,-558.5 690.5,-558.5 696.5,-564.5 696.5,-570.5 696.5,-570.5 696.5,-590.5 696.5,-590.5 696.5,-596.5 690.5,-602.5 684.5,-602.5"/>

<text xml:space="preserve" text-anchor="middle" x="654.38" y="-589" font-family="Arial" font-size="10.00">Self&#45;Hosted</text>

<text xml:space="preserve" text-anchor="middle" x="654.38" y="-577" font-family="Arial" font-size="10.00">and Lightweight</text>

<text xml:space="preserve" text-anchor="middle" x="654.38" y="-565" font-family="Arial" font-size="10.00">tmux + git</text>

</g>

<g id="edge6" class="edge">

<title>swarmforge&#45;&gt;lightweight</title>

<path fill="none" stroke="#ffc107" stroke-width="2" d="M517.49,-1050.5C572.88,-1050.5 654.38,-1050.5 654.38,-1050.5 654.38,-1050.5 654.38,-615.88 654.38,-615.88"/>

<polygon fill="#ffc107" stroke="#ffc107" stroke-width="2" points="657.88,-615.88 654.38,-605.88 650.88,-615.88 657.88,-615.88"/>

</g>

<g id="node8" class="node">

<title>worktree</title>

<path fill="#e91e63" stroke="black" d="M812.62,-602.5C812.62,-602.5 744.12,-602.5 744.12,-602.5 738.12,-602.5 732.12,-596.5 732.12,-590.5 732.12,-590.5 732.12,-570.5 732.12,-570.5 732.12,-564.5 738.12,-558.5 744.12,-558.5 744.12,-558.5 812.62,-558.5 812.62,-558.5 818.62,-558.5 824.62,-564.5 824.62,-570.5 824.62,-570.5 824.62,-590.5 824.62,-590.5 824.62,-596.5 818.62,-602.5 812.62,-602.5"/>

<text xml:space="preserve" text-anchor="middle" x="778.38" y="-589" font-family="Arial" font-size="10.00" fill="white">Git Worktree</text>

<text xml:space="preserve" text-anchor="middle" x="778.38" y="-577" font-family="Arial" font-size="10.00" fill="white">Isolation</text>

<text xml:space="preserve" text-anchor="middle" x="778.38" y="-565" font-family="Arial" font-size="10.00" fill="white">.worktrees/&lt;role&gt;</text>

</g>

<g id="edge7" class="edge">

<title>swarmforge&#45;&gt;worktree</title>

<path fill="none" stroke="#e91e63" stroke-width="2" d="M517.34,-1059.5C605.26,-1059.5 778.38,-1059.5 778.38,-1059.5 778.38,-1059.5 778.38,-615.99 778.38,-615.99"/>

<polygon fill="#e91e63" stroke="#e91e63" stroke-width="2" points="781.88,-615.99 778.38,-605.99 774.88,-615.99 781.88,-615.99"/>

</g>

<g id="node9" class="node">

<title>queue</title>

<path fill="#f44336" stroke="black" d="M914.5,-602.5C914.5,-602.5 872.25,-602.5 872.25,-602.5 866.25,-602.5 860.25,-596.5 860.25,-590.5 860.25,-590.5 860.25,-570.5 860.25,-570.5 860.25,-564.5 866.25,-558.5 872.25,-558.5 872.25,-558.5 914.5,-558.5 914.5,-558.5 920.5,-558.5 926.5,-564.5 926.5,-570.5 926.5,-570.5 926.5,-590.5 926.5,-590.5 926.5,-596.5 920.5,-602.5 914.5,-602.5"/>

<text xml:space="preserve" text-anchor="middle" x="893.38" y="-589" font-family="Arial" font-size="10.00" fill="white">Message</text>

<text xml:space="preserve" text-anchor="middle" x="893.38" y="-577" font-family="Arial" font-size="10.00" fill="white">Queueing</text>

<text xml:space="preserve" text-anchor="middle" x="893.38" y="-565" font-family="Arial" font-size="10.00" fill="white">priority files</text>

</g>

<g id="edge8" class="edge">

<title>swarmforge&#45;&gt;queue</title>

<path fill="none" stroke="#f44336" stroke-width="2" d="M517.5,-1068.5C630.1,-1068.5 893.38,-1068.5 893.38,-1068.5 893.38,-1068.5 893.38,-615.76 893.38,-615.76"/>

<polygon fill="#f44336" stroke="#f44336" stroke-width="2" points="896.88,-615.76 893.38,-605.76 889.88,-615.76 896.88,-615.76"/>

</g>

<g id="node10" class="node">

<title>proj</title>

<path fill="#9c27b0" stroke="black" d="M176.25,-119.5C176.25,-119.5 114.5,-119.5 114.5,-119.5 108.5,-119.5 102.5,-113.5 102.5,-107.5 102.5,-107.5 102.5,-95.5 102.5,-95.5 102.5,-89.5 108.5,-83.5 114.5,-83.5 114.5,-83.5 176.25,-83.5 176.25,-83.5 182.25,-83.5 188.25,-89.5 188.25,-95.5 188.25,-95.5 188.25,-107.5 188.25,-107.5 188.25,-113.5 182.25,-119.5 176.25,-119.5"/>

<text xml:space="preserve" text-anchor="middle" x="145.38" y="-104" font-family="Arial" font-size="10.00" fill="white">project.prompt</text>

<text xml:space="preserve" text-anchor="middle" x="145.38" y="-92" font-family="Arial" font-size="10.00" fill="white">(highest priority)</text>

</g>

<g id="edge9" class="edge">

<title>constitution&#45;&gt;proj</title>

<path fill="none" stroke="#9c27b0" stroke-width="1.5" d="M237.84,-580.5C224.17,-580.5 212.81,-580.5 212.81,-580.5 212.81,-580.5 212.81,-101.5 212.81,-101.5 212.81,-101.5 200.74,-101.5 200.74,-101.5"/>

<polygon fill="#9c27b0" stroke="#9c27b0" stroke-width="1.5" points="200.74,-98 190.74,-101.5 200.74,-105 200.74,-98"/>

</g>

<g id="node11" class="node">

<title>eng</title>

<path fill="#9c27b0" stroke="black" d="M332.88,-119.5C332.88,-119.5 235.88,-119.5 235.88,-119.5 229.88,-119.5 223.88,-113.5 223.88,-107.5 223.88,-107.5 223.88,-95.5 223.88,-95.5 223.88,-89.5 229.88,-83.5 235.88,-83.5 235.88,-83.5 332.88,-83.5 332.88,-83.5 338.88,-83.5 344.88,-89.5 344.88,-95.5 344.88,-95.5 344.88,-107.5 344.88,-107.5 344.88,-113.5 338.88,-119.5 332.88,-119.5"/>

<text xml:space="preserve" text-anchor="middle" x="284.38" y="-104" font-family="Arial" font-size="10.00" fill="white">engineering.prompt</text>

<text xml:space="preserve" text-anchor="middle" x="284.38" y="-92" font-family="Arial" font-size="10.00" fill="white">(TDD, mutation, CRAP)</text>

</g>

<g id="edge10" class="edge">

<title>constitution&#45;&gt;eng</title>

<path fill="none" stroke="#9c27b0" stroke-width="1.5" d="M284.38,-558.04C284.38,-558.04 284.38,-132.2 284.38,-132.2"/>

<polygon fill="#9c27b0" stroke="#9c27b0" stroke-width="1.5" points="287.88,-132.2 284.38,-122.2 280.88,-132.2 287.88,-132.2"/>

</g>

<g id="node12" class="node">

<title>wf</title>

<path fill="#9c27b0" stroke="black" d="M472.25,-119.5C472.25,-119.5 392.5,-119.5 392.5,-119.5 386.5,-119.5 380.5,-113.5 380.5,-107.5 380.5,-107.5 380.5,-95.5 380.5,-95.5 380.5,-89.5 386.5,-83.5 392.5,-83.5 392.5,-83.5 472.25,-83.5 472.25,-83.5 478.25,-83.5 484.25,-89.5 484.25,-95.5 484.25,-95.5 484.25,-107.5 484.25,-107.5 484.25,-113.5 478.25,-119.5 472.25,-119.5"/>

<text xml:space="preserve" text-anchor="middle" x="432.38" y="-104" font-family="Arial" font-size="10.00" fill="white">workflow.prompt</text>

<text xml:space="preserve" text-anchor="middle" x="432.38" y="-92" font-family="Arial" font-size="10.00" fill="white">(handoffs, queueing)</text>

</g>

<g id="edge11" class="edge">

<title>constitution&#45;&gt;wf</title>

<path fill="none" stroke="#9c27b0" stroke-width="1.5" d="M330.75,-580.5C344.37,-580.5 355.69,-580.5 355.69,-580.5 355.69,-580.5 355.69,-101.5 355.69,-101.5 355.69,-101.5 368.1,-101.5 368.1,-101.5"/>

<polygon fill="#9c27b0" stroke="#9c27b0" stroke-width="1.5" points="368.1,-105 378.1,-101.5 368.1,-98 368.1,-105"/>

</g>

</g>

</svg>

