<?xml version="1.0" encoding="UTF-8" standalone="no"?>
<!DOCTYPE svg PUBLIC "-//W3C//DTD SVG 1.1//EN"
 "http://www.w3.org/Graphics/SVG/1.1/DTD/svg11.dtd">
<!-- Generated by graphviz version 14.1.2 (0)
 -->
<!-- Title: swarm_forge_architecture Pages: 1 -->
<svg width="926pt" height="938pt"
 viewBox="0.00 0.00 926.00 938.00" xmlns="http://www.w3.org/2000/svg" xmlns:xlink="http://www.w3.org/1999/xlink">
<style>
/* White halo for edge labels - ensures text is readable over edge lines */
text {
    paint-order: stroke;
    stroke: #ffffff;
    stroke-width: 4px;
    stroke-linejoin: round;
    stroke-linecap: round;
}
/* Node labels: no halo needed (they sit on filled backgrounds) */
g.node text,
g.cluster text {
    stroke: none;
}
</style>

<g id="graph0" class="graph" transform="scale(1 1) rotate(0) translate(4 933.5)">
<title>swarm_forge_architecture</title>
<polygon fill="white" stroke="none" points="-4,4 -4,-933.5 922,-933.5 922,4 -4,4"/>
<text xml:space="preserve" text-anchor="middle" x="459" y="-6.45" font-family="Arial" font-size="14.00">Swarm Forge &#45; Architecture Overview</text>
<g id="clust1" class="cluster">
<title>cluster_cluster_input</title>
<polygon fill="#cccccc" stroke="#cccccc" points="558,-721.25 558,-921.5 910,-921.5 910,-721.25 558,-721.25"/>
<text xml:space="preserve" text-anchor="middle" x="734" y="-904.2" font-family="Arial Bold" font-size="14.00" fill="#333333">User Input</text>
</g>
<g id="clust2" class="cluster">
<title>cluster_cluster_orchestrator</title>
<polygon fill="#cccccc" stroke="#cccccc" points="649,-130.25 649,-711 858,-711 858,-130.25 649,-130.25"/>
<text xml:space="preserve" text-anchor="middle" x="753.5" y="-693.7" font-family="Arial Bold" font-size="14.00" fill="#333333">Orchestrator (swarmforge.sh)</text>
</g>
<g id="clust3" class="cluster">
<title>cluster_cluster_agents</title>
<polygon fill="#cccccc" stroke="#cccccc" points="172,-130.25 172,-218.5 641,-218.5 641,-130.25 172,-130.25"/>
<text xml:space="preserve" text-anchor="middle" x="406.5" y="-201.2" font-family="Arial Bold" font-size="14.00" fill="#333333">Agent Instances (tmux Sessions)</text>
</g>
<g id="clust4" class="cluster">
<title>cluster_cluster_workspace</title>
<polygon fill="#cccccc" stroke="#cccccc" points="8,-31.75 8,-120 551,-120 551,-31.75 8,-31.75"/>
<text xml:space="preserve" text-anchor="middle" x="279.5" y="-102.7" font-family="Arial Bold" font-size="14.00" fill="#333333">Shared Workspace</text>
</g>
<!-- user -->
<g id="node1" class="node">
<title>user</title>
<path fill="#4caf50" stroke="black" d="M762.12,-883C762.12,-883 689.88,-883 689.88,-883 683.88,-883 677.88,-877 677.88,-871 677.88,-871 677.88,-846.5 677.88,-846.5 677.88,-840.5 683.88,-834.5 689.88,-834.5 689.88,-834.5 762.12,-834.5 762.12,-834.5 768.12,-834.5 774.12,-840.5 774.12,-846.5 774.12,-846.5 774.12,-871 774.12,-871 774.12,-877 768.12,-883 762.12,-883"/>
<text xml:space="preserve" text-anchor="middle" x="726" y="-868.55" font-family="Arial" font-size="11.00" fill="white">User</text>
<text xml:space="preserve" text-anchor="middle" x="726" y="-855.05" font-family="Arial" font-size="11.00" fill="white">Project Owner</text>
<text xml:space="preserve" text-anchor="middle" x="726" y="-841.55" font-family="Arial" font-size="11.00" fill="white">Task Submission</text>
</g>
<!-- config_file -->
<g id="node2" class="node">
<title>config_file</title>
<path fill="#4caf50" stroke="black" d="M782,-777.75C782,-777.75 670,-777.75 670,-777.75 664,-777.75 658,-771.75 658,-765.75 658,-765.75 658,-741.25 658,-741.25 658,-735.25 664,-729.25 670,-729.25 670,-729.25 782,-729.25 782,-729.25 788,-729.25 794,-735.25 794,-741.25 794,-741.25 794,-765.75 794,-765.75 794,-771.75 788,-777.75 782,-777.75"/>
<text xml:space="preserve" text-anchor="middle" x="726" y="-763.3" font-family="Arial" font-size="11.00" fill="white">swarmforge.conf</text>
<text xml:space="preserve" text-anchor="middle" x="726" y="-749.8" font-family="Arial" font-size="11.00" fill="white">Window Definitions</text>
<text xml:space="preserve" text-anchor="middle" x="726" y="-736.3" font-family="Arial" font-size="11.00" fill="white">Role + Agent + Worktree</text>
</g>
<!-- user&#45;&gt;config_file -->
<g id="edge1" class="edge">
<title>user&#45;&gt;config_file</title>
<path fill="none" stroke="#4caf50" stroke-width="1.5" d="M726,-834.07C726,-834.07 726,-788.29 726,-788.29"/>
<polygon fill="#4caf50" stroke="#4caf50" stroke-width="1.5" points="728.8,-788.29 726,-780.29 723.2,-788.29 728.8,-788.29"/>
<text xml:space="preserve" text-anchor="middle" x="711" y="-813.13" font-family="Arial" font-size="9.00" fill="#4caf50">defines</text>
</g>
<!-- parse_config -->
<g id="node5" class="node">
<title>parse_config</title>
<path fill="#2196f3" stroke="black" d="M782.75,-679.25C782.75,-679.25 669.25,-679.25 669.25,-679.25 663.25,-679.25 657.25,-673.25 657.25,-667.25 657.25,-667.25 657.25,-642.75 657.25,-642.75 657.25,-636.75 663.25,-630.75 669.25,-630.75 669.25,-630.75 782.75,-630.75 782.75,-630.75 788.75,-630.75 794.75,-636.75 794.75,-642.75 794.75,-642.75 794.75,-667.25 794.75,-667.25 794.75,-673.25 788.75,-679.25 782.75,-679.25"/>
<text xml:space="preserve" text-anchor="middle" x="726" y="-664.8" font-family="Arial" font-size="11.00" fill="white">Parse Config</text>
<text xml:space="preserve" text-anchor="middle" x="726" y="-651.3" font-family="Arial" font-size="11.00" fill="white">Validate swarmforge.conf</text>
<text xml:space="preserve" text-anchor="middle" x="726" y="-637.8" font-family="Arial" font-size="11.00" fill="white">Check Role Prompts</text>
</g>
<!-- config_file&#45;&gt;parse_config -->
<g id="edge2" class="edge">
<title>config_file&#45;&gt;parse_config</title>
<path fill="none" stroke="#4caf50" stroke-width="1.5" d="M726,-728.9C726,-728.9 726,-689.9 726,-689.9"/>
<polygon fill="#4caf50" stroke="#4caf50" stroke-width="1.5" points="728.8,-689.9 726,-681.9 723.2,-689.9 728.8,-689.9"/>
<text xml:space="preserve" text-anchor="middle" x="716.62" y="-711.35" font-family="Arial" font-size="9.00" fill="#4caf50">read</text>
</g>
<!-- role_prompts -->
<g id="node3" class="node">
<title>role_prompts</title>
<path fill="#4caf50" stroke="black" d="M647.62,-889.75C647.62,-889.75 578.38,-889.75 578.38,-889.75 572.38,-889.75 566.38,-883.75 566.38,-877.75 566.38,-877.75 566.38,-839.75 566.38,-839.75 566.38,-833.75 572.38,-827.75 578.38,-827.75 578.38,-827.75 647.62,-827.75 647.62,-827.75 653.62,-827.75 659.62,-833.75 659.62,-839.75 659.62,-839.75 659.62,-877.75 659.62,-877.75 659.62,-883.75 653.62,-889.75 647.62,-889.75"/>
<text xml:space="preserve" text-anchor="middle" x="613" y="-875.3" font-family="Arial" font-size="11.00" fill="white">Role Prompts</text>
<text xml:space="preserve" text-anchor="middle" x="613" y="-861.8" font-family="Arial" font-size="11.00" fill="white">architect.prompt</text>
<text xml:space="preserve" text-anchor="middle" x="613" y="-848.3" font-family="Arial" font-size="11.00" fill="white">coder.prompt</text>
<text xml:space="preserve" text-anchor="middle" x="613" y="-834.8" font-family="Arial" font-size="11.00" fill="white">reviewer.prompt</text>
</g>
<!-- role_prompts&#45;&gt;parse_config -->
<g id="edge3" class="edge">
<title>role_prompts&#45;&gt;parse_config</title>
<path fill="none" stroke="#4caf50" stroke-width="1.5" d="M648.83,-827.26C648.83,-771.85 648.83,-662.75 648.83,-662.75 648.83,-662.75 649.63,-662.75 649.63,-662.75"/>
<polygon fill="#4caf50" stroke="#4caf50" stroke-width="1.5" points="646.53,-665.55 654.53,-662.75 646.53,-659.95 646.53,-665.55"/>
<text xml:space="preserve" text-anchor="middle" x="632.71" y="-746.56" font-family="Arial" font-size="9.00" fill="#4caf50">validate</text>
</g>
<!-- constitution -->
<g id="node4" class="node">
<title>constitution</title>
<path fill="#4caf50" stroke="black" d="M889.88,-883C889.88,-883 804.12,-883 804.12,-883 798.12,-883 792.12,-877 792.12,-871 792.12,-871 792.12,-846.5 792.12,-846.5 792.12,-840.5 798.12,-834.5 804.12,-834.5 804.12,-834.5 889.88,-834.5 889.88,-834.5 895.88,-834.5 901.88,-840.5 901.88,-846.5 901.88,-846.5 901.88,-871 901.88,-871 901.88,-877 895.88,-883 889.88,-883"/>
<text xml:space="preserve" text-anchor="middle" x="847" y="-868.55" font-family="Arial" font-size="11.00" fill="white">constitution.prompt</text>
<text xml:space="preserve" text-anchor="middle" x="847" y="-855.05" font-family="Arial" font-size="11.00" fill="white">Shared Rules</text>
<text xml:space="preserve" text-anchor="middle" x="847" y="-841.55" font-family="Arial" font-size="11.00" fill="white">Layered Delegation</text>
</g>
<!-- launch_agents -->
<g id="node9" class="node">
<title>launch_agents</title>
<path fill="#2196f3" stroke="black" d="M771.12,-285.25C771.12,-285.25 668.88,-285.25 668.88,-285.25 662.88,-285.25 656.88,-279.25 656.88,-273.25 656.88,-273.25 656.88,-248.75 656.88,-248.75 656.88,-242.75 662.88,-236.75 668.88,-236.75 668.88,-236.75 771.12,-236.75 771.12,-236.75 777.12,-236.75 783.12,-242.75 783.12,-248.75 783.12,-248.75 783.12,-273.25 783.12,-273.25 783.12,-279.25 777.12,-285.25 771.12,-285.25"/>
<text xml:space="preserve" text-anchor="middle" x="720" y="-270.8" font-family="Arial" font-size="11.00" fill="white">Launch Agents</text>
<text xml:space="preserve" text-anchor="middle" x="720" y="-257.3" font-family="Arial" font-size="11.00" fill="white">Claude / Codex / None</text>
<text xml:space="preserve" text-anchor="middle" x="720" y="-243.8" font-family="Arial" font-size="11.00" fill="white">In Assigned Worktrees</text>
</g>
<!-- constitution&#45;&gt;launch_agents -->
<g id="edge4" class="edge">
<title>constitution&#45;&gt;launch_agents</title>
<path fill="none" stroke="#4caf50" stroke-width="1.5" d="M848.31,-834.19C848.31,-721.66 848.31,-260.75 848.31,-260.75 848.31,-260.75 793.67,-260.75 793.67,-260.75"/>
<polygon fill="#4caf50" stroke="#4caf50" stroke-width="1.5" points="793.67,-257.95 785.67,-260.75 793.67,-263.55 793.67,-257.95"/>
<text xml:space="preserve" text-anchor="middle" x="837.44" y="-522.1" font-family="Arial" font-size="9.00" fill="#4caf50">inject</text>
</g>
<!-- init_git -->
<g id="node6" class="node">
<title>init_git</title>
<path fill="#2196f3" stroke="black" d="M761.38,-580.75C761.38,-580.75 684.62,-580.75 684.62,-580.75 678.62,-580.75 672.62,-574.75 672.62,-568.75 672.62,-568.75 672.62,-544.25 672.62,-544.25 672.62,-538.25 678.62,-532.25 684.62,-532.25 684.62,-532.25 761.38,-532.25 761.38,-532.25 767.38,-532.25 773.38,-538.25 773.38,-544.25 773.38,-544.25 773.38,-568.75 773.38,-568.75 773.38,-574.75 767.38,-580.75 761.38,-580.75"/>
<text xml:space="preserve" text-anchor="middle" x="723" y="-566.3" font-family="Arial" font-size="11.00" fill="white">Initialize Git</text>
<text xml:space="preserve" text-anchor="middle" x="723" y="-552.8" font-family="Arial" font-size="11.00" fill="white">git init + .gitignore</text>
<text xml:space="preserve" text-anchor="middle" x="723" y="-539.3" font-family="Arial" font-size="11.00" fill="white">First Commit</text>
</g>
<!-- parse_config&#45;&gt;init_git -->
<g id="edge5" class="edge">
<title>parse_config&#45;&gt;init_git</title>
<path fill="none" stroke="#2196f3" stroke-width="1.5" d="M723,-630.4C723,-630.4 723,-591.4 723,-591.4"/>
<polygon fill="#2196f3" stroke="#2196f3" stroke-width="1.5" points="725.8,-591.4 723,-583.4 720.2,-591.4 725.8,-591.4"/>
<text xml:space="preserve" text-anchor="middle" x="711.75" y="-612.85" font-family="Arial" font-size="9.00" fill="#2196f3">setup</text>
</g>
<!-- state_dir -->
<g id="node17" class="node">
<title>state_dir</title>
<path fill="#9c27b0" stroke="black" d="M131.88,-88.25C131.88,-88.25 28.12,-88.25 28.12,-88.25 22.12,-88.25 16.12,-82.25 16.12,-76.25 16.12,-76.25 16.12,-51.75 16.12,-51.75 16.12,-45.75 22.12,-39.75 28.12,-39.75 28.12,-39.75 131.88,-39.75 131.88,-39.75 137.88,-39.75 143.88,-45.75 143.88,-51.75 143.88,-51.75 143.88,-76.25 143.88,-76.25 143.88,-82.25 137.88,-88.25 131.88,-88.25"/>
<text xml:space="preserve" text-anchor="middle" x="80" y="-73.8" font-family="Arial" font-size="11.00" fill="white">.swarmforge/</text>
<text xml:space="preserve" text-anchor="middle" x="80" y="-60.3" font-family="Arial" font-size="11.00" fill="white">Sessions TSV</text>
<text xml:space="preserve" text-anchor="middle" x="80" y="-46.8" font-family="Arial" font-size="11.00" fill="white">Window IDs + Prompts</text>
</g>
<!-- parse_config&#45;&gt;state_dir -->
<g id="edge22" class="edge">
<title>parse_config&#45;&gt;state_dir</title>
<path fill="none" stroke="#9c27b0" stroke-width="1.5" stroke-dasharray="5,2" d="M656.87,-646.75C490.22,-646.75 80,-646.75 80,-646.75 80,-646.75 80,-98.94 80,-98.94"/>
<polygon fill="#9c27b0" stroke="#9c27b0" stroke-width="1.5" points="82.8,-98.94 80,-90.94 77.2,-98.94 82.8,-98.94"/>
<text xml:space="preserve" text-anchor="middle" x="65.65" y="-648.7" font-family="Arial" font-size="9.00" fill="#9c27b0">write sessions</text>
</g>
<!-- create_worktrees -->
<g id="node7" class="node">
<title>create_worktrees</title>
<path fill="#2196f3" stroke="black" d="M758.75,-482.25C758.75,-482.25 681.25,-482.25 681.25,-482.25 675.25,-482.25 669.25,-476.25 669.25,-470.25 669.25,-470.25 669.25,-445.75 669.25,-445.75 669.25,-439.75 675.25,-433.75 681.25,-433.75 681.25,-433.75 758.75,-433.75 758.75,-433.75 764.75,-433.75 770.75,-439.75 770.75,-445.75 770.75,-445.75 770.75,-470.25 770.75,-470.25 770.75,-476.25 764.75,-482.25 758.75,-482.25"/>
<text xml:space="preserve" text-anchor="middle" x="720" y="-467.8" font-family="Arial" font-size="11.00" fill="white">Create Worktrees</text>
<text xml:space="preserve" text-anchor="middle" x="720" y="-454.3" font-family="Arial" font-size="11.00" fill="white">.worktrees/&lt;role&gt;</text>
<text xml:space="preserve" text-anchor="middle" x="720" y="-440.8" font-family="Arial" font-size="11.00" fill="white">Branch per Role</text>
</g>
<!-- init_git&#45;&gt;create_worktrees -->
<g id="edge6" class="edge">
<title>init_git&#45;&gt;create_worktrees</title>
<path fill="none" stroke="#2196f3" stroke-width="1.5" d="M721.69,-531.9C721.69,-531.9 721.69,-492.9 721.69,-492.9"/>
<polygon fill="#2196f3" stroke="#2196f3" stroke-width="1.5" points="724.49,-492.9 721.69,-484.9 718.89,-492.9 724.49,-492.9"/>
<text xml:space="preserve" text-anchor="middle" x="699.56" y="-514.35" font-family="Arial" font-size="9.00" fill="#2196f3">repo ready</text>
</g>
<!-- create_sessions -->
<g id="node8" class="node">
<title>create_sessions</title>
<path fill="#2196f3" stroke="black" d="M768.88,-383.75C768.88,-383.75 671.12,-383.75 671.12,-383.75 665.12,-383.75 659.12,-377.75 659.12,-371.75 659.12,-371.75 659.12,-347.25 659.12,-347.25 659.12,-341.25 665.12,-335.25 671.12,-335.25 671.12,-335.25 768.88,-335.25 768.88,-335.25 774.88,-335.25 780.88,-341.25 780.88,-347.25 780.88,-347.25 780.88,-371.75 780.88,-371.75 780.88,-377.75 774.88,-383.75 768.88,-383.75"/>
<text xml:space="preserve" text-anchor="middle" x="720" y="-369.3" font-family="Arial" font-size="11.00" fill="white">Create tmux Sessions</text>
<text xml:space="preserve" text-anchor="middle" x="720" y="-355.8" font-family="Arial" font-size="11.00" fill="white">One Session per Role</text>
<text xml:space="preserve" text-anchor="middle" x="720" y="-342.3" font-family="Arial" font-size="11.00" fill="white">Named Windows</text>
</g>
<!-- create_worktrees&#45;&gt;create_sessions -->
<g id="edge7" class="edge">
<title>create_worktrees&#45;&gt;create_sessions</title>
<path fill="none" stroke="#2196f3" stroke-width="1.5" d="M720,-433.4C720,-433.4 720,-394.4 720,-394.4"/>
<polygon fill="#2196f3" stroke="#2196f3" stroke-width="1.5" points="722.8,-394.4 720,-386.4 717.2,-394.4 722.8,-394.4"/>
<text xml:space="preserve" text-anchor="middle" x="687.38" y="-415.85" font-family="Arial" font-size="9.00" fill="#2196f3">worktrees ready</text>
</g>
<!-- worktrees_dir -->
<g id="node15" class="node">
<title>worktrees_dir</title>
<path fill="#9c27b0" stroke="black" d="M278.25,-88.25C278.25,-88.25 173.75,-88.25 173.75,-88.25 167.75,-88.25 161.75,-82.25 161.75,-76.25 161.75,-76.25 161.75,-51.75 161.75,-51.75 161.75,-45.75 167.75,-39.75 173.75,-39.75 173.75,-39.75 278.25,-39.75 278.25,-39.75 284.25,-39.75 290.25,-45.75 290.25,-51.75 290.25,-51.75 290.25,-76.25 290.25,-76.25 290.25,-82.25 284.25,-88.25 278.25,-88.25"/>
<text xml:space="preserve" text-anchor="middle" x="226" y="-73.8" font-family="Arial" font-size="11.00" fill="white">.worktrees/</text>
<text xml:space="preserve" text-anchor="middle" x="226" y="-60.3" font-family="Arial" font-size="11.00" fill="white">Per&#45;Role Git Worktrees</text>
<text xml:space="preserve" text-anchor="middle" x="226" y="-46.8" font-family="Arial" font-size="11.00" fill="white">Isolated Branches</text>
</g>
<!-- create_worktrees&#45;&gt;worktrees_dir -->
<g id="edge21" class="edge">
<title>create_worktrees&#45;&gt;worktrees_dir</title>
<path fill="none" stroke="#9c27b0" stroke-width="1.5" stroke-dasharray="5,2" d="M668.89,-457.75C552.61,-457.75 278.25,-457.75 278.25,-457.75 278.25,-457.75 278.25,-98.9 278.25,-98.9"/>
<polygon fill="#9c27b0" stroke="#9c27b0" stroke-width="1.5" points="281.05,-98.9 278.25,-90.9 275.45,-98.9 281.05,-98.9"/>
<text xml:space="preserve" text-anchor="middle" x="281.4" y="-459.7" font-family="Arial" font-size="9.00" fill="#9c27b0">create</text>
</g>
<!-- create_sessions&#45;&gt;launch_agents -->
<g id="edge8" class="edge">
<title>create_sessions&#45;&gt;launch_agents</title>
<path fill="none" stroke="#2196f3" stroke-width="1.5" d="M720,-334.9C720,-334.9 720,-295.9 720,-295.9"/>
<polygon fill="#2196f3" stroke="#2196f3" stroke-width="1.5" points="722.8,-295.9 720,-287.9 717.2,-295.9 722.8,-295.9"/>
<text xml:space="preserve" text-anchor="middle" x="689.25" y="-317.35" font-family="Arial" font-size="9.00" fill="#2196f3">sessions ready</text>
</g>
<!-- open_terminals -->
<g id="node10" class="node">
<title>open_terminals</title>
<path fill="#2196f3" stroke="black" d="M778.5,-186.75C778.5,-186.75 669.5,-186.75 669.5,-186.75 663.5,-186.75 657.5,-180.75 657.5,-174.75 657.5,-174.75 657.5,-150.25 657.5,-150.25 657.5,-144.25 663.5,-138.25 669.5,-138.25 669.5,-138.25 778.5,-138.25 778.5,-138.25 784.5,-138.25 790.5,-144.25 790.5,-150.25 790.5,-150.25 790.5,-174.75 790.5,-174.75 790.5,-180.75 784.5,-186.75 778.5,-186.75"/>
<text xml:space="preserve" text-anchor="middle" x="724" y="-172.3" font-family="Arial" font-size="11.00" fill="white">Open Terminal Windows</text>
<text xml:space="preserve" text-anchor="middle" x="724" y="-158.8" font-family="Arial" font-size="11.00" fill="white">One per Session</text>
<text xml:space="preserve" text-anchor="middle" x="724" y="-145.3" font-family="Arial" font-size="11.00" fill="white">osascript Integration</text>
</g>
<!-- launch_agents&#45;&gt;open_terminals -->
<g id="edge9" class="edge">
<title>launch_agents&#45;&gt;open_terminals</title>
<path fill="none" stroke="#2196f3" stroke-width="1.5" d="M720.31,-236.4C720.31,-236.4 720.31,-197.4 720.31,-197.4"/>
<polygon fill="#2196f3" stroke="#2196f3" stroke-width="1.5" points="723.11,-197.4 720.31,-189.4 717.51,-197.4 723.11,-197.4"/>
<text xml:space="preserve" text-anchor="middle" x="691.44" y="-218.85" font-family="Arial" font-size="9.00" fill="#2196f3">agents started</text>
</g>
<!-- architect_inst -->
<g id="node11" class="node">
<title>architect_inst</title>
<path fill="#ff9800" stroke="black" d="M497.12,-186.75C497.12,-186.75 424.88,-186.75 424.88,-186.75 418.88,-186.75 412.88,-180.75 412.88,-174.75 412.88,-174.75 412.88,-150.25 412.88,-150.25 412.88,-144.25 418.88,-138.25 424.88,-138.25 424.88,-138.25 497.12,-138.25 497.12,-138.25 503.12,-138.25 509.12,-144.25 509.12,-150.25 509.12,-150.25 509.12,-174.75 509.12,-174.75 509.12,-180.75 503.12,-186.75 497.12,-186.75"/>
<text xml:space="preserve" text-anchor="middle" x="461" y="-172.3" font-family="Arial" font-size="11.00" fill="white">Architect Agent</text>
<text xml:space="preserve" text-anchor="middle" x="461" y="-158.8" font-family="Arial" font-size="11.00" fill="white">Claude Backend</text>
<text xml:space="preserve" text-anchor="middle" x="461" y="-145.3" font-family="Arial" font-size="11.00" fill="white">master Worktree</text>
</g>
<!-- launch_agents&#45;&gt;architect_inst -->
<g id="edge10" class="edge">
<title>launch_agents&#45;&gt;architect_inst</title>
<path fill="none" stroke="#ff9800" stroke-width="1.5" d="M656.64,-255.75C579.96,-255.75 461,-255.75 461,-255.75 461,-255.75 461,-197.27 461,-197.27"/>
<polygon fill="#ff9800" stroke="#ff9800" stroke-width="1.5" points="463.8,-197.27 461,-189.27 458.2,-197.27 463.8,-197.27"/>
<text xml:space="preserve" text-anchor="middle" x="520.96" y="-257.7" font-family="Arial" font-size="9.00" fill="#ff9800">start</text>
</g>
<!-- coder_inst -->
<g id="node12" class="node">
<title>coder_inst</title>
<path fill="#ff9800" stroke="black" d="M260.25,-186.75C260.25,-186.75 191.75,-186.75 191.75,-186.75 185.75,-186.75 179.75,-180.75 179.75,-174.75 179.75,-174.75 179.75,-150.25 179.75,-150.25 179.75,-144.25 185.75,-138.25 191.75,-138.25 191.75,-138.25 260.25,-138.25 260.25,-138.25 266.25,-138.25 272.25,-144.25 272.25,-150.25 272.25,-150.25 272.25,-174.75 272.25,-174.75 272.25,-180.75 266.25,-186.75 260.25,-186.75"/>
<text xml:space="preserve" text-anchor="middle" x="226" y="-172.3" font-family="Arial" font-size="11.00" fill="white">Coder Agent</text>
<text xml:space="preserve" text-anchor="middle" x="226" y="-158.8" font-family="Arial" font-size="11.00" fill="white">Codex Backend</text>
<text xml:space="preserve" text-anchor="middle" x="226" y="-145.3" font-family="Arial" font-size="11.00" fill="white">coder Worktree</text>
</g>
<!-- launch_agents&#45;&gt;coder_inst -->
<g id="edge11" class="edge">
<title>launch_agents&#45;&gt;coder_inst</title>
<path fill="none" stroke="#ff9800" stroke-width="1.5" d="M656.43,-275.75C523.01,-275.75 226,-275.75 226,-275.75 226,-275.75 226,-197.34 226,-197.34"/>
<polygon fill="#ff9800" stroke="#ff9800" stroke-width="1.5" points="228.8,-197.34 226,-189.34 223.2,-197.34 228.8,-197.34"/>
<text xml:space="preserve" text-anchor="middle" x="393.39" y="-277.7" font-family="Arial" font-size="9.00" fill="#ff9800">start</text>
</g>
<!-- reviewer_inst -->
<g id="node13" class="node">
<title>reviewer_inst</title>
<path fill="#ff9800" stroke="black" d="M383.25,-186.75C383.25,-186.75 302.75,-186.75 302.75,-186.75 296.75,-186.75 290.75,-180.75 290.75,-174.75 290.75,-174.75 290.75,-150.25 290.75,-150.25 290.75,-144.25 296.75,-138.25 302.75,-138.25 302.75,-138.25 383.25,-138.25 383.25,-138.25 389.25,-138.25 395.25,-144.25 395.25,-150.25 395.25,-150.25 395.25,-174.75 395.25,-174.75 395.25,-180.75 389.25,-186.75 383.25,-186.75"/>
<text xml:space="preserve" text-anchor="middle" x="343" y="-172.3" font-family="Arial" font-size="11.00" fill="white">Reviewer Agent</text>
<text xml:space="preserve" text-anchor="middle" x="343" y="-158.8" font-family="Arial" font-size="11.00" fill="white">Codex Backend</text>
<text xml:space="preserve" text-anchor="middle" x="343" y="-145.3" font-family="Arial" font-size="11.00" fill="white">reviewer Worktree</text>
</g>
<!-- launch_agents&#45;&gt;reviewer_inst -->
<g id="edge12" class="edge">
<title>launch_agents&#45;&gt;reviewer_inst</title>
<path fill="none" stroke="#ff9800" stroke-width="1.5" d="M656.47,-265.75C549.03,-265.75 343,-265.75 343,-265.75 343,-265.75 343,-197.5 343,-197.5"/>
<polygon fill="#ff9800" stroke="#ff9800" stroke-width="1.5" points="345.8,-197.5 343,-189.5 340.2,-197.5 345.8,-197.5"/>
<text xml:space="preserve" text-anchor="middle" x="456.99" y="-267.7" font-family="Arial" font-size="9.00" fill="#ff9800">start</text>
</g>
<!-- logger_inst -->
<g id="node14" class="node">
<title>logger_inst</title>
<path fill="#ff9800" stroke="black" d="M621,-186.75C621,-186.75 539,-186.75 539,-186.75 533,-186.75 527,-180.75 527,-174.75 527,-174.75 527,-150.25 527,-150.25 527,-144.25 533,-138.25 539,-138.25 539,-138.25 621,-138.25 621,-138.25 627,-138.25 633,-144.25 633,-150.25 633,-150.25 633,-174.75 633,-174.75 633,-180.75 627,-186.75 621,-186.75"/>
<text xml:space="preserve" text-anchor="middle" x="580" y="-172.3" font-family="Arial" font-size="11.00" fill="white">Logger Utility</text>
<text xml:space="preserve" text-anchor="middle" x="580" y="-158.8" font-family="Arial" font-size="11.00" fill="white">No Agent Backend</text>
<text xml:space="preserve" text-anchor="middle" x="580" y="-145.3" font-family="Arial" font-size="11.00" fill="white">tail &#45;f Log File</text>
</g>
<!-- launch_agents&#45;&gt;logger_inst -->
<g id="edge13" class="edge">
<title>launch_agents&#45;&gt;logger_inst</title>
<path fill="none" stroke="#ff9800" stroke-width="1.5" d="M656.67,-246.75C627.69,-246.75 599.69,-246.75 599.69,-246.75 599.69,-246.75 599.69,-197.14 599.69,-197.14"/>
<polygon fill="#ff9800" stroke="#ff9800" stroke-width="1.5" points="602.49,-197.14 599.69,-189.14 596.89,-197.14 602.49,-197.14"/>
<text xml:space="preserve" text-anchor="middle" x="592.87" y="-248.7" font-family="Arial" font-size="9.00" fill="#ff9800">open</text>
</g>
<!-- cleanup -->
<g id="node19" class="node">
<title>cleanup</title>
<path fill="#f44336" stroke="black" d="M779.25,-88.25C779.25,-88.25 668.75,-88.25 668.75,-88.25 662.75,-88.25 656.75,-82.25 656.75,-76.25 656.75,-76.25 656.75,-51.75 656.75,-51.75 656.75,-45.75 662.75,-39.75 668.75,-39.75 668.75,-39.75 779.25,-39.75 779.25,-39.75 785.25,-39.75 791.25,-45.75 791.25,-51.75 791.25,-51.75 791.25,-76.25 791.25,-76.25 791.25,-82.25 785.25,-88.25 779.25,-88.25"/>
<text xml:space="preserve" text-anchor="middle" x="724" y="-73.8" font-family="Arial" font-size="11.00" fill="white">swarm&#45;cleanup.sh</text>
<text xml:space="preserve" text-anchor="middle" x="724" y="-60.3" font-family="Arial" font-size="11.00" fill="white">Kill tmux Sessions</text>
<text xml:space="preserve" text-anchor="middle" x="724" y="-46.8" font-family="Arial" font-size="11.00" fill="white">Close Terminal Windows</text>
</g>
<!-- open_terminals&#45;&gt;cleanup -->
<g id="edge23" class="edge">
<title>open_terminals&#45;&gt;cleanup</title>
<path fill="none" stroke="#f44336" stroke-width="1.5" stroke-dasharray="5,2" d="M724,-137.9C724,-137.9 724,-98.9 724,-98.9"/>
<polygon fill="#f44336" stroke="#f44336" stroke-width="1.5" points="726.8,-98.9 724,-90.9 721.2,-98.9 726.8,-98.9"/>
<text xml:space="preserve" text-anchor="middle" x="710.5" y="-120.35" font-family="Arial" font-size="9.00" fill="#f44336">on exit</text>
</g>
<!-- architect_inst&#45;&gt;worktrees_dir -->
<g id="edge14" class="edge">
<title>architect_inst&#45;&gt;worktrees_dir</title>
<path fill="none" stroke="#9c27b0" stroke-width="1.5" d="M417.04,-137.86C417.04,-129.27 417.04,-121.75 417.04,-121.75 417.04,-121.75 284.25,-121.75 284.25,-121.75 284.25,-121.75 284.25,-98.76 284.25,-98.76"/>
<polygon fill="#9c27b0" stroke="#9c27b0" stroke-width="1.5" points="287.05,-98.76 284.25,-90.76 281.45,-98.76 287.05,-98.76"/>
<text xml:space="preserve" text-anchor="middle" x="333.33" y="-123.7" font-family="Arial" font-size="9.00" fill="#9c27b0">master</text>
</g>
<!-- swarmtools_dir -->
<g id="node16" class="node">
<title>swarmtools_dir</title>
<path fill="#9c27b0" stroke="black" d="M395.62,-88.25C395.62,-88.25 320.38,-88.25 320.38,-88.25 314.38,-88.25 308.38,-82.25 308.38,-76.25 308.38,-76.25 308.38,-51.75 308.38,-51.75 308.38,-45.75 314.38,-39.75 320.38,-39.75 320.38,-39.75 395.62,-39.75 395.62,-39.75 401.62,-39.75 407.62,-45.75 407.62,-51.75 407.62,-51.75 407.62,-76.25 407.62,-76.25 407.62,-82.25 401.62,-88.25 395.62,-88.25"/>
<text xml:space="preserve" text-anchor="middle" x="358" y="-73.8" font-family="Arial" font-size="11.00" fill="white">swarmtools/</text>
<text xml:space="preserve" text-anchor="middle" x="358" y="-60.3" font-family="Arial" font-size="11.00" fill="white">notify&#45;agent.sh</text>
<text xml:space="preserve" text-anchor="middle" x="358" y="-46.8" font-family="Arial" font-size="11.00" fill="white">Agent Messaging</text>
</g>
<!-- architect_inst&#45;&gt;swarmtools_dir -->
<g id="edge17" class="edge">
<title>architect_inst&#45;&gt;swarmtools_dir</title>
<path fill="none" stroke="#9c27b0" stroke-width="1.5" stroke-dasharray="5,2" d="M421.21,-137.84C421.21,-108.59 421.21,-63.75 421.21,-63.75 421.21,-63.75 418.38,-63.75 418.38,-63.75"/>
<polygon fill="#9c27b0" stroke="#9c27b0" stroke-width="1.5" points="418.38,-60.95 410.38,-63.75 418.38,-66.55 418.38,-60.95"/>
<text xml:space="preserve" text-anchor="middle" x="410.33" y="-101.33" font-family="Arial" font-size="9.00" fill="#9c27b0">notify</text>
</g>
<!-- coder_inst&#45;&gt;worktrees_dir -->
<g id="edge15" class="edge">
<title>coder_inst&#45;&gt;worktrees_dir</title>
<path fill="none" stroke="#9c27b0" stroke-width="1.5" d="M210.58,-137.9C210.58,-137.9 210.58,-98.9 210.58,-98.9"/>
<polygon fill="#9c27b0" stroke="#9c27b0" stroke-width="1.5" points="213.38,-98.9 210.58,-90.9 207.78,-98.9 213.38,-98.9"/>
<text xml:space="preserve" text-anchor="middle" x="198.96" y="-120.35" font-family="Arial" font-size="9.00" fill="#9c27b0">coder</text>
</g>
<!-- coder_inst&#45;&gt;swarmtools_dir -->
<g id="edge18" class="edge">
<title>coder_inst&#45;&gt;swarmtools_dir</title>
<path fill="none" stroke="#9c27b0" stroke-width="1.5" stroke-dasharray="5,2" d="M241.42,-138.01C241.42,-122.27 241.42,-104.75 241.42,-104.75 241.42,-104.75 337.33,-104.75 337.33,-104.75 337.33,-104.75 337.33,-98.91 337.33,-98.91"/>
<polygon fill="#9c27b0" stroke="#9c27b0" stroke-width="1.5" points="340.13,-98.91 337.33,-90.91 334.53,-98.91 340.13,-98.91"/>
<text xml:space="preserve" text-anchor="middle" x="286.54" y="-96.2" font-family="Arial" font-size="9.00" fill="#9c27b0">notify</text>
</g>
<!-- reviewer_inst&#45;&gt;worktrees_dir -->
<g id="edge16" class="edge">
<title>reviewer_inst&#45;&gt;worktrees_dir</title>
<path fill="none" stroke="#9c27b0" stroke-width="1.5" d="M299.56,-137.84C299.56,-108.59 299.56,-63.75 299.56,-63.75 299.56,-63.75 298.66,-63.75 298.66,-63.75"/>
<polygon fill="#9c27b0" stroke="#9c27b0" stroke-width="1.5" points="300.81,-60.95 292.81,-63.75 300.81,-66.55 300.81,-60.95"/>
<text xml:space="preserve" text-anchor="middle" x="317.19" y="-91.79" font-family="Arial" font-size="9.00" fill="#9c27b0">reviewer</text>
</g>
<!-- reviewer_inst&#45;&gt;swarmtools_dir -->
<g id="edge19" class="edge">
<title>reviewer_inst&#45;&gt;swarmtools_dir</title>
<path fill="none" stroke="#9c27b0" stroke-width="1.5" stroke-dasharray="5,2" d="M366.29,-137.9C366.29,-137.9 366.29,-98.9 366.29,-98.9"/>
<polygon fill="#9c27b0" stroke="#9c27b0" stroke-width="1.5" points="369.09,-98.9 366.29,-90.9 363.49,-98.9 369.09,-98.9"/>
<text xml:space="preserve" text-anchor="middle" x="355.42" y="-109.85" font-family="Arial" font-size="9.00" fill="#9c27b0">notify</text>
</g>
<!-- logs_dir -->
<g id="node18" class="node">
<title>logs_dir</title>
<path fill="#9c27b0" stroke="black" d="M530.62,-88.25C530.62,-88.25 437.38,-88.25 437.38,-88.25 431.38,-88.25 425.38,-82.25 425.38,-76.25 425.38,-76.25 425.38,-51.75 425.38,-51.75 425.38,-45.75 431.38,-39.75 437.38,-39.75 437.38,-39.75 530.62,-39.75 530.62,-39.75 536.62,-39.75 542.62,-45.75 542.62,-51.75 542.62,-51.75 542.62,-76.25 542.62,-76.25 542.62,-82.25 536.62,-88.25 530.62,-88.25"/>
<text xml:space="preserve" text-anchor="middle" x="484" y="-73.8" font-family="Arial" font-size="11.00" fill="white">logs/</text>
<text xml:space="preserve" text-anchor="middle" x="484" y="-60.3" font-family="Arial" font-size="11.00" fill="white">agent_messages.log</text>
<text xml:space="preserve" text-anchor="middle" x="484" y="-46.8" font-family="Arial" font-size="11.00" fill="white">Timestamped Entries</text>
</g>
<!-- logger_inst&#45;&gt;logs_dir -->
<g id="edge20" class="edge">
<title>logger_inst&#45;&gt;logs_dir</title>
<path fill="none" stroke="#9c27b0" stroke-width="1.5" d="M534.81,-137.9C534.81,-137.9 534.81,-98.9 534.81,-98.9"/>
<polygon fill="#9c27b0" stroke="#9c27b0" stroke-width="1.5" points="537.61,-98.9 534.81,-90.9 532.01,-98.9 537.61,-98.9"/>
<text xml:space="preserve" text-anchor="middle" x="528.81" y="-120.35" font-family="Arial" font-size="9.00" fill="#9c27b0">tail</text>
</g>
<!-- cleanup&#45;&gt;create_sessions -->
<g id="edge24" class="edge">
<title>cleanup&#45;&gt;create_sessions</title>
<path fill="none" stroke="#f44336" stroke-width="1.5" stroke-dasharray="5,2" d="M656.54,-63.75C647.31,-63.75 640.92,-63.75 640.92,-63.75 640.92,-63.75 640.92,-359.75 640.92,-359.75 640.92,-359.75 648.59,-359.75 648.59,-359.75"/>
<polygon fill="#f44336" stroke="#f44336" stroke-width="1.5" points="648.59,-362.55 656.59,-359.75 648.59,-356.95 648.59,-362.55"/>
<text xml:space="preserve" text-anchor="middle" x="616.17" y="-209.72" font-family="Arial" font-size="9.00" fill="#f44336">kill sessions</text>
</g>
</g>
</svg>
