<svg width="800" height="400" xmlns="http://www.w3.org/2000/svg">
<title>Agent File Structure (Orthogonal)</title>
<text x="400" y="30" text-anchor="middle" font-family="Arial" font-size="20" font-weight="bold">Agent File Structure (Orthogonal)</text>
<rect x="50" y="80" width="700" height="60" fill="#e1f5fe" stroke="#03a9f4" stroke-width="2" rx="5" ry="5"/>
<text x="400" y="115" text-anchor="middle" font-family="Arial" font-size="14" font-weight="bold">agent-name.md (Standardized Format)</text>
<rect x="50" y="160" width="150" height="50" fill="#bbdefb" stroke="#333" stroke-width="1" rx="5" ry="5"/>
<text x="125" y="175" text-anchor="middle" font-family="Arial" font-size="10" font-weight="bold">Identity & Memory</text>
<text x="125" y="190" text-anchor="middle" font-family="Arial" font-size="8">Personality, Experience, Communication</text>
<line x1="125" y1="140" x2="125" y2="160" stroke="#666" stroke-width="1"/>
<rect x="225" y="220" width="150" height="50" fill="#90caf9" stroke="#333" stroke-width="1" rx="5" ry="5"/>
<text x="300" y="235" text-anchor="middle" font-family="Arial" font-size="10" font-weight="bold">Core Competencies</text>
<text x="300" y="250" text-anchor="middle" font-family="Arial" font-size="8">Primary Skills, Domain Expertise</text>
<line x1="300" y1="140" x2="300" y2="220" stroke="#666" stroke-width="1"/>
<rect x="400" y="280" width="150" height="50" fill="#64b5f6" stroke="#333" stroke-width="1" rx="5" ry="5"/>
<text x="475" y="295" text-anchor="middle" font-family="Arial" font-size="10" font-weight="bold">Workflow Examples</text>
<text x="475" y="310" text-anchor="middle" font-family="Arial" font-size="8">Step-by-Step Guides, Best Practices</text>
<line x1="475" y1="140" x2="475" y2="280" stroke="#666" stroke-width="1"/>
<rect x="575" y="340" width="150" height="50" fill="#42a5f5" stroke="#333" stroke-width="1" rx="5" ry="5"/>
<text x="650" y="355" text-anchor="middle" font-family="Arial" font-size="10" font-weight="bold">Success Metrics</text>
<text x="650" y="370" text-anchor="middle" font-family="Arial" font-size="8">Measurable Outcomes, Quality Standards</text>
<line x1="650" y1="140" x2="650" y2="340" stroke="#666" stroke-width="1"/>
<rect x="650" y="160" width="100" height="80" fill="#f5f5f5" stroke="#9e9e9e" stroke-width="1" rx="5" ry="5"/>
<text x="700" y="180" text-anchor="middle" font-family="Arial" font-size="10" font-weight="bold">Metadata</text>
<text x="700" y="200" text-anchor="middle" font-family="Arial" font-size="8">Division, Tags</text>
<text x="700" y="215" text-anchor="middle" font-family="Arial" font-size="8">Version, Author</text>
<line x1="125" y1="185" x2="650" y2="185" stroke="#666" stroke-width="1" stroke-dasharray="3,3"/>
<line x1="650" y1="185" x2="650" y2="200" stroke="#666" stroke-width="1" stroke-dasharray="3,3"/>
<line x1="300" y1="245" x2="650" y2="245" stroke="#666" stroke-width="1" stroke-dasharray="3,3"/>
<line x1="650" y1="245" x2="650" y2="200" stroke="#666" stroke-width="1" stroke-dasharray="3,3"/>
<line x1="475" y1="305" x2="650" y2="305" stroke="#666" stroke-width="1" stroke-dasharray="3,3"/>
<line x1="650" y1="305" x2="650" y2="200" stroke="#666" stroke-width="1" stroke-dasharray="3,3"/>
<line x1="650" y1="365" x2="650" y2="365" stroke="#666" stroke-width="1" stroke-dasharray="3,3"/>
<line x1="650" y1="365" x2="650" y2="200" stroke="#666" stroke-width="1" stroke-dasharray="3,3"/>
<text x="400" y="390" text-anchor="middle" font-family="Arial" font-size="10" fill="#666">Orthogonal hierarchy: 90° connections only</text>
</svg>