<?xml version="1.0" encoding="UTF-8" standalone="no"?>
<!DOCTYPE svg PUBLIC "-//W3C//DTD SVG 1.1//EN"
 "http://www.w3.org/Graphics/SVG/1.1/DTD/svg11.dtd">
<!-- Generated by graphviz version 14.1.4 (20260321.0153)
 -->
<!-- Title: G Pages: 1 -->
<svg width="4561pt" height="288pt"
 viewBox="0.00 0.00 4561.00 288.00" xmlns="http://www.w3.org/2000/svg" xmlns:xlink="http://www.w3.org/1999/xlink">
<g id="graph0" class="graph" transform="scale(2.08333 2.08333) rotate(0) translate(4 134.23)">
<title>G</title>
<polygon fill="white" stroke="none" points="-4,4 -4,-134.23 2185.1,-134.23 2185.1,4 -4,4"/>
<!-- user_input -->
<g id="node1" class="node">
<title>user_input</title>
<ellipse fill="#fff3e0" stroke="black" cx="64.8" cy="-107.6" rx="64.8" ry="22.63"/>
<text xml:space="preserve" text-anchor="middle" x="64.8" y="-110.1" font-family="Helvetica,sans-Serif" font-size="10.00">User Input</text>
<text xml:space="preserve" text-anchor="middle" x="64.8" y="-98.1" font-family="Helvetica,sans-Serif" font-size="10.00">(Seed Materials)</text>
</g>
<!-- documents -->
<g id="node2" class="node">
<title>documents</title>
<path fill="#ffecb3" stroke="black" d="M328.6,-129.2C328.6,-129.2 208.6,-129.2 208.6,-129.2 202.6,-129.2 196.6,-123.2 196.6,-117.2 196.6,-117.2 196.6,-98 196.6,-98 196.6,-92 202.6,-86 208.6,-86 208.6,-86 328.6,-86 328.6,-86 334.6,-86 340.6,-92 340.6,-98 340.6,-98 340.6,-117.2 340.6,-117.2 340.6,-123.2 334.6,-129.2 328.6,-129.2"/>
<text xml:space="preserve" text-anchor="middle" x="268.6" y="-110.1" font-family="Helvetica,sans-Serif" font-size="10.00">Documents</text>
<text xml:space="preserve" text-anchor="middle" x="268.6" y="-98.1" font-family="Helvetica,sans-Serif" font-size="10.00">(News, Reports, Novels)</text>
</g>
<!-- user_input&#45;&gt;documents -->
<!-- text_processor -->
<g id="node4" class="node">
<title>text_processor</title>
<path fill="#e3f2fd" stroke="black" d="M561.7,-72.2C561.7,-72.2 456.1,-72.2 456.1,-72.2 450.1,-72.2 444.1,-66.2 444.1,-60.2 444.1,-60.2 444.1,-41 444.1,-41 444.1,-35 450.1,-29 456.1,-29 456.1,-29 561.7,-29 561.7,-29 567.7,-29 573.7,-35 573.7,-41 573.7,-41 573.7,-60.2 573.7,-60.2 573.7,-66.2 567.7,-72.2 561.7,-72.2"/>
<text xml:space="preserve" text-anchor="middle" x="508.9" y="-53.1" font-family="Helvetica,sans-Serif" font-size="10.00">Text Processor</text>
<text xml:space="preserve" text-anchor="middle" x="508.9" y="-41.1" font-family="Helvetica,sans-Serif" font-size="10.00">(Chunking)</text>
</g>
<!-- documents&#45;&gt;text_processor -->
<g id="edge2" class="edge">
<title>documents&#45;&gt;text_processor</title>
<path fill="none" stroke="#1976d2" d="M335.1,-85.57C335.1,-72.2 335.1,-57.7 335.1,-57.7 335.1,-57.7 434.18,-57.7 434.18,-57.7"/>
<polygon fill="#1976d2" stroke="#1976d2" points="434.18,-60.5 442.18,-57.7 434.18,-54.9 434.18,-60.5"/>
<text xml:space="preserve" text-anchor="middle" x="392.35" y="-95.55" font-family="Helvetica,sans-Serif" font-size="9.00"> upload</text>
</g>
<!-- requirements -->
<g id="node3" class="node">
<title>requirements</title>
<path fill="#ffecb3" stroke="black" d="M317.8,-43.2C317.8,-43.2 219.4,-43.2 219.4,-43.2 213.4,-43.2 207.4,-37.2 207.4,-31.2 207.4,-31.2 207.4,-12 207.4,-12 207.4,-6 213.4,0 219.4,0 219.4,0 317.8,0 317.8,0 323.8,0 329.8,-6 329.8,-12 329.8,-12 329.8,-31.2 329.8,-31.2 329.8,-37.2 323.8,-43.2 317.8,-43.2"/>
<text xml:space="preserve" text-anchor="middle" x="268.6" y="-24.1" font-family="Helvetica,sans-Serif" font-size="10.00">Prediction</text>
<text xml:space="preserve" text-anchor="middle" x="268.6" y="-12.1" font-family="Helvetica,sans-Serif" font-size="10.00">Requirements</text>
</g>
<!-- requirements&#45;&gt;text_processor -->
<g id="edge3" class="edge">
<title>requirements&#45;&gt;text_processor</title>
<path fill="none" stroke="#1976d2" d="M330.17,-36.1C330.17,-36.1 434.19,-36.1 434.19,-36.1"/>
<polygon fill="#1976d2" stroke="#1976d2" points="434.19,-38.9 442.19,-36.1 434.19,-33.3 434.19,-38.9"/>
<text xml:space="preserve" text-anchor="middle" x="392.35" y="-23.55" font-family="Helvetica,sans-Serif" font-size="9.00"> describe</text>
</g>
<!-- zep_cloud -->
<g id="node5" class="node">
<title>zep_cloud</title>
<path fill="#bbdefb" stroke="black" d="M815.2,-68.6C815.2,-70.81 782.93,-72.6 743.2,-72.6 703.47,-72.6 671.2,-70.81 671.2,-68.6 671.2,-68.6 671.2,-32.6 671.2,-32.6 671.2,-30.39 703.47,-28.6 743.2,-28.6 782.93,-28.6 815.2,-30.39 815.2,-32.6 815.2,-32.6 815.2,-68.6 815.2,-68.6"/>
<path fill="none" stroke="black" d="M815.2,-68.6C815.2,-66.39 782.93,-64.6 743.2,-64.6 703.47,-64.6 671.2,-66.39 671.2,-68.6"/>
<text xml:space="preserve" text-anchor="middle" x="743.2" y="-53.1" font-family="Helvetica,sans-Serif" font-size="10.00">Zep Cloud</text>
<text xml:space="preserve" text-anchor="middle" x="743.2" y="-41.1" font-family="Helvetica,sans-Serif" font-size="10.00">Knowledge Graph</text>
</g>
<!-- text_processor&#45;&gt;zep_cloud -->
<g id="edge4" class="edge">
<title>text_processor&#45;&gt;zep_cloud</title>
<path fill="none" stroke="#1976d2" d="M574.17,-50.6C574.17,-50.6 661.36,-50.6 661.36,-50.6"/>
<polygon fill="#1976d2" stroke="#1976d2" points="661.36,-53.4 669.36,-50.6 661.36,-47.8 661.36,-53.4"/>
<text xml:space="preserve" text-anchor="middle" x="622.45" y="-52.55" font-family="Helvetica,sans-Serif" font-size="9.00"> chunks</text>
</g>
<!-- graph_rag -->
<g id="node6" class="node">
<title>graph_rag</title>
<path fill="#e3f2fd" stroke="black" d="M1025.05,-72.2C1025.05,-72.2 919.45,-72.2 919.45,-72.2 913.45,-72.2 907.45,-66.2 907.45,-60.2 907.45,-60.2 907.45,-41 907.45,-41 907.45,-35 913.45,-29 919.45,-29 919.45,-29 1025.05,-29 1025.05,-29 1031.05,-29 1037.05,-35 1037.05,-41 1037.05,-41 1037.05,-60.2 1037.05,-60.2 1037.05,-66.2 1031.05,-72.2 1025.05,-72.2"/>
<text xml:space="preserve" text-anchor="middle" x="972.25" y="-53.1" font-family="Helvetica,sans-Serif" font-size="10.00">GraphRAG</text>
<text xml:space="preserve" text-anchor="middle" x="972.25" y="-41.1" font-family="Helvetica,sans-Serif" font-size="10.00">Construction</text>
</g>
<!-- zep_cloud&#45;&gt;graph_rag -->
<g id="edge5" class="edge">
<title>zep_cloud&#45;&gt;graph_rag</title>
<path fill="none" stroke="#1976d2" d="M815.67,-50.6C815.67,-50.6 897.71,-50.6 897.71,-50.6"/>
<polygon fill="#1976d2" stroke="#1976d2" points="897.71,-53.4 905.71,-50.6 897.71,-47.8 897.71,-53.4"/>
<text xml:space="preserve" text-anchor="middle" x="861.33" y="-52.55" font-family="Helvetica,sans-Serif" font-size="9.00"> graph</text>
</g>
<!-- entity_memory -->
<g id="node7" class="node">
<title>entity_memory</title>
<path fill="#e3f2fd" stroke="black" d="M1259.35,-72.2C1259.35,-72.2 1146.55,-72.2 1146.55,-72.2 1140.55,-72.2 1134.55,-66.2 1134.55,-60.2 1134.55,-60.2 1134.55,-41 1134.55,-41 1134.55,-35 1140.55,-29 1146.55,-29 1146.55,-29 1259.35,-29 1259.35,-29 1265.35,-29 1271.35,-35 1271.35,-41 1271.35,-41 1271.35,-60.2 1271.35,-60.2 1271.35,-66.2 1265.35,-72.2 1259.35,-72.2"/>
<text xml:space="preserve" text-anchor="middle" x="1202.95" y="-53.1" font-family="Helvetica,sans-Serif" font-size="10.00">Entity &amp; Memory</text>
<text xml:space="preserve" text-anchor="middle" x="1202.95" y="-41.1" font-family="Helvetica,sans-Serif" font-size="10.00">Injection</text>
</g>
<!-- graph_rag&#45;&gt;entity_memory -->
<g id="edge6" class="edge">
<title>graph_rag&#45;&gt;entity_memory</title>
<path fill="none" stroke="#1976d2" d="M1037.43,-50.6C1037.43,-50.6 1124.79,-50.6 1124.79,-50.6"/>
<polygon fill="#1976d2" stroke="#1976d2" points="1124.79,-53.4 1132.79,-50.6 1124.79,-47.8 1124.79,-53.4"/>
<text xml:space="preserve" text-anchor="middle" x="1085.8" y="-52.55" font-family="Helvetica,sans-Serif" font-size="9.00"> entities</text>
</g>
<!-- entity_extract -->
<g id="node8" class="node">
<title>entity_extract</title>
<path fill="#c8e6c9" stroke="black" d="M1469.8,-72.2C1469.8,-72.2 1378.6,-72.2 1378.6,-72.2 1372.6,-72.2 1366.6,-66.2 1366.6,-60.2 1366.6,-60.2 1366.6,-41 1366.6,-41 1366.6,-35 1372.6,-29 1378.6,-29 1378.6,-29 1469.8,-29 1469.8,-29 1475.8,-29 1481.8,-35 1481.8,-41 1481.8,-41 1481.8,-60.2 1481.8,-60.2 1481.8,-66.2 1475.8,-72.2 1469.8,-72.2"/>
<text xml:space="preserve" text-anchor="middle" x="1424.2" y="-53.1" font-family="Helvetica,sans-Serif" font-size="10.00">Entity</text>
<text xml:space="preserve" text-anchor="middle" x="1424.2" y="-41.1" font-family="Helvetica,sans-Serif" font-size="10.00">Extraction</text>
</g>
<!-- entity_memory&#45;&gt;entity_extract -->
<g id="edge7" class="edge">
<title>entity_memory&#45;&gt;entity_extract</title>
<path fill="none" stroke="#4caf50" d="M1271.74,-50.6C1271.74,-50.6 1356.73,-50.6 1356.73,-50.6"/>
<polygon fill="#4caf50" stroke="#4caf50" points="1356.73,-53.4 1364.73,-50.6 1356.73,-47.8 1356.73,-53.4"/>
<text xml:space="preserve" text-anchor="middle" x="1318.98" y="-52.55" font-family="Helvetica,sans-Serif" font-size="9.00"> extract</text>
</g>
<!-- persona_gen -->
<g id="node9" class="node">
<title>persona_gen</title>
<path fill="#c8e6c9" stroke="black" d="M1682.5,-72.2C1682.5,-72.2 1591.3,-72.2 1591.3,-72.2 1585.3,-72.2 1579.3,-66.2 1579.3,-60.2 1579.3,-60.2 1579.3,-41 1579.3,-41 1579.3,-35 1585.3,-29 1591.3,-29 1591.3,-29 1682.5,-29 1682.5,-29 1688.5,-29 1694.5,-35 1694.5,-41 1694.5,-41 1694.5,-60.2 1694.5,-60.2 1694.5,-66.2 1688.5,-72.2 1682.5,-72.2"/>
<text xml:space="preserve" text-anchor="middle" x="1636.9" y="-53.1" font-family="Helvetica,sans-Serif" font-size="10.00">Persona</text>
<text xml:space="preserve" text-anchor="middle" x="1636.9" y="-41.1" font-family="Helvetica,sans-Serif" font-size="10.00">Generation</text>
</g>
<!-- entity_extract&#45;&gt;persona_gen -->
<g id="edge8" class="edge">
<title>entity_extract&#45;&gt;persona_gen</title>
<path fill="none" stroke="#1976d2" d="M1482.04,-50.6C1482.04,-50.6 1569.56,-50.6 1569.56,-50.6"/>
<polygon fill="#1976d2" stroke="#1976d2" points="1569.56,-53.4 1577.56,-50.6 1569.56,-47.8 1569.56,-53.4"/>
<text xml:space="preserve" text-anchor="middle" x="1530.55" y="-52.55" font-family="Helvetica,sans-Serif" font-size="9.00"> entities</text>
</g>
<!-- agent_config -->
<g id="node10" class="node">
<title>agent_config</title>
<path fill="#c8e6c9" stroke="black" d="M1904.2,-72.2C1904.2,-72.2 1813,-72.2 1813,-72.2 1807,-72.2 1801,-66.2 1801,-60.2 1801,-60.2 1801,-41 1801,-41 1801,-35 1807,-29 1813,-29 1813,-29 1904.2,-29 1904.2,-29 1910.2,-29 1916.2,-35 1916.2,-41 1916.2,-41 1916.2,-60.2 1916.2,-60.2 1916.2,-66.2 1910.2,-72.2 1904.2,-72.2"/>
<text xml:space="preserve" text-anchor="middle" x="1858.6" y="-53.1" font-family="Helvetica,sans-Serif" font-size="10.00">Agent</text>
<text xml:space="preserve" text-anchor="middle" x="1858.6" y="-41.1" font-family="Helvetica,sans-Serif" font-size="10.00">Configuration</text>
</g>
<!-- persona_gen&#45;&gt;agent_config -->
<g id="edge9" class="edge">
<title>persona_gen&#45;&gt;agent_config</title>
<path fill="none" stroke="#1976d2" d="M1694.86,-50.6C1694.86,-50.6 1791.08,-50.6 1791.08,-50.6"/>
<polygon fill="#1976d2" stroke="#1976d2" points="1791.08,-53.4 1799.08,-50.6 1791.08,-47.8 1791.08,-53.4"/>
<text xml:space="preserve" text-anchor="middle" x="1747.75" y="-52.55" font-family="Helvetica,sans-Serif" font-size="9.00"> personas</text>
</g>
<!-- agent_profiles -->
<g id="node11" class="node">
<title>agent_profiles</title>
<polygon fill="#a5d6a7" stroke="black" points="2181.1,-72.2 2026.7,-72.2 2022.7,-68.2 2022.7,-29 2177.1,-29 2181.1,-33 2181.1,-72.2"/>
<polyline fill="none" stroke="black" points="2177.1,-68.2 2022.7,-68.2"/>
<polyline fill="none" stroke="black" points="2177.1,-68.2 2177.1,-29"/>
<polyline fill="none" stroke="black" points="2177.1,-68.2 2181.1,-72.2"/>
<text xml:space="preserve" text-anchor="middle" x="2101.9" y="-53.1" font-family="Helvetica,sans-Serif" font-size="10.00">Agent Profiles</text>
<text xml:space="preserve" text-anchor="middle" x="2101.9" y="-41.1" font-family="Helvetica,sans-Serif" font-size="10.00">(Personality, Memory, Behavior)</text>
</g>
<!-- agent_config&#45;&gt;agent_profiles -->
<g id="edge10" class="edge">
<title>agent_config&#45;&gt;agent_profiles</title>
<path fill="none" stroke="#1976d2" d="M1916.57,-50.6C1916.57,-50.6 2012.78,-50.6 2012.78,-50.6"/>
<polygon fill="#1976d2" stroke="#1976d2" points="2012.78,-53.4 2020.78,-50.6 2012.78,-47.8 2012.78,-53.4"/>
<text xml:space="preserve" text-anchor="middle" x="1969.45" y="-52.55" font-family="Helvetica,sans-Serif" font-size="9.00"> configure</text>
</g>
</g>
</svg>
