<?xml version="1.0" encoding="UTF-8" standalone="no"?>
<!DOCTYPE svg PUBLIC "-//W3C//DTD SVG 1.1//EN"
 "http://www.w3.org/Graphics/SVG/1.1/DTD/svg11.dtd">
<!-- Generated by graphviz version 14.1.4 (20260321.0153)
 -->
<!-- Title: G Pages: 1 -->
<svg width="4429pt" height="286pt"
 viewBox="0.00 0.00 4429.00 286.00" xmlns="http://www.w3.org/2000/svg" xmlns:xlink="http://www.w3.org/1999/xlink">
<g id="graph0" class="graph" transform="scale(2.08333 2.08333) rotate(0) translate(4 133.2)">
<title>G</title>
<polygon fill="white" stroke="none" points="-4,4 -4,-133.2 2121.8,-133.2 2121.8,4 -4,4"/>
<!-- agent_profiles_input -->
<g id="node1" class="node">
<title>agent_profiles_input</title>
<polygon fill="#a5d6a7" stroke="black" points="144,-85.2 4,-85.2 0,-81.2 0,-42 140,-42 144,-46 144,-85.2"/>
<polyline fill="none" stroke="black" points="140,-81.2 0,-81.2"/>
<polyline fill="none" stroke="black" points="140,-81.2 140,-42"/>
<polyline fill="none" stroke="black" points="140,-81.2 144,-85.2"/>
<text xml:space="preserve" text-anchor="middle" x="72" y="-66.1" font-family="Helvetica,sans-Serif" font-size="10.00">Agent Profiles</text>
<text xml:space="preserve" text-anchor="middle" x="72" y="-54.1" font-family="Helvetica,sans-Serif" font-size="10.00">(From Part 1)</text>
</g>
<!-- oasis_engine -->
<g id="node2" class="node">
<title>oasis_engine</title>
<polygon fill="#f3e5f5" stroke="black" points="392.4,-85.2 238,-85.2 234,-81.2 234,-42 388.4,-42 392.4,-46 392.4,-85.2"/>
<polyline fill="none" stroke="black" points="388.4,-81.2 234,-81.2"/>
<polyline fill="none" stroke="black" points="388.4,-81.2 388.4,-42"/>
<polyline fill="none" stroke="black" points="388.4,-81.2 392.4,-85.2"/>
<text xml:space="preserve" text-anchor="middle" x="313.2" y="-66.1" font-family="Helvetica,sans-Serif" font-size="10.00">OASIS Engine</text>
<text xml:space="preserve" text-anchor="middle" x="313.2" y="-54.1" font-family="Helvetica,sans-Serif" font-size="10.00">(Social Simulation)</text>
</g>
<!-- agent_profiles_input&#45;&gt;oasis_engine -->
<g id="edge1" class="edge">
<title>agent_profiles_input&#45;&gt;oasis_engine</title>
<path fill="none" stroke="#4caf50" d="M144.37,-63.6C144.37,-63.6 224.21,-63.6 224.21,-63.6"/>
<polygon fill="#4caf50" stroke="#4caf50" points="224.21,-66.4 232.21,-63.6 224.21,-60.8 224.21,-66.4"/>
<text xml:space="preserve" text-anchor="middle" x="189" y="-65.55" font-family="Helvetica,sans-Serif" font-size="9.00"> inject</text>
</g>
<!-- twitter_sim -->
<g id="node3" class="node">
<title>twitter_sim</title>
<path fill="#e1bee7" stroke="black" d="M562.6,-129.2C562.6,-129.2 471.4,-129.2 471.4,-129.2 465.4,-129.2 459.4,-123.2 459.4,-117.2 459.4,-117.2 459.4,-98 459.4,-98 459.4,-92 465.4,-86 471.4,-86 471.4,-86 562.6,-86 562.6,-86 568.6,-86 574.6,-92 574.6,-98 574.6,-98 574.6,-117.2 574.6,-117.2 574.6,-123.2 568.6,-129.2 562.6,-129.2"/>
<text xml:space="preserve" text-anchor="middle" x="517" y="-110.1" font-family="Helvetica,sans-Serif" font-size="10.00">Twitter</text>
<text xml:space="preserve" text-anchor="middle" x="517" y="-98.1" font-family="Helvetica,sans-Serif" font-size="10.00">Simulation</text>
</g>
<!-- oasis_engine&#45;&gt;twitter_sim -->
<g id="edge2" class="edge">
<title>oasis_engine&#45;&gt;twitter_sim</title>
<path fill="none" stroke="#1976d2" d="M392.54,-68.4C436.68,-68.4 482.8,-68.4 482.8,-68.4 482.8,-68.4 482.8,-76.19 482.8,-76.19"/>
<polygon fill="#1976d2" stroke="#1976d2" points="480,-76.19 482.8,-84.19 485.6,-76.19 480,-76.19"/>
</g>
<!-- reddit_sim -->
<g id="node4" class="node">
<title>reddit_sim</title>
<path fill="#e1bee7" stroke="black" d="M562.6,-43.2C562.6,-43.2 471.4,-43.2 471.4,-43.2 465.4,-43.2 459.4,-37.2 459.4,-31.2 459.4,-31.2 459.4,-12 459.4,-12 459.4,-6 465.4,0 471.4,0 471.4,0 562.6,0 562.6,0 568.6,0 574.6,-6 574.6,-12 574.6,-12 574.6,-31.2 574.6,-31.2 574.6,-37.2 568.6,-43.2 562.6,-43.2"/>
<text xml:space="preserve" text-anchor="middle" x="517" y="-24.1" font-family="Helvetica,sans-Serif" font-size="10.00">Reddit</text>
<text xml:space="preserve" text-anchor="middle" x="517" y="-12.1" font-family="Helvetica,sans-Serif" font-size="10.00">Simulation</text>
</g>
<!-- oasis_engine&#45;&gt;reddit_sim -->
<g id="edge3" class="edge">
<title>oasis_engine&#45;&gt;reddit_sim</title>
<path fill="none" stroke="#1976d2" d="M392.65,-51.6C445.7,-51.6 505.8,-51.6 505.8,-51.6 505.8,-51.6 505.8,-50.78 505.8,-50.78"/>
<polygon fill="#1976d2" stroke="#1976d2" points="508.6,-52.92 505.8,-44.92 503,-52.92 508.6,-52.92"/>
</g>
<!-- multi_agent -->
<g id="node5" class="node">
<title>multi_agent</title>
<path fill="#f3e5f5" stroke="black" d="M759.2,-85.2C759.2,-85.2 653.6,-85.2 653.6,-85.2 647.6,-85.2 641.6,-79.2 641.6,-73.2 641.6,-73.2 641.6,-54 641.6,-54 641.6,-48 647.6,-42 653.6,-42 653.6,-42 759.2,-42 759.2,-42 765.2,-42 771.2,-48 771.2,-54 771.2,-54 771.2,-73.2 771.2,-73.2 771.2,-79.2 765.2,-85.2 759.2,-85.2"/>
<text xml:space="preserve" text-anchor="middle" x="706.4" y="-66.1" font-family="Helvetica,sans-Serif" font-size="10.00">Multi&#45;Agent</text>
<text xml:space="preserve" text-anchor="middle" x="706.4" y="-54.1" font-family="Helvetica,sans-Serif" font-size="10.00">Interaction</text>
</g>
<!-- twitter_sim&#45;&gt;multi_agent -->
<g id="edge4" class="edge">
<title>twitter_sim&#45;&gt;multi_agent</title>
<path fill="none" stroke="#1976d2" d="M551.8,-85.54C551.8,-80.61 551.8,-76.8 551.8,-76.8 551.8,-76.8 631.77,-76.8 631.77,-76.8"/>
<polygon fill="#1976d2" stroke="#1976d2" points="631.77,-79.6 639.77,-76.8 631.77,-74 631.77,-79.6"/>
</g>
<!-- reddit_sim&#45;&gt;multi_agent -->
<g id="edge5" class="edge">
<title>reddit_sim&#45;&gt;multi_agent</title>
<path fill="none" stroke="#1976d2" d="M528.8,-43.49C528.8,-52.12 528.8,-60 528.8,-60 528.8,-60 631.76,-60 631.76,-60"/>
<polygon fill="#1976d2" stroke="#1976d2" points="631.76,-62.8 639.76,-60 631.76,-57.2 631.76,-62.8"/>
</g>
<!-- temporal_memory -->
<g id="node6" class="node">
<title>temporal_memory</title>
<path fill="#f3e5f5" stroke="black" d="M991.25,-85.2C991.25,-85.2 878.45,-85.2 878.45,-85.2 872.45,-85.2 866.45,-79.2 866.45,-73.2 866.45,-73.2 866.45,-54 866.45,-54 866.45,-48 872.45,-42 878.45,-42 878.45,-42 991.25,-42 991.25,-42 997.25,-42 1003.25,-48 1003.25,-54 1003.25,-54 1003.25,-73.2 1003.25,-73.2 1003.25,-79.2 997.25,-85.2 991.25,-85.2"/>
<text xml:space="preserve" text-anchor="middle" x="934.85" y="-66.1" font-family="Helvetica,sans-Serif" font-size="10.00">Temporal Memory</text>
<text xml:space="preserve" text-anchor="middle" x="934.85" y="-54.1" font-family="Helvetica,sans-Serif" font-size="10.00">Updates</text>
</g>
<!-- multi_agent&#45;&gt;temporal_memory -->
<g id="edge6" class="edge">
<title>multi_agent&#45;&gt;temporal_memory</title>
<path fill="none" stroke="#1976d2" d="M771.56,-63.6C771.56,-63.6 856.5,-63.6 856.5,-63.6"/>
<polygon fill="#1976d2" stroke="#1976d2" points="856.5,-66.4 864.5,-63.6 856.5,-60.8 856.5,-66.4"/>
<text xml:space="preserve" text-anchor="middle" x="818.83" y="-65.55" font-family="Helvetica,sans-Serif" font-size="9.00"> evolve</text>
</g>
<!-- report_agent -->
<g id="node7" class="node">
<title>report_agent</title>
<path fill="#ffcdd2" stroke="black" d="M1221.35,-85.2C1221.35,-85.2 1115.75,-85.2 1115.75,-85.2 1109.75,-85.2 1103.75,-79.2 1103.75,-73.2 1103.75,-73.2 1103.75,-54 1103.75,-54 1103.75,-48 1109.75,-42 1115.75,-42 1115.75,-42 1221.35,-42 1221.35,-42 1227.35,-42 1233.35,-48 1233.35,-54 1233.35,-54 1233.35,-73.2 1233.35,-73.2 1233.35,-79.2 1227.35,-85.2 1221.35,-85.2"/>
<text xml:space="preserve" text-anchor="middle" x="1168.55" y="-66.1" font-family="Helvetica,sans-Serif" font-size="10.00">ReportAgent</text>
<text xml:space="preserve" text-anchor="middle" x="1168.55" y="-54.1" font-family="Helvetica,sans-Serif" font-size="10.00">(Analysis)</text>
</g>
<!-- temporal_memory&#45;&gt;report_agent -->
<g id="edge7" class="edge">
<title>temporal_memory&#45;&gt;report_agent</title>
<path fill="none" stroke="#e91e63" d="M1003.7,-63.6C1003.7,-63.6 1093.88,-63.6 1093.88,-63.6"/>
<polygon fill="#e91e63" stroke="#e91e63" points="1093.88,-66.4 1101.88,-63.6 1093.88,-60.8 1093.88,-66.4"/>
<text xml:space="preserve" text-anchor="middle" x="1053.5" y="-65.55" font-family="Helvetica,sans-Serif" font-size="9.00"> analyze</text>
</g>
<!-- prediction_report -->
<g id="node8" class="node">
<title>prediction_report</title>
<polygon fill="#ffcdd2" stroke="black" points="1454.75,-85.2 1338.35,-85.2 1338.35,-42 1460.75,-42 1460.75,-79.2 1454.75,-85.2"/>
<polyline fill="none" stroke="black" points="1454.75,-85.2 1454.75,-79.2"/>
<polyline fill="none" stroke="black" points="1460.75,-79.2 1454.75,-79.2"/>
<text xml:space="preserve" text-anchor="middle" x="1399.55" y="-66.1" font-family="Helvetica,sans-Serif" font-size="10.00">Prediction</text>
<text xml:space="preserve" text-anchor="middle" x="1399.55" y="-54.1" font-family="Helvetica,sans-Serif" font-size="10.00">Report</text>
</g>
<!-- report_agent&#45;&gt;prediction_report -->
<g id="edge8" class="edge">
<title>report_agent&#45;&gt;prediction_report</title>
<path fill="none" stroke="#1976d2" d="M1233.82,-63.6C1233.82,-63.6 1328.5,-63.6 1328.5,-63.6"/>
<polygon fill="#1976d2" stroke="#1976d2" points="1328.5,-66.4 1336.5,-63.6 1328.5,-60.8 1328.5,-66.4"/>
<text xml:space="preserve" text-anchor="middle" x="1285.85" y="-65.55" font-family="Helvetica,sans-Serif" font-size="9.00"> generate</text>
</g>
<!-- chat_interface -->
<g id="node9" class="node">
<title>chat_interface</title>
<path fill="#b2dfdb" stroke="black" d="M1683.8,-85.2C1683.8,-85.2 1571,-85.2 1571,-85.2 1565,-85.2 1559,-79.2 1559,-73.2 1559,-73.2 1559,-54 1559,-54 1559,-48 1565,-42 1571,-42 1571,-42 1683.8,-42 1683.8,-42 1689.8,-42 1695.8,-48 1695.8,-54 1695.8,-54 1695.8,-73.2 1695.8,-73.2 1695.8,-79.2 1689.8,-85.2 1683.8,-85.2"/>
<text xml:space="preserve" text-anchor="middle" x="1627.4" y="-66.1" font-family="Helvetica,sans-Serif" font-size="10.00">Chat Interface</text>
<text xml:space="preserve" text-anchor="middle" x="1627.4" y="-54.1" font-family="Helvetica,sans-Serif" font-size="10.00">(User Interaction)</text>
</g>
<!-- prediction_report&#45;&gt;chat_interface -->
<g id="edge9" class="edge">
<title>prediction_report&#45;&gt;chat_interface</title>
<path fill="none" stroke="#009688" d="M1461.21,-63.6C1461.21,-63.6 1549.36,-63.6 1549.36,-63.6"/>
<polygon fill="#009688" stroke="#009688" points="1549.36,-66.4 1557.36,-63.6 1549.36,-60.8 1549.36,-66.4"/>
<text xml:space="preserve" text-anchor="middle" x="1509.88" y="-65.55" font-family="Helvetica,sans-Serif" font-size="9.00"> interact</text>
</g>
<!-- agent_chat -->
<g id="node10" class="node">
<title>agent_chat</title>
<path fill="#b2dfdb" stroke="black" d="M1880.4,-85.2C1880.4,-85.2 1774.8,-85.2 1774.8,-85.2 1768.8,-85.2 1762.8,-79.2 1762.8,-73.2 1762.8,-73.2 1762.8,-54 1762.8,-54 1762.8,-48 1768.8,-42 1774.8,-42 1774.8,-42 1880.4,-42 1880.4,-42 1886.4,-42 1892.4,-48 1892.4,-54 1892.4,-54 1892.4,-73.2 1892.4,-73.2 1892.4,-79.2 1886.4,-85.2 1880.4,-85.2"/>
<text xml:space="preserve" text-anchor="middle" x="1827.6" y="-66.1" font-family="Helvetica,sans-Serif" font-size="10.00">Chat with</text>
<text xml:space="preserve" text-anchor="middle" x="1827.6" y="-54.1" font-family="Helvetica,sans-Serif" font-size="10.00">Simulated Agents</text>
</g>
<!-- chat_interface&#45;&gt;agent_chat -->
<g id="edge10" class="edge">
<title>chat_interface&#45;&gt;agent_chat</title>
<path fill="none" stroke="#1976d2" d="M1696.3,-63.6C1696.3,-63.6 1753.11,-63.6 1753.11,-63.6"/>
<polygon fill="#1976d2" stroke="#1976d2" points="1753.11,-66.4 1761.11,-63.6 1753.11,-60.8 1753.11,-66.4"/>
</g>
<!-- final_output -->
<g id="node11" class="node">
<title>final_output</title>
<ellipse fill="#4caf50" stroke="black" cx="2038.6" cy="-63.6" rx="79.2" ry="22.63"/>
<text xml:space="preserve" text-anchor="middle" x="2038.6" y="-66.1" font-family="Helvetica,sans-Serif" font-size="10.00" fill="white">Prediction Results</text>
<text xml:space="preserve" text-anchor="middle" x="2038.6" y="-54.1" font-family="Helvetica,sans-Serif" font-size="10.00" fill="white">&amp; Interactive World</text>
</g>
<!-- agent_chat&#45;&gt;final_output -->
<g id="edge11" class="edge">
<title>agent_chat&#45;&gt;final_output</title>
<path fill="none" stroke="#1976d2" d="M1892.63,-63.6C1892.63,-63.6 1949.4,-63.6 1949.4,-63.6"/>
<polygon fill="#1976d2" stroke="#1976d2" points="1949.4,-66.4 1957.4,-63.6 1949.4,-60.8 1949.4,-66.4"/>
</g>
</g>
</svg>
