<?xml version="1.0" encoding="UTF-8" standalone="no"?>
<!DOCTYPE svg PUBLIC "-//W3C//DTD SVG 1.1//EN"
 "http://www.w3.org/Graphics/SVG/1.1/DTD/svg11.dtd">
<!-- Generated by graphviz version 14.1.4 (20260321.0153)
 -->
<!-- Title: nm_pipeline Pages: 1 -->
<svg width="246pt" height="1103pt"
 viewBox="0.00 0.00 246.00 1103.00" xmlns="http://www.w3.org/2000/svg" xmlns:xlink="http://www.w3.org/1999/xlink">
<style>
<!-- White text halo for edge label readability -->
text { paint-order: stroke; stroke: #ffffff; stroke-width: 3px; stroke-linejoin: round; fill: #1a1a2e; }
</style>
<g id="graph0" class="graph" transform="scale(1 1) rotate(0) translate(4 1099)">
<title>nm_pipeline</title>
<polygon fill="white" stroke="none" points="-4,4 -4,-1099 242.25,-1099 242.25,4 -4,4"/>
<text xml:space="preserve" text-anchor="middle" x="119.12" y="-7.2" font-family="Times New Roman,serif" font-size="14.00">no&#45;mistakes &#45; Validation Pipeline</text>
<!-- title -->
<g id="node1" class="node">
<title>title</title>
<path fill="#1565c0" stroke="black" d="M215.38,-1095C215.38,-1095 104.12,-1095 104.12,-1095 98.12,-1095 92.12,-1089 92.12,-1083 92.12,-1083 92.12,-1071 92.12,-1071 92.12,-1065 98.12,-1059 104.12,-1059 104.12,-1059 215.38,-1059 215.38,-1059 221.38,-1059 227.38,-1065 227.38,-1071 227.38,-1071 227.38,-1083 227.38,-1083 227.38,-1089 221.38,-1095 215.38,-1095"/>
<text xml:space="preserve" text-anchor="middle" x="159.75" y="-1071.58" font-family="Arial Bold" font-size="14.00" fill="#ffffff">Validation Pipeline</text>
</g>
<!-- branch -->
<g id="node2" class="node">
<title>branch</title>
<polygon fill="#4caf50" stroke="black" points="197.38,-1001 122.12,-1001 122.12,-965 197.38,-965 197.38,-1001"/>
<text xml:space="preserve" text-anchor="middle" x="159.75" y="-979.3" font-family="Arial" font-size="11.00" fill="#ffffff">Your Branch</text>
</g>
<!-- title&#45;&gt;branch -->
<g id="edge1" class="edge">
<title>title&#45;&gt;branch</title>
<path fill="none" stroke="#2196f3" stroke-width="2" d="M159.75,-1058.88C159.75,-1058.88 159.75,-1014.42 159.75,-1014.42"/>
<polygon fill="#2196f3" stroke="#2196f3" stroke-width="2" points="163.25,-1014.42 159.75,-1004.42 156.25,-1014.42 163.25,-1014.42"/>
</g>
<!-- push -->
<g id="node3" class="node">
<title>push</title>
<path fill="#2196f3" stroke="black" d="M215.38,-907C215.38,-907 104.12,-907 104.12,-907 98.12,-907 92.12,-901 92.12,-895 92.12,-895 92.12,-883 92.12,-883 92.12,-877 98.12,-871 104.12,-871 104.12,-871 215.38,-871 215.38,-871 221.38,-871 227.38,-877 227.38,-883 227.38,-883 227.38,-895 227.38,-895 227.38,-901 221.38,-907 215.38,-907"/>
<text xml:space="preserve" text-anchor="middle" x="159.75" y="-884.73" font-family="Arial Bold" font-size="12.00" fill="#ffffff">git push no&#45;mistakes</text>
</g>
<!-- branch&#45;&gt;push -->
<g id="edge2" class="edge">
<title>branch&#45;&gt;push</title>
<path fill="none" stroke="#4caf50" stroke-width="2" d="M159.75,-964.88C159.75,-964.88 159.75,-920.42 159.75,-920.42"/>
<polygon fill="#4caf50" stroke="#4caf50" stroke-width="2" points="163.25,-920.42 159.75,-910.42 156.25,-920.42 163.25,-920.42"/>
</g>
<!-- worktree -->
<g id="node4" class="node">
<title>worktree</title>
<path fill="#2196f3" stroke="black" d="M226.25,-813C226.25,-813 93.25,-813 93.25,-813 87.25,-813 81.25,-807 81.25,-801 81.25,-801 81.25,-788.5 81.25,-788.5 81.25,-782.5 87.25,-776.5 93.25,-776.5 93.25,-776.5 226.25,-776.5 226.25,-776.5 232.25,-776.5 238.25,-782.5 238.25,-788.5 238.25,-788.5 238.25,-801 238.25,-801 238.25,-807 232.25,-813 226.25,-813"/>
<text xml:space="preserve" text-anchor="middle" x="159.75" y="-797.6" font-family="Arial Bold" font-size="12.00" fill="#ffffff">Disposable Worktree</text>
<text xml:space="preserve" text-anchor="middle" x="159.75" y="-783.35" font-family="Arial Bold" font-size="12.00" fill="#ffffff">(isolate your working dir)</text>
</g>
<!-- push&#45;&gt;worktree -->
<g id="edge3" class="edge">
<title>push&#45;&gt;worktree</title>
<path fill="none" stroke="#2196f3" stroke-width="2" d="M159.75,-870.83C159.75,-870.83 159.75,-826.22 159.75,-826.22"/>
<polygon fill="#2196f3" stroke="#2196f3" stroke-width="2" points="163.25,-826.22 159.75,-816.22 156.25,-826.22 163.25,-826.22"/>
</g>
<!-- review -->
<g id="node5" class="node">
<title>review</title>
<path fill="#2196f3" stroke="black" d="M134.38,-718.5C134.38,-718.5 101.12,-718.5 101.12,-718.5 95.12,-718.5 89.12,-712.5 89.12,-706.5 89.12,-706.5 89.12,-694.5 89.12,-694.5 89.12,-688.5 95.12,-682.5 101.12,-682.5 101.12,-682.5 134.38,-682.5 134.38,-682.5 140.38,-682.5 146.38,-688.5 146.38,-694.5 146.38,-694.5 146.38,-706.5 146.38,-706.5 146.38,-712.5 140.38,-718.5 134.38,-718.5"/>
<text xml:space="preserve" text-anchor="middle" x="117.75" y="-696.23" font-family="Arial Bold" font-size="12.00" fill="#ffffff">Review</text>
</g>
<!-- worktree&#45;&gt;review -->
<g id="edge4" class="edge">
<title>worktree&#45;&gt;review</title>
<path fill="none" stroke="#00bcd4" stroke-width="2" d="M117.75,-776.13C117.75,-776.13 117.75,-731.79 117.75,-731.79"/>
<polygon fill="#00bcd4" stroke="#00bcd4" stroke-width="2" points="121.25,-731.79 117.75,-721.79 114.25,-731.79 121.25,-731.79"/>
</g>
<!-- test -->
<g id="node6" class="node">
<title>test</title>
<path fill="#2196f3" stroke="black" d="M126.75,-624.5C126.75,-624.5 96.75,-624.5 96.75,-624.5 90.75,-624.5 84.75,-618.5 84.75,-612.5 84.75,-612.5 84.75,-600.5 84.75,-600.5 84.75,-594.5 90.75,-588.5 96.75,-588.5 96.75,-588.5 126.75,-588.5 126.75,-588.5 132.75,-588.5 138.75,-594.5 138.75,-600.5 138.75,-600.5 138.75,-612.5 138.75,-612.5 138.75,-618.5 132.75,-624.5 126.75,-624.5"/>
<text xml:space="preserve" text-anchor="middle" x="111.75" y="-602.23" font-family="Arial Bold" font-size="12.00" fill="#ffffff">Test</text>
</g>
<!-- review&#45;&gt;test -->
<g id="edge5" class="edge">
<title>review&#45;&gt;test</title>
<path fill="none" stroke="#00bcd4" stroke-width="2" d="M113.94,-682.38C113.94,-682.38 113.94,-637.92 113.94,-637.92"/>
<polygon fill="#00bcd4" stroke="#00bcd4" stroke-width="2" points="117.44,-637.92 113.94,-627.92 110.44,-637.92 117.44,-637.92"/>
</g>
<!-- docs -->
<g id="node7" class="node">
<title>docs</title>
<path fill="#2196f3" stroke="black" d="M115.75,-530.5C115.75,-530.5 85.75,-530.5 85.75,-530.5 79.75,-530.5 73.75,-524.5 73.75,-518.5 73.75,-518.5 73.75,-506.5 73.75,-506.5 73.75,-500.5 79.75,-494.5 85.75,-494.5 85.75,-494.5 115.75,-494.5 115.75,-494.5 121.75,-494.5 127.75,-500.5 127.75,-506.5 127.75,-506.5 127.75,-518.5 127.75,-518.5 127.75,-524.5 121.75,-530.5 115.75,-530.5"/>
<text xml:space="preserve" text-anchor="middle" x="100.75" y="-508.23" font-family="Arial Bold" font-size="12.00" fill="#ffffff">Docs</text>
</g>
<!-- test&#45;&gt;docs -->
<g id="edge6" class="edge">
<title>test&#45;&gt;docs</title>
<path fill="none" stroke="#00bcd4" stroke-width="2" d="M106.25,-588.38C106.25,-588.38 106.25,-543.92 106.25,-543.92"/>
<polygon fill="#00bcd4" stroke="#00bcd4" stroke-width="2" points="109.75,-543.92 106.25,-533.92 102.75,-543.92 109.75,-543.92"/>
</g>
<!-- lint -->
<g id="node8" class="node">
<title>lint</title>
<path fill="#2196f3" stroke="black" d="M92.75,-436.5C92.75,-436.5 62.75,-436.5 62.75,-436.5 56.75,-436.5 50.75,-430.5 50.75,-424.5 50.75,-424.5 50.75,-412.5 50.75,-412.5 50.75,-406.5 56.75,-400.5 62.75,-400.5 62.75,-400.5 92.75,-400.5 92.75,-400.5 98.75,-400.5 104.75,-406.5 104.75,-412.5 104.75,-412.5 104.75,-424.5 104.75,-424.5 104.75,-430.5 98.75,-436.5 92.75,-436.5"/>
<text xml:space="preserve" text-anchor="middle" x="77.75" y="-414.23" font-family="Arial Bold" font-size="12.00" fill="#ffffff">Lint</text>
</g>
<!-- docs&#45;&gt;lint -->
<g id="edge7" class="edge">
<title>docs&#45;&gt;lint</title>
<path fill="none" stroke="#00bcd4" stroke-width="2" d="M89.25,-494.38C89.25,-494.38 89.25,-449.92 89.25,-449.92"/>
<polygon fill="#00bcd4" stroke="#00bcd4" stroke-width="2" points="92.75,-449.92 89.25,-439.92 85.75,-449.92 92.75,-449.92"/>
</g>
<!-- forward -->
<g id="node9" class="node">
<title>forward</title>
<path fill="#2196f3" stroke="black" d="M137.5,-342.5C137.5,-342.5 12,-342.5 12,-342.5 6,-342.5 0,-336.5 0,-330.5 0,-330.5 0,-318.5 0,-318.5 0,-312.5 6,-306.5 12,-306.5 12,-306.5 137.5,-306.5 137.5,-306.5 143.5,-306.5 149.5,-312.5 149.5,-318.5 149.5,-318.5 149.5,-330.5 149.5,-330.5 149.5,-336.5 143.5,-342.5 137.5,-342.5"/>
<text xml:space="preserve" text-anchor="middle" x="74.75" y="-320.23" font-family="Arial Bold" font-size="12.00" fill="#ffffff">Forward to Push Target</text>
</g>
<!-- lint&#45;&gt;forward -->
<g id="edge8" class="edge">
<title>lint&#45;&gt;forward</title>
<path fill="none" stroke="#2196f3" stroke-width="2" d="M77.75,-400.38C77.75,-400.38 77.75,-355.92 77.75,-355.92"/>
<polygon fill="#2196f3" stroke="#2196f3" stroke-width="2" points="81.25,-355.92 77.75,-345.92 74.25,-355.92 81.25,-355.92"/>
<text xml:space="preserve" text-anchor="middle" x="54.12" y="-381.35" font-family="Times New Roman,serif" font-size="14.00">all green</text>
</g>
<!-- pr -->
<g id="node10" class="node">
<title>pr</title>
<polygon fill="#ff9800" stroke="black" points="136,-248.5 43.5,-248.5 43.5,-212.5 136,-212.5 136,-248.5"/>
<text xml:space="preserve" text-anchor="middle" x="89.75" y="-226.8" font-family="Arial" font-size="11.00" fill="#ffffff">Open Clean PR</text>
</g>
<!-- forward&#45;&gt;pr -->
<g id="edge9" class="edge">
<title>forward&#45;&gt;pr</title>
<path fill="none" stroke="#ff9800" stroke-width="2" d="M89.75,-306.38C89.75,-306.38 89.75,-261.92 89.75,-261.92"/>
<polygon fill="#ff9800" stroke="#ff9800" stroke-width="2" points="93.25,-261.92 89.75,-251.92 86.25,-261.92 93.25,-261.92"/>
</g>
<!-- ci -->
<g id="node11" class="node">
<title>ci</title>
<path fill="#2196f3" stroke="black" d="M155.25,-154.5C155.25,-154.5 124.25,-154.5 124.25,-154.5 118.25,-154.5 112.25,-148.5 112.25,-142.5 112.25,-142.5 112.25,-130.5 112.25,-130.5 112.25,-124.5 118.25,-118.5 124.25,-118.5 124.25,-118.5 155.25,-118.5 155.25,-118.5 161.25,-118.5 167.25,-124.5 167.25,-130.5 167.25,-130.5 167.25,-142.5 167.25,-142.5 167.25,-148.5 161.25,-154.5 155.25,-154.5"/>
<text xml:space="preserve" text-anchor="middle" x="139.75" y="-132.22" font-family="Arial Bold" font-size="12.00" fill="#ffffff">CI Run</text>
</g>
<!-- pr&#45;&gt;ci -->
<g id="edge10" class="edge">
<title>pr&#45;&gt;ci</title>
<path fill="none" stroke="#2196f3" stroke-width="2" d="M124.12,-212.38C124.12,-212.38 124.12,-167.92 124.12,-167.92"/>
<polygon fill="#2196f3" stroke="#2196f3" stroke-width="2" points="127.63,-167.92 124.13,-157.92 120.63,-167.92 127.63,-167.92"/>
</g>
<!-- ci&#45;&gt;worktree -->
<g id="edge12" class="edge">
<title>ci&#45;&gt;worktree</title>
<path fill="none" stroke="#f44336" stroke-width="1.5" stroke-dasharray="5,2" d="M158.38,-154.79C158.38,-154.79 158.38,-763.96 158.38,-763.96"/>
<polygon fill="#f44336" stroke="#f44336" stroke-width="1.5" points="154.88,-763.96 158.38,-773.96 161.88,-763.96 154.88,-763.96"/>
<text xml:space="preserve" text-anchor="middle" x="114.88" y="-462.58" font-family="Times New Roman,serif" font-size="14.00">auto&#45;fix failures</text>
</g>
<!-- cleanpr -->
<g id="node12" class="node">
<title>cleanpr</title>
<polygon fill="#ff9800" stroke="black" points="171.38,-60.5 108.12,-60.5 108.12,-24.5 171.38,-24.5 171.38,-60.5"/>
<text xml:space="preserve" text-anchor="middle" x="139.75" y="-38.8" font-family="Arial" font-size="11.00" fill="#ffffff">Clean PR</text>
</g>
<!-- ci&#45;&gt;cleanpr -->
<g id="edge11" class="edge">
<title>ci&#45;&gt;cleanpr</title>
<path fill="none" stroke="#4caf50" stroke-width="2" d="M139.75,-118.38C139.75,-118.38 139.75,-73.92 139.75,-73.92"/>
<polygon fill="#4caf50" stroke="#4caf50" stroke-width="2" points="143.25,-73.92 139.75,-63.92 136.25,-73.92 143.25,-73.92"/>
</g>
</g>
</svg>
