<?xml version="1.0" encoding="UTF-8" standalone="no"?>
<!DOCTYPE svg PUBLIC "-//W3C//DTD SVG 1.1//EN"
 "http://www.w3.org/Graphics/SVG/1.1/DTD/svg11.dtd">
<!-- Generated by graphviz version 14.1.2 (0)
 -->
<!-- Title: poly_data_trade_processing Pages: 1 -->
<svg width="604pt" height="1169pt"
 viewBox="0.00 0.00 604.00 1169.00" xmlns="http://www.w3.org/2000/svg" xmlns:xlink="http://www.w3.org/1999/xlink">
<g id="graph0" class="graph" transform="scale(1.33333 1.33333) rotate(0) translate(36 840.75)">
<title>poly_data_trade_processing</title>
<polygon fill="#ffffff" stroke="none" points="-36,36 -36,-840.75 416.75,-840.75 416.75,36 -36,36"/>
<text xml:space="preserve" text-anchor="middle" x="190.38" y="-785.55" font-family="Inter, system-ui, sans-serif" font-size="16.00" fill="#1e293b">Trade Processing Logic</text>
<!-- raw_order -->
<g id="node1" class="node">
<title>raw_order</title>
<path fill="#dbeafe" stroke="#93c5fd" d="M275.38,-774.25C275.38,-774.25 143.12,-774.25 143.12,-774.25 137.12,-774.25 131.12,-768.25 131.12,-762.25 131.12,-762.25 131.12,-718.25 131.12,-718.25 131.12,-712.25 137.12,-706.25 143.12,-706.25 143.12,-706.25 275.38,-706.25 275.38,-706.25 281.38,-706.25 287.38,-712.25 287.38,-718.25 287.38,-718.25 287.38,-762.25 287.38,-762.25 287.38,-768.25 281.38,-774.25 275.38,-774.25"/>
<text xml:space="preserve" text-anchor="middle" x="209.25" y="-759.8" font-family="Inter, system-ui, sans-serif" font-size="11.00" fill="#1e293b">Raw Order Event</text>
<text xml:space="preserve" text-anchor="middle" x="209.25" y="-744.8" font-family="Inter, system-ui, sans-serif" font-size="11.00" fill="#1e293b">(maker, taker,</text>
<text xml:space="preserve" text-anchor="middle" x="209.25" y="-729.8" font-family="Inter, system-ui, sans-serif" font-size="11.00" fill="#1e293b">makerAssetId, takerAssetId,</text>
<text xml:space="preserve" text-anchor="middle" x="209.25" y="-714.8" font-family="Inter, system-ui, sans-serif" font-size="11.00" fill="#1e293b">makerAmount, takerAmount)</text>
</g>
<!-- identify_nonusdc -->
<g id="node2" class="node">
<title>identify_nonusdc</title>
<path fill="#f1f5f9" stroke="#cbd5e1" d="M245,-655.25C245,-655.25 173.5,-655.25 173.5,-655.25 167.5,-655.25 161.5,-649.25 161.5,-643.25 161.5,-643.25 161.5,-614.25 161.5,-614.25 161.5,-608.25 167.5,-602.25 173.5,-602.25 173.5,-602.25 245,-602.25 245,-602.25 251,-602.25 257,-608.25 257,-614.25 257,-614.25 257,-643.25 257,-643.25 257,-649.25 251,-655.25 245,-655.25"/>
<text xml:space="preserve" text-anchor="middle" x="209.25" y="-640.8" font-family="Inter, system-ui, sans-serif" font-size="11.00" fill="#1e293b">Identify</text>
<text xml:space="preserve" text-anchor="middle" x="209.25" y="-625.8" font-family="Inter, system-ui, sans-serif" font-size="11.00" fill="#1e293b">non&#45;USDC Asset</text>
<text xml:space="preserve" text-anchor="middle" x="209.25" y="-610.8" font-family="Inter, system-ui, sans-serif" font-size="11.00" fill="#1e293b">(assetId != 0)</text>
</g>
<!-- raw_order&#45;&gt;identify_nonusdc -->
<g id="edge1" class="edge">
<title>raw_order&#45;&gt;identify_nonusdc</title>
<path fill="none" stroke="#2563eb" stroke-width="1.5" d="M209.25,-705.89C209.25,-705.89 209.25,-666.02 209.25,-666.02"/>
<polygon fill="#2563eb" stroke="#2563eb" stroke-width="1.5" points="212.05,-666.02 209.25,-658.02 206.45,-666.02 212.05,-666.02"/>
</g>
<!-- market_lookup -->
<g id="node3" class="node">
<title>market_lookup</title>
<path fill="#f1f5f9" stroke="#cbd5e1" d="M251.38,-539.5C251.38,-539.5 167.12,-539.5 167.12,-539.5 161.12,-539.5 155.12,-533.5 155.12,-527.5 155.12,-527.5 155.12,-498.5 155.12,-498.5 155.12,-492.5 161.12,-486.5 167.12,-486.5 167.12,-486.5 251.38,-486.5 251.38,-486.5 257.38,-486.5 263.38,-492.5 263.38,-498.5 263.38,-498.5 263.38,-527.5 263.38,-527.5 263.38,-533.5 257.38,-539.5 251.38,-539.5"/>
<text xml:space="preserve" text-anchor="middle" x="209.25" y="-525.05" font-family="Inter, system-ui, sans-serif" font-size="11.00" fill="#1e293b">Market Lookup</text>
<text xml:space="preserve" text-anchor="middle" x="209.25" y="-510.05" font-family="Inter, system-ui, sans-serif" font-size="11.00" fill="#1e293b">via Token Mapping</text>
<text xml:space="preserve" text-anchor="middle" x="209.25" y="-495.05" font-family="Inter, system-ui, sans-serif" font-size="11.00" fill="#1e293b">(token1/token2)</text>
</g>
<!-- identify_nonusdc&#45;&gt;market_lookup -->
<g id="edge2" class="edge">
<title>identify_nonusdc&#45;&gt;market_lookup</title>
<path fill="none" stroke="#2563eb" stroke-width="1.5" d="M209.25,-601.9C209.25,-601.9 209.25,-549.97 209.25,-549.97"/>
<polygon fill="#2563eb" stroke="#2563eb" stroke-width="1.5" points="212.05,-549.97 209.25,-541.97 206.45,-549.97 212.05,-549.97"/>
<text xml:space="preserve" text-anchor="middle" x="243.75" y="-568.7" font-family="Inter, system-ui, sans-serif" font-size="9.00" fill="#475569">nonusdc_asset_id</text>
</g>
<!-- is_taker_usdc -->
<g id="node5" class="node">
<title>is_taker_usdc</title>
<polygon fill="#fce7f3" stroke="#f9a8d4" points="63.25,-423.75 0,-387.25 63.25,-350.75 126.5,-387.25 63.25,-423.75"/>
<text xml:space="preserve" text-anchor="middle" x="63.25" y="-392" font-family="Inter, system-ui, sans-serif" font-size="10.00" fill="#9d174d">Taker pays</text>
<text xml:space="preserve" text-anchor="middle" x="63.25" y="-377.75" font-family="Inter, system-ui, sans-serif" font-size="10.00" fill="#9d174d">USDC?</text>
</g>
<!-- market_lookup&#45;&gt;is_taker_usdc -->
<g id="edge4" class="edge">
<title>market_lookup&#45;&gt;is_taker_usdc</title>
<path fill="none" stroke="#2563eb" stroke-width="1.5" d="M158.69,-486.03C158.69,-457.94 158.69,-418 158.69,-418 158.69,-418 84.47,-418 84.47,-418"/>
<polygon fill="#2563eb" stroke="#2563eb" stroke-width="1.5" points="84.47,-415.2 76.47,-418 84.47,-420.8 84.47,-415.2"/>
</g>
<!-- missing_discovery -->
<g id="node10" class="node">
<title>missing_discovery</title>
<polygon fill="#fef3c7" stroke="#fcd34d" stroke-dasharray="5,2" points="256.25,-412.62 162.25,-412.62 162.25,-361.88 256.25,-361.88 256.25,-412.62"/>
<text xml:space="preserve" text-anchor="middle" x="209.25" y="-399.12" font-family="Inter, system-ui, sans-serif" font-size="10.00" fill="#92400e">Missing Market?</text>
<text xml:space="preserve" text-anchor="middle" x="209.25" y="-384.88" font-family="Inter, system-ui, sans-serif" font-size="10.00" fill="#92400e">Auto&#45;discover via</text>
<text xml:space="preserve" text-anchor="middle" x="209.25" y="-370.62" font-family="Inter, system-ui, sans-serif" font-size="10.00" fill="#92400e">Polymarket API</text>
</g>
<!-- market_lookup&#45;&gt;missing_discovery -->
<g id="edge10" class="edge">
<title>market_lookup&#45;&gt;missing_discovery</title>
<path fill="none" stroke="#7c3aed" stroke-width="1.5" stroke-dasharray="5,2" d="M209.25,-486.02C209.25,-486.02 209.25,-423.16 209.25,-423.16"/>
<polygon fill="#7c3aed" stroke="#7c3aed" stroke-width="1.5" points="212.05,-423.16 209.25,-415.16 206.45,-423.16 212.05,-423.16"/>
<text xml:space="preserve" text-anchor="middle" x="229.12" y="-452.95" font-family="Inter, system-ui, sans-serif" font-size="9.00" fill="#7c3aed">not found</text>
</g>
<!-- markets_data -->
<g id="node4" class="node">
<title>markets_data</title>
<path fill="#dbeafe" stroke="#93c5fd" d="M373.25,-270.5C373.25,-273.12 345.46,-275.25 311.25,-275.25 277.04,-275.25 249.25,-273.12 249.25,-270.5 249.25,-270.5 249.25,-227.75 249.25,-227.75 249.25,-225.13 277.04,-223 311.25,-223 345.46,-223 373.25,-225.13 373.25,-227.75 373.25,-227.75 373.25,-270.5 373.25,-270.5"/>
<path fill="none" stroke="#93c5fd" d="M373.25,-270.5C373.25,-267.88 345.46,-265.75 311.25,-265.75 277.04,-265.75 249.25,-267.88 249.25,-270.5"/>
<text xml:space="preserve" text-anchor="middle" x="311.25" y="-253.68" font-family="Inter, system-ui, sans-serif" font-size="11.00" fill="#1e293b">markets.csv</text>
<text xml:space="preserve" text-anchor="middle" x="311.25" y="-238.68" font-family="Inter, system-ui, sans-serif" font-size="11.00" fill="#1e293b">+ missing_markets.csv</text>
</g>
<!-- markets_data&#45;&gt;market_lookup -->
<g id="edge3" class="edge">
<title>markets_data&#45;&gt;market_lookup</title>
<path fill="none" stroke="#059669" stroke-width="1.5" d="M259.81,-274.43C259.81,-274.43 259.81,-475.94 259.81,-475.94"/>
<polygon fill="#059669" stroke="#059669" stroke-width="1.5" points="257.01,-475.94 259.81,-483.94 262.61,-475.94 257.01,-475.94"/>
<text xml:space="preserve" text-anchor="middle" x="354.5" y="-385.07" font-family="Inter, system-ui, sans-serif" font-size="9.00" fill="#059669">token lookup</text>
</g>
<!-- taker_buy -->
<g id="node6" class="node">
<title>taker_buy</title>
<path fill="#dcfce7" stroke="#86efac" d="M77.75,-268.12C77.75,-268.12 28.75,-268.12 28.75,-268.12 22.75,-268.12 16.75,-262.12 16.75,-256.12 16.75,-256.12 16.75,-242.12 16.75,-242.12 16.75,-236.12 22.75,-230.12 28.75,-230.12 28.75,-230.12 77.75,-230.12 77.75,-230.12 83.75,-230.12 89.75,-236.12 89.75,-242.12 89.75,-242.12 89.75,-256.12 89.75,-256.12 89.75,-262.12 83.75,-268.12 77.75,-268.12"/>
<text xml:space="preserve" text-anchor="middle" x="53.25" y="-253.68" font-family="Inter, system-ui, sans-serif" font-size="11.00" fill="#166534">Taker: BUY</text>
<text xml:space="preserve" text-anchor="middle" x="53.25" y="-238.68" font-family="Inter, system-ui, sans-serif" font-size="11.00" fill="#166534">Maker: SELL</text>
</g>
<!-- is_taker_usdc&#45;&gt;taker_buy -->
<g id="edge5" class="edge">
<title>is_taker_usdc&#45;&gt;taker_buy</title>
<path fill="none" stroke="#059669" stroke-width="1.5" d="M53.25,-356.25C53.25,-356.25 53.25,-278.79 53.25,-278.79"/>
<polygon fill="#059669" stroke="#059669" stroke-width="1.5" points="56.05,-278.79 53.25,-270.79 50.45,-278.79 56.05,-278.79"/>
<text xml:space="preserve" text-anchor="middle" x="66.62" y="-310.82" font-family="Inter, system-ui, sans-serif" font-size="9.00" fill="#059669">yes</text>
</g>
<!-- taker_sell -->
<g id="node7" class="node">
<title>taker_sell</title>
<path fill="#dcfce7" stroke="#86efac" d="M184.62,-268.12C184.62,-268.12 137.88,-268.12 137.88,-268.12 131.88,-268.12 125.88,-262.12 125.88,-256.12 125.88,-256.12 125.88,-242.12 125.88,-242.12 125.88,-236.12 131.88,-230.12 137.88,-230.12 137.88,-230.12 184.62,-230.12 184.62,-230.12 190.62,-230.12 196.62,-236.12 196.62,-242.12 196.62,-242.12 196.62,-256.12 196.62,-256.12 196.62,-262.12 190.62,-268.12 184.62,-268.12"/>
<text xml:space="preserve" text-anchor="middle" x="161.25" y="-253.68" font-family="Inter, system-ui, sans-serif" font-size="11.00" fill="#166534">Taker: SELL</text>
<text xml:space="preserve" text-anchor="middle" x="161.25" y="-238.68" font-family="Inter, system-ui, sans-serif" font-size="11.00" fill="#166534">Maker: BUY</text>
</g>
<!-- is_taker_usdc&#45;&gt;taker_sell -->
<g id="edge6" class="edge">
<title>is_taker_usdc&#45;&gt;taker_sell</title>
<path fill="none" stroke="#ea580c" stroke-width="1.5" d="M73.04,-356C94.37,-356 143.12,-356 143.12,-356 143.12,-356 143.12,-278.5 143.12,-278.5"/>
<polygon fill="#ea580c" stroke="#ea580c" stroke-width="1.5" points="145.93,-278.5 143.13,-270.5 140.33,-278.5 145.93,-278.5"/>
<text xml:space="preserve" text-anchor="middle" x="153.5" y="-310.82" font-family="Inter, system-ui, sans-serif" font-size="9.00" fill="#ea580c">no</text>
</g>
<!-- calc_price -->
<g id="node8" class="node">
<title>calc_price</title>
<path fill="#f1f5f9" stroke="#cbd5e1" d="M156.62,-172C156.62,-172 55.88,-172 55.88,-172 49.88,-172 43.88,-166 43.88,-160 43.88,-160 43.88,-131 43.88,-131 43.88,-125 49.88,-119 55.88,-119 55.88,-119 156.62,-119 156.62,-119 162.62,-119 168.62,-125 168.62,-131 168.62,-131 168.62,-160 168.62,-160 168.62,-166 162.62,-172 156.62,-172"/>
<text xml:space="preserve" text-anchor="middle" x="106.25" y="-157.55" font-family="Inter, system-ui, sans-serif" font-size="11.00" fill="#1e293b">Calculate Price</text>
<text xml:space="preserve" text-anchor="middle" x="106.25" y="-142.55" font-family="Inter, system-ui, sans-serif" font-size="11.00" fill="#1e293b">USDC / Token Amount</text>
<text xml:space="preserve" text-anchor="middle" x="106.25" y="-127.55" font-family="Inter, system-ui, sans-serif" font-size="11.00" fill="#1e293b">(divide by 10^6)</text>
</g>
<!-- taker_buy&#45;&gt;calc_price -->
<g id="edge7" class="edge">
<title>taker_buy&#45;&gt;calc_price</title>
<path fill="none" stroke="#2563eb" stroke-width="1.5" d="M66.81,-229.63C66.81,-229.63 66.81,-182.6 66.81,-182.6"/>
<polygon fill="#2563eb" stroke="#2563eb" stroke-width="1.5" points="69.61,-182.6 66.81,-174.6 64.01,-182.6 69.61,-182.6"/>
</g>
<!-- taker_sell&#45;&gt;calc_price -->
<g id="edge8" class="edge">
<title>taker_sell&#45;&gt;calc_price</title>
<path fill="none" stroke="#2563eb" stroke-width="1.5" d="M147.25,-229.63C147.25,-229.63 147.25,-182.6 147.25,-182.6"/>
<polygon fill="#2563eb" stroke="#2563eb" stroke-width="1.5" points="150.05,-182.6 147.25,-174.6 144.45,-182.6 150.05,-182.6"/>
</g>
<!-- trade_output -->
<g id="node9" class="node">
<title>trade_output</title>
<path fill="#dcfce7" stroke="#86efac" d="M180.62,-68C180.62,-68 31.88,-68 31.88,-68 25.88,-68 19.88,-62 19.88,-56 19.88,-56 19.88,-12 19.88,-12 19.88,-6 25.88,0 31.88,0 31.88,0 180.62,0 180.62,0 186.62,0 192.62,-6 192.62,-12 192.62,-12 192.62,-56 192.62,-56 192.62,-62 186.62,-68 180.62,-68"/>
<text xml:space="preserve" text-anchor="middle" x="106.25" y="-53.55" font-family="Inter, system-ui, sans-serif" font-size="11.00" fill="#166534">Structured Trade</text>
<text xml:space="preserve" text-anchor="middle" x="106.25" y="-38.55" font-family="Inter, system-ui, sans-serif" font-size="11.00" fill="#166534">market_id, price,</text>
<text xml:space="preserve" text-anchor="middle" x="106.25" y="-23.55" font-family="Inter, system-ui, sans-serif" font-size="11.00" fill="#166534">usd_amount, token_amount,</text>
<text xml:space="preserve" text-anchor="middle" x="106.25" y="-8.55" font-family="Inter, system-ui, sans-serif" font-size="11.00" fill="#166534">maker_direction, taker_direction</text>
</g>
<!-- calc_price&#45;&gt;trade_output -->
<g id="edge9" class="edge">
<title>calc_price&#45;&gt;trade_output</title>
<path fill="none" stroke="#2563eb" stroke-width="1.5" d="M106.25,-118.51C106.25,-118.51 106.25,-78.62 106.25,-78.62"/>
<polygon fill="#2563eb" stroke="#2563eb" stroke-width="1.5" points="109.05,-78.62 106.25,-70.62 103.45,-78.62 109.05,-78.62"/>
</g>
<!-- missing_discovery&#45;&gt;markets_data -->
<g id="edge11" class="edge">
<title>missing_discovery&#45;&gt;markets_data</title>
<path fill="none" stroke="#7c3aed" stroke-width="1.5" stroke-dasharray="5,2" d="M252.75,-361.59C252.75,-361.59 252.75,-283.99 252.75,-283.99"/>
<polygon fill="#7c3aed" stroke="#7c3aed" stroke-width="1.5" points="255.55,-283.99 252.75,-275.99 249.95,-283.99 255.55,-283.99"/>
<text xml:space="preserve" text-anchor="middle" x="253.5" y="-317.2" font-family="Inter, system-ui, sans-serif" font-size="9.00" fill="#7c3aed">save to</text>
<text xml:space="preserve" text-anchor="middle" x="253.5" y="-304.45" font-family="Inter, system-ui, sans-serif" font-size="9.00" fill="#7c3aed">missing_markets</text>
</g>
</g>
</svg>
