<?xml version="1.0" encoding="UTF-8" standalone="no"?>
<!DOCTYPE svg PUBLIC "-//W3C//DTD SVG 1.1//EN"
 "http://www.w3.org/Graphics/SVG/1.1/DTD/svg11.dtd">
<!-- Generated by graphviz version 14.1.2 (0)
 -->
<!-- Title: G Pages: 1 -->
<svg width="952pt" height="429pt"
 viewBox="0.00 0.00 952.00 429.00" xmlns="http://www.w3.org/2000/svg" xmlns:xlink="http://www.w3.org/1999/xlink">
<g id="graph0" class="graph" transform="scale(1 1) rotate(0) translate(4 425.25)">
<title>G</title>
<!-- title -->
<g id="node1" class="node">
<title>title</title>
<text xml:space="preserve" text-anchor="middle" x="389.5" y="-398.18" font-family="Helvetica Bold" font-size="16.00" fill="#1e293b">CodeBurn &#45; Optimize &amp; Compare Features</text>
</g>
<!-- opt_label -->
<g id="node2" class="node">
<title>opt_label</title>
<polygon fill="#ea580c" stroke="black" points="448.12,-349.25 342.88,-349.25 342.88,-353.25 330.88,-353.25 330.88,-313.25 448.12,-313.25 448.12,-349.25"/>
<polyline fill="none" stroke="black" points="330.88,-349.25 342.88,-349.25"/>
<text xml:space="preserve" text-anchor="middle" x="389.5" y="-327.93" font-family="Helvetica Bold" font-size="11.00" fill="white">codeburn optimize</text>
</g>
<!-- title&#45;&gt;opt_label -->
<!-- f1 -->
<g id="node3" class="node">
<title>f1</title>
<path fill="#ffedd5" stroke="#ea580c" d="M79,-265.88C79,-265.88 12,-265.88 12,-265.88 6,-265.88 0,-259.88 0,-253.88 0,-253.88 0,-240.62 0,-240.62 0,-234.62 6,-228.62 12,-228.62 12,-228.62 79,-228.62 79,-228.62 85,-228.62 91,-234.62 91,-240.62 91,-240.62 91,-253.88 91,-253.88 91,-259.88 85,-265.88 79,-265.88"/>
<text xml:space="preserve" text-anchor="middle" x="45.5" y="-254.28" font-family="Helvetica,sans-Serif" font-size="8.00" fill="#1e293b">Re&#45;read Files</text>
<text xml:space="preserve" text-anchor="middle" x="45.5" y="-244.53" font-family="Helvetica,sans-Serif" font-size="8.00" fill="#1e293b">Same content across</text>
<text xml:space="preserve" text-anchor="middle" x="45.5" y="-234.78" font-family="Helvetica,sans-Serif" font-size="8.00" fill="#1e293b">sessions</text>
</g>
<!-- opt_label&#45;&gt;f1 -->
<g id="edge1" class="edge">
<title>opt_label&#45;&gt;f1</title>
<path fill="none" stroke="#ea580c" d="M330.76,-340C232.5,-340 45.5,-340 45.5,-340 45.5,-340 45.5,-277.53 45.5,-277.53"/>
<polygon fill="#ea580c" stroke="#ea580c" points="49,-277.53 45.5,-267.53 42,-277.53 49,-277.53"/>
</g>
<!-- f2 -->
<g id="node4" class="node">
<title>f2</title>
<path fill="#ffedd5" stroke="#ea580c" d="M171.75,-265.88C171.75,-265.88 121.25,-265.88 121.25,-265.88 115.25,-265.88 109.25,-259.88 109.25,-253.88 109.25,-253.88 109.25,-240.62 109.25,-240.62 109.25,-234.62 115.25,-228.62 121.25,-228.62 121.25,-228.62 171.75,-228.62 171.75,-228.62 177.75,-228.62 183.75,-234.62 183.75,-240.62 183.75,-240.62 183.75,-253.88 183.75,-253.88 183.75,-259.88 177.75,-265.88 171.75,-265.88"/>
<text xml:space="preserve" text-anchor="middle" x="146.5" y="-254.28" font-family="Helvetica,sans-Serif" font-size="8.00" fill="#1e293b">Low Read:Edit</text>
<text xml:space="preserve" text-anchor="middle" x="146.5" y="-244.53" font-family="Helvetica,sans-Serif" font-size="8.00" fill="#1e293b">Editing without</text>
<text xml:space="preserve" text-anchor="middle" x="146.5" y="-234.78" font-family="Helvetica,sans-Serif" font-size="8.00" fill="#1e293b">reading = retries</text>
</g>
<!-- opt_label&#45;&gt;f2 -->
<g id="edge2" class="edge">
<title>opt_label&#45;&gt;f2</title>
<path fill="none" stroke="#ea580c" d="M330.68,-331C258.76,-331 146.5,-331 146.5,-331 146.5,-331 146.5,-277.77 146.5,-277.77"/>
<polygon fill="#ea580c" stroke="#ea580c" points="150,-277.77 146.5,-267.77 143,-277.77 150,-277.77"/>
</g>
<!-- f3 -->
<g id="node5" class="node">
<title>f3</title>
<path fill="#ffedd5" stroke="#ea580c" d="M269.38,-265.88C269.38,-265.88 213.62,-265.88 213.62,-265.88 207.62,-265.88 201.62,-259.88 201.62,-253.88 201.62,-253.88 201.62,-240.62 201.62,-240.62 201.62,-234.62 207.62,-228.62 213.62,-228.62 213.62,-228.62 269.38,-228.62 269.38,-228.62 275.38,-228.62 281.38,-234.62 281.38,-240.62 281.38,-240.62 281.38,-253.88 281.38,-253.88 281.38,-259.88 275.38,-265.88 269.38,-265.88"/>
<text xml:space="preserve" text-anchor="middle" x="241.5" y="-254.28" font-family="Helvetica,sans-Serif" font-size="8.00" fill="#1e293b">Wasted Bash</text>
<text xml:space="preserve" text-anchor="middle" x="241.5" y="-244.53" font-family="Helvetica,sans-Serif" font-size="8.00" fill="#1e293b">Uncapped output,</text>
<text xml:space="preserve" text-anchor="middle" x="241.5" y="-234.78" font-family="Helvetica,sans-Serif" font-size="8.00" fill="#1e293b">trailing noise</text>
</g>
<!-- opt_label&#45;&gt;f3 -->
<g id="edge3" class="edge">
<title>opt_label&#45;&gt;f3</title>
<path fill="none" stroke="#ea580c" d="M330.39,-322C291.67,-322 248.19,-322 248.19,-322 248.19,-322 248.19,-277.63 248.19,-277.63"/>
<polygon fill="#ea580c" stroke="#ea580c" points="251.69,-277.63 248.19,-267.63 244.69,-277.63 251.69,-277.63"/>
</g>
<!-- f4 -->
<g id="node6" class="node">
<title>f4</title>
<path fill="#ffedd5" stroke="#ea580c" d="M373.38,-265.88C373.38,-265.88 311.62,-265.88 311.62,-265.88 305.62,-265.88 299.62,-259.88 299.62,-253.88 299.62,-253.88 299.62,-240.62 299.62,-240.62 299.62,-234.62 305.62,-228.62 311.62,-228.62 311.62,-228.62 373.38,-228.62 373.38,-228.62 379.38,-228.62 385.38,-234.62 385.38,-240.62 385.38,-240.62 385.38,-253.88 385.38,-253.88 385.38,-259.88 379.38,-265.88 373.38,-265.88"/>
<text xml:space="preserve" text-anchor="middle" x="342.5" y="-254.28" font-family="Helvetica,sans-Serif" font-size="8.00" fill="#1e293b">Unused MCP</text>
<text xml:space="preserve" text-anchor="middle" x="342.5" y="-244.53" font-family="Helvetica,sans-Serif" font-size="8.00" fill="#1e293b">Paying tool&#45;schema</text>
<text xml:space="preserve" text-anchor="middle" x="342.5" y="-234.78" font-family="Helvetica,sans-Serif" font-size="8.00" fill="#1e293b">overhead</text>
</g>
<!-- opt_label&#45;&gt;f4 -->
<g id="edge4" class="edge">
<title>opt_label&#45;&gt;f4</title>
<path fill="none" stroke="#ea580c" d="M358.12,-313.02C358.12,-313.02 358.12,-277.83 358.12,-277.83"/>
<polygon fill="#ea580c" stroke="#ea580c" points="361.63,-277.83 358.13,-267.83 354.63,-277.83 361.63,-277.83"/>
</g>
<!-- f5 -->
<g id="node7" class="node">
<title>f5</title>
<path fill="#ffedd5" stroke="#ea580c" d="M457.25,-265.88C457.25,-265.88 415.75,-265.88 415.75,-265.88 409.75,-265.88 403.75,-259.88 403.75,-253.88 403.75,-253.88 403.75,-240.62 403.75,-240.62 403.75,-234.62 409.75,-228.62 415.75,-228.62 415.75,-228.62 457.25,-228.62 457.25,-228.62 463.25,-228.62 469.25,-234.62 469.25,-240.62 469.25,-240.62 469.25,-253.88 469.25,-253.88 469.25,-259.88 463.25,-265.88 457.25,-265.88"/>
<text xml:space="preserve" text-anchor="middle" x="436.5" y="-254.28" font-family="Helvetica,sans-Serif" font-size="8.00" fill="#1e293b">Ghost Agents</text>
<text xml:space="preserve" text-anchor="middle" x="436.5" y="-244.53" font-family="Helvetica,sans-Serif" font-size="8.00" fill="#1e293b">Defined but</text>
<text xml:space="preserve" text-anchor="middle" x="436.5" y="-234.78" font-family="Helvetica,sans-Serif" font-size="8.00" fill="#1e293b">never invoked</text>
</g>
<!-- opt_label&#45;&gt;f5 -->
<g id="edge5" class="edge">
<title>opt_label&#45;&gt;f5</title>
<path fill="none" stroke="#ea580c" d="M418.54,-313.02C418.54,-313.02 418.54,-277.83 418.54,-277.83"/>
<polygon fill="#ea580c" stroke="#ea580c" points="422.04,-277.83 418.54,-267.83 415.04,-277.83 422.04,-277.83"/>
</g>
<!-- f6 -->
<g id="node8" class="node">
<title>f6</title>
<path fill="#ffedd5" stroke="#ea580c" d="M567.38,-265.88C567.38,-265.88 499.62,-265.88 499.62,-265.88 493.62,-265.88 487.62,-259.88 487.62,-253.88 487.62,-253.88 487.62,-240.62 487.62,-240.62 487.62,-234.62 493.62,-228.62 499.62,-228.62 499.62,-228.62 567.38,-228.62 567.38,-228.62 573.38,-228.62 579.38,-234.62 579.38,-240.62 579.38,-240.62 579.38,-253.88 579.38,-253.88 579.38,-259.88 573.38,-265.88 567.38,-265.88"/>
<text xml:space="preserve" text-anchor="middle" x="533.5" y="-254.28" font-family="Helvetica,sans-Serif" font-size="8.00" fill="#1e293b">Bloated CLAUDE.md</text>
<text xml:space="preserve" text-anchor="middle" x="533.5" y="-244.53" font-family="Helvetica,sans-Serif" font-size="8.00" fill="#1e293b">@&#45;import</text>
<text xml:space="preserve" text-anchor="middle" x="533.5" y="-234.78" font-family="Helvetica,sans-Serif" font-size="8.00" fill="#1e293b">expansion</text>
</g>
<!-- opt_label&#45;&gt;f6 -->
<g id="edge6" class="edge">
<title>opt_label&#45;&gt;f6</title>
<path fill="none" stroke="#ea580c" d="M448.5,-325C485.34,-325 525.81,-325 525.81,-325 525.81,-325 525.81,-277.58 525.81,-277.58"/>
<polygon fill="#ea580c" stroke="#ea580c" points="529.31,-277.58 525.81,-267.58 522.31,-277.58 529.31,-277.58"/>
</g>
<!-- f7 -->
<g id="node9" class="node">
<title>f7</title>
<path fill="#ffedd5" stroke="#ea580c" d="M661.88,-265.88C661.88,-265.88 609.12,-265.88 609.12,-265.88 603.12,-265.88 597.12,-259.88 597.12,-253.88 597.12,-253.88 597.12,-240.62 597.12,-240.62 597.12,-234.62 603.12,-228.62 609.12,-228.62 609.12,-228.62 661.88,-228.62 661.88,-228.62 667.88,-228.62 673.88,-234.62 673.88,-240.62 673.88,-240.62 673.88,-253.88 673.88,-253.88 673.88,-259.88 667.88,-265.88 661.88,-265.88"/>
<text xml:space="preserve" text-anchor="middle" x="635.5" y="-254.28" font-family="Helvetica,sans-Serif" font-size="8.00" fill="#1e293b">Cache Overhead</text>
<text xml:space="preserve" text-anchor="middle" x="635.5" y="-244.53" font-family="Helvetica,sans-Serif" font-size="8.00" fill="#1e293b">Junk directory</text>
<text xml:space="preserve" text-anchor="middle" x="635.5" y="-234.78" font-family="Helvetica,sans-Serif" font-size="8.00" fill="#1e293b">reads</text>
</g>
<!-- opt_label&#45;&gt;f7 -->
<g id="edge7" class="edge">
<title>opt_label&#45;&gt;f7</title>
<path fill="none" stroke="#ea580c" d="M448.42,-337C521.2,-337 635.5,-337 635.5,-337 635.5,-337 635.5,-277.8 635.5,-277.8"/>
<polygon fill="#ea580c" stroke="#ea580c" points="639,-277.8 635.5,-267.8 632,-277.8 639,-277.8"/>
</g>
<!-- grade -->
<g id="node10" class="node">
<title>grade</title>
<polygon fill="#fef3c7" stroke="#d97706" points="794.62,-277.25 692.38,-277.25 692.38,-217.25 800.62,-217.25 800.62,-271.25 794.62,-277.25"/>
<polyline fill="none" stroke="#d97706" points="794.62,-277.25 794.62,-271.25"/>
<polyline fill="none" stroke="#d97706" points="800.62,-271.25 794.62,-271.25"/>
<text xml:space="preserve" text-anchor="middle" x="746.5" y="-264.7" font-family="Times New Roman,serif" font-size="9.00" fill="#1e293b">A&#45;F Setup</text>
<text xml:space="preserve" text-anchor="middle" x="746.5" y="-254.2" font-family="Times New Roman,serif" font-size="9.00" fill="#1e293b">Health Grade</text>
<text xml:space="preserve" text-anchor="middle" x="746.5" y="-233.7" font-family="Times New Roman,serif" font-size="9.00" fill="#1e293b">Ranked by urgency</text>
<text xml:space="preserve" text-anchor="middle" x="746.5" y="-223.2" font-family="Times New Roman,serif" font-size="9.00" fill="#1e293b">New/Improving/Resolved</text>
</g>
<!-- opt_label&#45;&gt;grade -->
<g id="edge8" class="edge">
<title>opt_label&#45;&gt;grade</title>
<path fill="none" stroke="#d97706" stroke-dasharray="5,2" d="M433.33,-312.83C433.33,-295.43 433.33,-272 433.33,-272 433.33,-272 680.44,-272 680.44,-272"/>
<polygon fill="#d97706" stroke="#d97706" points="680.44,-275.5 690.44,-272 680.44,-268.5 680.44,-275.5"/>
</g>
<!-- cmp_label -->
<g id="node11" class="node">
<title>cmp_label</title>
<polygon fill="#7c3aed" stroke="black" points="805.5,-181.25 699.5,-181.25 699.5,-185.25 687.5,-185.25 687.5,-145.25 805.5,-145.25 805.5,-181.25"/>
<polyline fill="none" stroke="black" points="687.5,-181.25 699.5,-181.25"/>
<text xml:space="preserve" text-anchor="middle" x="746.5" y="-159.93" font-family="Helvetica Bold" font-size="11.00" fill="white">codeburn compare</text>
</g>
<!-- grade&#45;&gt;cmp_label -->
<!-- model_a -->
<g id="node12" class="node">
<title>model_a</title>
<path fill="#ede9fe" stroke="#7c3aed" d="M726,-109.25C726,-109.25 665,-109.25 665,-109.25 659,-109.25 653,-103.25 653,-97.25 653,-97.25 653,-85.25 653,-85.25 653,-79.25 659,-73.25 665,-73.25 665,-73.25 726,-73.25 726,-73.25 732,-73.25 738,-79.25 738,-85.25 738,-85.25 738,-97.25 738,-97.25 738,-103.25 732,-109.25 726,-109.25"/>
<text xml:space="preserve" text-anchor="middle" x="695.5" y="-94.7" font-family="Helvetica Bold" font-size="9.00" fill="#1e293b">Model A</text>
<text xml:space="preserve" text-anchor="middle" x="695.5" y="-82.7" font-family="Helvetica Bold" font-size="9.00" fill="#1e293b">(e.g. Opus 4.6)</text>
</g>
<!-- cmp_label&#45;&gt;model_a -->
<g id="edge9" class="edge">
<title>cmp_label&#45;&gt;model_a</title>
<path fill="none" stroke="#7c3aed" stroke-width="1.5" d="M712.75,-145.08C712.75,-145.08 712.75,-121.93 712.75,-121.93"/>
<polygon fill="#7c3aed" stroke="#7c3aed" stroke-width="1.5" points="716.25,-121.93 712.75,-111.93 709.25,-121.93 716.25,-121.93"/>
</g>
<!-- model_b -->
<g id="node13" class="node">
<title>model_b</title>
<path fill="#ede9fe" stroke="#7c3aed" d="M829,-109.25C829,-109.25 768,-109.25 768,-109.25 762,-109.25 756,-103.25 756,-97.25 756,-97.25 756,-85.25 756,-85.25 756,-79.25 762,-73.25 768,-73.25 768,-73.25 829,-73.25 829,-73.25 835,-73.25 841,-79.25 841,-85.25 841,-85.25 841,-97.25 841,-97.25 841,-103.25 835,-109.25 829,-109.25"/>
<text xml:space="preserve" text-anchor="middle" x="798.5" y="-94.7" font-family="Helvetica Bold" font-size="9.00" fill="#1e293b">Model B</text>
<text xml:space="preserve" text-anchor="middle" x="798.5" y="-82.7" font-family="Helvetica Bold" font-size="9.00" fill="#1e293b">(e.g. Sonnet 4)</text>
</g>
<!-- cmp_label&#45;&gt;model_b -->
<g id="edge10" class="edge">
<title>cmp_label&#45;&gt;model_b</title>
<path fill="none" stroke="#7c3aed" stroke-width="1.5" d="M780.75,-145.08C780.75,-145.08 780.75,-121.93 780.75,-121.93"/>
<polygon fill="#7c3aed" stroke="#7c3aed" stroke-width="1.5" points="784.25,-121.93 780.75,-111.93 777.25,-121.93 784.25,-121.93"/>
</g>
<!-- perf -->
<g id="node14" class="node">
<title>perf</title>
<path fill="#dbeafe" stroke="#2563eb" d="M664.38,-37.25C664.38,-37.25 590.62,-37.25 590.62,-37.25 584.62,-37.25 578.62,-31.25 578.62,-25.25 578.62,-25.25 578.62,-12 578.62,-12 578.62,-6 584.62,0 590.62,0 590.62,0 664.38,0 664.38,0 670.38,0 676.38,-6 676.38,-12 676.38,-12 676.38,-25.25 676.38,-25.25 676.38,-31.25 670.38,-37.25 664.38,-37.25"/>
<text xml:space="preserve" text-anchor="middle" x="627.5" y="-25.65" font-family="Helvetica,sans-Serif" font-size="8.00" fill="#1e293b">Performance</text>
<text xml:space="preserve" text-anchor="middle" x="627.5" y="-15.9" font-family="Helvetica,sans-Serif" font-size="8.00" fill="#1e293b">1&#45;shot rate | Retry rate</text>
<text xml:space="preserve" text-anchor="middle" x="627.5" y="-6.15" font-family="Helvetica,sans-Serif" font-size="8.00" fill="#1e293b">Self&#45;correction</text>
</g>
<!-- model_a&#45;&gt;perf -->
<g id="edge11" class="edge">
<title>model_a&#45;&gt;perf</title>
<path fill="none" stroke="#2563eb" d="M660.79,-72.92C660.79,-72.92 660.79,-49.22 660.79,-49.22"/>
<polygon fill="#2563eb" stroke="#2563eb" points="664.29,-49.22 660.79,-39.22 657.29,-49.22 664.29,-49.22"/>
</g>
<!-- eff -->
<g id="node15" class="node">
<title>eff</title>
<path fill="#d1fae5" stroke="#059669" d="M788.88,-37.25C788.88,-37.25 706.12,-37.25 706.12,-37.25 700.12,-37.25 694.12,-31.25 694.12,-25.25 694.12,-25.25 694.12,-12 694.12,-12 694.12,-6 700.12,0 706.12,0 706.12,0 788.88,0 788.88,0 794.88,0 800.88,-6 800.88,-12 800.88,-12 800.88,-25.25 800.88,-25.25 800.88,-31.25 794.88,-37.25 788.88,-37.25"/>
<text xml:space="preserve" text-anchor="middle" x="747.5" y="-25.65" font-family="Helvetica,sans-Serif" font-size="8.00" fill="#1e293b">Efficiency</text>
<text xml:space="preserve" text-anchor="middle" x="747.5" y="-15.9" font-family="Helvetica,sans-Serif" font-size="8.00" fill="#1e293b">Cost/call | Cost/edit</text>
<text xml:space="preserve" text-anchor="middle" x="747.5" y="-6.15" font-family="Helvetica,sans-Serif" font-size="8.00" fill="#1e293b">Output tok/call | Cache hit</text>
</g>
<!-- model_a&#45;&gt;eff -->
<g id="edge13" class="edge">
<title>model_a&#45;&gt;eff</title>
<path fill="none" stroke="#059669" d="M708.75,-72.92C708.75,-72.92 708.75,-49.22 708.75,-49.22"/>
<polygon fill="#059669" stroke="#059669" points="712.25,-49.22 708.75,-39.22 705.25,-49.22 712.25,-49.22"/>
</g>
<!-- style -->
<g id="node16" class="node">
<title>style</title>
<path fill="#fef3c7" stroke="#d97706" d="M931.88,-37.25C931.88,-37.25 831.12,-37.25 831.12,-37.25 825.12,-37.25 819.12,-31.25 819.12,-25.25 819.12,-25.25 819.12,-12 819.12,-12 819.12,-6 825.12,0 831.12,0 831.12,0 931.88,0 931.88,0 937.88,0 943.88,-6 943.88,-12 943.88,-12 943.88,-25.25 943.88,-25.25 943.88,-31.25 937.88,-37.25 931.88,-37.25"/>
<text xml:space="preserve" text-anchor="middle" x="881.5" y="-25.65" font-family="Helvetica,sans-Serif" font-size="8.00" fill="#1e293b">Working Style</text>
<text xml:space="preserve" text-anchor="middle" x="881.5" y="-15.9" font-family="Helvetica,sans-Serif" font-size="8.00" fill="#1e293b">Delegation rate | Planning rate</text>
<text xml:space="preserve" text-anchor="middle" x="881.5" y="-6.15" font-family="Helvetica,sans-Serif" font-size="8.00" fill="#1e293b">Tools/turn | Fast mode</text>
</g>
<!-- model_a&#45;&gt;style -->
<g id="edge15" class="edge">
<title>model_a&#45;&gt;style</title>
<path fill="none" stroke="#d97706" d="M723.38,-72.96C723.38,-66.59 723.38,-61 723.38,-61 723.38,-61 826.42,-61 826.42,-61 826.42,-61 826.42,-48.85 826.42,-48.85"/>
<polygon fill="#d97706" stroke="#d97706" points="829.92,-48.85 826.42,-38.85 822.92,-48.85 829.92,-48.85"/>
</g>
<!-- model_b&#45;&gt;perf -->
<g id="edge12" class="edge">
<title>model_b&#45;&gt;perf</title>
<path fill="none" stroke="#2563eb" d="M770.96,-73.09C770.96,-61.64 770.96,-49 770.96,-49 770.96,-49 668.58,-49 668.58,-49 668.58,-49 668.58,-47.87 668.58,-47.87"/>
<polygon fill="#2563eb" stroke="#2563eb" points="672.08,-49.2 668.58,-39.2 665.08,-49.2 672.08,-49.2"/>
</g>
<!-- model_b&#45;&gt;eff -->
<g id="edge14" class="edge">
<title>model_b&#45;&gt;eff</title>
<path fill="none" stroke="#059669" d="M785.92,-72.92C785.92,-72.92 785.92,-49.22 785.92,-49.22"/>
<polygon fill="#059669" stroke="#059669" points="789.42,-49.22 785.92,-39.22 782.42,-49.22 789.42,-49.22"/>
</g>
<!-- model_b&#45;&gt;style -->
<g id="edge16" class="edge">
<title>model_b&#45;&gt;style</title>
<path fill="none" stroke="#d97706" d="M833.71,-72.92C833.71,-72.92 833.71,-49.22 833.71,-49.22"/>
<polygon fill="#d97706" stroke="#d97706" points="837.21,-49.22 833.71,-39.22 830.21,-49.22 837.21,-49.22"/>
</g>
</g>
</svg>
