<?xml version="1.0" encoding="UTF-8" standalone="no"?>
<!DOCTYPE svg PUBLIC "-//W3C//DTD SVG 1.1//EN"
 "http://www.w3.org/Graphics/SVG/1.1/DTD/svg11.dtd">
<!-- Generated by graphviz version 14.1.2 (0)
 -->
<!-- Title: G Pages: 1 -->
<svg width="1236pt" height="338pt"
 viewBox="0.00 0.00 1236.00 338.00" xmlns="http://www.w3.org/2000/svg" xmlns:xlink="http://www.w3.org/1999/xlink">
<g id="graph0" class="graph" transform="scale(1 1) rotate(0) translate(4 333.5)">
<title>G</title>
<!-- title -->
<g id="node1" class="node">
<title>title</title>
<text xml:space="preserve" text-anchor="middle" x="207.12" y="-100.67" font-family="Helvetica Bold" font-size="16.00" fill="#1e293b">CodeBurn Architecture &#45; Zero&#45;Proxy Data Pipeline</text>
</g>
<!-- disk -->
<g id="node2" class="node">
<title>disk</title>
<polygon fill="#f1f5f9" stroke="#64748b" points="519.75,-130.75 516.75,-134.75 495.75,-134.75 492.75,-130.75 451.25,-130.75 451.25,-80.75 519.75,-80.75 519.75,-130.75"/>
<text xml:space="preserve" text-anchor="middle" x="485.5" y="-118.2" font-family="Helvetica,sans-Serif" font-size="9.00" fill="#1e293b">Local Disk</text>
<text xml:space="preserve" text-anchor="middle" x="485.5" y="-107.7" font-family="Helvetica,sans-Serif" font-size="9.00" fill="#1e293b">(No wrapper,</text>
<text xml:space="preserve" text-anchor="middle" x="485.5" y="-97.2" font-family="Helvetica,sans-Serif" font-size="9.00" fill="#1e293b">No proxy,</text>
<text xml:space="preserve" text-anchor="middle" x="485.5" y="-86.7" font-family="Helvetica,sans-Serif" font-size="9.00" fill="#1e293b">No API keys)</text>
</g>
<!-- title&#45;&gt;disk -->
<!-- providers -->
<g id="node3" class="node">
<title>providers</title>
<path fill="#2563eb" stroke="black" d="M704.5,-128.88C704.5,-128.88 594,-128.88 594,-128.88 588,-128.88 582,-122.88 582,-116.88 582,-116.88 582,-94.62 582,-94.62 582,-88.62 588,-82.62 594,-82.62 594,-82.62 704.5,-82.62 704.5,-82.62 710.5,-82.62 716.5,-88.62 716.5,-94.62 716.5,-94.62 716.5,-116.88 716.5,-116.88 716.5,-122.88 710.5,-128.88 704.5,-128.88"/>
<text xml:space="preserve" text-anchor="middle" x="649.25" y="-115.38" font-family="Helvetica Bold" font-size="10.00" fill="white">Provider Plugin System</text>
<text xml:space="preserve" text-anchor="middle" x="649.25" y="-102.62" font-family="Helvetica Bold" font-size="10.00" fill="white">7 providers</text>
<text xml:space="preserve" text-anchor="middle" x="649.25" y="-89.88" font-family="Helvetica Bold" font-size="10.00" fill="white">Single&#45;file each</text>
</g>
<!-- disk&#45;&gt;providers -->
<g id="edge2" class="edge">
<title>disk&#45;&gt;providers</title>
<path fill="none" stroke="#2563eb" stroke-width="2" d="M520.23,-105.75C520.23,-105.75 568.48,-105.75 568.48,-105.75"/>
<polygon fill="#2563eb" stroke="#2563eb" stroke-width="2" points="568.48,-109.25 578.48,-105.75 568.48,-102.25 568.48,-109.25"/>
<text xml:space="preserve" text-anchor="middle" x="550.88" y="-107.9" font-family="Times New Roman,serif" font-size="8.00" fill="#64748b"> &#160;reads &#160;</text>
</g>
<!-- parser -->
<g id="node4" class="node">
<title>parser</title>
<path fill="#dbeafe" stroke="#2563eb" d="M837,-125.5C837,-125.5 765.5,-125.5 765.5,-125.5 759.5,-125.5 753.5,-119.5 753.5,-113.5 753.5,-113.5 753.5,-98 753.5,-98 753.5,-92 759.5,-86 765.5,-86 765.5,-86 837,-86 837,-86 843,-86 849,-92 849,-98 849,-98 849,-113.5 849,-113.5 849,-119.5 843,-125.5 837,-125.5"/>
<text xml:space="preserve" text-anchor="middle" x="801.25" y="-112.95" font-family="Helvetica,sans-Serif" font-size="9.00" fill="#1e293b">Parser</text>
<text xml:space="preserve" text-anchor="middle" x="801.25" y="-102.45" font-family="Helvetica,sans-Serif" font-size="9.00" fill="#1e293b">JSONL + SQLite</text>
<text xml:space="preserve" text-anchor="middle" x="801.25" y="-91.95" font-family="Helvetica,sans-Serif" font-size="9.00" fill="#1e293b">Dedup + Date Filter</text>
</g>
<!-- providers&#45;&gt;parser -->
<g id="edge3" class="edge">
<title>providers&#45;&gt;parser</title>
<path fill="none" stroke="#2563eb" stroke-width="2" d="M716.8,-105.75C716.8,-105.75 740.01,-105.75 740.01,-105.75"/>
<polygon fill="#2563eb" stroke="#2563eb" stroke-width="2" points="740.01,-109.25 750.01,-105.75 740.01,-102.25 740.01,-109.25"/>
</g>
<!-- classifier -->
<g id="node5" class="node">
<title>classifier</title>
<path fill="#ede9fe" stroke="#7c3aed" d="M968.75,-184.5C968.75,-184.5 898,-184.5 898,-184.5 892,-184.5 886,-178.5 886,-172.5 886,-172.5 886,-157 886,-157 886,-151 892,-145 898,-145 898,-145 968.75,-145 968.75,-145 974.75,-145 980.75,-151 980.75,-157 980.75,-157 980.75,-172.5 980.75,-172.5 980.75,-178.5 974.75,-184.5 968.75,-184.5"/>
<text xml:space="preserve" text-anchor="middle" x="933.38" y="-171.95" font-family="Helvetica,sans-Serif" font-size="9.00" fill="#1e293b">Classifier</text>
<text xml:space="preserve" text-anchor="middle" x="933.38" y="-161.45" font-family="Helvetica,sans-Serif" font-size="9.00" fill="#1e293b">13 Task Categories</text>
<text xml:space="preserve" text-anchor="middle" x="933.38" y="-150.95" font-family="Helvetica,sans-Serif" font-size="9.00" fill="#1e293b">Deterministic</text>
</g>
<!-- parser&#45;&gt;classifier -->
<g id="edge4" class="edge">
<title>parser&#45;&gt;classifier</title>
<path fill="none" stroke="#7c3aed" stroke-width="1.5" d="M849.37,-120.75C887.18,-120.75 933.5,-120.75 933.5,-120.75 933.5,-120.75 933.5,-132.28 933.5,-132.28"/>
<polygon fill="#7c3aed" stroke="#7c3aed" stroke-width="1.5" points="930,-132.28 933.5,-142.28 937,-132.28 930,-132.28"/>
</g>
<!-- pricing -->
<g id="node6" class="node">
<title>pricing</title>
<path fill="#fef3c7" stroke="#d97706" d="M964.25,-97.5C964.25,-97.5 902.5,-97.5 902.5,-97.5 896.5,-97.5 890.5,-91.5 890.5,-85.5 890.5,-85.5 890.5,-70 890.5,-70 890.5,-64 896.5,-58 902.5,-58 902.5,-58 964.25,-58 964.25,-58 970.25,-58 976.25,-64 976.25,-70 976.25,-70 976.25,-85.5 976.25,-85.5 976.25,-91.5 970.25,-97.5 964.25,-97.5"/>
<text xml:space="preserve" text-anchor="middle" x="933.38" y="-84.95" font-family="Helvetica,sans-Serif" font-size="9.00" fill="#1e293b">Pricing Engine</text>
<text xml:space="preserve" text-anchor="middle" x="933.38" y="-74.45" font-family="Helvetica,sans-Serif" font-size="9.00" fill="#1e293b">LiteLLM</text>
<text xml:space="preserve" text-anchor="middle" x="933.38" y="-63.95" font-family="Helvetica,sans-Serif" font-size="9.00" fill="#1e293b">Auto&#45;cached 24h</text>
</g>
<!-- parser&#45;&gt;pricing -->
<g id="edge5" class="edge">
<title>parser&#45;&gt;pricing</title>
<path fill="none" stroke="#d97706" stroke-width="1.5" d="M849.32,-91.75C849.32,-91.75 878.1,-91.75 878.1,-91.75"/>
<polygon fill="#d97706" stroke="#d97706" stroke-width="1.5" points="878.1,-95.25 888.1,-91.75 878.1,-88.25 878.1,-95.25"/>
</g>
<!-- dashboard -->
<g id="node8" class="node">
<title>dashboard</title>
<path fill="#d1fae5" stroke="#059669" d="M1087,-329.5C1087,-329.5 1032.75,-329.5 1032.75,-329.5 1026.75,-329.5 1020.75,-323.5 1020.75,-317.5 1020.75,-317.5 1020.75,-302 1020.75,-302 1020.75,-296 1026.75,-290 1032.75,-290 1032.75,-290 1087,-290 1087,-290 1093,-290 1099,-296 1099,-302 1099,-302 1099,-317.5 1099,-317.5 1099,-323.5 1093,-329.5 1087,-329.5"/>
<text xml:space="preserve" text-anchor="middle" x="1059.88" y="-316.95" font-family="Helvetica,sans-Serif" font-size="9.00" fill="#1e293b">TUI Dashboard</text>
<text xml:space="preserve" text-anchor="middle" x="1059.88" y="-306.45" font-family="Helvetica,sans-Serif" font-size="9.00" fill="#1e293b">Ink/React</text>
<text xml:space="preserve" text-anchor="middle" x="1059.88" y="-295.95" font-family="Helvetica,sans-Serif" font-size="9.00" fill="#1e293b">Gradient charts</text>
</g>
<!-- classifier&#45;&gt;dashboard -->
<g id="edge7" class="edge">
<title>classifier&#45;&gt;dashboard</title>
<path fill="none" stroke="#059669" stroke-width="2" d="M917.5,-184.91C917.5,-224.75 917.5,-309.75 917.5,-309.75 917.5,-309.75 1007.57,-309.75 1007.57,-309.75"/>
<polygon fill="#059669" stroke="#059669" stroke-width="2" points="1007.57,-313.25 1017.57,-309.75 1007.57,-306.25 1007.57,-313.25"/>
</g>
<!-- status -->
<g id="node9" class="node">
<title>status</title>
<path fill="#d1fae5" stroke="#059669" d="M1085.88,-271.5C1085.88,-271.5 1033.88,-271.5 1033.88,-271.5 1027.88,-271.5 1021.88,-265.5 1021.88,-259.5 1021.88,-259.5 1021.88,-244 1021.88,-244 1021.88,-238 1027.88,-232 1033.88,-232 1033.88,-232 1085.88,-232 1085.88,-232 1091.88,-232 1097.88,-238 1097.88,-244 1097.88,-244 1097.88,-259.5 1097.88,-259.5 1097.88,-265.5 1091.88,-271.5 1085.88,-271.5"/>
<text xml:space="preserve" text-anchor="middle" x="1059.88" y="-258.95" font-family="Helvetica,sans-Serif" font-size="9.00" fill="#1e293b">Status</text>
<text xml:space="preserve" text-anchor="middle" x="1059.88" y="-248.45" font-family="Helvetica,sans-Serif" font-size="9.00" fill="#1e293b">One&#45;liner</text>
<text xml:space="preserve" text-anchor="middle" x="1059.88" y="-237.95" font-family="Helvetica,sans-Serif" font-size="9.00" fill="#1e293b">Today + Month</text>
</g>
<!-- classifier&#45;&gt;status -->
<g id="edge8" class="edge">
<title>classifier&#45;&gt;status</title>
<path fill="none" stroke="#059669" stroke-width="1.5" d="M949.5,-184.93C949.5,-210.63 949.5,-251.75 949.5,-251.75 949.5,-251.75 1009.31,-251.75 1009.31,-251.75"/>
<polygon fill="#059669" stroke="#059669" stroke-width="1.5" points="1009.31,-255.25 1019.31,-251.75 1009.31,-248.25 1009.31,-255.25"/>
</g>
<!-- export -->
<g id="node10" class="node">
<title>export</title>
<path fill="#d1fae5" stroke="#059669" d="M1082.12,-213.5C1082.12,-213.5 1037.62,-213.5 1037.62,-213.5 1031.62,-213.5 1025.62,-207.5 1025.62,-201.5 1025.62,-201.5 1025.62,-186 1025.62,-186 1025.62,-180 1031.62,-174 1037.62,-174 1037.62,-174 1082.12,-174 1082.12,-174 1088.12,-174 1094.12,-180 1094.12,-186 1094.12,-186 1094.12,-201.5 1094.12,-201.5 1094.12,-207.5 1088.12,-213.5 1082.12,-213.5"/>
<text xml:space="preserve" text-anchor="middle" x="1059.88" y="-200.95" font-family="Helvetica,sans-Serif" font-size="9.00" fill="#1e293b">Export</text>
<text xml:space="preserve" text-anchor="middle" x="1059.88" y="-190.45" font-family="Helvetica,sans-Serif" font-size="9.00" fill="#1e293b">CSV + JSON</text>
<text xml:space="preserve" text-anchor="middle" x="1059.88" y="-179.95" font-family="Helvetica,sans-Serif" font-size="9.00" fill="#1e293b">Multi&#45;period</text>
</g>
<!-- classifier&#45;&gt;export -->
<g id="edge9" class="edge">
<title>classifier&#45;&gt;export</title>
<path fill="none" stroke="#059669" stroke-width="1.5" d="M981.2,-179.25C981.2,-179.25 1013.11,-179.25 1013.11,-179.25"/>
<polygon fill="#059669" stroke="#059669" stroke-width="1.5" points="1013.11,-182.75 1023.11,-179.25 1013.11,-175.75 1013.11,-182.75"/>
</g>
<!-- optimize -->
<g id="node11" class="node">
<title>optimize</title>
<path fill="#ffedd5" stroke="#ea580c" d="M1090,-155.5C1090,-155.5 1029.75,-155.5 1029.75,-155.5 1023.75,-155.5 1017.75,-149.5 1017.75,-143.5 1017.75,-143.5 1017.75,-128 1017.75,-128 1017.75,-122 1023.75,-116 1029.75,-116 1029.75,-116 1090,-116 1090,-116 1096,-116 1102,-122 1102,-128 1102,-128 1102,-143.5 1102,-143.5 1102,-149.5 1096,-155.5 1090,-155.5"/>
<text xml:space="preserve" text-anchor="middle" x="1059.88" y="-142.95" font-family="Helvetica,sans-Serif" font-size="9.00" fill="#1e293b">Optimize</text>
<text xml:space="preserve" text-anchor="middle" x="1059.88" y="-132.45" font-family="Helvetica,sans-Serif" font-size="9.00" fill="#1e293b">Waste scanner</text>
<text xml:space="preserve" text-anchor="middle" x="1059.88" y="-121.95" font-family="Helvetica,sans-Serif" font-size="9.00" fill="#1e293b">Copy&#45;paste fixes</text>
</g>
<!-- classifier&#45;&gt;optimize -->
<g id="edge10" class="edge">
<title>classifier&#45;&gt;optimize</title>
<path fill="none" stroke="#ea580c" stroke-width="1.5" d="M981.2,-152C981.2,-152 1005.11,-152 1005.11,-152"/>
<polygon fill="#ea580c" stroke="#ea580c" stroke-width="1.5" points="1005.11,-155.5 1015.11,-152 1005.11,-148.5 1005.11,-155.5"/>
</g>
<!-- compare -->
<g id="node12" class="node">
<title>compare</title>
<path fill="#ffedd5" stroke="#ea580c" d="M1082.12,-97.5C1082.12,-97.5 1037.62,-97.5 1037.62,-97.5 1031.62,-97.5 1025.62,-91.5 1025.62,-85.5 1025.62,-85.5 1025.62,-70 1025.62,-70 1025.62,-64 1031.62,-58 1037.62,-58 1037.62,-58 1082.12,-58 1082.12,-58 1088.12,-58 1094.12,-64 1094.12,-70 1094.12,-70 1094.12,-85.5 1094.12,-85.5 1094.12,-91.5 1088.12,-97.5 1082.12,-97.5"/>
<text xml:space="preserve" text-anchor="middle" x="1059.88" y="-84.95" font-family="Helvetica,sans-Serif" font-size="9.00" fill="#1e293b">Compare</text>
<text xml:space="preserve" text-anchor="middle" x="1059.88" y="-74.45" font-family="Helvetica,sans-Serif" font-size="9.00" fill="#1e293b">Model A vs B</text>
<text xml:space="preserve" text-anchor="middle" x="1059.88" y="-63.95" font-family="Helvetica,sans-Serif" font-size="9.00" fill="#1e293b">7 metrics</text>
</g>
<!-- classifier&#45;&gt;compare -->
<g id="edge11" class="edge">
<title>classifier&#45;&gt;compare</title>
<path fill="none" stroke="#ea580c" stroke-width="1.5" d="M981.08,-148.5C991.51,-148.5 999.5,-148.5 999.5,-148.5 999.5,-148.5 999.5,-77.75 999.5,-77.75 999.5,-77.75 1013.18,-77.75 1013.18,-77.75"/>
<polygon fill="#ea580c" stroke="#ea580c" stroke-width="1.5" points="1013.18,-81.25 1023.18,-77.75 1013.18,-74.25 1013.18,-81.25"/>
</g>
<!-- currency -->
<g id="node7" class="node">
<title>currency</title>
<path fill="#fef3c7" stroke="#d97706" d="M1086.25,-39.5C1086.25,-39.5 1033.5,-39.5 1033.5,-39.5 1027.5,-39.5 1021.5,-33.5 1021.5,-27.5 1021.5,-27.5 1021.5,-12 1021.5,-12 1021.5,-6 1027.5,0 1033.5,0 1033.5,0 1086.25,0 1086.25,0 1092.25,0 1098.25,-6 1098.25,-12 1098.25,-12 1098.25,-27.5 1098.25,-27.5 1098.25,-33.5 1092.25,-39.5 1086.25,-39.5"/>
<text xml:space="preserve" text-anchor="middle" x="1059.88" y="-26.95" font-family="Helvetica,sans-Serif" font-size="9.00" fill="#1e293b">Currency</text>
<text xml:space="preserve" text-anchor="middle" x="1059.88" y="-16.45" font-family="Helvetica,sans-Serif" font-size="9.00" fill="#1e293b">162 currencies</text>
<text xml:space="preserve" text-anchor="middle" x="1059.88" y="-5.95" font-family="Helvetica,sans-Serif" font-size="9.00" fill="#1e293b">ECB rates</text>
</g>
<!-- pricing&#45;&gt;currency -->
<g id="edge6" class="edge">
<title>pricing&#45;&gt;currency</title>
<path fill="none" stroke="#d97706" stroke-dasharray="5,2" d="M933.5,-57.79C933.5,-41.01 933.5,-19.75 933.5,-19.75 933.5,-19.75 1009.76,-19.75 1009.76,-19.75"/>
<polygon fill="#d97706" stroke="#d97706" points="1009.76,-23.25 1019.76,-19.75 1009.76,-16.25 1009.76,-23.25"/>
</g>
<!-- menubar -->
<g id="node13" class="node">
<title>menubar</title>
<path fill="#e0e7ff" stroke="#6366f1" d="M1215.5,-329.5C1215.5,-329.5 1183.75,-329.5 1183.75,-329.5 1177.75,-329.5 1171.75,-323.5 1171.75,-317.5 1171.75,-317.5 1171.75,-302 1171.75,-302 1171.75,-296 1177.75,-290 1183.75,-290 1183.75,-290 1215.5,-290 1215.5,-290 1221.5,-290 1227.5,-296 1227.5,-302 1227.5,-302 1227.5,-317.5 1227.5,-317.5 1227.5,-323.5 1221.5,-329.5 1215.5,-329.5"/>
<text xml:space="preserve" text-anchor="middle" x="1199.62" y="-316.95" font-family="Helvetica,sans-Serif" font-size="9.00" fill="#1e293b">macOS</text>
<text xml:space="preserve" text-anchor="middle" x="1199.62" y="-306.45" font-family="Helvetica,sans-Serif" font-size="9.00" fill="#1e293b">Menu Bar</text>
<text xml:space="preserve" text-anchor="middle" x="1199.62" y="-295.95" font-family="Helvetica,sans-Serif" font-size="9.00" fill="#1e293b">SwiftUI</text>
</g>
<!-- dashboard&#45;&gt;menubar -->
<g id="edge12" class="edge">
<title>dashboard&#45;&gt;menubar</title>
<path fill="none" stroke="#6366f1" stroke-dasharray="5,2" d="M1099.18,-309.75C1099.18,-309.75 1160.17,-309.75 1160.17,-309.75"/>
<polygon fill="#6366f1" stroke="#6366f1" points="1160.17,-313.25 1170.17,-309.75 1160.17,-306.25 1160.17,-313.25"/>
<text xml:space="preserve" text-anchor="middle" x="1136.88" y="-311.9" font-family="Times New Roman,serif" font-size="8.00" fill="#6366f1"> &#160;payload &#160;</text>
</g>
</g>
</svg>
