<?xml version="1.0" encoding="UTF-8" standalone="no"?>
<!DOCTYPE svg PUBLIC "-//W3C//DTD SVG 1.1//EN"
 "http://www.w3.org/Graphics/SVG/1.1/DTD/svg11.dtd">
<!-- Generated by graphviz version 14.1.2 (0)
 -->
<!-- Title: textgen_features Pages: 1 -->
<svg width="2264pt" height="179pt"
 viewBox="0.00 0.00 2264.00 179.00" xmlns="http://www.w3.org/2000/svg" xmlns:xlink="http://www.w3.org/1999/xlink">
<style>
<!-- White text halo for edge label readability -->
text { paint-order: stroke; stroke: #ffffff; stroke-width: 3px; stroke-linejoin: round; fill: #1a1a2e; }
</style>
<g id="graph0" class="graph" transform="scale(1 1) rotate(0) translate(4 174.5)">
<title>textgen_features</title>
<polygon fill="white" stroke="none" points="-4,4 -4,-174.5 2260,-174.5 2260,4 -4,4"/>
<text xml:space="preserve" text-anchor="middle" x="1128" y="-7.2" font-family="Times New Roman,serif" font-size="14.00">TextGen &#45; Feature Overview</text>
<g id="clust1" class="cluster">
<title>cluster_chat</title>
<polygon fill="#f0f4f8" stroke="#90a4ae" points="8,-32.5 8,-106.75 704,-106.75 704,-32.5 8,-32.5"/>
<text xml:space="preserve" text-anchor="middle" x="356" y="-91.35" font-family="Arial Bold" font-size="12.00" fill="#37474f">Chat &amp; Generation</text>
</g>
<g id="clust2" class="cluster">
<title>cluster_api</title>
<polygon fill="#f0f4f8" stroke="#90a4ae" points="724,-32.5 724,-106.75 1296,-106.75 1296,-32.5 724,-32.5"/>
<text xml:space="preserve" text-anchor="middle" x="1010" y="-91.35" font-family="Arial Bold" font-size="12.00" fill="#37474f">API &amp; Tool Calling</text>
</g>
<g id="clust3" class="cluster">
<title>cluster_train</title>
<polygon fill="#f0f4f8" stroke="#90a4ae" points="1316,-32.5 1316,-106.75 1691,-106.75 1691,-32.5 1316,-32.5"/>
<text xml:space="preserve" text-anchor="middle" x="1503.5" y="-91.35" font-family="Arial Bold" font-size="12.00" fill="#37474f">Training &amp; Image Gen</text>
</g>
<g id="clust4" class="cluster">
<title>cluster_privacy</title>
<polygon fill="#f0f4f8" stroke="#90a4ae" points="1711,-32.5 1711,-106.75 2248,-106.75 2248,-32.5 1711,-32.5"/>
<text xml:space="preserve" text-anchor="middle" x="1979.5" y="-91.35" font-family="Arial Bold" font-size="12.00" fill="#37474f">Privacy &amp; Interface</text>
</g>
<!-- instruct -->
<g id="node1" class="node">
<title>instruct</title>
<path fill="#ff9800" stroke="black" d="M92,-76.5C92,-76.5 28,-76.5 28,-76.5 22,-76.5 16,-70.5 16,-64.5 16,-64.5 16,-52.5 16,-52.5 16,-46.5 22,-40.5 28,-40.5 28,-40.5 92,-40.5 92,-40.5 98,-40.5 104,-46.5 104,-52.5 104,-52.5 104,-64.5 104,-64.5 104,-70.5 98,-76.5 92,-76.5"/>
<text xml:space="preserve" text-anchor="middle" x="60" y="-61.55" font-family="Arial" font-size="11.00" fill="white">Instruct Mode</text>
<text xml:space="preserve" text-anchor="middle" x="60" y="-48.05" font-family="Arial" font-size="11.00" fill="white">(ChatGPT&#45;like)</text>
</g>
<!-- chat_mode -->
<g id="node2" class="node">
<title>chat_mode</title>
<path fill="#ff9800" stroke="black" d="M238.25,-76.5C238.25,-76.5 151.75,-76.5 151.75,-76.5 145.75,-76.5 139.75,-70.5 139.75,-64.5 139.75,-64.5 139.75,-52.5 139.75,-52.5 139.75,-46.5 145.75,-40.5 151.75,-40.5 151.75,-40.5 238.25,-40.5 238.25,-40.5 244.25,-40.5 250.25,-46.5 250.25,-52.5 250.25,-52.5 250.25,-64.5 250.25,-64.5 250.25,-70.5 244.25,-76.5 238.25,-76.5"/>
<text xml:space="preserve" text-anchor="middle" x="195" y="-61.55" font-family="Arial" font-size="11.00" fill="white">Chat / Chat&#45;Instruct</text>
<text xml:space="preserve" text-anchor="middle" x="195" y="-48.05" font-family="Arial" font-size="11.00" fill="white">(Character&#45;based)</text>
</g>
<!-- notebook -->
<g id="node3" class="node">
<title>notebook</title>
<path fill="#ff9800" stroke="black" d="M392,-76.5C392,-76.5 298,-76.5 298,-76.5 292,-76.5 286,-70.5 286,-64.5 286,-64.5 286,-52.5 286,-52.5 286,-46.5 292,-40.5 298,-40.5 298,-40.5 392,-40.5 392,-40.5 398,-40.5 404,-46.5 404,-52.5 404,-52.5 404,-64.5 404,-64.5 404,-70.5 398,-76.5 392,-76.5"/>
<text xml:space="preserve" text-anchor="middle" x="345" y="-61.55" font-family="Arial" font-size="11.00" fill="white">Notebook</text>
<text xml:space="preserve" text-anchor="middle" x="345" y="-48.05" font-family="Arial" font-size="11.00" fill="white">Free&#45;form generation</text>
</g>
<!-- vision -->
<g id="node4" class="node">
<title>vision</title>
<path fill="#ff9800" stroke="black" d="M545.62,-76.5C545.62,-76.5 452.38,-76.5 452.38,-76.5 446.38,-76.5 440.38,-70.5 440.38,-64.5 440.38,-64.5 440.38,-52.5 440.38,-52.5 440.38,-46.5 446.38,-40.5 452.38,-40.5 452.38,-40.5 545.62,-40.5 545.62,-40.5 551.62,-40.5 557.62,-46.5 557.62,-52.5 557.62,-52.5 557.62,-64.5 557.62,-64.5 557.62,-70.5 551.62,-76.5 545.62,-76.5"/>
<text xml:space="preserve" text-anchor="middle" x="499" y="-61.55" font-family="Arial" font-size="11.00" fill="white">Vision (Multimodal)</text>
<text xml:space="preserve" text-anchor="middle" x="499" y="-48.05" font-family="Arial" font-size="11.00" fill="white">Image understanding</text>
</g>
<!-- files -->
<g id="node5" class="node">
<title>files</title>
<path fill="#ff9800" stroke="black" d="M684.12,-76.5C684.12,-76.5 605.88,-76.5 605.88,-76.5 599.88,-76.5 593.88,-70.5 593.88,-64.5 593.88,-64.5 593.88,-52.5 593.88,-52.5 593.88,-46.5 599.88,-40.5 605.88,-40.5 605.88,-40.5 684.12,-40.5 684.12,-40.5 690.12,-40.5 696.12,-46.5 696.12,-52.5 696.12,-52.5 696.12,-64.5 696.12,-64.5 696.12,-70.5 690.12,-76.5 684.12,-76.5"/>
<text xml:space="preserve" text-anchor="middle" x="645" y="-61.55" font-family="Arial" font-size="11.00" fill="white">File Attachments</text>
<text xml:space="preserve" text-anchor="middle" x="645" y="-48.05" font-family="Arial" font-size="11.00" fill="white">PDF, DOCX, TXT</text>
</g>
<!-- openai_api -->
<g id="node6" class="node">
<title>openai_api</title>
<path fill="#ff9800" stroke="black" d="M848.25,-76.5C848.25,-76.5 743.75,-76.5 743.75,-76.5 737.75,-76.5 731.75,-70.5 731.75,-64.5 731.75,-64.5 731.75,-52.5 731.75,-52.5 731.75,-46.5 737.75,-40.5 743.75,-40.5 743.75,-40.5 848.25,-40.5 848.25,-40.5 854.25,-40.5 860.25,-46.5 860.25,-52.5 860.25,-52.5 860.25,-64.5 860.25,-64.5 860.25,-70.5 854.25,-76.5 848.25,-76.5"/>
<text xml:space="preserve" text-anchor="middle" x="796" y="-61.55" font-family="Arial" font-size="11.00" fill="white">OpenAI&#45;compatible API</text>
<text xml:space="preserve" text-anchor="middle" x="796" y="-48.05" font-family="Arial" font-size="11.00" fill="white">Chat / Completions</text>
</g>
<!-- tool_call -->
<g id="node7" class="node">
<title>tool_call</title>
<path fill="#ff9800" stroke="black" d="M999.88,-76.5C999.88,-76.5 908.12,-76.5 908.12,-76.5 902.12,-76.5 896.12,-70.5 896.12,-64.5 896.12,-64.5 896.12,-52.5 896.12,-52.5 896.12,-46.5 902.12,-40.5 908.12,-40.5 908.12,-40.5 999.88,-40.5 999.88,-40.5 1005.88,-40.5 1011.88,-46.5 1011.88,-52.5 1011.88,-52.5 1011.88,-64.5 1011.88,-64.5 1011.88,-70.5 1005.88,-76.5 999.88,-76.5"/>
<text xml:space="preserve" text-anchor="middle" x="954" y="-61.55" font-family="Arial" font-size="11.00" fill="white">Tool Calling</text>
<text xml:space="preserve" text-anchor="middle" x="954" y="-48.05" font-family="Arial" font-size="11.00" fill="white">Custom Python tools</text>
</g>
<!-- mcp -->
<g id="node8" class="node">
<title>mcp</title>
<path fill="#ff9800" stroke="black" d="M1164.25,-76.5C1164.25,-76.5 1059.75,-76.5 1059.75,-76.5 1053.75,-76.5 1047.75,-70.5 1047.75,-64.5 1047.75,-64.5 1047.75,-52.5 1047.75,-52.5 1047.75,-46.5 1053.75,-40.5 1059.75,-40.5 1059.75,-40.5 1164.25,-40.5 1164.25,-40.5 1170.25,-40.5 1176.25,-46.5 1176.25,-52.5 1176.25,-52.5 1176.25,-64.5 1176.25,-64.5 1176.25,-70.5 1170.25,-76.5 1164.25,-76.5"/>
<text xml:space="preserve" text-anchor="middle" x="1112" y="-61.55" font-family="Arial" font-size="11.00" fill="white">MCP Servers</text>
<text xml:space="preserve" text-anchor="middle" x="1112" y="-48.05" font-family="Arial" font-size="11.00" fill="white">Model Context Protocol</text>
</g>
<!-- web_search -->
<g id="node9" class="node">
<title>web_search</title>
<path fill="#ff9800" stroke="black" d="M1276,-76.5C1276,-76.5 1224,-76.5 1224,-76.5 1218,-76.5 1212,-70.5 1212,-64.5 1212,-64.5 1212,-52.5 1212,-52.5 1212,-46.5 1218,-40.5 1224,-40.5 1224,-40.5 1276,-40.5 1276,-40.5 1282,-40.5 1288,-46.5 1288,-52.5 1288,-52.5 1288,-64.5 1288,-64.5 1288,-70.5 1282,-76.5 1276,-76.5"/>
<text xml:space="preserve" text-anchor="middle" x="1250" y="-61.55" font-family="Arial" font-size="11.00" fill="white">Web Search</text>
<text xml:space="preserve" text-anchor="middle" x="1250" y="-48.05" font-family="Arial" font-size="11.00" fill="white">Built&#45;in tools</text>
</g>
<!-- lora -->
<g id="node10" class="node">
<title>lora</title>
<path fill="#ff9800" stroke="black" d="M1396.12,-76.5C1396.12,-76.5 1335.88,-76.5 1335.88,-76.5 1329.88,-76.5 1323.88,-70.5 1323.88,-64.5 1323.88,-64.5 1323.88,-52.5 1323.88,-52.5 1323.88,-46.5 1329.88,-40.5 1335.88,-40.5 1335.88,-40.5 1396.12,-40.5 1396.12,-40.5 1402.12,-40.5 1408.12,-46.5 1408.12,-52.5 1408.12,-52.5 1408.12,-64.5 1408.12,-64.5 1408.12,-70.5 1402.12,-76.5 1396.12,-76.5"/>
<text xml:space="preserve" text-anchor="middle" x="1366" y="-61.55" font-family="Arial" font-size="11.00" fill="white">LoRA Training</text>
<text xml:space="preserve" text-anchor="middle" x="1366" y="-48.05" font-family="Arial" font-size="11.00" fill="white">Fine&#45;tuning</text>
</g>
<!-- image_gen -->
<g id="node11" class="node">
<title>image_gen</title>
<path fill="#ff9800" stroke="black" d="M1534.12,-76.5C1534.12,-76.5 1455.88,-76.5 1455.88,-76.5 1449.88,-76.5 1443.88,-70.5 1443.88,-64.5 1443.88,-64.5 1443.88,-52.5 1443.88,-52.5 1443.88,-46.5 1449.88,-40.5 1455.88,-40.5 1455.88,-40.5 1534.12,-40.5 1534.12,-40.5 1540.12,-40.5 1546.12,-46.5 1546.12,-52.5 1546.12,-52.5 1546.12,-64.5 1546.12,-64.5 1546.12,-70.5 1540.12,-76.5 1534.12,-76.5"/>
<text xml:space="preserve" text-anchor="middle" x="1495" y="-61.55" font-family="Arial" font-size="11.00" fill="white">Image Generation</text>
<text xml:space="preserve" text-anchor="middle" x="1495" y="-48.05" font-family="Arial" font-size="11.00" fill="white">Diffusers models</text>
</g>
<!-- gallery -->
<g id="node12" class="node">
<title>gallery</title>
<path fill="#ff9800" stroke="black" d="M1671.38,-76.5C1671.38,-76.5 1594.62,-76.5 1594.62,-76.5 1588.62,-76.5 1582.62,-70.5 1582.62,-64.5 1582.62,-64.5 1582.62,-52.5 1582.62,-52.5 1582.62,-46.5 1588.62,-40.5 1594.62,-40.5 1594.62,-40.5 1671.38,-40.5 1671.38,-40.5 1677.38,-40.5 1683.38,-46.5 1683.38,-52.5 1683.38,-52.5 1683.38,-64.5 1683.38,-64.5 1683.38,-70.5 1677.38,-76.5 1671.38,-76.5"/>
<text xml:space="preserve" text-anchor="middle" x="1633" y="-61.55" font-family="Arial" font-size="11.00" fill="white">Persistent Gallery</text>
<text xml:space="preserve" text-anchor="middle" x="1633" y="-48.05" font-family="Arial" font-size="11.00" fill="white">With metadata</text>
</g>
<!-- offline -->
<g id="node13" class="node">
<title>offline</title>
<path fill="#4caf50" stroke="black" d="M1786.5,-76.5C1786.5,-76.5 1731.5,-76.5 1731.5,-76.5 1725.5,-76.5 1719.5,-70.5 1719.5,-64.5 1719.5,-64.5 1719.5,-52.5 1719.5,-52.5 1719.5,-46.5 1725.5,-40.5 1731.5,-40.5 1731.5,-40.5 1786.5,-40.5 1786.5,-40.5 1792.5,-40.5 1798.5,-46.5 1798.5,-52.5 1798.5,-52.5 1798.5,-64.5 1798.5,-64.5 1798.5,-70.5 1792.5,-76.5 1786.5,-76.5"/>
<text xml:space="preserve" text-anchor="middle" x="1759" y="-61" font-family="Arial" font-size="10.00" fill="white">100% Offline</text>
<text xml:space="preserve" text-anchor="middle" x="1759" y="-49" font-family="Arial" font-size="10.00" fill="white">Zero telemetry</text>
</g>
<!-- themes -->
<g id="node14" class="node">
<title>themes</title>
<path fill="#ff9800" stroke="black" d="M1935.75,-76.5C1935.75,-76.5 1846.25,-76.5 1846.25,-76.5 1840.25,-76.5 1834.25,-70.5 1834.25,-64.5 1834.25,-64.5 1834.25,-52.5 1834.25,-52.5 1834.25,-46.5 1840.25,-40.5 1846.25,-40.5 1846.25,-40.5 1935.75,-40.5 1935.75,-40.5 1941.75,-40.5 1947.75,-46.5 1947.75,-52.5 1947.75,-52.5 1947.75,-64.5 1947.75,-64.5 1947.75,-70.5 1941.75,-76.5 1935.75,-76.5"/>
<text xml:space="preserve" text-anchor="middle" x="1891" y="-61.55" font-family="Arial" font-size="11.00" fill="white">Dark / Light Themes</text>
<text xml:space="preserve" text-anchor="middle" x="1891" y="-48.05" font-family="Arial" font-size="11.00" fill="white">Syntax highlighting</text>
</g>
<!-- latex -->
<g id="node15" class="node">
<title>latex</title>
<path fill="#ff9800" stroke="black" d="M2072,-76.5C2072,-76.5 1996,-76.5 1996,-76.5 1990,-76.5 1984,-70.5 1984,-64.5 1984,-64.5 1984,-52.5 1984,-52.5 1984,-46.5 1990,-40.5 1996,-40.5 1996,-40.5 2072,-40.5 2072,-40.5 2078,-40.5 2084,-46.5 2084,-52.5 2084,-52.5 2084,-64.5 2084,-64.5 2084,-70.5 2078,-76.5 2072,-76.5"/>
<text xml:space="preserve" text-anchor="middle" x="2034" y="-61.55" font-family="Arial" font-size="11.00" fill="white">LaTeX Rendering</text>
<text xml:space="preserve" text-anchor="middle" x="2034" y="-48.05" font-family="Arial" font-size="11.00" fill="white">Math expressions</text>
</g>
<!-- extensions_ui -->
<g id="node16" class="node">
<title>extensions_ui</title>
<path fill="#ff9800" stroke="black" d="M2227.75,-76.5C2227.75,-76.5 2132.25,-76.5 2132.25,-76.5 2126.25,-76.5 2120.25,-70.5 2120.25,-64.5 2120.25,-64.5 2120.25,-52.5 2120.25,-52.5 2120.25,-46.5 2126.25,-40.5 2132.25,-40.5 2132.25,-40.5 2227.75,-40.5 2227.75,-40.5 2233.75,-40.5 2239.75,-46.5 2239.75,-52.5 2239.75,-52.5 2239.75,-64.5 2239.75,-64.5 2239.75,-70.5 2233.75,-76.5 2227.75,-76.5"/>
<text xml:space="preserve" text-anchor="middle" x="2180" y="-61.55" font-family="Arial" font-size="11.00" fill="white">Extensions</text>
<text xml:space="preserve" text-anchor="middle" x="2180" y="-48.05" font-family="Arial" font-size="11.00" fill="white">TTS, Voice, Translate</text>
</g>
<!-- core -->
<g id="node17" class="node">
<title>core</title>
<path fill="#2196f3" stroke="black" d="M1216,-170.5C1216,-170.5 1146,-170.5 1146,-170.5 1140,-170.5 1134,-164.5 1134,-158.5 1134,-158.5 1134,-146.5 1134,-146.5 1134,-140.5 1140,-134.5 1146,-134.5 1146,-134.5 1216,-134.5 1216,-134.5 1222,-134.5 1228,-140.5 1228,-146.5 1228,-146.5 1228,-158.5 1228,-158.5 1228,-164.5 1222,-170.5 1216,-170.5"/>
<text xml:space="preserve" text-anchor="middle" x="1181" y="-148.22" font-family="Arial Bold" font-size="12.00" fill="white">TextGen Core</text>
</g>
<!-- core&#45;&gt;instruct -->
<g id="edge1" class="edge">
<title>core&#45;&gt;instruct</title>
<path fill="none" stroke="#2196f3" stroke-width="1.5" d="M1133.55,-166.5C920.18,-166.5 60,-166.5 60,-166.5 60,-166.5 60,-89.09 60,-89.09"/>
<polygon fill="#2196f3" stroke="#2196f3" stroke-width="1.5" points="63.5,-89.09 60,-79.09 56.5,-89.09 63.5,-89.09"/>
</g>
<!-- core&#45;&gt;chat_mode -->
<g id="edge2" class="edge">
<title>core&#45;&gt;chat_mode</title>
<path fill="none" stroke="#2196f3" stroke-width="1.5" d="M1133.78,-161.5C937.32,-161.5 195,-161.5 195,-161.5 195,-161.5 195,-89.18 195,-89.18"/>
<polygon fill="#2196f3" stroke="#2196f3" stroke-width="1.5" points="198.5,-89.18 195,-79.18 191.5,-89.18 198.5,-89.18"/>
</g>
<!-- core&#45;&gt;notebook -->
<g id="edge3" class="edge">
<title>core&#45;&gt;notebook</title>
<path fill="none" stroke="#2196f3" stroke-width="1.5" d="M1133.66,-157.5C956.81,-157.5 345,-157.5 345,-157.5 345,-157.5 345,-88.93 345,-88.93"/>
<polygon fill="#2196f3" stroke="#2196f3" stroke-width="1.5" points="348.5,-88.93 345,-78.93 341.5,-88.93 348.5,-88.93"/>
</g>
<!-- core&#45;&gt;vision -->
<g id="edge4" class="edge">
<title>core&#45;&gt;vision</title>
<path fill="none" stroke="#2196f3" stroke-width="1.5" d="M1133.58,-152.5C978.92,-152.5 499,-152.5 499,-152.5 499,-152.5 499,-88.89 499,-88.89"/>
<polygon fill="#2196f3" stroke="#2196f3" stroke-width="1.5" points="502.5,-88.89 499,-78.89 495.5,-88.89 502.5,-88.89"/>
</g>
<!-- core&#45;&gt;files -->
<g id="edge5" class="edge">
<title>core&#45;&gt;files</title>
<path fill="none" stroke="#2196f3" stroke-width="1.5" d="M1133.9,-148.5C1003.11,-148.5 645,-148.5 645,-148.5 645,-148.5 645,-88.98 645,-88.98"/>
<polygon fill="#2196f3" stroke="#2196f3" stroke-width="1.5" points="648.5,-88.98 645,-78.98 641.5,-88.98 648.5,-88.98"/>
</g>
<!-- core&#45;&gt;openai_api -->
<g id="edge6" class="edge">
<title>core&#45;&gt;openai_api</title>
<path fill="none" stroke="#ff9800" stroke-width="1.5" d="M1133.79,-143.5C1030.99,-143.5 796,-143.5 796,-143.5 796,-143.5 796,-89.21 796,-89.21"/>
<polygon fill="#ff9800" stroke="#ff9800" stroke-width="1.5" points="799.5,-89.21 796,-79.21 792.5,-89.21 799.5,-89.21"/>
</g>
<!-- core&#45;&gt;tool_call -->
<g id="edge7" class="edge">
<title>core&#45;&gt;tool_call</title>
<path fill="none" stroke="#ff9800" stroke-width="1.5" d="M1133.69,-139.5C1067.16,-139.5 954,-139.5 954,-139.5 954,-139.5 954,-89.15 954,-89.15"/>
<polygon fill="#ff9800" stroke="#ff9800" stroke-width="1.5" points="957.5,-89.15 954,-79.15 950.5,-89.15 957.5,-89.15"/>
</g>
<!-- core&#45;&gt;mcp -->
<g id="edge8" class="edge">
<title>core&#45;&gt;mcp</title>
<path fill="none" stroke="#ff9800" stroke-width="1.5" d="M1155.12,-134.38C1155.12,-134.38 1155.12,-89.16 1155.12,-89.16"/>
<polygon fill="#ff9800" stroke="#ff9800" stroke-width="1.5" points="1158.63,-89.16 1155.13,-79.16 1151.63,-89.16 1158.63,-89.16"/>
</g>
<!-- core&#45;&gt;web_search -->
<g id="edge9" class="edge">
<title>core&#45;&gt;web_search</title>
<path fill="none" stroke="#ff9800" stroke-width="1.5" d="M1220,-134.38C1220,-134.38 1220,-89.16 1220,-89.16"/>
<polygon fill="#ff9800" stroke="#ff9800" stroke-width="1.5" points="1223.5,-89.16 1220,-79.16 1216.5,-89.16 1223.5,-89.16"/>
</g>
<!-- core&#45;&gt;lora -->
<g id="edge10" class="edge">
<title>core&#45;&gt;lora</title>
<path fill="none" stroke="#9c27b0" stroke-width="1.5" d="M1228.16,-139.5C1282.97,-139.5 1366,-139.5 1366,-139.5 1366,-139.5 1366,-89.15 1366,-89.15"/>
<polygon fill="#9c27b0" stroke="#9c27b0" stroke-width="1.5" points="1369.5,-89.15 1366,-79.15 1362.5,-89.15 1369.5,-89.15"/>
</g>
<!-- core&#45;&gt;image_gen -->
<g id="edge11" class="edge">
<title>core&#45;&gt;image_gen</title>
<path fill="none" stroke="#9c27b0" stroke-width="1.5" d="M1228.35,-143.5C1316.07,-143.5 1495,-143.5 1495,-143.5 1495,-143.5 1495,-89.21 1495,-89.21"/>
<polygon fill="#9c27b0" stroke="#9c27b0" stroke-width="1.5" points="1498.5,-89.21 1495,-79.21 1491.5,-89.21 1498.5,-89.21"/>
</g>
<!-- core&#45;&gt;gallery -->
<g id="edge12" class="edge">
<title>core&#45;&gt;gallery</title>
<path fill="none" stroke="#9c27b0" stroke-width="1.5" d="M1228.09,-148.5C1343.86,-148.5 1633,-148.5 1633,-148.5 1633,-148.5 1633,-88.98 1633,-88.98"/>
<polygon fill="#9c27b0" stroke="#9c27b0" stroke-width="1.5" points="1636.5,-88.98 1633,-78.98 1629.5,-88.98 1636.5,-88.98"/>
</g>
<!-- core&#45;&gt;offline -->
<g id="edge13" class="edge">
<title>core&#45;&gt;offline</title>
<path fill="none" stroke="#4caf50" stroke-width="1.5" d="M1228.3,-152.5C1366.34,-152.5 1759,-152.5 1759,-152.5 1759,-152.5 1759,-88.89 1759,-88.89"/>
<polygon fill="#4caf50" stroke="#4caf50" stroke-width="1.5" points="1762.5,-88.89 1759,-78.89 1755.5,-88.89 1762.5,-88.89"/>
</g>
<!-- core&#45;&gt;themes -->
<g id="edge14" class="edge">
<title>core&#45;&gt;themes</title>
<path fill="none" stroke="#4caf50" stroke-width="1.5" d="M1228.41,-157.5C1387.29,-157.5 1891,-157.5 1891,-157.5 1891,-157.5 1891,-88.93 1891,-88.93"/>
<polygon fill="#4caf50" stroke="#4caf50" stroke-width="1.5" points="1894.5,-88.93 1891,-78.93 1887.5,-88.93 1894.5,-88.93"/>
</g>
<!-- core&#45;&gt;latex -->
<g id="edge15" class="edge">
<title>core&#45;&gt;latex</title>
<path fill="none" stroke="#4caf50" stroke-width="1.5" d="M1228.38,-161.5C1407.61,-161.5 2034,-161.5 2034,-161.5 2034,-161.5 2034,-89.18 2034,-89.18"/>
<polygon fill="#4caf50" stroke="#4caf50" stroke-width="1.5" points="2037.5,-89.18 2034,-79.18 2030.5,-89.18 2037.5,-89.18"/>
</g>
<!-- core&#45;&gt;extensions_ui -->
<g id="edge16" class="edge">
<title>core&#45;&gt;extensions_ui</title>
<path fill="none" stroke="#4caf50" stroke-width="1.5" d="M1228.18,-166.5C1426.2,-166.5 2180,-166.5 2180,-166.5 2180,-166.5 2180,-89.09 2180,-89.09"/>
<polygon fill="#4caf50" stroke="#4caf50" stroke-width="1.5" points="2183.5,-89.09 2180,-79.09 2176.5,-89.09 2183.5,-89.09"/>
</g>
</g>
</svg>
