<?xml version="1.0" encoding="UTF-8" standalone="no"?>


<!DOCTYPE svg PUBLIC "-//W3C//DTD SVG 1.1//EN"


 "http://www.w3.org/Graphics/SVG/1.1/DTD/svg11.dtd">


<!-- Generated by graphviz version 14.1.4 (20260321.0153)


 -->


<!-- Title: token_optimization Pages: 1 -->


<svg width="435.6" height="614.6"


 viewBox="-70.0 -544.6 435.6 614.6" xmlns="http://www.w3.org/2000/svg" xmlns:xlink="http://www.w3.org/1999/xlink">


<g id="graph0" class="graph" transform="scale(1 1) rotate(0) translate(4 478.6)">


<title>token_optimization</title>


<!-- ai_agent -->


<g id="node1" class="node">


<title>ai_agent</title>


<path fill="#2196f3" stroke="black" d="M200.6,-474.6C200.6,-474.6 95,-474.6 95,-474.6 89,-474.6 83,-468.6 83,-462.6 83,-462.6 83,-400.2 83,-400.2 83,-394.2 89,-388.2 95,-388.2 95,-388.2 200.6,-388.2 200.6,-388.2 206.6,-388.2 212.6,-394.2 212.6,-400.2 212.6,-400.2 212.6,-462.6 212.6,-462.6 212.6,-468.6 206.6,-474.6 200.6,-474.6"/>


<text xml:space="preserve" text-anchor="middle" x="147.8" y="-426.55" font-family="Arial Bold" font-size="13.00" fill="white">AI Agent</text>


</g>


<!-- without -->


<g id="node2" class="node">


<title>without</title>


<path fill="#f44336" stroke="black" d="M117.6,-345.2C117.6,-345.2 12,-345.2 12,-345.2 6,-345.2 0,-339.2 0,-333.2 0,-333.2 0,-270.8 0,-270.8 0,-264.8 6,-258.8 12,-258.8 12,-258.8 117.6,-258.8 117.6,-258.8 123.6,-258.8 129.6,-264.8 129.6,-270.8 129.6,-270.8 129.6,-333.2 129.6,-333.2 129.6,-339.2 123.6,-345.2 117.6,-345.2"/>


<text xml:space="preserve" text-anchor="middle" x="64.8" y="-304.65" font-family="Arial Bold" font-size="13.00" fill="white">Without</text>


<text xml:space="preserve" text-anchor="middle" x="64.8" y="-289.65" font-family="Arial Bold" font-size="13.00" fill="white">CodeGraph</text>


</g>


<!-- ai_agent&#45;&gt;without -->


<g id="edge1" class="edge">


<title>ai_agent&#45;&gt;without</title>


<path fill="none" stroke="#f44336" stroke-width="435.6" d="M106.3,-387.95C106.3,-387.95 106.3,-359.34 106.3,-359.34"/>


<polygon fill="#f44336" stroke="#f44336" stroke-width="435.6" points="109.8,-359.34 106.3,-349.34 102.8,-359.34 109.8,-359.34"/>


</g>


<!-- with -->


<g id="node5" class="node">


<title>with</title>


<path fill="#4caf50" stroke="black" d="M283.6,-345.2C283.6,-345.2 178,-345.2 178,-345.2 172,-345.2 166,-339.2 166,-333.2 166,-333.2 166,-270.8 166,-270.8 166,-264.8 172,-258.8 178,-258.8 178,-258.8 283.6,-258.8 283.6,-258.8 289.6,-258.8 295.6,-264.8 295.6,-270.8 295.6,-270.8 295.6,-333.2 295.6,-333.2 295.6,-339.2 289.6,-345.2 283.6,-345.2"/>


<text xml:space="preserve" text-anchor="middle" x="230.8" y="-304.65" font-family="Arial Bold" font-size="13.00" fill="white">With</text>


<text xml:space="preserve" text-anchor="middle" x="230.8" y="-289.65" font-family="Arial Bold" font-size="13.00" fill="white">CodeGraph</text>


</g>


<!-- ai_agent&#45;&gt;with -->


<g id="edge4" class="edge">


<title>ai_agent&#45;&gt;with</title>


<path fill="none" stroke="#4caf50" stroke-width="435.6" d="M189.3,-387.95C189.3,-387.95 189.3,-359.34 189.3,-359.34"/>


<polygon fill="#4caf50" stroke="#4caf50" stroke-width="435.6" points="192.8,-359.34 189.3,-349.34 185.8,-359.34 192.8,-359.34"/>


</g>


<!-- read_files -->


<g id="node3" class="node">


<title>read_files</title>


<path fill="#ef5350" stroke="black" d="M117.6,-215.8C117.6,-215.8 12,-215.8 12,-215.8 6,-215.8 0,-209.8 0,-203.8 0,-203.8 0,-141.4 0,-141.4 0,-135.4 6,-129.4 12,-129.4 12,-129.4 117.6,-129.4 117.6,-129.4 123.6,-129.4 129.6,-135.4 129.6,-141.4 129.6,-141.4 129.6,-203.8 129.6,-203.8 129.6,-209.8 123.6,-215.8 117.6,-215.8"/>


<text xml:space="preserve" text-anchor="middle" x="64.8" y="-175.25" font-family="Arial Bold" font-size="13.00" fill="white">Read 50+</text>


<text xml:space="preserve" text-anchor="middle" x="64.8" y="-160.25" font-family="Arial Bold" font-size="13.00" fill="white">Files</text>


</g>


<!-- without&#45;&gt;read_files -->


<g id="edge2" class="edge">


<title>without&#45;&gt;read_files</title>


<path fill="none" stroke="#f44336" stroke-width="435.6" d="M64.8,-258.55C64.8,-258.55 64.8,-229.94 64.8,-229.94"/>


<polygon fill="#f44336" stroke="#f44336" stroke-width="435.6" points="68.3,-229.94 64.8,-219.94 61.3,-229.94 68.3,-229.94"/>


</g>


<!-- high_tokens -->


<g id="node4" class="node">


<title>high_tokens</title>


<path fill="#c62828" stroke="black" d="M117.6,-86.4C117.6,-86.4 12,-86.4 12,-86.4 6,-86.4 0,-80.4 0,-74.4 0,-74.4 0,-12 0,-12 0,-6 6,0 12,0 12,0 117.6,0 117.6,0 123.6,0 129.6,-6 129.6,-12 129.6,-12 129.6,-74.4 129.6,-74.4 129.6,-80.4 123.6,-86.4 117.6,-86.4"/>


<text xml:space="preserve" text-anchor="middle" x="64.8" y="-45.85" font-family="Arial Bold" font-size="13.00" fill="white">50K+</text>


<text xml:space="preserve" text-anchor="middle" x="64.8" y="-30.85" font-family="Arial Bold" font-size="13.00" fill="white">Tokens</text>


</g>


<!-- read_files&#45;&gt;high_tokens -->


<g id="edge3" class="edge">


<title>read_files&#45;&gt;high_tokens</title>


<path fill="none" stroke="#f44336" stroke-width="435.6" d="M64.8,-129.15C64.8,-129.15 64.8,-100.54 64.8,-100.54"/>


<polygon fill="#f44336" stroke="#f44336" stroke-width="435.6" points="68.3,-100.54 64.8,-90.54 61.3,-100.54 68.3,-100.54"/>


</g>


<!-- graph_queries -->


<g id="node6" class="node">


<title>graph_queries</title>


<path fill="#81c784" stroke="black" d="M283.6,-215.8C283.6,-215.8 178,-215.8 178,-215.8 172,-215.8 166,-209.8 166,-203.8 166,-203.8 166,-141.4 166,-141.4 166,-135.4 172,-129.4 178,-129.4 178,-129.4 283.6,-129.4 283.6,-129.4 289.6,-129.4 295.6,-135.4 295.6,-141.4 295.6,-141.4 295.6,-203.8 295.6,-203.8 295.6,-209.8 289.6,-215.8 283.6,-215.8"/>


<text xml:space="preserve" text-anchor="middle" x="230.8" y="-175.25" font-family="Arial Bold" font-size="13.00" fill="white">3 Graph</text>


<text xml:space="preserve" text-anchor="middle" x="230.8" y="-160.25" font-family="Arial Bold" font-size="13.00" fill="white">Queries</text>


</g>


<!-- with&#45;&gt;graph_queries -->


<g id="edge5" class="edge">


<title>with&#45;&gt;graph_queries</title>


<path fill="none" stroke="#4caf50" stroke-width="435.6" d="M230.8,-258.55C230.8,-258.55 230.8,-229.94 230.8,-229.94"/>


<polygon fill="#4caf50" stroke="#4caf50" stroke-width="435.6" points="234.3,-229.94 230.8,-219.94 227.3,-229.94 234.3,-229.94"/>


</g>


<!-- low_tokens -->


<g id="node7" class="node">


<title>low_tokens</title>


<path fill="#2e7d32" stroke="black" d="M283.6,-86.4C283.6,-86.4 178,-86.4 178,-86.4 172,-86.4 166,-80.4 166,-74.4 166,-74.4 166,-12 166,-12 166,-6 172,0 178,0 178,0 283.6,0 283.6,0 289.6,0 295.6,-6 295.6,-12 295.6,-12 295.6,-74.4 295.6,-74.4 295.6,-80.4 289.6,-86.4 283.6,-86.4"/>


<text xml:space="preserve" text-anchor="middle" x="230.8" y="-45.85" font-family="Arial Bold" font-size="13.00" fill="white">2K</text>


<text xml:space="preserve" text-anchor="middle" x="230.8" y="-30.85" font-family="Arial Bold" font-size="13.00" fill="white">Tokens</text>


</g>


<!-- graph_queries&#45;&gt;low_tokens -->


<g id="edge6" class="edge">


<title>graph_queries&#45;&gt;low_tokens</title>


<path fill="none" stroke="#4caf50" stroke-width="435.6" d="M230.8,-129.15C230.8,-129.15 230.8,-100.54 230.8,-100.54"/>


<polygon fill="#4caf50" stroke="#4caf50" stroke-width="435.6" points="234.3,-100.54 230.8,-90.54 227.3,-100.54 234.3,-100.54"/>


</g>


</g>


</svg>


