<?xml version="1.0" encoding="UTF-8" standalone="no"?>
<!DOCTYPE svg PUBLIC "-//W3C//DTD SVG 1.1//EN"
 "http://www.w3.org/Graphics/SVG/1.1/DTD/svg11.dtd">
<!-- Generated by graphviz version 14.1.2 (0)
 -->
<!-- Title: opensquilla_architecture Pages: 1 -->
<svg width="1330pt" height="557pt"
 viewBox="0.00 0.00 1330.00 557.00" xmlns="http://www.w3.org/2000/svg" xmlns:xlink="http://www.w3.org/1999/xlink">
<g id="graph0" class="graph" transform="scale(1 1) rotate(0) translate(4 552.5)">
<title>opensquilla_architecture</title>
<text xml:space="preserve" text-anchor="middle" x="661.2" y="-7.2" font-family="Times New Roman,serif" font-size="14.00">OpenSquilla Architecture &#45; Token&#45;Efficient AI Agent</text>
<!-- user_request -->
<g id="node1" class="node">
<title>user_request</title>
<path fill="#4caf50" stroke="black" d="M491.4,-548.5C491.4,-548.5 285,-548.5 285,-548.5 279,-548.5 273,-542.5 273,-536.5 273,-536.5 273,-495.7 273,-495.7 273,-489.7 279,-483.7 285,-483.7 285,-483.7 491.4,-483.7 491.4,-483.7 497.4,-483.7 503.4,-489.7 503.4,-495.7 503.4,-495.7 503.4,-536.5 503.4,-536.5 503.4,-542.5 497.4,-548.5 491.4,-548.5"/>
<text xml:space="preserve" text-anchor="middle" x="388.2" y="-518.95" font-family="Arial Bold" font-size="12.00" fill="white">User Request</text>
<text xml:space="preserve" text-anchor="middle" x="388.2" y="-504.7" font-family="Arial Bold" font-size="12.00" fill="white">Natural Language Input</text>
</g>
<!-- token_optimizer -->
<g id="node2" class="node">
<title>token_optimizer</title>
<path fill="#2196f3" stroke="black" d="M491.4,-433.7C491.4,-433.7 285,-433.7 285,-433.7 279,-433.7 273,-427.7 273,-421.7 273,-421.7 273,-380.9 273,-380.9 273,-374.9 279,-368.9 285,-368.9 285,-368.9 491.4,-368.9 491.4,-368.9 497.4,-368.9 503.4,-374.9 503.4,-380.9 503.4,-380.9 503.4,-421.7 503.4,-421.7 503.4,-427.7 497.4,-433.7 491.4,-433.7"/>
<text xml:space="preserve" text-anchor="middle" x="388.2" y="-404.15" font-family="Arial Bold" font-size="12.00" fill="white">Token Optimizer</text>
<text xml:space="preserve" text-anchor="middle" x="388.2" y="-389.9" font-family="Arial Bold" font-size="12.00" fill="white">Prompt Compression</text>
</g>
<!-- user_request&#45;&gt;token_optimizer -->
<g id="edge1" class="edge">
<title>user_request&#45;&gt;token_optimizer</title>
<path fill="none" stroke="#4caf50" stroke-width="2" d="M388.2,-483.2C388.2,-483.2 388.2,-446.83 388.2,-446.83"/>
<polygon fill="#4caf50" stroke="#4caf50" stroke-width="2" points="391.7,-446.83 388.2,-436.83 384.7,-446.83 391.7,-446.83"/>
<text xml:space="preserve" text-anchor="middle" x="369.45" y="-468.22" font-family="Times New Roman,serif" font-size="14.00">submit</text>
</g>
<!-- agent_core -->
<g id="node3" class="node">
<title>agent_core</title>
<path fill="#009688" stroke="black" d="M491.4,-318.9C491.4,-318.9 285,-318.9 285,-318.9 279,-318.9 273,-312.9 273,-306.9 273,-306.9 273,-266.1 273,-266.1 273,-260.1 279,-254.1 285,-254.1 285,-254.1 491.4,-254.1 491.4,-254.1 497.4,-254.1 503.4,-260.1 503.4,-266.1 503.4,-266.1 503.4,-306.9 503.4,-306.9 503.4,-312.9 497.4,-318.9 491.4,-318.9"/>
<text xml:space="preserve" text-anchor="middle" x="388.2" y="-289.15" font-family="Arial Bold" font-size="13.00" fill="white">Agent Core</text>
<text xml:space="preserve" text-anchor="middle" x="388.2" y="-274.15" font-family="Arial Bold" font-size="13.00" fill="white">TurnRunner Orchestrator</text>
</g>
<!-- token_optimizer&#45;&gt;agent_core -->
<g id="edge2" class="edge">
<title>token_optimizer&#45;&gt;agent_core</title>
<path fill="none" stroke="#2196f3" stroke-width="2" d="M388.2,-368.4C388.2,-368.4 388.2,-332.03 388.2,-332.03"/>
<polygon fill="#2196f3" stroke="#2196f3" stroke-width="2" points="391.7,-332.03 388.2,-322.03 384.7,-332.03 391.7,-332.03"/>
<text xml:space="preserve" text-anchor="middle" x="355.95" y="-353.42" font-family="Times New Roman,serif" font-size="14.00">compressed</text>
</g>
<!-- llm_backend -->
<g id="node4" class="node">
<title>llm_backend</title>
<path fill="#9c27b0" stroke="black" d="M218.4,-204.1C218.4,-204.1 12,-204.1 12,-204.1 6,-204.1 0,-198.1 0,-192.1 0,-192.1 0,-151.3 0,-151.3 0,-145.3 6,-139.3 12,-139.3 12,-139.3 218.4,-139.3 218.4,-139.3 224.4,-139.3 230.4,-145.3 230.4,-151.3 230.4,-151.3 230.4,-192.1 230.4,-192.1 230.4,-198.1 224.4,-204.1 218.4,-204.1"/>
<text xml:space="preserve" text-anchor="middle" x="115.2" y="-174.55" font-family="Arial Bold" font-size="12.00" fill="white">LLM Backend</text>
<text xml:space="preserve" text-anchor="middle" x="115.2" y="-160.3" font-family="Arial Bold" font-size="12.00" fill="white">20+ Providers</text>
</g>
<!-- agent_core&#45;&gt;llm_backend -->
<g id="edge3" class="edge">
<title>agent_core&#45;&gt;llm_backend</title>
<path fill="none" stroke="#9c27b0" stroke-width="2" d="M272.69,-297.5C184.07,-297.5 76.8,-297.5 76.8,-297.5 76.8,-297.5 76.8,-217.45 76.8,-217.45"/>
<polygon fill="#9c27b0" stroke="#9c27b0" stroke-width="2" points="80.3,-217.45 76.8,-207.45 73.3,-217.45 80.3,-217.45"/>
<text xml:space="preserve" text-anchor="middle" x="94.59" y="-300.7" font-family="Times New Roman,serif" font-size="14.00">route to model</text>
</g>
<!-- memory_system -->
<g id="node5" class="node">
<title>memory_system</title>
<path fill="#ff9800" stroke="black" d="M503.4,-198.21C503.4,-201.46 451.77,-204.1 388.2,-204.1 324.63,-204.1 273,-201.46 273,-198.21 273,-198.21 273,-145.19 273,-145.19 273,-141.94 324.63,-139.3 388.2,-139.3 451.77,-139.3 503.4,-141.94 503.4,-145.19 503.4,-145.19 503.4,-198.21 503.4,-198.21"/>
<path fill="none" stroke="black" d="M503.4,-198.21C503.4,-194.96 451.77,-192.32 388.2,-192.32 324.63,-192.32 273,-194.96 273,-198.21"/>
<text xml:space="preserve" text-anchor="middle" x="388.2" y="-174.75" font-family="Arial Bold" font-size="11.00" fill="white">Memory System</text>
<text xml:space="preserve" text-anchor="middle" x="388.2" y="-161.25" font-family="Arial Bold" font-size="11.00" fill="white">Persistent + Semantic</text>
</g>
<!-- agent_core&#45;&gt;memory_system -->
<g id="edge8" class="edge">
<title>agent_core&#45;&gt;memory_system</title>
<path fill="none" stroke="#ff9800" stroke-width="1.5" stroke-dasharray="5,2" d="M426.6,-253.6C426.6,-253.6 426.6,-216.48 426.6,-216.48"/>
<polygon fill="#ff9800" stroke="#ff9800" stroke-width="1.5" points="430.1,-216.48 426.6,-206.48 423.1,-216.48 430.1,-216.48"/>
<text xml:space="preserve" text-anchor="middle" x="391.72" y="-238.24" font-family="Times New Roman,serif" font-size="14.00">store context</text>
</g>
<!-- skills_engine -->
<g id="node6" class="node">
<title>skills_engine</title>
<path fill="#e91e63" stroke="black" d="M764.4,-204.1C764.4,-204.1 558,-204.1 558,-204.1 552,-204.1 546,-198.1 546,-192.1 546,-192.1 546,-151.3 546,-151.3 546,-145.3 552,-139.3 558,-139.3 558,-139.3 764.4,-139.3 764.4,-139.3 770.4,-139.3 776.4,-145.3 776.4,-151.3 776.4,-151.3 776.4,-192.1 776.4,-192.1 776.4,-198.1 770.4,-204.1 764.4,-204.1"/>
<text xml:space="preserve" text-anchor="middle" x="661.2" y="-174.55" font-family="Arial Bold" font-size="12.00" fill="white">Skills Engine</text>
<text xml:space="preserve" text-anchor="middle" x="661.2" y="-160.3" font-family="Arial Bold" font-size="12.00" fill="white">15 Bundled Skills</text>
</g>
<!-- agent_core&#45;&gt;skills_engine -->
<g id="edge5" class="edge">
<title>agent_core&#45;&gt;skills_engine</title>
<path fill="none" stroke="#e91e63" stroke-width="2" d="M503.58,-270.5C578.09,-270.5 661.2,-270.5 661.2,-270.5 661.2,-270.5 661.2,-217.63 661.2,-217.63"/>
<polygon fill="#e91e63" stroke="#e91e63" stroke-width="2" points="664.7,-217.63 661.2,-207.63 657.7,-217.63 664.7,-217.63"/>
<text xml:space="preserve" text-anchor="middle" x="573.58" y="-273.7" font-family="Times New Roman,serif" font-size="14.00">dispatch task</text>
</g>
<!-- openclaw -->
<g id="node8" class="node">
<title>openclaw</title>
<path fill="#e91e63" stroke="black" d="M1037.4,-204.1C1037.4,-204.1 831,-204.1 831,-204.1 825,-204.1 819,-198.1 819,-192.1 819,-192.1 819,-151.3 819,-151.3 819,-145.3 825,-139.3 831,-139.3 831,-139.3 1037.4,-139.3 1037.4,-139.3 1043.4,-139.3 1049.4,-145.3 1049.4,-151.3 1049.4,-151.3 1049.4,-192.1 1049.4,-192.1 1049.4,-198.1 1043.4,-204.1 1037.4,-204.1"/>
<text xml:space="preserve" text-anchor="middle" x="934.2" y="-174.55" font-family="Arial Bold" font-size="12.00" fill="white">OpenClaw Compat</text>
<text xml:space="preserve" text-anchor="middle" x="934.2" y="-160.3" font-family="Arial Bold" font-size="12.00" fill="white">Migration Path</text>
</g>
<!-- agent_core&#45;&gt;openclaw -->
<g id="edge10" class="edge">
<title>agent_core&#45;&gt;openclaw</title>
<path fill="none" stroke="#e91e63" stroke-width="1.5" stroke-dasharray="5,2" d="M503.66,-286.5C663.89,-286.5 934.2,-286.5 934.2,-286.5 934.2,-286.5 934.2,-216.87 934.2,-216.87"/>
<polygon fill="#e91e63" stroke="#e91e63" stroke-width="1.5" points="937.7,-216.87 934.2,-206.87 930.7,-216.87 937.7,-216.87"/>
<text xml:space="preserve" text-anchor="middle" x="732.75" y="-289.7" font-family="Times New Roman,serif" font-size="14.00">migrate</text>
</g>
<!-- output -->
<g id="node9" class="node">
<title>output</title>
<path fill="#f44336" stroke="black" d="M1310.4,-204.1C1310.4,-204.1 1104,-204.1 1104,-204.1 1098,-204.1 1092,-198.1 1092,-192.1 1092,-192.1 1092,-151.3 1092,-151.3 1092,-145.3 1098,-139.3 1104,-139.3 1104,-139.3 1310.4,-139.3 1310.4,-139.3 1316.4,-139.3 1322.4,-145.3 1322.4,-151.3 1322.4,-151.3 1322.4,-192.1 1322.4,-192.1 1322.4,-198.1 1316.4,-204.1 1310.4,-204.1"/>
<text xml:space="preserve" text-anchor="middle" x="1207.2" y="-174.55" font-family="Arial Bold" font-size="12.00" fill="white">High&#45;Density Response</text>
<text xml:space="preserve" text-anchor="middle" x="1207.2" y="-160.3" font-family="Arial Bold" font-size="12.00" fill="white">Intelligence&#45;Dense Output</text>
</g>
<!-- agent_core&#45;&gt;output -->
<g id="edge7" class="edge">
<title>agent_core&#45;&gt;output</title>
<path fill="none" stroke="#f44336" stroke-width="2" d="M503.81,-302.5C729.56,-302.5 1207.2,-302.5 1207.2,-302.5 1207.2,-302.5 1207.2,-217.4 1207.2,-217.4"/>
<polygon fill="#f44336" stroke="#f44336" stroke-width="2" points="1210.7,-217.4 1207.2,-207.4 1203.7,-217.4 1210.7,-217.4"/>
<text xml:space="preserve" text-anchor="middle" x="879.3" y="-305.7" font-family="Times New Roman,serif" font-size="14.00">deliver</text>
</g>
<!-- llm_backend&#45;&gt;agent_core -->
<g id="edge4" class="edge">
<title>llm_backend&#45;&gt;agent_core</title>
<path fill="none" stroke="#9c27b0" stroke-width="2" stroke-dasharray="5,2" d="M153.6,-204.54C153.6,-234.95 153.6,-275.5 153.6,-275.5 153.6,-275.5 259.59,-275.5 259.59,-275.5"/>
<polygon fill="#9c27b0" stroke="#9c27b0" stroke-width="2" points="259.59,-279 269.59,-275.5 259.59,-272 259.59,-279"/>
<text xml:space="preserve" text-anchor="middle" x="147.49" y="-278.7" font-family="Times New Roman,serif" font-size="14.00">response</text>
</g>
<!-- memory_system&#45;&gt;agent_core -->
<g id="edge9" class="edge">
<title>memory_system&#45;&gt;agent_core</title>
<path fill="none" stroke="#ff9800" stroke-width="1.5" stroke-dasharray="5,2" d="M349.8,-204.6C349.8,-204.6 349.8,-241.72 349.8,-241.72"/>
<polygon fill="#ff9800" stroke="#ff9800" stroke-width="1.5" points="346.3,-241.72 349.8,-251.72 353.3,-241.72 346.3,-241.72"/>
<text xml:space="preserve" text-anchor="middle" x="334.8" y="-226.36" font-family="Times New Roman,serif" font-size="14.00">recall</text>
</g>
<!-- mcp_layer -->
<g id="node7" class="node">
<title>mcp_layer</title>
<path fill="#ffc107" stroke="black" d="M764.4,-89.3C764.4,-89.3 558,-89.3 558,-89.3 552,-89.3 546,-83.3 546,-77.3 546,-77.3 546,-36.5 546,-36.5 546,-30.5 552,-24.5 558,-24.5 558,-24.5 764.4,-24.5 764.4,-24.5 770.4,-24.5 776.4,-30.5 776.4,-36.5 776.4,-36.5 776.4,-77.3 776.4,-77.3 776.4,-83.3 770.4,-89.3 764.4,-89.3"/>
<text xml:space="preserve" text-anchor="middle" x="661.2" y="-59.75" font-family="Arial Bold" font-size="12.00" fill="#333333">MCP Layer</text>
<text xml:space="preserve" text-anchor="middle" x="661.2" y="-45.5" font-family="Arial Bold" font-size="12.00" fill="#333333">Client + Server</text>
</g>
<!-- skills_engine&#45;&gt;mcp_layer -->
<g id="edge6" class="edge">
<title>skills_engine&#45;&gt;mcp_layer</title>
<path fill="none" stroke="#ffc107" stroke-width="2" d="M661.2,-138.8C661.2,-138.8 661.2,-102.43 661.2,-102.43"/>
<polygon fill="#ffc107" stroke="#ffc107" stroke-width="2" points="664.7,-102.43 661.2,-92.43 657.7,-102.43 664.7,-102.43"/>
<text xml:space="preserve" text-anchor="middle" x="639.08" y="-123.82" font-family="Times New Roman,serif" font-size="14.00">tool call</text>
</g>
</g>
</svg>
