<?xml version="1.0" encoding="UTF-8" standalone="no"?>
<!DOCTYPE svg PUBLIC "-//W3C//DTD SVG 1.1//EN"
 "http://www.w3.org/Graphics/SVG/1.1/DTD/svg11.dtd">
<!-- Generated by graphviz version 14.1.2 (0)
 -->
<!-- Title: opensquilla_workflow Pages: 1 -->
<svg width="323pt" height="1059pt"
 viewBox="0.00 0.00 323.00 1059.00" xmlns="http://www.w3.org/2000/svg" xmlns:xlink="http://www.w3.org/1999/xlink">
<g id="graph0" class="graph" transform="scale(1 1) rotate(0) translate(4 1054.9)">
<title>opensquilla_workflow</title>
<text xml:space="preserve" text-anchor="middle" x="157.7" y="-7.2" font-family="Times New Roman,serif" font-size="14.00">OpenSquilla Workflow &#45; 7&#45;Step Process</text>
<!-- step1 -->
<g id="node1" class="node">
<title>step1</title>
<path fill="#4caf50" stroke="black" d="M303.4,-1050.9C303.4,-1050.9 97,-1050.9 97,-1050.9 91,-1050.9 85,-1044.9 85,-1038.9 85,-1038.9 85,-998.1 85,-998.1 85,-992.1 91,-986.1 97,-986.1 97,-986.1 303.4,-986.1 303.4,-986.1 309.4,-986.1 315.4,-992.1 315.4,-998.1 315.4,-998.1 315.4,-1038.9 315.4,-1038.9 315.4,-1044.9 309.4,-1050.9 303.4,-1050.9"/>
<text xml:space="preserve" text-anchor="middle" x="200.2" y="-1021.55" font-family="Arial Bold" font-size="11.00" fill="white">1. User Submits</text>
<text xml:space="preserve" text-anchor="middle" x="200.2" y="-1008.05" font-family="Arial Bold" font-size="11.00" fill="white">Request</text>
</g>
<!-- step2 -->
<g id="node2" class="node">
<title>step2</title>
<path fill="#2196f3" stroke="black" d="M303.4,-936.1C303.4,-936.1 97,-936.1 97,-936.1 91,-936.1 85,-930.1 85,-924.1 85,-924.1 85,-883.3 85,-883.3 85,-877.3 91,-871.3 97,-871.3 97,-871.3 303.4,-871.3 303.4,-871.3 309.4,-871.3 315.4,-877.3 315.4,-883.3 315.4,-883.3 315.4,-924.1 315.4,-924.1 315.4,-930.1 309.4,-936.1 303.4,-936.1"/>
<text xml:space="preserve" text-anchor="middle" x="200.2" y="-906.75" font-family="Arial Bold" font-size="11.00" fill="white">2. Token Optimizer</text>
<text xml:space="preserve" text-anchor="middle" x="200.2" y="-893.25" font-family="Arial Bold" font-size="11.00" fill="white">Compresses Context</text>
</g>
<!-- step1&#45;&gt;step2 -->
<g id="edge1" class="edge">
<title>step1&#45;&gt;step2</title>
<path fill="none" stroke="#4caf50" stroke-width="2" d="M200.2,-985.6C200.2,-985.6 200.2,-949.23 200.2,-949.23"/>
<polygon fill="#4caf50" stroke="#4caf50" stroke-width="2" points="203.7,-949.23 200.2,-939.23 196.7,-949.23 203.7,-949.23"/>
</g>
<!-- step3 -->
<g id="node3" class="node">
<title>step3</title>
<path fill="#009688" stroke="black" d="M303.4,-821.3C303.4,-821.3 97,-821.3 97,-821.3 91,-821.3 85,-815.3 85,-809.3 85,-809.3 85,-768.5 85,-768.5 85,-762.5 91,-756.5 97,-756.5 97,-756.5 303.4,-756.5 303.4,-756.5 309.4,-756.5 315.4,-762.5 315.4,-768.5 315.4,-768.5 315.4,-809.3 315.4,-809.3 315.4,-815.3 309.4,-821.3 303.4,-821.3"/>
<text xml:space="preserve" text-anchor="middle" x="200.2" y="-791.95" font-family="Arial Bold" font-size="11.00" fill="white">3. Agent Core</text>
<text xml:space="preserve" text-anchor="middle" x="200.2" y="-778.45" font-family="Arial Bold" font-size="11.00" fill="white">Processes Request</text>
</g>
<!-- step2&#45;&gt;step3 -->
<g id="edge2" class="edge">
<title>step2&#45;&gt;step3</title>
<path fill="none" stroke="#2196f3" stroke-width="2" d="M200.2,-870.8C200.2,-870.8 200.2,-834.43 200.2,-834.43"/>
<polygon fill="#2196f3" stroke="#2196f3" stroke-width="2" points="203.7,-834.43 200.2,-824.43 196.7,-834.43 203.7,-834.43"/>
<text xml:space="preserve" text-anchor="middle" x="167.95" y="-855.82" font-family="Times New Roman,serif" font-size="14.00">compressed</text>
</g>
<!-- step4 -->
<g id="node4" class="node">
<title>step4</title>
<path fill="#9c27b0" stroke="black" d="M218.4,-706.5C218.4,-706.5 12,-706.5 12,-706.5 6,-706.5 0,-700.5 0,-694.5 0,-694.5 0,-653.7 0,-653.7 0,-647.7 6,-641.7 12,-641.7 12,-641.7 218.4,-641.7 218.4,-641.7 224.4,-641.7 230.4,-647.7 230.4,-653.7 230.4,-653.7 230.4,-694.5 230.4,-694.5 230.4,-700.5 224.4,-706.5 218.4,-706.5"/>
<text xml:space="preserve" text-anchor="middle" x="115.2" y="-677.15" font-family="Arial Bold" font-size="11.00" fill="white">4. LLM Generates</text>
<text xml:space="preserve" text-anchor="middle" x="115.2" y="-663.65" font-family="Arial Bold" font-size="11.00" fill="white">Response</text>
</g>
<!-- step3&#45;&gt;step4 -->
<g id="edge3" class="edge">
<title>step3&#45;&gt;step4</title>
<path fill="none" stroke="#009688" stroke-width="2" d="M157.7,-756C157.7,-756 157.7,-719.63 157.7,-719.63"/>
<polygon fill="#009688" stroke="#009688" stroke-width="2" points="161.2,-719.63 157.7,-709.63 154.2,-719.63 161.2,-719.63"/>
</g>
<!-- step5 -->
<g id="node5" class="node">
<title>step5</title>
<path fill="#e91e63" stroke="black" d="M218.4,-591.7C218.4,-591.7 12,-591.7 12,-591.7 6,-591.7 0,-585.7 0,-579.7 0,-579.7 0,-538.9 0,-538.9 0,-532.9 6,-526.9 12,-526.9 12,-526.9 218.4,-526.9 218.4,-526.9 224.4,-526.9 230.4,-532.9 230.4,-538.9 230.4,-538.9 230.4,-579.7 230.4,-579.7 230.4,-585.7 224.4,-591.7 218.4,-591.7"/>
<text xml:space="preserve" text-anchor="middle" x="115.2" y="-562.35" font-family="Arial Bold" font-size="11.00" fill="white">5. Skills Engine</text>
<text xml:space="preserve" text-anchor="middle" x="115.2" y="-548.85" font-family="Arial Bold" font-size="11.00" fill="white">Executes Tools</text>
</g>
<!-- step4&#45;&gt;step5 -->
<g id="edge4" class="edge">
<title>step4&#45;&gt;step5</title>
<path fill="none" stroke="#9c27b0" stroke-width="2" d="M115.2,-641.2C115.2,-641.2 115.2,-604.83 115.2,-604.83"/>
<polygon fill="#9c27b0" stroke="#9c27b0" stroke-width="2" points="118.7,-604.83 115.2,-594.83 111.7,-604.83 118.7,-604.83"/>
</g>
<!-- step6 -->
<g id="node6" class="node">
<title>step6</title>
<path fill="#ff9800" stroke="black" d="M218.4,-476.9C218.4,-476.9 12,-476.9 12,-476.9 6,-476.9 0,-470.9 0,-464.9 0,-464.9 0,-424.1 0,-424.1 0,-418.1 6,-412.1 12,-412.1 12,-412.1 218.4,-412.1 218.4,-412.1 224.4,-412.1 230.4,-418.1 230.4,-424.1 230.4,-424.1 230.4,-464.9 230.4,-464.9 230.4,-470.9 224.4,-476.9 218.4,-476.9"/>
<text xml:space="preserve" text-anchor="middle" x="115.2" y="-447.55" font-family="Arial Bold" font-size="11.00" fill="white">6. Memory System</text>
<text xml:space="preserve" text-anchor="middle" x="115.2" y="-434.05" font-family="Arial Bold" font-size="11.00" fill="white">Stores Context</text>
</g>
<!-- step5&#45;&gt;step6 -->
<g id="edge5" class="edge">
<title>step5&#45;&gt;step6</title>
<path fill="none" stroke="#e91e63" stroke-width="2" d="M115.2,-526.4C115.2,-526.4 115.2,-490.03 115.2,-490.03"/>
<polygon fill="#e91e63" stroke="#e91e63" stroke-width="2" points="118.7,-490.03 115.2,-480.03 111.7,-490.03 118.7,-490.03"/>
</g>
<!-- step7 -->
<g id="node7" class="node">
<title>step7</title>
<path fill="#ffc107" stroke="black" d="M218.4,-362.1C218.4,-362.1 12,-362.1 12,-362.1 6,-362.1 0,-356.1 0,-350.1 0,-350.1 0,-309.3 0,-309.3 0,-303.3 6,-297.3 12,-297.3 12,-297.3 218.4,-297.3 218.4,-297.3 224.4,-297.3 230.4,-303.3 230.4,-309.3 230.4,-309.3 230.4,-350.1 230.4,-350.1 230.4,-356.1 224.4,-362.1 218.4,-362.1"/>
<text xml:space="preserve" text-anchor="middle" x="115.2" y="-332.75" font-family="Arial Bold" font-size="11.00" fill="#333333">7. MCP Layer</text>
<text xml:space="preserve" text-anchor="middle" x="115.2" y="-319.25" font-family="Arial Bold" font-size="11.00" fill="#333333">Connects Services</text>
</g>
<!-- step6&#45;&gt;step7 -->
<g id="edge6" class="edge">
<title>step6&#45;&gt;step7</title>
<path fill="none" stroke="#ff9800" stroke-width="2" d="M115.2,-411.6C115.2,-411.6 115.2,-375.23 115.2,-375.23"/>
<polygon fill="#ff9800" stroke="#ff9800" stroke-width="2" points="118.7,-375.23 115.2,-365.23 111.7,-375.23 118.7,-375.23"/>
</g>
<!-- decision -->
<g id="node8" class="node">
<title>decision</title>
<polygon fill="#ff9800" stroke="black" points="200.2,-247.3 110.2,-193.3 200.2,-139.3 290.2,-193.3 200.2,-247.3"/>
<text xml:space="preserve" text-anchor="middle" x="200.2" y="-196.35" font-family="Arial Bold" font-size="11.00" fill="white">Task</text>
<text xml:space="preserve" text-anchor="middle" x="200.2" y="-182.85" font-family="Arial Bold" font-size="11.00" fill="white">Complete?</text>
</g>
<!-- step7&#45;&gt;decision -->
<g id="edge7" class="edge">
<title>step7&#45;&gt;decision</title>
<path fill="none" stroke="#ffc107" stroke-width="2" d="M170.3,-297.03C170.3,-297.03 170.3,-242.57 170.3,-242.57"/>
<polygon fill="#ffc107" stroke="#ffc107" stroke-width="2" points="173.8,-242.57 170.3,-232.57 166.8,-242.57 173.8,-242.57"/>
</g>
<!-- decision&#45;&gt;step3 -->
<g id="edge9" class="edge">
<title>decision&#45;&gt;step3</title>
<path fill="none" stroke="#f44336" stroke-width="2" stroke-dasharray="5,2" d="M260.3,-211.78C260.3,-211.78 260.3,-743.08 260.3,-743.08"/>
<polygon fill="#f44336" stroke="#f44336" stroke-width="2" points="256.8,-743.08 260.3,-753.08 263.8,-743.08 256.8,-743.08"/>
<text xml:space="preserve" text-anchor="middle" x="230.3" y="-480.63" font-family="Times New Roman,serif" font-size="14.00">No &#45; refine</text>
</g>
<!-- end -->
<g id="node9" class="node">
<title>end</title>
<path fill="#f44336" stroke="black" d="M303.4,-89.3C303.4,-89.3 97,-89.3 97,-89.3 91,-89.3 85,-83.3 85,-77.3 85,-77.3 85,-36.5 85,-36.5 85,-30.5 91,-24.5 97,-24.5 97,-24.5 303.4,-24.5 303.4,-24.5 309.4,-24.5 315.4,-30.5 315.4,-36.5 315.4,-36.5 315.4,-77.3 315.4,-77.3 315.4,-83.3 309.4,-89.3 303.4,-89.3"/>
<text xml:space="preserve" text-anchor="middle" x="200.2" y="-59.75" font-family="Arial Bold" font-size="12.00" fill="white">Response Delivered</text>
<text xml:space="preserve" text-anchor="middle" x="200.2" y="-45.5" font-family="Arial Bold" font-size="12.00" fill="white">High&#45;Density Output</text>
</g>
<!-- decision&#45;&gt;end -->
<g id="edge8" class="edge">
<title>decision&#45;&gt;end</title>
<path fill="none" stroke="#4caf50" stroke-width="2" d="M200.2,-139C200.2,-139 200.2,-102.44 200.2,-102.44"/>
<polygon fill="#4caf50" stroke="#4caf50" stroke-width="2" points="203.7,-102.44 200.2,-92.44 196.7,-102.44 203.7,-102.44"/>
<text xml:space="preserve" text-anchor="middle" x="190.07" y="-123.92" font-family="Times New Roman,serif" font-size="14.00">Yes</text>
</g>
</g>
</svg>
