<?xml version="1.0" encoding="UTF-8" standalone="no"?>
<!DOCTYPE svg PUBLIC "-//W3C//DTD SVG 1.1//EN"
 "http://www.w3.org/Graphics/SVG/1.1/DTD/svg11.dtd">
<!-- Generated by graphviz version 14.1.2 (0)
 -->
<!-- Title: ai_auto_work Pages: 1 -->
<svg width="2191pt" height="245pt"
 viewBox="0.00 0.00 2191.00 245.00" xmlns="http://www.w3.org/2000/svg" xmlns:xlink="http://www.w3.org/1999/xlink">
<g id="graph0" class="graph" transform="scale(1.33333 1.33333) rotate(0) translate(28.8 154.65)">
<title>ai_auto_work</title>
<polygon fill="#0d1117" stroke="none" points="-28.8,28.8 -28.8,-154.65 1614.42,-154.65 1614.42,28.8 -28.8,28.8"/>
<!-- req -->
<g id="node1" class="node">
<title>req</title>
<path fill="#161b22" stroke="#58a6ff" stroke-width="1.5" d="M80.67,-77.85C80.67,-77.85 12,-77.85 12,-77.85 6,-77.85 0,-71.85 0,-65.85 0,-65.85 0,-43.95 0,-43.95 0,-37.95 6,-31.95 12,-31.95 12,-31.95 80.67,-31.95 80.67,-31.95 86.67,-31.95 92.67,-37.95 92.67,-43.95 92.67,-43.95 92.67,-65.85 92.67,-65.85 92.67,-71.85 86.67,-77.85 80.67,-77.85"/>
<text xml:space="preserve" text-anchor="middle" x="46.34" y="-59.25" font-family="Inter";paint-order:stroke;stroke:#0d1117;stroke-width:4px;stroke-linejoin:round; font-size="12.00" fill="#58a6ff">User</text>
<text xml:space="preserve" text-anchor="middle" x="46.34" y="-43.5" font-family="Inter";paint-order:stroke;stroke:#0d1117;stroke-width:4px;stroke-linejoin:round; font-size="12.00" fill="#58a6ff">Requirement</text>
</g>
<!-- class -->
<g id="node2" class="node">
<title>class</title>
<path fill="#161b22" stroke="#f0c040" stroke-width="1.5" d="M225.84,-77.85C225.84,-77.85 155.67,-77.85 155.67,-77.85 149.67,-77.85 143.67,-71.85 143.67,-65.85 143.67,-65.85 143.67,-43.95 143.67,-43.95 143.67,-37.95 149.67,-31.95 155.67,-31.95 155.67,-31.95 225.84,-31.95 225.84,-31.95 231.84,-31.95 237.84,-37.95 237.84,-43.95 237.84,-43.95 237.84,-65.85 237.84,-65.85 237.84,-71.85 231.84,-77.85 225.84,-77.85"/>
<text xml:space="preserve" text-anchor="middle" x="190.76" y="-59.25" font-family="Inter";paint-order:stroke;stroke:#0d1117;stroke-width:4px;stroke-linejoin:round; font-size="12.00" fill="#f0c040">Classification</text>
<text xml:space="preserve" text-anchor="middle" x="190.76" y="-43.5" font-family="Inter";paint-order:stroke;stroke:#0d1117;stroke-width:4px;stroke-linejoin:round; font-size="12.00" fill="#f0c040">S / M / L</text>
</g>
<!-- req&#45;&gt;class -->
<g id="edge1" class="edge">
<title>req&#45;&gt;class</title>
<path fill="none" stroke="#8b949e" d="M93.18,-54.9C106.38,-54.9 120.92,-54.9 134.61,-54.9"/>
<polygon fill="#8b949e" stroke="#8b949e" points="134.5,-57.35 141.5,-54.9 134.5,-52.45 134.5,-57.35"/>
</g>
<!-- research -->
<g id="node3" class="node">
<title>research</title>
<path fill="#161b22" stroke="#bc8cff" stroke-width="1.5" d="M390.26,-125.85C390.26,-125.85 339.59,-125.85 339.59,-125.85 333.59,-125.85 327.59,-119.85 327.59,-113.85 327.59,-113.85 327.59,-91.95 327.59,-91.95 327.59,-85.95 333.59,-79.95 339.59,-79.95 339.59,-79.95 390.26,-79.95 390.26,-79.95 396.26,-79.95 402.26,-85.95 402.26,-91.95 402.26,-91.95 402.26,-113.85 402.26,-113.85 402.26,-119.85 396.26,-125.85 390.26,-125.85"/>
<text xml:space="preserve" text-anchor="middle" x="364.93" y="-107.25" font-family="Inter";paint-order:stroke;stroke:#0d1117;stroke-width:4px;stroke-linejoin:round; font-size="12.00" fill="#bc8cff">Technical</text>
<text xml:space="preserve" text-anchor="middle" x="364.93" y="-91.5" font-family="Inter";paint-order:stroke;stroke:#0d1117;stroke-width:4px;stroke-linejoin:round; font-size="12.00" fill="#bc8cff">Research</text>
</g>
<!-- class&#45;&gt;research -->
<g id="edge2" class="edge">
<title>class&#45;&gt;research</title>
<path fill="none" stroke="#8b949e" stroke-dasharray="5,2" d="M238.35,-67.89C263.4,-74.87 294.15,-83.45 318.95,-90.36"/>
<polygon fill="#8b949e" stroke="#8b949e" points="318.26,-92.71 325.66,-92.23 319.57,-87.99 318.26,-92.71"/>
<text xml:space="preserve" text-anchor="middle" x="282.72" y="-87.86" font-family="Inter";paint-order:stroke;stroke:#0d1117;stroke-width:4px;stroke-linejoin:round; font-size="10.00" fill="#bc8cff">if needed</text>
</g>
<!-- plan -->
<g id="node4" class="node">
<title>plan</title>
<path fill="#161b22" stroke="#f0c040" stroke-width="1.5" d="M524.93,-68.85C524.93,-68.85 465.26,-68.85 465.26,-68.85 459.26,-68.85 453.26,-62.85 453.26,-56.85 453.26,-56.85 453.26,-34.95 453.26,-34.95 453.26,-28.95 459.26,-22.95 465.26,-22.95 465.26,-22.95 524.93,-22.95 524.93,-22.95 530.93,-22.95 536.93,-28.95 536.93,-34.95 536.93,-34.95 536.93,-56.85 536.93,-56.85 536.93,-62.85 530.93,-68.85 524.93,-68.85"/>
<text xml:space="preserve" text-anchor="middle" x="495.1" y="-50.25" font-family="Inter";paint-order:stroke;stroke:#0d1117;stroke-width:4px;stroke-linejoin:round; font-size="12.00" fill="#f0c040">Plan</text>
<text xml:space="preserve" text-anchor="middle" x="495.1" y="-34.5" font-family="Inter";paint-order:stroke;stroke:#0d1117;stroke-width:4px;stroke-linejoin:round; font-size="12.00" fill="#f0c040">Generation</text>
</g>
<!-- class&#45;&gt;plan -->
<g id="edge3" class="edge">
<title>class&#45;&gt;plan</title>
<path fill="none" stroke="#8b949e" d="M238.33,-53.51C294.11,-51.85 387.14,-49.08 444.3,-47.38"/>
<polygon fill="#8b949e" stroke="#8b949e" points="444.37,-49.83 451.3,-47.17 444.23,-44.93 444.37,-49.83"/>
</g>
<!-- research&#45;&gt;plan -->
<g id="edge4" class="edge">
<title>research&#45;&gt;plan</title>
<path fill="none" stroke="#8b949e" stroke-dasharray="5,2" d="M403,-86.41C416.1,-80.59 431.04,-73.94 444.98,-67.74"/>
<polygon fill="#8b949e" stroke="#8b949e" points="445.82,-70.05 451.22,-64.97 443.83,-65.57 445.82,-70.05"/>
</g>
<!-- decomp -->
<g id="node5" class="node">
<title>decomp</title>
<path fill="#161b22" stroke="#f0c040" stroke-width="1.5" d="M679.85,-68.85C679.85,-68.85 599.93,-68.85 599.93,-68.85 593.93,-68.85 587.93,-62.85 587.93,-56.85 587.93,-56.85 587.93,-34.95 587.93,-34.95 587.93,-28.95 593.93,-22.95 599.93,-22.95 599.93,-22.95 679.85,-22.95 679.85,-22.95 685.85,-22.95 691.85,-28.95 691.85,-34.95 691.85,-34.95 691.85,-56.85 691.85,-56.85 691.85,-62.85 685.85,-68.85 679.85,-68.85"/>
<text xml:space="preserve" text-anchor="middle" x="639.89" y="-50.25" font-family="Inter";paint-order:stroke;stroke:#0d1117;stroke-width:4px;stroke-linejoin:round; font-size="12.00" fill="#f0c040">Task</text>
<text xml:space="preserve" text-anchor="middle" x="639.89" y="-34.5" font-family="Inter";paint-order:stroke;stroke:#0d1117;stroke-width:4px;stroke-linejoin:round; font-size="12.00" fill="#f0c040">Decomposition</text>
</g>
<!-- plan&#45;&gt;decomp -->
<g id="edge5" class="edge">
<title>plan&#45;&gt;decomp</title>
<path fill="none" stroke="#8b949e" d="M537.4,-45.9C550.41,-45.9 565.06,-45.9 579.09,-45.9"/>
<polygon fill="#8b949e" stroke="#8b949e" points="578.75,-48.35 585.75,-45.9 578.75,-43.45 578.75,-48.35"/>
</g>
<!-- dev -->
<g id="node6" class="node">
<title>dev</title>
<path fill="#161b22" stroke="#3fb950" stroke-width="1.5" d="M825.77,-68.85C825.77,-68.85 754.85,-68.85 754.85,-68.85 748.85,-68.85 742.85,-62.85 742.85,-56.85 742.85,-56.85 742.85,-34.95 742.85,-34.95 742.85,-28.95 748.85,-22.95 754.85,-22.95 754.85,-22.95 825.77,-22.95 825.77,-22.95 831.77,-22.95 837.77,-28.95 837.77,-34.95 837.77,-34.95 837.77,-56.85 837.77,-56.85 837.77,-62.85 831.77,-68.85 825.77,-68.85"/>
<text xml:space="preserve" text-anchor="middle" x="790.31" y="-50.25" font-family="Inter";paint-order:stroke;stroke:#0d1117;stroke-width:4px;stroke-linejoin:round; font-size="12.00" fill="#3fb950">Development</text>
<text xml:space="preserve" text-anchor="middle" x="790.31" y="-34.5" font-family="Inter";paint-order:stroke;stroke:#0d1117;stroke-width:4px;stroke-linejoin:round; font-size="12.00" fill="#3fb950">Loop</text>
</g>
<!-- decomp&#45;&gt;dev -->
<g id="edge6" class="edge">
<title>decomp&#45;&gt;dev</title>
<path fill="none" stroke="#8b949e" d="M692.38,-45.9C705.83,-45.9 720.39,-45.9 734.03,-45.9"/>
<polygon fill="#8b949e" stroke="#8b949e" points="733.87,-48.35 740.87,-45.9 733.87,-43.45 733.87,-48.35"/>
</g>
<!-- gate -->
<g id="node7" class="node">
<title>gate</title>
<path fill="#161b22" stroke="#f85149" stroke-width="1.5" d="M939.44,-125.85C939.44,-125.85 900.77,-125.85 900.77,-125.85 894.77,-125.85 888.77,-119.85 888.77,-113.85 888.77,-113.85 888.77,-91.95 888.77,-91.95 888.77,-85.95 894.77,-79.95 900.77,-79.95 900.77,-79.95 939.44,-79.95 939.44,-79.95 945.44,-79.95 951.44,-85.95 951.44,-91.95 951.44,-91.95 951.44,-113.85 951.44,-113.85 951.44,-119.85 945.44,-125.85 939.44,-125.85"/>
<text xml:space="preserve" text-anchor="middle" x="920.11" y="-107.25" font-family="Inter";paint-order:stroke;stroke:#0d1117;stroke-width:4px;stroke-linejoin:round; font-size="12.00" fill="#f85149">Quality</text>
<text xml:space="preserve" text-anchor="middle" x="920.11" y="-91.5" font-family="Inter";paint-order:stroke;stroke:#0d1117;stroke-width:4px;stroke-linejoin:round; font-size="12.00" fill="#f85149">Gate</text>
</g>
<!-- dev&#45;&gt;gate -->
<g id="edge7" class="edge">
<title>dev&#45;&gt;gate</title>
<path fill="none" stroke="#8b949e" d="M838.17,-66.8C852.1,-73.02 867.21,-79.75 880.55,-85.7"/>
<polygon fill="#8b949e" stroke="#8b949e" points="879.4,-87.87 886.79,-88.49 881.4,-83.4 879.4,-87.87"/>
</g>
<!-- review -->
<g id="node8" class="node">
<title>review</title>
<path fill="#161b22" stroke="#f0883e" stroke-width="1.5" d="M1163.86,-125.85C1163.86,-125.85 1062.19,-125.85 1062.19,-125.85 1056.19,-125.85 1050.19,-119.85 1050.19,-113.85 1050.19,-113.85 1050.19,-91.95 1050.19,-91.95 1050.19,-85.95 1056.19,-79.95 1062.19,-79.95 1062.19,-79.95 1163.86,-79.95 1163.86,-79.95 1169.86,-79.95 1175.86,-85.95 1175.86,-91.95 1175.86,-91.95 1175.86,-113.85 1175.86,-113.85 1175.86,-119.85 1169.86,-125.85 1163.86,-125.85"/>
<text xml:space="preserve" text-anchor="middle" x="1113.03" y="-107.25" font-family="Inter";paint-order:stroke;stroke:#0d1117;stroke-width:4px;stroke-linejoin:round; font-size="12.00" fill="#f0883e">Codex</text>
<text xml:space="preserve" text-anchor="middle" x="1113.03" y="-91.5" font-family="Inter";paint-order:stroke;stroke:#0d1117;stroke-width:4px;stroke-linejoin:round; font-size="12.00" fill="#f0883e">Adversarial Review</text>
</g>
<!-- gate&#45;&gt;review -->
<g id="edge8" class="edge">
<title>gate&#45;&gt;review</title>
<path fill="none" stroke="#8b949e" d="M951.78,-102.9C975.97,-102.9 1010.67,-102.9 1041.6,-102.9"/>
<polygon fill="#8b949e" stroke="#8b949e" points="1041.27,-105.35 1048.27,-102.9 1041.27,-100.45 1041.27,-105.35"/>
<text xml:space="preserve" text-anchor="middle" x="1000.82" y="-106.15" font-family="Inter";paint-order:stroke;stroke:#0d1117;stroke-width:4px;stroke-linejoin:round; font-size="10.00" fill="#f0883e">pass</text>
</g>
<!-- conv -->
<g id="node9" class="node">
<title>conv</title>
<path fill="#161b22" stroke="#f0c040" stroke-width="1.5" d="M1329.4,-87.31C1329.4,-87.31 1237.99,-50.39 1237.99,-50.39 1232.42,-48.15 1232.42,-43.65 1237.99,-41.41 1237.99,-41.41 1329.4,-4.49 1329.4,-4.49 1334.97,-2.25 1346.09,-2.25 1351.66,-4.49 1351.66,-4.49 1443.07,-41.41 1443.07,-41.41 1448.64,-43.65 1448.64,-48.15 1443.07,-50.39 1443.07,-50.39 1351.66,-87.31 1351.66,-87.31 1346.09,-89.55 1334.97,-89.55 1329.4,-87.31"/>
<text xml:space="preserve" text-anchor="middle" x="1340.53" y="-50.25" font-family="Inter";paint-order:stroke;stroke:#0d1117;stroke-width:4px;stroke-linejoin:round; font-size="12.00" fill="#f0c040">Converged?</text>
<text xml:space="preserve" text-anchor="middle" x="1340.53" y="-34.5" font-family="Inter";paint-order:stroke;stroke:#0d1117;stroke-width:4px;stroke-linejoin:round; font-size="12.00" fill="#f0c040">Crit=0 High&lt;=2</text>
</g>
<!-- review&#45;&gt;conv -->
<g id="edge9" class="edge">
<title>review&#45;&gt;conv</title>
<path fill="none" stroke="#8b949e" d="M1176.54,-87.1C1202.76,-80.47 1233.53,-72.69 1261.24,-65.69"/>
<polygon fill="#8b949e" stroke="#8b949e" points="1261.69,-68.1 1267.88,-64.01 1260.49,-63.35 1261.69,-68.1"/>
</g>
<!-- conv&#45;&gt;dev -->
<g id="edge11" class="edge">
<title>conv&#45;&gt;dev</title>
<path fill="none" stroke="#8b949e" stroke-dasharray="5,2" d="M1224.96,-45.9C1108.92,-45.9 934.37,-45.9 846.3,-45.9"/>
<polygon fill="#8b949e" stroke="#8b949e" points="846.56,-43.45 839.56,-45.9 846.56,-48.35 846.56,-43.45"/>
<text xml:space="preserve" text-anchor="middle" x="1000.82" y="-49.15" font-family="Inter";paint-order:stroke;stroke:#0d1117;stroke-width:4px;stroke-linejoin:round; font-size="10.00" fill="#f85149">no: fix loop</text>
</g>
<!-- commit -->
<g id="node10" class="node">
<title>commit</title>
<path fill="#161b22" stroke="#3fb950" stroke-width="1.5" d="M1573.62,-68.85C1573.62,-68.85 1531.2,-68.85 1531.2,-68.85 1525.2,-68.85 1519.2,-62.85 1519.2,-56.85 1519.2,-56.85 1519.2,-34.95 1519.2,-34.95 1519.2,-28.95 1525.2,-22.95 1531.2,-22.95 1531.2,-22.95 1573.62,-22.95 1573.62,-22.95 1579.62,-22.95 1585.62,-28.95 1585.62,-34.95 1585.62,-34.95 1585.62,-56.85 1585.62,-56.85 1585.62,-62.85 1579.62,-68.85 1573.62,-68.85"/>
<text xml:space="preserve" text-anchor="middle" x="1552.41" y="-50.25" font-family="Inter";paint-order:stroke;stroke:#0d1117;stroke-width:4px;stroke-linejoin:round; font-size="12.00" fill="#3fb950">Git</text>
<text xml:space="preserve" text-anchor="middle" x="1552.41" y="-34.5" font-family="Inter";paint-order:stroke;stroke:#0d1117;stroke-width:4px;stroke-linejoin:round; font-size="12.00" fill="#3fb950">Commit</text>
</g>
<!-- conv&#45;&gt;commit -->
<g id="edge10" class="edge">
<title>conv&#45;&gt;commit</title>
<path fill="none" stroke="#8b949e" d="M1455.99,-45.9C1475.41,-45.9 1494.4,-45.9 1510.25,-45.9"/>
<polygon fill="#8b949e" stroke="#8b949e" points="1510.21,-48.35 1517.21,-45.9 1510.21,-43.45 1510.21,-48.35"/>
<text xml:space="preserve" text-anchor="middle" x="1486.7" y="-49.15" font-family="Inter";paint-order:stroke;stroke:#0d1117;stroke-width:4px;stroke-linejoin:round; font-size="10.00" fill="#3fb950">yes</text>
</g>
</g>
</svg>
