<?xml version="1.0" encoding="UTF-8" standalone="no"?>
<!DOCTYPE svg PUBLIC "-//W3C//DTD SVG 1.1//EN"
 "http://www.w3.org/Graphics/SVG/1.1/DTD/svg11.dtd">
<!-- Generated by graphviz version 14.1.2 (0)
 -->
<!-- Title: ragflow_features Pages: 1 -->
<svg width="1270pt" height="243pt"
 viewBox="0.00 0.00 1270.00 243.00" xmlns="http://www.w3.org/2000/svg" xmlns:xlink="http://www.w3.org/1999/xlink">
<style>
<!-- White text halo for edge label readability -->
text { paint-order: stroke; stroke: #ffffff; stroke-width: 3px; stroke-linejoin: round; fill: #1a1a2e; }
</style>
<g id="graph0" class="graph" transform="scale(1 1) rotate(0) translate(4 238.5)">
<title>ragflow_features</title>
<polygon fill="white" stroke="none" points="-4,4 -4,-238.5 1265.75,-238.5 1265.75,4 -4,4"/>
<text xml:space="preserve" text-anchor="middle" x="630.88" y="-7.2" font-family="Times New Roman,serif" font-size="14.00">RAGFlow &#45; Key Features and Capabilities</text>
<!-- ragflow -->
<g id="node1" class="node">
<title>ragflow</title>
<path fill="#2196f3" stroke="black" d="M747,-234.5C747,-234.5 695.75,-234.5 695.75,-234.5 689.75,-234.5 683.75,-228.5 683.75,-222.5 683.75,-222.5 683.75,-208.5 683.75,-208.5 683.75,-202.5 689.75,-196.5 695.75,-196.5 695.75,-196.5 747,-196.5 747,-196.5 753,-196.5 759,-202.5 759,-208.5 759,-208.5 759,-222.5 759,-222.5 759,-228.5 753,-234.5 747,-234.5"/>
<text xml:space="preserve" text-anchor="middle" x="721.38" y="-218.15" font-family="Arial Bold" font-size="13.00" fill="white">RAGFlow</text>
<text xml:space="preserve" text-anchor="middle" x="721.38" y="-203.15" font-family="Arial Bold" font-size="13.00" fill="white">v0.25.1</text>
</g>
<!-- deepdoc_feat -->
<g id="node2" class="node">
<title>deepdoc_feat</title>
<path fill="#4caf50" stroke="black" d="M262.75,-146.5C262.75,-146.5 192,-146.5 192,-146.5 186,-146.5 180,-140.5 180,-134.5 180,-134.5 180,-122.5 180,-122.5 180,-116.5 186,-110.5 192,-110.5 192,-110.5 262.75,-110.5 262.75,-110.5 268.75,-110.5 274.75,-116.5 274.75,-122.5 274.75,-122.5 274.75,-134.5 274.75,-134.5 274.75,-140.5 268.75,-146.5 262.75,-146.5"/>
<text xml:space="preserve" text-anchor="middle" x="227.38" y="-131.55" font-family="Arial" font-size="11.00" fill="white">Deep Document</text>
<text xml:space="preserve" text-anchor="middle" x="227.38" y="-118.05" font-family="Arial" font-size="11.00" fill="white">Understanding</text>
</g>
<!-- ragflow&#45;&gt;deepdoc_feat -->
<g id="edge1" class="edge">
<title>ragflow&#45;&gt;deepdoc_feat</title>
<path fill="none" stroke="#2196f3" stroke-width="2" d="M683.43,-221.5C567.76,-221.5 227.38,-221.5 227.38,-221.5 227.38,-221.5 227.38,-159.9 227.38,-159.9"/>
<polygon fill="#2196f3" stroke="#2196f3" stroke-width="2" points="230.88,-159.9 227.38,-149.9 223.88,-159.9 230.88,-159.9"/>
</g>
<!-- chunking_feat -->
<g id="node3" class="node">
<title>chunking_feat</title>
<path fill="#4caf50" stroke="black" d="M519.38,-146.5C519.38,-146.5 449.38,-146.5 449.38,-146.5 443.38,-146.5 437.38,-140.5 437.38,-134.5 437.38,-134.5 437.38,-122.5 437.38,-122.5 437.38,-116.5 443.38,-110.5 449.38,-110.5 449.38,-110.5 519.38,-110.5 519.38,-110.5 525.38,-110.5 531.38,-116.5 531.38,-122.5 531.38,-122.5 531.38,-134.5 531.38,-134.5 531.38,-140.5 525.38,-146.5 519.38,-146.5"/>
<text xml:space="preserve" text-anchor="middle" x="484.38" y="-131.55" font-family="Arial" font-size="11.00" fill="white">Template&#45;Based</text>
<text xml:space="preserve" text-anchor="middle" x="484.38" y="-118.05" font-family="Arial" font-size="11.00" fill="white">Chunking</text>
</g>
<!-- ragflow&#45;&gt;chunking_feat -->
<g id="edge2" class="edge">
<title>ragflow&#45;&gt;chunking_feat</title>
<path fill="none" stroke="#2196f3" stroke-width="2" d="M683.3,-209.5C616.3,-209.5 484.38,-209.5 484.38,-209.5 484.38,-209.5 484.38,-159.91 484.38,-159.91"/>
<polygon fill="#2196f3" stroke="#2196f3" stroke-width="2" points="487.88,-159.91 484.38,-149.91 480.88,-159.91 487.88,-159.91"/>
</g>
<!-- citation_feat -->
<g id="node4" class="node">
<title>citation_feat</title>
<path fill="#4caf50" stroke="black" d="M688.38,-146.5C688.38,-146.5 648.38,-146.5 648.38,-146.5 642.38,-146.5 636.38,-140.5 636.38,-134.5 636.38,-134.5 636.38,-122.5 636.38,-122.5 636.38,-116.5 642.38,-110.5 648.38,-110.5 648.38,-110.5 688.38,-110.5 688.38,-110.5 694.38,-110.5 700.38,-116.5 700.38,-122.5 700.38,-122.5 700.38,-134.5 700.38,-134.5 700.38,-140.5 694.38,-146.5 688.38,-146.5"/>
<text xml:space="preserve" text-anchor="middle" x="668.38" y="-131.55" font-family="Arial" font-size="11.00" fill="white">Grounded</text>
<text xml:space="preserve" text-anchor="middle" x="668.38" y="-118.05" font-family="Arial" font-size="11.00" fill="white">Citations</text>
</g>
<!-- ragflow&#45;&gt;citation_feat -->
<g id="edge3" class="edge">
<title>ragflow&#45;&gt;citation_feat</title>
<path fill="none" stroke="#2196f3" stroke-width="2" d="M692.06,-196.19C692.06,-196.19 692.06,-159.89 692.06,-159.89"/>
<polygon fill="#2196f3" stroke="#2196f3" stroke-width="2" points="695.56,-159.89 692.06,-149.89 688.56,-159.89 695.56,-159.89"/>
</g>
<!-- data_feat -->
<g id="node5" class="node">
<title>data_feat</title>
<path fill="#4caf50" stroke="black" d="M807.5,-146.5C807.5,-146.5 741.25,-146.5 741.25,-146.5 735.25,-146.5 729.25,-140.5 729.25,-134.5 729.25,-134.5 729.25,-122.5 729.25,-122.5 729.25,-116.5 735.25,-110.5 741.25,-110.5 741.25,-110.5 807.5,-110.5 807.5,-110.5 813.5,-110.5 819.5,-116.5 819.5,-122.5 819.5,-122.5 819.5,-134.5 819.5,-134.5 819.5,-140.5 813.5,-146.5 807.5,-146.5"/>
<text xml:space="preserve" text-anchor="middle" x="774.38" y="-131.55" font-family="Arial" font-size="11.00" fill="white">Heterogeneous</text>
<text xml:space="preserve" text-anchor="middle" x="774.38" y="-118.05" font-family="Arial" font-size="11.00" fill="white">Data Sources</text>
</g>
<!-- ragflow&#45;&gt;data_feat -->
<g id="edge4" class="edge">
<title>ragflow&#45;&gt;data_feat</title>
<path fill="none" stroke="#2196f3" stroke-width="2" d="M744.12,-196.19C744.12,-196.19 744.12,-159.89 744.12,-159.89"/>
<polygon fill="#2196f3" stroke="#2196f3" stroke-width="2" points="747.63,-159.89 744.13,-149.89 740.63,-159.89 747.63,-159.89"/>
</g>
<!-- workflow_feat -->
<g id="node6" class="node">
<title>workflow_feat</title>
<path fill="#4caf50" stroke="black" d="M981.62,-146.5C981.62,-146.5 907.12,-146.5 907.12,-146.5 901.12,-146.5 895.12,-140.5 895.12,-134.5 895.12,-134.5 895.12,-122.5 895.12,-122.5 895.12,-116.5 901.12,-110.5 907.12,-110.5 907.12,-110.5 981.62,-110.5 981.62,-110.5 987.62,-110.5 993.62,-116.5 993.62,-122.5 993.62,-122.5 993.62,-134.5 993.62,-134.5 993.62,-140.5 987.62,-146.5 981.62,-146.5"/>
<text xml:space="preserve" text-anchor="middle" x="944.38" y="-131.55" font-family="Arial" font-size="11.00" fill="white">Agentic</text>
<text xml:space="preserve" text-anchor="middle" x="944.38" y="-118.05" font-family="Arial" font-size="11.00" fill="white">Workflow + MCP</text>
</g>
<!-- ragflow&#45;&gt;workflow_feat -->
<g id="edge5" class="edge">
<title>ragflow&#45;&gt;workflow_feat</title>
<path fill="none" stroke="#2196f3" stroke-width="2" d="M759.46,-209.5C823.15,-209.5 944.38,-209.5 944.38,-209.5 944.38,-209.5 944.38,-159.91 944.38,-159.91"/>
<polygon fill="#2196f3" stroke="#2196f3" stroke-width="2" points="947.88,-159.91 944.38,-149.91 940.88,-159.91 947.88,-159.91"/>
</g>
<!-- api_feat -->
<g id="node7" class="node">
<title>api_feat</title>
<path fill="#4caf50" stroke="black" d="M1162.12,-146.5C1162.12,-146.5 1078.62,-146.5 1078.62,-146.5 1072.62,-146.5 1066.62,-140.5 1066.62,-134.5 1066.62,-134.5 1066.62,-122.5 1066.62,-122.5 1066.62,-116.5 1072.62,-110.5 1078.62,-110.5 1078.62,-110.5 1162.12,-110.5 1162.12,-110.5 1168.12,-110.5 1174.12,-116.5 1174.12,-122.5 1174.12,-122.5 1174.12,-134.5 1174.12,-134.5 1174.12,-140.5 1168.12,-146.5 1162.12,-146.5"/>
<text xml:space="preserve" text-anchor="middle" x="1120.38" y="-131.55" font-family="Arial" font-size="11.00" fill="white">Streamlined</text>
<text xml:space="preserve" text-anchor="middle" x="1120.38" y="-118.05" font-family="Arial" font-size="11.00" fill="white">RAG Orchestration</text>
</g>
<!-- ragflow&#45;&gt;api_feat -->
<g id="edge6" class="edge">
<title>ragflow&#45;&gt;api_feat</title>
<path fill="none" stroke="#2196f3" stroke-width="2" d="M759.27,-221.5C858.87,-221.5 1120.38,-221.5 1120.38,-221.5 1120.38,-221.5 1120.38,-159.9 1120.38,-159.9"/>
<polygon fill="#2196f3" stroke="#2196f3" stroke-width="2" points="1123.88,-159.9 1120.38,-149.9 1116.88,-159.9 1123.88,-159.9"/>
</g>
<!-- ocr -->
<g id="node8" class="node">
<title>ocr</title>
<path fill="#ff9800" stroke="black" d="M76.75,-60.5C76.75,-60.5 12,-60.5 12,-60.5 6,-60.5 0,-54.5 0,-48.5 0,-48.5 0,-36.5 0,-36.5 0,-30.5 6,-24.5 12,-24.5 12,-24.5 76.75,-24.5 76.75,-24.5 82.75,-24.5 88.75,-30.5 88.75,-36.5 88.75,-36.5 88.75,-48.5 88.75,-48.5 88.75,-54.5 82.75,-60.5 76.75,-60.5"/>
<text xml:space="preserve" text-anchor="middle" x="44.38" y="-45" font-family="Arial" font-size="10.00" fill="white">OCR Engine</text>
<text xml:space="preserve" text-anchor="middle" x="44.38" y="-33" font-family="Arial" font-size="10.00" fill="white">(15+ Languages)</text>
</g>
<!-- deepdoc_feat&#45;&gt;ocr -->
<g id="edge7" class="edge">
<title>deepdoc_feat&#45;&gt;ocr</title>
<path fill="none" stroke="#4caf50" stroke-width="1.5" d="M179.77,-128.5C125.55,-128.5 44.38,-128.5 44.38,-128.5 44.38,-128.5 44.38,-73.01 44.38,-73.01"/>
<polygon fill="#4caf50" stroke="#4caf50" stroke-width="1.5" points="47.88,-73.01 44.38,-63.01 40.88,-73.01 47.88,-73.01"/>
</g>
<!-- layout -->
<g id="node9" class="node">
<title>layout</title>
<path fill="#ff9800" stroke="black" d="M205.38,-60.5C205.38,-60.5 129.38,-60.5 129.38,-60.5 123.38,-60.5 117.38,-54.5 117.38,-48.5 117.38,-48.5 117.38,-36.5 117.38,-36.5 117.38,-30.5 123.38,-24.5 129.38,-24.5 129.38,-24.5 205.38,-24.5 205.38,-24.5 211.38,-24.5 217.38,-30.5 217.38,-36.5 217.38,-36.5 217.38,-48.5 217.38,-48.5 217.38,-54.5 211.38,-60.5 205.38,-60.5"/>
<text xml:space="preserve" text-anchor="middle" x="167.38" y="-45" font-family="Arial" font-size="10.00" fill="white">Layout Recognition</text>
<text xml:space="preserve" text-anchor="middle" x="167.38" y="-33" font-family="Arial" font-size="10.00" fill="white">(10 Components)</text>
</g>
<!-- deepdoc_feat&#45;&gt;layout -->
<g id="edge8" class="edge">
<title>deepdoc_feat&#45;&gt;layout</title>
<path fill="none" stroke="#4caf50" stroke-width="1.5" d="M198.69,-110.26C198.69,-110.26 198.69,-72.98 198.69,-72.98"/>
<polygon fill="#4caf50" stroke="#4caf50" stroke-width="1.5" points="202.19,-72.98 198.69,-62.98 195.19,-72.98 202.19,-72.98"/>
</g>
<!-- tsr -->
<g id="node10" class="node">
<title>tsr</title>
<path fill="#ff9800" stroke="black" d="M316.38,-60.5C316.38,-60.5 258.38,-60.5 258.38,-60.5 252.38,-60.5 246.38,-54.5 246.38,-48.5 246.38,-48.5 246.38,-36.5 246.38,-36.5 246.38,-30.5 252.38,-24.5 258.38,-24.5 258.38,-24.5 316.38,-24.5 316.38,-24.5 322.38,-24.5 328.38,-30.5 328.38,-36.5 328.38,-36.5 328.38,-48.5 328.38,-48.5 328.38,-54.5 322.38,-60.5 316.38,-60.5"/>
<text xml:space="preserve" text-anchor="middle" x="287.38" y="-45" font-family="Arial" font-size="10.00" fill="white">Table Structure</text>
<text xml:space="preserve" text-anchor="middle" x="287.38" y="-33" font-family="Arial" font-size="10.00" fill="white">Recognition</text>
</g>
<!-- deepdoc_feat&#45;&gt;tsr -->
<g id="edge9" class="edge">
<title>deepdoc_feat&#45;&gt;tsr</title>
<path fill="none" stroke="#4caf50" stroke-width="1.5" d="M260.56,-110.26C260.56,-110.26 260.56,-72.98 260.56,-72.98"/>
<polygon fill="#4caf50" stroke="#4caf50" stroke-width="1.5" points="264.06,-72.98 260.56,-62.98 257.06,-72.98 264.06,-72.98"/>
</g>
<!-- intelligent -->
<g id="node11" class="node">
<title>intelligent</title>
<path fill="#ff9800" stroke="black" d="M413.25,-60.5C413.25,-60.5 369.5,-60.5 369.5,-60.5 363.5,-60.5 357.5,-54.5 357.5,-48.5 357.5,-48.5 357.5,-36.5 357.5,-36.5 357.5,-30.5 363.5,-24.5 369.5,-24.5 369.5,-24.5 413.25,-24.5 413.25,-24.5 419.25,-24.5 425.25,-30.5 425.25,-36.5 425.25,-36.5 425.25,-48.5 425.25,-48.5 425.25,-54.5 419.25,-60.5 413.25,-60.5"/>
<text xml:space="preserve" text-anchor="middle" x="391.38" y="-45" font-family="Arial" font-size="10.00" fill="white">Intelligent &amp;</text>
<text xml:space="preserve" text-anchor="middle" x="391.38" y="-33" font-family="Arial" font-size="10.00" fill="white">Explainable</text>
</g>
<!-- chunking_feat&#45;&gt;intelligent -->
<g id="edge10" class="edge">
<title>chunking_feat&#45;&gt;intelligent</title>
<path fill="none" stroke="#4caf50" stroke-width="1.5" d="M445.62,-110.26C445.62,-85.02 445.62,-42.5 445.62,-42.5 445.62,-42.5 438,-42.5 438,-42.5"/>
<polygon fill="#4caf50" stroke="#4caf50" stroke-width="1.5" points="438,-39 428,-42.5 438,-46 438,-39"/>
</g>
<!-- templates -->
<g id="node12" class="node">
<title>templates</title>
<path fill="#ff9800" stroke="black" d="M502.88,-60.5C502.88,-60.5 465.88,-60.5 465.88,-60.5 459.88,-60.5 453.88,-54.5 453.88,-48.5 453.88,-48.5 453.88,-36.5 453.88,-36.5 453.88,-30.5 459.88,-24.5 465.88,-24.5 465.88,-24.5 502.88,-24.5 502.88,-24.5 508.88,-24.5 514.88,-30.5 514.88,-36.5 514.88,-36.5 514.88,-48.5 514.88,-48.5 514.88,-54.5 508.88,-60.5 502.88,-60.5"/>
<text xml:space="preserve" text-anchor="middle" x="484.38" y="-45" font-family="Arial" font-size="10.00" fill="white">Multiple</text>
<text xml:space="preserve" text-anchor="middle" x="484.38" y="-33" font-family="Arial" font-size="10.00" fill="white">Templates</text>
</g>
<!-- chunking_feat&#45;&gt;templates -->
<g id="edge11" class="edge">
<title>chunking_feat&#45;&gt;templates</title>
<path fill="none" stroke="#4caf50" stroke-width="1.5" d="M484.38,-110.26C484.38,-110.26 484.38,-72.98 484.38,-72.98"/>
<polygon fill="#4caf50" stroke="#4caf50" stroke-width="1.5" points="487.88,-72.98 484.38,-62.98 480.88,-72.98 487.88,-72.98"/>
</g>
<!-- visualization -->
<g id="node13" class="node">
<title>visualization</title>
<path fill="#ff9800" stroke="black" d="M603.12,-60.5C603.12,-60.5 555.62,-60.5 555.62,-60.5 549.62,-60.5 543.62,-54.5 543.62,-48.5 543.62,-48.5 543.62,-36.5 543.62,-36.5 543.62,-30.5 549.62,-24.5 555.62,-24.5 555.62,-24.5 603.12,-24.5 603.12,-24.5 609.12,-24.5 615.12,-30.5 615.12,-36.5 615.12,-36.5 615.12,-48.5 615.12,-48.5 615.12,-54.5 609.12,-60.5 603.12,-60.5"/>
<text xml:space="preserve" text-anchor="middle" x="579.38" y="-45" font-family="Arial" font-size="10.00" fill="white">Chunk</text>
<text xml:space="preserve" text-anchor="middle" x="579.38" y="-33" font-family="Arial" font-size="10.00" fill="white">Visualization</text>
</g>
<!-- citation_feat&#45;&gt;visualization -->
<g id="edge12" class="edge">
<title>citation_feat&#45;&gt;visualization</title>
<path fill="none" stroke="#4caf50" stroke-width="1.5" d="M640.31,-110.26C640.31,-85.02 640.31,-42.5 640.31,-42.5 640.31,-42.5 627.8,-42.5 627.8,-42.5"/>
<polygon fill="#4caf50" stroke="#4caf50" stroke-width="1.5" points="627.8,-39 617.8,-42.5 627.8,-46 627.8,-39"/>
</g>
<!-- traceable -->
<g id="node14" class="node">
<title>traceable</title>
<path fill="#ff9800" stroke="black" d="M698.5,-60.5C698.5,-60.5 656.25,-60.5 656.25,-60.5 650.25,-60.5 644.25,-54.5 644.25,-48.5 644.25,-48.5 644.25,-36.5 644.25,-36.5 644.25,-30.5 650.25,-24.5 656.25,-24.5 656.25,-24.5 698.5,-24.5 698.5,-24.5 704.5,-24.5 710.5,-30.5 710.5,-36.5 710.5,-36.5 710.5,-48.5 710.5,-48.5 710.5,-54.5 704.5,-60.5 698.5,-60.5"/>
<text xml:space="preserve" text-anchor="middle" x="677.38" y="-45" font-family="Arial" font-size="10.00" fill="white">Traceable</text>
<text xml:space="preserve" text-anchor="middle" x="677.38" y="-33" font-family="Arial" font-size="10.00" fill="white">References</text>
</g>
<!-- citation_feat&#45;&gt;traceable -->
<g id="edge13" class="edge">
<title>citation_feat&#45;&gt;traceable</title>
<path fill="none" stroke="#4caf50" stroke-width="1.5" d="M672.31,-110.26C672.31,-110.26 672.31,-72.98 672.31,-72.98"/>
<polygon fill="#4caf50" stroke="#4caf50" stroke-width="1.5" points="675.81,-72.98 672.31,-62.98 668.81,-72.98 675.81,-72.98"/>
</g>
<!-- formats -->
<g id="node15" class="node">
<title>formats</title>
<path fill="#ff9800" stroke="black" d="M781.38,-60.5C781.38,-60.5 751.38,-60.5 751.38,-60.5 745.38,-60.5 739.38,-54.5 739.38,-48.5 739.38,-48.5 739.38,-36.5 739.38,-36.5 739.38,-30.5 745.38,-24.5 751.38,-24.5 751.38,-24.5 781.38,-24.5 781.38,-24.5 787.38,-24.5 793.38,-30.5 793.38,-36.5 793.38,-36.5 793.38,-48.5 793.38,-48.5 793.38,-54.5 787.38,-60.5 781.38,-60.5"/>
<text xml:space="preserve" text-anchor="middle" x="766.38" y="-45" font-family="Arial" font-size="10.00" fill="white">16+ File</text>
<text xml:space="preserve" text-anchor="middle" x="766.38" y="-33" font-family="Arial" font-size="10.00" fill="white">Formats</text>
</g>
<!-- data_feat&#45;&gt;formats -->
<g id="edge14" class="edge">
<title>data_feat&#45;&gt;formats</title>
<path fill="none" stroke="#4caf50" stroke-width="1.5" d="M766.38,-110.26C766.38,-110.26 766.38,-72.98 766.38,-72.98"/>
<polygon fill="#4caf50" stroke="#4caf50" stroke-width="1.5" points="769.88,-72.98 766.38,-62.98 762.88,-72.98 769.88,-72.98"/>
</g>
<!-- sync -->
<g id="node16" class="node">
<title>sync</title>
<path fill="#ff9800" stroke="black" d="M876.5,-60.5C876.5,-60.5 834.25,-60.5 834.25,-60.5 828.25,-60.5 822.25,-54.5 822.25,-48.5 822.25,-48.5 822.25,-36.5 822.25,-36.5 822.25,-30.5 828.25,-24.5 834.25,-24.5 834.25,-24.5 876.5,-24.5 876.5,-24.5 882.5,-24.5 888.5,-30.5 888.5,-36.5 888.5,-36.5 888.5,-48.5 888.5,-48.5 888.5,-54.5 882.5,-60.5 876.5,-60.5"/>
<text xml:space="preserve" text-anchor="middle" x="855.38" y="-45" font-family="Arial" font-size="10.00" fill="white">Data Sync</text>
<text xml:space="preserve" text-anchor="middle" x="855.38" y="-33" font-family="Arial" font-size="10.00" fill="white">(6 Sources)</text>
</g>
<!-- data_feat&#45;&gt;sync -->
<g id="edge15" class="edge">
<title>data_feat&#45;&gt;sync</title>
<path fill="none" stroke="#4caf50" stroke-width="1.5" d="M806.44,-110.26C806.44,-85.02 806.44,-42.5 806.44,-42.5 806.44,-42.5 809.65,-42.5 809.65,-42.5"/>
<polygon fill="#4caf50" stroke="#4caf50" stroke-width="1.5" points="809.65,-46 819.65,-42.5 809.65,-39 809.65,-46"/>
</g>
<!-- mcp -->
<g id="node17" class="node">
<title>mcp</title>
<path fill="#ff9800" stroke="black" d="M959.38,-60.5C959.38,-60.5 929.38,-60.5 929.38,-60.5 923.38,-60.5 917.38,-54.5 917.38,-48.5 917.38,-48.5 917.38,-36.5 917.38,-36.5 917.38,-30.5 923.38,-24.5 929.38,-24.5 929.38,-24.5 959.38,-24.5 959.38,-24.5 965.38,-24.5 971.38,-30.5 971.38,-36.5 971.38,-36.5 971.38,-48.5 971.38,-48.5 971.38,-54.5 965.38,-60.5 959.38,-60.5"/>
<text xml:space="preserve" text-anchor="middle" x="944.38" y="-45" font-family="Arial" font-size="10.00" fill="white">MCP</text>
<text xml:space="preserve" text-anchor="middle" x="944.38" y="-33" font-family="Arial" font-size="10.00" fill="white">Protocol</text>
</g>
<!-- workflow_feat&#45;&gt;mcp -->
<g id="edge16" class="edge">
<title>workflow_feat&#45;&gt;mcp</title>
<path fill="none" stroke="#4caf50" stroke-width="1.5" d="M944.38,-110.26C944.38,-110.26 944.38,-72.98 944.38,-72.98"/>
<polygon fill="#4caf50" stroke="#4caf50" stroke-width="1.5" points="947.88,-72.98 944.38,-62.98 940.88,-72.98 947.88,-72.98"/>
</g>
<!-- code_exec -->
<g id="node18" class="node">
<title>code_exec</title>
<path fill="#ff9800" stroke="black" d="M1043.88,-60.5C1043.88,-60.5 1012.88,-60.5 1012.88,-60.5 1006.88,-60.5 1000.88,-54.5 1000.88,-48.5 1000.88,-48.5 1000.88,-36.5 1000.88,-36.5 1000.88,-30.5 1006.88,-24.5 1012.88,-24.5 1012.88,-24.5 1043.88,-24.5 1043.88,-24.5 1049.88,-24.5 1055.88,-30.5 1055.88,-36.5 1055.88,-36.5 1055.88,-48.5 1055.88,-48.5 1055.88,-54.5 1049.88,-60.5 1043.88,-60.5"/>
<text xml:space="preserve" text-anchor="middle" x="1028.38" y="-45" font-family="Arial" font-size="10.00" fill="white">Code</text>
<text xml:space="preserve" text-anchor="middle" x="1028.38" y="-33" font-family="Arial" font-size="10.00" fill="white">Executor</text>
</g>
<!-- workflow_feat&#45;&gt;code_exec -->
<g id="edge17" class="edge">
<title>workflow_feat&#45;&gt;code_exec</title>
<path fill="none" stroke="#4caf50" stroke-width="1.5" d="M982.5,-110.26C982.5,-85.02 982.5,-42.5 982.5,-42.5 982.5,-42.5 988.36,-42.5 988.36,-42.5"/>
<polygon fill="#4caf50" stroke="#4caf50" stroke-width="1.5" points="988.36,-46 998.36,-42.5 988.36,-39 988.36,-46"/>
</g>
<!-- llm_config -->
<g id="node19" class="node">
<title>llm_config</title>
<path fill="#ff9800" stroke="black" d="M1143.75,-60.5C1143.75,-60.5 1097,-60.5 1097,-60.5 1091,-60.5 1085,-54.5 1085,-48.5 1085,-48.5 1085,-36.5 1085,-36.5 1085,-30.5 1091,-24.5 1097,-24.5 1097,-24.5 1143.75,-24.5 1143.75,-24.5 1149.75,-24.5 1155.75,-30.5 1155.75,-36.5 1155.75,-36.5 1155.75,-48.5 1155.75,-48.5 1155.75,-54.5 1149.75,-60.5 1143.75,-60.5"/>
<text xml:space="preserve" text-anchor="middle" x="1120.38" y="-45" font-family="Arial" font-size="10.00" fill="white">Configurable</text>
<text xml:space="preserve" text-anchor="middle" x="1120.38" y="-33" font-family="Arial" font-size="10.00" fill="white">LLMs</text>
</g>
<!-- api_feat&#45;&gt;llm_config -->
<g id="edge18" class="edge">
<title>api_feat&#45;&gt;llm_config</title>
<path fill="none" stroke="#4caf50" stroke-width="1.5" d="M1120.38,-110.26C1120.38,-110.26 1120.38,-72.98 1120.38,-72.98"/>
<polygon fill="#4caf50" stroke="#4caf50" stroke-width="1.5" points="1123.88,-72.98 1120.38,-62.98 1116.88,-72.98 1123.88,-72.98"/>
</g>
<!-- rerank -->
<g id="node20" class="node">
<title>rerank</title>
<path fill="#ff9800" stroke="black" d="M1249.75,-60.5C1249.75,-60.5 1197,-60.5 1197,-60.5 1191,-60.5 1185,-54.5 1185,-48.5 1185,-48.5 1185,-36.5 1185,-36.5 1185,-30.5 1191,-24.5 1197,-24.5 1197,-24.5 1249.75,-24.5 1249.75,-24.5 1255.75,-24.5 1261.75,-30.5 1261.75,-36.5 1261.75,-36.5 1261.75,-48.5 1261.75,-48.5 1261.75,-54.5 1255.75,-60.5 1249.75,-60.5"/>
<text xml:space="preserve" text-anchor="middle" x="1223.38" y="-45" font-family="Arial" font-size="10.00" fill="white">Multi&#45;Recall</text>
<text xml:space="preserve" text-anchor="middle" x="1223.38" y="-33" font-family="Arial" font-size="10.00" fill="white">+ Re&#45;Ranking</text>
</g>
<!-- api_feat&#45;&gt;rerank -->
<g id="edge19" class="edge">
<title>api_feat&#45;&gt;rerank</title>
<path fill="none" stroke="#4caf50" stroke-width="1.5" d="M1164.94,-110.26C1164.94,-85.02 1164.94,-42.5 1164.94,-42.5 1164.94,-42.5 1172.45,-42.5 1172.45,-42.5"/>
<polygon fill="#4caf50" stroke="#4caf50" stroke-width="1.5" points="1172.45,-46 1182.45,-42.5 1172.45,-39 1172.45,-46"/>
</g>
</g>
</svg>
