<?xml version="1.0" encoding="UTF-8" standalone="no"?>
<!DOCTYPE svg PUBLIC "-//W3C//DTD SVG 1.1//EN"
 "http://www.w3.org/Graphics/SVG/1.1/DTD/svg11.dtd">
<!-- Generated by graphviz version 14.1.2 (0)
 -->
<!-- Title: hackingtool&#45;features Pages: 1 -->
<svg width="1137pt" height="69pt"
 viewBox="0.00 0.00 1137.00 69.00" xmlns="http://www.w3.org/2000/svg" xmlns:xlink="http://www.w3.org/1999/xlink">
<style>
<!-- White text halo for edge label readability -->
text { paint-order: stroke; stroke: #ffffff; stroke-width: 3px; stroke-linejoin: round; fill: #1a1a2e; }
</style>
<g id="graph0" class="graph" transform="scale(1 1) rotate(0) translate(4 65)">
<title>hackingtool&#45;features</title>
<polygon fill="white" stroke="none" points="-4,4 -4,-65 1133,-65 1133,4 -4,4"/>
<text xml:space="preserve" text-anchor="middle" x="564.5" y="-7.2" font-family="Times New Roman,serif" font-size="14.00">HackingTool v2.0.0 Features</text>
<!-- python -->
<g id="node1" class="node">
<title>python</title>
<polygon fill="#4caf50" stroke="black" points="88.75,-60.75 0,-60.75 0,-24.75 88.75,-24.75 88.75,-60.75"/>
<text xml:space="preserve" text-anchor="middle" x="44.38" y="-45.8" font-family="Arial" font-size="11.00" fill="white">Python 3.10+</text>
<text xml:space="preserve" text-anchor="middle" x="44.38" y="-32.3" font-family="Arial" font-size="11.00" fill="white">Modern Syntax</text>
</g>
<!-- search -->
<g id="node2" class="node">
<title>search</title>
<path fill="#2196f3" stroke="black" d="M202.5,-61C202.5,-61 158.75,-61 158.75,-61 152.75,-61 146.75,-55 146.75,-49 146.75,-49 146.75,-36.5 146.75,-36.5 146.75,-30.5 152.75,-24.5 158.75,-24.5 158.75,-24.5 202.5,-24.5 202.5,-24.5 208.5,-24.5 214.5,-30.5 214.5,-36.5 214.5,-36.5 214.5,-49 214.5,-49 214.5,-55 208.5,-61 202.5,-61"/>
<text xml:space="preserve" text-anchor="middle" x="180.62" y="-45.6" font-family="Arial Bold" font-size="12.00" fill="white">Search</text>
<text xml:space="preserve" text-anchor="middle" x="180.62" y="-31.35" font-family="Arial Bold" font-size="12.00" fill="white">/keyword</text>
</g>
<!-- python&#45;&gt;search -->
<g id="edge1" class="edge">
<title>python&#45;&gt;search</title>
<path fill="none" stroke="#4caf50" stroke-width="2" d="M88.99,-42.75C88.99,-42.75 133.26,-42.75 133.26,-42.75"/>
<polygon fill="#4caf50" stroke="#4caf50" stroke-width="2" points="133.26,-46.25 143.26,-42.75 133.26,-39.25 133.26,-46.25"/>
</g>
<!-- tags -->
<g id="node3" class="node">
<title>tags</title>
<path fill="#2196f3" stroke="black" d="M320.75,-61C320.75,-61 284.5,-61 284.5,-61 278.5,-61 272.5,-55 272.5,-49 272.5,-49 272.5,-36.5 272.5,-36.5 272.5,-30.5 278.5,-24.5 284.5,-24.5 284.5,-24.5 320.75,-24.5 320.75,-24.5 326.75,-24.5 332.75,-30.5 332.75,-36.5 332.75,-36.5 332.75,-49 332.75,-49 332.75,-55 326.75,-61 320.75,-61"/>
<text xml:space="preserve" text-anchor="middle" x="302.62" y="-45.6" font-family="Arial Bold" font-size="12.00" fill="white">19 Tags</text>
<text xml:space="preserve" text-anchor="middle" x="302.62" y="-31.35" font-family="Arial Bold" font-size="12.00" fill="white">Filter</text>
</g>
<!-- search&#45;&gt;tags -->
<g id="edge2" class="edge">
<title>search&#45;&gt;tags</title>
<path fill="none" stroke="#2196f3" stroke-width="2" d="M214.93,-42.75C214.93,-42.75 259.28,-42.75 259.28,-42.75"/>
<polygon fill="#2196f3" stroke="#2196f3" stroke-width="2" points="259.28,-46.25 269.28,-42.75 259.28,-39.25 259.28,-46.25"/>
</g>
<!-- recommend -->
<g id="node4" class="node">
<title>recommend</title>
<path fill="#2196f3" stroke="black" d="M467.5,-61C467.5,-61 402.75,-61 402.75,-61 396.75,-61 390.75,-55 390.75,-49 390.75,-49 390.75,-36.5 390.75,-36.5 390.75,-30.5 396.75,-24.5 402.75,-24.5 402.75,-24.5 467.5,-24.5 467.5,-24.5 473.5,-24.5 479.5,-30.5 479.5,-36.5 479.5,-36.5 479.5,-49 479.5,-49 479.5,-55 473.5,-61 467.5,-61"/>
<text xml:space="preserve" text-anchor="middle" x="435.12" y="-45.6" font-family="Arial Bold" font-size="12.00" fill="white">Recommend</text>
<text xml:space="preserve" text-anchor="middle" x="435.12" y="-31.35" font-family="Arial Bold" font-size="12.00" fill="white">AI&#45;like</text>
</g>
<!-- tags&#45;&gt;recommend -->
<g id="edge3" class="edge">
<title>tags&#45;&gt;recommend</title>
<path fill="none" stroke="#2196f3" stroke-width="2" d="M333.02,-42.75C333.02,-42.75 377.26,-42.75 377.26,-42.75"/>
<polygon fill="#2196f3" stroke="#2196f3" stroke-width="2" points="377.26,-46.25 387.26,-42.75 377.26,-39.25 377.26,-46.25"/>
</g>
<!-- status -->
<g id="node5" class="node">
<title>status</title>
<polygon fill="#4caf50" stroke="black" points="591.5,-60.75 537.5,-60.75 537.5,-24.75 591.5,-24.75 591.5,-60.75"/>
<text xml:space="preserve" text-anchor="middle" x="564.5" y="-45.8" font-family="Arial" font-size="11.00" fill="white">Install</text>
<text xml:space="preserve" text-anchor="middle" x="564.5" y="-32.3" font-family="Arial" font-size="11.00" fill="white">Status</text>
</g>
<!-- recommend&#45;&gt;status -->
<g id="edge4" class="edge">
<title>recommend&#45;&gt;status</title>
<path fill="none" stroke="#4caf50" stroke-width="2" d="M479.65,-42.75C479.65,-42.75 524.24,-42.75 524.24,-42.75"/>
<polygon fill="#4caf50" stroke="#4caf50" stroke-width="2" points="524.24,-46.25 534.24,-42.75 524.24,-39.25 524.24,-46.25"/>
</g>
<!-- batch -->
<g id="node6" class="node">
<title>batch</title>
<path fill="#ff9800" stroke="black" d="M712,-60.75C712,-60.75 661.5,-60.75 661.5,-60.75 655.5,-60.75 649.5,-54.75 649.5,-48.75 649.5,-48.75 649.5,-36.75 649.5,-36.75 649.5,-30.75 655.5,-24.75 661.5,-24.75 661.5,-24.75 712,-24.75 712,-24.75 718,-24.75 724,-30.75 724,-36.75 724,-36.75 724,-48.75 724,-48.75 724,-54.75 718,-60.75 712,-60.75"/>
<text xml:space="preserve" text-anchor="middle" x="686.75" y="-45.8" font-family="Arial" font-size="11.00" fill="white">Batch Install</text>
<text xml:space="preserve" text-anchor="middle" x="686.75" y="-32.3" font-family="Arial" font-size="11.00" fill="white">Option 97</text>
</g>
<!-- status&#45;&gt;batch -->
<g id="edge5" class="edge">
<title>status&#45;&gt;batch</title>
<path fill="none" stroke="#ff9800" stroke-width="2" d="M591.94,-42.75C591.94,-42.75 636.18,-42.75 636.18,-42.75"/>
<polygon fill="#ff9800" stroke="#ff9800" stroke-width="2" points="636.18,-46.25 646.18,-42.75 636.18,-39.25 636.18,-46.25"/>
</g>
<!-- update -->
<g id="node7" class="node">
<title>update</title>
<path fill="#ff9800" stroke="black" d="M853.5,-60.75C853.5,-60.75 794,-60.75 794,-60.75 788,-60.75 782,-54.75 782,-48.75 782,-48.75 782,-36.75 782,-36.75 782,-30.75 788,-24.75 794,-24.75 794,-24.75 853.5,-24.75 853.5,-24.75 859.5,-24.75 865.5,-30.75 865.5,-36.75 865.5,-36.75 865.5,-48.75 865.5,-48.75 865.5,-54.75 859.5,-60.75 853.5,-60.75"/>
<text xml:space="preserve" text-anchor="middle" x="823.75" y="-45.8" font-family="Arial" font-size="11.00" fill="white">Smart Update</text>
<text xml:space="preserve" text-anchor="middle" x="823.75" y="-32.3" font-family="Arial" font-size="11.00" fill="white">Auto&#45;detect</text>
</g>
<!-- batch&#45;&gt;update -->
<g id="edge6" class="edge">
<title>batch&#45;&gt;update</title>
<path fill="none" stroke="#ff9800" stroke-width="2" d="M724.19,-42.75C724.19,-42.75 768.5,-42.75 768.5,-42.75"/>
<polygon fill="#ff9800" stroke="#ff9800" stroke-width="2" points="768.5,-46.25 778.5,-42.75 768.5,-39.25 768.5,-46.25"/>
</g>
<!-- docker -->
<g id="node8" class="node">
<title>docker</title>
<path fill="#9c27b0" stroke="black" d="M978.5,-60.75C978.5,-60.75 935.5,-60.75 935.5,-60.75 929.5,-60.75 923.5,-54.75 923.5,-48.75 923.5,-48.75 923.5,-36.75 923.5,-36.75 923.5,-30.75 929.5,-24.75 935.5,-24.75 935.5,-24.75 978.5,-24.75 978.5,-24.75 984.5,-24.75 990.5,-30.75 990.5,-36.75 990.5,-36.75 990.5,-48.75 990.5,-48.75 990.5,-54.75 984.5,-60.75 978.5,-60.75"/>
<text xml:space="preserve" text-anchor="middle" x="957" y="-45.8" font-family="Arial" font-size="11.00" fill="white">Docker</text>
<text xml:space="preserve" text-anchor="middle" x="957" y="-32.3" font-family="Arial" font-size="11.00" fill="white">Local build</text>
</g>
<!-- update&#45;&gt;docker -->
<g id="edge7" class="edge">
<title>update&#45;&gt;docker</title>
<path fill="none" stroke="#9c27b0" stroke-width="2" d="M865.91,-42.75C865.91,-42.75 910.09,-42.75 910.09,-42.75"/>
<polygon fill="#9c27b0" stroke="#9c27b0" stroke-width="2" points="910.09,-46.25 920.09,-42.75 910.09,-39.25 910.09,-46.25"/>
</g>
<!-- os_aware -->
<g id="node9" class="node">
<title>os_aware</title>
<path fill="#9c27b0" stroke="black" d="M1117,-60.75C1117,-60.75 1060.5,-60.75 1060.5,-60.75 1054.5,-60.75 1048.5,-54.75 1048.5,-48.75 1048.5,-48.75 1048.5,-36.75 1048.5,-36.75 1048.5,-30.75 1054.5,-24.75 1060.5,-24.75 1060.5,-24.75 1117,-24.75 1117,-24.75 1123,-24.75 1129,-30.75 1129,-36.75 1129,-36.75 1129,-48.75 1129,-48.75 1129,-54.75 1123,-60.75 1117,-60.75"/>
<text xml:space="preserve" text-anchor="middle" x="1088.75" y="-45.8" font-family="Arial" font-size="11.00" fill="white">OS&#45;Aware</text>
<text xml:space="preserve" text-anchor="middle" x="1088.75" y="-32.3" font-family="Arial" font-size="11.00" fill="white">Linux/macOS</text>
</g>
<!-- docker&#45;&gt;os_aware -->
<g id="edge8" class="edge">
<title>docker&#45;&gt;os_aware</title>
<path fill="none" stroke="#9c27b0" stroke-width="2" d="M990.93,-42.75C990.93,-42.75 1035.35,-42.75 1035.35,-42.75"/>
<polygon fill="#9c27b0" stroke="#9c27b0" stroke-width="2" points="1035.35,-46.25 1045.35,-42.75 1035.35,-39.25 1035.35,-46.25"/>
</g>
</g>
</svg>
