<?xml version="1.0" encoding="UTF-8" standalone="no"?>
<!DOCTYPE svg PUBLIC "-//W3C//DTD SVG 1.1//EN"
 "http://www.w3.org/Graphics/SVG/1.1/DTD/svg11.dtd">
<!-- Generated by graphviz version 14.1.2 (0)
 -->
<!-- Title: G Pages: 1 -->
<svg width="1352pt" height="1257pt"
 viewBox="0.00 0.00 1352.00 1257.00" xmlns="http://www.w3.org/2000/svg" xmlns:xlink="http://www.w3.org/1999/xlink">
<g id="graph0" class="graph" transform="scale(2.08333 2.08333) rotate(0) translate(36 567.5)">
<title>G</title>
<polygon fill="white" stroke="none" points="-36,36 -36,-567.5 612.9,-567.5 612.9,36 -36,36"/>
<!-- title -->
<g id="node1" class="node">
<title>title</title>
<text xml:space="preserve" text-anchor="middle" x="107" y="-504.97" font-family="Inter" font-size="16.00" fill="#1a237e">Hermes WebUI Architecture</text>
</g>
<!-- sessions_panel -->
<g id="node2" class="node">
<title>sessions_panel</title>
<path fill="#fff3e0" stroke="#e65100" d="M213.9,-430.6C213.9,-430.6 146.1,-430.6 146.1,-430.6 140.1,-430.6 134.1,-424.6 134.1,-418.6 134.1,-418.6 134.1,-402.7 134.1,-402.7 134.1,-396.7 140.1,-390.7 146.1,-390.7 146.1,-390.7 213.9,-390.7 213.9,-390.7 219.9,-390.7 225.9,-396.7 225.9,-402.7 225.9,-402.7 225.9,-418.6 225.9,-418.6 225.9,-424.6 219.9,-430.6 213.9,-430.6"/>
<text xml:space="preserve" text-anchor="middle" x="180" y="-413.9" font-family="Inter" font-size="10.00">Sessions Panel</text>
<text xml:space="preserve" text-anchor="middle" x="180" y="-401.15" font-family="Inter" font-size="10.00">(Sidebar)</text>
</g>
<!-- state_mgmt -->
<g id="node13" class="node">
<title>state_mgmt</title>
<path fill="#f3e5f5" stroke="#6a1b9a" d="M339.15,-332.7C339.15,-332.7 278.85,-332.7 278.85,-332.7 272.85,-332.7 266.85,-326.7 266.85,-320.7 266.85,-320.7 266.85,-304.8 266.85,-304.8 266.85,-298.8 272.85,-292.8 278.85,-292.8 278.85,-292.8 339.15,-292.8 339.15,-292.8 345.15,-292.8 351.15,-298.8 351.15,-304.8 351.15,-304.8 351.15,-320.7 351.15,-320.7 351.15,-326.7 345.15,-332.7 339.15,-332.7"/>
<text xml:space="preserve" text-anchor="middle" x="309" y="-316" font-family="Inter" font-size="10.00">Global State</text>
<text xml:space="preserve" text-anchor="middle" x="309" y="-303.25" font-family="Inter" font-size="10.00">Management</text>
</g>
<!-- sessions_panel&#45;&gt;state_mgmt -->
<g id="edge4" class="edge">
<title>sessions_panel&#45;&gt;state_mgmt</title>
<path fill="none" stroke="#6a1b9a" stroke-width="1.2" d="M221.12,-390.42C221.12,-361.81 221.12,-313 221.12,-313 221.12,-313 254.79,-313 254.79,-313"/>
<polygon fill="#6a1b9a" stroke="#6a1b9a" stroke-width="1.2" points="254.79,-316.5 264.79,-313 254.79,-309.5 254.79,-316.5"/>
</g>
<!-- rest_api -->
<g id="node3" class="node">
<title>rest_api</title>
<path fill="#e0f7fa" stroke="#00695c" d="M273.65,-234.8C273.65,-234.8 228.35,-234.8 228.35,-234.8 222.35,-234.8 216.35,-228.8 216.35,-222.8 216.35,-222.8 216.35,-206.9 216.35,-206.9 216.35,-200.9 222.35,-194.9 228.35,-194.9 228.35,-194.9 273.65,-194.9 273.65,-194.9 279.65,-194.9 285.65,-200.9 285.65,-206.9 285.65,-206.9 285.65,-222.8 285.65,-222.8 285.65,-228.8 279.65,-234.8 273.65,-234.8"/>
<text xml:space="preserve" text-anchor="middle" x="251" y="-218.1" font-family="Inter" font-size="10.00">REST API</text>
<text xml:space="preserve" text-anchor="middle" x="251" y="-205.35" font-family="Inter" font-size="10.00">(/api/*)</text>
</g>
<!-- hermes_agent -->
<g id="node14" class="node">
<title>hermes_agent</title>
<path fill="#e8f5e9" stroke="#2e7d32" d="M354.9,-136.9C354.9,-136.9 263.1,-136.9 263.1,-136.9 257.1,-136.9 251.1,-130.9 251.1,-124.9 251.1,-124.9 251.1,-106 251.1,-106 251.1,-100 257.1,-94 263.1,-94 263.1,-94 354.9,-94 354.9,-94 360.9,-94 366.9,-100 366.9,-106 366.9,-106 366.9,-124.9 366.9,-124.9 366.9,-130.9 360.9,-136.9 354.9,-136.9"/>
<text xml:space="preserve" text-anchor="middle" x="309" y="-119.25" font-family="Inter" font-size="11.00">Hermes Agent</text>
<text xml:space="preserve" text-anchor="middle" x="309" y="-105" font-family="Inter" font-size="11.00">(Python Backend)</text>
</g>
<!-- rest_api&#45;&gt;hermes_agent -->
<g id="edge9" class="edge">
<title>rest_api&#45;&gt;hermes_agent</title>
<path fill="none" stroke="#2e7d32" stroke-width="1.5" d="M268.38,-194.73C268.38,-194.73 268.38,-149.53 268.38,-149.53"/>
<polygon fill="#2e7d32" stroke="#2e7d32" stroke-width="1.5" points="271.88,-149.53 268.38,-139.53 264.88,-149.53 271.88,-149.53"/>
</g>
<!-- openai -->
<g id="node4" class="node">
<title>openai</title>
<path fill="#fce4ec" stroke="#ad1457" d="M112.53,-36C112.53,-36 75.47,-36 75.47,-36 69.47,-36 63.48,-30 63.48,-24 63.48,-24 63.48,-12 63.48,-12 63.48,-6 69.47,0 75.47,0 75.47,0 112.53,0 112.53,0 118.53,0 124.53,-6 124.53,-12 124.53,-12 124.53,-24 124.53,-24 124.53,-30 118.53,-36 112.53,-36"/>
<text xml:space="preserve" text-anchor="middle" x="94" y="-14.88" font-family="Inter" font-size="10.00">OpenAI</text>
</g>
<!-- browser -->
<g id="node5" class="node">
<title>browser</title>
<path fill="#e3f2fd" stroke="#1565c0" d="M349.27,-531.5C349.27,-531.5 268.73,-531.5 268.73,-531.5 262.73,-531.5 256.73,-525.5 256.73,-519.5 256.73,-519.5 256.73,-500.6 256.73,-500.6 256.73,-494.6 262.73,-488.6 268.73,-488.6 268.73,-488.6 349.27,-488.6 349.27,-488.6 355.27,-488.6 361.27,-494.6 361.27,-500.6 361.27,-500.6 361.27,-519.5 361.27,-519.5 361.27,-525.5 355.27,-531.5 349.27,-531.5"/>
<text xml:space="preserve" text-anchor="middle" x="309" y="-513.85" font-family="Inter" font-size="11.00">Browser</text>
<text xml:space="preserve" text-anchor="middle" x="309" y="-499.6" font-family="Inter" font-size="11.00">(Vanilla JS SPA)</text>
</g>
<!-- browser&#45;&gt;sessions_panel -->
<g id="edge1" class="edge">
<title>browser&#45;&gt;sessions_panel</title>
<path fill="none" stroke="#1565c0" stroke-width="1.5" d="M261.79,-488.56C261.79,-459.43 261.79,-411 261.79,-411 261.79,-411 238.42,-411 238.42,-411"/>
<polygon fill="#1565c0" stroke="#1565c0" stroke-width="1.5" points="238.42,-407.5 228.42,-411 238.42,-414.5 238.42,-407.5"/>
</g>
<!-- chat_panel -->
<g id="node6" class="node">
<title>chat_panel</title>
<path fill="#fff3e0" stroke="#e65100" d="M336.9,-430.6C336.9,-430.6 281.1,-430.6 281.1,-430.6 275.1,-430.6 269.1,-424.6 269.1,-418.6 269.1,-418.6 269.1,-402.7 269.1,-402.7 269.1,-396.7 275.1,-390.7 281.1,-390.7 281.1,-390.7 336.9,-390.7 336.9,-390.7 342.9,-390.7 348.9,-396.7 348.9,-402.7 348.9,-402.7 348.9,-418.6 348.9,-418.6 348.9,-424.6 342.9,-430.6 336.9,-430.6"/>
<text xml:space="preserve" text-anchor="middle" x="309" y="-413.9" font-family="Inter" font-size="10.00">Chat Panel</text>
<text xml:space="preserve" text-anchor="middle" x="309" y="-401.15" font-family="Inter" font-size="10.00">(Main Area)</text>
</g>
<!-- browser&#45;&gt;chat_panel -->
<g id="edge2" class="edge">
<title>browser&#45;&gt;chat_panel</title>
<path fill="none" stroke="#1565c0" stroke-width="1.5" d="M309,-488.48C309,-488.48 309,-443.09 309,-443.09"/>
<polygon fill="#1565c0" stroke="#1565c0" stroke-width="1.5" points="312.5,-443.09 309,-433.09 305.5,-443.09 312.5,-443.09"/>
</g>
<!-- workspace_panel -->
<g id="node9" class="node">
<title>workspace_panel</title>
<path fill="#fff3e0" stroke="#e65100" d="M482.52,-430.6C482.52,-430.6 403.48,-430.6 403.48,-430.6 397.48,-430.6 391.48,-424.6 391.48,-418.6 391.48,-418.6 391.48,-402.7 391.48,-402.7 391.48,-396.7 397.48,-390.7 403.48,-390.7 403.48,-390.7 482.52,-390.7 482.52,-390.7 488.52,-390.7 494.52,-396.7 494.52,-402.7 494.52,-402.7 494.52,-418.6 494.52,-418.6 494.52,-424.6 488.52,-430.6 482.52,-430.6"/>
<text xml:space="preserve" text-anchor="middle" x="443" y="-413.9" font-family="Inter" font-size="10.00">Workspace Panel</text>
<text xml:space="preserve" text-anchor="middle" x="443" y="-401.15" font-family="Inter" font-size="10.00">(File Browser)</text>
</g>
<!-- browser&#45;&gt;workspace_panel -->
<g id="edge3" class="edge">
<title>browser&#45;&gt;workspace_panel</title>
<path fill="none" stroke="#1565c0" stroke-width="1.5" d="M356.21,-488.56C356.21,-459.43 356.21,-411 356.21,-411 356.21,-411 378.74,-411 378.74,-411"/>
<polygon fill="#1565c0" stroke="#1565c0" stroke-width="1.5" points="378.74,-414.5 388.74,-411 378.74,-407.5 378.74,-414.5"/>
</g>
<!-- chat_panel&#45;&gt;state_mgmt -->
<g id="edge5" class="edge">
<title>chat_panel&#45;&gt;state_mgmt</title>
<path fill="none" stroke="#6a1b9a" stroke-width="1.2" d="M309,-390.37C309,-390.37 309,-344.83 309,-344.83"/>
<polygon fill="#6a1b9a" stroke="#6a1b9a" stroke-width="1.2" points="312.5,-344.83 309,-334.83 305.5,-344.83 312.5,-344.83"/>
</g>
<!-- ws_api -->
<g id="node7" class="node">
<title>ws_api</title>
<path fill="#e0f7fa" stroke="#00695c" d="M393.77,-234.8C393.77,-234.8 340.23,-234.8 340.23,-234.8 334.23,-234.8 328.23,-228.8 328.23,-222.8 328.23,-222.8 328.23,-206.9 328.23,-206.9 328.23,-200.9 334.23,-194.9 340.23,-194.9 340.23,-194.9 393.77,-194.9 393.77,-194.9 399.77,-194.9 405.77,-200.9 405.77,-206.9 405.77,-206.9 405.77,-222.8 405.77,-222.8 405.77,-228.8 399.77,-234.8 393.77,-234.8"/>
<text xml:space="preserve" text-anchor="middle" x="367" y="-218.1" font-family="Inter" font-size="10.00">WebSocket</text>
<text xml:space="preserve" text-anchor="middle" x="367" y="-205.35" font-family="Inter" font-size="10.00">(Real&#45;time)</text>
</g>
<!-- ws_api&#45;&gt;hermes_agent -->
<g id="edge10" class="edge">
<title>ws_api&#45;&gt;hermes_agent</title>
<path fill="none" stroke="#2e7d32" stroke-width="1.5" d="M347.56,-194.73C347.56,-194.73 347.56,-149.53 347.56,-149.53"/>
<polygon fill="#2e7d32" stroke="#2e7d32" stroke-width="1.5" points="351.06,-149.53 347.56,-139.53 344.06,-149.53 351.06,-149.53"/>
</g>
<!-- anthropic -->
<g id="node8" class="node">
<title>anthropic</title>
<path fill="#fce4ec" stroke="#ad1457" d="M224.65,-36C224.65,-36 179.35,-36 179.35,-36 173.35,-36 167.35,-30 167.35,-24 167.35,-24 167.35,-12 167.35,-12 167.35,-6 173.35,0 179.35,0 179.35,0 224.65,0 224.65,0 230.65,0 236.65,-6 236.65,-12 236.65,-12 236.65,-24 236.65,-24 236.65,-30 230.65,-36 224.65,-36"/>
<text xml:space="preserve" text-anchor="middle" x="202" y="-14.88" font-family="Inter" font-size="10.00">Anthropic</text>
</g>
<!-- workspace_panel&#45;&gt;state_mgmt -->
<g id="edge6" class="edge">
<title>workspace_panel&#45;&gt;state_mgmt</title>
<path fill="none" stroke="#6a1b9a" stroke-width="1.2" d="M398.62,-390.42C398.62,-361.81 398.62,-313 398.62,-313 398.62,-313 363.27,-313 363.27,-313"/>
<polygon fill="#6a1b9a" stroke="#6a1b9a" stroke-width="1.2" points="363.27,-309.5 353.27,-313 363.27,-316.5 363.27,-309.5"/>
</g>
<!-- gemini -->
<g id="node10" class="node">
<title>gemini</title>
<path fill="#fce4ec" stroke="#ad1457" d="M326.4,-36C326.4,-36 291.6,-36 291.6,-36 285.6,-36 279.6,-30 279.6,-24 279.6,-24 279.6,-12 279.6,-12 279.6,-6 285.6,0 291.6,0 291.6,0 326.4,0 326.4,0 332.4,0 338.4,-6 338.4,-12 338.4,-12 338.4,-24 338.4,-24 338.4,-30 332.4,-36 326.4,-36"/>
<text xml:space="preserve" text-anchor="middle" x="309" y="-14.88" font-family="Inter" font-size="10.00">Gemini</text>
</g>
<!-- deepseek -->
<g id="node11" class="node">
<title>deepseek</title>
<path fill="#fce4ec" stroke="#ad1457" d="M442.15,-36C442.15,-36 393.85,-36 393.85,-36 387.85,-36 381.85,-30 381.85,-24 381.85,-24 381.85,-12 381.85,-12 381.85,-6 387.85,0 393.85,0 393.85,0 442.15,0 442.15,0 448.15,0 454.15,-6 454.15,-12 454.15,-12 454.15,-24 454.15,-24 454.15,-30 448.15,-36 442.15,-36"/>
<text xml:space="preserve" text-anchor="middle" x="418" y="-14.88" font-family="Inter" font-size="10.00">DeepSeek</text>
</g>
<!-- openrouter -->
<g id="node12" class="node">
<title>openrouter</title>
<path fill="#fce4ec" stroke="#ad1457" d="M564.9,-36C564.9,-36 509.1,-36 509.1,-36 503.1,-36 497.1,-30 497.1,-24 497.1,-24 497.1,-12 497.1,-12 497.1,-6 503.1,0 509.1,0 509.1,0 564.9,0 564.9,0 570.9,0 576.9,-6 576.9,-12 576.9,-12 576.9,-24 576.9,-24 576.9,-30 570.9,-36 564.9,-36"/>
<text xml:space="preserve" text-anchor="middle" x="537" y="-14.88" font-family="Inter" font-size="10.00">OpenRouter</text>
</g>
<!-- state_mgmt&#45;&gt;rest_api -->
<g id="edge7" class="edge">
<title>state_mgmt&#45;&gt;rest_api</title>
<path fill="none" stroke="#00695c" stroke-width="1.2" d="M276.25,-292.47C276.25,-292.47 276.25,-246.93 276.25,-246.93"/>
<polygon fill="#00695c" stroke="#00695c" stroke-width="1.2" points="279.75,-246.93 276.25,-236.93 272.75,-246.93 279.75,-246.93"/>
</g>
<!-- state_mgmt&#45;&gt;ws_api -->
<g id="edge8" class="edge">
<title>state_mgmt&#45;&gt;ws_api</title>
<path fill="none" stroke="#00695c" stroke-width="1.2" d="M339.69,-292.47C339.69,-292.47 339.69,-246.93 339.69,-246.93"/>
<polygon fill="#00695c" stroke="#00695c" stroke-width="1.2" points="343.19,-246.93 339.69,-236.93 336.19,-246.93 343.19,-246.93"/>
</g>
<!-- hermes_agent&#45;&gt;openai -->
<g id="edge11" class="edge">
<title>hermes_agent&#45;&gt;openai</title>
<path fill="none" stroke="#ad1457" d="M250.82,-123C187.14,-123 94,-123 94,-123 94,-123 94,-47.8 94,-47.8"/>
<polygon fill="#ad1457" stroke="#ad1457" points="97.5,-47.8 94,-37.8 90.5,-47.8 97.5,-47.8"/>
</g>
<!-- hermes_agent&#45;&gt;anthropic -->
<g id="edge12" class="edge">
<title>hermes_agent&#45;&gt;anthropic</title>
<path fill="none" stroke="#ad1457" d="M250.81,-108C237.15,-108 226.5,-108 226.5,-108 226.5,-108 226.5,-47.73 226.5,-47.73"/>
<polygon fill="#ad1457" stroke="#ad1457" points="230,-47.73 226.5,-37.73 223,-47.73 230,-47.73"/>
</g>
<!-- hermes_agent&#45;&gt;gemini -->
<g id="edge13" class="edge">
<title>hermes_agent&#45;&gt;gemini</title>
<path fill="none" stroke="#ad1457" d="M309,-93.82C309,-93.82 309,-47.81 309,-47.81"/>
<polygon fill="#ad1457" stroke="#ad1457" points="312.5,-47.81 309,-37.81 305.5,-47.81 312.5,-47.81"/>
</g>
<!-- hermes_agent&#45;&gt;deepseek -->
<g id="edge14" class="edge">
<title>hermes_agent&#45;&gt;deepseek</title>
<path fill="none" stroke="#ad1457" d="M352.65,-93.82C352.65,-65.11 352.65,-18 352.65,-18 352.65,-18 369.99,-18 369.99,-18"/>
<polygon fill="#ad1457" stroke="#ad1457" points="369.99,-21.5 379.99,-18 369.99,-14.5 369.99,-21.5"/>
</g>
<!-- hermes_agent&#45;&gt;openrouter -->
<g id="edge15" class="edge">
<title>hermes_agent&#45;&gt;openrouter</title>
<path fill="none" stroke="#ad1457" d="M367.12,-115C434.67,-115 537,-115 537,-115 537,-115 537,-47.76 537,-47.76"/>
<polygon fill="#ad1457" stroke="#ad1457" points="540.5,-47.76 537,-37.76 533.5,-47.76 540.5,-47.76"/>
</g>
</g>
</svg>
