<?xml version="1.0" encoding="UTF-8" standalone="no"?>
<!DOCTYPE svg PUBLIC "-//W3C//DTD SVG 1.1//EN"
 "http://www.w3.org/Graphics/SVG/1.1/DTD/svg11.dtd">
<!-- Generated by graphviz version 14.1.2 (0)
 -->
<!-- Title: openclaw_skills Pages: 1 -->
<svg width="1050pt" height="250pt"
 viewBox="0.00 0.00 1050.00 250.00" xmlns="http://www.w3.org/2000/svg" xmlns:xlink="http://www.w3.org/1999/xlink">
<g id="graph0" class="graph" transform="scale(1 1) rotate(0) translate(4 246)">
<title>openclaw_skills</title>
<polygon fill="#0d1117" stroke="none" points="-4,4 -4,-246 1046,-246 1046,4 -4,4"/>
<!-- title -->
<g id="node1" class="node">
<title>title</title>
<text xml:space="preserve" text-anchor="middle" x="153.88" y="-214.18" font-family="Arial Bold" font-size="16.00" fill="#e3f2fd">OpenClaw Skills &amp; Plugin Architecture</text>
</g>
<!-- sdk -->
<g id="node2" class="node">
<title>sdk</title>
<path fill="#2196f3" stroke="black" stroke-width="2.5" d="M717.88,-140C717.88,-140 525.88,-140 525.88,-140 519.88,-140 513.88,-134 513.88,-128 513.88,-128 513.88,-114 513.88,-114 513.88,-108 519.88,-102 525.88,-102 525.88,-102 717.88,-102 717.88,-102 723.88,-102 729.88,-108 729.88,-114 729.88,-114 729.88,-128 729.88,-128 729.88,-134 723.88,-140 717.88,-140"/>
<text xml:space="preserve" text-anchor="middle" x="621.88" y="-123.65" font-family="Arial Bold" font-size="13.00" fill="white">Plugin SDK</text>
<text xml:space="preserve" text-anchor="middle" x="621.88" y="-108.65" font-family="Arial Bold" font-size="13.00" fill="white">(Public Contract)</text>
</g>
<!-- title&#45;&gt;sdk -->
<!-- channel_plugin -->
<g id="node3" class="node">
<title>channel_plugin</title>
<path fill="#4caf50" stroke="black" d="M483.88,-44C483.88,-44 327.88,-44 327.88,-44 321.88,-44 315.88,-38 315.88,-32 315.88,-32 315.88,-12 315.88,-12 315.88,-6 321.88,0 327.88,0 327.88,0 483.88,0 483.88,0 489.88,0 495.88,-6 495.88,-12 495.88,-12 495.88,-32 495.88,-32 495.88,-38 489.88,-44 483.88,-44"/>
<text xml:space="preserve" text-anchor="middle" x="405.88" y="-30.5" font-family="Arial" font-size="10.00" fill="white">Channel Plugins</text>
<text xml:space="preserve" text-anchor="middle" x="405.88" y="-18.5" font-family="Arial" font-size="10.00" fill="white">(WhatsApp, Telegram,</text>
<text xml:space="preserve" text-anchor="middle" x="405.88" y="-6.5" font-family="Arial" font-size="10.00" fill="white">Discord, Slack, ...)</text>
</g>
<!-- sdk&#45;&gt;channel_plugin -->
<g id="edge2" class="edge">
<title>sdk&#45;&gt;channel_plugin</title>
<path fill="none" stroke="#4caf50" stroke-width="1.5" d="M522.88,-100.97C522.88,-72.04 522.88,-22 522.88,-22 522.88,-22 508.6,-22 508.6,-22"/>
<polygon fill="#4caf50" stroke="#4caf50" stroke-width="1.5" points="508.6,-18.5 498.6,-22 508.6,-25.5 508.6,-18.5"/>
</g>
<!-- provider_plugin -->
<g id="node4" class="node">
<title>provider_plugin</title>
<path fill="#009688" stroke="black" d="M699.88,-44C699.88,-44 543.88,-44 543.88,-44 537.88,-44 531.88,-38 531.88,-32 531.88,-32 531.88,-12 531.88,-12 531.88,-6 537.88,0 543.88,0 543.88,0 699.88,0 699.88,0 705.88,0 711.88,-6 711.88,-12 711.88,-12 711.88,-32 711.88,-32 711.88,-38 705.88,-44 699.88,-44"/>
<text xml:space="preserve" text-anchor="middle" x="621.88" y="-30.5" font-family="Arial" font-size="10.00" fill="white">Provider Plugins</text>
<text xml:space="preserve" text-anchor="middle" x="621.88" y="-18.5" font-family="Arial" font-size="10.00" fill="white">(OpenAI, Anthropic,</text>
<text xml:space="preserve" text-anchor="middle" x="621.88" y="-6.5" font-family="Arial" font-size="10.00" fill="white">Google, Local Models)</text>
</g>
<!-- sdk&#45;&gt;provider_plugin -->
<g id="edge3" class="edge">
<title>sdk&#45;&gt;provider_plugin</title>
<path fill="none" stroke="#009688" stroke-width="1.5" d="M621.88,-100.97C621.88,-100.97 621.88,-56.69 621.88,-56.69"/>
<polygon fill="#009688" stroke="#009688" stroke-width="1.5" points="625.38,-56.69 621.88,-46.69 618.38,-56.69 625.38,-56.69"/>
</g>
<!-- skill_plugin -->
<g id="node5" class="node">
<title>skill_plugin</title>
<path fill="#3f51b5" stroke="black" d="M915.88,-44C915.88,-44 759.88,-44 759.88,-44 753.88,-44 747.88,-38 747.88,-32 747.88,-32 747.88,-12 747.88,-12 747.88,-6 753.88,0 759.88,0 759.88,0 915.88,0 915.88,0 921.88,0 927.88,-6 927.88,-12 927.88,-12 927.88,-32 927.88,-32 927.88,-38 921.88,-44 915.88,-44"/>
<text xml:space="preserve" text-anchor="middle" x="837.88" y="-30.5" font-family="Arial" font-size="10.00" fill="white">Workspace Skills</text>
<text xml:space="preserve" text-anchor="middle" x="837.88" y="-18.5" font-family="Arial" font-size="10.00" fill="white">(ClawHub Registry +</text>
<text xml:space="preserve" text-anchor="middle" x="837.88" y="-6.5" font-family="Arial" font-size="10.00" fill="white">Custom Skills)</text>
</g>
<!-- sdk&#45;&gt;skill_plugin -->
<g id="edge4" class="edge">
<title>sdk&#45;&gt;skill_plugin</title>
<path fill="none" stroke="#3f51b5" stroke-width="1.5" d="M730.88,-112C744.56,-112 753.88,-112 753.88,-112 753.88,-112 753.88,-56.52 753.88,-56.52"/>
<polygon fill="#3f51b5" stroke="#3f51b5" stroke-width="1.5" points="757.38,-56.52 753.88,-46.52 750.38,-56.52 757.38,-56.52"/>
</g>
<!-- manifest -->
<g id="node6" class="node">
<title>manifest</title>
<path fill="#424242" stroke="black" stroke-width="1.5" d="M446,-242C446,-242 355.75,-242 355.75,-242 349.75,-242 343.75,-236 343.75,-230 343.75,-230 343.75,-210 343.75,-210 343.75,-204 349.75,-198 355.75,-198 355.75,-198 446,-198 446,-198 452,-198 458,-204 458,-210 458,-210 458,-230 458,-230 458,-236 452,-242 446,-242"/>
<text xml:space="preserve" text-anchor="middle" x="400.88" y="-228.5" font-family="Arial" font-size="10.00" fill="#00bcd4">Manifest System</text>
<text xml:space="preserve" text-anchor="middle" x="400.88" y="-216.5" font-family="Arial" font-size="10.00" fill="#00bcd4">(openclaw.plugin.json)</text>
<text xml:space="preserve" text-anchor="middle" x="400.88" y="-204.5" font-family="Arial" font-size="10.00" fill="#00bcd4">Discovery + Validation</text>
</g>
<!-- manifest&#45;&gt;sdk -->
<g id="edge5" class="edge">
<title>manifest&#45;&gt;sdk</title>
<path fill="none" stroke="#00bcd4" stroke-width="1.2" d="M400.88,-197.49C400.88,-169.96 400.88,-127 400.88,-127 400.88,-127 500.85,-127 500.85,-127"/>
<polygon fill="#00bcd4" stroke="#00bcd4" stroke-width="1.2" points="500.85,-130.5 510.85,-127 500.85,-123.5 500.85,-130.5"/>
</g>
<!-- runtime -->
<g id="node7" class="node">
<title>runtime</title>
<path fill="#424242" stroke="black" stroke-width="1.5" d="M587.88,-242C587.88,-242 505.88,-242 505.88,-242 499.88,-242 493.88,-236 493.88,-230 493.88,-230 493.88,-210 493.88,-210 493.88,-204 499.88,-198 505.88,-198 505.88,-198 587.88,-198 587.88,-198 593.88,-198 599.88,-204 599.88,-210 599.88,-210 599.88,-230 599.88,-230 599.88,-236 593.88,-242 587.88,-242"/>
<text xml:space="preserve" text-anchor="middle" x="546.88" y="-228.5" font-family="Arial" font-size="10.00" fill="#e91e63">Runtime Engine</text>
<text xml:space="preserve" text-anchor="middle" x="546.88" y="-216.5" font-family="Arial" font-size="10.00" fill="#e91e63">(Loader + Registry +</text>
<text xml:space="preserve" text-anchor="middle" x="546.88" y="-204.5" font-family="Arial" font-size="10.00" fill="#e91e63">Hot Reload)</text>
</g>
<!-- runtime&#45;&gt;sdk -->
<g id="edge6" class="edge">
<title>runtime&#45;&gt;sdk</title>
<path fill="none" stroke="#e91e63" stroke-width="1.2" d="M556.88,-197.54C556.88,-197.54 556.88,-152.84 556.88,-152.84"/>
<polygon fill="#e91e63" stroke="#e91e63" stroke-width="1.2" points="560.38,-152.84 556.88,-142.84 553.38,-152.84 560.38,-152.84"/>
</g>
<!-- security -->
<g id="node8" class="node">
<title>security</title>
<path fill="#795548" stroke="black" d="M747.88,-242C747.88,-242 647.88,-242 647.88,-242 641.88,-242 635.88,-236 635.88,-230 635.88,-230 635.88,-210 635.88,-210 635.88,-204 641.88,-198 647.88,-198 647.88,-198 747.88,-198 747.88,-198 753.88,-198 759.88,-204 759.88,-210 759.88,-210 759.88,-230 759.88,-230 759.88,-236 753.88,-242 747.88,-242"/>
<text xml:space="preserve" text-anchor="middle" x="697.88" y="-228.5" font-family="Arial" font-size="10.00" fill="white">Security Boundary</text>
<text xml:space="preserve" text-anchor="middle" x="697.88" y="-216.5" font-family="Arial" font-size="10.00" fill="white">(Sandbox + DM Policy +</text>
<text xml:space="preserve" text-anchor="middle" x="697.88" y="-204.5" font-family="Arial" font-size="10.00" fill="white">Pairing + Allowlists)</text>
</g>
<!-- security&#45;&gt;sdk -->
<g id="edge7" class="edge">
<title>security&#45;&gt;sdk</title>
<path fill="none" stroke="#795548" stroke-width="1.2" d="M682.88,-197.54C682.88,-197.54 682.88,-152.84 682.88,-152.84"/>
<polygon fill="#795548" stroke="#795548" stroke-width="1.2" points="686.38,-152.84 682.88,-142.84 679.38,-152.84 686.38,-152.84"/>
</g>
<!-- onboarding -->
<g id="node9" class="node">
<title>onboarding</title>
<path fill="#424242" stroke="black" stroke-width="1.5" d="M885.62,-242C885.62,-242 808.12,-242 808.12,-242 802.12,-242 796.12,-236 796.12,-230 796.12,-230 796.12,-210 796.12,-210 796.12,-204 802.12,-198 808.12,-198 808.12,-198 885.62,-198 885.62,-198 891.62,-198 897.62,-204 897.62,-210 897.62,-210 897.62,-230 897.62,-230 897.62,-236 891.62,-242 885.62,-242"/>
<text xml:space="preserve" text-anchor="middle" x="846.88" y="-228.5" font-family="Arial" font-size="10.00" fill="#4caf50">Onboarding Wizard</text>
<text xml:space="preserve" text-anchor="middle" x="846.88" y="-216.5" font-family="Arial" font-size="10.00" fill="#4caf50">(openclaw onboard)</text>
<text xml:space="preserve" text-anchor="middle" x="846.88" y="-204.5" font-family="Arial" font-size="10.00" fill="#4caf50">Step&#45;by&#45;Step Setup</text>
</g>
<!-- onboarding&#45;&gt;sdk -->
<g id="edge8" class="edge">
<title>onboarding&#45;&gt;sdk</title>
<path fill="none" stroke="#4caf50" stroke-dasharray="5,2" d="M846.88,-197.54C846.88,-171.18 846.88,-131 846.88,-131 846.88,-131 742.59,-131 742.59,-131"/>
<polygon fill="#4caf50" stroke="#4caf50" points="742.59,-127.5 732.59,-131 742.59,-134.5 742.59,-127.5"/>
</g>
<!-- doctor -->
<g id="node10" class="node">
<title>doctor</title>
<path fill="#424242" stroke="black" stroke-width="1.5" d="M1030,-242C1030,-242 945.75,-242 945.75,-242 939.75,-242 933.75,-236 933.75,-230 933.75,-230 933.75,-210 933.75,-210 933.75,-204 939.75,-198 945.75,-198 945.75,-198 1030,-198 1030,-198 1036,-198 1042,-204 1042,-210 1042,-210 1042,-230 1042,-230 1042,-236 1036,-242 1030,-242"/>
<text xml:space="preserve" text-anchor="middle" x="987.88" y="-228.5" font-family="Arial" font-size="10.00" fill="#ff9800">Doctor CLI</text>
<text xml:space="preserve" text-anchor="middle" x="987.88" y="-216.5" font-family="Arial" font-size="10.00" fill="#ff9800">(openclaw doctor)</text>
<text xml:space="preserve" text-anchor="middle" x="987.88" y="-204.5" font-family="Arial" font-size="10.00" fill="#ff9800">Diagnostics + Repair</text>
</g>
<!-- doctor&#45;&gt;sdk -->
<g id="edge9" class="edge">
<title>doctor&#45;&gt;sdk</title>
<path fill="none" stroke="#ff9800" stroke-dasharray="5,2" d="M987.88,-197.54C987.88,-168.33 987.88,-121 987.88,-121 987.88,-121 742.21,-121 742.21,-121"/>
<polygon fill="#ff9800" stroke="#ff9800" points="742.21,-117.5 732.21,-121 742.21,-124.5 742.21,-117.5"/>
</g>
</g>
</svg>
