<?xml version="1.0" encoding="UTF-8" standalone="no"?>
<!DOCTYPE svg PUBLIC "-//W3C//DTD SVG 1.1//EN"
 "http://www.w3.org/Graphics/SVG/1.1/DTD/svg11.dtd">
<!-- Generated by graphviz version 14.1.4 (20260321.0153)
 -->
<!-- Title: regex_roadmap Pages: 1 -->
<svg width="1826pt" height="633pt"
 viewBox="0.00 0.00 1826.00 633.00" xmlns="http://www.w3.org/2000/svg" xmlns:xlink="http://www.w3.org/1999/xlink">
<style>
text { paint-order: stroke; stroke: #ffffff; stroke-width: 3px; stroke-linejoin: round; fill: #1a1a2e; }
</style>
<g id="graph0" class="graph" transform="scale(1 1) rotate(0) translate(4 628.5)">
<title>regex_roadmap</title>
<polygon fill="white" stroke="none" points="-4,4 -4,-628.5 1822.38,-628.5 1822.38,4 -4,4"/>
<text xml:space="preserve" text-anchor="middle" x="909.19" y="-7.2" font-family="Times New Roman,serif" font-size="14.00">Regex Learning Roadmap &#45; 5 Stages</text>
<!-- title -->
<g id="node1" class="node">
<title>title</title>
<path fill="#0d47a1" stroke="black" d="M378.38,-624.5C378.38,-624.5 219.12,-624.5 219.12,-624.5 213.12,-624.5 207.12,-618.5 207.12,-612.5 207.12,-612.5 207.12,-600.5 207.12,-600.5 207.12,-594.5 213.12,-588.5 219.12,-588.5 219.12,-588.5 378.38,-588.5 378.38,-588.5 384.38,-588.5 390.38,-594.5 390.38,-600.5 390.38,-600.5 390.38,-612.5 390.38,-612.5 390.38,-618.5 384.38,-624.5 378.38,-624.5"/>
<text xml:space="preserve" text-anchor="middle" x="298.75" y="-601.08" font-family="Arial Bold" font-size="14.00" fill="#ffffff">Regex Learning Roadmap</text>
</g>
<!-- s1 -->
<g id="node2" class="node">
<title>s1</title>
<path fill="#1565c0" stroke="black" d="M364.12,-530.5C364.12,-530.5 233.38,-530.5 233.38,-530.5 227.38,-530.5 221.38,-524.5 221.38,-518.5 221.38,-518.5 221.38,-506.5 221.38,-506.5 221.38,-500.5 227.38,-494.5 233.38,-494.5 233.38,-494.5 364.12,-494.5 364.12,-494.5 370.12,-494.5 376.12,-500.5 376.12,-506.5 376.12,-506.5 376.12,-518.5 376.12,-518.5 376.12,-524.5 370.12,-530.5 364.12,-530.5"/>
<text xml:space="preserve" text-anchor="middle" x="298.75" y="-508.8" font-family="Arial Bold" font-size="11.00" fill="#ffffff">Stage 1: Literals + Classes</text>
</g>
<!-- title&#45;&gt;s1 -->
<g id="edge1" class="edge">
<title>title&#45;&gt;s1</title>
<path fill="none" stroke="#2e7d32" stroke-width="2" d="M298.75,-588.38C298.75,-588.38 298.75,-543.92 298.75,-543.92"/>
<polygon fill="#2e7d32" stroke="#2e7d32" stroke-width="2" points="302.25,-543.92 298.75,-533.92 295.25,-543.92 302.25,-543.92"/>
</g>
<!-- s1_0 -->
<g id="node3" class="node">
<title>s1_0</title>
<path fill="#bbdefb" stroke="black" d="M95.5,-436.5C95.5,-436.5 12,-436.5 12,-436.5 6,-436.5 0,-430.5 0,-424.5 0,-424.5 0,-412.5 0,-412.5 0,-406.5 6,-400.5 12,-400.5 12,-400.5 95.5,-400.5 95.5,-400.5 101.5,-400.5 107.5,-406.5 107.5,-412.5 107.5,-412.5 107.5,-424.5 107.5,-424.5 107.5,-430.5 101.5,-436.5 95.5,-436.5"/>
<text xml:space="preserve" text-anchor="middle" x="53.75" y="-415" font-family="Arial" font-size="10.00" fill="#1a1a2e">Literals (exact chars)</text>
</g>
<!-- s1&#45;&gt;s1_0 -->
<g id="edge2" class="edge">
<title>s1&#45;&gt;s1_0</title>
<path fill="none" stroke="#2e7d32" stroke-width="1.5" d="M220.89,-512.5C149.15,-512.5 53.75,-512.5 53.75,-512.5 53.75,-512.5 53.75,-448.89 53.75,-448.89"/>
<polygon fill="#2e7d32" stroke="#2e7d32" stroke-width="1.5" points="57.25,-448.89 53.75,-438.89 50.25,-448.89 57.25,-448.89"/>
</g>
<!-- s1_1 -->
<g id="node4" class="node">
<title>s1_1</title>
<path fill="#bbdefb" stroke="black" d="M191.5,-436.5C191.5,-436.5 156,-436.5 156,-436.5 150,-436.5 144,-430.5 144,-424.5 144,-424.5 144,-412.5 144,-412.5 144,-406.5 150,-400.5 156,-400.5 156,-400.5 191.5,-400.5 191.5,-400.5 197.5,-400.5 203.5,-406.5 203.5,-412.5 203.5,-412.5 203.5,-424.5 203.5,-424.5 203.5,-430.5 197.5,-436.5 191.5,-436.5"/>
<text xml:space="preserve" text-anchor="middle" x="173.75" y="-415" font-family="Arial" font-size="10.00" fill="#1a1a2e">. any char</text>
</g>
<!-- s1&#45;&gt;s1_1 -->
<g id="edge3" class="edge">
<title>s1&#45;&gt;s1_1</title>
<path fill="none" stroke="#2e7d32" stroke-width="1.5" d="M230.56,-494.38C230.56,-467.06 230.56,-418.5 230.56,-418.5 230.56,-418.5 216.09,-418.5 216.09,-418.5"/>
<polygon fill="#2e7d32" stroke="#2e7d32" stroke-width="1.5" points="216.09,-415 206.09,-418.5 216.09,-422 216.09,-415"/>
</g>
<!-- s1_2 -->
<g id="node5" class="node">
<title>s1_2</title>
<path fill="#bbdefb" stroke="black" d="M345.75,-436.5C345.75,-436.5 251.75,-436.5 251.75,-436.5 245.75,-436.5 239.75,-430.5 239.75,-424.5 239.75,-424.5 239.75,-412.5 239.75,-412.5 239.75,-406.5 245.75,-400.5 251.75,-400.5 251.75,-400.5 345.75,-400.5 345.75,-400.5 351.75,-400.5 357.75,-406.5 357.75,-412.5 357.75,-412.5 357.75,-424.5 357.75,-424.5 357.75,-430.5 351.75,-436.5 345.75,-436.5"/>
<text xml:space="preserve" text-anchor="middle" x="298.75" y="-415" font-family="Arial" font-size="10.00" fill="#1a1a2e">Character classes [a&#45;z]</text>
</g>
<!-- s1&#45;&gt;s1_2 -->
<g id="edge4" class="edge">
<title>s1&#45;&gt;s1_2</title>
<path fill="none" stroke="#2e7d32" stroke-width="1.5" d="M298.75,-494.38C298.75,-494.38 298.75,-449.16 298.75,-449.16"/>
<polygon fill="#2e7d32" stroke="#2e7d32" stroke-width="1.5" points="302.25,-449.16 298.75,-439.16 295.25,-449.16 302.25,-449.16"/>
</g>
<!-- s1_3 -->
<g id="node6" class="node">
<title>s1_3</title>
<path fill="#bbdefb" stroke="black" d="M467.62,-436.5C467.62,-436.5 405.88,-436.5 405.88,-436.5 399.88,-436.5 393.88,-430.5 393.88,-424.5 393.88,-424.5 393.88,-412.5 393.88,-412.5 393.88,-406.5 399.88,-400.5 405.88,-400.5 405.88,-400.5 467.62,-400.5 467.62,-400.5 473.62,-400.5 479.62,-406.5 479.62,-412.5 479.62,-412.5 479.62,-424.5 479.62,-424.5 479.62,-430.5 473.62,-436.5 467.62,-436.5"/>
<text xml:space="preserve" text-anchor="middle" x="436.75" y="-415" font-family="Arial" font-size="10.00" fill="#1a1a2e">Anchors ^ $ b B</text>
</g>
<!-- s1&#45;&gt;s1_3 -->
<g id="edge5" class="edge">
<title>s1&#45;&gt;s1_3</title>
<path fill="none" stroke="#2e7d32" stroke-width="1.5" d="M370,-494.38C370,-467.06 370,-418.5 370,-418.5 370,-418.5 381.45,-418.5 381.45,-418.5"/>
<polygon fill="#2e7d32" stroke="#2e7d32" stroke-width="1.5" points="381.45,-422 391.45,-418.5 381.45,-415 381.45,-422"/>
</g>
<!-- s2 -->
<g id="node7" class="node">
<title>s2</title>
<path fill="#1565c0" stroke="black" d="M675.38,-436.5C675.38,-436.5 528.12,-436.5 528.12,-436.5 522.12,-436.5 516.12,-430.5 516.12,-424.5 516.12,-424.5 516.12,-412.5 516.12,-412.5 516.12,-406.5 522.12,-400.5 528.12,-400.5 528.12,-400.5 675.38,-400.5 675.38,-400.5 681.38,-400.5 687.38,-406.5 687.38,-412.5 687.38,-412.5 687.38,-424.5 687.38,-424.5 687.38,-430.5 681.38,-436.5 675.38,-436.5"/>
<text xml:space="preserve" text-anchor="middle" x="601.75" y="-414.8" font-family="Arial Bold" font-size="11.00" fill="#ffffff">Stage 2: Quantifiers + Groups</text>
</g>
<!-- s1&#45;&gt;s2 -->
<g id="edge6" class="edge">
<title>s1&#45;&gt;s2</title>
<path fill="none" stroke="#00838f" stroke-width="2" d="M376.39,-512.5C466.16,-512.5 601.75,-512.5 601.75,-512.5 601.75,-512.5 601.75,-449.65 601.75,-449.65"/>
<polygon fill="#00838f" stroke="#00838f" stroke-width="2" points="605.25,-449.65 601.75,-439.65 598.25,-449.65 605.25,-449.65"/>
</g>
<!-- s2_0 -->
<g id="node8" class="node">
<title>s2_0</title>
<path fill="#bbdefb" stroke="black" d="M368,-342.5C368,-342.5 329.5,-342.5 329.5,-342.5 323.5,-342.5 317.5,-336.5 317.5,-330.5 317.5,-330.5 317.5,-318.5 317.5,-318.5 317.5,-312.5 323.5,-306.5 329.5,-306.5 329.5,-306.5 368,-306.5 368,-306.5 374,-306.5 380,-312.5 380,-318.5 380,-318.5 380,-330.5 380,-330.5 380,-336.5 374,-342.5 368,-342.5"/>
<text xml:space="preserve" text-anchor="middle" x="348.75" y="-321" font-family="Arial" font-size="10.00" fill="#1a1a2e">* + ? {n,m}</text>
</g>
<!-- s2&#45;&gt;s2_0 -->
<g id="edge7" class="edge">
<title>s2&#45;&gt;s2_0</title>
<path fill="none" stroke="#00838f" stroke-width="1.5" d="M528.12,-400.19C528.12,-387 528.12,-371.5 528.12,-371.5 528.12,-371.5 363.88,-371.5 363.88,-371.5 363.88,-371.5 363.88,-355.08 363.88,-355.08"/>
<polygon fill="#00838f" stroke="#00838f" stroke-width="1.5" points="367.38,-355.08 363.88,-345.08 360.38,-355.08 367.38,-355.08"/>
</g>
<!-- s2_1 -->
<g id="node9" class="node">
<title>s2_1</title>
<path fill="#bbdefb" stroke="black" d="M503.75,-342.5C503.75,-342.5 427.75,-342.5 427.75,-342.5 421.75,-342.5 415.75,-336.5 415.75,-330.5 415.75,-330.5 415.75,-318.5 415.75,-318.5 415.75,-312.5 421.75,-306.5 427.75,-306.5 427.75,-306.5 503.75,-306.5 503.75,-306.5 509.75,-306.5 515.75,-312.5 515.75,-318.5 515.75,-318.5 515.75,-330.5 515.75,-330.5 515.75,-336.5 509.75,-342.5 503.75,-342.5"/>
<text xml:space="preserve" text-anchor="middle" x="465.75" y="-321" font-family="Arial" font-size="10.00" fill="#1a1a2e">Greedy vs lazy (*?)</text>
</g>
<!-- s2&#45;&gt;s2_1 -->
<g id="edge8" class="edge">
<title>s2&#45;&gt;s2_1</title>
<path fill="none" stroke="#00838f" stroke-width="1.5" d="M540.12,-400.38C540.12,-373.06 540.12,-324.5 540.12,-324.5 540.12,-324.5 528.45,-324.5 528.45,-324.5"/>
<polygon fill="#00838f" stroke="#00838f" stroke-width="1.5" points="528.45,-321 518.45,-324.5 528.45,-328 528.45,-321"/>
</g>
<!-- s2_2 -->
<g id="node10" class="node">
<title>s2_2</title>
<path fill="#bbdefb" stroke="black" d="M639.38,-342.5C639.38,-342.5 564.12,-342.5 564.12,-342.5 558.12,-342.5 552.12,-336.5 552.12,-330.5 552.12,-330.5 552.12,-318.5 552.12,-318.5 552.12,-312.5 558.12,-306.5 564.12,-306.5 564.12,-306.5 639.38,-306.5 639.38,-306.5 645.38,-306.5 651.38,-312.5 651.38,-318.5 651.38,-318.5 651.38,-330.5 651.38,-330.5 651.38,-336.5 645.38,-342.5 639.38,-342.5"/>
<text xml:space="preserve" text-anchor="middle" x="601.75" y="-321" font-family="Arial" font-size="10.00" fill="#1a1a2e">Capturing groups ()</text>
</g>
<!-- s2&#45;&gt;s2_2 -->
<g id="edge9" class="edge">
<title>s2&#45;&gt;s2_2</title>
<path fill="none" stroke="#00838f" stroke-width="1.5" d="M601.75,-400.38C601.75,-400.38 601.75,-355.16 601.75,-355.16"/>
<polygon fill="#00838f" stroke="#00838f" stroke-width="1.5" points="605.25,-355.16 601.75,-345.16 598.25,-355.16 605.25,-355.16"/>
</g>
<!-- s2_3 -->
<g id="node11" class="node">
<title>s2_3</title>
<path fill="#bbdefb" stroke="black" d="M743.62,-342.5C743.62,-342.5 699.88,-342.5 699.88,-342.5 693.88,-342.5 687.88,-336.5 687.88,-330.5 687.88,-330.5 687.88,-318.5 687.88,-318.5 687.88,-312.5 693.88,-306.5 699.88,-306.5 699.88,-306.5 743.62,-306.5 743.62,-306.5 749.62,-306.5 755.62,-312.5 755.62,-318.5 755.62,-318.5 755.62,-330.5 755.62,-330.5 755.62,-336.5 749.62,-342.5 743.62,-342.5"/>
<text xml:space="preserve" text-anchor="middle" x="721.75" y="-321" font-family="Arial" font-size="10.00" fill="#1a1a2e">Alternation |</text>
</g>
<!-- s2&#45;&gt;s2_3 -->
<g id="edge10" class="edge">
<title>s2&#45;&gt;s2_3</title>
<path fill="none" stroke="#00838f" stroke-width="1.5" d="M675.38,-400.38C675.38,-373.06 675.38,-324.5 675.38,-324.5 675.38,-324.5 676.59,-324.5 676.59,-324.5"/>
<polygon fill="#00838f" stroke="#00838f" stroke-width="1.5" points="675.29,-328 685.29,-324.5 675.29,-321 675.29,-328"/>
</g>
<!-- s3 -->
<g id="node12" class="node">
<title>s3</title>
<path fill="#1565c0" stroke="black" d="M963.75,-342.5C963.75,-342.5 803.75,-342.5 803.75,-342.5 797.75,-342.5 791.75,-336.5 791.75,-330.5 791.75,-330.5 791.75,-318.5 791.75,-318.5 791.75,-312.5 797.75,-306.5 803.75,-306.5 803.75,-306.5 963.75,-306.5 963.75,-306.5 969.75,-306.5 975.75,-312.5 975.75,-318.5 975.75,-318.5 975.75,-330.5 975.75,-330.5 975.75,-336.5 969.75,-342.5 963.75,-342.5"/>
<text xml:space="preserve" text-anchor="middle" x="883.75" y="-320.8" font-family="Arial Bold" font-size="11.00" fill="#ffffff">Stage 3: Shorthand + Metachars</text>
</g>
<!-- s2&#45;&gt;s3 -->
<g id="edge11" class="edge">
<title>s2&#45;&gt;s3</title>
<path fill="none" stroke="#ef6c00" stroke-width="2" d="M687.51,-418.5C770.47,-418.5 883.75,-418.5 883.75,-418.5 883.75,-418.5 883.75,-355.65 883.75,-355.65"/>
<polygon fill="#ef6c00" stroke="#ef6c00" stroke-width="2" points="887.25,-355.65 883.75,-345.65 880.25,-355.65 887.25,-355.65"/>
</g>
<!-- s3_0 -->
<g id="node13" class="node">
<title>s3_0</title>
<path fill="#bbdefb" stroke="black" d="M678.62,-248.5C678.62,-248.5 610.88,-248.5 610.88,-248.5 604.88,-248.5 598.88,-242.5 598.88,-236.5 598.88,-236.5 598.88,-224.5 598.88,-224.5 598.88,-218.5 604.88,-212.5 610.88,-212.5 610.88,-212.5 678.62,-212.5 678.62,-212.5 684.62,-212.5 690.62,-218.5 690.62,-224.5 690.62,-224.5 690.62,-236.5 690.62,-236.5 690.62,-242.5 684.62,-248.5 678.62,-248.5"/>
<text xml:space="preserve" text-anchor="middle" x="644.75" y="-227" font-family="Arial" font-size="10.00" fill="#1a1a2e">d w s and D W S</text>
</g>
<!-- s3&#45;&gt;s3_0 -->
<g id="edge12" class="edge">
<title>s3&#45;&gt;s3_0</title>
<path fill="none" stroke="#ef6c00" stroke-width="1.5" d="M794.83,-306.19C794.83,-293 794.83,-277.5 794.83,-277.5 794.83,-277.5 663.38,-277.5 663.38,-277.5 663.38,-277.5 663.38,-261.08 663.38,-261.08"/>
<polygon fill="#ef6c00" stroke="#ef6c00" stroke-width="1.5" points="666.88,-261.08 663.38,-251.08 659.88,-261.08 666.88,-261.08"/>
</g>
<!-- s3_1 -->
<g id="node14" class="node">
<title>s3_1</title>
<path fill="#bbdefb" stroke="black" d="M789,-248.5C789,-248.5 738.5,-248.5 738.5,-248.5 732.5,-248.5 726.5,-242.5 726.5,-236.5 726.5,-236.5 726.5,-224.5 726.5,-224.5 726.5,-218.5 732.5,-212.5 738.5,-212.5 738.5,-212.5 789,-212.5 789,-212.5 795,-212.5 801,-218.5 801,-224.5 801,-224.5 801,-236.5 801,-236.5 801,-242.5 795,-248.5 789,-248.5"/>
<text xml:space="preserve" text-anchor="middle" x="763.75" y="-227" font-family="Arial" font-size="10.00" fill="#1a1a2e">Escaping . ( \</text>
</g>
<!-- s3&#45;&gt;s3_1 -->
<g id="edge13" class="edge">
<title>s3&#45;&gt;s3_1</title>
<path fill="none" stroke="#ef6c00" stroke-width="1.5" d="M797.92,-306.38C797.92,-306.38 797.92,-261.16 797.92,-261.16"/>
<polygon fill="#ef6c00" stroke="#ef6c00" stroke-width="1.5" points="801.42,-261.16 797.92,-251.16 794.42,-261.16 801.42,-261.16"/>
</g>
<!-- s3_2 -->
<g id="node15" class="node">
<title>s3_2</title>
<path fill="#bbdefb" stroke="black" d="M918,-248.5C918,-248.5 849.5,-248.5 849.5,-248.5 843.5,-248.5 837.5,-242.5 837.5,-236.5 837.5,-236.5 837.5,-224.5 837.5,-224.5 837.5,-218.5 843.5,-212.5 849.5,-212.5 849.5,-212.5 918,-212.5 918,-212.5 924,-212.5 930,-218.5 930,-224.5 930,-224.5 930,-236.5 930,-236.5 930,-242.5 924,-248.5 918,-248.5"/>
<text xml:space="preserve" text-anchor="middle" x="883.75" y="-227" font-family="Arial" font-size="10.00" fill="#1a1a2e">Backreferences 1</text>
</g>
<!-- s3&#45;&gt;s3_2 -->
<g id="edge14" class="edge">
<title>s3&#45;&gt;s3_2</title>
<path fill="none" stroke="#ef6c00" stroke-width="1.5" d="M883.75,-306.38C883.75,-306.38 883.75,-261.16 883.75,-261.16"/>
<polygon fill="#ef6c00" stroke="#ef6c00" stroke-width="1.5" points="887.25,-261.16 883.75,-251.16 880.25,-261.16 887.25,-261.16"/>
</g>
<!-- s3_3 -->
<g id="node16" class="node">
<title>s3_3</title>
<path fill="#bbdefb" stroke="black" d="M1091.12,-248.5C1091.12,-248.5 978.38,-248.5 978.38,-248.5 972.38,-248.5 966.38,-242.5 966.38,-236.5 966.38,-236.5 966.38,-224.5 966.38,-224.5 966.38,-218.5 972.38,-212.5 978.38,-212.5 978.38,-212.5 1091.12,-212.5 1091.12,-212.5 1097.12,-212.5 1103.12,-218.5 1103.12,-224.5 1103.12,-224.5 1103.12,-236.5 1103.12,-236.5 1103.12,-242.5 1097.12,-248.5 1091.12,-248.5"/>
<text xml:space="preserve" text-anchor="middle" x="1034.75" y="-227" font-family="Arial" font-size="10.00" fill="#1a1a2e">Named groups (?P&lt;name&gt;)</text>
</g>
<!-- s3&#45;&gt;s3_3 -->
<g id="edge15" class="edge">
<title>s3&#45;&gt;s3_3</title>
<path fill="none" stroke="#ef6c00" stroke-width="1.5" d="M971.06,-306.38C971.06,-306.38 971.06,-261.16 971.06,-261.16"/>
<polygon fill="#ef6c00" stroke="#ef6c00" stroke-width="1.5" points="974.56,-261.16 971.06,-251.16 967.56,-261.16 974.56,-261.16"/>
</g>
<!-- s4 -->
<g id="node17" class="node">
<title>s4</title>
<path fill="#1565c0" stroke="black" d="M1300.12,-248.5C1300.12,-248.5 1151.38,-248.5 1151.38,-248.5 1145.38,-248.5 1139.38,-242.5 1139.38,-236.5 1139.38,-236.5 1139.38,-224.5 1139.38,-224.5 1139.38,-218.5 1145.38,-212.5 1151.38,-212.5 1151.38,-212.5 1300.12,-212.5 1300.12,-212.5 1306.12,-212.5 1312.12,-218.5 1312.12,-224.5 1312.12,-224.5 1312.12,-236.5 1312.12,-236.5 1312.12,-242.5 1306.12,-248.5 1300.12,-248.5"/>
<text xml:space="preserve" text-anchor="middle" x="1225.75" y="-226.8" font-family="Arial Bold" font-size="11.00" fill="#ffffff">Stage 4: Lookarounds + Flags</text>
</g>
<!-- s3&#45;&gt;s4 -->
<g id="edge16" class="edge">
<title>s3&#45;&gt;s4</title>
<path fill="none" stroke="#6a1b9a" stroke-width="2" d="M975.85,-324.5C1077.14,-324.5 1225.75,-324.5 1225.75,-324.5 1225.75,-324.5 1225.75,-261.65 1225.75,-261.65"/>
<polygon fill="#6a1b9a" stroke="#6a1b9a" stroke-width="2" points="1229.25,-261.65 1225.75,-251.65 1222.25,-261.65 1229.25,-261.65"/>
</g>
<!-- s4_0 -->
<g id="node18" class="node">
<title>s4_0</title>
<path fill="#bbdefb" stroke="black" d="M969.62,-154.5C969.62,-154.5 877.88,-154.5 877.88,-154.5 871.88,-154.5 865.88,-148.5 865.88,-142.5 865.88,-142.5 865.88,-130.5 865.88,-130.5 865.88,-124.5 871.88,-118.5 877.88,-118.5 877.88,-118.5 969.62,-118.5 969.62,-118.5 975.62,-118.5 981.62,-124.5 981.62,-130.5 981.62,-130.5 981.62,-142.5 981.62,-142.5 981.62,-148.5 975.62,-154.5 969.62,-154.5"/>
<text xml:space="preserve" text-anchor="middle" x="923.75" y="-133" font-family="Arial" font-size="10.00" fill="#1a1a2e">(?=...) (?!...) lookahead</text>
</g>
<!-- s4&#45;&gt;s4_0 -->
<g id="edge17" class="edge">
<title>s4&#45;&gt;s4_0</title>
<path fill="none" stroke="#6a1b9a" stroke-width="1.5" d="M1142.17,-212.19C1142.17,-199 1142.17,-183.5 1142.17,-183.5 1142.17,-183.5 974,-183.5 974,-183.5 974,-183.5 974,-167.08 974,-167.08"/>
<polygon fill="#6a1b9a" stroke="#6a1b9a" stroke-width="1.5" points="977.5,-167.08 974,-157.08 970.5,-167.08 977.5,-167.08"/>
</g>
<!-- s4_1 -->
<g id="node19" class="node">
<title>s4_1</title>
<path fill="#bbdefb" stroke="black" d="M1135.75,-154.5C1135.75,-154.5 1029.75,-154.5 1029.75,-154.5 1023.75,-154.5 1017.75,-148.5 1017.75,-142.5 1017.75,-142.5 1017.75,-130.5 1017.75,-130.5 1017.75,-124.5 1023.75,-118.5 1029.75,-118.5 1029.75,-118.5 1135.75,-118.5 1135.75,-118.5 1141.75,-118.5 1147.75,-124.5 1147.75,-130.5 1147.75,-130.5 1147.75,-142.5 1147.75,-142.5 1147.75,-148.5 1141.75,-154.5 1135.75,-154.5"/>
<text xml:space="preserve" text-anchor="middle" x="1082.75" y="-133" font-family="Arial" font-size="10.00" fill="#1a1a2e">(?&lt;=...) (?&lt;!...) lookbehind</text>
</g>
<!-- s4&#45;&gt;s4_1 -->
<g id="edge18" class="edge">
<title>s4&#45;&gt;s4_1</title>
<path fill="none" stroke="#6a1b9a" stroke-width="1.5" d="M1144.96,-212.38C1144.96,-212.38 1144.96,-167.16 1144.96,-167.16"/>
<polygon fill="#6a1b9a" stroke="#6a1b9a" stroke-width="1.5" points="1148.46,-167.16 1144.96,-157.16 1141.46,-167.16 1148.46,-167.16"/>
</g>
<!-- s4_2 -->
<g id="node20" class="node">
<title>s4_2</title>
<path fill="#bbdefb" stroke="black" d="M1255.88,-154.5C1255.88,-154.5 1195.62,-154.5 1195.62,-154.5 1189.62,-154.5 1183.62,-148.5 1183.62,-142.5 1183.62,-142.5 1183.62,-130.5 1183.62,-130.5 1183.62,-124.5 1189.62,-118.5 1195.62,-118.5 1195.62,-118.5 1255.88,-118.5 1255.88,-118.5 1261.88,-118.5 1267.88,-124.5 1267.88,-130.5 1267.88,-130.5 1267.88,-142.5 1267.88,-142.5 1267.88,-148.5 1261.88,-154.5 1255.88,-154.5"/>
<text xml:space="preserve" text-anchor="middle" x="1225.75" y="-133" font-family="Arial" font-size="10.00" fill="#1a1a2e">Flags: g i m s x</text>
</g>
<!-- s4&#45;&gt;s4_2 -->
<g id="edge19" class="edge">
<title>s4&#45;&gt;s4_2</title>
<path fill="none" stroke="#6a1b9a" stroke-width="1.5" d="M1225.75,-212.38C1225.75,-212.38 1225.75,-167.16 1225.75,-167.16"/>
<polygon fill="#6a1b9a" stroke="#6a1b9a" stroke-width="1.5" points="1229.25,-167.16 1225.75,-157.16 1222.25,-167.16 1229.25,-167.16"/>
</g>
<!-- s4_3 -->
<g id="node21" class="node">
<title>s4_3</title>
<path fill="#bbdefb" stroke="black" d="M1399.88,-154.5C1399.88,-154.5 1315.62,-154.5 1315.62,-154.5 1309.62,-154.5 1303.62,-148.5 1303.62,-142.5 1303.62,-142.5 1303.62,-130.5 1303.62,-130.5 1303.62,-124.5 1309.62,-118.5 1315.62,-118.5 1315.62,-118.5 1399.88,-118.5 1399.88,-118.5 1405.88,-118.5 1411.88,-124.5 1411.88,-130.5 1411.88,-130.5 1411.88,-142.5 1411.88,-142.5 1411.88,-148.5 1405.88,-154.5 1399.88,-154.5"/>
<text xml:space="preserve" text-anchor="middle" x="1357.75" y="-133" font-family="Arial" font-size="10.00" fill="#1a1a2e">Atomic groups (?&gt;...)</text>
</g>
<!-- s4&#45;&gt;s4_3 -->
<g id="edge20" class="edge">
<title>s4&#45;&gt;s4_3</title>
<path fill="none" stroke="#6a1b9a" stroke-width="1.5" d="M1307.88,-212.38C1307.88,-212.38 1307.88,-167.16 1307.88,-167.16"/>
<polygon fill="#6a1b9a" stroke="#6a1b9a" stroke-width="1.5" points="1311.38,-167.16 1307.88,-157.16 1304.38,-167.16 1311.38,-167.16"/>
</g>
<!-- s5 -->
<g id="node22" class="node">
<title>s5</title>
<path fill="#1565c0" stroke="black" d="M1589.38,-154.5C1589.38,-154.5 1460.12,-154.5 1460.12,-154.5 1454.12,-154.5 1448.12,-148.5 1448.12,-142.5 1448.12,-142.5 1448.12,-130.5 1448.12,-130.5 1448.12,-124.5 1454.12,-118.5 1460.12,-118.5 1460.12,-118.5 1589.38,-118.5 1589.38,-118.5 1595.38,-118.5 1601.38,-124.5 1601.38,-130.5 1601.38,-130.5 1601.38,-142.5 1601.38,-142.5 1601.38,-148.5 1595.38,-154.5 1589.38,-154.5"/>
<text xml:space="preserve" text-anchor="middle" x="1524.75" y="-132.8" font-family="Arial Bold" font-size="11.00" fill="#ffffff">Stage 5: Engines + Pitfalls</text>
</g>
<!-- s4&#45;&gt;s5 -->
<g id="edge21" class="edge">
<title>s4&#45;&gt;s5</title>
<path fill="none" stroke="#c62828" stroke-width="2" d="M1312.23,-230.5C1400.54,-230.5 1524.75,-230.5 1524.75,-230.5 1524.75,-230.5 1524.75,-167.65 1524.75,-167.65"/>
<polygon fill="#c62828" stroke="#c62828" stroke-width="2" points="1528.25,-167.65 1524.75,-157.65 1521.25,-167.65 1528.25,-167.65"/>
</g>
<!-- s5_0 -->
<g id="node23" class="node">
<title>s5_0</title>
<path fill="#bbdefb" stroke="black" d="M1340,-60.5C1340,-60.5 1265.5,-60.5 1265.5,-60.5 1259.5,-60.5 1253.5,-54.5 1253.5,-48.5 1253.5,-48.5 1253.5,-36.5 1253.5,-36.5 1253.5,-30.5 1259.5,-24.5 1265.5,-24.5 1265.5,-24.5 1340,-24.5 1340,-24.5 1346,-24.5 1352,-30.5 1352,-36.5 1352,-36.5 1352,-48.5 1352,-48.5 1352,-54.5 1346,-60.5 1340,-60.5"/>
<text xml:space="preserve" text-anchor="middle" x="1302.75" y="-39" font-family="Arial" font-size="10.00" fill="#1a1a2e">NFA vs DFA / RE2</text>
</g>
<!-- s5&#45;&gt;s5_0 -->
<g id="edge22" class="edge">
<title>s5&#45;&gt;s5_0</title>
<path fill="none" stroke="#c62828" stroke-width="1.5" d="M1472.04,-118.19C1472.04,-105 1472.04,-89.5 1472.04,-89.5 1472.04,-89.5 1327.81,-89.5 1327.81,-89.5 1327.81,-89.5 1327.81,-73.08 1327.81,-73.08"/>
<polygon fill="#c62828" stroke="#c62828" stroke-width="1.5" points="1331.31,-73.08 1327.81,-63.08 1324.31,-73.08 1331.31,-73.08"/>
</g>
<!-- s5_1 -->
<g id="node24" class="node">
<title>s5_1</title>
<path fill="#bbdefb" stroke="black" d="M1507.88,-60.5C1507.88,-60.5 1399.62,-60.5 1399.62,-60.5 1393.62,-60.5 1387.62,-54.5 1387.62,-48.5 1387.62,-48.5 1387.62,-36.5 1387.62,-36.5 1387.62,-30.5 1393.62,-24.5 1399.62,-24.5 1399.62,-24.5 1507.88,-24.5 1507.88,-24.5 1513.88,-24.5 1519.88,-30.5 1519.88,-36.5 1519.88,-36.5 1519.88,-48.5 1519.88,-48.5 1519.88,-54.5 1513.88,-60.5 1507.88,-60.5"/>
<text xml:space="preserve" text-anchor="middle" x="1453.75" y="-39" font-family="Arial" font-size="10.00" fill="#1a1a2e">Backtracking, catastrophic</text>
</g>
<!-- s5&#45;&gt;s5_1 -->
<g id="edge23" class="edge">
<title>s5&#45;&gt;s5_1</title>
<path fill="none" stroke="#c62828" stroke-width="1.5" d="M1495.96,-118.38C1495.96,-118.38 1495.96,-73.16 1495.96,-73.16"/>
<polygon fill="#c62828" stroke="#c62828" stroke-width="1.5" points="1499.46,-73.16 1495.96,-63.16 1492.46,-73.16 1499.46,-73.16"/>
</g>
<!-- s5_2 -->
<g id="node25" class="node">
<title>s5_2</title>
<path fill="#bbdefb" stroke="black" d="M1623.25,-60.5C1623.25,-60.5 1568.25,-60.5 1568.25,-60.5 1562.25,-60.5 1556.25,-54.5 1556.25,-48.5 1556.25,-48.5 1556.25,-36.5 1556.25,-36.5 1556.25,-30.5 1562.25,-24.5 1568.25,-24.5 1568.25,-24.5 1623.25,-24.5 1623.25,-24.5 1629.25,-24.5 1635.25,-30.5 1635.25,-36.5 1635.25,-36.5 1635.25,-48.5 1635.25,-48.5 1635.25,-54.5 1629.25,-60.5 1623.25,-60.5"/>
<text xml:space="preserve" text-anchor="middle" x="1595.75" y="-39" font-family="Arial" font-size="10.00" fill="#1a1a2e">Greedy pitfalls</text>
</g>
<!-- s5&#45;&gt;s5_2 -->
<g id="edge24" class="edge">
<title>s5&#45;&gt;s5_2</title>
<path fill="none" stroke="#c62828" stroke-width="1.5" d="M1578.81,-118.38C1578.81,-118.38 1578.81,-73.16 1578.81,-73.16"/>
<polygon fill="#c62828" stroke="#c62828" stroke-width="1.5" points="1582.31,-73.16 1578.81,-63.16 1575.31,-73.16 1582.31,-73.16"/>
</g>
<!-- s5_3 -->
<g id="node26" class="node">
<title>s5_3</title>
<path fill="#bbdefb" stroke="black" d="M1806.38,-60.5C1806.38,-60.5 1683.12,-60.5 1683.12,-60.5 1677.12,-60.5 1671.12,-54.5 1671.12,-48.5 1671.12,-48.5 1671.12,-36.5 1671.12,-36.5 1671.12,-30.5 1677.12,-24.5 1683.12,-24.5 1683.12,-24.5 1806.38,-24.5 1806.38,-24.5 1812.38,-24.5 1818.38,-30.5 1818.38,-36.5 1818.38,-36.5 1818.38,-48.5 1818.38,-48.5 1818.38,-54.5 1812.38,-60.5 1806.38,-60.5"/>
<text xml:space="preserve" text-anchor="middle" x="1744.75" y="-39" font-family="Arial" font-size="10.00" fill="#1a1a2e">Flavors: PCRE/JS/Go/Python</text>
</g>
<!-- s5&#45;&gt;s5_3 -->
<g id="edge25" class="edge">
<title>s5&#45;&gt;s5_3</title>
<path fill="none" stroke="#c62828" stroke-width="1.5" d="M1601.7,-136.5C1665.14,-136.5 1744.75,-136.5 1744.75,-136.5 1744.75,-136.5 1744.75,-72.89 1744.75,-72.89"/>
<polygon fill="#c62828" stroke="#c62828" stroke-width="1.5" points="1748.25,-72.89 1744.75,-62.89 1741.25,-72.89 1748.25,-72.89"/>
</g>
</g>
</svg>
