<?xml version="1.0" encoding="UTF-8" standalone="no"?>
<!DOCTYPE svg PUBLIC "-//W3C//DTD SVG 1.1//EN"
 "http://www.w3.org/Graphics/SVG/1.1/DTD/svg11.dtd">
<!-- Generated by graphviz version 14.1.4 (20260321.0153)
 -->
<!-- Title: regex_engine Pages: 1 -->
<svg width="1622pt" height="172pt"
 viewBox="0.00 0.00 1622.00 172.00" xmlns="http://www.w3.org/2000/svg" xmlns:xlink="http://www.w3.org/1999/xlink">
<style>
text { paint-order: stroke; stroke: #ffffff; stroke-width: 3px; stroke-linejoin: round; fill: #1a1a2e; }
</style>
<g id="graph0" class="graph" transform="scale(1 1) rotate(0) translate(4 167.75)">
<title>regex_engine</title>
<polygon fill="white" stroke="none" points="-4,4 -4,-167.75 1617.75,-167.75 1617.75,4 -4,4"/>
<text xml:space="preserve" text-anchor="middle" x="806.88" y="-7.2" font-family="Times New Roman,serif" font-size="14.00">Regex Engine: Matching + Backtracking</text>
<!-- title -->
<g id="node1" class="node">
<title>title</title>
<path fill="#0d47a1" stroke="black" d="M93.25,-111.5C93.25,-111.5 12,-111.5 12,-111.5 6,-111.5 0,-105.5 0,-99.5 0,-99.5 0,-87.5 0,-87.5 0,-81.5 6,-75.5 12,-75.5 12,-75.5 93.25,-75.5 93.25,-75.5 99.25,-75.5 105.25,-81.5 105.25,-87.5 105.25,-87.5 105.25,-99.5 105.25,-99.5 105.25,-105.5 99.25,-111.5 93.25,-111.5"/>
<text xml:space="preserve" text-anchor="middle" x="52.62" y="-88.08" font-family="Arial Bold" font-size="14.00" fill="#ffffff">Regex Engine</text>
</g>
<!-- pat -->
<g id="node2" class="node">
<title>pat</title>
<polygon fill="#2e7d32" stroke="black" points="238,-163.5 164.25,-163.5 164.25,-127.5 238,-127.5 238,-163.5"/>
<text xml:space="preserve" text-anchor="middle" x="201.12" y="-141.8" font-family="Arial" font-size="11.00" fill="#ffffff">Pattern: a*b</text>
</g>
<!-- title&#45;&gt;pat -->
<g id="edge1" class="edge">
<title>title&#45;&gt;pat</title>
<path fill="none" stroke="#2e7d32" stroke-width="2" d="M105.68,-104.5C148.19,-104.5 200.75,-104.5 200.75,-104.5 200.75,-104.5 200.75,-114.37 200.75,-114.37"/>
<polygon fill="#2e7d32" stroke="#2e7d32" stroke-width="2" points="197.25,-114.37 200.75,-124.37 204.25,-114.37 197.25,-114.37"/>
</g>
<!-- inp -->
<g id="node3" class="node">
<title>inp</title>
<polygon fill="#2e7d32" stroke="black" points="349,-90.5 267,-90.5 267,-54.5 349,-54.5 349,-90.5"/>
<text xml:space="preserve" text-anchor="middle" x="308" y="-68.8" font-family="Arial" font-size="11.00" fill="#ffffff">Input: aaaaab</text>
</g>
<!-- title&#45;&gt;inp -->
<g id="edge2" class="edge">
<title>title&#45;&gt;inp</title>
<path fill="none" stroke="#2e7d32" stroke-width="2" d="M105.54,-83C105.54,-83 253.49,-83 253.49,-83"/>
<polygon fill="#2e7d32" stroke="#2e7d32" stroke-width="2" points="253.49,-86.5 263.49,-83 253.49,-79.5 253.49,-86.5"/>
</g>
<!-- comp -->
<g id="node4" class="node">
<title>comp</title>
<path fill="#1565c0" stroke="black" d="M457,-163.75C457,-163.75 390,-163.75 390,-163.75 384,-163.75 378,-157.75 378,-151.75 378,-151.75 378,-139.25 378,-139.25 378,-133.25 384,-127.25 390,-127.25 390,-127.25 457,-127.25 457,-127.25 463,-127.25 469,-133.25 469,-139.25 469,-139.25 469,-151.75 469,-151.75 469,-157.75 463,-163.75 457,-163.75"/>
<text xml:space="preserve" text-anchor="middle" x="423.5" y="-148.35" font-family="Arial Bold" font-size="12.00" fill="#ffffff">Compile</text>
<text xml:space="preserve" text-anchor="middle" x="423.5" y="-134.1" font-family="Arial Bold" font-size="12.00" fill="#ffffff">&#45;&gt; NFA states</text>
</g>
<!-- pat&#45;&gt;comp -->
<g id="edge3" class="edge">
<title>pat&#45;&gt;comp</title>
<path fill="none" stroke="#1565c0" stroke-width="2" d="M238.35,-145.5C238.35,-145.5 364.65,-145.5 364.65,-145.5"/>
<polygon fill="#1565c0" stroke="#1565c0" stroke-width="2" points="364.65,-149 374.65,-145.5 364.65,-142 364.65,-149"/>
</g>
<!-- match -->
<g id="node5" class="node">
<title>match</title>
<path fill="#1565c0" stroke="black" d="M664,-111.75C664,-111.75 540,-111.75 540,-111.75 534,-111.75 528,-105.75 528,-99.75 528,-99.75 528,-87.25 528,-87.25 528,-81.25 534,-75.25 540,-75.25 540,-75.25 664,-75.25 664,-75.25 670,-75.25 676,-81.25 676,-87.25 676,-87.25 676,-99.75 676,-99.75 676,-105.75 670,-111.75 664,-111.75"/>
<text xml:space="preserve" text-anchor="middle" x="602" y="-96.35" font-family="Arial Bold" font-size="12.00" fill="#ffffff">Match</text>
<text xml:space="preserve" text-anchor="middle" x="602" y="-82.1" font-family="Arial Bold" font-size="12.00" fill="#ffffff">walk input char by char</text>
</g>
<!-- inp&#45;&gt;match -->
<g id="edge5" class="edge">
<title>inp&#45;&gt;match</title>
<path fill="none" stroke="#1565c0" stroke-width="2" d="M349.5,-82.88C349.5,-82.88 514.49,-82.88 514.49,-82.88"/>
<polygon fill="#1565c0" stroke="#1565c0" stroke-width="2" points="514.49,-86.38 524.49,-82.88 514.49,-79.38 514.49,-86.38"/>
</g>
<!-- comp&#45;&gt;match -->
<g id="edge4" class="edge">
<title>comp&#45;&gt;match</title>
<path fill="none" stroke="#1565c0" stroke-width="2" d="M423.75,-126.8C423.75,-113.33 423.75,-97.5 423.75,-97.5 423.75,-97.5 514.67,-97.5 514.67,-97.5"/>
<polygon fill="#1565c0" stroke="#1565c0" stroke-width="2" points="514.67,-101 524.67,-97.5 514.67,-94 514.67,-101"/>
</g>
<!-- dec -->
<g id="node6" class="node">
<title>dec</title>
<polygon fill="#ef6c00" stroke="black" points="796.75,-125.5 735,-93.5 796.75,-61.5 858.5,-93.5 796.75,-125.5"/>
<text xml:space="preserve" text-anchor="middle" x="796.75" y="-96" font-family="Arial Bold" font-size="10.00" fill="#ffffff">Quantifier</text>
<text xml:space="preserve" text-anchor="middle" x="796.75" y="-84" font-family="Arial Bold" font-size="10.00" fill="#ffffff">matches?</text>
</g>
<!-- match&#45;&gt;dec -->
<g id="edge6" class="edge">
<title>match&#45;&gt;dec</title>
<path fill="none" stroke="#ef6c00" stroke-width="2" d="M676.46,-93.5C676.46,-93.5 721.03,-93.5 721.03,-93.5"/>
<polygon fill="#ef6c00" stroke="#ef6c00" stroke-width="2" points="721.03,-97 731.03,-93.5 721.03,-90 721.03,-97"/>
</g>
<!-- greedy -->
<g id="node7" class="node">
<title>greedy</title>
<path fill="#bbdefb" stroke="black" d="M1052.5,-115.5C1052.5,-115.5 946.5,-115.5 946.5,-115.5 940.5,-115.5 934.5,-109.5 934.5,-103.5 934.5,-103.5 934.5,-83.5 934.5,-83.5 934.5,-77.5 940.5,-71.5 946.5,-71.5 946.5,-71.5 1052.5,-71.5 1052.5,-71.5 1058.5,-71.5 1064.5,-77.5 1064.5,-83.5 1064.5,-83.5 1064.5,-103.5 1064.5,-103.5 1064.5,-109.5 1058.5,-115.5 1052.5,-115.5"/>
<text xml:space="preserve" text-anchor="middle" x="999.5" y="-102" font-family="Arial" font-size="10.00" fill="#1a1a2e">Greedy: take max</text>
<text xml:space="preserve" text-anchor="middle" x="999.5" y="-90" font-family="Arial" font-size="10.00" fill="#1a1a2e">then backtrack 1 at a time</text>
<text xml:space="preserve" text-anchor="middle" x="999.5" y="-78" font-family="Arial" font-size="10.00" fill="#1a1a2e">if rest fails</text>
</g>
<!-- dec&#45;&gt;greedy -->
<g id="edge7" class="edge">
<title>dec&#45;&gt;greedy</title>
<path fill="none" stroke="#6a1b9a" stroke-width="1.5" d="M859.51,-93.5C859.51,-93.5 921.96,-93.5 921.96,-93.5"/>
<polygon fill="#6a1b9a" stroke="#6a1b9a" stroke-width="1.5" points="921.96,-97 931.96,-93.5 921.96,-90 921.96,-97"/>
<text xml:space="preserve" text-anchor="middle" x="896.5" y="-96.7" font-family="Times New Roman,serif" font-size="14.00">yes</text>
</g>
<!-- ok -->
<g id="node8" class="node">
<title>ok</title>
<polygon fill="#ef6c00" stroke="black" points="1333.5,-152.5 1218.5,-152.5 1218.5,-116.5 1333.5,-116.5 1333.5,-152.5"/>
<text xml:space="preserve" text-anchor="middle" x="1276" y="-137.55" font-family="Arial" font-size="11.00" fill="#ffffff">Success</text>
<text xml:space="preserve" text-anchor="middle" x="1276" y="-124.05" font-family="Arial" font-size="11.00" fill="#ffffff">a*b matches aaaaab</text>
</g>
<!-- greedy&#45;&gt;ok -->
<g id="edge8" class="edge">
<title>greedy&#45;&gt;ok</title>
<path fill="none" stroke="#2e7d32" stroke-width="2" d="M1064.95,-98C1131.46,-98 1224.75,-98 1224.75,-98 1224.75,-98 1224.75,-103.22 1224.75,-103.22"/>
<polygon fill="#2e7d32" stroke="#2e7d32" stroke-width="2" points="1221.25,-103.22 1224.75,-113.22 1228.25,-103.22 1221.25,-103.22"/>
<text xml:space="preserve" text-anchor="middle" x="1141.5" y="-137.7" font-family="Times New Roman,serif" font-size="14.00">rest matches</text>
</g>
<!-- cat -->
<g id="node9" class="node">
<title>cat</title>
<path fill="#c62828" stroke="black" d="M1309.12,-80.5C1309.12,-80.5 1242.88,-80.5 1242.88,-80.5 1236.88,-80.5 1230.88,-74.5 1230.88,-68.5 1230.88,-68.5 1230.88,-36.5 1230.88,-36.5 1230.88,-30.5 1236.88,-24.5 1242.88,-24.5 1242.88,-24.5 1309.12,-24.5 1309.12,-24.5 1315.12,-24.5 1321.12,-30.5 1321.12,-36.5 1321.12,-36.5 1321.12,-68.5 1321.12,-68.5 1321.12,-74.5 1315.12,-80.5 1309.12,-80.5"/>
<text xml:space="preserve" text-anchor="middle" x="1276" y="-67" font-family="Arial" font-size="10.00" fill="#ffffff">Catastrophic</text>
<text xml:space="preserve" text-anchor="middle" x="1276" y="-55" font-family="Arial" font-size="10.00" fill="#ffffff">Backtracking</text>
<text xml:space="preserve" text-anchor="middle" x="1276" y="-43" font-family="Arial" font-size="10.00" fill="#ffffff">(a+)+b on &#39;aaa...&#39;</text>
<text xml:space="preserve" text-anchor="middle" x="1276" y="-31" font-family="Arial" font-size="10.00" fill="#ffffff">&#45;&gt; 2^n paths</text>
</g>
<!-- greedy&#45;&gt;cat -->
<g id="edge9" class="edge">
<title>greedy&#45;&gt;cat</title>
<path fill="none" stroke="#c62828" stroke-width="1.5" stroke-dasharray="5,2" d="M1064.68,-76C1064.68,-76 1218.42,-76 1218.42,-76"/>
<polygon fill="#c62828" stroke="#c62828" stroke-width="1.5" points="1218.42,-79.5 1228.42,-76 1218.42,-72.5 1218.42,-79.5"/>
<text xml:space="preserve" text-anchor="middle" x="1141.5" y="-67.7" font-family="Times New Roman,serif" font-size="14.00">nested quantifiers</text>
</g>
<!-- re2 -->
<g id="node10" class="node">
<title>re2</title>
<path fill="#bbdefb" stroke="black" d="M1601.75,-74.5C1601.75,-74.5 1497.25,-74.5 1497.25,-74.5 1491.25,-74.5 1485.25,-68.5 1485.25,-62.5 1485.25,-62.5 1485.25,-42.5 1485.25,-42.5 1485.25,-36.5 1491.25,-30.5 1497.25,-30.5 1497.25,-30.5 1601.75,-30.5 1601.75,-30.5 1607.75,-30.5 1613.75,-36.5 1613.75,-42.5 1613.75,-42.5 1613.75,-62.5 1613.75,-62.5 1613.75,-68.5 1607.75,-74.5 1601.75,-74.5"/>
<text xml:space="preserve" text-anchor="middle" x="1549.5" y="-61" font-family="Arial" font-size="10.00" fill="#1a1a2e">RE2 / linear engines</text>
<text xml:space="preserve" text-anchor="middle" x="1549.5" y="-49" font-family="Arial" font-size="10.00" fill="#1a1a2e">no backtracking &#45;&gt; O(n)</text>
<text xml:space="preserve" text-anchor="middle" x="1549.5" y="-37" font-family="Arial" font-size="10.00" fill="#1a1a2e">(no lookarounds/backrefs)</text>
</g>
<!-- cat&#45;&gt;re2 -->
<g id="edge10" class="edge">
<title>cat&#45;&gt;re2</title>
<path fill="none" stroke="#2e7d32" stroke-width="1.5" stroke-dasharray="5,2" d="M1321.47,-52.5C1321.47,-52.5 1472.7,-52.5 1472.7,-52.5"/>
<polygon fill="#2e7d32" stroke="#2e7d32" stroke-width="1.5" points="1472.7,-56 1482.7,-52.5 1472.7,-49 1472.7,-56"/>
<text xml:space="preserve" text-anchor="middle" x="1409.38" y="-55.7" font-family="Times New Roman,serif" font-size="14.00">use RE2 to avoid</text>
</g>
</g>
</svg>
