<?xml version="1.0" encoding="UTF-8" standalone="no"?>
<!DOCTYPE svg PUBLIC "-//W3C//DTD SVG 1.1//EN"
 "http://www.w3.org/Graphics/SVG/1.1/DTD/svg11.dtd">
<!-- Generated by graphviz version 14.1.4 (20260321.0153)
 -->
<!-- Title: regex_features Pages: 1 -->
<svg width="1575pt" height="189pt"
 viewBox="0.00 0.00 1575.00 189.00" xmlns="http://www.w3.org/2000/svg" xmlns:xlink="http://www.w3.org/1999/xlink">
<style>
text { paint-order: stroke; stroke: #ffffff; stroke-width: 3px; stroke-linejoin: round; fill: #1a1a2e; }
</style>
<g id="graph0" class="graph" transform="scale(1 1) rotate(0) translate(4 184.5)">
<title>regex_features</title>
<polygon fill="white" stroke="none" points="-4,4 -4,-184.5 1571,-184.5 1571,4 -4,4"/>
<text xml:space="preserve" text-anchor="middle" x="783.5" y="-7.2" font-family="Times New Roman,serif" font-size="14.00">Regex Building Blocks</text>
<!-- title -->
<g id="node1" class="node">
<title>title</title>
<path fill="#0d47a1" stroke="black" d="M826.75,-180.5C826.75,-180.5 688.5,-180.5 688.5,-180.5 682.5,-180.5 676.5,-174.5 676.5,-168.5 676.5,-168.5 676.5,-156.5 676.5,-156.5 676.5,-150.5 682.5,-144.5 688.5,-144.5 688.5,-144.5 826.75,-144.5 826.75,-144.5 832.75,-144.5 838.75,-150.5 838.75,-156.5 838.75,-156.5 838.75,-168.5 838.75,-168.5 838.75,-174.5 832.75,-180.5 826.75,-180.5"/>
<text xml:space="preserve" text-anchor="middle" x="757.62" y="-157.07" font-family="Arial Bold" font-size="14.00" fill="#ffffff">Regex Building Blocks</text>
</g>
<!-- char -->
<g id="node2" class="node">
<title>char</title>
<path fill="#2e7d32" stroke="black" d="M105.25,-86.5C105.25,-86.5 12,-86.5 12,-86.5 6,-86.5 0,-80.5 0,-74.5 0,-74.5 0,-36.5 0,-36.5 0,-30.5 6,-24.5 12,-24.5 12,-24.5 105.25,-24.5 105.25,-24.5 111.25,-24.5 117.25,-30.5 117.25,-36.5 117.25,-36.5 117.25,-74.5 117.25,-74.5 117.25,-80.5 111.25,-86.5 105.25,-86.5"/>
<text xml:space="preserve" text-anchor="middle" x="58.62" y="-72.05" font-family="Arial Bold" font-size="11.00" fill="#ffffff">Char classes</text>
<text xml:space="preserve" text-anchor="middle" x="58.62" y="-58.55" font-family="Arial Bold" font-size="11.00" fill="#ffffff">[abc] [a&#45;z0&#45;9]</text>
<text xml:space="preserve" text-anchor="middle" x="58.62" y="-45.05" font-family="Arial Bold" font-size="11.00" fill="#ffffff">[^abc] negated</text>
<text xml:space="preserve" text-anchor="middle" x="58.62" y="-31.55" font-family="Arial Bold" font-size="11.00" fill="#ffffff">. = any (no newline)</text>
</g>
<!-- title&#45;&gt;char -->
<g id="edge1" class="edge">
<title>title&#45;&gt;char</title>
<path fill="none" stroke="#2e7d32" stroke-width="1.5" d="M676.07,-173.5C491.68,-173.5 58.62,-173.5 58.62,-173.5 58.62,-173.5 58.62,-99.08 58.62,-99.08"/>
<polygon fill="#2e7d32" stroke="#2e7d32" stroke-width="1.5" points="62.13,-99.08 58.63,-89.08 55.13,-99.08 62.13,-99.08"/>
</g>
<!-- quant -->
<g id="node3" class="node">
<title>quant</title>
<path fill="#00838f" stroke="black" d="M245.88,-86.5C245.88,-86.5 165.38,-86.5 165.38,-86.5 159.38,-86.5 153.38,-80.5 153.38,-74.5 153.38,-74.5 153.38,-36.5 153.38,-36.5 153.38,-30.5 159.38,-24.5 165.38,-24.5 165.38,-24.5 245.88,-24.5 245.88,-24.5 251.88,-24.5 257.88,-30.5 257.88,-36.5 257.88,-36.5 257.88,-74.5 257.88,-74.5 257.88,-80.5 251.88,-86.5 245.88,-86.5"/>
<text xml:space="preserve" text-anchor="middle" x="205.62" y="-72.05" font-family="Arial Bold" font-size="11.00" fill="#ffffff">Quantifiers</text>
<text xml:space="preserve" text-anchor="middle" x="205.62" y="-58.55" font-family="Arial Bold" font-size="11.00" fill="#ffffff">* 0+ &#160;&#160;+ 1+ &#160;&#160;? 0/1</text>
<text xml:space="preserve" text-anchor="middle" x="205.62" y="-45.05" font-family="Arial Bold" font-size="11.00" fill="#ffffff">{n} {n,m} {n,}</text>
<text xml:space="preserve" text-anchor="middle" x="205.62" y="-31.55" font-family="Arial Bold" font-size="11.00" fill="#ffffff">greedy vs lazy *?</text>
</g>
<!-- title&#45;&gt;quant -->
<g id="edge2" class="edge">
<title>title&#45;&gt;quant</title>
<path fill="none" stroke="#00838f" stroke-width="1.5" d="M676.18,-166.5C522.63,-166.5 205.62,-166.5 205.62,-166.5 205.62,-166.5 205.62,-98.99 205.62,-98.99"/>
<polygon fill="#00838f" stroke="#00838f" stroke-width="1.5" points="209.13,-98.99 205.63,-88.99 202.13,-98.99 209.13,-98.99"/>
</g>
<!-- short -->
<g id="node4" class="node">
<title>short</title>
<path fill="#ef6c00" stroke="black" d="M419.75,-79.75C419.75,-79.75 305.5,-79.75 305.5,-79.75 299.5,-79.75 293.5,-73.75 293.5,-67.75 293.5,-67.75 293.5,-43.25 293.5,-43.25 293.5,-37.25 299.5,-31.25 305.5,-31.25 305.5,-31.25 419.75,-31.25 419.75,-31.25 425.75,-31.25 431.75,-37.25 431.75,-43.25 431.75,-43.25 431.75,-67.75 431.75,-67.75 431.75,-73.75 425.75,-79.75 419.75,-79.75"/>
<text xml:space="preserve" text-anchor="middle" x="362.62" y="-65.3" font-family="Arial Bold" font-size="11.00" fill="#ffffff">Shorthand</text>
<text xml:space="preserve" text-anchor="middle" x="362.62" y="-51.8" font-family="Arial Bold" font-size="11.00" fill="#ffffff">d digit &#160;w word &#160;s space</text>
<text xml:space="preserve" text-anchor="middle" x="362.62" y="-38.3" font-family="Arial Bold" font-size="11.00" fill="#ffffff">D W S negated</text>
</g>
<!-- title&#45;&gt;short -->
<g id="edge3" class="edge">
<title>title&#45;&gt;short</title>
<path fill="none" stroke="#ef6c00" stroke-width="1.5" d="M676.26,-158.5C560.63,-158.5 362.62,-158.5 362.62,-158.5 362.62,-158.5 362.62,-92.44 362.62,-92.44"/>
<polygon fill="#ef6c00" stroke="#ef6c00" stroke-width="1.5" points="366.13,-92.44 362.63,-82.44 359.13,-92.44 366.13,-92.44"/>
</g>
<!-- anchor -->
<g id="node5" class="node">
<title>anchor</title>
<path fill="#6a1b9a" stroke="black" d="M561.25,-86.5C561.25,-86.5 480,-86.5 480,-86.5 474,-86.5 468,-80.5 468,-74.5 468,-74.5 468,-36.5 468,-36.5 468,-30.5 474,-24.5 480,-24.5 480,-24.5 561.25,-24.5 561.25,-24.5 567.25,-24.5 573.25,-30.5 573.25,-36.5 573.25,-36.5 573.25,-74.5 573.25,-74.5 573.25,-80.5 567.25,-86.5 561.25,-86.5"/>
<text xml:space="preserve" text-anchor="middle" x="520.62" y="-72.05" font-family="Arial Bold" font-size="11.00" fill="#ffffff">Anchors</text>
<text xml:space="preserve" text-anchor="middle" x="520.62" y="-58.55" font-family="Arial Bold" font-size="11.00" fill="#ffffff">^ start &#160;$ end</text>
<text xml:space="preserve" text-anchor="middle" x="520.62" y="-45.05" font-family="Arial Bold" font-size="11.00" fill="#ffffff">b word boundary</text>
<text xml:space="preserve" text-anchor="middle" x="520.62" y="-31.55" font-family="Arial Bold" font-size="11.00" fill="#ffffff">B non&#45;boundary</text>
</g>
<!-- title&#45;&gt;anchor -->
<g id="edge4" class="edge">
<title>title&#45;&gt;anchor</title>
<path fill="none" stroke="#6a1b9a" stroke-width="1.5" d="M676.06,-151.5C607.51,-151.5 520.62,-151.5 520.62,-151.5 520.62,-151.5 520.62,-99.2 520.62,-99.2"/>
<polygon fill="#6a1b9a" stroke="#6a1b9a" stroke-width="1.5" points="524.13,-99.2 520.63,-89.2 517.13,-99.2 524.13,-99.2"/>
</g>
<!-- grp -->
<g id="node6" class="node">
<title>grp</title>
<path fill="#c62828" stroke="black" d="M742.12,-86.5C742.12,-86.5 621.12,-86.5 621.12,-86.5 615.12,-86.5 609.12,-80.5 609.12,-74.5 609.12,-74.5 609.12,-36.5 609.12,-36.5 609.12,-30.5 615.12,-24.5 621.12,-24.5 621.12,-24.5 742.12,-24.5 742.12,-24.5 748.12,-24.5 754.12,-30.5 754.12,-36.5 754.12,-36.5 754.12,-74.5 754.12,-74.5 754.12,-80.5 748.12,-86.5 742.12,-86.5"/>
<text xml:space="preserve" text-anchor="middle" x="681.62" y="-72.05" font-family="Arial Bold" font-size="11.00" fill="#ffffff">Groups + Backref</text>
<text xml:space="preserve" text-anchor="middle" x="681.62" y="-58.55" font-family="Arial Bold" font-size="11.00" fill="#ffffff">() capture, (?:...) non&#45;cap</text>
<text xml:space="preserve" text-anchor="middle" x="681.62" y="-45.05" font-family="Arial Bold" font-size="11.00" fill="#ffffff">1 backref</text>
<text xml:space="preserve" text-anchor="middle" x="681.62" y="-31.55" font-family="Arial Bold" font-size="11.00" fill="#ffffff">(?P&lt;n&gt;...) named</text>
</g>
<!-- title&#45;&gt;grp -->
<g id="edge5" class="edge">
<title>title&#45;&gt;grp</title>
<path fill="none" stroke="#c62828" stroke-width="1.5" d="M715.31,-144.35C715.31,-144.35 715.31,-99.03 715.31,-99.03"/>
<polygon fill="#c62828" stroke="#c62828" stroke-width="1.5" points="718.81,-99.03 715.31,-89.03 711.81,-99.03 718.81,-99.03"/>
</g>
<!-- alt -->
<g id="node7" class="node">
<title>alt</title>
<path fill="#0d47a1" stroke="black" d="M865.25,-86.5C865.25,-86.5 802,-86.5 802,-86.5 796,-86.5 790,-80.5 790,-74.5 790,-74.5 790,-36.5 790,-36.5 790,-30.5 796,-24.5 802,-24.5 802,-24.5 865.25,-24.5 865.25,-24.5 871.25,-24.5 877.25,-30.5 877.25,-36.5 877.25,-36.5 877.25,-74.5 877.25,-74.5 877.25,-80.5 871.25,-86.5 865.25,-86.5"/>
<text xml:space="preserve" text-anchor="middle" x="833.62" y="-72.05" font-family="Arial Bold" font-size="11.00" fill="#ffffff">Alternation</text>
<text xml:space="preserve" text-anchor="middle" x="833.62" y="-58.55" font-family="Arial Bold" font-size="11.00" fill="#ffffff">cat|dog|bird</text>
<text xml:space="preserve" text-anchor="middle" x="833.62" y="-45.05" font-family="Arial Bold" font-size="11.00" fill="#ffffff">| = OR</text>
<text xml:space="preserve" text-anchor="middle" x="833.62" y="-31.55" font-family="Arial Bold" font-size="11.00" fill="#ffffff">order matters</text>
</g>
<!-- title&#45;&gt;alt -->
<g id="edge6" class="edge">
<title>title&#45;&gt;alt</title>
<path fill="none" stroke="#0d47a1" stroke-width="1.5" d="M814.38,-144.35C814.38,-144.35 814.38,-99.03 814.38,-99.03"/>
<polygon fill="#0d47a1" stroke="#0d47a1" stroke-width="1.5" points="817.88,-99.03 814.38,-89.03 810.88,-99.03 817.88,-99.03"/>
</g>
<!-- look -->
<g id="node8" class="node">
<title>look</title>
<path fill="#00838f" stroke="black" d="M1047.88,-86.5C1047.88,-86.5 925.38,-86.5 925.38,-86.5 919.38,-86.5 913.38,-80.5 913.38,-74.5 913.38,-74.5 913.38,-36.5 913.38,-36.5 913.38,-30.5 919.38,-24.5 925.38,-24.5 925.38,-24.5 1047.88,-24.5 1047.88,-24.5 1053.88,-24.5 1059.88,-30.5 1059.88,-36.5 1059.88,-36.5 1059.88,-74.5 1059.88,-74.5 1059.88,-80.5 1053.88,-86.5 1047.88,-86.5"/>
<text xml:space="preserve" text-anchor="middle" x="986.62" y="-72.05" font-family="Arial Bold" font-size="11.00" fill="#ffffff">Lookarounds</text>
<text xml:space="preserve" text-anchor="middle" x="986.62" y="-58.55" font-family="Arial Bold" font-size="11.00" fill="#ffffff">(?=p) (?!p) lookahead</text>
<text xml:space="preserve" text-anchor="middle" x="986.62" y="-45.05" font-family="Arial Bold" font-size="11.00" fill="#ffffff">(?&lt;=p) (?&lt;!p) lookbehind</text>
<text xml:space="preserve" text-anchor="middle" x="986.62" y="-31.55" font-family="Arial Bold" font-size="11.00" fill="#ffffff">zero&#45;width</text>
</g>
<!-- title&#45;&gt;look -->
<g id="edge7" class="edge">
<title>title&#45;&gt;look</title>
<path fill="none" stroke="#00838f" stroke-width="1.5" d="M839.01,-151.5C904.83,-151.5 986.62,-151.5 986.62,-151.5 986.62,-151.5 986.62,-99.2 986.62,-99.2"/>
<polygon fill="#00838f" stroke="#00838f" stroke-width="1.5" points="990.13,-99.2 986.63,-89.2 983.13,-99.2 990.13,-99.2"/>
</g>
<!-- flag -->
<g id="node9" class="node">
<title>flag</title>
<path fill="#ef6c00" stroke="black" d="M1211.5,-86.5C1211.5,-86.5 1107.75,-86.5 1107.75,-86.5 1101.75,-86.5 1095.75,-80.5 1095.75,-74.5 1095.75,-74.5 1095.75,-36.5 1095.75,-36.5 1095.75,-30.5 1101.75,-24.5 1107.75,-24.5 1107.75,-24.5 1211.5,-24.5 1211.5,-24.5 1217.5,-24.5 1223.5,-30.5 1223.5,-36.5 1223.5,-36.5 1223.5,-74.5 1223.5,-74.5 1223.5,-80.5 1217.5,-86.5 1211.5,-86.5"/>
<text xml:space="preserve" text-anchor="middle" x="1159.62" y="-72.05" font-family="Arial Bold" font-size="11.00" fill="#ffffff">Flags</text>
<text xml:space="preserve" text-anchor="middle" x="1159.62" y="-58.55" font-family="Arial Bold" font-size="11.00" fill="#ffffff">/i case&#45;insensitive</text>
<text xml:space="preserve" text-anchor="middle" x="1159.62" y="-45.05" font-family="Arial Bold" font-size="11.00" fill="#ffffff">/g global, /m multiline</text>
<text xml:space="preserve" text-anchor="middle" x="1159.62" y="-31.55" font-family="Arial Bold" font-size="11.00" fill="#ffffff">/s dotall, /x verbose</text>
</g>
<!-- title&#45;&gt;flag -->
<g id="edge8" class="edge">
<title>title&#45;&gt;flag</title>
<path fill="none" stroke="#ef6c00" stroke-width="1.5" d="M838.98,-158.5C956.44,-158.5 1159.62,-158.5 1159.62,-158.5 1159.62,-158.5 1159.62,-99.23 1159.62,-99.23"/>
<polygon fill="#ef6c00" stroke="#ef6c00" stroke-width="1.5" points="1163.13,-99.23 1159.63,-89.23 1156.13,-99.23 1163.13,-99.23"/>
</g>
<!-- esc -->
<g id="node10" class="node">
<title>esc</title>
<path fill="#6a1b9a" stroke="black" d="M1393.88,-86.5C1393.88,-86.5 1271.38,-86.5 1271.38,-86.5 1265.38,-86.5 1259.38,-80.5 1259.38,-74.5 1259.38,-74.5 1259.38,-36.5 1259.38,-36.5 1259.38,-30.5 1265.38,-24.5 1271.38,-24.5 1271.38,-24.5 1393.88,-24.5 1393.88,-24.5 1399.88,-24.5 1405.88,-30.5 1405.88,-36.5 1405.88,-36.5 1405.88,-74.5 1405.88,-74.5 1405.88,-80.5 1399.88,-86.5 1393.88,-86.5"/>
<text xml:space="preserve" text-anchor="middle" x="1332.62" y="-72.05" font-family="Arial Bold" font-size="11.00" fill="#ffffff">Escaping</text>
<text xml:space="preserve" text-anchor="middle" x="1332.62" y="-58.55" font-family="Arial Bold" font-size="11.00" fill="#ffffff">. ( [ *</text>
<text xml:space="preserve" text-anchor="middle" x="1332.62" y="-45.05" font-family="Arial Bold" font-size="11.00" fill="#ffffff">\ backslash</text>
<text xml:space="preserve" text-anchor="middle" x="1332.62" y="-31.55" font-family="Arial Bold" font-size="11.00" fill="#ffffff">escape regex meta&#45;chars</text>
</g>
<!-- title&#45;&gt;esc -->
<g id="edge9" class="edge">
<title>title&#45;&gt;esc</title>
<path fill="none" stroke="#6a1b9a" stroke-width="1.5" d="M839.09,-166.5C997.72,-166.5 1332.62,-166.5 1332.62,-166.5 1332.62,-166.5 1332.62,-98.99 1332.62,-98.99"/>
<polygon fill="#6a1b9a" stroke="#6a1b9a" stroke-width="1.5" points="1336.13,-98.99 1332.63,-88.99 1329.13,-98.99 1336.13,-98.99"/>
</g>
<!-- atom -->
<g id="node11" class="node">
<title>atom</title>
<path fill="#2e7d32" stroke="black" d="M1555,-86.5C1555,-86.5 1454.25,-86.5 1454.25,-86.5 1448.25,-86.5 1442.25,-80.5 1442.25,-74.5 1442.25,-74.5 1442.25,-36.5 1442.25,-36.5 1442.25,-30.5 1448.25,-24.5 1454.25,-24.5 1454.25,-24.5 1555,-24.5 1555,-24.5 1561,-24.5 1567,-30.5 1567,-36.5 1567,-36.5 1567,-74.5 1567,-74.5 1567,-80.5 1561,-86.5 1555,-86.5"/>
<text xml:space="preserve" text-anchor="middle" x="1504.62" y="-72.05" font-family="Arial Bold" font-size="11.00" fill="#ffffff">Advanced</text>
<text xml:space="preserve" text-anchor="middle" x="1504.62" y="-58.55" font-family="Arial Bold" font-size="11.00" fill="#ffffff">(?&gt;...) atomic</text>
<text xml:space="preserve" text-anchor="middle" x="1504.62" y="-45.05" font-family="Arial Bold" font-size="11.00" fill="#ffffff">(?J) duplicate names</text>
<text xml:space="preserve" text-anchor="middle" x="1504.62" y="-31.55" font-family="Arial Bold" font-size="11.00" fill="#ffffff">possessive *+ ++</text>
</g>
<!-- title&#45;&gt;atom -->
<g id="edge10" class="edge">
<title>title&#45;&gt;atom</title>
<path fill="none" stroke="#2e7d32" stroke-width="1.5" d="M838.99,-173.5C1032.6,-173.5 1504.62,-173.5 1504.62,-173.5 1504.62,-173.5 1504.62,-99.08 1504.62,-99.08"/>
<polygon fill="#2e7d32" stroke="#2e7d32" stroke-width="1.5" points="1508.13,-99.08 1504.63,-89.08 1501.13,-99.08 1508.13,-99.08"/>
</g>
</g>
</svg>
