<?xml version="1.0" encoding="UTF-8" standalone="no"?>
<!DOCTYPE svg PUBLIC "-//W3C//DTD SVG 1.1//EN"
 "http://www.w3.org/Graphics/SVG/1.1/DTD/svg11.dtd">
<!-- Generated by graphviz version 14.1.2 (0)
 -->
<!-- Title: librechat_ecosystem Pages: 1 -->
<svg width="893pt" height="325pt"
 viewBox="0.00 0.00 893.00 325.00" xmlns="http://www.w3.org/2000/svg" xmlns:xlink="http://www.w3.org/1999/xlink">
<style>
<!-- White text halo for edge label readability -->
text { paint-order: stroke; stroke: #ffffff; stroke-width: 3px; stroke-linejoin: round; fill: #1a1a2e; }
</style>
<g id="graph0" class="graph" transform="scale(1 1) rotate(0) translate(4 321.25)">
<title>librechat_ecosystem</title>
<polygon fill="white" stroke="none" points="-4,4 -4,-321.25 889,-321.25 889,4 -4,4"/>
<text xml:space="preserve" text-anchor="middle" x="442.5" y="-7.2" font-family="Times New Roman,serif" font-size="14.00">LibreChat &#45; Ecosystem &amp; Deployment Options</text>
<g id="clust1" class="cluster">
<title>cluster_deploy</title>
<polygon fill="#f0f4f8" stroke="#90a4ae" points="164,-235 164,-309.25 726,-309.25 726,-235 164,-235"/>
<text xml:space="preserve" text-anchor="middle" x="445" y="-293.85" font-family="Arial Bold" font-size="12.00" fill="#37474f">Deployment Options</text>
</g>
<g id="clust2" class="cluster">
<title>cluster_int</title>
<polygon fill="#f0f4f8" stroke="#90a4ae" points="8,-32.5 8,-106.75 877,-106.75 877,-32.5 8,-32.5"/>
<text xml:space="preserve" text-anchor="middle" x="442.5" y="-91.35" font-family="Arial Bold" font-size="12.00" fill="#37474f">Integrations &amp; Ecosystem</text>
</g>
<!-- docker -->
<g id="node1" class="node">
<title>docker</title>
<polygon fill="#4caf50" stroke="black" points="234.25,-279 171.75,-279 171.75,-243 234.25,-243 234.25,-279"/>
<text xml:space="preserve" text-anchor="middle" x="203" y="-264.05" font-family="Arial" font-size="11.00" fill="white">Docker</text>
<text xml:space="preserve" text-anchor="middle" x="203" y="-250.55" font-family="Arial" font-size="11.00" fill="white">Compose</text>
</g>
<!-- core -->
<g id="node7" class="node">
<title>core</title>
<path fill="#2196f3" stroke="black" d="M456.12,-178C456.12,-178 407.88,-178 407.88,-178 401.88,-178 395.88,-172 395.88,-166 395.88,-166 395.88,-153.5 395.88,-153.5 395.88,-147.5 401.88,-141.5 407.88,-141.5 407.88,-141.5 456.12,-141.5 456.12,-141.5 462.12,-141.5 468.12,-147.5 468.12,-153.5 468.12,-153.5 468.12,-166 468.12,-166 468.12,-172 462.12,-178 456.12,-178"/>
<text xml:space="preserve" text-anchor="middle" x="432" y="-162.6" font-family="Arial Bold" font-size="12.00" fill="white">LibreChat</text>
<text xml:space="preserve" text-anchor="middle" x="432" y="-148.35" font-family="Arial Bold" font-size="12.00" fill="white">Core</text>
</g>
<!-- docker&#45;&gt;core -->
<g id="edge1" class="edge">
<title>docker&#45;&gt;core</title>
<path fill="none" stroke="#4caf50" stroke-width="1.5" d="M209.62,-242.59C209.62,-214.84 209.62,-165.5 209.62,-165.5 209.62,-165.5 383.51,-165.5 383.51,-165.5"/>
<polygon fill="#4caf50" stroke="#4caf50" stroke-width="1.5" points="383.51,-169 393.51,-165.5 383.51,-162 383.51,-169"/>
</g>
<!-- railway -->
<g id="node2" class="node">
<title>railway</title>
<polygon fill="#4caf50" stroke="black" points="324.12,-279 269.88,-279 269.88,-243 324.12,-243 324.12,-279"/>
<text xml:space="preserve" text-anchor="middle" x="297" y="-264.05" font-family="Arial" font-size="11.00" fill="white">Railway</text>
<text xml:space="preserve" text-anchor="middle" x="297" y="-250.55" font-family="Arial" font-size="11.00" fill="white">Deploy</text>
</g>
<!-- railway&#45;&gt;core -->
<g id="edge2" class="edge">
<title>railway&#45;&gt;core</title>
<path fill="none" stroke="#4caf50" stroke-width="1.5" d="M318.31,-242.89C318.31,-216.74 318.31,-171.5 318.31,-171.5 318.31,-171.5 383.13,-171.5 383.13,-171.5"/>
<polygon fill="#4caf50" stroke="#4caf50" stroke-width="1.5" points="383.13,-175 393.13,-171.5 383.13,-168 383.13,-175"/>
</g>
<!-- zeabur -->
<g id="node3" class="node">
<title>zeabur</title>
<polygon fill="#4caf50" stroke="black" points="414,-279 360,-279 360,-243 414,-243 414,-279"/>
<text xml:space="preserve" text-anchor="middle" x="387" y="-264.05" font-family="Arial" font-size="11.00" fill="white">Zeabur</text>
<text xml:space="preserve" text-anchor="middle" x="387" y="-250.55" font-family="Arial" font-size="11.00" fill="white">Deploy</text>
</g>
<!-- zeabur&#45;&gt;core -->
<g id="edge3" class="edge">
<title>zeabur&#45;&gt;core</title>
<path fill="none" stroke="#4caf50" stroke-width="1.5" d="M404.94,-242.9C404.94,-242.9 404.94,-190.65 404.94,-190.65"/>
<polygon fill="#4caf50" stroke="#4caf50" stroke-width="1.5" points="408.44,-190.65 404.94,-180.65 401.44,-190.65 408.44,-190.65"/>
</g>
<!-- sealos -->
<g id="node4" class="node">
<title>sealos</title>
<polygon fill="#4caf50" stroke="black" points="504,-279 450,-279 450,-243 504,-243 504,-279"/>
<text xml:space="preserve" text-anchor="middle" x="477" y="-264.05" font-family="Arial" font-size="11.00" fill="white">Sealos</text>
<text xml:space="preserve" text-anchor="middle" x="477" y="-250.55" font-family="Arial" font-size="11.00" fill="white">Deploy</text>
</g>
<!-- sealos&#45;&gt;core -->
<g id="edge4" class="edge">
<title>sealos&#45;&gt;core</title>
<path fill="none" stroke="#4caf50" stroke-width="1.5" d="M459.06,-242.9C459.06,-242.9 459.06,-190.65 459.06,-190.65"/>
<polygon fill="#4caf50" stroke="#4caf50" stroke-width="1.5" points="462.56,-190.65 459.06,-180.65 455.56,-190.65 462.56,-190.65"/>
</g>
<!-- helm -->
<g id="node5" class="node">
<title>helm</title>
<polygon fill="#4caf50" stroke="black" points="611.75,-279 540.25,-279 540.25,-243 611.75,-243 611.75,-279"/>
<text xml:space="preserve" text-anchor="middle" x="576" y="-264.05" font-family="Arial" font-size="11.00" fill="white">Kubernetes</text>
<text xml:space="preserve" text-anchor="middle" x="576" y="-250.55" font-family="Arial" font-size="11.00" fill="white">(Helm)</text>
</g>
<!-- helm&#45;&gt;core -->
<g id="edge5" class="edge">
<title>helm&#45;&gt;core</title>
<path fill="none" stroke="#4caf50" stroke-width="1.5" d="M549.69,-242.89C549.69,-216.74 549.69,-171.5 549.69,-171.5 549.69,-171.5 480.86,-171.5 480.86,-171.5"/>
<polygon fill="#4caf50" stroke="#4caf50" stroke-width="1.5" points="480.86,-168 470.86,-171.5 480.86,-175 480.86,-168"/>
</g>
<!-- local -->
<g id="node6" class="node">
<title>local</title>
<polygon fill="#4caf50" stroke="black" points="718.38,-279 647.62,-279 647.62,-243 718.38,-243 718.38,-279"/>
<text xml:space="preserve" text-anchor="middle" x="683" y="-264.05" font-family="Arial" font-size="11.00" fill="white">Local</text>
<text xml:space="preserve" text-anchor="middle" x="683" y="-250.55" font-family="Arial" font-size="11.00" fill="white">Dev Server</text>
</g>
<!-- local&#45;&gt;core -->
<g id="edge6" class="edge">
<title>local&#45;&gt;core</title>
<path fill="none" stroke="#4caf50" stroke-width="1.5" d="M668.88,-242.59C668.88,-214.84 668.88,-165.5 668.88,-165.5 668.88,-165.5 480.76,-165.5 480.76,-165.5"/>
<polygon fill="#4caf50" stroke="#4caf50" stroke-width="1.5" points="480.76,-162 470.76,-165.5 480.76,-169 480.76,-162"/>
</g>
<!-- ollama -->
<g id="node8" class="node">
<title>ollama</title>
<path fill="#ff9800" stroke="black" d="M65.88,-76.5C65.88,-76.5 28.12,-76.5 28.12,-76.5 22.12,-76.5 16.12,-70.5 16.12,-64.5 16.12,-64.5 16.12,-52.5 16.12,-52.5 16.12,-46.5 22.12,-40.5 28.12,-40.5 28.12,-40.5 65.88,-40.5 65.88,-40.5 71.88,-40.5 77.88,-46.5 77.88,-52.5 77.88,-52.5 77.88,-64.5 77.88,-64.5 77.88,-70.5 71.88,-76.5 65.88,-76.5"/>
<text xml:space="preserve" text-anchor="middle" x="47" y="-61.55" font-family="Arial" font-size="11.00" fill="white">Ollama</text>
<text xml:space="preserve" text-anchor="middle" x="47" y="-48.05" font-family="Arial" font-size="11.00" fill="white">(Local AI)</text>
</g>
<!-- core&#45;&gt;ollama -->
<g id="edge7" class="edge">
<title>core&#45;&gt;ollama</title>
<path fill="none" stroke="#ff9800" stroke-width="1.5" d="M395.43,-159.5C299.33,-159.5 47,-159.5 47,-159.5 47,-159.5 47,-88.83 47,-88.83"/>
<polygon fill="#ff9800" stroke="#ff9800" stroke-width="1.5" points="50.5,-88.83 47,-78.83 43.5,-88.83 50.5,-88.83"/>
</g>
<!-- openrouter -->
<g id="node9" class="node">
<title>openrouter</title>
<path fill="#ff9800" stroke="black" d="M179.75,-76.5C179.75,-76.5 126.25,-76.5 126.25,-76.5 120.25,-76.5 114.25,-70.5 114.25,-64.5 114.25,-64.5 114.25,-52.5 114.25,-52.5 114.25,-46.5 120.25,-40.5 126.25,-40.5 126.25,-40.5 179.75,-40.5 179.75,-40.5 185.75,-40.5 191.75,-46.5 191.75,-52.5 191.75,-52.5 191.75,-64.5 191.75,-64.5 191.75,-70.5 185.75,-76.5 179.75,-76.5"/>
<text xml:space="preserve" text-anchor="middle" x="153" y="-61.55" font-family="Arial" font-size="11.00" fill="white">OpenRouter</text>
<text xml:space="preserve" text-anchor="middle" x="153" y="-48.05" font-family="Arial" font-size="11.00" fill="white">(Aggregator)</text>
</g>
<!-- core&#45;&gt;openrouter -->
<g id="edge8" class="edge">
<title>core&#45;&gt;openrouter</title>
<path fill="none" stroke="#ff9800" stroke-width="1.5" d="M395.61,-153.5C326.21,-153.5 181.75,-153.5 181.75,-153.5 181.75,-153.5 181.75,-89.09 181.75,-89.09"/>
<polygon fill="#ff9800" stroke="#ff9800" stroke-width="1.5" points="185.25,-89.09 181.75,-79.09 178.25,-89.09 185.25,-89.09"/>
</g>
<!-- helicone -->
<g id="node10" class="node">
<title>helicone</title>
<path fill="#ff9800" stroke="black" d="M300.5,-76.5C300.5,-76.5 239.5,-76.5 239.5,-76.5 233.5,-76.5 227.5,-70.5 227.5,-64.5 227.5,-64.5 227.5,-52.5 227.5,-52.5 227.5,-46.5 233.5,-40.5 239.5,-40.5 239.5,-40.5 300.5,-40.5 300.5,-40.5 306.5,-40.5 312.5,-46.5 312.5,-52.5 312.5,-52.5 312.5,-64.5 312.5,-64.5 312.5,-70.5 306.5,-76.5 300.5,-76.5"/>
<text xml:space="preserve" text-anchor="middle" x="270" y="-61.55" font-family="Arial" font-size="11.00" fill="white">Helicone</text>
<text xml:space="preserve" text-anchor="middle" x="270" y="-48.05" font-family="Arial" font-size="11.00" fill="white">(Observability)</text>
</g>
<!-- core&#45;&gt;helicone -->
<g id="edge9" class="edge">
<title>core&#45;&gt;helicone</title>
<path fill="none" stroke="#ff9800" stroke-width="1.5" d="M395.74,-147.5C354.02,-147.5 291.19,-147.5 291.19,-147.5 291.19,-147.5 291.19,-89.21 291.19,-89.21"/>
<polygon fill="#ff9800" stroke="#ff9800" stroke-width="1.5" points="294.69,-89.21 291.19,-79.21 287.69,-89.21 294.69,-89.21"/>
</g>
<!-- perplexity -->
<g id="node11" class="node">
<title>perplexity</title>
<path fill="#ff9800" stroke="black" d="M399.62,-76.5C399.62,-76.5 360.38,-76.5 360.38,-76.5 354.38,-76.5 348.38,-70.5 348.38,-64.5 348.38,-64.5 348.38,-52.5 348.38,-52.5 348.38,-46.5 354.38,-40.5 360.38,-40.5 360.38,-40.5 399.62,-40.5 399.62,-40.5 405.62,-40.5 411.62,-46.5 411.62,-52.5 411.62,-52.5 411.62,-64.5 411.62,-64.5 411.62,-70.5 405.62,-76.5 399.62,-76.5"/>
<text xml:space="preserve" text-anchor="middle" x="380" y="-61.55" font-family="Arial" font-size="11.00" fill="white">Perplexity</text>
<text xml:space="preserve" text-anchor="middle" x="380" y="-48.05" font-family="Arial" font-size="11.00" fill="white">(Search)</text>
</g>
<!-- core&#45;&gt;perplexity -->
<g id="edge10" class="edge">
<title>core&#45;&gt;perplexity</title>
<path fill="none" stroke="#ff9800" stroke-width="1.5" d="M403.75,-141.18C403.75,-141.18 403.75,-89.22 403.75,-89.22"/>
<polygon fill="#ff9800" stroke="#ff9800" stroke-width="1.5" points="407.25,-89.22 403.75,-79.22 400.25,-89.22 407.25,-89.22"/>
</g>
<!-- deepseek -->
<g id="node12" class="node">
<title>deepseek</title>
<path fill="#ff9800" stroke="black" d="M510.62,-76.5C510.62,-76.5 459.38,-76.5 459.38,-76.5 453.38,-76.5 447.38,-70.5 447.38,-64.5 447.38,-64.5 447.38,-52.5 447.38,-52.5 447.38,-46.5 453.38,-40.5 459.38,-40.5 459.38,-40.5 510.62,-40.5 510.62,-40.5 516.62,-40.5 522.62,-46.5 522.62,-52.5 522.62,-52.5 522.62,-64.5 522.62,-64.5 522.62,-70.5 516.62,-76.5 510.62,-76.5"/>
<text xml:space="preserve" text-anchor="middle" x="485" y="-61.55" font-family="Arial" font-size="11.00" fill="white">DeepSeek</text>
<text xml:space="preserve" text-anchor="middle" x="485" y="-48.05" font-family="Arial" font-size="11.00" fill="white">(Reasoning)</text>
</g>
<!-- core&#45;&gt;deepseek -->
<g id="edge11" class="edge">
<title>core&#45;&gt;deepseek</title>
<path fill="none" stroke="#ff9800" stroke-width="1.5" d="M457.75,-141.18C457.75,-141.18 457.75,-89.22 457.75,-89.22"/>
<polygon fill="#ff9800" stroke="#ff9800" stroke-width="1.5" points="461.25,-89.22 457.75,-79.22 454.25,-89.22 461.25,-89.22"/>
</g>
<!-- dalle -->
<g id="node13" class="node">
<title>dalle</title>
<path fill="#ff9800" stroke="black" d="M638.88,-76.5C638.88,-76.5 571.12,-76.5 571.12,-76.5 565.12,-76.5 559.12,-70.5 559.12,-64.5 559.12,-64.5 559.12,-52.5 559.12,-52.5 559.12,-46.5 565.12,-40.5 571.12,-40.5 571.12,-40.5 638.88,-40.5 638.88,-40.5 644.88,-40.5 650.88,-46.5 650.88,-52.5 650.88,-52.5 650.88,-64.5 650.88,-64.5 650.88,-70.5 644.88,-76.5 638.88,-76.5"/>
<text xml:space="preserve" text-anchor="middle" x="605" y="-61.55" font-family="Arial" font-size="11.00" fill="white">DALL&#45;E /</text>
<text xml:space="preserve" text-anchor="middle" x="605" y="-48.05" font-family="Arial" font-size="11.00" fill="white">Stable Diffusion</text>
</g>
<!-- core&#45;&gt;dalle -->
<g id="edge12" class="edge">
<title>core&#45;&gt;dalle</title>
<path fill="none" stroke="#ff9800" stroke-width="1.5" d="M468.36,-147.5C513.74,-147.5 585.44,-147.5 585.44,-147.5 585.44,-147.5 585.44,-89.21 585.44,-89.21"/>
<polygon fill="#ff9800" stroke="#ff9800" stroke-width="1.5" points="588.94,-89.21 585.44,-79.21 581.94,-89.21 588.94,-89.21"/>
</g>
<!-- elevenlabs -->
<g id="node14" class="node">
<title>elevenlabs</title>
<path fill="#ff9800" stroke="black" d="M747.12,-76.5C747.12,-76.5 698.88,-76.5 698.88,-76.5 692.88,-76.5 686.88,-70.5 686.88,-64.5 686.88,-64.5 686.88,-52.5 686.88,-52.5 686.88,-46.5 692.88,-40.5 698.88,-40.5 698.88,-40.5 747.12,-40.5 747.12,-40.5 753.12,-40.5 759.12,-46.5 759.12,-52.5 759.12,-52.5 759.12,-64.5 759.12,-64.5 759.12,-70.5 753.12,-76.5 747.12,-76.5"/>
<text xml:space="preserve" text-anchor="middle" x="723" y="-61.55" font-family="Arial" font-size="11.00" fill="white">ElevenLabs</text>
<text xml:space="preserve" text-anchor="middle" x="723" y="-48.05" font-family="Arial" font-size="11.00" fill="white">(Voice)</text>
</g>
<!-- core&#45;&gt;elevenlabs -->
<g id="edge13" class="edge">
<title>core&#45;&gt;elevenlabs</title>
<path fill="none" stroke="#ff9800" stroke-width="1.5" d="M468.5,-153.5C542.37,-153.5 702.62,-153.5 702.62,-153.5 702.62,-153.5 702.62,-89.09 702.62,-89.09"/>
<polygon fill="#ff9800" stroke="#ff9800" stroke-width="1.5" points="706.13,-89.09 702.63,-79.09 699.13,-89.09 706.13,-89.09"/>
</g>
<!-- jina -->
<g id="node15" class="node">
<title>jina</title>
<path fill="#ff9800" stroke="black" d="M856.5,-76.5C856.5,-76.5 807.5,-76.5 807.5,-76.5 801.5,-76.5 795.5,-70.5 795.5,-64.5 795.5,-64.5 795.5,-52.5 795.5,-52.5 795.5,-46.5 801.5,-40.5 807.5,-40.5 807.5,-40.5 856.5,-40.5 856.5,-40.5 862.5,-40.5 868.5,-46.5 868.5,-52.5 868.5,-52.5 868.5,-64.5 868.5,-64.5 868.5,-70.5 862.5,-76.5 856.5,-76.5"/>
<text xml:space="preserve" text-anchor="middle" x="832" y="-61.55" font-family="Arial" font-size="11.00" fill="white">Jina AI</text>
<text xml:space="preserve" text-anchor="middle" x="832" y="-48.05" font-family="Arial" font-size="11.00" fill="white">(Reranking)</text>
</g>
<!-- core&#45;&gt;jina -->
<g id="edge14" class="edge">
<title>core&#45;&gt;jina</title>
<path fill="none" stroke="#ff9800" stroke-width="1.5" d="M468.56,-159.5C567.3,-159.5 832,-159.5 832,-159.5 832,-159.5 832,-88.83 832,-88.83"/>
<polygon fill="#ff9800" stroke="#ff9800" stroke-width="1.5" points="835.5,-88.83 832,-78.83 828.5,-88.83 835.5,-88.83"/>
</g>
</g>
</svg>
