<?xml version="1.0" encoding="UTF-8" standalone="no"?>
<!DOCTYPE svg PUBLIC "-//W3C//DTD SVG 1.1//EN"
 "http://www.w3.org/Graphics/SVG/1.1/DTD/svg11.dtd">
<!-- Generated by graphviz version 14.1.2 (0)
 -->
<!-- Title: G Pages: 1 -->
<svg width="511pt" height="1821pt"
 viewBox="0.00 0.00 511.00 1821.00" xmlns="http://www.w3.org/2000/svg" xmlns:xlink="http://www.w3.org/1999/xlink">
<g id="graph0" class="graph" transform="scale(1 1) rotate(0) translate(36 1785)">
<title>G</title>
<polygon fill="white" stroke="none" points="-36,36 -36,-1785 475.4,-1785 475.4,36 -36,36"/>
<!-- center -->
<g id="node1" class="node">
<title>center</title>
<path fill="#f3e5f5" stroke="#7b1fa2" stroke-width="2" d="M146.4,-760C146.4,-760 12,-760 12,-760 6,-760 0,-754 0,-748 0,-748 0,-700 0,-700 0,-694 6,-688 12,-688 12,-688 146.4,-688 146.4,-688 152.4,-688 158.4,-694 158.4,-700 158.4,-700 158.4,-748 158.4,-748 158.4,-754 152.4,-760 146.4,-760"/>
<text xml:space="preserve" text-anchor="middle" x="79.2" y="-733.98" font-family="Arial" font-size="12.00">HackingTool&#45;Plugin</text>
<text xml:space="preserve" text-anchor="middle" x="79.2" y="-719.73" font-family="Arial" font-size="12.00">183 Tools</text>
<text xml:space="preserve" text-anchor="middle" x="79.2" y="-705.48" font-family="Arial" font-size="12.00">20+ Categories</text>
</g>
<!-- info_gather -->
<g id="node2" class="node">
<title>info_gather</title>
<path fill="#e3f2fd" stroke="#1565c0" stroke-width="1.5" d="M291.4,-1623C291.4,-1623 250.65,-1623 250.65,-1623 244.65,-1623 238.65,-1617 238.65,-1611 238.65,-1611 238.65,-1591 238.65,-1591 238.65,-1585 244.65,-1579 250.65,-1579 250.65,-1579 291.4,-1579 291.4,-1579 297.4,-1579 303.4,-1585 303.4,-1591 303.4,-1591 303.4,-1611 303.4,-1611 303.4,-1617 297.4,-1623 291.4,-1623"/>
<text xml:space="preserve" text-anchor="middle" x="271.02" y="-1609.5" font-family="Arial" font-size="10.00">Information</text>
<text xml:space="preserve" text-anchor="middle" x="271.02" y="-1597.5" font-family="Arial" font-size="10.00">Gathering</text>
<text xml:space="preserve" text-anchor="middle" x="271.02" y="-1585.5" font-family="Arial" font-size="10.00">(26 tools)</text>
</g>
<!-- center&#45;&gt;info_gather -->
<g id="edge1" class="edge">
<title>center&#45;&gt;info_gather</title>
<path fill="none" stroke="#7b1fa2" stroke-width="1.2" d="M14.4,-760.84C14.4,-927.3 14.4,-1601 14.4,-1601 14.4,-1601 226.18,-1601 226.18,-1601"/>
<polygon fill="#7b1fa2" stroke="#7b1fa2" stroke-width="1.2" points="226.18,-1604.5 236.18,-1601 226.18,-1597.5 226.18,-1604.5"/>
</g>
<!-- web_attack -->
<g id="node3" class="node">
<title>web_attack</title>
<path fill="#e3f2fd" stroke="#1565c0" stroke-width="1.5" d="M292.15,-1424C292.15,-1424 249.9,-1424 249.9,-1424 243.9,-1424 237.9,-1418 237.9,-1412 237.9,-1412 237.9,-1400 237.9,-1400 237.9,-1394 243.9,-1388 249.9,-1388 249.9,-1388 292.15,-1388 292.15,-1388 298.15,-1388 304.15,-1394 304.15,-1400 304.15,-1400 304.15,-1412 304.15,-1412 304.15,-1418 298.15,-1424 292.15,-1424"/>
<text xml:space="preserve" text-anchor="middle" x="271.02" y="-1408.5" font-family="Arial" font-size="10.00">Web Attack</text>
<text xml:space="preserve" text-anchor="middle" x="271.02" y="-1396.5" font-family="Arial" font-size="10.00">(20 tools)</text>
</g>
<!-- center&#45;&gt;web_attack -->
<g id="edge2" class="edge">
<title>center&#45;&gt;web_attack</title>
<path fill="none" stroke="#7b1fa2" stroke-width="1.2" d="M28.4,-760.67C28.4,-902.33 28.4,-1406 28.4,-1406 28.4,-1406 225.47,-1406 225.47,-1406"/>
<polygon fill="#7b1fa2" stroke="#7b1fa2" stroke-width="1.2" points="225.47,-1409.5 235.47,-1406 225.47,-1402.5 225.47,-1409.5"/>
</g>
<!-- phishing -->
<g id="node4" class="node">
<title>phishing</title>
<path fill="#e3f2fd" stroke="#1565c0" stroke-width="1.5" d="M288.02,-1359C288.02,-1359 254.02,-1359 254.02,-1359 248.02,-1359 242.02,-1353 242.02,-1347 242.02,-1347 242.02,-1327 242.02,-1327 242.02,-1321 248.02,-1315 254.02,-1315 254.02,-1315 288.02,-1315 288.02,-1315 294.02,-1315 300.02,-1321 300.02,-1327 300.02,-1327 300.02,-1347 300.02,-1347 300.02,-1353 294.02,-1359 288.02,-1359"/>
<text xml:space="preserve" text-anchor="middle" x="271.02" y="-1345.5" font-family="Arial" font-size="10.00">Phishing</text>
<text xml:space="preserve" text-anchor="middle" x="271.02" y="-1333.5" font-family="Arial" font-size="10.00">Detection</text>
<text xml:space="preserve" text-anchor="middle" x="271.02" y="-1321.5" font-family="Arial" font-size="10.00">(17 tools)</text>
</g>
<!-- center&#45;&gt;phishing -->
<g id="edge3" class="edge">
<title>center&#45;&gt;phishing</title>
<path fill="none" stroke="#7b1fa2" stroke-width="1.2" d="M43.4,-760.97C43.4,-893.5 43.4,-1337 43.4,-1337 43.4,-1337 229.92,-1337 229.92,-1337"/>
<polygon fill="#7b1fa2" stroke="#7b1fa2" stroke-width="1.2" points="229.92,-1340.5 239.92,-1337 229.92,-1333.5 229.92,-1340.5"/>
</g>
<!-- wireless -->
<g id="node5" class="node">
<title>wireless</title>
<path fill="#e3f2fd" stroke="#1565c0" stroke-width="1.5" d="M287.27,-1286C287.27,-1286 254.77,-1286 254.77,-1286 248.77,-1286 242.77,-1280 242.77,-1274 242.77,-1274 242.77,-1254 242.77,-1254 242.77,-1248 248.77,-1242 254.77,-1242 254.77,-1242 287.27,-1242 287.27,-1242 293.27,-1242 299.27,-1248 299.27,-1254 299.27,-1254 299.27,-1274 299.27,-1274 299.27,-1280 293.27,-1286 287.27,-1286"/>
<text xml:space="preserve" text-anchor="middle" x="271.02" y="-1272.5" font-family="Arial" font-size="10.00">Wireless</text>
<text xml:space="preserve" text-anchor="middle" x="271.02" y="-1260.5" font-family="Arial" font-size="10.00">Audit</text>
<text xml:space="preserve" text-anchor="middle" x="271.02" y="-1248.5" font-family="Arial" font-size="10.00">(13 tools)</text>
</g>
<!-- center&#45;&gt;wireless -->
<g id="edge4" class="edge">
<title>center&#45;&gt;wireless</title>
<path fill="none" stroke="#7b1fa2" stroke-width="1.2" d="M57.4,-760.69C57.4,-882.23 57.4,-1264 57.4,-1264 57.4,-1264 230.4,-1264 230.4,-1264"/>
<polygon fill="#7b1fa2" stroke="#7b1fa2" stroke-width="1.2" points="230.4,-1267.5 240.4,-1264 230.4,-1260.5 230.4,-1267.5"/>
</g>
<!-- wordlist -->
<g id="node6" class="node">
<title>wordlist</title>
<path fill="#e3f2fd" stroke="#1565c0" stroke-width="1.5" d="M288.4,-1213C288.4,-1213 253.65,-1213 253.65,-1213 247.65,-1213 241.65,-1207 241.65,-1201 241.65,-1201 241.65,-1181 241.65,-1181 241.65,-1175 247.65,-1169 253.65,-1169 253.65,-1169 288.4,-1169 288.4,-1169 294.4,-1169 300.4,-1175 300.4,-1181 300.4,-1181 300.4,-1201 300.4,-1201 300.4,-1207 294.4,-1213 288.4,-1213"/>
<text xml:space="preserve" text-anchor="middle" x="271.02" y="-1199.5" font-family="Arial" font-size="10.00">Wordlist</text>
<text xml:space="preserve" text-anchor="middle" x="271.02" y="-1187.5" font-family="Arial" font-size="10.00">Generator</text>
<text xml:space="preserve" text-anchor="middle" x="271.02" y="-1175.5" font-family="Arial" font-size="10.00">(7 tools)</text>
</g>
<!-- center&#45;&gt;wordlist -->
<g id="edge5" class="edge">
<title>center&#45;&gt;wordlist</title>
<path fill="none" stroke="#7b1fa2" stroke-width="1.2" d="M72.4,-760.64C72.4,-870.74 72.4,-1191 72.4,-1191 72.4,-1191 229.47,-1191 229.47,-1191"/>
<polygon fill="#7b1fa2" stroke="#7b1fa2" stroke-width="1.2" points="229.47,-1194.5 239.47,-1191 229.47,-1187.5 229.47,-1194.5"/>
</g>
<!-- sqli -->
<g id="node7" class="node">
<title>sqli</title>
<path fill="#e3f2fd" stroke="#1565c0" stroke-width="1.5" d="M296.65,-1140C296.65,-1140 245.4,-1140 245.4,-1140 239.4,-1140 233.4,-1134 233.4,-1128 233.4,-1128 233.4,-1108 233.4,-1108 233.4,-1102 239.4,-1096 245.4,-1096 245.4,-1096 296.65,-1096 296.65,-1096 302.65,-1096 308.65,-1102 308.65,-1108 308.65,-1108 308.65,-1128 308.65,-1128 308.65,-1134 302.65,-1140 296.65,-1140"/>
<text xml:space="preserve" text-anchor="middle" x="271.02" y="-1126.5" font-family="Arial" font-size="10.00">SQL Injection</text>
<text xml:space="preserve" text-anchor="middle" x="271.02" y="-1114.5" font-family="Arial" font-size="10.00">Testing</text>
<text xml:space="preserve" text-anchor="middle" x="271.02" y="-1102.5" font-family="Arial" font-size="10.00">(7 tools)</text>
</g>
<!-- center&#45;&gt;sqli -->
<g id="edge6" class="edge">
<title>center&#45;&gt;sqli</title>
<path fill="none" stroke="#7b1fa2" stroke-width="1.2" d="M86.4,-760.71C86.4,-858.52 86.4,-1118 86.4,-1118 86.4,-1118 220.95,-1118 220.95,-1118"/>
<polygon fill="#7b1fa2" stroke="#7b1fa2" stroke-width="1.2" points="220.95,-1121.5 230.95,-1118 220.95,-1114.5 220.95,-1121.5"/>
</g>
<!-- post_exploit -->
<g id="node8" class="node">
<title>post_exploit</title>
<path fill="#e3f2fd" stroke="#1565c0" stroke-width="1.5" d="M292.52,-1067C292.52,-1067 249.52,-1067 249.52,-1067 243.52,-1067 237.52,-1061 237.52,-1055 237.52,-1055 237.52,-1035 237.52,-1035 237.52,-1029 243.52,-1023 249.52,-1023 249.52,-1023 292.52,-1023 292.52,-1023 298.52,-1023 304.52,-1029 304.52,-1035 304.52,-1035 304.52,-1055 304.52,-1055 304.52,-1061 298.52,-1067 292.52,-1067"/>
<text xml:space="preserve" text-anchor="middle" x="271.02" y="-1053.5" font-family="Arial" font-size="10.00">Post</text>
<text xml:space="preserve" text-anchor="middle" x="271.02" y="-1041.5" font-family="Arial" font-size="10.00">Exploitation</text>
<text xml:space="preserve" text-anchor="middle" x="271.02" y="-1029.5" font-family="Arial" font-size="10.00">(10 tools)</text>
</g>
<!-- center&#45;&gt;post_exploit -->
<g id="edge7" class="edge">
<title>center&#45;&gt;post_exploit</title>
<path fill="none" stroke="#7b1fa2" stroke-width="1.2" d="M100.4,-760.82C100.4,-845.14 100.4,-1045 100.4,-1045 100.4,-1045 225.09,-1045 225.09,-1045"/>
<polygon fill="#7b1fa2" stroke="#7b1fa2" stroke-width="1.2" points="225.09,-1048.5 235.09,-1045 225.09,-1041.5 225.09,-1048.5"/>
</g>
<!-- forensics -->
<g id="node9" class="node">
<title>forensics</title>
<path fill="#e3f2fd" stroke="#1565c0" stroke-width="1.5" d="M288.4,-994C288.4,-994 253.65,-994 253.65,-994 247.65,-994 241.65,-988 241.65,-982 241.65,-982 241.65,-970 241.65,-970 241.65,-964 247.65,-958 253.65,-958 253.65,-958 288.4,-958 288.4,-958 294.4,-958 300.4,-964 300.4,-970 300.4,-970 300.4,-982 300.4,-982 300.4,-988 294.4,-994 288.4,-994"/>
<text xml:space="preserve" text-anchor="middle" x="271.02" y="-978.5" font-family="Arial" font-size="10.00">Forensics</text>
<text xml:space="preserve" text-anchor="middle" x="271.02" y="-966.5" font-family="Arial" font-size="10.00">(8 tools)</text>
</g>
<!-- center&#45;&gt;forensics -->
<g id="edge8" class="edge">
<title>center&#45;&gt;forensics</title>
<path fill="none" stroke="#7b1fa2" stroke-width="1.2" d="M115.4,-760.91C115.4,-830.91 115.4,-976 115.4,-976 115.4,-976 229.2,-976 229.2,-976"/>
<polygon fill="#7b1fa2" stroke="#7b1fa2" stroke-width="1.2" points="229.2,-979.5 239.2,-976 229.2,-972.5 229.2,-979.5"/>
</g>
<!-- payload -->
<g id="node10" class="node">
<title>payload</title>
<path fill="#e3f2fd" stroke="#1565c0" stroke-width="1.5" d="M286.02,-929C286.02,-929 256.02,-929 256.02,-929 250.02,-929 244.02,-923 244.02,-917 244.02,-917 244.02,-897 244.02,-897 244.02,-891 250.02,-885 256.02,-885 256.02,-885 286.02,-885 286.02,-885 292.02,-885 298.02,-891 298.02,-897 298.02,-897 298.02,-917 298.02,-917 298.02,-923 292.02,-929 286.02,-929"/>
<text xml:space="preserve" text-anchor="middle" x="271.02" y="-915.5" font-family="Arial" font-size="10.00">Payload</text>
<text xml:space="preserve" text-anchor="middle" x="271.02" y="-903.5" font-family="Arial" font-size="10.00">Creation</text>
<text xml:space="preserve" text-anchor="middle" x="271.02" y="-891.5" font-family="Arial" font-size="10.00">(8 tools)</text>
</g>
<!-- center&#45;&gt;payload -->
<g id="edge9" class="edge">
<title>center&#45;&gt;payload</title>
<path fill="none" stroke="#7b1fa2" stroke-width="1.2" d="M129.4,-760.59C129.4,-814 129.4,-907 129.4,-907 129.4,-907 231.57,-907 231.57,-907"/>
<polygon fill="#7b1fa2" stroke="#7b1fa2" stroke-width="1.2" points="231.57,-910.5 241.57,-907 231.57,-903.5 231.57,-910.5"/>
</g>
<!-- ad -->
<g id="node11" class="node">
<title>ad</title>
<path fill="#e3f2fd" stroke="#1565c0" stroke-width="1.5" d="M286.9,-856C286.9,-856 255.15,-856 255.15,-856 249.15,-856 243.15,-850 243.15,-844 243.15,-844 243.15,-824 243.15,-824 243.15,-818 249.15,-812 255.15,-812 255.15,-812 286.9,-812 286.9,-812 292.9,-812 298.9,-818 298.9,-824 298.9,-824 298.9,-844 298.9,-844 298.9,-850 292.9,-856 286.9,-856"/>
<text xml:space="preserve" text-anchor="middle" x="271.02" y="-842.5" font-family="Arial" font-size="10.00">Active</text>
<text xml:space="preserve" text-anchor="middle" x="271.02" y="-830.5" font-family="Arial" font-size="10.00">Directory</text>
<text xml:space="preserve" text-anchor="middle" x="271.02" y="-818.5" font-family="Arial" font-size="10.00">(6 tools)</text>
</g>
<!-- center&#45;&gt;ad -->
<g id="edge10" class="edge">
<title>center&#45;&gt;ad</title>
<path fill="none" stroke="#7b1fa2" stroke-width="1.2" d="M144.4,-760.93C144.4,-792.89 144.4,-834 144.4,-834 144.4,-834 230.79,-834 230.79,-834"/>
<polygon fill="#7b1fa2" stroke="#7b1fa2" stroke-width="1.2" points="230.79,-837.5 240.79,-834 230.79,-830.5 230.79,-837.5"/>
</g>
<!-- cloud -->
<g id="node12" class="node">
<title>cloud</title>
<path fill="#e3f2fd" stroke="#1565c0" stroke-width="1.5" d="M286.02,-783C286.02,-783 256.02,-783 256.02,-783 250.02,-783 244.02,-777 244.02,-771 244.02,-771 244.02,-751 244.02,-751 244.02,-745 250.02,-739 256.02,-739 256.02,-739 286.02,-739 286.02,-739 292.02,-739 298.02,-745 298.02,-751 298.02,-751 298.02,-771 298.02,-771 298.02,-777 292.02,-783 286.02,-783"/>
<text xml:space="preserve" text-anchor="middle" x="271.02" y="-769.5" font-family="Arial" font-size="10.00">Cloud</text>
<text xml:space="preserve" text-anchor="middle" x="271.02" y="-757.5" font-family="Arial" font-size="10.00">Security</text>
<text xml:space="preserve" text-anchor="middle" x="271.02" y="-745.5" font-family="Arial" font-size="10.00">(4 tools)</text>
</g>
<!-- center&#45;&gt;cloud -->
<g id="edge11" class="edge">
<title>center&#45;&gt;cloud</title>
<path fill="none" stroke="#7b1fa2" stroke-width="1.2" d="M159.16,-749.5C159.16,-749.5 231.62,-749.5 231.62,-749.5"/>
<polygon fill="#7b1fa2" stroke="#7b1fa2" stroke-width="1.2" points="231.62,-753 241.62,-749.5 231.62,-746 231.62,-753"/>
</g>
<!-- mobile -->
<g id="node13" class="node">
<title>mobile</title>
<path fill="#e3f2fd" stroke="#1565c0" stroke-width="1.5" d="M286.02,-710C286.02,-710 256.02,-710 256.02,-710 250.02,-710 244.02,-704 244.02,-698 244.02,-698 244.02,-678 244.02,-678 244.02,-672 250.02,-666 256.02,-666 256.02,-666 286.02,-666 286.02,-666 292.02,-666 298.02,-672 298.02,-678 298.02,-678 298.02,-698 298.02,-698 298.02,-704 292.02,-710 286.02,-710"/>
<text xml:space="preserve" text-anchor="middle" x="271.02" y="-696.5" font-family="Arial" font-size="10.00">Mobile</text>
<text xml:space="preserve" text-anchor="middle" x="271.02" y="-684.5" font-family="Arial" font-size="10.00">Security</text>
<text xml:space="preserve" text-anchor="middle" x="271.02" y="-672.5" font-family="Arial" font-size="10.00">(3 tools)</text>
</g>
<!-- center&#45;&gt;mobile -->
<g id="edge12" class="edge">
<title>center&#45;&gt;mobile</title>
<path fill="none" stroke="#7b1fa2" stroke-width="1.2" d="M159.16,-699C159.16,-699 231.62,-699 231.62,-699"/>
<polygon fill="#7b1fa2" stroke="#7b1fa2" stroke-width="1.2" points="231.62,-702.5 241.62,-699 231.62,-695.5 231.62,-702.5"/>
</g>
<!-- xss -->
<g id="node14" class="node">
<title>xss</title>
<path fill="#e3f2fd" stroke="#1565c0" stroke-width="1.5" d="M286.02,-637C286.02,-637 256.02,-637 256.02,-637 250.02,-637 244.02,-631 244.02,-625 244.02,-625 244.02,-605 244.02,-605 244.02,-599 250.02,-593 256.02,-593 256.02,-593 286.02,-593 286.02,-593 292.02,-593 298.02,-599 298.02,-605 298.02,-605 298.02,-625 298.02,-625 298.02,-631 292.02,-637 286.02,-637"/>
<text xml:space="preserve" text-anchor="middle" x="271.02" y="-623.5" font-family="Arial" font-size="10.00">XSS</text>
<text xml:space="preserve" text-anchor="middle" x="271.02" y="-611.5" font-family="Arial" font-size="10.00">Testing</text>
<text xml:space="preserve" text-anchor="middle" x="271.02" y="-599.5" font-family="Arial" font-size="10.00">(9 tools)</text>
</g>
<!-- center&#45;&gt;xss -->
<g id="edge13" class="edge">
<title>center&#45;&gt;xss</title>
<path fill="none" stroke="#7b1fa2" stroke-width="1.2" d="M144.4,-687.1C144.4,-655.48 144.4,-615 144.4,-615 144.4,-615 231.73,-615 231.73,-615"/>
<polygon fill="#7b1fa2" stroke="#7b1fa2" stroke-width="1.2" points="231.73,-618.5 241.73,-615 231.73,-611.5 231.73,-618.5"/>
</g>
<!-- re -->
<g id="node15" class="node">
<title>re</title>
<path fill="#e3f2fd" stroke="#1565c0" stroke-width="1.5" d="M292.52,-564C292.52,-564 249.52,-564 249.52,-564 243.52,-564 237.52,-558 237.52,-552 237.52,-552 237.52,-532 237.52,-532 237.52,-526 243.52,-520 249.52,-520 249.52,-520 292.52,-520 292.52,-520 298.52,-520 304.52,-526 304.52,-532 304.52,-532 304.52,-552 304.52,-552 304.52,-558 298.52,-564 292.52,-564"/>
<text xml:space="preserve" text-anchor="middle" x="271.02" y="-550.5" font-family="Arial" font-size="10.00">Reverse</text>
<text xml:space="preserve" text-anchor="middle" x="271.02" y="-538.5" font-family="Arial" font-size="10.00">Engineering</text>
<text xml:space="preserve" text-anchor="middle" x="271.02" y="-526.5" font-family="Arial" font-size="10.00">(5 tools)</text>
</g>
<!-- center&#45;&gt;re -->
<g id="edge14" class="edge">
<title>center&#45;&gt;re</title>
<path fill="none" stroke="#7b1fa2" stroke-width="1.2" d="M129.4,-687.17C129.4,-633.99 129.4,-542 129.4,-542 129.4,-542 225.29,-542 225.29,-542"/>
<polygon fill="#7b1fa2" stroke="#7b1fa2" stroke-width="1.2" points="225.29,-545.5 235.29,-542 225.29,-538.5 225.29,-545.5"/>
</g>
<!-- stego -->
<g id="node16" class="node">
<title>stego</title>
<path fill="#e3f2fd" stroke="#1565c0" stroke-width="1.5" d="M299.65,-491C299.65,-491 242.4,-491 242.4,-491 236.4,-491 230.4,-485 230.4,-479 230.4,-479 230.4,-467 230.4,-467 230.4,-461 236.4,-455 242.4,-455 242.4,-455 299.65,-455 299.65,-455 305.65,-455 311.65,-461 311.65,-467 311.65,-467 311.65,-479 311.65,-479 311.65,-485 305.65,-491 299.65,-491"/>
<text xml:space="preserve" text-anchor="middle" x="271.02" y="-475.5" font-family="Arial" font-size="10.00">Steganography</text>
<text xml:space="preserve" text-anchor="middle" x="271.02" y="-463.5" font-family="Arial" font-size="10.00">(4 tools)</text>
</g>
<!-- center&#45;&gt;stego -->
<g id="edge15" class="edge">
<title>center&#45;&gt;stego</title>
<path fill="none" stroke="#7b1fa2" stroke-width="1.2" d="M115.4,-687.23C115.4,-617.52 115.4,-473 115.4,-473 115.4,-473 217.91,-473 217.91,-473"/>
<polygon fill="#7b1fa2" stroke="#7b1fa2" stroke-width="1.2" points="217.91,-476.5 227.91,-473 217.91,-469.5 217.91,-476.5"/>
</g>
<!-- auto_backend -->
<g id="node17" class="node">
<title>auto_backend</title>
<path fill="#fff3e0" stroke="#e65100" stroke-width="1.2" d="M295.52,-426C295.52,-426 246.52,-426 246.52,-426 240.52,-426 234.52,-420 234.52,-414 234.52,-414 234.52,-402 234.52,-402 234.52,-396 240.52,-390 246.52,-390 246.52,-390 295.52,-390 295.52,-390 301.52,-390 307.52,-396 307.52,-402 307.52,-402 307.52,-414 307.52,-414 307.52,-420 301.52,-426 295.52,-426"/>
<text xml:space="preserve" text-anchor="middle" x="271.02" y="-409.95" font-family="Arial" font-size="9.00">Auto Backend</text>
<text xml:space="preserve" text-anchor="middle" x="271.02" y="-399.45" font-family="Arial" font-size="9.00">Detection</text>
</g>
<!-- center&#45;&gt;auto_backend -->
<g id="edge16" class="edge">
<title>center&#45;&gt;auto_backend</title>
<path fill="none" stroke="#e65100" stroke-width="1.2" stroke-dasharray="5,2" d="M100.4,-687.13C100.4,-603.78 100.4,-408 100.4,-408 100.4,-408 222.19,-408 222.19,-408"/>
<polygon fill="#e65100" stroke="#e65100" stroke-width="1.2" points="222.19,-411.5 232.19,-408 222.19,-404.5 222.19,-411.5"/>
</g>
<!-- docker_images -->
<g id="node18" class="node">
<title>docker_images</title>
<path fill="#fff3e0" stroke="#e65100" stroke-width="1.2" d="M297.77,-361C297.77,-361 244.27,-361 244.27,-361 238.27,-361 232.27,-355 232.27,-349 232.27,-349 232.27,-337 232.27,-337 232.27,-331 238.27,-325 244.27,-325 244.27,-325 297.77,-325 297.77,-325 303.77,-325 309.77,-331 309.77,-337 309.77,-337 309.77,-349 309.77,-349 309.77,-355 303.77,-361 297.77,-361"/>
<text xml:space="preserve" text-anchor="middle" x="271.02" y="-344.95" font-family="Arial" font-size="9.00">Purpose&#45;Built</text>
<text xml:space="preserve" text-anchor="middle" x="271.02" y="-334.45" font-family="Arial" font-size="9.00">Docker Images</text>
</g>
<!-- center&#45;&gt;docker_images -->
<g id="edge17" class="edge">
<title>center&#45;&gt;docker_images</title>
<path fill="none" stroke="#e65100" stroke-width="1.2" stroke-dasharray="5,2" d="M86.4,-687.12C86.4,-591.51 86.4,-343 86.4,-343 86.4,-343 220.05,-343 220.05,-343"/>
<polygon fill="#e65100" stroke="#e65100" stroke-width="1.2" points="220.05,-346.5 230.05,-343 220.05,-339.5 220.05,-346.5"/>
</g>
<!-- json_output -->
<g id="node19" class="node">
<title>json_output</title>
<path fill="#fff3e0" stroke="#e65100" stroke-width="1.2" d="M293.65,-296C293.65,-296 248.4,-296 248.4,-296 242.4,-296 236.4,-290 236.4,-284 236.4,-284 236.4,-272 236.4,-272 236.4,-266 242.4,-260 248.4,-260 248.4,-260 293.65,-260 293.65,-260 299.65,-260 305.65,-266 305.65,-272 305.65,-272 305.65,-284 305.65,-284 305.65,-290 299.65,-296 293.65,-296"/>
<text xml:space="preserve" text-anchor="middle" x="271.02" y="-279.95" font-family="Arial" font-size="9.00">Structured</text>
<text xml:space="preserve" text-anchor="middle" x="271.02" y="-269.45" font-family="Arial" font-size="9.00">JSON Output</text>
</g>
<!-- center&#45;&gt;json_output -->
<g id="edge18" class="edge">
<title>center&#45;&gt;json_output</title>
<path fill="none" stroke="#e65100" stroke-width="1.2" stroke-dasharray="5,2" d="M72.4,-687.12C72.4,-580.27 72.4,-278 72.4,-278 72.4,-278 224.16,-278 224.16,-278"/>
<polygon fill="#e65100" stroke="#e65100" stroke-width="1.2" points="224.16,-281.5 234.16,-278 224.16,-274.5 224.16,-281.5"/>
</g>
<!-- sudo_retry -->
<g id="node20" class="node">
<title>sudo_retry</title>
<path fill="#fff3e0" stroke="#e65100" stroke-width="1.2" d="M288.4,-231C288.4,-231 253.65,-231 253.65,-231 247.65,-231 241.65,-225 241.65,-219 241.65,-219 241.65,-207 241.65,-207 241.65,-201 247.65,-195 253.65,-195 253.65,-195 288.4,-195 288.4,-195 294.4,-195 300.4,-201 300.4,-207 300.4,-207 300.4,-219 300.4,-219 300.4,-225 294.4,-231 288.4,-231"/>
<text xml:space="preserve" text-anchor="middle" x="271.02" y="-214.95" font-family="Arial" font-size="9.00">Auto Sudo</text>
<text xml:space="preserve" text-anchor="middle" x="271.02" y="-204.45" font-family="Arial" font-size="9.00">Retry</text>
</g>
<!-- center&#45;&gt;sudo_retry -->
<g id="edge19" class="edge">
<title>center&#45;&gt;sudo_retry</title>
<path fill="none" stroke="#e65100" stroke-width="1.2" stroke-dasharray="5,2" d="M57.4,-687.25C57.4,-570.08 57.4,-213 57.4,-213 57.4,-213 229.51,-213 229.51,-213"/>
<polygon fill="#e65100" stroke="#e65100" stroke-width="1.2" points="229.51,-216.5 239.51,-213 229.51,-209.5 229.51,-216.5"/>
</g>
<!-- tool_search -->
<g id="node21" class="node">
<title>tool_search</title>
<path fill="#fff3e0" stroke="#e65100" stroke-width="1.2" d="M288.02,-166C288.02,-166 254.02,-166 254.02,-166 248.02,-166 242.02,-160 242.02,-154 242.02,-154 242.02,-142 242.02,-142 242.02,-136 248.02,-130 254.02,-130 254.02,-130 288.02,-130 288.02,-130 294.02,-130 300.02,-136 300.02,-142 300.02,-142 300.02,-154 300.02,-154 300.02,-160 294.02,-166 288.02,-166"/>
<text xml:space="preserve" text-anchor="middle" x="271.02" y="-149.95" font-family="Arial" font-size="9.00">Tool Index</text>
<text xml:space="preserve" text-anchor="middle" x="271.02" y="-139.45" font-family="Arial" font-size="9.00">Search</text>
</g>
<!-- center&#45;&gt;tool_search -->
<g id="edge20" class="edge">
<title>center&#45;&gt;tool_search</title>
<path fill="none" stroke="#e65100" stroke-width="1.2" stroke-dasharray="5,2" d="M43.4,-687.09C43.4,-559.96 43.4,-148 43.4,-148 43.4,-148 229.92,-148 229.92,-148"/>
<polygon fill="#e65100" stroke="#e65100" stroke-width="1.2" points="229.92,-151.5 239.92,-148 229.92,-144.5 229.92,-151.5"/>
</g>
<!-- preflight -->
<g id="node22" class="node">
<title>preflight</title>
<path fill="#fff3e0" stroke="#e65100" stroke-width="1.2" d="M286.02,-101C286.02,-101 256.02,-101 256.02,-101 250.02,-101 244.02,-95 244.02,-89 244.02,-89 244.02,-77 244.02,-77 244.02,-71 250.02,-65 256.02,-65 256.02,-65 286.02,-65 286.02,-65 292.02,-65 298.02,-71 298.02,-77 298.02,-77 298.02,-89 298.02,-89 298.02,-95 292.02,-101 286.02,-101"/>
<text xml:space="preserve" text-anchor="middle" x="271.02" y="-84.95" font-family="Arial" font-size="9.00">Preflight</text>
<text xml:space="preserve" text-anchor="middle" x="271.02" y="-74.45" font-family="Arial" font-size="9.00">Checks</text>
</g>
<!-- center&#45;&gt;preflight -->
<g id="edge21" class="edge">
<title>center&#45;&gt;preflight</title>
<path fill="none" stroke="#e65100" stroke-width="1.2" stroke-dasharray="5,2" d="M28.4,-687.23C28.4,-551.03 28.4,-83 28.4,-83 28.4,-83 231.85,-83 231.85,-83"/>
<polygon fill="#e65100" stroke="#e65100" stroke-width="1.2" points="231.85,-86.5 241.85,-83 231.85,-79.5 231.85,-86.5"/>
</g>
<!-- cross_os -->
<g id="node23" class="node">
<title>cross_os</title>
<path fill="#fff3e0" stroke="#e65100" stroke-width="1.2" d="M286.9,-36C286.9,-36 255.15,-36 255.15,-36 249.15,-36 243.15,-30 243.15,-24 243.15,-24 243.15,-12 243.15,-12 243.15,-6 249.15,0 255.15,0 255.15,0 286.9,0 286.9,0 292.9,0 298.9,-6 298.9,-12 298.9,-12 298.9,-24 298.9,-24 298.9,-30 292.9,-36 286.9,-36"/>
<text xml:space="preserve" text-anchor="middle" x="271.02" y="-19.95" font-family="Arial" font-size="9.00">Cross&#45;OS</text>
<text xml:space="preserve" text-anchor="middle" x="271.02" y="-9.45" font-family="Arial" font-size="9.00">Support</text>
</g>
<!-- center&#45;&gt;cross_os -->
<g id="edge22" class="edge">
<title>center&#45;&gt;cross_os</title>
<path fill="none" stroke="#e65100" stroke-width="1.2" stroke-dasharray="5,2" d="M14.4,-687.04C14.4,-541.77 14.4,-18 14.4,-18 14.4,-18 230.76,-18 230.76,-18"/>
<polygon fill="#e65100" stroke="#e65100" stroke-width="1.2" points="230.76,-21.5 240.76,-18 230.76,-14.5 230.76,-21.5"/>
</g>
<!-- nmap -->
<g id="node24" class="node">
<title>nmap</title>
<path fill="#f1f8e9" stroke="#558b2f" stroke-width="1.2" d="M426.52,-1749C426.52,-1749 396.52,-1749 396.52,-1749 390.52,-1749 384.52,-1743 384.52,-1737 384.52,-1737 384.52,-1725 384.52,-1725 384.52,-1719 390.52,-1713 396.52,-1713 396.52,-1713 426.52,-1713 426.52,-1713 432.52,-1713 438.52,-1719 438.52,-1725 438.52,-1725 438.52,-1737 438.52,-1737 438.52,-1743 432.52,-1749 426.52,-1749"/>
<text xml:space="preserve" text-anchor="middle" x="411.52" y="-1727.7" font-family="Arial" font-size="9.00">Nmap</text>
</g>
<!-- info_gather&#45;&gt;nmap -->
<g id="edge23" class="edge">
<title>info_gather&#45;&gt;nmap</title>
<path fill="none" stroke="#558b2f" d="M260.4,-1623.64C260.4,-1660.89 260.4,-1731 260.4,-1731 260.4,-1731 372.64,-1731 372.64,-1731"/>
<polygon fill="#558b2f" stroke="#558b2f" points="372.64,-1734.5 382.64,-1731 372.64,-1727.5 372.64,-1734.5"/>
</g>
<!-- subfinder -->
<g id="node25" class="node">
<title>subfinder</title>
<path fill="#f1f8e9" stroke="#558b2f" stroke-width="1.2" d="M427.4,-1684C427.4,-1684 395.65,-1684 395.65,-1684 389.65,-1684 383.65,-1678 383.65,-1672 383.65,-1672 383.65,-1660 383.65,-1660 383.65,-1654 389.65,-1648 395.65,-1648 395.65,-1648 427.4,-1648 427.4,-1648 433.4,-1648 439.4,-1654 439.4,-1660 439.4,-1660 439.4,-1672 439.4,-1672 439.4,-1678 433.4,-1684 427.4,-1684"/>
<text xml:space="preserve" text-anchor="middle" x="411.52" y="-1662.7" font-family="Arial" font-size="9.00">Subfinder</text>
</g>
<!-- info_gather&#45;&gt;subfinder -->
<g id="edge24" class="edge">
<title>info_gather&#45;&gt;subfinder</title>
<path fill="none" stroke="#558b2f" d="M281.4,-1623.73C281.4,-1642.48 281.4,-1666 281.4,-1666 281.4,-1666 371.78,-1666 371.78,-1666"/>
<polygon fill="#558b2f" stroke="#558b2f" points="371.78,-1669.5 381.78,-1666 371.78,-1662.5 371.78,-1669.5"/>
</g>
<!-- nuclei -->
<g id="node26" class="node">
<title>nuclei</title>
<path fill="#f1f8e9" stroke="#558b2f" stroke-width="1.2" d="M426.52,-1619C426.52,-1619 396.52,-1619 396.52,-1619 390.52,-1619 384.52,-1613 384.52,-1607 384.52,-1607 384.52,-1595 384.52,-1595 384.52,-1589 390.52,-1583 396.52,-1583 396.52,-1583 426.52,-1583 426.52,-1583 432.52,-1583 438.52,-1589 438.52,-1595 438.52,-1595 438.52,-1607 438.52,-1607 438.52,-1613 432.52,-1619 426.52,-1619"/>
<text xml:space="preserve" text-anchor="middle" x="411.52" y="-1597.7" font-family="Arial" font-size="9.00">Nuclei</text>
</g>
<!-- info_gather&#45;&gt;nuclei -->
<g id="edge25" class="edge">
<title>info_gather&#45;&gt;nuclei</title>
<path fill="none" stroke="#558b2f" d="M303.97,-1601C303.97,-1601 372.48,-1601 372.48,-1601"/>
<polygon fill="#558b2f" stroke="#558b2f" points="372.48,-1604.5 382.48,-1601 372.48,-1597.5 372.48,-1604.5"/>
</g>
<!-- amass -->
<g id="node27" class="node">
<title>amass</title>
<path fill="#f1f8e9" stroke="#558b2f" stroke-width="1.2" d="M426.52,-1554C426.52,-1554 396.52,-1554 396.52,-1554 390.52,-1554 384.52,-1548 384.52,-1542 384.52,-1542 384.52,-1530 384.52,-1530 384.52,-1524 390.52,-1518 396.52,-1518 396.52,-1518 426.52,-1518 426.52,-1518 432.52,-1518 438.52,-1524 438.52,-1530 438.52,-1530 438.52,-1542 438.52,-1542 438.52,-1548 432.52,-1554 426.52,-1554"/>
<text xml:space="preserve" text-anchor="middle" x="411.52" y="-1532.7" font-family="Arial" font-size="9.00">Amass</text>
</g>
<!-- info_gather&#45;&gt;amass -->
<g id="edge26" class="edge">
<title>info_gather&#45;&gt;amass</title>
<path fill="none" stroke="#558b2f" d="M260.4,-1578.27C260.4,-1559.52 260.4,-1536 260.4,-1536 260.4,-1536 372.64,-1536 372.64,-1536"/>
<polygon fill="#558b2f" stroke="#558b2f" points="372.64,-1539.5 382.64,-1536 372.64,-1532.5 372.64,-1539.5"/>
</g>
<!-- ffuf -->
<g id="node28" class="node">
<title>ffuf</title>
<path fill="#f1f8e9" stroke="#558b2f" stroke-width="1.2" d="M426.52,-1489C426.52,-1489 396.52,-1489 396.52,-1489 390.52,-1489 384.52,-1483 384.52,-1477 384.52,-1477 384.52,-1465 384.52,-1465 384.52,-1459 390.52,-1453 396.52,-1453 396.52,-1453 426.52,-1453 426.52,-1453 432.52,-1453 438.52,-1459 438.52,-1465 438.52,-1465 438.52,-1477 438.52,-1477 438.52,-1483 432.52,-1489 426.52,-1489"/>
<text xml:space="preserve" text-anchor="middle" x="411.52" y="-1467.7" font-family="Arial" font-size="9.00">ffuf</text>
</g>
<!-- web_attack&#45;&gt;ffuf -->
<g id="edge27" class="edge">
<title>web_attack&#45;&gt;ffuf</title>
<path fill="none" stroke="#558b2f" d="M281.4,-1424.45C281.4,-1443.67 281.4,-1471 281.4,-1471 281.4,-1471 372.42,-1471 372.42,-1471"/>
<polygon fill="#558b2f" stroke="#558b2f" points="372.42,-1474.5 382.42,-1471 372.42,-1467.5 372.42,-1474.5"/>
</g>
<!-- gobuster -->
<g id="node29" class="node">
<title>gobuster</title>
<path fill="#f1f8e9" stroke="#558b2f" stroke-width="1.2" d="M426.52,-1424C426.52,-1424 396.52,-1424 396.52,-1424 390.52,-1424 384.52,-1418 384.52,-1412 384.52,-1412 384.52,-1400 384.52,-1400 384.52,-1394 390.52,-1388 396.52,-1388 396.52,-1388 426.52,-1388 426.52,-1388 432.52,-1388 438.52,-1394 438.52,-1400 438.52,-1400 438.52,-1412 438.52,-1412 438.52,-1418 432.52,-1424 426.52,-1424"/>
<text xml:space="preserve" text-anchor="middle" x="411.52" y="-1402.7" font-family="Arial" font-size="9.00">Gobuster</text>
</g>
<!-- web_attack&#45;&gt;gobuster -->
<g id="edge28" class="edge">
<title>web_attack&#45;&gt;gobuster</title>
<path fill="none" stroke="#558b2f" d="M304.68,-1415C304.68,-1415 372.75,-1415 372.75,-1415"/>
<polygon fill="#558b2f" stroke="#558b2f" points="372.75,-1418.5 382.75,-1415 372.75,-1411.5 372.75,-1418.5"/>
</g>
<!-- katana -->
<g id="node30" class="node">
<title>katana</title>
<path fill="#f1f8e9" stroke="#558b2f" stroke-width="1.2" d="M426.52,-1359C426.52,-1359 396.52,-1359 396.52,-1359 390.52,-1359 384.52,-1353 384.52,-1347 384.52,-1347 384.52,-1335 384.52,-1335 384.52,-1329 390.52,-1323 396.52,-1323 396.52,-1323 426.52,-1323 426.52,-1323 432.52,-1323 438.52,-1329 438.52,-1335 438.52,-1335 438.52,-1347 438.52,-1347 438.52,-1353 432.52,-1359 426.52,-1359"/>
<text xml:space="preserve" text-anchor="middle" x="411.52" y="-1337.7" font-family="Arial" font-size="9.00">Katana</text>
</g>
<!-- web_attack&#45;&gt;katana -->
<g id="edge29" class="edge">
<title>web_attack&#45;&gt;katana</title>
<path fill="none" stroke="#558b2f" d="M304.46,-1406C327.65,-1406 354.4,-1406 354.4,-1406 354.4,-1406 354.4,-1341 354.4,-1341 354.4,-1341 372.45,-1341 372.45,-1341"/>
<polygon fill="#558b2f" stroke="#558b2f" points="372.45,-1344.5 382.45,-1341 372.45,-1337.5 372.45,-1344.5"/>
</g>
<!-- nikto -->
<g id="node31" class="node">
<title>nikto</title>
<path fill="#f1f8e9" stroke="#558b2f" stroke-width="1.2" d="M426.52,-1294C426.52,-1294 396.52,-1294 396.52,-1294 390.52,-1294 384.52,-1288 384.52,-1282 384.52,-1282 384.52,-1270 384.52,-1270 384.52,-1264 390.52,-1258 396.52,-1258 396.52,-1258 426.52,-1258 426.52,-1258 432.52,-1258 438.52,-1264 438.52,-1270 438.52,-1270 438.52,-1282 438.52,-1282 438.52,-1288 432.52,-1294 426.52,-1294"/>
<text xml:space="preserve" text-anchor="middle" x="411.52" y="-1272.7" font-family="Arial" font-size="9.00">Nikto</text>
</g>
<!-- web_attack&#45;&gt;nikto -->
<g id="edge30" class="edge">
<title>web_attack&#45;&gt;nikto</title>
<path fill="none" stroke="#558b2f" d="M304.83,-1397C316.36,-1397 326.4,-1397 326.4,-1397 326.4,-1397 326.4,-1290 326.4,-1290 326.4,-1290 372.61,-1290 372.61,-1290"/>
<polygon fill="#558b2f" stroke="#558b2f" points="372.61,-1293.5 382.61,-1290 372.61,-1286.5 372.61,-1293.5"/>
</g>
<!-- impacket -->
<g id="node32" class="node">
<title>impacket</title>
<path fill="#f1f8e9" stroke="#558b2f" stroke-width="1.2" d="M426.52,-974C426.52,-974 396.52,-974 396.52,-974 390.52,-974 384.52,-968 384.52,-962 384.52,-962 384.52,-950 384.52,-950 384.52,-944 390.52,-938 396.52,-938 396.52,-938 426.52,-938 426.52,-938 432.52,-938 438.52,-944 438.52,-950 438.52,-950 438.52,-962 438.52,-962 438.52,-968 432.52,-974 426.52,-974"/>
<text xml:space="preserve" text-anchor="middle" x="411.52" y="-952.7" font-family="Arial" font-size="9.00">Impacket</text>
</g>
<!-- ad&#45;&gt;impacket -->
<g id="edge31" class="edge">
<title>ad&#45;&gt;impacket</title>
<path fill="none" stroke="#558b2f" d="M299.64,-850C318.75,-850 340.4,-850 340.4,-850 340.4,-850 340.4,-948 340.4,-948 340.4,-948 372.72,-948 372.72,-948"/>
<polygon fill="#558b2f" stroke="#558b2f" points="372.72,-951.5 382.72,-948 372.72,-944.5 372.72,-951.5"/>
</g>
<!-- netexec -->
<g id="node33" class="node">
<title>netexec</title>
<path fill="#f1f8e9" stroke="#558b2f" stroke-width="1.2" d="M426.52,-909C426.52,-909 396.52,-909 396.52,-909 390.52,-909 384.52,-903 384.52,-897 384.52,-897 384.52,-885 384.52,-885 384.52,-879 390.52,-873 396.52,-873 396.52,-873 426.52,-873 426.52,-873 432.52,-873 438.52,-879 438.52,-885 438.52,-885 438.52,-897 438.52,-897 438.52,-903 432.52,-909 426.52,-909"/>
<text xml:space="preserve" text-anchor="middle" x="411.52" y="-887.7" font-family="Arial" font-size="9.00">NetExec</text>
</g>
<!-- ad&#45;&gt;netexec -->
<g id="edge32" class="edge">
<title>ad&#45;&gt;netexec</title>
<path fill="none" stroke="#558b2f" d="M271.4,-856.5C271.4,-867.75 271.4,-879 271.4,-879 271.4,-879 372.66,-879 372.66,-879"/>
<polygon fill="#558b2f" stroke="#558b2f" points="372.66,-882.5 382.66,-879 372.66,-875.5 372.66,-882.5"/>
</g>
<!-- certipy -->
<g id="node34" class="node">
<title>certipy</title>
<path fill="#f1f8e9" stroke="#558b2f" stroke-width="1.2" d="M426.52,-844C426.52,-844 396.52,-844 396.52,-844 390.52,-844 384.52,-838 384.52,-832 384.52,-832 384.52,-820 384.52,-820 384.52,-814 390.52,-808 396.52,-808 396.52,-808 426.52,-808 426.52,-808 432.52,-808 438.52,-814 438.52,-820 438.52,-820 438.52,-832 438.52,-832 438.52,-838 432.52,-844 426.52,-844"/>
<text xml:space="preserve" text-anchor="middle" x="411.52" y="-822.7" font-family="Arial" font-size="9.00">Certipy</text>
</g>
<!-- ad&#45;&gt;certipy -->
<g id="edge33" class="edge">
<title>ad&#45;&gt;certipy</title>
<path fill="none" stroke="#558b2f" d="M299.46,-828C299.46,-828 372.58,-828 372.58,-828"/>
<polygon fill="#558b2f" stroke="#558b2f" points="372.58,-831.5 382.58,-828 372.58,-824.5 372.58,-831.5"/>
</g>
<!-- prowler -->
<g id="node35" class="node">
<title>prowler</title>
<path fill="#f1f8e9" stroke="#558b2f" stroke-width="1.2" d="M426.52,-779C426.52,-779 396.52,-779 396.52,-779 390.52,-779 384.52,-773 384.52,-767 384.52,-767 384.52,-755 384.52,-755 384.52,-749 390.52,-743 396.52,-743 396.52,-743 426.52,-743 426.52,-743 432.52,-743 438.52,-749 438.52,-755 438.52,-755 438.52,-767 438.52,-767 438.52,-773 432.52,-779 426.52,-779"/>
<text xml:space="preserve" text-anchor="middle" x="411.52" y="-757.7" font-family="Arial" font-size="9.00">Prowler</text>
</g>
<!-- cloud&#45;&gt;prowler -->
<g id="edge34" class="edge">
<title>cloud&#45;&gt;prowler</title>
<path fill="none" stroke="#558b2f" d="M298.45,-767C298.45,-767 372.66,-767 372.66,-767"/>
<polygon fill="#558b2f" stroke="#558b2f" points="372.66,-770.5 382.66,-767 372.66,-763.5 372.66,-770.5"/>
</g>
<!-- trivy -->
<g id="node36" class="node">
<title>trivy</title>
<path fill="#f1f8e9" stroke="#558b2f" stroke-width="1.2" d="M426.52,-714C426.52,-714 396.52,-714 396.52,-714 390.52,-714 384.52,-708 384.52,-702 384.52,-702 384.52,-690 384.52,-690 384.52,-684 390.52,-678 396.52,-678 396.52,-678 426.52,-678 426.52,-678 432.52,-678 438.52,-684 438.52,-690 438.52,-690 438.52,-702 438.52,-702 438.52,-708 432.52,-714 426.52,-714"/>
<text xml:space="preserve" text-anchor="middle" x="411.52" y="-692.7" font-family="Arial" font-size="9.00">Trivy</text>
</g>
<!-- cloud&#45;&gt;trivy -->
<g id="edge35" class="edge">
<title>cloud&#45;&gt;trivy</title>
<path fill="none" stroke="#558b2f" d="M298.69,-755C327.79,-755 369.4,-755 369.4,-755 369.4,-755 369.4,-694 369.4,-694 369.4,-694 372.62,-694 372.62,-694"/>
<polygon fill="#558b2f" stroke="#558b2f" points="372.62,-697.5 382.62,-694 372.62,-690.5 372.62,-697.5"/>
</g>
</g>
</svg>
