<?xml version="1.0" encoding="UTF-8" standalone="no"?>

<!DOCTYPE svg PUBLIC "-//W3C//DTD SVG 1.1//EN"

 "http://www.w3.org/Graphics/SVG/1.1/DTD/svg11.dtd">

<!-- Generated by graphviz version 14.1.2 (0)

 -->

<!-- Title: openenv_workflow Pages: 1 -->

<svg width="548pt" height="1217pt"

 viewBox="0.00 0.00 548.00 1217.00" xmlns="http://www.w3.org/2000/svg" xmlns:xlink="http://www.w3.org/1999/xlink">

<g id="graph0" class="graph" transform="scale(1 1) rotate(0) translate(4 1212.5)">

<title>openenv_workflow</title>

<polygon fill="white" stroke="none" points="-4,4 -4,-1212.5 544,-1212.5 544,4 -4,4"/>

<text xml:space="preserve" text-anchor="middle" x="270" y="-7.2" font-family="Times New Roman,serif" font-size="14.00">OpenEnv User Workflow &#45; From Init to RL Training</text>

<!-- step1 -->

<g id="node1" class="node">

<title>step1</title>

<polygon fill="#4caf50" stroke="black" points="396,-1208.5 144,-1208.5 144,-1136.5 396,-1136.5 396,-1208.5"/>

<text xml:space="preserve" text-anchor="middle" x="270" y="-1175.55" font-family="Arial" font-size="11.00" fill="white">Step 1: openenv init my_env</text>

<text xml:space="preserve" text-anchor="middle" x="270" y="-1162.05" font-family="Arial" font-size="11.00" fill="white">Scaffold project structure</text>

</g>

<!-- step2 -->

<g id="node2" class="node">

<title>step2</title>

<path fill="#2196f3" stroke="black" d="M384,-1078.5C384,-1078.5 156,-1078.5 156,-1078.5 150,-1078.5 144,-1072.5 144,-1066.5 144,-1066.5 144,-1004.1 144,-1004.1 144,-998.1 150,-992.1 156,-992.1 156,-992.1 384,-992.1 384,-992.1 390,-992.1 396,-998.1 396,-1004.1 396,-1004.1 396,-1066.5 396,-1066.5 396,-1072.5 390,-1078.5 384,-1078.5"/>

<text xml:space="preserve" text-anchor="middle" x="270" y="-1045.27" font-family="Arial Bold" font-size="12.00" fill="white">Step 2: Implement Environment</text>

<text xml:space="preserve" text-anchor="middle" x="270" y="-1031.02" font-family="Arial Bold" font-size="12.00" fill="white">Write reset(), step(), state()</text>

<text xml:space="preserve" text-anchor="middle" x="270" y="-1016.77" font-family="Arial Bold" font-size="12.00" fill="white">Define Action/Observation models</text>

</g>

<!-- step1&#45;&gt;step2 -->

<g id="edge1" class="edge">

<title>step1&#45;&gt;step2</title>

<path fill="none" stroke="#4caf50" stroke-width="2" d="M270,-1136.09C270,-1136.09 270,-1091.74 270,-1091.74"/>

<polygon fill="#4caf50" stroke="#4caf50" stroke-width="2" points="273.5,-1091.74 270,-1081.74 266.5,-1091.74 273.5,-1091.74"/>

</g>

<!-- step3 -->

<g id="node3" class="node">

<title>step3</title>

<path fill="#ff9800" stroke="black" d="M384,-934.1C384,-934.1 156,-934.1 156,-934.1 150,-934.1 144,-928.1 144,-922.1 144,-922.1 144,-874.1 144,-874.1 144,-868.1 150,-862.1 156,-862.1 156,-862.1 384,-862.1 384,-862.1 390,-862.1 396,-868.1 396,-874.1 396,-874.1 396,-922.1 396,-922.1 396,-928.1 390,-934.1 384,-934.1"/>

<text xml:space="preserve" text-anchor="middle" x="270" y="-901.15" font-family="Arial" font-size="11.00" fill="white">Step 3: openenv build</text>

<text xml:space="preserve" text-anchor="middle" x="270" y="-887.65" font-family="Arial" font-size="11.00" fill="white">Build Docker image</text>

</g>

<!-- step2&#45;&gt;step3 -->

<g id="edge2" class="edge">

<title>step2&#45;&gt;step3</title>

<path fill="none" stroke="#2196f3" stroke-width="2" d="M270,-991.89C270,-991.89 270,-947.35 270,-947.35"/>

<polygon fill="#2196f3" stroke="#2196f3" stroke-width="2" points="273.5,-947.35 270,-937.35 266.5,-947.35 273.5,-947.35"/>

</g>

<!-- decision -->

<g id="node4" class="node">

<title>decision</title>

<polygon fill="#f44336" stroke="black" points="270,-804.1 198,-760.9 270,-717.7 342,-760.9 270,-804.1"/>

<text xml:space="preserve" text-anchor="middle" x="270" y="-763.4" font-family="Arial Bold" font-size="10.00" fill="white">Deploy to</text>

<text xml:space="preserve" text-anchor="middle" x="270" y="-751.4" font-family="Arial Bold" font-size="10.00" fill="white">HF Spaces?</text>

</g>

<!-- step3&#45;&gt;decision -->

<g id="edge3" class="edge">

<title>step3&#45;&gt;decision</title>

<path fill="none" stroke="#2196f3" stroke-width="2" d="M270,-861.69C270,-861.69 270,-817.34 270,-817.34"/>

<polygon fill="#2196f3" stroke="#2196f3" stroke-width="2" points="273.5,-817.34 270,-807.34 266.5,-817.34 273.5,-817.34"/>

</g>

<!-- step4a -->

<g id="node5" class="node">

<title>step4a</title>

<path fill="#ff9800" stroke="black" d="M240,-659.7C240,-659.7 12,-659.7 12,-659.7 6,-659.7 0,-653.7 0,-647.7 0,-647.7 0,-599.7 0,-599.7 0,-593.7 6,-587.7 12,-587.7 12,-587.7 240,-587.7 240,-587.7 246,-587.7 252,-593.7 252,-599.7 252,-599.7 252,-647.7 252,-647.7 252,-653.7 246,-659.7 240,-659.7"/>

<text xml:space="preserve" text-anchor="middle" x="126" y="-626.75" font-family="Arial" font-size="11.00" fill="white">Step 4a: openenv push</text>

<text xml:space="preserve" text-anchor="middle" x="126" y="-613.25" font-family="Arial" font-size="11.00" fill="white">Deploy to Hugging Face Spaces</text>

</g>

<!-- decision&#45;&gt;step4a -->

<g id="edge4" class="edge">

<title>decision&#45;&gt;step4a</title>

<path fill="none" stroke="#4caf50" stroke-width="2" d="M225,-744.35C225,-744.35 225,-673.17 225,-673.17"/>

<polygon fill="#4caf50" stroke="#4caf50" stroke-width="2" points="228.5,-673.17 225,-663.17 221.5,-673.17 228.5,-673.17"/>

<text xml:space="preserve" text-anchor="middle" x="214.88" y="-695.46" font-family="Times New Roman,serif" font-size="14.00">Yes</text>

</g>

<!-- step4b -->

<g id="node6" class="node">

<title>step4b</title>

<path fill="#ff9800" stroke="black" d="M528,-659.7C528,-659.7 300,-659.7 300,-659.7 294,-659.7 288,-653.7 288,-647.7 288,-647.7 288,-599.7 288,-599.7 288,-593.7 294,-587.7 300,-587.7 300,-587.7 528,-587.7 528,-587.7 534,-587.7 540,-593.7 540,-599.7 540,-599.7 540,-647.7 540,-647.7 540,-653.7 534,-659.7 528,-659.7"/>

<text xml:space="preserve" text-anchor="middle" x="414" y="-626.75" font-family="Arial" font-size="11.00" fill="white">Step 4b: openenv serve</text>

<text xml:space="preserve" text-anchor="middle" x="414" y="-613.25" font-family="Arial" font-size="11.00" fill="white">Serve locally with auto&#45;reload</text>

</g>

<!-- decision&#45;&gt;step4b -->

<g id="edge5" class="edge">

<title>decision&#45;&gt;step4b</title>

<path fill="none" stroke="#f44336" stroke-width="2" d="M315,-744.35C315,-744.35 315,-673.17 315,-673.17"/>

<polygon fill="#f44336" stroke="#f44336" stroke-width="2" points="318.5,-673.17 315,-663.17 311.5,-673.17 318.5,-673.17"/>

<text xml:space="preserve" text-anchor="middle" x="306.75" y="-695.46" font-family="Times New Roman,serif" font-size="14.00">No</text>

</g>

<!-- step5 -->

<g id="node7" class="node">

<title>step5</title>

<polygon fill="#4caf50" stroke="black" points="396,-529.7 144,-529.7 144,-457.7 396,-457.7 396,-529.7"/>

<text xml:space="preserve" text-anchor="middle" x="270" y="-496.75" font-family="Arial" font-size="11.00" fill="white">Step 5: Install Client</text>

<text xml:space="preserve" text-anchor="middle" x="270" y="-483.25" font-family="Arial" font-size="11.00" fill="white">pip install git+https://hf.co/spaces/...</text>

</g>

<!-- step4a&#45;&gt;step5 -->

<g id="edge6" class="edge">

<title>step4a&#45;&gt;step5</title>

<path fill="none" stroke="#ff9800" stroke-width="2" d="M198,-587.49C198,-587.49 198,-543.2 198,-543.2"/>

<polygon fill="#ff9800" stroke="#ff9800" stroke-width="2" points="201.5,-543.2 198,-533.2 194.5,-543.2 201.5,-543.2"/>

</g>

<!-- step4b&#45;&gt;step5 -->

<g id="edge7" class="edge">

<title>step4b&#45;&gt;step5</title>

<path fill="none" stroke="#ff9800" stroke-width="2" d="M342,-587.49C342,-587.49 342,-543.2 342,-543.2"/>

<polygon fill="#ff9800" stroke="#ff9800" stroke-width="2" points="345.5,-543.2 342,-533.2 338.5,-543.2 345.5,-543.2"/>

</g>

<!-- step6 -->

<g id="node8" class="node">

<title>step6</title>

<path fill="#2196f3" stroke="black" d="M384,-399.7C384,-399.7 156,-399.7 156,-399.7 150,-399.7 144,-393.7 144,-387.7 144,-387.7 144,-325.3 144,-325.3 144,-319.3 150,-313.3 156,-313.3 156,-313.3 384,-313.3 384,-313.3 390,-313.3 396,-319.3 396,-325.3 396,-325.3 396,-387.7 396,-387.7 396,-393.7 390,-399.7 384,-399.7"/>

<text xml:space="preserve" text-anchor="middle" x="270" y="-366.47" font-family="Arial Bold" font-size="12.00" fill="white">Step 6: Connect and Use</text>

<text xml:space="preserve" text-anchor="middle" x="270" y="-352.22" font-family="Arial Bold" font-size="12.00" fill="white">async with MyEnv(base_url) as client</text>

<text xml:space="preserve" text-anchor="middle" x="270" y="-337.97" font-family="Arial Bold" font-size="12.00" fill="white">client.reset(), client.step(action)</text>

</g>

<!-- step5&#45;&gt;step6 -->

<g id="edge8" class="edge">

<title>step5&#45;&gt;step6</title>

<path fill="none" stroke="#4caf50" stroke-width="2" d="M270,-457.29C270,-457.29 270,-412.94 270,-412.94"/>

<polygon fill="#4caf50" stroke="#4caf50" stroke-width="2" points="273.5,-412.94 270,-402.94 266.5,-412.94 273.5,-412.94"/>

</g>

<!-- step7 -->

<g id="node9" class="node">

<title>step7</title>

<path fill="#9c27b0" stroke="black" d="M384,-255.3C384,-255.3 156,-255.3 156,-255.3 150,-255.3 144,-249.3 144,-243.3 144,-243.3 144,-180.9 144,-180.9 144,-174.9 150,-168.9 156,-168.9 156,-168.9 384,-168.9 384,-168.9 390,-168.9 396,-174.9 396,-180.9 396,-180.9 396,-243.3 396,-243.3 396,-249.3 390,-255.3 384,-255.3"/>

<text xml:space="preserve" text-anchor="middle" x="270" y="-221.9" font-family="Arial" font-size="11.00" fill="white">Step 7: RL Training Loop</text>

<text xml:space="preserve" text-anchor="middle" x="270" y="-208.4" font-family="Arial" font-size="11.00" fill="white">Integrate with TRL/torchforge/SkyRL</text>

<text xml:space="preserve" text-anchor="middle" x="270" y="-194.9" font-family="Arial" font-size="11.00" fill="white">GRPO training using environment</text>

</g>

<!-- step6&#45;&gt;step7 -->

<g id="edge9" class="edge">

<title>step6&#45;&gt;step7</title>

<path fill="none" stroke="#9c27b0" stroke-width="2" d="M270,-313.18C270,-313.18 270,-268.42 270,-268.42"/>

<polygon fill="#9c27b0" stroke="#9c27b0" stroke-width="2" points="273.5,-268.42 270,-258.42 266.5,-268.42 273.5,-268.42"/>

</g>

<!-- feedback -->

<g id="node10" class="node">

<title>feedback</title>

<polygon fill="#f44336" stroke="black" points="378,-110.9 162,-110.9 162,-24.5 378,-24.5 378,-110.9"/>

<text xml:space="preserve" text-anchor="middle" x="270" y="-77.5" font-family="Arial" font-size="11.00" fill="white">Policy Update</text>

<text xml:space="preserve" text-anchor="middle" x="270" y="-64" font-family="Arial" font-size="11.00" fill="white">Send actions, receive</text>

<text xml:space="preserve" text-anchor="middle" x="270" y="-50.5" font-family="Arial" font-size="11.00" fill="white">observations + rewards</text>

</g>

<!-- step7&#45;&gt;feedback -->

<g id="edge10" class="edge">

<title>step7&#45;&gt;feedback</title>

<path fill="none" stroke="#f44336" stroke-width="2" d="M306,-168.78C306,-168.78 306,-124.02 306,-124.02"/>

<polygon fill="#f44336" stroke="#f44336" stroke-width="2" points="309.5,-124.02 306,-114.02 302.5,-124.02 309.5,-124.02"/>

<text xml:space="preserve" text-anchor="middle" x="286.88" y="-149.6" font-family="Times New Roman,serif" font-size="14.00">actions</text>

</g>

<!-- feedback&#45;&gt;step7 -->

<g id="edge11" class="edge">

<title>feedback&#45;&gt;step7</title>

<path fill="none" stroke="#9c27b0" stroke-width="2" stroke-dasharray="5,2" d="M234,-111.02C234,-111.02 234,-155.78 234,-155.78"/>

<polygon fill="#9c27b0" stroke="#9c27b0" stroke-width="2" points="230.5,-155.78 234,-165.78 237.5,-155.78 230.5,-155.78"/>

<text xml:space="preserve" text-anchor="middle" x="199.88" y="-153.1" font-family="Times New Roman,serif" font-size="14.00">observations</text>

<text xml:space="preserve" text-anchor="middle" x="199.88" y="-136.6" font-family="Times New Roman,serif" font-size="14.00">+ rewards</text>

</g>

</g>

</svg>

