<?xml version="1.0" encoding="UTF-8" standalone="no"?>
<!DOCTYPE svg PUBLIC "-//W3C//DTD SVG 1.1//EN"
 "http://www.w3.org/Graphics/SVG/1.1/DTD/svg11.dtd">
<!-- Generated by graphviz version 14.1.2 (0)
 -->
<!-- Title: DeepSeek_Reasonix_Architecture Pages: 1 -->
<svg width="1087pt" height="428pt"
 viewBox="0.00 0.00 1087.00 428.00" xmlns="http://www.w3.org/2000/svg" xmlns:xlink="http://www.w3.org/1999/xlink">
<g id="graph0" class="graph" transform="scale(1 1) rotate(0) translate(4 424)">
<title>DeepSeek_Reasonix_Architecture</title>
<polygon fill="white" stroke="none" points="-4,4 -4,-424 1083.12,-424 1083.12,4 -4,4"/>
<!-- user -->
<g id="node1" class="node">
<title>user</title>
<path fill="#e3f2fd" stroke="#1565c0" stroke-width="2" d="M631.88,-420C631.88,-420 565.62,-420 565.62,-420 559.62,-420 553.62,-414 553.62,-408 553.62,-408 553.62,-396 553.62,-396 553.62,-390 559.62,-384 565.62,-384 565.62,-384 631.88,-384 631.88,-384 637.88,-384 643.88,-390 643.88,-396 643.88,-396 643.88,-408 643.88,-408 643.88,-414 637.88,-420 631.88,-420"/>
<text xml:space="preserve" text-anchor="middle" x="598.75" y="-405.05" font-family="Arial" font-size="11.00">User Terminal</text>
<text xml:space="preserve" text-anchor="middle" x="598.75" y="-391.55" font-family="Arial" font-size="11.00">(reasonix code)</text>
</g>
<!-- cli -->
<g id="node2" class="node">
<title>cli</title>
<path fill="#eceff1" stroke="#37474f" stroke-width="1.5" d="M623.25,-326C623.25,-326 574.25,-326 574.25,-326 568.25,-326 562.25,-320 562.25,-314 562.25,-314 562.25,-302 562.25,-302 562.25,-296 568.25,-290 574.25,-290 574.25,-290 623.25,-290 623.25,-290 629.25,-290 635.25,-296 635.25,-302 635.25,-302 635.25,-314 635.25,-314 635.25,-320 629.25,-326 623.25,-326"/>
<text xml:space="preserve" text-anchor="middle" x="598.75" y="-310.5" font-family="Arial" font-size="10.00">CLI Entry</text>
<text xml:space="preserve" text-anchor="middle" x="598.75" y="-298.5" font-family="Arial" font-size="10.00">(commander)</text>
</g>
<!-- user&#45;&gt;cli -->
<g id="edge1" class="edge">
<title>user&#45;&gt;cli</title>
<path fill="none" stroke="#546e7a" stroke-width="1.5" d="M598.75,-383.43C598.75,-383.43 598.75,-338.8 598.75,-338.8"/>
<polygon fill="#546e7a" stroke="#546e7a" stroke-width="1.5" points="602.25,-338.8 598.75,-328.8 595.25,-338.8 602.25,-338.8"/>
<text xml:space="preserve" text-anchor="middle" x="583" y="-363.07" font-family="Arial" font-size="9.00">invokes</text>
</g>
<!-- loop -->
<g id="node3" class="node">
<title>loop</title>
<path fill="#fff3e0" stroke="#e65100" stroke-width="2.5" d="M633,-232C633,-232 564.5,-232 564.5,-232 558.5,-232 552.5,-226 552.5,-220 552.5,-220 552.5,-208 552.5,-208 552.5,-202 558.5,-196 564.5,-196 564.5,-196 633,-196 633,-196 639,-196 645,-202 645,-208 645,-208 645,-220 645,-220 645,-226 639,-232 633,-232"/>
<text xml:space="preserve" text-anchor="middle" x="598.75" y="-217.05" font-family="Arial" font-size="11.00">CacheFirstLoop</text>
<text xml:space="preserve" text-anchor="middle" x="598.75" y="-203.55" font-family="Arial" font-size="11.00">(Pillar 1)</text>
</g>
<!-- cli&#45;&gt;loop -->
<g id="edge2" class="edge">
<title>cli&#45;&gt;loop</title>
<path fill="none" stroke="#546e7a" stroke-width="1.5" d="M598.75,-289.43C598.75,-289.43 598.75,-245.45 598.75,-245.45"/>
<polygon fill="#546e7a" stroke="#546e7a" stroke-width="1.5" points="602.25,-245.45 598.75,-235.45 595.25,-245.45 602.25,-245.45"/>
<text xml:space="preserve" text-anchor="middle" x="571" y="-269.39" font-family="Arial" font-size="9.00">starts session</text>
</g>
<!-- immutable -->
<g id="node4" class="node">
<title>immutable</title>
<path fill="#e8f5e9" stroke="#2e7d32" stroke-width="1.5" d="M115.5,-135.75C115.5,-135.75 38,-135.75 38,-135.75 32,-135.75 26,-129.75 26,-123.75 26,-123.75 26,-108.25 26,-108.25 26,-102.25 32,-96.25 38,-96.25 38,-96.25 115.5,-96.25 115.5,-96.25 121.5,-96.25 127.5,-102.25 127.5,-108.25 127.5,-108.25 127.5,-123.75 127.5,-123.75 127.5,-129.75 121.5,-135.75 115.5,-135.75"/>
<text xml:space="preserve" text-anchor="middle" x="76.75" y="-123.2" font-family="Arial" font-size="9.00">Immutable Prefix</text>
<text xml:space="preserve" text-anchor="middle" x="76.75" y="-112.7" font-family="Arial" font-size="9.00">(system + tool_specs</text>
<text xml:space="preserve" text-anchor="middle" x="76.75" y="-102.2" font-family="Arial" font-size="9.00">+ few_shots)</text>
</g>
<!-- loop&#45;&gt;immutable -->
<g id="edge3" class="edge">
<title>loop&#45;&gt;immutable</title>
<path fill="none" stroke="#546e7a" stroke-width="1.5" d="M551.51,-223C423.01,-223 76.75,-223 76.75,-223 76.75,-223 76.75,-148.65 76.75,-148.65"/>
<polygon fill="#546e7a" stroke="#546e7a" stroke-width="1.5" points="80.25,-148.65 76.75,-138.65 73.25,-148.65 80.25,-148.65"/>
<text xml:space="preserve" text-anchor="middle" x="255.95" y="-224.95" font-family="Arial" font-size="9.00">pins prefix</text>
</g>
<!-- append_only -->
<g id="node5" class="node">
<title>append_only</title>
<path fill="#e8f5e9" stroke="#2e7d32" stroke-width="1.5" d="M246.75,-135.75C246.75,-135.75 182.75,-135.75 182.75,-135.75 176.75,-135.75 170.75,-129.75 170.75,-123.75 170.75,-123.75 170.75,-108.25 170.75,-108.25 170.75,-102.25 176.75,-96.25 182.75,-96.25 182.75,-96.25 246.75,-96.25 246.75,-96.25 252.75,-96.25 258.75,-102.25 258.75,-108.25 258.75,-108.25 258.75,-123.75 258.75,-123.75 258.75,-129.75 252.75,-135.75 246.75,-135.75"/>
<text xml:space="preserve" text-anchor="middle" x="214.75" y="-123.2" font-family="Arial" font-size="9.00">Append&#45;Only Log</text>
<text xml:space="preserve" text-anchor="middle" x="214.75" y="-112.7" font-family="Arial" font-size="9.00">(assistant/tool</text>
<text xml:space="preserve" text-anchor="middle" x="214.75" y="-102.2" font-family="Arial" font-size="9.00">turns)</text>
</g>
<!-- loop&#45;&gt;append_only -->
<g id="edge4" class="edge">
<title>loop&#45;&gt;append_only</title>
<path fill="none" stroke="#546e7a" stroke-width="1.5" d="M551.28,-214C448.54,-214 214.75,-214 214.75,-214 214.75,-214 214.75,-148.58 214.75,-148.58"/>
<polygon fill="#546e7a" stroke="#546e7a" stroke-width="1.5" points="218.25,-148.58 214.75,-138.58 211.25,-148.58 218.25,-148.58"/>
<text xml:space="preserve" text-anchor="middle" x="321.05" y="-215.95" font-family="Arial" font-size="9.00">appends turns</text>
</g>
<!-- volatile -->
<g id="node6" class="node">
<title>volatile</title>
<path fill="#fff9c4" stroke="#f57f17" stroke-width="1.5" d="M369.25,-135.75C369.25,-135.75 314.25,-135.75 314.25,-135.75 308.25,-135.75 302.25,-129.75 302.25,-123.75 302.25,-123.75 302.25,-108.25 302.25,-108.25 302.25,-102.25 308.25,-96.25 314.25,-96.25 314.25,-96.25 369.25,-96.25 369.25,-96.25 375.25,-96.25 381.25,-102.25 381.25,-108.25 381.25,-108.25 381.25,-123.75 381.25,-123.75 381.25,-129.75 375.25,-135.75 369.25,-135.75"/>
<text xml:space="preserve" text-anchor="middle" x="341.75" y="-123.2" font-family="Arial" font-size="9.00">Volatile Scratch</text>
<text xml:space="preserve" text-anchor="middle" x="341.75" y="-112.7" font-family="Arial" font-size="9.00">(R1 thought,</text>
<text xml:space="preserve" text-anchor="middle" x="341.75" y="-102.2" font-family="Arial" font-size="9.00">transient plan)</text>
</g>
<!-- loop&#45;&gt;volatile -->
<g id="edge5" class="edge">
<title>loop&#45;&gt;volatile</title>
<path fill="none" stroke="#546e7a" stroke-width="1.5" d="M551.31,-205C477.05,-205 341.75,-205 341.75,-205 341.75,-205 341.75,-148.47 341.75,-148.47"/>
<polygon fill="#546e7a" stroke="#546e7a" stroke-width="1.5" points="345.25,-148.47 341.75,-138.47 338.25,-148.47 345.25,-148.47"/>
<text xml:space="preserve" text-anchor="middle" x="385.64" y="-206.95" font-family="Arial" font-size="9.00">resets each turn</text>
</g>
<!-- repair -->
<g id="node7" class="node">
<title>repair</title>
<path fill="#fff3e0" stroke="#e65100" stroke-width="2.5" d="M505.38,-134C505.38,-134 436.12,-134 436.12,-134 430.12,-134 424.12,-128 424.12,-122 424.12,-122 424.12,-110 424.12,-110 424.12,-104 430.12,-98 436.12,-98 436.12,-98 505.38,-98 505.38,-98 511.38,-98 517.38,-104 517.38,-110 517.38,-110 517.38,-122 517.38,-122 517.38,-128 511.38,-134 505.38,-134"/>
<text xml:space="preserve" text-anchor="middle" x="470.75" y="-119.05" font-family="Arial" font-size="11.00">Tool&#45;Call Repair</text>
<text xml:space="preserve" text-anchor="middle" x="470.75" y="-105.55" font-family="Arial" font-size="11.00">(Pillar 2)</text>
</g>
<!-- loop&#45;&gt;repair -->
<g id="edge6" class="edge">
<title>loop&#45;&gt;repair</title>
<path fill="none" stroke="#546e7a" stroke-width="1.5" d="M556.44,-195.1C556.44,-166.63 556.44,-116 556.44,-116 556.44,-116 530.87,-116 530.87,-116"/>
<polygon fill="#546e7a" stroke="#546e7a" stroke-width="1.5" points="530.87,-112.5 520.87,-116 530.87,-119.5 530.87,-112.5"/>
<text xml:space="preserve" text-anchor="middle" x="510.69" y="-144.72" font-family="Arial" font-size="9.00">tool calls pass through</text>
</g>
<!-- cost -->
<g id="node12" class="node">
<title>cost</title>
<path fill="#fff3e0" stroke="#e65100" stroke-width="2.5" d="M625.12,-134C625.12,-134 572.38,-134 572.38,-134 566.38,-134 560.38,-128 560.38,-122 560.38,-122 560.38,-110 560.38,-110 560.38,-104 566.38,-98 572.38,-98 572.38,-98 625.12,-98 625.12,-98 631.12,-98 637.12,-104 637.12,-110 637.12,-110 637.12,-122 637.12,-122 637.12,-128 631.12,-134 625.12,-134"/>
<text xml:space="preserve" text-anchor="middle" x="598.75" y="-119.05" font-family="Arial" font-size="11.00">Cost Control</text>
<text xml:space="preserve" text-anchor="middle" x="598.75" y="-105.55" font-family="Arial" font-size="11.00">(Pillar 3)</text>
</g>
<!-- loop&#45;&gt;cost -->
<g id="edge11" class="edge">
<title>loop&#45;&gt;cost</title>
<path fill="none" stroke="#546e7a" stroke-width="1.5" d="M598.75,-195.1C598.75,-195.1 598.75,-147.44 598.75,-147.44"/>
<polygon fill="#546e7a" stroke="#546e7a" stroke-width="1.5" points="602.25,-147.44 598.75,-137.44 595.25,-147.44 602.25,-147.44"/>
<text xml:space="preserve" text-anchor="middle" x="566.5" y="-173.22" font-family="Arial" font-size="9.00">model selection</text>
</g>
<!-- tools -->
<g id="node17" class="node">
<title>tools</title>
<path fill="#f3e5f5" stroke="#6a1b9a" stroke-width="1.5" d="M805.5,-138C805.5,-138 692,-138 692,-138 686,-138 680,-132 680,-126 680,-126 680,-106 680,-106 680,-100 686,-94 692,-94 692,-94 805.5,-94 805.5,-94 811.5,-94 817.5,-100 817.5,-106 817.5,-106 817.5,-126 817.5,-126 817.5,-132 811.5,-138 805.5,-138"/>
<text xml:space="preserve" text-anchor="middle" x="748.75" y="-124.5" font-family="Arial" font-size="10.00">Tool Implementations</text>
<text xml:space="preserve" text-anchor="middle" x="748.75" y="-112.5" font-family="Arial" font-size="10.00">(filesystem / shell / memory</text>
<text xml:space="preserve" text-anchor="middle" x="748.75" y="-100.5" font-family="Arial" font-size="10.00">/ skills / web / plan)</text>
</g>
<!-- loop&#45;&gt;tools -->
<g id="edge16" class="edge">
<title>loop&#45;&gt;tools</title>
<path fill="none" stroke="#546e7a" stroke-width="1.5" d="M641.06,-194.94C641.06,-167.99 641.06,-122 641.06,-122 641.06,-122 667.06,-122 667.06,-122"/>
<polygon fill="#546e7a" stroke="#546e7a" stroke-width="1.5" points="667.06,-125.5 677.06,-122 667.06,-118.5 667.06,-125.5"/>
<text xml:space="preserve" text-anchor="middle" x="618.94" y="-147.42" font-family="Arial" font-size="9.00">dispatches</text>
</g>
<!-- mcp -->
<g id="node18" class="node">
<title>mcp</title>
<path fill="#f3e5f5" stroke="#6a1b9a" stroke-width="1.5" d="M923.38,-134C923.38,-134 872.12,-134 872.12,-134 866.12,-134 860.12,-128 860.12,-122 860.12,-122 860.12,-110 860.12,-110 860.12,-104 866.12,-98 872.12,-98 872.12,-98 923.38,-98 923.38,-98 929.38,-98 935.38,-104 935.38,-110 935.38,-110 935.38,-122 935.38,-122 935.38,-128 929.38,-134 923.38,-134"/>
<text xml:space="preserve" text-anchor="middle" x="897.75" y="-118.5" font-family="Arial" font-size="10.00">MCP Bridge</text>
<text xml:space="preserve" text-anchor="middle" x="897.75" y="-106.5" font-family="Arial" font-size="10.00">(stdio + SSE)</text>
</g>
<!-- loop&#45;&gt;mcp -->
<g id="edge17" class="edge">
<title>loop&#45;&gt;mcp</title>
<path fill="none" stroke="#546e7a" stroke-width="1.5" d="M646.13,-205C730.44,-205 897.75,-205 897.75,-205 897.75,-205 897.75,-146.71 897.75,-146.71"/>
<polygon fill="#546e7a" stroke="#546e7a" stroke-width="1.5" points="901.25,-146.71 897.75,-136.71 894.25,-146.71 901.25,-146.71"/>
<text xml:space="preserve" text-anchor="middle" x="785.71" y="-206.95" font-family="Arial" font-size="9.00">bridges</text>
</g>
<!-- deepseek -->
<g id="node19" class="node">
<title>deepseek</title>
<path fill="#ffebee" stroke="#b71c1c" stroke-width="2.5" d="M1067.12,-134C1067.12,-134 990.38,-134 990.38,-134 984.38,-134 978.38,-128 978.38,-122 978.38,-122 978.38,-110 978.38,-110 978.38,-104 984.38,-98 990.38,-98 990.38,-98 1067.12,-98 1067.12,-98 1073.12,-98 1079.12,-104 1079.12,-110 1079.12,-110 1079.12,-122 1079.12,-122 1079.12,-128 1073.12,-134 1067.12,-134"/>
<text xml:space="preserve" text-anchor="middle" x="1028.75" y="-119.05" font-family="Arial" font-size="11.00">DeepSeek API</text>
<text xml:space="preserve" text-anchor="middle" x="1028.75" y="-105.55" font-family="Arial" font-size="11.00">(v4&#45;flash / v4&#45;pro)</text>
</g>
<!-- loop&#45;&gt;deepseek -->
<g id="edge18" class="edge">
<title>loop&#45;&gt;deepseek</title>
<path fill="none" stroke="#263238" stroke-width="2" d="M646.14,-223C761.13,-223 1045.54,-223 1045.54,-223 1045.54,-223 1045.54,-148.16 1045.54,-148.16"/>
<polygon fill="#263238" stroke="#263238" stroke-width="2" points="1049.04,-148.16 1045.54,-138.16 1042.04,-148.16 1049.04,-148.16"/>
<text xml:space="preserve" text-anchor="middle" x="859.26" y="-224.95" font-family="Arial" font-size="9.00">SSE stream</text>
</g>
<!-- flatten -->
<g id="node8" class="node">
<title>flatten</title>
<path fill="#e1f5fe" stroke="#0277bd" stroke-width="1.5" d="M95.5,-36C95.5,-36 12,-36 12,-36 6,-36 0,-30 0,-24 0,-24 0,-12 0,-12 0,-6 6,0 12,0 12,0 95.5,0 95.5,0 101.5,0 107.5,-6 107.5,-12 107.5,-12 107.5,-24 107.5,-24 107.5,-30 101.5,-36 95.5,-36"/>
<text xml:space="preserve" text-anchor="middle" x="53.75" y="-19.95" font-family="Arial" font-size="9.00">Flatten</text>
<text xml:space="preserve" text-anchor="middle" x="53.75" y="-9.45" font-family="Arial" font-size="9.00">(schema &gt; 10 params)</text>
</g>
<!-- repair&#45;&gt;flatten -->
<g id="edge7" class="edge">
<title>repair&#45;&gt;flatten</title>
<path fill="none" stroke="#546e7a" stroke-width="1.5" d="M428.21,-97.01C428.21,-89.22 428.21,-82 428.21,-82 428.21,-82 66.75,-82 66.75,-82 66.75,-82 66.75,-48.78 66.75,-48.78"/>
<polygon fill="#546e7a" stroke="#546e7a" stroke-width="1.5" points="70.25,-48.78 66.75,-38.78 63.25,-48.78 70.25,-48.78"/>
<text xml:space="preserve" text-anchor="middle" x="224.88" y="-83.95" font-family="Arial" font-size="9.00">pass 1</text>
</g>
<!-- scavenge -->
<g id="node9" class="node">
<title>scavenge</title>
<path fill="#e1f5fe" stroke="#0277bd" stroke-width="1.5" d="M243,-36C243,-36 162.5,-36 162.5,-36 156.5,-36 150.5,-30 150.5,-24 150.5,-24 150.5,-12 150.5,-12 150.5,-6 156.5,0 162.5,0 162.5,0 243,0 243,0 249,0 255,-6 255,-12 255,-12 255,-24 255,-24 255,-30 249,-36 243,-36"/>
<text xml:space="preserve" text-anchor="middle" x="202.75" y="-19.95" font-family="Arial" font-size="9.00">Scavenge</text>
<text xml:space="preserve" text-anchor="middle" x="202.75" y="-9.45" font-family="Arial" font-size="9.00">(regex + JSON parse)</text>
</g>
<!-- repair&#45;&gt;scavenge -->
<g id="edge8" class="edge">
<title>repair&#45;&gt;scavenge</title>
<path fill="none" stroke="#546e7a" stroke-width="1.5" d="M432.29,-97.02C432.29,-80.44 432.29,-59 432.29,-59 432.29,-59 212.88,-59 212.88,-59 212.88,-59 212.88,-48.85 212.88,-48.85"/>
<polygon fill="#546e7a" stroke="#546e7a" stroke-width="1.5" points="216.38,-48.85 212.88,-38.85 209.38,-48.85 216.38,-48.85"/>
<text xml:space="preserve" text-anchor="middle" x="323.02" y="-60.95" font-family="Arial" font-size="9.00">pass 2</text>
</g>
<!-- truncation -->
<g id="node10" class="node">
<title>truncation</title>
<path fill="#e1f5fe" stroke="#0277bd" stroke-width="1.5" d="M381.12,-36C381.12,-36 310.38,-36 310.38,-36 304.38,-36 298.38,-30 298.38,-24 298.38,-24 298.38,-12 298.38,-12 298.38,-6 304.38,0 310.38,0 310.38,0 381.12,0 381.12,0 387.12,0 393.12,-6 393.12,-12 393.12,-12 393.12,-24 393.12,-24 393.12,-30 387.12,-36 381.12,-36"/>
<text xml:space="preserve" text-anchor="middle" x="345.75" y="-19.95" font-family="Arial" font-size="9.00">Truncation</text>
<text xml:space="preserve" text-anchor="middle" x="345.75" y="-9.45" font-family="Arial" font-size="9.00">(close JSON / retry)</text>
</g>
<!-- repair&#45;&gt;truncation -->
<g id="edge9" class="edge">
<title>repair&#45;&gt;truncation</title>
<path fill="none" stroke="#546e7a" stroke-width="1.5" d="M423.11,-116C404.34,-116 387.19,-116 387.19,-116 387.19,-116 387.19,-48.7 387.19,-48.7"/>
<polygon fill="#546e7a" stroke="#546e7a" stroke-width="1.5" points="390.69,-48.7 387.19,-38.7 383.69,-48.7 390.69,-48.7"/>
<text xml:space="preserve" text-anchor="middle" x="400.69" y="-102.26" font-family="Arial" font-size="9.00">pass 3</text>
</g>
<!-- storm -->
<g id="node11" class="node">
<title>storm</title>
<path fill="#e1f5fe" stroke="#0277bd" stroke-width="1.5" d="M507.12,-36C507.12,-36 448.38,-36 448.38,-36 442.38,-36 436.38,-30 436.38,-24 436.38,-24 436.38,-12 436.38,-12 436.38,-6 442.38,0 448.38,0 448.38,0 507.12,0 507.12,0 513.12,0 519.12,-6 519.12,-12 519.12,-12 519.12,-24 519.12,-24 519.12,-30 513.12,-36 507.12,-36"/>
<text xml:space="preserve" text-anchor="middle" x="477.75" y="-19.95" font-family="Arial" font-size="9.00">Storm</text>
<text xml:space="preserve" text-anchor="middle" x="477.75" y="-9.45" font-family="Arial" font-size="9.00">(dedup + reflect)</text>
</g>
<!-- repair&#45;&gt;storm -->
<g id="edge10" class="edge">
<title>repair&#45;&gt;storm</title>
<path fill="none" stroke="#546e7a" stroke-width="1.5" d="M476.88,-97.1C476.88,-97.1 476.88,-48.78 476.88,-48.78"/>
<polygon fill="#546e7a" stroke="#546e7a" stroke-width="1.5" points="480.38,-48.78 476.88,-38.78 473.38,-48.78 480.38,-48.78"/>
<text xml:space="preserve" text-anchor="middle" x="463.37" y="-74.89" font-family="Arial" font-size="9.00">pass 4</text>
</g>
<!-- flash_first -->
<g id="node13" class="node">
<title>flash_first</title>
<path fill="#f1f8e9" stroke="#33691e" stroke-width="1.5" d="M609.12,-36C609.12,-36 574.38,-36 574.38,-36 568.38,-36 562.38,-30 562.38,-24 562.38,-24 562.38,-12 562.38,-12 562.38,-6 568.38,0 574.38,0 574.38,0 609.12,0 609.12,0 615.12,0 621.12,-6 621.12,-12 621.12,-12 621.12,-24 621.12,-24 621.12,-30 615.12,-36 609.12,-36"/>
<text xml:space="preserve" text-anchor="middle" x="591.75" y="-19.95" font-family="Arial" font-size="9.00">Flash&#45;First</text>
<text xml:space="preserve" text-anchor="middle" x="591.75" y="-9.45" font-family="Arial" font-size="9.00">Defaults</text>
</g>
<!-- cost&#45;&gt;flash_first -->
<g id="edge12" class="edge">
<title>cost&#45;&gt;flash_first</title>
<path fill="none" stroke="#546e7a" stroke-width="1.5" d="M591.75,-97.1C591.75,-97.1 591.75,-48.78 591.75,-48.78"/>
<polygon fill="#546e7a" stroke="#546e7a" stroke-width="1.5" points="595.25,-48.78 591.75,-38.78 588.25,-48.78 595.25,-48.78"/>
</g>
<!-- auto_compact -->
<g id="node14" class="node">
<title>auto_compact</title>
<path fill="#f1f8e9" stroke="#33691e" stroke-width="1.5" d="M739.38,-36C739.38,-36 676.12,-36 676.12,-36 670.12,-36 664.12,-30 664.12,-24 664.12,-24 664.12,-12 664.12,-12 664.12,-6 670.12,0 676.12,0 676.12,0 739.38,0 739.38,0 745.38,0 751.38,-6 751.38,-12 751.38,-12 751.38,-24 751.38,-24 751.38,-30 745.38,-36 739.38,-36"/>
<text xml:space="preserve" text-anchor="middle" x="707.75" y="-19.95" font-family="Arial" font-size="9.00">Turn&#45;End</text>
<text xml:space="preserve" text-anchor="middle" x="707.75" y="-9.45" font-family="Arial" font-size="9.00">Auto&#45;Compaction</text>
</g>
<!-- cost&#45;&gt;auto_compact -->
<g id="edge13" class="edge">
<title>cost&#45;&gt;auto_compact</title>
<path fill="none" stroke="#546e7a" stroke-width="1.5" d="M637.98,-110C655.41,-110 672.06,-110 672.06,-110 672.06,-110 672.06,-48.89 672.06,-48.89"/>
<polygon fill="#546e7a" stroke="#546e7a" stroke-width="1.5" points="675.56,-48.89 672.06,-38.89 668.56,-48.89 675.56,-48.89"/>
</g>
<!-- pro_arm -->
<g id="node15" class="node">
<title>pro_arm</title>
<path fill="#f1f8e9" stroke="#33691e" stroke-width="1.5" d="M864.75,-36C864.75,-36 806.75,-36 806.75,-36 800.75,-36 794.75,-30 794.75,-24 794.75,-24 794.75,-12 794.75,-12 794.75,-6 800.75,0 806.75,0 806.75,0 864.75,0 864.75,0 870.75,0 876.75,-6 876.75,-12 876.75,-12 876.75,-24 876.75,-24 876.75,-30 870.75,-36 864.75,-36"/>
<text xml:space="preserve" text-anchor="middle" x="835.75" y="-19.95" font-family="Arial" font-size="9.00">/pro Single&#45;Turn</text>
<text xml:space="preserve" text-anchor="middle" x="835.75" y="-9.45" font-family="Arial" font-size="9.00">Arming</text>
</g>
<!-- cost&#45;&gt;pro_arm -->
<g id="edge14" class="edge">
<title>cost&#45;&gt;pro_arm</title>
<path fill="none" stroke="#546e7a" stroke-width="1.5" d="M626.46,-97.06C626.46,-76.94 626.46,-48 626.46,-48 626.46,-48 806.12,-48 806.12,-48 806.12,-48 806.12,-46.85 806.12,-46.85"/>
<polygon fill="#546e7a" stroke="#546e7a" stroke-width="1.5" points="809.63,-48.76 806.13,-38.76 802.63,-48.76 809.63,-48.76"/>
</g>
<!-- auto_escalate -->
<g id="node16" class="node">
<title>auto_escalate</title>
<path fill="#f1f8e9" stroke="#33691e" stroke-width="1.5" d="M988,-36C988,-36 931.5,-36 931.5,-36 925.5,-36 919.5,-30 919.5,-24 919.5,-24 919.5,-12 919.5,-12 919.5,-6 925.5,0 931.5,0 931.5,0 988,0 988,0 994,0 1000,-6 1000,-12 1000,-12 1000,-24 1000,-24 1000,-30 994,-36 988,-36"/>
<text xml:space="preserve" text-anchor="middle" x="959.75" y="-19.95" font-family="Arial" font-size="9.00">Failure&#45;Signal</text>
<text xml:space="preserve" text-anchor="middle" x="959.75" y="-9.45" font-family="Arial" font-size="9.00">Auto&#45;Escalation</text>
</g>
<!-- cost&#45;&gt;auto_escalate -->
<g id="edge15" class="edge">
<title>cost&#45;&gt;auto_escalate</title>
<path fill="none" stroke="#546e7a" stroke-width="1.5" d="M631.79,-96.92C631.79,-84.65 631.79,-71 631.79,-71 631.79,-71 927.44,-71 927.44,-71 927.44,-71 927.44,-48.81 927.44,-48.81"/>
<polygon fill="#546e7a" stroke="#546e7a" stroke-width="1.5" points="930.94,-48.81 927.44,-38.81 923.94,-48.81 930.94,-48.81"/>
</g>
<!-- deepseek&#45;&gt;loop -->
<g id="edge19" class="edge">
<title>deepseek&#45;&gt;loop</title>
<path fill="none" stroke="#546e7a" stroke-width="1.5" stroke-dasharray="5,2" d="M1011.96,-134.9C1011.96,-163.37 1011.96,-214 1011.96,-214 1011.96,-214 658.42,-214 658.42,-214"/>
<polygon fill="#546e7a" stroke="#546e7a" stroke-width="1.5" points="658.42,-210.5 648.42,-214 658.42,-217.5 658.42,-210.5"/>
<text xml:space="preserve" text-anchor="middle" x="841.74" y="-205.45" font-family="Arial" font-size="9.00">cache hit tokens</text>
</g>
</g>
</svg>
