<?xml version="1.0" encoding="UTF-8" standalone="no"?>
<!DOCTYPE svg PUBLIC "-//W3C//DTD SVG 1.1//EN"
 "http://www.w3.org/Graphics/SVG/1.1/DTD/svg11.dtd">
<!-- Generated by graphviz version 14.1.2 (0)
 -->
<!-- Title: DeepSeek_Reasonix_Features Pages: 1 -->
<svg width="420pt" height="1556pt"
 viewBox="0.00 0.00 420.00 1556.00" xmlns="http://www.w3.org/2000/svg" xmlns:xlink="http://www.w3.org/1999/xlink">
<g id="graph0" class="graph" transform="scale(1 1) rotate(0) translate(4 1552)">
<title>DeepSeek_Reasonix_Features</title>
<polygon fill="white" stroke="none" points="-4,4 -4,-1552 416.47,-1552 416.47,4 -4,4"/>
<!-- reasonix -->
<g id="node1" class="node">
<title>reasonix</title>
<ellipse fill="#fff3e0" stroke="#e65100" stroke-width="3" cx="55.86" cy="-810" rx="55.86" ry="27.93"/>
<text xml:space="preserve" text-anchor="middle" x="55.86" y="-812.45" font-family="Arial" font-size="14.00">DeepSeek</text>
<text xml:space="preserve" text-anchor="middle" x="55.86" y="-796.7" font-family="Arial" font-size="14.00">Reasonix</text>
</g>
<!-- cache_cat -->
<g id="node2" class="node">
<title>cache_cat</title>
<path fill="#e3f2fd" stroke="#1565c0" stroke-width="2" d="M224.97,-1332C224.97,-1332 173.72,-1332 173.72,-1332 167.72,-1332 161.72,-1326 161.72,-1320 161.72,-1320 161.72,-1308 161.72,-1308 161.72,-1302 167.72,-1296 173.72,-1296 173.72,-1296 224.97,-1296 224.97,-1296 230.97,-1296 236.97,-1302 236.97,-1308 236.97,-1308 236.97,-1320 236.97,-1320 236.97,-1326 230.97,-1332 224.97,-1332"/>
<text xml:space="preserve" text-anchor="middle" x="199.35" y="-1317.05" font-family="Arial" font-size="11.00">Cache and</text>
<text xml:space="preserve" text-anchor="middle" x="199.35" y="-1303.55" font-family="Arial" font-size="11.00">Cost Engine</text>
</g>
<!-- reasonix&#45;&gt;cache_cat -->
<g id="edge23" class="edge">
<title>reasonix&#45;&gt;cache_cat</title>
<path fill="none" stroke="#263238" stroke-width="2" d="M55.47,-839.28C55.47,-946.84 55.47,-1314 55.47,-1314 55.47,-1314 147.76,-1314 147.76,-1314"/>
<polygon fill="#263238" stroke="#263238" stroke-width="2" points="147.76,-1317.5 157.76,-1314 147.76,-1310.5 147.76,-1317.5"/>
</g>
<!-- repair_cat -->
<g id="node9" class="node">
<title>repair_cat</title>
<path fill="#e3f2fd" stroke="#1565c0" stroke-width="2" d="M216.35,-972C216.35,-972 182.35,-972 182.35,-972 176.35,-972 170.35,-966 170.35,-960 170.35,-960 170.35,-948 170.35,-948 170.35,-942 176.35,-936 182.35,-936 182.35,-936 216.35,-936 216.35,-936 222.35,-936 228.35,-942 228.35,-948 228.35,-948 228.35,-960 228.35,-960 228.35,-966 222.35,-972 216.35,-972"/>
<text xml:space="preserve" text-anchor="middle" x="199.35" y="-957.05" font-family="Arial" font-size="11.00">Tool&#45;Call</text>
<text xml:space="preserve" text-anchor="middle" x="199.35" y="-943.55" font-family="Arial" font-size="11.00">Repair</text>
</g>
<!-- reasonix&#45;&gt;repair_cat -->
<g id="edge24" class="edge">
<title>reasonix&#45;&gt;repair_cat</title>
<path fill="none" stroke="#263238" stroke-width="2" d="M91.73,-832.97C134.27,-832.97 199.47,-832.97 199.47,-832.97 199.47,-832.97 199.47,-922.06 199.47,-922.06"/>
<polygon fill="#263238" stroke="#263238" stroke-width="2" points="195.97,-922.06 199.47,-932.06 202.97,-922.06 195.97,-922.06"/>
</g>
<!-- dev_cat -->
<g id="node14" class="node">
<title>dev_cat</title>
<path fill="#e3f2fd" stroke="#1565c0" stroke-width="2" d="M222.35,-684C222.35,-684 176.35,-684 176.35,-684 170.35,-684 164.35,-678 164.35,-672 164.35,-672 164.35,-660 164.35,-660 164.35,-654 170.35,-648 176.35,-648 176.35,-648 222.35,-648 222.35,-648 228.35,-648 234.35,-654 234.35,-660 234.35,-660 234.35,-672 234.35,-672 234.35,-678 228.35,-684 222.35,-684"/>
<text xml:space="preserve" text-anchor="middle" x="199.35" y="-669.05" font-family="Arial" font-size="11.00">Developer</text>
<text xml:space="preserve" text-anchor="middle" x="199.35" y="-655.55" font-family="Arial" font-size="11.00">Experience</text>
</g>
<!-- reasonix&#45;&gt;dev_cat -->
<g id="edge25" class="edge">
<title>reasonix&#45;&gt;dev_cat</title>
<path fill="none" stroke="#263238" stroke-width="2" d="M91.57,-787.03C128.39,-787.03 180.47,-787.03 180.47,-787.03 180.47,-787.03 180.47,-697.94 180.47,-697.94"/>
<polygon fill="#263238" stroke="#263238" stroke-width="2" points="183.97,-697.94 180.47,-687.94 176.97,-697.94 183.97,-697.94"/>
</g>
<!-- int_cat -->
<g id="node21" class="node">
<title>int_cat</title>
<path fill="#e3f2fd" stroke="#1565c0" stroke-width="2" d="M223.47,-252C223.47,-252 175.22,-252 175.22,-252 169.22,-252 163.22,-246 163.22,-240 163.22,-240 163.22,-228 163.22,-228 163.22,-222 169.22,-216 175.22,-216 175.22,-216 223.47,-216 223.47,-216 229.47,-216 235.47,-222 235.47,-228 235.47,-228 235.47,-240 235.47,-240 235.47,-246 229.47,-252 223.47,-252"/>
<text xml:space="preserve" text-anchor="middle" x="199.35" y="-230.3" font-family="Arial" font-size="11.00">Integrations</text>
</g>
<!-- reasonix&#45;&gt;int_cat -->
<g id="edge26" class="edge">
<title>reasonix&#45;&gt;int_cat</title>
<path fill="none" stroke="#263238" stroke-width="2" d="M55.47,-780.64C55.47,-663.27 55.47,-234 55.47,-234 55.47,-234 149.27,-234 149.27,-234"/>
<polygon fill="#263238" stroke="#263238" stroke-width="2" points="149.27,-237.5 159.27,-234 149.27,-230.5 149.27,-237.5"/>
</g>
<!-- prefix_cache -->
<g id="node3" class="node">
<title>prefix_cache</title>
<path fill="#f1f8e9" stroke="#33691e" stroke-width="1.5" d="M382.85,-1548C382.85,-1548 316.6,-1548 316.6,-1548 310.6,-1548 304.6,-1542 304.6,-1536 304.6,-1536 304.6,-1524 304.6,-1524 304.6,-1518 310.6,-1512 316.6,-1512 316.6,-1512 382.85,-1512 382.85,-1512 388.85,-1512 394.85,-1518 394.85,-1524 394.85,-1524 394.85,-1536 394.85,-1536 394.85,-1542 388.85,-1548 382.85,-1548"/>
<text xml:space="preserve" text-anchor="middle" x="349.72" y="-1531.95" font-family="Arial" font-size="9.00">99.82% Cache Hit</text>
<text xml:space="preserve" text-anchor="middle" x="349.72" y="-1521.45" font-family="Arial" font-size="9.00">Rate (real&#45;world)</text>
</g>
<!-- cache_cat&#45;&gt;prefix_cache -->
<g id="edge1" class="edge">
<title>cache_cat&#45;&gt;prefix_cache</title>
<path fill="none" stroke="#90a4ae" stroke-width="1.2" d="M180.47,-1332.79C180.47,-1385.34 180.47,-1530 180.47,-1530 180.47,-1530 292.11,-1530 292.11,-1530"/>
<polygon fill="#90a4ae" stroke="#90a4ae" stroke-width="1.2" points="292.11,-1533.5 302.11,-1530 292.11,-1526.5 292.11,-1533.5"/>
</g>
<!-- flash_first -->
<g id="node4" class="node">
<title>flash_first</title>
<path fill="#f1f8e9" stroke="#33691e" stroke-width="1.5" d="M385.1,-1476C385.1,-1476 314.35,-1476 314.35,-1476 308.35,-1476 302.35,-1470 302.35,-1464 302.35,-1464 302.35,-1452 302.35,-1452 302.35,-1446 308.35,-1440 314.35,-1440 314.35,-1440 385.1,-1440 385.1,-1440 391.1,-1440 397.1,-1446 397.1,-1452 397.1,-1452 397.1,-1464 397.1,-1464 397.1,-1470 391.1,-1476 385.1,-1476"/>
<text xml:space="preserve" text-anchor="middle" x="349.72" y="-1459.95" font-family="Arial" font-size="9.00">Flash&#45;First Defaults</text>
<text xml:space="preserve" text-anchor="middle" x="349.72" y="-1449.45" font-family="Arial" font-size="9.00">(1x base cost)</text>
</g>
<!-- cache_cat&#45;&gt;flash_first -->
<g id="edge2" class="edge">
<title>cache_cat&#45;&gt;flash_first</title>
<path fill="none" stroke="#90a4ae" stroke-width="1.2" d="M199.47,-1332.83C199.47,-1371.86 199.47,-1458 199.47,-1458 199.47,-1458 289.95,-1458 289.95,-1458"/>
<polygon fill="#90a4ae" stroke="#90a4ae" stroke-width="1.2" points="289.95,-1461.5 299.95,-1458 289.95,-1454.5 289.95,-1461.5"/>
</g>
<!-- auto_compact -->
<g id="node5" class="node">
<title>auto_compact</title>
<path fill="#f1f8e9" stroke="#33691e" stroke-width="1.5" d="M381.35,-1404C381.35,-1404 318.1,-1404 318.1,-1404 312.1,-1404 306.1,-1398 306.1,-1392 306.1,-1392 306.1,-1380 306.1,-1380 306.1,-1374 312.1,-1368 318.1,-1368 318.1,-1368 381.35,-1368 381.35,-1368 387.35,-1368 393.35,-1374 393.35,-1380 393.35,-1380 393.35,-1392 393.35,-1392 393.35,-1398 387.35,-1404 381.35,-1404"/>
<text xml:space="preserve" text-anchor="middle" x="349.72" y="-1387.95" font-family="Arial" font-size="9.00">Turn&#45;End</text>
<text xml:space="preserve" text-anchor="middle" x="349.72" y="-1377.45" font-family="Arial" font-size="9.00">Auto&#45;Compaction</text>
</g>
<!-- cache_cat&#45;&gt;auto_compact -->
<g id="edge3" class="edge">
<title>cache_cat&#45;&gt;auto_compact</title>
<path fill="none" stroke="#90a4ae" stroke-width="1.2" d="M218.47,-1332.92C218.47,-1354.25 218.47,-1386 218.47,-1386 218.47,-1386 293.84,-1386 293.84,-1386"/>
<polygon fill="#90a4ae" stroke="#90a4ae" stroke-width="1.2" points="293.84,-1389.5 303.84,-1386 293.84,-1382.5 293.84,-1389.5"/>
</g>
<!-- pro_arm -->
<g id="node6" class="node">
<title>pro_arm</title>
<path fill="#f1f8e9" stroke="#33691e" stroke-width="1.5" d="M378.72,-1332C378.72,-1332 320.72,-1332 320.72,-1332 314.72,-1332 308.72,-1326 308.72,-1320 308.72,-1320 308.72,-1308 308.72,-1308 308.72,-1302 314.72,-1296 320.72,-1296 320.72,-1296 378.72,-1296 378.72,-1296 384.72,-1296 390.72,-1302 390.72,-1308 390.72,-1308 390.72,-1320 390.72,-1320 390.72,-1326 384.72,-1332 378.72,-1332"/>
<text xml:space="preserve" text-anchor="middle" x="349.72" y="-1315.95" font-family="Arial" font-size="9.00">/pro Single&#45;Turn</text>
<text xml:space="preserve" text-anchor="middle" x="349.72" y="-1305.45" font-family="Arial" font-size="9.00">Arming</text>
</g>
<!-- cache_cat&#45;&gt;pro_arm -->
<g id="edge4" class="edge">
<title>cache_cat&#45;&gt;pro_arm</title>
<path fill="none" stroke="#90a4ae" stroke-width="1.2" d="M237.68,-1314C237.68,-1314 296.21,-1314 296.21,-1314"/>
<polygon fill="#90a4ae" stroke="#90a4ae" stroke-width="1.2" points="296.21,-1317.5 306.21,-1314 296.21,-1310.5 296.21,-1317.5"/>
</g>
<!-- auto_escalate -->
<g id="node7" class="node">
<title>auto_escalate</title>
<path fill="#f1f8e9" stroke="#33691e" stroke-width="1.5" d="M377.97,-1260C377.97,-1260 321.47,-1260 321.47,-1260 315.47,-1260 309.47,-1254 309.47,-1248 309.47,-1248 309.47,-1236 309.47,-1236 309.47,-1230 315.47,-1224 321.47,-1224 321.47,-1224 377.97,-1224 377.97,-1224 383.97,-1224 389.97,-1230 389.97,-1236 389.97,-1236 389.97,-1248 389.97,-1248 389.97,-1254 383.97,-1260 377.97,-1260"/>
<text xml:space="preserve" text-anchor="middle" x="349.72" y="-1243.95" font-family="Arial" font-size="9.00">Failure&#45;Signal</text>
<text xml:space="preserve" text-anchor="middle" x="349.72" y="-1233.45" font-family="Arial" font-size="9.00">Auto&#45;Escalation</text>
</g>
<!-- cache_cat&#45;&gt;auto_escalate -->
<g id="edge5" class="edge">
<title>cache_cat&#45;&gt;auto_escalate</title>
<path fill="none" stroke="#90a4ae" stroke-width="1.2" d="M216.47,-1295.08C216.47,-1273.75 216.47,-1242 216.47,-1242 216.47,-1242 297.2,-1242 297.2,-1242"/>
<polygon fill="#90a4ae" stroke="#90a4ae" stroke-width="1.2" points="297.2,-1245.5 307.2,-1242 297.2,-1238.5 297.2,-1245.5"/>
</g>
<!-- cost_badges -->
<g id="node8" class="node">
<title>cost_badges</title>
<path fill="#f1f8e9" stroke="#33691e" stroke-width="1.5" d="M389.22,-1188C389.22,-1188 310.22,-1188 310.22,-1188 304.22,-1188 298.22,-1182 298.22,-1176 298.22,-1176 298.22,-1164 298.22,-1164 298.22,-1158 304.22,-1152 310.22,-1152 310.22,-1152 389.22,-1152 389.22,-1152 395.22,-1152 401.22,-1158 401.22,-1164 401.22,-1164 401.22,-1176 401.22,-1176 401.22,-1182 395.22,-1188 389.22,-1188"/>
<text xml:space="preserve" text-anchor="middle" x="349.72" y="-1171.95" font-family="Arial" font-size="9.00">Per&#45;Turn and</text>
<text xml:space="preserve" text-anchor="middle" x="349.72" y="-1161.45" font-family="Arial" font-size="9.00">Session Cost Display</text>
</g>
<!-- cache_cat&#45;&gt;cost_badges -->
<g id="edge6" class="edge">
<title>cache_cat&#45;&gt;cost_badges</title>
<path fill="none" stroke="#90a4ae" stroke-width="1.2" d="M193.47,-1295.17C193.47,-1256.14 193.47,-1170 193.47,-1170 193.47,-1170 285.88,-1170 285.88,-1170"/>
<polygon fill="#90a4ae" stroke="#90a4ae" stroke-width="1.2" points="285.88,-1173.5 295.88,-1170 285.88,-1166.5 285.88,-1173.5"/>
</g>
<!-- flatten_feat -->
<g id="node10" class="node">
<title>flatten_feat</title>
<path fill="#f1f8e9" stroke="#33691e" stroke-width="1.5" d="M377.6,-1116C377.6,-1116 321.85,-1116 321.85,-1116 315.85,-1116 309.85,-1110 309.85,-1104 309.85,-1104 309.85,-1092 309.85,-1092 309.85,-1086 315.85,-1080 321.85,-1080 321.85,-1080 377.6,-1080 377.6,-1080 383.6,-1080 389.6,-1086 389.6,-1092 389.6,-1092 389.6,-1104 389.6,-1104 389.6,-1110 383.6,-1116 377.6,-1116"/>
<text xml:space="preserve" text-anchor="middle" x="349.72" y="-1099.95" font-family="Arial" font-size="9.00">Schema Flatten</text>
<text xml:space="preserve" text-anchor="middle" x="349.72" y="-1089.45" font-family="Arial" font-size="9.00">(&gt; 10 params)</text>
</g>
<!-- repair_cat&#45;&gt;flatten_feat -->
<g id="edge7" class="edge">
<title>repair_cat&#45;&gt;flatten_feat</title>
<path fill="none" stroke="#90a4ae" stroke-width="1.2" d="M181.47,-972.83C181.47,-1011.86 181.47,-1098 181.47,-1098 181.47,-1098 297.61,-1098 297.61,-1098"/>
<polygon fill="#90a4ae" stroke="#90a4ae" stroke-width="1.2" points="297.61,-1101.5 307.61,-1098 297.61,-1094.5 297.61,-1101.5"/>
</g>
<!-- scavenge_feat -->
<g id="node11" class="node">
<title>scavenge_feat</title>
<path fill="#f1f8e9" stroke="#33691e" stroke-width="1.5" d="M388.1,-1044C388.1,-1044 311.35,-1044 311.35,-1044 305.35,-1044 299.35,-1038 299.35,-1032 299.35,-1032 299.35,-1020 299.35,-1020 299.35,-1014 305.35,-1008 311.35,-1008 311.35,-1008 388.1,-1008 388.1,-1008 394.1,-1008 400.1,-1014 400.1,-1020 400.1,-1020 400.1,-1032 400.1,-1032 400.1,-1038 394.1,-1044 388.1,-1044"/>
<text xml:space="preserve" text-anchor="middle" x="349.72" y="-1027.95" font-family="Arial" font-size="9.00">Scavenge</text>
<text xml:space="preserve" text-anchor="middle" x="349.72" y="-1017.45" font-family="Arial" font-size="9.00">(reasoning recovery)</text>
</g>
<!-- repair_cat&#45;&gt;scavenge_feat -->
<g id="edge8" class="edge">
<title>repair_cat&#45;&gt;scavenge_feat</title>
<path fill="none" stroke="#90a4ae" stroke-width="1.2" d="M205.47,-972.92C205.47,-994.25 205.47,-1026 205.47,-1026 205.47,-1026 287.05,-1026 287.05,-1026"/>
<polygon fill="#90a4ae" stroke="#90a4ae" stroke-width="1.2" points="287.05,-1029.5 297.05,-1026 287.05,-1022.5 287.05,-1029.5"/>
</g>
<!-- truncation_feat -->
<g id="node12" class="node">
<title>truncation_feat</title>
<path fill="#f1f8e9" stroke="#33691e" stroke-width="1.5" d="M382.47,-972C382.47,-972 316.97,-972 316.97,-972 310.97,-972 304.97,-966 304.97,-960 304.97,-960 304.97,-948 304.97,-948 304.97,-942 310.97,-936 316.97,-936 316.97,-936 382.47,-936 382.47,-936 388.47,-936 394.47,-942 394.47,-948 394.47,-948 394.47,-960 394.47,-960 394.47,-966 388.47,-972 382.47,-972"/>
<text xml:space="preserve" text-anchor="middle" x="349.72" y="-955.95" font-family="Arial" font-size="9.00">Truncation Repair</text>
<text xml:space="preserve" text-anchor="middle" x="349.72" y="-945.45" font-family="Arial" font-size="9.00">(close JSON)</text>
</g>
<!-- repair_cat&#45;&gt;truncation_feat -->
<g id="edge9" class="edge">
<title>repair_cat&#45;&gt;truncation_feat</title>
<path fill="none" stroke="#90a4ae" stroke-width="1.2" d="M229.06,-954C229.06,-954 292.55,-954 292.55,-954"/>
<polygon fill="#90a4ae" stroke="#90a4ae" stroke-width="1.2" points="292.55,-957.5 302.55,-954 292.55,-950.5 292.55,-957.5"/>
</g>
<!-- storm_feat -->
<g id="node13" class="node">
<title>storm_feat</title>
<path fill="#f1f8e9" stroke="#33691e" stroke-width="1.5" d="M374.22,-900C374.22,-900 325.22,-900 325.22,-900 319.22,-900 313.22,-894 313.22,-888 313.22,-888 313.22,-876 313.22,-876 313.22,-870 319.22,-864 325.22,-864 325.22,-864 374.22,-864 374.22,-864 380.22,-864 386.22,-870 386.22,-876 386.22,-876 386.22,-888 386.22,-888 386.22,-894 380.22,-900 374.22,-900"/>
<text xml:space="preserve" text-anchor="middle" x="349.72" y="-883.95" font-family="Arial" font-size="9.00">Call&#45;Storm</text>
<text xml:space="preserve" text-anchor="middle" x="349.72" y="-873.45" font-family="Arial" font-size="9.00">Deduplication</text>
</g>
<!-- repair_cat&#45;&gt;storm_feat -->
<g id="edge10" class="edge">
<title>repair_cat&#45;&gt;storm_feat</title>
<path fill="none" stroke="#90a4ae" stroke-width="1.2" d="M209.47,-935.08C209.47,-913.75 209.47,-882 209.47,-882 209.47,-882 300.69,-882 300.69,-882"/>
<polygon fill="#90a4ae" stroke="#90a4ae" stroke-width="1.2" points="300.69,-885.5 310.69,-882 300.69,-878.5 300.69,-885.5"/>
</g>
<!-- search_replace -->
<g id="node15" class="node">
<title>search_replace</title>
<path fill="#f1f8e9" stroke="#33691e" stroke-width="1.5" d="M387.35,-828C387.35,-828 312.1,-828 312.1,-828 306.1,-828 300.1,-822 300.1,-816 300.1,-816 300.1,-804 300.1,-804 300.1,-798 306.1,-792 312.1,-792 312.1,-792 387.35,-792 387.35,-792 393.35,-792 399.35,-798 399.35,-804 399.35,-804 399.35,-816 399.35,-816 399.35,-822 393.35,-828 387.35,-828"/>
<text xml:space="preserve" text-anchor="middle" x="349.72" y="-811.95" font-family="Arial" font-size="9.00">SEARCH/REPLACE</text>
<text xml:space="preserve" text-anchor="middle" x="349.72" y="-801.45" font-family="Arial" font-size="9.00">Edit Review</text>
</g>
<!-- dev_cat&#45;&gt;search_replace -->
<g id="edge11" class="edge">
<title>dev_cat&#45;&gt;search_replace</title>
<path fill="none" stroke="#90a4ae" stroke-width="1.2" d="M189.47,-684.83C189.47,-723.86 189.47,-810 189.47,-810 189.47,-810 287.64,-810 287.64,-810"/>
<polygon fill="#90a4ae" stroke="#90a4ae" stroke-width="1.2" points="287.64,-813.5 297.64,-810 287.64,-806.5 287.64,-813.5"/>
</g>
<!-- plan_mode -->
<g id="node16" class="node">
<title>plan_mode</title>
<path fill="#f1f8e9" stroke="#33691e" stroke-width="1.5" d="M367.85,-756C367.85,-756 331.6,-756 331.6,-756 325.6,-756 319.6,-750 319.6,-744 319.6,-744 319.6,-732 319.6,-732 319.6,-726 325.6,-720 331.6,-720 331.6,-720 367.85,-720 367.85,-720 373.85,-720 379.85,-726 379.85,-732 379.85,-732 379.85,-744 379.85,-744 379.85,-750 373.85,-756 367.85,-756"/>
<text xml:space="preserve" text-anchor="middle" x="349.72" y="-739.95" font-family="Arial" font-size="9.00">Plan Mode</text>
<text xml:space="preserve" text-anchor="middle" x="349.72" y="-729.45" font-family="Arial" font-size="9.00">with /todo</text>
</g>
<!-- dev_cat&#45;&gt;plan_mode -->
<g id="edge12" class="edge">
<title>dev_cat&#45;&gt;plan_mode</title>
<path fill="none" stroke="#90a4ae" stroke-width="1.2" d="M218.47,-684.92C218.47,-706.25 218.47,-738 218.47,-738 218.47,-738 307.13,-738 307.13,-738"/>
<polygon fill="#90a4ae" stroke="#90a4ae" stroke-width="1.2" points="307.13,-741.5 317.13,-738 307.13,-734.5 307.13,-741.5"/>
</g>
<!-- skills -->
<g id="node17" class="node">
<title>skills</title>
<path fill="#f1f8e9" stroke="#33691e" stroke-width="1.5" d="M385.47,-684C385.47,-684 313.97,-684 313.97,-684 307.97,-684 301.97,-678 301.97,-672 301.97,-672 301.97,-660 301.97,-660 301.97,-654 307.97,-648 313.97,-648 313.97,-648 385.47,-648 385.47,-648 391.47,-648 397.47,-654 397.47,-660 397.47,-660 397.47,-672 397.47,-672 397.47,-678 391.47,-684 385.47,-684"/>
<text xml:space="preserve" text-anchor="middle" x="349.72" y="-667.95" font-family="Arial" font-size="9.00">Custom Skills</text>
<text xml:space="preserve" text-anchor="middle" x="349.72" y="-657.45" font-family="Arial" font-size="9.00">(inline or subagent)</text>
</g>
<!-- dev_cat&#45;&gt;skills -->
<g id="edge13" class="edge">
<title>dev_cat&#45;&gt;skills</title>
<path fill="none" stroke="#90a4ae" stroke-width="1.2" d="M234.98,-672C234.98,-672 289.44,-672 289.44,-672"/>
<polygon fill="#90a4ae" stroke="#90a4ae" stroke-width="1.2" points="289.44,-675.5 299.44,-672 289.44,-668.5 289.44,-675.5"/>
</g>
<!-- memory -->
<g id="node18" class="node">
<title>memory</title>
<path fill="#f1f8e9" stroke="#33691e" stroke-width="1.5" d="M386.6,-612C386.6,-612 312.85,-612 312.85,-612 306.85,-612 300.85,-606 300.85,-600 300.85,-600 300.85,-588 300.85,-588 300.85,-582 306.85,-576 312.85,-576 312.85,-576 386.6,-576 386.6,-576 392.6,-576 398.6,-582 398.6,-588 398.6,-588 398.6,-600 398.6,-600 398.6,-606 392.6,-612 386.6,-612"/>
<text xml:space="preserve" text-anchor="middle" x="349.72" y="-595.95" font-family="Arial" font-size="9.00">Persistent Memory</text>
<text xml:space="preserve" text-anchor="middle" x="349.72" y="-585.45" font-family="Arial" font-size="9.00">(user/project/global)</text>
</g>
<!-- dev_cat&#45;&gt;memory -->
<g id="edge14" class="edge">
<title>dev_cat&#45;&gt;memory</title>
<path fill="none" stroke="#90a4ae" stroke-width="1.2" d="M216.47,-647.08C216.47,-625.75 216.47,-594 216.47,-594 216.47,-594 288.29,-594 288.29,-594"/>
<polygon fill="#90a4ae" stroke="#90a4ae" stroke-width="1.2" points="288.29,-597.5 298.29,-594 288.29,-590.5 288.29,-597.5"/>
</g>
<!-- hooks -->
<g id="node19" class="node">
<title>hooks</title>
<path fill="#f1f8e9" stroke="#33691e" stroke-width="1.5" d="M399.72,-540C399.72,-540 299.72,-540 299.72,-540 293.72,-540 287.72,-534 287.72,-528 287.72,-528 287.72,-516 287.72,-516 287.72,-510 293.72,-504 299.72,-504 299.72,-504 399.72,-504 399.72,-504 405.72,-504 411.72,-510 411.72,-516 411.72,-516 411.72,-528 411.72,-528 411.72,-534 405.72,-540 399.72,-540"/>
<text xml:space="preserve" text-anchor="middle" x="349.72" y="-523.95" font-family="Arial" font-size="9.00">Lifecycle Hooks</text>
<text xml:space="preserve" text-anchor="middle" x="349.72" y="-513.45" font-family="Arial" font-size="9.00">(PreToolUse/PostToolUse)</text>
</g>
<!-- dev_cat&#45;&gt;hooks -->
<g id="edge15" class="edge">
<title>dev_cat&#45;&gt;hooks</title>
<path fill="none" stroke="#90a4ae" stroke-width="1.2" d="M235.09,-660C261.35,-660 292.47,-660 292.47,-660 292.47,-660 292.47,-552.43 292.47,-552.43"/>
<polygon fill="#90a4ae" stroke="#90a4ae" stroke-width="1.2" points="295.97,-552.43 292.47,-542.43 288.97,-552.43 295.97,-552.43"/>
</g>
<!-- dashboard -->
<g id="node20" class="node">
<title>dashboard</title>
<path fill="#f1f8e9" stroke="#33691e" stroke-width="1.5" d="M384.72,-468C384.72,-468 314.72,-468 314.72,-468 308.72,-468 302.72,-462 302.72,-456 302.72,-456 302.72,-444 302.72,-444 302.72,-438 308.72,-432 314.72,-432 314.72,-432 384.72,-432 384.72,-432 390.72,-432 396.72,-438 396.72,-444 396.72,-444 396.72,-456 396.72,-456 396.72,-462 390.72,-468 384.72,-468"/>
<text xml:space="preserve" text-anchor="middle" x="349.72" y="-451.95" font-family="Arial" font-size="9.00">Web Dashboard</text>
<text xml:space="preserve" text-anchor="middle" x="349.72" y="-441.45" font-family="Arial" font-size="9.00">(cost + cache stats)</text>
</g>
<!-- dev_cat&#45;&gt;dashboard -->
<g id="edge16" class="edge">
<title>dev_cat&#45;&gt;dashboard</title>
<path fill="none" stroke="#90a4ae" stroke-width="1.2" d="M181.47,-647.21C181.47,-594.66 181.47,-450 181.47,-450 181.47,-450 290.59,-450 290.59,-450"/>
<polygon fill="#90a4ae" stroke="#90a4ae" stroke-width="1.2" points="290.59,-453.5 300.59,-450 290.59,-446.5 290.59,-453.5"/>
</g>
<!-- mcp_feat -->
<g id="node22" class="node">
<title>mcp_feat</title>
<path fill="#f1f8e9" stroke="#33691e" stroke-width="1.5" d="M372.72,-396C372.72,-396 326.72,-396 326.72,-396 320.72,-396 314.72,-390 314.72,-384 314.72,-384 314.72,-372 314.72,-372 314.72,-366 320.72,-360 326.72,-360 326.72,-360 372.72,-360 372.72,-360 378.72,-360 384.72,-366 384.72,-372 384.72,-372 384.72,-384 384.72,-384 384.72,-390 378.72,-396 372.72,-396"/>
<text xml:space="preserve" text-anchor="middle" x="349.72" y="-379.95" font-family="Arial" font-size="9.00">MCP Servers</text>
<text xml:space="preserve" text-anchor="middle" x="349.72" y="-369.45" font-family="Arial" font-size="9.00">(stdio + SSE)</text>
</g>
<!-- int_cat&#45;&gt;mcp_feat -->
<g id="edge17" class="edge">
<title>int_cat&#45;&gt;mcp_feat</title>
<path fill="none" stroke="#90a4ae" stroke-width="1.2" d="M199.47,-252.83C199.47,-291.86 199.47,-378 199.47,-378 199.47,-378 302.3,-378 302.3,-378"/>
<polygon fill="#90a4ae" stroke="#90a4ae" stroke-width="1.2" points="302.3,-381.5 312.3,-378 302.3,-374.5 302.3,-381.5"/>
</g>
<!-- web_search -->
<g id="node23" class="node">
<title>web_search</title>
<path fill="#f1f8e9" stroke="#33691e" stroke-width="1.5" d="M400.47,-324C400.47,-324 298.97,-324 298.97,-324 292.97,-324 286.97,-318 286.97,-312 286.97,-312 286.97,-300 286.97,-300 286.97,-294 292.97,-288 298.97,-288 298.97,-288 400.47,-288 400.47,-288 406.47,-288 412.47,-294 412.47,-300 412.47,-300 412.47,-312 412.47,-312 412.47,-318 406.47,-324 400.47,-324"/>
<text xml:space="preserve" text-anchor="middle" x="349.72" y="-307.95" font-family="Arial" font-size="9.00">Web Search</text>
<text xml:space="preserve" text-anchor="middle" x="349.72" y="-297.45" font-family="Arial" font-size="9.00">(Mojeek/SearXNG/Metaso)</text>
</g>
<!-- int_cat&#45;&gt;web_search -->
<g id="edge18" class="edge">
<title>int_cat&#45;&gt;web_search</title>
<path fill="none" stroke="#90a4ae" stroke-width="1.2" d="M236.42,-243C262.39,-243 292.47,-243 292.47,-243 292.47,-243 292.47,-275.62 292.47,-275.62"/>
<polygon fill="#90a4ae" stroke="#90a4ae" stroke-width="1.2" points="288.97,-275.62 292.47,-285.62 295.97,-275.62 288.97,-275.62"/>
</g>
<!-- qq_channel -->
<g id="node24" class="node">
<title>qq_channel</title>
<path fill="#f1f8e9" stroke="#33691e" stroke-width="1.5" d="M377.97,-252C377.97,-252 321.47,-252 321.47,-252 315.47,-252 309.47,-246 309.47,-240 309.47,-240 309.47,-228 309.47,-228 309.47,-222 315.47,-216 321.47,-216 321.47,-216 377.97,-216 377.97,-216 383.97,-216 389.97,-222 389.97,-228 389.97,-228 389.97,-240 389.97,-240 389.97,-246 383.97,-252 377.97,-252"/>
<text xml:space="preserve" text-anchor="middle" x="349.72" y="-235.95" font-family="Arial" font-size="9.00">QQ Channel</text>
<text xml:space="preserve" text-anchor="middle" x="349.72" y="-225.45" font-family="Arial" font-size="9.00">(remote control)</text>
</g>
<!-- int_cat&#45;&gt;qq_channel -->
<g id="edge19" class="edge">
<title>int_cat&#45;&gt;qq_channel</title>
<path fill="none" stroke="#90a4ae" stroke-width="1.2" d="M236.13,-234C236.13,-234 297,-234 297,-234"/>
<polygon fill="#90a4ae" stroke="#90a4ae" stroke-width="1.2" points="297,-237.5 307,-234 297,-230.5 297,-237.5"/>
</g>
<!-- semantic_idx -->
<g id="node25" class="node">
<title>semantic_idx</title>
<path fill="#f1f8e9" stroke="#33691e" stroke-width="1.5" d="M389.97,-180C389.97,-180 309.47,-180 309.47,-180 303.47,-180 297.47,-174 297.47,-168 297.47,-168 297.47,-156 297.47,-156 297.47,-150 303.47,-144 309.47,-144 309.47,-144 389.97,-144 389.97,-144 395.97,-144 401.97,-150 401.97,-156 401.97,-156 401.97,-168 401.97,-168 401.97,-174 395.97,-180 389.97,-180"/>
<text xml:space="preserve" text-anchor="middle" x="349.72" y="-163.95" font-family="Arial" font-size="9.00">Semantic Index</text>
<text xml:space="preserve" text-anchor="middle" x="349.72" y="-153.45" font-family="Arial" font-size="9.00">(Ollama embeddings)</text>
</g>
<!-- int_cat&#45;&gt;semantic_idx -->
<g id="edge20" class="edge">
<title>int_cat&#45;&gt;semantic_idx</title>
<path fill="none" stroke="#90a4ae" stroke-width="1.2" d="M236.35,-225C266.28,-225 303.47,-225 303.47,-225 303.47,-225 303.47,-192.38 303.47,-192.38"/>
<polygon fill="#90a4ae" stroke="#90a4ae" stroke-width="1.2" points="306.97,-192.38 303.47,-182.38 299.97,-192.38 306.97,-192.38"/>
</g>
<!-- parallel_dispatch -->
<g id="node26" class="node">
<title>parallel_dispatch</title>
<path fill="#f1f8e9" stroke="#33691e" stroke-width="1.5" d="M371.22,-108C371.22,-108 328.22,-108 328.22,-108 322.22,-108 316.22,-102 316.22,-96 316.22,-96 316.22,-84 316.22,-84 316.22,-78 322.22,-72 328.22,-72 328.22,-72 371.22,-72 371.22,-72 377.22,-72 383.22,-78 383.22,-84 383.22,-84 383.22,-96 383.22,-96 383.22,-102 377.22,-108 371.22,-108"/>
<text xml:space="preserve" text-anchor="middle" x="349.72" y="-91.95" font-family="Arial" font-size="9.00">Parallel Tool</text>
<text xml:space="preserve" text-anchor="middle" x="349.72" y="-81.45" font-family="Arial" font-size="9.00">Dispatch</text>
</g>
<!-- int_cat&#45;&gt;parallel_dispatch -->
<g id="edge21" class="edge">
<title>int_cat&#45;&gt;parallel_dispatch</title>
<path fill="none" stroke="#90a4ae" stroke-width="1.2" d="M211.47,-215.17C211.47,-176.14 211.47,-90 211.47,-90 211.47,-90 303.73,-90 303.73,-90"/>
<polygon fill="#90a4ae" stroke="#90a4ae" stroke-width="1.2" points="303.73,-93.5 313.73,-90 303.73,-86.5 303.73,-93.5"/>
</g>
<!-- desktop_client -->
<g id="node27" class="node">
<title>desktop_client</title>
<path fill="#f1f8e9" stroke="#33691e" stroke-width="1.5" d="M382.1,-36C382.1,-36 317.35,-36 317.35,-36 311.35,-36 305.35,-30 305.35,-24 305.35,-24 305.35,-12 305.35,-12 305.35,-6 311.35,0 317.35,0 317.35,0 382.1,0 382.1,0 388.1,0 394.1,-6 394.1,-12 394.1,-12 394.1,-24 394.1,-24 394.1,-30 388.1,-36 382.1,-36"/>
<text xml:space="preserve" text-anchor="middle" x="349.72" y="-19.95" font-family="Arial" font-size="9.00">Desktop Client</text>
<text xml:space="preserve" text-anchor="middle" x="349.72" y="-9.45" font-family="Arial" font-size="9.00">(Tauri prerelease)</text>
</g>
<!-- int_cat&#45;&gt;desktop_client -->
<g id="edge22" class="edge">
<title>int_cat&#45;&gt;desktop_client</title>
<path fill="none" stroke="#90a4ae" stroke-width="1.2" d="M187.47,-215.21C187.47,-162.66 187.47,-18 187.47,-18 187.47,-18 293.14,-18 293.14,-18"/>
<polygon fill="#90a4ae" stroke="#90a4ae" stroke-width="1.2" points="293.14,-21.5 303.14,-18 293.14,-14.5 293.14,-21.5"/>
</g>
</g>
</svg>
