<?xml version="1.0" encoding="UTF-8" standalone="no"?>
<!DOCTYPE svg PUBLIC "-//W3C//DTD SVG 1.1//EN"
 "http://www.w3.org/Graphics/SVG/1.1/DTD/svg11.dtd">
<!-- Generated by graphviz version 14.1.2 (0)
 -->
<!-- Title: sim_studio_ai_workflow_builder Pages: 1 -->
<svg width="2010pt" height="524pt"
 viewBox="0.00 0.00 2010.00 524.00" xmlns="http://www.w3.org/2000/svg" xmlns:xlink="http://www.w3.org/1999/xlink">
<g id="graph0" class="graph" transform="scale(1 1) rotate(0) translate(4 519.5)">
<title>sim_studio_ai_workflow_builder</title>
<polygon fill="white" stroke="none" points="-4,4 -4,-519.5 2006,-519.5 2006,4 -4,4"/>
<g id="clust1" class="cluster">
<title>cluster_blocks</title>
<polygon fill="#e3f2fd" stroke="black" points="8,-342.5 8,-445.5 1503,-445.5 1503,-342.5 8,-342.5"/>
<text xml:space="preserve" text-anchor="middle" x="755.5" y="-429.15" font-family="Arial Bold" font-size="13.00">Block Types</text>
</g>
<g id="clust2" class="cluster">
<title>cluster_flow</title>
<polygon fill="#e8f5e9" stroke="black" points="49,-124.5 49,-316.5 220,-316.5 220,-124.5 49,-124.5"/>
<text xml:space="preserve" text-anchor="middle" x="134.5" y="-300.15" font-family="Arial Bold" font-size="13.00">Connection &amp; Data Flow</text>
</g>
<g id="clust3" class="cluster">
<title>cluster_control</title>
<polygon fill="#fff3e0" stroke="black" points="230,-241 230,-316.5 961,-316.5 961,-241 230,-241"/>
<text xml:space="preserve" text-anchor="middle" x="595.5" y="-300.15" font-family="Arial Bold" font-size="13.00">Flow Control</text>
</g>
<g id="clust4" class="cluster">
<title>cluster_hitl</title>
<polygon fill="#fce4ec" stroke="black" points="1077,-8 1077,-316.25 1281,-316.25 1281,-8 1077,-8"/>
<text xml:space="preserve" text-anchor="middle" x="1179" y="-299.9" font-family="Arial Bold" font-size="13.00">Human&#45;in&#45;the&#45;Loop</text>
</g>
<g id="clust5" class="cluster">
<title>cluster_collab</title>
<polygon fill="#f3e5f5" stroke="black" points="1516,-8 1516,-431.75 1756,-431.75 1756,-8 1516,-8"/>
<text xml:space="preserve" text-anchor="middle" x="1636" y="-415.4" font-family="Arial Bold" font-size="13.00">Collaboration &amp; AI</text>
</g>
<g id="clust6" class="cluster">
<title>cluster_serialization</title>
<polygon fill="#eceff1" stroke="black" points="1843,-124.5 1843,-431.5 1994,-431.5 1994,-124.5 1843,-124.5"/>
<text xml:space="preserve" text-anchor="middle" x="1918.5" y="-415.15" font-family="Arial Bold" font-size="13.00">Serialization Pipeline</text>
</g>
<!-- canvas -->
<g id="node1" class="node">
<title>canvas</title>
<path fill="#00bcd4" stroke="black" d="M1097.5,-515.5C1097.5,-515.5 1012.5,-515.5 1012.5,-515.5 1006.5,-515.5 1000.5,-509.5 1000.5,-503.5 1000.5,-503.5 1000.5,-491.5 1000.5,-491.5 1000.5,-485.5 1006.5,-479.5 1012.5,-479.5 1012.5,-479.5 1097.5,-479.5 1097.5,-479.5 1103.5,-479.5 1109.5,-485.5 1109.5,-491.5 1109.5,-491.5 1109.5,-503.5 1109.5,-503.5 1109.5,-509.5 1103.5,-515.5 1097.5,-515.5"/>
<text xml:space="preserve" text-anchor="middle" x="1055" y="-500.55" font-family="Arial" font-size="11.00" fill="white">ReactFlow Canvas</text>
<text xml:space="preserve" text-anchor="middle" x="1055" y="-487.05" font-family="Arial" font-size="11.00" fill="white">Drag &amp; Drop Editor</text>
</g>
<!-- b_agent -->
<g id="node2" class="node">
<title>b_agent</title>
<path fill="#2196f3" stroke="black" d="M90.25,-400.75C90.25,-400.75 27.75,-400.75 27.75,-400.75 21.75,-400.75 15.75,-394.75 15.75,-388.75 15.75,-388.75 15.75,-376.25 15.75,-376.25 15.75,-370.25 21.75,-364.25 27.75,-364.25 27.75,-364.25 90.25,-364.25 90.25,-364.25 96.25,-364.25 102.25,-370.25 102.25,-376.25 102.25,-376.25 102.25,-388.75 102.25,-388.75 102.25,-394.75 96.25,-400.75 90.25,-400.75"/>
<text xml:space="preserve" text-anchor="middle" x="59" y="-385.35" font-family="Arial Bold" font-size="12.00" fill="white">Agent Block</text>
<text xml:space="preserve" text-anchor="middle" x="59" y="-371.1" font-family="Arial Bold" font-size="12.00" fill="white">LLM + Tools</text>
</g>
<!-- canvas&#45;&gt;b_agent -->
<g id="edge1" class="edge">
<title>canvas&#45;&gt;b_agent</title>
<path fill="none" stroke="#00bcd4" stroke-width="2" d="M1000.03,-510C791.23,-510 59,-510 59,-510 59,-510 59,-414.07 59,-414.07"/>
<polygon fill="#00bcd4" stroke="#00bcd4" stroke-width="2" points="62.5,-414.07 59,-404.07 55.5,-414.07 62.5,-414.07"/>
</g>
<!-- b_tool -->
<g id="node3" class="node">
<title>b_tool</title>
<path fill="#ff9800" stroke="black" d="M184.38,-400.5C184.38,-400.5 143.62,-400.5 143.62,-400.5 137.62,-400.5 131.62,-394.5 131.62,-388.5 131.62,-388.5 131.62,-376.5 131.62,-376.5 131.62,-370.5 137.62,-364.5 143.62,-364.5 143.62,-364.5 184.38,-364.5 184.38,-364.5 190.38,-364.5 196.38,-370.5 196.38,-376.5 196.38,-376.5 196.38,-388.5 196.38,-388.5 196.38,-394.5 190.38,-400.5 184.38,-400.5"/>
<text xml:space="preserve" text-anchor="middle" x="164" y="-385.55" font-family="Arial" font-size="11.00" fill="white">Tool Block</text>
<text xml:space="preserve" text-anchor="middle" x="164" y="-372.05" font-family="Arial" font-size="11.00" fill="white">API Call</text>
</g>
<!-- canvas&#45;&gt;b_tool -->
<g id="edge2" class="edge">
<title>canvas&#45;&gt;b_tool</title>
<path fill="none" stroke="#00bcd4" stroke-width="1.5" d="M1000.27,-504C806.42,-504 164,-504 164,-504 164,-504 164,-413.22 164,-413.22"/>
<polygon fill="#00bcd4" stroke="#00bcd4" stroke-width="1.5" points="167.5,-413.22 164,-403.22 160.5,-413.22 167.5,-413.22"/>
</g>
<!-- b_condition -->
<g id="node4" class="node">
<title>b_condition</title>
<polygon fill="#f44336" stroke="black" points="318,-414.5 225.5,-382.5 318,-350.5 410.5,-382.5 318,-414.5"/>
<text xml:space="preserve" text-anchor="middle" x="318" y="-385" font-family="Arial Bold" font-size="10.00" fill="white">Condition Block</text>
<text xml:space="preserve" text-anchor="middle" x="318" y="-373" font-family="Arial Bold" font-size="10.00" fill="white">If/Else Branch</text>
</g>
<!-- canvas&#45;&gt;b_condition -->
<g id="edge3" class="edge">
<title>canvas&#45;&gt;b_condition</title>
<path fill="none" stroke="#00bcd4" stroke-width="1.5" d="M1004.88,-479.39C1004.88,-453.24 1004.88,-408 1004.88,-408 1004.88,-408 350.46,-408 350.46,-408"/>
<polygon fill="#00bcd4" stroke="#00bcd4" stroke-width="1.5" points="350.46,-404.5 340.46,-408 350.46,-411.5 350.46,-404.5"/>
</g>
<!-- b_router -->
<g id="node5" class="node">
<title>b_router</title>
<path fill="#e91e63" stroke="black" d="M518.5,-400.75C518.5,-400.75 451.5,-400.75 451.5,-400.75 445.5,-400.75 439.5,-394.75 439.5,-388.75 439.5,-388.75 439.5,-376.25 439.5,-376.25 439.5,-370.25 445.5,-364.25 451.5,-364.25 451.5,-364.25 518.5,-364.25 518.5,-364.25 524.5,-364.25 530.5,-370.25 530.5,-376.25 530.5,-376.25 530.5,-388.75 530.5,-388.75 530.5,-394.75 524.5,-400.75 518.5,-400.75"/>
<text xml:space="preserve" text-anchor="middle" x="485" y="-385.35" font-family="Arial Bold" font-size="12.00" fill="white">Router Block</text>
<text xml:space="preserve" text-anchor="middle" x="485" y="-371.1" font-family="Arial Bold" font-size="12.00" fill="white">Multi&#45;Path</text>
</g>
<!-- canvas&#45;&gt;b_router -->
<g id="edge4" class="edge">
<title>canvas&#45;&gt;b_router</title>
<path fill="none" stroke="#00bcd4" stroke-width="1.5" d="M1000.09,-498C857.23,-498 485,-498 485,-498 485,-498 485,-413.33 485,-413.33"/>
<polygon fill="#00bcd4" stroke="#00bcd4" stroke-width="1.5" points="488.5,-413.33 485,-403.33 481.5,-413.33 488.5,-413.33"/>
</g>
<!-- b_loop -->
<g id="node6" class="node">
<title>b_loop</title>
<path fill="#2196f3" stroke="black" d="M708.75,-400.75C708.75,-400.75 571.25,-400.75 571.25,-400.75 565.25,-400.75 559.25,-394.75 559.25,-388.75 559.25,-388.75 559.25,-376.25 559.25,-376.25 559.25,-370.25 565.25,-364.25 571.25,-364.25 571.25,-364.25 708.75,-364.25 708.75,-364.25 714.75,-364.25 720.75,-370.25 720.75,-376.25 720.75,-376.25 720.75,-388.75 720.75,-388.75 720.75,-394.75 714.75,-400.75 708.75,-400.75"/>
<text xml:space="preserve" text-anchor="middle" x="640" y="-385.35" font-family="Arial Bold" font-size="12.00" fill="white">Loop Block</text>
<text xml:space="preserve" text-anchor="middle" x="640" y="-371.1" font-family="Arial Bold" font-size="12.00" fill="white">for/forEach/while/doWhile</text>
</g>
<!-- canvas&#45;&gt;b_loop -->
<g id="edge5" class="edge">
<title>canvas&#45;&gt;b_loop</title>
<path fill="none" stroke="#00bcd4" stroke-width="1.5" d="M1000.32,-492C887.63,-492 640,-492 640,-492 640,-492 640,-413.35 640,-413.35"/>
<polygon fill="#00bcd4" stroke="#00bcd4" stroke-width="1.5" points="643.5,-413.35 640,-403.35 636.5,-413.35 643.5,-413.35"/>
</g>
<!-- b_parallel -->
<g id="node7" class="node">
<title>b_parallel</title>
<path fill="#2196f3" stroke="black" d="M854.62,-400.75C854.62,-400.75 761.38,-400.75 761.38,-400.75 755.38,-400.75 749.38,-394.75 749.38,-388.75 749.38,-388.75 749.38,-376.25 749.38,-376.25 749.38,-370.25 755.38,-364.25 761.38,-364.25 761.38,-364.25 854.62,-364.25 854.62,-364.25 860.62,-364.25 866.62,-370.25 866.62,-376.25 866.62,-376.25 866.62,-388.75 866.62,-388.75 866.62,-394.75 860.62,-400.75 854.62,-400.75"/>
<text xml:space="preserve" text-anchor="middle" x="808" y="-385.35" font-family="Arial Bold" font-size="12.00" fill="white">Parallel Block</text>
<text xml:space="preserve" text-anchor="middle" x="808" y="-371.1" font-family="Arial Bold" font-size="12.00" fill="white">Concurrent Paths</text>
</g>
<!-- canvas&#45;&gt;b_parallel -->
<g id="edge6" class="edge">
<title>canvas&#45;&gt;b_parallel</title>
<path fill="none" stroke="#00bcd4" stroke-width="1.5" d="M1000.18,-486C927.41,-486 808,-486 808,-486 808,-486 808,-413.27 808,-413.27"/>
<polygon fill="#00bcd4" stroke="#00bcd4" stroke-width="1.5" points="811.5,-413.27 808,-403.27 804.5,-413.27 811.5,-413.27"/>
</g>
<!-- b_api -->
<g id="node8" class="node">
<title>b_api</title>
<path fill="#ff9800" stroke="black" d="M972.38,-400.5C972.38,-400.5 907.62,-400.5 907.62,-400.5 901.62,-400.5 895.62,-394.5 895.62,-388.5 895.62,-388.5 895.62,-376.5 895.62,-376.5 895.62,-370.5 901.62,-364.5 907.62,-364.5 907.62,-364.5 972.38,-364.5 972.38,-364.5 978.38,-364.5 984.38,-370.5 984.38,-376.5 984.38,-376.5 984.38,-388.5 984.38,-388.5 984.38,-394.5 978.38,-400.5 972.38,-400.5"/>
<text xml:space="preserve" text-anchor="middle" x="940" y="-385.55" font-family="Arial" font-size="11.00" fill="white">API Block</text>
<text xml:space="preserve" text-anchor="middle" x="940" y="-372.05" font-family="Arial" font-size="11.00" fill="white">HTTP Request</text>
</g>
<!-- canvas&#45;&gt;b_api -->
<g id="edge7" class="edge">
<title>canvas&#45;&gt;b_api</title>
<path fill="none" stroke="#00bcd4" stroke-width="1.5" d="M1009.25,-479.1C1009.25,-446.74 1009.25,-383 1009.25,-383 1009.25,-383 996.91,-383 996.91,-383"/>
<polygon fill="#00bcd4" stroke="#00bcd4" stroke-width="1.5" points="996.91,-379.5 986.91,-383 996.91,-386.5 996.91,-379.5"/>
</g>
<!-- b_trigger -->
<g id="node9" class="node">
<title>b_trigger</title>
<polygon fill="#4caf50" stroke="black" points="1096.38,-400.5 1013.62,-400.5 1013.62,-364.5 1096.38,-364.5 1096.38,-400.5"/>
<text xml:space="preserve" text-anchor="middle" x="1055" y="-385.55" font-family="Arial" font-size="11.00" fill="white">Trigger Block</text>
<text xml:space="preserve" text-anchor="middle" x="1055" y="-372.05" font-family="Arial" font-size="11.00" fill="white">Webhook/Poll</text>
</g>
<!-- canvas&#45;&gt;b_trigger -->
<g id="edge8" class="edge">
<title>canvas&#45;&gt;b_trigger</title>
<path fill="none" stroke="#00bcd4" stroke-width="1.5" d="M1055,-479.02C1055,-479.02 1055,-413.2 1055,-413.2"/>
<polygon fill="#00bcd4" stroke="#00bcd4" stroke-width="1.5" points="1058.5,-413.2 1055,-403.2 1051.5,-413.2 1058.5,-413.2"/>
</g>
<!-- b_hitl -->
<g id="node10" class="node">
<title>b_hitl</title>
<polygon fill="#f44336" stroke="black" points="1234.88,-400.5 1125.12,-400.5 1125.12,-364.5 1234.88,-364.5 1234.88,-400.5"/>
<text xml:space="preserve" text-anchor="middle" x="1180" y="-385.55" font-family="Arial" font-size="11.00" fill="white">Human&#45;in&#45;the&#45;Loop</text>
<text xml:space="preserve" text-anchor="middle" x="1180" y="-372.05" font-family="Arial" font-size="11.00" fill="white">Pause for Approval</text>
</g>
<!-- canvas&#45;&gt;b_hitl -->
<g id="edge9" class="edge">
<title>canvas&#45;&gt;b_hitl</title>
<path fill="none" stroke="#00bcd4" stroke-width="1.5" d="M1102.94,-479.1C1102.94,-446.74 1102.94,-383 1102.94,-383 1102.94,-383 1112.54,-383 1112.54,-383"/>
<polygon fill="#00bcd4" stroke="#00bcd4" stroke-width="1.5" points="1112.54,-386.5 1122.54,-383 1112.54,-379.5 1112.54,-386.5"/>
</g>
<!-- b_variable -->
<g id="node11" class="node">
<title>b_variable</title>
<path fill="#9c27b0" stroke="black" d="M1359.75,-400.5C1359.75,-400.5 1276.25,-400.5 1276.25,-400.5 1270.25,-400.5 1264.25,-394.5 1264.25,-388.5 1264.25,-388.5 1264.25,-376.5 1264.25,-376.5 1264.25,-370.5 1270.25,-364.5 1276.25,-364.5 1276.25,-364.5 1359.75,-364.5 1359.75,-364.5 1365.75,-364.5 1371.75,-370.5 1371.75,-376.5 1371.75,-376.5 1371.75,-388.5 1371.75,-388.5 1371.75,-394.5 1365.75,-400.5 1359.75,-400.5"/>
<text xml:space="preserve" text-anchor="middle" x="1318" y="-385.55" font-family="Arial" font-size="11.00" fill="white">Variable Block</text>
<text xml:space="preserve" text-anchor="middle" x="1318" y="-372.05" font-family="Arial" font-size="11.00" fill="white">State Management</text>
</g>
<!-- canvas&#45;&gt;b_variable -->
<g id="edge10" class="edge">
<title>canvas&#45;&gt;b_variable</title>
<path fill="none" stroke="#00bcd4" stroke-width="1.5" d="M1109.81,-485C1186.89,-485 1318,-485 1318,-485 1318,-485 1318,-413.1 1318,-413.1"/>
<polygon fill="#00bcd4" stroke="#00bcd4" stroke-width="1.5" points="1321.5,-413.1 1318,-403.1 1314.5,-413.1 1321.5,-413.1"/>
</g>
<!-- b_wait -->
<g id="node12" class="node">
<title>b_wait</title>
<path fill="#607d8b" stroke="black" d="M1483,-400.5C1483,-400.5 1413,-400.5 1413,-400.5 1407,-400.5 1401,-394.5 1401,-388.5 1401,-388.5 1401,-376.5 1401,-376.5 1401,-370.5 1407,-364.5 1413,-364.5 1413,-364.5 1483,-364.5 1483,-364.5 1489,-364.5 1495,-370.5 1495,-376.5 1495,-376.5 1495,-388.5 1495,-388.5 1495,-394.5 1489,-400.5 1483,-400.5"/>
<text xml:space="preserve" text-anchor="middle" x="1448" y="-385.55" font-family="Arial" font-size="11.00" fill="white">Wait Block</text>
<text xml:space="preserve" text-anchor="middle" x="1448" y="-372.05" font-family="Arial" font-size="11.00" fill="white">Delay Execution</text>
</g>
<!-- canvas&#45;&gt;b_wait -->
<g id="edge11" class="edge">
<title>canvas&#45;&gt;b_wait</title>
<path fill="none" stroke="#00bcd4" stroke-width="1.5" d="M1109.64,-490C1217.63,-490 1448,-490 1448,-490 1448,-490 1448,-413.01 1448,-413.01"/>
<polygon fill="#00bcd4" stroke="#00bcd4" stroke-width="1.5" points="1451.5,-413.01 1448,-403.01 1444.5,-413.01 1451.5,-413.01"/>
</g>
<!-- socketio_rt -->
<g id="node24" class="node">
<title>socketio_rt</title>
<path fill="#2196f3" stroke="black" d="M1621.5,-400.75C1621.5,-400.75 1536.5,-400.75 1536.5,-400.75 1530.5,-400.75 1524.5,-394.75 1524.5,-388.75 1524.5,-388.75 1524.5,-376.25 1524.5,-376.25 1524.5,-370.25 1530.5,-364.25 1536.5,-364.25 1536.5,-364.25 1621.5,-364.25 1621.5,-364.25 1627.5,-364.25 1633.5,-370.25 1633.5,-376.25 1633.5,-376.25 1633.5,-388.75 1633.5,-388.75 1633.5,-394.75 1627.5,-400.75 1621.5,-400.75"/>
<text xml:space="preserve" text-anchor="middle" x="1579" y="-385.35" font-family="Arial Bold" font-size="12.00" fill="white">Socket.IO</text>
<text xml:space="preserve" text-anchor="middle" x="1579" y="-371.1" font-family="Arial Bold" font-size="12.00" fill="white">Real&#45;time Collab</text>
</g>
<!-- canvas&#45;&gt;socketio_rt -->
<g id="edge26" class="edge">
<title>canvas&#45;&gt;socketio_rt</title>
<path fill="none" stroke="#9c27b0" stroke-width="1.5" stroke-dasharray="5,2" d="M1109.59,-500C1243.8,-500 1579,-500 1579,-500 1579,-500 1579,-413.39 1579,-413.39"/>
<polygon fill="#9c27b0" stroke="#9c27b0" stroke-width="1.5" points="1582.5,-413.39 1579,-403.39 1575.5,-413.39 1582.5,-413.39"/>
</g>
<!-- copilot_ai -->
<g id="node25" class="node">
<title>copilot_ai</title>
<path fill="#e91e63" stroke="black" d="M1735.5,-400.75C1735.5,-400.75 1674.5,-400.75 1674.5,-400.75 1668.5,-400.75 1662.5,-394.75 1662.5,-388.75 1662.5,-388.75 1662.5,-376.25 1662.5,-376.25 1662.5,-370.25 1668.5,-364.25 1674.5,-364.25 1674.5,-364.25 1735.5,-364.25 1735.5,-364.25 1741.5,-364.25 1747.5,-370.25 1747.5,-376.25 1747.5,-376.25 1747.5,-388.75 1747.5,-388.75 1747.5,-394.75 1741.5,-400.75 1735.5,-400.75"/>
<text xml:space="preserve" text-anchor="middle" x="1705" y="-385.35" font-family="Arial Bold" font-size="12.00" fill="white">Copilot</text>
<text xml:space="preserve" text-anchor="middle" x="1705" y="-371.1" font-family="Arial Bold" font-size="12.00" fill="white">AI Assistant</text>
</g>
<!-- canvas&#45;&gt;copilot_ai -->
<g id="edge27" class="edge">
<title>canvas&#45;&gt;copilot_ai</title>
<path fill="none" stroke="#e91e63" stroke-width="2" d="M1109.86,-505C1266.56,-505 1705,-505 1705,-505 1705,-505 1705,-414.13 1705,-414.13"/>
<polygon fill="#e91e63" stroke="#e91e63" stroke-width="2" points="1708.5,-414.13 1705,-404.13 1701.5,-414.13 1708.5,-414.13"/>
</g>
<!-- json_out -->
<g id="node29" class="node">
<title>json_out</title>
<path fill="#607d8b" stroke="black" d="M1950.62,-400.5C1950.62,-400.5 1863.38,-400.5 1863.38,-400.5 1857.38,-400.5 1851.38,-394.5 1851.38,-388.5 1851.38,-388.5 1851.38,-376.5 1851.38,-376.5 1851.38,-370.5 1857.38,-364.5 1863.38,-364.5 1863.38,-364.5 1950.62,-364.5 1950.62,-364.5 1956.62,-364.5 1962.62,-370.5 1962.62,-376.5 1962.62,-376.5 1962.62,-388.5 1962.62,-388.5 1962.62,-394.5 1956.62,-400.5 1950.62,-400.5"/>
<text xml:space="preserve" text-anchor="middle" x="1907" y="-385.55" font-family="Arial" font-size="11.00" fill="white">JSON</text>
<text xml:space="preserve" text-anchor="middle" x="1907" y="-372.05" font-family="Arial" font-size="11.00" fill="white">Serialized Workflow</text>
</g>
<!-- canvas&#45;&gt;json_out -->
<g id="edge32" class="edge">
<title>canvas&#45;&gt;json_out</title>
<path fill="none" stroke="#607d8b" stroke-width="2" d="M1109.92,-510C1298.34,-510 1907,-510 1907,-510 1907,-510 1907,-413.79 1907,-413.79"/>
<polygon fill="#607d8b" stroke="#607d8b" stroke-width="2" points="1910.5,-413.79 1907,-403.79 1903.5,-413.79 1910.5,-413.79"/>
</g>
<!-- edges_typed -->
<g id="node13" class="node">
<title>edges_typed</title>
<path fill="#2196f3" stroke="black" d="M197.38,-285.5C197.38,-285.5 72.62,-285.5 72.62,-285.5 66.62,-285.5 60.62,-279.5 60.62,-273.5 60.62,-273.5 60.62,-261 60.62,-261 60.62,-255 66.62,-249 72.62,-249 72.62,-249 197.38,-249 197.38,-249 203.38,-249 209.38,-255 209.38,-261 209.38,-261 209.38,-273.5 209.38,-273.5 209.38,-279.5 203.38,-285.5 197.38,-285.5"/>
<text xml:space="preserve" text-anchor="middle" x="135" y="-270.1" font-family="Arial Bold" font-size="12.00" fill="white">Typed Edges</text>
<text xml:space="preserve" text-anchor="middle" x="135" y="-255.85" font-family="Arial Bold" font-size="12.00" fill="white">Data Flow Connections</text>
</g>
<!-- b_agent&#45;&gt;edges_typed -->
<g id="edge12" class="edge">
<title>b_agent&#45;&gt;edges_typed</title>
<path fill="none" stroke="#2196f3" stroke-width="1.5" d="M74.5,-363.98C74.5,-363.98 74.5,-297.99 74.5,-297.99"/>
<polygon fill="#2196f3" stroke="#2196f3" stroke-width="1.5" points="78,-297.99 74.5,-287.99 71,-297.99 78,-297.99"/>
</g>
<!-- sub_workflow -->
<g id="node20" class="node">
<title>sub_workflow</title>
<path fill="#e91e63" stroke="black" d="M343.62,-285.5C343.62,-285.5 250.38,-285.5 250.38,-285.5 244.38,-285.5 238.38,-279.5 238.38,-273.5 238.38,-273.5 238.38,-261 238.38,-261 238.38,-255 244.38,-249 250.38,-249 250.38,-249 343.62,-249 343.62,-249 349.62,-249 355.62,-255 355.62,-261 355.62,-261 355.62,-273.5 355.62,-273.5 355.62,-279.5 349.62,-285.5 343.62,-285.5"/>
<text xml:space="preserve" text-anchor="middle" x="297" y="-270.1" font-family="Arial Bold" font-size="12.00" fill="white">Sub&#45;Workflow</text>
<text xml:space="preserve" text-anchor="middle" x="297" y="-255.85" font-family="Arial Bold" font-size="12.00" fill="white">Nested Execution</text>
</g>
<!-- b_agent&#45;&gt;sub_workflow -->
<g id="edge21" class="edge">
<title>b_agent&#45;&gt;sub_workflow</title>
<path fill="none" stroke="#e91e63" stroke-width="1.5" stroke-dasharray="5,2" d="M88.38,-363.84C88.38,-344.79 88.38,-318 88.38,-318 88.38,-318 297,-318 297,-318 297,-318 297,-298.13 297,-298.13"/>
<polygon fill="#e91e63" stroke="#e91e63" stroke-width="1.5" points="300.5,-298.13 297,-288.13 293.5,-298.13 300.5,-298.13"/>
</g>
<!-- b_condition&#45;&gt;edges_typed -->
<g id="edge13" class="edge">
<title>b_condition&#45;&gt;edges_typed</title>
<path fill="none" stroke="#2196f3" stroke-width="1.5" d="M297.84,-357C264.3,-357 200.71,-357 200.71,-357 200.71,-357 200.71,-298.12 200.71,-298.12"/>
<polygon fill="#2196f3" stroke="#2196f3" stroke-width="1.5" points="204.21,-298.12 200.71,-288.12 197.21,-298.12 204.21,-298.12"/>
</g>
<!-- b_router&#45;&gt;edges_typed -->
<g id="edge14" class="edge">
<title>b_router&#45;&gt;edges_typed</title>
<path fill="none" stroke="#2196f3" stroke-width="1.5" d="M449.5,-363.89C449.5,-350.21 449.5,-334 449.5,-334 449.5,-334 205.04,-334 205.04,-334 205.04,-334 205.04,-298.11 205.04,-298.11"/>
<polygon fill="#2196f3" stroke="#2196f3" stroke-width="1.5" points="208.54,-298.11 205.04,-288.11 201.54,-298.11 208.54,-298.11"/>
</g>
<!-- loop_for -->
<g id="node15" class="node">
<title>loop_for</title>
<path fill="#78909c" stroke="black" d="M667.12,-285.25C667.12,-285.25 612.88,-285.25 612.88,-285.25 606.88,-285.25 600.88,-279.25 600.88,-273.25 600.88,-273.25 600.88,-261.25 600.88,-261.25 600.88,-255.25 606.88,-249.25 612.88,-249.25 612.88,-249.25 667.12,-249.25 667.12,-249.25 673.12,-249.25 679.12,-255.25 679.12,-261.25 679.12,-261.25 679.12,-273.25 679.12,-273.25 679.12,-279.25 673.12,-285.25 667.12,-285.25"/>
<text xml:space="preserve" text-anchor="middle" x="640" y="-269.2" font-family="Arial" font-size="9.00" fill="white">for Loop</text>
<text xml:space="preserve" text-anchor="middle" x="640" y="-258.7" font-family="Arial" font-size="9.00" fill="white">Fixed Iterations</text>
</g>
<!-- b_loop&#45;&gt;loop_for -->
<g id="edge16" class="edge">
<title>b_loop&#45;&gt;loop_for</title>
<path fill="none" stroke="#4caf50" stroke-width="1.5" d="M640,-363.98C640,-363.98 640,-297.99 640,-297.99"/>
<polygon fill="#4caf50" stroke="#4caf50" stroke-width="1.5" points="643.5,-297.99 640,-287.99 636.5,-297.99 643.5,-297.99"/>
</g>
<!-- loop_foreach -->
<g id="node16" class="node">
<title>loop_foreach</title>
<path fill="#78909c" stroke="black" d="M769.5,-285.25C769.5,-285.25 720.5,-285.25 720.5,-285.25 714.5,-285.25 708.5,-279.25 708.5,-273.25 708.5,-273.25 708.5,-261.25 708.5,-261.25 708.5,-255.25 714.5,-249.25 720.5,-249.25 720.5,-249.25 769.5,-249.25 769.5,-249.25 775.5,-249.25 781.5,-255.25 781.5,-261.25 781.5,-261.25 781.5,-273.25 781.5,-273.25 781.5,-279.25 775.5,-285.25 769.5,-285.25"/>
<text xml:space="preserve" text-anchor="middle" x="745" y="-269.2" font-family="Arial" font-size="9.00" fill="white">forEach Loop</text>
<text xml:space="preserve" text-anchor="middle" x="745" y="-258.7" font-family="Arial" font-size="9.00" fill="white">Array Iteration</text>
</g>
<!-- b_loop&#45;&gt;loop_foreach -->
<g id="edge17" class="edge">
<title>b_loop&#45;&gt;loop_foreach</title>
<path fill="none" stroke="#4caf50" stroke-width="1.5" d="M714.62,-363.98C714.62,-363.98 714.62,-297.99 714.62,-297.99"/>
<polygon fill="#4caf50" stroke="#4caf50" stroke-width="1.5" points="718.13,-297.99 714.63,-287.99 711.13,-297.99 718.13,-297.99"/>
</g>
<!-- loop_while -->
<g id="node17" class="node">
<title>loop_while</title>
<path fill="#78909c" stroke="black" d="M457.5,-285.25C457.5,-285.25 396.5,-285.25 396.5,-285.25 390.5,-285.25 384.5,-279.25 384.5,-273.25 384.5,-273.25 384.5,-261.25 384.5,-261.25 384.5,-255.25 390.5,-249.25 396.5,-249.25 396.5,-249.25 457.5,-249.25 457.5,-249.25 463.5,-249.25 469.5,-255.25 469.5,-261.25 469.5,-261.25 469.5,-273.25 469.5,-273.25 469.5,-279.25 463.5,-285.25 457.5,-285.25"/>
<text xml:space="preserve" text-anchor="middle" x="427" y="-269.2" font-family="Arial" font-size="9.00" fill="white">while Loop</text>
<text xml:space="preserve" text-anchor="middle" x="427" y="-258.7" font-family="Arial" font-size="9.00" fill="white">Condition&#45;Based</text>
</g>
<!-- b_loop&#45;&gt;loop_while -->
<g id="edge18" class="edge">
<title>b_loop&#45;&gt;loop_while</title>
<path fill="none" stroke="#4caf50" stroke-width="1.5" d="M563.33,-363.83C563.33,-340.05 563.33,-302 563.33,-302 563.33,-302 459.5,-302 459.5,-302 459.5,-302 459.5,-297.71 459.5,-297.71"/>
<polygon fill="#4caf50" stroke="#4caf50" stroke-width="1.5" points="463,-297.71 459.5,-287.71 456,-297.71 463,-297.71"/>
</g>
<!-- loop_dowhile -->
<g id="node18" class="node">
<title>loop_dowhile</title>
<path fill="#78909c" stroke="black" d="M559.5,-285.25C559.5,-285.25 510.5,-285.25 510.5,-285.25 504.5,-285.25 498.5,-279.25 498.5,-273.25 498.5,-273.25 498.5,-261.25 498.5,-261.25 498.5,-255.25 504.5,-249.25 510.5,-249.25 510.5,-249.25 559.5,-249.25 559.5,-249.25 565.5,-249.25 571.5,-255.25 571.5,-261.25 571.5,-261.25 571.5,-273.25 571.5,-273.25 571.5,-279.25 565.5,-285.25 559.5,-285.25"/>
<text xml:space="preserve" text-anchor="middle" x="535" y="-269.2" font-family="Arial" font-size="9.00" fill="white">doWhile Loop</text>
<text xml:space="preserve" text-anchor="middle" x="535" y="-258.7" font-family="Arial" font-size="9.00" fill="white">Execute First</text>
</g>
<!-- b_loop&#45;&gt;loop_dowhile -->
<g id="edge19" class="edge">
<title>b_loop&#45;&gt;loop_dowhile</title>
<path fill="none" stroke="#4caf50" stroke-width="1.5" d="M567.42,-363.98C567.42,-363.98 567.42,-297.99 567.42,-297.99"/>
<polygon fill="#4caf50" stroke="#4caf50" stroke-width="1.5" points="570.92,-297.99 567.42,-287.99 563.92,-297.99 570.92,-297.99"/>
</g>
<!-- parallel_branch -->
<g id="node19" class="node">
<title>parallel_branch</title>
<path fill="#2196f3" stroke="black" d="M941,-285.5C941,-285.5 823,-285.5 823,-285.5 817,-285.5 811,-279.5 811,-273.5 811,-273.5 811,-261 811,-261 811,-255 817,-249 823,-249 823,-249 941,-249 941,-249 947,-249 953,-255 953,-261 953,-261 953,-273.5 953,-273.5 953,-279.5 947,-285.5 941,-285.5"/>
<text xml:space="preserve" text-anchor="middle" x="882" y="-270.1" font-family="Arial Bold" font-size="12.00" fill="white">Parallel Branches</text>
<text xml:space="preserve" text-anchor="middle" x="882" y="-255.85" font-family="Arial Bold" font-size="12.00" fill="white">Concurrent Execution</text>
</g>
<!-- b_parallel&#45;&gt;parallel_branch -->
<g id="edge20" class="edge">
<title>b_parallel&#45;&gt;parallel_branch</title>
<path fill="none" stroke="#4caf50" stroke-width="1.5" d="M838.81,-363.98C838.81,-363.98 838.81,-297.99 838.81,-297.99"/>
<polygon fill="#4caf50" stroke="#4caf50" stroke-width="1.5" points="842.31,-297.99 838.81,-287.99 835.31,-297.99 842.31,-297.99"/>
</g>
<!-- pause -->
<g id="node21" class="node">
<title>pause</title>
<polygon fill="#f44336" stroke="black" points="1227.38,-285.25 1132.62,-285.25 1132.62,-249.25 1227.38,-249.25 1227.38,-285.25"/>
<text xml:space="preserve" text-anchor="middle" x="1180" y="-270.3" font-family="Arial" font-size="11.00" fill="white">Pause Workflow</text>
<text xml:space="preserve" text-anchor="middle" x="1180" y="-256.8" font-family="Arial" font-size="11.00" fill="white">Wait for Human</text>
</g>
<!-- b_hitl&#45;&gt;pause -->
<g id="edge22" class="edge">
<title>b_hitl&#45;&gt;pause</title>
<path fill="none" stroke="#f44336" stroke-width="2" d="M1180,-364.24C1180,-364.24 1180,-298.45 1180,-298.45"/>
<polygon fill="#f44336" stroke="#f44336" stroke-width="2" points="1183.5,-298.45 1180,-288.45 1176.5,-298.45 1183.5,-298.45"/>
</g>
<!-- data_transform -->
<g id="node14" class="node">
<title>data_transform</title>
<path fill="#ff9800" stroke="black" d="M175.25,-168.5C175.25,-168.5 94.75,-168.5 94.75,-168.5 88.75,-168.5 82.75,-162.5 82.75,-156.5 82.75,-156.5 82.75,-144.5 82.75,-144.5 82.75,-138.5 88.75,-132.5 94.75,-132.5 94.75,-132.5 175.25,-132.5 175.25,-132.5 181.25,-132.5 187.25,-138.5 187.25,-144.5 187.25,-144.5 187.25,-156.5 187.25,-156.5 187.25,-162.5 181.25,-168.5 175.25,-168.5"/>
<text xml:space="preserve" text-anchor="middle" x="135" y="-153.55" font-family="Arial" font-size="11.00" fill="white">Data Transform</text>
<text xml:space="preserve" text-anchor="middle" x="135" y="-140.05" font-family="Arial" font-size="11.00" fill="white">Map/Filter/Reduce</text>
</g>
<!-- edges_typed&#45;&gt;data_transform -->
<g id="edge15" class="edge">
<title>edges_typed&#45;&gt;data_transform</title>
<path fill="none" stroke="#ff9800" stroke-width="1.5" d="M135,-248.75C135,-248.75 135,-181.18 135,-181.18"/>
<polygon fill="#ff9800" stroke="#ff9800" stroke-width="1.5" points="138.5,-181.18 135,-171.18 131.5,-181.18 138.5,-181.18"/>
</g>
<!-- approve -->
<g id="node22" class="node">
<title>approve</title>
<polygon fill="#f44336" stroke="black" points="1179,-182.5 1085,-150.5 1179,-118.5 1273,-150.5 1179,-182.5"/>
<text xml:space="preserve" text-anchor="middle" x="1179" y="-153" font-family="Arial Bold" font-size="10.00" fill="white">Approve / Reject</text>
<text xml:space="preserve" text-anchor="middle" x="1179" y="-141" font-family="Arial Bold" font-size="10.00" fill="white">Decision Gate</text>
</g>
<!-- pause&#45;&gt;approve -->
<g id="edge23" class="edge">
<title>pause&#45;&gt;approve</title>
<path fill="none" stroke="#f44336" stroke-width="2" d="M1195.79,-248.75C1195.79,-248.75 1195.79,-190.19 1195.79,-190.19"/>
<polygon fill="#f44336" stroke="#f44336" stroke-width="2" points="1199.29,-190.19 1195.79,-180.19 1192.29,-190.19 1199.29,-190.19"/>
</g>
<!-- approve&#45;&gt;pause -->
<g id="edge25" class="edge">
<title>approve&#45;&gt;pause</title>
<path fill="none" stroke="#f44336" stroke-width="1.5" stroke-dasharray="5,2" d="M1164.21,-177.87C1164.21,-177.87 1164.21,-236.51 1164.21,-236.51"/>
<polygon fill="#f44336" stroke="#f44336" stroke-width="1.5" points="1160.71,-236.51 1164.21,-246.51 1167.71,-236.51 1160.71,-236.51"/>
<text xml:space="preserve" text-anchor="middle" x="1220.62" y="-210.7" font-family="Times New Roman,serif" font-size="14.00">Rejected</text>
</g>
<!-- feedback -->
<g id="node23" class="node">
<title>feedback</title>
<polygon fill="#4caf50" stroke="black" points="1231.62,-52 1126.38,-52 1126.38,-16 1231.62,-16 1231.62,-52"/>
<text xml:space="preserve" text-anchor="middle" x="1179" y="-37.05" font-family="Arial" font-size="11.00" fill="white">Feedback Input</text>
<text xml:space="preserve" text-anchor="middle" x="1179" y="-23.55" font-family="Arial" font-size="11.00" fill="white">Resume with Data</text>
</g>
<!-- approve&#45;&gt;feedback -->
<g id="edge24" class="edge">
<title>approve&#45;&gt;feedback</title>
<path fill="none" stroke="#4caf50" stroke-width="2" d="M1179,-118.05C1179,-118.05 1179,-65.19 1179,-65.19"/>
<polygon fill="#4caf50" stroke="#4caf50" stroke-width="2" points="1182.5,-65.19 1179,-55.19 1175.5,-65.19 1182.5,-65.19"/>
<text xml:space="preserve" text-anchor="middle" x="1206" y="-80.2" font-family="Times New Roman,serif" font-size="14.00">Approved</text>
</g>
<!-- nl_generate -->
<g id="node26" class="node">
<title>nl_generate</title>
<path fill="#ff9800" stroke="black" d="M1721.88,-285.25C1721.88,-285.25 1636.12,-285.25 1636.12,-285.25 1630.12,-285.25 1624.12,-279.25 1624.12,-273.25 1624.12,-273.25 1624.12,-261.25 1624.12,-261.25 1624.12,-255.25 1630.12,-249.25 1636.12,-249.25 1636.12,-249.25 1721.88,-249.25 1721.88,-249.25 1727.88,-249.25 1733.88,-255.25 1733.88,-261.25 1733.88,-261.25 1733.88,-273.25 1733.88,-273.25 1733.88,-279.25 1727.88,-285.25 1721.88,-285.25"/>
<text xml:space="preserve" text-anchor="middle" x="1679" y="-270.3" font-family="Arial" font-size="11.00" fill="white">Natural Language</text>
<text xml:space="preserve" text-anchor="middle" x="1679" y="-256.8" font-family="Arial" font-size="11.00" fill="white">→ Generate Nodes</text>
</g>
<!-- copilot_ai&#45;&gt;nl_generate -->
<g id="edge28" class="edge">
<title>copilot_ai&#45;&gt;nl_generate</title>
<path fill="none" stroke="#e91e63" stroke-width="2" d="M1698.19,-363.98C1698.19,-363.98 1698.19,-298.75 1698.19,-298.75"/>
<polygon fill="#e91e63" stroke="#e91e63" stroke-width="2" points="1701.69,-298.75 1698.19,-288.75 1694.69,-298.75 1701.69,-298.75"/>
</g>
<!-- fix_errors -->
<g id="node27" class="node">
<title>fix_errors</title>
<path fill="#ff9800" stroke="black" d="M1711.12,-168.5C1711.12,-168.5 1656.88,-168.5 1656.88,-168.5 1650.88,-168.5 1644.88,-162.5 1644.88,-156.5 1644.88,-156.5 1644.88,-144.5 1644.88,-144.5 1644.88,-138.5 1650.88,-132.5 1656.88,-132.5 1656.88,-132.5 1711.12,-132.5 1711.12,-132.5 1717.12,-132.5 1723.12,-138.5 1723.12,-144.5 1723.12,-144.5 1723.12,-156.5 1723.12,-156.5 1723.12,-162.5 1717.12,-168.5 1711.12,-168.5"/>
<text xml:space="preserve" text-anchor="middle" x="1684" y="-153.55" font-family="Arial" font-size="11.00" fill="white">Fix Errors</text>
<text xml:space="preserve" text-anchor="middle" x="1684" y="-140.05" font-family="Arial" font-size="11.00" fill="white">Auto&#45;Correct</text>
</g>
<!-- nl_generate&#45;&gt;fix_errors -->
<g id="edge29" class="edge">
<title>nl_generate&#45;&gt;fix_errors</title>
<path fill="none" stroke="#ff9800" stroke-width="1.5" d="M1684,-248.75C1684,-248.75 1684,-181.18 1684,-181.18"/>
<polygon fill="#ff9800" stroke="#ff9800" stroke-width="1.5" points="1687.5,-181.18 1684,-171.18 1680.5,-181.18 1687.5,-181.18"/>
</g>
<!-- iterate -->
<g id="node28" class="node">
<title>iterate</title>
<path fill="#ff9800" stroke="black" d="M1725.75,-52C1725.75,-52 1654.25,-52 1654.25,-52 1648.25,-52 1642.25,-46 1642.25,-40 1642.25,-40 1642.25,-28 1642.25,-28 1642.25,-22 1648.25,-16 1654.25,-16 1654.25,-16 1725.75,-16 1725.75,-16 1731.75,-16 1737.75,-22 1737.75,-28 1737.75,-28 1737.75,-40 1737.75,-40 1737.75,-46 1731.75,-52 1725.75,-52"/>
<text xml:space="preserve" text-anchor="middle" x="1690" y="-37.05" font-family="Arial" font-size="11.00" fill="white">Iterate</text>
<text xml:space="preserve" text-anchor="middle" x="1690" y="-23.55" font-family="Arial" font-size="11.00" fill="white">Refine Workflow</text>
</g>
<!-- fix_errors&#45;&gt;iterate -->
<g id="edge30" class="edge">
<title>fix_errors&#45;&gt;iterate</title>
<path fill="none" stroke="#ff9800" stroke-width="1.5" d="M1684,-132.04C1684,-132.04 1684,-64.64 1684,-64.64"/>
<polygon fill="#ff9800" stroke="#ff9800" stroke-width="1.5" points="1687.5,-64.64 1684,-54.64 1680.5,-64.64 1687.5,-64.64"/>
</g>
<!-- iterate&#45;&gt;canvas -->
<g id="edge31" class="edge">
<title>iterate&#45;&gt;canvas</title>
<path fill="none" stroke="#e91e63" stroke-width="1.5" stroke-dasharray="5,2" d="M1642.17,-34C1588.77,-34 1509.75,-34 1509.75,-34 1509.75,-34 1509.75,-495 1509.75,-495 1509.75,-495 1122.12,-495 1122.12,-495"/>
<polygon fill="#e91e63" stroke="#e91e63" stroke-width="1.5" points="1122.12,-491.5 1112.12,-495 1122.12,-498.5 1122.12,-491.5"/>
<text xml:space="preserve" text-anchor="middle" x="1810" y="-262.2" font-family="Times New Roman,serif" font-size="14.00">Refine</text>
</g>
<!-- dag_out -->
<g id="node30" class="node">
<title>dag_out</title>
<path fill="#e91e63" stroke="black" d="M1957,-285.5C1957,-285.5 1869,-285.5 1869,-285.5 1863,-285.5 1857,-279.5 1857,-273.5 1857,-273.5 1857,-261 1857,-261 1857,-255 1863,-249 1869,-249 1869,-249 1957,-249 1957,-249 1963,-249 1969,-255 1969,-261 1969,-261 1969,-273.5 1969,-273.5 1969,-279.5 1963,-285.5 1957,-285.5"/>
<text xml:space="preserve" text-anchor="middle" x="1913" y="-270.1" font-family="Arial Bold" font-size="12.00" fill="white">DAG</text>
<text xml:space="preserve" text-anchor="middle" x="1913" y="-255.85" font-family="Arial Bold" font-size="12.00" fill="white">Execution Graph</text>
</g>
<!-- json_out&#45;&gt;dag_out -->
<g id="edge33" class="edge">
<title>json_out&#45;&gt;dag_out</title>
<path fill="none" stroke="#607d8b" stroke-width="2" d="M1909.81,-364.24C1909.81,-364.24 1909.81,-298.83 1909.81,-298.83"/>
<polygon fill="#607d8b" stroke="#607d8b" stroke-width="2" points="1913.31,-298.83 1909.81,-288.83 1906.31,-298.84 1913.31,-298.83"/>
</g>
<!-- exec_out -->
<g id="node31" class="node">
<title>exec_out</title>
<polygon fill="#f44336" stroke="black" points="1944.62,-168.5 1881.38,-168.5 1881.38,-132.5 1944.62,-132.5 1944.62,-168.5"/>
<text xml:space="preserve" text-anchor="middle" x="1913" y="-153.55" font-family="Arial" font-size="11.00" fill="white">Execution</text>
<text xml:space="preserve" text-anchor="middle" x="1913" y="-140.05" font-family="Arial" font-size="11.00" fill="white">Runtime</text>
</g>
<!-- dag_out&#45;&gt;exec_out -->
<g id="edge34" class="edge">
<title>dag_out&#45;&gt;exec_out</title>
<path fill="none" stroke="#607d8b" stroke-width="2" d="M1913,-248.75C1913,-248.75 1913,-181.94 1913,-181.94"/>
<polygon fill="#607d8b" stroke="#607d8b" stroke-width="2" points="1916.5,-181.94 1913,-171.94 1909.5,-181.94 1916.5,-181.94"/>
</g>
</g>
</svg>
