<?xml version="1.0" encoding="UTF-8" standalone="no"?>
<!DOCTYPE svg PUBLIC "-//W3C//DTD SVG 1.1//EN"
 "http://www.w3.org/Graphics/SVG/1.1/DTD/svg11.dtd">
<!-- Generated by graphviz version 14.1.2 (0)
 -->
<!-- Title: Tradclaw_Integration_Ecosystem Pages: 1 -->
<svg width="962pt" height="591pt"
 viewBox="0.00 0.00 962.00 591.00" xmlns="http://www.w3.org/2000/svg" xmlns:xlink="http://www.w3.org/1999/xlink">
<g id="graph0" class="graph" transform="scale(1 1) rotate(0) translate(36 555.45)">
<title>Tradclaw_Integration_Ecosystem</title>
<polygon fill="#0d1117" stroke="none" points="-36,36 -36,-555.45 926.38,-555.45 926.38,36 -36,36"/>
<!-- title -->
<g id="node1" class="node">
<title>title</title>
<text xml:space="preserve" text-anchor="middle" x="339.62" y="-494.55" font-family="Segoe UI Bold" font-size="22.00" fill="#58a6ff">Tradclaw Integration Ecosystem</text>
</g>
<!-- core -->
<g id="node2" class="node">
<title>core</title>
<ellipse fill="#0d419d" stroke="#58a6ff" stroke-width="3" cx="449.62" cy="-37.48" rx="71.24" ry="37.48"/>
<text xml:space="preserve" text-anchor="middle" x="449.62" y="-44.78" font-family="Segoe UI Bold" font-size="16.00" fill="white">Tradclaw</text>
<text xml:space="preserve" text-anchor="middle" x="449.62" y="-22.28" font-family="Segoe UI Bold" font-size="16.00" fill="white">Agent Core</text>
</g>
<!-- calendars -->
<g id="node3" class="node">
<title>calendars</title>
<path fill="#1f2937" stroke="#f0883e" d="M87.25,-254.45C87.25,-254.45 12,-254.45 12,-254.45 6,-254.45 0,-248.45 0,-242.45 0,-242.45 0,-213.45 0,-213.45 0,-207.45 6,-201.45 12,-201.45 12,-201.45 87.25,-201.45 87.25,-201.45 93.25,-201.45 99.25,-207.45 99.25,-213.45 99.25,-213.45 99.25,-242.45 99.25,-242.45 99.25,-248.45 93.25,-254.45 87.25,-254.45"/>
<text xml:space="preserve" text-anchor="middle" x="49.62" y="-240" font-family="Segoe UI" font-size="11.00" fill="#c9d1d9">Calendars</text>
<text xml:space="preserve" text-anchor="middle" x="49.62" y="-225" font-family="Segoe UI" font-size="11.00" fill="#c9d1d9">(work, family,</text>
<text xml:space="preserve" text-anchor="middle" x="49.62" y="-210" font-family="Segoe UI" font-size="11.00" fill="#c9d1d9">school, activities)</text>
</g>
<!-- cal_skill -->
<g id="node4" class="node">
<title>cal_skill</title>
<path fill="#6e3a00" stroke="#f0883e" d="M89.88,-156.45C89.88,-156.45 27.38,-156.45 27.38,-156.45 21.38,-156.45 15.38,-150.45 15.38,-144.45 15.38,-144.45 15.38,-131.95 15.38,-131.95 15.38,-125.95 21.38,-119.95 27.38,-119.95 27.38,-119.95 89.88,-119.95 89.88,-119.95 95.88,-119.95 101.88,-125.95 101.88,-131.95 101.88,-131.95 101.88,-144.45 101.88,-144.45 101.88,-150.45 95.88,-156.45 89.88,-156.45"/>
<text xml:space="preserve" text-anchor="middle" x="58.62" y="-142.95" font-family="Segoe UI Bold" font-size="10.00" fill="white">Calendar Briefs</text>
<text xml:space="preserve" text-anchor="middle" x="58.62" y="-128.7" font-family="Segoe UI Bold" font-size="10.00" fill="white">Skill</text>
</g>
<!-- calendars&#45;&gt;cal_skill -->
<g id="edge1" class="edge">
<title>calendars&#45;&gt;cal_skill</title>
<path fill="none" stroke="#f0883e" stroke-width="1.5" d="M57.31,-201.03C57.31,-201.03 57.31,-169.13 57.31,-169.13"/>
<polygon fill="#f0883e" stroke="#f0883e" stroke-width="1.5" points="60.81,-169.13 57.31,-159.13 53.81,-169.13 60.81,-169.13"/>
</g>
<!-- cal_skill&#45;&gt;core -->
<g id="edge2" class="edge">
<title>cal_skill&#45;&gt;core</title>
<path fill="none" stroke="#f0883e" stroke-width="2" d="M58.62,-119.51C58.62,-87.36 58.62,-25 58.62,-25 58.62,-25 368.04,-25 368.04,-25"/>
<polygon fill="#f0883e" stroke="#f0883e" stroke-width="2" points="368.04,-28.5 378.04,-25 368.04,-21.5 368.04,-28.5"/>
</g>
<!-- school_ch -->
<g id="node5" class="node">
<title>school_ch</title>
<path fill="#1f2937" stroke="#f85149" d="M214.5,-254.45C214.5,-254.45 140.75,-254.45 140.75,-254.45 134.75,-254.45 128.75,-248.45 128.75,-242.45 128.75,-242.45 128.75,-213.45 128.75,-213.45 128.75,-207.45 134.75,-201.45 140.75,-201.45 140.75,-201.45 214.5,-201.45 214.5,-201.45 220.5,-201.45 226.5,-207.45 226.5,-213.45 226.5,-213.45 226.5,-242.45 226.5,-242.45 226.5,-248.45 220.5,-254.45 214.5,-254.45"/>
<text xml:space="preserve" text-anchor="middle" x="177.62" y="-240" font-family="Segoe UI" font-size="11.00" fill="#c9d1d9">School Channels</text>
<text xml:space="preserve" text-anchor="middle" x="177.62" y="-225" font-family="Segoe UI" font-size="11.00" fill="#c9d1d9">(email, PTA apps,</text>
<text xml:space="preserve" text-anchor="middle" x="177.62" y="-210" font-family="Segoe UI" font-size="11.00" fill="#c9d1d9">teacher comms)</text>
</g>
<!-- school_skill -->
<g id="node6" class="node">
<title>school_skill</title>
<path fill="#6e3a00" stroke="#f85149" d="M230.75,-156.45C230.75,-156.45 176.5,-156.45 176.5,-156.45 170.5,-156.45 164.5,-150.45 164.5,-144.45 164.5,-144.45 164.5,-131.95 164.5,-131.95 164.5,-125.95 170.5,-119.95 176.5,-119.95 176.5,-119.95 230.75,-119.95 230.75,-119.95 236.75,-119.95 242.75,-125.95 242.75,-131.95 242.75,-131.95 242.75,-144.45 242.75,-144.45 242.75,-150.45 236.75,-156.45 230.75,-156.45"/>
<text xml:space="preserve" text-anchor="middle" x="203.62" y="-142.95" font-family="Segoe UI Bold" font-size="10.00" fill="white">School Triage</text>
<text xml:space="preserve" text-anchor="middle" x="203.62" y="-128.7" font-family="Segoe UI Bold" font-size="10.00" fill="white">Skill</text>
</g>
<!-- school_ch&#45;&gt;school_skill -->
<g id="edge3" class="edge">
<title>school_ch&#45;&gt;school_skill</title>
<path fill="none" stroke="#f85149" stroke-width="1.5" d="M195.5,-201.03C195.5,-201.03 195.5,-169.13 195.5,-169.13"/>
<polygon fill="#f85149" stroke="#f85149" stroke-width="1.5" points="199,-169.13 195.5,-159.13 192,-169.13 199,-169.13"/>
</g>
<!-- school_skill&#45;&gt;core -->
<g id="edge4" class="edge">
<title>school_skill&#45;&gt;core</title>
<path fill="none" stroke="#f85149" stroke-width="2" d="M203.62,-119.5C203.62,-93.61 203.62,-50 203.62,-50 203.62,-50 367.75,-50 367.75,-50"/>
<polygon fill="#f85149" stroke="#f85149" stroke-width="2" points="367.75,-53.5 377.75,-50 367.75,-46.5 367.75,-53.5"/>
</g>
<!-- heartbeat_gw -->
<g id="node7" class="node">
<title>heartbeat_gw</title>
<path fill="#1f2937" stroke="#58a6ff" d="M356,-254.45C356,-254.45 267.25,-254.45 267.25,-254.45 261.25,-254.45 255.25,-248.45 255.25,-242.45 255.25,-242.45 255.25,-213.45 255.25,-213.45 255.25,-207.45 261.25,-201.45 267.25,-201.45 267.25,-201.45 356,-201.45 356,-201.45 362,-201.45 368,-207.45 368,-213.45 368,-213.45 368,-242.45 368,-242.45 368,-248.45 362,-254.45 356,-254.45"/>
<text xml:space="preserve" text-anchor="middle" x="311.62" y="-240" font-family="Segoe UI" font-size="11.00" fill="#c9d1d9">Heartbeat Gateway</text>
<text xml:space="preserve" text-anchor="middle" x="311.62" y="-225" font-family="Segoe UI" font-size="11.00" fill="#c9d1d9">(OpenClaw Periodic</text>
<text xml:space="preserve" text-anchor="middle" x="311.62" y="-210" font-family="Segoe UI" font-size="11.00" fill="#c9d1d9">Checks)</text>
</g>
<!-- heartbeat_md -->
<g id="node8" class="node">
<title>heartbeat_md</title>
<path fill="#0d2818" stroke="#58a6ff" d="M366,-156.2C366,-156.2 301.25,-156.2 301.25,-156.2 295.25,-156.2 289.25,-150.2 289.25,-144.2 289.25,-144.2 289.25,-132.2 289.25,-132.2 289.25,-126.2 295.25,-120.2 301.25,-120.2 301.25,-120.2 366,-120.2 366,-120.2 372,-120.2 378,-126.2 378,-132.2 378,-132.2 378,-144.2 378,-144.2 378,-150.2 372,-156.2 366,-156.2"/>
<text xml:space="preserve" text-anchor="middle" x="333.62" y="-135.83" font-family="Segoe UI Bold" font-size="10.00" fill="white">HEARTBEAT.md</text>
</g>
<!-- heartbeat_gw&#45;&gt;heartbeat_md -->
<g id="edge5" class="edge">
<title>heartbeat_gw&#45;&gt;heartbeat_md</title>
<path fill="none" stroke="#58a6ff" stroke-width="1.5" d="M328.62,-201.03C328.62,-201.03 328.62,-168.85 328.62,-168.85"/>
<polygon fill="#58a6ff" stroke="#58a6ff" stroke-width="1.5" points="332.13,-168.85 328.63,-158.85 325.13,-168.85 332.13,-168.85"/>
</g>
<!-- heartbeat_md&#45;&gt;core -->
<g id="edge6" class="edge">
<title>heartbeat_md&#45;&gt;core</title>
<path fill="none" stroke="#58a6ff" stroke-width="2" d="M378.43,-138C384.05,-138 387.88,-138 387.88,-138 387.88,-138 387.88,-70.85 387.88,-70.85"/>
<polygon fill="#58a6ff" stroke="#58a6ff" stroke-width="2" points="391.38,-70.85 387.88,-60.85 384.38,-70.85 391.38,-70.85"/>
</g>
<!-- cron_jobs -->
<g id="node9" class="node">
<title>cron_jobs</title>
<path fill="#1f2937" stroke="#8b5cf6" d="M489.88,-246.95C489.88,-246.95 409.38,-246.95 409.38,-246.95 403.38,-246.95 397.38,-240.95 397.38,-234.95 397.38,-234.95 397.38,-220.95 397.38,-220.95 397.38,-214.95 403.38,-208.95 409.38,-208.95 409.38,-208.95 489.88,-208.95 489.88,-208.95 495.88,-208.95 501.88,-214.95 501.88,-220.95 501.88,-220.95 501.88,-234.95 501.88,-234.95 501.88,-240.95 495.88,-246.95 489.88,-246.95"/>
<text xml:space="preserve" text-anchor="middle" x="449.62" y="-232.5" font-family="Segoe UI" font-size="11.00" fill="#c9d1d9">Cron / Scheduled</text>
<text xml:space="preserve" text-anchor="middle" x="449.62" y="-217.5" font-family="Segoe UI" font-size="11.00" fill="#c9d1d9">Jobs (9 templates)</text>
</g>
<!-- cron_trigger -->
<g id="node10" class="node">
<title>cron_trigger</title>
<path fill="#1a0d2e" stroke="#8b5cf6" d="M472.62,-156.45C472.62,-156.45 426.62,-156.45 426.62,-156.45 420.62,-156.45 414.62,-150.45 414.62,-144.45 414.62,-144.45 414.62,-131.95 414.62,-131.95 414.62,-125.95 420.62,-119.95 426.62,-119.95 426.62,-119.95 472.62,-119.95 472.62,-119.95 478.62,-119.95 484.62,-125.95 484.62,-131.95 484.62,-131.95 484.62,-144.45 484.62,-144.45 484.62,-150.45 478.62,-156.45 472.62,-156.45"/>
<text xml:space="preserve" text-anchor="middle" x="449.62" y="-142.95" font-family="Segoe UI Bold" font-size="10.00" fill="white">Time&#45;based</text>
<text xml:space="preserve" text-anchor="middle" x="449.62" y="-128.7" font-family="Segoe UI Bold" font-size="10.00" fill="white">Triggers</text>
</g>
<!-- cron_jobs&#45;&gt;cron_trigger -->
<g id="edge7" class="edge">
<title>cron_jobs&#45;&gt;cron_trigger</title>
<path fill="none" stroke="#8b5cf6" stroke-width="1.5" d="M449.62,-208.48C449.62,-208.48 449.62,-168.99 449.62,-168.99"/>
<polygon fill="#8b5cf6" stroke="#8b5cf6" stroke-width="1.5" points="453.13,-168.99 449.63,-158.99 446.13,-168.99 453.13,-168.99"/>
</g>
<!-- cron_trigger&#45;&gt;core -->
<g id="edge8" class="edge">
<title>cron_trigger&#45;&gt;core</title>
<path fill="none" stroke="#8b5cf6" stroke-width="2" d="M449.62,-119.73C449.62,-119.73 449.62,-89.31 449.62,-89.31"/>
<polygon fill="#8b5cf6" stroke="#8b5cf6" stroke-width="2" points="453.13,-89.31 449.63,-79.31 446.13,-89.31 453.13,-89.31"/>
</g>
<!-- memory_sys -->
<g id="node11" class="node">
<title>memory_sys</title>
<path fill="#1f2937" stroke="#3fb950" d="M654.25,-254.45C654.25,-254.45 543,-254.45 543,-254.45 537,-254.45 531,-248.45 531,-242.45 531,-242.45 531,-213.45 531,-213.45 531,-207.45 537,-201.45 543,-201.45 543,-201.45 654.25,-201.45 654.25,-201.45 660.25,-201.45 666.25,-207.45 666.25,-213.45 666.25,-213.45 666.25,-242.45 666.25,-242.45 666.25,-248.45 660.25,-254.45 654.25,-254.45"/>
<text xml:space="preserve" text-anchor="middle" x="598.62" y="-240" font-family="Segoe UI" font-size="11.00" fill="#c9d1d9">Memory System</text>
<text xml:space="preserve" text-anchor="middle" x="598.62" y="-225" font-family="Segoe UI" font-size="11.00" fill="#c9d1d9">(memory_search,</text>
<text xml:space="preserve" text-anchor="middle" x="598.62" y="-210" font-family="Segoe UI" font-size="11.00" fill="#c9d1d9">daily logs, MEMORY.md)</text>
</g>
<!-- memory_all -->
<g id="node12" class="node">
<title>memory_all</title>
<path fill="#0d2818" stroke="#3fb950" d="M572.5,-156.2C572.5,-156.2 540.75,-156.2 540.75,-156.2 534.75,-156.2 528.75,-150.2 528.75,-144.2 528.75,-144.2 528.75,-132.2 528.75,-132.2 528.75,-126.2 534.75,-120.2 540.75,-120.2 540.75,-120.2 572.5,-120.2 572.5,-120.2 578.5,-120.2 584.5,-126.2 584.5,-132.2 584.5,-132.2 584.5,-144.2 584.5,-144.2 584.5,-150.2 578.5,-156.2 572.5,-156.2"/>
<text xml:space="preserve" text-anchor="middle" x="556.62" y="-135.83" font-family="Segoe UI Bold" font-size="10.00" fill="white">All Skills</text>
</g>
<!-- memory_sys&#45;&gt;memory_all -->
<g id="edge9" class="edge">
<title>memory_sys&#45;&gt;memory_all</title>
<path fill="none" stroke="#3fb950" stroke-width="1.5" d="M557.75,-201.03C557.75,-201.03 557.75,-168.85 557.75,-168.85"/>
<polygon fill="#3fb950" stroke="#3fb950" stroke-width="1.5" points="561.25,-168.85 557.75,-158.85 554.25,-168.85 561.25,-168.85"/>
</g>
<!-- memory_all&#45;&gt;core -->
<g id="edge10" class="edge">
<title>memory_all&#45;&gt;core</title>
<path fill="none" stroke="#3fb950" stroke-width="2" d="M528.54,-138C521.64,-138 516.18,-138 516.18,-138 516.18,-138 516.18,-66.21 516.18,-66.21"/>
<polygon fill="#3fb950" stroke="#3fb950" stroke-width="2" points="519.68,-66.21 516.18,-56.21 512.68,-66.21 519.68,-66.21"/>
</g>
<!-- tts -->
<g id="node13" class="node">
<title>tts</title>
<path fill="#1f2937" stroke="#bc8cff" d="M754,-245.95C754,-245.95 707.25,-245.95 707.25,-245.95 701.25,-245.95 695.25,-239.95 695.25,-233.95 695.25,-233.95 695.25,-221.95 695.25,-221.95 695.25,-215.95 701.25,-209.95 707.25,-209.95 707.25,-209.95 754,-209.95 754,-209.95 760,-209.95 766,-215.95 766,-221.95 766,-221.95 766,-233.95 766,-233.95 766,-239.95 760,-245.95 754,-245.95"/>
<text xml:space="preserve" text-anchor="middle" x="730.62" y="-225" font-family="Segoe UI" font-size="11.00" fill="#c9d1d9">TTS / Voice</text>
</g>
<!-- tts_skill -->
<g id="node14" class="node">
<title>tts_skill</title>
<path fill="#6e3a00" stroke="#bc8cff" d="M731.5,-156.45C731.5,-156.45 669.75,-156.45 669.75,-156.45 663.75,-156.45 657.75,-150.45 657.75,-144.45 657.75,-144.45 657.75,-131.95 657.75,-131.95 657.75,-125.95 663.75,-119.95 669.75,-119.95 669.75,-119.95 731.5,-119.95 731.5,-119.95 737.5,-119.95 743.5,-125.95 743.5,-131.95 743.5,-131.95 743.5,-144.45 743.5,-144.45 743.5,-150.45 737.5,-156.45 731.5,-156.45"/>
<text xml:space="preserve" text-anchor="middle" x="700.62" y="-142.95" font-family="Segoe UI Bold" font-size="10.00" fill="white">Custom Stories</text>
<text xml:space="preserve" text-anchor="middle" x="700.62" y="-128.7" font-family="Segoe UI Bold" font-size="10.00" fill="white">Skill</text>
</g>
<!-- tts&#45;&gt;tts_skill -->
<g id="edge11" class="edge">
<title>tts&#45;&gt;tts_skill</title>
<path fill="none" stroke="#bc8cff" stroke-width="1.5" d="M719.38,-209.79C719.38,-209.79 719.38,-168.92 719.38,-168.92"/>
<polygon fill="#bc8cff" stroke="#bc8cff" stroke-width="1.5" points="722.88,-168.92 719.38,-158.92 715.88,-168.92 722.88,-168.92"/>
</g>
<!-- tts_skill&#45;&gt;core -->
<g id="edge12" class="edge">
<title>tts_skill&#45;&gt;core</title>
<path fill="none" stroke="#bc8cff" stroke-width="2" d="M700.62,-119.5C700.62,-93.61 700.62,-50 700.62,-50 700.62,-50 531.24,-50 531.24,-50"/>
<polygon fill="#bc8cff" stroke="#bc8cff" stroke-width="2" points="531.24,-46.5 521.24,-50 531.24,-53.5 531.24,-46.5"/>
</g>
<!-- resources -->
<g id="node15" class="node">
<title>resources</title>
<path fill="#1f2937" stroke="#58a6ff" d="M878.38,-254.45C878.38,-254.45 806.88,-254.45 806.88,-254.45 800.88,-254.45 794.88,-248.45 794.88,-242.45 794.88,-242.45 794.88,-213.45 794.88,-213.45 794.88,-207.45 800.88,-201.45 806.88,-201.45 806.88,-201.45 878.38,-201.45 878.38,-201.45 884.38,-201.45 890.38,-207.45 890.38,-213.45 890.38,-213.45 890.38,-242.45 890.38,-242.45 890.38,-248.45 884.38,-254.45 878.38,-254.45"/>
<text xml:space="preserve" text-anchor="middle" x="842.62" y="-240" font-family="Segoe UI" font-size="11.00" fill="#c9d1d9">Resources</text>
<text xml:space="preserve" text-anchor="middle" x="842.62" y="-225" font-family="Segoe UI" font-size="11.00" fill="#c9d1d9">(14 Structured</text>
<text xml:space="preserve" text-anchor="middle" x="842.62" y="-210" font-family="Segoe UI" font-size="11.00" fill="#c9d1d9">Markdown Files)</text>
</g>
<!-- res_all -->
<g id="node16" class="node">
<title>res_all</title>
<path fill="#0d2818" stroke="#58a6ff" d="M846.88,-156.45C846.88,-156.45 802.38,-156.45 802.38,-156.45 796.38,-156.45 790.38,-150.45 790.38,-144.45 790.38,-144.45 790.38,-131.95 790.38,-131.95 790.38,-125.95 796.38,-119.95 802.38,-119.95 802.38,-119.95 846.88,-119.95 846.88,-119.95 852.88,-119.95 858.88,-125.95 858.88,-131.95 858.88,-131.95 858.88,-144.45 858.88,-144.45 858.88,-150.45 852.88,-156.45 846.88,-156.45"/>
<text xml:space="preserve" text-anchor="middle" x="824.62" y="-142.95" font-family="Segoe UI Bold" font-size="10.00" fill="white">All Skills</text>
<text xml:space="preserve" text-anchor="middle" x="824.62" y="-128.7" font-family="Segoe UI Bold" font-size="10.00" fill="white">Read/Write</text>
</g>
<!-- resources&#45;&gt;res_all -->
<g id="edge13" class="edge">
<title>resources&#45;&gt;res_all</title>
<path fill="none" stroke="#58a6ff" stroke-width="1.5" d="M826.88,-201.03C826.88,-201.03 826.88,-169.13 826.88,-169.13"/>
<polygon fill="#58a6ff" stroke="#58a6ff" stroke-width="1.5" points="830.38,-169.13 826.88,-159.13 823.38,-169.13 830.38,-169.13"/>
</g>
<!-- res_all&#45;&gt;core -->
<g id="edge14" class="edge">
<title>res_all&#45;&gt;core</title>
<path fill="none" stroke="#58a6ff" stroke-width="2" d="M824.62,-119.51C824.62,-87.36 824.62,-25 824.62,-25 824.62,-25 531.43,-25 531.43,-25"/>
<polygon fill="#58a6ff" stroke="#58a6ff" stroke-width="2" points="531.43,-21.5 521.43,-25 531.43,-28.5 531.43,-21.5"/>
</g>
<!-- mem_ephemeral -->
<g id="node17" class="node">
<title>mem_ephemeral</title>
<path fill="#1f2937" stroke="#3fb950" d="M592.25,-518.7C592.25,-518.7 553,-518.7 553,-518.7 547,-518.7 541,-512.7 541,-506.7 541,-506.7 541,-494.2 541,-494.2 541,-488.2 547,-482.2 553,-482.2 553,-482.2 592.25,-482.2 592.25,-482.2 598.25,-482.2 604.25,-488.2 604.25,-494.2 604.25,-494.2 604.25,-506.7 604.25,-506.7 604.25,-512.7 598.25,-518.7 592.25,-518.7"/>
<text xml:space="preserve" text-anchor="middle" x="572.62" y="-505.2" font-family="Segoe UI" font-size="10.00" fill="#c9d1d9">Ephemeral</text>
<text xml:space="preserve" text-anchor="middle" x="572.62" y="-490.95" font-family="Segoe UI" font-size="10.00" fill="#c9d1d9">Daily Logs</text>
</g>
<!-- mem_ephemeral&#45;&gt;memory_sys -->
<g id="edge17" class="edge">
<title>mem_ephemeral&#45;&gt;memory_sys</title>
<path fill="none" stroke="#3fb950" stroke-dasharray="1,5" d="M562.25,-481.72C562.25,-481.72 562.25,-266.14 562.25,-266.14"/>
<polygon fill="#3fb950" stroke="#3fb950" points="565.75,-266.14 562.25,-256.14 558.75,-266.14 565.75,-266.14"/>
</g>
<!-- mem_durable -->
<g id="node18" class="node">
<title>mem_durable</title>
<path fill="#0d2818" stroke="#3fb950" d="M649.75,-426.95C649.75,-426.95 595.5,-426.95 595.5,-426.95 589.5,-426.95 583.5,-420.95 583.5,-414.95 583.5,-414.95 583.5,-402.45 583.5,-402.45 583.5,-396.45 589.5,-390.45 595.5,-390.45 595.5,-390.45 649.75,-390.45 649.75,-390.45 655.75,-390.45 661.75,-396.45 661.75,-402.45 661.75,-402.45 661.75,-414.95 661.75,-414.95 661.75,-420.95 655.75,-426.95 649.75,-426.95"/>
<text xml:space="preserve" text-anchor="middle" x="622.62" y="-413.45" font-family="Segoe UI Bold" font-size="10.00" fill="white">Durable</text>
<text xml:space="preserve" text-anchor="middle" x="622.62" y="-399.2" font-family="Segoe UI Bold" font-size="10.00" fill="white">MEMORY.md</text>
</g>
<!-- mem_ephemeral&#45;&gt;mem_durable -->
<g id="edge15" class="edge">
<title>mem_ephemeral&#45;&gt;mem_durable</title>
<path fill="none" stroke="#3fb950" stroke-width="1.5" d="M593.88,-469.62C593.88,-469.62 593.88,-439.51 593.88,-439.51"/>
<polygon fill="#3fb950" stroke="#3fb950" stroke-width="1.5" points="590.38,-469.62 593.88,-479.62 597.38,-469.62 590.38,-469.62"/>
<polygon fill="#3fb950" stroke="#3fb950" stroke-width="1.5" points="597.38,-439.51 593.88,-429.51 590.38,-439.51 597.38,-439.51"/>
<text xml:space="preserve" text-anchor="start" x="605.62" y="-450.9" font-family="Times New Roman,serif" font-size="9.00" fill="#8b949e">&#45;</text>
</g>
<!-- mem_durable&#45;&gt;memory_sys -->
<g id="edge18" class="edge">
<title>mem_durable&#45;&gt;memory_sys</title>
<path fill="none" stroke="#3fb950" stroke-dasharray="1,5" d="M613.06,-390.04C613.06,-390.04 613.06,-266.18 613.06,-266.18"/>
<polygon fill="#3fb950" stroke="#3fb950" points="616.56,-266.18 613.06,-256.18 609.56,-266.18 616.56,-266.18"/>
</g>
<!-- mem_structured -->
<g id="node19" class="node">
<title>mem_structured</title>
<path fill="#0d2818" stroke="#3fb950" d="M694.62,-335.95C694.62,-335.95 654.62,-335.95 654.62,-335.95 648.62,-335.95 642.62,-329.95 642.62,-323.95 642.62,-323.95 642.62,-311.45 642.62,-311.45 642.62,-305.45 648.62,-299.45 654.62,-299.45 654.62,-299.45 694.62,-299.45 694.62,-299.45 700.62,-299.45 706.62,-305.45 706.62,-311.45 706.62,-311.45 706.62,-323.95 706.62,-323.95 706.62,-329.95 700.62,-335.95 694.62,-335.95"/>
<text xml:space="preserve" text-anchor="middle" x="674.62" y="-322.45" font-family="Segoe UI Bold" font-size="10.00" fill="white">Structured</text>
<text xml:space="preserve" text-anchor="middle" x="674.62" y="-308.2" font-family="Segoe UI Bold" font-size="10.00" fill="white">resources/</text>
</g>
<!-- mem_durable&#45;&gt;mem_structured -->
<g id="edge16" class="edge">
<title>mem_durable&#45;&gt;mem_structured</title>
<path fill="none" stroke="#3fb950" stroke-width="1.5" d="M652.19,-378.02C652.19,-378.02 652.19,-348.67 652.19,-348.67"/>
<polygon fill="#3fb950" stroke="#3fb950" stroke-width="1.5" points="648.69,-378.02 652.19,-388.02 655.69,-378.02 648.69,-378.02"/>
<polygon fill="#3fb950" stroke="#3fb950" stroke-width="1.5" points="655.69,-348.67 652.19,-338.67 648.69,-348.67 655.69,-348.67"/>
<text xml:space="preserve" text-anchor="start" x="660.62" y="-359.9" font-family="Times New Roman,serif" font-size="9.00" fill="#8b949e">&#45;</text>
</g>
<!-- mem_structured&#45;&gt;memory_sys -->
<g id="edge19" class="edge">
<title>mem_structured&#45;&gt;memory_sys</title>
<path fill="none" stroke="#3fb950" stroke-dasharray="1,5" d="M654.44,-299.11C654.44,-299.11 654.44,-266.21 654.44,-266.21"/>
<polygon fill="#3fb950" stroke="#3fb950" points="657.94,-266.21 654.44,-256.21 650.94,-266.21 657.94,-266.21"/>
</g>
</g>
</svg>
