<?xml version="1.0" encoding="UTF-8" standalone="no"?>
<!DOCTYPE svg PUBLIC "-//W3C//DTD SVG 1.1//EN"
 "http://www.w3.org/Graphics/SVG/1.1/DTD/svg11.dtd">
<!-- Generated by graphviz version 14.1.2 (0)
 -->
<!-- Title: crewai_architecture Pages: 1 -->
<svg width="459pt" height="793pt"
 viewBox="0.00 0.00 459.00 793.00" xmlns="http://www.w3.org/2000/svg" xmlns:xlink="http://www.w3.org/1999/xlink">
<style>
<!-- White text halo for edge label readability -->
text { paint-order: stroke; stroke: #ffffff; stroke-width: 3px; stroke-linejoin: round; fill: #1a1a2e; }
</style>
<g id="graph0" class="graph" transform="scale(1 1) rotate(0) translate(4 789)">
<title>crewai_architecture</title>
<polygon fill="white" stroke="none" points="-4,4 -4,-789 455.12,-789 455.12,4 -4,4"/>
<text xml:space="preserve" text-anchor="middle" x="225.56" y="-7.2" font-family="Times New Roman,serif" font-size="14.00">CrewAI &#45; Architecture Overview</text>
<!-- user -->
<g id="node1" class="node">
<title>user</title>
<polygon fill="#4caf50" stroke="black" points="396.62,-785 286.88,-785 286.88,-749 396.62,-749 396.62,-785"/>
<text xml:space="preserve" text-anchor="middle" x="341.75" y="-770.05" font-family="Arial" font-size="11.00" fill="white">User Input</text>
<text xml:space="preserve" text-anchor="middle" x="341.75" y="-756.55" font-family="Arial" font-size="11.00" fill="white">(Natural Language)</text>
</g>
<!-- crew -->
<g id="node2" class="node">
<title>crew</title>
<path fill="#2196f3" stroke="black" d="M382.75,-691C382.75,-691 300.75,-691 300.75,-691 294.75,-691 288.75,-685 288.75,-679 288.75,-679 288.75,-665 288.75,-665 288.75,-659 294.75,-653 300.75,-653 300.75,-653 382.75,-653 382.75,-653 388.75,-653 394.75,-659 394.75,-665 394.75,-665 394.75,-679 394.75,-679 394.75,-685 388.75,-691 382.75,-691"/>
<text xml:space="preserve" text-anchor="middle" x="341.75" y="-674.65" font-family="Arial Bold" font-size="13.00" fill="white">Crew</text>
<text xml:space="preserve" text-anchor="middle" x="341.75" y="-659.65" font-family="Arial Bold" font-size="13.00" fill="white">(Orchestrator)</text>
</g>
<!-- user&#45;&gt;crew -->
<g id="edge1" class="edge">
<title>user&#45;&gt;crew</title>
<path fill="none" stroke="#4caf50" stroke-width="2" d="M341.75,-748.68C341.75,-748.68 341.75,-704.27 341.75,-704.27"/>
<polygon fill="#4caf50" stroke="#4caf50" stroke-width="2" points="345.25,-704.27 341.75,-694.27 338.25,-704.27 345.25,-704.27"/>
</g>
<!-- process -->
<g id="node3" class="node">
<title>process</title>
<polygon fill="#f44336" stroke="black" points="268.75,-595 193.5,-551 268.75,-507 344,-551 268.75,-595"/>
<text xml:space="preserve" text-anchor="middle" x="268.75" y="-559.5" font-family="Arial Bold" font-size="10.00" fill="white">Process</text>
<text xml:space="preserve" text-anchor="middle" x="268.75" y="-547.5" font-family="Arial Bold" font-size="10.00" fill="white">(Sequential /</text>
<text xml:space="preserve" text-anchor="middle" x="268.75" y="-535.5" font-family="Arial Bold" font-size="10.00" fill="white">Hierarchical)</text>
</g>
<!-- crew&#45;&gt;process -->
<g id="edge2" class="edge">
<title>crew&#45;&gt;process</title>
<path fill="none" stroke="#2196f3" stroke-width="2" d="M316.38,-652.56C316.38,-652.56 316.38,-580.69 316.38,-580.69"/>
<polygon fill="#2196f3" stroke="#2196f3" stroke-width="2" points="319.88,-580.69 316.38,-570.69 312.88,-580.69 319.88,-580.69"/>
</g>
<!-- memory -->
<g id="node12" class="node">
<title>memory</title>
<path fill="#e64a19" stroke="black" d="M451.12,-575.75C451.12,-578.78 435.27,-581.25 415.75,-581.25 396.23,-581.25 380.38,-578.78 380.38,-575.75 380.38,-575.75 380.38,-526.25 380.38,-526.25 380.38,-523.22 396.23,-520.75 415.75,-520.75 435.27,-520.75 451.12,-523.22 451.12,-526.25 451.12,-526.25 451.12,-575.75 451.12,-575.75"/>
<path fill="none" stroke="black" d="M451.12,-575.75C451.12,-572.72 435.27,-570.25 415.75,-570.25 396.23,-570.25 380.38,-572.72 380.38,-575.75"/>
<text xml:space="preserve" text-anchor="middle" x="415.75" y="-559.5" font-family="Arial" font-size="10.00" fill="white">Memory</text>
<text xml:space="preserve" text-anchor="middle" x="415.75" y="-547.5" font-family="Arial" font-size="10.00" fill="white">(Short&#45;term /</text>
<text xml:space="preserve" text-anchor="middle" x="415.75" y="-535.5" font-family="Arial" font-size="10.00" fill="white">Long&#45;term)</text>
</g>
<!-- crew&#45;&gt;memory -->
<g id="edge15" class="edge">
<title>crew&#45;&gt;memory</title>
<path fill="none" stroke="#e64a19" stroke-width="1.5" stroke-dasharray="5,2" d="M387.56,-652.56C387.56,-652.56 387.56,-592.6 387.56,-592.6"/>
<polygon fill="#e64a19" stroke="#e64a19" stroke-width="1.5" points="391.06,-592.6 387.56,-582.6 384.06,-592.6 391.06,-592.6"/>
<text xml:space="preserve" text-anchor="middle" x="354.94" y="-625.78" font-family="Times New Roman,serif" font-size="14.00">reads/writes</text>
</g>
<!-- agent1 -->
<g id="node4" class="node">
<title>agent1</title>
<path fill="#009688" stroke="black" d="M294.75,-449C294.75,-449 242.75,-449 242.75,-449 236.75,-449 230.75,-443 230.75,-437 230.75,-437 230.75,-425 230.75,-425 230.75,-419 236.75,-413 242.75,-413 242.75,-413 294.75,-413 294.75,-413 300.75,-413 306.75,-419 306.75,-425 306.75,-425 306.75,-437 306.75,-437 306.75,-443 300.75,-449 294.75,-449"/>
<text xml:space="preserve" text-anchor="middle" x="268.75" y="-434.05" font-family="Arial Bold" font-size="11.00" fill="white">Agent 1</text>
<text xml:space="preserve" text-anchor="middle" x="268.75" y="-420.55" font-family="Arial Bold" font-size="11.00" fill="white">Researcher</text>
</g>
<!-- process&#45;&gt;agent1 -->
<g id="edge3" class="edge">
<title>process&#45;&gt;agent1</title>
<path fill="none" stroke="#009688" stroke-width="2" d="M268.75,-506.66C268.75,-506.66 268.75,-462.51 268.75,-462.51"/>
<polygon fill="#009688" stroke="#009688" stroke-width="2" points="272.25,-462.51 268.75,-452.51 265.25,-462.51 272.25,-462.51"/>
<text xml:space="preserve" text-anchor="middle" x="251.88" y="-487.78" font-family="Times New Roman,serif" font-size="14.00">assign</text>
</g>
<!-- agent2 -->
<g id="node5" class="node">
<title>agent2</title>
<path fill="#009688" stroke="black" d="M387,-449C387,-449 354.5,-449 354.5,-449 348.5,-449 342.5,-443 342.5,-437 342.5,-437 342.5,-425 342.5,-425 342.5,-419 348.5,-413 354.5,-413 354.5,-413 387,-413 387,-413 393,-413 399,-419 399,-425 399,-425 399,-437 399,-437 399,-443 393,-449 387,-449"/>
<text xml:space="preserve" text-anchor="middle" x="370.75" y="-434.05" font-family="Arial Bold" font-size="11.00" fill="white">Agent 2</text>
<text xml:space="preserve" text-anchor="middle" x="370.75" y="-420.55" font-family="Arial Bold" font-size="11.00" fill="white">Writer</text>
</g>
<!-- process&#45;&gt;agent2 -->
<g id="edge4" class="edge">
<title>process&#45;&gt;agent2</title>
<path fill="none" stroke="#009688" stroke-width="2" d="M280.58,-513.5C305.73,-513.5 362.19,-513.5 362.19,-513.5 362.19,-513.5 362.19,-462.34 362.19,-462.34"/>
<polygon fill="#009688" stroke="#009688" stroke-width="2" points="365.69,-462.34 362.19,-452.34 358.69,-462.34 365.69,-462.34"/>
</g>
<!-- agent3 -->
<g id="node6" class="node">
<title>agent3</title>
<path fill="#009688" stroke="black" d="M183,-449C183,-449 150.5,-449 150.5,-449 144.5,-449 138.5,-443 138.5,-437 138.5,-437 138.5,-425 138.5,-425 138.5,-419 144.5,-413 150.5,-413 150.5,-413 183,-413 183,-413 189,-413 195,-419 195,-425 195,-425 195,-437 195,-437 195,-443 189,-449 183,-449"/>
<text xml:space="preserve" text-anchor="middle" x="166.75" y="-434.05" font-family="Arial Bold" font-size="11.00" fill="white">Agent 3</text>
<text xml:space="preserve" text-anchor="middle" x="166.75" y="-420.55" font-family="Arial Bold" font-size="11.00" fill="white">Analyst</text>
</g>
<!-- process&#45;&gt;agent3 -->
<g id="edge5" class="edge">
<title>process&#45;&gt;agent3</title>
<path fill="none" stroke="#009688" stroke-width="2" d="M212.88,-539.1C212.88,-508.88 212.88,-431.5 212.88,-431.5 212.88,-431.5 208.46,-431.5 208.46,-431.5"/>
<polygon fill="#009688" stroke="#009688" stroke-width="2" points="208.46,-428 198.46,-431.5 208.46,-435 208.46,-428"/>
</g>
<!-- task1 -->
<g id="node7" class="node">
<title>task1</title>
<path fill="#ff9800" stroke="black" d="M116,-348.75C116,-348.75 77.5,-348.75 77.5,-348.75 71.5,-348.75 65.5,-342.75 65.5,-336.75 65.5,-336.75 65.5,-324.75 65.5,-324.75 65.5,-318.75 71.5,-312.75 77.5,-312.75 77.5,-312.75 116,-312.75 116,-312.75 122,-312.75 128,-318.75 128,-324.75 128,-324.75 128,-336.75 128,-336.75 128,-342.75 122,-348.75 116,-348.75"/>
<text xml:space="preserve" text-anchor="middle" x="96.75" y="-333.8" font-family="Arial" font-size="11.00" fill="white">Task 1</text>
<text xml:space="preserve" text-anchor="middle" x="96.75" y="-320.3" font-family="Arial" font-size="11.00" fill="white">Research</text>
</g>
<!-- agent1&#45;&gt;task1 -->
<g id="edge6" class="edge">
<title>agent1&#45;&gt;task1</title>
<path fill="none" stroke="#ff9800" stroke-width="2" d="M246.92,-412.81C246.92,-396.3 246.92,-374.5 246.92,-374.5 246.92,-374.5 96.75,-374.5 96.75,-374.5 96.75,-374.5 96.75,-362.08 96.75,-362.08"/>
<polygon fill="#ff9800" stroke="#ff9800" stroke-width="2" points="100.25,-362.08 96.75,-352.08 93.25,-362.08 100.25,-362.08"/>
<text xml:space="preserve" text-anchor="middle" x="161.53" y="-377.7" font-family="Times New Roman,serif" font-size="14.00">executes</text>
</g>
<!-- tools -->
<g id="node10" class="node">
<title>tools</title>
<path fill="#9c27b0" stroke="black" d="M267.25,-355C267.25,-355 176.25,-355 176.25,-355 170.25,-355 164.25,-349 164.25,-343 164.25,-343 164.25,-318.5 164.25,-318.5 164.25,-312.5 170.25,-306.5 176.25,-306.5 176.25,-306.5 267.25,-306.5 267.25,-306.5 273.25,-306.5 279.25,-312.5 279.25,-318.5 279.25,-318.5 279.25,-343 279.25,-343 279.25,-349 273.25,-355 267.25,-355"/>
<text xml:space="preserve" text-anchor="middle" x="221.75" y="-340.55" font-family="Arial" font-size="11.00" fill="white">Tools</text>
<text xml:space="preserve" text-anchor="middle" x="221.75" y="-327.05" font-family="Arial" font-size="11.00" fill="white">(SerperDev, Scrape,</text>
<text xml:space="preserve" text-anchor="middle" x="221.75" y="-313.55" font-family="Arial" font-size="11.00" fill="white">FileRead, Custom)</text>
</g>
<!-- agent1&#45;&gt;tools -->
<g id="edge9" class="edge">
<title>agent1&#45;&gt;tools</title>
<path fill="none" stroke="#9c27b0" stroke-width="1.5" stroke-dasharray="5,2" d="M263.08,-412.61C263.08,-412.61 263.08,-367.71 263.08,-367.71"/>
<polygon fill="#9c27b0" stroke="#9c27b0" stroke-width="1.5" points="266.58,-367.71 263.08,-357.71 259.58,-367.71 266.58,-367.71"/>
<text xml:space="preserve" text-anchor="middle" x="251.46" y="-393.36" font-family="Times New Roman,serif" font-size="14.00">uses</text>
</g>
<!-- llm -->
<g id="node11" class="node">
<title>llm</title>
<path fill="#3f51b5" stroke="black" d="M414,-355C414,-355 327.5,-355 327.5,-355 321.5,-355 315.5,-349 315.5,-343 315.5,-343 315.5,-318.5 315.5,-318.5 315.5,-312.5 321.5,-306.5 327.5,-306.5 327.5,-306.5 414,-306.5 414,-306.5 420,-306.5 426,-312.5 426,-318.5 426,-318.5 426,-343 426,-343 426,-349 420,-355 414,-355"/>
<text xml:space="preserve" text-anchor="middle" x="370.75" y="-340.55" font-family="Arial" font-size="11.00" fill="white">LLM Providers</text>
<text xml:space="preserve" text-anchor="middle" x="370.75" y="-327.05" font-family="Arial" font-size="11.00" fill="white">(OpenAI, Anthropic,</text>
<text xml:space="preserve" text-anchor="middle" x="370.75" y="-313.55" font-family="Arial" font-size="11.00" fill="white">Ollama, LM Studio)</text>
</g>
<!-- agent1&#45;&gt;llm -->
<g id="edge12" class="edge">
<title>agent1&#45;&gt;llm</title>
<path fill="none" stroke="#3f51b5" stroke-width="1.5" stroke-dasharray="5,2" d="M307.16,-422.5C321.11,-422.5 333.5,-422.5 333.5,-422.5 333.5,-422.5 333.5,-367.61 333.5,-367.61"/>
<polygon fill="#3f51b5" stroke="#3f51b5" stroke-width="1.5" points="337,-367.61 333.5,-357.61 330,-367.61 337,-367.61"/>
<text xml:space="preserve" text-anchor="middle" x="321.12" y="-411.42" font-family="Times New Roman,serif" font-size="14.00">calls</text>
</g>
<!-- task2 -->
<g id="node8" class="node">
<title>task2</title>
<path fill="#ff9800" stroke="black" d="M111.75,-248.5C111.75,-248.5 81.75,-248.5 81.75,-248.5 75.75,-248.5 69.75,-242.5 69.75,-236.5 69.75,-236.5 69.75,-224.5 69.75,-224.5 69.75,-218.5 75.75,-212.5 81.75,-212.5 81.75,-212.5 111.75,-212.5 111.75,-212.5 117.75,-212.5 123.75,-218.5 123.75,-224.5 123.75,-224.5 123.75,-236.5 123.75,-236.5 123.75,-242.5 117.75,-248.5 111.75,-248.5"/>
<text xml:space="preserve" text-anchor="middle" x="96.75" y="-233.55" font-family="Arial" font-size="11.00" fill="white">Task 2</text>
<text xml:space="preserve" text-anchor="middle" x="96.75" y="-220.05" font-family="Arial" font-size="11.00" fill="white">Write</text>
</g>
<!-- agent2&#45;&gt;task2 -->
<g id="edge7" class="edge">
<title>agent2&#45;&gt;task2</title>
<path fill="none" stroke="#ff9800" stroke-width="2" d="M342.01,-431.5C327.35,-431.5 312.58,-431.5 312.58,-431.5 312.58,-431.5 312.58,-230.5 312.58,-230.5 312.58,-230.5 137.11,-230.5 137.11,-230.5"/>
<polygon fill="#ff9800" stroke="#ff9800" stroke-width="2" points="137.11,-227 127.11,-230.5 137.11,-234 137.11,-227"/>
</g>
<!-- agent2&#45;&gt;tools -->
<g id="edge10" class="edge">
<title>agent2&#45;&gt;tools</title>
<path fill="none" stroke="#9c27b0" stroke-width="1.5" stroke-dasharray="5,2" d="M342.35,-440.5C326.4,-440.5 309.67,-440.5 309.67,-440.5 309.67,-440.5 309.67,-330.5 309.67,-330.5 309.67,-330.5 291.68,-330.5 291.68,-330.5"/>
<polygon fill="#9c27b0" stroke="#9c27b0" stroke-width="1.5" points="291.68,-327 281.68,-330.5 291.68,-334 291.68,-327"/>
</g>
<!-- agent2&#45;&gt;llm -->
<g id="edge13" class="edge">
<title>agent2&#45;&gt;llm</title>
<path fill="none" stroke="#3f51b5" stroke-width="1.5" stroke-dasharray="5,2" d="M370.75,-412.61C370.75,-412.61 370.75,-367.71 370.75,-367.71"/>
<polygon fill="#3f51b5" stroke="#3f51b5" stroke-width="1.5" points="374.25,-367.71 370.75,-357.71 367.25,-367.71 374.25,-367.71"/>
</g>
<!-- task3 -->
<g id="node9" class="node">
<title>task3</title>
<path fill="#ff9800" stroke="black" d="M68.88,-154.5C68.88,-154.5 38.62,-154.5 38.62,-154.5 32.62,-154.5 26.62,-148.5 26.62,-142.5 26.62,-142.5 26.62,-130.5 26.62,-130.5 26.62,-124.5 32.62,-118.5 38.62,-118.5 38.62,-118.5 68.88,-118.5 68.88,-118.5 74.88,-118.5 80.88,-124.5 80.88,-130.5 80.88,-130.5 80.88,-142.5 80.88,-142.5 80.88,-148.5 74.88,-154.5 68.88,-154.5"/>
<text xml:space="preserve" text-anchor="middle" x="53.75" y="-139.55" font-family="Arial" font-size="11.00" fill="white">Task 3</text>
<text xml:space="preserve" text-anchor="middle" x="53.75" y="-126.05" font-family="Arial" font-size="11.00" fill="white">Analyze</text>
</g>
<!-- agent3&#45;&gt;task3 -->
<g id="edge8" class="edge">
<title>agent3&#45;&gt;task3</title>
<path fill="none" stroke="#ff9800" stroke-width="2" d="M151.38,-412.58C151.38,-348.1 151.38,-136.5 151.38,-136.5 151.38,-136.5 94.23,-136.5 94.23,-136.5"/>
<polygon fill="#ff9800" stroke="#ff9800" stroke-width="2" points="94.23,-133 84.23,-136.5 94.23,-140 94.23,-133"/>
</g>
<!-- agent3&#45;&gt;tools -->
<g id="edge11" class="edge">
<title>agent3&#45;&gt;tools</title>
<path fill="none" stroke="#9c27b0" stroke-width="1.5" stroke-dasharray="5,2" d="M174.5,-412.61C174.5,-412.61 174.5,-367.71 174.5,-367.71"/>
<polygon fill="#9c27b0" stroke="#9c27b0" stroke-width="1.5" points="178,-367.71 174.5,-357.71 171,-367.71 178,-367.71"/>
</g>
<!-- agent3&#45;&gt;llm -->
<g id="edge14" class="edge">
<title>agent3&#45;&gt;llm</title>
<path fill="none" stroke="#3f51b5" stroke-width="1.5" stroke-dasharray="5,2" d="M184.75,-412.69C184.75,-403.17 184.75,-393.5 184.75,-393.5 184.75,-393.5 324.5,-393.5 324.5,-393.5 324.5,-393.5 324.5,-367.46 324.5,-367.46"/>
<polygon fill="#3f51b5" stroke="#3f51b5" stroke-width="1.5" points="328,-367.46 324.5,-357.46 321,-367.46 328,-367.46"/>
</g>
<!-- task1&#45;&gt;task2 -->
<g id="edge16" class="edge">
<title>task1&#45;&gt;task2</title>
<path fill="none" stroke="#ff9800" stroke-width="2" d="M96.75,-312.36C96.75,-312.36 96.75,-261.8 96.75,-261.8"/>
<polygon fill="#ff9800" stroke="#ff9800" stroke-width="2" points="100.25,-261.8 96.75,-251.8 93.25,-261.8 100.25,-261.8"/>
<text xml:space="preserve" text-anchor="middle" x="75.75" y="-290.28" font-family="Times New Roman,serif" font-size="14.00">handoff</text>
</g>
<!-- task2&#45;&gt;task3 -->
<g id="edge17" class="edge">
<title>task2&#45;&gt;task3</title>
<path fill="none" stroke="#ff9800" stroke-width="2" d="M75.31,-212.38C75.31,-212.38 75.31,-167.92 75.31,-167.92"/>
<polygon fill="#ff9800" stroke="#ff9800" stroke-width="2" points="78.81,-167.92 75.31,-157.92 71.81,-167.92 78.81,-167.92"/>
<text xml:space="preserve" text-anchor="middle" x="54.31" y="-193.35" font-family="Times New Roman,serif" font-size="14.00">handoff</text>
</g>
<!-- output -->
<g id="node13" class="node">
<title>output</title>
<polygon fill="#f44336" stroke="black" points="107.5,-60.5 0,-60.5 0,-24.5 107.5,-24.5 107.5,-60.5"/>
<text xml:space="preserve" text-anchor="middle" x="53.75" y="-45.55" font-family="Arial" font-size="11.00" fill="white">Output</text>
<text xml:space="preserve" text-anchor="middle" x="53.75" y="-32.05" font-family="Arial" font-size="11.00" fill="white">(Structured Result)</text>
</g>
<!-- task3&#45;&gt;output -->
<g id="edge18" class="edge">
<title>task3&#45;&gt;output</title>
<path fill="none" stroke="#f44336" stroke-width="2" d="M53.75,-118.38C53.75,-118.38 53.75,-73.92 53.75,-73.92"/>
<polygon fill="#f44336" stroke="#f44336" stroke-width="2" points="57.25,-73.92 53.75,-63.92 50.25,-73.92 57.25,-73.92"/>
</g>
</g>
</svg>
