<?xml version="1.0" encoding="UTF-8" standalone="no"?>
<!DOCTYPE svg PUBLIC "-//W3C//DTD SVG 1.1//EN"
 "http://www.w3.org/Graphics/SVG/1.1/DTD/svg11.dtd">
<!-- Generated by graphviz version 14.1.2 (0)
 -->
<!-- Title: deepgemm_integration Pages: 1 -->
<svg width="647pt" height="941pt"
 viewBox="0.00 0.00 647.00 941.00" xmlns="http://www.w3.org/2000/svg" xmlns:xlink="http://www.w3.org/1999/xlink">
<g id="graph0" class="graph" transform="scale(1 1) rotate(0) translate(4 936.75)">
<title>deepgemm_integration</title>
<polygon fill="white" stroke="none" points="-4,4 -4,-936.75 642.88,-936.75 642.88,4 -4,4"/>
<!-- title -->
<g id="node1" class="node">
<title>title</title>
<polygon fill="#1a237e" stroke="black" stroke-width="2" points="393.88,-932.75 161.88,-932.75 161.88,-893.25 393.88,-893.25 393.88,-932.75"/>
<text xml:space="preserve" text-anchor="middle" x="277.88" y="-915.45" font-family="Arial Bold" font-size="14.00" fill="white">DeepGEMM Integration Workflow</text>
<text xml:space="preserve" text-anchor="middle" x="277.88" y="-899.7" font-family="Arial Bold" font-size="14.00" fill="white">ML Pipeline Integration</text>
</g>
<!-- install -->
<g id="node2" class="node">
<title>install</title>
<polygon fill="#4caf50" stroke="black" points="338.38,-834.25 217.38,-834.25 217.38,-785.75 338.38,-785.75 338.38,-834.25"/>
<text xml:space="preserve" text-anchor="middle" x="277.88" y="-819.8" font-family="Arial" font-size="11.00" fill="white">Step 1: Install</text>
<text xml:space="preserve" text-anchor="middle" x="277.88" y="-806.3" font-family="Arial" font-size="11.00" fill="white">pip install deep&#45;gemm</text>
<text xml:space="preserve" text-anchor="middle" x="277.88" y="-792.8" font-family="Arial" font-size="11.00" fill="white">or ./install.sh</text>
</g>
<!-- title&#45;&gt;install -->
<g id="edge1" class="edge">
<title>title&#45;&gt;install</title>
<path fill="none" stroke="#1a237e" stroke-width="2" d="M277.88,-893.14C277.88,-893.14 277.88,-847.55 277.88,-847.55"/>
<polygon fill="#1a237e" stroke="#1a237e" stroke-width="2" points="281.38,-847.55 277.88,-837.55 274.38,-847.55 281.38,-847.55"/>
</g>
<!-- import -->
<g id="node3" class="node">
<title>import</title>
<polygon fill="#4caf50" stroke="black" points="332.38,-726.75 223.38,-726.75 223.38,-690.75 332.38,-690.75 332.38,-726.75"/>
<text xml:space="preserve" text-anchor="middle" x="277.88" y="-711.8" font-family="Arial" font-size="11.00" fill="white">Step 2: Import</text>
<text xml:space="preserve" text-anchor="middle" x="277.88" y="-698.3" font-family="Arial" font-size="11.00" fill="white">import deep_gemm</text>
</g>
<!-- install&#45;&gt;import -->
<g id="edge2" class="edge">
<title>install&#45;&gt;import</title>
<path fill="none" stroke="#4caf50" stroke-width="2" d="M277.88,-785.49C277.88,-785.49 277.88,-740.03 277.88,-740.03"/>
<polygon fill="#4caf50" stroke="#4caf50" stroke-width="2" points="281.38,-740.03 277.88,-730.03 274.38,-740.03 281.38,-740.03"/>
</g>
<!-- prep -->
<g id="node4" class="node">
<title>prep</title>
<path fill="#00897b" stroke="black" d="M334.62,-631.75C334.62,-631.75 221.12,-631.75 221.12,-631.75 215.12,-631.75 209.12,-625.75 209.12,-619.75 209.12,-619.75 209.12,-581.75 209.12,-581.75 209.12,-575.75 215.12,-569.75 221.12,-569.75 221.12,-569.75 334.62,-569.75 334.62,-569.75 340.62,-569.75 346.62,-575.75 346.62,-581.75 346.62,-581.75 346.62,-619.75 346.62,-619.75 346.62,-625.75 340.62,-631.75 334.62,-631.75"/>
<text xml:space="preserve" text-anchor="middle" x="277.88" y="-617.3" font-family="Arial" font-size="11.00" fill="white">Step 3: Prepare Tensors</text>
<text xml:space="preserve" text-anchor="middle" x="277.88" y="-603.8" font-family="Arial" font-size="11.00" fill="white">Cast to FP8 E4M3</text>
<text xml:space="preserve" text-anchor="middle" x="277.88" y="-590.3" font-family="Arial" font-size="11.00" fill="white">Compute Scaling Factors</text>
<text xml:space="preserve" text-anchor="middle" x="277.88" y="-576.8" font-family="Arial" font-size="11.00" fill="white">TMA&#45;Align Layout</text>
</g>
<!-- import&#45;&gt;prep -->
<g id="edge3" class="edge">
<title>import&#45;&gt;prep</title>
<path fill="none" stroke="#4caf50" stroke-width="2" d="M277.88,-690.43C277.88,-690.43 277.88,-644.9 277.88,-644.9"/>
<polygon fill="#4caf50" stroke="#4caf50" stroke-width="2" points="281.38,-644.9 277.88,-634.9 274.38,-644.9 281.38,-644.9"/>
</g>
<!-- choose -->
<g id="node5" class="node">
<title>choose</title>
<polygon fill="#f44336" stroke="black" points="277.88,-510.75 181.35,-492.75 277.87,-474.75 374.4,-492.75 277.88,-510.75"/>
<text xml:space="preserve" text-anchor="middle" x="277.88" y="-489.25" font-family="Arial Bold" font-size="10.00" fill="white">Step 4: Select Kernel</text>
</g>
<!-- prep&#45;&gt;choose -->
<g id="edge4" class="edge">
<title>prep&#45;&gt;choose</title>
<path fill="none" stroke="#00897b" stroke-width="2" d="M277.88,-569.51C277.88,-569.51 277.88,-524.11 277.88,-524.11"/>
<polygon fill="#00897b" stroke="#00897b" stroke-width="2" points="281.38,-524.11 277.88,-514.11 274.38,-524.11 281.38,-524.11"/>
</g>
<!-- dense -->
<g id="node6" class="node">
<title>dense</title>
<path fill="#2196f3" stroke="black" d="M85.75,-400.25C85.75,-400.25 12,-400.25 12,-400.25 6,-400.25 0,-394.25 0,-388.25 0,-388.25 0,-361.5 0,-361.5 0,-355.5 6,-349.5 12,-349.5 12,-349.5 85.75,-349.5 85.75,-349.5 91.75,-349.5 97.75,-355.5 97.75,-361.5 97.75,-361.5 97.75,-388.25 97.75,-388.25 97.75,-394.25 91.75,-400.25 85.75,-400.25"/>
<text xml:space="preserve" text-anchor="middle" x="48.88" y="-384.85" font-family="Arial Bold" font-size="12.00" fill="white">Dense GEMM</text>
<text xml:space="preserve" text-anchor="middle" x="48.88" y="-370.6" font-family="Arial Bold" font-size="12.00" fill="white">fp8_gemm_nt</text>
<text xml:space="preserve" text-anchor="middle" x="48.88" y="-356.35" font-family="Arial Bold" font-size="12.00" fill="white">fp8_gemm_nn</text>
</g>
<!-- choose&#45;&gt;dense -->
<g id="edge5" class="edge">
<title>choose&#45;&gt;dense</title>
<path fill="none" stroke="#2196f3" stroke-width="1.5" d="M180.09,-493C117.85,-493 48.88,-493 48.88,-493 48.88,-493 48.88,-412.78 48.88,-412.78"/>
<polygon fill="#2196f3" stroke="#2196f3" stroke-width="1.5" points="52.38,-412.78 48.88,-402.78 45.38,-412.78 52.38,-412.78"/>
<text xml:space="preserve" text-anchor="middle" x="129.75" y="-432.45" font-family="Times New Roman,serif" font-size="14.00">Dense</text>
</g>
<!-- grouped_c -->
<g id="node7" class="node">
<title>grouped_c</title>
<path fill="#2196f3" stroke="black" d="M270.25,-400.25C270.25,-400.25 145.5,-400.25 145.5,-400.25 139.5,-400.25 133.5,-394.25 133.5,-388.25 133.5,-388.25 133.5,-361.5 133.5,-361.5 133.5,-355.5 139.5,-349.5 145.5,-349.5 145.5,-349.5 270.25,-349.5 270.25,-349.5 276.25,-349.5 282.25,-355.5 282.25,-361.5 282.25,-361.5 282.25,-388.25 282.25,-388.25 282.25,-394.25 276.25,-400.25 270.25,-400.25"/>
<text xml:space="preserve" text-anchor="middle" x="207.88" y="-384.85" font-family="Arial Bold" font-size="12.00" fill="white">Grouped (Contiguous)</text>
<text xml:space="preserve" text-anchor="middle" x="207.88" y="-370.6" font-family="Arial Bold" font-size="12.00" fill="white">m_grouped_fp8_gemm</text>
<text xml:space="preserve" text-anchor="middle" x="207.88" y="-356.35" font-family="Arial Bold" font-size="12.00" fill="white">Contiguous Layout</text>
</g>
<!-- choose&#45;&gt;grouped_c -->
<g id="edge6" class="edge">
<title>choose&#45;&gt;grouped_c</title>
<path fill="none" stroke="#2196f3" stroke-width="1.5" d="M231.8,-483.1C231.8,-483.1 231.8,-413 231.8,-413"/>
<polygon fill="#2196f3" stroke="#2196f3" stroke-width="1.5" points="235.3,-413 231.8,-403 228.3,-413 235.3,-413"/>
<text xml:space="preserve" text-anchor="middle" x="257.62" y="-432.45" font-family="Times New Roman,serif" font-size="14.00">MoE Fwd</text>
</g>
<!-- grouped_m -->
<g id="node8" class="node">
<title>grouped_m</title>
<path fill="#2196f3" stroke="black" d="M455.25,-400.25C455.25,-400.25 330.5,-400.25 330.5,-400.25 324.5,-400.25 318.5,-394.25 318.5,-388.25 318.5,-388.25 318.5,-361.5 318.5,-361.5 318.5,-355.5 324.5,-349.5 330.5,-349.5 330.5,-349.5 455.25,-349.5 455.25,-349.5 461.25,-349.5 467.25,-355.5 467.25,-361.5 467.25,-361.5 467.25,-388.25 467.25,-388.25 467.25,-394.25 461.25,-400.25 455.25,-400.25"/>
<text xml:space="preserve" text-anchor="middle" x="392.88" y="-384.85" font-family="Arial Bold" font-size="12.00" fill="white">Grouped (Masked)</text>
<text xml:space="preserve" text-anchor="middle" x="392.88" y="-370.6" font-family="Arial Bold" font-size="12.00" fill="white">m_grouped_fp8_gemm</text>
<text xml:space="preserve" text-anchor="middle" x="392.88" y="-356.35" font-family="Arial Bold" font-size="12.00" fill="white">Masked Layout</text>
</g>
<!-- choose&#45;&gt;grouped_m -->
<g id="edge7" class="edge">
<title>choose&#45;&gt;grouped_m</title>
<path fill="none" stroke="#2196f3" stroke-width="1.5" d="M346.45,-487.06C346.45,-487.06 346.45,-412.83 346.45,-412.83"/>
<polygon fill="#2196f3" stroke="#2196f3" stroke-width="1.5" points="349.95,-412.83 346.45,-402.83 342.95,-412.83 349.95,-412.83"/>
<text xml:space="preserve" text-anchor="middle" x="397.5" y="-432.45" font-family="Times New Roman,serif" font-size="14.00">MoE Dec</text>
</g>
<!-- mega -->
<g id="node9" class="node">
<title>mega</title>
<path fill="#2196f3" stroke="black" d="M626.88,-400.25C626.88,-400.25 514.88,-400.25 514.88,-400.25 508.88,-400.25 502.88,-394.25 502.88,-388.25 502.88,-388.25 502.88,-361.5 502.88,-361.5 502.88,-355.5 508.88,-349.5 514.88,-349.5 514.88,-349.5 626.88,-349.5 626.88,-349.5 632.88,-349.5 638.88,-355.5 638.88,-361.5 638.88,-361.5 638.88,-388.25 638.88,-388.25 638.88,-394.25 632.88,-400.25 626.88,-400.25"/>
<text xml:space="preserve" text-anchor="middle" x="570.88" y="-384.85" font-family="Arial Bold" font-size="12.00" fill="white">Mega MoE</text>
<text xml:space="preserve" text-anchor="middle" x="570.88" y="-370.6" font-family="Arial Bold" font-size="12.00" fill="white">fp8_fp4_mega_moe</text>
<text xml:space="preserve" text-anchor="middle" x="570.88" y="-356.35" font-family="Arial Bold" font-size="12.00" fill="white">Fused EP + Compute</text>
</g>
<!-- choose&#45;&gt;mega -->
<g id="edge8" class="edge">
<title>choose&#45;&gt;mega</title>
<path fill="none" stroke="#2196f3" stroke-width="1.5" d="M375.44,-493C460.67,-493 570.88,-493 570.88,-493 570.88,-493 570.88,-412.78 570.88,-412.78"/>
<polygon fill="#2196f3" stroke="#2196f3" stroke-width="1.5" points="574.38,-412.78 570.88,-402.78 567.38,-412.78 574.38,-412.78"/>
<text xml:space="preserve" text-anchor="middle" x="560.38" y="-432.45" font-family="Times New Roman,serif" font-size="14.00">Mega MoE</text>
</g>
<!-- jit -->
<g id="node10" class="node">
<title>jit</title>
<path fill="#ff9800" stroke="black" d="M348.38,-290.5C348.38,-290.5 251.38,-290.5 251.38,-290.5 245.38,-290.5 239.38,-284.5 239.38,-278.5 239.38,-278.5 239.38,-240.5 239.38,-240.5 239.38,-234.5 245.38,-228.5 251.38,-228.5 251.38,-228.5 348.38,-228.5 348.38,-228.5 354.38,-228.5 360.38,-234.5 360.38,-240.5 360.38,-240.5 360.38,-278.5 360.38,-278.5 360.38,-284.5 354.38,-290.5 348.38,-290.5"/>
<text xml:space="preserve" text-anchor="middle" x="299.88" y="-276.05" font-family="Arial" font-size="11.00" fill="white">Step 5: JIT Compile</text>
<text xml:space="preserve" text-anchor="middle" x="299.88" y="-262.55" font-family="Arial" font-size="11.00" fill="white">Runtime Kernel Build</text>
<text xml:space="preserve" text-anchor="middle" x="299.88" y="-249.05" font-family="Arial" font-size="11.00" fill="white">Auto&#45;Config Selection</text>
<text xml:space="preserve" text-anchor="middle" x="299.88" y="-235.55" font-family="Arial" font-size="11.00" fill="white">Cached for Reuse</text>
</g>
<!-- dense&#45;&gt;jit -->
<g id="edge9" class="edge">
<title>dense&#45;&gt;jit</title>
<path fill="none" stroke="#ff9800" stroke-width="2" d="M48.88,-349.09C48.88,-315.23 48.88,-260 48.88,-260 48.88,-260 226.09,-260 226.09,-260"/>
<polygon fill="#ff9800" stroke="#ff9800" stroke-width="2" points="226.09,-263.5 236.09,-260 226.09,-256.5 226.09,-263.5"/>
</g>
<!-- grouped_c&#45;&gt;jit -->
<g id="edge10" class="edge">
<title>grouped_c&#45;&gt;jit</title>
<path fill="none" stroke="#ff9800" stroke-width="2" d="M260.81,-349.27C260.81,-349.27 260.81,-303.82 260.81,-303.82"/>
<polygon fill="#ff9800" stroke="#ff9800" stroke-width="2" points="264.31,-303.82 260.81,-293.82 257.31,-303.82 264.31,-303.82"/>
</g>
<!-- grouped_m&#45;&gt;jit -->
<g id="edge11" class="edge">
<title>grouped_m&#45;&gt;jit</title>
<path fill="none" stroke="#ff9800" stroke-width="2" d="M339.44,-349.27C339.44,-349.27 339.44,-303.82 339.44,-303.82"/>
<polygon fill="#ff9800" stroke="#ff9800" stroke-width="2" points="342.94,-303.82 339.44,-293.82 335.94,-303.82 342.94,-303.82"/>
</g>
<!-- mega&#45;&gt;jit -->
<g id="edge12" class="edge">
<title>mega&#45;&gt;jit</title>
<path fill="none" stroke="#ff9800" stroke-width="2" d="M570.88,-349.09C570.88,-315.23 570.88,-260 570.88,-260 570.88,-260 373.72,-260 373.72,-260"/>
<polygon fill="#ff9800" stroke="#ff9800" stroke-width="2" points="373.72,-256.5 363.72,-260 373.72,-263.5 373.72,-256.5"/>
</g>
<!-- execute -->
<g id="node11" class="node">
<title>execute</title>
<path fill="#9c27b0" stroke="black" d="M349.12,-169.5C349.12,-169.5 250.62,-169.5 250.62,-169.5 244.62,-169.5 238.62,-163.5 238.62,-157.5 238.62,-157.5 238.62,-119.5 238.62,-119.5 238.62,-113.5 244.62,-107.5 250.62,-107.5 250.62,-107.5 349.12,-107.5 349.12,-107.5 355.12,-107.5 361.12,-113.5 361.12,-119.5 361.12,-119.5 361.12,-157.5 361.12,-157.5 361.12,-163.5 355.12,-169.5 349.12,-169.5"/>
<text xml:space="preserve" text-anchor="middle" x="299.88" y="-155.05" font-family="Arial" font-size="11.00" fill="white">Step 6: Execute</text>
<text xml:space="preserve" text-anchor="middle" x="299.88" y="-141.55" font-family="Arial" font-size="11.00" fill="white">Tensor Core Compute</text>
<text xml:space="preserve" text-anchor="middle" x="299.88" y="-128.05" font-family="Arial" font-size="11.00" fill="white">Fine&#45;Grained Scaling</text>
<text xml:space="preserve" text-anchor="middle" x="299.88" y="-114.55" font-family="Arial" font-size="11.00" fill="white">Async TMA Loads</text>
</g>
<!-- jit&#45;&gt;execute -->
<g id="edge13" class="edge">
<title>jit&#45;&gt;execute</title>
<path fill="none" stroke="#9c27b0" stroke-width="2" d="M299.88,-228.02C299.88,-228.02 299.88,-182.84 299.88,-182.84"/>
<polygon fill="#9c27b0" stroke="#9c27b0" stroke-width="2" points="303.38,-182.84 299.88,-172.84 296.38,-182.84 303.38,-182.84"/>
</g>
<!-- output -->
<g id="node12" class="node">
<title>output</title>
<polygon fill="#f44336" stroke="black" points="359.25,-48.5 240.5,-48.5 240.5,0 359.25,0 359.25,-48.5"/>
<text xml:space="preserve" text-anchor="middle" x="299.88" y="-34.05" font-family="Arial" font-size="11.00" fill="white">Step 7: Output</text>
<text xml:space="preserve" text-anchor="middle" x="299.88" y="-20.55" font-family="Arial" font-size="11.00" fill="white">BF16 / FP32 Result</text>
<text xml:space="preserve" text-anchor="middle" x="299.88" y="-7.05" font-family="Arial" font-size="11.00" fill="white">Ready for Next Layer</text>
</g>
<!-- execute&#45;&gt;output -->
<g id="edge14" class="edge">
<title>execute&#45;&gt;output</title>
<path fill="none" stroke="#f44336" stroke-width="2" d="M299.88,-107.28C299.88,-107.28 299.88,-61.94 299.88,-61.94"/>
<polygon fill="#f44336" stroke="#f44336" stroke-width="2" points="303.38,-61.94 299.88,-51.94 296.38,-61.94 303.38,-61.94"/>
</g>
</g>
</svg>
