<?xml version="1.0" encoding="UTF-8" standalone="no"?>
<!DOCTYPE svg PUBLIC "-//W3C//DTD SVG 1.1//EN"
 "http://www.w3.org/Graphics/SVG/1.1/DTD/svg11.dtd">
<!-- Generated by graphviz version 14.1.2 (0)
 -->
<!-- Title: G Pages: 1 -->
<svg width="264pt" height="678pt"
 viewBox="0.00 0.00 264.00 678.00" xmlns="http://www.w3.org/2000/svg" xmlns:xlink="http://www.w3.org/1999/xlink">
<g id="graph0" class="graph" transform="scale(1 1) rotate(0) translate(4 674.25)">
<title>G</title>
<!-- input -->
<g id="node1" class="node">
<title>input</title>
<path fill="#4a90d9" stroke="black" d="M170.38,-670.25C170.38,-670.25 50.88,-670.25 50.88,-670.25 44.88,-670.25 38.88,-664.25 38.88,-658.25 38.88,-658.25 38.88,-642.75 38.88,-642.75 38.88,-636.75 44.88,-630.75 50.88,-630.75 50.88,-630.75 170.38,-630.75 170.38,-630.75 176.38,-630.75 182.38,-636.75 182.38,-642.75 182.38,-642.75 182.38,-658.25 182.38,-658.25 182.38,-664.25 176.38,-670.25 170.38,-670.25"/>
<text xml:space="preserve" text-anchor="middle" x="110.62" y="-654.85" font-family="Helvetica Bold" font-size="12.00" fill="white">Input</text>
<text xml:space="preserve" text-anchor="middle" x="110.62" y="-639.1" font-family="Helvetica Bold" font-size="12.00" fill="white">Name / Topic / Need</text>
</g>
<!-- phase0 -->
<g id="node2" class="node">
<title>phase0</title>
<path fill="#7b68ee" stroke="black" d="M143.75,-593.75C143.75,-593.75 77.5,-593.75 77.5,-593.75 71.5,-593.75 65.5,-587.75 65.5,-581.75 65.5,-581.75 65.5,-569.25 65.5,-569.25 65.5,-563.25 71.5,-557.25 77.5,-557.25 77.5,-557.25 143.75,-557.25 143.75,-557.25 149.75,-557.25 155.75,-563.25 155.75,-569.25 155.75,-569.25 155.75,-581.75 155.75,-581.75 155.75,-587.75 149.75,-593.75 143.75,-593.75"/>
<text xml:space="preserve" text-anchor="middle" x="110.62" y="-579.3" font-family="Helvetica Bold" font-size="11.00" fill="white">Phase 0</text>
<text xml:space="preserve" text-anchor="middle" x="110.62" y="-565.05" font-family="Helvetica Bold" font-size="11.00" fill="white">Entry Routing</text>
</g>
<!-- input&#45;&gt;phase0 -->
<g id="edge1" class="edge">
<title>input&#45;&gt;phase0</title>
<path fill="none" stroke="#555555" stroke-width="1.5" d="M110.62,-630.4C110.62,-630.4 110.62,-606.38 110.62,-606.38"/>
<polygon fill="#555555" stroke="#555555" stroke-width="1.5" points="114.13,-606.38 110.63,-596.38 107.13,-606.38 114.13,-606.38"/>
</g>
<!-- direct -->
<g id="node3" class="node">
<title>direct</title>
<path fill="#9b89b3" stroke="black" d="M90.62,-520.25C90.62,-520.25 32.62,-520.25 32.62,-520.25 26.62,-520.25 20.62,-514.25 20.62,-508.25 20.62,-508.25 20.62,-496.25 20.62,-496.25 20.62,-490.25 26.62,-484.25 32.62,-484.25 32.62,-484.25 90.62,-484.25 90.62,-484.25 96.62,-484.25 102.62,-490.25 102.62,-496.25 102.62,-496.25 102.62,-508.25 102.62,-508.25 102.62,-514.25 96.62,-520.25 90.62,-520.25"/>
<text xml:space="preserve" text-anchor="middle" x="61.62" y="-504" font-family="Times New Roman,serif" font-size="10.00" fill="white">Direct Path</text>
<text xml:space="preserve" text-anchor="middle" x="61.62" y="-492.75" font-family="Times New Roman,serif" font-size="10.00" fill="white">(Known Person)</text>
</g>
<!-- phase0&#45;&gt;direct -->
<g id="edge2" class="edge">
<title>phase0&#45;&gt;direct</title>
<path fill="none" stroke="#555555" stroke-width="1.5" d="M84.06,-557.02C84.06,-557.02 84.06,-533 84.06,-533"/>
<polygon fill="#555555" stroke="#555555" stroke-width="1.5" points="87.56,-533 84.06,-523 80.56,-533 87.56,-533"/>
</g>
<!-- diagnostic -->
<g id="node4" class="node">
<title>diagnostic</title>
<path fill="#9b89b3" stroke="black" d="M190.25,-520.25C190.25,-520.25 133,-520.25 133,-520.25 127,-520.25 121,-514.25 121,-508.25 121,-508.25 121,-496.25 121,-496.25 121,-490.25 127,-484.25 133,-484.25 133,-484.25 190.25,-484.25 190.25,-484.25 196.25,-484.25 202.25,-490.25 202.25,-496.25 202.25,-496.25 202.25,-508.25 202.25,-508.25 202.25,-514.25 196.25,-520.25 190.25,-520.25"/>
<text xml:space="preserve" text-anchor="middle" x="161.62" y="-504" font-family="Times New Roman,serif" font-size="10.00" fill="white">Diagnostic Path</text>
<text xml:space="preserve" text-anchor="middle" x="161.62" y="-492.75" font-family="Times New Roman,serif" font-size="10.00" fill="white">(Vague Need)</text>
</g>
<!-- phase0&#45;&gt;diagnostic -->
<g id="edge3" class="edge">
<title>phase0&#45;&gt;diagnostic</title>
<path fill="none" stroke="#555555" stroke-width="1.5" d="M138.38,-557.02C138.38,-557.02 138.38,-533 138.38,-533"/>
<polygon fill="#555555" stroke="#555555" stroke-width="1.5" points="141.88,-533 138.38,-523 134.88,-533 141.88,-533"/>
</g>
<!-- phase1 -->
<g id="node5" class="node">
<title>phase1</title>
<path fill="#e8743b" stroke="black" d="M186.5,-447.25C186.5,-447.25 34.75,-447.25 34.75,-447.25 28.75,-447.25 22.75,-441.25 22.75,-435.25 22.75,-435.25 22.75,-419.75 22.75,-419.75 22.75,-413.75 28.75,-407.75 34.75,-407.75 34.75,-407.75 186.5,-407.75 186.5,-407.75 192.5,-407.75 198.5,-413.75 198.5,-419.75 198.5,-419.75 198.5,-435.25 198.5,-435.25 198.5,-441.25 192.5,-447.25 186.5,-447.25"/>
<text xml:space="preserve" text-anchor="middle" x="110.62" y="-431.85" font-family="Helvetica Bold" font-size="12.00" fill="white">Phase 1</text>
<text xml:space="preserve" text-anchor="middle" x="110.62" y="-416.1" font-family="Helvetica Bold" font-size="12.00" fill="white">6&#45;Agent Parallel Research</text>
</g>
<!-- direct&#45;&gt;phase1 -->
<g id="edge4" class="edge">
<title>direct&#45;&gt;phase1</title>
<path fill="none" stroke="#555555" stroke-width="1.5" d="M62.69,-483.77C62.69,-483.77 62.69,-459.87 62.69,-459.87"/>
<polygon fill="#555555" stroke="#555555" stroke-width="1.5" points="66.19,-459.87 62.69,-449.87 59.19,-459.87 66.19,-459.87"/>
</g>
<!-- diagnostic&#45;&gt;phase1 -->
<g id="edge5" class="edge">
<title>diagnostic&#45;&gt;phase1</title>
<path fill="none" stroke="#555555" stroke-width="1.5" d="M159.75,-483.77C159.75,-483.77 159.75,-459.87 159.75,-459.87"/>
<polygon fill="#555555" stroke="#555555" stroke-width="1.5" points="163.25,-459.87 159.75,-449.87 156.25,-459.87 163.25,-459.87"/>
</g>
<!-- phase2 -->
<g id="node6" class="node">
<title>phase2</title>
<path fill="#f39c12" stroke="black" d="M162.12,-370.75C162.12,-370.75 59.12,-370.75 59.12,-370.75 53.12,-370.75 47.12,-364.75 47.12,-358.75 47.12,-358.75 47.12,-327.5 47.12,-327.5 47.12,-321.5 53.12,-315.5 59.12,-315.5 59.12,-315.5 162.12,-315.5 162.12,-315.5 168.12,-315.5 174.12,-321.5 174.12,-327.5 174.12,-327.5 174.12,-358.75 174.12,-358.75 174.12,-364.75 168.12,-370.75 162.12,-370.75"/>
<text xml:space="preserve" text-anchor="middle" x="110.62" y="-355.35" font-family="Helvetica Bold" font-size="12.00" fill="white">Phase 2</text>
<text xml:space="preserve" text-anchor="middle" x="110.62" y="-339.6" font-family="Helvetica Bold" font-size="12.00" fill="white">Triple&#45;Verification</text>
<text xml:space="preserve" text-anchor="middle" x="110.62" y="-323.85" font-family="Helvetica Bold" font-size="12.00" fill="white">Extraction</text>
</g>
<!-- phase1&#45;&gt;phase2 -->
<g id="edge6" class="edge">
<title>phase1&#45;&gt;phase2</title>
<path fill="none" stroke="#555555" stroke-width="1.5" d="M110.62,-407.5C110.62,-407.5 110.62,-383.23 110.62,-383.23"/>
<polygon fill="#555555" stroke="#555555" stroke-width="1.5" points="114.13,-383.23 110.63,-373.23 107.13,-383.23 114.13,-383.23"/>
</g>
<!-- phase3 -->
<g id="node7" class="node">
<title>phase3</title>
<path fill="#7b68ee" stroke="black" d="M111.25,-278.5C111.25,-278.5 12,-278.5 12,-278.5 6,-278.5 0,-272.5 0,-266.5 0,-266.5 0,-251 0,-251 0,-245 6,-239 12,-239 12,-239 111.25,-239 111.25,-239 117.25,-239 123.25,-245 123.25,-251 123.25,-251 123.25,-266.5 123.25,-266.5 123.25,-272.5 117.25,-278.5 111.25,-278.5"/>
<text xml:space="preserve" text-anchor="middle" x="61.62" y="-263.1" font-family="Helvetica Bold" font-size="12.00" fill="white">Phase 3</text>
<text xml:space="preserve" text-anchor="middle" x="61.62" y="-247.35" font-family="Helvetica Bold" font-size="12.00" fill="white">Skill Construction</text>
</g>
<!-- phase2&#45;&gt;phase3 -->
<g id="edge7" class="edge">
<title>phase2&#45;&gt;phase3</title>
<path fill="none" stroke="#555555" stroke-width="1.5" d="M85.19,-315.03C85.19,-315.03 85.19,-291.26 85.19,-291.26"/>
<polygon fill="#555555" stroke="#555555" stroke-width="1.5" points="88.69,-291.26 85.19,-281.26 81.69,-291.26 88.69,-291.26"/>
</g>
<!-- phase4 -->
<g id="node8" class="node">
<title>phase4</title>
<path fill="#f39c12" stroke="black" d="M161.38,-202C161.38,-202 59.88,-202 59.88,-202 53.88,-202 47.88,-196 47.88,-190 47.88,-190 47.88,-174.5 47.88,-174.5 47.88,-168.5 53.88,-162.5 59.88,-162.5 59.88,-162.5 161.38,-162.5 161.38,-162.5 167.38,-162.5 173.38,-168.5 173.38,-174.5 173.38,-174.5 173.38,-190 173.38,-190 173.38,-196 167.38,-202 161.38,-202"/>
<text xml:space="preserve" text-anchor="middle" x="110.62" y="-186.6" font-family="Helvetica Bold" font-size="12.00" fill="white">Phase 4</text>
<text xml:space="preserve" text-anchor="middle" x="110.62" y="-170.85" font-family="Helvetica Bold" font-size="12.00" fill="white">Quality Validation</text>
</g>
<!-- phase3&#45;&gt;phase4 -->
<g id="edge8" class="edge">
<title>phase3&#45;&gt;phase4</title>
<path fill="none" stroke="#555555" stroke-width="1.5" d="M85.56,-238.65C85.56,-238.65 85.56,-214.75 85.56,-214.75"/>
<polygon fill="#555555" stroke="#555555" stroke-width="1.5" points="89.06,-214.75 85.56,-204.75 82.06,-214.75 89.06,-214.75"/>
</g>
<!-- phase4&#45;&gt;phase2 -->
<g id="edge10" class="edge">
<title>phase4&#45;&gt;phase2</title>
<path fill="none" stroke="#e74c3c" stroke-width="1.5" stroke-dasharray="5,2" d="M148.31,-202.3C148.31,-202.3 148.31,-302.98 148.31,-302.98"/>
<polygon fill="#e74c3c" stroke="#e74c3c" stroke-width="1.5" points="144.81,-302.98 148.31,-312.98 151.81,-302.98 144.81,-302.98"/>
<text xml:space="preserve" text-anchor="middle" x="185.88" y="-255.45" font-family="Times New Roman,serif" font-size="9.00" fill="#e74c3c"> &#160;Fail (max 2x)</text>
</g>
<!-- phase5 -->
<g id="node9" class="node">
<title>phase5</title>
<path fill="#7b68ee" stroke="black" d="M234.62,-116C234.62,-116 98.62,-116 98.62,-116 92.62,-116 86.62,-110 86.62,-104 86.62,-104 86.62,-88.5 86.62,-88.5 86.62,-82.5 92.62,-76.5 98.62,-76.5 98.62,-76.5 234.62,-76.5 234.62,-76.5 240.62,-76.5 246.62,-82.5 246.62,-88.5 246.62,-88.5 246.62,-104 246.62,-104 246.62,-110 240.62,-116 234.62,-116"/>
<text xml:space="preserve" text-anchor="middle" x="166.62" y="-100.6" font-family="Helvetica Bold" font-size="12.00" fill="white">Phase 5</text>
<text xml:space="preserve" text-anchor="middle" x="166.62" y="-84.85" font-family="Helvetica Bold" font-size="12.00" fill="white">Dual&#45;Agent Refinement</text>
</g>
<!-- phase4&#45;&gt;phase5 -->
<g id="edge9" class="edge">
<title>phase4&#45;&gt;phase5</title>
<path fill="none" stroke="#555555" stroke-width="1.5" d="M130,-162.3C130,-162.3 130,-128.66 130,-128.66"/>
<polygon fill="#555555" stroke="#555555" stroke-width="1.5" points="133.5,-128.66 130,-118.66 126.5,-128.66 133.5,-128.66"/>
<text xml:space="preserve" text-anchor="middle" x="155.12" y="-135.95" font-family="Times New Roman,serif" font-size="9.00" fill="#2ecc71"> &#160;Pass</text>
</g>
<!-- output -->
<g id="node10" class="node">
<title>output</title>
<path fill="#2ecc71" stroke="black" d="M213.25,-39.5C213.25,-39.5 120,-39.5 120,-39.5 114,-39.5 108,-33.5 108,-27.5 108,-27.5 108,-12 108,-12 108,-6 114,0 120,0 120,0 213.25,0 213.25,0 219.25,0 225.25,-6 225.25,-12 225.25,-12 225.25,-27.5 225.25,-27.5 225.25,-33.5 219.25,-39.5 213.25,-39.5"/>
<text xml:space="preserve" text-anchor="middle" x="166.62" y="-24.1" font-family="Helvetica Bold" font-size="12.00" fill="white">Runnable</text>
<text xml:space="preserve" text-anchor="middle" x="166.62" y="-8.35" font-family="Helvetica Bold" font-size="12.00" fill="white">Perspective Skill</text>
</g>
<!-- phase5&#45;&gt;output -->
<g id="edge11" class="edge">
<title>phase5&#45;&gt;output</title>
<path fill="none" stroke="#555555" stroke-width="1.5" d="M166.62,-76.15C166.62,-76.15 166.62,-52.25 166.62,-52.25"/>
<polygon fill="#555555" stroke="#555555" stroke-width="1.5" points="170.13,-52.25 166.63,-42.25 163.13,-52.25 170.13,-52.25"/>
</g>
<!-- darwin -->
<g id="node11" class="node">
<title>darwin</title>
<path fill="#f8f9fa" stroke="black" stroke-dasharray="5,2" d="M239.75,-200.25C239.75,-200.25 203.5,-200.25 203.5,-200.25 197.5,-200.25 191.5,-194.25 191.5,-188.25 191.5,-188.25 191.5,-176.25 191.5,-176.25 191.5,-170.25 197.5,-164.25 203.5,-164.25 203.5,-164.25 239.75,-164.25 239.75,-164.25 245.75,-164.25 251.75,-170.25 251.75,-176.25 251.75,-176.25 251.75,-188.25 251.75,-188.25 251.75,-194.25 245.75,-200.25 239.75,-200.25"/>
<text xml:space="preserve" text-anchor="middle" x="221.62" y="-184.2" font-family="Times New Roman,serif" font-size="9.00" fill="#666666">Darwin.skill</text>
<text xml:space="preserve" text-anchor="middle" x="221.62" y="-173.7" font-family="Times New Roman,serif" font-size="9.00" fill="#666666">(Evolution)</text>
</g>
<!-- darwin&#45;&gt;phase5 -->
<g id="edge12" class="edge">
<title>darwin&#45;&gt;phase5</title>
<path fill="none" stroke="#999999" stroke-dasharray="5,2" d="M219.06,-164.01C219.06,-164.01 219.06,-127.78 219.06,-127.78"/>
<polygon fill="#999999" stroke="#999999" points="222.56,-127.78 219.06,-117.78 215.56,-127.78 222.56,-127.78"/>
<text xml:space="preserve" text-anchor="middle" x="238.88" y="-136.53" font-family="Times New Roman,serif" font-size="8.00" fill="#999999"> &#160;evaluates</text>
</g>
</g>
</svg>
