<?xml version="1.0" encoding="UTF-8" standalone="no"?>
<!DOCTYPE svg PUBLIC "-//W3C//DTD SVG 1.1//EN"
 "http://www.w3.org/Graphics/SVG/1.1/DTD/svg11.dtd">
<!-- Generated by graphviz version 14.1.4 (20260321.0153)
 -->
<!-- Title: swift_types Pages: 1 -->
<svg width="652pt" height="309pt"
 viewBox="0.00 0.00 652.00 309.00" xmlns="http://www.w3.org/2000/svg" xmlns:xlink="http://www.w3.org/1999/xlink">
<style>
text { paint-order: stroke; stroke: #ffffff; stroke-width: 3px; stroke-linejoin: round; fill: #1a1a2e; }
</style>
<g id="graph0" class="graph" transform="scale(1 1) rotate(0) translate(4 304.5)">
<title>swift_types</title>
<polygon fill="white" stroke="none" points="-4,4 -4,-304.5 647.5,-304.5 647.5,4 -4,4"/>
<text xml:space="preserve" text-anchor="middle" x="321.75" y="-7.2" font-family="Times New Roman,serif" font-size="14.00">Swift Type System &#45; Struct, Enum, Class, Optional</text>
<!-- title -->
<g id="node1" class="node">
<title>title</title>
<path fill="#1565c0" stroke="black" d="M413.12,-300.5C413.12,-300.5 301.12,-300.5 301.12,-300.5 295.12,-300.5 289.12,-294.5 289.12,-288.5 289.12,-288.5 289.12,-276.5 289.12,-276.5 289.12,-270.5 295.12,-264.5 301.12,-264.5 301.12,-264.5 413.12,-264.5 413.12,-264.5 419.12,-264.5 425.12,-270.5 425.12,-276.5 425.12,-276.5 425.12,-288.5 425.12,-288.5 425.12,-294.5 419.12,-300.5 413.12,-300.5"/>
<text xml:space="preserve" text-anchor="middle" x="357.12" y="-277.07" font-family="Arial Bold" font-size="14.00" fill="#ffffff">Swift Type System</text>
</g>
<!-- st -->
<g id="node2" class="node">
<title>st</title>
<path fill="#2196f3" stroke="black" d="M150.25,-206.5C150.25,-206.5 12,-206.5 12,-206.5 6,-206.5 0,-200.5 0,-194.5 0,-194.5 0,-156.5 0,-156.5 0,-150.5 6,-144.5 12,-144.5 12,-144.5 150.25,-144.5 150.25,-144.5 156.25,-144.5 162.25,-150.5 162.25,-156.5 162.25,-156.5 162.25,-194.5 162.25,-194.5 162.25,-200.5 156.25,-206.5 150.25,-206.5"/>
<text xml:space="preserve" text-anchor="middle" x="81.12" y="-192.05" font-family="Arial Bold" font-size="11.00" fill="#ffffff">struct</text>
<text xml:space="preserve" text-anchor="middle" x="81.12" y="-178.55" font-family="Arial Bold" font-size="11.00" fill="#ffffff">value type (copied)</text>
<text xml:space="preserve" text-anchor="middle" x="81.12" y="-165.05" font-family="Arial Bold" font-size="11.00" fill="#ffffff">memberwise init auto</text>
<text xml:space="preserve" text-anchor="middle" x="81.12" y="-151.55" font-family="Arial Bold" font-size="11.00" fill="#ffffff">stored/computed properties</text>
</g>
<!-- title&#45;&gt;st -->
<g id="edge1" class="edge">
<title>title&#45;&gt;st</title>
<path fill="none" stroke="#4caf50" stroke-width="2" d="M288.9,-282.5C207.17,-282.5 81.12,-282.5 81.12,-282.5 81.12,-282.5 81.12,-219.76 81.12,-219.76"/>
<polygon fill="#4caf50" stroke="#4caf50" stroke-width="2" points="84.63,-219.76 81.13,-209.76 77.63,-219.76 84.63,-219.76"/>
</g>
<!-- en -->
<g id="node3" class="node">
<title>en</title>
<path fill="#2196f3" stroke="black" d="M331.62,-206.5C331.62,-206.5 210.62,-206.5 210.62,-206.5 204.62,-206.5 198.62,-200.5 198.62,-194.5 198.62,-194.5 198.62,-156.5 198.62,-156.5 198.62,-150.5 204.62,-144.5 210.62,-144.5 210.62,-144.5 331.62,-144.5 331.62,-144.5 337.62,-144.5 343.62,-150.5 343.62,-156.5 343.62,-156.5 343.62,-194.5 343.62,-194.5 343.62,-200.5 337.62,-206.5 331.62,-206.5"/>
<text xml:space="preserve" text-anchor="middle" x="271.12" y="-192.05" font-family="Arial Bold" font-size="11.00" fill="#ffffff">enum</text>
<text xml:space="preserve" text-anchor="middle" x="271.12" y="-178.55" font-family="Arial Bold" font-size="11.00" fill="#ffffff">value type, first&#45;class</text>
<text xml:space="preserve" text-anchor="middle" x="271.12" y="-165.05" font-family="Arial Bold" font-size="11.00" fill="#ffffff">associated values</text>
<text xml:space="preserve" text-anchor="middle" x="271.12" y="-151.55" font-family="Arial Bold" font-size="11.00" fill="#ffffff">can have methods/props</text>
</g>
<!-- title&#45;&gt;en -->
<g id="edge2" class="edge">
<title>title&#45;&gt;en</title>
<path fill="none" stroke="#00bcd4" stroke-width="2" d="M316.38,-264.35C316.38,-264.35 316.38,-219.79 316.38,-219.79"/>
<polygon fill="#00bcd4" stroke="#00bcd4" stroke-width="2" points="319.88,-219.79 316.38,-209.79 312.88,-219.79 319.88,-219.79"/>
</g>
<!-- cls -->
<g id="node4" class="node">
<title>cls</title>
<path fill="#2196f3" stroke="black" d="M494.62,-206.5C494.62,-206.5 391.62,-206.5 391.62,-206.5 385.62,-206.5 379.62,-200.5 379.62,-194.5 379.62,-194.5 379.62,-156.5 379.62,-156.5 379.62,-150.5 385.62,-144.5 391.62,-144.5 391.62,-144.5 494.62,-144.5 494.62,-144.5 500.62,-144.5 506.62,-150.5 506.62,-156.5 506.62,-156.5 506.62,-194.5 506.62,-194.5 506.62,-200.5 500.62,-206.5 494.62,-206.5"/>
<text xml:space="preserve" text-anchor="middle" x="443.12" y="-192.05" font-family="Arial Bold" font-size="11.00" fill="#ffffff">class</text>
<text xml:space="preserve" text-anchor="middle" x="443.12" y="-178.55" font-family="Arial Bold" font-size="11.00" fill="#ffffff">reference type (heap)</text>
<text xml:space="preserve" text-anchor="middle" x="443.12" y="-165.05" font-family="Arial Bold" font-size="11.00" fill="#ffffff">ARC ref counting</text>
<text xml:space="preserve" text-anchor="middle" x="443.12" y="-151.55" font-family="Arial Bold" font-size="11.00" fill="#ffffff">inheritance, deinit</text>
</g>
<!-- title&#45;&gt;cls -->
<g id="edge3" class="edge">
<title>title&#45;&gt;cls</title>
<path fill="none" stroke="#ff9800" stroke-width="2" d="M402.38,-264.35C402.38,-264.35 402.38,-219.79 402.38,-219.79"/>
<polygon fill="#ff9800" stroke="#ff9800" stroke-width="2" points="405.88,-219.79 402.38,-209.79 398.88,-219.79 405.88,-219.79"/>
</g>
<!-- opt -->
<g id="node5" class="node">
<title>opt</title>
<path fill="#2196f3" stroke="black" d="M631.5,-206.5C631.5,-206.5 554.75,-206.5 554.75,-206.5 548.75,-206.5 542.75,-200.5 542.75,-194.5 542.75,-194.5 542.75,-156.5 542.75,-156.5 542.75,-150.5 548.75,-144.5 554.75,-144.5 554.75,-144.5 631.5,-144.5 631.5,-144.5 637.5,-144.5 643.5,-150.5 643.5,-156.5 643.5,-156.5 643.5,-194.5 643.5,-194.5 643.5,-200.5 637.5,-206.5 631.5,-206.5"/>
<text xml:space="preserve" text-anchor="middle" x="593.12" y="-192.05" font-family="Arial Bold" font-size="11.00" fill="#ffffff">Optional&lt;T&gt;</text>
<text xml:space="preserve" text-anchor="middle" x="593.12" y="-178.55" font-family="Arial Bold" font-size="11.00" fill="#ffffff">value&#45;or&#45;nil, ?</text>
<text xml:space="preserve" text-anchor="middle" x="593.12" y="-165.05" font-family="Arial Bold" font-size="11.00" fill="#ffffff">if let binding, ??</text>
<text xml:space="preserve" text-anchor="middle" x="593.12" y="-151.55" font-family="Arial Bold" font-size="11.00" fill="#ffffff">guard let, try?</text>
</g>
<!-- title&#45;&gt;opt -->
<g id="edge4" class="edge">
<title>title&#45;&gt;opt</title>
<path fill="none" stroke="#9c27b0" stroke-width="2" d="M425.39,-282.5C495.09,-282.5 593.12,-282.5 593.12,-282.5 593.12,-282.5 593.12,-219.76 593.12,-219.76"/>
<polygon fill="#9c27b0" stroke="#9c27b0" stroke-width="2" points="596.63,-219.76 593.13,-209.76 589.63,-219.76 596.63,-219.76"/>
</g>
<!-- val -->
<g id="node6" class="node">
<title>val</title>
<polygon fill="#ff9800" stroke="black" points="241.88,-86.5 110.38,-86.5 110.38,-24.5 241.88,-24.5 241.88,-86.5"/>
<text xml:space="preserve" text-anchor="middle" x="176.12" y="-72.05" font-family="Arial" font-size="11.00" fill="#ffffff">Value semantics</text>
<text xml:space="preserve" text-anchor="middle" x="176.12" y="-58.55" font-family="Arial" font-size="11.00" fill="#ffffff">struct + Copy&#45;on&#45;Write</text>
<text xml:space="preserve" text-anchor="middle" x="176.12" y="-45.05" font-family="Arial" font-size="11.00" fill="#ffffff">no shared mutable state</text>
<text xml:space="preserve" text-anchor="middle" x="176.12" y="-31.55" font-family="Arial" font-size="11.00" fill="#ffffff">preferred by default</text>
</g>
<!-- st&#45;&gt;val -->
<g id="edge5" class="edge">
<title>st&#45;&gt;val</title>
<path fill="none" stroke="#4caf50" stroke-width="2" d="M136.31,-144.28C136.31,-144.28 136.31,-100 136.31,-100"/>
<polygon fill="#4caf50" stroke="#4caf50" stroke-width="2" points="139.81,-100 136.31,-90 132.81,-100 139.81,-100"/>
</g>
<!-- en&#45;&gt;val -->
<g id="edge6" class="edge">
<title>en&#45;&gt;val</title>
<path fill="none" stroke="#00bcd4" stroke-width="2" d="M220.25,-144.28C220.25,-144.28 220.25,-100 220.25,-100"/>
<polygon fill="#00bcd4" stroke="#00bcd4" stroke-width="2" points="223.75,-100 220.25,-90 216.75,-100 223.75,-100"/>
</g>
</g>
</svg>
