<?xml version="1.0" encoding="UTF-8" standalone="no"?>
<!DOCTYPE svg PUBLIC "-//W3C//DTD SVG 1.1//EN"
 "http://www.w3.org/Graphics/SVG/1.1/DTD/svg11.dtd">
<!-- Generated by graphviz version 14.1.2 (0)
 -->
<!-- Title: architecture Pages: 1 -->
<svg width="765pt" height="466pt"
 viewBox="0.00 0.00 765.00 466.00" xmlns="http://www.w3.org/2000/svg" xmlns:xlink="http://www.w3.org/1999/xlink">
<style>
<!-- White text halo for edge label readability -->
text { paint-order: stroke; stroke: #ffffff; stroke-width: 3px; stroke-linejoin: round; fill: #1a1a2e; }
</style>
<g id="graph0" class="graph" transform="scale(1 1) rotate(0) translate(4 462)">
<title>architecture</title>
<polygon fill="white" stroke="none" points="-4,4 -4,-462 761.12,-462 761.12,4 -4,4"/>
<text xml:space="preserve" text-anchor="middle" x="378.56" y="-7.2" font-family="Times New Roman,serif" font-size="14.00">MoneyPrinterTurbo &#45; Architecture Overview</text>
<!-- user -->
<g id="node1" class="node">
<title>user</title>
<polygon fill="#4caf50" stroke="black" points="451.38,-458 337.12,-458 337.12,-422 451.38,-422 451.38,-458"/>
<text xml:space="preserve" text-anchor="middle" x="394.25" y="-443.05" font-family="Arial" font-size="11.00" fill="white">User Input</text>
<text xml:space="preserve" text-anchor="middle" x="394.25" y="-429.55" font-family="Arial" font-size="11.00" fill="white">(Theme / Keywords)</text>
</g>
<!-- webui -->
<g id="node2" class="node">
<title>webui</title>
<path fill="#2196f3" stroke="black" d="M360.62,-364C360.62,-364 277.88,-364 277.88,-364 271.88,-364 265.88,-358 265.88,-352 265.88,-352 265.88,-339.5 265.88,-339.5 265.88,-333.5 271.88,-327.5 277.88,-327.5 277.88,-327.5 360.62,-327.5 360.62,-327.5 366.62,-327.5 372.62,-333.5 372.62,-339.5 372.62,-339.5 372.62,-352 372.62,-352 372.62,-358 366.62,-364 360.62,-364"/>
<text xml:space="preserve" text-anchor="middle" x="319.25" y="-348.6" font-family="Arial Bold" font-size="12.00" fill="white">Streamlit WebUI</text>
<text xml:space="preserve" text-anchor="middle" x="319.25" y="-334.35" font-family="Arial Bold" font-size="12.00" fill="white">(Port 8501)</text>
</g>
<!-- user&#45;&gt;webui -->
<g id="edge1" class="edge">
<title>user&#45;&gt;webui</title>
<path fill="none" stroke="#4caf50" stroke-width="2" d="M354.88,-421.83C354.88,-421.83 354.88,-377.22 354.88,-377.22"/>
<polygon fill="#4caf50" stroke="#4caf50" stroke-width="2" points="358.38,-377.22 354.88,-367.22 351.38,-377.22 358.38,-377.22"/>
</g>
<!-- api -->
<g id="node3" class="node">
<title>api</title>
<path fill="#2196f3" stroke="black" d="M517.38,-364C517.38,-364 421.12,-364 421.12,-364 415.12,-364 409.12,-358 409.12,-352 409.12,-352 409.12,-339.5 409.12,-339.5 409.12,-333.5 415.12,-327.5 421.12,-327.5 421.12,-327.5 517.38,-327.5 517.38,-327.5 523.38,-327.5 529.38,-333.5 529.38,-339.5 529.38,-339.5 529.38,-352 529.38,-352 529.38,-358 523.38,-364 517.38,-364"/>
<text xml:space="preserve" text-anchor="middle" x="469.25" y="-348.6" font-family="Arial Bold" font-size="12.00" fill="white">FastAPI REST API</text>
<text xml:space="preserve" text-anchor="middle" x="469.25" y="-334.35" font-family="Arial Bold" font-size="12.00" fill="white">(Port 8080)</text>
</g>
<!-- user&#45;&gt;api -->
<g id="edge2" class="edge">
<title>user&#45;&gt;api</title>
<path fill="none" stroke="#4caf50" stroke-width="2" d="M430.25,-421.83C430.25,-421.83 430.25,-377.22 430.25,-377.22"/>
<polygon fill="#4caf50" stroke="#4caf50" stroke-width="2" points="433.75,-377.22 430.25,-367.22 426.75,-377.22 433.75,-377.22"/>
</g>
<!-- task_svc -->
<g id="node4" class="node">
<title>task_svc</title>
<path fill="#2196f3" stroke="black" d="M430,-269.5C430,-269.5 358.5,-269.5 358.5,-269.5 352.5,-269.5 346.5,-263.5 346.5,-257.5 346.5,-257.5 346.5,-245 346.5,-245 346.5,-239 352.5,-233 358.5,-233 358.5,-233 430,-233 430,-233 436,-233 442,-239 442,-245 442,-245 442,-257.5 442,-257.5 442,-263.5 436,-269.5 430,-269.5"/>
<text xml:space="preserve" text-anchor="middle" x="394.25" y="-254.1" font-family="Arial Bold" font-size="12.00" fill="white">Task Service</text>
<text xml:space="preserve" text-anchor="middle" x="394.25" y="-239.85" font-family="Arial Bold" font-size="12.00" fill="white">(Orchestrator)</text>
</g>
<!-- webui&#45;&gt;task_svc -->
<g id="edge3" class="edge">
<title>webui&#45;&gt;task_svc</title>
<path fill="none" stroke="#2196f3" stroke-width="2" d="M359.56,-327.08C359.56,-327.08 359.56,-282.91 359.56,-282.91"/>
<polygon fill="#2196f3" stroke="#2196f3" stroke-width="2" points="363.06,-282.91 359.56,-272.91 356.06,-282.91 363.06,-282.91"/>
</g>
<!-- api&#45;&gt;task_svc -->
<g id="edge4" class="edge">
<title>api&#45;&gt;task_svc</title>
<path fill="none" stroke="#2196f3" stroke-width="2" d="M425.56,-327.08C425.56,-327.08 425.56,-282.91 425.56,-282.91"/>
<polygon fill="#2196f3" stroke="#2196f3" stroke-width="2" points="429.06,-282.91 425.56,-272.91 422.06,-282.91 429.06,-282.91"/>
</g>
<!-- llm_svc -->
<g id="node5" class="node">
<title>llm_svc</title>
<path fill="#ff9800" stroke="black" d="M104.88,-171C104.88,-171 35.62,-171 35.62,-171 29.62,-171 23.62,-165 23.62,-159 23.62,-159 23.62,-147 23.62,-147 23.62,-141 29.62,-135 35.62,-135 35.62,-135 104.88,-135 104.88,-135 110.88,-135 116.88,-141 116.88,-147 116.88,-147 116.88,-159 116.88,-159 116.88,-165 110.88,-171 104.88,-171"/>
<text xml:space="preserve" text-anchor="middle" x="70.25" y="-156.05" font-family="Arial" font-size="11.00" fill="white">LLM Service</text>
<text xml:space="preserve" text-anchor="middle" x="70.25" y="-142.55" font-family="Arial" font-size="11.00" fill="white">(Script + Terms)</text>
</g>
<!-- task_svc&#45;&gt;llm_svc -->
<g id="edge5" class="edge">
<title>task_svc&#45;&gt;llm_svc</title>
<path fill="none" stroke="#ea580c" stroke-width="2" d="M346.09,-257.5C255.84,-257.5 70.25,-257.5 70.25,-257.5 70.25,-257.5 70.25,-184.23 70.25,-184.23"/>
<polygon fill="#ea580c" stroke="#ea580c" stroke-width="2" points="73.75,-184.23 70.25,-174.23 66.75,-184.23 73.75,-184.23"/>
<text xml:space="preserve" text-anchor="middle" x="156.54" y="-260.7" font-family="Times New Roman,serif" font-size="14.00">script</text>
</g>
<!-- voice_svc -->
<g id="node6" class="node">
<title>voice_svc</title>
<path fill="#ff9800" stroke="black" d="M233.88,-171C233.88,-171 176.62,-171 176.62,-171 170.62,-171 164.62,-165 164.62,-159 164.62,-159 164.62,-147 164.62,-147 164.62,-141 170.62,-135 176.62,-135 176.62,-135 233.88,-135 233.88,-135 239.88,-135 245.88,-141 245.88,-147 245.88,-147 245.88,-159 245.88,-159 245.88,-165 239.88,-171 233.88,-171"/>
<text xml:space="preserve" text-anchor="middle" x="205.25" y="-156.05" font-family="Arial" font-size="11.00" fill="white">Voice Service</text>
<text xml:space="preserve" text-anchor="middle" x="205.25" y="-142.55" font-family="Arial" font-size="11.00" fill="white">(TTS Engine)</text>
</g>
<!-- task_svc&#45;&gt;voice_svc -->
<g id="edge6" class="edge">
<title>task_svc&#45;&gt;voice_svc</title>
<path fill="none" stroke="#ea580c" stroke-width="2" d="M346.07,-245.5C290.07,-245.5 205.25,-245.5 205.25,-245.5 205.25,-245.5 205.25,-184.3 205.25,-184.3"/>
<polygon fill="#ea580c" stroke="#ea580c" stroke-width="2" points="208.75,-184.3 205.25,-174.3 201.75,-184.3 208.75,-184.3"/>
<text xml:space="preserve" text-anchor="middle" x="238.69" y="-248.7" font-family="Times New Roman,serif" font-size="14.00">tts</text>
</g>
<!-- material_svc -->
<g id="node7" class="node">
<title>material_svc</title>
<path fill="#ff9800" stroke="black" d="M362.88,-171C362.88,-171 293.62,-171 293.62,-171 287.62,-171 281.62,-165 281.62,-159 281.62,-159 281.62,-147 281.62,-147 281.62,-141 287.62,-135 293.62,-135 293.62,-135 362.88,-135 362.88,-135 368.88,-135 374.88,-141 374.88,-147 374.88,-147 374.88,-159 374.88,-159 374.88,-165 368.88,-171 362.88,-171"/>
<text xml:space="preserve" text-anchor="middle" x="328.25" y="-156.05" font-family="Arial" font-size="11.00" fill="white">Material Service</text>
<text xml:space="preserve" text-anchor="middle" x="328.25" y="-142.55" font-family="Arial" font-size="11.00" fill="white">(Video Search)</text>
</g>
<!-- task_svc&#45;&gt;material_svc -->
<g id="edge7" class="edge">
<title>task_svc&#45;&gt;material_svc</title>
<path fill="none" stroke="#ea580c" stroke-width="2" d="M360.69,-232.77C360.69,-232.77 360.69,-184.42 360.69,-184.42"/>
<polygon fill="#ea580c" stroke="#ea580c" stroke-width="2" points="364.19,-184.42 360.69,-174.42 357.19,-184.42 364.19,-184.42"/>
<text xml:space="preserve" text-anchor="middle" x="343.44" y="-211.8" font-family="Times New Roman,serif" font-size="14.00">search</text>
</g>
<!-- subtitle_svc -->
<g id="node8" class="node">
<title>subtitle_svc</title>
<path fill="#ff9800" stroke="black" d="M497.12,-171C497.12,-171 423.38,-171 423.38,-171 417.38,-171 411.38,-165 411.38,-159 411.38,-159 411.38,-147 411.38,-147 411.38,-141 417.38,-135 423.38,-135 423.38,-135 497.12,-135 497.12,-135 503.12,-135 509.12,-141 509.12,-147 509.12,-147 509.12,-159 509.12,-159 509.12,-165 503.12,-171 497.12,-171"/>
<text xml:space="preserve" text-anchor="middle" x="460.25" y="-156.05" font-family="Arial" font-size="11.00" fill="white">Subtitle Service</text>
<text xml:space="preserve" text-anchor="middle" x="460.25" y="-142.55" font-family="Arial" font-size="11.00" fill="white">(Edge / Whisper)</text>
</g>
<!-- task_svc&#45;&gt;subtitle_svc -->
<g id="edge8" class="edge">
<title>task_svc&#45;&gt;subtitle_svc</title>
<path fill="none" stroke="#ea580c" stroke-width="2" d="M426.69,-232.77C426.69,-232.77 426.69,-184.42 426.69,-184.42"/>
<polygon fill="#ea580c" stroke="#ea580c" stroke-width="2" points="430.19,-184.42 426.69,-174.42 423.19,-184.42 430.19,-184.42"/>
<text xml:space="preserve" text-anchor="middle" x="404.19" y="-211.8" font-family="Times New Roman,serif" font-size="14.00">subtitles</text>
</g>
<!-- video_svc -->
<g id="node9" class="node">
<title>video_svc</title>
<path fill="#ff9800" stroke="black" d="M617,-171C617,-171 557.5,-171 557.5,-171 551.5,-171 545.5,-165 545.5,-159 545.5,-159 545.5,-147 545.5,-147 545.5,-141 551.5,-135 557.5,-135 557.5,-135 617,-135 617,-135 623,-135 629,-141 629,-147 629,-147 629,-159 629,-159 629,-165 623,-171 617,-171"/>
<text xml:space="preserve" text-anchor="middle" x="587.25" y="-156.05" font-family="Arial" font-size="11.00" fill="white">Video Service</text>
<text xml:space="preserve" text-anchor="middle" x="587.25" y="-142.55" font-family="Arial" font-size="11.00" fill="white">(Composition)</text>
</g>
<!-- task_svc&#45;&gt;video_svc -->
<g id="edge9" class="edge">
<title>task_svc&#45;&gt;video_svc</title>
<path fill="none" stroke="#ea580c" stroke-width="2" d="M442.45,-245.5C499.62,-245.5 587.25,-245.5 587.25,-245.5 587.25,-245.5 587.25,-184.3 587.25,-184.3"/>
<polygon fill="#ea580c" stroke="#ea580c" stroke-width="2" points="590.75,-184.3 587.25,-174.3 583.75,-184.3 590.75,-184.3"/>
<text xml:space="preserve" text-anchor="middle" x="521.08" y="-248.7" font-family="Times New Roman,serif" font-size="14.00">compose</text>
</g>
<!-- state -->
<g id="node15" class="node">
<title>state</title>
<path fill="#ff9800" stroke="black" d="M757.12,-171C757.12,-173.21 736.56,-175 711.25,-175 685.94,-175 665.38,-173.21 665.38,-171 665.38,-171 665.38,-135 665.38,-135 665.38,-132.79 685.94,-131 711.25,-131 736.56,-131 757.12,-132.79 757.12,-135 757.12,-135 757.12,-171 757.12,-171"/>
<path fill="none" stroke="black" d="M757.12,-171C757.12,-168.79 736.56,-167 711.25,-167 685.94,-167 665.38,-168.79 665.38,-171"/>
<text xml:space="preserve" text-anchor="middle" x="711.25" y="-155.5" font-family="Arial" font-size="10.00" fill="white">State Manager</text>
<text xml:space="preserve" text-anchor="middle" x="711.25" y="-143.5" font-family="Arial" font-size="10.00" fill="white">(Memory / Redis)</text>
</g>
<!-- task_svc&#45;&gt;state -->
<g id="edge15" class="edge">
<title>task_svc&#45;&gt;state</title>
<path fill="none" stroke="#64748b" stroke-width="1.5" stroke-dasharray="5,2" d="M442.4,-257.5C531.08,-257.5 711.25,-257.5 711.25,-257.5 711.25,-257.5 711.25,-187.69 711.25,-187.69"/>
<polygon fill="#64748b" stroke="#64748b" stroke-width="1.5" points="714.75,-187.69 711.25,-177.69 707.75,-187.69 714.75,-187.69"/>
</g>
<!-- llm_providers -->
<g id="node10" class="node">
<title>llm_providers</title>
<path fill="#9c27b0" stroke="black" d="M104.5,-73C104.5,-73 12,-73 12,-73 6,-73 0,-67 0,-61 0,-61 0,-36.5 0,-36.5 0,-30.5 6,-24.5 12,-24.5 12,-24.5 104.5,-24.5 104.5,-24.5 110.5,-24.5 116.5,-30.5 116.5,-36.5 116.5,-36.5 116.5,-61 116.5,-61 116.5,-67 110.5,-73 104.5,-73"/>
<text xml:space="preserve" text-anchor="middle" x="58.25" y="-58.55" font-family="Arial" font-size="11.00" fill="white">LLM Providers</text>
<text xml:space="preserve" text-anchor="middle" x="58.25" y="-45.05" font-family="Arial" font-size="11.00" fill="white">(OpenAI / DeepSeek</text>
<text xml:space="preserve" text-anchor="middle" x="58.25" y="-31.55" font-family="Arial" font-size="11.00" fill="white">/ Gemini / Ollama ...)</text>
</g>
<!-- llm_svc&#45;&gt;llm_providers -->
<g id="edge10" class="edge">
<title>llm_svc&#45;&gt;llm_providers</title>
<path fill="none" stroke="#9c27b0" stroke-width="1.5" stroke-dasharray="5,2" d="M70.06,-134.84C70.06,-134.84 70.06,-85.61 70.06,-85.61"/>
<polygon fill="#9c27b0" stroke="#9c27b0" stroke-width="1.5" points="73.56,-85.61 70.06,-75.61 66.56,-85.61 73.56,-85.61"/>
</g>
<!-- tts_engines -->
<g id="node11" class="node">
<title>tts_engines</title>
<path fill="#9c27b0" stroke="black" d="M246.25,-73C246.25,-73 164.25,-73 164.25,-73 158.25,-73 152.25,-67 152.25,-61 152.25,-61 152.25,-36.5 152.25,-36.5 152.25,-30.5 158.25,-24.5 164.25,-24.5 164.25,-24.5 246.25,-24.5 246.25,-24.5 252.25,-24.5 258.25,-30.5 258.25,-36.5 258.25,-36.5 258.25,-61 258.25,-61 258.25,-67 252.25,-73 246.25,-73"/>
<text xml:space="preserve" text-anchor="middle" x="205.25" y="-58.55" font-family="Arial" font-size="11.00" fill="white">TTS Engines</text>
<text xml:space="preserve" text-anchor="middle" x="205.25" y="-45.05" font-family="Arial" font-size="11.00" fill="white">(Edge TTS / Azure</text>
<text xml:space="preserve" text-anchor="middle" x="205.25" y="-31.55" font-family="Arial" font-size="11.00" fill="white">/ pydub)</text>
</g>
<!-- voice_svc&#45;&gt;tts_engines -->
<g id="edge11" class="edge">
<title>voice_svc&#45;&gt;tts_engines</title>
<path fill="none" stroke="#9c27b0" stroke-width="1.5" stroke-dasharray="5,2" d="M205.25,-134.84C205.25,-134.84 205.25,-85.61 205.25,-85.61"/>
<polygon fill="#9c27b0" stroke="#9c27b0" stroke-width="1.5" points="208.75,-85.61 205.25,-75.61 201.75,-85.61 208.75,-85.61"/>
</g>
<!-- video_sources -->
<g id="node12" class="node">
<title>video_sources</title>
<path fill="#9c27b0" stroke="black" d="M381.88,-73C381.88,-73 306.62,-73 306.62,-73 300.62,-73 294.62,-67 294.62,-61 294.62,-61 294.62,-36.5 294.62,-36.5 294.62,-30.5 300.62,-24.5 306.62,-24.5 306.62,-24.5 381.88,-24.5 381.88,-24.5 387.88,-24.5 393.88,-30.5 393.88,-36.5 393.88,-36.5 393.88,-61 393.88,-61 393.88,-67 387.88,-73 381.88,-73"/>
<text xml:space="preserve" text-anchor="middle" x="344.25" y="-58.55" font-family="Arial" font-size="11.00" fill="white">Video Sources</text>
<text xml:space="preserve" text-anchor="middle" x="344.25" y="-45.05" font-family="Arial" font-size="11.00" fill="white">(Pexels / Pixabay</text>
<text xml:space="preserve" text-anchor="middle" x="344.25" y="-31.55" font-family="Arial" font-size="11.00" fill="white">/ Local Files)</text>
</g>
<!-- material_svc&#45;&gt;video_sources -->
<g id="edge12" class="edge">
<title>material_svc&#45;&gt;video_sources</title>
<path fill="none" stroke="#9c27b0" stroke-width="1.5" stroke-dasharray="5,2" d="M334.75,-134.84C334.75,-134.84 334.75,-85.61 334.75,-85.61"/>
<polygon fill="#9c27b0" stroke="#9c27b0" stroke-width="1.5" points="338.25,-85.61 334.75,-75.61 331.25,-85.61 338.25,-85.61"/>
</g>
<!-- ffmpeg -->
<g id="node13" class="node">
<title>ffmpeg</title>
<path fill="#9c27b0" stroke="black" d="M556.12,-66.75C556.12,-66.75 500.38,-66.75 500.38,-66.75 494.38,-66.75 488.38,-60.75 488.38,-54.75 488.38,-54.75 488.38,-42.75 488.38,-42.75 488.38,-36.75 494.38,-30.75 500.38,-30.75 500.38,-30.75 556.12,-30.75 556.12,-30.75 562.12,-30.75 568.12,-36.75 568.12,-42.75 568.12,-42.75 568.12,-54.75 568.12,-54.75 568.12,-60.75 562.12,-66.75 556.12,-66.75"/>
<text xml:space="preserve" text-anchor="middle" x="528.25" y="-51.8" font-family="Arial" font-size="11.00" fill="white">FFmpeg +</text>
<text xml:space="preserve" text-anchor="middle" x="528.25" y="-38.3" font-family="Arial" font-size="11.00" fill="white">ImageMagick</text>
</g>
<!-- video_svc&#45;&gt;ffmpeg -->
<g id="edge13" class="edge">
<title>video_svc&#45;&gt;ffmpeg</title>
<path fill="none" stroke="#9c27b0" stroke-width="1.5" stroke-dasharray="5,2" d="M556.81,-134.84C556.81,-134.84 556.81,-79.32 556.81,-79.32"/>
<polygon fill="#9c27b0" stroke="#9c27b0" stroke-width="1.5" points="560.31,-79.32 556.81,-69.32 553.31,-79.32 560.31,-79.32"/>
</g>
<!-- output -->
<g id="node14" class="node">
<title>output</title>
<polygon fill="#f44336" stroke="black" points="702.5,-66.75 604,-66.75 604,-30.75 702.5,-30.75 702.5,-66.75"/>
<text xml:space="preserve" text-anchor="middle" x="653.25" y="-51.8" font-family="Arial" font-size="11.00" fill="white">HD Video Output</text>
<text xml:space="preserve" text-anchor="middle" x="653.25" y="-38.3" font-family="Arial" font-size="11.00" fill="white">(1080p MP4)</text>
</g>
<!-- video_svc&#45;&gt;output -->
<g id="edge14" class="edge">
<title>video_svc&#45;&gt;output</title>
<path fill="none" stroke="#f44336" stroke-width="2" d="M616.5,-134.84C616.5,-134.84 616.5,-80.08 616.5,-80.08"/>
<polygon fill="#f44336" stroke="#f44336" stroke-width="2" points="620,-80.08 616.5,-70.08 613,-80.08 620,-80.08"/>
</g>
</g>
</svg>
