<?xml version="1.0" encoding="UTF-8" standalone="no"?>
<!DOCTYPE svg PUBLIC "-//W3C//DTD SVG 1.1//EN"
 "http://www.w3.org/Graphics/SVG/1.1/DTD/svg11.dtd">
<!-- Generated by graphviz version 14.1.2 (0)
 -->
<!-- Title: ecosystem Pages: 1 -->
<svg width="1318pt" height="254pt"
 viewBox="0.00 0.00 1318.00 254.00" xmlns="http://www.w3.org/2000/svg" xmlns:xlink="http://www.w3.org/1999/xlink">
<style>
<!-- White text halo for edge label readability -->
text { paint-order: stroke; stroke: #ffffff; stroke-width: 3px; stroke-linejoin: round; fill: #1a1a2e; }
</style>
<g id="graph0" class="graph" transform="scale(1 1) rotate(0) translate(4 249.5)">
<title>ecosystem</title>
<polygon fill="white" stroke="none" points="-4,4 -4,-249.5 1313.75,-249.5 1313.75,4 -4,4"/>
<text xml:space="preserve" text-anchor="middle" x="654.88" y="-7.2" font-family="Times New Roman,serif" font-size="14.00">MoneyPrinterTurbo &#45; Integration Ecosystem</text>
<!-- core -->
<g id="node1" class="node">
<title>core</title>
<path fill="#2196f3" stroke="black" d="M674.5,-159.5C674.5,-159.5 572.25,-159.5 572.25,-159.5 566.25,-159.5 560.25,-153.5 560.25,-147.5 560.25,-147.5 560.25,-135 560.25,-135 560.25,-129 566.25,-123 572.25,-123 572.25,-123 674.5,-123 674.5,-123 680.5,-123 686.5,-129 686.5,-135 686.5,-135 686.5,-147.5 686.5,-147.5 686.5,-153.5 680.5,-159.5 674.5,-159.5"/>
<text xml:space="preserve" text-anchor="middle" x="623.38" y="-144.1" font-family="Arial Bold" font-size="12.00" fill="white">MoneyPrinterTurbo</text>
<text xml:space="preserve" text-anchor="middle" x="623.38" y="-129.85" font-family="Arial Bold" font-size="12.00" fill="white">v1.2.7</text>
</g>
<!-- tts_edge -->
<g id="node14" class="node">
<title>tts_edge</title>
<path fill="#ff9800" stroke="black" d="M88.25,-73C88.25,-73 26.5,-73 26.5,-73 20.5,-73 14.5,-67 14.5,-61 14.5,-61 14.5,-36.5 14.5,-36.5 14.5,-30.5 20.5,-24.5 26.5,-24.5 26.5,-24.5 88.25,-24.5 88.25,-24.5 94.25,-24.5 100.25,-30.5 100.25,-36.5 100.25,-36.5 100.25,-61 100.25,-61 100.25,-67 94.25,-73 88.25,-73"/>
<text xml:space="preserve" text-anchor="middle" x="57.38" y="-58.55" font-family="Arial" font-size="11.00" fill="white">Edge TTS</text>
<text xml:space="preserve" text-anchor="middle" x="57.38" y="-45.05" font-family="Arial" font-size="11.00" fill="white">Free, fast</text>
<text xml:space="preserve" text-anchor="middle" x="57.38" y="-31.55" font-family="Arial" font-size="11.00" fill="white">Multiple voices</text>
</g>
<!-- core&#45;&gt;tts_edge -->
<g id="edge13" class="edge">
<title>core&#45;&gt;tts_edge</title>
<path fill="none" stroke="#ff9800" stroke-width="2" d="M559.92,-139.5C418.23,-139.5 88.5,-139.5 88.5,-139.5 88.5,-139.5 88.5,-86.1 88.5,-86.1"/>
<polygon fill="#ff9800" stroke="#ff9800" stroke-width="2" points="92,-86.1 88.5,-76.1 85,-86.1 92,-86.1"/>
<text xml:space="preserve" text-anchor="middle" x="287.01" y="-142.7" font-family="Times New Roman,serif" font-size="14.00">free</text>
</g>
<!-- tts_azure -->
<g id="node15" class="node">
<title>tts_azure</title>
<path fill="#ff9800" stroke="black" d="M217.38,-73C217.38,-73 141.38,-73 141.38,-73 135.38,-73 129.38,-67 129.38,-61 129.38,-61 129.38,-36.5 129.38,-36.5 129.38,-30.5 135.38,-24.5 141.38,-24.5 141.38,-24.5 217.38,-24.5 217.38,-24.5 223.38,-24.5 229.38,-30.5 229.38,-36.5 229.38,-36.5 229.38,-61 229.38,-61 229.38,-67 223.38,-73 217.38,-73"/>
<text xml:space="preserve" text-anchor="middle" x="179.38" y="-58.55" font-family="Arial" font-size="11.00" fill="white">Azure Speech</text>
<text xml:space="preserve" text-anchor="middle" x="179.38" y="-45.05" font-family="Arial" font-size="11.00" fill="white">9 premium voices</text>
<text xml:space="preserve" text-anchor="middle" x="179.38" y="-31.55" font-family="Arial" font-size="11.00" fill="white">High quality</text>
</g>
<!-- core&#45;&gt;tts_azure -->
<g id="edge14" class="edge">
<title>core&#45;&gt;tts_azure</title>
<path fill="none" stroke="#ff9800" stroke-width="1.5" stroke-dasharray="5,2" d="M559.9,-136.5C447.59,-136.5 225.56,-136.5 225.56,-136.5 225.56,-136.5 225.56,-85.46 225.56,-85.46"/>
<polygon fill="#ff9800" stroke="#ff9800" stroke-width="1.5" points="229.06,-85.46 225.56,-75.46 222.06,-85.46 229.06,-85.46"/>
<text xml:space="preserve" text-anchor="middle" x="342.09" y="-139.7" font-family="Times New Roman,serif" font-size="14.00">premium</text>
</g>
<!-- src_pexels -->
<g id="node16" class="node">
<title>src_pexels</title>
<path fill="#00bcd4" stroke="black" d="M332.25,-73C332.25,-73 270.5,-73 270.5,-73 264.5,-73 258.5,-67 258.5,-61 258.5,-61 258.5,-36.5 258.5,-36.5 258.5,-30.5 264.5,-24.5 270.5,-24.5 270.5,-24.5 332.25,-24.5 332.25,-24.5 338.25,-24.5 344.25,-30.5 344.25,-36.5 344.25,-36.5 344.25,-61 344.25,-61 344.25,-67 338.25,-73 332.25,-73"/>
<text xml:space="preserve" text-anchor="middle" x="301.38" y="-58.55" font-family="Arial" font-size="11.00" fill="white">Pexels</text>
<text xml:space="preserve" text-anchor="middle" x="301.38" y="-45.05" font-family="Arial" font-size="11.00" fill="white">Free HD stock</text>
<text xml:space="preserve" text-anchor="middle" x="301.38" y="-31.55" font-family="Arial" font-size="11.00" fill="white">video API</text>
</g>
<!-- core&#45;&gt;src_pexels -->
<g id="edge15" class="edge">
<title>core&#45;&gt;src_pexels</title>
<path fill="none" stroke="#00bcd4" stroke-width="2" d="M559.77,-132.5C471.72,-132.5 323.44,-132.5 323.44,-132.5 323.44,-132.5 323.44,-86.45 323.44,-86.45"/>
<polygon fill="#00bcd4" stroke="#00bcd4" stroke-width="2" points="326.94,-86.45 323.44,-76.45 319.94,-86.45 326.94,-86.45"/>
<text xml:space="preserve" text-anchor="middle" x="399.83" y="-135.7" font-family="Times New Roman,serif" font-size="14.00">default</text>
</g>
<!-- src_pixabay -->
<g id="node17" class="node">
<title>src_pixabay</title>
<path fill="#00bcd4" stroke="black" d="M427.5,-73C427.5,-73 385.25,-73 385.25,-73 379.25,-73 373.25,-67 373.25,-61 373.25,-61 373.25,-36.5 373.25,-36.5 373.25,-30.5 379.25,-24.5 385.25,-24.5 385.25,-24.5 427.5,-24.5 427.5,-24.5 433.5,-24.5 439.5,-30.5 439.5,-36.5 439.5,-36.5 439.5,-61 439.5,-61 439.5,-67 433.5,-73 427.5,-73"/>
<text xml:space="preserve" text-anchor="middle" x="406.38" y="-58.55" font-family="Arial" font-size="11.00" fill="white">Pixabay</text>
<text xml:space="preserve" text-anchor="middle" x="406.38" y="-45.05" font-family="Arial" font-size="11.00" fill="white">Free stock</text>
<text xml:space="preserve" text-anchor="middle" x="406.38" y="-31.55" font-family="Arial" font-size="11.00" fill="white">video API</text>
</g>
<!-- core&#45;&gt;src_pixabay -->
<g id="edge16" class="edge">
<title>core&#45;&gt;src_pixabay</title>
<path fill="none" stroke="#00bcd4" stroke-width="1.5" stroke-dasharray="5,2" d="M560,-129.5C503.01,-129.5 428.19,-129.5 428.19,-129.5 428.19,-129.5 428.19,-85.69 428.19,-85.69"/>
<polygon fill="#00bcd4" stroke="#00bcd4" stroke-width="1.5" points="431.69,-85.69 428.19,-75.69 424.69,-85.69 431.69,-85.69"/>
<text xml:space="preserve" text-anchor="middle" x="465.44" y="-132.7" font-family="Times New Roman,serif" font-size="14.00">alt</text>
</g>
<!-- src_local -->
<g id="node18" class="node">
<title>src_local</title>
<path fill="#00bcd4" stroke="black" d="M538.38,-73C538.38,-73 480.38,-73 480.38,-73 474.38,-73 468.38,-67 468.38,-61 468.38,-61 468.38,-36.5 468.38,-36.5 468.38,-30.5 474.38,-24.5 480.38,-24.5 480.38,-24.5 538.38,-24.5 538.38,-24.5 544.38,-24.5 550.38,-30.5 550.38,-36.5 550.38,-36.5 550.38,-61 550.38,-61 550.38,-67 544.38,-73 538.38,-73"/>
<text xml:space="preserve" text-anchor="middle" x="509.38" y="-58.55" font-family="Arial" font-size="11.00" fill="white">Local Files</text>
<text xml:space="preserve" text-anchor="middle" x="509.38" y="-45.05" font-family="Arial" font-size="11.00" fill="white">Custom video</text>
<text xml:space="preserve" text-anchor="middle" x="509.38" y="-31.55" font-family="Arial" font-size="11.00" fill="white">materials</text>
</g>
<!-- core&#45;&gt;src_local -->
<g id="edge17" class="edge">
<title>core&#45;&gt;src_local</title>
<path fill="none" stroke="#00bcd4" stroke-width="1.5" stroke-dasharray="5,2" d="M559.93,-126.5C550.74,-126.5 544.31,-126.5 544.31,-126.5 544.31,-126.5 544.31,-85.62 544.31,-85.62"/>
<polygon fill="#00bcd4" stroke="#00bcd4" stroke-width="1.5" points="547.81,-85.62 544.31,-75.62 540.81,-85.62 547.81,-85.62"/>
<text xml:space="preserve" text-anchor="middle" x="524.44" y="-117.07" font-family="Times New Roman,serif" font-size="14.00">custom</text>
</g>
<!-- sub_edge -->
<g id="node19" class="node">
<title>sub_edge</title>
<path fill="#4caf50" stroke="black" d="M655.38,-70.75C655.38,-70.75 591.38,-70.75 591.38,-70.75 585.38,-70.75 579.38,-64.75 579.38,-58.75 579.38,-58.75 579.38,-38.75 579.38,-38.75 579.38,-32.75 585.38,-26.75 591.38,-26.75 591.38,-26.75 655.38,-26.75 655.38,-26.75 661.38,-26.75 667.38,-32.75 667.38,-38.75 667.38,-38.75 667.38,-58.75 667.38,-58.75 667.38,-64.75 661.38,-70.75 655.38,-70.75"/>
<text xml:space="preserve" text-anchor="middle" x="623.38" y="-57.25" font-family="Arial" font-size="10.00" fill="white">Edge Subtitles</text>
<text xml:space="preserve" text-anchor="middle" x="623.38" y="-45.25" font-family="Arial" font-size="10.00" fill="white">Fast, lightweight</text>
<text xml:space="preserve" text-anchor="middle" x="623.38" y="-33.25" font-family="Arial" font-size="10.00" fill="white">No GPU needed</text>
</g>
<!-- core&#45;&gt;sub_edge -->
<g id="edge18" class="edge">
<title>core&#45;&gt;sub_edge</title>
<path fill="none" stroke="#4caf50" stroke-width="2" d="M623.38,-122.53C623.38,-122.53 623.38,-84.05 623.38,-84.05"/>
<polygon fill="#4caf50" stroke="#4caf50" stroke-width="2" points="626.88,-84.05 623.38,-74.05 619.88,-84.05 626.88,-84.05"/>
<text xml:space="preserve" text-anchor="middle" x="613.62" y="-106.49" font-family="Times New Roman,serif" font-size="14.00">fast</text>
</g>
<!-- sub_whisper -->
<g id="node20" class="node">
<title>sub_whisper</title>
<path fill="#9c27b0" stroke="black" d="M784.38,-73C784.38,-73 708.38,-73 708.38,-73 702.38,-73 696.38,-67 696.38,-61 696.38,-61 696.38,-36.5 696.38,-36.5 696.38,-30.5 702.38,-24.5 708.38,-24.5 708.38,-24.5 784.38,-24.5 784.38,-24.5 790.38,-24.5 796.38,-30.5 796.38,-36.5 796.38,-36.5 796.38,-61 796.38,-61 796.38,-67 790.38,-73 784.38,-73"/>
<text xml:space="preserve" text-anchor="middle" x="746.38" y="-58.55" font-family="Arial" font-size="11.00" fill="white">Whisper Subtitles</text>
<text xml:space="preserve" text-anchor="middle" x="746.38" y="-45.05" font-family="Arial" font-size="11.00" fill="white">High quality</text>
<text xml:space="preserve" text-anchor="middle" x="746.38" y="-31.55" font-family="Arial" font-size="11.00" fill="white">GPU optional</text>
</g>
<!-- core&#45;&gt;sub_whisper -->
<g id="edge19" class="edge">
<title>core&#45;&gt;sub_whisper</title>
<path fill="none" stroke="#4caf50" stroke-width="1.5" stroke-dasharray="5,2" d="M686.71,-126.5C698.36,-126.5 706.94,-126.5 706.94,-126.5 706.94,-126.5 706.94,-85.62 706.94,-85.62"/>
<polygon fill="#4caf50" stroke="#4caf50" stroke-width="1.5" points="710.44,-85.62 706.94,-75.62 703.44,-85.62 710.44,-85.62"/>
<text xml:space="preserve" text-anchor="middle" x="688.19" y="-102.87" font-family="Times New Roman,serif" font-size="14.00">quality</text>
</g>
<!-- render_moviepy -->
<g id="node21" class="node">
<title>render_moviepy</title>
<path fill="#ff9800" stroke="black" d="M917.25,-73C917.25,-73 837.5,-73 837.5,-73 831.5,-73 825.5,-67 825.5,-61 825.5,-61 825.5,-36.5 825.5,-36.5 825.5,-30.5 831.5,-24.5 837.5,-24.5 837.5,-24.5 917.25,-24.5 917.25,-24.5 923.25,-24.5 929.25,-30.5 929.25,-36.5 929.25,-36.5 929.25,-61 929.25,-61 929.25,-67 923.25,-73 917.25,-73"/>
<text xml:space="preserve" text-anchor="middle" x="877.38" y="-58.55" font-family="Arial" font-size="11.00" fill="white">MoviePy 2.1.2</text>
<text xml:space="preserve" text-anchor="middle" x="877.38" y="-45.05" font-family="Arial" font-size="11.00" fill="white">Video composition</text>
<text xml:space="preserve" text-anchor="middle" x="877.38" y="-31.55" font-family="Arial" font-size="11.00" fill="white">+ effects</text>
</g>
<!-- core&#45;&gt;render_moviepy -->
<g id="edge20" class="edge">
<title>core&#45;&gt;render_moviepy</title>
<path fill="none" stroke="#9c27b0" stroke-width="2" d="M686.76,-129.5C750.53,-129.5 839.5,-129.5 839.5,-129.5 839.5,-129.5 839.5,-86.44 839.5,-86.44"/>
<polygon fill="#9c27b0" stroke="#9c27b0" stroke-width="2" points="843,-86.44 839.5,-76.44 836,-86.44 843,-86.44"/>
</g>
<!-- render_ffmpeg -->
<g id="node22" class="node">
<title>render_ffmpeg</title>
<path fill="#ff9800" stroke="black" d="M1032.25,-73C1032.25,-73 970.5,-73 970.5,-73 964.5,-73 958.5,-67 958.5,-61 958.5,-61 958.5,-36.5 958.5,-36.5 958.5,-30.5 964.5,-24.5 970.5,-24.5 970.5,-24.5 1032.25,-24.5 1032.25,-24.5 1038.25,-24.5 1044.25,-30.5 1044.25,-36.5 1044.25,-36.5 1044.25,-61 1044.25,-61 1044.25,-67 1038.25,-73 1032.25,-73"/>
<text xml:space="preserve" text-anchor="middle" x="1001.38" y="-58.55" font-family="Arial" font-size="11.00" fill="white">FFmpeg</text>
<text xml:space="preserve" text-anchor="middle" x="1001.38" y="-45.05" font-family="Arial" font-size="11.00" fill="white">Final encoding</text>
<text xml:space="preserve" text-anchor="middle" x="1001.38" y="-31.55" font-family="Arial" font-size="11.00" fill="white">libx264 + aac</text>
</g>
<!-- core&#45;&gt;render_ffmpeg -->
<g id="edge21" class="edge">
<title>core&#45;&gt;render_ffmpeg</title>
<path fill="none" stroke="#9c27b0" stroke-width="2" d="M686.69,-132.5C791.41,-132.5 989.25,-132.5 989.25,-132.5 989.25,-132.5 989.25,-86.45 989.25,-86.45"/>
<polygon fill="#9c27b0" stroke="#9c27b0" stroke-width="2" points="992.75,-86.45 989.25,-76.45 985.75,-86.45 992.75,-86.45"/>
</g>
<!-- render_im -->
<g id="node23" class="node">
<title>render_im</title>
<path fill="#ff9800" stroke="black" d="M1161.75,-73C1161.75,-73 1085,-73 1085,-73 1079,-73 1073,-67 1073,-61 1073,-61 1073,-36.5 1073,-36.5 1073,-30.5 1079,-24.5 1085,-24.5 1085,-24.5 1161.75,-24.5 1161.75,-24.5 1167.75,-24.5 1173.75,-30.5 1173.75,-36.5 1173.75,-36.5 1173.75,-61 1173.75,-61 1173.75,-67 1167.75,-73 1161.75,-73"/>
<text xml:space="preserve" text-anchor="middle" x="1123.38" y="-58.55" font-family="Arial" font-size="11.00" fill="white">ImageMagick</text>
<text xml:space="preserve" text-anchor="middle" x="1123.38" y="-45.05" font-family="Arial" font-size="11.00" fill="white">Subtitle rendering</text>
<text xml:space="preserve" text-anchor="middle" x="1123.38" y="-31.55" font-family="Arial" font-size="11.00" fill="white">+ text effects</text>
</g>
<!-- core&#45;&gt;render_im -->
<g id="edge22" class="edge">
<title>core&#45;&gt;render_im</title>
<path fill="none" stroke="#9c27b0" stroke-width="1.5" stroke-dasharray="5,2" d="M686.68,-136.5C815.56,-136.5 1096.38,-136.5 1096.38,-136.5 1096.38,-136.5 1096.38,-85.46 1096.38,-85.46"/>
<polygon fill="#9c27b0" stroke="#9c27b0" stroke-width="1.5" points="1099.88,-85.46 1096.38,-75.46 1092.88,-85.46 1099.88,-85.46"/>
</g>
<!-- upload_post -->
<g id="node24" class="node">
<title>upload_post</title>
<polygon fill="#f44336" stroke="black" points="1309.75,-73 1203,-73 1203,-24.5 1309.75,-24.5 1309.75,-73"/>
<text xml:space="preserve" text-anchor="middle" x="1256.38" y="-58.55" font-family="Arial" font-size="11.00" fill="white">Upload&#45;Post</text>
<text xml:space="preserve" text-anchor="middle" x="1256.38" y="-45.05" font-family="Arial" font-size="11.00" fill="white">TikTok + Instagram</text>
<text xml:space="preserve" text-anchor="middle" x="1256.38" y="-31.55" font-family="Arial" font-size="11.00" fill="white">Auto cross&#45;post</text>
</g>
<!-- core&#45;&gt;upload_post -->
<g id="edge23" class="edge">
<title>core&#45;&gt;upload_post</title>
<path fill="none" stroke="#f44336" stroke-width="1.5" stroke-dasharray="5,2" d="M686.83,-139.5C839.29,-139.5 1213.69,-139.5 1213.69,-139.5 1213.69,-139.5 1213.69,-85.34 1213.69,-85.34"/>
<polygon fill="#f44336" stroke="#f44336" stroke-width="1.5" points="1217.19,-85.34 1213.69,-75.34 1210.19,-85.34 1217.19,-85.34"/>
</g>
<!-- llm_openai -->
<g id="node2" class="node">
<title>llm_openai</title>
<path fill="#3f51b5" stroke="black" d="M64.75,-245.5C64.75,-245.5 12,-245.5 12,-245.5 6,-245.5 0,-239.5 0,-233.5 0,-233.5 0,-221.5 0,-221.5 0,-215.5 6,-209.5 12,-209.5 12,-209.5 64.75,-209.5 64.75,-209.5 70.75,-209.5 76.75,-215.5 76.75,-221.5 76.75,-221.5 76.75,-233.5 76.75,-233.5 76.75,-239.5 70.75,-245.5 64.75,-245.5"/>
<text xml:space="preserve" text-anchor="middle" x="38.38" y="-230.55" font-family="Arial" font-size="11.00" fill="white">OpenAI</text>
<text xml:space="preserve" text-anchor="middle" x="38.38" y="-217.05" font-family="Arial" font-size="11.00" fill="white">GPT&#45;4o&#45;mini</text>
</g>
<!-- llm_openai&#45;&gt;core -->
<g id="edge1" class="edge">
<title>llm_openai&#45;&gt;core</title>
<path fill="none" stroke="#3f51b5" stroke-width="1.5" stroke-dasharray="5,2" d="M45.62,-209.06C45.62,-184.06 45.62,-142.5 45.62,-142.5 45.62,-142.5 547.62,-142.5 547.62,-142.5"/>
<polygon fill="#3f51b5" stroke="#3f51b5" stroke-width="1.5" points="547.62,-146 557.62,-142.5 547.62,-139 547.62,-146"/>
</g>
<!-- llm_deepseek -->
<g id="node3" class="node">
<title>llm_deepseek</title>
<path fill="#3f51b5" stroke="black" d="M180.62,-245.5C180.62,-245.5 118.12,-245.5 118.12,-245.5 112.12,-245.5 106.12,-239.5 106.12,-233.5 106.12,-233.5 106.12,-221.5 106.12,-221.5 106.12,-215.5 112.12,-209.5 118.12,-209.5 118.12,-209.5 180.62,-209.5 180.62,-209.5 186.62,-209.5 192.62,-215.5 192.62,-221.5 192.62,-221.5 192.62,-233.5 192.62,-233.5 192.62,-239.5 186.62,-245.5 180.62,-245.5"/>
<text xml:space="preserve" text-anchor="middle" x="149.38" y="-230.55" font-family="Arial" font-size="11.00" fill="white">DeepSeek</text>
<text xml:space="preserve" text-anchor="middle" x="149.38" y="-217.05" font-family="Arial" font-size="11.00" fill="white">deepseek&#45;chat</text>
</g>
<!-- llm_deepseek&#45;&gt;core -->
<g id="edge2" class="edge">
<title>llm_deepseek&#45;&gt;core</title>
<path fill="none" stroke="#3f51b5" stroke-width="1.5" stroke-dasharray="5,2" d="M161,-209.12C161,-185.22 161,-146.5 161,-146.5 161,-146.5 547.78,-146.5 547.78,-146.5"/>
<polygon fill="#3f51b5" stroke="#3f51b5" stroke-width="1.5" points="547.78,-150 557.78,-146.5 547.78,-143 547.78,-150"/>
</g>
<!-- llm_gemini -->
<g id="node4" class="node">
<title>llm_gemini</title>
<path fill="#3f51b5" stroke="black" d="M297,-245.5C297,-245.5 233.75,-245.5 233.75,-245.5 227.75,-245.5 221.75,-239.5 221.75,-233.5 221.75,-233.5 221.75,-221.5 221.75,-221.5 221.75,-215.5 227.75,-209.5 233.75,-209.5 233.75,-209.5 297,-209.5 297,-209.5 303,-209.5 309,-215.5 309,-221.5 309,-221.5 309,-233.5 309,-233.5 309,-239.5 303,-245.5 297,-245.5"/>
<text xml:space="preserve" text-anchor="middle" x="265.38" y="-230.55" font-family="Arial" font-size="11.00" fill="white">Google Gemini</text>
<text xml:space="preserve" text-anchor="middle" x="265.38" y="-217.05" font-family="Arial" font-size="11.00" fill="white">2.5 Flash</text>
</g>
<!-- llm_gemini&#45;&gt;core -->
<g id="edge3" class="edge">
<title>llm_gemini&#45;&gt;core</title>
<path fill="none" stroke="#3f51b5" stroke-width="1.5" stroke-dasharray="5,2" d="M283.75,-209.02C283.75,-185.95 283.75,-149.5 283.75,-149.5 283.75,-149.5 547.62,-149.5 547.62,-149.5"/>
<polygon fill="#3f51b5" stroke="#3f51b5" stroke-width="1.5" points="547.62,-153 557.62,-149.5 547.62,-146 547.62,-153"/>
</g>
<!-- llm_ollama -->
<g id="node5" class="node">
<title>llm_ollama</title>
<path fill="#3f51b5" stroke="black" d="M404.88,-245.5C404.88,-245.5 349.88,-245.5 349.88,-245.5 343.88,-245.5 337.88,-239.5 337.88,-233.5 337.88,-233.5 337.88,-221.5 337.88,-221.5 337.88,-215.5 343.88,-209.5 349.88,-209.5 349.88,-209.5 404.88,-209.5 404.88,-209.5 410.88,-209.5 416.88,-215.5 416.88,-221.5 416.88,-221.5 416.88,-233.5 416.88,-233.5 416.88,-239.5 410.88,-245.5 404.88,-245.5"/>
<text xml:space="preserve" text-anchor="middle" x="377.38" y="-230.55" font-family="Arial" font-size="11.00" fill="white">Ollama</text>
<text xml:space="preserve" text-anchor="middle" x="377.38" y="-217.05" font-family="Arial" font-size="11.00" fill="white">Local Models</text>
</g>
<!-- llm_ollama&#45;&gt;core -->
<g id="edge4" class="edge">
<title>llm_ollama&#45;&gt;core</title>
<path fill="none" stroke="#3f51b5" stroke-width="1.5" stroke-dasharray="5,2" d="M395.06,-209.34C395.06,-187.15 395.06,-152.5 395.06,-152.5 395.06,-152.5 547.51,-152.5 547.51,-152.5"/>
<polygon fill="#3f51b5" stroke="#3f51b5" stroke-width="1.5" points="547.51,-156 557.51,-152.5 547.51,-149 547.51,-156"/>
</g>
<!-- llm_moonshot -->
<g id="node6" class="node">
<title>llm_moonshot</title>
<path fill="#3f51b5" stroke="black" d="M497,-245.5C497,-245.5 457.75,-245.5 457.75,-245.5 451.75,-245.5 445.75,-239.5 445.75,-233.5 445.75,-233.5 445.75,-221.5 445.75,-221.5 445.75,-215.5 451.75,-209.5 457.75,-209.5 457.75,-209.5 497,-209.5 497,-209.5 503,-209.5 509,-215.5 509,-221.5 509,-221.5 509,-233.5 509,-233.5 509,-239.5 503,-245.5 497,-245.5"/>
<text xml:space="preserve" text-anchor="middle" x="477.38" y="-230.55" font-family="Arial" font-size="11.00" fill="white">Moonshot</text>
<text xml:space="preserve" text-anchor="middle" x="477.38" y="-217.05" font-family="Arial" font-size="11.00" fill="white">v1&#45;8k</text>
</g>
<!-- llm_moonshot&#45;&gt;core -->
<g id="edge5" class="edge">
<title>llm_moonshot&#45;&gt;core</title>
<path fill="none" stroke="#3f51b5" stroke-width="1.5" stroke-dasharray="5,2" d="M488.69,-209.22C488.69,-188.18 488.69,-156.5 488.69,-156.5 488.69,-156.5 547.7,-156.5 547.7,-156.5"/>
<polygon fill="#3f51b5" stroke="#3f51b5" stroke-width="1.5" points="547.7,-160 557.7,-156.5 547.7,-153 547.7,-160"/>
</g>
<!-- llm_qwen -->
<g id="node7" class="node">
<title>llm_qwen</title>
<path fill="#3f51b5" stroke="black" d="M592.5,-245.5C592.5,-245.5 550.25,-245.5 550.25,-245.5 544.25,-245.5 538.25,-239.5 538.25,-233.5 538.25,-233.5 538.25,-221.5 538.25,-221.5 538.25,-215.5 544.25,-209.5 550.25,-209.5 550.25,-209.5 592.5,-209.5 592.5,-209.5 598.5,-209.5 604.5,-215.5 604.5,-221.5 604.5,-221.5 604.5,-233.5 604.5,-233.5 604.5,-239.5 598.5,-245.5 592.5,-245.5"/>
<text xml:space="preserve" text-anchor="middle" x="571.38" y="-230.55" font-family="Arial" font-size="11.00" fill="white">Qwen</text>
<text xml:space="preserve" text-anchor="middle" x="571.38" y="-217.05" font-family="Arial" font-size="11.00" fill="white">qwen&#45;max</text>
</g>
<!-- llm_qwen&#45;&gt;core -->
<g id="edge6" class="edge">
<title>llm_qwen&#45;&gt;core</title>
<path fill="none" stroke="#3f51b5" stroke-width="1.5" stroke-dasharray="5,2" d="M582.38,-209.21C582.38,-209.21 582.38,-172.08 582.38,-172.08"/>
<polygon fill="#3f51b5" stroke="#3f51b5" stroke-width="1.5" points="585.88,-172.08 582.38,-162.08 578.88,-172.08 585.88,-172.08"/>
</g>
<!-- llm_azure -->
<g id="node8" class="node">
<title>llm_azure</title>
<path fill="#3f51b5" stroke="black" d="M705.5,-245.5C705.5,-245.5 645.25,-245.5 645.25,-245.5 639.25,-245.5 633.25,-239.5 633.25,-233.5 633.25,-233.5 633.25,-221.5 633.25,-221.5 633.25,-215.5 639.25,-209.5 645.25,-209.5 645.25,-209.5 705.5,-209.5 705.5,-209.5 711.5,-209.5 717.5,-215.5 717.5,-221.5 717.5,-221.5 717.5,-233.5 717.5,-233.5 717.5,-239.5 711.5,-245.5 705.5,-245.5"/>
<text xml:space="preserve" text-anchor="middle" x="675.38" y="-230.55" font-family="Arial" font-size="11.00" fill="white">Azure OpenAI</text>
<text xml:space="preserve" text-anchor="middle" x="675.38" y="-217.05" font-family="Arial" font-size="11.00" fill="white">gpt&#45;35&#45;turbo</text>
</g>
<!-- llm_azure&#45;&gt;core -->
<g id="edge7" class="edge">
<title>llm_azure&#45;&gt;core</title>
<path fill="none" stroke="#3f51b5" stroke-width="1.5" stroke-dasharray="5,2" d="M659.88,-209.21C659.88,-209.21 659.88,-172.08 659.88,-172.08"/>
<polygon fill="#3f51b5" stroke="#3f51b5" stroke-width="1.5" points="663.38,-172.08 659.88,-162.08 656.38,-172.08 663.38,-172.08"/>
</g>
<!-- llm_g4f -->
<g id="node9" class="node">
<title>llm_g4f</title>
<path fill="#3f51b5" stroke="black" d="M812.5,-245.5C812.5,-245.5 758.25,-245.5 758.25,-245.5 752.25,-245.5 746.25,-239.5 746.25,-233.5 746.25,-233.5 746.25,-221.5 746.25,-221.5 746.25,-215.5 752.25,-209.5 758.25,-209.5 758.25,-209.5 812.5,-209.5 812.5,-209.5 818.5,-209.5 824.5,-215.5 824.5,-221.5 824.5,-221.5 824.5,-233.5 824.5,-233.5 824.5,-239.5 818.5,-245.5 812.5,-245.5"/>
<text xml:space="preserve" text-anchor="middle" x="785.38" y="-230.55" font-family="Arial" font-size="11.00" fill="white">GPT4Free</text>
<text xml:space="preserve" text-anchor="middle" x="785.38" y="-217.05" font-family="Arial" font-size="11.00" fill="white">gpt&#45;3.5&#45;turbo</text>
</g>
<!-- llm_g4f&#45;&gt;core -->
<g id="edge8" class="edge">
<title>llm_g4f&#45;&gt;core</title>
<path fill="none" stroke="#3f51b5" stroke-width="1.5" stroke-dasharray="5,2" d="M771.31,-209.22C771.31,-188.18 771.31,-156.5 771.31,-156.5 771.31,-156.5 699.24,-156.5 699.24,-156.5"/>
<polygon fill="#3f51b5" stroke="#3f51b5" stroke-width="1.5" points="699.24,-153 689.24,-156.5 699.24,-160 699.24,-153"/>
</g>
<!-- llm_minimax -->
<g id="node10" class="node">
<title>llm_minimax</title>
<path fill="#3f51b5" stroke="black" d="M897.25,-245.5C897.25,-245.5 865.5,-245.5 865.5,-245.5 859.5,-245.5 853.5,-239.5 853.5,-233.5 853.5,-233.5 853.5,-221.5 853.5,-221.5 853.5,-215.5 859.5,-209.5 865.5,-209.5 865.5,-209.5 897.25,-209.5 897.25,-209.5 903.25,-209.5 909.25,-215.5 909.25,-221.5 909.25,-221.5 909.25,-233.5 909.25,-233.5 909.25,-239.5 903.25,-245.5 897.25,-245.5"/>
<text xml:space="preserve" text-anchor="middle" x="881.38" y="-230.55" font-family="Arial" font-size="11.00" fill="white">MiniMax</text>
<text xml:space="preserve" text-anchor="middle" x="881.38" y="-217.05" font-family="Arial" font-size="11.00" fill="white">M2.7</text>
</g>
<!-- llm_minimax&#45;&gt;core -->
<g id="edge9" class="edge">
<title>llm_minimax&#45;&gt;core</title>
<path fill="none" stroke="#3f51b5" stroke-width="1.5" stroke-dasharray="5,2" d="M881.38,-209.34C881.38,-187.15 881.38,-152.5 881.38,-152.5 881.38,-152.5 699.09,-152.5 699.09,-152.5"/>
<polygon fill="#3f51b5" stroke="#3f51b5" stroke-width="1.5" points="699.09,-149 689.09,-152.5 699.09,-156 699.09,-149"/>
</g>
<!-- llm_ernie -->
<g id="node11" class="node">
<title>llm_ernie</title>
<path fill="#3f51b5" stroke="black" d="M1008,-245.5C1008,-245.5 950.75,-245.5 950.75,-245.5 944.75,-245.5 938.75,-239.5 938.75,-233.5 938.75,-233.5 938.75,-221.5 938.75,-221.5 938.75,-215.5 944.75,-209.5 950.75,-209.5 950.75,-209.5 1008,-209.5 1008,-209.5 1014,-209.5 1020,-215.5 1020,-221.5 1020,-221.5 1020,-233.5 1020,-233.5 1020,-239.5 1014,-245.5 1008,-245.5"/>
<text xml:space="preserve" text-anchor="middle" x="979.38" y="-230.55" font-family="Arial" font-size="11.00" fill="white">Wenxin Yiyan</text>
<text xml:space="preserve" text-anchor="middle" x="979.38" y="-217.05" font-family="Arial" font-size="11.00" fill="white">(ERNIE)</text>
</g>
<!-- llm_ernie&#45;&gt;core -->
<g id="edge10" class="edge">
<title>llm_ernie&#45;&gt;core</title>
<path fill="none" stroke="#3f51b5" stroke-width="1.5" stroke-dasharray="5,2" d="M948.62,-209.02C948.62,-185.95 948.62,-149.5 948.62,-149.5 948.62,-149.5 699.13,-149.5 699.13,-149.5"/>
<polygon fill="#3f51b5" stroke="#3f51b5" stroke-width="1.5" points="699.13,-146 689.13,-149.5 699.13,-153 699.13,-146"/>
</g>
<!-- llm_pollinations -->
<g id="node12" class="node">
<title>llm_pollinations</title>
<path fill="#3f51b5" stroke="black" d="M1107.75,-245.5C1107.75,-245.5 1061,-245.5 1061,-245.5 1055,-245.5 1049,-239.5 1049,-233.5 1049,-233.5 1049,-221.5 1049,-221.5 1049,-215.5 1055,-209.5 1061,-209.5 1061,-209.5 1107.75,-209.5 1107.75,-209.5 1113.75,-209.5 1119.75,-215.5 1119.75,-221.5 1119.75,-221.5 1119.75,-233.5 1119.75,-233.5 1119.75,-239.5 1113.75,-245.5 1107.75,-245.5"/>
<text xml:space="preserve" text-anchor="middle" x="1084.38" y="-230.55" font-family="Arial" font-size="11.00" fill="white">Pollinations</text>
<text xml:space="preserve" text-anchor="middle" x="1084.38" y="-217.05" font-family="Arial" font-size="11.00" fill="white">openai&#45;fast</text>
</g>
<!-- llm_pollinations&#45;&gt;core -->
<g id="edge11" class="edge">
<title>llm_pollinations&#45;&gt;core</title>
<path fill="none" stroke="#3f51b5" stroke-width="1.5" stroke-dasharray="5,2" d="M1061,-209.12C1061,-185.22 1061,-146.5 1061,-146.5 1061,-146.5 698.81,-146.5 698.81,-146.5"/>
<polygon fill="#3f51b5" stroke="#3f51b5" stroke-width="1.5" points="698.81,-143 688.81,-146.5 698.81,-150 698.81,-143"/>
</g>
<!-- llm_modelscope -->
<g id="node13" class="node">
<title>llm_modelscope</title>
<path fill="#3f51b5" stroke="black" d="M1212.38,-245.5C1212.38,-245.5 1160.38,-245.5 1160.38,-245.5 1154.38,-245.5 1148.38,-239.5 1148.38,-233.5 1148.38,-233.5 1148.38,-221.5 1148.38,-221.5 1148.38,-215.5 1154.38,-209.5 1160.38,-209.5 1160.38,-209.5 1212.38,-209.5 1212.38,-209.5 1218.38,-209.5 1224.38,-215.5 1224.38,-221.5 1224.38,-221.5 1224.38,-233.5 1224.38,-233.5 1224.38,-239.5 1218.38,-245.5 1212.38,-245.5"/>
<text xml:space="preserve" text-anchor="middle" x="1186.38" y="-230.55" font-family="Arial" font-size="11.00" fill="white">ModelScope</text>
<text xml:space="preserve" text-anchor="middle" x="1186.38" y="-217.05" font-family="Arial" font-size="11.00" fill="white">Qwen3&#45;32B</text>
</g>
<!-- llm_modelscope&#45;&gt;core -->
<g id="edge12" class="edge">
<title>llm_modelscope&#45;&gt;core</title>
<path fill="none" stroke="#3f51b5" stroke-width="1.5" stroke-dasharray="5,2" d="M1161.06,-209.06C1161.06,-184.06 1161.06,-142.5 1161.06,-142.5 1161.06,-142.5 699.17,-142.5 699.17,-142.5"/>
<polygon fill="#3f51b5" stroke="#3f51b5" stroke-width="1.5" points="699.17,-139 689.17,-142.5 699.17,-146 699.17,-139"/>
</g>
</g>
</svg>
