<?xml version="1.0" encoding="UTF-8" standalone="no"?>
<!DOCTYPE svg PUBLIC "-//W3C//DTD SVG 1.1//EN"
 "http://www.w3.org/Graphics/SVG/1.1/DTD/svg11.dtd">
<!-- Generated by graphviz version 14.1.2 (0)
 -->
<!-- Title: G Pages: 1 -->
<svg width="1322pt" height="2642pt"
 viewBox="0.00 0.00 1322.00 2642.00" xmlns="http://www.w3.org/2000/svg" xmlns:xlink="http://www.w3.org/1999/xlink">
<g id="graph0" class="graph" transform="scale(2.08333 2.08333) rotate(0) translate(4 1264)">
<title>G</title>
<polygon fill="white" stroke="none" points="-4,4 -4,-1264 630.4,-1264 630.4,4 -4,4"/>
<!-- center -->
<g id="node1" class="node">
<title>center</title>
<polygon fill="#1565c0" stroke="#0d47a1" stroke-width="2" points="180,-666 0,-666 0,-594 180,-594 180,-666"/>
<text xml:space="preserve" text-anchor="middle" x="90" y="-632.45" font-family="Arial" font-size="14.00" fill="white">Book&#45;to&#45;Skill</text>
<text xml:space="preserve" text-anchor="middle" x="90" y="-616.7" font-family="Arial" font-size="14.00" fill="white">Core Features</text>
</g>
<!-- cat1 -->
<g id="node2" class="node">
<title>cat1</title>
<path fill="#e3f2fd" stroke="#1565c0" d="M398.4,-1152.25C398.4,-1152.25 264,-1152.25 264,-1152.25 258,-1152.25 252,-1146.25 252,-1140.25 252,-1140.25 252,-1127.75 252,-1127.75 252,-1121.75 258,-1115.75 264,-1115.75 264,-1115.75 398.4,-1115.75 398.4,-1115.75 404.4,-1115.75 410.4,-1121.75 410.4,-1127.75 410.4,-1127.75 410.4,-1140.25 410.4,-1140.25 410.4,-1146.25 404.4,-1152.25 398.4,-1152.25"/>
<text xml:space="preserve" text-anchor="middle" x="331.2" y="-1136.85" font-family="Arial" font-size="12.00">Multi&#45;Format</text>
<text xml:space="preserve" text-anchor="middle" x="331.2" y="-1122.6" font-family="Arial" font-size="12.00">Input Support</text>
</g>
<!-- center&#45;&gt;cat1 -->
<g id="edge1" class="edge">
<title>center&#45;&gt;cat1</title>
<path fill="none" stroke="#90caf9" stroke-width="2" d="M60.4,-666.25C60.4,-781.81 60.4,-1134 60.4,-1134 60.4,-1134 238.75,-1134 238.75,-1134"/>
<polygon fill="#90caf9" stroke="#90caf9" stroke-width="2" points="238.75,-1137.5 248.75,-1134 238.75,-1130.5 238.75,-1137.5"/>
</g>
<!-- cat2 -->
<g id="node3" class="node">
<title>cat2</title>
<path fill="#e3f2fd" stroke="#1565c0" d="M398.4,-936.25C398.4,-936.25 264,-936.25 264,-936.25 258,-936.25 252,-930.25 252,-924.25 252,-924.25 252,-911.75 252,-911.75 252,-905.75 258,-899.75 264,-899.75 264,-899.75 398.4,-899.75 398.4,-899.75 404.4,-899.75 410.4,-905.75 410.4,-911.75 410.4,-911.75 410.4,-924.25 410.4,-924.25 410.4,-930.25 404.4,-936.25 398.4,-936.25"/>
<text xml:space="preserve" text-anchor="middle" x="331.2" y="-920.85" font-family="Arial" font-size="12.00">Smart Extraction</text>
<text xml:space="preserve" text-anchor="middle" x="331.2" y="-906.6" font-family="Arial" font-size="12.00">Pipeline</text>
</g>
<!-- center&#45;&gt;cat2 -->
<g id="edge2" class="edge">
<title>center&#45;&gt;cat2</title>
<path fill="none" stroke="#90caf9" stroke-width="2" d="M120.4,-666.48C120.4,-743.97 120.4,-918 120.4,-918 120.4,-918 238.48,-918 238.48,-918"/>
<polygon fill="#90caf9" stroke="#90caf9" stroke-width="2" points="238.48,-921.5 248.48,-918 238.48,-914.5 238.48,-921.5"/>
</g>
<!-- cat3 -->
<g id="node4" class="node">
<title>cat3</title>
<path fill="#e3f2fd" stroke="#1565c0" d="M398.4,-720.25C398.4,-720.25 264,-720.25 264,-720.25 258,-720.25 252,-714.25 252,-708.25 252,-708.25 252,-695.75 252,-695.75 252,-689.75 258,-683.75 264,-683.75 264,-683.75 398.4,-683.75 398.4,-683.75 404.4,-683.75 410.4,-689.75 410.4,-695.75 410.4,-695.75 410.4,-708.25 410.4,-708.25 410.4,-714.25 404.4,-720.25 398.4,-720.25"/>
<text xml:space="preserve" text-anchor="middle" x="331.2" y="-704.85" font-family="Arial" font-size="12.00">Structured Skill</text>
<text xml:space="preserve" text-anchor="middle" x="331.2" y="-690.6" font-family="Arial" font-size="12.00">Output</text>
</g>
<!-- center&#45;&gt;cat3 -->
<g id="edge3" class="edge">
<title>center&#45;&gt;cat3</title>
<path fill="none" stroke="#90caf9" stroke-width="2" d="M180.47,-657C230.81,-657 283.4,-657 283.4,-657 283.4,-657 283.4,-670.41 283.4,-670.41"/>
<polygon fill="#90caf9" stroke="#90caf9" stroke-width="2" points="279.9,-670.41 283.4,-680.41 286.9,-670.41 279.9,-670.41"/>
</g>
<!-- cat4 -->
<g id="node5" class="node">
<title>cat4</title>
<path fill="#e3f2fd" stroke="#1565c0" d="M398.4,-576.25C398.4,-576.25 264,-576.25 264,-576.25 258,-576.25 252,-570.25 252,-564.25 252,-564.25 252,-551.75 252,-551.75 252,-545.75 258,-539.75 264,-539.75 264,-539.75 398.4,-539.75 398.4,-539.75 404.4,-539.75 410.4,-545.75 410.4,-551.75 410.4,-551.75 410.4,-564.25 410.4,-564.25 410.4,-570.25 404.4,-576.25 398.4,-576.25"/>
<text xml:space="preserve" text-anchor="middle" x="331.2" y="-560.85" font-family="Arial" font-size="12.00">On&#45;Demand</text>
<text xml:space="preserve" text-anchor="middle" x="331.2" y="-546.6" font-family="Arial" font-size="12.00">Chapter Loading</text>
</g>
<!-- center&#45;&gt;cat4 -->
<g id="edge4" class="edge">
<title>center&#45;&gt;cat4</title>
<path fill="none" stroke="#90caf9" stroke-width="2" d="M180.38,-603C243.09,-603 315.4,-603 315.4,-603 315.4,-603 315.4,-589.59 315.4,-589.59"/>
<polygon fill="#90caf9" stroke="#90caf9" stroke-width="2" points="318.9,-589.59 315.4,-579.59 311.9,-589.59 318.9,-589.59"/>
</g>
<!-- cat5 -->
<g id="node6" class="node">
<title>cat5</title>
<path fill="#e3f2fd" stroke="#1565c0" d="M398.4,-360.25C398.4,-360.25 264,-360.25 264,-360.25 258,-360.25 252,-354.25 252,-348.25 252,-348.25 252,-335.75 252,-335.75 252,-329.75 258,-323.75 264,-323.75 264,-323.75 398.4,-323.75 398.4,-323.75 404.4,-323.75 410.4,-329.75 410.4,-335.75 410.4,-335.75 410.4,-348.25 410.4,-348.25 410.4,-354.25 404.4,-360.25 398.4,-360.25"/>
<text xml:space="preserve" text-anchor="middle" x="331.2" y="-344.85" font-family="Arial" font-size="12.00">Cost&#45;Aware</text>
<text xml:space="preserve" text-anchor="middle" x="331.2" y="-330.6" font-family="Arial" font-size="12.00">Processing</text>
</g>
<!-- center&#45;&gt;cat5 -->
<g id="edge5" class="edge">
<title>center&#45;&gt;cat5</title>
<path fill="none" stroke="#90caf9" stroke-width="2" d="M120.4,-593.52C120.4,-516.03 120.4,-342 120.4,-342 120.4,-342 238.48,-342 238.48,-342"/>
<polygon fill="#90caf9" stroke="#90caf9" stroke-width="2" points="238.48,-345.5 248.48,-342 238.48,-338.5 238.48,-345.5"/>
</g>
<!-- cat6 -->
<g id="node7" class="node">
<title>cat6</title>
<path fill="#e3f2fd" stroke="#1565c0" d="M398.4,-144.25C398.4,-144.25 264,-144.25 264,-144.25 258,-144.25 252,-138.25 252,-132.25 252,-132.25 252,-119.75 252,-119.75 252,-113.75 258,-107.75 264,-107.75 264,-107.75 398.4,-107.75 398.4,-107.75 404.4,-107.75 410.4,-113.75 410.4,-119.75 410.4,-119.75 410.4,-132.25 410.4,-132.25 410.4,-138.25 404.4,-144.25 398.4,-144.25"/>
<text xml:space="preserve" text-anchor="middle" x="331.2" y="-128.85" font-family="Arial" font-size="12.00">Quality</text>
<text xml:space="preserve" text-anchor="middle" x="331.2" y="-114.6" font-family="Arial" font-size="12.00">Principles</text>
</g>
<!-- center&#45;&gt;cat6 -->
<g id="edge6" class="edge">
<title>center&#45;&gt;cat6</title>
<path fill="none" stroke="#90caf9" stroke-width="2" d="M60.4,-593.75C60.4,-478.19 60.4,-126 60.4,-126 60.4,-126 238.75,-126 238.75,-126"/>
<polygon fill="#90caf9" stroke="#90caf9" stroke-width="2" points="238.75,-129.5 248.75,-126 238.75,-122.5 238.75,-129.5"/>
</g>
<!-- d1a -->
<g id="node8" class="node">
<title>d1a</title>
<path fill="#f5f5f5" stroke="#616161" d="M614.4,-1260C614.4,-1260 494.4,-1260 494.4,-1260 488.4,-1260 482.4,-1254 482.4,-1248 482.4,-1248 482.4,-1236 482.4,-1236 482.4,-1230 488.4,-1224 494.4,-1224 494.4,-1224 614.4,-1224 614.4,-1224 620.4,-1224 626.4,-1230 626.4,-1236 626.4,-1236 626.4,-1248 626.4,-1248 626.4,-1254 620.4,-1260 614.4,-1260"/>
<text xml:space="preserve" text-anchor="middle" x="554.4" y="-1244.5" font-family="Arial" font-size="10.00">PDF (pdftotext,</text>
<text xml:space="preserve" text-anchor="middle" x="554.4" y="-1232.5" font-family="Arial" font-size="10.00">PyPDF2, pdfminer)</text>
</g>
<!-- cat1&#45;&gt;d1a -->
<g id="edge7" class="edge">
<title>cat1&#45;&gt;d1a</title>
<path fill="none" stroke="black" d="M331.4,-1152.32C331.4,-1183.13 331.4,-1242 331.4,-1242 331.4,-1242 470.48,-1242 470.48,-1242"/>
<polygon fill="black" stroke="black" points="470.48,-1245.5 480.48,-1242 470.48,-1238.5 470.48,-1245.5"/>
</g>
<!-- d1b -->
<g id="node9" class="node">
<title>d1b</title>
<path fill="#f5f5f5" stroke="#616161" d="M614.4,-1188C614.4,-1188 494.4,-1188 494.4,-1188 488.4,-1188 482.4,-1182 482.4,-1176 482.4,-1176 482.4,-1164 482.4,-1164 482.4,-1158 488.4,-1152 494.4,-1152 494.4,-1152 614.4,-1152 614.4,-1152 620.4,-1152 626.4,-1158 626.4,-1164 626.4,-1164 626.4,-1176 626.4,-1176 626.4,-1182 620.4,-1188 614.4,-1188"/>
<text xml:space="preserve" text-anchor="middle" x="554.4" y="-1172.5" font-family="Arial" font-size="10.00">EPUB (ebooklib,</text>
<text xml:space="preserve" text-anchor="middle" x="554.4" y="-1160.5" font-family="Arial" font-size="10.00">stdlib zipfile)</text>
</g>
<!-- cat1&#45;&gt;d1b -->
<g id="edge8" class="edge">
<title>cat1&#45;&gt;d1b</title>
<path fill="none" stroke="black" d="M410.78,-1140C483.04,-1140 578.4,-1140 578.4,-1140 578.4,-1140 578.4,-1141.15 578.4,-1141.15"/>
<polygon fill="black" stroke="black" points="574.9,-1140 578.4,-1150 581.9,-1140 574.9,-1140"/>
</g>
<!-- d1c -->
<g id="node10" class="node">
<title>d1c</title>
<path fill="#f5f5f5" stroke="#616161" d="M614.4,-1116C614.4,-1116 494.4,-1116 494.4,-1116 488.4,-1116 482.4,-1110 482.4,-1104 482.4,-1104 482.4,-1092 482.4,-1092 482.4,-1086 488.4,-1080 494.4,-1080 494.4,-1080 614.4,-1080 614.4,-1080 620.4,-1080 626.4,-1086 626.4,-1092 626.4,-1092 626.4,-1104 626.4,-1104 626.4,-1110 620.4,-1116 614.4,-1116"/>
<text xml:space="preserve" text-anchor="middle" x="554.4" y="-1100.5" font-family="Arial" font-size="10.00">Docling for</text>
<text xml:space="preserve" text-anchor="middle" x="554.4" y="-1088.5" font-family="Arial" font-size="10.00">technical PDFs</text>
</g>
<!-- cat1&#45;&gt;d1c -->
<g id="edge9" class="edge">
<title>cat1&#45;&gt;d1c</title>
<path fill="none" stroke="black" d="M410.79,-1128C466.27,-1128 530.4,-1128 530.4,-1128 530.4,-1128 530.4,-1126.85 530.4,-1126.85"/>
<polygon fill="black" stroke="black" points="533.9,-1128 530.4,-1118 526.9,-1128 533.9,-1128"/>
</g>
<!-- d2a -->
<g id="node11" class="node">
<title>d2a</title>
<path fill="#f5f5f5" stroke="#616161" d="M614.4,-1044C614.4,-1044 494.4,-1044 494.4,-1044 488.4,-1044 482.4,-1038 482.4,-1032 482.4,-1032 482.4,-1020 482.4,-1020 482.4,-1014 488.4,-1008 494.4,-1008 494.4,-1008 614.4,-1008 614.4,-1008 620.4,-1008 626.4,-1014 626.4,-1020 626.4,-1020 626.4,-1032 626.4,-1032 626.4,-1038 620.4,-1044 614.4,-1044"/>
<text xml:space="preserve" text-anchor="middle" x="554.4" y="-1028.5" font-family="Arial" font-size="10.00">Auto book type</text>
<text xml:space="preserve" text-anchor="middle" x="554.4" y="-1016.5" font-family="Arial" font-size="10.00">detection</text>
</g>
<!-- cat2&#45;&gt;d2a -->
<g id="edge10" class="edge">
<title>cat2&#45;&gt;d2a</title>
<path fill="none" stroke="black" d="M331.4,-936.32C331.4,-967.13 331.4,-1026 331.4,-1026 331.4,-1026 470.48,-1026 470.48,-1026"/>
<polygon fill="black" stroke="black" points="470.48,-1029.5 480.48,-1026 470.48,-1022.5 470.48,-1029.5"/>
</g>
<!-- d2b -->
<g id="node12" class="node">
<title>d2b</title>
<path fill="#f5f5f5" stroke="#616161" d="M614.4,-972C614.4,-972 494.4,-972 494.4,-972 488.4,-972 482.4,-966 482.4,-960 482.4,-960 482.4,-948 482.4,-948 482.4,-942 488.4,-936 494.4,-936 494.4,-936 614.4,-936 614.4,-936 620.4,-936 626.4,-942 626.4,-948 626.4,-948 626.4,-960 626.4,-960 626.4,-966 620.4,-972 614.4,-972"/>
<text xml:space="preserve" text-anchor="middle" x="554.4" y="-956.5" font-family="Arial" font-size="10.00">Fallback chain</text>
<text xml:space="preserve" text-anchor="middle" x="554.4" y="-944.5" font-family="Arial" font-size="10.00">for robustness</text>
</g>
<!-- cat2&#45;&gt;d2b -->
<g id="edge11" class="edge">
<title>cat2&#45;&gt;d2b</title>
<path fill="none" stroke="black" d="M410.79,-924C466.27,-924 530.4,-924 530.4,-924 530.4,-924 530.4,-925.15 530.4,-925.15"/>
<polygon fill="black" stroke="black" points="526.9,-924 530.4,-934 533.9,-924 526.9,-924"/>
</g>
<!-- d2c -->
<g id="node13" class="node">
<title>d2c</title>
<path fill="#f5f5f5" stroke="#616161" d="M614.4,-900C614.4,-900 494.4,-900 494.4,-900 488.4,-900 482.4,-894 482.4,-888 482.4,-888 482.4,-876 482.4,-876 482.4,-870 488.4,-864 494.4,-864 494.4,-864 614.4,-864 614.4,-864 620.4,-864 626.4,-870 626.4,-876 626.4,-876 626.4,-888 626.4,-888 626.4,-894 620.4,-900 614.4,-900"/>
<text xml:space="preserve" text-anchor="middle" x="554.4" y="-884.5" font-family="Arial" font-size="10.00">Structure</text>
<text xml:space="preserve" text-anchor="middle" x="554.4" y="-872.5" font-family="Arial" font-size="10.00">preservation</text>
</g>
<!-- cat2&#45;&gt;d2c -->
<g id="edge12" class="edge">
<title>cat2&#45;&gt;d2c</title>
<path fill="none" stroke="black" d="M410.78,-912C483.04,-912 578.4,-912 578.4,-912 578.4,-912 578.4,-910.85 578.4,-910.85"/>
<polygon fill="black" stroke="black" points="581.9,-912 578.4,-902 574.9,-912 581.9,-912"/>
</g>
<!-- d3a -->
<g id="node14" class="node">
<title>d3a</title>
<path fill="#f5f5f5" stroke="#616161" d="M614.4,-828C614.4,-828 494.4,-828 494.4,-828 488.4,-828 482.4,-822 482.4,-816 482.4,-816 482.4,-804 482.4,-804 482.4,-798 488.4,-792 494.4,-792 494.4,-792 614.4,-792 614.4,-792 620.4,-792 626.4,-798 626.4,-804 626.4,-804 626.4,-816 626.4,-816 626.4,-822 620.4,-828 614.4,-828"/>
<text xml:space="preserve" text-anchor="middle" x="554.4" y="-812.5" font-family="Arial" font-size="10.00">SKILL.md</text>
<text xml:space="preserve" text-anchor="middle" x="554.4" y="-800.5" font-family="Arial" font-size="10.00">(core + index)</text>
</g>
<!-- cat3&#45;&gt;d3a -->
<g id="edge13" class="edge">
<title>cat3&#45;&gt;d3a</title>
<path fill="none" stroke="black" d="M331.4,-720.32C331.4,-751.13 331.4,-810 331.4,-810 331.4,-810 470.48,-810 470.48,-810"/>
<polygon fill="black" stroke="black" points="470.48,-813.5 480.48,-810 470.48,-806.5 470.48,-813.5"/>
</g>
<!-- d3b -->
<g id="node15" class="node">
<title>d3b</title>
<path fill="#f5f5f5" stroke="#616161" d="M614.4,-756C614.4,-756 494.4,-756 494.4,-756 488.4,-756 482.4,-750 482.4,-744 482.4,-744 482.4,-732 482.4,-732 482.4,-726 488.4,-720 494.4,-720 494.4,-720 614.4,-720 614.4,-720 620.4,-720 626.4,-726 626.4,-732 626.4,-732 626.4,-744 626.4,-744 626.4,-750 620.4,-756 614.4,-756"/>
<text xml:space="preserve" text-anchor="middle" x="554.4" y="-740.5" font-family="Arial" font-size="10.00">Chapter files</text>
<text xml:space="preserve" text-anchor="middle" x="554.4" y="-728.5" font-family="Arial" font-size="10.00">(800&#45;1200 tokens)</text>
</g>
<!-- cat3&#45;&gt;d3b -->
<g id="edge14" class="edge">
<title>cat3&#45;&gt;d3b</title>
<path fill="none" stroke="black" d="M410.84,-702C474.93,-702 554.4,-702 554.4,-702 554.4,-702 554.4,-708.06 554.4,-708.06"/>
<polygon fill="black" stroke="black" points="550.9,-708.06 554.4,-718.06 557.9,-708.06 550.9,-708.06"/>
</g>
<!-- d3c -->
<g id="node16" class="node">
<title>d3c</title>
<path fill="#f5f5f5" stroke="#616161" d="M614.4,-684C614.4,-684 494.4,-684 494.4,-684 488.4,-684 482.4,-678 482.4,-672 482.4,-672 482.4,-660 482.4,-660 482.4,-654 488.4,-648 494.4,-648 494.4,-648 614.4,-648 614.4,-648 620.4,-648 626.4,-654 626.4,-660 626.4,-660 626.4,-672 626.4,-672 626.4,-678 620.4,-684 614.4,-684"/>
<text xml:space="preserve" text-anchor="middle" x="554.4" y="-668.5" font-family="Arial" font-size="10.00">Glossary + Patterns</text>
<text xml:space="preserve" text-anchor="middle" x="554.4" y="-656.5" font-family="Arial" font-size="10.00">+ Cheatsheet</text>
</g>
<!-- cat3&#45;&gt;d3c -->
<g id="edge15" class="edge">
<title>cat3&#45;&gt;d3c</title>
<path fill="none" stroke="black" d="M347.4,-683.46C347.4,-678.69 347.4,-674.88 347.4,-674.88 347.4,-674.88 470.49,-674.88 470.49,-674.88"/>
<polygon fill="black" stroke="black" points="470.49,-678.38 480.49,-674.88 470.49,-671.38 470.49,-678.38"/>
</g>
<!-- d4a -->
<g id="node17" class="node">
<title>d4a</title>
<path fill="#f5f5f5" stroke="#616161" d="M614.4,-612C614.4,-612 494.4,-612 494.4,-612 488.4,-612 482.4,-606 482.4,-600 482.4,-600 482.4,-588 482.4,-588 482.4,-582 488.4,-576 494.4,-576 494.4,-576 614.4,-576 614.4,-576 620.4,-576 626.4,-582 626.4,-588 626.4,-588 626.4,-600 626.4,-600 626.4,-606 620.4,-612 614.4,-612"/>
<text xml:space="preserve" text-anchor="middle" x="554.4" y="-596.5" font-family="Arial" font-size="10.00">Chapters load</text>
<text xml:space="preserve" text-anchor="middle" x="554.4" y="-584.5" font-family="Arial" font-size="10.00">only when asked</text>
</g>
<!-- cat4&#45;&gt;d4a -->
<g id="edge16" class="edge">
<title>cat4&#45;&gt;d4a</title>
<path fill="none" stroke="black" d="M378.4,-576.54C378.4,-581.31 378.4,-585.12 378.4,-585.12 378.4,-585.12 470.54,-585.12 470.54,-585.12"/>
<polygon fill="black" stroke="black" points="470.54,-588.63 480.54,-585.13 470.54,-581.63 470.54,-588.63"/>
</g>
<!-- d4b -->
<g id="node18" class="node">
<title>d4b</title>
<path fill="#f5f5f5" stroke="#616161" d="M614.4,-540C614.4,-540 494.4,-540 494.4,-540 488.4,-540 482.4,-534 482.4,-528 482.4,-528 482.4,-516 482.4,-516 482.4,-510 488.4,-504 494.4,-504 494.4,-504 614.4,-504 614.4,-504 620.4,-504 626.4,-510 626.4,-516 626.4,-516 626.4,-528 626.4,-528 626.4,-534 620.4,-540 614.4,-540"/>
<text xml:space="preserve" text-anchor="middle" x="554.4" y="-524.5" font-family="Arial" font-size="10.00">Topic index for</text>
<text xml:space="preserve" text-anchor="middle" x="554.4" y="-512.5" font-family="Arial" font-size="10.00">navigation</text>
</g>
<!-- cat4&#45;&gt;d4b -->
<g id="edge17" class="edge">
<title>cat4&#45;&gt;d4b</title>
<path fill="none" stroke="black" d="M410.84,-558C474.93,-558 554.4,-558 554.4,-558 554.4,-558 554.4,-551.94 554.4,-551.94"/>
<polygon fill="black" stroke="black" points="557.9,-551.94 554.4,-541.94 550.9,-551.94 557.9,-551.94"/>
</g>
<!-- d4c -->
<g id="node19" class="node">
<title>d4c</title>
<path fill="#f5f5f5" stroke="#616161" d="M614.4,-468C614.4,-468 494.4,-468 494.4,-468 488.4,-468 482.4,-462 482.4,-456 482.4,-456 482.4,-444 482.4,-444 482.4,-438 488.4,-432 494.4,-432 494.4,-432 614.4,-432 614.4,-432 620.4,-432 626.4,-438 626.4,-444 626.4,-444 626.4,-456 626.4,-456 626.4,-462 620.4,-468 614.4,-468"/>
<text xml:space="preserve" text-anchor="middle" x="554.4" y="-452.5" font-family="Arial" font-size="10.00">Token budget</text>
<text xml:space="preserve" text-anchor="middle" x="554.4" y="-440.5" font-family="Arial" font-size="10.00">preserved</text>
</g>
<!-- cat4&#45;&gt;d4c -->
<g id="edge18" class="edge">
<title>cat4&#45;&gt;d4c</title>
<path fill="none" stroke="black" d="M331.4,-539.68C331.4,-508.87 331.4,-450 331.4,-450 331.4,-450 470.48,-450 470.48,-450"/>
<polygon fill="black" stroke="black" points="470.48,-453.5 480.48,-450 470.48,-446.5 470.48,-453.5"/>
</g>
<!-- d5a -->
<g id="node20" class="node">
<title>d5a</title>
<path fill="#f5f5f5" stroke="#616161" d="M614.4,-396C614.4,-396 494.4,-396 494.4,-396 488.4,-396 482.4,-390 482.4,-384 482.4,-384 482.4,-372 482.4,-372 482.4,-366 488.4,-360 494.4,-360 494.4,-360 614.4,-360 614.4,-360 620.4,-360 626.4,-366 626.4,-372 626.4,-372 626.4,-384 626.4,-384 626.4,-390 620.4,-396 614.4,-396"/>
<text xml:space="preserve" text-anchor="middle" x="554.4" y="-380.5" font-family="Arial" font-size="10.00">Pre&#45;flight token</text>
<text xml:space="preserve" text-anchor="middle" x="554.4" y="-368.5" font-family="Arial" font-size="10.00">estimate</text>
</g>
<!-- cat5&#45;&gt;d5a -->
<g id="edge19" class="edge">
<title>cat5&#45;&gt;d5a</title>
<path fill="none" stroke="black" d="M410.78,-348C483.04,-348 578.4,-348 578.4,-348 578.4,-348 578.4,-349.15 578.4,-349.15"/>
<polygon fill="black" stroke="black" points="574.9,-348 578.4,-358 581.9,-348 574.9,-348"/>
</g>
<!-- d5b -->
<g id="node21" class="node">
<title>d5b</title>
<path fill="#f5f5f5" stroke="#616161" d="M614.4,-324C614.4,-324 494.4,-324 494.4,-324 488.4,-324 482.4,-318 482.4,-312 482.4,-312 482.4,-300 482.4,-300 482.4,-294 488.4,-288 494.4,-288 494.4,-288 614.4,-288 614.4,-288 620.4,-288 626.4,-294 626.4,-300 626.4,-300 626.4,-312 626.4,-312 626.4,-318 620.4,-324 614.4,-324"/>
<text xml:space="preserve" text-anchor="middle" x="554.4" y="-308.5" font-family="Arial" font-size="10.00">Analyze&#45;only</text>
<text xml:space="preserve" text-anchor="middle" x="554.4" y="-296.5" font-family="Arial" font-size="10.00">mode option</text>
</g>
<!-- cat5&#45;&gt;d5b -->
<g id="edge20" class="edge">
<title>cat5&#45;&gt;d5b</title>
<path fill="none" stroke="black" d="M410.79,-336C466.27,-336 530.4,-336 530.4,-336 530.4,-336 530.4,-334.85 530.4,-334.85"/>
<polygon fill="black" stroke="black" points="533.9,-336 530.4,-326 526.9,-336 533.9,-336"/>
</g>
<!-- d5c -->
<g id="node22" class="node">
<title>d5c</title>
<path fill="#f5f5f5" stroke="#616161" d="M614.4,-252C614.4,-252 494.4,-252 494.4,-252 488.4,-252 482.4,-246 482.4,-240 482.4,-240 482.4,-228 482.4,-228 482.4,-222 488.4,-216 494.4,-216 494.4,-216 614.4,-216 614.4,-216 620.4,-216 626.4,-222 626.4,-228 626.4,-228 626.4,-240 626.4,-240 626.4,-246 620.4,-252 614.4,-252"/>
<text xml:space="preserve" text-anchor="middle" x="554.4" y="-236.5" font-family="Arial" font-size="10.00">Price estimate</text>
<text xml:space="preserve" text-anchor="middle" x="554.4" y="-224.5" font-family="Arial" font-size="10.00">before processing</text>
</g>
<!-- cat5&#45;&gt;d5c -->
<g id="edge21" class="edge">
<title>cat5&#45;&gt;d5c</title>
<path fill="none" stroke="black" d="M331.4,-323.68C331.4,-292.87 331.4,-234 331.4,-234 331.4,-234 470.48,-234 470.48,-234"/>
<polygon fill="black" stroke="black" points="470.48,-237.5 480.48,-234 470.48,-230.5 470.48,-237.5"/>
</g>
<!-- d6a -->
<g id="node23" class="node">
<title>d6a</title>
<path fill="#f5f5f5" stroke="#616161" d="M614.4,-180C614.4,-180 494.4,-180 494.4,-180 488.4,-180 482.4,-174 482.4,-168 482.4,-168 482.4,-156 482.4,-156 482.4,-150 488.4,-144 494.4,-144 494.4,-144 614.4,-144 614.4,-144 620.4,-144 626.4,-150 626.4,-156 626.4,-156 626.4,-168 626.4,-168 626.4,-174 620.4,-180 614.4,-180"/>
<text xml:space="preserve" text-anchor="middle" x="554.4" y="-164.5" font-family="Arial" font-size="10.00">Extract structure</text>
<text xml:space="preserve" text-anchor="middle" x="554.4" y="-152.5" font-family="Arial" font-size="10.00">not summaries</text>
</g>
<!-- cat6&#45;&gt;d6a -->
<g id="edge22" class="edge">
<title>cat6&#45;&gt;d6a</title>
<path fill="none" stroke="black" d="M410.78,-132C483.04,-132 578.4,-132 578.4,-132 578.4,-132 578.4,-133.15 578.4,-133.15"/>
<polygon fill="black" stroke="black" points="574.9,-132 578.4,-142 581.9,-132 574.9,-132"/>
</g>
<!-- d6b -->
<g id="node24" class="node">
<title>d6b</title>
<path fill="#f5f5f5" stroke="#616161" d="M614.4,-108C614.4,-108 494.4,-108 494.4,-108 488.4,-108 482.4,-102 482.4,-96 482.4,-96 482.4,-84 482.4,-84 482.4,-78 488.4,-72 494.4,-72 494.4,-72 614.4,-72 614.4,-72 620.4,-72 626.4,-78 626.4,-84 626.4,-84 626.4,-96 626.4,-96 626.4,-102 620.4,-108 614.4,-108"/>
<text xml:space="preserve" text-anchor="middle" x="554.4" y="-92.5" font-family="Arial" font-size="10.00">Preserve author</text>
<text xml:space="preserve" text-anchor="middle" x="554.4" y="-80.5" font-family="Arial" font-size="10.00">precision</text>
</g>
<!-- cat6&#45;&gt;d6b -->
<g id="edge23" class="edge">
<title>cat6&#45;&gt;d6b</title>
<path fill="none" stroke="black" d="M410.79,-120C466.27,-120 530.4,-120 530.4,-120 530.4,-120 530.4,-118.85 530.4,-118.85"/>
<polygon fill="black" stroke="black" points="533.9,-120 530.4,-110 526.9,-120 533.9,-120"/>
</g>
<!-- d6c -->
<g id="node25" class="node">
<title>d6c</title>
<path fill="#f5f5f5" stroke="#616161" d="M614.4,-36C614.4,-36 494.4,-36 494.4,-36 488.4,-36 482.4,-30 482.4,-24 482.4,-24 482.4,-12 482.4,-12 482.4,-6 488.4,0 494.4,0 494.4,0 614.4,0 614.4,0 620.4,0 626.4,-6 626.4,-12 626.4,-12 626.4,-24 626.4,-24 626.4,-30 620.4,-36 614.4,-36"/>
<text xml:space="preserve" text-anchor="middle" x="554.4" y="-20.5" font-family="Arial" font-size="10.00">Density over</text>
<text xml:space="preserve" text-anchor="middle" x="554.4" y="-8.5" font-family="Arial" font-size="10.00">completeness</text>
</g>
<!-- cat6&#45;&gt;d6c -->
<g id="edge24" class="edge">
<title>cat6&#45;&gt;d6c</title>
<path fill="none" stroke="black" d="M331.4,-107.68C331.4,-76.87 331.4,-18 331.4,-18 331.4,-18 470.48,-18 470.48,-18"/>
<polygon fill="black" stroke="black" points="470.48,-21.5 480.48,-18 470.48,-14.5 470.48,-21.5"/>
</g>
</g>
</svg>
