<?xml version="1.0" encoding="UTF-8" standalone="no"?>
<!DOCTYPE svg PUBLIC "-//W3C//DTD SVG 1.1//EN"
 "http://www.w3.org/Graphics/SVG/1.1/DTD/svg11.dtd">
<!-- Generated by graphviz version 14.1.2 (0)
 -->
<!-- Title: graphify_extraction Pages: 1 -->
<svg width="488pt" height="551pt"
 viewBox="0.00 0.00 488.00 551.00" xmlns="http://www.w3.org/2000/svg" xmlns:xlink="http://www.w3.org/1999/xlink">
<g id="graph0" class="graph" transform="scale(1 1) rotate(0) translate(4 546.75)">
<title>graphify_extraction</title>
<polygon fill="white" stroke="none" points="-4,4 -4,-546.75 483.5,-546.75 483.5,4 -4,4"/>
<!-- code -->
<g id="node1" class="node">
<title>code</title>
<polygon fill="#4caf50" stroke="black" points="88,-542.75 0,-542.75 0,-494.25 88,-494.25 88,-542.75"/>
<text xml:space="preserve" text-anchor="middle" x="44" y="-528.3" font-family="Arial" font-size="11.00" fill="white">Code Files</text>
<text xml:space="preserve" text-anchor="middle" x="44" y="-514.8" font-family="Arial" font-size="11.00" fill="white">(.py .ts .go .rs</text>
<text xml:space="preserve" text-anchor="middle" x="44" y="-501.3" font-family="Arial" font-size="11.00" fill="white">25 Languages)</text>
</g>
<!-- ast -->
<g id="node5" class="node">
<title>ast</title>
<path fill="#2196f3" stroke="black" d="M117.25,-316.25C117.25,-316.25 12.75,-316.25 12.75,-316.25 6.75,-316.25 0.75,-310.25 0.75,-304.25 0.75,-304.25 0.75,-249 0.75,-249 0.75,-243 6.75,-237 12.75,-237 12.75,-237 117.25,-237 117.25,-237 123.25,-237 129.25,-243 129.25,-249 129.25,-249 129.25,-304.25 129.25,-304.25 129.25,-310.25 123.25,-316.25 117.25,-316.25"/>
<text xml:space="preserve" text-anchor="middle" x="65" y="-300.85" font-family="Arial Bold" font-size="12.00" fill="white">Pass 1: AST</text>
<text xml:space="preserve" text-anchor="middle" x="65" y="-286.6" font-family="Arial Bold" font-size="12.00" fill="white">Tree&#45;Sitter Parse</text>
<text xml:space="preserve" text-anchor="middle" x="65" y="-272.35" font-family="Arial Bold" font-size="12.00" fill="white">Classes, Functions,</text>
<text xml:space="preserve" text-anchor="middle" x="65" y="-258.1" font-family="Arial Bold" font-size="12.00" fill="white">Imports, Call Graph</text>
<text xml:space="preserve" text-anchor="middle" x="65" y="-243.85" font-family="Arial Bold" font-size="12.00" fill="white">No LLM Needed</text>
</g>
<!-- code&#45;&gt;ast -->
<g id="edge1" class="edge">
<title>code&#45;&gt;ast</title>
<path fill="none" stroke="#4caf50" stroke-width="2" d="M44.38,-493.98C44.38,-493.98 44.38,-329.4 44.38,-329.4"/>
<polygon fill="#4caf50" stroke="#4caf50" stroke-width="2" points="47.88,-329.4 44.38,-319.4 40.88,-329.4 47.88,-329.4"/>
</g>
<!-- docs -->
<g id="node2" class="node">
<title>docs</title>
<polygon fill="#4caf50" stroke="black" points="215.5,-536.5 124.5,-536.5 124.5,-500.5 215.5,-500.5 215.5,-536.5"/>
<text xml:space="preserve" text-anchor="middle" x="170" y="-521.55" font-family="Arial" font-size="11.00" fill="white">Docs &amp; Papers</text>
<text xml:space="preserve" text-anchor="middle" x="170" y="-508.05" font-family="Arial" font-size="11.00" fill="white">(.md .pdf .docx)</text>
</g>
<!-- llm -->
<g id="node7" class="node">
<title>llm</title>
<path fill="#9c27b0" stroke="black" d="M328.62,-314.38C328.62,-314.38 217.38,-314.38 217.38,-314.38 211.38,-314.38 205.38,-308.38 205.38,-302.38 205.38,-302.38 205.38,-250.88 205.38,-250.88 205.38,-244.88 211.38,-238.88 217.38,-238.88 217.38,-238.88 328.62,-238.88 328.62,-238.88 334.62,-238.88 340.62,-244.88 340.62,-250.88 340.62,-250.88 340.62,-302.38 340.62,-302.38 340.62,-308.38 334.62,-314.38 328.62,-314.38"/>
<text xml:space="preserve" text-anchor="middle" x="273" y="-299.93" font-family="Arial" font-size="11.00" fill="white">Pass 3: LLM</text>
<text xml:space="preserve" text-anchor="middle" x="273" y="-286.43" font-family="Arial" font-size="11.00" fill="white">Claude Subagents</text>
<text xml:space="preserve" text-anchor="middle" x="273" y="-272.93" font-family="Arial" font-size="11.00" fill="white">(Parallel)</text>
<text xml:space="preserve" text-anchor="middle" x="273" y="-259.43" font-family="Arial" font-size="11.00" fill="white">Concepts, Relationships,</text>
<text xml:space="preserve" text-anchor="middle" x="273" y="-245.93" font-family="Arial" font-size="11.00" fill="white">Design Rationale</text>
</g>
<!-- docs&#45;&gt;llm -->
<g id="edge3" class="edge">
<title>docs&#45;&gt;llm</title>
<path fill="none" stroke="#4caf50" stroke-width="2" d="M210.44,-500.32C210.44,-500.32 210.44,-327.52 210.44,-327.52"/>
<polygon fill="#4caf50" stroke="#4caf50" stroke-width="2" points="213.94,-327.52 210.44,-317.52 206.94,-327.52 213.94,-327.52"/>
</g>
<!-- media -->
<g id="node3" class="node">
<title>media</title>
<polygon fill="#4caf50" stroke="black" points="470,-536.5 370,-536.5 370,-500.5 470,-500.5 470,-536.5"/>
<text xml:space="preserve" text-anchor="middle" x="420" y="-521.55" font-family="Arial" font-size="11.00" fill="white">Video &amp; Audio</text>
<text xml:space="preserve" text-anchor="middle" x="420" y="-508.05" font-family="Arial" font-size="11.00" fill="white">(.mp4 .mp3 .wav)</text>
</g>
<!-- whisper -->
<g id="node6" class="node">
<title>whisper</title>
<path fill="#ff9800" stroke="black" d="M467.5,-436.25C467.5,-436.25 364.5,-436.25 364.5,-436.25 358.5,-436.25 352.5,-430.25 352.5,-424.25 352.5,-424.25 352.5,-386.25 352.5,-386.25 352.5,-380.25 358.5,-374.25 364.5,-374.25 364.5,-374.25 467.5,-374.25 467.5,-374.25 473.5,-374.25 479.5,-380.25 479.5,-386.25 479.5,-386.25 479.5,-424.25 479.5,-424.25 479.5,-430.25 473.5,-436.25 467.5,-436.25"/>
<text xml:space="preserve" text-anchor="middle" x="416" y="-421.8" font-family="Arial" font-size="11.00" fill="white">Pass 2: Whisper</text>
<text xml:space="preserve" text-anchor="middle" x="416" y="-408.3" font-family="Arial" font-size="11.00" fill="white">faster&#45;whisper</text>
<text xml:space="preserve" text-anchor="middle" x="416" y="-394.8" font-family="Arial" font-size="11.00" fill="white">Local Transcription</text>
<text xml:space="preserve" text-anchor="middle" x="416" y="-381.3" font-family="Arial" font-size="11.00" fill="white">Domain&#45;Aware Prompt</text>
</g>
<!-- media&#45;&gt;whisper -->
<g id="edge2" class="edge">
<title>media&#45;&gt;whisper</title>
<path fill="none" stroke="#4caf50" stroke-width="2" d="M420,-500.05C420,-500.05 420,-449.55 420,-449.55"/>
<polygon fill="#4caf50" stroke="#4caf50" stroke-width="2" points="423.5,-449.55 420,-439.55 416.5,-449.55 423.5,-449.55"/>
</g>
<!-- images -->
<g id="node4" class="node">
<title>images</title>
<polygon fill="#4caf50" stroke="black" points="334,-536.5 252,-536.5 252,-500.5 334,-500.5 334,-536.5"/>
<text xml:space="preserve" text-anchor="middle" x="293" y="-521.55" font-family="Arial" font-size="11.00" fill="white">Images</text>
<text xml:space="preserve" text-anchor="middle" x="293" y="-508.05" font-family="Arial" font-size="11.00" fill="white">(.png .jpg .gif)</text>
</g>
<!-- images&#45;&gt;llm -->
<g id="edge4" class="edge">
<title>images&#45;&gt;llm</title>
<path fill="none" stroke="#4caf50" stroke-width="2" d="M279.33,-500.32C279.33,-500.32 279.33,-327.52 279.33,-327.52"/>
<polygon fill="#4caf50" stroke="#4caf50" stroke-width="2" points="282.83,-327.52 279.33,-317.52 275.83,-327.52 282.83,-327.52"/>
</g>
<!-- merge -->
<g id="node8" class="node">
<title>merge</title>
<path fill="#2196f3" stroke="black" d="M185.12,-179C185.12,-179 112.88,-179 112.88,-179 106.88,-179 100.88,-173 100.88,-167 100.88,-167 100.88,-126 100.88,-126 100.88,-120 106.88,-114 112.88,-114 112.88,-114 185.12,-114 185.12,-114 191.12,-114 197.12,-120 197.12,-126 197.12,-126 197.12,-167 197.12,-167 197.12,-173 191.12,-179 185.12,-179"/>
<text xml:space="preserve" text-anchor="middle" x="149" y="-163.6" font-family="Arial Bold" font-size="12.00" fill="white">Merge</text>
<text xml:space="preserve" text-anchor="middle" x="149" y="-149.35" font-family="Arial Bold" font-size="12.00" fill="white">Extractions</text>
<text xml:space="preserve" text-anchor="middle" x="149" y="-135.1" font-family="Arial Bold" font-size="12.00" fill="white">into NetworkX</text>
<text xml:space="preserve" text-anchor="middle" x="149" y="-120.85" font-family="Arial Bold" font-size="12.00" fill="white">Graph</text>
</g>
<!-- ast&#45;&gt;merge -->
<g id="edge6" class="edge">
<title>ast&#45;&gt;merge</title>
<path fill="none" stroke="#2196f3" stroke-width="2" d="M115.06,-236.52C115.06,-236.52 115.06,-192.3 115.06,-192.3"/>
<polygon fill="#2196f3" stroke="#2196f3" stroke-width="2" points="118.56,-192.3 115.06,-182.3 111.56,-192.3 118.56,-192.3"/>
</g>
<!-- whisper&#45;&gt;llm -->
<g id="edge5" class="edge">
<title>whisper&#45;&gt;llm</title>
<path fill="none" stroke="#ff9800" stroke-width="2" d="M352.08,-405C328.16,-405 306.67,-405 306.67,-405 306.67,-405 306.67,-327.82 306.67,-327.82"/>
<polygon fill="#ff9800" stroke="#ff9800" stroke-width="2" points="310.17,-327.82 306.67,-317.82 303.17,-327.82 310.17,-327.82"/>
</g>
<!-- llm&#45;&gt;merge -->
<g id="edge7" class="edge">
<title>llm&#45;&gt;merge</title>
<path fill="none" stroke="#9c27b0" stroke-width="2" d="M205.02,-277C182.55,-277 163.19,-277 163.19,-277 163.19,-277 163.19,-192.46 163.19,-192.46"/>
<polygon fill="#9c27b0" stroke="#9c27b0" stroke-width="2" points="166.69,-192.46 163.19,-182.46 159.69,-192.46 166.69,-192.46"/>
</g>
<!-- conf -->
<g id="node9" class="node">
<title>conf</title>
<polygon fill="#e8f5e9" stroke="black" points="206.5,-56 91.5,-56 91.5,0 206.5,0 206.5,-56"/>
<text xml:space="preserve" text-anchor="middle" x="149" y="-42.5" font-family="Arial" font-size="10.00" fill="#1b5e20">Confidence Tags</text>
<text xml:space="preserve" text-anchor="middle" x="149" y="-30.5" font-family="Arial" font-size="10.00" fill="#1b5e20">EXTRACTED (1.0)</text>
<text xml:space="preserve" text-anchor="middle" x="149" y="-18.5" font-family="Arial" font-size="10.00" fill="#1b5e20">INFERRED (0.0&#45;1.0)</text>
<text xml:space="preserve" text-anchor="middle" x="149" y="-6.5" font-family="Arial" font-size="10.00" fill="#1b5e20">AMBIGUOUS (review)</text>
</g>
<!-- merge&#45;&gt;conf -->
<g id="edge8" class="edge">
<title>merge&#45;&gt;conf</title>
<path fill="none" stroke="#4caf50" stroke-width="1.5" stroke-dasharray="5,2" d="M149,-113.81C149,-113.81 149,-68.43 149,-68.43"/>
<polygon fill="#4caf50" stroke="#4caf50" stroke-width="1.5" points="152.5,-68.43 149,-58.43 145.5,-68.43 152.5,-68.43"/>
</g>
</g>
</svg>
