<?xml version="1.0" encoding="UTF-8" standalone="no"?>
<!DOCTYPE svg PUBLIC "-//W3C//DTD SVG 1.1//EN"
 "http://www.w3.org/Graphics/SVG/1.1/DTD/svg11.dtd">
<!-- Generated by graphviz version 14.1.4 (20260321.0153)
 -->
<!-- Title: fluidvoice_models Pages: 1 -->
<svg width="821pt" height="467pt"
 viewBox="0.00 0.00 821.00 467.00" xmlns="http://www.w3.org/2000/svg" xmlns:xlink="http://www.w3.org/1999/xlink">
<style>
<!-- White text halo for edge label readability -->
text { paint-order: stroke; stroke: #ffffff; stroke-width: 3px; stroke-linejoin: round; fill: #1a1a2e; }
</style>
<g id="graph0" class="graph" transform="scale(1 1) rotate(0) translate(4 463.25)">
<title>fluidvoice_models</title>
<polygon fill="white" stroke="none" points="-4,4 -4,-463.25 816.5,-463.25 816.5,4 -4,4"/>
<text xml:space="preserve" text-anchor="middle" x="406.25" y="-7.2" font-family="Times New Roman,serif" font-size="14.00">FluidVoice &#45; Supported STT Models</text>
<!-- title -->
<g id="node1" class="node">
<title>title</title>
<path fill="#1565c0" stroke="black" d="M504.38,-459.25C504.38,-459.25 325.62,-459.25 325.62,-459.25 319.62,-459.25 313.62,-453.25 313.62,-447.25 313.62,-447.25 313.62,-435.25 313.62,-435.25 313.62,-429.25 319.62,-423.25 325.62,-423.25 325.62,-423.25 504.38,-423.25 504.38,-423.25 510.38,-423.25 516.38,-429.25 516.38,-435.25 516.38,-435.25 516.38,-447.25 516.38,-447.25 516.38,-453.25 510.38,-459.25 504.38,-459.25"/>
<text xml:space="preserve" text-anchor="middle" x="415" y="-435.82" font-family="Arial Bold" font-size="14.00" fill="#ffffff">FluidVoice Model Ecosystem</text>
</g>
<!-- nvidia_cat -->
<g id="node2" class="node">
<title>nvidia_cat</title>
<path fill="#2196f3" stroke="black" d="M333,-365.25C333,-365.25 263,-365.25 263,-365.25 257,-365.25 251,-359.25 251,-353.25 251,-353.25 251,-341.25 251,-341.25 251,-335.25 257,-329.25 263,-329.25 263,-329.25 333,-329.25 333,-329.25 339,-329.25 345,-335.25 345,-341.25 345,-341.25 345,-353.25 345,-353.25 345,-359.25 339,-365.25 333,-365.25"/>
<text xml:space="preserve" text-anchor="middle" x="298" y="-343.55" font-family="Arial Bold" font-size="11.00" fill="#ffffff">NVIDIA Models</text>
</g>
<!-- title&#45;&gt;nvidia_cat -->
<g id="edge1" class="edge">
<title>title&#45;&gt;nvidia_cat</title>
<path fill="none" stroke="#2196f3" stroke-width="2" d="M329.31,-423.13C329.31,-423.13 329.31,-378.67 329.31,-378.67"/>
<polygon fill="#2196f3" stroke="#2196f3" stroke-width="2" points="332.81,-378.67 329.31,-368.67 325.81,-378.67 332.81,-378.67"/>
</g>
<!-- other_cat -->
<g id="node7" class="node">
<title>other_cat</title>
<path fill="#2196f3" stroke="black" d="M622.88,-365.25C622.88,-365.25 561.12,-365.25 561.12,-365.25 555.12,-365.25 549.12,-359.25 549.12,-353.25 549.12,-353.25 549.12,-341.25 549.12,-341.25 549.12,-335.25 555.12,-329.25 561.12,-329.25 561.12,-329.25 622.88,-329.25 622.88,-329.25 628.88,-329.25 634.88,-335.25 634.88,-341.25 634.88,-341.25 634.88,-353.25 634.88,-353.25 634.88,-359.25 628.88,-365.25 622.88,-365.25"/>
<text xml:space="preserve" text-anchor="middle" x="592" y="-343.55" font-family="Arial Bold" font-size="11.00" fill="#ffffff">Other Models</text>
</g>
<!-- title&#45;&gt;other_cat -->
<g id="edge6" class="edge">
<title>title&#45;&gt;other_cat</title>
<path fill="none" stroke="#2196f3" stroke-width="2" d="M503.62,-423.07C503.62,-397.37 503.62,-353.5 503.62,-353.5 503.62,-353.5 535.82,-353.5 535.82,-353.5"/>
<polygon fill="#2196f3" stroke="#2196f3" stroke-width="2" points="535.82,-357 545.82,-353.5 535.82,-350 535.82,-357"/>
</g>
<!-- nemo -->
<g id="node3" class="node">
<title>nemo</title>
<path fill="#00bcd4" stroke="black" d="M88,-271.25C88,-271.25 12,-271.25 12,-271.25 6,-271.25 0,-265.25 0,-259.25 0,-259.25 0,-239.25 0,-239.25 0,-233.25 6,-227.25 12,-227.25 12,-227.25 88,-227.25 88,-227.25 94,-227.25 100,-233.25 100,-239.25 100,-239.25 100,-259.25 100,-259.25 100,-265.25 94,-271.25 88,-271.25"/>
<text xml:space="preserve" text-anchor="middle" x="50" y="-257.75" font-family="Arial" font-size="10.00" fill="#ffffff">NeMo Speech 3.5</text>
<text xml:space="preserve" text-anchor="middle" x="50" y="-245.75" font-family="Arial" font-size="10.00" fill="#ffffff">High Accuracy</text>
<text xml:space="preserve" text-anchor="middle" x="50" y="-233.75" font-family="Arial" font-size="10.00" fill="#ffffff">NVIDIA Proprietary</text>
</g>
<!-- nvidia_cat&#45;&gt;nemo -->
<g id="edge2" class="edge">
<title>nvidia_cat&#45;&gt;nemo</title>
<path fill="none" stroke="#00bcd4" stroke-width="1.5" d="M250.77,-353.5C178.81,-353.5 50,-353.5 50,-353.5 50,-353.5 50,-283.88 50,-283.88"/>
<polygon fill="#00bcd4" stroke="#00bcd4" stroke-width="1.5" points="53.5,-283.88 50,-273.88 46.5,-283.88 53.5,-283.88"/>
</g>
<!-- parakeet_flash -->
<g id="node4" class="node">
<title>parakeet_flash</title>
<path fill="#00bcd4" stroke="black" d="M206,-271.25C206,-271.25 148,-271.25 148,-271.25 142,-271.25 136,-265.25 136,-259.25 136,-259.25 136,-239.25 136,-239.25 136,-233.25 142,-227.25 148,-227.25 148,-227.25 206,-227.25 206,-227.25 212,-227.25 218,-233.25 218,-239.25 218,-239.25 218,-259.25 218,-259.25 218,-265.25 212,-271.25 206,-271.25"/>
<text xml:space="preserve" text-anchor="middle" x="177" y="-257.75" font-family="Arial" font-size="10.00" fill="#ffffff">Parakeet Flash</text>
<text xml:space="preserve" text-anchor="middle" x="177" y="-245.75" font-family="Arial" font-size="10.00" fill="#ffffff">Insanely Fast</text>
<text xml:space="preserve" text-anchor="middle" x="177" y="-233.75" font-family="Arial" font-size="10.00" fill="#ffffff">v1.6 Default</text>
</g>
<!-- nvidia_cat&#45;&gt;parakeet_flash -->
<g id="edge3" class="edge">
<title>nvidia_cat&#45;&gt;parakeet_flash</title>
<path fill="none" stroke="#00bcd4" stroke-width="1.5" d="M250.52,-341.5C216.63,-341.5 177,-341.5 177,-341.5 177,-341.5 177,-283.85 177,-283.85"/>
<polygon fill="#00bcd4" stroke="#00bcd4" stroke-width="1.5" points="180.5,-283.85 177,-273.85 173.5,-283.85 180.5,-283.85"/>
</g>
<!-- parakeet_v3 -->
<g id="node5" class="node">
<title>parakeet_v3</title>
<path fill="#00bcd4" stroke="black" d="M329.62,-271.25C329.62,-271.25 266.38,-271.25 266.38,-271.25 260.38,-271.25 254.38,-265.25 254.38,-259.25 254.38,-259.25 254.38,-239.25 254.38,-239.25 254.38,-233.25 260.38,-227.25 266.38,-227.25 266.38,-227.25 329.62,-227.25 329.62,-227.25 335.62,-227.25 341.62,-233.25 341.62,-239.25 341.62,-239.25 341.62,-259.25 341.62,-259.25 341.62,-265.25 335.62,-271.25 329.62,-271.25"/>
<text xml:space="preserve" text-anchor="middle" x="298" y="-257.75" font-family="Arial" font-size="10.00" fill="#ffffff">Parakeet v3</text>
<text xml:space="preserve" text-anchor="middle" x="298" y="-245.75" font-family="Arial" font-size="10.00" fill="#ffffff">Balanced Speed</text>
<text xml:space="preserve" text-anchor="middle" x="298" y="-233.75" font-family="Arial" font-size="10.00" fill="#ffffff">and Accuracy</text>
</g>
<!-- nvidia_cat&#45;&gt;parakeet_v3 -->
<g id="edge4" class="edge">
<title>nvidia_cat&#45;&gt;parakeet_v3</title>
<path fill="none" stroke="#00bcd4" stroke-width="1.5" d="M298,-328.82C298,-328.82 298,-284 298,-284"/>
<polygon fill="#00bcd4" stroke="#00bcd4" stroke-width="1.5" points="301.5,-284 298,-274 294.5,-284 301.5,-284"/>
</g>
<!-- parakeet_v2 -->
<g id="node6" class="node">
<title>parakeet_v2</title>
<path fill="#00bcd4" stroke="black" d="M442.38,-271.25C442.38,-271.25 389.62,-271.25 389.62,-271.25 383.62,-271.25 377.62,-265.25 377.62,-259.25 377.62,-259.25 377.62,-239.25 377.62,-239.25 377.62,-233.25 383.62,-227.25 389.62,-227.25 389.62,-227.25 442.38,-227.25 442.38,-227.25 448.38,-227.25 454.38,-233.25 454.38,-239.25 454.38,-239.25 454.38,-259.25 454.38,-259.25 454.38,-265.25 448.38,-271.25 442.38,-271.25"/>
<text xml:space="preserve" text-anchor="middle" x="416" y="-257.75" font-family="Arial" font-size="10.00" fill="#ffffff">Parakeet v2</text>
<text xml:space="preserve" text-anchor="middle" x="416" y="-245.75" font-family="Arial" font-size="10.00" fill="#ffffff">Legacy Model</text>
<text xml:space="preserve" text-anchor="middle" x="416" y="-233.75" font-family="Arial" font-size="10.00" fill="#ffffff">Stable</text>
</g>
<!-- nvidia_cat&#45;&gt;parakeet_v2 -->
<g id="edge5" class="edge">
<title>nvidia_cat&#45;&gt;parakeet_v2</title>
<path fill="none" stroke="#00bcd4" stroke-width="1.5" d="M345.32,-341.5C378.14,-341.5 416,-341.5 416,-341.5 416,-341.5 416,-283.85 416,-283.85"/>
<polygon fill="#00bcd4" stroke="#00bcd4" stroke-width="1.5" points="419.5,-283.85 416,-273.85 412.5,-283.85 419.5,-283.85"/>
</g>
<!-- enhance -->
<g id="node11" class="node">
<title>enhance</title>
<path fill="#2196f3" stroke="black" d="M487,-169.25C487,-169.25 345,-169.25 345,-169.25 339,-169.25 333,-163.25 333,-157.25 333,-157.25 333,-130.5 333,-130.5 333,-124.5 339,-118.5 345,-118.5 345,-118.5 487,-118.5 487,-118.5 493,-118.5 499,-124.5 499,-130.5 499,-130.5 499,-157.25 499,-157.25 499,-163.25 493,-169.25 487,-169.25"/>
<text xml:space="preserve" text-anchor="middle" x="416" y="-153.85" font-family="Arial Bold" font-size="12.00" fill="#ffffff">AI Enhancement Layer</text>
<text xml:space="preserve" text-anchor="middle" x="416" y="-139.6" font-family="Arial Bold" font-size="12.00" fill="#ffffff">Custom Trained Model</text>
<text xml:space="preserve" text-anchor="middle" x="416" y="-125.35" font-family="Arial Bold" font-size="12.00" fill="#ffffff">Punctuation + Corrections</text>
</g>
<!-- nemo&#45;&gt;enhance -->
<g id="edge10" class="edge">
<title>nemo&#45;&gt;enhance</title>
<path fill="none" stroke="#ff9800" stroke-width="1.5" stroke-dasharray="5,2" d="M50,-226.78C50,-193.63 50,-135.5 50,-135.5 50,-135.5 320.68,-135.5 320.68,-135.5"/>
<polygon fill="#ff9800" stroke="#ff9800" stroke-width="1.5" points="320.68,-139 330.68,-135.5 320.68,-132 320.68,-139"/>
</g>
<!-- parakeet_flash&#45;&gt;enhance -->
<g id="edge11" class="edge">
<title>parakeet_flash&#45;&gt;enhance</title>
<path fill="none" stroke="#ff9800" stroke-width="1.5" stroke-dasharray="5,2" d="M177,-226.81C177,-198.23 177,-152.5 177,-152.5 177,-152.5 320.47,-152.5 320.47,-152.5"/>
<polygon fill="#ff9800" stroke="#ff9800" stroke-width="1.5" points="320.47,-156 330.47,-152.5 320.47,-149 320.47,-156"/>
</g>
<!-- parakeet_v3&#45;&gt;enhance -->
<g id="edge12" class="edge">
<title>parakeet_v3&#45;&gt;enhance</title>
<path fill="none" stroke="#ff9800" stroke-width="1.5" stroke-dasharray="5,2" d="M337.31,-226.9C337.31,-226.9 337.31,-181.8 337.31,-181.8"/>
<polygon fill="#ff9800" stroke="#ff9800" stroke-width="1.5" points="340.81,-181.8 337.31,-171.8 333.81,-181.8 340.81,-181.8"/>
</g>
<!-- parakeet_v2&#45;&gt;enhance -->
<g id="edge13" class="edge">
<title>parakeet_v2&#45;&gt;enhance</title>
<path fill="none" stroke="#ff9800" stroke-width="1.5" stroke-dasharray="5,2" d="M416,-226.9C416,-226.9 416,-181.8 416,-181.8"/>
<polygon fill="#ff9800" stroke="#ff9800" stroke-width="1.5" points="419.5,-181.8 416,-171.8 412.5,-181.8 419.5,-181.8"/>
</g>
<!-- cohere -->
<g id="node8" class="node">
<title>cohere</title>
<path fill="#00bcd4" stroke="black" d="M563.12,-271.25C563.12,-271.25 502.88,-271.25 502.88,-271.25 496.88,-271.25 490.88,-265.25 490.88,-259.25 490.88,-259.25 490.88,-239.25 490.88,-239.25 490.88,-233.25 496.88,-227.25 502.88,-227.25 502.88,-227.25 563.12,-227.25 563.12,-227.25 569.12,-227.25 575.12,-233.25 575.12,-239.25 575.12,-239.25 575.12,-259.25 575.12,-259.25 575.12,-265.25 569.12,-271.25 563.12,-271.25"/>
<text xml:space="preserve" text-anchor="middle" x="533" y="-257.75" font-family="Arial" font-size="10.00" fill="#ffffff">Cohere</text>
<text xml:space="preserve" text-anchor="middle" x="533" y="-245.75" font-family="Arial" font-size="10.00" fill="#ffffff">Alternative STT</text>
<text xml:space="preserve" text-anchor="middle" x="533" y="-233.75" font-family="Arial" font-size="10.00" fill="#ffffff">Model</text>
</g>
<!-- other_cat&#45;&gt;cohere -->
<g id="edge7" class="edge">
<title>other_cat&#45;&gt;cohere</title>
<path fill="none" stroke="#00bcd4" stroke-width="1.5" d="M562.12,-328.82C562.12,-328.82 562.12,-284 562.12,-284"/>
<polygon fill="#00bcd4" stroke="#00bcd4" stroke-width="1.5" points="565.63,-284 562.13,-274 558.63,-284 565.63,-284"/>
</g>
<!-- apple_speech -->
<g id="node9" class="node">
<title>apple_speech</title>
<path fill="#00bcd4" stroke="black" d="M679.25,-271.25C679.25,-271.25 622.75,-271.25 622.75,-271.25 616.75,-271.25 610.75,-265.25 610.75,-259.25 610.75,-259.25 610.75,-239.25 610.75,-239.25 610.75,-233.25 616.75,-227.25 622.75,-227.25 622.75,-227.25 679.25,-227.25 679.25,-227.25 685.25,-227.25 691.25,-233.25 691.25,-239.25 691.25,-239.25 691.25,-259.25 691.25,-259.25 691.25,-265.25 685.25,-271.25 679.25,-271.25"/>
<text xml:space="preserve" text-anchor="middle" x="651" y="-257.75" font-family="Arial" font-size="10.00" fill="#ffffff">Apple Speech</text>
<text xml:space="preserve" text-anchor="middle" x="651" y="-245.75" font-family="Arial" font-size="10.00" fill="#ffffff">macOS Native</text>
<text xml:space="preserve" text-anchor="middle" x="651" y="-233.75" font-family="Arial" font-size="10.00" fill="#ffffff">Integration</text>
</g>
<!-- other_cat&#45;&gt;apple_speech -->
<g id="edge8" class="edge">
<title>other_cat&#45;&gt;apple_speech</title>
<path fill="none" stroke="#00bcd4" stroke-width="1.5" d="M622.81,-328.82C622.81,-328.82 622.81,-284 622.81,-284"/>
<polygon fill="#00bcd4" stroke="#00bcd4" stroke-width="1.5" points="626.31,-284 622.81,-274 619.31,-284 626.31,-284"/>
</g>
<!-- whisper_blue -->
<g id="node10" class="node">
<title>whisper_blue</title>
<path fill="#00bcd4" stroke="black" d="M800.5,-271.25C800.5,-271.25 739.5,-271.25 739.5,-271.25 733.5,-271.25 727.5,-265.25 727.5,-259.25 727.5,-259.25 727.5,-239.25 727.5,-239.25 727.5,-233.25 733.5,-227.25 739.5,-227.25 739.5,-227.25 800.5,-227.25 800.5,-227.25 806.5,-227.25 812.5,-233.25 812.5,-239.25 812.5,-239.25 812.5,-259.25 812.5,-259.25 812.5,-265.25 806.5,-271.25 800.5,-271.25"/>
<text xml:space="preserve" text-anchor="middle" x="770" y="-257.75" font-family="Arial" font-size="10.00" fill="#ffffff">Whisper&#45;blue</text>
<text xml:space="preserve" text-anchor="middle" x="770" y="-245.75" font-family="Arial" font-size="10.00" fill="#ffffff">Open Source</text>
<text xml:space="preserve" text-anchor="middle" x="770" y="-233.75" font-family="Arial" font-size="10.00" fill="#ffffff">Whisper Variant</text>
</g>
<!-- other_cat&#45;&gt;whisper_blue -->
<g id="edge9" class="edge">
<title>other_cat&#45;&gt;whisper_blue</title>
<path fill="none" stroke="#00bcd4" stroke-width="1.5" d="M635.09,-347.5C687.77,-347.5 770,-347.5 770,-347.5 770,-347.5 770,-283.81 770,-283.81"/>
<polygon fill="#00bcd4" stroke="#00bcd4" stroke-width="1.5" points="773.5,-283.81 770,-273.81 766.5,-283.81 773.5,-283.81"/>
</g>
<!-- cohere&#45;&gt;enhance -->
<g id="edge14" class="edge">
<title>cohere&#45;&gt;enhance</title>
<path fill="none" stroke="#ff9800" stroke-width="1.5" stroke-dasharray="5,2" d="M494.94,-226.9C494.94,-226.9 494.94,-181.8 494.94,-181.8"/>
<polygon fill="#ff9800" stroke="#ff9800" stroke-width="1.5" points="498.44,-181.8 494.94,-171.8 491.44,-181.8 498.44,-181.8"/>
</g>
<!-- apple_speech&#45;&gt;enhance -->
<g id="edge15" class="edge">
<title>apple_speech&#45;&gt;enhance</title>
<path fill="none" stroke="#ff9800" stroke-width="1.5" stroke-dasharray="5,2" d="M651,-226.81C651,-198.23 651,-152.5 651,-152.5 651,-152.5 511.45,-152.5 511.45,-152.5"/>
<polygon fill="#ff9800" stroke="#ff9800" stroke-width="1.5" points="511.45,-149 501.45,-152.5 511.45,-156 511.45,-149"/>
</g>
<!-- whisper_blue&#45;&gt;enhance -->
<g id="edge16" class="edge">
<title>whisper_blue&#45;&gt;enhance</title>
<path fill="none" stroke="#ff9800" stroke-width="1.5" stroke-dasharray="5,2" d="M770,-226.78C770,-193.63 770,-135.5 770,-135.5 770,-135.5 511.72,-135.5 511.72,-135.5"/>
<polygon fill="#ff9800" stroke="#ff9800" stroke-width="1.5" points="511.72,-132 501.72,-135.5 511.72,-139 511.72,-132"/>
</g>
<!-- output -->
<g id="node12" class="node">
<title>output</title>
<polygon fill="#ff9800" stroke="black" points="477.25,-60.5 354.75,-60.5 354.75,-24.5 477.25,-24.5 477.25,-60.5"/>
<text xml:space="preserve" text-anchor="middle" x="416" y="-38.8" font-family="Arial" font-size="11.00" fill="#ffffff">Enhanced Text Output</text>
</g>
<!-- enhance&#45;&gt;output -->
<g id="edge17" class="edge">
<title>enhance&#45;&gt;output</title>
<path fill="none" stroke="#ff9800" stroke-width="2" d="M416,-118.03C416,-118.03 416,-73.97 416,-73.97"/>
<polygon fill="#ff9800" stroke="#ff9800" stroke-width="2" points="419.5,-73.97 416,-63.97 412.5,-73.97 419.5,-73.97"/>
<text xml:space="preserve" text-anchor="middle" x="381.88" y="-99.2" font-family="Times New Roman,serif" font-size="14.00">Best Quality</text>
</g>
</g>
</svg>
