<?xml version="1.0" encoding="UTF-8" standalone="no"?>
<!DOCTYPE svg PUBLIC "-//W3C//DTD SVG 1.1//EN"
 "http://www.w3.org/Graphics/SVG/1.1/DTD/svg11.dtd">
<!-- Generated by graphviz version 14.1.3 (0)
 -->
<!-- Title: officecli_features Pages: 1 -->
<svg width="613pt" height="681pt"
 viewBox="0.00 0.00 613.00 681.00" xmlns="http://www.w3.org/2000/svg" xmlns:xlink="http://www.w3.org/1999/xlink">
<style>
<!-- White text halo for edge label readability -->
text { paint-order: stroke; stroke: #ffffff; stroke-width: 3px; stroke-linejoin: round; fill: #1a1a2e; }
</style>
<g id="graph0" class="graph" transform="scale(1 1) rotate(0) translate(4 676.5)">
<title>officecli_features</title>
<polygon fill="white" stroke="none" points="-4,4 -4,-676.5 609.38,-676.5 609.38,4 -4,4"/>
<text xml:space="preserve" text-anchor="middle" x="302.69" y="-7.2" font-family="Times New Roman,serif" font-size="14.00">OfficeCLI &#45; Key Features</text>
<!-- feat_path -->
<g id="node1" class="node">
<title>feat_path</title>
<path fill="#0d9488" stroke="black" d="M206.38,-672.5C206.38,-672.5 89.88,-672.5 89.88,-672.5 83.88,-672.5 77.88,-666.5 77.88,-660.5 77.88,-660.5 77.88,-648.5 77.88,-648.5 77.88,-642.5 83.88,-636.5 89.88,-636.5 89.88,-636.5 206.38,-636.5 206.38,-636.5 212.38,-636.5 218.38,-642.5 218.38,-648.5 218.38,-648.5 218.38,-660.5 218.38,-660.5 218.38,-666.5 212.38,-672.5 206.38,-672.5"/>
<text xml:space="preserve" text-anchor="middle" x="148.12" y="-650.8" font-family="Arial Bold" font-size="11.00" fill="white">Path&#45;Based Addressing</text>
</g>
<!-- feat_path_desc -->
<g id="node2" class="node">
<title>feat_path_desc</title>
<polygon fill="#f0fdfa" stroke="black" points="126.25,-578.5 0,-578.5 0,-534.5 126.25,-534.5 126.25,-578.5"/>
<text xml:space="preserve" text-anchor="middle" x="63.12" y="-565" font-family="Arial" font-size="10.00" fill="#134e4a">Access any element with</text>
<text xml:space="preserve" text-anchor="middle" x="63.12" y="-553" font-family="Arial" font-size="10.00" fill="#134e4a">/slide[1]/shape[2] syntax</text>
<text xml:space="preserve" text-anchor="middle" x="63.12" y="-541" font-family="Arial" font-size="10.00" fill="#134e4a">No XPath needed</text>
</g>
<!-- feat_path&#45;&gt;feat_path_desc -->
<g id="edge1" class="edge">
<title>feat_path&#45;&gt;feat_path_desc</title>
<path fill="none" stroke="#0d9488" stroke-width="1.5" stroke-dasharray="5,2" d="M102.06,-636.07C102.06,-636.07 102.06,-591.25 102.06,-591.25"/>
<polygon fill="#0d9488" stroke="#0d9488" stroke-width="1.5" points="105.56,-591.25 102.06,-581.25 98.56,-591.25 105.56,-591.25"/>
</g>
<!-- feat_json -->
<g id="node3" class="node">
<title>feat_json</title>
<path fill="#0d9488" stroke="black" d="M294.25,-574.5C294.25,-574.5 174,-574.5 174,-574.5 168,-574.5 162,-568.5 162,-562.5 162,-562.5 162,-550.5 162,-550.5 162,-544.5 168,-538.5 174,-538.5 174,-538.5 294.25,-538.5 294.25,-538.5 300.25,-538.5 306.25,-544.5 306.25,-550.5 306.25,-550.5 306.25,-562.5 306.25,-562.5 306.25,-568.5 300.25,-574.5 294.25,-574.5"/>
<text xml:space="preserve" text-anchor="middle" x="234.12" y="-552.8" font-family="Arial Bold" font-size="11.00" fill="white">Structured JSON Output</text>
</g>
<!-- feat_path&#45;&gt;feat_json -->
<!-- feat_json_desc -->
<g id="node4" class="node">
<title>feat_json_desc</title>
<polygon fill="#f0fdfa" stroke="black" points="218.38,-476.5 95.88,-476.5 95.88,-432.5 218.38,-432.5 218.38,-476.5"/>
<text xml:space="preserve" text-anchor="middle" x="157.12" y="-463" font-family="Arial" font-size="10.00" fill="#134e4a">Every command returns</text>
<text xml:space="preserve" text-anchor="middle" x="157.12" y="-451" font-family="Arial" font-size="10.00" fill="#134e4a">machine&#45;readable JSON</text>
<text xml:space="preserve" text-anchor="middle" x="157.12" y="-439" font-family="Arial" font-size="10.00" fill="#134e4a">Perfect for AI parsing</text>
</g>
<!-- feat_json&#45;&gt;feat_json_desc -->
<g id="edge2" class="edge">
<title>feat_json&#45;&gt;feat_json_desc</title>
<path fill="none" stroke="#0d9488" stroke-width="1.5" stroke-dasharray="5,2" d="M190.19,-538.26C190.19,-538.26 190.19,-489.12 190.19,-489.12"/>
<polygon fill="#0d9488" stroke="#0d9488" stroke-width="1.5" points="193.69,-489.12 190.19,-479.12 186.69,-489.12 193.69,-489.12"/>
</g>
<!-- feat_visual -->
<g id="node5" class="node">
<title>feat_visual</title>
<path fill="#0d9488" stroke="black" d="M353.38,-472.5C353.38,-472.5 266.88,-472.5 266.88,-472.5 260.88,-472.5 254.88,-466.5 254.88,-460.5 254.88,-460.5 254.88,-448.5 254.88,-448.5 254.88,-442.5 260.88,-436.5 266.88,-436.5 266.88,-436.5 353.38,-436.5 353.38,-436.5 359.38,-436.5 365.38,-442.5 365.38,-448.5 365.38,-448.5 365.38,-460.5 365.38,-460.5 365.38,-466.5 359.38,-472.5 353.38,-472.5"/>
<text xml:space="preserve" text-anchor="middle" x="310.12" y="-450.8" font-family="Arial Bold" font-size="11.00" fill="white">Visual Verification</text>
</g>
<!-- feat_json&#45;&gt;feat_visual -->
<!-- feat_visual_desc -->
<g id="node6" class="node">
<title>feat_visual_desc</title>
<polygon fill="#f0fdfa" stroke="black" points="301.62,-374.5 162.62,-374.5 162.62,-330.5 301.62,-330.5 301.62,-374.5"/>
<text xml:space="preserve" text-anchor="middle" x="232.12" y="-361" font-family="Arial" font-size="10.00" fill="#134e4a">Built&#45;in HTML/PNG renderer</text>
<text xml:space="preserve" text-anchor="middle" x="232.12" y="-349" font-family="Arial" font-size="10.00" fill="#134e4a">lets agents see what</text>
<text xml:space="preserve" text-anchor="middle" x="232.12" y="-337" font-family="Arial" font-size="10.00" fill="#134e4a">they create</text>
</g>
<!-- feat_visual&#45;&gt;feat_visual_desc -->
<g id="edge3" class="edge">
<title>feat_visual&#45;&gt;feat_visual_desc</title>
<path fill="none" stroke="#0d9488" stroke-width="1.5" stroke-dasharray="5,2" d="M278.25,-436.26C278.25,-436.26 278.25,-387.12 278.25,-387.12"/>
<polygon fill="#0d9488" stroke="#0d9488" stroke-width="1.5" points="281.75,-387.12 278.25,-377.12 274.75,-387.12 281.75,-387.12"/>
</g>
<!-- feat_layers -->
<g id="node7" class="node">
<title>feat_layers</title>
<path fill="#0d9488" stroke="black" d="M426.5,-370.5C426.5,-370.5 349.75,-370.5 349.75,-370.5 343.75,-370.5 337.75,-364.5 337.75,-358.5 337.75,-358.5 337.75,-346.5 337.75,-346.5 337.75,-340.5 343.75,-334.5 349.75,-334.5 349.75,-334.5 426.5,-334.5 426.5,-334.5 432.5,-334.5 438.5,-340.5 438.5,-346.5 438.5,-346.5 438.5,-358.5 438.5,-358.5 438.5,-364.5 432.5,-370.5 426.5,-370.5"/>
<text xml:space="preserve" text-anchor="middle" x="388.12" y="-348.8" font-family="Arial Bold" font-size="11.00" fill="white">Three&#45;Layer API</text>
</g>
<!-- feat_visual&#45;&gt;feat_layers -->
<!-- feat_layers_desc -->
<g id="node8" class="node">
<title>feat_layers_desc</title>
<polygon fill="#f0fdfa" stroke="black" points="366.62,-272.5 263.62,-272.5 263.62,-228.5 366.62,-228.5 366.62,-272.5"/>
<text xml:space="preserve" text-anchor="middle" x="315.12" y="-259" font-family="Arial" font-size="10.00" fill="#134e4a">High&#45;level reads</text>
<text xml:space="preserve" text-anchor="middle" x="315.12" y="-247" font-family="Arial" font-size="10.00" fill="#134e4a">Mid&#45;level operations</text>
<text xml:space="preserve" text-anchor="middle" x="315.12" y="-235" font-family="Arial" font-size="10.00" fill="#134e4a">Raw XML access</text>
</g>
<!-- feat_layers&#45;&gt;feat_layers_desc -->
<g id="edge4" class="edge">
<title>feat_layers&#45;&gt;feat_layers_desc</title>
<path fill="none" stroke="#0d9488" stroke-width="1.5" stroke-dasharray="5,2" d="M352.19,-334.26C352.19,-334.26 352.19,-285.12 352.19,-285.12"/>
<polygon fill="#0d9488" stroke="#0d9488" stroke-width="1.5" points="355.69,-285.12 352.19,-275.12 348.69,-285.12 355.69,-285.12"/>
</g>
<!-- feat_zero -->
<g id="node9" class="node">
<title>feat_zero</title>
<path fill="#0d9488" stroke="black" d="M507.75,-268.5C507.75,-268.5 414.5,-268.5 414.5,-268.5 408.5,-268.5 402.5,-262.5 402.5,-256.5 402.5,-256.5 402.5,-244.5 402.5,-244.5 402.5,-238.5 408.5,-232.5 414.5,-232.5 414.5,-232.5 507.75,-232.5 507.75,-232.5 513.75,-232.5 519.75,-238.5 519.75,-244.5 519.75,-244.5 519.75,-256.5 519.75,-256.5 519.75,-262.5 513.75,-268.5 507.75,-268.5"/>
<text xml:space="preserve" text-anchor="middle" x="461.12" y="-246.8" font-family="Arial Bold" font-size="11.00" fill="white">Zero Dependencies</text>
</g>
<!-- feat_layers&#45;&gt;feat_zero -->
<!-- feat_zero_desc -->
<g id="node10" class="node">
<title>feat_zero_desc</title>
<polygon fill="#f0fdfa" stroke="black" points="441.25,-170.5 321,-170.5 321,-126.5 441.25,-126.5 441.25,-170.5"/>
<text xml:space="preserve" text-anchor="middle" x="381.12" y="-157" font-family="Arial" font-size="10.00" fill="#134e4a">Single binary</text>
<text xml:space="preserve" text-anchor="middle" x="381.12" y="-145" font-family="Arial" font-size="10.00" fill="#134e4a">No Office install needed</text>
<text xml:space="preserve" text-anchor="middle" x="381.12" y="-133" font-family="Arial" font-size="10.00" fill="#134e4a">No COM interop</text>
</g>
<!-- feat_zero&#45;&gt;feat_zero_desc -->
<g id="edge5" class="edge">
<title>feat_zero&#45;&gt;feat_zero_desc</title>
<path fill="none" stroke="#0d9488" stroke-width="1.5" stroke-dasharray="5,2" d="M421.88,-232.26C421.88,-232.26 421.88,-183.12 421.88,-183.12"/>
<polygon fill="#0d9488" stroke="#0d9488" stroke-width="1.5" points="425.38,-183.12 421.88,-173.12 418.38,-183.12 425.38,-183.12"/>
</g>
<!-- feat_multi -->
<g id="node11" class="node">
<title>feat_multi</title>
<path fill="#0d9488" stroke="black" d="M593.38,-166.5C593.38,-166.5 488.88,-166.5 488.88,-166.5 482.88,-166.5 476.88,-160.5 476.88,-154.5 476.88,-154.5 476.88,-142.5 476.88,-142.5 476.88,-136.5 482.88,-130.5 488.88,-130.5 488.88,-130.5 593.38,-130.5 593.38,-130.5 599.38,-130.5 605.38,-136.5 605.38,-142.5 605.38,-142.5 605.38,-154.5 605.38,-154.5 605.38,-160.5 599.38,-166.5 593.38,-166.5"/>
<text xml:space="preserve" text-anchor="middle" x="541.12" y="-144.8" font-family="Arial Bold" font-size="11.00" fill="white">Multi&#45;Format Support</text>
</g>
<!-- feat_zero&#45;&gt;feat_multi -->
<!-- feat_multi_desc -->
<g id="node12" class="node">
<title>feat_multi_desc</title>
<polygon fill="#f0fdfa" stroke="black" points="588.5,-68.5 493.75,-68.5 493.75,-24.5 588.5,-24.5 588.5,-68.5"/>
<text xml:space="preserve" text-anchor="middle" x="541.12" y="-55" font-family="Arial" font-size="10.00" fill="#134e4a">Full control over</text>
<text xml:space="preserve" text-anchor="middle" x="541.12" y="-43" font-family="Arial" font-size="10.00" fill="#134e4a">.docx, .xlsx, .pptx</text>
<text xml:space="preserve" text-anchor="middle" x="541.12" y="-31" font-family="Arial" font-size="10.00" fill="#134e4a">Consistent CLI</text>
</g>
<!-- feat_multi&#45;&gt;feat_multi_desc -->
<g id="edge6" class="edge">
<title>feat_multi&#45;&gt;feat_multi_desc</title>
<path fill="none" stroke="#0d9488" stroke-width="1.5" stroke-dasharray="5,2" d="M541.12,-130.26C541.12,-130.26 541.12,-81.12 541.12,-81.12"/>
<polygon fill="#0d9488" stroke="#0d9488" stroke-width="1.5" points="544.63,-81.12 541.13,-71.12 537.63,-81.12 544.63,-81.12"/>
</g>
</g>
</svg>
