<?xml version="1.0" encoding="UTF-8" standalone="no"?>
<!DOCTYPE svg PUBLIC "-//W3C//DTD SVG 1.1//EN"
 "http://www.w3.org/Graphics/SVG/1.1/DTD/svg11.dtd">
<!-- Generated by graphviz version 14.1.2 (0)
 -->
<!-- Title: transformers_architecture Pages: 1 -->
<svg width="2275pt" height="1110pt"
 viewBox="0.00 0.00 2275.00 1110.00" xmlns="http://www.w3.org/2000/svg" xmlns:xlink="http://www.w3.org/1999/xlink">
<g id="graph0" class="graph" transform="scale(2.08333 2.08333) rotate(0) translate(36 496.95)">
<title>transformers_architecture</title>
<polygon fill="white" stroke="none" points="-36,36 -36,-496.95 1056,-496.95 1056,36 -36,36"/>
<text xml:space="preserve" text-anchor="middle" x="510" y="-434.15" font-family="Helvetica,sans-Serif" font-size="24.00" fill="#1a365d">Transformers Architecture Overview</text>
<g id="clust1" class="cluster">
<title>cluster_top</title>
<polygon fill="white" stroke="black" points="117,-219.15 117,-314.55 518,-314.55 518,-219.15 117,-219.15"/>
<text xml:space="preserve" text-anchor="middle" x="317.5" y="-287.75" font-family="Helvetica,sans-Serif" font-size="24.00" fill="#1a365d">Transformers Architecture Overview</text>
</g>
<g id="clust2" class="cluster">
<title>cluster_mid</title>
<polygon fill="white" stroke="black" points="8,-124.15 8,-211.15 679,-211.15 679,-124.15 8,-124.15"/>
<text xml:space="preserve" text-anchor="middle" x="343.5" y="-184.35" font-family="Helvetica,sans-Serif" font-size="24.00" fill="#1a365d">Transformers Architecture Overview</text>
</g>
<g id="clust3" class="cluster">
<title>cluster_mixins</title>
<polygon fill="white" stroke="black" points="577,-223.35 577,-310.35 979,-310.35 979,-223.35 577,-223.35"/>
<text xml:space="preserve" text-anchor="middle" x="778" y="-283.55" font-family="Helvetica,sans-Serif" font-size="24.00" fill="#1a365d">Transformers Architecture Overview</text>
</g>
<g id="clust4" class="cluster">
<title>cluster_bot</title>
<polygon fill="white" stroke="black" points="334,-8 334,-116.15 1012,-116.15 1012,-8 334,-8"/>
<text xml:space="preserve" text-anchor="middle" x="673" y="-89.35" font-family="Helvetica,sans-Serif" font-size="24.00" fill="#1a365d">Transformers Architecture Overview</text>
</g>
<g id="clust5" class="cluster">
<title>cluster_side</title>
<polygon fill="white" stroke="black" points="97,-322.55 97,-417.95 596,-417.95 596,-322.55 97,-322.55"/>
<text xml:space="preserve" text-anchor="middle" x="346.5" y="-391.15" font-family="Helvetica,sans-Serif" font-size="24.00" fill="#1a365d">Transformers Architecture Overview</text>
</g>
<!-- pipeline -->
<g id="node1" class="node">
<title>pipeline</title>
<path fill="#1a365d" stroke="black" d="M241.4,-267.35C241.4,-267.35 188.6,-267.35 188.6,-267.35 182.6,-267.35 176.6,-261.35 176.6,-255.35 176.6,-255.35 176.6,-243.35 176.6,-243.35 176.6,-237.35 182.6,-231.35 188.6,-231.35 188.6,-231.35 241.4,-231.35 241.4,-231.35 247.4,-231.35 253.4,-237.35 253.4,-243.35 253.4,-243.35 253.4,-255.35 253.4,-255.35 253.4,-261.35 247.4,-267.35 241.4,-267.35"/>
<text xml:space="preserve" text-anchor="middle" x="215" y="-244.5" font-family="Helvetica,sans-Serif" font-size="13.00" fill="white">Pipeline</text>
</g>
<!-- pretrained_model -->
<g id="node5" class="node">
<title>pretrained_model</title>
<path fill="#0d9488" stroke="black" d="M659.4,-168.15C659.4,-168.15 552.6,-168.15 552.6,-168.15 546.6,-168.15 540.6,-162.15 540.6,-156.15 540.6,-156.15 540.6,-144.15 540.6,-144.15 540.6,-138.15 546.6,-132.15 552.6,-132.15 552.6,-132.15 659.4,-132.15 659.4,-132.15 665.4,-132.15 671.4,-138.15 671.4,-144.15 671.4,-144.15 671.4,-156.15 671.4,-156.15 671.4,-162.15 665.4,-168.15 659.4,-168.15"/>
<text xml:space="preserve" text-anchor="middle" x="606" y="-145.3" font-family="Helvetica,sans-Serif" font-size="13.00" fill="white">PreTrainedModel</text>
</g>
<!-- pipeline&#45;&gt;pretrained_model -->
<g id="edge1" class="edge">
<title>pipeline&#45;&gt;pretrained_model</title>
<path fill="none" stroke="#94a3b8" stroke-width="1.2" d="M245.22,-230.89C245.22,-214.12 245.22,-192 245.22,-192 245.22,-192 546.89,-192 546.89,-192 546.89,-192 546.89,-177.44 546.89,-177.44"/>
<polygon fill="#94a3b8" stroke="#94a3b8" stroke-width="1.2" points="549.34,-177.44 546.89,-170.44 544.44,-177.44 549.34,-177.44"/>
</g>
<!-- pretrained_tokenizer -->
<g id="node7" class="node">
<title>pretrained_tokenizer</title>
<path fill="#0d9488" stroke="black" d="M187.65,-168.15C187.65,-168.15 28.35,-168.15 28.35,-168.15 22.35,-168.15 16.35,-162.15 16.35,-156.15 16.35,-156.15 16.35,-144.15 16.35,-144.15 16.35,-138.15 22.35,-132.15 28.35,-132.15 28.35,-132.15 187.65,-132.15 187.65,-132.15 193.65,-132.15 199.65,-138.15 199.65,-144.15 199.65,-144.15 199.65,-156.15 199.65,-156.15 199.65,-162.15 193.65,-168.15 187.65,-168.15"/>
<text xml:space="preserve" text-anchor="middle" x="108" y="-145.3" font-family="Helvetica,sans-Serif" font-size="13.00" fill="white">PreTrainedTokenizerBase</text>
</g>
<!-- pipeline&#45;&gt;pretrained_tokenizer -->
<g id="edge2" class="edge">
<title>pipeline&#45;&gt;pretrained_tokenizer</title>
<path fill="none" stroke="#94a3b8" stroke-width="1.2" d="M184.28,-231.16C184.28,-231.16 184.28,-177.38 184.28,-177.38"/>
<polygon fill="#94a3b8" stroke="#94a3b8" stroke-width="1.2" points="186.73,-177.38 184.28,-170.38 181.83,-177.38 186.73,-177.38"/>
</g>
<!-- processor_mixin -->
<g id="node8" class="node">
<title>processor_mixin</title>
<path fill="#0d9488" stroke="black" d="M337.15,-168.15C337.15,-168.15 240.85,-168.15 240.85,-168.15 234.85,-168.15 228.85,-162.15 228.85,-156.15 228.85,-156.15 228.85,-144.15 228.85,-144.15 228.85,-138.15 234.85,-132.15 240.85,-132.15 240.85,-132.15 337.15,-132.15 337.15,-132.15 343.15,-132.15 349.15,-138.15 349.15,-144.15 349.15,-144.15 349.15,-156.15 349.15,-156.15 349.15,-162.15 343.15,-168.15 337.15,-168.15"/>
<text xml:space="preserve" text-anchor="middle" x="289" y="-145.3" font-family="Helvetica,sans-Serif" font-size="13.00" fill="white">ProcessorMixin</text>
</g>
<!-- pipeline&#45;&gt;processor_mixin -->
<g id="edge3" class="edge">
<title>pipeline&#45;&gt;processor_mixin</title>
<path fill="none" stroke="#94a3b8" stroke-width="1.2" d="M237.03,-231.16C237.03,-231.16 237.03,-177.38 237.03,-177.38"/>
<polygon fill="#94a3b8" stroke="#94a3b8" stroke-width="1.2" points="239.48,-177.38 237.03,-170.38 234.58,-177.38 239.48,-177.38"/>
</g>
<!-- auto_classes -->
<g id="node2" class="node">
<title>auto_classes</title>
<path fill="#1a365d" stroke="black" d="M385.15,-271.55C385.15,-271.55 294.85,-271.55 294.85,-271.55 288.85,-271.55 282.85,-265.55 282.85,-259.55 282.85,-259.55 282.85,-239.15 282.85,-239.15 282.85,-233.15 288.85,-227.15 294.85,-227.15 294.85,-227.15 385.15,-227.15 385.15,-227.15 391.15,-227.15 397.15,-233.15 397.15,-239.15 397.15,-239.15 397.15,-259.55 397.15,-259.55 397.15,-265.55 391.15,-271.55 385.15,-271.55"/>
<text xml:space="preserve" text-anchor="middle" x="340" y="-252" font-family="Helvetica,sans-Serif" font-size="13.00" fill="white">AutoModel /</text>
<text xml:space="preserve" text-anchor="middle" x="340" y="-237" font-family="Helvetica,sans-Serif" font-size="13.00" fill="white">AutoTokenizer</text>
</g>
<!-- auto_classes&#45;&gt;pretrained_model -->
<g id="edge4" class="edge">
<title>auto_classes&#45;&gt;pretrained_model</title>
<path fill="none" stroke="#94a3b8" stroke-width="1.2" d="M390.8,-226.68C390.8,-215.34 390.8,-204 390.8,-204 390.8,-204 553.17,-204 553.17,-204 553.17,-204 553.17,-177.2 553.17,-177.2"/>
<polygon fill="#94a3b8" stroke="#94a3b8" stroke-width="1.2" points="555.62,-177.2 553.17,-170.2 550.72,-177.2 555.62,-177.2"/>
</g>
<!-- pretrained_config -->
<g id="node6" class="node">
<title>pretrained_config</title>
<path fill="#0d9488" stroke="black" d="M499.9,-168.15C499.9,-168.15 390.1,-168.15 390.1,-168.15 384.1,-168.15 378.1,-162.15 378.1,-156.15 378.1,-156.15 378.1,-144.15 378.1,-144.15 378.1,-138.15 384.1,-132.15 390.1,-132.15 390.1,-132.15 499.9,-132.15 499.9,-132.15 505.9,-132.15 511.9,-138.15 511.9,-144.15 511.9,-144.15 511.9,-156.15 511.9,-156.15 511.9,-162.15 505.9,-168.15 499.9,-168.15"/>
<text xml:space="preserve" text-anchor="middle" x="445" y="-145.3" font-family="Helvetica,sans-Serif" font-size="13.00" fill="white">PreTrainedConfig</text>
</g>
<!-- auto_classes&#45;&gt;pretrained_config -->
<g id="edge5" class="edge">
<title>auto_classes&#45;&gt;pretrained_config</title>
<path fill="none" stroke="#94a3b8" stroke-width="1.2" d="M384.45,-226.84C384.45,-226.84 384.45,-177.4 384.45,-177.4"/>
<polygon fill="#94a3b8" stroke="#94a3b8" stroke-width="1.2" points="386.9,-177.4 384.45,-170.4 382,-177.4 386.9,-177.4"/>
</g>
<!-- auto_classes&#45;&gt;pretrained_tokenizer -->
<g id="edge6" class="edge">
<title>auto_classes&#45;&gt;pretrained_tokenizer</title>
<path fill="none" stroke="#94a3b8" stroke-width="1.2" d="M304.95,-227.03C304.95,-206.75 304.95,-180 304.95,-180 304.95,-180 191.97,-180 191.97,-180 191.97,-180 191.97,-177.36 191.97,-177.36"/>
<polygon fill="#94a3b8" stroke="#94a3b8" stroke-width="1.2" points="194.42,-177.36 191.97,-170.36 189.52,-177.36 194.42,-177.36"/>
</g>
<!-- auto_classes&#45;&gt;processor_mixin -->
<g id="edge7" class="edge">
<title>auto_classes&#45;&gt;processor_mixin</title>
<path fill="none" stroke="#94a3b8" stroke-width="1.2" d="M327.05,-226.84C327.05,-226.84 327.05,-177.4 327.05,-177.4"/>
<polygon fill="#94a3b8" stroke="#94a3b8" stroke-width="1.2" points="329.5,-177.4 327.05,-170.4 324.6,-177.4 329.5,-177.4"/>
</g>
<!-- trainer -->
<g id="node3" class="node">
<title>trainer</title>
<path fill="#1a365d" stroke="black" d="M485.4,-267.35C485.4,-267.35 438.6,-267.35 438.6,-267.35 432.6,-267.35 426.6,-261.35 426.6,-255.35 426.6,-255.35 426.6,-243.35 426.6,-243.35 426.6,-237.35 432.6,-231.35 438.6,-231.35 438.6,-231.35 485.4,-231.35 485.4,-231.35 491.4,-231.35 497.4,-237.35 497.4,-243.35 497.4,-243.35 497.4,-255.35 497.4,-255.35 497.4,-261.35 491.4,-267.35 485.4,-267.35"/>
<text xml:space="preserve" text-anchor="middle" x="462" y="-244.5" font-family="Helvetica,sans-Serif" font-size="13.00" fill="white">Trainer</text>
</g>
<!-- trainer&#45;&gt;pretrained_model -->
<g id="edge8" class="edge">
<title>trainer&#45;&gt;pretrained_model</title>
<path fill="none" stroke="#94a3b8" stroke-width="1.2" d="M497.74,-249C525.55,-249 559.46,-249 559.46,-249 559.46,-249 559.46,-177.1 559.46,-177.1"/>
<polygon fill="#94a3b8" stroke="#94a3b8" stroke-width="1.2" points="561.91,-177.1 559.46,-170.1 557.01,-177.1 561.91,-177.1"/>
</g>
<!-- top_label -->
<g id="node4" class="node">
<title>top_label</title>
<text xml:space="preserve" text-anchor="middle" x="651" y="-347.32" font-family="Helvetica,sans-Serif" font-size="14.00" fill="#1a365d">User API</text>
</g>
<!-- weight_converter -->
<g id="node13" class="node">
<title>weight_converter</title>
<path fill="#475569" stroke="black" d="M991.65,-62.58C991.65,-62.58 886.35,-62.58 886.35,-62.58 880.35,-62.58 874.35,-56.58 874.35,-50.58 874.35,-50.58 874.35,-38.58 874.35,-38.58 874.35,-32.58 880.35,-26.58 886.35,-26.58 886.35,-26.58 991.65,-26.58 991.65,-26.58 997.65,-26.58 1003.65,-32.58 1003.65,-38.58 1003.65,-38.58 1003.65,-50.58 1003.65,-50.58 1003.65,-56.58 997.65,-62.58 991.65,-62.58"/>
<text xml:space="preserve" text-anchor="middle" x="939" y="-39.73" font-family="Helvetica,sans-Serif" font-size="13.00" fill="white">WeightConverter</text>
</g>
<!-- pretrained_model&#45;&gt;weight_converter -->
<g id="edge12" class="edge">
<title>pretrained_model&#45;&gt;weight_converter</title>
<path fill="none" stroke="#94a3b8" stroke-width="1.2" d="M671.56,-147C759.97,-147 906.45,-147 906.45,-147 906.45,-147 906.45,-71.7 906.45,-71.7"/>
<polygon fill="#94a3b8" stroke="#94a3b8" stroke-width="1.2" points="908.9,-71.7 906.45,-64.7 904,-71.7 908.9,-71.7"/>
</g>
<!-- kv_cache -->
<g id="node14" class="node">
<title>kv_cache</title>
<path fill="#475569" stroke="black" d="M833.4,-73.15C833.4,-73.15 732.6,-73.15 732.6,-73.15 726.6,-73.15 720.6,-67.15 720.6,-61.15 720.6,-61.15 720.6,-28 720.6,-28 720.6,-22 726.6,-16 732.6,-16 732.6,-16 833.4,-16 833.4,-16 839.4,-16 845.4,-22 845.4,-28 845.4,-28 845.4,-61.15 845.4,-61.15 845.4,-67.15 839.4,-73.15 833.4,-73.15"/>
<text xml:space="preserve" text-anchor="middle" x="783" y="-54.55" font-family="Helvetica,sans-Serif" font-size="12.00" fill="white">KV Cache</text>
<text xml:space="preserve" text-anchor="middle" x="783" y="-40.3" font-family="Helvetica,sans-Serif" font-size="12.00" fill="white">(Dynamic / Static /</text>
<text xml:space="preserve" text-anchor="middle" x="783" y="-26.05" font-family="Helvetica,sans-Serif" font-size="12.00" fill="white">Quantized)</text>
</g>
<!-- pretrained_model&#45;&gt;kv_cache -->
<g id="edge13" class="edge">
<title>pretrained_model&#45;&gt;kv_cache</title>
<path fill="none" stroke="#94a3b8" stroke-width="1.2" d="M671.81,-139C712.51,-139 757.03,-139 757.03,-139 757.03,-139 757.03,-82.23 757.03,-82.23"/>
<polygon fill="#94a3b8" stroke="#94a3b8" stroke-width="1.2" points="759.48,-82.23 757.03,-75.23 754.58,-82.23 759.48,-82.23"/>
</g>
<!-- attention_interface -->
<g id="node15" class="node">
<title>attention_interface</title>
<path fill="#475569" stroke="black" d="M480.15,-73.15C480.15,-73.15 353.85,-73.15 353.85,-73.15 347.85,-73.15 341.85,-67.15 341.85,-61.15 341.85,-61.15 341.85,-28 341.85,-28 341.85,-22 347.85,-16 353.85,-16 353.85,-16 480.15,-16 480.15,-16 486.15,-16 492.15,-22 492.15,-28 492.15,-28 492.15,-61.15 492.15,-61.15 492.15,-67.15 486.15,-73.15 480.15,-73.15"/>
<text xml:space="preserve" text-anchor="middle" x="417" y="-54.55" font-family="Helvetica,sans-Serif" font-size="12.00" fill="white">Attention Interface</text>
<text xml:space="preserve" text-anchor="middle" x="417" y="-40.3" font-family="Helvetica,sans-Serif" font-size="12.00" fill="white">(Eager / SDPA / Flash /</text>
<text xml:space="preserve" text-anchor="middle" x="417" y="-26.05" font-family="Helvetica,sans-Serif" font-size="12.00" fill="white">Flash3 / Flex / Paged)</text>
</g>
<!-- pretrained_model&#45;&gt;attention_interface -->
<g id="edge14" class="edge">
<title>pretrained_model&#45;&gt;attention_interface</title>
<path fill="none" stroke="#94a3b8" stroke-width="1.2" d="M540.35,-150C526.67,-150 516.31,-150 516.31,-150 516.31,-150 516.31,-45 516.31,-45 516.31,-45 501.34,-45 501.34,-45"/>
<polygon fill="#94a3b8" stroke="#94a3b8" stroke-width="1.2" points="501.34,-42.55 494.34,-45 501.34,-47.45 501.34,-42.55"/>
</g>
<!-- generation_infra -->
<g id="node16" class="node">
<title>generation_infra</title>
<path fill="#475569" stroke="black" d="M679.27,-73.15C679.27,-73.15 532.73,-73.15 532.73,-73.15 526.73,-73.15 520.73,-67.15 520.73,-61.15 520.73,-61.15 520.73,-28 520.73,-28 520.73,-22 526.73,-16 532.73,-16 532.73,-16 679.27,-16 679.27,-16 685.27,-16 691.27,-22 691.27,-28 691.27,-28 691.27,-61.15 691.27,-61.15 691.27,-67.15 685.27,-73.15 679.27,-73.15"/>
<text xml:space="preserve" text-anchor="middle" x="606" y="-54.55" font-family="Helvetica,sans-Serif" font-size="12.00" fill="white">Generation</text>
<text xml:space="preserve" text-anchor="middle" x="606" y="-40.3" font-family="Helvetica,sans-Serif" font-size="12.00" fill="white">(LogitsProcessors /</text>
<text xml:space="preserve" text-anchor="middle" x="606" y="-26.05" font-family="Helvetica,sans-Serif" font-size="12.00" fill="white">Streamers / Watermarking)</text>
</g>
<!-- pretrained_model&#45;&gt;generation_infra -->
<g id="edge15" class="edge">
<title>pretrained_model&#45;&gt;generation_infra</title>
<path fill="none" stroke="#94a3b8" stroke-width="1.2" d="M606,-131.76C606,-131.76 606,-82.31 606,-82.31"/>
<polygon fill="#94a3b8" stroke="#94a3b8" stroke-width="1.2" points="608.45,-82.31 606,-75.31 603.55,-82.31 608.45,-82.31"/>
</g>
<!-- generation_mixin -->
<g id="node9" class="node">
<title>generation_mixin</title>
<path fill="#99f6e4" stroke="black" stroke-dasharray="5,2" d="M679.4,-267.35C679.4,-267.35 596.6,-267.35 596.6,-267.35 590.6,-267.35 584.6,-261.35 584.6,-255.35 584.6,-255.35 584.6,-243.35 584.6,-243.35 584.6,-237.35 590.6,-231.35 596.6,-231.35 596.6,-231.35 679.4,-231.35 679.4,-231.35 685.4,-231.35 691.4,-237.35 691.4,-243.35 691.4,-243.35 691.4,-255.35 691.4,-255.35 691.4,-261.35 685.4,-267.35 679.4,-267.35"/>
<text xml:space="preserve" text-anchor="middle" x="638" y="-245.65" font-family="Helvetica,sans-Serif" font-size="11.00" fill="#0d9488">GenerationMixin</text>
</g>
<!-- generation_mixin&#45;&gt;pretrained_model -->
<g id="edge9" class="edge">
<title>generation_mixin&#45;&gt;pretrained_model</title>
<path fill="none" stroke="#0d9488" stroke-width="1.2" stroke-dasharray="5,2" d="M628,-231.16C628,-231.16 628,-177.38 628,-177.38"/>
<polygon fill="none" stroke="#0d9488" stroke-width="1.2" points="630.45,-177.38 628,-170.38 625.55,-177.38 630.45,-177.38"/>
</g>
<!-- push_hub_mixin -->
<g id="node10" class="node">
<title>push_hub_mixin</title>
<path fill="#99f6e4" stroke="black" stroke-dasharray="5,2" d="M817.9,-267.35C817.9,-267.35 732.1,-267.35 732.1,-267.35 726.1,-267.35 720.1,-261.35 720.1,-255.35 720.1,-255.35 720.1,-243.35 720.1,-243.35 720.1,-237.35 726.1,-231.35 732.1,-231.35 732.1,-231.35 817.9,-231.35 817.9,-231.35 823.9,-231.35 829.9,-237.35 829.9,-243.35 829.9,-243.35 829.9,-255.35 829.9,-255.35 829.9,-261.35 823.9,-267.35 817.9,-267.35"/>
<text xml:space="preserve" text-anchor="middle" x="775" y="-245.65" font-family="Helvetica,sans-Serif" font-size="11.00" fill="#0d9488">PushToHubMixin</text>
</g>
<!-- push_hub_mixin&#45;&gt;pretrained_model -->
<g id="edge10" class="edge">
<title>push_hub_mixin&#45;&gt;pretrained_model</title>
<path fill="none" stroke="#0d9488" stroke-width="1.2" stroke-dasharray="5,2" d="M793.47,-231.04C793.47,-205.17 793.47,-161 793.47,-161 793.47,-161 680.65,-161 680.65,-161"/>
<polygon fill="none" stroke="#0d9488" stroke-width="1.2" points="680.65,-158.55 673.65,-161 680.65,-163.45 680.65,-158.55"/>
</g>
<!-- peft_adapter_mixin -->
<g id="node11" class="node">
<title>peft_adapter_mixin</title>
<path fill="#99f6e4" stroke="black" stroke-dasharray="5,2" d="M958.65,-267.35C958.65,-267.35 871.35,-267.35 871.35,-267.35 865.35,-267.35 859.35,-261.35 859.35,-255.35 859.35,-255.35 859.35,-243.35 859.35,-243.35 859.35,-237.35 865.35,-231.35 871.35,-231.35 871.35,-231.35 958.65,-231.35 958.65,-231.35 964.65,-231.35 970.65,-237.35 970.65,-243.35 970.65,-243.35 970.65,-255.35 970.65,-255.35 970.65,-261.35 964.65,-267.35 958.65,-267.35"/>
<text xml:space="preserve" text-anchor="middle" x="915" y="-245.65" font-family="Helvetica,sans-Serif" font-size="11.00" fill="#0d9488">PeftAdapterMixin</text>
</g>
<!-- peft_adapter_mixin&#45;&gt;pretrained_model -->
<g id="edge11" class="edge">
<title>peft_adapter_mixin&#45;&gt;pretrained_model</title>
<path fill="none" stroke="#0d9488" stroke-width="1.2" stroke-dasharray="5,2" d="M866.85,-230.97C866.85,-203.26 866.85,-154 866.85,-154 866.85,-154 680.64,-154 680.64,-154"/>
<polygon fill="none" stroke="#0d9488" stroke-width="1.2" points="680.64,-151.55 673.64,-154 680.64,-156.45 680.64,-151.55"/>
</g>
<!-- mid_label -->
<g id="node12" class="node">
<title>mid_label</title>
<text xml:space="preserve" text-anchor="middle" x="742" y="-347.32" font-family="Helvetica,sans-Serif" font-size="14.00" fill="#0d9488">Core</text>
</g>
<!-- bot_label -->
<g id="node17" class="node">
<title>bot_label</title>
<text xml:space="preserve" text-anchor="middle" x="846" y="-347.32" font-family="Helvetica,sans-Serif" font-size="14.00" fill="#475569">Infrastructure</text>
</g>
<!-- stat_models -->
<g id="node18" class="node">
<title>stat_models</title>
<path fill="#d97706" stroke="black" stroke-width="2" d="M200.77,-374.95C200.77,-374.95 117.23,-374.95 117.23,-374.95 111.23,-374.95 105.23,-368.95 105.23,-362.95 105.23,-362.95 105.23,-342.55 105.23,-342.55 105.23,-336.55 111.23,-330.55 117.23,-330.55 117.23,-330.55 200.77,-330.55 200.77,-330.55 206.77,-330.55 212.77,-336.55 212.77,-342.55 212.77,-342.55 212.77,-362.95 212.77,-362.95 212.77,-368.95 206.77,-374.95 200.77,-374.95"/>
<text xml:space="preserve" text-anchor="middle" x="159" y="-355.4" font-family="Helvetica,sans-Serif" font-size="13.00" fill="white">453 Model</text>
<text xml:space="preserve" text-anchor="middle" x="159" y="-340.4" font-family="Helvetica,sans-Serif" font-size="13.00" fill="white">Architectures</text>
</g>
<!-- stat_models&#45;&gt;pretrained_model -->
<g id="edge16" class="edge">
<title>stat_models&#45;&gt;pretrained_model</title>
<path fill="none" stroke="#d97706" stroke-width="1.5" stroke-dasharray="5,2" d="M194.69,-330.11C194.69,-312.48 194.69,-291 194.69,-291 194.69,-291 565.74,-291 565.74,-291 565.74,-291 565.74,-177.83 565.74,-177.83"/>
<polygon fill="#d97706" stroke="#d97706" stroke-width="1.5" points="568.19,-177.83 565.74,-170.83 563.29,-177.83 568.19,-177.83"/>
</g>
<!-- stat_pipelines -->
<g id="node19" class="node">
<title>stat_pipelines</title>
<path fill="#d97706" stroke="black" stroke-width="2" d="M325.77,-374.95C325.77,-374.95 254.22,-374.95 254.22,-374.95 248.22,-374.95 242.22,-368.95 242.22,-362.95 242.22,-362.95 242.22,-342.55 242.22,-342.55 242.22,-336.55 248.22,-330.55 254.22,-330.55 254.22,-330.55 325.77,-330.55 325.77,-330.55 331.77,-330.55 337.77,-336.55 337.77,-342.55 337.77,-342.55 337.77,-362.95 337.77,-362.95 337.77,-368.95 331.77,-374.95 325.77,-374.95"/>
<text xml:space="preserve" text-anchor="middle" x="290" y="-355.4" font-family="Helvetica,sans-Serif" font-size="13.00" fill="white">28 Pipeline</text>
<text xml:space="preserve" text-anchor="middle" x="290" y="-340.4" font-family="Helvetica,sans-Serif" font-size="13.00" fill="white">Types</text>
</g>
<!-- stat_pipelines&#45;&gt;pipeline -->
<g id="edge17" class="edge">
<title>stat_pipelines&#45;&gt;pipeline</title>
<path fill="none" stroke="#d97706" stroke-width="1.5" stroke-dasharray="5,2" d="M247.81,-330.06C247.81,-330.06 247.81,-277.12 247.81,-277.12"/>
<polygon fill="#d97706" stroke="#d97706" stroke-width="1.5" points="250.26,-277.12 247.81,-270.12 245.36,-277.12 250.26,-277.12"/>
</g>
<!-- stat_quantizers -->
<g id="node20" class="node">
<title>stat_quantizers</title>
<path fill="#d97706" stroke="black" stroke-width="2" d="M575.65,-374.95C575.65,-374.95 506.35,-374.95 506.35,-374.95 500.35,-374.95 494.35,-368.95 494.35,-362.95 494.35,-362.95 494.35,-342.55 494.35,-342.55 494.35,-336.55 500.35,-330.55 506.35,-330.55 506.35,-330.55 575.65,-330.55 575.65,-330.55 581.65,-330.55 587.65,-336.55 587.65,-342.55 587.65,-342.55 587.65,-362.95 587.65,-362.95 587.65,-368.95 581.65,-374.95 575.65,-374.95"/>
<text xml:space="preserve" text-anchor="middle" x="541" y="-355.4" font-family="Helvetica,sans-Serif" font-size="13.00" fill="white">20+</text>
<text xml:space="preserve" text-anchor="middle" x="541" y="-340.4" font-family="Helvetica,sans-Serif" font-size="13.00" fill="white">Quantizers</text>
</g>
<!-- stat_quantizers&#45;&gt;weight_converter -->
<g id="edge18" class="edge">
<title>stat_quantizers&#45;&gt;weight_converter</title>
<path fill="none" stroke="#d97706" stroke-width="1.5" stroke-dasharray="5,2" d="M578.31,-330.31C578.31,-291.28 578.31,-215 578.31,-215 578.31,-215 938.55,-215 938.55,-215 938.55,-215 938.55,-72.08 938.55,-72.08"/>
<polygon fill="#d97706" stroke="#d97706" stroke-width="1.5" points="941,-72.08 938.55,-65.08 936.1,-72.08 941,-72.08"/>
</g>
<!-- stat_integrations -->
<g id="node21" class="node">
<title>stat_integrations</title>
<path fill="#d97706" stroke="black" stroke-width="2" d="M453.65,-374.95C453.65,-374.95 378.35,-374.95 378.35,-374.95 372.35,-374.95 366.35,-368.95 366.35,-362.95 366.35,-362.95 366.35,-342.55 366.35,-342.55 366.35,-336.55 372.35,-330.55 378.35,-330.55 378.35,-330.55 453.65,-330.55 453.65,-330.55 459.65,-330.55 465.65,-336.55 465.65,-342.55 465.65,-342.55 465.65,-362.95 465.65,-362.95 465.65,-368.95 459.65,-374.95 453.65,-374.95"/>
<text xml:space="preserve" text-anchor="middle" x="416" y="-355.4" font-family="Helvetica,sans-Serif" font-size="13.00" fill="white">40+</text>
<text xml:space="preserve" text-anchor="middle" x="416" y="-340.4" font-family="Helvetica,sans-Serif" font-size="13.00" fill="white">Integrations</text>
</g>
<!-- stat_integrations&#45;&gt;pretrained_model -->
<g id="edge19" class="edge">
<title>stat_integrations&#45;&gt;pretrained_model</title>
<path fill="none" stroke="#d97706" stroke-width="1.5" stroke-dasharray="5,2" d="M446.12,-330.41C446.12,-320.48 446.12,-311 446.12,-311 446.12,-311 572.03,-311 572.03,-311 572.03,-311 572.03,-177.87 572.03,-177.87"/>
<polygon fill="#d97706" stroke="#d97706" stroke-width="1.5" points="574.48,-177.87 572.03,-170.87 569.58,-177.87 574.48,-177.87"/>
</g>
</g>
</svg>
