<?xml version="1.0" encoding="UTF-8" standalone="no"?>
<!DOCTYPE svg PUBLIC "-//W3C//DTD SVG 1.1//EN"
 "http://www.w3.org/Graphics/SVG/1.1/DTD/svg11.dtd">
<!-- Generated by graphviz version 14.1.2 (0)
 -->
<!-- Title: auto_factory Pages: 1 -->
<svg width="3919pt" height="1770pt"
 viewBox="0.00 0.00 3919.00 1770.00" xmlns="http://www.w3.org/2000/svg" xmlns:xlink="http://www.w3.org/1999/xlink">
<g id="graph0" class="graph" transform="scale(2.08333 2.08333) rotate(0) translate(36 813.8)">
<title>auto_factory</title>
<polygon fill="white" stroke="none" points="-36,36 -36,-813.8 1845.2,-813.8 1845.2,36 -36,36"/>
<text xml:space="preserve" text-anchor="middle" x="904.6" y="-751" font-family="Helvetica,sans-Serif" font-size="24.00" fill="#4338ca">Auto Factory Pattern &#45; Model Resolution Flow</text>
<g id="clust9" class="cluster">
<title>cluster_text_auto</title>
<polygon fill="white" stroke="black" points="172.2,-79.85 172.2,-166.85 685.2,-166.85 685.2,-79.85 172.2,-79.85"/>
<text xml:space="preserve" text-anchor="middle" x="428.7" y="-140.05" font-family="Helvetica,sans-Serif" font-size="24.00" fill="#4338ca">Auto Factory Pattern &#45; Model Resolution Flow</text>
</g>
<g id="clust10" class="cluster">
<title>cluster_vision_auto</title>
<polygon fill="white" stroke="black" points="273.2,-560.4 273.2,-647.4 777.2,-647.4 777.2,-560.4 273.2,-560.4"/>
<text xml:space="preserve" text-anchor="middle" x="525.2" y="-620.6" font-family="Helvetica,sans-Serif" font-size="24.00" fill="#4338ca">Auto Factory Pattern &#45; Model Resolution Flow</text>
</g>
<g id="clust11" class="cluster">
<title>cluster_audio_auto</title>
<polygon fill="white" stroke="black" points="785.2,-560.4 785.2,-647.4 1289.2,-647.4 1289.2,-560.4 785.2,-560.4"/>
<text xml:space="preserve" text-anchor="middle" x="1037.2" y="-620.6" font-family="Helvetica,sans-Serif" font-size="24.00" fill="#4338ca">Auto Factory Pattern &#45; Model Resolution Flow</text>
</g>
<g id="clust12" class="cluster">
<title>cluster_mm_auto</title>
<polygon fill="white" stroke="black" points="1297.2,-560.4 1297.2,-647.4 1801.2,-647.4 1801.2,-560.4 1297.2,-560.4"/>
<text xml:space="preserve" text-anchor="middle" x="1549.2" y="-620.6" font-family="Helvetica,sans-Serif" font-size="24.00" fill="#4338ca">Auto Factory Pattern &#45; Model Resolution Flow</text>
</g>
<!-- step1 -->
<g id="node1" class="node">
<title>step1</title>
<path fill="#4338ca" stroke="black" d="M306.4,-742.8C306.4,-742.8 172,-742.8 172,-742.8 166,-742.8 160,-736.8 160,-730.8 160,-730.8 160,-686.4 160,-686.4 160,-680.4 166,-674.4 172,-674.4 172,-674.4 306.4,-674.4 306.4,-674.4 312.4,-674.4 318.4,-680.4 318.4,-686.4 318.4,-686.4 318.4,-730.8 318.4,-730.8 318.4,-736.8 312.4,-742.8 306.4,-742.8"/>
<text xml:space="preserve" text-anchor="middle" x="239.2" y="-725.15" font-family="Helvetica,sans-Serif" font-size="11.00" fill="white">1. User calls</text>
<text xml:space="preserve" text-anchor="middle" x="239.2" y="-711.65" font-family="Helvetica,sans-Serif" font-size="11.00" fill="white">AutoModelForCausalLM</text>
<text xml:space="preserve" text-anchor="middle" x="239.2" y="-698.15" font-family="Helvetica,sans-Serif" font-size="11.00" fill="white">.from_pretrained(</text>
<text xml:space="preserve" text-anchor="middle" x="239.2" y="-684.65" font-family="Helvetica,sans-Serif" font-size="11.00" fill="white">&quot;Qwen/Qwen2.5&#45;1.5B&quot;)</text>
</g>
<!-- step2 -->
<g id="node2" class="node">
<title>step2</title>
<path fill="#4338ca" stroke="black" d="M206.4,-613.85C206.4,-613.85 72,-613.85 72,-613.85 66,-613.85 60,-607.85 60,-601.85 60,-601.85 60,-570.95 60,-570.95 60,-564.95 66,-558.95 72,-558.95 72,-558.95 206.4,-558.95 206.4,-558.95 212.4,-558.95 218.4,-564.95 218.4,-570.95 218.4,-570.95 218.4,-601.85 218.4,-601.85 218.4,-607.85 212.4,-613.85 206.4,-613.85"/>
<text xml:space="preserve" text-anchor="middle" x="139.2" y="-596.2" font-family="Helvetica,sans-Serif" font-size="11.00" fill="white">2. Downloads</text>
<text xml:space="preserve" text-anchor="middle" x="139.2" y="-582.7" font-family="Helvetica,sans-Serif" font-size="11.00" fill="white">config.json</text>
<text xml:space="preserve" text-anchor="middle" x="139.2" y="-569.2" font-family="Helvetica,sans-Serif" font-size="11.00" fill="white">from Hub</text>
</g>
<!-- step1&#45;&gt;step2 -->
<g id="edge1" class="edge">
<title>step1&#45;&gt;step2</title>
<path fill="none" stroke="#4338ca" stroke-width="1.8" d="M189.2,-673.91C189.2,-673.91 189.2,-624.92 189.2,-624.92"/>
<polygon fill="#4338ca" stroke="#4338ca" stroke-width="1.8" points="192,-624.92 189.2,-616.92 186.4,-624.92 192,-624.92"/>
</g>
<!-- auto_causal_lm -->
<g id="node10" class="node">
<title>auto_causal_lm</title>
<path fill="#d1fae5" stroke="black" d="M314.1,-123.85C314.1,-123.85 192.3,-123.85 192.3,-123.85 186.3,-123.85 180.3,-117.85 180.3,-111.85 180.3,-111.85 180.3,-99.85 180.3,-99.85 180.3,-93.85 186.3,-87.85 192.3,-87.85 192.3,-87.85 314.1,-87.85 314.1,-87.85 320.1,-87.85 326.1,-93.85 326.1,-99.85 326.1,-99.85 326.1,-111.85 326.1,-111.85 326.1,-117.85 320.1,-123.85 314.1,-123.85"/>
<text xml:space="preserve" text-anchor="middle" x="253.2" y="-102.15" font-family="Helvetica,sans-Serif" font-size="11.00" fill="#065f46">AutoModelForCausalLM</text>
</g>
<!-- step1&#45;&gt;auto_causal_lm -->
<g id="edge17" class="edge">
<title>step1&#45;&gt;auto_causal_lm</title>
<path fill="none" stroke="#6366f1" stroke-width="1.5" stroke-dasharray="5,2" d="M268.4,-674.03C268.4,-674.03 268.4,-133.43 268.4,-133.43"/>
<polygon fill="#6366f1" stroke="#6366f1" stroke-width="1.5" points="270.85,-133.43 268.4,-126.43 265.95,-133.43 270.85,-133.43"/>
<text xml:space="preserve" text-anchor="middle" x="277.2" y="-399.1" font-family="Helvetica,sans-Serif" font-size="10.00" fill="#4338ca">resolves to</text>
</g>
<!-- step3 -->
<g id="node3" class="node">
<title>step3</title>
<path fill="#4338ca" stroke="black" d="M194.4,-521.95C194.4,-521.95 60,-521.95 60,-521.95 54,-521.95 48,-515.95 48,-509.95 48,-509.95 48,-479.05 48,-479.05 48,-473.05 54,-467.05 60,-467.05 60,-467.05 194.4,-467.05 194.4,-467.05 200.4,-467.05 206.4,-473.05 206.4,-479.05 206.4,-479.05 206.4,-509.95 206.4,-509.95 206.4,-515.95 200.4,-521.95 194.4,-521.95"/>
<text xml:space="preserve" text-anchor="middle" x="127.2" y="-504.3" font-family="Helvetica,sans-Serif" font-size="11.00" fill="white">3. AutoConfig reads</text>
<text xml:space="preserve" text-anchor="middle" x="127.2" y="-490.8" font-family="Helvetica,sans-Serif" font-size="11.00" fill="white">model_type</text>
<text xml:space="preserve" text-anchor="middle" x="127.2" y="-477.3" font-family="Helvetica,sans-Serif" font-size="11.00" fill="white">from config</text>
</g>
<!-- step2&#45;&gt;step3 -->
<g id="edge2" class="edge">
<title>step2&#45;&gt;step3</title>
<path fill="none" stroke="#4338ca" stroke-width="1.8" d="M133.2,-558.83C133.2,-558.83 133.2,-533.1 133.2,-533.1"/>
<polygon fill="#4338ca" stroke="#4338ca" stroke-width="1.8" points="136,-533.1 133.2,-525.1 130.4,-533.1 136,-533.1"/>
</g>
<!-- step4 -->
<g id="node4" class="node">
<title>step4</title>
<path fill="#4338ca" stroke="black" d="M197.47,-430.05C197.47,-430.05 50.92,-430.05 50.92,-430.05 44.92,-430.05 38.92,-424.05 38.92,-418.05 38.92,-418.05 38.92,-387.15 38.92,-387.15 38.92,-381.15 44.92,-375.15 50.92,-375.15 50.92,-375.15 197.47,-375.15 197.47,-375.15 203.47,-375.15 209.47,-381.15 209.47,-387.15 209.47,-387.15 209.47,-418.05 209.47,-418.05 209.47,-424.05 203.47,-430.05 197.47,-430.05"/>
<text xml:space="preserve" text-anchor="middle" x="124.2" y="-412.4" font-family="Helvetica,sans-Serif" font-size="11.00" fill="white">4. Lookup in</text>
<text xml:space="preserve" text-anchor="middle" x="124.2" y="-398.9" font-family="Helvetica,sans-Serif" font-size="11.00" fill="white">MODEL_MAPPING_NAMES</text>
<text xml:space="preserve" text-anchor="middle" x="124.2" y="-385.4" font-family="Helvetica,sans-Serif" font-size="11.00" fill="white">OrderedDict</text>
</g>
<!-- step3&#45;&gt;step4 -->
<g id="edge3" class="edge">
<title>step3&#45;&gt;step4</title>
<path fill="none" stroke="#4338ca" stroke-width="1.8" d="M127.2,-466.93C127.2,-466.93 127.2,-441.2 127.2,-441.2"/>
<polygon fill="#4338ca" stroke="#4338ca" stroke-width="1.8" points="130,-441.2 127.2,-433.2 124.4,-441.2 130,-441.2"/>
</g>
<!-- step5 -->
<g id="node5" class="node">
<title>step5</title>
<path fill="#4338ca" stroke="black" d="M191.4,-338.15C191.4,-338.15 57,-338.15 57,-338.15 51,-338.15 45,-332.15 45,-326.15 45,-326.15 45,-308.75 45,-308.75 45,-302.75 51,-296.75 57,-296.75 57,-296.75 191.4,-296.75 191.4,-296.75 197.4,-296.75 203.4,-302.75 203.4,-308.75 203.4,-308.75 203.4,-326.15 203.4,-326.15 203.4,-332.15 197.4,-338.15 191.4,-338.15"/>
<text xml:space="preserve" text-anchor="middle" x="124.2" y="-320.5" font-family="Helvetica,sans-Serif" font-size="11.00" fill="white">5. Lazy import</text>
<text xml:space="preserve" text-anchor="middle" x="124.2" y="-307" font-family="Helvetica,sans-Serif" font-size="11.00" fill="white">via importlib</text>
</g>
<!-- step4&#45;&gt;step5 -->
<g id="edge4" class="edge">
<title>step4&#45;&gt;step5</title>
<path fill="none" stroke="#4338ca" stroke-width="1.8" d="M124.2,-374.72C124.2,-374.72 124.2,-349.36 124.2,-349.36"/>
<polygon fill="#4338ca" stroke="#4338ca" stroke-width="1.8" points="127,-349.36 124.2,-341.36 121.4,-349.36 127,-349.36"/>
</g>
<!-- step6 -->
<g id="node6" class="node">
<title>step6</title>
<path fill="#4338ca" stroke="black" d="M191.4,-259.75C191.4,-259.75 57,-259.75 57,-259.75 51,-259.75 45,-253.75 45,-247.75 45,-247.75 45,-216.85 45,-216.85 45,-210.85 51,-204.85 57,-204.85 57,-204.85 191.4,-204.85 191.4,-204.85 197.4,-204.85 203.4,-210.85 203.4,-216.85 203.4,-216.85 203.4,-247.75 203.4,-247.75 203.4,-253.75 197.4,-259.75 191.4,-259.75"/>
<text xml:space="preserve" text-anchor="middle" x="124.2" y="-242.1" font-family="Helvetica,sans-Serif" font-size="11.00" fill="white">6. Instantiate</text>
<text xml:space="preserve" text-anchor="middle" x="124.2" y="-228.6" font-family="Helvetica,sans-Serif" font-size="11.00" fill="white">correct model class</text>
<text xml:space="preserve" text-anchor="middle" x="124.2" y="-215.1" font-family="Helvetica,sans-Serif" font-size="11.00" fill="white">(e.g. Qwen2ForCausalLM)</text>
</g>
<!-- step5&#45;&gt;step6 -->
<g id="edge5" class="edge">
<title>step5&#45;&gt;step6</title>
<path fill="none" stroke="#4338ca" stroke-width="1.8" d="M124.2,-296.4C124.2,-296.4 124.2,-270.9 124.2,-270.9"/>
<polygon fill="#4338ca" stroke="#4338ca" stroke-width="1.8" points="127,-270.9 124.2,-262.9 121.4,-270.9 127,-270.9"/>
</g>
<!-- step7 -->
<g id="node7" class="node">
<title>step7</title>
<path fill="#4338ca" stroke="black" d="M146.4,-133.3C146.4,-133.3 12,-133.3 12,-133.3 6,-133.3 0,-127.3 0,-121.3 0,-121.3 0,-90.4 0,-90.4 0,-84.4 6,-78.4 12,-78.4 12,-78.4 146.4,-78.4 146.4,-78.4 152.4,-78.4 158.4,-84.4 158.4,-90.4 158.4,-90.4 158.4,-121.3 158.4,-121.3 158.4,-127.3 152.4,-133.3 146.4,-133.3"/>
<text xml:space="preserve" text-anchor="middle" x="79.2" y="-115.65" font-family="Helvetica,sans-Serif" font-size="11.00" fill="white">7. WeightConverter</text>
<text xml:space="preserve" text-anchor="middle" x="79.2" y="-102.15" font-family="Helvetica,sans-Serif" font-size="11.00" fill="white">loads &amp; transforms</text>
<text xml:space="preserve" text-anchor="middle" x="79.2" y="-88.65" font-family="Helvetica,sans-Serif" font-size="11.00" fill="white">weights</text>
</g>
<!-- step6&#45;&gt;step7 -->
<g id="edge6" class="edge">
<title>step6&#45;&gt;step7</title>
<path fill="none" stroke="#4338ca" stroke-width="1.8" d="M101.7,-204.55C101.7,-204.55 101.7,-144.26 101.7,-144.26"/>
<polygon fill="#4338ca" stroke="#4338ca" stroke-width="1.8" points="104.5,-144.26 101.7,-136.26 98.9,-144.26 104.5,-144.26"/>
</g>
<!-- step6&#45;&gt;auto_causal_lm -->
<g id="edge18" class="edge">
<title>step6&#45;&gt;auto_causal_lm</title>
<path fill="none" stroke="#6366f1" stroke-width="1.5" stroke-dasharray="5,2" d="M191.85,-204.55C191.85,-204.55 191.85,-133.43 191.85,-133.43"/>
<polygon fill="#6366f1" stroke="#6366f1" stroke-width="1.5" points="194.3,-133.43 191.85,-126.43 189.4,-133.43 194.3,-133.43"/>
<text xml:space="preserve" text-anchor="middle" x="188.32" y="-177.35" font-family="Helvetica,sans-Serif" font-size="10.00" fill="#4338ca">creates</text>
</g>
<!-- step8 -->
<g id="node8" class="node">
<title>step8</title>
<path fill="#4338ca" stroke="black" d="M146.4,-41.4C146.4,-41.4 12,-41.4 12,-41.4 6,-41.4 0,-35.4 0,-29.4 0,-29.4 0,-12 0,-12 0,-6 6,0 12,0 12,0 146.4,0 146.4,0 152.4,0 158.4,-6 158.4,-12 158.4,-12 158.4,-29.4 158.4,-29.4 158.4,-35.4 152.4,-41.4 146.4,-41.4"/>
<text xml:space="preserve" text-anchor="middle" x="79.2" y="-23.75" font-family="Helvetica,sans-Serif" font-size="11.00" fill="white">8. Return model</text>
<text xml:space="preserve" text-anchor="middle" x="79.2" y="-10.25" font-family="Helvetica,sans-Serif" font-size="11.00" fill="white">instance</text>
</g>
<!-- step7&#45;&gt;step8 -->
<g id="edge7" class="edge">
<title>step7&#45;&gt;step8</title>
<path fill="none" stroke="#4338ca" stroke-width="1.8" d="M79.2,-77.97C79.2,-77.97 79.2,-52.61 79.2,-52.61"/>
<polygon fill="#4338ca" stroke="#4338ca" stroke-width="1.8" points="82,-52.61 79.2,-44.61 76.4,-52.61 82,-52.61"/>
</g>
<!-- auto_text_label -->
<g id="node9" class="node">
<title>auto_text_label</title>
<path fill="#059669" stroke="black" stroke-width="2" d="M479.23,-250.3C479.23,-250.3 367.17,-250.3 367.17,-250.3 361.17,-250.3 355.17,-244.3 355.17,-238.3 355.17,-238.3 355.17,-226.3 355.17,-226.3 355.17,-220.3 361.17,-214.3 367.17,-214.3 367.17,-214.3 479.23,-214.3 479.23,-214.3 485.23,-214.3 491.23,-220.3 491.23,-226.3 491.23,-226.3 491.23,-238.3 491.23,-238.3 491.23,-244.3 485.23,-250.3 479.23,-250.3"/>
<text xml:space="preserve" text-anchor="middle" x="423.2" y="-227.45" font-family="Helvetica,sans-Serif" font-size="13.00" fill="white">Text Auto Classes</text>
</g>
<!-- auto_text_label&#45;&gt;auto_causal_lm -->
<g id="edge8" class="edge">
<title>auto_text_label&#45;&gt;auto_causal_lm</title>
<path fill="none" stroke="#059669" stroke-width="1.2" d="M354.75,-232C336.74,-232 322.25,-232 322.25,-232 322.25,-232 322.25,-132.01 322.25,-132.01"/>
<polygon fill="#059669" stroke="#059669" stroke-width="1.2" points="324.35,-132.01 322.25,-126.01 320.15,-132.01 324.35,-132.01"/>
</g>
<!-- auto_masked_lm -->
<g id="node11" class="node">
<title>auto_masked_lm</title>
<path fill="#d1fae5" stroke="black" d="M485.98,-123.85C485.98,-123.85 360.42,-123.85 360.42,-123.85 354.42,-123.85 348.42,-117.85 348.42,-111.85 348.42,-111.85 348.42,-99.85 348.42,-99.85 348.42,-93.85 354.42,-87.85 360.42,-87.85 360.42,-87.85 485.98,-87.85 485.98,-87.85 491.98,-87.85 497.98,-93.85 497.98,-99.85 497.98,-99.85 497.98,-111.85 497.98,-111.85 497.98,-117.85 491.98,-123.85 485.98,-123.85"/>
<text xml:space="preserve" text-anchor="middle" x="423.2" y="-102.15" font-family="Helvetica,sans-Serif" font-size="11.00" fill="#065f46">AutoModelForMaskedLM</text>
</g>
<!-- auto_text_label&#45;&gt;auto_masked_lm -->
<g id="edge9" class="edge">
<title>auto_text_label&#45;&gt;auto_masked_lm</title>
<path fill="none" stroke="#059669" stroke-width="1.2" d="M423.2,-213.91C423.2,-213.91 423.2,-132.08 423.2,-132.08"/>
<polygon fill="#059669" stroke="#059669" stroke-width="1.2" points="425.3,-132.08 423.2,-126.08 421.1,-132.08 425.3,-132.08"/>
</g>
<!-- auto_seq2seq -->
<g id="node12" class="node">
<title>auto_seq2seq</title>
<path fill="#d1fae5" stroke="black" d="M664.73,-123.85C664.73,-123.85 531.68,-123.85 531.68,-123.85 525.68,-123.85 519.68,-117.85 519.68,-111.85 519.68,-111.85 519.68,-99.85 519.68,-99.85 519.68,-93.85 525.68,-87.85 531.68,-87.85 531.68,-87.85 664.73,-87.85 664.73,-87.85 670.73,-87.85 676.73,-93.85 676.73,-99.85 676.73,-99.85 676.73,-111.85 676.73,-111.85 676.73,-117.85 670.73,-123.85 664.73,-123.85"/>
<text xml:space="preserve" text-anchor="middle" x="598.2" y="-102.15" font-family="Helvetica,sans-Serif" font-size="11.00" fill="#065f46">AutoModelForSeq2SeqLM</text>
</g>
<!-- auto_text_label&#45;&gt;auto_seq2seq -->
<g id="edge10" class="edge">
<title>auto_text_label&#45;&gt;auto_seq2seq</title>
<path fill="none" stroke="#059669" stroke-width="1.2" d="M491.72,-232C514.6,-232 534.39,-232 534.39,-232 534.39,-232 534.39,-132.01 534.39,-132.01"/>
<polygon fill="#059669" stroke="#059669" stroke-width="1.2" points="536.49,-132.01 534.39,-126.01 532.29,-132.01 536.49,-132.01"/>
</g>
<!-- auto_vision_label -->
<g id="node13" class="node">
<title>auto_vision_label</title>
<path fill="#059669" stroke="black" stroke-width="2" d="M566.85,-726.6C566.85,-726.6 443.55,-726.6 443.55,-726.6 437.55,-726.6 431.55,-720.6 431.55,-714.6 431.55,-714.6 431.55,-702.6 431.55,-702.6 431.55,-696.6 437.55,-690.6 443.55,-690.6 443.55,-690.6 566.85,-690.6 566.85,-690.6 572.85,-690.6 578.85,-696.6 578.85,-702.6 578.85,-702.6 578.85,-714.6 578.85,-714.6 578.85,-720.6 572.85,-726.6 566.85,-726.6"/>
<text xml:space="preserve" text-anchor="middle" x="505.2" y="-703.75" font-family="Helvetica,sans-Serif" font-size="13.00" fill="white">Vision Auto Classes</text>
</g>
<!-- auto_img_cls -->
<g id="node14" class="node">
<title>auto_img_cls</title>
<path fill="#d1fae5" stroke="black" d="M511.23,-604.4C511.23,-604.4 345.17,-604.4 345.17,-604.4 339.17,-604.4 333.17,-598.4 333.17,-592.4 333.17,-592.4 333.17,-580.4 333.17,-580.4 333.17,-574.4 339.17,-568.4 345.17,-568.4 345.17,-568.4 511.23,-568.4 511.23,-568.4 517.23,-568.4 523.23,-574.4 523.23,-580.4 523.23,-580.4 523.23,-592.4 523.23,-592.4 523.23,-598.4 517.23,-604.4 511.23,-604.4"/>
<text xml:space="preserve" text-anchor="middle" x="428.2" y="-582.7" font-family="Helvetica,sans-Serif" font-size="11.00" fill="#065f46">AutoModelForImageClassification</text>
</g>
<!-- auto_vision_label&#45;&gt;auto_img_cls -->
<g id="edge11" class="edge">
<title>auto_vision_label&#45;&gt;auto_img_cls</title>
<path fill="none" stroke="#059669" stroke-width="1.2" d="M477.39,-690.31C477.39,-690.31 477.39,-612.64 477.39,-612.64"/>
<polygon fill="#059669" stroke="#059669" stroke-width="1.2" points="479.49,-612.64 477.39,-606.64 475.29,-612.64 479.49,-612.64"/>
</g>
<!-- auto_img_text -->
<g id="node15" class="node">
<title>auto_img_text</title>
<path fill="#d1fae5" stroke="black" d="M710.85,-604.4C710.85,-604.4 557.55,-604.4 557.55,-604.4 551.55,-604.4 545.55,-598.4 545.55,-592.4 545.55,-592.4 545.55,-580.4 545.55,-580.4 545.55,-574.4 551.55,-568.4 557.55,-568.4 557.55,-568.4 710.85,-568.4 710.85,-568.4 716.85,-568.4 722.85,-574.4 722.85,-580.4 722.85,-580.4 722.85,-592.4 722.85,-592.4 722.85,-598.4 716.85,-604.4 710.85,-604.4"/>
<text xml:space="preserve" text-anchor="middle" x="634.2" y="-582.7" font-family="Helvetica,sans-Serif" font-size="11.00" fill="#065f46">AutoModelForImageTextToText</text>
</g>
<!-- auto_vision_label&#45;&gt;auto_img_text -->
<g id="edge12" class="edge">
<title>auto_vision_label&#45;&gt;auto_img_text</title>
<path fill="none" stroke="#059669" stroke-width="1.2" d="M562.2,-690.31C562.2,-690.31 562.2,-612.64 562.2,-612.64"/>
<polygon fill="#059669" stroke="#059669" stroke-width="1.2" points="564.3,-612.64 562.2,-606.64 560.1,-612.64 564.3,-612.64"/>
</g>
<!-- auto_audio_label -->
<g id="node16" class="node">
<title>auto_audio_label</title>
<path fill="#059669" stroke="black" stroke-width="2" d="M1096.1,-726.6C1096.1,-726.6 974.3,-726.6 974.3,-726.6 968.3,-726.6 962.3,-720.6 962.3,-714.6 962.3,-714.6 962.3,-702.6 962.3,-702.6 962.3,-696.6 968.3,-690.6 974.3,-690.6 974.3,-690.6 1096.1,-690.6 1096.1,-690.6 1102.1,-690.6 1108.1,-696.6 1108.1,-702.6 1108.1,-702.6 1108.1,-714.6 1108.1,-714.6 1108.1,-720.6 1102.1,-726.6 1096.1,-726.6"/>
<text xml:space="preserve" text-anchor="middle" x="1035.2" y="-703.75" font-family="Helvetica,sans-Serif" font-size="13.00" fill="white">Audio Auto Classes</text>
</g>
<!-- auto_speech -->
<g id="node17" class="node">
<title>auto_speech</title>
<path fill="#d1fae5" stroke="black" d="M1009.6,-604.4C1009.6,-604.4 854.8,-604.4 854.8,-604.4 848.8,-604.4 842.8,-598.4 842.8,-592.4 842.8,-592.4 842.8,-580.4 842.8,-580.4 842.8,-574.4 848.8,-568.4 854.8,-568.4 854.8,-568.4 1009.6,-568.4 1009.6,-568.4 1015.6,-568.4 1021.6,-574.4 1021.6,-580.4 1021.6,-580.4 1021.6,-592.4 1021.6,-592.4 1021.6,-598.4 1015.6,-604.4 1009.6,-604.4"/>
<text xml:space="preserve" text-anchor="middle" x="932.2" y="-582.7" font-family="Helvetica,sans-Serif" font-size="11.00" fill="#065f46">AutoModelForSpeechSeq2Seq</text>
</g>
<!-- auto_audio_label&#45;&gt;auto_speech -->
<g id="edge13" class="edge">
<title>auto_audio_label&#45;&gt;auto_speech</title>
<path fill="none" stroke="#059669" stroke-width="1.2" d="M991.95,-690.31C991.95,-690.31 991.95,-612.64 991.95,-612.64"/>
<polygon fill="#059669" stroke="#059669" stroke-width="1.2" points="994.05,-612.64 991.95,-606.64 989.85,-612.64 994.05,-612.64"/>
</g>
<!-- auto_audio_cls -->
<g id="node18" class="node">
<title>auto_audio_cls</title>
<path fill="#d1fae5" stroke="black" d="M1219.1,-604.4C1219.1,-604.4 1055.3,-604.4 1055.3,-604.4 1049.3,-604.4 1043.3,-598.4 1043.3,-592.4 1043.3,-592.4 1043.3,-580.4 1043.3,-580.4 1043.3,-574.4 1049.3,-568.4 1055.3,-568.4 1055.3,-568.4 1219.1,-568.4 1219.1,-568.4 1225.1,-568.4 1231.1,-574.4 1231.1,-580.4 1231.1,-580.4 1231.1,-592.4 1231.1,-592.4 1231.1,-598.4 1225.1,-604.4 1219.1,-604.4"/>
<text xml:space="preserve" text-anchor="middle" x="1137.2" y="-582.7" font-family="Helvetica,sans-Serif" font-size="11.00" fill="#065f46">AutoModelForAudioClassification</text>
</g>
<!-- auto_audio_label&#45;&gt;auto_audio_cls -->
<g id="edge14" class="edge">
<title>auto_audio_label&#45;&gt;auto_audio_cls</title>
<path fill="none" stroke="#059669" stroke-width="1.2" d="M1075.7,-690.31C1075.7,-690.31 1075.7,-612.64 1075.7,-612.64"/>
<polygon fill="#059669" stroke="#059669" stroke-width="1.2" points="1077.8,-612.64 1075.7,-606.64 1073.6,-612.64 1077.8,-612.64"/>
</g>
<!-- auto_mm_label -->
<g id="node19" class="node">
<title>auto_mm_label</title>
<path fill="#059669" stroke="black" stroke-width="2" d="M1639.73,-726.6C1639.73,-726.6 1488.67,-726.6 1488.67,-726.6 1482.67,-726.6 1476.67,-720.6 1476.67,-714.6 1476.67,-714.6 1476.67,-702.6 1476.67,-702.6 1476.67,-696.6 1482.67,-690.6 1488.67,-690.6 1488.67,-690.6 1639.73,-690.6 1639.73,-690.6 1645.73,-690.6 1651.73,-696.6 1651.73,-702.6 1651.73,-702.6 1651.73,-714.6 1651.73,-714.6 1651.73,-720.6 1645.73,-726.6 1639.73,-726.6"/>
<text xml:space="preserve" text-anchor="middle" x="1564.2" y="-703.75" font-family="Helvetica,sans-Serif" font-size="13.00" fill="white">Multimodal Auto Classes</text>
</g>
<!-- auto_mm_lm -->
<g id="node20" class="node">
<title>auto_mm_lm</title>
<path fill="#d1fae5" stroke="black" d="M1558.1,-604.4C1558.1,-604.4 1418.3,-604.4 1418.3,-604.4 1412.3,-604.4 1406.3,-598.4 1406.3,-592.4 1406.3,-592.4 1406.3,-580.4 1406.3,-580.4 1406.3,-574.4 1412.3,-568.4 1418.3,-568.4 1418.3,-568.4 1558.1,-568.4 1558.1,-568.4 1564.1,-568.4 1570.1,-574.4 1570.1,-580.4 1570.1,-580.4 1570.1,-592.4 1570.1,-592.4 1570.1,-598.4 1564.1,-604.4 1558.1,-604.4"/>
<text xml:space="preserve" text-anchor="middle" x="1488.2" y="-582.7" font-family="Helvetica,sans-Serif" font-size="11.00" fill="#065f46">AutoModelForMultimodalLM</text>
</g>
<!-- auto_mm_label&#45;&gt;auto_mm_lm -->
<g id="edge15" class="edge">
<title>auto_mm_label&#45;&gt;auto_mm_lm</title>
<path fill="none" stroke="#059669" stroke-width="1.2" d="M1523.39,-690.31C1523.39,-690.31 1523.39,-612.64 1523.39,-612.64"/>
<polygon fill="#059669" stroke="#059669" stroke-width="1.2" points="1525.49,-612.64 1523.39,-606.64 1521.29,-612.64 1525.49,-612.64"/>
</g>
<!-- auto_backbone -->
<g id="node21" class="node">
<title>auto_backbone</title>
<path fill="#d1fae5" stroke="black" d="M1679.85,-604.4C1679.85,-604.4 1604.55,-604.4 1604.55,-604.4 1598.55,-604.4 1592.55,-598.4 1592.55,-592.4 1592.55,-592.4 1592.55,-580.4 1592.55,-580.4 1592.55,-574.4 1598.55,-568.4 1604.55,-568.4 1604.55,-568.4 1679.85,-568.4 1679.85,-568.4 1685.85,-568.4 1691.85,-574.4 1691.85,-580.4 1691.85,-580.4 1691.85,-592.4 1691.85,-592.4 1691.85,-598.4 1685.85,-604.4 1679.85,-604.4"/>
<text xml:space="preserve" text-anchor="middle" x="1642.2" y="-582.7" font-family="Helvetica,sans-Serif" font-size="11.00" fill="#065f46">AutoBackbone</text>
</g>
<!-- auto_mm_label&#45;&gt;auto_backbone -->
<g id="edge16" class="edge">
<title>auto_mm_label&#45;&gt;auto_backbone</title>
<path fill="none" stroke="#059669" stroke-width="1.2" d="M1622.14,-690.31C1622.14,-690.31 1622.14,-612.64 1622.14,-612.64"/>
<polygon fill="#059669" stroke="#059669" stroke-width="1.2" points="1624.24,-612.64 1622.14,-606.64 1620.04,-612.64 1624.24,-612.64"/>
</g>
<!-- auto_note -->
<g id="node22" class="node">
<title>auto_note</title>
<polygon fill="#fef3c7" stroke="black" points="491.98,-338.15 348.42,-338.15 348.42,-296.75 497.98,-296.75 497.98,-332.15 491.98,-338.15"/>
<polyline fill="none" stroke="black" points="491.98,-338.15 491.98,-332.15"/>
<polyline fill="none" stroke="black" points="497.98,-332.15 491.98,-332.15"/>
<text xml:space="preserve" text-anchor="middle" x="423.2" y="-320.5" font-family="Helvetica,sans-Serif" font-size="11.00" fill="#92400e">40+ Auto Classes</text>
<text xml:space="preserve" text-anchor="middle" x="423.2" y="-307" font-family="Helvetica,sans-Serif" font-size="11.00" fill="#92400e">total across all categories</text>
</g>
<!-- auto_note&#45;&gt;auto_text_label -->
<g id="edge19" class="edge">
<title>auto_note&#45;&gt;auto_text_label</title>
<path fill="none" stroke="#d97706" stroke-dasharray="1,5" d="M423.2,-296.4C423.2,-296.4 423.2,-257.31 423.2,-257.31"/>
<polygon fill="#d97706" stroke="#d97706" points="424.95,-257.31 423.2,-252.31 421.45,-257.31 424.95,-257.31"/>
</g>
</g>
</svg>
