<?xml version="1.0" encoding="UTF-8" standalone="no"?>
<!DOCTYPE svg PUBLIC "-//W3C//DTD SVG 1.1//EN"
 "http://www.w3.org/Graphics/SVG/1.1/DTD/svg11.dtd">
<!-- Generated by graphviz version 14.1.2 (0)
 -->
<!-- Title: pipeline_system Pages: 1 -->
<svg width="7998pt" height="881pt"
 viewBox="0.00 0.00 7998.00 881.00" xmlns="http://www.w3.org/2000/svg" xmlns:xlink="http://www.w3.org/1999/xlink">
<g id="graph0" class="graph" transform="scale(2.08333 2.08333) rotate(0) translate(36 386.9)">
<title>pipeline_system</title>
<polygon fill="white" stroke="none" points="-36,36 -36,-386.9 3803,-386.9 3803,36 -36,36"/>
<text xml:space="preserve" text-anchor="middle" x="1883.5" y="-324.1" font-family="Helvetica,sans-Serif" font-size="24.00" fill="#7c3aed">Pipeline System &#45; 28 End&#45;to&#45;End Inference Pipelines</text>
<g id="clust1" class="cluster">
<title>cluster_methods</title>
<polygon fill="white" stroke="black" points="116,-103 116,-190 695,-190 695,-103 116,-103"/>
<text xml:space="preserve" text-anchor="middle" x="405.5" y="-163.2" font-family="Helvetica,sans-Serif" font-size="24.00" fill="#7c3aed">Pipeline System &#45; 28 End&#45;to&#45;End Inference Pipelines</text>
</g>
<g id="clust2" class="cluster">
<title>cluster_nlp</title>
<polygon fill="white" stroke="black" points="8,-8 8,-95 1302,-95 1302,-8 8,-8"/>
<text xml:space="preserve" text-anchor="middle" x="655" y="-68.2" font-family="Helvetica,sans-Serif" font-size="24.00" fill="#7c3aed">Pipeline System &#45; 28 End&#45;to&#45;End Inference Pipelines</text>
</g>
<g id="clust3" class="cluster">
<title>cluster_vision</title>
<polygon fill="white" stroke="black" points="1310,-8 1310,-95 2576,-95 2576,-8 1310,-8"/>
<text xml:space="preserve" text-anchor="middle" x="1943" y="-68.2" font-family="Helvetica,sans-Serif" font-size="24.00" fill="#7c3aed">Pipeline System &#45; 28 End&#45;to&#45;End Inference Pipelines</text>
</g>
<g id="clust4" class="cluster">
<title>cluster_audio</title>
<polygon fill="white" stroke="black" points="2584,-8 2584,-95 3172,-95 3172,-8 2584,-8"/>
<text xml:space="preserve" text-anchor="middle" x="2878" y="-68.2" font-family="Helvetica,sans-Serif" font-size="24.00" fill="#7c3aed">Pipeline System &#45; 28 End&#45;to&#45;End Inference Pipelines</text>
</g>
<g id="clust5" class="cluster">
<title>cluster_mm</title>
<polygon fill="white" stroke="black" points="3180,-8 3180,-95 3759,-95 3759,-8 3180,-8"/>
<text xml:space="preserve" text-anchor="middle" x="3469.5" y="-68.2" font-family="Helvetica,sans-Serif" font-size="24.00" fill="#7c3aed">Pipeline System &#45; 28 End&#45;to&#45;End Inference Pipelines</text>
</g>
<!-- pipeline_factory -->
<g id="node1" class="node">
<title>pipeline_factory</title>
<path fill="#7c3aed" stroke="black" stroke-width="2" d="M777.15,-315.9C777.15,-315.9 716.85,-315.9 716.85,-315.9 710.85,-315.9 704.85,-309.9 704.85,-303.9 704.85,-303.9 704.85,-291.9 704.85,-291.9 704.85,-285.9 710.85,-279.9 716.85,-279.9 716.85,-279.9 777.15,-279.9 777.15,-279.9 783.15,-279.9 789.15,-285.9 789.15,-291.9 789.15,-291.9 789.15,-303.9 789.15,-303.9 789.15,-309.9 783.15,-315.9 777.15,-315.9"/>
<text xml:space="preserve" text-anchor="middle" x="747" y="-292.47" font-family="Helvetica,sans-Serif" font-size="14.00" fill="white">pipeline()</text>
</g>
<!-- pipeline_base -->
<g id="node2" class="node">
<title>pipeline_base</title>
<path fill="#7c3aed" stroke="black" d="M788.02,-243.9C788.02,-243.9 705.98,-243.9 705.98,-243.9 699.98,-243.9 693.98,-237.9 693.98,-231.9 693.98,-231.9 693.98,-210 693.98,-210 693.98,-204 699.98,-198 705.98,-198 705.98,-198 788.02,-198 788.02,-198 794.02,-198 800.02,-204 800.02,-210 800.02,-210 800.02,-231.9 800.02,-231.9 800.02,-237.9 794.02,-243.9 788.02,-243.9"/>
<text xml:space="preserve" text-anchor="middle" x="747" y="-223.4" font-family="Helvetica,sans-Serif" font-size="14.00" fill="white">Pipeline</text>
<text xml:space="preserve" text-anchor="middle" x="747" y="-207.65" font-family="Helvetica,sans-Serif" font-size="14.00" fill="white">(Base Class)</text>
</g>
<!-- pipeline_factory&#45;&gt;pipeline_base -->
<g id="edge4" class="edge">
<title>pipeline_factory&#45;&gt;pipeline_base</title>
<path fill="none" stroke="#7c3aed" stroke-width="2" d="M747,-279.66C747,-279.66 747,-255.34 747,-255.34"/>
<polygon fill="#7c3aed" stroke="#7c3aed" stroke-width="2" points="749.8,-255.34 747,-247.34 744.2,-255.34 749.8,-255.34"/>
</g>
<!-- method_preprocess -->
<g id="node3" class="node">
<title>method_preprocess</title>
<path fill="#ede9fe" stroke="black" stroke-dasharray="5,2" d="M444.77,-147C444.77,-147 373.23,-147 373.23,-147 367.23,-147 361.23,-141 361.23,-135 361.23,-135 361.23,-123 361.23,-123 361.23,-117 367.23,-111 373.23,-111 373.23,-111 444.77,-111 444.77,-111 450.77,-111 456.77,-117 456.77,-123 456.77,-123 456.77,-135 456.77,-135 456.77,-141 450.77,-147 444.77,-147"/>
<text xml:space="preserve" text-anchor="middle" x="409" y="-124.72" font-family="Helvetica,sans-Serif" font-size="12.00" fill="#5b21b6">preprocess()</text>
</g>
<!-- pipeline_base&#45;&gt;method_preprocess -->
<g id="edge1" class="edge">
<title>pipeline_base&#45;&gt;method_preprocess</title>
<path fill="none" stroke="#7c3aed" stroke-width="1.2" stroke-dasharray="5,2" d="M693.82,-229C598.63,-229 409,-229 409,-229 409,-229 409,-155.16 409,-155.16"/>
<polygon fill="none" stroke="#7c3aed" stroke-width="1.2" points="411.1,-155.16 409,-149.16 406.9,-155.16 411.1,-155.16"/>
</g>
<!-- method_forward -->
<g id="node4" class="node">
<title>method_forward</title>
<path fill="#ede9fe" stroke="black" stroke-dasharray="5,2" d="M549.4,-147C549.4,-147 490.6,-147 490.6,-147 484.6,-147 478.6,-141 478.6,-135 478.6,-135 478.6,-123 478.6,-123 478.6,-117 484.6,-111 490.6,-111 490.6,-111 549.4,-111 549.4,-111 555.4,-111 561.4,-117 561.4,-123 561.4,-123 561.4,-135 561.4,-135 561.4,-141 555.4,-147 549.4,-147"/>
<text xml:space="preserve" text-anchor="middle" x="520" y="-124.72" font-family="Helvetica,sans-Serif" font-size="12.00" fill="#5b21b6">_forward()</text>
</g>
<!-- pipeline_base&#45;&gt;method_forward -->
<g id="edge2" class="edge">
<title>pipeline_base&#45;&gt;method_forward</title>
<path fill="none" stroke="#7c3aed" stroke-width="1.2" stroke-dasharray="5,2" d="M693.49,-213C626.38,-213 520,-213 520,-213 520,-213 520,-155.04 520,-155.04"/>
<polygon fill="none" stroke="#7c3aed" stroke-width="1.2" points="522.1,-155.04 520,-149.04 517.9,-155.04 522.1,-155.04"/>
</g>
<!-- method_postprocess -->
<g id="node5" class="node">
<title>method_postprocess</title>
<path fill="#ede9fe" stroke="black" stroke-dasharray="5,2" d="M672.4,-147C672.4,-147 595.6,-147 595.6,-147 589.6,-147 583.6,-141 583.6,-135 583.6,-135 583.6,-123 583.6,-123 583.6,-117 589.6,-111 595.6,-111 595.6,-111 672.4,-111 672.4,-111 678.4,-111 684.4,-117 684.4,-123 684.4,-123 684.4,-135 684.4,-135 684.4,-141 678.4,-147 672.4,-147"/>
<text xml:space="preserve" text-anchor="middle" x="634" y="-124.72" font-family="Helvetica,sans-Serif" font-size="12.00" fill="#5b21b6">postprocess()</text>
</g>
<!-- pipeline_base&#45;&gt;method_postprocess -->
<g id="edge3" class="edge">
<title>pipeline_base&#45;&gt;method_postprocess</title>
<path fill="none" stroke="#7c3aed" stroke-width="1.2" stroke-dasharray="5,2" d="M699.98,-197.75C699.98,-170.51 699.98,-129 699.98,-129 699.98,-129 692.49,-129 692.49,-129"/>
<polygon fill="none" stroke="#7c3aed" stroke-width="1.2" points="692.49,-126.9 686.49,-129 692.49,-131.1 692.49,-126.9"/>
</g>
<!-- nlp_label -->
<g id="node6" class="node">
<title>nlp_label</title>
<path fill="#e11d48" stroke="black" stroke-width="2" d="M776.02,-147C776.02,-147 717.98,-147 717.98,-147 711.98,-147 705.98,-141 705.98,-135 705.98,-135 705.98,-123 705.98,-123 705.98,-117 711.98,-111 717.98,-111 717.98,-111 776.02,-111 776.02,-111 782.02,-111 788.02,-117 788.02,-123 788.02,-123 788.02,-135 788.02,-135 788.02,-141 782.02,-147 776.02,-147"/>
<text xml:space="preserve" text-anchor="middle" x="747" y="-124.15" font-family="Helvetica,sans-Serif" font-size="13.00" fill="white">NLP (10)</text>
</g>
<!-- pipeline_base&#45;&gt;nlp_label -->
<g id="edge32" class="edge">
<title>pipeline_base&#45;&gt;nlp_label</title>
<path fill="none" stroke="#7c3aed" stroke-width="1.5" d="M747,-197.75C747,-197.75 747,-156.54 747,-156.54"/>
<polygon fill="#7c3aed" stroke="#7c3aed" stroke-width="1.5" points="749.45,-156.54 747,-149.54 744.55,-156.54 749.45,-156.54"/>
</g>
<!-- vision_label -->
<g id="node17" class="node">
<title>vision_label</title>
<path fill="#0284c7" stroke="black" stroke-width="2" d="M1880.53,-147C1880.53,-147 1819.47,-147 1819.47,-147 1813.47,-147 1807.47,-141 1807.47,-135 1807.47,-135 1807.47,-123 1807.47,-123 1807.47,-117 1813.47,-111 1819.47,-111 1819.47,-111 1880.53,-111 1880.53,-111 1886.53,-111 1892.53,-117 1892.53,-123 1892.53,-123 1892.53,-135 1892.53,-135 1892.53,-141 1886.53,-147 1880.53,-147"/>
<text xml:space="preserve" text-anchor="middle" x="1850" y="-124.15" font-family="Helvetica,sans-Serif" font-size="13.00" fill="white">Vision (9)</text>
</g>
<!-- pipeline_base&#45;&gt;vision_label -->
<g id="edge33" class="edge">
<title>pipeline_base&#45;&gt;vision_label</title>
<path fill="none" stroke="#7c3aed" stroke-width="1.5" d="M794.02,-197.56C794.02,-174.6 794.02,-143 794.03,-143 794.03,-143 1798.03,-143 1798.03,-143"/>
<polygon fill="#7c3aed" stroke="#7c3aed" stroke-width="1.5" points="1798.03,-145.45 1805.03,-143 1798.03,-140.55 1798.03,-145.45"/>
</g>
<!-- audio_label -->
<g id="node27" class="node">
<title>audio_label</title>
<path fill="#ea580c" stroke="black" stroke-width="2" d="M2855.78,-147C2855.78,-147 2796.22,-147 2796.22,-147 2790.22,-147 2784.22,-141 2784.22,-135 2784.22,-135 2784.22,-123 2784.22,-123 2784.22,-117 2790.22,-111 2796.22,-111 2796.22,-111 2855.78,-111 2855.78,-111 2861.78,-111 2867.78,-117 2867.78,-123 2867.78,-123 2867.78,-135 2867.78,-135 2867.78,-141 2861.78,-147 2855.78,-147"/>
<text xml:space="preserve" text-anchor="middle" x="2826" y="-124.15" font-family="Helvetica,sans-Serif" font-size="13.00" fill="white">Audio (4)</text>
</g>
<!-- pipeline_base&#45;&gt;audio_label -->
<g id="edge34" class="edge">
<title>pipeline_base&#45;&gt;audio_label</title>
<path fill="none" stroke="#7c3aed" stroke-width="1.5" d="M800.48,-213C1125.89,-213 2826,-213 2826,-213 2826,-213 2826,-156.5 2826,-156.5"/>
<polygon fill="#7c3aed" stroke="#7c3aed" stroke-width="1.5" points="2828.45,-156.5 2826,-149.5 2823.55,-156.5 2828.45,-156.5"/>
</g>
<!-- mm_label -->
<g id="node32" class="node">
<title>mm_label</title>
<path fill="#0d9488" stroke="black" stroke-width="2" d="M3430.4,-147C3430.4,-147 3341.6,-147 3341.6,-147 3335.6,-147 3329.6,-141 3329.6,-135 3329.6,-135 3329.6,-123 3329.6,-123 3329.6,-117 3335.6,-111 3341.6,-111 3341.6,-111 3430.4,-111 3430.4,-111 3436.4,-111 3442.4,-117 3442.4,-123 3442.4,-123 3442.4,-135 3442.4,-135 3442.4,-141 3436.4,-147 3430.4,-147"/>
<text xml:space="preserve" text-anchor="middle" x="3386" y="-124.15" font-family="Helvetica,sans-Serif" font-size="13.00" fill="white">Multimodal (4)</text>
</g>
<!-- pipeline_base&#45;&gt;mm_label -->
<g id="edge35" class="edge">
<title>pipeline_base&#45;&gt;mm_label</title>
<path fill="none" stroke="#7c3aed" stroke-width="1.5" d="M800.31,-229C1174.02,-229 3386,-229 3386,-229 3386,-229 3386,-156.61 3386,-156.61"/>
<polygon fill="#7c3aed" stroke="#7c3aed" stroke-width="1.5" points="3388.45,-156.61 3386,-149.61 3383.55,-156.61 3388.45,-156.61"/>
</g>
<!-- nlp_text_gen -->
<g id="node7" class="node">
<title>nlp_text_gen</title>
<path fill="#ffe4e6" stroke="black" d="M97.65,-52C97.65,-52 28.35,-52 28.35,-52 22.35,-52 16.35,-46 16.35,-40 16.35,-40 16.35,-28 16.35,-28 16.35,-22 22.35,-16 28.35,-16 28.35,-16 97.65,-16 97.65,-16 103.65,-16 109.65,-22 109.65,-28 109.65,-28 109.65,-40 109.65,-40 109.65,-46 103.65,-52 97.65,-52"/>
<text xml:space="preserve" text-anchor="middle" x="63" y="-30.5" font-family="Helvetica,sans-Serif" font-size="10.00" fill="#9f1239">text&#45;generation</text>
</g>
<!-- nlp_label&#45;&gt;nlp_text_gen -->
<g id="edge5" class="edge">
<title>nlp_label&#45;&gt;nlp_text_gen</title>
<path fill="none" stroke="#e11d48" d="M716.23,-110.66C716.23,-106.36 716.23,-103 716.23,-103 716.23,-103 63,-103 63,-103 63,-103 63,-59 63,-59"/>
<polygon fill="#e11d48" stroke="#e11d48" points="64.75,-59 63,-54 61.25,-59 64.75,-59"/>
</g>
<!-- nlp_text_cls -->
<g id="node8" class="node">
<title>nlp_text_cls</title>
<path fill="#ffe4e6" stroke="black" d="M224.65,-52C224.65,-52 143.35,-52 143.35,-52 137.35,-52 131.35,-46 131.35,-40 131.35,-40 131.35,-28 131.35,-28 131.35,-22 137.35,-16 143.35,-16 143.35,-16 224.65,-16 224.65,-16 230.65,-16 236.65,-22 236.65,-28 236.65,-28 236.65,-40 236.65,-40 236.65,-46 230.65,-52 224.65,-52"/>
<text xml:space="preserve" text-anchor="middle" x="184" y="-30.5" font-family="Helvetica,sans-Serif" font-size="10.00" fill="#9f1239">text&#45;classification</text>
</g>
<!-- nlp_label&#45;&gt;nlp_text_cls -->
<g id="edge6" class="edge">
<title>nlp_label&#45;&gt;nlp_text_cls</title>
<path fill="none" stroke="#e11d48" d="M726.49,-110.68C726.49,-102.21 726.49,-94 726.49,-94 726.49,-94 184,-94 184,-94 184,-94 184,-58.84 184,-58.84"/>
<polygon fill="#e11d48" stroke="#e11d48" points="185.75,-58.84 184,-53.84 182.25,-58.84 185.75,-58.84"/>
</g>
<!-- nlp_tok_cls -->
<g id="node9" class="node">
<title>nlp_tok_cls</title>
<path fill="#ffe4e6" stroke="black" d="M359.4,-52C359.4,-52 270.6,-52 270.6,-52 264.6,-52 258.6,-46 258.6,-40 258.6,-40 258.6,-28 258.6,-28 258.6,-22 264.6,-16 270.6,-16 270.6,-16 359.4,-16 359.4,-16 365.4,-16 371.4,-22 371.4,-28 371.4,-28 371.4,-40 371.4,-40 371.4,-46 365.4,-52 359.4,-52"/>
<text xml:space="preserve" text-anchor="middle" x="315" y="-30.5" font-family="Helvetica,sans-Serif" font-size="10.00" fill="#9f1239">token&#45;classification</text>
</g>
<!-- nlp_label&#45;&gt;nlp_tok_cls -->
<g id="edge7" class="edge">
<title>nlp_label&#45;&gt;nlp_tok_cls</title>
<path fill="none" stroke="#e11d48" d="M736.74,-110.51C736.74,-98.86 736.74,-86 736.74,-86 736.74,-86 366.31,-86 366.31,-86 366.31,-86 366.31,-58.99 366.31,-58.99"/>
<polygon fill="#e11d48" stroke="#e11d48" points="368.06,-58.99 366.31,-53.99 364.56,-58.99 368.06,-58.99"/>
</g>
<!-- nlp_fill_mask -->
<g id="node10" class="node">
<title>nlp_fill_mask</title>
<path fill="#ffe4e6" stroke="black" d="M446.77,-52C446.77,-52 405.23,-52 405.23,-52 399.23,-52 393.23,-46 393.23,-40 393.23,-40 393.23,-28 393.23,-28 393.23,-22 399.23,-16 405.23,-16 405.23,-16 446.77,-16 446.77,-16 452.77,-16 458.77,-22 458.77,-28 458.77,-28 458.77,-40 458.77,-40 458.77,-46 452.77,-52 446.77,-52"/>
<text xml:space="preserve" text-anchor="middle" x="426" y="-30.5" font-family="Helvetica,sans-Serif" font-size="10.00" fill="#9f1239">fill&#45;mask</text>
</g>
<!-- nlp_label&#45;&gt;nlp_fill_mask -->
<g id="edge8" class="edge">
<title>nlp_label&#45;&gt;nlp_fill_mask</title>
<path fill="none" stroke="#e11d48" d="M747,-110.52C747,-95.57 747,-77 747,-77 747,-77 425,-77 425,-77 425,-77 425,-59 425,-59"/>
<polygon fill="#e11d48" stroke="#e11d48" points="426.75,-59 425,-54 423.25,-59 426.75,-59"/>
</g>
<!-- nlp_summ -->
<g id="node11" class="node">
<title>nlp_summ</title>
<path fill="#ffe4e6" stroke="black" d="M561.27,-52C561.27,-52 492.73,-52 492.73,-52 486.73,-52 480.73,-46 480.73,-40 480.73,-40 480.73,-28 480.73,-28 480.73,-22 486.73,-16 492.73,-16 492.73,-16 561.27,-16 561.27,-16 567.27,-16 573.27,-22 573.27,-28 573.27,-28 573.27,-40 573.27,-40 573.27,-46 567.27,-52 561.27,-52"/>
<text xml:space="preserve" text-anchor="middle" x="527" y="-30.5" font-family="Helvetica,sans-Serif" font-size="10.00" fill="#9f1239">summarization</text>
</g>
<!-- nlp_label&#45;&gt;nlp_summ -->
<g id="edge9" class="edge">
<title>nlp_label&#45;&gt;nlp_summ</title>
<path fill="none" stroke="#e11d48" d="M757.26,-110.67C757.26,-93.03 757.26,-69 757.26,-69 757.26,-69 567.34,-69 567.34,-69 567.34,-69 567.34,-58.83 567.34,-58.83"/>
<polygon fill="#e11d48" stroke="#e11d48" points="569.09,-58.83 567.34,-53.83 565.59,-58.83 569.09,-58.83"/>
</g>
<!-- nlp_trans -->
<g id="node12" class="node">
<title>nlp_trans</title>
<path fill="#ffe4e6" stroke="black" d="M656.9,-52C656.9,-52 607.1,-52 607.1,-52 601.1,-52 595.1,-46 595.1,-40 595.1,-40 595.1,-28 595.1,-28 595.1,-22 601.1,-16 607.1,-16 607.1,-16 656.9,-16 656.9,-16 662.9,-16 668.9,-22 668.9,-28 668.9,-28 668.9,-40 668.9,-40 668.9,-46 662.9,-52 656.9,-52"/>
<text xml:space="preserve" text-anchor="middle" x="632" y="-30.5" font-family="Helvetica,sans-Serif" font-size="10.00" fill="#9f1239">translation</text>
</g>
<!-- nlp_label&#45;&gt;nlp_trans -->
<g id="edge10" class="edge">
<title>nlp_label&#45;&gt;nlp_trans</title>
<path fill="none" stroke="#e11d48" d="M767.51,-110.51C767.51,-90.07 767.51,-60 767.51,-60 767.51,-60 632,-60 632,-60 632,-60 632,-58.85 632,-58.85"/>
<polygon fill="#e11d48" stroke="#e11d48" points="633.75,-58.85 632,-53.85 630.25,-58.85 633.75,-58.85"/>
</g>
<!-- nlp_qa -->
<g id="node13" class="node">
<title>nlp_qa</title>
<path fill="#ffe4e6" stroke="black" d="M791.4,-52C791.4,-52 702.6,-52 702.6,-52 696.6,-52 690.6,-46 690.6,-40 690.6,-40 690.6,-28 690.6,-28 690.6,-22 696.6,-16 702.6,-16 702.6,-16 791.4,-16 791.4,-16 797.4,-16 803.4,-22 803.4,-28 803.4,-28 803.4,-40 803.4,-40 803.4,-46 797.4,-52 791.4,-52"/>
<text xml:space="preserve" text-anchor="middle" x="747" y="-30.5" font-family="Helvetica,sans-Serif" font-size="10.00" fill="#9f1239">question&#45;answering</text>
</g>
<!-- nlp_label&#45;&gt;nlp_qa -->
<g id="edge11" class="edge">
<title>nlp_label&#45;&gt;nlp_qa</title>
<path fill="none" stroke="#e11d48" d="M777.77,-110.68C777.77,-110.68 777.77,-58.77 777.77,-58.77"/>
<polygon fill="#e11d48" stroke="#e11d48" points="779.52,-58.77 777.77,-53.77 776.02,-58.77 779.52,-58.77"/>
</g>
<!-- nlp_zero_cls -->
<g id="node14" class="node">
<title>nlp_zero_cls</title>
<path fill="#ffe4e6" stroke="black" d="M942.65,-52C942.65,-52 837.35,-52 837.35,-52 831.35,-52 825.35,-46 825.35,-40 825.35,-40 825.35,-28 825.35,-28 825.35,-22 831.35,-16 837.35,-16 837.35,-16 942.65,-16 942.65,-16 948.65,-16 954.65,-22 954.65,-28 954.65,-28 954.65,-40 954.65,-40 954.65,-46 948.65,-52 942.65,-52"/>
<text xml:space="preserve" text-anchor="middle" x="890" y="-30.5" font-family="Helvetica,sans-Serif" font-size="10.00" fill="#9f1239">zero&#45;shot&#45;classification</text>
</g>
<!-- nlp_label&#45;&gt;nlp_zero_cls -->
<g id="edge12" class="edge">
<title>nlp_label&#45;&gt;nlp_zero_cls</title>
<path fill="none" stroke="#e11d48" d="M788.36,-116C830.59,-116 890,-116 890,-116 890,-116 890,-58.71 890,-58.71"/>
<polygon fill="#e11d48" stroke="#e11d48" points="891.75,-58.71 890,-53.71 888.25,-58.71 891.75,-58.71"/>
</g>
<!-- nlp_table_qa -->
<g id="node15" class="node">
<title>nlp_table_qa</title>
<path fill="#ffe4e6" stroke="black" d="M1101.4,-52C1101.4,-52 988.6,-52 988.6,-52 982.6,-52 976.6,-46 976.6,-40 976.6,-40 976.6,-28 976.6,-28 976.6,-22 982.6,-16 988.6,-16 988.6,-16 1101.4,-16 1101.4,-16 1107.4,-16 1113.4,-22 1113.4,-28 1113.4,-28 1113.4,-40 1113.4,-40 1113.4,-46 1107.4,-52 1101.4,-52"/>
<text xml:space="preserve" text-anchor="middle" x="1045" y="-30.5" font-family="Helvetica,sans-Serif" font-size="10.00" fill="#9f1239">table&#45;question&#45;answering</text>
</g>
<!-- nlp_label&#45;&gt;nlp_table_qa -->
<g id="edge13" class="edge">
<title>nlp_label&#45;&gt;nlp_table_qa</title>
<path fill="none" stroke="#e11d48" d="M788.44,-125C870.32,-125 1045,-125 1045,-125 1045,-125 1045,-58.93 1045,-58.93"/>
<polygon fill="#e11d48" stroke="#e11d48" points="1046.75,-58.93 1045,-53.93 1043.25,-58.93 1046.75,-58.93"/>
</g>
<!-- nlp_doc_qa -->
<g id="node16" class="node">
<title>nlp_doc_qa</title>
<path fill="#ffe4e6" stroke="black" d="M1282.28,-52C1282.28,-52 1147.72,-52 1147.72,-52 1141.72,-52 1135.72,-46 1135.72,-40 1135.72,-40 1135.72,-28 1135.72,-28 1135.72,-22 1141.72,-16 1147.72,-16 1147.72,-16 1282.28,-16 1282.28,-16 1288.28,-16 1294.28,-22 1294.28,-28 1294.28,-28 1294.28,-40 1294.28,-40 1294.28,-46 1288.28,-52 1282.28,-52"/>
<text xml:space="preserve" text-anchor="middle" x="1215" y="-30.5" font-family="Helvetica,sans-Serif" font-size="10.00" fill="#9f1239">document&#45;question&#45;answering</text>
</g>
<!-- nlp_label&#45;&gt;nlp_doc_qa -->
<g id="edge14" class="edge">
<title>nlp_label&#45;&gt;nlp_doc_qa</title>
<path fill="none" stroke="#e11d48" d="M788.12,-134C902.32,-134 1215,-134 1215,-134 1215,-134 1215,-58.86 1215,-58.86"/>
<polygon fill="#e11d48" stroke="#e11d48" points="1216.75,-58.86 1215,-53.86 1213.25,-58.86 1216.75,-58.86"/>
</g>
<!-- vis_img_cls -->
<g id="node18" class="node">
<title>vis_img_cls</title>
<path fill="#e0f2fe" stroke="black" d="M1421.53,-52C1421.53,-52 1330.47,-52 1330.47,-52 1324.47,-52 1318.47,-46 1318.47,-40 1318.47,-40 1318.47,-28 1318.47,-28 1318.47,-22 1324.47,-16 1330.47,-16 1330.47,-16 1421.53,-16 1421.53,-16 1427.53,-16 1433.53,-22 1433.53,-28 1433.53,-28 1433.53,-40 1433.53,-40 1433.53,-46 1427.53,-52 1421.53,-52"/>
<text xml:space="preserve" text-anchor="middle" x="1376" y="-30.5" font-family="Helvetica,sans-Serif" font-size="10.00" fill="#075985">image&#45;classification</text>
</g>
<!-- vision_label&#45;&gt;vis_img_cls -->
<g id="edge15" class="edge">
<title>vision_label&#45;&gt;vis_img_cls</title>
<path fill="none" stroke="#0284c7" d="M1807.1,-138C1690.42,-138 1376,-138 1376,-138 1376,-138 1376,-58.63 1376,-58.63"/>
<polygon fill="#0284c7" stroke="#0284c7" points="1377.75,-58.63 1376,-53.63 1374.25,-58.63 1377.75,-58.63"/>
</g>
<!-- vis_img_seg -->
<g id="node19" class="node">
<title>vis_img_seg</title>
<path fill="#e0f2fe" stroke="black" d="M1560.28,-52C1560.28,-52 1467.72,-52 1467.72,-52 1461.72,-52 1455.72,-46 1455.72,-40 1455.72,-40 1455.72,-28 1455.72,-28 1455.72,-22 1461.72,-16 1467.72,-16 1467.72,-16 1560.28,-16 1560.28,-16 1566.28,-16 1572.28,-22 1572.28,-28 1572.28,-28 1572.28,-40 1572.28,-40 1572.28,-46 1566.28,-52 1560.28,-52"/>
<text xml:space="preserve" text-anchor="middle" x="1514" y="-30.5" font-family="Helvetica,sans-Serif" font-size="10.00" fill="#075985">image&#45;segmentation</text>
</g>
<!-- vision_label&#45;&gt;vis_img_seg -->
<g id="edge16" class="edge">
<title>vision_label&#45;&gt;vis_img_seg</title>
<path fill="none" stroke="#0284c7" d="M1807.1,-129C1716.52,-129 1514,-129 1514,-129 1514,-129 1514,-58.83 1514,-58.83"/>
<polygon fill="#0284c7" stroke="#0284c7" points="1515.75,-58.83 1514,-53.83 1512.25,-58.83 1515.75,-58.83"/>
</g>
<!-- vis_obj_det -->
<g id="node20" class="node">
<title>vis_obj_det</title>
<path fill="#e0f2fe" stroke="black" d="M1679.9,-52C1679.9,-52 1606.1,-52 1606.1,-52 1600.1,-52 1594.1,-46 1594.1,-40 1594.1,-40 1594.1,-28 1594.1,-28 1594.1,-22 1600.1,-16 1606.1,-16 1606.1,-16 1679.9,-16 1679.9,-16 1685.9,-16 1691.9,-22 1691.9,-28 1691.9,-28 1691.9,-40 1691.9,-40 1691.9,-46 1685.9,-52 1679.9,-52"/>
<text xml:space="preserve" text-anchor="middle" x="1643" y="-30.5" font-family="Helvetica,sans-Serif" font-size="10.00" fill="#075985">object&#45;detection</text>
</g>
<!-- vision_label&#45;&gt;vis_obj_det -->
<g id="edge17" class="edge">
<title>vision_label&#45;&gt;vis_obj_det</title>
<path fill="none" stroke="#0284c7" d="M1807.11,-120C1746.48,-120 1643,-120 1643,-120 1643,-120 1643,-58.75 1643,-58.75"/>
<polygon fill="#0284c7" stroke="#0284c7" points="1644.75,-58.75 1643,-53.75 1641.25,-58.75 1644.75,-58.75"/>
</g>
<!-- vis_feat_ext -->
<g id="node21" class="node">
<title>vis_feat_ext</title>
<path fill="#e0f2fe" stroke="black" d="M1835.9,-52C1835.9,-52 1726.1,-52 1726.1,-52 1720.1,-52 1714.1,-46 1714.1,-40 1714.1,-40 1714.1,-28 1714.1,-28 1714.1,-22 1720.1,-16 1726.1,-16 1726.1,-16 1835.9,-16 1835.9,-16 1841.9,-16 1847.9,-22 1847.9,-28 1847.9,-28 1847.9,-40 1847.9,-40 1847.9,-46 1841.9,-52 1835.9,-52"/>
<text xml:space="preserve" text-anchor="middle" x="1781" y="-30.5" font-family="Helvetica,sans-Serif" font-size="10.00" fill="#075985">image&#45;feature&#45;extraction</text>
</g>
<!-- vision_label&#45;&gt;vis_feat_ext -->
<g id="edge18" class="edge">
<title>vision_label&#45;&gt;vis_feat_ext</title>
<path fill="none" stroke="#0284c7" d="M1827.69,-110.68C1827.69,-110.68 1827.69,-58.77 1827.69,-58.77"/>
<polygon fill="#0284c7" stroke="#0284c7" points="1829.44,-58.77 1827.69,-53.77 1825.94,-58.77 1829.44,-58.77"/>
</g>
<!-- vis_mask_gen -->
<g id="node22" class="node">
<title>vis_mask_gen</title>
<path fill="#e0f2fe" stroke="black" d="M1958.4,-52C1958.4,-52 1881.6,-52 1881.6,-52 1875.6,-52 1869.6,-46 1869.6,-40 1869.6,-40 1869.6,-28 1869.6,-28 1869.6,-22 1875.6,-16 1881.6,-16 1881.6,-16 1958.4,-16 1958.4,-16 1964.4,-16 1970.4,-22 1970.4,-28 1970.4,-28 1970.4,-40 1970.4,-40 1970.4,-46 1964.4,-52 1958.4,-52"/>
<text xml:space="preserve" text-anchor="middle" x="1920" y="-30.5" font-family="Helvetica,sans-Serif" font-size="10.00" fill="#075985">mask&#45;generation</text>
</g>
<!-- vision_label&#45;&gt;vis_mask_gen -->
<g id="edge19" class="edge">
<title>vision_label&#45;&gt;vis_mask_gen</title>
<path fill="none" stroke="#0284c7" d="M1881.06,-110.68C1881.06,-110.68 1881.06,-58.77 1881.06,-58.77"/>
<polygon fill="#0284c7" stroke="#0284c7" points="1882.81,-58.77 1881.06,-53.77 1879.31,-58.77 1882.81,-58.77"/>
</g>
<!-- vis_depth -->
<g id="node23" class="node">
<title>vis_depth</title>
<path fill="#e0f2fe" stroke="black" d="M2081.4,-52C2081.4,-52 2004.6,-52 2004.6,-52 1998.6,-52 1992.6,-46 1992.6,-40 1992.6,-40 1992.6,-28 1992.6,-28 1992.6,-22 1998.6,-16 2004.6,-16 2004.6,-16 2081.4,-16 2081.4,-16 2087.4,-16 2093.4,-22 2093.4,-28 2093.4,-28 2093.4,-40 2093.4,-40 2093.4,-46 2087.4,-52 2081.4,-52"/>
<text xml:space="preserve" text-anchor="middle" x="2043" y="-30.5" font-family="Helvetica,sans-Serif" font-size="10.00" fill="#075985">depth&#45;estimation</text>
</g>
<!-- vision_label&#45;&gt;vis_depth -->
<g id="edge20" class="edge">
<title>vision_label&#45;&gt;vis_depth</title>
<path fill="none" stroke="#0284c7" d="M1892.83,-123C1949.69,-123 2043,-123 2043,-123 2043,-123 2043,-58.95 2043,-58.95"/>
<polygon fill="#0284c7" stroke="#0284c7" points="2044.75,-58.95 2043,-53.95 2041.25,-58.95 2044.75,-58.95"/>
</g>
<!-- vis_kp_match -->
<g id="node24" class="node">
<title>vis_kp_match</title>
<path fill="#e0f2fe" stroke="black" d="M2212.15,-52C2212.15,-52 2127.85,-52 2127.85,-52 2121.85,-52 2115.85,-46 2115.85,-40 2115.85,-40 2115.85,-28 2115.85,-28 2115.85,-22 2121.85,-16 2127.85,-16 2127.85,-16 2212.15,-16 2212.15,-16 2218.15,-16 2224.15,-22 2224.15,-28 2224.15,-28 2224.15,-40 2224.15,-40 2224.15,-46 2218.15,-52 2212.15,-52"/>
<text xml:space="preserve" text-anchor="middle" x="2170" y="-30.5" font-family="Helvetica,sans-Serif" font-size="10.00" fill="#075985">keypoint&#45;matching</text>
</g>
<!-- vision_label&#45;&gt;vis_kp_match -->
<g id="edge21" class="edge">
<title>vision_label&#45;&gt;vis_kp_match</title>
<path fill="none" stroke="#0284c7" d="M1892.82,-129C1980.02,-129 2170,-129 2170,-129 2170,-129 2170,-58.83 2170,-58.83"/>
<polygon fill="#0284c7" stroke="#0284c7" points="2171.75,-58.83 2170,-53.83 2168.25,-58.83 2171.75,-58.83"/>
</g>
<!-- vis_zero_cls -->
<g id="node25" class="node">
<title>vis_zero_cls</title>
<path fill="#e0f2fe" stroke="black" d="M2392.28,-52C2392.28,-52 2257.72,-52 2257.72,-52 2251.72,-52 2245.72,-46 2245.72,-40 2245.72,-40 2245.72,-28 2245.72,-28 2245.72,-22 2251.72,-16 2257.72,-16 2257.72,-16 2392.28,-16 2392.28,-16 2398.28,-16 2404.28,-22 2404.28,-28 2404.28,-28 2404.28,-40 2404.28,-40 2404.28,-46 2398.28,-52 2392.28,-52"/>
<text xml:space="preserve" text-anchor="middle" x="2325" y="-30.5" font-family="Helvetica,sans-Serif" font-size="10.00" fill="#075985">zero&#45;shot&#45;image&#45;classification</text>
</g>
<!-- vision_label&#45;&gt;vis_zero_cls -->
<g id="edge22" class="edge">
<title>vision_label&#45;&gt;vis_zero_cls</title>
<path fill="none" stroke="#0284c7" d="M1892.99,-135C2009.92,-135 2325,-135 2325,-135 2325,-135 2325,-58.57 2325,-58.57"/>
<polygon fill="#0284c7" stroke="#0284c7" points="2326.75,-58.57 2325,-53.57 2323.25,-58.57 2326.75,-58.57"/>
</g>
<!-- vis_zero_det -->
<g id="node26" class="node">
<title>vis_zero_det</title>
<path fill="#e0f2fe" stroke="black" d="M2555.65,-52C2555.65,-52 2438.35,-52 2438.35,-52 2432.35,-52 2426.35,-46 2426.35,-40 2426.35,-40 2426.35,-28 2426.35,-28 2426.35,-22 2432.35,-16 2438.35,-16 2438.35,-16 2555.65,-16 2555.65,-16 2561.65,-16 2567.65,-22 2567.65,-28 2567.65,-28 2567.65,-40 2567.65,-40 2567.65,-46 2561.65,-52 2555.65,-52"/>
<text xml:space="preserve" text-anchor="middle" x="2497" y="-30.5" font-family="Helvetica,sans-Serif" font-size="10.00" fill="#075985">zero&#45;shot&#45;object&#45;detection</text>
</g>
<!-- vision_label&#45;&gt;vis_zero_det -->
<g id="edge23" class="edge">
<title>vision_label&#45;&gt;vis_zero_det</title>
<path fill="none" stroke="#0284c7" d="M1892.95,-141C2037.46,-141 2497,-141 2497,-141 2497,-141 2497,-58.66 2497,-58.66"/>
<polygon fill="#0284c7" stroke="#0284c7" points="2498.75,-58.66 2497,-53.66 2495.25,-58.66 2498.75,-58.66"/>
</g>
<!-- aud_asr -->
<g id="node28" class="node">
<title>aud_asr</title>
<path fill="#fff7ed" stroke="black" d="M2736.15,-52C2736.15,-52 2603.85,-52 2603.85,-52 2597.85,-52 2591.85,-46 2591.85,-40 2591.85,-40 2591.85,-28 2591.85,-28 2591.85,-22 2597.85,-16 2603.85,-16 2603.85,-16 2736.15,-16 2736.15,-16 2742.15,-16 2748.15,-22 2748.15,-28 2748.15,-28 2748.15,-40 2748.15,-40 2748.15,-46 2742.15,-52 2736.15,-52"/>
<text xml:space="preserve" text-anchor="middle" x="2670" y="-30.5" font-family="Helvetica,sans-Serif" font-size="10.00" fill="#9a3412">automatic&#45;speech&#45;recognition</text>
</g>
<!-- audio_label&#45;&gt;aud_asr -->
<g id="edge24" class="edge">
<title>audio_label&#45;&gt;aud_asr</title>
<path fill="none" stroke="#ea580c" d="M2783.78,-117C2737.58,-117 2670,-117 2670,-117 2670,-117 2670,-58.93 2670,-58.93"/>
<polygon fill="#ea580c" stroke="#ea580c" points="2671.75,-58.93 2670,-53.93 2668.25,-58.93 2671.75,-58.93"/>
</g>
<!-- aud_cls -->
<g id="node29" class="node">
<title>aud_cls</title>
<path fill="#fff7ed" stroke="black" d="M2870.03,-52C2870.03,-52 2781.97,-52 2781.97,-52 2775.97,-52 2769.97,-46 2769.97,-40 2769.97,-40 2769.97,-28 2769.97,-28 2769.97,-22 2775.97,-16 2781.97,-16 2781.97,-16 2870.03,-16 2870.03,-16 2876.03,-16 2882.03,-22 2882.03,-28 2882.03,-28 2882.03,-40 2882.03,-40 2882.03,-46 2876.03,-52 2870.03,-52"/>
<text xml:space="preserve" text-anchor="middle" x="2826" y="-30.5" font-family="Helvetica,sans-Serif" font-size="10.00" fill="#9a3412">audio&#45;classification</text>
</g>
<!-- audio_label&#45;&gt;aud_cls -->
<g id="edge25" class="edge">
<title>audio_label&#45;&gt;aud_cls</title>
<path fill="none" stroke="#ea580c" d="M2826,-110.68C2826,-110.68 2826,-58.77 2826,-58.77"/>
<polygon fill="#ea580c" stroke="#ea580c" points="2827.75,-58.77 2826,-53.77 2824.25,-58.77 2827.75,-58.77"/>
</g>
<!-- aud_tta -->
<g id="node30" class="node">
<title>aud_tta</title>
<path fill="#fff7ed" stroke="black" d="M2974.4,-52C2974.4,-52 2915.6,-52 2915.6,-52 2909.6,-52 2903.6,-46 2903.6,-40 2903.6,-40 2903.6,-28 2903.6,-28 2903.6,-22 2909.6,-16 2915.6,-16 2915.6,-16 2974.4,-16 2974.4,-16 2980.4,-16 2986.4,-22 2986.4,-28 2986.4,-28 2986.4,-40 2986.4,-40 2986.4,-46 2980.4,-52 2974.4,-52"/>
<text xml:space="preserve" text-anchor="middle" x="2945" y="-30.5" font-family="Helvetica,sans-Serif" font-size="10.00" fill="#9a3412">text&#45;to&#45;audio</text>
</g>
<!-- audio_label&#45;&gt;aud_tta -->
<g id="edge26" class="edge">
<title>audio_label&#45;&gt;aud_tta</title>
<path fill="none" stroke="#ea580c" d="M2867.95,-120C2902.22,-120 2945,-120 2945,-120 2945,-120 2945,-58.75 2945,-58.75"/>
<polygon fill="#ea580c" stroke="#ea580c" points="2946.75,-58.75 2945,-53.75 2943.25,-58.75 2946.75,-58.75"/>
</g>
<!-- aud_zero_cls -->
<g id="node31" class="node">
<title>aud_zero_cls</title>
<path fill="#fff7ed" stroke="black" d="M3151.78,-52C3151.78,-52 3020.22,-52 3020.22,-52 3014.22,-52 3008.22,-46 3008.22,-40 3008.22,-40 3008.22,-28 3008.22,-28 3008.22,-22 3014.22,-16 3020.22,-16 3020.22,-16 3151.78,-16 3151.78,-16 3157.78,-16 3163.78,-22 3163.78,-28 3163.78,-28 3163.78,-40 3163.78,-40 3163.78,-46 3157.78,-52 3151.78,-52"/>
<text xml:space="preserve" text-anchor="middle" x="3086" y="-30.5" font-family="Helvetica,sans-Serif" font-size="10.00" fill="#9a3412">zero&#45;shot&#45;audio&#45;classification</text>
</g>
<!-- audio_label&#45;&gt;aud_zero_cls -->
<g id="edge27" class="edge">
<title>audio_label&#45;&gt;aud_zero_cls</title>
<path fill="none" stroke="#ea580c" d="M2868.06,-138C2941.65,-138 3086,-138 3086,-138 3086,-138 3086,-58.63 3086,-58.63"/>
<polygon fill="#ea580c" stroke="#ea580c" points="3087.75,-58.63 3086,-53.63 3084.25,-58.63 3087.75,-58.63"/>
</g>
<!-- mm_img_text -->
<g id="node33" class="node">
<title>mm_img_text</title>
<path fill="#ccfbf1" stroke="black" d="M3281.65,-52C3281.65,-52 3200.35,-52 3200.35,-52 3194.35,-52 3188.35,-46 3188.35,-40 3188.35,-40 3188.35,-28 3188.35,-28 3188.35,-22 3194.35,-16 3200.35,-16 3200.35,-16 3281.65,-16 3281.65,-16 3287.65,-16 3293.65,-22 3293.65,-28 3293.65,-28 3293.65,-40 3293.65,-40 3293.65,-46 3287.65,-52 3281.65,-52"/>
<text xml:space="preserve" text-anchor="middle" x="3241" y="-30.5" font-family="Helvetica,sans-Serif" font-size="10.00" fill="#115e59">image&#45;text&#45;to&#45;text</text>
</g>
<!-- mm_label&#45;&gt;mm_img_text -->
<g id="edge28" class="edge">
<title>mm_label&#45;&gt;mm_img_text</title>
<path fill="none" stroke="#0d9488" d="M3329.11,-129C3288.49,-129 3241,-129 3241,-129 3241,-129 3241,-58.83 3241,-58.83"/>
<polygon fill="#0d9488" stroke="#0d9488" points="3242.75,-58.83 3241,-53.83 3239.25,-58.83 3242.75,-58.83"/>
</g>
<!-- mm_vqa -->
<g id="node34" class="node">
<title>mm_vqa</title>
<path fill="#ccfbf1" stroke="black" d="M3444.65,-52C3444.65,-52 3327.35,-52 3327.35,-52 3321.35,-52 3315.35,-46 3315.35,-40 3315.35,-40 3315.35,-28 3315.35,-28 3315.35,-22 3321.35,-16 3327.35,-16 3327.35,-16 3444.65,-16 3444.65,-16 3450.65,-16 3456.65,-22 3456.65,-28 3456.65,-28 3456.65,-40 3456.65,-40 3456.65,-46 3450.65,-52 3444.65,-52"/>
<text xml:space="preserve" text-anchor="middle" x="3386" y="-30.5" font-family="Helvetica,sans-Serif" font-size="10.00" fill="#115e59">visual&#45;question&#45;answering</text>
</g>
<!-- mm_label&#45;&gt;mm_vqa -->
<g id="edge29" class="edge">
<title>mm_label&#45;&gt;mm_vqa</title>
<path fill="none" stroke="#0d9488" d="M3386,-110.68C3386,-110.68 3386,-58.77 3386,-58.77"/>
<polygon fill="#0d9488" stroke="#0d9488" points="3387.75,-58.77 3386,-53.77 3384.25,-58.77 3387.75,-58.77"/>
</g>
<!-- mm_any -->
<g id="node35" class="node">
<title>mm_any</title>
<path fill="#ccfbf1" stroke="black" d="M3541.28,-52C3541.28,-52 3490.72,-52 3490.72,-52 3484.72,-52 3478.72,-46 3478.72,-40 3478.72,-40 3478.72,-28 3478.72,-28 3478.72,-22 3484.72,-16 3490.72,-16 3490.72,-16 3541.28,-16 3541.28,-16 3547.28,-16 3553.28,-22 3553.28,-28 3553.28,-28 3553.28,-40 3553.28,-40 3553.28,-46 3547.28,-52 3541.28,-52"/>
<text xml:space="preserve" text-anchor="middle" x="3516" y="-30.5" font-family="Helvetica,sans-Serif" font-size="10.00" fill="#115e59">any&#45;to&#45;any</text>
</g>
<!-- mm_label&#45;&gt;mm_any -->
<g id="edge30" class="edge">
<title>mm_label&#45;&gt;mm_any</title>
<path fill="none" stroke="#0d9488" d="M3442.64,-123C3477.67,-123 3516,-123 3516,-123 3516,-123 3516,-58.95 3516,-58.95"/>
<polygon fill="#0d9488" stroke="#0d9488" points="3517.75,-58.95 3516,-53.95 3514.25,-58.95 3517.75,-58.95"/>
</g>
<!-- mm_vid_cls -->
<g id="node36" class="node">
<title>mm_vid_cls</title>
<path fill="#ccfbf1" stroke="black" d="M3675.03,-52C3675.03,-52 3586.97,-52 3586.97,-52 3580.97,-52 3574.97,-46 3574.97,-40 3574.97,-40 3574.97,-28 3574.97,-28 3574.97,-22 3580.97,-16 3586.97,-16 3586.97,-16 3675.03,-16 3675.03,-16 3681.03,-16 3687.03,-22 3687.03,-28 3687.03,-28 3687.03,-40 3687.03,-40 3687.03,-46 3681.03,-52 3675.03,-52"/>
<text xml:space="preserve" text-anchor="middle" x="3631" y="-30.5" font-family="Helvetica,sans-Serif" font-size="10.00" fill="#115e59">video&#45;classification</text>
</g>
<!-- mm_label&#45;&gt;mm_vid_cls -->
<g id="edge31" class="edge">
<title>mm_label&#45;&gt;mm_vid_cls</title>
<path fill="none" stroke="#0d9488" d="M3442.82,-135C3515.2,-135 3631,-135 3631,-135 3631,-135 3631,-58.57 3631,-58.57"/>
<polygon fill="#0d9488" stroke="#0d9488" points="3632.75,-58.57 3631,-53.57 3629.25,-58.57 3632.75,-58.57"/>
</g>
</g>
</svg>
