<?xml version="1.0" encoding="UTF-8" standalone="no"?>
<!DOCTYPE svg PUBLIC "-//W3C//DTD SVG 1.1//EN"
 "http://www.w3.org/Graphics/SVG/1.1/DTD/svg11.dtd">
<!-- Generated by graphviz version 14.1.4 (20260321.0153)
 -->
<!-- Title: cpp_roadmap Pages: 1 -->
<svg width="1987pt" height="633pt"
 viewBox="0.00 0.00 1987.00 633.00" xmlns="http://www.w3.org/2000/svg" xmlns:xlink="http://www.w3.org/1999/xlink">
<style>
<!-- White text halo for edge label readability -->
text { paint-order: stroke; stroke: #ffffff; stroke-width: 3px; stroke-linejoin: round; fill: #1a1a2e; }
</style>
<g id="graph0" class="graph" transform="scale(1 1) rotate(0) translate(4 628.5)">
<title>cpp_roadmap</title>
<polygon fill="white" stroke="none" points="-4,4 -4,-628.5 1982.75,-628.5 1982.75,4 -4,4"/>
<text xml:space="preserve" text-anchor="middle" x="989.38" y="-7.2" font-family="Times New Roman,serif" font-size="14.00">C++ Learning Roadmap &#45; 5 Stages</text>
<!-- title -->
<g id="node1" class="node">
<title>title</title>
<path fill="#1565c0" stroke="black" d="M436.5,-624.5C436.5,-624.5 291.5,-624.5 291.5,-624.5 285.5,-624.5 279.5,-618.5 279.5,-612.5 279.5,-612.5 279.5,-600.5 279.5,-600.5 279.5,-594.5 285.5,-588.5 291.5,-588.5 291.5,-588.5 436.5,-588.5 436.5,-588.5 442.5,-588.5 448.5,-594.5 448.5,-600.5 448.5,-600.5 448.5,-612.5 448.5,-612.5 448.5,-618.5 442.5,-624.5 436.5,-624.5"/>
<text xml:space="preserve" text-anchor="middle" x="364" y="-601.08" font-family="Arial Bold" font-size="14.00" fill="#ffffff">C++ Learning Roadmap</text>
</g>
<!-- s1 -->
<g id="node2" class="node">
<title>s1</title>
<path fill="#2196f3" stroke="black" d="M420,-530.5C420,-530.5 308,-530.5 308,-530.5 302,-530.5 296,-524.5 296,-518.5 296,-518.5 296,-506.5 296,-506.5 296,-500.5 302,-494.5 308,-494.5 308,-494.5 420,-494.5 420,-494.5 426,-494.5 432,-500.5 432,-506.5 432,-506.5 432,-518.5 432,-518.5 432,-524.5 426,-530.5 420,-530.5"/>
<text xml:space="preserve" text-anchor="middle" x="364" y="-508.8" font-family="Arial Bold" font-size="11.00" fill="#ffffff">Stage 1: Fundamentals</text>
</g>
<!-- title&#45;&gt;s1 -->
<g id="edge1" class="edge">
<title>title&#45;&gt;s1</title>
<path fill="none" stroke="#4caf50" stroke-width="2" d="M364,-588.38C364,-588.38 364,-543.92 364,-543.92"/>
<polygon fill="#4caf50" stroke="#4caf50" stroke-width="2" points="367.5,-543.92 364,-533.92 360.5,-543.92 367.5,-543.92"/>
</g>
<!-- s1_0 -->
<g id="node3" class="node">
<title>s1_0</title>
<path fill="#bbdefb" stroke="black" d="M106,-436.5C106,-436.5 12,-436.5 12,-436.5 6,-436.5 0,-430.5 0,-424.5 0,-424.5 0,-412.5 0,-412.5 0,-406.5 6,-400.5 12,-400.5 12,-400.5 106,-400.5 106,-400.5 112,-400.5 118,-406.5 118,-412.5 118,-412.5 118,-424.5 118,-424.5 118,-430.5 112,-436.5 106,-436.5"/>
<text xml:space="preserve" text-anchor="middle" x="59" y="-415" font-family="Arial" font-size="10.00" fill="#1a1a2e">Variables, types, scope</text>
</g>
<!-- s1&#45;&gt;s1_0 -->
<g id="edge2" class="edge">
<title>s1&#45;&gt;s1_0</title>
<path fill="none" stroke="#4caf50" stroke-width="1.5" d="M295.55,-512.5C205.63,-512.5 59,-512.5 59,-512.5 59,-512.5 59,-448.89 59,-448.89"/>
<polygon fill="#4caf50" stroke="#4caf50" stroke-width="1.5" points="62.5,-448.89 59,-438.89 55.5,-448.89 62.5,-448.89"/>
</g>
<!-- s1_1 -->
<g id="node4" class="node">
<title>s1_1</title>
<path fill="#bbdefb" stroke="black" d="M257.5,-436.5C257.5,-436.5 166.5,-436.5 166.5,-436.5 160.5,-436.5 154.5,-430.5 154.5,-424.5 154.5,-424.5 154.5,-412.5 154.5,-412.5 154.5,-406.5 160.5,-400.5 166.5,-400.5 166.5,-400.5 257.5,-400.5 257.5,-400.5 263.5,-400.5 269.5,-406.5 269.5,-412.5 269.5,-412.5 269.5,-424.5 269.5,-424.5 269.5,-430.5 263.5,-436.5 257.5,-436.5"/>
<text xml:space="preserve" text-anchor="middle" x="212" y="-415" font-family="Arial" font-size="10.00" fill="#1a1a2e">Functions, control flow</text>
</g>
<!-- s1&#45;&gt;s1_1 -->
<g id="edge3" class="edge">
<title>s1&#45;&gt;s1_1</title>
<path fill="none" stroke="#4caf50" stroke-width="1.5" d="M300.69,-494.38C300.69,-467.06 300.69,-418.5 300.69,-418.5 300.69,-418.5 281.94,-418.5 281.94,-418.5"/>
<polygon fill="#4caf50" stroke="#4caf50" stroke-width="1.5" points="281.94,-415 271.94,-418.5 281.94,-422 281.94,-415"/>
</g>
<!-- s1_2 -->
<g id="node5" class="node">
<title>s1_2</title>
<path fill="#bbdefb" stroke="black" d="M410.62,-436.5C410.62,-436.5 317.38,-436.5 317.38,-436.5 311.38,-436.5 305.38,-430.5 305.38,-424.5 305.38,-424.5 305.38,-412.5 305.38,-412.5 305.38,-406.5 311.38,-400.5 317.38,-400.5 317.38,-400.5 410.62,-400.5 410.62,-400.5 416.62,-400.5 422.62,-406.5 422.62,-412.5 422.62,-412.5 422.62,-424.5 422.62,-424.5 422.62,-430.5 416.62,-436.5 410.62,-436.5"/>
<text xml:space="preserve" text-anchor="middle" x="364" y="-415" font-family="Arial" font-size="10.00" fill="#1a1a2e">References vs pointers</text>
</g>
<!-- s1&#45;&gt;s1_2 -->
<g id="edge4" class="edge">
<title>s1&#45;&gt;s1_2</title>
<path fill="none" stroke="#4caf50" stroke-width="1.5" d="M364,-494.38C364,-494.38 364,-449.16 364,-449.16"/>
<polygon fill="#4caf50" stroke="#4caf50" stroke-width="1.5" points="367.5,-449.16 364,-439.16 360.5,-449.16 367.5,-449.16"/>
</g>
<!-- s1_3 -->
<g id="node6" class="node">
<title>s1_3</title>
<path fill="#bbdefb" stroke="black" d="M579.12,-436.5C579.12,-436.5 470.88,-436.5 470.88,-436.5 464.88,-436.5 458.88,-430.5 458.88,-424.5 458.88,-424.5 458.88,-412.5 458.88,-412.5 458.88,-406.5 464.88,-400.5 470.88,-400.5 470.88,-400.5 579.12,-400.5 579.12,-400.5 585.12,-400.5 591.12,-406.5 591.12,-412.5 591.12,-412.5 591.12,-424.5 591.12,-424.5 591.12,-430.5 585.12,-436.5 579.12,-436.5"/>
<text xml:space="preserve" text-anchor="middle" x="525" y="-415" font-family="Arial" font-size="10.00" fill="#1a1a2e">Arrays, strings (std::string)</text>
</g>
<!-- s1&#45;&gt;s1_3 -->
<g id="edge5" class="edge">
<title>s1&#45;&gt;s1_3</title>
<path fill="none" stroke="#4caf50" stroke-width="1.5" d="M427.31,-494.38C427.31,-467.06 427.31,-418.5 427.31,-418.5 427.31,-418.5 446.22,-418.5 446.22,-418.5"/>
<polygon fill="#4caf50" stroke="#4caf50" stroke-width="1.5" points="446.22,-422 456.22,-418.5 446.22,-415 446.22,-422"/>
</g>
<!-- s2 -->
<g id="node7" class="node">
<title>s2</title>
<path fill="#2196f3" stroke="black" d="M727,-436.5C727,-436.5 639,-436.5 639,-436.5 633,-436.5 627,-430.5 627,-424.5 627,-424.5 627,-412.5 627,-412.5 627,-406.5 633,-400.5 639,-400.5 639,-400.5 727,-400.5 727,-400.5 733,-400.5 739,-406.5 739,-412.5 739,-412.5 739,-424.5 739,-424.5 739,-430.5 733,-436.5 727,-436.5"/>
<text xml:space="preserve" text-anchor="middle" x="683" y="-414.8" font-family="Arial Bold" font-size="11.00" fill="#ffffff">Stage 2: Core C++</text>
</g>
<!-- s1&#45;&gt;s2 -->
<g id="edge6" class="edge">
<title>s1&#45;&gt;s2</title>
<path fill="none" stroke="#00bcd4" stroke-width="2" d="M432.43,-512.5C526.17,-512.5 683,-512.5 683,-512.5 683,-512.5 683,-449.65 683,-449.65"/>
<polygon fill="#00bcd4" stroke="#00bcd4" stroke-width="2" points="686.5,-449.65 683,-439.65 679.5,-449.65 686.5,-449.65"/>
</g>
<!-- s2_0 -->
<g id="node8" class="node">
<title>s2_0</title>
<path fill="#bbdefb" stroke="black" d="M392,-342.5C392,-342.5 262,-342.5 262,-342.5 256,-342.5 250,-336.5 250,-330.5 250,-330.5 250,-318.5 250,-318.5 250,-312.5 256,-306.5 262,-306.5 262,-306.5 392,-306.5 392,-306.5 398,-306.5 404,-312.5 404,-318.5 404,-318.5 404,-330.5 404,-330.5 404,-336.5 398,-342.5 392,-342.5"/>
<text xml:space="preserve" text-anchor="middle" x="327" y="-321" font-family="Arial" font-size="10.00" fill="#1a1a2e">Classes, structs, encapsulation</text>
</g>
<!-- s2&#45;&gt;s2_0 -->
<g id="edge7" class="edge">
<title>s2&#45;&gt;s2_0</title>
<path fill="none" stroke="#00bcd4" stroke-width="1.5" d="M665.33,-400.19C665.33,-387 665.33,-371.5 665.33,-371.5 665.33,-371.5 354.69,-371.5 354.69,-371.5 354.69,-371.5 354.69,-355.08 354.69,-355.08"/>
<polygon fill="#00bcd4" stroke="#00bcd4" stroke-width="1.5" points="358.19,-355.08 354.69,-345.08 351.19,-355.08 358.19,-355.08"/>
</g>
<!-- s2_1 -->
<g id="node9" class="node">
<title>s2_1</title>
<path fill="#bbdefb" stroke="black" d="M581.62,-342.5C581.62,-342.5 452.38,-342.5 452.38,-342.5 446.38,-342.5 440.38,-336.5 440.38,-330.5 440.38,-330.5 440.38,-318.5 440.38,-318.5 440.38,-312.5 446.38,-306.5 452.38,-306.5 452.38,-306.5 581.62,-306.5 581.62,-306.5 587.62,-306.5 593.62,-312.5 593.62,-318.5 593.62,-318.5 593.62,-330.5 593.62,-330.5 593.62,-336.5 587.62,-342.5 581.62,-342.5"/>
<text xml:space="preserve" text-anchor="middle" x="517" y="-321" font-family="Arial" font-size="10.00" fill="#1a1a2e">Constructors, destructors, RAII</text>
</g>
<!-- s2&#45;&gt;s2_1 -->
<g id="edge8" class="edge">
<title>s2&#45;&gt;s2_1</title>
<path fill="none" stroke="#00bcd4" stroke-width="1.5" d="M626.81,-418.5C617.23,-418.5 610.31,-418.5 610.31,-418.5 610.31,-418.5 610.31,-324.5 610.31,-324.5 610.31,-324.5 606.33,-324.5 606.33,-324.5"/>
<polygon fill="#00bcd4" stroke="#00bcd4" stroke-width="1.5" points="606.33,-321 596.33,-324.5 606.33,-328 606.33,-321"/>
</g>
<!-- s2_2 -->
<g id="node10" class="node">
<title>s2_2</title>
<path fill="#bbdefb" stroke="black" d="M724,-342.5C724,-342.5 642,-342.5 642,-342.5 636,-342.5 630,-336.5 630,-330.5 630,-330.5 630,-318.5 630,-318.5 630,-312.5 636,-306.5 642,-306.5 642,-306.5 724,-306.5 724,-306.5 730,-306.5 736,-312.5 736,-318.5 736,-318.5 736,-330.5 736,-330.5 736,-336.5 730,-342.5 724,-342.5"/>
<text xml:space="preserve" text-anchor="middle" x="683" y="-321" font-family="Arial" font-size="10.00" fill="#1a1a2e">Operator overloading</text>
</g>
<!-- s2&#45;&gt;s2_2 -->
<g id="edge9" class="edge">
<title>s2&#45;&gt;s2_2</title>
<path fill="none" stroke="#00bcd4" stroke-width="1.5" d="M700.67,-400.38C700.67,-400.38 700.67,-355.16 700.67,-355.16"/>
<polygon fill="#00bcd4" stroke="#00bcd4" stroke-width="1.5" points="704.17,-355.16 700.67,-345.16 697.17,-355.16 704.17,-355.16"/>
</g>
<!-- s2_3 -->
<g id="node11" class="node">
<title>s2_3</title>
<path fill="#bbdefb" stroke="black" d="M849.75,-342.5C849.75,-342.5 784.25,-342.5 784.25,-342.5 778.25,-342.5 772.25,-336.5 772.25,-330.5 772.25,-330.5 772.25,-318.5 772.25,-318.5 772.25,-312.5 778.25,-306.5 784.25,-306.5 784.25,-306.5 849.75,-306.5 849.75,-306.5 855.75,-306.5 861.75,-312.5 861.75,-318.5 861.75,-318.5 861.75,-330.5 861.75,-330.5 861.75,-336.5 855.75,-342.5 849.75,-342.5"/>
<text xml:space="preserve" text-anchor="middle" x="817" y="-321" font-family="Arial" font-size="10.00" fill="#1a1a2e">Exception safety</text>
</g>
<!-- s2&#45;&gt;s2_3 -->
<g id="edge10" class="edge">
<title>s2&#45;&gt;s2_3</title>
<path fill="none" stroke="#00bcd4" stroke-width="1.5" d="M739.44,-412.5C776.06,-412.5 817,-412.5 817,-412.5 817,-412.5 817,-355 817,-355"/>
<polygon fill="#00bcd4" stroke="#00bcd4" stroke-width="1.5" points="820.5,-355 817,-345 813.5,-355 820.5,-355"/>
</g>
<!-- s3 -->
<g id="node12" class="node">
<title>s3</title>
<path fill="#2196f3" stroke="black" d="M1030.12,-342.5C1030.12,-342.5 909.88,-342.5 909.88,-342.5 903.88,-342.5 897.88,-336.5 897.88,-330.5 897.88,-330.5 897.88,-318.5 897.88,-318.5 897.88,-312.5 903.88,-306.5 909.88,-306.5 909.88,-306.5 1030.12,-306.5 1030.12,-306.5 1036.12,-306.5 1042.12,-312.5 1042.12,-318.5 1042.12,-318.5 1042.12,-330.5 1042.12,-330.5 1042.12,-336.5 1036.12,-342.5 1030.12,-342.5"/>
<text xml:space="preserve" text-anchor="middle" x="970" y="-320.8" font-family="Arial Bold" font-size="11.00" fill="#ffffff">Stage 3: Memory + Move</text>
</g>
<!-- s2&#45;&gt;s3 -->
<g id="edge11" class="edge">
<title>s2&#45;&gt;s3</title>
<path fill="none" stroke="#ff9800" stroke-width="2" d="M739.36,-424.5C822.94,-424.5 970,-424.5 970,-424.5 970,-424.5 970,-355.87 970,-355.87"/>
<polygon fill="#ff9800" stroke="#ff9800" stroke-width="2" points="973.5,-355.87 970,-345.87 966.5,-355.87 973.5,-355.87"/>
</g>
<!-- s3_0 -->
<g id="node13" class="node">
<title>s3_0</title>
<path fill="#bbdefb" stroke="black" d="M661.75,-248.5C661.75,-248.5 566.25,-248.5 566.25,-248.5 560.25,-248.5 554.25,-242.5 554.25,-236.5 554.25,-236.5 554.25,-224.5 554.25,-224.5 554.25,-218.5 560.25,-212.5 566.25,-212.5 566.25,-212.5 661.75,-212.5 661.75,-212.5 667.75,-212.5 673.75,-218.5 673.75,-224.5 673.75,-224.5 673.75,-236.5 673.75,-236.5 673.75,-242.5 667.75,-248.5 661.75,-248.5"/>
<text xml:space="preserve" text-anchor="middle" x="614" y="-227" font-family="Arial" font-size="10.00" fill="#1a1a2e">Stack vs heap vs static</text>
</g>
<!-- s3&#45;&gt;s3_0 -->
<g id="edge12" class="edge">
<title>s3&#45;&gt;s3_0</title>
<path fill="none" stroke="#ff9800" stroke-width="1.5" d="M945.96,-306.19C945.96,-293 945.96,-277.5 945.96,-277.5 945.96,-277.5 651.88,-277.5 651.88,-277.5 651.88,-277.5 651.88,-261.08 651.88,-261.08"/>
<polygon fill="#ff9800" stroke="#ff9800" stroke-width="1.5" points="655.38,-261.08 651.88,-251.08 648.38,-261.08 655.38,-261.08"/>
</g>
<!-- s3_1 -->
<g id="node14" class="node">
<title>s3_1</title>
<path fill="#bbdefb" stroke="black" d="M840,-248.5C840,-248.5 722,-248.5 722,-248.5 716,-248.5 710,-242.5 710,-236.5 710,-236.5 710,-224.5 710,-224.5 710,-218.5 716,-212.5 722,-212.5 722,-212.5 840,-212.5 840,-212.5 846,-212.5 852,-218.5 852,-224.5 852,-224.5 852,-236.5 852,-236.5 852,-242.5 846,-248.5 840,-248.5"/>
<text xml:space="preserve" text-anchor="middle" x="781" y="-227" font-family="Arial" font-size="10.00" fill="#1a1a2e">new/delete vs smart pointers</text>
</g>
<!-- s3&#45;&gt;s3_1 -->
<g id="edge13" class="edge">
<title>s3&#45;&gt;s3_1</title>
<path fill="none" stroke="#ff9800" stroke-width="1.5" d="M897.81,-324.5C884.52,-324.5 874.75,-324.5 874.75,-324.5 874.75,-324.5 874.75,-230.5 874.75,-230.5 874.75,-230.5 864.33,-230.5 864.33,-230.5"/>
<polygon fill="#ff9800" stroke="#ff9800" stroke-width="1.5" points="864.33,-227 854.33,-230.5 864.33,-234 864.33,-227"/>
</g>
<!-- s3_2 -->
<g id="node15" class="node">
<title>s3_2</title>
<path fill="#bbdefb" stroke="black" d="M1040.25,-248.5C1040.25,-248.5 899.75,-248.5 899.75,-248.5 893.75,-248.5 887.75,-242.5 887.75,-236.5 887.75,-236.5 887.75,-224.5 887.75,-224.5 887.75,-218.5 893.75,-212.5 899.75,-212.5 899.75,-212.5 1040.25,-212.5 1040.25,-212.5 1046.25,-212.5 1052.25,-218.5 1052.25,-224.5 1052.25,-224.5 1052.25,-236.5 1052.25,-236.5 1052.25,-242.5 1046.25,-248.5 1040.25,-248.5"/>
<text xml:space="preserve" text-anchor="middle" x="970" y="-227" font-family="Arial" font-size="10.00" fill="#1a1a2e">unique_ptr / shared_ptr / weak_ptr</text>
</g>
<!-- s3&#45;&gt;s3_2 -->
<g id="edge14" class="edge">
<title>s3&#45;&gt;s3_2</title>
<path fill="none" stroke="#ff9800" stroke-width="1.5" d="M994.04,-306.38C994.04,-306.38 994.04,-261.16 994.04,-261.16"/>
<polygon fill="#ff9800" stroke="#ff9800" stroke-width="1.5" points="997.54,-261.16 994.04,-251.16 990.54,-261.16 997.54,-261.16"/>
</g>
<!-- s3_3 -->
<g id="node16" class="node">
<title>s3_3</title>
<path fill="#bbdefb" stroke="black" d="M1215.88,-248.5C1215.88,-248.5 1100.12,-248.5 1100.12,-248.5 1094.12,-248.5 1088.12,-242.5 1088.12,-236.5 1088.12,-236.5 1088.12,-224.5 1088.12,-224.5 1088.12,-218.5 1094.12,-212.5 1100.12,-212.5 1100.12,-212.5 1215.88,-212.5 1215.88,-212.5 1221.88,-212.5 1227.88,-218.5 1227.88,-224.5 1227.88,-224.5 1227.88,-236.5 1227.88,-236.5 1227.88,-242.5 1221.88,-248.5 1215.88,-248.5"/>
<text xml:space="preserve" text-anchor="middle" x="1158" y="-227" font-family="Arial" font-size="10.00" fill="#1a1a2e">Move semantics, rvalue refs</text>
</g>
<!-- s3&#45;&gt;s3_3 -->
<g id="edge15" class="edge">
<title>s3&#45;&gt;s3_3</title>
<path fill="none" stroke="#ff9800" stroke-width="1.5" d="M1042.42,-318.5C1095.38,-318.5 1158,-318.5 1158,-318.5 1158,-318.5 1158,-261 1158,-261"/>
<polygon fill="#ff9800" stroke="#ff9800" stroke-width="1.5" points="1161.5,-261 1158,-251 1154.5,-261 1161.5,-261"/>
</g>
<!-- s4 -->
<g id="node17" class="node">
<title>s4</title>
<path fill="#2196f3" stroke="black" d="M1400.38,-248.5C1400.38,-248.5 1275.62,-248.5 1275.62,-248.5 1269.62,-248.5 1263.62,-242.5 1263.62,-236.5 1263.62,-236.5 1263.62,-224.5 1263.62,-224.5 1263.62,-218.5 1269.62,-212.5 1275.62,-212.5 1275.62,-212.5 1400.38,-212.5 1400.38,-212.5 1406.38,-212.5 1412.38,-218.5 1412.38,-224.5 1412.38,-224.5 1412.38,-236.5 1412.38,-236.5 1412.38,-242.5 1406.38,-248.5 1400.38,-248.5"/>
<text xml:space="preserve" text-anchor="middle" x="1338" y="-226.8" font-family="Arial Bold" font-size="11.00" fill="#ffffff">Stage 4: Templates + STL</text>
</g>
<!-- s3&#45;&gt;s4 -->
<g id="edge16" class="edge">
<title>s3&#45;&gt;s4</title>
<path fill="none" stroke="#9c27b0" stroke-width="2" d="M1042.27,-330.5C1149.44,-330.5 1338,-330.5 1338,-330.5 1338,-330.5 1338,-261.87 1338,-261.87"/>
<polygon fill="#9c27b0" stroke="#9c27b0" stroke-width="2" points="1341.5,-261.87 1338,-251.87 1334.5,-261.87 1341.5,-261.87"/>
</g>
<!-- s4_0 -->
<g id="node18" class="node">
<title>s4_0</title>
<path fill="#bbdefb" stroke="black" d="M1079.25,-154.5C1079.25,-154.5 968.75,-154.5 968.75,-154.5 962.75,-154.5 956.75,-148.5 956.75,-142.5 956.75,-142.5 956.75,-130.5 956.75,-130.5 956.75,-124.5 962.75,-118.5 968.75,-118.5 968.75,-118.5 1079.25,-118.5 1079.25,-118.5 1085.25,-118.5 1091.25,-124.5 1091.25,-130.5 1091.25,-130.5 1091.25,-142.5 1091.25,-142.5 1091.25,-148.5 1085.25,-154.5 1079.25,-154.5"/>
<text xml:space="preserve" text-anchor="middle" x="1024" y="-133" font-family="Arial" font-size="10.00" fill="#1a1a2e">Function + class templates</text>
</g>
<!-- s4&#45;&gt;s4_0 -->
<g id="edge17" class="edge">
<title>s4&#45;&gt;s4_0</title>
<path fill="none" stroke="#9c27b0" stroke-width="1.5" d="M1313.21,-212.19C1313.21,-199 1313.21,-183.5 1313.21,-183.5 1313.21,-183.5 1070.19,-183.5 1070.19,-183.5 1070.19,-183.5 1070.19,-167.08 1070.19,-167.08"/>
<polygon fill="#9c27b0" stroke="#9c27b0" stroke-width="1.5" points="1073.69,-167.08 1070.19,-157.08 1066.69,-167.08 1073.69,-167.08"/>
</g>
<!-- s4_1 -->
<g id="node19" class="node">
<title>s4_1</title>
<path fill="#bbdefb" stroke="black" d="M1212.5,-154.5C1212.5,-154.5 1139.5,-154.5 1139.5,-154.5 1133.5,-154.5 1127.5,-148.5 1127.5,-142.5 1127.5,-142.5 1127.5,-130.5 1127.5,-130.5 1127.5,-124.5 1133.5,-118.5 1139.5,-118.5 1139.5,-118.5 1212.5,-118.5 1212.5,-118.5 1218.5,-118.5 1224.5,-124.5 1224.5,-130.5 1224.5,-130.5 1224.5,-142.5 1224.5,-142.5 1224.5,-148.5 1218.5,-154.5 1212.5,-154.5"/>
<text xml:space="preserve" text-anchor="middle" x="1176" y="-133" font-family="Arial" font-size="10.00" fill="#1a1a2e">Concepts (C++20)</text>
</g>
<!-- s4&#45;&gt;s4_1 -->
<g id="edge18" class="edge">
<title>s4&#45;&gt;s4_1</title>
<path fill="none" stroke="#9c27b0" stroke-width="1.5" d="M1263.53,-230.5C1252.13,-230.5 1244.06,-230.5 1244.06,-230.5 1244.06,-230.5 1244.06,-136.5 1244.06,-136.5 1244.06,-136.5 1237.01,-136.5 1237.01,-136.5"/>
<polygon fill="#9c27b0" stroke="#9c27b0" stroke-width="1.5" points="1237.01,-133 1227.01,-136.5 1237.01,-140 1237.01,-133"/>
</g>
<!-- s4_2 -->
<g id="node20" class="node">
<title>s4_2</title>
<path fill="#bbdefb" stroke="black" d="M1403.75,-154.5C1403.75,-154.5 1272.25,-154.5 1272.25,-154.5 1266.25,-154.5 1260.25,-148.5 1260.25,-142.5 1260.25,-142.5 1260.25,-130.5 1260.25,-130.5 1260.25,-124.5 1266.25,-118.5 1272.25,-118.5 1272.25,-118.5 1403.75,-118.5 1403.75,-118.5 1409.75,-118.5 1415.75,-124.5 1415.75,-130.5 1415.75,-130.5 1415.75,-142.5 1415.75,-142.5 1415.75,-148.5 1409.75,-154.5 1403.75,-154.5"/>
<text xml:space="preserve" text-anchor="middle" x="1338" y="-133" font-family="Arial" font-size="10.00" fill="#1a1a2e">Containers, iterators, algorithms</text>
</g>
<!-- s4&#45;&gt;s4_2 -->
<g id="edge19" class="edge">
<title>s4&#45;&gt;s4_2</title>
<path fill="none" stroke="#9c27b0" stroke-width="1.5" d="M1362.79,-212.38C1362.79,-212.38 1362.79,-167.16 1362.79,-167.16"/>
<polygon fill="#9c27b0" stroke="#9c27b0" stroke-width="1.5" points="1366.29,-167.16 1362.79,-157.16 1359.29,-167.16 1366.29,-167.16"/>
</g>
<!-- s4_3 -->
<g id="node21" class="node">
<title>s4_3</title>
<path fill="#bbdefb" stroke="black" d="M1552.38,-154.5C1552.38,-154.5 1463.62,-154.5 1463.62,-154.5 1457.62,-154.5 1451.62,-148.5 1451.62,-142.5 1451.62,-142.5 1451.62,-130.5 1451.62,-130.5 1451.62,-124.5 1457.62,-118.5 1463.62,-118.5 1463.62,-118.5 1552.38,-118.5 1552.38,-118.5 1558.38,-118.5 1564.38,-124.5 1564.38,-130.5 1564.38,-130.5 1564.38,-142.5 1564.38,-142.5 1564.38,-148.5 1558.38,-154.5 1552.38,-154.5"/>
<text xml:space="preserve" text-anchor="middle" x="1508" y="-133" font-family="Arial" font-size="10.00" fill="#1a1a2e">auto, lambdas, ranges</text>
</g>
<!-- s4&#45;&gt;s4_3 -->
<g id="edge20" class="edge">
<title>s4&#45;&gt;s4_3</title>
<path fill="none" stroke="#9c27b0" stroke-width="1.5" d="M1412.56,-224.5C1458.24,-224.5 1508,-224.5 1508,-224.5 1508,-224.5 1508,-167 1508,-167"/>
<polygon fill="#9c27b0" stroke="#9c27b0" stroke-width="1.5" points="1511.5,-167 1508,-157 1504.5,-167 1511.5,-167"/>
</g>
<!-- s5 -->
<g id="node22" class="node">
<title>s5</title>
<path fill="#2196f3" stroke="black" d="M1721.5,-154.5C1721.5,-154.5 1612.5,-154.5 1612.5,-154.5 1606.5,-154.5 1600.5,-148.5 1600.5,-142.5 1600.5,-142.5 1600.5,-130.5 1600.5,-130.5 1600.5,-124.5 1606.5,-118.5 1612.5,-118.5 1612.5,-118.5 1721.5,-118.5 1721.5,-118.5 1727.5,-118.5 1733.5,-124.5 1733.5,-130.5 1733.5,-130.5 1733.5,-142.5 1733.5,-142.5 1733.5,-148.5 1727.5,-154.5 1721.5,-154.5"/>
<text xml:space="preserve" text-anchor="middle" x="1667" y="-132.8" font-family="Arial Bold" font-size="11.00" fill="#ffffff">Stage 5: Modern + Pro</text>
</g>
<!-- s4&#45;&gt;s5 -->
<g id="edge21" class="edge">
<title>s4&#45;&gt;s5</title>
<path fill="none" stroke="#f44336" stroke-width="2" d="M1412.66,-236.5C1509.72,-236.5 1667,-236.5 1667,-236.5 1667,-236.5 1667,-167.87 1667,-167.87"/>
<polygon fill="#f44336" stroke="#f44336" stroke-width="2" points="1670.5,-167.87 1667,-157.87 1663.5,-167.87 1670.5,-167.87"/>
</g>
<!-- s5_0 -->
<g id="node23" class="node">
<title>s5_0</title>
<path fill="#bbdefb" stroke="black" d="M1480.88,-60.5C1480.88,-60.5 1413.12,-60.5 1413.12,-60.5 1407.12,-60.5 1401.12,-54.5 1401.12,-48.5 1401.12,-48.5 1401.12,-36.5 1401.12,-36.5 1401.12,-30.5 1407.12,-24.5 1413.12,-24.5 1413.12,-24.5 1480.88,-24.5 1480.88,-24.5 1486.88,-24.5 1492.88,-30.5 1492.88,-36.5 1492.88,-36.5 1492.88,-48.5 1492.88,-48.5 1492.88,-54.5 1486.88,-60.5 1480.88,-60.5"/>
<text xml:space="preserve" text-anchor="middle" x="1447" y="-39" font-family="Arial" font-size="10.00" fill="#1a1a2e">Modules (C++20)</text>
</g>
<!-- s5&#45;&gt;s5_0 -->
<g id="edge22" class="edge">
<title>s5&#45;&gt;s5_0</title>
<path fill="none" stroke="#f44336" stroke-width="1.5" d="M1617.42,-118.19C1617.42,-105 1617.42,-89.5 1617.42,-89.5 1617.42,-89.5 1472.25,-89.5 1472.25,-89.5 1472.25,-89.5 1472.25,-73.08 1472.25,-73.08"/>
<polygon fill="#f44336" stroke="#f44336" stroke-width="1.5" points="1475.75,-73.08 1472.25,-63.08 1468.75,-73.08 1475.75,-73.08"/>
</g>
<!-- s5_1 -->
<g id="node24" class="node">
<title>s5_1</title>
<path fill="#bbdefb" stroke="black" d="M1639.25,-60.5C1639.25,-60.5 1540.75,-60.5 1540.75,-60.5 1534.75,-60.5 1528.75,-54.5 1528.75,-48.5 1528.75,-48.5 1528.75,-36.5 1528.75,-36.5 1528.75,-30.5 1534.75,-24.5 1540.75,-24.5 1540.75,-24.5 1639.25,-24.5 1639.25,-24.5 1645.25,-24.5 1651.25,-30.5 1651.25,-36.5 1651.25,-36.5 1651.25,-48.5 1651.25,-48.5 1651.25,-54.5 1645.25,-60.5 1639.25,-60.5"/>
<text xml:space="preserve" text-anchor="middle" x="1590" y="-39" font-family="Arial" font-size="10.00" fill="#1a1a2e">Coroutines, concurrency</text>
</g>
<!-- s5&#45;&gt;s5_1 -->
<g id="edge23" class="edge">
<title>s5&#45;&gt;s5_1</title>
<path fill="none" stroke="#f44336" stroke-width="1.5" d="M1634.33,-118.38C1634.33,-118.38 1634.33,-73.16 1634.33,-73.16"/>
<polygon fill="#f44336" stroke="#f44336" stroke-width="1.5" points="1637.83,-73.16 1634.33,-63.16 1630.83,-73.16 1637.83,-73.16"/>
</g>
<!-- s5_2 -->
<g id="node25" class="node">
<title>s5_2</title>
<path fill="#bbdefb" stroke="black" d="M1787,-60.5C1787,-60.5 1699,-60.5 1699,-60.5 1693,-60.5 1687,-54.5 1687,-48.5 1687,-48.5 1687,-36.5 1687,-36.5 1687,-30.5 1693,-24.5 1699,-24.5 1699,-24.5 1787,-24.5 1787,-24.5 1793,-24.5 1799,-30.5 1799,-36.5 1799,-36.5 1799,-48.5 1799,-48.5 1799,-54.5 1793,-60.5 1787,-60.5"/>
<text xml:space="preserve" text-anchor="middle" x="1743" y="-39" font-family="Arial" font-size="10.00" fill="#1a1a2e">Constexpr / consteval</text>
</g>
<!-- s5&#45;&gt;s5_2 -->
<g id="edge24" class="edge">
<title>s5&#45;&gt;s5_2</title>
<path fill="none" stroke="#f44336" stroke-width="1.5" d="M1710.25,-118.38C1710.25,-118.38 1710.25,-73.16 1710.25,-73.16"/>
<polygon fill="#f44336" stroke="#f44336" stroke-width="1.5" points="1713.75,-73.16 1710.25,-63.16 1706.75,-73.16 1713.75,-73.16"/>
</g>
<!-- s5_3 -->
<g id="node26" class="node">
<title>s5_3</title>
<path fill="#bbdefb" stroke="black" d="M1966.75,-60.5C1966.75,-60.5 1847.25,-60.5 1847.25,-60.5 1841.25,-60.5 1835.25,-54.5 1835.25,-48.5 1835.25,-48.5 1835.25,-36.5 1835.25,-36.5 1835.25,-30.5 1841.25,-24.5 1847.25,-24.5 1847.25,-24.5 1966.75,-24.5 1966.75,-24.5 1972.75,-24.5 1978.75,-30.5 1978.75,-36.5 1978.75,-36.5 1978.75,-48.5 1978.75,-48.5 1978.75,-54.5 1972.75,-60.5 1966.75,-60.5"/>
<text xml:space="preserve" text-anchor="middle" x="1907" y="-39" font-family="Arial" font-size="10.00" fill="#1a1a2e">Tooling: CMake, sanitizer, CI</text>
</g>
<!-- s5&#45;&gt;s5_3 -->
<g id="edge25" class="edge">
<title>s5&#45;&gt;s5_3</title>
<path fill="none" stroke="#f44336" stroke-width="1.5" d="M1733.85,-136.5C1804.87,-136.5 1907,-136.5 1907,-136.5 1907,-136.5 1907,-72.89 1907,-72.89"/>
<polygon fill="#f44336" stroke="#f44336" stroke-width="1.5" points="1910.5,-72.89 1907,-62.89 1903.5,-72.89 1910.5,-72.89"/>
</g>
</g>
</svg>
