<?xml version="1.0" encoding="UTF-8" standalone="no"?>
<!DOCTYPE svg PUBLIC "-//W3C//DTD SVG 1.1//EN"
 "http://www.w3.org/Graphics/SVG/1.1/DTD/svg11.dtd">
<!-- Generated by graphviz version 14.1.4 (20260321.0153)
 -->
<!-- Title: cpp_mem Pages: 1 -->
<svg width="1415pt" height="487pt"
 viewBox="0.00 0.00 1415.00 487.00" xmlns="http://www.w3.org/2000/svg" xmlns:xlink="http://www.w3.org/1999/xlink">
<style>
<!-- White text halo for edge label readability -->
text { paint-order: stroke; stroke: #ffffff; stroke-width: 3px; stroke-linejoin: round; fill: #1a1a2e; }
</style>
<g id="graph0" class="graph" transform="scale(1 1) rotate(0) translate(4 483.25)">
<title>cpp_mem</title>
<polygon fill="white" stroke="none" points="-4,4 -4,-483.25 1410.62,-483.25 1410.62,4 -4,4"/>
<text xml:space="preserve" text-anchor="middle" x="703.31" y="-7.2" font-family="Times New Roman,serif" font-size="14.00">C++ Memory Model &#45; Where Objects Live</text>
<!-- title -->
<g id="node1" class="node">
<title>title</title>
<path fill="#1565c0" stroke="black" d="M772.62,-479.25C772.62,-479.25 653.88,-479.25 653.88,-479.25 647.88,-479.25 641.88,-473.25 641.88,-467.25 641.88,-467.25 641.88,-455.25 641.88,-455.25 641.88,-449.25 647.88,-443.25 653.88,-443.25 653.88,-443.25 772.62,-443.25 772.62,-443.25 778.62,-443.25 784.62,-449.25 784.62,-455.25 784.62,-455.25 784.62,-467.25 784.62,-467.25 784.62,-473.25 778.62,-479.25 772.62,-479.25"/>
<text xml:space="preserve" text-anchor="middle" x="713.25" y="-455.82" font-family="Arial Bold" font-size="14.00" fill="#ffffff">C++ Memory Model</text>
</g>
<!-- code -->
<g id="node2" class="node">
<title>code</title>
<polygon fill="#4caf50" stroke="black" points="797.38,-385.25 629.12,-385.25 629.12,-349.25 797.38,-349.25 797.38,-385.25"/>
<text xml:space="preserve" text-anchor="middle" x="713.25" y="-370.3" font-family="Arial" font-size="11.00" fill="#ffffff">Your Code</text>
<text xml:space="preserve" text-anchor="middle" x="713.25" y="-356.8" font-family="Arial" font-size="11.00" fill="#ffffff">int x; &#160;vs &#160;new / malloc &#160;vs &#160;static</text>
</g>
<!-- title&#45;&gt;code -->
<g id="edge1" class="edge">
<title>title&#45;&gt;code</title>
<path fill="none" stroke="#2196f3" stroke-width="2" d="M713.25,-443.13C713.25,-443.13 713.25,-398.67 713.25,-398.67"/>
<polygon fill="#2196f3" stroke="#2196f3" stroke-width="2" points="716.75,-398.67 713.25,-388.67 709.75,-398.67 716.75,-398.67"/>
</g>
<!-- decision -->
<g id="node3" class="node">
<title>decision</title>
<polygon fill="#ff9800" stroke="black" points="713.25,-291.25 652.25,-259.25 713.25,-227.25 774.25,-259.25 713.25,-291.25"/>
<text xml:space="preserve" text-anchor="middle" x="713.25" y="-261.75" font-family="Arial Bold" font-size="10.00" fill="#ffffff">Storage</text>
<text xml:space="preserve" text-anchor="middle" x="713.25" y="-249.75" font-family="Arial Bold" font-size="10.00" fill="#ffffff">duration?</text>
</g>
<!-- code&#45;&gt;decision -->
<g id="edge2" class="edge">
<title>code&#45;&gt;decision</title>
<path fill="none" stroke="#2196f3" stroke-width="2" d="M713.25,-348.93C713.25,-348.93 713.25,-304.69 713.25,-304.69"/>
<polygon fill="#2196f3" stroke="#2196f3" stroke-width="2" points="716.75,-304.69 713.25,-294.69 709.75,-304.69 716.75,-304.69"/>
</g>
<!-- stack -->
<g id="node4" class="node">
<title>stack</title>
<path fill="#2196f3" stroke="black" d="M356.12,-169.25C356.12,-169.25 258.38,-169.25 258.38,-169.25 252.38,-169.25 246.38,-163.25 246.38,-157.25 246.38,-157.25 246.38,-130.5 246.38,-130.5 246.38,-124.5 252.38,-118.5 258.38,-118.5 258.38,-118.5 356.12,-118.5 356.12,-118.5 362.12,-118.5 368.12,-124.5 368.12,-130.5 368.12,-130.5 368.12,-157.25 368.12,-157.25 368.12,-163.25 362.12,-169.25 356.12,-169.25"/>
<text xml:space="preserve" text-anchor="middle" x="307.25" y="-153.85" font-family="Arial Bold" font-size="12.00" fill="#ffffff">Stack</text>
<text xml:space="preserve" text-anchor="middle" x="307.25" y="-139.6" font-family="Arial Bold" font-size="12.00" fill="#ffffff">Automatic scope</text>
<text xml:space="preserve" text-anchor="middle" x="307.25" y="-125.35" font-family="Arial Bold" font-size="12.00" fill="#ffffff">int x; &#160;std::string s;</text>
</g>
<!-- decision&#45;&gt;stack -->
<g id="edge3" class="edge">
<title>decision&#45;&gt;stack</title>
<path fill="none" stroke="#4caf50" stroke-width="2" d="M652.03,-259.5C538.61,-259.5 307.25,-259.5 307.25,-259.5 307.25,-259.5 307.25,-182.56 307.25,-182.56"/>
<polygon fill="#4caf50" stroke="#4caf50" stroke-width="2" points="310.75,-182.56 307.25,-172.56 303.75,-182.56 310.75,-182.56"/>
<text xml:space="preserve" text-anchor="middle" x="428.05" y="-262.7" font-family="Times New Roman,serif" font-size="14.00">local</text>
</g>
<!-- heap -->
<g id="node5" class="node">
<title>heap</title>
<path fill="#2196f3" stroke="black" d="M772.62,-169.25C772.62,-169.25 653.88,-169.25 653.88,-169.25 647.88,-169.25 641.88,-163.25 641.88,-157.25 641.88,-157.25 641.88,-130.5 641.88,-130.5 641.88,-124.5 647.88,-118.5 653.88,-118.5 653.88,-118.5 772.62,-118.5 772.62,-118.5 778.62,-118.5 784.62,-124.5 784.62,-130.5 784.62,-130.5 784.62,-157.25 784.62,-157.25 784.62,-163.25 778.62,-169.25 772.62,-169.25"/>
<text xml:space="preserve" text-anchor="middle" x="713.25" y="-153.85" font-family="Arial Bold" font-size="12.00" fill="#ffffff">Heap</text>
<text xml:space="preserve" text-anchor="middle" x="713.25" y="-139.6" font-family="Arial Bold" font-size="12.00" fill="#ffffff">Manual / smart&#45;pointer</text>
<text xml:space="preserve" text-anchor="middle" x="713.25" y="-125.35" font-family="Arial Bold" font-size="12.00" fill="#ffffff">new / unique_ptr</text>
</g>
<!-- decision&#45;&gt;heap -->
<g id="edge4" class="edge">
<title>decision&#45;&gt;heap</title>
<path fill="none" stroke="#ff9800" stroke-width="2" d="M713.25,-226.8C713.25,-226.8 713.25,-182.53 713.25,-182.53"/>
<polygon fill="#ff9800" stroke="#ff9800" stroke-width="2" points="716.75,-182.53 713.25,-172.53 709.75,-182.53 716.75,-182.53"/>
<text xml:space="preserve" text-anchor="middle" x="689.62" y="-207.87" font-family="Times New Roman,serif" font-size="14.00">dynamic</text>
</g>
<!-- statics -->
<g id="node6" class="node">
<title>statics</title>
<path fill="#2196f3" stroke="black" d="M1151.75,-169.25C1151.75,-169.25 1066.75,-169.25 1066.75,-169.25 1060.75,-169.25 1054.75,-163.25 1054.75,-157.25 1054.75,-157.25 1054.75,-130.5 1054.75,-130.5 1054.75,-124.5 1060.75,-118.5 1066.75,-118.5 1066.75,-118.5 1151.75,-118.5 1151.75,-118.5 1157.75,-118.5 1163.75,-124.5 1163.75,-130.5 1163.75,-130.5 1163.75,-157.25 1163.75,-157.25 1163.75,-163.25 1157.75,-169.25 1151.75,-169.25"/>
<text xml:space="preserve" text-anchor="middle" x="1109.25" y="-153.85" font-family="Arial Bold" font-size="12.00" fill="#ffffff">Static / Global</text>
<text xml:space="preserve" text-anchor="middle" x="1109.25" y="-139.6" font-family="Arial Bold" font-size="12.00" fill="#ffffff">Program lifetime</text>
<text xml:space="preserve" text-anchor="middle" x="1109.25" y="-125.35" font-family="Arial Bold" font-size="12.00" fill="#ffffff">static int x;</text>
</g>
<!-- decision&#45;&gt;statics -->
<g id="edge5" class="edge">
<title>decision&#45;&gt;statics</title>
<path fill="none" stroke="#9c27b0" stroke-width="2" d="M774.69,-259.5C885.92,-259.5 1109.25,-259.5 1109.25,-259.5 1109.25,-259.5 1109.25,-182.56 1109.25,-182.56"/>
<polygon fill="#9c27b0" stroke="#9c27b0" stroke-width="2" points="1112.75,-182.56 1109.25,-172.56 1105.75,-182.56 1112.75,-182.56"/>
<text xml:space="preserve" text-anchor="middle" x="966.19" y="-262.7" font-family="Times New Roman,serif" font-size="14.00">static</text>
</g>
<!-- st_0 -->
<g id="node7" class="node">
<title>st_0</title>
<path fill="#bbdefb" stroke="black" d="M74.5,-60.5C74.5,-60.5 12,-60.5 12,-60.5 6,-60.5 0,-54.5 0,-48.5 0,-48.5 0,-36.5 0,-36.5 0,-30.5 6,-24.5 12,-24.5 12,-24.5 74.5,-24.5 74.5,-24.5 80.5,-24.5 86.5,-30.5 86.5,-36.5 86.5,-36.5 86.5,-48.5 86.5,-48.5 86.5,-54.5 80.5,-60.5 74.5,-60.5"/>
<text xml:space="preserve" text-anchor="middle" x="43.25" y="-39" font-family="Arial" font-size="10.00" fill="#1a1a2e">Fast alloc, LIFO</text>
</g>
<!-- stack&#45;&gt;st_0 -->
<g id="edge6" class="edge">
<title>stack&#45;&gt;st_0</title>
<path fill="none" stroke="#4caf50" stroke-width="1.5" d="M246.02,-143.5C168.03,-143.5 43.25,-143.5 43.25,-143.5 43.25,-143.5 43.25,-72.83 43.25,-72.83"/>
<polygon fill="#4caf50" stroke="#4caf50" stroke-width="1.5" points="46.75,-72.83 43.25,-62.83 39.75,-72.83 46.75,-72.83"/>
</g>
<!-- st_1 -->
<g id="node8" class="node">
<title>st_1</title>
<path fill="#bbdefb" stroke="black" d="M271.62,-60.5C271.62,-60.5 134.88,-60.5 134.88,-60.5 128.88,-60.5 122.88,-54.5 122.88,-48.5 122.88,-48.5 122.88,-36.5 122.88,-36.5 122.88,-30.5 128.88,-24.5 134.88,-24.5 134.88,-24.5 271.62,-24.5 271.62,-24.5 277.62,-24.5 283.62,-30.5 283.62,-36.5 283.62,-36.5 283.62,-48.5 283.62,-48.5 283.62,-54.5 277.62,-60.5 271.62,-60.5"/>
<text xml:space="preserve" text-anchor="middle" x="203.25" y="-39" font-family="Arial" font-size="10.00" fill="#1a1a2e">Freed automatically at scope exit</text>
</g>
<!-- stack&#45;&gt;st_1 -->
<g id="edge7" class="edge">
<title>stack&#45;&gt;st_1</title>
<path fill="none" stroke="#4caf50" stroke-width="1.5" d="M265,-118.03C265,-118.03 265,-73.21 265,-73.21"/>
<polygon fill="#4caf50" stroke="#4caf50" stroke-width="1.5" points="268.5,-73.21 265,-63.21 261.5,-73.21 268.5,-73.21"/>
</g>
<!-- st_2 -->
<g id="node9" class="node">
<title>st_2</title>
<path fill="#bbdefb" stroke="black" d="M490.5,-60.5C490.5,-60.5 332,-60.5 332,-60.5 326,-60.5 320,-54.5 320,-48.5 320,-48.5 320,-36.5 320,-36.5 320,-30.5 326,-24.5 332,-24.5 332,-24.5 490.5,-24.5 490.5,-24.5 496.5,-24.5 502.5,-30.5 502.5,-36.5 502.5,-36.5 502.5,-48.5 502.5,-48.5 502.5,-54.5 496.5,-60.5 490.5,-60.5"/>
<text xml:space="preserve" text-anchor="middle" x="411.25" y="-39" font-family="Arial" font-size="10.00" fill="#1a1a2e">Limited size &#45; avoid recursion blowups</text>
</g>
<!-- stack&#45;&gt;st_2 -->
<g id="edge8" class="edge">
<title>stack&#45;&gt;st_2</title>
<path fill="none" stroke="#4caf50" stroke-width="1.5" d="M344.06,-118.03C344.06,-118.03 344.06,-73.21 344.06,-73.21"/>
<polygon fill="#4caf50" stroke="#4caf50" stroke-width="1.5" points="347.56,-73.21 344.06,-63.21 340.56,-73.21 347.56,-73.21"/>
</g>
<!-- hp_0 -->
<g id="node10" class="node">
<title>hp_0</title>
<path fill="#bbdefb" stroke="black" d="M595.88,-60.5C595.88,-60.5 550.62,-60.5 550.62,-60.5 544.62,-60.5 538.62,-54.5 538.62,-48.5 538.62,-48.5 538.62,-36.5 538.62,-36.5 538.62,-30.5 544.62,-24.5 550.62,-24.5 550.62,-24.5 595.88,-24.5 595.88,-24.5 601.88,-24.5 607.88,-30.5 607.88,-36.5 607.88,-36.5 607.88,-48.5 607.88,-48.5 607.88,-54.5 601.88,-60.5 595.88,-60.5"/>
<text xml:space="preserve" text-anchor="middle" x="573.25" y="-39" font-family="Arial" font-size="10.00" fill="#1a1a2e">Slower alloc</text>
</g>
<!-- heap&#45;&gt;hp_0 -->
<g id="edge9" class="edge">
<title>heap&#45;&gt;hp_0</title>
<path fill="none" stroke="#ff9800" stroke-width="1.5" d="M641.61,-143.5C607.16,-143.5 573.25,-143.5 573.25,-143.5 573.25,-143.5 573.25,-72.83 573.25,-72.83"/>
<polygon fill="#ff9800" stroke="#ff9800" stroke-width="1.5" points="576.75,-72.83 573.25,-62.83 569.75,-72.83 576.75,-72.83"/>
</g>
<!-- hp_1 -->
<g id="node11" class="node">
<title>hp_1</title>
<path fill="#bbdefb" stroke="black" d="M770.38,-60.5C770.38,-60.5 656.12,-60.5 656.12,-60.5 650.12,-60.5 644.12,-54.5 644.12,-48.5 644.12,-48.5 644.12,-36.5 644.12,-36.5 644.12,-30.5 650.12,-24.5 656.12,-24.5 656.12,-24.5 770.38,-24.5 770.38,-24.5 776.38,-24.5 782.38,-30.5 782.38,-36.5 782.38,-36.5 782.38,-48.5 782.38,-48.5 782.38,-54.5 776.38,-60.5 770.38,-60.5"/>
<text xml:space="preserve" text-anchor="middle" x="713.25" y="-39" font-family="Arial" font-size="10.00" fill="#1a1a2e">delete or smart pointer frees</text>
</g>
<!-- heap&#45;&gt;hp_1 -->
<g id="edge10" class="edge">
<title>heap&#45;&gt;hp_1</title>
<path fill="none" stroke="#ff9800" stroke-width="1.5" d="M713.25,-118.03C713.25,-118.03 713.25,-73.21 713.25,-73.21"/>
<polygon fill="#ff9800" stroke="#ff9800" stroke-width="1.5" points="716.75,-73.21 713.25,-63.21 709.75,-73.21 716.75,-73.21"/>
</g>
<!-- hp_2 -->
<g id="node12" class="node">
<title>hp_2</title>
<path fill="#bbdefb" stroke="black" d="M951.75,-60.5C951.75,-60.5 830.75,-60.5 830.75,-60.5 824.75,-60.5 818.75,-54.5 818.75,-48.5 818.75,-48.5 818.75,-36.5 818.75,-36.5 818.75,-30.5 824.75,-24.5 830.75,-24.5 830.75,-24.5 951.75,-24.5 951.75,-24.5 957.75,-24.5 963.75,-30.5 963.75,-36.5 963.75,-36.5 963.75,-48.5 963.75,-48.5 963.75,-54.5 957.75,-60.5 951.75,-60.5"/>
<text xml:space="preserve" text-anchor="middle" x="891.25" y="-39" font-family="Arial" font-size="10.00" fill="#1a1a2e">Leaks if you forget &#45; use RAII</text>
</g>
<!-- heap&#45;&gt;hp_2 -->
<g id="edge11" class="edge">
<title>heap&#45;&gt;hp_2</title>
<path fill="none" stroke="#ff9800" stroke-width="1.5" d="M784.88,-143.5C834.34,-143.5 891.25,-143.5 891.25,-143.5 891.25,-143.5 891.25,-72.83 891.25,-72.83"/>
<polygon fill="#ff9800" stroke="#ff9800" stroke-width="1.5" points="894.75,-72.83 891.25,-62.83 887.75,-72.83 894.75,-72.83"/>
</g>
<!-- ss_0 -->
<g id="node13" class="node">
<title>ss_0</title>
<path fill="#bbdefb" stroke="black" d="M1068.88,-60.5C1068.88,-60.5 1011.62,-60.5 1011.62,-60.5 1005.62,-60.5 999.62,-54.5 999.62,-48.5 999.62,-48.5 999.62,-36.5 999.62,-36.5 999.62,-30.5 1005.62,-24.5 1011.62,-24.5 1011.62,-24.5 1068.88,-24.5 1068.88,-24.5 1074.88,-24.5 1080.88,-30.5 1080.88,-36.5 1080.88,-36.5 1080.88,-48.5 1080.88,-48.5 1080.88,-54.5 1074.88,-60.5 1068.88,-60.5"/>
<text xml:space="preserve" text-anchor="middle" x="1040.25" y="-39" font-family="Arial" font-size="10.00" fill="#1a1a2e">Initialized once</text>
</g>
<!-- statics&#45;&gt;ss_0 -->
<g id="edge12" class="edge">
<title>statics&#45;&gt;ss_0</title>
<path fill="none" stroke="#9c27b0" stroke-width="1.5" d="M1067.81,-118.03C1067.81,-118.03 1067.81,-73.21 1067.81,-73.21"/>
<polygon fill="#9c27b0" stroke="#9c27b0" stroke-width="1.5" points="1071.31,-73.21 1067.81,-63.21 1064.31,-73.21 1071.31,-73.21"/>
</g>
<!-- ss_1 -->
<g id="node14" class="node">
<title>ss_1</title>
<path fill="#bbdefb" stroke="black" d="M1227.5,-60.5C1227.5,-60.5 1129,-60.5 1129,-60.5 1123,-60.5 1117,-54.5 1117,-48.5 1117,-48.5 1117,-36.5 1117,-36.5 1117,-30.5 1123,-24.5 1129,-24.5 1129,-24.5 1227.5,-24.5 1227.5,-24.5 1233.5,-24.5 1239.5,-30.5 1239.5,-36.5 1239.5,-36.5 1239.5,-48.5 1239.5,-48.5 1239.5,-54.5 1233.5,-60.5 1227.5,-60.5"/>
<text xml:space="preserve" text-anchor="middle" x="1178.25" y="-39" font-family="Arial" font-size="10.00" fill="#1a1a2e">Lives until program ends</text>
</g>
<!-- statics&#45;&gt;ss_1 -->
<g id="edge13" class="edge">
<title>statics&#45;&gt;ss_1</title>
<path fill="none" stroke="#9c27b0" stroke-width="1.5" d="M1140.38,-118.03C1140.38,-118.03 1140.38,-73.21 1140.38,-73.21"/>
<polygon fill="#9c27b0" stroke="#9c27b0" stroke-width="1.5" points="1143.88,-73.21 1140.38,-63.21 1136.88,-73.21 1143.88,-73.21"/>
</g>
<!-- ss_2 -->
<g id="node15" class="node">
<title>ss_2</title>
<path fill="#bbdefb" stroke="black" d="M1394.62,-60.5C1394.62,-60.5 1287.88,-60.5 1287.88,-60.5 1281.88,-60.5 1275.88,-54.5 1275.88,-48.5 1275.88,-48.5 1275.88,-36.5 1275.88,-36.5 1275.88,-30.5 1281.88,-24.5 1287.88,-24.5 1287.88,-24.5 1394.62,-24.5 1394.62,-24.5 1400.62,-24.5 1406.62,-30.5 1406.62,-36.5 1406.62,-36.5 1406.62,-48.5 1406.62,-48.5 1406.62,-54.5 1400.62,-60.5 1394.62,-60.5"/>
<text xml:space="preserve" text-anchor="middle" x="1341.25" y="-39" font-family="Arial" font-size="10.00" fill="#1a1a2e">Watch thread&#45;safety of init</text>
</g>
<!-- statics&#45;&gt;ss_2 -->
<g id="edge14" class="edge">
<title>statics&#45;&gt;ss_2</title>
<path fill="none" stroke="#9c27b0" stroke-width="1.5" d="M1164.23,-143.5C1232.84,-143.5 1341.25,-143.5 1341.25,-143.5 1341.25,-143.5 1341.25,-72.83 1341.25,-72.83"/>
<polygon fill="#9c27b0" stroke="#9c27b0" stroke-width="1.5" points="1344.75,-72.83 1341.25,-62.83 1337.75,-72.83 1344.75,-72.83"/>
</g>
</g>
</svg>
