<?xml version="1.0" encoding="UTF-8" standalone="no"?>
<!DOCTYPE svg PUBLIC "-//W3C//DTD SVG 1.1//EN"
 "http://www.w3.org/Graphics/SVG/1.1/DTD/svg11.dtd">
<!-- Generated by graphviz version 14.1.4 (20260321.0153)
 -->
<!-- Title: rust_roadmap Pages: 1 -->
<svg width="2015pt" height="633pt"
 viewBox="0.00 0.00 2015.00 633.00" xmlns="http://www.w3.org/2000/svg" xmlns:xlink="http://www.w3.org/1999/xlink">
<style>
<!-- White text halo for edge label readability -->
text { paint-order: stroke; stroke: #ffffff; stroke-width: 3px; stroke-linejoin: round; fill: #1a1a2e; }
</style>
<g id="graph0" class="graph" transform="scale(1 1) rotate(0) translate(4 628.5)">
<title>rust_roadmap</title>
<polygon fill="white" stroke="none" points="-4,4 -4,-628.5 2011.38,-628.5 2011.38,4 -4,4"/>
<text xml:space="preserve" text-anchor="middle" x="1003.69" y="-7.2" font-family="Times New Roman,serif" font-size="14.00">Rust Learning Roadmap &#45; 5 Stages</text>
<!-- title -->
<g id="node1" class="node">
<title>title</title>
<path fill="#1565c0" stroke="black" d="M481.75,-624.5C481.75,-624.5 333,-624.5 333,-624.5 327,-624.5 321,-618.5 321,-612.5 321,-612.5 321,-600.5 321,-600.5 321,-594.5 327,-588.5 333,-588.5 333,-588.5 481.75,-588.5 481.75,-588.5 487.75,-588.5 493.75,-594.5 493.75,-600.5 493.75,-600.5 493.75,-612.5 493.75,-612.5 493.75,-618.5 487.75,-624.5 481.75,-624.5"/>
<text xml:space="preserve" text-anchor="middle" x="407.38" y="-601.08" font-family="Arial Bold" font-size="14.00" fill="#ffffff">Rust Learning Roadmap</text>
</g>
<!-- s1 -->
<g id="node2" class="node">
<title>s1</title>
<path fill="#2196f3" stroke="black" d="M463.38,-530.5C463.38,-530.5 351.38,-530.5 351.38,-530.5 345.38,-530.5 339.38,-524.5 339.38,-518.5 339.38,-518.5 339.38,-506.5 339.38,-506.5 339.38,-500.5 345.38,-494.5 351.38,-494.5 351.38,-494.5 463.38,-494.5 463.38,-494.5 469.38,-494.5 475.38,-500.5 475.38,-506.5 475.38,-506.5 475.38,-518.5 475.38,-518.5 475.38,-524.5 469.38,-530.5 463.38,-530.5"/>
<text xml:space="preserve" text-anchor="middle" x="407.38" y="-508.8" font-family="Arial Bold" font-size="11.00" fill="#ffffff">Stage 1: Fundamentals</text>
</g>
<!-- title&#45;&gt;s1 -->
<g id="edge1" class="edge">
<title>title&#45;&gt;s1</title>
<path fill="none" stroke="#4caf50" stroke-width="2" d="M407.38,-588.38C407.38,-588.38 407.38,-543.92 407.38,-543.92"/>
<polygon fill="#4caf50" stroke="#4caf50" stroke-width="2" points="410.88,-543.92 407.38,-533.92 403.88,-543.92 410.88,-543.92"/>
</g>
<!-- s1_0 -->
<g id="node3" class="node">
<title>s1_0</title>
<path fill="#bbdefb" stroke="black" d="M118.75,-436.5C118.75,-436.5 12,-436.5 12,-436.5 6,-436.5 0,-430.5 0,-424.5 0,-424.5 0,-412.5 0,-412.5 0,-406.5 6,-400.5 12,-400.5 12,-400.5 118.75,-400.5 118.75,-400.5 124.75,-400.5 130.75,-406.5 130.75,-412.5 130.75,-412.5 130.75,-424.5 130.75,-424.5 130.75,-430.5 124.75,-436.5 118.75,-436.5"/>
<text xml:space="preserve" text-anchor="middle" x="65.38" y="-415" font-family="Arial" font-size="10.00" fill="#1a1a2e">Variables, mut, shadowing</text>
</g>
<!-- s1&#45;&gt;s1_0 -->
<g id="edge2" class="edge">
<title>s1&#45;&gt;s1_0</title>
<path fill="none" stroke="#4caf50" stroke-width="1.5" d="M338.99,-512.5C239.18,-512.5 65.38,-512.5 65.38,-512.5 65.38,-512.5 65.38,-448.89 65.38,-448.89"/>
<polygon fill="#4caf50" stroke="#4caf50" stroke-width="1.5" points="68.88,-448.89 65.38,-438.89 61.88,-448.89 68.88,-448.89"/>
</g>
<!-- s1_1 -->
<g id="node4" class="node">
<title>s1_1</title>
<path fill="#bbdefb" stroke="black" d="M301.62,-436.5C301.62,-436.5 179.12,-436.5 179.12,-436.5 173.12,-436.5 167.12,-430.5 167.12,-424.5 167.12,-424.5 167.12,-412.5 167.12,-412.5 167.12,-406.5 173.12,-400.5 179.12,-400.5 179.12,-400.5 301.62,-400.5 301.62,-400.5 307.62,-400.5 313.62,-406.5 313.62,-412.5 313.62,-412.5 313.62,-424.5 313.62,-424.5 313.62,-430.5 307.62,-436.5 301.62,-436.5"/>
<text xml:space="preserve" text-anchor="middle" x="240.38" y="-415" font-family="Arial" font-size="10.00" fill="#1a1a2e">Primitive types, tuples, arrays</text>
</g>
<!-- s1&#45;&gt;s1_1 -->
<g id="edge3" class="edge">
<title>s1&#45;&gt;s1_1</title>
<path fill="none" stroke="#4caf50" stroke-width="1.5" d="M344.62,-494.38C344.62,-467.06 344.62,-418.5 344.62,-418.5 344.62,-418.5 326.18,-418.5 326.18,-418.5"/>
<polygon fill="#4caf50" stroke="#4caf50" stroke-width="1.5" points="326.18,-415 316.18,-418.5 326.18,-422 326.18,-415"/>
</g>
<!-- s1_2 -->
<g id="node5" class="node">
<title>s1_2</title>
<path fill="#bbdefb" stroke="black" d="M452.88,-436.5C452.88,-436.5 361.88,-436.5 361.88,-436.5 355.88,-436.5 349.88,-430.5 349.88,-424.5 349.88,-424.5 349.88,-412.5 349.88,-412.5 349.88,-406.5 355.88,-400.5 361.88,-400.5 361.88,-400.5 452.88,-400.5 452.88,-400.5 458.88,-400.5 464.88,-406.5 464.88,-412.5 464.88,-412.5 464.88,-424.5 464.88,-424.5 464.88,-430.5 458.88,-436.5 452.88,-436.5"/>
<text xml:space="preserve" text-anchor="middle" x="407.38" y="-415" font-family="Arial" font-size="10.00" fill="#1a1a2e">Functions, control flow</text>
</g>
<!-- s1&#45;&gt;s1_2 -->
<g id="edge4" class="edge">
<title>s1&#45;&gt;s1_2</title>
<path fill="none" stroke="#4caf50" stroke-width="1.5" d="M407.38,-494.38C407.38,-494.38 407.38,-449.16 407.38,-449.16"/>
<polygon fill="#4caf50" stroke="#4caf50" stroke-width="1.5" points="410.88,-449.16 407.38,-439.16 403.88,-449.16 410.88,-449.16"/>
</g>
<!-- s1_3 -->
<g id="node6" class="node">
<title>s1_3</title>
<path fill="#bbdefb" stroke="black" d="M565.38,-436.5C565.38,-436.5 513.38,-436.5 513.38,-436.5 507.38,-436.5 501.38,-430.5 501.38,-424.5 501.38,-424.5 501.38,-412.5 501.38,-412.5 501.38,-406.5 507.38,-400.5 513.38,-400.5 513.38,-400.5 565.38,-400.5 565.38,-400.5 571.38,-400.5 577.38,-406.5 577.38,-412.5 577.38,-412.5 577.38,-424.5 577.38,-424.5 577.38,-430.5 571.38,-436.5 565.38,-436.5"/>
<text xml:space="preserve" text-anchor="middle" x="539.38" y="-415" font-family="Arial" font-size="10.00" fill="#1a1a2e">String vs &amp;str</text>
</g>
<!-- s1&#45;&gt;s1_3 -->
<g id="edge5" class="edge">
<title>s1&#45;&gt;s1_3</title>
<path fill="none" stroke="#4caf50" stroke-width="1.5" d="M475.69,-506.5C507.9,-506.5 539.38,-506.5 539.38,-506.5 539.38,-506.5 539.38,-449 539.38,-449"/>
<polygon fill="#4caf50" stroke="#4caf50" stroke-width="1.5" points="542.88,-449 539.38,-439 535.88,-449 542.88,-449"/>
</g>
<!-- s2 -->
<g id="node7" class="node">
<title>s2</title>
<path fill="#2196f3" stroke="black" d="M771.25,-436.5C771.25,-436.5 625.5,-436.5 625.5,-436.5 619.5,-436.5 613.5,-430.5 613.5,-424.5 613.5,-424.5 613.5,-412.5 613.5,-412.5 613.5,-406.5 619.5,-400.5 625.5,-400.5 625.5,-400.5 771.25,-400.5 771.25,-400.5 777.25,-400.5 783.25,-406.5 783.25,-412.5 783.25,-412.5 783.25,-424.5 783.25,-424.5 783.25,-430.5 777.25,-436.5 771.25,-436.5"/>
<text xml:space="preserve" text-anchor="middle" x="698.38" y="-414.8" font-family="Arial Bold" font-size="11.00" fill="#ffffff">Stage 2: Ownership + Borrow</text>
</g>
<!-- s1&#45;&gt;s2 -->
<g id="edge6" class="edge">
<title>s1&#45;&gt;s2</title>
<path fill="none" stroke="#00bcd4" stroke-width="2" d="M475.6,-518.5C561.61,-518.5 698.38,-518.5 698.38,-518.5 698.38,-518.5 698.38,-449.87 698.38,-449.87"/>
<polygon fill="#00bcd4" stroke="#00bcd4" stroke-width="2" points="701.88,-449.87 698.38,-439.87 694.88,-449.87 701.88,-449.87"/>
</g>
<!-- s2_0 -->
<g id="node8" class="node">
<title>s2_0</title>
<path fill="#bbdefb" stroke="black" d="M458.62,-342.5C458.62,-342.5 336.12,-342.5 336.12,-342.5 330.12,-342.5 324.12,-336.5 324.12,-330.5 324.12,-330.5 324.12,-318.5 324.12,-318.5 324.12,-312.5 330.12,-306.5 336.12,-306.5 336.12,-306.5 458.62,-306.5 458.62,-306.5 464.62,-306.5 470.62,-312.5 470.62,-318.5 470.62,-318.5 470.62,-330.5 470.62,-330.5 470.62,-336.5 464.62,-342.5 458.62,-342.5"/>
<text xml:space="preserve" text-anchor="middle" x="397.38" y="-321" font-family="Arial" font-size="10.00" fill="#1a1a2e">Ownership + move semantics</text>
</g>
<!-- s2&#45;&gt;s2_0 -->
<g id="edge7" class="edge">
<title>s2&#45;&gt;s2_0</title>
<path fill="none" stroke="#00bcd4" stroke-width="1.5" d="M617.83,-400.19C617.83,-387 617.83,-371.5 617.83,-371.5 617.83,-371.5 407.38,-371.5 407.38,-371.5 407.38,-371.5 407.38,-355.08 407.38,-355.08"/>
<polygon fill="#00bcd4" stroke="#00bcd4" stroke-width="1.5" points="410.88,-355.08 407.38,-345.08 403.88,-355.08 410.88,-355.08"/>
</g>
<!-- s2_1 -->
<g id="node9" class="node">
<title>s2_1</title>
<path fill="#bbdefb" stroke="black" d="M614.5,-342.5C614.5,-342.5 518.25,-342.5 518.25,-342.5 512.25,-342.5 506.25,-336.5 506.25,-330.5 506.25,-330.5 506.25,-318.5 506.25,-318.5 506.25,-312.5 512.25,-306.5 518.25,-306.5 518.25,-306.5 614.5,-306.5 614.5,-306.5 620.5,-306.5 626.5,-312.5 626.5,-318.5 626.5,-318.5 626.5,-330.5 626.5,-330.5 626.5,-336.5 620.5,-342.5 614.5,-342.5"/>
<text xml:space="preserve" text-anchor="middle" x="566.38" y="-321" font-family="Arial" font-size="10.00" fill="#1a1a2e">Borrowing (&amp; and &amp;mut)</text>
</g>
<!-- s2&#45;&gt;s2_1 -->
<g id="edge8" class="edge">
<title>s2&#45;&gt;s2_1</title>
<path fill="none" stroke="#00bcd4" stroke-width="1.5" d="M622.17,-400.38C622.17,-400.38 622.17,-355.16 622.17,-355.16"/>
<polygon fill="#00bcd4" stroke="#00bcd4" stroke-width="1.5" points="625.67,-355.16 622.17,-345.16 618.67,-355.16 625.67,-355.16"/>
</g>
<!-- s2_2 -->
<g id="node10" class="node">
<title>s2_2</title>
<path fill="#bbdefb" stroke="black" d="M722.5,-342.5C722.5,-342.5 674.25,-342.5 674.25,-342.5 668.25,-342.5 662.25,-336.5 662.25,-330.5 662.25,-330.5 662.25,-318.5 662.25,-318.5 662.25,-312.5 668.25,-306.5 674.25,-306.5 674.25,-306.5 722.5,-306.5 722.5,-306.5 728.5,-306.5 734.5,-312.5 734.5,-318.5 734.5,-318.5 734.5,-330.5 734.5,-330.5 734.5,-336.5 728.5,-342.5 722.5,-342.5"/>
<text xml:space="preserve" text-anchor="middle" x="698.38" y="-321" font-family="Arial" font-size="10.00" fill="#1a1a2e">Lifetimes (&#39;a)</text>
</g>
<!-- s2&#45;&gt;s2_2 -->
<g id="edge9" class="edge">
<title>s2&#45;&gt;s2_2</title>
<path fill="none" stroke="#00bcd4" stroke-width="1.5" d="M698.38,-400.38C698.38,-400.38 698.38,-355.16 698.38,-355.16"/>
<polygon fill="#00bcd4" stroke="#00bcd4" stroke-width="1.5" points="701.88,-355.16 698.38,-345.16 694.88,-355.16 701.88,-355.16"/>
</g>
<!-- s2_3 -->
<g id="node11" class="node">
<title>s2_3</title>
<path fill="#bbdefb" stroke="black" d="M812.38,-342.5C812.38,-342.5 782.38,-342.5 782.38,-342.5 776.38,-342.5 770.38,-336.5 770.38,-330.5 770.38,-330.5 770.38,-318.5 770.38,-318.5 770.38,-312.5 776.38,-306.5 782.38,-306.5 782.38,-306.5 812.38,-306.5 812.38,-306.5 818.38,-306.5 824.38,-312.5 824.38,-318.5 824.38,-318.5 824.38,-330.5 824.38,-330.5 824.38,-336.5 818.38,-342.5 812.38,-342.5"/>
<text xml:space="preserve" text-anchor="middle" x="797.38" y="-321" font-family="Arial" font-size="10.00" fill="#1a1a2e">Slices</text>
</g>
<!-- s2&#45;&gt;s2_3 -->
<g id="edge10" class="edge">
<title>s2&#45;&gt;s2_3</title>
<path fill="none" stroke="#00bcd4" stroke-width="1.5" d="M776.81,-400.38C776.81,-400.38 776.81,-355.16 776.81,-355.16"/>
<polygon fill="#00bcd4" stroke="#00bcd4" stroke-width="1.5" points="780.31,-355.16 776.81,-345.16 773.31,-355.16 780.31,-355.16"/>
</g>
<!-- s3 -->
<g id="node12" class="node">
<title>s3</title>
<path fill="#2196f3" stroke="black" d="M998.12,-342.5C998.12,-342.5 872.62,-342.5 872.62,-342.5 866.62,-342.5 860.62,-336.5 860.62,-330.5 860.62,-330.5 860.62,-318.5 860.62,-318.5 860.62,-312.5 866.62,-306.5 872.62,-306.5 872.62,-306.5 998.12,-306.5 998.12,-306.5 1004.12,-306.5 1010.12,-312.5 1010.12,-318.5 1010.12,-318.5 1010.12,-330.5 1010.12,-330.5 1010.12,-336.5 1004.12,-342.5 998.12,-342.5"/>
<text xml:space="preserve" text-anchor="middle" x="935.38" y="-320.8" font-family="Arial Bold" font-size="11.00" fill="#ffffff">Stage 3: Structs + Enums</text>
</g>
<!-- s2&#45;&gt;s3 -->
<g id="edge11" class="edge">
<title>s2&#45;&gt;s3</title>
<path fill="none" stroke="#ff9800" stroke-width="2" d="M783.6,-418.5C851.55,-418.5 935.38,-418.5 935.38,-418.5 935.38,-418.5 935.38,-355.65 935.38,-355.65"/>
<polygon fill="#ff9800" stroke="#ff9800" stroke-width="2" points="938.88,-355.65 935.38,-345.65 931.88,-355.65 938.88,-355.65"/>
</g>
<!-- s3_0 -->
<g id="node13" class="node">
<title>s3_0</title>
<path fill="#bbdefb" stroke="black" d="M649.88,-248.5C649.88,-248.5 564.88,-248.5 564.88,-248.5 558.88,-248.5 552.88,-242.5 552.88,-236.5 552.88,-236.5 552.88,-224.5 552.88,-224.5 552.88,-218.5 558.88,-212.5 564.88,-212.5 564.88,-212.5 649.88,-212.5 649.88,-212.5 655.88,-212.5 661.88,-218.5 661.88,-224.5 661.88,-224.5 661.88,-236.5 661.88,-236.5 661.88,-242.5 655.88,-248.5 649.88,-248.5"/>
<text xml:space="preserve" text-anchor="middle" x="607.38" y="-227" font-family="Arial" font-size="10.00" fill="#1a1a2e">Structs + impl blocks</text>
</g>
<!-- s3&#45;&gt;s3_0 -->
<g id="edge12" class="edge">
<title>s3&#45;&gt;s3_0</title>
<path fill="none" stroke="#ff9800" stroke-width="1.5" d="M912.08,-306.19C912.08,-293 912.08,-277.5 912.08,-277.5 912.08,-277.5 644.19,-277.5 644.19,-277.5 644.19,-277.5 644.19,-261.08 644.19,-261.08"/>
<polygon fill="#ff9800" stroke="#ff9800" stroke-width="1.5" points="647.69,-261.08 644.19,-251.08 640.69,-261.08 647.69,-261.08"/>
</g>
<!-- s3_1 -->
<g id="node14" class="node">
<title>s3_1</title>
<path fill="#bbdefb" stroke="black" d="M817.12,-248.5C817.12,-248.5 709.62,-248.5 709.62,-248.5 703.62,-248.5 697.62,-242.5 697.62,-236.5 697.62,-236.5 697.62,-224.5 697.62,-224.5 697.62,-218.5 703.62,-212.5 709.62,-212.5 709.62,-212.5 817.12,-212.5 817.12,-212.5 823.12,-212.5 829.12,-218.5 829.12,-224.5 829.12,-224.5 829.12,-236.5 829.12,-236.5 829.12,-242.5 823.12,-248.5 817.12,-248.5"/>
<text xml:space="preserve" text-anchor="middle" x="763.38" y="-227" font-family="Arial" font-size="10.00" fill="#1a1a2e">Enums + pattern matching</text>
</g>
<!-- s3&#45;&gt;s3_1 -->
<g id="edge13" class="edge">
<title>s3&#45;&gt;s3_1</title>
<path fill="none" stroke="#ff9800" stroke-width="1.5" d="M860.23,-324.5C851.07,-324.5 844.88,-324.5 844.88,-324.5 844.88,-324.5 844.88,-230.5 844.88,-230.5 844.88,-230.5 841.82,-230.5 841.82,-230.5"/>
<polygon fill="#ff9800" stroke="#ff9800" stroke-width="1.5" points="841.82,-227 831.82,-230.5 841.82,-234 841.82,-227"/>
</g>
<!-- s3_2 -->
<g id="node15" class="node">
<title>s3_2</title>
<path fill="#bbdefb" stroke="black" d="M993.25,-248.5C993.25,-248.5 877.5,-248.5 877.5,-248.5 871.5,-248.5 865.5,-242.5 865.5,-236.5 865.5,-236.5 865.5,-224.5 865.5,-224.5 865.5,-218.5 871.5,-212.5 877.5,-212.5 877.5,-212.5 993.25,-212.5 993.25,-212.5 999.25,-212.5 1005.25,-218.5 1005.25,-224.5 1005.25,-224.5 1005.25,-236.5 1005.25,-236.5 1005.25,-242.5 999.25,-248.5 993.25,-248.5"/>
<text xml:space="preserve" text-anchor="middle" x="935.38" y="-227" font-family="Arial" font-size="10.00" fill="#1a1a2e">Option&lt;T&gt; and Result&lt;T,E&gt;</text>
</g>
<!-- s3&#45;&gt;s3_2 -->
<g id="edge14" class="edge">
<title>s3&#45;&gt;s3_2</title>
<path fill="none" stroke="#ff9800" stroke-width="1.5" d="M958.67,-306.38C958.67,-306.38 958.67,-261.16 958.67,-261.16"/>
<polygon fill="#ff9800" stroke="#ff9800" stroke-width="1.5" points="962.17,-261.16 958.67,-251.16 955.17,-261.16 962.17,-261.16"/>
</g>
<!-- s3_3 -->
<g id="node16" class="node">
<title>s3_3</title>
<path fill="#bbdefb" stroke="black" d="M1179.12,-248.5C1179.12,-248.5 1053.62,-248.5 1053.62,-248.5 1047.62,-248.5 1041.62,-242.5 1041.62,-236.5 1041.62,-236.5 1041.62,-224.5 1041.62,-224.5 1041.62,-218.5 1047.62,-212.5 1053.62,-212.5 1053.62,-212.5 1179.12,-212.5 1179.12,-212.5 1185.12,-212.5 1191.12,-218.5 1191.12,-224.5 1191.12,-224.5 1191.12,-236.5 1191.12,-236.5 1191.12,-242.5 1185.12,-248.5 1179.12,-248.5"/>
<text xml:space="preserve" text-anchor="middle" x="1116.38" y="-227" font-family="Arial" font-size="10.00" fill="#1a1a2e">Methods, associated functions</text>
</g>
<!-- s3&#45;&gt;s3_3 -->
<g id="edge15" class="edge">
<title>s3&#45;&gt;s3_3</title>
<path fill="none" stroke="#ff9800" stroke-width="1.5" d="M1010.56,-318.5C1060.29,-318.5 1116.38,-318.5 1116.38,-318.5 1116.38,-318.5 1116.38,-261 1116.38,-261"/>
<polygon fill="#ff9800" stroke="#ff9800" stroke-width="1.5" points="1119.88,-261 1116.38,-251 1112.88,-261 1119.88,-261"/>
</g>
<!-- s4 -->
<g id="node17" class="node">
<title>s4</title>
<path fill="#2196f3" stroke="black" d="M1365.5,-248.5C1365.5,-248.5 1239.25,-248.5 1239.25,-248.5 1233.25,-248.5 1227.25,-242.5 1227.25,-236.5 1227.25,-236.5 1227.25,-224.5 1227.25,-224.5 1227.25,-218.5 1233.25,-212.5 1239.25,-212.5 1239.25,-212.5 1365.5,-212.5 1365.5,-212.5 1371.5,-212.5 1377.5,-218.5 1377.5,-224.5 1377.5,-224.5 1377.5,-236.5 1377.5,-236.5 1377.5,-242.5 1371.5,-248.5 1365.5,-248.5"/>
<text xml:space="preserve" text-anchor="middle" x="1302.38" y="-226.8" font-family="Arial Bold" font-size="11.00" fill="#ffffff">Stage 4: Traits + Generics</text>
</g>
<!-- s3&#45;&gt;s4 -->
<g id="edge16" class="edge">
<title>s3&#45;&gt;s4</title>
<path fill="none" stroke="#9c27b0" stroke-width="2" d="M1010.53,-330.5C1117.9,-330.5 1302.38,-330.5 1302.38,-330.5 1302.38,-330.5 1302.38,-261.87 1302.38,-261.87"/>
<polygon fill="#9c27b0" stroke="#9c27b0" stroke-width="2" points="1305.88,-261.87 1302.38,-251.87 1298.88,-261.87 1305.88,-261.87"/>
</g>
<!-- s4_0 -->
<g id="node18" class="node">
<title>s4_0</title>
<path fill="#bbdefb" stroke="black" d="M1000.62,-154.5C1000.62,-154.5 902.12,-154.5 902.12,-154.5 896.12,-154.5 890.12,-148.5 890.12,-142.5 890.12,-142.5 890.12,-130.5 890.12,-130.5 890.12,-124.5 896.12,-118.5 902.12,-118.5 902.12,-118.5 1000.62,-118.5 1000.62,-118.5 1006.62,-118.5 1012.62,-124.5 1012.62,-130.5 1012.62,-130.5 1012.62,-142.5 1012.62,-142.5 1012.62,-148.5 1006.62,-154.5 1000.62,-154.5"/>
<text xml:space="preserve" text-anchor="middle" x="951.38" y="-133" font-family="Arial" font-size="10.00" fill="#1a1a2e">Traits + default methods</text>
</g>
<!-- s4&#45;&gt;s4_0 -->
<g id="edge17" class="edge">
<title>s4&#45;&gt;s4_0</title>
<path fill="none" stroke="#9c27b0" stroke-width="1.5" d="M1277.71,-212.19C1277.71,-199 1277.71,-183.5 1277.71,-183.5 1277.71,-183.5 947.69,-183.5 947.69,-183.5 947.69,-183.5 947.69,-167.08 947.69,-167.08"/>
<polygon fill="#9c27b0" stroke="#9c27b0" stroke-width="1.5" points="951.19,-167.08 947.69,-157.08 944.19,-167.08 951.19,-167.08"/>
</g>
<!-- s4_1 -->
<g id="node19" class="node">
<title>s4_1</title>
<path fill="#bbdefb" stroke="black" d="M1180.5,-154.5C1180.5,-154.5 1060.25,-154.5 1060.25,-154.5 1054.25,-154.5 1048.25,-148.5 1048.25,-142.5 1048.25,-142.5 1048.25,-130.5 1048.25,-130.5 1048.25,-124.5 1054.25,-118.5 1060.25,-118.5 1060.25,-118.5 1180.5,-118.5 1180.5,-118.5 1186.5,-118.5 1192.5,-124.5 1192.5,-130.5 1192.5,-130.5 1192.5,-142.5 1192.5,-142.5 1192.5,-148.5 1186.5,-154.5 1180.5,-154.5"/>
<text xml:space="preserve" text-anchor="middle" x="1120.38" y="-133" font-family="Arial" font-size="10.00" fill="#1a1a2e">Generic functions and structs</text>
</g>
<!-- s4&#45;&gt;s4_1 -->
<g id="edge18" class="edge">
<title>s4&#45;&gt;s4_1</title>
<path fill="none" stroke="#9c27b0" stroke-width="1.5" d="M1226.84,-230.5C1216.79,-230.5 1209.88,-230.5 1209.88,-230.5 1209.88,-230.5 1209.88,-136.5 1209.88,-136.5 1209.88,-136.5 1204.89,-136.5 1204.89,-136.5"/>
<polygon fill="#9c27b0" stroke="#9c27b0" stroke-width="1.5" points="1204.89,-133 1194.89,-136.5 1204.89,-140 1204.89,-133"/>
</g>
<!-- s4_2 -->
<g id="node20" class="node">
<title>s4_2</title>
<path fill="#bbdefb" stroke="black" d="M1364.38,-154.5C1364.38,-154.5 1240.38,-154.5 1240.38,-154.5 1234.38,-154.5 1228.38,-148.5 1228.38,-142.5 1228.38,-142.5 1228.38,-130.5 1228.38,-130.5 1228.38,-124.5 1234.38,-118.5 1240.38,-118.5 1240.38,-118.5 1364.38,-118.5 1364.38,-118.5 1370.38,-118.5 1376.38,-124.5 1376.38,-130.5 1376.38,-130.5 1376.38,-142.5 1376.38,-142.5 1376.38,-148.5 1370.38,-154.5 1364.38,-154.5"/>
<text xml:space="preserve" text-anchor="middle" x="1302.38" y="-133" font-family="Arial" font-size="10.00" fill="#1a1a2e">Trait objects (dyn) vs generics</text>
</g>
<!-- s4&#45;&gt;s4_2 -->
<g id="edge19" class="edge">
<title>s4&#45;&gt;s4_2</title>
<path fill="none" stroke="#9c27b0" stroke-width="1.5" d="M1327.04,-212.38C1327.04,-212.38 1327.04,-167.16 1327.04,-167.16"/>
<polygon fill="#9c27b0" stroke="#9c27b0" stroke-width="1.5" points="1330.54,-167.16 1327.04,-157.16 1323.54,-167.16 1330.54,-167.16"/>
</g>
<!-- s4_3 -->
<g id="node21" class="node">
<title>s4_3</title>
<path fill="#bbdefb" stroke="black" d="M1518,-154.5C1518,-154.5 1424.75,-154.5 1424.75,-154.5 1418.75,-154.5 1412.75,-148.5 1412.75,-142.5 1412.75,-142.5 1412.75,-130.5 1412.75,-130.5 1412.75,-124.5 1418.75,-118.5 1424.75,-118.5 1424.75,-118.5 1518,-118.5 1518,-118.5 1524,-118.5 1530,-124.5 1530,-130.5 1530,-130.5 1530,-142.5 1530,-142.5 1530,-148.5 1524,-154.5 1518,-154.5"/>
<text xml:space="preserve" text-anchor="middle" x="1471.38" y="-133" font-family="Arial" font-size="10.00" fill="#1a1a2e">Iterators + combinators</text>
</g>
<!-- s4&#45;&gt;s4_3 -->
<g id="edge20" class="edge">
<title>s4&#45;&gt;s4_3</title>
<path fill="none" stroke="#9c27b0" stroke-width="1.5" d="M1377.98,-224.5C1422.97,-224.5 1471.38,-224.5 1471.38,-224.5 1471.38,-224.5 1471.38,-167 1471.38,-167"/>
<polygon fill="#9c27b0" stroke="#9c27b0" stroke-width="1.5" points="1474.88,-167 1471.38,-157 1467.88,-167 1474.88,-167"/>
</g>
<!-- s5 -->
<g id="node22" class="node">
<title>s5</title>
<path fill="#2196f3" stroke="black" d="M1719,-154.5C1719,-154.5 1577.75,-154.5 1577.75,-154.5 1571.75,-154.5 1565.75,-148.5 1565.75,-142.5 1565.75,-142.5 1565.75,-130.5 1565.75,-130.5 1565.75,-124.5 1571.75,-118.5 1577.75,-118.5 1577.75,-118.5 1719,-118.5 1719,-118.5 1725,-118.5 1731,-124.5 1731,-130.5 1731,-130.5 1731,-142.5 1731,-142.5 1731,-148.5 1725,-154.5 1719,-154.5"/>
<text xml:space="preserve" text-anchor="middle" x="1648.38" y="-132.8" font-family="Arial Bold" font-size="11.00" fill="#ffffff">Stage 5: Async + Ecosystem</text>
</g>
<!-- s4&#45;&gt;s5 -->
<g id="edge21" class="edge">
<title>s4&#45;&gt;s5</title>
<path fill="none" stroke="#f44336" stroke-width="2" d="M1377.88,-236.5C1479.69,-236.5 1648.38,-236.5 1648.38,-236.5 1648.38,-236.5 1648.38,-167.87 1648.38,-167.87"/>
<polygon fill="#f44336" stroke="#f44336" stroke-width="2" points="1651.88,-167.87 1648.38,-157.87 1644.88,-167.87 1651.88,-167.87"/>
</g>
<!-- s5_0 -->
<g id="node23" class="node">
<title>s5_0</title>
<path fill="#bbdefb" stroke="black" d="M1436.12,-60.5C1436.12,-60.5 1358.62,-60.5 1358.62,-60.5 1352.62,-60.5 1346.62,-54.5 1346.62,-48.5 1346.62,-48.5 1346.62,-36.5 1346.62,-36.5 1346.62,-30.5 1352.62,-24.5 1358.62,-24.5 1358.62,-24.5 1436.12,-24.5 1436.12,-24.5 1442.12,-24.5 1448.12,-30.5 1448.12,-36.5 1448.12,-36.5 1448.12,-48.5 1448.12,-48.5 1448.12,-54.5 1442.12,-60.5 1436.12,-60.5"/>
<text xml:space="preserve" text-anchor="middle" x="1397.38" y="-39" font-family="Arial" font-size="10.00" fill="#1a1a2e">async/await + tokio</text>
</g>
<!-- s5&#45;&gt;s5_0 -->
<g id="edge22" class="edge">
<title>s5&#45;&gt;s5_0</title>
<path fill="none" stroke="#f44336" stroke-width="1.5" d="M1587.5,-118.19C1587.5,-105 1587.5,-89.5 1587.5,-89.5 1587.5,-89.5 1430.44,-89.5 1430.44,-89.5 1430.44,-89.5 1430.44,-73.08 1430.44,-73.08"/>
<polygon fill="#f44336" stroke="#f44336" stroke-width="1.5" points="1433.94,-73.08 1430.44,-63.08 1426.94,-73.08 1433.94,-73.08"/>
</g>
<!-- s5_1 -->
<g id="node24" class="node">
<title>s5_1</title>
<path fill="#bbdefb" stroke="black" d="M1619,-60.5C1619,-60.5 1495.75,-60.5 1495.75,-60.5 1489.75,-60.5 1483.75,-54.5 1483.75,-48.5 1483.75,-48.5 1483.75,-36.5 1483.75,-36.5 1483.75,-30.5 1489.75,-24.5 1495.75,-24.5 1495.75,-24.5 1619,-24.5 1619,-24.5 1625,-24.5 1631,-30.5 1631,-36.5 1631,-36.5 1631,-48.5 1631,-48.5 1631,-54.5 1625,-60.5 1619,-60.5"/>
<text xml:space="preserve" text-anchor="middle" x="1557.38" y="-39" font-family="Arial" font-size="10.00" fill="#1a1a2e">Threads, channels, Mutex/Arc</text>
</g>
<!-- s5&#45;&gt;s5_1 -->
<g id="edge23" class="edge">
<title>s5&#45;&gt;s5_1</title>
<path fill="none" stroke="#f44336" stroke-width="1.5" d="M1609.25,-118.38C1609.25,-118.38 1609.25,-73.16 1609.25,-73.16"/>
<polygon fill="#f44336" stroke="#f44336" stroke-width="1.5" points="1612.75,-73.16 1609.25,-63.16 1605.75,-73.16 1612.75,-73.16"/>
</g>
<!-- s5_2 -->
<g id="node25" class="node">
<title>s5_2</title>
<path fill="#bbdefb" stroke="black" d="M1799.5,-60.5C1799.5,-60.5 1679.25,-60.5 1679.25,-60.5 1673.25,-60.5 1667.25,-54.5 1667.25,-48.5 1667.25,-48.5 1667.25,-36.5 1667.25,-36.5 1667.25,-30.5 1673.25,-24.5 1679.25,-24.5 1679.25,-24.5 1799.5,-24.5 1799.5,-24.5 1805.5,-24.5 1811.5,-30.5 1811.5,-36.5 1811.5,-36.5 1811.5,-48.5 1811.5,-48.5 1811.5,-54.5 1805.5,-60.5 1799.5,-60.5"/>
<text xml:space="preserve" text-anchor="middle" x="1739.38" y="-39" font-family="Arial" font-size="10.00" fill="#1a1a2e">Cargo, crates.io, clippy, tests</text>
</g>
<!-- s5&#45;&gt;s5_2 -->
<g id="edge24" class="edge">
<title>s5&#45;&gt;s5_2</title>
<path fill="none" stroke="#f44336" stroke-width="1.5" d="M1699.12,-118.38C1699.12,-118.38 1699.12,-73.16 1699.12,-73.16"/>
<polygon fill="#f44336" stroke="#f44336" stroke-width="1.5" points="1702.63,-73.16 1699.13,-63.16 1695.63,-73.16 1702.63,-73.16"/>
</g>
<!-- s5_3 -->
<g id="node26" class="node">
<title>s5_3</title>
<path fill="#bbdefb" stroke="black" d="M1995.38,-60.5C1995.38,-60.5 1859.38,-60.5 1859.38,-60.5 1853.38,-60.5 1847.38,-54.5 1847.38,-48.5 1847.38,-48.5 1847.38,-36.5 1847.38,-36.5 1847.38,-30.5 1853.38,-24.5 1859.38,-24.5 1859.38,-24.5 1995.38,-24.5 1995.38,-24.5 2001.38,-24.5 2007.38,-30.5 2007.38,-36.5 2007.38,-36.5 2007.38,-48.5 2007.38,-48.5 2007.38,-54.5 2001.38,-60.5 1995.38,-60.5"/>
<text xml:space="preserve" text-anchor="middle" x="1927.38" y="-39" font-family="Arial" font-size="10.00" fill="#1a1a2e">Error handling: anyhow / thiserror</text>
</g>
<!-- s5&#45;&gt;s5_3 -->
<g id="edge25" class="edge">
<title>s5&#45;&gt;s5_3</title>
<path fill="none" stroke="#f44336" stroke-width="1.5" d="M1731.33,-136.5C1813.57,-136.5 1927.38,-136.5 1927.38,-136.5 1927.38,-136.5 1927.38,-72.89 1927.38,-72.89"/>
<polygon fill="#f44336" stroke="#f44336" stroke-width="1.5" points="1930.88,-72.89 1927.38,-62.89 1923.88,-72.89 1930.88,-72.89"/>
</g>
</g>
</svg>
