<?xml version="1.0" encoding="UTF-8" standalone="no"?>
<!DOCTYPE svg PUBLIC "-//W3C//DTD SVG 1.1//EN"
 "http://www.w3.org/Graphics/SVG/1.1/DTD/svg11.dtd">
<!-- Generated by graphviz version 14.1.2 (0)
 -->
<!-- Title: deep&#45;ep&#45;moe&#45;flow Pages: 1 -->
<svg width="1409pt" height="163pt"
 viewBox="0.00 0.00 1409.00 163.00" xmlns="http://www.w3.org/2000/svg" xmlns:xlink="http://www.w3.org/1999/xlink">
<g id="graph0" class="graph" transform="scale(1 1) rotate(0) translate(4 159)">
<title>deep&#45;ep&#45;moe&#45;flow</title>
<polygon fill="#0d1117" stroke="none" points="-4,4 -4,-159 1404.5,-159 1404.5,4 -4,4"/>
<!-- title -->
<g id="node1" class="node">
<title>title</title>
<text xml:space="preserve" text-anchor="middle" x="164.38" y="-12.5" font-family="Segoe UI" font-size="20.00" fill="white">MoE Dispatch / Combine Data Flow</text>
</g>
<!-- input -->
<g id="node2" class="node">
<title>input</title>
<path fill="#161b22" stroke="#58a6ff" stroke-width="2" d="M200.12,-110C200.12,-110 128.62,-110 128.62,-110 122.62,-110 116.62,-104 116.62,-98 116.62,-98 116.62,-84 116.62,-84 116.62,-78 122.62,-72 128.62,-72 128.62,-72 200.12,-72 200.12,-72 206.12,-72 212.12,-78 212.12,-84 212.12,-84 212.12,-98 212.12,-98 212.12,-104 206.12,-110 200.12,-110"/>
<text xml:space="preserve" text-anchor="middle" x="164.38" y="-95.55" font-family="Segoe UI" font-size="11.00" fill="#58a6ff">Input Tokens</text>
<text xml:space="preserve" text-anchor="middle" x="164.38" y="-80.55" font-family="Segoe UI" font-size="11.00" fill="#58a6ff">(Batch x Hidden)</text>
</g>
<!-- gate -->
<g id="node3" class="node">
<title>gate</title>
<path fill="#161b22" stroke="#a371f7" stroke-width="2" d="M503.5,-155C503.5,-155 399.75,-155 399.75,-155 393.75,-155 387.75,-149 387.75,-143 387.75,-143 387.75,-129 387.75,-129 387.75,-123 393.75,-117 399.75,-117 399.75,-117 503.5,-117 503.5,-117 509.5,-117 515.5,-123 515.5,-129 515.5,-129 515.5,-143 515.5,-143 515.5,-149 509.5,-155 503.5,-155"/>
<text xml:space="preserve" text-anchor="middle" x="451.62" y="-140.55" font-family="Segoe UI" font-size="11.00" fill="#a371f7">Gating Network</text>
<text xml:space="preserve" text-anchor="middle" x="451.62" y="-125.55" font-family="Segoe UI" font-size="11.00" fill="#a371f7">Top&#45;K Expert Selection</text>
</g>
<!-- input&#45;&gt;gate -->
<g id="edge1" class="edge">
<title>input&#45;&gt;gate</title>
<path fill="none" stroke="#a371f7" stroke-width="2" d="M164.5,-110.87C164.5,-122.92 164.5,-136 164.5,-136 164.5,-136 373.8,-136 373.8,-136"/>
<polygon fill="#a371f7" stroke="#a371f7" stroke-width="2" points="373.8,-139.5 383.8,-136 373.8,-132.5 373.8,-139.5"/>
</g>
<!-- layout -->
<g id="node4" class="node">
<title>layout</title>
<path fill="#161b22" stroke="#3fb950" stroke-width="2" d="M692.5,-155C692.5,-155 586.5,-155 586.5,-155 580.5,-155 574.5,-149 574.5,-143 574.5,-143 574.5,-129 574.5,-129 574.5,-123 580.5,-117 586.5,-117 586.5,-117 692.5,-117 692.5,-117 698.5,-117 704.5,-123 704.5,-129 704.5,-129 704.5,-143 704.5,-143 704.5,-149 698.5,-155 692.5,-155"/>
<text xml:space="preserve" text-anchor="middle" x="639.5" y="-140.55" font-family="Segoe UI" font-size="11.00" fill="#3fb950">Calculate Layout</text>
<text xml:space="preserve" text-anchor="middle" x="639.5" y="-125.55" font-family="Segoe UI" font-size="11.00" fill="#3fb950">Tokens per Rank/Expert</text>
</g>
<!-- gate&#45;&gt;layout -->
<g id="edge2" class="edge">
<title>gate&#45;&gt;layout</title>
<path fill="none" stroke="#3fb950" stroke-width="2" d="M516.28,-136C516.28,-136 560.74,-136 560.74,-136"/>
<polygon fill="#3fb950" stroke="#3fb950" stroke-width="2" points="560.74,-139.5 570.74,-136 560.74,-132.5 560.74,-139.5"/>
</g>
<!-- dispatch -->
<g id="node5" class="node">
<title>dispatch</title>
<path fill="#161b22" stroke="#58a6ff" stroke-width="2" d="M877,-155C877,-155 775.5,-155 775.5,-155 769.5,-155 763.5,-149 763.5,-143 763.5,-143 763.5,-129 763.5,-129 763.5,-123 769.5,-117 775.5,-117 775.5,-117 877,-117 877,-117 883,-117 889,-123 889,-129 889,-129 889,-143 889,-143 889,-149 883,-155 877,-155"/>
<text xml:space="preserve" text-anchor="middle" x="826.25" y="-140.55" font-family="Segoe UI" font-size="11.00" fill="#58a6ff">Dispatch Kernel</text>
<text xml:space="preserve" text-anchor="middle" x="826.25" y="-125.55" font-family="Segoe UI" font-size="11.00" fill="#58a6ff">All&#45;to&#45;All GPU Transfer</text>
</g>
<!-- layout&#45;&gt;dispatch -->
<g id="edge3" class="edge">
<title>layout&#45;&gt;dispatch</title>
<path fill="none" stroke="#58a6ff" stroke-width="2" d="M705.34,-136C705.34,-136 749.54,-136 749.54,-136"/>
<polygon fill="#58a6ff" stroke="#58a6ff" stroke-width="2" points="749.54,-139.5 759.54,-136 749.54,-132.5 749.54,-139.5"/>
</g>
<!-- experts -->
<g id="node6" class="node">
<title>experts</title>
<path fill="#161b22" stroke="#f78166" stroke-width="2" d="M1050.25,-155C1050.25,-155 960,-155 960,-155 954,-155 948,-149 948,-143 948,-143 948,-129 948,-129 948,-123 954,-117 960,-117 960,-117 1050.25,-117 1050.25,-117 1056.25,-117 1062.25,-123 1062.25,-129 1062.25,-129 1062.25,-143 1062.25,-143 1062.25,-149 1056.25,-155 1050.25,-155"/>
<text xml:space="preserve" text-anchor="middle" x="1005.12" y="-140.55" font-family="Segoe UI" font-size="11.00" fill="#f78166">Expert Computation</text>
<text xml:space="preserve" text-anchor="middle" x="1005.12" y="-125.55" font-family="Segoe UI" font-size="11.00" fill="#f78166">FFN Layers</text>
</g>
<!-- dispatch&#45;&gt;experts -->
<g id="edge4" class="edge">
<title>dispatch&#45;&gt;experts</title>
<path fill="none" stroke="#f78166" stroke-width="2" d="M889.82,-136C889.82,-136 934.1,-136 934.1,-136"/>
<polygon fill="#f78166" stroke="#f78166" stroke-width="2" points="934.1,-139.5 944.1,-136 934.1,-132.5 934.1,-139.5"/>
</g>
<!-- combine -->
<g id="node7" class="node">
<title>combine</title>
<path fill="#161b22" stroke="#58a6ff" stroke-width="2" d="M1234.75,-155C1234.75,-155 1133.25,-155 1133.25,-155 1127.25,-155 1121.25,-149 1121.25,-143 1121.25,-143 1121.25,-129 1121.25,-129 1121.25,-123 1127.25,-117 1133.25,-117 1133.25,-117 1234.75,-117 1234.75,-117 1240.75,-117 1246.75,-123 1246.75,-129 1246.75,-129 1246.75,-143 1246.75,-143 1246.75,-149 1240.75,-155 1234.75,-155"/>
<text xml:space="preserve" text-anchor="middle" x="1184" y="-140.55" font-family="Segoe UI" font-size="11.00" fill="#58a6ff">Combine Kernel</text>
<text xml:space="preserve" text-anchor="middle" x="1184" y="-125.55" font-family="Segoe UI" font-size="11.00" fill="#58a6ff">All&#45;to&#45;All GPU Transfer</text>
</g>
<!-- experts&#45;&gt;combine -->
<g id="edge5" class="edge">
<title>experts&#45;&gt;combine</title>
<path fill="none" stroke="#58a6ff" stroke-width="2" d="M1063.2,-136C1063.2,-136 1107.32,-136 1107.32,-136"/>
<polygon fill="#58a6ff" stroke="#58a6ff" stroke-width="2" points="1107.32,-139.5 1117.32,-136 1107.32,-132.5 1107.32,-139.5"/>
</g>
<!-- output -->
<g id="node8" class="node">
<title>output</title>
<path fill="#161b22" stroke="#3fb950" stroke-width="2" d="M1388.5,-102C1388.5,-102 1317.75,-102 1317.75,-102 1311.75,-102 1305.75,-96 1305.75,-90 1305.75,-90 1305.75,-76 1305.75,-76 1305.75,-70 1311.75,-64 1317.75,-64 1317.75,-64 1388.5,-64 1388.5,-64 1394.5,-64 1400.5,-70 1400.5,-76 1400.5,-76 1400.5,-90 1400.5,-90 1400.5,-96 1394.5,-102 1388.5,-102"/>
<text xml:space="preserve" text-anchor="middle" x="1353.12" y="-87.55" font-family="Segoe UI" font-size="11.00" fill="#3fb950">Output Tokens</text>
<text xml:space="preserve" text-anchor="middle" x="1353.12" y="-72.55" font-family="Segoe UI" font-size="11.00" fill="#3fb950">(Weighted Sum)</text>
</g>
<!-- combine&#45;&gt;output -->
<g id="edge6" class="edge">
<title>combine&#45;&gt;output</title>
<path fill="none" stroke="#3fb950" stroke-width="2" d="M1247.6,-136C1295.69,-136 1353.5,-136 1353.5,-136 1353.5,-136 1353.5,-115.76 1353.5,-115.76"/>
<polygon fill="#3fb950" stroke="#3fb950" stroke-width="2" points="1357,-115.76 1353.5,-105.76 1350,-115.76 1357,-115.76"/>
</g>
<!-- output&#45;&gt;input -->
<g id="edge7" class="edge">
<title>output&#45;&gt;input</title>
<path fill="none" stroke="#8b949e" stroke-width="1.5" stroke-dasharray="5,2" d="M1305.05,-87C1305.05,-87 225.32,-87 225.32,-87"/>
<polygon fill="#8b949e" stroke="#8b949e" stroke-width="1.5" points="225.32,-83.5 215.32,-87 225.32,-90.5 225.32,-83.5"/>
<text xml:space="preserve" text-anchor="middle" x="826.25" y="-63.95" font-family="Times New Roman,serif" font-size="9.00" fill="#8b949e">Backward: combine &#45;&gt; dispatch</text>
</g>
</g>
</svg>
