<?xml version="1.0" encoding="UTF-8" standalone="no"?>
<!DOCTYPE svg PUBLIC "-//W3C//DTD SVG 1.1//EN"
 "http://www.w3.org/Graphics/SVG/1.1/DTD/svg11.dtd">
<!-- Generated by graphviz version 14.1.2 (0)
 -->
<!-- Title: deep&#45;ep&#45;moe&#45;flow Pages: 1 -->
<svg width="1130pt" height="69pt"
 viewBox="0.00 0.00 1130.00 69.00" xmlns="http://www.w3.org/2000/svg" xmlns:xlink="http://www.w3.org/1999/xlink">
<style>
<!-- White text halo for edge label readability -->
text { paint-order: stroke; stroke: #ffffff; stroke-width: 3px; stroke-linejoin: round; fill: #1a1a2e; }
</style>
<g id="graph0" class="graph" transform="scale(1 1) rotate(0) translate(4 65)">
<title>deep&#45;ep&#45;moe&#45;flow</title>
<polygon fill="white" stroke="none" points="-4,4 -4,-65 1125.5,-65 1125.5,4 -4,4"/>
<text xml:space="preserve" text-anchor="middle" x="560.75" y="-7.2" font-family="Times New Roman,serif" font-size="14.00">MoE Dispatch / Combine Data Flow</text>
<!-- input -->
<g id="node1" class="node">
<title>input</title>
<polygon fill="#4caf50" stroke="black" points="97,-60.75 0,-60.75 0,-24.75 97,-24.75 97,-60.75"/>
<text xml:space="preserve" text-anchor="middle" x="48.5" y="-45.8" font-family="Arial" font-size="11.00" fill="white">Input Tokens</text>
<text xml:space="preserve" text-anchor="middle" x="48.5" y="-32.3" font-family="Arial" font-size="11.00" fill="white">(Batch x Hidden)</text>
</g>
<!-- gate -->
<g id="node2" class="node">
<title>gate</title>
<path fill="#9c27b0" stroke="black" d="M269.25,-60.75C269.25,-60.75 167,-60.75 167,-60.75 161,-60.75 155,-54.75 155,-48.75 155,-48.75 155,-36.75 155,-36.75 155,-30.75 161,-24.75 167,-24.75 167,-24.75 269.25,-24.75 269.25,-24.75 275.25,-24.75 281.25,-30.75 281.25,-36.75 281.25,-36.75 281.25,-48.75 281.25,-48.75 281.25,-54.75 275.25,-60.75 269.25,-60.75"/>
<text xml:space="preserve" text-anchor="middle" x="218.12" y="-45.8" font-family="Arial" font-size="11.00" fill="white">Gating Network</text>
<text xml:space="preserve" text-anchor="middle" x="218.12" y="-32.3" font-family="Arial" font-size="11.00" fill="white">Top&#45;K Expert Selection</text>
</g>
<!-- input&#45;&gt;gate -->
<g id="edge1" class="edge">
<title>input&#45;&gt;gate</title>
<path fill="none" stroke="#9c27b0" stroke-width="2" d="M97.11,-42.75C97.11,-42.75 141.6,-42.75 141.6,-42.75"/>
<polygon fill="#9c27b0" stroke="#9c27b0" stroke-width="2" points="141.6,-46.25 151.6,-42.75 141.6,-39.25 141.6,-46.25"/>
</g>
<!-- layout -->
<g id="node3" class="node">
<title>layout</title>
<path fill="#2196f3" stroke="black" d="M480.5,-61C480.5,-61 351.25,-61 351.25,-61 345.25,-61 339.25,-55 339.25,-49 339.25,-49 339.25,-36.5 339.25,-36.5 339.25,-30.5 345.25,-24.5 351.25,-24.5 351.25,-24.5 480.5,-24.5 480.5,-24.5 486.5,-24.5 492.5,-30.5 492.5,-36.5 492.5,-36.5 492.5,-49 492.5,-49 492.5,-55 486.5,-61 480.5,-61"/>
<text xml:space="preserve" text-anchor="middle" x="415.88" y="-45.6" font-family="Arial Bold" font-size="12.00" fill="white">Calculate Layout</text>
<text xml:space="preserve" text-anchor="middle" x="415.88" y="-31.35" font-family="Arial Bold" font-size="12.00" fill="white">Tokens per Rank/Expert</text>
</g>
<!-- gate&#45;&gt;layout -->
<g id="edge2" class="edge">
<title>gate&#45;&gt;layout</title>
<path fill="none" stroke="#2196f3" stroke-width="2" d="M281.51,-42.75C281.51,-42.75 325.98,-42.75 325.98,-42.75"/>
<polygon fill="#2196f3" stroke="#2196f3" stroke-width="2" points="325.98,-46.25 335.98,-42.75 325.98,-39.25 325.98,-46.25"/>
</g>
<!-- dispatch -->
<g id="node4" class="node">
<title>dispatch</title>
<path fill="#ff9800" stroke="black" d="M631,-60.75C631,-60.75 562.5,-60.75 562.5,-60.75 556.5,-60.75 550.5,-54.75 550.5,-48.75 550.5,-48.75 550.5,-36.75 550.5,-36.75 550.5,-30.75 556.5,-24.75 562.5,-24.75 562.5,-24.75 631,-24.75 631,-24.75 637,-24.75 643,-30.75 643,-36.75 643,-36.75 643,-48.75 643,-48.75 643,-54.75 637,-60.75 631,-60.75"/>
<text xml:space="preserve" text-anchor="middle" x="596.75" y="-45.8" font-family="Arial" font-size="11.00" fill="white">Dispatch Kernel</text>
<text xml:space="preserve" text-anchor="middle" x="596.75" y="-32.3" font-family="Arial" font-size="11.00" fill="white">All&#45;to&#45;All Send</text>
</g>
<!-- layout&#45;&gt;dispatch -->
<g id="edge3" class="edge">
<title>layout&#45;&gt;dispatch</title>
<path fill="none" stroke="#ff9800" stroke-width="2" d="M492.84,-42.75C492.84,-42.75 537.19,-42.75 537.19,-42.75"/>
<polygon fill="#ff9800" stroke="#ff9800" stroke-width="2" points="537.19,-46.25 547.19,-42.75 537.19,-39.25 537.19,-46.25"/>
</g>
<!-- expert -->
<g id="node5" class="node">
<title>expert</title>
<polygon fill="#f44336" stroke="black" points="813,-60.75 701,-60.75 701,-24.75 813,-24.75 813,-60.75"/>
<text xml:space="preserve" text-anchor="middle" x="757" y="-45.8" font-family="Arial" font-size="11.00" fill="white">Expert Computation</text>
<text xml:space="preserve" text-anchor="middle" x="757" y="-32.3" font-family="Arial" font-size="11.00" fill="white">GPU Processing</text>
</g>
<!-- dispatch&#45;&gt;expert -->
<g id="edge4" class="edge">
<title>dispatch&#45;&gt;expert</title>
<path fill="none" stroke="#f44336" stroke-width="2" d="M643.1,-42.75C643.1,-42.75 687.49,-42.75 687.49,-42.75"/>
<polygon fill="#f44336" stroke="#f44336" stroke-width="2" points="687.49,-46.25 697.49,-42.75 687.49,-39.25 687.49,-46.25"/>
</g>
<!-- combine -->
<g id="node6" class="node">
<title>combine</title>
<path fill="#ff9800" stroke="black" d="M953,-60.75C953,-60.75 883,-60.75 883,-60.75 877,-60.75 871,-54.75 871,-48.75 871,-48.75 871,-36.75 871,-36.75 871,-30.75 877,-24.75 883,-24.75 883,-24.75 953,-24.75 953,-24.75 959,-24.75 965,-30.75 965,-36.75 965,-36.75 965,-48.75 965,-48.75 965,-54.75 959,-60.75 953,-60.75"/>
<text xml:space="preserve" text-anchor="middle" x="918" y="-45.8" font-family="Arial" font-size="11.00" fill="white">Combine Kernel</text>
<text xml:space="preserve" text-anchor="middle" x="918" y="-32.3" font-family="Arial" font-size="11.00" fill="white">All&#45;to&#45;All Gather</text>
</g>
<!-- expert&#45;&gt;combine -->
<g id="edge5" class="edge">
<title>expert&#45;&gt;combine</title>
<path fill="none" stroke="#ff9800" stroke-width="2" d="M813.31,-42.75C813.31,-42.75 857.5,-42.75 857.5,-42.75"/>
<polygon fill="#ff9800" stroke="#ff9800" stroke-width="2" points="857.5,-46.25 867.5,-42.75 857.5,-39.25 857.5,-46.25"/>
</g>
<!-- output -->
<g id="node7" class="node">
<title>output</title>
<polygon fill="#4caf50" stroke="black" points="1121.5,-60.75 1023,-60.75 1023,-24.75 1121.5,-24.75 1121.5,-60.75"/>
<text xml:space="preserve" text-anchor="middle" x="1072.25" y="-45.8" font-family="Arial" font-size="11.00" fill="white">Output Tokens</text>
<text xml:space="preserve" text-anchor="middle" x="1072.25" y="-32.3" font-family="Arial" font-size="11.00" fill="white">(Restored Order)</text>
</g>
<!-- combine&#45;&gt;output -->
<g id="edge6" class="edge">
<title>combine&#45;&gt;output</title>
<path fill="none" stroke="#4caf50" stroke-width="2" d="M965.12,-42.75C965.12,-42.75 1009.72,-42.75 1009.72,-42.75"/>
<polygon fill="#4caf50" stroke="#4caf50" stroke-width="2" points="1009.72,-46.25 1019.72,-42.75 1009.72,-39.25 1009.72,-46.25"/>
</g>
</g>
</svg>
