<?xml version="1.0" encoding="UTF-8" standalone="no"?>
<!DOCTYPE svg PUBLIC "-//W3C//DTD SVG 1.1//EN"
 "http://www.w3.org/Graphics/SVG/1.1/DTD/svg11.dtd">
<!-- Generated by graphviz version 14.1.2 (0)
 -->
<!-- Title: deep&#45;ep&#45;architecture Pages: 1 -->
<svg width="1161pt" height="382pt"
 viewBox="0.00 0.00 1161.00 382.00" xmlns="http://www.w3.org/2000/svg" xmlns:xlink="http://www.w3.org/1999/xlink">
<g id="graph0" class="graph" transform="scale(1 1) rotate(0) translate(4 378.23)">
<title>deep&#45;ep&#45;architecture</title>
<polygon fill="#0d1117" stroke="none" points="-4,4 -4,-378.23 1157.25,-378.23 1157.25,4 -4,4"/>
<!-- title -->
<g id="node1" class="node">
<title>title</title>
<text xml:space="preserve" text-anchor="middle" x="285.75" y="-349.73" font-family="Segoe UI" font-size="20.00" fill="white">DeepEP Architecture Overview</text>
</g>
<!-- moe -->
<g id="node2" class="node">
<title>moe</title>
<ellipse fill="#f78166" stroke="black" stroke-width="3" cx="554.75" cy="-240.11" rx="120.56" ry="31.11"/>
<text xml:space="preserve" text-anchor="middle" x="554.75" y="-245.76" font-family="Segoe UI" font-size="13.00" fill="white">Mixture&#45;of&#45;Experts (MoE)</text>
<text xml:space="preserve" text-anchor="middle" x="554.75" y="-227.76" font-family="Segoe UI" font-size="13.00" fill="white">Gating + Expert Parallelism</text>
</g>
<!-- normal -->
<g id="node3" class="node">
<title>normal</title>
<path fill="#161b22" stroke="#58a6ff" stroke-width="2" d="M377,-144C377,-144 278.5,-144 278.5,-144 272.5,-144 266.5,-138 266.5,-132 266.5,-132 266.5,-113.5 266.5,-113.5 266.5,-107.5 272.5,-101.5 278.5,-101.5 278.5,-101.5 377,-101.5 377,-101.5 383,-101.5 389,-107.5 389,-113.5 389,-113.5 389,-132 389,-132 389,-138 383,-144 377,-144"/>
<text xml:space="preserve" text-anchor="middle" x="327.75" y="-128.6" font-family="Segoe UI" font-size="12.00" fill="#58a6ff">Normal Kernels</text>
<text xml:space="preserve" text-anchor="middle" x="327.75" y="-111.35" font-family="Segoe UI" font-size="12.00" fill="#58a6ff">(Training / Prefilling)</text>
</g>
<!-- moe&#45;&gt;normal -->
<g id="edge9" class="edge">
<title>moe&#45;&gt;normal</title>
<path fill="none" stroke="#58a6ff" stroke-width="3" d="M504.72,-210.6C504.72,-177.99 504.72,-130 504.72,-130 504.72,-130 404.19,-130 404.19,-130"/>
<polygon fill="#58a6ff" stroke="#58a6ff" stroke-width="3" points="404.19,-126.5 394.19,-130 404.19,-133.5 404.19,-126.5"/>
</g>
<!-- lowlat -->
<g id="node8" class="node">
<title>lowlat</title>
<path fill="#161b22" stroke="#f78166" stroke-width="2" d="M831.75,-144C831.75,-144 731.75,-144 731.75,-144 725.75,-144 719.75,-138 719.75,-132 719.75,-132 719.75,-113.5 719.75,-113.5 719.75,-107.5 725.75,-101.5 731.75,-101.5 731.75,-101.5 831.75,-101.5 831.75,-101.5 837.75,-101.5 843.75,-107.5 843.75,-113.5 843.75,-113.5 843.75,-132 843.75,-132 843.75,-138 837.75,-144 831.75,-144"/>
<text xml:space="preserve" text-anchor="middle" x="781.75" y="-128.6" font-family="Segoe UI" font-size="12.00" fill="#f78166">Low&#45;Latency Kernels</text>
<text xml:space="preserve" text-anchor="middle" x="781.75" y="-111.35" font-family="Segoe UI" font-size="12.00" fill="#f78166">(Inference Decoding)</text>
</g>
<!-- moe&#45;&gt;lowlat -->
<g id="edge10" class="edge">
<title>moe&#45;&gt;lowlat</title>
<path fill="none" stroke="#f78166" stroke-width="3" d="M646.66,-218.78C646.66,-183.29 646.66,-116 646.66,-116 646.66,-116 704.41,-116 704.41,-116"/>
<polygon fill="#f78166" stroke="#f78166" stroke-width="3" points="704.41,-119.5 714.41,-116 704.41,-112.5 704.41,-119.5"/>
</g>
<!-- nvlink -->
<g id="node4" class="node">
<title>nvlink</title>
<path fill="#161b22" stroke="#58a6ff" stroke-width="1.5" d="M83.5,-36.5C83.5,-36.5 12,-36.5 12,-36.5 6,-36.5 0,-30.5 0,-24.5 0,-24.5 0,-12 0,-12 0,-6 6,0 12,0 12,0 83.5,0 83.5,0 89.5,0 95.5,-6 95.5,-12 95.5,-12 95.5,-24.5 95.5,-24.5 95.5,-30.5 89.5,-36.5 83.5,-36.5"/>
<text xml:space="preserve" text-anchor="middle" x="47.75" y="-23" font-family="Segoe UI" font-size="10.00" fill="#58a6ff">NVLink Intranode</text>
<text xml:space="preserve" text-anchor="middle" x="47.75" y="-8.75" font-family="Segoe UI" font-size="10.00" fill="#58a6ff">~153 GB/s</text>
</g>
<!-- normal&#45;&gt;nvlink -->
<g id="edge1" class="edge">
<title>normal&#45;&gt;nvlink</title>
<path fill="none" stroke="#58a6ff" stroke-width="1.5" d="M265.61,-123C183.12,-123 47.75,-123 47.75,-123 47.75,-123 47.75,-49.25 47.75,-49.25"/>
<polygon fill="#58a6ff" stroke="#58a6ff" stroke-width="1.5" points="51.25,-49.25 47.75,-39.25 44.25,-49.25 51.25,-49.25"/>
</g>
<!-- rdma_fwd -->
<g id="node5" class="node">
<title>rdma_fwd</title>
<path fill="#161b22" stroke="#58a6ff" stroke-width="1.5" d="M219,-36.5C219,-36.5 150.5,-36.5 150.5,-36.5 144.5,-36.5 138.5,-30.5 138.5,-24.5 138.5,-24.5 138.5,-12 138.5,-12 138.5,-6 144.5,0 150.5,0 150.5,0 219,0 219,0 225,0 231,-6 231,-12 231,-12 231,-24.5 231,-24.5 231,-30.5 225,-36.5 219,-36.5"/>
<text xml:space="preserve" text-anchor="middle" x="184.75" y="-23" font-family="Segoe UI" font-size="10.00" fill="#58a6ff">RDMA Internode</text>
<text xml:space="preserve" text-anchor="middle" x="184.75" y="-8.75" font-family="Segoe UI" font-size="10.00" fill="#58a6ff">~43&#45;58 GB/s</text>
</g>
<!-- normal&#45;&gt;rdma_fwd -->
<g id="edge2" class="edge">
<title>normal&#45;&gt;rdma_fwd</title>
<path fill="none" stroke="#58a6ff" stroke-width="1.5" d="M270.44,-100.54C270.44,-69.79 270.44,-18 270.44,-18 270.44,-18 243.88,-18 243.88,-18"/>
<polygon fill="#58a6ff" stroke="#58a6ff" stroke-width="1.5" points="243.88,-14.5 233.88,-18 243.88,-21.5 243.88,-14.5"/>
</g>
<!-- sm_ctrl -->
<g id="node6" class="node">
<title>sm_ctrl</title>
<path fill="#161b22" stroke="#8b949e" stroke-width="1.5" d="M369.12,-36.25C369.12,-36.25 286.38,-36.25 286.38,-36.25 280.38,-36.25 274.38,-30.25 274.38,-24.25 274.38,-24.25 274.38,-12.25 274.38,-12.25 274.38,-6.25 280.38,-0.25 286.38,-0.25 286.38,-0.25 369.12,-0.25 369.12,-0.25 375.12,-0.25 381.12,-6.25 381.12,-12.25 381.12,-12.25 381.12,-24.25 381.12,-24.25 381.12,-30.25 375.12,-36.25 369.12,-36.25"/>
<text xml:space="preserve" text-anchor="middle" x="327.75" y="-15.88" font-family="Segoe UI" font-size="10.00" fill="#8b949e">SM Number Control</text>
</g>
<!-- normal&#45;&gt;sm_ctrl -->
<g id="edge3" class="edge">
<title>normal&#45;&gt;sm_ctrl</title>
<path fill="none" stroke="#8b949e" stroke-width="1.5" d="M327.75,-100.59C327.75,-100.59 327.75,-49.16 327.75,-49.16"/>
<polygon fill="#8b949e" stroke="#8b949e" stroke-width="1.5" points="331.25,-49.16 327.75,-39.16 324.25,-49.16 331.25,-49.16"/>
</g>
<!-- fp8 -->
<g id="node7" class="node">
<title>fp8</title>
<path fill="#161b22" stroke="#3fb950" stroke-width="1.5" d="M563.25,-36.25C563.25,-36.25 436.25,-36.25 436.25,-36.25 430.25,-36.25 424.25,-30.25 424.25,-24.25 424.25,-24.25 424.25,-12.25 424.25,-12.25 424.25,-6.25 430.25,-0.25 436.25,-0.25 436.25,-0.25 563.25,-0.25 563.25,-0.25 569.25,-0.25 575.25,-6.25 575.25,-12.25 575.25,-12.25 575.25,-24.25 575.25,-24.25 575.25,-30.25 569.25,-36.25 563.25,-36.25"/>
<text xml:space="preserve" text-anchor="middle" x="499.75" y="-15.88" font-family="Segoe UI" font-size="10.00" fill="#3fb950">FP8 Dispatch + BF16 Combine</text>
</g>
<!-- normal&#45;&gt;fp8 -->
<g id="edge4" class="edge">
<title>normal&#45;&gt;fp8</title>
<path fill="none" stroke="#3fb950" stroke-width="1.5" d="M385.06,-100.54C385.06,-69.79 385.06,-18 385.06,-18 385.06,-18 411.3,-18 411.3,-18"/>
<polygon fill="#3fb950" stroke="#3fb950" stroke-width="1.5" points="411.3,-21.5 421.3,-18 411.3,-14.5 411.3,-21.5"/>
</g>
<!-- pure_rdma -->
<g id="node9" class="node">
<title>pure_rdma</title>
<path fill="#161b22" stroke="#f78166" stroke-width="1.5" d="M677.5,-36.5C677.5,-36.5 630,-36.5 630,-36.5 624,-36.5 618,-30.5 618,-24.5 618,-24.5 618,-12 618,-12 618,-6 624,0 630,0 630,0 677.5,0 677.5,0 683.5,0 689.5,-6 689.5,-12 689.5,-12 689.5,-24.5 689.5,-24.5 689.5,-30.5 683.5,-36.5 677.5,-36.5"/>
<text xml:space="preserve" text-anchor="middle" x="653.75" y="-23" font-family="Segoe UI" font-size="10.00" fill="#f78166">Pure RDMA</text>
<text xml:space="preserve" text-anchor="middle" x="653.75" y="-8.75" font-family="Segoe UI" font-size="10.00" fill="#f78166">~39&#45;98 GB/s</text>
</g>
<!-- lowlat&#45;&gt;pure_rdma -->
<g id="edge5" class="edge">
<title>lowlat&#45;&gt;pure_rdma</title>
<path fill="none" stroke="#f78166" stroke-width="1.5" d="M726.12,-100.54C726.12,-69.79 726.12,-18 726.12,-18 726.12,-18 702.21,-18 702.21,-18"/>
<polygon fill="#f78166" stroke="#f78166" stroke-width="1.5" points="702.21,-14.5 692.21,-18 702.21,-21.5 702.21,-14.5"/>
</g>
<!-- latency -->
<g id="node10" class="node">
<title>latency</title>
<path fill="#161b22" stroke="#f78166" stroke-width="1.5" d="M819,-36.25C819,-36.25 744.5,-36.25 744.5,-36.25 738.5,-36.25 732.5,-30.25 732.5,-24.25 732.5,-24.25 732.5,-12.25 732.5,-12.25 732.5,-6.25 738.5,-0.25 744.5,-0.25 744.5,-0.25 819,-0.25 819,-0.25 825,-0.25 831,-6.25 831,-12.25 831,-12.25 831,-24.25 831,-24.25 831,-30.25 825,-36.25 819,-36.25"/>
<text xml:space="preserve" text-anchor="middle" x="781.75" y="-15.88" font-family="Segoe UI" font-size="10.00" fill="#f78166">Latency: 77&#45;369 us</text>
</g>
<!-- lowlat&#45;&gt;latency -->
<g id="edge6" class="edge">
<title>lowlat&#45;&gt;latency</title>
<path fill="none" stroke="#f78166" stroke-width="1.5" d="M781.75,-100.59C781.75,-100.59 781.75,-49.16 781.75,-49.16"/>
<polygon fill="#f78166" stroke="#f78166" stroke-width="1.5" points="785.25,-49.16 781.75,-39.16 778.25,-49.16 785.25,-49.16"/>
</g>
<!-- hook -->
<g id="node11" class="node">
<title>hook</title>
<path fill="#161b22" stroke="#3fb950" stroke-width="1.5" d="M971.25,-36.5C971.25,-36.5 886.25,-36.5 886.25,-36.5 880.25,-36.5 874.25,-30.5 874.25,-24.5 874.25,-24.5 874.25,-12 874.25,-12 874.25,-6 880.25,0 886.25,0 886.25,0 971.25,0 971.25,0 977.25,0 983.25,-6 983.25,-12 983.25,-12 983.25,-24.5 983.25,-24.5 983.25,-30.5 977.25,-36.5 971.25,-36.5"/>
<text xml:space="preserve" text-anchor="middle" x="928.75" y="-23" font-family="Segoe UI" font-size="10.00" fill="#3fb950">Hook&#45;Based Overlap</text>
<text xml:space="preserve" text-anchor="middle" x="928.75" y="-8.75" font-family="Segoe UI" font-size="10.00" fill="#3fb950">Zero SM Occupation</text>
</g>
<!-- lowlat&#45;&gt;hook -->
<g id="edge7" class="edge">
<title>lowlat&#45;&gt;hook</title>
<path fill="none" stroke="#3fb950" stroke-width="1.5" d="M837.38,-100.54C837.38,-69.79 837.38,-18 837.38,-18 837.38,-18 861.48,-18 861.48,-18"/>
<polygon fill="#3fb950" stroke="#3fb950" stroke-width="1.5" points="861.48,-21.5 871.48,-18 861.48,-14.5 861.48,-21.5"/>
</g>
<!-- cuda_graph -->
<g id="node12" class="node">
<title>cuda_graph</title>
<path fill="#161b22" stroke="#a371f7" stroke-width="1.5" d="M1141.25,-36.25C1141.25,-36.25 1038.25,-36.25 1038.25,-36.25 1032.25,-36.25 1026.25,-30.25 1026.25,-24.25 1026.25,-24.25 1026.25,-12.25 1026.25,-12.25 1026.25,-6.25 1032.25,-0.25 1038.25,-0.25 1038.25,-0.25 1141.25,-0.25 1141.25,-0.25 1147.25,-0.25 1153.25,-6.25 1153.25,-12.25 1153.25,-12.25 1153.25,-24.25 1153.25,-24.25 1153.25,-30.25 1147.25,-36.25 1141.25,-36.25"/>
<text xml:space="preserve" text-anchor="middle" x="1089.75" y="-15.88" font-family="Segoe UI" font-size="10.00" fill="#a371f7">CUDA Graph Compatible</text>
</g>
<!-- lowlat&#45;&gt;cuda_graph -->
<g id="edge8" class="edge">
<title>lowlat&#45;&gt;cuda_graph</title>
<path fill="none" stroke="#a371f7" stroke-width="1.5" d="M844.45,-123C934.5,-123 1089.75,-123 1089.75,-123 1089.75,-123 1089.75,-49.25 1089.75,-49.25"/>
<polygon fill="#a371f7" stroke="#a371f7" stroke-width="1.5" points="1093.25,-49.25 1089.75,-39.25 1086.25,-49.25 1093.25,-49.25"/>
</g>
<!-- hw -->
<g id="node13" class="node">
<title>hw</title>
<path fill="#a371f7" stroke="black" stroke-width="2" d="M628,-374.23C628,-374.23 481.5,-374.23 481.5,-374.23 475.5,-374.23 469.5,-368.23 469.5,-362.23 469.5,-362.23 469.5,-348.23 469.5,-348.23 469.5,-342.23 475.5,-336.23 481.5,-336.23 481.5,-336.23 628,-336.23 628,-336.23 634,-336.23 640,-342.23 640,-348.23 640,-348.23 640,-362.23 640,-362.23 640,-368.23 634,-374.23 628,-374.23"/>
<text xml:space="preserve" text-anchor="middle" x="554.75" y="-359.78" font-family="Segoe UI" font-size="11.00" fill="white">Hardware: H800 (Hopper SM90)</text>
<text xml:space="preserve" text-anchor="middle" x="554.75" y="-344.78" font-family="Segoe UI" font-size="11.00" fill="white">CX7 InfiniBand 400 Gb/s</text>
</g>
<!-- hw&#45;&gt;moe -->
<g id="edge11" class="edge">
<title>hw&#45;&gt;moe</title>
<path fill="none" stroke="#a371f7" stroke-width="2" stroke-dasharray="5,2" d="M554.75,-335.44C554.75,-335.44 554.75,-285.72 554.75,-285.72"/>
<polygon fill="#a371f7" stroke="#a371f7" stroke-width="2" points="558.25,-285.72 554.75,-275.72 551.25,-285.72 558.25,-285.72"/>
</g>
</g>
</svg>
