<?xml version="1.0" encoding="UTF-8" standalone="no"?>
<!DOCTYPE svg PUBLIC "-//W3C//DTD SVG 1.1//EN"
 "http://www.w3.org/Graphics/SVG/1.1/DTD/svg11.dtd">
<!-- Generated by graphviz version 14.1.2 (0)
 -->
<!-- Title: deep&#45;ep&#45;architecture Pages: 1 -->
<svg width="780pt" height="301pt"
 viewBox="0.00 0.00 780.00 301.00" xmlns="http://www.w3.org/2000/svg" xmlns:xlink="http://www.w3.org/1999/xlink">
<style>
<!-- White text halo for edge label readability -->
text { paint-order: stroke; stroke: #ffffff; stroke-width: 3px; stroke-linejoin: round; fill: #1a1a2e; }
</style>
<g id="graph0" class="graph" transform="scale(1 1) rotate(0) translate(4 296.74)">
<title>deep&#45;ep&#45;architecture</title>
<polygon fill="white" stroke="none" points="-4,4 -4,-296.74 775.75,-296.74 775.75,4 -4,4"/>
<text xml:space="preserve" text-anchor="middle" x="385.88" y="-7.2" font-family="Times New Roman,serif" font-size="14.00">DeepEP Architecture Overview</text>
<!-- moe -->
<g id="node1" class="node">
<title>moe</title>
<ellipse fill="#ff9800" stroke="black" cx="391.88" cy="-265.87" rx="133.82" ry="26.87"/>
<text xml:space="preserve" text-anchor="middle" x="391.88" y="-268.52" font-family="Arial Bold" font-size="13.00" fill="white">Mixture&#45;of&#45;Experts (MoE)</text>
<text xml:space="preserve" text-anchor="middle" x="391.88" y="-253.52" font-family="Arial Bold" font-size="13.00" fill="white">Gating + Expert Parallelism</text>
</g>
<!-- normal -->
<g id="node2" class="node">
<title>normal</title>
<path fill="#2196f3" stroke="black" d="M364.5,-181C364.5,-181 259.25,-181 259.25,-181 253.25,-181 247.25,-175 247.25,-169 247.25,-169 247.25,-156.5 247.25,-156.5 247.25,-150.5 253.25,-144.5 259.25,-144.5 259.25,-144.5 364.5,-144.5 364.5,-144.5 370.5,-144.5 376.5,-150.5 376.5,-156.5 376.5,-156.5 376.5,-169 376.5,-169 376.5,-175 370.5,-181 364.5,-181"/>
<text xml:space="preserve" text-anchor="middle" x="311.88" y="-165.6" font-family="Arial Bold" font-size="12.00" fill="white">Normal Kernels</text>
<text xml:space="preserve" text-anchor="middle" x="311.88" y="-151.35" font-family="Arial Bold" font-size="12.00" fill="white">(Training / Prefilling)</text>
</g>
<!-- moe&#45;&gt;normal -->
<g id="edge1" class="edge">
<title>moe&#45;&gt;normal</title>
<path fill="none" stroke="#2196f3" stroke-width="2" d="M317.28,-243.24C317.28,-243.24 317.28,-194.23 317.28,-194.23"/>
<polygon fill="#2196f3" stroke="#2196f3" stroke-width="2" points="320.78,-194.23 317.28,-184.23 313.78,-194.23 320.78,-194.23"/>
</g>
<!-- lowlat -->
<g id="node3" class="node">
<title>lowlat</title>
<path fill="#ff9800" stroke="black" d="M588.5,-180.75C588.5,-180.75 495.25,-180.75 495.25,-180.75 489.25,-180.75 483.25,-174.75 483.25,-168.75 483.25,-168.75 483.25,-156.75 483.25,-156.75 483.25,-150.75 489.25,-144.75 495.25,-144.75 495.25,-144.75 588.5,-144.75 588.5,-144.75 594.5,-144.75 600.5,-150.75 600.5,-156.75 600.5,-156.75 600.5,-168.75 600.5,-168.75 600.5,-174.75 594.5,-180.75 588.5,-180.75"/>
<text xml:space="preserve" text-anchor="middle" x="541.88" y="-165.8" font-family="Arial" font-size="11.00" fill="white">Low&#45;Latency Kernels</text>
<text xml:space="preserve" text-anchor="middle" x="541.88" y="-152.3" font-family="Arial" font-size="11.00" fill="white">(Inference Decoding)</text>
</g>
<!-- moe&#45;&gt;lowlat -->
<g id="edge2" class="edge">
<title>moe&#45;&gt;lowlat</title>
<path fill="none" stroke="#ff9800" stroke-width="2" d="M504.47,-251.1C504.47,-251.1 504.47,-194 504.47,-194"/>
<polygon fill="#ff9800" stroke="#ff9800" stroke-width="2" points="507.97,-194 504.47,-184 500.97,-194 507.97,-194"/>
</g>
<!-- nvlink -->
<g id="node4" class="node">
<title>nvlink</title>
<path fill="#9c27b0" stroke="black" d="M55.75,-79.75C55.75,-79.75 12,-79.75 12,-79.75 6,-79.75 0,-73.75 0,-67.75 0,-67.75 0,-43.25 0,-43.25 0,-37.25 6,-31.25 12,-31.25 12,-31.25 55.75,-31.25 55.75,-31.25 61.75,-31.25 67.75,-37.25 67.75,-43.25 67.75,-43.25 67.75,-67.75 67.75,-67.75 67.75,-73.75 61.75,-79.75 55.75,-79.75"/>
<text xml:space="preserve" text-anchor="middle" x="33.88" y="-65.3" font-family="Arial" font-size="11.00" fill="white">NVLink</text>
<text xml:space="preserve" text-anchor="middle" x="33.88" y="-51.8" font-family="Arial" font-size="11.00" fill="white">Intranode</text>
<text xml:space="preserve" text-anchor="middle" x="33.88" y="-38.3" font-family="Arial" font-size="11.00" fill="white">~160 GB/s</text>
</g>
<!-- normal&#45;&gt;nvlink -->
<g id="edge3" class="edge">
<title>normal&#45;&gt;nvlink</title>
<path fill="none" stroke="#9c27b0" stroke-width="2" d="M247.05,-168.5C164.9,-168.5 33.88,-168.5 33.88,-168.5 33.88,-168.5 33.88,-93.05 33.88,-93.05"/>
<polygon fill="#9c27b0" stroke="#9c27b0" stroke-width="2" points="37.38,-93.05 33.88,-83.05 30.38,-93.05 37.38,-93.05"/>
<text xml:space="preserve" text-anchor="middle" x="77.23" y="-171.7" font-family="Times New Roman,serif" font-size="14.00">intranode</text>
</g>
<!-- rdma -->
<g id="node5" class="node">
<title>rdma</title>
<path fill="#9c27b0" stroke="black" d="M512.38,-86.5C512.38,-86.5 433.38,-86.5 433.38,-86.5 427.38,-86.5 421.38,-80.5 421.38,-74.5 421.38,-74.5 421.38,-36.5 421.38,-36.5 421.38,-30.5 427.38,-24.5 433.38,-24.5 433.38,-24.5 512.38,-24.5 512.38,-24.5 518.38,-24.5 524.38,-30.5 524.38,-36.5 524.38,-36.5 524.38,-74.5 524.38,-74.5 524.38,-80.5 518.38,-86.5 512.38,-86.5"/>
<text xml:space="preserve" text-anchor="middle" x="472.88" y="-72.05" font-family="Arial" font-size="11.00" fill="white">RDMA</text>
<text xml:space="preserve" text-anchor="middle" x="472.88" y="-58.55" font-family="Arial" font-size="11.00" fill="white">InfiniBand / RoCE</text>
<text xml:space="preserve" text-anchor="middle" x="472.88" y="-45.05" font-family="Arial" font-size="11.00" fill="white">Internode</text>
<text xml:space="preserve" text-anchor="middle" x="472.88" y="-31.55" font-family="Arial" font-size="11.00" fill="white">~50 GB/s</text>
</g>
<!-- normal&#45;&gt;rdma -->
<g id="edge4" class="edge">
<title>normal&#45;&gt;rdma</title>
<path fill="none" stroke="#9c27b0" stroke-width="2" d="M376.75,-162.5C413.55,-162.5 452.31,-162.5 452.31,-162.5 452.31,-162.5 452.31,-99.76 452.31,-99.76"/>
<polygon fill="#9c27b0" stroke="#9c27b0" stroke-width="2" points="455.81,-99.76 452.31,-89.76 448.81,-99.76 455.81,-99.76"/>
<text xml:space="preserve" text-anchor="middle" x="420.4" y="-165.7" font-family="Times New Roman,serif" font-size="14.00">internode</text>
</g>
<!-- fp8 -->
<g id="node6" class="node">
<title>fp8</title>
<polygon fill="#4caf50" stroke="black" points="202.12,-73.5 103.62,-73.5 103.62,-37.5 202.12,-37.5 202.12,-73.5"/>
<text xml:space="preserve" text-anchor="middle" x="152.88" y="-58.55" font-family="Arial" font-size="11.00" fill="white">FP8 Dispatch</text>
<text xml:space="preserve" text-anchor="middle" x="152.88" y="-45.05" font-family="Arial" font-size="11.00" fill="white">+ BF16 Combine</text>
</g>
<!-- normal&#45;&gt;fp8 -->
<g id="edge5" class="edge">
<title>normal&#45;&gt;fp8</title>
<path fill="none" stroke="#4caf50" stroke-width="2" d="M247.2,-156.5C203.18,-156.5 152.88,-156.5 152.88,-156.5 152.88,-156.5 152.88,-86.58 152.88,-86.58"/>
<polygon fill="#4caf50" stroke="#4caf50" stroke-width="2" points="156.38,-86.58 152.88,-76.58 149.38,-86.58 156.38,-86.58"/>
</g>
<!-- sm -->
<g id="node7" class="node">
<title>sm</title>
<path fill="#2196f3" stroke="black" d="M373.5,-73.75C373.5,-73.75 250.25,-73.75 250.25,-73.75 244.25,-73.75 238.25,-67.75 238.25,-61.75 238.25,-61.75 238.25,-49.25 238.25,-49.25 238.25,-43.25 244.25,-37.25 250.25,-37.25 250.25,-37.25 373.5,-37.25 373.5,-37.25 379.5,-37.25 385.5,-43.25 385.5,-49.25 385.5,-49.25 385.5,-61.75 385.5,-61.75 385.5,-67.75 379.5,-73.75 373.5,-73.75"/>
<text xml:space="preserve" text-anchor="middle" x="311.88" y="-58.35" font-family="Arial Bold" font-size="12.00" fill="white">SM Number Control</text>
<text xml:space="preserve" text-anchor="middle" x="311.88" y="-44.1" font-family="Arial Bold" font-size="12.00" fill="white">Fine&#45;grained SM usage</text>
</g>
<!-- normal&#45;&gt;sm -->
<g id="edge6" class="edge">
<title>normal&#45;&gt;sm</title>
<path fill="none" stroke="#2196f3" stroke-width="2" d="M311.88,-144.07C311.88,-144.07 311.88,-86.99 311.88,-86.99"/>
<polygon fill="#2196f3" stroke="#2196f3" stroke-width="2" points="315.38,-86.99 311.88,-76.99 308.38,-86.99 315.38,-86.99"/>
</g>
<!-- lowlat&#45;&gt;rdma -->
<g id="edge7" class="edge">
<title>lowlat&#45;&gt;rdma</title>
<path fill="none" stroke="#ff9800" stroke-width="2" d="M503.81,-144.56C503.81,-144.56 503.81,-99.86 503.81,-99.86"/>
<polygon fill="#ff9800" stroke="#ff9800" stroke-width="2" points="507.31,-99.86 503.81,-89.86 500.31,-99.86 507.31,-99.86"/>
<text xml:space="preserve" text-anchor="middle" x="469.31" y="-125.41" font-family="Times New Roman,serif" font-size="14.00">pure RDMA</text>
</g>
<!-- zero_sm -->
<g id="node8" class="node">
<title>zero_sm</title>
<path fill="#4caf50" stroke="black" d="M649.62,-73.5C649.62,-73.5 572.12,-73.5 572.12,-73.5 566.12,-73.5 560.12,-67.5 560.12,-61.5 560.12,-61.5 560.12,-49.5 560.12,-49.5 560.12,-43.5 566.12,-37.5 572.12,-37.5 572.12,-37.5 649.62,-37.5 649.62,-37.5 655.62,-37.5 661.62,-43.5 661.62,-49.5 661.62,-49.5 661.62,-61.5 661.62,-61.5 661.62,-67.5 655.62,-73.5 649.62,-73.5"/>
<text xml:space="preserve" text-anchor="middle" x="610.88" y="-58" font-family="Arial" font-size="10.00" fill="white">Zero SM Overlap</text>
<text xml:space="preserve" text-anchor="middle" x="610.88" y="-46" font-family="Arial" font-size="10.00" fill="white">Hook&#45;based RDMA</text>
</g>
<!-- lowlat&#45;&gt;zero_sm -->
<g id="edge8" class="edge">
<title>lowlat&#45;&gt;zero_sm</title>
<path fill="none" stroke="#4caf50" stroke-width="2" d="M580.31,-144.56C580.31,-144.56 580.31,-86.81 580.31,-86.81"/>
<polygon fill="#4caf50" stroke="#4caf50" stroke-width="2" points="583.81,-86.81 580.31,-76.81 576.81,-86.81 583.81,-86.81"/>
</g>
<!-- cuda_graph -->
<g id="node9" class="node">
<title>cuda_graph</title>
<path fill="#4caf50" stroke="black" d="M759.75,-73.5C759.75,-73.5 710,-73.5 710,-73.5 704,-73.5 698,-67.5 698,-61.5 698,-61.5 698,-49.5 698,-49.5 698,-43.5 704,-37.5 710,-37.5 710,-37.5 759.75,-37.5 759.75,-37.5 765.75,-37.5 771.75,-43.5 771.75,-49.5 771.75,-49.5 771.75,-61.5 771.75,-61.5 771.75,-67.5 765.75,-73.5 759.75,-73.5"/>
<text xml:space="preserve" text-anchor="middle" x="734.88" y="-58" font-family="Arial" font-size="10.00" fill="white">CUDA Graph</text>
<text xml:space="preserve" text-anchor="middle" x="734.88" y="-46" font-family="Arial" font-size="10.00" fill="white">Compatible</text>
</g>
<!-- lowlat&#45;&gt;cuda_graph -->
<g id="edge9" class="edge">
<title>lowlat&#45;&gt;cuda_graph</title>
<path fill="none" stroke="#4caf50" stroke-width="2" d="M600.83,-162.5C657.59,-162.5 734.88,-162.5 734.88,-162.5 734.88,-162.5 734.88,-86.68 734.88,-86.68"/>
<polygon fill="#4caf50" stroke="#4caf50" stroke-width="2" points="738.38,-86.68 734.88,-76.68 731.38,-86.68 738.38,-86.68"/>
</g>
</g>
</svg>
