<?xml version="1.0" encoding="UTF-8" standalone="no"?>
<!DOCTYPE svg PUBLIC "-//W3C//DTD SVG 1.1//EN"
 "http://www.w3.org/Graphics/SVG/1.1/DTD/svg11.dtd">
<!-- Generated by graphviz version 14.1.4 (20260321.0153)
 -->
<!-- Title: java_conc Pages: 1 -->
<svg width="582pt" height="388pt"
 viewBox="0.00 0.00 582.00 388.00" xmlns="http://www.w3.org/2000/svg" xmlns:xlink="http://www.w3.org/1999/xlink">
<style>
text { paint-order: stroke; stroke: #ffffff; stroke-width: 3px; stroke-linejoin: round; fill: #1a1a2e; }
</style>
<g id="graph0" class="graph" transform="scale(1 1) rotate(0) translate(4 383.5)">
<title>java_conc</title>
<polygon fill="white" stroke="none" points="-4,4 -4,-383.5 577.75,-383.5 577.75,4 -4,4"/>
<text xml:space="preserve" text-anchor="middle" x="286.88" y="-7.2" font-family="Times New Roman,serif" font-size="14.00">Java Concurrency &#45; Threads to Virtual Threads</text>
<!-- title -->
<g id="node1" class="node">
<title>title</title>
<path fill="#1565c0" stroke="black" d="M323.38,-379.5C323.38,-379.5 214.38,-379.5 214.38,-379.5 208.38,-379.5 202.38,-373.5 202.38,-367.5 202.38,-367.5 202.38,-355.5 202.38,-355.5 202.38,-349.5 208.38,-343.5 214.38,-343.5 214.38,-343.5 323.38,-343.5 323.38,-343.5 329.38,-343.5 335.38,-349.5 335.38,-355.5 335.38,-355.5 335.38,-367.5 335.38,-367.5 335.38,-373.5 329.38,-379.5 323.38,-379.5"/>
<text xml:space="preserve" text-anchor="middle" x="268.88" y="-356.07" font-family="Arial Bold" font-size="14.00" fill="#ffffff">Java Concurrency</text>
</g>
<!-- job -->
<g id="node2" class="node">
<title>job</title>
<polygon fill="#ff9800" stroke="black" points="268.88,-285.5 181.28,-267.5 268.87,-249.5 356.47,-267.5 268.88,-285.5"/>
<text xml:space="preserve" text-anchor="middle" x="268.88" y="-264" font-family="Arial Bold" font-size="10.00" fill="#ffffff">What kind of task?</text>
</g>
<!-- title&#45;&gt;job -->
<g id="edge1" class="edge">
<title>title&#45;&gt;job</title>
<path fill="none" stroke="#2196f3" stroke-width="2" d="M268.88,-343.38C268.88,-343.38 268.88,-298.92 268.88,-298.92"/>
<polygon fill="#2196f3" stroke="#2196f3" stroke-width="2" points="272.38,-298.92 268.88,-288.92 265.38,-298.92 272.38,-298.92"/>
</g>
<!-- vt -->
<g id="node3" class="node">
<title>vt</title>
<path fill="#2196f3" stroke="black" d="M337.62,-191.5C337.62,-191.5 200.12,-191.5 200.12,-191.5 194.12,-191.5 188.12,-185.5 188.12,-179.5 188.12,-179.5 188.12,-138.5 188.12,-138.5 188.12,-132.5 194.12,-126.5 200.12,-126.5 200.12,-126.5 337.62,-126.5 337.62,-126.5 343.62,-126.5 349.62,-132.5 349.62,-138.5 349.62,-138.5 349.62,-179.5 349.62,-179.5 349.62,-185.5 343.62,-191.5 337.62,-191.5"/>
<text xml:space="preserve" text-anchor="middle" x="268.88" y="-176.1" font-family="Arial Bold" font-size="12.00" fill="#ffffff">Virtual Threads (21+)</text>
<text xml:space="preserve" text-anchor="middle" x="268.88" y="-161.85" font-family="Arial Bold" font-size="12.00" fill="#ffffff">Project Loom</text>
<text xml:space="preserve" text-anchor="middle" x="268.88" y="-147.6" font-family="Arial Bold" font-size="12.00" fill="#ffffff">I/O&#45;bound, millions cheap</text>
<text xml:space="preserve" text-anchor="middle" x="268.88" y="-133.35" font-family="Arial Bold" font-size="12.00" fill="#ffffff">Thread.startVirtualThread</text>
</g>
<!-- job&#45;&gt;vt -->
<g id="edge2" class="edge">
<title>job&#45;&gt;vt</title>
<path fill="none" stroke="#4caf50" stroke-width="2" d="M268.88,-249.09C268.88,-249.09 268.88,-204.59 268.88,-204.59"/>
<polygon fill="#4caf50" stroke="#4caf50" stroke-width="2" points="272.38,-204.59 268.88,-194.59 265.38,-204.59 272.38,-204.59"/>
<text xml:space="preserve" text-anchor="middle" x="240.75" y="-230.04" font-family="Times New Roman,serif" font-size="14.00">I/O, many</text>
</g>
<!-- ex -->
<g id="node4" class="node">
<title>ex</title>
<path fill="#2196f3" stroke="black" d="M139.75,-184.38C139.75,-184.38 12,-184.38 12,-184.38 6,-184.38 0,-178.38 0,-172.38 0,-172.38 0,-145.62 0,-145.62 0,-139.62 6,-133.62 12,-133.62 12,-133.62 139.75,-133.62 139.75,-133.62 145.75,-133.62 151.75,-139.62 151.75,-145.62 151.75,-145.62 151.75,-172.38 151.75,-172.38 151.75,-178.38 145.75,-184.38 139.75,-184.38"/>
<text xml:space="preserve" text-anchor="middle" x="75.88" y="-168.97" font-family="Arial Bold" font-size="12.00" fill="#ffffff">ExecutorService</text>
<text xml:space="preserve" text-anchor="middle" x="75.88" y="-154.72" font-family="Arial Bold" font-size="12.00" fill="#ffffff">fixed/cached/scheduled</text>
<text xml:space="preserve" text-anchor="middle" x="75.88" y="-140.47" font-family="Arial Bold" font-size="12.00" fill="#ffffff">thread pool, Future</text>
</g>
<!-- job&#45;&gt;ex -->
<g id="edge3" class="edge">
<title>job&#45;&gt;ex</title>
<path fill="none" stroke="#00bcd4" stroke-width="2" d="M178.87,-267.5C128.56,-267.5 75.88,-267.5 75.88,-267.5 75.88,-267.5 75.88,-197.74 75.88,-197.74"/>
<polygon fill="#00bcd4" stroke="#00bcd4" stroke-width="2" points="79.38,-197.74 75.88,-187.74 72.38,-197.74 79.38,-197.74"/>
<text xml:space="preserve" text-anchor="middle" x="57.24" y="-270.7" font-family="Times New Roman,serif" font-size="14.00">CPU, pooled</text>
</g>
<!-- cf -->
<g id="node5" class="node">
<title>cf</title>
<path fill="#2196f3" stroke="black" d="M561.75,-184.38C561.75,-184.38 398,-184.38 398,-184.38 392,-184.38 386,-178.38 386,-172.38 386,-172.38 386,-145.62 386,-145.62 386,-139.62 392,-133.62 398,-133.62 398,-133.62 561.75,-133.62 561.75,-133.62 567.75,-133.62 573.75,-139.62 573.75,-145.62 573.75,-145.62 573.75,-172.38 573.75,-172.38 573.75,-178.38 567.75,-184.38 561.75,-184.38"/>
<text xml:space="preserve" text-anchor="middle" x="479.88" y="-168.97" font-family="Arial Bold" font-size="12.00" fill="#ffffff">CompletableFuture</text>
<text xml:space="preserve" text-anchor="middle" x="479.88" y="-154.72" font-family="Arial Bold" font-size="12.00" fill="#ffffff">async pipeline</text>
<text xml:space="preserve" text-anchor="middle" x="479.88" y="-140.47" font-family="Arial Bold" font-size="12.00" fill="#ffffff">thenApply/thenCompose/allOf</text>
</g>
<!-- job&#45;&gt;cf -->
<g id="edge4" class="edge">
<title>job&#45;&gt;cf</title>
<path fill="none" stroke="#ff9800" stroke-width="2" d="M358.66,-267.5C416.09,-267.5 479.88,-267.5 479.88,-267.5 479.88,-267.5 479.88,-197.74 479.88,-197.74"/>
<polygon fill="#ff9800" stroke="#ff9800" stroke-width="2" points="483.38,-197.74 479.88,-187.74 476.38,-197.74 483.38,-197.74"/>
<text xml:space="preserve" text-anchor="middle" x="422.27" y="-270.7" font-family="Times New Roman,serif" font-size="14.00">async chain</text>
</g>
<!-- locks -->
<g id="node6" class="node">
<title>locks</title>
<path fill="#bbdefb" stroke="black" d="M156.88,-68.5C156.88,-68.5 20.88,-68.5 20.88,-68.5 14.88,-68.5 8.88,-62.5 8.88,-56.5 8.88,-56.5 8.88,-36.5 8.88,-36.5 8.88,-30.5 14.88,-24.5 20.88,-24.5 20.88,-24.5 156.88,-24.5 156.88,-24.5 162.88,-24.5 168.88,-30.5 168.88,-36.5 168.88,-36.5 168.88,-56.5 168.88,-56.5 168.88,-62.5 162.88,-68.5 156.88,-68.5"/>
<text xml:space="preserve" text-anchor="middle" x="88.88" y="-55" font-family="Arial" font-size="10.00" fill="#1a1a2e">Low&#45;level</text>
<text xml:space="preserve" text-anchor="middle" x="88.88" y="-43" font-family="Arial" font-size="10.00" fill="#1a1a2e">synchronized / ReentrantLock</text>
<text xml:space="preserve" text-anchor="middle" x="88.88" y="-31" font-family="Arial" font-size="10.00" fill="#1a1a2e">Atomic*, volatile, ConcurrentMap</text>
</g>
<!-- vt&#45;&gt;locks -->
<g id="edge6" class="edge">
<title>vt&#45;&gt;locks</title>
<path fill="none" stroke="#9c27b0" stroke-width="1.5" stroke-dasharray="5,2" d="M187.71,-130.5C172,-130.5 160.31,-130.5 160.31,-130.5 160.31,-130.5 160.31,-80.84 160.31,-80.84"/>
<polygon fill="#9c27b0" stroke="#9c27b0" stroke-width="1.5" points="163.81,-80.84 160.31,-70.84 156.81,-80.84 163.81,-80.84"/>
</g>
<!-- out -->
<g id="node7" class="node">
<title>out</title>
<polygon fill="#ff9800" stroke="black" points="320.75,-64.5 217,-64.5 217,-28.5 320.75,-28.5 320.75,-64.5"/>
<text xml:space="preserve" text-anchor="middle" x="268.88" y="-42.8" font-family="Arial" font-size="11.00" fill="#ffffff">Thread&#45;safe result</text>
</g>
<!-- vt&#45;&gt;out -->
<g id="edge7" class="edge">
<title>vt&#45;&gt;out</title>
<path fill="none" stroke="#4caf50" stroke-width="2" d="M268.88,-126.16C268.88,-126.16 268.88,-77.87 268.88,-77.87"/>
<polygon fill="#4caf50" stroke="#4caf50" stroke-width="2" points="272.38,-77.87 268.88,-67.87 265.38,-77.87 272.38,-77.87"/>
</g>
<!-- ex&#45;&gt;locks -->
<g id="edge5" class="edge">
<title>ex&#45;&gt;locks</title>
<path fill="none" stroke="#9c27b0" stroke-width="1.5" stroke-dasharray="5,2" d="M80.31,-133.19C80.31,-133.19 80.31,-81.04 80.31,-81.04"/>
<polygon fill="#9c27b0" stroke="#9c27b0" stroke-width="1.5" points="83.81,-81.04 80.31,-71.04 76.81,-81.04 83.81,-81.04"/>
</g>
<!-- ex&#45;&gt;out -->
<g id="edge8" class="edge">
<title>ex&#45;&gt;out</title>
<path fill="none" stroke="#00bcd4" stroke-width="2" d="M152.07,-159.5C165.39,-159.5 175.08,-159.5 175.08,-159.5 175.08,-159.5 175.08,-46.5 175.08,-46.5 175.08,-46.5 203.74,-46.5 203.74,-46.5"/>
<polygon fill="#00bcd4" stroke="#00bcd4" stroke-width="2" points="203.74,-50 213.74,-46.5 203.74,-43 203.74,-50"/>
</g>
<!-- cf&#45;&gt;out -->
<g id="edge9" class="edge">
<title>cf&#45;&gt;out</title>
<path fill="none" stroke="#ff9800" stroke-width="2" d="M479.88,-133.19C479.88,-99.98 479.88,-46.5 479.88,-46.5 479.88,-46.5 334.06,-46.5 334.06,-46.5"/>
<polygon fill="#ff9800" stroke="#ff9800" stroke-width="2" points="334.06,-43 324.06,-46.5 334.06,-50 334.06,-43"/>
</g>
</g>
</svg>
