<?xml version="1.0" encoding="UTF-8" standalone="no"?>
<!DOCTYPE svg PUBLIC "-//W3C//DTD SVG 1.1//EN"
 "http://www.w3.org/Graphics/SVG/1.1/DTD/svg11.dtd">
<!-- Generated by graphviz version 14.1.4 (20260321.0153)
 -->
<!-- Title: d2_skill Pages: 1 -->
<svg width="1798pt" height="761pt"
 viewBox="0.00 0.00 1798.00 761.00" xmlns="http://www.w3.org/2000/svg" xmlns:xlink="http://www.w3.org/1999/xlink">
<g id="graph0" class="graph" transform="scale(1.52778 1.52778) rotate(0) translate(28.8 469.3)">
<title>d2_skill</title>
<polygon fill="#ffffff" stroke="none" points="-28.8,28.8 -28.8,-469.3 1147.8,-469.3 1147.8,28.8 -28.8,28.8"/>
<!-- user -->
<g id="node1" class="node">
<title>user</title>
<polygon fill="#fef3c7" stroke="#d97706" stroke-width="2" points="644.38,-434.5 459.62,-434.5 459.62,-410 644.38,-410 656.38,-422.25 644.38,-434.5"/>
<text xml:space="preserve" text-anchor="middle" x="558" y="-425.1" font-family="Helvetica,sans-Serif" font-size="12.00">{ User Request | &quot;add unit tests for</text>
<text xml:space="preserve" text-anchor="middle" x="558" y="-410.85" font-family="Helvetica,sans-Serif" font-size="12.00">OrderProcessor class&quot; }</text>
</g>
<!-- router -->
<g id="node2" class="node">
<title>router</title>
<path fill="#512bd4" stroke="#3b1f8e" stroke-width="2.5" d="M487.38,-258C487.38,-258 628.62,-258 628.62,-258 634.62,-258 640.62,-264 640.62,-270 640.62,-270 640.62,-355.5 640.62,-355.5 640.62,-361.5 634.62,-367.5 628.62,-367.5 628.62,-367.5 487.38,-367.5 487.38,-367.5 481.38,-367.5 475.38,-361.5 475.38,-355.5 475.38,-355.5 475.38,-270 475.38,-270 475.38,-264 481.38,-258 487.38,-258"/>
<text xml:space="preserve" text-anchor="middle" x="558" y="-352.1" font-family="Helvetica,sans-Serif" font-size="12.00" fill="#ffffff">Agent Runtime</text>
<polyline fill="none" stroke="#3b1f8e" stroke-width="2.5" points="475.38,-345.25 640.62,-345.25"/>
<text xml:space="preserve" text-anchor="middle" x="558" y="-329.85" font-family="Helvetica,sans-Serif" font-size="12.00" fill="#ffffff">Description Router</text>
<polyline fill="none" stroke="#3b1f8e" stroke-width="2.5" points="475.38,-323 640.62,-323"/>
<text xml:space="preserve" text-anchor="middle" x="558" y="-307.6" font-family="Helvetica,sans-Serif" font-size="12.00" fill="#ffffff">Reads all SKILL.md</text>
<text xml:space="preserve" text-anchor="middle" x="558" y="-293.35" font-family="Helvetica,sans-Serif" font-size="12.00" fill="#ffffff">frontmatter descriptions</text>
<text xml:space="preserve" text-anchor="middle" x="558" y="-279.1" font-family="Helvetica,sans-Serif" font-size="12.00" fill="#ffffff">Semantically matches intent</text>
<text xml:space="preserve" text-anchor="middle" x="558" y="-264.85" font-family="Helvetica,sans-Serif" font-size="12.00" fill="#ffffff">to best skill</text>
</g>
<!-- user&#45;&gt;router -->
<g id="edge1" class="edge">
<title>user&#45;&gt;router</title>
<path fill="none" stroke="#512bd4" stroke-width="2.3" d="M558,-403.18C558,-403.18 558,-381.78 558,-381.78"/>
<polygon fill="#512bd4" stroke="#512bd4" stroke-width="2.3" points="561.5,-381.78 558,-371.78 554.5,-381.78 561.5,-381.78"/>
<text xml:space="preserve" text-anchor="middle" x="541.12" y="-394.98" font-family="Helvetica,sans-Serif" font-size="10.00">classify</text>
</g>
<!-- skill_file -->
<g id="node3" class="node">
<title>skill_file</title>
<path fill="#ede9fe" stroke="#7c3aed" stroke-width="2" d="M12,-121C12,-121 208,-121 208,-121 214,-121 220,-127 220,-133 220,-133 220,-209 220,-209 220,-215 214,-221 208,-221 208,-221 12,-221 12,-221 6,-221 0,-215 0,-209 0,-209 0,-133 0,-133 0,-127 6,-121 12,-121"/>
<text xml:space="preserve" text-anchor="middle" x="110" y="-207.5" font-family="Helvetica,sans-Serif" font-size="10.00">SKILL.md (code&#45;testing&#45;agent)</text>
<polyline fill="none" stroke="#7c3aed" stroke-width="2" points="0,-201 220,-201"/>
<text xml:space="preserve" text-anchor="middle" x="110" y="-187.5" font-family="Helvetica,sans-Serif" font-size="10.00">YAML Frontmatter: name, description, license</text>
<polyline fill="none" stroke="#7c3aed" stroke-width="2" points="0,-181 220,-181"/>
<text xml:space="preserve" text-anchor="middle" x="110" y="-167.5" font-family="Helvetica,sans-Serif" font-size="10.00">Markdown Body: When to Use / Not to Use</text>
<polyline fill="none" stroke="#7c3aed" stroke-width="2" points="0,-161 220,-161"/>
<text xml:space="preserve" text-anchor="middle" x="110" y="-147.5" font-family="Helvetica,sans-Serif" font-size="10.00">Pipeline Overview: Research, Plan, Implement</text>
<polyline fill="none" stroke="#7c3aed" stroke-width="2" points="0,-141 220,-141"/>
<text xml:space="preserve" text-anchor="middle" x="110" y="-127.5" font-family="Helvetica,sans-Serif" font-size="10.00">Scope classification: Broad vs Focused</text>
</g>
<!-- router&#45;&gt;skill_file -->
<g id="edge2" class="edge">
<title>router&#45;&gt;skill_file</title>
<path fill="none" stroke="#7c3aed" stroke-width="2" d="M497.58,-256.86C497.58,-232.77 497.58,-210 497.58,-210 497.58,-210 233.83,-210 233.83,-210"/>
<polygon fill="#7c3aed" stroke="#7c3aed" stroke-width="2" points="233.83,-206.5 223.83,-210 233.83,-213.5 233.83,-206.5"/>
<text xml:space="preserve" text-anchor="middle" x="377.52" y="-212.5" font-family="Helvetica,sans-Serif" font-size="10.00">loads</text>
</g>
<!-- r1 -->
<g id="node4" class="node">
<title>r1</title>
<path fill="#f0fdf4" stroke="#15803d" stroke-width="1.5" d="M256.62,-145C256.62,-145 351.38,-145 351.38,-145 357.38,-145 363.38,-151 363.38,-157 363.38,-157 363.38,-185 363.38,-185 363.38,-191 357.38,-197 351.38,-197 351.38,-197 256.62,-197 256.62,-197 250.62,-197 244.62,-191 244.62,-185 244.62,-185 244.62,-157 244.62,-157 244.62,-151 250.62,-145 256.62,-145"/>
<text xml:space="preserve" text-anchor="middle" x="304" y="-183.5" font-family="Helvetica,sans-Serif" font-size="10.00">dotnet test &#45;&#45;filter</text>
<polyline fill="none" stroke="#15803d" stroke-width="1.5" points="244.62,-177 363.38,-177"/>
<text xml:space="preserve" text-anchor="middle" x="304" y="-163.5" font-family="Helvetica,sans-Serif" font-size="10.00">routes to: run&#45;tests skill</text>
<text xml:space="preserve" text-anchor="middle" x="304" y="-151.5" font-family="Helvetica,sans-Serif" font-size="10.00">filter&#45;syntax skill</text>
</g>
<!-- router&#45;&gt;r1 -->
<g id="edge3" class="edge">
<title>router&#45;&gt;r1</title>
<path fill="none" stroke="#15803d" stroke-width="1.5" stroke-dasharray="5,2" d="M474.13,-313C400.14,-313 304,-313 304,-313 304,-313 304,-209.98 304,-209.98"/>
<polygon fill="#15803d" stroke="#15803d" stroke-width="1.5" points="307.5,-209.98 304,-199.98 300.5,-209.98 307.5,-209.98"/>
</g>
<!-- r2 -->
<g id="node5" class="node">
<title>r2</title>
<path fill="#f0fdf4" stroke="#15803d" stroke-width="1.5" d="M400,-151C400,-151 530,-151 530,-151 536,-151 542,-157 542,-163 542,-163 542,-179 542,-179 542,-185 536,-191 530,-191 530,-191 400,-191 400,-191 394,-191 388,-185 388,-179 388,-179 388,-163 388,-163 388,-157 394,-151 400,-151"/>
<text xml:space="preserve" text-anchor="middle" x="465" y="-177.5" font-family="Helvetica,sans-Serif" font-size="10.00">dotnet build with bl flag</text>
<polyline fill="none" stroke="#15803d" stroke-width="1.5" points="388,-171 542,-171"/>
<text xml:space="preserve" text-anchor="middle" x="465" y="-157.5" font-family="Helvetica,sans-Serif" font-size="10.00">routes to: binlog&#45;generation skill</text>
</g>
<!-- router&#45;&gt;r2 -->
<g id="edge4" class="edge">
<title>router&#45;&gt;r2</title>
<path fill="none" stroke="#15803d" stroke-width="1.5" stroke-dasharray="5,2" d="M519.79,-257.13C519.79,-257.13 519.79,-203.72 519.79,-203.72"/>
<polygon fill="#15803d" stroke="#15803d" stroke-width="1.5" points="523.29,-203.72 519.79,-193.72 516.29,-203.72 523.29,-203.72"/>
</g>
<!-- r3 -->
<g id="node6" class="node">
<title>r3</title>
<path fill="#f0fdf4" stroke="#15803d" stroke-width="1.5" d="M579.5,-151C579.5,-151 724.5,-151 724.5,-151 730.5,-151 736.5,-157 736.5,-163 736.5,-163 736.5,-179 736.5,-179 736.5,-185 730.5,-191 724.5,-191 724.5,-191 579.5,-191 579.5,-191 573.5,-191 567.5,-185 567.5,-179 567.5,-179 567.5,-163 567.5,-163 567.5,-157 573.5,-151 579.5,-151"/>
<text xml:space="preserve" text-anchor="middle" x="652" y="-177.5" font-family="Helvetica,sans-Serif" font-size="10.00">create new Blazor app</text>
<polyline fill="none" stroke="#15803d" stroke-width="1.5" points="567.5,-171 736.5,-171"/>
<text xml:space="preserve" text-anchor="middle" x="652" y="-157.5" font-family="Helvetica,sans-Serif" font-size="10.00">routes to: create&#45;blazor&#45;project skill</text>
</g>
<!-- router&#45;&gt;r3 -->
<g id="edge5" class="edge">
<title>router&#45;&gt;r3</title>
<path fill="none" stroke="#15803d" stroke-width="1.5" stroke-dasharray="5,2" d="M604.06,-257.13C604.06,-257.13 604.06,-203.72 604.06,-203.72"/>
<polygon fill="#15803d" stroke="#15803d" stroke-width="1.5" points="607.56,-203.72 604.06,-193.72 600.56,-203.72 607.56,-203.72"/>
</g>
<!-- r4 -->
<g id="node7" class="node">
<title>r4</title>
<path fill="#f0fdf4" stroke="#15803d" stroke-width="1.5" d="M773.62,-151C773.62,-151 910.38,-151 910.38,-151 916.38,-151 922.38,-157 922.38,-163 922.38,-163 922.38,-179 922.38,-179 922.38,-185 916.38,-191 910.38,-191 910.38,-191 773.62,-191 773.62,-191 767.62,-191 761.62,-185 761.62,-179 761.62,-179 761.62,-163 761.62,-163 761.62,-157 767.62,-151 773.62,-151"/>
<text xml:space="preserve" text-anchor="middle" x="842" y="-177.5" font-family="Helvetica,sans-Serif" font-size="10.00">add unit tests</text>
<polyline fill="none" stroke="#15803d" stroke-width="1.5" points="761.62,-171 922.38,-171"/>
<text xml:space="preserve" text-anchor="middle" x="842" y="-157.5" font-family="Helvetica,sans-Serif" font-size="10.00">routes to: code&#45;testing&#45;agent skill</text>
</g>
<!-- router&#45;&gt;r4 -->
<g id="edge6" class="edge">
<title>router&#45;&gt;r4</title>
<path fill="none" stroke="#15803d" stroke-width="1.5" stroke-dasharray="5,2" d="M641.67,-294C725.45,-294 842,-294 842,-294 842,-294 842,-203.86 842,-203.86"/>
<polygon fill="#15803d" stroke="#15803d" stroke-width="1.5" points="845.5,-203.86 842,-193.86 838.5,-203.86 845.5,-203.86"/>
</g>
<!-- r5 -->
<g id="node8" class="node">
<title>r5</title>
<path fill="#f0fdf4" stroke="#15803d" stroke-width="1.5" d="M959,-151C959,-151 1107,-151 1107,-151 1113,-151 1119,-157 1119,-163 1119,-163 1119,-179 1119,-179 1119,-185 1113,-191 1107,-191 1107,-191 959,-191 959,-191 953,-191 947,-185 947,-179 947,-179 947,-163 947,-163 947,-157 953,-151 959,-151"/>
<text xml:space="preserve" text-anchor="middle" x="1033" y="-177.5" font-family="Helvetica,sans-Serif" font-size="10.00">optimize EF query</text>
<polyline fill="none" stroke="#15803d" stroke-width="1.5" points="947,-171 1119,-171"/>
<text xml:space="preserve" text-anchor="middle" x="1033" y="-157.5" font-family="Helvetica,sans-Serif" font-size="10.00">routes to: optimizing&#45;ef&#45;core&#45;queries</text>
</g>
<!-- router&#45;&gt;r5 -->
<g id="edge7" class="edge">
<title>router&#45;&gt;r5</title>
<path fill="none" stroke="#15803d" stroke-width="1.5" stroke-dasharray="5,2" d="M641.83,-331C778.19,-331 1033,-331 1033,-331 1033,-331 1033,-203.86 1033,-203.86"/>
<polygon fill="#15803d" stroke="#15803d" stroke-width="1.5" points="1036.5,-203.86 1033,-193.86 1029.5,-203.86 1036.5,-203.86"/>
</g>
<!-- exec -->
<g id="node9" class="node">
<title>exec</title>
<path fill="#dcfce7" stroke="#16a34a" stroke-width="2" d="M379.12,-0.5C379.12,-0.5 572.88,-0.5 572.88,-0.5 578.88,-0.5 584.88,-6.5 584.88,-12.5 584.88,-12.5 584.88,-72 584.88,-72 584.88,-78 578.88,-84 572.88,-84 572.88,-84 379.12,-84 379.12,-84 373.12,-84 367.12,-78 367.12,-72 367.12,-72 367.12,-12.5 367.12,-12.5 367.12,-6.5 373.12,-0.5 379.12,-0.5"/>
<text xml:space="preserve" text-anchor="middle" x="476" y="-69.55" font-family="Helvetica,sans-Serif" font-size="11.00">Skill Execution</text>
<polyline fill="none" stroke="#16a34a" stroke-width="2" points="367.12,-62.5 584.88,-62.5"/>
<text xml:space="preserve" text-anchor="middle" x="476" y="-48.05" font-family="Helvetica,sans-Serif" font-size="11.00">Agent follows SKILL.md instructions</text>
<text xml:space="preserve" text-anchor="middle" x="476" y="-34.55" font-family="Helvetica,sans-Serif" font-size="11.00">Creates .testagent/ artifacts</text>
<text xml:space="preserve" text-anchor="middle" x="476" y="-21.05" font-family="Helvetica,sans-Serif" font-size="11.00">Research then Plan then Implement</text>
<text xml:space="preserve" text-anchor="middle" x="476" y="-7.55" font-family="Helvetica,sans-Serif" font-size="11.00">Finishes with Requirement&#45;Evidence table</text>
</g>
<!-- skill_file&#45;&gt;exec -->
<g id="edge8" class="edge">
<title>skill_file&#45;&gt;exec</title>
<path fill="none" stroke="#16a34a" stroke-width="2.3" d="M220.76,-133C294.37,-133 377.56,-133 377.56,-133 377.56,-133 377.56,-98.45 377.56,-98.45"/>
<polygon fill="#16a34a" stroke="#16a34a" stroke-width="2.3" points="381.06,-98.45 377.56,-88.45 374.06,-98.45 381.06,-98.45"/>
<text xml:space="preserve" text-anchor="middle" x="301.06" y="-135.5" font-family="Helvetica,sans-Serif" font-size="10.00">follows</text>
</g>
<!-- r4&#45;&gt;exec -->
<g id="edge9" class="edge">
<title>r4&#45;&gt;exec</title>
<path fill="none" stroke="#16a34a" stroke-width="1.8" d="M842,-150.27C842,-113.81 842,-42 842,-42 842,-42 598.54,-42 598.54,-42"/>
<polygon fill="#16a34a" stroke="#16a34a" stroke-width="1.8" points="598.54,-38.5 588.54,-42 598.54,-45.5 598.54,-38.5"/>
</g>
</g>
</svg>
