<?xml version="1.0" encoding="UTF-8" standalone="no"?>
<!DOCTYPE svg PUBLIC "-//W3C//DTD SVG 1.1//EN"
 "http://www.w3.org/Graphics/SVG/1.1/DTD/svg11.dtd">
<!-- Generated by graphviz version 14.1.2 (0)
 -->
<!-- Title: openhuman_tokenjuice Pages: 1 -->
<svg width="609pt" height="515pt"
 viewBox="0.00 0.00 609.00 515.00" xmlns="http://www.w3.org/2000/svg" xmlns:xlink="http://www.w3.org/1999/xlink">
<g id="graph0" class="graph" transform="scale(1 1) rotate(0) translate(4 511.25)">
<title>openhuman_tokenjuice</title>
<text xml:space="preserve" text-anchor="middle" x="300.5" y="-7.2" font-family="Times New Roman,serif" font-size="14.00">OpenHuman &#45; TokenJuice Compression Workflow</text>
<g id="clust1" class="cluster">
<title>cluster_inputs</title>
<polygon fill="#ffebee" stroke="#f44336" stroke-dasharray="5,2" points="49,-424.25 49,-499.25 531,-499.25 531,-424.25 49,-424.25"/>
<text xml:space="preserve" text-anchor="middle" x="290" y="-482.9" font-family="Arial Bold" font-size="13.00" fill="#f44336">Raw Inputs (High Token Count)</text>
</g>
<g id="clust2" class="cluster">
<title>cluster_pipeline</title>
<polygon fill="#fff3e0" stroke="#e65100" stroke-dasharray="5,2" points="8,-235.75 8,-405.25 593,-405.25 593,-235.75 8,-235.75"/>
<text xml:space="preserve" text-anchor="middle" x="300.5" y="-388.9" font-family="Arial Bold" font-size="13.00" fill="#e65100">TokenJuice Compression Pipeline</text>
</g>
<g id="clust3" class="cluster">
<title>cluster_output</title>
<polygon fill="#e8f5e9" stroke="#2e7d32" stroke-dasharray="5,2" points="100,-32.5 100,-209.38 356,-209.38 356,-32.5 100,-32.5"/>
<text xml:space="preserve" text-anchor="middle" x="228" y="-193.03" font-family="Arial Bold" font-size="13.00" fill="#2e7d32">Compressed Output (Up to 80% Less)</text>
</g>
<!-- html_input -->
<g id="node1" class="node">
<title>html_input</title>
<path fill="#4caf50" stroke="black" d="M136.88,-468.25C136.88,-468.25 69.12,-468.25 69.12,-468.25 63.12,-468.25 57.12,-462.25 57.12,-456.25 57.12,-456.25 57.12,-444.25 57.12,-444.25 57.12,-438.25 63.12,-432.25 69.12,-432.25 69.12,-432.25 136.88,-432.25 136.88,-432.25 142.88,-432.25 148.88,-438.25 148.88,-444.25 148.88,-444.25 148.88,-456.25 148.88,-456.25 148.88,-462.25 142.88,-468.25 136.88,-468.25"/>
<text xml:space="preserve" text-anchor="middle" x="103" y="-453.3" font-family="Arial" font-size="11.00" fill="white">HTML Email</text>
<text xml:space="preserve" text-anchor="middle" x="103" y="-439.8" font-family="Arial" font-size="11.00" fill="white">(~5,000 tokens)</text>
</g>
<!-- html2md -->
<g id="node5" class="node">
<title>html2md</title>
<path fill="#ff9800" stroke="black" d="M115.62,-374.25C115.62,-374.25 28.38,-374.25 28.38,-374.25 22.38,-374.25 16.38,-368.25 16.38,-362.25 16.38,-362.25 16.38,-350.25 16.38,-350.25 16.38,-344.25 22.38,-338.25 28.38,-338.25 28.38,-338.25 115.62,-338.25 115.62,-338.25 121.62,-338.25 127.62,-344.25 127.62,-350.25 127.62,-350.25 127.62,-362.25 127.62,-362.25 127.62,-368.25 121.62,-374.25 115.62,-374.25"/>
<text xml:space="preserve" text-anchor="middle" x="72" y="-359.3" font-family="Arial" font-size="11.00" fill="white">HTML to Markdown</text>
<text xml:space="preserve" text-anchor="middle" x="72" y="-345.8" font-family="Arial" font-size="11.00" fill="white">(Remove Tags)</text>
</g>
<!-- html_input&#45;&gt;html2md -->
<g id="edge1" class="edge">
<title>html_input&#45;&gt;html2md</title>
<path fill="none" stroke="#f44336" stroke-width="2" d="M92.38,-432.13C92.38,-432.13 92.38,-387.67 92.38,-387.67"/>
<polygon fill="#f44336" stroke="#f44336" stroke-width="2" points="95.88,-387.67 92.38,-377.67 88.88,-387.67 95.88,-387.67"/>
</g>
<!-- url_input -->
<g id="node2" class="node">
<title>url_input</title>
<path fill="#4caf50" stroke="black" d="M255.38,-468.25C255.38,-468.25 196.62,-468.25 196.62,-468.25 190.62,-468.25 184.62,-462.25 184.62,-456.25 184.62,-456.25 184.62,-444.25 184.62,-444.25 184.62,-438.25 190.62,-432.25 196.62,-432.25 196.62,-432.25 255.38,-432.25 255.38,-432.25 261.38,-432.25 267.38,-438.25 267.38,-444.25 267.38,-444.25 267.38,-456.25 267.38,-456.25 267.38,-462.25 261.38,-468.25 255.38,-468.25"/>
<text xml:space="preserve" text-anchor="middle" x="226" y="-453.3" font-family="Arial" font-size="11.00" fill="white">Long URLs</text>
<text xml:space="preserve" text-anchor="middle" x="226" y="-439.8" font-family="Arial" font-size="11.00" fill="white">(~800 tokens)</text>
</g>
<!-- url_shorten -->
<g id="node6" class="node">
<title>url_shorten</title>
<path fill="#ff9800" stroke="black" d="M252.38,-374.25C252.38,-374.25 175.62,-374.25 175.62,-374.25 169.62,-374.25 163.62,-368.25 163.62,-362.25 163.62,-362.25 163.62,-350.25 163.62,-350.25 163.62,-344.25 169.62,-338.25 175.62,-338.25 175.62,-338.25 252.38,-338.25 252.38,-338.25 258.38,-338.25 264.38,-344.25 264.38,-350.25 264.38,-350.25 264.38,-362.25 264.38,-362.25 264.38,-368.25 258.38,-374.25 252.38,-374.25"/>
<text xml:space="preserve" text-anchor="middle" x="214" y="-359.3" font-family="Arial" font-size="11.00" fill="white">URL Shortening</text>
<text xml:space="preserve" text-anchor="middle" x="214" y="-345.8" font-family="Arial" font-size="11.00" fill="white">(Compress Links)</text>
</g>
<!-- url_input&#45;&gt;url_shorten -->
<g id="edge2" class="edge">
<title>url_input&#45;&gt;url_shorten</title>
<path fill="none" stroke="#f44336" stroke-width="2" d="M224.5,-432.13C224.5,-432.13 224.5,-387.67 224.5,-387.67"/>
<polygon fill="#f44336" stroke="#f44336" stroke-width="2" points="228,-387.67 224.5,-377.67 221,-387.67 228,-387.67"/>
</g>
<!-- search_input -->
<g id="node3" class="node">
<title>search_input</title>
<path fill="#4caf50" stroke="black" d="M382.88,-468.25C382.88,-468.25 315.12,-468.25 315.12,-468.25 309.12,-468.25 303.12,-462.25 303.12,-456.25 303.12,-456.25 303.12,-444.25 303.12,-444.25 303.12,-438.25 309.12,-432.25 315.12,-432.25 315.12,-432.25 382.88,-432.25 382.88,-432.25 388.88,-432.25 394.88,-438.25 394.88,-444.25 394.88,-444.25 394.88,-456.25 394.88,-456.25 394.88,-462.25 388.88,-468.25 382.88,-468.25"/>
<text xml:space="preserve" text-anchor="middle" x="349" y="-453.3" font-family="Arial" font-size="11.00" fill="white">Search Results</text>
<text xml:space="preserve" text-anchor="middle" x="349" y="-439.8" font-family="Arial" font-size="11.00" fill="white">(~3,000 tokens)</text>
</g>
<!-- ascii_clean -->
<g id="node7" class="node">
<title>ascii_clean</title>
<path fill="#ff9800" stroke="black" d="M409.12,-374.25C409.12,-374.25 312.88,-374.25 312.88,-374.25 306.88,-374.25 300.88,-368.25 300.88,-362.25 300.88,-362.25 300.88,-350.25 300.88,-350.25 300.88,-344.25 306.88,-338.25 312.88,-338.25 312.88,-338.25 409.12,-338.25 409.12,-338.25 415.12,-338.25 421.12,-344.25 421.12,-350.25 421.12,-350.25 421.12,-362.25 421.12,-362.25 421.12,-368.25 415.12,-374.25 409.12,-374.25"/>
<text xml:space="preserve" text-anchor="middle" x="361" y="-359.3" font-family="Arial" font-size="11.00" fill="white">ASCII Cleanup</text>
<text xml:space="preserve" text-anchor="middle" x="361" y="-345.8" font-family="Arial" font-size="11.00" fill="white">(Remove Non&#45;ASCII)</text>
</g>
<!-- search_input&#45;&gt;ascii_clean -->
<g id="edge3" class="edge">
<title>search_input&#45;&gt;ascii_clean</title>
<path fill="none" stroke="#f44336" stroke-width="2" d="M349,-432.13C349,-432.13 349,-387.67 349,-387.67"/>
<polygon fill="#f44336" stroke="#f44336" stroke-width="2" points="352.5,-387.67 349,-377.67 345.5,-387.67 352.5,-387.67"/>
</g>
<!-- code_input -->
<g id="node4" class="node">
<title>code_input</title>
<path fill="#4caf50" stroke="black" d="M510.88,-468.25C510.88,-468.25 443.12,-468.25 443.12,-468.25 437.12,-468.25 431.12,-462.25 431.12,-456.25 431.12,-456.25 431.12,-444.25 431.12,-444.25 431.12,-438.25 437.12,-432.25 443.12,-432.25 443.12,-432.25 510.88,-432.25 510.88,-432.25 516.88,-432.25 522.88,-438.25 522.88,-444.25 522.88,-444.25 522.88,-456.25 522.88,-456.25 522.88,-462.25 516.88,-468.25 510.88,-468.25"/>
<text xml:space="preserve" text-anchor="middle" x="477" y="-453.3" font-family="Arial" font-size="11.00" fill="white">Code Snippets</text>
<text xml:space="preserve" text-anchor="middle" x="477" y="-439.8" font-family="Arial" font-size="11.00" fill="white">(~2,000 tokens)</text>
</g>
<!-- dedup -->
<g id="node8" class="node">
<title>dedup</title>
<path fill="#ff9800" stroke="black" d="M572.88,-374.25C572.88,-374.25 469.12,-374.25 469.12,-374.25 463.12,-374.25 457.12,-368.25 457.12,-362.25 457.12,-362.25 457.12,-350.25 457.12,-350.25 457.12,-344.25 463.12,-338.25 469.12,-338.25 469.12,-338.25 572.88,-338.25 572.88,-338.25 578.88,-338.25 584.88,-344.25 584.88,-350.25 584.88,-350.25 584.88,-362.25 584.88,-362.25 584.88,-368.25 578.88,-374.25 572.88,-374.25"/>
<text xml:space="preserve" text-anchor="middle" x="521" y="-359.3" font-family="Arial" font-size="11.00" fill="white">Deduplication</text>
<text xml:space="preserve" text-anchor="middle" x="521" y="-345.8" font-family="Arial" font-size="11.00" fill="white">(Remove Redundancy)</text>
</g>
<!-- code_input&#45;&gt;dedup -->
<g id="edge4" class="edge">
<title>code_input&#45;&gt;dedup</title>
<path fill="none" stroke="#f44336" stroke-width="2" d="M490,-432.13C490,-432.13 490,-387.67 490,-387.67"/>
<polygon fill="#f44336" stroke="#f44336" stroke-width="2" points="493.5,-387.67 490,-377.67 486.5,-387.67 493.5,-387.67"/>
</g>
<!-- compress -->
<g id="node9" class="node">
<title>compress</title>
<path fill="#ff9800" stroke="black" d="M337,-280.25C337,-280.25 237,-280.25 237,-280.25 231,-280.25 225,-274.25 225,-268.25 225,-268.25 225,-255.75 225,-255.75 225,-249.75 231,-243.75 237,-243.75 237,-243.75 337,-243.75 337,-243.75 343,-243.75 349,-249.75 349,-255.75 349,-255.75 349,-268.25 349,-268.25 349,-274.25 343,-280.25 337,-280.25"/>
<text xml:space="preserve" text-anchor="middle" x="287" y="-264.85" font-family="Arial Bold" font-size="12.00" fill="white">Final Compression</text>
<text xml:space="preserve" text-anchor="middle" x="287" y="-250.6" font-family="Arial Bold" font-size="12.00" fill="white">(Token Reduction)</text>
</g>
<!-- html2md&#45;&gt;compress -->
<g id="edge5" class="edge">
<title>html2md&#45;&gt;compress</title>
<path fill="none" stroke="#ff9800" stroke-width="2" d="M72,-338.17C72,-310.93 72,-262.5 72,-262.5 72,-262.5 211.5,-262.5 211.5,-262.5"/>
<polygon fill="#ff9800" stroke="#ff9800" stroke-width="2" points="211.5,-266 221.5,-262.5 211.5,-259 211.5,-266"/>
</g>
<!-- url_shorten&#45;&gt;compress -->
<g id="edge6" class="edge">
<title>url_shorten&#45;&gt;compress</title>
<path fill="none" stroke="#ff9800" stroke-width="2" d="M244.69,-338.08C244.69,-338.08 244.69,-293.47 244.69,-293.47"/>
<polygon fill="#ff9800" stroke="#ff9800" stroke-width="2" points="248.19,-293.47 244.69,-283.47 241.19,-293.47 248.19,-293.47"/>
</g>
<!-- ascii_clean&#45;&gt;compress -->
<g id="edge7" class="edge">
<title>ascii_clean&#45;&gt;compress</title>
<path fill="none" stroke="#ff9800" stroke-width="2" d="M324.94,-338.08C324.94,-338.08 324.94,-293.47 324.94,-293.47"/>
<polygon fill="#ff9800" stroke="#ff9800" stroke-width="2" points="328.44,-293.47 324.94,-283.47 321.44,-293.47 328.44,-293.47"/>
</g>
<!-- dedup&#45;&gt;compress -->
<g id="edge8" class="edge">
<title>dedup&#45;&gt;compress</title>
<path fill="none" stroke="#ff9800" stroke-width="2" d="M476.56,-338.17C476.56,-310.93 476.56,-262.5 476.56,-262.5 476.56,-262.5 362.36,-262.5 362.36,-262.5"/>
<polygon fill="#ff9800" stroke="#ff9800" stroke-width="2" points="362.36,-259 352.36,-262.5 362.36,-266 362.36,-259"/>
</g>
<!-- compressed -->
<g id="node10" class="node">
<title>compressed</title>
<path fill="#009688" stroke="black" d="M318.25,-178.38C318.25,-178.38 219.75,-178.38 219.75,-178.38 213.75,-178.38 207.75,-172.38 207.75,-166.38 207.75,-166.38 207.75,-154.38 207.75,-154.38 207.75,-148.38 213.75,-142.38 219.75,-142.38 219.75,-142.38 318.25,-142.38 318.25,-142.38 324.25,-142.38 330.25,-148.38 330.25,-154.38 330.25,-154.38 330.25,-166.38 330.25,-166.38 330.25,-172.38 324.25,-178.38 318.25,-178.38"/>
<text xml:space="preserve" text-anchor="middle" x="269" y="-163.43" font-family="Arial" font-size="11.00" fill="white">Compressed Context</text>
<text xml:space="preserve" text-anchor="middle" x="269" y="-149.93" font-family="Arial" font-size="11.00" fill="white">(~1,000&#45;2,000 tokens)</text>
</g>
<!-- compress&#45;&gt;compressed -->
<g id="edge9" class="edge">
<title>compress&#45;&gt;compressed</title>
<path fill="none" stroke="#4caf50" stroke-width="2.5" d="M277.62,-243.36C277.62,-243.36 277.62,-192.34 277.62,-192.34"/>
<polygon fill="#4caf50" stroke="#4caf50" stroke-width="2.5" points="281.13,-192.34 277.63,-182.34 274.13,-192.34 281.13,-192.34"/>
</g>
<!-- savings -->
<g id="node12" class="node">
<title>savings</title>
<path fill="#ffc107" stroke="black" d="M484,-185.75C484,-185.75 378,-185.75 378,-185.75 372,-185.75 366,-179.75 366,-173.75 366,-173.75 366,-147 366,-147 366,-141 372,-135 378,-135 378,-135 484,-135 484,-135 490,-135 496,-141 496,-147 496,-147 496,-173.75 496,-173.75 496,-179.75 490,-185.75 484,-185.75"/>
<text xml:space="preserve" text-anchor="middle" x="431" y="-170.35" font-family="Arial Bold" font-size="12.00" fill="#333333">Up to 80%</text>
<text xml:space="preserve" text-anchor="middle" x="431" y="-156.1" font-family="Arial Bold" font-size="12.00" fill="#333333">Token Savings</text>
<text xml:space="preserve" text-anchor="middle" x="431" y="-141.85" font-family="Arial Bold" font-size="12.00" fill="#333333">Lower Cost + Faster</text>
</g>
<!-- compress&#45;&gt;savings -->
<g id="edge11" class="edge">
<title>compress&#45;&gt;savings</title>
<path fill="none" stroke="#ffc107" stroke-width="2" stroke-dasharray="5,2" d="M337.56,-243.56C337.56,-220.08 337.56,-182.5 337.56,-182.5 337.56,-182.5 352.57,-182.5 352.57,-182.5"/>
<polygon fill="#ffc107" stroke="#ffc107" stroke-width="2" points="352.57,-186 362.57,-182.5 352.57,-179 352.57,-186"/>
<text xml:space="preserve" text-anchor="middle" x="322.94" y="-208.73" font-family="Times New Roman,serif" font-size="14.00">saves</text>
</g>
<!-- llm -->
<g id="node11" class="node">
<title>llm</title>
<path fill="#1565c0" stroke="black" d="M332.88,-77C332.88,-77 205.12,-77 205.12,-77 199.12,-77 193.12,-71 193.12,-65 193.12,-65 193.12,-52.5 193.12,-52.5 193.12,-46.5 199.12,-40.5 205.12,-40.5 205.12,-40.5 332.88,-40.5 332.88,-40.5 338.88,-40.5 344.88,-46.5 344.88,-52.5 344.88,-52.5 344.88,-65 344.88,-65 344.88,-71 338.88,-77 332.88,-77"/>
<text xml:space="preserve" text-anchor="middle" x="269" y="-61.6" font-family="Arial Bold" font-size="12.00" fill="white">LLM Model</text>
<text xml:space="preserve" text-anchor="middle" x="269" y="-47.35" font-family="Arial Bold" font-size="12.00" fill="white">(Reasoning/Fast/Vision)</text>
</g>
<!-- compressed&#45;&gt;llm -->
<g id="edge10" class="edge">
<title>compressed&#45;&gt;llm</title>
<path fill="none" stroke="#2196f3" stroke-width="2.5" d="M269,-142.21C269,-142.21 269,-91.23 269,-91.23"/>
<polygon fill="#2196f3" stroke="#2196f3" stroke-width="2.5" points="272.5,-91.23 269,-81.23 265.5,-91.23 272.5,-91.23"/>
</g>
</g>
</svg>
