<?xml version="1.0" encoding="UTF-8" standalone="no"?>
<!DOCTYPE svg PUBLIC "-//W3C//DTD SVG 1.1//EN"
 "http://www.w3.org/Graphics/SVG/1.1/DTD/svg11.dtd">
<!-- Generated by graphviz version 14.1.2 (0)
 -->
<!-- Title: ds2api_api_compat Pages: 1 -->
<svg width="1674pt" height="415pt"
 viewBox="0.00 0.00 1674.00 415.00" xmlns="http://www.w3.org/2000/svg" xmlns:xlink="http://www.w3.org/1999/xlink">
<style>
<!-- White text halo for edge label readability -->
text { paint-order: stroke; stroke: #ffffff; stroke-width: 3px; stroke-linejoin: round; fill: #1a1a2e; }
</style>
<g id="graph0" class="graph" transform="scale(1 1) rotate(0) translate(4 411.25)">
<title>ds2api_api_compat</title>
<polygon fill="white" stroke="none" points="-4,4 -4,-411.25 1670,-411.25 1670,4 -4,4"/>
<text xml:space="preserve" text-anchor="middle" x="833" y="-7.2" font-family="Times New Roman,serif" font-size="14.00">DS2API API Compatibility Matrix</text>
<g id="clust1" class="cluster">
<title>cluster_sdks</title>
<polygon fill="none" stroke="#4caf50" stroke-dasharray="5,2" points="405,-313.25 405,-399.25 1105,-399.25 1105,-313.25 405,-313.25"/>
<text xml:space="preserve" text-anchor="middle" x="755" y="-384.8" font-family="Arial Bold" font-size="11.00" fill="#4caf50">Client SDKs / Tools</text>
</g>
<g id="clust2" class="cluster">
<title>cluster_openai_eps</title>
<polygon fill="none" stroke="#2196f3" stroke-dasharray="5,2" points="8,-110.5 8,-182.5 666,-182.5 666,-110.5 8,-110.5"/>
<text xml:space="preserve" text-anchor="middle" x="337" y="-169" font-family="Arial Bold" font-size="10.00" fill="#2196f3">OpenAI&#45;Compatible Endpoints</text>
</g>
<g id="clust3" class="cluster">
<title>cluster_claude_eps</title>
<polygon fill="none" stroke="#7e57c2" stroke-dasharray="5,2" points="679,-110.5 679,-182.5 1187,-182.5 1187,-110.5 679,-110.5"/>
<text xml:space="preserve" text-anchor="middle" x="933" y="-169" font-family="Arial Bold" font-size="10.00" fill="#7e57c2">Claude&#45;Compatible Endpoints</text>
</g>
<g id="clust4" class="cluster">
<title>cluster_gemini_eps</title>
<polygon fill="none" stroke="#ff9800" stroke-dasharray="5,2" points="1200,-110.5 1200,-182.5 1658,-182.5 1658,-110.5 1200,-110.5"/>
<text xml:space="preserve" text-anchor="middle" x="1429" y="-169" font-family="Arial Bold" font-size="10.00" fill="#ff9800">Gemini&#45;Compatible Endpoints</text>
</g>
<!-- openai_sdk -->
<g id="node1" class="node">
<title>openai_sdk</title>
<polygon fill="#4caf50" stroke="black" points="492.5,-363.5 413.5,-363.5 413.5,-327.5 492.5,-327.5 492.5,-363.5"/>
<text xml:space="preserve" text-anchor="middle" x="453" y="-348.55" font-family="Arial" font-size="11.00" fill="white">OpenAI SDK</text>
<text xml:space="preserve" text-anchor="middle" x="453" y="-335.05" font-family="Arial" font-size="11.00" fill="white">(Python / JS)</text>
</g>
<!-- ds2api -->
<g id="node7" class="node">
<title>ds2api</title>
<path fill="#2196f3" stroke="black" d="M812,-263.25C812,-263.25 712,-263.25 712,-263.25 706,-263.25 700,-257.25 700,-251.25 700,-251.25 700,-224.5 700,-224.5 700,-218.5 706,-212.5 712,-212.5 712,-212.5 812,-212.5 812,-212.5 818,-212.5 824,-218.5 824,-224.5 824,-224.5 824,-251.25 824,-251.25 824,-257.25 818,-263.25 812,-263.25"/>
<text xml:space="preserve" text-anchor="middle" x="762" y="-247.85" font-family="Arial Bold" font-size="12.00" fill="white">DS2API 4.x</text>
<text xml:space="preserve" text-anchor="middle" x="762" y="-233.6" font-family="Arial Bold" font-size="12.00" fill="white">Middleware</text>
<text xml:space="preserve" text-anchor="middle" x="762" y="-219.35" font-family="Arial Bold" font-size="12.00" fill="white">(Pure Go Backend)</text>
</g>
<!-- openai_sdk&#45;&gt;ds2api -->
<g id="edge1" class="edge">
<title>openai_sdk&#45;&gt;ds2api</title>
<path fill="none" stroke="#4caf50" stroke-width="2" d="M463,-327.18C463,-299.58 463,-250.5 463,-250.5 463,-250.5 686.66,-250.5 686.66,-250.5"/>
<polygon fill="#4caf50" stroke="#4caf50" stroke-width="2" points="686.66,-254 696.66,-250.5 686.66,-247 686.66,-254"/>
</g>
<!-- claude_sdk -->
<g id="node2" class="node">
<title>claude_sdk</title>
<polygon fill="#4caf50" stroke="black" points="610,-363.5 522,-363.5 522,-327.5 610,-327.5 610,-363.5"/>
<text xml:space="preserve" text-anchor="middle" x="566" y="-348.55" font-family="Arial" font-size="11.00" fill="white">Anthropic SDK</text>
<text xml:space="preserve" text-anchor="middle" x="566" y="-335.05" font-family="Arial" font-size="11.00" fill="white">(Claude)</text>
</g>
<!-- claude_sdk&#45;&gt;ds2api -->
<g id="edge2" class="edge">
<title>claude_sdk&#45;&gt;ds2api</title>
<path fill="none" stroke="#4caf50" stroke-width="2" d="M593.88,-327.06C593.88,-300.99 593.88,-256.5 593.88,-256.5 593.88,-256.5 686.85,-256.5 686.85,-256.5"/>
<polygon fill="#4caf50" stroke="#4caf50" stroke-width="2" points="686.85,-260 696.85,-256.5 686.85,-253 686.85,-260"/>
</g>
<!-- gemini_sdk -->
<g id="node3" class="node">
<title>gemini_sdk</title>
<polygon fill="#4caf50" stroke="black" points="752.75,-363.5 639.25,-363.5 639.25,-327.5 752.75,-327.5 752.75,-363.5"/>
<text xml:space="preserve" text-anchor="middle" x="696" y="-341.8" font-family="Arial" font-size="11.00" fill="white">Google Gemini SDK</text>
</g>
<!-- gemini_sdk&#45;&gt;ds2api -->
<g id="edge3" class="edge">
<title>gemini_sdk&#45;&gt;ds2api</title>
<path fill="none" stroke="#4caf50" stroke-width="2" d="M726.38,-327.24C726.38,-327.24 726.38,-276.52 726.38,-276.52"/>
<polygon fill="#4caf50" stroke="#4caf50" stroke-width="2" points="729.88,-276.52 726.38,-266.52 722.88,-276.52 729.88,-276.52"/>
</g>
<!-- codex_cli -->
<g id="node4" class="node">
<title>codex_cli</title>
<polygon fill="#4caf50" stroke="black" points="876,-363.5 782,-363.5 782,-327.5 876,-327.5 876,-363.5"/>
<text xml:space="preserve" text-anchor="middle" x="829" y="-341.8" font-family="Arial" font-size="11.00" fill="white">Codex CLI/SDK</text>
</g>
<!-- codex_cli&#45;&gt;ds2api -->
<g id="edge4" class="edge">
<title>codex_cli&#45;&gt;ds2api</title>
<path fill="none" stroke="#4caf50" stroke-width="2" d="M803,-327.24C803,-327.24 803,-276.52 803,-276.52"/>
<polygon fill="#4caf50" stroke="#4caf50" stroke-width="2" points="806.5,-276.52 803,-266.52 799.5,-276.52 806.5,-276.52"/>
</g>
<!-- langchain -->
<g id="node5" class="node">
<title>langchain</title>
<polygon fill="#4caf50" stroke="black" points="982.75,-369.75 905.25,-369.75 905.25,-321.25 982.75,-321.25 982.75,-369.75"/>
<text xml:space="preserve" text-anchor="middle" x="944" y="-355.3" font-family="Arial" font-size="11.00" fill="white">LangChain /</text>
<text xml:space="preserve" text-anchor="middle" x="944" y="-341.8" font-family="Arial" font-size="11.00" fill="white">LlamaIndex /</text>
<text xml:space="preserve" text-anchor="middle" x="944" y="-328.3" font-family="Arial" font-size="11.00" fill="white">OpenWebUI</text>
</g>
<!-- langchain&#45;&gt;ds2api -->
<g id="edge5" class="edge">
<title>langchain&#45;&gt;ds2api</title>
<path fill="none" stroke="#4caf50" stroke-width="1.5" stroke-dasharray="5,2" d="M944,-321.18C944,-294.83 944,-256.5 944,-256.5 944,-256.5 836.65,-256.5 836.65,-256.5"/>
<polygon fill="#4caf50" stroke="#4caf50" stroke-width="1.5" points="836.65,-253 826.65,-256.5 836.65,-260 836.65,-253"/>
</g>
<!-- vercel_sdk -->
<g id="node6" class="node">
<title>vercel_sdk</title>
<polygon fill="#4caf50" stroke="black" points="1096.5,-363.5 1011.5,-363.5 1011.5,-327.5 1096.5,-327.5 1096.5,-363.5"/>
<text xml:space="preserve" text-anchor="middle" x="1054" y="-341.8" font-family="Arial" font-size="11.00" fill="white">Vercel AI SDK</text>
</g>
<!-- vercel_sdk&#45;&gt;ds2api -->
<g id="edge6" class="edge">
<title>vercel_sdk&#45;&gt;ds2api</title>
<path fill="none" stroke="#4caf50" stroke-width="1.5" stroke-dasharray="5,2" d="M1015.56,-327.18C1015.56,-299.58 1015.56,-250.5 1015.56,-250.5 1015.56,-250.5 836.62,-250.5 836.62,-250.5"/>
<polygon fill="#4caf50" stroke="#4caf50" stroke-width="1.5" points="836.62,-247 826.62,-250.5 836.62,-254 836.62,-247"/>
</g>
<!-- chat_comp -->
<g id="node8" class="node">
<title>chat_comp</title>
<path fill="#42a5f5" stroke="black" d="M140.38,-154.5C140.38,-154.5 27.62,-154.5 27.62,-154.5 21.62,-154.5 15.62,-148.5 15.62,-142.5 15.62,-142.5 15.62,-130.5 15.62,-130.5 15.62,-124.5 21.62,-118.5 27.62,-118.5 27.62,-118.5 140.38,-118.5 140.38,-118.5 146.38,-118.5 152.38,-124.5 152.38,-130.5 152.38,-130.5 152.38,-142.5 152.38,-142.5 152.38,-148.5 146.38,-154.5 140.38,-154.5"/>
<text xml:space="preserve" text-anchor="middle" x="84" y="-139" font-family="Arial" font-size="10.00" fill="white">POST /v1/chat/completions</text>
<text xml:space="preserve" text-anchor="middle" x="84" y="-127" font-family="Arial" font-size="10.00" fill="white">(Chat Completions)</text>
</g>
<!-- ds2api&#45;&gt;chat_comp -->
<g id="edge7" class="edge">
<title>ds2api&#45;&gt;chat_comp</title>
<path fill="none" stroke="#2196f3" stroke-width="2" d="M699.73,-244.5C532.12,-244.5 84,-244.5 84,-244.5 84,-244.5 84,-167.85 84,-167.85"/>
<polygon fill="#2196f3" stroke="#2196f3" stroke-width="2" points="87.5,-167.85 84,-157.85 80.5,-167.85 87.5,-167.85"/>
</g>
<!-- responses -->
<g id="node9" class="node">
<title>responses</title>
<path fill="#42a5f5" stroke="black" d="M276.75,-154.5C276.75,-154.5 193.25,-154.5 193.25,-154.5 187.25,-154.5 181.25,-148.5 181.25,-142.5 181.25,-142.5 181.25,-130.5 181.25,-130.5 181.25,-124.5 187.25,-118.5 193.25,-118.5 193.25,-118.5 276.75,-118.5 276.75,-118.5 282.75,-118.5 288.75,-124.5 288.75,-130.5 288.75,-130.5 288.75,-142.5 288.75,-142.5 288.75,-148.5 282.75,-154.5 276.75,-154.5"/>
<text xml:space="preserve" text-anchor="middle" x="235" y="-139" font-family="Arial" font-size="10.00" fill="white">POST /v1/responses</text>
<text xml:space="preserve" text-anchor="middle" x="235" y="-127" font-family="Arial" font-size="10.00" fill="white">(Responses API)</text>
</g>
<!-- ds2api&#45;&gt;responses -->
<g id="edge8" class="edge">
<title>ds2api&#45;&gt;responses</title>
<path fill="none" stroke="#2196f3" stroke-width="1.5" d="M699.74,-237.5C560.28,-237.5 235,-237.5 235,-237.5 235,-237.5 235,-166.83 235,-166.83"/>
<polygon fill="#2196f3" stroke="#2196f3" stroke-width="1.5" points="238.5,-166.83 235,-156.83 231.5,-166.83 238.5,-166.83"/>
</g>
<!-- models -->
<g id="node10" class="node">
<title>models</title>
<path fill="#42a5f5" stroke="black" d="M392.62,-154.5C392.62,-154.5 329.38,-154.5 329.38,-154.5 323.38,-154.5 317.38,-148.5 317.38,-142.5 317.38,-142.5 317.38,-130.5 317.38,-130.5 317.38,-124.5 323.38,-118.5 329.38,-118.5 329.38,-118.5 392.62,-118.5 392.62,-118.5 398.62,-118.5 404.62,-124.5 404.62,-130.5 404.62,-130.5 404.62,-142.5 404.62,-142.5 404.62,-148.5 398.62,-154.5 392.62,-154.5"/>
<text xml:space="preserve" text-anchor="middle" x="361" y="-139" font-family="Arial" font-size="10.00" fill="white">GET /v1/models</text>
<text xml:space="preserve" text-anchor="middle" x="361" y="-127" font-family="Arial" font-size="10.00" fill="white">(List Models)</text>
</g>
<!-- ds2api&#45;&gt;models -->
<g id="edge9" class="edge">
<title>ds2api&#45;&gt;models</title>
<path fill="none" stroke="#2196f3" stroke-width="1.5" d="M699.78,-231.5C587.15,-231.5 361,-231.5 361,-231.5 361,-231.5 361,-167.09 361,-167.09"/>
<polygon fill="#2196f3" stroke="#2196f3" stroke-width="1.5" points="364.5,-167.09 361,-157.09 357.5,-167.09 364.5,-167.09"/>
</g>
<!-- embeddings -->
<g id="node11" class="node">
<title>embeddings</title>
<path fill="#42a5f5" stroke="black" d="M536.5,-154.5C536.5,-154.5 445.5,-154.5 445.5,-154.5 439.5,-154.5 433.5,-148.5 433.5,-142.5 433.5,-142.5 433.5,-130.5 433.5,-130.5 433.5,-124.5 439.5,-118.5 445.5,-118.5 445.5,-118.5 536.5,-118.5 536.5,-118.5 542.5,-118.5 548.5,-124.5 548.5,-130.5 548.5,-130.5 548.5,-142.5 548.5,-142.5 548.5,-148.5 542.5,-154.5 536.5,-154.5"/>
<text xml:space="preserve" text-anchor="middle" x="491" y="-139" font-family="Arial" font-size="10.00" fill="white">POST /v1/embeddings</text>
<text xml:space="preserve" text-anchor="middle" x="491" y="-127" font-family="Arial" font-size="10.00" fill="white">(Embeddings)</text>
</g>
<!-- ds2api&#45;&gt;embeddings -->
<g id="edge10" class="edge">
<title>ds2api&#45;&gt;embeddings</title>
<path fill="none" stroke="#2196f3" stroke-width="1.5" d="M699.74,-225.5C632.61,-225.5 535.25,-225.5 535.25,-225.5 535.25,-225.5 535.25,-167.21 535.25,-167.21"/>
<polygon fill="#2196f3" stroke="#2196f3" stroke-width="1.5" points="538.75,-167.21 535.25,-157.21 531.75,-167.21 538.75,-167.21"/>
</g>
<!-- files -->
<g id="node12" class="node">
<title>files</title>
<path fill="#42a5f5" stroke="black" d="M646.25,-154.5C646.25,-154.5 589.75,-154.5 589.75,-154.5 583.75,-154.5 577.75,-148.5 577.75,-142.5 577.75,-142.5 577.75,-130.5 577.75,-130.5 577.75,-124.5 583.75,-118.5 589.75,-118.5 589.75,-118.5 646.25,-118.5 646.25,-118.5 652.25,-118.5 658.25,-124.5 658.25,-130.5 658.25,-130.5 658.25,-142.5 658.25,-142.5 658.25,-148.5 652.25,-154.5 646.25,-154.5"/>
<text xml:space="preserve" text-anchor="middle" x="618" y="-139" font-family="Arial" font-size="10.00" fill="white">POST /v1/files</text>
<text xml:space="preserve" text-anchor="middle" x="618" y="-127" font-family="Arial" font-size="10.00" fill="white">(Files Upload)</text>
</g>
<!-- ds2api&#45;&gt;files -->
<g id="edge11" class="edge">
<title>ds2api&#45;&gt;files</title>
<path fill="none" stroke="#2196f3" stroke-width="1.5" d="M699.74,-218.5C673.43,-218.5 648.75,-218.5 648.75,-218.5 648.75,-218.5 648.75,-166.97 648.75,-166.97"/>
<polygon fill="#2196f3" stroke="#2196f3" stroke-width="1.5" points="652.25,-166.97 648.75,-156.97 645.25,-166.97 652.25,-166.97"/>
</g>
<!-- claude_msg -->
<g id="node13" class="node">
<title>claude_msg</title>
<path fill="#42a5f5" stroke="black" d="M825.12,-154.5C825.12,-154.5 698.88,-154.5 698.88,-154.5 692.88,-154.5 686.88,-148.5 686.88,-142.5 686.88,-142.5 686.88,-130.5 686.88,-130.5 686.88,-124.5 692.88,-118.5 698.88,-118.5 698.88,-118.5 825.12,-118.5 825.12,-118.5 831.12,-118.5 837.12,-124.5 837.12,-130.5 837.12,-130.5 837.12,-142.5 837.12,-142.5 837.12,-148.5 831.12,-154.5 825.12,-154.5"/>
<text xml:space="preserve" text-anchor="middle" x="762" y="-139" font-family="Arial" font-size="10.00" fill="white">POST /anthropic/v1/messages</text>
<text xml:space="preserve" text-anchor="middle" x="762" y="-127" font-family="Arial" font-size="10.00" fill="white">(Messages API)</text>
</g>
<!-- ds2api&#45;&gt;claude_msg -->
<g id="edge12" class="edge">
<title>ds2api&#45;&gt;claude_msg</title>
<path fill="none" stroke="#7e57c2" stroke-width="2" d="M762,-212.03C762,-212.03 762,-167.97 762,-167.97"/>
<polygon fill="#7e57c2" stroke="#7e57c2" stroke-width="2" points="765.5,-167.97 762,-157.97 758.5,-167.97 765.5,-167.97"/>
</g>
<!-- claude_tokens -->
<g id="node14" class="node">
<title>claude_tokens</title>
<path fill="#42a5f5" stroke="black" d="M1007.62,-154.5C1007.62,-154.5 878.38,-154.5 878.38,-154.5 872.38,-154.5 866.38,-148.5 866.38,-142.5 866.38,-142.5 866.38,-130.5 866.38,-130.5 866.38,-124.5 872.38,-118.5 878.38,-118.5 878.38,-118.5 1007.62,-118.5 1007.62,-118.5 1013.62,-118.5 1019.62,-124.5 1019.62,-130.5 1019.62,-130.5 1019.62,-142.5 1019.62,-142.5 1019.62,-148.5 1013.62,-154.5 1007.62,-154.5"/>
<text xml:space="preserve" text-anchor="middle" x="943" y="-139" font-family="Arial" font-size="10.00" fill="white">POST /anthropic/v1/messages/</text>
<text xml:space="preserve" text-anchor="middle" x="943" y="-127" font-family="Arial" font-size="10.00" fill="white">count_tokens</text>
</g>
<!-- ds2api&#45;&gt;claude_tokens -->
<g id="edge13" class="edge">
<title>ds2api&#45;&gt;claude_tokens</title>
<path fill="none" stroke="#7e57c2" stroke-width="1.5" d="M824.25,-218.5C848.77,-218.5 871.19,-218.5 871.19,-218.5 871.19,-218.5 871.19,-166.97 871.19,-166.97"/>
<polygon fill="#7e57c2" stroke="#7e57c2" stroke-width="1.5" points="874.69,-166.97 871.19,-156.97 867.69,-166.97 874.69,-166.97"/>
</g>
<!-- claude_models -->
<g id="node15" class="node">
<title>claude_models</title>
<path fill="#42a5f5" stroke="black" d="M1167,-154.5C1167,-154.5 1061,-154.5 1061,-154.5 1055,-154.5 1049,-148.5 1049,-142.5 1049,-142.5 1049,-130.5 1049,-130.5 1049,-124.5 1055,-118.5 1061,-118.5 1061,-118.5 1167,-118.5 1167,-118.5 1173,-118.5 1179,-124.5 1179,-130.5 1179,-130.5 1179,-142.5 1179,-142.5 1179,-148.5 1173,-154.5 1167,-154.5"/>
<text xml:space="preserve" text-anchor="middle" x="1114" y="-139" font-family="Arial" font-size="10.00" fill="white">GET /anthropic/v1/models</text>
<text xml:space="preserve" text-anchor="middle" x="1114" y="-127" font-family="Arial" font-size="10.00" fill="white">(List Models)</text>
</g>
<!-- ds2api&#45;&gt;claude_models -->
<g id="edge14" class="edge">
<title>ds2api&#45;&gt;claude_models</title>
<path fill="none" stroke="#7e57c2" stroke-width="1.5" d="M824.14,-225.5C914.82,-225.5 1072.75,-225.5 1072.75,-225.5 1072.75,-225.5 1072.75,-167.21 1072.75,-167.21"/>
<polygon fill="#7e57c2" stroke="#7e57c2" stroke-width="1.5" points="1076.25,-167.21 1072.75,-157.21 1069.25,-167.21 1076.25,-167.21"/>
</g>
<!-- gemini_gen -->
<g id="node16" class="node">
<title>gemini_gen</title>
<path fill="#42a5f5" stroke="black" d="M1344,-154.5C1344,-154.5 1220,-154.5 1220,-154.5 1214,-154.5 1208,-148.5 1208,-142.5 1208,-142.5 1208,-130.5 1208,-130.5 1208,-124.5 1214,-118.5 1220,-118.5 1220,-118.5 1344,-118.5 1344,-118.5 1350,-118.5 1356,-124.5 1356,-130.5 1356,-130.5 1356,-142.5 1356,-142.5 1356,-148.5 1350,-154.5 1344,-154.5"/>
<text xml:space="preserve" text-anchor="middle" x="1282" y="-139" font-family="Arial" font-size="10.00" fill="white">POST /v1beta/models/{model}</text>
<text xml:space="preserve" text-anchor="middle" x="1282" y="-127" font-family="Arial" font-size="10.00" fill="white">:generateContent</text>
</g>
<!-- ds2api&#45;&gt;gemini_gen -->
<g id="edge15" class="edge">
<title>ds2api&#45;&gt;gemini_gen</title>
<path fill="none" stroke="#ff9800" stroke-width="2" d="M824.47,-231.5C962.63,-231.5 1282,-231.5 1282,-231.5 1282,-231.5 1282,-167.84 1282,-167.84"/>
<polygon fill="#ff9800" stroke="#ff9800" stroke-width="2" points="1285.5,-167.84 1282,-157.84 1278.5,-167.84 1285.5,-167.84"/>
</g>
<!-- gemini_stream -->
<g id="node17" class="node">
<title>gemini_stream</title>
<path fill="#42a5f5" stroke="black" d="M1521,-154.5C1521,-154.5 1397,-154.5 1397,-154.5 1391,-154.5 1385,-148.5 1385,-142.5 1385,-142.5 1385,-130.5 1385,-130.5 1385,-124.5 1391,-118.5 1397,-118.5 1397,-118.5 1521,-118.5 1521,-118.5 1527,-118.5 1533,-124.5 1533,-130.5 1533,-130.5 1533,-142.5 1533,-142.5 1533,-148.5 1527,-154.5 1521,-154.5"/>
<text xml:space="preserve" text-anchor="middle" x="1459" y="-139" font-family="Arial" font-size="10.00" fill="white">POST /v1beta/models/{model}</text>
<text xml:space="preserve" text-anchor="middle" x="1459" y="-127" font-family="Arial" font-size="10.00" fill="white">:streamGenerateContent</text>
</g>
<!-- ds2api&#45;&gt;gemini_stream -->
<g id="edge16" class="edge">
<title>ds2api&#45;&gt;gemini_stream</title>
<path fill="none" stroke="#ff9800" stroke-width="1.5" d="M824.47,-237.5C995.55,-237.5 1459,-237.5 1459,-237.5 1459,-237.5 1459,-166.83 1459,-166.83"/>
<polygon fill="#ff9800" stroke="#ff9800" stroke-width="1.5" points="1462.5,-166.83 1459,-156.83 1455.5,-166.83 1462.5,-166.83"/>
</g>
<!-- gemini_models -->
<g id="node18" class="node">
<title>gemini_models</title>
<path fill="#42a5f5" stroke="black" d="M1637.62,-154.5C1637.62,-154.5 1574.38,-154.5 1574.38,-154.5 1568.38,-154.5 1562.38,-148.5 1562.38,-142.5 1562.38,-142.5 1562.38,-130.5 1562.38,-130.5 1562.38,-124.5 1568.38,-118.5 1574.38,-118.5 1574.38,-118.5 1637.62,-118.5 1637.62,-118.5 1643.62,-118.5 1649.62,-124.5 1649.62,-130.5 1649.62,-130.5 1649.62,-142.5 1649.62,-142.5 1649.62,-148.5 1643.62,-154.5 1637.62,-154.5"/>
<text xml:space="preserve" text-anchor="middle" x="1606" y="-139" font-family="Arial" font-size="10.00" fill="white">GET /v1/models</text>
<text xml:space="preserve" text-anchor="middle" x="1606" y="-127" font-family="Arial" font-size="10.00" fill="white">(List Models)</text>
</g>
<!-- ds2api&#45;&gt;gemini_models -->
<g id="edge17" class="edge">
<title>ds2api&#45;&gt;gemini_models</title>
<path fill="none" stroke="#ff9800" stroke-width="1.5" d="M824.4,-244.5C1019.66,-244.5 1606,-244.5 1606,-244.5 1606,-244.5 1606,-167.09 1606,-167.09"/>
<polygon fill="#ff9800" stroke="#ff9800" stroke-width="1.5" points="1609.5,-167.09 1606,-157.09 1602.5,-167.09 1609.5,-167.09"/>
</g>
<!-- deepseek -->
<g id="node19" class="node">
<title>deepseek</title>
<path fill="#7e57c2" stroke="black" d="M806.38,-60.5C806.38,-60.5 717.62,-60.5 717.62,-60.5 711.62,-60.5 705.62,-54.5 705.62,-48.5 705.62,-48.5 705.62,-36.5 705.62,-36.5 705.62,-30.5 711.62,-24.5 717.62,-24.5 717.62,-24.5 806.38,-24.5 806.38,-24.5 812.38,-24.5 818.38,-30.5 818.38,-36.5 818.38,-36.5 818.38,-48.5 818.38,-48.5 818.38,-54.5 812.38,-60.5 806.38,-60.5"/>
<text xml:space="preserve" text-anchor="middle" x="762" y="-45.55" font-family="Arial" font-size="11.00" fill="white">DeepSeek Web API</text>
<text xml:space="preserve" text-anchor="middle" x="762" y="-32.05" font-family="Arial" font-size="11.00" fill="white">(Upstream)</text>
</g>
<!-- chat_comp&#45;&gt;deepseek -->
<g id="edge18" class="edge">
<title>chat_comp&#45;&gt;deepseek</title>
<path fill="none" stroke="#7e57c2" stroke-width="2" d="M84,-118.38C84,-91.06 84,-42.5 84,-42.5 84,-42.5 692.33,-42.5 692.33,-42.5"/>
<polygon fill="#7e57c2" stroke="#7e57c2" stroke-width="2" points="692.33,-46 702.33,-42.5 692.33,-39 692.33,-46"/>
</g>
<!-- claude_msg&#45;&gt;deepseek -->
<g id="edge19" class="edge">
<title>claude_msg&#45;&gt;deepseek</title>
<path fill="none" stroke="#7e57c2" stroke-width="1.5" stroke-dasharray="5,2" d="M762,-118.38C762,-118.38 762,-73.16 762,-73.16"/>
<polygon fill="#7e57c2" stroke="#7e57c2" stroke-width="1.5" points="765.5,-73.16 762,-63.16 758.5,-73.16 765.5,-73.16"/>
</g>
<!-- gemini_gen&#45;&gt;deepseek -->
<g id="edge20" class="edge">
<title>gemini_gen&#45;&gt;deepseek</title>
<path fill="none" stroke="#7e57c2" stroke-width="1.5" stroke-dasharray="5,2" d="M1282,-118.38C1282,-91.06 1282,-42.5 1282,-42.5 1282,-42.5 830.91,-42.5 830.91,-42.5"/>
<polygon fill="#7e57c2" stroke="#7e57c2" stroke-width="1.5" points="830.91,-39 820.91,-42.5 830.91,-46 830.91,-39"/>
</g>
</g>
</svg>
