<?xml version="1.0" encoding="UTF-8" standalone="no"?>
<!DOCTYPE svg PUBLIC "-//W3C//DTD SVG 1.1//EN"
 "http://www.w3.org/Graphics/SVG/1.1/DTD/svg11.dtd">
<!-- Generated by graphviz version 14.1.2 (0)
 -->
<!-- Title: rtk_flow Pages: 1 -->
<svg width="634pt" height="353pt"
 viewBox="0.00 0.00 634.00 353.00" xmlns="http://www.w3.org/2000/svg" xmlns:xlink="http://www.w3.org/1999/xlink">
<style>
<!-- White text halo for edge label readability -->
text { paint-order: stroke; stroke: #ffffff; stroke-width: 3px; stroke-linejoin: round; fill: #1a1a2e; }
</style>
<g id="graph0" class="graph" transform="scale(1 1) rotate(0) translate(4 348.5)">
<title>rtk_flow</title>
<polygon fill="white" stroke="none" points="-4,4 -4,-348.5 630.25,-348.5 630.25,4 -4,4"/>
<text xml:space="preserve" text-anchor="middle" x="313.12" y="-7.2" font-family="Times New Roman,serif" font-size="14.00">RTK &#45; Command Flow Comparison</text>
<!-- without_label -->
<g id="node1" class="node">
<title>without_label</title>
<polygon fill="#f44336" stroke="black" points="92.5,-60.5 0,-60.5 0,-24.5 92.5,-24.5 92.5,-60.5"/>
<text xml:space="preserve" text-anchor="middle" x="46.25" y="-38.8" font-family="Arial" font-size="11.00" fill="white">WITHOUT RTK</text>
</g>
<!-- ai1 -->
<g id="node2" class="node">
<title>ai1</title>
<polygon fill="#4caf50" stroke="black" points="74.88,-132.5 17.63,-132.5 17.63,-96.5 74.88,-96.5 74.88,-132.5"/>
<text xml:space="preserve" text-anchor="middle" x="46.25" y="-110.8" font-family="Arial" font-size="11.00" fill="white">AI Agent</text>
</g>
<!-- shell1 -->
<g id="node3" class="node">
<title>shell1</title>
<path fill="#ff9800" stroke="black" d="M204.62,-163.5C204.62,-163.5 174.62,-163.5 174.62,-163.5 168.62,-163.5 162.62,-157.5 162.62,-151.5 162.62,-151.5 162.62,-139.5 162.62,-139.5 162.62,-133.5 168.62,-127.5 174.62,-127.5 174.62,-127.5 204.62,-127.5 204.62,-127.5 210.62,-127.5 216.62,-133.5 216.62,-139.5 216.62,-139.5 216.62,-151.5 216.62,-151.5 216.62,-157.5 210.62,-163.5 204.62,-163.5"/>
<text xml:space="preserve" text-anchor="middle" x="189.62" y="-141.8" font-family="Arial" font-size="11.00" fill="white">Shell</text>
</g>
<!-- ai1&#45;&gt;shell1 -->
<g id="edge1" class="edge">
<title>ai1&#45;&gt;shell1</title>
<path fill="none" stroke="#f44336" stroke-width="2" d="M75.19,-117.17C116.97,-117.17 189.25,-117.17 189.25,-117.17 189.25,-117.17 189.25,-118.16 189.25,-118.16"/>
<polygon fill="#f44336" stroke="#f44336" stroke-width="2" points="185.75,-114.05 189.25,-124.05 192.75,-114.05 185.75,-114.05"/>
</g>
<!-- git1 -->
<g id="node4" class="node">
<title>git1</title>
<path fill="#9c27b0" stroke="black" d="M333.5,-163.5C333.5,-163.5 298.75,-163.5 298.75,-163.5 292.75,-163.5 286.75,-157.5 286.75,-151.5 286.75,-151.5 286.75,-139.5 286.75,-139.5 286.75,-133.5 292.75,-127.5 298.75,-127.5 298.75,-127.5 333.5,-127.5 333.5,-127.5 339.5,-127.5 345.5,-133.5 345.5,-139.5 345.5,-139.5 345.5,-151.5 345.5,-151.5 345.5,-157.5 339.5,-163.5 333.5,-163.5"/>
<text xml:space="preserve" text-anchor="middle" x="316.12" y="-141.8" font-family="Arial" font-size="11.00" fill="white">git status</text>
</g>
<!-- shell1&#45;&gt;git1 -->
<g id="edge2" class="edge">
<title>shell1&#45;&gt;git1</title>
<path fill="none" stroke="#f44336" stroke-width="2" d="M217.07,-145.5C217.07,-145.5 273.5,-145.5 273.5,-145.5"/>
<polygon fill="#f44336" stroke="#f44336" stroke-width="2" points="273.5,-149 283.5,-145.5 273.5,-142 273.5,-149"/>
</g>
<!-- raw_out -->
<g id="node5" class="node">
<title>raw_out</title>
<polygon fill="#f44336" stroke="black" points="487.75,-127.5 403.5,-127.5 403.5,-91.5 487.75,-91.5 487.75,-127.5"/>
<text xml:space="preserve" text-anchor="middle" x="445.62" y="-112.55" font-family="Arial" font-size="11.00" fill="white">Raw Output</text>
<text xml:space="preserve" text-anchor="middle" x="445.62" y="-99.05" font-family="Arial" font-size="11.00" fill="white">~2,000 tokens</text>
</g>
<!-- git1&#45;&gt;raw_out -->
<g id="edge3" class="edge">
<title>git1&#45;&gt;raw_out</title>
<path fill="none" stroke="#f44336" stroke-width="2" d="M345.91,-145.5C373.48,-145.5 410.25,-145.5 410.25,-145.5 410.25,-145.5 410.25,-140.95 410.25,-140.95"/>
<polygon fill="#f44336" stroke="#f44336" stroke-width="2" points="413.75,-140.95 410.25,-130.95 406.75,-140.95 413.75,-140.95"/>
</g>
<!-- raw_out&#45;&gt;ai1 -->
<g id="edge4" class="edge">
<title>raw_out&#45;&gt;ai1</title>
<path fill="none" stroke="#f44336" stroke-width="2" d="M403.26,-106.83C403.26,-106.83 88.37,-106.83 88.37,-106.83"/>
<polygon fill="#f44336" stroke="#f44336" stroke-width="2" points="88.37,-103.33 78.37,-106.83 88.37,-110.33 88.37,-103.33"/>
</g>
<!-- with_label -->
<g id="node6" class="node">
<title>with_label</title>
<path fill="#4caf50" stroke="black" d="M66.62,-213.5C66.62,-213.5 25.88,-213.5 25.88,-213.5 19.88,-213.5 13.88,-207.5 13.88,-201.5 13.88,-201.5 13.88,-189.5 13.88,-189.5 13.88,-183.5 19.88,-177.5 25.88,-177.5 25.88,-177.5 66.62,-177.5 66.62,-177.5 72.62,-177.5 78.62,-183.5 78.62,-189.5 78.62,-189.5 78.62,-201.5 78.62,-201.5 78.62,-207.5 72.62,-213.5 66.62,-213.5"/>
<text xml:space="preserve" text-anchor="middle" x="46.25" y="-192" font-family="Arial" font-size="10.00" fill="white">WITH RTK</text>
</g>
<!-- ai2 -->
<g id="node7" class="node">
<title>ai2</title>
<polygon fill="#4caf50" stroke="black" points="74.88,-303.5 17.63,-303.5 17.63,-267.5 74.88,-267.5 74.88,-303.5"/>
<text xml:space="preserve" text-anchor="middle" x="46.25" y="-281.8" font-family="Arial" font-size="11.00" fill="white">AI Agent</text>
</g>
<!-- rtk -->
<g id="node8" class="node">
<title>rtk</title>
<path fill="#2196f3" stroke="black" d="M216.75,-344.5C216.75,-344.5 162.5,-344.5 162.5,-344.5 156.5,-344.5 150.5,-338.5 150.5,-332.5 150.5,-332.5 150.5,-320.5 150.5,-320.5 150.5,-314.5 156.5,-308.5 162.5,-308.5 162.5,-308.5 216.75,-308.5 216.75,-308.5 222.75,-308.5 228.75,-314.5 228.75,-320.5 228.75,-320.5 228.75,-332.5 228.75,-332.5 228.75,-338.5 222.75,-344.5 216.75,-344.5"/>
<text xml:space="preserve" text-anchor="middle" x="189.62" y="-322.23" font-family="Arial Bold" font-size="12.00" fill="white">RTK Proxy</text>
</g>
<!-- ai2&#45;&gt;rtk -->
<g id="edge5" class="edge">
<title>ai2&#45;&gt;rtk</title>
<path fill="none" stroke="#4caf50" stroke-width="2" d="M75.15,-287.5C107.74,-287.5 156.25,-287.5 156.25,-287.5 156.25,-287.5 156.25,-295.34 156.25,-295.34"/>
<polygon fill="#4caf50" stroke="#4caf50" stroke-width="2" points="152.75,-295.34 156.25,-305.34 159.75,-295.34 152.75,-295.34"/>
</g>
<!-- shell2 -->
<g id="node9" class="node">
<title>shell2</title>
<path fill="#ff9800" stroke="black" d="M331.12,-344.5C331.12,-344.5 301.12,-344.5 301.12,-344.5 295.12,-344.5 289.12,-338.5 289.12,-332.5 289.12,-332.5 289.12,-320.5 289.12,-320.5 289.12,-314.5 295.12,-308.5 301.12,-308.5 301.12,-308.5 331.12,-308.5 331.12,-308.5 337.12,-308.5 343.12,-314.5 343.12,-320.5 343.12,-320.5 343.12,-332.5 343.12,-332.5 343.12,-338.5 337.12,-344.5 331.12,-344.5"/>
<text xml:space="preserve" text-anchor="middle" x="316.12" y="-322.8" font-family="Arial" font-size="11.00" fill="white">Shell</text>
</g>
<!-- rtk&#45;&gt;shell2 -->
<g id="edge6" class="edge">
<title>rtk&#45;&gt;shell2</title>
<path fill="none" stroke="#4caf50" stroke-width="2" d="M228.96,-326.5C228.96,-326.5 275.82,-326.5 275.82,-326.5"/>
<polygon fill="#4caf50" stroke="#4caf50" stroke-width="2" points="275.82,-330 285.82,-326.5 275.82,-323 275.82,-330"/>
</g>
<!-- git2 -->
<g id="node10" class="node">
<title>git2</title>
<path fill="#9c27b0" stroke="black" d="M463,-344.5C463,-344.5 428.25,-344.5 428.25,-344.5 422.25,-344.5 416.25,-338.5 416.25,-332.5 416.25,-332.5 416.25,-320.5 416.25,-320.5 416.25,-314.5 422.25,-308.5 428.25,-308.5 428.25,-308.5 463,-308.5 463,-308.5 469,-308.5 475,-314.5 475,-320.5 475,-320.5 475,-332.5 475,-332.5 475,-338.5 469,-344.5 463,-344.5"/>
<text xml:space="preserve" text-anchor="middle" x="445.62" y="-322.8" font-family="Arial" font-size="11.00" fill="white">git status</text>
</g>
<!-- shell2&#45;&gt;git2 -->
<g id="edge7" class="edge">
<title>shell2&#45;&gt;git2</title>
<path fill="none" stroke="#4caf50" stroke-width="2" d="M343.59,-326.5C343.59,-326.5 402.92,-326.5 402.92,-326.5"/>
<polygon fill="#4caf50" stroke="#4caf50" stroke-width="2" points="402.92,-330 412.92,-326.5 402.92,-323 402.92,-330"/>
</g>
<!-- filtered_out -->
<g id="node11" class="node">
<title>filtered_out</title>
<path fill="#4caf50" stroke="black" d="M614.25,-307.5C614.25,-307.5 557.75,-307.5 557.75,-307.5 551.75,-307.5 545.75,-301.5 545.75,-295.5 545.75,-295.5 545.75,-283.5 545.75,-283.5 545.75,-277.5 551.75,-271.5 557.75,-271.5 557.75,-271.5 614.25,-271.5 614.25,-271.5 620.25,-271.5 626.25,-277.5 626.25,-283.5 626.25,-283.5 626.25,-295.5 626.25,-295.5 626.25,-301.5 620.25,-307.5 614.25,-307.5"/>
<text xml:space="preserve" text-anchor="middle" x="586" y="-292" font-family="Arial" font-size="10.00" fill="white">Filtered Output</text>
<text xml:space="preserve" text-anchor="middle" x="586" y="-280" font-family="Arial" font-size="10.00" fill="white">~200 tokens</text>
</g>
<!-- git2&#45;&gt;filtered_out -->
<g id="edge8" class="edge">
<title>git2&#45;&gt;filtered_out</title>
<path fill="none" stroke="#4caf50" stroke-width="2" d="M445.25,-308.11C445.25,-301.43 445.25,-295.5 445.25,-295.5 445.25,-295.5 532.26,-295.5 532.26,-295.5"/>
<polygon fill="#4caf50" stroke="#4caf50" stroke-width="2" points="532.26,-299 542.26,-295.5 532.26,-292 532.26,-299"/>
</g>
<!-- filtered_out&#45;&gt;ai2 -->
<g id="edge9" class="edge">
<title>filtered_out&#45;&gt;ai2</title>
<path fill="none" stroke="#4caf50" stroke-width="2" d="M545.43,-279.5C545.43,-279.5 88.27,-279.5 88.27,-279.5"/>
<polygon fill="#4caf50" stroke="#4caf50" stroke-width="2" points="88.27,-276 78.27,-279.5 88.27,-283 88.27,-276"/>
</g>
</g>
</svg>
