<?xml version="1.0" encoding="UTF-8" standalone="no"?>
<!DOCTYPE svg PUBLIC "-//W3C//DTD SVG 1.1//EN"
 "http://www.w3.org/Graphics/SVG/1.1/DTD/svg11.dtd">
<!-- Generated by graphviz version 14.1.2 (0)
 -->
<!-- Title: ProgressMilestones Pages: 1 -->
<svg width="669pt" height="714pt"
 viewBox="0.00 0.00 669.00 714.00" xmlns="http://www.w3.org/2000/svg" xmlns:xlink="http://www.w3.org/1999/xlink">
<style>
<!-- White text halo for edge label readability -->
text { paint-order: stroke; stroke: #ffffff; stroke-width: 3px; stroke-linejoin: round; fill: #1a1a2e; }
</style>
<g id="graph0" class="graph" transform="scale(1 1) rotate(0) translate(4 710.25)">
<title>ProgressMilestones</title>
<polygon fill="white" stroke="none" points="-4,4 -4,-710.25 665,-710.25 665,4 -4,4"/>
<text xml:space="preserve" text-anchor="middle" x="330.5" y="-7.2" font-family="Times New Roman,serif" font-size="14.00">CEFR Levels and Progress Milestones</text>
<g id="clust1" class="cluster">
<title>cluster_cefr</title>
<path fill="#1565c0" stroke="#1565c0" d="M20,-32.5C20,-32.5 351,-32.5 351,-32.5 357,-32.5 363,-38.5 363,-44.5 363,-44.5 363,-686.25 363,-686.25 363,-692.25 357,-698.25 351,-698.25 351,-698.25 20,-698.25 20,-698.25 14,-698.25 8,-692.25 8,-686.25 8,-686.25 8,-44.5 8,-44.5 8,-38.5 14,-32.5 20,-32.5"/>
<text xml:space="preserve" text-anchor="middle" x="185.5" y="-682.85" font-family="Arial Bold" font-size="12.00" fill="#1565c0">CEFR Levels (Common European Framework of Reference)</text>
</g>
<g id="clust2" class="cluster">
<title>cluster_vocab</title>
<path fill="#2e7d32" stroke="#2e7d32" d="M383,-266.75C383,-266.75 503,-266.75 503,-266.75 509,-266.75 515,-272.75 515,-278.75 515,-278.75 515,-673 515,-673 515,-679 509,-685 503,-685 503,-685 383,-685 383,-685 377,-685 371,-679 371,-673 371,-673 371,-278.75 371,-278.75 371,-272.75 377,-266.75 383,-266.75"/>
<text xml:space="preserve" text-anchor="middle" x="443" y="-669.6" font-family="Arial Bold" font-size="12.00" fill="#2e7d32">Vocabulary Milestones</text>
</g>
<g id="clust3" class="cluster">
<title>cluster_life</title>
<path fill="#e65100" stroke="#e65100" d="M535,-156.5C535,-156.5 641,-156.5 641,-156.5 647,-156.5 653,-162.5 653,-168.5 653,-168.5 653,-675.75 653,-675.75 653,-681.75 647,-687.75 641,-687.75 641,-687.75 535,-687.75 535,-687.75 529,-687.75 523,-681.75 523,-675.75 523,-675.75 523,-168.5 523,-168.5 523,-162.5 529,-156.5 535,-156.5"/>
<text xml:space="preserve" text-anchor="middle" x="588" y="-672.35" font-family="Arial Bold" font-size="12.00" fill="#e65100">Life Level&#45;Up Map</text>
</g>
<!-- cefr_a1 -->
<g id="node1" class="node">
<title>cefr_a1</title>
<path fill="#bbdefb" stroke="black" d="M231.62,-668C231.62,-668 138.38,-668 138.38,-668 132.38,-668 126.38,-662 126.38,-656 126.38,-656 126.38,-609.5 126.38,-609.5 126.38,-603.5 132.38,-597.5 138.38,-597.5 138.38,-597.5 231.62,-597.5 231.62,-597.5 237.62,-597.5 243.62,-603.5 243.62,-609.5 243.62,-609.5 243.62,-656 243.62,-656 243.62,-662 237.62,-668 231.62,-668"/>
<text xml:space="preserve" text-anchor="middle" x="185" y="-655.45" font-family="Arial" font-size="9.00" fill="#0d47a1">A1</text>
<text xml:space="preserve" text-anchor="middle" x="185" y="-644.95" font-family="Arial" font-size="9.00" fill="#0d47a1">Breakthrough</text>
<text xml:space="preserve" text-anchor="middle" x="185" y="-624.45" font-family="Arial" font-size="9.00" fill="#0d47a1">Can understand and use</text>
<text xml:space="preserve" text-anchor="middle" x="185" y="-613.95" font-family="Arial" font-size="9.00" fill="#0d47a1">familiar everyday</text>
<text xml:space="preserve" text-anchor="middle" x="185" y="-603.45" font-family="Arial" font-size="9.00" fill="#0d47a1">expressions</text>
</g>
<!-- cefr_a2 -->
<g id="node2" class="node">
<title>cefr_a2</title>
<path fill="#90caf9" stroke="black" d="M223,-554.5C223,-554.5 147,-554.5 147,-554.5 141,-554.5 135,-548.5 135,-542.5 135,-542.5 135,-506.5 135,-506.5 135,-500.5 141,-494.5 147,-494.5 147,-494.5 223,-494.5 223,-494.5 229,-494.5 235,-500.5 235,-506.5 235,-506.5 235,-542.5 235,-542.5 235,-548.5 229,-554.5 223,-554.5"/>
<text xml:space="preserve" text-anchor="middle" x="185" y="-541.95" font-family="Arial" font-size="9.00" fill="#0d47a1">A2</text>
<text xml:space="preserve" text-anchor="middle" x="185" y="-531.45" font-family="Arial" font-size="9.00" fill="#0d47a1">Waystage</text>
<text xml:space="preserve" text-anchor="middle" x="185" y="-510.95" font-family="Arial" font-size="9.00" fill="#0d47a1">Can communicate in</text>
<text xml:space="preserve" text-anchor="middle" x="185" y="-500.45" font-family="Arial" font-size="9.00" fill="#0d47a1">simple, routine tasks</text>
</g>
<!-- cefr_a1&#45;&gt;cefr_a2 -->
<g id="edge1" class="edge">
<title>cefr_a1&#45;&gt;cefr_a2</title>
<path fill="none" stroke="#333333" stroke-width="2" d="M185,-597C185,-597 185,-567.8 185,-567.8"/>
<polygon fill="#333333" stroke="#333333" stroke-width="2" points="188.5,-567.8 185,-557.8 181.5,-567.8 188.5,-567.8"/>
</g>
<!-- cefr_b1 -->
<g id="node3" class="node">
<title>cefr_b1</title>
<path fill="#64b5f6" stroke="black" d="M224.88,-451.5C224.88,-451.5 145.12,-451.5 145.12,-451.5 139.12,-451.5 133.12,-445.5 133.12,-439.5 133.12,-439.5 133.12,-393 133.12,-393 133.12,-387 139.12,-381 145.12,-381 145.12,-381 224.88,-381 224.88,-381 230.88,-381 236.88,-387 236.88,-393 236.88,-393 236.88,-439.5 236.88,-439.5 236.88,-445.5 230.88,-451.5 224.88,-451.5"/>
<text xml:space="preserve" text-anchor="middle" x="185" y="-438.95" font-family="Arial" font-size="9.00" fill="#0d47a1">B1</text>
<text xml:space="preserve" text-anchor="middle" x="185" y="-428.45" font-family="Arial" font-size="9.00" fill="#0d47a1">Threshold</text>
<text xml:space="preserve" text-anchor="middle" x="185" y="-407.95" font-family="Arial" font-size="9.00" fill="#0d47a1">Can deal with most</text>
<text xml:space="preserve" text-anchor="middle" x="185" y="-397.45" font-family="Arial" font-size="9.00" fill="#0d47a1">travel situations,</text>
<text xml:space="preserve" text-anchor="middle" x="185" y="-386.95" font-family="Arial" font-size="9.00" fill="#0d47a1">describe experiences</text>
</g>
<!-- cefr_a2&#45;&gt;cefr_b1 -->
<g id="edge2" class="edge">
<title>cefr_a2&#45;&gt;cefr_b1</title>
<path fill="none" stroke="#333333" stroke-width="2" d="M185,-494.06C185,-494.06 185,-464.85 185,-464.85"/>
<polygon fill="#333333" stroke="#333333" stroke-width="2" points="188.5,-464.85 185,-454.85 181.5,-464.85 188.5,-464.85"/>
</g>
<!-- v1 -->
<g id="node7" class="node">
<title>v1</title>
<path fill="#c8e6c9" stroke="black" d="M489.62,-654.75C489.62,-654.75 396.38,-654.75 396.38,-654.75 390.38,-654.75 384.38,-648.75 384.38,-642.75 384.38,-642.75 384.38,-622.75 384.38,-622.75 384.38,-616.75 390.38,-610.75 396.38,-610.75 396.38,-610.75 489.62,-610.75 489.62,-610.75 495.62,-610.75 501.62,-616.75 501.62,-622.75 501.62,-622.75 501.62,-642.75 501.62,-642.75 501.62,-648.75 495.62,-654.75 489.62,-654.75"/>
<text xml:space="preserve" text-anchor="middle" x="443" y="-641.25" font-family="Arial Bold" font-size="10.00" fill="#333333">1000 words</text>
<text xml:space="preserve" text-anchor="middle" x="443" y="-617.25" font-family="Arial Bold" font-size="10.00" fill="#333333">~75% comprehension</text>
</g>
<!-- cefr_a2&#45;&gt;v1 -->
<g id="edge13" class="edge">
<title>cefr_a2&#45;&gt;v1</title>
<path fill="none" stroke="#999999" stroke-dasharray="5,2" d="M235.24,-524.5C271.47,-524.5 314,-524.5 314,-524.5 314,-524.5 314,-632.5 314,-632.5 314,-632.5 372.65,-632.5 372.65,-632.5"/>
<polygon fill="#999999" stroke="#999999" points="372.65,-636 382.65,-632.5 372.65,-629 372.65,-636"/>
</g>
<!-- cefr_b2 -->
<g id="node4" class="node">
<title>cefr_b2</title>
<path fill="#42a5f5" stroke="black" d="M215.12,-338C215.12,-338 154.88,-338 154.88,-338 148.88,-338 142.88,-332 142.88,-326 142.88,-326 142.88,-279.5 142.88,-279.5 142.88,-273.5 148.88,-267.5 154.88,-267.5 154.88,-267.5 215.12,-267.5 215.12,-267.5 221.12,-267.5 227.12,-273.5 227.12,-279.5 227.12,-279.5 227.12,-326 227.12,-326 227.12,-332 221.12,-338 215.12,-338"/>
<text xml:space="preserve" text-anchor="middle" x="185" y="-325.45" font-family="Arial" font-size="9.00" fill="#0d47a1">B2</text>
<text xml:space="preserve" text-anchor="middle" x="185" y="-314.95" font-family="Arial" font-size="9.00" fill="#0d47a1">Vantage</text>
<text xml:space="preserve" text-anchor="middle" x="185" y="-294.45" font-family="Arial" font-size="9.00" fill="#0d47a1">Can interact with</text>
<text xml:space="preserve" text-anchor="middle" x="185" y="-283.95" font-family="Arial" font-size="9.00" fill="#0d47a1">fluency, discuss</text>
<text xml:space="preserve" text-anchor="middle" x="185" y="-273.45" font-family="Arial" font-size="9.00" fill="#0d47a1">various topics</text>
</g>
<!-- cefr_b1&#45;&gt;cefr_b2 -->
<g id="edge3" class="edge">
<title>cefr_b1&#45;&gt;cefr_b2</title>
<path fill="none" stroke="#333333" stroke-width="2" d="M185,-380.65C185,-380.65 185,-351.25 185,-351.25"/>
<polygon fill="#333333" stroke="#333333" stroke-width="2" points="188.5,-351.25 185,-341.25 181.5,-351.25 188.5,-351.25"/>
</g>
<!-- cefr_c1 -->
<g id="node5" class="node">
<title>cefr_c1</title>
<path fill="#1e88e5" stroke="black" d="M225.62,-224.5C225.62,-224.5 144.38,-224.5 144.38,-224.5 138.38,-224.5 132.38,-218.5 132.38,-212.5 132.38,-212.5 132.38,-166 132.38,-166 132.38,-160 138.38,-154 144.38,-154 144.38,-154 225.62,-154 225.62,-154 231.62,-154 237.62,-160 237.62,-166 237.62,-166 237.62,-212.5 237.62,-212.5 237.62,-218.5 231.62,-224.5 225.62,-224.5"/>
<text xml:space="preserve" text-anchor="middle" x="185" y="-211.95" font-family="Arial" font-size="9.00" fill="white">C1</text>
<text xml:space="preserve" text-anchor="middle" x="185" y="-201.45" font-family="Arial" font-size="9.00" fill="white">Effective Operational</text>
<text xml:space="preserve" text-anchor="middle" x="185" y="-180.95" font-family="Arial" font-size="9.00" fill="white">Can express ideas</text>
<text xml:space="preserve" text-anchor="middle" x="185" y="-170.45" font-family="Arial" font-size="9.00" fill="white">fluently, use language</text>
<text xml:space="preserve" text-anchor="middle" x="185" y="-159.95" font-family="Arial" font-size="9.00" fill="white">flexibly</text>
</g>
<!-- cefr_b2&#45;&gt;cefr_c1 -->
<g id="edge4" class="edge">
<title>cefr_b2&#45;&gt;cefr_c1</title>
<path fill="none" stroke="#333333" stroke-width="2" d="M185,-267.15C185,-267.15 185,-237.75 185,-237.75"/>
<polygon fill="#333333" stroke="#333333" stroke-width="2" points="188.5,-237.75 185,-227.75 181.5,-237.75 188.5,-237.75"/>
</g>
<!-- v3 -->
<g id="node9" class="node">
<title>v3</title>
<path fill="#ffd700" stroke="black" d="M489.62,-444.25C489.62,-444.25 396.38,-444.25 396.38,-444.25 390.38,-444.25 384.38,-438.25 384.38,-432.25 384.38,-432.25 384.38,-400.25 384.38,-400.25 384.38,-394.25 390.38,-388.25 396.38,-388.25 396.38,-388.25 489.62,-388.25 489.62,-388.25 495.62,-388.25 501.62,-394.25 501.62,-400.25 501.62,-400.25 501.62,-432.25 501.62,-432.25 501.62,-438.25 495.62,-444.25 489.62,-444.25"/>
<text xml:space="preserve" text-anchor="middle" x="443" y="-430.75" font-family="Arial Bold" font-size="10.00" fill="#333333">7000 words</text>
<text xml:space="preserve" text-anchor="middle" x="443" y="-406.75" font-family="Arial Bold" font-size="10.00" fill="#333333">~90% comprehension</text>
<text xml:space="preserve" text-anchor="middle" x="443" y="-394.75" font-family="Arial Bold" font-size="10.00" fill="#333333">[KEY WATERSHED]</text>
</g>
<!-- cefr_b2&#45;&gt;v3 -->
<g id="edge14" class="edge">
<title>cefr_b2&#45;&gt;v3</title>
<path fill="none" stroke="#999999" stroke-dasharray="5,2" d="M227.48,-334.5C288.17,-334.5 392.44,-334.5 392.44,-334.5 392.44,-334.5 392.44,-376.6 392.44,-376.6"/>
<polygon fill="#999999" stroke="#999999" points="388.94,-376.6 392.44,-386.6 395.94,-376.6 388.94,-376.6"/>
</g>
<!-- cefr_c2 -->
<g id="node6" class="node">
<title>cefr_c2</title>
<path fill="#0d47a1" stroke="black" d="M230.88,-111C230.88,-111 139.12,-111 139.12,-111 133.12,-111 127.12,-105 127.12,-99 127.12,-99 127.12,-52.5 127.12,-52.5 127.12,-46.5 133.12,-40.5 139.12,-40.5 139.12,-40.5 230.88,-40.5 230.88,-40.5 236.88,-40.5 242.88,-46.5 242.88,-52.5 242.88,-52.5 242.88,-99 242.88,-99 242.88,-105 236.88,-111 230.88,-111"/>
<text xml:space="preserve" text-anchor="middle" x="185" y="-98.45" font-family="Arial" font-size="9.00" fill="white">C2</text>
<text xml:space="preserve" text-anchor="middle" x="185" y="-87.95" font-family="Arial" font-size="9.00" fill="white">Mastery</text>
<text xml:space="preserve" text-anchor="middle" x="185" y="-67.45" font-family="Arial" font-size="9.00" fill="white">Can understand virtually</text>
<text xml:space="preserve" text-anchor="middle" x="185" y="-56.95" font-family="Arial" font-size="9.00" fill="white">everything, express</text>
<text xml:space="preserve" text-anchor="middle" x="185" y="-46.45" font-family="Arial" font-size="9.00" fill="white">precisely</text>
</g>
<!-- cefr_c1&#45;&gt;cefr_c2 -->
<g id="edge5" class="edge">
<title>cefr_c1&#45;&gt;cefr_c2</title>
<path fill="none" stroke="#333333" stroke-width="2" d="M185,-153.65C185,-153.65 185,-124.25 185,-124.25"/>
<polygon fill="#333333" stroke="#333333" stroke-width="2" points="188.5,-124.25 185,-114.25 181.5,-124.25 188.5,-124.25"/>
</g>
<!-- v4 -->
<g id="node10" class="node">
<title>v4</title>
<path fill="#2e7d32" stroke="black" d="M473.5,-330.75C473.5,-330.75 412.5,-330.75 412.5,-330.75 406.5,-330.75 400.5,-324.75 400.5,-318.75 400.5,-318.75 400.5,-286.75 400.5,-286.75 400.5,-280.75 406.5,-274.75 412.5,-274.75 412.5,-274.75 473.5,-274.75 473.5,-274.75 479.5,-274.75 485.5,-280.75 485.5,-286.75 485.5,-286.75 485.5,-318.75 485.5,-318.75 485.5,-324.75 479.5,-330.75 473.5,-330.75"/>
<text xml:space="preserve" text-anchor="middle" x="443" y="-317.25" font-family="Arial Bold" font-size="10.00" fill="white">10000+ words</text>
<text xml:space="preserve" text-anchor="middle" x="443" y="-293.25" font-family="Arial Bold" font-size="10.00" fill="white">Context&#45;based</text>
<text xml:space="preserve" text-anchor="middle" x="443" y="-281.25" font-family="Arial Bold" font-size="10.00" fill="white">learning phase</text>
</g>
<!-- cefr_c2&#45;&gt;v4 -->
<g id="edge15" class="edge">
<title>cefr_c2&#45;&gt;v4</title>
<path fill="none" stroke="#999999" stroke-dasharray="5,2" d="M243.22,-75.5C319.32,-75.5 443,-75.5 443,-75.5 443,-75.5 443,-262.91 443,-262.91"/>
<polygon fill="#999999" stroke="#999999" points="439.5,-262.91 443,-272.91 446.5,-262.91 439.5,-262.91"/>
</g>
<!-- v2 -->
<g id="node8" class="node">
<title>v2</title>
<path fill="#a5d6a7" stroke="black" d="M489.62,-546.5C489.62,-546.5 396.38,-546.5 396.38,-546.5 390.38,-546.5 384.38,-540.5 384.38,-534.5 384.38,-534.5 384.38,-514.5 384.38,-514.5 384.38,-508.5 390.38,-502.5 396.38,-502.5 396.38,-502.5 489.62,-502.5 489.62,-502.5 495.62,-502.5 501.62,-508.5 501.62,-514.5 501.62,-514.5 501.62,-534.5 501.62,-534.5 501.62,-540.5 495.62,-546.5 489.62,-546.5"/>
<text xml:space="preserve" text-anchor="middle" x="443" y="-533" font-family="Arial Bold" font-size="10.00" fill="#333333">3000 words</text>
<text xml:space="preserve" text-anchor="middle" x="443" y="-509" font-family="Arial Bold" font-size="10.00" fill="#333333">~80% comprehension</text>
</g>
<!-- v1&#45;&gt;v2 -->
<g id="edge6" class="edge">
<title>v1&#45;&gt;v2</title>
<path fill="none" stroke="#333333" stroke-width="2" d="M443,-610.32C443,-610.32 443,-559.93 443,-559.93"/>
<polygon fill="#333333" stroke="#333333" stroke-width="2" points="446.5,-559.93 443,-549.93 439.5,-559.93 446.5,-559.93"/>
</g>
<!-- v2&#45;&gt;v3 -->
<g id="edge7" class="edge">
<title>v2&#45;&gt;v3</title>
<path fill="none" stroke="#333333" stroke-width="2" d="M443,-502.07C443,-502.07 443,-457.46 443,-457.46"/>
<polygon fill="#333333" stroke="#333333" stroke-width="2" points="446.5,-457.46 443,-447.46 439.5,-457.46 446.5,-457.46"/>
</g>
<!-- v3&#45;&gt;v4 -->
<g id="edge8" class="edge">
<title>v3&#45;&gt;v4</title>
<path fill="none" stroke="#333333" stroke-width="2" d="M443,-387.9C443,-387.9 443,-344.16 443,-344.16"/>
<polygon fill="#333333" stroke="#333333" stroke-width="2" points="446.5,-344.16 443,-334.16 439.5,-344.16 446.5,-344.16"/>
</g>
<!-- life1 -->
<g id="node11" class="node">
<title>life1</title>
<path fill="#fff3e0" stroke="black" d="M623.75,-657.5C623.75,-657.5 552.25,-657.5 552.25,-657.5 546.25,-657.5 540.25,-651.5 540.25,-645.5 540.25,-645.5 540.25,-620 540.25,-620 540.25,-614 546.25,-608 552.25,-608 552.25,-608 623.75,-608 623.75,-608 629.75,-608 635.75,-614 635.75,-620 635.75,-620 635.75,-645.5 635.75,-645.5 635.75,-651.5 629.75,-657.5 623.75,-657.5"/>
<text xml:space="preserve" text-anchor="middle" x="588" y="-644.95" font-family="Arial" font-size="9.00" fill="#333333">1. Open Input</text>
<text xml:space="preserve" text-anchor="middle" x="588" y="-624.45" font-family="Arial" font-size="9.00" fill="#333333">English connects to</text>
<text xml:space="preserve" text-anchor="middle" x="588" y="-613.95" font-family="Arial" font-size="9.00" fill="#333333">wider world</text>
</g>
<!-- v4&#45;&gt;life1 -->
<g id="edge16" class="edge">
<title>v4&#45;&gt;life1</title>
<path fill="none" stroke="#999999" stroke-dasharray="5,2" d="M485.61,-302.5C501.72,-302.5 516.25,-302.5 516.25,-302.5 516.25,-302.5 516.25,-632.5 516.25,-632.5 516.25,-632.5 528.63,-632.5 528.63,-632.5"/>
<polygon fill="#999999" stroke="#999999" points="528.63,-636 538.63,-632.5 528.63,-629 528.63,-636"/>
</g>
<!-- life2 -->
<g id="node12" class="node">
<title>life2</title>
<path fill="#ffe0b2" stroke="black" d="M620.38,-549.25C620.38,-549.25 555.62,-549.25 555.62,-549.25 549.62,-549.25 543.62,-543.25 543.62,-537.25 543.62,-537.25 543.62,-511.75 543.62,-511.75 543.62,-505.75 549.62,-499.75 555.62,-499.75 555.62,-499.75 620.38,-499.75 620.38,-499.75 626.38,-499.75 632.38,-505.75 632.38,-511.75 632.38,-511.75 632.38,-537.25 632.38,-537.25 632.38,-543.25 626.38,-549.25 620.38,-549.25"/>
<text xml:space="preserve" text-anchor="middle" x="588" y="-536.7" font-family="Arial" font-size="9.00" fill="#333333">2. Train Output</text>
<text xml:space="preserve" text-anchor="middle" x="588" y="-516.2" font-family="Arial" font-size="9.00" fill="#333333">Speaking, writing,</text>
<text xml:space="preserve" text-anchor="middle" x="588" y="-505.7" font-family="Arial" font-size="9.00" fill="#333333">retelling, projects</text>
</g>
<!-- life1&#45;&gt;life2 -->
<g id="edge9" class="edge">
<title>life1&#45;&gt;life2</title>
<path fill="none" stroke="#333333" stroke-width="2" d="M588,-607.64C588,-607.64 588,-562.5 588,-562.5"/>
<polygon fill="#333333" stroke="#333333" stroke-width="2" points="591.5,-562.5 588,-552.5 584.5,-562.5 591.5,-562.5"/>
</g>
<!-- life3 -->
<g id="node13" class="node">
<title>life3</title>
<path fill="#ffcc80" stroke="black" d="M620,-441C620,-441 556,-441 556,-441 550,-441 544,-435 544,-429 544,-429 544,-403.5 544,-403.5 544,-397.5 550,-391.5 556,-391.5 556,-391.5 620,-391.5 620,-391.5 626,-391.5 632,-397.5 632,-403.5 632,-403.5 632,-429 632,-429 632,-435 626,-441 620,-441"/>
<text xml:space="preserve" text-anchor="middle" x="588" y="-428.45" font-family="Arial" font-size="9.00" fill="#333333">3. Create Artifacts</text>
<text xml:space="preserve" text-anchor="middle" x="588" y="-407.95" font-family="Arial" font-size="9.00" fill="#333333">Articles, projects,</text>
<text xml:space="preserve" text-anchor="middle" x="588" y="-397.45" font-family="Arial" font-size="9.00" fill="#333333">reports, products</text>
</g>
<!-- life2&#45;&gt;life3 -->
<g id="edge10" class="edge">
<title>life2&#45;&gt;life3</title>
<path fill="none" stroke="#333333" stroke-width="2" d="M588,-499.39C588,-499.39 588,-454.25 588,-454.25"/>
<polygon fill="#333333" stroke="#333333" stroke-width="2" points="591.5,-454.25 588,-444.25 584.5,-454.25 591.5,-454.25"/>
</g>
<!-- life4 -->
<g id="node14" class="node">
<title>life4</title>
<path fill="#ffb74d" stroke="black" d="M627.88,-327.5C627.88,-327.5 548.12,-327.5 548.12,-327.5 542.12,-327.5 536.12,-321.5 536.12,-315.5 536.12,-315.5 536.12,-290 536.12,-290 536.12,-284 542.12,-278 548.12,-278 548.12,-278 627.88,-278 627.88,-278 633.88,-278 639.88,-284 639.88,-290 639.88,-290 639.88,-315.5 639.88,-315.5 639.88,-321.5 633.88,-327.5 627.88,-327.5"/>
<text xml:space="preserve" text-anchor="middle" x="588" y="-314.95" font-family="Arial" font-size="9.00" fill="#333333">4. Review Life</text>
<text xml:space="preserve" text-anchor="middle" x="588" y="-294.45" font-family="Arial" font-size="9.00" fill="#333333">Failure, relationships,</text>
<text xml:space="preserve" text-anchor="middle" x="588" y="-283.95" font-family="Arial" font-size="9.00" fill="#333333">health, choices</text>
</g>
<!-- life3&#45;&gt;life4 -->
<g id="edge11" class="edge">
<title>life3&#45;&gt;life4</title>
<path fill="none" stroke="#333333" stroke-width="2" d="M588,-391.06C588,-391.06 588,-340.9 588,-340.9"/>
<polygon fill="#333333" stroke="#333333" stroke-width="2" points="591.5,-340.9 588,-330.9 584.5,-340.9 591.5,-340.9"/>
</g>
<!-- life5 -->
<g id="node15" class="node">
<title>life5</title>
<path fill="#e65100" stroke="black" d="M633.12,-214C633.12,-214 542.88,-214 542.88,-214 536.88,-214 530.88,-208 530.88,-202 530.88,-202 530.88,-176.5 530.88,-176.5 530.88,-170.5 536.88,-164.5 542.88,-164.5 542.88,-164.5 633.12,-164.5 633.12,-164.5 639.12,-164.5 645.12,-170.5 645.12,-176.5 645.12,-176.5 645.12,-202 645.12,-202 645.12,-208 639.12,-214 633.12,-214"/>
<text xml:space="preserve" text-anchor="middle" x="588" y="-201.45" font-family="Arial" font-size="9.00" fill="white">5. Serve Reality</text>
<text xml:space="preserve" text-anchor="middle" x="588" y="-180.95" font-family="Arial" font-size="9.00" fill="white">Work, entrepreneurship,</text>
<text xml:space="preserve" text-anchor="middle" x="588" y="-170.45" font-family="Arial" font-size="9.00" fill="white">family, community</text>
</g>
<!-- life4&#45;&gt;life5 -->
<g id="edge12" class="edge">
<title>life4&#45;&gt;life5</title>
<path fill="none" stroke="#333333" stroke-width="2" d="M588,-277.56C588,-277.56 588,-227.4 588,-227.4"/>
<polygon fill="#333333" stroke="#333333" stroke-width="2" points="591.5,-227.4 588,-217.4 584.5,-227.4 591.5,-227.4"/>
</g>
</g>
</svg>
