<?xml version="1.0" encoding="UTF-8" standalone="no"?>
<!DOCTYPE svg PUBLIC "-//W3C//DTD SVG 1.1//EN"
 "http://www.w3.org/Graphics/SVG/1.1/DTD/svg11.dtd">
<!-- Generated by graphviz version 14.1.2 (0)
 -->
<!-- Title: G Pages: 1 -->
<svg><style>
    text { paint-order: stroke fill; stroke: #0d1117; stroke-width: 3px; stroke-linejoin: round; }
    </style> width="343pt" height="771pt"
 viewBox="0.00 0.00 343.00 771.00" xmlns="http://www.w3.org/2000/svg" xmlns:xlink="http://www.w3.org/1999/xlink">
<g id="graph0" class="graph" transform="scale(1 1) rotate(0) translate(28.8 741.8)">
<title>G</title>
<polygon fill="#0d1117" stroke="none" points="-28.8,28.8 -28.8,-741.8 314.05,-741.8 314.05,28.8 -28.8,28.8"/>
<!-- title -->
<g id="node1" class="node">
<title>title</title>
<polygon fill="lightgrey" stroke="none" points="285.25,-713 0,-713 0,-675 285.25,-675 285.25,-713"/>
<text xml:space="preserve" text-anchor="middle" x="142.62" y="-688.1" font-family="Segoe UI Bold, Arial, sans-serif" font-size="22.00" fill="#e6edf3">WorldX &#45;&#45; Four Model Roles</text>
</g>
<!-- orchestrator -->
<g id="node2" class="node">
<title>orchestrator</title>
<path fill="#161b22" stroke="#d2a8ff" stroke-width="2" d="M190.38,-630C190.38,-630 94.88,-630 94.88,-630 88.88,-630 82.88,-624 82.88,-618 82.88,-618 82.88,-531 82.88,-531 82.88,-525 88.88,-519 94.88,-519 94.88,-519 190.38,-519 190.38,-519 196.38,-519 202.38,-525 202.38,-531 202.38,-531 202.38,-618 202.38,-618 202.38,-624 196.38,-630 190.38,-630"/>
<text xml:space="preserve" text-anchor="middle" x="142.62" y="-615.55" font-family="Segoe UI, Arial, sans-serif" font-size="11.00" fill="#e6edf3">Orchestrator</text>
<text xml:space="preserve" text-anchor="middle" x="142.62" y="-600.55" font-family="Segoe UI, Arial, sans-serif" font-size="11.00" fill="#e6edf3">World Design</text>
<text xml:space="preserve" text-anchor="middle" x="142.62" y="-585.55" font-family="Segoe UI, Arial, sans-serif" font-size="11.00" fill="#e6edf3">Characters + Rules</text>
<text xml:space="preserve" text-anchor="middle" x="142.62" y="-557.55" font-family="Segoe UI, Arial, sans-serif" font-size="11.00" fill="#e6edf3">Recommended:</text>
<text xml:space="preserve" text-anchor="middle" x="142.62" y="-542.55" font-family="Segoe UI, Arial, sans-serif" font-size="11.00" fill="#e6edf3">Strong reasoning</text>
<text xml:space="preserve" text-anchor="middle" x="142.62" y="-527.55" font-family="Segoe UI, Arial, sans-serif" font-size="11.00" fill="#e6edf3">(e.g., gemini&#45;3.1&#45;pro)</text>
</g>
<!-- title&#45;&gt;orchestrator -->
<!-- image_gen -->
<g id="node3" class="node">
<title>image_gen</title>
<path fill="#161b22" stroke="#f78166" stroke-width="2" d="M201.25,-460.75C201.25,-460.75 84,-460.75 84,-460.75 78,-460.75 72,-454.75 72,-448.75 72,-448.75 72,-361.75 72,-361.75 72,-355.75 78,-349.75 84,-349.75 84,-349.75 201.25,-349.75 201.25,-349.75 207.25,-349.75 213.25,-355.75 213.25,-361.75 213.25,-361.75 213.25,-448.75 213.25,-448.75 213.25,-454.75 207.25,-460.75 201.25,-460.75"/>
<text xml:space="preserve" text-anchor="middle" x="142.62" y="-446.3" font-family="Segoe UI, Arial, sans-serif" font-size="11.00" fill="#e6edf3">Image Gen</text>
<text xml:space="preserve" text-anchor="middle" x="142.62" y="-431.3" font-family="Segoe UI, Arial, sans-serif" font-size="11.00" fill="#e6edf3">Map Art + Sprites</text>
<text xml:space="preserve" text-anchor="middle" x="142.62" y="-416.3" font-family="Segoe UI, Arial, sans-serif" font-size="11.00" fill="#e6edf3">Pixel&#45;Art Generation</text>
<text xml:space="preserve" text-anchor="middle" x="142.62" y="-388.3" font-family="Segoe UI, Arial, sans-serif" font-size="11.00" fill="#e6edf3">Recommended:</text>
<text xml:space="preserve" text-anchor="middle" x="142.62" y="-373.3" font-family="Segoe UI, Arial, sans-serif" font-size="11.00" fill="#e6edf3">Image&#45;capable</text>
<text xml:space="preserve" text-anchor="middle" x="142.62" y="-358.3" font-family="Segoe UI, Arial, sans-serif" font-size="11.00" fill="#e6edf3">(e.g., gemini&#45;flash&#45;image)</text>
</g>
<!-- orchestrator&#45;&gt;image_gen -->
<g id="edge1" class="edge">
<title>orchestrator&#45;&gt;image_gen</title>
<path fill="none" stroke="#d2a8ff" d="M142.62,-518.14C142.62,-518.14 142.62,-473.16 142.62,-473.16"/>
<polygon fill="#d2a8ff" stroke="#d2a8ff" points="146.13,-473.16 142.63,-463.16 139.13,-473.16 146.13,-473.16"/>
<text xml:space="preserve" text-anchor="middle" x="170.75" y="-487.5" font-family="Segoe UI, Arial, sans-serif" font-size="10.00" fill="#8b949e">world config</text>
</g>
<!-- vision -->
<g id="node4" class="node">
<title>vision</title>
<path fill="#161b22" stroke="#58a6ff" stroke-width="2" d="M205,-280.25C205,-280.25 80.25,-280.25 80.25,-280.25 74.25,-280.25 68.25,-274.25 68.25,-268.25 68.25,-268.25 68.25,-181.25 68.25,-181.25 68.25,-175.25 74.25,-169.25 80.25,-169.25 80.25,-169.25 205,-169.25 205,-169.25 211,-169.25 217,-175.25 217,-181.25 217,-181.25 217,-268.25 217,-268.25 217,-274.25 211,-280.25 205,-280.25"/>
<text xml:space="preserve" text-anchor="middle" x="142.62" y="-265.8" font-family="Segoe UI, Arial, sans-serif" font-size="11.00" fill="#e6edf3">Vision</text>
<text xml:space="preserve" text-anchor="middle" x="142.62" y="-250.8" font-family="Segoe UI, Arial, sans-serif" font-size="11.00" fill="#e6edf3">Map Quality Review</text>
<text xml:space="preserve" text-anchor="middle" x="142.62" y="-235.8" font-family="Segoe UI, Arial, sans-serif" font-size="11.00" fill="#e6edf3">Region + Element Location</text>
<text xml:space="preserve" text-anchor="middle" x="142.62" y="-207.8" font-family="Segoe UI, Arial, sans-serif" font-size="11.00" fill="#e6edf3">Recommended:</text>
<text xml:space="preserve" text-anchor="middle" x="142.62" y="-192.8" font-family="Segoe UI, Arial, sans-serif" font-size="11.00" fill="#e6edf3">Multimodal</text>
<text xml:space="preserve" text-anchor="middle" x="142.62" y="-177.8" font-family="Segoe UI, Arial, sans-serif" font-size="11.00" fill="#e6edf3">(e.g., gemini&#45;3.1&#45;pro)</text>
</g>
<!-- image_gen&#45;&gt;vision -->
<g id="edge2" class="edge">
<title>image_gen&#45;&gt;vision</title>
<path fill="none" stroke="#f78166" d="M166.17,-349.13C166.17,-349.13 166.17,-292.66 166.17,-292.66"/>
<polygon fill="#f78166" stroke="#f78166" points="169.67,-292.66 166.17,-282.66 162.67,-292.66 169.67,-292.66"/>
<text xml:space="preserve" text-anchor="middle" x="122.75" y="-312.62" font-family="Segoe UI, Arial, sans-serif" font-size="10.00" fill="#8b949e">generated art</text>
</g>
<!-- vision&#45;&gt;image_gen -->
<g id="edge3" class="edge">
<title>vision&#45;&gt;image_gen</title>
<path fill="none" stroke="#58a6ff" stroke-dasharray="5,2" d="M119.08,-280.87C119.08,-280.87 119.08,-337.34 119.08,-337.34"/>
<polygon fill="#58a6ff" stroke="#58a6ff" points="115.58,-337.34 119.08,-347.34 122.58,-337.34 115.58,-337.34"/>
<text xml:space="preserve" text-anchor="middle" x="212.62" y="-319.2" font-family="Segoe UI, Arial, sans-serif" font-size="9.00" fill="#8b949e">revision</text>
<text xml:space="preserve" text-anchor="middle" x="212.62" y="-306.45" font-family="Segoe UI, Arial, sans-serif" font-size="9.00" fill="#8b949e">feedback</text>
</g>
<!-- simulation -->
<g id="node5" class="node">
<title>simulation</title>
<path fill="#161b22" stroke="#3fb950" stroke-width="2" d="M193,-111C193,-111 92.25,-111 92.25,-111 86.25,-111 80.25,-105 80.25,-99 80.25,-99 80.25,-12 80.25,-12 80.25,-6 86.25,0 92.25,0 92.25,0 193,0 193,0 199,0 205,-6 205,-12 205,-12 205,-99 205,-99 205,-105 199,-111 193,-111"/>
<text xml:space="preserve" text-anchor="middle" x="142.62" y="-96.55" font-family="Segoe UI, Arial, sans-serif" font-size="11.00" fill="#e6edf3">Simulation</text>
<text xml:space="preserve" text-anchor="middle" x="142.62" y="-81.55" font-family="Segoe UI, Arial, sans-serif" font-size="11.00" fill="#e6edf3">Agent Behavior</text>
<text xml:space="preserve" text-anchor="middle" x="142.62" y="-66.55" font-family="Segoe UI, Arial, sans-serif" font-size="11.00" fill="#e6edf3">Decisions + Dialogue</text>
<text xml:space="preserve" text-anchor="middle" x="142.62" y="-38.55" font-family="Segoe UI, Arial, sans-serif" font-size="11.00" fill="#e6edf3">Recommended:</text>
<text xml:space="preserve" text-anchor="middle" x="142.62" y="-23.55" font-family="Segoe UI, Arial, sans-serif" font-size="11.00" fill="#e6edf3">Any model</text>
<text xml:space="preserve" text-anchor="middle" x="142.62" y="-8.55" font-family="Segoe UI, Arial, sans-serif" font-size="11.00" fill="#e6edf3">(e.g., gemini&#45;2.5&#45;flash)</text>
</g>
<!-- vision&#45;&gt;simulation -->
<g id="edge4" class="edge">
<title>vision&#45;&gt;simulation</title>
<path fill="none" stroke="#58a6ff" d="M142.62,-168.39C142.62,-168.39 142.62,-123.41 142.62,-123.41"/>
<polygon fill="#58a6ff" stroke="#58a6ff" points="146.13,-123.41 142.63,-113.41 139.13,-123.41 146.13,-123.41"/>
<text xml:space="preserve" text-anchor="middle" x="179.38" y="-137.75" font-family="Segoe UI, Arial, sans-serif" font-size="10.00" fill="#8b949e">approved assets</text>
</g>
</g>
</svg>
