<?xml version="1.0" encoding="UTF-8" standalone="no"?>
<!DOCTYPE svg PUBLIC "-//W3C//DTD SVG 1.1//EN"
 "http://www.w3.org/Graphics/SVG/1.1/DTD/svg11.dtd">
<!-- Generated by graphviz version 14.1.2 (0)
 -->
<!-- Title: G Pages: 1 -->
<svg width="514pt" height="494pt"
 viewBox="0.00 0.00 514.00 494.00" xmlns="http://www.w3.org/2000/svg" xmlns:xlink="http://www.w3.org/1999/xlink">
<style>
    text { paint-order: stroke fill; stroke: #0d1117; stroke-width: 3px; stroke-linejoin: round; }
</style>
<g id="graph0" class="graph" transform="scale(1 1) rotate(0) translate(28.8 464.96)">
<title>G</title>
<polygon fill="#0d1117" stroke="none" points="-28.8,28.8 -28.8,-464.96 484.93,-464.96 484.93,28.8 -28.8,28.8"/>
<!-- title -->
<g id="node1" class="node">
<title>title</title>
<polygon fill="lightgrey" stroke="none" points="307.75,-425.28 0,-425.28 0,-387.28 307.75,-387.28 307.75,-425.28"/>
<text xml:space="preserve" text-anchor="middle" x="153.88" y="-400.38" font-family="Segoe UI Bold, Arial, sans-serif" font-size="22.00" fill="#e6edf3">WorldX &#45;&#45; Project Architecture</text>
</g>
<!-- client -->
<g id="node2" class="node">
<title>client</title>
<path fill="#161b22" stroke="#58a6ff" stroke-width="2" d="M229,-318.16C229,-318.16 120.75,-318.16 120.75,-318.16 114.75,-318.16 108.75,-312.16 108.75,-306.16 108.75,-306.16 108.75,-270.41 108.75,-270.41 108.75,-264.41 114.75,-258.41 120.75,-258.41 120.75,-258.41 229,-258.41 229,-258.41 235,-258.41 241,-264.41 241,-270.41 241,-270.41 241,-306.16 241,-306.16 241,-312.16 235,-318.16 229,-318.16"/>
<text xml:space="preserve" text-anchor="middle" x="174.88" y="-302.76" font-family="Segoe UI, Arial, sans-serif" font-size="12.00" fill="#e6edf3">Client Layer</text>
<text xml:space="preserve" text-anchor="middle" x="174.88" y="-285.51" font-family="Segoe UI, Arial, sans-serif" font-size="12.00" fill="#e6edf3">Phaser 3 + React 19</text>
<text xml:space="preserve" text-anchor="middle" x="174.88" y="-268.26" font-family="Segoe UI, Arial, sans-serif" font-size="12.00" fill="#e6edf3">Pixel&#45;Art Game Engine</text>
</g>
<!-- title&#45;&gt;client -->
<!-- server -->
<g id="node3" class="node">
<title>server</title>
<path fill="#161b22" stroke="#3fb950" stroke-width="2" d="M384.12,-200.16C384.12,-200.16 267.62,-200.16 267.62,-200.16 261.62,-200.16 255.62,-194.16 255.62,-188.16 255.62,-188.16 255.62,-152.41 255.62,-152.41 255.62,-146.41 261.62,-140.41 267.62,-140.41 267.62,-140.41 384.12,-140.41 384.12,-140.41 390.12,-140.41 396.12,-146.41 396.12,-152.41 396.12,-152.41 396.12,-188.16 396.12,-188.16 396.12,-194.16 390.12,-200.16 384.12,-200.16"/>
<text xml:space="preserve" text-anchor="middle" x="325.88" y="-184.76" font-family="Segoe UI, Arial, sans-serif" font-size="12.00" fill="#e6edf3">Server Layer</text>
<text xml:space="preserve" text-anchor="middle" x="325.88" y="-167.51" font-family="Segoe UI, Arial, sans-serif" font-size="12.00" fill="#e6edf3">Express + SQLite + LLM</text>
<text xml:space="preserve" text-anchor="middle" x="325.88" y="-150.26" font-family="Segoe UI, Arial, sans-serif" font-size="12.00" fill="#e6edf3">Simulation Engine</text>
</g>
<!-- client&#45;&gt;server -->
<g id="edge1" class="edge">
<title>client&#45;&gt;server</title>
<path fill="none" stroke="#58a6ff" d="M241.91,-288C263.37,-288 281.69,-288 281.69,-288 281.69,-288 281.69,-212.42 281.69,-212.42"/>
<polygon fill="#58a6ff" stroke="#58a6ff" points="285.19,-212.42 281.69,-202.42 278.19,-212.42 285.19,-212.42"/>
<text xml:space="preserve" text-anchor="middle" x="286.38" y="-226.91" font-family="Segoe UI, Arial, sans-serif" font-size="10.00" fill="#8b949e">HTTP + SSE</text>
</g>
<!-- storage -->
<g id="node6" class="node">
<title>storage</title>
<path fill="#1c2333" stroke="#ffa657" stroke-width="2" d="M275.88,-74.69C275.88,-78.81 244.05,-82.16 204.88,-82.16 165.7,-82.16 133.88,-78.81 133.88,-74.69 133.88,-74.69 133.88,-7.47 133.88,-7.47 133.88,-3.35 165.7,0 204.88,0 244.05,0 275.88,-3.35 275.88,-7.47 275.88,-7.47 275.88,-74.69 275.88,-74.69"/>
<path fill="none" stroke="#ffa657" stroke-width="2" d="M275.88,-74.69C275.88,-70.57 244.05,-67.22 204.88,-67.22 165.7,-67.22 133.88,-70.57 133.88,-74.69"/>
<text xml:space="preserve" text-anchor="middle" x="204.88" y="-55.55" font-family="Segoe UI, Arial, sans-serif" font-size="12.00" fill="#e6edf3">SQLite Storage</text>
<text xml:space="preserve" text-anchor="middle" x="204.88" y="-38.3" font-family="Segoe UI, Arial, sans-serif" font-size="12.00" fill="#e6edf3">Per&#45;Timeline Persistence</text>
<text xml:space="preserve" text-anchor="middle" x="204.88" y="-21.05" font-family="Segoe UI, Arial, sans-serif" font-size="12.00" fill="#e6edf3">World + Character State</text>
</g>
<!-- server&#45;&gt;storage -->
<g id="edge4" class="edge">
<title>server&#45;&gt;storage</title>
<path fill="none" stroke="#3fb950" d="M265.75,-139.66C265.75,-139.66 265.75,-92.3 265.75,-92.3"/>
<polygon fill="#3fb950" stroke="#3fb950" points="269.25,-92.3 265.75,-82.3 262.25,-92.3 269.25,-92.3"/>
<text xml:space="preserve" text-anchor="middle" x="303.12" y="-108.91" font-family="Segoe UI, Arial, sans-serif" font-size="10.00" fill="#8b949e">read/write</text>
</g>
<!-- orch -->
<g id="node4" class="node">
<title>orch</title>
<path fill="#161b22" stroke="#d2a8ff" stroke-width="2" d="M443.88,-436.16C443.88,-436.16 355.88,-436.16 355.88,-436.16 349.88,-436.16 343.88,-430.16 343.88,-424.16 343.88,-424.16 343.88,-388.41 343.88,-388.41 343.88,-382.41 349.88,-376.41 355.88,-376.41 355.88,-376.41 443.88,-376.41 443.88,-376.41 449.88,-376.41 455.88,-382.41 455.88,-388.41 455.88,-388.41 455.88,-424.16 455.88,-424.16 455.88,-430.16 449.88,-436.16 443.88,-436.16"/>
<text xml:space="preserve" text-anchor="middle" x="399.88" y="-420.76" font-family="Segoe UI, Arial, sans-serif" font-size="12.00" fill="#e6edf3">Orchestrator</text>
<text xml:space="preserve" text-anchor="middle" x="399.88" y="-403.51" font-family="Segoe UI, Arial, sans-serif" font-size="12.00" fill="#e6edf3">LLM World Design</text>
<text xml:space="preserve" text-anchor="middle" x="399.88" y="-386.26" font-family="Segoe UI, Arial, sans-serif" font-size="12.00" fill="#e6edf3">Config Generation</text>
</g>
<!-- gen -->
<g id="node5" class="node">
<title>gen</title>
<path fill="#161b22" stroke="#f78166" stroke-width="2" d="M428.12,-318.16C428.12,-318.16 329.62,-318.16 329.62,-318.16 323.62,-318.16 317.62,-312.16 317.62,-306.16 317.62,-306.16 317.62,-270.41 317.62,-270.41 317.62,-264.41 323.62,-258.41 329.62,-258.41 329.62,-258.41 428.12,-258.41 428.12,-258.41 434.12,-258.41 440.12,-264.41 440.12,-270.41 440.12,-270.41 440.12,-306.16 440.12,-306.16 440.12,-312.16 434.12,-318.16 428.12,-318.16"/>
<text xml:space="preserve" text-anchor="middle" x="378.88" y="-302.76" font-family="Segoe UI, Arial, sans-serif" font-size="12.00" fill="#e6edf3">Generators</text>
<text xml:space="preserve" text-anchor="middle" x="378.88" y="-285.51" font-family="Segoe UI, Arial, sans-serif" font-size="12.00" fill="#e6edf3">Map + Character Art</text>
<text xml:space="preserve" text-anchor="middle" x="378.88" y="-268.26" font-family="Segoe UI, Arial, sans-serif" font-size="12.00" fill="#e6edf3">Multi&#45;Step + Review</text>
</g>
<!-- orch&#45;&gt;gen -->
<g id="edge2" class="edge">
<title>orch&#45;&gt;gen</title>
<path fill="none" stroke="#d2a8ff" d="M392,-375.59C392,-375.59 392,-330.34 392,-330.34"/>
<polygon fill="#d2a8ff" stroke="#d2a8ff" points="395.5,-330.34 392,-320.34 388.5,-330.34 395.5,-330.34"/>
<text xml:space="preserve" text-anchor="middle" x="428" y="-344.91" font-family="Segoe UI, Arial, sans-serif" font-size="10.00" fill="#8b949e">world config</text>
</g>
<!-- gen&#45;&gt;server -->
<g id="edge3" class="edge">
<title>gen&#45;&gt;server</title>
<path fill="none" stroke="#f78166" d="M356.88,-257.59C356.88,-257.59 356.88,-212.34 356.88,-212.34"/>
<polygon fill="#f78166" stroke="#f78166" points="360.38,-212.34 356.88,-202.34 353.38,-212.34 360.38,-212.34"/>
<text xml:space="preserve" text-anchor="middle" x="379.75" y="-226.91" font-family="Segoe UI, Arial, sans-serif" font-size="10.00" fill="#8b949e">assets</text>
</g>
<!-- storage&#45;&gt;client -->
<g id="edge5" class="edge">
<title>storage&#45;&gt;client</title>
<path fill="none" stroke="#ffa657" stroke-dasharray="5,2" d="M187.44,-83.01C187.44,-83.01 187.44,-245.98 187.44,-245.98"/>
<polygon fill="#ffa657" stroke="#ffa657" points="183.94,-245.98 187.44,-255.98 190.94,-245.98 183.94,-245.98"/>
<text xml:space="preserve" text-anchor="middle" x="197.38" y="-167.91" font-family="Segoe UI, Arial, sans-serif" font-size="10.00" fill="#8b949e">state sync</text>
</g>
</g>
</svg>
