<?xml version="1.0" encoding="UTF-8" standalone="no"?>
<!DOCTYPE svg PUBLIC "-//W3C//DTD SVG 1.1//EN"
 "http://www.w3.org/Graphics/SVG/1.1/DTD/svg11.dtd">
<!-- Generated by graphviz version 14.1.2 (0)
 -->
<!-- Title: G Pages: 1 -->
<svg width="1802pt" height="712pt"
 viewBox="0.00 0.00 1802.00 712.00" xmlns="http://www.w3.org/2000/svg" xmlns:xlink="http://www.w3.org/1999/xlink">
<g id="graph0" class="graph" transform="scale(2.08333 2.08333) rotate(0) translate(36 305.8)">
<title>G</title>
<!-- engine -->
<g id="node1" class="node">
<title>engine</title>
<polygon fill="#4a90d9" stroke="black" stroke-width="2" points="472,-269.8 296,-269.8 292,-265.8 292,-212.2 468,-212.2 472,-216.2 472,-269.8"/>
<polyline fill="none" stroke="black" stroke-width="2" points="468,-265.8 292,-265.8"/>
<polyline fill="none" stroke="black" stroke-width="2" points="468,-265.8 468,-212.2"/>
<polyline fill="none" stroke="black" stroke-width="2" points="468,-265.8 472,-269.8"/>
<text xml:space="preserve" text-anchor="middle" x="382" y="-235.57" font-family="Arial" font-size="14.00" fill="#ffffff">iii Engine</text>
</g>
<!-- http -->
<g id="node2" class="node">
<title>http</title>
<path fill="#7bc67e" stroke="black" stroke-width="1.5" d="M96,-145.7C96,-145.7 12,-145.7 12,-145.7 6,-145.7 0,-139.7 0,-133.7 0,-133.7 0,-121.7 0,-121.7 0,-115.7 6,-109.7 12,-109.7 12,-109.7 96,-109.7 96,-109.7 102,-109.7 108,-115.7 108,-121.7 108,-121.7 108,-133.7 108,-133.7 108,-139.7 102,-145.7 96,-145.7"/>
<text xml:space="preserve" text-anchor="middle" x="54" y="-124" font-family="Arial" font-size="11.00" fill="#ffffff">iii&#45;http</text>
</g>
<!-- engine&#45;&gt;http -->
<g id="edge1" class="edge">
<title>engine&#45;&gt;http</title>
<path fill="none" stroke="#4a90d9" stroke-width="1.5" d="M291.07,-251C194,-251 54,-251 54,-251 54,-251 54,-156.7 54,-156.7"/>
<polygon fill="#4a90d9" stroke="#4a90d9" stroke-width="1.5" points="56.8,-156.7 54,-148.7 51.2,-156.7 56.8,-156.7"/>
<text xml:space="preserve" text-anchor="middle" x="133.25" y="-173.9" font-family="Times New Roman,serif" font-size="14.00">provides</text>
</g>
<!-- cron -->
<g id="node3" class="node">
<title>cron</title>
<path fill="#7bc67e" stroke="black" stroke-width="1.5" d="M233,-145.7C233,-145.7 149,-145.7 149,-145.7 143,-145.7 137,-139.7 137,-133.7 137,-133.7 137,-121.7 137,-121.7 137,-115.7 143,-109.7 149,-109.7 149,-109.7 233,-109.7 233,-109.7 239,-109.7 245,-115.7 245,-121.7 245,-121.7 245,-133.7 245,-133.7 245,-139.7 239,-145.7 233,-145.7"/>
<text xml:space="preserve" text-anchor="middle" x="191" y="-124" font-family="Arial" font-size="11.00" fill="#ffffff">iii&#45;cron</text>
</g>
<!-- engine&#45;&gt;cron -->
<g id="edge2" class="edge">
<title>engine&#45;&gt;cron</title>
<path fill="none" stroke="#4a90d9" stroke-width="1.5" d="M291.25,-231C241.97,-231 191,-231 191,-231 191,-231 191,-156.44 191,-156.44"/>
<polygon fill="#4a90d9" stroke="#4a90d9" stroke-width="1.5" points="193.8,-156.44 191,-148.44 188.2,-156.44 193.8,-156.44"/>
<text xml:space="preserve" text-anchor="middle" x="242.25" y="-173.9" font-family="Times New Roman,serif" font-size="14.00">provides</text>
</g>
<!-- queue -->
<g id="node4" class="node">
<title>queue</title>
<path fill="#7bc67e" stroke="black" stroke-width="1.5" d="M370,-145.7C370,-145.7 286,-145.7 286,-145.7 280,-145.7 274,-139.7 274,-133.7 274,-133.7 274,-121.7 274,-121.7 274,-115.7 280,-109.7 286,-109.7 286,-109.7 370,-109.7 370,-109.7 376,-109.7 382,-115.7 382,-121.7 382,-121.7 382,-133.7 382,-133.7 382,-139.7 376,-145.7 370,-145.7"/>
<text xml:space="preserve" text-anchor="middle" x="328" y="-124" font-family="Arial" font-size="11.00" fill="#ffffff">iii&#45;queue</text>
</g>
<!-- engine&#45;&gt;queue -->
<g id="edge3" class="edge">
<title>engine&#45;&gt;queue</title>
<path fill="none" stroke="#4a90d9" stroke-width="1.5" d="M337,-211.23C337,-211.23 337,-156.55 337,-156.55"/>
<polygon fill="#4a90d9" stroke="#4a90d9" stroke-width="1.5" points="339.8,-156.55 337,-148.55 334.2,-156.55 339.8,-156.55"/>
<text xml:space="preserve" text-anchor="middle" x="365.25" y="-173.9" font-family="Times New Roman,serif" font-size="14.00">provides</text>
</g>
<!-- state -->
<g id="node5" class="node">
<title>state</title>
<path fill="#7bc67e" stroke="black" stroke-width="1.5" d="M507,-145.7C507,-145.7 423,-145.7 423,-145.7 417,-145.7 411,-139.7 411,-133.7 411,-133.7 411,-121.7 411,-121.7 411,-115.7 417,-109.7 423,-109.7 423,-109.7 507,-109.7 507,-109.7 513,-109.7 519,-115.7 519,-121.7 519,-121.7 519,-133.7 519,-133.7 519,-139.7 513,-145.7 507,-145.7"/>
<text xml:space="preserve" text-anchor="middle" x="465" y="-124" font-family="Arial" font-size="11.00" fill="#ffffff">iii&#45;state</text>
</g>
<!-- engine&#45;&gt;state -->
<g id="edge4" class="edge">
<title>engine&#45;&gt;state</title>
<path fill="none" stroke="#4a90d9" stroke-width="1.5" d="M441.5,-211.23C441.5,-211.23 441.5,-156.55 441.5,-156.55"/>
<polygon fill="#4a90d9" stroke="#4a90d9" stroke-width="1.5" points="444.3,-156.55 441.5,-148.55 438.7,-156.55 444.3,-156.55"/>
<text xml:space="preserve" text-anchor="middle" x="474.25" y="-173.9" font-family="Times New Roman,serif" font-size="14.00">provides</text>
</g>
<!-- stream -->
<g id="node6" class="node">
<title>stream</title>
<path fill="#7bc67e" stroke="black" stroke-width="1.5" d="M644,-145.7C644,-145.7 560,-145.7 560,-145.7 554,-145.7 548,-139.7 548,-133.7 548,-133.7 548,-121.7 548,-121.7 548,-115.7 554,-109.7 560,-109.7 560,-109.7 644,-109.7 644,-109.7 650,-109.7 656,-115.7 656,-121.7 656,-121.7 656,-133.7 656,-133.7 656,-139.7 650,-145.7 644,-145.7"/>
<text xml:space="preserve" text-anchor="middle" x="602" y="-124" font-family="Arial" font-size="11.00" fill="#ffffff">iii&#45;stream</text>
</g>
<!-- engine&#45;&gt;stream -->
<g id="edge5" class="edge">
<title>engine&#45;&gt;stream</title>
<path fill="none" stroke="#4a90d9" stroke-width="1.5" d="M472.75,-231C533.35,-231 602,-231 602,-231 602,-231 602,-156.44 602,-156.44"/>
<polygon fill="#4a90d9" stroke="#4a90d9" stroke-width="1.5" points="604.8,-156.44 602,-148.44 599.2,-156.44 604.8,-156.44"/>
<text xml:space="preserve" text-anchor="middle" x="597.25" y="-173.9" font-family="Times New Roman,serif" font-size="14.00">provides</text>
</g>
<!-- obs -->
<g id="node7" class="node">
<title>obs</title>
<path fill="#7bc67e" stroke="black" stroke-width="1.5" d="M781,-145.7C781,-145.7 697,-145.7 697,-145.7 691,-145.7 685,-139.7 685,-133.7 685,-133.7 685,-121.7 685,-121.7 685,-115.7 691,-109.7 697,-109.7 697,-109.7 781,-109.7 781,-109.7 787,-109.7 793,-115.7 793,-121.7 793,-121.7 793,-133.7 793,-133.7 793,-139.7 787,-145.7 781,-145.7"/>
<text xml:space="preserve" text-anchor="middle" x="739" y="-124" font-family="Arial" font-size="11.00" fill="#ffffff">iii&#45;observability</text>
</g>
<!-- engine&#45;&gt;obs -->
<g id="edge6" class="edge">
<title>engine&#45;&gt;obs</title>
<path fill="none" stroke="#4a90d9" stroke-width="1.5" d="M472.55,-251C578.31,-251 739,-251 739,-251 739,-251 739,-156.7 739,-156.7"/>
<polygon fill="#4a90d9" stroke="#4a90d9" stroke-width="1.5" points="741.8,-156.7 739,-148.7 736.2,-156.7 741.8,-156.7"/>
<text xml:space="preserve" text-anchor="middle" x="727.25" y="-173.9" font-family="Times New Roman,serif" font-size="14.00">provides</text>
</g>
<!-- replace_http -->
<g id="node8" class="node">
<title>replace_http</title>
<polygon fill="#fff3e0" stroke="black" points="102,-43.2 0,-43.2 0,0 108,0 108,-37.2 102,-43.2"/>
<polyline fill="none" stroke="black" points="102,-43.2 102,-37.2"/>
<polyline fill="none" stroke="black" points="108,-37.2 102,-37.2"/>
<text xml:space="preserve" text-anchor="middle" x="54" y="-23.55" font-family="Arial" font-size="9.00" fill="#212529">Replaces:</text>
<text xml:space="preserve" text-anchor="middle" x="54" y="-13.05" font-family="Arial" font-size="9.00" fill="#212529">Express/FastAPI</text>
</g>
<!-- http&#45;&gt;replace_http -->
<g id="edge7" class="edge">
<title>http&#45;&gt;replace_http</title>
<path fill="none" stroke="#e8a838" stroke-dasharray="5,2" d="M54,-109.22C54,-109.22 54,-52.05 54,-52.05"/>
<polygon fill="#e8a838" stroke="#e8a838" points="56.45,-52.05 54,-45.05 51.55,-52.05 56.45,-52.05"/>
<text xml:space="preserve" text-anchor="middle" x="76.12" y="-71.4" font-family="Times New Roman,serif" font-size="14.00">replaces</text>
</g>
<!-- replace_cron -->
<g id="node9" class="node">
<title>replace_cron</title>
<polygon fill="#fff3e0" stroke="black" points="239,-43.2 137,-43.2 137,0 245,0 245,-37.2 239,-43.2"/>
<polyline fill="none" stroke="black" points="239,-43.2 239,-37.2"/>
<polyline fill="none" stroke="black" points="245,-37.2 239,-37.2"/>
<text xml:space="preserve" text-anchor="middle" x="191" y="-23.55" font-family="Arial" font-size="9.00" fill="#212529">Replaces:</text>
<text xml:space="preserve" text-anchor="middle" x="191" y="-13.05" font-family="Arial" font-size="9.00" fill="#212529">Cron/Airflow</text>
</g>
<!-- cron&#45;&gt;replace_cron -->
<g id="edge8" class="edge">
<title>cron&#45;&gt;replace_cron</title>
<path fill="none" stroke="#e8a838" stroke-dasharray="5,2" d="M191,-109.22C191,-109.22 191,-52.05 191,-52.05"/>
<polygon fill="#e8a838" stroke="#e8a838" points="193.45,-52.05 191,-45.05 188.55,-52.05 193.45,-52.05"/>
<text xml:space="preserve" text-anchor="middle" x="213.12" y="-71.4" font-family="Times New Roman,serif" font-size="14.00">replaces</text>
</g>
<!-- replace_queue -->
<g id="node10" class="node">
<title>replace_queue</title>
<polygon fill="#fff3e0" stroke="black" points="376,-43.2 274,-43.2 274,0 382,0 382,-37.2 376,-43.2"/>
<polyline fill="none" stroke="black" points="376,-43.2 376,-37.2"/>
<polyline fill="none" stroke="black" points="382,-37.2 376,-37.2"/>
<text xml:space="preserve" text-anchor="middle" x="328" y="-23.55" font-family="Arial" font-size="9.00" fill="#212529">Replaces:</text>
<text xml:space="preserve" text-anchor="middle" x="328" y="-13.05" font-family="Arial" font-size="9.00" fill="#212529">Celery/Bull</text>
</g>
<!-- queue&#45;&gt;replace_queue -->
<g id="edge9" class="edge">
<title>queue&#45;&gt;replace_queue</title>
<path fill="none" stroke="#e8a838" stroke-dasharray="5,2" d="M328,-109.22C328,-109.22 328,-52.05 328,-52.05"/>
<polygon fill="#e8a838" stroke="#e8a838" points="330.45,-52.05 328,-45.05 325.55,-52.05 330.45,-52.05"/>
<text xml:space="preserve" text-anchor="middle" x="350.12" y="-71.4" font-family="Times New Roman,serif" font-size="14.00">replaces</text>
</g>
<!-- replace_state -->
<g id="node11" class="node">
<title>replace_state</title>
<polygon fill="#fff3e0" stroke="black" points="513,-43.2 411,-43.2 411,0 519,0 519,-37.2 513,-43.2"/>
<polyline fill="none" stroke="black" points="513,-43.2 513,-37.2"/>
<polyline fill="none" stroke="black" points="519,-37.2 513,-37.2"/>
<text xml:space="preserve" text-anchor="middle" x="465" y="-23.55" font-family="Arial" font-size="9.00" fill="#212529">Replaces:</text>
<text xml:space="preserve" text-anchor="middle" x="465" y="-13.05" font-family="Arial" font-size="9.00" fill="#212529">Redis/etcd</text>
</g>
<!-- state&#45;&gt;replace_state -->
<g id="edge10" class="edge">
<title>state&#45;&gt;replace_state</title>
<path fill="none" stroke="#e8a838" stroke-dasharray="5,2" d="M465,-109.22C465,-109.22 465,-52.05 465,-52.05"/>
<polygon fill="#e8a838" stroke="#e8a838" points="467.45,-52.05 465,-45.05 462.55,-52.05 467.45,-52.05"/>
<text xml:space="preserve" text-anchor="middle" x="487.12" y="-71.4" font-family="Times New Roman,serif" font-size="14.00">replaces</text>
</g>
<!-- replace_stream -->
<g id="node12" class="node">
<title>replace_stream</title>
<polygon fill="#fff3e0" stroke="black" points="650,-43.2 548,-43.2 548,0 656,0 656,-37.2 650,-43.2"/>
<polyline fill="none" stroke="black" points="650,-43.2 650,-37.2"/>
<polyline fill="none" stroke="black" points="656,-37.2 650,-37.2"/>
<text xml:space="preserve" text-anchor="middle" x="602" y="-23.55" font-family="Arial" font-size="9.00" fill="#212529">Replaces:</text>
<text xml:space="preserve" text-anchor="middle" x="602" y="-13.05" font-family="Arial" font-size="9.00" fill="#212529">Socket.io/Pusher</text>
</g>
<!-- stream&#45;&gt;replace_stream -->
<g id="edge11" class="edge">
<title>stream&#45;&gt;replace_stream</title>
<path fill="none" stroke="#e8a838" stroke-dasharray="5,2" d="M602,-109.22C602,-109.22 602,-52.05 602,-52.05"/>
<polygon fill="#e8a838" stroke="#e8a838" points="604.45,-52.05 602,-45.05 599.55,-52.05 604.45,-52.05"/>
<text xml:space="preserve" text-anchor="middle" x="624.12" y="-71.4" font-family="Times New Roman,serif" font-size="14.00">replaces</text>
</g>
<!-- replace_obs -->
<g id="node13" class="node">
<title>replace_obs</title>
<polygon fill="#fff3e0" stroke="black" points="787,-43.2 685,-43.2 685,0 793,0 793,-37.2 787,-43.2"/>
<polyline fill="none" stroke="black" points="787,-43.2 787,-37.2"/>
<polyline fill="none" stroke="black" points="793,-37.2 787,-37.2"/>
<text xml:space="preserve" text-anchor="middle" x="739" y="-23.55" font-family="Arial" font-size="9.00" fill="#212529">Replaces:</text>
<text xml:space="preserve" text-anchor="middle" x="739" y="-13.05" font-family="Arial" font-size="9.00" fill="#212529">OpenTelemetry</text>
</g>
<!-- obs&#45;&gt;replace_obs -->
<g id="edge12" class="edge">
<title>obs&#45;&gt;replace_obs</title>
<path fill="none" stroke="#e8a838" stroke-dasharray="5,2" d="M739,-109.22C739,-109.22 739,-52.05 739,-52.05"/>
<polygon fill="#e8a838" stroke="#e8a838" points="741.45,-52.05 739,-45.05 736.55,-52.05 741.45,-52.05"/>
<text xml:space="preserve" text-anchor="middle" x="761.12" y="-71.4" font-family="Times New Roman,serif" font-size="14.00">replaces</text>
</g>
</g>
</svg>
