<?xml version="1.0" encoding="UTF-8" standalone="no"?>
<!DOCTYPE svg PUBLIC "-//W3C//DTD SVG 1.1//EN"
 "http://www.w3.org/Graphics/SVG/1.1/DTD/svg11.dtd">
<!-- Generated by graphviz version 14.1.2 (0)
 -->
<!-- Title: aie_architecture Pages: 1 -->
<svg width="469pt" height="1105pt"
 viewBox="0.00 0.00 469.00 1105.00" xmlns="http://www.w3.org/2000/svg" xmlns:xlink="http://www.w3.org/1999/xlink">
<g id="graph0" class="graph" transform="scale(1 1) rotate(0) translate(36 1069.25)">
<title>aie_architecture</title>
<polygon fill="#0d1117" stroke="none" points="-36,36 -36,-1069.25 432.75,-1069.25 432.75,36 -36,36"/>
<!-- p0 -->
<g id="node1" class="node">
<title>p0</title>
<path fill="#1a1a2e" stroke="black" stroke-width="0" d="M232,-1033.25C232,-1033.25 193.5,-1033.25 193.5,-1033.25 187.5,-1033.25 181.5,-1027.25 181.5,-1021.25 181.5,-1021.25 181.5,-999 181.5,-999 181.5,-993 187.5,-987 193.5,-987 193.5,-987 232,-987 232,-987 238,-987 244,-993 244,-999 244,-999 244,-1021.25 244,-1021.25 244,-1027.25 238,-1033.25 232,-1033.25"/>
<text xml:space="preserve" text-anchor="middle" x="212.75" y="-1020.7" font-family="Segoe UI" font-size="9.00" fill="white">P0: Setup</text>
<text xml:space="preserve" text-anchor="middle" x="212.75" y="-1007.95" font-family="Segoe UI" font-size="9.00" fill="white">and Tooling</text>
<text xml:space="preserve" text-anchor="middle" x="212.75" y="-995.2" font-family="Segoe UI" font-size="9.00" fill="white">(12 lessons)</text>
</g>
<!-- p1 -->
<g id="node2" class="node">
<title>p1</title>
<path fill="#1a1a2e" stroke="black" stroke-width="0" d="M233.5,-951C233.5,-951 192,-951 192,-951 186,-951 180,-945 180,-939 180,-939 180,-916.75 180,-916.75 180,-910.75 186,-904.75 192,-904.75 192,-904.75 233.5,-904.75 233.5,-904.75 239.5,-904.75 245.5,-910.75 245.5,-916.75 245.5,-916.75 245.5,-939 245.5,-939 245.5,-945 239.5,-951 233.5,-951"/>
<text xml:space="preserve" text-anchor="middle" x="212.75" y="-938.45" font-family="Segoe UI" font-size="9.00" fill="white">P1: Math</text>
<text xml:space="preserve" text-anchor="middle" x="212.75" y="-925.7" font-family="Segoe UI" font-size="9.00" fill="white">Foundations</text>
<text xml:space="preserve" text-anchor="middle" x="212.75" y="-912.95" font-family="Segoe UI" font-size="9.00" fill="white">(22 lessons)</text>
</g>
<!-- p0&#45;&gt;p1 -->
<g id="edge1" class="edge">
<title>p0&#45;&gt;p1</title>
<path fill="none" stroke="#8b949e" stroke-width="1.2" d="M212.75,-987.2C212.75,-978.97 212.75,-969.45 212.75,-960.51"/>
<polygon fill="#8b949e" stroke="#8b949e" stroke-width="1.2" points="215.55,-960.59 212.75,-952.59 209.95,-960.59 215.55,-960.59"/>
</g>
<!-- p2 -->
<g id="node3" class="node">
<title>p2</title>
<path fill="#1a1a2e" stroke="black" stroke-width="0" d="M236.5,-868.75C236.5,-868.75 189,-868.75 189,-868.75 183,-868.75 177,-862.75 177,-856.75 177,-856.75 177,-834.5 177,-834.5 177,-828.5 183,-822.5 189,-822.5 189,-822.5 236.5,-822.5 236.5,-822.5 242.5,-822.5 248.5,-828.5 248.5,-834.5 248.5,-834.5 248.5,-856.75 248.5,-856.75 248.5,-862.75 242.5,-868.75 236.5,-868.75"/>
<text xml:space="preserve" text-anchor="middle" x="212.75" y="-856.2" font-family="Segoe UI" font-size="9.00" fill="white">P2: ML</text>
<text xml:space="preserve" text-anchor="middle" x="212.75" y="-843.45" font-family="Segoe UI" font-size="9.00" fill="white">Fundamentals</text>
<text xml:space="preserve" text-anchor="middle" x="212.75" y="-830.7" font-family="Segoe UI" font-size="9.00" fill="white">(18 lessons)</text>
</g>
<!-- p1&#45;&gt;p2 -->
<g id="edge2" class="edge">
<title>p1&#45;&gt;p2</title>
<path fill="none" stroke="#8b949e" stroke-width="1.2" d="M212.75,-904.95C212.75,-896.72 212.75,-887.2 212.75,-878.26"/>
<polygon fill="#8b949e" stroke="#8b949e" stroke-width="1.2" points="215.55,-878.34 212.75,-870.34 209.95,-878.34 215.55,-878.34"/>
</g>
<!-- p3 -->
<g id="node4" class="node">
<title>p3</title>
<path fill="#3742fa" stroke="black" stroke-width="0" d="M236.12,-786.5C236.12,-786.5 189.38,-786.5 189.38,-786.5 183.38,-786.5 177.38,-780.5 177.38,-774.5 177.38,-774.5 177.38,-752.25 177.38,-752.25 177.38,-746.25 183.38,-740.25 189.38,-740.25 189.38,-740.25 236.12,-740.25 236.12,-740.25 242.12,-740.25 248.12,-746.25 248.12,-752.25 248.12,-752.25 248.12,-774.5 248.12,-774.5 248.12,-780.5 242.12,-786.5 236.12,-786.5"/>
<text xml:space="preserve" text-anchor="middle" x="212.75" y="-773.95" font-family="Segoe UI" font-size="9.00" fill="white">P3: Deep</text>
<text xml:space="preserve" text-anchor="middle" x="212.75" y="-761.2" font-family="Segoe UI" font-size="9.00" fill="white">Learning Core</text>
<text xml:space="preserve" text-anchor="middle" x="212.75" y="-748.45" font-family="Segoe UI" font-size="9.00" fill="white">(13 lessons)</text>
</g>
<!-- p2&#45;&gt;p3 -->
<g id="edge3" class="edge">
<title>p2&#45;&gt;p3</title>
<path fill="none" stroke="#8b949e" stroke-width="1.2" d="M212.75,-822.7C212.75,-814.47 212.75,-804.95 212.75,-796.01"/>
<polygon fill="#8b949e" stroke="#8b949e" stroke-width="1.2" points="215.55,-796.09 212.75,-788.09 209.95,-796.09 215.55,-796.09"/>
</g>
<!-- p4 -->
<g id="node5" class="node">
<title>p4</title>
<path fill="#00d2d3" stroke="black" stroke-width="0" d="M103.38,-704.25C103.38,-704.25 58.12,-704.25 58.12,-704.25 52.12,-704.25 46.12,-698.25 46.12,-692.25 46.12,-692.25 46.12,-670 46.12,-670 46.12,-664 52.12,-658 58.12,-658 58.12,-658 103.38,-658 103.38,-658 109.38,-658 115.38,-664 115.38,-670 115.38,-670 115.38,-692.25 115.38,-692.25 115.38,-698.25 109.38,-704.25 103.38,-704.25"/>
<text xml:space="preserve" text-anchor="middle" x="80.75" y="-691.7" font-family="Segoe UI" font-size="9.00" fill="white">P4: Computer</text>
<text xml:space="preserve" text-anchor="middle" x="80.75" y="-678.95" font-family="Segoe UI" font-size="9.00" fill="white">Vision</text>
<text xml:space="preserve" text-anchor="middle" x="80.75" y="-666.2" font-family="Segoe UI" font-size="9.00" fill="white">(28 lessons)</text>
</g>
<!-- p3&#45;&gt;p4 -->
<g id="edge4" class="edge">
<title>p3&#45;&gt;p4</title>
<path fill="none" stroke="#8b949e" stroke-width="1.2" d="M177.38,-740.87C160.84,-730.81 141,-718.76 123.62,-708.19"/>
<polygon fill="#8b949e" stroke="#8b949e" stroke-width="1.2" points="125.15,-705.84 116.86,-704.08 122.24,-710.63 125.15,-705.84"/>
</g>
<!-- p5 -->
<g id="node6" class="node">
<title>p5</title>
<path fill="#00d2d3" stroke="black" stroke-width="0" d="M190.5,-704.25C190.5,-704.25 149,-704.25 149,-704.25 143,-704.25 137,-698.25 137,-692.25 137,-692.25 137,-670 137,-670 137,-664 143,-658 149,-658 149,-658 190.5,-658 190.5,-658 196.5,-658 202.5,-664 202.5,-670 202.5,-670 202.5,-692.25 202.5,-692.25 202.5,-698.25 196.5,-704.25 190.5,-704.25"/>
<text xml:space="preserve" text-anchor="middle" x="169.75" y="-691.7" font-family="Segoe UI" font-size="9.00" fill="white">P5: NLP</text>
<text xml:space="preserve" text-anchor="middle" x="169.75" y="-678.95" font-family="Segoe UI" font-size="9.00" fill="white">Foundations</text>
<text xml:space="preserve" text-anchor="middle" x="169.75" y="-666.2" font-family="Segoe UI" font-size="9.00" fill="white">(29 lessons)</text>
</g>
<!-- p3&#45;&gt;p5 -->
<g id="edge5" class="edge">
<title>p3&#45;&gt;p5</title>
<path fill="none" stroke="#8b949e" stroke-width="1.2" d="M201,-740.45C196.4,-731.87 191.05,-721.88 186.09,-712.61"/>
<polygon fill="#8b949e" stroke="#8b949e" stroke-width="1.2" points="188.59,-711.36 182.34,-705.63 183.65,-714 188.59,-711.36"/>
</g>
<!-- p6 -->
<g id="node7" class="node">
<title>p6</title>
<path fill="#00d2d3" stroke="black" stroke-width="0" d="M274.62,-704.25C274.62,-704.25 236.88,-704.25 236.88,-704.25 230.88,-704.25 224.88,-698.25 224.88,-692.25 224.88,-692.25 224.88,-670 224.88,-670 224.88,-664 230.88,-658 236.88,-658 236.88,-658 274.62,-658 274.62,-658 280.62,-658 286.62,-664 286.62,-670 286.62,-670 286.62,-692.25 286.62,-692.25 286.62,-698.25 280.62,-704.25 274.62,-704.25"/>
<text xml:space="preserve" text-anchor="middle" x="255.75" y="-691.7" font-family="Segoe UI" font-size="9.00" fill="white">P6: Speech</text>
<text xml:space="preserve" text-anchor="middle" x="255.75" y="-678.95" font-family="Segoe UI" font-size="9.00" fill="white">and Audio</text>
<text xml:space="preserve" text-anchor="middle" x="255.75" y="-666.2" font-family="Segoe UI" font-size="9.00" fill="white">(17 lessons)</text>
</g>
<!-- p3&#45;&gt;p6 -->
<g id="edge6" class="edge">
<title>p3&#45;&gt;p6</title>
<path fill="none" stroke="#8b949e" stroke-width="1.2" d="M224.5,-740.45C229.1,-731.87 234.45,-721.88 239.41,-712.61"/>
<polygon fill="#8b949e" stroke="#8b949e" stroke-width="1.2" points="241.85,-714 243.16,-705.63 236.91,-711.36 241.85,-714"/>
</g>
<!-- p9 -->
<g id="node8" class="node">
<title>p9</title>
<path fill="#00d2d3" stroke="black" stroke-width="0" d="M384.75,-704.25C384.75,-704.25 320.75,-704.25 320.75,-704.25 314.75,-704.25 308.75,-698.25 308.75,-692.25 308.75,-692.25 308.75,-670 308.75,-670 308.75,-664 314.75,-658 320.75,-658 320.75,-658 384.75,-658 384.75,-658 390.75,-658 396.75,-664 396.75,-670 396.75,-670 396.75,-692.25 396.75,-692.25 396.75,-698.25 390.75,-704.25 384.75,-704.25"/>
<text xml:space="preserve" text-anchor="middle" x="352.75" y="-691.7" font-family="Segoe UI" font-size="9.00" fill="white">P9: Reinforcement</text>
<text xml:space="preserve" text-anchor="middle" x="352.75" y="-678.95" font-family="Segoe UI" font-size="9.00" fill="white">Learning</text>
<text xml:space="preserve" text-anchor="middle" x="352.75" y="-666.2" font-family="Segoe UI" font-size="9.00" fill="white">(12 lessons)</text>
</g>
<!-- p3&#45;&gt;p9 -->
<g id="edge7" class="edge">
<title>p3&#45;&gt;p9</title>
<path fill="none" stroke="#8b949e" stroke-width="1.2" d="M248.08,-742.12C265.64,-732.06 287.1,-719.76 306,-708.92"/>
<polygon fill="#8b949e" stroke="#8b949e" stroke-width="1.2" points="307.36,-711.37 312.91,-704.96 304.57,-706.51 307.36,-711.37"/>
</g>
<!-- p7 -->
<g id="node9" class="node">
<title>p7</title>
<path fill="#8c7ae6" stroke="black" stroke-width="0" d="M198,-622C198,-622 141.5,-622 141.5,-622 135.5,-622 129.5,-616 129.5,-610 129.5,-610 129.5,-587.75 129.5,-587.75 129.5,-581.75 135.5,-575.75 141.5,-575.75 141.5,-575.75 198,-575.75 198,-575.75 204,-575.75 210,-581.75 210,-587.75 210,-587.75 210,-610 210,-610 210,-616 204,-622 198,-622"/>
<text xml:space="preserve" text-anchor="middle" x="169.75" y="-609.45" font-family="Segoe UI" font-size="9.00" fill="white">P7: Transformers</text>
<text xml:space="preserve" text-anchor="middle" x="169.75" y="-596.7" font-family="Segoe UI" font-size="9.00" fill="white">Deep Dive</text>
<text xml:space="preserve" text-anchor="middle" x="169.75" y="-583.95" font-family="Segoe UI" font-size="9.00" fill="white">(14 lessons)</text>
</g>
<!-- p5&#45;&gt;p7 -->
<g id="edge8" class="edge">
<title>p5&#45;&gt;p7</title>
<path fill="none" stroke="#8b949e" stroke-width="1.2" d="M169.75,-658.2C169.75,-649.97 169.75,-640.45 169.75,-631.51"/>
<polygon fill="#8b949e" stroke="#8b949e" stroke-width="1.2" points="172.55,-631.59 169.75,-623.59 166.95,-631.59 172.55,-631.59"/>
</g>
<!-- p8 -->
<g id="node10" class="node">
<title>p8</title>
<path fill="#8c7ae6" stroke="black" stroke-width="0" d="M148.88,-539.75C148.88,-539.75 100.62,-539.75 100.62,-539.75 94.62,-539.75 88.62,-533.75 88.62,-527.75 88.62,-527.75 88.62,-505.5 88.62,-505.5 88.62,-499.5 94.62,-493.5 100.62,-493.5 100.62,-493.5 148.88,-493.5 148.88,-493.5 154.88,-493.5 160.88,-499.5 160.88,-505.5 160.88,-505.5 160.88,-527.75 160.88,-527.75 160.88,-533.75 154.88,-539.75 148.88,-539.75"/>
<text xml:space="preserve" text-anchor="middle" x="124.75" y="-527.2" font-family="Segoe UI" font-size="9.00" fill="white">P8: Generative</text>
<text xml:space="preserve" text-anchor="middle" x="124.75" y="-514.45" font-family="Segoe UI" font-size="9.00" fill="white">AI</text>
<text xml:space="preserve" text-anchor="middle" x="124.75" y="-501.7" font-family="Segoe UI" font-size="9.00" fill="white">(14 lessons)</text>
</g>
<!-- p7&#45;&gt;p8 -->
<g id="edge9" class="edge">
<title>p7&#45;&gt;p8</title>
<path fill="none" stroke="#8b949e" stroke-width="1.2" d="M157.45,-575.95C152.59,-567.28 146.92,-557.17 141.69,-547.83"/>
<polygon fill="#8b949e" stroke="#8b949e" stroke-width="1.2" points="144.27,-546.72 137.92,-541.11 139.39,-549.46 144.27,-546.72"/>
</g>
<!-- p10 -->
<g id="node11" class="node">
<title>p10</title>
<path fill="#e056fd" stroke="black" stroke-width="0" d="M236.88,-539.75C236.88,-539.75 194.62,-539.75 194.62,-539.75 188.62,-539.75 182.62,-533.75 182.62,-527.75 182.62,-527.75 182.62,-505.5 182.62,-505.5 182.62,-499.5 188.62,-493.5 194.62,-493.5 194.62,-493.5 236.88,-493.5 236.88,-493.5 242.88,-493.5 248.88,-499.5 248.88,-505.5 248.88,-505.5 248.88,-527.75 248.88,-527.75 248.88,-533.75 242.88,-539.75 236.88,-539.75"/>
<text xml:space="preserve" text-anchor="middle" x="215.75" y="-527.2" font-family="Segoe UI" font-size="9.00" fill="white">P10: LLMs</text>
<text xml:space="preserve" text-anchor="middle" x="215.75" y="-514.45" font-family="Segoe UI" font-size="9.00" fill="white">from Scratch</text>
<text xml:space="preserve" text-anchor="middle" x="215.75" y="-501.7" font-family="Segoe UI" font-size="9.00" fill="white">(22 lessons)</text>
</g>
<!-- p7&#45;&gt;p10 -->
<g id="edge10" class="edge">
<title>p7&#45;&gt;p10</title>
<path fill="none" stroke="#8b949e" stroke-width="1.2" d="M182.32,-575.95C187.29,-567.28 193.08,-557.17 198.44,-547.83"/>
<polygon fill="#8b949e" stroke="#8b949e" stroke-width="1.2" points="200.74,-549.44 202.29,-541.1 195.88,-546.65 200.74,-549.44"/>
</g>
<!-- p11 -->
<g id="node12" class="node">
<title>p11</title>
<path fill="#e056fd" stroke="black" stroke-width="0" d="M188.38,-457.5C188.38,-457.5 149.12,-457.5 149.12,-457.5 143.12,-457.5 137.12,-451.5 137.12,-445.5 137.12,-445.5 137.12,-423.25 137.12,-423.25 137.12,-417.25 143.12,-411.25 149.12,-411.25 149.12,-411.25 188.38,-411.25 188.38,-411.25 194.38,-411.25 200.38,-417.25 200.38,-423.25 200.38,-423.25 200.38,-445.5 200.38,-445.5 200.38,-451.5 194.38,-457.5 188.38,-457.5"/>
<text xml:space="preserve" text-anchor="middle" x="168.75" y="-444.95" font-family="Segoe UI" font-size="9.00" fill="white">P11: LLM</text>
<text xml:space="preserve" text-anchor="middle" x="168.75" y="-432.2" font-family="Segoe UI" font-size="9.00" fill="white">Engineering</text>
<text xml:space="preserve" text-anchor="middle" x="168.75" y="-419.45" font-family="Segoe UI" font-size="9.00" fill="white">(15 lessons)</text>
</g>
<!-- p10&#45;&gt;p11 -->
<g id="edge11" class="edge">
<title>p10&#45;&gt;p11</title>
<path fill="none" stroke="#8b949e" stroke-width="1.2" d="M202.91,-493.7C197.83,-485.03 191.91,-474.92 186.44,-465.58"/>
<polygon fill="#8b949e" stroke="#8b949e" stroke-width="1.2" points="188.95,-464.33 182.5,-458.84 184.12,-467.16 188.95,-464.33"/>
</g>
<!-- p12 -->
<g id="node13" class="node">
<title>p12</title>
<path fill="#e056fd" stroke="black" stroke-width="0" d="M291,-457.5C291,-457.5 234.5,-457.5 234.5,-457.5 228.5,-457.5 222.5,-451.5 222.5,-445.5 222.5,-445.5 222.5,-423.25 222.5,-423.25 222.5,-417.25 228.5,-411.25 234.5,-411.25 234.5,-411.25 291,-411.25 291,-411.25 297,-411.25 303,-417.25 303,-423.25 303,-423.25 303,-445.5 303,-445.5 303,-451.5 297,-457.5 291,-457.5"/>
<text xml:space="preserve" text-anchor="middle" x="262.75" y="-444.95" font-family="Segoe UI" font-size="9.00" fill="white">P12: Multimodal</text>
<text xml:space="preserve" text-anchor="middle" x="262.75" y="-432.2" font-family="Segoe UI" font-size="9.00" fill="white">AI</text>
<text xml:space="preserve" text-anchor="middle" x="262.75" y="-419.45" font-family="Segoe UI" font-size="9.00" fill="white">(25 lessons)</text>
</g>
<!-- p10&#45;&gt;p12 -->
<g id="edge12" class="edge">
<title>p10&#45;&gt;p12</title>
<path fill="none" stroke="#8b949e" stroke-width="1.2" d="M228.59,-493.7C233.67,-485.03 239.59,-474.92 245.06,-465.58"/>
<polygon fill="#8b949e" stroke="#8b949e" stroke-width="1.2" points="247.38,-467.16 249,-458.84 242.55,-464.33 247.38,-467.16"/>
</g>
<!-- p13 -->
<g id="node14" class="node">
<title>p13</title>
<path fill="#ff6b6b" stroke="black" stroke-width="0" d="M192.12,-375.25C192.12,-375.25 145.38,-375.25 145.38,-375.25 139.38,-375.25 133.38,-369.25 133.38,-363.25 133.38,-363.25 133.38,-341 133.38,-341 133.38,-335 139.38,-329 145.38,-329 145.38,-329 192.12,-329 192.12,-329 198.12,-329 204.12,-335 204.12,-341 204.12,-341 204.12,-363.25 204.12,-363.25 204.12,-369.25 198.12,-375.25 192.12,-375.25"/>
<text xml:space="preserve" text-anchor="middle" x="168.75" y="-362.7" font-family="Segoe UI" font-size="9.00" fill="white">P13: Tools</text>
<text xml:space="preserve" text-anchor="middle" x="168.75" y="-349.95" font-family="Segoe UI" font-size="9.00" fill="white">and Protocols</text>
<text xml:space="preserve" text-anchor="middle" x="168.75" y="-337.2" font-family="Segoe UI" font-size="9.00" fill="white">(23 lessons)</text>
</g>
<!-- p11&#45;&gt;p13 -->
<g id="edge13" class="edge">
<title>p11&#45;&gt;p13</title>
<path fill="none" stroke="#8b949e" stroke-width="1.2" d="M168.75,-411.45C168.75,-403.22 168.75,-393.7 168.75,-384.76"/>
<polygon fill="#8b949e" stroke="#8b949e" stroke-width="1.2" points="171.55,-384.84 168.75,-376.84 165.95,-384.84 171.55,-384.84"/>
</g>
<!-- p14 -->
<g id="node15" class="node">
<title>p14</title>
<path fill="#ff6b6b" stroke="black" stroke-width="0" d="M188.38,-293C188.38,-293 149.12,-293 149.12,-293 143.12,-293 137.12,-287 137.12,-281 137.12,-281 137.12,-258.75 137.12,-258.75 137.12,-252.75 143.12,-246.75 149.12,-246.75 149.12,-246.75 188.38,-246.75 188.38,-246.75 194.38,-246.75 200.38,-252.75 200.38,-258.75 200.38,-258.75 200.38,-281 200.38,-281 200.38,-287 194.38,-293 188.38,-293"/>
<text xml:space="preserve" text-anchor="middle" x="168.75" y="-280.45" font-family="Segoe UI" font-size="9.00" fill="white">P14: Agent</text>
<text xml:space="preserve" text-anchor="middle" x="168.75" y="-267.7" font-family="Segoe UI" font-size="9.00" fill="white">Engineering</text>
<text xml:space="preserve" text-anchor="middle" x="168.75" y="-254.95" font-family="Segoe UI" font-size="9.00" fill="white">(42 lessons)</text>
</g>
<!-- p13&#45;&gt;p14 -->
<g id="edge14" class="edge">
<title>p13&#45;&gt;p14</title>
<path fill="none" stroke="#8b949e" stroke-width="1.2" d="M168.75,-329.2C168.75,-320.97 168.75,-311.45 168.75,-302.51"/>
<polygon fill="#8b949e" stroke="#8b949e" stroke-width="1.2" points="171.55,-302.59 168.75,-294.59 165.95,-302.59 171.55,-302.59"/>
</g>
<!-- p15 -->
<g id="node16" class="node">
<title>p15</title>
<path fill="#ff6b6b" stroke="black" stroke-width="0" d="M146,-210.75C146,-210.75 83.5,-210.75 83.5,-210.75 77.5,-210.75 71.5,-204.75 71.5,-198.75 71.5,-198.75 71.5,-176.5 71.5,-176.5 71.5,-170.5 77.5,-164.5 83.5,-164.5 83.5,-164.5 146,-164.5 146,-164.5 152,-164.5 158,-170.5 158,-176.5 158,-176.5 158,-198.75 158,-198.75 158,-204.75 152,-210.75 146,-210.75"/>
<text xml:space="preserve" text-anchor="middle" x="114.75" y="-198.2" font-family="Segoe UI" font-size="9.00" fill="white">P15: Autonomous</text>
<text xml:space="preserve" text-anchor="middle" x="114.75" y="-185.45" font-family="Segoe UI" font-size="9.00" fill="white">Systems</text>
<text xml:space="preserve" text-anchor="middle" x="114.75" y="-172.7" font-family="Segoe UI" font-size="9.00" fill="white">(22 lessons)</text>
</g>
<!-- p14&#45;&gt;p15 -->
<g id="edge15" class="edge">
<title>p14&#45;&gt;p15</title>
<path fill="none" stroke="#8b949e" stroke-width="1.2" d="M153.99,-246.95C148.1,-238.19 141.22,-227.96 134.88,-218.54"/>
<polygon fill="#8b949e" stroke="#8b949e" stroke-width="1.2" points="137.29,-217.11 130.5,-212.03 132.65,-220.23 137.29,-217.11"/>
</g>
<!-- p17 -->
<g id="node18" class="node">
<title>p17</title>
<path fill="#ffa726" stroke="black" stroke-width="0" d="M255.75,-210.75C255.75,-210.75 191.75,-210.75 191.75,-210.75 185.75,-210.75 179.75,-204.75 179.75,-198.75 179.75,-198.75 179.75,-176.5 179.75,-176.5 179.75,-170.5 185.75,-164.5 191.75,-164.5 191.75,-164.5 255.75,-164.5 255.75,-164.5 261.75,-164.5 267.75,-170.5 267.75,-176.5 267.75,-176.5 267.75,-198.75 267.75,-198.75 267.75,-204.75 261.75,-210.75 255.75,-210.75"/>
<text xml:space="preserve" text-anchor="middle" x="223.75" y="-198.2" font-family="Segoe UI" font-size="9.00" fill="white">P17: Infrastructure</text>
<text xml:space="preserve" text-anchor="middle" x="223.75" y="-185.45" font-family="Segoe UI" font-size="9.00" fill="white">and Production</text>
<text xml:space="preserve" text-anchor="middle" x="223.75" y="-172.7" font-family="Segoe UI" font-size="9.00" fill="white">(28 lessons)</text>
</g>
<!-- p14&#45;&gt;p17 -->
<g id="edge17" class="edge">
<title>p14&#45;&gt;p17</title>
<path fill="none" stroke="#8b949e" stroke-width="1.2" d="M183.78,-246.95C189.78,-238.19 196.79,-227.96 203.25,-218.54"/>
<polygon fill="#8b949e" stroke="#8b949e" stroke-width="1.2" points="205.5,-220.21 207.71,-212.03 200.88,-217.04 205.5,-220.21"/>
</g>
<!-- p16 -->
<g id="node17" class="node">
<title>p16</title>
<path fill="#ff6b6b" stroke="black" stroke-width="0" d="M71.5,-128.5C71.5,-128.5 12,-128.5 12,-128.5 6,-128.5 0,-122.5 0,-116.5 0,-116.5 0,-94.25 0,-94.25 0,-88.25 6,-82.25 12,-82.25 12,-82.25 71.5,-82.25 71.5,-82.25 77.5,-82.25 83.5,-88.25 83.5,-94.25 83.5,-94.25 83.5,-116.5 83.5,-116.5 83.5,-122.5 77.5,-128.5 71.5,-128.5"/>
<text xml:space="preserve" text-anchor="middle" x="41.75" y="-115.95" font-family="Segoe UI" font-size="9.00" fill="white">P16: Multi&#45;Agent</text>
<text xml:space="preserve" text-anchor="middle" x="41.75" y="-103.2" font-family="Segoe UI" font-size="9.00" fill="white">and Swarms</text>
<text xml:space="preserve" text-anchor="middle" x="41.75" y="-90.45" font-family="Segoe UI" font-size="9.00" fill="white">(25 lessons)</text>
</g>
<!-- p15&#45;&gt;p16 -->
<g id="edge16" class="edge">
<title>p15&#45;&gt;p16</title>
<path fill="none" stroke="#8b949e" stroke-width="1.2" d="M94.8,-164.7C86.59,-155.67 76.97,-145.09 68.19,-135.44"/>
<polygon fill="#8b949e" stroke="#8b949e" stroke-width="1.2" points="70.35,-133.65 62.9,-129.62 66.21,-137.42 70.35,-133.65"/>
</g>
<!-- p18 -->
<g id="node19" class="node">
<title>p18</title>
<path fill="#ffa726" stroke="black" stroke-width="0" d="M177.5,-128.5C177.5,-128.5 118,-128.5 118,-128.5 112,-128.5 106,-122.5 106,-116.5 106,-116.5 106,-94.25 106,-94.25 106,-88.25 112,-82.25 118,-82.25 118,-82.25 177.5,-82.25 177.5,-82.25 183.5,-82.25 189.5,-88.25 189.5,-94.25 189.5,-94.25 189.5,-116.5 189.5,-116.5 189.5,-122.5 183.5,-128.5 177.5,-128.5"/>
<text xml:space="preserve" text-anchor="middle" x="147.75" y="-115.95" font-family="Segoe UI" font-size="9.00" fill="white">P18: Ethics</text>
<text xml:space="preserve" text-anchor="middle" x="147.75" y="-103.2" font-family="Segoe UI" font-size="9.00" fill="white">Safety Alignment</text>
<text xml:space="preserve" text-anchor="middle" x="147.75" y="-90.45" font-family="Segoe UI" font-size="9.00" fill="white">(30 lessons)</text>
</g>
<!-- p15&#45;&gt;p18 -->
<g id="edge18" class="edge">
<title>p15&#45;&gt;p18</title>
<path fill="none" stroke="#8b949e" stroke-width="1.2" d="M123.77,-164.7C127.26,-156.2 131.32,-146.33 135.09,-137.15"/>
<polygon fill="#8b949e" stroke="#8b949e" stroke-width="1.2" points="137.6,-138.42 138.05,-129.96 132.42,-136.29 137.6,-138.42"/>
</g>
<!-- p19 -->
<g id="node20" class="node">
<title>p19</title>
<path fill="#26de81" stroke="black" stroke-width="0" d="M171.5,-46.25C171.5,-46.25 124,-46.25 124,-46.25 118,-46.25 112,-40.25 112,-34.25 112,-34.25 112,-12 112,-12 112,-6 118,0 124,0 124,0 171.5,0 171.5,0 177.5,0 183.5,-6 183.5,-12 183.5,-12 183.5,-34.25 183.5,-34.25 183.5,-40.25 177.5,-46.25 171.5,-46.25"/>
<text xml:space="preserve" text-anchor="middle" x="147.75" y="-33.7" font-family="Segoe UI" font-size="9.00" fill="white">P19: Capstone</text>
<text xml:space="preserve" text-anchor="middle" x="147.75" y="-20.95" font-family="Segoe UI" font-size="9.00" fill="white">Projects</text>
<text xml:space="preserve" text-anchor="middle" x="147.75" y="-8.2" font-family="Segoe UI" font-size="9.00" fill="white">(17 projects)</text>
</g>
<!-- p16&#45;&gt;p19 -->
<g id="edge19" class="edge">
<title>p16&#45;&gt;p19</title>
<path fill="none" stroke="#8b949e" stroke-width="1.2" d="M70.71,-82.45C83.22,-72.98 97.98,-61.8 111.23,-51.78"/>
<polygon fill="#8b949e" stroke="#8b949e" stroke-width="1.2" points="112.68,-54.18 117.37,-47.12 109.3,-49.72 112.68,-54.18"/>
</g>
<!-- p17&#45;&gt;p19 -->
<g id="edge20" class="edge">
<title>p17&#45;&gt;p19</title>
<path fill="none" stroke="#8b949e" stroke-width="1.2" d="M222.24,-164.72C219.98,-142.79 214.41,-108.61 200.75,-82.25 195.3,-71.74 187.46,-61.67 179.48,-52.97"/>
<polygon fill="#8b949e" stroke="#8b949e" stroke-width="1.2" points="181.6,-51.14 174.04,-47.3 177.56,-55.01 181.6,-51.14"/>
</g>
<!-- p18&#45;&gt;p19 -->
<g id="edge21" class="edge">
<title>p18&#45;&gt;p19</title>
<path fill="none" stroke="#8b949e" stroke-width="1.2" d="M147.75,-82.45C147.75,-74.22 147.75,-64.7 147.75,-55.76"/>
<polygon fill="#8b949e" stroke="#8b949e" stroke-width="1.2" points="150.55,-55.84 147.75,-47.84 144.95,-55.84 150.55,-55.84"/>
</g>
</g>
</svg>
