<?xml version="1.0" encoding="UTF-8" standalone="no"?>
<!DOCTYPE svg PUBLIC "-//W3C//DTD SVG 1.1//EN"
 "http://www.w3.org/Graphics/SVG/1.1/DTD/svg11.dtd">
<!-- Generated by graphviz version 14.1.2 (0)
 -->
<!-- Title: aie_features Pages: 1 -->
<svg width="1209pt" height="290pt"
 viewBox="0.00 0.00 1209.00 290.00" xmlns="http://www.w3.org/2000/svg" xmlns:xlink="http://www.w3.org/1999/xlink">
<g id="graph0" class="graph" transform="scale(1 1) rotate(0) translate(36 254)">
<title>aie_features</title>
<polygon fill="#0d1117" stroke="none" points="-36,36 -36,-254 1172.65,-254 1172.65,36 -36,36"/>
<!-- lesson -->
<g id="node1" class="node">
<title>lesson</title>
<path fill="#1a1a2e" stroke="black" stroke-width="0" d="M142.15,-71.98C142.15,-71.98 142.15,-80.02 142.15,-80.02 142.15,-84.03 138.45,-89.61 134.75,-91.16 134.75,-91.16 109.09,-101.97 109.09,-101.97 105.39,-103.53 97.67,-105.08 93.65,-105.08 93.65,-105.08 52.49,-105.08 52.49,-105.08 48.48,-105.08 40.76,-103.53 37.06,-101.97 37.06,-101.97 11.4,-91.16 11.4,-91.16 7.7,-89.61 4,-84.03 4,-80.02 4,-80.02 4,-71.98 4,-71.98 4,-67.97 7.7,-62.39 11.4,-60.84 11.4,-60.84 37.06,-50.03 37.06,-50.03 40.76,-48.47 48.48,-46.92 52.49,-46.92 52.49,-46.92 93.65,-46.92 93.65,-46.92 97.67,-46.92 105.39,-48.47 109.09,-50.03 109.09,-50.03 134.75,-60.84 134.75,-60.84 138.45,-62.39 142.15,-67.97 142.15,-71.98"/>
<path fill="none" stroke="black" stroke-width="0" d="M146.15,-71.1C146.15,-71.1 146.15,-80.9 146.15,-80.9 146.15,-85.8 141.63,-92.6 137.11,-94.51 137.11,-94.51 111.53,-105.28 111.53,-105.28 107.01,-107.18 97.59,-109.08 92.69,-109.08 92.69,-109.08 53.46,-109.08 53.46,-109.08 48.56,-109.08 39.14,-107.18 34.62,-105.28 34.62,-105.28 9.03,-94.51 9.03,-94.51 4.52,-92.6 0,-85.8 0,-80.9 0,-80.9 0,-71.1 0,-71.1 0,-66.2 4.52,-59.4 9.03,-57.49 9.03,-57.49 34.62,-46.72 34.62,-46.72 39.14,-44.82 48.56,-42.92 53.46,-42.92 53.46,-42.92 92.69,-42.92 92.69,-42.92 97.59,-42.92 107.01,-44.82 111.53,-46.72 111.53,-46.72 137.11,-57.49 137.11,-57.49 141.63,-59.4 146.15,-66.2 146.15,-71.1"/>
<text xml:space="preserve" text-anchor="start" x="45.32" y="-82.5" font-family="Segoe UI" font-weight="bold" font-size="10.00" fill="white">Each Lesson</text>
<text xml:space="preserve" text-anchor="start" x="52.82" y="-72.5" font-family="Segoe UI" font-size="10.00" fill="white">428 Total</text>
<text xml:space="preserve" text-anchor="start" x="35.95" y="-62.5" font-family="Segoe UI" font-size="10.00" fill="white">6&#45;Beat Structure</text>
</g>
<!-- motto -->
<g id="node2" class="node">
<title>motto</title>
<polygon fill="#2d3436" stroke="black" stroke-width="0" points="278.27,-134.38 227.02,-134.38 227.02,-83.62 284.27,-83.62 284.27,-128.38 278.27,-134.38"/>
<polyline fill="none" stroke="black" stroke-width="0" points="278.27,-134.38 278.27,-128.38"/>
<polyline fill="none" stroke="black" stroke-width="0" points="284.27,-128.38 278.27,-128.38"/>
<text xml:space="preserve" text-anchor="middle" x="255.65" y="-120.88" font-family="Segoe UI" font-size="10.00" fill="white">MOTTO</text>
<text xml:space="preserve" text-anchor="middle" x="255.65" y="-106.62" font-family="Segoe UI" font-size="10.00" fill="white">One&#45;line</text>
<text xml:space="preserve" text-anchor="middle" x="255.65" y="-92.38" font-family="Segoe UI" font-size="10.00" fill="white">core idea</text>
</g>
<!-- lesson&#45;&gt;motto -->
<g id="edge1" class="edge">
<title>lesson&#45;&gt;motto</title>
<path fill="none" stroke="#8b949e" stroke-width="1.2" d="M145.96,-89.14C170.47,-93.62 196.87,-98.44 217.52,-102.21"/>
<polygon fill="#8b949e" stroke="#8b949e" stroke-width="1.2" points="216.99,-104.96 225.37,-103.65 218,-99.46 216.99,-104.96"/>
</g>
<!-- langs -->
<g id="node12" class="node">
<title>langs</title>
<polygon fill="#00d2d3" stroke="black" stroke-width="0" points="307.15,-62 204.15,-62 204.15,-58 200.15,-58 200.15,-54 204.15,-54 204.15,-32 200.15,-32 200.15,-28 204.15,-28 204.15,-24 307.15,-24 307.15,-62"/>
<polyline fill="none" stroke="black" stroke-width="0" points="204.15,-58 208.15,-58 208.15,-54 204.15,-54"/>
<polyline fill="none" stroke="black" stroke-width="0" points="204.15,-32 208.15,-32 208.15,-28 204.15,-28"/>
<text xml:space="preserve" text-anchor="start" x="226.4" y="-49.5" font-family="Segoe UI" font-weight="bold" font-size="10.00" fill="white">4 Languages</text>
<text xml:space="preserve" text-anchor="start" x="212.15" y="-39.5" font-family="Segoe UI" font-size="10.00" fill="white">Python / TypeScript</text>
<text xml:space="preserve" text-anchor="start" x="230.9" y="-29.5" font-family="Segoe UI" font-size="10.00" fill="white">Rust / Julia</text>
</g>
<!-- lesson&#45;&gt;langs -->
<g id="edge11" class="edge">
<title>lesson&#45;&gt;langs</title>
<path fill="none" stroke="#8b949e" stroke-width="1.2" stroke-dasharray="5,2" d="M145.96,-62.86C162.17,-59.9 179.2,-56.79 194.85,-53.93"/>
<polygon fill="#8b949e" stroke="#8b949e" stroke-width="1.2" points="195.25,-56.7 202.61,-52.51 194.24,-51.19 195.25,-56.7"/>
</g>
<!-- problem -->
<g id="node3" class="node">
<title>problem</title>
<polygon fill="#2d3436" stroke="black" stroke-width="0" points="421.65,-134.38 365.15,-134.38 365.15,-83.62 427.65,-83.62 427.65,-128.38 421.65,-134.38"/>
<polyline fill="none" stroke="black" stroke-width="0" points="421.65,-134.38 421.65,-128.38"/>
<polyline fill="none" stroke="black" stroke-width="0" points="427.65,-128.38 421.65,-128.38"/>
<text xml:space="preserve" text-anchor="middle" x="396.4" y="-120.88" font-family="Segoe UI" font-size="10.00" fill="white">PROBLEM</text>
<text xml:space="preserve" text-anchor="middle" x="396.4" y="-106.62" font-family="Segoe UI" font-size="10.00" fill="white">Concrete</text>
<text xml:space="preserve" text-anchor="middle" x="396.4" y="-92.38" font-family="Segoe UI" font-size="10.00" fill="white">pain point</text>
</g>
<!-- motto&#45;&gt;problem -->
<g id="edge2" class="edge">
<title>motto&#45;&gt;problem</title>
<path fill="none" stroke="#8b949e" stroke-width="1.2" d="M284.06,-109C304.42,-109 332.51,-109 355.38,-109"/>
<polygon fill="#8b949e" stroke="#8b949e" stroke-width="1.2" points="355.34,-111.8 363.34,-109 355.34,-106.2 355.34,-111.8"/>
</g>
<!-- concept -->
<g id="node4" class="node">
<title>concept</title>
<polygon fill="#2d3436" stroke="black" stroke-width="0" points="557.9,-134.38 485.65,-134.38 485.65,-83.62 563.9,-83.62 563.9,-128.38 557.9,-134.38"/>
<polyline fill="none" stroke="black" stroke-width="0" points="557.9,-134.38 557.9,-128.38"/>
<polyline fill="none" stroke="black" stroke-width="0" points="563.9,-128.38 557.9,-128.38"/>
<text xml:space="preserve" text-anchor="middle" x="524.77" y="-120.88" font-family="Segoe UI" font-size="10.00" fill="white">CONCEPT</text>
<text xml:space="preserve" text-anchor="middle" x="524.77" y="-106.62" font-family="Segoe UI" font-size="10.00" fill="white">Diagrams and</text>
<text xml:space="preserve" text-anchor="middle" x="524.77" y="-92.38" font-family="Segoe UI" font-size="10.00" fill="white">intuition</text>
</g>
<!-- problem&#45;&gt;concept -->
<g id="edge3" class="edge">
<title>problem&#45;&gt;concept</title>
<path fill="none" stroke="#8b949e" stroke-width="1.2" d="M427.35,-109C441.99,-109 459.96,-109 476.41,-109"/>
<polygon fill="#8b949e" stroke="#8b949e" stroke-width="1.2" points="476.06,-111.8 484.06,-109 476.06,-106.2 476.06,-111.8"/>
</g>
<!-- build -->
<g id="node5" class="node">
<title>build</title>
<polygon fill="#3742fa" stroke="black" stroke-width="0" points="699.4,-134.38 621.9,-134.38 621.9,-83.62 705.4,-83.62 705.4,-128.38 699.4,-134.38"/>
<polyline fill="none" stroke="black" stroke-width="0" points="699.4,-134.38 699.4,-128.38"/>
<polyline fill="none" stroke="black" stroke-width="0" points="705.4,-128.38 699.4,-128.38"/>
<text xml:space="preserve" text-anchor="middle" x="663.65" y="-120.88" font-family="Segoe UI" font-size="10.00" fill="white">BUILD IT</text>
<text xml:space="preserve" text-anchor="middle" x="663.65" y="-106.62" font-family="Segoe UI" font-size="10.00" fill="white">Raw math</text>
<text xml:space="preserve" text-anchor="middle" x="663.65" y="-92.38" font-family="Segoe UI" font-size="10.00" fill="white">no frameworks</text>
</g>
<!-- concept&#45;&gt;build -->
<g id="edge4" class="edge">
<title>concept&#45;&gt;build</title>
<path fill="none" stroke="#8b949e" stroke-width="1.2" d="M563.54,-109C578.75,-109 596.52,-109 612.77,-109"/>
<polygon fill="#8b949e" stroke="#8b949e" stroke-width="1.2" points="612.32,-111.8 620.32,-109 612.32,-106.2 612.32,-111.8"/>
</g>
<!-- use -->
<g id="node6" class="node">
<title>use</title>
<polygon fill="#8c7ae6" stroke="black" stroke-width="0" points="843.9,-134.38 763.4,-134.38 763.4,-83.62 849.9,-83.62 849.9,-128.38 843.9,-134.38"/>
<polyline fill="none" stroke="black" stroke-width="0" points="843.9,-134.38 843.9,-128.38"/>
<polyline fill="none" stroke="black" stroke-width="0" points="849.9,-128.38 843.9,-128.38"/>
<text xml:space="preserve" text-anchor="middle" x="806.65" y="-120.88" font-family="Segoe UI" font-size="10.00" fill="white">USE IT</text>
<text xml:space="preserve" text-anchor="middle" x="806.65" y="-106.62" font-family="Segoe UI" font-size="10.00" fill="white">Same thing in</text>
<text xml:space="preserve" text-anchor="middle" x="806.65" y="-92.38" font-family="Segoe UI" font-size="10.00" fill="white">PyTorch/sklearn</text>
</g>
<!-- build&#45;&gt;use -->
<g id="edge5" class="edge">
<title>build&#45;&gt;use</title>
<path fill="none" stroke="#8b949e" stroke-width="1.2" d="M705.05,-109C720.43,-109 738.15,-109 754.4,-109"/>
<polygon fill="#8b949e" stroke="#8b949e" stroke-width="1.2" points="753.95,-111.8 761.95,-109 753.95,-106.2 753.95,-111.8"/>
</g>
<!-- ship -->
<g id="node7" class="node">
<title>ship</title>
<polygon fill="#26de81" stroke="black" stroke-width="0" points="958.4,-134.38 907.9,-134.38 907.9,-83.62 964.4,-83.62 964.4,-128.38 958.4,-134.38"/>
<polyline fill="none" stroke="black" stroke-width="0" points="958.4,-134.38 958.4,-128.38"/>
<polyline fill="none" stroke="black" stroke-width="0" points="964.4,-128.38 958.4,-128.38"/>
<text xml:space="preserve" text-anchor="middle" x="936.15" y="-120.88" font-family="Segoe UI" font-size="10.00" fill="white">SHIP IT</text>
<text xml:space="preserve" text-anchor="middle" x="936.15" y="-106.62" font-family="Segoe UI" font-size="10.00" fill="white">Reusable</text>
<text xml:space="preserve" text-anchor="middle" x="936.15" y="-92.38" font-family="Segoe UI" font-size="10.00" fill="white">artifact</text>
</g>
<!-- use&#45;&gt;ship -->
<g id="edge6" class="edge">
<title>use&#45;&gt;ship</title>
<path fill="none" stroke="#8b949e" stroke-width="1.2" d="M849.75,-109C865.46,-109 883.16,-109 898.35,-109"/>
<polygon fill="#8b949e" stroke="#8b949e" stroke-width="1.2" points="898.11,-111.8 906.11,-109 898.11,-106.2 898.11,-111.8"/>
</g>
<!-- prompts -->
<g id="node8" class="node">
<title>prompts</title>
<path fill="#ff6b6b" stroke="black" stroke-width="0" d="M1112.65,-218C1112.65,-218 1046.4,-218 1046.4,-218 1040.4,-218 1034.4,-212 1034.4,-206 1034.4,-206 1034.4,-192 1034.4,-192 1034.4,-186 1040.4,-180 1046.4,-180 1046.4,-180 1112.65,-180 1112.65,-180 1118.65,-180 1124.65,-186 1124.65,-192 1124.65,-192 1124.65,-206 1124.65,-206 1124.65,-212 1118.65,-218 1112.65,-218"/>
<text xml:space="preserve" text-anchor="start" x="1055.9" y="-205.5" font-family="Segoe UI" font-weight="bold" font-size="10.00" fill="white">PROMPTS</text>
<text xml:space="preserve" text-anchor="start" x="1042.4" y="-195.5" font-family="Segoe UI" font-size="10.00" fill="white">Expert&#45;level help</text>
<text xml:space="preserve" text-anchor="start" x="1042.4" y="-185.5" font-family="Segoe UI" font-size="10.00" fill="white">for narrow tasks</text>
</g>
<!-- ship&#45;&gt;prompts -->
<g id="edge7" class="edge">
<title>ship&#45;&gt;prompts</title>
<path fill="none" stroke="#8b949e" stroke-width="1.2" d="M964.22,-129.33C980.7,-141.38 1002.37,-156.66 1022.4,-169 1025.84,-171.12 1029.44,-173.24 1033.09,-175.33"/>
<polygon fill="#8b949e" stroke="#8b949e" stroke-width="1.2" points="1031.69,-177.76 1040.04,-179.22 1034.43,-172.87 1031.69,-177.76"/>
</g>
<!-- skills -->
<g id="node9" class="node">
<title>skills</title>
<path fill="#4ecdc4" stroke="black" stroke-width="0" d="M1123.52,-158C1123.52,-158 1035.52,-158 1035.52,-158 1029.52,-158 1023.52,-152 1023.52,-146 1023.52,-146 1023.52,-132 1023.52,-132 1023.52,-126 1029.52,-120 1035.52,-120 1035.52,-120 1123.52,-120 1123.52,-120 1129.52,-120 1135.52,-126 1135.52,-132 1135.52,-132 1135.52,-146 1135.52,-146 1135.52,-152 1129.52,-158 1123.52,-158"/>
<text xml:space="preserve" text-anchor="start" x="1064.15" y="-145.5" font-family="Segoe UI" font-weight="bold" font-size="10.00" fill="white">SKILLS</text>
<text xml:space="preserve" text-anchor="start" x="1041.65" y="-135.5" font-family="Segoe UI" font-size="10.00" fill="white">SKILL.md files for</text>
<text xml:space="preserve" text-anchor="start" x="1031.52" y="-125.5" font-family="Segoe UI" font-size="10.00" fill="white">Claude/Cursor/Codex</text>
</g>
<!-- ship&#45;&gt;skills -->
<g id="edge8" class="edge">
<title>ship&#45;&gt;skills</title>
<path fill="none" stroke="#8b949e" stroke-width="1.2" d="M964.07,-114.71C978.4,-117.75 996.68,-121.63 1014.41,-125.39"/>
<polygon fill="#8b949e" stroke="#8b949e" stroke-width="1.2" points="1013.42,-128.05 1021.82,-126.97 1014.58,-122.57 1013.42,-128.05"/>
</g>
<!-- agents -->
<g id="node10" class="node">
<title>agents</title>
<path fill="#9b59b6" stroke="black" stroke-width="0" d="M1124.65,-98C1124.65,-98 1034.4,-98 1034.4,-98 1028.4,-98 1022.4,-92 1022.4,-86 1022.4,-86 1022.4,-72 1022.4,-72 1022.4,-66 1028.4,-60 1034.4,-60 1034.4,-60 1124.65,-60 1124.65,-60 1130.65,-60 1136.65,-66 1136.65,-72 1136.65,-72 1136.65,-86 1136.65,-86 1136.65,-92 1130.65,-98 1124.65,-98"/>
<text xml:space="preserve" text-anchor="start" x="1060.4" y="-85.5" font-family="Segoe UI" font-weight="bold" font-size="10.00" fill="white">AGENTS</text>
<text xml:space="preserve" text-anchor="start" x="1030.4" y="-75.5" font-family="Segoe UI" font-size="10.00" fill="white">Autonomous workers</text>
<text xml:space="preserve" text-anchor="start" x="1037.52" y="-65.5" font-family="Segoe UI" font-size="10.00" fill="white">you wrote yourself</text>
</g>
<!-- ship&#45;&gt;agents -->
<g id="edge9" class="edge">
<title>ship&#45;&gt;agents</title>
<path fill="none" stroke="#8b949e" stroke-width="1.2" d="M964.07,-103.29C978,-100.33 995.66,-96.58 1012.91,-92.92"/>
<polygon fill="#8b949e" stroke="#8b949e" stroke-width="1.2" points="1013.41,-95.68 1020.65,-91.28 1012.25,-90.2 1013.41,-95.68"/>
</g>
<!-- mcp -->
<g id="node11" class="node">
<title>mcp</title>
<path fill="#ffc107" stroke="black" stroke-width="0" d="M1108.52,-38C1108.52,-38 1050.52,-38 1050.52,-38 1044.52,-38 1038.52,-32 1038.52,-26 1038.52,-26 1038.52,-12 1038.52,-12 1038.52,-6 1044.52,0 1050.52,0 1050.52,0 1108.52,0 1108.52,0 1114.52,0 1120.52,-6 1120.52,-12 1120.52,-12 1120.52,-26 1120.52,-26 1120.52,-32 1114.52,-38 1108.52,-38"/>
<text xml:space="preserve" text-anchor="start" x="1046.52" y="-25.5" font-family="Segoe UI" font-weight="bold" font-size="10.00" fill="white">MCP SERVERS</text>
<text xml:space="preserve" text-anchor="start" x="1049.9" y="-15.5" font-family="Segoe UI" font-size="10.00" fill="white">Plug into any</text>
<text xml:space="preserve" text-anchor="start" x="1055.9" y="-5.5" font-family="Segoe UI" font-size="10.00" fill="white">MCP client</text>
</g>
<!-- ship&#45;&gt;mcp -->
<g id="edge10" class="edge">
<title>ship&#45;&gt;mcp</title>
<path fill="none" stroke="#8b949e" stroke-width="1.2" d="M964.22,-88.67C980.7,-76.62 1002.37,-61.34 1022.4,-49 1025.84,-46.88 1029.44,-44.76 1033.09,-42.67"/>
<polygon fill="#8b949e" stroke="#8b949e" stroke-width="1.2" points="1034.43,-45.13 1040.04,-38.78 1031.69,-40.24 1034.43,-45.13"/>
</g>
</g>
</svg>
