<?xml version="1.0" encoding="UTF-8" standalone="no"?>
<!DOCTYPE svg PUBLIC "-//W3C//DTD SVG 1.1//EN"
 "http://www.w3.org/Graphics/SVG/1.1/DTD/svg11.dtd">
<!-- Generated by graphviz version 14.1.2 (0)
 -->
<!-- Title: scrcpy_dataflow Pages: 1 -->
<svg width="944pt" height="635pt"
 viewBox="0.00 0.00 944.00 635.00" xmlns="http://www.w3.org/2000/svg" xmlns:xlink="http://www.w3.org/1999/xlink">
<g id="graph0" class="graph" transform="scale(1 1) rotate(0) translate(4 630.9)">
<title>scrcpy_dataflow</title>
<text xml:space="preserve" text-anchor="middle" x="468" y="-7.2" font-family="Times New Roman,serif" font-size="14.00">scrcpy &#45; Data Flow Between Components</text>
<!-- screen_cap -->
<g id="node1" class="node">
<title>screen_cap</title>
<path fill="#4caf50" stroke="black" d="M168,-239.9C168,-239.9 12,-239.9 12,-239.9 6,-239.9 0,-233.9 0,-227.9 0,-227.9 0,-165.5 0,-165.5 0,-159.5 6,-153.5 12,-153.5 12,-153.5 168,-153.5 168,-153.5 174,-153.5 180,-159.5 180,-165.5 180,-165.5 180,-227.9 180,-227.9 180,-233.9 174,-239.9 168,-239.9"/>
<text xml:space="preserve" text-anchor="middle" x="90" y="-199.55" font-family="Arial Bold" font-size="12.00" fill="white">ScreenCapture</text>
<text xml:space="preserve" text-anchor="middle" x="90" y="-185.3" font-family="Arial Bold" font-size="12.00" fill="white">(Android)</text>
</g>
<!-- video_stream -->
<g id="node4" class="node">
<title>video_stream</title>
<path fill="#ff9800" stroke="black" d="M420,-239.9C420,-239.9 264,-239.9 264,-239.9 258,-239.9 252,-233.9 252,-227.9 252,-227.9 252,-165.5 252,-165.5 252,-159.5 258,-153.5 264,-153.5 264,-153.5 420,-153.5 420,-153.5 426,-153.5 432,-159.5 432,-165.5 432,-165.5 432,-227.9 432,-227.9 432,-233.9 426,-239.9 420,-239.9"/>
<text xml:space="preserve" text-anchor="middle" x="342" y="-199.75" font-family="Arial" font-size="11.00" fill="white">Video Stream</text>
<text xml:space="preserve" text-anchor="middle" x="342" y="-186.25" font-family="Arial" font-size="11.00" fill="white">H.264/H.265/AV1</text>
</g>
<!-- screen_cap&#45;&gt;video_stream -->
<g id="edge1" class="edge">
<title>screen_cap&#45;&gt;video_stream</title>
<path fill="none" stroke="#4caf50" stroke-width="2" d="M180.27,-196.7C180.27,-196.7 238.49,-196.7 238.49,-196.7"/>
<polygon fill="#4caf50" stroke="#4caf50" stroke-width="2" points="238.49,-200.2 248.49,-196.7 238.49,-193.2 238.49,-200.2"/>
<text xml:space="preserve" text-anchor="middle" x="228.5" y="-183.4" font-family="Times New Roman,serif" font-size="14.00">encode</text>
</g>
<!-- audio_cap -->
<g id="node2" class="node">
<title>audio_cap</title>
<path fill="#4caf50" stroke="black" d="M168,-497.9C168,-497.9 12,-497.9 12,-497.9 6,-497.9 0,-491.9 0,-485.9 0,-485.9 0,-423.5 0,-423.5 0,-417.5 6,-411.5 12,-411.5 12,-411.5 168,-411.5 168,-411.5 174,-411.5 180,-417.5 180,-423.5 180,-423.5 180,-485.9 180,-485.9 180,-491.9 174,-497.9 168,-497.9"/>
<text xml:space="preserve" text-anchor="middle" x="90" y="-457.55" font-family="Arial Bold" font-size="12.00" fill="white">AudioCapture</text>
<text xml:space="preserve" text-anchor="middle" x="90" y="-443.3" font-family="Arial Bold" font-size="12.00" fill="white">(Android)</text>
</g>
<!-- audio_stream -->
<g id="node5" class="node">
<title>audio_stream</title>
<path fill="#ff9800" stroke="black" d="M420,-497.9C420,-497.9 264,-497.9 264,-497.9 258,-497.9 252,-491.9 252,-485.9 252,-485.9 252,-423.5 252,-423.5 252,-417.5 258,-411.5 264,-411.5 264,-411.5 420,-411.5 420,-411.5 426,-411.5 432,-417.5 432,-423.5 432,-423.5 432,-485.9 432,-485.9 432,-491.9 426,-497.9 420,-497.9"/>
<text xml:space="preserve" text-anchor="middle" x="342" y="-457.75" font-family="Arial" font-size="11.00" fill="white">Audio Stream</text>
<text xml:space="preserve" text-anchor="middle" x="342" y="-444.25" font-family="Arial" font-size="11.00" fill="white">OPUS/AAC/FLAC</text>
</g>
<!-- audio_cap&#45;&gt;audio_stream -->
<g id="edge2" class="edge">
<title>audio_cap&#45;&gt;audio_stream</title>
<path fill="none" stroke="#4caf50" stroke-width="2" d="M180.27,-454.7C180.27,-454.7 238.49,-454.7 238.49,-454.7"/>
<polygon fill="#4caf50" stroke="#4caf50" stroke-width="2" points="238.49,-458.2 248.49,-454.7 238.49,-451.2 238.49,-458.2"/>
<text xml:space="preserve" text-anchor="middle" x="228.5" y="-441.4" font-family="Times New Roman,serif" font-size="14.00">encode</text>
</g>
<!-- ctrl_recv -->
<g id="node3" class="node">
<title>ctrl_recv</title>
<path fill="#4caf50" stroke="black" d="M672,-626.9C672,-626.9 516,-626.9 516,-626.9 510,-626.9 504,-620.9 504,-614.9 504,-614.9 504,-552.5 504,-552.5 504,-546.5 510,-540.5 516,-540.5 516,-540.5 672,-540.5 672,-540.5 678,-540.5 684,-546.5 684,-552.5 684,-552.5 684,-614.9 684,-614.9 684,-620.9 678,-626.9 672,-626.9"/>
<text xml:space="preserve" text-anchor="middle" x="594" y="-586.55" font-family="Arial Bold" font-size="12.00" fill="white">Controller</text>
<text xml:space="preserve" text-anchor="middle" x="594" y="-572.3" font-family="Arial Bold" font-size="12.00" fill="white">(Android)</text>
</g>
<!-- video_dec -->
<g id="node7" class="node">
<title>video_dec</title>
<path fill="#2196f3" stroke="black" d="M672,-239.9C672,-239.9 516,-239.9 516,-239.9 510,-239.9 504,-233.9 504,-227.9 504,-227.9 504,-165.5 504,-165.5 504,-159.5 510,-153.5 516,-153.5 516,-153.5 672,-153.5 672,-153.5 678,-153.5 684,-159.5 684,-165.5 684,-165.5 684,-227.9 684,-227.9 684,-233.9 678,-239.9 672,-239.9"/>
<text xml:space="preserve" text-anchor="middle" x="594" y="-199.55" font-family="Arial Bold" font-size="12.00" fill="white">Video Decoder</text>
<text xml:space="preserve" text-anchor="middle" x="594" y="-185.3" font-family="Arial Bold" font-size="12.00" fill="white">(FFmpeg)</text>
</g>
<!-- video_stream&#45;&gt;video_dec -->
<g id="edge4" class="edge">
<title>video_stream&#45;&gt;video_dec</title>
<path fill="none" stroke="#ff9800" stroke-width="2" d="M432.27,-196.7C432.27,-196.7 490.49,-196.7 490.49,-196.7"/>
<polygon fill="#ff9800" stroke="#ff9800" stroke-width="2" points="490.49,-200.2 500.49,-196.7 490.49,-193.2 490.49,-200.2"/>
<text xml:space="preserve" text-anchor="middle" x="480.5" y="-183.4" font-family="Times New Roman,serif" font-size="14.00">decode</text>
</g>
<!-- audio_dec -->
<g id="node8" class="node">
<title>audio_dec</title>
<path fill="#2196f3" stroke="black" d="M672,-497.9C672,-497.9 516,-497.9 516,-497.9 510,-497.9 504,-491.9 504,-485.9 504,-485.9 504,-423.5 504,-423.5 504,-417.5 510,-411.5 516,-411.5 516,-411.5 672,-411.5 672,-411.5 678,-411.5 684,-417.5 684,-423.5 684,-423.5 684,-485.9 684,-485.9 684,-491.9 678,-497.9 672,-497.9"/>
<text xml:space="preserve" text-anchor="middle" x="594" y="-457.55" font-family="Arial Bold" font-size="12.00" fill="white">Audio Decoder</text>
<text xml:space="preserve" text-anchor="middle" x="594" y="-443.3" font-family="Arial Bold" font-size="12.00" fill="white">(FFmpeg)</text>
</g>
<!-- audio_stream&#45;&gt;audio_dec -->
<g id="edge5" class="edge">
<title>audio_stream&#45;&gt;audio_dec</title>
<path fill="none" stroke="#ff9800" stroke-width="2" d="M432.27,-454.7C432.27,-454.7 490.49,-454.7 490.49,-454.7"/>
<polygon fill="#ff9800" stroke="#ff9800" stroke-width="2" points="490.49,-458.2 500.49,-454.7 490.49,-451.2 490.49,-458.2"/>
<text xml:space="preserve" text-anchor="middle" x="480.5" y="-441.4" font-family="Times New Roman,serif" font-size="14.00">decode</text>
</g>
<!-- ctrl_stream -->
<g id="node6" class="node">
<title>ctrl_stream</title>
<path fill="#ff9800" stroke="black" d="M420,-626.9C420,-626.9 264,-626.9 264,-626.9 258,-626.9 252,-620.9 252,-614.9 252,-614.9 252,-552.5 252,-552.5 252,-546.5 258,-540.5 264,-540.5 264,-540.5 420,-540.5 420,-540.5 426,-540.5 432,-546.5 432,-552.5 432,-552.5 432,-614.9 432,-614.9 432,-620.9 426,-626.9 420,-626.9"/>
<text xml:space="preserve" text-anchor="middle" x="342" y="-586.75" font-family="Arial" font-size="11.00" fill="white">Control Channel</text>
<text xml:space="preserve" text-anchor="middle" x="342" y="-573.25" font-family="Arial" font-size="11.00" fill="white">Input Events</text>
</g>
<!-- ctrl_stream&#45;&gt;ctrl_recv -->
<g id="edge6" class="edge">
<title>ctrl_stream&#45;&gt;ctrl_recv</title>
<path fill="none" stroke="#f44336" stroke-width="2" d="M432.27,-583.7C432.27,-583.7 490.49,-583.7 490.49,-583.7"/>
<polygon fill="#f44336" stroke="#f44336" stroke-width="2" points="490.49,-587.2 500.49,-583.7 490.49,-580.2 490.49,-587.2"/>
<text xml:space="preserve" text-anchor="middle" x="482" y="-570.4" font-family="Times New Roman,serif" font-size="14.00">execute</text>
</g>
<!-- display -->
<g id="node10" class="node">
<title>display</title>
<path fill="#9c27b0" stroke="black" d="M924,-368.9C924,-368.9 768,-368.9 768,-368.9 762,-368.9 756,-362.9 756,-356.9 756,-356.9 756,-294.5 756,-294.5 756,-288.5 762,-282.5 768,-282.5 768,-282.5 924,-282.5 924,-282.5 930,-282.5 936,-288.5 936,-294.5 936,-294.5 936,-356.9 936,-356.9 936,-362.9 930,-368.9 924,-368.9"/>
<text xml:space="preserve" text-anchor="middle" x="846" y="-328.75" font-family="Arial" font-size="11.00" fill="white">SDL3 Window</text>
<text xml:space="preserve" text-anchor="middle" x="846" y="-315.25" font-family="Arial" font-size="11.00" fill="white">Display</text>
</g>
<!-- video_dec&#45;&gt;display -->
<g id="edge7" class="edge">
<title>video_dec&#45;&gt;display</title>
<path fill="none" stroke="#9c27b0" stroke-width="2" d="M594,-240.37C594,-277.8 594,-325.7 594,-325.7 594,-325.7 742.71,-325.7 742.71,-325.7"/>
<polygon fill="#9c27b0" stroke="#9c27b0" stroke-width="2" points="742.71,-329.2 752.71,-325.7 742.71,-322.2 742.71,-329.2"/>
<text xml:space="preserve" text-anchor="middle" x="608.44" y="-312.4" font-family="Times New Roman,serif" font-size="14.00">render</text>
</g>
<!-- file_out -->
<g id="node12" class="node">
<title>file_out</title>
<path fill="#9c27b0" stroke="black" d="M924,-239.9C924,-239.9 768,-239.9 768,-239.9 762,-239.9 756,-233.9 756,-227.9 756,-227.9 756,-165.5 756,-165.5 756,-159.5 762,-153.5 768,-153.5 768,-153.5 924,-153.5 924,-153.5 930,-153.5 936,-159.5 936,-165.5 936,-165.5 936,-227.9 936,-227.9 936,-233.9 930,-239.9 924,-239.9"/>
<text xml:space="preserve" text-anchor="middle" x="846" y="-199.75" font-family="Arial" font-size="11.00" fill="white">File Output</text>
<text xml:space="preserve" text-anchor="middle" x="846" y="-186.25" font-family="Arial" font-size="11.00" fill="white">MP4/MKV</text>
</g>
<!-- video_dec&#45;&gt;file_out -->
<g id="edge9" class="edge">
<title>video_dec&#45;&gt;file_out</title>
<path fill="none" stroke="#9c27b0" stroke-width="1.5" stroke-dasharray="5,2" d="M684.27,-196.7C684.27,-196.7 743.25,-196.7 743.25,-196.7"/>
<polygon fill="#9c27b0" stroke="#9c27b0" stroke-width="1.5" points="743.25,-200.2 753.25,-196.7 743.25,-193.2 743.25,-200.2"/>
<text xml:space="preserve" text-anchor="middle" x="731.01" y="-183.4" font-family="Times New Roman,serif" font-size="14.00">record</text>
</g>
<!-- v4l2_out -->
<g id="node13" class="node">
<title>v4l2_out</title>
<path fill="#9c27b0" stroke="black" d="M924,-110.9C924,-110.9 768,-110.9 768,-110.9 762,-110.9 756,-104.9 756,-98.9 756,-98.9 756,-36.5 756,-36.5 756,-30.5 762,-24.5 768,-24.5 768,-24.5 924,-24.5 924,-24.5 930,-24.5 936,-30.5 936,-36.5 936,-36.5 936,-98.9 936,-98.9 936,-104.9 930,-110.9 924,-110.9"/>
<text xml:space="preserve" text-anchor="middle" x="846" y="-70.75" font-family="Arial" font-size="11.00" fill="white">V4L2 Device</text>
<text xml:space="preserve" text-anchor="middle" x="846" y="-57.25" font-family="Arial" font-size="11.00" fill="white">Webcam</text>
</g>
<!-- video_dec&#45;&gt;v4l2_out -->
<g id="edge10" class="edge">
<title>video_dec&#45;&gt;v4l2_out</title>
<path fill="none" stroke="#9c27b0" stroke-width="1.5" stroke-dasharray="5,2" d="M594,-153.03C594,-115.6 594,-67.7 594,-67.7 594,-67.7 743.46,-67.7 743.46,-67.7"/>
<polygon fill="#9c27b0" stroke="#9c27b0" stroke-width="1.5" points="743.46,-71.2 753.46,-67.7 743.46,-64.2 743.46,-71.2"/>
<text xml:space="preserve" text-anchor="middle" x="614.82" y="-54.4" font-family="Times New Roman,serif" font-size="14.00">sink</text>
</g>
<!-- speakers -->
<g id="node11" class="node">
<title>speakers</title>
<path fill="#9c27b0" stroke="black" d="M924,-497.9C924,-497.9 768,-497.9 768,-497.9 762,-497.9 756,-491.9 756,-485.9 756,-485.9 756,-423.5 756,-423.5 756,-417.5 762,-411.5 768,-411.5 768,-411.5 924,-411.5 924,-411.5 930,-411.5 936,-417.5 936,-423.5 936,-423.5 936,-485.9 936,-485.9 936,-491.9 930,-497.9 924,-497.9"/>
<text xml:space="preserve" text-anchor="middle" x="846" y="-457.75" font-family="Arial" font-size="11.00" fill="white">Audio Output</text>
<text xml:space="preserve" text-anchor="middle" x="846" y="-444.25" font-family="Arial" font-size="11.00" fill="white">Speakers</text>
</g>
<!-- audio_dec&#45;&gt;speakers -->
<g id="edge8" class="edge">
<title>audio_dec&#45;&gt;speakers</title>
<path fill="none" stroke="#9c27b0" stroke-width="2" d="M684.27,-454.7C684.27,-454.7 742.49,-454.7 742.49,-454.7"/>
<polygon fill="#9c27b0" stroke="#9c27b0" stroke-width="2" points="742.49,-458.2 752.49,-454.7 742.49,-451.2 742.49,-458.2"/>
<text xml:space="preserve" text-anchor="middle" x="701.75" y="-441.4" font-family="Times New Roman,serif" font-size="14.00">play</text>
</g>
<!-- ctrl_send -->
<g id="node9" class="node">
<title>ctrl_send</title>
<path fill="#2196f3" stroke="black" d="M168,-626.9C168,-626.9 12,-626.9 12,-626.9 6,-626.9 0,-620.9 0,-614.9 0,-614.9 0,-552.5 0,-552.5 0,-546.5 6,-540.5 12,-540.5 12,-540.5 168,-540.5 168,-540.5 174,-540.5 180,-546.5 180,-552.5 180,-552.5 180,-614.9 180,-614.9 180,-620.9 174,-626.9 168,-626.9"/>
<text xml:space="preserve" text-anchor="middle" x="90" y="-586.55" font-family="Arial Bold" font-size="12.00" fill="white">Input Manager</text>
<text xml:space="preserve" text-anchor="middle" x="90" y="-572.3" font-family="Arial Bold" font-size="12.00" fill="white">(Desktop)</text>
</g>
<!-- ctrl_send&#45;&gt;ctrl_stream -->
<g id="edge3" class="edge">
<title>ctrl_send&#45;&gt;ctrl_stream</title>
<path fill="none" stroke="#f44336" stroke-width="2" d="M180.27,-583.7C180.27,-583.7 238.49,-583.7 238.49,-583.7"/>
<polygon fill="#f44336" stroke="#f44336" stroke-width="2" points="238.49,-587.2 248.49,-583.7 238.49,-580.2 238.49,-587.2"/>
<text xml:space="preserve" text-anchor="middle" x="224.38" y="-570.4" font-family="Times New Roman,serif" font-size="14.00">inject</text>
</g>
</g>
</svg>
