<?xml version="1.0" encoding="UTF-8" standalone="no"?>
<!DOCTYPE svg PUBLIC "-//W3C//DTD SVG 1.1//EN"
 "http://www.w3.org/Graphics/SVG/1.1/DTD/svg11.dtd">
<!-- Generated by graphviz version 14.1.4 (20260321.0153)
 -->
<!-- Title: py_async Pages: 1 -->
<svg width="590pt" height="385pt"
 viewBox="0.00 0.00 590.00 385.00" xmlns="http://www.w3.org/2000/svg" xmlns:xlink="http://www.w3.org/1999/xlink">
<style>
<!-- White text halo for edge label readability -->
text { paint-order: stroke; stroke: #ffffff; stroke-width: 3px; stroke-linejoin: round; fill: #1a1a2e; }
</style>
<g id="graph0" class="graph" transform="scale(1 1) rotate(0) translate(4 381.25)">
<title>py_async</title>
<polygon fill="white" stroke="none" points="-4,4 -4,-381.25 585.75,-381.25 585.75,4 -4,4"/>
<text xml:space="preserve" text-anchor="middle" x="290.88" y="-7.2" font-family="Times New Roman,serif" font-size="14.00">Python Concurrency &#45; Sync, Async, Threads, Processes</text>
<!-- title -->
<g id="node1" class="node">
<title>title</title>
<path fill="#1565c0" stroke="black" d="M348.88,-377.25C348.88,-377.25 222.62,-377.25 222.62,-377.25 216.62,-377.25 210.62,-371.25 210.62,-365.25 210.62,-365.25 210.62,-353.25 210.62,-353.25 210.62,-347.25 216.62,-341.25 222.62,-341.25 222.62,-341.25 348.88,-341.25 348.88,-341.25 354.88,-341.25 360.88,-347.25 360.88,-353.25 360.88,-353.25 360.88,-365.25 360.88,-365.25 360.88,-371.25 354.88,-377.25 348.88,-377.25"/>
<text xml:space="preserve" text-anchor="middle" x="285.75" y="-353.82" font-family="Arial Bold" font-size="14.00" fill="#ffffff">Concurrency Models</text>
</g>
<!-- job -->
<g id="node2" class="node">
<title>job</title>
<polygon fill="#ff9800" stroke="black" points="285.75,-283.25 194.97,-265.25 285.75,-247.25 376.53,-265.25 285.75,-283.25"/>
<text xml:space="preserve" text-anchor="middle" x="285.75" y="-261.75" font-family="Arial Bold" font-size="10.00" fill="#ffffff">What kind of work?</text>
</g>
<!-- title&#45;&gt;job -->
<g id="edge1" class="edge">
<title>title&#45;&gt;job</title>
<path fill="none" stroke="#2196f3" stroke-width="2" d="M285.75,-341.13C285.75,-341.13 285.75,-296.67 285.75,-296.67"/>
<polygon fill="#2196f3" stroke="#2196f3" stroke-width="2" points="289.25,-296.67 285.75,-286.67 282.25,-296.67 289.25,-296.67"/>
</g>
<!-- async -->
<g id="node3" class="node">
<title>async</title>
<path fill="#2196f3" stroke="black" d="M155.62,-189.25C155.62,-189.25 15.88,-189.25 15.88,-189.25 9.88,-189.25 3.88,-183.25 3.88,-177.25 3.88,-177.25 3.88,-150.5 3.88,-150.5 3.88,-144.5 9.88,-138.5 15.88,-138.5 15.88,-138.5 155.62,-138.5 155.62,-138.5 161.62,-138.5 167.62,-144.5 167.62,-150.5 167.62,-150.5 167.62,-177.25 167.62,-177.25 167.62,-183.25 161.62,-189.25 155.62,-189.25"/>
<text xml:space="preserve" text-anchor="middle" x="85.75" y="-173.85" font-family="Arial Bold" font-size="12.00" fill="#ffffff">asyncio</text>
<text xml:space="preserve" text-anchor="middle" x="85.75" y="-159.6" font-family="Arial Bold" font-size="12.00" fill="#ffffff">I/O&#45;bound, many waits</text>
<text xml:space="preserve" text-anchor="middle" x="85.75" y="-145.35" font-family="Arial Bold" font-size="12.00" fill="#ffffff">single thread, cooperative</text>
</g>
<!-- job&#45;&gt;async -->
<g id="edge2" class="edge">
<title>job&#45;&gt;async</title>
<path fill="none" stroke="#4caf50" stroke-width="2" d="M199.23,-264.11C199.23,-252.93 199.23,-163.5 199.23,-163.5 199.23,-163.5 180.95,-163.5 180.95,-163.5"/>
<polygon fill="#4caf50" stroke="#4caf50" stroke-width="2" points="180.95,-160 170.95,-163.5 180.95,-167 180.95,-160"/>
<text xml:space="preserve" text-anchor="middle" x="156.48" y="-207.86" font-family="Times New Roman,serif" font-size="14.00">I/O + awaitable</text>
</g>
<!-- thread -->
<g id="node4" class="node">
<title>thread</title>
<path fill="#2196f3" stroke="black" d="M356,-189.25C356,-189.25 215.5,-189.25 215.5,-189.25 209.5,-189.25 203.5,-183.25 203.5,-177.25 203.5,-177.25 203.5,-150.5 203.5,-150.5 203.5,-144.5 209.5,-138.5 215.5,-138.5 215.5,-138.5 356,-138.5 356,-138.5 362,-138.5 368,-144.5 368,-150.5 368,-150.5 368,-177.25 368,-177.25 368,-183.25 362,-189.25 356,-189.25"/>
<text xml:space="preserve" text-anchor="middle" x="285.75" y="-173.85" font-family="Arial Bold" font-size="12.00" fill="#ffffff">threading</text>
<text xml:space="preserve" text-anchor="middle" x="285.75" y="-159.6" font-family="Arial Bold" font-size="12.00" fill="#ffffff">I/O&#45;bound, blocking calls</text>
<text xml:space="preserve" text-anchor="middle" x="285.75" y="-145.35" font-family="Arial Bold" font-size="12.00" fill="#ffffff">GIL blocks parallel Python</text>
</g>
<!-- job&#45;&gt;thread -->
<g id="edge3" class="edge">
<title>job&#45;&gt;thread</title>
<path fill="none" stroke="#ff9800" stroke-width="2" d="M285.75,-247.13C285.75,-247.13 285.75,-202.49 285.75,-202.49"/>
<polygon fill="#ff9800" stroke="#ff9800" stroke-width="2" points="289.25,-202.49 285.75,-192.49 282.25,-202.49 289.25,-202.49"/>
<text xml:space="preserve" text-anchor="middle" x="245.25" y="-228.01" font-family="Times New Roman,serif" font-size="14.00">I/O + blocking</text>
</g>
<!-- proc -->
<g id="node5" class="node">
<title>proc</title>
<path fill="#2196f3" stroke="black" d="M569.75,-189.25C569.75,-189.25 415.75,-189.25 415.75,-189.25 409.75,-189.25 403.75,-183.25 403.75,-177.25 403.75,-177.25 403.75,-150.5 403.75,-150.5 403.75,-144.5 409.75,-138.5 415.75,-138.5 415.75,-138.5 569.75,-138.5 569.75,-138.5 575.75,-138.5 581.75,-144.5 581.75,-150.5 581.75,-150.5 581.75,-177.25 581.75,-177.25 581.75,-183.25 575.75,-189.25 569.75,-189.25"/>
<text xml:space="preserve" text-anchor="middle" x="492.75" y="-173.85" font-family="Arial Bold" font-size="12.00" fill="#ffffff">multiprocessing</text>
<text xml:space="preserve" text-anchor="middle" x="492.75" y="-159.6" font-family="Arial Bold" font-size="12.00" fill="#ffffff">CPU&#45;bound</text>
<text xml:space="preserve" text-anchor="middle" x="492.75" y="-145.35" font-family="Arial Bold" font-size="12.00" fill="#ffffff">separate interpreters, no GIL</text>
</g>
<!-- job&#45;&gt;proc -->
<g id="edge4" class="edge">
<title>job&#45;&gt;proc</title>
<path fill="none" stroke="#9c27b0" stroke-width="2" d="M372.27,-264.11C372.27,-252.93 372.27,-163.5 372.27,-163.5 372.27,-163.5 390.27,-163.5 390.27,-163.5"/>
<polygon fill="#9c27b0" stroke="#9c27b0" stroke-width="2" points="390.27,-167 400.27,-163.5 390.27,-160 390.27,-167"/>
<text xml:space="preserve" text-anchor="middle" x="340.77" y="-208" font-family="Times New Roman,serif" font-size="14.00">CPU&#45;heavy</text>
</g>
<!-- gil -->
<g id="node6" class="node">
<title>gil</title>
<path fill="#bbdefb" stroke="black" d="M296.12,-80.5C296.12,-80.5 75.38,-80.5 75.38,-80.5 69.38,-80.5 63.38,-74.5 63.38,-68.5 63.38,-68.5 63.38,-36.5 63.38,-36.5 63.38,-30.5 69.38,-24.5 75.38,-24.5 75.38,-24.5 296.12,-24.5 296.12,-24.5 302.12,-24.5 308.12,-30.5 308.12,-36.5 308.12,-36.5 308.12,-68.5 308.12,-68.5 308.12,-74.5 302.12,-80.5 296.12,-80.5"/>
<text xml:space="preserve" text-anchor="middle" x="185.75" y="-67" font-family="Arial" font-size="10.00" fill="#1a1a2e">The GIL</text>
<text xml:space="preserve" text-anchor="middle" x="185.75" y="-55" font-family="Arial" font-size="10.00" fill="#1a1a2e">one thread runs Python bytecode at a time</text>
<text xml:space="preserve" text-anchor="middle" x="185.75" y="-43" font-family="Arial" font-size="10.00" fill="#1a1a2e">&#45;&gt; threads don&#39;t parallelize CPU work</text>
<text xml:space="preserve" text-anchor="middle" x="185.75" y="-31" font-family="Arial" font-size="10.00" fill="#1a1a2e">(free&#45;threaded build in 3.13 removes it, experimental)</text>
</g>
<!-- async&#45;&gt;gil -->
<g id="edge6" class="edge">
<title>async&#45;&gt;gil</title>
<path fill="none" stroke="#f44336" stroke-width="1.5" stroke-dasharray="5,2" d="M115.5,-138.04C115.5,-138.04 115.5,-93.2 115.5,-93.2"/>
<polygon fill="#f44336" stroke="#f44336" stroke-width="1.5" points="119,-93.2 115.5,-83.2 112,-93.2 119,-93.2"/>
<text xml:space="preserve" text-anchor="middle" x="57.75" y="-118.82" font-family="Times New Roman,serif" font-size="14.00">single thread anyway</text>
</g>
<!-- thread&#45;&gt;gil -->
<g id="edge5" class="edge">
<title>thread&#45;&gt;gil</title>
<path fill="none" stroke="#f44336" stroke-width="1.5" stroke-dasharray="5,2" d="M255.81,-138.04C255.81,-138.04 255.81,-93.2 255.81,-93.2"/>
<polygon fill="#f44336" stroke="#f44336" stroke-width="1.5" points="259.31,-93.2 255.81,-83.2 252.31,-93.2 259.31,-93.2"/>
</g>
</g>
</svg>
