<?xml version="1.0" encoding="UTF-8" standalone="no"?>
<!DOCTYPE svg PUBLIC "-//W3C//DTD SVG 1.1//EN"
 "http://www.w3.org/Graphics/SVG/1.1/DTD/svg11.dtd">
<!-- Generated by graphviz version 14.1.4 (20260321.0153)
 -->
<!-- Title: py_dm Pages: 1 -->
<svg width="1760pt" height="445pt"
 viewBox="0.00 0.00 1760.00 445.00" xmlns="http://www.w3.org/2000/svg" xmlns:xlink="http://www.w3.org/1999/xlink">
<style>
<!-- White text halo for edge label readability -->
text { paint-order: stroke; stroke: #ffffff; stroke-width: 3px; stroke-linejoin: round; fill: #1a1a2e; }
</style>
<g id="graph0" class="graph" transform="scale(1 1) rotate(0) translate(4 441)">
<title>py_dm</title>
<polygon fill="white" stroke="none" points="-4,4 -4,-441 1755.5,-441 1755.5,4 -4,4"/>
<text xml:space="preserve" text-anchor="middle" x="875.75" y="-7.2" font-family="Times New Roman,serif" font-size="14.00">Python Data Model &#45; Protocols and Dunder Methods</text>
<!-- title -->
<g id="node1" class="node">
<title>title</title>
<path fill="#1565c0" stroke="black" d="M998,-437C998,-437 856,-437 856,-437 850,-437 844,-431 844,-425 844,-425 844,-413 844,-413 844,-407 850,-401 856,-401 856,-401 998,-401 998,-401 1004,-401 1010,-407 1010,-413 1010,-413 1010,-425 1010,-425 1010,-431 1004,-437 998,-437"/>
<text xml:space="preserve" text-anchor="middle" x="927" y="-413.57" font-family="Arial Bold" font-size="14.00" fill="#ffffff">The Python Data Model</text>
</g>
<!-- obj -->
<g id="node2" class="node">
<title>obj</title>
<polygon fill="#4caf50" stroke="black" points="1002.88,-343 851.12,-343 851.12,-307 1002.88,-307 1002.88,-343"/>
<text xml:space="preserve" text-anchor="middle" x="927" y="-328.05" font-family="Arial" font-size="11.00" fill="#ffffff">Your Object</text>
<text xml:space="preserve" text-anchor="middle" x="927" y="-314.55" font-family="Arial" font-size="11.00" fill="#ffffff">implements dunder methods</text>
</g>
<!-- title&#45;&gt;obj -->
<g id="edge1" class="edge">
<title>title&#45;&gt;obj</title>
<path fill="none" stroke="#2196f3" stroke-width="2" d="M927,-400.88C927,-400.88 927,-356.42 927,-356.42"/>
<polygon fill="#2196f3" stroke="#2196f3" stroke-width="2" points="930.5,-356.42 927,-346.42 923.5,-356.42 930.5,-356.42"/>
</g>
<!-- core -->
<g id="node3" class="node">
<title>core</title>
<path fill="#2196f3" stroke="black" d="M995.75,-249C995.75,-249 858.25,-249 858.25,-249 852.25,-249 846.25,-243 846.25,-237 846.25,-237 846.25,-224.5 846.25,-224.5 846.25,-218.5 852.25,-212.5 858.25,-212.5 858.25,-212.5 995.75,-212.5 995.75,-212.5 1001.75,-212.5 1007.75,-218.5 1007.75,-224.5 1007.75,-224.5 1007.75,-237 1007.75,-237 1007.75,-243 1001.75,-249 995.75,-249"/>
<text xml:space="preserve" text-anchor="middle" x="927" y="-233.6" font-family="Arial Bold" font-size="12.00" fill="#ffffff">Python syntax invokes</text>
<text xml:space="preserve" text-anchor="middle" x="927" y="-219.35" font-family="Arial Bold" font-size="12.00" fill="#ffffff">these via implicit protocol</text>
</g>
<!-- obj&#45;&gt;core -->
<g id="edge2" class="edge">
<title>obj&#45;&gt;core</title>
<path fill="none" stroke="#4caf50" stroke-width="2" d="M927,-306.83C927,-306.83 927,-262.22 927,-262.22"/>
<polygon fill="#4caf50" stroke="#4caf50" stroke-width="2" points="930.5,-262.22 927,-252.22 923.5,-262.22 930.5,-262.22"/>
</g>
<!-- init -->
<g id="node4" class="node">
<title>init</title>
<path fill="#2196f3" stroke="black" d="M194.5,-154.5C194.5,-154.5 133.5,-154.5 133.5,-154.5 127.5,-154.5 121.5,-148.5 121.5,-142.5 121.5,-142.5 121.5,-130.5 121.5,-130.5 121.5,-124.5 127.5,-118.5 133.5,-118.5 133.5,-118.5 194.5,-118.5 194.5,-118.5 200.5,-118.5 206.5,-124.5 206.5,-130.5 206.5,-130.5 206.5,-142.5 206.5,-142.5 206.5,-148.5 200.5,-154.5 194.5,-154.5"/>
<text xml:space="preserve" text-anchor="middle" x="164" y="-132.8" font-family="Arial Bold" font-size="11.00" fill="#ffffff">Construction</text>
</g>
<!-- core&#45;&gt;init -->
<g id="edge3" class="edge">
<title>core&#45;&gt;init</title>
<path fill="none" stroke="#4caf50" stroke-width="2" d="M846.07,-236.5C649.7,-236.5 164,-236.5 164,-236.5 164,-236.5 164,-167.87 164,-167.87"/>
<polygon fill="#4caf50" stroke="#4caf50" stroke-width="2" points="167.5,-167.87 164,-157.87 160.5,-167.87 167.5,-167.87"/>
</g>
<!-- repr -->
<g id="node8" class="node">
<title>repr</title>
<path fill="#2196f3" stroke="black" d="M472.12,-154.5C472.12,-154.5 399.88,-154.5 399.88,-154.5 393.88,-154.5 387.88,-148.5 387.88,-142.5 387.88,-142.5 387.88,-130.5 387.88,-130.5 387.88,-124.5 393.88,-118.5 399.88,-118.5 399.88,-118.5 472.12,-118.5 472.12,-118.5 478.12,-118.5 484.12,-124.5 484.12,-130.5 484.12,-130.5 484.12,-142.5 484.12,-142.5 484.12,-148.5 478.12,-154.5 472.12,-154.5"/>
<text xml:space="preserve" text-anchor="middle" x="436" y="-132.8" font-family="Arial Bold" font-size="11.00" fill="#ffffff">Representation</text>
</g>
<!-- core&#45;&gt;repr -->
<g id="edge7" class="edge">
<title>core&#45;&gt;repr</title>
<path fill="none" stroke="#00bcd4" stroke-width="2" d="M845.92,-224.5C706.46,-224.5 436,-224.5 436,-224.5 436,-224.5 436,-167.76 436,-167.76"/>
<polygon fill="#00bcd4" stroke="#00bcd4" stroke-width="2" points="439.5,-167.76 436,-157.76 432.5,-167.76 439.5,-167.76"/>
</g>
<!-- iter -->
<g id="node12" class="node">
<title>iter</title>
<path fill="#2196f3" stroke="black" d="M778.75,-154.5C778.75,-154.5 743.25,-154.5 743.25,-154.5 737.25,-154.5 731.25,-148.5 731.25,-142.5 731.25,-142.5 731.25,-130.5 731.25,-130.5 731.25,-124.5 737.25,-118.5 743.25,-118.5 743.25,-118.5 778.75,-118.5 778.75,-118.5 784.75,-118.5 790.75,-124.5 790.75,-130.5 790.75,-130.5 790.75,-142.5 790.75,-142.5 790.75,-148.5 784.75,-154.5 778.75,-154.5"/>
<text xml:space="preserve" text-anchor="middle" x="761" y="-132.8" font-family="Arial Bold" font-size="11.00" fill="#ffffff">Iteration</text>
</g>
<!-- core&#45;&gt;iter -->
<g id="edge11" class="edge">
<title>core&#45;&gt;iter</title>
<path fill="none" stroke="#ff9800" stroke-width="2" d="M872.06,-212.25C872.06,-187.18 872.06,-145.5 872.06,-145.5 872.06,-145.5 804.08,-145.5 804.08,-145.5"/>
<polygon fill="#ff9800" stroke="#ff9800" stroke-width="2" points="804.08,-142 794.08,-145.5 804.08,-149 804.08,-142"/>
</g>
<!-- op -->
<g id="node17" class="node">
<title>op</title>
<path fill="#2196f3" stroke="black" d="M1115.25,-154.5C1115.25,-154.5 1070.75,-154.5 1070.75,-154.5 1064.75,-154.5 1058.75,-148.5 1058.75,-142.5 1058.75,-142.5 1058.75,-130.5 1058.75,-130.5 1058.75,-124.5 1064.75,-118.5 1070.75,-118.5 1070.75,-118.5 1115.25,-118.5 1115.25,-118.5 1121.25,-118.5 1127.25,-124.5 1127.25,-130.5 1127.25,-130.5 1127.25,-142.5 1127.25,-142.5 1127.25,-148.5 1121.25,-154.5 1115.25,-154.5"/>
<text xml:space="preserve" text-anchor="middle" x="1093" y="-132.8" font-family="Arial Bold" font-size="11.00" fill="#ffffff">Operators</text>
</g>
<!-- core&#45;&gt;op -->
<g id="edge16" class="edge">
<title>core&#45;&gt;op</title>
<path fill="none" stroke="#9c27b0" stroke-width="2" d="M1008.05,-221.5C1050.19,-221.5 1093,-221.5 1093,-221.5 1093,-221.5 1093,-167.97 1093,-167.97"/>
<polygon fill="#9c27b0" stroke="#9c27b0" stroke-width="2" points="1096.5,-167.97 1093,-157.97 1089.5,-167.97 1096.5,-167.97"/>
</g>
<!-- ctx -->
<g id="node22" class="node">
<title>ctx</title>
<path fill="#2196f3" stroke="black" d="M1456.12,-154.5C1456.12,-154.5 1383.88,-154.5 1383.88,-154.5 1377.88,-154.5 1371.88,-148.5 1371.88,-142.5 1371.88,-142.5 1371.88,-130.5 1371.88,-130.5 1371.88,-124.5 1377.88,-118.5 1383.88,-118.5 1383.88,-118.5 1456.12,-118.5 1456.12,-118.5 1462.12,-118.5 1468.12,-124.5 1468.12,-130.5 1468.12,-130.5 1468.12,-142.5 1468.12,-142.5 1468.12,-148.5 1462.12,-154.5 1456.12,-154.5"/>
<text xml:space="preserve" text-anchor="middle" x="1420" y="-132.8" font-family="Arial Bold" font-size="11.00" fill="#ffffff">Context + Attrs</text>
</g>
<!-- core&#45;&gt;ctx -->
<g id="edge21" class="edge">
<title>core&#45;&gt;ctx</title>
<path fill="none" stroke="#f44336" stroke-width="2" d="M1008.13,-230.5C1148.08,-230.5 1420,-230.5 1420,-230.5 1420,-230.5 1420,-167.65 1420,-167.65"/>
<polygon fill="#f44336" stroke="#f44336" stroke-width="2" points="1423.5,-167.65 1420,-157.65 1416.5,-167.65 1423.5,-167.65"/>
</g>
<!-- note -->
<g id="node26" class="node">
<title>note</title>
<path fill="#bbdefb" stroke="black" d="M1739.5,-154.5C1739.5,-154.5 1516.5,-154.5 1516.5,-154.5 1510.5,-154.5 1504.5,-148.5 1504.5,-142.5 1504.5,-142.5 1504.5,-130.5 1504.5,-130.5 1504.5,-124.5 1510.5,-118.5 1516.5,-118.5 1516.5,-118.5 1739.5,-118.5 1739.5,-118.5 1745.5,-118.5 1751.5,-124.5 1751.5,-130.5 1751.5,-130.5 1751.5,-142.5 1751.5,-142.5 1751.5,-148.5 1745.5,-154.5 1739.5,-154.5"/>
<text xml:space="preserve" text-anchor="middle" x="1628" y="-139" font-family="Arial" font-size="10.00" fill="#1a1a2e">Duck typing: if it quacks like the protocol,</text>
<text xml:space="preserve" text-anchor="middle" x="1628" y="-127" font-family="Arial" font-size="10.00" fill="#1a1a2e">Python treats it as that type. No inheritance required.</text>
</g>
<!-- core&#45;&gt;note -->
<g id="edge25" class="edge">
<title>core&#45;&gt;note</title>
<path fill="none" stroke="#9c27b0" stroke-width="1.5" stroke-dasharray="5,2" d="M1008.1,-239.5C1192.62,-239.5 1628,-239.5 1628,-239.5 1628,-239.5 1628,-167.18 1628,-167.18"/>
<polygon fill="#9c27b0" stroke="#9c27b0" stroke-width="1.5" points="1631.5,-167.18 1628,-157.18 1624.5,-167.18 1631.5,-167.18"/>
</g>
<!-- init_0 -->
<g id="node5" class="node">
<title>init_0</title>
<path fill="#bbdefb" stroke="black" d="M42,-60.5C42,-60.5 12,-60.5 12,-60.5 6,-60.5 0,-54.5 0,-48.5 0,-48.5 0,-36.5 0,-36.5 0,-30.5 6,-24.5 12,-24.5 12,-24.5 42,-24.5 42,-24.5 48,-24.5 54,-30.5 54,-36.5 54,-36.5 54,-48.5 54,-48.5 54,-54.5 48,-60.5 42,-60.5"/>
<text xml:space="preserve" text-anchor="middle" x="27" y="-39" font-family="Arial" font-size="10.00" fill="#1a1a2e">__init__</text>
</g>
<!-- init&#45;&gt;init_0 -->
<g id="edge4" class="edge">
<title>init&#45;&gt;init_0</title>
<path fill="none" stroke="#4caf50" stroke-width="1.5" d="M121.03,-136.5C80.85,-136.5 27,-136.5 27,-136.5 27,-136.5 27,-72.89 27,-72.89"/>
<polygon fill="#4caf50" stroke="#4caf50" stroke-width="1.5" points="30.5,-72.89 27,-62.89 23.5,-72.89 30.5,-72.89"/>
</g>
<!-- init_1 -->
<g id="node6" class="node">
<title>init_1</title>
<path fill="#bbdefb" stroke="black" d="M133.5,-60.5C133.5,-60.5 102.5,-60.5 102.5,-60.5 96.5,-60.5 90.5,-54.5 90.5,-48.5 90.5,-48.5 90.5,-36.5 90.5,-36.5 90.5,-30.5 96.5,-24.5 102.5,-24.5 102.5,-24.5 133.5,-24.5 133.5,-24.5 139.5,-24.5 145.5,-30.5 145.5,-36.5 145.5,-36.5 145.5,-48.5 145.5,-48.5 145.5,-54.5 139.5,-60.5 133.5,-60.5"/>
<text xml:space="preserve" text-anchor="middle" x="118" y="-39" font-family="Arial" font-size="10.00" fill="#1a1a2e">__new__</text>
</g>
<!-- init&#45;&gt;init_1 -->
<g id="edge5" class="edge">
<title>init&#45;&gt;init_1</title>
<path fill="none" stroke="#4caf50" stroke-width="1.5" d="M133.5,-118.38C133.5,-118.38 133.5,-73.16 133.5,-73.16"/>
<polygon fill="#4caf50" stroke="#4caf50" stroke-width="1.5" points="137,-73.16 133.5,-63.16 130,-73.16 137,-73.16"/>
</g>
<!-- init_2 -->
<g id="node7" class="node">
<title>init_2</title>
<path fill="#bbdefb" stroke="black" d="M224,-60.5C224,-60.5 194,-60.5 194,-60.5 188,-60.5 182,-54.5 182,-48.5 182,-48.5 182,-36.5 182,-36.5 182,-30.5 188,-24.5 194,-24.5 194,-24.5 224,-24.5 224,-24.5 230,-24.5 236,-30.5 236,-36.5 236,-36.5 236,-48.5 236,-48.5 236,-54.5 230,-60.5 224,-60.5"/>
<text xml:space="preserve" text-anchor="middle" x="209" y="-39" font-family="Arial" font-size="10.00" fill="#1a1a2e">__del__</text>
</g>
<!-- init&#45;&gt;init_2 -->
<g id="edge6" class="edge">
<title>init&#45;&gt;init_2</title>
<path fill="none" stroke="#4caf50" stroke-width="1.5" d="M194.25,-118.38C194.25,-118.38 194.25,-73.16 194.25,-73.16"/>
<polygon fill="#4caf50" stroke="#4caf50" stroke-width="1.5" points="197.75,-73.16 194.25,-63.16 190.75,-73.16 197.75,-73.16"/>
</g>
<!-- repr_0 -->
<g id="node9" class="node">
<title>repr_0</title>
<path fill="#bbdefb" stroke="black" d="M314,-60.5C314,-60.5 284,-60.5 284,-60.5 278,-60.5 272,-54.5 272,-48.5 272,-48.5 272,-36.5 272,-36.5 272,-30.5 278,-24.5 284,-24.5 284,-24.5 314,-24.5 314,-24.5 320,-24.5 326,-30.5 326,-36.5 326,-36.5 326,-48.5 326,-48.5 326,-54.5 320,-60.5 314,-60.5"/>
<text xml:space="preserve" text-anchor="middle" x="299" y="-39" font-family="Arial" font-size="10.00" fill="#1a1a2e">__repr__</text>
</g>
<!-- repr&#45;&gt;repr_0 -->
<g id="edge8" class="edge">
<title>repr&#45;&gt;repr_0</title>
<path fill="none" stroke="#00bcd4" stroke-width="1.5" d="M387.7,-136.5C348.26,-136.5 299,-136.5 299,-136.5 299,-136.5 299,-72.89 299,-72.89"/>
<polygon fill="#00bcd4" stroke="#00bcd4" stroke-width="1.5" points="302.5,-72.89 299,-62.89 295.5,-72.89 302.5,-72.89"/>
</g>
<!-- repr_1 -->
<g id="node10" class="node">
<title>repr_1</title>
<path fill="#bbdefb" stroke="black" d="M404,-60.5C404,-60.5 374,-60.5 374,-60.5 368,-60.5 362,-54.5 362,-48.5 362,-48.5 362,-36.5 362,-36.5 362,-30.5 368,-24.5 374,-24.5 374,-24.5 404,-24.5 404,-24.5 410,-24.5 416,-30.5 416,-36.5 416,-36.5 416,-48.5 416,-48.5 416,-54.5 410,-60.5 404,-60.5"/>
<text xml:space="preserve" text-anchor="middle" x="389" y="-39" font-family="Arial" font-size="10.00" fill="#1a1a2e">__str__</text>
</g>
<!-- repr&#45;&gt;repr_1 -->
<g id="edge9" class="edge">
<title>repr&#45;&gt;repr_1</title>
<path fill="none" stroke="#00bcd4" stroke-width="1.5" d="M401.94,-118.38C401.94,-118.38 401.94,-73.16 401.94,-73.16"/>
<polygon fill="#00bcd4" stroke="#00bcd4" stroke-width="1.5" points="405.44,-73.16 401.94,-63.16 398.44,-73.16 405.44,-73.16"/>
</g>
<!-- repr_2 -->
<g id="node11" class="node">
<title>repr_2</title>
<path fill="#bbdefb" stroke="black" d="M504.38,-60.5C504.38,-60.5 463.62,-60.5 463.62,-60.5 457.62,-60.5 451.62,-54.5 451.62,-48.5 451.62,-48.5 451.62,-36.5 451.62,-36.5 451.62,-30.5 457.62,-24.5 463.62,-24.5 463.62,-24.5 504.38,-24.5 504.38,-24.5 510.38,-24.5 516.38,-30.5 516.38,-36.5 516.38,-36.5 516.38,-48.5 516.38,-48.5 516.38,-54.5 510.38,-60.5 504.38,-60.5"/>
<text xml:space="preserve" text-anchor="middle" x="484" y="-39" font-family="Arial" font-size="10.00" fill="#1a1a2e">__format__</text>
</g>
<!-- repr&#45;&gt;repr_2 -->
<g id="edge10" class="edge">
<title>repr&#45;&gt;repr_2</title>
<path fill="none" stroke="#00bcd4" stroke-width="1.5" d="M467.88,-118.38C467.88,-118.38 467.88,-73.16 467.88,-73.16"/>
<polygon fill="#00bcd4" stroke="#00bcd4" stroke-width="1.5" points="471.38,-73.16 467.88,-63.16 464.38,-73.16 471.38,-73.16"/>
</g>
<!-- iter_0 -->
<g id="node13" class="node">
<title>iter_0</title>
<path fill="#bbdefb" stroke="black" d="M594,-60.5C594,-60.5 564,-60.5 564,-60.5 558,-60.5 552,-54.5 552,-48.5 552,-48.5 552,-36.5 552,-36.5 552,-30.5 558,-24.5 564,-24.5 564,-24.5 594,-24.5 594,-24.5 600,-24.5 606,-30.5 606,-36.5 606,-36.5 606,-48.5 606,-48.5 606,-54.5 600,-60.5 594,-60.5"/>
<text xml:space="preserve" text-anchor="middle" x="579" y="-39" font-family="Arial" font-size="10.00" fill="#1a1a2e">__iter__</text>
</g>
<!-- iter&#45;&gt;iter_0 -->
<g id="edge12" class="edge">
<title>iter&#45;&gt;iter_0</title>
<path fill="none" stroke="#ff9800" stroke-width="1.5" d="M730.95,-142.5C679.25,-142.5 579,-142.5 579,-142.5 579,-142.5 579,-73.11 579,-73.11"/>
<polygon fill="#ff9800" stroke="#ff9800" stroke-width="1.5" points="582.5,-73.11 579,-63.11 575.5,-73.11 582.5,-73.11"/>
</g>
<!-- iter_1 -->
<g id="node14" class="node">
<title>iter_1</title>
<path fill="#bbdefb" stroke="black" d="M685.88,-60.5C685.88,-60.5 654.12,-60.5 654.12,-60.5 648.12,-60.5 642.12,-54.5 642.12,-48.5 642.12,-48.5 642.12,-36.5 642.12,-36.5 642.12,-30.5 648.12,-24.5 654.12,-24.5 654.12,-24.5 685.88,-24.5 685.88,-24.5 691.88,-24.5 697.88,-30.5 697.88,-36.5 697.88,-36.5 697.88,-48.5 697.88,-48.5 697.88,-54.5 691.88,-60.5 685.88,-60.5"/>
<text xml:space="preserve" text-anchor="middle" x="670" y="-39" font-family="Arial" font-size="10.00" fill="#1a1a2e">__next__</text>
</g>
<!-- iter&#45;&gt;iter_1 -->
<g id="edge13" class="edge">
<title>iter&#45;&gt;iter_1</title>
<path fill="none" stroke="#ff9800" stroke-width="1.5" d="M730.95,-130.5C704.44,-130.5 670,-130.5 670,-130.5 670,-130.5 670,-73 670,-73"/>
<polygon fill="#ff9800" stroke="#ff9800" stroke-width="1.5" points="673.5,-73 670,-63 666.5,-73 673.5,-73"/>
</g>
<!-- iter_2 -->
<g id="node15" class="node">
<title>iter_2</title>
<path fill="#bbdefb" stroke="black" d="M776,-60.5C776,-60.5 746,-60.5 746,-60.5 740,-60.5 734,-54.5 734,-48.5 734,-48.5 734,-36.5 734,-36.5 734,-30.5 740,-24.5 746,-24.5 746,-24.5 776,-24.5 776,-24.5 782,-24.5 788,-30.5 788,-36.5 788,-36.5 788,-48.5 788,-48.5 788,-54.5 782,-60.5 776,-60.5"/>
<text xml:space="preserve" text-anchor="middle" x="761" y="-39" font-family="Arial" font-size="10.00" fill="#1a1a2e">__len__</text>
</g>
<!-- iter&#45;&gt;iter_2 -->
<g id="edge14" class="edge">
<title>iter&#45;&gt;iter_2</title>
<path fill="none" stroke="#ff9800" stroke-width="1.5" d="M761,-118.38C761,-118.38 761,-73.16 761,-73.16"/>
<polygon fill="#ff9800" stroke="#ff9800" stroke-width="1.5" points="764.5,-73.16 761,-63.16 757.5,-73.16 764.5,-73.16"/>
</g>
<!-- iter_3 -->
<g id="node16" class="node">
<title>iter_3</title>
<path fill="#bbdefb" stroke="black" d="M885.88,-60.5C885.88,-60.5 836.12,-60.5 836.12,-60.5 830.12,-60.5 824.12,-54.5 824.12,-48.5 824.12,-48.5 824.12,-36.5 824.12,-36.5 824.12,-30.5 830.12,-24.5 836.12,-24.5 836.12,-24.5 885.88,-24.5 885.88,-24.5 891.88,-24.5 897.88,-30.5 897.88,-36.5 897.88,-36.5 897.88,-48.5 897.88,-48.5 897.88,-54.5 891.88,-60.5 885.88,-60.5"/>
<text xml:space="preserve" text-anchor="middle" x="861" y="-39" font-family="Arial" font-size="10.00" fill="#1a1a2e">__contains__</text>
</g>
<!-- iter&#45;&gt;iter_3 -->
<g id="edge15" class="edge">
<title>iter&#45;&gt;iter_3</title>
<path fill="none" stroke="#ff9800" stroke-width="1.5" d="M791.14,-127.5C811.27,-127.5 834.06,-127.5 834.06,-127.5 834.06,-127.5 834.06,-73.21 834.06,-73.21"/>
<polygon fill="#ff9800" stroke="#ff9800" stroke-width="1.5" points="837.56,-73.21 834.06,-63.21 830.56,-73.21 837.56,-73.21"/>
</g>
<!-- op_0 -->
<g id="node18" class="node">
<title>op_0</title>
<path fill="#bbdefb" stroke="black" d="M998.38,-60.5C998.38,-60.5 945.62,-60.5 945.62,-60.5 939.62,-60.5 933.62,-54.5 933.62,-48.5 933.62,-48.5 933.62,-36.5 933.62,-36.5 933.62,-30.5 939.62,-24.5 945.62,-24.5 945.62,-24.5 998.38,-24.5 998.38,-24.5 1004.38,-24.5 1010.38,-30.5 1010.38,-36.5 1010.38,-36.5 1010.38,-48.5 1010.38,-48.5 1010.38,-54.5 1004.38,-60.5 998.38,-60.5"/>
<text xml:space="preserve" text-anchor="middle" x="972" y="-39" font-family="Arial" font-size="10.00" fill="#1a1a2e">__eq__ __lt__</text>
</g>
<!-- op&#45;&gt;op_0 -->
<g id="edge17" class="edge">
<title>op&#45;&gt;op_0</title>
<path fill="none" stroke="#9c27b0" stroke-width="1.5" d="M1058.28,-136.5C1022.12,-136.5 970.69,-136.5 970.69,-136.5 970.69,-136.5 970.69,-72.89 970.69,-72.89"/>
<polygon fill="#9c27b0" stroke="#9c27b0" stroke-width="1.5" points="974.19,-72.89 970.69,-62.89 967.19,-72.89 974.19,-72.89"/>
</g>
<!-- op_1 -->
<g id="node19" class="node">
<title>op_1</title>
<path fill="#bbdefb" stroke="black" d="M1127.25,-60.5C1127.25,-60.5 1058.75,-60.5 1058.75,-60.5 1052.75,-60.5 1046.75,-54.5 1046.75,-48.5 1046.75,-48.5 1046.75,-36.5 1046.75,-36.5 1046.75,-30.5 1052.75,-24.5 1058.75,-24.5 1058.75,-24.5 1127.25,-24.5 1127.25,-24.5 1133.25,-24.5 1139.25,-30.5 1139.25,-36.5 1139.25,-36.5 1139.25,-48.5 1139.25,-48.5 1139.25,-54.5 1133.25,-60.5 1127.25,-60.5"/>
<text xml:space="preserve" text-anchor="middle" x="1093" y="-39" font-family="Arial" font-size="10.00" fill="#1a1a2e">__add__ __mul__</text>
</g>
<!-- op&#45;&gt;op_1 -->
<g id="edge18" class="edge">
<title>op&#45;&gt;op_1</title>
<path fill="none" stroke="#9c27b0" stroke-width="1.5" d="M1093,-118.38C1093,-118.38 1093,-73.16 1093,-73.16"/>
<polygon fill="#9c27b0" stroke="#9c27b0" stroke-width="1.5" points="1096.5,-73.16 1093,-63.16 1089.5,-73.16 1096.5,-73.16"/>
</g>
<!-- op_2 -->
<g id="node20" class="node">
<title>op_2</title>
<path fill="#bbdefb" stroke="black" d="M1217,-60.5C1217,-60.5 1187,-60.5 1187,-60.5 1181,-60.5 1175,-54.5 1175,-48.5 1175,-48.5 1175,-36.5 1175,-36.5 1175,-30.5 1181,-24.5 1187,-24.5 1187,-24.5 1217,-24.5 1217,-24.5 1223,-24.5 1229,-30.5 1229,-36.5 1229,-36.5 1229,-48.5 1229,-48.5 1229,-54.5 1223,-60.5 1217,-60.5"/>
<text xml:space="preserve" text-anchor="middle" x="1202" y="-39" font-family="Arial" font-size="10.00" fill="#1a1a2e">__call__</text>
</g>
<!-- op&#45;&gt;op_2 -->
<g id="edge19" class="edge">
<title>op&#45;&gt;op_2</title>
<path fill="none" stroke="#9c27b0" stroke-width="1.5" d="M1127.49,-130.5C1159.42,-130.5 1202,-130.5 1202,-130.5 1202,-130.5 1202,-73 1202,-73"/>
<polygon fill="#9c27b0" stroke="#9c27b0" stroke-width="1.5" points="1205.5,-73 1202,-63 1198.5,-73 1205.5,-73"/>
</g>
<!-- op_3 -->
<g id="node21" class="node">
<title>op_3</title>
<path fill="#bbdefb" stroke="black" d="M1322.62,-60.5C1322.62,-60.5 1277.38,-60.5 1277.38,-60.5 1271.38,-60.5 1265.38,-54.5 1265.38,-48.5 1265.38,-48.5 1265.38,-36.5 1265.38,-36.5 1265.38,-30.5 1271.38,-24.5 1277.38,-24.5 1277.38,-24.5 1322.62,-24.5 1322.62,-24.5 1328.62,-24.5 1334.62,-30.5 1334.62,-36.5 1334.62,-36.5 1334.62,-48.5 1334.62,-48.5 1334.62,-54.5 1328.62,-60.5 1322.62,-60.5"/>
<text xml:space="preserve" text-anchor="middle" x="1300" y="-39" font-family="Arial" font-size="10.00" fill="#1a1a2e">__getitem__</text>
</g>
<!-- op&#45;&gt;op_3 -->
<g id="edge20" class="edge">
<title>op&#45;&gt;op_3</title>
<path fill="none" stroke="#9c27b0" stroke-width="1.5" d="M1127.65,-142.5C1186.57,-142.5 1300,-142.5 1300,-142.5 1300,-142.5 1300,-73.11 1300,-73.11"/>
<polygon fill="#9c27b0" stroke="#9c27b0" stroke-width="1.5" points="1303.5,-73.11 1300,-63.11 1296.5,-73.11 1303.5,-73.11"/>
</g>
<!-- ctx_0 -->
<g id="node23" class="node">
<title>ctx_0</title>
<path fill="#bbdefb" stroke="black" d="M1457.25,-60.5C1457.25,-60.5 1382.75,-60.5 1382.75,-60.5 1376.75,-60.5 1370.75,-54.5 1370.75,-48.5 1370.75,-48.5 1370.75,-36.5 1370.75,-36.5 1370.75,-30.5 1376.75,-24.5 1382.75,-24.5 1382.75,-24.5 1457.25,-24.5 1457.25,-24.5 1463.25,-24.5 1469.25,-30.5 1469.25,-36.5 1469.25,-36.5 1469.25,-48.5 1469.25,-48.5 1469.25,-54.5 1463.25,-60.5 1457.25,-60.5"/>
<text xml:space="preserve" text-anchor="middle" x="1420" y="-39" font-family="Arial" font-size="10.00" fill="#1a1a2e">__enter__ __exit__</text>
</g>
<!-- ctx&#45;&gt;ctx_0 -->
<g id="edge22" class="edge">
<title>ctx&#45;&gt;ctx_0</title>
<path fill="none" stroke="#f44336" stroke-width="1.5" d="M1403.96,-118.38C1403.96,-118.38 1403.96,-73.16 1403.96,-73.16"/>
<polygon fill="#f44336" stroke="#f44336" stroke-width="1.5" points="1407.46,-73.16 1403.96,-63.16 1400.46,-73.16 1407.46,-73.16"/>
</g>
<!-- ctx_1 -->
<g id="node24" class="node">
<title>ctx_1</title>
<path fill="#bbdefb" stroke="black" d="M1558.38,-60.5C1558.38,-60.5 1517.62,-60.5 1517.62,-60.5 1511.62,-60.5 1505.62,-54.5 1505.62,-48.5 1505.62,-48.5 1505.62,-36.5 1505.62,-36.5 1505.62,-30.5 1511.62,-24.5 1517.62,-24.5 1517.62,-24.5 1558.38,-24.5 1558.38,-24.5 1564.38,-24.5 1570.38,-30.5 1570.38,-36.5 1570.38,-36.5 1570.38,-48.5 1570.38,-48.5 1570.38,-54.5 1564.38,-60.5 1558.38,-60.5"/>
<text xml:space="preserve" text-anchor="middle" x="1538" y="-39" font-family="Arial" font-size="10.00" fill="#1a1a2e">__getattr__</text>
</g>
<!-- ctx&#45;&gt;ctx_1 -->
<g id="edge23" class="edge">
<title>ctx&#45;&gt;ctx_1</title>
<path fill="none" stroke="#f44336" stroke-width="1.5" d="M1468.6,-136.5C1478.97,-136.5 1486.88,-136.5 1486.88,-136.5 1486.88,-136.5 1486.88,-42.5 1486.88,-42.5 1486.88,-42.5 1493.06,-42.5 1493.06,-42.5"/>
<polygon fill="#f44336" stroke="#f44336" stroke-width="1.5" points="1493.06,-46 1503.06,-42.5 1493.06,-39 1493.06,-46"/>
</g>
<!-- ctx_2 -->
<g id="node25" class="node">
<title>ctx_2</title>
<path fill="#bbdefb" stroke="black" d="M1659.38,-60.5C1659.38,-60.5 1618.62,-60.5 1618.62,-60.5 1612.62,-60.5 1606.62,-54.5 1606.62,-48.5 1606.62,-48.5 1606.62,-36.5 1606.62,-36.5 1606.62,-30.5 1612.62,-24.5 1618.62,-24.5 1618.62,-24.5 1659.38,-24.5 1659.38,-24.5 1665.38,-24.5 1671.38,-30.5 1671.38,-36.5 1671.38,-36.5 1671.38,-48.5 1671.38,-48.5 1671.38,-54.5 1665.38,-60.5 1659.38,-60.5"/>
<text xml:space="preserve" text-anchor="middle" x="1639" y="-39" font-family="Arial" font-size="10.00" fill="#1a1a2e">__setattr__</text>
</g>
<!-- ctx&#45;&gt;ctx_2 -->
<g id="edge24" class="edge">
<title>ctx&#45;&gt;ctx_2</title>
<path fill="none" stroke="#f44336" stroke-width="1.5" d="M1436.04,-118.19C1436.04,-105 1436.04,-89.5 1436.04,-89.5 1436.04,-89.5 1639,-89.5 1639,-89.5 1639,-89.5 1639,-73.08 1639,-73.08"/>
<polygon fill="#f44336" stroke="#f44336" stroke-width="1.5" points="1642.5,-73.08 1639,-63.08 1635.5,-73.08 1642.5,-73.08"/>
</g>
</g>
</svg>
