<?xml version="1.0" encoding="UTF-8" standalone="no"?>
<!DOCTYPE svg PUBLIC "-//W3C//DTD SVG 1.1//EN"
 "http://www.w3.org/Graphics/SVG/1.1/DTD/svg11.dtd">
<!-- Generated by graphviz version 14.1.2 (0)
 -->
<!-- Title: flashlib_gemm_pareto Pages: 1 -->
<svg width="1263pt" height="609pt"
 viewBox="0.00 0.00 1263.00 609.00" xmlns="http://www.w3.org/2000/svg" xmlns:xlink="http://www.w3.org/1999/xlink">
<g id="graph0" class="graph" transform="scale(1 1) rotate(0) translate(4 605.4)">
<title>flashlib_gemm_pareto</title>
<text xml:space="preserve" text-anchor="middle" x="627.32" y="-23.7" font-family="Times New Roman,serif" font-size="14.00">FlashLib Multi&#45;Precision GEMM Pareto Frontier</text>
<text xml:space="preserve" text-anchor="middle" x="627.32" y="-7.2" font-family="Times New Roman,serif" font-size="14.00">shape=(8192,8192,8192) on H200</text>
<!-- x_axis -->
<g id="node1" class="node">
<title>x_axis</title>
<path fill="#f5f5f5" stroke="black" d="M779.6,-166.8C779.6,-166.8 602,-166.8 602,-166.8 596,-166.8 590,-160.8 590,-154.8 590,-154.8 590,-142.8 590,-142.8 590,-136.8 596,-130.8 602,-130.8 602,-130.8 779.6,-130.8 779.6,-130.8 785.6,-130.8 791.6,-136.8 791.6,-142.8 791.6,-142.8 791.6,-154.8 791.6,-154.8 791.6,-160.8 785.6,-166.8 779.6,-166.8"/>
<text xml:space="preserve" text-anchor="middle" x="690.8" y="-145.3" font-family="Arial Bold" font-size="10.00" fill="#333333">Runtime (ms) &#45;&gt;</text>
</g>
<!-- p_fp16 -->
<g id="node7" class="node">
<title>p_fp16</title>
<path fill="#4caf50" stroke="black" d="M894.6,-84.2C894.6,-84.2 717,-84.2 717,-84.2 711,-84.2 705,-78.2 705,-72.2 705,-72.2 705,-53 705,-53 705,-47 711,-41 717,-41 717,-41 894.6,-41 894.6,-41 900.6,-41 906.6,-47 906.6,-53 906.6,-53 906.6,-72.2 906.6,-72.2 906.6,-78.2 900.6,-84.2 894.6,-84.2"/>
<text xml:space="preserve" text-anchor="middle" x="805.8" y="-65.1" font-family="Arial Bold" font-size="10.00" fill="white">gemm_fp16</text>
<text xml:space="preserve" text-anchor="middle" x="805.8" y="-53.1" font-family="Arial Bold" font-size="10.00" fill="white">higher residual | fastest</text>
</g>
<!-- x_axis&#45;&gt;p_fp16 -->
<g id="edge14" class="edge">
<title>x_axis&#45;&gt;p_fp16</title>
<path fill="none" stroke="#bdbdbd" stroke-dasharray="1,5" d="M748.3,-130.52C748.3,-130.52 748.3,-96.03 748.3,-96.03"/>
<polygon fill="#bdbdbd" stroke="#bdbdbd" points="751.8,-96.03 748.3,-86.03 744.8,-96.03 751.8,-96.03"/>
</g>
<!-- y_axis -->
<g id="node2" class="node">
<title>y_axis</title>
<path fill="#f5f5f5" stroke="black" d="M189.6,-597.8C189.6,-597.8 12,-597.8 12,-597.8 6,-597.8 0,-591.8 0,-585.8 0,-585.8 0,-573.8 0,-573.8 0,-567.8 6,-561.8 12,-561.8 12,-561.8 189.6,-561.8 189.6,-561.8 195.6,-561.8 201.6,-567.8 201.6,-573.8 201.6,-573.8 201.6,-585.8 201.6,-585.8 201.6,-591.8 195.6,-597.8 189.6,-597.8"/>
<text xml:space="preserve" text-anchor="middle" x="100.8" y="-576.3" font-family="Arial Bold" font-size="10.00" fill="#333333">Expected Residual &#45;&gt;</text>
</g>
<!-- p_fp32 -->
<g id="node3" class="node">
<title>p_fp32</title>
<path fill="#4caf50" stroke="black" d="M317.6,-515.2C317.6,-515.2 140,-515.2 140,-515.2 134,-515.2 128,-509.2 128,-503.2 128,-503.2 128,-484 128,-484 128,-478 134,-472 140,-472 140,-472 317.6,-472 317.6,-472 323.6,-472 329.6,-478 329.6,-484 329.6,-484 329.6,-503.2 329.6,-503.2 329.6,-509.2 323.6,-515.2 317.6,-515.2"/>
<text xml:space="preserve" text-anchor="middle" x="228.8" y="-496.1" font-family="Arial Bold" font-size="10.00" fill="white">gemm_fp32</text>
<text xml:space="preserve" text-anchor="middle" x="228.8" y="-484.1" font-family="Arial Bold" font-size="10.00" fill="white">0.0 residual | slowest</text>
</g>
<!-- y_axis&#45;&gt;p_fp32 -->
<g id="edge13" class="edge">
<title>y_axis&#45;&gt;p_fp32</title>
<path fill="none" stroke="#bdbdbd" stroke-dasharray="1,5" d="M164.8,-561.52C164.8,-561.52 164.8,-527.03 164.8,-527.03"/>
<polygon fill="#bdbdbd" stroke="#bdbdbd" points="168.3,-527.03 164.8,-517.03 161.3,-527.03 168.3,-527.03"/>
</g>
<!-- p_3xtf32 -->
<g id="node4" class="node">
<title>p_3xtf32</title>
<path fill="#4caf50" stroke="black" d="M548.6,-429C548.6,-429 371,-429 371,-429 365,-429 359,-423 359,-417 359,-417 359,-397.8 359,-397.8 359,-391.8 365,-385.8 371,-385.8 371,-385.8 548.6,-385.8 548.6,-385.8 554.6,-385.8 560.6,-391.8 560.6,-397.8 560.6,-397.8 560.6,-417 560.6,-417 560.6,-423 554.6,-429 548.6,-429"/>
<text xml:space="preserve" text-anchor="middle" x="459.8" y="-409.9" font-family="Arial Bold" font-size="10.00" fill="white">gemm_3xtf32</text>
<text xml:space="preserve" text-anchor="middle" x="459.8" y="-397.9" font-family="Arial Bold" font-size="10.00" fill="white">low residual | moderate</text>
</g>
<!-- p_fp32&#45;&gt;p_3xtf32 -->
<g id="edge1" class="edge">
<title>p_fp32&#45;&gt;p_3xtf32</title>
<path fill="none" stroke="#4caf50" stroke-width="2.5" d="M228.8,-471.75C228.8,-446.09 228.8,-407 228.8,-407 228.8,-407 345.03,-407 345.03,-407"/>
<polygon fill="#4caf50" stroke="#4caf50" stroke-width="2.5" points="345.03,-410.5 355.03,-407 345.03,-403.5 345.03,-410.5"/>
<text xml:space="preserve" text-anchor="middle" x="215.17" y="-410.2" font-family="Times New Roman,serif" font-size="14.00">Pareto frontier</text>
</g>
<!-- p_3xbf16 -->
<g id="node6" class="node">
<title>p_3xbf16</title>
<path fill="#4caf50" stroke="black" d="M779.6,-342.8C779.6,-342.8 602,-342.8 602,-342.8 596,-342.8 590,-336.8 590,-330.8 590,-330.8 590,-311.6 590,-311.6 590,-305.6 596,-299.6 602,-299.6 602,-299.6 779.6,-299.6 779.6,-299.6 785.6,-299.6 791.6,-305.6 791.6,-311.6 791.6,-311.6 791.6,-330.8 791.6,-330.8 791.6,-336.8 785.6,-342.8 779.6,-342.8"/>
<text xml:space="preserve" text-anchor="middle" x="690.8" y="-323.7" font-family="Arial Bold" font-size="10.00" fill="white">gemm_3xbf16</text>
<text xml:space="preserve" text-anchor="middle" x="690.8" y="-311.7" font-family="Arial Bold" font-size="10.00" fill="white">low residual | moderate</text>
</g>
<!-- p_3xtf32&#45;&gt;p_3xbf16 -->
<g id="edge2" class="edge">
<title>p_3xtf32&#45;&gt;p_3xbf16</title>
<path fill="none" stroke="#4caf50" stroke-width="2.5" d="M459.8,-385.6C459.8,-360 459.8,-321 459.8,-321 459.8,-321 576.03,-321 576.03,-321"/>
<polygon fill="#4caf50" stroke="#4caf50" stroke-width="2.5" points="576.03,-324.5 586.03,-321 576.03,-317.5 576.03,-324.5"/>
</g>
<!-- p_bf16 -->
<g id="node5" class="node">
<title>p_bf16</title>
<path fill="#4caf50" stroke="black" d="M1010.6,-256.6C1010.6,-256.6 833,-256.6 833,-256.6 827,-256.6 821,-250.6 821,-244.6 821,-244.6 821,-225.4 821,-225.4 821,-219.4 827,-213.4 833,-213.4 833,-213.4 1010.6,-213.4 1010.6,-213.4 1016.6,-213.4 1022.6,-219.4 1022.6,-225.4 1022.6,-225.4 1022.6,-244.6 1022.6,-244.6 1022.6,-250.6 1016.6,-256.6 1010.6,-256.6"/>
<text xml:space="preserve" text-anchor="middle" x="921.8" y="-237.5" font-family="Arial Bold" font-size="10.00" fill="white">gemm_bf16</text>
<text xml:space="preserve" text-anchor="middle" x="921.8" y="-225.5" font-family="Arial Bold" font-size="10.00" fill="white">moderate residual | fast</text>
</g>
<!-- p_ozaki -->
<g id="node8" class="node">
<title>p_ozaki</title>
<path fill="#4caf50" stroke="black" d="M1010.6,-170.4C1010.6,-170.4 833,-170.4 833,-170.4 827,-170.4 821,-164.4 821,-158.4 821,-158.4 821,-139.2 821,-139.2 821,-133.2 827,-127.2 833,-127.2 833,-127.2 1010.6,-127.2 1010.6,-127.2 1016.6,-127.2 1022.6,-133.2 1022.6,-139.2 1022.6,-139.2 1022.6,-158.4 1022.6,-158.4 1022.6,-164.4 1016.6,-170.4 1010.6,-170.4"/>
<text xml:space="preserve" text-anchor="middle" x="921.8" y="-151.3" font-family="Arial Bold" font-size="10.00" fill="white">gemm_ozaki2_int8</text>
<text xml:space="preserve" text-anchor="middle" x="921.8" y="-139.3" font-family="Arial Bold" font-size="10.00" fill="white">low residual | fast</text>
</g>
<!-- p_bf16&#45;&gt;p_ozaki -->
<g id="edge4" class="edge">
<title>p_bf16&#45;&gt;p_ozaki</title>
<path fill="none" stroke="#4caf50" stroke-width="2.5" d="M921.8,-213.25C921.8,-213.25 921.8,-184.63 921.8,-184.63"/>
<polygon fill="#4caf50" stroke="#4caf50" stroke-width="2.5" points="925.3,-184.63 921.8,-174.63 918.3,-184.63 925.3,-184.63"/>
</g>
<!-- p_3xbf16&#45;&gt;p_bf16 -->
<g id="edge3" class="edge">
<title>p_3xbf16&#45;&gt;p_bf16</title>
<path fill="none" stroke="#4caf50" stroke-width="2.5" d="M690.8,-299.45C690.8,-273.91 690.8,-235 690.8,-235 690.8,-235 807.03,-235 807.03,-235"/>
<polygon fill="#4caf50" stroke="#4caf50" stroke-width="2.5" points="807.03,-238.5 817.03,-235 807.03,-231.5 807.03,-238.5"/>
</g>
<!-- p_ozaki&#45;&gt;p_fp16 -->
<g id="edge5" class="edge">
<title>p_ozaki&#45;&gt;p_fp16</title>
<path fill="none" stroke="#4caf50" stroke-width="2.5" d="M863.8,-127.05C863.8,-127.05 863.8,-98.43 863.8,-98.43"/>
<polygon fill="#4caf50" stroke="#4caf50" stroke-width="2.5" points="867.3,-98.43 863.8,-88.43 860.3,-98.43 867.3,-98.43"/>
</g>
<!-- d_tf32 -->
<g id="node9" class="node">
<title>d_tf32</title>
<path fill="#e0e0e0" stroke="black" d="M548.6,-515.2C548.6,-515.2 371,-515.2 371,-515.2 365,-515.2 359,-509.2 359,-503.2 359,-503.2 359,-484 359,-484 359,-478 365,-472 371,-472 371,-472 548.6,-472 548.6,-472 554.6,-472 560.6,-478 560.6,-484 560.6,-484 560.6,-503.2 560.6,-503.2 560.6,-509.2 554.6,-515.2 548.6,-515.2"/>
<text xml:space="preserve" text-anchor="middle" x="459.8" y="-496.1" font-family="Arial" font-size="10.00" fill="#757575">gemm_tf32</text>
<text xml:space="preserve" text-anchor="middle" x="459.8" y="-484.1" font-family="Arial" font-size="10.00" fill="#757575">DOMINATED by 3xtf32</text>
</g>
<!-- d_tf32&#45;&gt;p_3xtf32 -->
<g id="edge6" class="edge">
<title>d_tf32&#45;&gt;p_3xtf32</title>
<path fill="none" stroke="#bdbdbd" stroke-dasharray="5,2" d="M459.8,-471.85C459.8,-471.85 459.8,-440.96 459.8,-440.96"/>
<polygon fill="#bdbdbd" stroke="#bdbdbd" points="463.3,-440.96 459.8,-430.96 456.3,-440.96 463.3,-440.96"/>
</g>
<!-- d_3xfp16 -->
<g id="node10" class="node">
<title>d_3xfp16</title>
<path fill="#e0e0e0" stroke="black" d="M1010.6,-342.8C1010.6,-342.8 833,-342.8 833,-342.8 827,-342.8 821,-336.8 821,-330.8 821,-330.8 821,-311.6 821,-311.6 821,-305.6 827,-299.6 833,-299.6 833,-299.6 1010.6,-299.6 1010.6,-299.6 1016.6,-299.6 1022.6,-305.6 1022.6,-311.6 1022.6,-311.6 1022.6,-330.8 1022.6,-330.8 1022.6,-336.8 1016.6,-342.8 1010.6,-342.8"/>
<text xml:space="preserve" text-anchor="middle" x="921.8" y="-323.7" font-family="Arial" font-size="10.00" fill="#757575">gemm_3xfp16</text>
<text xml:space="preserve" text-anchor="middle" x="921.8" y="-311.7" font-family="Arial" font-size="10.00" fill="#757575">DOMINATED by bf16</text>
</g>
<!-- d_3xfp16&#45;&gt;p_bf16 -->
<g id="edge7" class="edge">
<title>d_3xfp16&#45;&gt;p_bf16</title>
<path fill="none" stroke="#bdbdbd" stroke-dasharray="5,2" d="M921.8,-299.45C921.8,-299.45 921.8,-268.56 921.8,-268.56"/>
<polygon fill="#bdbdbd" stroke="#bdbdbd" points="925.3,-268.56 921.8,-258.56 918.3,-268.56 925.3,-268.56"/>
</g>
<!-- d_fp16x9 -->
<g id="node11" class="node">
<title>d_fp16x9</title>
<path fill="#e0e0e0" stroke="black" d="M779.6,-429C779.6,-429 602,-429 602,-429 596,-429 590,-423 590,-417 590,-417 590,-397.8 590,-397.8 590,-391.8 596,-385.8 602,-385.8 602,-385.8 779.6,-385.8 779.6,-385.8 785.6,-385.8 791.6,-391.8 791.6,-397.8 791.6,-397.8 791.6,-417 791.6,-417 791.6,-423 785.6,-429 779.6,-429"/>
<text xml:space="preserve" text-anchor="middle" x="690.8" y="-409.9" font-family="Arial" font-size="10.00" fill="#757575">gemm_fp16_x9</text>
<text xml:space="preserve" text-anchor="middle" x="690.8" y="-397.9" font-family="Arial" font-size="10.00" fill="#757575">DOMINATED by 3xbf16</text>
</g>
<!-- d_fp16x9&#45;&gt;p_3xbf16 -->
<g id="edge8" class="edge">
<title>d_fp16x9&#45;&gt;p_3xbf16</title>
<path fill="none" stroke="#bdbdbd" stroke-dasharray="5,2" d="M690.8,-385.65C690.8,-385.65 690.8,-354.76 690.8,-354.76"/>
<polygon fill="#bdbdbd" stroke="#bdbdbd" points="694.3,-354.76 690.8,-344.76 687.3,-354.76 694.3,-354.76"/>
</g>
<!-- d_kahan -->
<g id="node12" class="node">
<title>d_kahan</title>
<path fill="#e0e0e0" stroke="black" d="M1010.6,-429C1010.6,-429 833,-429 833,-429 827,-429 821,-423 821,-417 821,-417 821,-397.8 821,-397.8 821,-391.8 827,-385.8 833,-385.8 833,-385.8 1010.6,-385.8 1010.6,-385.8 1016.6,-385.8 1022.6,-391.8 1022.6,-397.8 1022.6,-397.8 1022.6,-417 1022.6,-417 1022.6,-423 1016.6,-429 1010.6,-429"/>
<text xml:space="preserve" text-anchor="middle" x="921.8" y="-409.9" font-family="Arial" font-size="10.00" fill="#757575">gemm_fp16_x3_kahan</text>
<text xml:space="preserve" text-anchor="middle" x="921.8" y="-397.9" font-family="Arial" font-size="10.00" fill="#757575">DOMINATED by 3xbf16</text>
</g>
<!-- d_kahan&#45;&gt;p_3xbf16 -->
<g id="edge9" class="edge">
<title>d_kahan&#45;&gt;p_3xbf16</title>
<path fill="none" stroke="#bdbdbd" stroke-dasharray="5,2" d="M820.93,-407C812.03,-407 806.3,-407 806.3,-407 806.3,-407 806.3,-321 806.3,-321 806.3,-321 803.19,-321 803.19,-321"/>
<polygon fill="#bdbdbd" stroke="#bdbdbd" points="803.19,-317.5 793.19,-321 803.19,-324.5 803.19,-317.5"/>
</g>
<!-- d_tf32x6 -->
<g id="node13" class="node">
<title>d_tf32x6</title>
<path fill="#e0e0e0" stroke="black" d="M779.6,-515.2C779.6,-515.2 602,-515.2 602,-515.2 596,-515.2 590,-509.2 590,-503.2 590,-503.2 590,-484 590,-484 590,-478 596,-472 602,-472 602,-472 779.6,-472 779.6,-472 785.6,-472 791.6,-478 791.6,-484 791.6,-484 791.6,-503.2 791.6,-503.2 791.6,-509.2 785.6,-515.2 779.6,-515.2"/>
<text xml:space="preserve" text-anchor="middle" x="690.8" y="-496.1" font-family="Arial" font-size="10.00" fill="#757575">gemm_tf32_x6</text>
<text xml:space="preserve" text-anchor="middle" x="690.8" y="-484.1" font-family="Arial" font-size="10.00" fill="#757575">DOMINATED by 3xtf32</text>
</g>
<!-- d_tf32x6&#45;&gt;p_3xtf32 -->
<g id="edge10" class="edge">
<title>d_tf32x6&#45;&gt;p_3xtf32</title>
<path fill="none" stroke="#bdbdbd" stroke-dasharray="5,2" d="M589.93,-494C581.03,-494 575.3,-494 575.3,-494 575.3,-494 575.3,-407 575.3,-407 575.3,-407 572.19,-407 572.19,-407"/>
<polygon fill="#bdbdbd" stroke="#bdbdbd" points="572.19,-403.5 562.19,-407 572.19,-410.5 572.19,-403.5"/>
</g>
<!-- tol_line -->
<g id="node14" class="node">
<title>tol_line</title>
<path fill="#fff3e0" stroke="black" stroke-dasharray="5,2" d="M1241.6,-339.2C1241.6,-339.2 1064,-339.2 1064,-339.2 1058,-339.2 1052,-333.2 1052,-327.2 1052,-327.2 1052,-315.2 1052,-315.2 1052,-309.2 1058,-303.2 1064,-303.2 1064,-303.2 1241.6,-303.2 1241.6,-303.2 1247.6,-303.2 1253.6,-309.2 1253.6,-315.2 1253.6,-315.2 1253.6,-327.2 1253.6,-327.2 1253.6,-333.2 1247.6,-339.2 1241.6,-339.2"/>
<text xml:space="preserve" text-anchor="middle" x="1152.8" y="-323.7" font-family="Arial Bold" font-size="10.00" fill="#e65100">Tolerance Threshold</text>
<text xml:space="preserve" text-anchor="middle" x="1152.8" y="-311.7" font-family="Arial Bold" font-size="10.00" fill="#e65100">(user&#45;specified)</text>
</g>
<!-- tol_line&#45;&gt;p_bf16 -->
<g id="edge11" class="edge">
<title>tol_line&#45;&gt;p_bf16</title>
<path fill="none" stroke="#e65100" stroke-width="1.5" stroke-dasharray="5,2" d="M1152.8,-302.92C1152.8,-277.62 1152.8,-235 1152.8,-235 1152.8,-235 1035.05,-235 1035.05,-235"/>
<polygon fill="#e65100" stroke="#e65100" stroke-width="1.5" points="1035.05,-231.5 1025.05,-235 1035.05,-238.5 1035.05,-231.5"/>
<text xml:space="preserve" text-anchor="middle" x="1191.26" y="-238.2" font-family="Times New Roman,serif" font-size="14.00">Fastest above tolerance</text>
</g>
<!-- callout -->
<g id="node15" class="node">
<title>callout</title>
<path fill="#2196f3" stroke="black" d="M470.8,-601.4C470.8,-601.4 242.8,-601.4 242.8,-601.4 236.8,-601.4 230.8,-595.4 230.8,-589.4 230.8,-589.4 230.8,-570.2 230.8,-570.2 230.8,-564.2 236.8,-558.2 242.8,-558.2 242.8,-558.2 470.8,-558.2 470.8,-558.2 476.8,-558.2 482.8,-564.2 482.8,-570.2 482.8,-570.2 482.8,-589.4 482.8,-589.4 482.8,-595.4 476.8,-601.4 470.8,-601.4"/>
<text xml:space="preserve" text-anchor="middle" x="356.8" y="-582.3" font-family="Arial Bold" font-size="10.00" fill="white">info.pareto() returns</text>
<text xml:space="preserve" text-anchor="middle" x="356.8" y="-570.3" font-family="Arial Bold" font-size="10.00" fill="white">only Pareto&#45;optimal variants</text>
</g>
<!-- callout&#45;&gt;p_fp32 -->
<g id="edge12" class="edge">
<title>callout&#45;&gt;p_fp32</title>
<path fill="none" stroke="#2196f3" stroke-dasharray="1,5" d="M280.2,-558.05C280.2,-558.05 280.2,-527.16 280.2,-527.16"/>
<polygon fill="#2196f3" stroke="#2196f3" points="283.7,-527.16 280.2,-517.16 276.7,-527.16 283.7,-527.16"/>
</g>
</g>
</svg>
