<?xml version="1.0" encoding="UTF-8" standalone="no"?>
<!DOCTYPE svg PUBLIC "-//W3C//DTD SVG 1.1//EN"
 "http://www.w3.org/Graphics/SVG/1.1/DTD/svg11.dtd">
<!-- Generated by graphviz version 14.1.2 (0)
 -->
<!-- Title: flashlib_architecture Pages: 1 -->
<svg width="2181pt" height="659pt"
 viewBox="0.00 0.00 2181.00 659.00" xmlns="http://www.w3.org/2000/svg" xmlns:xlink="http://www.w3.org/1999/xlink">
<g id="graph0" class="graph" transform="scale(1 1) rotate(0) translate(4 654.9)">
<title>flashlib_architecture</title>
<text xml:space="preserve" text-anchor="middle" x="1086.5" y="-7.2" font-family="Times New Roman,serif" font-size="14.00">FlashLib Core Architecture</text>
<g id="clust1" class="cluster">
<title>cluster_apps</title>
<polygon fill="none" stroke="#2196f3" stroke-dasharray="5,2" points="8,-549.3 8,-642.9 2165,-642.9 2165,-549.3 8,-549.3"/>
<text xml:space="preserve" text-anchor="middle" x="1086.5" y="-629.4" font-family="Arial Bold" font-size="10.00" fill="#2196f3">Applications Layer &#45; 16 sklearn&#45;compatible classes</text>
</g>
<!-- kmeans -->
<g id="node1" class="node">
<title>kmeans</title>
<path fill="#2196f3" stroke="black" d="M2145.2,-614.9C2145.2,-614.9 1938.8,-614.9 1938.8,-614.9 1932.8,-614.9 1926.8,-608.9 1926.8,-602.9 1926.8,-602.9 1926.8,-569.3 1926.8,-569.3 1926.8,-563.3 1932.8,-557.3 1938.8,-557.3 1938.8,-557.3 2145.2,-557.3 2145.2,-557.3 2151.2,-557.3 2157.2,-563.3 2157.2,-569.3 2157.2,-569.3 2157.2,-602.9 2157.2,-602.9 2157.2,-608.9 2151.2,-614.9 2145.2,-614.9"/>
<text xml:space="preserve" text-anchor="middle" x="2042" y="-582.4" font-family="Arial Bold" font-size="11.00" fill="white">KMeans</text>
</g>
<!-- route -->
<g id="node9" class="node">
<title>route</title>
<polygon fill="#ff9800" stroke="black" points="1087,-485.3 1007.8,-442.1 1087,-398.9 1166.2,-442.1 1087,-485.3"/>
<text xml:space="preserve" text-anchor="middle" x="1087" y="-444.6" font-family="Arial Bold" font-size="10.00" fill="white">_route()</text>
<text xml:space="preserve" text-anchor="middle" x="1087" y="-432.6" font-family="Arial Bold" font-size="10.00" fill="white">Smart Dispatch</text>
</g>
<!-- kmeans&#45;&gt;route -->
<g id="edge1" class="edge">
<title>kmeans&#45;&gt;route</title>
<path fill="none" stroke="#2196f3" stroke-width="2" d="M1930.4,-557.07C1930.4,-524 1930.4,-474.5 1930.4,-474.5 1930.4,-474.5 1120.46,-474.5 1120.46,-474.5"/>
<polygon fill="#2196f3" stroke="#2196f3" stroke-width="2" points="1120.46,-471 1110.46,-474.5 1120.46,-478 1120.46,-471"/>
</g>
<!-- info_est -->
<g id="node17" class="node">
<title>info_est</title>
<path fill="#4caf50" stroke="black" d="M2138,-470.9C2138,-470.9 1946,-470.9 1946,-470.9 1940,-470.9 1934,-464.9 1934,-458.9 1934,-458.9 1934,-425.3 1934,-425.3 1934,-419.3 1940,-413.3 1946,-413.3 1946,-413.3 2138,-413.3 2138,-413.3 2144,-413.3 2150,-419.3 2150,-425.3 2150,-425.3 2150,-458.9 2150,-458.9 2150,-464.9 2144,-470.9 2138,-470.9"/>
<text xml:space="preserve" text-anchor="middle" x="2042" y="-445.15" font-family="Arial Bold" font-size="11.00" fill="white">flashlib.info</text>
<text xml:space="preserve" text-anchor="middle" x="2042" y="-431.65" font-family="Arial Bold" font-size="11.00" fill="white">estimate, pareto, compare</text>
</g>
<!-- kmeans&#45;&gt;info_est -->
<g id="edge22" class="edge">
<title>kmeans&#45;&gt;info_est</title>
<path fill="none" stroke="#4caf50" stroke-width="1.5" stroke-dasharray="5,2" d="M2042,-556.96C2042,-556.96 2042,-483.47 2042,-483.47"/>
<polygon fill="#4caf50" stroke="#4caf50" stroke-width="1.5" points="2045.5,-483.47 2042,-473.47 2038.5,-483.47 2045.5,-483.47"/>
<text xml:space="preserve" text-anchor="middle" x="2015.38" y="-523.41" font-family="Times New Roman,serif" font-size="14.00">CPU path</text>
</g>
<!-- pca -->
<g id="node2" class="node">
<title>pca</title>
<path fill="#2196f3" stroke="black" d="M234.2,-614.9C234.2,-614.9 27.8,-614.9 27.8,-614.9 21.8,-614.9 15.8,-608.9 15.8,-602.9 15.8,-602.9 15.8,-569.3 15.8,-569.3 15.8,-563.3 21.8,-557.3 27.8,-557.3 27.8,-557.3 234.2,-557.3 234.2,-557.3 240.2,-557.3 246.2,-563.3 246.2,-569.3 246.2,-569.3 246.2,-602.9 246.2,-602.9 246.2,-608.9 240.2,-614.9 234.2,-614.9"/>
<text xml:space="preserve" text-anchor="middle" x="131" y="-582.4" font-family="Arial Bold" font-size="11.00" fill="white">PCA</text>
</g>
<!-- pca&#45;&gt;route -->
<g id="edge2" class="edge">
<title>pca&#45;&gt;route</title>
<path fill="none" stroke="#2196f3" stroke-width="2" d="M131,-557.04C131,-515.08 131,-442.5 131,-442.5 131,-442.5 994.52,-442.5 994.52,-442.5"/>
<polygon fill="#2196f3" stroke="#2196f3" stroke-width="2" points="994.52,-446 1004.52,-442.5 994.52,-439 994.52,-446"/>
</g>
<!-- hdbscan -->
<g id="node3" class="node">
<title>hdbscan</title>
<path fill="#2196f3" stroke="black" d="M507.2,-614.9C507.2,-614.9 300.8,-614.9 300.8,-614.9 294.8,-614.9 288.8,-608.9 288.8,-602.9 288.8,-602.9 288.8,-569.3 288.8,-569.3 288.8,-563.3 294.8,-557.3 300.8,-557.3 300.8,-557.3 507.2,-557.3 507.2,-557.3 513.2,-557.3 519.2,-563.3 519.2,-569.3 519.2,-569.3 519.2,-602.9 519.2,-602.9 519.2,-608.9 513.2,-614.9 507.2,-614.9"/>
<text xml:space="preserve" text-anchor="middle" x="404" y="-582.4" font-family="Arial Bold" font-size="11.00" fill="white">HDBSCAN</text>
</g>
<!-- hdbscan&#45;&gt;route -->
<g id="edge3" class="edge">
<title>hdbscan&#45;&gt;route</title>
<path fill="none" stroke="#2196f3" stroke-width="2" d="M425.6,-557.02C425.6,-518.8 425.6,-456.5 425.6,-456.5 425.6,-456.5 1020.41,-456.5 1020.41,-456.5"/>
<polygon fill="#2196f3" stroke="#2196f3" stroke-width="2" points="1020.41,-460 1030.41,-456.5 1020.41,-453 1020.41,-460"/>
</g>
<!-- umap -->
<g id="node4" class="node">
<title>umap</title>
<path fill="#2196f3" stroke="black" d="M780.2,-614.9C780.2,-614.9 573.8,-614.9 573.8,-614.9 567.8,-614.9 561.8,-608.9 561.8,-602.9 561.8,-602.9 561.8,-569.3 561.8,-569.3 561.8,-563.3 567.8,-557.3 573.8,-557.3 573.8,-557.3 780.2,-557.3 780.2,-557.3 786.2,-557.3 792.2,-563.3 792.2,-569.3 792.2,-569.3 792.2,-602.9 792.2,-602.9 792.2,-608.9 786.2,-614.9 780.2,-614.9"/>
<text xml:space="preserve" text-anchor="middle" x="677" y="-582.4" font-family="Arial Bold" font-size="11.00" fill="white">UMAP</text>
</g>
<!-- umap&#45;&gt;route -->
<g id="edge4" class="edge">
<title>umap&#45;&gt;route</title>
<path fill="none" stroke="#2196f3" stroke-width="2" d="M691.6,-556.93C691.6,-522.68 691.6,-470.5 691.6,-470.5 691.6,-470.5 1045.85,-470.5 1045.85,-470.5"/>
<polygon fill="#2196f3" stroke="#2196f3" stroke-width="2" points="1045.85,-474 1055.85,-470.5 1045.85,-467 1045.85,-474"/>
</g>
<!-- tsne -->
<g id="node5" class="node">
<title>tsne</title>
<path fill="#2196f3" stroke="black" d="M1053.2,-614.9C1053.2,-614.9 846.8,-614.9 846.8,-614.9 840.8,-614.9 834.8,-608.9 834.8,-602.9 834.8,-602.9 834.8,-569.3 834.8,-569.3 834.8,-563.3 840.8,-557.3 846.8,-557.3 846.8,-557.3 1053.2,-557.3 1053.2,-557.3 1059.2,-557.3 1065.2,-563.3 1065.2,-569.3 1065.2,-569.3 1065.2,-602.9 1065.2,-602.9 1065.2,-608.9 1059.2,-614.9 1053.2,-614.9"/>
<text xml:space="preserve" text-anchor="middle" x="950" y="-582.4" font-family="Arial Bold" font-size="11.00" fill="white">TSNE</text>
</g>
<!-- tsne&#45;&gt;route -->
<g id="edge5" class="edge">
<title>tsne&#45;&gt;route</title>
<path fill="none" stroke="#2196f3" stroke-width="2" d="M1036.5,-556.96C1036.5,-556.96 1036.5,-471.27 1036.5,-471.27"/>
<polygon fill="#2196f3" stroke="#2196f3" stroke-width="2" points="1040,-471.27 1036.5,-461.27 1033,-471.27 1040,-471.27"/>
</g>
<!-- dbscan -->
<g id="node6" class="node">
<title>dbscan</title>
<path fill="#2196f3" stroke="black" d="M1326.2,-614.9C1326.2,-614.9 1119.8,-614.9 1119.8,-614.9 1113.8,-614.9 1107.8,-608.9 1107.8,-602.9 1107.8,-602.9 1107.8,-569.3 1107.8,-569.3 1107.8,-563.3 1113.8,-557.3 1119.8,-557.3 1119.8,-557.3 1326.2,-557.3 1326.2,-557.3 1332.2,-557.3 1338.2,-563.3 1338.2,-569.3 1338.2,-569.3 1338.2,-602.9 1338.2,-602.9 1338.2,-608.9 1332.2,-614.9 1326.2,-614.9"/>
<text xml:space="preserve" text-anchor="middle" x="1223" y="-582.4" font-family="Arial Bold" font-size="11.00" fill="white">DBSCAN</text>
</g>
<!-- dbscan&#45;&gt;route -->
<g id="edge6" class="edge">
<title>dbscan&#45;&gt;route</title>
<path fill="none" stroke="#2196f3" stroke-width="2" d="M1137,-556.96C1137,-556.96 1137,-471.27 1137,-471.27"/>
<polygon fill="#2196f3" stroke="#2196f3" stroke-width="2" points="1140.5,-471.27 1137,-461.27 1133.5,-471.27 1140.5,-471.27"/>
</g>
<!-- knn -->
<g id="node7" class="node">
<title>knn</title>
<path fill="#2196f3" stroke="black" d="M1599.2,-614.9C1599.2,-614.9 1392.8,-614.9 1392.8,-614.9 1386.8,-614.9 1380.8,-608.9 1380.8,-602.9 1380.8,-602.9 1380.8,-569.3 1380.8,-569.3 1380.8,-563.3 1386.8,-557.3 1392.8,-557.3 1392.8,-557.3 1599.2,-557.3 1599.2,-557.3 1605.2,-557.3 1611.2,-563.3 1611.2,-569.3 1611.2,-569.3 1611.2,-602.9 1611.2,-602.9 1611.2,-608.9 1605.2,-614.9 1599.2,-614.9"/>
<text xml:space="preserve" text-anchor="middle" x="1496" y="-582.4" font-family="Arial Bold" font-size="11.00" fill="white">KNN</text>
</g>
<!-- knn&#45;&gt;route -->
<g id="edge7" class="edge">
<title>knn&#45;&gt;route</title>
<path fill="none" stroke="#2196f3" stroke-width="2" d="M1496,-556.96C1496,-526.01 1496,-481.5 1496,-481.5 1496,-481.5 1107.83,-481.5 1107.83,-481.5"/>
<polygon fill="#2196f3" stroke="#2196f3" stroke-width="2" points="1107.83,-478 1097.83,-481.5 1107.83,-485 1107.83,-478"/>
</g>
<!-- logreg -->
<g id="node8" class="node">
<title>logreg</title>
<path fill="#2196f3" stroke="black" d="M1872.2,-614.9C1872.2,-614.9 1665.8,-614.9 1665.8,-614.9 1659.8,-614.9 1653.8,-608.9 1653.8,-602.9 1653.8,-602.9 1653.8,-569.3 1653.8,-569.3 1653.8,-563.3 1659.8,-557.3 1665.8,-557.3 1665.8,-557.3 1872.2,-557.3 1872.2,-557.3 1878.2,-557.3 1884.2,-563.3 1884.2,-569.3 1884.2,-569.3 1884.2,-602.9 1884.2,-602.9 1884.2,-608.9 1878.2,-614.9 1872.2,-614.9"/>
<text xml:space="preserve" text-anchor="middle" x="1769" y="-582.4" font-family="Arial Bold" font-size="11.00" fill="white">LogisticReg</text>
</g>
<!-- logreg&#45;&gt;route -->
<g id="edge8" class="edge">
<title>logreg&#45;&gt;route</title>
<path fill="none" stroke="#2196f3" stroke-width="2" d="M1769,-556.98C1769,-525.12 1769,-478.5 1769,-478.5 1769,-478.5 1113.34,-478.5 1113.34,-478.5"/>
<polygon fill="#2196f3" stroke="#2196f3" stroke-width="2" points="1113.34,-475 1103.34,-478.5 1113.34,-482 1113.34,-475"/>
</g>
<!-- triton -->
<g id="node10" class="node">
<title>triton</title>
<path fill="#9c27b0" stroke="black" d="M795,-326.9C795,-326.9 603,-326.9 603,-326.9 597,-326.9 591,-320.9 591,-314.9 591,-314.9 591,-281.3 591,-281.3 591,-275.3 597,-269.3 603,-269.3 603,-269.3 795,-269.3 795,-269.3 801,-269.3 807,-275.3 807,-281.3 807,-281.3 807,-314.9 807,-314.9 807,-320.9 801,-326.9 795,-326.9"/>
<text xml:space="preserve" text-anchor="middle" x="699" y="-301.15" font-family="Arial Bold" font-size="11.00" fill="white">Triton Backend</text>
<text xml:space="preserve" text-anchor="middle" x="699" y="-287.65" font-family="Arial Bold" font-size="11.00" fill="white">Portable &#45; All CUDA GPUs</text>
</g>
<!-- route&#45;&gt;triton -->
<g id="edge9" class="edge">
<title>route&#45;&gt;triton</title>
<path fill="none" stroke="#9c27b0" stroke-width="2" d="M1033.62,-427.5C950.5,-427.5 799.6,-427.5 799.6,-427.5 799.6,-427.5 799.6,-340.17 799.6,-340.17"/>
<polygon fill="#9c27b0" stroke="#9c27b0" stroke-width="2" points="803.1,-340.17 799.6,-330.17 796.1,-340.17 803.1,-340.17"/>
<text xml:space="preserve" text-anchor="middle" x="850.44" y="-430.7" font-family="Times New Roman,serif" font-size="14.00">Portable</text>
</g>
<!-- cutedsl -->
<g id="node11" class="node">
<title>cutedsl</title>
<path fill="#9c27b0" stroke="black" d="M1183,-326.9C1183,-326.9 991,-326.9 991,-326.9 985,-326.9 979,-320.9 979,-314.9 979,-314.9 979,-281.3 979,-281.3 979,-275.3 985,-269.3 991,-269.3 991,-269.3 1183,-269.3 1183,-269.3 1189,-269.3 1195,-275.3 1195,-281.3 1195,-281.3 1195,-314.9 1195,-314.9 1195,-320.9 1189,-326.9 1183,-326.9"/>
<text xml:space="preserve" text-anchor="middle" x="1087" y="-307.9" font-family="Arial Bold" font-size="11.00" fill="white">CuteDSL Backend</text>
<text xml:space="preserve" text-anchor="middle" x="1087" y="-294.4" font-family="Arial Bold" font-size="11.00" fill="white">Hopper H100/H200</text>
<text xml:space="preserve" text-anchor="middle" x="1087" y="-280.9" font-family="Arial Bold" font-size="11.00" fill="white">FA3&#45;style TMA+WGMMA</text>
</g>
<!-- route&#45;&gt;cutedsl -->
<g id="edge10" class="edge">
<title>route&#45;&gt;cutedsl</title>
<path fill="none" stroke="#9c27b0" stroke-width="2" d="M1087,-398.5C1087,-398.5 1087,-340.01 1087,-340.01"/>
<polygon fill="#9c27b0" stroke="#9c27b0" stroke-width="2" points="1090.5,-340.01 1087,-330.01 1083.5,-340.01 1090.5,-340.01"/>
<text xml:space="preserve" text-anchor="middle" x="1066.75" y="-372.46" font-family="Times New Roman,serif" font-size="14.00">Hopper</text>
</g>
<!-- dist_kern -->
<g id="node12" class="node">
<title>dist_kern</title>
<path fill="#00897b" stroke="black" d="M536,-197.3C536,-197.3 344,-197.3 344,-197.3 338,-197.3 332,-191.3 332,-185.3 332,-185.3 332,-158.9 332,-158.9 332,-152.9 338,-146.9 344,-146.9 344,-146.9 536,-146.9 536,-146.9 542,-146.9 548,-152.9 548,-158.9 548,-158.9 548,-185.3 548,-185.3 548,-191.3 542,-197.3 536,-197.3"/>
<text xml:space="preserve" text-anchor="middle" x="440" y="-174.6" font-family="Arial Bold" font-size="10.00" fill="white">Distance Kernels</text>
<text xml:space="preserve" text-anchor="middle" x="440" y="-162.6" font-family="Arial Bold" font-size="10.00" fill="white">pairwise_l2</text>
</g>
<!-- triton&#45;&gt;dist_kern -->
<g id="edge11" class="edge">
<title>triton&#45;&gt;dist_kern</title>
<path fill="none" stroke="#00897b" stroke-width="1.5" d="M590.52,-298.5C559.35,-298.5 533.6,-298.5 533.6,-298.5 533.6,-298.5 533.6,-209.95 533.6,-209.95"/>
<polygon fill="#00897b" stroke="#00897b" stroke-width="1.5" points="537.1,-209.95 533.6,-199.95 530.1,-209.95 537.1,-209.95"/>
</g>
<!-- norm_kern -->
<g id="node13" class="node">
<title>norm_kern</title>
<path fill="#00897b" stroke="black" d="M795,-197.3C795,-197.3 603,-197.3 603,-197.3 597,-197.3 591,-191.3 591,-185.3 591,-185.3 591,-158.9 591,-158.9 591,-152.9 597,-146.9 603,-146.9 603,-146.9 795,-146.9 795,-146.9 801,-146.9 807,-152.9 807,-158.9 807,-158.9 807,-185.3 807,-185.3 807,-191.3 801,-197.3 795,-197.3"/>
<text xml:space="preserve" text-anchor="middle" x="699" y="-174.6" font-family="Arial Bold" font-size="10.00" fill="white">Normalization</text>
<text xml:space="preserve" text-anchor="middle" x="699" y="-162.6" font-family="Arial Bold" font-size="10.00" fill="white">rmsnorm, layernorm</text>
</g>
<!-- triton&#45;&gt;norm_kern -->
<g id="edge12" class="edge">
<title>triton&#45;&gt;norm_kern</title>
<path fill="none" stroke="#00897b" stroke-width="1.5" d="M699,-268.88C699,-268.88 699,-210.02 699,-210.02"/>
<polygon fill="#00897b" stroke="#00897b" stroke-width="1.5" points="702.5,-210.02 699,-200.02 695.5,-210.02 702.5,-210.02"/>
</g>
<!-- graph_kern -->
<g id="node14" class="node">
<title>graph_kern</title>
<path fill="#00897b" stroke="black" d="M1054,-197.3C1054,-197.3 862,-197.3 862,-197.3 856,-197.3 850,-191.3 850,-185.3 850,-185.3 850,-158.9 850,-158.9 850,-152.9 856,-146.9 862,-146.9 862,-146.9 1054,-146.9 1054,-146.9 1060,-146.9 1066,-152.9 1066,-158.9 1066,-158.9 1066,-185.3 1066,-185.3 1066,-191.3 1060,-197.3 1054,-197.3"/>
<text xml:space="preserve" text-anchor="middle" x="958" y="-180.6" font-family="Arial Bold" font-size="10.00" fill="white">Graph Kernels</text>
<text xml:space="preserve" text-anchor="middle" x="958" y="-168.6" font-family="Arial Bold" font-size="10.00" fill="white">connected_components</text>
<text xml:space="preserve" text-anchor="middle" x="958" y="-156.6" font-family="Arial Bold" font-size="10.00" fill="white">flash_mst</text>
</g>
<!-- cutedsl&#45;&gt;graph_kern -->
<g id="edge14" class="edge">
<title>cutedsl&#45;&gt;graph_kern</title>
<path fill="none" stroke="#00897b" stroke-width="1.5" d="M1022.5,-268.88C1022.5,-268.88 1022.5,-210.02 1022.5,-210.02"/>
<polygon fill="#00897b" stroke="#00897b" stroke-width="1.5" points="1026,-210.02 1022.5,-200.02 1019,-210.02 1026,-210.02"/>
</g>
<!-- gemm_kern -->
<g id="node15" class="node">
<title>gemm_kern</title>
<path fill="#00897b" stroke="black" d="M1313,-197.3C1313,-197.3 1121,-197.3 1121,-197.3 1115,-197.3 1109,-191.3 1109,-185.3 1109,-185.3 1109,-158.9 1109,-158.9 1109,-152.9 1115,-146.9 1121,-146.9 1121,-146.9 1313,-146.9 1313,-146.9 1319,-146.9 1325,-152.9 1325,-158.9 1325,-158.9 1325,-185.3 1325,-185.3 1325,-191.3 1319,-197.3 1313,-197.3"/>
<text xml:space="preserve" text-anchor="middle" x="1217" y="-180.6" font-family="Arial Bold" font-size="10.00" fill="white">Specialized GEMM</text>
<text xml:space="preserve" text-anchor="middle" x="1217" y="-168.6" font-family="Arial Bold" font-size="10.00" fill="white">cov_gemm, gram_gemm</text>
<text xml:space="preserve" text-anchor="middle" x="1217" y="-156.6" font-family="Arial Bold" font-size="10.00" fill="white">ab_gemm, eigh, polar</text>
</g>
<!-- cutedsl&#45;&gt;gemm_kern -->
<g id="edge13" class="edge">
<title>cutedsl&#45;&gt;gemm_kern</title>
<path fill="none" stroke="#00897b" stroke-width="1.5" d="M1152,-268.88C1152,-268.88 1152,-210.02 1152,-210.02"/>
<polygon fill="#00897b" stroke="#00897b" stroke-width="1.5" points="1155.5,-210.02 1152,-200.02 1148.5,-210.02 1155.5,-210.02"/>
</g>
<!-- hw -->
<g id="node16" class="node">
<title>hw</title>
<path fill="#546e7a" stroke="black" d="M1054,-74.9C1054,-74.9 862,-74.9 862,-74.9 856,-74.9 850,-68.9 850,-62.9 850,-62.9 850,-36.5 850,-36.5 850,-30.5 856,-24.5 862,-24.5 862,-24.5 1054,-24.5 1054,-24.5 1060,-24.5 1066,-30.5 1066,-36.5 1066,-36.5 1066,-62.9 1066,-62.9 1066,-68.9 1060,-74.9 1054,-74.9"/>
<text xml:space="preserve" text-anchor="middle" x="958" y="-64.2" font-family="Arial Bold" font-size="10.00" fill="white">HwProps Dataclass</text>
<text xml:space="preserve" text-anchor="middle" x="958" y="-52.2" font-family="Arial Bold" font-size="10.00" fill="white">device_tag, sm_arch, sm_count</text>
<text xml:space="preserve" text-anchor="middle" x="958" y="-40.2" font-family="Arial Bold" font-size="10.00" fill="white">l2_bytes, smem, total_mem</text>
<text xml:space="preserve" text-anchor="middle" x="958" y="-28.2" font-family="Arial Bold" font-size="10.00" fill="white">is_hopper, is_blackwell</text>
</g>
<!-- dist_kern&#45;&gt;hw -->
<g id="edge15" class="edge">
<title>dist_kern&#45;&gt;hw</title>
<path fill="none" stroke="#546e7a" stroke-width="1.5" d="M440,-146.47C440,-107.41 440,-37.5 440,-37.5 440,-37.5 837.46,-37.5 837.46,-37.5"/>
<polygon fill="#546e7a" stroke="#546e7a" stroke-width="1.5" points="837.46,-41 847.46,-37.5 837.46,-34 837.46,-41"/>
</g>
<!-- norm_kern&#45;&gt;hw -->
<g id="edge16" class="edge">
<title>norm_kern&#45;&gt;hw</title>
<path fill="none" stroke="#546e7a" stroke-width="1.5" d="M699,-146.7C699,-110.79 699,-49.5 699,-49.5 699,-49.5 837.39,-49.5 837.39,-49.5"/>
<polygon fill="#546e7a" stroke="#546e7a" stroke-width="1.5" points="837.39,-53 847.39,-49.5 837.39,-46 837.39,-53"/>
</g>
<!-- graph_kern&#45;&gt;hw -->
<g id="edge18" class="edge">
<title>graph_kern&#45;&gt;hw</title>
<path fill="none" stroke="#546e7a" stroke-width="1.5" d="M958,-146.44C958,-146.44 958,-87.6 958,-87.6"/>
<polygon fill="#546e7a" stroke="#546e7a" stroke-width="1.5" points="961.5,-87.6 958,-77.6 954.5,-87.6 961.5,-87.6"/>
</g>
<!-- gemm_kern&#45;&gt;hw -->
<g id="edge17" class="edge">
<title>gemm_kern&#45;&gt;hw</title>
<path fill="none" stroke="#546e7a" stroke-width="1.5" d="M1217,-146.7C1217,-110.79 1217,-49.5 1217,-49.5 1217,-49.5 1078.61,-49.5 1078.61,-49.5"/>
<polygon fill="#546e7a" stroke="#546e7a" stroke-width="1.5" points="1078.61,-46 1068.61,-49.5 1078.61,-53 1078.61,-46"/>
</g>
<!-- hw&#45;&gt;route -->
<g id="edge19" class="edge">
<title>hw&#45;&gt;route</title>
<path fill="none" stroke="#ff9800" stroke-width="1.5" stroke-dasharray="5,2" d="M849.63,-62.5C845.08,-62.5 842.4,-62.5 842.4,-62.5 842.4,-62.5 842.4,-413.5 842.4,-413.5 842.4,-413.5 1047.15,-413.5 1047.15,-413.5"/>
<polygon fill="#ff9800" stroke="#ff9800" stroke-width="1.5" points="1047.15,-417 1057.15,-413.5 1047.15,-410 1047.15,-417"/>
<text xml:space="preserve" text-anchor="middle" x="817.27" y="-339.96" font-family="Times New Roman,serif" font-size="14.00">HwProps</text>
</g>
<!-- info_diag -->
<g id="node18" class="node">
<title>info_diag</title>
<path fill="#4caf50" stroke="black" d="M2138,-326.9C2138,-326.9 1946,-326.9 1946,-326.9 1940,-326.9 1934,-320.9 1934,-314.9 1934,-314.9 1934,-281.3 1934,-281.3 1934,-275.3 1940,-269.3 1946,-269.3 1946,-269.3 2138,-269.3 2138,-269.3 2144,-269.3 2150,-275.3 2150,-281.3 2150,-281.3 2150,-314.9 2150,-314.9 2150,-320.9 2144,-326.9 2138,-326.9"/>
<text xml:space="preserve" text-anchor="middle" x="2042" y="-301.15" font-family="Arial Bold" font-size="11.00" fill="white">flashlib.diagnose</text>
<text xml:space="preserve" text-anchor="middle" x="2042" y="-287.65" font-family="Arial Bold" font-size="11.00" fill="white">GPU diagnostics</text>
</g>
<!-- info_est&#45;&gt;info_diag -->
<g id="edge20" class="edge">
<title>info_est&#45;&gt;info_diag</title>
<path fill="none" stroke="#4caf50" stroke-width="1.5" d="M2042,-412.96C2042,-412.96 2042,-339.47 2042,-339.47"/>
<polygon fill="#4caf50" stroke="#4caf50" stroke-width="1.5" points="2045.5,-339.47 2042,-329.47 2038.5,-339.47 2045.5,-339.47"/>
</g>
<!-- info_cpu -->
<g id="node19" class="node">
<title>info_cpu</title>
<path fill="#e8f5e9" stroke="black" stroke-dasharray="5,2" d="M2109.2,-190.1C2109.2,-190.1 1974.8,-190.1 1974.8,-190.1 1968.8,-190.1 1962.8,-184.1 1962.8,-178.1 1962.8,-178.1 1962.8,-166.1 1962.8,-166.1 1962.8,-160.1 1968.8,-154.1 1974.8,-154.1 1974.8,-154.1 2109.2,-154.1 2109.2,-154.1 2115.2,-154.1 2121.2,-160.1 2121.2,-166.1 2121.2,-166.1 2121.2,-178.1 2121.2,-178.1 2121.2,-184.1 2115.2,-190.1 2109.2,-190.1"/>
<text xml:space="preserve" text-anchor="middle" x="2042" y="-174.05" font-family="Arial" font-size="9.00" fill="#333333">CPU&#45;only</text>
<text xml:space="preserve" text-anchor="middle" x="2042" y="-163.55" font-family="Arial" font-size="9.00" fill="#333333">No GPU required</text>
</g>
<!-- info_diag&#45;&gt;info_cpu -->
<g id="edge21" class="edge">
<title>info_diag&#45;&gt;info_cpu</title>
<path fill="none" stroke="#4caf50" stroke-width="1.5" d="M2042,-268.88C2042,-268.88 2042,-202.52 2042,-202.52"/>
<polygon fill="#4caf50" stroke="#4caf50" stroke-width="1.5" points="2045.5,-202.52 2042,-192.52 2038.5,-202.52 2045.5,-202.52"/>
</g>
</g>
</svg>
