<?xml version="1.0" encoding="UTF-8" standalone="no"?>
<!DOCTYPE svg PUBLIC "-//W3C//DTD SVG 1.1//EN"
 "http://www.w3.org/Graphics/SVG/1.1/DTD/svg11.dtd">
<!-- Generated by graphviz version 14.1.2 (0)
 -->
<!-- Title: graphified_ecosystem Pages: 1 -->
<svg width="861pt" height="171pt"
 viewBox="0.00 0.00 861.00 171.00" xmlns="http://www.w3.org/2000/svg" xmlns:xlink="http://www.w3.org/1999/xlink">
<style>
<!-- White text halo for edge label readability -->
text { paint-order: stroke; stroke: #ffffff; stroke-width: 3px; stroke-linejoin: round; fill: #1a1a2e; }
</style>
<g id="graph0" class="graph" transform="scale(1 1) rotate(0) translate(4 167)">
<title>graphified_ecosystem</title>
<polygon fill="white" stroke="none" points="-4,4 -4,-167 856.88,-167 856.88,4 -4,4"/>
<text xml:space="preserve" text-anchor="middle" x="426.44" y="-7.2" font-family="Times New Roman,serif" font-size="14.00">Graphified &#45; Integration Ecosystem</text>
<!-- center -->
<g id="node1" class="node">
<title>center</title>
<path fill="#2196f3" stroke="black" d="M516.88,-163C516.88,-163 386.12,-163 386.12,-163 380.12,-163 374.12,-157 374.12,-151 374.12,-151 374.12,-138.5 374.12,-138.5 374.12,-132.5 380.12,-126.5 386.12,-126.5 386.12,-126.5 516.88,-126.5 516.88,-126.5 522.88,-126.5 528.88,-132.5 528.88,-138.5 528.88,-138.5 528.88,-151 528.88,-151 528.88,-157 522.88,-163 516.88,-163"/>
<text xml:space="preserve" text-anchor="middle" x="451.5" y="-147.6" font-family="Arial Bold" font-size="12.00" fill="white">graphified Output</text>
<text xml:space="preserve" text-anchor="middle" x="451.5" y="-133.35" font-family="Arial Bold" font-size="12.00" fill="white">graph.json + HTML + MD</text>
</g>
<!-- i1 -->
<g id="node2" class="node">
<title>i1</title>
<polygon fill="#4caf50" stroke="black" points="139,-64.5 0,-64.5 0,-28.5 139,-28.5 139,-64.5"/>
<text xml:space="preserve" text-anchor="middle" x="69.5" y="-49.55" font-family="Arial" font-size="11.00" fill="white">VSCode Extension</text>
<text xml:space="preserve" text-anchor="middle" x="69.5" y="-36.05" font-family="Arial" font-size="11.00" fill="white">graph.json + Smart Agent</text>
</g>
<!-- center&#45;&gt;i1 -->
<g id="edge1" class="edge">
<title>center&#45;&gt;i1</title>
<path fill="none" stroke="#2196f3" stroke-width="1.5" d="M373.74,-150.5C262.05,-150.5 69.5,-150.5 69.5,-150.5 69.5,-150.5 69.5,-76.89 69.5,-76.89"/>
<polygon fill="#2196f3" stroke="#2196f3" stroke-width="1.5" points="73,-76.89 69.5,-66.89 66,-76.89 73,-76.89"/>
</g>
<!-- i2 -->
<g id="node3" class="node">
<title>i2</title>
<path fill="#ff9800" stroke="black" d="M290.38,-64.5C290.38,-64.5 186.62,-64.5 186.62,-64.5 180.62,-64.5 174.62,-58.5 174.62,-52.5 174.62,-52.5 174.62,-40.5 174.62,-40.5 174.62,-34.5 180.62,-28.5 186.62,-28.5 186.62,-28.5 290.38,-28.5 290.38,-28.5 296.38,-28.5 302.38,-34.5 302.38,-40.5 302.38,-40.5 302.38,-52.5 302.38,-52.5 302.38,-58.5 296.38,-64.5 290.38,-64.5"/>
<text xml:space="preserve" text-anchor="middle" x="238.5" y="-49.55" font-family="Arial" font-size="11.00" fill="white">GraphRAG Systems</text>
<text xml:space="preserve" text-anchor="middle" x="238.5" y="-36.05" font-family="Arial" font-size="11.00" fill="white">Semantic Code Search</text>
</g>
<!-- center&#45;&gt;i2 -->
<g id="edge2" class="edge">
<title>center&#45;&gt;i2</title>
<path fill="none" stroke="#2196f3" stroke-width="1.5" d="M373.7,-138.5C312.85,-138.5 238.5,-138.5 238.5,-138.5 238.5,-138.5 238.5,-76.95 238.5,-76.95"/>
<polygon fill="#2196f3" stroke="#2196f3" stroke-width="1.5" points="242,-76.95 238.5,-66.95 235,-76.95 242,-76.95"/>
</g>
<!-- i3 -->
<g id="node4" class="node">
<title>i3</title>
<path fill="#9c27b0" stroke="black" d="M420.12,-64.5C420.12,-64.5 350.88,-64.5 350.88,-64.5 344.88,-64.5 338.88,-58.5 338.88,-52.5 338.88,-52.5 338.88,-40.5 338.88,-40.5 338.88,-34.5 344.88,-28.5 350.88,-28.5 350.88,-28.5 420.12,-28.5 420.12,-28.5 426.12,-28.5 432.12,-34.5 432.12,-40.5 432.12,-40.5 432.12,-52.5 432.12,-52.5 432.12,-58.5 426.12,-64.5 420.12,-64.5"/>
<text xml:space="preserve" text-anchor="middle" x="385.5" y="-49.55" font-family="Arial" font-size="11.00" fill="white">CI/CD Pipelines</text>
<text xml:space="preserve" text-anchor="middle" x="385.5" y="-36.05" font-family="Arial" font-size="11.00" fill="white">GitHub Actions</text>
</g>
<!-- center&#45;&gt;i3 -->
<g id="edge3" class="edge">
<title>center&#45;&gt;i3</title>
<path fill="none" stroke="#2196f3" stroke-width="1.5" d="M403.12,-126.27C403.12,-126.27 403.12,-77.17 403.12,-77.17"/>
<polygon fill="#2196f3" stroke="#2196f3" stroke-width="1.5" points="406.63,-77.17 403.13,-67.17 399.63,-77.17 406.63,-77.17"/>
</g>
<!-- i4 -->
<g id="node5" class="node">
<title>i4</title>
<path fill="#00bcd4" stroke="black" d="M556.88,-64.5C556.88,-64.5 480.12,-64.5 480.12,-64.5 474.12,-64.5 468.12,-58.5 468.12,-52.5 468.12,-52.5 468.12,-40.5 468.12,-40.5 468.12,-34.5 474.12,-28.5 480.12,-28.5 480.12,-28.5 556.88,-28.5 556.88,-28.5 562.88,-28.5 568.88,-34.5 568.88,-40.5 568.88,-40.5 568.88,-52.5 568.88,-52.5 568.88,-58.5 562.88,-64.5 556.88,-64.5"/>
<text xml:space="preserve" text-anchor="middle" x="518.5" y="-49.55" font-family="Arial" font-size="11.00" fill="white">AI Agents</text>
<text xml:space="preserve" text-anchor="middle" x="518.5" y="-36.05" font-family="Arial" font-size="11.00" fill="white">Claude, GPT, etc.</text>
</g>
<!-- center&#45;&gt;i4 -->
<g id="edge4" class="edge">
<title>center&#45;&gt;i4</title>
<path fill="none" stroke="#2196f3" stroke-width="1.5" d="M498.5,-126.27C498.5,-126.27 498.5,-77.17 498.5,-77.17"/>
<polygon fill="#2196f3" stroke="#2196f3" stroke-width="1.5" points="502,-77.17 498.5,-67.17 495,-77.17 502,-77.17"/>
</g>
<!-- i5 -->
<g id="node6" class="node">
<title>i5</title>
<path fill="#ff9800" stroke="black" d="M698.12,-64.5C698.12,-66.71 677.23,-68.5 651.5,-68.5 625.77,-68.5 604.88,-66.71 604.88,-64.5 604.88,-64.5 604.88,-28.5 604.88,-28.5 604.88,-26.29 625.77,-24.5 651.5,-24.5 677.23,-24.5 698.12,-26.29 698.12,-28.5 698.12,-28.5 698.12,-64.5 698.12,-64.5"/>
<path fill="none" stroke="black" d="M698.12,-64.5C698.12,-62.29 677.23,-60.5 651.5,-60.5 625.77,-60.5 604.88,-62.29 604.88,-64.5"/>
<text xml:space="preserve" text-anchor="middle" x="651.5" y="-49" font-family="Arial" font-size="10.00" fill="white">Knowledge Graph</text>
<text xml:space="preserve" text-anchor="middle" x="651.5" y="-37" font-family="Arial" font-size="10.00" fill="white">Databases</text>
</g>
<!-- center&#45;&gt;i5 -->
<g id="edge5" class="edge">
<title>center&#45;&gt;i5</title>
<path fill="none" stroke="#2196f3" stroke-width="1.5" d="M529.11,-138.5C585.33,-138.5 651.5,-138.5 651.5,-138.5 651.5,-138.5 651.5,-81.04 651.5,-81.04"/>
<polygon fill="#2196f3" stroke="#2196f3" stroke-width="1.5" points="655,-81.04 651.5,-71.04 648,-81.04 655,-81.04"/>
</g>
<!-- i6 -->
<g id="node7" class="node">
<title>i6</title>
<polygon fill="#f44336" stroke="black" points="852.88,-64.5 734.12,-64.5 734.12,-28.5 852.88,-28.5 852.88,-64.5"/>
<text xml:space="preserve" text-anchor="middle" x="793.5" y="-49.55" font-family="Arial" font-size="11.00" fill="white">Developer Workflows</text>
<text xml:space="preserve" text-anchor="middle" x="793.5" y="-36.05" font-family="Arial" font-size="11.00" fill="white">Architecture Review</text>
</g>
<!-- center&#45;&gt;i6 -->
<g id="edge6" class="edge">
<title>center&#45;&gt;i6</title>
<path fill="none" stroke="#2196f3" stroke-width="1.5" d="M529.11,-150.5C630.01,-150.5 793.5,-150.5 793.5,-150.5 793.5,-150.5 793.5,-76.89 793.5,-76.89"/>
<polygon fill="#2196f3" stroke="#2196f3" stroke-width="1.5" points="797,-76.89 793.5,-66.89 790,-76.89 797,-76.89"/>
</g>
</g>
</svg>
