<?xml version="1.0" encoding="UTF-8" standalone="no"?>
<!DOCTYPE svg PUBLIC "-//W3C//DTD SVG 1.1//EN"
 "http://www.w3.org/Graphics/SVG/1.1/DTD/svg11.dtd">
<!-- Generated by graphviz version 14.1.2 (0)
 -->
<!-- Title: gemma_chat_features Pages: 1 -->
<svg width="1248pt" height="178pt"
 viewBox="0.00 0.00 1248.00 178.00" xmlns="http://www.w3.org/2000/svg" xmlns:xlink="http://www.w3.org/1999/xlink">
<style>
<!-- White text halo for edge label readability -->
text { paint-order: stroke; stroke: #ffffff; stroke-width: 3px; stroke-linejoin: round; fill: #1a1a2e; }
</style>
<g id="graph0" class="graph" transform="scale(1 1) rotate(0) translate(4 173.75)">
<title>gemma_chat_features</title>
<polygon fill="white" stroke="none" points="-4,4 -4,-173.75 1244.38,-173.75 1244.38,4 -4,4"/>
<text xml:space="preserve" text-anchor="middle" x="620.19" y="-7.2" font-family="Times New Roman,serif" font-size="14.00">Gemma Chat &#45; Features and Capabilities</text>
<!-- gemma -->
<g id="node1" class="node">
<title>gemma</title>
<path fill="#e91e63" stroke="black" d="M636.38,-169.75C636.38,-169.75 552.88,-169.75 552.88,-169.75 546.88,-169.75 540.88,-163.75 540.88,-157.75 540.88,-157.75 540.88,-145.25 540.88,-145.25 540.88,-139.25 546.88,-133.25 552.88,-133.25 552.88,-133.25 636.38,-133.25 636.38,-133.25 642.38,-133.25 648.38,-139.25 648.38,-145.25 648.38,-145.25 648.38,-157.75 648.38,-157.75 648.38,-163.75 642.38,-169.75 636.38,-169.75"/>
<text xml:space="preserve" text-anchor="middle" x="594.62" y="-154.35" font-family="Arial Bold" font-size="12.00" fill="white">Gemma Chat</text>
<text xml:space="preserve" text-anchor="middle" x="594.62" y="-140.1" font-family="Arial Bold" font-size="12.00" fill="white">Local AI for Mac</text>
</g>
<!-- build -->
<g id="node2" class="node">
<title>build</title>
<path fill="#00bcd4" stroke="black" d="M75.25,-74.12C75.25,-74.12 12,-74.12 12,-74.12 6,-74.12 0,-68.12 0,-62.12 0,-62.12 0,-37.62 0,-37.62 0,-31.62 6,-25.62 12,-25.62 12,-25.62 75.25,-25.62 75.25,-25.62 81.25,-25.62 87.25,-31.62 87.25,-37.62 87.25,-37.62 87.25,-62.12 87.25,-62.12 87.25,-68.12 81.25,-74.12 75.25,-74.12"/>
<text xml:space="preserve" text-anchor="middle" x="43.62" y="-59.67" font-family="Arial" font-size="11.00" fill="white">Build Mode</text>
<text xml:space="preserve" text-anchor="middle" x="43.62" y="-46.17" font-family="Arial" font-size="11.00" fill="white">Coding Agent</text>
<text xml:space="preserve" text-anchor="middle" x="43.62" y="-32.67" font-family="Arial" font-size="11.00" fill="white">+ Live Preview</text>
</g>
<!-- gemma&#45;&gt;build -->
<g id="edge1" class="edge">
<title>gemma&#45;&gt;build</title>
<path fill="none" stroke="#00bcd4" stroke-width="2" d="M540.54,-162.5C401.71,-162.5 43.62,-162.5 43.62,-162.5 43.62,-162.5 43.62,-87.62 43.62,-87.62"/>
<polygon fill="#00bcd4" stroke="#00bcd4" stroke-width="2" points="47.13,-87.62 43.63,-77.62 40.13,-87.62 47.13,-87.62"/>
</g>
<!-- chat -->
<g id="node3" class="node">
<title>chat</title>
<path fill="#00bcd4" stroke="black" d="M212,-74.12C212,-74.12 135.25,-74.12 135.25,-74.12 129.25,-74.12 123.25,-68.12 123.25,-62.12 123.25,-62.12 123.25,-37.62 123.25,-37.62 123.25,-31.62 129.25,-25.62 135.25,-25.62 135.25,-25.62 212,-25.62 212,-25.62 218,-25.62 224,-31.62 224,-37.62 224,-37.62 224,-62.12 224,-62.12 224,-68.12 218,-74.12 212,-74.12"/>
<text xml:space="preserve" text-anchor="middle" x="173.62" y="-59.67" font-family="Arial" font-size="11.00" fill="white">Chat Mode</text>
<text xml:space="preserve" text-anchor="middle" x="173.62" y="-46.17" font-family="Arial" font-size="11.00" fill="white">Conversational AI</text>
<text xml:space="preserve" text-anchor="middle" x="173.62" y="-32.67" font-family="Arial" font-size="11.00" fill="white">+ Tool Use</text>
</g>
<!-- gemma&#45;&gt;chat -->
<g id="edge2" class="edge">
<title>gemma&#45;&gt;chat</title>
<path fill="none" stroke="#00bcd4" stroke-width="2" d="M540.45,-155.5C426.74,-155.5 173.62,-155.5 173.62,-155.5 173.62,-155.5 173.62,-87.4 173.62,-87.4"/>
<polygon fill="#00bcd4" stroke="#00bcd4" stroke-width="2" points="177.13,-87.4 173.63,-77.4 170.13,-87.4 177.13,-87.4"/>
</g>
<!-- offline -->
<g id="node4" class="node">
<title>offline</title>
<path fill="#4caf50" stroke="black" d="M349.38,-71.88C349.38,-71.88 271.88,-71.88 271.88,-71.88 265.88,-71.88 259.88,-65.88 259.88,-59.88 259.88,-59.88 259.88,-39.88 259.88,-39.88 259.88,-33.88 265.88,-27.88 271.88,-27.88 271.88,-27.88 349.38,-27.88 349.38,-27.88 355.38,-27.88 361.38,-33.88 361.38,-39.88 361.38,-39.88 361.38,-59.88 361.38,-59.88 361.38,-65.88 355.38,-71.88 349.38,-71.88"/>
<text xml:space="preserve" text-anchor="middle" x="310.62" y="-58.38" font-family="Arial" font-size="10.00" fill="white">Works Offline</text>
<text xml:space="preserve" text-anchor="middle" x="310.62" y="-46.38" font-family="Arial" font-size="10.00" fill="white">No Internet Needed</text>
<text xml:space="preserve" text-anchor="middle" x="310.62" y="-34.38" font-family="Arial" font-size="10.00" fill="white">After Download</text>
</g>
<!-- gemma&#45;&gt;offline -->
<g id="edge3" class="edge">
<title>gemma&#45;&gt;offline</title>
<path fill="none" stroke="#4caf50" stroke-width="2" d="M540.54,-147.5C458.14,-147.5 310.62,-147.5 310.62,-147.5 310.62,-147.5 310.62,-85.05 310.62,-85.05"/>
<polygon fill="#4caf50" stroke="#4caf50" stroke-width="2" points="314.13,-85.05 310.63,-75.05 307.13,-85.05 314.13,-85.05"/>
</g>
<!-- voice -->
<g id="node5" class="node">
<title>voice</title>
<path fill="#ff9800" stroke="black" d="M484.25,-74.12C484.25,-74.12 409,-74.12 409,-74.12 403,-74.12 397,-68.12 397,-62.12 397,-62.12 397,-37.62 397,-37.62 397,-31.62 403,-25.62 409,-25.62 409,-25.62 484.25,-25.62 484.25,-25.62 490.25,-25.62 496.25,-31.62 496.25,-37.62 496.25,-37.62 496.25,-62.12 496.25,-62.12 496.25,-68.12 490.25,-74.12 484.25,-74.12"/>
<text xml:space="preserve" text-anchor="middle" x="446.62" y="-59.67" font-family="Arial" font-size="11.00" fill="white">Voice Input</text>
<text xml:space="preserve" text-anchor="middle" x="446.62" y="-46.17" font-family="Arial" font-size="11.00" fill="white">Browser Whisper</text>
<text xml:space="preserve" text-anchor="middle" x="446.62" y="-32.67" font-family="Arial" font-size="11.00" fill="white">Speech&#45;to&#45;Text</text>
</g>
<!-- gemma&#45;&gt;voice -->
<g id="edge4" class="edge">
<title>gemma&#45;&gt;voice</title>
<path fill="none" stroke="#ff9800" stroke-width="2" d="M540.77,-140.5C498.46,-140.5 446.62,-140.5 446.62,-140.5 446.62,-140.5 446.62,-87.19 446.62,-87.19"/>
<polygon fill="#ff9800" stroke="#ff9800" stroke-width="2" points="450.13,-87.19 446.63,-77.19 443.13,-87.19 450.13,-87.19"/>
</g>
<!-- models -->
<g id="node6" class="node">
<title>models</title>
<path fill="#3f51b5" stroke="black" d="M644.62,-74.12C644.62,-74.12 544.62,-74.12 544.62,-74.12 538.62,-74.12 532.62,-68.12 532.62,-62.12 532.62,-62.12 532.62,-37.62 532.62,-37.62 532.62,-31.62 538.62,-25.62 544.62,-25.62 544.62,-25.62 644.62,-25.62 644.62,-25.62 650.62,-25.62 656.62,-31.62 656.62,-37.62 656.62,-37.62 656.62,-62.12 656.62,-62.12 656.62,-68.12 650.62,-74.12 644.62,-74.12"/>
<text xml:space="preserve" text-anchor="middle" x="594.62" y="-59.67" font-family="Arial" font-size="11.00" fill="white">4 Model Variants</text>
<text xml:space="preserve" text-anchor="middle" x="594.62" y="-46.17" font-family="Arial" font-size="11.00" fill="white">E2B / E4B / 27B / 31B</text>
<text xml:space="preserve" text-anchor="middle" x="594.62" y="-32.67" font-family="Arial" font-size="11.00" fill="white">Hot&#45;Swap Support</text>
</g>
<!-- gemma&#45;&gt;models -->
<g id="edge5" class="edge">
<title>gemma&#45;&gt;models</title>
<path fill="none" stroke="#3f51b5" stroke-width="2" d="M594.62,-132.86C594.62,-132.86 594.62,-87.56 594.62,-87.56"/>
<polygon fill="#3f51b5" stroke="#3f51b5" stroke-width="2" points="598.13,-87.56 594.63,-77.56 591.13,-87.56 598.13,-87.56"/>
</g>
<!-- privacy -->
<g id="node7" class="node">
<title>privacy</title>
<path fill="#9c27b0" stroke="black" d="M774.62,-74.12C774.62,-74.12 704.62,-74.12 704.62,-74.12 698.62,-74.12 692.62,-68.12 692.62,-62.12 692.62,-62.12 692.62,-37.62 692.62,-37.62 692.62,-31.62 698.62,-25.62 704.62,-25.62 704.62,-25.62 774.62,-25.62 774.62,-25.62 780.62,-25.62 786.62,-31.62 786.62,-37.62 786.62,-37.62 786.62,-62.12 786.62,-62.12 786.62,-68.12 780.62,-74.12 774.62,-74.12"/>
<text xml:space="preserve" text-anchor="middle" x="739.62" y="-59.67" font-family="Arial" font-size="11.00" fill="white">Privacy First</text>
<text xml:space="preserve" text-anchor="middle" x="739.62" y="-46.17" font-family="Arial" font-size="11.00" fill="white">No Data Leaves</text>
<text xml:space="preserve" text-anchor="middle" x="739.62" y="-32.67" font-family="Arial" font-size="11.00" fill="white">Your Machine</text>
</g>
<!-- gemma&#45;&gt;privacy -->
<g id="edge6" class="edge">
<title>gemma&#45;&gt;privacy</title>
<path fill="none" stroke="#9c27b0" stroke-width="2" d="M648.62,-140.5C689.84,-140.5 739.62,-140.5 739.62,-140.5 739.62,-140.5 739.62,-87.19 739.62,-87.19"/>
<polygon fill="#9c27b0" stroke="#9c27b0" stroke-width="2" points="743.13,-87.19 739.63,-77.19 736.13,-87.19 743.13,-87.19"/>
</g>
<!-- zero -->
<g id="node8" class="node">
<title>zero</title>
<path fill="#2196f3" stroke="black" d="M920.12,-75.25C920.12,-75.25 835.12,-75.25 835.12,-75.25 829.12,-75.25 823.12,-69.25 823.12,-63.25 823.12,-63.25 823.12,-36.5 823.12,-36.5 823.12,-30.5 829.12,-24.5 835.12,-24.5 835.12,-24.5 920.12,-24.5 920.12,-24.5 926.12,-24.5 932.12,-30.5 932.12,-36.5 932.12,-36.5 932.12,-63.25 932.12,-63.25 932.12,-69.25 926.12,-75.25 920.12,-75.25"/>
<text xml:space="preserve" text-anchor="middle" x="877.62" y="-59.85" font-family="Arial Bold" font-size="12.00" fill="white">Zero Config</text>
<text xml:space="preserve" text-anchor="middle" x="877.62" y="-45.6" font-family="Arial Bold" font-size="12.00" fill="white">Auto&#45;Provisions</text>
<text xml:space="preserve" text-anchor="middle" x="877.62" y="-31.35" font-family="Arial Bold" font-size="12.00" fill="white">Python + MLX</text>
</g>
<!-- gemma&#45;&gt;zero -->
<g id="edge7" class="edge">
<title>gemma&#45;&gt;zero</title>
<path fill="none" stroke="#2196f3" stroke-width="2" d="M648.86,-147.5C731.03,-147.5 877.62,-147.5 877.62,-147.5 877.62,-147.5 877.62,-88.55 877.62,-88.55"/>
<polygon fill="#2196f3" stroke="#2196f3" stroke-width="2" points="881.13,-88.55 877.63,-78.55 874.13,-88.55 881.13,-88.55"/>
</g>
<!-- xml -->
<g id="node9" class="node">
<title>xml</title>
<path fill="#ff9800" stroke="black" d="M1073.25,-74.12C1073.25,-74.12 980,-74.12 980,-74.12 974,-74.12 968,-68.12 968,-62.12 968,-62.12 968,-37.62 968,-37.62 968,-31.62 974,-25.62 980,-25.62 980,-25.62 1073.25,-25.62 1073.25,-25.62 1079.25,-25.62 1085.25,-31.62 1085.25,-37.62 1085.25,-37.62 1085.25,-62.12 1085.25,-62.12 1085.25,-68.12 1079.25,-74.12 1073.25,-74.12"/>
<text xml:space="preserve" text-anchor="middle" x="1026.62" y="-59.67" font-family="Arial" font-size="11.00" fill="white">XML Tool Protocol</text>
<text xml:space="preserve" text-anchor="middle" x="1026.62" y="-46.17" font-family="Arial" font-size="11.00" fill="white">Small&#45;Model Friendly</text>
<text xml:space="preserve" text-anchor="middle" x="1026.62" y="-32.67" font-family="Arial" font-size="11.00" fill="white">Action Parsing</text>
</g>
<!-- gemma&#45;&gt;xml -->
<g id="edge8" class="edge">
<title>gemma&#45;&gt;xml</title>
<path fill="none" stroke="#ff9800" stroke-width="2" d="M648.46,-155.5C764.27,-155.5 1026.62,-155.5 1026.62,-155.5 1026.62,-155.5 1026.62,-87.4 1026.62,-87.4"/>
<polygon fill="#ff9800" stroke="#ff9800" stroke-width="2" points="1030.13,-87.4 1026.63,-77.4 1023.13,-87.4 1030.13,-87.4"/>
</g>
<!-- stream -->
<g id="node10" class="node">
<title>stream</title>
<path fill="#00bcd4" stroke="black" d="M1228.38,-74.12C1228.38,-74.12 1132.88,-74.12 1132.88,-74.12 1126.88,-74.12 1120.88,-68.12 1120.88,-62.12 1120.88,-62.12 1120.88,-37.62 1120.88,-37.62 1120.88,-31.62 1126.88,-25.62 1132.88,-25.62 1132.88,-25.62 1228.38,-25.62 1228.38,-25.62 1234.38,-25.62 1240.38,-31.62 1240.38,-37.62 1240.38,-37.62 1240.38,-62.12 1240.38,-62.12 1240.38,-68.12 1234.38,-74.12 1228.38,-74.12"/>
<text xml:space="preserve" text-anchor="middle" x="1180.62" y="-59.67" font-family="Arial" font-size="11.00" fill="white">Live Streaming</text>
<text xml:space="preserve" text-anchor="middle" x="1180.62" y="-46.17" font-family="Arial" font-size="11.00" fill="white">Real&#45;Time File Writes</text>
<text xml:space="preserve" text-anchor="middle" x="1180.62" y="-32.67" font-family="Arial" font-size="11.00" fill="white">~450ms Flush</text>
</g>
<!-- gemma&#45;&gt;stream -->
<g id="edge9" class="edge">
<title>gemma&#45;&gt;stream</title>
<path fill="none" stroke="#00bcd4" stroke-width="2" d="M648.7,-162.5C793.77,-162.5 1180.62,-162.5 1180.62,-162.5 1180.62,-162.5 1180.62,-87.62 1180.62,-87.62"/>
<polygon fill="#00bcd4" stroke="#00bcd4" stroke-width="2" points="1184.13,-87.62 1180.63,-77.62 1177.13,-87.62 1184.13,-87.62"/>
</g>
</g>
</svg>
