<?xml version="1.0" encoding="UTF-8" standalone="no"?>
<!DOCTYPE svg PUBLIC "-//W3C//DTD SVG 1.1//EN"
 "http://www.w3.org/Graphics/SVG/1.1/DTD/svg11.dtd">
<!-- Generated by graphviz version 14.1.2 (0)
 -->
<!-- Title: stop_slop_taxonomy Pages: 1 -->
<svg width="1677pt" height="283pt"
 viewBox="0.00 0.00 1677.00 283.00" xmlns="http://www.w3.org/2000/svg" xmlns:xlink="http://www.w3.org/1999/xlink">
<style>
<!-- White text halo for edge label readability -->
text { paint-order: stroke; stroke: #ffffff; stroke-width: 3px; stroke-linejoin: round; fill: #1a1a2e; }
</style>
<g id="graph0" class="graph" transform="scale(1 1) rotate(0) translate(4 279)">
<title>stop_slop_taxonomy</title>
<polygon fill="white" stroke="none" points="-4,4 -4,-279 1673,-279 1673,4 -4,4"/>
<text xml:space="preserve" text-anchor="middle" x="834.5" y="-7.2" font-family="Times New Roman,serif" font-size="14.00">Stop Slop &#45; AI Tell Taxonomy</text>
<g id="clust1" class="cluster">
<title>cluster_phrases</title>
<polygon fill="#fff3e0" stroke="#ff9800" points="8,-32.5 8,-116.25 745,-116.25 745,-32.5 8,-32.5"/>
<text xml:space="preserve" text-anchor="middle" x="376.5" y="-98.95" font-family="Arial Bold" font-size="14.00">7 Phrase Categories</text>
</g>
<g id="clust2" class="cluster">
<title>cluster_structures</title>
<polygon fill="#e3f2fd" stroke="#2196f3" points="766,-36.5 766,-112.25 1661,-112.25 1661,-36.5 766,-36.5"/>
<text xml:space="preserve" text-anchor="middle" x="1213.5" y="-94.95" font-family="Arial Bold" font-size="14.00">9 Structural Anti&#45;Patterns</text>
</g>
<!-- ai_tells -->
<g id="node1" class="node">
<title>ai_tells</title>
<path fill="#f44336" stroke="black" d="M803,-275C803,-275 685,-275 685,-275 679,-275 673,-269 673,-263 673,-263 673,-249 673,-249 673,-243 679,-237 685,-237 685,-237 803,-237 803,-237 809,-237 815,-243 815,-249 815,-249 815,-263 815,-263 815,-269 809,-275 803,-275"/>
<text xml:space="preserve" text-anchor="middle" x="744" y="-258.65" font-family="Arial Bold" font-size="13.00" fill="white">AI Writing Tells</text>
<text xml:space="preserve" text-anchor="middle" x="744" y="-243.65" font-family="Arial Bold" font-size="13.00" fill="white">Detectable Patterns</text>
</g>
<!-- phrase_cat -->
<g id="node2" class="node">
<title>phrase_cat</title>
<path fill="#ff9800" stroke="black" d="M483,-179C483,-179 389,-179 389,-179 383,-179 377,-173 377,-167 377,-167 377,-154.5 377,-154.5 377,-148.5 383,-142.5 389,-142.5 389,-142.5 483,-142.5 483,-142.5 489,-142.5 495,-148.5 495,-154.5 495,-154.5 495,-167 495,-167 495,-173 489,-179 483,-179"/>
<text xml:space="preserve" text-anchor="middle" x="436" y="-163.6" font-family="Arial Bold" font-size="12.00" fill="white">Phrase Patterns</text>
<text xml:space="preserve" text-anchor="middle" x="436" y="-149.35" font-family="Arial Bold" font-size="12.00" fill="white">40+ Banned Items</text>
</g>
<!-- ai_tells&#45;&gt;phrase_cat -->
<g id="edge1" class="edge">
<title>ai_tells&#45;&gt;phrase_cat</title>
<path fill="none" stroke="#ff9800" stroke-width="2.5" d="M694.46,-236.81C694.46,-210.24 694.46,-165.5 694.46,-165.5 694.46,-165.5 509.08,-165.5 509.08,-165.5"/>
<polygon fill="#ff9800" stroke="#ff9800" stroke-width="2.5" points="509.08,-162 499.08,-165.5 509.08,-169 509.08,-162"/>
<text xml:space="preserve" text-anchor="middle" x="605.17" y="-168.7" font-family="Times New Roman,serif" font-size="14.00">Word Level</text>
</g>
<!-- structure_cat -->
<g id="node3" class="node">
<title>structure_cat</title>
<path fill="#2196f3" stroke="black" d="M1205.62,-179C1205.62,-179 1106.38,-179 1106.38,-179 1100.38,-179 1094.38,-173 1094.38,-167 1094.38,-167 1094.38,-154.5 1094.38,-154.5 1094.38,-148.5 1100.38,-142.5 1106.38,-142.5 1106.38,-142.5 1205.62,-142.5 1205.62,-142.5 1211.62,-142.5 1217.62,-148.5 1217.62,-154.5 1217.62,-154.5 1217.62,-167 1217.62,-167 1217.62,-173 1211.62,-179 1205.62,-179"/>
<text xml:space="preserve" text-anchor="middle" x="1156" y="-163.6" font-family="Arial Bold" font-size="12.00" fill="white">Structural Patterns</text>
<text xml:space="preserve" text-anchor="middle" x="1156" y="-149.35" font-family="Arial Bold" font-size="12.00" fill="white">9 Anti&#45;Patterns</text>
</g>
<!-- ai_tells&#45;&gt;structure_cat -->
<g id="edge2" class="edge">
<title>ai_tells&#45;&gt;structure_cat</title>
<path fill="none" stroke="#2196f3" stroke-width="2.5" d="M794.31,-236.69C794.31,-212.58 794.31,-174.5 794.31,-174.5 794.31,-174.5 1080.45,-174.5 1080.45,-174.5"/>
<polygon fill="#2196f3" stroke="#2196f3" stroke-width="2.5" points="1080.45,-178 1090.45,-174.5 1080.45,-171 1080.45,-178"/>
<text xml:space="preserve" text-anchor="middle" x="864.66" y="-177.7" font-family="Times New Roman,serif" font-size="14.00">Sentence Level</text>
</g>
<!-- throat -->
<g id="node4" class="node">
<title>throat</title>
<path fill="#ffb74d" stroke="black" d="M86.38,-84.5C86.38,-84.5 27.62,-84.5 27.62,-84.5 21.62,-84.5 15.62,-78.5 15.62,-72.5 15.62,-72.5 15.62,-52.5 15.62,-52.5 15.62,-46.5 21.62,-40.5 27.62,-40.5 27.62,-40.5 86.38,-40.5 86.38,-40.5 92.38,-40.5 98.38,-46.5 98.38,-52.5 98.38,-52.5 98.38,-72.5 98.38,-72.5 98.38,-78.5 92.38,-84.5 86.38,-84.5"/>
<text xml:space="preserve" text-anchor="middle" x="57" y="-71" font-family="Arial" font-size="10.00" fill="white">Throat&#45;Clearing</text>
<text xml:space="preserve" text-anchor="middle" x="57" y="-59" font-family="Arial" font-size="10.00" fill="white">Openers</text>
<text xml:space="preserve" text-anchor="middle" x="57" y="-47" font-family="Arial" font-size="10.00" fill="white">15 phrases</text>
</g>
<!-- phrase_cat&#45;&gt;throat -->
<g id="edge3" class="edge">
<title>phrase_cat&#45;&gt;throat</title>
<path fill="none" stroke="#ff9800" stroke-width="1.5" d="M376.78,-169.5C270.19,-169.5 57,-169.5 57,-169.5 57,-169.5 57,-97.2 57,-97.2"/>
<polygon fill="#ff9800" stroke="#ff9800" stroke-width="1.5" points="60.5,-97.2 57,-87.2 53.5,-97.2 60.5,-97.2"/>
</g>
<!-- emphasis -->
<g id="node5" class="node">
<title>emphasis</title>
<path fill="#ffb74d" stroke="black" d="M181.75,-84.5C181.75,-84.5 146.25,-84.5 146.25,-84.5 140.25,-84.5 134.25,-78.5 134.25,-72.5 134.25,-72.5 134.25,-52.5 134.25,-52.5 134.25,-46.5 140.25,-40.5 146.25,-40.5 146.25,-40.5 181.75,-40.5 181.75,-40.5 187.75,-40.5 193.75,-46.5 193.75,-52.5 193.75,-52.5 193.75,-72.5 193.75,-72.5 193.75,-78.5 187.75,-84.5 181.75,-84.5"/>
<text xml:space="preserve" text-anchor="middle" x="164" y="-71" font-family="Arial" font-size="10.00" fill="white">Emphasis</text>
<text xml:space="preserve" text-anchor="middle" x="164" y="-59" font-family="Arial" font-size="10.00" fill="white">Crutches</text>
<text xml:space="preserve" text-anchor="middle" x="164" y="-47" font-family="Arial" font-size="10.00" fill="white">5 phrases</text>
</g>
<!-- phrase_cat&#45;&gt;emphasis -->
<g id="edge4" class="edge">
<title>phrase_cat&#45;&gt;emphasis</title>
<path fill="none" stroke="#ff9800" stroke-width="1.5" d="M376.64,-160.5C296.61,-160.5 164,-160.5 164,-160.5 164,-160.5 164,-97.01 164,-97.01"/>
<polygon fill="#ff9800" stroke="#ff9800" stroke-width="1.5" points="167.5,-97.01 164,-87.01 160.5,-97.01 167.5,-97.01"/>
</g>
<!-- jargon -->
<g id="node6" class="node">
<title>jargon</title>
<path fill="#ffb74d" stroke="black" d="M304.62,-84.5C304.62,-84.5 241.38,-84.5 241.38,-84.5 235.38,-84.5 229.38,-78.5 229.38,-72.5 229.38,-72.5 229.38,-52.5 229.38,-52.5 229.38,-46.5 235.38,-40.5 241.38,-40.5 241.38,-40.5 304.62,-40.5 304.62,-40.5 310.62,-40.5 316.62,-46.5 316.62,-52.5 316.62,-52.5 316.62,-72.5 316.62,-72.5 316.62,-78.5 310.62,-84.5 304.62,-84.5"/>
<text xml:space="preserve" text-anchor="middle" x="273" y="-71" font-family="Arial" font-size="10.00" fill="white">Business</text>
<text xml:space="preserve" text-anchor="middle" x="273" y="-59" font-family="Arial" font-size="10.00" fill="white">Jargon</text>
<text xml:space="preserve" text-anchor="middle" x="273" y="-47" font-family="Arial" font-size="10.00" fill="white">11 replacements</text>
</g>
<!-- phrase_cat&#45;&gt;jargon -->
<g id="edge5" class="edge">
<title>phrase_cat&#45;&gt;jargon</title>
<path fill="none" stroke="#ff9800" stroke-width="1.5" d="M376.69,-151.5C330.09,-151.5 273,-151.5 273,-151.5 273,-151.5 273,-97.23 273,-97.23"/>
<polygon fill="#ff9800" stroke="#ff9800" stroke-width="1.5" points="276.5,-97.23 273,-87.23 269.5,-97.23 276.5,-97.23"/>
</g>
<!-- adverbs -->
<g id="node7" class="node">
<title>adverbs</title>
<path fill="#ffb74d" stroke="black" d="M402.88,-84.5C402.88,-84.5 365.12,-84.5 365.12,-84.5 359.12,-84.5 353.12,-78.5 353.12,-72.5 353.12,-72.5 353.12,-52.5 353.12,-52.5 353.12,-46.5 359.12,-40.5 365.12,-40.5 365.12,-40.5 402.88,-40.5 402.88,-40.5 408.88,-40.5 414.88,-46.5 414.88,-52.5 414.88,-52.5 414.88,-72.5 414.88,-72.5 414.88,-78.5 408.88,-84.5 402.88,-84.5"/>
<text xml:space="preserve" text-anchor="middle" x="384" y="-71" font-family="Arial" font-size="10.00" fill="white">Adverbs</text>
<text xml:space="preserve" text-anchor="middle" x="384" y="-59" font-family="Arial" font-size="10.00" fill="white">and Fillers</text>
<text xml:space="preserve" text-anchor="middle" x="384" y="-47" font-family="Arial" font-size="10.00" fill="white">15+ words</text>
</g>
<!-- phrase_cat&#45;&gt;adverbs -->
<g id="edge6" class="edge">
<title>phrase_cat&#45;&gt;adverbs</title>
<path fill="none" stroke="#ff9800" stroke-width="1.5" d="M395.94,-142.27C395.94,-142.27 395.94,-96.95 395.94,-96.95"/>
<polygon fill="#ff9800" stroke="#ff9800" stroke-width="1.5" points="399.44,-96.95 395.94,-86.95 392.44,-96.95 399.44,-96.95"/>
</g>
<!-- meta -->
<g id="node8" class="node">
<title>meta</title>
<path fill="#ffb74d" stroke="black" d="M511.12,-84.5C511.12,-84.5 462.88,-84.5 462.88,-84.5 456.88,-84.5 450.88,-78.5 450.88,-72.5 450.88,-72.5 450.88,-52.5 450.88,-52.5 450.88,-46.5 456.88,-40.5 462.88,-40.5 462.88,-40.5 511.12,-40.5 511.12,-40.5 517.12,-40.5 523.12,-46.5 523.12,-52.5 523.12,-52.5 523.12,-72.5 523.12,-72.5 523.12,-78.5 517.12,-84.5 511.12,-84.5"/>
<text xml:space="preserve" text-anchor="middle" x="487" y="-71" font-family="Arial" font-size="10.00" fill="white">Meta&#45;</text>
<text xml:space="preserve" text-anchor="middle" x="487" y="-59" font-family="Arial" font-size="10.00" fill="white">Commentary</text>
<text xml:space="preserve" text-anchor="middle" x="487" y="-47" font-family="Arial" font-size="10.00" fill="white">10 phrases</text>
</g>
<!-- phrase_cat&#45;&gt;meta -->
<g id="edge7" class="edge">
<title>phrase_cat&#45;&gt;meta</title>
<path fill="none" stroke="#ff9800" stroke-width="1.5" d="M472.94,-142.27C472.94,-142.27 472.94,-96.95 472.94,-96.95"/>
<polygon fill="#ff9800" stroke="#ff9800" stroke-width="1.5" points="476.44,-96.95 472.94,-86.95 469.44,-96.95 476.44,-96.95"/>
</g>
<!-- performative -->
<g id="node9" class="node">
<title>performative</title>
<path fill="#ffb74d" stroke="black" d="M618.75,-84.5C618.75,-84.5 571.25,-84.5 571.25,-84.5 565.25,-84.5 559.25,-78.5 559.25,-72.5 559.25,-72.5 559.25,-52.5 559.25,-52.5 559.25,-46.5 565.25,-40.5 571.25,-40.5 571.25,-40.5 618.75,-40.5 618.75,-40.5 624.75,-40.5 630.75,-46.5 630.75,-52.5 630.75,-52.5 630.75,-72.5 630.75,-72.5 630.75,-78.5 624.75,-84.5 618.75,-84.5"/>
<text xml:space="preserve" text-anchor="middle" x="595" y="-71" font-family="Arial" font-size="10.00" fill="white">Performative</text>
<text xml:space="preserve" text-anchor="middle" x="595" y="-59" font-family="Arial" font-size="10.00" fill="white">Emphasis</text>
<text xml:space="preserve" text-anchor="middle" x="595" y="-47" font-family="Arial" font-size="10.00" fill="white">3 phrases</text>
</g>
<!-- phrase_cat&#45;&gt;performative -->
<g id="edge8" class="edge">
<title>phrase_cat&#45;&gt;performative</title>
<path fill="none" stroke="#ff9800" stroke-width="1.5" d="M495.21,-151.5C540.41,-151.5 595,-151.5 595,-151.5 595,-151.5 595,-97.23 595,-97.23"/>
<polygon fill="#ff9800" stroke="#ff9800" stroke-width="1.5" points="598.5,-97.23 595,-87.23 591.5,-97.23 598.5,-97.23"/>
</g>
<!-- vague -->
<g id="node10" class="node">
<title>vague</title>
<path fill="#ffb74d" stroke="black" d="M725.38,-84.5C725.38,-84.5 678.62,-84.5 678.62,-84.5 672.62,-84.5 666.62,-78.5 666.62,-72.5 666.62,-72.5 666.62,-52.5 666.62,-52.5 666.62,-46.5 672.62,-40.5 678.62,-40.5 678.62,-40.5 725.38,-40.5 725.38,-40.5 731.38,-40.5 737.38,-46.5 737.38,-52.5 737.38,-52.5 737.38,-72.5 737.38,-72.5 737.38,-78.5 731.38,-84.5 725.38,-84.5"/>
<text xml:space="preserve" text-anchor="middle" x="702" y="-71" font-family="Arial" font-size="10.00" fill="white">Vague</text>
<text xml:space="preserve" text-anchor="middle" x="702" y="-59" font-family="Arial" font-size="10.00" fill="white">Declaratives</text>
<text xml:space="preserve" text-anchor="middle" x="702" y="-47" font-family="Arial" font-size="10.00" fill="white">5 phrases</text>
</g>
<!-- phrase_cat&#45;&gt;vague -->
<g id="edge9" class="edge">
<title>phrase_cat&#45;&gt;vague</title>
<path fill="none" stroke="#ff9800" stroke-width="1.5" d="M495.36,-160.5C577.53,-160.5 715.92,-160.5 715.92,-160.5 715.92,-160.5 715.92,-97.01 715.92,-97.01"/>
<polygon fill="#ff9800" stroke="#ff9800" stroke-width="1.5" points="719.42,-97.01 715.92,-87.01 712.42,-97.01 719.42,-97.01"/>
</g>
<!-- binary -->
<g id="node11" class="node">
<title>binary</title>
<path fill="#64b5f6" stroke="black" d="M820.38,-80.5C820.38,-80.5 785.62,-80.5 785.62,-80.5 779.62,-80.5 773.62,-74.5 773.62,-68.5 773.62,-68.5 773.62,-56.5 773.62,-56.5 773.62,-50.5 779.62,-44.5 785.62,-44.5 785.62,-44.5 820.38,-44.5 820.38,-44.5 826.38,-44.5 832.38,-50.5 832.38,-56.5 832.38,-56.5 832.38,-68.5 832.38,-68.5 832.38,-74.5 826.38,-80.5 820.38,-80.5"/>
<text xml:space="preserve" text-anchor="middle" x="803" y="-65" font-family="Arial" font-size="10.00" fill="white">Binary</text>
<text xml:space="preserve" text-anchor="middle" x="803" y="-53" font-family="Arial" font-size="10.00" fill="white">Contrasts</text>
</g>
<!-- structure_cat&#45;&gt;binary -->
<g id="edge10" class="edge">
<title>structure_cat&#45;&gt;binary</title>
<path fill="none" stroke="#2196f3" stroke-width="1.5" d="M1093.88,-169.5C997.7,-169.5 823.69,-169.5 823.69,-169.5 823.69,-169.5 823.69,-92.92 823.69,-92.92"/>
<polygon fill="#2196f3" stroke="#2196f3" stroke-width="1.5" points="827.19,-92.92 823.69,-82.92 820.19,-92.92 827.19,-92.92"/>
</g>
<!-- negative -->
<g id="node12" class="node">
<title>negative</title>
<path fill="#64b5f6" stroke="black" d="M911.5,-80.5C911.5,-80.5 880.5,-80.5 880.5,-80.5 874.5,-80.5 868.5,-74.5 868.5,-68.5 868.5,-68.5 868.5,-56.5 868.5,-56.5 868.5,-50.5 874.5,-44.5 880.5,-44.5 880.5,-44.5 911.5,-44.5 911.5,-44.5 917.5,-44.5 923.5,-50.5 923.5,-56.5 923.5,-56.5 923.5,-68.5 923.5,-68.5 923.5,-74.5 917.5,-80.5 911.5,-80.5"/>
<text xml:space="preserve" text-anchor="middle" x="896" y="-65" font-family="Arial" font-size="10.00" fill="white">Negative</text>
<text xml:space="preserve" text-anchor="middle" x="896" y="-53" font-family="Arial" font-size="10.00" fill="white">Listing</text>
</g>
<!-- structure_cat&#45;&gt;negative -->
<g id="edge11" class="edge">
<title>structure_cat&#45;&gt;negative</title>
<path fill="none" stroke="#2196f3" stroke-width="1.5" d="M1094.05,-156.5C1017.15,-156.5 896,-156.5 896,-156.5 896,-156.5 896,-92.89 896,-92.89"/>
<polygon fill="#2196f3" stroke="#2196f3" stroke-width="1.5" points="899.5,-92.89 896,-82.89 892.5,-92.89 899.5,-92.89"/>
</g>
<!-- dramatic -->
<g id="node13" class="node">
<title>dramatic</title>
<path fill="#64b5f6" stroke="black" d="M1026.12,-80.5C1026.12,-80.5 971.88,-80.5 971.88,-80.5 965.88,-80.5 959.88,-74.5 959.88,-68.5 959.88,-68.5 959.88,-56.5 959.88,-56.5 959.88,-50.5 965.88,-44.5 971.88,-44.5 971.88,-44.5 1026.12,-44.5 1026.12,-44.5 1032.12,-44.5 1038.12,-50.5 1038.12,-56.5 1038.12,-56.5 1038.12,-68.5 1038.12,-68.5 1038.12,-74.5 1032.12,-80.5 1026.12,-80.5"/>
<text xml:space="preserve" text-anchor="middle" x="999" y="-65" font-family="Arial" font-size="10.00" fill="white">Dramatic</text>
<text xml:space="preserve" text-anchor="middle" x="999" y="-53" font-family="Arial" font-size="10.00" fill="white">Fragmentation</text>
</g>
<!-- structure_cat&#45;&gt;dramatic -->
<g id="edge12" class="edge">
<title>structure_cat&#45;&gt;dramatic</title>
<path fill="none" stroke="#2196f3" stroke-width="1.5" d="M1093.95,-147.5C1050.07,-147.5 999,-147.5 999,-147.5 999,-147.5 999,-93.21 999,-93.21"/>
<polygon fill="#2196f3" stroke="#2196f3" stroke-width="1.5" points="1002.5,-93.21 999,-83.21 995.5,-93.21 1002.5,-93.21"/>
</g>
<!-- rhetorical -->
<g id="node14" class="node">
<title>rhetorical</title>
<path fill="#64b5f6" stroke="black" d="M1122.12,-80.5C1122.12,-80.5 1085.88,-80.5 1085.88,-80.5 1079.88,-80.5 1073.88,-74.5 1073.88,-68.5 1073.88,-68.5 1073.88,-56.5 1073.88,-56.5 1073.88,-50.5 1079.88,-44.5 1085.88,-44.5 1085.88,-44.5 1122.12,-44.5 1122.12,-44.5 1128.12,-44.5 1134.12,-50.5 1134.12,-56.5 1134.12,-56.5 1134.12,-68.5 1134.12,-68.5 1134.12,-74.5 1128.12,-80.5 1122.12,-80.5"/>
<text xml:space="preserve" text-anchor="middle" x="1104" y="-65" font-family="Arial" font-size="10.00" fill="white">Rhetorical</text>
<text xml:space="preserve" text-anchor="middle" x="1104" y="-53" font-family="Arial" font-size="10.00" fill="white">Setups</text>
</g>
<!-- structure_cat&#45;&gt;rhetorical -->
<g id="edge13" class="edge">
<title>structure_cat&#45;&gt;rhetorical</title>
<path fill="none" stroke="#2196f3" stroke-width="1.5" d="M1114.25,-142.27C1114.25,-142.27 1114.25,-93.17 1114.25,-93.17"/>
<polygon fill="#2196f3" stroke="#2196f3" stroke-width="1.5" points="1117.75,-93.17 1114.25,-83.17 1110.75,-93.17 1117.75,-93.17"/>
</g>
<!-- formulaic -->
<g id="node15" class="node">
<title>formulaic</title>
<path fill="#64b5f6" stroke="black" d="M1235.38,-80.5C1235.38,-80.5 1182.62,-80.5 1182.62,-80.5 1176.62,-80.5 1170.62,-74.5 1170.62,-68.5 1170.62,-68.5 1170.62,-56.5 1170.62,-56.5 1170.62,-50.5 1176.62,-44.5 1182.62,-44.5 1182.62,-44.5 1235.38,-44.5 1235.38,-44.5 1241.38,-44.5 1247.38,-50.5 1247.38,-56.5 1247.38,-56.5 1247.38,-68.5 1247.38,-68.5 1247.38,-74.5 1241.38,-80.5 1235.38,-80.5"/>
<text xml:space="preserve" text-anchor="middle" x="1209" y="-65" font-family="Arial" font-size="10.00" fill="white">Formulaic</text>
<text xml:space="preserve" text-anchor="middle" x="1209" y="-53" font-family="Arial" font-size="10.00" fill="white">Constructions</text>
</g>
<!-- structure_cat&#45;&gt;formulaic -->
<g id="edge14" class="edge">
<title>structure_cat&#45;&gt;formulaic</title>
<path fill="none" stroke="#2196f3" stroke-width="1.5" d="M1194.12,-142.27C1194.12,-142.27 1194.12,-93.17 1194.12,-93.17"/>
<polygon fill="#2196f3" stroke="#2196f3" stroke-width="1.5" points="1197.63,-93.17 1194.13,-83.17 1190.63,-93.17 1197.63,-93.17"/>
</g>
<!-- false_agency -->
<g id="node16" class="node">
<title>false_agency</title>
<path fill="#64b5f6" stroke="black" d="M1325,-80.5C1325,-80.5 1295,-80.5 1295,-80.5 1289,-80.5 1283,-74.5 1283,-68.5 1283,-68.5 1283,-56.5 1283,-56.5 1283,-50.5 1289,-44.5 1295,-44.5 1295,-44.5 1325,-44.5 1325,-44.5 1331,-44.5 1337,-50.5 1337,-56.5 1337,-56.5 1337,-68.5 1337,-68.5 1337,-74.5 1331,-80.5 1325,-80.5"/>
<text xml:space="preserve" text-anchor="middle" x="1310" y="-65" font-family="Arial" font-size="10.00" fill="white">False</text>
<text xml:space="preserve" text-anchor="middle" x="1310" y="-53" font-family="Arial" font-size="10.00" fill="white">Agency</text>
</g>
<!-- structure_cat&#45;&gt;false_agency -->
<g id="edge15" class="edge">
<title>structure_cat&#45;&gt;false_agency</title>
<path fill="none" stroke="#2196f3" stroke-width="1.5" d="M1217.75,-149.5C1260.59,-149.5 1310,-149.5 1310,-149.5 1310,-149.5 1310,-93.22 1310,-93.22"/>
<polygon fill="#2196f3" stroke="#2196f3" stroke-width="1.5" points="1313.5,-93.22 1310,-83.22 1306.5,-93.22 1313.5,-93.22"/>
</g>
<!-- narrator -->
<g id="node17" class="node">
<title>narrator</title>
<path fill="#64b5f6" stroke="black" d="M1437.38,-80.5C1437.38,-80.5 1384.62,-80.5 1384.62,-80.5 1378.62,-80.5 1372.62,-74.5 1372.62,-68.5 1372.62,-68.5 1372.62,-56.5 1372.62,-56.5 1372.62,-50.5 1378.62,-44.5 1384.62,-44.5 1384.62,-44.5 1437.38,-44.5 1437.38,-44.5 1443.38,-44.5 1449.38,-50.5 1449.38,-56.5 1449.38,-56.5 1449.38,-68.5 1449.38,-68.5 1449.38,-74.5 1443.38,-80.5 1437.38,-80.5"/>
<text xml:space="preserve" text-anchor="middle" x="1411" y="-65" font-family="Arial" font-size="10.00" fill="white">Narrator&#45;from&#45;</text>
<text xml:space="preserve" text-anchor="middle" x="1411" y="-53" font-family="Arial" font-size="10.00" fill="white">a&#45;Distance</text>
</g>
<!-- structure_cat&#45;&gt;narrator -->
<g id="edge16" class="edge">
<title>structure_cat&#45;&gt;narrator</title>
<path fill="none" stroke="#2196f3" stroke-width="1.5" d="M1218.05,-157.5C1293.53,-157.5 1411,-157.5 1411,-157.5 1411,-157.5 1411,-93.09 1411,-93.09"/>
<polygon fill="#2196f3" stroke="#2196f3" stroke-width="1.5" points="1414.5,-93.09 1411,-83.09 1407.5,-93.09 1414.5,-93.09"/>
</g>
<!-- passive -->
<g id="node18" class="node">
<title>passive</title>
<path fill="#64b5f6" stroke="black" d="M1527,-80.5C1527,-80.5 1497,-80.5 1497,-80.5 1491,-80.5 1485,-74.5 1485,-68.5 1485,-68.5 1485,-56.5 1485,-56.5 1485,-50.5 1491,-44.5 1497,-44.5 1497,-44.5 1527,-44.5 1527,-44.5 1533,-44.5 1539,-50.5 1539,-56.5 1539,-56.5 1539,-68.5 1539,-68.5 1539,-74.5 1533,-80.5 1527,-80.5"/>
<text xml:space="preserve" text-anchor="middle" x="1512" y="-65" font-family="Arial" font-size="10.00" fill="white">Passive</text>
<text xml:space="preserve" text-anchor="middle" x="1512" y="-53" font-family="Arial" font-size="10.00" fill="white">Voice</text>
</g>
<!-- structure_cat&#45;&gt;passive -->
<g id="edge17" class="edge">
<title>structure_cat&#45;&gt;passive</title>
<path fill="none" stroke="#2196f3" stroke-width="1.5" d="M1218.01,-164.5C1320.01,-164.5 1512,-164.5 1512,-164.5 1512,-164.5 1512,-93.01 1512,-93.01"/>
<polygon fill="#2196f3" stroke="#2196f3" stroke-width="1.5" points="1515.5,-93.01 1512,-83.01 1508.5,-93.01 1515.5,-93.01"/>
</g>
<!-- wh_starters -->
<g id="node19" class="node">
<title>wh_starters</title>
<path fill="#64b5f6" stroke="black" d="M1641.12,-80.5C1641.12,-80.5 1586.88,-80.5 1586.88,-80.5 1580.88,-80.5 1574.88,-74.5 1574.88,-68.5 1574.88,-68.5 1574.88,-56.5 1574.88,-56.5 1574.88,-50.5 1580.88,-44.5 1586.88,-44.5 1586.88,-44.5 1641.12,-44.5 1641.12,-44.5 1647.12,-44.5 1653.12,-50.5 1653.12,-56.5 1653.12,-56.5 1653.12,-68.5 1653.12,-68.5 1653.12,-74.5 1647.12,-80.5 1641.12,-80.5"/>
<text xml:space="preserve" text-anchor="middle" x="1614" y="-65" font-family="Arial" font-size="10.00" fill="white">Wh&#45; Sentence</text>
<text xml:space="preserve" text-anchor="middle" x="1614" y="-53" font-family="Arial" font-size="10.00" fill="white">Starters</text>
</g>
<!-- structure_cat&#45;&gt;wh_starters -->
<g id="edge18" class="edge">
<title>structure_cat&#45;&gt;wh_starters</title>
<path fill="none" stroke="#2196f3" stroke-width="1.5" d="M1217.77,-171.5C1342.78,-171.5 1614,-171.5 1614,-171.5 1614,-171.5 1614,-93.26 1614,-93.26"/>
<polygon fill="#2196f3" stroke="#2196f3" stroke-width="1.5" points="1617.5,-93.26 1614,-83.26 1610.5,-93.26 1617.5,-93.26"/>
</g>
</g>
</svg>
