<?xml version="1.0" encoding="UTF-8" standalone="no"?>
<!DOCTYPE svg PUBLIC "-//W3C//DTD SVG 1.1//EN"
 "http://www.w3.org/Graphics/SVG/1.1/DTD/svg11.dtd">
<!-- Generated by graphviz version 14.1.2 (0)
 -->
<!-- Title: html_ppt_themes_layouts Pages: 1 -->
<svg width="1961pt" height="266pt"
 viewBox="0.00 0.00 1961.00 266.00" xmlns="http://www.w3.org/2000/svg" xmlns:xlink="http://www.w3.org/1999/xlink">
<style>
<!-- White text halo for edge label readability -->
text { paint-order: stroke; stroke: #ffffff; stroke-width: 3px; stroke-linejoin: round; fill: #1a1a2e; }
</style>
<g id="graph0" class="graph" transform="scale(1 1) rotate(0) translate(4 262)">
<title>html_ppt_themes_layouts</title>
<polygon fill="white" stroke="none" points="-4,4 -4,-262 1956.5,-262 1956.5,4 -4,4"/>
<text xml:space="preserve" text-anchor="middle" x="976.25" y="-7.2" font-family="Times New Roman,serif" font-size="14.00">html&#45;ppt&#45;skill &#45; 36 Themes x 31 Layouts System</text>
<!-- tokens -->
<g id="node1" class="node">
<title>tokens</title>
<polygon fill="#00bcd4" stroke="black" points="738.38,-258 597.88,-258 597.88,-214 738.38,-214 738.38,-258"/>
<text xml:space="preserve" text-anchor="middle" x="668.12" y="-244.5" font-family="Arial" font-size="10.00" fill="white">base.css Design Tokens</text>
<text xml:space="preserve" text-anchor="middle" x="668.12" y="-232.5" font-family="Arial" font-size="10.00" fill="white">&#45;&#45;bg &#45;&#45;text&#45;1 &#45;&#45;accent</text>
<text xml:space="preserve" text-anchor="middle" x="668.12" y="-220.5" font-family="Arial" font-size="10.00" fill="white">&#45;&#45;radius &#45;&#45;shadow &#45;&#45;font&#45;sans</text>
</g>
<!-- light_calm -->
<g id="node2" class="node">
<title>light_calm</title>
<path fill="#2196f3" stroke="black" d="M72.25,-157C72.25,-157 12,-157 12,-157 6,-157 0,-151 0,-145 0,-145 0,-133 0,-133 0,-127 6,-121 12,-121 12,-121 72.25,-121 72.25,-121 78.25,-121 84.25,-127 84.25,-133 84.25,-133 84.25,-145 84.25,-145 84.25,-151 78.25,-157 72.25,-157"/>
<text xml:space="preserve" text-anchor="middle" x="42.12" y="-142.05" font-family="Arial Bold" font-size="11.00" fill="white">Light &amp; Calm</text>
<text xml:space="preserve" text-anchor="middle" x="42.12" y="-128.55" font-family="Arial Bold" font-size="11.00" fill="white">(6 themes)</text>
</g>
<!-- tokens&#45;&gt;light_calm -->
<g id="edge1" class="edge">
<title>tokens&#45;&gt;light_calm</title>
<path fill="none" stroke="#00bcd4" stroke-width="2" d="M597.53,-250.5C433.82,-250.5 42.12,-250.5 42.12,-250.5 42.12,-250.5 42.12,-170.44 42.12,-170.44"/>
<polygon fill="#00bcd4" stroke="#00bcd4" stroke-width="2" points="45.63,-170.44 42.13,-160.44 38.63,-170.44 45.63,-170.44"/>
</g>
<!-- bold_state -->
<g id="node3" class="node">
<title>bold_state</title>
<path fill="#2196f3" stroke="black" d="M209.25,-157C209.25,-157 125,-157 125,-157 119,-157 113,-151 113,-145 113,-145 113,-133 113,-133 113,-127 119,-121 125,-121 125,-121 209.25,-121 209.25,-121 215.25,-121 221.25,-127 221.25,-133 221.25,-133 221.25,-145 221.25,-145 221.25,-151 215.25,-157 209.25,-157"/>
<text xml:space="preserve" text-anchor="middle" x="167.12" y="-142.05" font-family="Arial Bold" font-size="11.00" fill="white">Bold &amp; Statement</text>
<text xml:space="preserve" text-anchor="middle" x="167.12" y="-128.55" font-family="Arial Bold" font-size="11.00" fill="white">(5 themes)</text>
</g>
<!-- tokens&#45;&gt;bold_state -->
<g id="edge2" class="edge">
<title>tokens&#45;&gt;bold_state</title>
<path fill="none" stroke="#00bcd4" stroke-width="2" d="M597.41,-243.5C459.31,-243.5 167.12,-243.5 167.12,-243.5 167.12,-243.5 167.12,-170.23 167.12,-170.23"/>
<polygon fill="#00bcd4" stroke="#00bcd4" stroke-width="2" points="170.63,-170.23 167.13,-160.23 163.63,-170.23 170.63,-170.23"/>
</g>
<!-- cool_dark -->
<g id="node4" class="node">
<title>cool_dark</title>
<path fill="#2196f3" stroke="black" d="M318,-157C318,-157 262.25,-157 262.25,-157 256.25,-157 250.25,-151 250.25,-145 250.25,-145 250.25,-133 250.25,-133 250.25,-127 256.25,-121 262.25,-121 262.25,-121 318,-121 318,-121 324,-121 330,-127 330,-133 330,-133 330,-145 330,-145 330,-151 324,-157 318,-157"/>
<text xml:space="preserve" text-anchor="middle" x="290.12" y="-142.05" font-family="Arial Bold" font-size="11.00" fill="white">Cool &amp; Dark</text>
<text xml:space="preserve" text-anchor="middle" x="290.12" y="-128.55" font-family="Arial Bold" font-size="11.00" fill="white">(7 themes)</text>
</g>
<!-- tokens&#45;&gt;cool_dark -->
<g id="edge3" class="edge">
<title>tokens&#45;&gt;cool_dark</title>
<path fill="none" stroke="#00bcd4" stroke-width="2" d="M597.47,-236.5C488.06,-236.5 290.12,-236.5 290.12,-236.5 290.12,-236.5 290.12,-170.37 290.12,-170.37"/>
<polygon fill="#00bcd4" stroke="#00bcd4" stroke-width="2" points="293.63,-170.37 290.13,-160.37 286.63,-170.37 293.63,-170.37"/>
</g>
<!-- warm_vib -->
<g id="node5" class="node">
<title>warm_vib</title>
<path fill="#2196f3" stroke="black" d="M445.38,-157C445.38,-157 370.88,-157 370.88,-157 364.88,-157 358.88,-151 358.88,-145 358.88,-145 358.88,-133 358.88,-133 358.88,-127 364.88,-121 370.88,-121 370.88,-121 445.38,-121 445.38,-121 451.38,-121 457.38,-127 457.38,-133 457.38,-133 457.38,-145 457.38,-145 457.38,-151 451.38,-157 445.38,-157"/>
<text xml:space="preserve" text-anchor="middle" x="408.12" y="-142.05" font-family="Arial Bold" font-size="11.00" fill="white">Warm &amp; Vibrant</text>
<text xml:space="preserve" text-anchor="middle" x="408.12" y="-128.55" font-family="Arial Bold" font-size="11.00" fill="white">(1 theme)</text>
</g>
<!-- tokens&#45;&gt;warm_vib -->
<g id="edge4" class="edge">
<title>tokens&#45;&gt;warm_vib</title>
<path fill="none" stroke="#00bcd4" stroke-width="2" d="M597.42,-228.5C520.43,-228.5 408.12,-228.5 408.12,-228.5 408.12,-228.5 408.12,-170.14 408.12,-170.14"/>
<polygon fill="#00bcd4" stroke="#00bcd4" stroke-width="2" points="411.63,-170.14 408.13,-160.14 404.63,-170.14 411.63,-170.14"/>
</g>
<!-- effect_heavy -->
<g id="node6" class="node">
<title>effect_heavy</title>
<path fill="#2196f3" stroke="black" d="M557.5,-157C557.5,-157 498.75,-157 498.75,-157 492.75,-157 486.75,-151 486.75,-145 486.75,-145 486.75,-133 486.75,-133 486.75,-127 492.75,-121 498.75,-121 498.75,-121 557.5,-121 557.5,-121 563.5,-121 569.5,-127 569.5,-133 569.5,-133 569.5,-145 569.5,-145 569.5,-151 563.5,-157 557.5,-157"/>
<text xml:space="preserve" text-anchor="middle" x="528.12" y="-142.05" font-family="Arial Bold" font-size="11.00" fill="white">Effect&#45;Heavy</text>
<text xml:space="preserve" text-anchor="middle" x="528.12" y="-128.55" font-family="Arial Bold" font-size="11.00" fill="white">(5 themes)</text>
</g>
<!-- tokens&#45;&gt;effect_heavy -->
<g id="edge5" class="edge">
<title>tokens&#45;&gt;effect_heavy</title>
<path fill="none" stroke="#00bcd4" stroke-width="2" d="M597.71,-221.5C562.85,-221.5 528.12,-221.5 528.12,-221.5 528.12,-221.5 528.12,-170.34 528.12,-170.34"/>
<polygon fill="#00bcd4" stroke="#00bcd4" stroke-width="2" points="531.63,-170.34 528.13,-160.34 524.63,-170.34 531.63,-170.34"/>
</g>
<!-- v2_light -->
<g id="node7" class="node">
<title>v2_light</title>
<path fill="#2196f3" stroke="black" d="M725.25,-157C725.25,-157 611,-157 611,-157 605,-157 599,-151 599,-145 599,-145 599,-133 599,-133 599,-127 605,-121 611,-121 611,-121 725.25,-121 725.25,-121 731.25,-121 737.25,-127 737.25,-133 737.25,-133 737.25,-145 737.25,-145 737.25,-151 731.25,-157 725.25,-157"/>
<text xml:space="preserve" text-anchor="middle" x="668.12" y="-142.05" font-family="Arial Bold" font-size="11.00" fill="white">v2 Light &amp; Professional</text>
<text xml:space="preserve" text-anchor="middle" x="668.12" y="-128.55" font-family="Arial Bold" font-size="11.00" fill="white">(5 themes)</text>
</g>
<!-- tokens&#45;&gt;v2_light -->
<g id="edge6" class="edge">
<title>tokens&#45;&gt;v2_light</title>
<path fill="none" stroke="#00bcd4" stroke-width="2" d="M668.12,-213.5C668.12,-213.5 668.12,-170.5 668.12,-170.5"/>
<polygon fill="#00bcd4" stroke="#00bcd4" stroke-width="2" points="671.63,-170.5 668.13,-160.5 664.63,-170.5 671.63,-170.5"/>
</g>
<!-- v2_bold -->
<g id="node8" class="node">
<title>v2_bold</title>
<path fill="#2196f3" stroke="black" d="M868.25,-157C868.25,-157 778,-157 778,-157 772,-157 766,-151 766,-145 766,-145 766,-133 766,-133 766,-127 772,-121 778,-121 778,-121 868.25,-121 868.25,-121 874.25,-121 880.25,-127 880.25,-133 880.25,-133 880.25,-145 880.25,-145 880.25,-151 874.25,-157 868.25,-157"/>
<text xml:space="preserve" text-anchor="middle" x="823.12" y="-142.05" font-family="Arial Bold" font-size="11.00" fill="white">v2 Bold &amp; Editorial</text>
<text xml:space="preserve" text-anchor="middle" x="823.12" y="-128.55" font-family="Arial Bold" font-size="11.00" fill="white">(4 themes)</text>
</g>
<!-- tokens&#45;&gt;v2_bold -->
<g id="edge7" class="edge">
<title>tokens&#45;&gt;v2_bold</title>
<path fill="none" stroke="#00bcd4" stroke-width="2" d="M738.82,-224.5C779.7,-224.5 823.12,-224.5 823.12,-224.5 823.12,-224.5 823.12,-170.16 823.12,-170.16"/>
<polygon fill="#00bcd4" stroke="#00bcd4" stroke-width="2" points="826.63,-170.16 823.13,-160.16 819.63,-170.16 826.63,-170.16"/>
</g>
<!-- v2_drama -->
<g id="node9" class="node">
<title>v2_drama</title>
<path fill="#2196f3" stroke="black" d="M995,-157C995,-157 921.25,-157 921.25,-157 915.25,-157 909.25,-151 909.25,-145 909.25,-145 909.25,-133 909.25,-133 909.25,-127 915.25,-121 921.25,-121 921.25,-121 995,-121 995,-121 1001,-121 1007,-127 1007,-133 1007,-133 1007,-145 1007,-145 1007,-151 1001,-157 995,-157"/>
<text xml:space="preserve" text-anchor="middle" x="958.12" y="-142.05" font-family="Arial Bold" font-size="11.00" fill="white">v2 Effect&#45;Heavy</text>
<text xml:space="preserve" text-anchor="middle" x="958.12" y="-128.55" font-family="Arial Bold" font-size="11.00" fill="white">(3 themes)</text>
</g>
<!-- tokens&#45;&gt;v2_drama -->
<g id="edge8" class="edge">
<title>tokens&#45;&gt;v2_drama</title>
<path fill="none" stroke="#00bcd4" stroke-width="2" d="M738.7,-230.5C824.54,-230.5 958.12,-230.5 958.12,-230.5 958.12,-230.5 958.12,-170.1 958.12,-170.1"/>
<polygon fill="#00bcd4" stroke="#00bcd4" stroke-width="2" points="961.63,-170.1 958.13,-160.1 954.63,-170.1 961.63,-170.1"/>
</g>
<!-- openers -->
<g id="node18" class="node">
<title>openers</title>
<path fill="#4caf50" stroke="black" d="M1094.5,-157C1094.5,-157 1047.75,-157 1047.75,-157 1041.75,-157 1035.75,-151 1035.75,-145 1035.75,-145 1035.75,-133 1035.75,-133 1035.75,-127 1041.75,-121 1047.75,-121 1047.75,-121 1094.5,-121 1094.5,-121 1100.5,-121 1106.5,-127 1106.5,-133 1106.5,-133 1106.5,-145 1106.5,-145 1106.5,-151 1100.5,-157 1094.5,-157"/>
<text xml:space="preserve" text-anchor="middle" x="1071.12" y="-142.05" font-family="Arial Bold" font-size="11.00" fill="white">Openers</text>
<text xml:space="preserve" text-anchor="middle" x="1071.12" y="-128.55" font-family="Arial Bold" font-size="11.00" fill="white">(3 layouts)</text>
</g>
<!-- tokens&#45;&gt;openers -->
<g id="edge25" class="edge">
<title>tokens&#45;&gt;openers</title>
<path fill="none" stroke="#00bcd4" stroke-width="1.5" stroke-dasharray="5,2" d="M738.78,-236.5C854.36,-236.5 1071.12,-236.5 1071.12,-236.5 1071.12,-236.5 1071.12,-169.61 1071.12,-169.61"/>
<polygon fill="#00bcd4" stroke="#00bcd4" stroke-width="1.5" points="1074.63,-169.61 1071.13,-159.61 1067.63,-169.61 1074.63,-169.61"/>
<text xml:space="preserve" text-anchor="middle" x="902.02" y="-239.7" font-family="Times New Roman,serif" font-size="14.00">theme tokens</text>
</g>
<!-- text_cen -->
<g id="node19" class="node">
<title>text_cen</title>
<path fill="#4caf50" stroke="black" d="M1203,-157C1203,-157 1147.25,-157 1147.25,-157 1141.25,-157 1135.25,-151 1135.25,-145 1135.25,-145 1135.25,-133 1135.25,-133 1135.25,-127 1141.25,-121 1147.25,-121 1147.25,-121 1203,-121 1203,-121 1209,-121 1215,-127 1215,-133 1215,-133 1215,-145 1215,-145 1215,-151 1209,-157 1203,-157"/>
<text xml:space="preserve" text-anchor="middle" x="1175.12" y="-142.05" font-family="Arial Bold" font-size="11.00" fill="white">Text&#45;Centric</text>
<text xml:space="preserve" text-anchor="middle" x="1175.12" y="-128.55" font-family="Arial Bold" font-size="11.00" fill="white">(4 layouts)</text>
</g>
<!-- tokens&#45;&gt;text_cen -->
<g id="edge26" class="edge">
<title>tokens&#45;&gt;text_cen</title>
<path fill="none" stroke="#00bcd4" stroke-width="1.5" stroke-dasharray="5,2" d="M738.62,-242.5C877.93,-242.5 1175.12,-242.5 1175.12,-242.5 1175.12,-242.5 1175.12,-169.3 1175.12,-169.3"/>
<polygon fill="#00bcd4" stroke="#00bcd4" stroke-width="1.5" points="1178.63,-169.3 1175.13,-159.3 1171.63,-169.3 1178.63,-169.3"/>
</g>
<!-- numbers -->
<g id="node20" class="node">
<title>numbers</title>
<path fill="#4caf50" stroke="black" d="M1334.25,-157C1334.25,-157 1256,-157 1256,-157 1250,-157 1244,-151 1244,-145 1244,-145 1244,-133 1244,-133 1244,-127 1250,-121 1256,-121 1256,-121 1334.25,-121 1334.25,-121 1340.25,-121 1346.25,-127 1346.25,-133 1346.25,-133 1346.25,-145 1346.25,-145 1346.25,-151 1340.25,-157 1334.25,-157"/>
<text xml:space="preserve" text-anchor="middle" x="1295.12" y="-142.05" font-family="Arial Bold" font-size="11.00" fill="white">Numbers &amp; Data</text>
<text xml:space="preserve" text-anchor="middle" x="1295.12" y="-128.55" font-family="Arial Bold" font-size="11.00" fill="white">(7 layouts)</text>
</g>
<!-- tokens&#45;&gt;numbers -->
<g id="edge27" class="edge">
<title>tokens&#45;&gt;numbers</title>
<path fill="none" stroke="#00bcd4" stroke-width="1.5" stroke-dasharray="5,2" d="M738.83,-248.5C902.81,-248.5 1295.12,-248.5 1295.12,-248.5 1295.12,-248.5 1295.12,-169.35 1295.12,-169.35"/>
<polygon fill="#00bcd4" stroke="#00bcd4" stroke-width="1.5" points="1298.63,-169.35 1295.13,-159.35 1291.63,-169.35 1298.63,-169.35"/>
</g>
<!-- t1 -->
<g id="node10" class="node">
<title>t1</title>
<path fill="#ff9800" stroke="black" d="M66.62,-64C66.62,-64 17.62,-64 17.62,-64 11.62,-64 5.62,-58 5.62,-52 5.62,-52 5.62,-36.5 5.62,-36.5 5.62,-30.5 11.62,-24.5 17.62,-24.5 17.62,-24.5 66.62,-24.5 66.62,-24.5 72.62,-24.5 78.62,-30.5 78.62,-36.5 78.62,-36.5 78.62,-52 78.62,-52 78.62,-58 72.62,-64 66.62,-64"/>
<text xml:space="preserve" text-anchor="middle" x="42.12" y="-51.45" font-family="Arial" font-size="9.00" fill="white">minimal&#45;white</text>
<text xml:space="preserve" text-anchor="middle" x="42.12" y="-40.95" font-family="Arial" font-size="9.00" fill="white">editorial&#45;serif</text>
<text xml:space="preserve" text-anchor="middle" x="42.12" y="-30.45" font-family="Arial" font-size="9.00" fill="white">soft&#45;pastel</text>
</g>
<!-- light_calm&#45;&gt;t1 -->
<g id="edge9" class="edge">
<title>light_calm&#45;&gt;t1</title>
<path fill="none" stroke="#ff9800" stroke-width="1.5" d="M42.12,-120.73C42.12,-120.73 42.12,-76.7 42.12,-76.7"/>
<polygon fill="#ff9800" stroke="#ff9800" stroke-width="1.5" points="45.63,-76.7 42.13,-66.7 38.63,-76.7 45.63,-76.7"/>
</g>
<!-- t2 -->
<g id="node11" class="node">
<title>t2</title>
<path fill="#ff9800" stroke="black" d="M191.25,-64C191.25,-64 143,-64 143,-64 137,-64 131,-58 131,-52 131,-52 131,-36.5 131,-36.5 131,-30.5 137,-24.5 143,-24.5 143,-24.5 191.25,-24.5 191.25,-24.5 197.25,-24.5 203.25,-30.5 203.25,-36.5 203.25,-36.5 203.25,-52 203.25,-52 203.25,-58 197.25,-64 191.25,-64"/>
<text xml:space="preserve" text-anchor="middle" x="167.12" y="-51.45" font-family="Arial" font-size="9.00" fill="white">sharp&#45;mono</text>
<text xml:space="preserve" text-anchor="middle" x="167.12" y="-40.95" font-family="Arial" font-size="9.00" fill="white">neo&#45;brutalism</text>
<text xml:space="preserve" text-anchor="middle" x="167.12" y="-30.45" font-family="Arial" font-size="9.00" fill="white">bauhaus</text>
</g>
<!-- bold_state&#45;&gt;t2 -->
<g id="edge10" class="edge">
<title>bold_state&#45;&gt;t2</title>
<path fill="none" stroke="#ff9800" stroke-width="1.5" d="M167.12,-120.73C167.12,-120.73 167.12,-76.7 167.12,-76.7"/>
<polygon fill="#ff9800" stroke="#ff9800" stroke-width="1.5" points="170.63,-76.7 167.13,-66.7 163.63,-76.7 170.63,-76.7"/>
</g>
<!-- t3 -->
<g id="node12" class="node">
<title>t3</title>
<path fill="#ff9800" stroke="black" d="M308.62,-64C308.62,-64 271.62,-64 271.62,-64 265.62,-64 259.62,-58 259.62,-52 259.62,-52 259.62,-36.5 259.62,-36.5 259.62,-30.5 265.62,-24.5 271.62,-24.5 271.62,-24.5 308.62,-24.5 308.62,-24.5 314.62,-24.5 320.62,-30.5 320.62,-36.5 320.62,-36.5 320.62,-52 320.62,-52 320.62,-58 314.62,-64 308.62,-64"/>
<text xml:space="preserve" text-anchor="middle" x="290.12" y="-51.45" font-family="Arial" font-size="9.00" fill="white">tokyo&#45;night</text>
<text xml:space="preserve" text-anchor="middle" x="290.12" y="-40.95" font-family="Arial" font-size="9.00" fill="white">dracula</text>
<text xml:space="preserve" text-anchor="middle" x="290.12" y="-30.45" font-family="Arial" font-size="9.00" fill="white">nord</text>
</g>
<!-- cool_dark&#45;&gt;t3 -->
<g id="edge11" class="edge">
<title>cool_dark&#45;&gt;t3</title>
<path fill="none" stroke="#ff9800" stroke-width="1.5" d="M290.12,-120.73C290.12,-120.73 290.12,-76.7 290.12,-76.7"/>
<polygon fill="#ff9800" stroke="#ff9800" stroke-width="1.5" points="293.63,-76.7 290.13,-66.7 286.63,-76.7 293.63,-76.7"/>
</g>
<!-- t4 -->
<g id="node13" class="node">
<title>t4</title>
<path fill="#ff9800" stroke="black" d="M430.38,-62.25C430.38,-62.25 385.88,-62.25 385.88,-62.25 379.88,-62.25 373.88,-56.25 373.88,-50.25 373.88,-50.25 373.88,-38.25 373.88,-38.25 373.88,-32.25 379.88,-26.25 385.88,-26.25 385.88,-26.25 430.38,-26.25 430.38,-26.25 436.38,-26.25 442.38,-32.25 442.38,-38.25 442.38,-38.25 442.38,-50.25 442.38,-50.25 442.38,-56.25 436.38,-62.25 430.38,-62.25"/>
<text xml:space="preserve" text-anchor="middle" x="408.12" y="-40.95" font-family="Arial" font-size="9.00" fill="white">sunset&#45;warm</text>
</g>
<!-- warm_vib&#45;&gt;t4 -->
<g id="edge12" class="edge">
<title>warm_vib&#45;&gt;t4</title>
<path fill="none" stroke="#ff9800" stroke-width="1.5" d="M408.12,-120.73C408.12,-120.73 408.12,-74.73 408.12,-74.73"/>
<polygon fill="#ff9800" stroke="#ff9800" stroke-width="1.5" points="411.63,-74.73 408.13,-64.73 404.63,-74.73 411.63,-74.73"/>
</g>
<!-- t5 -->
<g id="node14" class="node">
<title>t5</title>
<path fill="#ff9800" stroke="black" d="M555.25,-64C555.25,-64 501,-64 501,-64 495,-64 489,-58 489,-52 489,-52 489,-36.5 489,-36.5 489,-30.5 495,-24.5 501,-24.5 501,-24.5 555.25,-24.5 555.25,-24.5 561.25,-24.5 567.25,-30.5 567.25,-36.5 567.25,-36.5 567.25,-52 567.25,-52 567.25,-58 561.25,-64 555.25,-64"/>
<text xml:space="preserve" text-anchor="middle" x="528.12" y="-51.45" font-family="Arial" font-size="9.00" fill="white">glassmorphism</text>
<text xml:space="preserve" text-anchor="middle" x="528.12" y="-40.95" font-family="Arial" font-size="9.00" fill="white">aurora</text>
<text xml:space="preserve" text-anchor="middle" x="528.12" y="-30.45" font-family="Arial" font-size="9.00" fill="white">blueprint</text>
</g>
<!-- effect_heavy&#45;&gt;t5 -->
<g id="edge13" class="edge">
<title>effect_heavy&#45;&gt;t5</title>
<path fill="none" stroke="#ff9800" stroke-width="1.5" d="M528.12,-120.73C528.12,-120.73 528.12,-76.7 528.12,-76.7"/>
<polygon fill="#ff9800" stroke="#ff9800" stroke-width="1.5" points="531.63,-76.7 528.13,-66.7 524.63,-76.7 531.63,-76.7"/>
</g>
<!-- t6 -->
<g id="node15" class="node">
<title>t6</title>
<path fill="#ff9800" stroke="black" d="M697.5,-64C697.5,-64 638.75,-64 638.75,-64 632.75,-64 626.75,-58 626.75,-52 626.75,-52 626.75,-36.5 626.75,-36.5 626.75,-30.5 632.75,-24.5 638.75,-24.5 638.75,-24.5 697.5,-24.5 697.5,-24.5 703.5,-24.5 709.5,-30.5 709.5,-36.5 709.5,-36.5 709.5,-52 709.5,-52 709.5,-58 703.5,-64 697.5,-64"/>
<text xml:space="preserve" text-anchor="middle" x="668.12" y="-51.45" font-family="Arial" font-size="9.00" fill="white">pitch&#45;deck&#45;vc</text>
<text xml:space="preserve" text-anchor="middle" x="668.12" y="-40.95" font-family="Arial" font-size="9.00" fill="white">corporate&#45;clean</text>
<text xml:space="preserve" text-anchor="middle" x="668.12" y="-30.45" font-family="Arial" font-size="9.00" fill="white">academic&#45;paper</text>
</g>
<!-- v2_light&#45;&gt;t6 -->
<g id="edge14" class="edge">
<title>v2_light&#45;&gt;t6</title>
<path fill="none" stroke="#ff9800" stroke-width="1.5" d="M668.12,-120.73C668.12,-120.73 668.12,-76.7 668.12,-76.7"/>
<polygon fill="#ff9800" stroke="#ff9800" stroke-width="1.5" points="671.63,-76.7 668.13,-66.7 664.63,-76.7 671.63,-76.7"/>
</g>
<!-- t7 -->
<g id="node16" class="node">
<title>t7</title>
<path fill="#ff9800" stroke="black" d="M851.75,-64C851.75,-64 794.5,-64 794.5,-64 788.5,-64 782.5,-58 782.5,-52 782.5,-52 782.5,-36.5 782.5,-36.5 782.5,-30.5 788.5,-24.5 794.5,-24.5 794.5,-24.5 851.75,-24.5 851.75,-24.5 857.75,-24.5 863.75,-30.5 863.75,-36.5 863.75,-36.5 863.75,-52 863.75,-52 863.75,-58 857.75,-64 851.75,-64"/>
<text xml:space="preserve" text-anchor="middle" x="823.12" y="-51.45" font-family="Arial" font-size="9.00" fill="white">magazine&#45;bold</text>
<text xml:space="preserve" text-anchor="middle" x="823.12" y="-40.95" font-family="Arial" font-size="9.00" fill="white">news&#45;broadcast</text>
<text xml:space="preserve" text-anchor="middle" x="823.12" y="-30.45" font-family="Arial" font-size="9.00" fill="white">midcentury</text>
</g>
<!-- v2_bold&#45;&gt;t7 -->
<g id="edge15" class="edge">
<title>v2_bold&#45;&gt;t7</title>
<path fill="none" stroke="#ff9800" stroke-width="1.5" d="M823.12,-120.73C823.12,-120.73 823.12,-76.7 823.12,-76.7"/>
<polygon fill="#ff9800" stroke="#ff9800" stroke-width="1.5" points="826.63,-76.7 823.13,-66.7 819.63,-76.7 826.63,-76.7"/>
</g>
<!-- t8 -->
<g id="node17" class="node">
<title>t8</title>
<path fill="#ff9800" stroke="black" d="M987.5,-64C987.5,-64 928.75,-64 928.75,-64 922.75,-64 916.75,-58 916.75,-52 916.75,-52 916.75,-36.5 916.75,-36.5 916.75,-30.5 922.75,-24.5 928.75,-24.5 928.75,-24.5 987.5,-24.5 987.5,-24.5 993.5,-24.5 999.5,-30.5 999.5,-36.5 999.5,-36.5 999.5,-52 999.5,-52 999.5,-58 993.5,-64 987.5,-64"/>
<text xml:space="preserve" text-anchor="middle" x="958.12" y="-51.45" font-family="Arial" font-size="9.00" fill="white">cyberpunk&#45;neon</text>
<text xml:space="preserve" text-anchor="middle" x="958.12" y="-40.95" font-family="Arial" font-size="9.00" fill="white">vaporwave</text>
<text xml:space="preserve" text-anchor="middle" x="958.12" y="-30.45" font-family="Arial" font-size="9.00" fill="white">y2k&#45;chrome</text>
</g>
<!-- v2_drama&#45;&gt;t8 -->
<g id="edge16" class="edge">
<title>v2_drama&#45;&gt;t8</title>
<path fill="none" stroke="#ff9800" stroke-width="1.5" d="M958.12,-120.73C958.12,-120.73 958.12,-76.7 958.12,-76.7"/>
<polygon fill="#ff9800" stroke="#ff9800" stroke-width="1.5" points="961.63,-76.7 958.13,-66.7 954.63,-76.7 961.63,-76.7"/>
</g>
<!-- l1 -->
<g id="node26" class="node">
<title>l1</title>
<path fill="#9c27b0" stroke="black" d="M1097.12,-64C1097.12,-64 1045.12,-64 1045.12,-64 1039.12,-64 1033.12,-58 1033.12,-52 1033.12,-52 1033.12,-36.5 1033.12,-36.5 1033.12,-30.5 1039.12,-24.5 1045.12,-24.5 1045.12,-24.5 1097.12,-24.5 1097.12,-24.5 1103.12,-24.5 1109.12,-30.5 1109.12,-36.5 1109.12,-36.5 1109.12,-52 1109.12,-52 1109.12,-58 1103.12,-64 1097.12,-64"/>
<text xml:space="preserve" text-anchor="middle" x="1071.12" y="-51.45" font-family="Arial" font-size="9.00" fill="white">cover</text>
<text xml:space="preserve" text-anchor="middle" x="1071.12" y="-40.95" font-family="Arial" font-size="9.00" fill="white">toc</text>
<text xml:space="preserve" text-anchor="middle" x="1071.12" y="-30.45" font-family="Arial" font-size="9.00" fill="white">section&#45;divider</text>
</g>
<!-- openers&#45;&gt;l1 -->
<g id="edge17" class="edge">
<title>openers&#45;&gt;l1</title>
<path fill="none" stroke="#9c27b0" stroke-width="1.5" d="M1071.12,-120.73C1071.12,-120.73 1071.12,-76.7 1071.12,-76.7"/>
<polygon fill="#9c27b0" stroke="#9c27b0" stroke-width="1.5" points="1074.63,-76.7 1071.13,-66.7 1067.63,-76.7 1074.63,-76.7"/>
</g>
<!-- l2 -->
<g id="node27" class="node">
<title>l2</title>
<path fill="#9c27b0" stroke="black" d="M1194.75,-64C1194.75,-64 1155.5,-64 1155.5,-64 1149.5,-64 1143.5,-58 1143.5,-52 1143.5,-52 1143.5,-36.5 1143.5,-36.5 1143.5,-30.5 1149.5,-24.5 1155.5,-24.5 1155.5,-24.5 1194.75,-24.5 1194.75,-24.5 1200.75,-24.5 1206.75,-30.5 1206.75,-36.5 1206.75,-36.5 1206.75,-52 1206.75,-52 1206.75,-58 1200.75,-64 1194.75,-64"/>
<text xml:space="preserve" text-anchor="middle" x="1175.12" y="-51.45" font-family="Arial" font-size="9.00" fill="white">bullets</text>
<text xml:space="preserve" text-anchor="middle" x="1175.12" y="-40.95" font-family="Arial" font-size="9.00" fill="white">two&#45;column</text>
<text xml:space="preserve" text-anchor="middle" x="1175.12" y="-30.45" font-family="Arial" font-size="9.00" fill="white">big&#45;quote</text>
</g>
<!-- text_cen&#45;&gt;l2 -->
<g id="edge18" class="edge">
<title>text_cen&#45;&gt;l2</title>
<path fill="none" stroke="#9c27b0" stroke-width="1.5" d="M1175.12,-120.73C1175.12,-120.73 1175.12,-76.7 1175.12,-76.7"/>
<polygon fill="#9c27b0" stroke="#9c27b0" stroke-width="1.5" points="1178.63,-76.7 1175.13,-66.7 1171.63,-76.7 1178.63,-76.7"/>
</g>
<!-- l3 -->
<g id="node28" class="node">
<title>l3</title>
<path fill="#9c27b0" stroke="black" d="M1325.62,-64C1325.62,-64 1264.62,-64 1264.62,-64 1258.62,-64 1252.62,-58 1252.62,-52 1252.62,-52 1252.62,-36.5 1252.62,-36.5 1252.62,-30.5 1258.62,-24.5 1264.62,-24.5 1264.62,-24.5 1325.62,-24.5 1325.62,-24.5 1331.62,-24.5 1337.62,-30.5 1337.62,-36.5 1337.62,-36.5 1337.62,-52 1337.62,-52 1337.62,-58 1331.62,-64 1325.62,-64"/>
<text xml:space="preserve" text-anchor="middle" x="1295.12" y="-51.45" font-family="Arial" font-size="9.00" fill="white">stat&#45;highlight</text>
<text xml:space="preserve" text-anchor="middle" x="1295.12" y="-40.95" font-family="Arial" font-size="9.00" fill="white">kpi&#45;grid</text>
<text xml:space="preserve" text-anchor="middle" x="1295.12" y="-30.45" font-family="Arial" font-size="9.00" fill="white">chart&#45;bar/line/pie</text>
</g>
<!-- numbers&#45;&gt;l3 -->
<g id="edge19" class="edge">
<title>numbers&#45;&gt;l3</title>
<path fill="none" stroke="#9c27b0" stroke-width="1.5" d="M1295.12,-120.73C1295.12,-120.73 1295.12,-76.7 1295.12,-76.7"/>
<polygon fill="#9c27b0" stroke="#9c27b0" stroke-width="1.5" points="1298.63,-76.7 1295.13,-66.7 1291.63,-76.7 1298.63,-76.7"/>
</g>
<!-- code_term -->
<g id="node21" class="node">
<title>code_term</title>
<path fill="#4caf50" stroke="black" d="M1441.62,-254C1441.62,-254 1362.62,-254 1362.62,-254 1356.62,-254 1350.62,-248 1350.62,-242 1350.62,-242 1350.62,-230 1350.62,-230 1350.62,-224 1356.62,-218 1362.62,-218 1362.62,-218 1441.62,-218 1441.62,-218 1447.62,-218 1453.62,-224 1453.62,-230 1453.62,-230 1453.62,-242 1453.62,-242 1453.62,-248 1447.62,-254 1441.62,-254"/>
<text xml:space="preserve" text-anchor="middle" x="1402.12" y="-239.05" font-family="Arial Bold" font-size="11.00" fill="white">Code &amp; Terminal</text>
<text xml:space="preserve" text-anchor="middle" x="1402.12" y="-225.55" font-family="Arial Bold" font-size="11.00" fill="white">(3 layouts)</text>
</g>
<!-- l4 -->
<g id="node29" class="node">
<title>l4</title>
<path fill="#9c27b0" stroke="black" d="M1417.12,-158.75C1417.12,-158.75 1387.12,-158.75 1387.12,-158.75 1381.12,-158.75 1375.12,-152.75 1375.12,-146.75 1375.12,-146.75 1375.12,-131.25 1375.12,-131.25 1375.12,-125.25 1381.12,-119.25 1387.12,-119.25 1387.12,-119.25 1417.12,-119.25 1417.12,-119.25 1423.12,-119.25 1429.12,-125.25 1429.12,-131.25 1429.12,-131.25 1429.12,-146.75 1429.12,-146.75 1429.12,-152.75 1423.12,-158.75 1417.12,-158.75"/>
<text xml:space="preserve" text-anchor="middle" x="1402.12" y="-146.2" font-family="Arial" font-size="9.00" fill="white">code</text>
<text xml:space="preserve" text-anchor="middle" x="1402.12" y="-135.7" font-family="Arial" font-size="9.00" fill="white">diff</text>
<text xml:space="preserve" text-anchor="middle" x="1402.12" y="-125.2" font-family="Arial" font-size="9.00" fill="white">terminal</text>
</g>
<!-- code_term&#45;&gt;l4 -->
<g id="edge20" class="edge">
<title>code_term&#45;&gt;l4</title>
<path fill="none" stroke="#9c27b0" stroke-width="1.5" d="M1402.12,-217.76C1402.12,-217.76 1402.12,-171.44 1402.12,-171.44"/>
<polygon fill="#9c27b0" stroke="#9c27b0" stroke-width="1.5" points="1405.63,-171.44 1402.13,-161.44 1398.63,-171.44 1405.63,-171.44"/>
</g>
<!-- diagrams_flows -->
<g id="node22" class="node">
<title>diagrams_flows</title>
<path fill="#4caf50" stroke="black" d="M1581.75,-254C1581.75,-254 1494.5,-254 1494.5,-254 1488.5,-254 1482.5,-248 1482.5,-242 1482.5,-242 1482.5,-230 1482.5,-230 1482.5,-224 1488.5,-218 1494.5,-218 1494.5,-218 1581.75,-218 1581.75,-218 1587.75,-218 1593.75,-224 1593.75,-230 1593.75,-230 1593.75,-242 1593.75,-242 1593.75,-248 1587.75,-254 1581.75,-254"/>
<text xml:space="preserve" text-anchor="middle" x="1538.12" y="-239.05" font-family="Arial Bold" font-size="11.00" fill="white">Diagrams &amp; Flows</text>
<text xml:space="preserve" text-anchor="middle" x="1538.12" y="-225.55" font-family="Arial Bold" font-size="11.00" fill="white">(4 layouts)</text>
</g>
<!-- l5 -->
<g id="node30" class="node">
<title>l5</title>
<path fill="#9c27b0" stroke="black" d="M1561.5,-158.75C1561.5,-158.75 1514.75,-158.75 1514.75,-158.75 1508.75,-158.75 1502.75,-152.75 1502.75,-146.75 1502.75,-146.75 1502.75,-131.25 1502.75,-131.25 1502.75,-125.25 1508.75,-119.25 1514.75,-119.25 1514.75,-119.25 1561.5,-119.25 1561.5,-119.25 1567.5,-119.25 1573.5,-125.25 1573.5,-131.25 1573.5,-131.25 1573.5,-146.75 1573.5,-146.75 1573.5,-152.75 1567.5,-158.75 1561.5,-158.75"/>
<text xml:space="preserve" text-anchor="middle" x="1538.12" y="-146.2" font-family="Arial" font-size="9.00" fill="white">flow&#45;diagram</text>
<text xml:space="preserve" text-anchor="middle" x="1538.12" y="-135.7" font-family="Arial" font-size="9.00" fill="white">arch&#45;diagram</text>
<text xml:space="preserve" text-anchor="middle" x="1538.12" y="-125.2" font-family="Arial" font-size="9.00" fill="white">mindmap</text>
</g>
<!-- diagrams_flows&#45;&gt;l5 -->
<g id="edge21" class="edge">
<title>diagrams_flows&#45;&gt;l5</title>
<path fill="none" stroke="#9c27b0" stroke-width="1.5" d="M1538.12,-217.76C1538.12,-217.76 1538.12,-171.44 1538.12,-171.44"/>
<polygon fill="#9c27b0" stroke="#9c27b0" stroke-width="1.5" points="1541.63,-171.44 1538.13,-161.44 1534.63,-171.44 1541.63,-171.44"/>
</g>
<!-- plans -->
<g id="node23" class="node">
<title>plans</title>
<path fill="#4caf50" stroke="black" d="M1741.12,-254C1741.12,-254 1635.12,-254 1635.12,-254 1629.12,-254 1623.12,-248 1623.12,-242 1623.12,-242 1623.12,-230 1623.12,-230 1623.12,-224 1629.12,-218 1635.12,-218 1635.12,-218 1741.12,-218 1741.12,-218 1747.12,-218 1753.12,-224 1753.12,-230 1753.12,-230 1753.12,-242 1753.12,-242 1753.12,-248 1747.12,-254 1741.12,-254"/>
<text xml:space="preserve" text-anchor="middle" x="1688.12" y="-239.05" font-family="Arial Bold" font-size="11.00" fill="white">Plans &amp; Comparisons</text>
<text xml:space="preserve" text-anchor="middle" x="1688.12" y="-225.55" font-family="Arial Bold" font-size="11.00" fill="white">(6 layouts)</text>
</g>
<!-- l6 -->
<g id="node31" class="node">
<title>l6</title>
<path fill="#9c27b0" stroke="black" d="M1708.12,-164C1708.12,-164 1668.12,-164 1668.12,-164 1662.12,-164 1656.12,-158 1656.12,-152 1656.12,-152 1656.12,-126 1656.12,-126 1656.12,-120 1662.12,-114 1668.12,-114 1668.12,-114 1708.12,-114 1708.12,-114 1714.12,-114 1720.12,-120 1720.12,-126 1720.12,-126 1720.12,-152 1720.12,-152 1720.12,-158 1714.12,-164 1708.12,-164"/>
<text xml:space="preserve" text-anchor="middle" x="1688.12" y="-151.45" font-family="Arial" font-size="9.00" fill="white">timeline</text>
<text xml:space="preserve" text-anchor="middle" x="1688.12" y="-140.95" font-family="Arial" font-size="9.00" fill="white">roadmap</text>
<text xml:space="preserve" text-anchor="middle" x="1688.12" y="-130.45" font-family="Arial" font-size="9.00" fill="white">gantt</text>
<text xml:space="preserve" text-anchor="middle" x="1688.12" y="-119.95" font-family="Arial" font-size="9.00" fill="white">comparison</text>
</g>
<!-- plans&#45;&gt;l6 -->
<g id="edge22" class="edge">
<title>plans&#45;&gt;l6</title>
<path fill="none" stroke="#9c27b0" stroke-width="1.5" d="M1688.12,-217.76C1688.12,-217.76 1688.12,-176.75 1688.12,-176.75"/>
<polygon fill="#9c27b0" stroke="#9c27b0" stroke-width="1.5" points="1691.63,-176.75 1688.13,-166.75 1684.63,-176.75 1691.63,-176.75"/>
</g>
<!-- visuals -->
<g id="node24" class="node">
<title>visuals</title>
<path fill="#4caf50" stroke="black" d="M1840.5,-254C1840.5,-254 1793.75,-254 1793.75,-254 1787.75,-254 1781.75,-248 1781.75,-242 1781.75,-242 1781.75,-230 1781.75,-230 1781.75,-224 1787.75,-218 1793.75,-218 1793.75,-218 1840.5,-218 1840.5,-218 1846.5,-218 1852.5,-224 1852.5,-230 1852.5,-230 1852.5,-242 1852.5,-242 1852.5,-248 1846.5,-254 1840.5,-254"/>
<text xml:space="preserve" text-anchor="middle" x="1817.12" y="-239.05" font-family="Arial Bold" font-size="11.00" fill="white">Visuals</text>
<text xml:space="preserve" text-anchor="middle" x="1817.12" y="-225.55" font-family="Arial Bold" font-size="11.00" fill="white">(2 layouts)</text>
</g>
<!-- l7 -->
<g id="node32" class="node">
<title>l7</title>
<path fill="#9c27b0" stroke="black" d="M1836.75,-157C1836.75,-157 1797.5,-157 1797.5,-157 1791.5,-157 1785.5,-151 1785.5,-145 1785.5,-145 1785.5,-133 1785.5,-133 1785.5,-127 1791.5,-121 1797.5,-121 1797.5,-121 1836.75,-121 1836.75,-121 1842.75,-121 1848.75,-127 1848.75,-133 1848.75,-133 1848.75,-145 1848.75,-145 1848.75,-151 1842.75,-157 1836.75,-157"/>
<text xml:space="preserve" text-anchor="middle" x="1817.12" y="-140.95" font-family="Arial" font-size="9.00" fill="white">image&#45;hero</text>
<text xml:space="preserve" text-anchor="middle" x="1817.12" y="-130.45" font-family="Arial" font-size="9.00" fill="white">image&#45;grid</text>
</g>
<!-- visuals&#45;&gt;l7 -->
<g id="edge23" class="edge">
<title>visuals&#45;&gt;l7</title>
<path fill="none" stroke="#9c27b0" stroke-width="1.5" d="M1817.12,-217.76C1817.12,-217.76 1817.12,-169.76 1817.12,-169.76"/>
<polygon fill="#9c27b0" stroke="#9c27b0" stroke-width="1.5" points="1820.63,-169.76 1817.13,-159.76 1813.63,-169.76 1820.63,-169.76"/>
</g>
<!-- closers -->
<g id="node25" class="node">
<title>closers</title>
<path fill="#4caf50" stroke="black" d="M1940.5,-254C1940.5,-254 1893.75,-254 1893.75,-254 1887.75,-254 1881.75,-248 1881.75,-242 1881.75,-242 1881.75,-230 1881.75,-230 1881.75,-224 1887.75,-218 1893.75,-218 1893.75,-218 1940.5,-218 1940.5,-218 1946.5,-218 1952.5,-224 1952.5,-230 1952.5,-230 1952.5,-242 1952.5,-242 1952.5,-248 1946.5,-254 1940.5,-254"/>
<text xml:space="preserve" text-anchor="middle" x="1917.12" y="-239.05" font-family="Arial Bold" font-size="11.00" fill="white">Closers</text>
<text xml:space="preserve" text-anchor="middle" x="1917.12" y="-225.55" font-family="Arial Bold" font-size="11.00" fill="white">(2 layouts)</text>
</g>
<!-- l8 -->
<g id="node33" class="node">
<title>l8</title>
<path fill="#9c27b0" stroke="black" d="M1932.12,-157C1932.12,-157 1902.12,-157 1902.12,-157 1896.12,-157 1890.12,-151 1890.12,-145 1890.12,-145 1890.12,-133 1890.12,-133 1890.12,-127 1896.12,-121 1902.12,-121 1902.12,-121 1932.12,-121 1932.12,-121 1938.12,-121 1944.12,-127 1944.12,-133 1944.12,-133 1944.12,-145 1944.12,-145 1944.12,-151 1938.12,-157 1932.12,-157"/>
<text xml:space="preserve" text-anchor="middle" x="1917.12" y="-140.95" font-family="Arial" font-size="9.00" fill="white">cta</text>
<text xml:space="preserve" text-anchor="middle" x="1917.12" y="-130.45" font-family="Arial" font-size="9.00" fill="white">thanks</text>
</g>
<!-- closers&#45;&gt;l8 -->
<g id="edge24" class="edge">
<title>closers&#45;&gt;l8</title>
<path fill="none" stroke="#9c27b0" stroke-width="1.5" d="M1917.12,-217.76C1917.12,-217.76 1917.12,-169.76 1917.12,-169.76"/>
<polygon fill="#9c27b0" stroke="#9c27b0" stroke-width="1.5" points="1920.63,-169.76 1917.13,-159.76 1913.63,-169.76 1920.63,-169.76"/>
</g>
</g>
</svg>
