<?xml version="1.0" encoding="UTF-8" standalone="no"?>
<!DOCTYPE svg PUBLIC "-//W3C//DTD SVG 1.1//EN"
 "http://www.w3.org/Graphics/SVG/1.1/DTD/svg11.dtd">
<!-- Generated by graphviz version 14.1.3 (0)
 -->
<!-- Title: cubesandbox_architecture Pages: 1 -->
<svg width="414pt" height="697pt"
 viewBox="0.00 0.00 414.00 697.00" xmlns="http://www.w3.org/2000/svg" xmlns:xlink="http://www.w3.org/1999/xlink">
<style>
<!-- White text halo for edge label readability -->
text { paint-order: stroke; stroke: #ffffff; stroke-width: 3px; stroke-linejoin: round; fill: #1a1a2e; }
</style>
<g id="graph0" class="graph" transform="scale(1 1) rotate(0) translate(4 693.46)">
<title>cubesandbox_architecture</title>
<polygon fill="white" stroke="none" points="-4,4 -4,-693.46 410.07,-693.46 410.07,4 -4,4"/>
<text xml:space="preserve" text-anchor="middle" x="203.04" y="-7.2" font-family="Times New Roman,serif" font-size="14.00">CubeSandbox &#45; Architecture Overview</text>
<!-- ai_agent -->
<g id="node1" class="node">
<title>ai_agent</title>
<path fill="#2196f3" stroke="black" d="M297.62,-689.46C297.62,-689.46 256.12,-689.46 256.12,-689.46 250.12,-689.46 244.12,-683.46 244.12,-677.46 244.12,-677.46 244.12,-665.46 244.12,-665.46 244.12,-659.46 250.12,-653.46 256.12,-653.46 256.12,-653.46 297.62,-653.46 297.62,-653.46 303.62,-653.46 309.62,-659.46 309.62,-665.46 309.62,-665.46 309.62,-677.46 309.62,-677.46 309.62,-683.46 303.62,-689.46 297.62,-689.46"/>
<text xml:space="preserve" text-anchor="middle" x="276.87" y="-667.19" font-family="Arial Bold" font-size="12.00" fill="white">AI Agent</text>
</g>
<!-- cube_api -->
<g id="node2" class="node">
<title>cube_api</title>
<path fill="#4caf50" stroke="black" d="M315.25,-595.46C315.25,-595.46 238.5,-595.46 238.5,-595.46 232.5,-595.46 226.5,-589.46 226.5,-583.46 226.5,-583.46 226.5,-570.96 226.5,-570.96 226.5,-564.96 232.5,-558.96 238.5,-558.96 238.5,-558.96 315.25,-558.96 315.25,-558.96 321.25,-558.96 327.25,-564.96 327.25,-570.96 327.25,-570.96 327.25,-583.46 327.25,-583.46 327.25,-589.46 321.25,-595.46 315.25,-595.46"/>
<text xml:space="preserve" text-anchor="middle" x="276.87" y="-580.06" font-family="Arial Bold" font-size="12.00" fill="white">CubeAPI</text>
<text xml:space="preserve" text-anchor="middle" x="276.87" y="-565.81" font-family="Arial Bold" font-size="12.00" fill="white">REST Gateway</text>
</g>
<!-- ai_agent&#45;&gt;cube_api -->
<g id="edge1" class="edge">
<title>ai_agent&#45;&gt;cube_api</title>
<path fill="none" stroke="#2196f3" stroke-width="2" d="M276.87,-653.29C276.87,-653.29 276.87,-608.68 276.87,-608.68"/>
<polygon fill="#2196f3" stroke="#2196f3" stroke-width="2" points="280.37,-608.68 276.87,-598.68 273.37,-608.68 280.37,-608.68"/>
<text xml:space="preserve" text-anchor="middle" x="242.37" y="-634.19" font-family="Times New Roman,serif" font-size="14.00">API Request</text>
</g>
<!-- cube_master -->
<g id="node3" class="node">
<title>cube_master</title>
<path fill="#2e7d32" stroke="black" d="M259.87,-500.96C259.87,-500.96 195.87,-500.96 195.87,-500.96 189.87,-500.96 183.87,-494.96 183.87,-488.96 183.87,-488.96 183.87,-476.46 183.87,-476.46 183.87,-470.46 189.87,-464.46 195.87,-464.46 195.87,-464.46 259.87,-464.46 259.87,-464.46 265.87,-464.46 271.87,-470.46 271.87,-476.46 271.87,-476.46 271.87,-488.96 271.87,-488.96 271.87,-494.96 265.87,-500.96 259.87,-500.96"/>
<text xml:space="preserve" text-anchor="middle" x="227.87" y="-485.56" font-family="Arial Bold" font-size="12.00" fill="white">CubeMaster</text>
<text xml:space="preserve" text-anchor="middle" x="227.87" y="-471.31" font-family="Arial Bold" font-size="12.00" fill="white">Orchestrator</text>
</g>
<!-- cube_api&#45;&gt;cube_master -->
<g id="edge2" class="edge">
<title>cube_api&#45;&gt;cube_master</title>
<path fill="none" stroke="#4caf50" stroke-width="2" d="M249.19,-558.54C249.19,-558.54 249.19,-514.37 249.19,-514.37"/>
<polygon fill="#4caf50" stroke="#4caf50" stroke-width="2" points="252.69,-514.37 249.19,-504.37 245.69,-514.37 252.69,-514.37"/>
<text xml:space="preserve" text-anchor="middle" x="224.44" y="-539.66" font-family="Times New Roman,serif" font-size="14.00">Schedule</text>
</g>
<!-- cubelet -->
<g id="node4" class="node">
<title>cubelet</title>
<path fill="#009688" stroke="black" d="M199.37,-395.89C199.37,-395.89 114.37,-395.89 114.37,-395.89 108.37,-395.89 102.37,-389.89 102.37,-383.89 102.37,-383.89 102.37,-371.89 102.37,-371.89 102.37,-365.89 108.37,-359.89 114.37,-359.89 114.37,-359.89 199.37,-359.89 199.37,-359.89 205.37,-359.89 211.37,-365.89 211.37,-371.89 211.37,-371.89 211.37,-383.89 211.37,-383.89 211.37,-389.89 205.37,-395.89 199.37,-395.89"/>
<text xml:space="preserve" text-anchor="middle" x="156.87" y="-380.94" font-family="Arial" font-size="11.00" fill="white">Cubelet</text>
<text xml:space="preserve" text-anchor="middle" x="156.87" y="-367.44" font-family="Arial" font-size="11.00" fill="white">Container Manager</text>
</g>
<!-- cube_master&#45;&gt;cubelet -->
<g id="edge3" class="edge">
<title>cube_master&#45;&gt;cubelet</title>
<path fill="none" stroke="#2e7d32" stroke-width="2" d="M197.62,-463.97C197.62,-463.97 197.62,-409.14 197.62,-409.14"/>
<polygon fill="#2e7d32" stroke="#2e7d32" stroke-width="2" points="201.12,-409.14 197.62,-399.14 194.12,-409.14 201.12,-409.14"/>
<text xml:space="preserve" text-anchor="middle" x="175.5" y="-439.76" font-family="Times New Roman,serif" font-size="14.00">Manage</text>
</g>
<!-- cube_proxy -->
<g id="node8" class="node">
<title>cube_proxy</title>
<polygon fill="#9c27b0" stroke="black" points="406.07,-377.89 366.47,-406.46 287.27,-406.46 247.67,-377.89 287.27,-349.31 366.47,-349.31 406.07,-377.89"/>
<text xml:space="preserve" text-anchor="middle" x="326.87" y="-380.94" font-family="Arial" font-size="11.00" fill="white">CubeProxy</text>
<text xml:space="preserve" text-anchor="middle" x="326.87" y="-367.44" font-family="Arial" font-size="11.00" fill="white">Request Routing</text>
</g>
<!-- cube_master&#45;&gt;cube_proxy -->
<g id="edge5" class="edge">
<title>cube_master&#45;&gt;cube_proxy</title>
<path fill="none" stroke="#9c27b0" stroke-width="1.5" stroke-dasharray="5,2" d="M259.77,-463.97C259.77,-463.97 259.77,-399.37 259.77,-399.37"/>
<polygon fill="#9c27b0" stroke="#9c27b0" stroke-width="1.5" points="263.27,-399.37 259.77,-389.37 256.27,-399.37 263.27,-399.37"/>
<text xml:space="preserve" text-anchor="middle" x="243.65" y="-434.87" font-family="Times New Roman,serif" font-size="14.00">Route</text>
</g>
<!-- sandbox -->
<g id="node5" class="node">
<title>sandbox</title>
<polygon fill="#ff9800" stroke="black" points="146.37,-291.31 19.37,-291.31 19.37,-254.81 146.37,-254.81 146.37,-291.31"/>
<text xml:space="preserve" text-anchor="middle" x="82.87" y="-275.91" font-family="Arial Bold" font-size="12.00" fill="white">Sandbox Container</text>
<text xml:space="preserve" text-anchor="middle" x="82.87" y="-261.66" font-family="Arial Bold" font-size="12.00" fill="white">Isolated Execution</text>
</g>
<!-- cubelet&#45;&gt;sandbox -->
<g id="edge4" class="edge">
<title>cubelet&#45;&gt;sandbox</title>
<path fill="none" stroke="#009688" stroke-width="2" d="M124.37,-359.63C124.37,-359.63 124.37,-304.49 124.37,-304.49"/>
<polygon fill="#009688" stroke="#009688" stroke-width="2" points="127.87,-304.49 124.37,-294.49 120.87,-304.49 127.87,-304.49"/>
<text xml:space="preserve" text-anchor="middle" x="93.62" y="-335.26" font-family="Times New Roman,serif" font-size="14.00">Create/Run</text>
</g>
<!-- cube_shim -->
<g id="node9" class="node">
<title>cube_shim</title>
<path fill="#009688" stroke="black" d="M267.37,-291.06C267.37,-291.06 194.37,-291.06 194.37,-291.06 188.37,-291.06 182.37,-285.06 182.37,-279.06 182.37,-279.06 182.37,-267.06 182.37,-267.06 182.37,-261.06 188.37,-255.06 194.37,-255.06 194.37,-255.06 267.37,-255.06 267.37,-255.06 273.37,-255.06 279.37,-261.06 279.37,-267.06 279.37,-267.06 279.37,-279.06 279.37,-279.06 279.37,-285.06 273.37,-291.06 267.37,-291.06"/>
<text xml:space="preserve" text-anchor="middle" x="230.87" y="-276.11" font-family="Arial" font-size="11.00" fill="white">CubeShim</text>
<text xml:space="preserve" text-anchor="middle" x="230.87" y="-262.61" font-family="Arial" font-size="11.00" fill="white">Runtime Adapter</text>
</g>
<!-- cubelet&#45;&gt;cube_shim -->
<g id="edge9" class="edge">
<title>cubelet&#45;&gt;cube_shim</title>
<path fill="none" stroke="#009688" stroke-width="1.5" stroke-dasharray="5,2" d="M196.87,-359.63C196.87,-359.63 196.87,-303.73 196.87,-303.73"/>
<polygon fill="#009688" stroke="#009688" stroke-width="1.5" points="200.37,-303.73 196.87,-293.73 193.37,-303.73 200.37,-303.73"/>
<text xml:space="preserve" text-anchor="middle" x="180.37" y="-334.88" font-family="Times New Roman,serif" font-size="14.00">Adapt</text>
</g>
<!-- cube_net -->
<g id="node6" class="node">
<title>cube_net</title>
<polygon fill="#9c27b0" stroke="black" points="163.91,-168.23 123.39,-196.81 42.36,-196.81 1.84,-168.23 42.36,-139.65 123.39,-139.65 163.91,-168.23"/>
<text xml:space="preserve" text-anchor="middle" x="82.87" y="-171.28" font-family="Arial" font-size="11.00" fill="white">CubeNet</text>
<text xml:space="preserve" text-anchor="middle" x="82.87" y="-157.78" font-family="Arial" font-size="11.00" fill="white">Network Isolation</text>
</g>
<!-- sandbox&#45;&gt;cube_net -->
<g id="edge7" class="edge">
<title>sandbox&#45;&gt;cube_net</title>
<path fill="none" stroke="#009688" stroke-width="1.5" d="M82.87,-254.32C82.87,-254.32 82.87,-209.36 82.87,-209.36"/>
<polygon fill="#009688" stroke="#009688" stroke-width="1.5" points="86.37,-209.36 82.87,-199.36 79.37,-209.36 86.37,-209.36"/>
<text xml:space="preserve" text-anchor="middle" x="59.25" y="-235.04" font-family="Times New Roman,serif" font-size="14.00">Network</text>
</g>
<!-- cube_egress -->
<g id="node7" class="node">
<title>cube_egress</title>
<polygon fill="#9c27b0" stroke="black" points="165.75,-53.08 124.31,-81.65 41.44,-81.65 0,-53.08 41.44,-24.5 124.31,-24.5 165.75,-53.08"/>
<text xml:space="preserve" text-anchor="middle" x="82.87" y="-56.13" font-family="Arial" font-size="11.00" fill="white">CubeEgress</text>
<text xml:space="preserve" text-anchor="middle" x="82.87" y="-42.63" font-family="Arial" font-size="11.00" fill="white">Outbound Control</text>
</g>
<!-- cube_net&#45;&gt;cube_egress -->
<g id="edge8" class="edge">
<title>cube_net&#45;&gt;cube_egress</title>
<path fill="none" stroke="#9c27b0" stroke-width="1.5" d="M82.87,-139.17C82.87,-139.17 82.87,-94.4 82.87,-94.4"/>
<polygon fill="#9c27b0" stroke="#9c27b0" stroke-width="1.5" points="86.37,-94.4 82.87,-84.4 79.37,-94.4 86.37,-94.4"/>
<text xml:space="preserve" text-anchor="middle" x="55.87" y="-119.99" font-family="Times New Roman,serif" font-size="14.00">Outbound</text>
</g>
<!-- cube_proxy&#45;&gt;cube_api -->
<g id="edge6" class="edge">
<title>cube_proxy&#45;&gt;cube_api</title>
<path fill="none" stroke="#9c27b0" stroke-width="1.5" stroke-dasharray="5,2" d="M299.56,-406.87C299.56,-406.87 299.56,-546.37 299.56,-546.37"/>
<polygon fill="#9c27b0" stroke="#9c27b0" stroke-width="1.5" points="296.06,-546.37 299.56,-556.37 303.06,-546.37 296.06,-546.37"/>
<text xml:space="preserve" text-anchor="middle" x="315.69" y="-479.82" font-family="Times New Roman,serif" font-size="14.00">Proxy</text>
</g>
</g>
</svg>
