<?xml version="1.0" encoding="UTF-8" standalone="no"?>
<!DOCTYPE svg PUBLIC "-//W3C//DTD SVG 1.1//EN"
 "http://www.w3.org/Graphics/SVG/1.1/DTD/svg11.dtd">
<!-- Generated by graphviz version 14.1.3 (0)
 -->
<!-- Title: cubesandbox_features Pages: 1 -->
<svg width="1052pt" height="276pt"
 viewBox="0.00 0.00 1052.00 276.00" xmlns="http://www.w3.org/2000/svg" xmlns:xlink="http://www.w3.org/1999/xlink">
<style>
<!-- White text halo for edge label readability -->
text { paint-order: stroke; stroke: #ffffff; stroke-width: 3px; stroke-linejoin: round; fill: #1a1a2e; }
</style>
<g id="graph0" class="graph" transform="scale(1 1) rotate(0) translate(4 271.75)">
<title>cubesandbox_features</title>
<polygon fill="white" stroke="none" points="-4,4 -4,-271.75 1048,-271.75 1048,4 -4,4"/>
<text xml:space="preserve" text-anchor="middle" x="522" y="-7.2" font-family="Times New Roman,serif" font-size="14.00">CubeSandbox &#45; Key Features</text>
<!-- center -->
<g id="node1" class="node">
<title>center</title>
<path fill="#1b5e20" stroke="black" d="M618,-267.75C618,-267.75 426,-267.75 426,-267.75 420,-267.75 414,-261.75 414,-255.75 414,-255.75 414,-224.5 414,-224.5 414,-218.5 420,-212.5 426,-212.5 426,-212.5 618,-212.5 618,-212.5 624,-212.5 630,-218.5 630,-224.5 630,-224.5 630,-255.75 630,-255.75 630,-261.75 624,-267.75 618,-267.75"/>
<text xml:space="preserve" text-anchor="middle" x="522" y="-250.45" font-family="Arial Bold" font-size="14.00" fill="white">CubeSandbox</text>
<text xml:space="preserve" text-anchor="middle" x="522" y="-234.7" font-family="Arial Bold" font-size="14.00" fill="white">Instant, Concurrent</text>
<text xml:space="preserve" text-anchor="middle" x="522" y="-218.95" font-family="Arial Bold" font-size="14.00" fill="white">Secure and Lightweight</text>
</g>
<!-- f_instant -->
<g id="node2" class="node">
<title>f_instant</title>
<path fill="#4caf50" stroke="black" d="M168,-154.5C168,-154.5 12,-154.5 12,-154.5 6,-154.5 0,-148.5 0,-142.5 0,-142.5 0,-130.5 0,-130.5 0,-124.5 6,-118.5 12,-118.5 12,-118.5 168,-118.5 168,-118.5 174,-118.5 180,-124.5 180,-130.5 180,-130.5 180,-142.5 180,-142.5 180,-148.5 174,-154.5 168,-154.5"/>
<text xml:space="preserve" text-anchor="middle" x="90" y="-139.55" font-family="Arial" font-size="11.00" fill="white">Instant Creation</text>
<text xml:space="preserve" text-anchor="middle" x="90" y="-126.05" font-family="Arial" font-size="11.00" fill="white">&lt; 100ms Startup</text>
</g>
<!-- center&#45;&gt;f_instant -->
<g id="edge1" class="edge">
<title>center&#45;&gt;f_instant</title>
<path fill="none" stroke="#4caf50" stroke-width="2" d="M413.55,-240.5C285.58,-240.5 90,-240.5 90,-240.5 90,-240.5 90,-167.64 90,-167.64"/>
<polygon fill="#4caf50" stroke="#4caf50" stroke-width="2" points="93.5,-167.64 90,-157.64 86.5,-167.64 93.5,-167.64"/>
</g>
<!-- f_concurrent -->
<g id="node3" class="node">
<title>f_concurrent</title>
<path fill="#4caf50" stroke="black" d="M384,-154.5C384,-154.5 228,-154.5 228,-154.5 222,-154.5 216,-148.5 216,-142.5 216,-142.5 216,-130.5 216,-130.5 216,-124.5 222,-118.5 228,-118.5 228,-118.5 384,-118.5 384,-118.5 390,-118.5 396,-124.5 396,-130.5 396,-130.5 396,-142.5 396,-142.5 396,-148.5 390,-154.5 384,-154.5"/>
<text xml:space="preserve" text-anchor="middle" x="306" y="-139.55" font-family="Arial" font-size="11.00" fill="white">Concurrent Execution</text>
<text xml:space="preserve" text-anchor="middle" x="306" y="-126.05" font-family="Arial" font-size="11.00" fill="white">Multiple Sandboxes</text>
</g>
<!-- center&#45;&gt;f_concurrent -->
<g id="edge2" class="edge">
<title>center&#45;&gt;f_concurrent</title>
<path fill="none" stroke="#4caf50" stroke-width="2" d="M423,-212.08C423,-181.39 423,-136.5 423,-136.5 423,-136.5 409.48,-136.5 409.48,-136.5"/>
<polygon fill="#4caf50" stroke="#4caf50" stroke-width="2" points="409.48,-133 399.48,-136.5 409.48,-140 409.48,-133"/>
</g>
<!-- f_secure -->
<g id="node4" class="node">
<title>f_secure</title>
<path fill="#4caf50" stroke="black" d="M600,-154.5C600,-154.5 444,-154.5 444,-154.5 438,-154.5 432,-148.5 432,-142.5 432,-142.5 432,-130.5 432,-130.5 432,-124.5 438,-118.5 444,-118.5 444,-118.5 600,-118.5 600,-118.5 606,-118.5 612,-124.5 612,-130.5 612,-130.5 612,-142.5 612,-142.5 612,-148.5 606,-154.5 600,-154.5"/>
<text xml:space="preserve" text-anchor="middle" x="522" y="-139.55" font-family="Arial" font-size="11.00" fill="white">Secure Isolation</text>
<text xml:space="preserve" text-anchor="middle" x="522" y="-126.05" font-family="Arial" font-size="11.00" fill="white">Full Container Isolation</text>
</g>
<!-- center&#45;&gt;f_secure -->
<g id="edge3" class="edge">
<title>center&#45;&gt;f_secure</title>
<path fill="none" stroke="#4caf50" stroke-width="2" d="M522,-212.08C522,-212.08 522,-167.79 522,-167.79"/>
<polygon fill="#4caf50" stroke="#4caf50" stroke-width="2" points="525.5,-167.79 522,-157.79 518.5,-167.79 525.5,-167.79"/>
</g>
<!-- f_lightweight -->
<g id="node5" class="node">
<title>f_lightweight</title>
<path fill="#4caf50" stroke="black" d="M816,-154.5C816,-154.5 660,-154.5 660,-154.5 654,-154.5 648,-148.5 648,-142.5 648,-142.5 648,-130.5 648,-130.5 648,-124.5 654,-118.5 660,-118.5 660,-118.5 816,-118.5 816,-118.5 822,-118.5 828,-124.5 828,-130.5 828,-130.5 828,-142.5 828,-142.5 828,-148.5 822,-154.5 816,-154.5"/>
<text xml:space="preserve" text-anchor="middle" x="738" y="-139.55" font-family="Arial" font-size="11.00" fill="white">Lightweight</text>
<text xml:space="preserve" text-anchor="middle" x="738" y="-126.05" font-family="Arial" font-size="11.00" fill="white">Minimal Overhead</text>
</g>
<!-- center&#45;&gt;f_lightweight -->
<g id="edge4" class="edge">
<title>center&#45;&gt;f_lightweight</title>
<path fill="none" stroke="#4caf50" stroke-width="2" d="M621,-212.08C621,-181.39 621,-136.5 621,-136.5 621,-136.5 634.52,-136.5 634.52,-136.5"/>
<polygon fill="#4caf50" stroke="#4caf50" stroke-width="2" points="634.52,-140 644.52,-136.5 634.52,-133 634.52,-140"/>
</g>
<!-- f_sdk -->
<g id="node6" class="node">
<title>f_sdk</title>
<path fill="#4caf50" stroke="black" d="M1032,-154.5C1032,-154.5 876,-154.5 876,-154.5 870,-154.5 864,-148.5 864,-142.5 864,-142.5 864,-130.5 864,-130.5 864,-124.5 870,-118.5 876,-118.5 876,-118.5 1032,-118.5 1032,-118.5 1038,-118.5 1044,-124.5 1044,-130.5 1044,-130.5 1044,-142.5 1044,-142.5 1044,-148.5 1038,-154.5 1032,-154.5"/>
<text xml:space="preserve" text-anchor="middle" x="954" y="-139.55" font-family="Arial" font-size="11.00" fill="white">Multi&#45;language SDK</text>
<text xml:space="preserve" text-anchor="middle" x="954" y="-126.05" font-family="Arial" font-size="11.00" fill="white">Python / JS / Rust</text>
</g>
<!-- center&#45;&gt;f_sdk -->
<g id="edge5" class="edge">
<title>center&#45;&gt;f_sdk</title>
<path fill="none" stroke="#ff9800" stroke-width="2" d="M630.45,-240.5C758.42,-240.5 954,-240.5 954,-240.5 954,-240.5 954,-167.64 954,-167.64"/>
<polygon fill="#ff9800" stroke="#ff9800" stroke-width="2" points="957.5,-167.64 954,-157.64 950.5,-167.64 957.5,-167.64"/>
</g>
<!-- d_instant -->
<g id="node7" class="node">
<title>d_instant</title>
<path fill="#a5d6a7" stroke="black" d="M168,-60.5C168,-60.5 12,-60.5 12,-60.5 6,-60.5 0,-54.5 0,-48.5 0,-48.5 0,-36.5 0,-36.5 0,-30.5 6,-24.5 12,-24.5 12,-24.5 168,-24.5 168,-24.5 174,-24.5 180,-30.5 180,-36.5 180,-36.5 180,-48.5 180,-48.5 180,-54.5 174,-60.5 168,-60.5"/>
<text xml:space="preserve" text-anchor="middle" x="90" y="-45" font-family="Arial" font-size="10.00" fill="#1a1a2e">Fast sandbox provisioning</text>
<text xml:space="preserve" text-anchor="middle" x="90" y="-33" font-family="Arial" font-size="10.00" fill="#1a1a2e">for AI agent workflows</text>
</g>
<!-- f_instant&#45;&gt;d_instant -->
<g id="edge6" class="edge">
<title>f_instant&#45;&gt;d_instant</title>
<path fill="none" stroke="#a5d6a7" stroke-width="1.5" stroke-dasharray="5,2" d="M90,-118.38C90,-118.38 90,-73.16 90,-73.16"/>
<polygon fill="#a5d6a7" stroke="#a5d6a7" stroke-width="1.5" points="93.5,-73.16 90,-63.16 86.5,-73.16 93.5,-73.16"/>
</g>
<!-- d_concurrent -->
<g id="node8" class="node">
<title>d_concurrent</title>
<path fill="#a5d6a7" stroke="black" d="M384,-60.5C384,-60.5 228,-60.5 228,-60.5 222,-60.5 216,-54.5 216,-48.5 216,-48.5 216,-36.5 216,-36.5 216,-30.5 222,-24.5 228,-24.5 228,-24.5 384,-24.5 384,-24.5 390,-24.5 396,-30.5 396,-36.5 396,-36.5 396,-48.5 396,-48.5 396,-54.5 390,-60.5 384,-60.5"/>
<text xml:space="preserve" text-anchor="middle" x="306" y="-45" font-family="Arial" font-size="10.00" fill="#1a1a2e">Run many sandboxes</text>
<text xml:space="preserve" text-anchor="middle" x="306" y="-33" font-family="Arial" font-size="10.00" fill="#1a1a2e">in parallel safely</text>
</g>
<!-- f_concurrent&#45;&gt;d_concurrent -->
<g id="edge7" class="edge">
<title>f_concurrent&#45;&gt;d_concurrent</title>
<path fill="none" stroke="#a5d6a7" stroke-width="1.5" stroke-dasharray="5,2" d="M306,-118.38C306,-118.38 306,-73.16 306,-73.16"/>
<polygon fill="#a5d6a7" stroke="#a5d6a7" stroke-width="1.5" points="309.5,-73.16 306,-63.16 302.5,-73.16 309.5,-73.16"/>
</g>
<!-- d_secure -->
<g id="node9" class="node">
<title>d_secure</title>
<path fill="#a5d6a7" stroke="black" d="M600,-60.5C600,-60.5 444,-60.5 444,-60.5 438,-60.5 432,-54.5 432,-48.5 432,-48.5 432,-36.5 432,-36.5 432,-30.5 438,-24.5 444,-24.5 444,-24.5 600,-24.5 600,-24.5 606,-24.5 612,-30.5 612,-36.5 612,-36.5 612,-48.5 612,-48.5 612,-54.5 606,-60.5 600,-60.5"/>
<text xml:space="preserve" text-anchor="middle" x="522" y="-45" font-family="Arial" font-size="10.00" fill="#1a1a2e">Network + process isolation</text>
<text xml:space="preserve" text-anchor="middle" x="522" y="-33" font-family="Arial" font-size="10.00" fill="#1a1a2e">per sandbox instance</text>
</g>
<!-- f_secure&#45;&gt;d_secure -->
<g id="edge8" class="edge">
<title>f_secure&#45;&gt;d_secure</title>
<path fill="none" stroke="#a5d6a7" stroke-width="1.5" stroke-dasharray="5,2" d="M522,-118.38C522,-118.38 522,-73.16 522,-73.16"/>
<polygon fill="#a5d6a7" stroke="#a5d6a7" stroke-width="1.5" points="525.5,-73.16 522,-63.16 518.5,-73.16 525.5,-73.16"/>
</g>
<!-- d_lightweight -->
<g id="node10" class="node">
<title>d_lightweight</title>
<path fill="#a5d6a7" stroke="black" d="M816,-60.5C816,-60.5 660,-60.5 660,-60.5 654,-60.5 648,-54.5 648,-48.5 648,-48.5 648,-36.5 648,-36.5 648,-30.5 654,-24.5 660,-24.5 660,-24.5 816,-24.5 816,-24.5 822,-24.5 828,-30.5 828,-36.5 828,-36.5 828,-48.5 828,-48.5 828,-54.5 822,-60.5 816,-60.5"/>
<text xml:space="preserve" text-anchor="middle" x="738" y="-45" font-family="Arial" font-size="10.00" fill="#1a1a2e">Low resource footprint</text>
<text xml:space="preserve" text-anchor="middle" x="738" y="-33" font-family="Arial" font-size="10.00" fill="#1a1a2e">ideal for scale</text>
</g>
<!-- f_lightweight&#45;&gt;d_lightweight -->
<g id="edge9" class="edge">
<title>f_lightweight&#45;&gt;d_lightweight</title>
<path fill="none" stroke="#a5d6a7" stroke-width="1.5" stroke-dasharray="5,2" d="M738,-118.38C738,-118.38 738,-73.16 738,-73.16"/>
<polygon fill="#a5d6a7" stroke="#a5d6a7" stroke-width="1.5" points="741.5,-73.16 738,-63.16 734.5,-73.16 741.5,-73.16"/>
</g>
<!-- d_sdk -->
<g id="node11" class="node">
<title>d_sdk</title>
<path fill="#a5d6a7" stroke="black" d="M1032,-60.5C1032,-60.5 876,-60.5 876,-60.5 870,-60.5 864,-54.5 864,-48.5 864,-48.5 864,-36.5 864,-36.5 864,-30.5 870,-24.5 876,-24.5 876,-24.5 1032,-24.5 1032,-24.5 1038,-24.5 1044,-30.5 1044,-36.5 1044,-36.5 1044,-48.5 1044,-48.5 1044,-54.5 1038,-60.5 1032,-60.5"/>
<text xml:space="preserve" text-anchor="middle" x="954" y="-45" font-family="Arial" font-size="10.00" fill="#1a1a2e">Easy integration with</text>
<text xml:space="preserve" text-anchor="middle" x="954" y="-33" font-family="Arial" font-size="10.00" fill="#1a1a2e">any AI agent framework</text>
</g>
<!-- f_sdk&#45;&gt;d_sdk -->
<g id="edge10" class="edge">
<title>f_sdk&#45;&gt;d_sdk</title>
<path fill="none" stroke="#ff9800" stroke-width="1.5" stroke-dasharray="5,2" d="M954,-118.38C954,-118.38 954,-73.16 954,-73.16"/>
<polygon fill="#ff9800" stroke="#ff9800" stroke-width="1.5" points="957.5,-73.16 954,-63.16 950.5,-73.16 957.5,-73.16"/>
</g>
</g>
</svg>
