<?xml version="1.0" encoding="UTF-8" standalone="no"?>
<!DOCTYPE svg PUBLIC "-//W3C//DTD SVG 1.1//EN"
 "http://www.w3.org/Graphics/SVG/1.1/DTD/svg11.dtd">
<!-- Generated by graphviz version 14.1.2 (0)
 -->
<!-- Title: cubesandbox_workflow Pages: 1 -->
<svg width="801pt" height="581pt"
 viewBox="0.00 0.00 801.00 581.00" xmlns="http://www.w3.org/2000/svg" xmlns:xlink="http://www.w3.org/1999/xlink">
<style>
<!-- White text halo for edge label readability -->
text { paint-order: stroke; stroke: #ffffff; stroke-width: 3px; stroke-linejoin: round; fill: #1a1a2e; }
</style>
<g id="graph0" class="graph" transform="scale(1 1) rotate(0) translate(4 576.5)">
<title>cubesandbox_workflow</title>
<polygon fill="white" stroke="none" points="-4,4 -4,-576.5 797,-576.5 797,4 -4,4"/>
<text xml:space="preserve" text-anchor="middle" x="396.5" y="-7.2" font-family="Times New Roman,serif" font-size="14.00">CubeSandbox &#45; Getting Started Workflow</text>
<!-- step1 -->
<g id="node1" class="node">
<title>step1</title>
<path fill="#2196f3" stroke="black" d="M340.5,-572.5C340.5,-572.5 197,-572.5 197,-572.5 191,-572.5 185,-566.5 185,-560.5 185,-560.5 185,-548.5 185,-548.5 185,-542.5 191,-536.5 197,-536.5 197,-536.5 340.5,-536.5 340.5,-536.5 346.5,-536.5 352.5,-542.5 352.5,-548.5 352.5,-548.5 352.5,-560.5 352.5,-560.5 352.5,-566.5 346.5,-572.5 340.5,-572.5"/>
<text xml:space="preserve" text-anchor="middle" x="268.75" y="-557.55" font-family="Arial Bold" font-size="11.00" fill="white">Step 1: Prepare Environment</text>
<text xml:space="preserve" text-anchor="middle" x="268.75" y="-544.05" font-family="Arial Bold" font-size="11.00" fill="white">Clone repo, run VM</text>
</g>
<!-- detail1 -->
<g id="node3" class="node">
<title>detail1</title>
<path fill="#bbdefb" stroke="black" d="M233.75,-478.5C233.75,-478.5 115.75,-478.5 115.75,-478.5 109.75,-478.5 103.75,-472.5 103.75,-466.5 103.75,-466.5 103.75,-454.5 103.75,-454.5 103.75,-448.5 109.75,-442.5 115.75,-442.5 115.75,-442.5 233.75,-442.5 233.75,-442.5 239.75,-442.5 245.75,-448.5 245.75,-454.5 245.75,-454.5 245.75,-466.5 245.75,-466.5 245.75,-472.5 239.75,-478.5 233.75,-478.5"/>
<text xml:space="preserve" text-anchor="middle" x="174.75" y="-463" font-family="Arial" font-size="10.00" fill="#1a1a2e">git clone + prepare_image.sh</text>
<text xml:space="preserve" text-anchor="middle" x="174.75" y="-451" font-family="Arial" font-size="10.00" fill="#1a1a2e">+ run_vm.sh + login.sh</text>
</g>
<!-- step1&#45;&gt;detail1 -->
<g id="edge1" class="edge">
<title>step1&#45;&gt;detail1</title>
<path fill="none" stroke="#2196f3" stroke-width="1.5" stroke-dasharray="5,2" d="M215.38,-536.38C215.38,-536.38 215.38,-491.16 215.38,-491.16"/>
<polygon fill="#2196f3" stroke="#2196f3" stroke-width="1.5" points="218.88,-491.16 215.38,-481.16 211.88,-491.16 218.88,-491.16"/>
</g>
<!-- step2 -->
<g id="node5" class="node">
<title>step2</title>
<path fill="#2196f3" stroke="black" d="M434,-478.5C434,-478.5 293.5,-478.5 293.5,-478.5 287.5,-478.5 281.5,-472.5 281.5,-466.5 281.5,-466.5 281.5,-454.5 281.5,-454.5 281.5,-448.5 287.5,-442.5 293.5,-442.5 293.5,-442.5 434,-442.5 434,-442.5 440,-442.5 446,-448.5 446,-454.5 446,-454.5 446,-466.5 446,-466.5 446,-472.5 440,-478.5 434,-478.5"/>
<text xml:space="preserve" text-anchor="middle" x="363.75" y="-463.55" font-family="Arial Bold" font-size="11.00" fill="white">Step 2: Install CubeSandbox</text>
<text xml:space="preserve" text-anchor="middle" x="363.75" y="-450.05" font-family="Arial Bold" font-size="11.00" fill="white">One&#45;click deployment</text>
</g>
<!-- step1&#45;&gt;step2 -->
<g id="edge2" class="edge">
<title>step1&#45;&gt;step2</title>
<path fill="none" stroke="#4caf50" stroke-width="2" d="M317,-536.38C317,-536.38 317,-491.92 317,-491.92"/>
<polygon fill="#4caf50" stroke="#4caf50" stroke-width="2" points="320.5,-491.92 317,-481.92 313.5,-491.92 320.5,-491.92"/>
<text xml:space="preserve" text-anchor="middle" x="305.38" y="-517.35" font-family="Times New Roman,serif" font-size="14.00">next</text>
</g>
<!-- init_phase -->
<g id="node2" class="node">
<title>init_phase</title>
<path fill="#81c784" stroke="black" d="M59.5,-278.5C59.5,-278.5 12,-278.5 12,-278.5 6,-278.5 0,-272.5 0,-266.5 0,-266.5 0,-254.5 0,-254.5 0,-248.5 6,-242.5 12,-242.5 12,-242.5 59.5,-242.5 59.5,-242.5 65.5,-242.5 71.5,-248.5 71.5,-254.5 71.5,-254.5 71.5,-266.5 71.5,-266.5 71.5,-272.5 65.5,-278.5 59.5,-278.5"/>
<text xml:space="preserve" text-anchor="middle" x="35.75" y="-263" font-family="Arial" font-size="10.00" fill="white">Init</text>
<text xml:space="preserve" text-anchor="middle" x="35.75" y="-251" font-family="Arial" font-size="10.00" fill="white">(Build rootfs)</text>
</g>
<!-- boot_phase -->
<g id="node4" class="node">
<title>boot_phase</title>
<path fill="#64b5f6" stroke="black" d="M199.62,-278.5C199.62,-278.5 119.88,-278.5 119.88,-278.5 113.88,-278.5 107.88,-272.5 107.88,-266.5 107.88,-266.5 107.88,-254.5 107.88,-254.5 107.88,-248.5 113.88,-242.5 119.88,-242.5 119.88,-242.5 199.62,-242.5 199.62,-242.5 205.62,-242.5 211.62,-248.5 211.62,-254.5 211.62,-254.5 211.62,-266.5 211.62,-266.5 211.62,-272.5 205.62,-278.5 199.62,-278.5"/>
<text xml:space="preserve" text-anchor="middle" x="159.75" y="-263" font-family="Arial" font-size="10.00" fill="white">Boot + Snapshot</text>
<text xml:space="preserve" text-anchor="middle" x="159.75" y="-251" font-family="Arial" font-size="10.00" fill="white">(MicroVM cold boot)</text>
</g>
<!-- init_phase&#45;&gt;boot_phase -->
<g id="edge9" class="edge">
<title>init_phase&#45;&gt;boot_phase</title>
<path fill="none" stroke="#64b5f6" stroke-width="1.5" d="M71.95,-260.5C71.95,-260.5 95.34,-260.5 95.34,-260.5"/>
<polygon fill="#64b5f6" stroke="#64b5f6" stroke-width="1.5" points="95.34,-264 105.34,-260.5 95.34,-257 95.34,-264"/>
<text xml:space="preserve" text-anchor="middle" x="95.27" y="-263.7" font-family="Times New Roman,serif" font-size="14.00">then</text>
</g>
<!-- deploy_phase -->
<g id="node6" class="node">
<title>deploy_phase</title>
<path fill="#ffb74d" stroke="black" d="M335.38,-278.5C335.38,-278.5 260.12,-278.5 260.12,-278.5 254.12,-278.5 248.12,-272.5 248.12,-266.5 248.12,-266.5 248.12,-254.5 248.12,-254.5 248.12,-248.5 254.12,-242.5 260.12,-242.5 260.12,-242.5 335.38,-242.5 335.38,-242.5 341.38,-242.5 347.38,-248.5 347.38,-254.5 347.38,-254.5 347.38,-266.5 347.38,-266.5 347.38,-272.5 341.38,-278.5 335.38,-278.5"/>
<text xml:space="preserve" text-anchor="middle" x="297.75" y="-263" font-family="Arial" font-size="10.00" fill="white">Deploy</text>
<text xml:space="preserve" text-anchor="middle" x="297.75" y="-251" font-family="Arial" font-size="10.00" fill="white">(Register template)</text>
</g>
<!-- boot_phase&#45;&gt;deploy_phase -->
<g id="edge10" class="edge">
<title>boot_phase&#45;&gt;deploy_phase</title>
<path fill="none" stroke="#ffb74d" stroke-width="1.5" d="M211.92,-260.5C211.92,-260.5 235.52,-260.5 235.52,-260.5"/>
<polygon fill="#ffb74d" stroke="#ffb74d" stroke-width="1.5" points="235.52,-264 245.52,-260.5 235.52,-257 235.52,-264"/>
<text xml:space="preserve" text-anchor="middle" x="235.34" y="-263.7" font-family="Times New Roman,serif" font-size="14.00">then</text>
</g>
<!-- detail2 -->
<g id="node7" class="node">
<title>detail2</title>
<path fill="#bbdefb" stroke="black" d="M334.88,-384.5C334.88,-384.5 214.62,-384.5 214.62,-384.5 208.62,-384.5 202.62,-378.5 202.62,-372.5 202.62,-372.5 202.62,-352.5 202.62,-352.5 202.62,-346.5 208.62,-340.5 214.62,-340.5 214.62,-340.5 334.88,-340.5 334.88,-340.5 340.88,-340.5 346.88,-346.5 346.88,-352.5 346.88,-352.5 346.88,-372.5 346.88,-372.5 346.88,-378.5 340.88,-384.5 334.88,-384.5"/>
<text xml:space="preserve" text-anchor="middle" x="274.75" y="-371" font-family="Arial" font-size="10.00" fill="#1a1a2e">curl online&#45;install.sh | bash</text>
<text xml:space="preserve" text-anchor="middle" x="274.75" y="-359" font-family="Arial" font-size="10.00" fill="#1a1a2e">CubeAPI, CubeMaster,</text>
<text xml:space="preserve" text-anchor="middle" x="274.75" y="-347" font-family="Arial" font-size="10.00" fill="#1a1a2e">Cubelet, CubeVS, CubeShim</text>
</g>
<!-- step2&#45;&gt;detail2 -->
<g id="edge3" class="edge">
<title>step2&#45;&gt;detail2</title>
<path fill="none" stroke="#2196f3" stroke-width="1.5" stroke-dasharray="5,2" d="M314.19,-442.07C314.19,-442.07 314.19,-397.25 314.19,-397.25"/>
<polygon fill="#2196f3" stroke="#2196f3" stroke-width="1.5" points="317.69,-397.25 314.19,-387.25 310.69,-397.25 317.69,-397.25"/>
</g>
<!-- step3 -->
<g id="node8" class="node">
<title>step3</title>
<path fill="#2196f3" stroke="black" d="M511,-380.5C511,-380.5 394.5,-380.5 394.5,-380.5 388.5,-380.5 382.5,-374.5 382.5,-368.5 382.5,-368.5 382.5,-356.5 382.5,-356.5 382.5,-350.5 388.5,-344.5 394.5,-344.5 394.5,-344.5 511,-344.5 511,-344.5 517,-344.5 523,-350.5 523,-356.5 523,-356.5 523,-368.5 523,-368.5 523,-374.5 517,-380.5 511,-380.5"/>
<text xml:space="preserve" text-anchor="middle" x="452.75" y="-365.55" font-family="Arial Bold" font-size="11.00" fill="white">Step 3: Create Template</text>
<text xml:space="preserve" text-anchor="middle" x="452.75" y="-352.05" font-family="Arial Bold" font-size="11.00" fill="white">From OCI image</text>
</g>
<!-- step2&#45;&gt;step3 -->
<g id="edge4" class="edge">
<title>step2&#45;&gt;step3</title>
<path fill="none" stroke="#4caf50" stroke-width="2" d="M414.25,-442.07C414.25,-442.07 414.25,-393.88 414.25,-393.88"/>
<polygon fill="#4caf50" stroke="#4caf50" stroke-width="2" points="417.75,-393.88 414.25,-383.88 410.75,-393.88 417.75,-393.88"/>
<text xml:space="preserve" text-anchor="middle" x="402.62" y="-421.17" font-family="Times New Roman,serif" font-size="14.00">next</text>
</g>
<!-- step3&#45;&gt;init_phase -->
<g id="edge8" class="edge">
<title>step3&#45;&gt;init_phase</title>
<path fill="none" stroke="#81c784" stroke-width="1.5" d="M429.58,-344.09C429.58,-329.48 429.58,-311.5 429.58,-311.5 429.58,-311.5 35.75,-311.5 35.75,-311.5 35.75,-311.5 35.75,-291.18 35.75,-291.18"/>
<polygon fill="#81c784" stroke="#81c784" stroke-width="1.5" points="39.25,-291.18 35.75,-281.18 32.25,-291.18 39.25,-291.18"/>
</g>
<!-- detail3 -->
<g id="node9" class="node">
<title>detail3</title>
<path fill="#bbdefb" stroke="black" d="M510.25,-282.5C510.25,-282.5 395.25,-282.5 395.25,-282.5 389.25,-282.5 383.25,-276.5 383.25,-270.5 383.25,-270.5 383.25,-250.5 383.25,-250.5 383.25,-244.5 389.25,-238.5 395.25,-238.5 395.25,-238.5 510.25,-238.5 510.25,-238.5 516.25,-238.5 522.25,-244.5 522.25,-250.5 522.25,-250.5 522.25,-270.5 522.25,-270.5 522.25,-276.5 516.25,-282.5 510.25,-282.5"/>
<text xml:space="preserve" text-anchor="middle" x="452.75" y="-269" font-family="Arial" font-size="10.00" fill="#1a1a2e">cubemastercli tpl</text>
<text xml:space="preserve" text-anchor="middle" x="452.75" y="-257" font-family="Arial" font-size="10.00" fill="#1a1a2e">create&#45;from&#45;image</text>
<text xml:space="preserve" text-anchor="middle" x="452.75" y="-245" font-family="Arial" font-size="10.00" fill="#1a1a2e">&#45;&#45;image sandbox&#45;code:latest</text>
</g>
<!-- step3&#45;&gt;detail3 -->
<g id="edge5" class="edge">
<title>step3&#45;&gt;detail3</title>
<path fill="none" stroke="#2196f3" stroke-width="1.5" stroke-dasharray="5,2" d="M475.92,-344.26C475.92,-344.26 475.92,-295.12 475.92,-295.12"/>
<polygon fill="#2196f3" stroke="#2196f3" stroke-width="1.5" points="479.42,-295.12 475.92,-285.12 472.42,-295.12 479.42,-295.12"/>
</g>
<!-- step4 -->
<g id="node10" class="node">
<title>step4</title>
<path fill="#2196f3" stroke="black" d="M689.12,-278.5C689.12,-278.5 570.38,-278.5 570.38,-278.5 564.38,-278.5 558.38,-272.5 558.38,-266.5 558.38,-266.5 558.38,-254.5 558.38,-254.5 558.38,-248.5 564.38,-242.5 570.38,-242.5 570.38,-242.5 689.12,-242.5 689.12,-242.5 695.12,-242.5 701.12,-248.5 701.12,-254.5 701.12,-254.5 701.12,-266.5 701.12,-266.5 701.12,-272.5 695.12,-278.5 689.12,-278.5"/>
<text xml:space="preserve" text-anchor="middle" x="629.75" y="-263.55" font-family="Arial Bold" font-size="11.00" fill="white">Step 4: Run Agent Code</text>
<text xml:space="preserve" text-anchor="middle" x="629.75" y="-250.05" font-family="Arial Bold" font-size="11.00" fill="white">In isolated sandbox</text>
</g>
<!-- step3&#45;&gt;step4 -->
<g id="edge6" class="edge">
<title>step3&#45;&gt;step4</title>
<path fill="none" stroke="#4caf50" stroke-width="2" d="M523.47,-362.5C572.77,-362.5 629.75,-362.5 629.75,-362.5 629.75,-362.5 629.75,-291.76 629.75,-291.76"/>
<polygon fill="#4caf50" stroke="#4caf50" stroke-width="2" points="633.25,-291.76 629.75,-281.76 626.25,-291.76 633.25,-291.76"/>
<text xml:space="preserve" text-anchor="middle" x="600.35" y="-365.7" font-family="Times New Roman,serif" font-size="14.00">next</text>
</g>
<!-- detail4 -->
<g id="node11" class="node">
<title>detail4</title>
<path fill="#bbdefb" stroke="black" d="M598.88,-167.5C598.88,-167.5 478.62,-167.5 478.62,-167.5 472.62,-167.5 466.62,-161.5 466.62,-155.5 466.62,-155.5 466.62,-143.5 466.62,-143.5 466.62,-137.5 472.62,-131.5 478.62,-131.5 478.62,-131.5 598.88,-131.5 598.88,-131.5 604.88,-131.5 610.88,-137.5 610.88,-143.5 610.88,-143.5 610.88,-155.5 610.88,-155.5 610.88,-161.5 604.88,-167.5 598.88,-167.5"/>
<text xml:space="preserve" text-anchor="middle" x="538.75" y="-152" font-family="Arial" font-size="10.00" fill="#1a1a2e">Sandbox.create(template=ID)</text>
<text xml:space="preserve" text-anchor="middle" x="538.75" y="-140" font-family="Arial" font-size="10.00" fill="#1a1a2e">sandbox.run_code(code)</text>
</g>
<!-- step4&#45;&gt;detail4 -->
<g id="edge7" class="edge">
<title>step4&#45;&gt;detail4</title>
<path fill="none" stroke="#2196f3" stroke-width="1.5" stroke-dasharray="5,2" d="M584.62,-242.17C584.62,-242.17 584.62,-180.13 584.62,-180.13"/>
<polygon fill="#2196f3" stroke="#2196f3" stroke-width="1.5" points="588.13,-180.13 584.63,-170.13 581.13,-180.13 588.13,-180.13"/>
</g>
<!-- sandbox_exec -->
<g id="node12" class="node">
<title>sandbox_exec</title>
<path fill="#2e7d32" stroke="black" d="M781,-180.5C781,-180.5 658.5,-180.5 658.5,-180.5 652.5,-180.5 646.5,-174.5 646.5,-168.5 646.5,-168.5 646.5,-130.5 646.5,-130.5 646.5,-124.5 652.5,-118.5 658.5,-118.5 658.5,-118.5 781,-118.5 781,-118.5 787,-118.5 793,-124.5 793,-130.5 793,-130.5 793,-168.5 793,-168.5 793,-174.5 787,-180.5 781,-180.5"/>
<text xml:space="preserve" text-anchor="middle" x="719.75" y="-166.05" font-family="Arial Bold" font-size="11.00" fill="white">Isolated Sandbox</text>
<text xml:space="preserve" text-anchor="middle" x="719.75" y="-152.55" font-family="Arial Bold" font-size="11.00" fill="white">(Dedicated Kernel)</text>
<text xml:space="preserve" text-anchor="middle" x="719.75" y="-139.05" font-family="Arial Bold" font-size="11.00" fill="white">&lt; 60ms cold start</text>
<text xml:space="preserve" text-anchor="middle" x="719.75" y="-125.55" font-family="Arial Bold" font-size="11.00" fill="white">&lt; 5MB memory overhead</text>
</g>
<!-- step4&#45;&gt;sandbox_exec -->
<g id="edge11" class="edge">
<title>step4&#45;&gt;sandbox_exec</title>
<path fill="none" stroke="#2e7d32" stroke-width="2" d="M673.81,-242.17C673.81,-242.17 673.81,-193.92 673.81,-193.92"/>
<polygon fill="#2e7d32" stroke="#2e7d32" stroke-width="2" points="677.31,-193.92 673.81,-183.92 670.31,-193.92 677.31,-193.92"/>
<text xml:space="preserve" text-anchor="middle" x="655.06" y="-221.25" font-family="Times New Roman,serif" font-size="14.00">creates</text>
</g>
<!-- result -->
<g id="node13" class="node">
<title>result</title>
<path fill="#4caf50" stroke="black" d="M762.25,-60.5C762.25,-60.5 677.25,-60.5 677.25,-60.5 671.25,-60.5 665.25,-54.5 665.25,-48.5 665.25,-48.5 665.25,-36.5 665.25,-36.5 665.25,-30.5 671.25,-24.5 677.25,-24.5 677.25,-24.5 762.25,-24.5 762.25,-24.5 768.25,-24.5 774.25,-30.5 774.25,-36.5 774.25,-36.5 774.25,-48.5 774.25,-48.5 774.25,-54.5 768.25,-60.5 762.25,-60.5"/>
<text xml:space="preserve" text-anchor="middle" x="719.75" y="-45" font-family="Arial" font-size="10.00" fill="white">Safe Code Execution</text>
<text xml:space="preserve" text-anchor="middle" x="719.75" y="-33" font-family="Arial" font-size="10.00" fill="white">Result</text>
</g>
<!-- sandbox_exec&#45;&gt;result -->
<g id="edge12" class="edge">
<title>sandbox_exec&#45;&gt;result</title>
<path fill="none" stroke="#4caf50" stroke-width="2" d="M719.75,-118.26C719.75,-118.26 719.75,-73.91 719.75,-73.91"/>
<polygon fill="#4caf50" stroke="#4caf50" stroke-width="2" points="723.25,-73.91 719.75,-63.91 716.25,-73.91 723.25,-73.91"/>
<text xml:space="preserve" text-anchor="middle" x="701" y="-99.29" font-family="Times New Roman,serif" font-size="14.00">returns</text>
</g>
</g>
</svg>
