<?xml version="1.0" encoding="UTF-8" standalone="no"?>
<!DOCTYPE svg PUBLIC "-//W3C//DTD SVG 1.1//EN"
 "http://www.w3.org/Graphics/SVG/1.1/DTD/svg11.dtd">
<!-- Generated by graphviz version 14.1.2 (0)
 -->
<!-- Title: solar_map_features Pages: 1 -->
<svg width="1861pt" height="259pt"
 viewBox="0.00 0.00 1861.00 259.00" xmlns="http://www.w3.org/2000/svg" xmlns:xlink="http://www.w3.org/1999/xlink">
<style>
<!-- White text halo for edge label readability -->
text { paint-order: stroke; stroke: #ffffff; stroke-width: 3px; stroke-linejoin: round; fill: #1a1a2e; }
</style>
<g id="graph0" class="graph" transform="scale(1 1) rotate(0) translate(4 254.5)">
<title>solar_map_features</title>
<polygon fill="white" stroke="none" points="-4,4 -4,-254.5 1857.25,-254.5 1857.25,4 -4,4"/>
<text xml:space="preserve" text-anchor="middle" x="926.62" y="-7.2" font-family="Times New Roman,serif" font-size="14.00">Solar Map &#45; Key Features</text>
<!-- center -->
<g id="node1" class="node">
<title>center</title>
<path fill="#ff9800" stroke="black" d="M1045,-250.5C1045,-250.5 927,-250.5 927,-250.5 921,-250.5 915,-244.5 915,-238.5 915,-238.5 915,-224.5 915,-224.5 915,-218.5 921,-212.5 927,-212.5 927,-212.5 1045,-212.5 1045,-212.5 1051,-212.5 1057,-218.5 1057,-224.5 1057,-224.5 1057,-238.5 1057,-238.5 1057,-244.5 1051,-250.5 1045,-250.5"/>
<text xml:space="preserve" text-anchor="middle" x="986" y="-234.15" font-family="Arial Bold" font-size="13.00" fill="white">Solar Map</text>
<text xml:space="preserve" text-anchor="middle" x="986" y="-219.15" font-family="Arial Bold" font-size="13.00" fill="white">Interactive Explorer</text>
</g>
<!-- cat_map -->
<g id="node2" class="node">
<title>cat_map</title>
<path fill="#2196f3" stroke="black" d="M279.75,-154.5C279.75,-154.5 196.25,-154.5 196.25,-154.5 190.25,-154.5 184.25,-148.5 184.25,-142.5 184.25,-142.5 184.25,-130.5 184.25,-130.5 184.25,-124.5 190.25,-118.5 196.25,-118.5 196.25,-118.5 279.75,-118.5 279.75,-118.5 285.75,-118.5 291.75,-124.5 291.75,-130.5 291.75,-130.5 291.75,-142.5 291.75,-142.5 291.75,-148.5 285.75,-154.5 279.75,-154.5"/>
<text xml:space="preserve" text-anchor="middle" x="238" y="-132.8" font-family="Arial Bold" font-size="11.00" fill="white">Map Visualization</text>
</g>
<!-- center&#45;&gt;cat_map -->
<g id="edge1" class="edge">
<title>center&#45;&gt;cat_map</title>
<path fill="none" stroke="#2196f3" stroke-width="2" d="M914.62,-231.5C727.65,-231.5 238,-231.5 238,-231.5 238,-231.5 238,-167.84 238,-167.84"/>
<polygon fill="#2196f3" stroke="#2196f3" stroke-width="2" points="241.5,-167.84 238,-157.84 234.5,-167.84 241.5,-167.84"/>
</g>
<!-- cat_sun -->
<g id="node3" class="node">
<title>cat_sun</title>
<path fill="#2196f3" stroke="black" d="M686.5,-154.5C686.5,-154.5 625.5,-154.5 625.5,-154.5 619.5,-154.5 613.5,-148.5 613.5,-142.5 613.5,-142.5 613.5,-130.5 613.5,-130.5 613.5,-124.5 619.5,-118.5 625.5,-118.5 625.5,-118.5 686.5,-118.5 686.5,-118.5 692.5,-118.5 698.5,-124.5 698.5,-130.5 698.5,-130.5 698.5,-142.5 698.5,-142.5 698.5,-148.5 692.5,-154.5 686.5,-154.5"/>
<text xml:space="preserve" text-anchor="middle" x="656" y="-132.8" font-family="Arial Bold" font-size="11.00" fill="white">Sun Tracking</text>
</g>
<!-- center&#45;&gt;cat_sun -->
<g id="edge2" class="edge">
<title>center&#45;&gt;cat_sun</title>
<path fill="none" stroke="#2196f3" stroke-width="2" d="M931.5,-212.19C931.5,-186.01 931.5,-142.5 931.5,-142.5 931.5,-142.5 711.77,-142.5 711.77,-142.5"/>
<polygon fill="#2196f3" stroke="#2196f3" stroke-width="2" points="711.77,-139 701.77,-142.5 711.77,-146 711.77,-139"/>
</g>
<!-- cat_panel -->
<g id="node4" class="node">
<title>cat_panel</title>
<path fill="#2196f3" stroke="black" d="M1012,-154.5C1012,-154.5 960,-154.5 960,-154.5 954,-154.5 948,-148.5 948,-142.5 948,-142.5 948,-130.5 948,-130.5 948,-124.5 954,-118.5 960,-118.5 960,-118.5 1012,-118.5 1012,-118.5 1018,-118.5 1024,-124.5 1024,-130.5 1024,-130.5 1024,-142.5 1024,-142.5 1024,-148.5 1018,-154.5 1012,-154.5"/>
<text xml:space="preserve" text-anchor="middle" x="986" y="-139.55" font-family="Arial Bold" font-size="11.00" fill="white">Solar Panel</text>
<text xml:space="preserve" text-anchor="middle" x="986" y="-126.05" font-family="Arial Bold" font-size="11.00" fill="white">Optimizer</text>
</g>
<!-- center&#45;&gt;cat_panel -->
<g id="edge3" class="edge">
<title>center&#45;&gt;cat_panel</title>
<path fill="none" stroke="#2196f3" stroke-width="2" d="M986,-212.28C986,-212.28 986,-167.76 986,-167.76"/>
<polygon fill="#2196f3" stroke="#2196f3" stroke-width="2" points="989.5,-167.76 986,-157.76 982.5,-167.76 989.5,-167.76"/>
</g>
<!-- cat_energy -->
<g id="node5" class="node">
<title>cat_energy</title>
<path fill="#2196f3" stroke="black" d="M1296.12,-154.5C1296.12,-154.5 1247.88,-154.5 1247.88,-154.5 1241.88,-154.5 1235.88,-148.5 1235.88,-142.5 1235.88,-142.5 1235.88,-130.5 1235.88,-130.5 1235.88,-124.5 1241.88,-118.5 1247.88,-118.5 1247.88,-118.5 1296.12,-118.5 1296.12,-118.5 1302.12,-118.5 1308.12,-124.5 1308.12,-130.5 1308.12,-130.5 1308.12,-142.5 1308.12,-142.5 1308.12,-148.5 1302.12,-154.5 1296.12,-154.5"/>
<text xml:space="preserve" text-anchor="middle" x="1272" y="-139.55" font-family="Arial Bold" font-size="11.00" fill="white">Energy</text>
<text xml:space="preserve" text-anchor="middle" x="1272" y="-126.05" font-family="Arial Bold" font-size="11.00" fill="white">Estimation</text>
</g>
<!-- center&#45;&gt;cat_energy -->
<g id="edge4" class="edge">
<title>center&#45;&gt;cat_energy</title>
<path fill="none" stroke="#2196f3" stroke-width="2" d="M1040.5,-212.19C1040.5,-186.01 1040.5,-142.5 1040.5,-142.5 1040.5,-142.5 1222.55,-142.5 1222.55,-142.5"/>
<polygon fill="#2196f3" stroke="#2196f3" stroke-width="2" points="1222.55,-146 1232.55,-142.5 1222.55,-139 1222.55,-146"/>
</g>
<!-- cat_search -->
<g id="node6" class="node">
<title>cat_search</title>
<path fill="#2196f3" stroke="black" d="M1650.88,-154.5C1650.88,-154.5 1613.12,-154.5 1613.12,-154.5 1607.12,-154.5 1601.12,-148.5 1601.12,-142.5 1601.12,-142.5 1601.12,-130.5 1601.12,-130.5 1601.12,-124.5 1607.12,-118.5 1613.12,-118.5 1613.12,-118.5 1650.88,-118.5 1650.88,-118.5 1656.88,-118.5 1662.88,-124.5 1662.88,-130.5 1662.88,-130.5 1662.88,-142.5 1662.88,-142.5 1662.88,-148.5 1656.88,-154.5 1650.88,-154.5"/>
<text xml:space="preserve" text-anchor="middle" x="1632" y="-139.55" font-family="Arial Bold" font-size="11.00" fill="white">Location</text>
<text xml:space="preserve" text-anchor="middle" x="1632" y="-126.05" font-family="Arial Bold" font-size="11.00" fill="white">Services</text>
</g>
<!-- center&#45;&gt;cat_search -->
<g id="edge5" class="edge">
<title>center&#45;&gt;cat_search</title>
<path fill="none" stroke="#2196f3" stroke-width="2" d="M1057.29,-231.5C1225.3,-231.5 1632,-231.5 1632,-231.5 1632,-231.5 1632,-167.84 1632,-167.84"/>
<polygon fill="#2196f3" stroke="#2196f3" stroke-width="2" points="1635.5,-167.84 1632,-157.84 1628.5,-167.84 1635.5,-167.84"/>
</g>
<!-- f1 -->
<g id="node7" class="node">
<title>f1</title>
<path fill="#4caf50" stroke="black" d="M88,-60.5C88,-60.5 12,-60.5 12,-60.5 6,-60.5 0,-54.5 0,-48.5 0,-48.5 0,-36.5 0,-36.5 0,-30.5 6,-24.5 12,-24.5 12,-24.5 88,-24.5 88,-24.5 94,-24.5 100,-30.5 100,-36.5 100,-36.5 100,-48.5 100,-48.5 100,-54.5 94,-60.5 88,-60.5"/>
<text xml:space="preserve" text-anchor="middle" x="50" y="-45" font-family="Arial" font-size="10.00" fill="white">6 Tile Providers</text>
<text xml:space="preserve" text-anchor="middle" x="50" y="-33" font-family="Arial" font-size="10.00" fill="white">OSM/CartoDB/Esri</text>
</g>
<!-- cat_map&#45;&gt;f1 -->
<g id="edge6" class="edge">
<title>cat_map&#45;&gt;f1</title>
<path fill="none" stroke="#4caf50" stroke-width="1.5" d="M183.87,-136.5C128.34,-136.5 50,-136.5 50,-136.5 50,-136.5 50,-72.89 50,-72.89"/>
<polygon fill="#4caf50" stroke="#4caf50" stroke-width="1.5" points="53.5,-72.89 50,-62.89 46.5,-72.89 53.5,-72.89"/>
</g>
<!-- f2 -->
<g id="node8" class="node">
<title>f2</title>
<path fill="#4caf50" stroke="black" d="M209.88,-60.5C209.88,-60.5 148.12,-60.5 148.12,-60.5 142.12,-60.5 136.12,-54.5 136.12,-48.5 136.12,-48.5 136.12,-36.5 136.12,-36.5 136.12,-30.5 142.12,-24.5 148.12,-24.5 148.12,-24.5 209.88,-24.5 209.88,-24.5 215.88,-24.5 221.88,-30.5 221.88,-36.5 221.88,-36.5 221.88,-48.5 221.88,-48.5 221.88,-54.5 215.88,-60.5 209.88,-60.5"/>
<text xml:space="preserve" text-anchor="middle" x="179" y="-45" font-family="Arial" font-size="10.00" fill="white">Layer Switching</text>
<text xml:space="preserve" text-anchor="middle" x="179" y="-33" font-family="Arial" font-size="10.00" fill="white">Auto Fallback</text>
</g>
<!-- cat_map&#45;&gt;f2 -->
<g id="edge7" class="edge">
<title>cat_map&#45;&gt;f2</title>
<path fill="none" stroke="#4caf50" stroke-width="1.5" d="M203.06,-118.38C203.06,-118.38 203.06,-73.16 203.06,-73.16"/>
<polygon fill="#4caf50" stroke="#4caf50" stroke-width="1.5" points="206.56,-73.16 203.06,-63.16 199.56,-73.16 206.56,-73.16"/>
</g>
<!-- f3 -->
<g id="node9" class="node">
<title>f3</title>
<path fill="#4caf50" stroke="black" d="M321.62,-60.5C321.62,-60.5 270.38,-60.5 270.38,-60.5 264.38,-60.5 258.38,-54.5 258.38,-48.5 258.38,-48.5 258.38,-36.5 258.38,-36.5 258.38,-30.5 264.38,-24.5 270.38,-24.5 270.38,-24.5 321.62,-24.5 321.62,-24.5 327.62,-24.5 333.62,-30.5 333.62,-36.5 333.62,-36.5 333.62,-48.5 333.62,-48.5 333.62,-54.5 327.62,-60.5 321.62,-60.5"/>
<text xml:space="preserve" text-anchor="middle" x="296" y="-45" font-family="Arial" font-size="10.00" fill="white">Scale Control</text>
<text xml:space="preserve" text-anchor="middle" x="296" y="-33" font-family="Arial" font-size="10.00" fill="white">Zoom/Pan</text>
</g>
<!-- cat_map&#45;&gt;f3 -->
<g id="edge8" class="edge">
<title>cat_map&#45;&gt;f3</title>
<path fill="none" stroke="#4caf50" stroke-width="1.5" d="M275.06,-118.38C275.06,-118.38 275.06,-73.16 275.06,-73.16"/>
<polygon fill="#4caf50" stroke="#4caf50" stroke-width="1.5" points="278.56,-73.16 275.06,-63.16 271.56,-73.16 278.56,-73.16"/>
</g>
<!-- f4 -->
<g id="node10" class="node">
<title>f4</title>
<path fill="#4caf50" stroke="black" d="M446,-60.5C446,-60.5 382,-60.5 382,-60.5 376,-60.5 370,-54.5 370,-48.5 370,-48.5 370,-36.5 370,-36.5 370,-30.5 376,-24.5 382,-24.5 382,-24.5 446,-24.5 446,-24.5 452,-24.5 458,-30.5 458,-36.5 458,-36.5 458,-48.5 458,-48.5 458,-54.5 452,-60.5 446,-60.5"/>
<text xml:space="preserve" text-anchor="middle" x="414" y="-45" font-family="Arial" font-size="10.00" fill="white">Real&#45;time Sun</text>
<text xml:space="preserve" text-anchor="middle" x="414" y="-33" font-family="Arial" font-size="10.00" fill="white">Altitude/Azimuth</text>
</g>
<!-- cat_sun&#45;&gt;f4 -->
<g id="edge9" class="edge">
<title>cat_sun&#45;&gt;f4</title>
<path fill="none" stroke="#4caf50" stroke-width="1.5" d="M613.01,-136.5C543.47,-136.5 414,-136.5 414,-136.5 414,-136.5 414,-72.89 414,-72.89"/>
<polygon fill="#4caf50" stroke="#4caf50" stroke-width="1.5" points="417.5,-72.89 414,-62.89 410.5,-72.89 417.5,-72.89"/>
</g>
<!-- f5 -->
<g id="node11" class="node">
<title>f5</title>
<path fill="#4caf50" stroke="black" d="M575.62,-60.5C575.62,-60.5 506.38,-60.5 506.38,-60.5 500.38,-60.5 494.38,-54.5 494.38,-48.5 494.38,-48.5 494.38,-36.5 494.38,-36.5 494.38,-30.5 500.38,-24.5 506.38,-24.5 506.38,-24.5 575.62,-24.5 575.62,-24.5 581.62,-24.5 587.62,-30.5 587.62,-36.5 587.62,-36.5 587.62,-48.5 587.62,-48.5 587.62,-54.5 581.62,-60.5 575.62,-60.5"/>
<text xml:space="preserve" text-anchor="middle" x="541" y="-45" font-family="Arial" font-size="10.00" fill="white">Sun Path Overlay</text>
<text xml:space="preserve" text-anchor="middle" x="541" y="-33" font-family="Arial" font-size="10.00" fill="white">Daily Arc</text>
</g>
<!-- cat_sun&#45;&gt;f5 -->
<g id="edge10" class="edge">
<title>cat_sun&#45;&gt;f5</title>
<path fill="none" stroke="#4caf50" stroke-width="1.5" d="M618.56,-118.38C618.56,-91.06 618.56,-42.5 618.56,-42.5 618.56,-42.5 600.18,-42.5 600.18,-42.5"/>
<polygon fill="#4caf50" stroke="#4caf50" stroke-width="1.5" points="600.18,-39 590.18,-42.5 600.18,-46 600.18,-39"/>
</g>
<!-- f6 -->
<g id="node12" class="node">
<title>f6</title>
<path fill="#4caf50" stroke="black" d="M676.38,-60.5C676.38,-60.5 635.62,-60.5 635.62,-60.5 629.62,-60.5 623.62,-54.5 623.62,-48.5 623.62,-48.5 623.62,-36.5 623.62,-36.5 623.62,-30.5 629.62,-24.5 635.62,-24.5 635.62,-24.5 676.38,-24.5 676.38,-24.5 682.38,-24.5 688.38,-30.5 688.38,-36.5 688.38,-36.5 688.38,-48.5 688.38,-48.5 688.38,-54.5 682.38,-60.5 676.38,-60.5"/>
<text xml:space="preserve" text-anchor="middle" x="656" y="-45" font-family="Arial" font-size="10.00" fill="white">Irradiance</text>
<text xml:space="preserve" text-anchor="middle" x="656" y="-33" font-family="Arial" font-size="10.00" fill="white">Calculation</text>
</g>
<!-- cat_sun&#45;&gt;f6 -->
<g id="edge11" class="edge">
<title>cat_sun&#45;&gt;f6</title>
<path fill="none" stroke="#4caf50" stroke-width="1.5" d="M656,-118.38C656,-118.38 656,-73.16 656,-73.16"/>
<polygon fill="#4caf50" stroke="#4caf50" stroke-width="1.5" points="659.5,-73.16 656,-63.16 652.5,-73.16 659.5,-73.16"/>
</g>
<!-- f7 -->
<g id="node13" class="node">
<title>f7</title>
<path fill="#4caf50" stroke="black" d="M793.62,-60.5C793.62,-60.5 736.38,-60.5 736.38,-60.5 730.38,-60.5 724.38,-54.5 724.38,-48.5 724.38,-48.5 724.38,-36.5 724.38,-36.5 724.38,-30.5 730.38,-24.5 736.38,-24.5 736.38,-24.5 793.62,-24.5 793.62,-24.5 799.62,-24.5 805.62,-30.5 805.62,-36.5 805.62,-36.5 805.62,-48.5 805.62,-48.5 805.62,-54.5 799.62,-60.5 793.62,-60.5"/>
<text xml:space="preserve" text-anchor="middle" x="765" y="-45" font-family="Arial" font-size="10.00" fill="white">Daylight Hours</text>
<text xml:space="preserve" text-anchor="middle" x="765" y="-33" font-family="Arial" font-size="10.00" fill="white">Tracking</text>
</g>
<!-- cat_sun&#45;&gt;f7 -->
<g id="edge12" class="edge">
<title>cat_sun&#45;&gt;f7</title>
<path fill="none" stroke="#4caf50" stroke-width="1.5" d="M693.44,-118.38C693.44,-91.06 693.44,-42.5 693.44,-42.5 693.44,-42.5 711.93,-42.5 711.93,-42.5"/>
<polygon fill="#4caf50" stroke="#4caf50" stroke-width="1.5" points="711.93,-46 721.93,-42.5 711.93,-39 711.93,-46"/>
</g>
<!-- f8 -->
<g id="node14" class="node">
<title>f8</title>
<path fill="#4caf50" stroke="black" d="M900.75,-60.5C900.75,-60.5 853.25,-60.5 853.25,-60.5 847.25,-60.5 841.25,-54.5 841.25,-48.5 841.25,-48.5 841.25,-36.5 841.25,-36.5 841.25,-30.5 847.25,-24.5 853.25,-24.5 853.25,-24.5 900.75,-24.5 900.75,-24.5 906.75,-24.5 912.75,-30.5 912.75,-36.5 912.75,-36.5 912.75,-48.5 912.75,-48.5 912.75,-54.5 906.75,-60.5 900.75,-60.5"/>
<text xml:space="preserve" text-anchor="middle" x="877" y="-45" font-family="Arial" font-size="10.00" fill="white">Panel Grid</text>
<text xml:space="preserve" text-anchor="middle" x="877" y="-33" font-family="Arial" font-size="10.00" fill="white">Visualization</text>
</g>
<!-- cat_panel&#45;&gt;f8 -->
<g id="edge13" class="edge">
<title>cat_panel&#45;&gt;f8</title>
<path fill="none" stroke="#4caf50" stroke-width="1.5" d="M947.57,-130.5C916.19,-130.5 877,-130.5 877,-130.5 877,-130.5 877,-73 877,-73"/>
<polygon fill="#4caf50" stroke="#4caf50" stroke-width="1.5" points="880.5,-73 877,-63 873.5,-73 880.5,-73"/>
</g>
<!-- f9 -->
<g id="node15" class="node">
<title>f9</title>
<path fill="#4caf50" stroke="black" d="M1010.88,-60.5C1010.88,-60.5 961.12,-60.5 961.12,-60.5 955.12,-60.5 949.12,-54.5 949.12,-48.5 949.12,-48.5 949.12,-36.5 949.12,-36.5 949.12,-30.5 955.12,-24.5 961.12,-24.5 961.12,-24.5 1010.88,-24.5 1010.88,-24.5 1016.88,-24.5 1022.88,-30.5 1022.88,-36.5 1022.88,-36.5 1022.88,-48.5 1022.88,-48.5 1022.88,-54.5 1016.88,-60.5 1010.88,-60.5"/>
<text xml:space="preserve" text-anchor="middle" x="986" y="-45" font-family="Arial" font-size="10.00" fill="white">Tilt/Azimuth</text>
<text xml:space="preserve" text-anchor="middle" x="986" y="-33" font-family="Arial" font-size="10.00" fill="white">Configuration</text>
</g>
<!-- cat_panel&#45;&gt;f9 -->
<g id="edge14" class="edge">
<title>cat_panel&#45;&gt;f9</title>
<path fill="none" stroke="#4caf50" stroke-width="1.5" d="M986,-118.38C986,-118.38 986,-73.16 986,-73.16"/>
<polygon fill="#4caf50" stroke="#4caf50" stroke-width="1.5" points="989.5,-73.16 986,-63.16 982.5,-73.16 989.5,-73.16"/>
</g>
<!-- f10 -->
<g id="node16" class="node">
<title>f10</title>
<path fill="#4caf50" stroke="black" d="M1127.25,-60.5C1127.25,-60.5 1070.75,-60.5 1070.75,-60.5 1064.75,-60.5 1058.75,-54.5 1058.75,-48.5 1058.75,-48.5 1058.75,-36.5 1058.75,-36.5 1058.75,-30.5 1064.75,-24.5 1070.75,-24.5 1070.75,-24.5 1127.25,-24.5 1127.25,-24.5 1133.25,-24.5 1139.25,-30.5 1139.25,-36.5 1139.25,-36.5 1139.25,-48.5 1139.25,-48.5 1139.25,-54.5 1133.25,-60.5 1127.25,-60.5"/>
<text xml:space="preserve" text-anchor="middle" x="1099" y="-45" font-family="Arial" font-size="10.00" fill="white">Optimal Tilt</text>
<text xml:space="preserve" text-anchor="middle" x="1099" y="-33" font-family="Arial" font-size="10.00" fill="white">Auto&#45;Calculate</text>
</g>
<!-- cat_panel&#45;&gt;f10 -->
<g id="edge15" class="edge">
<title>cat_panel&#45;&gt;f10</title>
<path fill="none" stroke="#4caf50" stroke-width="1.5" d="M1024.26,-130.5C1057.04,-130.5 1099,-130.5 1099,-130.5 1099,-130.5 1099,-73 1099,-73"/>
<polygon fill="#4caf50" stroke="#4caf50" stroke-width="1.5" points="1102.5,-73 1099,-63 1095.5,-73 1102.5,-73"/>
</g>
<!-- f11 -->
<g id="node17" class="node">
<title>f11</title>
<path fill="#4caf50" stroke="black" d="M1242.5,-60.5C1242.5,-60.5 1187.5,-60.5 1187.5,-60.5 1181.5,-60.5 1175.5,-54.5 1175.5,-48.5 1175.5,-48.5 1175.5,-36.5 1175.5,-36.5 1175.5,-30.5 1181.5,-24.5 1187.5,-24.5 1187.5,-24.5 1242.5,-24.5 1242.5,-24.5 1248.5,-24.5 1254.5,-30.5 1254.5,-36.5 1254.5,-36.5 1254.5,-48.5 1254.5,-48.5 1254.5,-54.5 1248.5,-60.5 1242.5,-60.5"/>
<text xml:space="preserve" text-anchor="middle" x="1215" y="-45" font-family="Arial" font-size="10.00" fill="white">Current Power</text>
<text xml:space="preserve" text-anchor="middle" x="1215" y="-33" font-family="Arial" font-size="10.00" fill="white">Output (kW)</text>
</g>
<!-- cat_energy&#45;&gt;f11 -->
<g id="edge16" class="edge">
<title>cat_energy&#45;&gt;f11</title>
<path fill="none" stroke="#4caf50" stroke-width="1.5" d="M1245.19,-118.38C1245.19,-118.38 1245.19,-73.16 1245.19,-73.16"/>
<polygon fill="#4caf50" stroke="#4caf50" stroke-width="1.5" points="1248.69,-73.16 1245.19,-63.16 1241.69,-73.16 1248.69,-73.16"/>
</g>
<!-- f12 -->
<g id="node18" class="node">
<title>f12</title>
<path fill="#4caf50" stroke="black" d="M1355,-60.5C1355,-60.5 1303,-60.5 1303,-60.5 1297,-60.5 1291,-54.5 1291,-48.5 1291,-48.5 1291,-36.5 1291,-36.5 1291,-30.5 1297,-24.5 1303,-24.5 1303,-24.5 1355,-24.5 1355,-24.5 1361,-24.5 1367,-30.5 1367,-36.5 1367,-36.5 1367,-48.5 1367,-48.5 1367,-54.5 1361,-60.5 1355,-60.5"/>
<text xml:space="preserve" text-anchor="middle" x="1329" y="-45" font-family="Arial" font-size="10.00" fill="white">Daily/Monthly</text>
<text xml:space="preserve" text-anchor="middle" x="1329" y="-33" font-family="Arial" font-size="10.00" fill="white">Energy (kWh)</text>
</g>
<!-- cat_energy&#45;&gt;f12 -->
<g id="edge17" class="edge">
<title>cat_energy&#45;&gt;f12</title>
<path fill="none" stroke="#4caf50" stroke-width="1.5" d="M1299.56,-118.38C1299.56,-118.38 1299.56,-73.16 1299.56,-73.16"/>
<polygon fill="#4caf50" stroke="#4caf50" stroke-width="1.5" points="1303.06,-73.16 1299.56,-63.16 1296.06,-73.16 1303.06,-73.16"/>
</g>
<!-- f13 -->
<g id="node19" class="node">
<title>f13</title>
<path fill="#4caf50" stroke="black" d="M1470.88,-60.5C1470.88,-60.5 1415.12,-60.5 1415.12,-60.5 1409.12,-60.5 1403.12,-54.5 1403.12,-48.5 1403.12,-48.5 1403.12,-36.5 1403.12,-36.5 1403.12,-30.5 1409.12,-24.5 1415.12,-24.5 1415.12,-24.5 1470.88,-24.5 1470.88,-24.5 1476.88,-24.5 1482.88,-30.5 1482.88,-36.5 1482.88,-36.5 1482.88,-48.5 1482.88,-48.5 1482.88,-54.5 1476.88,-60.5 1470.88,-60.5"/>
<text xml:space="preserve" text-anchor="middle" x="1443" y="-45" font-family="Arial" font-size="10.00" fill="white">Annual Energy</text>
<text xml:space="preserve" text-anchor="middle" x="1443" y="-33" font-family="Arial" font-size="10.00" fill="white">Estimate</text>
</g>
<!-- cat_energy&#45;&gt;f13 -->
<g id="edge18" class="edge">
<title>cat_energy&#45;&gt;f13</title>
<path fill="none" stroke="#4caf50" stroke-width="1.5" d="M1308.26,-136.5C1358.46,-136.5 1443,-136.5 1443,-136.5 1443,-136.5 1443,-72.89 1443,-72.89"/>
<polygon fill="#4caf50" stroke="#4caf50" stroke-width="1.5" points="1446.5,-72.89 1443,-62.89 1439.5,-72.89 1446.5,-72.89"/>
</g>
<!-- f14 -->
<g id="node20" class="node">
<title>f14</title>
<path fill="#4caf50" stroke="black" d="M1603.5,-60.5C1603.5,-60.5 1530.5,-60.5 1530.5,-60.5 1524.5,-60.5 1518.5,-54.5 1518.5,-48.5 1518.5,-48.5 1518.5,-36.5 1518.5,-36.5 1518.5,-30.5 1524.5,-24.5 1530.5,-24.5 1530.5,-24.5 1603.5,-24.5 1603.5,-24.5 1609.5,-24.5 1615.5,-30.5 1615.5,-36.5 1615.5,-36.5 1615.5,-48.5 1615.5,-48.5 1615.5,-54.5 1609.5,-60.5 1603.5,-60.5"/>
<text xml:space="preserve" text-anchor="middle" x="1567" y="-45" font-family="Arial" font-size="10.00" fill="white">Location Search</text>
<text xml:space="preserve" text-anchor="middle" x="1567" y="-33" font-family="Arial" font-size="10.00" fill="white">Photon/Nominatim</text>
</g>
<!-- cat_search&#45;&gt;f14 -->
<g id="edge19" class="edge">
<title>cat_search&#45;&gt;f14</title>
<path fill="none" stroke="#4caf50" stroke-width="1.5" d="M1608.31,-118.38C1608.31,-118.38 1608.31,-73.16 1608.31,-73.16"/>
<polygon fill="#4caf50" stroke="#4caf50" stroke-width="1.5" points="1611.81,-73.16 1608.31,-63.16 1604.81,-73.16 1611.81,-73.16"/>
</g>
<!-- f15 -->
<g id="node21" class="node">
<title>f15</title>
<path fill="#4caf50" stroke="black" d="M1730.88,-60.5C1730.88,-60.5 1663.12,-60.5 1663.12,-60.5 1657.12,-60.5 1651.12,-54.5 1651.12,-48.5 1651.12,-48.5 1651.12,-36.5 1651.12,-36.5 1651.12,-30.5 1657.12,-24.5 1663.12,-24.5 1663.12,-24.5 1730.88,-24.5 1730.88,-24.5 1736.88,-24.5 1742.88,-30.5 1742.88,-36.5 1742.88,-36.5 1742.88,-48.5 1742.88,-48.5 1742.88,-54.5 1736.88,-60.5 1730.88,-60.5"/>
<text xml:space="preserve" text-anchor="middle" x="1697" y="-45" font-family="Arial" font-size="10.00" fill="white">GPS Geolocation</text>
<text xml:space="preserve" text-anchor="middle" x="1697" y="-33" font-family="Arial" font-size="10.00" fill="white">Browser API</text>
</g>
<!-- cat_search&#45;&gt;f15 -->
<g id="edge20" class="edge">
<title>cat_search&#45;&gt;f15</title>
<path fill="none" stroke="#4caf50" stroke-width="1.5" d="M1657,-118.38C1657,-118.38 1657,-73.16 1657,-73.16"/>
<polygon fill="#4caf50" stroke="#4caf50" stroke-width="1.5" points="1660.5,-73.16 1657,-63.16 1653.5,-73.16 1660.5,-73.16"/>
</g>
<!-- f16 -->
<g id="node22" class="node">
<title>f16</title>
<path fill="#4caf50" stroke="black" d="M1841.25,-60.5C1841.25,-60.5 1790.75,-60.5 1790.75,-60.5 1784.75,-60.5 1778.75,-54.5 1778.75,-48.5 1778.75,-48.5 1778.75,-36.5 1778.75,-36.5 1778.75,-30.5 1784.75,-24.5 1790.75,-24.5 1790.75,-24.5 1841.25,-24.5 1841.25,-24.5 1847.25,-24.5 1853.25,-30.5 1853.25,-36.5 1853.25,-36.5 1853.25,-48.5 1853.25,-48.5 1853.25,-54.5 1847.25,-60.5 1841.25,-60.5"/>
<text xml:space="preserve" text-anchor="middle" x="1816" y="-45" font-family="Arial" font-size="10.00" fill="white">Coordinate</text>
<text xml:space="preserve" text-anchor="middle" x="1816" y="-33" font-family="Arial" font-size="10.00" fill="white">Input Support</text>
</g>
<!-- cat_search&#45;&gt;f16 -->
<g id="edge21" class="edge">
<title>cat_search&#45;&gt;f16</title>
<path fill="none" stroke="#4caf50" stroke-width="1.5" d="M1663.21,-136.5C1715.71,-136.5 1816,-136.5 1816,-136.5 1816,-136.5 1816,-72.89 1816,-72.89"/>
<polygon fill="#4caf50" stroke="#4caf50" stroke-width="1.5" points="1819.5,-72.89 1816,-62.89 1812.5,-72.89 1819.5,-72.89"/>
</g>
</g>
</svg>
