<?xml version="1.0" encoding="UTF-8" standalone="no"?>
<!DOCTYPE svg PUBLIC "-//W3C//DTD SVG 1.1//EN"
 "http://www.w3.org/Graphics/SVG/1.1/DTD/svg11.dtd">
<!-- Generated by graphviz version 14.1.4 (20260321.0153)
 -->
<!-- Title: cs_oop Pages: 1 -->
<svg width="710pt" height="309pt"
 viewBox="0.00 0.00 710.00 309.00" xmlns="http://www.w3.org/2000/svg" xmlns:xlink="http://www.w3.org/1999/xlink">
<style>
text { paint-order: stroke; stroke: #ffffff; stroke-width: 3px; stroke-linejoin: round; fill: #1a1a2e; }
</style>
<g id="graph0" class="graph" transform="scale(1 1) rotate(0) translate(4 304.5)">
<title>cs_oop</title>
<polygon fill="white" stroke="none" points="-4,4 -4,-304.5 705.5,-304.5 705.5,4 -4,4"/>
<text xml:space="preserve" text-anchor="middle" x="350.75" y="-7.2" font-family="Times New Roman,serif" font-size="14.00">C# OOP &#45; class vs struct, interface, record</text>
<!-- title -->
<g id="node1" class="node">
<title>title</title>
<path fill="#1565c0" stroke="black" d="M402.12,-300.5C402.12,-300.5 305.88,-300.5 305.88,-300.5 299.88,-300.5 293.88,-294.5 293.88,-288.5 293.88,-288.5 293.88,-276.5 293.88,-276.5 293.88,-270.5 299.88,-264.5 305.88,-264.5 305.88,-264.5 402.12,-264.5 402.12,-264.5 408.12,-264.5 414.12,-270.5 414.12,-276.5 414.12,-276.5 414.12,-288.5 414.12,-288.5 414.12,-294.5 408.12,-300.5 402.12,-300.5"/>
<text xml:space="preserve" text-anchor="middle" x="354" y="-277.07" font-family="Arial Bold" font-size="14.00" fill="#ffffff">C# Type System</text>
</g>
<!-- cls -->
<g id="node2" class="node">
<title>cls</title>
<path fill="#2196f3" stroke="black" d="M148,-206.5C148,-206.5 12,-206.5 12,-206.5 6,-206.5 0,-200.5 0,-194.5 0,-194.5 0,-156.5 0,-156.5 0,-150.5 6,-144.5 12,-144.5 12,-144.5 148,-144.5 148,-144.5 154,-144.5 160,-150.5 160,-156.5 160,-156.5 160,-194.5 160,-194.5 160,-200.5 154,-206.5 148,-206.5"/>
<text xml:space="preserve" text-anchor="middle" x="80" y="-192.05" font-family="Arial Bold" font-size="11.00" fill="#ffffff">class</text>
<text xml:space="preserve" text-anchor="middle" x="80" y="-178.55" font-family="Arial Bold" font-size="11.00" fill="#ffffff">reference type (heap)</text>
<text xml:space="preserve" text-anchor="middle" x="80" y="-165.05" font-family="Arial Bold" font-size="11.00" fill="#ffffff">inheritance, virtual/override</text>
<text xml:space="preserve" text-anchor="middle" x="80" y="-151.55" font-family="Arial Bold" font-size="11.00" fill="#ffffff">null default</text>
</g>
<!-- title&#45;&gt;cls -->
<g id="edge1" class="edge">
<title>title&#45;&gt;cls</title>
<path fill="none" stroke="#4caf50" stroke-width="2" d="M293.53,-282.5C212.84,-282.5 80,-282.5 80,-282.5 80,-282.5 80,-219.76 80,-219.76"/>
<polygon fill="#4caf50" stroke="#4caf50" stroke-width="2" points="83.5,-219.76 80,-209.76 76.5,-219.76 83.5,-219.76"/>
</g>
<!-- st -->
<g id="node3" class="node">
<title>st</title>
<path fill="#2196f3" stroke="black" d="M329.88,-206.5C329.88,-206.5 208.12,-206.5 208.12,-206.5 202.12,-206.5 196.12,-200.5 196.12,-194.5 196.12,-194.5 196.12,-156.5 196.12,-156.5 196.12,-150.5 202.12,-144.5 208.12,-144.5 208.12,-144.5 329.88,-144.5 329.88,-144.5 335.88,-144.5 341.88,-150.5 341.88,-156.5 341.88,-156.5 341.88,-194.5 341.88,-194.5 341.88,-200.5 335.88,-206.5 329.88,-206.5"/>
<text xml:space="preserve" text-anchor="middle" x="269" y="-192.05" font-family="Arial Bold" font-size="11.00" fill="#ffffff">struct</text>
<text xml:space="preserve" text-anchor="middle" x="269" y="-178.55" font-family="Arial Bold" font-size="11.00" fill="#ffffff">value type (stack/copied)</text>
<text xml:space="preserve" text-anchor="middle" x="269" y="-165.05" font-family="Arial Bold" font-size="11.00" fill="#ffffff">no inheritance</text>
<text xml:space="preserve" text-anchor="middle" x="269" y="-151.55" font-family="Arial Bold" font-size="11.00" fill="#ffffff">non&#45;null default</text>
</g>
<!-- title&#45;&gt;st -->
<g id="edge2" class="edge">
<title>title&#45;&gt;st</title>
<path fill="none" stroke="#00bcd4" stroke-width="2" d="M317.88,-264.35C317.88,-264.35 317.88,-219.79 317.88,-219.79"/>
<polygon fill="#00bcd4" stroke="#00bcd4" stroke-width="2" points="321.38,-219.79 317.88,-209.79 314.38,-219.79 321.38,-219.79"/>
</g>
<!-- iface -->
<g id="node4" class="node">
<title>iface</title>
<path fill="#2196f3" stroke="black" d="M490,-206.5C490,-206.5 390,-206.5 390,-206.5 384,-206.5 378,-200.5 378,-194.5 378,-194.5 378,-156.5 378,-156.5 378,-150.5 384,-144.5 390,-144.5 390,-144.5 490,-144.5 490,-144.5 496,-144.5 502,-150.5 502,-156.5 502,-156.5 502,-194.5 502,-194.5 502,-200.5 496,-206.5 490,-206.5"/>
<text xml:space="preserve" text-anchor="middle" x="440" y="-192.05" font-family="Arial Bold" font-size="11.00" fill="#ffffff">interface</text>
<text xml:space="preserve" text-anchor="middle" x="440" y="-178.55" font-family="Arial Bold" font-size="11.00" fill="#ffffff">contract (no state)</text>
<text xml:space="preserve" text-anchor="middle" x="440" y="-165.05" font-family="Arial Bold" font-size="11.00" fill="#ffffff">default methods (8+)</text>
<text xml:space="preserve" text-anchor="middle" x="440" y="-151.55" font-family="Arial Bold" font-size="11.00" fill="#ffffff">multiple impl</text>
</g>
<!-- title&#45;&gt;iface -->
<g id="edge3" class="edge">
<title>title&#45;&gt;iface</title>
<path fill="none" stroke="#ff9800" stroke-width="2" d="M396.06,-264.35C396.06,-264.35 396.06,-219.79 396.06,-219.79"/>
<polygon fill="#ff9800" stroke="#ff9800" stroke-width="2" points="399.56,-219.79 396.06,-209.79 392.56,-219.79 399.56,-219.79"/>
</g>
<!-- rec -->
<g id="node5" class="node">
<title>rec</title>
<path fill="#2196f3" stroke="black" d="M689.5,-206.5C689.5,-206.5 550.5,-206.5 550.5,-206.5 544.5,-206.5 538.5,-200.5 538.5,-194.5 538.5,-194.5 538.5,-156.5 538.5,-156.5 538.5,-150.5 544.5,-144.5 550.5,-144.5 550.5,-144.5 689.5,-144.5 689.5,-144.5 695.5,-144.5 701.5,-150.5 701.5,-156.5 701.5,-156.5 701.5,-194.5 701.5,-194.5 701.5,-200.5 695.5,-206.5 689.5,-206.5"/>
<text xml:space="preserve" text-anchor="middle" x="620" y="-192.05" font-family="Arial Bold" font-size="11.00" fill="#ffffff">record (9+)</text>
<text xml:space="preserve" text-anchor="middle" x="620" y="-178.55" font-family="Arial Bold" font-size="11.00" fill="#ffffff">value&#45;based equality</text>
<text xml:space="preserve" text-anchor="middle" x="620" y="-165.05" font-family="Arial Bold" font-size="11.00" fill="#ffffff">immutable by default</text>
<text xml:space="preserve" text-anchor="middle" x="620" y="-151.55" font-family="Arial Bold" font-size="11.00" fill="#ffffff">with&#45;expressions, positional</text>
</g>
<!-- title&#45;&gt;rec -->
<g id="edge4" class="edge">
<title>title&#45;&gt;rec</title>
<path fill="none" stroke="#9c27b0" stroke-width="2" d="M414.36,-282.5C492.84,-282.5 620,-282.5 620,-282.5 620,-282.5 620,-219.76 620,-219.76"/>
<polygon fill="#9c27b0" stroke="#9c27b0" stroke-width="2" points="623.5,-219.76 620,-209.76 616.5,-219.76 623.5,-219.76"/>
</g>
<!-- poly -->
<g id="node6" class="node">
<title>poly</title>
<polygon fill="#ff9800" stroke="black" points="146.12,-86.5 13.88,-86.5 13.88,-24.5 146.12,-24.5 146.12,-86.5"/>
<text xml:space="preserve" text-anchor="middle" x="80" y="-72.05" font-family="Arial" font-size="11.00" fill="#ffffff">Polymorphism</text>
<text xml:space="preserve" text-anchor="middle" x="80" y="-58.55" font-family="Arial" font-size="11.00" fill="#ffffff">virtual + override</text>
<text xml:space="preserve" text-anchor="middle" x="80" y="-45.05" font-family="Arial" font-size="11.00" fill="#ffffff">abstract = must override</text>
<text xml:space="preserve" text-anchor="middle" x="80" y="-31.55" font-family="Arial" font-size="11.00" fill="#ffffff">sealed = no further</text>
</g>
<!-- cls&#45;&gt;poly -->
<g id="edge5" class="edge">
<title>cls&#45;&gt;poly</title>
<path fill="none" stroke="#f44336" stroke-width="2" d="M80,-144.28C80,-144.28 80,-100 80,-100"/>
<polygon fill="#f44336" stroke="#f44336" stroke-width="2" points="83.5,-100 80,-90 76.5,-100 83.5,-100"/>
</g>
</g>
</svg>
